<?xml version="1.0" encoding="utf-8" standalone="no"?>
<!DOCTYPE svg PUBLIC "-//W3C//DTD SVG 1.1//EN"
  "http://www.w3.org/Graphics/SVG/1.1/DTD/svg11.dtd">
<!-- Created with matplotlib (https://matplotlib.org/) -->
<svg height="302.4pt" version="1.1" viewBox="0 0 820.8 302.4" width="820.8pt" xmlns="http://www.w3.org/2000/svg" xmlns:xlink="http://www.w3.org/1999/xlink">
 <defs>
  <style type="text/css">
*{stroke-linecap:butt;stroke-linejoin:round;}
  </style>
 </defs>
 <g id="figure_1">
  <g id="patch_1">
   <path d="M 0 302.4 
L 820.8 302.4 
L 820.8 0 
L 0 0 
z
" style="fill:#ffffff;"/>
  </g>
  <g id="patch_2">
   <path d="M -30.6 262.8 
L 349.854545 262.8 
L 349.854545 -14.4 
L -30.6 -14.4 
z
" style="fill:#ffffff;"/>
  </g>
  <g id="pane3d_1">
   <g id="patch_3">
    <path d="M 19.835129 201.548569 
L 128.723211 133.58541 
L 126.910339 3.718968 
L 11.951034 64.782468 
" style="fill:#f2f2f2;opacity:0.5;stroke:#f2f2f2;stroke-linejoin:miter;"/>
   </g>
  </g>
  <g id="pane3d_2">
   <g id="patch_4">
    <path d="M 128.723211 133.58541 
L 305.111665 171.581202 
L 312.491547 37.79869 
L 126.910339 3.718968 
" style="fill:#e6e6e6;opacity:0.5;stroke:#e6e6e6;stroke-linejoin:miter;"/>
   </g>
  </g>
  <g id="pane3d_3">
   <g id="patch_5">
    <path d="M 19.835129 201.548569 
L 205.419617 245.80086 
L 305.111665 171.581202 
L 128.723211 133.58541 
" style="fill:#ececec;opacity:0.5;stroke:#ececec;stroke-linejoin:miter;"/>
   </g>
  </g>
  <g id="axis3d_1">
   <g id="line2d_1">
    <path d="M 19.835129 201.548569 
L 205.419617 245.80086 
" style="fill:none;stroke:#000000;stroke-linecap:square;stroke-width:0.8;"/>
   </g>
   <g id="Line3DCollection_1">
    <path d="M 42.295817 206.90428 
L 150.133942 138.19749 
L 149.393845 7.847789 
" style="fill:none;stroke:#b0b0b0;stroke-width:0.8;"/>
    <path d="M 87.512337 217.686079 
L 193.184014 147.470895 
L 194.636898 16.156123 
" style="fill:none;stroke:#b0b0b0;stroke-width:0.8;"/>
    <path d="M 133.765289 228.715013 
L 237.148096 156.941187 
L 240.890183 24.649974 
" style="fill:none;stroke:#b0b0b0;stroke-width:0.8;"/>
    <path d="M 181.090721 239.999678 
L 282.055608 166.614702 
L 288.187917 33.335625 
" style="fill:none;stroke:#b0b0b0;stroke-width:0.8;"/>
   </g>
   <g id="xtick_1">
    <g id="line2d_2">
     <path d="M 43.225084 206.312217 
L 40.433807 208.09062 
" style="fill:none;stroke:#000000;stroke-linecap:square;stroke-width:0.8;"/>
    </g>
    <g id="text_1">
     <!-- 00 -->
     <defs>
      <path d="M 42 31.84375 
C 42 37.96875 41.90625 48.421875 37.703125 56.453125 
C 34 63.484375 28.09375 66 22.90625 66 
C 18.09375 66 12 63.78125 8.203125 56.5625 
C 4.203125 49.015625 3.796875 39.671875 3.796875 31.84375 
C 3.796875 26.109375 3.90625 17.375 7 9.734375 
C 11.296875 -0.609375 19 -2 22.90625 -2 
C 27.5 -2 34.5 -0.109375 38.59375 9.4375 
C 41.59375 16.375 42 24.5 42 31.84375 
z
M 22.90625 -0.40625 
C 16.5 -0.40625 12.703125 5.125 11.296875 12.75 
C 10.203125 18.6875 10.203125 27.328125 10.203125 32.953125 
C 10.203125 40.6875 10.203125 47.109375 11.5 53.234375 
C 13.40625 61.78125 19 64.390625 22.90625 64.390625 
C 27 64.390625 32.296875 61.671875 34.203125 53.4375 
C 35.5 47.71875 35.59375 40.984375 35.59375 32.953125 
C 35.59375 26.421875 35.59375 18.375 34.40625 12.453125 
C 32.296875 1.5 26.40625 -0.40625 22.90625 -0.40625 
z
" id="CMR17-48"/>
     </defs>
     <g transform="translate(23.330362 237.14703)rotate(-45)scale(0.14 -0.14)">
      <use transform="scale(0.996264)" xlink:href="#CMR17-48"/>
      <use transform="translate(45.690477 0)scale(0.996264)" xlink:href="#CMR17-48"/>
     </g>
    </g>
   </g>
   <g id="xtick_2">
    <g id="line2d_3">
     <path d="M 88.423674 217.080527 
L 85.686217 218.899473 
" style="fill:none;stroke:#000000;stroke-linecap:square;stroke-width:0.8;"/>
    </g>
    <g id="text_2">
     <!-- 01 -->
     <defs>
      <path d="M 26.59375 63.796875 
C 26.59375 65.890625 26.5 66 25.09375 66 
C 21.203125 61.359375 15.296875 59.890625 9.703125 59.6875 
C 9.40625 59.6875 8.90625 59.6875 8.796875 59.5 
C 8.703125 59.296875 8.703125 59.09375 8.703125 57 
C 11.796875 57 17 57.59375 21 59.984375 
L 21 7.296875 
C 21 3.796875 20.796875 2.59375 12.203125 2.59375 
L 9.203125 2.59375 
L 9.203125 0 
C 14 0.09375 19 0.1875 23.796875 0.1875 
C 28.59375 0.1875 33.59375 0.09375 38.40625 0 
L 38.40625 2.59375 
L 35.40625 2.59375 
C 26.796875 2.59375 26.59375 3.6875 26.59375 7.296875 
z
" id="CMR17-49"/>
     </defs>
     <g transform="translate(68.542787 248.103782)rotate(-45)scale(0.14 -0.14)">
      <use transform="scale(0.996264)" xlink:href="#CMR17-48"/>
      <use transform="translate(45.690477 0)scale(0.996264)" xlink:href="#CMR17-49"/>
     </g>
    </g>
   </g>
   <g id="xtick_3">
    <g id="line2d_4">
     <path d="M 134.657625 228.095506 
L 131.977203 229.956397 
" style="fill:none;stroke:#000000;stroke-linecap:square;stroke-width:0.8;"/>
    </g>
    <g id="text_3">
     <!-- 10 -->
     <g transform="translate(114.7934 259.312128)rotate(-45)scale(0.14 -0.14)">
      <use transform="scale(0.996264)" xlink:href="#CMR17-49"/>
      <use transform="translate(45.690477 0)scale(0.996264)" xlink:href="#CMR17-48"/>
     </g>
    </g>
   </g>
   <g id="xtick_4">
    <g id="line2d_5">
     <path d="M 181.962926 239.365727 
L 179.342936 241.270032 
" style="fill:none;stroke:#000000;stroke-linecap:square;stroke-width:0.8;"/>
    </g>
    <g id="text_4">
     <!-- 11 -->
     <g transform="translate(162.118375 270.780834)rotate(-45)scale(0.14 -0.14)">
      <use transform="scale(0.996264)" xlink:href="#CMR17-49"/>
      <use transform="translate(45.690477 0)scale(0.996264)" xlink:href="#CMR17-49"/>
     </g>
    </g>
   </g>
  </g>
  <g id="axis3d_2">
   <g id="line2d_6">
    <path d="M 305.111665 171.581202 
L 205.419617 245.80086 
" style="fill:none;stroke:#000000;stroke-linecap:square;stroke-width:0.8;"/>
   </g>
   <g id="Line3DCollection_2">
    <path d="M 27.455231 56.547028 
L 34.471044 192.413474 
L 218.858418 235.795817 
" style="fill:none;stroke:#b0b0b0;stroke-width:0.8;"/>
    <path d="M 57.232024 40.730342 
L 62.623407 174.842005 
L 244.674037 216.576366 
" style="fill:none;stroke:#b0b0b0;stroke-width:0.8;"/>
    <path d="M 85.85589 25.526062 
L 89.739382 157.917404 
L 269.496985 198.095948 
" style="fill:none;stroke:#b0b0b0;stroke-width:0.8;"/>
    <path d="M 113.392516 10.899296 
L 115.875164 141.604597 
L 293.383438 180.312741 
" style="fill:none;stroke:#b0b0b0;stroke-width:0.8;"/>
   </g>
   <g id="xtick_5">
    <g id="line2d_7">
     <path d="M 217.315598 235.432825 
L 221.947489 236.522608 
" style="fill:none;stroke:#000000;stroke-linecap:square;stroke-width:0.8;"/>
    </g>
    <g id="text_5">
     <!-- 00 -->
     <g transform="translate(232.650369 248.348363)rotate(-337.5)scale(0.14 -0.14)">
      <use transform="scale(0.996264)" xlink:href="#CMR17-48"/>
      <use transform="translate(45.690477 0)scale(0.996264)" xlink:href="#CMR17-48"/>
     </g>
    </g>
   </g>
   <g id="xtick_6">
    <g id="line2d_8">
     <path d="M 243.15208 216.227463 
L 247.72127 217.274932 
" style="fill:none;stroke:#000000;stroke-linecap:square;stroke-width:0.8;"/>
    </g>
    <g id="text_6">
     <!-- 01 -->
     <g transform="translate(258.203921 228.903937)rotate(-337.5)scale(0.14 -0.14)">
      <use transform="scale(0.996264)" xlink:href="#CMR17-48"/>
      <use transform="translate(45.690477 0)scale(0.996264)" xlink:href="#CMR17-49"/>
     </g>
    </g>
   </g>
   <g id="xtick_7">
    <g id="line2d_9">
     <path d="M 267.995442 197.76033 
L 272.503283 198.767901 
" style="fill:none;stroke:#000000;stroke-linecap:square;stroke-width:0.8;"/>
    </g>
    <g id="text_7">
     <!-- 10 -->
     <g transform="translate(282.775332 210.206849)rotate(-337.5)scale(0.14 -0.14)">
      <use transform="scale(0.996264)" xlink:href="#CMR17-49"/>
      <use transform="translate(45.690477 0)scale(0.996264)" xlink:href="#CMR17-48"/>
     </g>
    </g>
   </g>
   <g id="xtick_8">
    <g id="line2d_10">
     <path d="M 291.901865 179.989663 
L 296.349691 180.959573 
" style="fill:none;stroke:#000000;stroke-linecap:square;stroke-width:0.8;"/>
    </g>
    <g id="text_8">
     <!-- 11 -->
     <g transform="translate(306.420159 192.214827)rotate(-337.5)scale(0.14 -0.14)">
      <use transform="scale(0.996264)" xlink:href="#CMR17-49"/>
      <use transform="translate(45.690477 0)scale(0.996264)" xlink:href="#CMR17-49"/>
     </g>
    </g>
   </g>
  </g>
  <g id="axis3d_3">
   <g id="line2d_11">
    <path d="M 305.111665 171.581202 
L 312.491547 37.79869 
" style="fill:none;stroke:#000000;stroke-linecap:square;stroke-width:0.8;"/>
   </g>
   <g id="text_9">
    <!-- Re[$\rho$] -->
    <defs>
     <path d="M 39.203125 33.6875 
C 48.703125 35.59375 56.703125 42.015625 56.703125 50.046875 
C 56.703125 59.46875 46.09375 68 32.09375 68 
L 5.203125 68 
L 5.203125 65.390625 
C 12.09375 65.390625 13.203125 65.390625 13.203125 60.875 
L 13.203125 6.6875 
C 13.203125 2.1875 12.09375 2.1875 5.203125 2.1875 
L 5.203125 -0.40625 
C 8.09375 -0.203125 13.296875 -0.203125 16.40625 -0.203125 
C 19.5 -0.203125 24.703125 -0.203125 27.59375 -0.40625 
L 27.59375 2.1875 
C 20.703125 2.1875 19.59375 2.1875 19.59375 6.6875 
L 19.59375 33 
L 31.296875 33 
C 37 33 40.203125 30.6875 41.59375 29.390625 
C 45.59375 25.5 45.59375 22.796875 45.59375 16 
C 45.59375 9.296875 45.59375 5.890625 48.59375 2.5 
C 52.40625 -1.609375 57.5 -2 59.703125 -2 
C 67.09375 -2 68.203125 6.296875 68.203125 8 
C 68.203125 8.59375 68.203125 9.296875 67.296875 9.296875 
C 66.5 9.296875 66.40625 8.6875 66.40625 8.296875 
C 65.90625 1.796875 63 -0.40625 59.90625 -0.40625 
C 54.40625 -0.40625 53.796875 5.890625 53.203125 12 
C 52.90625 14.09375 52.703125 15.59375 52.5 17.796875 
C 51.90625 22.796875 51.09375 30.09375 39.203125 33.6875 
z
M 31 34.59375 
L 19.59375 34.59375 
L 19.59375 61.484375 
C 19.59375 64.890625 19.796875 65.390625 23.796875 65.390625 
L 31.09375 65.390625 
C 39.40625 65.390625 49.09375 62.484375 49.09375 50.046875 
C 49.09375 37.09375 38.5 34.59375 31 34.59375 
z
" id="CMR17-82"/>
     <path d="M 38.09375 23.484375 
C 38.5 23.890625 38.5 24.09375 38.5 25.09375 
C 38.5 35.171875 33.09375 44 21.703125 44 
C 11.09375 44 2.703125 33.984375 2.703125 21.78125 
C 2.703125 8.65625 12.203125 -1 22.796875 -1 
C 34 -1 38.40625 9.671875 38.40625 11.796875 
C 38.40625 12.5 37.796875 12.5 37.59375 12.5 
C 36.90625 12.5 36.796875 12.296875 36.40625 11.078125 
C 34.203125 4.21875 28.703125 0.796875 23.5 0.796875 
C 19.203125 0.796875 14.90625 3.21875 12.203125 7.65625 
C 9.09375 12.796875 9.09375 18.75 9.09375 23.484375 
z
M 9.203125 25 
C 9.90625 39.234375 17.59375 42.390625 21.59375 42.390625 
C 28.40625 42.390625 33 36.0625 33.09375 25 
z
" id="CMR17-101"/>
     <path d="M 23.5 -25 
L 23.5 -21.5 
L 14.09375 -21.5 
L 14.09375 71.484375 
L 23.5 71.484375 
L 23.5 75 
L 10.59375 75 
L 10.59375 -25 
z
" id="CMR17-91"/>
     <path d="M 3.09375 -16.953125 
C 3 -17.4375 2.796875 -18.03125 2.796875 -18.609375 
C 2.796875 -20.109375 4 -21.109375 5.5 -21.109375 
C 7 -21.109375 8.40625 -20.109375 9 -18.71875 
C 9.40625 -17.828125 12.203125 -6.09375 15.40625 6.078125 
C 17.40625 1.09375 21.09375 -1 25 -1 
C 36.296875 -1 49.09375 12.96875 49.09375 28.03125 
C 49.09375 38.703125 42.59375 44 35.703125 44 
C 26.90625 44 16.203125 34.90625 12.90625 21.640625 
z
M 24.90625 1 
C 18.09375 1 16.40625 8.875 16.40625 10.078125 
C 16.40625 10.671875 18.90625 20.140625 19.203125 21.640625 
C 24.296875 41.5 34.09375 41.984375 35.59375 41.984375 
C 40.09375 41.984375 42.59375 37.90625 42.59375 32.015625 
C 42.59375 26.9375 39.90625 17.046875 38.203125 12.859375 
C 35.203125 5.984375 30 1 24.90625 1 
z
" id="CMMI12-26"/>
     <path d="M 14.296875 75 
L 1.40625 75 
L 1.40625 71.484375 
L 10.796875 71.484375 
L 10.796875 -21.5 
L 1.40625 -21.5 
L 1.40625 -25 
L 14.296875 -25 
z
" id="CMR17-93"/>
    </defs>
    <g transform="translate(352.486567 117.931831)rotate(-86.842577)scale(0.14 -0.14)">
     <use transform="scale(0.996264)" xlink:href="#CMR17-82"/>
     <use transform="translate(67.791102 0)scale(0.996264)" xlink:href="#CMR17-101"/>
     <use transform="translate(108.276762 0)scale(0.996264)" xlink:href="#CMR17-91"/>
     <use transform="translate(133.147821 0)scale(0.996264)" xlink:href="#CMMI12-26"/>
     <use transform="translate(183.462194 0)scale(0.996264)" xlink:href="#CMR17-93"/>
    </g>
   </g>
   <g id="Line3DCollection_3">
    <path d="M 305.309077 168.002513 
L 128.674613 130.104104 
L 19.624582 197.896194 
" style="fill:none;stroke:#b0b0b0;stroke-width:0.8;"/>
    <path d="M 308.036954 118.551561 
L 128.003667 82.040348 
L 16.713223 147.392593 
" style="fill:none;stroke:#b0b0b0;stroke-width:0.8;"/>
    <path d="M 310.872822 67.142936 
L 127.307304 32.155842 
L 13.682679 94.821477 
" style="fill:none;stroke:#b0b0b0;stroke-width:0.8;"/>
   </g>
   <g id="xtick_9">
    <g id="line2d_12">
     <path d="M 303.83529 167.6863 
L 308.259718 168.635598 
" style="fill:none;stroke:#000000;stroke-linecap:square;stroke-width:0.8;"/>
    </g>
    <g id="text_10">
     <!-- $0.0$ -->
     <defs>
      <path d="M 18.40625 4.796875 
C 18.40625 7.6875 16 9.6875 13.59375 9.6875 
C 10.703125 9.6875 8.703125 7.296875 8.703125 4.890625 
C 8.703125 2 11.09375 0 13.5 0 
C 16.40625 0 18.40625 2.390625 18.40625 4.796875 
z
" id="CMMI12-58"/>
     </defs>
     <g transform="translate(315.118956 175.748892)scale(0.14 -0.14)">
      <use transform="scale(0.996264)" xlink:href="#CMR17-48"/>
      <use transform="translate(45.690477 0)scale(0.996264)" xlink:href="#CMMI12-58"/>
      <use transform="translate(72.787654 0)scale(0.996264)" xlink:href="#CMR17-48"/>
     </g>
    </g>
   </g>
   <g id="xtick_10">
    <g id="line2d_13">
     <path d="M 306.533607 118.246679 
L 311.046836 119.161973 
" style="fill:none;stroke:#000000;stroke-linecap:square;stroke-width:0.8;"/>
    </g>
    <g id="text_11">
     <!-- $0.2$ -->
     <defs>
      <path d="M 41.703125 15.46875 
L 39.90625 15.46875 
C 38.90625 8.390625 38.09375 7.1875 37.703125 6.59375 
C 37.203125 5.796875 30 5.796875 28.59375 5.796875 
L 9.40625 5.796875 
C 13 9.6875 20 16.765625 28.5 24.9375 
C 34.59375 30.71875 41.703125 37.5 41.703125 47.390625 
C 41.703125 59.1875 32.296875 66 21.796875 66 
C 10.796875 66 4.09375 56.296875 4.09375 47.296875 
C 4.09375 43.390625 7 42.890625 8.203125 42.890625 
C 9.203125 42.890625 12.203125 43.484375 12.203125 46.984375 
C 12.203125 50.09375 9.59375 51 8.203125 51 
C 7.59375 51 7 50.890625 6.59375 50.6875 
C 8.5 59.1875 14.296875 63.390625 20.40625 63.390625 
C 29.09375 63.390625 34.796875 56.5 34.796875 47.390625 
C 34.796875 38.703125 29.703125 31.21875 24 24.734375 
L 4.09375 2.296875 
L 4.09375 0 
L 39.296875 0 
z
" id="CMR17-50"/>
     </defs>
     <g transform="translate(318.199909 126.367503)scale(0.14 -0.14)">
      <use transform="scale(0.996264)" xlink:href="#CMR17-48"/>
      <use transform="translate(45.690477 0)scale(0.996264)" xlink:href="#CMMI12-58"/>
      <use transform="translate(72.787654 0)scale(0.996264)" xlink:href="#CMR17-50"/>
     </g>
    </g>
   </g>
   <g id="xtick_11">
    <g id="line2d_14">
     <path d="M 309.338707 66.850538 
L 313.94437 67.728365 
" style="fill:none;stroke:#000000;stroke-linecap:square;stroke-width:0.8;"/>
    </g>
    <g id="text_12">
     <!-- $0.4$ -->
     <defs>
      <path d="M 33.59375 64.796875 
C 33.59375 66.890625 33.5 67 31.703125 67 
L 2 19.59375 
L 2 17 
L 27.796875 17 
L 27.796875 7.1875 
C 27.796875 3.59375 27.59375 2.59375 20.59375 2.59375 
L 18.703125 2.59375 
L 18.703125 0 
C 21.90625 0.1875 27.296875 0.1875 30.703125 0.1875 
C 34.09375 0.1875 39.5 0.1875 42.703125 0 
L 42.703125 2.59375 
L 40.796875 2.59375 
C 33.796875 2.59375 33.59375 3.59375 33.59375 7.1875 
L 33.59375 17 
L 43.796875 17 
L 43.796875 19.59375 
L 33.59375 19.59375 
z
M 28.09375 58.171875 
L 28.09375 19.59375 
L 4 19.59375 
z
" id="CMR17-52"/>
     </defs>
     <g transform="translate(321.402563 75.035513)scale(0.14 -0.14)">
      <use transform="scale(0.996264)" xlink:href="#CMR17-48"/>
      <use transform="translate(45.690477 0)scale(0.996264)" xlink:href="#CMMI12-58"/>
      <use transform="translate(72.787654 0)scale(0.996264)" xlink:href="#CMR17-52"/>
     </g>
    </g>
   </g>
  </g>
  <g id="axes_1">
   <g id="Poly3DCollection_1">
    <path clip-path="url(#pab36b89bb4)" d="M 176.055424 145.751994 
L 176.050954 146.769767 
L 197.892125 151.4904 
L 197.905317 150.469115 
z
" style="fill:#ba0c2f;fill-opacity:0.8;"/>
    <path clip-path="url(#pab36b89bb4)" d="M 163.529897 153.954097 
L 163.530392 154.977964 
L 176.050954 146.769767 
L 176.055424 145.751994 
z
" style="fill:#5d0618;fill-opacity:0.8;"/>
    <path clip-path="url(#pab36b89bb4)" d="M 163.530392 154.977964 
L 185.506836 159.786168 
L 197.892125 151.4904 
L 176.050954 146.769767 
z
" style="fill:#a30a29;fill-opacity:0.8;"/>
    <path clip-path="url(#pab36b89bb4)" d="M 163.529897 153.954097 
L 176.055424 145.751994 
L 197.905317 150.469115 
L 185.515172 158.758759 
z
" style="fill:#74081d;fill-opacity:0.8;"/>
    <path clip-path="url(#pab36b89bb4)" d="M 185.515172 158.758759 
L 197.905317 150.469115 
L 197.892125 151.4904 
L 185.506836 159.786168 
z
" style="fill:#ba0c2f;fill-opacity:0.8;"/>
    <path clip-path="url(#pab36b89bb4)" d="M 163.529897 153.954097 
L 185.515172 158.758759 
L 185.506836 159.786168 
L 163.530392 154.977964 
z
" style="fill:#5d0618;fill-opacity:0.8;"/>
   </g>
   <g id="Poly3DCollection_2">
    <path clip-path="url(#pab36b89bb4)" d="M 107.232521 152.675361 
L 107.217804 152.019775 
L 128.87653 156.808466 
L 128.885757 157.466322 
z
" style="fill:#5d0618;fill-opacity:0.8;"/>
    <path clip-path="url(#pab36b89bb4)" d="M 93.969735 161.00611 
L 93.951458 160.346586 
L 107.217804 152.019775 
L 107.232521 152.675361 
z
" style="fill:#ba0c2f;fill-opacity:0.8;"/>
    <path clip-path="url(#pab36b89bb4)" d="M 93.969735 161.00611 
L 107.232521 152.675361 
L 128.885757 157.466322 
L 115.753612 165.886686 
z
" style="fill:#74081d;fill-opacity:0.8;"/>
    <path clip-path="url(#pab36b89bb4)" d="M 93.951458 160.346586 
L 115.74089 165.224874 
L 128.87653 156.808466 
L 107.217804 152.019775 
z
" style="fill:#a30a29;fill-opacity:0.8;"/>
    <path clip-path="url(#pab36b89bb4)" d="M 115.753612 165.886686 
L 128.885757 157.466322 
L 128.87653 156.808466 
L 115.74089 165.224874 
z
" style="fill:#5d0618;fill-opacity:0.8;"/>
    <path clip-path="url(#pab36b89bb4)" d="M 93.969735 161.00611 
L 115.753612 165.886686 
L 115.74089 165.224874 
L 93.951458 160.346586 
z
" style="fill:#ba0c2f;fill-opacity:0.8;"/>
   </g>
   <g id="Poly3DCollection_3">
    <path clip-path="url(#pab36b89bb4)" d="M 219.987958 155.236483 
L 219.998233 154.760014 
L 242.32159 159.576786 
L 242.307084 160.054905 
z
" style="fill:#5d0618;fill-opacity:0.8;"/>
    <path clip-path="url(#pab36b89bb4)" d="M 207.736816 163.615077 
L 207.744886 163.135745 
L 219.998233 154.760014 
L 219.987958 155.236483 
z
" style="fill:#ba0c2f;fill-opacity:0.8;"/>
    <path clip-path="url(#pab36b89bb4)" d="M 207.736816 163.615077 
L 219.987958 155.236483 
L 242.307084 160.054905 
L 230.198663 168.52389 
z
" style="fill:#74081d;fill-opacity:0.8;"/>
    <path clip-path="url(#pab36b89bb4)" d="M 207.744886 163.135745 
L 230.211018 168.042893 
L 242.32159 159.576786 
L 219.998233 154.760014 
z
" style="fill:#a30a29;fill-opacity:0.8;"/>
    <path clip-path="url(#pab36b89bb4)" d="M 230.198663 168.52389 
L 242.307084 160.054905 
L 242.32159 159.576786 
L 230.211018 168.042893 
z
" style="fill:#5d0618;fill-opacity:0.8;"/>
    <path clip-path="url(#pab36b89bb4)" d="M 207.736816 163.615077 
L 230.198663 168.52389 
L 230.211018 168.042893 
L 207.744886 163.135745 
z
" style="fill:#ba0c2f;fill-opacity:0.8;"/>
   </g>
   <g id="Poly3DCollection_4">
    <path clip-path="url(#pab36b89bb4)" d="M 150.771458 162.308717 
L 150.771983 162.404492 
L 172.893082 167.299487 
L 172.893389 167.203381 
z
" style="fill:#ba0c2f;fill-opacity:0.8;"/>
    <path clip-path="url(#pab36b89bb4)" d="M 137.773551 170.82015 
L 137.774573 170.916501 
L 150.771983 162.404492 
L 150.771458 162.308717 
z
" style="fill:#5d0618;fill-opacity:0.8;"/>
    <path clip-path="url(#pab36b89bb4)" d="M 137.774573 170.916501 
L 160.033591 175.904053 
L 172.893082 167.299487 
L 150.771983 162.404492 
z
" style="fill:#a30a29;fill-opacity:0.8;"/>
    <path clip-path="url(#pab36b89bb4)" d="M 137.773551 170.82015 
L 150.771458 162.308717 
L 172.893389 167.203381 
L 160.03341 175.807367 
z
" style="fill:#74081d;fill-opacity:0.8;"/>
    <path clip-path="url(#pab36b89bb4)" d="M 160.03341 175.807367 
L 172.893389 167.203381 
L 172.893082 167.299487 
L 160.033591 175.904053 
z
" style="fill:#ba0c2f;fill-opacity:0.8;"/>
    <path clip-path="url(#pab36b89bb4)" d="M 137.773551 170.82015 
L 160.03341 175.807367 
L 160.033591 175.904053 
L 137.774573 170.916501 
z
" style="fill:#5d0618;fill-opacity:0.8;"/>
   </g>
   <g id="Poly3DCollection_5">
    <path clip-path="url(#pab36b89bb4)" d="M 80.458374 169.492996 
L 80.486755 170.350113 
L 102.395118 175.32582 
L 102.374001 174.465725 
z
" style="fill:#ba0c2f;fill-opacity:0.8;"/>
    <path clip-path="url(#pab36b89bb4)" d="M 66.691384 178.140451 
L 66.724711 179.002735 
L 80.486755 170.350113 
L 80.458374 169.492996 
z
" style="fill:#5d0618;fill-opacity:0.8;"/>
    <path clip-path="url(#pab36b89bb4)" d="M 66.724711 179.002735 
L 88.76584 184.073253 
L 102.395118 175.32582 
L 80.486755 170.350113 
z
" style="fill:#a30a29;fill-opacity:0.8;"/>
    <path clip-path="url(#pab36b89bb4)" d="M 66.691384 178.140451 
L 80.458374 169.492996 
L 102.374001 174.465725 
L 88.739863 183.207967 
z
" style="fill:#74081d;fill-opacity:0.8;"/>
    <path clip-path="url(#pab36b89bb4)" d="M 88.739863 183.207967 
L 102.374001 174.465725 
L 102.395118 175.32582 
L 88.76584 184.073253 
z
" style="fill:#ba0c2f;fill-opacity:0.8;"/>
    <path clip-path="url(#pab36b89bb4)" d="M 66.691384 178.140451 
L 88.739863 183.207967 
L 88.76584 184.073253 
L 66.724711 179.002735 
z
" style="fill:#5d0618;fill-opacity:0.8;"/>
   </g>
   <g id="Poly3DCollection_6">
    <path clip-path="url(#pab36b89bb4)" d="M 195.255393 172.151163 
L 195.25828 171.910279 
L 217.866456 176.911211 
L 217.861401 177.152932 
z
" style="fill:#5d0618;fill-opacity:0.8;"/>
    <path clip-path="url(#pab36b89bb4)" d="M 182.537133 180.849221 
L 182.538832 180.606883 
L 195.25828 171.910279 
L 195.255393 172.151163 
z
" style="fill:#ba0c2f;fill-opacity:0.8;"/>
    <path clip-path="url(#pab36b89bb4)" d="M 182.537133 180.849221 
L 195.255393 172.151163 
L 217.861401 177.152932 
L 205.288748 185.946614 
z
" style="fill:#74081d;fill-opacity:0.8;"/>
    <path clip-path="url(#pab36b89bb4)" d="M 182.538832 180.606883 
L 205.292643 185.703431 
L 217.866456 176.911211 
L 195.25828 171.910279 
z
" style="fill:#a30a29;fill-opacity:0.8;"/>
    <path clip-path="url(#pab36b89bb4)" d="M 205.288748 185.946614 
L 217.861401 177.152932 
L 217.866456 176.911211 
L 205.292643 185.703431 
z
" style="fill:#5d0618;fill-opacity:0.8;"/>
    <path clip-path="url(#pab36b89bb4)" d="M 182.537133 180.849221 
L 205.288748 185.946614 
L 205.292643 185.703431 
L 182.538832 180.606883 
z
" style="fill:#ba0c2f;fill-opacity:0.8;"/>
   </g>
   <g id="Poly3DCollection_7">
    <path clip-path="url(#pab36b89bb4)" d="M 120.25353 144.496479 
L 133.039313 136.46535 
L 154.434617 141.08433 
L 141.77724 149.200271 
z
" style="fill:#74081d;fill-opacity:0.8;"/>
    <path clip-path="url(#pab36b89bb4)" d="M 133.039313 136.46535 
L 131.517173 12.731287 
L 153.936145 16.893132 
L 154.434617 141.08433 
z
" style="fill:#5d0618;fill-opacity:0.8;"/>
    <path clip-path="url(#pab36b89bb4)" d="M 120.25353 144.496479 
L 118.097613 19.96893 
L 131.517173 12.731287 
L 133.039313 136.46535 
z
" style="fill:#ba0c2f;fill-opacity:0.8;"/>
    <path clip-path="url(#pab36b89bb4)" d="M 141.77724 149.200271 
L 154.434617 141.08433 
L 153.936145 16.893132 
L 140.657566 24.210922 
z
" style="fill:#5d0618;fill-opacity:0.8;"/>
    <path clip-path="url(#pab36b89bb4)" d="M 120.25353 144.496479 
L 141.77724 149.200271 
L 140.657566 24.210922 
L 118.097613 19.96893 
z
" style="fill:#ba0c2f;fill-opacity:0.8;"/>
    <path clip-path="url(#pab36b89bb4)" d="M 118.097613 19.96893 
L 140.657566 24.210922 
L 153.936145 16.893132 
L 131.517173 12.731287 
z
" style="fill:#a30a29;fill-opacity:0.8;"/>
   </g>
   <g id="Poly3DCollection_8">
    <path clip-path="url(#pab36b89bb4)" d="M 124.529368 179.492851 
L 124.525435 179.244987 
L 146.926677 184.326544 
L 146.92843 184.575273 
z
" style="fill:#5d0618;fill-opacity:0.8;"/>
    <path clip-path="url(#pab36b89bb4)" d="M 111.031843 188.331448 
L 111.026542 188.082085 
L 124.525435 179.244987 
L 124.529368 179.492851 
z
" style="fill:#ba0c2f;fill-opacity:0.8;"/>
    <path clip-path="url(#pab36b89bb4)" d="M 111.031843 188.331448 
L 124.529368 179.492851 
L 146.92843 184.575273 
L 133.57138 193.511826 
z
" style="fill:#74081d;fill-opacity:0.8;"/>
    <path clip-path="url(#pab36b89bb4)" d="M 111.026542 188.082085 
L 133.568285 193.261592 
L 146.926677 184.326544 
L 124.525435 179.244987 
z
" style="fill:#a30a29;fill-opacity:0.8;"/>
    <path clip-path="url(#pab36b89bb4)" d="M 133.57138 193.511826 
L 146.92843 184.575273 
L 146.926677 184.326544 
L 133.568285 193.261592 
z
" style="fill:#5d0618;fill-opacity:0.8;"/>
    <path clip-path="url(#pab36b89bb4)" d="M 111.031843 188.331448 
L 133.57138 193.511826 
L 133.568285 193.261592 
L 111.026542 188.082085 
z
" style="fill:#ba0c2f;fill-opacity:0.8;"/>
   </g>
   <g id="Poly3DCollection_9">
    <path clip-path="url(#pab36b89bb4)" d="M 240.715428 182.209578 
L 240.729984 181.723995 
L 263.840668 186.834732 
L 263.821579 187.322009 
z
" style="fill:#5d0618;fill-opacity:0.8;"/>
    <path clip-path="url(#pab36b89bb4)" d="M 228.292375 191.100469 
L 228.304667 190.611947 
L 240.729984 181.723995 
L 240.715428 182.209578 
z
" style="fill:#ba0c2f;fill-opacity:0.8;"/>
    <path clip-path="url(#pab36b89bb4)" d="M 228.292375 191.100469 
L 240.715428 182.209578 
L 263.821579 187.322009 
L 251.552223 196.311729 
z
" style="fill:#74081d;fill-opacity:0.8;"/>
    <path clip-path="url(#pab36b89bb4)" d="M 228.304667 190.611947 
L 251.569109 195.8215 
L 263.840668 186.834732 
L 240.729984 181.723995 
z
" style="fill:#a30a29;fill-opacity:0.8;"/>
    <path clip-path="url(#pab36b89bb4)" d="M 251.552223 196.311729 
L 263.821579 187.322009 
L 263.840668 186.834732 
L 251.569109 195.8215 
z
" style="fill:#5d0618;fill-opacity:0.8;"/>
    <path clip-path="url(#pab36b89bb4)" d="M 228.292375 191.100469 
L 251.552223 196.311729 
L 251.569109 195.8215 
L 228.304667 190.611947 
z
" style="fill:#ba0c2f;fill-opacity:0.8;"/>
   </g>
   <g id="Poly3DCollection_10">
    <path clip-path="url(#pab36b89bb4)" d="M 169.575231 189.713907 
L 169.575046 189.811516 
L 192.472827 195.007642 
L 192.473904 194.909692 
z
" style="fill:#ba0c2f;fill-opacity:0.8;"/>
    <path clip-path="url(#pab36b89bb4)" d="M 156.362619 198.750055 
L 156.362947 198.848255 
L 169.575046 189.811516 
L 169.575231 189.713907 
z
" style="fill:#5d0618;fill-opacity:0.8;"/>
    <path clip-path="url(#pab36b89bb4)" d="M 156.362947 198.848255 
L 179.409227 204.145652 
L 192.472827 195.007642 
L 169.575046 189.811516 
z
" style="fill:#a30a29;fill-opacity:0.8;"/>
    <path clip-path="url(#pab36b89bb4)" d="M 156.362619 198.750055 
L 169.575231 189.713907 
L 192.473904 194.909692 
L 179.409801 204.047108 
z
" style="fill:#74081d;fill-opacity:0.8;"/>
    <path clip-path="url(#pab36b89bb4)" d="M 179.409801 204.047108 
L 192.473904 194.909692 
L 192.472827 195.007642 
L 179.409227 204.145652 
z
" style="fill:#ba0c2f;fill-opacity:0.8;"/>
    <path clip-path="url(#pab36b89bb4)" d="M 156.362619 198.750055 
L 179.409801 204.047108 
L 179.409227 204.145652 
L 156.362947 198.848255 
z
" style="fill:#5d0618;fill-opacity:0.8;"/>
   </g>
   <g id="Poly3DCollection_11">
    <path clip-path="url(#pab36b89bb4)" d="M 97.273638 197.340747 
L 97.29705 198.214306 
L 119.970547 203.498554 
L 119.954915 202.621941 
z
" style="fill:#ba0c2f;fill-opacity:0.8;"/>
    <path clip-path="url(#pab36b89bb4)" d="M 83.247127 206.525741 
L 83.27568 207.404598 
L 97.29705 198.214306 
L 97.273638 197.340747 
z
" style="fill:#5d0618;fill-opacity:0.8;"/>
    <path clip-path="url(#pab36b89bb4)" d="M 83.27568 207.404598 
L 106.09208 212.792658 
L 119.970547 203.498554 
L 97.29705 198.214306 
z
" style="fill:#a30a29;fill-opacity:0.8;"/>
    <path clip-path="url(#pab36b89bb4)" d="M 83.247127 206.525741 
L 97.273638 197.340747 
L 119.954915 202.621941 
L 106.071405 211.910724 
z
" style="fill:#74081d;fill-opacity:0.8;"/>
    <path clip-path="url(#pab36b89bb4)" d="M 106.071405 211.910724 
L 119.954915 202.621941 
L 119.970547 203.498554 
L 106.09208 212.792658 
z
" style="fill:#ba0c2f;fill-opacity:0.8;"/>
    <path clip-path="url(#pab36b89bb4)" d="M 83.247127 206.525741 
L 106.071405 211.910724 
L 106.09208 212.792658 
L 83.27568 207.404598 
z
" style="fill:#5d0618;fill-opacity:0.8;"/>
   </g>
   <g id="Poly3DCollection_12">
    <path clip-path="url(#pab36b89bb4)" d="M 215.628673 200.163586 
L 215.607301 201.220664 
L 239.012472 206.537345 
L 239.043859 205.476569 
z
" style="fill:#ba0c2f;fill-opacity:0.8;"/>
    <path clip-path="url(#pab36b89bb4)" d="M 202.717262 209.403982 
L 202.70116 210.467474 
L 215.607301 201.220664 
L 215.628673 200.163586 
z
" style="fill:#5d0618;fill-opacity:0.8;"/>
    <path clip-path="url(#pab36b89bb4)" d="M 202.70116 210.467474 
L 226.263183 215.888913 
L 239.012472 206.537345 
L 215.607301 201.220664 
z
" style="fill:#a30a29;fill-opacity:0.8;"/>
    <path clip-path="url(#pab36b89bb4)" d="M 202.717262 209.403982 
L 215.628673 200.163586 
L 239.043859 205.476569 
L 226.289436 214.821697 
z
" style="fill:#74081d;fill-opacity:0.8;"/>
    <path clip-path="url(#pab36b89bb4)" d="M 226.289436 214.821697 
L 239.043859 205.476569 
L 239.012472 206.537345 
L 226.263183 215.888913 
z
" style="fill:#ba0c2f;fill-opacity:0.8;"/>
    <path clip-path="url(#pab36b89bb4)" d="M 202.717262 209.403982 
L 226.289436 214.821697 
L 226.263183 215.888913 
L 202.70116 210.467474 
z
" style="fill:#5d0618;fill-opacity:0.8;"/>
   </g>
   <g id="Poly3DCollection_13">
    <path clip-path="url(#pab36b89bb4)" d="M 142.891951 207.962688 
L 142.88601 207.28171 
L 166.089458 212.680634 
L 166.089097 213.363999 
z
" style="fill:#5d0618;fill-opacity:0.8;"/>
    <path clip-path="url(#pab36b89bb4)" d="M 129.155593 217.357027 
L 129.145826 216.671908 
L 142.88601 207.28171 
L 142.891951 207.962688 
z
" style="fill:#ba0c2f;fill-opacity:0.8;"/>
    <path clip-path="url(#pab36b89bb4)" d="M 129.155593 217.357027 
L 142.891951 207.962688 
L 166.089097 213.363999 
L 152.504156 222.865705 
z
" style="fill:#74081d;fill-opacity:0.8;"/>
    <path clip-path="url(#pab36b89bb4)" d="M 129.145826 216.671908 
L 152.500773 222.178181 
L 166.089458 212.680634 
L 142.88601 207.28171 
z
" style="fill:#a30a29;fill-opacity:0.8;"/>
    <path clip-path="url(#pab36b89bb4)" d="M 152.504156 222.865705 
L 166.089097 213.363999 
L 166.089458 212.680634 
L 152.500773 222.178181 
z
" style="fill:#5d0618;fill-opacity:0.8;"/>
    <path clip-path="url(#pab36b89bb4)" d="M 129.155593 217.357027 
L 152.504156 222.865705 
L 152.500773 222.178181 
L 129.145826 216.671908 
z
" style="fill:#ba0c2f;fill-opacity:0.8;"/>
   </g>
   <g id="Poly3DCollection_14">
    <path clip-path="url(#pab36b89bb4)" d="M 252.904628 173.486051 
L 264.866516 164.925206 
L 287.670155 169.848229 
L 275.858712 178.502437 
z
" style="fill:#74081d;fill-opacity:0.8;"/>
    <path clip-path="url(#pab36b89bb4)" d="M 264.866516 164.925206 
L 269.828542 38.47792 
L 293.797215 42.927852 
L 287.670155 169.848229 
z
" style="fill:#5d0618;fill-opacity:0.8;"/>
    <path clip-path="url(#pab36b89bb4)" d="M 252.904628 173.486051 
L 257.316863 46.217624 
L 269.828542 38.47792 
L 264.866516 164.925206 
z
" style="fill:#ba0c2f;fill-opacity:0.8;"/>
    <path clip-path="url(#pab36b89bb4)" d="M 275.858712 178.502437 
L 287.670155 169.848229 
L 293.797215 42.927852 
L 281.451982 50.756206 
z
" style="fill:#5d0618;fill-opacity:0.8;"/>
    <path clip-path="url(#pab36b89bb4)" d="M 252.904628 173.486051 
L 275.858712 178.502437 
L 281.451982 50.756206 
L 257.316863 46.217624 
z
" style="fill:#ba0c2f;fill-opacity:0.8;"/>
    <path clip-path="url(#pab36b89bb4)" d="M 257.316863 46.217624 
L 281.451982 50.756206 
L 293.797215 42.927852 
L 269.828542 38.47792 
z
" style="fill:#a30a29;fill-opacity:0.8;"/>
   </g>
   <g id="Poly3DCollection_15">
    <path clip-path="url(#pab36b89bb4)" d="M 25.521562 197.279141 
L 203.753145 239.525836 
L 299.773093 168.581792 
L 130.039569 132.093433 
z
" style="fill-opacity:0.15;"/>
   </g>
   <g id="Poly3DCollection_16">
    <path clip-path="url(#pab36b89bb4)" d="M 38.360938 195.935644 
L 52.661441 186.953074 
L 74.843867 192.118114 
L 60.678394 201.201051 
z
" style="fill:#74081d;fill-opacity:0.8;"/>
    <path clip-path="url(#pab36b89bb4)" d="M 52.661441 186.953074 
L 46.933544 57.750519 
L 70.222556 62.427839 
L 74.843867 192.118114 
z
" style="fill:#5d0618;fill-opacity:0.8;"/>
    <path clip-path="url(#pab36b89bb4)" d="M 38.360938 195.935644 
L 31.836896 65.886594 
L 46.933544 57.750519 
L 52.661441 186.953074 
z
" style="fill:#ba0c2f;fill-opacity:0.8;"/>
    <path clip-path="url(#pab36b89bb4)" d="M 60.678394 201.201051 
L 74.843867 192.118114 
L 70.222556 62.427839 
L 55.274545 70.659531 
z
" style="fill:#5d0618;fill-opacity:0.8;"/>
    <path clip-path="url(#pab36b89bb4)" d="M 38.360938 195.935644 
L 60.678394 201.201051 
L 55.274545 70.659531 
L 31.836896 65.886594 
z
" style="fill:#ba0c2f;fill-opacity:0.8;"/>
    <path clip-path="url(#pab36b89bb4)" d="M 31.836896 65.886594 
L 55.274545 70.659531 
L 70.222556 62.427839 
L 46.933544 57.750519 
z
" style="fill:#a30a29;fill-opacity:0.8;"/>
   </g>
   <g id="Poly3DCollection_17">
    <path clip-path="url(#pab36b89bb4)" d="M 176.121661 228.437835 
L 189.550803 218.826911 
L 213.28162 224.352484 
L 200.012784 234.074521 
z
" style="fill:#74081d;fill-opacity:0.8;"/>
    <path clip-path="url(#pab36b89bb4)" d="M 189.550803 218.826911 
L 190.856663 87.257157 
L 215.853374 92.28108 
L 213.28162 224.352484 
z
" style="fill:#5d0618;fill-opacity:0.8;"/>
    <path clip-path="url(#pab36b89bb4)" d="M 176.121661 228.437835 
L 176.72618 95.997488 
L 190.856663 87.257157 
L 189.550803 218.826911 
z
" style="fill:#ba0c2f;fill-opacity:0.8;"/>
    <path clip-path="url(#pab36b89bb4)" d="M 200.012784 234.074521 
L 213.28162 224.352484 
L 215.853374 92.28108 
L 201.900886 101.127859 
z
" style="fill:#5d0618;fill-opacity:0.8;"/>
    <path clip-path="url(#pab36b89bb4)" d="M 176.121661 228.437835 
L 200.012784 234.074521 
L 201.900886 101.127859 
L 176.72618 95.997488 
z
" style="fill:#ba0c2f;fill-opacity:0.8;"/>
    <path clip-path="url(#pab36b89bb4)" d="M 176.72618 95.997488 
L 201.900886 101.127859 
L 215.853374 92.28108 
L 190.856663 87.257157 
z
" style="fill:#a30a29;fill-opacity:0.8;"/>
   </g>
  </g>
  <g id="patch_6">
   <path d="M 425.945455 262.8 
L 806.4 262.8 
L 806.4 -14.4 
L 425.945455 -14.4 
z
" style="fill:#ffffff;"/>
  </g>
  <g id="pane3d_4">
   <g id="patch_7">
    <path d="M 476.380584 201.548569 
L 585.268665 133.58541 
L 583.455794 3.718968 
L 468.496488 64.782468 
" style="fill:#f2f2f2;opacity:0.5;stroke:#f2f2f2;stroke-linejoin:miter;"/>
   </g>
  </g>
  <g id="pane3d_5">
   <g id="patch_8">
    <path d="M 585.268665 133.58541 
L 761.65712 171.581202 
L 769.037001 37.79869 
L 583.455794 3.718968 
" style="fill:#e6e6e6;opacity:0.5;stroke:#e6e6e6;stroke-linejoin:miter;"/>
   </g>
  </g>
  <g id="pane3d_6">
   <g id="patch_9">
    <path d="M 476.380584 201.548569 
L 661.965072 245.80086 
L 761.65712 171.581202 
L 585.268665 133.58541 
" style="fill:#ececec;opacity:0.5;stroke:#ececec;stroke-linejoin:miter;"/>
   </g>
  </g>
  <g id="axis3d_4">
   <g id="line2d_15">
    <path d="M 476.380584 201.548569 
L 661.965072 245.80086 
" style="fill:none;stroke:#000000;stroke-linecap:square;stroke-width:0.8;"/>
   </g>
   <g id="Line3DCollection_4">
    <path d="M 498.841271 206.90428 
L 606.679397 138.19749 
L 605.9393 7.847789 
" style="fill:none;stroke:#b0b0b0;stroke-width:0.8;"/>
    <path d="M 544.057792 217.686079 
L 649.729469 147.470895 
L 651.182353 16.156123 
" style="fill:none;stroke:#b0b0b0;stroke-width:0.8;"/>
    <path d="M 590.310744 228.715013 
L 693.693551 156.941187 
L 697.435637 24.649974 
" style="fill:none;stroke:#b0b0b0;stroke-width:0.8;"/>
    <path d="M 637.636176 239.999678 
L 738.601063 166.614702 
L 744.733372 33.335625 
" style="fill:none;stroke:#b0b0b0;stroke-width:0.8;"/>
   </g>
   <g id="xtick_12">
    <g id="line2d_16">
     <path d="M 499.770538 206.312217 
L 496.979262 208.09062 
" style="fill:none;stroke:#000000;stroke-linecap:square;stroke-width:0.8;"/>
    </g>
    <g id="text_13">
     <!-- 00 -->
     <g transform="translate(479.875817 237.14703)rotate(-45)scale(0.14 -0.14)">
      <use transform="scale(0.996264)" xlink:href="#CMR17-48"/>
      <use transform="translate(45.690477 0)scale(0.996264)" xlink:href="#CMR17-48"/>
     </g>
    </g>
   </g>
   <g id="xtick_13">
    <g id="line2d_17">
     <path d="M 544.969128 217.080527 
L 542.231671 218.899473 
" style="fill:none;stroke:#000000;stroke-linecap:square;stroke-width:0.8;"/>
    </g>
    <g id="text_14">
     <!-- 01 -->
     <g transform="translate(525.088242 248.103782)rotate(-45)scale(0.14 -0.14)">
      <use transform="scale(0.996264)" xlink:href="#CMR17-48"/>
      <use transform="translate(45.690477 0)scale(0.996264)" xlink:href="#CMR17-49"/>
     </g>
    </g>
   </g>
   <g id="xtick_14">
    <g id="line2d_18">
     <path d="M 591.20308 228.095506 
L 588.522658 229.956397 
" style="fill:none;stroke:#000000;stroke-linecap:square;stroke-width:0.8;"/>
    </g>
    <g id="text_15">
     <!-- 10 -->
     <g transform="translate(571.338855 259.312128)rotate(-45)scale(0.14 -0.14)">
      <use transform="scale(0.996264)" xlink:href="#CMR17-49"/>
      <use transform="translate(45.690477 0)scale(0.996264)" xlink:href="#CMR17-48"/>
     </g>
    </g>
   </g>
   <g id="xtick_15">
    <g id="line2d_19">
     <path d="M 638.50838 239.365727 
L 635.888391 241.270032 
" style="fill:none;stroke:#000000;stroke-linecap:square;stroke-width:0.8;"/>
    </g>
    <g id="text_16">
     <!-- 11 -->
     <g transform="translate(618.66383 270.780834)rotate(-45)scale(0.14 -0.14)">
      <use transform="scale(0.996264)" xlink:href="#CMR17-49"/>
      <use transform="translate(45.690477 0)scale(0.996264)" xlink:href="#CMR17-49"/>
     </g>
    </g>
   </g>
  </g>
  <g id="axis3d_5">
   <g id="line2d_20">
    <path d="M 761.65712 171.581202 
L 661.965072 245.80086 
" style="fill:none;stroke:#000000;stroke-linecap:square;stroke-width:0.8;"/>
   </g>
   <g id="Line3DCollection_5">
    <path d="M 484.000685 56.547028 
L 491.016499 192.413474 
L 675.403872 235.795817 
" style="fill:none;stroke:#b0b0b0;stroke-width:0.8;"/>
    <path d="M 513.777478 40.730342 
L 519.168861 174.842005 
L 701.219492 216.576366 
" style="fill:none;stroke:#b0b0b0;stroke-width:0.8;"/>
    <path d="M 542.401344 25.526062 
L 546.284836 157.917404 
L 726.04244 198.095948 
" style="fill:none;stroke:#b0b0b0;stroke-width:0.8;"/>
    <path d="M 569.937971 10.899296 
L 572.420618 141.604597 
L 749.928893 180.312741 
" style="fill:none;stroke:#b0b0b0;stroke-width:0.8;"/>
   </g>
   <g id="xtick_16">
    <g id="line2d_21">
     <path d="M 673.861052 235.432825 
L 678.492943 236.522608 
" style="fill:none;stroke:#000000;stroke-linecap:square;stroke-width:0.8;"/>
    </g>
    <g id="text_17">
     <!-- 00 -->
     <g transform="translate(689.195824 248.348363)rotate(-337.5)scale(0.14 -0.14)">
      <use transform="scale(0.996264)" xlink:href="#CMR17-48"/>
      <use transform="translate(45.690477 0)scale(0.996264)" xlink:href="#CMR17-48"/>
     </g>
    </g>
   </g>
   <g id="xtick_17">
    <g id="line2d_22">
     <path d="M 699.697534 216.227463 
L 704.266725 217.274932 
" style="fill:none;stroke:#000000;stroke-linecap:square;stroke-width:0.8;"/>
    </g>
    <g id="text_18">
     <!-- 01 -->
     <g transform="translate(714.749375 228.903937)rotate(-337.5)scale(0.14 -0.14)">
      <use transform="scale(0.996264)" xlink:href="#CMR17-48"/>
      <use transform="translate(45.690477 0)scale(0.996264)" xlink:href="#CMR17-49"/>
     </g>
    </g>
   </g>
   <g id="xtick_18">
    <g id="line2d_23">
     <path d="M 724.540896 197.76033 
L 729.048738 198.767901 
" style="fill:none;stroke:#000000;stroke-linecap:square;stroke-width:0.8;"/>
    </g>
    <g id="text_19">
     <!-- 10 -->
     <g transform="translate(739.320787 210.206849)rotate(-337.5)scale(0.14 -0.14)">
      <use transform="scale(0.996264)" xlink:href="#CMR17-49"/>
      <use transform="translate(45.690477 0)scale(0.996264)" xlink:href="#CMR17-48"/>
     </g>
    </g>
   </g>
   <g id="xtick_19">
    <g id="line2d_24">
     <path d="M 748.44732 179.989663 
L 752.895146 180.959573 
" style="fill:none;stroke:#000000;stroke-linecap:square;stroke-width:0.8;"/>
    </g>
    <g id="text_20">
     <!-- 11 -->
     <g transform="translate(762.965613 192.214827)rotate(-337.5)scale(0.14 -0.14)">
      <use transform="scale(0.996264)" xlink:href="#CMR17-49"/>
      <use transform="translate(45.690477 0)scale(0.996264)" xlink:href="#CMR17-49"/>
     </g>
    </g>
   </g>
  </g>
  <g id="axis3d_6">
   <g id="line2d_25">
    <path d="M 761.65712 171.581202 
L 769.037001 37.79869 
" style="fill:none;stroke:#000000;stroke-linecap:square;stroke-width:0.8;"/>
   </g>
   <g id="text_21">
    <!-- Im[$\rho$] -->
    <defs>
     <path d="M 19.703125 60.90625 
C 19.703125 65.390625 20.90625 65.390625 28.09375 65.390625 
L 28.09375 68 
C 24.90625 67.796875 19.796875 67.796875 16.40625 67.796875 
C 13 67.796875 7.90625 67.796875 4.703125 68 
L 4.703125 65.390625 
C 11.90625 65.390625 13.09375 65.390625 13.09375 60.90625 
L 13.09375 7.078125 
C 13.09375 2.59375 11.90625 2.59375 4.703125 2.59375 
L 4.703125 0 
C 7.90625 0.1875 13 0.1875 16.40625 0.1875 
C 19.796875 0.1875 24.90625 0.1875 28.09375 0 
L 28.09375 2.59375 
C 20.90625 2.59375 19.703125 2.59375 19.703125 7.078125 
z
" id="CMR17-73"/>
     <path d="M 67.59375 30.53125 
C 67.59375 35.5625 66.703125 44 54.796875 44 
C 48 44 43.296875 39.375 41.5 33.953125 
L 41.40625 33.953125 
C 40.203125 42.1875 34.296875 44 28.703125 44 
C 20.796875 44 16.703125 37.875 15.203125 33.84375 
L 15.09375 33.84375 
L 15.09375 44 
L 3.296875 42.890625 
L 3.296875 40.28125 
C 9.203125 40.28125 10.09375 39.6875 10.09375 34.859375 
L 10.09375 6.921875 
C 10.09375 3.09375 9.703125 2.59375 3.296875 2.59375 
L 3.296875 0 
C 5.703125 0.1875 10.09375 0.1875 12.703125 0.1875 
C 15.296875 0.1875 19.796875 0.1875 22.203125 0 
L 22.203125 2.59375 
C 15.796875 2.59375 15.40625 3 15.40625 6.921875 
L 15.40625 26.21875 
C 15.40625 35.453125 21 42.390625 28 42.390625 
C 35.40625 42.390625 36.203125 35.765625 36.203125 30.9375 
L 36.203125 6.921875 
C 36.203125 3.09375 35.796875 2.59375 29.40625 2.59375 
L 29.40625 0 
C 31.796875 0.1875 36.203125 0.1875 38.796875 0.1875 
C 41.40625 0.1875 45.90625 0.1875 48.296875 0 
L 48.296875 2.59375 
C 41.90625 2.59375 41.5 3 41.5 6.921875 
L 41.5 26.21875 
C 41.5 35.453125 47.09375 42.390625 54.09375 42.390625 
C 61.5 42.390625 62.296875 35.765625 62.296875 30.9375 
L 62.296875 6.921875 
C 62.296875 3.09375 61.90625 2.59375 55.5 2.59375 
L 55.5 0 
C 57.90625 0.1875 62.296875 0.1875 64.90625 0.1875 
C 67.5 0.1875 72 0.1875 74.40625 0 
L 74.40625 2.59375 
C 68 2.59375 67.59375 3 67.59375 6.921875 
z
" id="CMR17-109"/>
    </defs>
    <g transform="translate(809.026865 118.025317)rotate(-86.842577)scale(0.14 -0.14)">
     <use transform="scale(0.996264)" xlink:href="#CMR17-73"/>
     <use transform="translate(32.638409 0)scale(0.996264)" xlink:href="#CMR17-109"/>
     <use transform="translate(109.557999 0)scale(0.996264)" xlink:href="#CMR17-91"/>
     <use transform="translate(134.429058 0)scale(0.996264)" xlink:href="#CMMI12-26"/>
     <use transform="translate(184.74343 0)scale(0.996264)" xlink:href="#CMR17-93"/>
    </g>
   </g>
   <g id="Line3DCollection_6">
    <path d="M 761.838897 168.285947 
L 585.223916 130.37981 
L 476.186713 198.185476 
" style="fill:none;stroke:#b0b0b0;stroke-width:0.8;"/>
    <path d="M 764.572656 118.728344 
L 584.551518 82.212033 
L 473.269092 147.573253 
" style="fill:none;stroke:#b0b0b0;stroke-width:0.8;"/>
    <path d="M 767.414891 67.204308 
L 583.853589 32.215344 
L 470.231754 94.884277 
" style="fill:none;stroke:#b0b0b0;stroke-width:0.8;"/>
   </g>
   <g id="xtick_20">
    <g id="line2d_26">
     <path d="M 760.365279 167.96967 
L 764.789198 168.919158 
" style="fill:none;stroke:#000000;stroke-linecap:square;stroke-width:0.8;"/>
    </g>
    <g id="text_22">
     <!-- $0.0$ -->
     <g transform="translate(771.646751 176.031938)scale(0.14 -0.14)">
      <use transform="scale(0.996264)" xlink:href="#CMR17-48"/>
      <use transform="translate(45.690477 0)scale(0.996264)" xlink:href="#CMMI12-58"/>
      <use transform="translate(72.787654 0)scale(0.996264)" xlink:href="#CMR17-48"/>
     </g>
    </g>
   </g>
   <g id="xtick_21">
    <g id="line2d_27">
     <path d="M 763.069416 118.42342 
L 767.582327 119.338839 
" style="fill:none;stroke:#000000;stroke-linecap:square;stroke-width:0.8;"/>
    </g>
    <g id="text_23">
     <!-- $0.2$ -->
     <g transform="translate(774.73435 126.544029)scale(0.14 -0.14)">
      <use transform="scale(0.996264)" xlink:href="#CMR17-48"/>
      <use transform="translate(45.690477 0)scale(0.996264)" xlink:href="#CMMI12-58"/>
      <use transform="translate(72.787654 0)scale(0.996264)" xlink:href="#CMR17-50"/>
     </g>
    </g>
   </g>
   <g id="xtick_22">
    <g id="line2d_28">
     <path d="M 765.880813 66.911894 
L 770.486366 67.789767 
" style="fill:none;stroke:#000000;stroke-linecap:square;stroke-width:0.8;"/>
    </g>
    <g id="text_24">
     <!-- $0.4$ -->
     <g transform="translate(777.944194 75.09679)scale(0.14 -0.14)">
      <use transform="scale(0.996264)" xlink:href="#CMR17-48"/>
      <use transform="translate(45.690477 0)scale(0.996264)" xlink:href="#CMMI12-58"/>
      <use transform="translate(72.787654 0)scale(0.996264)" xlink:href="#CMR17-52"/>
     </g>
    </g>
   </g>
  </g>
  <g id="axes_2">
   <g id="Poly3DCollection_18">
    <path clip-path="url(#p2f9dcb232e)" d="M 589.588175 136.742377 
L 589.585648 136.536976 
L 610.98036 141.156203 
L 610.981187 141.362311 
z
" style="fill:#065d4c;fill-opacity:0.8;"/>
    <path clip-path="url(#p2f9dcb232e)" d="M 576.803809 144.775161 
L 576.800232 144.568533 
L 589.585648 136.536976 
L 589.588175 136.742377 
z
" style="fill:#0cba97;fill-opacity:0.8;"/>
    <path clip-path="url(#p2f9dcb232e)" d="M 576.803809 144.775161 
L 589.588175 136.742377 
L 610.981187 141.362311 
L 598.3252 149.479914 
z
" style="fill:#08745e;fill-opacity:0.8;"/>
    <path clip-path="url(#p2f9dcb232e)" d="M 576.800232 144.568533 
L 598.323343 149.272574 
L 610.98036 141.156203 
L 589.585648 136.536976 
z
" style="fill:#0aa384;fill-opacity:0.8;"/>
    <path clip-path="url(#p2f9dcb232e)" d="M 598.3252 149.479914 
L 610.981187 141.362311 
L 610.98036 141.156203 
L 598.323343 149.272574 
z
" style="fill:#065d4c;fill-opacity:0.8;"/>
    <path clip-path="url(#p2f9dcb232e)" d="M 576.803809 144.775161 
L 598.3252 149.479914 
L 598.323343 149.272574 
L 576.800232 144.568533 
z
" style="fill:#0cba97;fill-opacity:0.8;"/>
   </g>
   <g id="Poly3DCollection_19">
    <path clip-path="url(#p2f9dcb232e)" d="M 632.599653 146.030933 
L 632.596408 146.769767 
L 654.437579 151.4904 
L 654.447156 150.749017 
z
" style="fill:#0cba97;fill-opacity:0.8;"/>
    <path clip-path="url(#p2f9dcb232e)" d="M 620.075487 154.234707 
L 620.075847 154.977964 
L 632.596408 146.769767 
L 632.599653 146.030933 
z
" style="fill:#065d4c;fill-opacity:0.8;"/>
    <path clip-path="url(#p2f9dcb232e)" d="M 620.075847 154.977964 
L 642.05229 159.786168 
L 654.437579 151.4904 
L 632.596408 146.769767 
z
" style="fill:#0aa384;fill-opacity:0.8;"/>
    <path clip-path="url(#p2f9dcb232e)" d="M 620.075487 154.234707 
L 632.599653 146.030933 
L 654.447156 150.749017 
L 642.058342 159.04034 
z
" style="fill:#08745e;fill-opacity:0.8;"/>
    <path clip-path="url(#p2f9dcb232e)" d="M 642.058342 159.04034 
L 654.447156 150.749017 
L 654.437579 151.4904 
L 642.05229 159.786168 
z
" style="fill:#0cba97;fill-opacity:0.8;"/>
    <path clip-path="url(#p2f9dcb232e)" d="M 620.075487 154.234707 
L 642.058342 159.04034 
L 642.05229 159.786168 
L 620.075847 154.977964 
z
" style="fill:#065d4c;fill-opacity:0.8;"/>
   </g>
   <g id="Poly3DCollection_20">
    <path clip-path="url(#p2f9dcb232e)" d="M 563.784269 152.955711 
L 563.775608 152.569887 
L 585.429727 157.360483 
L 585.435158 157.747642 
z
" style="fill:#065d4c;fill-opacity:0.8;"/>
    <path clip-path="url(#p2f9dcb232e)" d="M 550.523005 161.288143 
L 550.512249 160.900003 
L 563.775608 152.569887 
L 563.784269 152.955711 
z
" style="fill:#0cba97;fill-opacity:0.8;"/>
    <path clip-path="url(#p2f9dcb232e)" d="M 550.523005 161.288143 
L 563.784269 152.955711 
L 585.435158 157.747642 
L 572.304506 166.169697 
z
" style="fill:#08745e;fill-opacity:0.8;"/>
    <path clip-path="url(#p2f9dcb232e)" d="M 550.512249 160.900003 
L 572.297019 165.780211 
L 585.429727 157.360483 
L 563.775608 152.569887 
z
" style="fill:#0aa384;fill-opacity:0.8;"/>
    <path clip-path="url(#p2f9dcb232e)" d="M 572.304506 166.169697 
L 585.435158 157.747642 
L 585.429727 157.360483 
L 572.297019 165.780211 
z
" style="fill:#065d4c;fill-opacity:0.8;"/>
    <path clip-path="url(#p2f9dcb232e)" d="M 550.523005 161.288143 
L 572.304506 166.169697 
L 572.297019 165.780211 
L 550.512249 160.900003 
z
" style="fill:#0cba97;fill-opacity:0.8;"/>
   </g>
   <g id="Poly3DCollection_21">
    <path clip-path="url(#p2f9dcb232e)" d="M 676.527355 155.517352 
L 676.524955 155.628642 
L 698.8406 160.448422 
L 698.843988 160.336747 
z
" style="fill:#0cba97;fill-opacity:0.8;"/>
    <path clip-path="url(#p2f9dcb232e)" d="M 664.277514 163.897634 
L 664.275629 164.009593 
L 676.524955 155.628642 
L 676.527355 155.517352 
z
" style="fill:#065d4c;fill-opacity:0.8;"/>
    <path clip-path="url(#p2f9dcb232e)" d="M 664.275629 164.009593 
L 686.733948 168.919774 
L 698.8406 160.448422 
L 676.524955 155.628642 
z
" style="fill:#0aa384;fill-opacity:0.8;"/>
    <path clip-path="url(#p2f9dcb232e)" d="M 664.277514 163.897634 
L 676.527355 155.517352 
L 698.843988 160.336747 
L 686.736834 168.807427 
z
" style="fill:#08745e;fill-opacity:0.8;"/>
    <path clip-path="url(#p2f9dcb232e)" d="M 686.736834 168.807427 
L 698.843988 160.336747 
L 698.8406 160.448422 
L 686.733948 168.919774 
z
" style="fill:#0cba97;fill-opacity:0.8;"/>
    <path clip-path="url(#p2f9dcb232e)" d="M 664.277514 163.897634 
L 686.736834 168.807427 
L 686.733948 168.919774 
L 664.275629 164.009593 
z
" style="fill:#065d4c;fill-opacity:0.8;"/>
   </g>
   <g id="Poly3DCollection_22">
    <path clip-path="url(#p2f9dcb232e)" d="M 607.31846 162.591012 
L 607.317299 162.379168 
L 629.438618 167.274076 
L 629.43794 167.486655 
z
" style="fill:#065d4c;fill-opacity:0.8;"/>
    <path clip-path="url(#p2f9dcb232e)" d="M 594.322018 171.104144 
L 594.319757 170.891025 
L 607.317299 162.379168 
L 607.31846 162.591012 
z
" style="fill:#0cba97;fill-opacity:0.8;"/>
    <path clip-path="url(#p2f9dcb232e)" d="M 594.322018 171.104144 
L 607.31846 162.591012 
L 629.43794 167.486655 
L 616.579396 176.092349 
z
" style="fill:#08745e;fill-opacity:0.8;"/>
    <path clip-path="url(#p2f9dcb232e)" d="M 594.319757 170.891025 
L 616.578998 175.878489 
L 629.438618 167.274076 
L 607.317299 162.379168 
z
" style="fill:#0aa384;fill-opacity:0.8;"/>
    <path clip-path="url(#p2f9dcb232e)" d="M 616.579396 176.092349 
L 629.43794 167.486655 
L 629.438618 167.274076 
L 616.578998 175.878489 
z
" style="fill:#065d4c;fill-opacity:0.8;"/>
    <path clip-path="url(#p2f9dcb232e)" d="M 594.322018 171.104144 
L 616.579396 176.092349 
L 616.578998 175.878489 
L 594.319757 170.891025 
z
" style="fill:#0cba97;fill-opacity:0.8;"/>
   </g>
   <g id="Poly3DCollection_23">
    <path clip-path="url(#p2f9dcb232e)" d="M 721.400872 165.208025 
L 721.400872 165.208025 
L 744.201909 170.13203 
L 744.201909 170.13203 
z
" style="fill:#065d4c;fill-opacity:0.8;"/>
    <path clip-path="url(#p2f9dcb232e)" d="M 709.440218 173.770574 
L 709.440218 173.770574 
L 721.400872 165.208025 
L 721.400872 165.208025 
z
" style="fill:#065d4c;fill-opacity:0.8;"/>
    <path clip-path="url(#p2f9dcb232e)" d="M 709.440218 173.770574 
L 721.400872 165.208025 
L 744.201909 170.13203 
L 732.391666 178.78795 
z
" style="fill:#08745e;fill-opacity:0.8;"/>
    <path clip-path="url(#p2f9dcb232e)" d="M 709.440218 173.770574 
L 732.391666 178.78795 
L 744.201909 170.13203 
L 721.400872 165.208025 
z
" style="fill:#0aa384;fill-opacity:0.8;"/>
    <path clip-path="url(#p2f9dcb232e)" d="M 732.391666 178.78795 
L 744.201909 170.13203 
L 744.201909 170.13203 
L 732.391666 178.78795 
z
" style="fill:#065d4c;fill-opacity:0.8;"/>
    <path clip-path="url(#p2f9dcb232e)" d="M 709.440218 173.770574 
L 732.391666 178.78795 
L 732.391666 178.78795 
L 709.440218 173.770574 
z
" style="fill:#065d4c;fill-opacity:0.8;"/>
   </g>
   <g id="Poly3DCollection_24">
    <path clip-path="url(#p2f9dcb232e)" d="M 537.013223 169.776727 
L 536.997431 169.299799 
L 558.914695 174.271856 
L 558.926446 174.750441 
z
" style="fill:#065d4c;fill-opacity:0.8;"/>
    <path clip-path="url(#p2f9dcb232e)" d="M 523.247871 178.425892 
L 523.229326 177.946088 
L 536.997431 169.299799 
L 537.013223 169.776727 
z
" style="fill:#0cba97;fill-opacity:0.8;"/>
    <path clip-path="url(#p2f9dcb232e)" d="M 523.247871 178.425892 
L 537.013223 169.776727 
L 558.926446 174.750441 
L 545.293917 183.494403 
z
" style="fill:#08745e;fill-opacity:0.8;"/>
    <path clip-path="url(#p2f9dcb232e)" d="M 523.229326 177.946088 
L 545.279463 183.012927 
L 558.914695 174.271856 
L 536.997431 169.299799 
z
" style="fill:#0aa384;fill-opacity:0.8;"/>
    <path clip-path="url(#p2f9dcb232e)" d="M 545.293917 183.494403 
L 558.926446 174.750441 
L 558.914695 174.271856 
L 545.279463 183.012927 
z
" style="fill:#065d4c;fill-opacity:0.8;"/>
    <path clip-path="url(#p2f9dcb232e)" d="M 523.247871 178.425892 
L 545.293917 183.494403 
L 545.279463 183.012927 
L 523.229326 177.946088 
z
" style="fill:#0cba97;fill-opacity:0.8;"/>
   </g>
   <g id="Poly3DCollection_25">
    <path clip-path="url(#p2f9dcb232e)" d="M 651.79744 172.435421 
L 651.79744 172.435421 
L 674.40089 177.438179 
L 674.40089 177.438179 
z
" style="fill:#065d4c;fill-opacity:0.8;"/>
    <path clip-path="url(#p2f9dcb232e)" d="M 639.080583 181.135195 
L 639.080583 181.135195 
L 651.79744 172.435421 
L 651.79744 172.435421 
z
" style="fill:#065d4c;fill-opacity:0.8;"/>
    <path clip-path="url(#p2f9dcb232e)" d="M 639.080583 181.135195 
L 651.79744 172.435421 
L 674.40089 177.438179 
L 661.829606 186.233584 
z
" style="fill:#08745e;fill-opacity:0.8;"/>
    <path clip-path="url(#p2f9dcb232e)" d="M 639.080583 181.135195 
L 661.829606 186.233584 
L 674.40089 177.438179 
L 651.79744 172.435421 
z
" style="fill:#0aa384;fill-opacity:0.8;"/>
    <path clip-path="url(#p2f9dcb232e)" d="M 661.829606 186.233584 
L 674.40089 177.438179 
L 674.40089 177.438179 
L 661.829606 186.233584 
z
" style="fill:#065d4c;fill-opacity:0.8;"/>
    <path clip-path="url(#p2f9dcb232e)" d="M 639.080583 181.135195 
L 661.829606 186.233584 
L 661.829606 186.233584 
L 639.080583 181.135195 
z
" style="fill:#065d4c;fill-opacity:0.8;"/>
   </g>
   <g id="Poly3DCollection_26">
    <path clip-path="url(#p2f9dcb232e)" d="M 581.079355 179.778558 
L 581.079355 179.778558 
L 603.475906 184.861975 
L 603.475906 184.861975 
z
" style="fill:#065d4c;fill-opacity:0.8;"/>
    <path clip-path="url(#p2f9dcb232e)" d="M 567.583409 188.618883 
L 567.583409 188.618883 
L 581.079355 179.778558 
L 581.079355 179.778558 
z
" style="fill:#065d4c;fill-opacity:0.8;"/>
    <path clip-path="url(#p2f9dcb232e)" d="M 567.583409 188.618883 
L 581.079355 179.778558 
L 603.475906 184.861975 
L 590.120402 193.800264 
z
" style="fill:#08745e;fill-opacity:0.8;"/>
    <path clip-path="url(#p2f9dcb232e)" d="M 567.583409 188.618883 
L 590.120402 193.800264 
L 603.475906 184.861975 
L 581.079355 179.778558 
z
" style="fill:#0aa384;fill-opacity:0.8;"/>
    <path clip-path="url(#p2f9dcb232e)" d="M 590.120402 193.800264 
L 603.475906 184.861975 
L 603.475906 184.861975 
L 590.120402 193.800264 
z
" style="fill:#065d4c;fill-opacity:0.8;"/>
    <path clip-path="url(#p2f9dcb232e)" d="M 567.583409 188.618883 
L 590.120402 193.800264 
L 590.120402 193.800264 
L 567.583409 188.618883 
z
" style="fill:#065d4c;fill-opacity:0.8;"/>
   </g>
   <g id="Poly3DCollection_27">
    <path clip-path="url(#p2f9dcb232e)" d="M 697.252302 182.495819 
L 697.255702 182.382391 
L 720.360239 187.495424 
L 720.35578 187.609247 
z
" style="fill:#065d4c;fill-opacity:0.8;"/>
    <path clip-path="url(#p2f9dcb232e)" d="M 684.830583 191.38844 
L 684.833455 191.274327 
L 697.255702 182.382391 
L 697.252302 182.495819 
z
" style="fill:#0cba97;fill-opacity:0.8;"/>
    <path clip-path="url(#p2f9dcb232e)" d="M 684.830583 191.38844 
L 697.252302 182.495819 
L 720.35578 187.609247 
L 708.087723 196.600706 
z
" style="fill:#08745e;fill-opacity:0.8;"/>
    <path clip-path="url(#p2f9dcb232e)" d="M 684.833455 191.274327 
L 708.091668 196.486194 
L 720.360239 187.495424 
L 697.255702 182.382391 
z
" style="fill:#0aa384;fill-opacity:0.8;"/>
    <path clip-path="url(#p2f9dcb232e)" d="M 708.087723 196.600706 
L 720.35578 187.609247 
L 720.360239 187.495424 
L 708.091668 196.486194 
z
" style="fill:#065d4c;fill-opacity:0.8;"/>
    <path clip-path="url(#p2f9dcb232e)" d="M 684.830583 191.38844 
L 708.087723 196.600706 
L 708.091668 196.486194 
L 684.833455 191.274327 
z
" style="fill:#0cba97;fill-opacity:0.8;"/>
   </g>
   <g id="Poly3DCollection_28">
    <path clip-path="url(#p2f9dcb232e)" d="M 509.219626 187.240241 
L 509.219626 187.240241 
L 531.39959 192.406283 
L 531.39959 192.406283 
z
" style="fill:#065d4c;fill-opacity:0.8;"/>
    <path clip-path="url(#p2f9dcb232e)" d="M 494.920886 196.224549 
L 494.920886 196.224549 
L 509.219626 187.240241 
L 509.219626 187.240241 
z
" style="fill:#065d4c;fill-opacity:0.8;"/>
    <path clip-path="url(#p2f9dcb232e)" d="M 494.920886 196.224549 
L 509.219626 187.240241 
L 531.39959 192.406283 
L 517.235849 201.490966 
z
" style="fill:#08745e;fill-opacity:0.8;"/>
    <path clip-path="url(#p2f9dcb232e)" d="M 494.920886 196.224549 
L 517.235849 201.490966 
L 531.39959 192.406283 
L 509.219626 187.240241 
z
" style="fill:#0aa384;fill-opacity:0.8;"/>
    <path clip-path="url(#p2f9dcb232e)" d="M 517.235849 201.490966 
L 531.39959 192.406283 
L 531.39959 192.406283 
L 517.235849 201.490966 
z
" style="fill:#065d4c;fill-opacity:0.8;"/>
    <path clip-path="url(#p2f9dcb232e)" d="M 494.920886 196.224549 
L 517.235849 201.490966 
L 517.235849 201.490966 
L 494.920886 196.224549 
z
" style="fill:#065d4c;fill-opacity:0.8;"/>
   </g>
   <g id="Poly3DCollection_29">
    <path clip-path="url(#p2f9dcb232e)" d="M 626.120138 190.00161 
L 626.119728 190.217475 
L 649.013804 195.415018 
L 649.016185 195.198399 
z
" style="fill:#0cba97;fill-opacity:0.8;"/>
    <path clip-path="url(#p2f9dcb232e)" d="M 612.90904 199.0395 
L 612.909766 199.256673 
L 626.119728 190.217475 
L 626.120138 190.00161 
z
" style="fill:#065d4c;fill-opacity:0.8;"/>
    <path clip-path="url(#p2f9dcb232e)" d="M 612.909766 199.256673 
L 635.952292 204.555498 
L 649.013804 195.415018 
L 626.119728 190.217475 
z
" style="fill:#0aa384;fill-opacity:0.8;"/>
    <path clip-path="url(#p2f9dcb232e)" d="M 612.90904 199.0395 
L 626.120138 190.00161 
L 649.016185 195.198399 
L 635.953563 204.337566 
z
" style="fill:#08745e;fill-opacity:0.8;"/>
    <path clip-path="url(#p2f9dcb232e)" d="M 635.953563 204.337566 
L 649.016185 195.198399 
L 649.013804 195.415018 
L 635.952292 204.555498 
z
" style="fill:#0cba97;fill-opacity:0.8;"/>
    <path clip-path="url(#p2f9dcb232e)" d="M 612.90904 199.0395 
L 635.953563 204.337566 
L 635.952292 204.555498 
L 612.909766 199.256673 
z
" style="fill:#065d4c;fill-opacity:0.8;"/>
   </g>
   <g id="Poly3DCollection_30">
    <path clip-path="url(#p2f9dcb232e)" d="M 553.826843 197.629922 
L 553.839865 198.115816 
L 576.514239 203.39972 
L 576.505544 202.912128 
z
" style="fill:#0cba97;fill-opacity:0.8;"/>
    <path clip-path="url(#p2f9dcb232e)" d="M 539.802033 206.816671 
L 539.817915 207.305511 
L 553.839865 198.115816 
L 553.826843 197.629922 
z
" style="fill:#065d4c;fill-opacity:0.8;"/>
    <path clip-path="url(#p2f9dcb232e)" d="M 539.817915 207.305511 
L 562.635203 212.693224 
L 576.514239 203.39972 
L 553.839865 198.115816 
z
" style="fill:#0aa384;fill-opacity:0.8;"/>
    <path clip-path="url(#p2f9dcb232e)" d="M 539.802033 206.816671 
L 553.826843 197.629922 
L 576.505544 202.912128 
L 562.623703 212.202672 
z
" style="fill:#08745e;fill-opacity:0.8;"/>
    <path clip-path="url(#p2f9dcb232e)" d="M 562.623703 212.202672 
L 576.505544 202.912128 
L 576.514239 203.39972 
L 562.635203 212.693224 
z
" style="fill:#0cba97;fill-opacity:0.8;"/>
    <path clip-path="url(#p2f9dcb232e)" d="M 539.802033 206.816671 
L 562.623703 212.202672 
L 562.635203 212.693224 
L 539.817915 207.305511 
z
" style="fill:#065d4c;fill-opacity:0.8;"/>
   </g>
   <g id="Poly3DCollection_31">
    <path clip-path="url(#p2f9dcb232e)" d="M 672.16827 200.453302 
L 672.183794 199.685472 
L 695.60351 204.996781 
L 695.580712 205.767299 
z
" style="fill:#065d4c;fill-opacity:0.8;"/>
    <path clip-path="url(#p2f9dcb232e)" d="M 659.258304 209.695457 
L 659.27 208.922964 
L 672.183794 199.685472 
L 672.16827 200.453302 
z
" style="fill:#0cba97;fill-opacity:0.8;"/>
    <path clip-path="url(#p2f9dcb232e)" d="M 659.258304 209.695457 
L 672.16827 200.453302 
L 695.580712 205.767299 
L 682.827695 215.114193 
z
" style="fill:#08745e;fill-opacity:0.8;"/>
    <path clip-path="url(#p2f9dcb232e)" d="M 659.27 208.922964 
L 682.846765 214.338993 
L 695.60351 204.996781 
L 672.183794 199.685472 
z
" style="fill:#0aa384;fill-opacity:0.8;"/>
    <path clip-path="url(#p2f9dcb232e)" d="M 682.827695 215.114193 
L 695.580712 205.767299 
L 695.60351 204.996781 
L 682.846765 214.338993 
z
" style="fill:#065d4c;fill-opacity:0.8;"/>
    <path clip-path="url(#p2f9dcb232e)" d="M 659.258304 209.695457 
L 682.827695 215.114193 
L 682.846765 214.338993 
L 659.27 208.922964 
z
" style="fill:#0cba97;fill-opacity:0.8;"/>
   </g>
   <g id="Poly3DCollection_32">
    <path clip-path="url(#p2f9dcb232e)" d="M 599.439946 208.25389 
L 599.443441 208.654521 
L 622.634185 214.058256 
L 622.634397 213.656221 
z
" style="fill:#0cba97;fill-opacity:0.8;"/>
    <path clip-path="url(#p2f9dcb232e)" d="M 585.705223 217.649999 
L 585.710969 218.053064 
L 599.443441 208.654521 
L 599.439946 208.25389 
z
" style="fill:#065d4c;fill-opacity:0.8;"/>
    <path clip-path="url(#p2f9dcb232e)" d="M 585.710969 218.053064 
L 609.053046 223.564183 
L 622.634185 214.058256 
L 599.443441 208.654521 
z
" style="fill:#0aa384;fill-opacity:0.8;"/>
    <path clip-path="url(#p2f9dcb232e)" d="M 585.705223 217.649999 
L 599.439946 208.25389 
L 622.634397 213.656221 
L 609.051057 223.159705 
z
" style="fill:#08745e;fill-opacity:0.8;"/>
    <path clip-path="url(#p2f9dcb232e)" d="M 609.051057 223.159705 
L 622.634397 213.656221 
L 622.634185 214.058256 
L 609.053046 223.564183 
z
" style="fill:#0cba97;fill-opacity:0.8;"/>
    <path clip-path="url(#p2f9dcb232e)" d="M 585.705223 217.649999 
L 609.051057 223.159705 
L 609.053046 223.564183 
L 585.710969 218.053064 
z
" style="fill:#065d4c;fill-opacity:0.8;"/>
   </g>
   <g id="Poly3DCollection_33">
    <path clip-path="url(#p2f9dcb232e)" d="M 646.093347 219.120158 
L 646.091189 219.337547 
L 669.817096 224.864912 
L 669.821344 224.64676 
z
" style="fill:#0cba97;fill-opacity:0.8;"/>
    <path clip-path="url(#p2f9dcb232e)" d="M 632.665769 228.732867 
L 632.664771 228.951579 
L 646.091189 219.337547 
L 646.093347 219.120158 
z
" style="fill:#065d4c;fill-opacity:0.8;"/>
    <path clip-path="url(#p2f9dcb232e)" d="M 632.664771 228.951579 
L 656.550917 234.590068 
L 669.817096 224.864912 
L 646.091189 219.337547 
z
" style="fill:#0aa384;fill-opacity:0.8;"/>
    <path clip-path="url(#p2f9dcb232e)" d="M 632.665769 228.732867 
L 646.093347 219.120158 
L 669.821344 224.64676 
L 656.554034 234.370589 
z
" style="fill:#08745e;fill-opacity:0.8;"/>
    <path clip-path="url(#p2f9dcb232e)" d="M 656.554034 234.370589 
L 669.821344 224.64676 
L 669.817096 224.864912 
L 656.550917 234.590068 
z
" style="fill:#0cba97;fill-opacity:0.8;"/>
    <path clip-path="url(#p2f9dcb232e)" d="M 632.665769 228.732867 
L 656.554034 234.370589 
L 656.550917 234.590068 
L 632.664771 228.951579 
z
" style="fill:#065d4c;fill-opacity:0.8;"/>
   </g>
   <g id="Poly3DCollection_34">
    <path clip-path="url(#p2f9dcb232e)" d="M 482.083005 197.568304 
L 660.293923 239.822899 
L 756.303519 168.865341 
L 586.588736 132.369553 
z
" style="fill-opacity:0.2;"/>
   </g>
  </g>
 </g>
 <defs>
  <clipPath id="pab36b89bb4">
   <rect height="277.2" width="380.454545" x="-30.6" y="-14.4"/>
  </clipPath>
  <clipPath id="p2f9dcb232e">
   <rect height="277.2" width="380.454545" x="425.945455" y="-14.4"/>
  </clipPath>
 </defs>
</svg>
