<?xml version="1.0" encoding="utf-8" standalone="no"?>
<!DOCTYPE svg PUBLIC "-//W3C//DTD SVG 1.1//EN"
  "http://www.w3.org/Graphics/SVG/1.1/DTD/svg11.dtd">
<!-- Created with matplotlib (https://matplotlib.org/) -->
<svg height="302.4pt" version="1.1" viewBox="0 0 820.8 302.4" width="820.8pt" xmlns="http://www.w3.org/2000/svg" xmlns:xlink="http://www.w3.org/1999/xlink">
 <defs>
  <style type="text/css">
*{stroke-linecap:butt;stroke-linejoin:round;}
  </style>
 </defs>
 <g id="figure_1">
  <g id="patch_1">
   <path d="M 0 302.4 
L 820.8 302.4 
L 820.8 0 
L 0 0 
z
" style="fill:#ffffff;"/>
  </g>
  <g id="patch_2">
   <path d="M -30.6 262.8 
L 349.854545 262.8 
L 349.854545 -14.4 
L -30.6 -14.4 
z
" style="fill:#ffffff;"/>
  </g>
  <g id="pane3d_1">
   <g id="patch_3">
    <path d="M 19.835129 201.548569 
L 128.723211 133.58541 
L 126.910339 3.718968 
L 11.951034 64.782468 
" style="fill:#f2f2f2;opacity:0.5;stroke:#f2f2f2;stroke-linejoin:miter;"/>
   </g>
  </g>
  <g id="pane3d_2">
   <g id="patch_4">
    <path d="M 128.723211 133.58541 
L 305.111665 171.581202 
L 312.491547 37.79869 
L 126.910339 3.718968 
" style="fill:#e6e6e6;opacity:0.5;stroke:#e6e6e6;stroke-linejoin:miter;"/>
   </g>
  </g>
  <g id="pane3d_3">
   <g id="patch_5">
    <path d="M 19.835129 201.548569 
L 205.419617 245.80086 
L 305.111665 171.581202 
L 128.723211 133.58541 
" style="fill:#ececec;opacity:0.5;stroke:#ececec;stroke-linejoin:miter;"/>
   </g>
  </g>
  <g id="axis3d_1">
   <g id="line2d_1">
    <path d="M 19.835129 201.548569 
L 205.419617 245.80086 
" style="fill:none;stroke:#000000;stroke-linecap:square;stroke-width:0.8;"/>
   </g>
   <g id="Line3DCollection_1">
    <path d="M 42.295817 206.90428 
L 150.133942 138.19749 
L 149.393845 7.847789 
" style="fill:none;stroke:#b0b0b0;stroke-width:0.8;"/>
    <path d="M 87.512337 217.686079 
L 193.184014 147.470895 
L 194.636898 16.156123 
" style="fill:none;stroke:#b0b0b0;stroke-width:0.8;"/>
    <path d="M 133.765289 228.715013 
L 237.148096 156.941187 
L 240.890183 24.649974 
" style="fill:none;stroke:#b0b0b0;stroke-width:0.8;"/>
    <path d="M 181.090721 239.999678 
L 282.055608 166.614702 
L 288.187917 33.335625 
" style="fill:none;stroke:#b0b0b0;stroke-width:0.8;"/>
   </g>
   <g id="xtick_1">
    <g id="line2d_2">
     <path d="M 43.225084 206.312217 
L 40.433807 208.09062 
" style="fill:none;stroke:#000000;stroke-linecap:square;stroke-width:0.8;"/>
    </g>
    <g id="text_1">
     <!-- 00 -->
     <defs>
      <path d="M 42 31.84375 
C 42 37.96875 41.90625 48.421875 37.703125 56.453125 
C 34 63.484375 28.09375 66 22.90625 66 
C 18.09375 66 12 63.78125 8.203125 56.5625 
C 4.203125 49.015625 3.796875 39.671875 3.796875 31.84375 
C 3.796875 26.109375 3.90625 17.375 7 9.734375 
C 11.296875 -0.609375 19 -2 22.90625 -2 
C 27.5 -2 34.5 -0.109375 38.59375 9.4375 
C 41.59375 16.375 42 24.5 42 31.84375 
z
M 22.90625 -0.40625 
C 16.5 -0.40625 12.703125 5.125 11.296875 12.75 
C 10.203125 18.6875 10.203125 27.328125 10.203125 32.953125 
C 10.203125 40.6875 10.203125 47.109375 11.5 53.234375 
C 13.40625 61.78125 19 64.390625 22.90625 64.390625 
C 27 64.390625 32.296875 61.671875 34.203125 53.4375 
C 35.5 47.71875 35.59375 40.984375 35.59375 32.953125 
C 35.59375 26.421875 35.59375 18.375 34.40625 12.453125 
C 32.296875 1.5 26.40625 -0.40625 22.90625 -0.40625 
z
" id="CMR17-48"/>
     </defs>
     <g transform="translate(23.330362 237.14703)rotate(-45)scale(0.14 -0.14)">
      <use transform="scale(0.996264)" xlink:href="#CMR17-48"/>
      <use transform="translate(45.690477 0)scale(0.996264)" xlink:href="#CMR17-48"/>
     </g>
    </g>
   </g>
   <g id="xtick_2">
    <g id="line2d_3">
     <path d="M 88.423674 217.080527 
L 85.686217 218.899473 
" style="fill:none;stroke:#000000;stroke-linecap:square;stroke-width:0.8;"/>
    </g>
    <g id="text_2">
     <!-- 01 -->
     <defs>
      <path d="M 26.59375 63.796875 
C 26.59375 65.890625 26.5 66 25.09375 66 
C 21.203125 61.359375 15.296875 59.890625 9.703125 59.6875 
C 9.40625 59.6875 8.90625 59.6875 8.796875 59.5 
C 8.703125 59.296875 8.703125 59.09375 8.703125 57 
C 11.796875 57 17 57.59375 21 59.984375 
L 21 7.296875 
C 21 3.796875 20.796875 2.59375 12.203125 2.59375 
L 9.203125 2.59375 
L 9.203125 0 
C 14 0.09375 19 0.1875 23.796875 0.1875 
C 28.59375 0.1875 33.59375 0.09375 38.40625 0 
L 38.40625 2.59375 
L 35.40625 2.59375 
C 26.796875 2.59375 26.59375 3.6875 26.59375 7.296875 
z
" id="CMR17-49"/>
     </defs>
     <g transform="translate(68.542787 248.103782)rotate(-45)scale(0.14 -0.14)">
      <use transform="scale(0.996264)" xlink:href="#CMR17-48"/>
      <use transform="translate(45.690477 0)scale(0.996264)" xlink:href="#CMR17-49"/>
     </g>
    </g>
   </g>
   <g id="xtick_3">
    <g id="line2d_4">
     <path d="M 134.657625 228.095506 
L 131.977203 229.956397 
" style="fill:none;stroke:#000000;stroke-linecap:square;stroke-width:0.8;"/>
    </g>
    <g id="text_3">
     <!-- 10 -->
     <g transform="translate(114.7934 259.312128)rotate(-45)scale(0.14 -0.14)">
      <use transform="scale(0.996264)" xlink:href="#CMR17-49"/>
      <use transform="translate(45.690477 0)scale(0.996264)" xlink:href="#CMR17-48"/>
     </g>
    </g>
   </g>
   <g id="xtick_4">
    <g id="line2d_5">
     <path d="M 181.962926 239.365727 
L 179.342936 241.270032 
" style="fill:none;stroke:#000000;stroke-linecap:square;stroke-width:0.8;"/>
    </g>
    <g id="text_4">
     <!-- 11 -->
     <g transform="translate(162.118375 270.780834)rotate(-45)scale(0.14 -0.14)">
      <use transform="scale(0.996264)" xlink:href="#CMR17-49"/>
      <use transform="translate(45.690477 0)scale(0.996264)" xlink:href="#CMR17-49"/>
     </g>
    </g>
   </g>
  </g>
  <g id="axis3d_2">
   <g id="line2d_6">
    <path d="M 305.111665 171.581202 
L 205.419617 245.80086 
" style="fill:none;stroke:#000000;stroke-linecap:square;stroke-width:0.8;"/>
   </g>
   <g id="Line3DCollection_2">
    <path d="M 27.455231 56.547028 
L 34.471044 192.413474 
L 218.858418 235.795817 
" style="fill:none;stroke:#b0b0b0;stroke-width:0.8;"/>
    <path d="M 57.232024 40.730342 
L 62.623407 174.842005 
L 244.674037 216.576366 
" style="fill:none;stroke:#b0b0b0;stroke-width:0.8;"/>
    <path d="M 85.85589 25.526062 
L 89.739382 157.917404 
L 269.496985 198.095948 
" style="fill:none;stroke:#b0b0b0;stroke-width:0.8;"/>
    <path d="M 113.392516 10.899296 
L 115.875164 141.604597 
L 293.383438 180.312741 
" style="fill:none;stroke:#b0b0b0;stroke-width:0.8;"/>
   </g>
   <g id="xtick_5">
    <g id="line2d_7">
     <path d="M 217.315598 235.432825 
L 221.947489 236.522608 
" style="fill:none;stroke:#000000;stroke-linecap:square;stroke-width:0.8;"/>
    </g>
    <g id="text_5">
     <!-- 00 -->
     <g transform="translate(232.650369 248.348363)rotate(-337.5)scale(0.14 -0.14)">
      <use transform="scale(0.996264)" xlink:href="#CMR17-48"/>
      <use transform="translate(45.690477 0)scale(0.996264)" xlink:href="#CMR17-48"/>
     </g>
    </g>
   </g>
   <g id="xtick_6">
    <g id="line2d_8">
     <path d="M 243.15208 216.227463 
L 247.72127 217.274932 
" style="fill:none;stroke:#000000;stroke-linecap:square;stroke-width:0.8;"/>
    </g>
    <g id="text_6">
     <!-- 01 -->
     <g transform="translate(258.203921 228.903937)rotate(-337.5)scale(0.14 -0.14)">
      <use transform="scale(0.996264)" xlink:href="#CMR17-48"/>
      <use transform="translate(45.690477 0)scale(0.996264)" xlink:href="#CMR17-49"/>
     </g>
    </g>
   </g>
   <g id="xtick_7">
    <g id="line2d_9">
     <path d="M 267.995442 197.76033 
L 272.503283 198.767901 
" style="fill:none;stroke:#000000;stroke-linecap:square;stroke-width:0.8;"/>
    </g>
    <g id="text_7">
     <!-- 10 -->
     <g transform="translate(282.775332 210.206849)rotate(-337.5)scale(0.14 -0.14)">
      <use transform="scale(0.996264)" xlink:href="#CMR17-49"/>
      <use transform="translate(45.690477 0)scale(0.996264)" xlink:href="#CMR17-48"/>
     </g>
    </g>
   </g>
   <g id="xtick_8">
    <g id="line2d_10">
     <path d="M 291.901865 179.989663 
L 296.349691 180.959573 
" style="fill:none;stroke:#000000;stroke-linecap:square;stroke-width:0.8;"/>
    </g>
    <g id="text_8">
     <!-- 11 -->
     <g transform="translate(306.420159 192.214827)rotate(-337.5)scale(0.14 -0.14)">
      <use transform="scale(0.996264)" xlink:href="#CMR17-49"/>
      <use transform="translate(45.690477 0)scale(0.996264)" xlink:href="#CMR17-49"/>
     </g>
    </g>
   </g>
  </g>
  <g id="axis3d_3">
   <g id="line2d_11">
    <path d="M 305.111665 171.581202 
L 312.491547 37.79869 
" style="fill:none;stroke:#000000;stroke-linecap:square;stroke-width:0.8;"/>
   </g>
   <g id="text_9">
    <!-- Re[$\rho$] -->
    <defs>
     <path d="M 39.203125 33.6875 
C 48.703125 35.59375 56.703125 42.015625 56.703125 50.046875 
C 56.703125 59.46875 46.09375 68 32.09375 68 
L 5.203125 68 
L 5.203125 65.390625 
C 12.09375 65.390625 13.203125 65.390625 13.203125 60.875 
L 13.203125 6.6875 
C 13.203125 2.1875 12.09375 2.1875 5.203125 2.1875 
L 5.203125 -0.40625 
C 8.09375 -0.203125 13.296875 -0.203125 16.40625 -0.203125 
C 19.5 -0.203125 24.703125 -0.203125 27.59375 -0.40625 
L 27.59375 2.1875 
C 20.703125 2.1875 19.59375 2.1875 19.59375 6.6875 
L 19.59375 33 
L 31.296875 33 
C 37 33 40.203125 30.6875 41.59375 29.390625 
C 45.59375 25.5 45.59375 22.796875 45.59375 16 
C 45.59375 9.296875 45.59375 5.890625 48.59375 2.5 
C 52.40625 -1.609375 57.5 -2 59.703125 -2 
C 67.09375 -2 68.203125 6.296875 68.203125 8 
C 68.203125 8.59375 68.203125 9.296875 67.296875 9.296875 
C 66.5 9.296875 66.40625 8.6875 66.40625 8.296875 
C 65.90625 1.796875 63 -0.40625 59.90625 -0.40625 
C 54.40625 -0.40625 53.796875 5.890625 53.203125 12 
C 52.90625 14.09375 52.703125 15.59375 52.5 17.796875 
C 51.90625 22.796875 51.09375 30.09375 39.203125 33.6875 
z
M 31 34.59375 
L 19.59375 34.59375 
L 19.59375 61.484375 
C 19.59375 64.890625 19.796875 65.390625 23.796875 65.390625 
L 31.09375 65.390625 
C 39.40625 65.390625 49.09375 62.484375 49.09375 50.046875 
C 49.09375 37.09375 38.5 34.59375 31 34.59375 
z
" id="CMR17-82"/>
     <path d="M 38.09375 23.484375 
C 38.5 23.890625 38.5 24.09375 38.5 25.09375 
C 38.5 35.171875 33.09375 44 21.703125 44 
C 11.09375 44 2.703125 33.984375 2.703125 21.78125 
C 2.703125 8.65625 12.203125 -1 22.796875 -1 
C 34 -1 38.40625 9.671875 38.40625 11.796875 
C 38.40625 12.5 37.796875 12.5 37.59375 12.5 
C 36.90625 12.5 36.796875 12.296875 36.40625 11.078125 
C 34.203125 4.21875 28.703125 0.796875 23.5 0.796875 
C 19.203125 0.796875 14.90625 3.21875 12.203125 7.65625 
C 9.09375 12.796875 9.09375 18.75 9.09375 23.484375 
z
M 9.203125 25 
C 9.90625 39.234375 17.59375 42.390625 21.59375 42.390625 
C 28.40625 42.390625 33 36.0625 33.09375 25 
z
" id="CMR17-101"/>
     <path d="M 23.5 -25 
L 23.5 -21.5 
L 14.09375 -21.5 
L 14.09375 71.484375 
L 23.5 71.484375 
L 23.5 75 
L 10.59375 75 
L 10.59375 -25 
z
" id="CMR17-91"/>
     <path d="M 3.09375 -16.953125 
C 3 -17.4375 2.796875 -18.03125 2.796875 -18.609375 
C 2.796875 -20.109375 4 -21.109375 5.5 -21.109375 
C 7 -21.109375 8.40625 -20.109375 9 -18.71875 
C 9.40625 -17.828125 12.203125 -6.09375 15.40625 6.078125 
C 17.40625 1.09375 21.09375 -1 25 -1 
C 36.296875 -1 49.09375 12.96875 49.09375 28.03125 
C 49.09375 38.703125 42.59375 44 35.703125 44 
C 26.90625 44 16.203125 34.90625 12.90625 21.640625 
z
M 24.90625 1 
C 18.09375 1 16.40625 8.875 16.40625 10.078125 
C 16.40625 10.671875 18.90625 20.140625 19.203125 21.640625 
C 24.296875 41.5 34.09375 41.984375 35.59375 41.984375 
C 40.09375 41.984375 42.59375 37.90625 42.59375 32.015625 
C 42.59375 26.9375 39.90625 17.046875 38.203125 12.859375 
C 35.203125 5.984375 30 1 24.90625 1 
z
" id="CMMI12-26"/>
     <path d="M 14.296875 75 
L 1.40625 75 
L 1.40625 71.484375 
L 10.796875 71.484375 
L 10.796875 -21.5 
L 1.40625 -21.5 
L 1.40625 -25 
L 14.296875 -25 
z
" id="CMR17-93"/>
    </defs>
    <g transform="translate(352.486567 117.931831)rotate(-86.842577)scale(0.14 -0.14)">
     <use transform="scale(0.996264)" xlink:href="#CMR17-82"/>
     <use transform="translate(67.791102 0)scale(0.996264)" xlink:href="#CMR17-101"/>
     <use transform="translate(108.276762 0)scale(0.996264)" xlink:href="#CMR17-91"/>
     <use transform="translate(133.147821 0)scale(0.996264)" xlink:href="#CMMI12-26"/>
     <use transform="translate(183.462194 0)scale(0.996264)" xlink:href="#CMR17-93"/>
    </g>
   </g>
   <g id="Line3DCollection_3">
    <path d="M 305.254043 169.000176 
L 128.688161 131.074578 
L 19.68328 198.914433 
" style="fill:none;stroke:#b0b0b0;stroke-width:0.8;"/>
    <path d="M 307.995913 119.295542 
L 128.013753 82.762884 
L 16.757052 148.152886 
" style="fill:none;stroke:#b0b0b0;stroke-width:0.8;"/>
    <path d="M 310.846941 67.612105 
L 127.313654 32.610724 
L 13.710355 95.301569 
" style="fill:none;stroke:#b0b0b0;stroke-width:0.8;"/>
   </g>
   <g id="xtick_9">
    <g id="line2d_12">
     <path d="M 303.780852 168.683741 
L 308.203489 169.633705 
" style="fill:none;stroke:#000000;stroke-linecap:square;stroke-width:0.8;"/>
    </g>
    <g id="text_10">
     <!-- $0.0$ -->
     <defs>
      <path d="M 18.40625 4.796875 
C 18.40625 7.6875 16 9.6875 13.59375 9.6875 
C 10.703125 9.6875 8.703125 7.296875 8.703125 4.890625 
C 8.703125 2 11.09375 0 13.5 0 
C 16.40625 0 18.40625 2.390625 18.40625 4.796875 
z
" id="CMMI12-58"/>
     </defs>
     <g transform="translate(315.056796 176.745193)scale(0.14 -0.14)">
      <use transform="scale(0.996264)" xlink:href="#CMR17-48"/>
      <use transform="translate(45.690477 0)scale(0.996264)" xlink:href="#CMMI12-58"/>
      <use transform="translate(72.787654 0)scale(0.996264)" xlink:href="#CMR17-48"/>
     </g>
    </g>
   </g>
   <g id="xtick_10">
    <g id="line2d_13">
     <path d="M 306.493012 118.990484 
L 311.004904 119.906304 
" style="fill:none;stroke:#000000;stroke-linecap:square;stroke-width:0.8;"/>
    </g>
    <g id="text_11">
     <!-- $0.2$ -->
     <defs>
      <path d="M 41.703125 15.46875 
L 39.90625 15.46875 
C 38.90625 8.390625 38.09375 7.1875 37.703125 6.59375 
C 37.203125 5.796875 30 5.796875 28.59375 5.796875 
L 9.40625 5.796875 
C 13 9.6875 20 16.765625 28.5 24.9375 
C 34.59375 30.71875 41.703125 37.5 41.703125 47.390625 
C 41.703125 59.1875 32.296875 66 21.796875 66 
C 10.796875 66 4.09375 56.296875 4.09375 47.296875 
C 4.09375 43.390625 7 42.890625 8.203125 42.890625 
C 9.203125 42.890625 12.203125 43.484375 12.203125 46.984375 
C 12.203125 50.09375 9.59375 51 8.203125 51 
C 7.59375 51 7 50.890625 6.59375 50.6875 
C 8.5 59.1875 14.296875 63.390625 20.40625 63.390625 
C 29.09375 63.390625 34.796875 56.5 34.796875 47.390625 
C 34.796875 38.703125 29.703125 31.21875 24 24.734375 
L 4.09375 2.296875 
L 4.09375 0 
L 39.296875 0 
z
" id="CMR17-50"/>
     </defs>
     <g transform="translate(318.153559 127.110406)scale(0.14 -0.14)">
      <use transform="scale(0.996264)" xlink:href="#CMR17-48"/>
      <use transform="translate(45.690477 0)scale(0.996264)" xlink:href="#CMMI12-58"/>
      <use transform="translate(72.787654 0)scale(0.996264)" xlink:href="#CMR17-50"/>
     </g>
    </g>
   </g>
   <g id="xtick_11">
    <g id="line2d_14">
     <path d="M 309.313108 67.31959 
L 313.917926 68.197768 
" style="fill:none;stroke:#000000;stroke-linecap:square;stroke-width:0.8;"/>
    </g>
    <g id="text_12">
     <!-- $0.4$ -->
     <defs>
      <path d="M 33.59375 64.796875 
C 33.59375 66.890625 33.5 67 31.703125 67 
L 2 19.59375 
L 2 17 
L 27.796875 17 
L 27.796875 7.1875 
C 27.796875 3.59375 27.59375 2.59375 20.59375 2.59375 
L 18.703125 2.59375 
L 18.703125 0 
C 21.90625 0.1875 27.296875 0.1875 30.703125 0.1875 
C 34.09375 0.1875 39.5 0.1875 42.703125 0 
L 42.703125 2.59375 
L 40.796875 2.59375 
C 33.796875 2.59375 33.59375 3.59375 33.59375 7.1875 
L 33.59375 17 
L 43.796875 17 
L 43.796875 19.59375 
L 33.59375 19.59375 
z
M 28.09375 58.171875 
L 28.09375 19.59375 
L 4 19.59375 
z
" id="CMR17-52"/>
     </defs>
     <g transform="translate(321.373336 75.503962)scale(0.14 -0.14)">
      <use transform="scale(0.996264)" xlink:href="#CMR17-48"/>
      <use transform="translate(45.690477 0)scale(0.996264)" xlink:href="#CMMI12-58"/>
      <use transform="translate(72.787654 0)scale(0.996264)" xlink:href="#CMR17-52"/>
     </g>
    </g>
   </g>
  </g>
  <g id="axes_1">
   <g id="Poly3DCollection_1">
    <path clip-path="url(#p1844713d69)" d="M 176.051111 146.733844 
L 176.051413 146.665195 
L 197.89348 151.385466 
L 197.89259 151.454352 
z
" style="fill:#5d0618;fill-opacity:0.8;"/>
    <path clip-path="url(#p1844713d69)" d="M 163.530374 154.941825 
L 163.530341 154.872765 
L 176.051413 146.665195 
L 176.051111 146.733844 
z
" style="fill:#ba0c2f;fill-opacity:0.8;"/>
    <path clip-path="url(#p1844713d69)" d="M 163.530374 154.941825 
L 176.051111 146.733844 
L 197.89259 151.454352 
L 185.50713 159.749904 
z
" style="fill:#74081d;fill-opacity:0.8;"/>
    <path clip-path="url(#p1844713d69)" d="M 163.530341 154.872765 
L 185.507692 159.680605 
L 197.89348 151.385466 
L 176.051413 146.665195 
z
" style="fill:#a30a29;fill-opacity:0.8;"/>
    <path clip-path="url(#p1844713d69)" d="M 185.50713 159.749904 
L 197.89259 151.454352 
L 197.89348 151.385466 
L 185.507692 159.680605 
z
" style="fill:#5d0618;fill-opacity:0.8;"/>
    <path clip-path="url(#p1844713d69)" d="M 163.530374 154.941825 
L 185.50713 159.749904 
L 185.507692 159.680605 
L 163.530341 154.872765 
z
" style="fill:#ba0c2f;fill-opacity:0.8;"/>
   </g>
   <g id="Poly3DCollection_2">
    <path clip-path="url(#p1844713d69)" d="M 107.254674 153.662176 
L 107.254546 153.656494 
L 128.899567 158.450848 
L 128.899647 158.45655 
z
" style="fill:#5d0618;fill-opacity:0.8;"/>
    <path clip-path="url(#p1844713d69)" d="M 93.997247 161.998847 
L 93.997088 161.993131 
L 107.254546 153.656494 
L 107.254674 153.662176 
z
" style="fill:#ba0c2f;fill-opacity:0.8;"/>
    <path clip-path="url(#p1844713d69)" d="M 93.997247 161.998847 
L 107.254674 153.662176 
L 128.899647 158.45655 
L 115.772761 166.882863 
z
" style="fill:#74081d;fill-opacity:0.8;"/>
    <path clip-path="url(#p1844713d69)" d="M 93.997088 161.993131 
L 115.772651 166.877128 
L 128.899567 158.450848 
L 107.254546 153.656494 
z
" style="fill:#a30a29;fill-opacity:0.8;"/>
    <path clip-path="url(#p1844713d69)" d="M 115.772761 166.882863 
L 128.899647 158.45655 
L 128.899567 158.450848 
L 115.772651 166.877128 
z
" style="fill:#5d0618;fill-opacity:0.8;"/>
    <path clip-path="url(#p1844713d69)" d="M 93.997247 161.998847 
L 115.772761 166.882863 
L 115.772651 166.877128 
L 93.997088 161.993131 
z
" style="fill:#ba0c2f;fill-opacity:0.8;"/>
   </g>
   <g id="Poly3DCollection_3">
    <path clip-path="url(#p1844713d69)" d="M 219.966637 156.225125 
L 219.968885 156.120874 
L 242.280159 160.942357 
L 242.276985 161.046968 
z
" style="fill:#5d0618;fill-opacity:0.8;"/>
    <path clip-path="url(#p1844713d69)" d="M 207.720071 164.609656 
L 207.721837 164.50478 
L 219.968885 156.120874 
L 219.966637 156.225125 
z
" style="fill:#ba0c2f;fill-opacity:0.8;"/>
    <path clip-path="url(#p1844713d69)" d="M 207.720071 164.609656 
L 219.966637 156.225125 
L 242.276985 161.046968 
L 230.173027 169.521918 
z
" style="fill:#74081d;fill-opacity:0.8;"/>
    <path clip-path="url(#p1844713d69)" d="M 207.721837 164.50478 
L 230.17573 169.416678 
L 242.280159 160.942357 
L 219.968885 156.120874 
z
" style="fill:#a30a29;fill-opacity:0.8;"/>
    <path clip-path="url(#p1844713d69)" d="M 230.173027 169.521918 
L 242.276985 161.046968 
L 242.280159 160.942357 
L 230.17573 169.416678 
z
" style="fill:#5d0618;fill-opacity:0.8;"/>
    <path clip-path="url(#p1844713d69)" d="M 207.720071 164.609656 
L 230.173027 169.521918 
L 230.17573 169.416678 
L 207.721837 164.50478 
z
" style="fill:#ba0c2f;fill-opacity:0.8;"/>
   </g>
   <g id="Poly3DCollection_4">
    <path clip-path="url(#p1844713d69)" d="M 150.776905 163.302374 
L 150.777105 163.33873 
L 172.890093 168.236965 
L 172.89021 168.200483 
z
" style="fill:#ba0c2f;fill-opacity:0.8;"/>
    <path clip-path="url(#p1844713d69)" d="M 137.784154 171.819785 
L 137.784542 171.856359 
L 150.777105 163.33873 
L 150.776905 163.302374 
z
" style="fill:#5d0618;fill-opacity:0.8;"/>
    <path clip-path="url(#p1844713d69)" d="M 137.784542 171.856359 
L 160.035349 176.847178 
L 172.890093 168.236965 
L 150.777105 163.33873 
z
" style="fill:#a30a29;fill-opacity:0.8;"/>
    <path clip-path="url(#p1844713d69)" d="M 137.784154 171.819785 
L 150.776905 163.302374 
L 172.89021 168.200483 
L 160.03528 176.810477 
z
" style="fill:#74081d;fill-opacity:0.8;"/>
    <path clip-path="url(#p1844713d69)" d="M 160.03528 176.810477 
L 172.89021 168.200483 
L 172.890093 168.236965 
L 160.035349 176.847178 
z
" style="fill:#ba0c2f;fill-opacity:0.8;"/>
    <path clip-path="url(#p1844713d69)" d="M 137.784154 171.819785 
L 160.03528 176.810477 
L 160.035349 176.847178 
L 137.784542 171.856359 
z
" style="fill:#5d0618;fill-opacity:0.8;"/>
   </g>
   <g id="Poly3DCollection_5">
    <path clip-path="url(#p1844713d69)" d="M 80.491443 170.491704 
L 80.492399 170.520576 
L 102.399318 175.496875 
L 102.398607 175.467902 
z
" style="fill:#ba0c2f;fill-opacity:0.8;"/>
    <path clip-path="url(#p1844713d69)" d="M 66.730216 179.145178 
L 66.731339 179.174225 
L 80.492399 170.520576 
L 80.491443 170.491704 
z
" style="fill:#5d0618;fill-opacity:0.8;"/>
    <path clip-path="url(#p1844713d69)" d="M 66.731339 179.174225 
L 88.771006 184.24534 
L 102.399318 175.496875 
L 80.492399 170.520576 
z
" style="fill:#a30a29;fill-opacity:0.8;"/>
    <path clip-path="url(#p1844713d69)" d="M 66.730216 179.145178 
L 80.491443 170.491704 
L 102.398607 175.467902 
L 88.770131 184.216192 
z
" style="fill:#74081d;fill-opacity:0.8;"/>
    <path clip-path="url(#p1844713d69)" d="M 88.770131 184.216192 
L 102.398607 175.467902 
L 102.399318 175.496875 
L 88.771006 184.24534 
z
" style="fill:#ba0c2f;fill-opacity:0.8;"/>
    <path clip-path="url(#p1844713d69)" d="M 66.730216 179.145178 
L 88.770131 184.216192 
L 88.771006 184.24534 
L 66.731339 179.174225 
z
" style="fill:#5d0618;fill-opacity:0.8;"/>
   </g>
   <g id="Poly3DCollection_6">
    <path clip-path="url(#p1844713d69)" d="M 195.2434 173.151727 
L 195.24458 173.053306 
L 217.842467 178.058212 
L 217.840402 178.156975 
z
" style="fill:#5d0618;fill-opacity:0.8;"/>
    <path clip-path="url(#p1844713d69)" d="M 182.530077 181.855821 
L 182.530771 181.756807 
L 195.24458 173.053306 
L 195.2434 173.151727 
z
" style="fill:#ba0c2f;fill-opacity:0.8;"/>
    <path clip-path="url(#p1844713d69)" d="M 182.530077 181.855821 
L 195.2434 173.151727 
L 217.840402 178.156975 
L 205.272569 186.95672 
z
" style="fill:#74081d;fill-opacity:0.8;"/>
    <path clip-path="url(#p1844713d69)" d="M 182.530771 181.756807 
L 205.27416 186.857361 
L 217.842467 178.058212 
L 195.24458 173.053306 
z
" style="fill:#a30a29;fill-opacity:0.8;"/>
    <path clip-path="url(#p1844713d69)" d="M 205.272569 186.95672 
L 217.840402 178.156975 
L 217.842467 178.058212 
L 205.27416 186.857361 
z
" style="fill:#5d0618;fill-opacity:0.8;"/>
    <path clip-path="url(#p1844713d69)" d="M 182.530077 181.855821 
L 205.272569 186.95672 
L 205.27416 186.857361 
L 182.530771 181.756807 
z
" style="fill:#ba0c2f;fill-opacity:0.8;"/>
   </g>
   <g id="Poly3DCollection_7">
    <path clip-path="url(#p1844713d69)" d="M 120.270513 145.477424 
L 133.051308 137.440474 
L 154.438544 142.062809 
L 141.786058 150.184599 
z
" style="fill:#74081d;fill-opacity:0.8;"/>
    <path clip-path="url(#p1844713d69)" d="M 133.051308 137.440474 
L 131.518353 12.827209 
L 153.936532 16.989433 
L 154.438544 142.062809 
z
" style="fill:#5d0618;fill-opacity:0.8;"/>
    <path clip-path="url(#p1844713d69)" d="M 120.270513 145.477424 
L 118.099286 20.065509 
L 131.518353 12.827209 
L 133.051308 137.440474 
z
" style="fill:#ba0c2f;fill-opacity:0.8;"/>
    <path clip-path="url(#p1844713d69)" d="M 141.786058 150.184599 
L 154.438544 142.062809 
L 153.936532 16.989433 
L 140.658434 24.307885 
z
" style="fill:#5d0618;fill-opacity:0.8;"/>
    <path clip-path="url(#p1844713d69)" d="M 120.270513 145.477424 
L 141.786058 150.184599 
L 140.658434 24.307885 
L 118.099286 20.065509 
z
" style="fill:#ba0c2f;fill-opacity:0.8;"/>
    <path clip-path="url(#p1844713d69)" d="M 118.099286 20.065509 
L 140.658434 24.307885 
L 153.936532 16.989433 
L 131.518353 12.827209 
z
" style="fill:#a30a29;fill-opacity:0.8;"/>
   </g>
   <g id="Poly3DCollection_8">
    <path clip-path="url(#p1844713d69)" d="M 124.545323 180.498514 
L 124.54379 180.401843 
L 146.934859 185.48743 
L 146.935543 185.584438 
z
" style="fill:#5d0618;fill-opacity:0.8;"/>
    <path clip-path="url(#p1844713d69)" d="M 111.053355 189.343188 
L 111.051287 189.245933 
L 124.54379 180.401843 
L 124.545323 180.498514 
z
" style="fill:#ba0c2f;fill-opacity:0.8;"/>
    <path clip-path="url(#p1844713d69)" d="M 111.053355 189.343188 
L 124.545323 180.498514 
L 146.935543 185.584438 
L 133.583938 194.527096 
z
" style="fill:#74081d;fill-opacity:0.8;"/>
    <path clip-path="url(#p1844713d69)" d="M 111.051287 189.245933 
L 133.58273 194.429502 
L 146.934859 185.48743 
L 124.54379 180.401843 
z
" style="fill:#a30a29;fill-opacity:0.8;"/>
    <path clip-path="url(#p1844713d69)" d="M 133.583938 194.527096 
L 146.935543 185.584438 
L 146.934859 185.48743 
L 133.58273 194.429502 
z
" style="fill:#5d0618;fill-opacity:0.8;"/>
    <path clip-path="url(#p1844713d69)" d="M 111.053355 189.343188 
L 133.583938 194.527096 
L 133.58273 194.429502 
L 111.051287 189.245933 
z
" style="fill:#ba0c2f;fill-opacity:0.8;"/>
   </g>
   <g id="Poly3DCollection_9">
    <path clip-path="url(#p1844713d69)" d="M 240.685225 183.217116 
L 240.68841 183.110874 
L 263.786146 188.226445 
L 263.78197 188.333058 
z
" style="fill:#5d0618;fill-opacity:0.8;"/>
    <path clip-path="url(#p1844713d69)" d="M 228.26687 192.114098 
L 228.269559 192.007214 
L 240.68841 183.110874 
L 240.685225 183.217116 
z
" style="fill:#ba0c2f;fill-opacity:0.8;"/>
    <path clip-path="url(#p1844713d69)" d="M 228.26687 192.114098 
L 240.685225 183.217116 
L 263.78197 188.333058 
L 251.517185 197.328897 
z
" style="fill:#74081d;fill-opacity:0.8;"/>
    <path clip-path="url(#p1844713d69)" d="M 228.269559 192.007214 
L 251.52088 197.22164 
L 263.786146 188.226445 
L 240.68841 183.110874 
z
" style="fill:#a30a29;fill-opacity:0.8;"/>
    <path clip-path="url(#p1844713d69)" d="M 251.517185 197.328897 
L 263.78197 188.333058 
L 263.786146 188.226445 
L 251.52088 197.22164 
z
" style="fill:#5d0618;fill-opacity:0.8;"/>
    <path clip-path="url(#p1844713d69)" d="M 228.26687 192.114098 
L 251.517185 197.328897 
L 251.52088 197.22164 
L 228.269559 192.007214 
z
" style="fill:#ba0c2f;fill-opacity:0.8;"/>
   </g>
   <g id="Poly3DCollection_10">
    <path clip-path="url(#p1844713d69)" d="M 169.573304 190.726591 
L 169.573234 190.763642 
L 192.462326 195.96309 
L 192.462735 195.92591 
z
" style="fill:#ba0c2f;fill-opacity:0.8;"/>
    <path clip-path="url(#p1844713d69)" d="M 156.366022 199.768871 
L 156.366146 199.806146 
L 169.573234 190.763642 
L 169.573304 190.726591 
z
" style="fill:#5d0618;fill-opacity:0.8;"/>
    <path clip-path="url(#p1844713d69)" d="M 156.366146 199.806146 
L 179.403624 205.106891 
L 192.462326 195.96309 
L 169.573234 190.763642 
z
" style="fill:#a30a29;fill-opacity:0.8;"/>
    <path clip-path="url(#p1844713d69)" d="M 156.366022 199.768871 
L 169.573304 190.726591 
L 192.462735 195.92591 
L 179.403842 205.069486 
z
" style="fill:#74081d;fill-opacity:0.8;"/>
    <path clip-path="url(#p1844713d69)" d="M 179.403842 205.069486 
L 192.462735 195.92591 
L 192.462326 195.96309 
L 179.403624 205.106891 
z
" style="fill:#ba0c2f;fill-opacity:0.8;"/>
    <path clip-path="url(#p1844713d69)" d="M 156.366022 199.768871 
L 179.403842 205.069486 
L 179.403624 205.106891 
L 156.366146 199.806146 
z
" style="fill:#5d0618;fill-opacity:0.8;"/>
   </g>
   <g id="Poly3DCollection_11">
    <path clip-path="url(#p1844713d69)" d="M 97.300918 198.358611 
L 97.301707 198.388037 
L 119.973655 203.672892 
L 119.973129 203.643363 
z
" style="fill:#ba0c2f;fill-opacity:0.8;"/>
    <path clip-path="url(#p1844713d69)" d="M 83.280397 207.549778 
L 83.281358 207.579382 
L 97.301707 198.388037 
L 97.300918 198.358611 
z
" style="fill:#5d0618;fill-opacity:0.8;"/>
    <path clip-path="url(#p1844713d69)" d="M 83.281358 207.579382 
L 106.096192 212.968053 
L 119.973655 203.672892 
L 97.301707 198.388037 
z
" style="fill:#a30a29;fill-opacity:0.8;"/>
    <path clip-path="url(#p1844713d69)" d="M 83.280397 207.549778 
L 97.300918 198.358611 
L 119.973129 203.643363 
L 106.095495 212.938345 
z
" style="fill:#74081d;fill-opacity:0.8;"/>
    <path clip-path="url(#p1844713d69)" d="M 106.095495 212.938345 
L 119.973129 203.643363 
L 119.973655 203.672892 
L 106.096192 212.968053 
z
" style="fill:#ba0c2f;fill-opacity:0.8;"/>
    <path clip-path="url(#p1844713d69)" d="M 83.280397 207.549778 
L 106.095495 212.938345 
L 106.096192 212.968053 
L 83.281358 207.579382 
z
" style="fill:#5d0618;fill-opacity:0.8;"/>
   </g>
   <g id="Poly3DCollection_12">
    <path clip-path="url(#p1844713d69)" d="M 215.608055 201.183354 
L 215.609497 201.112056 
L 239.015697 206.428356 
L 239.01358 206.499904 
z
" style="fill:#5d0618;fill-opacity:0.8;"/>
    <path clip-path="url(#p1844713d69)" d="M 202.701728 210.429938 
L 202.702814 210.358207 
L 215.609497 201.112056 
L 215.608055 201.183354 
z
" style="fill:#ba0c2f;fill-opacity:0.8;"/>
    <path clip-path="url(#p1844713d69)" d="M 202.701728 210.429938 
L 215.608055 201.183354 
L 239.01358 206.499904 
L 226.26411 215.851246 
z
" style="fill:#74081d;fill-opacity:0.8;"/>
    <path clip-path="url(#p1844713d69)" d="M 202.702814 210.358207 
L 226.26588 215.779264 
L 239.015697 206.428356 
L 215.609497 201.112056 
z
" style="fill:#a30a29;fill-opacity:0.8;"/>
    <path clip-path="url(#p1844713d69)" d="M 226.26411 215.851246 
L 239.01358 206.499904 
L 239.015697 206.428356 
L 226.26588 215.779264 
z
" style="fill:#5d0618;fill-opacity:0.8;"/>
    <path clip-path="url(#p1844713d69)" d="M 202.701728 210.429938 
L 226.26411 215.851246 
L 226.26588 215.779264 
L 202.702814 210.358207 
z
" style="fill:#ba0c2f;fill-opacity:0.8;"/>
   </g>
   <g id="Poly3DCollection_13">
    <path clip-path="url(#p1844713d69)" d="M 142.900893 208.987683 
L 142.900841 208.981782 
L 166.088557 214.386661 
L 166.088554 214.392584 
z
" style="fill:#5d0618;fill-opacity:0.8;"/>
    <path clip-path="url(#p1844713d69)" d="M 129.170292 218.388249 
L 129.170207 218.382312 
L 142.900841 208.981782 
L 142.900893 208.987683 
z
" style="fill:#ba0c2f;fill-opacity:0.8;"/>
    <path clip-path="url(#p1844713d69)" d="M 129.170292 218.388249 
L 142.900893 208.987683 
L 166.088554 214.392584 
L 152.509247 223.900543 
z
" style="fill:#74081d;fill-opacity:0.8;"/>
    <path clip-path="url(#p1844713d69)" d="M 129.170207 218.382312 
L 152.509217 223.894585 
L 166.088557 214.386661 
L 142.900841 208.981782 
z
" style="fill:#a30a29;fill-opacity:0.8;"/>
    <path clip-path="url(#p1844713d69)" d="M 152.509247 223.900543 
L 166.088554 214.392584 
L 166.088557 214.386661 
L 152.509217 223.894585 
z
" style="fill:#5d0618;fill-opacity:0.8;"/>
    <path clip-path="url(#p1844713d69)" d="M 129.170292 218.388249 
L 152.509247 223.900543 
L 152.509217 223.894585 
L 129.170207 218.382312 
z
" style="fill:#ba0c2f;fill-opacity:0.8;"/>
   </g>
   <g id="Poly3DCollection_14">
    <path clip-path="url(#p1844713d69)" d="M 252.869907 174.487546 
L 264.827451 165.920708 
L 287.621931 170.847184 
L 275.81471 179.507415 
z
" style="fill:#74081d;fill-opacity:0.8;"/>
    <path clip-path="url(#p1844713d69)" d="M 264.827451 165.920708 
L 269.853873 37.832394 
L 293.828503 42.279736 
L 287.621931 170.847184 
z
" style="fill:#5d0618;fill-opacity:0.8;"/>
    <path clip-path="url(#p1844713d69)" d="M 252.869907 174.487546 
L 257.339398 45.567601 
L 269.853873 37.832394 
L 264.827451 165.920708 
z
" style="fill:#ba0c2f;fill-opacity:0.8;"/>
    <path clip-path="url(#p1844713d69)" d="M 275.81471 179.507415 
L 287.621931 170.847184 
L 293.828503 42.279736 
L 281.480557 50.103563 
z
" style="fill:#5d0618;fill-opacity:0.8;"/>
    <path clip-path="url(#p1844713d69)" d="M 252.869907 174.487546 
L 275.81471 179.507415 
L 281.480557 50.103563 
L 257.339398 45.567601 
z
" style="fill:#ba0c2f;fill-opacity:0.8;"/>
    <path clip-path="url(#p1844713d69)" d="M 257.339398 45.567601 
L 281.480557 50.103563 
L 293.828503 42.279736 
L 269.853873 37.832394 
z
" style="fill:#a30a29;fill-opacity:0.8;"/>
   </g>
   <g id="Poly3DCollection_15">
    <path clip-path="url(#p1844713d69)" d="M 25.577839 198.296963 
L 203.736683 240.571451 
L 299.720193 169.579861 
L 130.052634 133.065365 
z
" style="fill-opacity:0.15;"/>
   </g>
   <g id="Poly3DCollection_16">
    <path clip-path="url(#p1844713d69)" d="M 38.411953 196.952557 
L 52.706252 187.96387 
L 74.880011 193.132436 
L 60.720637 202.221518 
z
" style="fill:#74081d;fill-opacity:0.8;"/>
    <path clip-path="url(#p1844713d69)" d="M 52.706252 187.96387 
L 46.977282 58.737116 
L 70.257854 63.418439 
L 74.880011 193.132436 
z
" style="fill:#5d0618;fill-opacity:0.8;"/>
    <path clip-path="url(#p1844713d69)" d="M 38.411953 196.952557 
L 31.886738 66.880141 
L 46.977282 58.737116 
L 52.706252 187.96387 
z
" style="fill:#ba0c2f;fill-opacity:0.8;"/>
    <path clip-path="url(#p1844713d69)" d="M 60.720637 202.221518 
L 74.880011 193.132436 
L 70.257854 63.418439 
L 55.315842 71.657127 
z
" style="fill:#5d0618;fill-opacity:0.8;"/>
    <path clip-path="url(#p1844713d69)" d="M 38.411953 196.952557 
L 60.720637 202.221518 
L 55.315842 71.657127 
L 31.886738 66.880141 
z
" style="fill:#ba0c2f;fill-opacity:0.8;"/>
    <path clip-path="url(#p1844713d69)" d="M 31.886738 66.880141 
L 55.315842 71.657127 
L 70.257854 63.418439 
L 46.977282 58.737116 
z
" style="fill:#a30a29;fill-opacity:0.8;"/>
   </g>
   <g id="Poly3DCollection_17">
    <path clip-path="url(#p1844713d69)" d="M 176.116921 229.476304 
L 189.540558 219.859101 
L 213.26145 225.388294 
L 199.997984 235.116635 
z
" style="fill:#74081d;fill-opacity:0.8;"/>
    <path clip-path="url(#p1844713d69)" d="M 189.540558 219.859101 
L 190.855646 87.359613 
L 215.851371 92.383958 
L 213.26145 225.388294 
z
" style="fill:#5d0618;fill-opacity:0.8;"/>
    <path clip-path="url(#p1844713d69)" d="M 176.116921 229.476304 
L 176.725709 96.100676 
L 190.855646 87.359613 
L 189.540558 219.859101 
z
" style="fill:#ba0c2f;fill-opacity:0.8;"/>
    <path clip-path="url(#p1844713d69)" d="M 199.997984 235.116635 
L 213.26145 225.388294 
L 215.851371 92.383958 
L 201.899415 101.231474 
z
" style="fill:#5d0618;fill-opacity:0.8;"/>
    <path clip-path="url(#p1844713d69)" d="M 176.116921 229.476304 
L 199.997984 235.116635 
L 201.899415 101.231474 
L 176.725709 96.100676 
z
" style="fill:#ba0c2f;fill-opacity:0.8;"/>
    <path clip-path="url(#p1844713d69)" d="M 176.725709 96.100676 
L 201.899415 101.231474 
L 215.851371 92.383958 
L 190.855646 87.359613 
z
" style="fill:#a30a29;fill-opacity:0.8;"/>
   </g>
  </g>
  <g id="patch_6">
   <path d="M 425.945455 262.8 
L 806.4 262.8 
L 806.4 -14.4 
L 425.945455 -14.4 
z
" style="fill:#ffffff;"/>
  </g>
  <g id="pane3d_4">
   <g id="patch_7">
    <path d="M 476.380584 201.548569 
L 585.268665 133.58541 
L 583.455794 3.718968 
L 468.496488 64.782468 
" style="fill:#f2f2f2;opacity:0.5;stroke:#f2f2f2;stroke-linejoin:miter;"/>
   </g>
  </g>
  <g id="pane3d_5">
   <g id="patch_8">
    <path d="M 585.268665 133.58541 
L 761.65712 171.581202 
L 769.037001 37.79869 
L 583.455794 3.718968 
" style="fill:#e6e6e6;opacity:0.5;stroke:#e6e6e6;stroke-linejoin:miter;"/>
   </g>
  </g>
  <g id="pane3d_6">
   <g id="patch_9">
    <path d="M 476.380584 201.548569 
L 661.965072 245.80086 
L 761.65712 171.581202 
L 585.268665 133.58541 
" style="fill:#ececec;opacity:0.5;stroke:#ececec;stroke-linejoin:miter;"/>
   </g>
  </g>
  <g id="axis3d_4">
   <g id="line2d_15">
    <path d="M 476.380584 201.548569 
L 661.965072 245.80086 
" style="fill:none;stroke:#000000;stroke-linecap:square;stroke-width:0.8;"/>
   </g>
   <g id="Line3DCollection_4">
    <path d="M 498.841271 206.90428 
L 606.679397 138.19749 
L 605.9393 7.847789 
" style="fill:none;stroke:#b0b0b0;stroke-width:0.8;"/>
    <path d="M 544.057792 217.686079 
L 649.729469 147.470895 
L 651.182353 16.156123 
" style="fill:none;stroke:#b0b0b0;stroke-width:0.8;"/>
    <path d="M 590.310744 228.715013 
L 693.693551 156.941187 
L 697.435637 24.649974 
" style="fill:none;stroke:#b0b0b0;stroke-width:0.8;"/>
    <path d="M 637.636176 239.999678 
L 738.601063 166.614702 
L 744.733372 33.335625 
" style="fill:none;stroke:#b0b0b0;stroke-width:0.8;"/>
   </g>
   <g id="xtick_12">
    <g id="line2d_16">
     <path d="M 499.770538 206.312217 
L 496.979262 208.09062 
" style="fill:none;stroke:#000000;stroke-linecap:square;stroke-width:0.8;"/>
    </g>
    <g id="text_13">
     <!-- 00 -->
     <g transform="translate(479.875817 237.14703)rotate(-45)scale(0.14 -0.14)">
      <use transform="scale(0.996264)" xlink:href="#CMR17-48"/>
      <use transform="translate(45.690477 0)scale(0.996264)" xlink:href="#CMR17-48"/>
     </g>
    </g>
   </g>
   <g id="xtick_13">
    <g id="line2d_17">
     <path d="M 544.969128 217.080527 
L 542.231671 218.899473 
" style="fill:none;stroke:#000000;stroke-linecap:square;stroke-width:0.8;"/>
    </g>
    <g id="text_14">
     <!-- 01 -->
     <g transform="translate(525.088242 248.103782)rotate(-45)scale(0.14 -0.14)">
      <use transform="scale(0.996264)" xlink:href="#CMR17-48"/>
      <use transform="translate(45.690477 0)scale(0.996264)" xlink:href="#CMR17-49"/>
     </g>
    </g>
   </g>
   <g id="xtick_14">
    <g id="line2d_18">
     <path d="M 591.20308 228.095506 
L 588.522658 229.956397 
" style="fill:none;stroke:#000000;stroke-linecap:square;stroke-width:0.8;"/>
    </g>
    <g id="text_15">
     <!-- 10 -->
     <g transform="translate(571.338855 259.312128)rotate(-45)scale(0.14 -0.14)">
      <use transform="scale(0.996264)" xlink:href="#CMR17-49"/>
      <use transform="translate(45.690477 0)scale(0.996264)" xlink:href="#CMR17-48"/>
     </g>
    </g>
   </g>
   <g id="xtick_15">
    <g id="line2d_19">
     <path d="M 638.50838 239.365727 
L 635.888391 241.270032 
" style="fill:none;stroke:#000000;stroke-linecap:square;stroke-width:0.8;"/>
    </g>
    <g id="text_16">
     <!-- 11 -->
     <g transform="translate(618.66383 270.780834)rotate(-45)scale(0.14 -0.14)">
      <use transform="scale(0.996264)" xlink:href="#CMR17-49"/>
      <use transform="translate(45.690477 0)scale(0.996264)" xlink:href="#CMR17-49"/>
     </g>
    </g>
   </g>
  </g>
  <g id="axis3d_5">
   <g id="line2d_20">
    <path d="M 761.65712 171.581202 
L 661.965072 245.80086 
" style="fill:none;stroke:#000000;stroke-linecap:square;stroke-width:0.8;"/>
   </g>
   <g id="Line3DCollection_5">
    <path d="M 484.000685 56.547028 
L 491.016499 192.413474 
L 675.403872 235.795817 
" style="fill:none;stroke:#b0b0b0;stroke-width:0.8;"/>
    <path d="M 513.777478 40.730342 
L 519.168861 174.842005 
L 701.219492 216.576366 
" style="fill:none;stroke:#b0b0b0;stroke-width:0.8;"/>
    <path d="M 542.401344 25.526062 
L 546.284836 157.917404 
L 726.04244 198.095948 
" style="fill:none;stroke:#b0b0b0;stroke-width:0.8;"/>
    <path d="M 569.937971 10.899296 
L 572.420618 141.604597 
L 749.928893 180.312741 
" style="fill:none;stroke:#b0b0b0;stroke-width:0.8;"/>
   </g>
   <g id="xtick_16">
    <g id="line2d_21">
     <path d="M 673.861052 235.432825 
L 678.492943 236.522608 
" style="fill:none;stroke:#000000;stroke-linecap:square;stroke-width:0.8;"/>
    </g>
    <g id="text_17">
     <!-- 00 -->
     <g transform="translate(689.195824 248.348363)rotate(-337.5)scale(0.14 -0.14)">
      <use transform="scale(0.996264)" xlink:href="#CMR17-48"/>
      <use transform="translate(45.690477 0)scale(0.996264)" xlink:href="#CMR17-48"/>
     </g>
    </g>
   </g>
   <g id="xtick_17">
    <g id="line2d_22">
     <path d="M 699.697534 216.227463 
L 704.266725 217.274932 
" style="fill:none;stroke:#000000;stroke-linecap:square;stroke-width:0.8;"/>
    </g>
    <g id="text_18">
     <!-- 01 -->
     <g transform="translate(714.749375 228.903937)rotate(-337.5)scale(0.14 -0.14)">
      <use transform="scale(0.996264)" xlink:href="#CMR17-48"/>
      <use transform="translate(45.690477 0)scale(0.996264)" xlink:href="#CMR17-49"/>
     </g>
    </g>
   </g>
   <g id="xtick_18">
    <g id="line2d_23">
     <path d="M 724.540896 197.76033 
L 729.048738 198.767901 
" style="fill:none;stroke:#000000;stroke-linecap:square;stroke-width:0.8;"/>
    </g>
    <g id="text_19">
     <!-- 10 -->
     <g transform="translate(739.320787 210.206849)rotate(-337.5)scale(0.14 -0.14)">
      <use transform="scale(0.996264)" xlink:href="#CMR17-49"/>
      <use transform="translate(45.690477 0)scale(0.996264)" xlink:href="#CMR17-48"/>
     </g>
    </g>
   </g>
   <g id="xtick_19">
    <g id="line2d_24">
     <path d="M 748.44732 179.989663 
L 752.895146 180.959573 
" style="fill:none;stroke:#000000;stroke-linecap:square;stroke-width:0.8;"/>
    </g>
    <g id="text_20">
     <!-- 11 -->
     <g transform="translate(762.965613 192.214827)rotate(-337.5)scale(0.14 -0.14)">
      <use transform="scale(0.996264)" xlink:href="#CMR17-49"/>
      <use transform="translate(45.690477 0)scale(0.996264)" xlink:href="#CMR17-49"/>
     </g>
    </g>
   </g>
  </g>
  <g id="axis3d_6">
   <g id="line2d_25">
    <path d="M 761.65712 171.581202 
L 769.037001 37.79869 
" style="fill:none;stroke:#000000;stroke-linecap:square;stroke-width:0.8;"/>
   </g>
   <g id="text_21">
    <!-- Im[$\rho$] -->
    <defs>
     <path d="M 19.703125 60.90625 
C 19.703125 65.390625 20.90625 65.390625 28.09375 65.390625 
L 28.09375 68 
C 24.90625 67.796875 19.796875 67.796875 16.40625 67.796875 
C 13 67.796875 7.90625 67.796875 4.703125 68 
L 4.703125 65.390625 
C 11.90625 65.390625 13.09375 65.390625 13.09375 60.90625 
L 13.09375 7.078125 
C 13.09375 2.59375 11.90625 2.59375 4.703125 2.59375 
L 4.703125 0 
C 7.90625 0.1875 13 0.1875 16.40625 0.1875 
C 19.796875 0.1875 24.90625 0.1875 28.09375 0 
L 28.09375 2.59375 
C 20.90625 2.59375 19.703125 2.59375 19.703125 7.078125 
z
" id="CMR17-73"/>
     <path d="M 67.59375 30.53125 
C 67.59375 35.5625 66.703125 44 54.796875 44 
C 48 44 43.296875 39.375 41.5 33.953125 
L 41.40625 33.953125 
C 40.203125 42.1875 34.296875 44 28.703125 44 
C 20.796875 44 16.703125 37.875 15.203125 33.84375 
L 15.09375 33.84375 
L 15.09375 44 
L 3.296875 42.890625 
L 3.296875 40.28125 
C 9.203125 40.28125 10.09375 39.6875 10.09375 34.859375 
L 10.09375 6.921875 
C 10.09375 3.09375 9.703125 2.59375 3.296875 2.59375 
L 3.296875 0 
C 5.703125 0.1875 10.09375 0.1875 12.703125 0.1875 
C 15.296875 0.1875 19.796875 0.1875 22.203125 0 
L 22.203125 2.59375 
C 15.796875 2.59375 15.40625 3 15.40625 6.921875 
L 15.40625 26.21875 
C 15.40625 35.453125 21 42.390625 28 42.390625 
C 35.40625 42.390625 36.203125 35.765625 36.203125 30.9375 
L 36.203125 6.921875 
C 36.203125 3.09375 35.796875 2.59375 29.40625 2.59375 
L 29.40625 0 
C 31.796875 0.1875 36.203125 0.1875 38.796875 0.1875 
C 41.40625 0.1875 45.90625 0.1875 48.296875 0 
L 48.296875 2.59375 
C 41.90625 2.59375 41.5 3 41.5 6.921875 
L 41.5 26.21875 
C 41.5 35.453125 47.09375 42.390625 54.09375 42.390625 
C 61.5 42.390625 62.296875 35.765625 62.296875 30.9375 
L 62.296875 6.921875 
C 62.296875 3.09375 61.90625 2.59375 55.5 2.59375 
L 55.5 0 
C 57.90625 0.1875 62.296875 0.1875 64.90625 0.1875 
C 67.5 0.1875 72 0.1875 74.40625 0 
L 74.40625 2.59375 
C 68 2.59375 67.59375 3 67.59375 6.921875 
z
" id="CMR17-109"/>
    </defs>
    <g transform="translate(809.026865 118.025317)rotate(-86.842577)scale(0.14 -0.14)">
     <use transform="scale(0.996264)" xlink:href="#CMR17-73"/>
     <use transform="translate(32.638409 0)scale(0.996264)" xlink:href="#CMR17-109"/>
     <use transform="translate(109.557999 0)scale(0.996264)" xlink:href="#CMR17-91"/>
     <use transform="translate(134.429058 0)scale(0.996264)" xlink:href="#CMMI12-26"/>
     <use transform="translate(184.74343 0)scale(0.996264)" xlink:href="#CMR17-93"/>
    </g>
   </g>
   <g id="Line3DCollection_6">
    <path d="M 761.842939 168.212677 
L 585.222922 130.308537 
L 476.182402 198.110694 
" style="fill:none;stroke:#b0b0b0;stroke-width:0.8;"/>
    <path d="M 764.568507 118.803557 
L 584.552538 82.285078 
L 473.273523 147.650116 
" style="fill:none;stroke:#b0b0b0;stroke-width:0.8;"/>
    <path d="M 767.401893 67.439943 
L 583.856778 32.443803 
L 470.245654 95.125399 
" style="fill:none;stroke:#b0b0b0;stroke-width:0.8;"/>
   </g>
   <g id="xtick_20">
    <g id="line2d_26">
     <path d="M 760.369277 167.896417 
L 764.793328 168.845855 
" style="fill:none;stroke:#000000;stroke-linecap:square;stroke-width:0.8;"/>
    </g>
    <g id="text_22">
     <!-- $0.0$ -->
     <g transform="translate(771.651316 175.958768)scale(0.14 -0.14)">
      <use transform="scale(0.996264)" xlink:href="#CMR17-48"/>
      <use transform="translate(45.690477 0)scale(0.996264)" xlink:href="#CMMI12-58"/>
      <use transform="translate(72.787654 0)scale(0.996264)" xlink:href="#CMR17-48"/>
     </g>
    </g>
   </g>
   <g id="xtick_21">
    <g id="line2d_27">
     <path d="M 763.065312 118.498615 
L 767.578088 119.414088 
" style="fill:none;stroke:#000000;stroke-linecap:square;stroke-width:0.8;"/>
    </g>
    <g id="text_23">
     <!-- $0.2$ -->
     <g transform="translate(774.729665 126.619133)scale(0.14 -0.14)">
      <use transform="scale(0.996264)" xlink:href="#CMR17-48"/>
      <use transform="translate(45.690477 0)scale(0.996264)" xlink:href="#CMMI12-58"/>
      <use transform="translate(72.787654 0)scale(0.996264)" xlink:href="#CMR17-50"/>
     </g>
    </g>
   </g>
   <g id="xtick_22">
    <g id="line2d_28">
     <path d="M 765.867956 67.14747 
L 770.473084 68.02552 
" style="fill:none;stroke:#000000;stroke-linecap:square;stroke-width:0.8;"/>
    </g>
    <g id="text_24">
     <!-- $0.4$ -->
     <g transform="translate(777.929515 75.332063)scale(0.14 -0.14)">
      <use transform="scale(0.996264)" xlink:href="#CMR17-48"/>
      <use transform="translate(45.690477 0)scale(0.996264)" xlink:href="#CMMI12-58"/>
      <use transform="translate(72.787654 0)scale(0.996264)" xlink:href="#CMR17-52"/>
     </g>
    </g>
   </g>
  </g>
  <g id="axes_2">
   <g id="Poly3DCollection_18">
    <path clip-path="url(#pd0ce272548)" d="M 589.587294 136.670763 
L 589.57757 135.880288 
L 610.977715 140.497254 
L 610.980899 141.29045 
z
" style="fill:#065d4c;fill-opacity:0.8;"/>
    <path clip-path="url(#pd0ce272548)" d="M 576.802562 144.703119 
L 576.788795 143.907922 
L 589.57757 135.880288 
L 589.587294 136.670763 
z
" style="fill:#0cba97;fill-opacity:0.8;"/>
    <path clip-path="url(#pd0ce272548)" d="M 576.802562 144.703119 
L 589.587294 136.670763 
L 610.980899 141.29045 
L 598.324553 149.407624 
z
" style="fill:#08745e;fill-opacity:0.8;"/>
    <path clip-path="url(#pd0ce272548)" d="M 576.788795 143.907922 
L 598.317404 148.609682 
L 610.977715 140.497254 
L 589.57757 135.880288 
z
" style="fill:#0aa384;fill-opacity:0.8;"/>
    <path clip-path="url(#pd0ce272548)" d="M 598.324553 149.407624 
L 610.980899 141.29045 
L 610.977715 140.497254 
L 598.317404 148.609682 
z
" style="fill:#065d4c;fill-opacity:0.8;"/>
    <path clip-path="url(#pd0ce272548)" d="M 576.802562 144.703119 
L 598.324553 149.407624 
L 598.317404 148.609682 
L 576.788795 143.907922 
z
" style="fill:#0cba97;fill-opacity:0.8;"/>
   </g>
   <g id="Poly3DCollection_19">
    <path clip-path="url(#pd0ce272548)" d="M 632.59997 145.958825 
L 632.597058 146.621875 
L 654.439496 151.341998 
L 654.448091 150.676659 
z
" style="fill:#0cba97;fill-opacity:0.8;"/>
    <path clip-path="url(#pd0ce272548)" d="M 620.075452 154.162166 
L 620.075775 154.829187 
L 632.597058 146.621875 
L 632.59997 145.958825 
z
" style="fill:#065d4c;fill-opacity:0.8;"/>
    <path clip-path="url(#pd0ce272548)" d="M 620.075775 154.829187 
L 642.053501 159.636876 
L 654.439496 151.341998 
L 632.597058 146.621875 
z
" style="fill:#0aa384;fill-opacity:0.8;"/>
    <path clip-path="url(#pd0ce272548)" d="M 620.075452 154.162166 
L 632.59997 145.958825 
L 654.448091 150.676659 
L 642.058932 158.967549 
z
" style="fill:#08745e;fill-opacity:0.8;"/>
    <path clip-path="url(#pd0ce272548)" d="M 642.058932 158.967549 
L 654.448091 150.676659 
L 654.439496 151.341998 
L 642.053501 159.636876 
z
" style="fill:#0cba97;fill-opacity:0.8;"/>
    <path clip-path="url(#pd0ce272548)" d="M 620.075452 154.162166 
L 642.058932 158.967549 
L 642.053501 159.636876 
L 620.075775 154.829187 
z
" style="fill:#065d4c;fill-opacity:0.8;"/>
   </g>
   <g id="Poly3DCollection_20">
    <path clip-path="url(#pd0ce272548)" d="M 563.782642 152.883238 
L 563.764334 152.067676 
L 585.422659 156.856533 
L 585.434138 157.674918 
z
" style="fill:#065d4c;fill-opacity:0.8;"/>
    <path clip-path="url(#pd0ce272548)" d="M 550.520985 161.215235 
L 550.498248 160.394775 
L 563.764334 152.067676 
L 563.782642 152.883238 
z
" style="fill:#0cba97;fill-opacity:0.8;"/>
    <path clip-path="url(#pd0ce272548)" d="M 550.520985 161.215235 
L 563.782642 152.883238 
L 585.434138 157.674918 
L 572.3031 166.096536 
z
" style="fill:#08745e;fill-opacity:0.8;"/>
    <path clip-path="url(#pd0ce272548)" d="M 550.498248 160.394775 
L 572.287274 165.27323 
L 585.422659 156.856533 
L 563.764334 152.067676 
z
" style="fill:#0aa384;fill-opacity:0.8;"/>
    <path clip-path="url(#pd0ce272548)" d="M 572.3031 166.096536 
L 585.434138 157.674918 
L 585.422659 156.856533 
L 572.287274 165.27323 
z
" style="fill:#065d4c;fill-opacity:0.8;"/>
    <path clip-path="url(#pd0ce272548)" d="M 550.520985 161.215235 
L 572.3031 166.096536 
L 572.287274 165.27323 
L 550.498248 160.394775 
z
" style="fill:#0cba97;fill-opacity:0.8;"/>
   </g>
   <g id="Poly3DCollection_21">
    <path clip-path="url(#pd0ce272548)" d="M 676.528921 155.444745 
L 676.51445 156.115749 
L 698.82577 160.937214 
L 698.846198 160.263888 
z
" style="fill:#0cba97;fill-opacity:0.8;"/>
    <path clip-path="url(#pd0ce272548)" d="M 664.278743 163.824591 
L 664.267378 164.499623 
L 676.51445 156.115749 
L 676.528921 155.444745 
z
" style="fill:#065d4c;fill-opacity:0.8;"/>
    <path clip-path="url(#pd0ce272548)" d="M 664.267378 164.499623 
L 686.721317 169.411504 
L 698.82577 160.937214 
L 676.51445 156.115749 
z
" style="fill:#0aa384;fill-opacity:0.8;"/>
    <path clip-path="url(#pd0ce272548)" d="M 664.278743 163.824591 
L 676.528921 155.444745 
L 698.846198 160.263888 
L 686.738717 168.73413 
z
" style="fill:#08745e;fill-opacity:0.8;"/>
    <path clip-path="url(#pd0ce272548)" d="M 686.738717 168.73413 
L 698.846198 160.263888 
L 698.82577 160.937214 
L 686.721317 169.411504 
z
" style="fill:#0cba97;fill-opacity:0.8;"/>
    <path clip-path="url(#pd0ce272548)" d="M 664.278743 163.824591 
L 686.738717 168.73413 
L 686.721317 169.411504 
L 664.267378 164.499623 
z
" style="fill:#065d4c;fill-opacity:0.8;"/>
   </g>
   <g id="Poly3DCollection_22">
    <path clip-path="url(#pd0ce272548)" d="M 607.31806 162.518037 
L 607.318517 162.601381 
L 629.437907 167.49706 
L 629.438173 167.413426 
z
" style="fill:#0cba97;fill-opacity:0.8;"/>
    <path clip-path="url(#pd0ce272548)" d="M 594.321239 171.030729 
L 594.322128 171.114575 
L 607.318517 162.601381 
L 607.31806 162.518037 
z
" style="fill:#065d4c;fill-opacity:0.8;"/>
    <path clip-path="url(#pd0ce272548)" d="M 594.322128 171.114575 
L 616.579416 176.102816 
L 629.437907 167.49706 
L 607.318517 162.601381 
z
" style="fill:#0aa384;fill-opacity:0.8;"/>
    <path clip-path="url(#pd0ce272548)" d="M 594.321239 171.030729 
L 607.31806 162.518037 
L 629.438173 167.413426 
L 616.579259 176.018679 
z
" style="fill:#08745e;fill-opacity:0.8;"/>
    <path clip-path="url(#pd0ce272548)" d="M 616.579259 176.018679 
L 629.438173 167.413426 
L 629.437907 167.49706 
L 616.579416 176.102816 
z
" style="fill:#0cba97;fill-opacity:0.8;"/>
    <path clip-path="url(#pd0ce272548)" d="M 594.321239 171.030729 
L 616.579259 176.018679 
L 616.579416 176.102816 
L 594.322128 171.114575 
z
" style="fill:#065d4c;fill-opacity:0.8;"/>
   </g>
   <g id="Poly3DCollection_23">
    <path clip-path="url(#pd0ce272548)" d="M 721.403741 165.134914 
L 721.403741 165.134914 
L 744.205451 170.058665 
L 744.205451 170.058665 
z
" style="fill:#065d4c;fill-opacity:0.8;"/>
    <path clip-path="url(#pd0ce272548)" d="M 709.442768 173.697023 
L 709.442768 173.697023 
L 721.403741 165.134914 
L 721.403741 165.134914 
z
" style="fill:#065d4c;fill-opacity:0.8;"/>
    <path clip-path="url(#pd0ce272548)" d="M 709.442768 173.697023 
L 721.403741 165.134914 
L 744.205451 170.058665 
L 732.394898 178.714142 
z
" style="fill:#08745e;fill-opacity:0.8;"/>
    <path clip-path="url(#pd0ce272548)" d="M 709.442768 173.697023 
L 732.394898 178.714142 
L 744.205451 170.058665 
L 721.403741 165.134914 
z
" style="fill:#0aa384;fill-opacity:0.8;"/>
    <path clip-path="url(#pd0ce272548)" d="M 732.394898 178.714142 
L 744.205451 170.058665 
L 744.205451 170.058665 
L 732.394898 178.714142 
z
" style="fill:#065d4c;fill-opacity:0.8;"/>
    <path clip-path="url(#pd0ce272548)" d="M 709.442768 173.697023 
L 732.394898 178.714142 
L 732.394898 178.714142 
L 709.442768 173.697023 
z
" style="fill:#065d4c;fill-opacity:0.8;"/>
   </g>
   <g id="Poly3DCollection_24">
    <path clip-path="url(#pd0ce272548)" d="M 537.010795 169.70338 
L 536.993445 169.179414 
L 558.911729 174.151052 
L 558.924639 174.67684 
z
" style="fill:#065d4c;fill-opacity:0.8;"/>
    <path clip-path="url(#pd0ce272548)" d="M 523.245019 178.352103 
L 523.224645 177.824977 
L 536.993445 169.179414 
L 537.010795 169.70338 
z
" style="fill:#0cba97;fill-opacity:0.8;"/>
    <path clip-path="url(#pd0ce272548)" d="M 523.245019 178.352103 
L 537.010795 169.70338 
L 558.924639 174.67684 
L 545.291694 183.420357 
z
" style="fill:#08745e;fill-opacity:0.8;"/>
    <path clip-path="url(#pd0ce272548)" d="M 523.224645 177.824977 
L 545.275814 182.891394 
L 558.911729 174.151052 
L 536.993445 169.179414 
z
" style="fill:#0aa384;fill-opacity:0.8;"/>
    <path clip-path="url(#pd0ce272548)" d="M 545.291694 183.420357 
L 558.924639 174.67684 
L 558.911729 174.151052 
L 545.275814 182.891394 
z
" style="fill:#065d4c;fill-opacity:0.8;"/>
    <path clip-path="url(#pd0ce272548)" d="M 523.245019 178.352103 
L 545.291694 183.420357 
L 545.275814 182.891394 
L 523.224645 177.824977 
z
" style="fill:#0cba97;fill-opacity:0.8;"/>
   </g>
   <g id="Poly3DCollection_25">
    <path clip-path="url(#pd0ce272548)" d="M 651.798321 172.361938 
L 651.798321 172.361938 
L 674.402432 177.364441 
L 674.402432 177.364441 
z
" style="fill:#065d4c;fill-opacity:0.8;"/>
    <path clip-path="url(#pd0ce272548)" d="M 639.081101 181.061268 
L 639.081101 181.061268 
L 651.798321 172.361938 
L 651.798321 172.361938 
z
" style="fill:#065d4c;fill-opacity:0.8;"/>
    <path clip-path="url(#pd0ce272548)" d="M 639.081101 181.061268 
L 651.798321 172.361938 
L 674.402432 177.364441 
L 661.830795 186.1594 
z
" style="fill:#08745e;fill-opacity:0.8;"/>
    <path clip-path="url(#pd0ce272548)" d="M 639.081101 181.061268 
L 661.830795 186.1594 
L 674.402432 177.364441 
L 651.798321 172.361938 
z
" style="fill:#0aa384;fill-opacity:0.8;"/>
    <path clip-path="url(#pd0ce272548)" d="M 661.830795 186.1594 
L 674.402432 177.364441 
L 674.402432 177.364441 
L 661.830795 186.1594 
z
" style="fill:#065d4c;fill-opacity:0.8;"/>
    <path clip-path="url(#pd0ce272548)" d="M 639.081101 181.061268 
L 661.830795 186.1594 
L 661.830795 186.1594 
L 639.081101 181.061268 
z
" style="fill:#065d4c;fill-opacity:0.8;"/>
   </g>
   <g id="Poly3DCollection_26">
    <path clip-path="url(#pd0ce272548)" d="M 581.078184 179.704701 
L 581.078184 179.704701 
L 603.475383 184.78786 
L 603.475383 184.78786 
z
" style="fill:#065d4c;fill-opacity:0.8;"/>
    <path clip-path="url(#pd0ce272548)" d="M 567.581829 188.544578 
L 567.581829 188.544578 
L 581.078184 179.704701 
L 581.078184 179.704701 
z
" style="fill:#065d4c;fill-opacity:0.8;"/>
    <path clip-path="url(#pd0ce272548)" d="M 567.581829 188.544578 
L 590.11948 193.725701 
L 603.475383 184.78786 
L 581.078184 179.704701 
z
" style="fill:#0aa384;fill-opacity:0.8;"/>
    <path clip-path="url(#pd0ce272548)" d="M 567.581829 188.544578 
L 581.078184 179.704701 
L 603.475383 184.78786 
L 590.11948 193.725701 
z
" style="fill:#08745e;fill-opacity:0.8;"/>
    <path clip-path="url(#pd0ce272548)" d="M 590.11948 193.725701 
L 603.475383 184.78786 
L 603.475383 184.78786 
L 590.11948 193.725701 
z
" style="fill:#065d4c;fill-opacity:0.8;"/>
    <path clip-path="url(#pd0ce272548)" d="M 567.581829 188.544578 
L 590.11948 193.725701 
L 590.11948 193.725701 
L 567.581829 188.544578 
z
" style="fill:#065d4c;fill-opacity:0.8;"/>
   </g>
   <g id="Poly3DCollection_27">
    <path clip-path="url(#pd0ce272548)" d="M 697.25452 182.421823 
L 697.27503 181.737626 
L 720.385587 186.848411 
L 720.358689 187.534994 
z
" style="fill:#065d4c;fill-opacity:0.8;"/>
    <path clip-path="url(#pd0ce272548)" d="M 684.832456 191.313997 
L 684.849776 190.625661 
L 697.27503 181.737626 
L 697.25452 182.421823 
z
" style="fill:#0cba97;fill-opacity:0.8;"/>
    <path clip-path="url(#pd0ce272548)" d="M 684.832456 191.313997 
L 697.25452 182.421823 
L 720.358689 187.534994 
L 708.090296 196.526003 
z
" style="fill:#08745e;fill-opacity:0.8;"/>
    <path clip-path="url(#pd0ce272548)" d="M 684.849776 190.625661 
L 708.11409 195.835262 
L 720.385587 186.848411 
L 697.27503 181.737626 
z
" style="fill:#0aa384;fill-opacity:0.8;"/>
    <path clip-path="url(#pd0ce272548)" d="M 708.090296 196.526003 
L 720.358689 187.534994 
L 720.385587 186.848411 
L 708.11409 195.835262 
z
" style="fill:#065d4c;fill-opacity:0.8;"/>
    <path clip-path="url(#pd0ce272548)" d="M 684.832456 191.313997 
L 708.090296 196.526003 
L 708.11409 195.835262 
L 684.849776 190.625661 
z
" style="fill:#0cba97;fill-opacity:0.8;"/>
   </g>
   <g id="Poly3DCollection_28">
    <path clip-path="url(#pd0ce272548)" d="M 509.216335 187.166006 
L 509.216335 187.166006 
L 531.396935 192.331789 
L 531.396935 192.331789 
z
" style="fill:#065d4c;fill-opacity:0.8;"/>
    <path clip-path="url(#pd0ce272548)" d="M 494.917139 196.149865 
L 494.917139 196.149865 
L 509.216335 187.166006 
L 509.216335 187.166006 
z
" style="fill:#065d4c;fill-opacity:0.8;"/>
    <path clip-path="url(#pd0ce272548)" d="M 494.917139 196.149865 
L 509.216335 187.166006 
L 531.396935 192.331789 
L 517.232747 201.41602 
z
" style="fill:#08745e;fill-opacity:0.8;"/>
    <path clip-path="url(#pd0ce272548)" d="M 494.917139 196.149865 
L 517.232747 201.41602 
L 531.396935 192.331789 
L 509.216335 187.166006 
z
" style="fill:#0aa384;fill-opacity:0.8;"/>
    <path clip-path="url(#pd0ce272548)" d="M 517.232747 201.41602 
L 531.396935 192.331789 
L 531.396935 192.331789 
L 517.232747 201.41602 
z
" style="fill:#065d4c;fill-opacity:0.8;"/>
    <path clip-path="url(#pd0ce272548)" d="M 494.917139 196.149865 
L 517.232747 201.41602 
L 517.232747 201.41602 
L 494.917139 196.149865 
z
" style="fill:#065d4c;fill-opacity:0.8;"/>
   </g>
   <g id="Poly3DCollection_29">
    <path clip-path="url(#pd0ce272548)" d="M 626.12028 189.927236 
L 626.120442 189.84229 
L 649.017942 195.038523 
L 649.017006 195.123766 
z
" style="fill:#065d4c;fill-opacity:0.8;"/>
    <path clip-path="url(#pd0ce272548)" d="M 612.90879 198.964677 
L 612.908505 198.879215 
L 626.120442 189.84229 
L 626.12028 189.927236 
z
" style="fill:#0cba97;fill-opacity:0.8;"/>
    <path clip-path="url(#pd0ce272548)" d="M 612.90879 198.964677 
L 626.12028 189.927236 
L 649.017006 195.123766 
L 635.954 204.26248 
z
" style="fill:#08745e;fill-opacity:0.8;"/>
    <path clip-path="url(#pd0ce272548)" d="M 612.908505 198.879215 
L 635.9545 204.17672 
L 649.017942 195.038523 
L 626.120442 189.84229 
z
" style="fill:#0aa384;fill-opacity:0.8;"/>
    <path clip-path="url(#pd0ce272548)" d="M 635.954 204.26248 
L 649.017006 195.123766 
L 649.017942 195.038523 
L 635.9545 204.17672 
z
" style="fill:#065d4c;fill-opacity:0.8;"/>
    <path clip-path="url(#pd0ce272548)" d="M 612.90879 198.964677 
L 635.954 204.26248 
L 635.9545 204.17672 
L 612.908505 198.879215 
z
" style="fill:#0cba97;fill-opacity:0.8;"/>
   </g>
   <g id="Poly3DCollection_30">
    <path clip-path="url(#pd0ce272548)" d="M 553.824839 197.555168 
L 553.839146 198.088965 
L 576.513758 203.372775 
L 576.504206 202.837112 
z
" style="fill:#0cba97;fill-opacity:0.8;"/>
    <path clip-path="url(#pd0ce272548)" d="M 539.79959 206.741464 
L 539.817037 207.278498 
L 553.839146 198.088965 
L 553.824839 197.555168 
z
" style="fill:#065d4c;fill-opacity:0.8;"/>
    <path clip-path="url(#pd0ce272548)" d="M 539.817037 207.278498 
L 562.634568 212.666116 
L 576.513758 203.372775 
L 553.839146 198.088965 
z
" style="fill:#0aa384;fill-opacity:0.8;"/>
    <path clip-path="url(#pd0ce272548)" d="M 539.79959 206.741464 
L 553.824839 197.555168 
L 576.504206 202.837112 
L 562.621934 212.127201 
z
" style="fill:#08745e;fill-opacity:0.8;"/>
    <path clip-path="url(#pd0ce272548)" d="M 562.621934 212.127201 
L 576.504206 202.837112 
L 576.513758 203.372775 
L 562.634568 212.666116 
z
" style="fill:#0cba97;fill-opacity:0.8;"/>
    <path clip-path="url(#pd0ce272548)" d="M 539.79959 206.741464 
L 562.621934 212.127201 
L 562.634568 212.666116 
L 539.817037 207.278498 
z
" style="fill:#065d4c;fill-opacity:0.8;"/>
   </g>
   <g id="Poly3DCollection_31">
    <path clip-path="url(#pd0ce272548)" d="M 672.169784 200.378408 
L 672.183715 199.689375 
L 695.603394 205.000699 
L 695.582935 205.692143 
z
" style="fill:#065d4c;fill-opacity:0.8;"/>
    <path clip-path="url(#pd0ce272548)" d="M 659.259444 209.620109 
L 659.269941 208.926892 
L 672.183715 199.689375 
L 672.169784 200.378408 
z
" style="fill:#0cba97;fill-opacity:0.8;"/>
    <path clip-path="url(#pd0ce272548)" d="M 659.259444 209.620109 
L 672.169784 200.378408 
L 695.582935 205.692143 
L 682.829555 215.038581 
z
" style="fill:#08745e;fill-opacity:0.8;"/>
    <path clip-path="url(#pd0ce272548)" d="M 659.269941 208.926892 
L 682.846668 214.342934 
L 695.603394 205.000699 
L 672.183715 199.689375 
z
" style="fill:#0aa384;fill-opacity:0.8;"/>
    <path clip-path="url(#pd0ce272548)" d="M 682.829555 215.038581 
L 695.582935 205.692143 
L 695.603394 205.000699 
L 682.846668 214.342934 
z
" style="fill:#065d4c;fill-opacity:0.8;"/>
    <path clip-path="url(#pd0ce272548)" d="M 659.259444 209.620109 
L 682.829555 215.038581 
L 682.846668 214.342934 
L 659.269941 208.926892 
z
" style="fill:#0cba97;fill-opacity:0.8;"/>
   </g>
   <g id="Poly3DCollection_32">
    <path clip-path="url(#pd0ce272548)" d="M 599.439289 208.178612 
L 599.446674 209.025184 
L 622.633989 214.430216 
L 622.634437 213.58068 
z
" style="fill:#0cba97;fill-opacity:0.8;"/>
    <path clip-path="url(#pd0ce272548)" d="M 585.704144 217.574264 
L 585.716284 218.425978 
L 599.446674 209.025184 
L 599.439289 208.178612 
z
" style="fill:#065d4c;fill-opacity:0.8;"/>
    <path clip-path="url(#pd0ce272548)" d="M 585.716284 218.425978 
L 609.054888 223.938404 
L 622.633989 214.430216 
L 599.446674 209.025184 
z
" style="fill:#0aa384;fill-opacity:0.8;"/>
    <path clip-path="url(#pd0ce272548)" d="M 585.704144 217.574264 
L 599.439289 208.178612 
L 622.634437 213.58068 
L 609.050683 223.083704 
z
" style="fill:#08745e;fill-opacity:0.8;"/>
    <path clip-path="url(#pd0ce272548)" d="M 609.050683 223.083704 
L 622.634437 213.58068 
L 622.633989 214.430216 
L 609.054888 223.938404 
z
" style="fill:#0cba97;fill-opacity:0.8;"/>
    <path clip-path="url(#pd0ce272548)" d="M 585.704144 217.574264 
L 609.050683 223.083704 
L 609.054888 223.938404 
L 585.716284 218.425978 
z
" style="fill:#065d4c;fill-opacity:0.8;"/>
   </g>
   <g id="Poly3DCollection_33">
    <path clip-path="url(#pd0ce272548)" d="M 646.094099 219.044352 
L 646.085799 219.880567 
L 669.806485 225.409835 
L 669.822825 224.570688 
z
" style="fill:#0cba97;fill-opacity:0.8;"/>
    <path clip-path="url(#pd0ce272548)" d="M 632.666117 228.656599 
L 632.662277 229.497901 
L 646.085799 219.880567 
L 646.094099 219.044352 
z
" style="fill:#065d4c;fill-opacity:0.8;"/>
    <path clip-path="url(#pd0ce272548)" d="M 632.662277 229.497901 
L 656.543131 235.138308 
L 669.806485 225.409835 
L 646.085799 219.880567 
z
" style="fill:#0aa384;fill-opacity:0.8;"/>
    <path clip-path="url(#pd0ce272548)" d="M 632.666117 228.656599 
L 646.094099 219.044352 
L 669.822825 224.570688 
L 656.555121 234.294053 
z
" style="fill:#08745e;fill-opacity:0.8;"/>
    <path clip-path="url(#pd0ce272548)" d="M 656.555121 234.294053 
L 669.822825 224.570688 
L 669.806485 225.409835 
L 656.543131 235.138308 
z
" style="fill:#0cba97;fill-opacity:0.8;"/>
    <path clip-path="url(#pd0ce272548)" d="M 632.666117 228.656599 
L 656.555121 234.294053 
L 656.543131 235.138308 
L 632.662277 229.497901 
z
" style="fill:#065d4c;fill-opacity:0.8;"/>
   </g>
   <g id="Poly3DCollection_34">
    <path clip-path="url(#pd0ce272548)" d="M 482.078872 197.493553 
L 660.295132 239.746106 
L 756.307404 168.792041 
L 586.587776 132.298173 
z
" style="fill-opacity:0.2;"/>
   </g>
  </g>
 </g>
 <defs>
  <clipPath id="p1844713d69">
   <rect height="277.2" width="380.454545" x="-30.6" y="-14.4"/>
  </clipPath>
  <clipPath id="pd0ce272548">
   <rect height="277.2" width="380.454545" x="425.945455" y="-14.4"/>
  </clipPath>
 </defs>
</svg>
