<?xml version="1.0" encoding="utf-8" standalone="no"?>
<!DOCTYPE svg PUBLIC "-//W3C//DTD SVG 1.1//EN"
  "http://www.w3.org/Graphics/SVG/1.1/DTD/svg11.dtd">
<!-- Created with matplotlib (https://matplotlib.org/) -->
<svg height="302.4pt" version="1.1" viewBox="0 0 820.8 302.4" width="820.8pt" xmlns="http://www.w3.org/2000/svg" xmlns:xlink="http://www.w3.org/1999/xlink">
 <defs>
  <style type="text/css">
*{stroke-linecap:butt;stroke-linejoin:round;}
  </style>
 </defs>
 <g id="figure_1">
  <g id="patch_1">
   <path d="M 0 302.4 
L 820.8 302.4 
L 820.8 0 
L 0 0 
z
" style="fill:#ffffff;"/>
  </g>
  <g id="patch_2">
   <path d="M -30.6 262.8 
L 349.854545 262.8 
L 349.854545 -14.4 
L -30.6 -14.4 
z
" style="fill:#ffffff;"/>
  </g>
  <g id="pane3d_1">
   <g id="patch_3">
    <path d="M 19.835129 201.548569 
L 128.723211 133.58541 
L 126.910339 3.718968 
L 11.951034 64.782468 
" style="fill:#f2f2f2;opacity:0.5;stroke:#f2f2f2;stroke-linejoin:miter;"/>
   </g>
  </g>
  <g id="pane3d_2">
   <g id="patch_4">
    <path d="M 128.723211 133.58541 
L 305.111665 171.581202 
L 312.491547 37.79869 
L 126.910339 3.718968 
" style="fill:#e6e6e6;opacity:0.5;stroke:#e6e6e6;stroke-linejoin:miter;"/>
   </g>
  </g>
  <g id="pane3d_3">
   <g id="patch_5">
    <path d="M 19.835129 201.548569 
L 205.419617 245.80086 
L 305.111665 171.581202 
L 128.723211 133.58541 
" style="fill:#ececec;opacity:0.5;stroke:#ececec;stroke-linejoin:miter;"/>
   </g>
  </g>
  <g id="axis3d_1">
   <g id="line2d_1">
    <path d="M 19.835129 201.548569 
L 205.419617 245.80086 
" style="fill:none;stroke:#000000;stroke-linecap:square;stroke-width:0.8;"/>
   </g>
   <g id="Line3DCollection_1">
    <path d="M 42.295817 206.90428 
L 150.133942 138.19749 
L 149.393845 7.847789 
" style="fill:none;stroke:#b0b0b0;stroke-width:0.8;"/>
    <path d="M 87.512337 217.686079 
L 193.184014 147.470895 
L 194.636898 16.156123 
" style="fill:none;stroke:#b0b0b0;stroke-width:0.8;"/>
    <path d="M 133.765289 228.715013 
L 237.148096 156.941187 
L 240.890183 24.649974 
" style="fill:none;stroke:#b0b0b0;stroke-width:0.8;"/>
    <path d="M 181.090721 239.999678 
L 282.055608 166.614702 
L 288.187917 33.335625 
" style="fill:none;stroke:#b0b0b0;stroke-width:0.8;"/>
   </g>
   <g id="xtick_1">
    <g id="line2d_2">
     <path d="M 43.225084 206.312217 
L 40.433807 208.09062 
" style="fill:none;stroke:#000000;stroke-linecap:square;stroke-width:0.8;"/>
    </g>
    <g id="text_1">
     <!-- 00 -->
     <defs>
      <path d="M 42 31.84375 
C 42 37.96875 41.90625 48.421875 37.703125 56.453125 
C 34 63.484375 28.09375 66 22.90625 66 
C 18.09375 66 12 63.78125 8.203125 56.5625 
C 4.203125 49.015625 3.796875 39.671875 3.796875 31.84375 
C 3.796875 26.109375 3.90625 17.375 7 9.734375 
C 11.296875 -0.609375 19 -2 22.90625 -2 
C 27.5 -2 34.5 -0.109375 38.59375 9.4375 
C 41.59375 16.375 42 24.5 42 31.84375 
z
M 22.90625 -0.40625 
C 16.5 -0.40625 12.703125 5.125 11.296875 12.75 
C 10.203125 18.6875 10.203125 27.328125 10.203125 32.953125 
C 10.203125 40.6875 10.203125 47.109375 11.5 53.234375 
C 13.40625 61.78125 19 64.390625 22.90625 64.390625 
C 27 64.390625 32.296875 61.671875 34.203125 53.4375 
C 35.5 47.71875 35.59375 40.984375 35.59375 32.953125 
C 35.59375 26.421875 35.59375 18.375 34.40625 12.453125 
C 32.296875 1.5 26.40625 -0.40625 22.90625 -0.40625 
z
" id="CMR17-48"/>
     </defs>
     <g transform="translate(23.330362 237.14703)rotate(-45)scale(0.14 -0.14)">
      <use transform="scale(0.996264)" xlink:href="#CMR17-48"/>
      <use transform="translate(45.690477 0)scale(0.996264)" xlink:href="#CMR17-48"/>
     </g>
    </g>
   </g>
   <g id="xtick_2">
    <g id="line2d_3">
     <path d="M 88.423674 217.080527 
L 85.686217 218.899473 
" style="fill:none;stroke:#000000;stroke-linecap:square;stroke-width:0.8;"/>
    </g>
    <g id="text_2">
     <!-- 01 -->
     <defs>
      <path d="M 26.59375 63.796875 
C 26.59375 65.890625 26.5 66 25.09375 66 
C 21.203125 61.359375 15.296875 59.890625 9.703125 59.6875 
C 9.40625 59.6875 8.90625 59.6875 8.796875 59.5 
C 8.703125 59.296875 8.703125 59.09375 8.703125 57 
C 11.796875 57 17 57.59375 21 59.984375 
L 21 7.296875 
C 21 3.796875 20.796875 2.59375 12.203125 2.59375 
L 9.203125 2.59375 
L 9.203125 0 
C 14 0.09375 19 0.1875 23.796875 0.1875 
C 28.59375 0.1875 33.59375 0.09375 38.40625 0 
L 38.40625 2.59375 
L 35.40625 2.59375 
C 26.796875 2.59375 26.59375 3.6875 26.59375 7.296875 
z
" id="CMR17-49"/>
     </defs>
     <g transform="translate(68.542787 248.103782)rotate(-45)scale(0.14 -0.14)">
      <use transform="scale(0.996264)" xlink:href="#CMR17-48"/>
      <use transform="translate(45.690477 0)scale(0.996264)" xlink:href="#CMR17-49"/>
     </g>
    </g>
   </g>
   <g id="xtick_3">
    <g id="line2d_4">
     <path d="M 134.657625 228.095506 
L 131.977203 229.956397 
" style="fill:none;stroke:#000000;stroke-linecap:square;stroke-width:0.8;"/>
    </g>
    <g id="text_3">
     <!-- 10 -->
     <g transform="translate(114.7934 259.312128)rotate(-45)scale(0.14 -0.14)">
      <use transform="scale(0.996264)" xlink:href="#CMR17-49"/>
      <use transform="translate(45.690477 0)scale(0.996264)" xlink:href="#CMR17-48"/>
     </g>
    </g>
   </g>
   <g id="xtick_4">
    <g id="line2d_5">
     <path d="M 181.962926 239.365727 
L 179.342936 241.270032 
" style="fill:none;stroke:#000000;stroke-linecap:square;stroke-width:0.8;"/>
    </g>
    <g id="text_4">
     <!-- 11 -->
     <g transform="translate(162.118375 270.780834)rotate(-45)scale(0.14 -0.14)">
      <use transform="scale(0.996264)" xlink:href="#CMR17-49"/>
      <use transform="translate(45.690477 0)scale(0.996264)" xlink:href="#CMR17-49"/>
     </g>
    </g>
   </g>
  </g>
  <g id="axis3d_2">
   <g id="line2d_6">
    <path d="M 305.111665 171.581202 
L 205.419617 245.80086 
" style="fill:none;stroke:#000000;stroke-linecap:square;stroke-width:0.8;"/>
   </g>
   <g id="Line3DCollection_2">
    <path d="M 27.455231 56.547028 
L 34.471044 192.413474 
L 218.858418 235.795817 
" style="fill:none;stroke:#b0b0b0;stroke-width:0.8;"/>
    <path d="M 57.232024 40.730342 
L 62.623407 174.842005 
L 244.674037 216.576366 
" style="fill:none;stroke:#b0b0b0;stroke-width:0.8;"/>
    <path d="M 85.85589 25.526062 
L 89.739382 157.917404 
L 269.496985 198.095948 
" style="fill:none;stroke:#b0b0b0;stroke-width:0.8;"/>
    <path d="M 113.392516 10.899296 
L 115.875164 141.604597 
L 293.383438 180.312741 
" style="fill:none;stroke:#b0b0b0;stroke-width:0.8;"/>
   </g>
   <g id="xtick_5">
    <g id="line2d_7">
     <path d="M 217.315598 235.432825 
L 221.947489 236.522608 
" style="fill:none;stroke:#000000;stroke-linecap:square;stroke-width:0.8;"/>
    </g>
    <g id="text_5">
     <!-- 00 -->
     <g transform="translate(232.650369 248.348363)rotate(-337.5)scale(0.14 -0.14)">
      <use transform="scale(0.996264)" xlink:href="#CMR17-48"/>
      <use transform="translate(45.690477 0)scale(0.996264)" xlink:href="#CMR17-48"/>
     </g>
    </g>
   </g>
   <g id="xtick_6">
    <g id="line2d_8">
     <path d="M 243.15208 216.227463 
L 247.72127 217.274932 
" style="fill:none;stroke:#000000;stroke-linecap:square;stroke-width:0.8;"/>
    </g>
    <g id="text_6">
     <!-- 01 -->
     <g transform="translate(258.203921 228.903937)rotate(-337.5)scale(0.14 -0.14)">
      <use transform="scale(0.996264)" xlink:href="#CMR17-48"/>
      <use transform="translate(45.690477 0)scale(0.996264)" xlink:href="#CMR17-49"/>
     </g>
    </g>
   </g>
   <g id="xtick_7">
    <g id="line2d_9">
     <path d="M 267.995442 197.76033 
L 272.503283 198.767901 
" style="fill:none;stroke:#000000;stroke-linecap:square;stroke-width:0.8;"/>
    </g>
    <g id="text_7">
     <!-- 10 -->
     <g transform="translate(282.775332 210.206849)rotate(-337.5)scale(0.14 -0.14)">
      <use transform="scale(0.996264)" xlink:href="#CMR17-49"/>
      <use transform="translate(45.690477 0)scale(0.996264)" xlink:href="#CMR17-48"/>
     </g>
    </g>
   </g>
   <g id="xtick_8">
    <g id="line2d_10">
     <path d="M 291.901865 179.989663 
L 296.349691 180.959573 
" style="fill:none;stroke:#000000;stroke-linecap:square;stroke-width:0.8;"/>
    </g>
    <g id="text_8">
     <!-- 11 -->
     <g transform="translate(306.420159 192.214827)rotate(-337.5)scale(0.14 -0.14)">
      <use transform="scale(0.996264)" xlink:href="#CMR17-49"/>
      <use transform="translate(45.690477 0)scale(0.996264)" xlink:href="#CMR17-49"/>
     </g>
    </g>
   </g>
  </g>
  <g id="axis3d_3">
   <g id="line2d_11">
    <path d="M 305.111665 171.581202 
L 312.491547 37.79869 
" style="fill:none;stroke:#000000;stroke-linecap:square;stroke-width:0.8;"/>
   </g>
   <g id="text_9">
    <!-- Re[$\rho$] -->
    <defs>
     <path d="M 39.203125 33.6875 
C 48.703125 35.59375 56.703125 42.015625 56.703125 50.046875 
C 56.703125 59.46875 46.09375 68 32.09375 68 
L 5.203125 68 
L 5.203125 65.390625 
C 12.09375 65.390625 13.203125 65.390625 13.203125 60.875 
L 13.203125 6.6875 
C 13.203125 2.1875 12.09375 2.1875 5.203125 2.1875 
L 5.203125 -0.40625 
C 8.09375 -0.203125 13.296875 -0.203125 16.40625 -0.203125 
C 19.5 -0.203125 24.703125 -0.203125 27.59375 -0.40625 
L 27.59375 2.1875 
C 20.703125 2.1875 19.59375 2.1875 19.59375 6.6875 
L 19.59375 33 
L 31.296875 33 
C 37 33 40.203125 30.6875 41.59375 29.390625 
C 45.59375 25.5 45.59375 22.796875 45.59375 16 
C 45.59375 9.296875 45.59375 5.890625 48.59375 2.5 
C 52.40625 -1.609375 57.5 -2 59.703125 -2 
C 67.09375 -2 68.203125 6.296875 68.203125 8 
C 68.203125 8.59375 68.203125 9.296875 67.296875 9.296875 
C 66.5 9.296875 66.40625 8.6875 66.40625 8.296875 
C 65.90625 1.796875 63 -0.40625 59.90625 -0.40625 
C 54.40625 -0.40625 53.796875 5.890625 53.203125 12 
C 52.90625 14.09375 52.703125 15.59375 52.5 17.796875 
C 51.90625 22.796875 51.09375 30.09375 39.203125 33.6875 
z
M 31 34.59375 
L 19.59375 34.59375 
L 19.59375 61.484375 
C 19.59375 64.890625 19.796875 65.390625 23.796875 65.390625 
L 31.09375 65.390625 
C 39.40625 65.390625 49.09375 62.484375 49.09375 50.046875 
C 49.09375 37.09375 38.5 34.59375 31 34.59375 
z
" id="CMR17-82"/>
     <path d="M 38.09375 23.484375 
C 38.5 23.890625 38.5 24.09375 38.5 25.09375 
C 38.5 35.171875 33.09375 44 21.703125 44 
C 11.09375 44 2.703125 33.984375 2.703125 21.78125 
C 2.703125 8.65625 12.203125 -1 22.796875 -1 
C 34 -1 38.40625 9.671875 38.40625 11.796875 
C 38.40625 12.5 37.796875 12.5 37.59375 12.5 
C 36.90625 12.5 36.796875 12.296875 36.40625 11.078125 
C 34.203125 4.21875 28.703125 0.796875 23.5 0.796875 
C 19.203125 0.796875 14.90625 3.21875 12.203125 7.65625 
C 9.09375 12.796875 9.09375 18.75 9.09375 23.484375 
z
M 9.203125 25 
C 9.90625 39.234375 17.59375 42.390625 21.59375 42.390625 
C 28.40625 42.390625 33 36.0625 33.09375 25 
z
" id="CMR17-101"/>
     <path d="M 23.5 -25 
L 23.5 -21.5 
L 14.09375 -21.5 
L 14.09375 71.484375 
L 23.5 71.484375 
L 23.5 75 
L 10.59375 75 
L 10.59375 -25 
z
" id="CMR17-91"/>
     <path d="M 3.09375 -16.953125 
C 3 -17.4375 2.796875 -18.03125 2.796875 -18.609375 
C 2.796875 -20.109375 4 -21.109375 5.5 -21.109375 
C 7 -21.109375 8.40625 -20.109375 9 -18.71875 
C 9.40625 -17.828125 12.203125 -6.09375 15.40625 6.078125 
C 17.40625 1.09375 21.09375 -1 25 -1 
C 36.296875 -1 49.09375 12.96875 49.09375 28.03125 
C 49.09375 38.703125 42.59375 44 35.703125 44 
C 26.90625 44 16.203125 34.90625 12.90625 21.640625 
z
M 24.90625 1 
C 18.09375 1 16.40625 8.875 16.40625 10.078125 
C 16.40625 10.671875 18.90625 20.140625 19.203125 21.640625 
C 24.296875 41.5 34.09375 41.984375 35.59375 41.984375 
C 40.09375 41.984375 42.59375 37.90625 42.59375 32.015625 
C 42.59375 26.9375 39.90625 17.046875 38.203125 12.859375 
C 35.203125 5.984375 30 1 24.90625 1 
z
" id="CMMI12-26"/>
     <path d="M 14.296875 75 
L 1.40625 75 
L 1.40625 71.484375 
L 10.796875 71.484375 
L 10.796875 -21.5 
L 1.40625 -21.5 
L 1.40625 -25 
L 14.296875 -25 
z
" id="CMR17-93"/>
    </defs>
    <g transform="translate(352.486567 117.931831)rotate(-86.842577)scale(0.14 -0.14)">
     <use transform="scale(0.996264)" xlink:href="#CMR17-82"/>
     <use transform="translate(67.791102 0)scale(0.996264)" xlink:href="#CMR17-101"/>
     <use transform="translate(108.276762 0)scale(0.996264)" xlink:href="#CMR17-91"/>
     <use transform="translate(133.147821 0)scale(0.996264)" xlink:href="#CMMI12-26"/>
     <use transform="translate(183.462194 0)scale(0.996264)" xlink:href="#CMR17-93"/>
    </g>
   </g>
   <g id="Line3DCollection_3">
    <path d="M 306.852679 140.020099 
L 128.294817 102.897139 
L 17.97761 169.326017 
" style="fill:none;stroke:#b0b0b0;stroke-width:0.8;"/>
    <path d="M 308.506202 110.045027 
L 127.88836 73.780241 
L 16.212039 138.698504 
" style="fill:none;stroke:#b0b0b0;stroke-width:0.8;"/>
    <path d="M 310.198665 79.364062 
L 127.472741 44.007082 
L 14.403479 107.325259 
" style="fill:none;stroke:#b0b0b0;stroke-width:0.8;"/>
    <path d="M 311.931458 47.951972 
L 127.047649 13.555222 
L 12.550342 75.178711 
" style="fill:none;stroke:#b0b0b0;stroke-width:0.8;"/>
   </g>
   <g id="xtick_9">
    <g id="line2d_12">
     <path d="M 305.36217 139.710216 
L 309.836833 140.640518 
" style="fill:none;stroke:#000000;stroke-linecap:square;stroke-width:0.8;"/>
    </g>
    <g id="text_10">
     <!-- $0.1$ -->
     <defs>
      <path d="M 18.40625 4.796875 
C 18.40625 7.6875 16 9.6875 13.59375 9.6875 
C 10.703125 9.6875 8.703125 7.296875 8.703125 4.890625 
C 8.703125 2 11.09375 0 13.5 0 
C 16.40625 0 18.40625 2.390625 18.40625 4.796875 
z
" id="CMMI12-58"/>
     </defs>
     <g transform="translate(316.862382 147.80534)scale(0.14 -0.14)">
      <use transform="scale(0.996264)" xlink:href="#CMR17-48"/>
      <use transform="translate(45.690477 0)scale(0.996264)" xlink:href="#CMMI12-58"/>
      <use transform="translate(72.787654 0)scale(0.996264)" xlink:href="#CMR17-49"/>
     </g>
    </g>
   </g>
   <g id="xtick_10">
    <g id="line2d_13">
     <path d="M 306.997767 109.742161 
L 311.526282 110.651404 
" style="fill:none;stroke:#000000;stroke-linecap:square;stroke-width:0.8;"/>
    </g>
    <g id="text_11">
     <!-- $0.2$ -->
     <defs>
      <path d="M 41.703125 15.46875 
L 39.90625 15.46875 
C 38.90625 8.390625 38.09375 7.1875 37.703125 6.59375 
C 37.203125 5.796875 30 5.796875 28.59375 5.796875 
L 9.40625 5.796875 
C 13 9.6875 20 16.765625 28.5 24.9375 
C 34.59375 30.71875 41.703125 37.5 41.703125 47.390625 
C 41.703125 59.1875 32.296875 66 21.796875 66 
C 10.796875 66 4.09375 56.296875 4.09375 47.296875 
C 4.09375 43.390625 7 42.890625 8.203125 42.890625 
C 9.203125 42.890625 12.203125 43.484375 12.203125 46.984375 
C 12.203125 50.09375 9.59375 51 8.203125 51 
C 7.59375 51 7 50.890625 6.59375 50.6875 
C 8.5 59.1875 14.296875 63.390625 20.40625 63.390625 
C 29.09375 63.390625 34.796875 56.5 34.796875 47.390625 
C 34.796875 38.703125 29.703125 31.21875 24 24.734375 
L 4.09375 2.296875 
L 4.09375 0 
L 39.296875 0 
z
" id="CMR17-50"/>
     </defs>
     <g transform="translate(318.729868 117.873345)scale(0.14 -0.14)">
      <use transform="scale(0.996264)" xlink:href="#CMR17-48"/>
      <use transform="translate(45.690477 0)scale(0.996264)" xlink:href="#CMMI12-58"/>
      <use transform="translate(72.787654 0)scale(0.996264)" xlink:href="#CMR17-50"/>
     </g>
    </g>
   </g>
   <g id="xtick_11">
    <g id="line2d_14">
     <path d="M 308.671868 79.068631 
L 313.255546 79.95556 
" style="fill:none;stroke:#000000;stroke-linecap:square;stroke-width:0.8;"/>
    </g>
    <g id="text_12">
     <!-- $0.3$ -->
     <defs>
      <path d="M 22.09375 34 
C 31 34 34.90625 26.140625 34.90625 17.09375 
C 34.90625 5.03125 28.5 0.390625 22.703125 0.390625 
C 17.40625 0.390625 8.796875 3.015625 6.09375 10.796875 
C 6.59375 10.59375 7.09375 10.59375 7.59375 10.59375 
C 10 10.59375 11.796875 12.1875 11.796875 14.796875 
C 11.796875 17.6875 9.59375 19 7.59375 19 
C 5.90625 19 3.296875 18.1875 3.296875 14.484375 
C 3.296875 5.234375 12.296875 -2 22.90625 -2 
C 34 -2 42.5 6.75 42.5 16.984375 
C 42.5 26.84375 34.5 34 25 35.09375 
C 32.59375 36.671875 39.90625 43.375 39.90625 52.390625 
C 39.90625 60.25 32 66 23 66 
C 13.90625 66 5.90625 60.34375 5.90625 52.296875 
C 5.90625 48.796875 8.5 48.1875 9.796875 48.1875 
C 11.90625 48.1875 13.703125 49.484375 13.703125 52.09375 
C 13.703125 54.6875 11.90625 56 9.796875 56 
C 9.40625 56 8.90625 56 8.5 55.796875 
C 11.40625 62.484375 19.296875 63.6875 22.796875 63.6875 
C 26.296875 63.6875 32.90625 61.96875 32.90625 52.296875 
C 32.90625 49.484375 32.5 44.546875 29.09375 40.21875 
C 26.09375 36.390625 22.703125 36.1875 19.40625 35.890625 
C 18.90625 35.890625 16.59375 35.6875 16.203125 35.6875 
C 15.5 35.59375 15.09375 35.5 15.09375 34.796875 
C 15.09375 34.09375 15.203125 34 17.203125 34 
z
" id="CMR17-51"/>
     </defs>
     <g transform="translate(320.641236 87.238021)scale(0.14 -0.14)">
      <use transform="scale(0.996264)" xlink:href="#CMR17-48"/>
      <use transform="translate(45.690477 0)scale(0.996264)" xlink:href="#CMMI12-58"/>
      <use transform="translate(72.787654 0)scale(0.996264)" xlink:href="#CMR17-51"/>
     </g>
    </g>
   </g>
   <g id="xtick_12">
    <g id="line2d_15">
     <path d="M 310.385848 47.664419 
L 315.026047 48.527706 
" style="fill:none;stroke:#000000;stroke-linecap:square;stroke-width:0.8;"/>
    </g>
    <g id="text_13">
     <!-- $0.4$ -->
     <defs>
      <path d="M 33.59375 64.796875 
C 33.59375 66.890625 33.5 67 31.703125 67 
L 2 19.59375 
L 2 17 
L 27.796875 17 
L 27.796875 7.1875 
C 27.796875 3.59375 27.59375 2.59375 20.59375 2.59375 
L 18.703125 2.59375 
L 18.703125 0 
C 21.90625 0.1875 27.296875 0.1875 30.703125 0.1875 
C 34.09375 0.1875 39.5 0.1875 42.703125 0 
L 42.703125 2.59375 
L 40.796875 2.59375 
C 33.796875 2.59375 33.59375 3.59375 33.59375 7.1875 
L 33.59375 17 
L 43.796875 17 
L 43.796875 19.59375 
L 33.59375 19.59375 
z
M 28.09375 58.171875 
L 28.09375 19.59375 
L 4 19.59375 
z
" id="CMR17-52"/>
     </defs>
     <g transform="translate(322.59805 55.874285)scale(0.14 -0.14)">
      <use transform="scale(0.996264)" xlink:href="#CMR17-48"/>
      <use transform="translate(45.690477 0)scale(0.996264)" xlink:href="#CMMI12-58"/>
      <use transform="translate(72.787654 0)scale(0.996264)" xlink:href="#CMR17-52"/>
     </g>
    </g>
   </g>
  </g>
  <g id="axes_1">
   <g id="Poly3DCollection_1">
    <path clip-path="url(#p0cf733bf1b)" d="M 133.055074 137.74659 
L 133.046011 137.009811 
L 154.43681 141.630665 
L 154.439777 142.369978 
z
" style="fill:#5d0618;fill-opacity:0.8;"/>
    <path clip-path="url(#p0cf733bf1b)" d="M 120.275844 145.785366 
L 120.263012 145.044191 
L 133.046011 137.009811 
L 133.055074 137.74659 
z
" style="fill:#ba0c2f;fill-opacity:0.8;"/>
    <path clip-path="url(#p0cf733bf1b)" d="M 120.275844 145.785366 
L 133.055074 137.74659 
L 154.439777 142.369978 
L 141.788826 150.493603 
z
" style="fill:#74081d;fill-opacity:0.8;"/>
    <path clip-path="url(#p0cf733bf1b)" d="M 120.263012 145.044191 
L 141.782164 149.749872 
L 154.43681 141.630665 
L 133.046011 137.009811 
z
" style="fill:#a30a29;fill-opacity:0.8;"/>
    <path clip-path="url(#p0cf733bf1b)" d="M 141.788826 150.493603 
L 154.439777 142.369978 
L 154.43681 141.630665 
L 141.782164 149.749872 
z
" style="fill:#5d0618;fill-opacity:0.8;"/>
    <path clip-path="url(#p0cf733bf1b)" d="M 120.275844 145.785366 
L 141.788826 150.493603 
L 141.782164 149.749872 
L 120.263012 145.044191 
z
" style="fill:#ba0c2f;fill-opacity:0.8;"/>
   </g>
   <g id="Poly3DCollection_2">
    <path clip-path="url(#p0cf733bf1b)" d="M 176.049758 147.04207 
L 176.055429 145.750747 
L 197.905333 150.467863 
L 197.888595 151.763641 
z
" style="fill:#5d0618;fill-opacity:0.8;"/>
    <path clip-path="url(#p0cf733bf1b)" d="M 163.530524 155.251896 
L 163.529896 153.952842 
L 176.055429 145.750747 
L 176.049758 147.04207 
z
" style="fill:#ba0c2f;fill-opacity:0.8;"/>
    <path clip-path="url(#p0cf733bf1b)" d="M 163.530524 155.251896 
L 176.049758 147.04207 
L 197.888595 151.763641 
L 185.504605 160.061046 
z
" style="fill:#74081d;fill-opacity:0.8;"/>
    <path clip-path="url(#p0cf733bf1b)" d="M 163.529896 153.952842 
L 185.515182 158.7575 
L 197.905333 150.467863 
L 176.055429 145.750747 
z
" style="fill:#a30a29;fill-opacity:0.8;"/>
    <path clip-path="url(#p0cf733bf1b)" d="M 185.504605 160.061046 
L 197.888595 151.763641 
L 197.905333 150.467863 
L 185.515182 158.7575 
z
" style="fill:#5d0618;fill-opacity:0.8;"/>
    <path clip-path="url(#p0cf733bf1b)" d="M 163.530524 155.251896 
L 185.504605 160.061046 
L 185.515182 158.7575 
L 163.529896 153.952842 
z
" style="fill:#ba0c2f;fill-opacity:0.8;"/>
   </g>
   <g id="Poly3DCollection_3">
    <path clip-path="url(#p0cf733bf1b)" d="M 107.261628 153.971961 
L 107.084531 146.082873 
L 128.792968 150.850933 
L 128.904007 158.767404 
z
" style="fill:#5d0618;fill-opacity:0.8;"/>
    <path clip-path="url(#p0cf733bf1b)" d="M 94.005883 162.310488 
L 93.785936 154.373885 
L 107.084531 146.082873 
L 107.261628 153.971961 
z
" style="fill:#ba0c2f;fill-opacity:0.8;"/>
    <path clip-path="url(#p0cf733bf1b)" d="M 94.005883 162.310488 
L 107.261628 153.971961 
L 128.904007 158.767404 
L 115.778772 167.195584 
z
" style="fill:#74081d;fill-opacity:0.8;"/>
    <path clip-path="url(#p0cf733bf1b)" d="M 93.785936 154.373885 
L 115.625678 159.231365 
L 128.792968 150.850933 
L 107.084531 146.082873 
z
" style="fill:#a30a29;fill-opacity:0.8;"/>
    <path clip-path="url(#p0cf733bf1b)" d="M 115.778772 167.195584 
L 128.904007 158.767404 
L 128.792968 150.850933 
L 115.625678 159.231365 
z
" style="fill:#5d0618;fill-opacity:0.8;"/>
    <path clip-path="url(#p0cf733bf1b)" d="M 94.005883 162.310488 
L 115.778772 167.195584 
L 115.625678 159.231365 
L 93.785936 154.373885 
z
" style="fill:#ba0c2f;fill-opacity:0.8;"/>
   </g>
   <g id="Poly3DCollection_4">
    <path clip-path="url(#p0cf733bf1b)" d="M 219.959944 156.535482 
L 220.229297 144.045747 
L 242.647793 148.825157 
L 242.267537 161.358399 
z
" style="fill:#5d0618;fill-opacity:0.8;"/>
    <path clip-path="url(#p0cf733bf1b)" d="M 207.714814 164.921875 
L 207.926368 152.356648 
L 220.229297 144.045747 
L 219.959944 156.535482 
z
" style="fill:#ba0c2f;fill-opacity:0.8;"/>
    <path clip-path="url(#p0cf733bf1b)" d="M 207.714814 164.921875 
L 219.959944 156.535482 
L 242.267537 161.358399 
L 230.164979 169.83522 
z
" style="fill:#74081d;fill-opacity:0.8;"/>
    <path clip-path="url(#p0cf733bf1b)" d="M 207.926368 152.356648 
L 230.48887 157.226114 
L 242.647793 148.825157 
L 220.229297 144.045747 
z
" style="fill:#a30a29;fill-opacity:0.8;"/>
    <path clip-path="url(#p0cf733bf1b)" d="M 230.164979 169.83522 
L 242.267537 161.358399 
L 242.647793 148.825157 
L 230.48887 157.226114 
z
" style="fill:#5d0618;fill-opacity:0.8;"/>
    <path clip-path="url(#p0cf733bf1b)" d="M 207.714814 164.921875 
L 230.164979 169.83522 
L 230.48887 157.226114 
L 207.926368 152.356648 
z
" style="fill:#ba0c2f;fill-opacity:0.8;"/>
   </g>
   <g id="Poly3DCollection_5">
    <path clip-path="url(#p0cf733bf1b)" d="M 150.778615 163.614305 
L 150.777105 163.33873 
L 172.890093 168.236965 
L 172.889212 168.513494 
z
" style="fill:#5d0618;fill-opacity:0.8;"/>
    <path clip-path="url(#p0cf733bf1b)" d="M 137.787483 172.133591 
L 137.784542 171.856359 
L 150.777105 163.33873 
L 150.778615 163.614305 
z
" style="fill:#ba0c2f;fill-opacity:0.8;"/>
    <path clip-path="url(#p0cf733bf1b)" d="M 137.787483 172.133591 
L 150.778615 163.614305 
L 172.889212 168.513494 
L 160.035868 177.125372 
z
" style="fill:#74081d;fill-opacity:0.8;"/>
    <path clip-path="url(#p0cf733bf1b)" d="M 137.784542 171.856359 
L 160.035349 176.847178 
L 172.890093 168.236965 
L 150.777105 163.33873 
z
" style="fill:#a30a29;fill-opacity:0.8;"/>
    <path clip-path="url(#p0cf733bf1b)" d="M 160.035868 177.125372 
L 172.889212 168.513494 
L 172.890093 168.236965 
L 160.035349 176.847178 
z
" style="fill:#5d0618;fill-opacity:0.8;"/>
    <path clip-path="url(#p0cf733bf1b)" d="M 137.787483 172.133591 
L 160.035868 177.125372 
L 160.035349 176.847178 
L 137.784542 171.856359 
z
" style="fill:#ba0c2f;fill-opacity:0.8;"/>
   </g>
   <g id="Poly3DCollection_6">
    <path clip-path="url(#p0cf733bf1b)" d="M 80.501824 170.805218 
L 80.088217 158.313982 
L 102.098566 163.247582 
L 102.406331 175.782504 
z
" style="fill:#5d0618;fill-opacity:0.8;"/>
    <path clip-path="url(#p0cf733bf1b)" d="M 66.742407 179.460581 
L 66.256692 166.893544 
L 80.088217 158.313982 
L 80.501824 170.805218 
z
" style="fill:#ba0c2f;fill-opacity:0.8;"/>
    <path clip-path="url(#p0cf733bf1b)" d="M 66.742407 179.460581 
L 80.501824 170.805218 
L 102.406331 175.782504 
L 88.779633 184.532692 
z
" style="fill:#74081d;fill-opacity:0.8;"/>
    <path clip-path="url(#p0cf733bf1b)" d="M 66.256692 166.893544 
L 88.401035 171.921605 
L 102.098566 163.247582 
L 80.088217 158.313982 
z
" style="fill:#a30a29;fill-opacity:0.8;"/>
    <path clip-path="url(#p0cf733bf1b)" d="M 88.779633 184.532692 
L 102.406331 175.782504 
L 102.098566 163.247582 
L 88.401035 171.921605 
z
" style="fill:#5d0618;fill-opacity:0.8;"/>
    <path clip-path="url(#p0cf733bf1b)" d="M 66.742407 179.460581 
L 88.779633 184.532692 
L 88.401035 171.921605 
L 66.256692 166.893544 
z
" style="fill:#ba0c2f;fill-opacity:0.8;"/>
   </g>
   <g id="Poly3DCollection_7">
    <path clip-path="url(#p0cf733bf1b)" d="M 252.859008 174.801935 
L 264.815188 166.233216 
L 287.606792 171.160777 
L 275.800897 179.822896 
z
" style="fill:#74081d;fill-opacity:0.8;"/>
    <path clip-path="url(#p0cf733bf1b)" d="M 264.815188 166.233216 
L 266.146077 132.318167 
L 289.249829 137.125711 
L 287.606792 171.160777 
z
" style="fill:#5d0618;fill-opacity:0.8;"/>
    <path clip-path="url(#p0cf733bf1b)" d="M 252.859008 174.801935 
L 254.04202 140.678629 
L 266.146077 132.318167 
L 264.815188 166.233216 
z
" style="fill:#ba0c2f;fill-opacity:0.8;"/>
    <path clip-path="url(#p0cf733bf1b)" d="M 275.800897 179.822896 
L 287.606792 171.160777 
L 289.249829 137.125711 
L 277.30026 145.578532 
z
" style="fill:#5d0618;fill-opacity:0.8;"/>
    <path clip-path="url(#p0cf733bf1b)" d="M 252.859008 174.801935 
L 275.800897 179.822896 
L 277.30026 145.578532 
L 254.04202 140.678629 
z
" style="fill:#ba0c2f;fill-opacity:0.8;"/>
    <path clip-path="url(#p0cf733bf1b)" d="M 254.04202 140.678629 
L 277.30026 145.578532 
L 289.249829 137.125711 
L 266.146077 132.318167 
z
" style="fill:#a30a29;fill-opacity:0.8;"/>
   </g>
   <g id="Poly3DCollection_8">
    <path clip-path="url(#p0cf733bf1b)" d="M 240.675744 183.5334 
L 241.057352 170.803334 
L 264.270001 175.875708 
L 263.769536 188.650443 
z
" style="fill:#5d0618;fill-opacity:0.8;"/>
    <path clip-path="url(#p0cf733bf1b)" d="M 228.258864 192.432293 
L 228.581124 179.624725 
L 241.057352 170.803334 
L 240.675744 183.5334 
z
" style="fill:#ba0c2f;fill-opacity:0.8;"/>
    <path clip-path="url(#p0cf733bf1b)" d="M 228.258864 192.432293 
L 240.675744 183.5334 
L 263.769536 188.650443 
L 251.506187 197.648202 
z
" style="fill:#74081d;fill-opacity:0.8;"/>
    <path clip-path="url(#p0cf733bf1b)" d="M 228.581124 179.624725 
L 251.948908 184.795603 
L 264.270001 175.875708 
L 241.057352 170.803334 
z
" style="fill:#a30a29;fill-opacity:0.8;"/>
    <path clip-path="url(#p0cf733bf1b)" d="M 251.506187 197.648202 
L 263.769536 188.650443 
L 264.270001 175.875708 
L 251.948908 184.795603 
z
" style="fill:#5d0618;fill-opacity:0.8;"/>
    <path clip-path="url(#p0cf733bf1b)" d="M 228.258864 192.432293 
L 251.506187 197.648202 
L 251.948908 184.795603 
L 228.581124 179.624725 
z
" style="fill:#ba0c2f;fill-opacity:0.8;"/>
   </g>
   <g id="Poly3DCollection_9">
    <path clip-path="url(#p0cf733bf1b)" d="M 169.572699 191.044489 
L 169.573234 190.763642 
L 192.462326 195.96309 
L 192.459229 196.244917 
z
" style="fill:#5d0618;fill-opacity:0.8;"/>
    <path clip-path="url(#p0cf733bf1b)" d="M 156.36709 200.088692 
L 156.366146 199.806146 
L 169.573234 190.763642 
L 169.572699 191.044489 
z
" style="fill:#ba0c2f;fill-opacity:0.8;"/>
    <path clip-path="url(#p0cf733bf1b)" d="M 156.36709 200.088692 
L 169.572699 191.044489 
L 192.459229 196.244917 
L 179.401971 205.390424 
z
" style="fill:#74081d;fill-opacity:0.8;"/>
    <path clip-path="url(#p0cf733bf1b)" d="M 156.366146 199.806146 
L 179.403624 205.106891 
L 192.462326 195.96309 
L 169.573234 190.763642 
z
" style="fill:#a30a29;fill-opacity:0.8;"/>
    <path clip-path="url(#p0cf733bf1b)" d="M 179.401971 205.390424 
L 192.459229 196.244917 
L 192.462326 195.96309 
L 179.403624 205.106891 
z
" style="fill:#5d0618;fill-opacity:0.8;"/>
    <path clip-path="url(#p0cf733bf1b)" d="M 156.36709 200.088692 
L 179.401971 205.390424 
L 179.403624 205.106891 
L 156.366146 199.806146 
z
" style="fill:#ba0c2f;fill-opacity:0.8;"/>
   </g>
   <g id="Poly3DCollection_10">
    <path clip-path="url(#p0cf733bf1b)" d="M 111.060108 189.660789 
L 124.550332 180.81421 
L 146.937776 185.901232 
L 133.58788 194.845805 
z
" style="fill:#74081d;fill-opacity:0.8;"/>
    <path clip-path="url(#p0cf733bf1b)" d="M 124.550332 180.81421 
L 123.834052 135.667917 
L 146.618436 140.59344 
L 146.937776 185.901232 
z
" style="fill:#5d0618;fill-opacity:0.8;"/>
    <path clip-path="url(#p0cf733bf1b)" d="M 111.060108 189.660789 
L 110.094261 144.234261 
L 123.834052 135.667917 
L 124.550332 180.81421 
z
" style="fill:#ba0c2f;fill-opacity:0.8;"/>
    <path clip-path="url(#p0cf733bf1b)" d="M 133.58788 194.845805 
L 146.937776 185.901232 
L 146.618436 140.59344 
L 133.023985 149.256386 
z
" style="fill:#5d0618;fill-opacity:0.8;"/>
    <path clip-path="url(#p0cf733bf1b)" d="M 111.060108 189.660789 
L 133.58788 194.845805 
L 133.023985 149.256386 
L 110.094261 144.234261 
z
" style="fill:#ba0c2f;fill-opacity:0.8;"/>
    <path clip-path="url(#p0cf733bf1b)" d="M 110.094261 144.234261 
L 133.023985 149.256386 
L 146.618436 140.59344 
L 123.834052 135.667917 
z
" style="fill:#a30a29;fill-opacity:0.8;"/>
   </g>
   <g id="Poly3DCollection_11">
    <path clip-path="url(#p0cf733bf1b)" d="M 215.601583 201.503475 
L 215.628699 200.162291 
L 239.043898 205.47527 
L 239.004075 206.821143 
z
" style="fill:#5d0618;fill-opacity:0.8;"/>
    <path clip-path="url(#p0cf733bf1b)" d="M 202.696852 210.751999 
L 202.717282 209.402679 
L 215.628699 200.162291 
L 215.601583 201.503475 
z
" style="fill:#ba0c2f;fill-opacity:0.8;"/>
    <path clip-path="url(#p0cf733bf1b)" d="M 202.696852 210.751999 
L 215.601583 201.503475 
L 239.004075 206.821143 
L 226.256159 216.174434 
z
" style="fill:#74081d;fill-opacity:0.8;"/>
    <path clip-path="url(#p0cf733bf1b)" d="M 202.717282 209.402679 
L 226.289468 214.820389 
L 239.043898 205.47527 
L 215.628699 200.162291 
z
" style="fill:#a30a29;fill-opacity:0.8;"/>
    <path clip-path="url(#p0cf733bf1b)" d="M 226.256159 216.174434 
L 239.004075 206.821143 
L 239.043898 205.47527 
L 226.289468 214.820389 
z
" style="fill:#5d0618;fill-opacity:0.8;"/>
    <path clip-path="url(#p0cf733bf1b)" d="M 202.696852 210.751999 
L 226.256159 216.174434 
L 226.289468 214.820389 
L 202.717282 209.402679 
z
" style="fill:#ba0c2f;fill-opacity:0.8;"/>
   </g>
   <g id="Poly3DCollection_12">
    <path clip-path="url(#p0cf733bf1b)" d="M 97.309481 198.678134 
L 96.968239 185.945643 
L 119.751001 191.18669 
L 119.978847 203.964002 
z
" style="fill:#5d0618;fill-opacity:0.8;"/>
    <path clip-path="url(#p0cf733bf1b)" d="M 83.29084 207.871237 
L 82.874647 195.060985 
L 96.968239 185.945643 
L 97.309481 198.678134 
z
" style="fill:#ba0c2f;fill-opacity:0.8;"/>
    <path clip-path="url(#p0cf733bf1b)" d="M 83.29084 207.871237 
L 97.309481 198.678134 
L 119.978847 203.964002 
L 106.103058 213.260928 
z
" style="fill:#74081d;fill-opacity:0.8;"/>
    <path clip-path="url(#p0cf733bf1b)" d="M 82.874647 195.060985 
L 105.801686 200.405506 
L 119.751001 191.18669 
L 96.968239 185.945643 
z
" style="fill:#a30a29;fill-opacity:0.8;"/>
    <path clip-path="url(#p0cf733bf1b)" d="M 106.103058 213.260928 
L 119.978847 203.964002 
L 119.751001 191.18669 
L 105.801686 200.405506 
z
" style="fill:#5d0618;fill-opacity:0.8;"/>
    <path clip-path="url(#p0cf733bf1b)" d="M 83.29084 207.871237 
L 106.103058 213.260928 
L 105.801686 200.405506 
L 82.874647 195.060985 
z
" style="fill:#ba0c2f;fill-opacity:0.8;"/>
   </g>
   <g id="Poly3DCollection_13">
    <path clip-path="url(#p0cf733bf1b)" d="M 182.527862 182.171811 
L 195.239635 173.465824 
L 217.83381 178.472163 
L 205.26749 187.27381 
z
" style="fill:#74081d;fill-opacity:0.8;"/>
    <path clip-path="url(#p0cf733bf1b)" d="M 195.239635 173.465824 
L 196.355449 80.371585 
L 219.78798 85.035956 
L 217.83381 178.472163 
z
" style="fill:#5d0618;fill-opacity:0.8;"/>
    <path clip-path="url(#p0cf733bf1b)" d="M 182.527862 182.171811 
L 183.184581 88.484089 
L 196.355449 80.371585 
L 195.239635 173.465824 
z
" style="fill:#ba0c2f;fill-opacity:0.8;"/>
    <path clip-path="url(#p0cf733bf1b)" d="M 205.26749 187.27381 
L 217.83381 178.472163 
L 219.78798 85.035956 
L 206.773645 93.240907 
z
" style="fill:#5d0618;fill-opacity:0.8;"/>
    <path clip-path="url(#p0cf733bf1b)" d="M 182.527862 182.171811 
L 205.26749 187.27381 
L 206.773645 93.240907 
L 183.184581 88.484089 
z
" style="fill:#ba0c2f;fill-opacity:0.8;"/>
    <path clip-path="url(#p0cf733bf1b)" d="M 183.184581 88.484089 
L 206.773645 93.240907 
L 219.78798 85.035956 
L 196.355449 80.371585 
z
" style="fill:#a30a29;fill-opacity:0.8;"/>
   </g>
   <g id="Poly3DCollection_14">
    <path clip-path="url(#p0cf733bf1b)" d="M 142.903699 209.309443 
L 142.832205 201.11389 
L 166.092724 206.491097 
L 166.088384 214.715469 
z
" style="fill:#5d0618;fill-opacity:0.8;"/>
    <path clip-path="url(#p0cf733bf1b)" d="M 129.174906 218.711962 
L 129.05737 210.466412 
L 142.832205 201.11389 
L 142.903699 209.309443 
z
" style="fill:#ba0c2f;fill-opacity:0.8;"/>
    <path clip-path="url(#p0cf733bf1b)" d="M 129.174906 218.711962 
L 142.903699 209.309443 
L 166.088384 214.715469 
L 152.510845 224.22539 
z
" style="fill:#74081d;fill-opacity:0.8;"/>
    <path clip-path="url(#p0cf733bf1b)" d="M 129.05737 210.466412 
L 152.470136 215.950803 
L 166.092724 206.491097 
L 142.832205 201.11389 
z
" style="fill:#a30a29;fill-opacity:0.8;"/>
    <path clip-path="url(#p0cf733bf1b)" d="M 152.510845 224.22539 
L 166.088384 214.715469 
L 166.092724 206.491097 
L 152.470136 215.950803 
z
" style="fill:#5d0618;fill-opacity:0.8;"/>
    <path clip-path="url(#p0cf733bf1b)" d="M 129.174906 218.711962 
L 152.510845 224.22539 
L 152.470136 215.950803 
L 129.05737 210.466412 
z
" style="fill:#ba0c2f;fill-opacity:0.8;"/>
   </g>
   <g id="Poly3DCollection_15">
    <path clip-path="url(#p0cf733bf1b)" d="M 189.537342 220.183117 
L 189.545082 219.403244 
L 213.270358 224.930839 
L 213.255119 225.713445 
z
" style="fill:#5d0618;fill-opacity:0.8;"/>
    <path clip-path="url(#p0cf733bf1b)" d="M 176.115433 229.80229 
L 176.119015 229.017675 
L 189.545082 219.403244 
L 189.537342 220.183117 
z
" style="fill:#ba0c2f;fill-opacity:0.8;"/>
    <path clip-path="url(#p0cf733bf1b)" d="M 176.115433 229.80229 
L 189.537342 220.183117 
L 213.255119 225.713445 
L 199.993338 235.443764 
z
" style="fill:#74081d;fill-opacity:0.8;"/>
    <path clip-path="url(#p0cf733bf1b)" d="M 176.119015 229.017675 
L 200.00452 234.656397 
L 213.270358 224.930839 
L 189.545082 219.403244 
z
" style="fill:#a30a29;fill-opacity:0.8;"/>
    <path clip-path="url(#p0cf733bf1b)" d="M 199.993338 235.443764 
L 213.255119 225.713445 
L 213.270358 224.930839 
L 200.00452 234.656397 
z
" style="fill:#5d0618;fill-opacity:0.8;"/>
    <path clip-path="url(#p0cf733bf1b)" d="M 176.115433 229.80229 
L 199.993338 235.443764 
L 200.00452 234.656397 
L 176.119015 229.017675 
z
" style="fill:#ba0c2f;fill-opacity:0.8;"/>
   </g>
   <g id="Poly3DCollection_16">
    <path clip-path="url(#p0cf733bf1b)" d="M 38.427967 197.271782 
L 52.720319 188.281177 
L 74.891357 193.450848 
L 60.733897 202.541857 
z
" style="fill:#74081d;fill-opacity:0.8;"/>
    <path clip-path="url(#p0cf733bf1b)" d="M 52.720319 188.281177 
L 46.933544 57.750519 
L 70.222556 62.427839 
L 74.891357 193.450848 
z
" style="fill:#5d0618;fill-opacity:0.8;"/>
    <path clip-path="url(#p0cf733bf1b)" d="M 38.427967 197.271782 
L 31.836896 65.886594 
L 46.933544 57.750519 
L 52.720319 188.281177 
z
" style="fill:#ba0c2f;fill-opacity:0.8;"/>
    <path clip-path="url(#p0cf733bf1b)" d="M 60.733897 202.541857 
L 74.891357 193.450848 
L 70.222556 62.427839 
L 55.274545 70.659531 
z
" style="fill:#5d0618;fill-opacity:0.8;"/>
    <path clip-path="url(#p0cf733bf1b)" d="M 38.427967 197.271782 
L 60.733897 202.541857 
L 55.274545 70.659531 
L 31.836896 65.886594 
z
" style="fill:#ba0c2f;fill-opacity:0.8;"/>
    <path clip-path="url(#p0cf733bf1b)" d="M 31.836896 65.886594 
L 55.274545 70.659531 
L 70.222556 62.427839 
L 46.933544 57.750519 
z
" style="fill:#a30a29;fill-opacity:0.8;"/>
   </g>
  </g>
  <g id="patch_6">
   <path d="M 425.945455 262.8 
L 806.4 262.8 
L 806.4 -14.4 
L 425.945455 -14.4 
z
" style="fill:#ffffff;"/>
  </g>
  <g id="pane3d_4">
   <g id="patch_7">
    <path d="M 476.380584 201.548569 
L 585.268665 133.58541 
L 583.455794 3.718968 
L 468.496488 64.782468 
" style="fill:#f2f2f2;opacity:0.5;stroke:#f2f2f2;stroke-linejoin:miter;"/>
   </g>
  </g>
  <g id="pane3d_5">
   <g id="patch_8">
    <path d="M 585.268665 133.58541 
L 761.65712 171.581202 
L 769.037001 37.79869 
L 583.455794 3.718968 
" style="fill:#e6e6e6;opacity:0.5;stroke:#e6e6e6;stroke-linejoin:miter;"/>
   </g>
  </g>
  <g id="pane3d_6">
   <g id="patch_9">
    <path d="M 476.380584 201.548569 
L 661.965072 245.80086 
L 761.65712 171.581202 
L 585.268665 133.58541 
" style="fill:#ececec;opacity:0.5;stroke:#ececec;stroke-linejoin:miter;"/>
   </g>
  </g>
  <g id="axis3d_4">
   <g id="line2d_16">
    <path d="M 476.380584 201.548569 
L 661.965072 245.80086 
" style="fill:none;stroke:#000000;stroke-linecap:square;stroke-width:0.8;"/>
   </g>
   <g id="Line3DCollection_4">
    <path d="M 498.841271 206.90428 
L 606.679397 138.19749 
L 605.9393 7.847789 
" style="fill:none;stroke:#b0b0b0;stroke-width:0.8;"/>
    <path d="M 544.057792 217.686079 
L 649.729469 147.470895 
L 651.182353 16.156123 
" style="fill:none;stroke:#b0b0b0;stroke-width:0.8;"/>
    <path d="M 590.310744 228.715013 
L 693.693551 156.941187 
L 697.435637 24.649974 
" style="fill:none;stroke:#b0b0b0;stroke-width:0.8;"/>
    <path d="M 637.636176 239.999678 
L 738.601063 166.614702 
L 744.733372 33.335625 
" style="fill:none;stroke:#b0b0b0;stroke-width:0.8;"/>
   </g>
   <g id="xtick_13">
    <g id="line2d_17">
     <path d="M 499.770538 206.312217 
L 496.979262 208.09062 
" style="fill:none;stroke:#000000;stroke-linecap:square;stroke-width:0.8;"/>
    </g>
    <g id="text_14">
     <!-- 00 -->
     <g transform="translate(479.875817 237.14703)rotate(-45)scale(0.14 -0.14)">
      <use transform="scale(0.996264)" xlink:href="#CMR17-48"/>
      <use transform="translate(45.690477 0)scale(0.996264)" xlink:href="#CMR17-48"/>
     </g>
    </g>
   </g>
   <g id="xtick_14">
    <g id="line2d_18">
     <path d="M 544.969128 217.080527 
L 542.231671 218.899473 
" style="fill:none;stroke:#000000;stroke-linecap:square;stroke-width:0.8;"/>
    </g>
    <g id="text_15">
     <!-- 01 -->
     <g transform="translate(525.088242 248.103782)rotate(-45)scale(0.14 -0.14)">
      <use transform="scale(0.996264)" xlink:href="#CMR17-48"/>
      <use transform="translate(45.690477 0)scale(0.996264)" xlink:href="#CMR17-49"/>
     </g>
    </g>
   </g>
   <g id="xtick_15">
    <g id="line2d_19">
     <path d="M 591.20308 228.095506 
L 588.522658 229.956397 
" style="fill:none;stroke:#000000;stroke-linecap:square;stroke-width:0.8;"/>
    </g>
    <g id="text_16">
     <!-- 10 -->
     <g transform="translate(571.338855 259.312128)rotate(-45)scale(0.14 -0.14)">
      <use transform="scale(0.996264)" xlink:href="#CMR17-49"/>
      <use transform="translate(45.690477 0)scale(0.996264)" xlink:href="#CMR17-48"/>
     </g>
    </g>
   </g>
   <g id="xtick_16">
    <g id="line2d_20">
     <path d="M 638.50838 239.365727 
L 635.888391 241.270032 
" style="fill:none;stroke:#000000;stroke-linecap:square;stroke-width:0.8;"/>
    </g>
    <g id="text_17">
     <!-- 11 -->
     <g transform="translate(618.66383 270.780834)rotate(-45)scale(0.14 -0.14)">
      <use transform="scale(0.996264)" xlink:href="#CMR17-49"/>
      <use transform="translate(45.690477 0)scale(0.996264)" xlink:href="#CMR17-49"/>
     </g>
    </g>
   </g>
  </g>
  <g id="axis3d_5">
   <g id="line2d_21">
    <path d="M 761.65712 171.581202 
L 661.965072 245.80086 
" style="fill:none;stroke:#000000;stroke-linecap:square;stroke-width:0.8;"/>
   </g>
   <g id="Line3DCollection_5">
    <path d="M 484.000685 56.547028 
L 491.016499 192.413474 
L 675.403872 235.795817 
" style="fill:none;stroke:#b0b0b0;stroke-width:0.8;"/>
    <path d="M 513.777478 40.730342 
L 519.168861 174.842005 
L 701.219492 216.576366 
" style="fill:none;stroke:#b0b0b0;stroke-width:0.8;"/>
    <path d="M 542.401344 25.526062 
L 546.284836 157.917404 
L 726.04244 198.095948 
" style="fill:none;stroke:#b0b0b0;stroke-width:0.8;"/>
    <path d="M 569.937971 10.899296 
L 572.420618 141.604597 
L 749.928893 180.312741 
" style="fill:none;stroke:#b0b0b0;stroke-width:0.8;"/>
   </g>
   <g id="xtick_17">
    <g id="line2d_22">
     <path d="M 673.861052 235.432825 
L 678.492943 236.522608 
" style="fill:none;stroke:#000000;stroke-linecap:square;stroke-width:0.8;"/>
    </g>
    <g id="text_18">
     <!-- 00 -->
     <g transform="translate(689.195824 248.348363)rotate(-337.5)scale(0.14 -0.14)">
      <use transform="scale(0.996264)" xlink:href="#CMR17-48"/>
      <use transform="translate(45.690477 0)scale(0.996264)" xlink:href="#CMR17-48"/>
     </g>
    </g>
   </g>
   <g id="xtick_18">
    <g id="line2d_23">
     <path d="M 699.697534 216.227463 
L 704.266725 217.274932 
" style="fill:none;stroke:#000000;stroke-linecap:square;stroke-width:0.8;"/>
    </g>
    <g id="text_19">
     <!-- 01 -->
     <g transform="translate(714.749375 228.903937)rotate(-337.5)scale(0.14 -0.14)">
      <use transform="scale(0.996264)" xlink:href="#CMR17-48"/>
      <use transform="translate(45.690477 0)scale(0.996264)" xlink:href="#CMR17-49"/>
     </g>
    </g>
   </g>
   <g id="xtick_19">
    <g id="line2d_24">
     <path d="M 724.540896 197.76033 
L 729.048738 198.767901 
" style="fill:none;stroke:#000000;stroke-linecap:square;stroke-width:0.8;"/>
    </g>
    <g id="text_20">
     <!-- 10 -->
     <g transform="translate(739.320787 210.206849)rotate(-337.5)scale(0.14 -0.14)">
      <use transform="scale(0.996264)" xlink:href="#CMR17-49"/>
      <use transform="translate(45.690477 0)scale(0.996264)" xlink:href="#CMR17-48"/>
     </g>
    </g>
   </g>
   <g id="xtick_20">
    <g id="line2d_25">
     <path d="M 748.44732 179.989663 
L 752.895146 180.959573 
" style="fill:none;stroke:#000000;stroke-linecap:square;stroke-width:0.8;"/>
    </g>
    <g id="text_21">
     <!-- 11 -->
     <g transform="translate(762.965613 192.214827)rotate(-337.5)scale(0.14 -0.14)">
      <use transform="scale(0.996264)" xlink:href="#CMR17-49"/>
      <use transform="translate(45.690477 0)scale(0.996264)" xlink:href="#CMR17-49"/>
     </g>
    </g>
   </g>
  </g>
  <g id="axis3d_6">
   <g id="line2d_26">
    <path d="M 761.65712 171.581202 
L 769.037001 37.79869 
" style="fill:none;stroke:#000000;stroke-linecap:square;stroke-width:0.8;"/>
   </g>
   <g id="text_22">
    <!-- Im[$\rho$] -->
    <defs>
     <path d="M 19.703125 60.90625 
C 19.703125 65.390625 20.90625 65.390625 28.09375 65.390625 
L 28.09375 68 
C 24.90625 67.796875 19.796875 67.796875 16.40625 67.796875 
C 13 67.796875 7.90625 67.796875 4.703125 68 
L 4.703125 65.390625 
C 11.90625 65.390625 13.09375 65.390625 13.09375 60.90625 
L 13.09375 7.078125 
C 13.09375 2.59375 11.90625 2.59375 4.703125 2.59375 
L 4.703125 0 
C 7.90625 0.1875 13 0.1875 16.40625 0.1875 
C 19.796875 0.1875 24.90625 0.1875 28.09375 0 
L 28.09375 2.59375 
C 20.90625 2.59375 19.703125 2.59375 19.703125 7.078125 
z
" id="CMR17-73"/>
     <path d="M 67.59375 30.53125 
C 67.59375 35.5625 66.703125 44 54.796875 44 
C 48 44 43.296875 39.375 41.5 33.953125 
L 41.40625 33.953125 
C 40.203125 42.1875 34.296875 44 28.703125 44 
C 20.796875 44 16.703125 37.875 15.203125 33.84375 
L 15.09375 33.84375 
L 15.09375 44 
L 3.296875 42.890625 
L 3.296875 40.28125 
C 9.203125 40.28125 10.09375 39.6875 10.09375 34.859375 
L 10.09375 6.921875 
C 10.09375 3.09375 9.703125 2.59375 3.296875 2.59375 
L 3.296875 0 
C 5.703125 0.1875 10.09375 0.1875 12.703125 0.1875 
C 15.296875 0.1875 19.796875 0.1875 22.203125 0 
L 22.203125 2.59375 
C 15.796875 2.59375 15.40625 3 15.40625 6.921875 
L 15.40625 26.21875 
C 15.40625 35.453125 21 42.390625 28 42.390625 
C 35.40625 42.390625 36.203125 35.765625 36.203125 30.9375 
L 36.203125 6.921875 
C 36.203125 3.09375 35.796875 2.59375 29.40625 2.59375 
L 29.40625 0 
C 31.796875 0.1875 36.203125 0.1875 38.796875 0.1875 
C 41.40625 0.1875 45.90625 0.1875 48.296875 0 
L 48.296875 2.59375 
C 41.90625 2.59375 41.5 3 41.5 6.921875 
L 41.5 26.21875 
C 41.5 35.453125 47.09375 42.390625 54.09375 42.390625 
C 61.5 42.390625 62.296875 35.765625 62.296875 30.9375 
L 62.296875 6.921875 
C 62.296875 3.09375 61.90625 2.59375 55.5 2.59375 
L 55.5 0 
C 57.90625 0.1875 62.296875 0.1875 64.90625 0.1875 
C 67.5 0.1875 72 0.1875 74.40625 0 
L 74.40625 2.59375 
C 68 2.59375 67.59375 3 67.59375 6.921875 
z
" id="CMR17-109"/>
    </defs>
    <g transform="translate(809.026865 118.025317)rotate(-86.842577)scale(0.14 -0.14)">
     <use transform="scale(0.996264)" xlink:href="#CMR17-73"/>
     <use transform="translate(32.638409 0)scale(0.996264)" xlink:href="#CMR17-109"/>
     <use transform="translate(109.557999 0)scale(0.996264)" xlink:href="#CMR17-91"/>
     <use transform="translate(134.429058 0)scale(0.996264)" xlink:href="#CMMI12-26"/>
     <use transform="translate(184.74343 0)scale(0.996264)" xlink:href="#CMR17-93"/>
    </g>
   </g>
   <g id="Line3DCollection_6">
    <path d="M 762.38021 158.473016 
L 585.090688 120.835902 
L 475.609288 188.16884 
" style="fill:none;stroke:#b0b0b0;stroke-width:0.8;"/>
    <path d="M 763.864877 131.558964 
L 584.7255 94.675362 
L 474.02483 160.683108 
" style="fill:none;stroke:#b0b0b0;stroke-width:0.8;"/>
    <path d="M 765.381128 104.072367 
L 584.352874 67.981972 
L 472.405533 132.59302 
" style="fill:none;stroke:#b0b0b0;stroke-width:0.8;"/>
    <path d="M 766.929981 75.994757 
L 583.972579 40.739282 
L 470.750236 103.87842 
" style="fill:none;stroke:#b0b0b0;stroke-width:0.8;"/>
    <path d="M 768.512499 47.306867 
L 583.584378 12.930163 
L 469.057723 74.51825 
" style="fill:none;stroke:#b0b0b0;stroke-width:0.8;"/>
   </g>
   <g id="xtick_21">
    <g id="line2d_27">
     <path d="M 760.90073 158.158934 
L 765.342261 159.101835 
" style="fill:none;stroke:#000000;stroke-linecap:square;stroke-width:0.8;"/>
    </g>
    <g id="text_23">
     <!-- $0.0$ -->
     <g transform="translate(772.258149 166.232483)scale(0.14 -0.14)">
      <use transform="scale(0.996264)" xlink:href="#CMR17-48"/>
      <use transform="translate(45.690477 0)scale(0.996264)" xlink:href="#CMMI12-58"/>
      <use transform="translate(72.787654 0)scale(0.996264)" xlink:href="#CMR17-48"/>
     </g>
    </g>
   </g>
   <g id="xtick_22">
    <g id="line2d_28">
     <path d="M 762.36931 131.251037 
L 766.85917 132.175469 
" style="fill:none;stroke:#000000;stroke-linecap:square;stroke-width:0.8;"/>
    </g>
    <g id="text_24">
     <!-- $0.1$ -->
     <g transform="translate(773.934986 139.356213)scale(0.14 -0.14)">
      <use transform="scale(0.996264)" xlink:href="#CMR17-48"/>
      <use transform="translate(45.690477 0)scale(0.996264)" xlink:href="#CMMI12-58"/>
      <use transform="translate(72.787654 0)scale(0.996264)" xlink:href="#CMR17-49"/>
     </g>
    </g>
   </g>
   <g id="xtick_23">
    <g id="line2d_29">
     <path d="M 763.86912 103.770928 
L 768.40837 104.675888 
" style="fill:none;stroke:#000000;stroke-linecap:square;stroke-width:0.8;"/>
    </g>
    <g id="text_25">
     <!-- $0.2$ -->
     <g transform="translate(775.647416 111.909447)scale(0.14 -0.14)">
      <use transform="scale(0.996264)" xlink:href="#CMR17-48"/>
      <use transform="translate(45.690477 0)scale(0.996264)" xlink:href="#CMMI12-58"/>
      <use transform="translate(72.787654 0)scale(0.996264)" xlink:href="#CMR17-50"/>
     </g>
    </g>
   </g>
   <g id="xtick_24">
    <g id="line2d_30">
     <path d="M 765.401167 75.700158 
L 769.990905 76.58459 
" style="fill:none;stroke:#000000;stroke-linecap:square;stroke-width:0.8;"/>
    </g>
    <g id="text_26">
     <!-- $0.3$ -->
     <g transform="translate(777.396586 83.873824)scale(0.14 -0.14)">
      <use transform="scale(0.996264)" xlink:href="#CMR17-48"/>
      <use transform="translate(45.690477 0)scale(0.996264)" xlink:href="#CMMI12-58"/>
      <use transform="translate(72.787654 0)scale(0.996264)" xlink:href="#CMR17-51"/>
     </g>
    </g>
   </g>
   <g id="xtick_25">
    <g id="line2d_31">
     <path d="M 766.966502 47.019478 
L 771.607863 47.882271 
" style="fill:none;stroke:#000000;stroke-linecap:square;stroke-width:0.8;"/>
    </g>
    <g id="text_27">
     <!-- $0.4$ -->
     <g transform="translate(779.183691 55.23019)scale(0.14 -0.14)">
      <use transform="scale(0.996264)" xlink:href="#CMR17-48"/>
      <use transform="translate(45.690477 0)scale(0.996264)" xlink:href="#CMMI12-58"/>
      <use transform="translate(72.787654 0)scale(0.996264)" xlink:href="#CMR17-52"/>
     </g>
    </g>
   </g>
  </g>
  <g id="axes_2">
   <g id="Poly3DCollection_17">
    <path clip-path="url(#p2ae4e5c6fb)" d="M 589.470203 127.152473 
L 589.46565 126.782335 
L 610.941072 131.367794 
L 610.942562 131.73922 
z
" style="fill:#065d4c;fill-opacity:0.8;"/>
    <path clip-path="url(#p2ae4e5c6fb)" d="M 576.636784 135.12767 
L 576.630338 134.755296 
L 589.46565 126.782335 
L 589.470203 127.152473 
z
" style="fill:#0cba97;fill-opacity:0.8;"/>
    <path clip-path="url(#p2ae4e5c6fb)" d="M 576.636784 135.12767 
L 589.470203 127.152473 
L 610.942562 131.73922 
L 598.238476 139.798946 
z
" style="fill:#08745e;fill-opacity:0.8;"/>
    <path clip-path="url(#p2ae4e5c6fb)" d="M 576.630338 134.755296 
L 598.235129 139.425273 
L 610.941072 131.367794 
L 589.46565 126.782335 
z
" style="fill:#0aa384;fill-opacity:0.8;"/>
    <path clip-path="url(#p2ae4e5c6fb)" d="M 598.238476 139.798946 
L 610.942562 131.73922 
L 610.941072 131.367794 
L 598.235129 139.425273 
z
" style="fill:#065d4c;fill-opacity:0.8;"/>
    <path clip-path="url(#p2ae4e5c6fb)" d="M 576.636784 135.12767 
L 598.238476 139.798946 
L 598.235129 139.425273 
L 576.630338 134.755296 
z
" style="fill:#0cba97;fill-opacity:0.8;"/>
   </g>
   <g id="Poly3DCollection_18">
    <path clip-path="url(#p2ae4e5c6fb)" d="M 632.642062 136.374488 
L 632.64522 135.65557 
L 654.581646 140.337621 
L 654.572327 141.05905 
z
" style="fill:#065d4c;fill-opacity:0.8;"/>
    <path clip-path="url(#p2ae4e5c6fb)" d="M 620.07079 144.520094 
L 620.07044 143.796819 
L 632.64522 135.65557 
L 632.642062 136.374488 
z
" style="fill:#0cba97;fill-opacity:0.8;"/>
    <path clip-path="url(#p2ae4e5c6fb)" d="M 620.07079 144.520094 
L 632.642062 136.374488 
L 654.572327 141.05905 
L 642.137438 149.291916 
z
" style="fill:#08745e;fill-opacity:0.8;"/>
    <path clip-path="url(#p2ae4e5c6fb)" d="M 620.07044 143.796819 
L 642.143327 148.566107 
L 654.581646 140.337621 
L 632.64522 135.65557 
z
" style="fill:#0aa384;fill-opacity:0.8;"/>
    <path clip-path="url(#p2ae4e5c6fb)" d="M 642.137438 149.291916 
L 654.572327 141.05905 
L 654.581646 140.337621 
L 642.143327 148.566107 
z
" style="fill:#065d4c;fill-opacity:0.8;"/>
    <path clip-path="url(#p2ae4e5c6fb)" d="M 620.07079 144.520094 
L 642.137438 149.291916 
L 642.143327 148.566107 
L 620.07044 143.796819 
z
" style="fill:#0cba97;fill-opacity:0.8;"/>
   </g>
   <g id="Poly3DCollection_19">
    <path clip-path="url(#p2ae4e5c6fb)" d="M 563.566395 143.25013 
L 563.329931 132.716413 
L 585.150282 137.437483 
L 585.298551 148.008294 
z
" style="fill:#065d4c;fill-opacity:0.8;"/>
    <path clip-path="url(#p2ae4e5c6fb)" d="M 550.252411 151.52397 
L 549.958706 140.925884 
L 563.329931 132.716413 
L 563.566395 143.25013 
z
" style="fill:#0cba97;fill-opacity:0.8;"/>
    <path clip-path="url(#p2ae4e5c6fb)" d="M 550.252411 151.52397 
L 563.566395 143.25013 
L 585.298551 148.008294 
L 572.116157 156.371468 
z
" style="fill:#08745e;fill-opacity:0.8;"/>
    <path clip-path="url(#p2ae4e5c6fb)" d="M 549.958706 140.925884 
L 571.911713 145.735961 
L 585.150282 137.437483 
L 563.329931 132.716413 
z
" style="fill:#0aa384;fill-opacity:0.8;"/>
    <path clip-path="url(#p2ae4e5c6fb)" d="M 572.116157 156.371468 
L 585.298551 148.008294 
L 585.150282 137.437483 
L 571.911713 145.735961 
z
" style="fill:#065d4c;fill-opacity:0.8;"/>
    <path clip-path="url(#p2ae4e5c6fb)" d="M 550.252411 151.52397 
L 572.116157 156.371468 
L 571.911713 145.735961 
L 549.958706 140.925884 
z
" style="fill:#0cba97;fill-opacity:0.8;"/>
   </g>
   <g id="Poly3DCollection_20">
    <path clip-path="url(#p2ae4e5c6fb)" d="M 676.737055 145.793696 
L 676.87946 139.190516 
L 699.341073 143.952837 
L 699.140029 150.579234 
z
" style="fill:#065d4c;fill-opacity:0.8;"/>
    <path clip-path="url(#p2ae4e5c6fb)" d="M 664.442214 154.115231 
L 664.554066 147.471763 
L 676.87946 139.190516 
L 676.737055 145.793696 
z
" style="fill:#0cba97;fill-opacity:0.8;"/>
    <path clip-path="url(#p2ae4e5c6fb)" d="M 664.442214 154.115231 
L 676.737055 145.793696 
L 699.140029 150.579234 
L 686.988993 158.990879 
z
" style="fill:#08745e;fill-opacity:0.8;"/>
    <path clip-path="url(#p2ae4e5c6fb)" d="M 664.554066 147.471763 
L 687.160246 152.32399 
L 699.341073 143.952837 
L 676.87946 139.190516 
z
" style="fill:#0aa384;fill-opacity:0.8;"/>
    <path clip-path="url(#p2ae4e5c6fb)" d="M 686.988993 158.990879 
L 699.140029 150.579234 
L 699.341073 143.952837 
L 687.160246 152.32399 
z
" style="fill:#065d4c;fill-opacity:0.8;"/>
    <path clip-path="url(#p2ae4e5c6fb)" d="M 664.442214 154.115231 
L 686.988993 158.990879 
L 687.160246 152.32399 
L 664.554066 147.471763 
z
" style="fill:#0cba97;fill-opacity:0.8;"/>
   </g>
   <g id="Poly3DCollection_21">
    <path clip-path="url(#p2ae4e5c6fb)" d="M 607.264886 152.81773 
L 607.252899 150.631008 
L 629.476202 155.484865 
L 629.469207 157.679272 
z
" style="fill:#065d4c;fill-opacity:0.8;"/>
    <path clip-path="url(#p2ae4e5c6fb)" d="M 594.21772 161.271693 
L 594.194383 159.071636 
L 607.252899 150.631008 
L 607.264886 152.81773 
z
" style="fill:#0cba97;fill-opacity:0.8;"/>
    <path clip-path="url(#p2ae4e5c6fb)" d="M 594.21772 161.271693 
L 607.264886 152.81773 
L 629.469207 157.679272 
L 616.561002 166.22551 
z
" style="fill:#08745e;fill-opacity:0.8;"/>
    <path clip-path="url(#p2ae4e5c6fb)" d="M 594.194383 159.071636 
L 616.556886 164.017702 
L 629.476202 155.484865 
L 607.252899 150.631008 
z
" style="fill:#0aa384;fill-opacity:0.8;"/>
    <path clip-path="url(#p2ae4e5c6fb)" d="M 616.561002 166.22551 
L 629.469207 157.679272 
L 629.476202 155.484865 
L 616.556886 164.017702 
z
" style="fill:#065d4c;fill-opacity:0.8;"/>
    <path clip-path="url(#p2ae4e5c6fb)" d="M 594.21772 161.271693 
L 616.561002 166.22551 
L 616.556886 164.017702 
L 594.194383 159.071636 
z
" style="fill:#0cba97;fill-opacity:0.8;"/>
   </g>
   <g id="Poly3DCollection_22">
    <path clip-path="url(#p2ae4e5c6fb)" d="M 721.78511 155.416489 
L 721.78511 155.416489 
L 744.676245 160.306304 
L 744.676245 160.306304 
z
" style="fill:#065d4c;fill-opacity:0.8;"/>
    <path clip-path="url(#p2ae4e5c6fb)" d="M 709.781735 163.919715 
L 709.781735 163.919715 
L 721.78511 155.416489 
L 721.78511 155.416489 
z
" style="fill:#065d4c;fill-opacity:0.8;"/>
    <path clip-path="url(#p2ae4e5c6fb)" d="M 709.781735 163.919715 
L 721.78511 155.416489 
L 744.676245 160.306304 
L 732.824488 168.902615 
z
" style="fill:#08745e;fill-opacity:0.8;"/>
    <path clip-path="url(#p2ae4e5c6fb)" d="M 709.781735 163.919715 
L 732.824488 168.902615 
L 744.676245 160.306304 
L 721.78511 155.416489 
z
" style="fill:#0aa384;fill-opacity:0.8;"/>
    <path clip-path="url(#p2ae4e5c6fb)" d="M 732.824488 168.902615 
L 744.676245 160.306304 
L 744.676245 160.306304 
L 732.824488 168.902615 
z
" style="fill:#065d4c;fill-opacity:0.8;"/>
    <path clip-path="url(#p2ae4e5c6fb)" d="M 709.781735 163.919715 
L 732.824488 168.902615 
L 732.824488 168.902615 
L 709.781735 163.919715 
z
" style="fill:#065d4c;fill-opacity:0.8;"/>
   </g>
   <g id="Poly3DCollection_23">
    <path clip-path="url(#p2ae4e5c6fb)" d="M 651.915401 162.593772 
L 651.915401 162.593772 
L 674.607443 167.562099 
L 674.607443 167.562099 
z
" style="fill:#065d4c;fill-opacity:0.8;"/>
    <path clip-path="url(#p2ae4e5c6fb)" d="M 639.149988 171.233804 
L 639.149988 171.233804 
L 651.915401 162.593772 
L 651.915401 162.593772 
z
" style="fill:#065d4c;fill-opacity:0.8;"/>
    <path clip-path="url(#p2ae4e5c6fb)" d="M 639.149988 171.233804 
L 661.988756 176.297478 
L 674.607443 167.562099 
L 651.915401 162.593772 
z
" style="fill:#0aa384;fill-opacity:0.8;"/>
    <path clip-path="url(#p2ae4e5c6fb)" d="M 639.149988 171.233804 
L 651.915401 162.593772 
L 674.607443 167.562099 
L 661.988756 176.297478 
z
" style="fill:#08745e;fill-opacity:0.8;"/>
    <path clip-path="url(#p2ae4e5c6fb)" d="M 661.988756 176.297478 
L 674.607443 167.562099 
L 674.607443 167.562099 
L 661.988756 176.297478 
z
" style="fill:#065d4c;fill-opacity:0.8;"/>
    <path clip-path="url(#p2ae4e5c6fb)" d="M 639.149988 171.233804 
L 661.988756 176.297478 
L 661.988756 176.297478 
L 639.149988 171.233804 
z
" style="fill:#065d4c;fill-opacity:0.8;"/>
   </g>
   <g id="Poly3DCollection_24">
    <path clip-path="url(#p2ae4e5c6fb)" d="M 536.687957 159.953462 
L 536.423067 151.953589 
L 558.487303 156.864686 
L 558.684416 164.892833 
z
" style="fill:#065d4c;fill-opacity:0.8;"/>
    <path clip-path="url(#p2ae4e5c6fb)" d="M 522.8659 168.543039 
L 522.554809 160.494105 
L 536.423067 151.953589 
L 536.687957 159.953462 
z
" style="fill:#0cba97;fill-opacity:0.8;"/>
    <path clip-path="url(#p2ae4e5c6fb)" d="M 522.8659 168.543039 
L 536.687957 159.953462 
L 558.684416 164.892833 
L 544.996184 173.576921 
z
" style="fill:#08745e;fill-opacity:0.8;"/>
    <path clip-path="url(#p2ae4e5c6fb)" d="M 522.554809 160.494105 
L 544.753691 165.499472 
L 558.487303 156.864686 
L 536.423067 151.953589 
z
" style="fill:#0aa384;fill-opacity:0.8;"/>
    <path clip-path="url(#p2ae4e5c6fb)" d="M 544.996184 173.576921 
L 558.684416 164.892833 
L 558.487303 156.864686 
L 544.753691 165.499472 
z
" style="fill:#065d4c;fill-opacity:0.8;"/>
    <path clip-path="url(#p2ae4e5c6fb)" d="M 522.8659 168.543039 
L 544.996184 173.576921 
L 544.753691 165.499472 
L 522.554809 160.494105 
z
" style="fill:#0cba97;fill-opacity:0.8;"/>
   </g>
   <g id="Poly3DCollection_25">
    <path clip-path="url(#p2ae4e5c6fb)" d="M 580.922409 169.886442 
L 580.922409 169.886442 
L 603.405939 174.935187 
L 603.405939 174.935187 
z
" style="fill:#065d4c;fill-opacity:0.8;"/>
    <path clip-path="url(#p2ae4e5c6fb)" d="M 567.371807 178.666609 
L 567.371807 178.666609 
L 580.922409 169.886442 
L 580.922409 169.886442 
z
" style="fill:#065d4c;fill-opacity:0.8;"/>
    <path clip-path="url(#p2ae4e5c6fb)" d="M 567.371807 178.666609 
L 589.99687 183.813036 
L 603.405939 174.935187 
L 580.922409 169.886442 
z
" style="fill:#0aa384;fill-opacity:0.8;"/>
    <path clip-path="url(#p2ae4e5c6fb)" d="M 567.371807 178.666609 
L 580.922409 169.886442 
L 603.405939 174.935187 
L 589.99687 183.813036 
z
" style="fill:#08745e;fill-opacity:0.8;"/>
    <path clip-path="url(#p2ae4e5c6fb)" d="M 589.99687 183.813036 
L 603.405939 174.935187 
L 603.405939 174.935187 
L 589.99687 183.813036 
z
" style="fill:#065d4c;fill-opacity:0.8;"/>
    <path clip-path="url(#p2ae4e5c6fb)" d="M 567.371807 178.666609 
L 589.99687 183.813036 
L 589.99687 183.813036 
L 567.371807 178.666609 
z
" style="fill:#065d4c;fill-opacity:0.8;"/>
   </g>
   <g id="Poly3DCollection_26">
    <path clip-path="url(#p2ae4e5c6fb)" d="M 697.549393 172.585142 
L 697.348667 179.281164 
L 720.482158 184.383364 
L 720.745404 177.663811 
z
" style="fill:#0cba97;fill-opacity:0.8;"/>
    <path clip-path="url(#p2ae4e5c6fb)" d="M 685.081471 181.417455 
L 684.91196 188.154305 
L 697.348667 179.281164 
L 697.549393 172.585142 
z
" style="fill:#065d4c;fill-opacity:0.8;"/>
    <path clip-path="url(#p2ae4e5c6fb)" d="M 684.91196 188.154305 
L 708.199516 193.355254 
L 720.482158 184.383364 
L 697.348667 179.281164 
z
" style="fill:#0aa384;fill-opacity:0.8;"/>
    <path clip-path="url(#p2ae4e5c6fb)" d="M 685.081471 181.417455 
L 697.549393 172.585142 
L 720.745404 177.663811 
L 708.432391 186.59468 
z
" style="fill:#08745e;fill-opacity:0.8;"/>
    <path clip-path="url(#p2ae4e5c6fb)" d="M 708.432391 186.59468 
L 720.745404 177.663811 
L 720.482158 184.383364 
L 708.199516 193.355254 
z
" style="fill:#0cba97;fill-opacity:0.8;"/>
    <path clip-path="url(#p2ae4e5c6fb)" d="M 685.081471 181.417455 
L 708.432391 186.59468 
L 708.199516 193.355254 
L 684.91196 188.154305 
z
" style="fill:#065d4c;fill-opacity:0.8;"/>
   </g>
   <g id="Poly3DCollection_27">
    <path clip-path="url(#p2ae4e5c6fb)" d="M 508.778829 177.297305 
L 508.778829 177.297305 
L 531.044045 182.428437 
L 531.044045 182.428437 
z
" style="fill:#065d4c;fill-opacity:0.8;"/>
    <path clip-path="url(#p2ae4e5c6fb)" d="M 494.41905 186.221044 
L 494.41905 186.221044 
L 508.778829 177.297305 
L 508.778829 177.297305 
z
" style="fill:#065d4c;fill-opacity:0.8;"/>
    <path clip-path="url(#p2ae4e5c6fb)" d="M 494.41905 186.221044 
L 508.778829 177.297305 
L 531.044045 182.428437 
L 516.820291 191.45227 
z
" style="fill:#08745e;fill-opacity:0.8;"/>
    <path clip-path="url(#p2ae4e5c6fb)" d="M 494.41905 186.221044 
L 516.820291 191.45227 
L 531.044045 182.428437 
L 508.778829 177.297305 
z
" style="fill:#0aa384;fill-opacity:0.8;"/>
    <path clip-path="url(#p2ae4e5c6fb)" d="M 516.820291 191.45227 
L 531.044045 182.428437 
L 531.044045 182.428437 
L 516.820291 191.45227 
z
" style="fill:#065d4c;fill-opacity:0.8;"/>
    <path clip-path="url(#p2ae4e5c6fb)" d="M 494.41905 186.221044 
L 516.820291 191.45227 
L 516.820291 191.45227 
L 494.41905 186.221044 
z
" style="fill:#065d4c;fill-opacity:0.8;"/>
   </g>
   <g id="Poly3DCollection_28">
    <path clip-path="url(#p2ae4e5c6fb)" d="M 626.139094 180.039986 
L 626.13486 182.265251 
L 649.101511 187.434899 
L 649.126055 185.201778 
z
" style="fill:#0cba97;fill-opacity:0.8;"/>
    <path clip-path="url(#p2ae4e5c6fb)" d="M 612.875569 189.017157 
L 612.883046 191.256052 
L 626.13486 182.265251 
L 626.139094 180.039986 
z
" style="fill:#065d4c;fill-opacity:0.8;"/>
    <path clip-path="url(#p2ae4e5c6fb)" d="M 612.883046 191.256052 
L 635.999094 196.526761 
L 649.101511 187.434899 
L 626.13486 182.265251 
z
" style="fill:#0aa384;fill-opacity:0.8;"/>
    <path clip-path="url(#p2ae4e5c6fb)" d="M 612.875569 189.017157 
L 626.139094 180.039986 
L 649.126055 185.201778 
L 636.012191 194.279947 
z
" style="fill:#08745e;fill-opacity:0.8;"/>
    <path clip-path="url(#p2ae4e5c6fb)" d="M 636.012191 194.279947 
L 649.126055 185.201778 
L 649.101511 187.434899 
L 635.999094 196.526761 
z
" style="fill:#0cba97;fill-opacity:0.8;"/>
    <path clip-path="url(#p2ae4e5c6fb)" d="M 612.875569 189.017157 
L 636.012191 194.279947 
L 635.999094 196.526761 
L 612.883046 191.256052 
z
" style="fill:#065d4c;fill-opacity:0.8;"/>
   </g>
   <g id="Poly3DCollection_29">
    <path clip-path="url(#p2ae4e5c6fb)" d="M 553.558487 187.617004 
L 553.775676 195.720778 
L 576.471381 200.9963 
L 576.326365 192.863976 
z
" style="fill:#0cba97;fill-opacity:0.8;"/>
    <path clip-path="url(#p2ae4e5c6fb)" d="M 539.474737 196.742626 
L 539.73963 204.895932 
L 553.775676 195.720778 
L 553.558487 187.617004 
z
" style="fill:#065d4c;fill-opacity:0.8;"/>
    <path clip-path="url(#p2ae4e5c6fb)" d="M 539.73963 204.895932 
L 562.578517 210.275198 
L 576.471381 200.9963 
L 553.775676 195.720778 
z
" style="fill:#0aa384;fill-opacity:0.8;"/>
    <path clip-path="url(#p2ae4e5c6fb)" d="M 539.474737 196.742626 
L 553.558487 187.617004 
L 576.326365 192.863976 
L 562.386704 202.093119 
z
" style="fill:#08745e;fill-opacity:0.8;"/>
    <path clip-path="url(#p2ae4e5c6fb)" d="M 562.386704 202.093119 
L 576.326365 192.863976 
L 576.471381 200.9963 
L 562.578517 210.275198 
z
" style="fill:#0cba97;fill-opacity:0.8;"/>
    <path clip-path="url(#p2ae4e5c6fb)" d="M 539.474737 196.742626 
L 562.386704 202.093119 
L 562.578517 210.275198 
L 539.73963 204.895932 
z
" style="fill:#065d4c;fill-opacity:0.8;"/>
   </g>
   <g id="Poly3DCollection_30">
    <path clip-path="url(#p2ae4e5c6fb)" d="M 672.371095 190.421522 
L 672.356 191.168126 
L 695.856416 196.449449 
L 695.878586 195.700201 
z
" style="fill:#0cba97;fill-opacity:0.8;"/>
    <path clip-path="url(#p2ae4e5c6fb)" d="M 659.411125 199.602403 
L 659.399751 200.353594 
L 672.356 191.168126 
L 672.371095 190.421522 
z
" style="fill:#065d4c;fill-opacity:0.8;"/>
    <path clip-path="url(#p2ae4e5c6fb)" d="M 659.399751 200.353594 
L 683.05831 205.739403 
L 695.856416 196.449449 
L 672.356 191.168126 
z
" style="fill:#0aa384;fill-opacity:0.8;"/>
    <path clip-path="url(#p2ae4e5c6fb)" d="M 659.411125 199.602403 
L 672.371095 190.421522 
L 695.878586 195.700201 
L 683.076855 204.985546 
z
" style="fill:#08745e;fill-opacity:0.8;"/>
    <path clip-path="url(#p2ae4e5c6fb)" d="M 683.076855 204.985546 
L 695.878586 195.700201 
L 695.856416 196.449449 
L 683.05831 205.739403 
z
" style="fill:#0cba97;fill-opacity:0.8;"/>
    <path clip-path="url(#p2ae4e5c6fb)" d="M 659.411125 199.602403 
L 683.076855 204.985546 
L 683.05831 205.739403 
L 659.399751 200.353594 
z
" style="fill:#065d4c;fill-opacity:0.8;"/>
   </g>
   <g id="Poly3DCollection_31">
    <path clip-path="url(#p2ae4e5c6fb)" d="M 599.351981 198.170346 
L 599.446674 209.025184 
L 622.633989 214.430216 
L 622.639737 203.537127 
z
" style="fill:#0cba97;fill-opacity:0.8;"/>
    <path clip-path="url(#p2ae4e5c6fb)" d="M 585.560608 207.50478 
L 585.716284 218.425978 
L 599.446674 209.025184 
L 599.351981 198.170346 
z
" style="fill:#065d4c;fill-opacity:0.8;"/>
    <path clip-path="url(#p2ae4e5c6fb)" d="M 585.716284 218.425978 
L 609.054888 223.938404 
L 622.633989 214.430216 
L 599.446674 209.025184 
z
" style="fill:#0aa384;fill-opacity:0.8;"/>
    <path clip-path="url(#p2ae4e5c6fb)" d="M 585.560608 207.50478 
L 599.351981 198.170346 
L 622.639737 203.537127 
L 609.000968 212.978666 
z
" style="fill:#08745e;fill-opacity:0.8;"/>
    <path clip-path="url(#p2ae4e5c6fb)" d="M 609.000968 212.978666 
L 622.639737 203.537127 
L 622.633989 214.430216 
L 609.054888 223.938404 
z
" style="fill:#0cba97;fill-opacity:0.8;"/>
    <path clip-path="url(#p2ae4e5c6fb)" d="M 585.560608 207.50478 
L 609.000968 212.978666 
L 609.054888 223.938404 
L 585.716284 218.425978 
z
" style="fill:#065d4c;fill-opacity:0.8;"/>
   </g>
   <g id="Poly3DCollection_32">
    <path clip-path="url(#p2ae4e5c6fb)" d="M 646.194135 208.965357 
L 646.190245 209.357316 
L 670.012122 214.84945 
L 670.019781 214.456097 
z
" style="fill:#0cba97;fill-opacity:0.8;"/>
    <path clip-path="url(#p2ae4e5c6fb)" d="M 632.712405 218.515854 
L 632.710604 218.91023 
L 646.190245 209.357316 
L 646.194135 208.965357 
z
" style="fill:#065d4c;fill-opacity:0.8;"/>
    <path clip-path="url(#p2ae4e5c6fb)" d="M 632.710604 218.91023 
L 656.694028 224.51323 
L 670.012122 214.84945 
L 646.190245 209.357316 
z
" style="fill:#0aa384;fill-opacity:0.8;"/>
    <path clip-path="url(#p2ae4e5c6fb)" d="M 632.712405 218.515854 
L 646.194135 208.965357 
L 670.019781 214.456097 
L 656.699648 224.11745 
z
" style="fill:#08745e;fill-opacity:0.8;"/>
    <path clip-path="url(#p2ae4e5c6fb)" d="M 656.699648 224.11745 
L 670.019781 214.456097 
L 670.012122 214.84945 
L 656.694028 224.51323 
z
" style="fill:#0cba97;fill-opacity:0.8;"/>
    <path clip-path="url(#p2ae4e5c6fb)" d="M 632.712405 218.515854 
L 656.699648 224.11745 
L 656.694028 224.51323 
L 632.710604 218.91023 
z
" style="fill:#065d4c;fill-opacity:0.8;"/>
   </g>
   <g id="Poly3DCollection_33">
    <path clip-path="url(#p2ae4e5c6fb)" d="M 481.529404 187.555798 
L 660.455891 229.535076 
L 756.823841 159.048391 
L 586.460253 122.811224 
z
" style="fill-opacity:0.2;"/>
   </g>
  </g>
 </g>
 <defs>
  <clipPath id="p0cf733bf1b">
   <rect height="277.2" width="380.454545" x="-30.6" y="-14.4"/>
  </clipPath>
  <clipPath id="p2ae4e5c6fb">
   <rect height="277.2" width="380.454545" x="425.945455" y="-14.4"/>
  </clipPath>
 </defs>
</svg>
