<?xml version="1.0" encoding="utf-8" standalone="no"?>
<!DOCTYPE svg PUBLIC "-//W3C//DTD SVG 1.1//EN"
  "http://www.w3.org/Graphics/SVG/1.1/DTD/svg11.dtd">
<!-- Created with matplotlib (https://matplotlib.org/) -->
<svg height="302.4pt" version="1.1" viewBox="0 0 820.8 302.4" width="820.8pt" xmlns="http://www.w3.org/2000/svg" xmlns:xlink="http://www.w3.org/1999/xlink">
 <defs>
  <style type="text/css">
*{stroke-linecap:butt;stroke-linejoin:round;}
  </style>
 </defs>
 <g id="figure_1">
  <g id="patch_1">
   <path d="M 0 302.4 
L 820.8 302.4 
L 820.8 0 
L 0 0 
z
" style="fill:#ffffff;"/>
  </g>
  <g id="patch_2">
   <path d="M -30.6 262.8 
L 349.854545 262.8 
L 349.854545 -14.4 
L -30.6 -14.4 
z
" style="fill:#ffffff;"/>
  </g>
  <g id="pane3d_1">
   <g id="patch_3">
    <path d="M 19.835129 201.548569 
L 128.723211 133.58541 
L 126.910339 3.718968 
L 11.951034 64.782468 
" style="fill:#f2f2f2;opacity:0.5;stroke:#f2f2f2;stroke-linejoin:miter;"/>
   </g>
  </g>
  <g id="pane3d_2">
   <g id="patch_4">
    <path d="M 128.723211 133.58541 
L 305.111665 171.581202 
L 312.491547 37.79869 
L 126.910339 3.718968 
" style="fill:#e6e6e6;opacity:0.5;stroke:#e6e6e6;stroke-linejoin:miter;"/>
   </g>
  </g>
  <g id="pane3d_3">
   <g id="patch_5">
    <path d="M 19.835129 201.548569 
L 205.419617 245.80086 
L 305.111665 171.581202 
L 128.723211 133.58541 
" style="fill:#ececec;opacity:0.5;stroke:#ececec;stroke-linejoin:miter;"/>
   </g>
  </g>
  <g id="axis3d_1">
   <g id="line2d_1">
    <path d="M 19.835129 201.548569 
L 205.419617 245.80086 
" style="fill:none;stroke:#000000;stroke-linecap:square;stroke-width:0.8;"/>
   </g>
   <g id="Line3DCollection_1">
    <path d="M 42.295817 206.90428 
L 150.133942 138.19749 
L 149.393845 7.847789 
" style="fill:none;stroke:#b0b0b0;stroke-width:0.8;"/>
    <path d="M 87.512337 217.686079 
L 193.184014 147.470895 
L 194.636898 16.156123 
" style="fill:none;stroke:#b0b0b0;stroke-width:0.8;"/>
    <path d="M 133.765289 228.715013 
L 237.148096 156.941187 
L 240.890183 24.649974 
" style="fill:none;stroke:#b0b0b0;stroke-width:0.8;"/>
    <path d="M 181.090721 239.999678 
L 282.055608 166.614702 
L 288.187917 33.335625 
" style="fill:none;stroke:#b0b0b0;stroke-width:0.8;"/>
   </g>
   <g id="xtick_1">
    <g id="line2d_2">
     <path d="M 43.225084 206.312217 
L 40.433807 208.09062 
" style="fill:none;stroke:#000000;stroke-linecap:square;stroke-width:0.8;"/>
    </g>
    <g id="text_1">
     <!-- 00 -->
     <defs>
      <path d="M 42 31.84375 
C 42 37.96875 41.90625 48.421875 37.703125 56.453125 
C 34 63.484375 28.09375 66 22.90625 66 
C 18.09375 66 12 63.78125 8.203125 56.5625 
C 4.203125 49.015625 3.796875 39.671875 3.796875 31.84375 
C 3.796875 26.109375 3.90625 17.375 7 9.734375 
C 11.296875 -0.609375 19 -2 22.90625 -2 
C 27.5 -2 34.5 -0.109375 38.59375 9.4375 
C 41.59375 16.375 42 24.5 42 31.84375 
z
M 22.90625 -0.40625 
C 16.5 -0.40625 12.703125 5.125 11.296875 12.75 
C 10.203125 18.6875 10.203125 27.328125 10.203125 32.953125 
C 10.203125 40.6875 10.203125 47.109375 11.5 53.234375 
C 13.40625 61.78125 19 64.390625 22.90625 64.390625 
C 27 64.390625 32.296875 61.671875 34.203125 53.4375 
C 35.5 47.71875 35.59375 40.984375 35.59375 32.953125 
C 35.59375 26.421875 35.59375 18.375 34.40625 12.453125 
C 32.296875 1.5 26.40625 -0.40625 22.90625 -0.40625 
z
" id="CMR17-48"/>
     </defs>
     <g transform="translate(23.330362 237.14703)rotate(-45)scale(0.14 -0.14)">
      <use transform="scale(0.996264)" xlink:href="#CMR17-48"/>
      <use transform="translate(45.690477 0)scale(0.996264)" xlink:href="#CMR17-48"/>
     </g>
    </g>
   </g>
   <g id="xtick_2">
    <g id="line2d_3">
     <path d="M 88.423674 217.080527 
L 85.686217 218.899473 
" style="fill:none;stroke:#000000;stroke-linecap:square;stroke-width:0.8;"/>
    </g>
    <g id="text_2">
     <!-- 01 -->
     <defs>
      <path d="M 26.59375 63.796875 
C 26.59375 65.890625 26.5 66 25.09375 66 
C 21.203125 61.359375 15.296875 59.890625 9.703125 59.6875 
C 9.40625 59.6875 8.90625 59.6875 8.796875 59.5 
C 8.703125 59.296875 8.703125 59.09375 8.703125 57 
C 11.796875 57 17 57.59375 21 59.984375 
L 21 7.296875 
C 21 3.796875 20.796875 2.59375 12.203125 2.59375 
L 9.203125 2.59375 
L 9.203125 0 
C 14 0.09375 19 0.1875 23.796875 0.1875 
C 28.59375 0.1875 33.59375 0.09375 38.40625 0 
L 38.40625 2.59375 
L 35.40625 2.59375 
C 26.796875 2.59375 26.59375 3.6875 26.59375 7.296875 
z
" id="CMR17-49"/>
     </defs>
     <g transform="translate(68.542787 248.103782)rotate(-45)scale(0.14 -0.14)">
      <use transform="scale(0.996264)" xlink:href="#CMR17-48"/>
      <use transform="translate(45.690477 0)scale(0.996264)" xlink:href="#CMR17-49"/>
     </g>
    </g>
   </g>
   <g id="xtick_3">
    <g id="line2d_4">
     <path d="M 134.657625 228.095506 
L 131.977203 229.956397 
" style="fill:none;stroke:#000000;stroke-linecap:square;stroke-width:0.8;"/>
    </g>
    <g id="text_3">
     <!-- 10 -->
     <g transform="translate(114.7934 259.312128)rotate(-45)scale(0.14 -0.14)">
      <use transform="scale(0.996264)" xlink:href="#CMR17-49"/>
      <use transform="translate(45.690477 0)scale(0.996264)" xlink:href="#CMR17-48"/>
     </g>
    </g>
   </g>
   <g id="xtick_4">
    <g id="line2d_5">
     <path d="M 181.962926 239.365727 
L 179.342936 241.270032 
" style="fill:none;stroke:#000000;stroke-linecap:square;stroke-width:0.8;"/>
    </g>
    <g id="text_4">
     <!-- 11 -->
     <g transform="translate(162.118375 270.780834)rotate(-45)scale(0.14 -0.14)">
      <use transform="scale(0.996264)" xlink:href="#CMR17-49"/>
      <use transform="translate(45.690477 0)scale(0.996264)" xlink:href="#CMR17-49"/>
     </g>
    </g>
   </g>
  </g>
  <g id="axis3d_2">
   <g id="line2d_6">
    <path d="M 305.111665 171.581202 
L 205.419617 245.80086 
" style="fill:none;stroke:#000000;stroke-linecap:square;stroke-width:0.8;"/>
   </g>
   <g id="Line3DCollection_2">
    <path d="M 27.455231 56.547028 
L 34.471044 192.413474 
L 218.858418 235.795817 
" style="fill:none;stroke:#b0b0b0;stroke-width:0.8;"/>
    <path d="M 57.232024 40.730342 
L 62.623407 174.842005 
L 244.674037 216.576366 
" style="fill:none;stroke:#b0b0b0;stroke-width:0.8;"/>
    <path d="M 85.85589 25.526062 
L 89.739382 157.917404 
L 269.496985 198.095948 
" style="fill:none;stroke:#b0b0b0;stroke-width:0.8;"/>
    <path d="M 113.392516 10.899296 
L 115.875164 141.604597 
L 293.383438 180.312741 
" style="fill:none;stroke:#b0b0b0;stroke-width:0.8;"/>
   </g>
   <g id="xtick_5">
    <g id="line2d_7">
     <path d="M 217.315598 235.432825 
L 221.947489 236.522608 
" style="fill:none;stroke:#000000;stroke-linecap:square;stroke-width:0.8;"/>
    </g>
    <g id="text_5">
     <!-- 00 -->
     <g transform="translate(232.650369 248.348363)rotate(-337.5)scale(0.14 -0.14)">
      <use transform="scale(0.996264)" xlink:href="#CMR17-48"/>
      <use transform="translate(45.690477 0)scale(0.996264)" xlink:href="#CMR17-48"/>
     </g>
    </g>
   </g>
   <g id="xtick_6">
    <g id="line2d_8">
     <path d="M 243.15208 216.227463 
L 247.72127 217.274932 
" style="fill:none;stroke:#000000;stroke-linecap:square;stroke-width:0.8;"/>
    </g>
    <g id="text_6">
     <!-- 01 -->
     <g transform="translate(258.203921 228.903937)rotate(-337.5)scale(0.14 -0.14)">
      <use transform="scale(0.996264)" xlink:href="#CMR17-48"/>
      <use transform="translate(45.690477 0)scale(0.996264)" xlink:href="#CMR17-49"/>
     </g>
    </g>
   </g>
   <g id="xtick_7">
    <g id="line2d_9">
     <path d="M 267.995442 197.76033 
L 272.503283 198.767901 
" style="fill:none;stroke:#000000;stroke-linecap:square;stroke-width:0.8;"/>
    </g>
    <g id="text_7">
     <!-- 10 -->
     <g transform="translate(282.775332 210.206849)rotate(-337.5)scale(0.14 -0.14)">
      <use transform="scale(0.996264)" xlink:href="#CMR17-49"/>
      <use transform="translate(45.690477 0)scale(0.996264)" xlink:href="#CMR17-48"/>
     </g>
    </g>
   </g>
   <g id="xtick_8">
    <g id="line2d_10">
     <path d="M 291.901865 179.989663 
L 296.349691 180.959573 
" style="fill:none;stroke:#000000;stroke-linecap:square;stroke-width:0.8;"/>
    </g>
    <g id="text_8">
     <!-- 11 -->
     <g transform="translate(306.420159 192.214827)rotate(-337.5)scale(0.14 -0.14)">
      <use transform="scale(0.996264)" xlink:href="#CMR17-49"/>
      <use transform="translate(45.690477 0)scale(0.996264)" xlink:href="#CMR17-49"/>
     </g>
    </g>
   </g>
  </g>
  <g id="axis3d_3">
   <g id="line2d_11">
    <path d="M 305.111665 171.581202 
L 312.491547 37.79869 
" style="fill:none;stroke:#000000;stroke-linecap:square;stroke-width:0.8;"/>
   </g>
   <g id="text_9">
    <!-- Re[$\rho$] -->
    <defs>
     <path d="M 39.203125 33.6875 
C 48.703125 35.59375 56.703125 42.015625 56.703125 50.046875 
C 56.703125 59.46875 46.09375 68 32.09375 68 
L 5.203125 68 
L 5.203125 65.390625 
C 12.09375 65.390625 13.203125 65.390625 13.203125 60.875 
L 13.203125 6.6875 
C 13.203125 2.1875 12.09375 2.1875 5.203125 2.1875 
L 5.203125 -0.40625 
C 8.09375 -0.203125 13.296875 -0.203125 16.40625 -0.203125 
C 19.5 -0.203125 24.703125 -0.203125 27.59375 -0.40625 
L 27.59375 2.1875 
C 20.703125 2.1875 19.59375 2.1875 19.59375 6.6875 
L 19.59375 33 
L 31.296875 33 
C 37 33 40.203125 30.6875 41.59375 29.390625 
C 45.59375 25.5 45.59375 22.796875 45.59375 16 
C 45.59375 9.296875 45.59375 5.890625 48.59375 2.5 
C 52.40625 -1.609375 57.5 -2 59.703125 -2 
C 67.09375 -2 68.203125 6.296875 68.203125 8 
C 68.203125 8.59375 68.203125 9.296875 67.296875 9.296875 
C 66.5 9.296875 66.40625 8.6875 66.40625 8.296875 
C 65.90625 1.796875 63 -0.40625 59.90625 -0.40625 
C 54.40625 -0.40625 53.796875 5.890625 53.203125 12 
C 52.90625 14.09375 52.703125 15.59375 52.5 17.796875 
C 51.90625 22.796875 51.09375 30.09375 39.203125 33.6875 
z
M 31 34.59375 
L 19.59375 34.59375 
L 19.59375 61.484375 
C 19.59375 64.890625 19.796875 65.390625 23.796875 65.390625 
L 31.09375 65.390625 
C 39.40625 65.390625 49.09375 62.484375 49.09375 50.046875 
C 49.09375 37.09375 38.5 34.59375 31 34.59375 
z
" id="CMR17-82"/>
     <path d="M 38.09375 23.484375 
C 38.5 23.890625 38.5 24.09375 38.5 25.09375 
C 38.5 35.171875 33.09375 44 21.703125 44 
C 11.09375 44 2.703125 33.984375 2.703125 21.78125 
C 2.703125 8.65625 12.203125 -1 22.796875 -1 
C 34 -1 38.40625 9.671875 38.40625 11.796875 
C 38.40625 12.5 37.796875 12.5 37.59375 12.5 
C 36.90625 12.5 36.796875 12.296875 36.40625 11.078125 
C 34.203125 4.21875 28.703125 0.796875 23.5 0.796875 
C 19.203125 0.796875 14.90625 3.21875 12.203125 7.65625 
C 9.09375 12.796875 9.09375 18.75 9.09375 23.484375 
z
M 9.203125 25 
C 9.90625 39.234375 17.59375 42.390625 21.59375 42.390625 
C 28.40625 42.390625 33 36.0625 33.09375 25 
z
" id="CMR17-101"/>
     <path d="M 23.5 -25 
L 23.5 -21.5 
L 14.09375 -21.5 
L 14.09375 71.484375 
L 23.5 71.484375 
L 23.5 75 
L 10.59375 75 
L 10.59375 -25 
z
" id="CMR17-91"/>
     <path d="M 3.09375 -16.953125 
C 3 -17.4375 2.796875 -18.03125 2.796875 -18.609375 
C 2.796875 -20.109375 4 -21.109375 5.5 -21.109375 
C 7 -21.109375 8.40625 -20.109375 9 -18.71875 
C 9.40625 -17.828125 12.203125 -6.09375 15.40625 6.078125 
C 17.40625 1.09375 21.09375 -1 25 -1 
C 36.296875 -1 49.09375 12.96875 49.09375 28.03125 
C 49.09375 38.703125 42.59375 44 35.703125 44 
C 26.90625 44 16.203125 34.90625 12.90625 21.640625 
z
M 24.90625 1 
C 18.09375 1 16.40625 8.875 16.40625 10.078125 
C 16.40625 10.671875 18.90625 20.140625 19.203125 21.640625 
C 24.296875 41.5 34.09375 41.984375 35.59375 41.984375 
C 40.09375 41.984375 42.59375 37.90625 42.59375 32.015625 
C 42.59375 26.9375 39.90625 17.046875 38.203125 12.859375 
C 35.203125 5.984375 30 1 24.90625 1 
z
" id="CMMI12-26"/>
     <path d="M 14.296875 75 
L 1.40625 75 
L 1.40625 71.484375 
L 10.796875 71.484375 
L 10.796875 -21.5 
L 1.40625 -21.5 
L 1.40625 -25 
L 14.296875 -25 
z
" id="CMR17-93"/>
    </defs>
    <g transform="translate(352.486567 117.931831)rotate(-86.842577)scale(0.14 -0.14)">
     <use transform="scale(0.996264)" xlink:href="#CMR17-82"/>
     <use transform="translate(67.791102 0)scale(0.996264)" xlink:href="#CMR17-101"/>
     <use transform="translate(108.276762 0)scale(0.996264)" xlink:href="#CMR17-91"/>
     <use transform="translate(133.147821 0)scale(0.996264)" xlink:href="#CMMI12-26"/>
     <use transform="translate(183.462194 0)scale(0.996264)" xlink:href="#CMR17-93"/>
    </g>
   </g>
   <g id="Line3DCollection_3">
    <path d="M 305.255896 168.966591 
L 128.687704 131.041907 
L 19.681304 198.880155 
" style="fill:none;stroke:#b0b0b0;stroke-width:0.8;"/>
    <path d="M 307.158868 134.469503 
L 128.219522 97.503309 
L 17.650775 163.656388 
" style="fill:none;stroke:#b0b0b0;stroke-width:0.8;"/>
    <path d="M 309.114102 99.025022 
L 127.73903 63.08288 
L 15.562604 127.432697 
" style="fill:none;stroke:#b0b0b0;stroke-width:0.8;"/>
    <path d="M 311.12378 62.593576 
L 127.245736 27.745377 
L 13.414301 90.165891 
" style="fill:none;stroke:#b0b0b0;stroke-width:0.8;"/>
   </g>
   <g id="xtick_9">
    <g id="line2d_12">
     <path d="M 303.782685 168.650163 
L 308.205382 169.600104 
" style="fill:none;stroke:#000000;stroke-linecap:square;stroke-width:0.8;"/>
    </g>
    <g id="text_10">
     <!-- $0.0$ -->
     <defs>
      <path d="M 18.40625 4.796875 
C 18.40625 7.6875 16 9.6875 13.59375 9.6875 
C 10.703125 9.6875 8.703125 7.296875 8.703125 4.890625 
C 8.703125 2 11.09375 0 13.5 0 
C 16.40625 0 18.40625 2.390625 18.40625 4.796875 
z
" id="CMMI12-58"/>
     </defs>
     <g transform="translate(315.058888 176.711654)scale(0.14 -0.14)">
      <use transform="scale(0.996264)" xlink:href="#CMR17-48"/>
      <use transform="translate(45.690477 0)scale(0.996264)" xlink:href="#CMMI12-58"/>
      <use transform="translate(72.787654 0)scale(0.996264)" xlink:href="#CMR17-48"/>
     </g>
    </g>
   </g>
   <g id="xtick_10">
    <g id="line2d_13">
     <path d="M 305.665041 134.160901 
L 310.149673 135.087359 
" style="fill:none;stroke:#000000;stroke-linecap:square;stroke-width:0.8;"/>
    </g>
    <g id="text_11">
     <!-- $0.1$ -->
     <g transform="translate(317.208198 142.262608)scale(0.14 -0.14)">
      <use transform="scale(0.996264)" xlink:href="#CMR17-48"/>
      <use transform="translate(45.690477 0)scale(0.996264)" xlink:href="#CMMI12-58"/>
      <use transform="translate(72.787654 0)scale(0.996264)" xlink:href="#CMR17-49"/>
     </g>
    </g>
   </g>
   <g id="xtick_11">
    <g id="line2d_14">
     <path d="M 307.599073 98.724797 
L 312.147397 99.626114 
" style="fill:none;stroke:#000000;stroke-linecap:square;stroke-width:0.8;"/>
    </g>
    <g id="text_12">
     <!-- $0.2$ -->
     <defs>
      <path d="M 41.703125 15.46875 
L 39.90625 15.46875 
C 38.90625 8.390625 38.09375 7.1875 37.703125 6.59375 
C 37.203125 5.796875 30 5.796875 28.59375 5.796875 
L 9.40625 5.796875 
C 13 9.6875 20 16.765625 28.5 24.9375 
C 34.59375 30.71875 41.703125 37.5 41.703125 47.390625 
C 41.703125 59.1875 32.296875 66 21.796875 66 
C 10.796875 66 4.09375 56.296875 4.09375 47.296875 
C 4.09375 43.390625 7 42.890625 8.203125 42.890625 
C 9.203125 42.890625 12.203125 43.484375 12.203125 46.984375 
C 12.203125 50.09375 9.59375 51 8.203125 51 
C 7.59375 51 7 50.890625 6.59375 50.6875 
C 8.5 59.1875 14.296875 63.390625 20.40625 63.390625 
C 29.09375 63.390625 34.796875 56.5 34.796875 47.390625 
C 34.796875 38.703125 29.703125 31.21875 24 24.734375 
L 4.09375 2.296875 
L 4.09375 0 
L 39.296875 0 
z
" id="CMR17-50"/>
     </defs>
     <g transform="translate(319.416406 106.869553)scale(0.14 -0.14)">
      <use transform="scale(0.996264)" xlink:href="#CMR17-48"/>
      <use transform="translate(45.690477 0)scale(0.996264)" xlink:href="#CMMI12-58"/>
      <use transform="translate(72.787654 0)scale(0.996264)" xlink:href="#CMR17-50"/>
     </g>
    </g>
   </g>
   <g id="xtick_12">
    <g id="line2d_15">
     <path d="M 309.58694 62.302317 
L 314.200789 63.176725 
" style="fill:none;stroke:#000000;stroke-linecap:square;stroke-width:0.8;"/>
    </g>
    <g id="text_13">
     <!-- $0.3$ -->
     <defs>
      <path d="M 22.09375 34 
C 31 34 34.90625 26.140625 34.90625 17.09375 
C 34.90625 5.03125 28.5 0.390625 22.703125 0.390625 
C 17.40625 0.390625 8.796875 3.015625 6.09375 10.796875 
C 6.59375 10.59375 7.09375 10.59375 7.59375 10.59375 
C 10 10.59375 11.796875 12.1875 11.796875 14.796875 
C 11.796875 17.6875 9.59375 19 7.59375 19 
C 5.90625 19 3.296875 18.1875 3.296875 14.484375 
C 3.296875 5.234375 12.296875 -2 22.90625 -2 
C 34 -2 42.5 6.75 42.5 16.984375 
C 42.5 26.84375 34.5 34 25 35.09375 
C 32.59375 36.671875 39.90625 43.375 39.90625 52.390625 
C 39.90625 60.25 32 66 23 66 
C 13.90625 66 5.90625 60.34375 5.90625 52.296875 
C 5.90625 48.796875 8.5 48.1875 9.796875 48.1875 
C 11.90625 48.1875 13.703125 49.484375 13.703125 52.09375 
C 13.703125 54.6875 11.90625 56 9.796875 56 
C 9.40625 56 8.90625 56 8.5 55.796875 
C 11.40625 62.484375 19.296875 63.6875 22.796875 63.6875 
C 26.296875 63.6875 32.90625 61.96875 32.90625 52.296875 
C 32.90625 49.484375 32.5 44.546875 29.09375 40.21875 
C 26.09375 36.390625 22.703125 36.1875 19.40625 35.890625 
C 18.90625 35.890625 16.59375 35.6875 16.203125 35.6875 
C 15.5 35.59375 15.09375 35.5 15.09375 34.796875 
C 15.09375 34.09375 15.203125 34 17.203125 34 
z
" id="CMR17-51"/>
     </defs>
     <g transform="translate(321.685965 70.493146)scale(0.14 -0.14)">
      <use transform="scale(0.996264)" xlink:href="#CMR17-48"/>
      <use transform="translate(45.690477 0)scale(0.996264)" xlink:href="#CMMI12-58"/>
      <use transform="translate(72.787654 0)scale(0.996264)" xlink:href="#CMR17-51"/>
     </g>
    </g>
   </g>
  </g>
  <g id="axes_1">
   <g id="Poly3DCollection_1">
    <path clip-path="url(#p79df18398f)" d="M 133.050905 137.407646 
L 133.020364 134.925054 
L 154.428413 139.538728 
L 154.438412 142.029868 
z
" style="fill:#5d0618;fill-opacity:0.8;"/>
    <path clip-path="url(#p79df18398f)" d="M 120.269941 145.444401 
L 120.226704 142.946975 
L 133.020364 134.925054 
L 133.050905 137.407646 
z
" style="fill:#ba0c2f;fill-opacity:0.8;"/>
    <path clip-path="url(#p79df18398f)" d="M 120.269941 145.444401 
L 133.050905 137.407646 
L 154.438412 142.029868 
L 141.785761 150.151462 
z
" style="fill:#74081d;fill-opacity:0.8;"/>
    <path clip-path="url(#p79df18398f)" d="M 120.226704 142.946975 
L 141.763312 147.645414 
L 154.428413 139.538728 
L 133.020364 134.925054 
z
" style="fill:#a30a29;fill-opacity:0.8;"/>
    <path clip-path="url(#p79df18398f)" d="M 141.785761 150.151462 
L 154.438412 142.029868 
L 154.428413 139.538728 
L 141.763312 147.645414 
z
" style="fill:#5d0618;fill-opacity:0.8;"/>
    <path clip-path="url(#p79df18398f)" d="M 120.269941 145.444401 
L 141.785761 150.151462 
L 141.763312 147.645414 
L 120.226704 142.946975 
z
" style="fill:#ba0c2f;fill-opacity:0.8;"/>
   </g>
   <g id="Poly3DCollection_2">
    <path clip-path="url(#p79df18398f)" d="M 176.051257 146.70079 
L 176.060524 144.590713 
L 197.92037 149.303822 
L 197.893019 151.421185 
z
" style="fill:#5d0618;fill-opacity:0.8;"/>
    <path clip-path="url(#p79df18398f)" d="M 163.530358 154.908574 
L 163.529332 152.785854 
L 176.060524 144.590713 
L 176.051257 146.70079 
z
" style="fill:#ba0c2f;fill-opacity:0.8;"/>
    <path clip-path="url(#p79df18398f)" d="M 163.530358 154.908574 
L 176.051257 146.70079 
L 197.893019 151.421185 
L 185.5074 159.716538 
z
" style="fill:#74081d;fill-opacity:0.8;"/>
    <path clip-path="url(#p79df18398f)" d="M 163.529332 152.785854 
L 185.524683 157.58647 
L 197.92037 149.303822 
L 176.060524 144.590713 
z
" style="fill:#a30a29;fill-opacity:0.8;"/>
    <path clip-path="url(#p79df18398f)" d="M 185.5074 159.716538 
L 197.893019 151.421185 
L 197.92037 149.303822 
L 185.524683 157.58647 
z
" style="fill:#5d0618;fill-opacity:0.8;"/>
    <path clip-path="url(#p79df18398f)" d="M 163.530358 154.908574 
L 185.5074 159.716538 
L 185.524683 157.58647 
L 163.529332 152.785854 
z
" style="fill:#ba0c2f;fill-opacity:0.8;"/>
   </g>
   <g id="Poly3DCollection_3">
    <path clip-path="url(#p79df18398f)" d="M 107.253928 153.628956 
L 107.116845 147.52237 
L 128.813229 152.295446 
L 128.899179 158.423214 
z
" style="fill:#5d0618;fill-opacity:0.8;"/>
    <path clip-path="url(#p79df18398f)" d="M 93.99632 161.965427 
L 93.82607 155.822086 
L 107.116845 147.52237 
L 107.253928 153.628956 
z
" style="fill:#ba0c2f;fill-opacity:0.8;"/>
    <path clip-path="url(#p79df18398f)" d="M 93.99632 161.965427 
L 107.253928 153.628956 
L 128.899179 158.423214 
L 115.772116 166.849328 
z
" style="fill:#74081d;fill-opacity:0.8;"/>
    <path clip-path="url(#p79df18398f)" d="M 93.82607 155.822086 
L 115.653614 160.684625 
L 128.813229 152.295446 
L 107.116845 147.52237 
z
" style="fill:#a30a29;fill-opacity:0.8;"/>
    <path clip-path="url(#p79df18398f)" d="M 115.772116 166.849328 
L 128.899179 158.423214 
L 128.813229 152.295446 
L 115.653614 160.684625 
z
" style="fill:#5d0618;fill-opacity:0.8;"/>
    <path clip-path="url(#p79df18398f)" d="M 93.99632 161.965427 
L 115.772116 166.849328 
L 115.653614 160.684625 
L 93.82607 155.822086 
z
" style="fill:#ba0c2f;fill-opacity:0.8;"/>
   </g>
   <g id="Poly3DCollection_4">
    <path clip-path="url(#p79df18398f)" d="M 219.967354 156.191843 
L 220.161226 147.202161 
L 242.551693 151.992628 
L 242.277999 161.013571 
z
" style="fill:#5d0618;fill-opacity:0.8;"/>
    <path clip-path="url(#p79df18398f)" d="M 207.720635 164.576174 
L 207.872902 155.532248 
L 220.161226 147.202161 
L 219.967354 156.191843 
z
" style="fill:#ba0c2f;fill-opacity:0.8;"/>
    <path clip-path="url(#p79df18398f)" d="M 207.720635 164.576174 
L 219.967354 156.191843 
L 242.277999 161.013571 
L 230.17389 169.48832 
z
" style="fill:#74081d;fill-opacity:0.8;"/>
    <path clip-path="url(#p79df18398f)" d="M 207.872902 155.532248 
L 230.407012 160.412867 
L 242.551693 151.992628 
L 220.161226 147.202161 
z
" style="fill:#a30a29;fill-opacity:0.8;"/>
    <path clip-path="url(#p79df18398f)" d="M 230.17389 169.48832 
L 242.277999 161.013571 
L 242.551693 151.992628 
L 230.407012 160.412867 
z
" style="fill:#5d0618;fill-opacity:0.8;"/>
    <path clip-path="url(#p79df18398f)" d="M 207.720635 164.576174 
L 230.17389 169.48832 
L 230.407012 160.412867 
L 207.872902 155.532248 
z
" style="fill:#ba0c2f;fill-opacity:0.8;"/>
   </g>
   <g id="Poly3DCollection_5">
    <path clip-path="url(#p79df18398f)" d="M 150.776722 163.268924 
L 150.777105 163.33873 
L 172.890093 168.236965 
L 172.890317 168.166917 
z
" style="fill:#ba0c2f;fill-opacity:0.8;"/>
    <path clip-path="url(#p79df18398f)" d="M 137.783797 171.786133 
L 137.784542 171.856359 
L 150.777105 163.33873 
L 150.776722 163.268924 
z
" style="fill:#5d0618;fill-opacity:0.8;"/>
    <path clip-path="url(#p79df18398f)" d="M 137.784542 171.856359 
L 160.035349 176.847178 
L 172.890093 168.236965 
L 150.777105 163.33873 
z
" style="fill:#a30a29;fill-opacity:0.8;"/>
    <path clip-path="url(#p79df18398f)" d="M 137.783797 171.786133 
L 150.776722 163.268924 
L 172.890317 168.166917 
L 160.035218 176.776708 
z
" style="fill:#74081d;fill-opacity:0.8;"/>
    <path clip-path="url(#p79df18398f)" d="M 160.035218 176.776708 
L 172.890317 168.166917 
L 172.890093 168.236965 
L 160.035349 176.847178 
z
" style="fill:#ba0c2f;fill-opacity:0.8;"/>
    <path clip-path="url(#p79df18398f)" d="M 137.783797 171.786133 
L 160.035218 176.776708 
L 160.035349 176.847178 
L 137.784542 171.856359 
z
" style="fill:#5d0618;fill-opacity:0.8;"/>
   </g>
   <g id="Poly3DCollection_6">
    <path clip-path="url(#p79df18398f)" d="M 80.49033 170.458083 
L 80.14678 160.082644 
L 102.142144 165.02247 
L 102.397779 175.434164 
z
" style="fill:#5d0618;fill-opacity:0.8;"/>
    <path clip-path="url(#p79df18398f)" d="M 66.728909 179.111355 
L 66.325468 168.67301 
L 80.14678 160.082644 
L 80.49033 170.458083 
z
" style="fill:#ba0c2f;fill-opacity:0.8;"/>
    <path clip-path="url(#p79df18398f)" d="M 66.728909 179.111355 
L 80.49033 170.458083 
L 102.397779 175.434164 
L 88.769113 184.182251 
z
" style="fill:#74081d;fill-opacity:0.8;"/>
    <path clip-path="url(#p79df18398f)" d="M 66.325468 168.67301 
L 88.454645 173.70735 
L 102.142144 165.02247 
L 80.14678 160.082644 
z
" style="fill:#a30a29;fill-opacity:0.8;"/>
    <path clip-path="url(#p79df18398f)" d="M 88.769113 184.182251 
L 102.397779 175.434164 
L 102.142144 165.02247 
L 88.454645 173.70735 
z
" style="fill:#5d0618;fill-opacity:0.8;"/>
    <path clip-path="url(#p79df18398f)" d="M 66.728909 179.111355 
L 88.769113 184.182251 
L 88.454645 173.70735 
L 66.325468 168.67301 
z
" style="fill:#ba0c2f;fill-opacity:0.8;"/>
   </g>
   <g id="Poly3DCollection_7">
    <path clip-path="url(#p79df18398f)" d="M 252.871076 174.453832 
L 264.828766 165.887195 
L 287.623554 170.813555 
L 275.816192 179.473583 
z
" style="fill:#74081d;fill-opacity:0.8;"/>
    <path clip-path="url(#p79df18398f)" d="M 264.828766 165.887195 
L 266.967823 111.37762 
L 290.264426 116.108615 
L 287.623554 170.813555 
z
" style="fill:#5d0618;fill-opacity:0.8;"/>
    <path clip-path="url(#p79df18398f)" d="M 252.871076 174.453832 
L 254.772608 119.605231 
L 266.967823 111.37762 
L 264.828766 165.887195 
z
" style="fill:#ba0c2f;fill-opacity:0.8;"/>
    <path clip-path="url(#p79df18398f)" d="M 275.816192 179.473583 
L 287.623554 170.813555 
L 290.264426 116.108615 
L 278.226326 124.427863 
z
" style="fill:#5d0618;fill-opacity:0.8;"/>
    <path clip-path="url(#p79df18398f)" d="M 252.871076 174.453832 
L 275.816192 179.473583 
L 278.226326 124.427863 
L 254.772608 119.605231 
z
" style="fill:#ba0c2f;fill-opacity:0.8;"/>
    <path clip-path="url(#p79df18398f)" d="M 254.772608 119.605231 
L 278.226326 124.427863 
L 290.264426 116.108615 
L 266.967823 111.37762 
z
" style="fill:#a30a29;fill-opacity:0.8;"/>
   </g>
   <g id="Poly3DCollection_8">
    <path clip-path="url(#p79df18398f)" d="M 240.686242 183.183198 
L 240.960901 174.020836 
L 264.143507 179.104567 
L 263.783303 188.299022 
z
" style="fill:#5d0618;fill-opacity:0.8;"/>
    <path clip-path="url(#p79df18398f)" d="M 228.267729 192.079975 
L 228.49967 182.861932 
L 240.960901 174.020836 
L 240.686242 183.183198 
z
" style="fill:#ba0c2f;fill-opacity:0.8;"/>
    <path clip-path="url(#p79df18398f)" d="M 228.267729 192.079975 
L 240.686242 183.183198 
L 263.783303 188.299022 
L 251.518365 197.294655 
z
" style="fill:#74081d;fill-opacity:0.8;"/>
    <path clip-path="url(#p79df18398f)" d="M 228.49967 182.861932 
L 251.837004 188.044261 
L 264.143507 179.104567 
L 240.960901 174.020836 
z
" style="fill:#a30a29;fill-opacity:0.8;"/>
    <path clip-path="url(#p79df18398f)" d="M 251.518365 197.294655 
L 263.783303 188.299022 
L 264.143507 179.104567 
L 251.837004 188.044261 
z
" style="fill:#5d0618;fill-opacity:0.8;"/>
    <path clip-path="url(#p79df18398f)" d="M 228.267729 192.079975 
L 251.518365 197.294655 
L 251.837004 188.044261 
L 228.49967 182.861932 
z
" style="fill:#ba0c2f;fill-opacity:0.8;"/>
   </g>
   <g id="Poly3DCollection_9">
    <path clip-path="url(#p79df18398f)" d="M 169.573369 190.6925 
L 169.573234 190.763642 
L 192.462326 195.96309 
L 192.463111 195.8917 
z
" style="fill:#ba0c2f;fill-opacity:0.8;"/>
    <path clip-path="url(#p79df18398f)" d="M 156.365907 199.734573 
L 156.366146 199.806146 
L 169.573234 190.763642 
L 169.573369 190.6925 
z
" style="fill:#5d0618;fill-opacity:0.8;"/>
    <path clip-path="url(#p79df18398f)" d="M 156.366146 199.806146 
L 179.403624 205.106891 
L 192.462326 195.96309 
L 169.573234 190.763642 
z
" style="fill:#a30a29;fill-opacity:0.8;"/>
    <path clip-path="url(#p79df18398f)" d="M 156.365907 199.734573 
L 169.573369 190.6925 
L 192.463111 195.8917 
L 179.404042 205.035069 
z
" style="fill:#74081d;fill-opacity:0.8;"/>
    <path clip-path="url(#p79df18398f)" d="M 179.404042 205.035069 
L 192.463111 195.8917 
L 192.462326 195.96309 
L 179.403624 205.106891 
z
" style="fill:#ba0c2f;fill-opacity:0.8;"/>
    <path clip-path="url(#p79df18398f)" d="M 156.365907 199.734573 
L 179.404042 205.035069 
L 179.403624 205.106891 
L 156.366146 199.806146 
z
" style="fill:#5d0618;fill-opacity:0.8;"/>
   </g>
   <g id="Poly3DCollection_10">
    <path clip-path="url(#p79df18398f)" d="M 215.608749 201.149025 
L 215.65306 198.957395 
L 239.079674 204.266154 
L 239.014599 206.465455 
z
" style="fill:#5d0618;fill-opacity:0.8;"/>
    <path clip-path="url(#p79df18398f)" d="M 202.702251 210.3954 
L 202.735636 208.190463 
L 215.65306 198.957395 
L 215.608749 201.149025 
z
" style="fill:#ba0c2f;fill-opacity:0.8;"/>
    <path clip-path="url(#p79df18398f)" d="M 202.702251 210.3954 
L 215.608749 201.149025 
L 239.014599 206.465455 
L 226.264962 215.816587 
z
" style="fill:#74081d;fill-opacity:0.8;"/>
    <path clip-path="url(#p79df18398f)" d="M 202.735636 208.190463 
L 226.319393 213.603921 
L 239.079674 204.266154 
L 215.65306 198.957395 
z
" style="fill:#a30a29;fill-opacity:0.8;"/>
    <path clip-path="url(#p79df18398f)" d="M 226.264962 215.816587 
L 239.014599 206.465455 
L 239.079674 204.266154 
L 226.319393 213.603921 
z
" style="fill:#5d0618;fill-opacity:0.8;"/>
    <path clip-path="url(#p79df18398f)" d="M 202.702251 210.3954 
L 226.264962 215.816587 
L 226.319393 213.603921 
L 202.735636 208.190463 
z
" style="fill:#ba0c2f;fill-opacity:0.8;"/>
   </g>
   <g id="Poly3DCollection_11">
    <path clip-path="url(#p79df18398f)" d="M 97.3 198.324346 
L 97.016562 187.748696 
L 119.783267 192.996134 
L 119.972516 203.608978 
z
" style="fill:#5d0618;fill-opacity:0.8;"/>
    <path clip-path="url(#p79df18398f)" d="M 83.279277 207.515305 
L 82.933587 196.875127 
L 97.016562 187.748696 
L 97.3 198.324346 
z
" style="fill:#ba0c2f;fill-opacity:0.8;"/>
    <path clip-path="url(#p79df18398f)" d="M 83.279277 207.515305 
L 97.3 198.324346 
L 119.972516 203.608978 
L 106.094684 212.903752 
z
" style="fill:#74081d;fill-opacity:0.8;"/>
    <path clip-path="url(#p79df18398f)" d="M 82.933587 196.875127 
L 105.844366 202.22609 
L 119.783267 192.996134 
L 97.016562 187.748696 
z
" style="fill:#a30a29;fill-opacity:0.8;"/>
    <path clip-path="url(#p79df18398f)" d="M 106.094684 212.903752 
L 119.972516 203.608978 
L 119.783267 192.996134 
L 105.844366 202.22609 
z
" style="fill:#5d0618;fill-opacity:0.8;"/>
    <path clip-path="url(#p79df18398f)" d="M 83.279277 207.515305 
L 106.094684 212.903752 
L 105.844366 202.22609 
L 82.933587 196.875127 
z
" style="fill:#ba0c2f;fill-opacity:0.8;"/>
   </g>
   <g id="Poly3DCollection_12">
    <path clip-path="url(#p79df18398f)" d="M 111.052631 189.309128 
L 124.544786 180.464659 
L 146.935304 185.550465 
L 133.583515 194.492918 
z
" style="fill:#74081d;fill-opacity:0.8;"/>
    <path clip-path="url(#p79df18398f)" d="M 124.544786 180.464659 
L 123.500779 114.662124 
L 146.469831 119.50948 
L 146.935304 185.550465 
z
" style="fill:#5d0618;fill-opacity:0.8;"/>
    <path clip-path="url(#p79df18398f)" d="M 111.052631 189.309128 
L 109.644756 123.092806 
L 123.500779 114.662124 
L 124.544786 180.464659 
z
" style="fill:#ba0c2f;fill-opacity:0.8;"/>
    <path clip-path="url(#p79df18398f)" d="M 133.583515 194.492918 
L 146.935304 185.550465 
L 146.469831 119.50948 
L 132.76151 128.036018 
z
" style="fill:#5d0618;fill-opacity:0.8;"/>
    <path clip-path="url(#p79df18398f)" d="M 111.052631 189.309128 
L 133.583515 194.492918 
L 132.76151 128.036018 
L 109.644756 123.092806 
z
" style="fill:#ba0c2f;fill-opacity:0.8;"/>
    <path clip-path="url(#p79df18398f)" d="M 109.644756 123.092806 
L 132.76151 128.036018 
L 146.469831 119.50948 
L 123.500779 114.662124 
z
" style="fill:#a30a29;fill-opacity:0.8;"/>
   </g>
   <g id="Poly3DCollection_13">
    <path clip-path="url(#p79df18398f)" d="M 182.530315 181.821934 
L 195.243804 173.118044 
L 217.841109 178.123175 
L 205.273114 186.922716 
z
" style="fill:#74081d;fill-opacity:0.8;"/>
    <path clip-path="url(#p79df18398f)" d="M 195.243804 173.118044 
L 196.508947 67.564927 
L 220.056869 72.179334 
L 217.841109 178.123175 
z
" style="fill:#5d0618;fill-opacity:0.8;"/>
    <path clip-path="url(#p79df18398f)" d="M 182.530315 181.821934 
L 183.274959 75.590695 
L 196.508947 67.564927 
L 195.243804 173.118044 
z
" style="fill:#ba0c2f;fill-opacity:0.8;"/>
    <path clip-path="url(#p79df18398f)" d="M 205.273114 186.922716 
L 217.841109 178.123175 
L 220.056869 72.179334 
L 206.980971 80.297012 
z
" style="fill:#5d0618;fill-opacity:0.8;"/>
    <path clip-path="url(#p79df18398f)" d="M 182.530315 181.821934 
L 205.273114 186.922716 
L 206.980971 80.297012 
L 183.274959 75.590695 
z
" style="fill:#ba0c2f;fill-opacity:0.8;"/>
    <path clip-path="url(#p79df18398f)" d="M 183.274959 75.590695 
L 206.980971 80.297012 
L 220.056869 72.179334 
L 196.508947 67.564927 
z
" style="fill:#a30a29;fill-opacity:0.8;"/>
   </g>
   <g id="Poly3DCollection_14">
    <path clip-path="url(#p79df18398f)" d="M 142.900592 208.953178 
L 142.845252 202.609539 
L 166.091932 207.992028 
L 166.088572 214.357958 
z
" style="fill:#5d0618;fill-opacity:0.8;"/>
    <path clip-path="url(#p79df18398f)" d="M 129.169797 218.353534 
L 129.078821 211.971225 
L 142.845252 202.609539 
L 142.900592 208.953178 
z
" style="fill:#ba0c2f;fill-opacity:0.8;"/>
    <path clip-path="url(#p79df18398f)" d="M 129.169797 218.353534 
L 142.900592 208.953178 
L 166.088572 214.357958 
L 152.509075 223.865707 
z
" style="fill:#74081d;fill-opacity:0.8;"/>
    <path clip-path="url(#p79df18398f)" d="M 129.078821 211.971225 
L 152.477565 217.460938 
L 166.091932 207.992028 
L 142.845252 202.609539 
z
" style="fill:#a30a29;fill-opacity:0.8;"/>
    <path clip-path="url(#p79df18398f)" d="M 152.509075 223.865707 
L 166.088572 214.357958 
L 166.091932 207.992028 
L 152.477565 217.460938 
z
" style="fill:#5d0618;fill-opacity:0.8;"/>
    <path clip-path="url(#p79df18398f)" d="M 129.169797 218.353534 
L 152.509075 223.865707 
L 152.477565 217.460938 
L 129.078821 211.971225 
z
" style="fill:#ba0c2f;fill-opacity:0.8;"/>
   </g>
   <g id="Poly3DCollection_15">
    <path clip-path="url(#p79df18398f)" d="M 189.540903 219.824353 
L 189.566987 217.196327 
L 213.313483 222.716172 
L 213.262129 225.353425 
z
" style="fill:#5d0618;fill-opacity:0.8;"/>
    <path clip-path="url(#p79df18398f)" d="M 176.117081 229.441346 
L 176.12915 226.797314 
L 189.566987 217.196327 
L 189.540903 219.824353 
z
" style="fill:#ba0c2f;fill-opacity:0.8;"/>
    <path clip-path="url(#p79df18398f)" d="M 176.117081 229.441346 
L 189.540903 219.824353 
L 213.262129 225.353425 
L 199.998482 235.081554 
z
" style="fill:#74081d;fill-opacity:0.8;"/>
    <path clip-path="url(#p79df18398f)" d="M 176.12915 226.797314 
L 200.036165 232.428229 
L 213.313483 222.716172 
L 189.566987 217.196327 
z
" style="fill:#a30a29;fill-opacity:0.8;"/>
    <path clip-path="url(#p79df18398f)" d="M 199.998482 235.081554 
L 213.262129 225.353425 
L 213.313483 222.716172 
L 200.036165 232.428229 
z
" style="fill:#5d0618;fill-opacity:0.8;"/>
    <path clip-path="url(#p79df18398f)" d="M 176.117081 229.441346 
L 199.998482 235.081554 
L 200.036165 232.428229 
L 176.12915 226.797314 
z
" style="fill:#ba0c2f;fill-opacity:0.8;"/>
   </g>
   <g id="Poly3DCollection_16">
    <path clip-path="url(#p79df18398f)" d="M 25.575944 198.262699 
L 203.737237 240.536252 
L 299.721974 169.546262 
L 130.052194 133.032645 
z
" style="fill-opacity:0.15;"/>
   </g>
   <g id="Poly3DCollection_17">
    <path clip-path="url(#p79df18398f)" d="M 38.410235 196.918324 
L 52.704743 187.929843 
L 74.878794 193.09829 
L 60.719215 202.187165 
z
" style="fill:#74081d;fill-opacity:0.8;"/>
    <path clip-path="url(#p79df18398f)" d="M 52.704743 187.929843 
L 46.933544 57.750519 
L 70.222556 62.427839 
L 74.878794 193.09829 
z
" style="fill:#5d0618;fill-opacity:0.8;"/>
    <path clip-path="url(#p79df18398f)" d="M 38.410235 196.918324 
L 31.836896 65.886594 
L 46.933544 57.750519 
L 52.704743 187.929843 
z
" style="fill:#ba0c2f;fill-opacity:0.8;"/>
    <path clip-path="url(#p79df18398f)" d="M 60.719215 202.187165 
L 74.878794 193.09829 
L 70.222556 62.427839 
L 55.274545 70.659531 
z
" style="fill:#5d0618;fill-opacity:0.8;"/>
    <path clip-path="url(#p79df18398f)" d="M 38.410235 196.918324 
L 60.719215 202.187165 
L 55.274545 70.659531 
L 31.836896 65.886594 
z
" style="fill:#ba0c2f;fill-opacity:0.8;"/>
    <path clip-path="url(#p79df18398f)" d="M 31.836896 65.886594 
L 55.274545 70.659531 
L 70.222556 62.427839 
L 46.933544 57.750519 
z
" style="fill:#a30a29;fill-opacity:0.8;"/>
   </g>
  </g>
  <g id="patch_6">
   <path d="M 425.945455 262.8 
L 806.4 262.8 
L 806.4 -14.4 
L 425.945455 -14.4 
z
" style="fill:#ffffff;"/>
  </g>
  <g id="pane3d_4">
   <g id="patch_7">
    <path d="M 476.380584 201.548569 
L 585.268665 133.58541 
L 583.455794 3.718968 
L 468.496488 64.782468 
" style="fill:#f2f2f2;opacity:0.5;stroke:#f2f2f2;stroke-linejoin:miter;"/>
   </g>
  </g>
  <g id="pane3d_5">
   <g id="patch_8">
    <path d="M 585.268665 133.58541 
L 761.65712 171.581202 
L 769.037001 37.79869 
L 583.455794 3.718968 
" style="fill:#e6e6e6;opacity:0.5;stroke:#e6e6e6;stroke-linejoin:miter;"/>
   </g>
  </g>
  <g id="pane3d_6">
   <g id="patch_9">
    <path d="M 476.380584 201.548569 
L 661.965072 245.80086 
L 761.65712 171.581202 
L 585.268665 133.58541 
" style="fill:#ececec;opacity:0.5;stroke:#ececec;stroke-linejoin:miter;"/>
   </g>
  </g>
  <g id="axis3d_4">
   <g id="line2d_16">
    <path d="M 476.380584 201.548569 
L 661.965072 245.80086 
" style="fill:none;stroke:#000000;stroke-linecap:square;stroke-width:0.8;"/>
   </g>
   <g id="Line3DCollection_4">
    <path d="M 498.841271 206.90428 
L 606.679397 138.19749 
L 605.9393 7.847789 
" style="fill:none;stroke:#b0b0b0;stroke-width:0.8;"/>
    <path d="M 544.057792 217.686079 
L 649.729469 147.470895 
L 651.182353 16.156123 
" style="fill:none;stroke:#b0b0b0;stroke-width:0.8;"/>
    <path d="M 590.310744 228.715013 
L 693.693551 156.941187 
L 697.435637 24.649974 
" style="fill:none;stroke:#b0b0b0;stroke-width:0.8;"/>
    <path d="M 637.636176 239.999678 
L 738.601063 166.614702 
L 744.733372 33.335625 
" style="fill:none;stroke:#b0b0b0;stroke-width:0.8;"/>
   </g>
   <g id="xtick_13">
    <g id="line2d_17">
     <path d="M 499.770538 206.312217 
L 496.979262 208.09062 
" style="fill:none;stroke:#000000;stroke-linecap:square;stroke-width:0.8;"/>
    </g>
    <g id="text_14">
     <!-- 00 -->
     <g transform="translate(479.875817 237.14703)rotate(-45)scale(0.14 -0.14)">
      <use transform="scale(0.996264)" xlink:href="#CMR17-48"/>
      <use transform="translate(45.690477 0)scale(0.996264)" xlink:href="#CMR17-48"/>
     </g>
    </g>
   </g>
   <g id="xtick_14">
    <g id="line2d_18">
     <path d="M 544.969128 217.080527 
L 542.231671 218.899473 
" style="fill:none;stroke:#000000;stroke-linecap:square;stroke-width:0.8;"/>
    </g>
    <g id="text_15">
     <!-- 01 -->
     <g transform="translate(525.088242 248.103782)rotate(-45)scale(0.14 -0.14)">
      <use transform="scale(0.996264)" xlink:href="#CMR17-48"/>
      <use transform="translate(45.690477 0)scale(0.996264)" xlink:href="#CMR17-49"/>
     </g>
    </g>
   </g>
   <g id="xtick_15">
    <g id="line2d_19">
     <path d="M 591.20308 228.095506 
L 588.522658 229.956397 
" style="fill:none;stroke:#000000;stroke-linecap:square;stroke-width:0.8;"/>
    </g>
    <g id="text_16">
     <!-- 10 -->
     <g transform="translate(571.338855 259.312128)rotate(-45)scale(0.14 -0.14)">
      <use transform="scale(0.996264)" xlink:href="#CMR17-49"/>
      <use transform="translate(45.690477 0)scale(0.996264)" xlink:href="#CMR17-48"/>
     </g>
    </g>
   </g>
   <g id="xtick_16">
    <g id="line2d_20">
     <path d="M 638.50838 239.365727 
L 635.888391 241.270032 
" style="fill:none;stroke:#000000;stroke-linecap:square;stroke-width:0.8;"/>
    </g>
    <g id="text_17">
     <!-- 11 -->
     <g transform="translate(618.66383 270.780834)rotate(-45)scale(0.14 -0.14)">
      <use transform="scale(0.996264)" xlink:href="#CMR17-49"/>
      <use transform="translate(45.690477 0)scale(0.996264)" xlink:href="#CMR17-49"/>
     </g>
    </g>
   </g>
  </g>
  <g id="axis3d_5">
   <g id="line2d_21">
    <path d="M 761.65712 171.581202 
L 661.965072 245.80086 
" style="fill:none;stroke:#000000;stroke-linecap:square;stroke-width:0.8;"/>
   </g>
   <g id="Line3DCollection_5">
    <path d="M 484.000685 56.547028 
L 491.016499 192.413474 
L 675.403872 235.795817 
" style="fill:none;stroke:#b0b0b0;stroke-width:0.8;"/>
    <path d="M 513.777478 40.730342 
L 519.168861 174.842005 
L 701.219492 216.576366 
" style="fill:none;stroke:#b0b0b0;stroke-width:0.8;"/>
    <path d="M 542.401344 25.526062 
L 546.284836 157.917404 
L 726.04244 198.095948 
" style="fill:none;stroke:#b0b0b0;stroke-width:0.8;"/>
    <path d="M 569.937971 10.899296 
L 572.420618 141.604597 
L 749.928893 180.312741 
" style="fill:none;stroke:#b0b0b0;stroke-width:0.8;"/>
   </g>
   <g id="xtick_17">
    <g id="line2d_22">
     <path d="M 673.861052 235.432825 
L 678.492943 236.522608 
" style="fill:none;stroke:#000000;stroke-linecap:square;stroke-width:0.8;"/>
    </g>
    <g id="text_18">
     <!-- 00 -->
     <g transform="translate(689.195824 248.348363)rotate(-337.5)scale(0.14 -0.14)">
      <use transform="scale(0.996264)" xlink:href="#CMR17-48"/>
      <use transform="translate(45.690477 0)scale(0.996264)" xlink:href="#CMR17-48"/>
     </g>
    </g>
   </g>
   <g id="xtick_18">
    <g id="line2d_23">
     <path d="M 699.697534 216.227463 
L 704.266725 217.274932 
" style="fill:none;stroke:#000000;stroke-linecap:square;stroke-width:0.8;"/>
    </g>
    <g id="text_19">
     <!-- 01 -->
     <g transform="translate(714.749375 228.903937)rotate(-337.5)scale(0.14 -0.14)">
      <use transform="scale(0.996264)" xlink:href="#CMR17-48"/>
      <use transform="translate(45.690477 0)scale(0.996264)" xlink:href="#CMR17-49"/>
     </g>
    </g>
   </g>
   <g id="xtick_19">
    <g id="line2d_24">
     <path d="M 724.540896 197.76033 
L 729.048738 198.767901 
" style="fill:none;stroke:#000000;stroke-linecap:square;stroke-width:0.8;"/>
    </g>
    <g id="text_20">
     <!-- 10 -->
     <g transform="translate(739.320787 210.206849)rotate(-337.5)scale(0.14 -0.14)">
      <use transform="scale(0.996264)" xlink:href="#CMR17-49"/>
      <use transform="translate(45.690477 0)scale(0.996264)" xlink:href="#CMR17-48"/>
     </g>
    </g>
   </g>
   <g id="xtick_20">
    <g id="line2d_25">
     <path d="M 748.44732 179.989663 
L 752.895146 180.959573 
" style="fill:none;stroke:#000000;stroke-linecap:square;stroke-width:0.8;"/>
    </g>
    <g id="text_21">
     <!-- 11 -->
     <g transform="translate(762.965613 192.214827)rotate(-337.5)scale(0.14 -0.14)">
      <use transform="scale(0.996264)" xlink:href="#CMR17-49"/>
      <use transform="translate(45.690477 0)scale(0.996264)" xlink:href="#CMR17-49"/>
     </g>
    </g>
   </g>
  </g>
  <g id="axis3d_6">
   <g id="line2d_26">
    <path d="M 761.65712 171.581202 
L 769.037001 37.79869 
" style="fill:none;stroke:#000000;stroke-linecap:square;stroke-width:0.8;"/>
   </g>
   <g id="text_22">
    <!-- Im[$\rho$] -->
    <defs>
     <path d="M 19.703125 60.90625 
C 19.703125 65.390625 20.90625 65.390625 28.09375 65.390625 
L 28.09375 68 
C 24.90625 67.796875 19.796875 67.796875 16.40625 67.796875 
C 13 67.796875 7.90625 67.796875 4.703125 68 
L 4.703125 65.390625 
C 11.90625 65.390625 13.09375 65.390625 13.09375 60.90625 
L 13.09375 7.078125 
C 13.09375 2.59375 11.90625 2.59375 4.703125 2.59375 
L 4.703125 0 
C 7.90625 0.1875 13 0.1875 16.40625 0.1875 
C 19.796875 0.1875 24.90625 0.1875 28.09375 0 
L 28.09375 2.59375 
C 20.90625 2.59375 19.703125 2.59375 19.703125 7.078125 
z
" id="CMR17-73"/>
     <path d="M 67.59375 30.53125 
C 67.59375 35.5625 66.703125 44 54.796875 44 
C 48 44 43.296875 39.375 41.5 33.953125 
L 41.40625 33.953125 
C 40.203125 42.1875 34.296875 44 28.703125 44 
C 20.796875 44 16.703125 37.875 15.203125 33.84375 
L 15.09375 33.84375 
L 15.09375 44 
L 3.296875 42.890625 
L 3.296875 40.28125 
C 9.203125 40.28125 10.09375 39.6875 10.09375 34.859375 
L 10.09375 6.921875 
C 10.09375 3.09375 9.703125 2.59375 3.296875 2.59375 
L 3.296875 0 
C 5.703125 0.1875 10.09375 0.1875 12.703125 0.1875 
C 15.296875 0.1875 19.796875 0.1875 22.203125 0 
L 22.203125 2.59375 
C 15.796875 2.59375 15.40625 3 15.40625 6.921875 
L 15.40625 26.21875 
C 15.40625 35.453125 21 42.390625 28 42.390625 
C 35.40625 42.390625 36.203125 35.765625 36.203125 30.9375 
L 36.203125 6.921875 
C 36.203125 3.09375 35.796875 2.59375 29.40625 2.59375 
L 29.40625 0 
C 31.796875 0.1875 36.203125 0.1875 38.796875 0.1875 
C 41.40625 0.1875 45.90625 0.1875 48.296875 0 
L 48.296875 2.59375 
C 41.90625 2.59375 41.5 3 41.5 6.921875 
L 41.5 26.21875 
C 41.5 35.453125 47.09375 42.390625 54.09375 42.390625 
C 61.5 42.390625 62.296875 35.765625 62.296875 30.9375 
L 62.296875 6.921875 
C 62.296875 3.09375 61.90625 2.59375 55.5 2.59375 
L 55.5 0 
C 57.90625 0.1875 62.296875 0.1875 64.90625 0.1875 
C 67.5 0.1875 72 0.1875 74.40625 0 
L 74.40625 2.59375 
C 68 2.59375 67.59375 3 67.59375 6.921875 
z
" id="CMR17-109"/>
    </defs>
    <g transform="translate(809.026865 118.025317)rotate(-86.842577)scale(0.14 -0.14)">
     <use transform="scale(0.996264)" xlink:href="#CMR17-73"/>
     <use transform="translate(32.638409 0)scale(0.996264)" xlink:href="#CMR17-109"/>
     <use transform="translate(109.557999 0)scale(0.996264)" xlink:href="#CMR17-91"/>
     <use transform="translate(134.429058 0)scale(0.996264)" xlink:href="#CMMI12-26"/>
     <use transform="translate(184.74343 0)scale(0.996264)" xlink:href="#CMR17-93"/>
    </g>
   </g>
   <g id="Line3DCollection_6">
    <path d="M 762.208946 161.577696 
L 585.132835 123.855137 
L 475.791993 191.338243 
" style="fill:none;stroke:#b0b0b0;stroke-width:0.8;"/>
    <path d="M 764.006173 128.997559 
L 584.690762 92.186864 
L 473.873981 158.066304 
" style="fill:none;stroke:#b0b0b0;stroke-width:0.8;"/>
    <path d="M 765.849843 95.575511 
L 584.237752 59.735152 
L 471.904733 123.905587 
" style="fill:none;stroke:#b0b0b0;stroke-width:0.8;"/>
    <path d="M 767.741779 61.278492 
L 583.773395 26.470564 
L 469.882169 88.819999 
" style="fill:none;stroke:#b0b0b0;stroke-width:0.8;"/>
   </g>
   <g id="xtick_21">
    <g id="line2d_27">
     <path d="M 760.731321 161.262917 
L 765.167279 162.207911 
" style="fill:none;stroke:#000000;stroke-linecap:square;stroke-width:0.8;"/>
    </g>
    <g id="text_23">
     <!-- $0.0$ -->
     <g transform="translate(772.064712 169.332882)scale(0.14 -0.14)">
      <use transform="scale(0.996264)" xlink:href="#CMR17-48"/>
      <use transform="translate(45.690477 0)scale(0.996264)" xlink:href="#CMMI12-58"/>
      <use transform="translate(72.787654 0)scale(0.996264)" xlink:href="#CMR17-48"/>
     </g>
    </g>
   </g>
   <g id="xtick_22">
    <g id="line2d_28">
     <path d="M 762.509074 128.690227 
L 767.003535 129.612871 
" style="fill:none;stroke:#000000;stroke-linecap:square;stroke-width:0.8;"/>
    </g>
    <g id="text_24">
     <!-- $0.1$ -->
     <g transform="translate(774.094566 136.798466)scale(0.14 -0.14)">
      <use transform="scale(0.996264)" xlink:href="#CMR17-48"/>
      <use transform="translate(45.690477 0)scale(0.996264)" xlink:href="#CMMI12-58"/>
      <use transform="translate(72.787654 0)scale(0.996264)" xlink:href="#CMR17-49"/>
     </g>
    </g>
   </g>
   <g id="xtick_23">
    <g id="line2d_29">
     <path d="M 764.33275 95.276119 
L 768.887275 96.174935 
" style="fill:none;stroke:#000000;stroke-linecap:square;stroke-width:0.8;"/>
    </g>
    <g id="text_25">
     <!-- $0.2$ -->
     <g transform="translate(776.176759 103.425159)scale(0.14 -0.14)">
      <use transform="scale(0.996264)" xlink:href="#CMR17-48"/>
      <use transform="translate(45.690477 0)scale(0.996264)" xlink:href="#CMMI12-58"/>
      <use transform="translate(72.787654 0)scale(0.996264)" xlink:href="#CMR17-50"/>
     </g>
    </g>
   </g>
   <g id="xtick_24">
    <g id="line2d_30">
     <path d="M 766.204152 60.987563 
L 770.820366 61.860979 
" style="fill:none;stroke:#000000;stroke-linecap:square;stroke-width:0.8;"/>
    </g>
    <g id="text_26">
     <!-- $0.3$ -->
     <g transform="translate(778.313343 69.18009)scale(0.14 -0.14)">
      <use transform="scale(0.996264)" xlink:href="#CMR17-48"/>
      <use transform="translate(45.690477 0)scale(0.996264)" xlink:href="#CMMI12-58"/>
      <use transform="translate(72.787654 0)scale(0.996264)" xlink:href="#CMR17-51"/>
     </g>
    </g>
   </g>
  </g>
  <g id="axes_2">
   <g id="Poly3DCollection_18">
    <path clip-path="url(#p093f7b9236)" d="M 589.507524 130.186314 
L 589.507594 130.191968 
L 610.954805 134.789275 
L 610.954782 134.783602 
z
" style="fill:#0cba97;fill-opacity:0.8;"/>
    <path clip-path="url(#p093f7b9236)" d="M 576.689625 138.1798 
L 576.689724 138.185488 
L 589.507594 130.191968 
L 589.507524 130.186314 
z
" style="fill:#065d4c;fill-opacity:0.8;"/>
    <path clip-path="url(#p093f7b9236)" d="M 576.689724 138.185488 
L 598.265964 142.867417 
L 610.954805 134.789275 
L 589.507594 130.191968 
z
" style="fill:#0aa384;fill-opacity:0.8;"/>
    <path clip-path="url(#p093f7b9236)" d="M 576.689625 138.1798 
L 589.507524 130.186314 
L 610.954782 134.783602 
L 598.265913 142.861709 
z
" style="fill:#08745e;fill-opacity:0.8;"/>
    <path clip-path="url(#p093f7b9236)" d="M 598.265913 142.861709 
L 610.954782 134.783602 
L 610.954805 134.789275 
L 598.265964 142.867417 
z
" style="fill:#0cba97;fill-opacity:0.8;"/>
    <path clip-path="url(#p093f7b9236)" d="M 576.689625 138.1798 
L 598.265913 142.861709 
L 598.265964 142.867417 
L 576.689724 138.185488 
z
" style="fill:#065d4c;fill-opacity:0.8;"/>
   </g>
   <g id="Poly3DCollection_19">
    <path clip-path="url(#p093f7b9236)" d="M 632.628646 139.429462 
L 632.627333 139.728299 
L 654.528853 144.424547 
L 654.532726 144.124671 
z
" style="fill:#0cba97;fill-opacity:0.8;"/>
    <path clip-path="url(#p093f7b9236)" d="M 620.072276 147.593543 
L 620.072421 147.894184 
L 632.627333 139.728299 
L 632.628646 139.429462 
z
" style="fill:#065d4c;fill-opacity:0.8;"/>
    <path clip-path="url(#p093f7b9236)" d="M 620.072421 147.894184 
L 642.109966 152.677794 
L 654.528853 144.424547 
L 632.627333 139.728299 
z
" style="fill:#0aa384;fill-opacity:0.8;"/>
    <path clip-path="url(#p093f7b9236)" d="M 620.072276 147.593543 
L 632.628646 139.429462 
L 654.532726 144.124671 
L 642.112414 152.376105 
z
" style="fill:#08745e;fill-opacity:0.8;"/>
    <path clip-path="url(#p093f7b9236)" d="M 642.112414 152.376105 
L 654.532726 144.124671 
L 654.528853 144.424547 
L 642.109966 152.677794 
z
" style="fill:#0cba97;fill-opacity:0.8;"/>
    <path clip-path="url(#p093f7b9236)" d="M 620.072276 147.593543 
L 642.112414 152.376105 
L 642.109966 152.677794 
L 620.072421 147.894184 
z
" style="fill:#065d4c;fill-opacity:0.8;"/>
   </g>
   <g id="Poly3DCollection_20">
    <path clip-path="url(#p093f7b9236)" d="M 563.635325 146.320711 
L 563.640634 146.557243 
L 585.345099 151.326957 
L 585.34177 151.0896 
z
" style="fill:#0cba97;fill-opacity:0.8;"/>
    <path clip-path="url(#p093f7b9236)" d="M 550.338022 154.613162 
L 550.344616 154.851126 
L 563.640634 146.557243 
L 563.635325 146.320711 
z
" style="fill:#065d4c;fill-opacity:0.8;"/>
    <path clip-path="url(#p093f7b9236)" d="M 550.344616 154.851126 
L 572.180338 159.710273 
L 585.345099 151.326957 
L 563.640634 146.557243 
z
" style="fill:#0aa384;fill-opacity:0.8;"/>
    <path clip-path="url(#p093f7b9236)" d="M 550.338022 154.613162 
L 563.635325 146.320711 
L 585.34177 151.0896 
L 572.175748 159.471478 
z
" style="fill:#08745e;fill-opacity:0.8;"/>
    <path clip-path="url(#p093f7b9236)" d="M 572.175748 159.471478 
L 585.34177 151.0896 
L 585.345099 151.326957 
L 572.180338 159.710273 
z
" style="fill:#0cba97;fill-opacity:0.8;"/>
    <path clip-path="url(#p093f7b9236)" d="M 550.338022 154.613162 
L 572.175748 159.471478 
L 572.180338 159.710273 
L 550.344616 154.851126 
z
" style="fill:#065d4c;fill-opacity:0.8;"/>
   </g>
   <g id="Poly3DCollection_21">
    <path clip-path="url(#p093f7b9236)" d="M 676.670711 148.870018 
L 676.831035 141.435926 
L 699.272708 146.206162 
L 699.046368 153.66631 
z
" style="fill:#065d4c;fill-opacity:0.8;"/>
    <path clip-path="url(#p093f7b9236)" d="M 664.390106 157.210214 
L 664.51603 149.730908 
L 676.831035 141.435926 
L 676.670711 148.870018 
z
" style="fill:#0cba97;fill-opacity:0.8;"/>
    <path clip-path="url(#p093f7b9236)" d="M 664.390106 157.210214 
L 676.670711 148.870018 
L 699.046368 153.66631 
L 686.909213 162.096709 
z
" style="fill:#08745e;fill-opacity:0.8;"/>
    <path clip-path="url(#p093f7b9236)" d="M 664.51603 149.730908 
L 687.10201 154.591121 
L 699.272708 146.206162 
L 676.831035 141.435926 
z
" style="fill:#0aa384;fill-opacity:0.8;"/>
    <path clip-path="url(#p093f7b9236)" d="M 686.909213 162.096709 
L 699.046368 153.66631 
L 699.272708 146.206162 
L 687.10201 154.591121 
z
" style="fill:#065d4c;fill-opacity:0.8;"/>
    <path clip-path="url(#p093f7b9236)" d="M 664.390106 157.210214 
L 686.909213 162.096709 
L 687.10201 154.591121 
L 664.51603 149.730908 
z
" style="fill:#0cba97;fill-opacity:0.8;"/>
   </g>
   <g id="Poly3DCollection_22">
    <path clip-path="url(#p093f7b9236)" d="M 607.281836 155.909816 
L 607.275376 154.731397 
L 629.463084 159.599648 
L 629.459314 160.78219 
z
" style="fill:#065d4c;fill-opacity:0.8;"/>
    <path clip-path="url(#p093f7b9236)" d="M 594.250719 164.382575 
L 594.238143 163.197001 
L 607.275376 154.731397 
L 607.281836 155.909816 
z
" style="fill:#0cba97;fill-opacity:0.8;"/>
    <path clip-path="url(#p093f7b9236)" d="M 594.250719 164.382575 
L 607.281836 155.909816 
L 629.459314 160.78219 
L 616.566822 169.347317 
z
" style="fill:#08745e;fill-opacity:0.8;"/>
    <path clip-path="url(#p093f7b9236)" d="M 594.238143 163.197001 
L 616.564604 168.157584 
L 629.463084 159.599648 
L 607.275376 154.731397 
z
" style="fill:#0aa384;fill-opacity:0.8;"/>
    <path clip-path="url(#p093f7b9236)" d="M 616.566822 169.347317 
L 629.459314 160.78219 
L 629.463084 159.599648 
L 616.564604 168.157584 
z
" style="fill:#065d4c;fill-opacity:0.8;"/>
    <path clip-path="url(#p093f7b9236)" d="M 594.250719 164.382575 
L 616.566822 169.347317 
L 616.564604 168.157584 
L 594.238143 163.197001 
z
" style="fill:#0cba97;fill-opacity:0.8;"/>
   </g>
   <g id="Poly3DCollection_23">
    <path clip-path="url(#p093f7b9236)" d="M 721.663544 158.514373 
L 721.663544 158.514373 
L 744.526171 163.415049 
L 744.526171 163.415049 
z
" style="fill:#065d4c;fill-opacity:0.8;"/>
    <path clip-path="url(#p093f7b9236)" d="M 709.673682 167.036445 
L 709.673682 167.036445 
L 721.663544 158.514373 
L 721.663544 158.514373 
z
" style="fill:#065d4c;fill-opacity:0.8;"/>
    <path clip-path="url(#p093f7b9236)" d="M 709.673682 167.036445 
L 721.663544 158.514373 
L 744.526171 163.415049 
L 732.687545 172.030298 
z
" style="fill:#08745e;fill-opacity:0.8;"/>
    <path clip-path="url(#p093f7b9236)" d="M 709.673682 167.036445 
L 732.687545 172.030298 
L 744.526171 163.415049 
L 721.663544 158.514373 
z
" style="fill:#0aa384;fill-opacity:0.8;"/>
    <path clip-path="url(#p093f7b9236)" d="M 732.687545 172.030298 
L 744.526171 163.415049 
L 744.526171 163.415049 
L 732.687545 172.030298 
z
" style="fill:#065d4c;fill-opacity:0.8;"/>
    <path clip-path="url(#p093f7b9236)" d="M 709.673682 167.036445 
L 732.687545 172.030298 
L 732.687545 172.030298 
L 709.673682 167.036445 
z
" style="fill:#065d4c;fill-opacity:0.8;"/>
   </g>
   <g id="Poly3DCollection_24">
    <path clip-path="url(#p093f7b9236)" d="M 536.790868 163.061425 
L 536.578367 156.643741 
L 558.602867 161.571448 
L 558.760992 168.011707 
z
" style="fill:#065d4c;fill-opacity:0.8;"/>
    <path clip-path="url(#p093f7b9236)" d="M 522.986754 171.669933 
L 522.737197 165.213079 
L 536.578367 156.643741 
L 536.790868 163.061425 
z
" style="fill:#0cba97;fill-opacity:0.8;"/>
    <path clip-path="url(#p093f7b9236)" d="M 522.986754 171.669933 
L 536.790868 163.061425 
L 558.760992 168.011707 
L 545.090387 176.714818 
z
" style="fill:#08745e;fill-opacity:0.8;"/>
    <path clip-path="url(#p093f7b9236)" d="M 522.737197 165.213079 
L 544.895862 170.235197 
L 558.602867 161.571448 
L 536.578367 156.643741 
z
" style="fill:#0aa384;fill-opacity:0.8;"/>
    <path clip-path="url(#p093f7b9236)" d="M 545.090387 176.714818 
L 558.760992 168.011707 
L 558.602867 161.571448 
L 544.895862 170.235197 
z
" style="fill:#065d4c;fill-opacity:0.8;"/>
    <path clip-path="url(#p093f7b9236)" d="M 522.986754 171.669933 
L 545.090387 176.714818 
L 544.895862 170.235197 
L 522.737197 165.213079 
z
" style="fill:#0cba97;fill-opacity:0.8;"/>
   </g>
   <g id="Poly3DCollection_25">
    <path clip-path="url(#p093f7b9236)" d="M 651.878079 165.707576 
L 651.878079 165.707576 
L 674.54209 170.686841 
L 674.54209 170.686841 
z
" style="fill:#065d4c;fill-opacity:0.8;"/>
    <path clip-path="url(#p093f7b9236)" d="M 639.128029 174.366588 
L 639.128029 174.366588 
L 651.878079 165.707576 
L 651.878079 165.707576 
z
" style="fill:#065d4c;fill-opacity:0.8;"/>
    <path clip-path="url(#p093f7b9236)" d="M 639.128029 174.366588 
L 651.878079 165.707576 
L 674.54209 170.686841 
L 661.938401 179.441292 
z
" style="fill:#08745e;fill-opacity:0.8;"/>
    <path clip-path="url(#p093f7b9236)" d="M 639.128029 174.366588 
L 661.938401 179.441292 
L 674.54209 170.686841 
L 651.878079 165.707576 
z
" style="fill:#0aa384;fill-opacity:0.8;"/>
    <path clip-path="url(#p093f7b9236)" d="M 661.938401 179.441292 
L 674.54209 170.686841 
L 674.54209 170.686841 
L 661.938401 179.441292 
z
" style="fill:#065d4c;fill-opacity:0.8;"/>
    <path clip-path="url(#p093f7b9236)" d="M 639.128029 174.366588 
L 661.938401 179.441292 
L 661.938401 179.441292 
L 639.128029 174.366588 
z
" style="fill:#065d4c;fill-opacity:0.8;"/>
   </g>
   <g id="Poly3DCollection_26">
    <path clip-path="url(#p093f7b9236)" d="M 580.972067 173.01628 
L 580.972067 173.01628 
L 603.428077 178.076041 
L 603.428077 178.076041 
z
" style="fill:#065d4c;fill-opacity:0.8;"/>
    <path clip-path="url(#p093f7b9236)" d="M 567.438759 181.81556 
L 567.438759 181.81556 
L 580.972067 173.01628 
L 580.972067 173.01628 
z
" style="fill:#065d4c;fill-opacity:0.8;"/>
    <path clip-path="url(#p093f7b9236)" d="M 567.438759 181.81556 
L 580.972067 173.01628 
L 603.428077 178.076041 
L 590.035957 186.973095 
z
" style="fill:#08745e;fill-opacity:0.8;"/>
    <path clip-path="url(#p093f7b9236)" d="M 567.438759 181.81556 
L 590.035957 186.973095 
L 603.428077 178.076041 
L 580.972067 173.01628 
z
" style="fill:#0aa384;fill-opacity:0.8;"/>
    <path clip-path="url(#p093f7b9236)" d="M 590.035957 186.973095 
L 603.428077 178.076041 
L 603.428077 178.076041 
L 590.035957 186.973095 
z
" style="fill:#065d4c;fill-opacity:0.8;"/>
    <path clip-path="url(#p093f7b9236)" d="M 567.438759 181.81556 
L 590.035957 186.973095 
L 590.035957 186.973095 
L 567.438759 181.81556 
z
" style="fill:#065d4c;fill-opacity:0.8;"/>
   </g>
   <g id="Poly3DCollection_27">
    <path clip-path="url(#p093f7b9236)" d="M 697.455394 175.720876 
L 697.229575 183.253979 
L 720.325975 188.370049 
L 720.622126 180.81059 
z
" style="fill:#0cba97;fill-opacity:0.8;"/>
    <path clip-path="url(#p093f7b9236)" d="M 685.002088 184.572352 
L 684.811391 192.151184 
L 697.229575 183.253979 
L 697.455394 175.720876 
z
" style="fill:#065d4c;fill-opacity:0.8;"/>
    <path clip-path="url(#p093f7b9236)" d="M 684.811391 192.151184 
L 708.061358 197.366112 
L 720.325975 188.370049 
L 697.229575 183.253979 
z
" style="fill:#0aa384;fill-opacity:0.8;"/>
    <path clip-path="url(#p093f7b9236)" d="M 685.002088 184.572352 
L 697.455394 175.720876 
L 720.622126 180.81059 
L 708.323334 189.760712 
z
" style="fill:#08745e;fill-opacity:0.8;"/>
    <path clip-path="url(#p093f7b9236)" d="M 708.323334 189.760712 
L 720.622126 180.81059 
L 720.325975 188.370049 
L 708.061358 197.366112 
z
" style="fill:#0cba97;fill-opacity:0.8;"/>
    <path clip-path="url(#p093f7b9236)" d="M 685.002088 184.572352 
L 708.323334 189.760712 
L 708.061358 197.366112 
L 684.811391 192.151184 
z
" style="fill:#065d4c;fill-opacity:0.8;"/>
   </g>
   <g id="Poly3DCollection_28">
    <path clip-path="url(#p093f7b9236)" d="M 508.918299 180.44329 
L 508.918299 180.44329 
L 531.156542 185.585514 
L 531.156542 185.585514 
z
" style="fill:#065d4c;fill-opacity:0.8;"/>
    <path clip-path="url(#p093f7b9236)" d="M 494.577837 189.386275 
L 494.577837 189.386275 
L 508.918299 180.44329 
L 508.918299 180.44329 
z
" style="fill:#065d4c;fill-opacity:0.8;"/>
    <path clip-path="url(#p093f7b9236)" d="M 494.577837 189.386275 
L 516.951781 194.628684 
L 531.156542 185.585514 
L 508.918299 180.44329 
z
" style="fill:#0aa384;fill-opacity:0.8;"/>
    <path clip-path="url(#p093f7b9236)" d="M 494.577837 189.386275 
L 508.918299 180.44329 
L 531.156542 185.585514 
L 516.951781 194.628684 
z
" style="fill:#08745e;fill-opacity:0.8;"/>
    <path clip-path="url(#p093f7b9236)" d="M 516.951781 194.628684 
L 531.156542 185.585514 
L 531.156542 185.585514 
L 516.951781 194.628684 
z
" style="fill:#065d4c;fill-opacity:0.8;"/>
    <path clip-path="url(#p093f7b9236)" d="M 494.577837 189.386275 
L 516.951781 194.628684 
L 516.951781 194.628684 
L 494.577837 189.386275 
z
" style="fill:#065d4c;fill-opacity:0.8;"/>
   </g>
   <g id="Poly3DCollection_29">
    <path clip-path="url(#p093f7b9236)" d="M 626.133096 183.191908 
L 626.130813 184.391966 
L 649.078055 189.569101 
L 649.091291 188.364821 
z
" style="fill:#0cba97;fill-opacity:0.8;"/>
    <path clip-path="url(#p093f7b9236)" d="M 612.88616 192.188374 
L 612.890192 193.395758 
L 626.130813 184.391966 
L 626.133096 183.191908 
z
" style="fill:#065d4c;fill-opacity:0.8;"/>
    <path clip-path="url(#p093f7b9236)" d="M 612.890192 193.395758 
L 635.986577 198.674014 
L 649.078055 189.569101 
L 626.130813 184.391966 
z
" style="fill:#0aa384;fill-opacity:0.8;"/>
    <path clip-path="url(#p093f7b9236)" d="M 612.88616 192.188374 
L 626.133096 183.191908 
L 649.091291 188.364821 
L 635.99364 197.462374 
z
" style="fill:#08745e;fill-opacity:0.8;"/>
    <path clip-path="url(#p093f7b9236)" d="M 635.99364 197.462374 
L 649.091291 188.364821 
L 649.078055 189.569101 
L 635.986577 198.674014 
z
" style="fill:#0cba97;fill-opacity:0.8;"/>
    <path clip-path="url(#p093f7b9236)" d="M 612.88616 192.188374 
L 635.99364 197.462374 
L 635.986577 198.674014 
L 612.890192 193.395758 
z
" style="fill:#065d4c;fill-opacity:0.8;"/>
   </g>
   <g id="Poly3DCollection_30">
    <path clip-path="url(#p093f7b9236)" d="M 553.643399 190.785226 
L 553.817836 197.293869 
L 576.499531 202.574899 
L 576.383061 196.043395 
z
" style="fill:#0cba97;fill-opacity:0.8;"/>
    <path clip-path="url(#p093f7b9236)" d="M 539.578301 199.930274 
L 539.791049 206.478579 
L 553.817836 197.293869 
L 553.643399 190.785226 
z
" style="fill:#065d4c;fill-opacity:0.8;"/>
    <path clip-path="url(#p093f7b9236)" d="M 539.791049 206.478579 
L 562.61575 211.863396 
L 576.499531 202.574899 
L 553.817836 197.293869 
z
" style="fill:#0aa384;fill-opacity:0.8;"/>
    <path clip-path="url(#p093f7b9236)" d="M 539.578301 199.930274 
L 553.643399 190.785226 
L 576.383061 196.043395 
L 562.461697 205.292052 
z
" style="fill:#08745e;fill-opacity:0.8;"/>
    <path clip-path="url(#p093f7b9236)" d="M 562.461697 205.292052 
L 576.383061 196.043395 
L 576.499531 202.574899 
L 562.61575 211.863396 
z
" style="fill:#0cba97;fill-opacity:0.8;"/>
    <path clip-path="url(#p093f7b9236)" d="M 539.578301 199.930274 
L 562.461697 205.292052 
L 562.61575 211.863396 
L 539.791049 206.478579 
z
" style="fill:#065d4c;fill-opacity:0.8;"/>
   </g>
   <g id="Poly3DCollection_31">
    <path clip-path="url(#p093f7b9236)" d="M 672.306918 193.595738 
L 672.313197 193.285186 
L 695.793553 198.573992 
L 695.784332 198.885641 
z
" style="fill:#065d4c;fill-opacity:0.8;"/>
    <path clip-path="url(#p093f7b9236)" d="M 659.362768 202.796092 
L 659.367499 202.483638 
L 672.313197 193.285186 
L 672.306918 193.595738 
z
" style="fill:#0cba97;fill-opacity:0.8;"/>
    <path clip-path="url(#p093f7b9236)" d="M 659.362768 202.796092 
L 672.306918 193.595738 
L 695.784332 198.885641 
L 682.998014 208.190548 
z
" style="fill:#08745e;fill-opacity:0.8;"/>
    <path clip-path="url(#p093f7b9236)" d="M 659.367499 202.483638 
L 683.005727 207.876989 
L 695.793553 198.573992 
L 672.313197 193.285186 
z
" style="fill:#0aa384;fill-opacity:0.8;"/>
    <path clip-path="url(#p093f7b9236)" d="M 682.998014 208.190548 
L 695.784332 198.885641 
L 695.793553 198.573992 
L 683.005727 207.876989 
z
" style="fill:#065d4c;fill-opacity:0.8;"/>
    <path clip-path="url(#p093f7b9236)" d="M 659.362768 202.796092 
L 682.998014 208.190548 
L 683.005727 207.876989 
L 659.367499 202.483638 
z
" style="fill:#0cba97;fill-opacity:0.8;"/>
   </g>
   <g id="Poly3DCollection_32">
    <path clip-path="url(#p093f7b9236)" d="M 599.379815 201.361012 
L 599.377671 201.115201 
L 622.638178 206.492412 
L 622.638048 206.739092 
z
" style="fill:#065d4c;fill-opacity:0.8;"/>
    <path clip-path="url(#p093f7b9236)" d="M 585.606369 210.715049 
L 585.602844 210.46773 
L 599.377671 201.115201 
L 599.379815 201.361012 
z
" style="fill:#0cba97;fill-opacity:0.8;"/>
    <path clip-path="url(#p093f7b9236)" d="M 585.606369 210.715049 
L 599.379815 201.361012 
L 622.638048 206.739092 
L 609.016818 216.200321 
z
" style="fill:#08745e;fill-opacity:0.8;"/>
    <path clip-path="url(#p093f7b9236)" d="M 585.602844 210.46773 
L 609.015597 215.952126 
L 622.638178 206.492412 
L 599.377671 201.115201 
z
" style="fill:#0aa384;fill-opacity:0.8;"/>
    <path clip-path="url(#p093f7b9236)" d="M 609.016818 216.200321 
L 622.638048 206.739092 
L 622.638178 206.492412 
L 609.015597 215.952126 
z
" style="fill:#065d4c;fill-opacity:0.8;"/>
    <path clip-path="url(#p093f7b9236)" d="M 585.606369 210.715049 
L 609.016818 216.200321 
L 609.015597 215.952126 
L 585.602844 210.46773 
z
" style="fill:#0cba97;fill-opacity:0.8;"/>
   </g>
   <g id="Poly3DCollection_33">
    <path clip-path="url(#p093f7b9236)" d="M 646.162243 212.178672 
L 646.162302 212.172684 
L 669.957105 217.674802 
L 669.956988 217.680811 
z
" style="fill:#065d4c;fill-opacity:0.8;"/>
    <path clip-path="url(#p093f7b9236)" d="M 632.697647 221.748944 
L 632.697675 221.74292 
L 646.162302 212.172684 
L 646.162243 212.178672 
z
" style="fill:#0cba97;fill-opacity:0.8;"/>
    <path clip-path="url(#p093f7b9236)" d="M 632.697647 221.748944 
L 646.162243 212.178672 
L 669.956988 217.680811 
L 656.653569 227.362025 
z
" style="fill:#08745e;fill-opacity:0.8;"/>
    <path clip-path="url(#p093f7b9236)" d="M 632.697675 221.74292 
L 656.653655 227.355979 
L 669.957105 217.674802 
L 646.162302 212.172684 
z
" style="fill:#0aa384;fill-opacity:0.8;"/>
    <path clip-path="url(#p093f7b9236)" d="M 656.653569 227.362025 
L 669.956988 217.680811 
L 669.957105 217.674802 
L 656.653655 227.355979 
z
" style="fill:#065d4c;fill-opacity:0.8;"/>
    <path clip-path="url(#p093f7b9236)" d="M 632.697647 221.748944 
L 656.653569 227.362025 
L 656.653655 227.355979 
L 632.697675 221.74292 
z
" style="fill:#0cba97;fill-opacity:0.8;"/>
   </g>
   <g id="Poly3DCollection_34">
    <path clip-path="url(#p093f7b9236)" d="M 481.704571 190.723889 
L 660.404636 232.790678 
L 756.659218 162.154348 
L 586.500899 125.835038 
z
" style="fill-opacity:0.2;"/>
   </g>
  </g>
 </g>
 <defs>
  <clipPath id="p79df18398f">
   <rect height="277.2" width="380.454545" x="-30.6" y="-14.4"/>
  </clipPath>
  <clipPath id="p093f7b9236">
   <rect height="277.2" width="380.454545" x="425.945455" y="-14.4"/>
  </clipPath>
 </defs>
</svg>
