<?xml version="1.0" encoding="utf-8" standalone="no"?>
<!DOCTYPE svg PUBLIC "-//W3C//DTD SVG 1.1//EN"
  "http://www.w3.org/Graphics/SVG/1.1/DTD/svg11.dtd">
<!-- Created with matplotlib (https://matplotlib.org/) -->
<svg height="302.4pt" version="1.1" viewBox="0 0 820.8 302.4" width="820.8pt" xmlns="http://www.w3.org/2000/svg" xmlns:xlink="http://www.w3.org/1999/xlink">
 <defs>
  <style type="text/css">
*{stroke-linecap:butt;stroke-linejoin:round;}
  </style>
 </defs>
 <g id="figure_1">
  <g id="patch_1">
   <path d="M 0 302.4 
L 820.8 302.4 
L 820.8 0 
L 0 0 
z
" style="fill:#ffffff;"/>
  </g>
  <g id="patch_2">
   <path d="M -30.6 262.8 
L 349.854545 262.8 
L 349.854545 -14.4 
L -30.6 -14.4 
z
" style="fill:#ffffff;"/>
  </g>
  <g id="pane3d_1">
   <g id="patch_3">
    <path d="M 19.835129 201.548569 
L 128.723211 133.58541 
L 126.910339 3.718968 
L 11.951034 64.782468 
" style="fill:#f2f2f2;opacity:0.5;stroke:#f2f2f2;stroke-linejoin:miter;"/>
   </g>
  </g>
  <g id="pane3d_2">
   <g id="patch_4">
    <path d="M 128.723211 133.58541 
L 305.111665 171.581202 
L 312.491547 37.79869 
L 126.910339 3.718968 
" style="fill:#e6e6e6;opacity:0.5;stroke:#e6e6e6;stroke-linejoin:miter;"/>
   </g>
  </g>
  <g id="pane3d_3">
   <g id="patch_5">
    <path d="M 19.835129 201.548569 
L 205.419617 245.80086 
L 305.111665 171.581202 
L 128.723211 133.58541 
" style="fill:#ececec;opacity:0.5;stroke:#ececec;stroke-linejoin:miter;"/>
   </g>
  </g>
  <g id="axis3d_1">
   <g id="line2d_1">
    <path d="M 19.835129 201.548569 
L 205.419617 245.80086 
" style="fill:none;stroke:#000000;stroke-linecap:square;stroke-width:0.8;"/>
   </g>
   <g id="Line3DCollection_1">
    <path d="M 42.295817 206.90428 
L 150.133942 138.19749 
L 149.393845 7.847789 
" style="fill:none;stroke:#b0b0b0;stroke-width:0.8;"/>
    <path d="M 87.512337 217.686079 
L 193.184014 147.470895 
L 194.636898 16.156123 
" style="fill:none;stroke:#b0b0b0;stroke-width:0.8;"/>
    <path d="M 133.765289 228.715013 
L 237.148096 156.941187 
L 240.890183 24.649974 
" style="fill:none;stroke:#b0b0b0;stroke-width:0.8;"/>
    <path d="M 181.090721 239.999678 
L 282.055608 166.614702 
L 288.187917 33.335625 
" style="fill:none;stroke:#b0b0b0;stroke-width:0.8;"/>
   </g>
   <g id="xtick_1">
    <g id="line2d_2">
     <path d="M 43.225084 206.312217 
L 40.433807 208.09062 
" style="fill:none;stroke:#000000;stroke-linecap:square;stroke-width:0.8;"/>
    </g>
    <g id="text_1">
     <!-- 00 -->
     <defs>
      <path d="M 42 31.84375 
C 42 37.96875 41.90625 48.421875 37.703125 56.453125 
C 34 63.484375 28.09375 66 22.90625 66 
C 18.09375 66 12 63.78125 8.203125 56.5625 
C 4.203125 49.015625 3.796875 39.671875 3.796875 31.84375 
C 3.796875 26.109375 3.90625 17.375 7 9.734375 
C 11.296875 -0.609375 19 -2 22.90625 -2 
C 27.5 -2 34.5 -0.109375 38.59375 9.4375 
C 41.59375 16.375 42 24.5 42 31.84375 
z
M 22.90625 -0.40625 
C 16.5 -0.40625 12.703125 5.125 11.296875 12.75 
C 10.203125 18.6875 10.203125 27.328125 10.203125 32.953125 
C 10.203125 40.6875 10.203125 47.109375 11.5 53.234375 
C 13.40625 61.78125 19 64.390625 22.90625 64.390625 
C 27 64.390625 32.296875 61.671875 34.203125 53.4375 
C 35.5 47.71875 35.59375 40.984375 35.59375 32.953125 
C 35.59375 26.421875 35.59375 18.375 34.40625 12.453125 
C 32.296875 1.5 26.40625 -0.40625 22.90625 -0.40625 
z
" id="CMR17-48"/>
     </defs>
     <g transform="translate(23.330362 237.14703)rotate(-45)scale(0.14 -0.14)">
      <use transform="scale(0.996264)" xlink:href="#CMR17-48"/>
      <use transform="translate(45.690477 0)scale(0.996264)" xlink:href="#CMR17-48"/>
     </g>
    </g>
   </g>
   <g id="xtick_2">
    <g id="line2d_3">
     <path d="M 88.423674 217.080527 
L 85.686217 218.899473 
" style="fill:none;stroke:#000000;stroke-linecap:square;stroke-width:0.8;"/>
    </g>
    <g id="text_2">
     <!-- 01 -->
     <defs>
      <path d="M 26.59375 63.796875 
C 26.59375 65.890625 26.5 66 25.09375 66 
C 21.203125 61.359375 15.296875 59.890625 9.703125 59.6875 
C 9.40625 59.6875 8.90625 59.6875 8.796875 59.5 
C 8.703125 59.296875 8.703125 59.09375 8.703125 57 
C 11.796875 57 17 57.59375 21 59.984375 
L 21 7.296875 
C 21 3.796875 20.796875 2.59375 12.203125 2.59375 
L 9.203125 2.59375 
L 9.203125 0 
C 14 0.09375 19 0.1875 23.796875 0.1875 
C 28.59375 0.1875 33.59375 0.09375 38.40625 0 
L 38.40625 2.59375 
L 35.40625 2.59375 
C 26.796875 2.59375 26.59375 3.6875 26.59375 7.296875 
z
" id="CMR17-49"/>
     </defs>
     <g transform="translate(68.542787 248.103782)rotate(-45)scale(0.14 -0.14)">
      <use transform="scale(0.996264)" xlink:href="#CMR17-48"/>
      <use transform="translate(45.690477 0)scale(0.996264)" xlink:href="#CMR17-49"/>
     </g>
    </g>
   </g>
   <g id="xtick_3">
    <g id="line2d_4">
     <path d="M 134.657625 228.095506 
L 131.977203 229.956397 
" style="fill:none;stroke:#000000;stroke-linecap:square;stroke-width:0.8;"/>
    </g>
    <g id="text_3">
     <!-- 10 -->
     <g transform="translate(114.7934 259.312128)rotate(-45)scale(0.14 -0.14)">
      <use transform="scale(0.996264)" xlink:href="#CMR17-49"/>
      <use transform="translate(45.690477 0)scale(0.996264)" xlink:href="#CMR17-48"/>
     </g>
    </g>
   </g>
   <g id="xtick_4">
    <g id="line2d_5">
     <path d="M 181.962926 239.365727 
L 179.342936 241.270032 
" style="fill:none;stroke:#000000;stroke-linecap:square;stroke-width:0.8;"/>
    </g>
    <g id="text_4">
     <!-- 11 -->
     <g transform="translate(162.118375 270.780834)rotate(-45)scale(0.14 -0.14)">
      <use transform="scale(0.996264)" xlink:href="#CMR17-49"/>
      <use transform="translate(45.690477 0)scale(0.996264)" xlink:href="#CMR17-49"/>
     </g>
    </g>
   </g>
  </g>
  <g id="axis3d_2">
   <g id="line2d_6">
    <path d="M 305.111665 171.581202 
L 205.419617 245.80086 
" style="fill:none;stroke:#000000;stroke-linecap:square;stroke-width:0.8;"/>
   </g>
   <g id="Line3DCollection_2">
    <path d="M 27.455231 56.547028 
L 34.471044 192.413474 
L 218.858418 235.795817 
" style="fill:none;stroke:#b0b0b0;stroke-width:0.8;"/>
    <path d="M 57.232024 40.730342 
L 62.623407 174.842005 
L 244.674037 216.576366 
" style="fill:none;stroke:#b0b0b0;stroke-width:0.8;"/>
    <path d="M 85.85589 25.526062 
L 89.739382 157.917404 
L 269.496985 198.095948 
" style="fill:none;stroke:#b0b0b0;stroke-width:0.8;"/>
    <path d="M 113.392516 10.899296 
L 115.875164 141.604597 
L 293.383438 180.312741 
" style="fill:none;stroke:#b0b0b0;stroke-width:0.8;"/>
   </g>
   <g id="xtick_5">
    <g id="line2d_7">
     <path d="M 217.315598 235.432825 
L 221.947489 236.522608 
" style="fill:none;stroke:#000000;stroke-linecap:square;stroke-width:0.8;"/>
    </g>
    <g id="text_5">
     <!-- 00 -->
     <g transform="translate(232.650369 248.348363)rotate(-337.5)scale(0.14 -0.14)">
      <use transform="scale(0.996264)" xlink:href="#CMR17-48"/>
      <use transform="translate(45.690477 0)scale(0.996264)" xlink:href="#CMR17-48"/>
     </g>
    </g>
   </g>
   <g id="xtick_6">
    <g id="line2d_8">
     <path d="M 243.15208 216.227463 
L 247.72127 217.274932 
" style="fill:none;stroke:#000000;stroke-linecap:square;stroke-width:0.8;"/>
    </g>
    <g id="text_6">
     <!-- 01 -->
     <g transform="translate(258.203921 228.903937)rotate(-337.5)scale(0.14 -0.14)">
      <use transform="scale(0.996264)" xlink:href="#CMR17-48"/>
      <use transform="translate(45.690477 0)scale(0.996264)" xlink:href="#CMR17-49"/>
     </g>
    </g>
   </g>
   <g id="xtick_7">
    <g id="line2d_9">
     <path d="M 267.995442 197.76033 
L 272.503283 198.767901 
" style="fill:none;stroke:#000000;stroke-linecap:square;stroke-width:0.8;"/>
    </g>
    <g id="text_7">
     <!-- 10 -->
     <g transform="translate(282.775332 210.206849)rotate(-337.5)scale(0.14 -0.14)">
      <use transform="scale(0.996264)" xlink:href="#CMR17-49"/>
      <use transform="translate(45.690477 0)scale(0.996264)" xlink:href="#CMR17-48"/>
     </g>
    </g>
   </g>
   <g id="xtick_8">
    <g id="line2d_10">
     <path d="M 291.901865 179.989663 
L 296.349691 180.959573 
" style="fill:none;stroke:#000000;stroke-linecap:square;stroke-width:0.8;"/>
    </g>
    <g id="text_8">
     <!-- 11 -->
     <g transform="translate(306.420159 192.214827)rotate(-337.5)scale(0.14 -0.14)">
      <use transform="scale(0.996264)" xlink:href="#CMR17-49"/>
      <use transform="translate(45.690477 0)scale(0.996264)" xlink:href="#CMR17-49"/>
     </g>
    </g>
   </g>
  </g>
  <g id="axis3d_3">
   <g id="line2d_11">
    <path d="M 305.111665 171.581202 
L 312.491547 37.79869 
" style="fill:none;stroke:#000000;stroke-linecap:square;stroke-width:0.8;"/>
   </g>
   <g id="text_9">
    <!-- Re[$\rho$] -->
    <defs>
     <path d="M 39.203125 33.6875 
C 48.703125 35.59375 56.703125 42.015625 56.703125 50.046875 
C 56.703125 59.46875 46.09375 68 32.09375 68 
L 5.203125 68 
L 5.203125 65.390625 
C 12.09375 65.390625 13.203125 65.390625 13.203125 60.875 
L 13.203125 6.6875 
C 13.203125 2.1875 12.09375 2.1875 5.203125 2.1875 
L 5.203125 -0.40625 
C 8.09375 -0.203125 13.296875 -0.203125 16.40625 -0.203125 
C 19.5 -0.203125 24.703125 -0.203125 27.59375 -0.40625 
L 27.59375 2.1875 
C 20.703125 2.1875 19.59375 2.1875 19.59375 6.6875 
L 19.59375 33 
L 31.296875 33 
C 37 33 40.203125 30.6875 41.59375 29.390625 
C 45.59375 25.5 45.59375 22.796875 45.59375 16 
C 45.59375 9.296875 45.59375 5.890625 48.59375 2.5 
C 52.40625 -1.609375 57.5 -2 59.703125 -2 
C 67.09375 -2 68.203125 6.296875 68.203125 8 
C 68.203125 8.59375 68.203125 9.296875 67.296875 9.296875 
C 66.5 9.296875 66.40625 8.6875 66.40625 8.296875 
C 65.90625 1.796875 63 -0.40625 59.90625 -0.40625 
C 54.40625 -0.40625 53.796875 5.890625 53.203125 12 
C 52.90625 14.09375 52.703125 15.59375 52.5 17.796875 
C 51.90625 22.796875 51.09375 30.09375 39.203125 33.6875 
z
M 31 34.59375 
L 19.59375 34.59375 
L 19.59375 61.484375 
C 19.59375 64.890625 19.796875 65.390625 23.796875 65.390625 
L 31.09375 65.390625 
C 39.40625 65.390625 49.09375 62.484375 49.09375 50.046875 
C 49.09375 37.09375 38.5 34.59375 31 34.59375 
z
" id="CMR17-82"/>
     <path d="M 38.09375 23.484375 
C 38.5 23.890625 38.5 24.09375 38.5 25.09375 
C 38.5 35.171875 33.09375 44 21.703125 44 
C 11.09375 44 2.703125 33.984375 2.703125 21.78125 
C 2.703125 8.65625 12.203125 -1 22.796875 -1 
C 34 -1 38.40625 9.671875 38.40625 11.796875 
C 38.40625 12.5 37.796875 12.5 37.59375 12.5 
C 36.90625 12.5 36.796875 12.296875 36.40625 11.078125 
C 34.203125 4.21875 28.703125 0.796875 23.5 0.796875 
C 19.203125 0.796875 14.90625 3.21875 12.203125 7.65625 
C 9.09375 12.796875 9.09375 18.75 9.09375 23.484375 
z
M 9.203125 25 
C 9.90625 39.234375 17.59375 42.390625 21.59375 42.390625 
C 28.40625 42.390625 33 36.0625 33.09375 25 
z
" id="CMR17-101"/>
     <path d="M 23.5 -25 
L 23.5 -21.5 
L 14.09375 -21.5 
L 14.09375 71.484375 
L 23.5 71.484375 
L 23.5 75 
L 10.59375 75 
L 10.59375 -25 
z
" id="CMR17-91"/>
     <path d="M 3.09375 -16.953125 
C 3 -17.4375 2.796875 -18.03125 2.796875 -18.609375 
C 2.796875 -20.109375 4 -21.109375 5.5 -21.109375 
C 7 -21.109375 8.40625 -20.109375 9 -18.71875 
C 9.40625 -17.828125 12.203125 -6.09375 15.40625 6.078125 
C 17.40625 1.09375 21.09375 -1 25 -1 
C 36.296875 -1 49.09375 12.96875 49.09375 28.03125 
C 49.09375 38.703125 42.59375 44 35.703125 44 
C 26.90625 44 16.203125 34.90625 12.90625 21.640625 
z
M 24.90625 1 
C 18.09375 1 16.40625 8.875 16.40625 10.078125 
C 16.40625 10.671875 18.90625 20.140625 19.203125 21.640625 
C 24.296875 41.5 34.09375 41.984375 35.59375 41.984375 
C 40.09375 41.984375 42.59375 37.90625 42.59375 32.015625 
C 42.59375 26.9375 39.90625 17.046875 38.203125 12.859375 
C 35.203125 5.984375 30 1 24.90625 1 
z
" id="CMMI12-26"/>
     <path d="M 14.296875 75 
L 1.40625 75 
L 1.40625 71.484375 
L 10.796875 71.484375 
L 10.796875 -21.5 
L 1.40625 -21.5 
L 1.40625 -25 
L 14.296875 -25 
z
" id="CMR17-93"/>
    </defs>
    <g transform="translate(352.486567 117.931831)rotate(-86.842577)scale(0.14 -0.14)">
     <use transform="scale(0.996264)" xlink:href="#CMR17-82"/>
     <use transform="translate(67.791102 0)scale(0.996264)" xlink:href="#CMR17-101"/>
     <use transform="translate(108.276762 0)scale(0.996264)" xlink:href="#CMR17-91"/>
     <use transform="translate(133.147821 0)scale(0.996264)" xlink:href="#CMMI12-26"/>
     <use transform="translate(183.462194 0)scale(0.996264)" xlink:href="#CMR17-93"/>
    </g>
   </g>
   <g id="Line3DCollection_3">
    <path d="M 305.809589 158.929237 
L 128.551427 121.279548 
L 19.090682 188.634588 
" style="fill:none;stroke:#b0b0b0;stroke-width:0.8;"/>
    <path d="M 307.592104 126.615803 
L 128.113008 89.873088 
L 17.188248 155.632881 
" style="fill:none;stroke:#b0b0b0;stroke-width:0.8;"/>
    <path d="M 309.420251 93.475142 
L 127.663845 57.696942 
L 15.235467 121.757816 
" style="fill:none;stroke:#b0b0b0;stroke-width:0.8;"/>
    <path d="M 311.295806 59.475077 
L 127.203538 24.722465 
L 13.230314 86.974262 
" style="fill:none;stroke:#b0b0b0;stroke-width:0.8;"/>
   </g>
   <g id="xtick_9">
    <g id="line2d_12">
     <path d="M 304.330381 158.615053 
L 308.771094 159.558262 
" style="fill:none;stroke:#000000;stroke-linecap:square;stroke-width:0.8;"/>
    </g>
    <g id="text_10">
     <!-- $0.0$ -->
     <defs>
      <path d="M 18.40625 4.796875 
C 18.40625 7.6875 16 9.6875 13.59375 9.6875 
C 10.703125 9.6875 8.703125 7.296875 8.703125 4.890625 
C 8.703125 2 11.09375 0 13.5 0 
C 16.40625 0 18.40625 2.390625 18.40625 4.796875 
z
" id="CMMI12-58"/>
     </defs>
     <g transform="translate(315.684269 166.688074)scale(0.14 -0.14)">
      <use transform="scale(0.996264)" xlink:href="#CMR17-48"/>
      <use transform="translate(45.690477 0)scale(0.996264)" xlink:href="#CMMI12-58"/>
      <use transform="translate(72.787654 0)scale(0.996264)" xlink:href="#CMR17-48"/>
     </g>
    </g>
   </g>
   <g id="xtick_10">
    <g id="line2d_13">
     <path d="M 306.09358 126.309027 
L 310.59232 127.230003 
" style="fill:none;stroke:#000000;stroke-linecap:square;stroke-width:0.8;"/>
    </g>
    <g id="text_11">
     <!-- $0.1$ -->
     <g transform="translate(317.697499 134.420122)scale(0.14 -0.14)">
      <use transform="scale(0.996264)" xlink:href="#CMR17-48"/>
      <use transform="translate(45.690477 0)scale(0.996264)" xlink:href="#CMMI12-58"/>
      <use transform="translate(72.787654 0)scale(0.996264)" xlink:href="#CMR17-49"/>
     </g>
    </g>
   </g>
   <g id="xtick_11">
    <g id="line2d_14">
     <path d="M 307.901902 93.176259 
L 312.460203 94.073547 
" style="fill:none;stroke:#000000;stroke-linecap:square;stroke-width:0.8;"/>
    </g>
    <g id="text_12">
     <!-- $0.2$ -->
     <defs>
      <path d="M 41.703125 15.46875 
L 39.90625 15.46875 
C 38.90625 8.390625 38.09375 7.1875 37.703125 6.59375 
C 37.203125 5.796875 30 5.796875 28.59375 5.796875 
L 9.40625 5.796875 
C 13 9.6875 20 16.765625 28.5 24.9375 
C 34.59375 30.71875 41.703125 37.5 41.703125 47.390625 
C 41.703125 59.1875 32.296875 66 21.796875 66 
C 10.796875 66 4.09375 56.296875 4.09375 47.296875 
C 4.09375 43.390625 7 42.890625 8.203125 42.890625 
C 9.203125 42.890625 12.203125 43.484375 12.203125 46.984375 
C 12.203125 50.09375 9.59375 51 8.203125 51 
C 7.59375 51 7 50.890625 6.59375 50.6875 
C 8.5 59.1875 14.296875 63.390625 20.40625 63.390625 
C 29.09375 63.390625 34.796875 56.5 34.796875 47.390625 
C 34.796875 38.703125 29.703125 31.21875 24 24.734375 
L 4.09375 2.296875 
L 4.09375 0 
L 39.296875 0 
z
" id="CMR17-50"/>
     </defs>
     <g transform="translate(319.762154 101.327915)scale(0.14 -0.14)">
      <use transform="scale(0.996264)" xlink:href="#CMR17-48"/>
      <use transform="translate(45.690477 0)scale(0.996264)" xlink:href="#CMMI12-58"/>
      <use transform="translate(72.787654 0)scale(0.996264)" xlink:href="#CMR17-50"/>
     </g>
    </g>
   </g>
   <g id="xtick_12">
    <g id="line2d_15">
     <path d="M 309.757099 59.184603 
L 314.376559 60.056656 
" style="fill:none;stroke:#000000;stroke-linecap:square;stroke-width:0.8;"/>
    </g>
    <g id="text_13">
     <!-- $0.3$ -->
     <defs>
      <path d="M 22.09375 34 
C 31 34 34.90625 26.140625 34.90625 17.09375 
C 34.90625 5.03125 28.5 0.390625 22.703125 0.390625 
C 17.40625 0.390625 8.796875 3.015625 6.09375 10.796875 
C 6.59375 10.59375 7.09375 10.59375 7.59375 10.59375 
C 10 10.59375 11.796875 12.1875 11.796875 14.796875 
C 11.796875 17.6875 9.59375 19 7.59375 19 
C 5.90625 19 3.296875 18.1875 3.296875 14.484375 
C 3.296875 5.234375 12.296875 -2 22.90625 -2 
C 34 -2 42.5 6.75 42.5 16.984375 
C 42.5 26.84375 34.5 34 25 35.09375 
C 32.59375 36.671875 39.90625 43.375 39.90625 52.390625 
C 39.90625 60.25 32 66 23 66 
C 13.90625 66 5.90625 60.34375 5.90625 52.296875 
C 5.90625 48.796875 8.5 48.1875 9.796875 48.1875 
C 11.90625 48.1875 13.703125 49.484375 13.703125 52.09375 
C 13.703125 54.6875 11.90625 56 9.796875 56 
C 9.40625 56 8.90625 56 8.5 55.796875 
C 11.40625 62.484375 19.296875 63.6875 22.796875 63.6875 
C 26.296875 63.6875 32.90625 61.96875 32.90625 52.296875 
C 32.90625 49.484375 32.5 44.546875 29.09375 40.21875 
C 26.09375 36.390625 22.703125 36.1875 19.40625 35.890625 
C 18.90625 35.890625 16.59375 35.6875 16.203125 35.6875 
C 15.5 35.59375 15.09375 35.5 15.09375 34.796875 
C 15.09375 34.09375 15.203125 34 17.203125 34 
z
" id="CMR17-51"/>
     </defs>
     <g transform="translate(321.880231 67.379461)scale(0.14 -0.14)">
      <use transform="scale(0.996264)" xlink:href="#CMR17-48"/>
      <use transform="translate(45.690477 0)scale(0.996264)" xlink:href="#CMMI12-58"/>
      <use transform="translate(72.787654 0)scale(0.996264)" xlink:href="#CMR17-51"/>
     </g>
    </g>
   </g>
  </g>
  <g id="axes_1">
   <g id="Poly3DCollection_1">
    <path clip-path="url(#p659f05a6d8)" d="M 132.930233 127.598268 
L 132.797735 116.827574 
L 154.355521 121.378173 
L 154.398903 132.186567 
z
" style="fill:#5d0618;fill-opacity:0.8;"/>
    <path clip-path="url(#p659f05a6d8)" d="M 120.099094 135.576157 
L 119.911491 124.74004 
L 132.797735 116.827574 
L 132.930233 127.598268 
z
" style="fill:#ba0c2f;fill-opacity:0.8;"/>
    <path clip-path="url(#p659f05a6d8)" d="M 120.099094 135.576157 
L 132.930233 127.598268 
L 154.398903 132.186567 
L 141.697054 140.248999 
z
" style="fill:#74081d;fill-opacity:0.8;"/>
    <path clip-path="url(#p659f05a6d8)" d="M 119.911491 124.74004 
L 141.599641 129.374842 
L 154.355521 121.378173 
L 132.797735 116.827574 
z
" style="fill:#a30a29;fill-opacity:0.8;"/>
    <path clip-path="url(#p659f05a6d8)" d="M 141.697054 140.248999 
L 154.398903 132.186567 
L 154.355521 121.378173 
L 141.599641 129.374842 
z
" style="fill:#5d0618;fill-opacity:0.8;"/>
    <path clip-path="url(#p659f05a6d8)" d="M 120.099094 135.576157 
L 141.697054 140.248999 
L 141.599641 129.374842 
L 119.911491 124.74004 
z
" style="fill:#ba0c2f;fill-opacity:0.8;"/>
   </g>
   <g id="Poly3DCollection_2">
    <path clip-path="url(#p659f05a6d8)" d="M 176.094636 136.823394 
L 176.117745 131.561594 
L 198.08926 136.229304 
L 198.021053 141.509523 
z
" style="fill:#5d0618;fill-opacity:0.8;"/>
    <path clip-path="url(#p659f05a6d8)" d="M 163.525554 144.971719 
L 163.522994 139.677957 
L 176.117745 131.561594 
L 176.094636 136.823394 
z
" style="fill:#ba0c2f;fill-opacity:0.8;"/>
    <path clip-path="url(#p659f05a6d8)" d="M 163.525554 144.971719 
L 176.094636 136.823394 
L 198.021053 141.509523 
L 185.588306 149.745121 
z
" style="fill:#74081d;fill-opacity:0.8;"/>
    <path clip-path="url(#p659f05a6d8)" d="M 163.522994 139.677957 
L 185.631409 144.432778 
L 198.08926 136.229304 
L 176.117745 131.561594 
z
" style="fill:#a30a29;fill-opacity:0.8;"/>
    <path clip-path="url(#p659f05a6d8)" d="M 185.588306 149.745121 
L 198.021053 141.509523 
L 198.08926 136.229304 
L 185.631409 144.432778 
z
" style="fill:#5d0618;fill-opacity:0.8;"/>
    <path clip-path="url(#p659f05a6d8)" d="M 163.525554 144.971719 
L 185.588306 149.745121 
L 185.631409 144.432778 
L 163.522994 139.677957 
z
" style="fill:#ba0c2f;fill-opacity:0.8;"/>
   </g>
   <g id="Poly3DCollection_3">
    <path clip-path="url(#p659f05a6d8)" d="M 107.03107 143.701333 
L 107.017153 143.081391 
L 128.750721 147.838964 
L 128.759447 148.461075 
z
" style="fill:#5d0618;fill-opacity:0.8;"/>
    <path clip-path="url(#p659f05a6d8)" d="M 93.719536 151.977912 
L 93.702252 151.354206 
L 107.017153 143.081391 
L 107.03107 143.701333 
z
" style="fill:#ba0c2f;fill-opacity:0.8;"/>
    <path clip-path="url(#p659f05a6d8)" d="M 93.719536 151.977912 
L 107.03107 143.701333 
L 128.759447 148.461075 
L 115.579459 156.827002 
z
" style="fill:#74081d;fill-opacity:0.8;"/>
    <path clip-path="url(#p659f05a6d8)" d="M 93.702252 151.354206 
L 115.567428 156.201108 
L 128.750721 147.838964 
L 107.017153 143.081391 
z
" style="fill:#a30a29;fill-opacity:0.8;"/>
    <path clip-path="url(#p659f05a6d8)" d="M 115.579459 156.827002 
L 128.759447 148.461075 
L 128.750721 147.838964 
L 115.567428 156.201108 
z
" style="fill:#5d0618;fill-opacity:0.8;"/>
    <path clip-path="url(#p659f05a6d8)" d="M 93.719536 151.977912 
L 115.579459 156.827002 
L 115.567428 156.201108 
L 93.702252 151.354206 
z
" style="fill:#ba0c2f;fill-opacity:0.8;"/>
   </g>
   <g id="Poly3DCollection_4">
    <path clip-path="url(#p659f05a6d8)" d="M 220.181852 146.245744 
L 219.965857 156.261297 
L 242.275884 161.083265 
L 242.580812 151.032865 
z
" style="fill:#ba0c2f;fill-opacity:0.8;"/>
    <path clip-path="url(#p659f05a6d8)" d="M 207.889102 154.570025 
L 207.719458 164.646045 
L 219.965857 156.261297 
L 220.181852 146.245744 
z
" style="fill:#5d0618;fill-opacity:0.8;"/>
    <path clip-path="url(#p659f05a6d8)" d="M 207.719458 164.646045 
L 230.172089 169.558433 
L 242.275884 161.083265 
L 219.965857 156.261297 
z
" style="fill:#a30a29;fill-opacity:0.8;"/>
    <path clip-path="url(#p659f05a6d8)" d="M 207.889102 154.570025 
L 220.181852 146.245744 
L 242.580812 151.032865 
L 230.431815 159.44727 
z
" style="fill:#74081d;fill-opacity:0.8;"/>
    <path clip-path="url(#p659f05a6d8)" d="M 230.431815 159.44727 
L 242.580812 151.032865 
L 242.275884 161.083265 
L 230.172089 169.558433 
z
" style="fill:#ba0c2f;fill-opacity:0.8;"/>
    <path clip-path="url(#p659f05a6d8)" d="M 207.889102 154.570025 
L 230.431815 159.44727 
L 230.172089 169.558433 
L 207.719458 164.646045 
z
" style="fill:#5d0618;fill-opacity:0.8;"/>
   </g>
   <g id="Poly3DCollection_5">
    <path clip-path="url(#p659f05a6d8)" d="M 150.721922 153.272098 
L 150.721034 153.110117 
L 172.922817 157.972686 
L 172.922298 158.135234 
z
" style="fill:#5d0618;fill-opacity:0.8;"/>
    <path clip-path="url(#p659f05a6d8)" d="M 137.677115 161.728827 
L 137.675386 161.56586 
L 150.721034 153.110117 
L 150.721922 153.272098 
z
" style="fill:#ba0c2f;fill-opacity:0.8;"/>
    <path clip-path="url(#p659f05a6d8)" d="M 137.677115 161.728827 
L 150.721922 153.272098 
L 172.922298 158.135234 
L 160.016402 166.684253 
z
" style="fill:#74081d;fill-opacity:0.8;"/>
    <path clip-path="url(#p659f05a6d8)" d="M 137.675386 161.56586 
L 160.016097 166.520713 
L 172.922817 157.972686 
L 150.721034 153.110117 
z
" style="fill:#a30a29;fill-opacity:0.8;"/>
    <path clip-path="url(#p659f05a6d8)" d="M 160.016402 166.684253 
L 172.922298 158.135234 
L 172.922817 157.972686 
L 160.016097 166.520713 
z
" style="fill:#5d0618;fill-opacity:0.8;"/>
    <path clip-path="url(#p659f05a6d8)" d="M 137.677115 161.728827 
L 160.016402 166.684253 
L 160.016097 166.520713 
L 137.675386 161.56586 
z
" style="fill:#ba0c2f;fill-opacity:0.8;"/>
   </g>
   <g id="Poly3DCollection_6">
    <path clip-path="url(#p659f05a6d8)" d="M 80.157625 160.410166 
L 79.82031 150.223 
L 101.899207 155.127944 
L 102.150214 165.351144 
z
" style="fill:#5d0618;fill-opacity:0.8;"/>
    <path clip-path="url(#p659f05a6d8)" d="M 66.338204 169.00253 
L 65.942055 158.75284 
L 79.82031 150.223 
L 80.157625 160.410166 
z
" style="fill:#ba0c2f;fill-opacity:0.8;"/>
    <path clip-path="url(#p659f05a6d8)" d="M 66.338204 169.00253 
L 80.157625 160.410166 
L 102.150214 165.351144 
L 88.464572 174.038031 
z
" style="fill:#74081d;fill-opacity:0.8;"/>
    <path clip-path="url(#p659f05a6d8)" d="M 65.942055 158.75284 
L 88.155775 163.752 
L 101.899207 155.127944 
L 79.82031 150.223 
z
" style="fill:#a30a29;fill-opacity:0.8;"/>
    <path clip-path="url(#p659f05a6d8)" d="M 88.464572 174.038031 
L 102.150214 165.351144 
L 101.899207 155.127944 
L 88.155775 163.752 
z
" style="fill:#5d0618;fill-opacity:0.8;"/>
    <path clip-path="url(#p659f05a6d8)" d="M 66.338204 169.00253 
L 88.464572 174.038031 
L 88.155775 163.752 
L 65.942055 158.75284 
z
" style="fill:#ba0c2f;fill-opacity:0.8;"/>
   </g>
   <g id="Poly3DCollection_7">
    <path clip-path="url(#p659f05a6d8)" d="M 240.990126 173.045934 
L 240.68412 183.253979 
L 263.78052 188.370049 
L 264.181834 178.126229 
z
" style="fill:#ba0c2f;fill-opacity:0.8;"/>
    <path clip-path="url(#p659f05a6d8)" d="M 228.524351 181.881068 
L 228.265937 192.151184 
L 240.68412 183.253979 
L 240.990126 173.045934 
z
" style="fill:#5d0618;fill-opacity:0.8;"/>
    <path clip-path="url(#p659f05a6d8)" d="M 228.265937 192.151184 
L 251.515903 197.366112 
L 263.78052 188.370049 
L 240.68412 183.253979 
z
" style="fill:#a30a29;fill-opacity:0.8;"/>
    <path clip-path="url(#p659f05a6d8)" d="M 228.524351 181.881068 
L 240.990126 173.045934 
L 264.181834 178.126229 
L 251.87091 187.059932 
z
" style="fill:#74081d;fill-opacity:0.8;"/>
    <path clip-path="url(#p659f05a6d8)" d="M 251.87091 187.059932 
L 264.181834 178.126229 
L 263.78052 188.370049 
L 251.515903 197.366112 
z
" style="fill:#ba0c2f;fill-opacity:0.8;"/>
    <path clip-path="url(#p659f05a6d8)" d="M 228.524351 181.881068 
L 251.87091 187.059932 
L 251.515903 197.366112 
L 228.265937 192.151184 
z
" style="fill:#5d0618;fill-opacity:0.8;"/>
   </g>
   <g id="Poly3DCollection_8">
    <path clip-path="url(#p659f05a6d8)" d="M 169.592758 180.503161 
L 169.593073 180.338041 
L 192.577313 185.500886 
L 192.575491 185.66659 
z
" style="fill:#5d0618;fill-opacity:0.8;"/>
    <path clip-path="url(#p659f05a6d8)" d="M 156.33167 189.483172 
L 156.331116 189.31704 
L 169.593073 180.338041 
L 169.592758 180.503161 
z
" style="fill:#ba0c2f;fill-opacity:0.8;"/>
    <path clip-path="url(#p659f05a6d8)" d="M 156.33167 189.483172 
L 169.592758 180.503161 
L 192.575491 185.66659 
L 179.464011 194.747612 
z
" style="fill:#74081d;fill-opacity:0.8;"/>
    <path clip-path="url(#p659f05a6d8)" d="M 156.331116 189.31704 
L 179.464983 194.580892 
L 192.577313 185.500886 
L 169.593073 180.338041 
z
" style="fill:#a30a29;fill-opacity:0.8;"/>
    <path clip-path="url(#p659f05a6d8)" d="M 179.464011 194.747612 
L 192.575491 185.66659 
L 192.577313 185.500886 
L 179.464983 194.580892 
z
" style="fill:#5d0618;fill-opacity:0.8;"/>
    <path clip-path="url(#p659f05a6d8)" d="M 156.33167 189.483172 
L 179.464011 194.747612 
L 179.464983 194.580892 
L 156.331116 189.31704 
z
" style="fill:#ba0c2f;fill-opacity:0.8;"/>
   </g>
   <g id="Poly3DCollection_9">
    <path clip-path="url(#p659f05a6d8)" d="M 182.601307 171.694162 
L 195.364462 163.051336 
L 218.052385 168.021273 
L 205.435902 176.759459 
z
" style="fill:#74081d;fill-opacity:0.8;"/>
    <path clip-path="url(#p659f05a6d8)" d="M 195.364462 163.051336 
L 195.973915 112.20363 
L 219.119696 116.98913 
L 218.052385 168.021273 
z
" style="fill:#5d0618;fill-opacity:0.8;"/>
    <path clip-path="url(#p659f05a6d8)" d="M 182.601307 171.694162 
L 182.959975 120.526387 
L 195.973915 112.20363 
L 195.364462 163.051336 
z
" style="fill:#ba0c2f;fill-opacity:0.8;"/>
    <path clip-path="url(#p659f05a6d8)" d="M 205.435902 176.759459 
L 218.052385 168.021273 
L 219.119696 116.98913 
L 206.258453 125.40557 
z
" style="fill:#5d0618;fill-opacity:0.8;"/>
    <path clip-path="url(#p659f05a6d8)" d="M 182.601307 171.694162 
L 205.435902 176.759459 
L 206.258453 125.40557 
L 182.959975 120.526387 
z
" style="fill:#ba0c2f;fill-opacity:0.8;"/>
    <path clip-path="url(#p659f05a6d8)" d="M 182.959975 120.526387 
L 206.258453 125.40557 
L 219.119696 116.98913 
L 195.973915 112.20363 
z
" style="fill:#a30a29;fill-opacity:0.8;"/>
   </g>
   <g id="Poly3DCollection_10">
    <path clip-path="url(#p659f05a6d8)" d="M 253.220403 164.37771 
L 265.221792 155.871711 
L 288.108737 160.763124 
L 276.25891 169.362222 
z
" style="fill:#74081d;fill-opacity:0.8;"/>
    <path clip-path="url(#p659f05a6d8)" d="M 265.221792 155.871711 
L 268.989786 59.85192 
L 292.761297 64.386605 
L 288.108737 160.763124 
z
" style="fill:#5d0618;fill-opacity:0.8;"/>
    <path clip-path="url(#p659f05a6d8)" d="M 253.220403 164.37771 
L 256.570752 67.73877 
L 268.989786 59.85192 
L 265.221792 155.871711 
z
" style="fill:#ba0c2f;fill-opacity:0.8;"/>
    <path clip-path="url(#p659f05a6d8)" d="M 276.25891 169.362222 
L 288.108737 160.763124 
L 292.761297 64.386605 
L 280.505942 72.363059 
z
" style="fill:#5d0618;fill-opacity:0.8;"/>
    <path clip-path="url(#p659f05a6d8)" d="M 253.220403 164.37771 
L 276.25891 169.362222 
L 280.505942 72.363059 
L 256.570752 67.73877 
z
" style="fill:#ba0c2f;fill-opacity:0.8;"/>
    <path clip-path="url(#p659f05a6d8)" d="M 256.570752 67.73877 
L 280.505942 72.363059 
L 292.761297 64.386605 
L 268.989786 59.85192 
z
" style="fill:#a30a29;fill-opacity:0.8;"/>
   </g>
   <g id="Poly3DCollection_11">
    <path clip-path="url(#p659f05a6d8)" d="M 97.025511 188.082578 
L 96.747151 177.696359 
L 119.603375 182.907981 
L 119.789242 193.331199 
z
" style="fill:#5d0618;fill-opacity:0.8;"/>
    <path clip-path="url(#p659f05a6d8)" d="M 82.944501 197.21106 
L 82.604977 186.760647 
L 96.747151 177.696359 
L 97.025511 188.082578 
z
" style="fill:#ba0c2f;fill-opacity:0.8;"/>
    <path clip-path="url(#p659f05a6d8)" d="M 82.944501 197.21106 
L 97.025511 188.082578 
L 119.789242 193.331199 
L 105.85227 202.563214 
z
" style="fill:#74081d;fill-opacity:0.8;"/>
    <path clip-path="url(#p659f05a6d8)" d="M 82.604977 186.760647 
L 105.606405 192.075503 
L 119.603375 182.907981 
L 96.747151 177.696359 
z
" style="fill:#a30a29;fill-opacity:0.8;"/>
    <path clip-path="url(#p659f05a6d8)" d="M 105.85227 202.563214 
L 119.789242 193.331199 
L 119.603375 182.907981 
L 105.606405 192.075503 
z
" style="fill:#5d0618;fill-opacity:0.8;"/>
    <path clip-path="url(#p659f05a6d8)" d="M 82.944501 197.21106 
L 105.85227 202.563214 
L 105.606405 192.075503 
L 82.604977 186.760647 
z
" style="fill:#ba0c2f;fill-opacity:0.8;"/>
   </g>
   <g id="Poly3DCollection_12">
    <path clip-path="url(#p659f05a6d8)" d="M 215.816209 190.887979 
L 215.926766 185.419835 
L 239.481651 190.680735 
L 239.31928 196.168309 
z
" style="fill:#5d0618;fill-opacity:0.8;"/>
    <path clip-path="url(#p659f05a6d8)" d="M 202.858564 200.071726 
L 202.941869 194.569871 
L 215.926766 185.419835 
L 215.816209 190.887979 
z
" style="fill:#ba0c2f;fill-opacity:0.8;"/>
    <path clip-path="url(#p659f05a6d8)" d="M 202.858564 200.071726 
L 215.816209 190.887979 
L 239.31928 196.168309 
L 226.519814 205.456535 
z
" style="fill:#74081d;fill-opacity:0.8;"/>
    <path clip-path="url(#p659f05a6d8)" d="M 202.941869 194.569871 
L 226.655639 199.935094 
L 239.481651 190.680735 
L 215.926766 185.419835 
z
" style="fill:#a30a29;fill-opacity:0.8;"/>
    <path clip-path="url(#p659f05a6d8)" d="M 226.519814 205.456535 
L 239.31928 196.168309 
L 239.481651 190.680735 
L 226.655639 199.935094 
z
" style="fill:#5d0618;fill-opacity:0.8;"/>
    <path clip-path="url(#p659f05a6d8)" d="M 202.858564 200.071726 
L 226.519814 205.456535 
L 226.655639 199.935094 
L 202.941869 194.569871 
z
" style="fill:#ba0c2f;fill-opacity:0.8;"/>
   </g>
   <g id="Poly3DCollection_13">
    <path clip-path="url(#p659f05a6d8)" d="M 110.836191 179.129347 
L 124.384252 170.346366 
L 146.863738 175.396733 
L 133.457159 184.277409 
z
" style="fill:#74081d;fill-opacity:0.8;"/>
    <path clip-path="url(#p659f05a6d8)" d="M 124.384252 170.346366 
L 123.341435 104.618817 
L 146.398775 109.428121 
L 146.863738 175.396733 
z
" style="fill:#5d0618;fill-opacity:0.8;"/>
    <path clip-path="url(#p659f05a6d8)" d="M 110.836191 179.129347 
L 109.429814 112.983452 
L 123.341435 104.618817 
L 124.384252 170.346366 
z
" style="fill:#ba0c2f;fill-opacity:0.8;"/>
    <path clip-path="url(#p659f05a6d8)" d="M 133.457159 184.277409 
L 146.863738 175.396733 
L 146.398775 109.428121 
L 132.635993 117.888233 
z
" style="fill:#5d0618;fill-opacity:0.8;"/>
    <path clip-path="url(#p659f05a6d8)" d="M 110.836191 179.129347 
L 133.457159 184.277409 
L 132.635993 117.888233 
L 109.429814 112.983452 
z
" style="fill:#ba0c2f;fill-opacity:0.8;"/>
    <path clip-path="url(#p659f05a6d8)" d="M 109.429814 112.983452 
L 132.635993 117.888233 
L 146.398775 109.428121 
L 123.341435 104.618817 
z
" style="fill:#a30a29;fill-opacity:0.8;"/>
   </g>
   <g id="Poly3DCollection_14">
    <path clip-path="url(#p659f05a6d8)" d="M 142.810617 198.639224 
L 142.804997 197.994994 
L 166.094376 203.361152 
L 166.094034 204.007668 
z
" style="fill:#5d0618;fill-opacity:0.8;"/>
    <path clip-path="url(#p659f05a6d8)" d="M 129.021878 207.976544 
L 129.012639 207.328349 
L 142.804997 197.994994 
L 142.810617 198.639224 
z
" style="fill:#ba0c2f;fill-opacity:0.8;"/>
    <path clip-path="url(#p659f05a6d8)" d="M 129.021878 207.976544 
L 142.810617 198.639224 
L 166.094034 204.007668 
L 152.457842 213.452106 
z
" style="fill:#74081d;fill-opacity:0.8;"/>
    <path clip-path="url(#p659f05a6d8)" d="M 129.012639 207.328349 
L 152.454642 212.801607 
L 166.094376 203.361152 
L 142.804997 197.994994 
z
" style="fill:#a30a29;fill-opacity:0.8;"/>
    <path clip-path="url(#p659f05a6d8)" d="M 152.457842 213.452106 
L 166.094034 204.007668 
L 166.094376 203.361152 
L 152.454642 212.801607 
z
" style="fill:#5d0618;fill-opacity:0.8;"/>
    <path clip-path="url(#p659f05a6d8)" d="M 129.021878 207.976544 
L 152.457842 213.452106 
L 152.454642 212.801607 
L 129.012639 207.328349 
z
" style="fill:#ba0c2f;fill-opacity:0.8;"/>
   </g>
   <g id="Poly3DCollection_15">
    <path clip-path="url(#p659f05a6d8)" d="M 189.643994 209.437569 
L 189.757273 198.02437 
L 213.688137 203.47594 
L 213.465099 214.929987 
z
" style="fill:#5d0618;fill-opacity:0.8;"/>
    <path clip-path="url(#p659f05a6d8)" d="M 176.164781 218.990978 
L 176.2172 207.506911 
L 189.757273 198.02437 
L 189.643994 209.437569 
z
" style="fill:#ba0c2f;fill-opacity:0.8;"/>
    <path clip-path="url(#p659f05a6d8)" d="M 176.164781 218.990978 
L 189.643994 209.437569 
L 213.465099 214.929987 
L 200.147422 224.594264 
z
" style="fill:#74081d;fill-opacity:0.8;"/>
    <path clip-path="url(#p659f05a6d8)" d="M 176.2172 207.506911 
L 200.311103 213.069035 
L 213.688137 203.47594 
L 189.757273 198.02437 
z
" style="fill:#a30a29;fill-opacity:0.8;"/>
    <path clip-path="url(#p659f05a6d8)" d="M 200.147422 224.594264 
L 213.465099 214.929987 
L 213.688137 203.47594 
L 200.311103 213.069035 
z
" style="fill:#5d0618;fill-opacity:0.8;"/>
    <path clip-path="url(#p659f05a6d8)" d="M 176.164781 218.990978 
L 200.147422 224.594264 
L 200.311103 213.069035 
L 176.2172 207.506911 
z
" style="fill:#ba0c2f;fill-opacity:0.8;"/>
   </g>
   <g id="Poly3DCollection_16">
    <path clip-path="url(#p659f05a6d8)" d="M 25.009691 188.021353 
L 203.902905 230.013514 
L 300.254196 159.504801 
L 129.920771 123.255544 
z
" style="fill-opacity:0.15;"/>
   </g>
   <g id="Poly3DCollection_17">
    <path clip-path="url(#p659f05a6d8)" d="M 37.896929 186.686178 
L 52.253869 177.759606 
L 74.515122 182.892371 
L 60.294159 191.91905 
z
" style="fill:#74081d;fill-opacity:0.8;"/>
    <path clip-path="url(#p659f05a6d8)" d="M 52.253869 177.759606 
L 46.933544 57.750519 
L 70.222556 62.427839 
L 74.515122 182.892371 
z
" style="fill:#5d0618;fill-opacity:0.8;"/>
    <path clip-path="url(#p659f05a6d8)" d="M 37.896929 186.686178 
L 31.836896 65.886594 
L 46.933544 57.750519 
L 52.253869 177.759606 
z
" style="fill:#ba0c2f;fill-opacity:0.8;"/>
    <path clip-path="url(#p659f05a6d8)" d="M 60.294159 191.91905 
L 74.515122 182.892371 
L 70.222556 62.427839 
L 55.274545 70.659531 
z
" style="fill:#5d0618;fill-opacity:0.8;"/>
    <path clip-path="url(#p659f05a6d8)" d="M 37.896929 186.686178 
L 60.294159 191.91905 
L 55.274545 70.659531 
L 31.836896 65.886594 
z
" style="fill:#ba0c2f;fill-opacity:0.8;"/>
    <path clip-path="url(#p659f05a6d8)" d="M 31.836896 65.886594 
L 55.274545 70.659531 
L 70.222556 62.427839 
L 46.933544 57.750519 
z
" style="fill:#a30a29;fill-opacity:0.8;"/>
   </g>
  </g>
  <g id="patch_6">
   <path d="M 425.945455 262.8 
L 806.4 262.8 
L 806.4 -14.4 
L 425.945455 -14.4 
z
" style="fill:#ffffff;"/>
  </g>
  <g id="pane3d_4">
   <g id="patch_7">
    <path d="M 476.380584 201.548569 
L 585.268665 133.58541 
L 583.455794 3.718968 
L 468.496488 64.782468 
" style="fill:#f2f2f2;opacity:0.5;stroke:#f2f2f2;stroke-linejoin:miter;"/>
   </g>
  </g>
  <g id="pane3d_5">
   <g id="patch_8">
    <path d="M 585.268665 133.58541 
L 761.65712 171.581202 
L 769.037001 37.79869 
L 583.455794 3.718968 
" style="fill:#e6e6e6;opacity:0.5;stroke:#e6e6e6;stroke-linejoin:miter;"/>
   </g>
  </g>
  <g id="pane3d_6">
   <g id="patch_9">
    <path d="M 476.380584 201.548569 
L 661.965072 245.80086 
L 761.65712 171.581202 
L 585.268665 133.58541 
" style="fill:#ececec;opacity:0.5;stroke:#ececec;stroke-linejoin:miter;"/>
   </g>
  </g>
  <g id="axis3d_4">
   <g id="line2d_16">
    <path d="M 476.380584 201.548569 
L 661.965072 245.80086 
" style="fill:none;stroke:#000000;stroke-linecap:square;stroke-width:0.8;"/>
   </g>
   <g id="Line3DCollection_4">
    <path d="M 498.841271 206.90428 
L 606.679397 138.19749 
L 605.9393 7.847789 
" style="fill:none;stroke:#b0b0b0;stroke-width:0.8;"/>
    <path d="M 544.057792 217.686079 
L 649.729469 147.470895 
L 651.182353 16.156123 
" style="fill:none;stroke:#b0b0b0;stroke-width:0.8;"/>
    <path d="M 590.310744 228.715013 
L 693.693551 156.941187 
L 697.435637 24.649974 
" style="fill:none;stroke:#b0b0b0;stroke-width:0.8;"/>
    <path d="M 637.636176 239.999678 
L 738.601063 166.614702 
L 744.733372 33.335625 
" style="fill:none;stroke:#b0b0b0;stroke-width:0.8;"/>
   </g>
   <g id="xtick_13">
    <g id="line2d_17">
     <path d="M 499.770538 206.312217 
L 496.979262 208.09062 
" style="fill:none;stroke:#000000;stroke-linecap:square;stroke-width:0.8;"/>
    </g>
    <g id="text_14">
     <!-- 00 -->
     <g transform="translate(479.875817 237.14703)rotate(-45)scale(0.14 -0.14)">
      <use transform="scale(0.996264)" xlink:href="#CMR17-48"/>
      <use transform="translate(45.690477 0)scale(0.996264)" xlink:href="#CMR17-48"/>
     </g>
    </g>
   </g>
   <g id="xtick_14">
    <g id="line2d_18">
     <path d="M 544.969128 217.080527 
L 542.231671 218.899473 
" style="fill:none;stroke:#000000;stroke-linecap:square;stroke-width:0.8;"/>
    </g>
    <g id="text_15">
     <!-- 01 -->
     <g transform="translate(525.088242 248.103782)rotate(-45)scale(0.14 -0.14)">
      <use transform="scale(0.996264)" xlink:href="#CMR17-48"/>
      <use transform="translate(45.690477 0)scale(0.996264)" xlink:href="#CMR17-49"/>
     </g>
    </g>
   </g>
   <g id="xtick_15">
    <g id="line2d_19">
     <path d="M 591.20308 228.095506 
L 588.522658 229.956397 
" style="fill:none;stroke:#000000;stroke-linecap:square;stroke-width:0.8;"/>
    </g>
    <g id="text_16">
     <!-- 10 -->
     <g transform="translate(571.338855 259.312128)rotate(-45)scale(0.14 -0.14)">
      <use transform="scale(0.996264)" xlink:href="#CMR17-49"/>
      <use transform="translate(45.690477 0)scale(0.996264)" xlink:href="#CMR17-48"/>
     </g>
    </g>
   </g>
   <g id="xtick_16">
    <g id="line2d_20">
     <path d="M 638.50838 239.365727 
L 635.888391 241.270032 
" style="fill:none;stroke:#000000;stroke-linecap:square;stroke-width:0.8;"/>
    </g>
    <g id="text_17">
     <!-- 11 -->
     <g transform="translate(618.66383 270.780834)rotate(-45)scale(0.14 -0.14)">
      <use transform="scale(0.996264)" xlink:href="#CMR17-49"/>
      <use transform="translate(45.690477 0)scale(0.996264)" xlink:href="#CMR17-49"/>
     </g>
    </g>
   </g>
  </g>
  <g id="axis3d_5">
   <g id="line2d_21">
    <path d="M 761.65712 171.581202 
L 661.965072 245.80086 
" style="fill:none;stroke:#000000;stroke-linecap:square;stroke-width:0.8;"/>
   </g>
   <g id="Line3DCollection_5">
    <path d="M 484.000685 56.547028 
L 491.016499 192.413474 
L 675.403872 235.795817 
" style="fill:none;stroke:#b0b0b0;stroke-width:0.8;"/>
    <path d="M 513.777478 40.730342 
L 519.168861 174.842005 
L 701.219492 216.576366 
" style="fill:none;stroke:#b0b0b0;stroke-width:0.8;"/>
    <path d="M 542.401344 25.526062 
L 546.284836 157.917404 
L 726.04244 198.095948 
" style="fill:none;stroke:#b0b0b0;stroke-width:0.8;"/>
    <path d="M 569.937971 10.899296 
L 572.420618 141.604597 
L 749.928893 180.312741 
" style="fill:none;stroke:#b0b0b0;stroke-width:0.8;"/>
   </g>
   <g id="xtick_17">
    <g id="line2d_22">
     <path d="M 673.861052 235.432825 
L 678.492943 236.522608 
" style="fill:none;stroke:#000000;stroke-linecap:square;stroke-width:0.8;"/>
    </g>
    <g id="text_18">
     <!-- 00 -->
     <g transform="translate(689.195824 248.348363)rotate(-337.5)scale(0.14 -0.14)">
      <use transform="scale(0.996264)" xlink:href="#CMR17-48"/>
      <use transform="translate(45.690477 0)scale(0.996264)" xlink:href="#CMR17-48"/>
     </g>
    </g>
   </g>
   <g id="xtick_18">
    <g id="line2d_23">
     <path d="M 699.697534 216.227463 
L 704.266725 217.274932 
" style="fill:none;stroke:#000000;stroke-linecap:square;stroke-width:0.8;"/>
    </g>
    <g id="text_19">
     <!-- 01 -->
     <g transform="translate(714.749375 228.903937)rotate(-337.5)scale(0.14 -0.14)">
      <use transform="scale(0.996264)" xlink:href="#CMR17-48"/>
      <use transform="translate(45.690477 0)scale(0.996264)" xlink:href="#CMR17-49"/>
     </g>
    </g>
   </g>
   <g id="xtick_19">
    <g id="line2d_24">
     <path d="M 724.540896 197.76033 
L 729.048738 198.767901 
" style="fill:none;stroke:#000000;stroke-linecap:square;stroke-width:0.8;"/>
    </g>
    <g id="text_20">
     <!-- 10 -->
     <g transform="translate(739.320787 210.206849)rotate(-337.5)scale(0.14 -0.14)">
      <use transform="scale(0.996264)" xlink:href="#CMR17-49"/>
      <use transform="translate(45.690477 0)scale(0.996264)" xlink:href="#CMR17-48"/>
     </g>
    </g>
   </g>
   <g id="xtick_20">
    <g id="line2d_25">
     <path d="M 748.44732 179.989663 
L 752.895146 180.959573 
" style="fill:none;stroke:#000000;stroke-linecap:square;stroke-width:0.8;"/>
    </g>
    <g id="text_21">
     <!-- 11 -->
     <g transform="translate(762.965613 192.214827)rotate(-337.5)scale(0.14 -0.14)">
      <use transform="scale(0.996264)" xlink:href="#CMR17-49"/>
      <use transform="translate(45.690477 0)scale(0.996264)" xlink:href="#CMR17-49"/>
     </g>
    </g>
   </g>
  </g>
  <g id="axis3d_6">
   <g id="line2d_26">
    <path d="M 761.65712 171.581202 
L 769.037001 37.79869 
" style="fill:none;stroke:#000000;stroke-linecap:square;stroke-width:0.8;"/>
   </g>
   <g id="text_22">
    <!-- Im[$\rho$] -->
    <defs>
     <path d="M 19.703125 60.90625 
C 19.703125 65.390625 20.90625 65.390625 28.09375 65.390625 
L 28.09375 68 
C 24.90625 67.796875 19.796875 67.796875 16.40625 67.796875 
C 13 67.796875 7.90625 67.796875 4.703125 68 
L 4.703125 65.390625 
C 11.90625 65.390625 13.09375 65.390625 13.09375 60.90625 
L 13.09375 7.078125 
C 13.09375 2.59375 11.90625 2.59375 4.703125 2.59375 
L 4.703125 0 
C 7.90625 0.1875 13 0.1875 16.40625 0.1875 
C 19.796875 0.1875 24.90625 0.1875 28.09375 0 
L 28.09375 2.59375 
C 20.90625 2.59375 19.703125 2.59375 19.703125 7.078125 
z
" id="CMR17-73"/>
     <path d="M 67.59375 30.53125 
C 67.59375 35.5625 66.703125 44 54.796875 44 
C 48 44 43.296875 39.375 41.5 33.953125 
L 41.40625 33.953125 
C 40.203125 42.1875 34.296875 44 28.703125 44 
C 20.796875 44 16.703125 37.875 15.203125 33.84375 
L 15.09375 33.84375 
L 15.09375 44 
L 3.296875 42.890625 
L 3.296875 40.28125 
C 9.203125 40.28125 10.09375 39.6875 10.09375 34.859375 
L 10.09375 6.921875 
C 10.09375 3.09375 9.703125 2.59375 3.296875 2.59375 
L 3.296875 0 
C 5.703125 0.1875 10.09375 0.1875 12.703125 0.1875 
C 15.296875 0.1875 19.796875 0.1875 22.203125 0 
L 22.203125 2.59375 
C 15.796875 2.59375 15.40625 3 15.40625 6.921875 
L 15.40625 26.21875 
C 15.40625 35.453125 21 42.390625 28 42.390625 
C 35.40625 42.390625 36.203125 35.765625 36.203125 30.9375 
L 36.203125 6.921875 
C 36.203125 3.09375 35.796875 2.59375 29.40625 2.59375 
L 29.40625 0 
C 31.796875 0.1875 36.203125 0.1875 38.796875 0.1875 
C 41.40625 0.1875 45.90625 0.1875 48.296875 0 
L 48.296875 2.59375 
C 41.90625 2.59375 41.5 3 41.5 6.921875 
L 41.5 26.21875 
C 41.5 35.453125 47.09375 42.390625 54.09375 42.390625 
C 61.5 42.390625 62.296875 35.765625 62.296875 30.9375 
L 62.296875 6.921875 
C 62.296875 3.09375 61.90625 2.59375 55.5 2.59375 
L 55.5 0 
C 57.90625 0.1875 62.296875 0.1875 64.90625 0.1875 
C 67.5 0.1875 72 0.1875 74.40625 0 
L 74.40625 2.59375 
C 68 2.59375 67.59375 3 67.59375 6.921875 
z
" id="CMR17-109"/>
    </defs>
    <g transform="translate(809.026865 118.025317)rotate(-86.842577)scale(0.14 -0.14)">
     <use transform="scale(0.996264)" xlink:href="#CMR17-73"/>
     <use transform="translate(32.638409 0)scale(0.996264)" xlink:href="#CMR17-109"/>
     <use transform="translate(109.557999 0)scale(0.996264)" xlink:href="#CMR17-91"/>
     <use transform="translate(134.429058 0)scale(0.996264)" xlink:href="#CMMI12-26"/>
     <use transform="translate(184.74343 0)scale(0.996264)" xlink:href="#CMR17-93"/>
    </g>
   </g>
   <g id="Line3DCollection_6">
    <path d="M 763.090959 145.588553 
L 584.915823 108.309302 
L 474.850904 175.013073 
" style="fill:none;stroke:#b0b0b0;stroke-width:0.8;"/>
    <path d="M 764.678479 116.809991 
L 584.525512 80.349043 
L 473.156078 145.612779 
" style="fill:none;stroke:#b0b0b0;stroke-width:0.8;"/>
    <path d="M 766.301953 87.379647 
L 584.126739 51.782628 
L 471.421569 115.524098 
" style="fill:none;stroke:#b0b0b0;stroke-width:0.8;"/>
    <path d="M 767.962617 57.275124 
L 583.719226 22.590128 
L 469.645966 84.722565 
" style="fill:none;stroke:#b0b0b0;stroke-width:0.8;"/>
   </g>
   <g id="xtick_21">
    <g id="line2d_27">
     <path d="M 761.603779 145.277393 
L 766.068442 146.211526 
" style="fill:none;stroke:#000000;stroke-linecap:square;stroke-width:0.8;"/>
    </g>
    <g id="text_23">
     <!-- $0.0$ -->
     <g transform="translate(773.060904 153.365956)scale(0.14 -0.14)">
      <use transform="scale(0.996264)" xlink:href="#CMR17-48"/>
      <use transform="translate(45.690477 0)scale(0.996264)" xlink:href="#CMMI12-58"/>
      <use transform="translate(72.787654 0)scale(0.996264)" xlink:href="#CMR17-48"/>
     </g>
    </g>
   </g>
   <g id="xtick_22">
    <g id="line2d_28">
     <path d="M 763.174091 116.50552 
L 767.690449 117.41958 
" style="fill:none;stroke:#000000;stroke-linecap:square;stroke-width:0.8;"/>
    </g>
    <g id="text_24">
     <!-- $0.1$ -->
     <g transform="translate(774.853865 124.628457)scale(0.14 -0.14)">
      <use transform="scale(0.996264)" xlink:href="#CMR17-48"/>
      <use transform="translate(45.690477 0)scale(0.996264)" xlink:href="#CMMI12-58"/>
      <use transform="translate(72.787654 0)scale(0.996264)" xlink:href="#CMR17-49"/>
     </g>
    </g>
   </g>
   <g id="xtick_23">
    <g id="line2d_29">
     <path d="M 764.779955 87.082249 
L 769.349217 87.975082 
" style="fill:none;stroke:#000000;stroke-linecap:square;stroke-width:0.8;"/>
    </g>
    <g id="text_25">
     <!-- $0.2$ -->
     <g transform="translate(776.687344 95.241531)scale(0.14 -0.14)">
      <use transform="scale(0.996264)" xlink:href="#CMR17-48"/>
      <use transform="translate(45.690477 0)scale(0.996264)" xlink:href="#CMMI12-58"/>
      <use transform="translate(72.787654 0)scale(0.996264)" xlink:href="#CMR17-50"/>
     </g>
    </g>
   </g>
   <g id="xtick_24">
    <g id="line2d_30">
     <path d="M 766.422593 56.985204 
L 771.046011 57.855593 
" style="fill:none;stroke:#000000;stroke-linecap:square;stroke-width:0.8;"/>
    </g>
    <g id="text_26">
     <!-- $0.3$ -->
     <g transform="translate(778.562731 65.182914)scale(0.14 -0.14)">
      <use transform="scale(0.996264)" xlink:href="#CMR17-48"/>
      <use transform="translate(45.690477 0)scale(0.996264)" xlink:href="#CMMI12-58"/>
      <use transform="translate(72.787654 0)scale(0.996264)" xlink:href="#CMR17-51"/>
     </g>
    </g>
   </g>
  </g>
  <g id="axes_2">
   <g id="Poly3DCollection_18">
    <path clip-path="url(#p46411167c4)" d="M 589.315352 114.56472 
L 589.535844 132.488359 
L 610.964054 137.093618 
L 610.891861 119.107338 
z
" style="fill:#0cba97;fill-opacity:0.8;"/>
    <path clip-path="url(#p46411167c4)" d="M 576.72972 140.495679 
L 598.286731 145.18563 
L 610.964054 137.093618 
L 589.535844 132.488359 
z
" style="fill:#0aa384;fill-opacity:0.8;"/>
    <path clip-path="url(#p46411167c4)" d="M 576.41753 122.463337 
L 576.72972 140.495679 
L 589.535844 132.488359 
L 589.315352 114.56472 
z
" style="fill:#065d4c;fill-opacity:0.8;"/>
    <path clip-path="url(#p46411167c4)" d="M 598.124628 127.090084 
L 610.891861 119.107338 
L 610.964054 137.093618 
L 598.286731 145.18563 
z
" style="fill:#0cba97;fill-opacity:0.8;"/>
    <path clip-path="url(#p46411167c4)" d="M 576.41753 122.463337 
L 589.315352 114.56472 
L 610.891861 119.107338 
L 598.124628 127.090084 
z
" style="fill:#08745e;fill-opacity:0.8;"/>
    <path clip-path="url(#p46411167c4)" d="M 576.41753 122.463337 
L 598.124628 127.090084 
L 598.286731 145.18563 
L 576.72972 140.495679 
z
" style="fill:#065d4c;fill-opacity:0.8;"/>
   </g>
   <g id="Poly3DCollection_19">
    <path clip-path="url(#p46411167c4)" d="M 632.697734 123.698246 
L 632.723593 117.810371 
L 654.812976 122.429405 
L 654.736648 128.338217 
z
" style="fill:#065d4c;fill-opacity:0.8;"/>
    <path clip-path="url(#p46411167c4)" d="M 620.064623 131.766473 
L 620.061759 125.842263 
L 632.723593 117.810371 
L 632.697734 123.698246 
z
" style="fill:#0cba97;fill-opacity:0.8;"/>
    <path clip-path="url(#p46411167c4)" d="M 620.064623 131.766473 
L 632.697734 123.698246 
L 654.736648 128.338217 
L 642.241283 136.493305 
z
" style="fill:#08745e;fill-opacity:0.8;"/>
    <path clip-path="url(#p46411167c4)" d="M 620.061759 125.842263 
L 642.289522 130.547965 
L 654.812976 122.429405 
L 632.723593 117.810371 
z
" style="fill:#0aa384;fill-opacity:0.8;"/>
    <path clip-path="url(#p46411167c4)" d="M 642.241283 136.493305 
L 654.736648 128.338217 
L 654.812976 122.429405 
L 642.289522 130.547965 
z
" style="fill:#065d4c;fill-opacity:0.8;"/>
    <path clip-path="url(#p46411167c4)" d="M 620.064623 131.766473 
L 642.241283 136.493305 
L 642.289522 130.547965 
L 620.061759 125.842263 
z
" style="fill:#0cba97;fill-opacity:0.8;"/>
   </g>
   <g id="Poly3DCollection_20">
    <path clip-path="url(#p46411167c4)" d="M 563.280368 130.508525 
L 563.170545 125.616271 
L 585.050339 130.312077 
L 585.119203 135.221761 
z
" style="fill:#065d4c;fill-opacity:0.8;"/>
    <path clip-path="url(#p46411167c4)" d="M 549.897142 138.704402 
L 549.760725 133.7819 
L 563.170545 125.616271 
L 563.280368 130.508525 
z
" style="fill:#0cba97;fill-opacity:0.8;"/>
    <path clip-path="url(#p46411167c4)" d="M 549.897142 138.704402 
L 563.280368 130.508525 
L 585.119203 135.221761 
L 571.868858 143.506574 
z
" style="fill:#08745e;fill-opacity:0.8;"/>
    <path clip-path="url(#p46411167c4)" d="M 549.760725 133.7819 
L 571.773896 138.566483 
L 585.050339 130.312077 
L 563.170545 125.616271 
z
" style="fill:#0aa384;fill-opacity:0.8;"/>
    <path clip-path="url(#p46411167c4)" d="M 571.868858 143.506574 
L 585.119203 135.221761 
L 585.050339 130.312077 
L 571.773896 138.566483 
z
" style="fill:#065d4c;fill-opacity:0.8;"/>
    <path clip-path="url(#p46411167c4)" d="M 549.897142 138.704402 
L 571.868858 143.506574 
L 571.773896 138.566483 
L 549.760725 133.7819 
z
" style="fill:#0cba97;fill-opacity:0.8;"/>
   </g>
   <g id="Poly3DCollection_21">
    <path clip-path="url(#p46411167c4)" d="M 677.012359 133.028043 
L 677.234977 122.705406 
L 699.843012 127.408964 
L 699.528704 137.76853 
z
" style="fill:#065d4c;fill-opacity:0.8;"/>
    <path clip-path="url(#p46411167c4)" d="M 664.658458 141.271402 
L 664.833333 130.884678 
L 677.234977 122.705406 
L 677.012359 133.028043 
z
" style="fill:#0cba97;fill-opacity:0.8;"/>
    <path clip-path="url(#p46411167c4)" d="M 664.658458 141.271402 
L 677.012359 133.028043 
L 699.528704 137.76853 
L 687.320081 146.101601 
z
" style="fill:#08745e;fill-opacity:0.8;"/>
    <path clip-path="url(#p46411167c4)" d="M 664.833333 130.884678 
L 687.587843 135.677611 
L 699.843012 127.408964 
L 677.234977 122.705406 
z
" style="fill:#0aa384;fill-opacity:0.8;"/>
    <path clip-path="url(#p46411167c4)" d="M 687.320081 146.101601 
L 699.528704 137.76853 
L 699.843012 127.408964 
L 687.587843 135.677611 
z
" style="fill:#065d4c;fill-opacity:0.8;"/>
    <path clip-path="url(#p46411167c4)" d="M 664.658458 141.271402 
L 687.320081 146.101601 
L 687.587843 135.677611 
L 664.833333 130.884678 
z
" style="fill:#0cba97;fill-opacity:0.8;"/>
   </g>
   <g id="Poly3DCollection_22">
    <path clip-path="url(#p46411167c4)" d="M 607.194546 139.98604 
L 607.322559 163.33873 
L 629.435548 168.236965 
L 629.510259 144.802195 
z
" style="fill:#0cba97;fill-opacity:0.8;"/>
    <path clip-path="url(#p46411167c4)" d="M 594.329997 171.856359 
L 616.580803 176.847178 
L 629.435548 168.236965 
L 607.322559 163.33873 
z
" style="fill:#0aa384;fill-opacity:0.8;"/>
    <path clip-path="url(#p46411167c4)" d="M 594.080773 148.361245 
L 594.329997 171.856359 
L 607.322559 163.33873 
L 607.194546 139.98604 
z
" style="fill:#065d4c;fill-opacity:0.8;"/>
    <path clip-path="url(#p46411167c4)" d="M 616.536847 153.269279 
L 629.510259 144.802195 
L 629.435548 168.236965 
L 616.580803 176.847178 
z
" style="fill:#0cba97;fill-opacity:0.8;"/>
    <path clip-path="url(#p46411167c4)" d="M 594.080773 148.361245 
L 607.194546 139.98604 
L 629.510259 144.802195 
L 616.536847 153.269279 
z
" style="fill:#08745e;fill-opacity:0.8;"/>
    <path clip-path="url(#p46411167c4)" d="M 594.080773 148.361245 
L 616.536847 153.269279 
L 616.580803 176.847178 
L 594.329997 171.856359 
z
" style="fill:#065d4c;fill-opacity:0.8;"/>
   </g>
   <g id="Poly3DCollection_23">
    <path clip-path="url(#p46411167c4)" d="M 722.289603 142.560504 
L 722.289603 142.560504 
L 745.299062 147.40481 
L 745.299062 147.40481 
z
" style="fill:#065d4c;fill-opacity:0.8;"/>
    <path clip-path="url(#p46411167c4)" d="M 710.230174 150.98476 
L 710.230174 150.98476 
L 722.289603 142.560504 
L 722.289603 142.560504 
z
" style="fill:#065d4c;fill-opacity:0.8;"/>
    <path clip-path="url(#p46411167c4)" d="M 710.230174 150.98476 
L 722.289603 142.560504 
L 745.299062 147.40481 
L 733.392845 155.921755 
z
" style="fill:#08745e;fill-opacity:0.8;"/>
    <path clip-path="url(#p46411167c4)" d="M 710.230174 150.98476 
L 733.392845 155.921755 
L 745.299062 147.40481 
L 722.289603 142.560504 
z
" style="fill:#0aa384;fill-opacity:0.8;"/>
    <path clip-path="url(#p46411167c4)" d="M 733.392845 155.921755 
L 745.299062 147.40481 
L 745.299062 147.40481 
L 733.392845 155.921755 
z
" style="fill:#065d4c;fill-opacity:0.8;"/>
    <path clip-path="url(#p46411167c4)" d="M 710.230174 150.98476 
L 733.392845 155.921755 
L 733.392845 155.921755 
L 710.230174 150.98476 
z
" style="fill:#065d4c;fill-opacity:0.8;"/>
   </g>
   <g id="Poly3DCollection_24">
    <path clip-path="url(#p46411167c4)" d="M 536.260874 147.055242 
L 536.081803 141.647158 
L 558.233349 146.521424 
L 558.366608 151.948892 
z
" style="fill:#065d4c;fill-opacity:0.8;"/>
    <path clip-path="url(#p46411167c4)" d="M 522.364319 155.565482 
L 522.153997 150.123763 
L 536.081803 141.647158 
L 536.260874 147.055242 
z
" style="fill:#0cba97;fill-opacity:0.8;"/>
    <path clip-path="url(#p46411167c4)" d="M 522.364319 155.565482 
L 536.260874 147.055242 
L 558.366608 151.948892 
L 544.6052 160.553248 
z
" style="fill:#08745e;fill-opacity:0.8;"/>
    <path clip-path="url(#p46411167c4)" d="M 522.153997 150.123763 
L 544.441247 155.091974 
L 558.233349 146.521424 
L 536.081803 141.647158 
z
" style="fill:#0aa384;fill-opacity:0.8;"/>
    <path clip-path="url(#p46411167c4)" d="M 544.6052 160.553248 
L 558.366608 151.948892 
L 558.233349 146.521424 
L 544.441247 155.091974 
z
" style="fill:#065d4c;fill-opacity:0.8;"/>
    <path clip-path="url(#p46411167c4)" d="M 522.364319 155.565482 
L 544.6052 160.553248 
L 544.441247 155.091974 
L 522.153997 150.123763 
z
" style="fill:#0cba97;fill-opacity:0.8;"/>
   </g>
   <g id="Poly3DCollection_25">
    <path clip-path="url(#p46411167c4)" d="M 652.07029 149.671078 
L 652.07029 149.671078 
L 674.878673 154.593561 
L 674.878673 154.593561 
z
" style="fill:#065d4c;fill-opacity:0.8;"/>
    <path clip-path="url(#p46411167c4)" d="M 639.24113 158.231562 
L 639.24113 158.231562 
L 652.07029 149.671078 
L 652.07029 149.671078 
z
" style="fill:#065d4c;fill-opacity:0.8;"/>
    <path clip-path="url(#p46411167c4)" d="M 639.24113 158.231562 
L 652.07029 149.671078 
L 674.878673 154.593561 
L 662.197758 163.248998 
z
" style="fill:#08745e;fill-opacity:0.8;"/>
    <path clip-path="url(#p46411167c4)" d="M 639.24113 158.231562 
L 662.197758 163.248998 
L 674.878673 154.593561 
L 652.07029 149.671078 
z
" style="fill:#0aa384;fill-opacity:0.8;"/>
    <path clip-path="url(#p46411167c4)" d="M 662.197758 163.248998 
L 674.878673 154.593561 
L 674.878673 154.593561 
L 662.197758 163.248998 
z
" style="fill:#065d4c;fill-opacity:0.8;"/>
    <path clip-path="url(#p46411167c4)" d="M 639.24113 158.231562 
L 662.197758 163.248998 
L 662.197758 163.248998 
L 639.24113 158.231562 
z
" style="fill:#065d4c;fill-opacity:0.8;"/>
   </g>
   <g id="Poly3DCollection_26">
    <path clip-path="url(#p46411167c4)" d="M 580.716315 156.896551 
L 580.716315 156.896551 
L 603.314058 161.899119 
L 603.314058 161.899119 
z
" style="fill:#065d4c;fill-opacity:0.8;"/>
    <path clip-path="url(#p46411167c4)" d="M 567.093915 165.596594 
L 567.093915 165.596594 
L 580.716315 156.896551 
L 580.716315 156.896551 
z
" style="fill:#065d4c;fill-opacity:0.8;"/>
    <path clip-path="url(#p46411167c4)" d="M 567.093915 165.596594 
L 589.834631 170.696454 
L 603.314058 161.899119 
L 580.716315 156.896551 
z
" style="fill:#0aa384;fill-opacity:0.8;"/>
    <path clip-path="url(#p46411167c4)" d="M 567.093915 165.596594 
L 580.716315 156.896551 
L 603.314058 161.899119 
L 589.834631 170.696454 
z
" style="fill:#08745e;fill-opacity:0.8;"/>
    <path clip-path="url(#p46411167c4)" d="M 589.834631 170.696454 
L 603.314058 161.899119 
L 603.314058 161.899119 
L 589.834631 170.696454 
z
" style="fill:#065d4c;fill-opacity:0.8;"/>
    <path clip-path="url(#p46411167c4)" d="M 567.093915 165.596594 
L 589.834631 170.696454 
L 589.834631 170.696454 
L 567.093915 165.596594 
z
" style="fill:#065d4c;fill-opacity:0.8;"/>
   </g>
   <g id="Poly3DCollection_27">
    <path clip-path="url(#p46411167c4)" d="M 697.939531 159.570533 
L 697.626548 170.011332 
L 720.846593 175.080903 
L 721.257081 164.602904 
z
" style="fill:#0cba97;fill-opacity:0.8;"/>
    <path clip-path="url(#p46411167c4)" d="M 685.410962 168.322512 
L 685.146629 178.82786 
L 697.626548 170.011332 
L 697.939531 159.570533 
z
" style="fill:#065d4c;fill-opacity:0.8;"/>
    <path clip-path="url(#p46411167c4)" d="M 685.146629 178.82786 
L 708.521908 183.995913 
L 720.846593 175.080903 
L 697.626548 170.011332 
z
" style="fill:#0aa384;fill-opacity:0.8;"/>
    <path clip-path="url(#p46411167c4)" d="M 685.410962 168.322512 
L 697.939531 159.570533 
L 721.257081 164.602904 
L 708.885068 173.453049 
z
" style="fill:#08745e;fill-opacity:0.8;"/>
    <path clip-path="url(#p46411167c4)" d="M 708.885068 173.453049 
L 721.257081 164.602904 
L 720.846593 175.080903 
L 708.521908 183.995913 
z
" style="fill:#0cba97;fill-opacity:0.8;"/>
    <path clip-path="url(#p46411167c4)" d="M 685.410962 168.322512 
L 708.885068 173.453049 
L 708.521908 183.995913 
L 685.146629 178.82786 
z
" style="fill:#065d4c;fill-opacity:0.8;"/>
   </g>
   <g id="Poly3DCollection_28">
    <path clip-path="url(#p46411167c4)" d="M 508.199951 164.23973 
L 508.199951 164.23973 
L 530.577101 169.324354 
L 530.577101 169.324354 
z
" style="fill:#065d4c;fill-opacity:0.8;"/>
    <path clip-path="url(#p46411167c4)" d="M 493.759955 173.082773 
L 493.759955 173.082773 
L 508.199951 164.23973 
L 508.199951 164.23973 
z
" style="fill:#065d4c;fill-opacity:0.8;"/>
    <path clip-path="url(#p46411167c4)" d="M 493.759955 173.082773 
L 508.199951 164.23973 
L 530.577101 169.324354 
L 516.274483 178.267104 
z
" style="fill:#08745e;fill-opacity:0.8;"/>
    <path clip-path="url(#p46411167c4)" d="M 493.759955 173.082773 
L 516.274483 178.267104 
L 530.577101 169.324354 
L 508.199951 164.23973 
z
" style="fill:#0aa384;fill-opacity:0.8;"/>
    <path clip-path="url(#p46411167c4)" d="M 516.274483 178.267104 
L 530.577101 169.324354 
L 530.577101 169.324354 
L 516.274483 178.267104 
z
" style="fill:#065d4c;fill-opacity:0.8;"/>
    <path clip-path="url(#p46411167c4)" d="M 493.759955 173.082773 
L 516.274483 178.267104 
L 516.274483 178.267104 
L 493.759955 173.082773 
z
" style="fill:#065d4c;fill-opacity:0.8;"/>
   </g>
   <g id="Poly3DCollection_29">
    <path clip-path="url(#p46411167c4)" d="M 553.206034 174.466189 
L 553.353207 179.957556 
L 576.189296 185.177274 
L 576.091022 179.666206 
z
" style="fill:#0cba97;fill-opacity:0.8;"/>
    <path clip-path="url(#p46411167c4)" d="M 539.044832 183.510341 
L 539.224352 189.035892 
L 553.353207 179.957556 
L 553.206034 174.466189 
z
" style="fill:#065d4c;fill-opacity:0.8;"/>
    <path clip-path="url(#p46411167c4)" d="M 539.224352 189.035892 
L 562.20539 194.35891 
L 576.189296 185.177274 
L 553.353207 179.957556 
z
" style="fill:#0aa384;fill-opacity:0.8;"/>
    <path clip-path="url(#p46411167c4)" d="M 539.044832 183.510341 
L 553.206034 174.466189 
L 576.091022 179.666206 
L 562.075388 188.813496 
z
" style="fill:#08745e;fill-opacity:0.8;"/>
    <path clip-path="url(#p46411167c4)" d="M 562.075388 188.813496 
L 576.091022 179.666206 
L 576.189296 185.177274 
L 562.20539 194.35891 
z
" style="fill:#0cba97;fill-opacity:0.8;"/>
    <path clip-path="url(#p46411167c4)" d="M 539.044832 183.510341 
L 562.075388 188.813496 
L 562.20539 194.35891 
L 539.224352 189.035892 
z
" style="fill:#065d4c;fill-opacity:0.8;"/>
   </g>
   <g id="Poly3DCollection_30">
    <path clip-path="url(#p46411167c4)" d="M 626.163989 166.957515 
L 626.210151 142.698212 
L 649.53795 147.724911 
L 649.270352 172.072679 
z
" style="fill:#065d4c;fill-opacity:0.8;"/>
    <path clip-path="url(#p46411167c4)" d="M 612.831607 175.853782 
L 626.163989 166.957515 
L 649.270352 172.072679 
L 636.089198 181.069557 
z
" style="fill:#08745e;fill-opacity:0.8;"/>
    <path clip-path="url(#p46411167c4)" d="M 612.831607 175.853782 
L 612.750075 151.440966 
L 626.210151 142.698212 
L 626.163989 166.957515 
z
" style="fill:#0cba97;fill-opacity:0.8;"/>
    <path clip-path="url(#p46411167c4)" d="M 636.089198 181.069557 
L 649.270352 172.072679 
L 649.53795 147.724911 
L 636.232028 156.567493 
z
" style="fill:#065d4c;fill-opacity:0.8;"/>
    <path clip-path="url(#p46411167c4)" d="M 612.750075 151.440966 
L 636.232028 156.567493 
L 649.53795 147.724911 
L 626.210151 142.698212 
z
" style="fill:#0aa384;fill-opacity:0.8;"/>
    <path clip-path="url(#p46411167c4)" d="M 612.831607 175.853782 
L 636.089198 181.069557 
L 636.232028 156.567493 
L 612.750075 151.440966 
z
" style="fill:#0cba97;fill-opacity:0.8;"/>
   </g>
   <g id="Poly3DCollection_31">
    <path clip-path="url(#p46411167c4)" d="M 672.637489 177.245572 
L 672.514294 183.338862 
L 696.088899 188.592332 
L 696.26984 182.477176 
z
" style="fill:#0cba97;fill-opacity:0.8;"/>
    <path clip-path="url(#p46411167c4)" d="M 659.611861 186.344777 
L 659.519027 192.476007 
L 672.514294 183.338862 
L 672.637489 177.245572 
z
" style="fill:#065d4c;fill-opacity:0.8;"/>
    <path clip-path="url(#p46411167c4)" d="M 659.519027 192.476007 
L 683.252786 197.83374 
L 696.088899 188.592332 
L 672.514294 183.338862 
z
" style="fill:#0aa384;fill-opacity:0.8;"/>
    <path clip-path="url(#p46411167c4)" d="M 659.611861 186.344777 
L 672.637489 177.245572 
L 696.26984 182.477176 
L 683.404153 191.680464 
z
" style="fill:#08745e;fill-opacity:0.8;"/>
    <path clip-path="url(#p46411167c4)" d="M 683.404153 191.680464 
L 696.26984 182.477176 
L 696.088899 188.592332 
L 683.252786 197.83374 
z
" style="fill:#0cba97;fill-opacity:0.8;"/>
    <path clip-path="url(#p46411167c4)" d="M 659.611861 186.344777 
L 683.404153 191.680464 
L 683.252786 197.83374 
L 659.519027 192.476007 
z
" style="fill:#065d4c;fill-opacity:0.8;"/>
   </g>
   <g id="Poly3DCollection_32">
    <path clip-path="url(#p46411167c4)" d="M 599.236438 184.925398 
L 599.280643 189.992698 
L 622.644068 195.330309 
L 622.646752 190.244782 
z
" style="fill:#0cba97;fill-opacity:0.8;"/>
    <path clip-path="url(#p46411167c4)" d="M 585.370636 194.1776 
L 585.443318 199.276524 
L 599.280643 189.992698 
L 599.236438 184.925398 
z
" style="fill:#065d4c;fill-opacity:0.8;"/>
    <path clip-path="url(#p46411167c4)" d="M 585.443318 199.276524 
L 608.960342 204.72101 
L 622.644068 195.330309 
L 599.280643 189.992698 
z
" style="fill:#0aa384;fill-opacity:0.8;"/>
    <path clip-path="url(#p46411167c4)" d="M 585.370636 194.1776 
L 599.236438 184.925398 
L 622.646752 190.244782 
L 608.935165 199.60371 
z
" style="fill:#08745e;fill-opacity:0.8;"/>
    <path clip-path="url(#p46411167c4)" d="M 608.935165 199.60371 
L 622.646752 190.244782 
L 622.644068 195.330309 
L 608.960342 204.72101 
z
" style="fill:#0cba97;fill-opacity:0.8;"/>
    <path clip-path="url(#p46411167c4)" d="M 585.370636 194.1776 
L 608.935165 199.60371 
L 608.960342 204.72101 
L 585.443318 199.276524 
z
" style="fill:#065d4c;fill-opacity:0.8;"/>
   </g>
   <g id="Poly3DCollection_33">
    <path clip-path="url(#p46411167c4)" d="M 480.802314 174.405533 
L 660.668707 216.017638 
L 757.507032 146.158579 
L 586.291613 110.265453 
z
" style="fill-opacity:0.2;"/>
   </g>
   <g id="Poly3DCollection_34">
    <path clip-path="url(#p46411167c4)" d="M 646.326538 195.625396 
L 646.517912 176.343759 
L 670.65731 181.716079 
L 670.280475 201.068304 
z
" style="fill:#065d4c;fill-opacity:0.8;"/>
    <path clip-path="url(#p46411167c4)" d="M 632.773673 205.092909 
L 646.326538 195.625396 
L 670.280475 201.068304 
L 656.890965 210.646302 
z
" style="fill:#08745e;fill-opacity:0.8;"/>
    <path clip-path="url(#p46411167c4)" d="M 632.773673 205.092909 
L 632.862242 185.688796 
L 646.517912 176.343759 
L 646.326538 195.625396 
z
" style="fill:#0cba97;fill-opacity:0.8;"/>
    <path clip-path="url(#p46411167c4)" d="M 656.890965 210.646302 
L 670.280475 201.068304 
L 670.65731 181.716079 
L 657.167552 191.171018 
z
" style="fill:#065d4c;fill-opacity:0.8;"/>
    <path clip-path="url(#p46411167c4)" d="M 632.862242 185.688796 
L 657.167552 191.171018 
L 670.65731 181.716079 
L 646.517912 176.343759 
z
" style="fill:#0aa384;fill-opacity:0.8;"/>
    <path clip-path="url(#p46411167c4)" d="M 632.773673 205.092909 
L 656.890965 210.646302 
L 657.167552 191.171018 
L 632.862242 185.688796 
z
" style="fill:#0cba97;fill-opacity:0.8;"/>
   </g>
  </g>
 </g>
 <defs>
  <clipPath id="p659f05a6d8">
   <rect height="277.2" width="380.454545" x="-30.6" y="-14.4"/>
  </clipPath>
  <clipPath id="p46411167c4">
   <rect height="277.2" width="380.454545" x="425.945455" y="-14.4"/>
  </clipPath>
 </defs>
</svg>
