<?xml version="1.0" encoding="utf-8" standalone="no"?>
<!DOCTYPE svg PUBLIC "-//W3C//DTD SVG 1.1//EN"
  "http://www.w3.org/Graphics/SVG/1.1/DTD/svg11.dtd">
<!-- Created with matplotlib (https://matplotlib.org/) -->
<svg height="302.4pt" version="1.1" viewBox="0 0 820.8 302.4" width="820.8pt" xmlns="http://www.w3.org/2000/svg" xmlns:xlink="http://www.w3.org/1999/xlink">
 <defs>
  <style type="text/css">
*{stroke-linecap:butt;stroke-linejoin:round;}
  </style>
 </defs>
 <g id="figure_1">
  <g id="patch_1">
   <path d="M 0 302.4 
L 820.8 302.4 
L 820.8 0 
L 0 0 
z
" style="fill:#ffffff;"/>
  </g>
  <g id="patch_2">
   <path d="M -30.6 262.8 
L 349.854545 262.8 
L 349.854545 -14.4 
L -30.6 -14.4 
z
" style="fill:#ffffff;"/>
  </g>
  <g id="pane3d_1">
   <g id="patch_3">
    <path d="M 19.835129 201.548569 
L 128.723211 133.58541 
L 126.910339 3.718968 
L 11.951034 64.782468 
" style="fill:#f2f2f2;opacity:0.5;stroke:#f2f2f2;stroke-linejoin:miter;"/>
   </g>
  </g>
  <g id="pane3d_2">
   <g id="patch_4">
    <path d="M 128.723211 133.58541 
L 305.111665 171.581202 
L 312.491547 37.79869 
L 126.910339 3.718968 
" style="fill:#e6e6e6;opacity:0.5;stroke:#e6e6e6;stroke-linejoin:miter;"/>
   </g>
  </g>
  <g id="pane3d_3">
   <g id="patch_5">
    <path d="M 19.835129 201.548569 
L 205.419617 245.80086 
L 305.111665 171.581202 
L 128.723211 133.58541 
" style="fill:#ececec;opacity:0.5;stroke:#ececec;stroke-linejoin:miter;"/>
   </g>
  </g>
  <g id="axis3d_1">
   <g id="line2d_1">
    <path d="M 19.835129 201.548569 
L 205.419617 245.80086 
" style="fill:none;stroke:#000000;stroke-linecap:square;stroke-width:0.8;"/>
   </g>
   <g id="Line3DCollection_1">
    <path d="M 42.295817 206.90428 
L 150.133942 138.19749 
L 149.393845 7.847789 
" style="fill:none;stroke:#b0b0b0;stroke-width:0.8;"/>
    <path d="M 87.512337 217.686079 
L 193.184014 147.470895 
L 194.636898 16.156123 
" style="fill:none;stroke:#b0b0b0;stroke-width:0.8;"/>
    <path d="M 133.765289 228.715013 
L 237.148096 156.941187 
L 240.890183 24.649974 
" style="fill:none;stroke:#b0b0b0;stroke-width:0.8;"/>
    <path d="M 181.090721 239.999678 
L 282.055608 166.614702 
L 288.187917 33.335625 
" style="fill:none;stroke:#b0b0b0;stroke-width:0.8;"/>
   </g>
   <g id="xtick_1">
    <g id="line2d_2">
     <path d="M 43.225084 206.312217 
L 40.433807 208.09062 
" style="fill:none;stroke:#000000;stroke-linecap:square;stroke-width:0.8;"/>
    </g>
    <g id="text_1">
     <!-- 00 -->
     <defs>
      <path d="M 42 31.84375 
C 42 37.96875 41.90625 48.421875 37.703125 56.453125 
C 34 63.484375 28.09375 66 22.90625 66 
C 18.09375 66 12 63.78125 8.203125 56.5625 
C 4.203125 49.015625 3.796875 39.671875 3.796875 31.84375 
C 3.796875 26.109375 3.90625 17.375 7 9.734375 
C 11.296875 -0.609375 19 -2 22.90625 -2 
C 27.5 -2 34.5 -0.109375 38.59375 9.4375 
C 41.59375 16.375 42 24.5 42 31.84375 
z
M 22.90625 -0.40625 
C 16.5 -0.40625 12.703125 5.125 11.296875 12.75 
C 10.203125 18.6875 10.203125 27.328125 10.203125 32.953125 
C 10.203125 40.6875 10.203125 47.109375 11.5 53.234375 
C 13.40625 61.78125 19 64.390625 22.90625 64.390625 
C 27 64.390625 32.296875 61.671875 34.203125 53.4375 
C 35.5 47.71875 35.59375 40.984375 35.59375 32.953125 
C 35.59375 26.421875 35.59375 18.375 34.40625 12.453125 
C 32.296875 1.5 26.40625 -0.40625 22.90625 -0.40625 
z
" id="CMR17-48"/>
     </defs>
     <g transform="translate(23.330362 237.14703)rotate(-45)scale(0.14 -0.14)">
      <use transform="scale(0.996264)" xlink:href="#CMR17-48"/>
      <use transform="translate(45.690477 0)scale(0.996264)" xlink:href="#CMR17-48"/>
     </g>
    </g>
   </g>
   <g id="xtick_2">
    <g id="line2d_3">
     <path d="M 88.423674 217.080527 
L 85.686217 218.899473 
" style="fill:none;stroke:#000000;stroke-linecap:square;stroke-width:0.8;"/>
    </g>
    <g id="text_2">
     <!-- 01 -->
     <defs>
      <path d="M 26.59375 63.796875 
C 26.59375 65.890625 26.5 66 25.09375 66 
C 21.203125 61.359375 15.296875 59.890625 9.703125 59.6875 
C 9.40625 59.6875 8.90625 59.6875 8.796875 59.5 
C 8.703125 59.296875 8.703125 59.09375 8.703125 57 
C 11.796875 57 17 57.59375 21 59.984375 
L 21 7.296875 
C 21 3.796875 20.796875 2.59375 12.203125 2.59375 
L 9.203125 2.59375 
L 9.203125 0 
C 14 0.09375 19 0.1875 23.796875 0.1875 
C 28.59375 0.1875 33.59375 0.09375 38.40625 0 
L 38.40625 2.59375 
L 35.40625 2.59375 
C 26.796875 2.59375 26.59375 3.6875 26.59375 7.296875 
z
" id="CMR17-49"/>
     </defs>
     <g transform="translate(68.542787 248.103782)rotate(-45)scale(0.14 -0.14)">
      <use transform="scale(0.996264)" xlink:href="#CMR17-48"/>
      <use transform="translate(45.690477 0)scale(0.996264)" xlink:href="#CMR17-49"/>
     </g>
    </g>
   </g>
   <g id="xtick_3">
    <g id="line2d_4">
     <path d="M 134.657625 228.095506 
L 131.977203 229.956397 
" style="fill:none;stroke:#000000;stroke-linecap:square;stroke-width:0.8;"/>
    </g>
    <g id="text_3">
     <!-- 10 -->
     <g transform="translate(114.7934 259.312128)rotate(-45)scale(0.14 -0.14)">
      <use transform="scale(0.996264)" xlink:href="#CMR17-49"/>
      <use transform="translate(45.690477 0)scale(0.996264)" xlink:href="#CMR17-48"/>
     </g>
    </g>
   </g>
   <g id="xtick_4">
    <g id="line2d_5">
     <path d="M 181.962926 239.365727 
L 179.342936 241.270032 
" style="fill:none;stroke:#000000;stroke-linecap:square;stroke-width:0.8;"/>
    </g>
    <g id="text_4">
     <!-- 11 -->
     <g transform="translate(162.118375 270.780834)rotate(-45)scale(0.14 -0.14)">
      <use transform="scale(0.996264)" xlink:href="#CMR17-49"/>
      <use transform="translate(45.690477 0)scale(0.996264)" xlink:href="#CMR17-49"/>
     </g>
    </g>
   </g>
  </g>
  <g id="axis3d_2">
   <g id="line2d_6">
    <path d="M 305.111665 171.581202 
L 205.419617 245.80086 
" style="fill:none;stroke:#000000;stroke-linecap:square;stroke-width:0.8;"/>
   </g>
   <g id="Line3DCollection_2">
    <path d="M 27.455231 56.547028 
L 34.471044 192.413474 
L 218.858418 235.795817 
" style="fill:none;stroke:#b0b0b0;stroke-width:0.8;"/>
    <path d="M 57.232024 40.730342 
L 62.623407 174.842005 
L 244.674037 216.576366 
" style="fill:none;stroke:#b0b0b0;stroke-width:0.8;"/>
    <path d="M 85.85589 25.526062 
L 89.739382 157.917404 
L 269.496985 198.095948 
" style="fill:none;stroke:#b0b0b0;stroke-width:0.8;"/>
    <path d="M 113.392516 10.899296 
L 115.875164 141.604597 
L 293.383438 180.312741 
" style="fill:none;stroke:#b0b0b0;stroke-width:0.8;"/>
   </g>
   <g id="xtick_5">
    <g id="line2d_7">
     <path d="M 217.315598 235.432825 
L 221.947489 236.522608 
" style="fill:none;stroke:#000000;stroke-linecap:square;stroke-width:0.8;"/>
    </g>
    <g id="text_5">
     <!-- 00 -->
     <g transform="translate(232.650369 248.348363)rotate(-337.5)scale(0.14 -0.14)">
      <use transform="scale(0.996264)" xlink:href="#CMR17-48"/>
      <use transform="translate(45.690477 0)scale(0.996264)" xlink:href="#CMR17-48"/>
     </g>
    </g>
   </g>
   <g id="xtick_6">
    <g id="line2d_8">
     <path d="M 243.15208 216.227463 
L 247.72127 217.274932 
" style="fill:none;stroke:#000000;stroke-linecap:square;stroke-width:0.8;"/>
    </g>
    <g id="text_6">
     <!-- 01 -->
     <g transform="translate(258.203921 228.903937)rotate(-337.5)scale(0.14 -0.14)">
      <use transform="scale(0.996264)" xlink:href="#CMR17-48"/>
      <use transform="translate(45.690477 0)scale(0.996264)" xlink:href="#CMR17-49"/>
     </g>
    </g>
   </g>
   <g id="xtick_7">
    <g id="line2d_9">
     <path d="M 267.995442 197.76033 
L 272.503283 198.767901 
" style="fill:none;stroke:#000000;stroke-linecap:square;stroke-width:0.8;"/>
    </g>
    <g id="text_7">
     <!-- 10 -->
     <g transform="translate(282.775332 210.206849)rotate(-337.5)scale(0.14 -0.14)">
      <use transform="scale(0.996264)" xlink:href="#CMR17-49"/>
      <use transform="translate(45.690477 0)scale(0.996264)" xlink:href="#CMR17-48"/>
     </g>
    </g>
   </g>
   <g id="xtick_8">
    <g id="line2d_10">
     <path d="M 291.901865 179.989663 
L 296.349691 180.959573 
" style="fill:none;stroke:#000000;stroke-linecap:square;stroke-width:0.8;"/>
    </g>
    <g id="text_8">
     <!-- 11 -->
     <g transform="translate(306.420159 192.214827)rotate(-337.5)scale(0.14 -0.14)">
      <use transform="scale(0.996264)" xlink:href="#CMR17-49"/>
      <use transform="translate(45.690477 0)scale(0.996264)" xlink:href="#CMR17-49"/>
     </g>
    </g>
   </g>
  </g>
  <g id="axis3d_3">
   <g id="line2d_11">
    <path d="M 305.111665 171.581202 
L 312.491547 37.79869 
" style="fill:none;stroke:#000000;stroke-linecap:square;stroke-width:0.8;"/>
   </g>
   <g id="text_9">
    <!-- Re[$\rho$] -->
    <defs>
     <path d="M 39.203125 33.6875 
C 48.703125 35.59375 56.703125 42.015625 56.703125 50.046875 
C 56.703125 59.46875 46.09375 68 32.09375 68 
L 5.203125 68 
L 5.203125 65.390625 
C 12.09375 65.390625 13.203125 65.390625 13.203125 60.875 
L 13.203125 6.6875 
C 13.203125 2.1875 12.09375 2.1875 5.203125 2.1875 
L 5.203125 -0.40625 
C 8.09375 -0.203125 13.296875 -0.203125 16.40625 -0.203125 
C 19.5 -0.203125 24.703125 -0.203125 27.59375 -0.40625 
L 27.59375 2.1875 
C 20.703125 2.1875 19.59375 2.1875 19.59375 6.6875 
L 19.59375 33 
L 31.296875 33 
C 37 33 40.203125 30.6875 41.59375 29.390625 
C 45.59375 25.5 45.59375 22.796875 45.59375 16 
C 45.59375 9.296875 45.59375 5.890625 48.59375 2.5 
C 52.40625 -1.609375 57.5 -2 59.703125 -2 
C 67.09375 -2 68.203125 6.296875 68.203125 8 
C 68.203125 8.59375 68.203125 9.296875 67.296875 9.296875 
C 66.5 9.296875 66.40625 8.6875 66.40625 8.296875 
C 65.90625 1.796875 63 -0.40625 59.90625 -0.40625 
C 54.40625 -0.40625 53.796875 5.890625 53.203125 12 
C 52.90625 14.09375 52.703125 15.59375 52.5 17.796875 
C 51.90625 22.796875 51.09375 30.09375 39.203125 33.6875 
z
M 31 34.59375 
L 19.59375 34.59375 
L 19.59375 61.484375 
C 19.59375 64.890625 19.796875 65.390625 23.796875 65.390625 
L 31.09375 65.390625 
C 39.40625 65.390625 49.09375 62.484375 49.09375 50.046875 
C 49.09375 37.09375 38.5 34.59375 31 34.59375 
z
" id="CMR17-82"/>
     <path d="M 38.09375 23.484375 
C 38.5 23.890625 38.5 24.09375 38.5 25.09375 
C 38.5 35.171875 33.09375 44 21.703125 44 
C 11.09375 44 2.703125 33.984375 2.703125 21.78125 
C 2.703125 8.65625 12.203125 -1 22.796875 -1 
C 34 -1 38.40625 9.671875 38.40625 11.796875 
C 38.40625 12.5 37.796875 12.5 37.59375 12.5 
C 36.90625 12.5 36.796875 12.296875 36.40625 11.078125 
C 34.203125 4.21875 28.703125 0.796875 23.5 0.796875 
C 19.203125 0.796875 14.90625 3.21875 12.203125 7.65625 
C 9.09375 12.796875 9.09375 18.75 9.09375 23.484375 
z
M 9.203125 25 
C 9.90625 39.234375 17.59375 42.390625 21.59375 42.390625 
C 28.40625 42.390625 33 36.0625 33.09375 25 
z
" id="CMR17-101"/>
     <path d="M 23.5 -25 
L 23.5 -21.5 
L 14.09375 -21.5 
L 14.09375 71.484375 
L 23.5 71.484375 
L 23.5 75 
L 10.59375 75 
L 10.59375 -25 
z
" id="CMR17-91"/>
     <path d="M 3.09375 -16.953125 
C 3 -17.4375 2.796875 -18.03125 2.796875 -18.609375 
C 2.796875 -20.109375 4 -21.109375 5.5 -21.109375 
C 7 -21.109375 8.40625 -20.109375 9 -18.71875 
C 9.40625 -17.828125 12.203125 -6.09375 15.40625 6.078125 
C 17.40625 1.09375 21.09375 -1 25 -1 
C 36.296875 -1 49.09375 12.96875 49.09375 28.03125 
C 49.09375 38.703125 42.59375 44 35.703125 44 
C 26.90625 44 16.203125 34.90625 12.90625 21.640625 
z
M 24.90625 1 
C 18.09375 1 16.40625 8.875 16.40625 10.078125 
C 16.40625 10.671875 18.90625 20.140625 19.203125 21.640625 
C 24.296875 41.5 34.09375 41.984375 35.59375 41.984375 
C 40.09375 41.984375 42.59375 37.90625 42.59375 32.015625 
C 42.59375 26.9375 39.90625 17.046875 38.203125 12.859375 
C 35.203125 5.984375 30 1 24.90625 1 
z
" id="CMMI12-26"/>
     <path d="M 14.296875 75 
L 1.40625 75 
L 1.40625 71.484375 
L 10.796875 71.484375 
L 10.796875 -21.5 
L 1.40625 -21.5 
L 1.40625 -25 
L 14.296875 -25 
z
" id="CMR17-93"/>
    </defs>
    <g transform="translate(352.486567 117.931831)rotate(-86.842577)scale(0.14 -0.14)">
     <use transform="scale(0.996264)" xlink:href="#CMR17-82"/>
     <use transform="translate(67.791102 0)scale(0.996264)" xlink:href="#CMR17-101"/>
     <use transform="translate(108.276762 0)scale(0.996264)" xlink:href="#CMR17-91"/>
     <use transform="translate(133.147821 0)scale(0.996264)" xlink:href="#CMMI12-26"/>
     <use transform="translate(183.462194 0)scale(0.996264)" xlink:href="#CMR17-93"/>
    </g>
   </g>
   <g id="Line3DCollection_3">
    <path d="M 305.330365 167.616616 
L 128.669373 129.728732 
L 19.601877 197.502331 
" style="fill:none;stroke:#b0b0b0;stroke-width:0.8;"/>
    <path d="M 306.745126 141.969824 
L 128.321269 104.792029 
L 18.092404 171.317362 
" style="fill:none;stroke:#b0b0b0;stroke-width:0.8;"/>
    <path d="M 308.188656 115.801511 
L 127.966386 79.369713 
L 16.551209 144.582117 
" style="fill:none;stroke:#b0b0b0;stroke-width:0.8;"/>
    <path d="M 309.661841 89.095605 
L 127.604525 53.447462 
L 14.977282 117.279066 
" style="fill:none;stroke:#b0b0b0;stroke-width:0.8;"/>
    <path d="M 311.165605 61.835368 
L 127.235476 27.010381 
L 13.369569 89.389927 
" style="fill:none;stroke:#b0b0b0;stroke-width:0.8;"/>
   </g>
   <g id="xtick_9">
    <g id="line2d_12">
     <path d="M 303.856347 167.300489 
L 308.281468 168.249529 
" style="fill:none;stroke:#000000;stroke-linecap:square;stroke-width:0.8;"/>
    </g>
    <g id="text_10">
     <!-- $0.0$ -->
     <defs>
      <path d="M 18.40625 4.796875 
C 18.40625 7.6875 16 9.6875 13.59375 9.6875 
C 10.703125 9.6875 8.703125 7.296875 8.703125 4.890625 
C 8.703125 2 11.09375 0 13.5 0 
C 16.40625 0 18.40625 2.390625 18.40625 4.796875 
z
" id="CMMI12-58"/>
     </defs>
     <g transform="translate(315.143 175.363522)scale(0.14 -0.14)">
      <use transform="scale(0.996264)" xlink:href="#CMR17-48"/>
      <use transform="translate(45.690477 0)scale(0.996264)" xlink:href="#CMMI12-58"/>
      <use transform="translate(72.787654 0)scale(0.996264)" xlink:href="#CMR17-48"/>
     </g>
    </g>
   </g>
   <g id="xtick_10">
    <g id="line2d_13">
     <path d="M 305.255782 141.659493 
L 309.726944 142.591139 
" style="fill:none;stroke:#000000;stroke-linecap:square;stroke-width:0.8;"/>
    </g>
    <g id="text_11">
     <!-- $0.1$ -->
     <g transform="translate(316.740908 149.752315)scale(0.14 -0.14)">
      <use transform="scale(0.996264)" xlink:href="#CMR17-48"/>
      <use transform="translate(45.690477 0)scale(0.996264)" xlink:href="#CMMI12-58"/>
      <use transform="translate(72.787654 0)scale(0.996264)" xlink:href="#CMR17-49"/>
     </g>
    </g>
   </g>
   <g id="xtick_11">
    <g id="line2d_14">
     <path d="M 306.683664 115.497278 
L 311.201834 116.410622 
" style="fill:none;stroke:#000000;stroke-linecap:square;stroke-width:0.8;"/>
    </g>
    <g id="text_12">
     <!-- $0.2$ -->
     <defs>
      <path d="M 41.703125 15.46875 
L 39.90625 15.46875 
C 38.90625 8.390625 38.09375 7.1875 37.703125 6.59375 
C 37.203125 5.796875 30 5.796875 28.59375 5.796875 
L 9.40625 5.796875 
C 13 9.6875 20 16.765625 28.5 24.9375 
C 34.59375 30.71875 41.703125 37.5 41.703125 47.390625 
C 41.703125 59.1875 32.296875 66 21.796875 66 
C 10.796875 66 4.09375 56.296875 4.09375 47.296875 
C 4.09375 43.390625 7 42.890625 8.203125 42.890625 
C 9.203125 42.890625 12.203125 43.484375 12.203125 46.984375 
C 12.203125 50.09375 9.59375 51 8.203125 51 
C 7.59375 51 7 50.890625 6.59375 50.6875 
C 8.5 59.1875 14.296875 63.390625 20.40625 63.390625 
C 29.09375 63.390625 34.796875 56.5 34.796875 47.390625 
C 34.796875 38.703125 29.703125 31.21875 24 24.734375 
L 4.09375 2.296875 
L 4.09375 0 
L 39.296875 0 
z
" id="CMR17-50"/>
     </defs>
     <g transform="translate(318.371239 123.62144)scale(0.14 -0.14)">
      <use transform="scale(0.996264)" xlink:href="#CMR17-48"/>
      <use transform="translate(45.690477 0)scale(0.996264)" xlink:href="#CMMI12-58"/>
      <use transform="translate(72.787654 0)scale(0.996264)" xlink:href="#CMR17-50"/>
     </g>
    </g>
   </g>
   <g id="xtick_12">
    <g id="line2d_15">
     <path d="M 308.14087 88.797788 
L 312.707046 89.691878 
" style="fill:none;stroke:#000000;stroke-linecap:square;stroke-width:0.8;"/>
    </g>
    <g id="text_13">
     <!-- $0.3$ -->
     <defs>
      <path d="M 22.09375 34 
C 31 34 34.90625 26.140625 34.90625 17.09375 
C 34.90625 5.03125 28.5 0.390625 22.703125 0.390625 
C 17.40625 0.390625 8.796875 3.015625 6.09375 10.796875 
C 6.59375 10.59375 7.09375 10.59375 7.59375 10.59375 
C 10 10.59375 11.796875 12.1875 11.796875 14.796875 
C 11.796875 17.6875 9.59375 19 7.59375 19 
C 5.90625 19 3.296875 18.1875 3.296875 14.484375 
C 3.296875 5.234375 12.296875 -2 22.90625 -2 
C 34 -2 42.5 6.75 42.5 16.984375 
C 42.5 26.84375 34.5 34 25 35.09375 
C 32.59375 36.671875 39.90625 43.375 39.90625 52.390625 
C 39.90625 60.25 32 66 23 66 
C 13.90625 66 5.90625 60.34375 5.90625 52.296875 
C 5.90625 48.796875 8.5 48.1875 9.796875 48.1875 
C 11.90625 48.1875 13.703125 49.484375 13.703125 52.09375 
C 13.703125 54.6875 11.90625 56 9.796875 56 
C 9.40625 56 8.90625 56 8.5 55.796875 
C 11.40625 62.484375 19.296875 63.6875 22.796875 63.6875 
C 26.296875 63.6875 32.90625 61.96875 32.90625 52.296875 
C 32.90625 49.484375 32.5 44.546875 29.09375 40.21875 
C 26.09375 36.390625 22.703125 36.1875 19.40625 35.890625 
C 18.90625 35.890625 16.59375 35.6875 16.203125 35.6875 
C 15.5 35.59375 15.09375 35.5 15.09375 34.796875 
C 15.09375 34.09375 15.203125 34 17.203125 34 
z
" id="CMR17-51"/>
     </defs>
     <g transform="translate(320.034989 96.954917)scale(0.14 -0.14)">
      <use transform="scale(0.996264)" xlink:href="#CMR17-48"/>
      <use transform="translate(45.690477 0)scale(0.996264)" xlink:href="#CMMI12-58"/>
      <use transform="translate(72.787654 0)scale(0.996264)" xlink:href="#CMR17-51"/>
     </g>
    </g>
   </g>
   <g id="xtick_13">
    <g id="line2d_16">
     <path d="M 309.628312 61.5443 
L 314.243524 62.418136 
" style="fill:none;stroke:#000000;stroke-linecap:square;stroke-width:0.8;"/>
    </g>
    <g id="text_14">
     <!-- $0.4$ -->
     <defs>
      <path d="M 33.59375 64.796875 
C 33.59375 66.890625 33.5 67 31.703125 67 
L 2 19.59375 
L 2 17 
L 27.796875 17 
L 27.796875 7.1875 
C 27.796875 3.59375 27.59375 2.59375 20.59375 2.59375 
L 18.703125 2.59375 
L 18.703125 0 
C 21.90625 0.1875 27.296875 0.1875 30.703125 0.1875 
C 34.09375 0.1875 39.5 0.1875 42.703125 0 
L 42.703125 2.59375 
L 40.796875 2.59375 
C 33.796875 2.59375 33.59375 3.59375 33.59375 7.1875 
L 33.59375 17 
L 43.796875 17 
L 43.796875 19.59375 
L 33.59375 19.59375 
z
M 28.09375 58.171875 
L 28.09375 19.59375 
L 4 19.59375 
z
" id="CMR17-52"/>
     </defs>
     <g transform="translate(321.733198 69.736107)scale(0.14 -0.14)">
      <use transform="scale(0.996264)" xlink:href="#CMR17-48"/>
      <use transform="translate(45.690477 0)scale(0.996264)" xlink:href="#CMMI12-58"/>
      <use transform="translate(72.787654 0)scale(0.996264)" xlink:href="#CMR17-52"/>
     </g>
    </g>
   </g>
  </g>
  <g id="axes_1">
   <g id="Poly3DCollection_1">
    <path clip-path="url(#pba6a9fa9ea)" d="M 176.057091 145.372219 
L 176.050954 146.769767 
L 197.892125 151.4904 
L 197.91024 150.088028 
z
" style="fill:#ba0c2f;fill-opacity:0.8;"/>
    <path clip-path="url(#pba6a9fa9ea)" d="M 163.529712 153.572046 
L 163.530392 154.977964 
L 176.050954 146.769767 
L 176.057091 145.372219 
z
" style="fill:#5d0618;fill-opacity:0.8;"/>
    <path clip-path="url(#pba6a9fa9ea)" d="M 163.530392 154.977964 
L 185.506836 159.786168 
L 197.892125 151.4904 
L 176.050954 146.769767 
z
" style="fill:#a30a29;fill-opacity:0.8;"/>
    <path clip-path="url(#pba6a9fa9ea)" d="M 163.529712 153.572046 
L 176.057091 145.372219 
L 197.91024 150.088028 
L 185.518282 158.375385 
z
" style="fill:#74081d;fill-opacity:0.8;"/>
    <path clip-path="url(#pba6a9fa9ea)" d="M 185.518282 158.375385 
L 197.91024 150.088028 
L 197.892125 151.4904 
L 185.506836 159.786168 
z
" style="fill:#ba0c2f;fill-opacity:0.8;"/>
    <path clip-path="url(#pba6a9fa9ea)" d="M 163.529712 153.572046 
L 185.518282 158.375385 
L 185.506836 159.786168 
L 163.530392 154.977964 
z
" style="fill:#5d0618;fill-opacity:0.8;"/>
   </g>
   <g id="Poly3DCollection_2">
    <path clip-path="url(#pba6a9fa9ea)" d="M 107.223953 152.293663 
L 107.039423 144.073453 
L 128.764685 148.834496 
L 128.880385 157.083303 
z
" style="fill:#5d0618;fill-opacity:0.8;"/>
    <path clip-path="url(#pba6a9fa9ea)" d="M 93.959093 160.62212 
L 93.729912 152.35229 
L 107.039423 144.073453 
L 107.223953 152.293663 
z
" style="fill:#ba0c2f;fill-opacity:0.8;"/>
    <path clip-path="url(#pba6a9fa9ea)" d="M 93.959093 160.62212 
L 107.223953 152.293663 
L 128.880385 157.083303 
L 115.746205 165.501364 
z
" style="fill:#74081d;fill-opacity:0.8;"/>
    <path clip-path="url(#pba6a9fa9ea)" d="M 93.729912 152.35229 
L 115.586681 157.202692 
L 128.764685 148.834496 
L 107.039423 144.073453 
z
" style="fill:#a30a29;fill-opacity:0.8;"/>
    <path clip-path="url(#pba6a9fa9ea)" d="M 115.746205 165.501364 
L 128.880385 157.083303 
L 128.764685 148.834496 
L 115.586681 157.202692 
z
" style="fill:#5d0618;fill-opacity:0.8;"/>
    <path clip-path="url(#pba6a9fa9ea)" d="M 93.959093 160.62212 
L 115.746205 165.501364 
L 115.586681 157.202692 
L 93.729912 152.35229 
z
" style="fill:#ba0c2f;fill-opacity:0.8;"/>
   </g>
   <g id="Poly3DCollection_3">
    <path clip-path="url(#pba6a9fa9ea)" d="M 219.996205 154.854078 
L 220.104017 149.854893 
L 242.470928 154.65462 
L 242.318727 159.671176 
z
" style="fill:#5d0618;fill-opacity:0.8;"/>
    <path clip-path="url(#pba6a9fa9ea)" d="M 207.743293 163.230375 
L 207.827969 158.201048 
L 220.104017 149.854893 
L 219.996205 154.854078 
z
" style="fill:#ba0c2f;fill-opacity:0.8;"/>
    <path clip-path="url(#pba6a9fa9ea)" d="M 207.743293 163.230375 
L 219.996205 154.854078 
L 242.318727 159.671176 
L 230.208579 168.137851 
z
" style="fill:#74081d;fill-opacity:0.8;"/>
    <path clip-path="url(#pba6a9fa9ea)" d="M 207.827969 158.201048 
L 230.338218 163.091007 
L 242.470928 154.65462 
L 220.104017 149.854893 
z
" style="fill:#a30a29;fill-opacity:0.8;"/>
    <path clip-path="url(#pba6a9fa9ea)" d="M 230.208579 168.137851 
L 242.318727 159.671176 
L 242.470928 154.65462 
L 230.338218 163.091007 
z
" style="fill:#5d0618;fill-opacity:0.8;"/>
    <path clip-path="url(#pba6a9fa9ea)" d="M 207.743293 163.230375 
L 230.208579 168.137851 
L 230.338218 163.091007 
L 207.827969 158.201048 
z
" style="fill:#ba0c2f;fill-opacity:0.8;"/>
   </g>
   <g id="Poly3DCollection_4">
    <path clip-path="url(#pba6a9fa9ea)" d="M 150.769352 161.924371 
L 150.767632 161.610715 
L 172.895622 166.502956 
L 172.894618 166.817701 
z
" style="fill:#5d0618;fill-opacity:0.8;"/>
    <path clip-path="url(#pba6a9fa9ea)" d="M 137.769449 170.43349 
L 137.766102 170.117944 
L 150.767632 161.610715 
L 150.769352 161.924371 
z
" style="fill:#ba0c2f;fill-opacity:0.8;"/>
    <path clip-path="url(#pba6a9fa9ea)" d="M 137.769449 170.43349 
L 150.769352 161.924371 
L 172.894618 166.817701 
L 160.032687 175.419362 
z
" style="fill:#74081d;fill-opacity:0.8;"/>
    <path clip-path="url(#pba6a9fa9ea)" d="M 137.766102 170.117944 
L 160.032097 175.102718 
L 172.895622 166.502956 
L 150.767632 161.610715 
z
" style="fill:#a30a29;fill-opacity:0.8;"/>
    <path clip-path="url(#pba6a9fa9ea)" d="M 160.032687 175.419362 
L 172.894618 166.817701 
L 172.895622 166.502956 
L 160.032097 175.102718 
z
" style="fill:#5d0618;fill-opacity:0.8;"/>
    <path clip-path="url(#pba6a9fa9ea)" d="M 137.769449 170.43349 
L 160.032687 175.419362 
L 160.032097 175.102718 
L 137.766102 170.117944 
z
" style="fill:#ba0c2f;fill-opacity:0.8;"/>
   </g>
   <g id="Poly3DCollection_5">
    <path clip-path="url(#pba6a9fa9ea)" d="M 80.445583 169.106695 
L 80.442254 169.006162 
L 102.362006 173.977198 
L 102.364483 174.078081 
z
" style="fill:#5d0618;fill-opacity:0.8;"/>
    <path clip-path="url(#pba6a9fa9ea)" d="M 66.676363 177.75182 
L 66.672454 177.650679 
L 80.442254 169.006162 
L 80.445583 169.106695 
z
" style="fill:#ba0c2f;fill-opacity:0.8;"/>
    <path clip-path="url(#pba6a9fa9ea)" d="M 66.676363 177.75182 
L 80.445583 169.106695 
L 102.364483 174.078081 
L 88.728156 182.817982 
z
" style="fill:#74081d;fill-opacity:0.8;"/>
    <path clip-path="url(#pba6a9fa9ea)" d="M 66.672454 177.650679 
L 88.725109 182.716489 
L 102.362006 173.977198 
L 80.442254 169.006162 
z
" style="fill:#a30a29;fill-opacity:0.8;"/>
    <path clip-path="url(#pba6a9fa9ea)" d="M 88.728156 182.817982 
L 102.364483 174.078081 
L 102.362006 173.977198 
L 88.725109 182.716489 
z
" style="fill:#5d0618;fill-opacity:0.8;"/>
    <path clip-path="url(#pba6a9fa9ea)" d="M 66.676363 177.75182 
L 88.728156 182.817982 
L 88.725109 182.716489 
L 66.672454 177.650679 
z
" style="fill:#ba0c2f;fill-opacity:0.8;"/>
   </g>
   <g id="Poly3DCollection_6">
    <path clip-path="url(#pba6a9fa9ea)" d="M 120.246961 144.117054 
L 133.034673 136.088178 
L 154.433098 140.70586 
L 141.77383 148.819536 
z
" style="fill:#74081d;fill-opacity:0.8;"/>
    <path clip-path="url(#pba6a9fa9ea)" d="M 133.034673 136.088178 
L 131.679625 25.936922 
L 153.989357 30.150534 
L 154.433098 140.70586 
z
" style="fill:#5d0618;fill-opacity:0.8;"/>
    <path clip-path="url(#pba6a9fa9ea)" d="M 120.246961 144.117054 
L 118.327796 33.264444 
L 131.679625 25.936922 
L 133.034673 136.088178 
z
" style="fill:#ba0c2f;fill-opacity:0.8;"/>
    <path clip-path="url(#pba6a9fa9ea)" d="M 141.77383 148.819536 
L 154.433098 140.70586 
L 153.989357 30.150534 
L 140.777138 37.558796 
z
" style="fill:#5d0618;fill-opacity:0.8;"/>
    <path clip-path="url(#pba6a9fa9ea)" d="M 120.246961 144.117054 
L 141.77383 148.819536 
L 140.777138 37.558796 
L 118.327796 33.264444 
z
" style="fill:#ba0c2f;fill-opacity:0.8;"/>
    <path clip-path="url(#pba6a9fa9ea)" d="M 118.327796 33.264444 
L 140.777138 37.558796 
L 153.989357 30.150534 
L 131.679625 25.936922 
z
" style="fill:#a30a29;fill-opacity:0.8;"/>
   </g>
   <g id="Poly3DCollection_7">
    <path clip-path="url(#pba6a9fa9ea)" d="M 195.260032 171.764143 
L 195.335524 165.465646 
L 218.001713 170.444063 
L 217.869523 176.764566 
z
" style="fill:#5d0618;fill-opacity:0.8;"/>
    <path clip-path="url(#pba6a9fa9ea)" d="M 182.539862 180.459865 
L 182.58428 174.123186 
L 195.335524 165.465646 
L 195.260032 171.764143 
z
" style="fill:#ba0c2f;fill-opacity:0.8;"/>
    <path clip-path="url(#pba6a9fa9ea)" d="M 182.539862 180.459865 
L 195.260032 171.764143 
L 217.869523 176.764566 
L 205.295006 185.5559 
z
" style="fill:#74081d;fill-opacity:0.8;"/>
    <path clip-path="url(#pba6a9fa9ea)" d="M 182.58428 174.123186 
L 205.396858 179.197035 
L 218.001713 170.444063 
L 195.335524 165.465646 
z
" style="fill:#a30a29;fill-opacity:0.8;"/>
    <path clip-path="url(#pba6a9fa9ea)" d="M 205.295006 185.5559 
L 217.869523 176.764566 
L 218.001713 170.444063 
L 205.396858 179.197035 
z
" style="fill:#5d0618;fill-opacity:0.8;"/>
    <path clip-path="url(#pba6a9fa9ea)" d="M 182.539862 180.459865 
L 205.295006 185.5559 
L 205.396858 179.197035 
L 182.58428 174.123186 
z
" style="fill:#ba0c2f;fill-opacity:0.8;"/>
   </g>
   <g id="Poly3DCollection_8">
    <path clip-path="url(#pba6a9fa9ea)" d="M 124.523196 179.103857 
L 124.361792 168.930771 
L 146.853725 173.976143 
L 146.925679 184.184923 
z
" style="fill:#5d0618;fill-opacity:0.8;"/>
    <path clip-path="url(#pba6a9fa9ea)" d="M 111.023523 187.940102 
L 110.805908 177.705086 
L 124.361792 168.930771 
L 124.523196 179.103857 
z
" style="fill:#ba0c2f;fill-opacity:0.8;"/>
    <path clip-path="url(#pba6a9fa9ea)" d="M 111.023523 187.940102 
L 124.523196 179.103857 
L 146.925679 184.184923 
L 133.566522 193.119114 
z
" style="fill:#74081d;fill-opacity:0.8;"/>
    <path clip-path="url(#pba6a9fa9ea)" d="M 110.805908 177.705086 
L 133.43948 182.848113 
L 146.853725 173.976143 
L 124.361792 168.930771 
z
" style="fill:#a30a29;fill-opacity:0.8;"/>
    <path clip-path="url(#pba6a9fa9ea)" d="M 133.566522 193.119114 
L 146.925679 184.184923 
L 146.853725 173.976143 
L 133.43948 182.848113 
z
" style="fill:#5d0618;fill-opacity:0.8;"/>
    <path clip-path="url(#pba6a9fa9ea)" d="M 111.023523 187.940102 
L 133.566522 193.119114 
L 133.43948 182.848113 
L 110.805908 177.705086 
z
" style="fill:#ba0c2f;fill-opacity:0.8;"/>
   </g>
   <g id="Poly3DCollection_9">
    <path clip-path="url(#pba6a9fa9ea)" d="M 240.727111 181.819859 
L 240.879847 176.724724 
L 264.037206 181.817964 
L 263.8369 186.93093 
z
" style="fill:#5d0618;fill-opacity:0.8;"/>
    <path clip-path="url(#pba6a9fa9ea)" d="M 228.30224 190.708391 
L 228.431221 185.582319 
L 240.879847 176.724724 
L 240.727111 181.819859 
z
" style="fill:#ba0c2f;fill-opacity:0.8;"/>
    <path clip-path="url(#pba6a9fa9ea)" d="M 228.30224 190.708391 
L 240.727111 181.819859 
L 263.8369 186.93093 
L 251.565775 195.918281 
z
" style="fill:#74081d;fill-opacity:0.8;"/>
    <path clip-path="url(#pba6a9fa9ea)" d="M 228.431221 185.582319 
L 251.742967 190.774234 
L 264.037206 181.817964 
L 240.879847 176.724724 
z
" style="fill:#a30a29;fill-opacity:0.8;"/>
    <path clip-path="url(#pba6a9fa9ea)" d="M 251.565775 195.918281 
L 263.8369 186.93093 
L 264.037206 181.817964 
L 251.742967 190.774234 
z
" style="fill:#5d0618;fill-opacity:0.8;"/>
    <path clip-path="url(#pba6a9fa9ea)" d="M 228.30224 190.708391 
L 251.565775 195.918281 
L 251.742967 190.774234 
L 228.431221 185.582319 
z
" style="fill:#ba0c2f;fill-opacity:0.8;"/>
   </g>
   <g id="Poly3DCollection_10">
    <path clip-path="url(#pba6a9fa9ea)" d="M 169.575977 189.322195 
L 169.576585 189.002525 
L 192.48175 194.195824 
L 192.478224 194.516612 
z
" style="fill:#5d0618;fill-opacity:0.8;"/>
    <path clip-path="url(#pba6a9fa9ea)" d="M 156.361303 198.355969 
L 156.360229 198.034361 
L 169.576585 189.002525 
L 169.575977 189.322195 
z
" style="fill:#ba0c2f;fill-opacity:0.8;"/>
    <path clip-path="url(#pba6a9fa9ea)" d="M 156.361303 198.355969 
L 169.575977 189.322195 
L 192.478224 194.516612 
L 179.412107 203.651643 
z
" style="fill:#74081d;fill-opacity:0.8;"/>
    <path clip-path="url(#pba6a9fa9ea)" d="M 156.360229 198.034361 
L 179.413988 203.328909 
L 192.48175 194.195824 
L 169.576585 189.002525 
z
" style="fill:#a30a29;fill-opacity:0.8;"/>
    <path clip-path="url(#pba6a9fa9ea)" d="M 179.412107 203.651643 
L 192.478224 194.516612 
L 192.48175 194.195824 
L 179.413988 203.328909 
z
" style="fill:#5d0618;fill-opacity:0.8;"/>
    <path clip-path="url(#pba6a9fa9ea)" d="M 156.361303 198.355969 
L 179.412107 203.651643 
L 179.413988 203.328909 
L 156.360229 198.034361 
z
" style="fill:#ba0c2f;fill-opacity:0.8;"/>
   </g>
   <g id="Poly3DCollection_11">
    <path clip-path="url(#pba6a9fa9ea)" d="M 97.263086 196.94703 
L 97.26034 196.844566 
L 119.946036 202.124024 
L 119.94787 202.226847 
z
" style="fill:#5d0618;fill-opacity:0.8;"/>
    <path clip-path="url(#pba6a9fa9ea)" d="M 83.234257 206.129634 
L 83.230908 206.026548 
L 97.26034 196.844566 
L 97.263086 196.94703 
z
" style="fill:#ba0c2f;fill-opacity:0.8;"/>
    <path clip-path="url(#pba6a9fa9ea)" d="M 83.234257 206.129634 
L 97.263086 196.94703 
L 119.94787 202.226847 
L 106.062086 211.513229 
z
" style="fill:#74081d;fill-opacity:0.8;"/>
    <path clip-path="url(#pba6a9fa9ea)" d="M 83.230908 206.026548 
L 106.059661 211.409781 
L 119.946036 202.124024 
L 97.26034 196.844566 
z
" style="fill:#a30a29;fill-opacity:0.8;"/>
    <path clip-path="url(#pba6a9fa9ea)" d="M 106.062086 211.513229 
L 119.94787 202.226847 
L 119.946036 202.124024 
L 106.059661 211.409781 
z
" style="fill:#5d0618;fill-opacity:0.8;"/>
    <path clip-path="url(#pba6a9fa9ea)" d="M 83.234257 206.129634 
L 106.062086 211.513229 
L 106.059661 211.409781 
L 83.230908 206.026548 
z
" style="fill:#ba0c2f;fill-opacity:0.8;"/>
   </g>
   <g id="Poly3DCollection_12">
    <path clip-path="url(#pba6a9fa9ea)" d="M 215.636648 199.769131 
L 215.607301 201.220664 
L 239.012472 206.537345 
L 239.055572 205.080734 
z
" style="fill:#ba0c2f;fill-opacity:0.8;"/>
    <path clip-path="url(#pba6a9fa9ea)" d="M 202.723271 209.007132 
L 202.70116 210.467474 
L 215.607301 201.220664 
L 215.636648 199.769131 
z
" style="fill:#5d0618;fill-opacity:0.8;"/>
    <path clip-path="url(#pba6a9fa9ea)" d="M 202.70116 210.467474 
L 226.263183 215.888913 
L 239.012472 206.537345 
L 215.607301 201.220664 
z
" style="fill:#a30a29;fill-opacity:0.8;"/>
    <path clip-path="url(#pba6a9fa9ea)" d="M 202.723271 209.007132 
L 215.636648 199.769131 
L 239.055572 205.080734 
L 226.299233 214.423455 
z
" style="fill:#74081d;fill-opacity:0.8;"/>
    <path clip-path="url(#pba6a9fa9ea)" d="M 226.299233 214.423455 
L 239.055572 205.080734 
L 239.012472 206.537345 
L 226.263183 215.888913 
z
" style="fill:#ba0c2f;fill-opacity:0.8;"/>
    <path clip-path="url(#pba6a9fa9ea)" d="M 202.723271 209.007132 
L 226.299233 214.423455 
L 226.263183 215.888913 
L 202.70116 210.467474 
z
" style="fill:#5d0618;fill-opacity:0.8;"/>
   </g>
   <g id="Poly3DCollection_13">
    <path clip-path="url(#pba6a9fa9ea)" d="M 252.918058 173.098671 
L 264.881627 164.540146 
L 287.688809 169.461831 
L 275.875733 178.113709 
z
" style="fill:#74081d;fill-opacity:0.8;"/>
    <path clip-path="url(#pba6a9fa9ea)" d="M 264.881627 164.540146 
L 269.666372 42.610487 
L 293.596918 47.076957 
L 287.688809 169.461831 
z
" style="fill:#5d0618;fill-opacity:0.8;"/>
    <path clip-path="url(#pba6a9fa9ea)" d="M 252.918058 173.098671 
L 257.172596 50.378906 
L 269.666372 42.610487 
L 264.881627 164.540146 
z
" style="fill:#ba0c2f;fill-opacity:0.8;"/>
    <path clip-path="url(#pba6a9fa9ea)" d="M 275.875733 178.113709 
L 287.688809 169.461831 
L 293.596918 47.076957 
L 281.269051 54.934216 
z
" style="fill:#5d0618;fill-opacity:0.8;"/>
    <path clip-path="url(#pba6a9fa9ea)" d="M 252.918058 173.098671 
L 275.875733 178.113709 
L 281.269051 54.934216 
L 257.172596 50.378906 
z
" style="fill:#ba0c2f;fill-opacity:0.8;"/>
    <path clip-path="url(#pba6a9fa9ea)" d="M 257.172596 50.378906 
L 281.269051 54.934216 
L 293.596918 47.076957 
L 269.666372 42.610487 
z
" style="fill:#a30a29;fill-opacity:0.8;"/>
   </g>
   <g id="Poly3DCollection_14">
    <path clip-path="url(#pba6a9fa9ea)" d="M 142.888492 207.566209 
L 142.81399 199.025914 
L 166.09383 204.395729 
L 166.089307 212.966131 
z
" style="fill:#5d0618;fill-opacity:0.8;"/>
    <path clip-path="url(#pba6a9fa9ea)" d="M 129.149907 216.958138 
L 129.027424 208.365612 
L 142.81399 199.025914 
L 142.888492 207.566209 
z
" style="fill:#ba0c2f;fill-opacity:0.8;"/>
    <path clip-path="url(#pba6a9fa9ea)" d="M 129.149907 216.958138 
L 142.888492 207.566209 
L 166.089307 212.966131 
L 152.502186 222.465416 
z
" style="fill:#74081d;fill-opacity:0.8;"/>
    <path clip-path="url(#pba6a9fa9ea)" d="M 129.027424 208.365612 
L 152.459763 213.842556 
L 166.09383 204.395729 
L 142.81399 199.025914 
z
" style="fill:#a30a29;fill-opacity:0.8;"/>
    <path clip-path="url(#pba6a9fa9ea)" d="M 152.502186 222.465416 
L 166.089307 212.966131 
L 166.09383 204.395729 
L 152.459763 213.842556 
z
" style="fill:#5d0618;fill-opacity:0.8;"/>
    <path clip-path="url(#pba6a9fa9ea)" d="M 129.149907 216.958138 
L 152.502186 222.465416 
L 152.459763 213.842556 
L 129.027424 208.365612 
z
" style="fill:#ba0c2f;fill-opacity:0.8;"/>
   </g>
   <g id="Poly3DCollection_15">
    <path clip-path="url(#pba6a9fa9ea)" d="M 25.499794 196.88544 
L 203.759513 239.121374 
L 299.793555 168.195738 
L 130.034516 131.717497 
z
" style="fill-opacity:0.15;"/>
   </g>
   <g id="Poly3DCollection_16">
    <path clip-path="url(#pba6a9fa9ea)" d="M 38.341205 195.542295 
L 52.644107 186.562093 
L 74.829886 191.725768 
L 60.662054 200.806325 
z
" style="fill:#74081d;fill-opacity:0.8;"/>
    <path clip-path="url(#pba6a9fa9ea)" d="M 52.644107 186.562093 
L 46.933544 57.750519 
L 70.222556 62.427839 
L 74.829886 191.725768 
z
" style="fill:#5d0618;fill-opacity:0.8;"/>
    <path clip-path="url(#pba6a9fa9ea)" d="M 38.341205 195.542295 
L 31.836896 65.886594 
L 46.933544 57.750519 
L 52.644107 186.562093 
z
" style="fill:#ba0c2f;fill-opacity:0.8;"/>
    <path clip-path="url(#pba6a9fa9ea)" d="M 60.662054 200.806325 
L 74.829886 191.725768 
L 70.222556 62.427839 
L 55.274545 70.659531 
z
" style="fill:#5d0618;fill-opacity:0.8;"/>
    <path clip-path="url(#pba6a9fa9ea)" d="M 38.341205 195.542295 
L 60.662054 200.806325 
L 55.274545 70.659531 
L 31.836896 65.886594 
z
" style="fill:#ba0c2f;fill-opacity:0.8;"/>
    <path clip-path="url(#pba6a9fa9ea)" d="M 31.836896 65.886594 
L 55.274545 70.659531 
L 70.222556 62.427839 
L 46.933544 57.750519 
z
" style="fill:#a30a29;fill-opacity:0.8;"/>
   </g>
   <g id="Poly3DCollection_17">
    <path clip-path="url(#pba6a9fa9ea)" d="M 176.123495 228.03614 
L 189.554765 218.427648 
L 213.289422 223.951819 
L 200.018509 233.671414 
z
" style="fill:#74081d;fill-opacity:0.8;"/>
    <path clip-path="url(#pba6a9fa9ea)" d="M 189.554765 218.427648 
L 190.716733 101.355538 
L 215.577723 106.437035 
L 213.289422 223.951819 
z
" style="fill:#5d0618;fill-opacity:0.8;"/>
    <path clip-path="url(#pba6a9fa9ea)" d="M 176.123495 228.03614 
L 176.661373 110.195821 
L 190.716733 101.355538 
L 189.554765 218.427648 
z
" style="fill:#ba0c2f;fill-opacity:0.8;"/>
    <path clip-path="url(#pba6a9fa9ea)" d="M 200.018509 233.671414 
L 213.289422 223.951819 
L 215.577723 106.437035 
L 201.698416 115.384398 
z
" style="fill:#5d0618;fill-opacity:0.8;"/>
    <path clip-path="url(#pba6a9fa9ea)" d="M 176.123495 228.03614 
L 200.018509 233.671414 
L 201.698416 115.384398 
L 176.661373 110.195821 
z
" style="fill:#ba0c2f;fill-opacity:0.8;"/>
    <path clip-path="url(#pba6a9fa9ea)" d="M 176.661373 110.195821 
L 201.698416 115.384398 
L 215.577723 106.437035 
L 190.716733 101.355538 
z
" style="fill:#a30a29;fill-opacity:0.8;"/>
   </g>
  </g>
  <g id="patch_6">
   <path d="M 425.945455 262.8 
L 806.4 262.8 
L 806.4 -14.4 
L 425.945455 -14.4 
z
" style="fill:#ffffff;"/>
  </g>
  <g id="pane3d_4">
   <g id="patch_7">
    <path d="M 476.380584 201.548569 
L 585.268665 133.58541 
L 583.455794 3.718968 
L 468.496488 64.782468 
" style="fill:#f2f2f2;opacity:0.5;stroke:#f2f2f2;stroke-linejoin:miter;"/>
   </g>
  </g>
  <g id="pane3d_5">
   <g id="patch_8">
    <path d="M 585.268665 133.58541 
L 761.65712 171.581202 
L 769.037001 37.79869 
L 583.455794 3.718968 
" style="fill:#e6e6e6;opacity:0.5;stroke:#e6e6e6;stroke-linejoin:miter;"/>
   </g>
  </g>
  <g id="pane3d_6">
   <g id="patch_9">
    <path d="M 476.380584 201.548569 
L 661.965072 245.80086 
L 761.65712 171.581202 
L 585.268665 133.58541 
" style="fill:#ececec;opacity:0.5;stroke:#ececec;stroke-linejoin:miter;"/>
   </g>
  </g>
  <g id="axis3d_4">
   <g id="line2d_17">
    <path d="M 476.380584 201.548569 
L 661.965072 245.80086 
" style="fill:none;stroke:#000000;stroke-linecap:square;stroke-width:0.8;"/>
   </g>
   <g id="Line3DCollection_4">
    <path d="M 498.841271 206.90428 
L 606.679397 138.19749 
L 605.9393 7.847789 
" style="fill:none;stroke:#b0b0b0;stroke-width:0.8;"/>
    <path d="M 544.057792 217.686079 
L 649.729469 147.470895 
L 651.182353 16.156123 
" style="fill:none;stroke:#b0b0b0;stroke-width:0.8;"/>
    <path d="M 590.310744 228.715013 
L 693.693551 156.941187 
L 697.435637 24.649974 
" style="fill:none;stroke:#b0b0b0;stroke-width:0.8;"/>
    <path d="M 637.636176 239.999678 
L 738.601063 166.614702 
L 744.733372 33.335625 
" style="fill:none;stroke:#b0b0b0;stroke-width:0.8;"/>
   </g>
   <g id="xtick_14">
    <g id="line2d_18">
     <path d="M 499.770538 206.312217 
L 496.979262 208.09062 
" style="fill:none;stroke:#000000;stroke-linecap:square;stroke-width:0.8;"/>
    </g>
    <g id="text_15">
     <!-- 00 -->
     <g transform="translate(479.875817 237.14703)rotate(-45)scale(0.14 -0.14)">
      <use transform="scale(0.996264)" xlink:href="#CMR17-48"/>
      <use transform="translate(45.690477 0)scale(0.996264)" xlink:href="#CMR17-48"/>
     </g>
    </g>
   </g>
   <g id="xtick_15">
    <g id="line2d_19">
     <path d="M 544.969128 217.080527 
L 542.231671 218.899473 
" style="fill:none;stroke:#000000;stroke-linecap:square;stroke-width:0.8;"/>
    </g>
    <g id="text_16">
     <!-- 01 -->
     <g transform="translate(525.088242 248.103782)rotate(-45)scale(0.14 -0.14)">
      <use transform="scale(0.996264)" xlink:href="#CMR17-48"/>
      <use transform="translate(45.690477 0)scale(0.996264)" xlink:href="#CMR17-49"/>
     </g>
    </g>
   </g>
   <g id="xtick_16">
    <g id="line2d_20">
     <path d="M 591.20308 228.095506 
L 588.522658 229.956397 
" style="fill:none;stroke:#000000;stroke-linecap:square;stroke-width:0.8;"/>
    </g>
    <g id="text_17">
     <!-- 10 -->
     <g transform="translate(571.338855 259.312128)rotate(-45)scale(0.14 -0.14)">
      <use transform="scale(0.996264)" xlink:href="#CMR17-49"/>
      <use transform="translate(45.690477 0)scale(0.996264)" xlink:href="#CMR17-48"/>
     </g>
    </g>
   </g>
   <g id="xtick_17">
    <g id="line2d_21">
     <path d="M 638.50838 239.365727 
L 635.888391 241.270032 
" style="fill:none;stroke:#000000;stroke-linecap:square;stroke-width:0.8;"/>
    </g>
    <g id="text_18">
     <!-- 11 -->
     <g transform="translate(618.66383 270.780834)rotate(-45)scale(0.14 -0.14)">
      <use transform="scale(0.996264)" xlink:href="#CMR17-49"/>
      <use transform="translate(45.690477 0)scale(0.996264)" xlink:href="#CMR17-49"/>
     </g>
    </g>
   </g>
  </g>
  <g id="axis3d_5">
   <g id="line2d_22">
    <path d="M 761.65712 171.581202 
L 661.965072 245.80086 
" style="fill:none;stroke:#000000;stroke-linecap:square;stroke-width:0.8;"/>
   </g>
   <g id="Line3DCollection_5">
    <path d="M 484.000685 56.547028 
L 491.016499 192.413474 
L 675.403872 235.795817 
" style="fill:none;stroke:#b0b0b0;stroke-width:0.8;"/>
    <path d="M 513.777478 40.730342 
L 519.168861 174.842005 
L 701.219492 216.576366 
" style="fill:none;stroke:#b0b0b0;stroke-width:0.8;"/>
    <path d="M 542.401344 25.526062 
L 546.284836 157.917404 
L 726.04244 198.095948 
" style="fill:none;stroke:#b0b0b0;stroke-width:0.8;"/>
    <path d="M 569.937971 10.899296 
L 572.420618 141.604597 
L 749.928893 180.312741 
" style="fill:none;stroke:#b0b0b0;stroke-width:0.8;"/>
   </g>
   <g id="xtick_18">
    <g id="line2d_23">
     <path d="M 673.861052 235.432825 
L 678.492943 236.522608 
" style="fill:none;stroke:#000000;stroke-linecap:square;stroke-width:0.8;"/>
    </g>
    <g id="text_19">
     <!-- 00 -->
     <g transform="translate(689.195824 248.348363)rotate(-337.5)scale(0.14 -0.14)">
      <use transform="scale(0.996264)" xlink:href="#CMR17-48"/>
      <use transform="translate(45.690477 0)scale(0.996264)" xlink:href="#CMR17-48"/>
     </g>
    </g>
   </g>
   <g id="xtick_19">
    <g id="line2d_24">
     <path d="M 699.697534 216.227463 
L 704.266725 217.274932 
" style="fill:none;stroke:#000000;stroke-linecap:square;stroke-width:0.8;"/>
    </g>
    <g id="text_20">
     <!-- 01 -->
     <g transform="translate(714.749375 228.903937)rotate(-337.5)scale(0.14 -0.14)">
      <use transform="scale(0.996264)" xlink:href="#CMR17-48"/>
      <use transform="translate(45.690477 0)scale(0.996264)" xlink:href="#CMR17-49"/>
     </g>
    </g>
   </g>
   <g id="xtick_20">
    <g id="line2d_25">
     <path d="M 724.540896 197.76033 
L 729.048738 198.767901 
" style="fill:none;stroke:#000000;stroke-linecap:square;stroke-width:0.8;"/>
    </g>
    <g id="text_21">
     <!-- 10 -->
     <g transform="translate(739.320787 210.206849)rotate(-337.5)scale(0.14 -0.14)">
      <use transform="scale(0.996264)" xlink:href="#CMR17-49"/>
      <use transform="translate(45.690477 0)scale(0.996264)" xlink:href="#CMR17-48"/>
     </g>
    </g>
   </g>
   <g id="xtick_21">
    <g id="line2d_26">
     <path d="M 748.44732 179.989663 
L 752.895146 180.959573 
" style="fill:none;stroke:#000000;stroke-linecap:square;stroke-width:0.8;"/>
    </g>
    <g id="text_22">
     <!-- 11 -->
     <g transform="translate(762.965613 192.214827)rotate(-337.5)scale(0.14 -0.14)">
      <use transform="scale(0.996264)" xlink:href="#CMR17-49"/>
      <use transform="translate(45.690477 0)scale(0.996264)" xlink:href="#CMR17-49"/>
     </g>
    </g>
   </g>
  </g>
  <g id="axis3d_6">
   <g id="line2d_27">
    <path d="M 761.65712 171.581202 
L 769.037001 37.79869 
" style="fill:none;stroke:#000000;stroke-linecap:square;stroke-width:0.8;"/>
   </g>
   <g id="text_23">
    <!-- Im[$\rho$] -->
    <defs>
     <path d="M 19.703125 60.90625 
C 19.703125 65.390625 20.90625 65.390625 28.09375 65.390625 
L 28.09375 68 
C 24.90625 67.796875 19.796875 67.796875 16.40625 67.796875 
C 13 67.796875 7.90625 67.796875 4.703125 68 
L 4.703125 65.390625 
C 11.90625 65.390625 13.09375 65.390625 13.09375 60.90625 
L 13.09375 7.078125 
C 13.09375 2.59375 11.90625 2.59375 4.703125 2.59375 
L 4.703125 0 
C 7.90625 0.1875 13 0.1875 16.40625 0.1875 
C 19.796875 0.1875 24.90625 0.1875 28.09375 0 
L 28.09375 2.59375 
C 20.90625 2.59375 19.703125 2.59375 19.703125 7.078125 
z
" id="CMR17-73"/>
     <path d="M 67.59375 30.53125 
C 67.59375 35.5625 66.703125 44 54.796875 44 
C 48 44 43.296875 39.375 41.5 33.953125 
L 41.40625 33.953125 
C 40.203125 42.1875 34.296875 44 28.703125 44 
C 20.796875 44 16.703125 37.875 15.203125 33.84375 
L 15.09375 33.84375 
L 15.09375 44 
L 3.296875 42.890625 
L 3.296875 40.28125 
C 9.203125 40.28125 10.09375 39.6875 10.09375 34.859375 
L 10.09375 6.921875 
C 10.09375 3.09375 9.703125 2.59375 3.296875 2.59375 
L 3.296875 0 
C 5.703125 0.1875 10.09375 0.1875 12.703125 0.1875 
C 15.296875 0.1875 19.796875 0.1875 22.203125 0 
L 22.203125 2.59375 
C 15.796875 2.59375 15.40625 3 15.40625 6.921875 
L 15.40625 26.21875 
C 15.40625 35.453125 21 42.390625 28 42.390625 
C 35.40625 42.390625 36.203125 35.765625 36.203125 30.9375 
L 36.203125 6.921875 
C 36.203125 3.09375 35.796875 2.59375 29.40625 2.59375 
L 29.40625 0 
C 31.796875 0.1875 36.203125 0.1875 38.796875 0.1875 
C 41.40625 0.1875 45.90625 0.1875 48.296875 0 
L 48.296875 2.59375 
C 41.90625 2.59375 41.5 3 41.5 6.921875 
L 41.5 26.21875 
C 41.5 35.453125 47.09375 42.390625 54.09375 42.390625 
C 61.5 42.390625 62.296875 35.765625 62.296875 30.9375 
L 62.296875 6.921875 
C 62.296875 3.09375 61.90625 2.59375 55.5 2.59375 
L 55.5 0 
C 57.90625 0.1875 62.296875 0.1875 64.90625 0.1875 
C 67.5 0.1875 72 0.1875 74.40625 0 
L 74.40625 2.59375 
C 68 2.59375 67.59375 3 67.59375 6.921875 
z
" id="CMR17-109"/>
    </defs>
    <g transform="translate(809.026865 118.025317)rotate(-86.842577)scale(0.14 -0.14)">
     <use transform="scale(0.996264)" xlink:href="#CMR17-73"/>
     <use transform="translate(32.638409 0)scale(0.996264)" xlink:href="#CMR17-109"/>
     <use transform="translate(109.557999 0)scale(0.996264)" xlink:href="#CMR17-91"/>
     <use transform="translate(134.429058 0)scale(0.996264)" xlink:href="#CMMI12-26"/>
     <use transform="translate(184.74343 0)scale(0.996264)" xlink:href="#CMR17-93"/>
    </g>
   </g>
   <g id="Line3DCollection_6">
    <path d="M 762.262007 160.615806 
L 585.119777 122.919687 
L 475.735389 190.356328 
" style="fill:none;stroke:#b0b0b0;stroke-width:0.8;"/>
    <path d="M 764.96713 111.577334 
L 584.454583 75.26799 
L 472.847782 140.264737 
" style="fill:none;stroke:#b0b0b0;stroke-width:0.8;"/>
    <path d="M 767.778119 60.619703 
L 583.76448 25.83197 
L 469.843302 88.14576 
" style="fill:none;stroke:#b0b0b0;stroke-width:0.8;"/>
   </g>
   <g id="xtick_22">
    <g id="line2d_28">
     <path d="M 760.783807 160.301243 
L 765.221492 161.245589 
" style="fill:none;stroke:#000000;stroke-linecap:square;stroke-width:0.8;"/>
    </g>
    <g id="text_24">
     <!-- $0.0$ -->
     <g transform="translate(772.124642 168.372317)scale(0.14 -0.14)">
      <use transform="scale(0.996264)" xlink:href="#CMR17-48"/>
      <use transform="translate(45.690477 0)scale(0.996264)" xlink:href="#CMMI12-58"/>
      <use transform="translate(72.787654 0)scale(0.996264)" xlink:href="#CMR17-48"/>
     </g>
    </g>
   </g>
   <g id="xtick_23">
    <g id="line2d_29">
     <path d="M 763.459611 111.274103 
L 767.985373 112.184441 
" style="fill:none;stroke:#000000;stroke-linecap:square;stroke-width:0.8;"/>
    </g>
    <g id="text_25">
     <!-- $0.2$ -->
     <g transform="translate(775.17986 119.403414)scale(0.14 -0.14)">
      <use transform="scale(0.996264)" xlink:href="#CMR17-48"/>
      <use transform="translate(45.690477 0)scale(0.996264)" xlink:href="#CMMI12-58"/>
      <use transform="translate(72.787654 0)scale(0.996264)" xlink:href="#CMR17-50"/>
     </g>
    </g>
   </g>
   <g id="xtick_24">
    <g id="line2d_30">
     <path d="M 766.240098 60.32894 
L 770.857498 61.201859 
" style="fill:none;stroke:#000000;stroke-linecap:square;stroke-width:0.8;"/>
    </g>
    <g id="text_26">
     <!-- $0.4$ -->
     <g transform="translate(778.354382 68.522318)scale(0.14 -0.14)">
      <use transform="scale(0.996264)" xlink:href="#CMR17-48"/>
      <use transform="translate(45.690477 0)scale(0.996264)" xlink:href="#CMMI12-58"/>
      <use transform="translate(72.787654 0)scale(0.996264)" xlink:href="#CMR17-52"/>
     </g>
    </g>
   </g>
  </g>
  <g id="axes_2">
   <g id="Poly3DCollection_18">
    <path clip-path="url(#pbec79b5c09)" d="M 589.495961 129.246344 
L 589.473182 127.394598 
L 610.943538 131.982188 
L 610.950996 133.84037 
z
" style="fill:#065d4c;fill-opacity:0.8;"/>
    <path clip-path="url(#pbec79b5c09)" d="M 576.673254 137.234171 
L 576.641002 135.371257 
L 589.473182 127.394598 
L 589.495961 129.246344 
z
" style="fill:#0cba97;fill-opacity:0.8;"/>
    <path clip-path="url(#pbec79b5c09)" d="M 576.673254 137.234171 
L 589.495961 129.246344 
L 610.950996 133.84037 
L 598.257413 141.91279 
z
" style="fill:#08745e;fill-opacity:0.8;"/>
    <path clip-path="url(#pbec79b5c09)" d="M 576.641002 135.371257 
L 598.240666 140.043384 
L 610.943538 131.982188 
L 589.473182 127.394598 
z
" style="fill:#0aa384;fill-opacity:0.8;"/>
    <path clip-path="url(#pbec79b5c09)" d="M 598.257413 141.91279 
L 610.950996 133.84037 
L 610.943538 131.982188 
L 598.240666 140.043384 
z
" style="fill:#065d4c;fill-opacity:0.8;"/>
    <path clip-path="url(#pbec79b5c09)" d="M 576.673254 137.234171 
L 598.257413 141.91279 
L 598.240666 140.043384 
L 576.641002 135.371257 
z
" style="fill:#0cba97;fill-opacity:0.8;"/>
   </g>
   <g id="Poly3DCollection_19">
    <path clip-path="url(#pbec79b5c09)" d="M 632.632802 138.482953 
L 632.626017 140.028075 
L 654.524967 144.725365 
L 654.544995 143.174867 
z
" style="fill:#0cba97;fill-opacity:0.8;"/>
    <path clip-path="url(#pbec79b5c09)" d="M 620.071816 146.641317 
L 620.072567 148.195768 
L 632.626017 140.028075 
L 632.632802 138.482953 
z
" style="fill:#065d4c;fill-opacity:0.8;"/>
    <path clip-path="url(#pbec79b5c09)" d="M 620.072567 148.195768 
L 642.10751 152.980429 
L 654.524967 144.725365 
L 632.626017 140.028075 
z
" style="fill:#0aa384;fill-opacity:0.8;"/>
    <path clip-path="url(#pbec79b5c09)" d="M 620.071816 146.641317 
L 632.632802 138.482953 
L 654.544995 143.174867 
L 642.120167 151.420555 
z
" style="fill:#08745e;fill-opacity:0.8;"/>
    <path clip-path="url(#pbec79b5c09)" d="M 642.120167 151.420555 
L 654.544995 143.174867 
L 654.524967 144.725365 
L 642.10751 152.980429 
z
" style="fill:#0cba97;fill-opacity:0.8;"/>
    <path clip-path="url(#pbec79b5c09)" d="M 620.071816 146.641317 
L 642.120167 151.420555 
L 642.10751 152.980429 
L 620.072567 148.195768 
z
" style="fill:#065d4c;fill-opacity:0.8;"/>
   </g>
   <g id="Poly3DCollection_20">
    <path clip-path="url(#pbec79b5c09)" d="M 563.613969 145.369372 
L 563.471217 139.010258 
L 585.238873 143.753547 
L 585.32838 150.134942 
z
" style="fill:#065d4c;fill-opacity:0.8;"/>
    <path clip-path="url(#pbec79b5c09)" d="M 550.311498 153.656064 
L 550.134196 147.258286 
L 563.471217 139.010258 
L 563.613969 145.369372 
z
" style="fill:#0cba97;fill-opacity:0.8;"/>
    <path clip-path="url(#pbec79b5c09)" d="M 550.311498 153.656064 
L 563.613969 145.369372 
L 585.32838 150.134942 
L 572.157286 158.511033 
z
" style="fill:#08745e;fill-opacity:0.8;"/>
    <path clip-path="url(#pbec79b5c09)" d="M 550.134196 147.258286 
L 572.03387 152.090779 
L 585.238873 143.753547 
L 563.471217 139.010258 
z
" style="fill:#0aa384;fill-opacity:0.8;"/>
    <path clip-path="url(#pbec79b5c09)" d="M 572.157286 158.511033 
L 585.32838 150.134942 
L 585.238873 143.753547 
L 572.03387 152.090779 
z
" style="fill:#065d4c;fill-opacity:0.8;"/>
    <path clip-path="url(#pbec79b5c09)" d="M 550.311498 153.656064 
L 572.157286 158.511033 
L 572.03387 152.090779 
L 550.134196 147.258286 
z
" style="fill:#0cba97;fill-opacity:0.8;"/>
   </g>
   <g id="Poly3DCollection_21">
    <path clip-path="url(#pbec79b5c09)" d="M 676.691266 147.916903 
L 676.643086 150.151006 
L 699.007367 154.951765 
L 699.075386 152.709868 
z
" style="fill:#0cba97;fill-opacity:0.8;"/>
    <path clip-path="url(#pbec79b5c09)" d="M 664.40625 156.251325 
L 664.368408 158.498952 
L 676.643086 150.151006 
L 676.691266 147.916903 
z
" style="fill:#065d4c;fill-opacity:0.8;"/>
    <path clip-path="url(#pbec79b5c09)" d="M 664.368408 158.498952 
L 686.875994 163.389951 
L 699.007367 154.951765 
L 676.643086 150.151006 
z
" style="fill:#0aa384;fill-opacity:0.8;"/>
    <path clip-path="url(#pbec79b5c09)" d="M 664.40625 156.251325 
L 676.691266 147.916903 
L 699.075386 152.709868 
L 686.933931 161.134463 
z
" style="fill:#08745e;fill-opacity:0.8;"/>
    <path clip-path="url(#pbec79b5c09)" d="M 686.933931 161.134463 
L 699.075386 152.709868 
L 699.007367 154.951765 
L 686.875994 163.389951 
z
" style="fill:#0cba97;fill-opacity:0.8;"/>
    <path clip-path="url(#pbec79b5c09)" d="M 664.40625 156.251325 
L 686.933931 161.134463 
L 686.875994 163.389951 
L 664.368408 158.498952 
z
" style="fill:#065d4c;fill-opacity:0.8;"/>
   </g>
   <g id="Poly3DCollection_22">
    <path clip-path="url(#pbec79b5c09)" d="M 607.276585 154.951823 
L 607.278007 155.211235 
L 629.461549 160.081166 
L 629.462379 159.820846 
z
" style="fill:#0cba97;fill-opacity:0.8;"/>
    <path clip-path="url(#pbec79b5c09)" d="M 594.240495 163.418766 
L 594.243264 163.679754 
L 607.278007 155.211235 
L 607.276585 154.951823 
z
" style="fill:#065d4c;fill-opacity:0.8;"/>
    <path clip-path="url(#pbec79b5c09)" d="M 594.243264 163.679754 
L 616.565507 168.642031 
L 629.461549 160.081166 
L 607.278007 155.211235 
z
" style="fill:#0aa384;fill-opacity:0.8;"/>
    <path clip-path="url(#pbec79b5c09)" d="M 594.240495 163.418766 
L 607.276585 154.951823 
L 629.462379 159.820846 
L 616.565018 168.380128 
z
" style="fill:#08745e;fill-opacity:0.8;"/>
    <path clip-path="url(#pbec79b5c09)" d="M 616.565018 168.380128 
L 629.462379 159.820846 
L 629.461549 160.081166 
L 616.565507 168.642031 
z
" style="fill:#0cba97;fill-opacity:0.8;"/>
    <path clip-path="url(#pbec79b5c09)" d="M 594.240495 163.418766 
L 616.565018 168.380128 
L 616.565507 168.642031 
L 594.243264 163.679754 
z
" style="fill:#065d4c;fill-opacity:0.8;"/>
   </g>
   <g id="Poly3DCollection_23">
    <path clip-path="url(#pbec79b5c09)" d="M 721.701208 157.554586 
L 721.701208 157.554586 
L 744.572666 162.451902 
L 744.572666 162.451902 
z
" style="fill:#065d4c;fill-opacity:0.8;"/>
    <path clip-path="url(#pbec79b5c09)" d="M 709.707159 166.070827 
L 709.707159 166.070827 
L 721.701208 157.554586 
L 721.701208 157.554586 
z
" style="fill:#065d4c;fill-opacity:0.8;"/>
    <path clip-path="url(#pbec79b5c09)" d="M 709.707159 166.070827 
L 721.701208 157.554586 
L 744.572666 162.451902 
L 732.729972 171.061291 
z
" style="fill:#08745e;fill-opacity:0.8;"/>
    <path clip-path="url(#pbec79b5c09)" d="M 709.707159 166.070827 
L 732.729972 171.061291 
L 744.572666 162.451902 
L 721.701208 157.554586 
z
" style="fill:#0aa384;fill-opacity:0.8;"/>
    <path clip-path="url(#pbec79b5c09)" d="M 732.729972 171.061291 
L 744.572666 162.451902 
L 744.572666 162.451902 
L 732.729972 171.061291 
z
" style="fill:#065d4c;fill-opacity:0.8;"/>
    <path clip-path="url(#pbec79b5c09)" d="M 709.707159 166.070827 
L 732.729972 171.061291 
L 732.729972 171.061291 
L 709.707159 166.070827 
z
" style="fill:#065d4c;fill-opacity:0.8;"/>
   </g>
   <g id="Poly3DCollection_24">
    <path clip-path="url(#pbec79b5c09)" d="M 651.889642 164.742863 
L 651.889642 164.742863 
L 674.562338 169.718744 
L 674.562338 169.718744 
z
" style="fill:#065d4c;fill-opacity:0.8;"/>
    <path clip-path="url(#pbec79b5c09)" d="M 639.134832 173.396003 
L 639.134832 173.396003 
L 651.889642 164.742863 
L 651.889642 164.742863 
z
" style="fill:#065d4c;fill-opacity:0.8;"/>
    <path clip-path="url(#pbec79b5c09)" d="M 639.134832 173.396003 
L 651.889642 164.742863 
L 674.562338 169.718744 
L 661.954001 178.467294 
z
" style="fill:#08745e;fill-opacity:0.8;"/>
    <path clip-path="url(#pbec79b5c09)" d="M 639.134832 173.396003 
L 661.954001 178.467294 
L 674.562338 169.718744 
L 651.889642 164.742863 
z
" style="fill:#0aa384;fill-opacity:0.8;"/>
    <path clip-path="url(#pbec79b5c09)" d="M 661.954001 178.467294 
L 674.562338 169.718744 
L 674.562338 169.718744 
L 661.954001 178.467294 
z
" style="fill:#065d4c;fill-opacity:0.8;"/>
    <path clip-path="url(#pbec79b5c09)" d="M 639.134832 173.396003 
L 661.954001 178.467294 
L 661.954001 178.467294 
L 639.134832 173.396003 
z
" style="fill:#065d4c;fill-opacity:0.8;"/>
   </g>
   <g id="Poly3DCollection_25">
    <path clip-path="url(#pbec79b5c09)" d="M 536.758984 162.098519 
L 536.478006 153.612771 
L 558.528185 158.529755 
L 558.737267 167.045425 
z
" style="fill:#065d4c;fill-opacity:0.8;"/>
    <path clip-path="url(#pbec79b5c09)" d="M 522.949311 170.70117 
L 522.619331 162.163501 
L 536.478006 153.612771 
L 536.758984 162.098519 
z
" style="fill:#0cba97;fill-opacity:0.8;"/>
    <path clip-path="url(#pbec79b5c09)" d="M 522.949311 170.70117 
L 536.758984 162.098519 
L 558.737267 167.045425 
L 545.061201 175.74265 
z
" style="fill:#08745e;fill-opacity:0.8;"/>
    <path clip-path="url(#pbec79b5c09)" d="M 522.619331 162.163501 
L 544.803986 167.174805 
L 558.528185 158.529755 
L 536.478006 153.612771 
z
" style="fill:#0aa384;fill-opacity:0.8;"/>
    <path clip-path="url(#pbec79b5c09)" d="M 545.061201 175.74265 
L 558.737267 167.045425 
L 558.528185 158.529755 
L 544.803986 167.174805 
z
" style="fill:#065d4c;fill-opacity:0.8;"/>
    <path clip-path="url(#pbec79b5c09)" d="M 522.949311 170.70117 
L 545.061201 175.74265 
L 544.803986 167.174805 
L 522.619331 162.163501 
z
" style="fill:#0cba97;fill-opacity:0.8;"/>
   </g>
   <g id="Poly3DCollection_26">
    <path clip-path="url(#pbec79b5c09)" d="M 580.956682 172.046606 
L 580.956682 172.046606 
L 603.421218 177.102958 
L 603.421218 177.102958 
z
" style="fill:#065d4c;fill-opacity:0.8;"/>
    <path clip-path="url(#pbec79b5c09)" d="M 567.418016 180.839973 
L 567.418016 180.839973 
L 580.956682 172.046606 
L 580.956682 172.046606 
z
" style="fill:#065d4c;fill-opacity:0.8;"/>
    <path clip-path="url(#pbec79b5c09)" d="M 567.418016 180.839973 
L 580.956682 172.046606 
L 603.421218 177.102958 
L 590.023847 185.99407 
z
" style="fill:#08745e;fill-opacity:0.8;"/>
    <path clip-path="url(#pbec79b5c09)" d="M 567.418016 180.839973 
L 590.023847 185.99407 
L 603.421218 177.102958 
L 580.956682 172.046606 
z
" style="fill:#0aa384;fill-opacity:0.8;"/>
    <path clip-path="url(#pbec79b5c09)" d="M 590.023847 185.99407 
L 603.421218 177.102958 
L 603.421218 177.102958 
L 590.023847 185.99407 
z
" style="fill:#065d4c;fill-opacity:0.8;"/>
    <path clip-path="url(#pbec79b5c09)" d="M 567.418016 180.839973 
L 590.023847 185.99407 
L 590.023847 185.99407 
L 567.418016 180.839973 
z
" style="fill:#065d4c;fill-opacity:0.8;"/>
   </g>
   <g id="Poly3DCollection_27">
    <path clip-path="url(#pbec79b5c09)" d="M 697.484516 174.749378 
L 697.552901 172.46813 
L 720.750005 177.546385 
L 720.660319 179.835674 
z
" style="fill:#065d4c;fill-opacity:0.8;"/>
    <path clip-path="url(#pbec79b5c09)" d="M 685.026682 183.594925 
L 685.084433 181.299726 
L 697.552901 172.46813 
L 697.484516 174.749378 
z
" style="fill:#0cba97;fill-opacity:0.8;"/>
    <path clip-path="url(#pbec79b5c09)" d="M 685.026682 183.594925 
L 697.484516 174.749378 
L 720.660319 179.835674 
L 708.357121 188.77984 
z
" style="fill:#08745e;fill-opacity:0.8;"/>
    <path clip-path="url(#pbec79b5c09)" d="M 685.084433 181.299726 
L 708.436461 186.476535 
L 720.750005 177.546385 
L 697.552901 172.46813 
z
" style="fill:#0aa384;fill-opacity:0.8;"/>
    <path clip-path="url(#pbec79b5c09)" d="M 708.357121 188.77984 
L 720.660319 179.835674 
L 720.750005 177.546385 
L 708.436461 186.476535 
z
" style="fill:#065d4c;fill-opacity:0.8;"/>
    <path clip-path="url(#pbec79b5c09)" d="M 685.026682 183.594925 
L 708.357121 188.77984 
L 708.436461 186.476535 
L 685.084433 181.299726 
z
" style="fill:#0cba97;fill-opacity:0.8;"/>
   </g>
   <g id="Poly3DCollection_28">
    <path clip-path="url(#pbec79b5c09)" d="M 508.875089 179.46862 
L 508.875089 179.46862 
L 531.121689 184.607412 
L 531.121689 184.607412 
z
" style="fill:#065d4c;fill-opacity:0.8;"/>
    <path clip-path="url(#pbec79b5c09)" d="M 494.528643 188.40565 
L 494.528643 188.40565 
L 508.875089 179.46862 
L 508.875089 179.46862 
z
" style="fill:#065d4c;fill-opacity:0.8;"/>
    <path clip-path="url(#pbec79b5c09)" d="M 494.528643 188.40565 
L 508.875089 179.46862 
L 531.121689 184.607412 
L 516.911044 193.6446 
z
" style="fill:#08745e;fill-opacity:0.8;"/>
    <path clip-path="url(#pbec79b5c09)" d="M 494.528643 188.40565 
L 516.911044 193.6446 
L 531.121689 184.607412 
L 508.875089 179.46862 
z
" style="fill:#0aa384;fill-opacity:0.8;"/>
    <path clip-path="url(#pbec79b5c09)" d="M 516.911044 193.6446 
L 531.121689 184.607412 
L 531.121689 184.607412 
L 516.911044 193.6446 
z
" style="fill:#065d4c;fill-opacity:0.8;"/>
    <path clip-path="url(#pbec79b5c09)" d="M 494.528643 188.40565 
L 516.911044 193.6446 
L 516.911044 193.6446 
L 494.528643 188.40565 
z
" style="fill:#065d4c;fill-opacity:0.8;"/>
   </g>
   <g id="Poly3DCollection_29">
    <path clip-path="url(#pbec79b5c09)" d="M 626.134955 182.215401 
L 626.135458 181.950918 
L 649.104978 187.119458 
L 649.102061 187.384873 
z
" style="fill:#065d4c;fill-opacity:0.8;"/>
    <path clip-path="url(#pbec79b5c09)" d="M 612.882878 191.205898 
L 612.88199 190.939796 
L 626.135458 181.950918 
L 626.134955 182.215401 
z
" style="fill:#0cba97;fill-opacity:0.8;"/>
    <path clip-path="url(#pbec79b5c09)" d="M 612.882878 191.205898 
L 626.134955 182.215401 
L 649.102061 187.384873 
L 635.999387 196.476429 
z
" style="fill:#08745e;fill-opacity:0.8;"/>
    <path clip-path="url(#pbec79b5c09)" d="M 612.88199 190.939796 
L 636.000944 196.209388 
L 649.104978 187.119458 
L 626.135458 181.950918 
z
" style="fill:#0aa384;fill-opacity:0.8;"/>
    <path clip-path="url(#pbec79b5c09)" d="M 635.999387 196.476429 
L 649.102061 187.384873 
L 649.104978 187.119458 
L 636.000944 196.209388 
z
" style="fill:#065d4c;fill-opacity:0.8;"/>
    <path clip-path="url(#pbec79b5c09)" d="M 612.882878 191.205898 
L 635.999387 196.476429 
L 636.000944 196.209388 
L 612.88199 190.939796 
z
" style="fill:#0cba97;fill-opacity:0.8;"/>
   </g>
   <g id="Poly3DCollection_30">
    <path clip-path="url(#pbec79b5c09)" d="M 553.617092 189.803676 
L 553.84737 198.395852 
L 576.51925 203.680734 
L 576.365496 195.058381 
z
" style="fill:#0cba97;fill-opacity:0.8;"/>
    <path clip-path="url(#pbec79b5c09)" d="M 539.546216 198.942714 
L 539.827068 207.587244 
L 553.84737 198.395852 
L 553.617092 189.803676 
z
" style="fill:#065d4c;fill-opacity:0.8;"/>
    <path clip-path="url(#pbec79b5c09)" d="M 539.827068 207.587244 
L 562.641831 212.975942 
L 576.51925 203.680734 
L 553.84737 198.395852 
z
" style="fill:#0aa384;fill-opacity:0.8;"/>
    <path clip-path="url(#pbec79b5c09)" d="M 539.546216 198.942714 
L 553.617092 189.803676 
L 576.365496 195.058381 
L 562.438463 204.301001 
z
" style="fill:#08745e;fill-opacity:0.8;"/>
    <path clip-path="url(#pbec79b5c09)" d="M 562.438463 204.301001 
L 576.365496 195.058381 
L 576.51925 203.680734 
L 562.641831 212.975942 
z
" style="fill:#0cba97;fill-opacity:0.8;"/>
    <path clip-path="url(#pbec79b5c09)" d="M 539.546216 198.942714 
L 562.438463 204.301001 
L 562.641831 212.975942 
L 539.827068 207.587244 
z
" style="fill:#065d4c;fill-opacity:0.8;"/>
   </g>
   <g id="Poly3DCollection_31">
    <path clip-path="url(#pbec79b5c09)" d="M 672.3268 192.612334 
L 672.359299 191.004961 
L 695.861261 196.285706 
L 695.813533 197.898764 
z
" style="fill:#065d4c;fill-opacity:0.8;"/>
    <path clip-path="url(#pbec79b5c09)" d="M 659.37775 201.806663 
L 659.402236 200.189427 
L 672.359299 191.004961 
L 672.3268 192.612334 
z
" style="fill:#0cba97;fill-opacity:0.8;"/>
    <path clip-path="url(#pbec79b5c09)" d="M 659.37775 201.806663 
L 672.3268 192.612334 
L 695.813533 197.898764 
L 683.022439 207.197619 
z
" style="fill:#08745e;fill-opacity:0.8;"/>
    <path clip-path="url(#pbec79b5c09)" d="M 659.402236 200.189427 
L 683.062363 205.574653 
L 695.861261 196.285706 
L 672.359299 191.004961 
z
" style="fill:#0aa384;fill-opacity:0.8;"/>
    <path clip-path="url(#pbec79b5c09)" d="M 683.022439 207.197619 
L 695.813533 197.898764 
L 695.861261 196.285706 
L 683.062363 205.574653 
z
" style="fill:#065d4c;fill-opacity:0.8;"/>
    <path clip-path="url(#pbec79b5c09)" d="M 659.37775 201.806663 
L 683.022439 207.197619 
L 683.062363 205.574653 
L 659.402236 200.189427 
z
" style="fill:#0cba97;fill-opacity:0.8;"/>
   </g>
   <g id="Poly3DCollection_32">
    <path clip-path="url(#pbec79b5c09)" d="M 599.371192 200.372519 
L 599.428542 206.946609 
L 622.63509 212.344358 
L 622.638571 205.747103 
z
" style="fill:#0cba97;fill-opacity:0.8;"/>
    <path clip-path="url(#pbec79b5c09)" d="M 585.592192 209.720491 
L 585.686475 216.334768 
L 599.428542 206.946609 
L 599.371192 200.372519 
z
" style="fill:#065d4c;fill-opacity:0.8;"/>
    <path clip-path="url(#pbec79b5c09)" d="M 585.686475 216.334768 
L 609.044563 221.839857 
L 622.63509 212.344358 
L 599.428542 206.946609 
z
" style="fill:#0aa384;fill-opacity:0.8;"/>
    <path clip-path="url(#pbec79b5c09)" d="M 585.592192 209.720491 
L 599.371192 200.372519 
L 622.638571 205.747103 
L 609.011907 215.20224 
z
" style="fill:#08745e;fill-opacity:0.8;"/>
    <path clip-path="url(#pbec79b5c09)" d="M 609.011907 215.20224 
L 622.638571 205.747103 
L 622.63509 212.344358 
L 609.044563 221.839857 
z
" style="fill:#0cba97;fill-opacity:0.8;"/>
    <path clip-path="url(#pbec79b5c09)" d="M 585.592192 209.720491 
L 609.011907 215.20224 
L 609.044563 221.839857 
L 585.686475 216.334768 
z
" style="fill:#065d4c;fill-opacity:0.8;"/>
   </g>
   <g id="Poly3DCollection_33">
    <path clip-path="url(#pbec79b5c09)" d="M 646.172123 211.183171 
L 646.152687 213.141444 
L 669.938174 218.64699 
L 669.976442 216.681784 
z
" style="fill:#0cba97;fill-opacity:0.8;"/>
    <path clip-path="url(#pbec79b5c09)" d="M 632.702219 220.747326 
L 632.693226 222.717626 
L 646.152687 213.141444 
L 646.172123 211.183171 
z
" style="fill:#065d4c;fill-opacity:0.8;"/>
    <path clip-path="url(#pbec79b5c09)" d="M 632.693226 222.717626 
L 656.639763 228.334137 
L 669.938174 218.64699 
L 646.152687 213.141444 
z
" style="fill:#0aa384;fill-opacity:0.8;"/>
    <path clip-path="url(#pbec79b5c09)" d="M 632.702219 220.747326 
L 646.172123 211.183171 
L 669.976442 216.681784 
L 656.667844 226.356854 
z
" style="fill:#08745e;fill-opacity:0.8;"/>
    <path clip-path="url(#pbec79b5c09)" d="M 656.667844 226.356854 
L 669.976442 216.681784 
L 669.938174 218.64699 
L 656.639763 228.334137 
z
" style="fill:#0cba97;fill-opacity:0.8;"/>
    <path clip-path="url(#pbec79b5c09)" d="M 632.702219 220.747326 
L 656.667844 226.356854 
L 656.639763 228.334137 
L 632.693226 222.717626 
z
" style="fill:#065d4c;fill-opacity:0.8;"/>
   </g>
   <g id="Poly3DCollection_34">
    <path clip-path="url(#pbec79b5c09)" d="M 481.650302 189.74238 
L 660.420515 231.782096 
L 756.710221 161.192063 
L 586.488306 124.898171 
z
" style="fill-opacity:0.2;"/>
   </g>
  </g>
 </g>
 <defs>
  <clipPath id="pba6a9fa9ea">
   <rect height="277.2" width="380.454545" x="-30.6" y="-14.4"/>
  </clipPath>
  <clipPath id="pbec79b5c09">
   <rect height="277.2" width="380.454545" x="425.945455" y="-14.4"/>
  </clipPath>
 </defs>
</svg>
