<?xml version="1.0" encoding="utf-8" standalone="no"?>
<!DOCTYPE svg PUBLIC "-//W3C//DTD SVG 1.1//EN"
  "http://www.w3.org/Graphics/SVG/1.1/DTD/svg11.dtd">
<!-- Created with matplotlib (https://matplotlib.org/) -->
<svg height="302.4pt" version="1.1" viewBox="0 0 820.8 302.4" width="820.8pt" xmlns="http://www.w3.org/2000/svg" xmlns:xlink="http://www.w3.org/1999/xlink">
 <defs>
  <style type="text/css">
*{stroke-linecap:butt;stroke-linejoin:round;}
  </style>
 </defs>
 <g id="figure_1">
  <g id="patch_1">
   <path d="M 0 302.4 
L 820.8 302.4 
L 820.8 0 
L 0 0 
z
" style="fill:#ffffff;"/>
  </g>
  <g id="patch_2">
   <path d="M -30.6 262.8 
L 349.854545 262.8 
L 349.854545 -14.4 
L -30.6 -14.4 
z
" style="fill:#ffffff;"/>
  </g>
  <g id="pane3d_1">
   <g id="patch_3">
    <path d="M 19.835129 201.548569 
L 128.723211 133.58541 
L 126.910339 3.718968 
L 11.951034 64.782468 
" style="fill:#f2f2f2;opacity:0.5;stroke:#f2f2f2;stroke-linejoin:miter;"/>
   </g>
  </g>
  <g id="pane3d_2">
   <g id="patch_4">
    <path d="M 128.723211 133.58541 
L 305.111665 171.581202 
L 312.491547 37.79869 
L 126.910339 3.718968 
" style="fill:#e6e6e6;opacity:0.5;stroke:#e6e6e6;stroke-linejoin:miter;"/>
   </g>
  </g>
  <g id="pane3d_3">
   <g id="patch_5">
    <path d="M 19.835129 201.548569 
L 205.419617 245.80086 
L 305.111665 171.581202 
L 128.723211 133.58541 
" style="fill:#ececec;opacity:0.5;stroke:#ececec;stroke-linejoin:miter;"/>
   </g>
  </g>
  <g id="axis3d_1">
   <g id="line2d_1">
    <path d="M 19.835129 201.548569 
L 205.419617 245.80086 
" style="fill:none;stroke:#000000;stroke-linecap:square;stroke-width:0.8;"/>
   </g>
   <g id="Line3DCollection_1">
    <path d="M 57.25499 210.471268 
L 164.384175 141.267129 
L 164.364666 10.596997 
" style="fill:none;stroke:#b0b0b0;stroke-width:0.8;"/>
    <path d="M 165.194119 236.209161 
L 266.979744 163.367214 
L 272.30378 30.418697 
" style="fill:none;stroke:#b0b0b0;stroke-width:0.8;"/>
   </g>
   <g id="xtick_1">
    <g id="line2d_2">
     <path d="M 58.178395 209.87476 
L 55.404712 211.666525 
" style="fill:none;stroke:#000000;stroke-linecap:square;stroke-width:0.8;"/>
    </g>
    <g id="text_1">
     <!-- 0 -->
     <defs>
      <path d="M 42 31.84375 
C 42 37.96875 41.90625 48.421875 37.703125 56.453125 
C 34 63.484375 28.09375 66 22.90625 66 
C 18.09375 66 12 63.78125 8.203125 56.5625 
C 4.203125 49.015625 3.796875 39.671875 3.796875 31.84375 
C 3.796875 26.109375 3.90625 17.375 7 9.734375 
C 11.296875 -0.609375 19 -2 22.90625 -2 
C 27.5 -2 34.5 -0.109375 38.59375 9.4375 
C 41.59375 16.375 42 24.5 42 31.84375 
z
M 22.90625 -0.40625 
C 16.5 -0.40625 12.703125 5.125 11.296875 12.75 
C 10.203125 18.6875 10.203125 27.328125 10.203125 32.953125 
C 10.203125 40.6875 10.203125 47.109375 11.5 53.234375 
C 13.40625 61.78125 19 64.390625 22.90625 64.390625 
C 27 64.390625 32.296875 61.671875 34.203125 53.4375 
C 35.5 47.71875 35.59375 40.984375 35.59375 32.953125 
C 35.59375 26.421875 35.59375 18.375 34.40625 12.453125 
C 32.296875 1.5 26.40625 -0.40625 22.90625 -0.40625 
z
" id="CMR17-48"/>
     </defs>
     <g transform="translate(43.116453 235.94338)rotate(-45)scale(0.14 -0.14)">
      <use transform="scale(0.996264)" xlink:href="#CMR17-48"/>
     </g>
    </g>
   </g>
   <g id="xtick_2">
    <g id="line2d_3">
     <path d="M 166.073164 235.580081 
L 163.432641 237.469747 
" style="fill:none;stroke:#000000;stroke-linecap:square;stroke-width:0.8;"/>
    </g>
    <g id="text_2">
     <!-- 1 -->
     <defs>
      <path d="M 26.59375 63.796875 
C 26.59375 65.890625 26.5 66 25.09375 66 
C 21.203125 61.359375 15.296875 59.890625 9.703125 59.6875 
C 9.40625 59.6875 8.90625 59.6875 8.796875 59.5 
C 8.703125 59.296875 8.703125 59.09375 8.703125 57 
C 11.796875 57 17 57.59375 21 59.984375 
L 21 7.296875 
C 21 3.796875 20.796875 2.59375 12.203125 2.59375 
L 9.203125 2.59375 
L 9.203125 0 
C 14 0.09375 19 0.1875 23.796875 0.1875 
C 28.59375 0.1875 33.59375 0.09375 38.40625 0 
L 38.40625 2.59375 
L 35.40625 2.59375 
C 26.796875 2.59375 26.59375 3.6875 26.59375 7.296875 
z
" id="CMR17-49"/>
     </defs>
     <g transform="translate(151.050179 262.099975)rotate(-45)scale(0.14 -0.14)">
      <use transform="scale(0.996264)" xlink:href="#CMR17-49"/>
     </g>
    </g>
   </g>
  </g>
  <g id="axis3d_2">
   <g id="line2d_4">
    <path d="M 305.111665 171.581202 
L 205.419617 245.80086 
" style="fill:none;stroke:#000000;stroke-linecap:square;stroke-width:0.8;"/>
   </g>
   <g id="Line3DCollection_2">
    <path d="M 37.513203 51.204485 
L 43.973964 186.482168 
L 227.577572 229.3045 
" style="fill:none;stroke:#b0b0b0;stroke-width:0.8;"/>
    <path d="M 104.330597 15.712761 
L 107.268846 146.976282 
L 285.52205 186.16546 
" style="fill:none;stroke:#b0b0b0;stroke-width:0.8;"/>
   </g>
   <g id="xtick_3">
    <g id="line2d_5">
     <path d="M 226.041757 228.946298 
L 230.652597 230.021696 
" style="fill:none;stroke:#000000;stroke-linecap:square;stroke-width:0.8;"/>
    </g>
    <g id="text_3">
     <!-- 0 -->
     <g transform="translate(241.280957 243.087677)rotate(-337.5)scale(0.14 -0.14)">
      <use transform="scale(0.996264)" xlink:href="#CMR17-48"/>
     </g>
    </g>
   </g>
   <g id="xtick_4">
    <g id="line2d_6">
     <path d="M 284.033869 185.838281 
L 288.501553 186.820507 
" style="fill:none;stroke:#000000;stroke-linecap:square;stroke-width:0.8;"/>
    </g>
    <g id="text_4">
     <!-- 1 -->
     <g transform="translate(298.638248 199.442879)rotate(-337.5)scale(0.14 -0.14)">
      <use transform="scale(0.996264)" xlink:href="#CMR17-49"/>
     </g>
    </g>
   </g>
  </g>
  <g id="axis3d_3">
   <g id="line2d_7">
    <path d="M 305.111665 171.581202 
L 312.491547 37.79869 
" style="fill:none;stroke:#000000;stroke-linecap:square;stroke-width:0.8;"/>
   </g>
   <g id="text_5">
    <!-- Re[$\rho$] -->
    <defs>
     <path d="M 39.203125 33.6875 
C 48.703125 35.59375 56.703125 42.015625 56.703125 50.046875 
C 56.703125 59.46875 46.09375 68 32.09375 68 
L 5.203125 68 
L 5.203125 65.390625 
C 12.09375 65.390625 13.203125 65.390625 13.203125 60.875 
L 13.203125 6.6875 
C 13.203125 2.1875 12.09375 2.1875 5.203125 2.1875 
L 5.203125 -0.40625 
C 8.09375 -0.203125 13.296875 -0.203125 16.40625 -0.203125 
C 19.5 -0.203125 24.703125 -0.203125 27.59375 -0.40625 
L 27.59375 2.1875 
C 20.703125 2.1875 19.59375 2.1875 19.59375 6.6875 
L 19.59375 33 
L 31.296875 33 
C 37 33 40.203125 30.6875 41.59375 29.390625 
C 45.59375 25.5 45.59375 22.796875 45.59375 16 
C 45.59375 9.296875 45.59375 5.890625 48.59375 2.5 
C 52.40625 -1.609375 57.5 -2 59.703125 -2 
C 67.09375 -2 68.203125 6.296875 68.203125 8 
C 68.203125 8.59375 68.203125 9.296875 67.296875 9.296875 
C 66.5 9.296875 66.40625 8.6875 66.40625 8.296875 
C 65.90625 1.796875 63 -0.40625 59.90625 -0.40625 
C 54.40625 -0.40625 53.796875 5.890625 53.203125 12 
C 52.90625 14.09375 52.703125 15.59375 52.5 17.796875 
C 51.90625 22.796875 51.09375 30.09375 39.203125 33.6875 
z
M 31 34.59375 
L 19.59375 34.59375 
L 19.59375 61.484375 
C 19.59375 64.890625 19.796875 65.390625 23.796875 65.390625 
L 31.09375 65.390625 
C 39.40625 65.390625 49.09375 62.484375 49.09375 50.046875 
C 49.09375 37.09375 38.5 34.59375 31 34.59375 
z
" id="CMR17-82"/>
     <path d="M 38.09375 23.484375 
C 38.5 23.890625 38.5 24.09375 38.5 25.09375 
C 38.5 35.171875 33.09375 44 21.703125 44 
C 11.09375 44 2.703125 33.984375 2.703125 21.78125 
C 2.703125 8.65625 12.203125 -1 22.796875 -1 
C 34 -1 38.40625 9.671875 38.40625 11.796875 
C 38.40625 12.5 37.796875 12.5 37.59375 12.5 
C 36.90625 12.5 36.796875 12.296875 36.40625 11.078125 
C 34.203125 4.21875 28.703125 0.796875 23.5 0.796875 
C 19.203125 0.796875 14.90625 3.21875 12.203125 7.65625 
C 9.09375 12.796875 9.09375 18.75 9.09375 23.484375 
z
M 9.203125 25 
C 9.90625 39.234375 17.59375 42.390625 21.59375 42.390625 
C 28.40625 42.390625 33 36.0625 33.09375 25 
z
" id="CMR17-101"/>
     <path d="M 23.5 -25 
L 23.5 -21.5 
L 14.09375 -21.5 
L 14.09375 71.484375 
L 23.5 71.484375 
L 23.5 75 
L 10.59375 75 
L 10.59375 -25 
z
" id="CMR17-91"/>
     <path d="M 3.09375 -16.953125 
C 3 -17.4375 2.796875 -18.03125 2.796875 -18.609375 
C 2.796875 -20.109375 4 -21.109375 5.5 -21.109375 
C 7 -21.109375 8.40625 -20.109375 9 -18.71875 
C 9.40625 -17.828125 12.203125 -6.09375 15.40625 6.078125 
C 17.40625 1.09375 21.09375 -1 25 -1 
C 36.296875 -1 49.09375 12.96875 49.09375 28.03125 
C 49.09375 38.703125 42.59375 44 35.703125 44 
C 26.90625 44 16.203125 34.90625 12.90625 21.640625 
z
M 24.90625 1 
C 18.09375 1 16.40625 8.875 16.40625 10.078125 
C 16.40625 10.671875 18.90625 20.140625 19.203125 21.640625 
C 24.296875 41.5 34.09375 41.984375 35.59375 41.984375 
C 40.09375 41.984375 42.59375 37.90625 42.59375 32.015625 
C 42.59375 26.9375 39.90625 17.046875 38.203125 12.859375 
C 35.203125 5.984375 30 1 24.90625 1 
z
" id="CMMI12-26"/>
     <path d="M 14.296875 75 
L 1.40625 75 
L 1.40625 71.484375 
L 10.796875 71.484375 
L 10.796875 -21.5 
L 1.40625 -21.5 
L 1.40625 -25 
L 14.296875 -25 
z
" id="CMR17-93"/>
    </defs>
    <g transform="translate(352.486567 117.931831)rotate(-86.842577)scale(0.14 -0.14)">
     <use transform="scale(0.996264)" xlink:href="#CMR17-82"/>
     <use transform="translate(67.791102 0)scale(0.996264)" xlink:href="#CMR17-101"/>
     <use transform="translate(108.276762 0)scale(0.996264)" xlink:href="#CMR17-91"/>
     <use transform="translate(133.147821 0)scale(0.996264)" xlink:href="#CMMI12-26"/>
     <use transform="translate(183.462194 0)scale(0.996264)" xlink:href="#CMR17-93"/>
    </g>
   </g>
   <g id="Line3DCollection_3">
    <path d="M 305.996926 155.533199 
L 128.505329 117.977274 
L 18.890817 185.167504 
" style="fill:none;stroke:#b0b0b0;stroke-width:0.8;"/>
    <path d="M 308.707074 106.403626 
L 127.83901 70.245028 
L 15.997463 134.976234 
" style="fill:none;stroke:#b0b0b0;stroke-width:0.8;"/>
    <path d="M 311.523272 55.351585 
L 127.147747 20.725835 
L 12.987012 82.753678 
" style="fill:none;stroke:#b0b0b0;stroke-width:0.8;"/>
   </g>
   <g id="xtick_5">
    <g id="line2d_8">
     <path d="M 304.515688 155.21978 
L 308.962497 156.160692 
" style="fill:none;stroke:#000000;stroke-linecap:square;stroke-width:0.8;"/>
    </g>
    <g id="text_6">
     <!-- $0.498$ -->
     <defs>
      <path d="M 18.40625 4.796875 
C 18.40625 7.6875 16 9.6875 13.59375 9.6875 
C 10.703125 9.6875 8.703125 7.296875 8.703125 4.890625 
C 8.703125 2 11.09375 0 13.5 0 
C 16.40625 0 18.40625 2.390625 18.40625 4.796875 
z
" id="CMMI12-58"/>
      <path d="M 33.59375 64.796875 
C 33.59375 66.890625 33.5 67 31.703125 67 
L 2 19.59375 
L 2 17 
L 27.796875 17 
L 27.796875 7.1875 
C 27.796875 3.59375 27.59375 2.59375 20.59375 2.59375 
L 18.703125 2.59375 
L 18.703125 0 
C 21.90625 0.1875 27.296875 0.1875 30.703125 0.1875 
C 34.09375 0.1875 39.5 0.1875 42.703125 0 
L 42.703125 2.59375 
L 40.796875 2.59375 
C 33.796875 2.59375 33.59375 3.59375 33.59375 7.1875 
L 33.59375 17 
L 43.796875 17 
L 43.796875 19.59375 
L 33.59375 19.59375 
z
M 28.09375 58.171875 
L 28.09375 19.59375 
L 4 19.59375 
z
" id="CMR17-52"/>
      <path d="M 35.203125 29.234375 
C 35.203125 7 26.09375 0.390625 18.59375 0.390625 
C 16.296875 0.390625 10.703125 0.671875 8.40625 4.390625 
C 11 4 12.90625 5.390625 12.90625 7.890625 
C 12.90625 10.59375 10.703125 11.5 9.296875 11.5 
C 8.40625 11.5 5.703125 11.09375 5.703125 7.6875 
C 5.703125 1.0625 11.59375 -2 18.796875 -2 
C 30.296875 -2 42 10.390625 42 32.65625 
C 42 60.265625 30.796875 66 23.203125 66 
C 13.296875 66 3.796875 57.25 3.796875 43.75 
C 3.796875 31.25 11.90625 22 22.09375 22 
C 30.5 22 34.203125 29.84375 35.203125 33.15625 
z
M 22.296875 23.59375 
C 19.59375 23.59375 15.796875 24.09375 12.703125 30.140625 
C 10.59375 34.078125 10.59375 38.703125 10.59375 43.640625 
C 10.59375 49.59375 10.59375 53.71875 13.40625 58.15625 
C 14.796875 60.265625 17.40625 63.6875 23.203125 63.6875 
C 35 63.6875 35 45.453125 35 41.421875 
C 35 34.265625 31.796875 23.59375 22.296875 23.59375 
z
" id="CMR17-57"/>
      <path d="M 27.203125 35.765625 
C 33.5 38.96875 39.90625 43.796875 39.90625 51.53125 
C 39.90625 60.6875 31.09375 66 23 66 
C 13.90625 66 5.90625 59.375 5.90625 50.234375 
C 5.90625 47.71875 6.5 43.390625 10.40625 39.578125 
C 11.40625 38.578125 15.59375 35.5625 18.296875 33.65625 
C 13.796875 31.34375 3.296875 25.8125 3.296875 14.765625 
C 3.296875 4.40625 13.09375 -2 22.796875 -2 
C 33.5 -2 42.5 5.71875 42.5 15.96875 
C 42.5 25.109375 36.40625 29.328125 32.40625 32.046875 
z
M 14.09375 44.609375 
C 13.296875 45.109375 9.296875 48.21875 9.296875 52.9375 
C 9.296875 59.078125 15.59375 63.6875 22.796875 63.6875 
C 30.703125 63.6875 36.5 58.0625 36.5 51.53125 
C 36.5 42.1875 26.09375 36.859375 25.59375 36.859375 
C 25.5 36.859375 25.40625 36.859375 24.59375 37.46875 
z
M 32.5 24 
C 34 22.90625 38.796875 19.578125 38.796875 13.453125 
C 38.796875 6.015625 31.40625 0.390625 23 0.390625 
C 13.90625 0.390625 7 6.921875 7 14.859375 
C 7 22.796875 13.09375 29.4375 20 32.546875 
z
" id="CMR17-56"/>
     </defs>
     <g transform="translate(309.06737 163.296734)scale(0.14 -0.14)">
      <use transform="scale(0.996264)" xlink:href="#CMR17-48"/>
      <use transform="translate(45.690477 0)scale(0.996264)" xlink:href="#CMMI12-58"/>
      <use transform="translate(72.787654 0)scale(0.996264)" xlink:href="#CMR17-52"/>
      <use transform="translate(118.478131 0)scale(0.996264)" xlink:href="#CMR17-57"/>
      <use transform="translate(164.168608 0)scale(0.996264)" xlink:href="#CMR17-56"/>
     </g>
    </g>
   </g>
   <g id="xtick_6">
    <g id="line2d_9">
     <path d="M 307.19646 106.101628 
L 311.73152 107.008264 
" style="fill:none;stroke:#000000;stroke-linecap:square;stroke-width:0.8;"/>
    </g>
    <g id="text_7">
     <!-- $0.500$ -->
     <defs>
      <path d="M 11.40625 58.59375 
C 12.40625 58.1875 16.5 56.890625 20.703125 56.890625 
C 30 56.890625 35.09375 61.890625 38 64.6875 
C 38 65.484375 38 66 37.40625 66 
C 37.296875 66 37.09375 66 36.296875 65.59375 
C 32.796875 64.09375 28.703125 63 23.703125 63 
C 20.703125 63 16.203125 63.359375 11.296875 65.484375 
C 10.203125 66 10 66 9.90625 66 
C 9.40625 66 9.296875 65.890625 9.296875 63.90625 
L 9.296875 34.859375 
C 9.296875 33.015625 9.296875 32.5 10.296875 32.5 
C 10.796875 32.5 11 32.703125 11.5 33.421875 
C 14.703125 38.046875 19.09375 40 24.09375 40 
C 27.59375 40 35.09375 37.734375 35.09375 20.203125 
C 35.09375 16.984375 35.09375 11.1875 32.09375 6.59375 
C 29.59375 2.484375 25.703125 0.390625 21.40625 0.390625 
C 14.796875 0.390625 8.09375 4.984375 6.296875 12.6875 
C 6.703125 12.59375 7.5 12.390625 7.90625 12.390625 
C 9.203125 12.390625 11.703125 13.09375 11.703125 16.1875 
C 11.703125 18.890625 9.796875 20 7.90625 20 
C 5.59375 20 4.09375 18.59375 4.09375 15.796875 
C 4.09375 7.09375 11 -2 21.59375 -2 
C 31.90625 -2 41.703125 6.890625 41.703125 19.796875 
C 41.703125 32.09375 33.90625 41.59375 24.203125 41.59375 
C 19.09375 41.59375 14.796875 39.6875 11.40625 36 
z
" id="CMR17-53"/>
     </defs>
     <g transform="translate(312.128237 114.237279)scale(0.14 -0.14)">
      <use transform="scale(0.996264)" xlink:href="#CMR17-48"/>
      <use transform="translate(45.690477 0)scale(0.996264)" xlink:href="#CMMI12-58"/>
      <use transform="translate(72.787654 0)scale(0.996264)" xlink:href="#CMR17-53"/>
      <use transform="translate(118.478131 0)scale(0.996264)" xlink:href="#CMR17-48"/>
      <use transform="translate(164.168608 0)scale(0.996264)" xlink:href="#CMR17-48"/>
     </g>
    </g>
   </g>
   <g id="xtick_7">
    <g id="line2d_10">
     <path d="M 309.982094 55.062151 
L 314.608975 55.93108 
" style="fill:none;stroke:#000000;stroke-linecap:square;stroke-width:0.8;"/>
    </g>
    <g id="text_8">
     <!-- $0.502$ -->
     <defs>
      <path d="M 41.703125 15.46875 
L 39.90625 15.46875 
C 38.90625 8.390625 38.09375 7.1875 37.703125 6.59375 
C 37.203125 5.796875 30 5.796875 28.59375 5.796875 
L 9.40625 5.796875 
C 13 9.6875 20 16.765625 28.5 24.9375 
C 34.59375 30.71875 41.703125 37.5 41.703125 47.390625 
C 41.703125 59.1875 32.296875 66 21.796875 66 
C 10.796875 66 4.09375 56.296875 4.09375 47.296875 
C 4.09375 43.390625 7 42.890625 8.203125 42.890625 
C 9.203125 42.890625 12.203125 43.484375 12.203125 46.984375 
C 12.203125 50.09375 9.59375 51 8.203125 51 
C 7.59375 51 7 50.890625 6.59375 50.6875 
C 8.5 59.1875 14.296875 63.390625 20.40625 63.390625 
C 29.09375 63.390625 34.796875 56.5 34.796875 47.390625 
C 34.796875 38.703125 29.703125 31.21875 24 24.734375 
L 4.09375 2.296875 
L 4.09375 0 
L 39.296875 0 
z
" id="CMR17-50"/>
     </defs>
     <g transform="translate(315.308613 63.262359)scale(0.14 -0.14)">
      <use transform="scale(0.996264)" xlink:href="#CMR17-48"/>
      <use transform="translate(45.690477 0)scale(0.996264)" xlink:href="#CMMI12-58"/>
      <use transform="translate(72.787654 0)scale(0.996264)" xlink:href="#CMR17-53"/>
      <use transform="translate(118.478131 0)scale(0.996264)" xlink:href="#CMR17-48"/>
      <use transform="translate(164.168608 0)scale(0.996264)" xlink:href="#CMR17-50"/>
     </g>
    </g>
   </g>
  </g>
  <g id="axes_1">
   <g id="Poly3DCollection_1">
    <path clip-path="url(#p9fd0bfee85)" d="M 153.702584 2258.234824 
L 158.999119 2246.726892 
L 168.10692 2253.360214 
L 162.833711 2264.919339 
z
" style="fill:#74081d;fill-opacity:0.8;"/>
    <path clip-path="url(#p9fd0bfee85)" d="M 158.999119 2246.726892 
L 132.313835 77.491564 
L 183.742446 87.853072 
L 168.10692 2253.360214 
z
" style="fill:#5d0618;fill-opacity:0.8;"/>
    <path clip-path="url(#p9fd0bfee85)" d="M 153.702584 2258.234824 
L 101.391586 95.605345 
L 132.313835 77.491564 
L 158.999119 2246.726892 
z
" style="fill:#ba0c2f;fill-opacity:0.8;"/>
    <path clip-path="url(#p9fd0bfee85)" d="M 162.833711 2264.919339 
L 168.10692 2253.360214 
L 183.742446 87.853072 
L 153.569496 106.431476 
z
" style="fill:#5d0618;fill-opacity:0.8;"/>
    <path clip-path="url(#p9fd0bfee85)" d="M 153.702584 2258.234824 
L 162.833711 2264.919339 
L 153.569496 106.431476 
L 101.391586 95.605345 
z
" style="fill:#ba0c2f;fill-opacity:0.8;"/>
    <path clip-path="url(#p9fd0bfee85)" d="M 101.391586 95.605345 
L 153.569496 106.431476 
L 183.742446 87.853072 
L 132.313835 77.491564 
z
" style="fill:#a30a29;fill-opacity:0.8;"/>
   </g>
   <g id="Poly3DCollection_2">
    <path clip-path="url(#p9fd0bfee85)" d="M 172.005581 2271.63368 
L 177.255204 2260.02302 
L 186.444241 2266.715508 
L 181.218468 2278.378048 
z
" style="fill:#74081d;fill-opacity:0.8;"/>
    <path clip-path="url(#p9fd0bfee85)" d="M 177.255204 2260.02302 
L 234.812719 159.470217 
L 287.620167 170.883733 
L 186.444241 2266.715508 
z
" style="fill:#5d0618;fill-opacity:0.8;"/>
    <path clip-path="url(#p9fd0bfee85)" d="M 172.005581 2271.63368 
L 206.101063 179.423404 
L 234.812719 159.470217 
L 177.255204 2260.02302 
z
" style="fill:#ba0c2f;fill-opacity:0.8;"/>
    <path clip-path="url(#p9fd0bfee85)" d="M 181.218468 2278.378048 
L 186.444241 2266.715508 
L 287.620167 170.883733 
L 259.718426 191.349584 
z
" style="fill:#5d0618;fill-opacity:0.8;"/>
    <path clip-path="url(#p9fd0bfee85)" d="M 172.005581 2271.63368 
L 181.218468 2278.378048 
L 259.718426 191.349584 
L 206.101063 179.423404 
z
" style="fill:#ba0c2f;fill-opacity:0.8;"/>
    <path clip-path="url(#p9fd0bfee85)" d="M 206.101063 179.423404 
L 259.718426 191.349584 
L 287.620167 170.883733 
L 234.812719 159.470217 
z
" style="fill:#a30a29;fill-opacity:0.8;"/>
   </g>
   <g id="Poly3DCollection_3">
    <path clip-path="url(#p9fd0bfee85)" d="M 142.986309 2281.518377 
L 148.365139 2269.831641 
L 157.519681 2276.567944 
L 152.164355 2288.307072 
z
" style="fill:#74081d;fill-opacity:0.8;"/>
    <path clip-path="url(#p9fd0bfee85)" d="M 148.365139 2269.831641 
L 66.597174 47.153175 
L 120.896707 57.861851 
L 157.519681 2276.567944 
z
" style="fill:#5d0618;fill-opacity:0.8;"/>
    <path clip-path="url(#p9fd0bfee85)" d="M 142.986309 2281.518377 
L 31.836897 65.88662 
L 66.597174 47.153175 
L 148.365139 2269.831641 
z
" style="fill:#ba0c2f;fill-opacity:0.8;"/>
    <path clip-path="url(#p9fd0bfee85)" d="M 152.164355 2288.307072 
L 157.519681 2276.567944 
L 120.896707 57.861851 
L 86.957533 77.11161 
z
" style="fill:#5d0618;fill-opacity:0.8;"/>
    <path clip-path="url(#p9fd0bfee85)" d="M 142.986309 2281.518377 
L 152.164355 2288.307072 
L 86.957533 77.11161 
L 31.836897 65.88662 
z
" style="fill:#ba0c2f;fill-opacity:0.8;"/>
    <path clip-path="url(#p9fd0bfee85)" d="M 31.836897 65.88662 
L 86.957533 77.11161 
L 120.896707 57.861851 
L 66.597174 47.153175 
z
" style="fill:#a30a29;fill-opacity:0.8;"/>
   </g>
   <g id="Poly3DCollection_4">
    <path clip-path="url(#p9fd0bfee85)" d="M 161.383673 2295.126293 
L 166.715229 2283.33442 
L 175.95206 2290.131274 
L 170.644541 2301.976248 
z
" style="fill:#74081d;fill-opacity:0.8;"/>
    <path clip-path="url(#p9fd0bfee85)" d="M 166.715229 2283.33442 
L 176.376209 137.48317 
L 232.204829 149.423017 
L 175.95206 2290.131274 
z
" style="fill:#5d0618;fill-opacity:0.8;"/>
    <path clip-path="url(#p9fd0bfee85)" d="M 161.383673 2295.126293 
L 144.187435 158.370556 
L 176.376209 137.48317 
L 166.715229 2283.33442 
z
" style="fill:#ba0c2f;fill-opacity:0.8;"/>
    <path clip-path="url(#p9fd0bfee85)" d="M 170.644541 2301.976248 
L 175.95206 2290.131274 
L 232.204829 149.423017 
L 200.910177 170.886548 
z
" style="fill:#5d0618;fill-opacity:0.8;"/>
    <path clip-path="url(#p9fd0bfee85)" d="M 161.383673 2295.126293 
L 170.644541 2301.976248 
L 200.910177 170.886548 
L 144.187435 158.370556 
z
" style="fill:#ba0c2f;fill-opacity:0.8;"/>
    <path clip-path="url(#p9fd0bfee85)" d="M 144.187435 158.370556 
L 200.910177 170.886548 
L 232.204829 149.423017 
L 176.376209 137.48317 
z
" style="fill:#a30a29;fill-opacity:0.8;"/>
   </g>
  </g>
  <g id="patch_6">
   <path d="M 425.945455 262.8 
L 806.4 262.8 
L 806.4 -14.4 
L 425.945455 -14.4 
z
" style="fill:#ffffff;"/>
  </g>
  <g id="pane3d_4">
   <g id="patch_7">
    <path d="M 476.380584 201.548569 
L 585.268665 133.58541 
L 583.455794 3.718968 
L 468.496488 64.782468 
" style="fill:#f2f2f2;opacity:0.5;stroke:#f2f2f2;stroke-linejoin:miter;"/>
   </g>
  </g>
  <g id="pane3d_5">
   <g id="patch_8">
    <path d="M 585.268665 133.58541 
L 761.65712 171.581202 
L 769.037001 37.79869 
L 583.455794 3.718968 
" style="fill:#e6e6e6;opacity:0.5;stroke:#e6e6e6;stroke-linejoin:miter;"/>
   </g>
  </g>
  <g id="pane3d_6">
   <g id="patch_9">
    <path d="M 476.380584 201.548569 
L 661.965072 245.80086 
L 761.65712 171.581202 
L 585.268665 133.58541 
" style="fill:#ececec;opacity:0.5;stroke:#ececec;stroke-linejoin:miter;"/>
   </g>
  </g>
  <g id="axis3d_4">
   <g id="line2d_11">
    <path d="M 476.380584 201.548569 
L 661.965072 245.80086 
" style="fill:none;stroke:#000000;stroke-linecap:square;stroke-width:0.8;"/>
   </g>
   <g id="Line3DCollection_4">
    <path d="M 513.800444 210.471268 
L 620.92963 141.267129 
L 620.91012 10.596997 
" style="fill:none;stroke:#b0b0b0;stroke-width:0.8;"/>
    <path d="M 621.739574 236.209161 
L 723.525199 163.367214 
L 728.849235 30.418697 
" style="fill:none;stroke:#b0b0b0;stroke-width:0.8;"/>
   </g>
   <g id="xtick_8">
    <g id="line2d_12">
     <path d="M 514.72385 209.87476 
L 511.950167 211.666525 
" style="fill:none;stroke:#000000;stroke-linecap:square;stroke-width:0.8;"/>
    </g>
    <g id="text_9">
     <!-- 0 -->
     <g transform="translate(499.661907 235.94338)rotate(-45)scale(0.14 -0.14)">
      <use transform="scale(0.996264)" xlink:href="#CMR17-48"/>
     </g>
    </g>
   </g>
   <g id="xtick_9">
    <g id="line2d_13">
     <path d="M 622.618618 235.580081 
L 619.978095 237.469747 
" style="fill:none;stroke:#000000;stroke-linecap:square;stroke-width:0.8;"/>
    </g>
    <g id="text_10">
     <!-- 1 -->
     <g transform="translate(607.595633 262.099975)rotate(-45)scale(0.14 -0.14)">
      <use transform="scale(0.996264)" xlink:href="#CMR17-49"/>
     </g>
    </g>
   </g>
  </g>
  <g id="axis3d_5">
   <g id="line2d_14">
    <path d="M 761.65712 171.581202 
L 661.965072 245.80086 
" style="fill:none;stroke:#000000;stroke-linecap:square;stroke-width:0.8;"/>
   </g>
   <g id="Line3DCollection_5">
    <path d="M 494.058657 51.204485 
L 500.519418 186.482168 
L 684.123027 229.3045 
" style="fill:none;stroke:#b0b0b0;stroke-width:0.8;"/>
    <path d="M 560.876051 15.712761 
L 563.814301 146.976282 
L 742.067505 186.16546 
" style="fill:none;stroke:#b0b0b0;stroke-width:0.8;"/>
   </g>
   <g id="xtick_10">
    <g id="line2d_15">
     <path d="M 682.587211 228.946298 
L 687.198051 230.021696 
" style="fill:none;stroke:#000000;stroke-linecap:square;stroke-width:0.8;"/>
    </g>
    <g id="text_11">
     <!-- 0 -->
     <g transform="translate(697.826412 243.087677)rotate(-337.5)scale(0.14 -0.14)">
      <use transform="scale(0.996264)" xlink:href="#CMR17-48"/>
     </g>
    </g>
   </g>
   <g id="xtick_11">
    <g id="line2d_16">
     <path d="M 740.579324 185.838281 
L 745.047008 186.820507 
" style="fill:none;stroke:#000000;stroke-linecap:square;stroke-width:0.8;"/>
    </g>
    <g id="text_12">
     <!-- 1 -->
     <g transform="translate(755.183702 199.442879)rotate(-337.5)scale(0.14 -0.14)">
      <use transform="scale(0.996264)" xlink:href="#CMR17-49"/>
     </g>
    </g>
   </g>
  </g>
  <g id="axis3d_6">
   <g id="line2d_17">
    <path d="M 761.65712 171.581202 
L 769.037001 37.79869 
" style="fill:none;stroke:#000000;stroke-linecap:square;stroke-width:0.8;"/>
   </g>
   <g id="text_13">
    <!-- Im[$\rho$] -->
    <defs>
     <path d="M 19.703125 60.90625 
C 19.703125 65.390625 20.90625 65.390625 28.09375 65.390625 
L 28.09375 68 
C 24.90625 67.796875 19.796875 67.796875 16.40625 67.796875 
C 13 67.796875 7.90625 67.796875 4.703125 68 
L 4.703125 65.390625 
C 11.90625 65.390625 13.09375 65.390625 13.09375 60.90625 
L 13.09375 7.078125 
C 13.09375 2.59375 11.90625 2.59375 4.703125 2.59375 
L 4.703125 0 
C 7.90625 0.1875 13 0.1875 16.40625 0.1875 
C 19.796875 0.1875 24.90625 0.1875 28.09375 0 
L 28.09375 2.59375 
C 20.90625 2.59375 19.703125 2.59375 19.703125 7.078125 
z
" id="CMR17-73"/>
     <path d="M 67.59375 30.53125 
C 67.59375 35.5625 66.703125 44 54.796875 44 
C 48 44 43.296875 39.375 41.5 33.953125 
L 41.40625 33.953125 
C 40.203125 42.1875 34.296875 44 28.703125 44 
C 20.796875 44 16.703125 37.875 15.203125 33.84375 
L 15.09375 33.84375 
L 15.09375 44 
L 3.296875 42.890625 
L 3.296875 40.28125 
C 9.203125 40.28125 10.09375 39.6875 10.09375 34.859375 
L 10.09375 6.921875 
C 10.09375 3.09375 9.703125 2.59375 3.296875 2.59375 
L 3.296875 0 
C 5.703125 0.1875 10.09375 0.1875 12.703125 0.1875 
C 15.296875 0.1875 19.796875 0.1875 22.203125 0 
L 22.203125 2.59375 
C 15.796875 2.59375 15.40625 3 15.40625 6.921875 
L 15.40625 26.21875 
C 15.40625 35.453125 21 42.390625 28 42.390625 
C 35.40625 42.390625 36.203125 35.765625 36.203125 30.9375 
L 36.203125 6.921875 
C 36.203125 3.09375 35.796875 2.59375 29.40625 2.59375 
L 29.40625 0 
C 31.796875 0.1875 36.203125 0.1875 38.796875 0.1875 
C 41.40625 0.1875 45.90625 0.1875 48.296875 0 
L 48.296875 2.59375 
C 41.90625 2.59375 41.5 3 41.5 6.921875 
L 41.5 26.21875 
C 41.5 35.453125 47.09375 42.390625 54.09375 42.390625 
C 61.5 42.390625 62.296875 35.765625 62.296875 30.9375 
L 62.296875 6.921875 
C 62.296875 3.09375 61.90625 2.59375 55.5 2.59375 
L 55.5 0 
C 57.90625 0.1875 62.296875 0.1875 64.90625 0.1875 
C 67.5 0.1875 72 0.1875 74.40625 0 
L 74.40625 2.59375 
C 68 2.59375 67.59375 3 67.59375 6.921875 
z
" id="CMR17-109"/>
    </defs>
    <g transform="translate(809.026865 118.025317)rotate(-86.842577)scale(0.14 -0.14)">
     <use transform="scale(0.996264)" xlink:href="#CMR17-73"/>
     <use transform="translate(32.638409 0)scale(0.996264)" xlink:href="#CMR17-109"/>
     <use transform="translate(109.557999 0)scale(0.996264)" xlink:href="#CMR17-91"/>
     <use transform="translate(134.429058 0)scale(0.996264)" xlink:href="#CMMI12-26"/>
     <use transform="translate(184.74343 0)scale(0.996264)" xlink:href="#CMR17-93"/>
    </g>
   </g>
   <g id="Line3DCollection_6">
    <path d="M 761.883246 167.481982 
L 585.213 129.597772 
L 476.13941 197.364917 
" style="fill:none;stroke:#b0b0b0;stroke-width:0.8;"/>
    <path d="M 764.58734 118.462168 
L 584.54791 81.953532 
L 473.253412 147.301239 
" style="fill:none;stroke:#b0b0b0;stroke-width:0.8;"/>
    <path d="M 767.39751 67.5194 
L 583.857854 32.520841 
L 470.250341 95.206706 
" style="fill:none;stroke:#b0b0b0;stroke-width:0.8;"/>
   </g>
   <g id="xtick_12">
    <g id="line2d_18">
     <path d="M 760.409148 167.165885 
L 764.83451 168.114835 
" style="fill:none;stroke:#000000;stroke-linecap:square;stroke-width:0.8;"/>
    </g>
    <g id="text_14">
     <!-- $0.0$ -->
     <g transform="translate(771.696843 175.229072)scale(0.14 -0.14)">
      <use transform="scale(0.996264)" xlink:href="#CMR17-48"/>
      <use transform="translate(45.690477 0)scale(0.996264)" xlink:href="#CMMI12-58"/>
      <use transform="translate(72.787654 0)scale(0.996264)" xlink:href="#CMR17-48"/>
     </g>
    </g>
   </g>
   <g id="xtick_13">
    <g id="line2d_19">
     <path d="M 763.08394 118.157307 
L 767.597329 119.072538 
" style="fill:none;stroke:#000000;stroke-linecap:square;stroke-width:0.8;"/>
    </g>
    <g id="text_15">
     <!-- $0.2$ -->
     <g transform="translate(774.750933 126.278239)scale(0.14 -0.14)">
      <use transform="scale(0.996264)" xlink:href="#CMR17-48"/>
      <use transform="translate(45.690477 0)scale(0.996264)" xlink:href="#CMMI12-58"/>
      <use transform="translate(72.787654 0)scale(0.996264)" xlink:href="#CMR17-50"/>
     </g>
    </g>
   </g>
   <g id="xtick_14">
    <g id="line2d_20">
     <path d="M 765.863621 67.226908 
L 770.468606 68.105017 
" style="fill:none;stroke:#000000;stroke-linecap:square;stroke-width:0.8;"/>
    </g>
    <g id="text_16">
     <!-- $0.4$ -->
     <g transform="translate(777.924565 75.411399)scale(0.14 -0.14)">
      <use transform="scale(0.996264)" xlink:href="#CMR17-48"/>
      <use transform="translate(45.690477 0)scale(0.996264)" xlink:href="#CMMI12-58"/>
      <use transform="translate(72.787654 0)scale(0.996264)" xlink:href="#CMR17-52"/>
     </g>
    </g>
   </g>
  </g>
  <g id="axes_2">
   <g id="Poly3DCollection_5">
    <path clip-path="url(#pfe2dab7e35)" d="M 589.578509 135.956589 
L 589.559793 134.435235 
L 639.873319 145.27234 
L 639.862246 146.805972 
z
" style="fill:#065d4c;fill-opacity:0.8;"/>
    <path clip-path="url(#pfe2dab7e35)" d="M 559.371763 154.919302 
L 559.334447 153.37659 
L 589.559793 134.435235 
L 589.578509 135.956589 
z
" style="fill:#0cba97;fill-opacity:0.8;"/>
    <path clip-path="url(#pfe2dab7e35)" d="M 559.371763 154.919302 
L 589.578509 135.956589 
L 639.862246 146.805972 
L 610.371665 166.243982 
z
" style="fill:#08745e;fill-opacity:0.8;"/>
    <path clip-path="url(#pfe2dab7e35)" d="M 559.334447 153.37659 
L 610.36499 164.688746 
L 639.873319 145.27234 
L 589.559793 134.435235 
z
" style="fill:#0aa384;fill-opacity:0.8;"/>
    <path clip-path="url(#pfe2dab7e35)" d="M 610.371665 166.243982 
L 639.862246 146.805972 
L 639.873319 145.27234 
L 610.36499 164.688746 
z
" style="fill:#065d4c;fill-opacity:0.8;"/>
    <path clip-path="url(#pfe2dab7e35)" d="M 559.371763 154.919302 
L 610.371665 166.243982 
L 610.36499 164.688746 
L 559.334447 153.37659 
z
" style="fill:#0cba97;fill-opacity:0.8;"/>
   </g>
   <g id="Poly3DCollection_6">
    <path clip-path="url(#pfe2dab7e35)" d="M 691.400486 157.926031 
L 691.400486 157.926031 
L 744.240771 169.327023 
L 744.240771 169.327023 
z
" style="fill:#065d4c;fill-opacity:0.8;"/>
    <path clip-path="url(#pfe2dab7e35)" d="M 662.672037 177.857436 
L 662.672037 177.857436 
L 691.400486 157.926031 
L 691.400486 157.926031 
z
" style="fill:#065d4c;fill-opacity:0.8;"/>
    <path clip-path="url(#pfe2dab7e35)" d="M 662.672037 177.857436 
L 691.400486 157.926031 
L 744.240771 169.327023 
L 716.323262 189.770852 
z
" style="fill:#08745e;fill-opacity:0.8;"/>
    <path clip-path="url(#pfe2dab7e35)" d="M 662.672037 177.857436 
L 716.323262 189.770852 
L 744.240771 169.327023 
L 691.400486 157.926031 
z
" style="fill:#0aa384;fill-opacity:0.8;"/>
    <path clip-path="url(#pfe2dab7e35)" d="M 716.323262 189.770852 
L 744.240771 169.327023 
L 744.240771 169.327023 
L 716.323262 189.770852 
z
" style="fill:#065d4c;fill-opacity:0.8;"/>
    <path clip-path="url(#pfe2dab7e35)" d="M 662.672037 177.857436 
L 716.323262 189.770852 
L 716.323262 189.770852 
L 662.672037 177.857436 
z
" style="fill:#065d4c;fill-opacity:0.8;"/>
   </g>
   <g id="Poly3DCollection_7">
    <path clip-path="url(#pfe2dab7e35)" d="M 527.835438 174.716676 
L 527.835438 174.716676 
L 579.566323 186.548587 
L 579.566323 186.548587 
z
" style="fill:#065d4c;fill-opacity:0.8;"/>
    <path clip-path="url(#pfe2dab7e35)" d="M 494.879775 195.40506 
L 494.879775 195.40506 
L 527.835438 174.716676 
L 527.835438 174.716676 
z
" style="fill:#065d4c;fill-opacity:0.8;"/>
    <path clip-path="url(#pfe2dab7e35)" d="M 494.879775 195.40506 
L 527.835438 174.716676 
L 579.566323 186.548587 
L 547.356292 207.779058 
z
" style="fill:#08745e;fill-opacity:0.8;"/>
    <path clip-path="url(#pfe2dab7e35)" d="M 494.879775 195.40506 
L 547.356292 207.779058 
L 579.566323 186.548587 
L 527.835438 174.716676 
z
" style="fill:#0aa384;fill-opacity:0.8;"/>
    <path clip-path="url(#pfe2dab7e35)" d="M 547.356292 207.779058 
L 579.566323 186.548587 
L 579.566323 186.548587 
L 547.356292 207.779058 
z
" style="fill:#065d4c;fill-opacity:0.8;"/>
    <path clip-path="url(#pfe2dab7e35)" d="M 494.879775 195.40506 
L 547.356292 207.779058 
L 547.356292 207.779058 
L 494.879775 195.40506 
z
" style="fill:#065d4c;fill-opacity:0.8;"/>
   </g>
   <g id="Poly3DCollection_8">
    <path clip-path="url(#pfe2dab7e35)" d="M 632.646105 198.689018 
L 632.638955 200.277182 
L 687.086164 212.751359 
L 687.128239 211.150196 
z
" style="fill:#0cba97;fill-opacity:0.8;"/>
    <path clip-path="url(#pfe2dab7e35)" d="M 601.232761 220.483167 
L 601.245724 222.09393 
L 632.638955 200.277182 
L 632.646105 198.689018 
z
" style="fill:#065d4c;fill-opacity:0.8;"/>
    <path clip-path="url(#pfe2dab7e35)" d="M 601.245724 222.09393 
L 656.542897 235.154762 
L 687.086164 212.751359 
L 632.638955 200.277182 
z
" style="fill:#0aa384;fill-opacity:0.8;"/>
    <path clip-path="url(#pfe2dab7e35)" d="M 601.232761 220.483167 
L 632.646105 198.689018 
L 687.128239 211.150196 
L 656.565961 233.530774 
z
" style="fill:#08745e;fill-opacity:0.8;"/>
    <path clip-path="url(#pfe2dab7e35)" d="M 656.565961 233.530774 
L 687.128239 211.150196 
L 687.086164 212.751359 
L 656.542897 235.154762 
z
" style="fill:#0cba97;fill-opacity:0.8;"/>
    <path clip-path="url(#pfe2dab7e35)" d="M 601.232761 220.483167 
L 656.565961 233.530774 
L 656.542897 235.154762 
L 601.245724 222.09393 
z
" style="fill:#065d4c;fill-opacity:0.8;"/>
   </g>
   <g id="Poly3DCollection_9">
    <path clip-path="url(#pfe2dab7e35)" d="M 482.037654 196.748082 
L 660.307189 238.980261 
L 756.346149 168.061049 
L 586.578208 131.586339 
z
" style="fill-opacity:0.2;"/>
   </g>
  </g>
 </g>
 <defs>
  <clipPath id="p9fd0bfee85">
   <rect height="277.2" width="380.454545" x="-30.6" y="-14.4"/>
  </clipPath>
  <clipPath id="pfe2dab7e35">
   <rect height="277.2" width="380.454545" x="425.945455" y="-14.4"/>
  </clipPath>
 </defs>
</svg>
