<?xml version="1.0" encoding="utf-8" standalone="no"?>
<!DOCTYPE svg PUBLIC "-//W3C//DTD SVG 1.1//EN"
  "http://www.w3.org/Graphics/SVG/1.1/DTD/svg11.dtd">
<!-- Created with matplotlib (https://matplotlib.org/) -->
<svg height="302.4pt" version="1.1" viewBox="0 0 820.8 302.4" width="820.8pt" xmlns="http://www.w3.org/2000/svg" xmlns:xlink="http://www.w3.org/1999/xlink">
 <defs>
  <style type="text/css">
*{stroke-linecap:butt;stroke-linejoin:round;}
  </style>
 </defs>
 <g id="figure_1">
  <g id="patch_1">
   <path d="M 0 302.4 
L 820.8 302.4 
L 820.8 0 
L 0 0 
z
" style="fill:#ffffff;"/>
  </g>
  <g id="patch_2">
   <path d="M -30.6 262.8 
L 349.854545 262.8 
L 349.854545 -14.4 
L -30.6 -14.4 
z
" style="fill:#ffffff;"/>
  </g>
  <g id="pane3d_1">
   <g id="patch_3">
    <path d="M 19.835129 201.548569 
L 128.723211 133.58541 
L 126.910339 3.718968 
L 11.951034 64.782468 
" style="fill:#f2f2f2;opacity:0.5;stroke:#f2f2f2;stroke-linejoin:miter;"/>
   </g>
  </g>
  <g id="pane3d_2">
   <g id="patch_4">
    <path d="M 128.723211 133.58541 
L 305.111665 171.581202 
L 312.491547 37.79869 
L 126.910339 3.718968 
" style="fill:#e6e6e6;opacity:0.5;stroke:#e6e6e6;stroke-linejoin:miter;"/>
   </g>
  </g>
  <g id="pane3d_3">
   <g id="patch_5">
    <path d="M 19.835129 201.548569 
L 205.419617 245.80086 
L 305.111665 171.581202 
L 128.723211 133.58541 
" style="fill:#ececec;opacity:0.5;stroke:#ececec;stroke-linejoin:miter;"/>
   </g>
  </g>
  <g id="axis3d_1">
   <g id="line2d_1">
    <path d="M 19.835129 201.548569 
L 205.419617 245.80086 
" style="fill:none;stroke:#000000;stroke-linecap:square;stroke-width:0.8;"/>
   </g>
   <g id="Line3DCollection_1">
    <path d="M 42.295817 206.90428 
L 150.133942 138.19749 
L 149.393845 7.847789 
" style="fill:none;stroke:#b0b0b0;stroke-width:0.8;"/>
    <path d="M 87.512337 217.686079 
L 193.184014 147.470895 
L 194.636898 16.156123 
" style="fill:none;stroke:#b0b0b0;stroke-width:0.8;"/>
    <path d="M 133.765289 228.715013 
L 237.148096 156.941187 
L 240.890183 24.649974 
" style="fill:none;stroke:#b0b0b0;stroke-width:0.8;"/>
    <path d="M 181.090721 239.999678 
L 282.055608 166.614702 
L 288.187917 33.335625 
" style="fill:none;stroke:#b0b0b0;stroke-width:0.8;"/>
   </g>
   <g id="xtick_1">
    <g id="line2d_2">
     <path d="M 43.225084 206.312217 
L 40.433807 208.09062 
" style="fill:none;stroke:#000000;stroke-linecap:square;stroke-width:0.8;"/>
    </g>
    <g id="text_1">
     <!-- 00 -->
     <defs>
      <path d="M 42 31.84375 
C 42 37.96875 41.90625 48.421875 37.703125 56.453125 
C 34 63.484375 28.09375 66 22.90625 66 
C 18.09375 66 12 63.78125 8.203125 56.5625 
C 4.203125 49.015625 3.796875 39.671875 3.796875 31.84375 
C 3.796875 26.109375 3.90625 17.375 7 9.734375 
C 11.296875 -0.609375 19 -2 22.90625 -2 
C 27.5 -2 34.5 -0.109375 38.59375 9.4375 
C 41.59375 16.375 42 24.5 42 31.84375 
z
M 22.90625 -0.40625 
C 16.5 -0.40625 12.703125 5.125 11.296875 12.75 
C 10.203125 18.6875 10.203125 27.328125 10.203125 32.953125 
C 10.203125 40.6875 10.203125 47.109375 11.5 53.234375 
C 13.40625 61.78125 19 64.390625 22.90625 64.390625 
C 27 64.390625 32.296875 61.671875 34.203125 53.4375 
C 35.5 47.71875 35.59375 40.984375 35.59375 32.953125 
C 35.59375 26.421875 35.59375 18.375 34.40625 12.453125 
C 32.296875 1.5 26.40625 -0.40625 22.90625 -0.40625 
z
" id="CMR17-48"/>
     </defs>
     <g transform="translate(23.330362 237.14703)rotate(-45)scale(0.14 -0.14)">
      <use transform="scale(0.996264)" xlink:href="#CMR17-48"/>
      <use transform="translate(45.690477 0)scale(0.996264)" xlink:href="#CMR17-48"/>
     </g>
    </g>
   </g>
   <g id="xtick_2">
    <g id="line2d_3">
     <path d="M 88.423674 217.080527 
L 85.686217 218.899473 
" style="fill:none;stroke:#000000;stroke-linecap:square;stroke-width:0.8;"/>
    </g>
    <g id="text_2">
     <!-- 01 -->
     <defs>
      <path d="M 26.59375 63.796875 
C 26.59375 65.890625 26.5 66 25.09375 66 
C 21.203125 61.359375 15.296875 59.890625 9.703125 59.6875 
C 9.40625 59.6875 8.90625 59.6875 8.796875 59.5 
C 8.703125 59.296875 8.703125 59.09375 8.703125 57 
C 11.796875 57 17 57.59375 21 59.984375 
L 21 7.296875 
C 21 3.796875 20.796875 2.59375 12.203125 2.59375 
L 9.203125 2.59375 
L 9.203125 0 
C 14 0.09375 19 0.1875 23.796875 0.1875 
C 28.59375 0.1875 33.59375 0.09375 38.40625 0 
L 38.40625 2.59375 
L 35.40625 2.59375 
C 26.796875 2.59375 26.59375 3.6875 26.59375 7.296875 
z
" id="CMR17-49"/>
     </defs>
     <g transform="translate(68.542787 248.103782)rotate(-45)scale(0.14 -0.14)">
      <use transform="scale(0.996264)" xlink:href="#CMR17-48"/>
      <use transform="translate(45.690477 0)scale(0.996264)" xlink:href="#CMR17-49"/>
     </g>
    </g>
   </g>
   <g id="xtick_3">
    <g id="line2d_4">
     <path d="M 134.657625 228.095506 
L 131.977203 229.956397 
" style="fill:none;stroke:#000000;stroke-linecap:square;stroke-width:0.8;"/>
    </g>
    <g id="text_3">
     <!-- 10 -->
     <g transform="translate(114.7934 259.312128)rotate(-45)scale(0.14 -0.14)">
      <use transform="scale(0.996264)" xlink:href="#CMR17-49"/>
      <use transform="translate(45.690477 0)scale(0.996264)" xlink:href="#CMR17-48"/>
     </g>
    </g>
   </g>
   <g id="xtick_4">
    <g id="line2d_5">
     <path d="M 181.962926 239.365727 
L 179.342936 241.270032 
" style="fill:none;stroke:#000000;stroke-linecap:square;stroke-width:0.8;"/>
    </g>
    <g id="text_4">
     <!-- 11 -->
     <g transform="translate(162.118375 270.780834)rotate(-45)scale(0.14 -0.14)">
      <use transform="scale(0.996264)" xlink:href="#CMR17-49"/>
      <use transform="translate(45.690477 0)scale(0.996264)" xlink:href="#CMR17-49"/>
     </g>
    </g>
   </g>
  </g>
  <g id="axis3d_2">
   <g id="line2d_6">
    <path d="M 305.111665 171.581202 
L 205.419617 245.80086 
" style="fill:none;stroke:#000000;stroke-linecap:square;stroke-width:0.8;"/>
   </g>
   <g id="Line3DCollection_2">
    <path d="M 27.455231 56.547028 
L 34.471044 192.413474 
L 218.858418 235.795817 
" style="fill:none;stroke:#b0b0b0;stroke-width:0.8;"/>
    <path d="M 57.232024 40.730342 
L 62.623407 174.842005 
L 244.674037 216.576366 
" style="fill:none;stroke:#b0b0b0;stroke-width:0.8;"/>
    <path d="M 85.85589 25.526062 
L 89.739382 157.917404 
L 269.496985 198.095948 
" style="fill:none;stroke:#b0b0b0;stroke-width:0.8;"/>
    <path d="M 113.392516 10.899296 
L 115.875164 141.604597 
L 293.383438 180.312741 
" style="fill:none;stroke:#b0b0b0;stroke-width:0.8;"/>
   </g>
   <g id="xtick_5">
    <g id="line2d_7">
     <path d="M 217.315598 235.432825 
L 221.947489 236.522608 
" style="fill:none;stroke:#000000;stroke-linecap:square;stroke-width:0.8;"/>
    </g>
    <g id="text_5">
     <!-- 00 -->
     <g transform="translate(232.650369 248.348363)rotate(-337.5)scale(0.14 -0.14)">
      <use transform="scale(0.996264)" xlink:href="#CMR17-48"/>
      <use transform="translate(45.690477 0)scale(0.996264)" xlink:href="#CMR17-48"/>
     </g>
    </g>
   </g>
   <g id="xtick_6">
    <g id="line2d_8">
     <path d="M 243.15208 216.227463 
L 247.72127 217.274932 
" style="fill:none;stroke:#000000;stroke-linecap:square;stroke-width:0.8;"/>
    </g>
    <g id="text_6">
     <!-- 01 -->
     <g transform="translate(258.203921 228.903937)rotate(-337.5)scale(0.14 -0.14)">
      <use transform="scale(0.996264)" xlink:href="#CMR17-48"/>
      <use transform="translate(45.690477 0)scale(0.996264)" xlink:href="#CMR17-49"/>
     </g>
    </g>
   </g>
   <g id="xtick_7">
    <g id="line2d_9">
     <path d="M 267.995442 197.76033 
L 272.503283 198.767901 
" style="fill:none;stroke:#000000;stroke-linecap:square;stroke-width:0.8;"/>
    </g>
    <g id="text_7">
     <!-- 10 -->
     <g transform="translate(282.775332 210.206849)rotate(-337.5)scale(0.14 -0.14)">
      <use transform="scale(0.996264)" xlink:href="#CMR17-49"/>
      <use transform="translate(45.690477 0)scale(0.996264)" xlink:href="#CMR17-48"/>
     </g>
    </g>
   </g>
   <g id="xtick_8">
    <g id="line2d_10">
     <path d="M 291.901865 179.989663 
L 296.349691 180.959573 
" style="fill:none;stroke:#000000;stroke-linecap:square;stroke-width:0.8;"/>
    </g>
    <g id="text_8">
     <!-- 11 -->
     <g transform="translate(306.420159 192.214827)rotate(-337.5)scale(0.14 -0.14)">
      <use transform="scale(0.996264)" xlink:href="#CMR17-49"/>
      <use transform="translate(45.690477 0)scale(0.996264)" xlink:href="#CMR17-49"/>
     </g>
    </g>
   </g>
  </g>
  <g id="axis3d_3">
   <g id="line2d_11">
    <path d="M 305.111665 171.581202 
L 312.491547 37.79869 
" style="fill:none;stroke:#000000;stroke-linecap:square;stroke-width:0.8;"/>
   </g>
   <g id="text_9">
    <!-- Re[$\rho$] -->
    <defs>
     <path d="M 39.203125 33.6875 
C 48.703125 35.59375 56.703125 42.015625 56.703125 50.046875 
C 56.703125 59.46875 46.09375 68 32.09375 68 
L 5.203125 68 
L 5.203125 65.390625 
C 12.09375 65.390625 13.203125 65.390625 13.203125 60.875 
L 13.203125 6.6875 
C 13.203125 2.1875 12.09375 2.1875 5.203125 2.1875 
L 5.203125 -0.40625 
C 8.09375 -0.203125 13.296875 -0.203125 16.40625 -0.203125 
C 19.5 -0.203125 24.703125 -0.203125 27.59375 -0.40625 
L 27.59375 2.1875 
C 20.703125 2.1875 19.59375 2.1875 19.59375 6.6875 
L 19.59375 33 
L 31.296875 33 
C 37 33 40.203125 30.6875 41.59375 29.390625 
C 45.59375 25.5 45.59375 22.796875 45.59375 16 
C 45.59375 9.296875 45.59375 5.890625 48.59375 2.5 
C 52.40625 -1.609375 57.5 -2 59.703125 -2 
C 67.09375 -2 68.203125 6.296875 68.203125 8 
C 68.203125 8.59375 68.203125 9.296875 67.296875 9.296875 
C 66.5 9.296875 66.40625 8.6875 66.40625 8.296875 
C 65.90625 1.796875 63 -0.40625 59.90625 -0.40625 
C 54.40625 -0.40625 53.796875 5.890625 53.203125 12 
C 52.90625 14.09375 52.703125 15.59375 52.5 17.796875 
C 51.90625 22.796875 51.09375 30.09375 39.203125 33.6875 
z
M 31 34.59375 
L 19.59375 34.59375 
L 19.59375 61.484375 
C 19.59375 64.890625 19.796875 65.390625 23.796875 65.390625 
L 31.09375 65.390625 
C 39.40625 65.390625 49.09375 62.484375 49.09375 50.046875 
C 49.09375 37.09375 38.5 34.59375 31 34.59375 
z
" id="CMR17-82"/>
     <path d="M 38.09375 23.484375 
C 38.5 23.890625 38.5 24.09375 38.5 25.09375 
C 38.5 35.171875 33.09375 44 21.703125 44 
C 11.09375 44 2.703125 33.984375 2.703125 21.78125 
C 2.703125 8.65625 12.203125 -1 22.796875 -1 
C 34 -1 38.40625 9.671875 38.40625 11.796875 
C 38.40625 12.5 37.796875 12.5 37.59375 12.5 
C 36.90625 12.5 36.796875 12.296875 36.40625 11.078125 
C 34.203125 4.21875 28.703125 0.796875 23.5 0.796875 
C 19.203125 0.796875 14.90625 3.21875 12.203125 7.65625 
C 9.09375 12.796875 9.09375 18.75 9.09375 23.484375 
z
M 9.203125 25 
C 9.90625 39.234375 17.59375 42.390625 21.59375 42.390625 
C 28.40625 42.390625 33 36.0625 33.09375 25 
z
" id="CMR17-101"/>
     <path d="M 23.5 -25 
L 23.5 -21.5 
L 14.09375 -21.5 
L 14.09375 71.484375 
L 23.5 71.484375 
L 23.5 75 
L 10.59375 75 
L 10.59375 -25 
z
" id="CMR17-91"/>
     <path d="M 3.09375 -16.953125 
C 3 -17.4375 2.796875 -18.03125 2.796875 -18.609375 
C 2.796875 -20.109375 4 -21.109375 5.5 -21.109375 
C 7 -21.109375 8.40625 -20.109375 9 -18.71875 
C 9.40625 -17.828125 12.203125 -6.09375 15.40625 6.078125 
C 17.40625 1.09375 21.09375 -1 25 -1 
C 36.296875 -1 49.09375 12.96875 49.09375 28.03125 
C 49.09375 38.703125 42.59375 44 35.703125 44 
C 26.90625 44 16.203125 34.90625 12.90625 21.640625 
z
M 24.90625 1 
C 18.09375 1 16.40625 8.875 16.40625 10.078125 
C 16.40625 10.671875 18.90625 20.140625 19.203125 21.640625 
C 24.296875 41.5 34.09375 41.984375 35.59375 41.984375 
C 40.09375 41.984375 42.59375 37.90625 42.59375 32.015625 
C 42.59375 26.9375 39.90625 17.046875 38.203125 12.859375 
C 35.203125 5.984375 30 1 24.90625 1 
z
" id="CMMI12-26"/>
     <path d="M 14.296875 75 
L 1.40625 75 
L 1.40625 71.484375 
L 10.796875 71.484375 
L 10.796875 -21.5 
L 1.40625 -21.5 
L 1.40625 -25 
L 14.296875 -25 
z
" id="CMR17-93"/>
    </defs>
    <g transform="translate(352.486567 117.931831)rotate(-86.842577)scale(0.14 -0.14)">
     <use transform="scale(0.996264)" xlink:href="#CMR17-82"/>
     <use transform="translate(67.791102 0)scale(0.996264)" xlink:href="#CMR17-101"/>
     <use transform="translate(108.276762 0)scale(0.996264)" xlink:href="#CMR17-91"/>
     <use transform="translate(133.147821 0)scale(0.996264)" xlink:href="#CMMI12-26"/>
     <use transform="translate(183.462194 0)scale(0.996264)" xlink:href="#CMR17-93"/>
    </g>
   </g>
   <g id="Line3DCollection_3">
    <path d="M 305.305392 168.069317 
L 128.67552 130.169086 
L 19.628513 197.964376 
" style="fill:none;stroke:#b0b0b0;stroke-width:0.8;"/>
    <path d="M 308.028724 118.700747 
L 128.00569 82.185232 
L 16.722012 147.545051 
" style="fill:none;stroke:#b0b0b0;stroke-width:0.8;"/>
    <path d="M 310.859688 67.381034 
L 127.310527 32.386688 
L 13.696724 95.065118 
" style="fill:none;stroke:#b0b0b0;stroke-width:0.8;"/>
   </g>
   <g id="xtick_9">
    <g id="line2d_12">
     <path d="M 303.831645 167.753089 
L 308.255953 168.702432 
" style="fill:none;stroke:#000000;stroke-linecap:square;stroke-width:0.8;"/>
    </g>
    <g id="text_10">
     <!-- $0.0$ -->
     <defs>
      <path d="M 18.40625 4.796875 
C 18.40625 7.6875 16 9.6875 13.59375 9.6875 
C 10.703125 9.6875 8.703125 7.296875 8.703125 4.890625 
C 8.703125 2 11.09375 0 13.5 0 
C 16.40625 0 18.40625 2.390625 18.40625 4.796875 
z
" id="CMMI12-58"/>
     </defs>
     <g transform="translate(315.114794 175.815605)scale(0.14 -0.14)">
      <use transform="scale(0.996264)" xlink:href="#CMR17-48"/>
      <use transform="translate(45.690477 0)scale(0.996264)" xlink:href="#CMMI12-58"/>
      <use transform="translate(72.787654 0)scale(0.996264)" xlink:href="#CMR17-48"/>
     </g>
    </g>
   </g>
   <g id="xtick_10">
    <g id="line2d_13">
     <path d="M 306.525467 118.39583 
L 311.038428 119.31123 
" style="fill:none;stroke:#000000;stroke-linecap:square;stroke-width:0.8;"/>
    </g>
    <g id="text_11">
     <!-- $0.2$ -->
     <defs>
      <path d="M 41.703125 15.46875 
L 39.90625 15.46875 
C 38.90625 8.390625 38.09375 7.1875 37.703125 6.59375 
C 37.203125 5.796875 30 5.796875 28.59375 5.796875 
L 9.40625 5.796875 
C 13 9.6875 20 16.765625 28.5 24.9375 
C 34.59375 30.71875 41.703125 37.5 41.703125 47.390625 
C 41.703125 59.1875 32.296875 66 21.796875 66 
C 10.796875 66 4.09375 56.296875 4.09375 47.296875 
C 4.09375 43.390625 7 42.890625 8.203125 42.890625 
C 9.203125 42.890625 12.203125 43.484375 12.203125 46.984375 
C 12.203125 50.09375 9.59375 51 8.203125 51 
C 7.59375 51 7 50.890625 6.59375 50.6875 
C 8.5 59.1875 14.296875 63.390625 20.40625 63.390625 
C 29.09375 63.390625 34.796875 56.5 34.796875 47.390625 
C 34.796875 38.703125 29.703125 31.21875 24 24.734375 
L 4.09375 2.296875 
L 4.09375 0 
L 39.296875 0 
z
" id="CMR17-50"/>
     </defs>
     <g transform="translate(318.190615 126.516473)scale(0.14 -0.14)">
      <use transform="scale(0.996264)" xlink:href="#CMR17-48"/>
      <use transform="translate(45.690477 0)scale(0.996264)" xlink:href="#CMMI12-58"/>
      <use transform="translate(72.787654 0)scale(0.996264)" xlink:href="#CMR17-50"/>
     </g>
    </g>
   </g>
   <g id="xtick_11">
    <g id="line2d_14">
     <path d="M 309.325716 67.088576 
L 313.93095 67.966581 
" style="fill:none;stroke:#000000;stroke-linecap:square;stroke-width:0.8;"/>
    </g>
    <g id="text_12">
     <!-- $0.4$ -->
     <defs>
      <path d="M 33.59375 64.796875 
C 33.59375 66.890625 33.5 67 31.703125 67 
L 2 19.59375 
L 2 17 
L 27.796875 17 
L 27.796875 7.1875 
C 27.796875 3.59375 27.59375 2.59375 20.59375 2.59375 
L 18.703125 2.59375 
L 18.703125 0 
C 21.90625 0.1875 27.296875 0.1875 30.703125 0.1875 
C 34.09375 0.1875 39.5 0.1875 42.703125 0 
L 42.703125 2.59375 
L 40.796875 2.59375 
C 33.796875 2.59375 33.59375 3.59375 33.59375 7.1875 
L 33.59375 17 
L 43.796875 17 
L 43.796875 19.59375 
L 33.59375 19.59375 
z
M 28.09375 58.171875 
L 28.09375 19.59375 
L 4 19.59375 
z
" id="CMR17-52"/>
     </defs>
     <g transform="translate(321.38773 75.273245)scale(0.14 -0.14)">
      <use transform="scale(0.996264)" xlink:href="#CMR17-48"/>
      <use transform="translate(45.690477 0)scale(0.996264)" xlink:href="#CMMI12-58"/>
      <use transform="translate(72.787654 0)scale(0.996264)" xlink:href="#CMR17-52"/>
     </g>
    </g>
   </g>
  </g>
  <g id="axes_1">
   <g id="Poly3DCollection_1">
    <path clip-path="url(#p1d3a2f9539)" d="M 176.055135 145.817738 
L 176.054631 145.932416 
L 197.902978 150.650159 
L 197.904465 150.535086 
z
" style="fill:#ba0c2f;fill-opacity:0.8;"/>
    <path clip-path="url(#p1d3a2f9539)" d="M 163.529929 154.020235 
L 163.529985 154.135599 
L 176.054631 145.932416 
L 176.055135 145.817738 
z
" style="fill:#5d0618;fill-opacity:0.8;"/>
    <path clip-path="url(#p1d3a2f9539)" d="M 163.529985 154.135599 
L 185.513694 158.94089 
L 197.902978 150.650159 
L 176.054631 145.932416 
z
" style="fill:#a30a29;fill-opacity:0.8;"/>
    <path clip-path="url(#p1d3a2f9539)" d="M 163.529929 154.020235 
L 176.055135 145.817738 
L 197.904465 150.535086 
L 185.514633 158.825126 
z
" style="fill:#74081d;fill-opacity:0.8;"/>
    <path clip-path="url(#p1d3a2f9539)" d="M 185.514633 158.825126 
L 197.904465 150.535086 
L 197.902978 150.650159 
L 185.513694 158.94089 
z
" style="fill:#ba0c2f;fill-opacity:0.8;"/>
    <path clip-path="url(#p1d3a2f9539)" d="M 163.529929 154.020235 
L 185.514633 158.825126 
L 185.513694 158.94089 
L 163.529985 154.135599 
z
" style="fill:#5d0618;fill-opacity:0.8;"/>
   </g>
   <g id="Poly3DCollection_2">
    <path clip-path="url(#p1d3a2f9539)" d="M 107.234004 152.741438 
L 107.255484 153.698282 
L 128.900155 158.49278 
L 128.886687 157.532627 
z
" style="fill:#ba0c2f;fill-opacity:0.8;"/>
    <path clip-path="url(#p1d3a2f9539)" d="M 93.971577 161.072584 
L 93.998253 162.035168 
L 107.255484 153.698282 
L 107.234004 152.741438 
z
" style="fill:#5d0618;fill-opacity:0.8;"/>
    <path clip-path="url(#p1d3a2f9539)" d="M 93.998253 162.035168 
L 115.773462 166.919311 
L 128.900155 158.49278 
L 107.255484 153.698282 
z
" style="fill:#a30a29;fill-opacity:0.8;"/>
    <path clip-path="url(#p1d3a2f9539)" d="M 93.971577 161.072584 
L 107.234004 152.741438 
L 128.886687 157.532627 
L 115.754894 165.95339 
z
" style="fill:#74081d;fill-opacity:0.8;"/>
    <path clip-path="url(#p1d3a2f9539)" d="M 115.754894 165.95339 
L 128.886687 157.532627 
L 128.900155 158.49278 
L 115.773462 166.919311 
z
" style="fill:#ba0c2f;fill-opacity:0.8;"/>
    <path clip-path="url(#p1d3a2f9539)" d="M 93.971577 161.072584 
L 115.754894 165.95339 
L 115.773462 166.919311 
L 93.998253 162.035168 
z
" style="fill:#5d0618;fill-opacity:0.8;"/>
   </g>
   <g id="Poly3DCollection_3">
    <path clip-path="url(#p1d3a2f9539)" d="M 219.98653 155.302682 
L 219.993328 154.98749 
L 242.314665 159.80505 
L 242.305069 160.121334 
z
" style="fill:#5d0618;fill-opacity:0.8;"/>
    <path clip-path="url(#p1d3a2f9539)" d="M 207.735695 163.681675 
L 207.741034 163.364589 
L 219.993328 154.98749 
L 219.98653 155.302682 
z
" style="fill:#ba0c2f;fill-opacity:0.8;"/>
    <path clip-path="url(#p1d3a2f9539)" d="M 207.735695 163.681675 
L 219.98653 155.302682 
L 242.305069 160.121334 
L 230.196946 168.590718 
z
" style="fill:#74081d;fill-opacity:0.8;"/>
    <path clip-path="url(#p1d3a2f9539)" d="M 207.741034 163.364589 
L 230.20512 168.272532 
L 242.314665 159.80505 
L 219.993328 154.98749 
z
" style="fill:#a30a29;fill-opacity:0.8;"/>
    <path clip-path="url(#p1d3a2f9539)" d="M 230.196946 168.590718 
L 242.305069 160.121334 
L 242.314665 159.80505 
L 230.20512 168.272532 
z
" style="fill:#5d0618;fill-opacity:0.8;"/>
    <path clip-path="url(#p1d3a2f9539)" d="M 207.735695 163.681675 
L 230.196946 168.590718 
L 230.20512 168.272532 
L 207.741034 163.364589 
z
" style="fill:#ba0c2f;fill-opacity:0.8;"/>
   </g>
   <g id="Poly3DCollection_4">
    <path clip-path="url(#p1d3a2f9539)" d="M 150.771823 162.375253 
L 150.77163 162.339925 
L 172.893289 167.234697 
L 172.893176 167.270147 
z
" style="fill:#5d0618;fill-opacity:0.8;"/>
    <path clip-path="url(#p1d3a2f9539)" d="M 137.774261 170.887086 
L 137.773884 170.851545 
L 150.77163 162.339925 
L 150.771823 162.375253 
z
" style="fill:#ba0c2f;fill-opacity:0.8;"/>
    <path clip-path="url(#p1d3a2f9539)" d="M 137.774261 170.887086 
L 150.771823 162.375253 
L 172.893176 167.270147 
L 160.033536 175.874536 
z
" style="fill:#74081d;fill-opacity:0.8;"/>
    <path clip-path="url(#p1d3a2f9539)" d="M 137.773884 170.851545 
L 160.033469 175.838872 
L 172.893289 167.234697 
L 150.77163 162.339925 
z
" style="fill:#a30a29;fill-opacity:0.8;"/>
    <path clip-path="url(#p1d3a2f9539)" d="M 160.033536 175.874536 
L 172.893176 167.270147 
L 172.893289 167.234697 
L 160.033469 175.838872 
z
" style="fill:#5d0618;fill-opacity:0.8;"/>
    <path clip-path="url(#p1d3a2f9539)" d="M 137.774261 170.887086 
L 160.033536 175.874536 
L 160.033469 175.838872 
L 137.773884 170.851545 
z
" style="fill:#ba0c2f;fill-opacity:0.8;"/>
   </g>
   <g id="Poly3DCollection_5">
    <path clip-path="url(#p1d3a2f9539)" d="M 120.254667 144.562163 
L 133.040116 136.530644 
L 154.43488 141.149849 
L 141.777831 149.266181 
z
" style="fill:#74081d;fill-opacity:0.8;"/>
    <path clip-path="url(#p1d3a2f9539)" d="M 133.040116 136.530644 
L 131.948101 47.761179 
L 154.077291 52.058782 
L 154.43488 141.149849 
z
" style="fill:#5d0618;fill-opacity:0.8;"/>
    <path clip-path="url(#p1d3a2f9539)" d="M 120.254667 144.562163 
L 118.708158 55.234518 
L 131.948101 47.761179 
L 133.040116 136.530644 
z
" style="fill:#ba0c2f;fill-opacity:0.8;"/>
    <path clip-path="url(#p1d3a2f9539)" d="M 141.777831 149.266181 
L 154.43488 141.149849 
L 154.077291 52.058782 
L 140.97471 59.613791 
z
" style="fill:#5d0618;fill-opacity:0.8;"/>
    <path clip-path="url(#p1d3a2f9539)" d="M 120.254667 144.562163 
L 141.777831 149.266181 
L 140.97471 59.613791 
L 118.708158 55.234518 
z
" style="fill:#ba0c2f;fill-opacity:0.8;"/>
    <path clip-path="url(#p1d3a2f9539)" d="M 118.708158 55.234518 
L 140.97471 59.613791 
L 154.077291 52.058782 
L 131.948101 47.761179 
z
" style="fill:#a30a29;fill-opacity:0.8;"/>
   </g>
   <g id="Poly3DCollection_6">
    <path clip-path="url(#p1d3a2f9539)" d="M 80.460588 169.55987 
L 80.465806 169.717463 
L 102.379531 174.690972 
L 102.375648 174.532831 
z
" style="fill:#ba0c2f;fill-opacity:0.8;"/>
    <path clip-path="url(#p1d3a2f9539)" d="M 66.693984 178.207728 
L 66.700112 178.366271 
L 80.465806 169.717463 
L 80.460588 169.55987 
z
" style="fill:#5d0618;fill-opacity:0.8;"/>
    <path clip-path="url(#p1d3a2f9539)" d="M 66.700112 178.366271 
L 88.746666 183.434574 
L 102.379531 174.690972 
L 80.465806 169.717463 
z
" style="fill:#a30a29;fill-opacity:0.8;"/>
    <path clip-path="url(#p1d3a2f9539)" d="M 66.693984 178.207728 
L 80.460588 169.55987 
L 102.375648 174.532831 
L 88.74189 183.275479 
z
" style="fill:#74081d;fill-opacity:0.8;"/>
    <path clip-path="url(#p1d3a2f9539)" d="M 88.74189 183.275479 
L 102.375648 174.532831 
L 102.379531 174.690972 
L 88.746666 183.434574 
z
" style="fill:#ba0c2f;fill-opacity:0.8;"/>
    <path clip-path="url(#p1d3a2f9539)" d="M 66.693984 178.207728 
L 88.74189 183.275479 
L 88.746666 183.434574 
L 66.700112 178.366271 
z
" style="fill:#5d0618;fill-opacity:0.8;"/>
   </g>
   <g id="Poly3DCollection_7">
    <path clip-path="url(#p1d3a2f9539)" d="M 195.25459 172.218161 
L 195.257821 171.948602 
L 217.865652 176.949667 
L 217.859995 177.220164 
z
" style="fill:#5d0618;fill-opacity:0.8;"/>
    <path clip-path="url(#p1d3a2f9539)" d="M 182.536661 180.916624 
L 182.538561 180.645438 
L 195.257821 171.948602 
L 195.25459 172.218161 
z
" style="fill:#ba0c2f;fill-opacity:0.8;"/>
    <path clip-path="url(#p1d3a2f9539)" d="M 182.536661 180.916624 
L 195.25459 172.218161 
L 217.859995 177.220164 
L 205.287665 186.014252 
z
" style="fill:#74081d;fill-opacity:0.8;"/>
    <path clip-path="url(#p1d3a2f9539)" d="M 182.538561 180.645438 
L 205.292024 185.742121 
L 217.865652 176.949667 
L 195.257821 171.948602 
z
" style="fill:#a30a29;fill-opacity:0.8;"/>
    <path clip-path="url(#p1d3a2f9539)" d="M 205.287665 186.014252 
L 217.859995 177.220164 
L 217.865652 176.949667 
L 205.292024 185.742121 
z
" style="fill:#5d0618;fill-opacity:0.8;"/>
    <path clip-path="url(#p1d3a2f9539)" d="M 182.536661 180.916624 
L 205.287665 186.014252 
L 205.292024 185.742121 
L 182.538561 180.645438 
z
" style="fill:#ba0c2f;fill-opacity:0.8;"/>
   </g>
   <g id="Poly3DCollection_8">
    <path clip-path="url(#p1d3a2f9539)" d="M 124.530436 179.560191 
L 124.526227 179.294876 
L 146.92703 184.376607 
L 146.928907 184.642847 
z
" style="fill:#5d0618;fill-opacity:0.8;"/>
    <path clip-path="url(#p1d3a2f9539)" d="M 111.033284 188.399195 
L 111.027609 188.132276 
L 124.526227 179.294876 
L 124.530436 179.560191 
z
" style="fill:#ba0c2f;fill-opacity:0.8;"/>
    <path clip-path="url(#p1d3a2f9539)" d="M 111.033284 188.399195 
L 124.530436 179.560191 
L 146.928907 184.642847 
L 133.572221 193.57981 
z
" style="fill:#74081d;fill-opacity:0.8;"/>
    <path clip-path="url(#p1d3a2f9539)" d="M 111.027609 188.132276 
L 133.568908 193.311958 
L 146.92703 184.376607 
L 124.526227 179.294876 
z
" style="fill:#a30a29;fill-opacity:0.8;"/>
    <path clip-path="url(#p1d3a2f9539)" d="M 133.572221 193.57981 
L 146.928907 184.642847 
L 146.92703 184.376607 
L 133.568908 193.311958 
z
" style="fill:#5d0618;fill-opacity:0.8;"/>
    <path clip-path="url(#p1d3a2f9539)" d="M 111.033284 188.399195 
L 133.572221 193.57981 
L 133.568908 193.311958 
L 111.027609 188.132276 
z
" style="fill:#ba0c2f;fill-opacity:0.8;"/>
   </g>
   <g id="Poly3DCollection_9">
    <path clip-path="url(#p1d3a2f9539)" d="M 240.713406 182.277044 
L 240.723035 181.955824 
L 263.831554 187.067369 
L 263.818926 187.38971 
z
" style="fill:#5d0618;fill-opacity:0.8;"/>
    <path clip-path="url(#p1d3a2f9539)" d="M 228.290667 191.168343 
L 228.298798 190.845179 
L 240.723035 181.955824 
L 240.713406 182.277044 
z
" style="fill:#ba0c2f;fill-opacity:0.8;"/>
    <path clip-path="url(#p1d3a2f9539)" d="M 228.290667 191.168343 
L 240.713406 182.277044 
L 263.818926 187.38971 
L 251.549877 196.37984 
z
" style="fill:#74081d;fill-opacity:0.8;"/>
    <path clip-path="url(#p1d3a2f9539)" d="M 228.298798 190.845179 
L 251.561047 196.055547 
L 263.831554 187.067369 
L 240.723035 181.955824 
z
" style="fill:#a30a29;fill-opacity:0.8;"/>
    <path clip-path="url(#p1d3a2f9539)" d="M 251.549877 196.37984 
L 263.818926 187.38971 
L 263.831554 187.067369 
L 251.561047 196.055547 
z
" style="fill:#5d0618;fill-opacity:0.8;"/>
    <path clip-path="url(#p1d3a2f9539)" d="M 228.290667 191.168343 
L 251.549877 196.37984 
L 251.561047 196.055547 
L 228.298798 190.845179 
z
" style="fill:#ba0c2f;fill-opacity:0.8;"/>
   </g>
   <g id="Poly3DCollection_10">
    <path clip-path="url(#p1d3a2f9539)" d="M 169.575102 189.781717 
L 169.575171 189.745713 
L 192.473553 194.941608 
L 192.473156 194.977739 
z
" style="fill:#5d0618;fill-opacity:0.8;"/>
    <path clip-path="url(#p1d3a2f9539)" d="M 156.362847 198.818276 
L 156.362726 198.782053 
L 169.575171 189.745713 
L 169.575102 189.781717 
z
" style="fill:#ba0c2f;fill-opacity:0.8;"/>
    <path clip-path="url(#p1d3a2f9539)" d="M 156.362847 198.818276 
L 169.575102 189.781717 
L 192.473156 194.977739 
L 179.409402 204.115568 
z
" style="fill:#74081d;fill-opacity:0.8;"/>
    <path clip-path="url(#p1d3a2f9539)" d="M 156.362726 198.782053 
L 179.409614 204.079218 
L 192.473553 194.941608 
L 169.575171 189.745713 
z
" style="fill:#a30a29;fill-opacity:0.8;"/>
    <path clip-path="url(#p1d3a2f9539)" d="M 179.409402 204.115568 
L 192.473156 194.977739 
L 192.473553 194.941608 
L 179.409614 204.079218 
z
" style="fill:#5d0618;fill-opacity:0.8;"/>
    <path clip-path="url(#p1d3a2f9539)" d="M 156.362847 198.818276 
L 179.409402 204.115568 
L 179.409614 204.079218 
L 156.362726 198.782053 
z
" style="fill:#ba0c2f;fill-opacity:0.8;"/>
   </g>
   <g id="Poly3DCollection_11">
    <path clip-path="url(#p1d3a2f9539)" d="M 97.275465 197.408905 
L 97.27977 197.569521 
L 119.959009 202.851516 
L 119.956134 202.690337 
z
" style="fill:#ba0c2f;fill-opacity:0.8;"/>
    <path clip-path="url(#p1d3a2f9539)" d="M 83.249354 206.594312 
L 83.254604 206.755904 
L 97.27977 197.569521 
L 97.275465 197.408905 
z
" style="fill:#5d0618;fill-opacity:0.8;"/>
    <path clip-path="url(#p1d3a2f9539)" d="M 83.254604 206.755904 
L 106.076819 212.141692 
L 119.959009 202.851516 
L 97.27977 197.569521 
z
" style="fill:#a30a29;fill-opacity:0.8;"/>
    <path clip-path="url(#p1d3a2f9539)" d="M 83.249354 206.594312 
L 97.275465 197.408905 
L 119.956134 202.690337 
L 106.073018 211.979535 
z
" style="fill:#74081d;fill-opacity:0.8;"/>
    <path clip-path="url(#p1d3a2f9539)" d="M 106.073018 211.979535 
L 119.956134 202.690337 
L 119.959009 202.851516 
L 106.076819 212.141692 
z
" style="fill:#ba0c2f;fill-opacity:0.8;"/>
    <path clip-path="url(#p1d3a2f9539)" d="M 83.249354 206.594312 
L 106.073018 211.979535 
L 106.076819 212.141692 
L 83.254604 206.755904 
z
" style="fill:#5d0618;fill-opacity:0.8;"/>
   </g>
   <g id="Poly3DCollection_12">
    <path clip-path="url(#p1d3a2f9539)" d="M 215.627292 200.231871 
L 215.624884 200.350979 
L 239.038295 205.664618 
L 239.041832 205.545093 
z
" style="fill:#ba0c2f;fill-opacity:0.8;"/>
    <path clip-path="url(#p1d3a2f9539)" d="M 202.716222 209.472682 
L 202.714408 209.592513 
L 215.624884 200.350979 
L 215.627292 200.231871 
z
" style="fill:#5d0618;fill-opacity:0.8;"/>
    <path clip-path="url(#p1d3a2f9539)" d="M 202.714408 209.592513 
L 226.284782 215.010888 
L 239.038295 205.664618 
L 215.624884 200.350979 
z
" style="fill:#a30a29;fill-opacity:0.8;"/>
    <path clip-path="url(#p1d3a2f9539)" d="M 202.716222 209.472682 
L 215.627292 200.231871 
L 239.041832 205.545093 
L 226.28774 214.890637 
z
" style="fill:#74081d;fill-opacity:0.8;"/>
    <path clip-path="url(#p1d3a2f9539)" d="M 226.28774 214.890637 
L 239.041832 205.545093 
L 239.038295 205.664618 
L 226.284782 215.010888 
z
" style="fill:#ba0c2f;fill-opacity:0.8;"/>
    <path clip-path="url(#p1d3a2f9539)" d="M 202.716222 209.472682 
L 226.28774 214.890637 
L 226.284782 215.010888 
L 202.714408 209.592513 
z
" style="fill:#5d0618;fill-opacity:0.8;"/>
   </g>
   <g id="Poly3DCollection_13">
    <path clip-path="url(#p1d3a2f9539)" d="M 142.89255 208.031323 
L 142.90122 209.025184 
L 166.088534 214.430216 
L 166.089061 213.432875 
z
" style="fill:#ba0c2f;fill-opacity:0.8;"/>
    <path clip-path="url(#p1d3a2f9539)" d="M 129.156577 217.42608 
L 129.17083 218.425978 
L 142.90122 209.025184 
L 142.89255 208.031323 
z
" style="fill:#5d0618;fill-opacity:0.8;"/>
    <path clip-path="url(#p1d3a2f9539)" d="M 129.17083 218.425978 
L 152.509433 223.938404 
L 166.088534 214.430216 
L 142.90122 209.025184 
z
" style="fill:#a30a29;fill-opacity:0.8;"/>
    <path clip-path="url(#p1d3a2f9539)" d="M 129.156577 217.42608 
L 142.89255 208.031323 
L 166.089061 213.432875 
L 152.504496 222.935 
z
" style="fill:#74081d;fill-opacity:0.8;"/>
    <path clip-path="url(#p1d3a2f9539)" d="M 152.504496 222.935 
L 166.089061 213.432875 
L 166.088534 214.430216 
L 152.509433 223.938404 
z
" style="fill:#ba0c2f;fill-opacity:0.8;"/>
    <path clip-path="url(#p1d3a2f9539)" d="M 129.156577 217.42608 
L 152.504496 222.935 
L 152.509433 223.938404 
L 129.17083 218.425978 
z
" style="fill:#5d0618;fill-opacity:0.8;"/>
   </g>
   <g id="Poly3DCollection_14">
    <path clip-path="url(#p1d3a2f9539)" d="M 252.902303 173.553112 
L 264.8639 164.991865 
L 287.666926 169.915119 
L 275.855766 178.569731 
z
" style="fill:#74081d;fill-opacity:0.8;"/>
    <path clip-path="url(#p1d3a2f9539)" d="M 264.8639 164.991865 
L 269.853873 37.832394 
L 293.828503 42.279736 
L 287.666926 169.915119 
z
" style="fill:#5d0618;fill-opacity:0.8;"/>
    <path clip-path="url(#p1d3a2f9539)" d="M 252.902303 173.553112 
L 257.339398 45.567601 
L 269.853873 37.832394 
L 264.8639 164.991865 
z
" style="fill:#ba0c2f;fill-opacity:0.8;"/>
    <path clip-path="url(#p1d3a2f9539)" d="M 275.855766 178.569731 
L 287.666926 169.915119 
L 293.828503 42.279736 
L 281.480557 50.103563 
z
" style="fill:#5d0618;fill-opacity:0.8;"/>
    <path clip-path="url(#p1d3a2f9539)" d="M 252.902303 173.553112 
L 275.855766 178.569731 
L 281.480557 50.103563 
L 257.339398 45.567601 
z
" style="fill:#ba0c2f;fill-opacity:0.8;"/>
    <path clip-path="url(#p1d3a2f9539)" d="M 257.339398 45.567601 
L 281.480557 50.103563 
L 293.828503 42.279736 
L 269.853873 37.832394 
z
" style="fill:#a30a29;fill-opacity:0.8;"/>
   </g>
   <g id="Poly3DCollection_15">
    <path clip-path="url(#p1d3a2f9539)" d="M 25.525331 197.347295 
L 203.752043 239.595853 
L 299.769551 168.648623 
L 130.040444 132.158513 
z
" style="fill-opacity:0.15;"/>
   </g>
   <g id="Poly3DCollection_16">
    <path clip-path="url(#p1d3a2f9539)" d="M 38.364354 196.003738 
L 52.664441 187.020758 
L 74.846287 192.186035 
L 60.681222 201.269382 
z
" style="fill:#74081d;fill-opacity:0.8;"/>
    <path clip-path="url(#p1d3a2f9539)" d="M 52.664441 187.020758 
L 46.990606 59.037663 
L 70.268607 63.720204 
L 74.846287 192.186035 
z
" style="fill:#5d0618;fill-opacity:0.8;"/>
    <path clip-path="url(#p1d3a2f9539)" d="M 38.364354 196.003738 
L 31.901921 67.182803 
L 46.990606 59.037663 
L 52.664441 187.020758 
z
" style="fill:#ba0c2f;fill-opacity:0.8;"/>
    <path clip-path="url(#p1d3a2f9539)" d="M 60.681222 201.269382 
L 74.846287 192.186035 
L 70.268607 63.720204 
L 55.328421 71.961021 
z
" style="fill:#5d0618;fill-opacity:0.8;"/>
    <path clip-path="url(#p1d3a2f9539)" d="M 38.364354 196.003738 
L 60.681222 201.269382 
L 55.328421 71.961021 
L 31.901921 67.182803 
z
" style="fill:#ba0c2f;fill-opacity:0.8;"/>
    <path clip-path="url(#p1d3a2f9539)" d="M 31.901921 67.182803 
L 55.328421 71.961021 
L 70.268607 63.720204 
L 46.990606 59.037663 
z
" style="fill:#a30a29;fill-opacity:0.8;"/>
   </g>
   <g id="Poly3DCollection_17">
    <path clip-path="url(#p1d3a2f9539)" d="M 176.121344 228.507373 
L 189.550117 218.896028 
L 213.280269 224.421844 
L 200.011793 234.144303 
z
" style="fill:#74081d;fill-opacity:0.8;"/>
    <path clip-path="url(#p1d3a2f9539)" d="M 189.550117 218.896028 
L 190.485773 124.625513 
L 215.122788 129.800032 
L 213.280269 224.421844 
z
" style="fill:#5d0618;fill-opacity:0.8;"/>
    <path clip-path="url(#p1d3a2f9539)" d="M 176.121344 228.507373 
L 176.554421 133.627271 
L 190.485773 124.625513 
L 189.550117 218.896028 
z
" style="fill:#ba0c2f;fill-opacity:0.8;"/>
    <path clip-path="url(#p1d3a2f9539)" d="M 200.011793 234.144303 
L 213.280269 224.421844 
L 215.122788 129.800032 
L 201.364308 138.909842 
z
" style="fill:#5d0618;fill-opacity:0.8;"/>
    <path clip-path="url(#p1d3a2f9539)" d="M 176.121344 228.507373 
L 200.011793 234.144303 
L 201.364308 138.909842 
L 176.554421 133.627271 
z
" style="fill:#ba0c2f;fill-opacity:0.8;"/>
    <path clip-path="url(#p1d3a2f9539)" d="M 176.554421 133.627271 
L 201.364308 138.909842 
L 215.122788 129.800032 
L 190.485773 124.625513 
z
" style="fill:#a30a29;fill-opacity:0.8;"/>
   </g>
  </g>
  <g id="patch_6">
   <path d="M 425.945455 262.8 
L 806.4 262.8 
L 806.4 -14.4 
L 425.945455 -14.4 
z
" style="fill:#ffffff;"/>
  </g>
  <g id="pane3d_4">
   <g id="patch_7">
    <path d="M 476.380584 201.548569 
L 585.268665 133.58541 
L 583.455794 3.718968 
L 468.496488 64.782468 
" style="fill:#f2f2f2;opacity:0.5;stroke:#f2f2f2;stroke-linejoin:miter;"/>
   </g>
  </g>
  <g id="pane3d_5">
   <g id="patch_8">
    <path d="M 585.268665 133.58541 
L 761.65712 171.581202 
L 769.037001 37.79869 
L 583.455794 3.718968 
" style="fill:#e6e6e6;opacity:0.5;stroke:#e6e6e6;stroke-linejoin:miter;"/>
   </g>
  </g>
  <g id="pane3d_6">
   <g id="patch_9">
    <path d="M 476.380584 201.548569 
L 661.965072 245.80086 
L 761.65712 171.581202 
L 585.268665 133.58541 
" style="fill:#ececec;opacity:0.5;stroke:#ececec;stroke-linejoin:miter;"/>
   </g>
  </g>
  <g id="axis3d_4">
   <g id="line2d_15">
    <path d="M 476.380584 201.548569 
L 661.965072 245.80086 
" style="fill:none;stroke:#000000;stroke-linecap:square;stroke-width:0.8;"/>
   </g>
   <g id="Line3DCollection_4">
    <path d="M 498.841271 206.90428 
L 606.679397 138.19749 
L 605.9393 7.847789 
" style="fill:none;stroke:#b0b0b0;stroke-width:0.8;"/>
    <path d="M 544.057792 217.686079 
L 649.729469 147.470895 
L 651.182353 16.156123 
" style="fill:none;stroke:#b0b0b0;stroke-width:0.8;"/>
    <path d="M 590.310744 228.715013 
L 693.693551 156.941187 
L 697.435637 24.649974 
" style="fill:none;stroke:#b0b0b0;stroke-width:0.8;"/>
    <path d="M 637.636176 239.999678 
L 738.601063 166.614702 
L 744.733372 33.335625 
" style="fill:none;stroke:#b0b0b0;stroke-width:0.8;"/>
   </g>
   <g id="xtick_12">
    <g id="line2d_16">
     <path d="M 499.770538 206.312217 
L 496.979262 208.09062 
" style="fill:none;stroke:#000000;stroke-linecap:square;stroke-width:0.8;"/>
    </g>
    <g id="text_13">
     <!-- 00 -->
     <g transform="translate(479.875817 237.14703)rotate(-45)scale(0.14 -0.14)">
      <use transform="scale(0.996264)" xlink:href="#CMR17-48"/>
      <use transform="translate(45.690477 0)scale(0.996264)" xlink:href="#CMR17-48"/>
     </g>
    </g>
   </g>
   <g id="xtick_13">
    <g id="line2d_17">
     <path d="M 544.969128 217.080527 
L 542.231671 218.899473 
" style="fill:none;stroke:#000000;stroke-linecap:square;stroke-width:0.8;"/>
    </g>
    <g id="text_14">
     <!-- 01 -->
     <g transform="translate(525.088242 248.103782)rotate(-45)scale(0.14 -0.14)">
      <use transform="scale(0.996264)" xlink:href="#CMR17-48"/>
      <use transform="translate(45.690477 0)scale(0.996264)" xlink:href="#CMR17-49"/>
     </g>
    </g>
   </g>
   <g id="xtick_14">
    <g id="line2d_18">
     <path d="M 591.20308 228.095506 
L 588.522658 229.956397 
" style="fill:none;stroke:#000000;stroke-linecap:square;stroke-width:0.8;"/>
    </g>
    <g id="text_15">
     <!-- 10 -->
     <g transform="translate(571.338855 259.312128)rotate(-45)scale(0.14 -0.14)">
      <use transform="scale(0.996264)" xlink:href="#CMR17-49"/>
      <use transform="translate(45.690477 0)scale(0.996264)" xlink:href="#CMR17-48"/>
     </g>
    </g>
   </g>
   <g id="xtick_15">
    <g id="line2d_19">
     <path d="M 638.50838 239.365727 
L 635.888391 241.270032 
" style="fill:none;stroke:#000000;stroke-linecap:square;stroke-width:0.8;"/>
    </g>
    <g id="text_16">
     <!-- 11 -->
     <g transform="translate(618.66383 270.780834)rotate(-45)scale(0.14 -0.14)">
      <use transform="scale(0.996264)" xlink:href="#CMR17-49"/>
      <use transform="translate(45.690477 0)scale(0.996264)" xlink:href="#CMR17-49"/>
     </g>
    </g>
   </g>
  </g>
  <g id="axis3d_5">
   <g id="line2d_20">
    <path d="M 761.65712 171.581202 
L 661.965072 245.80086 
" style="fill:none;stroke:#000000;stroke-linecap:square;stroke-width:0.8;"/>
   </g>
   <g id="Line3DCollection_5">
    <path d="M 484.000685 56.547028 
L 491.016499 192.413474 
L 675.403872 235.795817 
" style="fill:none;stroke:#b0b0b0;stroke-width:0.8;"/>
    <path d="M 513.777478 40.730342 
L 519.168861 174.842005 
L 701.219492 216.576366 
" style="fill:none;stroke:#b0b0b0;stroke-width:0.8;"/>
    <path d="M 542.401344 25.526062 
L 546.284836 157.917404 
L 726.04244 198.095948 
" style="fill:none;stroke:#b0b0b0;stroke-width:0.8;"/>
    <path d="M 569.937971 10.899296 
L 572.420618 141.604597 
L 749.928893 180.312741 
" style="fill:none;stroke:#b0b0b0;stroke-width:0.8;"/>
   </g>
   <g id="xtick_16">
    <g id="line2d_21">
     <path d="M 673.861052 235.432825 
L 678.492943 236.522608 
" style="fill:none;stroke:#000000;stroke-linecap:square;stroke-width:0.8;"/>
    </g>
    <g id="text_17">
     <!-- 00 -->
     <g transform="translate(689.195824 248.348363)rotate(-337.5)scale(0.14 -0.14)">
      <use transform="scale(0.996264)" xlink:href="#CMR17-48"/>
      <use transform="translate(45.690477 0)scale(0.996264)" xlink:href="#CMR17-48"/>
     </g>
    </g>
   </g>
   <g id="xtick_17">
    <g id="line2d_22">
     <path d="M 699.697534 216.227463 
L 704.266725 217.274932 
" style="fill:none;stroke:#000000;stroke-linecap:square;stroke-width:0.8;"/>
    </g>
    <g id="text_18">
     <!-- 01 -->
     <g transform="translate(714.749375 228.903937)rotate(-337.5)scale(0.14 -0.14)">
      <use transform="scale(0.996264)" xlink:href="#CMR17-48"/>
      <use transform="translate(45.690477 0)scale(0.996264)" xlink:href="#CMR17-49"/>
     </g>
    </g>
   </g>
   <g id="xtick_18">
    <g id="line2d_23">
     <path d="M 724.540896 197.76033 
L 729.048738 198.767901 
" style="fill:none;stroke:#000000;stroke-linecap:square;stroke-width:0.8;"/>
    </g>
    <g id="text_19">
     <!-- 10 -->
     <g transform="translate(739.320787 210.206849)rotate(-337.5)scale(0.14 -0.14)">
      <use transform="scale(0.996264)" xlink:href="#CMR17-49"/>
      <use transform="translate(45.690477 0)scale(0.996264)" xlink:href="#CMR17-48"/>
     </g>
    </g>
   </g>
   <g id="xtick_19">
    <g id="line2d_24">
     <path d="M 748.44732 179.989663 
L 752.895146 180.959573 
" style="fill:none;stroke:#000000;stroke-linecap:square;stroke-width:0.8;"/>
    </g>
    <g id="text_20">
     <!-- 11 -->
     <g transform="translate(762.965613 192.214827)rotate(-337.5)scale(0.14 -0.14)">
      <use transform="scale(0.996264)" xlink:href="#CMR17-49"/>
      <use transform="translate(45.690477 0)scale(0.996264)" xlink:href="#CMR17-49"/>
     </g>
    </g>
   </g>
  </g>
  <g id="axis3d_6">
   <g id="line2d_25">
    <path d="M 761.65712 171.581202 
L 769.037001 37.79869 
" style="fill:none;stroke:#000000;stroke-linecap:square;stroke-width:0.8;"/>
   </g>
   <g id="text_21">
    <!-- Im[$\rho$] -->
    <defs>
     <path d="M 19.703125 60.90625 
C 19.703125 65.390625 20.90625 65.390625 28.09375 65.390625 
L 28.09375 68 
C 24.90625 67.796875 19.796875 67.796875 16.40625 67.796875 
C 13 67.796875 7.90625 67.796875 4.703125 68 
L 4.703125 65.390625 
C 11.90625 65.390625 13.09375 65.390625 13.09375 60.90625 
L 13.09375 7.078125 
C 13.09375 2.59375 11.90625 2.59375 4.703125 2.59375 
L 4.703125 0 
C 7.90625 0.1875 13 0.1875 16.40625 0.1875 
C 19.796875 0.1875 24.90625 0.1875 28.09375 0 
L 28.09375 2.59375 
C 20.90625 2.59375 19.703125 2.59375 19.703125 7.078125 
z
" id="CMR17-73"/>
     <path d="M 67.59375 30.53125 
C 67.59375 35.5625 66.703125 44 54.796875 44 
C 48 44 43.296875 39.375 41.5 33.953125 
L 41.40625 33.953125 
C 40.203125 42.1875 34.296875 44 28.703125 44 
C 20.796875 44 16.703125 37.875 15.203125 33.84375 
L 15.09375 33.84375 
L 15.09375 44 
L 3.296875 42.890625 
L 3.296875 40.28125 
C 9.203125 40.28125 10.09375 39.6875 10.09375 34.859375 
L 10.09375 6.921875 
C 10.09375 3.09375 9.703125 2.59375 3.296875 2.59375 
L 3.296875 0 
C 5.703125 0.1875 10.09375 0.1875 12.703125 0.1875 
C 15.296875 0.1875 19.796875 0.1875 22.203125 0 
L 22.203125 2.59375 
C 15.796875 2.59375 15.40625 3 15.40625 6.921875 
L 15.40625 26.21875 
C 15.40625 35.453125 21 42.390625 28 42.390625 
C 35.40625 42.390625 36.203125 35.765625 36.203125 30.9375 
L 36.203125 6.921875 
C 36.203125 3.09375 35.796875 2.59375 29.40625 2.59375 
L 29.40625 0 
C 31.796875 0.1875 36.203125 0.1875 38.796875 0.1875 
C 41.40625 0.1875 45.90625 0.1875 48.296875 0 
L 48.296875 2.59375 
C 41.90625 2.59375 41.5 3 41.5 6.921875 
L 41.5 26.21875 
C 41.5 35.453125 47.09375 42.390625 54.09375 42.390625 
C 61.5 42.390625 62.296875 35.765625 62.296875 30.9375 
L 62.296875 6.921875 
C 62.296875 3.09375 61.90625 2.59375 55.5 2.59375 
L 55.5 0 
C 57.90625 0.1875 62.296875 0.1875 64.90625 0.1875 
C 67.5 0.1875 72 0.1875 74.40625 0 
L 74.40625 2.59375 
C 68 2.59375 67.59375 3 67.59375 6.921875 
z
" id="CMR17-109"/>
    </defs>
    <g transform="translate(809.026865 118.025317)rotate(-86.842577)scale(0.14 -0.14)">
     <use transform="scale(0.996264)" xlink:href="#CMR17-73"/>
     <use transform="translate(32.638409 0)scale(0.996264)" xlink:href="#CMR17-109"/>
     <use transform="translate(109.557999 0)scale(0.996264)" xlink:href="#CMR17-91"/>
     <use transform="translate(134.429058 0)scale(0.996264)" xlink:href="#CMMI12-26"/>
     <use transform="translate(184.74343 0)scale(0.996264)" xlink:href="#CMR17-93"/>
    </g>
   </g>
   <g id="Line3DCollection_6">
    <path d="M 761.88524 167.445844 
L 585.212509 129.562619 
L 476.137284 197.328032 
" style="fill:none;stroke:#b0b0b0;stroke-width:0.8;"/>
    <path d="M 764.595656 118.311402 
L 584.545866 81.807114 
L 473.24453 147.147164 
" style="fill:none;stroke:#b0b0b0;stroke-width:0.8;"/>
    <path d="M 767.41265 67.244941 
L 583.854139 32.25474 
L 470.234151 94.925857 
" style="fill:none;stroke:#b0b0b0;stroke-width:0.8;"/>
   </g>
   <g id="xtick_20">
    <g id="line2d_26">
     <path d="M 760.41112 167.129754 
L 764.836547 168.078681 
" style="fill:none;stroke:#000000;stroke-linecap:square;stroke-width:0.8;"/>
    </g>
    <g id="text_22">
     <!-- $0.0$ -->
     <g transform="translate(771.699094 175.192983)scale(0.14 -0.14)">
      <use transform="scale(0.996264)" xlink:href="#CMR17-48"/>
      <use transform="translate(45.690477 0)scale(0.996264)" xlink:href="#CMMI12-58"/>
      <use transform="translate(72.787654 0)scale(0.996264)" xlink:href="#CMR17-48"/>
     </g>
    </g>
   </g>
   <g id="xtick_21">
    <g id="line2d_27">
     <path d="M 763.092166 118.006576 
L 767.605826 118.9217 
" style="fill:none;stroke:#000000;stroke-linecap:square;stroke-width:0.8;"/>
    </g>
    <g id="text_23">
     <!-- $0.2$ -->
     <g transform="translate(774.760326 126.127691)scale(0.14 -0.14)">
      <use transform="scale(0.996264)" xlink:href="#CMR17-48"/>
      <use transform="translate(45.690477 0)scale(0.996264)" xlink:href="#CMMI12-58"/>
      <use transform="translate(72.787654 0)scale(0.996264)" xlink:href="#CMR17-50"/>
     </g>
    </g>
   </g>
   <g id="xtick_22">
    <g id="line2d_28">
     <path d="M 765.878596 66.952517 
L 770.484075 67.830421 
" style="fill:none;stroke:#000000;stroke-linecap:square;stroke-width:0.8;"/>
    </g>
    <g id="text_24">
     <!-- $0.4$ -->
     <g transform="translate(777.941663 75.137361)scale(0.14 -0.14)">
      <use transform="scale(0.996264)" xlink:href="#CMR17-48"/>
      <use transform="translate(45.690477 0)scale(0.996264)" xlink:href="#CMMI12-58"/>
      <use transform="translate(72.787654 0)scale(0.996264)" xlink:href="#CMR17-52"/>
     </g>
    </g>
   </g>
  </g>
  <g id="axes_2">
   <g id="Poly3DCollection_18">
    <path clip-path="url(#p0b455da887)" d="M 589.578074 135.921268 
L 589.582848 136.309298 
L 610.979443 140.927741 
L 610.97788 140.538375 
z
" style="fill:#0cba97;fill-opacity:0.8;"/>
    <path clip-path="url(#p0b455da887)" d="M 576.789509 143.949147 
L 576.796267 144.339495 
L 589.582848 136.309298 
L 589.578074 135.921268 
z
" style="fill:#065d4c;fill-opacity:0.8;"/>
    <path clip-path="url(#p0b455da887)" d="M 576.796267 144.339495 
L 598.321284 149.042745 
L 610.979443 140.927741 
L 589.582848 136.309298 
z
" style="fill:#0aa384;fill-opacity:0.8;"/>
    <path clip-path="url(#p0b455da887)" d="M 576.789509 143.949147 
L 589.578074 135.921268 
L 610.97788 140.538375 
L 598.317775 148.651049 
z
" style="fill:#08745e;fill-opacity:0.8;"/>
    <path clip-path="url(#p0b455da887)" d="M 598.317775 148.651049 
L 610.97788 140.538375 
L 610.979443 140.927741 
L 598.321284 149.042745 
z
" style="fill:#0cba97;fill-opacity:0.8;"/>
    <path clip-path="url(#p0b455da887)" d="M 576.789509 143.949147 
L 598.317775 148.651049 
L 598.321284 149.042745 
L 576.796267 144.339495 
z
" style="fill:#065d4c;fill-opacity:0.8;"/>
   </g>
   <g id="Poly3DCollection_19">
    <path clip-path="url(#p0b455da887)" d="M 632.603284 145.204156 
L 632.603472 145.161252 
L 654.458429 149.876333 
L 654.457873 149.919385 
z
" style="fill:#065d4c;fill-opacity:0.8;"/>
    <path clip-path="url(#p0b455da887)" d="M 620.075085 153.402976 
L 620.075064 153.359815 
L 632.603472 145.161252 
L 632.603284 145.204156 
z
" style="fill:#0cba97;fill-opacity:0.8;"/>
    <path clip-path="url(#p0b455da887)" d="M 620.075085 153.402976 
L 632.603284 145.204156 
L 654.457873 149.919385 
L 642.065113 158.20573 
z
" style="fill:#08745e;fill-opacity:0.8;"/>
    <path clip-path="url(#p0b455da887)" d="M 620.075064 153.359815 
L 642.065465 158.162419 
L 654.458429 149.876333 
L 632.603472 145.161252 
z
" style="fill:#0aa384;fill-opacity:0.8;"/>
    <path clip-path="url(#p0b455da887)" d="M 642.065113 158.20573 
L 654.457873 149.919385 
L 654.458429 149.876333 
L 642.065465 158.162419 
z
" style="fill:#065d4c;fill-opacity:0.8;"/>
    <path clip-path="url(#p0b455da887)" d="M 620.075085 153.402976 
L 642.065113 158.20573 
L 642.065465 158.162419 
L 620.075064 153.359815 
z
" style="fill:#0cba97;fill-opacity:0.8;"/>
   </g>
   <g id="Poly3DCollection_20">
    <path clip-path="url(#p0b455da887)" d="M 563.765615 152.12475 
L 563.752347 151.533704 
L 585.415143 156.320712 
L 585.423462 156.913805 
z
" style="fill:#065d4c;fill-opacity:0.8;"/>
    <path clip-path="url(#p0b455da887)" d="M 550.499839 160.452192 
L 550.483361 159.857595 
L 563.752347 151.533704 
L 563.765615 152.12475 
z
" style="fill:#0cba97;fill-opacity:0.8;"/>
    <path clip-path="url(#p0b455da887)" d="M 550.499839 160.452192 
L 563.765615 152.12475 
L 585.423462 156.913805 
L 572.288381 165.330846 
z
" style="fill:#08745e;fill-opacity:0.8;"/>
    <path clip-path="url(#p0b455da887)" d="M 550.483361 159.857595 
L 572.276912 164.734184 
L 585.415143 156.320712 
L 563.752347 151.533704 
z
" style="fill:#0aa384;fill-opacity:0.8;"/>
    <path clip-path="url(#p0b455da887)" d="M 572.288381 165.330846 
L 585.423462 156.913805 
L 585.415143 156.320712 
L 572.276912 164.734184 
z
" style="fill:#065d4c;fill-opacity:0.8;"/>
    <path clip-path="url(#p0b455da887)" d="M 550.499839 160.452192 
L 572.288381 165.330846 
L 572.276912 164.734184 
L 550.483361 159.857595 
z
" style="fill:#0cba97;fill-opacity:0.8;"/>
   </g>
   <g id="Poly3DCollection_21">
    <path clip-path="url(#p0b455da887)" d="M 676.545309 154.684851 
L 676.559989 154.004142 
L 698.890058 158.818294 
L 698.869333 159.501363 
z
" style="fill:#065d4c;fill-opacity:0.8;"/>
    <path clip-path="url(#p0b455da887)" d="M 664.291614 163.060131 
L 664.303144 162.375327 
L 676.559989 154.004142 
L 676.545309 154.684851 
z
" style="fill:#0cba97;fill-opacity:0.8;"/>
    <path clip-path="url(#p0b455da887)" d="M 664.291614 163.060131 
L 676.545309 154.684851 
L 698.869333 159.501363 
L 686.758422 167.967016 
z
" style="fill:#08745e;fill-opacity:0.8;"/>
    <path clip-path="url(#p0b455da887)" d="M 664.303144 162.375327 
L 686.776074 167.279833 
L 698.890058 158.818294 
L 676.559989 154.004142 
z
" style="fill:#0aa384;fill-opacity:0.8;"/>
    <path clip-path="url(#p0b455da887)" d="M 686.758422 167.967016 
L 698.869333 159.501363 
L 698.890058 158.818294 
L 686.776074 167.279833 
z
" style="fill:#065d4c;fill-opacity:0.8;"/>
    <path clip-path="url(#p0b455da887)" d="M 664.291614 163.060131 
L 686.758422 167.967016 
L 686.776074 167.279833 
L 664.303144 162.375327 
z
" style="fill:#0cba97;fill-opacity:0.8;"/>
   </g>
   <g id="Poly3DCollection_22">
    <path clip-path="url(#p0b455da887)" d="M 607.313874 161.754286 
L 607.312922 161.580648 
L 629.441172 166.472784 
L 629.440617 166.647025 
z
" style="fill:#065d4c;fill-opacity:0.8;"/>
    <path clip-path="url(#p0b455da887)" d="M 594.313089 170.262379 
L 594.311236 170.087695 
L 607.312922 161.580648 
L 607.313874 161.754286 
z
" style="fill:#0cba97;fill-opacity:0.8;"/>
    <path clip-path="url(#p0b455da887)" d="M 594.313089 170.262379 
L 607.313874 161.754286 
L 629.440617 166.647025 
L 616.577821 175.247656 
z
" style="fill:#08745e;fill-opacity:0.8;"/>
    <path clip-path="url(#p0b455da887)" d="M 594.311236 170.087695 
L 616.577495 175.072365 
L 629.441172 166.472784 
L 607.312922 161.580648 
z
" style="fill:#0aa384;fill-opacity:0.8;"/>
    <path clip-path="url(#p0b455da887)" d="M 616.577821 175.247656 
L 629.440617 166.647025 
L 629.441172 166.472784 
L 616.577495 175.072365 
z
" style="fill:#065d4c;fill-opacity:0.8;"/>
    <path clip-path="url(#p0b455da887)" d="M 594.313089 170.262379 
L 616.577821 175.247656 
L 616.577495 175.072365 
L 594.311236 170.087695 
z
" style="fill:#0cba97;fill-opacity:0.8;"/>
   </g>
   <g id="Poly3DCollection_23">
    <path clip-path="url(#p0b455da887)" d="M 721.433768 164.369744 
L 721.433768 164.369744 
L 744.242518 169.290837 
L 744.242518 169.290837 
z
" style="fill:#065d4c;fill-opacity:0.8;"/>
    <path clip-path="url(#p0b455da887)" d="M 709.469456 172.927242 
L 709.469456 172.927242 
L 721.433768 164.369744 
L 721.433768 164.369744 
z
" style="fill:#065d4c;fill-opacity:0.8;"/>
    <path clip-path="url(#p0b455da887)" d="M 709.469456 172.927242 
L 721.433768 164.369744 
L 744.242518 169.290837 
L 732.428719 177.941683 
z
" style="fill:#08745e;fill-opacity:0.8;"/>
    <path clip-path="url(#p0b455da887)" d="M 709.469456 172.927242 
L 732.428719 177.941683 
L 744.242518 169.290837 
L 721.433768 164.369744 
z
" style="fill:#0aa384;fill-opacity:0.8;"/>
    <path clip-path="url(#p0b455da887)" d="M 732.428719 177.941683 
L 744.242518 169.290837 
L 744.242518 169.290837 
L 732.428719 177.941683 
z
" style="fill:#065d4c;fill-opacity:0.8;"/>
    <path clip-path="url(#p0b455da887)" d="M 709.469456 172.927242 
L 732.428719 177.941683 
L 732.428719 177.941683 
L 709.469456 172.927242 
z
" style="fill:#065d4c;fill-opacity:0.8;"/>
   </g>
   <g id="Poly3DCollection_24">
    <path clip-path="url(#p0b455da887)" d="M 536.985377 168.935744 
L 537.038107 170.528244 
L 558.944962 175.504569 
L 558.905726 173.906535 
z
" style="fill:#0cba97;fill-opacity:0.8;"/>
    <path clip-path="url(#p0b455da887)" d="M 523.215171 177.579837 
L 523.277092 179.181938 
L 537.038107 170.528244 
L 536.985377 168.935744 
z
" style="fill:#065d4c;fill-opacity:0.8;"/>
    <path clip-path="url(#p0b455da887)" d="M 523.277092 179.181938 
L 545.316693 184.25308 
L 558.944962 175.504569 
L 537.038107 170.528244 
z
" style="fill:#0aa384;fill-opacity:0.8;"/>
    <path clip-path="url(#p0b455da887)" d="M 523.215171 177.579837 
L 536.985377 168.935744 
L 558.905726 173.906535 
L 545.268429 182.645399 
z
" style="fill:#08745e;fill-opacity:0.8;"/>
    <path clip-path="url(#p0b455da887)" d="M 545.268429 182.645399 
L 558.905726 173.906535 
L 558.944962 175.504569 
L 545.316693 184.25308 
z
" style="fill:#0cba97;fill-opacity:0.8;"/>
    <path clip-path="url(#p0b455da887)" d="M 523.215171 177.579837 
L 545.268429 182.645399 
L 545.316693 184.25308 
L 523.277092 179.181938 
z
" style="fill:#065d4c;fill-opacity:0.8;"/>
   </g>
   <g id="Poly3DCollection_25">
    <path clip-path="url(#p0b455da887)" d="M 651.807539 171.592873 
L 651.807539 171.592873 
L 674.418572 176.5927 
L 674.418572 176.5927 
z
" style="fill:#065d4c;fill-opacity:0.8;"/>
    <path clip-path="url(#p0b455da887)" d="M 639.086525 180.287561 
L 639.086525 180.287561 
L 651.807539 171.592873 
L 651.807539 171.592873 
z
" style="fill:#065d4c;fill-opacity:0.8;"/>
    <path clip-path="url(#p0b455da887)" d="M 639.086525 180.287561 
L 651.807539 171.592873 
L 674.418572 176.5927 
L 661.84323 185.382995 
z
" style="fill:#08745e;fill-opacity:0.8;"/>
    <path clip-path="url(#p0b455da887)" d="M 639.086525 180.287561 
L 661.84323 185.382995 
L 674.418572 176.5927 
L 651.807539 171.592873 
z
" style="fill:#0aa384;fill-opacity:0.8;"/>
    <path clip-path="url(#p0b455da887)" d="M 661.84323 185.382995 
L 674.418572 176.5927 
L 674.418572 176.5927 
L 661.84323 185.382995 
z
" style="fill:#065d4c;fill-opacity:0.8;"/>
    <path clip-path="url(#p0b455da887)" d="M 639.086525 180.287561 
L 661.84323 185.382995 
L 661.84323 185.382995 
L 639.086525 180.287561 
z
" style="fill:#065d4c;fill-opacity:0.8;"/>
   </g>
   <g id="Poly3DCollection_26">
    <path clip-path="url(#p0b455da887)" d="M 581.06592 178.931714 
L 581.06592 178.931714 
L 603.469916 184.01218 
L 603.469916 184.01218 
z
" style="fill:#065d4c;fill-opacity:0.8;"/>
    <path clip-path="url(#p0b455da887)" d="M 567.565295 187.766917 
L 567.565295 187.766917 
L 581.06592 178.931714 
L 581.06592 178.931714 
z
" style="fill:#065d4c;fill-opacity:0.8;"/>
    <path clip-path="url(#p0b455da887)" d="M 567.565295 187.766917 
L 581.06592 178.931714 
L 603.469916 184.01218 
L 590.109827 192.945324 
z
" style="fill:#08745e;fill-opacity:0.8;"/>
    <path clip-path="url(#p0b455da887)" d="M 567.565295 187.766917 
L 590.109827 192.945324 
L 603.469916 184.01218 
L 581.06592 178.931714 
z
" style="fill:#0aa384;fill-opacity:0.8;"/>
    <path clip-path="url(#p0b455da887)" d="M 590.109827 192.945324 
L 603.469916 184.01218 
L 603.469916 184.01218 
L 590.109827 192.945324 
z
" style="fill:#065d4c;fill-opacity:0.8;"/>
    <path clip-path="url(#p0b455da887)" d="M 567.565295 187.766917 
L 590.109827 192.945324 
L 590.109827 192.945324 
L 567.565295 187.766917 
z
" style="fill:#065d4c;fill-opacity:0.8;"/>
   </g>
   <g id="Poly3DCollection_27">
    <path clip-path="url(#p0b455da887)" d="M 697.277735 181.647394 
L 697.25695 182.340757 
L 720.361876 187.453644 
L 720.389134 186.757864 
z
" style="fill:#0cba97;fill-opacity:0.8;"/>
    <path clip-path="url(#p0b455da887)" d="M 684.85206 190.534882 
L 684.834509 191.23244 
L 697.25695 182.340757 
L 697.277735 181.647394 
z
" style="fill:#065d4c;fill-opacity:0.8;"/>
    <path clip-path="url(#p0b455da887)" d="M 684.834509 191.23244 
L 708.093116 196.444162 
L 720.361876 187.453644 
L 697.25695 182.340757 
z
" style="fill:#0aa384;fill-opacity:0.8;"/>
    <path clip-path="url(#p0b455da887)" d="M 684.85206 190.534882 
L 697.277735 181.647394 
L 720.389134 186.757864 
L 708.117228 195.744166 
z
" style="fill:#08745e;fill-opacity:0.8;"/>
    <path clip-path="url(#p0b455da887)" d="M 708.117228 195.744166 
L 720.389134 186.757864 
L 720.361876 187.453644 
L 708.093116 196.444162 
z
" style="fill:#0cba97;fill-opacity:0.8;"/>
    <path clip-path="url(#p0b455da887)" d="M 684.85206 190.534882 
L 708.117228 195.744166 
L 708.093116 196.444162 
L 684.834509 191.23244 
z
" style="fill:#065d4c;fill-opacity:0.8;"/>
   </g>
   <g id="Poly3DCollection_28">
    <path clip-path="url(#p0b455da887)" d="M 509.181891 186.38907 
L 509.181891 186.38907 
L 531.369154 191.552141 
L 531.369154 191.552141 
z
" style="fill:#065d4c;fill-opacity:0.8;"/>
    <path clip-path="url(#p0b455da887)" d="M 494.877927 195.368223 
L 494.877927 195.368223 
L 509.181891 186.38907 
L 509.181891 186.38907 
z
" style="fill:#065d4c;fill-opacity:0.8;"/>
    <path clip-path="url(#p0b455da887)" d="M 494.877927 195.368223 
L 509.181891 186.38907 
L 531.369154 191.552141 
L 517.200277 200.631645 
z
" style="fill:#08745e;fill-opacity:0.8;"/>
    <path clip-path="url(#p0b455da887)" d="M 494.877927 195.368223 
L 517.200277 200.631645 
L 531.369154 191.552141 
L 509.181891 186.38907 
z
" style="fill:#0aa384;fill-opacity:0.8;"/>
    <path clip-path="url(#p0b455da887)" d="M 517.200277 200.631645 
L 531.369154 191.552141 
L 531.369154 191.552141 
L 517.200277 200.631645 
z
" style="fill:#065d4c;fill-opacity:0.8;"/>
    <path clip-path="url(#p0b455da887)" d="M 494.877927 195.368223 
L 517.200277 200.631645 
L 517.200277 200.631645 
L 494.877927 195.368223 
z
" style="fill:#065d4c;fill-opacity:0.8;"/>
   </g>
   <g id="Poly3DCollection_29">
    <path clip-path="url(#p0b455da887)" d="M 626.121761 189.148849 
L 626.121424 189.325791 
L 649.023639 194.52022 
L 649.02559 194.342659 
z
" style="fill:#0cba97;fill-opacity:0.8;"/>
    <path clip-path="url(#p0b455da887)" d="M 612.906175 198.181571 
L 612.90677 198.359587 
L 626.121424 189.325791 
L 626.121761 189.148849 
z
" style="fill:#065d4c;fill-opacity:0.8;"/>
    <path clip-path="url(#p0b455da887)" d="M 612.90677 198.359587 
L 635.95754 203.655273 
L 649.023639 194.52022 
L 626.121424 189.325791 
z
" style="fill:#0aa384;fill-opacity:0.8;"/>
    <path clip-path="url(#p0b455da887)" d="M 612.906175 198.181571 
L 626.121761 189.148849 
L 649.02559 194.342659 
L 635.958581 203.476635 
z
" style="fill:#08745e;fill-opacity:0.8;"/>
    <path clip-path="url(#p0b455da887)" d="M 635.958581 203.476635 
L 649.02559 194.342659 
L 649.023639 194.52022 
L 635.95754 203.655273 
z
" style="fill:#0cba97;fill-opacity:0.8;"/>
    <path clip-path="url(#p0b455da887)" d="M 612.906175 198.181571 
L 635.958581 203.476635 
L 635.95754 203.655273 
L 612.90677 198.359587 
z
" style="fill:#065d4c;fill-opacity:0.8;"/>
   </g>
   <g id="Poly3DCollection_30">
    <path clip-path="url(#p0b455da887)" d="M 553.803871 196.772795 
L 553.760316 195.147645 
L 576.461125 200.421158 
L 576.490206 202.052002 
z
" style="fill:#065d4c;fill-opacity:0.8;"/>
    <path clip-path="url(#p0b455da887)" d="M 539.774017 205.954342 
L 539.720896 204.319313 
L 553.760316 195.147645 
L 553.803871 196.772795 
z
" style="fill:#0cba97;fill-opacity:0.8;"/>
    <path clip-path="url(#p0b455da887)" d="M 539.774017 205.954342 
L 553.803871 196.772795 
L 576.490206 202.052002 
L 562.603417 211.337322 
z
" style="fill:#08745e;fill-opacity:0.8;"/>
    <path clip-path="url(#p0b455da887)" d="M 539.720896 204.319313 
L 562.564952 209.696554 
L 576.461125 200.421158 
L 553.760316 195.147645 
z
" style="fill:#0aa384;fill-opacity:0.8;"/>
    <path clip-path="url(#p0b455da887)" d="M 562.603417 211.337322 
L 576.490206 202.052002 
L 576.461125 200.421158 
L 562.564952 209.696554 
z
" style="fill:#065d4c;fill-opacity:0.8;"/>
    <path clip-path="url(#p0b455da887)" d="M 539.774017 205.954342 
L 562.603417 211.337322 
L 562.564952 209.696554 
L 539.720896 204.319313 
z
" style="fill:#0cba97;fill-opacity:0.8;"/>
   </g>
   <g id="Poly3DCollection_31">
    <path clip-path="url(#p0b455da887)" d="M 672.185632 199.59457 
L 672.184731 199.639132 
L 695.604886 204.950279 
L 695.606209 204.905561 
z
" style="fill:#0cba97;fill-opacity:0.8;"/>
    <path clip-path="url(#p0b455da887)" d="M 659.271385 208.831511 
L 659.270706 208.876343 
L 672.184731 199.639132 
L 672.185632 199.59457 
z
" style="fill:#065d4c;fill-opacity:0.8;"/>
    <path clip-path="url(#p0b455da887)" d="M 659.270706 208.876343 
L 682.847916 214.292208 
L 695.604886 204.950279 
L 672.184731 199.639132 
z
" style="fill:#0aa384;fill-opacity:0.8;"/>
    <path clip-path="url(#p0b455da887)" d="M 659.271385 208.831511 
L 672.185632 199.59457 
L 695.606209 204.905561 
L 682.849022 214.247218 
z
" style="fill:#08745e;fill-opacity:0.8;"/>
    <path clip-path="url(#p0b455da887)" d="M 682.849022 214.247218 
L 695.606209 204.905561 
L 695.604886 204.950279 
L 682.847916 214.292208 
z
" style="fill:#0cba97;fill-opacity:0.8;"/>
    <path clip-path="url(#p0b455da887)" d="M 659.271385 208.831511 
L 682.849022 214.247218 
L 682.847916 214.292208 
L 659.270706 208.876343 
z
" style="fill:#065d4c;fill-opacity:0.8;"/>
   </g>
   <g id="Poly3DCollection_32">
    <path clip-path="url(#p0b455da887)" d="M 599.432416 207.390753 
L 599.437769 208.004405 
L 622.634529 213.405862 
L 622.634854 212.790059 
z
" style="fill:#0cba97;fill-opacity:0.8;"/>
    <path clip-path="url(#p0b455da887)" d="M 585.692845 216.781614 
L 585.701645 217.398998 
L 599.437769 208.004405 
L 599.432416 207.390753 
z
" style="fill:#065d4c;fill-opacity:0.8;"/>
    <path clip-path="url(#p0b455da887)" d="M 585.701645 217.398998 
L 609.049817 222.907823 
L 622.634529 213.405862 
L 599.437769 208.004405 
z
" style="fill:#0aa384;fill-opacity:0.8;"/>
    <path clip-path="url(#p0b455da887)" d="M 585.692845 216.781614 
L 599.432416 207.390753 
L 622.634854 212.790059 
L 609.046769 222.288272 
z
" style="fill:#08745e;fill-opacity:0.8;"/>
    <path clip-path="url(#p0b455da887)" d="M 609.046769 222.288272 
L 622.634854 212.790059 
L 622.634529 213.405862 
L 609.049817 222.907823 
z
" style="fill:#0cba97;fill-opacity:0.8;"/>
    <path clip-path="url(#p0b455da887)" d="M 585.692845 216.781614 
L 609.046769 222.288272 
L 609.049817 222.907823 
L 585.701645 217.398998 
z
" style="fill:#065d4c;fill-opacity:0.8;"/>
   </g>
   <g id="Poly3DCollection_33">
    <path clip-path="url(#p0b455da887)" d="M 646.101974 218.250958 
L 646.106052 217.84006 
L 669.846358 223.362168 
L 669.838329 223.774509 
z
" style="fill:#065d4c;fill-opacity:0.8;"/>
    <path clip-path="url(#p0b455da887)" d="M 632.669761 227.858374 
L 632.671648 227.444972 
L 646.106052 217.84006 
L 646.101974 218.250958 
z
" style="fill:#0cba97;fill-opacity:0.8;"/>
    <path clip-path="url(#p0b455da887)" d="M 632.669761 227.858374 
L 646.101974 218.250958 
L 669.838329 223.774509 
L 656.566497 233.493023 
z
" style="fill:#08745e;fill-opacity:0.8;"/>
    <path clip-path="url(#p0b455da887)" d="M 632.671648 227.444972 
L 656.572389 233.078167 
L 669.846358 223.362168 
L 646.106052 217.84006 
z
" style="fill:#0aa384;fill-opacity:0.8;"/>
    <path clip-path="url(#p0b455da887)" d="M 656.566497 233.493023 
L 669.838329 223.774509 
L 669.846358 223.362168 
L 656.572389 233.078167 
z
" style="fill:#065d4c;fill-opacity:0.8;"/>
    <path clip-path="url(#p0b455da887)" d="M 632.669761 227.858374 
L 656.566497 233.493023 
L 656.572389 233.078167 
L 632.671648 227.444972 
z
" style="fill:#0cba97;fill-opacity:0.8;"/>
   </g>
   <g id="Poly3DCollection_34">
    <path clip-path="url(#p0b455da887)" d="M 482.035616 196.711212 
L 660.307785 238.942383 
L 756.348065 168.024896 
L 586.577734 131.551134 
z
" style="fill-opacity:0.2;"/>
   </g>
  </g>
 </g>
 <defs>
  <clipPath id="p1d3a2f9539">
   <rect height="277.2" width="380.454545" x="-30.6" y="-14.4"/>
  </clipPath>
  <clipPath id="p0b455da887">
   <rect height="277.2" width="380.454545" x="425.945455" y="-14.4"/>
  </clipPath>
 </defs>
</svg>
