<?xml version="1.0" encoding="utf-8" standalone="no"?>
<!DOCTYPE svg PUBLIC "-//W3C//DTD SVG 1.1//EN"
  "http://www.w3.org/Graphics/SVG/1.1/DTD/svg11.dtd">
<!-- Created with matplotlib (https://matplotlib.org/) -->
<svg height="302.4pt" version="1.1" viewBox="0 0 820.8 302.4" width="820.8pt" xmlns="http://www.w3.org/2000/svg" xmlns:xlink="http://www.w3.org/1999/xlink">
 <defs>
  <style type="text/css">
*{stroke-linecap:butt;stroke-linejoin:round;}
  </style>
 </defs>
 <g id="figure_1">
  <g id="patch_1">
   <path d="M 0 302.4 
L 820.8 302.4 
L 820.8 0 
L 0 0 
z
" style="fill:#ffffff;"/>
  </g>
  <g id="patch_2">
   <path d="M -30.6 262.8 
L 349.854545 262.8 
L 349.854545 -14.4 
L -30.6 -14.4 
z
" style="fill:#ffffff;"/>
  </g>
  <g id="pane3d_1">
   <g id="patch_3">
    <path d="M 19.835129 201.548569 
L 128.723211 133.58541 
L 126.910339 3.718968 
L 11.951034 64.782468 
" style="fill:#f2f2f2;opacity:0.5;stroke:#f2f2f2;stroke-linejoin:miter;"/>
   </g>
  </g>
  <g id="pane3d_2">
   <g id="patch_4">
    <path d="M 128.723211 133.58541 
L 305.111665 171.581202 
L 312.491547 37.79869 
L 126.910339 3.718968 
" style="fill:#e6e6e6;opacity:0.5;stroke:#e6e6e6;stroke-linejoin:miter;"/>
   </g>
  </g>
  <g id="pane3d_3">
   <g id="patch_5">
    <path d="M 19.835129 201.548569 
L 205.419617 245.80086 
L 305.111665 171.581202 
L 128.723211 133.58541 
" style="fill:#ececec;opacity:0.5;stroke:#ececec;stroke-linejoin:miter;"/>
   </g>
  </g>
  <g id="axis3d_1">
   <g id="line2d_1">
    <path d="M 19.835129 201.548569 
L 205.419617 245.80086 
" style="fill:none;stroke:#000000;stroke-linecap:square;stroke-width:0.8;"/>
   </g>
   <g id="Line3DCollection_1">
    <path d="M 42.295817 206.90428 
L 150.133942 138.19749 
L 149.393845 7.847789 
" style="fill:none;stroke:#b0b0b0;stroke-width:0.8;"/>
    <path d="M 87.512337 217.686079 
L 193.184014 147.470895 
L 194.636898 16.156123 
" style="fill:none;stroke:#b0b0b0;stroke-width:0.8;"/>
    <path d="M 133.765289 228.715013 
L 237.148096 156.941187 
L 240.890183 24.649974 
" style="fill:none;stroke:#b0b0b0;stroke-width:0.8;"/>
    <path d="M 181.090721 239.999678 
L 282.055608 166.614702 
L 288.187917 33.335625 
" style="fill:none;stroke:#b0b0b0;stroke-width:0.8;"/>
   </g>
   <g id="xtick_1">
    <g id="line2d_2">
     <path d="M 43.225084 206.312217 
L 40.433807 208.09062 
" style="fill:none;stroke:#000000;stroke-linecap:square;stroke-width:0.8;"/>
    </g>
    <g id="text_1">
     <!-- 00 -->
     <defs>
      <path d="M 42 31.84375 
C 42 37.96875 41.90625 48.421875 37.703125 56.453125 
C 34 63.484375 28.09375 66 22.90625 66 
C 18.09375 66 12 63.78125 8.203125 56.5625 
C 4.203125 49.015625 3.796875 39.671875 3.796875 31.84375 
C 3.796875 26.109375 3.90625 17.375 7 9.734375 
C 11.296875 -0.609375 19 -2 22.90625 -2 
C 27.5 -2 34.5 -0.109375 38.59375 9.4375 
C 41.59375 16.375 42 24.5 42 31.84375 
z
M 22.90625 -0.40625 
C 16.5 -0.40625 12.703125 5.125 11.296875 12.75 
C 10.203125 18.6875 10.203125 27.328125 10.203125 32.953125 
C 10.203125 40.6875 10.203125 47.109375 11.5 53.234375 
C 13.40625 61.78125 19 64.390625 22.90625 64.390625 
C 27 64.390625 32.296875 61.671875 34.203125 53.4375 
C 35.5 47.71875 35.59375 40.984375 35.59375 32.953125 
C 35.59375 26.421875 35.59375 18.375 34.40625 12.453125 
C 32.296875 1.5 26.40625 -0.40625 22.90625 -0.40625 
z
" id="CMR17-48"/>
     </defs>
     <g transform="translate(23.330362 237.14703)rotate(-45)scale(0.14 -0.14)">
      <use transform="scale(0.996264)" xlink:href="#CMR17-48"/>
      <use transform="translate(45.690477 0)scale(0.996264)" xlink:href="#CMR17-48"/>
     </g>
    </g>
   </g>
   <g id="xtick_2">
    <g id="line2d_3">
     <path d="M 88.423674 217.080527 
L 85.686217 218.899473 
" style="fill:none;stroke:#000000;stroke-linecap:square;stroke-width:0.8;"/>
    </g>
    <g id="text_2">
     <!-- 01 -->
     <defs>
      <path d="M 26.59375 63.796875 
C 26.59375 65.890625 26.5 66 25.09375 66 
C 21.203125 61.359375 15.296875 59.890625 9.703125 59.6875 
C 9.40625 59.6875 8.90625 59.6875 8.796875 59.5 
C 8.703125 59.296875 8.703125 59.09375 8.703125 57 
C 11.796875 57 17 57.59375 21 59.984375 
L 21 7.296875 
C 21 3.796875 20.796875 2.59375 12.203125 2.59375 
L 9.203125 2.59375 
L 9.203125 0 
C 14 0.09375 19 0.1875 23.796875 0.1875 
C 28.59375 0.1875 33.59375 0.09375 38.40625 0 
L 38.40625 2.59375 
L 35.40625 2.59375 
C 26.796875 2.59375 26.59375 3.6875 26.59375 7.296875 
z
" id="CMR17-49"/>
     </defs>
     <g transform="translate(68.542787 248.103782)rotate(-45)scale(0.14 -0.14)">
      <use transform="scale(0.996264)" xlink:href="#CMR17-48"/>
      <use transform="translate(45.690477 0)scale(0.996264)" xlink:href="#CMR17-49"/>
     </g>
    </g>
   </g>
   <g id="xtick_3">
    <g id="line2d_4">
     <path d="M 134.657625 228.095506 
L 131.977203 229.956397 
" style="fill:none;stroke:#000000;stroke-linecap:square;stroke-width:0.8;"/>
    </g>
    <g id="text_3">
     <!-- 10 -->
     <g transform="translate(114.7934 259.312128)rotate(-45)scale(0.14 -0.14)">
      <use transform="scale(0.996264)" xlink:href="#CMR17-49"/>
      <use transform="translate(45.690477 0)scale(0.996264)" xlink:href="#CMR17-48"/>
     </g>
    </g>
   </g>
   <g id="xtick_4">
    <g id="line2d_5">
     <path d="M 181.962926 239.365727 
L 179.342936 241.270032 
" style="fill:none;stroke:#000000;stroke-linecap:square;stroke-width:0.8;"/>
    </g>
    <g id="text_4">
     <!-- 11 -->
     <g transform="translate(162.118375 270.780834)rotate(-45)scale(0.14 -0.14)">
      <use transform="scale(0.996264)" xlink:href="#CMR17-49"/>
      <use transform="translate(45.690477 0)scale(0.996264)" xlink:href="#CMR17-49"/>
     </g>
    </g>
   </g>
  </g>
  <g id="axis3d_2">
   <g id="line2d_6">
    <path d="M 305.111665 171.581202 
L 205.419617 245.80086 
" style="fill:none;stroke:#000000;stroke-linecap:square;stroke-width:0.8;"/>
   </g>
   <g id="Line3DCollection_2">
    <path d="M 27.455231 56.547028 
L 34.471044 192.413474 
L 218.858418 235.795817 
" style="fill:none;stroke:#b0b0b0;stroke-width:0.8;"/>
    <path d="M 57.232024 40.730342 
L 62.623407 174.842005 
L 244.674037 216.576366 
" style="fill:none;stroke:#b0b0b0;stroke-width:0.8;"/>
    <path d="M 85.85589 25.526062 
L 89.739382 157.917404 
L 269.496985 198.095948 
" style="fill:none;stroke:#b0b0b0;stroke-width:0.8;"/>
    <path d="M 113.392516 10.899296 
L 115.875164 141.604597 
L 293.383438 180.312741 
" style="fill:none;stroke:#b0b0b0;stroke-width:0.8;"/>
   </g>
   <g id="xtick_5">
    <g id="line2d_7">
     <path d="M 217.315598 235.432825 
L 221.947489 236.522608 
" style="fill:none;stroke:#000000;stroke-linecap:square;stroke-width:0.8;"/>
    </g>
    <g id="text_5">
     <!-- 00 -->
     <g transform="translate(232.650369 248.348363)rotate(-337.5)scale(0.14 -0.14)">
      <use transform="scale(0.996264)" xlink:href="#CMR17-48"/>
      <use transform="translate(45.690477 0)scale(0.996264)" xlink:href="#CMR17-48"/>
     </g>
    </g>
   </g>
   <g id="xtick_6">
    <g id="line2d_8">
     <path d="M 243.15208 216.227463 
L 247.72127 217.274932 
" style="fill:none;stroke:#000000;stroke-linecap:square;stroke-width:0.8;"/>
    </g>
    <g id="text_6">
     <!-- 01 -->
     <g transform="translate(258.203921 228.903937)rotate(-337.5)scale(0.14 -0.14)">
      <use transform="scale(0.996264)" xlink:href="#CMR17-48"/>
      <use transform="translate(45.690477 0)scale(0.996264)" xlink:href="#CMR17-49"/>
     </g>
    </g>
   </g>
   <g id="xtick_7">
    <g id="line2d_9">
     <path d="M 267.995442 197.76033 
L 272.503283 198.767901 
" style="fill:none;stroke:#000000;stroke-linecap:square;stroke-width:0.8;"/>
    </g>
    <g id="text_7">
     <!-- 10 -->
     <g transform="translate(282.775332 210.206849)rotate(-337.5)scale(0.14 -0.14)">
      <use transform="scale(0.996264)" xlink:href="#CMR17-49"/>
      <use transform="translate(45.690477 0)scale(0.996264)" xlink:href="#CMR17-48"/>
     </g>
    </g>
   </g>
   <g id="xtick_8">
    <g id="line2d_10">
     <path d="M 291.901865 179.989663 
L 296.349691 180.959573 
" style="fill:none;stroke:#000000;stroke-linecap:square;stroke-width:0.8;"/>
    </g>
    <g id="text_8">
     <!-- 11 -->
     <g transform="translate(306.420159 192.214827)rotate(-337.5)scale(0.14 -0.14)">
      <use transform="scale(0.996264)" xlink:href="#CMR17-49"/>
      <use transform="translate(45.690477 0)scale(0.996264)" xlink:href="#CMR17-49"/>
     </g>
    </g>
   </g>
  </g>
  <g id="axis3d_3">
   <g id="line2d_11">
    <path d="M 305.111665 171.581202 
L 312.491547 37.79869 
" style="fill:none;stroke:#000000;stroke-linecap:square;stroke-width:0.8;"/>
   </g>
   <g id="text_9">
    <!-- Re[$\rho$] -->
    <defs>
     <path d="M 39.203125 33.6875 
C 48.703125 35.59375 56.703125 42.015625 56.703125 50.046875 
C 56.703125 59.46875 46.09375 68 32.09375 68 
L 5.203125 68 
L 5.203125 65.390625 
C 12.09375 65.390625 13.203125 65.390625 13.203125 60.875 
L 13.203125 6.6875 
C 13.203125 2.1875 12.09375 2.1875 5.203125 2.1875 
L 5.203125 -0.40625 
C 8.09375 -0.203125 13.296875 -0.203125 16.40625 -0.203125 
C 19.5 -0.203125 24.703125 -0.203125 27.59375 -0.40625 
L 27.59375 2.1875 
C 20.703125 2.1875 19.59375 2.1875 19.59375 6.6875 
L 19.59375 33 
L 31.296875 33 
C 37 33 40.203125 30.6875 41.59375 29.390625 
C 45.59375 25.5 45.59375 22.796875 45.59375 16 
C 45.59375 9.296875 45.59375 5.890625 48.59375 2.5 
C 52.40625 -1.609375 57.5 -2 59.703125 -2 
C 67.09375 -2 68.203125 6.296875 68.203125 8 
C 68.203125 8.59375 68.203125 9.296875 67.296875 9.296875 
C 66.5 9.296875 66.40625 8.6875 66.40625 8.296875 
C 65.90625 1.796875 63 -0.40625 59.90625 -0.40625 
C 54.40625 -0.40625 53.796875 5.890625 53.203125 12 
C 52.90625 14.09375 52.703125 15.59375 52.5 17.796875 
C 51.90625 22.796875 51.09375 30.09375 39.203125 33.6875 
z
M 31 34.59375 
L 19.59375 34.59375 
L 19.59375 61.484375 
C 19.59375 64.890625 19.796875 65.390625 23.796875 65.390625 
L 31.09375 65.390625 
C 39.40625 65.390625 49.09375 62.484375 49.09375 50.046875 
C 49.09375 37.09375 38.5 34.59375 31 34.59375 
z
" id="CMR17-82"/>
     <path d="M 38.09375 23.484375 
C 38.5 23.890625 38.5 24.09375 38.5 25.09375 
C 38.5 35.171875 33.09375 44 21.703125 44 
C 11.09375 44 2.703125 33.984375 2.703125 21.78125 
C 2.703125 8.65625 12.203125 -1 22.796875 -1 
C 34 -1 38.40625 9.671875 38.40625 11.796875 
C 38.40625 12.5 37.796875 12.5 37.59375 12.5 
C 36.90625 12.5 36.796875 12.296875 36.40625 11.078125 
C 34.203125 4.21875 28.703125 0.796875 23.5 0.796875 
C 19.203125 0.796875 14.90625 3.21875 12.203125 7.65625 
C 9.09375 12.796875 9.09375 18.75 9.09375 23.484375 
z
M 9.203125 25 
C 9.90625 39.234375 17.59375 42.390625 21.59375 42.390625 
C 28.40625 42.390625 33 36.0625 33.09375 25 
z
" id="CMR17-101"/>
     <path d="M 23.5 -25 
L 23.5 -21.5 
L 14.09375 -21.5 
L 14.09375 71.484375 
L 23.5 71.484375 
L 23.5 75 
L 10.59375 75 
L 10.59375 -25 
z
" id="CMR17-91"/>
     <path d="M 3.09375 -16.953125 
C 3 -17.4375 2.796875 -18.03125 2.796875 -18.609375 
C 2.796875 -20.109375 4 -21.109375 5.5 -21.109375 
C 7 -21.109375 8.40625 -20.109375 9 -18.71875 
C 9.40625 -17.828125 12.203125 -6.09375 15.40625 6.078125 
C 17.40625 1.09375 21.09375 -1 25 -1 
C 36.296875 -1 49.09375 12.96875 49.09375 28.03125 
C 49.09375 38.703125 42.59375 44 35.703125 44 
C 26.90625 44 16.203125 34.90625 12.90625 21.640625 
z
M 24.90625 1 
C 18.09375 1 16.40625 8.875 16.40625 10.078125 
C 16.40625 10.671875 18.90625 20.140625 19.203125 21.640625 
C 24.296875 41.5 34.09375 41.984375 35.59375 41.984375 
C 40.09375 41.984375 42.59375 37.90625 42.59375 32.015625 
C 42.59375 26.9375 39.90625 17.046875 38.203125 12.859375 
C 35.203125 5.984375 30 1 24.90625 1 
z
" id="CMMI12-26"/>
     <path d="M 14.296875 75 
L 1.40625 75 
L 1.40625 71.484375 
L 10.796875 71.484375 
L 10.796875 -21.5 
L 1.40625 -21.5 
L 1.40625 -25 
L 14.296875 -25 
z
" id="CMR17-93"/>
    </defs>
    <g transform="translate(352.486567 117.931831)rotate(-86.842577)scale(0.14 -0.14)">
     <use transform="scale(0.996264)" xlink:href="#CMR17-82"/>
     <use transform="translate(67.791102 0)scale(0.996264)" xlink:href="#CMR17-101"/>
     <use transform="translate(108.276762 0)scale(0.996264)" xlink:href="#CMR17-91"/>
     <use transform="translate(133.147821 0)scale(0.996264)" xlink:href="#CMMI12-26"/>
     <use transform="translate(183.462194 0)scale(0.996264)" xlink:href="#CMR17-93"/>
    </g>
   </g>
   <g id="Line3DCollection_3">
    <path d="M 305.340598 167.431103 
L 128.666854 129.54828 
L 19.590962 197.312986 
" style="fill:none;stroke:#b0b0b0;stroke-width:0.8;"/>
    <path d="M 308.050778 118.300949 
L 128.000269 81.796962 
L 16.698459 147.136482 
" style="fill:none;stroke:#b0b0b0;stroke-width:0.8;"/>
    <path d="M 310.867516 67.239128 
L 127.308606 32.249104 
L 13.688354 94.919909 
" style="fill:none;stroke:#b0b0b0;stroke-width:0.8;"/>
   </g>
   <g id="xtick_9">
    <g id="line2d_12">
     <path d="M 303.86647 167.115016 
L 308.291923 168.063933 
" style="fill:none;stroke:#000000;stroke-linecap:square;stroke-width:0.8;"/>
    </g>
    <g id="text_10">
     <!-- $0.0$ -->
     <defs>
      <path d="M 18.40625 4.796875 
C 18.40625 7.6875 16 9.6875 13.59375 9.6875 
C 10.703125 9.6875 8.703125 7.296875 8.703125 4.890625 
C 8.703125 2 11.09375 0 13.5 0 
C 16.40625 0 18.40625 2.390625 18.40625 4.796875 
z
" id="CMMI12-58"/>
     </defs>
     <g transform="translate(315.154558 175.178262)scale(0.14 -0.14)">
      <use transform="scale(0.996264)" xlink:href="#CMR17-48"/>
      <use transform="translate(45.690477 0)scale(0.996264)" xlink:href="#CMMI12-58"/>
      <use transform="translate(72.787654 0)scale(0.996264)" xlink:href="#CMR17-48"/>
     </g>
    </g>
   </g>
   <g id="xtick_10">
    <g id="line2d_13">
     <path d="M 306.547282 117.996125 
L 311.060961 118.911242 
" style="fill:none;stroke:#000000;stroke-linecap:square;stroke-width:0.8;"/>
    </g>
    <g id="text_11">
     <!-- $0.2$ -->
     <defs>
      <path d="M 41.703125 15.46875 
L 39.90625 15.46875 
C 38.90625 8.390625 38.09375 7.1875 37.703125 6.59375 
C 37.203125 5.796875 30 5.796875 28.59375 5.796875 
L 9.40625 5.796875 
C 13 9.6875 20 16.765625 28.5 24.9375 
C 34.59375 30.71875 41.703125 37.5 41.703125 47.390625 
C 41.703125 59.1875 32.296875 66 21.796875 66 
C 10.796875 66 4.09375 56.296875 4.09375 47.296875 
C 4.09375 43.390625 7 42.890625 8.203125 42.890625 
C 9.203125 42.890625 12.203125 43.484375 12.203125 46.984375 
C 12.203125 50.09375 9.59375 51 8.203125 51 
C 7.59375 51 7 50.890625 6.59375 50.6875 
C 8.5 59.1875 14.296875 63.390625 20.40625 63.390625 
C 29.09375 63.390625 34.796875 56.5 34.796875 47.390625 
C 34.796875 38.703125 29.703125 31.21875 24 24.734375 
L 4.09375 2.296875 
L 4.09375 0 
L 39.296875 0 
z
" id="CMR17-50"/>
     </defs>
     <g transform="translate(318.215523 126.117253)scale(0.14 -0.14)">
      <use transform="scale(0.996264)" xlink:href="#CMR17-48"/>
      <use transform="translate(45.690477 0)scale(0.996264)" xlink:href="#CMMI12-58"/>
      <use transform="translate(72.787654 0)scale(0.996264)" xlink:href="#CMR17-50"/>
     </g>
    </g>
   </g>
   <g id="xtick_11">
    <g id="line2d_14">
     <path d="M 309.333459 66.946706 
L 313.938948 67.824605 
" style="fill:none;stroke:#000000;stroke-linecap:square;stroke-width:0.8;"/>
    </g>
    <g id="text_12">
     <!-- $0.4$ -->
     <defs>
      <path d="M 33.59375 64.796875 
C 33.59375 66.890625 33.5 67 31.703125 67 
L 2 19.59375 
L 2 17 
L 27.796875 17 
L 27.796875 7.1875 
C 27.796875 3.59375 27.59375 2.59375 20.59375 2.59375 
L 18.703125 2.59375 
L 18.703125 0 
C 21.90625 0.1875 27.296875 0.1875 30.703125 0.1875 
C 34.09375 0.1875 39.5 0.1875 42.703125 0 
L 42.703125 2.59375 
L 40.796875 2.59375 
C 33.796875 2.59375 33.59375 3.59375 33.59375 7.1875 
L 33.59375 17 
L 43.796875 17 
L 43.796875 19.59375 
L 33.59375 19.59375 
z
M 28.09375 58.171875 
L 28.09375 19.59375 
L 4 19.59375 
z
" id="CMR17-52"/>
     </defs>
     <g transform="translate(321.39657 75.131557)scale(0.14 -0.14)">
      <use transform="scale(0.996264)" xlink:href="#CMR17-48"/>
      <use transform="translate(45.690477 0)scale(0.996264)" xlink:href="#CMMI12-58"/>
      <use transform="translate(72.787654 0)scale(0.996264)" xlink:href="#CMR17-52"/>
     </g>
    </g>
   </g>
  </g>
  <g id="axes_1">
   <g id="Poly3DCollection_1">
    <path clip-path="url(#pf07d0b9234)" d="M 176.057893 145.189649 
L 176.05585 145.654854 
L 197.906576 150.37164 
L 197.912606 149.904827 
z
" style="fill:#ba0c2f;fill-opacity:0.8;"/>
    <path clip-path="url(#pf07d0b9234)" d="M 163.529623 153.388382 
L 163.52985 153.856375 
L 176.05585 145.654854 
L 176.057893 145.189649 
z
" style="fill:#5d0618;fill-opacity:0.8;"/>
    <path clip-path="url(#pf07d0b9234)" d="M 163.52985 153.856375 
L 185.515967 158.660699 
L 197.906576 150.37164 
L 176.05585 145.654854 
z
" style="fill:#a30a29;fill-opacity:0.8;"/>
    <path clip-path="url(#pf07d0b9234)" d="M 163.529623 153.388382 
L 176.057893 145.189649 
L 197.912606 149.904827 
L 185.519778 158.191085 
z
" style="fill:#74081d;fill-opacity:0.8;"/>
    <path clip-path="url(#pf07d0b9234)" d="M 185.519778 158.191085 
L 197.912606 149.904827 
L 197.906576 150.37164 
L 185.515967 158.660699 
z
" style="fill:#ba0c2f;fill-opacity:0.8;"/>
    <path clip-path="url(#pf07d0b9234)" d="M 163.529623 153.388382 
L 185.519778 158.191085 
L 185.515967 158.660699 
L 163.52985 153.856375 
z
" style="fill:#5d0618;fill-opacity:0.8;"/>
   </g>
   <g id="Poly3DCollection_2">
    <path clip-path="url(#pf07d0b9234)" d="M 107.219834 152.110169 
L 107.206708 151.525469 
L 128.869573 156.312449 
L 128.877802 156.899174 
z
" style="fill:#5d0618;fill-opacity:0.8;"/>
    <path clip-path="url(#pf07d0b9234)" d="M 93.953978 160.437524 
L 93.937677 159.84931 
L 107.206708 151.525469 
L 107.219834 152.110169 
z
" style="fill:#ba0c2f;fill-opacity:0.8;"/>
    <path clip-path="url(#pf07d0b9234)" d="M 93.953978 160.437524 
L 107.219834 152.110169 
L 128.877802 156.899174 
L 115.742644 165.316127 
z
" style="fill:#74081d;fill-opacity:0.8;"/>
    <path clip-path="url(#pf07d0b9234)" d="M 93.937677 159.84931 
L 115.731298 164.725871 
L 128.869573 156.312449 
L 107.206708 151.525469 
z
" style="fill:#a30a29;fill-opacity:0.8;"/>
    <path clip-path="url(#pf07d0b9234)" d="M 115.742644 165.316127 
L 128.877802 156.899174 
L 128.869573 156.312449 
L 115.731298 164.725871 
z
" style="fill:#5d0618;fill-opacity:0.8;"/>
    <path clip-path="url(#pf07d0b9234)" d="M 93.953978 160.437524 
L 115.742644 165.316127 
L 115.731298 164.725871 
L 93.937677 159.84931 
z
" style="fill:#ba0c2f;fill-opacity:0.8;"/>
   </g>
   <g id="Poly3DCollection_3">
    <path clip-path="url(#pf07d0b9234)" d="M 220.000169 154.670244 
L 219.965857 156.261297 
L 242.275884 161.083265 
L 242.324324 159.486705 
z
" style="fill:#ba0c2f;fill-opacity:0.8;"/>
    <path clip-path="url(#pf07d0b9234)" d="M 207.746407 163.045435 
L 207.719458 164.646045 
L 219.965857 156.261297 
L 220.000169 154.670244 
z
" style="fill:#5d0618;fill-opacity:0.8;"/>
    <path clip-path="url(#pf07d0b9234)" d="M 207.719458 164.646045 
L 230.172089 169.558433 
L 242.275884 161.083265 
L 219.965857 156.261297 
z
" style="fill:#a30a29;fill-opacity:0.8;"/>
    <path clip-path="url(#pf07d0b9234)" d="M 207.746407 163.045435 
L 220.000169 154.670244 
L 242.324324 159.486705 
L 230.213346 167.95227 
z
" style="fill:#74081d;fill-opacity:0.8;"/>
    <path clip-path="url(#pf07d0b9234)" d="M 230.213346 167.95227 
L 242.324324 159.486705 
L 242.275884 161.083265 
L 230.172089 169.558433 
z
" style="fill:#ba0c2f;fill-opacity:0.8;"/>
    <path clip-path="url(#pf07d0b9234)" d="M 207.746407 163.045435 
L 230.213346 167.95227 
L 230.172089 169.558433 
L 207.719458 164.646045 
z
" style="fill:#5d0618;fill-opacity:0.8;"/>
   </g>
   <g id="Poly3DCollection_4">
    <path clip-path="url(#pf07d0b9234)" d="M 150.768339 161.739604 
L 150.766725 161.445274 
L 172.896151 166.33694 
L 172.895209 166.632292 
z
" style="fill:#5d0618;fill-opacity:0.8;"/>
    <path clip-path="url(#pf07d0b9234)" d="M 137.767478 170.247609 
L 137.764337 169.951506 
L 150.766725 161.445274 
L 150.768339 161.739604 
z
" style="fill:#ba0c2f;fill-opacity:0.8;"/>
    <path clip-path="url(#pf07d0b9234)" d="M 137.767478 170.247609 
L 150.768339 161.739604 
L 172.895209 166.632292 
L 160.032339 175.232835 
z
" style="fill:#74081d;fill-opacity:0.8;"/>
    <path clip-path="url(#pf07d0b9234)" d="M 137.764337 169.951506 
L 160.031785 174.935701 
L 172.896151 166.33694 
L 150.766725 161.445274 
z
" style="fill:#a30a29;fill-opacity:0.8;"/>
    <path clip-path="url(#pf07d0b9234)" d="M 160.032339 175.232835 
L 172.895209 166.632292 
L 172.896151 166.33694 
L 160.031785 174.935701 
z
" style="fill:#5d0618;fill-opacity:0.8;"/>
    <path clip-path="url(#pf07d0b9234)" d="M 137.767478 170.247609 
L 160.032339 175.232835 
L 160.031785 174.935701 
L 137.764337 169.951506 
z
" style="fill:#ba0c2f;fill-opacity:0.8;"/>
   </g>
   <g id="Poly3DCollection_5">
    <path clip-path="url(#pf07d0b9234)" d="M 80.439434 168.920987 
L 80.376322 167.01497 
L 102.312947 171.979071 
L 102.359908 173.891727 
z
" style="fill:#5d0618;fill-opacity:0.8;"/>
    <path clip-path="url(#pf07d0b9234)" d="M 66.669142 177.564991 
L 66.59503 175.647456 
L 80.376322 167.01497 
L 80.439434 168.920987 
z
" style="fill:#ba0c2f;fill-opacity:0.8;"/>
    <path clip-path="url(#pf07d0b9234)" d="M 66.669142 177.564991 
L 80.439434 168.920987 
L 102.359908 173.891727 
L 88.722527 182.630501 
z
" style="fill:#74081d;fill-opacity:0.8;"/>
    <path clip-path="url(#pf07d0b9234)" d="M 66.59503 175.647456 
L 88.66476 180.706273 
L 102.312947 171.979071 
L 80.376322 167.01497 
z
" style="fill:#a30a29;fill-opacity:0.8;"/>
    <path clip-path="url(#pf07d0b9234)" d="M 88.722527 182.630501 
L 102.359908 173.891727 
L 102.312947 171.979071 
L 88.66476 180.706273 
z
" style="fill:#5d0618;fill-opacity:0.8;"/>
    <path clip-path="url(#pf07d0b9234)" d="M 66.669142 177.564991 
L 88.722527 182.630501 
L 88.66476 180.706273 
L 66.59503 175.647456 
z
" style="fill:#ba0c2f;fill-opacity:0.8;"/>
   </g>
   <g id="Poly3DCollection_6">
    <path clip-path="url(#pf07d0b9234)" d="M 195.262262 171.578089 
L 195.265836 171.279856 
L 217.879687 176.278594 
L 217.873428 176.577864 
z
" style="fill:#5d0618;fill-opacity:0.8;"/>
    <path clip-path="url(#pf07d0b9234)" d="M 182.541174 180.272687 
L 182.543277 179.972653 
L 195.265836 171.279856 
L 195.262262 171.578089 
z
" style="fill:#ba0c2f;fill-opacity:0.8;"/>
    <path clip-path="url(#pf07d0b9234)" d="M 182.541174 180.272687 
L 195.262262 171.578089 
L 217.873428 176.577864 
L 205.298015 185.36807 
z
" style="fill:#74081d;fill-opacity:0.8;"/>
    <path clip-path="url(#pf07d0b9234)" d="M 182.543277 179.972653 
L 205.302837 185.066989 
L 217.879687 176.278594 
L 195.265836 171.279856 
z
" style="fill:#a30a29;fill-opacity:0.8;"/>
    <path clip-path="url(#pf07d0b9234)" d="M 205.298015 185.36807 
L 217.873428 176.577864 
L 217.879687 176.278594 
L 205.302837 185.066989 
z
" style="fill:#5d0618;fill-opacity:0.8;"/>
    <path clip-path="url(#pf07d0b9234)" d="M 182.541174 180.272687 
L 205.298015 185.36807 
L 205.302837 185.066989 
L 182.543277 179.972653 
z
" style="fill:#ba0c2f;fill-opacity:0.8;"/>
   </g>
   <g id="Poly3DCollection_7">
    <path clip-path="url(#pf07d0b9234)" d="M 120.243803 143.934653 
L 133.032442 135.90686 
L 154.432367 140.523918 
L 141.77219 148.636505 
z
" style="fill:#74081d;fill-opacity:0.8;"/>
    <path clip-path="url(#pf07d0b9234)" d="M 133.032442 135.90686 
L 131.633822 22.213617 
L 153.974354 26.412706 
L 154.432367 140.523918 
z
" style="fill:#5d0618;fill-opacity:0.8;"/>
    <path clip-path="url(#pf07d0b9234)" d="M 120.243803 143.934653 
L 118.262898 29.515924 
L 131.633822 22.213617 
L 133.032442 135.90686 
z
" style="fill:#ba0c2f;fill-opacity:0.8;"/>
    <path clip-path="url(#pf07d0b9234)" d="M 141.77219 148.636505 
L 154.432367 140.523918 
L 153.974354 26.412706 
L 140.743427 33.795588 
z
" style="fill:#5d0618;fill-opacity:0.8;"/>
    <path clip-path="url(#pf07d0b9234)" d="M 120.243803 143.934653 
L 141.77219 148.636505 
L 140.743427 33.795588 
L 118.262898 29.515924 
z
" style="fill:#ba0c2f;fill-opacity:0.8;"/>
    <path clip-path="url(#pf07d0b9234)" d="M 118.262898 29.515924 
L 140.743427 33.795588 
L 153.974354 26.412706 
L 131.633822 22.213617 
z
" style="fill:#a30a29;fill-opacity:0.8;"/>
   </g>
   <g id="Poly3DCollection_8">
    <path clip-path="url(#pf07d0b9234)" d="M 124.520229 178.916854 
L 124.51499 178.586638 
L 146.922021 183.6659 
L 146.924356 183.997268 
z
" style="fill:#5d0618;fill-opacity:0.8;"/>
    <path clip-path="url(#pf07d0b9234)" d="M 111.019523 187.751968 
L 111.012459 187.419753 
L 124.51499 178.586638 
L 124.520229 178.916854 
z
" style="fill:#ba0c2f;fill-opacity:0.8;"/>
    <path clip-path="url(#pf07d0b9234)" d="M 111.019523 187.751968 
L 124.520229 178.916854 
L 146.924356 183.997268 
L 133.564187 192.930322 
z
" style="fill:#74081d;fill-opacity:0.8;"/>
    <path clip-path="url(#pf07d0b9234)" d="M 111.012459 187.419753 
L 133.560064 192.596947 
L 146.922021 183.6659 
L 124.51499 178.586638 
z
" style="fill:#a30a29;fill-opacity:0.8;"/>
    <path clip-path="url(#pf07d0b9234)" d="M 133.564187 192.930322 
L 146.924356 183.997268 
L 146.922021 183.6659 
L 133.560064 192.596947 
z
" style="fill:#5d0618;fill-opacity:0.8;"/>
    <path clip-path="url(#pf07d0b9234)" d="M 111.019523 187.751968 
L 133.564187 192.930322 
L 133.560064 192.596947 
L 111.012459 187.419753 
z
" style="fill:#ba0c2f;fill-opacity:0.8;"/>
   </g>
   <g id="Poly3DCollection_9">
    <path clip-path="url(#pf07d0b9234)" d="M 240.732727 181.632507 
L 240.68412 183.253979 
L 263.78052 188.370049 
L 263.844265 186.742924 
z
" style="fill:#ba0c2f;fill-opacity:0.8;"/>
    <path clip-path="url(#pf07d0b9234)" d="M 228.306983 190.519905 
L 228.265937 192.151184 
L 240.68412 183.253979 
L 240.732727 181.632507 
z
" style="fill:#5d0618;fill-opacity:0.8;"/>
    <path clip-path="url(#pf07d0b9234)" d="M 228.265937 192.151184 
L 251.515903 197.366112 
L 263.78052 188.370049 
L 240.68412 183.253979 
z
" style="fill:#a30a29;fill-opacity:0.8;"/>
    <path clip-path="url(#pf07d0b9234)" d="M 228.306983 190.519905 
L 240.732727 181.632507 
L 263.844265 186.742924 
L 251.572291 195.729136 
z
" style="fill:#74081d;fill-opacity:0.8;"/>
    <path clip-path="url(#pf07d0b9234)" d="M 251.572291 195.729136 
L 263.844265 186.742924 
L 263.78052 188.370049 
L 251.515903 197.366112 
z
" style="fill:#ba0c2f;fill-opacity:0.8;"/>
    <path clip-path="url(#pf07d0b9234)" d="M 228.306983 190.519905 
L 251.572291 195.729136 
L 251.515903 197.366112 
L 228.265937 192.151184 
z
" style="fill:#5d0618;fill-opacity:0.8;"/>
   </g>
   <g id="Poly3DCollection_10">
    <path clip-path="url(#pf07d0b9234)" d="M 169.576335 189.133885 
L 169.576906 188.833911 
L 192.483609 194.026621 
L 192.480301 194.327643 
z
" style="fill:#5d0618;fill-opacity:0.8;"/>
    <path clip-path="url(#pf07d0b9234)" d="M 156.36067 198.166517 
L 156.359662 197.864724 
L 169.576906 188.833911 
L 169.576335 189.133885 
z
" style="fill:#ba0c2f;fill-opacity:0.8;"/>
    <path clip-path="url(#pf07d0b9234)" d="M 156.36067 198.166517 
L 169.576335 189.133885 
L 192.480301 194.327643 
L 179.413215 203.461528 
z
" style="fill:#74081d;fill-opacity:0.8;"/>
    <path clip-path="url(#pf07d0b9234)" d="M 156.359662 197.864724 
L 179.41498 203.158678 
L 192.483609 194.026621 
L 169.576906 188.833911 
z
" style="fill:#a30a29;fill-opacity:0.8;"/>
    <path clip-path="url(#pf07d0b9234)" d="M 179.413215 203.461528 
L 192.480301 194.327643 
L 192.483609 194.026621 
L 179.41498 203.158678 
z
" style="fill:#5d0618;fill-opacity:0.8;"/>
    <path clip-path="url(#pf07d0b9234)" d="M 156.36067 198.166517 
L 179.413215 203.461528 
L 179.41498 203.158678 
L 156.359662 197.864724 
z
" style="fill:#ba0c2f;fill-opacity:0.8;"/>
   </g>
   <g id="Poly3DCollection_11">
    <path clip-path="url(#pf07d0b9234)" d="M 97.258013 196.757755 
L 97.205948 194.815083 
L 119.909719 200.087429 
L 119.944483 202.03691 
z
" style="fill:#5d0618;fill-opacity:0.8;"/>
    <path clip-path="url(#pf07d0b9234)" d="M 83.228071 205.939211 
L 83.164571 203.984727 
L 97.205948 194.815083 
L 97.258013 196.757755 
z
" style="fill:#ba0c2f;fill-opacity:0.8;"/>
    <path clip-path="url(#pf07d0b9234)" d="M 83.228071 205.939211 
L 97.258013 196.757755 
L 119.944483 202.03691 
L 106.057606 211.322137 
z
" style="fill:#74081d;fill-opacity:0.8;"/>
    <path clip-path="url(#pf07d0b9234)" d="M 83.164571 203.984727 
L 106.011626 209.360793 
L 119.909719 200.087429 
L 97.205948 194.815083 
z
" style="fill:#a30a29;fill-opacity:0.8;"/>
    <path clip-path="url(#pf07d0b9234)" d="M 106.057606 211.322137 
L 119.944483 202.03691 
L 119.909719 200.087429 
L 106.011626 209.360793 
z
" style="fill:#5d0618;fill-opacity:0.8;"/>
    <path clip-path="url(#pf07d0b9234)" d="M 83.228071 205.939211 
L 106.057606 211.322137 
L 106.011626 209.360793 
L 83.164571 203.984727 
z
" style="fill:#ba0c2f;fill-opacity:0.8;"/>
   </g>
   <g id="Poly3DCollection_12">
    <path clip-path="url(#pf07d0b9234)" d="M 215.640482 199.579502 
L 215.630713 200.062692 
L 239.046855 205.375322 
L 239.061202 204.89044 
z
" style="fill:#ba0c2f;fill-opacity:0.8;"/>
    <path clip-path="url(#pf07d0b9234)" d="M 202.72616 208.816351 
L 202.718799 209.302476 
L 215.630713 200.062692 
L 215.640482 199.579502 
z
" style="fill:#5d0618;fill-opacity:0.8;"/>
    <path clip-path="url(#pf07d0b9234)" d="M 202.718799 209.302476 
L 226.291942 214.719835 
L 239.046855 205.375322 
L 215.630713 200.062692 
z
" style="fill:#a30a29;fill-opacity:0.8;"/>
    <path clip-path="url(#pf07d0b9234)" d="M 202.72616 208.816351 
L 215.640482 199.579502 
L 239.061202 204.89044 
L 226.303942 214.232005 
z
" style="fill:#74081d;fill-opacity:0.8;"/>
    <path clip-path="url(#pf07d0b9234)" d="M 226.303942 214.232005 
L 239.061202 204.89044 
L 239.046855 205.375322 
L 226.291942 214.719835 
z
" style="fill:#ba0c2f;fill-opacity:0.8;"/>
    <path clip-path="url(#pf07d0b9234)" d="M 202.72616 208.816351 
L 226.303942 214.232005 
L 226.291942 214.719835 
L 202.718799 209.302476 
z
" style="fill:#5d0618;fill-opacity:0.8;"/>
   </g>
   <g id="Poly3DCollection_13">
    <path clip-path="url(#pf07d0b9234)" d="M 142.88683 207.375607 
L 142.881531 206.768246 
L 166.089729 212.165369 
L 166.089408 212.77486 
z
" style="fill:#5d0618;fill-opacity:0.8;"/>
    <path clip-path="url(#pf07d0b9234)" d="M 129.147173 216.766376 
L 129.138463 216.155319 
L 142.881531 206.768246 
L 142.88683 207.375607 
z
" style="fill:#ba0c2f;fill-opacity:0.8;"/>
    <path clip-path="url(#pf07d0b9234)" d="M 129.147173 216.766376 
L 142.88683 207.375607 
L 166.089408 212.77486 
L 152.501239 222.272981 
z
" style="fill:#74081d;fill-opacity:0.8;"/>
    <path clip-path="url(#pf07d0b9234)" d="M 129.138463 216.155319 
L 152.498223 221.659777 
L 166.089729 212.165369 
L 142.881531 206.768246 
z
" style="fill:#a30a29;fill-opacity:0.8;"/>
    <path clip-path="url(#pf07d0b9234)" d="M 152.501239 222.272981 
L 166.089408 212.77486 
L 166.089729 212.165369 
L 152.498223 221.659777 
z
" style="fill:#5d0618;fill-opacity:0.8;"/>
    <path clip-path="url(#pf07d0b9234)" d="M 129.147173 216.766376 
L 152.501239 222.272981 
L 152.498223 221.659777 
L 129.138463 216.155319 
z
" style="fill:#ba0c2f;fill-opacity:0.8;"/>
   </g>
   <g id="Poly3DCollection_14">
    <path clip-path="url(#pf07d0b9234)" d="M 252.924514 172.912444 
L 264.888891 164.355035 
L 287.697776 169.276077 
L 275.883915 177.926833 
z
" style="fill:#74081d;fill-opacity:0.8;"/>
    <path clip-path="url(#pf07d0b9234)" d="M 264.888891 164.355035 
L 269.853873 37.832394 
L 293.828503 42.279736 
L 287.697776 169.276077 
z
" style="fill:#5d0618;fill-opacity:0.8;"/>
    <path clip-path="url(#pf07d0b9234)" d="M 252.924514 172.912444 
L 257.339398 45.567601 
L 269.853873 37.832394 
L 264.888891 164.355035 
z
" style="fill:#ba0c2f;fill-opacity:0.8;"/>
    <path clip-path="url(#pf07d0b9234)" d="M 275.883915 177.926833 
L 287.697776 169.276077 
L 293.828503 42.279736 
L 281.480557 50.103563 
z
" style="fill:#5d0618;fill-opacity:0.8;"/>
    <path clip-path="url(#pf07d0b9234)" d="M 252.924514 172.912444 
L 275.883915 177.926833 
L 281.480557 50.103563 
L 257.339398 45.567601 
z
" style="fill:#ba0c2f;fill-opacity:0.8;"/>
    <path clip-path="url(#pf07d0b9234)" d="M 257.339398 45.567601 
L 281.480557 50.103563 
L 293.828503 42.279736 
L 269.853873 37.832394 
z
" style="fill:#a30a29;fill-opacity:0.8;"/>
   </g>
   <g id="Poly3DCollection_15">
    <path clip-path="url(#pf07d0b9234)" d="M 25.489329 196.696173 
L 203.762574 238.926932 
L 299.803392 168.010149 
L 130.032087 131.536773 
z
" style="fill-opacity:0.15;"/>
   </g>
   <g id="Poly3DCollection_16">
    <path clip-path="url(#pf07d0b9234)" d="M 38.331719 195.353197 
L 52.635775 186.374135 
L 74.823165 191.537153 
L 60.654199 200.616566 
z
" style="fill:#74081d;fill-opacity:0.8;"/>
    <path clip-path="url(#pf07d0b9234)" d="M 52.635775 186.374135 
L 46.99474 59.130908 
L 70.271943 63.813827 
L 74.823165 191.537153 
z
" style="fill:#5d0618;fill-opacity:0.8;"/>
    <path clip-path="url(#pf07d0b9234)" d="M 38.331719 195.353197 
L 31.906632 67.276704 
L 46.99474 59.130908 
L 52.635775 186.374135 
z
" style="fill:#ba0c2f;fill-opacity:0.8;"/>
    <path clip-path="url(#pf07d0b9234)" d="M 60.654199 200.616566 
L 74.823165 191.537153 
L 70.271943 63.813827 
L 55.332324 72.055305 
z
" style="fill:#5d0618;fill-opacity:0.8;"/>
    <path clip-path="url(#pf07d0b9234)" d="M 38.331719 195.353197 
L 60.654199 200.616566 
L 55.332324 72.055305 
L 31.906632 67.276704 
z
" style="fill:#ba0c2f;fill-opacity:0.8;"/>
    <path clip-path="url(#pf07d0b9234)" d="M 31.906632 67.276704 
L 55.332324 72.055305 
L 70.271943 63.813827 
L 46.99474 59.130908 
z
" style="fill:#a30a29;fill-opacity:0.8;"/>
   </g>
   <g id="Poly3DCollection_17">
    <path clip-path="url(#pf07d0b9234)" d="M 176.124376 227.843029 
L 189.556671 218.235706 
L 213.293173 223.759203 
L 200.021261 233.477624 
z
" style="fill:#74081d;fill-opacity:0.8;"/>
    <path clip-path="url(#pf07d0b9234)" d="M 189.556671 218.235706 
L 190.756172 97.381897 
L 215.655414 102.44726 
L 213.293173 223.759203 
z
" style="fill:#5d0618;fill-opacity:0.8;"/>
    <path clip-path="url(#pf07d0b9234)" d="M 176.124376 227.843029 
L 176.679638 106.19417 
L 190.756172 97.381897 
L 189.556671 218.235706 
z
" style="fill:#ba0c2f;fill-opacity:0.8;"/>
    <path clip-path="url(#pf07d0b9234)" d="M 200.021261 233.477624 
L 213.293173 223.759203 
L 215.655414 102.44726 
L 201.755478 111.366438 
z
" style="fill:#5d0618;fill-opacity:0.8;"/>
    <path clip-path="url(#pf07d0b9234)" d="M 176.124376 227.843029 
L 200.021261 233.477624 
L 201.755478 111.366438 
L 176.679638 106.19417 
z
" style="fill:#ba0c2f;fill-opacity:0.8;"/>
    <path clip-path="url(#pf07d0b9234)" d="M 176.679638 106.19417 
L 201.755478 111.366438 
L 215.655414 102.44726 
L 190.756172 97.381897 
z
" style="fill:#a30a29;fill-opacity:0.8;"/>
   </g>
  </g>
  <g id="patch_6">
   <path d="M 425.945455 262.8 
L 806.4 262.8 
L 806.4 -14.4 
L 425.945455 -14.4 
z
" style="fill:#ffffff;"/>
  </g>
  <g id="pane3d_4">
   <g id="patch_7">
    <path d="M 476.380584 201.548569 
L 585.268665 133.58541 
L 583.455794 3.718968 
L 468.496488 64.782468 
" style="fill:#f2f2f2;opacity:0.5;stroke:#f2f2f2;stroke-linejoin:miter;"/>
   </g>
  </g>
  <g id="pane3d_5">
   <g id="patch_8">
    <path d="M 585.268665 133.58541 
L 761.65712 171.581202 
L 769.037001 37.79869 
L 583.455794 3.718968 
" style="fill:#e6e6e6;opacity:0.5;stroke:#e6e6e6;stroke-linejoin:miter;"/>
   </g>
  </g>
  <g id="pane3d_6">
   <g id="patch_9">
    <path d="M 476.380584 201.548569 
L 661.965072 245.80086 
L 761.65712 171.581202 
L 585.268665 133.58541 
" style="fill:#ececec;opacity:0.5;stroke:#ececec;stroke-linejoin:miter;"/>
   </g>
  </g>
  <g id="axis3d_4">
   <g id="line2d_15">
    <path d="M 476.380584 201.548569 
L 661.965072 245.80086 
" style="fill:none;stroke:#000000;stroke-linecap:square;stroke-width:0.8;"/>
   </g>
   <g id="Line3DCollection_4">
    <path d="M 498.841271 206.90428 
L 606.679397 138.19749 
L 605.9393 7.847789 
" style="fill:none;stroke:#b0b0b0;stroke-width:0.8;"/>
    <path d="M 544.057792 217.686079 
L 649.729469 147.470895 
L 651.182353 16.156123 
" style="fill:none;stroke:#b0b0b0;stroke-width:0.8;"/>
    <path d="M 590.310744 228.715013 
L 693.693551 156.941187 
L 697.435637 24.649974 
" style="fill:none;stroke:#b0b0b0;stroke-width:0.8;"/>
    <path d="M 637.636176 239.999678 
L 738.601063 166.614702 
L 744.733372 33.335625 
" style="fill:none;stroke:#b0b0b0;stroke-width:0.8;"/>
   </g>
   <g id="xtick_12">
    <g id="line2d_16">
     <path d="M 499.770538 206.312217 
L 496.979262 208.09062 
" style="fill:none;stroke:#000000;stroke-linecap:square;stroke-width:0.8;"/>
    </g>
    <g id="text_13">
     <!-- 00 -->
     <g transform="translate(479.875817 237.14703)rotate(-45)scale(0.14 -0.14)">
      <use transform="scale(0.996264)" xlink:href="#CMR17-48"/>
      <use transform="translate(45.690477 0)scale(0.996264)" xlink:href="#CMR17-48"/>
     </g>
    </g>
   </g>
   <g id="xtick_13">
    <g id="line2d_17">
     <path d="M 544.969128 217.080527 
L 542.231671 218.899473 
" style="fill:none;stroke:#000000;stroke-linecap:square;stroke-width:0.8;"/>
    </g>
    <g id="text_14">
     <!-- 01 -->
     <g transform="translate(525.088242 248.103782)rotate(-45)scale(0.14 -0.14)">
      <use transform="scale(0.996264)" xlink:href="#CMR17-48"/>
      <use transform="translate(45.690477 0)scale(0.996264)" xlink:href="#CMR17-49"/>
     </g>
    </g>
   </g>
   <g id="xtick_14">
    <g id="line2d_18">
     <path d="M 591.20308 228.095506 
L 588.522658 229.956397 
" style="fill:none;stroke:#000000;stroke-linecap:square;stroke-width:0.8;"/>
    </g>
    <g id="text_15">
     <!-- 10 -->
     <g transform="translate(571.338855 259.312128)rotate(-45)scale(0.14 -0.14)">
      <use transform="scale(0.996264)" xlink:href="#CMR17-49"/>
      <use transform="translate(45.690477 0)scale(0.996264)" xlink:href="#CMR17-48"/>
     </g>
    </g>
   </g>
   <g id="xtick_15">
    <g id="line2d_19">
     <path d="M 638.50838 239.365727 
L 635.888391 241.270032 
" style="fill:none;stroke:#000000;stroke-linecap:square;stroke-width:0.8;"/>
    </g>
    <g id="text_16">
     <!-- 11 -->
     <g transform="translate(618.66383 270.780834)rotate(-45)scale(0.14 -0.14)">
      <use transform="scale(0.996264)" xlink:href="#CMR17-49"/>
      <use transform="translate(45.690477 0)scale(0.996264)" xlink:href="#CMR17-49"/>
     </g>
    </g>
   </g>
  </g>
  <g id="axis3d_5">
   <g id="line2d_20">
    <path d="M 761.65712 171.581202 
L 661.965072 245.80086 
" style="fill:none;stroke:#000000;stroke-linecap:square;stroke-width:0.8;"/>
   </g>
   <g id="Line3DCollection_5">
    <path d="M 484.000685 56.547028 
L 491.016499 192.413474 
L 675.403872 235.795817 
" style="fill:none;stroke:#b0b0b0;stroke-width:0.8;"/>
    <path d="M 513.777478 40.730342 
L 519.168861 174.842005 
L 701.219492 216.576366 
" style="fill:none;stroke:#b0b0b0;stroke-width:0.8;"/>
    <path d="M 542.401344 25.526062 
L 546.284836 157.917404 
L 726.04244 198.095948 
" style="fill:none;stroke:#b0b0b0;stroke-width:0.8;"/>
    <path d="M 569.937971 10.899296 
L 572.420618 141.604597 
L 749.928893 180.312741 
" style="fill:none;stroke:#b0b0b0;stroke-width:0.8;"/>
   </g>
   <g id="xtick_16">
    <g id="line2d_21">
     <path d="M 673.861052 235.432825 
L 678.492943 236.522608 
" style="fill:none;stroke:#000000;stroke-linecap:square;stroke-width:0.8;"/>
    </g>
    <g id="text_17">
     <!-- 00 -->
     <g transform="translate(689.195824 248.348363)rotate(-337.5)scale(0.14 -0.14)">
      <use transform="scale(0.996264)" xlink:href="#CMR17-48"/>
      <use transform="translate(45.690477 0)scale(0.996264)" xlink:href="#CMR17-48"/>
     </g>
    </g>
   </g>
   <g id="xtick_17">
    <g id="line2d_22">
     <path d="M 699.697534 216.227463 
L 704.266725 217.274932 
" style="fill:none;stroke:#000000;stroke-linecap:square;stroke-width:0.8;"/>
    </g>
    <g id="text_18">
     <!-- 01 -->
     <g transform="translate(714.749375 228.903937)rotate(-337.5)scale(0.14 -0.14)">
      <use transform="scale(0.996264)" xlink:href="#CMR17-48"/>
      <use transform="translate(45.690477 0)scale(0.996264)" xlink:href="#CMR17-49"/>
     </g>
    </g>
   </g>
   <g id="xtick_18">
    <g id="line2d_23">
     <path d="M 724.540896 197.76033 
L 729.048738 198.767901 
" style="fill:none;stroke:#000000;stroke-linecap:square;stroke-width:0.8;"/>
    </g>
    <g id="text_19">
     <!-- 10 -->
     <g transform="translate(739.320787 210.206849)rotate(-337.5)scale(0.14 -0.14)">
      <use transform="scale(0.996264)" xlink:href="#CMR17-49"/>
      <use transform="translate(45.690477 0)scale(0.996264)" xlink:href="#CMR17-48"/>
     </g>
    </g>
   </g>
   <g id="xtick_19">
    <g id="line2d_24">
     <path d="M 748.44732 179.989663 
L 752.895146 180.959573 
" style="fill:none;stroke:#000000;stroke-linecap:square;stroke-width:0.8;"/>
    </g>
    <g id="text_20">
     <!-- 11 -->
     <g transform="translate(762.965613 192.214827)rotate(-337.5)scale(0.14 -0.14)">
      <use transform="scale(0.996264)" xlink:href="#CMR17-49"/>
      <use transform="translate(45.690477 0)scale(0.996264)" xlink:href="#CMR17-49"/>
     </g>
    </g>
   </g>
  </g>
  <g id="axis3d_6">
   <g id="line2d_25">
    <path d="M 761.65712 171.581202 
L 769.037001 37.79869 
" style="fill:none;stroke:#000000;stroke-linecap:square;stroke-width:0.8;"/>
   </g>
   <g id="text_21">
    <!-- Im[$\rho$] -->
    <defs>
     <path d="M 19.703125 60.90625 
C 19.703125 65.390625 20.90625 65.390625 28.09375 65.390625 
L 28.09375 68 
C 24.90625 67.796875 19.796875 67.796875 16.40625 67.796875 
C 13 67.796875 7.90625 67.796875 4.703125 68 
L 4.703125 65.390625 
C 11.90625 65.390625 13.09375 65.390625 13.09375 60.90625 
L 13.09375 7.078125 
C 13.09375 2.59375 11.90625 2.59375 4.703125 2.59375 
L 4.703125 0 
C 7.90625 0.1875 13 0.1875 16.40625 0.1875 
C 19.796875 0.1875 24.90625 0.1875 28.09375 0 
L 28.09375 2.59375 
C 20.90625 2.59375 19.703125 2.59375 19.703125 7.078125 
z
" id="CMR17-73"/>
     <path d="M 67.59375 30.53125 
C 67.59375 35.5625 66.703125 44 54.796875 44 
C 48 44 43.296875 39.375 41.5 33.953125 
L 41.40625 33.953125 
C 40.203125 42.1875 34.296875 44 28.703125 44 
C 20.796875 44 16.703125 37.875 15.203125 33.84375 
L 15.09375 33.84375 
L 15.09375 44 
L 3.296875 42.890625 
L 3.296875 40.28125 
C 9.203125 40.28125 10.09375 39.6875 10.09375 34.859375 
L 10.09375 6.921875 
C 10.09375 3.09375 9.703125 2.59375 3.296875 2.59375 
L 3.296875 0 
C 5.703125 0.1875 10.09375 0.1875 12.703125 0.1875 
C 15.296875 0.1875 19.796875 0.1875 22.203125 0 
L 22.203125 2.59375 
C 15.796875 2.59375 15.40625 3 15.40625 6.921875 
L 15.40625 26.21875 
C 15.40625 35.453125 21 42.390625 28 42.390625 
C 35.40625 42.390625 36.203125 35.765625 36.203125 30.9375 
L 36.203125 6.921875 
C 36.203125 3.09375 35.796875 2.59375 29.40625 2.59375 
L 29.40625 0 
C 31.796875 0.1875 36.203125 0.1875 38.796875 0.1875 
C 41.40625 0.1875 45.90625 0.1875 48.296875 0 
L 48.296875 2.59375 
C 41.90625 2.59375 41.5 3 41.5 6.921875 
L 41.5 26.21875 
C 41.5 35.453125 47.09375 42.390625 54.09375 42.390625 
C 61.5 42.390625 62.296875 35.765625 62.296875 30.9375 
L 62.296875 6.921875 
C 62.296875 3.09375 61.90625 2.59375 55.5 2.59375 
L 55.5 0 
C 57.90625 0.1875 62.296875 0.1875 64.90625 0.1875 
C 67.5 0.1875 72 0.1875 74.40625 0 
L 74.40625 2.59375 
C 68 2.59375 67.59375 3 67.59375 6.921875 
z
" id="CMR17-109"/>
    </defs>
    <g transform="translate(809.026865 118.025317)rotate(-86.842577)scale(0.14 -0.14)">
     <use transform="scale(0.996264)" xlink:href="#CMR17-73"/>
     <use transform="translate(32.638409 0)scale(0.996264)" xlink:href="#CMR17-109"/>
     <use transform="translate(109.557999 0)scale(0.996264)" xlink:href="#CMR17-91"/>
     <use transform="translate(134.429058 0)scale(0.996264)" xlink:href="#CMMI12-26"/>
     <use transform="translate(184.74343 0)scale(0.996264)" xlink:href="#CMR17-93"/>
    </g>
   </g>
   <g id="Line3DCollection_6">
    <path d="M 761.858253 167.935052 
L 585.219152 130.038483 
L 476.166068 197.827341 
" style="fill:none;stroke:#b0b0b0;stroke-width:0.8;"/>
    <path d="M 764.578873 118.615642 
L 584.54999 82.102581 
L 473.262453 147.45808 
" style="fill:none;stroke:#b0b0b0;stroke-width:0.8;"/>
    <path d="M 767.406903 67.349115 
L 583.855549 32.355742 
L 470.240296 95.032457 
" style="fill:none;stroke:#b0b0b0;stroke-width:0.8;"/>
   </g>
   <g id="xtick_20">
    <g id="line2d_26">
     <path d="M 760.384426 167.618854 
L 764.808975 168.568107 
" style="fill:none;stroke:#000000;stroke-linecap:square;stroke-width:0.8;"/>
    </g>
    <g id="text_22">
     <!-- $0.0$ -->
     <g transform="translate(771.668614 175.681523)scale(0.14 -0.14)">
      <use transform="scale(0.996264)" xlink:href="#CMR17-48"/>
      <use transform="translate(45.690477 0)scale(0.996264)" xlink:href="#CMMI12-58"/>
      <use transform="translate(72.787654 0)scale(0.996264)" xlink:href="#CMR17-48"/>
     </g>
    </g>
   </g>
   <g id="xtick_21">
    <g id="line2d_27">
     <path d="M 763.075565 118.310745 
L 767.588679 119.226085 
" style="fill:none;stroke:#000000;stroke-linecap:square;stroke-width:0.8;"/>
    </g>
    <g id="text_23">
     <!-- $0.2$ -->
     <g transform="translate(774.741372 126.431491)scale(0.14 -0.14)">
      <use transform="scale(0.996264)" xlink:href="#CMR17-48"/>
      <use transform="translate(45.690477 0)scale(0.996264)" xlink:href="#CMMI12-58"/>
      <use transform="translate(72.787654 0)scale(0.996264)" xlink:href="#CMR17-50"/>
     </g>
    </g>
   </g>
   <g id="xtick_22">
    <g id="line2d_28">
     <path d="M 765.872912 67.056666 
L 770.478204 67.934647 
" style="fill:none;stroke:#000000;stroke-linecap:square;stroke-width:0.8;"/>
    </g>
    <g id="text_24">
     <!-- $0.4$ -->
     <g transform="translate(777.935173 75.241375)scale(0.14 -0.14)">
      <use transform="scale(0.996264)" xlink:href="#CMR17-48"/>
      <use transform="translate(45.690477 0)scale(0.996264)" xlink:href="#CMMI12-58"/>
      <use transform="translate(72.787654 0)scale(0.996264)" xlink:href="#CMR17-52"/>
     </g>
    </g>
   </g>
  </g>
  <g id="axes_2">
   <g id="Poly3DCollection_18">
    <path clip-path="url(#p1dfd7816ac)" d="M 589.583956 136.399414 
L 589.570699 135.321777 
L 610.975465 139.936818 
L 610.979806 141.018167 
z
" style="fill:#065d4c;fill-opacity:0.8;"/>
    <path clip-path="url(#p1dfd7816ac)" d="M 576.797836 144.430149 
L 576.779068 143.346071 
L 589.570699 135.321777 
L 589.583956 136.399414 
z
" style="fill:#0cba97;fill-opacity:0.8;"/>
    <path clip-path="url(#p1dfd7816ac)" d="M 576.797836 144.430149 
L 589.583956 136.399414 
L 610.979806 141.018167 
L 598.322099 149.133712 
z
" style="fill:#08745e;fill-opacity:0.8;"/>
    <path clip-path="url(#p1dfd7816ac)" d="M 576.779068 143.346071 
L 598.312354 148.04589 
L 610.975465 139.936818 
L 589.570699 135.321777 
z
" style="fill:#0aa384;fill-opacity:0.8;"/>
    <path clip-path="url(#p1dfd7816ac)" d="M 598.322099 149.133712 
L 610.979806 141.018167 
L 610.975465 139.936818 
L 598.312354 148.04589 
z
" style="fill:#065d4c;fill-opacity:0.8;"/>
    <path clip-path="url(#p1dfd7816ac)" d="M 576.797836 144.430149 
L 598.322099 149.133712 
L 598.312354 148.04589 
L 576.779068 143.346071 
z
" style="fill:#0cba97;fill-opacity:0.8;"/>
   </g>
   <g id="Poly3DCollection_19">
    <path clip-path="url(#p1dfd7816ac)" d="M 632.60117 145.685603 
L 632.602891 145.293657 
L 654.456713 150.009195 
L 654.451632 150.402495 
z
" style="fill:#065d4c;fill-opacity:0.8;"/>
    <path clip-path="url(#p1dfd7816ac)" d="M 620.075319 153.887308 
L 620.075129 153.493014 
L 632.602891 145.293657 
L 632.60117 145.685603 
z
" style="fill:#0cba97;fill-opacity:0.8;"/>
    <path clip-path="url(#p1dfd7816ac)" d="M 620.075319 153.887308 
L 632.60117 145.685603 
L 654.451632 150.402495 
L 642.06117 158.691739 
z
" style="fill:#08745e;fill-opacity:0.8;"/>
    <path clip-path="url(#p1dfd7816ac)" d="M 620.075129 153.493014 
L 642.06438 158.296079 
L 654.456713 150.009195 
L 632.602891 145.293657 
z
" style="fill:#0aa384;fill-opacity:0.8;"/>
    <path clip-path="url(#p1dfd7816ac)" d="M 642.06117 158.691739 
L 654.451632 150.402495 
L 654.456713 150.009195 
L 642.06438 158.296079 
z
" style="fill:#065d4c;fill-opacity:0.8;"/>
    <path clip-path="url(#p1dfd7816ac)" d="M 620.075319 153.887308 
L 642.06117 158.691739 
L 642.06438 158.296079 
L 620.075129 153.493014 
z
" style="fill:#0cba97;fill-opacity:0.8;"/>
   </g>
   <g id="Poly3DCollection_20">
    <path clip-path="url(#p1dfd7816ac)" d="M 563.776478 152.608634 
L 563.787002 153.077461 
L 585.436871 157.869813 
L 585.430273 157.399364 
z
" style="fill:#0cba97;fill-opacity:0.8;"/>
    <path clip-path="url(#p1dfd7816ac)" d="M 550.513329 160.938983 
L 550.5264 161.410624 
L 563.787002 153.077461 
L 563.776478 152.608634 
z
" style="fill:#065d4c;fill-opacity:0.8;"/>
    <path clip-path="url(#p1dfd7816ac)" d="M 550.5264 161.410624 
L 572.306869 166.292603 
L 585.436871 157.869813 
L 563.787002 153.077461 
z
" style="fill:#0aa384;fill-opacity:0.8;"/>
    <path clip-path="url(#p1dfd7816ac)" d="M 550.513329 160.938983 
L 563.776478 152.608634 
L 585.430273 157.399364 
L 572.297771 165.819325 
z
" style="fill:#08745e;fill-opacity:0.8;"/>
    <path clip-path="url(#p1dfd7816ac)" d="M 572.297771 165.819325 
L 585.430273 157.399364 
L 585.436871 157.869813 
L 572.306869 166.292603 
z
" style="fill:#0cba97;fill-opacity:0.8;"/>
    <path clip-path="url(#p1dfd7816ac)" d="M 550.513329 160.938983 
L 572.297771 165.819325 
L 572.306869 166.292603 
L 550.5264 161.410624 
z
" style="fill:#065d4c;fill-opacity:0.8;"/>
   </g>
   <g id="Poly3DCollection_21">
    <path clip-path="url(#p1dfd7816ac)" d="M 676.534854 155.169632 
L 676.556806 154.151741 
L 698.885564 158.966405 
L 698.854574 159.987823 
z
" style="fill:#065d4c;fill-opacity:0.8;"/>
    <path clip-path="url(#p1dfd7816ac)" d="M 664.283403 163.547825 
L 664.300644 162.523814 
L 676.556806 154.151741 
L 676.534854 155.169632 
z
" style="fill:#0cba97;fill-opacity:0.8;"/>
    <path clip-path="url(#p1dfd7816ac)" d="M 664.283403 163.547825 
L 676.534854 155.169632 
L 698.854574 159.987823 
L 686.745851 168.456404 
z
" style="fill:#08745e;fill-opacity:0.8;"/>
    <path clip-path="url(#p1dfd7816ac)" d="M 664.300644 162.523814 
L 686.772246 167.428836 
L 698.885564 158.966405 
L 676.556806 154.151741 
z
" style="fill:#0aa384;fill-opacity:0.8;"/>
    <path clip-path="url(#p1dfd7816ac)" d="M 686.745851 168.456404 
L 698.854574 159.987823 
L 698.885564 158.966405 
L 686.772246 167.428836 
z
" style="fill:#065d4c;fill-opacity:0.8;"/>
    <path clip-path="url(#p1dfd7816ac)" d="M 664.283403 163.547825 
L 686.745851 168.456404 
L 686.772246 167.428836 
L 664.300644 162.523814 
z
" style="fill:#0cba97;fill-opacity:0.8;"/>
   </g>
   <g id="Poly3DCollection_22">
    <path clip-path="url(#p1dfd7816ac)" d="M 607.316545 162.241528 
L 607.316164 162.172049 
L 629.43928 167.066238 
L 629.439058 167.135958 
z
" style="fill:#065d4c;fill-opacity:0.8;"/>
    <path clip-path="url(#p1dfd7816ac)" d="M 594.318288 170.752556 
L 594.317547 170.682659 
L 607.316164 162.172049 
L 607.316545 162.241528 
z
" style="fill:#0cba97;fill-opacity:0.8;"/>
    <path clip-path="url(#p1dfd7816ac)" d="M 594.318288 170.752556 
L 607.316545 162.241528 
L 629.439058 167.135958 
L 616.578738 175.739538 
z
" style="fill:#08745e;fill-opacity:0.8;"/>
    <path clip-path="url(#p1dfd7816ac)" d="M 594.317547 170.682659 
L 616.578608 175.669398 
L 629.43928 167.066238 
L 607.316164 162.172049 
z
" style="fill:#0aa384;fill-opacity:0.8;"/>
    <path clip-path="url(#p1dfd7816ac)" d="M 616.578738 175.739538 
L 629.439058 167.135958 
L 629.43928 167.066238 
L 616.578608 175.669398 
z
" style="fill:#065d4c;fill-opacity:0.8;"/>
    <path clip-path="url(#p1dfd7816ac)" d="M 594.318288 170.752556 
L 616.578738 175.739538 
L 616.578608 175.669398 
L 594.317547 170.682659 
z
" style="fill:#0cba97;fill-opacity:0.8;"/>
   </g>
   <g id="Poly3DCollection_23">
    <path clip-path="url(#p1dfd7816ac)" d="M 721.414612 164.857892 
L 721.414612 164.857892 
L 744.218871 169.78068 
L 744.218871 169.78068 
z
" style="fill:#065d4c;fill-opacity:0.8;"/>
    <path clip-path="url(#p1dfd7816ac)" d="M 709.45243 173.418331 
L 709.45243 173.418331 
L 721.414612 164.857892 
L 721.414612 164.857892 
z
" style="fill:#065d4c;fill-opacity:0.8;"/>
    <path clip-path="url(#p1dfd7816ac)" d="M 709.45243 173.418331 
L 721.414612 164.857892 
L 744.218871 169.78068 
L 732.407142 178.434482 
z
" style="fill:#08745e;fill-opacity:0.8;"/>
    <path clip-path="url(#p1dfd7816ac)" d="M 709.45243 173.418331 
L 732.407142 178.434482 
L 744.218871 169.78068 
L 721.414612 164.857892 
z
" style="fill:#0aa384;fill-opacity:0.8;"/>
    <path clip-path="url(#p1dfd7816ac)" d="M 732.407142 178.434482 
L 744.218871 169.78068 
L 744.218871 169.78068 
L 732.407142 178.434482 
z
" style="fill:#065d4c;fill-opacity:0.8;"/>
    <path clip-path="url(#p1dfd7816ac)" d="M 709.45243 173.418331 
L 732.407142 178.434482 
L 732.407142 178.434482 
L 709.45243 173.418331 
z
" style="fill:#065d4c;fill-opacity:0.8;"/>
   </g>
   <g id="Poly3DCollection_24">
    <path clip-path="url(#p1dfd7816ac)" d="M 537.001592 169.425465 
L 537.014801 169.824368 
L 558.92762 174.798248 
L 558.917792 174.397959 
z
" style="fill:#0cba97;fill-opacity:0.8;"/>
    <path clip-path="url(#p1dfd7816ac)" d="M 523.234212 178.072512 
L 523.249723 178.473821 
L 537.014801 169.824368 
L 537.001592 169.425465 
z
" style="fill:#065d4c;fill-opacity:0.8;"/>
    <path clip-path="url(#p1dfd7816ac)" d="M 523.249723 178.473821 
L 545.295361 183.542498 
L 558.92762 174.798248 
L 537.014801 169.824368 
z
" style="fill:#0aa384;fill-opacity:0.8;"/>
    <path clip-path="url(#p1dfd7816ac)" d="M 523.234212 178.072512 
L 537.001592 169.425465 
L 558.917792 174.397959 
L 545.283271 183.139792 
z
" style="fill:#08745e;fill-opacity:0.8;"/>
    <path clip-path="url(#p1dfd7816ac)" d="M 545.283271 183.139792 
L 558.917792 174.397959 
L 558.92762 174.798248 
L 545.295361 183.542498 
z
" style="fill:#0cba97;fill-opacity:0.8;"/>
    <path clip-path="url(#p1dfd7816ac)" d="M 523.234212 178.072512 
L 545.283271 183.139792 
L 545.295361 183.542498 
L 523.249723 178.473821 
z
" style="fill:#065d4c;fill-opacity:0.8;"/>
   </g>
   <g id="Poly3DCollection_25">
    <path clip-path="url(#p1dfd7816ac)" d="M 651.801658 172.083506 
L 651.801658 172.083506 
L 674.408275 177.08504 
L 674.408275 177.08504 
z
" style="fill:#065d4c;fill-opacity:0.8;"/>
    <path clip-path="url(#p1dfd7816ac)" d="M 639.083065 180.781156 
L 639.083065 180.781156 
L 651.801658 172.083506 
L 651.801658 172.083506 
z
" style="fill:#065d4c;fill-opacity:0.8;"/>
    <path clip-path="url(#p1dfd7816ac)" d="M 639.083065 180.781156 
L 661.835297 185.878311 
L 674.408275 177.08504 
L 651.801658 172.083506 
z
" style="fill:#0aa384;fill-opacity:0.8;"/>
    <path clip-path="url(#p1dfd7816ac)" d="M 639.083065 180.781156 
L 651.801658 172.083506 
L 674.408275 177.08504 
L 661.835297 185.878311 
z
" style="fill:#08745e;fill-opacity:0.8;"/>
    <path clip-path="url(#p1dfd7816ac)" d="M 661.835297 185.878311 
L 674.408275 177.08504 
L 674.408275 177.08504 
L 661.835297 185.878311 
z
" style="fill:#065d4c;fill-opacity:0.8;"/>
    <path clip-path="url(#p1dfd7816ac)" d="M 639.083065 180.781156 
L 661.835297 185.878311 
L 661.835297 185.878311 
L 639.083065 180.781156 
z
" style="fill:#065d4c;fill-opacity:0.8;"/>
   </g>
   <g id="Poly3DCollection_26">
    <path clip-path="url(#p1dfd7816ac)" d="M 581.073744 179.424849 
L 581.073744 179.424849 
L 603.473404 184.507034 
L 603.473404 184.507034 
z
" style="fill:#065d4c;fill-opacity:0.8;"/>
    <path clip-path="url(#p1dfd7816ac)" d="M 567.575843 188.263035 
L 567.575843 188.263035 
L 581.073744 179.424849 
L 581.073744 179.424849 
z
" style="fill:#065d4c;fill-opacity:0.8;"/>
    <path clip-path="url(#p1dfd7816ac)" d="M 567.575843 188.263035 
L 581.073744 179.424849 
L 603.473404 184.507034 
L 590.115985 193.443174 
z
" style="fill:#08745e;fill-opacity:0.8;"/>
    <path clip-path="url(#p1dfd7816ac)" d="M 567.575843 188.263035 
L 590.115985 193.443174 
L 603.473404 184.507034 
L 581.073744 179.424849 
z
" style="fill:#0aa384;fill-opacity:0.8;"/>
    <path clip-path="url(#p1dfd7816ac)" d="M 590.115985 193.443174 
L 603.473404 184.507034 
L 603.473404 184.507034 
L 590.115985 193.443174 
z
" style="fill:#065d4c;fill-opacity:0.8;"/>
    <path clip-path="url(#p1dfd7816ac)" d="M 567.575843 188.263035 
L 590.115985 193.443174 
L 590.115985 193.443174 
L 567.575843 188.263035 
z
" style="fill:#065d4c;fill-opacity:0.8;"/>
   </g>
   <g id="Poly3DCollection_27">
    <path clip-path="url(#p1dfd7816ac)" d="M 697.262925 182.14145 
L 697.231853 183.177972 
L 720.328963 188.293777 
L 720.369711 187.253643 
z
" style="fill:#0cba97;fill-opacity:0.8;"/>
    <path clip-path="url(#p1dfd7816ac)" d="M 684.839554 191.031928 
L 684.813315 192.074718 
L 697.231853 183.177972 
L 697.262925 182.14145 
z
" style="fill:#065d4c;fill-opacity:0.8;"/>
    <path clip-path="url(#p1dfd7816ac)" d="M 684.813315 192.074718 
L 708.064001 197.289379 
L 720.328963 188.293777 
L 697.231853 183.177972 
z
" style="fill:#0aa384;fill-opacity:0.8;"/>
    <path clip-path="url(#p1dfd7816ac)" d="M 684.839554 191.031928 
L 697.262925 182.14145 
L 720.369711 187.253643 
L 708.100046 196.242948 
z
" style="fill:#08745e;fill-opacity:0.8;"/>
    <path clip-path="url(#p1dfd7816ac)" d="M 708.100046 196.242948 
L 720.369711 187.253643 
L 720.328963 188.293777 
L 708.064001 197.289379 
z
" style="fill:#0cba97;fill-opacity:0.8;"/>
    <path clip-path="url(#p1dfd7816ac)" d="M 684.839554 191.031928 
L 708.100046 196.242948 
L 708.064001 197.289379 
L 684.813315 192.074718 
z
" style="fill:#065d4c;fill-opacity:0.8;"/>
   </g>
   <g id="Poly3DCollection_28">
    <path clip-path="url(#p1dfd7816ac)" d="M 509.203865 186.884725 
L 509.203865 186.884725 
L 531.386877 192.049526 
L 531.386877 192.049526 
z
" style="fill:#065d4c;fill-opacity:0.8;"/>
    <path clip-path="url(#p1dfd7816ac)" d="M 494.902943 195.866881 
L 494.902943 195.866881 
L 509.203865 186.884725 
L 509.203865 186.884725 
z
" style="fill:#065d4c;fill-opacity:0.8;"/>
    <path clip-path="url(#p1dfd7816ac)" d="M 494.902943 195.866881 
L 509.203865 186.884725 
L 531.386877 192.049526 
L 517.220992 201.132047 
z
" style="fill:#08745e;fill-opacity:0.8;"/>
    <path clip-path="url(#p1dfd7816ac)" d="M 494.902943 195.866881 
L 517.220992 201.132047 
L 531.386877 192.049526 
L 509.203865 186.884725 
z
" style="fill:#0aa384;fill-opacity:0.8;"/>
    <path clip-path="url(#p1dfd7816ac)" d="M 517.220992 201.132047 
L 531.386877 192.049526 
L 531.386877 192.049526 
L 517.220992 201.132047 
z
" style="fill:#065d4c;fill-opacity:0.8;"/>
    <path clip-path="url(#p1dfd7816ac)" d="M 494.902943 195.866881 
L 517.220992 201.132047 
L 517.220992 201.132047 
L 494.902943 195.866881 
z
" style="fill:#065d4c;fill-opacity:0.8;"/>
   </g>
   <g id="Poly3DCollection_29">
    <path clip-path="url(#p1dfd7816ac)" d="M 626.120816 189.64543 
L 626.120682 189.716236 
L 649.019333 194.912029 
L 649.020114 194.840975 
z
" style="fill:#0cba97;fill-opacity:0.8;"/>
    <path clip-path="url(#p1dfd7816ac)" d="M 612.907843 198.681163 
L 612.908081 198.752398 
L 626.120682 189.716236 
L 626.120816 189.64543 
z
" style="fill:#065d4c;fill-opacity:0.8;"/>
    <path clip-path="url(#p1dfd7816ac)" d="M 612.908081 198.752398 
L 635.955242 204.049459 
L 649.019333 194.912029 
L 626.120682 189.716236 
z
" style="fill:#0aa384;fill-opacity:0.8;"/>
    <path clip-path="url(#p1dfd7816ac)" d="M 612.907843 198.681163 
L 626.120816 189.64543 
L 649.020114 194.840975 
L 635.955659 203.977975 
z
" style="fill:#08745e;fill-opacity:0.8;"/>
    <path clip-path="url(#p1dfd7816ac)" d="M 635.955659 203.977975 
L 649.020114 194.840975 
L 649.019333 194.912029 
L 635.955242 204.049459 
z
" style="fill:#0cba97;fill-opacity:0.8;"/>
    <path clip-path="url(#p1dfd7816ac)" d="M 612.907843 198.681163 
L 635.955659 203.977975 
L 635.955242 204.049459 
L 612.908081 198.752398 
z
" style="fill:#065d4c;fill-opacity:0.8;"/>
   </g>
   <g id="Poly3DCollection_30">
    <path clip-path="url(#p1dfd7816ac)" d="M 553.817248 197.27192 
L 553.806348 196.86523 
L 576.49186 202.144761 
L 576.499138 202.552873 
z
" style="fill:#065d4c;fill-opacity:0.8;"/>
    <path clip-path="url(#p1dfd7816ac)" d="M 539.790331 206.456496 
L 539.777038 206.047338 
L 553.806348 196.86523 
L 553.817248 197.27192 
z
" style="fill:#0cba97;fill-opacity:0.8;"/>
    <path clip-path="url(#p1dfd7816ac)" d="M 539.790331 206.456496 
L 553.817248 197.27192 
L 576.499138 202.552873 
L 562.61523 211.841236 
z
" style="fill:#08745e;fill-opacity:0.8;"/>
    <path clip-path="url(#p1dfd7816ac)" d="M 539.777038 206.047338 
L 562.605605 211.430644 
L 576.49186 202.144761 
L 553.806348 196.86523 
z
" style="fill:#0aa384;fill-opacity:0.8;"/>
    <path clip-path="url(#p1dfd7816ac)" d="M 562.61523 211.841236 
L 576.499138 202.552873 
L 576.49186 202.144761 
L 562.605605 211.430644 
z
" style="fill:#065d4c;fill-opacity:0.8;"/>
    <path clip-path="url(#p1dfd7816ac)" d="M 539.790331 206.456496 
L 562.61523 211.841236 
L 562.605605 211.430644 
L 539.777038 206.047338 
z
" style="fill:#0cba97;fill-opacity:0.8;"/>
   </g>
   <g id="Poly3DCollection_31">
    <path clip-path="url(#p1dfd7816ac)" d="M 672.175522 200.094629 
L 672.167294 200.501595 
L 695.579278 205.815761 
L 695.591361 205.407371 
z
" style="fill:#0cba97;fill-opacity:0.8;"/>
    <path clip-path="url(#p1dfd7816ac)" d="M 659.263767 209.334607 
L 659.257568 209.744043 
L 672.167294 200.501595 
L 672.175522 200.094629 
z
" style="fill:#065d4c;fill-opacity:0.8;"/>
    <path clip-path="url(#p1dfd7816ac)" d="M 659.257568 209.744043 
L 682.826496 215.162949 
L 695.579278 205.815761 
L 672.167294 200.501595 
z
" style="fill:#0aa384;fill-opacity:0.8;"/>
    <path clip-path="url(#p1dfd7816ac)" d="M 659.263767 209.334607 
L 672.175522 200.094629 
L 695.591361 205.407371 
L 682.836603 214.752078 
z
" style="fill:#08745e;fill-opacity:0.8;"/>
    <path clip-path="url(#p1dfd7816ac)" d="M 682.836603 214.752078 
L 695.591361 205.407371 
L 695.579278 205.815761 
L 682.826496 215.162949 
z
" style="fill:#0cba97;fill-opacity:0.8;"/>
    <path clip-path="url(#p1dfd7816ac)" d="M 659.263767 209.334607 
L 682.836603 214.752078 
L 682.826496 215.162949 
L 659.257568 209.744043 
z
" style="fill:#065d4c;fill-opacity:0.8;"/>
   </g>
   <g id="Poly3DCollection_32">
    <path clip-path="url(#p1dfd7816ac)" d="M 599.436801 207.893378 
L 599.432551 207.406214 
L 622.634846 212.805575 
L 622.634588 213.294446 
z
" style="fill:#065d4c;fill-opacity:0.8;"/>
    <path clip-path="url(#p1dfd7816ac)" d="M 585.700053 217.287296 
L 585.693067 216.79717 
L 599.432551 207.406214 
L 599.436801 207.893378 
z
" style="fill:#0cba97;fill-opacity:0.8;"/>
    <path clip-path="url(#p1dfd7816ac)" d="M 585.700053 217.287296 
L 599.436801 207.893378 
L 622.634588 213.294446 
L 609.049266 222.795729 
z
" style="fill:#08745e;fill-opacity:0.8;"/>
    <path clip-path="url(#p1dfd7816ac)" d="M 585.693067 216.79717 
L 609.046846 222.303883 
L 622.634846 212.805575 
L 599.432551 207.406214 
z
" style="fill:#0aa384;fill-opacity:0.8;"/>
    <path clip-path="url(#p1dfd7816ac)" d="M 609.049266 222.795729 
L 622.634588 213.294446 
L 622.634846 212.805575 
L 609.046846 222.303883 
z
" style="fill:#065d4c;fill-opacity:0.8;"/>
    <path clip-path="url(#p1dfd7816ac)" d="M 585.700053 217.287296 
L 609.049266 222.795729 
L 609.046846 222.303883 
L 585.693067 216.79717 
z
" style="fill:#0cba97;fill-opacity:0.8;"/>
   </g>
   <g id="Poly3DCollection_33">
    <path clip-path="url(#p1dfd7816ac)" d="M 646.09695 218.757114 
L 646.085638 219.896865 
L 669.806167 225.42619 
L 669.828438 224.282442 
z
" style="fill:#0cba97;fill-opacity:0.8;"/>
    <path clip-path="url(#p1dfd7816ac)" d="M 632.667437 228.367613 
L 632.662203 229.514298 
L 646.085638 219.896865 
L 646.09695 218.757114 
z
" style="fill:#065d4c;fill-opacity:0.8;"/>
    <path clip-path="url(#p1dfd7816ac)" d="M 632.662203 229.514298 
L 656.542897 235.154762 
L 669.806167 225.42619 
L 646.085638 219.896865 
z
" style="fill:#0aa384;fill-opacity:0.8;"/>
    <path clip-path="url(#p1dfd7816ac)" d="M 632.667437 228.367613 
L 646.09695 218.757114 
L 669.828438 224.282442 
L 656.559239 234.004052 
z
" style="fill:#08745e;fill-opacity:0.8;"/>
    <path clip-path="url(#p1dfd7816ac)" d="M 656.559239 234.004052 
L 669.828438 224.282442 
L 669.806167 225.42619 
L 656.542897 235.154762 
z
" style="fill:#0cba97;fill-opacity:0.8;"/>
    <path clip-path="url(#p1dfd7816ac)" d="M 632.667437 228.367613 
L 656.559239 234.004052 
L 656.542897 235.154762 
L 632.662203 229.514298 
z
" style="fill:#065d4c;fill-opacity:0.8;"/>
   </g>
   <g id="Poly3DCollection_34">
    <path clip-path="url(#p1dfd7816ac)" d="M 482.063211 197.210316 
L 660.299713 239.455131 
L 756.322125 168.514304 
L 586.584141 132.027713 
z
" style="fill-opacity:0.2;"/>
   </g>
  </g>
 </g>
 <defs>
  <clipPath id="pf07d0b9234">
   <rect height="277.2" width="380.454545" x="-30.6" y="-14.4"/>
  </clipPath>
  <clipPath id="p1dfd7816ac">
   <rect height="277.2" width="380.454545" x="425.945455" y="-14.4"/>
  </clipPath>
 </defs>
</svg>
