<?xml version="1.0" encoding="utf-8" standalone="no"?>
<!DOCTYPE svg PUBLIC "-//W3C//DTD SVG 1.1//EN"
  "http://www.w3.org/Graphics/SVG/1.1/DTD/svg11.dtd">
<!-- Created with matplotlib (https://matplotlib.org/) -->
<svg height="302.4pt" version="1.1" viewBox="0 0 820.8 302.4" width="820.8pt" xmlns="http://www.w3.org/2000/svg" xmlns:xlink="http://www.w3.org/1999/xlink">
 <defs>
  <style type="text/css">
*{stroke-linecap:butt;stroke-linejoin:round;}
  </style>
 </defs>
 <g id="figure_1">
  <g id="patch_1">
   <path d="M 0 302.4 
L 820.8 302.4 
L 820.8 0 
L 0 0 
z
" style="fill:#ffffff;"/>
  </g>
  <g id="patch_2">
   <path d="M -30.6 262.8 
L 349.854545 262.8 
L 349.854545 -14.4 
L -30.6 -14.4 
z
" style="fill:#ffffff;"/>
  </g>
  <g id="pane3d_1">
   <g id="patch_3">
    <path d="M 19.835129 201.548569 
L 128.723211 133.58541 
L 126.910339 3.718968 
L 11.951034 64.782468 
" style="fill:#f2f2f2;opacity:0.5;stroke:#f2f2f2;stroke-linejoin:miter;"/>
   </g>
  </g>
  <g id="pane3d_2">
   <g id="patch_4">
    <path d="M 128.723211 133.58541 
L 305.111665 171.581202 
L 312.491547 37.79869 
L 126.910339 3.718968 
" style="fill:#e6e6e6;opacity:0.5;stroke:#e6e6e6;stroke-linejoin:miter;"/>
   </g>
  </g>
  <g id="pane3d_3">
   <g id="patch_5">
    <path d="M 19.835129 201.548569 
L 205.419617 245.80086 
L 305.111665 171.581202 
L 128.723211 133.58541 
" style="fill:#ececec;opacity:0.5;stroke:#ececec;stroke-linejoin:miter;"/>
   </g>
  </g>
  <g id="axis3d_1">
   <g id="line2d_1">
    <path d="M 19.835129 201.548569 
L 205.419617 245.80086 
" style="fill:none;stroke:#000000;stroke-linecap:square;stroke-width:0.8;"/>
   </g>
   <g id="Line3DCollection_1">
    <path d="M 42.295817 206.90428 
L 150.133942 138.19749 
L 149.393845 7.847789 
" style="fill:none;stroke:#b0b0b0;stroke-width:0.8;"/>
    <path d="M 87.512337 217.686079 
L 193.184014 147.470895 
L 194.636898 16.156123 
" style="fill:none;stroke:#b0b0b0;stroke-width:0.8;"/>
    <path d="M 133.765289 228.715013 
L 237.148096 156.941187 
L 240.890183 24.649974 
" style="fill:none;stroke:#b0b0b0;stroke-width:0.8;"/>
    <path d="M 181.090721 239.999678 
L 282.055608 166.614702 
L 288.187917 33.335625 
" style="fill:none;stroke:#b0b0b0;stroke-width:0.8;"/>
   </g>
   <g id="xtick_1">
    <g id="line2d_2">
     <path d="M 43.225084 206.312217 
L 40.433807 208.09062 
" style="fill:none;stroke:#000000;stroke-linecap:square;stroke-width:0.8;"/>
    </g>
    <g id="text_1">
     <!-- 00 -->
     <defs>
      <path d="M 42 31.84375 
C 42 37.96875 41.90625 48.421875 37.703125 56.453125 
C 34 63.484375 28.09375 66 22.90625 66 
C 18.09375 66 12 63.78125 8.203125 56.5625 
C 4.203125 49.015625 3.796875 39.671875 3.796875 31.84375 
C 3.796875 26.109375 3.90625 17.375 7 9.734375 
C 11.296875 -0.609375 19 -2 22.90625 -2 
C 27.5 -2 34.5 -0.109375 38.59375 9.4375 
C 41.59375 16.375 42 24.5 42 31.84375 
z
M 22.90625 -0.40625 
C 16.5 -0.40625 12.703125 5.125 11.296875 12.75 
C 10.203125 18.6875 10.203125 27.328125 10.203125 32.953125 
C 10.203125 40.6875 10.203125 47.109375 11.5 53.234375 
C 13.40625 61.78125 19 64.390625 22.90625 64.390625 
C 27 64.390625 32.296875 61.671875 34.203125 53.4375 
C 35.5 47.71875 35.59375 40.984375 35.59375 32.953125 
C 35.59375 26.421875 35.59375 18.375 34.40625 12.453125 
C 32.296875 1.5 26.40625 -0.40625 22.90625 -0.40625 
z
" id="CMR17-48"/>
     </defs>
     <g transform="translate(23.330362 237.14703)rotate(-45)scale(0.14 -0.14)">
      <use transform="scale(0.996264)" xlink:href="#CMR17-48"/>
      <use transform="translate(45.690477 0)scale(0.996264)" xlink:href="#CMR17-48"/>
     </g>
    </g>
   </g>
   <g id="xtick_2">
    <g id="line2d_3">
     <path d="M 88.423674 217.080527 
L 85.686217 218.899473 
" style="fill:none;stroke:#000000;stroke-linecap:square;stroke-width:0.8;"/>
    </g>
    <g id="text_2">
     <!-- 01 -->
     <defs>
      <path d="M 26.59375 63.796875 
C 26.59375 65.890625 26.5 66 25.09375 66 
C 21.203125 61.359375 15.296875 59.890625 9.703125 59.6875 
C 9.40625 59.6875 8.90625 59.6875 8.796875 59.5 
C 8.703125 59.296875 8.703125 59.09375 8.703125 57 
C 11.796875 57 17 57.59375 21 59.984375 
L 21 7.296875 
C 21 3.796875 20.796875 2.59375 12.203125 2.59375 
L 9.203125 2.59375 
L 9.203125 0 
C 14 0.09375 19 0.1875 23.796875 0.1875 
C 28.59375 0.1875 33.59375 0.09375 38.40625 0 
L 38.40625 2.59375 
L 35.40625 2.59375 
C 26.796875 2.59375 26.59375 3.6875 26.59375 7.296875 
z
" id="CMR17-49"/>
     </defs>
     <g transform="translate(68.542787 248.103782)rotate(-45)scale(0.14 -0.14)">
      <use transform="scale(0.996264)" xlink:href="#CMR17-48"/>
      <use transform="translate(45.690477 0)scale(0.996264)" xlink:href="#CMR17-49"/>
     </g>
    </g>
   </g>
   <g id="xtick_3">
    <g id="line2d_4">
     <path d="M 134.657625 228.095506 
L 131.977203 229.956397 
" style="fill:none;stroke:#000000;stroke-linecap:square;stroke-width:0.8;"/>
    </g>
    <g id="text_3">
     <!-- 10 -->
     <g transform="translate(114.7934 259.312128)rotate(-45)scale(0.14 -0.14)">
      <use transform="scale(0.996264)" xlink:href="#CMR17-49"/>
      <use transform="translate(45.690477 0)scale(0.996264)" xlink:href="#CMR17-48"/>
     </g>
    </g>
   </g>
   <g id="xtick_4">
    <g id="line2d_5">
     <path d="M 181.962926 239.365727 
L 179.342936 241.270032 
" style="fill:none;stroke:#000000;stroke-linecap:square;stroke-width:0.8;"/>
    </g>
    <g id="text_4">
     <!-- 11 -->
     <g transform="translate(162.118375 270.780834)rotate(-45)scale(0.14 -0.14)">
      <use transform="scale(0.996264)" xlink:href="#CMR17-49"/>
      <use transform="translate(45.690477 0)scale(0.996264)" xlink:href="#CMR17-49"/>
     </g>
    </g>
   </g>
  </g>
  <g id="axis3d_2">
   <g id="line2d_6">
    <path d="M 305.111665 171.581202 
L 205.419617 245.80086 
" style="fill:none;stroke:#000000;stroke-linecap:square;stroke-width:0.8;"/>
   </g>
   <g id="Line3DCollection_2">
    <path d="M 27.455231 56.547028 
L 34.471044 192.413474 
L 218.858418 235.795817 
" style="fill:none;stroke:#b0b0b0;stroke-width:0.8;"/>
    <path d="M 57.232024 40.730342 
L 62.623407 174.842005 
L 244.674037 216.576366 
" style="fill:none;stroke:#b0b0b0;stroke-width:0.8;"/>
    <path d="M 85.85589 25.526062 
L 89.739382 157.917404 
L 269.496985 198.095948 
" style="fill:none;stroke:#b0b0b0;stroke-width:0.8;"/>
    <path d="M 113.392516 10.899296 
L 115.875164 141.604597 
L 293.383438 180.312741 
" style="fill:none;stroke:#b0b0b0;stroke-width:0.8;"/>
   </g>
   <g id="xtick_5">
    <g id="line2d_7">
     <path d="M 217.315598 235.432825 
L 221.947489 236.522608 
" style="fill:none;stroke:#000000;stroke-linecap:square;stroke-width:0.8;"/>
    </g>
    <g id="text_5">
     <!-- 00 -->
     <g transform="translate(232.650369 248.348363)rotate(-337.5)scale(0.14 -0.14)">
      <use transform="scale(0.996264)" xlink:href="#CMR17-48"/>
      <use transform="translate(45.690477 0)scale(0.996264)" xlink:href="#CMR17-48"/>
     </g>
    </g>
   </g>
   <g id="xtick_6">
    <g id="line2d_8">
     <path d="M 243.15208 216.227463 
L 247.72127 217.274932 
" style="fill:none;stroke:#000000;stroke-linecap:square;stroke-width:0.8;"/>
    </g>
    <g id="text_6">
     <!-- 01 -->
     <g transform="translate(258.203921 228.903937)rotate(-337.5)scale(0.14 -0.14)">
      <use transform="scale(0.996264)" xlink:href="#CMR17-48"/>
      <use transform="translate(45.690477 0)scale(0.996264)" xlink:href="#CMR17-49"/>
     </g>
    </g>
   </g>
   <g id="xtick_7">
    <g id="line2d_9">
     <path d="M 267.995442 197.76033 
L 272.503283 198.767901 
" style="fill:none;stroke:#000000;stroke-linecap:square;stroke-width:0.8;"/>
    </g>
    <g id="text_7">
     <!-- 10 -->
     <g transform="translate(282.775332 210.206849)rotate(-337.5)scale(0.14 -0.14)">
      <use transform="scale(0.996264)" xlink:href="#CMR17-49"/>
      <use transform="translate(45.690477 0)scale(0.996264)" xlink:href="#CMR17-48"/>
     </g>
    </g>
   </g>
   <g id="xtick_8">
    <g id="line2d_10">
     <path d="M 291.901865 179.989663 
L 296.349691 180.959573 
" style="fill:none;stroke:#000000;stroke-linecap:square;stroke-width:0.8;"/>
    </g>
    <g id="text_8">
     <!-- 11 -->
     <g transform="translate(306.420159 192.214827)rotate(-337.5)scale(0.14 -0.14)">
      <use transform="scale(0.996264)" xlink:href="#CMR17-49"/>
      <use transform="translate(45.690477 0)scale(0.996264)" xlink:href="#CMR17-49"/>
     </g>
    </g>
   </g>
  </g>
  <g id="axis3d_3">
   <g id="line2d_11">
    <path d="M 305.111665 171.581202 
L 312.491547 37.79869 
" style="fill:none;stroke:#000000;stroke-linecap:square;stroke-width:0.8;"/>
   </g>
   <g id="text_9">
    <!-- Re[$\rho$] -->
    <defs>
     <path d="M 39.203125 33.6875 
C 48.703125 35.59375 56.703125 42.015625 56.703125 50.046875 
C 56.703125 59.46875 46.09375 68 32.09375 68 
L 5.203125 68 
L 5.203125 65.390625 
C 12.09375 65.390625 13.203125 65.390625 13.203125 60.875 
L 13.203125 6.6875 
C 13.203125 2.1875 12.09375 2.1875 5.203125 2.1875 
L 5.203125 -0.40625 
C 8.09375 -0.203125 13.296875 -0.203125 16.40625 -0.203125 
C 19.5 -0.203125 24.703125 -0.203125 27.59375 -0.40625 
L 27.59375 2.1875 
C 20.703125 2.1875 19.59375 2.1875 19.59375 6.6875 
L 19.59375 33 
L 31.296875 33 
C 37 33 40.203125 30.6875 41.59375 29.390625 
C 45.59375 25.5 45.59375 22.796875 45.59375 16 
C 45.59375 9.296875 45.59375 5.890625 48.59375 2.5 
C 52.40625 -1.609375 57.5 -2 59.703125 -2 
C 67.09375 -2 68.203125 6.296875 68.203125 8 
C 68.203125 8.59375 68.203125 9.296875 67.296875 9.296875 
C 66.5 9.296875 66.40625 8.6875 66.40625 8.296875 
C 65.90625 1.796875 63 -0.40625 59.90625 -0.40625 
C 54.40625 -0.40625 53.796875 5.890625 53.203125 12 
C 52.90625 14.09375 52.703125 15.59375 52.5 17.796875 
C 51.90625 22.796875 51.09375 30.09375 39.203125 33.6875 
z
M 31 34.59375 
L 19.59375 34.59375 
L 19.59375 61.484375 
C 19.59375 64.890625 19.796875 65.390625 23.796875 65.390625 
L 31.09375 65.390625 
C 39.40625 65.390625 49.09375 62.484375 49.09375 50.046875 
C 49.09375 37.09375 38.5 34.59375 31 34.59375 
z
" id="CMR17-82"/>
     <path d="M 38.09375 23.484375 
C 38.5 23.890625 38.5 24.09375 38.5 25.09375 
C 38.5 35.171875 33.09375 44 21.703125 44 
C 11.09375 44 2.703125 33.984375 2.703125 21.78125 
C 2.703125 8.65625 12.203125 -1 22.796875 -1 
C 34 -1 38.40625 9.671875 38.40625 11.796875 
C 38.40625 12.5 37.796875 12.5 37.59375 12.5 
C 36.90625 12.5 36.796875 12.296875 36.40625 11.078125 
C 34.203125 4.21875 28.703125 0.796875 23.5 0.796875 
C 19.203125 0.796875 14.90625 3.21875 12.203125 7.65625 
C 9.09375 12.796875 9.09375 18.75 9.09375 23.484375 
z
M 9.203125 25 
C 9.90625 39.234375 17.59375 42.390625 21.59375 42.390625 
C 28.40625 42.390625 33 36.0625 33.09375 25 
z
" id="CMR17-101"/>
     <path d="M 23.5 -25 
L 23.5 -21.5 
L 14.09375 -21.5 
L 14.09375 71.484375 
L 23.5 71.484375 
L 23.5 75 
L 10.59375 75 
L 10.59375 -25 
z
" id="CMR17-91"/>
     <path d="M 3.09375 -16.953125 
C 3 -17.4375 2.796875 -18.03125 2.796875 -18.609375 
C 2.796875 -20.109375 4 -21.109375 5.5 -21.109375 
C 7 -21.109375 8.40625 -20.109375 9 -18.71875 
C 9.40625 -17.828125 12.203125 -6.09375 15.40625 6.078125 
C 17.40625 1.09375 21.09375 -1 25 -1 
C 36.296875 -1 49.09375 12.96875 49.09375 28.03125 
C 49.09375 38.703125 42.59375 44 35.703125 44 
C 26.90625 44 16.203125 34.90625 12.90625 21.640625 
z
M 24.90625 1 
C 18.09375 1 16.40625 8.875 16.40625 10.078125 
C 16.40625 10.671875 18.90625 20.140625 19.203125 21.640625 
C 24.296875 41.5 34.09375 41.984375 35.59375 41.984375 
C 40.09375 41.984375 42.59375 37.90625 42.59375 32.015625 
C 42.59375 26.9375 39.90625 17.046875 38.203125 12.859375 
C 35.203125 5.984375 30 1 24.90625 1 
z
" id="CMMI12-26"/>
     <path d="M 14.296875 75 
L 1.40625 75 
L 1.40625 71.484375 
L 10.796875 71.484375 
L 10.796875 -21.5 
L 1.40625 -21.5 
L 1.40625 -25 
L 14.296875 -25 
z
" id="CMR17-93"/>
    </defs>
    <g transform="translate(352.486567 117.931831)rotate(-86.842577)scale(0.14 -0.14)">
     <use transform="scale(0.996264)" xlink:href="#CMR17-82"/>
     <use transform="translate(67.791102 0)scale(0.996264)" xlink:href="#CMR17-101"/>
     <use transform="translate(108.276762 0)scale(0.996264)" xlink:href="#CMR17-91"/>
     <use transform="translate(133.147821 0)scale(0.996264)" xlink:href="#CMMI12-26"/>
     <use transform="translate(183.462194 0)scale(0.996264)" xlink:href="#CMR17-93"/>
    </g>
   </g>
   <g id="Line3DCollection_3">
    <path d="M 305.29635 168.233238 
L 128.677746 130.328538 
L 19.638157 198.131679 
" style="fill:none;stroke:#b0b0b0;stroke-width:0.8;"/>
    <path d="M 308.030887 118.661546 
L 128.005158 82.147161 
L 16.719703 147.504991 
" style="fill:none;stroke:#b0b0b0;stroke-width:0.8;"/>
    <path d="M 310.873959 67.122333 
L 127.307025 32.135866 
L 13.681464 94.800394 
" style="fill:none;stroke:#b0b0b0;stroke-width:0.8;"/>
   </g>
   <g id="xtick_9">
    <g id="line2d_12">
     <path d="M 303.822701 167.916973 
L 308.246715 168.866425 
" style="fill:none;stroke:#000000;stroke-linecap:square;stroke-width:0.8;"/>
    </g>
    <g id="text_10">
     <!-- $0.0$ -->
     <defs>
      <path d="M 18.40625 4.796875 
C 18.40625 7.6875 16 9.6875 13.59375 9.6875 
C 10.703125 9.6875 8.703125 7.296875 8.703125 4.890625 
C 8.703125 2 11.09375 0 13.5 0 
C 16.40625 0 18.40625 2.390625 18.40625 4.796875 
z
" id="CMMI12-58"/>
     </defs>
     <g transform="translate(315.104581 175.979302)scale(0.14 -0.14)">
      <use transform="scale(0.996264)" xlink:href="#CMR17-48"/>
      <use transform="translate(45.690477 0)scale(0.996264)" xlink:href="#CMMI12-58"/>
      <use transform="translate(72.787654 0)scale(0.996264)" xlink:href="#CMR17-48"/>
     </g>
    </g>
   </g>
   <g id="xtick_10">
    <g id="line2d_13">
     <path d="M 306.527606 118.356638 
L 311.040637 119.27201 
" style="fill:none;stroke:#000000;stroke-linecap:square;stroke-width:0.8;"/>
    </g>
    <g id="text_11">
     <!-- $0.2$ -->
     <defs>
      <path d="M 41.703125 15.46875 
L 39.90625 15.46875 
C 38.90625 8.390625 38.09375 7.1875 37.703125 6.59375 
C 37.203125 5.796875 30 5.796875 28.59375 5.796875 
L 9.40625 5.796875 
C 13 9.6875 20 16.765625 28.5 24.9375 
C 34.59375 30.71875 41.703125 37.5 41.703125 47.390625 
C 41.703125 59.1875 32.296875 66 21.796875 66 
C 10.796875 66 4.09375 56.296875 4.09375 47.296875 
C 4.09375 43.390625 7 42.890625 8.203125 42.890625 
C 9.203125 42.890625 12.203125 43.484375 12.203125 46.984375 
C 12.203125 50.09375 9.59375 51 8.203125 51 
C 7.59375 51 7 50.890625 6.59375 50.6875 
C 8.5 59.1875 14.296875 63.390625 20.40625 63.390625 
C 29.09375 63.390625 34.796875 56.5 34.796875 47.390625 
C 34.796875 38.703125 29.703125 31.21875 24 24.734375 
L 4.09375 2.296875 
L 4.09375 0 
L 39.296875 0 
z
" id="CMR17-50"/>
     </defs>
     <g transform="translate(318.193057 126.477328)scale(0.14 -0.14)">
      <use transform="scale(0.996264)" xlink:href="#CMR17-48"/>
      <use transform="translate(45.690477 0)scale(0.996264)" xlink:href="#CMMI12-58"/>
      <use transform="translate(72.787654 0)scale(0.996264)" xlink:href="#CMR17-50"/>
     </g>
    </g>
   </g>
   <g id="xtick_11">
    <g id="line2d_14">
     <path d="M 309.339832 66.82994 
L 313.945531 67.707752 
" style="fill:none;stroke:#000000;stroke-linecap:square;stroke-width:0.8;"/>
    </g>
    <g id="text_12">
     <!-- $0.4$ -->
     <defs>
      <path d="M 33.59375 64.796875 
C 33.59375 66.890625 33.5 67 31.703125 67 
L 2 19.59375 
L 2 17 
L 27.796875 17 
L 27.796875 7.1875 
C 27.796875 3.59375 27.59375 2.59375 20.59375 2.59375 
L 18.703125 2.59375 
L 18.703125 0 
C 21.90625 0.1875 27.296875 0.1875 30.703125 0.1875 
C 34.09375 0.1875 39.5 0.1875 42.703125 0 
L 42.703125 2.59375 
L 40.796875 2.59375 
C 33.796875 2.59375 33.59375 3.59375 33.59375 7.1875 
L 33.59375 17 
L 43.796875 17 
L 43.796875 19.59375 
L 33.59375 19.59375 
z
M 28.09375 58.171875 
L 28.09375 19.59375 
L 4 19.59375 
z
" id="CMR17-52"/>
     </defs>
     <g transform="translate(321.403846 75.014941)scale(0.14 -0.14)">
      <use transform="scale(0.996264)" xlink:href="#CMR17-48"/>
      <use transform="translate(45.690477 0)scale(0.996264)" xlink:href="#CMMI12-58"/>
      <use transform="translate(72.787654 0)scale(0.996264)" xlink:href="#CMR17-52"/>
     </g>
    </g>
   </g>
  </g>
  <g id="axes_1">
   <g id="Poly3DCollection_1">
    <path clip-path="url(#pf599ca1432)" d="M 176.054426 145.97906 
L 176.053572 146.173501 
L 197.899853 150.892077 
L 197.902374 150.696964 
z
" style="fill:#ba0c2f;fill-opacity:0.8;"/>
    <path clip-path="url(#pf599ca1432)" d="M 163.530007 154.182523 
L 163.530102 154.378129 
L 176.053572 146.173501 
L 176.054426 145.97906 
z
" style="fill:#5d0618;fill-opacity:0.8;"/>
    <path clip-path="url(#pf599ca1432)" d="M 163.530102 154.378129 
L 185.511719 159.184258 
L 197.899853 150.892077 
L 176.053572 146.173501 
z
" style="fill:#a30a29;fill-opacity:0.8;"/>
    <path clip-path="url(#pf599ca1432)" d="M 163.530007 154.182523 
L 176.054426 145.97906 
L 197.902374 150.696964 
L 185.513312 158.987976 
z
" style="fill:#74081d;fill-opacity:0.8;"/>
    <path clip-path="url(#pf599ca1432)" d="M 185.513312 158.987976 
L 197.902374 150.696964 
L 197.899853 150.892077 
L 185.511719 159.184258 
z
" style="fill:#ba0c2f;fill-opacity:0.8;"/>
    <path clip-path="url(#pf599ca1432)" d="M 163.530007 154.182523 
L 185.513312 158.987976 
L 185.511719 159.184258 
L 163.530102 154.378129 
z
" style="fill:#5d0618;fill-opacity:0.8;"/>
   </g>
   <g id="Poly3DCollection_2">
    <path clip-path="url(#pf599ca1432)" d="M 107.237644 152.903576 
L 107.255484 153.698282 
L 128.900155 158.49278 
L 128.888969 157.695326 
z
" style="fill:#ba0c2f;fill-opacity:0.8;"/>
    <path clip-path="url(#pf599ca1432)" d="M 93.976097 161.235695 
L 93.998253 162.035168 
L 107.255484 153.698282 
L 107.237644 152.903576 
z
" style="fill:#5d0618;fill-opacity:0.8;"/>
    <path clip-path="url(#pf599ca1432)" d="M 93.998253 162.035168 
L 115.773462 166.919311 
L 128.900155 158.49278 
L 107.255484 153.698282 
z
" style="fill:#a30a29;fill-opacity:0.8;"/>
    <path clip-path="url(#pf599ca1432)" d="M 93.976097 161.235695 
L 107.237644 152.903576 
L 128.888969 157.695326 
L 115.75804 166.117067 
z
" style="fill:#74081d;fill-opacity:0.8;"/>
    <path clip-path="url(#pf599ca1432)" d="M 115.75804 166.117067 
L 128.888969 157.695326 
L 128.900155 158.49278 
L 115.773462 166.919311 
z
" style="fill:#ba0c2f;fill-opacity:0.8;"/>
    <path clip-path="url(#pf599ca1432)" d="M 93.976097 161.235695 
L 115.75804 166.117067 
L 115.773462 166.919311 
L 93.998253 162.035168 
z
" style="fill:#5d0618;fill-opacity:0.8;"/>
   </g>
   <g id="Poly3DCollection_3">
    <path clip-path="url(#pf599ca1432)" d="M 120.257457 144.723336 
L 133.042087 136.69086 
L 154.435525 141.310616 
L 141.77928 149.42791 
z
" style="fill:#74081d;fill-opacity:0.8;"/>
    <path clip-path="url(#pf599ca1432)" d="M 133.042087 136.69086 
L 132.373628 82.35211 
L 154.216648 86.778856 
L 154.435525 141.310616 
z
" style="fill:#5d0618;fill-opacity:0.8;"/>
    <path clip-path="url(#pf599ca1432)" d="M 120.257457 144.723336 
L 119.310904 90.049622 
L 132.373628 82.35211 
L 133.042087 136.69086 
z
" style="fill:#ba0c2f;fill-opacity:0.8;"/>
    <path clip-path="url(#pf599ca1432)" d="M 141.77928 149.42791 
L 154.435525 141.310616 
L 154.216648 86.778856 
L 141.287759 94.559383 
z
" style="fill:#5d0618;fill-opacity:0.8;"/>
    <path clip-path="url(#pf599ca1432)" d="M 120.257457 144.723336 
L 141.77928 149.42791 
L 141.287759 94.559383 
L 119.310904 90.049622 
z
" style="fill:#ba0c2f;fill-opacity:0.8;"/>
    <path clip-path="url(#pf599ca1432)" d="M 119.310904 90.049622 
L 141.287759 94.559383 
L 154.216648 86.778856 
L 132.373628 82.35211 
z
" style="fill:#a30a29;fill-opacity:0.8;"/>
   </g>
   <g id="Poly3DCollection_4">
    <path clip-path="url(#pf599ca1432)" d="M 219.983027 155.46512 
L 219.97121 156.013087 
L 242.283441 160.834197 
L 242.300124 160.284334 
z
" style="fill:#ba0c2f;fill-opacity:0.8;"/>
    <path clip-path="url(#pf599ca1432)" d="M 207.732944 163.845088 
L 207.723662 164.396346 
L 219.97121 156.013087 
L 219.983027 155.46512 
z
" style="fill:#5d0618;fill-opacity:0.8;"/>
    <path clip-path="url(#pf599ca1432)" d="M 207.723662 164.396346 
L 230.178525 169.307868 
L 242.283441 160.834197 
L 219.97121 156.013087 
z
" style="fill:#a30a29;fill-opacity:0.8;"/>
    <path clip-path="url(#pf599ca1432)" d="M 207.732944 163.845088 
L 219.983027 155.46512 
L 242.300124 160.284334 
L 230.192734 168.754699 
z
" style="fill:#74081d;fill-opacity:0.8;"/>
    <path clip-path="url(#pf599ca1432)" d="M 230.192734 168.754699 
L 242.300124 160.284334 
L 242.283441 160.834197 
L 230.178525 169.307868 
z
" style="fill:#ba0c2f;fill-opacity:0.8;"/>
    <path clip-path="url(#pf599ca1432)" d="M 207.732944 163.845088 
L 230.192734 168.754699 
L 230.178525 169.307868 
L 207.723662 164.396346 
z
" style="fill:#5d0618;fill-opacity:0.8;"/>
   </g>
   <g id="Poly3DCollection_5">
    <path clip-path="url(#pf599ca1432)" d="M 150.772718 162.538515 
L 150.773936 162.760677 
L 172.891943 167.656908 
L 172.892653 167.433976 
z
" style="fill:#ba0c2f;fill-opacity:0.8;"/>
    <path clip-path="url(#pf599ca1432)" d="M 137.776003 171.051331 
L 137.778374 171.274829 
L 150.773936 162.760677 
L 150.772718 162.538515 
z
" style="fill:#5d0618;fill-opacity:0.8;"/>
    <path clip-path="url(#pf599ca1432)" d="M 137.778374 171.274829 
L 160.034261 176.263627 
L 172.891943 167.656908 
L 150.773936 162.760677 
z
" style="fill:#a30a29;fill-opacity:0.8;"/>
    <path clip-path="url(#pf599ca1432)" d="M 137.776003 171.051331 
L 150.772718 162.538515 
L 172.892653 167.433976 
L 160.033843 176.039352 
z
" style="fill:#74081d;fill-opacity:0.8;"/>
    <path clip-path="url(#pf599ca1432)" d="M 160.033843 176.039352 
L 172.892653 167.433976 
L 172.891943 167.656908 
L 160.034261 176.263627 
z
" style="fill:#ba0c2f;fill-opacity:0.8;"/>
    <path clip-path="url(#pf599ca1432)" d="M 137.776003 171.051331 
L 160.033843 176.039352 
L 160.034261 176.263627 
L 137.778374 171.274829 
z
" style="fill:#5d0618;fill-opacity:0.8;"/>
   </g>
   <g id="Poly3DCollection_6">
    <path clip-path="url(#pf599ca1432)" d="M 80.466022 169.723963 
L 80.447299 169.158517 
L 102.36576 174.130082 
L 102.379691 174.697494 
z
" style="fill:#5d0618;fill-opacity:0.8;"/>
    <path clip-path="url(#pf599ca1432)" d="M 66.700364 178.37281 
L 66.678378 177.803954 
L 80.447299 169.158517 
L 80.466022 169.723963 
z
" style="fill:#ba0c2f;fill-opacity:0.8;"/>
    <path clip-path="url(#pf599ca1432)" d="M 66.700364 178.37281 
L 80.466022 169.723963 
L 102.379691 174.697494 
L 88.746863 183.441136 
z
" style="fill:#74081d;fill-opacity:0.8;"/>
    <path clip-path="url(#pf599ca1432)" d="M 66.678378 177.803954 
L 88.729726 182.870297 
L 102.36576 174.130082 
L 80.447299 169.158517 
z
" style="fill:#a30a29;fill-opacity:0.8;"/>
    <path clip-path="url(#pf599ca1432)" d="M 88.746863 183.441136 
L 102.379691 174.697494 
L 102.36576 174.130082 
L 88.729726 182.870297 
z
" style="fill:#5d0618;fill-opacity:0.8;"/>
    <path clip-path="url(#pf599ca1432)" d="M 66.700364 178.37281 
L 88.746863 183.441136 
L 88.729726 182.870297 
L 66.678378 177.803954 
z
" style="fill:#ba0c2f;fill-opacity:0.8;"/>
   </g>
   <g id="Poly3DCollection_7">
    <path clip-path="url(#pf599ca1432)" d="M 195.252619 172.382559 
L 195.2555 172.142216 
L 217.861589 177.143955 
L 217.856544 177.385133 
z
" style="fill:#5d0618;fill-opacity:0.8;"/>
    <path clip-path="url(#pf599ca1432)" d="M 182.535501 181.082014 
L 182.537196 180.840221 
L 195.2555 172.142216 
L 195.252619 172.382559 
z
" style="fill:#ba0c2f;fill-opacity:0.8;"/>
    <path clip-path="url(#pf599ca1432)" d="M 182.535501 181.082014 
L 195.252619 172.382559 
L 217.856544 177.385133 
L 205.285007 186.180218 
z
" style="fill:#74081d;fill-opacity:0.8;"/>
    <path clip-path="url(#pf599ca1432)" d="M 182.537196 180.840221 
L 205.288893 185.937582 
L 217.861589 177.143955 
L 195.2555 172.142216 
z
" style="fill:#a30a29;fill-opacity:0.8;"/>
    <path clip-path="url(#pf599ca1432)" d="M 205.285007 186.180218 
L 217.856544 177.385133 
L 217.861589 177.143955 
L 205.288893 185.937582 
z
" style="fill:#5d0618;fill-opacity:0.8;"/>
    <path clip-path="url(#pf599ca1432)" d="M 182.535501 181.082014 
L 205.285007 186.180218 
L 205.288893 185.937582 
L 182.537196 180.840221 
z
" style="fill:#ba0c2f;fill-opacity:0.8;"/>
   </g>
   <g id="Poly3DCollection_8">
    <path clip-path="url(#pf599ca1432)" d="M 124.533058 179.725427 
L 124.529064 179.473702 
L 146.928295 184.556057 
L 146.930075 184.808659 
z
" style="fill:#5d0618;fill-opacity:0.8;"/>
    <path clip-path="url(#pf599ca1432)" d="M 111.036818 188.56543 
L 111.031434 188.312184 
L 124.529064 179.473702 
L 124.533058 179.725427 
z
" style="fill:#ba0c2f;fill-opacity:0.8;"/>
    <path clip-path="url(#pf599ca1432)" d="M 111.036818 188.56543 
L 124.533058 179.725427 
L 146.930075 184.808659 
L 133.574284 193.746625 
z
" style="fill:#74081d;fill-opacity:0.8;"/>
    <path clip-path="url(#pf599ca1432)" d="M 111.031434 188.312184 
L 133.571141 193.492495 
L 146.928295 184.556057 
L 124.529064 179.473702 
z
" style="fill:#a30a29;fill-opacity:0.8;"/>
    <path clip-path="url(#pf599ca1432)" d="M 133.574284 193.746625 
L 146.930075 184.808659 
L 146.928295 184.556057 
L 133.571141 193.492495 
z
" style="fill:#5d0618;fill-opacity:0.8;"/>
    <path clip-path="url(#pf599ca1432)" d="M 111.036818 188.56543 
L 133.574284 193.746625 
L 133.571141 193.492495 
L 111.031434 188.312184 
z
" style="fill:#ba0c2f;fill-opacity:0.8;"/>
   </g>
   <g id="Poly3DCollection_9">
    <path clip-path="url(#pf599ca1432)" d="M 240.708443 182.442588 
L 240.691703 183.001028 
L 263.790465 188.116217 
L 263.812418 187.555831 
z
" style="fill:#ba0c2f;fill-opacity:0.8;"/>
    <path clip-path="url(#pf599ca1432)" d="M 228.286476 191.334888 
L 228.27234 191.896704 
L 240.691703 183.001028 
L 240.708443 182.442588 
z
" style="fill:#5d0618;fill-opacity:0.8;"/>
    <path clip-path="url(#pf599ca1432)" d="M 228.27234 191.896704 
L 251.5247 197.110744 
L 263.790465 188.116217 
L 240.691703 183.001028 
z
" style="fill:#a30a29;fill-opacity:0.8;"/>
    <path clip-path="url(#pf599ca1432)" d="M 228.286476 191.334888 
L 240.708443 182.442588 
L 263.812418 187.555831 
L 251.54412 196.546967 
z
" style="fill:#74081d;fill-opacity:0.8;"/>
    <path clip-path="url(#pf599ca1432)" d="M 251.54412 196.546967 
L 263.812418 187.555831 
L 263.790465 188.116217 
L 251.5247 197.110744 
z
" style="fill:#ba0c2f;fill-opacity:0.8;"/>
    <path clip-path="url(#pf599ca1432)" d="M 228.286476 191.334888 
L 251.54412 196.546967 
L 251.5247 197.110744 
L 228.27234 191.896704 
z
" style="fill:#5d0618;fill-opacity:0.8;"/>
   </g>
   <g id="Poly3DCollection_10">
    <path clip-path="url(#pf599ca1432)" d="M 169.574786 189.948107 
L 169.574355 190.174523 
L 192.468824 195.371916 
L 192.471321 195.14471 
z
" style="fill:#ba0c2f;fill-opacity:0.8;"/>
    <path clip-path="url(#pf599ca1432)" d="M 156.363406 198.985674 
L 156.364167 199.213461 
L 169.574355 190.174523 
L 169.574786 189.948107 
z
" style="fill:#5d0618;fill-opacity:0.8;"/>
    <path clip-path="url(#pf599ca1432)" d="M 156.364167 199.213461 
L 179.407091 204.512135 
L 192.468824 195.371916 
L 169.574355 190.174523 
z
" style="fill:#a30a29;fill-opacity:0.8;"/>
    <path clip-path="url(#pf599ca1432)" d="M 156.363406 198.985674 
L 169.574786 189.948107 
L 192.471321 195.14471 
L 179.408423 204.283551 
z
" style="fill:#74081d;fill-opacity:0.8;"/>
    <path clip-path="url(#pf599ca1432)" d="M 179.408423 204.283551 
L 192.471321 195.14471 
L 192.468824 195.371916 
L 179.407091 204.512135 
z
" style="fill:#ba0c2f;fill-opacity:0.8;"/>
    <path clip-path="url(#pf599ca1432)" d="M 156.363406 198.985674 
L 179.408423 204.283551 
L 179.407091 204.512135 
L 156.364167 199.213461 
z
" style="fill:#5d0618;fill-opacity:0.8;"/>
   </g>
   <g id="Poly3DCollection_11">
    <path clip-path="url(#pf599ca1432)" d="M 97.279947 197.576146 
L 97.264502 196.999846 
L 119.948815 202.279848 
L 119.959127 202.858163 
z
" style="fill:#5d0618;fill-opacity:0.8;"/>
    <path clip-path="url(#pf599ca1432)" d="M 83.254821 206.762568 
L 83.235984 206.182772 
L 97.264502 196.999846 
L 97.279947 197.576146 
z
" style="fill:#ba0c2f;fill-opacity:0.8;"/>
    <path clip-path="url(#pf599ca1432)" d="M 83.254821 206.762568 
L 97.279947 197.576146 
L 119.959127 202.858163 
L 106.076976 212.14838 
z
" style="fill:#74081d;fill-opacity:0.8;"/>
    <path clip-path="url(#pf599ca1432)" d="M 83.235984 206.182772 
L 106.063336 211.566552 
L 119.948815 202.279848 
L 97.264502 196.999846 
z
" style="fill:#a30a29;fill-opacity:0.8;"/>
    <path clip-path="url(#pf599ca1432)" d="M 106.076976 212.14838 
L 119.959127 202.858163 
L 119.948815 202.279848 
L 106.063336 211.566552 
z
" style="fill:#5d0618;fill-opacity:0.8;"/>
    <path clip-path="url(#pf599ca1432)" d="M 83.254821 206.762568 
L 106.076976 212.14838 
L 106.063336 211.566552 
L 83.235984 206.182772 
z
" style="fill:#ba0c2f;fill-opacity:0.8;"/>
   </g>
   <g id="Poly3DCollection_12">
    <path clip-path="url(#pf599ca1432)" d="M 215.623905 200.399425 
L 215.619822 200.601378 
L 239.03086 205.915893 
L 239.036857 205.713234 
z
" style="fill:#ba0c2f;fill-opacity:0.8;"/>
    <path clip-path="url(#pf599ca1432)" d="M 202.71367 209.641253 
L 202.710593 209.844431 
L 215.619822 200.601378 
L 215.623905 200.399425 
z
" style="fill:#5d0618;fill-opacity:0.8;"/>
    <path clip-path="url(#pf599ca1432)" d="M 202.710593 209.844431 
L 226.278563 215.263689 
L 239.03086 205.915893 
L 215.619822 200.601378 
z
" style="fill:#a30a29;fill-opacity:0.8;"/>
    <path clip-path="url(#pf599ca1432)" d="M 202.71367 209.641253 
L 215.623905 200.399425 
L 239.036857 205.713234 
L 226.283579 215.059799 
z
" style="fill:#74081d;fill-opacity:0.8;"/>
    <path clip-path="url(#pf599ca1432)" d="M 226.283579 215.059799 
L 239.036857 205.713234 
L 239.03086 205.915893 
L 226.278563 215.263689 
z
" style="fill:#ba0c2f;fill-opacity:0.8;"/>
    <path clip-path="url(#pf599ca1432)" d="M 202.71367 209.641253 
L 226.283579 215.059799 
L 226.278563 215.263689 
L 202.710593 209.844431 
z
" style="fill:#5d0618;fill-opacity:0.8;"/>
   </g>
   <g id="Poly3DCollection_13">
    <path clip-path="url(#pf599ca1432)" d="M 142.894019 208.199737 
L 142.90122 209.025184 
L 166.088534 214.430216 
L 166.088971 213.601878 
z
" style="fill:#ba0c2f;fill-opacity:0.8;"/>
    <path clip-path="url(#pf599ca1432)" d="M 129.158992 217.595517 
L 129.17083 218.425978 
L 142.90122 209.025184 
L 142.894019 208.199737 
z
" style="fill:#5d0618;fill-opacity:0.8;"/>
    <path clip-path="url(#pf599ca1432)" d="M 129.17083 218.425978 
L 152.509433 223.938404 
L 166.088534 214.430216 
L 142.90122 209.025184 
z
" style="fill:#a30a29;fill-opacity:0.8;"/>
    <path clip-path="url(#pf599ca1432)" d="M 129.158992 217.595517 
L 142.894019 208.199737 
L 166.088971 213.601878 
L 152.505333 223.105031 
z
" style="fill:#74081d;fill-opacity:0.8;"/>
    <path clip-path="url(#pf599ca1432)" d="M 152.505333 223.105031 
L 166.088971 213.601878 
L 166.088534 214.430216 
L 152.509433 223.938404 
z
" style="fill:#ba0c2f;fill-opacity:0.8;"/>
    <path clip-path="url(#pf599ca1432)" d="M 129.158992 217.595517 
L 152.505333 223.105031 
L 152.509433 223.938404 
L 129.17083 218.425978 
z
" style="fill:#5d0618;fill-opacity:0.8;"/>
   </g>
   <g id="Poly3DCollection_14">
    <path clip-path="url(#pf599ca1432)" d="M 252.896598 173.717663 
L 264.857482 165.155431 
L 287.659003 170.079252 
L 275.848536 178.734854 
z
" style="fill:#74081d;fill-opacity:0.8;"/>
    <path clip-path="url(#pf599ca1432)" d="M 264.857482 165.155431 
L 269.853873 37.832394 
L 293.828503 42.279736 
L 287.659003 170.079252 
z
" style="fill:#5d0618;fill-opacity:0.8;"/>
    <path clip-path="url(#pf599ca1432)" d="M 252.896598 173.717663 
L 257.339398 45.567601 
L 269.853873 37.832394 
L 264.857482 165.155431 
z
" style="fill:#ba0c2f;fill-opacity:0.8;"/>
    <path clip-path="url(#pf599ca1432)" d="M 275.848536 178.734854 
L 287.659003 170.079252 
L 293.828503 42.279736 
L 281.480557 50.103563 
z
" style="fill:#5d0618;fill-opacity:0.8;"/>
    <path clip-path="url(#pf599ca1432)" d="M 252.896598 173.717663 
L 275.848536 178.734854 
L 281.480557 50.103563 
L 257.339398 45.567601 
z
" style="fill:#ba0c2f;fill-opacity:0.8;"/>
    <path clip-path="url(#pf599ca1432)" d="M 257.339398 45.567601 
L 281.480557 50.103563 
L 293.828503 42.279736 
L 269.853873 37.832394 
z
" style="fill:#a30a29;fill-opacity:0.8;"/>
   </g>
   <g id="Poly3DCollection_15">
    <path clip-path="url(#pf599ca1432)" d="M 25.534577 197.51453 
L 203.749338 239.767656 
L 299.760859 168.812611 
L 130.042591 132.318204 
z
" style="fill-opacity:0.15;"/>
   </g>
   <g id="Poly3DCollection_16">
    <path clip-path="url(#pf599ca1432)" d="M 38.372736 196.170823 
L 52.671804 187.186838 
L 74.852226 192.352694 
L 60.688163 201.437052 
z
" style="fill:#74081d;fill-opacity:0.8;"/>
    <path clip-path="url(#pf599ca1432)" d="M 52.671804 187.186838 
L 46.954752 58.228917 
L 70.239672 62.908178 
L 74.852226 192.352694 
z
" style="fill:#5d0618;fill-opacity:0.8;"/>
    <path clip-path="url(#pf599ca1432)" d="M 38.372736 196.170823 
L 31.861064 66.368363 
L 46.954752 58.228917 
L 52.671804 187.186838 
z
" style="fill:#ba0c2f;fill-opacity:0.8;"/>
    <path clip-path="url(#pf599ca1432)" d="M 60.688163 201.437052 
L 74.852226 192.352694 
L 70.239672 62.908178 
L 55.29457 71.143264 
z
" style="fill:#5d0618;fill-opacity:0.8;"/>
    <path clip-path="url(#pf599ca1432)" d="M 38.372736 196.170823 
L 60.688163 201.437052 
L 55.29457 71.143264 
L 31.861064 66.368363 
z
" style="fill:#ba0c2f;fill-opacity:0.8;"/>
    <path clip-path="url(#pf599ca1432)" d="M 31.861064 66.368363 
L 55.29457 71.143264 
L 70.239672 62.908178 
L 46.954752 58.228917 
z
" style="fill:#a30a29;fill-opacity:0.8;"/>
   </g>
   <g id="Poly3DCollection_17">
    <path clip-path="url(#pf599ca1432)" d="M 176.120565 228.678002 
L 189.548433 219.065625 
L 213.276955 224.592036 
L 200.009361 234.315531 
z
" style="fill:#74081d;fill-opacity:0.8;"/>
    <path clip-path="url(#pf599ca1432)" d="M 189.548433 219.065625 
L 190.120457 161.432318 
L 214.403304 166.748873 
L 213.276955 224.592036 
z
" style="fill:#5d0618;fill-opacity:0.8;"/>
    <path clip-path="url(#pf599ca1432)" d="M 176.120565 228.678002 
L 176.385292 170.680588 
L 190.120457 161.432318 
L 189.548433 219.065625 
z
" style="fill:#ba0c2f;fill-opacity:0.8;"/>
    <path clip-path="url(#pf599ca1432)" d="M 200.009361 234.315531 
L 213.276955 224.592036 
L 214.403304 166.748873 
L 200.836042 176.106555 
z
" style="fill:#5d0618;fill-opacity:0.8;"/>
    <path clip-path="url(#pf599ca1432)" d="M 176.120565 228.678002 
L 200.009361 234.315531 
L 200.836042 176.106555 
L 176.385292 170.680588 
z
" style="fill:#ba0c2f;fill-opacity:0.8;"/>
    <path clip-path="url(#pf599ca1432)" d="M 176.385292 170.680588 
L 200.836042 176.106555 
L 214.403304 166.748873 
L 190.120457 161.432318 
z
" style="fill:#a30a29;fill-opacity:0.8;"/>
   </g>
  </g>
  <g id="patch_6">
   <path d="M 425.945455 262.8 
L 806.4 262.8 
L 806.4 -14.4 
L 425.945455 -14.4 
z
" style="fill:#ffffff;"/>
  </g>
  <g id="pane3d_4">
   <g id="patch_7">
    <path d="M 476.380584 201.548569 
L 585.268665 133.58541 
L 583.455794 3.718968 
L 468.496488 64.782468 
" style="fill:#f2f2f2;opacity:0.5;stroke:#f2f2f2;stroke-linejoin:miter;"/>
   </g>
  </g>
  <g id="pane3d_5">
   <g id="patch_8">
    <path d="M 585.268665 133.58541 
L 761.65712 171.581202 
L 769.037001 37.79869 
L 583.455794 3.718968 
" style="fill:#e6e6e6;opacity:0.5;stroke:#e6e6e6;stroke-linejoin:miter;"/>
   </g>
  </g>
  <g id="pane3d_6">
   <g id="patch_9">
    <path d="M 476.380584 201.548569 
L 661.965072 245.80086 
L 761.65712 171.581202 
L 585.268665 133.58541 
" style="fill:#ececec;opacity:0.5;stroke:#ececec;stroke-linejoin:miter;"/>
   </g>
  </g>
  <g id="axis3d_4">
   <g id="line2d_15">
    <path d="M 476.380584 201.548569 
L 661.965072 245.80086 
" style="fill:none;stroke:#000000;stroke-linecap:square;stroke-width:0.8;"/>
   </g>
   <g id="Line3DCollection_4">
    <path d="M 498.841271 206.90428 
L 606.679397 138.19749 
L 605.9393 7.847789 
" style="fill:none;stroke:#b0b0b0;stroke-width:0.8;"/>
    <path d="M 544.057792 217.686079 
L 649.729469 147.470895 
L 651.182353 16.156123 
" style="fill:none;stroke:#b0b0b0;stroke-width:0.8;"/>
    <path d="M 590.310744 228.715013 
L 693.693551 156.941187 
L 697.435637 24.649974 
" style="fill:none;stroke:#b0b0b0;stroke-width:0.8;"/>
    <path d="M 637.636176 239.999678 
L 738.601063 166.614702 
L 744.733372 33.335625 
" style="fill:none;stroke:#b0b0b0;stroke-width:0.8;"/>
   </g>
   <g id="xtick_12">
    <g id="line2d_16">
     <path d="M 499.770538 206.312217 
L 496.979262 208.09062 
" style="fill:none;stroke:#000000;stroke-linecap:square;stroke-width:0.8;"/>
    </g>
    <g id="text_13">
     <!-- 00 -->
     <g transform="translate(479.875817 237.14703)rotate(-45)scale(0.14 -0.14)">
      <use transform="scale(0.996264)" xlink:href="#CMR17-48"/>
      <use transform="translate(45.690477 0)scale(0.996264)" xlink:href="#CMR17-48"/>
     </g>
    </g>
   </g>
   <g id="xtick_13">
    <g id="line2d_17">
     <path d="M 544.969128 217.080527 
L 542.231671 218.899473 
" style="fill:none;stroke:#000000;stroke-linecap:square;stroke-width:0.8;"/>
    </g>
    <g id="text_14">
     <!-- 01 -->
     <g transform="translate(525.088242 248.103782)rotate(-45)scale(0.14 -0.14)">
      <use transform="scale(0.996264)" xlink:href="#CMR17-48"/>
      <use transform="translate(45.690477 0)scale(0.996264)" xlink:href="#CMR17-49"/>
     </g>
    </g>
   </g>
   <g id="xtick_14">
    <g id="line2d_18">
     <path d="M 591.20308 228.095506 
L 588.522658 229.956397 
" style="fill:none;stroke:#000000;stroke-linecap:square;stroke-width:0.8;"/>
    </g>
    <g id="text_15">
     <!-- 10 -->
     <g transform="translate(571.338855 259.312128)rotate(-45)scale(0.14 -0.14)">
      <use transform="scale(0.996264)" xlink:href="#CMR17-49"/>
      <use transform="translate(45.690477 0)scale(0.996264)" xlink:href="#CMR17-48"/>
     </g>
    </g>
   </g>
   <g id="xtick_15">
    <g id="line2d_19">
     <path d="M 638.50838 239.365727 
L 635.888391 241.270032 
" style="fill:none;stroke:#000000;stroke-linecap:square;stroke-width:0.8;"/>
    </g>
    <g id="text_16">
     <!-- 11 -->
     <g transform="translate(618.66383 270.780834)rotate(-45)scale(0.14 -0.14)">
      <use transform="scale(0.996264)" xlink:href="#CMR17-49"/>
      <use transform="translate(45.690477 0)scale(0.996264)" xlink:href="#CMR17-49"/>
     </g>
    </g>
   </g>
  </g>
  <g id="axis3d_5">
   <g id="line2d_20">
    <path d="M 761.65712 171.581202 
L 661.965072 245.80086 
" style="fill:none;stroke:#000000;stroke-linecap:square;stroke-width:0.8;"/>
   </g>
   <g id="Line3DCollection_5">
    <path d="M 484.000685 56.547028 
L 491.016499 192.413474 
L 675.403872 235.795817 
" style="fill:none;stroke:#b0b0b0;stroke-width:0.8;"/>
    <path d="M 513.777478 40.730342 
L 519.168861 174.842005 
L 701.219492 216.576366 
" style="fill:none;stroke:#b0b0b0;stroke-width:0.8;"/>
    <path d="M 542.401344 25.526062 
L 546.284836 157.917404 
L 726.04244 198.095948 
" style="fill:none;stroke:#b0b0b0;stroke-width:0.8;"/>
    <path d="M 569.937971 10.899296 
L 572.420618 141.604597 
L 749.928893 180.312741 
" style="fill:none;stroke:#b0b0b0;stroke-width:0.8;"/>
   </g>
   <g id="xtick_16">
    <g id="line2d_21">
     <path d="M 673.861052 235.432825 
L 678.492943 236.522608 
" style="fill:none;stroke:#000000;stroke-linecap:square;stroke-width:0.8;"/>
    </g>
    <g id="text_17">
     <!-- 00 -->
     <g transform="translate(689.195824 248.348363)rotate(-337.5)scale(0.14 -0.14)">
      <use transform="scale(0.996264)" xlink:href="#CMR17-48"/>
      <use transform="translate(45.690477 0)scale(0.996264)" xlink:href="#CMR17-48"/>
     </g>
    </g>
   </g>
   <g id="xtick_17">
    <g id="line2d_22">
     <path d="M 699.697534 216.227463 
L 704.266725 217.274932 
" style="fill:none;stroke:#000000;stroke-linecap:square;stroke-width:0.8;"/>
    </g>
    <g id="text_18">
     <!-- 01 -->
     <g transform="translate(714.749375 228.903937)rotate(-337.5)scale(0.14 -0.14)">
      <use transform="scale(0.996264)" xlink:href="#CMR17-48"/>
      <use transform="translate(45.690477 0)scale(0.996264)" xlink:href="#CMR17-49"/>
     </g>
    </g>
   </g>
   <g id="xtick_18">
    <g id="line2d_23">
     <path d="M 724.540896 197.76033 
L 729.048738 198.767901 
" style="fill:none;stroke:#000000;stroke-linecap:square;stroke-width:0.8;"/>
    </g>
    <g id="text_19">
     <!-- 10 -->
     <g transform="translate(739.320787 210.206849)rotate(-337.5)scale(0.14 -0.14)">
      <use transform="scale(0.996264)" xlink:href="#CMR17-49"/>
      <use transform="translate(45.690477 0)scale(0.996264)" xlink:href="#CMR17-48"/>
     </g>
    </g>
   </g>
   <g id="xtick_19">
    <g id="line2d_24">
     <path d="M 748.44732 179.989663 
L 752.895146 180.959573 
" style="fill:none;stroke:#000000;stroke-linecap:square;stroke-width:0.8;"/>
    </g>
    <g id="text_20">
     <!-- 11 -->
     <g transform="translate(762.965613 192.214827)rotate(-337.5)scale(0.14 -0.14)">
      <use transform="scale(0.996264)" xlink:href="#CMR17-49"/>
      <use transform="translate(45.690477 0)scale(0.996264)" xlink:href="#CMR17-49"/>
     </g>
    </g>
   </g>
  </g>
  <g id="axis3d_6">
   <g id="line2d_25">
    <path d="M 761.65712 171.581202 
L 769.037001 37.79869 
" style="fill:none;stroke:#000000;stroke-linecap:square;stroke-width:0.8;"/>
   </g>
   <g id="text_21">
    <!-- Im[$\rho$] -->
    <defs>
     <path d="M 19.703125 60.90625 
C 19.703125 65.390625 20.90625 65.390625 28.09375 65.390625 
L 28.09375 68 
C 24.90625 67.796875 19.796875 67.796875 16.40625 67.796875 
C 13 67.796875 7.90625 67.796875 4.703125 68 
L 4.703125 65.390625 
C 11.90625 65.390625 13.09375 65.390625 13.09375 60.90625 
L 13.09375 7.078125 
C 13.09375 2.59375 11.90625 2.59375 4.703125 2.59375 
L 4.703125 0 
C 7.90625 0.1875 13 0.1875 16.40625 0.1875 
C 19.796875 0.1875 24.90625 0.1875 28.09375 0 
L 28.09375 2.59375 
C 20.90625 2.59375 19.703125 2.59375 19.703125 7.078125 
z
" id="CMR17-73"/>
     <path d="M 67.59375 30.53125 
C 67.59375 35.5625 66.703125 44 54.796875 44 
C 48 44 43.296875 39.375 41.5 33.953125 
L 41.40625 33.953125 
C 40.203125 42.1875 34.296875 44 28.703125 44 
C 20.796875 44 16.703125 37.875 15.203125 33.84375 
L 15.09375 33.84375 
L 15.09375 44 
L 3.296875 42.890625 
L 3.296875 40.28125 
C 9.203125 40.28125 10.09375 39.6875 10.09375 34.859375 
L 10.09375 6.921875 
C 10.09375 3.09375 9.703125 2.59375 3.296875 2.59375 
L 3.296875 0 
C 5.703125 0.1875 10.09375 0.1875 12.703125 0.1875 
C 15.296875 0.1875 19.796875 0.1875 22.203125 0 
L 22.203125 2.59375 
C 15.796875 2.59375 15.40625 3 15.40625 6.921875 
L 15.40625 26.21875 
C 15.40625 35.453125 21 42.390625 28 42.390625 
C 35.40625 42.390625 36.203125 35.765625 36.203125 30.9375 
L 36.203125 6.921875 
C 36.203125 3.09375 35.796875 2.59375 29.40625 2.59375 
L 29.40625 0 
C 31.796875 0.1875 36.203125 0.1875 38.796875 0.1875 
C 41.40625 0.1875 45.90625 0.1875 48.296875 0 
L 48.296875 2.59375 
C 41.90625 2.59375 41.5 3 41.5 6.921875 
L 41.5 26.21875 
C 41.5 35.453125 47.09375 42.390625 54.09375 42.390625 
C 61.5 42.390625 62.296875 35.765625 62.296875 30.9375 
L 62.296875 6.921875 
C 62.296875 3.09375 61.90625 2.59375 55.5 2.59375 
L 55.5 0 
C 57.90625 0.1875 62.296875 0.1875 64.90625 0.1875 
C 67.5 0.1875 72 0.1875 74.40625 0 
L 74.40625 2.59375 
C 68 2.59375 67.59375 3 67.59375 6.921875 
z
" id="CMR17-109"/>
    </defs>
    <g transform="translate(809.026865 118.025317)rotate(-86.842577)scale(0.14 -0.14)">
     <use transform="scale(0.996264)" xlink:href="#CMR17-73"/>
     <use transform="translate(32.638409 0)scale(0.996264)" xlink:href="#CMR17-109"/>
     <use transform="translate(109.557999 0)scale(0.996264)" xlink:href="#CMR17-91"/>
     <use transform="translate(134.429058 0)scale(0.996264)" xlink:href="#CMMI12-26"/>
     <use transform="translate(184.74343 0)scale(0.996264)" xlink:href="#CMR17-93"/>
    </g>
   </g>
   <g id="Line3DCollection_6">
    <path d="M 761.867511 167.76723 
L 585.216873 129.875238 
L 476.156194 197.656055 
" style="fill:none;stroke:#b0b0b0;stroke-width:0.8;"/>
    <path d="M 764.592367 118.371024 
L 584.546674 81.865017 
L 473.248042 147.208095 
" style="fill:none;stroke:#b0b0b0;stroke-width:0.8;"/>
    <path d="M 767.424964 67.021704 
L 583.851118 32.038302 
L 470.220982 94.69742 
" style="fill:none;stroke:#b0b0b0;stroke-width:0.8;"/>
   </g>
   <g id="xtick_20">
    <g id="line2d_26">
     <path d="M 760.393583 167.451069 
L 764.818433 168.40021 
" style="fill:none;stroke:#000000;stroke-linecap:square;stroke-width:0.8;"/>
    </g>
    <g id="text_22">
     <!-- $0.0$ -->
     <g transform="translate(771.67907 175.51393)scale(0.14 -0.14)">
      <use transform="scale(0.996264)" xlink:href="#CMR17-48"/>
      <use transform="translate(45.690477 0)scale(0.996264)" xlink:href="#CMMI12-58"/>
      <use transform="translate(72.787654 0)scale(0.996264)" xlink:href="#CMR17-48"/>
     </g>
    </g>
   </g>
   <g id="xtick_21">
    <g id="line2d_27">
     <path d="M 763.088913 118.066184 
L 767.602466 118.981351 
" style="fill:none;stroke:#000000;stroke-linecap:square;stroke-width:0.8;"/>
    </g>
    <g id="text_23">
     <!-- $0.2$ -->
     <g transform="translate(774.756612 126.187227)scale(0.14 -0.14)">
      <use transform="scale(0.996264)" xlink:href="#CMR17-48"/>
      <use transform="translate(45.690477 0)scale(0.996264)" xlink:href="#CMMI12-58"/>
      <use transform="translate(72.787654 0)scale(0.996264)" xlink:href="#CMR17-50"/>
     </g>
    </g>
   </g>
   <g id="xtick_22">
    <g id="line2d_28">
     <path d="M 765.890777 66.729336 
L 770.496658 67.607072 
" style="fill:none;stroke:#000000;stroke-linecap:square;stroke-width:0.8;"/>
    </g>
    <g id="text_24">
     <!-- $0.4$ -->
     <g transform="translate(777.955569 74.914466)scale(0.14 -0.14)">
      <use transform="scale(0.996264)" xlink:href="#CMR17-48"/>
      <use transform="translate(45.690477 0)scale(0.996264)" xlink:href="#CMMI12-58"/>
      <use transform="translate(72.787654 0)scale(0.996264)" xlink:href="#CMR17-52"/>
     </g>
    </g>
   </g>
  </g>
  <g id="axes_2">
   <g id="Poly3DCollection_18">
    <path clip-path="url(#pb92d2484c7)" d="M 589.581938 136.235386 
L 589.586017 136.56696 
L 610.980481 141.18629 
L 610.979145 140.853575 
z
" style="fill:#0cba97;fill-opacity:0.8;"/>
    <path clip-path="url(#pb92d2484c7)" d="M 576.794979 144.265142 
L 576.800754 144.598696 
L 589.586017 136.56696 
L 589.581938 136.235386 
z
" style="fill:#065d4c;fill-opacity:0.8;"/>
    <path clip-path="url(#pb92d2484c7)" d="M 576.800754 144.598696 
L 598.323614 149.302841 
L 610.980481 141.18629 
L 589.586017 136.56696 
z
" style="fill:#0aa384;fill-opacity:0.8;"/>
    <path clip-path="url(#pb92d2484c7)" d="M 576.794979 144.265142 
L 589.581938 136.235386 
L 610.979145 140.853575 
L 598.320616 148.968135 
z
" style="fill:#08745e;fill-opacity:0.8;"/>
    <path clip-path="url(#pb92d2484c7)" d="M 598.320616 148.968135 
L 610.979145 140.853575 
L 610.980481 141.18629 
L 598.323614 149.302841 
z
" style="fill:#0cba97;fill-opacity:0.8;"/>
    <path clip-path="url(#pb92d2484c7)" d="M 576.794979 144.265142 
L 598.320616 148.968135 
L 598.323614 149.302841 
L 576.800754 144.598696 
z
" style="fill:#065d4c;fill-opacity:0.8;"/>
   </g>
   <g id="Poly3DCollection_19">
    <path clip-path="url(#pb92d2484c7)" d="M 632.601895 145.520443 
L 632.600243 145.896597 
L 654.448897 150.614217 
L 654.453773 150.236764 
z
" style="fill:#0cba97;fill-opacity:0.8;"/>
    <path clip-path="url(#pb92d2484c7)" d="M 620.075239 153.721159 
L 620.075422 154.099566 
L 632.600243 145.896597 
L 632.601895 145.520443 
z
" style="fill:#065d4c;fill-opacity:0.8;"/>
    <path clip-path="url(#pb92d2484c7)" d="M 620.075422 154.099566 
L 642.059442 158.904732 
L 654.448897 150.614217 
L 632.600243 145.896597 
z
" style="fill:#0aa384;fill-opacity:0.8;"/>
    <path clip-path="url(#pb92d2484c7)" d="M 620.075239 153.721159 
L 632.601895 145.520443 
L 654.453773 150.236764 
L 642.062523 158.525014 
z
" style="fill:#08745e;fill-opacity:0.8;"/>
    <path clip-path="url(#pb92d2484c7)" d="M 642.062523 158.525014 
L 654.453773 150.236764 
L 654.448897 150.614217 
L 642.059442 158.904732 
z
" style="fill:#0cba97;fill-opacity:0.8;"/>
    <path clip-path="url(#pb92d2484c7)" d="M 620.075239 153.721159 
L 642.062523 158.525014 
L 642.059442 158.904732 
L 620.075422 154.099566 
z
" style="fill:#065d4c;fill-opacity:0.8;"/>
   </g>
   <g id="Poly3DCollection_20">
    <path clip-path="url(#pb92d2484c7)" d="M 563.772751 152.442638 
L 563.781806 152.846005 
L 585.433614 157.637556 
L 585.427936 157.232794 
z
" style="fill:#0cba97;fill-opacity:0.8;"/>
    <path clip-path="url(#pb92d2484c7)" d="M 550.508701 160.77199 
L 550.519947 161.177779 
L 563.781806 152.846005 
L 563.772751 152.442638 
z
" style="fill:#065d4c;fill-opacity:0.8;"/>
    <path clip-path="url(#pb92d2484c7)" d="M 550.519947 161.177779 
L 572.302378 166.05895 
L 585.433614 157.637556 
L 563.781806 152.846005 
z
" style="fill:#0aa384;fill-opacity:0.8;"/>
    <path clip-path="url(#pb92d2484c7)" d="M 550.508701 160.77199 
L 563.772751 152.442638 
L 585.427936 157.232794 
L 572.29455 165.651753 
z
" style="fill:#08745e;fill-opacity:0.8;"/>
    <path clip-path="url(#pb92d2484c7)" d="M 572.29455 165.651753 
L 585.427936 157.232794 
L 585.433614 157.637556 
L 572.302378 166.05895 
z
" style="fill:#0cba97;fill-opacity:0.8;"/>
    <path clip-path="url(#pb92d2484c7)" d="M 550.508701 160.77199 
L 572.29455 165.651753 
L 572.302378 166.05895 
L 550.519947 161.177779 
z
" style="fill:#065d4c;fill-opacity:0.8;"/>
   </g>
   <g id="Poly3DCollection_21">
    <path clip-path="url(#pb92d2484c7)" d="M 676.538441 155.003329 
L 676.557872 154.102315 
L 698.887069 158.916808 
L 698.859637 159.820944 
z
" style="fill:#065d4c;fill-opacity:0.8;"/>
    <path clip-path="url(#pb92d2484c7)" d="M 664.28622 163.380523 
L 664.301481 162.474091 
L 676.557872 154.102315 
L 676.538441 155.003329 
z
" style="fill:#0cba97;fill-opacity:0.8;"/>
    <path clip-path="url(#pb92d2484c7)" d="M 664.28622 163.380523 
L 676.538441 155.003329 
L 698.859637 159.820944 
L 686.750164 168.288521 
z
" style="fill:#08745e;fill-opacity:0.8;"/>
    <path clip-path="url(#pb92d2484c7)" d="M 664.301481 162.474091 
L 686.773528 167.37894 
L 698.887069 158.916808 
L 676.557872 154.102315 
z
" style="fill:#0aa384;fill-opacity:0.8;"/>
    <path clip-path="url(#pb92d2484c7)" d="M 686.750164 168.288521 
L 698.859637 159.820944 
L 698.887069 158.916808 
L 686.773528 167.37894 
z
" style="fill:#065d4c;fill-opacity:0.8;"/>
    <path clip-path="url(#pb92d2484c7)" d="M 664.28622 163.380523 
L 686.750164 168.288521 
L 686.773528 167.37894 
L 664.301481 162.474091 
z
" style="fill:#0cba97;fill-opacity:0.8;"/>
   </g>
   <g id="Poly3DCollection_22">
    <path clip-path="url(#pb92d2484c7)" d="M 607.315628 162.07438 
L 607.315349 162.023438 
L 629.439756 166.917112 
L 629.439593 166.96823 
z
" style="fill:#065d4c;fill-opacity:0.8;"/>
    <path clip-path="url(#pb92d2484c7)" d="M 594.316505 170.584402 
L 594.315961 170.533153 
L 607.315349 162.023438 
L 607.315628 162.07438 
z
" style="fill:#0cba97;fill-opacity:0.8;"/>
    <path clip-path="url(#pb92d2484c7)" d="M 594.316505 170.584402 
L 607.315628 162.07438 
L 629.439593 166.96823 
L 616.578424 175.570799 
z
" style="fill:#08745e;fill-opacity:0.8;"/>
    <path clip-path="url(#pb92d2484c7)" d="M 594.315961 170.533153 
L 616.578328 175.519372 
L 629.439756 166.917112 
L 607.315349 162.023438 
z
" style="fill:#0aa384;fill-opacity:0.8;"/>
    <path clip-path="url(#pb92d2484c7)" d="M 616.578424 175.570799 
L 629.439593 166.96823 
L 629.439756 166.917112 
L 616.578328 175.519372 
z
" style="fill:#065d4c;fill-opacity:0.8;"/>
    <path clip-path="url(#pb92d2484c7)" d="M 594.316505 170.584402 
L 616.578424 175.570799 
L 616.578328 175.519372 
L 594.315961 170.533153 
z
" style="fill:#0cba97;fill-opacity:0.8;"/>
   </g>
   <g id="Poly3DCollection_23">
    <path clip-path="url(#pb92d2484c7)" d="M 721.421184 164.690433 
L 721.421184 164.690433 
L 744.226983 169.612641 
L 744.226983 169.612641 
z
" style="fill:#065d4c;fill-opacity:0.8;"/>
    <path clip-path="url(#pb92d2484c7)" d="M 709.458271 173.249864 
L 709.458271 173.249864 
L 721.421184 164.690433 
L 721.421184 164.690433 
z
" style="fill:#065d4c;fill-opacity:0.8;"/>
    <path clip-path="url(#pb92d2484c7)" d="M 709.458271 173.249864 
L 721.421184 164.690433 
L 744.226983 169.612641 
L 732.414544 178.265428 
z
" style="fill:#08745e;fill-opacity:0.8;"/>
    <path clip-path="url(#pb92d2484c7)" d="M 709.458271 173.249864 
L 732.414544 178.265428 
L 744.226983 169.612641 
L 721.421184 164.690433 
z
" style="fill:#0aa384;fill-opacity:0.8;"/>
    <path clip-path="url(#pb92d2484c7)" d="M 732.414544 178.265428 
L 744.226983 169.612641 
L 744.226983 169.612641 
L 732.414544 178.265428 
z
" style="fill:#065d4c;fill-opacity:0.8;"/>
    <path clip-path="url(#pb92d2484c7)" d="M 709.458271 173.249864 
L 732.414544 178.265428 
L 732.414544 178.265428 
L 709.458271 173.249864 
z
" style="fill:#065d4c;fill-opacity:0.8;"/>
   </g>
   <g id="Poly3DCollection_24">
    <path clip-path="url(#pb92d2484c7)" d="M 536.99603 169.257467 
L 537.038107 170.528244 
L 558.944962 175.504569 
L 558.913652 174.229377 
z
" style="fill:#0cba97;fill-opacity:0.8;"/>
    <path clip-path="url(#pb92d2484c7)" d="M 523.22768 177.903501 
L 523.277092 179.181938 
L 537.038107 170.528244 
L 536.99603 169.257467 
z
" style="fill:#065d4c;fill-opacity:0.8;"/>
    <path clip-path="url(#pb92d2484c7)" d="M 523.277092 179.181938 
L 545.316693 184.25308 
L 558.944962 175.504569 
L 537.038107 170.528244 
z
" style="fill:#0aa384;fill-opacity:0.8;"/>
    <path clip-path="url(#pb92d2484c7)" d="M 523.22768 177.903501 
L 536.99603 169.257467 
L 558.913652 174.229377 
L 545.27818 182.970192 
z
" style="fill:#08745e;fill-opacity:0.8;"/>
    <path clip-path="url(#pb92d2484c7)" d="M 545.27818 182.970192 
L 558.913652 174.229377 
L 558.944962 175.504569 
L 545.316693 184.25308 
z
" style="fill:#0cba97;fill-opacity:0.8;"/>
    <path clip-path="url(#pb92d2484c7)" d="M 523.22768 177.903501 
L 545.27818 182.970192 
L 545.316693 184.25308 
L 523.277092 179.181938 
z
" style="fill:#065d4c;fill-opacity:0.8;"/>
   </g>
   <g id="Poly3DCollection_25">
    <path clip-path="url(#pb92d2484c7)" d="M 651.803676 171.915195 
L 651.803676 171.915195 
L 674.411808 176.916144 
L 674.411808 176.916144 
z
" style="fill:#065d4c;fill-opacity:0.8;"/>
    <path clip-path="url(#pb92d2484c7)" d="M 639.084252 180.611829 
L 639.084252 180.611829 
L 651.803676 171.915195 
L 651.803676 171.915195 
z
" style="fill:#065d4c;fill-opacity:0.8;"/>
    <path clip-path="url(#pb92d2484c7)" d="M 639.084252 180.611829 
L 661.838018 185.708394 
L 674.411808 176.916144 
L 651.803676 171.915195 
z
" style="fill:#0aa384;fill-opacity:0.8;"/>
    <path clip-path="url(#pb92d2484c7)" d="M 639.084252 180.611829 
L 651.803676 171.915195 
L 674.411808 176.916144 
L 661.838018 185.708394 
z
" style="fill:#08745e;fill-opacity:0.8;"/>
    <path clip-path="url(#pb92d2484c7)" d="M 661.838018 185.708394 
L 674.411808 176.916144 
L 674.411808 176.916144 
L 661.838018 185.708394 
z
" style="fill:#065d4c;fill-opacity:0.8;"/>
    <path clip-path="url(#pb92d2484c7)" d="M 639.084252 180.611829 
L 661.838018 185.708394 
L 661.838018 185.708394 
L 639.084252 180.611829 
z
" style="fill:#065d4c;fill-opacity:0.8;"/>
   </g>
   <g id="Poly3DCollection_26">
    <path clip-path="url(#pb92d2484c7)" d="M 581.07106 179.25568 
L 581.07106 179.25568 
L 603.472207 184.337275 
L 603.472207 184.337275 
z
" style="fill:#065d4c;fill-opacity:0.8;"/>
    <path clip-path="url(#pb92d2484c7)" d="M 567.572225 188.092843 
L 567.572225 188.092843 
L 581.07106 179.25568 
L 581.07106 179.25568 
z
" style="fill:#065d4c;fill-opacity:0.8;"/>
    <path clip-path="url(#pb92d2484c7)" d="M 567.572225 188.092843 
L 590.113873 193.272388 
L 603.472207 184.337275 
L 581.07106 179.25568 
z
" style="fill:#0aa384;fill-opacity:0.8;"/>
    <path clip-path="url(#pb92d2484c7)" d="M 567.572225 188.092843 
L 581.07106 179.25568 
L 603.472207 184.337275 
L 590.113873 193.272388 
z
" style="fill:#08745e;fill-opacity:0.8;"/>
    <path clip-path="url(#pb92d2484c7)" d="M 590.113873 193.272388 
L 603.472207 184.337275 
L 603.472207 184.337275 
L 590.113873 193.272388 
z
" style="fill:#065d4c;fill-opacity:0.8;"/>
    <path clip-path="url(#pb92d2484c7)" d="M 567.572225 188.092843 
L 590.113873 193.272388 
L 590.113873 193.272388 
L 567.572225 188.092843 
z
" style="fill:#065d4c;fill-opacity:0.8;"/>
   </g>
   <g id="Poly3DCollection_27">
    <path clip-path="url(#pb92d2484c7)" d="M 697.268005 181.971965 
L 697.240499 182.88956 
L 720.340301 188.00436 
L 720.376374 187.083567 
z
" style="fill:#0cba97;fill-opacity:0.8;"/>
    <path clip-path="url(#pb92d2484c7)" d="M 684.843844 190.861418 
L 684.820616 191.784562 
L 697.240499 182.88956 
L 697.268005 181.971965 
z
" style="fill:#065d4c;fill-opacity:0.8;"/>
    <path clip-path="url(#pb92d2484c7)" d="M 684.820616 191.784562 
L 708.074031 196.998211 
L 720.340301 188.00436 
L 697.240499 182.88956 
z
" style="fill:#0aa384;fill-opacity:0.8;"/>
    <path clip-path="url(#pb92d2484c7)" d="M 684.843844 190.861418 
L 697.268005 181.971965 
L 720.376374 187.083567 
L 708.10594 196.071843 
z
" style="fill:#08745e;fill-opacity:0.8;"/>
    <path clip-path="url(#pb92d2484c7)" d="M 708.10594 196.071843 
L 720.376374 187.083567 
L 720.340301 188.00436 
L 708.074031 196.998211 
z
" style="fill:#0cba97;fill-opacity:0.8;"/>
    <path clip-path="url(#pb92d2484c7)" d="M 684.843844 190.861418 
L 708.10594 196.071843 
L 708.074031 196.998211 
L 684.820616 191.784562 
z
" style="fill:#065d4c;fill-opacity:0.8;"/>
   </g>
   <g id="Poly3DCollection_28">
    <path clip-path="url(#pb92d2484c7)" d="M 509.196327 186.714692 
L 509.196327 186.714692 
L 531.380797 191.8789 
L 531.380797 191.8789 
z
" style="fill:#065d4c;fill-opacity:0.8;"/>
    <path clip-path="url(#pb92d2484c7)" d="M 494.894362 195.695818 
L 494.894362 195.695818 
L 509.196327 186.714692 
L 509.196327 186.714692 
z
" style="fill:#065d4c;fill-opacity:0.8;"/>
    <path clip-path="url(#pb92d2484c7)" d="M 494.894362 195.695818 
L 509.196327 186.714692 
L 531.380797 191.8789 
L 517.213886 200.960386 
z
" style="fill:#08745e;fill-opacity:0.8;"/>
    <path clip-path="url(#pb92d2484c7)" d="M 494.894362 195.695818 
L 517.213886 200.960386 
L 531.380797 191.8789 
L 509.196327 186.714692 
z
" style="fill:#0aa384;fill-opacity:0.8;"/>
    <path clip-path="url(#pb92d2484c7)" d="M 517.213886 200.960386 
L 531.380797 191.8789 
L 531.380797 191.8789 
L 517.213886 200.960386 
z
" style="fill:#065d4c;fill-opacity:0.8;"/>
    <path clip-path="url(#pb92d2484c7)" d="M 494.894362 195.695818 
L 517.213886 200.960386 
L 517.213886 200.960386 
L 494.894362 195.695818 
z
" style="fill:#065d4c;fill-opacity:0.8;"/>
   </g>
   <g id="Poly3DCollection_29">
    <path clip-path="url(#pb92d2484c7)" d="M 626.12114 189.475079 
L 626.121042 189.526995 
L 649.02142 194.722127 
L 649.021992 194.67003 
z
" style="fill:#0cba97;fill-opacity:0.8;"/>
    <path clip-path="url(#pb92d2484c7)" d="M 612.907271 198.50978 
L 612.907446 198.56201 
L 626.121042 189.526995 
L 626.12114 189.475079 
z
" style="fill:#065d4c;fill-opacity:0.8;"/>
    <path clip-path="url(#pb92d2484c7)" d="M 612.907446 198.56201 
L 635.956356 203.858406 
L 649.02142 194.722127 
L 626.121042 189.526995 
z
" style="fill:#0aa384;fill-opacity:0.8;"/>
    <path clip-path="url(#pb92d2484c7)" d="M 612.907271 198.50978 
L 626.12114 189.475079 
L 649.021992 194.67003 
L 635.956661 203.805992 
z
" style="fill:#08745e;fill-opacity:0.8;"/>
    <path clip-path="url(#pb92d2484c7)" d="M 635.956661 203.805992 
L 649.021992 194.67003 
L 649.02142 194.722127 
L 635.956356 203.858406 
z
" style="fill:#0cba97;fill-opacity:0.8;"/>
    <path clip-path="url(#pb92d2484c7)" d="M 612.907271 198.50978 
L 635.956661 203.805992 
L 635.956356 203.858406 
L 612.907446 198.56201 
z
" style="fill:#065d4c;fill-opacity:0.8;"/>
   </g>
   <g id="Poly3DCollection_30">
    <path clip-path="url(#pb92d2484c7)" d="M 553.812659 197.100697 
L 553.777912 195.804208 
L 576.472874 201.080023 
L 576.496074 202.381051 
z
" style="fill:#065d4c;fill-opacity:0.8;"/>
    <path clip-path="url(#pb92d2484c7)" d="M 539.784735 206.284234 
L 539.742357 204.97987 
L 553.777912 195.804208 
L 553.812659 197.100697 
z
" style="fill:#0cba97;fill-opacity:0.8;"/>
    <path clip-path="url(#pb92d2484c7)" d="M 539.784735 206.284234 
L 553.812659 197.100697 
L 576.496074 202.381051 
L 562.611178 211.66837 
z
" style="fill:#08745e;fill-opacity:0.8;"/>
    <path clip-path="url(#pb92d2484c7)" d="M 539.742357 204.97987 
L 562.580492 210.359431 
L 576.472874 201.080023 
L 553.777912 195.804208 
z
" style="fill:#0aa384;fill-opacity:0.8;"/>
    <path clip-path="url(#pb92d2484c7)" d="M 562.611178 211.66837 
L 576.496074 202.381051 
L 576.472874 201.080023 
L 562.580492 210.359431 
z
" style="fill:#065d4c;fill-opacity:0.8;"/>
    <path clip-path="url(#pb92d2484c7)" d="M 539.784735 206.284234 
L 562.611178 211.66837 
L 562.580492 210.359431 
L 539.742357 204.97987 
z
" style="fill:#0cba97;fill-opacity:0.8;"/>
   </g>
   <g id="Poly3DCollection_31">
    <path clip-path="url(#pb92d2484c7)" d="M 672.17899 199.923086 
L 672.186892 199.532273 
L 695.608059 204.843046 
L 695.596455 205.235227 
z
" style="fill:#065d4c;fill-opacity:0.8;"/>
    <path clip-path="url(#pb92d2484c7)" d="M 659.26638 209.162022 
L 659.272334 208.768835 
L 672.186892 199.532273 
L 672.17899 199.923086 
z
" style="fill:#0cba97;fill-opacity:0.8;"/>
    <path clip-path="url(#pb92d2484c7)" d="M 659.26638 209.162022 
L 672.17899 199.923086 
L 695.596455 205.235227 
L 682.840864 214.578888 
z
" style="fill:#08745e;fill-opacity:0.8;"/>
    <path clip-path="url(#pb92d2484c7)" d="M 659.272334 208.768835 
L 682.85057 214.184323 
L 695.608059 204.843046 
L 672.186892 199.532273 
z
" style="fill:#0aa384;fill-opacity:0.8;"/>
    <path clip-path="url(#pb92d2484c7)" d="M 682.840864 214.578888 
L 695.596455 205.235227 
L 695.608059 204.843046 
L 682.85057 214.184323 
z
" style="fill:#065d4c;fill-opacity:0.8;"/>
    <path clip-path="url(#pb92d2484c7)" d="M 659.26638 209.162022 
L 682.840864 214.578888 
L 682.85057 214.184323 
L 659.272334 208.768835 
z
" style="fill:#0cba97;fill-opacity:0.8;"/>
   </g>
   <g id="Poly3DCollection_32">
    <path clip-path="url(#pb92d2484c7)" d="M 599.435297 207.720954 
L 599.43164 207.30183 
L 622.634901 212.700825 
L 622.63468 213.121418 
z
" style="fill:#065d4c;fill-opacity:0.8;"/>
    <path clip-path="url(#pb92d2484c7)" d="M 585.69758 217.113824 
L 585.69157 216.692151 
L 599.43164 207.30183 
L 599.435297 207.720954 
z
" style="fill:#0cba97;fill-opacity:0.8;"/>
    <path clip-path="url(#pb92d2484c7)" d="M 585.69758 217.113824 
L 599.435297 207.720954 
L 622.63468 213.121418 
L 609.048409 222.621648 
z
" style="fill:#08745e;fill-opacity:0.8;"/>
    <path clip-path="url(#pb92d2484c7)" d="M 585.69157 216.692151 
L 609.046328 222.198495 
L 622.634901 212.700825 
L 599.43164 207.30183 
z
" style="fill:#0aa384;fill-opacity:0.8;"/>
    <path clip-path="url(#pb92d2484c7)" d="M 609.048409 222.621648 
L 622.63468 213.121418 
L 622.634901 212.700825 
L 609.046328 222.198495 
z
" style="fill:#065d4c;fill-opacity:0.8;"/>
    <path clip-path="url(#pb92d2484c7)" d="M 585.69758 217.113824 
L 609.048409 222.621648 
L 609.046328 222.198495 
L 585.69157 216.692151 
z
" style="fill:#0cba97;fill-opacity:0.8;"/>
   </g>
   <g id="Poly3DCollection_33">
    <path clip-path="url(#pb92d2484c7)" d="M 646.098673 218.583479 
L 646.102158 218.232389 
L 669.838692 223.755875 
L 669.831831 224.108198 
z
" style="fill:#065d4c;fill-opacity:0.8;"/>
    <path clip-path="url(#pb92d2484c7)" d="M 632.668234 228.192921 
L 632.669846 227.839692 
L 646.102158 218.232389 
L 646.098673 218.583479 
z
" style="fill:#0cba97;fill-opacity:0.8;"/>
    <path clip-path="url(#pb92d2484c7)" d="M 632.668234 228.192921 
L 646.098673 218.583479 
L 669.831831 224.108198 
L 656.561729 233.828746 
z
" style="fill:#08745e;fill-opacity:0.8;"/>
    <path clip-path="url(#pb92d2484c7)" d="M 632.669846 227.839692 
L 656.566763 233.474275 
L 669.838692 223.755875 
L 646.102158 218.232389 
z
" style="fill:#0aa384;fill-opacity:0.8;"/>
    <path clip-path="url(#pb92d2484c7)" d="M 656.561729 233.828746 
L 669.831831 224.108198 
L 669.838692 223.755875 
L 656.566763 233.474275 
z
" style="fill:#065d4c;fill-opacity:0.8;"/>
    <path clip-path="url(#pb92d2484c7)" d="M 632.668234 228.192921 
L 656.561729 233.828746 
L 656.566763 233.474275 
L 632.669846 227.839692 
z
" style="fill:#0cba97;fill-opacity:0.8;"/>
   </g>
   <g id="Poly3DCollection_34">
    <path clip-path="url(#pb92d2484c7)" d="M 482.053745 197.0391 
L 660.302482 239.279235 
L 756.331024 168.346413 
L 586.581943 131.864223 
z
" style="fill-opacity:0.2;"/>
   </g>
  </g>
 </g>
 <defs>
  <clipPath id="pf599ca1432">
   <rect height="277.2" width="380.454545" x="-30.6" y="-14.4"/>
  </clipPath>
  <clipPath id="pb92d2484c7">
   <rect height="277.2" width="380.454545" x="425.945455" y="-14.4"/>
  </clipPath>
 </defs>
</svg>
