<?xml version="1.0" encoding="utf-8" standalone="no"?>
<!DOCTYPE svg PUBLIC "-//W3C//DTD SVG 1.1//EN"
  "http://www.w3.org/Graphics/SVG/1.1/DTD/svg11.dtd">
<!-- Created with matplotlib (https://matplotlib.org/) -->
<svg height="302.4pt" version="1.1" viewBox="0 0 820.8 302.4" width="820.8pt" xmlns="http://www.w3.org/2000/svg" xmlns:xlink="http://www.w3.org/1999/xlink">
 <defs>
  <style type="text/css">
*{stroke-linecap:butt;stroke-linejoin:round;}
  </style>
 </defs>
 <g id="figure_1">
  <g id="patch_1">
   <path d="M 0 302.4 
L 820.8 302.4 
L 820.8 0 
L 0 0 
z
" style="fill:#ffffff;"/>
  </g>
  <g id="patch_2">
   <path d="M -30.6 262.8 
L 349.854545 262.8 
L 349.854545 -14.4 
L -30.6 -14.4 
z
" style="fill:#ffffff;"/>
  </g>
  <g id="pane3d_1">
   <g id="patch_3">
    <path d="M 19.835129 201.548569 
L 128.723211 133.58541 
L 126.910339 3.718968 
L 11.951034 64.782468 
" style="fill:#f2f2f2;opacity:0.5;stroke:#f2f2f2;stroke-linejoin:miter;"/>
   </g>
  </g>
  <g id="pane3d_2">
   <g id="patch_4">
    <path d="M 128.723211 133.58541 
L 305.111665 171.581202 
L 312.491547 37.79869 
L 126.910339 3.718968 
" style="fill:#e6e6e6;opacity:0.5;stroke:#e6e6e6;stroke-linejoin:miter;"/>
   </g>
  </g>
  <g id="pane3d_3">
   <g id="patch_5">
    <path d="M 19.835129 201.548569 
L 205.419617 245.80086 
L 305.111665 171.581202 
L 128.723211 133.58541 
" style="fill:#ececec;opacity:0.5;stroke:#ececec;stroke-linejoin:miter;"/>
   </g>
  </g>
  <g id="axis3d_1">
   <g id="line2d_1">
    <path d="M 19.835129 201.548569 
L 205.419617 245.80086 
" style="fill:none;stroke:#000000;stroke-linecap:square;stroke-width:0.8;"/>
   </g>
   <g id="Line3DCollection_1">
    <path d="M 42.295817 206.90428 
L 150.133942 138.19749 
L 149.393845 7.847789 
" style="fill:none;stroke:#b0b0b0;stroke-width:0.8;"/>
    <path d="M 87.512337 217.686079 
L 193.184014 147.470895 
L 194.636898 16.156123 
" style="fill:none;stroke:#b0b0b0;stroke-width:0.8;"/>
    <path d="M 133.765289 228.715013 
L 237.148096 156.941187 
L 240.890183 24.649974 
" style="fill:none;stroke:#b0b0b0;stroke-width:0.8;"/>
    <path d="M 181.090721 239.999678 
L 282.055608 166.614702 
L 288.187917 33.335625 
" style="fill:none;stroke:#b0b0b0;stroke-width:0.8;"/>
   </g>
   <g id="xtick_1">
    <g id="line2d_2">
     <path d="M 43.225084 206.312217 
L 40.433807 208.09062 
" style="fill:none;stroke:#000000;stroke-linecap:square;stroke-width:0.8;"/>
    </g>
    <g id="text_1">
     <!-- 00 -->
     <defs>
      <path d="M 42 31.84375 
C 42 37.96875 41.90625 48.421875 37.703125 56.453125 
C 34 63.484375 28.09375 66 22.90625 66 
C 18.09375 66 12 63.78125 8.203125 56.5625 
C 4.203125 49.015625 3.796875 39.671875 3.796875 31.84375 
C 3.796875 26.109375 3.90625 17.375 7 9.734375 
C 11.296875 -0.609375 19 -2 22.90625 -2 
C 27.5 -2 34.5 -0.109375 38.59375 9.4375 
C 41.59375 16.375 42 24.5 42 31.84375 
z
M 22.90625 -0.40625 
C 16.5 -0.40625 12.703125 5.125 11.296875 12.75 
C 10.203125 18.6875 10.203125 27.328125 10.203125 32.953125 
C 10.203125 40.6875 10.203125 47.109375 11.5 53.234375 
C 13.40625 61.78125 19 64.390625 22.90625 64.390625 
C 27 64.390625 32.296875 61.671875 34.203125 53.4375 
C 35.5 47.71875 35.59375 40.984375 35.59375 32.953125 
C 35.59375 26.421875 35.59375 18.375 34.40625 12.453125 
C 32.296875 1.5 26.40625 -0.40625 22.90625 -0.40625 
z
" id="CMR17-48"/>
     </defs>
     <g transform="translate(23.330362 237.14703)rotate(-45)scale(0.14 -0.14)">
      <use transform="scale(0.996264)" xlink:href="#CMR17-48"/>
      <use transform="translate(45.690477 0)scale(0.996264)" xlink:href="#CMR17-48"/>
     </g>
    </g>
   </g>
   <g id="xtick_2">
    <g id="line2d_3">
     <path d="M 88.423674 217.080527 
L 85.686217 218.899473 
" style="fill:none;stroke:#000000;stroke-linecap:square;stroke-width:0.8;"/>
    </g>
    <g id="text_2">
     <!-- 01 -->
     <defs>
      <path d="M 26.59375 63.796875 
C 26.59375 65.890625 26.5 66 25.09375 66 
C 21.203125 61.359375 15.296875 59.890625 9.703125 59.6875 
C 9.40625 59.6875 8.90625 59.6875 8.796875 59.5 
C 8.703125 59.296875 8.703125 59.09375 8.703125 57 
C 11.796875 57 17 57.59375 21 59.984375 
L 21 7.296875 
C 21 3.796875 20.796875 2.59375 12.203125 2.59375 
L 9.203125 2.59375 
L 9.203125 0 
C 14 0.09375 19 0.1875 23.796875 0.1875 
C 28.59375 0.1875 33.59375 0.09375 38.40625 0 
L 38.40625 2.59375 
L 35.40625 2.59375 
C 26.796875 2.59375 26.59375 3.6875 26.59375 7.296875 
z
" id="CMR17-49"/>
     </defs>
     <g transform="translate(68.542787 248.103782)rotate(-45)scale(0.14 -0.14)">
      <use transform="scale(0.996264)" xlink:href="#CMR17-48"/>
      <use transform="translate(45.690477 0)scale(0.996264)" xlink:href="#CMR17-49"/>
     </g>
    </g>
   </g>
   <g id="xtick_3">
    <g id="line2d_4">
     <path d="M 134.657625 228.095506 
L 131.977203 229.956397 
" style="fill:none;stroke:#000000;stroke-linecap:square;stroke-width:0.8;"/>
    </g>
    <g id="text_3">
     <!-- 10 -->
     <g transform="translate(114.7934 259.312128)rotate(-45)scale(0.14 -0.14)">
      <use transform="scale(0.996264)" xlink:href="#CMR17-49"/>
      <use transform="translate(45.690477 0)scale(0.996264)" xlink:href="#CMR17-48"/>
     </g>
    </g>
   </g>
   <g id="xtick_4">
    <g id="line2d_5">
     <path d="M 181.962926 239.365727 
L 179.342936 241.270032 
" style="fill:none;stroke:#000000;stroke-linecap:square;stroke-width:0.8;"/>
    </g>
    <g id="text_4">
     <!-- 11 -->
     <g transform="translate(162.118375 270.780834)rotate(-45)scale(0.14 -0.14)">
      <use transform="scale(0.996264)" xlink:href="#CMR17-49"/>
      <use transform="translate(45.690477 0)scale(0.996264)" xlink:href="#CMR17-49"/>
     </g>
    </g>
   </g>
  </g>
  <g id="axis3d_2">
   <g id="line2d_6">
    <path d="M 305.111665 171.581202 
L 205.419617 245.80086 
" style="fill:none;stroke:#000000;stroke-linecap:square;stroke-width:0.8;"/>
   </g>
   <g id="Line3DCollection_2">
    <path d="M 27.455231 56.547028 
L 34.471044 192.413474 
L 218.858418 235.795817 
" style="fill:none;stroke:#b0b0b0;stroke-width:0.8;"/>
    <path d="M 57.232024 40.730342 
L 62.623407 174.842005 
L 244.674037 216.576366 
" style="fill:none;stroke:#b0b0b0;stroke-width:0.8;"/>
    <path d="M 85.85589 25.526062 
L 89.739382 157.917404 
L 269.496985 198.095948 
" style="fill:none;stroke:#b0b0b0;stroke-width:0.8;"/>
    <path d="M 113.392516 10.899296 
L 115.875164 141.604597 
L 293.383438 180.312741 
" style="fill:none;stroke:#b0b0b0;stroke-width:0.8;"/>
   </g>
   <g id="xtick_5">
    <g id="line2d_7">
     <path d="M 217.315598 235.432825 
L 221.947489 236.522608 
" style="fill:none;stroke:#000000;stroke-linecap:square;stroke-width:0.8;"/>
    </g>
    <g id="text_5">
     <!-- 00 -->
     <g transform="translate(232.650369 248.348363)rotate(-337.5)scale(0.14 -0.14)">
      <use transform="scale(0.996264)" xlink:href="#CMR17-48"/>
      <use transform="translate(45.690477 0)scale(0.996264)" xlink:href="#CMR17-48"/>
     </g>
    </g>
   </g>
   <g id="xtick_6">
    <g id="line2d_8">
     <path d="M 243.15208 216.227463 
L 247.72127 217.274932 
" style="fill:none;stroke:#000000;stroke-linecap:square;stroke-width:0.8;"/>
    </g>
    <g id="text_6">
     <!-- 01 -->
     <g transform="translate(258.203921 228.903937)rotate(-337.5)scale(0.14 -0.14)">
      <use transform="scale(0.996264)" xlink:href="#CMR17-48"/>
      <use transform="translate(45.690477 0)scale(0.996264)" xlink:href="#CMR17-49"/>
     </g>
    </g>
   </g>
   <g id="xtick_7">
    <g id="line2d_9">
     <path d="M 267.995442 197.76033 
L 272.503283 198.767901 
" style="fill:none;stroke:#000000;stroke-linecap:square;stroke-width:0.8;"/>
    </g>
    <g id="text_7">
     <!-- 10 -->
     <g transform="translate(282.775332 210.206849)rotate(-337.5)scale(0.14 -0.14)">
      <use transform="scale(0.996264)" xlink:href="#CMR17-49"/>
      <use transform="translate(45.690477 0)scale(0.996264)" xlink:href="#CMR17-48"/>
     </g>
    </g>
   </g>
   <g id="xtick_8">
    <g id="line2d_10">
     <path d="M 291.901865 179.989663 
L 296.349691 180.959573 
" style="fill:none;stroke:#000000;stroke-linecap:square;stroke-width:0.8;"/>
    </g>
    <g id="text_8">
     <!-- 11 -->
     <g transform="translate(306.420159 192.214827)rotate(-337.5)scale(0.14 -0.14)">
      <use transform="scale(0.996264)" xlink:href="#CMR17-49"/>
      <use transform="translate(45.690477 0)scale(0.996264)" xlink:href="#CMR17-49"/>
     </g>
    </g>
   </g>
  </g>
  <g id="axis3d_3">
   <g id="line2d_11">
    <path d="M 305.111665 171.581202 
L 312.491547 37.79869 
" style="fill:none;stroke:#000000;stroke-linecap:square;stroke-width:0.8;"/>
   </g>
   <g id="text_9">
    <!-- Re[$\rho$] -->
    <defs>
     <path d="M 39.203125 33.6875 
C 48.703125 35.59375 56.703125 42.015625 56.703125 50.046875 
C 56.703125 59.46875 46.09375 68 32.09375 68 
L 5.203125 68 
L 5.203125 65.390625 
C 12.09375 65.390625 13.203125 65.390625 13.203125 60.875 
L 13.203125 6.6875 
C 13.203125 2.1875 12.09375 2.1875 5.203125 2.1875 
L 5.203125 -0.40625 
C 8.09375 -0.203125 13.296875 -0.203125 16.40625 -0.203125 
C 19.5 -0.203125 24.703125 -0.203125 27.59375 -0.40625 
L 27.59375 2.1875 
C 20.703125 2.1875 19.59375 2.1875 19.59375 6.6875 
L 19.59375 33 
L 31.296875 33 
C 37 33 40.203125 30.6875 41.59375 29.390625 
C 45.59375 25.5 45.59375 22.796875 45.59375 16 
C 45.59375 9.296875 45.59375 5.890625 48.59375 2.5 
C 52.40625 -1.609375 57.5 -2 59.703125 -2 
C 67.09375 -2 68.203125 6.296875 68.203125 8 
C 68.203125 8.59375 68.203125 9.296875 67.296875 9.296875 
C 66.5 9.296875 66.40625 8.6875 66.40625 8.296875 
C 65.90625 1.796875 63 -0.40625 59.90625 -0.40625 
C 54.40625 -0.40625 53.796875 5.890625 53.203125 12 
C 52.90625 14.09375 52.703125 15.59375 52.5 17.796875 
C 51.90625 22.796875 51.09375 30.09375 39.203125 33.6875 
z
M 31 34.59375 
L 19.59375 34.59375 
L 19.59375 61.484375 
C 19.59375 64.890625 19.796875 65.390625 23.796875 65.390625 
L 31.09375 65.390625 
C 39.40625 65.390625 49.09375 62.484375 49.09375 50.046875 
C 49.09375 37.09375 38.5 34.59375 31 34.59375 
z
" id="CMR17-82"/>
     <path d="M 38.09375 23.484375 
C 38.5 23.890625 38.5 24.09375 38.5 25.09375 
C 38.5 35.171875 33.09375 44 21.703125 44 
C 11.09375 44 2.703125 33.984375 2.703125 21.78125 
C 2.703125 8.65625 12.203125 -1 22.796875 -1 
C 34 -1 38.40625 9.671875 38.40625 11.796875 
C 38.40625 12.5 37.796875 12.5 37.59375 12.5 
C 36.90625 12.5 36.796875 12.296875 36.40625 11.078125 
C 34.203125 4.21875 28.703125 0.796875 23.5 0.796875 
C 19.203125 0.796875 14.90625 3.21875 12.203125 7.65625 
C 9.09375 12.796875 9.09375 18.75 9.09375 23.484375 
z
M 9.203125 25 
C 9.90625 39.234375 17.59375 42.390625 21.59375 42.390625 
C 28.40625 42.390625 33 36.0625 33.09375 25 
z
" id="CMR17-101"/>
     <path d="M 23.5 -25 
L 23.5 -21.5 
L 14.09375 -21.5 
L 14.09375 71.484375 
L 23.5 71.484375 
L 23.5 75 
L 10.59375 75 
L 10.59375 -25 
z
" id="CMR17-91"/>
     <path d="M 3.09375 -16.953125 
C 3 -17.4375 2.796875 -18.03125 2.796875 -18.609375 
C 2.796875 -20.109375 4 -21.109375 5.5 -21.109375 
C 7 -21.109375 8.40625 -20.109375 9 -18.71875 
C 9.40625 -17.828125 12.203125 -6.09375 15.40625 6.078125 
C 17.40625 1.09375 21.09375 -1 25 -1 
C 36.296875 -1 49.09375 12.96875 49.09375 28.03125 
C 49.09375 38.703125 42.59375 44 35.703125 44 
C 26.90625 44 16.203125 34.90625 12.90625 21.640625 
z
M 24.90625 1 
C 18.09375 1 16.40625 8.875 16.40625 10.078125 
C 16.40625 10.671875 18.90625 20.140625 19.203125 21.640625 
C 24.296875 41.5 34.09375 41.984375 35.59375 41.984375 
C 40.09375 41.984375 42.59375 37.90625 42.59375 32.015625 
C 42.59375 26.9375 39.90625 17.046875 38.203125 12.859375 
C 35.203125 5.984375 30 1 24.90625 1 
z
" id="CMMI12-26"/>
     <path d="M 14.296875 75 
L 1.40625 75 
L 1.40625 71.484375 
L 10.796875 71.484375 
L 10.796875 -21.5 
L 1.40625 -21.5 
L 1.40625 -25 
L 14.296875 -25 
z
" id="CMR17-93"/>
    </defs>
    <g transform="translate(352.486567 117.931831)rotate(-86.842577)scale(0.14 -0.14)">
     <use transform="scale(0.996264)" xlink:href="#CMR17-82"/>
     <use transform="translate(67.791102 0)scale(0.996264)" xlink:href="#CMR17-101"/>
     <use transform="translate(108.276762 0)scale(0.996264)" xlink:href="#CMR17-91"/>
     <use transform="translate(133.147821 0)scale(0.996264)" xlink:href="#CMMI12-26"/>
     <use transform="translate(183.462194 0)scale(0.996264)" xlink:href="#CMR17-93"/>
    </g>
   </g>
   <g id="Line3DCollection_3">
    <path d="M 305.280569 168.519319 
L 128.681631 130.606822 
L 19.654989 198.423662 
" style="fill:none;stroke:#b0b0b0;stroke-width:0.8;"/>
    <path d="M 306.969644 137.899761 
L 128.266053 100.83657 
L 17.852764 167.160303 
" style="fill:none;stroke:#b0b0b0;stroke-width:0.8;"/>
    <path d="M 308.699821 106.535099 
L 127.840792 70.37266 
L 16.005211 135.110633 
" style="fill:none;stroke:#b0b0b0;stroke-width:0.8;"/>
    <path d="M 310.47262 74.3978 
L 127.405505 39.190561 
L 14.110597 102.24461 
" style="fill:none;stroke:#b0b0b0;stroke-width:0.8;"/>
    <path d="M 312.289634 41.458961 
L 126.959834 7.264575 
L 12.167103 68.53064 
" style="fill:none;stroke:#b0b0b0;stroke-width:0.8;"/>
   </g>
   <g id="xtick_9">
    <g id="line2d_12">
     <path d="M 303.80709 168.202991 
L 308.230591 169.152634 
" style="fill:none;stroke:#000000;stroke-linecap:square;stroke-width:0.8;"/>
    </g>
    <g id="text_10">
     <!-- $0.0$ -->
     <defs>
      <path d="M 18.40625 4.796875 
C 18.40625 7.6875 16 9.6875 13.59375 9.6875 
C 10.703125 9.6875 8.703125 7.296875 8.703125 4.890625 
C 8.703125 2 11.09375 0 13.5 0 
C 16.40625 0 18.40625 2.390625 18.40625 4.796875 
z
" id="CMMI12-58"/>
     </defs>
     <g transform="translate(315.086756 176.264993)scale(0.14 -0.14)">
      <use transform="scale(0.996264)" xlink:href="#CMR17-48"/>
      <use transform="translate(45.690477 0)scale(0.996264)" xlink:href="#CMMI12-58"/>
      <use transform="translate(72.787654 0)scale(0.996264)" xlink:href="#CMR17-48"/>
     </g>
    </g>
   </g>
   <g id="xtick_10">
    <g id="line2d_13">
     <path d="M 305.477867 137.590366 
L 309.956338 138.519202 
" style="fill:none;stroke:#000000;stroke-linecap:square;stroke-width:0.8;"/>
    </g>
    <g id="text_11">
     <!-- $0.1$ -->
     <g transform="translate(316.994485 145.688)scale(0.14 -0.14)">
      <use transform="scale(0.996264)" xlink:href="#CMR17-48"/>
      <use transform="translate(45.690477 0)scale(0.996264)" xlink:href="#CMMI12-58"/>
      <use transform="translate(72.787654 0)scale(0.996264)" xlink:href="#CMR17-49"/>
     </g>
    </g>
   </g>
   <g id="xtick_11">
    <g id="line2d_14">
     <path d="M 307.189287 106.23307 
L 311.72411 107.1398 
" style="fill:none;stroke:#000000;stroke-linecap:square;stroke-width:0.8;"/>
    </g>
    <g id="text_12">
     <!-- $0.2$ -->
     <defs>
      <path d="M 41.703125 15.46875 
L 39.90625 15.46875 
C 38.90625 8.390625 38.09375 7.1875 37.703125 6.59375 
C 37.203125 5.796875 30 5.796875 28.59375 5.796875 
L 9.40625 5.796875 
C 13 9.6875 20 16.765625 28.5 24.9375 
C 34.59375 30.71875 41.703125 37.5 41.703125 47.390625 
C 41.703125 59.1875 32.296875 66 21.796875 66 
C 10.796875 66 4.09375 56.296875 4.09375 47.296875 
C 4.09375 43.390625 7 42.890625 8.203125 42.890625 
C 9.203125 42.890625 12.203125 43.484375 12.203125 46.984375 
C 12.203125 50.09375 9.59375 51 8.203125 51 
C 7.59375 51 7 50.890625 6.59375 50.6875 
C 8.5 59.1875 14.296875 63.390625 20.40625 63.390625 
C 29.09375 63.390625 34.796875 56.5 34.796875 47.390625 
C 34.796875 38.703125 29.703125 31.21875 24 24.734375 
L 4.09375 2.296875 
L 4.09375 0 
L 39.296875 0 
z
" id="CMR17-50"/>
     </defs>
     <g transform="translate(318.948535 114.368558)scale(0.14 -0.14)">
      <use transform="scale(0.996264)" xlink:href="#CMR17-48"/>
      <use transform="translate(45.690477 0)scale(0.996264)" xlink:href="#CMMI12-58"/>
      <use transform="translate(72.787654 0)scale(0.996264)" xlink:href="#CMR17-50"/>
     </g>
    </g>
   </g>
   <g id="xtick_12">
    <g id="line2d_15">
     <path d="M 308.94285 74.103597 
L 313.535461 74.986842 
" style="fill:none;stroke:#000000;stroke-linecap:square;stroke-width:0.8;"/>
    </g>
    <g id="text_13">
     <!-- $0.3$ -->
     <defs>
      <path d="M 22.09375 34 
C 31 34 34.90625 26.140625 34.90625 17.09375 
C 34.90625 5.03125 28.5 0.390625 22.703125 0.390625 
C 17.40625 0.390625 8.796875 3.015625 6.09375 10.796875 
C 6.59375 10.59375 7.09375 10.59375 7.59375 10.59375 
C 10 10.59375 11.796875 12.1875 11.796875 14.796875 
C 11.796875 17.6875 9.59375 19 7.59375 19 
C 5.90625 19 3.296875 18.1875 3.296875 14.484375 
C 3.296875 5.234375 12.296875 -2 22.90625 -2 
C 34 -2 42.5 6.75 42.5 16.984375 
C 42.5 26.84375 34.5 34 25 35.09375 
C 32.59375 36.671875 39.90625 43.375 39.90625 52.390625 
C 39.90625 60.25 32 66 23 66 
C 13.90625 66 5.90625 60.34375 5.90625 52.296875 
C 5.90625 48.796875 8.5 48.1875 9.796875 48.1875 
C 11.90625 48.1875 13.703125 49.484375 13.703125 52.09375 
C 13.703125 54.6875 11.90625 56 9.796875 56 
C 9.40625 56 8.90625 56 8.5 55.796875 
C 11.40625 62.484375 19.296875 63.6875 22.796875 63.6875 
C 26.296875 63.6875 32.90625 61.96875 32.90625 52.296875 
C 32.90625 49.484375 32.5 44.546875 29.09375 40.21875 
C 26.09375 36.390625 22.703125 36.1875 19.40625 35.890625 
C 18.90625 35.890625 16.59375 35.6875 16.203125 35.6875 
C 15.5 35.59375 15.09375 35.5 15.09375 34.796875 
C 15.09375 34.09375 15.203125 34 17.203125 34 
z
" id="CMR17-51"/>
     </defs>
     <g transform="translate(320.950616 82.279295)scale(0.14 -0.14)">
      <use transform="scale(0.996264)" xlink:href="#CMR17-48"/>
      <use transform="translate(45.690477 0)scale(0.996264)" xlink:href="#CMMI12-58"/>
      <use transform="translate(72.787654 0)scale(0.996264)" xlink:href="#CMR17-51"/>
     </g>
    </g>
   </g>
   <g id="xtick_13">
    <g id="line2d_16">
     <path d="M 310.740133 41.173069 
L 315.392021 42.031369 
" style="fill:none;stroke:#000000;stroke-linecap:square;stroke-width:0.8;"/>
    </g>
    <g id="text_14">
     <!-- $0.4$ -->
     <defs>
      <path d="M 33.59375 64.796875 
C 33.59375 66.890625 33.5 67 31.703125 67 
L 2 19.59375 
L 2 17 
L 27.796875 17 
L 27.796875 7.1875 
C 27.796875 3.59375 27.59375 2.59375 20.59375 2.59375 
L 18.703125 2.59375 
L 18.703125 0 
C 21.90625 0.1875 27.296875 0.1875 30.703125 0.1875 
C 34.09375 0.1875 39.5 0.1875 42.703125 0 
L 42.703125 2.59375 
L 40.796875 2.59375 
C 33.796875 2.59375 33.59375 3.59375 33.59375 7.1875 
L 33.59375 17 
L 43.796875 17 
L 43.796875 19.59375 
L 33.59375 19.59375 
z
M 28.09375 58.171875 
L 28.09375 19.59375 
L 4 19.59375 
z
" id="CMR17-52"/>
     </defs>
     <g transform="translate(323.002519 49.391473)scale(0.14 -0.14)">
      <use transform="scale(0.996264)" xlink:href="#CMR17-48"/>
      <use transform="translate(45.690477 0)scale(0.996264)" xlink:href="#CMMI12-58"/>
      <use transform="translate(72.787654 0)scale(0.996264)" xlink:href="#CMR17-52"/>
     </g>
    </g>
   </g>
  </g>
  <g id="axes_1">
   <g id="Poly3DCollection_1">
    <path clip-path="url(#pc7a5c754ab)" d="M 133.045527 136.970477 
L 133.051747 137.476151 
L 154.438688 142.098609 
L 154.436651 141.591196 
z
" style="fill:#ba0c2f;fill-opacity:0.8;"/>
    <path clip-path="url(#pc7a5c754ab)" d="M 120.262327 145.004622 
L 120.271134 145.513314 
L 133.051747 137.476151 
L 133.045527 136.970477 
z
" style="fill:#5d0618;fill-opacity:0.8;"/>
    <path clip-path="url(#pc7a5c754ab)" d="M 120.271134 145.513314 
L 141.786381 150.220613 
L 154.438688 142.098609 
L 133.051747 137.476151 
z
" style="fill:#a30a29;fill-opacity:0.8;"/>
    <path clip-path="url(#pc7a5c754ab)" d="M 120.262327 145.004622 
L 133.045527 136.970477 
L 154.436651 141.591196 
L 141.781808 149.710168 
z
" style="fill:#74081d;fill-opacity:0.8;"/>
    <path clip-path="url(#pc7a5c754ab)" d="M 141.781808 149.710168 
L 154.436651 141.591196 
L 154.438688 142.098609 
L 141.786381 150.220613 
z
" style="fill:#ba0c2f;fill-opacity:0.8;"/>
    <path clip-path="url(#pc7a5c754ab)" d="M 120.262327 145.004622 
L 141.781808 149.710168 
L 141.786381 150.220613 
L 120.271134 145.513314 
z
" style="fill:#5d0618;fill-opacity:0.8;"/>
   </g>
   <g id="Poly3DCollection_2">
    <path clip-path="url(#pc7a5c754ab)" d="M 176.05319 146.260606 
L 176.066343 143.265688 
L 197.937545 147.974211 
L 197.898724 150.979483 
z
" style="fill:#5d0618;fill-opacity:0.8;"/>
    <path clip-path="url(#pc7a5c754ab)" d="M 163.530144 154.465755 
L 163.528688 151.452873 
L 176.066343 143.265688 
L 176.05319 146.260606 
z
" style="fill:#ba0c2f;fill-opacity:0.8;"/>
    <path clip-path="url(#pc7a5c754ab)" d="M 163.530144 154.465755 
L 176.05319 146.260606 
L 197.898724 150.979483 
L 185.511006 159.272188 
z
" style="fill:#74081d;fill-opacity:0.8;"/>
    <path clip-path="url(#pc7a5c754ab)" d="M 163.528688 151.452873 
L 185.535536 156.248865 
L 197.937545 147.974211 
L 176.066343 143.265688 
z
" style="fill:#a30a29;fill-opacity:0.8;"/>
    <path clip-path="url(#pc7a5c754ab)" d="M 185.511006 159.272188 
L 197.898724 150.979483 
L 197.937545 147.974211 
L 185.535536 156.248865 
z
" style="fill:#5d0618;fill-opacity:0.8;"/>
    <path clip-path="url(#pc7a5c754ab)" d="M 163.530144 154.465755 
L 185.511006 159.272188 
L 185.535536 156.248865 
L 163.528688 151.452873 
z
" style="fill:#ba0c2f;fill-opacity:0.8;"/>
   </g>
   <g id="Poly3DCollection_3">
    <path clip-path="url(#pc7a5c754ab)" d="M 219.976913 155.748615 
L 220.09053 150.480276 
L 242.451888 155.282182 
L 242.291493 160.56881 
z
" style="fill:#5d0618;fill-opacity:0.8;"/>
    <path clip-path="url(#pc7a5c754ab)" d="M 207.728142 164.130285 
L 207.817376 158.830212 
L 220.09053 150.480276 
L 219.976913 155.748615 
z
" style="fill:#ba0c2f;fill-opacity:0.8;"/>
    <path clip-path="url(#pc7a5c754ab)" d="M 207.728142 164.130285 
L 219.976913 155.748615 
L 242.291493 160.56881 
L 230.185383 169.040885 
z
" style="fill:#74081d;fill-opacity:0.8;"/>
    <path clip-path="url(#pc7a5c754ab)" d="M 207.817376 158.830212 
L 230.322 163.722368 
L 242.451888 155.282182 
L 220.09053 150.480276 
z
" style="fill:#a30a29;fill-opacity:0.8;"/>
    <path clip-path="url(#pc7a5c754ab)" d="M 230.185383 169.040885 
L 242.291493 160.56881 
L 242.451888 155.282182 
L 230.322 163.722368 
z
" style="fill:#5d0618;fill-opacity:0.8;"/>
    <path clip-path="url(#pc7a5c754ab)" d="M 207.728142 164.130285 
L 230.185383 169.040885 
L 230.322 163.722368 
L 207.817376 158.830212 
z
" style="fill:#ba0c2f;fill-opacity:0.8;"/>
   </g>
   <g id="Poly3DCollection_4">
    <path clip-path="url(#pc7a5c754ab)" d="M 107.243996 153.186546 
L 106.940506 139.667 
L 128.702662 144.412598 
L 128.892952 157.979275 
z
" style="fill:#5d0618;fill-opacity:0.8;"/>
    <path clip-path="url(#pc7a5c754ab)" d="M 93.983986 161.520364 
L 93.607053 147.919036 
L 106.940506 139.667 
L 107.243996 153.186546 
z
" style="fill:#ba0c2f;fill-opacity:0.8;"/>
    <path clip-path="url(#pc7a5c754ab)" d="M 93.983986 161.520364 
L 107.243996 153.186546 
L 128.892952 157.979275 
L 115.763531 166.402722 
z
" style="fill:#74081d;fill-opacity:0.8;"/>
    <path clip-path="url(#pc7a5c754ab)" d="M 93.607053 147.919036 
L 115.501162 152.753858 
L 128.702662 144.412598 
L 106.940506 139.667 
z
" style="fill:#a30a29;fill-opacity:0.8;"/>
    <path clip-path="url(#pc7a5c754ab)" d="M 115.763531 166.402722 
L 128.892952 157.979275 
L 128.702662 144.412598 
L 115.501162 152.753858 
z
" style="fill:#5d0618;fill-opacity:0.8;"/>
    <path clip-path="url(#pc7a5c754ab)" d="M 93.983986 161.520364 
L 115.763531 166.402722 
L 115.501162 152.753858 
L 93.607053 147.919036 
z
" style="fill:#ba0c2f;fill-opacity:0.8;"/>
   </g>
   <g id="Poly3DCollection_5">
    <path clip-path="url(#pc7a5c754ab)" d="M 150.77428 162.823448 
L 150.773789 162.733911 
L 172.892028 167.63005 
L 172.891742 167.719897 
z
" style="fill:#5d0618;fill-opacity:0.8;"/>
    <path clip-path="url(#pc7a5c754ab)" d="M 137.779044 171.337978 
L 137.778088 171.247903 
L 150.773789 162.733911 
L 150.77428 162.823448 
z
" style="fill:#ba0c2f;fill-opacity:0.8;"/>
    <path clip-path="url(#pc7a5c754ab)" d="M 137.779044 171.337978 
L 150.77428 162.823448 
L 172.891742 167.719897 
L 160.034379 176.326996 
z
" style="fill:#74081d;fill-opacity:0.8;"/>
    <path clip-path="url(#pc7a5c754ab)" d="M 137.778088 171.247903 
L 160.034211 176.236607 
L 172.892028 167.63005 
L 150.773789 162.733911 
z
" style="fill:#a30a29;fill-opacity:0.8;"/>
    <path clip-path="url(#pc7a5c754ab)" d="M 160.034379 176.326996 
L 172.891742 167.719897 
L 172.892028 167.63005 
L 160.034211 176.236607 
z
" style="fill:#5d0618;fill-opacity:0.8;"/>
    <path clip-path="url(#pc7a5c754ab)" d="M 137.779044 171.337978 
L 160.034379 176.326996 
L 160.034211 176.236607 
L 137.778088 171.247903 
z
" style="fill:#ba0c2f;fill-opacity:0.8;"/>
   </g>
   <g id="Poly3DCollection_6">
    <path clip-path="url(#pc7a5c754ab)" d="M 80.475504 170.010344 
L 80.184443 161.220085 
L 102.170169 166.163908 
L 102.386747 174.98487 
z
" style="fill:#5d0618;fill-opacity:0.8;"/>
    <path clip-path="url(#pc7a5c754ab)" d="M 66.7115 178.660918 
L 66.369698 169.817386 
L 80.184443 161.220085 
L 80.475504 170.010344 
z
" style="fill:#ba0c2f;fill-opacity:0.8;"/>
    <path clip-path="url(#pc7a5c754ab)" d="M 66.7115 178.660918 
L 80.475504 170.010344 
L 102.386747 174.98487 
L 88.755543 183.730247 
z
" style="fill:#74081d;fill-opacity:0.8;"/>
    <path clip-path="url(#pc7a5c754ab)" d="M 66.369698 169.817386 
L 88.489121 174.855757 
L 102.170169 166.163908 
L 80.184443 161.220085 
z
" style="fill:#a30a29;fill-opacity:0.8;"/>
    <path clip-path="url(#pc7a5c754ab)" d="M 88.755543 183.730247 
L 102.386747 174.98487 
L 102.170169 166.163908 
L 88.489121 174.855757 
z
" style="fill:#5d0618;fill-opacity:0.8;"/>
    <path clip-path="url(#pc7a5c754ab)" d="M 66.7115 178.660918 
L 88.755543 183.730247 
L 88.489121 174.855757 
L 66.369698 169.817386 
z
" style="fill:#ba0c2f;fill-opacity:0.8;"/>
   </g>
   <g id="Poly3DCollection_7">
    <path clip-path="url(#pc7a5c754ab)" d="M 252.886642 174.004843 
L 264.84628 165.440892 
L 287.645174 170.365705 
L 275.835918 179.023034 
z
" style="fill:#74081d;fill-opacity:0.8;"/>
    <path clip-path="url(#pc7a5c754ab)" d="M 264.84628 165.440892 
L 266.468456 124.102986 
L 289.647855 128.880721 
L 287.645174 170.365705 
z
" style="fill:#5d0618;fill-opacity:0.8;"/>
    <path clip-path="url(#pc7a5c754ab)" d="M 252.886642 174.004843 
L 254.328623 132.411718 
L 266.468456 124.102986 
L 264.84628 165.440892 
z
" style="fill:#ba0c2f;fill-opacity:0.8;"/>
    <path clip-path="url(#pc7a5c754ab)" d="M 275.835918 179.023034 
L 287.645174 170.365705 
L 289.647855 128.880721 
L 277.663537 137.281536 
z
" style="fill:#5d0618;fill-opacity:0.8;"/>
    <path clip-path="url(#pc7a5c754ab)" d="M 252.886642 174.004843 
L 275.835918 179.023034 
L 277.663537 137.281536 
L 254.328623 132.411718 
z
" style="fill:#ba0c2f;fill-opacity:0.8;"/>
    <path clip-path="url(#pc7a5c754ab)" d="M 254.328623 132.411718 
L 277.663537 137.281536 
L 289.647855 128.880721 
L 266.468456 124.102986 
z
" style="fill:#a30a29;fill-opacity:0.8;"/>
   </g>
   <g id="Poly3DCollection_8">
    <path clip-path="url(#pc7a5c754ab)" d="M 240.699782 182.731502 
L 240.860739 177.362143 
L 264.012147 182.45762 
L 263.80106 187.845751 
z
" style="fill:#5d0618;fill-opacity:0.8;"/>
    <path clip-path="url(#pc7a5c754ab)" d="M 228.279163 191.625548 
L 228.415085 186.223618 
L 240.860739 177.362143 
L 240.699782 182.731502 
z
" style="fill:#ba0c2f;fill-opacity:0.8;"/>
    <path clip-path="url(#pc7a5c754ab)" d="M 228.279163 191.625548 
L 240.699782 182.731502 
L 263.80106 187.845751 
L 251.534073 196.838642 
z
" style="fill:#74081d;fill-opacity:0.8;"/>
    <path clip-path="url(#pc7a5c754ab)" d="M 228.415085 186.223618 
L 251.7208 191.417789 
L 264.012147 182.45762 
L 240.860739 177.362143 
z
" style="fill:#a30a29;fill-opacity:0.8;"/>
    <path clip-path="url(#pc7a5c754ab)" d="M 251.534073 196.838642 
L 263.80106 187.845751 
L 264.012147 182.45762 
L 251.7208 191.417789 
z
" style="fill:#5d0618;fill-opacity:0.8;"/>
    <path clip-path="url(#pc7a5c754ab)" d="M 228.279163 191.625548 
L 251.534073 196.838642 
L 251.7208 191.417789 
L 228.415085 186.223618 
z
" style="fill:#ba0c2f;fill-opacity:0.8;"/>
   </g>
   <g id="Poly3DCollection_9">
    <path clip-path="url(#pc7a5c754ab)" d="M 169.574233 190.238497 
L 169.574407 190.147246 
L 192.469125 195.344543 
L 192.468118 195.436113 
z
" style="fill:#5d0618;fill-opacity:0.8;"/>
    <path clip-path="url(#pc7a5c754ab)" d="M 156.364382 199.277822 
L 156.364075 199.186018 
L 169.574407 190.147246 
L 169.574233 190.238497 
z
" style="fill:#ba0c2f;fill-opacity:0.8;"/>
    <path clip-path="url(#pc7a5c754ab)" d="M 156.364382 199.277822 
L 169.574233 190.238497 
L 192.468118 195.436113 
L 179.406714 204.576721 
z
" style="fill:#74081d;fill-opacity:0.8;"/>
    <path clip-path="url(#pc7a5c754ab)" d="M 156.364075 199.186018 
L 179.407251 204.484596 
L 192.469125 195.344543 
L 169.574407 190.147246 
z
" style="fill:#a30a29;fill-opacity:0.8;"/>
    <path clip-path="url(#pc7a5c754ab)" d="M 179.406714 204.576721 
L 192.468118 195.436113 
L 192.469125 195.344543 
L 179.407251 204.484596 
z
" style="fill:#5d0618;fill-opacity:0.8;"/>
    <path clip-path="url(#pc7a5c754ab)" d="M 156.364382 199.277822 
L 179.406714 204.576721 
L 179.407251 204.484596 
L 156.364075 199.186018 
z
" style="fill:#ba0c2f;fill-opacity:0.8;"/>
   </g>
   <g id="Poly3DCollection_10">
    <path clip-path="url(#pc7a5c754ab)" d="M 111.042987 188.855548 
L 124.537633 180.013803 
L 146.932115 185.098039 
L 133.577885 194.037756 
z
" style="fill:#74081d;fill-opacity:0.8;"/>
    <path clip-path="url(#pc7a5c754ab)" d="M 124.537633 180.013803 
L 123.759726 130.983202 
L 146.585295 135.891459 
L 146.932115 185.098039 
z
" style="fill:#5d0618;fill-opacity:0.8;"/>
    <path clip-path="url(#pc7a5c754ab)" d="M 111.042987 188.855548 
L 109.994018 139.519581 
L 123.759726 130.983202 
L 124.537633 180.013803 
z
" style="fill:#ba0c2f;fill-opacity:0.8;"/>
    <path clip-path="url(#pc7a5c754ab)" d="M 133.577885 194.037756 
L 146.932115 185.098039 
L 146.585295 135.891459 
L 132.965453 144.524279 
z
" style="fill:#5d0618;fill-opacity:0.8;"/>
    <path clip-path="url(#pc7a5c754ab)" d="M 111.042987 188.855548 
L 133.577885 194.037756 
L 132.965453 144.524279 
L 109.994018 139.519581 
z
" style="fill:#ba0c2f;fill-opacity:0.8;"/>
    <path clip-path="url(#pc7a5c754ab)" d="M 109.994018 139.519581 
L 132.965453 144.524279 
L 146.585295 135.891459 
L 123.759726 130.983202 
z
" style="fill:#a30a29;fill-opacity:0.8;"/>
   </g>
   <g id="Poly3DCollection_11">
    <path clip-path="url(#pc7a5c754ab)" d="M 97.28777 197.868021 
L 97.047639 188.908213 
L 119.804017 194.159754 
L 119.96435 203.151059 
z
" style="fill:#5d0618;fill-opacity:0.8;"/>
    <path clip-path="url(#pc7a5c754ab)" d="M 83.264361 207.056214 
L 82.97149 198.041762 
L 97.047639 188.908213 
L 97.28777 197.868021 
z
" style="fill:#ba0c2f;fill-opacity:0.8;"/>
    <path clip-path="url(#pc7a5c754ab)" d="M 83.264361 207.056214 
L 97.28777 197.868021 
L 119.96435 203.151059 
L 106.083884 212.443054 
z
" style="fill:#74081d;fill-opacity:0.8;"/>
    <path clip-path="url(#pc7a5c754ab)" d="M 82.97149 198.041762 
L 105.871813 203.396859 
L 119.804017 194.159754 
L 97.047639 188.908213 
z
" style="fill:#a30a29;fill-opacity:0.8;"/>
    <path clip-path="url(#pc7a5c754ab)" d="M 106.083884 212.443054 
L 119.96435 203.151059 
L 119.804017 194.159754 
L 105.871813 203.396859 
z
" style="fill:#5d0618;fill-opacity:0.8;"/>
    <path clip-path="url(#pc7a5c754ab)" d="M 83.264361 207.056214 
L 106.083884 212.443054 
L 105.871813 203.396859 
L 82.97149 198.041762 
z
" style="fill:#ba0c2f;fill-opacity:0.8;"/>
   </g>
   <g id="Poly3DCollection_12">
    <path clip-path="url(#pc7a5c754ab)" d="M 215.617993 200.691847 
L 215.680887 197.581046 
L 239.120542 202.884977 
L 239.028174 206.006678 
z
" style="fill:#5d0618;fill-opacity:0.8;"/>
    <path clip-path="url(#pc7a5c754ab)" d="M 202.709215 209.935449 
L 202.756603 206.805737 
L 215.680887 197.581046 
L 215.617993 200.691847 
z
" style="fill:#ba0c2f;fill-opacity:0.8;"/>
    <path clip-path="url(#pc7a5c754ab)" d="M 202.709215 209.935449 
L 215.617993 200.691847 
L 239.028174 206.006678 
L 226.276316 215.355026 
z
" style="fill:#74081d;fill-opacity:0.8;"/>
    <path clip-path="url(#pc7a5c754ab)" d="M 202.756603 206.805737 
L 226.353576 212.21433 
L 239.120542 202.884977 
L 215.680887 197.581046 
z
" style="fill:#a30a29;fill-opacity:0.8;"/>
    <path clip-path="url(#pc7a5c754ab)" d="M 226.276316 215.355026 
L 239.028174 206.006678 
L 239.120542 202.884977 
L 226.353576 212.21433 
z
" style="fill:#5d0618;fill-opacity:0.8;"/>
    <path clip-path="url(#pc7a5c754ab)" d="M 202.709215 209.935449 
L 226.276316 215.355026 
L 226.353576 212.21433 
L 202.756603 206.805737 
z
" style="fill:#ba0c2f;fill-opacity:0.8;"/>
   </g>
   <g id="Poly3DCollection_13">
    <path clip-path="url(#pc7a5c754ab)" d="M 182.533478 181.370658 
L 195.24918 172.669472 
L 217.850523 177.673045 
L 205.280367 186.469868 
z
" style="fill:#74081d;fill-opacity:0.8;"/>
    <path clip-path="url(#pc7a5c754ab)" d="M 195.24918 172.669472 
L 196.400374 76.623358 
L 219.866676 81.273179 
L 217.850523 177.673045 
z
" style="fill:#5d0618;fill-opacity:0.8;"/>
    <path clip-path="url(#pc7a5c754ab)" d="M 182.533478 181.370658 
L 183.211032 84.710604 
L 196.400374 76.623358 
L 195.24918 172.669472 
z
" style="fill:#ba0c2f;fill-opacity:0.8;"/>
    <path clip-path="url(#pc7a5c754ab)" d="M 205.280367 186.469868 
L 217.850523 177.673045 
L 219.866676 81.273179 
L 206.834321 89.452718 
z
" style="fill:#5d0618;fill-opacity:0.8;"/>
    <path clip-path="url(#pc7a5c754ab)" d="M 182.533478 181.370658 
L 205.280367 186.469868 
L 206.834321 89.452718 
L 183.211032 84.710604 
z
" style="fill:#ba0c2f;fill-opacity:0.8;"/>
    <path clip-path="url(#pc7a5c754ab)" d="M 183.211032 84.710604 
L 206.834321 89.452718 
L 219.866676 81.273179 
L 196.400374 76.623358 
z
" style="fill:#a30a29;fill-opacity:0.8;"/>
   </g>
   <g id="Poly3DCollection_14">
    <path clip-path="url(#pc7a5c754ab)" d="M 142.896583 208.493657 
L 142.774041 194.446489 
L 166.096255 199.800025 
L 166.088816 213.896828 
z
" style="fill:#5d0618;fill-opacity:0.8;"/>
    <path clip-path="url(#pc7a5c754ab)" d="M 129.163207 217.891223 
L 128.961744 203.757944 
L 142.774041 194.446489 
L 142.896583 208.493657 
z
" style="fill:#ba0c2f;fill-opacity:0.8;"/>
    <path clip-path="url(#pc7a5c754ab)" d="M 129.163207 217.891223 
L 142.896583 208.493657 
L 166.088816 213.896828 
L 152.506793 223.401775 
z
" style="fill:#74081d;fill-opacity:0.8;"/>
    <path clip-path="url(#pc7a5c754ab)" d="M 128.961744 203.757944 
L 152.437014 209.21848 
L 166.096255 199.800025 
L 142.774041 194.446489 
z
" style="fill:#a30a29;fill-opacity:0.8;"/>
    <path clip-path="url(#pc7a5c754ab)" d="M 152.506793 223.401775 
L 166.088816 213.896828 
L 166.096255 199.800025 
L 152.437014 209.21848 
z
" style="fill:#5d0618;fill-opacity:0.8;"/>
    <path clip-path="url(#pc7a5c754ab)" d="M 129.163207 217.891223 
L 152.506793 223.401775 
L 152.437014 209.21848 
L 128.961744 203.757944 
z
" style="fill:#ba0c2f;fill-opacity:0.8;"/>
   </g>
   <g id="Poly3DCollection_15">
    <path clip-path="url(#pc7a5c754ab)" d="M 189.545496 219.361608 
L 189.540183 219.896865 
L 213.260712 225.42619 
L 213.271172 224.889057 
z
" style="fill:#ba0c2f;fill-opacity:0.8;"/>
    <path clip-path="url(#pc7a5c754ab)" d="M 176.119206 228.975786 
L 176.116748 229.514298 
L 189.540183 219.896865 
L 189.545496 219.361608 
z
" style="fill:#5d0618;fill-opacity:0.8;"/>
    <path clip-path="url(#pc7a5c754ab)" d="M 176.116748 229.514298 
L 199.997442 235.154762 
L 213.260712 225.42619 
L 189.540183 219.896865 
z
" style="fill:#a30a29;fill-opacity:0.8;"/>
    <path clip-path="url(#pc7a5c754ab)" d="M 176.119206 228.975786 
L 189.545496 219.361608 
L 213.271172 224.889057 
L 200.005117 234.614361 
z
" style="fill:#74081d;fill-opacity:0.8;"/>
    <path clip-path="url(#pc7a5c754ab)" d="M 200.005117 234.614361 
L 213.271172 224.889057 
L 213.260712 225.42619 
L 199.997442 235.154762 
z
" style="fill:#ba0c2f;fill-opacity:0.8;"/>
    <path clip-path="url(#pc7a5c754ab)" d="M 176.119206 228.975786 
L 200.005117 234.614361 
L 199.997442 235.154762 
L 176.116748 229.514298 
z
" style="fill:#5d0618;fill-opacity:0.8;"/>
   </g>
   <g id="Poly3DCollection_16">
    <path clip-path="url(#pc7a5c754ab)" d="M 25.550715 197.806393 
L 203.744617 240.06749 
L 299.74569 169.098809 
L 130.046337 132.596906 
z
" style="fill-opacity:0.15;"/>
   </g>
   <g id="Poly3DCollection_17">
    <path clip-path="url(#pc7a5c754ab)" d="M 38.387365 196.462425 
L 52.684654 187.476686 
L 74.86259 192.643553 
L 60.700276 201.729673 
z
" style="fill:#74081d;fill-opacity:0.8;"/>
    <path clip-path="url(#pc7a5c754ab)" d="M 52.684654 187.476686 
L 46.933544 57.750519 
L 70.222556 62.427839 
L 74.86259 192.643553 
z
" style="fill:#5d0618;fill-opacity:0.8;"/>
    <path clip-path="url(#pc7a5c754ab)" d="M 38.387365 196.462425 
L 31.836896 65.886594 
L 46.933544 57.750519 
L 52.684654 187.476686 
z
" style="fill:#ba0c2f;fill-opacity:0.8;"/>
    <path clip-path="url(#pc7a5c754ab)" d="M 60.700276 201.729673 
L 74.86259 192.643553 
L 70.222556 62.427839 
L 55.274545 70.659531 
z
" style="fill:#5d0618;fill-opacity:0.8;"/>
    <path clip-path="url(#pc7a5c754ab)" d="M 38.387365 196.462425 
L 60.700276 201.729673 
L 55.274545 70.659531 
L 31.836896 65.886594 
z
" style="fill:#ba0c2f;fill-opacity:0.8;"/>
    <path clip-path="url(#pc7a5c754ab)" d="M 31.836896 65.886594 
L 55.274545 70.659531 
L 70.222556 62.427839 
L 46.933544 57.750519 
z
" style="fill:#a30a29;fill-opacity:0.8;"/>
   </g>
  </g>
  <g id="patch_6">
   <path d="M 425.945455 262.8 
L 806.4 262.8 
L 806.4 -14.4 
L 425.945455 -14.4 
z
" style="fill:#ffffff;"/>
  </g>
  <g id="pane3d_4">
   <g id="patch_7">
    <path d="M 476.380584 201.548569 
L 585.268665 133.58541 
L 583.455794 3.718968 
L 468.496488 64.782468 
" style="fill:#f2f2f2;opacity:0.5;stroke:#f2f2f2;stroke-linejoin:miter;"/>
   </g>
  </g>
  <g id="pane3d_5">
   <g id="patch_8">
    <path d="M 585.268665 133.58541 
L 761.65712 171.581202 
L 769.037001 37.79869 
L 583.455794 3.718968 
" style="fill:#e6e6e6;opacity:0.5;stroke:#e6e6e6;stroke-linejoin:miter;"/>
   </g>
  </g>
  <g id="pane3d_6">
   <g id="patch_9">
    <path d="M 476.380584 201.548569 
L 661.965072 245.80086 
L 761.65712 171.581202 
L 585.268665 133.58541 
" style="fill:#ececec;opacity:0.5;stroke:#ececec;stroke-linejoin:miter;"/>
   </g>
  </g>
  <g id="axis3d_4">
   <g id="line2d_17">
    <path d="M 476.380584 201.548569 
L 661.965072 245.80086 
" style="fill:none;stroke:#000000;stroke-linecap:square;stroke-width:0.8;"/>
   </g>
   <g id="Line3DCollection_4">
    <path d="M 498.841271 206.90428 
L 606.679397 138.19749 
L 605.9393 7.847789 
" style="fill:none;stroke:#b0b0b0;stroke-width:0.8;"/>
    <path d="M 544.057792 217.686079 
L 649.729469 147.470895 
L 651.182353 16.156123 
" style="fill:none;stroke:#b0b0b0;stroke-width:0.8;"/>
    <path d="M 590.310744 228.715013 
L 693.693551 156.941187 
L 697.435637 24.649974 
" style="fill:none;stroke:#b0b0b0;stroke-width:0.8;"/>
    <path d="M 637.636176 239.999678 
L 738.601063 166.614702 
L 744.733372 33.335625 
" style="fill:none;stroke:#b0b0b0;stroke-width:0.8;"/>
   </g>
   <g id="xtick_14">
    <g id="line2d_18">
     <path d="M 499.770538 206.312217 
L 496.979262 208.09062 
" style="fill:none;stroke:#000000;stroke-linecap:square;stroke-width:0.8;"/>
    </g>
    <g id="text_15">
     <!-- 00 -->
     <g transform="translate(479.875817 237.14703)rotate(-45)scale(0.14 -0.14)">
      <use transform="scale(0.996264)" xlink:href="#CMR17-48"/>
      <use transform="translate(45.690477 0)scale(0.996264)" xlink:href="#CMR17-48"/>
     </g>
    </g>
   </g>
   <g id="xtick_15">
    <g id="line2d_19">
     <path d="M 544.969128 217.080527 
L 542.231671 218.899473 
" style="fill:none;stroke:#000000;stroke-linecap:square;stroke-width:0.8;"/>
    </g>
    <g id="text_16">
     <!-- 01 -->
     <g transform="translate(525.088242 248.103782)rotate(-45)scale(0.14 -0.14)">
      <use transform="scale(0.996264)" xlink:href="#CMR17-48"/>
      <use transform="translate(45.690477 0)scale(0.996264)" xlink:href="#CMR17-49"/>
     </g>
    </g>
   </g>
   <g id="xtick_16">
    <g id="line2d_20">
     <path d="M 591.20308 228.095506 
L 588.522658 229.956397 
" style="fill:none;stroke:#000000;stroke-linecap:square;stroke-width:0.8;"/>
    </g>
    <g id="text_17">
     <!-- 10 -->
     <g transform="translate(571.338855 259.312128)rotate(-45)scale(0.14 -0.14)">
      <use transform="scale(0.996264)" xlink:href="#CMR17-49"/>
      <use transform="translate(45.690477 0)scale(0.996264)" xlink:href="#CMR17-48"/>
     </g>
    </g>
   </g>
   <g id="xtick_17">
    <g id="line2d_21">
     <path d="M 638.50838 239.365727 
L 635.888391 241.270032 
" style="fill:none;stroke:#000000;stroke-linecap:square;stroke-width:0.8;"/>
    </g>
    <g id="text_18">
     <!-- 11 -->
     <g transform="translate(618.66383 270.780834)rotate(-45)scale(0.14 -0.14)">
      <use transform="scale(0.996264)" xlink:href="#CMR17-49"/>
      <use transform="translate(45.690477 0)scale(0.996264)" xlink:href="#CMR17-49"/>
     </g>
    </g>
   </g>
  </g>
  <g id="axis3d_5">
   <g id="line2d_22">
    <path d="M 761.65712 171.581202 
L 661.965072 245.80086 
" style="fill:none;stroke:#000000;stroke-linecap:square;stroke-width:0.8;"/>
   </g>
   <g id="Line3DCollection_5">
    <path d="M 484.000685 56.547028 
L 491.016499 192.413474 
L 675.403872 235.795817 
" style="fill:none;stroke:#b0b0b0;stroke-width:0.8;"/>
    <path d="M 513.777478 40.730342 
L 519.168861 174.842005 
L 701.219492 216.576366 
" style="fill:none;stroke:#b0b0b0;stroke-width:0.8;"/>
    <path d="M 542.401344 25.526062 
L 546.284836 157.917404 
L 726.04244 198.095948 
" style="fill:none;stroke:#b0b0b0;stroke-width:0.8;"/>
    <path d="M 569.937971 10.899296 
L 572.420618 141.604597 
L 749.928893 180.312741 
" style="fill:none;stroke:#b0b0b0;stroke-width:0.8;"/>
   </g>
   <g id="xtick_18">
    <g id="line2d_23">
     <path d="M 673.861052 235.432825 
L 678.492943 236.522608 
" style="fill:none;stroke:#000000;stroke-linecap:square;stroke-width:0.8;"/>
    </g>
    <g id="text_19">
     <!-- 00 -->
     <g transform="translate(689.195824 248.348363)rotate(-337.5)scale(0.14 -0.14)">
      <use transform="scale(0.996264)" xlink:href="#CMR17-48"/>
      <use transform="translate(45.690477 0)scale(0.996264)" xlink:href="#CMR17-48"/>
     </g>
    </g>
   </g>
   <g id="xtick_19">
    <g id="line2d_24">
     <path d="M 699.697534 216.227463 
L 704.266725 217.274932 
" style="fill:none;stroke:#000000;stroke-linecap:square;stroke-width:0.8;"/>
    </g>
    <g id="text_20">
     <!-- 01 -->
     <g transform="translate(714.749375 228.903937)rotate(-337.5)scale(0.14 -0.14)">
      <use transform="scale(0.996264)" xlink:href="#CMR17-48"/>
      <use transform="translate(45.690477 0)scale(0.996264)" xlink:href="#CMR17-49"/>
     </g>
    </g>
   </g>
   <g id="xtick_20">
    <g id="line2d_25">
     <path d="M 724.540896 197.76033 
L 729.048738 198.767901 
" style="fill:none;stroke:#000000;stroke-linecap:square;stroke-width:0.8;"/>
    </g>
    <g id="text_21">
     <!-- 10 -->
     <g transform="translate(739.320787 210.206849)rotate(-337.5)scale(0.14 -0.14)">
      <use transform="scale(0.996264)" xlink:href="#CMR17-49"/>
      <use transform="translate(45.690477 0)scale(0.996264)" xlink:href="#CMR17-48"/>
     </g>
    </g>
   </g>
   <g id="xtick_21">
    <g id="line2d_26">
     <path d="M 748.44732 179.989663 
L 752.895146 180.959573 
" style="fill:none;stroke:#000000;stroke-linecap:square;stroke-width:0.8;"/>
    </g>
    <g id="text_22">
     <!-- 11 -->
     <g transform="translate(762.965613 192.214827)rotate(-337.5)scale(0.14 -0.14)">
      <use transform="scale(0.996264)" xlink:href="#CMR17-49"/>
      <use transform="translate(45.690477 0)scale(0.996264)" xlink:href="#CMR17-49"/>
     </g>
    </g>
   </g>
  </g>
  <g id="axis3d_6">
   <g id="line2d_27">
    <path d="M 761.65712 171.581202 
L 769.037001 37.79869 
" style="fill:none;stroke:#000000;stroke-linecap:square;stroke-width:0.8;"/>
   </g>
   <g id="text_23">
    <!-- Im[$\rho$] -->
    <defs>
     <path d="M 19.703125 60.90625 
C 19.703125 65.390625 20.90625 65.390625 28.09375 65.390625 
L 28.09375 68 
C 24.90625 67.796875 19.796875 67.796875 16.40625 67.796875 
C 13 67.796875 7.90625 67.796875 4.703125 68 
L 4.703125 65.390625 
C 11.90625 65.390625 13.09375 65.390625 13.09375 60.90625 
L 13.09375 7.078125 
C 13.09375 2.59375 11.90625 2.59375 4.703125 2.59375 
L 4.703125 0 
C 7.90625 0.1875 13 0.1875 16.40625 0.1875 
C 19.796875 0.1875 24.90625 0.1875 28.09375 0 
L 28.09375 2.59375 
C 20.90625 2.59375 19.703125 2.59375 19.703125 7.078125 
z
" id="CMR17-73"/>
     <path d="M 67.59375 30.53125 
C 67.59375 35.5625 66.703125 44 54.796875 44 
C 48 44 43.296875 39.375 41.5 33.953125 
L 41.40625 33.953125 
C 40.203125 42.1875 34.296875 44 28.703125 44 
C 20.796875 44 16.703125 37.875 15.203125 33.84375 
L 15.09375 33.84375 
L 15.09375 44 
L 3.296875 42.890625 
L 3.296875 40.28125 
C 9.203125 40.28125 10.09375 39.6875 10.09375 34.859375 
L 10.09375 6.921875 
C 10.09375 3.09375 9.703125 2.59375 3.296875 2.59375 
L 3.296875 0 
C 5.703125 0.1875 10.09375 0.1875 12.703125 0.1875 
C 15.296875 0.1875 19.796875 0.1875 22.203125 0 
L 22.203125 2.59375 
C 15.796875 2.59375 15.40625 3 15.40625 6.921875 
L 15.40625 26.21875 
C 15.40625 35.453125 21 42.390625 28 42.390625 
C 35.40625 42.390625 36.203125 35.765625 36.203125 30.9375 
L 36.203125 6.921875 
C 36.203125 3.09375 35.796875 2.59375 29.40625 2.59375 
L 29.40625 0 
C 31.796875 0.1875 36.203125 0.1875 38.796875 0.1875 
C 41.40625 0.1875 45.90625 0.1875 48.296875 0 
L 48.296875 2.59375 
C 41.90625 2.59375 41.5 3 41.5 6.921875 
L 41.5 26.21875 
C 41.5 35.453125 47.09375 42.390625 54.09375 42.390625 
C 61.5 42.390625 62.296875 35.765625 62.296875 30.9375 
L 62.296875 6.921875 
C 62.296875 3.09375 61.90625 2.59375 55.5 2.59375 
L 55.5 0 
C 57.90625 0.1875 62.296875 0.1875 64.90625 0.1875 
C 67.5 0.1875 72 0.1875 74.40625 0 
L 74.40625 2.59375 
C 68 2.59375 67.59375 3 67.59375 6.921875 
z
" id="CMR17-109"/>
    </defs>
    <g transform="translate(809.026865 118.025317)rotate(-86.842577)scale(0.14 -0.14)">
     <use transform="scale(0.996264)" xlink:href="#CMR17-73"/>
     <use transform="translate(32.638409 0)scale(0.996264)" xlink:href="#CMR17-109"/>
     <use transform="translate(109.557999 0)scale(0.996264)" xlink:href="#CMR17-91"/>
     <use transform="translate(134.429058 0)scale(0.996264)" xlink:href="#CMMI12-26"/>
     <use transform="translate(184.74343 0)scale(0.996264)" xlink:href="#CMR17-93"/>
    </g>
   </g>
   <g id="Line3DCollection_6">
    <path d="M 762.276318 160.356373 
L 585.116255 122.66739 
L 475.720122 190.09149 
" style="fill:none;stroke:#b0b0b0;stroke-width:0.8;"/>
    <path d="M 763.861449 131.621114 
L 584.726343 94.735745 
L 474.02849 160.7466 
" style="fill:none;stroke:#b0b0b0;stroke-width:0.8;"/>
    <path d="M 765.482635 102.232244 
L 584.32794 66.195805 
L 472.297087 130.711786 
" style="fill:none;stroke:#b0b0b0;stroke-width:0.8;"/>
    <path d="M 767.141121 72.167208 
L 583.920764 37.027478 
L 470.524492 99.962429 
" style="fill:none;stroke:#b0b0b0;stroke-width:0.8;"/>
    <path d="M 768.838209 41.402397 
L 583.504524 7.209781 
L 468.709219 68.472721 
" style="fill:none;stroke:#b0b0b0;stroke-width:0.8;"/>
   </g>
   <g id="xtick_22">
    <g id="line2d_28">
     <path d="M 760.797963 160.041868 
L 765.236114 160.98604 
" style="fill:none;stroke:#000000;stroke-linecap:square;stroke-width:0.8;"/>
    </g>
    <g id="text_24">
     <!-- $0.0$ -->
     <g transform="translate(772.140806 168.113242)scale(0.14 -0.14)">
      <use transform="scale(0.996264)" xlink:href="#CMR17-48"/>
      <use transform="translate(45.690477 0)scale(0.996264)" xlink:href="#CMMI12-58"/>
      <use transform="translate(72.787654 0)scale(0.996264)" xlink:href="#CMR17-48"/>
     </g>
    </g>
   </g>
   <g id="xtick_23">
    <g id="line2d_29">
     <path d="M 762.365919 131.313172 
L 766.855667 132.237647 
" style="fill:none;stroke:#000000;stroke-linecap:square;stroke-width:0.8;"/>
    </g>
    <g id="text_25">
     <!-- $0.1$ -->
     <g transform="translate(773.931114 139.418274)scale(0.14 -0.14)">
      <use transform="scale(0.996264)" xlink:href="#CMR17-48"/>
      <use transform="translate(45.690477 0)scale(0.996264)" xlink:href="#CMMI12-58"/>
      <use transform="translate(72.787654 0)scale(0.996264)" xlink:href="#CMR17-49"/>
     </g>
    </g>
   </g>
   <g id="xtick_24">
    <g id="line2d_30">
     <path d="M 763.969526 101.931247 
L 768.512084 102.834881 
" style="fill:none;stroke:#000000;stroke-linecap:square;stroke-width:0.8;"/>
    </g>
    <g id="text_26">
     <!-- $0.2$ -->
     <g transform="translate(775.762054 110.072036)scale(0.14 -0.14)">
      <use transform="scale(0.996264)" xlink:href="#CMR17-48"/>
      <use transform="translate(45.690477 0)scale(0.996264)" xlink:href="#CMMI12-58"/>
      <use transform="translate(72.787654 0)scale(0.996264)" xlink:href="#CMR17-50"/>
     </g>
    </g>
   </g>
   <g id="xtick_25">
    <g id="line2d_31">
     <path d="M 765.610016 71.873558 
L 770.206639 72.755142 
" style="fill:none;stroke:#000000;stroke-linecap:square;stroke-width:0.8;"/>
    </g>
    <g id="text_27">
     <!-- $0.3$ -->
     <g transform="translate(777.635027 80.0521)scale(0.14 -0.14)">
      <use transform="scale(0.996264)" xlink:href="#CMR17-48"/>
      <use transform="translate(45.690477 0)scale(0.996264)" xlink:href="#CMMI12-58"/>
      <use transform="translate(72.787654 0)scale(0.996264)" xlink:href="#CMR17-51"/>
     </g>
    </g>
   </g>
   <g id="xtick_26">
    <g id="line2d_32">
     <path d="M 767.288674 41.11652 
L 771.940664 41.974776 
" style="fill:none;stroke:#000000;stroke-linecap:square;stroke-width:0.8;"/>
    </g>
    <g id="text_28">
     <!-- $0.4$ -->
     <g transform="translate(779.551497 49.334999)scale(0.14 -0.14)">
      <use transform="scale(0.996264)" xlink:href="#CMR17-48"/>
      <use transform="translate(45.690477 0)scale(0.996264)" xlink:href="#CMMI12-58"/>
      <use transform="translate(72.787654 0)scale(0.996264)" xlink:href="#CMR17-52"/>
     </g>
    </g>
   </g>
  </g>
  <g id="axes_2">
   <g id="Poly3DCollection_18">
    <path clip-path="url(#p403ba736e1)" d="M 589.492843 128.992828 
L 589.468466 127.011236 
L 610.941994 131.597493 
L 610.949975 133.585973 
z
" style="fill:#065d4c;fill-opacity:0.8;"/>
    <path clip-path="url(#p403ba736e1)" d="M 576.668838 136.979127 
L 576.634324 134.985581 
L 589.468466 127.011236 
L 589.492843 128.992828 
z
" style="fill:#0cba97;fill-opacity:0.8;"/>
    <path clip-path="url(#p403ba736e1)" d="M 576.668838 136.979127 
L 589.492843 128.992828 
L 610.949975 133.585973 
L 598.25512 141.656858 
z
" style="fill:#08745e;fill-opacity:0.8;"/>
    <path clip-path="url(#p403ba736e1)" d="M 576.634324 134.985581 
L 598.237199 139.656361 
L 610.941994 131.597493 
L 589.468466 127.011236 
z
" style="fill:#0aa384;fill-opacity:0.8;"/>
    <path clip-path="url(#p403ba736e1)" d="M 598.25512 141.656858 
L 610.949975 133.585973 
L 610.941994 131.597493 
L 598.237199 139.656361 
z
" style="fill:#065d4c;fill-opacity:0.8;"/>
    <path clip-path="url(#p403ba736e1)" d="M 576.668838 136.979127 
L 598.25512 141.656858 
L 598.237199 139.656361 
L 576.634324 134.985581 
z
" style="fill:#0cba97;fill-opacity:0.8;"/>
   </g>
   <g id="Poly3DCollection_19">
    <path clip-path="url(#p403ba736e1)" d="M 632.633924 138.227671 
L 632.641346 136.537552 
L 654.570213 141.222683 
L 654.548304 142.918696 
z
" style="fill:#065d4c;fill-opacity:0.8;"/>
    <path clip-path="url(#p403ba736e1)" d="M 620.071691 146.384493 
L 620.070869 144.684146 
L 632.641346 136.537552 
L 632.633924 138.227671 
z
" style="fill:#0cba97;fill-opacity:0.8;"/>
    <path clip-path="url(#p403ba736e1)" d="M 620.071691 146.384493 
L 632.633924 138.227671 
L 654.548304 142.918696 
L 642.122258 151.162834 
z
" style="fill:#08745e;fill-opacity:0.8;"/>
    <path clip-path="url(#p403ba736e1)" d="M 620.070869 144.684146 
L 642.136102 149.456542 
L 654.570213 141.222683 
L 632.641346 136.537552 
z
" style="fill:#0aa384;fill-opacity:0.8;"/>
    <path clip-path="url(#p403ba736e1)" d="M 642.122258 151.162834 
L 654.548304 142.918696 
L 654.570213 141.222683 
L 642.136102 149.456542 
z
" style="fill:#065d4c;fill-opacity:0.8;"/>
    <path clip-path="url(#p403ba736e1)" d="M 620.071691 146.384493 
L 642.122258 151.162834 
L 642.136102 149.456542 
L 620.070869 144.684146 
z
" style="fill:#0cba97;fill-opacity:0.8;"/>
   </g>
   <g id="Poly3DCollection_20">
    <path clip-path="url(#p403ba736e1)" d="M 563.608209 145.112787 
L 563.503681 140.456389 
L 585.259228 145.20476 
L 585.324768 149.877462 
z
" style="fill:#065d4c;fill-opacity:0.8;"/>
    <path clip-path="url(#p403ba736e1)" d="M 550.304344 153.397925 
L 550.174517 148.713236 
L 563.503681 140.456389 
L 563.608209 145.112787 
z
" style="fill:#0cba97;fill-opacity:0.8;"/>
    <path clip-path="url(#p403ba736e1)" d="M 550.304344 153.397925 
L 563.608209 145.112787 
L 585.324768 149.877462 
L 572.152306 158.25199 
z
" style="fill:#08745e;fill-opacity:0.8;"/>
    <path clip-path="url(#p403ba736e1)" d="M 550.174517 148.713236 
L 572.061937 153.550855 
L 585.259228 145.20476 
L 563.503681 140.456389 
z
" style="fill:#0aa384;fill-opacity:0.8;"/>
    <path clip-path="url(#p403ba736e1)" d="M 572.152306 158.25199 
L 585.324768 149.877462 
L 585.259228 145.20476 
L 572.061937 153.550855 
z
" style="fill:#065d4c;fill-opacity:0.8;"/>
    <path clip-path="url(#p403ba736e1)" d="M 550.304344 153.397925 
L 572.152306 158.25199 
L 572.061937 153.550855 
L 550.174517 148.713236 
z
" style="fill:#0cba97;fill-opacity:0.8;"/>
   </g>
   <g id="Poly3DCollection_21">
    <path clip-path="url(#p403ba736e1)" d="M 676.69681 147.659838 
L 676.859826 140.100928 
L 699.313354 144.866461 
L 699.083213 152.451905 
z
" style="fill:#065d4c;fill-opacity:0.8;"/>
    <path clip-path="url(#p403ba736e1)" d="M 664.410604 155.992702 
L 664.538644 148.387748 
L 676.859826 140.100928 
L 676.69681 147.659838 
z
" style="fill:#0cba97;fill-opacity:0.8;"/>
    <path clip-path="url(#p403ba736e1)" d="M 664.410604 155.992702 
L 676.69681 147.659838 
L 699.083213 152.451905 
L 686.940597 160.874934 
z
" style="fill:#08745e;fill-opacity:0.8;"/>
    <path clip-path="url(#p403ba736e1)" d="M 664.538644 148.387748 
L 687.136634 153.243216 
L 699.313354 144.866461 
L 676.859826 140.100928 
z
" style="fill:#0aa384;fill-opacity:0.8;"/>
    <path clip-path="url(#p403ba736e1)" d="M 686.940597 160.874934 
L 699.083213 152.451905 
L 699.313354 144.866461 
L 687.136634 153.243216 
z
" style="fill:#065d4c;fill-opacity:0.8;"/>
    <path clip-path="url(#p403ba736e1)" d="M 664.410604 155.992702 
L 686.940597 160.874934 
L 687.136634 153.243216 
L 664.538644 148.387748 
z
" style="fill:#0cba97;fill-opacity:0.8;"/>
   </g>
   <g id="Poly3DCollection_22">
    <path clip-path="url(#p403ba736e1)" d="M 607.275168 154.693442 
L 607.271089 153.949382 
L 629.465586 158.814894 
L 629.463206 159.56156 
z
" style="fill:#065d4c;fill-opacity:0.8;"/>
    <path clip-path="url(#p403ba736e1)" d="M 594.237738 163.158815 
L 594.229797 162.410232 
L 607.271089 153.949382 
L 607.275168 154.693442 
z
" style="fill:#0cba97;fill-opacity:0.8;"/>
    <path clip-path="url(#p403ba736e1)" d="M 594.237738 163.158815 
L 607.275168 154.693442 
L 629.463206 159.56156 
L 616.564532 168.119265 
z
" style="fill:#08745e;fill-opacity:0.8;"/>
    <path clip-path="url(#p403ba736e1)" d="M 594.229797 162.410232 
L 616.563132 167.368053 
L 629.465586 158.814894 
L 607.271089 153.949382 
z
" style="fill:#0aa384;fill-opacity:0.8;"/>
    <path clip-path="url(#p403ba736e1)" d="M 616.564532 168.119265 
L 629.463206 159.56156 
L 629.465586 158.814894 
L 616.563132 167.368053 
z
" style="fill:#065d4c;fill-opacity:0.8;"/>
    <path clip-path="url(#p403ba736e1)" d="M 594.237738 163.158815 
L 616.564532 168.119265 
L 616.563132 167.368053 
L 594.229797 162.410232 
z
" style="fill:#0cba97;fill-opacity:0.8;"/>
   </g>
   <g id="Poly3DCollection_23">
    <path clip-path="url(#p403ba736e1)" d="M 721.711366 157.295721 
L 721.711366 157.295721 
L 744.585207 162.192129 
L 744.585207 162.192129 
z
" style="fill:#065d4c;fill-opacity:0.8;"/>
    <path clip-path="url(#p403ba736e1)" d="M 709.716188 165.810388 
L 709.716188 165.810388 
L 721.711366 157.295721 
L 721.711366 157.295721 
z
" style="fill:#065d4c;fill-opacity:0.8;"/>
    <path clip-path="url(#p403ba736e1)" d="M 709.716188 165.810388 
L 721.711366 157.295721 
L 744.585207 162.192129 
L 732.741415 170.799937 
z
" style="fill:#08745e;fill-opacity:0.8;"/>
    <path clip-path="url(#p403ba736e1)" d="M 709.716188 165.810388 
L 732.741415 170.799937 
L 744.585207 162.192129 
L 721.711366 157.295721 
z
" style="fill:#0aa384;fill-opacity:0.8;"/>
    <path clip-path="url(#p403ba736e1)" d="M 732.741415 170.799937 
L 744.585207 162.192129 
L 744.585207 162.192129 
L 732.741415 170.799937 
z
" style="fill:#065d4c;fill-opacity:0.8;"/>
    <path clip-path="url(#p403ba736e1)" d="M 709.716188 165.810388 
L 732.741415 170.799937 
L 732.741415 170.799937 
L 709.716188 165.810388 
z
" style="fill:#065d4c;fill-opacity:0.8;"/>
   </g>
   <g id="Poly3DCollection_24">
    <path clip-path="url(#p403ba736e1)" d="M 651.892761 164.482668 
L 651.892761 164.482668 
L 674.567798 169.457636 
L 674.567798 169.457636 
z
" style="fill:#065d4c;fill-opacity:0.8;"/>
    <path clip-path="url(#p403ba736e1)" d="M 639.136667 173.134223 
L 639.136667 173.134223 
L 651.892761 164.482668 
L 651.892761 164.482668 
z
" style="fill:#065d4c;fill-opacity:0.8;"/>
    <path clip-path="url(#p403ba736e1)" d="M 639.136667 173.134223 
L 661.958209 178.204593 
L 674.567798 169.457636 
L 651.892761 164.482668 
z
" style="fill:#0aa384;fill-opacity:0.8;"/>
    <path clip-path="url(#p403ba736e1)" d="M 639.136667 173.134223 
L 651.892761 164.482668 
L 674.567798 169.457636 
L 661.958209 178.204593 
z
" style="fill:#08745e;fill-opacity:0.8;"/>
    <path clip-path="url(#p403ba736e1)" d="M 661.958209 178.204593 
L 674.567798 169.457636 
L 674.567798 169.457636 
L 661.958209 178.204593 
z
" style="fill:#065d4c;fill-opacity:0.8;"/>
    <path clip-path="url(#p403ba736e1)" d="M 639.136667 173.134223 
L 661.958209 178.204593 
L 661.958209 178.204593 
L 639.136667 173.134223 
z
" style="fill:#065d4c;fill-opacity:0.8;"/>
   </g>
   <g id="Poly3DCollection_25">
    <path clip-path="url(#p403ba736e1)" d="M 536.750385 161.838812 
L 536.460691 153.089845 
L 558.5153 158.004975 
L 558.730869 166.784807 
z
" style="fill:#065d4c;fill-opacity:0.8;"/>
    <path clip-path="url(#p403ba736e1)" d="M 522.939212 170.439882 
L 522.598996 161.637359 
L 536.460691 153.089845 
L 536.750385 161.838812 
z
" style="fill:#0cba97;fill-opacity:0.8;"/>
    <path clip-path="url(#p403ba736e1)" d="M 522.939212 170.439882 
L 536.750385 161.838812 
L 558.730869 166.784807 
L 545.05333 175.480443 
z
" style="fill:#08745e;fill-opacity:0.8;"/>
    <path clip-path="url(#p403ba736e1)" d="M 522.598996 161.637359 
L 544.788134 166.646793 
L 558.5153 158.004975 
L 536.460691 153.089845 
z
" style="fill:#0aa384;fill-opacity:0.8;"/>
    <path clip-path="url(#p403ba736e1)" d="M 545.05333 175.480443 
L 558.730869 166.784807 
L 558.5153 158.004975 
L 544.788134 166.646793 
z
" style="fill:#065d4c;fill-opacity:0.8;"/>
    <path clip-path="url(#p403ba736e1)" d="M 522.939212 170.439882 
L 545.05333 175.480443 
L 544.788134 166.646793 
L 522.598996 161.637359 
z
" style="fill:#0cba97;fill-opacity:0.8;"/>
   </g>
   <g id="Poly3DCollection_26">
    <path clip-path="url(#p403ba736e1)" d="M 580.952533 171.785072 
L 580.952533 171.785072 
L 603.419368 176.840505 
L 603.419368 176.840505 
z
" style="fill:#065d4c;fill-opacity:0.8;"/>
    <path clip-path="url(#p403ba736e1)" d="M 567.412422 180.576843 
L 567.412422 180.576843 
L 580.952533 171.785072 
L 580.952533 171.785072 
z
" style="fill:#065d4c;fill-opacity:0.8;"/>
    <path clip-path="url(#p403ba736e1)" d="M 567.412422 180.576843 
L 580.952533 171.785072 
L 603.419368 176.840505 
L 590.020581 185.730013 
z
" style="fill:#08745e;fill-opacity:0.8;"/>
    <path clip-path="url(#p403ba736e1)" d="M 567.412422 180.576843 
L 590.020581 185.730013 
L 603.419368 176.840505 
L 580.952533 171.785072 
z
" style="fill:#0aa384;fill-opacity:0.8;"/>
    <path clip-path="url(#p403ba736e1)" d="M 590.020581 185.730013 
L 603.419368 176.840505 
L 603.419368 176.840505 
L 590.020581 185.730013 
z
" style="fill:#065d4c;fill-opacity:0.8;"/>
    <path clip-path="url(#p403ba736e1)" d="M 567.412422 180.576843 
L 590.020581 185.730013 
L 590.020581 185.730013 
L 567.412422 180.576843 
z
" style="fill:#065d4c;fill-opacity:0.8;"/>
   </g>
   <g id="Poly3DCollection_27">
    <path clip-path="url(#p403ba736e1)" d="M 697.492371 174.487352 
L 697.262776 182.146421 
L 720.369516 187.258632 
L 720.67062 179.572725 
z
" style="fill:#0cba97;fill-opacity:0.8;"/>
    <path clip-path="url(#p403ba736e1)" d="M 685.033315 183.331298 
L 684.839428 191.03693 
L 697.262776 182.146421 
L 697.492371 174.487352 
z
" style="fill:#065d4c;fill-opacity:0.8;"/>
    <path clip-path="url(#p403ba736e1)" d="M 684.839428 191.03693 
L 708.099874 196.247968 
L 720.369516 187.258632 
L 697.262776 182.146421 
z
" style="fill:#0aa384;fill-opacity:0.8;"/>
    <path clip-path="url(#p403ba736e1)" d="M 685.033315 183.331298 
L 697.492371 174.487352 
L 720.67062 179.572725 
L 708.366234 188.515283 
z
" style="fill:#08745e;fill-opacity:0.8;"/>
    <path clip-path="url(#p403ba736e1)" d="M 708.366234 188.515283 
L 720.67062 179.572725 
L 720.369516 187.258632 
L 708.099874 196.247968 
z
" style="fill:#0cba97;fill-opacity:0.8;"/>
    <path clip-path="url(#p403ba736e1)" d="M 685.033315 183.331298 
L 708.366234 188.515283 
L 708.099874 196.247968 
L 684.839428 191.03693 
z
" style="fill:#065d4c;fill-opacity:0.8;"/>
   </g>
   <g id="Poly3DCollection_28">
    <path clip-path="url(#p403ba736e1)" d="M 508.863435 179.205738 
L 508.863435 179.205738 
L 531.112289 184.343603 
L 531.112289 184.343603 
z
" style="fill:#065d4c;fill-opacity:0.8;"/>
    <path clip-path="url(#p403ba736e1)" d="M 494.515374 188.141161 
L 494.515374 188.141161 
L 508.863435 179.205738 
L 508.863435 179.205738 
z
" style="fill:#065d4c;fill-opacity:0.8;"/>
    <path clip-path="url(#p403ba736e1)" d="M 494.515374 188.141161 
L 508.863435 179.205738 
L 531.112289 184.343603 
L 516.900057 193.379176 
z
" style="fill:#08745e;fill-opacity:0.8;"/>
    <path clip-path="url(#p403ba736e1)" d="M 494.515374 188.141161 
L 516.900057 193.379176 
L 531.112289 184.343603 
L 508.863435 179.205738 
z
" style="fill:#0aa384;fill-opacity:0.8;"/>
    <path clip-path="url(#p403ba736e1)" d="M 516.900057 193.379176 
L 531.112289 184.343603 
L 531.112289 184.343603 
L 516.900057 193.379176 
z
" style="fill:#065d4c;fill-opacity:0.8;"/>
    <path clip-path="url(#p403ba736e1)" d="M 494.515374 188.141161 
L 516.900057 193.379176 
L 516.900057 193.379176 
L 494.515374 188.141161 
z
" style="fill:#065d4c;fill-opacity:0.8;"/>
   </g>
   <g id="Poly3DCollection_29">
    <path clip-path="url(#p403ba736e1)" d="M 626.135456 181.952023 
L 626.134013 182.710029 
L 649.096606 187.881244 
L 649.104966 187.120566 
z
" style="fill:#0cba97;fill-opacity:0.8;"/>
    <path clip-path="url(#p403ba736e1)" d="M 612.881993 190.940908 
L 612.88454 191.703549 
L 626.134013 182.710029 
L 626.135456 181.952023 
z
" style="fill:#065d4c;fill-opacity:0.8;"/>
    <path clip-path="url(#p403ba736e1)" d="M 612.88454 191.703549 
L 635.996476 196.975838 
L 649.096606 187.881244 
L 626.134013 182.710029 
z
" style="fill:#0aa384;fill-opacity:0.8;"/>
    <path clip-path="url(#p403ba736e1)" d="M 612.881993 190.940908 
L 626.135456 181.952023 
L 649.104966 187.120566 
L 636.000938 196.210504 
z
" style="fill:#08745e;fill-opacity:0.8;"/>
    <path clip-path="url(#p403ba736e1)" d="M 636.000938 196.210504 
L 649.104966 187.120566 
L 649.096606 187.881244 
L 635.996476 196.975838 
z
" style="fill:#0cba97;fill-opacity:0.8;"/>
    <path clip-path="url(#p403ba736e1)" d="M 612.881993 190.940908 
L 636.000938 196.210504 
L 635.996476 196.975838 
L 612.88454 191.703549 
z
" style="fill:#065d4c;fill-opacity:0.8;"/>
   </g>
   <g id="Poly3DCollection_30">
    <path clip-path="url(#p403ba736e1)" d="M 553.609997 189.538937 
L 553.84737 198.395852 
L 576.51925 203.680734 
L 576.360758 194.792707 
z
" style="fill:#0cba97;fill-opacity:0.8;"/>
    <path clip-path="url(#p403ba736e1)" d="M 539.537562 198.676352 
L 539.827068 207.587244 
L 553.84737 198.395852 
L 553.609997 189.538937 
z
" style="fill:#065d4c;fill-opacity:0.8;"/>
    <path clip-path="url(#p403ba736e1)" d="M 539.827068 207.587244 
L 562.641831 212.975942 
L 576.51925 203.680734 
L 553.84737 198.395852 
z
" style="fill:#0aa384;fill-opacity:0.8;"/>
    <path clip-path="url(#p403ba736e1)" d="M 539.537562 198.676352 
L 553.609997 189.538937 
L 576.360758 194.792707 
L 562.432197 204.033697 
z
" style="fill:#08745e;fill-opacity:0.8;"/>
    <path clip-path="url(#p403ba736e1)" d="M 562.432197 204.033697 
L 576.360758 194.792707 
L 576.51925 203.680734 
L 562.641831 212.975942 
z
" style="fill:#0cba97;fill-opacity:0.8;"/>
    <path clip-path="url(#p403ba736e1)" d="M 539.537562 198.676352 
L 562.432197 204.033697 
L 562.641831 212.975942 
L 539.827068 207.587244 
z
" style="fill:#065d4c;fill-opacity:0.8;"/>
   </g>
   <g id="Poly3DCollection_31">
    <path clip-path="url(#p403ba736e1)" d="M 672.332163 192.347094 
L 672.296707 194.100784 
L 695.769336 199.392469 
L 695.821409 197.632587 
z
" style="fill:#0cba97;fill-opacity:0.8;"/>
    <path clip-path="url(#p403ba736e1)" d="M 659.38179 201.539797 
L 659.355075 203.304229 
L 672.296707 194.100784 
L 672.332163 192.347094 
z
" style="fill:#065d4c;fill-opacity:0.8;"/>
    <path clip-path="url(#p403ba736e1)" d="M 659.355075 203.304229 
L 682.985469 208.700481 
L 695.769336 199.392469 
L 672.296707 194.100784 
z
" style="fill:#0aa384;fill-opacity:0.8;"/>
    <path clip-path="url(#p403ba736e1)" d="M 659.38179 201.539797 
L 672.332163 192.347094 
L 695.821409 197.632587 
L 683.029027 206.929808 
z
" style="fill:#08745e;fill-opacity:0.8;"/>
    <path clip-path="url(#p403ba736e1)" d="M 683.029027 206.929808 
L 695.821409 197.632587 
L 695.769336 199.392469 
L 682.985469 208.700481 
z
" style="fill:#0cba97;fill-opacity:0.8;"/>
    <path clip-path="url(#p403ba736e1)" d="M 659.38179 201.539797 
L 683.029027 206.929808 
L 682.985469 208.700481 
L 659.355075 203.304229 
z
" style="fill:#065d4c;fill-opacity:0.8;"/>
   </g>
   <g id="Poly3DCollection_32">
    <path clip-path="url(#p403ba736e1)" d="M 599.368866 200.105905 
L 599.410918 204.926329 
L 622.636159 210.31698 
L 622.638712 205.479546 
z
" style="fill:#0cba97;fill-opacity:0.8;"/>
    <path clip-path="url(#p403ba736e1)" d="M 585.588368 209.45224 
L 585.657502 214.302175 
L 599.410918 204.926329 
L 599.368866 200.105905 
z
" style="fill:#065d4c;fill-opacity:0.8;"/>
    <path clip-path="url(#p403ba736e1)" d="M 585.657502 214.302175 
L 609.034528 219.800112 
L 622.636159 210.31698 
L 599.410918 204.926329 
z
" style="fill:#0aa384;fill-opacity:0.8;"/>
    <path clip-path="url(#p403ba736e1)" d="M 585.588368 209.45224 
L 599.368866 200.105905 
L 622.638712 205.479546 
L 609.010583 214.933039 
z
" style="fill:#08745e;fill-opacity:0.8;"/>
    <path clip-path="url(#p403ba736e1)" d="M 609.010583 214.933039 
L 622.638712 205.479546 
L 622.636159 210.31698 
L 609.034528 219.800112 
z
" style="fill:#0cba97;fill-opacity:0.8;"/>
    <path clip-path="url(#p403ba736e1)" d="M 585.588368 209.45224 
L 609.010583 214.933039 
L 609.034528 219.800112 
L 585.657502 214.302175 
z
" style="fill:#065d4c;fill-opacity:0.8;"/>
   </g>
   <g id="Poly3DCollection_33">
    <path clip-path="url(#p403ba736e1)" d="M 646.174788 210.914666 
L 646.153991 213.010072 
L 669.940742 218.515154 
L 669.981689 216.412327 
z
" style="fill:#0cba97;fill-opacity:0.8;"/>
    <path clip-path="url(#p403ba736e1)" d="M 632.703452 220.47717 
L 632.693829 222.585448 
L 646.153991 213.010072 
L 646.174788 210.914666 
z
" style="fill:#065d4c;fill-opacity:0.8;"/>
    <path clip-path="url(#p403ba736e1)" d="M 632.693829 222.585448 
L 656.641647 228.201492 
L 669.940742 218.515154 
L 646.153991 213.010072 
z
" style="fill:#0aa384;fill-opacity:0.8;"/>
    <path clip-path="url(#p403ba736e1)" d="M 632.703452 220.47717 
L 646.174788 210.914666 
L 669.981689 216.412327 
L 656.671695 226.085738 
z
" style="fill:#08745e;fill-opacity:0.8;"/>
    <path clip-path="url(#p403ba736e1)" d="M 656.671695 226.085738 
L 669.981689 216.412327 
L 669.940742 218.515154 
L 656.641647 228.201492 
z
" style="fill:#0cba97;fill-opacity:0.8;"/>
    <path clip-path="url(#p403ba736e1)" d="M 632.703452 220.47717 
L 656.671695 226.085738 
L 656.641647 228.201492 
L 632.693829 222.585448 
z
" style="fill:#065d4c;fill-opacity:0.8;"/>
   </g>
   <g id="Poly3DCollection_34">
    <path clip-path="url(#p403ba736e1)" d="M 481.635665 189.477651 
L 660.424798 231.51006 
L 756.723978 160.932524 
L 586.484909 124.645492 
z
" style="fill-opacity:0.2;"/>
   </g>
  </g>
 </g>
 <defs>
  <clipPath id="pc7a5c754ab">
   <rect height="277.2" width="380.454545" x="-30.6" y="-14.4"/>
  </clipPath>
  <clipPath id="p403ba736e1">
   <rect height="277.2" width="380.454545" x="425.945455" y="-14.4"/>
  </clipPath>
 </defs>
</svg>
