<?xml version="1.0" encoding="utf-8" standalone="no"?>
<!DOCTYPE svg PUBLIC "-//W3C//DTD SVG 1.1//EN"
  "http://www.w3.org/Graphics/SVG/1.1/DTD/svg11.dtd">
<!-- Created with matplotlib (https://matplotlib.org/) -->
<svg height="302.4pt" version="1.1" viewBox="0 0 820.8 302.4" width="820.8pt" xmlns="http://www.w3.org/2000/svg" xmlns:xlink="http://www.w3.org/1999/xlink">
 <defs>
  <style type="text/css">
*{stroke-linecap:butt;stroke-linejoin:round;}
  </style>
 </defs>
 <g id="figure_1">
  <g id="patch_1">
   <path d="M 0 302.4 
L 820.8 302.4 
L 820.8 0 
L 0 0 
z
" style="fill:#ffffff;"/>
  </g>
  <g id="patch_2">
   <path d="M -30.6 262.8 
L 349.854545 262.8 
L 349.854545 -14.4 
L -30.6 -14.4 
z
" style="fill:#ffffff;"/>
  </g>
  <g id="pane3d_1">
   <g id="patch_3">
    <path d="M 19.835129 201.548569 
L 128.723211 133.58541 
L 126.910339 3.718968 
L 11.951034 64.782468 
" style="fill:#f2f2f2;opacity:0.5;stroke:#f2f2f2;stroke-linejoin:miter;"/>
   </g>
  </g>
  <g id="pane3d_2">
   <g id="patch_4">
    <path d="M 128.723211 133.58541 
L 305.111665 171.581202 
L 312.491547 37.79869 
L 126.910339 3.718968 
" style="fill:#e6e6e6;opacity:0.5;stroke:#e6e6e6;stroke-linejoin:miter;"/>
   </g>
  </g>
  <g id="pane3d_3">
   <g id="patch_5">
    <path d="M 19.835129 201.548569 
L 205.419617 245.80086 
L 305.111665 171.581202 
L 128.723211 133.58541 
" style="fill:#ececec;opacity:0.5;stroke:#ececec;stroke-linejoin:miter;"/>
   </g>
  </g>
  <g id="axis3d_1">
   <g id="line2d_1">
    <path d="M 19.835129 201.548569 
L 205.419617 245.80086 
" style="fill:none;stroke:#000000;stroke-linecap:square;stroke-width:0.8;"/>
   </g>
   <g id="Line3DCollection_1">
    <path d="M 42.295817 206.90428 
L 150.133942 138.19749 
L 149.393845 7.847789 
" style="fill:none;stroke:#b0b0b0;stroke-width:0.8;"/>
    <path d="M 87.512337 217.686079 
L 193.184014 147.470895 
L 194.636898 16.156123 
" style="fill:none;stroke:#b0b0b0;stroke-width:0.8;"/>
    <path d="M 133.765289 228.715013 
L 237.148096 156.941187 
L 240.890183 24.649974 
" style="fill:none;stroke:#b0b0b0;stroke-width:0.8;"/>
    <path d="M 181.090721 239.999678 
L 282.055608 166.614702 
L 288.187917 33.335625 
" style="fill:none;stroke:#b0b0b0;stroke-width:0.8;"/>
   </g>
   <g id="xtick_1">
    <g id="line2d_2">
     <path d="M 43.225084 206.312217 
L 40.433807 208.09062 
" style="fill:none;stroke:#000000;stroke-linecap:square;stroke-width:0.8;"/>
    </g>
    <g id="text_1">
     <!-- 00 -->
     <defs>
      <path d="M 42 31.84375 
C 42 37.96875 41.90625 48.421875 37.703125 56.453125 
C 34 63.484375 28.09375 66 22.90625 66 
C 18.09375 66 12 63.78125 8.203125 56.5625 
C 4.203125 49.015625 3.796875 39.671875 3.796875 31.84375 
C 3.796875 26.109375 3.90625 17.375 7 9.734375 
C 11.296875 -0.609375 19 -2 22.90625 -2 
C 27.5 -2 34.5 -0.109375 38.59375 9.4375 
C 41.59375 16.375 42 24.5 42 31.84375 
z
M 22.90625 -0.40625 
C 16.5 -0.40625 12.703125 5.125 11.296875 12.75 
C 10.203125 18.6875 10.203125 27.328125 10.203125 32.953125 
C 10.203125 40.6875 10.203125 47.109375 11.5 53.234375 
C 13.40625 61.78125 19 64.390625 22.90625 64.390625 
C 27 64.390625 32.296875 61.671875 34.203125 53.4375 
C 35.5 47.71875 35.59375 40.984375 35.59375 32.953125 
C 35.59375 26.421875 35.59375 18.375 34.40625 12.453125 
C 32.296875 1.5 26.40625 -0.40625 22.90625 -0.40625 
z
" id="CMR17-48"/>
     </defs>
     <g transform="translate(23.330362 237.14703)rotate(-45)scale(0.14 -0.14)">
      <use transform="scale(0.996264)" xlink:href="#CMR17-48"/>
      <use transform="translate(45.690477 0)scale(0.996264)" xlink:href="#CMR17-48"/>
     </g>
    </g>
   </g>
   <g id="xtick_2">
    <g id="line2d_3">
     <path d="M 88.423674 217.080527 
L 85.686217 218.899473 
" style="fill:none;stroke:#000000;stroke-linecap:square;stroke-width:0.8;"/>
    </g>
    <g id="text_2">
     <!-- 01 -->
     <defs>
      <path d="M 26.59375 63.796875 
C 26.59375 65.890625 26.5 66 25.09375 66 
C 21.203125 61.359375 15.296875 59.890625 9.703125 59.6875 
C 9.40625 59.6875 8.90625 59.6875 8.796875 59.5 
C 8.703125 59.296875 8.703125 59.09375 8.703125 57 
C 11.796875 57 17 57.59375 21 59.984375 
L 21 7.296875 
C 21 3.796875 20.796875 2.59375 12.203125 2.59375 
L 9.203125 2.59375 
L 9.203125 0 
C 14 0.09375 19 0.1875 23.796875 0.1875 
C 28.59375 0.1875 33.59375 0.09375 38.40625 0 
L 38.40625 2.59375 
L 35.40625 2.59375 
C 26.796875 2.59375 26.59375 3.6875 26.59375 7.296875 
z
" id="CMR17-49"/>
     </defs>
     <g transform="translate(68.542787 248.103782)rotate(-45)scale(0.14 -0.14)">
      <use transform="scale(0.996264)" xlink:href="#CMR17-48"/>
      <use transform="translate(45.690477 0)scale(0.996264)" xlink:href="#CMR17-49"/>
     </g>
    </g>
   </g>
   <g id="xtick_3">
    <g id="line2d_4">
     <path d="M 134.657625 228.095506 
L 131.977203 229.956397 
" style="fill:none;stroke:#000000;stroke-linecap:square;stroke-width:0.8;"/>
    </g>
    <g id="text_3">
     <!-- 10 -->
     <g transform="translate(114.7934 259.312128)rotate(-45)scale(0.14 -0.14)">
      <use transform="scale(0.996264)" xlink:href="#CMR17-49"/>
      <use transform="translate(45.690477 0)scale(0.996264)" xlink:href="#CMR17-48"/>
     </g>
    </g>
   </g>
   <g id="xtick_4">
    <g id="line2d_5">
     <path d="M 181.962926 239.365727 
L 179.342936 241.270032 
" style="fill:none;stroke:#000000;stroke-linecap:square;stroke-width:0.8;"/>
    </g>
    <g id="text_4">
     <!-- 11 -->
     <g transform="translate(162.118375 270.780834)rotate(-45)scale(0.14 -0.14)">
      <use transform="scale(0.996264)" xlink:href="#CMR17-49"/>
      <use transform="translate(45.690477 0)scale(0.996264)" xlink:href="#CMR17-49"/>
     </g>
    </g>
   </g>
  </g>
  <g id="axis3d_2">
   <g id="line2d_6">
    <path d="M 305.111665 171.581202 
L 205.419617 245.80086 
" style="fill:none;stroke:#000000;stroke-linecap:square;stroke-width:0.8;"/>
   </g>
   <g id="Line3DCollection_2">
    <path d="M 27.455231 56.547028 
L 34.471044 192.413474 
L 218.858418 235.795817 
" style="fill:none;stroke:#b0b0b0;stroke-width:0.8;"/>
    <path d="M 57.232024 40.730342 
L 62.623407 174.842005 
L 244.674037 216.576366 
" style="fill:none;stroke:#b0b0b0;stroke-width:0.8;"/>
    <path d="M 85.85589 25.526062 
L 89.739382 157.917404 
L 269.496985 198.095948 
" style="fill:none;stroke:#b0b0b0;stroke-width:0.8;"/>
    <path d="M 113.392516 10.899296 
L 115.875164 141.604597 
L 293.383438 180.312741 
" style="fill:none;stroke:#b0b0b0;stroke-width:0.8;"/>
   </g>
   <g id="xtick_5">
    <g id="line2d_7">
     <path d="M 217.315598 235.432825 
L 221.947489 236.522608 
" style="fill:none;stroke:#000000;stroke-linecap:square;stroke-width:0.8;"/>
    </g>
    <g id="text_5">
     <!-- 00 -->
     <g transform="translate(232.650369 248.348363)rotate(-337.5)scale(0.14 -0.14)">
      <use transform="scale(0.996264)" xlink:href="#CMR17-48"/>
      <use transform="translate(45.690477 0)scale(0.996264)" xlink:href="#CMR17-48"/>
     </g>
    </g>
   </g>
   <g id="xtick_6">
    <g id="line2d_8">
     <path d="M 243.15208 216.227463 
L 247.72127 217.274932 
" style="fill:none;stroke:#000000;stroke-linecap:square;stroke-width:0.8;"/>
    </g>
    <g id="text_6">
     <!-- 01 -->
     <g transform="translate(258.203921 228.903937)rotate(-337.5)scale(0.14 -0.14)">
      <use transform="scale(0.996264)" xlink:href="#CMR17-48"/>
      <use transform="translate(45.690477 0)scale(0.996264)" xlink:href="#CMR17-49"/>
     </g>
    </g>
   </g>
   <g id="xtick_7">
    <g id="line2d_9">
     <path d="M 267.995442 197.76033 
L 272.503283 198.767901 
" style="fill:none;stroke:#000000;stroke-linecap:square;stroke-width:0.8;"/>
    </g>
    <g id="text_7">
     <!-- 10 -->
     <g transform="translate(282.775332 210.206849)rotate(-337.5)scale(0.14 -0.14)">
      <use transform="scale(0.996264)" xlink:href="#CMR17-49"/>
      <use transform="translate(45.690477 0)scale(0.996264)" xlink:href="#CMR17-48"/>
     </g>
    </g>
   </g>
   <g id="xtick_8">
    <g id="line2d_10">
     <path d="M 291.901865 179.989663 
L 296.349691 180.959573 
" style="fill:none;stroke:#000000;stroke-linecap:square;stroke-width:0.8;"/>
    </g>
    <g id="text_8">
     <!-- 11 -->
     <g transform="translate(306.420159 192.214827)rotate(-337.5)scale(0.14 -0.14)">
      <use transform="scale(0.996264)" xlink:href="#CMR17-49"/>
      <use transform="translate(45.690477 0)scale(0.996264)" xlink:href="#CMR17-49"/>
     </g>
    </g>
   </g>
  </g>
  <g id="axis3d_3">
   <g id="line2d_11">
    <path d="M 305.111665 171.581202 
L 312.491547 37.79869 
" style="fill:none;stroke:#000000;stroke-linecap:square;stroke-width:0.8;"/>
   </g>
   <g id="text_9">
    <!-- Re[$\rho$] -->
    <defs>
     <path d="M 39.203125 33.6875 
C 48.703125 35.59375 56.703125 42.015625 56.703125 50.046875 
C 56.703125 59.46875 46.09375 68 32.09375 68 
L 5.203125 68 
L 5.203125 65.390625 
C 12.09375 65.390625 13.203125 65.390625 13.203125 60.875 
L 13.203125 6.6875 
C 13.203125 2.1875 12.09375 2.1875 5.203125 2.1875 
L 5.203125 -0.40625 
C 8.09375 -0.203125 13.296875 -0.203125 16.40625 -0.203125 
C 19.5 -0.203125 24.703125 -0.203125 27.59375 -0.40625 
L 27.59375 2.1875 
C 20.703125 2.1875 19.59375 2.1875 19.59375 6.6875 
L 19.59375 33 
L 31.296875 33 
C 37 33 40.203125 30.6875 41.59375 29.390625 
C 45.59375 25.5 45.59375 22.796875 45.59375 16 
C 45.59375 9.296875 45.59375 5.890625 48.59375 2.5 
C 52.40625 -1.609375 57.5 -2 59.703125 -2 
C 67.09375 -2 68.203125 6.296875 68.203125 8 
C 68.203125 8.59375 68.203125 9.296875 67.296875 9.296875 
C 66.5 9.296875 66.40625 8.6875 66.40625 8.296875 
C 65.90625 1.796875 63 -0.40625 59.90625 -0.40625 
C 54.40625 -0.40625 53.796875 5.890625 53.203125 12 
C 52.90625 14.09375 52.703125 15.59375 52.5 17.796875 
C 51.90625 22.796875 51.09375 30.09375 39.203125 33.6875 
z
M 31 34.59375 
L 19.59375 34.59375 
L 19.59375 61.484375 
C 19.59375 64.890625 19.796875 65.390625 23.796875 65.390625 
L 31.09375 65.390625 
C 39.40625 65.390625 49.09375 62.484375 49.09375 50.046875 
C 49.09375 37.09375 38.5 34.59375 31 34.59375 
z
" id="CMR17-82"/>
     <path d="M 38.09375 23.484375 
C 38.5 23.890625 38.5 24.09375 38.5 25.09375 
C 38.5 35.171875 33.09375 44 21.703125 44 
C 11.09375 44 2.703125 33.984375 2.703125 21.78125 
C 2.703125 8.65625 12.203125 -1 22.796875 -1 
C 34 -1 38.40625 9.671875 38.40625 11.796875 
C 38.40625 12.5 37.796875 12.5 37.59375 12.5 
C 36.90625 12.5 36.796875 12.296875 36.40625 11.078125 
C 34.203125 4.21875 28.703125 0.796875 23.5 0.796875 
C 19.203125 0.796875 14.90625 3.21875 12.203125 7.65625 
C 9.09375 12.796875 9.09375 18.75 9.09375 23.484375 
z
M 9.203125 25 
C 9.90625 39.234375 17.59375 42.390625 21.59375 42.390625 
C 28.40625 42.390625 33 36.0625 33.09375 25 
z
" id="CMR17-101"/>
     <path d="M 23.5 -25 
L 23.5 -21.5 
L 14.09375 -21.5 
L 14.09375 71.484375 
L 23.5 71.484375 
L 23.5 75 
L 10.59375 75 
L 10.59375 -25 
z
" id="CMR17-91"/>
     <path d="M 3.09375 -16.953125 
C 3 -17.4375 2.796875 -18.03125 2.796875 -18.609375 
C 2.796875 -20.109375 4 -21.109375 5.5 -21.109375 
C 7 -21.109375 8.40625 -20.109375 9 -18.71875 
C 9.40625 -17.828125 12.203125 -6.09375 15.40625 6.078125 
C 17.40625 1.09375 21.09375 -1 25 -1 
C 36.296875 -1 49.09375 12.96875 49.09375 28.03125 
C 49.09375 38.703125 42.59375 44 35.703125 44 
C 26.90625 44 16.203125 34.90625 12.90625 21.640625 
z
M 24.90625 1 
C 18.09375 1 16.40625 8.875 16.40625 10.078125 
C 16.40625 10.671875 18.90625 20.140625 19.203125 21.640625 
C 24.296875 41.5 34.09375 41.984375 35.59375 41.984375 
C 40.09375 41.984375 42.59375 37.90625 42.59375 32.015625 
C 42.59375 26.9375 39.90625 17.046875 38.203125 12.859375 
C 35.203125 5.984375 30 1 24.90625 1 
z
" id="CMMI12-26"/>
     <path d="M 14.296875 75 
L 1.40625 75 
L 1.40625 71.484375 
L 10.796875 71.484375 
L 10.796875 -21.5 
L 1.40625 -21.5 
L 1.40625 -25 
L 14.296875 -25 
z
" id="CMR17-93"/>
    </defs>
    <g transform="translate(352.486567 117.931831)rotate(-86.842577)scale(0.14 -0.14)">
     <use transform="scale(0.996264)" xlink:href="#CMR17-82"/>
     <use transform="translate(67.791102 0)scale(0.996264)" xlink:href="#CMR17-101"/>
     <use transform="translate(108.276762 0)scale(0.996264)" xlink:href="#CMR17-91"/>
     <use transform="translate(133.147821 0)scale(0.996264)" xlink:href="#CMMI12-26"/>
     <use transform="translate(183.462194 0)scale(0.996264)" xlink:href="#CMR17-93"/>
    </g>
   </g>
   <g id="Line3DCollection_3">
    <path d="M 305.319199 167.819027 
L 128.672122 129.925621 
L 19.613786 197.70892 
" style="fill:none;stroke:#b0b0b0;stroke-width:0.8;"/>
    <path d="M 307.011954 137.132753 
L 128.255648 100.091218 
L 17.807601 166.376852 
" style="fill:none;stroke:#b0b0b0;stroke-width:0.8;"/>
    <path d="M 308.745981 105.698313 
L 127.829452 69.560332 
L 15.955899 134.255218 
" style="fill:none;stroke:#b0b0b0;stroke-width:0.8;"/>
    <path d="M 310.522807 73.488009 
L 127.393189 38.308286 
L 14.056939 101.313793 
" style="fill:none;stroke:#b0b0b0;stroke-width:0.8;"/>
   </g>
   <g id="xtick_9">
    <g id="line2d_12">
     <path d="M 303.845303 167.502854 
L 308.27006 168.45203 
" style="fill:none;stroke:#000000;stroke-linecap:square;stroke-width:0.8;"/>
    </g>
    <g id="text_10">
     <!-- $0.0$ -->
     <defs>
      <path d="M 18.40625 4.796875 
C 18.40625 7.6875 16 9.6875 13.59375 9.6875 
C 10.703125 9.6875 8.703125 7.296875 8.703125 4.890625 
C 8.703125 2 11.09375 0 13.5 0 
C 16.40625 0 18.40625 2.390625 18.40625 4.796875 
z
" id="CMMI12-58"/>
     </defs>
     <g transform="translate(315.130388 175.565656)scale(0.14 -0.14)">
      <use transform="scale(0.996264)" xlink:href="#CMR17-48"/>
      <use transform="translate(45.690477 0)scale(0.996264)" xlink:href="#CMMI12-58"/>
      <use transform="translate(72.787654 0)scale(0.996264)" xlink:href="#CMR17-48"/>
     </g>
    </g>
   </g>
   <g id="xtick_10">
    <g id="line2d_13">
     <path d="M 305.519719 136.823535 
L 309.999568 137.75184 
" style="fill:none;stroke:#000000;stroke-linecap:square;stroke-width:0.8;"/>
    </g>
    <g id="text_11">
     <!-- $0.1$ -->
     <g transform="translate(317.042271 144.922078)scale(0.14 -0.14)">
      <use transform="scale(0.996264)" xlink:href="#CMR17-48"/>
      <use transform="translate(45.690477 0)scale(0.996264)" xlink:href="#CMMI12-58"/>
      <use transform="translate(72.787654 0)scale(0.996264)" xlink:href="#CMR17-49"/>
     </g>
    </g>
   </g>
   <g id="xtick_11">
    <g id="line2d_14">
     <path d="M 307.234946 105.396485 
L 311.771273 106.302614 
" style="fill:none;stroke:#000000;stroke-linecap:square;stroke-width:0.8;"/>
    </g>
    <g id="text_12">
     <!-- $0.2$ -->
     <defs>
      <path d="M 41.703125 15.46875 
L 39.90625 15.46875 
C 38.90625 8.390625 38.09375 7.1875 37.703125 6.59375 
C 37.203125 5.796875 30 5.796875 28.59375 5.796875 
L 9.40625 5.796875 
C 13 9.6875 20 16.765625 28.5 24.9375 
C 34.59375 30.71875 41.703125 37.5 41.703125 47.390625 
C 41.703125 59.1875 32.296875 66 21.796875 66 
C 10.796875 66 4.09375 56.296875 4.09375 47.296875 
C 4.09375 43.390625 7 42.890625 8.203125 42.890625 
C 9.203125 42.890625 12.203125 43.484375 12.203125 46.984375 
C 12.203125 50.09375 9.59375 51 8.203125 51 
C 7.59375 51 7 50.890625 6.59375 50.6875 
C 8.5 59.1875 14.296875 63.390625 20.40625 63.390625 
C 29.09375 63.390625 34.796875 56.5 34.796875 47.390625 
C 34.796875 38.703125 29.703125 31.21875 24 24.734375 
L 4.09375 2.296875 
L 4.09375 0 
L 39.296875 0 
z
" id="CMR17-50"/>
     </defs>
     <g transform="translate(319.000667 113.533002)scale(0.14 -0.14)">
      <use transform="scale(0.996264)" xlink:href="#CMR17-48"/>
      <use transform="translate(45.690477 0)scale(0.996264)" xlink:href="#CMMI12-58"/>
      <use transform="translate(72.787654 0)scale(0.996264)" xlink:href="#CMR17-50"/>
     </g>
    </g>
   </g>
   <g id="xtick_12">
    <g id="line2d_15">
     <path d="M 308.992492 73.194031 
L 313.58674 74.076599 
" style="fill:none;stroke:#000000;stroke-linecap:square;stroke-width:0.8;"/>
    </g>
    <g id="text_13">
     <!-- $0.3$ -->
     <defs>
      <path d="M 22.09375 34 
C 31 34 34.90625 26.140625 34.90625 17.09375 
C 34.90625 5.03125 28.5 0.390625 22.703125 0.390625 
C 17.40625 0.390625 8.796875 3.015625 6.09375 10.796875 
C 6.59375 10.59375 7.09375 10.59375 7.59375 10.59375 
C 10 10.59375 11.796875 12.1875 11.796875 14.796875 
C 11.796875 17.6875 9.59375 19 7.59375 19 
C 5.90625 19 3.296875 18.1875 3.296875 14.484375 
C 3.296875 5.234375 12.296875 -2 22.90625 -2 
C 34 -2 42.5 6.75 42.5 16.984375 
C 42.5 26.84375 34.5 34 25 35.09375 
C 32.59375 36.671875 39.90625 43.375 39.90625 52.390625 
C 39.90625 60.25 32 66 23 66 
C 13.90625 66 5.90625 60.34375 5.90625 52.296875 
C 5.90625 48.796875 8.5 48.1875 9.796875 48.1875 
C 11.90625 48.1875 13.703125 49.484375 13.703125 52.09375 
C 13.703125 54.6875 11.90625 56 9.796875 56 
C 9.40625 56 8.90625 56 8.5 55.796875 
C 11.40625 62.484375 19.296875 63.6875 22.796875 63.6875 
C 26.296875 63.6875 32.90625 61.96875 32.90625 52.296875 
C 32.90625 49.484375 32.5 44.546875 29.09375 40.21875 
C 26.09375 36.390625 22.703125 36.1875 19.40625 35.890625 
C 18.90625 35.890625 16.59375 35.6875 16.203125 35.6875 
C 15.5 35.59375 15.09375 35.5 15.09375 34.796875 
C 15.09375 34.09375 15.203125 34 17.203125 34 
z
" id="CMR17-51"/>
     </defs>
     <g transform="translate(321.007292 81.370889)scale(0.14 -0.14)">
      <use transform="scale(0.996264)" xlink:href="#CMR17-48"/>
      <use transform="translate(45.690477 0)scale(0.996264)" xlink:href="#CMMI12-58"/>
      <use transform="translate(72.787654 0)scale(0.996264)" xlink:href="#CMR17-51"/>
     </g>
    </g>
   </g>
  </g>
  <g id="axes_1">
   <g id="Poly3DCollection_1">
    <path clip-path="url(#pe0bc0b53b2)" d="M 133.037107 136.286011 
L 133.051747 137.476151 
L 154.438688 142.098609 
L 154.433894 140.904374 
z
" style="fill:#ba0c2f;fill-opacity:0.8;"/>
    <path clip-path="url(#pe0bc0b53b2)" d="M 120.250407 144.316069 
L 120.271134 145.513314 
L 133.051747 137.476151 
L 133.037107 136.286011 
z
" style="fill:#5d0618;fill-opacity:0.8;"/>
    <path clip-path="url(#pe0bc0b53b2)" d="M 120.271134 145.513314 
L 141.786381 150.220613 
L 154.438688 142.098609 
L 133.051747 137.476151 
z
" style="fill:#a30a29;fill-opacity:0.8;"/>
    <path clip-path="url(#pe0bc0b53b2)" d="M 120.250407 144.316069 
L 133.037107 136.286011 
L 154.433894 140.904374 
L 141.775619 149.019239 
z
" style="fill:#74081d;fill-opacity:0.8;"/>
    <path clip-path="url(#pe0bc0b53b2)" d="M 141.775619 149.019239 
L 154.433894 140.904374 
L 154.438688 142.098609 
L 141.786381 150.220613 
z
" style="fill:#ba0c2f;fill-opacity:0.8;"/>
    <path clip-path="url(#pe0bc0b53b2)" d="M 120.250407 144.316069 
L 141.775619 149.019239 
L 141.786381 150.220613 
L 120.271134 145.513314 
z
" style="fill:#5d0618;fill-opacity:0.8;"/>
   </g>
   <g id="Poly3DCollection_2">
    <path clip-path="url(#pe0bc0b53b2)" d="M 176.056217 145.571418 
L 176.063188 143.984055 
L 197.928233 148.695066 
L 197.907658 150.287915 
z
" style="fill:#5d0618;fill-opacity:0.8;"/>
    <path clip-path="url(#pe0bc0b53b2)" d="M 163.529809 153.772439 
L 163.529037 152.175555 
L 176.063188 143.984055 
L 176.056217 145.571418 
z
" style="fill:#ba0c2f;fill-opacity:0.8;"/>
    <path clip-path="url(#pe0bc0b53b2)" d="M 163.529809 153.772439 
L 176.056217 145.571418 
L 197.907658 150.287915 
L 185.516651 158.576472 
z
" style="fill:#74081d;fill-opacity:0.8;"/>
    <path clip-path="url(#pe0bc0b53b2)" d="M 163.529037 152.175555 
L 185.529652 156.974055 
L 197.928233 148.695066 
L 176.063188 143.984055 
z
" style="fill:#a30a29;fill-opacity:0.8;"/>
    <path clip-path="url(#pe0bc0b53b2)" d="M 185.516651 158.576472 
L 197.907658 150.287915 
L 197.928233 148.695066 
L 185.529652 156.974055 
z
" style="fill:#5d0618;fill-opacity:0.8;"/>
    <path clip-path="url(#pe0bc0b53b2)" d="M 163.529809 153.772439 
L 185.516651 158.576472 
L 185.529652 156.974055 
L 163.529037 152.175555 
z
" style="fill:#ba0c2f;fill-opacity:0.8;"/>
   </g>
   <g id="Poly3DCollection_3">
    <path clip-path="url(#pe0bc0b53b2)" d="M 107.228447 152.493871 
L 107.13682 148.412172 
L 128.825753 153.188344 
L 128.883203 157.284203 
z
" style="fill:#5d0618;fill-opacity:0.8;"/>
    <path clip-path="url(#pe0bc0b53b2)" d="M 93.964675 160.82353 
L 93.850878 156.71726 
L 107.13682 148.412172 
L 107.228447 152.493871 
z
" style="fill:#ba0c2f;fill-opacity:0.8;"/>
    <path clip-path="url(#pe0bc0b53b2)" d="M 93.964675 160.82353 
L 107.228447 152.493871 
L 128.883203 157.284203 
L 115.75009 165.703472 
z
" style="fill:#74081d;fill-opacity:0.8;"/>
    <path clip-path="url(#pe0bc0b53b2)" d="M 93.850878 156.71726 
L 115.670881 161.582922 
L 128.825753 153.188344 
L 107.13682 148.412172 
z
" style="fill:#a30a29;fill-opacity:0.8;"/>
    <path clip-path="url(#pe0bc0b53b2)" d="M 115.75009 165.703472 
L 128.883203 157.284203 
L 128.825753 153.188344 
L 115.670881 161.582922 
z
" style="fill:#5d0618;fill-opacity:0.8;"/>
    <path clip-path="url(#pe0bc0b53b2)" d="M 93.964675 160.82353 
L 115.75009 165.703472 
L 115.670881 161.582922 
L 93.850878 156.71726 
z
" style="fill:#ba0c2f;fill-opacity:0.8;"/>
   </g>
   <g id="Poly3DCollection_4">
    <path clip-path="url(#pe0bc0b53b2)" d="M 219.991879 155.054656 
L 220.120414 149.094574 
L 242.494077 153.89165 
L 242.31262 159.872449 
z
" style="fill:#5d0618;fill-opacity:0.8;"/>
    <path clip-path="url(#pe0bc0b53b2)" d="M 207.739896 163.432158 
L 207.840847 157.436129 
L 220.120414 149.094574 
L 219.991879 155.054656 
z
" style="fill:#ba0c2f;fill-opacity:0.8;"/>
    <path clip-path="url(#pe0bc0b53b2)" d="M 207.739896 163.432158 
L 219.991879 155.054656 
L 242.31262 159.872449 
L 230.203378 168.340336 
z
" style="fill:#74081d;fill-opacity:0.8;"/>
    <path clip-path="url(#pe0bc0b53b2)" d="M 207.840847 157.436129 
L 230.357935 162.323414 
L 242.494077 153.89165 
L 220.120414 149.094574 
z
" style="fill:#a30a29;fill-opacity:0.8;"/>
    <path clip-path="url(#pe0bc0b53b2)" d="M 230.203378 168.340336 
L 242.31262 159.872449 
L 242.494077 153.89165 
L 230.357935 162.323414 
z
" style="fill:#5d0618;fill-opacity:0.8;"/>
    <path clip-path="url(#pe0bc0b53b2)" d="M 207.739896 163.432158 
L 230.203378 168.340336 
L 230.357935 162.323414 
L 207.840847 157.436129 
z
" style="fill:#ba0c2f;fill-opacity:0.8;"/>
   </g>
   <g id="Poly3DCollection_5">
    <path clip-path="url(#pe0bc0b53b2)" d="M 150.770457 162.125968 
L 150.772473 162.493871 
L 172.892796 167.389177 
L 172.893973 167.019997 
z
" style="fill:#ba0c2f;fill-opacity:0.8;"/>
    <path clip-path="url(#pe0bc0b53b2)" d="M 137.771601 170.6363 
L 137.775527 171.006418 
L 150.772473 162.493871 
L 150.770457 162.125968 
z
" style="fill:#5d0618;fill-opacity:0.8;"/>
    <path clip-path="url(#pe0bc0b53b2)" d="M 137.775527 171.006418 
L 160.033759 175.994283 
L 172.892796 167.389177 
L 150.772473 162.493871 
z
" style="fill:#a30a29;fill-opacity:0.8;"/>
    <path clip-path="url(#pe0bc0b53b2)" d="M 137.771601 170.6363 
L 150.770457 162.125968 
L 172.893973 167.019997 
L 160.033066 175.622878 
z
" style="fill:#74081d;fill-opacity:0.8;"/>
    <path clip-path="url(#pe0bc0b53b2)" d="M 160.033066 175.622878 
L 172.893973 167.019997 
L 172.892796 167.389177 
L 160.033759 175.994283 
z
" style="fill:#ba0c2f;fill-opacity:0.8;"/>
    <path clip-path="url(#pe0bc0b53b2)" d="M 137.771601 170.6363 
L 160.033066 175.622878 
L 160.033759 175.994283 
L 137.775527 171.006418 
z
" style="fill:#5d0618;fill-opacity:0.8;"/>
   </g>
   <g id="Poly3DCollection_6">
    <path clip-path="url(#pe0bc0b53b2)" d="M 80.452292 169.309318 
L 80.382266 167.194472 
L 102.31737 172.159199 
L 102.369475 174.281408 
z
" style="fill:#5d0618;fill-opacity:0.8;"/>
    <path clip-path="url(#pe0bc0b53b2)" d="M 66.684242 177.955664 
L 66.602009 175.828044 
L 80.382266 167.194472 
L 80.452292 169.309318 
z
" style="fill:#ba0c2f;fill-opacity:0.8;"/>
    <path clip-path="url(#pe0bc0b53b2)" d="M 66.684242 177.955664 
L 80.452292 169.309318 
L 102.369475 174.281408 
L 88.734297 183.022537 
z
" style="fill:#74081d;fill-opacity:0.8;"/>
    <path clip-path="url(#pe0bc0b53b2)" d="M 66.602009 175.828044 
L 88.6702 180.887492 
L 102.31737 172.159199 
L 80.382266 167.194472 
z
" style="fill:#a30a29;fill-opacity:0.8;"/>
    <path clip-path="url(#pe0bc0b53b2)" d="M 88.734297 183.022537 
L 102.369475 174.281408 
L 102.31737 172.159199 
L 88.6702 180.887492 
z
" style="fill:#5d0618;fill-opacity:0.8;"/>
    <path clip-path="url(#pe0bc0b53b2)" d="M 66.684242 177.955664 
L 88.734297 183.022537 
L 88.6702 180.887492 
L 66.602009 175.828044 
z
" style="fill:#ba0c2f;fill-opacity:0.8;"/>
   </g>
   <g id="Poly3DCollection_7">
    <path clip-path="url(#pe0bc0b53b2)" d="M 252.911014 173.30186 
L 264.873701 164.742117 
L 287.679025 169.664504 
L 275.866805 178.317604 
z
" style="fill:#74081d;fill-opacity:0.8;"/>
    <path clip-path="url(#pe0bc0b53b2)" d="M 264.873701 164.742117 
L 266.524433 122.676516 
L 289.716969 127.449046 
L 287.679025 169.664504 
z
" style="fill:#5d0618;fill-opacity:0.8;"/>
    <path clip-path="url(#pe0bc0b53b2)" d="M 252.911014 173.30186 
L 254.37839 130.976214 
L 266.524433 122.676516 
L 264.873701 164.742117 
z
" style="fill:#ba0c2f;fill-opacity:0.8;"/>
    <path clip-path="url(#pe0bc0b53b2)" d="M 275.866805 178.317604 
L 287.679025 169.664504 
L 289.716969 127.449046 
L 277.72662 135.840778 
z
" style="fill:#5d0618;fill-opacity:0.8;"/>
    <path clip-path="url(#pe0bc0b53b2)" d="M 252.911014 173.30186 
L 275.866805 178.317604 
L 277.72662 135.840778 
L 254.37839 130.976214 
z
" style="fill:#ba0c2f;fill-opacity:0.8;"/>
    <path clip-path="url(#pe0bc0b53b2)" d="M 254.37839 130.976214 
L 277.72662 135.840778 
L 289.716969 127.449046 
L 266.524433 122.676516 
z
" style="fill:#a30a29;fill-opacity:0.8;"/>
   </g>
   <g id="Poly3DCollection_8">
    <path clip-path="url(#pe0bc0b53b2)" d="M 240.720983 182.024274 
L 240.903078 175.94976 
L 264.067673 181.040278 
L 263.828863 187.136059 
z
" style="fill:#5d0618;fill-opacity:0.8;"/>
    <path clip-path="url(#pe0bc0b53b2)" d="M 228.297065 190.914044 
L 228.450839 184.802631 
L 240.903078 175.94976 
L 240.720983 182.024274 
z
" style="fill:#ba0c2f;fill-opacity:0.8;"/>
    <path clip-path="url(#pe0bc0b53b2)" d="M 228.297065 190.914044 
L 240.720983 182.024274 
L 263.828863 187.136059 
L 251.558667 196.124653 
z
" style="fill:#74081d;fill-opacity:0.8;"/>
    <path clip-path="url(#pe0bc0b53b2)" d="M 228.450839 184.802631 
L 251.769919 189.991802 
L 264.067673 181.040278 
L 240.903078 175.94976 
z
" style="fill:#a30a29;fill-opacity:0.8;"/>
    <path clip-path="url(#pe0bc0b53b2)" d="M 251.558667 196.124653 
L 263.828863 187.136059 
L 264.067673 181.040278 
L 251.769919 189.991802 
z
" style="fill:#5d0618;fill-opacity:0.8;"/>
    <path clip-path="url(#pe0bc0b53b2)" d="M 228.297065 190.914044 
L 251.558667 196.124653 
L 251.769919 189.991802 
L 228.450839 184.802631 
z
" style="fill:#ba0c2f;fill-opacity:0.8;"/>
   </g>
   <g id="Poly3DCollection_9">
    <path clip-path="url(#pe0bc0b53b2)" d="M 169.575586 189.527656 
L 169.574872 189.902608 
L 192.471823 195.099052 
L 192.475958 194.72279 
z
" style="fill:#ba0c2f;fill-opacity:0.8;"/>
    <path clip-path="url(#pe0bc0b53b2)" d="M 156.361993 198.562675 
L 156.363253 198.939899 
L 169.574872 189.902608 
L 169.575586 189.527656 
z
" style="fill:#5d0618;fill-opacity:0.8;"/>
    <path clip-path="url(#pe0bc0b53b2)" d="M 156.363253 198.939899 
L 179.408691 204.237616 
L 192.471823 195.099052 
L 169.574872 189.902608 
z
" style="fill:#a30a29;fill-opacity:0.8;"/>
    <path clip-path="url(#pe0bc0b53b2)" d="M 156.361993 198.562675 
L 169.575586 189.527656 
L 192.475958 194.72279 
L 179.410897 203.859072 
z
" style="fill:#74081d;fill-opacity:0.8;"/>
    <path clip-path="url(#pe0bc0b53b2)" d="M 179.410897 203.859072 
L 192.475958 194.72279 
L 192.471823 195.099052 
L 179.408691 204.237616 
z
" style="fill:#ba0c2f;fill-opacity:0.8;"/>
    <path clip-path="url(#pe0bc0b53b2)" d="M 156.361993 198.562675 
L 179.410897 203.859072 
L 179.408691 204.237616 
L 156.363253 198.939899 
z
" style="fill:#5d0618;fill-opacity:0.8;"/>
   </g>
   <g id="Poly3DCollection_10">
    <path clip-path="url(#pe0bc0b53b2)" d="M 111.027887 188.145371 
L 124.526433 179.307892 
L 146.927122 184.389669 
L 133.56907 193.325099 
z
" style="fill:#74081d;fill-opacity:0.8;"/>
    <path clip-path="url(#pe0bc0b53b2)" d="M 124.526433 179.307892 
L 123.727614 128.959216 
L 146.570977 133.859983 
L 146.927122 184.389669 
z
" style="fill:#5d0618;fill-opacity:0.8;"/>
    <path clip-path="url(#pe0bc0b53b2)" d="M 111.027887 188.145371 
L 109.950708 137.482597 
L 123.727614 128.959216 
L 124.526433 179.307892 
z
" style="fill:#ba0c2f;fill-opacity:0.8;"/>
    <path clip-path="url(#pe0bc0b53b2)" d="M 133.56907 193.325099 
L 146.927122 184.389669 
L 146.570977 133.859983 
L 132.940165 142.479735 
z
" style="fill:#5d0618;fill-opacity:0.8;"/>
    <path clip-path="url(#pe0bc0b53b2)" d="M 111.027887 188.145371 
L 133.56907 193.325099 
L 132.940165 142.479735 
L 109.950708 137.482597 
z
" style="fill:#ba0c2f;fill-opacity:0.8;"/>
    <path clip-path="url(#pe0bc0b53b2)" d="M 109.950708 137.482597 
L 132.940165 142.479735 
L 146.570977 133.859983 
L 123.727614 128.959216 
z
" style="fill:#a30a29;fill-opacity:0.8;"/>
   </g>
   <g id="Poly3DCollection_11">
    <path clip-path="url(#pe0bc0b53b2)" d="M 97.268621 197.153543 
L 97.210852 194.998041 
L 119.912993 200.271029 
L 119.951565 202.434082 
z
" style="fill:#5d0618;fill-opacity:0.8;"/>
    <path clip-path="url(#pe0bc0b53b2)" d="M 83.241008 206.337401 
L 83.170552 204.168799 
L 97.210852 194.998041 
L 97.268621 197.153543 
z
" style="fill:#ba0c2f;fill-opacity:0.8;"/>
    <path clip-path="url(#pe0bc0b53b2)" d="M 83.241008 206.337401 
L 97.268621 197.153543 
L 119.951565 202.434082 
L 106.066974 211.721723 
z
" style="fill:#74081d;fill-opacity:0.8;"/>
    <path clip-path="url(#pe0bc0b53b2)" d="M 83.170552 204.168799 
L 106.015957 209.545511 
L 119.912993 200.271029 
L 97.210852 194.998041 
z
" style="fill:#a30a29;fill-opacity:0.8;"/>
    <path clip-path="url(#pe0bc0b53b2)" d="M 106.066974 211.721723 
L 119.951565 202.434082 
L 119.912993 200.271029 
L 106.015957 209.545511 
z
" style="fill:#5d0618;fill-opacity:0.8;"/>
    <path clip-path="url(#pe0bc0b53b2)" d="M 83.241008 206.337401 
L 106.066974 211.721723 
L 106.015957 209.545511 
L 83.170552 204.168799 
z
" style="fill:#ba0c2f;fill-opacity:0.8;"/>
   </g>
   <g id="Poly3DCollection_12">
    <path clip-path="url(#pe0bc0b53b2)" d="M 215.632465 199.976031 
L 215.6658 198.327249 
L 239.098385 203.633799 
L 239.049428 205.288358 
z
" style="fill:#5d0618;fill-opacity:0.8;"/>
    <path clip-path="url(#pe0bc0b53b2)" d="M 202.720119 209.215288 
L 202.745236 207.556484 
L 215.6658 198.327249 
L 215.632465 199.976031 
z
" style="fill:#ba0c2f;fill-opacity:0.8;"/>
    <path clip-path="url(#pe0bc0b53b2)" d="M 202.720119 209.215288 
L 215.632465 199.976031 
L 239.049428 205.288358 
L 226.294094 214.632341 
z
" style="fill:#74081d;fill-opacity:0.8;"/>
    <path clip-path="url(#pe0bc0b53b2)" d="M 202.745236 207.556484 
L 226.335043 212.967716 
L 239.098385 203.633799 
L 215.6658 198.327249 
z
" style="fill:#a30a29;fill-opacity:0.8;"/>
    <path clip-path="url(#pe0bc0b53b2)" d="M 226.294094 214.632341 
L 239.049428 205.288358 
L 239.098385 203.633799 
L 226.335043 212.967716 
z
" style="fill:#5d0618;fill-opacity:0.8;"/>
    <path clip-path="url(#pe0bc0b53b2)" d="M 202.720119 209.215288 
L 226.294094 214.632341 
L 226.335043 212.967716 
L 202.745236 207.556484 
z
" style="fill:#ba0c2f;fill-opacity:0.8;"/>
   </g>
   <g id="Poly3DCollection_13">
    <path clip-path="url(#pe0bc0b53b2)" d="M 182.538431 180.66409 
L 195.257598 171.967142 
L 217.865263 176.968272 
L 205.291724 185.760837 
z
" style="fill:#74081d;fill-opacity:0.8;"/>
    <path clip-path="url(#pe0bc0b53b2)" d="M 195.257598 171.967142 
L 196.400007 76.653996 
L 219.866033 81.303936 
L 217.865263 176.968272 
z
" style="fill:#5d0618;fill-opacity:0.8;"/>
    <path clip-path="url(#pe0bc0b53b2)" d="M 182.538431 180.66409 
L 183.210815 84.741449 
L 196.400007 76.653996 
L 195.257598 171.967142 
z
" style="fill:#ba0c2f;fill-opacity:0.8;"/>
    <path clip-path="url(#pe0bc0b53b2)" d="M 205.291724 185.760837 
L 217.865263 176.968272 
L 219.866033 81.303936 
L 206.833825 89.483683 
z
" style="fill:#5d0618;fill-opacity:0.8;"/>
    <path clip-path="url(#pe0bc0b53b2)" d="M 182.538431 180.66409 
L 205.291724 185.760837 
L 206.833825 89.483683 
L 183.210815 84.741449 
z
" style="fill:#ba0c2f;fill-opacity:0.8;"/>
    <path clip-path="url(#pe0bc0b53b2)" d="M 183.210815 84.741449 
L 206.833825 89.483683 
L 219.866033 81.303936 
L 196.400007 76.653996 
z
" style="fill:#a30a29;fill-opacity:0.8;"/>
   </g>
   <g id="Poly3DCollection_14">
    <path clip-path="url(#pe0bc0b53b2)" d="M 142.890306 207.77417 
L 142.853317 203.533998 
L 166.091442 208.919747 
L 166.089197 213.174821 
z
" style="fill:#5d0618;fill-opacity:0.8;"/>
    <path clip-path="url(#pe0bc0b53b2)" d="M 129.152889 217.167364 
L 129.092079 212.901339 
L 142.853317 203.533998 
L 142.890306 207.77417 
z
" style="fill:#ba0c2f;fill-opacity:0.8;"/>
    <path clip-path="url(#pe0bc0b53b2)" d="M 129.152889 217.167364 
L 142.890306 207.77417 
L 166.089197 213.174821 
L 152.503219 222.675376 
z
" style="fill:#74081d;fill-opacity:0.8;"/>
    <path clip-path="url(#pe0bc0b53b2)" d="M 129.092079 212.901339 
L 152.482157 218.394337 
L 166.091442 208.919747 
L 142.853317 203.533998 
z
" style="fill:#a30a29;fill-opacity:0.8;"/>
    <path clip-path="url(#pe0bc0b53b2)" d="M 152.503219 222.675376 
L 166.089197 213.174821 
L 166.091442 208.919747 
L 152.482157 218.394337 
z
" style="fill:#5d0618;fill-opacity:0.8;"/>
    <path clip-path="url(#pe0bc0b53b2)" d="M 129.152889 217.167364 
L 152.503219 222.675376 
L 152.482157 218.394337 
L 129.092079 212.901339 
z
" style="fill:#ba0c2f;fill-opacity:0.8;"/>
   </g>
   <g id="Poly3DCollection_15">
    <path clip-path="url(#pe0bc0b53b2)" d="M 189.552687 218.63707 
L 189.540183 219.896865 
L 213.260712 225.42619 
L 213.28533 224.161977 
z
" style="fill:#ba0c2f;fill-opacity:0.8;"/>
    <path clip-path="url(#pe0bc0b53b2)" d="M 176.122533 228.246838 
L 176.116748 229.514298 
L 189.540183 219.896865 
L 189.552687 218.63707 
z
" style="fill:#5d0618;fill-opacity:0.8;"/>
    <path clip-path="url(#pe0bc0b53b2)" d="M 176.116748 229.514298 
L 199.997442 235.154762 
L 213.260712 225.42619 
L 189.540183 219.896865 
z
" style="fill:#a30a29;fill-opacity:0.8;"/>
    <path clip-path="url(#pe0bc0b53b2)" d="M 176.122533 228.246838 
L 189.552687 218.63707 
L 213.28533 224.161977 
L 200.015506 233.882852 
z
" style="fill:#74081d;fill-opacity:0.8;"/>
    <path clip-path="url(#pe0bc0b53b2)" d="M 200.015506 233.882852 
L 213.28533 224.161977 
L 213.260712 225.42619 
L 199.997442 235.154762 
z
" style="fill:#ba0c2f;fill-opacity:0.8;"/>
    <path clip-path="url(#pe0bc0b53b2)" d="M 176.122533 228.246838 
L 200.015506 233.882852 
L 199.997442 235.154762 
L 176.116748 229.514298 
z
" style="fill:#5d0618;fill-opacity:0.8;"/>
   </g>
   <g id="Poly3DCollection_16">
    <path clip-path="url(#pe0bc0b53b2)" d="M 25.511212 197.091944 
L 203.756173 239.333523 
L 299.782823 168.398231 
L 130.037167 131.914682 
z
" style="fill-opacity:0.15;"/>
   </g>
   <g id="Poly3DCollection_17">
    <path clip-path="url(#pe0bc0b53b2)" d="M 38.351556 195.748614 
L 52.653199 186.767171 
L 74.837219 191.931562 
L 60.670624 201.013367 
z
" style="fill:#74081d;fill-opacity:0.8;"/>
    <path clip-path="url(#pe0bc0b53b2)" d="M 52.653199 186.767171 
L 46.933544 57.750519 
L 70.222556 62.427839 
L 74.837219 191.931562 
z
" style="fill:#5d0618;fill-opacity:0.8;"/>
    <path clip-path="url(#pe0bc0b53b2)" d="M 38.351556 195.748614 
L 31.836896 65.886594 
L 46.933544 57.750519 
L 52.653199 186.767171 
z
" style="fill:#ba0c2f;fill-opacity:0.8;"/>
    <path clip-path="url(#pe0bc0b53b2)" d="M 60.670624 201.013367 
L 74.837219 191.931562 
L 70.222556 62.427839 
L 55.274545 70.659531 
z
" style="fill:#5d0618;fill-opacity:0.8;"/>
    <path clip-path="url(#pe0bc0b53b2)" d="M 38.351556 195.748614 
L 60.670624 201.013367 
L 55.274545 70.659531 
L 31.836896 65.886594 
z
" style="fill:#ba0c2f;fill-opacity:0.8;"/>
    <path clip-path="url(#pe0bc0b53b2)" d="M 31.836896 65.886594 
L 55.274545 70.659531 
L 70.222556 62.427839 
L 46.933544 57.750519 
z
" style="fill:#a30a29;fill-opacity:0.8;"/>
   </g>
  </g>
  <g id="patch_6">
   <path d="M 425.945455 262.8 
L 806.4 262.8 
L 806.4 -14.4 
L 425.945455 -14.4 
z
" style="fill:#ffffff;"/>
  </g>
  <g id="pane3d_4">
   <g id="patch_7">
    <path d="M 476.380584 201.548569 
L 585.268665 133.58541 
L 583.455794 3.718968 
L 468.496488 64.782468 
" style="fill:#f2f2f2;opacity:0.5;stroke:#f2f2f2;stroke-linejoin:miter;"/>
   </g>
  </g>
  <g id="pane3d_5">
   <g id="patch_8">
    <path d="M 585.268665 133.58541 
L 761.65712 171.581202 
L 769.037001 37.79869 
L 583.455794 3.718968 
" style="fill:#e6e6e6;opacity:0.5;stroke:#e6e6e6;stroke-linejoin:miter;"/>
   </g>
  </g>
  <g id="pane3d_6">
   <g id="patch_9">
    <path d="M 476.380584 201.548569 
L 661.965072 245.80086 
L 761.65712 171.581202 
L 585.268665 133.58541 
" style="fill:#ececec;opacity:0.5;stroke:#ececec;stroke-linejoin:miter;"/>
   </g>
  </g>
  <g id="axis3d_4">
   <g id="line2d_16">
    <path d="M 476.380584 201.548569 
L 661.965072 245.80086 
" style="fill:none;stroke:#000000;stroke-linecap:square;stroke-width:0.8;"/>
   </g>
   <g id="Line3DCollection_4">
    <path d="M 498.841271 206.90428 
L 606.679397 138.19749 
L 605.9393 7.847789 
" style="fill:none;stroke:#b0b0b0;stroke-width:0.8;"/>
    <path d="M 544.057792 217.686079 
L 649.729469 147.470895 
L 651.182353 16.156123 
" style="fill:none;stroke:#b0b0b0;stroke-width:0.8;"/>
    <path d="M 590.310744 228.715013 
L 693.693551 156.941187 
L 697.435637 24.649974 
" style="fill:none;stroke:#b0b0b0;stroke-width:0.8;"/>
    <path d="M 637.636176 239.999678 
L 738.601063 166.614702 
L 744.733372 33.335625 
" style="fill:none;stroke:#b0b0b0;stroke-width:0.8;"/>
   </g>
   <g id="xtick_13">
    <g id="line2d_17">
     <path d="M 499.770538 206.312217 
L 496.979262 208.09062 
" style="fill:none;stroke:#000000;stroke-linecap:square;stroke-width:0.8;"/>
    </g>
    <g id="text_14">
     <!-- 00 -->
     <g transform="translate(479.875817 237.14703)rotate(-45)scale(0.14 -0.14)">
      <use transform="scale(0.996264)" xlink:href="#CMR17-48"/>
      <use transform="translate(45.690477 0)scale(0.996264)" xlink:href="#CMR17-48"/>
     </g>
    </g>
   </g>
   <g id="xtick_14">
    <g id="line2d_18">
     <path d="M 544.969128 217.080527 
L 542.231671 218.899473 
" style="fill:none;stroke:#000000;stroke-linecap:square;stroke-width:0.8;"/>
    </g>
    <g id="text_15">
     <!-- 01 -->
     <g transform="translate(525.088242 248.103782)rotate(-45)scale(0.14 -0.14)">
      <use transform="scale(0.996264)" xlink:href="#CMR17-48"/>
      <use transform="translate(45.690477 0)scale(0.996264)" xlink:href="#CMR17-49"/>
     </g>
    </g>
   </g>
   <g id="xtick_15">
    <g id="line2d_19">
     <path d="M 591.20308 228.095506 
L 588.522658 229.956397 
" style="fill:none;stroke:#000000;stroke-linecap:square;stroke-width:0.8;"/>
    </g>
    <g id="text_16">
     <!-- 10 -->
     <g transform="translate(571.338855 259.312128)rotate(-45)scale(0.14 -0.14)">
      <use transform="scale(0.996264)" xlink:href="#CMR17-49"/>
      <use transform="translate(45.690477 0)scale(0.996264)" xlink:href="#CMR17-48"/>
     </g>
    </g>
   </g>
   <g id="xtick_16">
    <g id="line2d_20">
     <path d="M 638.50838 239.365727 
L 635.888391 241.270032 
" style="fill:none;stroke:#000000;stroke-linecap:square;stroke-width:0.8;"/>
    </g>
    <g id="text_17">
     <!-- 11 -->
     <g transform="translate(618.66383 270.780834)rotate(-45)scale(0.14 -0.14)">
      <use transform="scale(0.996264)" xlink:href="#CMR17-49"/>
      <use transform="translate(45.690477 0)scale(0.996264)" xlink:href="#CMR17-49"/>
     </g>
    </g>
   </g>
  </g>
  <g id="axis3d_5">
   <g id="line2d_21">
    <path d="M 761.65712 171.581202 
L 661.965072 245.80086 
" style="fill:none;stroke:#000000;stroke-linecap:square;stroke-width:0.8;"/>
   </g>
   <g id="Line3DCollection_5">
    <path d="M 484.000685 56.547028 
L 491.016499 192.413474 
L 675.403872 235.795817 
" style="fill:none;stroke:#b0b0b0;stroke-width:0.8;"/>
    <path d="M 513.777478 40.730342 
L 519.168861 174.842005 
L 701.219492 216.576366 
" style="fill:none;stroke:#b0b0b0;stroke-width:0.8;"/>
    <path d="M 542.401344 25.526062 
L 546.284836 157.917404 
L 726.04244 198.095948 
" style="fill:none;stroke:#b0b0b0;stroke-width:0.8;"/>
    <path d="M 569.937971 10.899296 
L 572.420618 141.604597 
L 749.928893 180.312741 
" style="fill:none;stroke:#b0b0b0;stroke-width:0.8;"/>
   </g>
   <g id="xtick_17">
    <g id="line2d_22">
     <path d="M 673.861052 235.432825 
L 678.492943 236.522608 
" style="fill:none;stroke:#000000;stroke-linecap:square;stroke-width:0.8;"/>
    </g>
    <g id="text_18">
     <!-- 00 -->
     <g transform="translate(689.195824 248.348363)rotate(-337.5)scale(0.14 -0.14)">
      <use transform="scale(0.996264)" xlink:href="#CMR17-48"/>
      <use transform="translate(45.690477 0)scale(0.996264)" xlink:href="#CMR17-48"/>
     </g>
    </g>
   </g>
   <g id="xtick_18">
    <g id="line2d_23">
     <path d="M 699.697534 216.227463 
L 704.266725 217.274932 
" style="fill:none;stroke:#000000;stroke-linecap:square;stroke-width:0.8;"/>
    </g>
    <g id="text_19">
     <!-- 01 -->
     <g transform="translate(714.749375 228.903937)rotate(-337.5)scale(0.14 -0.14)">
      <use transform="scale(0.996264)" xlink:href="#CMR17-48"/>
      <use transform="translate(45.690477 0)scale(0.996264)" xlink:href="#CMR17-49"/>
     </g>
    </g>
   </g>
   <g id="xtick_19">
    <g id="line2d_24">
     <path d="M 724.540896 197.76033 
L 729.048738 198.767901 
" style="fill:none;stroke:#000000;stroke-linecap:square;stroke-width:0.8;"/>
    </g>
    <g id="text_20">
     <!-- 10 -->
     <g transform="translate(739.320787 210.206849)rotate(-337.5)scale(0.14 -0.14)">
      <use transform="scale(0.996264)" xlink:href="#CMR17-49"/>
      <use transform="translate(45.690477 0)scale(0.996264)" xlink:href="#CMR17-48"/>
     </g>
    </g>
   </g>
   <g id="xtick_20">
    <g id="line2d_25">
     <path d="M 748.44732 179.989663 
L 752.895146 180.959573 
" style="fill:none;stroke:#000000;stroke-linecap:square;stroke-width:0.8;"/>
    </g>
    <g id="text_21">
     <!-- 11 -->
     <g transform="translate(762.965613 192.214827)rotate(-337.5)scale(0.14 -0.14)">
      <use transform="scale(0.996264)" xlink:href="#CMR17-49"/>
      <use transform="translate(45.690477 0)scale(0.996264)" xlink:href="#CMR17-49"/>
     </g>
    </g>
   </g>
  </g>
  <g id="axis3d_6">
   <g id="line2d_26">
    <path d="M 761.65712 171.581202 
L 769.037001 37.79869 
" style="fill:none;stroke:#000000;stroke-linecap:square;stroke-width:0.8;"/>
   </g>
   <g id="text_22">
    <!-- Im[$\rho$] -->
    <defs>
     <path d="M 19.703125 60.90625 
C 19.703125 65.390625 20.90625 65.390625 28.09375 65.390625 
L 28.09375 68 
C 24.90625 67.796875 19.796875 67.796875 16.40625 67.796875 
C 13 67.796875 7.90625 67.796875 4.703125 68 
L 4.703125 65.390625 
C 11.90625 65.390625 13.09375 65.390625 13.09375 60.90625 
L 13.09375 7.078125 
C 13.09375 2.59375 11.90625 2.59375 4.703125 2.59375 
L 4.703125 0 
C 7.90625 0.1875 13 0.1875 16.40625 0.1875 
C 19.796875 0.1875 24.90625 0.1875 28.09375 0 
L 28.09375 2.59375 
C 20.90625 2.59375 19.703125 2.59375 19.703125 7.078125 
z
" id="CMR17-73"/>
     <path d="M 67.59375 30.53125 
C 67.59375 35.5625 66.703125 44 54.796875 44 
C 48 44 43.296875 39.375 41.5 33.953125 
L 41.40625 33.953125 
C 40.203125 42.1875 34.296875 44 28.703125 44 
C 20.796875 44 16.703125 37.875 15.203125 33.84375 
L 15.09375 33.84375 
L 15.09375 44 
L 3.296875 42.890625 
L 3.296875 40.28125 
C 9.203125 40.28125 10.09375 39.6875 10.09375 34.859375 
L 10.09375 6.921875 
C 10.09375 3.09375 9.703125 2.59375 3.296875 2.59375 
L 3.296875 0 
C 5.703125 0.1875 10.09375 0.1875 12.703125 0.1875 
C 15.296875 0.1875 19.796875 0.1875 22.203125 0 
L 22.203125 2.59375 
C 15.796875 2.59375 15.40625 3 15.40625 6.921875 
L 15.40625 26.21875 
C 15.40625 35.453125 21 42.390625 28 42.390625 
C 35.40625 42.390625 36.203125 35.765625 36.203125 30.9375 
L 36.203125 6.921875 
C 36.203125 3.09375 35.796875 2.59375 29.40625 2.59375 
L 29.40625 0 
C 31.796875 0.1875 36.203125 0.1875 38.796875 0.1875 
C 41.40625 0.1875 45.90625 0.1875 48.296875 0 
L 48.296875 2.59375 
C 41.90625 2.59375 41.5 3 41.5 6.921875 
L 41.5 26.21875 
C 41.5 35.453125 47.09375 42.390625 54.09375 42.390625 
C 61.5 42.390625 62.296875 35.765625 62.296875 30.9375 
L 62.296875 6.921875 
C 62.296875 3.09375 61.90625 2.59375 55.5 2.59375 
L 55.5 0 
C 57.90625 0.1875 62.296875 0.1875 64.90625 0.1875 
C 67.5 0.1875 72 0.1875 74.40625 0 
L 74.40625 2.59375 
C 68 2.59375 67.59375 3 67.59375 6.921875 
z
" id="CMR17-109"/>
    </defs>
    <g transform="translate(809.026865 118.025317)rotate(-86.842577)scale(0.14 -0.14)">
     <use transform="scale(0.996264)" xlink:href="#CMR17-73"/>
     <use transform="translate(32.638409 0)scale(0.996264)" xlink:href="#CMR17-109"/>
     <use transform="translate(109.557999 0)scale(0.996264)" xlink:href="#CMR17-91"/>
     <use transform="translate(134.429058 0)scale(0.996264)" xlink:href="#CMMI12-26"/>
     <use transform="translate(184.74343 0)scale(0.996264)" xlink:href="#CMR17-93"/>
    </g>
   </g>
   <g id="Line3DCollection_6">
    <path d="M 762.087357 163.781867 
L 585.16276 125.998831 
L 475.921696 193.588211 
" style="fill:none;stroke:#b0b0b0;stroke-width:0.8;"/>
    <path d="M 763.728359 134.033773 
L 584.759067 97.079926 
L 474.170571 163.211279 
" style="fill:none;stroke:#b0b0b0;stroke-width:0.8;"/>
    <path d="M 765.408071 103.583949 
L 584.346255 67.507865 
L 472.376749 132.093699 
" style="fill:none;stroke:#b0b0b0;stroke-width:0.8;"/>
    <path d="M 767.127879 72.407268 
L 583.924014 37.260265 
L 470.538651 100.208048 
" style="fill:none;stroke:#b0b0b0;stroke-width:0.8;"/>
   </g>
   <g id="xtick_21">
    <g id="line2d_27">
     <path d="M 760.611048 163.466595 
L 765.043051 164.413069 
" style="fill:none;stroke:#000000;stroke-linecap:square;stroke-width:0.8;"/>
    </g>
    <g id="text_23">
     <!-- $0.0$ -->
     <g transform="translate(771.92738 171.534024)scale(0.14 -0.14)">
      <use transform="scale(0.996264)" xlink:href="#CMR17-48"/>
      <use transform="translate(45.690477 0)scale(0.996264)" xlink:href="#CMMI12-58"/>
      <use transform="translate(72.787654 0)scale(0.996264)" xlink:href="#CMR17-48"/>
     </g>
    </g>
   </g>
   <g id="xtick_22">
    <g id="line2d_28">
     <path d="M 762.234271 133.725272 
L 766.719686 134.651427 
" style="fill:none;stroke:#000000;stroke-linecap:square;stroke-width:0.8;"/>
    </g>
    <g id="text_24">
     <!-- $0.1$ -->
     <g transform="translate(773.7808 141.827498)scale(0.14 -0.14)">
      <use transform="scale(0.996264)" xlink:href="#CMR17-48"/>
      <use transform="translate(45.690477 0)scale(0.996264)" xlink:href="#CMMI12-58"/>
      <use transform="translate(72.787654 0)scale(0.996264)" xlink:href="#CMR17-49"/>
     </g>
    </g>
   </g>
   <g id="xtick_23">
    <g id="line2d_29">
     <path d="M 763.89577 103.282627 
L 768.435899 104.187236 
" style="fill:none;stroke:#000000;stroke-linecap:square;stroke-width:0.8;"/>
    </g>
    <g id="text_25">
     <!-- $0.2$ -->
     <g transform="translate(775.677844 111.421748)scale(0.14 -0.14)">
      <use transform="scale(0.996264)" xlink:href="#CMR17-48"/>
      <use transform="translate(45.690477 0)scale(0.996264)" xlink:href="#CMMI12-58"/>
      <use transform="translate(72.787654 0)scale(0.996264)" xlink:href="#CMR17-50"/>
     </g>
    </g>
   </g>
   <g id="xtick_24">
    <g id="line2d_30">
     <path d="M 765.596917 72.113559 
L 770.193108 72.995322 
" style="fill:none;stroke:#000000;stroke-linecap:square;stroke-width:0.8;"/>
    </g>
    <g id="text_26">
     <!-- $0.3$ -->
     <g transform="translate(777.620073 80.291795)scale(0.14 -0.14)">
      <use transform="scale(0.996264)" xlink:href="#CMR17-48"/>
      <use transform="translate(45.690477 0)scale(0.996264)" xlink:href="#CMMI12-58"/>
      <use transform="translate(72.787654 0)scale(0.996264)" xlink:href="#CMR17-51"/>
     </g>
    </g>
   </g>
  </g>
  <g id="axes_2">
   <g id="Poly3DCollection_18">
    <path clip-path="url(#pf225fcb7ff)" d="M 589.534023 132.340349 
L 589.519733 131.178721 
L 610.958779 135.779447 
L 610.963457 136.945096 
z
" style="fill:#065d4c;fill-opacity:0.8;"/>
    <path clip-path="url(#pf225fcb7ff)" d="M 576.727142 140.34678 
L 576.70691 139.178175 
L 589.519733 131.178721 
L 589.534023 132.340349 
z
" style="fill:#0cba97;fill-opacity:0.8;"/>
    <path clip-path="url(#pf225fcb7ff)" d="M 576.727142 140.34678 
L 589.534023 132.340349 
L 610.963457 136.945096 
L 598.285393 145.036214 
z
" style="fill:#08745e;fill-opacity:0.8;"/>
    <path clip-path="url(#pf225fcb7ff)" d="M 576.70691 139.178175 
L 598.274888 143.863554 
L 610.958779 135.779447 
L 589.519733 131.178721 
z
" style="fill:#0aa384;fill-opacity:0.8;"/>
    <path clip-path="url(#pf225fcb7ff)" d="M 598.285393 145.036214 
L 610.963457 136.945096 
L 610.958779 135.779447 
L 598.274888 143.863554 
z
" style="fill:#065d4c;fill-opacity:0.8;"/>
    <path clip-path="url(#pf225fcb7ff)" d="M 576.727142 140.34678 
L 598.285393 145.036214 
L 598.274888 143.863554 
L 576.70691 139.178175 
z
" style="fill:#0cba97;fill-opacity:0.8;"/>
   </g>
   <g id="Poly3DCollection_19">
    <path clip-path="url(#pf225fcb7ff)" d="M 632.61912 141.598455 
L 632.626086 140.012345 
L 654.525171 144.70958 
L 654.504611 146.301199 
z
" style="fill:#065d4c;fill-opacity:0.8;"/>
    <path clip-path="url(#pf225fcb7ff)" d="M 620.073331 149.775612 
L 620.07256 148.179943 
L 632.626086 140.012345 
L 632.61912 141.598455 
z
" style="fill:#0cba97;fill-opacity:0.8;"/>
    <path clip-path="url(#pf225fcb7ff)" d="M 620.073331 149.775612 
L 632.61912 141.598455 
L 654.504611 146.301199 
L 642.094647 154.565774 
z
" style="fill:#08745e;fill-opacity:0.8;"/>
    <path clip-path="url(#pf225fcb7ff)" d="M 620.07256 148.179943 
L 642.107639 152.964549 
L 654.525171 144.70958 
L 632.626086 140.012345 
z
" style="fill:#0aa384;fill-opacity:0.8;"/>
    <path clip-path="url(#pf225fcb7ff)" d="M 642.094647 154.565774 
L 654.504611 146.301199 
L 654.525171 144.70958 
L 642.107639 152.964549 
z
" style="fill:#065d4c;fill-opacity:0.8;"/>
    <path clip-path="url(#pf225fcb7ff)" d="M 620.073331 149.775612 
L 642.094647 154.565774 
L 642.107639 152.964549 
L 620.07256 148.179943 
z
" style="fill:#0cba97;fill-opacity:0.8;"/>
   </g>
   <g id="Poly3DCollection_20">
    <path clip-path="url(#pf225fcb7ff)" d="M 563.684263 148.500749 
L 563.582653 143.974376 
L 585.308745 148.735074 
L 585.372454 153.277229 
z
" style="fill:#065d4c;fill-opacity:0.8;"/>
    <path clip-path="url(#pf225fcb7ff)" d="M 550.398802 156.806372 
L 550.272604 152.252612 
L 563.582653 143.974376 
L 563.684263 148.500749 
z
" style="fill:#0cba97;fill-opacity:0.8;"/>
    <path clip-path="url(#pf225fcb7ff)" d="M 550.398802 156.806372 
L 563.684263 148.500749 
L 585.372454 153.277229 
L 572.218055 161.672344 
z
" style="fill:#08745e;fill-opacity:0.8;"/>
    <path clip-path="url(#pf225fcb7ff)" d="M 550.272604 152.252612 
L 572.130213 157.102666 
L 585.308745 148.735074 
L 563.582653 143.974376 
z
" style="fill:#0aa384;fill-opacity:0.8;"/>
    <path clip-path="url(#pf225fcb7ff)" d="M 572.218055 161.672344 
L 585.372454 153.277229 
L 585.308745 148.735074 
L 572.130213 157.102666 
z
" style="fill:#065d4c;fill-opacity:0.8;"/>
    <path clip-path="url(#pf225fcb7ff)" d="M 550.398802 156.806372 
L 572.218055 161.672344 
L 572.130213 157.102666 
L 550.272604 152.252612 
z
" style="fill:#0cba97;fill-opacity:0.8;"/>
   </g>
   <g id="Poly3DCollection_21">
    <path clip-path="url(#pf225fcb7ff)" d="M 676.623609 151.054119 
L 676.736365 145.825711 
L 699.139055 150.611361 
L 698.979872 155.858023 
z
" style="fill:#065d4c;fill-opacity:0.8;"/>
    <path clip-path="url(#pf225fcb7ff)" d="M 664.353111 159.407522 
L 664.441672 154.14744 
L 676.736365 145.825711 
L 676.623609 151.054119 
z
" style="fill:#0cba97;fill-opacity:0.8;"/>
    <path clip-path="url(#pf225fcb7ff)" d="M 664.353111 159.407522 
L 676.623609 151.054119 
L 698.979872 155.858023 
L 686.852574 164.301693 
z
" style="fill:#08745e;fill-opacity:0.8;"/>
    <path clip-path="url(#pf225fcb7ff)" d="M 664.441672 154.14744 
L 686.988163 159.023201 
L 699.139055 150.611361 
L 676.736365 145.825711 
z
" style="fill:#0aa384;fill-opacity:0.8;"/>
    <path clip-path="url(#pf225fcb7ff)" d="M 686.852574 164.301693 
L 698.979872 155.858023 
L 699.139055 150.611361 
L 686.988163 159.023201 
z
" style="fill:#065d4c;fill-opacity:0.8;"/>
    <path clip-path="url(#pf225fcb7ff)" d="M 664.353111 159.407522 
L 686.852574 164.301693 
L 686.988163 159.023201 
L 664.441672 154.14744 
z
" style="fill:#0cba97;fill-opacity:0.8;"/>
   </g>
   <g id="Poly3DCollection_22">
    <path clip-path="url(#pf225fcb7ff)" d="M 607.29387 158.105073 
L 607.30621 160.35617 
L 629.44509 165.244051 
L 629.452291 162.985114 
z
" style="fill:#0cba97;fill-opacity:0.8;"/>
    <path clip-path="url(#pf225fcb7ff)" d="M 594.274146 166.591134 
L 594.298169 168.855834 
L 607.30621 160.35617 
L 607.29387 158.105073 
z
" style="fill:#065d4c;fill-opacity:0.8;"/>
    <path clip-path="url(#pf225fcb7ff)" d="M 594.298169 168.855834 
L 616.57519 173.836212 
L 629.44509 165.244051 
L 607.30621 160.35617 
z
" style="fill:#0aa384;fill-opacity:0.8;"/>
    <path clip-path="url(#pf225fcb7ff)" d="M 594.274146 166.591134 
L 607.29387 158.105073 
L 629.452291 162.985114 
L 616.570953 171.563607 
z
" style="fill:#08745e;fill-opacity:0.8;"/>
    <path clip-path="url(#pf225fcb7ff)" d="M 616.570953 171.563607 
L 629.452291 162.985114 
L 629.44509 165.244051 
L 616.57519 173.836212 
z
" style="fill:#0cba97;fill-opacity:0.8;"/>
    <path clip-path="url(#pf225fcb7ff)" d="M 594.274146 166.591134 
L 616.570953 171.563607 
L 616.57519 173.836212 
L 594.298169 168.855834 
z
" style="fill:#065d4c;fill-opacity:0.8;"/>
   </g>
   <g id="Poly3DCollection_23">
    <path clip-path="url(#pf225fcb7ff)" d="M 721.577237 160.713734 
L 721.577237 160.713734 
L 744.419626 165.622097 
L 744.419626 165.622097 
z
" style="fill:#065d4c;fill-opacity:0.8;"/>
    <path clip-path="url(#pf225fcb7ff)" d="M 709.596971 169.249143 
L 709.596971 169.249143 
L 721.577237 160.713734 
L 721.577237 160.713734 
z
" style="fill:#065d4c;fill-opacity:0.8;"/>
    <path clip-path="url(#pf225fcb7ff)" d="M 709.596971 169.249143 
L 721.577237 160.713734 
L 744.419626 165.622097 
L 732.590324 174.250746 
z
" style="fill:#08745e;fill-opacity:0.8;"/>
    <path clip-path="url(#pf225fcb7ff)" d="M 709.596971 169.249143 
L 732.590324 174.250746 
L 744.419626 165.622097 
L 721.577237 160.713734 
z
" style="fill:#0aa384;fill-opacity:0.8;"/>
    <path clip-path="url(#pf225fcb7ff)" d="M 732.590324 174.250746 
L 744.419626 165.622097 
L 744.419626 165.622097 
L 732.590324 174.250746 
z
" style="fill:#065d4c;fill-opacity:0.8;"/>
    <path clip-path="url(#pf225fcb7ff)" d="M 709.596971 169.249143 
L 732.590324 174.250746 
L 732.590324 174.250746 
L 709.596971 169.249143 
z
" style="fill:#065d4c;fill-opacity:0.8;"/>
   </g>
   <g id="Poly3DCollection_24">
    <path clip-path="url(#pf225fcb7ff)" d="M 536.863929 165.267919 
L 536.713908 160.73718 
L 558.703726 165.679307 
L 558.815357 170.225922 
z
" style="fill:#065d4c;fill-opacity:0.8;"/>
    <path clip-path="url(#pf225fcb7ff)" d="M 523.072552 173.889824 
L 522.896375 169.331538 
L 536.713908 160.73718 
L 536.863929 165.267919 
z
" style="fill:#0cba97;fill-opacity:0.8;"/>
    <path clip-path="url(#pf225fcb7ff)" d="M 523.072552 173.889824 
L 536.863929 165.267919 
L 558.815357 170.225922 
L 545.157264 178.942493 
z
" style="fill:#08745e;fill-opacity:0.8;"/>
    <path clip-path="url(#pf225fcb7ff)" d="M 522.896375 169.331538 
L 545.019939 174.368198 
L 558.703726 165.679307 
L 536.713908 160.73718 
z
" style="fill:#0aa384;fill-opacity:0.8;"/>
    <path clip-path="url(#pf225fcb7ff)" d="M 545.157264 178.942493 
L 558.815357 170.225922 
L 558.703726 165.679307 
L 545.019939 174.368198 
z
" style="fill:#065d4c;fill-opacity:0.8;"/>
    <path clip-path="url(#pf225fcb7ff)" d="M 523.072552 173.889824 
L 545.157264 178.942493 
L 545.019939 174.368198 
L 522.896375 169.331538 
z
" style="fill:#0cba97;fill-opacity:0.8;"/>
   </g>
   <g id="Poly3DCollection_25">
    <path clip-path="url(#pf225fcb7ff)" d="M 651.851583 167.918203 
L 651.851583 167.918203 
L 674.495694 172.905209 
L 674.495694 172.905209 
z
" style="fill:#065d4c;fill-opacity:0.8;"/>
    <path clip-path="url(#pf225fcb7ff)" d="M 639.112439 176.590646 
L 639.112439 176.590646 
L 651.851583 167.918203 
L 651.851583 167.918203 
z
" style="fill:#065d4c;fill-opacity:0.8;"/>
    <path clip-path="url(#pf225fcb7ff)" d="M 639.112439 176.590646 
L 661.902652 181.673155 
L 674.495694 172.905209 
L 651.851583 167.918203 
z
" style="fill:#0aa384;fill-opacity:0.8;"/>
    <path clip-path="url(#pf225fcb7ff)" d="M 639.112439 176.590646 
L 651.851583 167.918203 
L 674.495694 172.905209 
L 661.902652 181.673155 
z
" style="fill:#08745e;fill-opacity:0.8;"/>
    <path clip-path="url(#pf225fcb7ff)" d="M 661.902652 181.673155 
L 674.495694 172.905209 
L 674.495694 172.905209 
L 661.902652 181.673155 
z
" style="fill:#065d4c;fill-opacity:0.8;"/>
    <path clip-path="url(#pf225fcb7ff)" d="M 639.112439 176.590646 
L 661.902652 181.673155 
L 661.902652 181.673155 
L 639.112439 176.590646 
z
" style="fill:#065d4c;fill-opacity:0.8;"/>
   </g>
   <g id="Poly3DCollection_26">
    <path clip-path="url(#pf225fcb7ff)" d="M 581.00732 175.238252 
L 581.00732 175.238252 
L 603.443793 180.305809 
L 603.443793 180.305809 
z
" style="fill:#065d4c;fill-opacity:0.8;"/>
    <path clip-path="url(#pf225fcb7ff)" d="M 567.486289 184.051058 
L 567.486289 184.051058 
L 581.00732 175.238252 
L 581.00732 175.238252 
z
" style="fill:#065d4c;fill-opacity:0.8;"/>
    <path clip-path="url(#pf225fcb7ff)" d="M 567.486289 184.051058 
L 590.063705 189.21645 
L 603.443793 180.305809 
L 581.00732 175.238252 
z
" style="fill:#0aa384;fill-opacity:0.8;"/>
    <path clip-path="url(#pf225fcb7ff)" d="M 567.486289 184.051058 
L 581.00732 175.238252 
L 603.443793 180.305809 
L 590.063705 189.21645 
z
" style="fill:#08745e;fill-opacity:0.8;"/>
    <path clip-path="url(#pf225fcb7ff)" d="M 590.063705 189.21645 
L 603.443793 180.305809 
L 603.443793 180.305809 
L 590.063705 189.21645 
z
" style="fill:#065d4c;fill-opacity:0.8;"/>
    <path clip-path="url(#pf225fcb7ff)" d="M 567.486289 184.051058 
L 590.063705 189.21645 
L 590.063705 189.21645 
L 567.486289 184.051058 
z
" style="fill:#065d4c;fill-opacity:0.8;"/>
   </g>
   <g id="Poly3DCollection_27">
    <path clip-path="url(#pf225fcb7ff)" d="M 697.388661 177.947022 
L 697.229575 183.253979 
L 720.325975 188.370049 
L 720.534608 183.04455 
z
" style="fill:#0cba97;fill-opacity:0.8;"/>
    <path clip-path="url(#pf225fcb7ff)" d="M 684.945733 186.812056 
L 684.811391 192.151184 
L 697.229575 183.253979 
L 697.388661 177.947022 
z
" style="fill:#065d4c;fill-opacity:0.8;"/>
    <path clip-path="url(#pf225fcb7ff)" d="M 684.811391 192.151184 
L 708.061358 197.366112 
L 720.325975 188.370049 
L 697.229575 183.253979 
z
" style="fill:#0aa384;fill-opacity:0.8;"/>
    <path clip-path="url(#pf225fcb7ff)" d="M 684.945733 186.812056 
L 697.388661 177.947022 
L 720.534608 183.04455 
L 708.245914 192.008294 
z
" style="fill:#08745e;fill-opacity:0.8;"/>
    <path clip-path="url(#pf225fcb7ff)" d="M 708.245914 192.008294 
L 720.534608 183.04455 
L 720.325975 188.370049 
L 708.061358 197.366112 
z
" style="fill:#0cba97;fill-opacity:0.8;"/>
    <path clip-path="url(#pf225fcb7ff)" d="M 684.945733 186.812056 
L 708.245914 192.008294 
L 708.061358 197.366112 
L 684.811391 192.151184 
z
" style="fill:#065d4c;fill-opacity:0.8;"/>
   </g>
   <g id="Poly3DCollection_28">
    <path clip-path="url(#pf225fcb7ff)" d="M 509.017311 182.676687 
L 509.017311 182.676687 
L 531.236406 187.82676 
L 531.236406 187.82676 
z
" style="fill:#065d4c;fill-opacity:0.8;"/>
    <path clip-path="url(#pf225fcb7ff)" d="M 494.690561 191.63329 
L 494.690561 191.63329 
L 509.017311 182.676687 
L 509.017311 182.676687 
z
" style="fill:#065d4c;fill-opacity:0.8;"/>
    <path clip-path="url(#pf225fcb7ff)" d="M 494.690561 191.63329 
L 509.017311 182.676687 
L 531.236406 187.82676 
L 517.045125 196.883611 
z
" style="fill:#08745e;fill-opacity:0.8;"/>
    <path clip-path="url(#pf225fcb7ff)" d="M 494.690561 191.63329 
L 517.045125 196.883611 
L 531.236406 187.82676 
L 509.017311 182.676687 
z
" style="fill:#0aa384;fill-opacity:0.8;"/>
    <path clip-path="url(#pf225fcb7ff)" d="M 517.045125 196.883611 
L 531.236406 187.82676 
L 531.236406 187.82676 
L 517.045125 196.883611 
z
" style="fill:#065d4c;fill-opacity:0.8;"/>
    <path clip-path="url(#pf225fcb7ff)" d="M 494.690561 191.63329 
L 517.045125 196.883611 
L 517.045125 196.883611 
L 494.690561 191.63329 
z
" style="fill:#065d4c;fill-opacity:0.8;"/>
   </g>
   <g id="Poly3DCollection_29">
    <path clip-path="url(#pf225fcb7ff)" d="M 626.128839 185.429508 
L 626.133213 183.130944 
L 649.091963 188.303642 
L 649.066612 190.610289 
z
" style="fill:#065d4c;fill-opacity:0.8;"/>
    <path clip-path="url(#pf225fcb7ff)" d="M 612.893678 194.439625 
L 612.885955 192.127037 
L 626.133213 183.130944 
L 626.128839 185.429508 
z
" style="fill:#0cba97;fill-opacity:0.8;"/>
    <path clip-path="url(#pf225fcb7ff)" d="M 612.893678 194.439625 
L 626.128839 185.429508 
L 649.066612 190.610289 
L 635.980471 199.721556 
z
" style="fill:#08745e;fill-opacity:0.8;"/>
    <path clip-path="url(#pf225fcb7ff)" d="M 612.885955 192.127037 
L 635.993999 197.400821 
L 649.091963 188.303642 
L 626.133213 183.130944 
z
" style="fill:#0aa384;fill-opacity:0.8;"/>
    <path clip-path="url(#pf225fcb7ff)" d="M 635.980471 199.721556 
L 649.066612 190.610289 
L 649.091963 188.303642 
L 635.993999 197.400821 
z
" style="fill:#065d4c;fill-opacity:0.8;"/>
    <path clip-path="url(#pf225fcb7ff)" d="M 612.893678 194.439625 
L 635.980471 199.721556 
L 635.993999 197.400821 
L 612.885955 192.127037 
z
" style="fill:#0cba97;fill-opacity:0.8;"/>
   </g>
   <g id="Poly3DCollection_30">
    <path clip-path="url(#pf225fcb7ff)" d="M 553.703678 193.034358 
L 553.827004 197.635927 
L 576.505651 202.918153 
L 576.423308 198.300448 
z
" style="fill:#0cba97;fill-opacity:0.8;"/>
    <path clip-path="url(#pf225fcb7ff)" d="M 539.651819 202.193148 
L 539.802229 206.822712 
L 553.827004 197.635927 
L 553.703678 193.034358 
z
" style="fill:#065d4c;fill-opacity:0.8;"/>
    <path clip-path="url(#pf225fcb7ff)" d="M 539.802229 206.822712 
L 562.623845 212.208734 
L 576.505651 202.918153 
L 553.827004 197.635927 
z
" style="fill:#0aa384;fill-opacity:0.8;"/>
    <path clip-path="url(#pf225fcb7ff)" d="M 539.651819 202.193148 
L 553.703678 193.034358 
L 576.423308 198.300448 
L 562.514933 207.56291 
z
" style="fill:#08745e;fill-opacity:0.8;"/>
    <path clip-path="url(#pf225fcb7ff)" d="M 562.514933 207.56291 
L 576.423308 198.300448 
L 576.505651 202.918153 
L 562.623845 212.208734 
z
" style="fill:#0cba97;fill-opacity:0.8;"/>
    <path clip-path="url(#pf225fcb7ff)" d="M 539.651819 202.193148 
L 562.514933 207.56291 
L 562.623845 212.208734 
L 539.802229 206.822712 
z
" style="fill:#065d4c;fill-opacity:0.8;"/>
   </g>
   <g id="Poly3DCollection_31">
    <path clip-path="url(#pf225fcb7ff)" d="M 672.261359 195.84911 
L 672.228087 197.49475 
L 695.668559 202.798378 
L 695.717422 201.146954 
z
" style="fill:#0cba97;fill-opacity:0.8;"/>
    <path clip-path="url(#pf225fcb7ff)" d="M 659.328441 205.063241 
L 659.303372 206.718916 
L 672.228087 197.49475 
L 672.261359 195.84911 
z
" style="fill:#065d4c;fill-opacity:0.8;"/>
    <path clip-path="url(#pf225fcb7ff)" d="M 659.303372 206.718916 
L 682.901174 212.127203 
L 695.668559 202.798378 
L 672.228087 197.49475 
z
" style="fill:#0aa384;fill-opacity:0.8;"/>
    <path clip-path="url(#pf225fcb7ff)" d="M 659.328441 205.063241 
L 672.261359 195.84911 
L 695.717422 201.146954 
L 682.942046 210.465699 
z
" style="fill:#08745e;fill-opacity:0.8;"/>
    <path clip-path="url(#pf225fcb7ff)" d="M 682.942046 210.465699 
L 695.717422 201.146954 
L 695.668559 202.798378 
L 682.901174 212.127203 
z
" style="fill:#0cba97;fill-opacity:0.8;"/>
    <path clip-path="url(#pf225fcb7ff)" d="M 659.328441 205.063241 
L 682.942046 210.465699 
L 682.901174 212.127203 
L 659.303372 206.718916 
z
" style="fill:#065d4c;fill-opacity:0.8;"/>
   </g>
   <g id="Poly3DCollection_32">
    <path clip-path="url(#pf225fcb7ff)" d="M 599.399574 203.626023 
L 599.440449 208.311543 
L 622.634367 213.714076 
L 622.636848 209.012095 
z
" style="fill:#0cba97;fill-opacity:0.8;"/>
    <path clip-path="url(#pf225fcb7ff)" d="M 585.638853 212.993926 
L 585.70605 217.708002 
L 599.440449 208.311543 
L 599.399574 203.626023 
z
" style="fill:#065d4c;fill-opacity:0.8;"/>
    <path clip-path="url(#pf225fcb7ff)" d="M 585.70605 217.708002 
L 609.051343 223.217911 
L 622.634367 213.714076 
L 599.440449 208.311543 
z
" style="fill:#0aa384;fill-opacity:0.8;"/>
    <path clip-path="url(#pf225fcb7ff)" d="M 585.638853 212.993926 
L 599.399574 203.626023 
L 622.636848 209.012095 
L 609.028069 218.487251 
z
" style="fill:#08745e;fill-opacity:0.8;"/>
    <path clip-path="url(#pf225fcb7ff)" d="M 609.028069 218.487251 
L 622.636848 209.012095 
L 622.634367 213.714076 
L 609.051343 223.217911 
z
" style="fill:#0cba97;fill-opacity:0.8;"/>
    <path clip-path="url(#pf225fcb7ff)" d="M 585.638853 212.993926 
L 609.028069 218.487251 
L 609.051343 223.217911 
L 585.70605 217.708002 
z
" style="fill:#065d4c;fill-opacity:0.8;"/>
   </g>
   <g id="Poly3DCollection_33">
    <path clip-path="url(#pf225fcb7ff)" d="M 646.139603 214.459703 
L 646.127406 215.688565 
L 669.888401 221.203102 
L 669.912414 219.969906 
z
" style="fill:#0cba97;fill-opacity:0.8;"/>
    <path clip-path="url(#pf225fcb7ff)" d="M 632.687172 224.043963 
L 632.681528 225.280344 
L 646.127406 215.688565 
L 646.139603 214.459703 
z
" style="fill:#065d4c;fill-opacity:0.8;"/>
    <path clip-path="url(#pf225fcb7ff)" d="M 632.681528 225.280344 
L 656.603239 230.905912 
L 669.888401 221.203102 
L 646.127406 215.688565 
z
" style="fill:#0aa384;fill-opacity:0.8;"/>
    <path clip-path="url(#pf225fcb7ff)" d="M 632.687172 224.043963 
L 646.139603 214.459703 
L 669.912414 219.969906 
L 656.62086 229.665166 
z
" style="fill:#08745e;fill-opacity:0.8;"/>
    <path clip-path="url(#pf225fcb7ff)" d="M 656.62086 229.665166 
L 669.912414 219.969906 
L 669.888401 221.203102 
L 656.603239 230.905912 
z
" style="fill:#0cba97;fill-opacity:0.8;"/>
    <path clip-path="url(#pf225fcb7ff)" d="M 632.687172 224.043963 
L 656.62086 229.665166 
L 656.603239 230.905912 
L 632.681528 225.280344 
z
" style="fill:#065d4c;fill-opacity:0.8;"/>
   </g>
   <g id="Poly3DCollection_34">
    <path clip-path="url(#pf225fcb7ff)" d="M 481.828922 192.972928 
L 660.368253 235.101618 
L 756.542344 164.359423 
L 586.529758 127.981975 
z
" style="fill-opacity:0.2;"/>
   </g>
  </g>
 </g>
 <defs>
  <clipPath id="pe0bc0b53b2">
   <rect height="277.2" width="380.454545" x="-30.6" y="-14.4"/>
  </clipPath>
  <clipPath id="pf225fcb7ff">
   <rect height="277.2" width="380.454545" x="425.945455" y="-14.4"/>
  </clipPath>
 </defs>
</svg>
