<?xml version="1.0" encoding="utf-8" standalone="no"?>
<!DOCTYPE svg PUBLIC "-//W3C//DTD SVG 1.1//EN"
  "http://www.w3.org/Graphics/SVG/1.1/DTD/svg11.dtd">
<!-- Created with matplotlib (https://matplotlib.org/) -->
<svg height="302.4pt" version="1.1" viewBox="0 0 820.8 302.4" width="820.8pt" xmlns="http://www.w3.org/2000/svg" xmlns:xlink="http://www.w3.org/1999/xlink">
 <defs>
  <style type="text/css">
*{stroke-linecap:butt;stroke-linejoin:round;}
  </style>
 </defs>
 <g id="figure_1">
  <g id="patch_1">
   <path d="M 0 302.4 
L 820.8 302.4 
L 820.8 0 
L 0 0 
z
" style="fill:#ffffff;"/>
  </g>
  <g id="patch_2">
   <path d="M -30.6 262.8 
L 349.854545 262.8 
L 349.854545 -14.4 
L -30.6 -14.4 
z
" style="fill:#ffffff;"/>
  </g>
  <g id="pane3d_1">
   <g id="patch_3">
    <path d="M 19.835129 201.548569 
L 128.723211 133.58541 
L 126.910339 3.718968 
L 11.951034 64.782468 
" style="fill:#f2f2f2;opacity:0.5;stroke:#f2f2f2;stroke-linejoin:miter;"/>
   </g>
  </g>
  <g id="pane3d_2">
   <g id="patch_4">
    <path d="M 128.723211 133.58541 
L 305.111665 171.581202 
L 312.491547 37.79869 
L 126.910339 3.718968 
" style="fill:#e6e6e6;opacity:0.5;stroke:#e6e6e6;stroke-linejoin:miter;"/>
   </g>
  </g>
  <g id="pane3d_3">
   <g id="patch_5">
    <path d="M 19.835129 201.548569 
L 205.419617 245.80086 
L 305.111665 171.581202 
L 128.723211 133.58541 
" style="fill:#ececec;opacity:0.5;stroke:#ececec;stroke-linejoin:miter;"/>
   </g>
  </g>
  <g id="axis3d_1">
   <g id="line2d_1">
    <path d="M 19.835129 201.548569 
L 205.419617 245.80086 
" style="fill:none;stroke:#000000;stroke-linecap:square;stroke-width:0.8;"/>
   </g>
   <g id="Line3DCollection_1">
    <path d="M 42.295817 206.90428 
L 150.133942 138.19749 
L 149.393845 7.847789 
" style="fill:none;stroke:#b0b0b0;stroke-width:0.8;"/>
    <path d="M 87.512337 217.686079 
L 193.184014 147.470895 
L 194.636898 16.156123 
" style="fill:none;stroke:#b0b0b0;stroke-width:0.8;"/>
    <path d="M 133.765289 228.715013 
L 237.148096 156.941187 
L 240.890183 24.649974 
" style="fill:none;stroke:#b0b0b0;stroke-width:0.8;"/>
    <path d="M 181.090721 239.999678 
L 282.055608 166.614702 
L 288.187917 33.335625 
" style="fill:none;stroke:#b0b0b0;stroke-width:0.8;"/>
   </g>
   <g id="xtick_1">
    <g id="line2d_2">
     <path d="M 43.225084 206.312217 
L 40.433807 208.09062 
" style="fill:none;stroke:#000000;stroke-linecap:square;stroke-width:0.8;"/>
    </g>
    <g id="text_1">
     <!-- 00 -->
     <defs>
      <path d="M 42 31.84375 
C 42 37.96875 41.90625 48.421875 37.703125 56.453125 
C 34 63.484375 28.09375 66 22.90625 66 
C 18.09375 66 12 63.78125 8.203125 56.5625 
C 4.203125 49.015625 3.796875 39.671875 3.796875 31.84375 
C 3.796875 26.109375 3.90625 17.375 7 9.734375 
C 11.296875 -0.609375 19 -2 22.90625 -2 
C 27.5 -2 34.5 -0.109375 38.59375 9.4375 
C 41.59375 16.375 42 24.5 42 31.84375 
z
M 22.90625 -0.40625 
C 16.5 -0.40625 12.703125 5.125 11.296875 12.75 
C 10.203125 18.6875 10.203125 27.328125 10.203125 32.953125 
C 10.203125 40.6875 10.203125 47.109375 11.5 53.234375 
C 13.40625 61.78125 19 64.390625 22.90625 64.390625 
C 27 64.390625 32.296875 61.671875 34.203125 53.4375 
C 35.5 47.71875 35.59375 40.984375 35.59375 32.953125 
C 35.59375 26.421875 35.59375 18.375 34.40625 12.453125 
C 32.296875 1.5 26.40625 -0.40625 22.90625 -0.40625 
z
" id="CMR17-48"/>
     </defs>
     <g transform="translate(23.330362 237.14703)rotate(-45)scale(0.14 -0.14)">
      <use transform="scale(0.996264)" xlink:href="#CMR17-48"/>
      <use transform="translate(45.690477 0)scale(0.996264)" xlink:href="#CMR17-48"/>
     </g>
    </g>
   </g>
   <g id="xtick_2">
    <g id="line2d_3">
     <path d="M 88.423674 217.080527 
L 85.686217 218.899473 
" style="fill:none;stroke:#000000;stroke-linecap:square;stroke-width:0.8;"/>
    </g>
    <g id="text_2">
     <!-- 01 -->
     <defs>
      <path d="M 26.59375 63.796875 
C 26.59375 65.890625 26.5 66 25.09375 66 
C 21.203125 61.359375 15.296875 59.890625 9.703125 59.6875 
C 9.40625 59.6875 8.90625 59.6875 8.796875 59.5 
C 8.703125 59.296875 8.703125 59.09375 8.703125 57 
C 11.796875 57 17 57.59375 21 59.984375 
L 21 7.296875 
C 21 3.796875 20.796875 2.59375 12.203125 2.59375 
L 9.203125 2.59375 
L 9.203125 0 
C 14 0.09375 19 0.1875 23.796875 0.1875 
C 28.59375 0.1875 33.59375 0.09375 38.40625 0 
L 38.40625 2.59375 
L 35.40625 2.59375 
C 26.796875 2.59375 26.59375 3.6875 26.59375 7.296875 
z
" id="CMR17-49"/>
     </defs>
     <g transform="translate(68.542787 248.103782)rotate(-45)scale(0.14 -0.14)">
      <use transform="scale(0.996264)" xlink:href="#CMR17-48"/>
      <use transform="translate(45.690477 0)scale(0.996264)" xlink:href="#CMR17-49"/>
     </g>
    </g>
   </g>
   <g id="xtick_3">
    <g id="line2d_4">
     <path d="M 134.657625 228.095506 
L 131.977203 229.956397 
" style="fill:none;stroke:#000000;stroke-linecap:square;stroke-width:0.8;"/>
    </g>
    <g id="text_3">
     <!-- 10 -->
     <g transform="translate(114.7934 259.312128)rotate(-45)scale(0.14 -0.14)">
      <use transform="scale(0.996264)" xlink:href="#CMR17-49"/>
      <use transform="translate(45.690477 0)scale(0.996264)" xlink:href="#CMR17-48"/>
     </g>
    </g>
   </g>
   <g id="xtick_4">
    <g id="line2d_5">
     <path d="M 181.962926 239.365727 
L 179.342936 241.270032 
" style="fill:none;stroke:#000000;stroke-linecap:square;stroke-width:0.8;"/>
    </g>
    <g id="text_4">
     <!-- 11 -->
     <g transform="translate(162.118375 270.780834)rotate(-45)scale(0.14 -0.14)">
      <use transform="scale(0.996264)" xlink:href="#CMR17-49"/>
      <use transform="translate(45.690477 0)scale(0.996264)" xlink:href="#CMR17-49"/>
     </g>
    </g>
   </g>
  </g>
  <g id="axis3d_2">
   <g id="line2d_6">
    <path d="M 305.111665 171.581202 
L 205.419617 245.80086 
" style="fill:none;stroke:#000000;stroke-linecap:square;stroke-width:0.8;"/>
   </g>
   <g id="Line3DCollection_2">
    <path d="M 27.455231 56.547028 
L 34.471044 192.413474 
L 218.858418 235.795817 
" style="fill:none;stroke:#b0b0b0;stroke-width:0.8;"/>
    <path d="M 57.232024 40.730342 
L 62.623407 174.842005 
L 244.674037 216.576366 
" style="fill:none;stroke:#b0b0b0;stroke-width:0.8;"/>
    <path d="M 85.85589 25.526062 
L 89.739382 157.917404 
L 269.496985 198.095948 
" style="fill:none;stroke:#b0b0b0;stroke-width:0.8;"/>
    <path d="M 113.392516 10.899296 
L 115.875164 141.604597 
L 293.383438 180.312741 
" style="fill:none;stroke:#b0b0b0;stroke-width:0.8;"/>
   </g>
   <g id="xtick_5">
    <g id="line2d_7">
     <path d="M 217.315598 235.432825 
L 221.947489 236.522608 
" style="fill:none;stroke:#000000;stroke-linecap:square;stroke-width:0.8;"/>
    </g>
    <g id="text_5">
     <!-- 00 -->
     <g transform="translate(232.650369 248.348363)rotate(-337.5)scale(0.14 -0.14)">
      <use transform="scale(0.996264)" xlink:href="#CMR17-48"/>
      <use transform="translate(45.690477 0)scale(0.996264)" xlink:href="#CMR17-48"/>
     </g>
    </g>
   </g>
   <g id="xtick_6">
    <g id="line2d_8">
     <path d="M 243.15208 216.227463 
L 247.72127 217.274932 
" style="fill:none;stroke:#000000;stroke-linecap:square;stroke-width:0.8;"/>
    </g>
    <g id="text_6">
     <!-- 01 -->
     <g transform="translate(258.203921 228.903937)rotate(-337.5)scale(0.14 -0.14)">
      <use transform="scale(0.996264)" xlink:href="#CMR17-48"/>
      <use transform="translate(45.690477 0)scale(0.996264)" xlink:href="#CMR17-49"/>
     </g>
    </g>
   </g>
   <g id="xtick_7">
    <g id="line2d_9">
     <path d="M 267.995442 197.76033 
L 272.503283 198.767901 
" style="fill:none;stroke:#000000;stroke-linecap:square;stroke-width:0.8;"/>
    </g>
    <g id="text_7">
     <!-- 10 -->
     <g transform="translate(282.775332 210.206849)rotate(-337.5)scale(0.14 -0.14)">
      <use transform="scale(0.996264)" xlink:href="#CMR17-49"/>
      <use transform="translate(45.690477 0)scale(0.996264)" xlink:href="#CMR17-48"/>
     </g>
    </g>
   </g>
   <g id="xtick_8">
    <g id="line2d_10">
     <path d="M 291.901865 179.989663 
L 296.349691 180.959573 
" style="fill:none;stroke:#000000;stroke-linecap:square;stroke-width:0.8;"/>
    </g>
    <g id="text_8">
     <!-- 11 -->
     <g transform="translate(306.420159 192.214827)rotate(-337.5)scale(0.14 -0.14)">
      <use transform="scale(0.996264)" xlink:href="#CMR17-49"/>
      <use transform="translate(45.690477 0)scale(0.996264)" xlink:href="#CMR17-49"/>
     </g>
    </g>
   </g>
  </g>
  <g id="axis3d_3">
   <g id="line2d_11">
    <path d="M 305.111665 171.581202 
L 312.491547 37.79869 
" style="fill:none;stroke:#000000;stroke-linecap:square;stroke-width:0.8;"/>
   </g>
   <g id="text_9">
    <!-- Re[$\rho$] -->
    <defs>
     <path d="M 39.203125 33.6875 
C 48.703125 35.59375 56.703125 42.015625 56.703125 50.046875 
C 56.703125 59.46875 46.09375 68 32.09375 68 
L 5.203125 68 
L 5.203125 65.390625 
C 12.09375 65.390625 13.203125 65.390625 13.203125 60.875 
L 13.203125 6.6875 
C 13.203125 2.1875 12.09375 2.1875 5.203125 2.1875 
L 5.203125 -0.40625 
C 8.09375 -0.203125 13.296875 -0.203125 16.40625 -0.203125 
C 19.5 -0.203125 24.703125 -0.203125 27.59375 -0.40625 
L 27.59375 2.1875 
C 20.703125 2.1875 19.59375 2.1875 19.59375 6.6875 
L 19.59375 33 
L 31.296875 33 
C 37 33 40.203125 30.6875 41.59375 29.390625 
C 45.59375 25.5 45.59375 22.796875 45.59375 16 
C 45.59375 9.296875 45.59375 5.890625 48.59375 2.5 
C 52.40625 -1.609375 57.5 -2 59.703125 -2 
C 67.09375 -2 68.203125 6.296875 68.203125 8 
C 68.203125 8.59375 68.203125 9.296875 67.296875 9.296875 
C 66.5 9.296875 66.40625 8.6875 66.40625 8.296875 
C 65.90625 1.796875 63 -0.40625 59.90625 -0.40625 
C 54.40625 -0.40625 53.796875 5.890625 53.203125 12 
C 52.90625 14.09375 52.703125 15.59375 52.5 17.796875 
C 51.90625 22.796875 51.09375 30.09375 39.203125 33.6875 
z
M 31 34.59375 
L 19.59375 34.59375 
L 19.59375 61.484375 
C 19.59375 64.890625 19.796875 65.390625 23.796875 65.390625 
L 31.09375 65.390625 
C 39.40625 65.390625 49.09375 62.484375 49.09375 50.046875 
C 49.09375 37.09375 38.5 34.59375 31 34.59375 
z
" id="CMR17-82"/>
     <path d="M 38.09375 23.484375 
C 38.5 23.890625 38.5 24.09375 38.5 25.09375 
C 38.5 35.171875 33.09375 44 21.703125 44 
C 11.09375 44 2.703125 33.984375 2.703125 21.78125 
C 2.703125 8.65625 12.203125 -1 22.796875 -1 
C 34 -1 38.40625 9.671875 38.40625 11.796875 
C 38.40625 12.5 37.796875 12.5 37.59375 12.5 
C 36.90625 12.5 36.796875 12.296875 36.40625 11.078125 
C 34.203125 4.21875 28.703125 0.796875 23.5 0.796875 
C 19.203125 0.796875 14.90625 3.21875 12.203125 7.65625 
C 9.09375 12.796875 9.09375 18.75 9.09375 23.484375 
z
M 9.203125 25 
C 9.90625 39.234375 17.59375 42.390625 21.59375 42.390625 
C 28.40625 42.390625 33 36.0625 33.09375 25 
z
" id="CMR17-101"/>
     <path d="M 23.5 -25 
L 23.5 -21.5 
L 14.09375 -21.5 
L 14.09375 71.484375 
L 23.5 71.484375 
L 23.5 75 
L 10.59375 75 
L 10.59375 -25 
z
" id="CMR17-91"/>
     <path d="M 3.09375 -16.953125 
C 3 -17.4375 2.796875 -18.03125 2.796875 -18.609375 
C 2.796875 -20.109375 4 -21.109375 5.5 -21.109375 
C 7 -21.109375 8.40625 -20.109375 9 -18.71875 
C 9.40625 -17.828125 12.203125 -6.09375 15.40625 6.078125 
C 17.40625 1.09375 21.09375 -1 25 -1 
C 36.296875 -1 49.09375 12.96875 49.09375 28.03125 
C 49.09375 38.703125 42.59375 44 35.703125 44 
C 26.90625 44 16.203125 34.90625 12.90625 21.640625 
z
M 24.90625 1 
C 18.09375 1 16.40625 8.875 16.40625 10.078125 
C 16.40625 10.671875 18.90625 20.140625 19.203125 21.640625 
C 24.296875 41.5 34.09375 41.984375 35.59375 41.984375 
C 40.09375 41.984375 42.59375 37.90625 42.59375 32.015625 
C 42.59375 26.9375 39.90625 17.046875 38.203125 12.859375 
C 35.203125 5.984375 30 1 24.90625 1 
z
" id="CMMI12-26"/>
     <path d="M 14.296875 75 
L 1.40625 75 
L 1.40625 71.484375 
L 10.796875 71.484375 
L 10.796875 -21.5 
L 1.40625 -21.5 
L 1.40625 -25 
L 14.296875 -25 
z
" id="CMR17-93"/>
    </defs>
    <g transform="translate(352.486567 117.931831)rotate(-86.842577)scale(0.14 -0.14)">
     <use transform="scale(0.996264)" xlink:href="#CMR17-82"/>
     <use transform="translate(67.791102 0)scale(0.996264)" xlink:href="#CMR17-101"/>
     <use transform="translate(108.276762 0)scale(0.996264)" xlink:href="#CMR17-91"/>
     <use transform="translate(133.147821 0)scale(0.996264)" xlink:href="#CMMI12-26"/>
     <use transform="translate(183.462194 0)scale(0.996264)" xlink:href="#CMR17-93"/>
    </g>
   </g>
   <g id="Line3DCollection_3">
    <path d="M 306.614202 144.343205 
L 128.353471 107.098822 
L 18.232134 173.741271 
" style="fill:none;stroke:#b0b0b0;stroke-width:0.8;"/>
    <path d="M 308.106457 117.291613 
L 127.986586 80.816755 
L 16.638997 146.104985 
" style="fill:none;stroke:#b0b0b0;stroke-width:0.8;"/>
    <path d="M 309.630443 89.66479 
L 127.612234 53.99971 
L 15.010839 117.861174 
" style="fill:none;stroke:#b0b0b0;stroke-width:0.8;"/>
    <path d="M 311.187184 61.44419 
L 127.230183 26.631185 
L 13.346491 88.989581 
" style="fill:none;stroke:#b0b0b0;stroke-width:0.8;"/>
   </g>
   <g id="xtick_9">
    <g id="line2d_12">
     <path d="M 305.126277 144.03233 
L 309.593177 144.965608 
" style="fill:none;stroke:#000000;stroke-linecap:square;stroke-width:0.8;"/>
    </g>
    <g id="text_10">
     <!-- $0.1$ -->
     <defs>
      <path d="M 18.40625 4.796875 
C 18.40625 7.6875 16 9.6875 13.59375 9.6875 
C 10.703125 9.6875 8.703125 7.296875 8.703125 4.890625 
C 8.703125 2 11.09375 0 13.5 0 
C 16.40625 0 18.40625 2.390625 18.40625 4.796875 
z
" id="CMMI12-58"/>
     </defs>
     <g transform="translate(316.593039 152.122357)scale(0.14 -0.14)">
      <use transform="scale(0.996264)" xlink:href="#CMR17-48"/>
      <use transform="translate(45.690477 0)scale(0.996264)" xlink:href="#CMMI12-58"/>
      <use transform="translate(72.787654 0)scale(0.996264)" xlink:href="#CMR17-49"/>
     </g>
    </g>
   </g>
   <g id="xtick_10">
    <g id="line2d_13">
     <path d="M 306.602357 116.987028 
L 311.117849 117.90143 
" style="fill:none;stroke:#000000;stroke-linecap:square;stroke-width:0.8;"/>
    </g>
    <g id="text_11">
     <!-- $0.2$ -->
     <defs>
      <path d="M 41.703125 15.46875 
L 39.90625 15.46875 
C 38.90625 8.390625 38.09375 7.1875 37.703125 6.59375 
C 37.203125 5.796875 30 5.796875 28.59375 5.796875 
L 9.40625 5.796875 
C 13 9.6875 20 16.765625 28.5 24.9375 
C 34.59375 30.71875 41.703125 37.5 41.703125 47.390625 
C 41.703125 59.1875 32.296875 66 21.796875 66 
C 10.796875 66 4.09375 56.296875 4.09375 47.296875 
C 4.09375 43.390625 7 42.890625 8.203125 42.890625 
C 9.203125 42.890625 12.203125 43.484375 12.203125 46.984375 
C 12.203125 50.09375 9.59375 51 8.203125 51 
C 7.59375 51 7 50.890625 6.59375 50.6875 
C 8.5 59.1875 14.296875 63.390625 20.40625 63.390625 
C 29.09375 63.390625 34.796875 56.5 34.796875 47.390625 
C 34.796875 38.703125 29.703125 31.21875 24 24.734375 
L 4.09375 2.296875 
L 4.09375 0 
L 39.296875 0 
z
" id="CMR17-50"/>
     </defs>
     <g transform="translate(318.278405 125.10938)scale(0.14 -0.14)">
      <use transform="scale(0.996264)" xlink:href="#CMR17-48"/>
      <use transform="translate(45.690477 0)scale(0.996264)" xlink:href="#CMMI12-58"/>
      <use transform="translate(72.787654 0)scale(0.996264)" xlink:href="#CMR17-50"/>
     </g>
    </g>
   </g>
   <g id="xtick_11">
    <g id="line2d_14">
     <path d="M 308.109812 89.366834 
L 312.674965 90.261341 
" style="fill:none;stroke:#000000;stroke-linecap:square;stroke-width:0.8;"/>
    </g>
    <g id="text_12">
     <!-- $0.3$ -->
     <defs>
      <path d="M 22.09375 34 
C 31 34 34.90625 26.140625 34.90625 17.09375 
C 34.90625 5.03125 28.5 0.390625 22.703125 0.390625 
C 17.40625 0.390625 8.796875 3.015625 6.09375 10.796875 
C 6.59375 10.59375 7.09375 10.59375 7.59375 10.59375 
C 10 10.59375 11.796875 12.1875 11.796875 14.796875 
C 11.796875 17.6875 9.59375 19 7.59375 19 
C 5.90625 19 3.296875 18.1875 3.296875 14.484375 
C 3.296875 5.234375 12.296875 -2 22.90625 -2 
C 34 -2 42.5 6.75 42.5 16.984375 
C 42.5 26.84375 34.5 34 25 35.09375 
C 32.59375 36.671875 39.90625 43.375 39.90625 52.390625 
C 39.90625 60.25 32 66 23 66 
C 13.90625 66 5.90625 60.34375 5.90625 52.296875 
C 5.90625 48.796875 8.5 48.1875 9.796875 48.1875 
C 11.90625 48.1875 13.703125 49.484375 13.703125 52.09375 
C 13.703125 54.6875 11.90625 56 9.796875 56 
C 9.40625 56 8.90625 56 8.5 55.796875 
C 11.40625 62.484375 19.296875 63.6875 22.796875 63.6875 
C 26.296875 63.6875 32.90625 61.96875 32.90625 52.296875 
C 32.90625 49.484375 32.5 44.546875 29.09375 40.21875 
C 26.09375 36.390625 22.703125 36.1875 19.40625 35.890625 
C 18.90625 35.890625 16.59375 35.6875 16.203125 35.6875 
C 15.5 35.59375 15.09375 35.5 15.09375 34.796875 
C 15.09375 34.09375 15.203125 34 17.203125 34 
z
" id="CMR17-51"/>
     </defs>
     <g transform="translate(319.999531 97.523251)scale(0.14 -0.14)">
      <use transform="scale(0.996264)" xlink:href="#CMR17-48"/>
      <use transform="translate(45.690477 0)scale(0.996264)" xlink:href="#CMMI12-58"/>
      <use transform="translate(72.787654 0)scale(0.996264)" xlink:href="#CMR17-51"/>
     </g>
    </g>
   </g>
   <g id="xtick_12">
    <g id="line2d_15">
     <path d="M 309.649656 61.15322 
L 314.265572 62.02676 
" style="fill:none;stroke:#000000;stroke-linecap:square;stroke-width:0.8;"/>
    </g>
    <g id="text_13">
     <!-- $0.4$ -->
     <defs>
      <path d="M 33.59375 64.796875 
C 33.59375 66.890625 33.5 67 31.703125 67 
L 2 19.59375 
L 2 17 
L 27.796875 17 
L 27.796875 7.1875 
C 27.796875 3.59375 27.59375 2.59375 20.59375 2.59375 
L 18.703125 2.59375 
L 18.703125 0 
C 21.90625 0.1875 27.296875 0.1875 30.703125 0.1875 
C 34.09375 0.1875 39.5 0.1875 42.703125 0 
L 42.703125 2.59375 
L 40.796875 2.59375 
C 33.796875 2.59375 33.59375 3.59375 33.59375 7.1875 
L 33.59375 17 
L 43.796875 17 
L 43.796875 19.59375 
L 33.59375 19.59375 
z
M 28.09375 58.171875 
L 28.09375 19.59375 
L 4 19.59375 
z
" id="CMR17-52"/>
     </defs>
     <g transform="translate(321.757566 69.345532)scale(0.14 -0.14)">
      <use transform="scale(0.996264)" xlink:href="#CMR17-48"/>
      <use transform="translate(45.690477 0)scale(0.996264)" xlink:href="#CMMI12-58"/>
      <use transform="translate(72.787654 0)scale(0.996264)" xlink:href="#CMR17-52"/>
     </g>
    </g>
   </g>
  </g>
  <g id="axes_1">
   <g id="Poly3DCollection_1">
    <path clip-path="url(#p1b3e819c7c)" d="M 176.043171 148.541942 
L 176.050954 146.769767 
L 197.892125 151.4904 
L 197.869154 153.268679 
z
" style="fill:#5d0618;fill-opacity:0.8;"/>
    <path clip-path="url(#p1b3e819c7c)" d="M 163.531254 156.760731 
L 163.530392 154.977964 
L 176.050954 146.769767 
L 176.043171 148.541942 
z
" style="fill:#ba0c2f;fill-opacity:0.8;"/>
    <path clip-path="url(#p1b3e819c7c)" d="M 163.531254 156.760731 
L 176.043171 148.541942 
L 197.869154 153.268679 
L 185.492321 161.575092 
z
" style="fill:#74081d;fill-opacity:0.8;"/>
    <path clip-path="url(#p1b3e819c7c)" d="M 163.530392 154.977964 
L 185.506836 159.786168 
L 197.892125 151.4904 
L 176.050954 146.769767 
z
" style="fill:#a30a29;fill-opacity:0.8;"/>
    <path clip-path="url(#p1b3e819c7c)" d="M 185.492321 161.575092 
L 197.869154 153.268679 
L 197.892125 151.4904 
L 185.506836 159.786168 
z
" style="fill:#5d0618;fill-opacity:0.8;"/>
    <path clip-path="url(#p1b3e819c7c)" d="M 163.531254 156.760731 
L 185.492321 161.575092 
L 185.506836 159.786168 
L 163.530392 154.977964 
z
" style="fill:#ba0c2f;fill-opacity:0.8;"/>
   </g>
   <g id="Poly3DCollection_2">
    <path clip-path="url(#p1b3e819c7c)" d="M 107.295467 155.479405 
L 107.252548 153.567482 
L 128.898314 158.361528 
L 128.925223 160.280051 
z
" style="fill:#5d0618;fill-opacity:0.8;"/>
    <path clip-path="url(#p1b3e819c7c)" d="M 94.047909 163.82696 
L 93.994607 161.903584 
L 107.252548 153.567482 
L 107.295467 155.479405 
z
" style="fill:#ba0c2f;fill-opacity:0.8;"/>
    <path clip-path="url(#p1b3e819c7c)" d="M 94.047909 163.82696 
L 107.295467 155.479405 
L 128.925223 160.280051 
L 115.808024 168.717302 
z
" style="fill:#74081d;fill-opacity:0.8;"/>
    <path clip-path="url(#p1b3e819c7c)" d="M 93.994607 161.903584 
L 115.770923 166.787271 
L 128.898314 158.361528 
L 107.252548 153.567482 
z
" style="fill:#a30a29;fill-opacity:0.8;"/>
    <path clip-path="url(#p1b3e819c7c)" d="M 115.808024 168.717302 
L 128.925223 160.280051 
L 128.898314 158.361528 
L 115.770923 166.787271 
z
" style="fill:#5d0618;fill-opacity:0.8;"/>
    <path clip-path="url(#p1b3e819c7c)" d="M 94.047909 163.82696 
L 115.808024 168.717302 
L 115.770923 166.787271 
L 93.994607 161.903584 
z
" style="fill:#ba0c2f;fill-opacity:0.8;"/>
   </g>
   <g id="Poly3DCollection_3">
    <path clip-path="url(#p1b3e819c7c)" d="M 219.927374 158.045711 
L 219.968254 156.150123 
L 242.279269 160.971707 
L 242.221558 162.873844 
z
" style="fill:#5d0618;fill-opacity:0.8;"/>
    <path clip-path="url(#p1b3e819c7c)" d="M 207.689235 166.441155 
L 207.721341 164.534204 
L 219.968254 156.150123 
L 219.927374 158.045711 
z
" style="fill:#ba0c2f;fill-opacity:0.8;"/>
    <path clip-path="url(#p1b3e819c7c)" d="M 207.689235 166.441155 
L 219.927374 158.045711 
L 242.221558 162.873844 
L 230.125818 171.35976 
z
" style="fill:#74081d;fill-opacity:0.8;"/>
    <path clip-path="url(#p1b3e819c7c)" d="M 207.721341 164.534204 
L 230.174971 169.446204 
L 242.279269 160.971707 
L 219.968254 156.150123 
z
" style="fill:#a30a29;fill-opacity:0.8;"/>
    <path clip-path="url(#p1b3e819c7c)" d="M 230.125818 171.35976 
L 242.221558 162.873844 
L 242.279269 160.971707 
L 230.174971 169.446204 
z
" style="fill:#5d0618;fill-opacity:0.8;"/>
    <path clip-path="url(#p1b3e819c7c)" d="M 207.689235 166.441155 
L 230.125818 171.35976 
L 230.174971 169.446204 
L 207.721341 164.534204 
z
" style="fill:#ba0c2f;fill-opacity:0.8;"/>
   </g>
   <g id="Poly3DCollection_4">
    <path clip-path="url(#p1b3e819c7c)" d="M 150.786936 165.13218 
L 150.769743 161.995763 
L 172.89439 166.88934 
L 172.884356 170.036622 
z
" style="fill:#5d0618;fill-opacity:0.8;"/>
    <path clip-path="url(#p1b3e819c7c)" d="M 137.803681 173.66058 
L 137.770211 170.505311 
L 150.769743 161.995763 
L 150.786936 165.13218 
z
" style="fill:#ba0c2f;fill-opacity:0.8;"/>
    <path clip-path="url(#p1b3e819c7c)" d="M 137.803681 173.66058 
L 150.786936 165.13218 
L 172.884356 170.036622 
L 160.038724 178.657658 
z
" style="fill:#74081d;fill-opacity:0.8;"/>
    <path clip-path="url(#p1b3e819c7c)" d="M 137.770211 170.505311 
L 160.032821 175.491434 
L 172.89439 166.88934 
L 150.769743 161.995763 
z
" style="fill:#a30a29;fill-opacity:0.8;"/>
    <path clip-path="url(#p1b3e819c7c)" d="M 160.038724 178.657658 
L 172.884356 170.036622 
L 172.89439 166.88934 
L 160.032821 175.491434 
z
" style="fill:#5d0618;fill-opacity:0.8;"/>
    <path clip-path="url(#p1b3e819c7c)" d="M 137.803681 173.66058 
L 160.038724 178.657658 
L 160.032821 175.491434 
L 137.770211 170.505311 
z
" style="fill:#ba0c2f;fill-opacity:0.8;"/>
   </g>
   <g id="Poly3DCollection_5">
    <path clip-path="url(#p1b3e819c7c)" d="M 120.301787 147.283859 
L 133.073399 139.236207 
L 154.445776 143.864709 
L 141.802296 151.997254 
z
" style="fill:#74081d;fill-opacity:0.8;"/>
    <path clip-path="url(#p1b3e819c7c)" d="M 133.073399 139.236207 
L 131.940411 47.136121 
L 154.074773 51.431345 
L 154.445776 143.864709 
z
" style="fill:#5d0618;fill-opacity:0.8;"/>
    <path clip-path="url(#p1b3e819c7c)" d="M 120.301787 147.283859 
L 118.697265 54.60533 
L 131.940411 47.136121 
L 133.073399 139.236207 
z
" style="fill:#ba0c2f;fill-opacity:0.8;"/>
    <path clip-path="url(#p1b3e819c7c)" d="M 141.802296 151.997254 
L 154.445776 143.864709 
L 154.074773 51.431345 
L 140.969052 58.9822 
z
" style="fill:#5d0618;fill-opacity:0.8;"/>
    <path clip-path="url(#p1b3e819c7c)" d="M 120.301787 147.283859 
L 141.802296 151.997254 
L 140.969052 58.9822 
L 118.697265 54.60533 
z
" style="fill:#ba0c2f;fill-opacity:0.8;"/>
    <path clip-path="url(#p1b3e819c7c)" d="M 118.697265 54.60533 
L 140.969052 58.9822 
L 154.074773 51.431345 
L 131.940411 47.136121 
z
" style="fill:#a30a29;fill-opacity:0.8;"/>
   </g>
   <g id="Poly3DCollection_6">
    <path clip-path="url(#p1b3e819c7c)" d="M 80.552338 172.330793 
L 80.362894 166.609446 
L 102.302956 171.572132 
L 102.443918 177.313369 
z
" style="fill:#5d0618;fill-opacity:0.8;"/>
    <path clip-path="url(#p1b3e819c7c)" d="M 66.801725 180.995333 
L 66.579261 175.239477 
L 80.362894 166.609446 
L 80.552338 172.330793 
z
" style="fill:#ba0c2f;fill-opacity:0.8;"/>
    <path clip-path="url(#p1b3e819c7c)" d="M 66.801725 180.995333 
L 80.552338 172.330793 
L 102.443918 177.313369 
L 88.825868 186.072777 
z
" style="fill:#74081d;fill-opacity:0.8;"/>
    <path clip-path="url(#p1b3e819c7c)" d="M 66.579261 175.239477 
L 88.652469 180.296869 
L 102.302956 171.572132 
L 80.362894 166.609446 
z
" style="fill:#a30a29;fill-opacity:0.8;"/>
    <path clip-path="url(#p1b3e819c7c)" d="M 88.825868 186.072777 
L 102.443918 177.313369 
L 102.302956 171.572132 
L 88.652469 180.296869 
z
" style="fill:#5d0618;fill-opacity:0.8;"/>
    <path clip-path="url(#p1b3e819c7c)" d="M 66.801725 180.995333 
L 88.825868 186.072777 
L 88.652469 180.296869 
L 66.579261 175.239477 
z
" style="fill:#ba0c2f;fill-opacity:0.8;"/>
   </g>
   <g id="Poly3DCollection_7">
    <path clip-path="url(#p1b3e819c7c)" d="M 195.221316 174.99423 
L 195.472542 154.034004 
L 218.241645 158.972045 
L 217.801733 180.005873 
z
" style="fill:#5d0618;fill-opacity:0.8;"/>
    <path clip-path="url(#p1b3e819c7c)" d="M 182.517084 183.709418 
L 195.221316 174.99423 
L 217.801733 180.005873 
L 205.242776 188.816763 
z
" style="fill:#74081d;fill-opacity:0.8;"/>
    <path clip-path="url(#p1b3e819c7c)" d="M 182.517084 183.709418 
L 182.664903 162.621485 
L 195.472542 154.034004 
L 195.221316 174.99423 
z
" style="fill:#ba0c2f;fill-opacity:0.8;"/>
    <path clip-path="url(#p1b3e819c7c)" d="M 205.242776 188.816763 
L 217.801733 180.005873 
L 218.241645 158.972045 
L 205.581737 167.654614 
z
" style="fill:#5d0618;fill-opacity:0.8;"/>
    <path clip-path="url(#p1b3e819c7c)" d="M 182.664903 162.621485 
L 205.581737 167.654614 
L 218.241645 158.972045 
L 195.472542 154.034004 
z
" style="fill:#a30a29;fill-opacity:0.8;"/>
    <path clip-path="url(#p1b3e819c7c)" d="M 182.517084 183.709418 
L 205.242776 188.816763 
L 205.581737 167.654614 
L 182.664903 162.621485 
z
" style="fill:#ba0c2f;fill-opacity:0.8;"/>
   </g>
   <g id="Poly3DCollection_8">
    <path clip-path="url(#p1b3e819c7c)" d="M 124.574705 182.350389 
L 124.428459 173.132715 
L 146.883446 178.192885 
L 146.948641 187.442751 
z
" style="fill:#5d0618;fill-opacity:0.8;"/>
    <path clip-path="url(#p1b3e819c7c)" d="M 111.092966 191.206232 
L 110.895795 181.932705 
L 124.428459 173.132715 
L 124.574705 182.350389 
z
" style="fill:#ba0c2f;fill-opacity:0.8;"/>
    <path clip-path="url(#p1b3e819c7c)" d="M 111.092966 191.206232 
L 124.574705 182.350389 
L 146.948641 187.442751 
L 133.607062 196.396629 
z
" style="fill:#74081d;fill-opacity:0.8;"/>
    <path clip-path="url(#p1b3e819c7c)" d="M 110.895795 181.932705 
L 133.491956 187.090652 
L 146.883446 178.192885 
L 124.428459 173.132715 
z
" style="fill:#a30a29;fill-opacity:0.8;"/>
    <path clip-path="url(#p1b3e819c7c)" d="M 133.607062 196.396629 
L 146.948641 187.442751 
L 146.883446 178.192885 
L 133.491956 187.090652 
z
" style="fill:#5d0618;fill-opacity:0.8;"/>
    <path clip-path="url(#p1b3e819c7c)" d="M 111.092966 191.206232 
L 133.607062 196.396629 
L 133.491956 187.090652 
L 110.895795 181.932705 
z
" style="fill:#ba0c2f;fill-opacity:0.8;"/>
   </g>
   <g id="Poly3DCollection_9">
    <path clip-path="url(#p1b3e819c7c)" d="M 240.629608 185.072437 
L 240.687516 183.140681 
L 263.784974 188.256356 
L 263.709032 190.194832 
z
" style="fill:#5d0618;fill-opacity:0.8;"/>
    <path clip-path="url(#p1b3e819c7c)" d="M 228.219905 193.980616 
L 228.268805 192.037201 
L 240.687516 183.140681 
L 240.629608 185.072437 
z
" style="fill:#ba0c2f;fill-opacity:0.8;"/>
    <path clip-path="url(#p1b3e819c7c)" d="M 228.219905 193.980616 
L 240.629608 185.072437 
L 263.709032 190.194832 
L 251.452667 199.201919 
z
" style="fill:#74081d;fill-opacity:0.8;"/>
    <path clip-path="url(#p1b3e819c7c)" d="M 228.268805 192.037201 
L 251.519843 197.251732 
L 263.784974 188.256356 
L 240.687516 183.140681 
z
" style="fill:#a30a29;fill-opacity:0.8;"/>
    <path clip-path="url(#p1b3e819c7c)" d="M 251.452667 199.201919 
L 263.709032 190.194832 
L 263.784974 188.256356 
L 251.519843 197.251732 
z
" style="fill:#5d0618;fill-opacity:0.8;"/>
    <path clip-path="url(#p1b3e819c7c)" d="M 228.219905 193.980616 
L 251.452667 199.201919 
L 251.519843 197.251732 
L 228.268805 192.037201 
z
" style="fill:#ba0c2f;fill-opacity:0.8;"/>
   </g>
   <g id="Poly3DCollection_10">
    <path clip-path="url(#p1b3e819c7c)" d="M 169.569756 192.591371 
L 169.575838 189.394955 
L 192.477422 194.589626 
L 192.442168 197.797187 
z
" style="fill:#5d0618;fill-opacity:0.8;"/>
    <path clip-path="url(#p1b3e819c7c)" d="M 156.372287 201.644922 
L 156.361547 198.42917 
L 169.575838 189.394955 
L 169.569756 192.591371 
z
" style="fill:#ba0c2f;fill-opacity:0.8;"/>
    <path clip-path="url(#p1b3e819c7c)" d="M 156.372287 201.644922 
L 169.569756 192.591371 
L 192.442168 197.797187 
L 179.392867 206.952084 
z
" style="fill:#74081d;fill-opacity:0.8;"/>
    <path clip-path="url(#p1b3e819c7c)" d="M 156.361547 198.42917 
L 179.411678 203.7251 
L 192.477422 194.589626 
L 169.575838 189.394955 
z
" style="fill:#a30a29;fill-opacity:0.8;"/>
    <path clip-path="url(#p1b3e819c7c)" d="M 179.392867 206.952084 
L 192.442168 197.797187 
L 192.477422 194.589626 
L 179.411678 203.7251 
z
" style="fill:#5d0618;fill-opacity:0.8;"/>
    <path clip-path="url(#p1b3e819c7c)" d="M 156.372287 201.644922 
L 179.392867 206.952084 
L 179.411678 203.7251 
L 156.361547 198.42917 
z
" style="fill:#ba0c2f;fill-opacity:0.8;"/>
   </g>
   <g id="Poly3DCollection_11">
    <path clip-path="url(#p1b3e819c7c)" d="M 97.351151 200.232913 
L 97.19487 194.401749 
L 119.902323 199.672644 
L 120.006668 205.524204 
z
" style="fill:#5d0618;fill-opacity:0.8;"/>
    <path clip-path="url(#p1b3e819c7c)" d="M 83.341659 209.435424 
L 83.151061 203.568876 
L 97.19487 194.401749 
L 97.351151 200.232913 
z
" style="fill:#ba0c2f;fill-opacity:0.8;"/>
    <path clip-path="url(#p1b3e819c7c)" d="M 83.341659 209.435424 
L 97.351151 200.232913 
L 120.006668 205.524204 
L 106.139855 214.830581 
z
" style="fill:#74081d;fill-opacity:0.8;"/>
    <path clip-path="url(#p1b3e819c7c)" d="M 83.151061 203.568876 
L 106.001843 208.94348 
L 119.902323 199.672644 
L 97.19487 194.401749 
z
" style="fill:#a30a29;fill-opacity:0.8;"/>
    <path clip-path="url(#p1b3e819c7c)" d="M 106.139855 214.830581 
L 120.006668 205.524204 
L 119.902323 199.672644 
L 106.001843 208.94348 
z
" style="fill:#5d0618;fill-opacity:0.8;"/>
    <path clip-path="url(#p1b3e819c7c)" d="M 83.341659 209.435424 
L 106.139855 214.830581 
L 106.001843 208.94348 
L 83.151061 203.568876 
z
" style="fill:#ba0c2f;fill-opacity:0.8;"/>
   </g>
   <g id="Poly3DCollection_12">
    <path clip-path="url(#p1b3e819c7c)" d="M 215.570089 203.061157 
L 215.607301 201.220664 
L 239.012472 206.537345 
L 238.957824 208.384262 
z
" style="fill:#5d0618;fill-opacity:0.8;"/>
    <path clip-path="url(#p1b3e819c7c)" d="M 202.673124 212.319112 
L 202.70116 210.467474 
L 215.607301 201.220664 
L 215.570089 203.061157 
z
" style="fill:#ba0c2f;fill-opacity:0.8;"/>
    <path clip-path="url(#p1b3e819c7c)" d="M 202.673124 212.319112 
L 215.570089 203.061157 
L 238.957824 208.384262 
L 226.217474 217.747024 
z
" style="fill:#74081d;fill-opacity:0.8;"/>
    <path clip-path="url(#p1b3e819c7c)" d="M 202.70116 210.467474 
L 226.263183 215.888913 
L 239.012472 206.537345 
L 215.607301 201.220664 
z
" style="fill:#a30a29;fill-opacity:0.8;"/>
    <path clip-path="url(#p1b3e819c7c)" d="M 226.217474 217.747024 
L 238.957824 208.384262 
L 239.012472 206.537345 
L 226.263183 215.888913 
z
" style="fill:#5d0618;fill-opacity:0.8;"/>
    <path clip-path="url(#p1b3e819c7c)" d="M 202.673124 212.319112 
L 226.217474 217.747024 
L 226.263183 215.888913 
L 202.70116 210.467474 
z
" style="fill:#ba0c2f;fill-opacity:0.8;"/>
   </g>
   <g id="Poly3DCollection_13">
    <path clip-path="url(#p1b3e819c7c)" d="M 252.805971 176.33176 
L 264.755513 167.753903 
L 287.533127 172.68673 
L 275.733682 181.358031 
z
" style="fill:#74081d;fill-opacity:0.8;"/>
    <path clip-path="url(#p1b3e819c7c)" d="M 264.755513 167.753903 
L 269.19198 54.699428 
L 293.011011 59.213861 
L 287.533127 172.68673 
z
" style="fill:#5d0618;fill-opacity:0.8;"/>
    <path clip-path="url(#p1b3e819c7c)" d="M 252.805971 176.33176 
L 256.750601 62.551117 
L 269.19198 54.699428 
L 264.755513 167.753903 
z
" style="fill:#ba0c2f;fill-opacity:0.8;"/>
    <path clip-path="url(#p1b3e819c7c)" d="M 275.733682 181.358031 
L 287.533127 172.68673 
L 293.011011 59.213861 
L 280.733976 67.15493 
z
" style="fill:#5d0618;fill-opacity:0.8;"/>
    <path clip-path="url(#p1b3e819c7c)" d="M 252.805971 176.33176 
L 275.733682 181.358031 
L 280.733976 67.15493 
L 256.750601 62.551117 
z
" style="fill:#ba0c2f;fill-opacity:0.8;"/>
    <path clip-path="url(#p1b3e819c7c)" d="M 256.750601 62.551117 
L 280.733976 67.15493 
L 293.011011 59.213861 
L 269.19198 54.699428 
z
" style="fill:#a30a29;fill-opacity:0.8;"/>
   </g>
   <g id="Poly3DCollection_14">
    <path clip-path="url(#p1b3e819c7c)" d="M 142.917358 210.875092 
L 142.900035 208.889327 
L 166.088606 214.293884 
L 166.087555 216.28659 
z
" style="fill:#5d0618;fill-opacity:0.8;"/>
    <path clip-path="url(#p1b3e819c7c)" d="M 129.197359 220.287102 
L 129.168882 218.289296 
L 142.900035 208.889327 
L 142.917358 210.875092 
z
" style="fill:#ba0c2f;fill-opacity:0.8;"/>
    <path clip-path="url(#p1b3e819c7c)" d="M 129.197359 220.287102 
L 142.917358 210.875092 
L 166.087555 216.28659 
L 152.518621 225.806041 
z
" style="fill:#74081d;fill-opacity:0.8;"/>
    <path clip-path="url(#p1b3e819c7c)" d="M 129.168882 218.289296 
L 152.508758 223.801243 
L 166.088606 214.293884 
L 142.900035 208.889327 
z
" style="fill:#a30a29;fill-opacity:0.8;"/>
    <path clip-path="url(#p1b3e819c7c)" d="M 152.518621 225.806041 
L 166.087555 216.28659 
L 166.088606 214.293884 
L 152.508758 223.801243 
z
" style="fill:#5d0618;fill-opacity:0.8;"/>
    <path clip-path="url(#p1b3e819c7c)" d="M 129.197359 220.287102 
L 152.518621 225.806041 
L 152.508758 223.801243 
L 129.168882 218.289296 
z
" style="fill:#ba0c2f;fill-opacity:0.8;"/>
   </g>
   <g id="Poly3DCollection_15">
    <path clip-path="url(#p1b3e819c7c)" d="M 38.505891 198.825112 
L 52.788769 189.825181 
L 74.946566 195.000228 
L 60.798423 204.100604 
z
" style="fill:#74081d;fill-opacity:0.8;"/>
    <path clip-path="url(#p1b3e819c7c)" d="M 52.788769 189.825181 
L 46.933544 57.750519 
L 70.222556 62.427839 
L 74.946566 195.000228 
z
" style="fill:#5d0618;fill-opacity:0.8;"/>
    <path clip-path="url(#p1b3e819c7c)" d="M 38.505891 198.825112 
L 31.836896 65.886594 
L 46.933544 57.750519 
L 52.788769 189.825181 
z
" style="fill:#ba0c2f;fill-opacity:0.8;"/>
    <path clip-path="url(#p1b3e819c7c)" d="M 60.798423 204.100604 
L 74.946566 195.000228 
L 70.222556 62.427839 
L 55.274545 70.659531 
z
" style="fill:#5d0618;fill-opacity:0.8;"/>
    <path clip-path="url(#p1b3e819c7c)" d="M 38.505891 198.825112 
L 60.798423 204.100604 
L 55.274545 70.659531 
L 31.836896 65.886594 
z
" style="fill:#ba0c2f;fill-opacity:0.8;"/>
    <path clip-path="url(#p1b3e819c7c)" d="M 31.836896 65.886594 
L 55.274545 70.659531 
L 70.222556 62.427839 
L 46.933544 57.750519 
z
" style="fill:#a30a29;fill-opacity:0.8;"/>
   </g>
   <g id="Poly3DCollection_16">
    <path clip-path="url(#p1b3e819c7c)" d="M 176.108193 231.388476 
L 189.521694 221.759731 
L 213.224311 227.295577 
L 199.970732 237.035507 
z
" style="fill:#74081d;fill-opacity:0.8;"/>
    <path clip-path="url(#p1b3e819c7c)" d="M 189.521694 221.759731 
L 190.492383 123.959562 
L 215.135807 129.131454 
L 213.224311 227.295577 
z
" style="fill:#5d0618;fill-opacity:0.8;"/>
    <path clip-path="url(#p1b3e819c7c)" d="M 176.108193 231.388476 
L 176.557481 132.95676 
L 190.492383 123.959562 
L 189.521694 221.759731 
z
" style="fill:#ba0c2f;fill-opacity:0.8;"/>
    <path clip-path="url(#p1b3e819c7c)" d="M 199.970732 237.035507 
L 213.224311 227.295577 
L 215.135807 129.131454 
L 201.373869 138.236677 
z
" style="fill:#5d0618;fill-opacity:0.8;"/>
    <path clip-path="url(#p1b3e819c7c)" d="M 176.108193 231.388476 
L 199.970732 237.035507 
L 201.373869 138.236677 
L 176.557481 132.95676 
z
" style="fill:#ba0c2f;fill-opacity:0.8;"/>
    <path clip-path="url(#p1b3e819c7c)" d="M 176.557481 132.95676 
L 201.373869 138.236677 
L 215.135807 129.131454 
L 190.492383 123.959562 
z
" style="fill:#a30a29;fill-opacity:0.8;"/>
   </g>
  </g>
  <g id="patch_6">
   <path d="M 425.945455 262.8 
L 806.4 262.8 
L 806.4 -14.4 
L 425.945455 -14.4 
z
" style="fill:#ffffff;"/>
  </g>
  <g id="pane3d_4">
   <g id="patch_7">
    <path d="M 476.380584 201.548569 
L 585.268665 133.58541 
L 583.455794 3.718968 
L 468.496488 64.782468 
" style="fill:#f2f2f2;opacity:0.5;stroke:#f2f2f2;stroke-linejoin:miter;"/>
   </g>
  </g>
  <g id="pane3d_5">
   <g id="patch_8">
    <path d="M 585.268665 133.58541 
L 761.65712 171.581202 
L 769.037001 37.79869 
L 583.455794 3.718968 
" style="fill:#e6e6e6;opacity:0.5;stroke:#e6e6e6;stroke-linejoin:miter;"/>
   </g>
  </g>
  <g id="pane3d_6">
   <g id="patch_9">
    <path d="M 476.380584 201.548569 
L 661.965072 245.80086 
L 761.65712 171.581202 
L 585.268665 133.58541 
" style="fill:#ececec;opacity:0.5;stroke:#ececec;stroke-linejoin:miter;"/>
   </g>
  </g>
  <g id="axis3d_4">
   <g id="line2d_16">
    <path d="M 476.380584 201.548569 
L 661.965072 245.80086 
" style="fill:none;stroke:#000000;stroke-linecap:square;stroke-width:0.8;"/>
   </g>
   <g id="Line3DCollection_4">
    <path d="M 498.841271 206.90428 
L 606.679397 138.19749 
L 605.9393 7.847789 
" style="fill:none;stroke:#b0b0b0;stroke-width:0.8;"/>
    <path d="M 544.057792 217.686079 
L 649.729469 147.470895 
L 651.182353 16.156123 
" style="fill:none;stroke:#b0b0b0;stroke-width:0.8;"/>
    <path d="M 590.310744 228.715013 
L 693.693551 156.941187 
L 697.435637 24.649974 
" style="fill:none;stroke:#b0b0b0;stroke-width:0.8;"/>
    <path d="M 637.636176 239.999678 
L 738.601063 166.614702 
L 744.733372 33.335625 
" style="fill:none;stroke:#b0b0b0;stroke-width:0.8;"/>
   </g>
   <g id="xtick_13">
    <g id="line2d_17">
     <path d="M 499.770538 206.312217 
L 496.979262 208.09062 
" style="fill:none;stroke:#000000;stroke-linecap:square;stroke-width:0.8;"/>
    </g>
    <g id="text_14">
     <!-- 00 -->
     <g transform="translate(479.875817 237.14703)rotate(-45)scale(0.14 -0.14)">
      <use transform="scale(0.996264)" xlink:href="#CMR17-48"/>
      <use transform="translate(45.690477 0)scale(0.996264)" xlink:href="#CMR17-48"/>
     </g>
    </g>
   </g>
   <g id="xtick_14">
    <g id="line2d_18">
     <path d="M 544.969128 217.080527 
L 542.231671 218.899473 
" style="fill:none;stroke:#000000;stroke-linecap:square;stroke-width:0.8;"/>
    </g>
    <g id="text_15">
     <!-- 01 -->
     <g transform="translate(525.088242 248.103782)rotate(-45)scale(0.14 -0.14)">
      <use transform="scale(0.996264)" xlink:href="#CMR17-48"/>
      <use transform="translate(45.690477 0)scale(0.996264)" xlink:href="#CMR17-49"/>
     </g>
    </g>
   </g>
   <g id="xtick_15">
    <g id="line2d_19">
     <path d="M 591.20308 228.095506 
L 588.522658 229.956397 
" style="fill:none;stroke:#000000;stroke-linecap:square;stroke-width:0.8;"/>
    </g>
    <g id="text_16">
     <!-- 10 -->
     <g transform="translate(571.338855 259.312128)rotate(-45)scale(0.14 -0.14)">
      <use transform="scale(0.996264)" xlink:href="#CMR17-49"/>
      <use transform="translate(45.690477 0)scale(0.996264)" xlink:href="#CMR17-48"/>
     </g>
    </g>
   </g>
   <g id="xtick_16">
    <g id="line2d_20">
     <path d="M 638.50838 239.365727 
L 635.888391 241.270032 
" style="fill:none;stroke:#000000;stroke-linecap:square;stroke-width:0.8;"/>
    </g>
    <g id="text_17">
     <!-- 11 -->
     <g transform="translate(618.66383 270.780834)rotate(-45)scale(0.14 -0.14)">
      <use transform="scale(0.996264)" xlink:href="#CMR17-49"/>
      <use transform="translate(45.690477 0)scale(0.996264)" xlink:href="#CMR17-49"/>
     </g>
    </g>
   </g>
  </g>
  <g id="axis3d_5">
   <g id="line2d_21">
    <path d="M 761.65712 171.581202 
L 661.965072 245.80086 
" style="fill:none;stroke:#000000;stroke-linecap:square;stroke-width:0.8;"/>
   </g>
   <g id="Line3DCollection_5">
    <path d="M 484.000685 56.547028 
L 491.016499 192.413474 
L 675.403872 235.795817 
" style="fill:none;stroke:#b0b0b0;stroke-width:0.8;"/>
    <path d="M 513.777478 40.730342 
L 519.168861 174.842005 
L 701.219492 216.576366 
" style="fill:none;stroke:#b0b0b0;stroke-width:0.8;"/>
    <path d="M 542.401344 25.526062 
L 546.284836 157.917404 
L 726.04244 198.095948 
" style="fill:none;stroke:#b0b0b0;stroke-width:0.8;"/>
    <path d="M 569.937971 10.899296 
L 572.420618 141.604597 
L 749.928893 180.312741 
" style="fill:none;stroke:#b0b0b0;stroke-width:0.8;"/>
   </g>
   <g id="xtick_17">
    <g id="line2d_22">
     <path d="M 673.861052 235.432825 
L 678.492943 236.522608 
" style="fill:none;stroke:#000000;stroke-linecap:square;stroke-width:0.8;"/>
    </g>
    <g id="text_18">
     <!-- 00 -->
     <g transform="translate(689.195824 248.348363)rotate(-337.5)scale(0.14 -0.14)">
      <use transform="scale(0.996264)" xlink:href="#CMR17-48"/>
      <use transform="translate(45.690477 0)scale(0.996264)" xlink:href="#CMR17-48"/>
     </g>
    </g>
   </g>
   <g id="xtick_18">
    <g id="line2d_23">
     <path d="M 699.697534 216.227463 
L 704.266725 217.274932 
" style="fill:none;stroke:#000000;stroke-linecap:square;stroke-width:0.8;"/>
    </g>
    <g id="text_19">
     <!-- 01 -->
     <g transform="translate(714.749375 228.903937)rotate(-337.5)scale(0.14 -0.14)">
      <use transform="scale(0.996264)" xlink:href="#CMR17-48"/>
      <use transform="translate(45.690477 0)scale(0.996264)" xlink:href="#CMR17-49"/>
     </g>
    </g>
   </g>
   <g id="xtick_19">
    <g id="line2d_24">
     <path d="M 724.540896 197.76033 
L 729.048738 198.767901 
" style="fill:none;stroke:#000000;stroke-linecap:square;stroke-width:0.8;"/>
    </g>
    <g id="text_20">
     <!-- 10 -->
     <g transform="translate(739.320787 210.206849)rotate(-337.5)scale(0.14 -0.14)">
      <use transform="scale(0.996264)" xlink:href="#CMR17-49"/>
      <use transform="translate(45.690477 0)scale(0.996264)" xlink:href="#CMR17-48"/>
     </g>
    </g>
   </g>
   <g id="xtick_20">
    <g id="line2d_25">
     <path d="M 748.44732 179.989663 
L 752.895146 180.959573 
" style="fill:none;stroke:#000000;stroke-linecap:square;stroke-width:0.8;"/>
    </g>
    <g id="text_21">
     <!-- 11 -->
     <g transform="translate(762.965613 192.214827)rotate(-337.5)scale(0.14 -0.14)">
      <use transform="scale(0.996264)" xlink:href="#CMR17-49"/>
      <use transform="translate(45.690477 0)scale(0.996264)" xlink:href="#CMR17-49"/>
     </g>
    </g>
   </g>
  </g>
  <g id="axis3d_6">
   <g id="line2d_26">
    <path d="M 761.65712 171.581202 
L 769.037001 37.79869 
" style="fill:none;stroke:#000000;stroke-linecap:square;stroke-width:0.8;"/>
   </g>
   <g id="text_22">
    <!-- Im[$\rho$] -->
    <defs>
     <path d="M 19.703125 60.90625 
C 19.703125 65.390625 20.90625 65.390625 28.09375 65.390625 
L 28.09375 68 
C 24.90625 67.796875 19.796875 67.796875 16.40625 67.796875 
C 13 67.796875 7.90625 67.796875 4.703125 68 
L 4.703125 65.390625 
C 11.90625 65.390625 13.09375 65.390625 13.09375 60.90625 
L 13.09375 7.078125 
C 13.09375 2.59375 11.90625 2.59375 4.703125 2.59375 
L 4.703125 0 
C 7.90625 0.1875 13 0.1875 16.40625 0.1875 
C 19.796875 0.1875 24.90625 0.1875 28.09375 0 
L 28.09375 2.59375 
C 20.90625 2.59375 19.703125 2.59375 19.703125 7.078125 
z
" id="CMR17-73"/>
     <path d="M 67.59375 30.53125 
C 67.59375 35.5625 66.703125 44 54.796875 44 
C 48 44 43.296875 39.375 41.5 33.953125 
L 41.40625 33.953125 
C 40.203125 42.1875 34.296875 44 28.703125 44 
C 20.796875 44 16.703125 37.875 15.203125 33.84375 
L 15.09375 33.84375 
L 15.09375 44 
L 3.296875 42.890625 
L 3.296875 40.28125 
C 9.203125 40.28125 10.09375 39.6875 10.09375 34.859375 
L 10.09375 6.921875 
C 10.09375 3.09375 9.703125 2.59375 3.296875 2.59375 
L 3.296875 0 
C 5.703125 0.1875 10.09375 0.1875 12.703125 0.1875 
C 15.296875 0.1875 19.796875 0.1875 22.203125 0 
L 22.203125 2.59375 
C 15.796875 2.59375 15.40625 3 15.40625 6.921875 
L 15.40625 26.21875 
C 15.40625 35.453125 21 42.390625 28 42.390625 
C 35.40625 42.390625 36.203125 35.765625 36.203125 30.9375 
L 36.203125 6.921875 
C 36.203125 3.09375 35.796875 2.59375 29.40625 2.59375 
L 29.40625 0 
C 31.796875 0.1875 36.203125 0.1875 38.796875 0.1875 
C 41.40625 0.1875 45.90625 0.1875 48.296875 0 
L 48.296875 2.59375 
C 41.90625 2.59375 41.5 3 41.5 6.921875 
L 41.5 26.21875 
C 41.5 35.453125 47.09375 42.390625 54.09375 42.390625 
C 61.5 42.390625 62.296875 35.765625 62.296875 30.9375 
L 62.296875 6.921875 
C 62.296875 3.09375 61.90625 2.59375 55.5 2.59375 
L 55.5 0 
C 57.90625 0.1875 62.296875 0.1875 64.90625 0.1875 
C 67.5 0.1875 72 0.1875 74.40625 0 
L 74.40625 2.59375 
C 68 2.59375 67.59375 3 67.59375 6.921875 
z
" id="CMR17-109"/>
    </defs>
    <g transform="translate(809.026865 118.025317)rotate(-86.842577)scale(0.14 -0.14)">
     <use transform="scale(0.996264)" xlink:href="#CMR17-73"/>
     <use transform="translate(32.638409 0)scale(0.996264)" xlink:href="#CMR17-109"/>
     <use transform="translate(109.557999 0)scale(0.996264)" xlink:href="#CMR17-91"/>
     <use transform="translate(134.429058 0)scale(0.996264)" xlink:href="#CMMI12-26"/>
     <use transform="translate(184.74343 0)scale(0.996264)" xlink:href="#CMR17-93"/>
    </g>
   </g>
   <g id="Line3DCollection_6">
    <path d="M 762.824053 150.427031 
L 584.981481 113.012776 
L 475.135728 179.953945 
" style="fill:none;stroke:#b0b0b0;stroke-width:0.8;"/>
    <path d="M 765.32659 105.061032 
L 584.366271 68.941692 
L 472.463798 133.603737 
" style="fill:none;stroke:#b0b0b0;stroke-width:0.8;"/>
    <path d="M 767.919233 58.061595 
L 583.729867 23.35241 
L 469.692371 85.527549 
" style="fill:none;stroke:#b0b0b0;stroke-width:0.8;"/>
   </g>
   <g id="xtick_21">
    <g id="line2d_27">
     <path d="M 761.339765 150.114768 
L 765.79574 151.05221 
" style="fill:none;stroke:#000000;stroke-linecap:square;stroke-width:0.8;"/>
    </g>
    <g id="text_23">
     <!-- $0.0$ -->
     <g transform="translate(772.759449 158.197666)scale(0.14 -0.14)">
      <use transform="scale(0.996264)" xlink:href="#CMR17-48"/>
      <use transform="translate(45.690477 0)scale(0.996264)" xlink:href="#CMMI12-58"/>
      <use transform="translate(72.787654 0)scale(0.996264)" xlink:href="#CMR17-48"/>
     </g>
    </g>
   </g>
   <g id="xtick_22">
    <g id="line2d_28">
     <path d="M 763.815173 104.759356 
L 768.352647 105.665028 
" style="fill:none;stroke:#000000;stroke-linecap:square;stroke-width:0.8;"/>
    </g>
    <g id="text_24">
     <!-- $0.2$ -->
     <g transform="translate(775.585823 112.896658)scale(0.14 -0.14)">
      <use transform="scale(0.996264)" xlink:href="#CMR17-48"/>
      <use transform="translate(45.690477 0)scale(0.996264)" xlink:href="#CMMI12-58"/>
      <use transform="translate(72.787654 0)scale(0.996264)" xlink:href="#CMR17-50"/>
     </g>
    </g>
   </g>
   <g id="xtick_23">
    <g id="line2d_29">
     <path d="M 766.379679 57.771477 
L 771.001683 58.642461 
" style="fill:none;stroke:#000000;stroke-linecap:square;stroke-width:0.8;"/>
    </g>
    <g id="text_25">
     <!-- $0.4$ -->
     <g transform="translate(778.513738 65.968167)scale(0.14 -0.14)">
      <use transform="scale(0.996264)" xlink:href="#CMR17-48"/>
      <use transform="translate(45.690477 0)scale(0.996264)" xlink:href="#CMMI12-58"/>
      <use transform="translate(72.787654 0)scale(0.996264)" xlink:href="#CMR17-52"/>
     </g>
    </g>
   </g>
  </g>
  <g id="axes_2">
   <g id="Poly3DCollection_17">
    <path clip-path="url(#pe1ca75268e)" d="M 589.373497 119.291259 
L 589.146614 100.848022 
L 610.83661 105.341817 
L 610.910899 123.850524 
z
" style="fill:#065d4c;fill-opacity:0.8;"/>
    <path clip-path="url(#pe1ca75268e)" d="M 576.499859 127.218763 
L 589.373497 119.291259 
L 610.910899 123.850524 
L 598.167379 131.862309 
z
" style="fill:#08745e;fill-opacity:0.8;"/>
    <path clip-path="url(#pe1ca75268e)" d="M 576.499859 127.218763 
L 576.178589 108.661907 
L 589.146614 100.848022 
L 589.373497 119.291259 
z
" style="fill:#0cba97;fill-opacity:0.8;"/>
    <path clip-path="url(#pe1ca75268e)" d="M 598.167379 131.862309 
L 610.910899 123.850524 
L 610.83661 105.341817 
L 598.000552 113.239373 
z
" style="fill:#065d4c;fill-opacity:0.8;"/>
    <path clip-path="url(#pe1ca75268e)" d="M 576.178589 108.661907 
L 598.000552 113.239373 
L 610.83661 105.341817 
L 589.146614 100.848022 
z
" style="fill:#0aa384;fill-opacity:0.8;"/>
    <path clip-path="url(#pe1ca75268e)" d="M 576.499859 127.218763 
L 598.167379 131.862309 
L 598.000552 113.239373 
L 576.178589 108.661907 
z
" style="fill:#0cba97;fill-opacity:0.8;"/>
   </g>
   <g id="Poly3DCollection_18">
    <path clip-path="url(#pe1ca75268e)" d="M 632.67683 128.458165 
L 632.664309 131.309029 
L 654.637989 135.975852 
L 654.674945 133.114958 
z
" style="fill:#0cba97;fill-opacity:0.8;"/>
    <path clip-path="url(#pe1ca75268e)" d="M 620.066939 136.555584 
L 620.068326 139.423853 
L 632.664309 131.309029 
L 632.67683 128.458165 
z
" style="fill:#065d4c;fill-opacity:0.8;"/>
    <path clip-path="url(#pe1ca75268e)" d="M 620.068326 139.423853 
L 642.178933 144.177779 
L 654.637989 135.975852 
L 632.664309 131.309029 
z
" style="fill:#0aa384;fill-opacity:0.8;"/>
    <path clip-path="url(#pe1ca75268e)" d="M 620.066939 136.555584 
L 632.67683 128.458165 
L 654.674945 133.114958 
L 642.202288 141.29939 
z
" style="fill:#08745e;fill-opacity:0.8;"/>
    <path clip-path="url(#pe1ca75268e)" d="M 642.202288 141.29939 
L 654.674945 133.114958 
L 654.637989 135.975852 
L 642.178933 144.177779 
z
" style="fill:#0cba97;fill-opacity:0.8;"/>
    <path clip-path="url(#pe1ca75268e)" d="M 620.066939 136.555584 
L 642.202288 141.29939 
L 642.178933 144.177779 
L 620.068326 139.423853 
z
" style="fill:#065d4c;fill-opacity:0.8;"/>
   </g>
   <g id="Poly3DCollection_19">
    <path clip-path="url(#pe1ca75268e)" d="M 676.90898 137.821693 
L 676.902968 138.100431 
L 699.374263 142.858901 
L 699.38275 142.579177 
z
" style="fill:#0cba97;fill-opacity:0.8;"/>
    <path clip-path="url(#pe1ca75268e)" d="M 664.577253 146.094548 
L 664.572532 146.374996 
L 676.902968 138.100431 
L 676.90898 137.821693 
z
" style="fill:#065d4c;fill-opacity:0.8;"/>
    <path clip-path="url(#pe1ca75268e)" d="M 664.572532 146.374996 
L 687.188519 151.223339 
L 699.374263 142.858901 
L 676.902968 138.100431 
z
" style="fill:#0aa384;fill-opacity:0.8;"/>
    <path clip-path="url(#pe1ca75268e)" d="M 664.577253 146.094548 
L 676.90898 137.821693 
L 699.38275 142.579177 
L 687.195748 150.941896 
z
" style="fill:#08745e;fill-opacity:0.8;"/>
    <path clip-path="url(#pe1ca75268e)" d="M 687.195748 150.941896 
L 699.38275 142.579177 
L 699.374263 142.858901 
L 687.188519 151.223339 
z
" style="fill:#0cba97;fill-opacity:0.8;"/>
    <path clip-path="url(#pe1ca75268e)" d="M 664.577253 146.094548 
L 687.195748 150.941896 
L 687.188519 151.223339 
L 664.572532 146.374996 
z
" style="fill:#065d4c;fill-opacity:0.8;"/>
   </g>
   <g id="Poly3DCollection_20">
    <path clip-path="url(#pe1ca75268e)" d="M 563.387774 135.293102 
L 563.21123 127.428646 
L 585.075851 132.130921 
L 585.186551 140.023288 
z
" style="fill:#065d4c;fill-opacity:0.8;"/>
    <path clip-path="url(#pe1ca75268e)" d="M 550.030552 143.518394 
L 549.811262 135.605501 
L 563.21123 127.428646 
L 563.387774 135.293102 
z
" style="fill:#0cba97;fill-opacity:0.8;"/>
    <path clip-path="url(#pe1ca75268e)" d="M 550.030552 143.518394 
L 563.387774 135.293102 
L 585.186551 140.023288 
L 571.961725 148.337668 
z
" style="fill:#08745e;fill-opacity:0.8;"/>
    <path clip-path="url(#pe1ca75268e)" d="M 549.811262 135.605501 
L 571.809076 140.396612 
L 585.075851 132.130921 
L 563.21123 127.428646 
z
" style="fill:#0aa384;fill-opacity:0.8;"/>
    <path clip-path="url(#pe1ca75268e)" d="M 571.961725 148.337668 
L 585.186551 140.023288 
L 585.075851 132.130921 
L 571.809076 140.396612 
z
" style="fill:#065d4c;fill-opacity:0.8;"/>
    <path clip-path="url(#pe1ca75268e)" d="M 550.030552 143.518394 
L 571.961725 148.337668 
L 571.809076 140.396612 
L 549.811262 135.605501 
z
" style="fill:#0cba97;fill-opacity:0.8;"/>
   </g>
   <g id="Poly3DCollection_21">
    <path clip-path="url(#pe1ca75268e)" d="M 607.22096 144.804605 
L 607.227668 146.028313 
L 629.490928 150.865927 
L 629.494843 149.637886 
z
" style="fill:#0cba97;fill-opacity:0.8;"/>
    <path clip-path="url(#pe1ca75268e)" d="M 594.132201 153.209528 
L 594.145261 154.440756 
L 607.227668 146.028313 
L 607.22096 144.804605 
z
" style="fill:#065d4c;fill-opacity:0.8;"/>
    <path clip-path="url(#pe1ca75268e)" d="M 594.145261 154.440756 
L 616.548222 159.370439 
L 629.490928 150.865927 
L 607.227668 146.028313 
z
" style="fill:#0aa384;fill-opacity:0.8;"/>
    <path clip-path="url(#pe1ca75268e)" d="M 594.132201 153.209528 
L 607.22096 144.804605 
L 629.494843 149.637886 
L 616.545918 158.13484 
z
" style="fill:#08745e;fill-opacity:0.8;"/>
    <path clip-path="url(#pe1ca75268e)" d="M 616.545918 158.13484 
L 629.494843 149.637886 
L 629.490928 150.865927 
L 616.548222 159.370439 
z
" style="fill:#0cba97;fill-opacity:0.8;"/>
    <path clip-path="url(#pe1ca75268e)" d="M 594.132201 153.209528 
L 616.545918 158.13484 
L 616.548222 159.370439 
L 594.145261 154.440756 
z
" style="fill:#065d4c;fill-opacity:0.8;"/>
   </g>
   <g id="Poly3DCollection_22">
    <path clip-path="url(#pe1ca75268e)" d="M 722.100154 147.388237 
L 722.100154 147.388237 
L 745.065175 152.249715 
L 745.065175 152.249715 
z
" style="fill:#065d4c;fill-opacity:0.8;"/>
    <path clip-path="url(#pe1ca75268e)" d="M 710.061769 155.842292 
L 710.061769 155.842292 
L 722.100154 147.388237 
L 722.100154 147.388237 
z
" style="fill:#065d4c;fill-opacity:0.8;"/>
    <path clip-path="url(#pe1ca75268e)" d="M 710.061769 155.842292 
L 722.100154 147.388237 
L 745.065175 152.249715 
L 733.179403 160.796611 
z
" style="fill:#08745e;fill-opacity:0.8;"/>
    <path clip-path="url(#pe1ca75268e)" d="M 710.061769 155.842292 
L 733.179403 160.796611 
L 745.065175 152.249715 
L 722.100154 147.388237 
z
" style="fill:#0aa384;fill-opacity:0.8;"/>
    <path clip-path="url(#pe1ca75268e)" d="M 733.179403 160.796611 
L 745.065175 152.249715 
L 745.065175 152.249715 
L 733.179403 160.796611 
z
" style="fill:#065d4c;fill-opacity:0.8;"/>
    <path clip-path="url(#pe1ca75268e)" d="M 710.061769 155.842292 
L 733.179403 160.796611 
L 733.179403 160.796611 
L 710.061769 155.842292 
z
" style="fill:#065d4c;fill-opacity:0.8;"/>
   </g>
   <g id="Poly3DCollection_23">
    <path clip-path="url(#pe1ca75268e)" d="M 652.012124 154.523983 
L 652.012124 154.523983 
L 674.776815 159.463766 
L 674.776815 159.463766 
z
" style="fill:#065d4c;fill-opacity:0.8;"/>
    <path clip-path="url(#pe1ca75268e)" d="M 639.206902 163.114487 
L 639.206902 163.114487 
L 652.012124 154.523983 
L 652.012124 154.523983 
z
" style="fill:#065d4c;fill-opacity:0.8;"/>
    <path clip-path="url(#pe1ca75268e)" d="M 639.206902 163.114487 
L 662.119267 168.149374 
L 674.776815 159.463766 
L 652.012124 154.523983 
z
" style="fill:#0aa384;fill-opacity:0.8;"/>
    <path clip-path="url(#pe1ca75268e)" d="M 639.206902 163.114487 
L 652.012124 154.523983 
L 674.776815 159.463766 
L 662.119267 168.149374 
z
" style="fill:#08745e;fill-opacity:0.8;"/>
    <path clip-path="url(#pe1ca75268e)" d="M 662.119267 168.149374 
L 674.776815 159.463766 
L 674.776815 159.463766 
L 662.119267 168.149374 
z
" style="fill:#065d4c;fill-opacity:0.8;"/>
    <path clip-path="url(#pe1ca75268e)" d="M 639.206902 163.114487 
L 662.119267 168.149374 
L 662.119267 168.149374 
L 639.206902 163.114487 
z
" style="fill:#065d4c;fill-opacity:0.8;"/>
   </g>
   <g id="Poly3DCollection_24">
    <path clip-path="url(#pe1ca75268e)" d="M 536.421257 151.898911 
L 536.04739 140.607876 
L 558.20774 145.478403 
L 558.485956 156.809815 
z
" style="fill:#065d4c;fill-opacity:0.8;"/>
    <path clip-path="url(#pe1ca75268e)" d="M 522.552683 160.439091 
L 522.113578 149.077992 
L 536.04739 140.607876 
L 536.421257 151.898911 
z
" style="fill:#0cba97;fill-opacity:0.8;"/>
    <path clip-path="url(#pe1ca75268e)" d="M 522.552683 160.439091 
L 536.421257 151.898911 
L 558.485956 156.809815 
L 544.752033 165.444261 
z
" style="fill:#08745e;fill-opacity:0.8;"/>
    <path clip-path="url(#pe1ca75268e)" d="M 522.113578 149.077992 
L 544.409738 154.04243 
L 558.20774 145.478403 
L 536.04739 140.607876 
z
" style="fill:#0aa384;fill-opacity:0.8;"/>
    <path clip-path="url(#pe1ca75268e)" d="M 544.752033 165.444261 
L 558.485956 156.809815 
L 558.20774 145.478403 
L 544.409738 154.04243 
z
" style="fill:#065d4c;fill-opacity:0.8;"/>
    <path clip-path="url(#pe1ca75268e)" d="M 522.552683 160.439091 
L 544.752033 165.444261 
L 544.409738 154.04243 
L 522.113578 149.077992 
z
" style="fill:#0cba97;fill-opacity:0.8;"/>
   </g>
   <g id="Poly3DCollection_25">
    <path clip-path="url(#pe1ca75268e)" d="M 580.793712 161.774815 
L 580.793712 161.774815 
L 603.348564 166.79481 
L 603.348564 166.79481 
z
" style="fill:#065d4c;fill-opacity:0.8;"/>
    <path clip-path="url(#pe1ca75268e)" d="M 567.198279 170.505098 
L 567.198279 170.505098 
L 580.793712 161.774815 
L 580.793712 161.774815 
z
" style="fill:#065d4c;fill-opacity:0.8;"/>
    <path clip-path="url(#pe1ca75268e)" d="M 567.198279 170.505098 
L 580.793712 161.774815 
L 603.348564 166.79481 
L 589.895562 175.622534 
z
" style="fill:#08745e;fill-opacity:0.8;"/>
    <path clip-path="url(#pe1ca75268e)" d="M 567.198279 170.505098 
L 589.895562 175.622534 
L 603.348564 166.79481 
L 580.793712 161.774815 
z
" style="fill:#0aa384;fill-opacity:0.8;"/>
    <path clip-path="url(#pe1ca75268e)" d="M 589.895562 175.622534 
L 603.348564 166.79481 
L 603.348564 166.79481 
L 589.895562 175.622534 
z
" style="fill:#065d4c;fill-opacity:0.8;"/>
    <path clip-path="url(#pe1ca75268e)" d="M 567.198279 170.505098 
L 589.895562 175.622534 
L 589.895562 175.622534 
L 567.198279 170.505098 
z
" style="fill:#065d4c;fill-opacity:0.8;"/>
   </g>
   <g id="Poly3DCollection_26">
    <path clip-path="url(#pe1ca75268e)" d="M 697.793016 164.458125 
L 697.801537 164.173878 
L 721.076094 169.222709 
L 721.064919 169.50797 
z
" style="fill:#065d4c;fill-opacity:0.8;"/>
    <path clip-path="url(#pe1ca75268e)" d="M 685.287219 173.240425 
L 685.294415 172.954419 
L 697.801537 164.173878 
L 697.793016 164.458125 
z
" style="fill:#0cba97;fill-opacity:0.8;"/>
    <path clip-path="url(#pe1ca75268e)" d="M 685.287219 173.240425 
L 697.793016 164.458125 
L 721.064919 169.50797 
L 708.715058 178.388585 
z
" style="fill:#08745e;fill-opacity:0.8;"/>
    <path clip-path="url(#pe1ca75268e)" d="M 685.294415 172.954419 
L 708.724945 178.101557 
L 721.076094 169.222709 
L 697.801537 164.173878 
z
" style="fill:#0aa384;fill-opacity:0.8;"/>
    <path clip-path="url(#pe1ca75268e)" d="M 708.715058 178.388585 
L 721.064919 169.50797 
L 721.076094 169.222709 
L 708.724945 178.101557 
z
" style="fill:#065d4c;fill-opacity:0.8;"/>
    <path clip-path="url(#pe1ca75268e)" d="M 685.287219 173.240425 
L 708.715058 178.388585 
L 708.724945 178.101557 
L 685.294415 172.954419 
z
" style="fill:#0cba97;fill-opacity:0.8;"/>
   </g>
   <g id="Poly3DCollection_27">
    <path clip-path="url(#pe1ca75268e)" d="M 508.41735 169.143538 
L 508.41735 169.143538 
L 530.752466 174.245716 
L 530.752466 174.245716 
z
" style="fill:#065d4c;fill-opacity:0.8;"/>
    <path clip-path="url(#pe1ca75268e)" d="M 494.007488 178.01704 
L 494.007488 178.01704 
L 508.41735 169.143538 
L 508.41735 169.143538 
z
" style="fill:#065d4c;fill-opacity:0.8;"/>
    <path clip-path="url(#pe1ca75268e)" d="M 494.007488 178.01704 
L 516.479473 183.219073 
L 530.752466 174.245716 
L 508.41735 169.143538 
z
" style="fill:#0aa384;fill-opacity:0.8;"/>
    <path clip-path="url(#pe1ca75268e)" d="M 494.007488 178.01704 
L 508.41735 169.143538 
L 530.752466 174.245716 
L 516.479473 183.219073 
z
" style="fill:#08745e;fill-opacity:0.8;"/>
    <path clip-path="url(#pe1ca75268e)" d="M 516.479473 183.219073 
L 530.752466 174.245716 
L 530.752466 174.245716 
L 516.479473 183.219073 
z
" style="fill:#065d4c;fill-opacity:0.8;"/>
    <path clip-path="url(#pe1ca75268e)" d="M 494.007488 178.01704 
L 516.479473 183.219073 
L 516.479473 183.219073 
L 494.007488 178.01704 
z
" style="fill:#065d4c;fill-opacity:0.8;"/>
   </g>
   <g id="Poly3DCollection_28">
    <path clip-path="url(#pe1ca75268e)" d="M 626.154639 171.87072 
L 626.157016 170.621843 
L 649.229934 175.750143 
L 649.216159 177.003484 
z
" style="fill:#065d4c;fill-opacity:0.8;"/>
    <path clip-path="url(#pe1ca75268e)" d="M 612.848117 180.797526 
L 612.843921 179.540903 
L 626.157016 170.621843 
L 626.154639 171.87072 
z
" style="fill:#0cba97;fill-opacity:0.8;"/>
    <path clip-path="url(#pe1ca75268e)" d="M 612.848117 180.797526 
L 626.154639 171.87072 
L 649.216159 177.003484 
L 636.060277 186.031049 
z
" style="fill:#08745e;fill-opacity:0.8;"/>
    <path clip-path="url(#pe1ca75268e)" d="M 612.843921 179.540903 
L 636.067628 184.769925 
L 649.229934 175.750143 
L 626.157016 170.621843 
z
" style="fill:#0aa384;fill-opacity:0.8;"/>
    <path clip-path="url(#pe1ca75268e)" d="M 636.060277 186.031049 
L 649.216159 177.003484 
L 649.229934 175.750143 
L 636.067628 184.769925 
z
" style="fill:#065d4c;fill-opacity:0.8;"/>
    <path clip-path="url(#pe1ca75268e)" d="M 612.848117 180.797526 
L 636.060277 186.031049 
L 636.067628 184.769925 
L 612.843921 179.540903 
z
" style="fill:#0cba97;fill-opacity:0.8;"/>
   </g>
   <g id="Poly3DCollection_29">
    <path clip-path="url(#pe1ca75268e)" d="M 553.338403 179.405191 
L 553.644217 190.815744 
L 576.383607 196.074021 
L 576.179411 184.622934 
z
" style="fill:#0cba97;fill-opacity:0.8;"/>
    <path clip-path="url(#pe1ca75268e)" d="M 539.206295 188.480099 
L 539.579298 199.960979 
L 553.644217 190.815744 
L 553.338403 179.405191 
z
" style="fill:#065d4c;fill-opacity:0.8;"/>
    <path clip-path="url(#pe1ca75268e)" d="M 539.579298 199.960979 
L 562.462419 205.322865 
L 576.383607 196.074021 
L 553.644217 190.815744 
z
" style="fill:#0aa384;fill-opacity:0.8;"/>
    <path clip-path="url(#pe1ca75268e)" d="M 539.206295 188.480099 
L 553.338403 179.405191 
L 576.179411 184.622934 
L 562.192314 193.801126 
z
" style="fill:#08745e;fill-opacity:0.8;"/>
    <path clip-path="url(#pe1ca75268e)" d="M 562.192314 193.801126 
L 576.179411 184.622934 
L 576.383607 196.074021 
L 562.462419 205.322865 
z
" style="fill:#0cba97;fill-opacity:0.8;"/>
    <path clip-path="url(#pe1ca75268e)" d="M 539.206295 188.480099 
L 562.192314 193.801126 
L 562.462419 205.322865 
L 539.579298 199.960979 
z
" style="fill:#065d4c;fill-opacity:0.8;"/>
   </g>
   <g id="Poly3DCollection_30">
    <path clip-path="url(#pe1ca75268e)" d="M 672.537439 182.194062 
L 672.597492 179.223845 
L 696.211094 184.462567 
L 696.122894 187.443438 
z
" style="fill:#065d4c;fill-opacity:0.8;"/>
    <path clip-path="url(#pe1ca75268e)" d="M 659.536468 191.324102 
L 659.581721 188.3354 
L 672.597492 179.223845 
L 672.537439 182.194062 
z
" style="fill:#0cba97;fill-opacity:0.8;"/>
    <path clip-path="url(#pe1ca75268e)" d="M 659.536468 191.324102 
L 672.537439 182.194062 
L 696.122894 187.443438 
L 683.281224 196.677707 
z
" style="fill:#08745e;fill-opacity:0.8;"/>
    <path clip-path="url(#pe1ca75268e)" d="M 659.581721 188.3354 
L 683.355008 193.678264 
L 696.211094 184.462567 
L 672.597492 179.223845 
z
" style="fill:#0aa384;fill-opacity:0.8;"/>
    <path clip-path="url(#pe1ca75268e)" d="M 683.281224 196.677707 
L 696.122894 187.443438 
L 696.211094 184.462567 
L 683.355008 193.678264 
z
" style="fill:#065d4c;fill-opacity:0.8;"/>
    <path clip-path="url(#pe1ca75268e)" d="M 659.536468 191.324102 
L 683.281224 196.677707 
L 683.355008 193.678264 
L 659.581721 188.3354 
z
" style="fill:#0cba97;fill-opacity:0.8;"/>
   </g>
   <g id="Poly3DCollection_31">
    <path clip-path="url(#pe1ca75268e)" d="M 599.279834 189.899937 
L 599.35071 198.024631 
L 622.639815 203.390895 
L 622.644117 195.237215 
z
" style="fill:#0cba97;fill-opacity:0.8;"/>
    <path clip-path="url(#pe1ca75268e)" d="M 585.441988 199.183186 
L 585.558518 207.358169 
L 599.35071 198.024631 
L 599.279834 189.899937 
z
" style="fill:#065d4c;fill-opacity:0.8;"/>
    <path clip-path="url(#pe1ca75268e)" d="M 585.558518 207.358169 
L 609.000244 212.831533 
L 622.639815 203.390895 
L 599.35071 198.024631 
z
" style="fill:#0aa384;fill-opacity:0.8;"/>
    <path clip-path="url(#pe1ca75268e)" d="M 585.441988 199.183186 
L 599.279834 189.899937 
L 622.644117 195.237215 
L 608.959881 204.627336 
z
" style="fill:#08745e;fill-opacity:0.8;"/>
    <path clip-path="url(#pe1ca75268e)" d="M 608.959881 204.627336 
L 622.644117 195.237215 
L 622.639815 203.390895 
L 609.000244 212.831533 
z
" style="fill:#0cba97;fill-opacity:0.8;"/>
    <path clip-path="url(#pe1ca75268e)" d="M 585.441988 199.183186 
L 608.959881 204.627336 
L 609.000244 212.831533 
L 585.558518 207.358169 
z
" style="fill:#065d4c;fill-opacity:0.8;"/>
   </g>
   <g id="Poly3DCollection_32">
    <path clip-path="url(#pe1ca75268e)" d="M 646.276808 200.635808 
L 646.085638 219.896865 
L 669.806167 225.42619 
L 670.182558 206.096777 
z
" style="fill:#0cba97;fill-opacity:0.8;"/>
    <path clip-path="url(#pe1ca75268e)" d="M 632.662203 229.514298 
L 656.542897 235.154762 
L 669.806167 225.42619 
L 646.085638 219.896865 
z
" style="fill:#0aa384;fill-opacity:0.8;"/>
    <path clip-path="url(#pe1ca75268e)" d="M 632.75066 210.134657 
L 632.662203 229.514298 
L 646.085638 219.896865 
L 646.276808 200.635808 
z
" style="fill:#065d4c;fill-opacity:0.8;"/>
    <path clip-path="url(#pe1ca75268e)" d="M 656.819104 215.706254 
L 670.182558 206.096777 
L 669.806167 225.42619 
L 656.542897 235.154762 
z
" style="fill:#0cba97;fill-opacity:0.8;"/>
    <path clip-path="url(#pe1ca75268e)" d="M 632.75066 210.134657 
L 646.276808 200.635808 
L 670.182558 206.096777 
L 656.819104 215.706254 
z
" style="fill:#08745e;fill-opacity:0.8;"/>
    <path clip-path="url(#pe1ca75268e)" d="M 632.75066 210.134657 
L 656.819104 215.706254 
L 656.542897 235.154762 
L 632.662203 229.514298 
z
" style="fill:#065d4c;fill-opacity:0.8;"/>
   </g>
   <g id="Poly3DCollection_33">
    <path clip-path="url(#pe1ca75268e)" d="M 481.075385 179.344328 
L 660.588769 221.095074 
L 757.250474 150.999076 
L 586.354935 114.976158 
z
" style="fill-opacity:0.2;"/>
   </g>
  </g>
 </g>
 <defs>
  <clipPath id="p1b3e819c7c">
   <rect height="277.2" width="380.454545" x="-30.6" y="-14.4"/>
  </clipPath>
  <clipPath id="pe1ca75268e">
   <rect height="277.2" width="380.454545" x="425.945455" y="-14.4"/>
  </clipPath>
 </defs>
</svg>
