<?xml version="1.0" encoding="utf-8" standalone="no"?>
<!DOCTYPE svg PUBLIC "-//W3C//DTD SVG 1.1//EN"
  "http://www.w3.org/Graphics/SVG/1.1/DTD/svg11.dtd">
<!-- Created with matplotlib (https://matplotlib.org/) -->
<svg height="302.4pt" version="1.1" viewBox="0 0 820.8 302.4" width="820.8pt" xmlns="http://www.w3.org/2000/svg" xmlns:xlink="http://www.w3.org/1999/xlink">
 <defs>
  <style type="text/css">
*{stroke-linecap:butt;stroke-linejoin:round;}
  </style>
 </defs>
 <g id="figure_1">
  <g id="patch_1">
   <path d="M 0 302.4 
L 820.8 302.4 
L 820.8 0 
L 0 0 
z
" style="fill:#ffffff;"/>
  </g>
  <g id="patch_2">
   <path d="M -30.6 262.8 
L 349.854545 262.8 
L 349.854545 -14.4 
L -30.6 -14.4 
z
" style="fill:#ffffff;"/>
  </g>
  <g id="pane3d_1">
   <g id="patch_3">
    <path d="M 19.835129 201.548569 
L 128.723211 133.58541 
L 126.910339 3.718968 
L 11.951034 64.782468 
" style="fill:#f2f2f2;opacity:0.5;stroke:#f2f2f2;stroke-linejoin:miter;"/>
   </g>
  </g>
  <g id="pane3d_2">
   <g id="patch_4">
    <path d="M 128.723211 133.58541 
L 305.111665 171.581202 
L 312.491547 37.79869 
L 126.910339 3.718968 
" style="fill:#e6e6e6;opacity:0.5;stroke:#e6e6e6;stroke-linejoin:miter;"/>
   </g>
  </g>
  <g id="pane3d_3">
   <g id="patch_5">
    <path d="M 19.835129 201.548569 
L 205.419617 245.80086 
L 305.111665 171.581202 
L 128.723211 133.58541 
" style="fill:#ececec;opacity:0.5;stroke:#ececec;stroke-linejoin:miter;"/>
   </g>
  </g>
  <g id="axis3d_1">
   <g id="line2d_1">
    <path d="M 19.835129 201.548569 
L 205.419617 245.80086 
" style="fill:none;stroke:#000000;stroke-linecap:square;stroke-width:0.8;"/>
   </g>
   <g id="Line3DCollection_1">
    <path d="M 42.295817 206.90428 
L 150.133942 138.19749 
L 149.393845 7.847789 
" style="fill:none;stroke:#b0b0b0;stroke-width:0.8;"/>
    <path d="M 87.512337 217.686079 
L 193.184014 147.470895 
L 194.636898 16.156123 
" style="fill:none;stroke:#b0b0b0;stroke-width:0.8;"/>
    <path d="M 133.765289 228.715013 
L 237.148096 156.941187 
L 240.890183 24.649974 
" style="fill:none;stroke:#b0b0b0;stroke-width:0.8;"/>
    <path d="M 181.090721 239.999678 
L 282.055608 166.614702 
L 288.187917 33.335625 
" style="fill:none;stroke:#b0b0b0;stroke-width:0.8;"/>
   </g>
   <g id="xtick_1">
    <g id="line2d_2">
     <path d="M 43.225084 206.312217 
L 40.433807 208.09062 
" style="fill:none;stroke:#000000;stroke-linecap:square;stroke-width:0.8;"/>
    </g>
    <g id="text_1">
     <!-- 00 -->
     <defs>
      <path d="M 42 31.84375 
C 42 37.96875 41.90625 48.421875 37.703125 56.453125 
C 34 63.484375 28.09375 66 22.90625 66 
C 18.09375 66 12 63.78125 8.203125 56.5625 
C 4.203125 49.015625 3.796875 39.671875 3.796875 31.84375 
C 3.796875 26.109375 3.90625 17.375 7 9.734375 
C 11.296875 -0.609375 19 -2 22.90625 -2 
C 27.5 -2 34.5 -0.109375 38.59375 9.4375 
C 41.59375 16.375 42 24.5 42 31.84375 
z
M 22.90625 -0.40625 
C 16.5 -0.40625 12.703125 5.125 11.296875 12.75 
C 10.203125 18.6875 10.203125 27.328125 10.203125 32.953125 
C 10.203125 40.6875 10.203125 47.109375 11.5 53.234375 
C 13.40625 61.78125 19 64.390625 22.90625 64.390625 
C 27 64.390625 32.296875 61.671875 34.203125 53.4375 
C 35.5 47.71875 35.59375 40.984375 35.59375 32.953125 
C 35.59375 26.421875 35.59375 18.375 34.40625 12.453125 
C 32.296875 1.5 26.40625 -0.40625 22.90625 -0.40625 
z
" id="CMR17-48"/>
     </defs>
     <g transform="translate(23.330362 237.14703)rotate(-45)scale(0.14 -0.14)">
      <use transform="scale(0.996264)" xlink:href="#CMR17-48"/>
      <use transform="translate(45.690477 0)scale(0.996264)" xlink:href="#CMR17-48"/>
     </g>
    </g>
   </g>
   <g id="xtick_2">
    <g id="line2d_3">
     <path d="M 88.423674 217.080527 
L 85.686217 218.899473 
" style="fill:none;stroke:#000000;stroke-linecap:square;stroke-width:0.8;"/>
    </g>
    <g id="text_2">
     <!-- 01 -->
     <defs>
      <path d="M 26.59375 63.796875 
C 26.59375 65.890625 26.5 66 25.09375 66 
C 21.203125 61.359375 15.296875 59.890625 9.703125 59.6875 
C 9.40625 59.6875 8.90625 59.6875 8.796875 59.5 
C 8.703125 59.296875 8.703125 59.09375 8.703125 57 
C 11.796875 57 17 57.59375 21 59.984375 
L 21 7.296875 
C 21 3.796875 20.796875 2.59375 12.203125 2.59375 
L 9.203125 2.59375 
L 9.203125 0 
C 14 0.09375 19 0.1875 23.796875 0.1875 
C 28.59375 0.1875 33.59375 0.09375 38.40625 0 
L 38.40625 2.59375 
L 35.40625 2.59375 
C 26.796875 2.59375 26.59375 3.6875 26.59375 7.296875 
z
" id="CMR17-49"/>
     </defs>
     <g transform="translate(68.542787 248.103782)rotate(-45)scale(0.14 -0.14)">
      <use transform="scale(0.996264)" xlink:href="#CMR17-48"/>
      <use transform="translate(45.690477 0)scale(0.996264)" xlink:href="#CMR17-49"/>
     </g>
    </g>
   </g>
   <g id="xtick_3">
    <g id="line2d_4">
     <path d="M 134.657625 228.095506 
L 131.977203 229.956397 
" style="fill:none;stroke:#000000;stroke-linecap:square;stroke-width:0.8;"/>
    </g>
    <g id="text_3">
     <!-- 10 -->
     <g transform="translate(114.7934 259.312128)rotate(-45)scale(0.14 -0.14)">
      <use transform="scale(0.996264)" xlink:href="#CMR17-49"/>
      <use transform="translate(45.690477 0)scale(0.996264)" xlink:href="#CMR17-48"/>
     </g>
    </g>
   </g>
   <g id="xtick_4">
    <g id="line2d_5">
     <path d="M 181.962926 239.365727 
L 179.342936 241.270032 
" style="fill:none;stroke:#000000;stroke-linecap:square;stroke-width:0.8;"/>
    </g>
    <g id="text_4">
     <!-- 11 -->
     <g transform="translate(162.118375 270.780834)rotate(-45)scale(0.14 -0.14)">
      <use transform="scale(0.996264)" xlink:href="#CMR17-49"/>
      <use transform="translate(45.690477 0)scale(0.996264)" xlink:href="#CMR17-49"/>
     </g>
    </g>
   </g>
  </g>
  <g id="axis3d_2">
   <g id="line2d_6">
    <path d="M 305.111665 171.581202 
L 205.419617 245.80086 
" style="fill:none;stroke:#000000;stroke-linecap:square;stroke-width:0.8;"/>
   </g>
   <g id="Line3DCollection_2">
    <path d="M 27.455231 56.547028 
L 34.471044 192.413474 
L 218.858418 235.795817 
" style="fill:none;stroke:#b0b0b0;stroke-width:0.8;"/>
    <path d="M 57.232024 40.730342 
L 62.623407 174.842005 
L 244.674037 216.576366 
" style="fill:none;stroke:#b0b0b0;stroke-width:0.8;"/>
    <path d="M 85.85589 25.526062 
L 89.739382 157.917404 
L 269.496985 198.095948 
" style="fill:none;stroke:#b0b0b0;stroke-width:0.8;"/>
    <path d="M 113.392516 10.899296 
L 115.875164 141.604597 
L 293.383438 180.312741 
" style="fill:none;stroke:#b0b0b0;stroke-width:0.8;"/>
   </g>
   <g id="xtick_5">
    <g id="line2d_7">
     <path d="M 217.315598 235.432825 
L 221.947489 236.522608 
" style="fill:none;stroke:#000000;stroke-linecap:square;stroke-width:0.8;"/>
    </g>
    <g id="text_5">
     <!-- 00 -->
     <g transform="translate(232.650369 248.348363)rotate(-337.5)scale(0.14 -0.14)">
      <use transform="scale(0.996264)" xlink:href="#CMR17-48"/>
      <use transform="translate(45.690477 0)scale(0.996264)" xlink:href="#CMR17-48"/>
     </g>
    </g>
   </g>
   <g id="xtick_6">
    <g id="line2d_8">
     <path d="M 243.15208 216.227463 
L 247.72127 217.274932 
" style="fill:none;stroke:#000000;stroke-linecap:square;stroke-width:0.8;"/>
    </g>
    <g id="text_6">
     <!-- 01 -->
     <g transform="translate(258.203921 228.903937)rotate(-337.5)scale(0.14 -0.14)">
      <use transform="scale(0.996264)" xlink:href="#CMR17-48"/>
      <use transform="translate(45.690477 0)scale(0.996264)" xlink:href="#CMR17-49"/>
     </g>
    </g>
   </g>
   <g id="xtick_7">
    <g id="line2d_9">
     <path d="M 267.995442 197.76033 
L 272.503283 198.767901 
" style="fill:none;stroke:#000000;stroke-linecap:square;stroke-width:0.8;"/>
    </g>
    <g id="text_7">
     <!-- 10 -->
     <g transform="translate(282.775332 210.206849)rotate(-337.5)scale(0.14 -0.14)">
      <use transform="scale(0.996264)" xlink:href="#CMR17-49"/>
      <use transform="translate(45.690477 0)scale(0.996264)" xlink:href="#CMR17-48"/>
     </g>
    </g>
   </g>
   <g id="xtick_8">
    <g id="line2d_10">
     <path d="M 291.901865 179.989663 
L 296.349691 180.959573 
" style="fill:none;stroke:#000000;stroke-linecap:square;stroke-width:0.8;"/>
    </g>
    <g id="text_8">
     <!-- 11 -->
     <g transform="translate(306.420159 192.214827)rotate(-337.5)scale(0.14 -0.14)">
      <use transform="scale(0.996264)" xlink:href="#CMR17-49"/>
      <use transform="translate(45.690477 0)scale(0.996264)" xlink:href="#CMR17-49"/>
     </g>
    </g>
   </g>
  </g>
  <g id="axis3d_3">
   <g id="line2d_11">
    <path d="M 305.111665 171.581202 
L 312.491547 37.79869 
" style="fill:none;stroke:#000000;stroke-linecap:square;stroke-width:0.8;"/>
   </g>
   <g id="text_9">
    <!-- Re[$\rho$] -->
    <defs>
     <path d="M 39.203125 33.6875 
C 48.703125 35.59375 56.703125 42.015625 56.703125 50.046875 
C 56.703125 59.46875 46.09375 68 32.09375 68 
L 5.203125 68 
L 5.203125 65.390625 
C 12.09375 65.390625 13.203125 65.390625 13.203125 60.875 
L 13.203125 6.6875 
C 13.203125 2.1875 12.09375 2.1875 5.203125 2.1875 
L 5.203125 -0.40625 
C 8.09375 -0.203125 13.296875 -0.203125 16.40625 -0.203125 
C 19.5 -0.203125 24.703125 -0.203125 27.59375 -0.40625 
L 27.59375 2.1875 
C 20.703125 2.1875 19.59375 2.1875 19.59375 6.6875 
L 19.59375 33 
L 31.296875 33 
C 37 33 40.203125 30.6875 41.59375 29.390625 
C 45.59375 25.5 45.59375 22.796875 45.59375 16 
C 45.59375 9.296875 45.59375 5.890625 48.59375 2.5 
C 52.40625 -1.609375 57.5 -2 59.703125 -2 
C 67.09375 -2 68.203125 6.296875 68.203125 8 
C 68.203125 8.59375 68.203125 9.296875 67.296875 9.296875 
C 66.5 9.296875 66.40625 8.6875 66.40625 8.296875 
C 65.90625 1.796875 63 -0.40625 59.90625 -0.40625 
C 54.40625 -0.40625 53.796875 5.890625 53.203125 12 
C 52.90625 14.09375 52.703125 15.59375 52.5 17.796875 
C 51.90625 22.796875 51.09375 30.09375 39.203125 33.6875 
z
M 31 34.59375 
L 19.59375 34.59375 
L 19.59375 61.484375 
C 19.59375 64.890625 19.796875 65.390625 23.796875 65.390625 
L 31.09375 65.390625 
C 39.40625 65.390625 49.09375 62.484375 49.09375 50.046875 
C 49.09375 37.09375 38.5 34.59375 31 34.59375 
z
" id="CMR17-82"/>
     <path d="M 38.09375 23.484375 
C 38.5 23.890625 38.5 24.09375 38.5 25.09375 
C 38.5 35.171875 33.09375 44 21.703125 44 
C 11.09375 44 2.703125 33.984375 2.703125 21.78125 
C 2.703125 8.65625 12.203125 -1 22.796875 -1 
C 34 -1 38.40625 9.671875 38.40625 11.796875 
C 38.40625 12.5 37.796875 12.5 37.59375 12.5 
C 36.90625 12.5 36.796875 12.296875 36.40625 11.078125 
C 34.203125 4.21875 28.703125 0.796875 23.5 0.796875 
C 19.203125 0.796875 14.90625 3.21875 12.203125 7.65625 
C 9.09375 12.796875 9.09375 18.75 9.09375 23.484375 
z
M 9.203125 25 
C 9.90625 39.234375 17.59375 42.390625 21.59375 42.390625 
C 28.40625 42.390625 33 36.0625 33.09375 25 
z
" id="CMR17-101"/>
     <path d="M 23.5 -25 
L 23.5 -21.5 
L 14.09375 -21.5 
L 14.09375 71.484375 
L 23.5 71.484375 
L 23.5 75 
L 10.59375 75 
L 10.59375 -25 
z
" id="CMR17-91"/>
     <path d="M 3.09375 -16.953125 
C 3 -17.4375 2.796875 -18.03125 2.796875 -18.609375 
C 2.796875 -20.109375 4 -21.109375 5.5 -21.109375 
C 7 -21.109375 8.40625 -20.109375 9 -18.71875 
C 9.40625 -17.828125 12.203125 -6.09375 15.40625 6.078125 
C 17.40625 1.09375 21.09375 -1 25 -1 
C 36.296875 -1 49.09375 12.96875 49.09375 28.03125 
C 49.09375 38.703125 42.59375 44 35.703125 44 
C 26.90625 44 16.203125 34.90625 12.90625 21.640625 
z
M 24.90625 1 
C 18.09375 1 16.40625 8.875 16.40625 10.078125 
C 16.40625 10.671875 18.90625 20.140625 19.203125 21.640625 
C 24.296875 41.5 34.09375 41.984375 35.59375 41.984375 
C 40.09375 41.984375 42.59375 37.90625 42.59375 32.015625 
C 42.59375 26.9375 39.90625 17.046875 38.203125 12.859375 
C 35.203125 5.984375 30 1 24.90625 1 
z
" id="CMMI12-26"/>
     <path d="M 14.296875 75 
L 1.40625 75 
L 1.40625 71.484375 
L 10.796875 71.484375 
L 10.796875 -21.5 
L 1.40625 -21.5 
L 1.40625 -25 
L 14.296875 -25 
z
" id="CMR17-93"/>
    </defs>
    <g transform="translate(352.486567 117.931831)rotate(-86.842577)scale(0.14 -0.14)">
     <use transform="scale(0.996264)" xlink:href="#CMR17-82"/>
     <use transform="translate(67.791102 0)scale(0.996264)" xlink:href="#CMR17-101"/>
     <use transform="translate(108.276762 0)scale(0.996264)" xlink:href="#CMR17-91"/>
     <use transform="translate(133.147821 0)scale(0.996264)" xlink:href="#CMMI12-26"/>
     <use transform="translate(183.462194 0)scale(0.996264)" xlink:href="#CMR17-93"/>
    </g>
   </g>
   <g id="Line3DCollection_3">
    <path d="M 305.776715 159.525171 
L 128.559517 121.859066 
L 19.125753 189.242958 
" style="fill:none;stroke:#b0b0b0;stroke-width:0.8;"/>
    <path d="M 307.293473 132.029383 
L 128.186426 95.132414 
L 17.507079 161.163683 
" style="fill:none;stroke:#b0b0b0;stroke-width:0.8;"/>
    <path d="M 308.843216 103.935645 
L 127.805566 67.849255 
L 15.852021 132.453246 
" style="fill:none;stroke:#b0b0b0;stroke-width:0.8;"/>
    <path d="M 310.427031 75.224237 
L 127.416693 39.992025 
L 14.159339 103.090127 
" style="fill:none;stroke:#b0b0b0;stroke-width:0.8;"/>
    <path d="M 312.046055 45.874562 
L 127.019551 11.542413 
L 12.427733 73.051811 
" style="fill:none;stroke:#b0b0b0;stroke-width:0.8;"/>
   </g>
   <g id="xtick_9">
    <g id="line2d_12">
     <path d="M 304.297864 159.210853 
L 308.737507 160.154464 
" style="fill:none;stroke:#000000;stroke-linecap:square;stroke-width:0.8;"/>
    </g>
    <g id="text_10">
     <!-- $0.0$ -->
     <defs>
      <path d="M 18.40625 4.796875 
C 18.40625 7.6875 16 9.6875 13.59375 9.6875 
C 10.703125 9.6875 8.703125 7.296875 8.703125 4.890625 
C 8.703125 2 11.09375 0 13.5 0 
C 16.40625 0 18.40625 2.390625 18.40625 4.796875 
z
" id="CMMI12-58"/>
     </defs>
     <g transform="translate(315.64714 167.283186)scale(0.14 -0.14)">
      <use transform="scale(0.996264)" xlink:href="#CMR17-48"/>
      <use transform="translate(45.690477 0)scale(0.996264)" xlink:href="#CMMI12-58"/>
      <use transform="translate(72.787654 0)scale(0.996264)" xlink:href="#CMR17-48"/>
     </g>
    </g>
   </g>
   <g id="xtick_10">
    <g id="line2d_13">
     <path d="M 305.798187 131.721347 
L 310.287202 132.646107 
" style="fill:none;stroke:#000000;stroke-linecap:square;stroke-width:0.8;"/>
    </g>
    <g id="text_11">
     <!-- $0.1$ -->
     <g transform="translate(317.360223 139.825961)scale(0.14 -0.14)">
      <use transform="scale(0.996264)" xlink:href="#CMR17-48"/>
      <use transform="translate(45.690477 0)scale(0.996264)" xlink:href="#CMMI12-58"/>
      <use transform="translate(72.787654 0)scale(0.996264)" xlink:href="#CMR17-49"/>
     </g>
    </g>
   </g>
   <g id="xtick_11">
    <g id="line2d_14">
     <path d="M 307.331126 103.634239 
L 311.870622 104.5391 
" style="fill:none;stroke:#000000;stroke-linecap:square;stroke-width:0.8;"/>
    </g>
    <g id="text_12">
     <!-- $0.2$ -->
     <defs>
      <path d="M 41.703125 15.46875 
L 39.90625 15.46875 
C 38.90625 8.390625 38.09375 7.1875 37.703125 6.59375 
C 37.203125 5.796875 30 5.796875 28.59375 5.796875 
L 9.40625 5.796875 
C 13 9.6875 20 16.765625 28.5 24.9375 
C 34.59375 30.71875 41.703125 37.5 41.703125 47.390625 
C 41.703125 59.1875 32.296875 66 21.796875 66 
C 10.796875 66 4.09375 56.296875 4.09375 47.296875 
C 4.09375 43.390625 7 42.890625 8.203125 42.890625 
C 9.203125 42.890625 12.203125 43.484375 12.203125 46.984375 
C 12.203125 50.09375 9.59375 51 8.203125 51 
C 7.59375 51 7 50.890625 6.59375 50.6875 
C 8.5 59.1875 14.296875 63.390625 20.40625 63.390625 
C 29.09375 63.390625 34.796875 56.5 34.796875 47.390625 
C 34.796875 38.703125 29.703125 31.21875 24 24.734375 
L 4.09375 2.296875 
L 4.09375 0 
L 39.296875 0 
z
" id="CMR17-50"/>
     </defs>
     <g transform="translate(319.110479 111.772926)scale(0.14 -0.14)">
      <use transform="scale(0.996264)" xlink:href="#CMR17-48"/>
      <use transform="translate(45.690477 0)scale(0.996264)" xlink:href="#CMMI12-58"/>
      <use transform="translate(72.787654 0)scale(0.996264)" xlink:href="#CMR17-50"/>
     </g>
    </g>
   </g>
   <g id="xtick_12">
    <g id="line2d_15">
     <path d="M 308.897756 74.929828 
L 313.48888 75.813688 
" style="fill:none;stroke:#000000;stroke-linecap:square;stroke-width:0.8;"/>
    </g>
    <g id="text_13">
     <!-- $0.3$ -->
     <defs>
      <path d="M 22.09375 34 
C 31 34 34.90625 26.140625 34.90625 17.09375 
C 34.90625 5.03125 28.5 0.390625 22.703125 0.390625 
C 17.40625 0.390625 8.796875 3.015625 6.09375 10.796875 
C 6.59375 10.59375 7.09375 10.59375 7.59375 10.59375 
C 10 10.59375 11.796875 12.1875 11.796875 14.796875 
C 11.796875 17.6875 9.59375 19 7.59375 19 
C 5.90625 19 3.296875 18.1875 3.296875 14.484375 
C 3.296875 5.234375 12.296875 -2 22.90625 -2 
C 34 -2 42.5 6.75 42.5 16.984375 
C 42.5 26.84375 34.5 34 25 35.09375 
C 32.59375 36.671875 39.90625 43.375 39.90625 52.390625 
C 39.90625 60.25 32 66 23 66 
C 13.90625 66 5.90625 60.34375 5.90625 52.296875 
C 5.90625 48.796875 8.5 48.1875 9.796875 48.1875 
C 11.90625 48.1875 13.703125 49.484375 13.703125 52.09375 
C 13.703125 54.6875 11.90625 56 9.796875 56 
C 9.40625 56 8.90625 56 8.5 55.796875 
C 11.40625 62.484375 19.296875 63.6875 22.796875 63.6875 
C 26.296875 63.6875 32.90625 61.96875 32.90625 52.296875 
C 32.90625 49.484375 32.5 44.546875 29.09375 40.21875 
C 26.09375 36.390625 22.703125 36.1875 19.40625 35.890625 
C 18.90625 35.890625 16.59375 35.6875 16.203125 35.6875 
C 15.5 35.59375 15.09375 35.5 15.09375 34.796875 
C 15.09375 34.09375 15.203125 34 17.203125 34 
z
" id="CMR17-51"/>
     </defs>
     <g transform="translate(320.899132 83.104474)scale(0.14 -0.14)">
      <use transform="scale(0.996264)" xlink:href="#CMR17-48"/>
      <use transform="translate(45.690477 0)scale(0.996264)" xlink:href="#CMMI12-58"/>
      <use transform="translate(72.787654 0)scale(0.996264)" xlink:href="#CMR17-51"/>
     </g>
    </g>
   </g>
   <g id="xtick_13">
    <g id="line2d_16">
     <path d="M 310.4992 45.587539 
L 315.143139 46.449234 
" style="fill:none;stroke:#000000;stroke-linecap:square;stroke-width:0.8;"/>
    </g>
    <g id="text_14">
     <!-- $0.4$ -->
     <defs>
      <path d="M 33.59375 64.796875 
C 33.59375 66.890625 33.5 67 31.703125 67 
L 2 19.59375 
L 2 17 
L 27.796875 17 
L 27.796875 7.1875 
C 27.796875 3.59375 27.59375 2.59375 20.59375 2.59375 
L 18.703125 2.59375 
L 18.703125 0 
C 21.90625 0.1875 27.296875 0.1875 30.703125 0.1875 
C 34.09375 0.1875 39.5 0.1875 42.703125 0 
L 42.703125 2.59375 
L 40.796875 2.59375 
C 33.796875 2.59375 33.59375 3.59375 33.59375 7.1875 
L 33.59375 17 
L 43.796875 17 
L 43.796875 19.59375 
L 33.59375 19.59375 
z
M 28.09375 58.171875 
L 28.09375 19.59375 
L 4 19.59375 
z
" id="CMR17-52"/>
     </defs>
     <g transform="translate(322.727459 53.80013)scale(0.14 -0.14)">
      <use transform="scale(0.996264)" xlink:href="#CMR17-48"/>
      <use transform="translate(45.690477 0)scale(0.996264)" xlink:href="#CMMI12-58"/>
      <use transform="translate(72.787654 0)scale(0.996264)" xlink:href="#CMR17-52"/>
     </g>
    </g>
   </g>
  </g>
  <g id="axes_1">
   <g id="Poly3DCollection_1">
    <path clip-path="url(#peb789aedfd)" d="M 132.937396 128.180593 
L 133.051747 137.476151 
L 154.438688 142.098609 
L 154.401249 132.770917 
z
" style="fill:#ba0c2f;fill-opacity:0.8;"/>
    <path clip-path="url(#peb789aedfd)" d="M 120.109237 136.161995 
L 120.271134 145.513314 
L 133.051747 137.476151 
L 132.937396 128.180593 
z
" style="fill:#5d0618;fill-opacity:0.8;"/>
    <path clip-path="url(#peb789aedfd)" d="M 120.271134 145.513314 
L 141.786381 150.220613 
L 154.438688 142.098609 
L 133.051747 137.476151 
z
" style="fill:#a30a29;fill-opacity:0.8;"/>
    <path clip-path="url(#peb789aedfd)" d="M 120.109237 136.161995 
L 132.937396 128.180593 
L 154.401249 132.770917 
L 141.70232 140.836879 
z
" style="fill:#74081d;fill-opacity:0.8;"/>
    <path clip-path="url(#peb789aedfd)" d="M 141.70232 140.836879 
L 154.401249 132.770917 
L 154.438688 142.098609 
L 141.786381 150.220613 
z
" style="fill:#ba0c2f;fill-opacity:0.8;"/>
    <path clip-path="url(#peb789aedfd)" d="M 120.109237 136.161995 
L 141.70232 140.836879 
L 141.786381 150.220613 
L 120.271134 145.513314 
z
" style="fill:#5d0618;fill-opacity:0.8;"/>
   </g>
   <g id="Poly3DCollection_2">
    <path clip-path="url(#peb789aedfd)" d="M 176.092061 137.409778 
L 176.101967 135.154174 
L 198.042691 139.834472 
L 198.013452 142.097953 
z
" style="fill:#5d0618;fill-opacity:0.8;"/>
    <path clip-path="url(#peb789aedfd)" d="M 163.525839 145.561653 
L 163.524742 143.292381 
L 176.101967 135.154174 
L 176.092061 137.409778 
z
" style="fill:#ba0c2f;fill-opacity:0.8;"/>
    <path clip-path="url(#peb789aedfd)" d="M 163.525839 145.561653 
L 176.092061 137.409778 
L 198.013452 142.097953 
L 185.583503 150.337118 
z
" style="fill:#74081d;fill-opacity:0.8;"/>
    <path clip-path="url(#peb789aedfd)" d="M 163.524742 143.292381 
L 185.60198 148.059901 
L 198.042691 139.834472 
L 176.101967 135.154174 
z
" style="fill:#a30a29;fill-opacity:0.8;"/>
    <path clip-path="url(#peb789aedfd)" d="M 185.583503 150.337118 
L 198.013452 142.097953 
L 198.042691 139.834472 
L 185.60198 148.059901 
z
" style="fill:#5d0618;fill-opacity:0.8;"/>
    <path clip-path="url(#peb789aedfd)" d="M 163.525839 145.561653 
L 185.583503 150.337118 
L 185.60198 148.059901 
L 163.524742 143.292381 
z
" style="fill:#ba0c2f;fill-opacity:0.8;"/>
   </g>
   <g id="Poly3DCollection_3">
    <path clip-path="url(#peb789aedfd)" d="M 220.169118 146.83623 
L 220.090238 150.493827 
L 242.451476 155.29578 
L 242.562834 151.625417 
z
" style="fill:#ba0c2f;fill-opacity:0.8;"/>
    <path clip-path="url(#peb789aedfd)" d="M 207.8791 155.164096 
L 207.817147 158.843845 
L 220.090238 150.493827 
L 220.169118 146.83623 
z
" style="fill:#5d0618;fill-opacity:0.8;"/>
    <path clip-path="url(#peb789aedfd)" d="M 207.817147 158.843845 
L 230.321649 163.736048 
L 242.451476 155.29578 
L 220.090238 150.493827 
z
" style="fill:#a30a29;fill-opacity:0.8;"/>
    <path clip-path="url(#peb789aedfd)" d="M 207.8791 155.164096 
L 220.169118 146.83623 
L 242.562834 151.625417 
L 230.416502 160.043425 
z
" style="fill:#74081d;fill-opacity:0.8;"/>
    <path clip-path="url(#peb789aedfd)" d="M 230.416502 160.043425 
L 242.562834 151.625417 
L 242.451476 155.29578 
L 230.321649 163.736048 
z
" style="fill:#ba0c2f;fill-opacity:0.8;"/>
    <path clip-path="url(#peb789aedfd)" d="M 207.8791 155.164096 
L 230.416502 160.043425 
L 230.321649 163.736048 
L 207.817147 158.843845 
z
" style="fill:#5d0618;fill-opacity:0.8;"/>
   </g>
   <g id="Poly3DCollection_4">
    <path clip-path="url(#peb789aedfd)" d="M 107.0443 144.290715 
L 106.871991 136.614879 
L 128.659702 141.349731 
L 128.767743 149.052518 
z
" style="fill:#5d0618;fill-opacity:0.8;"/>
    <path clip-path="url(#peb789aedfd)" d="M 93.735969 152.57087 
L 93.521953 144.848267 
L 106.871991 136.614879 
L 107.0443 144.290715 
z
" style="fill:#ba0c2f;fill-opacity:0.8;"/>
    <path clip-path="url(#peb789aedfd)" d="M 93.735969 152.57087 
L 107.0443 144.290715 
L 128.767743 149.052518 
L 115.590898 157.422039 
z
" style="fill:#74081d;fill-opacity:0.8;"/>
    <path clip-path="url(#peb789aedfd)" d="M 93.521953 144.848267 
L 115.441925 149.672249 
L 128.659702 141.349731 
L 106.871991 136.614879 
z
" style="fill:#a30a29;fill-opacity:0.8;"/>
    <path clip-path="url(#peb789aedfd)" d="M 115.590898 157.422039 
L 128.767743 149.052518 
L 128.659702 141.349731 
L 115.441925 149.672249 
z
" style="fill:#5d0618;fill-opacity:0.8;"/>
    <path clip-path="url(#peb789aedfd)" d="M 93.735969 152.57087 
L 115.590898 157.422039 
L 115.441925 149.672249 
L 93.521953 144.848267 
z
" style="fill:#ba0c2f;fill-opacity:0.8;"/>
   </g>
   <g id="Poly3DCollection_5">
    <path clip-path="url(#peb789aedfd)" d="M 150.725176 153.865612 
L 150.770635 162.15843 
L 172.893869 167.052572 
L 172.9204 158.73083 
z
" style="fill:#ba0c2f;fill-opacity:0.8;"/>
    <path clip-path="url(#peb789aedfd)" d="M 137.683449 162.325953 
L 137.771947 170.668958 
L 150.770635 162.15843 
L 150.725176 153.865612 
z
" style="fill:#5d0618;fill-opacity:0.8;"/>
    <path clip-path="url(#peb789aedfd)" d="M 137.771947 170.668958 
L 160.033128 175.655649 
L 172.893869 167.052572 
L 150.770635 162.15843 
z
" style="fill:#a30a29;fill-opacity:0.8;"/>
    <path clip-path="url(#peb789aedfd)" d="M 137.683449 162.325953 
L 150.725176 153.865612 
L 172.9204 158.73083 
L 160.017519 167.283477 
z
" style="fill:#74081d;fill-opacity:0.8;"/>
    <path clip-path="url(#peb789aedfd)" d="M 160.017519 167.283477 
L 172.9204 158.73083 
L 172.893869 167.052572 
L 160.033128 175.655649 
z
" style="fill:#ba0c2f;fill-opacity:0.8;"/>
    <path clip-path="url(#peb789aedfd)" d="M 137.683449 162.325953 
L 160.017519 167.283477 
L 160.033128 175.655649 
L 137.771947 170.668958 
z
" style="fill:#5d0618;fill-opacity:0.8;"/>
   </g>
   <g id="Poly3DCollection_6">
    <path clip-path="url(#peb789aedfd)" d="M 80.177378 161.006731 
L 79.846059 151.000648 
L 101.918368 155.908359 
L 102.164913 165.949805 
z
" style="fill:#5d0618;fill-opacity:0.8;"/>
    <path clip-path="url(#peb789aedfd)" d="M 66.361402 169.602732 
L 65.972297 159.535288 
L 79.846059 151.000648 
L 80.177378 161.006731 
z
" style="fill:#ba0c2f;fill-opacity:0.8;"/>
    <path clip-path="url(#peb789aedfd)" d="M 66.361402 169.602732 
L 80.177378 161.006731 
L 102.164913 165.949805 
L 88.482655 174.640348 
z
" style="fill:#74081d;fill-opacity:0.8;"/>
    <path clip-path="url(#peb789aedfd)" d="M 65.972297 159.535288 
L 88.179349 164.537239 
L 101.918368 155.908359 
L 79.846059 151.000648 
z
" style="fill:#a30a29;fill-opacity:0.8;"/>
    <path clip-path="url(#peb789aedfd)" d="M 88.482655 174.640348 
L 102.164913 165.949805 
L 101.918368 155.908359 
L 88.179349 164.537239 
z
" style="fill:#5d0618;fill-opacity:0.8;"/>
    <path clip-path="url(#peb789aedfd)" d="M 66.361402 169.602732 
L 88.482655 174.640348 
L 88.179349 164.537239 
L 65.972297 159.535288 
z
" style="fill:#ba0c2f;fill-opacity:0.8;"/>
   </g>
   <g id="Poly3DCollection_7">
    <path clip-path="url(#peb789aedfd)" d="M 240.972083 173.647835 
L 240.860325 177.375955 
L 264.011604 182.47148 
L 264.158171 178.730251 
z
" style="fill:#ba0c2f;fill-opacity:0.8;"/>
    <path clip-path="url(#peb789aedfd)" d="M 228.509113 182.48665 
L 228.414735 186.237514 
L 240.860325 177.375955 
L 240.972083 173.647835 
z
" style="fill:#5d0618;fill-opacity:0.8;"/>
    <path clip-path="url(#peb789aedfd)" d="M 228.414735 186.237514 
L 251.720319 191.431733 
L 264.011604 182.47148 
L 240.860325 177.375955 
z
" style="fill:#a30a29;fill-opacity:0.8;"/>
    <path clip-path="url(#peb789aedfd)" d="M 228.509113 182.48665 
L 240.972083 173.647835 
L 264.158171 178.730251 
L 251.849977 187.667654 
z
" style="fill:#74081d;fill-opacity:0.8;"/>
    <path clip-path="url(#peb789aedfd)" d="M 251.849977 187.667654 
L 264.158171 178.730251 
L 264.011604 182.47148 
L 251.720319 191.431733 
z
" style="fill:#ba0c2f;fill-opacity:0.8;"/>
    <path clip-path="url(#peb789aedfd)" d="M 228.509113 182.48665 
L 251.849977 187.667654 
L 251.720319 191.431733 
L 228.414735 186.237514 
z
" style="fill:#5d0618;fill-opacity:0.8;"/>
   </g>
   <g id="Poly3DCollection_8">
    <path clip-path="url(#peb789aedfd)" d="M 182.597092 172.295496 
L 195.357298 163.649023 
L 218.03984 168.621062 
L 205.426236 177.362912 
z
" style="fill:#74081d;fill-opacity:0.8;"/>
    <path clip-path="url(#peb789aedfd)" d="M 195.357298 163.649023 
L 195.934387 115.501514 
L 219.050465 120.299314 
L 218.03984 168.621062 
z
" style="fill:#5d0618;fill-opacity:0.8;"/>
    <path clip-path="url(#peb789aedfd)" d="M 182.597092 172.295496 
L 182.936709 123.845619 
L 195.934387 115.501514 
L 195.357298 163.649023 
z
" style="fill:#ba0c2f;fill-opacity:0.8;"/>
    <path clip-path="url(#peb789aedfd)" d="M 205.426236 177.362912 
L 218.03984 168.621062 
L 219.050465 120.299314 
L 206.205089 128.737221 
z
" style="fill:#5d0618;fill-opacity:0.8;"/>
    <path clip-path="url(#peb789aedfd)" d="M 182.597092 172.295496 
L 205.426236 177.362912 
L 206.205089 128.737221 
L 182.936709 123.845619 
z
" style="fill:#ba0c2f;fill-opacity:0.8;"/>
    <path clip-path="url(#peb789aedfd)" d="M 182.936709 123.845619 
L 206.205089 128.737221 
L 219.050465 120.299314 
L 195.934387 115.501514 
z
" style="fill:#a30a29;fill-opacity:0.8;"/>
   </g>
   <g id="Poly3DCollection_9">
    <path clip-path="url(#peb789aedfd)" d="M 169.591607 181.108172 
L 169.575523 189.56074 
L 192.475593 194.75599 
L 192.568819 186.273738 
z
" style="fill:#ba0c2f;fill-opacity:0.8;"/>
    <path clip-path="url(#peb789aedfd)" d="M 156.333703 190.091891 
L 156.362104 198.59596 
L 169.575523 189.56074 
L 169.591607 181.108172 
z
" style="fill:#5d0618;fill-opacity:0.8;"/>
    <path clip-path="url(#peb789aedfd)" d="M 156.362104 198.59596 
L 179.410703 203.892473 
L 192.475593 194.75599 
L 169.575523 189.56074 
z
" style="fill:#a30a29;fill-opacity:0.8;"/>
    <path clip-path="url(#peb789aedfd)" d="M 156.333703 190.091891 
L 169.591607 181.108172 
L 192.568819 186.273738 
L 179.46045 195.358484 
z
" style="fill:#74081d;fill-opacity:0.8;"/>
    <path clip-path="url(#peb789aedfd)" d="M 179.46045 195.358484 
L 192.568819 186.273738 
L 192.475593 194.75599 
L 179.410703 203.892473 
z
" style="fill:#ba0c2f;fill-opacity:0.8;"/>
    <path clip-path="url(#peb789aedfd)" d="M 156.333703 190.091891 
L 179.46045 195.358484 
L 179.410703 203.892473 
L 156.362104 198.59596 
z
" style="fill:#5d0618;fill-opacity:0.8;"/>
   </g>
   <g id="Poly3DCollection_10">
    <path clip-path="url(#peb789aedfd)" d="M 110.849042 179.733787 
L 124.393784 170.947134 
L 146.867987 175.999617 
L 133.464662 184.883983 
z
" style="fill:#74081d;fill-opacity:0.8;"/>
    <path clip-path="url(#peb789aedfd)" d="M 124.393784 170.947134 
L 123.832232 135.553193 
L 146.617624 140.478295 
L 146.867987 175.999617 
z
" style="fill:#5d0618;fill-opacity:0.8;"/>
    <path clip-path="url(#peb789aedfd)" d="M 110.849042 179.733787 
L 110.091806 144.118805 
L 123.832232 135.553193 
L 124.393784 170.947134 
z
" style="fill:#ba0c2f;fill-opacity:0.8;"/>
    <path clip-path="url(#peb789aedfd)" d="M 133.464662 184.883983 
L 146.867987 175.999617 
L 146.617624 140.478295 
L 133.022552 149.140505 
z
" style="fill:#5d0618;fill-opacity:0.8;"/>
    <path clip-path="url(#peb789aedfd)" d="M 110.849042 179.733787 
L 133.464662 184.883983 
L 133.022552 149.140505 
L 110.091806 144.118805 
z
" style="fill:#ba0c2f;fill-opacity:0.8;"/>
    <path clip-path="url(#peb789aedfd)" d="M 110.091806 144.118805 
L 133.022552 149.140505 
L 146.617624 140.478295 
L 123.832232 135.553193 
z
" style="fill:#a30a29;fill-opacity:0.8;"/>
   </g>
   <g id="Poly3DCollection_11">
    <path clip-path="url(#peb789aedfd)" d="M 253.199662 164.97596 
L 265.198458 156.466339 
L 288.079931 161.359839 
L 276.232624 169.962576 
z
" style="fill:#74081d;fill-opacity:0.8;"/>
    <path clip-path="url(#peb789aedfd)" d="M 265.198458 156.466339 
L 268.292606 77.618166 
L 291.900306 82.221817 
L 288.079931 161.359839 
z
" style="fill:#5d0618;fill-opacity:0.8;"/>
    <path clip-path="url(#peb789aedfd)" d="M 253.199662 164.97596 
L 255.950668 85.62474 
L 268.292606 77.618166 
L 265.198458 156.466339 
z
" style="fill:#ba0c2f;fill-opacity:0.8;"/>
    <path clip-path="url(#peb789aedfd)" d="M 276.232624 169.962576 
L 288.079931 161.359839 
L 291.900306 82.221817 
L 279.719767 90.318738 
z
" style="fill:#5d0618;fill-opacity:0.8;"/>
    <path clip-path="url(#peb789aedfd)" d="M 253.199662 164.97596 
L 276.232624 169.962576 
L 279.719767 90.318738 
L 255.950668 85.62474 
z
" style="fill:#ba0c2f;fill-opacity:0.8;"/>
    <path clip-path="url(#peb789aedfd)" d="M 255.950668 85.62474 
L 279.719767 90.318738 
L 291.900306 82.221817 
L 268.292606 77.618166 
z
" style="fill:#a30a29;fill-opacity:0.8;"/>
   </g>
   <g id="Poly3DCollection_12">
    <path clip-path="url(#peb789aedfd)" d="M 215.80389 191.497273 
L 215.851278 189.153448 
L 239.370785 194.427629 
L 239.301188 196.779761 
z
" style="fill:#5d0618;fill-opacity:0.8;"/>
    <path clip-path="url(#peb789aedfd)" d="M 202.849282 200.684762 
L 202.884988 198.326527 
L 215.851278 189.153448 
L 215.80389 191.497273 
z
" style="fill:#ba0c2f;fill-opacity:0.8;"/>
    <path clip-path="url(#peb789aedfd)" d="M 202.849282 200.684762 
L 215.80389 191.497273 
L 239.301188 196.779761 
L 226.50468 206.071745 
z
" style="fill:#74081d;fill-opacity:0.8;"/>
    <path clip-path="url(#peb789aedfd)" d="M 202.884988 198.326527 
L 226.562898 203.705138 
L 239.370785 194.427629 
L 215.851278 189.153448 
z
" style="fill:#a30a29;fill-opacity:0.8;"/>
    <path clip-path="url(#peb789aedfd)" d="M 226.50468 206.071745 
L 239.301188 196.779761 
L 239.370785 194.427629 
L 226.562898 203.705138 
z
" style="fill:#5d0618;fill-opacity:0.8;"/>
    <path clip-path="url(#peb789aedfd)" d="M 202.849282 200.684762 
L 226.50468 206.071745 
L 226.562898 203.705138 
L 202.884988 198.326527 
z
" style="fill:#ba0c2f;fill-opacity:0.8;"/>
   </g>
   <g id="Poly3DCollection_13">
    <path clip-path="url(#peb789aedfd)" d="M 97.04181 188.690721 
L 96.768402 178.489291 
L 119.617565 183.703755 
L 119.800125 193.941493 
z
" style="fill:#5d0618;fill-opacity:0.8;"/>
    <path clip-path="url(#peb789aedfd)" d="M 82.964381 197.822935 
L 82.630899 187.55851 
L 96.768402 178.489291 
L 97.04181 188.690721 
z
" style="fill:#ba0c2f;fill-opacity:0.8;"/>
    <path clip-path="url(#peb789aedfd)" d="M 82.964381 197.822935 
L 97.04181 188.690721 
L 119.800125 193.941493 
L 105.866665 203.177258 
z
" style="fill:#74081d;fill-opacity:0.8;"/>
    <path clip-path="url(#peb789aedfd)" d="M 82.630899 187.55851 
L 105.625177 192.876231 
L 119.617565 183.703755 
L 96.768402 178.489291 
z
" style="fill:#a30a29;fill-opacity:0.8;"/>
    <path clip-path="url(#peb789aedfd)" d="M 105.866665 203.177258 
L 119.800125 193.941493 
L 119.617565 183.703755 
L 105.625177 192.876231 
z
" style="fill:#5d0618;fill-opacity:0.8;"/>
    <path clip-path="url(#peb789aedfd)" d="M 82.964381 197.822935 
L 105.866665 203.177258 
L 105.625177 192.876231 
L 82.630899 187.55851 
z
" style="fill:#ba0c2f;fill-opacity:0.8;"/>
   </g>
   <g id="Poly3DCollection_14">
    <path clip-path="url(#peb789aedfd)" d="M 142.81596 199.25168 
L 142.746366 191.27399 
L 166.097935 196.616191 
L 166.09371 204.622295 
z
" style="fill:#5d0618;fill-opacity:0.8;"/>
    <path clip-path="url(#peb789aedfd)" d="M 129.030662 208.592767 
L 128.916242 200.56578 
L 142.746366 191.27399 
L 142.81596 199.25168 
z
" style="fill:#ba0c2f;fill-opacity:0.8;"/>
    <path clip-path="url(#peb789aedfd)" d="M 129.030662 208.592767 
L 142.81596 199.25168 
L 166.09371 204.622295 
L 152.460885 214.070516 
z
" style="fill:#74081d;fill-opacity:0.8;"/>
    <path clip-path="url(#peb789aedfd)" d="M 128.916242 200.56578 
L 152.421253 206.014893 
L 166.097935 196.616191 
L 142.746366 191.27399 
z
" style="fill:#a30a29;fill-opacity:0.8;"/>
    <path clip-path="url(#peb789aedfd)" d="M 152.460885 214.070516 
L 166.09371 204.622295 
L 166.097935 196.616191 
L 152.421253 206.014893 
z
" style="fill:#5d0618;fill-opacity:0.8;"/>
    <path clip-path="url(#peb789aedfd)" d="M 129.030662 208.592767 
L 152.460885 214.070516 
L 152.421253 206.014893 
L 128.916242 200.56578 
z
" style="fill:#ba0c2f;fill-opacity:0.8;"/>
   </g>
   <g id="Poly3DCollection_15">
    <path clip-path="url(#peb789aedfd)" d="M 189.637872 210.054377 
L 189.540183 219.896865 
L 213.260712 225.42619 
L 213.453046 215.548986 
z
" style="fill:#ba0c2f;fill-opacity:0.8;"/>
    <path clip-path="url(#peb789aedfd)" d="M 176.161949 219.611585 
L 176.116748 229.514298 
L 189.540183 219.896865 
L 189.637872 210.054377 
z
" style="fill:#5d0618;fill-opacity:0.8;"/>
    <path clip-path="url(#peb789aedfd)" d="M 176.116748 229.514298 
L 199.997442 235.154762 
L 213.260712 225.42619 
L 189.540183 219.896865 
z
" style="fill:#a30a29;fill-opacity:0.8;"/>
    <path clip-path="url(#peb789aedfd)" d="M 176.161949 219.611585 
L 189.637872 210.054377 
L 213.453046 215.548986 
L 200.138577 225.217079 
z
" style="fill:#74081d;fill-opacity:0.8;"/>
    <path clip-path="url(#peb789aedfd)" d="M 200.138577 225.217079 
L 213.453046 215.548986 
L 213.260712 225.42619 
L 199.997442 235.154762 
z
" style="fill:#ba0c2f;fill-opacity:0.8;"/>
    <path clip-path="url(#peb789aedfd)" d="M 176.161949 219.611585 
L 200.138577 225.217079 
L 199.997442 235.154762 
L 176.116748 229.514298 
z
" style="fill:#5d0618;fill-opacity:0.8;"/>
   </g>
   <g id="Poly3DCollection_16">
    <path clip-path="url(#peb789aedfd)" d="M 25.043314 188.629471 
L 203.893066 230.638448 
L 300.222597 160.10098 
L 129.928573 123.835942 
z
" style="fill-opacity:0.15;"/>
   </g>
   <g id="Poly3DCollection_17">
    <path clip-path="url(#peb789aedfd)" d="M 37.927409 187.293746 
L 52.280641 178.363476 
L 74.536716 183.498372 
L 60.319399 192.528767 
z
" style="fill:#74081d;fill-opacity:0.8;"/>
    <path clip-path="url(#peb789aedfd)" d="M 52.280641 178.363476 
L 46.933544 57.750519 
L 70.222556 62.427839 
L 74.536716 183.498372 
z
" style="fill:#5d0618;fill-opacity:0.8;"/>
    <path clip-path="url(#peb789aedfd)" d="M 37.927409 187.293746 
L 31.836896 65.886594 
L 46.933544 57.750519 
L 52.280641 178.363476 
z
" style="fill:#ba0c2f;fill-opacity:0.8;"/>
    <path clip-path="url(#peb789aedfd)" d="M 60.319399 192.528767 
L 74.536716 183.498372 
L 70.222556 62.427839 
L 55.274545 70.659531 
z
" style="fill:#5d0618;fill-opacity:0.8;"/>
    <path clip-path="url(#peb789aedfd)" d="M 37.927409 187.293746 
L 60.319399 192.528767 
L 55.274545 70.659531 
L 31.836896 65.886594 
z
" style="fill:#ba0c2f;fill-opacity:0.8;"/>
    <path clip-path="url(#peb789aedfd)" d="M 31.836896 65.886594 
L 55.274545 70.659531 
L 70.222556 62.427839 
L 46.933544 57.750519 
z
" style="fill:#a30a29;fill-opacity:0.8;"/>
   </g>
  </g>
  <g id="patch_6">
   <path d="M 425.945455 262.8 
L 806.4 262.8 
L 806.4 -14.4 
L 425.945455 -14.4 
z
" style="fill:#ffffff;"/>
  </g>
  <g id="pane3d_4">
   <g id="patch_7">
    <path d="M 476.380584 201.548569 
L 585.268665 133.58541 
L 583.455794 3.718968 
L 468.496488 64.782468 
" style="fill:#f2f2f2;opacity:0.5;stroke:#f2f2f2;stroke-linejoin:miter;"/>
   </g>
  </g>
  <g id="pane3d_5">
   <g id="patch_8">
    <path d="M 585.268665 133.58541 
L 761.65712 171.581202 
L 769.037001 37.79869 
L 583.455794 3.718968 
" style="fill:#e6e6e6;opacity:0.5;stroke:#e6e6e6;stroke-linejoin:miter;"/>
   </g>
  </g>
  <g id="pane3d_6">
   <g id="patch_9">
    <path d="M 476.380584 201.548569 
L 661.965072 245.80086 
L 761.65712 171.581202 
L 585.268665 133.58541 
" style="fill:#ececec;opacity:0.5;stroke:#ececec;stroke-linejoin:miter;"/>
   </g>
  </g>
  <g id="axis3d_4">
   <g id="line2d_17">
    <path d="M 476.380584 201.548569 
L 661.965072 245.80086 
" style="fill:none;stroke:#000000;stroke-linecap:square;stroke-width:0.8;"/>
   </g>
   <g id="Line3DCollection_4">
    <path d="M 498.841271 206.90428 
L 606.679397 138.19749 
L 605.9393 7.847789 
" style="fill:none;stroke:#b0b0b0;stroke-width:0.8;"/>
    <path d="M 544.057792 217.686079 
L 649.729469 147.470895 
L 651.182353 16.156123 
" style="fill:none;stroke:#b0b0b0;stroke-width:0.8;"/>
    <path d="M 590.310744 228.715013 
L 693.693551 156.941187 
L 697.435637 24.649974 
" style="fill:none;stroke:#b0b0b0;stroke-width:0.8;"/>
    <path d="M 637.636176 239.999678 
L 738.601063 166.614702 
L 744.733372 33.335625 
" style="fill:none;stroke:#b0b0b0;stroke-width:0.8;"/>
   </g>
   <g id="xtick_14">
    <g id="line2d_18">
     <path d="M 499.770538 206.312217 
L 496.979262 208.09062 
" style="fill:none;stroke:#000000;stroke-linecap:square;stroke-width:0.8;"/>
    </g>
    <g id="text_15">
     <!-- 00 -->
     <g transform="translate(479.875817 237.14703)rotate(-45)scale(0.14 -0.14)">
      <use transform="scale(0.996264)" xlink:href="#CMR17-48"/>
      <use transform="translate(45.690477 0)scale(0.996264)" xlink:href="#CMR17-48"/>
     </g>
    </g>
   </g>
   <g id="xtick_15">
    <g id="line2d_19">
     <path d="M 544.969128 217.080527 
L 542.231671 218.899473 
" style="fill:none;stroke:#000000;stroke-linecap:square;stroke-width:0.8;"/>
    </g>
    <g id="text_16">
     <!-- 01 -->
     <g transform="translate(525.088242 248.103782)rotate(-45)scale(0.14 -0.14)">
      <use transform="scale(0.996264)" xlink:href="#CMR17-48"/>
      <use transform="translate(45.690477 0)scale(0.996264)" xlink:href="#CMR17-49"/>
     </g>
    </g>
   </g>
   <g id="xtick_16">
    <g id="line2d_20">
     <path d="M 591.20308 228.095506 
L 588.522658 229.956397 
" style="fill:none;stroke:#000000;stroke-linecap:square;stroke-width:0.8;"/>
    </g>
    <g id="text_17">
     <!-- 10 -->
     <g transform="translate(571.338855 259.312128)rotate(-45)scale(0.14 -0.14)">
      <use transform="scale(0.996264)" xlink:href="#CMR17-49"/>
      <use transform="translate(45.690477 0)scale(0.996264)" xlink:href="#CMR17-48"/>
     </g>
    </g>
   </g>
   <g id="xtick_17">
    <g id="line2d_21">
     <path d="M 638.50838 239.365727 
L 635.888391 241.270032 
" style="fill:none;stroke:#000000;stroke-linecap:square;stroke-width:0.8;"/>
    </g>
    <g id="text_18">
     <!-- 11 -->
     <g transform="translate(618.66383 270.780834)rotate(-45)scale(0.14 -0.14)">
      <use transform="scale(0.996264)" xlink:href="#CMR17-49"/>
      <use transform="translate(45.690477 0)scale(0.996264)" xlink:href="#CMR17-49"/>
     </g>
    </g>
   </g>
  </g>
  <g id="axis3d_5">
   <g id="line2d_22">
    <path d="M 761.65712 171.581202 
L 661.965072 245.80086 
" style="fill:none;stroke:#000000;stroke-linecap:square;stroke-width:0.8;"/>
   </g>
   <g id="Line3DCollection_5">
    <path d="M 484.000685 56.547028 
L 491.016499 192.413474 
L 675.403872 235.795817 
" style="fill:none;stroke:#b0b0b0;stroke-width:0.8;"/>
    <path d="M 513.777478 40.730342 
L 519.168861 174.842005 
L 701.219492 216.576366 
" style="fill:none;stroke:#b0b0b0;stroke-width:0.8;"/>
    <path d="M 542.401344 25.526062 
L 546.284836 157.917404 
L 726.04244 198.095948 
" style="fill:none;stroke:#b0b0b0;stroke-width:0.8;"/>
    <path d="M 569.937971 10.899296 
L 572.420618 141.604597 
L 749.928893 180.312741 
" style="fill:none;stroke:#b0b0b0;stroke-width:0.8;"/>
   </g>
   <g id="xtick_18">
    <g id="line2d_23">
     <path d="M 673.861052 235.432825 
L 678.492943 236.522608 
" style="fill:none;stroke:#000000;stroke-linecap:square;stroke-width:0.8;"/>
    </g>
    <g id="text_19">
     <!-- 00 -->
     <g transform="translate(689.195824 248.348363)rotate(-337.5)scale(0.14 -0.14)">
      <use transform="scale(0.996264)" xlink:href="#CMR17-48"/>
      <use transform="translate(45.690477 0)scale(0.996264)" xlink:href="#CMR17-48"/>
     </g>
    </g>
   </g>
   <g id="xtick_19">
    <g id="line2d_24">
     <path d="M 699.697534 216.227463 
L 704.266725 217.274932 
" style="fill:none;stroke:#000000;stroke-linecap:square;stroke-width:0.8;"/>
    </g>
    <g id="text_20">
     <!-- 01 -->
     <g transform="translate(714.749375 228.903937)rotate(-337.5)scale(0.14 -0.14)">
      <use transform="scale(0.996264)" xlink:href="#CMR17-48"/>
      <use transform="translate(45.690477 0)scale(0.996264)" xlink:href="#CMR17-49"/>
     </g>
    </g>
   </g>
   <g id="xtick_20">
    <g id="line2d_25">
     <path d="M 724.540896 197.76033 
L 729.048738 198.767901 
" style="fill:none;stroke:#000000;stroke-linecap:square;stroke-width:0.8;"/>
    </g>
    <g id="text_21">
     <!-- 10 -->
     <g transform="translate(739.320787 210.206849)rotate(-337.5)scale(0.14 -0.14)">
      <use transform="scale(0.996264)" xlink:href="#CMR17-49"/>
      <use transform="translate(45.690477 0)scale(0.996264)" xlink:href="#CMR17-48"/>
     </g>
    </g>
   </g>
   <g id="xtick_21">
    <g id="line2d_26">
     <path d="M 748.44732 179.989663 
L 752.895146 180.959573 
" style="fill:none;stroke:#000000;stroke-linecap:square;stroke-width:0.8;"/>
    </g>
    <g id="text_22">
     <!-- 11 -->
     <g transform="translate(762.965613 192.214827)rotate(-337.5)scale(0.14 -0.14)">
      <use transform="scale(0.996264)" xlink:href="#CMR17-49"/>
      <use transform="translate(45.690477 0)scale(0.996264)" xlink:href="#CMR17-49"/>
     </g>
    </g>
   </g>
  </g>
  <g id="axis3d_6">
   <g id="line2d_27">
    <path d="M 761.65712 171.581202 
L 769.037001 37.79869 
" style="fill:none;stroke:#000000;stroke-linecap:square;stroke-width:0.8;"/>
   </g>
   <g id="text_23">
    <!-- Im[$\rho$] -->
    <defs>
     <path d="M 19.703125 60.90625 
C 19.703125 65.390625 20.90625 65.390625 28.09375 65.390625 
L 28.09375 68 
C 24.90625 67.796875 19.796875 67.796875 16.40625 67.796875 
C 13 67.796875 7.90625 67.796875 4.703125 68 
L 4.703125 65.390625 
C 11.90625 65.390625 13.09375 65.390625 13.09375 60.90625 
L 13.09375 7.078125 
C 13.09375 2.59375 11.90625 2.59375 4.703125 2.59375 
L 4.703125 0 
C 7.90625 0.1875 13 0.1875 16.40625 0.1875 
C 19.796875 0.1875 24.90625 0.1875 28.09375 0 
L 28.09375 2.59375 
C 20.90625 2.59375 19.703125 2.59375 19.703125 7.078125 
z
" id="CMR17-73"/>
     <path d="M 67.59375 30.53125 
C 67.59375 35.5625 66.703125 44 54.796875 44 
C 48 44 43.296875 39.375 41.5 33.953125 
L 41.40625 33.953125 
C 40.203125 42.1875 34.296875 44 28.703125 44 
C 20.796875 44 16.703125 37.875 15.203125 33.84375 
L 15.09375 33.84375 
L 15.09375 44 
L 3.296875 42.890625 
L 3.296875 40.28125 
C 9.203125 40.28125 10.09375 39.6875 10.09375 34.859375 
L 10.09375 6.921875 
C 10.09375 3.09375 9.703125 2.59375 3.296875 2.59375 
L 3.296875 0 
C 5.703125 0.1875 10.09375 0.1875 12.703125 0.1875 
C 15.296875 0.1875 19.796875 0.1875 22.203125 0 
L 22.203125 2.59375 
C 15.796875 2.59375 15.40625 3 15.40625 6.921875 
L 15.40625 26.21875 
C 15.40625 35.453125 21 42.390625 28 42.390625 
C 35.40625 42.390625 36.203125 35.765625 36.203125 30.9375 
L 36.203125 6.921875 
C 36.203125 3.09375 35.796875 2.59375 29.40625 2.59375 
L 29.40625 0 
C 31.796875 0.1875 36.203125 0.1875 38.796875 0.1875 
C 41.40625 0.1875 45.90625 0.1875 48.296875 0 
L 48.296875 2.59375 
C 41.90625 2.59375 41.5 3 41.5 6.921875 
L 41.5 26.21875 
C 41.5 35.453125 47.09375 42.390625 54.09375 42.390625 
C 61.5 42.390625 62.296875 35.765625 62.296875 30.9375 
L 62.296875 6.921875 
C 62.296875 3.09375 61.90625 2.59375 55.5 2.59375 
L 55.5 0 
C 57.90625 0.1875 62.296875 0.1875 64.90625 0.1875 
C 67.5 0.1875 72 0.1875 74.40625 0 
L 74.40625 2.59375 
C 68 2.59375 67.59375 3 67.59375 6.921875 
z
" id="CMR17-109"/>
    </defs>
    <g transform="translate(809.026865 118.025317)rotate(-86.842577)scale(0.14 -0.14)">
     <use transform="scale(0.996264)" xlink:href="#CMR17-73"/>
     <use transform="translate(32.638409 0)scale(0.996264)" xlink:href="#CMR17-109"/>
     <use transform="translate(109.557999 0)scale(0.996264)" xlink:href="#CMR17-91"/>
     <use transform="translate(134.429058 0)scale(0.996264)" xlink:href="#CMMI12-26"/>
     <use transform="translate(184.74343 0)scale(0.996264)" xlink:href="#CMR17-93"/>
    </g>
   </g>
   <g id="Line3DCollection_6">
    <path d="M 763.544058 137.374784 
L 584.804386 100.326414 
L 474.367307 166.624074 
" style="fill:none;stroke:#b0b0b0;stroke-width:0.8;"/>
    <path d="M 766.050818 91.932235 
L 584.1884 56.199785 
L 471.689966 120.180014 
" style="fill:none;stroke:#b0b0b0;stroke-width:0.8;"/>
    <path d="M 768.647525 44.859126 
L 583.551272 10.558604 
L 468.913254 72.012143 
" style="fill:none;stroke:#b0b0b0;stroke-width:0.8;"/>
   </g>
   <g id="xtick_22">
    <g id="line2d_28">
     <path d="M 762.051967 137.06551 
L 766.531381 137.993984 
" style="fill:none;stroke:#000000;stroke-linecap:square;stroke-width:0.8;"/>
    </g>
    <g id="text_24">
     <!-- $0.0$ -->
     <g transform="translate(773.572647 145.163767)scale(0.14 -0.14)">
      <use transform="scale(0.996264)" xlink:href="#CMR17-48"/>
      <use transform="translate(45.690477 0)scale(0.996264)" xlink:href="#CMMI12-58"/>
      <use transform="translate(72.787654 0)scale(0.996264)" xlink:href="#CMR17-48"/>
     </g>
    </g>
   </g>
   <g id="xtick_23">
    <g id="line2d_29">
     <path d="M 764.531544 91.633727 
L 769.09262 92.52989 
" style="fill:none;stroke:#000000;stroke-linecap:square;stroke-width:0.8;"/>
    </g>
    <g id="text_25">
     <!-- $0.2$ -->
     <g transform="translate(776.403728 99.787308)scale(0.14 -0.14)">
      <use transform="scale(0.996264)" xlink:href="#CMR17-48"/>
      <use transform="translate(45.690477 0)scale(0.996264)" xlink:href="#CMMI12-58"/>
      <use transform="translate(72.787654 0)scale(0.996264)" xlink:href="#CMR17-50"/>
     </g>
    </g>
   </g>
   <g id="xtick_24">
    <g id="line2d_30">
     <path d="M 767.100061 44.572363 
L 771.745828 45.433278 
" style="fill:none;stroke:#000000;stroke-linecap:square;stroke-width:0.8;"/>
    </g>
    <g id="text_26">
     <!-- $0.4$ -->
     <g transform="translate(779.336168 52.786288)scale(0.14 -0.14)">
      <use transform="scale(0.996264)" xlink:href="#CMR17-48"/>
      <use transform="translate(45.690477 0)scale(0.996264)" xlink:href="#CMMI12-58"/>
      <use transform="translate(72.787654 0)scale(0.996264)" xlink:href="#CMR17-52"/>
     </g>
    </g>
   </g>
  </g>
  <g id="axes_2">
   <g id="Poly3DCollection_18">
    <path clip-path="url(#pa6454e7bc4)" d="M 589.216664 106.542398 
L 589.223374 107.087834 
L 610.861745 111.603934 
L 610.859548 111.056555 
z
" style="fill:#0cba97;fill-opacity:0.8;"/>
    <path clip-path="url(#pa6454e7bc4)" d="M 576.277786 114.391621 
L 576.287287 114.94043 
L 589.223374 107.087834 
L 589.216664 106.542398 
z
" style="fill:#065d4c;fill-opacity:0.8;"/>
    <path clip-path="url(#pa6454e7bc4)" d="M 576.287287 114.94043 
L 598.056997 119.540413 
L 610.861745 111.603934 
L 589.223374 107.087834 
z
" style="fill:#0aa384;fill-opacity:0.8;"/>
    <path clip-path="url(#pa6454e7bc4)" d="M 576.277786 114.391621 
L 589.216664 106.542398 
L 610.859548 111.056555 
L 598.052063 118.989643 
z
" style="fill:#08745e;fill-opacity:0.8;"/>
    <path clip-path="url(#pa6454e7bc4)" d="M 598.052063 118.989643 
L 610.859548 111.056555 
L 610.861745 111.603934 
L 598.056997 119.540413 
z
" style="fill:#0cba97;fill-opacity:0.8;"/>
    <path clip-path="url(#pa6454e7bc4)" d="M 576.277786 114.391621 
L 598.052063 118.989643 
L 598.056997 119.540413 
L 576.287287 114.94043 
z
" style="fill:#065d4c;fill-opacity:0.8;"/>
   </g>
   <g id="Poly3DCollection_19">
    <path clip-path="url(#pa6454e7bc4)" d="M 632.733218 115.618849 
L 632.750989 111.572348 
L 654.893844 116.169042 
L 654.841386 120.230053 
z
" style="fill:#065d4c;fill-opacity:0.8;"/>
    <path clip-path="url(#pa6454e7bc4)" d="M 620.060693 123.637152 
L 620.058724 119.56547 
L 632.750989 111.572348 
L 632.733218 115.618849 
z
" style="fill:#0cba97;fill-opacity:0.8;"/>
    <path clip-path="url(#pa6454e7bc4)" d="M 620.060693 123.637152 
L 632.733218 115.618849 
L 654.841386 120.230053 
L 642.307478 128.334952 
z
" style="fill:#08745e;fill-opacity:0.8;"/>
    <path clip-path="url(#pa6454e7bc4)" d="M 620.058724 119.56547 
L 642.340634 124.248624 
L 654.893844 116.169042 
L 632.750989 111.572348 
z
" style="fill:#0aa384;fill-opacity:0.8;"/>
    <path clip-path="url(#pa6454e7bc4)" d="M 642.307478 128.334952 
L 654.841386 120.230053 
L 654.893844 116.169042 
L 642.340634 124.248624 
z
" style="fill:#065d4c;fill-opacity:0.8;"/>
    <path clip-path="url(#pa6454e7bc4)" d="M 620.060693 123.637152 
L 642.307478 128.334952 
L 642.340634 124.248624 
L 620.058724 119.56547 
z
" style="fill:#0cba97;fill-opacity:0.8;"/>
   </g>
   <g id="Poly3DCollection_20">
    <path clip-path="url(#pa6454e7bc4)" d="M 563.098053 122.386957 
L 563.211568 127.443699 
L 585.076062 132.146027 
L 585.004881 127.071201 
z
" style="fill:#0cba97;fill-opacity:0.8;"/>
    <path clip-path="url(#pa6454e7bc4)" d="M 549.670675 130.532523 
L 549.811682 135.620647 
L 563.211568 127.443699 
L 563.098053 122.386957 
z
" style="fill:#065d4c;fill-opacity:0.8;"/>
    <path clip-path="url(#pa6454e7bc4)" d="M 549.811682 135.620647 
L 571.809368 140.411812 
L 585.076062 132.146027 
L 563.211568 127.443699 
z
" style="fill:#0aa384;fill-opacity:0.8;"/>
    <path clip-path="url(#pa6454e7bc4)" d="M 549.670675 130.532523 
L 563.098053 122.386957 
L 585.004881 127.071201 
L 571.711209 135.305439 
z
" style="fill:#08745e;fill-opacity:0.8;"/>
    <path clip-path="url(#pa6454e7bc4)" d="M 571.711209 135.305439 
L 585.004881 127.071201 
L 585.076062 132.146027 
L 571.809368 140.411812 
z
" style="fill:#0cba97;fill-opacity:0.8;"/>
    <path clip-path="url(#pa6454e7bc4)" d="M 549.670675 130.532523 
L 571.711209 135.305439 
L 571.809368 140.411812 
L 549.811682 135.620647 
z
" style="fill:#065d4c;fill-opacity:0.8;"/>
   </g>
   <g id="Poly3DCollection_21">
    <path clip-path="url(#pa6454e7bc4)" d="M 677.187844 124.890957 
L 677.151949 126.555381 
L 699.725785 131.272765 
L 699.776464 129.602371 
z
" style="fill:#0cba97;fill-opacity:0.8;"/>
    <path clip-path="url(#pa6454e7bc4)" d="M 664.796306 133.083863 
L 664.768109 134.758646 
L 677.151949 126.555381 
L 677.187844 124.890957 
z
" style="fill:#065d4c;fill-opacity:0.8;"/>
    <path clip-path="url(#pa6454e7bc4)" d="M 664.768109 134.758646 
L 687.487974 139.565532 
L 699.725785 131.272765 
L 677.151949 126.555381 
z
" style="fill:#0aa384;fill-opacity:0.8;"/>
    <path clip-path="url(#pa6454e7bc4)" d="M 664.796306 133.083863 
L 677.187844 124.890957 
L 699.776464 129.602371 
L 687.531149 137.884725 
z
" style="fill:#08745e;fill-opacity:0.8;"/>
    <path clip-path="url(#pa6454e7bc4)" d="M 687.531149 137.884725 
L 699.776464 129.602371 
L 699.725785 131.272765 
L 687.487974 139.565532 
z
" style="fill:#0cba97;fill-opacity:0.8;"/>
    <path clip-path="url(#pa6454e7bc4)" d="M 664.796306 133.083863 
L 687.531149 137.884725 
L 687.487974 139.565532 
L 664.768109 134.758646 
z
" style="fill:#065d4c;fill-opacity:0.8;"/>
   </g>
   <g id="Poly3DCollection_22">
    <path clip-path="url(#pa6454e7bc4)" d="M 594.329997 171.856359 
L 616.580803 176.847178 
L 629.435548 168.236965 
L 607.322559 163.33873 
z
" style="fill:#0aa384;fill-opacity:0.8;"/>
    <path clip-path="url(#pa6454e7bc4)" d="M 607.149708 131.806336 
L 607.322559 163.33873 
L 629.435548 168.236965 
L 629.53643 136.593194 
z
" style="fill:#0cba97;fill-opacity:0.8;"/>
    <path clip-path="url(#pa6454e7bc4)" d="M 593.993467 140.130701 
L 594.329997 171.856359 
L 607.322559 163.33873 
L 607.149708 131.806336 
z
" style="fill:#065d4c;fill-opacity:0.8;"/>
    <path clip-path="url(#pa6454e7bc4)" d="M 616.521448 145.009174 
L 629.53643 136.593194 
L 629.435548 168.236965 
L 616.580803 176.847178 
z
" style="fill:#0cba97;fill-opacity:0.8;"/>
    <path clip-path="url(#pa6454e7bc4)" d="M 593.993467 140.130701 
L 616.521448 145.009174 
L 616.580803 176.847178 
L 594.329997 171.856359 
z
" style="fill:#065d4c;fill-opacity:0.8;"/>
    <path clip-path="url(#pa6454e7bc4)" d="M 593.993467 140.130701 
L 607.149708 131.806336 
L 629.53643 136.593194 
L 616.521448 145.009174 
z
" style="fill:#08745e;fill-opacity:0.8;"/>
   </g>
   <g id="Poly3DCollection_23">
    <path clip-path="url(#pa6454e7bc4)" d="M 722.611205 134.36512 
L 722.611205 134.36512 
L 745.696111 139.180046 
L 745.696111 139.180046 
z
" style="fill:#065d4c;fill-opacity:0.8;"/>
    <path clip-path="url(#pa6454e7bc4)" d="M 710.516065 142.738394 
L 710.516065 142.738394 
L 722.611205 134.36512 
L 722.611205 134.36512 
z
" style="fill:#065d4c;fill-opacity:0.8;"/>
    <path clip-path="url(#pa6454e7bc4)" d="M 710.516065 142.738394 
L 722.611205 134.36512 
L 745.696111 139.180046 
L 733.755203 147.645746 
z
" style="fill:#08745e;fill-opacity:0.8;"/>
    <path clip-path="url(#pa6454e7bc4)" d="M 710.516065 142.738394 
L 733.755203 147.645746 
L 745.696111 139.180046 
L 722.611205 134.36512 
z
" style="fill:#0aa384;fill-opacity:0.8;"/>
    <path clip-path="url(#pa6454e7bc4)" d="M 733.755203 147.645746 
L 745.696111 139.180046 
L 745.696111 139.180046 
L 733.755203 147.645746 
z
" style="fill:#065d4c;fill-opacity:0.8;"/>
    <path clip-path="url(#pa6454e7bc4)" d="M 710.516065 142.738394 
L 733.755203 147.645746 
L 733.755203 147.645746 
L 710.516065 142.738394 
z
" style="fill:#065d4c;fill-opacity:0.8;"/>
   </g>
   <g id="Poly3DCollection_24">
    <path clip-path="url(#pa6454e7bc4)" d="M 652.169035 141.432628 
L 652.169035 141.432628 
L 675.051595 146.32551 
L 675.051595 146.32551 
z
" style="fill:#065d4c;fill-opacity:0.8;"/>
    <path clip-path="url(#pa6454e7bc4)" d="M 639.299238 149.941744 
L 639.299238 149.941744 
L 652.169035 141.432628 
L 652.169035 141.432628 
z
" style="fill:#065d4c;fill-opacity:0.8;"/>
    <path clip-path="url(#pa6454e7bc4)" d="M 639.299238 149.941744 
L 652.169035 141.432628 
L 675.051595 146.32551 
L 662.331017 154.929316 
z
" style="fill:#08745e;fill-opacity:0.8;"/>
    <path clip-path="url(#pa6454e7bc4)" d="M 639.299238 149.941744 
L 662.331017 154.929316 
L 675.051595 146.32551 
L 652.169035 141.432628 
z
" style="fill:#0aa384;fill-opacity:0.8;"/>
    <path clip-path="url(#pa6454e7bc4)" d="M 662.331017 154.929316 
L 675.051595 146.32551 
L 675.051595 146.32551 
L 662.331017 154.929316 
z
" style="fill:#065d4c;fill-opacity:0.8;"/>
    <path clip-path="url(#pa6454e7bc4)" d="M 639.299238 149.941744 
L 662.331017 154.929316 
L 662.331017 154.929316 
L 639.299238 149.941744 
z
" style="fill:#065d4c;fill-opacity:0.8;"/>
   </g>
   <g id="Poly3DCollection_25">
    <path clip-path="url(#pa6454e7bc4)" d="M 535.988608 138.832593 
L 535.648291 128.554778 
L 557.910732 133.381602 
L 558.163995 143.696722 
z
" style="fill:#065d4c;fill-opacity:0.8;"/>
    <path clip-path="url(#pa6454e7bc4)" d="M 522.044535 147.291606 
L 521.644796 136.94905 
L 535.648291 128.554778 
L 535.988608 138.832593 
z
" style="fill:#0cba97;fill-opacity:0.8;"/>
    <path clip-path="url(#pa6454e7bc4)" d="M 522.044535 147.291606 
L 535.988608 138.832593 
L 558.163995 143.696722 
L 544.355915 152.249589 
z
" style="fill:#08745e;fill-opacity:0.8;"/>
    <path clip-path="url(#pa6454e7bc4)" d="M 521.644796 136.94905 
L 544.044291 141.869385 
L 557.910732 133.381602 
L 535.648291 128.554778 
z
" style="fill:#0aa384;fill-opacity:0.8;"/>
    <path clip-path="url(#pa6454e7bc4)" d="M 544.355915 152.249589 
L 558.163995 143.696722 
L 557.910732 133.381602 
L 544.044291 141.869385 
z
" style="fill:#065d4c;fill-opacity:0.8;"/>
    <path clip-path="url(#pa6454e7bc4)" d="M 522.044535 147.291606 
L 544.355915 152.249589 
L 544.044291 141.869385 
L 521.644796 136.94905 
z
" style="fill:#0cba97;fill-opacity:0.8;"/>
   </g>
   <g id="Poly3DCollection_26">
    <path clip-path="url(#pa6454e7bc4)" d="M 580.584917 148.61471 
L 580.584917 148.61471 
L 603.255475 153.587454 
L 603.255475 153.587454 
z
" style="fill:#065d4c;fill-opacity:0.8;"/>
    <path clip-path="url(#pa6454e7bc4)" d="M 566.916729 157.263 
L 566.916729 157.263 
L 580.584917 148.61471 
L 580.584917 148.61471 
z
" style="fill:#065d4c;fill-opacity:0.8;"/>
    <path clip-path="url(#pa6454e7bc4)" d="M 566.916729 157.263 
L 589.731181 162.332774 
L 603.255475 153.587454 
L 580.584917 148.61471 
z
" style="fill:#0aa384;fill-opacity:0.8;"/>
    <path clip-path="url(#pa6454e7bc4)" d="M 566.916729 157.263 
L 580.584917 148.61471 
L 603.255475 153.587454 
L 589.731181 162.332774 
z
" style="fill:#08745e;fill-opacity:0.8;"/>
    <path clip-path="url(#pa6454e7bc4)" d="M 589.731181 162.332774 
L 603.255475 153.587454 
L 603.255475 153.587454 
L 589.731181 162.332774 
z
" style="fill:#065d4c;fill-opacity:0.8;"/>
    <path clip-path="url(#pa6454e7bc4)" d="M 566.916729 157.263 
L 589.731181 162.332774 
L 589.731181 162.332774 
L 566.916729 157.263 
z
" style="fill:#065d4c;fill-opacity:0.8;"/>
   </g>
   <g id="Poly3DCollection_27">
    <path clip-path="url(#pa6454e7bc4)" d="M 698.188274 151.272728 
L 698.239225 149.57305 
L 721.650157 154.569353 
L 721.583329 156.275193 
z
" style="fill:#065d4c;fill-opacity:0.8;"/>
    <path clip-path="url(#pa6454e7bc4)" d="M 685.621055 159.972814 
L 685.664091 158.262443 
L 698.239225 149.57305 
L 698.188274 151.272728 
z
" style="fill:#0cba97;fill-opacity:0.8;"/>
    <path clip-path="url(#pa6454e7bc4)" d="M 685.621055 159.972814 
L 698.188274 151.272728 
L 721.583329 156.275193 
L 709.173721 165.073186 
z
" style="fill:#08745e;fill-opacity:0.8;"/>
    <path clip-path="url(#pa6454e7bc4)" d="M 685.664091 158.262443 
L 709.232851 163.356596 
L 721.650157 154.569353 
L 698.239225 149.57305 
z
" style="fill:#0aa384;fill-opacity:0.8;"/>
    <path clip-path="url(#pa6454e7bc4)" d="M 709.173721 165.073186 
L 721.583329 156.275193 
L 721.650157 154.569353 
L 709.232851 163.356596 
z
" style="fill:#065d4c;fill-opacity:0.8;"/>
    <path clip-path="url(#pa6454e7bc4)" d="M 685.621055 159.972814 
L 709.173721 165.073186 
L 709.232851 163.356596 
L 685.664091 158.262443 
z
" style="fill:#0cba97;fill-opacity:0.8;"/>
   </g>
   <g id="Poly3DCollection_28">
    <path clip-path="url(#pa6454e7bc4)" d="M 507.830857 155.914172 
L 507.830857 155.914172 
L 530.279362 160.968751 
L 530.279362 160.968751 
z
" style="fill:#065d4c;fill-opacity:0.8;"/>
    <path clip-path="url(#pa6454e7bc4)" d="M 493.33968 164.70508 
L 493.33968 164.70508 
L 507.830857 155.914172 
L 507.830857 155.914172 
z
" style="fill:#065d4c;fill-opacity:0.8;"/>
    <path clip-path="url(#pa6454e7bc4)" d="M 493.33968 164.70508 
L 507.830857 155.914172 
L 530.279362 160.968751 
L 515.926429 169.859105 
z
" style="fill:#08745e;fill-opacity:0.8;"/>
    <path clip-path="url(#pa6454e7bc4)" d="M 493.33968 164.70508 
L 515.926429 169.859105 
L 530.279362 160.968751 
L 507.830857 155.914172 
z
" style="fill:#0aa384;fill-opacity:0.8;"/>
    <path clip-path="url(#pa6454e7bc4)" d="M 515.926429 169.859105 
L 530.279362 160.968751 
L 530.279362 160.968751 
L 515.926429 169.859105 
z
" style="fill:#065d4c;fill-opacity:0.8;"/>
    <path clip-path="url(#pa6454e7bc4)" d="M 493.33968 164.70508 
L 515.926429 169.859105 
L 515.926429 169.859105 
L 493.33968 164.70508 
z
" style="fill:#065d4c;fill-opacity:0.8;"/>
   </g>
   <g id="Poly3DCollection_29">
    <path clip-path="url(#pa6454e7bc4)" d="M 552.981287 166.08039 
L 553.259977 176.478936 
L 576.127043 181.68619 
L 575.940946 171.250062 
z
" style="fill:#0cba97;fill-opacity:0.8;"/>
    <path clip-path="url(#pa6454e7bc4)" d="M 538.770675 175.071889 
L 539.110633 185.535645 
L 553.259977 176.478936 
L 552.981287 166.08039 
z
" style="fill:#065d4c;fill-opacity:0.8;"/>
    <path clip-path="url(#pa6454e7bc4)" d="M 539.110633 185.535645 
L 562.123038 190.846096 
L 576.127043 181.68619 
L 553.259977 176.478936 
z
" style="fill:#0aa384;fill-opacity:0.8;"/>
    <path clip-path="url(#pa6454e7bc4)" d="M 538.770675 175.071889 
L 552.981287 166.08039 
L 575.940946 171.250062 
L 561.876847 180.344441 
z
" style="fill:#08745e;fill-opacity:0.8;"/>
    <path clip-path="url(#pa6454e7bc4)" d="M 561.876847 180.344441 
L 575.940946 171.250062 
L 576.127043 181.68619 
L 562.123038 190.846096 
z
" style="fill:#0cba97;fill-opacity:0.8;"/>
    <path clip-path="url(#pa6454e7bc4)" d="M 538.770675 175.071889 
L 561.876847 180.344441 
L 562.123038 190.846096 
L 539.110633 185.535645 
z
" style="fill:#065d4c;fill-opacity:0.8;"/>
   </g>
   <g id="Poly3DCollection_30">
    <path clip-path="url(#pa6454e7bc4)" d="M 672.807364 168.84353 
L 672.722539 173.038971 
L 696.394758 178.255382 
L 696.519347 174.044709 
z
" style="fill:#0cba97;fill-opacity:0.8;"/>
    <path clip-path="url(#pa6454e7bc4)" d="M 659.739878 177.889943 
L 659.675954 182.111815 
L 672.722539 173.038971 
L 672.807364 168.84353 
z
" style="fill:#065d4c;fill-opacity:0.8;"/>
    <path clip-path="url(#pa6454e7bc4)" d="M 659.675954 182.111815 
L 683.508659 187.432181 
L 696.394758 178.255382 
L 672.722539 173.038971 
z
" style="fill:#0aa384;fill-opacity:0.8;"/>
    <path clip-path="url(#pa6454e7bc4)" d="M 659.739878 177.889943 
L 672.807364 168.84353 
L 696.519347 174.044709 
L 683.612893 183.194948 
z
" style="fill:#08745e;fill-opacity:0.8;"/>
    <path clip-path="url(#pa6454e7bc4)" d="M 683.612893 183.194948 
L 696.519347 174.044709 
L 696.394758 178.255382 
L 683.508659 187.432181 
z
" style="fill:#0cba97;fill-opacity:0.8;"/>
    <path clip-path="url(#pa6454e7bc4)" d="M 659.739878 177.889943 
L 683.612893 183.194948 
L 683.508659 187.432181 
L 659.675954 182.111815 
z
" style="fill:#065d4c;fill-opacity:0.8;"/>
   </g>
   <g id="Poly3DCollection_31">
    <path clip-path="url(#pa6454e7bc4)" d="M 612.803574 167.459867 
L 626.179862 158.615875 
L 649.362363 163.700913 
L 636.138306 172.645257 
z
" style="fill:#08745e;fill-opacity:0.8;"/>
    <path clip-path="url(#pa6454e7bc4)" d="M 626.179862 158.615875 
L 626.242613 125.63894 
L 649.726143 130.601872 
L 649.362363 163.700913 
z
" style="fill:#065d4c;fill-opacity:0.8;"/>
    <path clip-path="url(#pa6454e7bc4)" d="M 612.803574 167.459867 
L 612.692733 134.271026 
L 626.242613 125.63894 
L 626.179862 158.615875 
z
" style="fill:#0cba97;fill-opacity:0.8;"/>
    <path clip-path="url(#pa6454e7bc4)" d="M 636.138306 172.645257 
L 649.362363 163.700913 
L 649.726143 130.601872 
L 636.332491 139.333185 
z
" style="fill:#065d4c;fill-opacity:0.8;"/>
    <path clip-path="url(#pa6454e7bc4)" d="M 612.803574 167.459867 
L 636.138306 172.645257 
L 636.332491 139.333185 
L 612.692733 134.271026 
z
" style="fill:#0cba97;fill-opacity:0.8;"/>
    <path clip-path="url(#pa6454e7bc4)" d="M 612.692733 134.271026 
L 636.332491 139.333185 
L 649.726143 130.601872 
L 626.242613 125.63894 
z
" style="fill:#0aa384;fill-opacity:0.8;"/>
   </g>
   <g id="Poly3DCollection_32">
    <path clip-path="url(#pa6454e7bc4)" d="M 599.162753 176.47876 
L 599.116681 171.197353 
L 622.654023 176.46677 
L 622.651226 181.767502 
z
" style="fill:#065d4c;fill-opacity:0.8;"/>
    <path clip-path="url(#pa6454e7bc4)" d="M 585.249475 185.677794 
L 585.173713 180.362856 
L 599.116681 171.197353 
L 599.162753 176.47876 
z
" style="fill:#0cba97;fill-opacity:0.8;"/>
    <path clip-path="url(#pa6454e7bc4)" d="M 585.249475 185.677794 
L 599.162753 176.47876 
L 622.651226 181.767502 
L 608.893196 191.073008 
z
" style="fill:#08745e;fill-opacity:0.8;"/>
    <path clip-path="url(#pa6454e7bc4)" d="M 585.173713 180.362856 
L 608.866951 185.738581 
L 622.654023 176.46677 
L 599.116681 171.197353 
z
" style="fill:#0aa384;fill-opacity:0.8;"/>
    <path clip-path="url(#pa6454e7bc4)" d="M 608.893196 191.073008 
L 622.651226 181.767502 
L 622.654023 176.46677 
L 608.866951 185.738581 
z
" style="fill:#065d4c;fill-opacity:0.8;"/>
    <path clip-path="url(#pa6454e7bc4)" d="M 585.249475 185.677794 
L 608.893196 191.073008 
L 608.866951 185.738581 
L 585.173713 180.362856 
z
" style="fill:#0cba97;fill-opacity:0.8;"/>
   </g>
   <g id="Poly3DCollection_33">
    <path clip-path="url(#pa6454e7bc4)" d="M 646.410982 187.117326 
L 646.416728 186.538443 
L 670.458063 191.948298 
L 670.44675 192.529298 
z
" style="fill:#065d4c;fill-opacity:0.8;"/>
    <path clip-path="url(#pa6454e7bc4)" d="M 632.812753 196.531165 
L 632.815412 195.948608 
L 646.416728 186.538443 
L 646.410982 187.117326 
z
" style="fill:#0cba97;fill-opacity:0.8;"/>
    <path clip-path="url(#pa6454e7bc4)" d="M 632.812753 196.531165 
L 646.410982 187.117326 
L 670.44675 192.529298 
L 657.013001 202.053372 
z
" style="fill:#08745e;fill-opacity:0.8;"/>
    <path clip-path="url(#pa6454e7bc4)" d="M 632.815412 195.948608 
L 657.021305 201.468681 
L 670.458063 191.948298 
L 646.416728 186.538443 
z
" style="fill:#0aa384;fill-opacity:0.8;"/>
    <path clip-path="url(#pa6454e7bc4)" d="M 657.013001 202.053372 
L 670.44675 192.529298 
L 670.458063 191.948298 
L 657.021305 201.468681 
z
" style="fill:#065d4c;fill-opacity:0.8;"/>
    <path clip-path="url(#pa6454e7bc4)" d="M 632.812753 196.531165 
L 657.013001 202.053372 
L 657.021305 201.468681 
L 632.815412 195.948608 
z
" style="fill:#0cba97;fill-opacity:0.8;"/>
   </g>
   <g id="Poly3DCollection_34">
    <path clip-path="url(#pa6454e7bc4)" d="M 480.338675 166.020089 
L 660.804463 207.394755 
L 757.942565 137.941357 
L 586.184142 102.270204 
z
" style="fill-opacity:0.2;"/>
   </g>
  </g>
 </g>
 <defs>
  <clipPath id="peb789aedfd">
   <rect height="277.2" width="380.454545" x="-30.6" y="-14.4"/>
  </clipPath>
  <clipPath id="pa6454e7bc4">
   <rect height="277.2" width="380.454545" x="425.945455" y="-14.4"/>
  </clipPath>
 </defs>
</svg>
