<?xml version="1.0" encoding="utf-8" standalone="no"?>
<!DOCTYPE svg PUBLIC "-//W3C//DTD SVG 1.1//EN"
  "http://www.w3.org/Graphics/SVG/1.1/DTD/svg11.dtd">
<!-- Created with matplotlib (https://matplotlib.org/) -->
<svg height="302.4pt" version="1.1" viewBox="0 0 820.8 302.4" width="820.8pt" xmlns="http://www.w3.org/2000/svg" xmlns:xlink="http://www.w3.org/1999/xlink">
 <defs>
  <style type="text/css">
*{stroke-linecap:butt;stroke-linejoin:round;}
  </style>
 </defs>
 <g id="figure_1">
  <g id="patch_1">
   <path d="M 0 302.4 
L 820.8 302.4 
L 820.8 0 
L 0 0 
z
" style="fill:#ffffff;"/>
  </g>
  <g id="patch_2">
   <path d="M -30.6 262.8 
L 349.854545 262.8 
L 349.854545 -14.4 
L -30.6 -14.4 
z
" style="fill:#ffffff;"/>
  </g>
  <g id="pane3d_1">
   <g id="patch_3">
    <path d="M 19.835129 201.548569 
L 128.723211 133.58541 
L 126.910339 3.718968 
L 11.951034 64.782468 
" style="fill:#f2f2f2;opacity:0.5;stroke:#f2f2f2;stroke-linejoin:miter;"/>
   </g>
  </g>
  <g id="pane3d_2">
   <g id="patch_4">
    <path d="M 128.723211 133.58541 
L 305.111665 171.581202 
L 312.491547 37.79869 
L 126.910339 3.718968 
" style="fill:#e6e6e6;opacity:0.5;stroke:#e6e6e6;stroke-linejoin:miter;"/>
   </g>
  </g>
  <g id="pane3d_3">
   <g id="patch_5">
    <path d="M 19.835129 201.548569 
L 205.419617 245.80086 
L 305.111665 171.581202 
L 128.723211 133.58541 
" style="fill:#ececec;opacity:0.5;stroke:#ececec;stroke-linejoin:miter;"/>
   </g>
  </g>
  <g id="axis3d_1">
   <g id="line2d_1">
    <path d="M 19.835129 201.548569 
L 205.419617 245.80086 
" style="fill:none;stroke:#000000;stroke-linecap:square;stroke-width:0.8;"/>
   </g>
   <g id="Line3DCollection_1">
    <path d="M 42.295817 206.90428 
L 150.133942 138.19749 
L 149.393845 7.847789 
" style="fill:none;stroke:#b0b0b0;stroke-width:0.8;"/>
    <path d="M 87.512337 217.686079 
L 193.184014 147.470895 
L 194.636898 16.156123 
" style="fill:none;stroke:#b0b0b0;stroke-width:0.8;"/>
    <path d="M 133.765289 228.715013 
L 237.148096 156.941187 
L 240.890183 24.649974 
" style="fill:none;stroke:#b0b0b0;stroke-width:0.8;"/>
    <path d="M 181.090721 239.999678 
L 282.055608 166.614702 
L 288.187917 33.335625 
" style="fill:none;stroke:#b0b0b0;stroke-width:0.8;"/>
   </g>
   <g id="xtick_1">
    <g id="line2d_2">
     <path d="M 43.225084 206.312217 
L 40.433807 208.09062 
" style="fill:none;stroke:#000000;stroke-linecap:square;stroke-width:0.8;"/>
    </g>
    <g id="text_1">
     <!-- 00 -->
     <defs>
      <path d="M 42 31.84375 
C 42 37.96875 41.90625 48.421875 37.703125 56.453125 
C 34 63.484375 28.09375 66 22.90625 66 
C 18.09375 66 12 63.78125 8.203125 56.5625 
C 4.203125 49.015625 3.796875 39.671875 3.796875 31.84375 
C 3.796875 26.109375 3.90625 17.375 7 9.734375 
C 11.296875 -0.609375 19 -2 22.90625 -2 
C 27.5 -2 34.5 -0.109375 38.59375 9.4375 
C 41.59375 16.375 42 24.5 42 31.84375 
z
M 22.90625 -0.40625 
C 16.5 -0.40625 12.703125 5.125 11.296875 12.75 
C 10.203125 18.6875 10.203125 27.328125 10.203125 32.953125 
C 10.203125 40.6875 10.203125 47.109375 11.5 53.234375 
C 13.40625 61.78125 19 64.390625 22.90625 64.390625 
C 27 64.390625 32.296875 61.671875 34.203125 53.4375 
C 35.5 47.71875 35.59375 40.984375 35.59375 32.953125 
C 35.59375 26.421875 35.59375 18.375 34.40625 12.453125 
C 32.296875 1.5 26.40625 -0.40625 22.90625 -0.40625 
z
" id="CMR17-48"/>
     </defs>
     <g transform="translate(16.108553 247.89009)rotate(-45)scale(0.24 -0.24)">
      <use transform="scale(0.996264)" xlink:href="#CMR17-48"/>
      <use transform="translate(45.690477 0)scale(0.996264)" xlink:href="#CMR17-48"/>
     </g>
    </g>
   </g>
   <g id="xtick_2">
    <g id="line2d_3">
     <path d="M 88.423674 217.080527 
L 85.686217 218.899473 
" style="fill:none;stroke:#000000;stroke-linecap:square;stroke-width:0.8;"/>
    </g>
    <g id="text_2">
     <!-- 01 -->
     <defs>
      <path d="M 26.59375 63.796875 
C 26.59375 65.890625 26.5 66 25.09375 66 
C 21.203125 61.359375 15.296875 59.890625 9.703125 59.6875 
C 9.40625 59.6875 8.90625 59.6875 8.796875 59.5 
C 8.703125 59.296875 8.703125 59.09375 8.703125 57 
C 11.796875 57 17 57.59375 21 59.984375 
L 21 7.296875 
C 21 3.796875 20.796875 2.59375 12.203125 2.59375 
L 9.203125 2.59375 
L 9.203125 0 
C 14 0.09375 19 0.1875 23.796875 0.1875 
C 28.59375 0.1875 33.59375 0.09375 38.40625 0 
L 38.40625 2.59375 
L 35.40625 2.59375 
C 26.796875 2.59375 26.59375 3.6875 26.59375 7.296875 
z
" id="CMR17-49"/>
     </defs>
     <g transform="translate(61.320978 258.846842)rotate(-45)scale(0.24 -0.24)">
      <use transform="scale(0.996264)" xlink:href="#CMR17-48"/>
      <use transform="translate(45.690477 0)scale(0.996264)" xlink:href="#CMR17-49"/>
     </g>
    </g>
   </g>
   <g id="xtick_3">
    <g id="line2d_4">
     <path d="M 134.657625 228.095506 
L 131.977203 229.956397 
" style="fill:none;stroke:#000000;stroke-linecap:square;stroke-width:0.8;"/>
    </g>
    <g id="text_3">
     <!-- 10 -->
     <g transform="translate(107.571591 270.055188)rotate(-45)scale(0.24 -0.24)">
      <use transform="scale(0.996264)" xlink:href="#CMR17-49"/>
      <use transform="translate(45.690477 0)scale(0.996264)" xlink:href="#CMR17-48"/>
     </g>
    </g>
   </g>
   <g id="xtick_4">
    <g id="line2d_5">
     <path d="M 181.962926 239.365727 
L 179.342936 241.270032 
" style="fill:none;stroke:#000000;stroke-linecap:square;stroke-width:0.8;"/>
    </g>
    <g id="text_4">
     <!-- 11 -->
     <g transform="translate(154.896566 281.523893)rotate(-45)scale(0.24 -0.24)">
      <use transform="scale(0.996264)" xlink:href="#CMR17-49"/>
      <use transform="translate(45.690477 0)scale(0.996264)" xlink:href="#CMR17-49"/>
     </g>
    </g>
   </g>
  </g>
  <g id="axis3d_2">
   <g id="line2d_6">
    <path d="M 305.111665 171.581202 
L 205.419617 245.80086 
" style="fill:none;stroke:#000000;stroke-linecap:square;stroke-width:0.8;"/>
   </g>
   <g id="Line3DCollection_2">
    <path d="M 27.455231 56.547028 
L 34.471044 192.413474 
L 218.858418 235.795817 
" style="fill:none;stroke:#b0b0b0;stroke-width:0.8;"/>
    <path d="M 57.232024 40.730342 
L 62.623407 174.842005 
L 244.674037 216.576366 
" style="fill:none;stroke:#b0b0b0;stroke-width:0.8;"/>
    <path d="M 85.85589 25.526062 
L 89.739382 157.917404 
L 269.496985 198.095948 
" style="fill:none;stroke:#b0b0b0;stroke-width:0.8;"/>
    <path d="M 113.392516 10.899296 
L 115.875164 141.604597 
L 293.383438 180.312741 
" style="fill:none;stroke:#b0b0b0;stroke-width:0.8;"/>
   </g>
   <g id="xtick_5">
    <g id="line2d_7">
     <path d="M 217.315598 235.432825 
L 221.947489 236.522608 
" style="fill:none;stroke:#000000;stroke-linecap:square;stroke-width:0.8;"/>
    </g>
    <g id="text_5">
     <!-- 00 -->
     <g transform="translate(233.392289 249.065483)rotate(-337.5)scale(0.24 -0.24)">
      <use transform="scale(0.996264)" xlink:href="#CMR17-48"/>
      <use transform="translate(45.690477 0)scale(0.996264)" xlink:href="#CMR17-48"/>
     </g>
    </g>
   </g>
   <g id="xtick_6">
    <g id="line2d_8">
     <path d="M 243.15208 216.227463 
L 247.72127 217.274932 
" style="fill:none;stroke:#000000;stroke-linecap:square;stroke-width:0.8;"/>
    </g>
    <g id="text_6">
     <!-- 01 -->
     <g transform="translate(258.94584 229.621057)rotate(-337.5)scale(0.24 -0.24)">
      <use transform="scale(0.996264)" xlink:href="#CMR17-48"/>
      <use transform="translate(45.690477 0)scale(0.996264)" xlink:href="#CMR17-49"/>
     </g>
    </g>
   </g>
   <g id="xtick_7">
    <g id="line2d_9">
     <path d="M 267.995442 197.76033 
L 272.503283 198.767901 
" style="fill:none;stroke:#000000;stroke-linecap:square;stroke-width:0.8;"/>
    </g>
    <g id="text_7">
     <!-- 10 -->
     <g transform="translate(283.517252 210.923969)rotate(-337.5)scale(0.24 -0.24)">
      <use transform="scale(0.996264)" xlink:href="#CMR17-49"/>
      <use transform="translate(45.690477 0)scale(0.996264)" xlink:href="#CMR17-48"/>
     </g>
    </g>
   </g>
   <g id="xtick_8">
    <g id="line2d_10">
     <path d="M 291.901865 179.989663 
L 296.349691 180.959573 
" style="fill:none;stroke:#000000;stroke-linecap:square;stroke-width:0.8;"/>
    </g>
    <g id="text_8">
     <!-- 11 -->
     <g transform="translate(307.162078 192.931947)rotate(-337.5)scale(0.24 -0.24)">
      <use transform="scale(0.996264)" xlink:href="#CMR17-49"/>
      <use transform="translate(45.690477 0)scale(0.996264)" xlink:href="#CMR17-49"/>
     </g>
    </g>
   </g>
  </g>
  <g id="axis3d_3">
   <g id="line2d_11">
    <path d="M 305.111665 171.581202 
L 312.491547 37.79869 
" style="fill:none;stroke:#000000;stroke-linecap:square;stroke-width:0.8;"/>
   </g>
   <g id="Line3DCollection_3">
    <path d="M 305.252029 169.036678 
L 128.688656 131.110086 
L 19.685428 198.951687 
" style="fill:none;stroke:#b0b0b0;stroke-width:0.8;"/>
    <path d="M 307.999347 119.233295 
L 128.012909 82.702431 
L 16.753385 148.089275 
" style="fill:none;stroke:#b0b0b0;stroke-width:0.8;"/>
    <path d="M 310.856262 67.443132 
L 127.311367 32.446895 
L 13.700388 95.128663 
" style="fill:none;stroke:#b0b0b0;stroke-width:0.8;"/>
   </g>
   <g id="xtick_9">
    <g id="line2d_12">
     <path d="M 303.77886 168.720235 
L 308.201432 169.670223 
" style="fill:none;stroke:#000000;stroke-linecap:square;stroke-width:0.8;"/>
    </g>
    <g id="text_9">
     <!-- $0.0$ -->
     <defs>
      <path d="M 18.40625 4.796875 
C 18.40625 7.6875 16 9.6875 13.59375 9.6875 
C 10.703125 9.6875 8.703125 7.296875 8.703125 4.890625 
C 8.703125 2 11.09375 0 13.5 0 
C 16.40625 0 18.40625 2.390625 18.40625 4.796875 
z
" id="CMMI12-58"/>
     </defs>
     <g transform="translate(309.562437 183.700174)scale(0.24 -0.24)">
      <use transform="scale(0.996264)" xlink:href="#CMR17-48"/>
      <use transform="translate(45.690477 0)scale(0.996264)" xlink:href="#CMMI12-58"/>
      <use transform="translate(72.787654 0)scale(0.996264)" xlink:href="#CMR17-48"/>
     </g>
    </g>
   </g>
   <g id="xtick_10">
    <g id="line2d_13">
     <path d="M 306.496409 118.928252 
L 311.008412 119.844028 
" style="fill:none;stroke:#000000;stroke-linecap:square;stroke-width:0.8;"/>
    </g>
    <g id="text_10">
     <!-- $0.2$ -->
     <defs>
      <path d="M 41.703125 15.46875 
L 39.90625 15.46875 
C 38.90625 8.390625 38.09375 7.1875 37.703125 6.59375 
C 37.203125 5.796875 30 5.796875 28.59375 5.796875 
L 9.40625 5.796875 
C 13 9.6875 20 16.765625 28.5 24.9375 
C 34.59375 30.71875 41.703125 37.5 41.703125 47.390625 
C 41.703125 59.1875 32.296875 66 21.796875 66 
C 10.796875 66 4.09375 56.296875 4.09375 47.296875 
C 4.09375 43.390625 7 42.890625 8.203125 42.890625 
C 9.203125 42.890625 12.203125 43.484375 12.203125 46.984375 
C 12.203125 50.09375 9.59375 51 8.203125 51 
C 7.59375 51 7 50.890625 6.59375 50.6875 
C 8.5 59.1875 14.296875 63.390625 20.40625 63.390625 
C 29.09375 63.390625 34.796875 56.5 34.796875 47.390625 
C 34.796875 38.703125 29.703125 31.21875 24 24.734375 
L 4.09375 2.296875 
L 4.09375 0 
L 39.296875 0 
z
" id="CMR17-50"/>
     </defs>
     <g transform="translate(312.665352 133.966778)scale(0.24 -0.24)">
      <use transform="scale(0.996264)" xlink:href="#CMR17-48"/>
      <use transform="translate(45.690477 0)scale(0.996264)" xlink:href="#CMMI12-58"/>
      <use transform="translate(72.787654 0)scale(0.996264)" xlink:href="#CMR17-50"/>
     </g>
    </g>
   </g>
   <g id="xtick_11">
    <g id="line2d_14">
     <path d="M 309.322328 67.150659 
L 313.92745 68.028711 
" style="fill:none;stroke:#000000;stroke-linecap:square;stroke-width:0.8;"/>
    </g>
    <g id="text_11">
     <!-- $0.4$ -->
     <defs>
      <path d="M 33.59375 64.796875 
C 33.59375 66.890625 33.5 67 31.703125 67 
L 2 19.59375 
L 2 17 
L 27.796875 17 
L 27.796875 7.1875 
C 27.796875 3.59375 27.59375 2.59375 20.59375 2.59375 
L 18.703125 2.59375 
L 18.703125 0 
C 21.90625 0.1875 27.296875 0.1875 30.703125 0.1875 
C 34.09375 0.1875 39.5 0.1875 42.703125 0 
L 42.703125 2.59375 
L 40.796875 2.59375 
C 33.796875 2.59375 33.59375 3.59375 33.59375 7.1875 
L 33.59375 17 
L 43.796875 17 
L 43.796875 19.59375 
L 33.59375 19.59375 
z
M 28.09375 58.171875 
L 28.09375 19.59375 
L 4 19.59375 
z
" id="CMR17-52"/>
     </defs>
     <g transform="translate(315.891777 82.253777)scale(0.24 -0.24)">
      <use transform="scale(0.996264)" xlink:href="#CMR17-48"/>
      <use transform="translate(45.690477 0)scale(0.996264)" xlink:href="#CMMI12-58"/>
      <use transform="translate(72.787654 0)scale(0.996264)" xlink:href="#CMR17-52"/>
     </g>
    </g>
   </g>
  </g>
  <g id="axes_1">
   <g id="Poly3DCollection_1">
    <path clip-path="url(#pf716e4231c)" d="M 133.051747 137.476151 
L 132.794874 116.59503 
L 154.354585 121.14481 
L 154.438688 142.098609 
z
" style="fill:#5d0618;fill-opacity:0.8;"/>
    <path clip-path="url(#pf716e4231c)" d="M 120.271134 145.513314 
L 133.051747 137.476151 
L 154.438688 142.098609 
L 141.786381 150.220613 
z
" style="fill:#74081d;fill-opacity:0.8;"/>
    <path clip-path="url(#pf716e4231c)" d="M 120.271134 145.513314 
L 119.907441 124.506075 
L 132.794874 116.59503 
L 133.051747 137.476151 
z
" style="fill:#ba0c2f;fill-opacity:0.8;"/>
    <path clip-path="url(#pf716e4231c)" d="M 141.786381 150.220613 
L 154.438688 142.098609 
L 154.354585 121.14481 
L 141.597538 129.14005 
z
" style="fill:#5d0618;fill-opacity:0.8;"/>
    <path clip-path="url(#pf716e4231c)" d="M 119.907441 124.506075 
L 141.597538 129.14005 
L 154.354585 121.14481 
L 132.794874 116.59503 
z
" style="fill:#a30a29;fill-opacity:0.8;"/>
    <path clip-path="url(#pf716e4231c)" d="M 120.271134 145.513314 
L 141.786381 150.220613 
L 141.597538 129.14005 
L 119.907441 124.506075 
z
" style="fill:#ba0c2f;fill-opacity:0.8;"/>
   </g>
   <g id="Poly3DCollection_2">
    <path clip-path="url(#pf716e4231c)" d="M 176.050954 146.769767 
L 176.054138 146.044662 
L 197.901523 150.762793 
L 197.892125 151.4904 
z
" style="fill:#5d0618;fill-opacity:0.8;"/>
    <path clip-path="url(#pf716e4231c)" d="M 163.530392 154.977964 
L 163.530039 154.248518 
L 176.054138 146.044662 
L 176.050954 146.769767 
z
" style="fill:#ba0c2f;fill-opacity:0.8;"/>
    <path clip-path="url(#pf716e4231c)" d="M 163.530392 154.977964 
L 176.050954 146.769767 
L 197.892125 151.4904 
L 185.506836 159.786168 
z
" style="fill:#74081d;fill-opacity:0.8;"/>
    <path clip-path="url(#pf716e4231c)" d="M 163.530039 154.248518 
L 185.512775 159.054199 
L 197.901523 150.762793 
L 176.054138 146.044662 
z
" style="fill:#a30a29;fill-opacity:0.8;"/>
    <path clip-path="url(#pf716e4231c)" d="M 185.506836 159.786168 
L 197.892125 151.4904 
L 197.901523 150.762793 
L 185.512775 159.054199 
z
" style="fill:#5d0618;fill-opacity:0.8;"/>
    <path clip-path="url(#pf716e4231c)" d="M 163.530392 154.977964 
L 185.506836 159.786168 
L 185.512775 159.054199 
L 163.530039 154.248518 
z
" style="fill:#ba0c2f;fill-opacity:0.8;"/>
   </g>
   <g id="Poly3DCollection_3">
    <path clip-path="url(#pf716e4231c)" d="M 107.255484 153.698282 
L 107.254917 153.673022 
L 128.899799 158.467433 
L 128.900155 158.49278 
z
" style="fill:#5d0618;fill-opacity:0.8;"/>
    <path clip-path="url(#pf716e4231c)" d="M 93.998253 162.035168 
L 93.997549 162.009757 
L 107.254917 153.673022 
L 107.255484 153.698282 
z
" style="fill:#ba0c2f;fill-opacity:0.8;"/>
    <path clip-path="url(#pf716e4231c)" d="M 93.998253 162.035168 
L 107.255484 153.698282 
L 128.900155 158.49278 
L 115.773462 166.919311 
z
" style="fill:#74081d;fill-opacity:0.8;"/>
    <path clip-path="url(#pf716e4231c)" d="M 93.997549 162.009757 
L 115.772971 166.893812 
L 128.899799 158.467433 
L 107.254917 153.673022 
z
" style="fill:#a30a29;fill-opacity:0.8;"/>
    <path clip-path="url(#pf716e4231c)" d="M 115.773462 166.919311 
L 128.900155 158.49278 
L 128.899799 158.467433 
L 115.772971 166.893812 
z
" style="fill:#5d0618;fill-opacity:0.8;"/>
    <path clip-path="url(#pf716e4231c)" d="M 93.998253 162.035168 
L 115.773462 166.919311 
L 115.772971 166.893812 
L 93.997549 162.009757 
z
" style="fill:#ba0c2f;fill-opacity:0.8;"/>
   </g>
   <g id="Poly3DCollection_4">
    <path clip-path="url(#pf716e4231c)" d="M 219.965857 156.261297 
L 219.983535 155.441582 
L 242.30084 160.260715 
L 242.275884 161.083265 
z
" style="fill:#5d0618;fill-opacity:0.8;"/>
    <path clip-path="url(#pf716e4231c)" d="M 207.719458 164.646045 
L 207.733342 163.821409 
L 219.983535 155.441582 
L 219.965857 156.261297 
z
" style="fill:#ba0c2f;fill-opacity:0.8;"/>
    <path clip-path="url(#pf716e4231c)" d="M 207.719458 164.646045 
L 219.965857 156.261297 
L 242.275884 161.083265 
L 230.172089 169.558433 
z
" style="fill:#74081d;fill-opacity:0.8;"/>
    <path clip-path="url(#pf716e4231c)" d="M 207.733342 163.821409 
L 230.193345 168.730937 
L 242.30084 160.260715 
L 219.983535 155.441582 
z
" style="fill:#a30a29;fill-opacity:0.8;"/>
    <path clip-path="url(#pf716e4231c)" d="M 230.172089 169.558433 
L 242.275884 161.083265 
L 242.30084 160.260715 
L 230.193345 168.730937 
z
" style="fill:#5d0618;fill-opacity:0.8;"/>
    <path clip-path="url(#pf716e4231c)" d="M 207.719458 164.646045 
L 230.172089 169.558433 
L 230.193345 168.730937 
L 207.733342 163.821409 
z
" style="fill:#ba0c2f;fill-opacity:0.8;"/>
   </g>
   <g id="Poly3DCollection_5">
    <path clip-path="url(#pf716e4231c)" d="M 150.777105 163.33873 
L 150.775801 163.100939 
L 172.890854 167.99835 
L 172.890093 168.236965 
z
" style="fill:#5d0618;fill-opacity:0.8;"/>
    <path clip-path="url(#pf716e4231c)" d="M 137.784542 171.856359 
L 137.782005 171.617139 
L 150.775801 163.100939 
L 150.777105 163.33873 
z
" style="fill:#ba0c2f;fill-opacity:0.8;"/>
    <path clip-path="url(#pf716e4231c)" d="M 137.784542 171.856359 
L 150.777105 163.33873 
L 172.890093 168.236965 
L 160.035349 176.847178 
z
" style="fill:#74081d;fill-opacity:0.8;"/>
    <path clip-path="url(#pf716e4231c)" d="M 137.782005 171.617139 
L 160.034901 176.607126 
L 172.890854 167.99835 
L 150.775801 163.100939 
z
" style="fill:#a30a29;fill-opacity:0.8;"/>
    <path clip-path="url(#pf716e4231c)" d="M 160.035349 176.847178 
L 172.890093 168.236965 
L 172.890854 167.99835 
L 160.034901 176.607126 
z
" style="fill:#5d0618;fill-opacity:0.8;"/>
    <path clip-path="url(#pf716e4231c)" d="M 137.784542 171.856359 
L 160.035349 176.847178 
L 160.034901 176.607126 
L 137.782005 171.617139 
z
" style="fill:#ba0c2f;fill-opacity:0.8;"/>
   </g>
   <g id="Poly3DCollection_6">
    <path clip-path="url(#pf716e4231c)" d="M 80.492653 170.528244 
L 80.484432 170.279985 
L 102.393391 175.255448 
L 102.399507 175.504569 
z
" style="fill:#5d0618;fill-opacity:0.8;"/>
    <path clip-path="url(#pf716e4231c)" d="M 66.731637 179.181938 
L 66.721984 178.932184 
L 80.484432 170.279985 
L 80.492653 170.528244 
z
" style="fill:#ba0c2f;fill-opacity:0.8;"/>
    <path clip-path="url(#pf716e4231c)" d="M 66.731637 179.181938 
L 80.492653 170.528244 
L 102.399507 175.504569 
L 88.771239 184.25308 
z
" style="fill:#74081d;fill-opacity:0.8;"/>
    <path clip-path="url(#pf716e4231c)" d="M 66.721984 178.932184 
L 88.763715 184.002457 
L 102.393391 175.255448 
L 80.484432 170.279985 
z
" style="fill:#a30a29;fill-opacity:0.8;"/>
    <path clip-path="url(#pf716e4231c)" d="M 88.771239 184.25308 
L 102.399507 175.504569 
L 102.393391 175.255448 
L 88.763715 184.002457 
z
" style="fill:#5d0618;fill-opacity:0.8;"/>
    <path clip-path="url(#pf716e4231c)" d="M 66.731637 179.181938 
L 88.771239 184.25308 
L 88.763715 184.002457 
L 66.721984 178.932184 
z
" style="fill:#ba0c2f;fill-opacity:0.8;"/>
   </g>
   <g id="Poly3DCollection_7">
    <path clip-path="url(#pf716e4231c)" d="M 195.242961 173.188335 
L 195.246279 172.911562 
L 217.845442 177.915976 
L 217.839633 178.19371 
z
" style="fill:#5d0618;fill-opacity:0.8;"/>
    <path clip-path="url(#pf716e4231c)" d="M 182.529819 181.892649 
L 182.531771 181.614208 
L 195.246279 172.911562 
L 195.242961 173.188335 
z
" style="fill:#ba0c2f;fill-opacity:0.8;"/>
    <path clip-path="url(#pf716e4231c)" d="M 182.529819 181.892649 
L 195.242961 173.188335 
L 217.839633 178.19371 
L 205.271977 186.993677 
z
" style="fill:#74081d;fill-opacity:0.8;"/>
    <path clip-path="url(#pf716e4231c)" d="M 182.531771 181.614208 
L 205.276453 186.714266 
L 217.845442 177.915976 
L 195.246279 172.911562 
z
" style="fill:#a30a29;fill-opacity:0.8;"/>
    <path clip-path="url(#pf716e4231c)" d="M 205.271977 186.993677 
L 217.839633 178.19371 
L 217.845442 177.915976 
L 205.276453 186.714266 
z
" style="fill:#5d0618;fill-opacity:0.8;"/>
    <path clip-path="url(#pf716e4231c)" d="M 182.529819 181.892649 
L 205.271977 186.993677 
L 205.276453 186.714266 
L 182.531771 181.614208 
z
" style="fill:#ba0c2f;fill-opacity:0.8;"/>
   </g>
   <g id="Poly3DCollection_8">
    <path clip-path="url(#pf716e4231c)" d="M 124.545907 180.535308 
L 124.541471 180.255682 
L 146.933826 185.340761 
L 146.935803 185.62136 
z
" style="fill:#5d0618;fill-opacity:0.8;"/>
    <path clip-path="url(#pf716e4231c)" d="M 111.054142 189.380204 
L 111.048161 189.098889 
L 124.541471 180.255682 
L 124.545907 180.535308 
z
" style="fill:#ba0c2f;fill-opacity:0.8;"/>
    <path clip-path="url(#pf716e4231c)" d="M 111.054142 189.380204 
L 124.545907 180.535308 
L 146.935803 185.62136 
L 133.584397 194.564241 
z
" style="fill:#74081d;fill-opacity:0.8;"/>
    <path clip-path="url(#pf716e4231c)" d="M 111.048161 189.098889 
L 133.580905 194.281946 
L 146.933826 185.340761 
L 124.541471 180.255682 
z
" style="fill:#a30a29;fill-opacity:0.8;"/>
    <path clip-path="url(#pf716e4231c)" d="M 133.584397 194.564241 
L 146.935803 185.62136 
L 146.933826 185.340761 
L 133.580905 194.281946 
z
" style="fill:#5d0618;fill-opacity:0.8;"/>
    <path clip-path="url(#pf716e4231c)" d="M 111.054142 189.380204 
L 133.584397 194.564241 
L 133.580905 194.281946 
L 111.048161 189.098889 
z
" style="fill:#ba0c2f;fill-opacity:0.8;"/>
   </g>
   <g id="Poly3DCollection_9">
    <path clip-path="url(#pf716e4231c)" d="M 240.68412 183.253979 
L 240.709162 182.4186 
L 263.813361 187.531759 
L 263.78052 188.370049 
z
" style="fill:#5d0618;fill-opacity:0.8;"/>
    <path clip-path="url(#pf716e4231c)" d="M 228.265937 192.151184 
L 228.287083 191.310755 
L 240.709162 182.4186 
L 240.68412 183.253979 
z
" style="fill:#ba0c2f;fill-opacity:0.8;"/>
    <path clip-path="url(#pf716e4231c)" d="M 228.265937 192.151184 
L 240.68412 183.253979 
L 263.78052 188.370049 
L 251.515903 197.366112 
z
" style="fill:#74081d;fill-opacity:0.8;"/>
    <path clip-path="url(#pf716e4231c)" d="M 228.287083 191.310755 
L 251.544954 196.522749 
L 263.813361 187.531759 
L 240.709162 182.4186 
z
" style="fill:#a30a29;fill-opacity:0.8;"/>
    <path clip-path="url(#pf716e4231c)" d="M 251.515903 197.366112 
L 263.78052 188.370049 
L 263.813361 187.531759 
L 251.544954 196.522749 
z
" style="fill:#5d0618;fill-opacity:0.8;"/>
    <path clip-path="url(#pf716e4231c)" d="M 228.265937 192.151184 
L 251.515903 197.366112 
L 251.544954 196.522749 
L 228.287083 191.310755 
z
" style="fill:#ba0c2f;fill-opacity:0.8;"/>
   </g>
   <g id="Poly3DCollection_10">
    <path clip-path="url(#pf716e4231c)" d="M 169.573234 190.763642 
L 169.573695 190.5213 
L 192.464999 195.719903 
L 192.462326 195.96309 
z
" style="fill:#5d0618;fill-opacity:0.8;"/>
    <path clip-path="url(#pf716e4231c)" d="M 156.366146 199.806146 
L 156.365332 199.562338 
L 169.573695 190.5213 
L 169.573234 190.763642 
z
" style="fill:#ba0c2f;fill-opacity:0.8;"/>
    <path clip-path="url(#pf716e4231c)" d="M 156.366146 199.806146 
L 169.573234 190.763642 
L 192.462326 195.96309 
L 179.403624 205.106891 
z
" style="fill:#74081d;fill-opacity:0.8;"/>
    <path clip-path="url(#pf716e4231c)" d="M 156.365332 199.562338 
L 179.40505 204.862231 
L 192.464999 195.719903 
L 169.573695 190.5213 
z
" style="fill:#a30a29;fill-opacity:0.8;"/>
    <path clip-path="url(#pf716e4231c)" d="M 179.403624 205.106891 
L 192.462326 195.96309 
L 192.464999 195.719903 
L 179.40505 204.862231 
z
" style="fill:#5d0618;fill-opacity:0.8;"/>
    <path clip-path="url(#pf716e4231c)" d="M 156.366146 199.806146 
L 179.403624 205.106891 
L 179.40505 204.862231 
L 156.365332 199.562338 
z
" style="fill:#ba0c2f;fill-opacity:0.8;"/>
   </g>
   <g id="Poly3DCollection_11">
    <path clip-path="url(#pf716e4231c)" d="M 97.301916 198.395852 
L 97.295135 198.142833 
L 119.969268 203.426832 
L 119.973795 203.680734 
z
" style="fill:#5d0618;fill-opacity:0.8;"/>
    <path clip-path="url(#pf716e4231c)" d="M 83.281614 207.587244 
L 83.273344 207.332692 
L 97.295135 198.142833 
L 97.301916 198.395852 
z
" style="fill:#ba0c2f;fill-opacity:0.8;"/>
    <path clip-path="url(#pf716e4231c)" d="M 83.281614 207.587244 
L 97.301916 198.395852 
L 119.973795 203.680734 
L 106.096377 212.975942 
z
" style="fill:#74081d;fill-opacity:0.8;"/>
    <path clip-path="url(#pf716e4231c)" d="M 83.273344 207.332692 
L 106.090388 212.7205 
L 119.969268 203.426832 
L 97.295135 198.142833 
z
" style="fill:#a30a29;fill-opacity:0.8;"/>
    <path clip-path="url(#pf716e4231c)" d="M 106.096377 212.975942 
L 119.973795 203.680734 
L 119.969268 203.426832 
L 106.090388 212.7205 
z
" style="fill:#5d0618;fill-opacity:0.8;"/>
    <path clip-path="url(#pf716e4231c)" d="M 83.281614 207.587244 
L 106.096377 212.975942 
L 106.090388 212.7205 
L 83.273344 207.332692 
z
" style="fill:#ba0c2f;fill-opacity:0.8;"/>
   </g>
   <g id="Poly3DCollection_12">
    <path clip-path="url(#pf716e4231c)" d="M 215.607301 201.220664 
L 215.622527 200.467562 
L 239.034834 205.781609 
L 239.012472 206.537345 
z
" style="fill:#5d0618;fill-opacity:0.8;"/>
    <path clip-path="url(#pf716e4231c)" d="M 202.70116 210.467474 
L 202.712632 209.709803 
L 215.622527 200.467562 
L 215.607301 201.220664 
z
" style="fill:#ba0c2f;fill-opacity:0.8;"/>
    <path clip-path="url(#pf716e4231c)" d="M 202.70116 210.467474 
L 215.607301 201.220664 
L 239.012472 206.537345 
L 226.263183 215.888913 
z
" style="fill:#74081d;fill-opacity:0.8;"/>
    <path clip-path="url(#pf716e4231c)" d="M 202.712632 209.709803 
L 226.281887 215.128589 
L 239.034834 205.781609 
L 215.622527 200.467562 
z
" style="fill:#a30a29;fill-opacity:0.8;"/>
    <path clip-path="url(#pf716e4231c)" d="M 226.263183 215.888913 
L 239.012472 206.537345 
L 239.034834 205.781609 
L 226.281887 215.128589 
z
" style="fill:#5d0618;fill-opacity:0.8;"/>
    <path clip-path="url(#pf716e4231c)" d="M 202.70116 210.467474 
L 226.263183 215.888913 
L 226.281887 215.128589 
L 202.712632 209.709803 
z
" style="fill:#ba0c2f;fill-opacity:0.8;"/>
   </g>
   <g id="Poly3DCollection_13">
    <path clip-path="url(#pf716e4231c)" d="M 142.90122 209.025184 
L 142.900991 208.998948 
L 166.088548 214.403888 
L 166.088534 214.430216 
z
" style="fill:#5d0618;fill-opacity:0.8;"/>
    <path clip-path="url(#pf716e4231c)" d="M 129.17083 218.425978 
L 129.170454 218.399583 
L 142.900991 208.998948 
L 142.90122 209.025184 
z
" style="fill:#ba0c2f;fill-opacity:0.8;"/>
    <path clip-path="url(#pf716e4231c)" d="M 129.17083 218.425978 
L 142.90122 209.025184 
L 166.088534 214.430216 
L 152.509433 223.938404 
z
" style="fill:#74081d;fill-opacity:0.8;"/>
    <path clip-path="url(#pf716e4231c)" d="M 129.170454 218.399583 
L 152.509303 223.911916 
L 166.088548 214.403888 
L 142.900991 208.998948 
z
" style="fill:#a30a29;fill-opacity:0.8;"/>
    <path clip-path="url(#pf716e4231c)" d="M 152.509433 223.938404 
L 166.088534 214.430216 
L 166.088548 214.403888 
L 152.509303 223.911916 
z
" style="fill:#5d0618;fill-opacity:0.8;"/>
    <path clip-path="url(#pf716e4231c)" d="M 129.17083 218.425978 
L 152.509433 223.938404 
L 152.509303 223.911916 
L 129.170454 218.399583 
z
" style="fill:#ba0c2f;fill-opacity:0.8;"/>
   </g>
   <g id="Poly3DCollection_14">
    <path clip-path="url(#pf716e4231c)" d="M 252.868637 174.524188 
L 264.826022 165.95713 
L 287.620167 170.883733 
L 275.8131 179.544184 
z
" style="fill:#74081d;fill-opacity:0.8;"/>
    <path clip-path="url(#pf716e4231c)" d="M 264.826022 165.95713 
L 269.817977 38.747132 
L 293.784167 43.198144 
L 287.620167 170.883733 
z
" style="fill:#5d0618;fill-opacity:0.8;"/>
    <path clip-path="url(#pf716e4231c)" d="M 252.868637 174.524188 
L 257.307465 46.488711 
L 269.817977 38.747132 
L 264.826022 165.95713 
z
" style="fill:#ba0c2f;fill-opacity:0.8;"/>
    <path clip-path="url(#pf716e4231c)" d="M 275.8131 179.544184 
L 287.620167 170.883733 
L 293.784167 43.198144 
L 281.440065 51.028385 
z
" style="fill:#5d0618;fill-opacity:0.8;"/>
    <path clip-path="url(#pf716e4231c)" d="M 252.868637 174.524188 
L 275.8131 179.544184 
L 281.440065 51.028385 
L 257.307465 46.488711 
z
" style="fill:#ba0c2f;fill-opacity:0.8;"/>
    <path clip-path="url(#pf716e4231c)" d="M 257.307465 46.488711 
L 281.440065 51.028385 
L 293.784167 43.198144 
L 269.817977 38.747132 
z
" style="fill:#a30a29;fill-opacity:0.8;"/>
   </g>
   <g id="Poly3DCollection_15">
    <path clip-path="url(#pf716e4231c)" d="M 189.540183 219.896865 
L 189.759719 197.777855 
L 213.692955 203.228536 
L 213.260712 225.42619 
z
" style="fill:#5d0618;fill-opacity:0.8;"/>
    <path clip-path="url(#pf716e4231c)" d="M 176.116748 229.514298 
L 189.540183 219.896865 
L 213.260712 225.42619 
L 199.997442 235.154762 
z
" style="fill:#74081d;fill-opacity:0.8;"/>
    <path clip-path="url(#pf716e4231c)" d="M 176.116748 229.514298 
L 176.218332 207.258854 
L 189.759719 197.777855 
L 189.540183 219.896865 
z
" style="fill:#ba0c2f;fill-opacity:0.8;"/>
    <path clip-path="url(#pf716e4231c)" d="M 199.997442 235.154762 
L 213.260712 225.42619 
L 213.692955 203.228536 
L 200.314639 212.820082 
z
" style="fill:#5d0618;fill-opacity:0.8;"/>
    <path clip-path="url(#pf716e4231c)" d="M 176.218332 207.258854 
L 200.314639 212.820082 
L 213.692955 203.228536 
L 189.759719 197.777855 
z
" style="fill:#a30a29;fill-opacity:0.8;"/>
    <path clip-path="url(#pf716e4231c)" d="M 176.116748 229.514298 
L 199.997442 235.154762 
L 200.314639 212.820082 
L 176.218332 207.258854 
z
" style="fill:#ba0c2f;fill-opacity:0.8;"/>
   </g>
   <g id="Poly3DCollection_16">
    <path clip-path="url(#pf716e4231c)" d="M 38.413819 196.989763 
L 52.707891 188.000852 
L 74.881333 193.169547 
L 60.722182 202.258853 
z
" style="fill:#74081d;fill-opacity:0.8;"/>
    <path clip-path="url(#pf716e4231c)" d="M 52.707891 188.000852 
L 46.933544 57.750519 
L 70.222556 62.427839 
L 74.881333 193.169547 
z
" style="fill:#5d0618;fill-opacity:0.8;"/>
    <path clip-path="url(#pf716e4231c)" d="M 38.413819 196.989763 
L 31.836896 65.886594 
L 46.933544 57.750519 
L 52.707891 188.000852 
z
" style="fill:#ba0c2f;fill-opacity:0.8;"/>
    <path clip-path="url(#pf716e4231c)" d="M 60.722182 202.258853 
L 74.881333 193.169547 
L 70.222556 62.427839 
L 55.274545 70.659531 
z
" style="fill:#5d0618;fill-opacity:0.8;"/>
    <path clip-path="url(#pf716e4231c)" d="M 38.413819 196.989763 
L 60.722182 202.258853 
L 55.274545 70.659531 
L 31.836896 65.886594 
z
" style="fill:#ba0c2f;fill-opacity:0.8;"/>
    <path clip-path="url(#pf716e4231c)" d="M 31.836896 65.886594 
L 55.274545 70.659531 
L 70.222556 62.427839 
L 46.933544 57.750519 
z
" style="fill:#a30a29;fill-opacity:0.8;"/>
   </g>
  </g>
  <g id="patch_6">
   <path d="M 425.945455 262.8 
L 806.4 262.8 
L 806.4 -14.4 
L 425.945455 -14.4 
z
" style="fill:#ffffff;"/>
  </g>
  <g id="pane3d_4">
   <g id="patch_7">
    <path d="M 476.380584 201.548569 
L 585.268665 133.58541 
L 583.455794 3.718968 
L 468.496488 64.782468 
" style="fill:#f2f2f2;opacity:0.5;stroke:#f2f2f2;stroke-linejoin:miter;"/>
   </g>
  </g>
  <g id="pane3d_5">
   <g id="patch_8">
    <path d="M 585.268665 133.58541 
L 761.65712 171.581202 
L 769.037001 37.79869 
L 583.455794 3.718968 
" style="fill:#e6e6e6;opacity:0.5;stroke:#e6e6e6;stroke-linejoin:miter;"/>
   </g>
  </g>
  <g id="pane3d_6">
   <g id="patch_9">
    <path d="M 476.380584 201.548569 
L 661.965072 245.80086 
L 761.65712 171.581202 
L 585.268665 133.58541 
" style="fill:#ececec;opacity:0.5;stroke:#ececec;stroke-linejoin:miter;"/>
   </g>
  </g>
  <g id="axis3d_4">
   <g id="line2d_15">
    <path d="M 476.380584 201.548569 
L 661.965072 245.80086 
" style="fill:none;stroke:#000000;stroke-linecap:square;stroke-width:0.8;"/>
   </g>
   <g id="Line3DCollection_4">
    <path d="M 498.841271 206.90428 
L 606.679397 138.19749 
L 605.9393 7.847789 
" style="fill:none;stroke:#b0b0b0;stroke-width:0.8;"/>
    <path d="M 544.057792 217.686079 
L 649.729469 147.470895 
L 651.182353 16.156123 
" style="fill:none;stroke:#b0b0b0;stroke-width:0.8;"/>
    <path d="M 590.310744 228.715013 
L 693.693551 156.941187 
L 697.435637 24.649974 
" style="fill:none;stroke:#b0b0b0;stroke-width:0.8;"/>
    <path d="M 637.636176 239.999678 
L 738.601063 166.614702 
L 744.733372 33.335625 
" style="fill:none;stroke:#b0b0b0;stroke-width:0.8;"/>
   </g>
   <g id="xtick_12">
    <g id="line2d_16">
     <path d="M 499.770538 206.312217 
L 496.979262 208.09062 
" style="fill:none;stroke:#000000;stroke-linecap:square;stroke-width:0.8;"/>
    </g>
    <g id="text_12">
     <!-- 00 -->
     <g transform="translate(472.654007 247.89009)rotate(-45)scale(0.24 -0.24)">
      <use transform="scale(0.996264)" xlink:href="#CMR17-48"/>
      <use transform="translate(45.690477 0)scale(0.996264)" xlink:href="#CMR17-48"/>
     </g>
    </g>
   </g>
   <g id="xtick_13">
    <g id="line2d_17">
     <path d="M 544.969128 217.080527 
L 542.231671 218.899473 
" style="fill:none;stroke:#000000;stroke-linecap:square;stroke-width:0.8;"/>
    </g>
    <g id="text_13">
     <!-- 01 -->
     <g transform="translate(517.866433 258.846842)rotate(-45)scale(0.24 -0.24)">
      <use transform="scale(0.996264)" xlink:href="#CMR17-48"/>
      <use transform="translate(45.690477 0)scale(0.996264)" xlink:href="#CMR17-49"/>
     </g>
    </g>
   </g>
   <g id="xtick_14">
    <g id="line2d_18">
     <path d="M 591.20308 228.095506 
L 588.522658 229.956397 
" style="fill:none;stroke:#000000;stroke-linecap:square;stroke-width:0.8;"/>
    </g>
    <g id="text_14">
     <!-- 10 -->
     <g transform="translate(564.117045 270.055188)rotate(-45)scale(0.24 -0.24)">
      <use transform="scale(0.996264)" xlink:href="#CMR17-49"/>
      <use transform="translate(45.690477 0)scale(0.996264)" xlink:href="#CMR17-48"/>
     </g>
    </g>
   </g>
   <g id="xtick_15">
    <g id="line2d_19">
     <path d="M 638.50838 239.365727 
L 635.888391 241.270032 
" style="fill:none;stroke:#000000;stroke-linecap:square;stroke-width:0.8;"/>
    </g>
    <g id="text_15">
     <!-- 11 -->
     <g transform="translate(611.44202 281.523893)rotate(-45)scale(0.24 -0.24)">
      <use transform="scale(0.996264)" xlink:href="#CMR17-49"/>
      <use transform="translate(45.690477 0)scale(0.996264)" xlink:href="#CMR17-49"/>
     </g>
    </g>
   </g>
  </g>
  <g id="axis3d_5">
   <g id="line2d_20">
    <path d="M 761.65712 171.581202 
L 661.965072 245.80086 
" style="fill:none;stroke:#000000;stroke-linecap:square;stroke-width:0.8;"/>
   </g>
   <g id="Line3DCollection_5">
    <path d="M 484.000685 56.547028 
L 491.016499 192.413474 
L 675.403872 235.795817 
" style="fill:none;stroke:#b0b0b0;stroke-width:0.8;"/>
    <path d="M 513.777478 40.730342 
L 519.168861 174.842005 
L 701.219492 216.576366 
" style="fill:none;stroke:#b0b0b0;stroke-width:0.8;"/>
    <path d="M 542.401344 25.526062 
L 546.284836 157.917404 
L 726.04244 198.095948 
" style="fill:none;stroke:#b0b0b0;stroke-width:0.8;"/>
    <path d="M 569.937971 10.899296 
L 572.420618 141.604597 
L 749.928893 180.312741 
" style="fill:none;stroke:#b0b0b0;stroke-width:0.8;"/>
   </g>
   <g id="xtick_16">
    <g id="line2d_21">
     <path d="M 673.861052 235.432825 
L 678.492943 236.522608 
" style="fill:none;stroke:#000000;stroke-linecap:square;stroke-width:0.8;"/>
    </g>
    <g id="text_16">
     <!-- 00 -->
     <g transform="translate(689.937743 249.065483)rotate(-337.5)scale(0.24 -0.24)">
      <use transform="scale(0.996264)" xlink:href="#CMR17-48"/>
      <use transform="translate(45.690477 0)scale(0.996264)" xlink:href="#CMR17-48"/>
     </g>
    </g>
   </g>
   <g id="xtick_17">
    <g id="line2d_22">
     <path d="M 699.697534 216.227463 
L 704.266725 217.274932 
" style="fill:none;stroke:#000000;stroke-linecap:square;stroke-width:0.8;"/>
    </g>
    <g id="text_17">
     <!-- 01 -->
     <g transform="translate(715.491295 229.621057)rotate(-337.5)scale(0.24 -0.24)">
      <use transform="scale(0.996264)" xlink:href="#CMR17-48"/>
      <use transform="translate(45.690477 0)scale(0.996264)" xlink:href="#CMR17-49"/>
     </g>
    </g>
   </g>
   <g id="xtick_18">
    <g id="line2d_23">
     <path d="M 724.540896 197.76033 
L 729.048738 198.767901 
" style="fill:none;stroke:#000000;stroke-linecap:square;stroke-width:0.8;"/>
    </g>
    <g id="text_18">
     <!-- 10 -->
     <g transform="translate(740.062706 210.923969)rotate(-337.5)scale(0.24 -0.24)">
      <use transform="scale(0.996264)" xlink:href="#CMR17-49"/>
      <use transform="translate(45.690477 0)scale(0.996264)" xlink:href="#CMR17-48"/>
     </g>
    </g>
   </g>
   <g id="xtick_19">
    <g id="line2d_24">
     <path d="M 748.44732 179.989663 
L 752.895146 180.959573 
" style="fill:none;stroke:#000000;stroke-linecap:square;stroke-width:0.8;"/>
    </g>
    <g id="text_19">
     <!-- 11 -->
     <g transform="translate(763.707533 192.931947)rotate(-337.5)scale(0.24 -0.24)">
      <use transform="scale(0.996264)" xlink:href="#CMR17-49"/>
      <use transform="translate(45.690477 0)scale(0.996264)" xlink:href="#CMR17-49"/>
     </g>
    </g>
   </g>
  </g>
  <g id="axis3d_6">
   <g id="line2d_25">
    <path d="M 761.65712 171.581202 
L 769.037001 37.79869 
" style="fill:none;stroke:#000000;stroke-linecap:square;stroke-width:0.8;"/>
   </g>
   <g id="Line3DCollection_6">
    <path d="M 761.835242 168.352197 
L 585.224816 130.444255 
L 476.190611 198.253093 
" style="fill:none;stroke:#b0b0b0;stroke-width:0.8;"/>
    <path d="M 764.568367 118.806107 
L 584.552572 82.287555 
L 473.273673 147.652722 
" style="fill:none;stroke:#b0b0b0;stroke-width:0.8;"/>
    <path d="M 767.409918 67.294454 
L 583.854809 32.302745 
L 470.237072 94.976523 
" style="fill:none;stroke:#b0b0b0;stroke-width:0.8;"/>
   </g>
   <g id="xtick_20">
    <g id="line2d_26">
     <path d="M 760.361664 168.035906 
L 764.785464 168.985437 
" style="fill:none;stroke:#000000;stroke-linecap:square;stroke-width:0.8;"/>
    </g>
    <g id="text_20">
     <!-- $0.0$ -->
     <g transform="translate(766.150539 183.016627)scale(0.24 -0.24)">
      <use transform="scale(0.996264)" xlink:href="#CMR17-48"/>
      <use transform="translate(45.690477 0)scale(0.996264)" xlink:href="#CMMI12-58"/>
      <use transform="translate(72.787654 0)scale(0.996264)" xlink:href="#CMR17-48"/>
     </g>
    </g>
   </g>
   <g id="xtick_21">
    <g id="line2d_27">
     <path d="M 763.065173 118.501165 
L 767.577944 119.416639 
" style="fill:none;stroke:#000000;stroke-linecap:square;stroke-width:0.8;"/>
    </g>
    <g id="text_21">
     <!-- $0.2$ -->
     <g transform="translate(769.237421 133.540209)scale(0.24 -0.24)">
      <use transform="scale(0.996264)" xlink:href="#CMR17-48"/>
      <use transform="translate(45.690477 0)scale(0.996264)" xlink:href="#CMMI12-58"/>
      <use transform="translate(72.787654 0)scale(0.996264)" xlink:href="#CMR17-50"/>
     </g>
    </g>
   </g>
   <g id="xtick_22">
    <g id="line2d_28">
     <path d="M 765.875895 67.002018 
L 770.481285 67.879958 
" style="fill:none;stroke:#000000;stroke-linecap:square;stroke-width:0.8;"/>
    </g>
    <g id="text_22">
     <!-- $0.4$ -->
     <g transform="translate(772.446494 82.105327)scale(0.24 -0.24)">
      <use transform="scale(0.996264)" xlink:href="#CMR17-48"/>
      <use transform="translate(45.690477 0)scale(0.996264)" xlink:href="#CMMI12-58"/>
      <use transform="translate(72.787654 0)scale(0.996264)" xlink:href="#CMR17-52"/>
     </g>
    </g>
   </g>
  </g>
  <g id="axes_2">
   <g id="Poly3DCollection_17">
    <path clip-path="url(#p5d474d9d06)" d="M 589.588972 136.807131 
L 589.581549 136.203708 
L 610.979018 140.821788 
L 610.981448 141.427287 
z
" style="fill:#065d4c;fill-opacity:0.8;"/>
    <path clip-path="url(#p5d474d9d06)" d="M 576.804937 144.840301 
L 576.794428 144.233275 
L 589.581549 136.203708 
L 589.588972 136.807131 
z
" style="fill:#0cba97;fill-opacity:0.8;"/>
    <path clip-path="url(#p5d474d9d06)" d="M 576.804937 144.840301 
L 589.588972 136.807131 
L 610.981448 141.427287 
L 598.325786 149.545279 
z
" style="fill:#08745e;fill-opacity:0.8;"/>
    <path clip-path="url(#p5d474d9d06)" d="M 576.794428 144.233275 
L 598.320329 148.936158 
L 610.979018 140.821788 
L 589.581549 136.203708 
z
" style="fill:#0aa384;fill-opacity:0.8;"/>
    <path clip-path="url(#p5d474d9d06)" d="M 598.325786 149.545279 
L 610.981448 141.427287 
L 610.979018 140.821788 
L 598.320329 148.936158 
z
" style="fill:#065d4c;fill-opacity:0.8;"/>
    <path clip-path="url(#p5d474d9d06)" d="M 576.804937 144.840301 
L 598.325786 149.545279 
L 598.320329 148.936158 
L 576.794428 144.233275 
z
" style="fill:#0cba97;fill-opacity:0.8;"/>
   </g>
   <g id="Poly3DCollection_18">
    <path clip-path="url(#p5d474d9d06)" d="M 632.599367 146.096133 
L 632.596408 146.769767 
L 654.437579 151.4904 
L 654.446311 150.814442 
z
" style="fill:#0cba97;fill-opacity:0.8;"/>
    <path clip-path="url(#p5d474d9d06)" d="M 620.075519 154.300297 
L 620.075847 154.977964 
L 632.596408 146.769767 
L 632.599367 146.096133 
z
" style="fill:#065d4c;fill-opacity:0.8;"/>
    <path clip-path="url(#p5d474d9d06)" d="M 620.075847 154.977964 
L 642.05229 159.786168 
L 654.437579 151.4904 
L 632.596408 146.769767 
z
" style="fill:#0aa384;fill-opacity:0.8;"/>
    <path clip-path="url(#p5d474d9d06)" d="M 620.075519 154.300297 
L 632.599367 146.096133 
L 654.446311 150.814442 
L 642.057808 159.106157 
z
" style="fill:#08745e;fill-opacity:0.8;"/>
    <path clip-path="url(#p5d474d9d06)" d="M 642.057808 159.106157 
L 654.446311 150.814442 
L 654.437579 151.4904 
L 642.05229 159.786168 
z
" style="fill:#0cba97;fill-opacity:0.8;"/>
    <path clip-path="url(#p5d474d9d06)" d="M 620.075519 154.300297 
L 642.057808 159.106157 
L 642.05229 159.786168 
L 620.075847 154.977964 
z
" style="fill:#065d4c;fill-opacity:0.8;"/>
   </g>
   <g id="Poly3DCollection_19">
    <path clip-path="url(#p5d474d9d06)" d="M 563.78574 153.021241 
L 563.78846 153.14241 
L 585.437785 157.934987 
L 585.43608 157.813399 
z
" style="fill:#0cba97;fill-opacity:0.8;"/>
    <path clip-path="url(#p5d474d9d06)" d="M 550.524832 161.354067 
L 550.52821 161.475963 
L 563.78846 153.14241 
L 563.78574 153.021241 
z
" style="fill:#065d4c;fill-opacity:0.8;"/>
    <path clip-path="url(#p5d474d9d06)" d="M 550.52821 161.475963 
L 572.308129 166.358168 
L 585.437785 157.934987 
L 563.78846 153.14241 
z
" style="fill:#0aa384;fill-opacity:0.8;"/>
    <path clip-path="url(#p5d474d9d06)" d="M 550.524832 161.354067 
L 563.78574 153.021241 
L 585.43608 157.813399 
L 572.305778 166.235849 
z
" style="fill:#08745e;fill-opacity:0.8;"/>
    <path clip-path="url(#p5d474d9d06)" d="M 572.305778 166.235849 
L 585.43608 157.813399 
L 585.437785 157.934987 
L 572.308129 166.358168 
z
" style="fill:#0cba97;fill-opacity:0.8;"/>
    <path clip-path="url(#p5d474d9d06)" d="M 550.524832 161.354067 
L 572.305778 166.235849 
L 572.308129 166.358168 
L 550.52821 161.475963 
z
" style="fill:#065d4c;fill-opacity:0.8;"/>
   </g>
   <g id="Poly3DCollection_20">
    <path clip-path="url(#p5d474d9d06)" d="M 676.525939 155.583003 
L 676.514491 156.113856 
L 698.825827 160.935315 
L 698.841989 160.402625 
z
" style="fill:#0cba97;fill-opacity:0.8;"/>
    <path clip-path="url(#p5d474d9d06)" d="M 664.276402 163.96368 
L 664.26741 164.49772 
L 676.514491 156.113856 
L 676.525939 155.583003 
z
" style="fill:#065d4c;fill-opacity:0.8;"/>
    <path clip-path="url(#p5d474d9d06)" d="M 664.26741 164.49772 
L 686.721366 169.409594 
L 698.825827 160.935315 
L 676.514491 156.113856 
z
" style="fill:#0aa384;fill-opacity:0.8;"/>
    <path clip-path="url(#p5d474d9d06)" d="M 664.276402 163.96368 
L 676.525939 155.583003 
L 698.841989 160.402625 
L 686.735132 168.873702 
z
" style="fill:#08745e;fill-opacity:0.8;"/>
    <path clip-path="url(#p5d474d9d06)" d="M 686.735132 168.873702 
L 698.841989 160.402625 
L 698.825827 160.935315 
L 686.721366 169.409594 
z
" style="fill:#0cba97;fill-opacity:0.8;"/>
    <path clip-path="url(#p5d474d9d06)" d="M 664.276402 163.96368 
L 686.735132 168.873702 
L 686.721366 169.409594 
L 664.26741 164.49772 
z
" style="fill:#065d4c;fill-opacity:0.8;"/>
   </g>
   <g id="Poly3DCollection_21">
    <path clip-path="url(#p5d474d9d06)" d="M 607.318822 162.656997 
L 607.319573 162.794005 
L 629.437291 167.690352 
L 629.437729 167.552868 
z
" style="fill:#0cba97;fill-opacity:0.8;"/>
    <path clip-path="url(#p5d474d9d06)" d="M 594.322722 171.170525 
L 594.324184 171.308358 
L 607.319573 162.794005 
L 607.318822 162.656997 
z
" style="fill:#065d4c;fill-opacity:0.8;"/>
    <path clip-path="url(#p5d474d9d06)" d="M 594.324184 171.308358 
L 616.579778 176.297273 
L 629.437291 167.690352 
L 607.319573 162.794005 
z
" style="fill:#0aa384;fill-opacity:0.8;"/>
    <path clip-path="url(#p5d474d9d06)" d="M 594.322722 171.170525 
L 607.318822 162.656997 
L 629.437729 167.552868 
L 616.57952 176.158961 
z
" style="fill:#08745e;fill-opacity:0.8;"/>
    <path clip-path="url(#p5d474d9d06)" d="M 616.57952 176.158961 
L 629.437729 167.552868 
L 629.437291 167.690352 
L 616.579778 176.297273 
z
" style="fill:#0cba97;fill-opacity:0.8;"/>
    <path clip-path="url(#p5d474d9d06)" d="M 594.322722 171.170525 
L 616.57952 176.158961 
L 616.579778 176.297273 
L 594.324184 171.308358 
z
" style="fill:#065d4c;fill-opacity:0.8;"/>
   </g>
   <g id="Poly3DCollection_22">
    <path clip-path="url(#p5d474d9d06)" d="M 721.398278 165.274132 
L 721.398278 165.274132 
L 744.198707 170.198366 
L 744.198707 170.198366 
z
" style="fill:#065d4c;fill-opacity:0.8;"/>
    <path clip-path="url(#p5d474d9d06)" d="M 709.437913 173.837079 
L 709.437913 173.837079 
L 721.398278 165.274132 
L 721.398278 165.274132 
z
" style="fill:#065d4c;fill-opacity:0.8;"/>
    <path clip-path="url(#p5d474d9d06)" d="M 709.437913 173.837079 
L 721.398278 165.274132 
L 744.198707 170.198366 
L 732.388744 178.854686 
z
" style="fill:#08745e;fill-opacity:0.8;"/>
    <path clip-path="url(#p5d474d9d06)" d="M 709.437913 173.837079 
L 732.388744 178.854686 
L 744.198707 170.198366 
L 721.398278 165.274132 
z
" style="fill:#0aa384;fill-opacity:0.8;"/>
    <path clip-path="url(#p5d474d9d06)" d="M 732.388744 178.854686 
L 744.198707 170.198366 
L 744.198707 170.198366 
L 732.388744 178.854686 
z
" style="fill:#065d4c;fill-opacity:0.8;"/>
    <path clip-path="url(#p5d474d9d06)" d="M 709.437913 173.837079 
L 732.388744 178.854686 
L 732.388744 178.854686 
L 709.437913 173.837079 
z
" style="fill:#065d4c;fill-opacity:0.8;"/>
   </g>
   <g id="Poly3DCollection_23">
    <path clip-path="url(#p5d474d9d06)" d="M 537.015419 169.843047 
L 537.02697 170.191889 
L 558.936675 175.167046 
L 558.92808 174.816992 
z
" style="fill:#0cba97;fill-opacity:0.8;"/>
    <path clip-path="url(#p5d474d9d06)" d="M 523.250449 178.492612 
L 523.264013 178.843557 
L 537.02697 170.191889 
L 537.015419 169.843047 
z
" style="fill:#065d4c;fill-opacity:0.8;"/>
    <path clip-path="url(#p5d474d9d06)" d="M 523.264013 178.843557 
L 545.3065 183.913521 
L 558.936675 175.167046 
L 537.02697 170.191889 
z
" style="fill:#0aa384;fill-opacity:0.8;"/>
    <path clip-path="url(#p5d474d9d06)" d="M 523.250449 178.492612 
L 537.015419 169.843047 
L 558.92808 174.816992 
L 545.295927 183.561355 
z
" style="fill:#08745e;fill-opacity:0.8;"/>
    <path clip-path="url(#p5d474d9d06)" d="M 545.295927 183.561355 
L 558.92808 174.816992 
L 558.936675 175.167046 
L 545.3065 183.913521 
z
" style="fill:#0cba97;fill-opacity:0.8;"/>
    <path clip-path="url(#p5d474d9d06)" d="M 523.250449 178.492612 
L 545.295927 183.561355 
L 545.3065 183.913521 
L 523.264013 178.843557 
z
" style="fill:#065d4c;fill-opacity:0.8;"/>
   </g>
   <g id="Poly3DCollection_24">
    <path clip-path="url(#p5d474d9d06)" d="M 651.796644 172.501864 
L 651.796644 172.501864 
L 674.399495 177.504853 
L 674.399495 177.504853 
z
" style="fill:#065d4c;fill-opacity:0.8;"/>
    <path clip-path="url(#p5d474d9d06)" d="M 639.080114 181.202039 
L 639.080114 181.202039 
L 651.796644 172.501864 
L 651.796644 172.501864 
z
" style="fill:#065d4c;fill-opacity:0.8;"/>
    <path clip-path="url(#p5d474d9d06)" d="M 639.080114 181.202039 
L 651.796644 172.501864 
L 674.399495 177.504853 
L 661.828532 186.300661 
z
" style="fill:#08745e;fill-opacity:0.8;"/>
    <path clip-path="url(#p5d474d9d06)" d="M 639.080114 181.202039 
L 661.828532 186.300661 
L 674.399495 177.504853 
L 651.796644 172.501864 
z
" style="fill:#0aa384;fill-opacity:0.8;"/>
    <path clip-path="url(#p5d474d9d06)" d="M 661.828532 186.300661 
L 674.399495 177.504853 
L 674.399495 177.504853 
L 661.828532 186.300661 
z
" style="fill:#065d4c;fill-opacity:0.8;"/>
    <path clip-path="url(#p5d474d9d06)" d="M 639.080114 181.202039 
L 661.828532 186.300661 
L 661.828532 186.300661 
L 639.080114 181.202039 
z
" style="fill:#065d4c;fill-opacity:0.8;"/>
   </g>
   <g id="Poly3DCollection_25">
    <path clip-path="url(#p5d474d9d06)" d="M 581.080415 179.84534 
L 581.080415 179.84534 
L 603.476378 184.92899 
L 603.476378 184.92899 
z
" style="fill:#065d4c;fill-opacity:0.8;"/>
    <path clip-path="url(#p5d474d9d06)" d="M 567.584838 188.686068 
L 567.584838 188.686068 
L 581.080415 179.84534 
L 581.080415 179.84534 
z
" style="fill:#065d4c;fill-opacity:0.8;"/>
    <path clip-path="url(#p5d474d9d06)" d="M 567.584838 188.686068 
L 581.080415 179.84534 
L 603.476378 184.92899 
L 590.121236 193.867684 
z
" style="fill:#08745e;fill-opacity:0.8;"/>
    <path clip-path="url(#p5d474d9d06)" d="M 567.584838 188.686068 
L 590.121236 193.867684 
L 603.476378 184.92899 
L 581.080415 179.84534 
z
" style="fill:#0aa384;fill-opacity:0.8;"/>
    <path clip-path="url(#p5d474d9d06)" d="M 590.121236 193.867684 
L 603.476378 184.92899 
L 603.476378 184.92899 
L 590.121236 193.867684 
z
" style="fill:#065d4c;fill-opacity:0.8;"/>
    <path clip-path="url(#p5d474d9d06)" d="M 567.584838 188.686068 
L 590.121236 193.867684 
L 590.121236 193.867684 
L 567.584838 188.686068 
z
" style="fill:#065d4c;fill-opacity:0.8;"/>
   </g>
   <g id="Poly3DCollection_26">
    <path clip-path="url(#p5d474d9d06)" d="M 697.250296 182.562725 
L 697.266521 182.021496 
L 720.374427 187.133271 
L 720.35315 187.676387 
z
" style="fill:#065d4c;fill-opacity:0.8;"/>
    <path clip-path="url(#p5d474d9d06)" d="M 684.82889 191.455751 
L 684.84259 190.911249 
L 697.266521 182.021496 
L 697.250296 182.562725 
z
" style="fill:#0cba97;fill-opacity:0.8;"/>
    <path clip-path="url(#p5d474d9d06)" d="M 684.82889 191.455751 
L 697.250296 182.562725 
L 720.35315 187.676387 
L 708.085396 196.668252 
z
" style="fill:#08745e;fill-opacity:0.8;"/>
    <path clip-path="url(#p5d474d9d06)" d="M 684.84259 190.911249 
L 708.104218 196.121848 
L 720.374427 187.133271 
L 697.266521 182.021496 
z
" style="fill:#0aa384;fill-opacity:0.8;"/>
    <path clip-path="url(#p5d474d9d06)" d="M 708.085396 196.668252 
L 720.35315 187.676387 
L 720.374427 187.133271 
L 708.104218 196.121848 
z
" style="fill:#065d4c;fill-opacity:0.8;"/>
    <path clip-path="url(#p5d474d9d06)" d="M 684.82889 191.455751 
L 708.085396 196.668252 
L 708.104218 196.121848 
L 684.84259 190.911249 
z
" style="fill:#0cba97;fill-opacity:0.8;"/>
   </g>
   <g id="Poly3DCollection_27">
    <path clip-path="url(#p5d474d9d06)" d="M 509.222602 187.307363 
L 509.222602 187.307363 
L 531.40199 192.47364 
L 531.40199 192.47364 
z
" style="fill:#065d4c;fill-opacity:0.8;"/>
    <path clip-path="url(#p5d474d9d06)" d="M 494.924274 196.292078 
L 494.924274 196.292078 
L 509.222602 187.307363 
L 509.222602 187.307363 
z
" style="fill:#065d4c;fill-opacity:0.8;"/>
    <path clip-path="url(#p5d474d9d06)" d="M 494.924274 196.292078 
L 509.222602 187.307363 
L 531.40199 192.47364 
L 517.238655 201.558731 
z
" style="fill:#08745e;fill-opacity:0.8;"/>
    <path clip-path="url(#p5d474d9d06)" d="M 494.924274 196.292078 
L 517.238655 201.558731 
L 531.40199 192.47364 
L 509.222602 187.307363 
z
" style="fill:#0aa384;fill-opacity:0.8;"/>
    <path clip-path="url(#p5d474d9d06)" d="M 517.238655 201.558731 
L 531.40199 192.47364 
L 531.40199 192.47364 
L 517.238655 201.558731 
z
" style="fill:#065d4c;fill-opacity:0.8;"/>
    <path clip-path="url(#p5d474d9d06)" d="M 494.924274 196.292078 
L 517.238655 201.558731 
L 517.238655 201.558731 
L 494.924274 196.292078 
z
" style="fill:#065d4c;fill-opacity:0.8;"/>
   </g>
   <g id="Poly3DCollection_28">
    <path clip-path="url(#p5d474d9d06)" d="M 626.120011 190.068858 
L 626.120276 189.92921 
L 649.016984 195.125747 
L 649.015444 195.265882 
z
" style="fill:#065d4c;fill-opacity:0.8;"/>
    <path clip-path="url(#p5d474d9d06)" d="M 612.909266 199.107156 
L 612.908797 198.966662 
L 626.120276 189.92921 
L 626.120011 190.068858 
z
" style="fill:#0cba97;fill-opacity:0.8;"/>
    <path clip-path="url(#p5d474d9d06)" d="M 612.909266 199.107156 
L 626.120011 190.068858 
L 649.015444 195.265882 
L 635.953167 204.405458 
z
" style="fill:#08745e;fill-opacity:0.8;"/>
    <path clip-path="url(#p5d474d9d06)" d="M 612.908797 198.966662 
L 635.953989 204.264473 
L 649.016984 195.125747 
L 626.120276 189.92921 
z
" style="fill:#0aa384;fill-opacity:0.8;"/>
    <path clip-path="url(#p5d474d9d06)" d="M 635.953167 204.405458 
L 649.015444 195.265882 
L 649.016984 195.125747 
L 635.953989 204.264473 
z
" style="fill:#065d4c;fill-opacity:0.8;"/>
    <path clip-path="url(#p5d474d9d06)" d="M 612.909266 199.107156 
L 635.953167 204.405458 
L 635.953989 204.264473 
L 612.908797 198.966662 
z
" style="fill:#0cba97;fill-opacity:0.8;"/>
   </g>
   <g id="Poly3DCollection_29">
    <path clip-path="url(#p5d474d9d06)" d="M 553.828654 197.697515 
L 553.819123 197.341881 
L 576.50039 202.623079 
L 576.506754 202.979956 
z
" style="fill:#065d4c;fill-opacity:0.8;"/>
    <path clip-path="url(#p5d474d9d06)" d="M 539.804243 206.884673 
L 539.792618 206.526882 
L 553.819123 197.341881 
L 553.828654 197.697515 
z
" style="fill:#0cba97;fill-opacity:0.8;"/>
    <path clip-path="url(#p5d474d9d06)" d="M 539.804243 206.884673 
L 553.828654 197.697515 
L 576.506754 202.979956 
L 562.625303 212.270913 
z
" style="fill:#08745e;fill-opacity:0.8;"/>
    <path clip-path="url(#p5d474d9d06)" d="M 539.792618 206.526882 
L 562.616886 211.911868 
L 576.50039 202.623079 
L 553.819123 197.341881 
z
" style="fill:#0aa384;fill-opacity:0.8;"/>
    <path clip-path="url(#p5d474d9d06)" d="M 562.625303 212.270913 
L 576.506754 202.979956 
L 576.50039 202.623079 
L 562.616886 211.911868 
z
" style="fill:#065d4c;fill-opacity:0.8;"/>
    <path clip-path="url(#p5d474d9d06)" d="M 539.804243 206.884673 
L 562.625303 212.270913 
L 562.616886 211.911868 
L 539.792618 206.526882 
z
" style="fill:#0cba97;fill-opacity:0.8;"/>
   </g>
   <g id="Poly3DCollection_30">
    <path clip-path="url(#p5d474d9d06)" d="M 672.166901 200.521021 
L 672.181054 199.820988 
L 695.599486 205.132772 
L 695.578701 205.835255 
z
" style="fill:#065d4c;fill-opacity:0.8;"/>
    <path clip-path="url(#p5d474d9d06)" d="M 659.257272 209.763587 
L 659.267936 209.059304 
L 672.181054 199.820988 
L 672.166901 200.521021 
z
" style="fill:#0cba97;fill-opacity:0.8;"/>
    <path clip-path="url(#p5d474d9d06)" d="M 659.257272 209.763587 
L 672.166901 200.521021 
L 695.578701 205.835255 
L 682.826013 215.182562 
z
" style="fill:#08745e;fill-opacity:0.8;"/>
    <path clip-path="url(#p5d474d9d06)" d="M 659.267936 209.059304 
L 682.843399 214.47581 
L 695.599486 205.132772 
L 672.181054 199.820988 
z
" style="fill:#0aa384;fill-opacity:0.8;"/>
    <path clip-path="url(#p5d474d9d06)" d="M 682.826013 215.182562 
L 695.578701 205.835255 
L 695.599486 205.132772 
L 682.843399 214.47581 
z
" style="fill:#065d4c;fill-opacity:0.8;"/>
    <path clip-path="url(#p5d474d9d06)" d="M 659.257272 209.763587 
L 682.826013 215.182562 
L 682.843399 214.47581 
L 659.267936 209.059304 
z
" style="fill:#0cba97;fill-opacity:0.8;"/>
   </g>
   <g id="Poly3DCollection_31">
    <path clip-path="url(#p5d474d9d06)" d="M 599.44054 208.321956 
L 599.439442 208.196085 
L 622.634428 213.598214 
L 622.634361 213.724526 
z
" style="fill:#065d4c;fill-opacity:0.8;"/>
    <path clip-path="url(#p5d474d9d06)" d="M 585.706199 217.718479 
L 585.704394 217.591843 
L 599.439442 208.196085 
L 599.44054 208.321956 
z
" style="fill:#0cba97;fill-opacity:0.8;"/>
    <path clip-path="url(#p5d474d9d06)" d="M 585.706199 217.718479 
L 599.44054 208.321956 
L 622.634361 213.724526 
L 609.051395 223.228424 
z
" style="fill:#08745e;fill-opacity:0.8;"/>
    <path clip-path="url(#p5d474d9d06)" d="M 585.704394 217.591843 
L 609.050769 223.101345 
L 622.634428 213.598214 
L 599.439442 208.196085 
z
" style="fill:#0aa384;fill-opacity:0.8;"/>
    <path clip-path="url(#p5d474d9d06)" d="M 609.051395 223.228424 
L 622.634361 213.724526 
L 622.634428 213.598214 
L 609.050769 223.101345 
z
" style="fill:#065d4c;fill-opacity:0.8;"/>
    <path clip-path="url(#p5d474d9d06)" d="M 585.706199 217.718479 
L 609.051395 223.228424 
L 609.050769 223.101345 
L 585.704394 217.591843 
z
" style="fill:#0cba97;fill-opacity:0.8;"/>
   </g>
   <g id="Poly3DCollection_32">
    <path clip-path="url(#p5d474d9d06)" d="M 646.092666 219.188702 
L 646.08633 219.827131 
L 669.807529 225.356212 
L 669.820005 224.715544 
z
" style="fill:#0cba97;fill-opacity:0.8;"/>
    <path clip-path="url(#p5d474d9d06)" d="M 632.665455 228.801828 
L 632.662523 229.44414 
L 646.08633 219.827131 
L 646.092666 219.188702 
z
" style="fill:#065d4c;fill-opacity:0.8;"/>
    <path clip-path="url(#p5d474d9d06)" d="M 632.662523 229.44414 
L 656.543897 235.084359 
L 669.807529 225.356212 
L 646.08633 219.827131 
z
" style="fill:#0aa384;fill-opacity:0.8;"/>
    <path clip-path="url(#p5d474d9d06)" d="M 632.665455 228.801828 
L 646.092666 219.188702 
L 669.820005 224.715544 
L 656.553051 234.439792 
z
" style="fill:#08745e;fill-opacity:0.8;"/>
    <path clip-path="url(#p5d474d9d06)" d="M 656.553051 234.439792 
L 669.820005 224.715544 
L 669.807529 225.356212 
L 656.543897 235.084359 
z
" style="fill:#0cba97;fill-opacity:0.8;"/>
    <path clip-path="url(#p5d474d9d06)" d="M 632.665455 228.801828 
L 656.553051 234.439792 
L 656.543897 235.084359 
L 632.662523 229.44414 
z
" style="fill:#065d4c;fill-opacity:0.8;"/>
   </g>
   <g id="Poly3DCollection_33">
    <path clip-path="url(#p5d474d9d06)" d="M 482.086742 197.635894 
L 660.292829 239.892335 
L 756.300006 168.931618 
L 586.589603 132.434094 
z
" style="fill-opacity:0.2;"/>
   </g>
  </g>
 </g>
 <defs>
  <clipPath id="pf716e4231c">
   <rect height="277.2" width="380.454545" x="-30.6" y="-14.4"/>
  </clipPath>
  <clipPath id="p5d474d9d06">
   <rect height="277.2" width="380.454545" x="425.945455" y="-14.4"/>
  </clipPath>
 </defs>
</svg>
