<?xml version="1.0" encoding="utf-8" standalone="no"?>
<!DOCTYPE svg PUBLIC "-//W3C//DTD SVG 1.1//EN"
  "http://www.w3.org/Graphics/SVG/1.1/DTD/svg11.dtd">
<!-- Created with matplotlib (https://matplotlib.org/) -->
<svg height="302.4pt" version="1.1" viewBox="0 0 820.8 302.4" width="820.8pt" xmlns="http://www.w3.org/2000/svg" xmlns:xlink="http://www.w3.org/1999/xlink">
 <defs>
  <style type="text/css">
*{stroke-linecap:butt;stroke-linejoin:round;}
  </style>
 </defs>
 <g id="figure_1">
  <g id="patch_1">
   <path d="M 0 302.4 
L 820.8 302.4 
L 820.8 0 
L 0 0 
z
" style="fill:#ffffff;"/>
  </g>
  <g id="patch_2">
   <path d="M -30.6 262.8 
L 349.854545 262.8 
L 349.854545 -14.4 
L -30.6 -14.4 
z
" style="fill:#ffffff;"/>
  </g>
  <g id="pane3d_1">
   <g id="patch_3">
    <path d="M 19.835129 201.548569 
L 128.723211 133.58541 
L 126.910339 3.718968 
L 11.951034 64.782468 
" style="fill:#f2f2f2;opacity:0.5;stroke:#f2f2f2;stroke-linejoin:miter;"/>
   </g>
  </g>
  <g id="pane3d_2">
   <g id="patch_4">
    <path d="M 128.723211 133.58541 
L 305.111665 171.581202 
L 312.491547 37.79869 
L 126.910339 3.718968 
" style="fill:#e6e6e6;opacity:0.5;stroke:#e6e6e6;stroke-linejoin:miter;"/>
   </g>
  </g>
  <g id="pane3d_3">
   <g id="patch_5">
    <path d="M 19.835129 201.548569 
L 205.419617 245.80086 
L 305.111665 171.581202 
L 128.723211 133.58541 
" style="fill:#ececec;opacity:0.5;stroke:#ececec;stroke-linejoin:miter;"/>
   </g>
  </g>
  <g id="axis3d_1">
   <g id="line2d_1">
    <path d="M 19.835129 201.548569 
L 205.419617 245.80086 
" style="fill:none;stroke:#000000;stroke-linecap:square;stroke-width:0.8;"/>
   </g>
   <g id="Line3DCollection_1">
    <path d="M 42.295817 206.90428 
L 150.133942 138.19749 
L 149.393845 7.847789 
" style="fill:none;stroke:#b0b0b0;stroke-width:0.8;"/>
    <path d="M 87.512337 217.686079 
L 193.184014 147.470895 
L 194.636898 16.156123 
" style="fill:none;stroke:#b0b0b0;stroke-width:0.8;"/>
    <path d="M 133.765289 228.715013 
L 237.148096 156.941187 
L 240.890183 24.649974 
" style="fill:none;stroke:#b0b0b0;stroke-width:0.8;"/>
    <path d="M 181.090721 239.999678 
L 282.055608 166.614702 
L 288.187917 33.335625 
" style="fill:none;stroke:#b0b0b0;stroke-width:0.8;"/>
   </g>
   <g id="xtick_1">
    <g id="line2d_2">
     <path d="M 43.225084 206.312217 
L 40.433807 208.09062 
" style="fill:none;stroke:#000000;stroke-linecap:square;stroke-width:0.8;"/>
    </g>
    <g id="text_1">
     <!-- 00 -->
     <defs>
      <path d="M 42 31.84375 
C 42 37.96875 41.90625 48.421875 37.703125 56.453125 
C 34 63.484375 28.09375 66 22.90625 66 
C 18.09375 66 12 63.78125 8.203125 56.5625 
C 4.203125 49.015625 3.796875 39.671875 3.796875 31.84375 
C 3.796875 26.109375 3.90625 17.375 7 9.734375 
C 11.296875 -0.609375 19 -2 22.90625 -2 
C 27.5 -2 34.5 -0.109375 38.59375 9.4375 
C 41.59375 16.375 42 24.5 42 31.84375 
z
M 22.90625 -0.40625 
C 16.5 -0.40625 12.703125 5.125 11.296875 12.75 
C 10.203125 18.6875 10.203125 27.328125 10.203125 32.953125 
C 10.203125 40.6875 10.203125 47.109375 11.5 53.234375 
C 13.40625 61.78125 19 64.390625 22.90625 64.390625 
C 27 64.390625 32.296875 61.671875 34.203125 53.4375 
C 35.5 47.71875 35.59375 40.984375 35.59375 32.953125 
C 35.59375 26.421875 35.59375 18.375 34.40625 12.453125 
C 32.296875 1.5 26.40625 -0.40625 22.90625 -0.40625 
z
" id="CMR17-48"/>
     </defs>
     <g transform="translate(16.108553 247.89009)rotate(-45)scale(0.24 -0.24)">
      <use transform="scale(0.996264)" xlink:href="#CMR17-48"/>
      <use transform="translate(45.690477 0)scale(0.996264)" xlink:href="#CMR17-48"/>
     </g>
    </g>
   </g>
   <g id="xtick_2">
    <g id="line2d_3">
     <path d="M 88.423674 217.080527 
L 85.686217 218.899473 
" style="fill:none;stroke:#000000;stroke-linecap:square;stroke-width:0.8;"/>
    </g>
    <g id="text_2">
     <!-- 01 -->
     <defs>
      <path d="M 26.59375 63.796875 
C 26.59375 65.890625 26.5 66 25.09375 66 
C 21.203125 61.359375 15.296875 59.890625 9.703125 59.6875 
C 9.40625 59.6875 8.90625 59.6875 8.796875 59.5 
C 8.703125 59.296875 8.703125 59.09375 8.703125 57 
C 11.796875 57 17 57.59375 21 59.984375 
L 21 7.296875 
C 21 3.796875 20.796875 2.59375 12.203125 2.59375 
L 9.203125 2.59375 
L 9.203125 0 
C 14 0.09375 19 0.1875 23.796875 0.1875 
C 28.59375 0.1875 33.59375 0.09375 38.40625 0 
L 38.40625 2.59375 
L 35.40625 2.59375 
C 26.796875 2.59375 26.59375 3.6875 26.59375 7.296875 
z
" id="CMR17-49"/>
     </defs>
     <g transform="translate(61.320978 258.846842)rotate(-45)scale(0.24 -0.24)">
      <use transform="scale(0.996264)" xlink:href="#CMR17-48"/>
      <use transform="translate(45.690477 0)scale(0.996264)" xlink:href="#CMR17-49"/>
     </g>
    </g>
   </g>
   <g id="xtick_3">
    <g id="line2d_4">
     <path d="M 134.657625 228.095506 
L 131.977203 229.956397 
" style="fill:none;stroke:#000000;stroke-linecap:square;stroke-width:0.8;"/>
    </g>
    <g id="text_3">
     <!-- 10 -->
     <g transform="translate(107.571591 270.055188)rotate(-45)scale(0.24 -0.24)">
      <use transform="scale(0.996264)" xlink:href="#CMR17-49"/>
      <use transform="translate(45.690477 0)scale(0.996264)" xlink:href="#CMR17-48"/>
     </g>
    </g>
   </g>
   <g id="xtick_4">
    <g id="line2d_5">
     <path d="M 181.962926 239.365727 
L 179.342936 241.270032 
" style="fill:none;stroke:#000000;stroke-linecap:square;stroke-width:0.8;"/>
    </g>
    <g id="text_4">
     <!-- 11 -->
     <g transform="translate(154.896566 281.523893)rotate(-45)scale(0.24 -0.24)">
      <use transform="scale(0.996264)" xlink:href="#CMR17-49"/>
      <use transform="translate(45.690477 0)scale(0.996264)" xlink:href="#CMR17-49"/>
     </g>
    </g>
   </g>
  </g>
  <g id="axis3d_2">
   <g id="line2d_6">
    <path d="M 305.111665 171.581202 
L 205.419617 245.80086 
" style="fill:none;stroke:#000000;stroke-linecap:square;stroke-width:0.8;"/>
   </g>
   <g id="Line3DCollection_2">
    <path d="M 27.455231 56.547028 
L 34.471044 192.413474 
L 218.858418 235.795817 
" style="fill:none;stroke:#b0b0b0;stroke-width:0.8;"/>
    <path d="M 57.232024 40.730342 
L 62.623407 174.842005 
L 244.674037 216.576366 
" style="fill:none;stroke:#b0b0b0;stroke-width:0.8;"/>
    <path d="M 85.85589 25.526062 
L 89.739382 157.917404 
L 269.496985 198.095948 
" style="fill:none;stroke:#b0b0b0;stroke-width:0.8;"/>
    <path d="M 113.392516 10.899296 
L 115.875164 141.604597 
L 293.383438 180.312741 
" style="fill:none;stroke:#b0b0b0;stroke-width:0.8;"/>
   </g>
   <g id="xtick_5">
    <g id="line2d_7">
     <path d="M 217.315598 235.432825 
L 221.947489 236.522608 
" style="fill:none;stroke:#000000;stroke-linecap:square;stroke-width:0.8;"/>
    </g>
    <g id="text_5">
     <!-- 00 -->
     <g transform="translate(233.392289 249.065483)rotate(-337.5)scale(0.24 -0.24)">
      <use transform="scale(0.996264)" xlink:href="#CMR17-48"/>
      <use transform="translate(45.690477 0)scale(0.996264)" xlink:href="#CMR17-48"/>
     </g>
    </g>
   </g>
   <g id="xtick_6">
    <g id="line2d_8">
     <path d="M 243.15208 216.227463 
L 247.72127 217.274932 
" style="fill:none;stroke:#000000;stroke-linecap:square;stroke-width:0.8;"/>
    </g>
    <g id="text_6">
     <!-- 01 -->
     <g transform="translate(258.94584 229.621057)rotate(-337.5)scale(0.24 -0.24)">
      <use transform="scale(0.996264)" xlink:href="#CMR17-48"/>
      <use transform="translate(45.690477 0)scale(0.996264)" xlink:href="#CMR17-49"/>
     </g>
    </g>
   </g>
   <g id="xtick_7">
    <g id="line2d_9">
     <path d="M 267.995442 197.76033 
L 272.503283 198.767901 
" style="fill:none;stroke:#000000;stroke-linecap:square;stroke-width:0.8;"/>
    </g>
    <g id="text_7">
     <!-- 10 -->
     <g transform="translate(283.517252 210.923969)rotate(-337.5)scale(0.24 -0.24)">
      <use transform="scale(0.996264)" xlink:href="#CMR17-49"/>
      <use transform="translate(45.690477 0)scale(0.996264)" xlink:href="#CMR17-48"/>
     </g>
    </g>
   </g>
   <g id="xtick_8">
    <g id="line2d_10">
     <path d="M 291.901865 179.989663 
L 296.349691 180.959573 
" style="fill:none;stroke:#000000;stroke-linecap:square;stroke-width:0.8;"/>
    </g>
    <g id="text_8">
     <!-- 11 -->
     <g transform="translate(307.162078 192.931947)rotate(-337.5)scale(0.24 -0.24)">
      <use transform="scale(0.996264)" xlink:href="#CMR17-49"/>
      <use transform="translate(45.690477 0)scale(0.996264)" xlink:href="#CMR17-49"/>
     </g>
    </g>
   </g>
  </g>
  <g id="axis3d_3">
   <g id="line2d_11">
    <path d="M 305.111665 171.581202 
L 312.491547 37.79869 
" style="fill:none;stroke:#000000;stroke-linecap:square;stroke-width:0.8;"/>
   </g>
   <g id="Line3DCollection_3">
    <path d="M 305.252029 169.036678 
L 128.688656 131.110086 
L 19.685428 198.951687 
" style="fill:none;stroke:#b0b0b0;stroke-width:0.8;"/>
    <path d="M 306.61514 144.326215 
L 128.35324 107.082308 
L 18.231134 173.72392 
" style="fill:none;stroke:#b0b0b0;stroke-width:0.8;"/>
    <path d="M 308.004961 119.131522 
L 128.01153 82.603591 
L 16.747389 147.985272 
" style="fill:none;stroke:#b0b0b0;stroke-width:0.8;"/>
    <path d="M 309.422288 93.438226 
L 127.663345 57.66112 
L 15.233291 121.720066 
" style="fill:none;stroke:#b0b0b0;stroke-width:0.8;"/>
    <path d="M 310.867943 67.231377 
L 127.308501 32.241589 
L 13.687896 94.911977 
" style="fill:none;stroke:#b0b0b0;stroke-width:0.8;"/>
   </g>
   <g id="xtick_9">
    <g id="line2d_12">
     <path d="M 303.77886 168.720235 
L 308.201432 169.670223 
" style="fill:none;stroke:#000000;stroke-linecap:square;stroke-width:0.8;"/>
    </g>
    <g id="text_9">
     <!-- $0.0$ -->
     <defs>
      <path d="M 18.40625 4.796875 
C 18.40625 7.6875 16 9.6875 13.59375 9.6875 
C 10.703125 9.6875 8.703125 7.296875 8.703125 4.890625 
C 8.703125 2 11.09375 0 13.5 0 
C 16.40625 0 18.40625 2.390625 18.40625 4.796875 
z
" id="CMMI12-58"/>
     </defs>
     <g transform="translate(309.562437 183.700174)scale(0.24 -0.24)">
      <use transform="scale(0.996264)" xlink:href="#CMR17-48"/>
      <use transform="translate(45.690477 0)scale(0.996264)" xlink:href="#CMMI12-58"/>
      <use transform="translate(72.787654 0)scale(0.996264)" xlink:href="#CMR17-48"/>
     </g>
    </g>
   </g>
   <g id="xtick_10">
    <g id="line2d_13">
     <path d="M 305.127205 144.015344 
L 309.594135 144.94861 
" style="fill:none;stroke:#000000;stroke-linecap:square;stroke-width:0.8;"/>
    </g>
    <g id="text_10">
     <!-- $0.1$ -->
     <g transform="translate(311.102013 159.023919)scale(0.24 -0.24)">
      <use transform="scale(0.996264)" xlink:href="#CMR17-48"/>
      <use transform="translate(45.690477 0)scale(0.996264)" xlink:href="#CMMI12-58"/>
      <use transform="translate(72.787654 0)scale(0.996264)" xlink:href="#CMR17-49"/>
     </g>
    </g>
   </g>
   <g id="xtick_11">
    <g id="line2d_14">
     <path d="M 306.501962 118.826503 
L 311.014148 119.742208 
" style="fill:none;stroke:#000000;stroke-linecap:square;stroke-width:0.8;"/>
    </g>
    <g id="text_11">
     <!-- $0.2$ -->
     <defs>
      <path d="M 41.703125 15.46875 
L 39.90625 15.46875 
C 38.90625 8.390625 38.09375 7.1875 37.703125 6.59375 
C 37.203125 5.796875 30 5.796875 28.59375 5.796875 
L 9.40625 5.796875 
C 13 9.6875 20 16.765625 28.5 24.9375 
C 34.59375 30.71875 41.703125 37.5 41.703125 47.390625 
C 41.703125 59.1875 32.296875 66 21.796875 66 
C 10.796875 66 4.09375 56.296875 4.09375 47.296875 
C 4.09375 43.390625 7 42.890625 8.203125 42.890625 
C 9.203125 42.890625 12.203125 43.484375 12.203125 46.984375 
C 12.203125 50.09375 9.59375 51 8.203125 51 
C 7.59375 51 7 50.890625 6.59375 50.6875 
C 8.5 59.1875 14.296875 63.390625 20.40625 63.390625 
C 29.09375 63.390625 34.796875 56.5 34.796875 47.390625 
C 34.796875 38.703125 29.703125 31.21875 24 24.734375 
L 4.09375 2.296875 
L 4.09375 0 
L 39.296875 0 
z
" id="CMR17-50"/>
     </defs>
     <g transform="translate(312.671693 133.865153)scale(0.24 -0.24)">
      <use transform="scale(0.996264)" xlink:href="#CMR17-48"/>
      <use transform="translate(45.690477 0)scale(0.996264)" xlink:href="#CMMI12-58"/>
      <use transform="translate(72.787654 0)scale(0.996264)" xlink:href="#CMR17-50"/>
     </g>
    </g>
   </g>
   <g id="xtick_12">
    <g id="line2d_15">
     <path d="M 307.903916 93.139352 
L 312.462284 94.036613 
" style="fill:none;stroke:#000000;stroke-linecap:square;stroke-width:0.8;"/>
    </g>
    <g id="text_12">
     <!-- $0.3$ -->
     <defs>
      <path d="M 22.09375 34 
C 31 34 34.90625 26.140625 34.90625 17.09375 
C 34.90625 5.03125 28.5 0.390625 22.703125 0.390625 
C 17.40625 0.390625 8.796875 3.015625 6.09375 10.796875 
C 6.59375 10.59375 7.09375 10.59375 7.59375 10.59375 
C 10 10.59375 11.796875 12.1875 11.796875 14.796875 
C 11.796875 17.6875 9.59375 19 7.59375 19 
C 5.90625 19 3.296875 18.1875 3.296875 14.484375 
C 3.296875 5.234375 12.296875 -2 22.90625 -2 
C 34 -2 42.5 6.75 42.5 16.984375 
C 42.5 26.84375 34.5 34 25 35.09375 
C 32.59375 36.671875 39.90625 43.375 39.90625 52.390625 
C 39.90625 60.25 32 66 23 66 
C 13.90625 66 5.90625 60.34375 5.90625 52.296875 
C 5.90625 48.796875 8.5 48.1875 9.796875 48.1875 
C 11.90625 48.1875 13.703125 49.484375 13.703125 52.09375 
C 13.703125 54.6875 11.90625 56 9.796875 56 
C 9.40625 56 8.90625 56 8.5 55.796875 
C 11.40625 62.484375 19.296875 63.6875 22.796875 63.6875 
C 26.296875 63.6875 32.90625 61.96875 32.90625 52.296875 
C 32.90625 49.484375 32.5 44.546875 29.09375 40.21875 
C 26.09375 36.390625 22.703125 36.1875 19.40625 35.890625 
C 18.90625 35.890625 16.59375 35.6875 16.203125 35.6875 
C 15.5 35.59375 15.09375 35.5 15.09375 34.796875 
C 15.09375 34.09375 15.203125 34 17.203125 34 
z
" id="CMR17-51"/>
     </defs>
     <g transform="translate(314.272369 108.209583)scale(0.24 -0.24)">
      <use transform="scale(0.996264)" xlink:href="#CMR17-48"/>
      <use transform="translate(45.690477 0)scale(0.996264)" xlink:href="#CMMI12-58"/>
      <use transform="translate(72.787654 0)scale(0.996264)" xlink:href="#CMR17-51"/>
     </g>
    </g>
   </g>
   <g id="xtick_13">
    <g id="line2d_16">
     <path d="M 309.333882 66.938957 
L 313.939385 67.81685 
" style="fill:none;stroke:#000000;stroke-linecap:square;stroke-width:0.8;"/>
    </g>
    <g id="text_13">
     <!-- $0.4$ -->
     <defs>
      <path d="M 33.59375 64.796875 
C 33.59375 66.890625 33.5 67 31.703125 67 
L 2 19.59375 
L 2 17 
L 27.796875 17 
L 27.796875 7.1875 
C 27.796875 3.59375 27.59375 2.59375 20.59375 2.59375 
L 18.703125 2.59375 
L 18.703125 0 
C 21.90625 0.1875 27.296875 0.1875 30.703125 0.1875 
C 34.09375 0.1875 39.5 0.1875 42.703125 0 
L 42.703125 2.59375 
L 40.796875 2.59375 
C 33.796875 2.59375 33.59375 3.59375 33.59375 7.1875 
L 33.59375 17 
L 43.796875 17 
L 43.796875 19.59375 
L 33.59375 19.59375 
z
M 28.09375 58.171875 
L 28.09375 19.59375 
L 4 19.59375 
z
" id="CMR17-52"/>
     </defs>
     <g transform="translate(315.904968 82.042346)scale(0.24 -0.24)">
      <use transform="scale(0.996264)" xlink:href="#CMR17-48"/>
      <use transform="translate(45.690477 0)scale(0.996264)" xlink:href="#CMMI12-58"/>
      <use transform="translate(72.787654 0)scale(0.996264)" xlink:href="#CMR17-52"/>
     </g>
    </g>
   </g>
  </g>
  <g id="axes_1">
   <g id="Poly3DCollection_1">
    <path clip-path="url(#p1db196e603)" d="M 176.050954 146.769767 
L 176.055165 145.810965 
L 197.904553 150.528289 
L 197.892125 151.4904 
z
" style="fill:#5d0618;fill-opacity:0.8;"/>
    <path clip-path="url(#p1db196e603)" d="M 163.530392 154.977964 
L 163.529926 154.013421 
L 176.055165 145.810965 
L 176.050954 146.769767 
z
" style="fill:#ba0c2f;fill-opacity:0.8;"/>
    <path clip-path="url(#p1db196e603)" d="M 163.530392 154.977964 
L 176.050954 146.769767 
L 197.892125 151.4904 
L 185.506836 159.786168 
z
" style="fill:#74081d;fill-opacity:0.8;"/>
    <path clip-path="url(#p1db196e603)" d="M 163.529926 154.013421 
L 185.514689 158.818288 
L 197.904553 150.528289 
L 176.055165 145.810965 
z
" style="fill:#a30a29;fill-opacity:0.8;"/>
    <path clip-path="url(#p1db196e603)" d="M 185.506836 159.786168 
L 197.892125 151.4904 
L 197.904553 150.528289 
L 185.514689 158.818288 
z
" style="fill:#5d0618;fill-opacity:0.8;"/>
    <path clip-path="url(#p1db196e603)" d="M 163.530392 154.977964 
L 185.506836 159.786168 
L 185.514689 158.818288 
L 163.529926 154.013421 
z
" style="fill:#ba0c2f;fill-opacity:0.8;"/>
   </g>
   <g id="Poly3DCollection_2">
    <path clip-path="url(#p1db196e603)" d="M 120.271134 145.513314 
L 133.051747 137.476151 
L 154.438688 142.098609 
L 141.786381 150.220613 
z
" style="fill:#74081d;fill-opacity:0.8;"/>
    <path clip-path="url(#p1db196e603)" d="M 133.051747 137.476151 
L 132.518036 94.091021 
L 154.263937 98.560484 
L 154.438688 142.098609 
z
" style="fill:#5d0618;fill-opacity:0.8;"/>
    <path clip-path="url(#p1db196e603)" d="M 120.271134 145.513314 
L 119.515421 101.862674 
L 132.518036 94.091021 
L 133.051747 137.476151 
z
" style="fill:#ba0c2f;fill-opacity:0.8;"/>
    <path clip-path="url(#p1db196e603)" d="M 141.786381 150.220613 
L 154.438688 142.098609 
L 154.263937 98.560484 
L 141.393968 106.415573 
z
" style="fill:#5d0618;fill-opacity:0.8;"/>
    <path clip-path="url(#p1db196e603)" d="M 120.271134 145.513314 
L 141.786381 150.220613 
L 141.393968 106.415573 
L 119.515421 101.862674 
z
" style="fill:#ba0c2f;fill-opacity:0.8;"/>
    <path clip-path="url(#p1db196e603)" d="M 119.515421 101.862674 
L 141.393968 106.415573 
L 154.263937 98.560484 
L 132.518036 94.091021 
z
" style="fill:#a30a29;fill-opacity:0.8;"/>
   </g>
   <g id="Poly3DCollection_3">
    <path clip-path="url(#p1db196e603)" d="M 107.255484 153.698282 
L 107.253153 153.594425 
L 128.898693 158.388564 
L 128.900155 158.49278 
z
" style="fill:#5d0618;fill-opacity:0.8;"/>
    <path clip-path="url(#p1db196e603)" d="M 93.998253 162.035168 
L 93.995358 161.930689 
L 107.253153 153.594425 
L 107.255484 153.698282 
z
" style="fill:#ba0c2f;fill-opacity:0.8;"/>
    <path clip-path="url(#p1db196e603)" d="M 93.998253 162.035168 
L 107.255484 153.698282 
L 128.900155 158.49278 
L 115.773462 166.919311 
z
" style="fill:#74081d;fill-opacity:0.8;"/>
    <path clip-path="url(#p1db196e603)" d="M 93.995358 161.930689 
L 115.771446 166.814469 
L 128.898693 158.388564 
L 107.253153 153.594425 
z
" style="fill:#a30a29;fill-opacity:0.8;"/>
    <path clip-path="url(#p1db196e603)" d="M 115.773462 166.919311 
L 128.900155 158.49278 
L 128.898693 158.388564 
L 115.771446 166.814469 
z
" style="fill:#5d0618;fill-opacity:0.8;"/>
    <path clip-path="url(#p1db196e603)" d="M 93.998253 162.035168 
L 115.773462 166.919311 
L 115.771446 166.814469 
L 93.995358 161.930689 
z
" style="fill:#ba0c2f;fill-opacity:0.8;"/>
   </g>
   <g id="Poly3DCollection_4">
    <path clip-path="url(#p1db196e603)" d="M 219.965857 156.261297 
L 219.952471 156.881956 
L 242.256988 161.70607 
L 242.275884 161.083265 
z
" style="fill:#ba0c2f;fill-opacity:0.8;"/>
    <path clip-path="url(#p1db196e603)" d="M 207.719458 164.646045 
L 207.708946 165.270427 
L 219.952471 156.881956 
L 219.965857 156.261297 
z
" style="fill:#5d0618;fill-opacity:0.8;"/>
    <path clip-path="url(#p1db196e603)" d="M 207.708946 165.270427 
L 230.155994 170.184979 
L 242.256988 161.70607 
L 219.952471 156.881956 
z
" style="fill:#a30a29;fill-opacity:0.8;"/>
    <path clip-path="url(#p1db196e603)" d="M 207.719458 164.646045 
L 219.965857 156.261297 
L 242.275884 161.083265 
L 230.172089 169.558433 
z
" style="fill:#74081d;fill-opacity:0.8;"/>
    <path clip-path="url(#p1db196e603)" d="M 230.172089 169.558433 
L 242.275884 161.083265 
L 242.256988 161.70607 
L 230.155994 170.184979 
z
" style="fill:#ba0c2f;fill-opacity:0.8;"/>
    <path clip-path="url(#p1db196e603)" d="M 207.719458 164.646045 
L 230.172089 169.558433 
L 230.155994 170.184979 
L 207.708946 165.270427 
z
" style="fill:#5d0618;fill-opacity:0.8;"/>
   </g>
   <g id="Poly3DCollection_5">
    <path clip-path="url(#p1db196e603)" d="M 150.777105 163.33873 
L 150.778234 163.544673 
L 172.889435 168.443621 
L 172.890093 168.236965 
z
" style="fill:#ba0c2f;fill-opacity:0.8;"/>
    <path clip-path="url(#p1db196e603)" d="M 137.784542 171.856359 
L 137.78674 172.06354 
L 150.778234 163.544673 
L 150.777105 163.33873 
z
" style="fill:#5d0618;fill-opacity:0.8;"/>
    <path clip-path="url(#p1db196e603)" d="M 137.78674 172.06354 
L 160.035736 177.055078 
L 172.889435 168.443621 
L 150.778234 163.544673 
z
" style="fill:#a30a29;fill-opacity:0.8;"/>
    <path clip-path="url(#p1db196e603)" d="M 137.784542 171.856359 
L 150.777105 163.33873 
L 172.890093 168.236965 
L 160.035349 176.847178 
z
" style="fill:#74081d;fill-opacity:0.8;"/>
    <path clip-path="url(#p1db196e603)" d="M 160.035349 176.847178 
L 172.890093 168.236965 
L 172.889435 168.443621 
L 160.035736 177.055078 
z
" style="fill:#ba0c2f;fill-opacity:0.8;"/>
    <path clip-path="url(#p1db196e603)" d="M 137.784542 171.856359 
L 160.035349 176.847178 
L 160.035736 177.055078 
L 137.78674 172.06354 
z
" style="fill:#5d0618;fill-opacity:0.8;"/>
   </g>
   <g id="Poly3DCollection_6">
    <path clip-path="url(#p1db196e603)" d="M 80.492653 170.528244 
L 80.455848 169.416717 
L 102.372121 174.389181 
L 102.399507 175.504569 
z
" style="fill:#5d0618;fill-opacity:0.8;"/>
    <path clip-path="url(#p1db196e603)" d="M 66.731637 179.181938 
L 66.688418 178.063712 
L 80.455848 169.416717 
L 80.492653 170.528244 
z
" style="fill:#ba0c2f;fill-opacity:0.8;"/>
    <path clip-path="url(#p1db196e603)" d="M 66.731637 179.181938 
L 80.492653 170.528244 
L 102.399507 175.504569 
L 88.771239 184.25308 
z
" style="fill:#74081d;fill-opacity:0.8;"/>
    <path clip-path="url(#p1db196e603)" d="M 66.688418 178.063712 
L 88.737552 183.130961 
L 102.372121 174.389181 
L 80.455848 169.416717 
z
" style="fill:#a30a29;fill-opacity:0.8;"/>
    <path clip-path="url(#p1db196e603)" d="M 88.771239 184.25308 
L 102.399507 175.504569 
L 102.372121 174.389181 
L 88.737552 183.130961 
z
" style="fill:#5d0618;fill-opacity:0.8;"/>
    <path clip-path="url(#p1db196e603)" d="M 66.731637 179.181938 
L 88.771239 184.25308 
L 88.737552 183.130961 
L 66.688418 178.063712 
z
" style="fill:#ba0c2f;fill-opacity:0.8;"/>
   </g>
   <g id="Poly3DCollection_7">
    <path clip-path="url(#p1db196e603)" d="M 195.242961 173.188335 
L 195.24587 172.945657 
L 217.844727 177.950189 
L 217.839633 178.19371 
z
" style="fill:#5d0618;fill-opacity:0.8;"/>
    <path clip-path="url(#p1db196e603)" d="M 182.529819 181.892649 
L 182.53153 181.648508 
L 195.24587 172.945657 
L 195.242961 173.188335 
z
" style="fill:#ba0c2f;fill-opacity:0.8;"/>
    <path clip-path="url(#p1db196e603)" d="M 182.529819 181.892649 
L 195.242961 173.188335 
L 217.839633 178.19371 
L 205.271977 186.993677 
z
" style="fill:#74081d;fill-opacity:0.8;"/>
    <path clip-path="url(#p1db196e603)" d="M 182.53153 181.648508 
L 205.275901 186.748686 
L 217.844727 177.950189 
L 195.24587 172.945657 
z
" style="fill:#a30a29;fill-opacity:0.8;"/>
    <path clip-path="url(#p1db196e603)" d="M 205.271977 186.993677 
L 217.839633 178.19371 
L 217.844727 177.950189 
L 205.275901 186.748686 
z
" style="fill:#5d0618;fill-opacity:0.8;"/>
    <path clip-path="url(#p1db196e603)" d="M 182.529819 181.892649 
L 205.271977 186.993677 
L 205.275901 186.748686 
L 182.53153 181.648508 
z
" style="fill:#ba0c2f;fill-opacity:0.8;"/>
   </g>
   <g id="Poly3DCollection_8">
    <path clip-path="url(#p1db196e603)" d="M 124.545907 180.535308 
L 124.541945 180.285591 
L 146.934037 185.370774 
L 146.935803 185.62136 
z
" style="fill:#5d0618;fill-opacity:0.8;"/>
    <path clip-path="url(#p1db196e603)" d="M 111.054142 189.380204 
L 111.0488 189.128979 
L 124.541945 180.285591 
L 124.545907 180.535308 
z
" style="fill:#ba0c2f;fill-opacity:0.8;"/>
    <path clip-path="url(#p1db196e603)" d="M 111.054142 189.380204 
L 124.545907 180.535308 
L 146.935803 185.62136 
L 133.584397 194.564241 
z
" style="fill:#74081d;fill-opacity:0.8;"/>
    <path clip-path="url(#p1db196e603)" d="M 111.0488 189.128979 
L 133.581279 194.31214 
L 146.934037 185.370774 
L 124.541945 180.285591 
z
" style="fill:#a30a29;fill-opacity:0.8;"/>
    <path clip-path="url(#p1db196e603)" d="M 133.584397 194.564241 
L 146.935803 185.62136 
L 146.934037 185.370774 
L 133.581279 194.31214 
z
" style="fill:#5d0618;fill-opacity:0.8;"/>
    <path clip-path="url(#p1db196e603)" d="M 111.054142 189.380204 
L 133.584397 194.564241 
L 133.581279 194.31214 
L 111.0488 189.128979 
z
" style="fill:#ba0c2f;fill-opacity:0.8;"/>
   </g>
   <g id="Poly3DCollection_9">
    <path clip-path="url(#p1db196e603)" d="M 240.68412 183.253979 
L 240.665159 183.886488 
L 263.755655 189.00476 
L 263.78052 188.370049 
z
" style="fill:#ba0c2f;fill-opacity:0.8;"/>
    <path clip-path="url(#p1db196e603)" d="M 228.265937 192.151184 
L 228.249926 192.787513 
L 240.665159 183.886488 
L 240.68412 183.253979 
z
" style="fill:#5d0618;fill-opacity:0.8;"/>
    <path clip-path="url(#p1db196e603)" d="M 228.249926 192.787513 
L 251.493908 198.00466 
L 263.755655 189.00476 
L 240.665159 183.886488 
z
" style="fill:#a30a29;fill-opacity:0.8;"/>
    <path clip-path="url(#p1db196e603)" d="M 228.265937 192.151184 
L 240.68412 183.253979 
L 263.78052 188.370049 
L 251.515903 197.366112 
z
" style="fill:#74081d;fill-opacity:0.8;"/>
    <path clip-path="url(#p1db196e603)" d="M 251.515903 197.366112 
L 263.78052 188.370049 
L 263.755655 189.00476 
L 251.493908 198.00466 
z
" style="fill:#ba0c2f;fill-opacity:0.8;"/>
    <path clip-path="url(#p1db196e603)" d="M 228.265937 192.151184 
L 251.515903 197.366112 
L 251.493908 198.00466 
L 228.249926 192.787513 
z
" style="fill:#5d0618;fill-opacity:0.8;"/>
   </g>
   <g id="Poly3DCollection_10">
    <path clip-path="url(#p1db196e603)" d="M 169.573234 190.763642 
L 169.572834 190.973525 
L 192.460011 196.173706 
L 192.462326 195.96309 
z
" style="fill:#ba0c2f;fill-opacity:0.8;"/>
    <path clip-path="url(#p1db196e603)" d="M 156.366146 199.806146 
L 156.366851 200.017299 
L 169.572834 190.973525 
L 169.573234 190.763642 
z
" style="fill:#5d0618;fill-opacity:0.8;"/>
    <path clip-path="url(#p1db196e603)" d="M 156.366851 200.017299 
L 179.402388 205.318782 
L 192.460011 196.173706 
L 169.572834 190.973525 
z
" style="fill:#a30a29;fill-opacity:0.8;"/>
    <path clip-path="url(#p1db196e603)" d="M 156.366146 199.806146 
L 169.573234 190.763642 
L 192.462326 195.96309 
L 179.403624 205.106891 
z
" style="fill:#74081d;fill-opacity:0.8;"/>
    <path clip-path="url(#p1db196e603)" d="M 179.403624 205.106891 
L 192.462326 195.96309 
L 192.460011 196.173706 
L 179.402388 205.318782 
z
" style="fill:#ba0c2f;fill-opacity:0.8;"/>
    <path clip-path="url(#p1db196e603)" d="M 156.366146 199.806146 
L 179.403624 205.106891 
L 179.402388 205.318782 
L 156.366851 200.017299 
z
" style="fill:#5d0618;fill-opacity:0.8;"/>
   </g>
   <g id="Poly3DCollection_11">
    <path clip-path="url(#p1db196e603)" d="M 97.301916 198.395852 
L 97.271555 197.263004 
L 119.953524 202.543926 
L 119.973795 203.680734 
z
" style="fill:#5d0618;fill-opacity:0.8;"/>
    <path clip-path="url(#p1db196e603)" d="M 83.281614 207.587244 
L 83.244585 206.447527 
L 97.271555 197.263004 
L 97.301916 198.395852 
z
" style="fill:#ba0c2f;fill-opacity:0.8;"/>
    <path clip-path="url(#p1db196e603)" d="M 83.281614 207.587244 
L 97.301916 198.395852 
L 119.973795 203.680734 
L 106.096377 212.975942 
z
" style="fill:#74081d;fill-opacity:0.8;"/>
    <path clip-path="url(#p1db196e603)" d="M 83.244585 206.447527 
L 106.069565 211.832235 
L 119.953524 202.543926 
L 97.271555 197.263004 
z
" style="fill:#a30a29;fill-opacity:0.8;"/>
    <path clip-path="url(#p1db196e603)" d="M 106.096377 212.975942 
L 119.973795 203.680734 
L 119.953524 202.543926 
L 106.069565 211.832235 
z
" style="fill:#5d0618;fill-opacity:0.8;"/>
    <path clip-path="url(#p1db196e603)" d="M 83.281614 207.587244 
L 106.096377 212.975942 
L 106.069565 211.832235 
L 83.244585 206.447527 
z
" style="fill:#ba0c2f;fill-opacity:0.8;"/>
   </g>
   <g id="Poly3DCollection_12">
    <path clip-path="url(#p1db196e603)" d="M 215.607301 201.220664 
L 215.627435 200.224835 
L 239.042041 205.538033 
L 239.012472 206.537345 
z
" style="fill:#5d0618;fill-opacity:0.8;"/>
    <path clip-path="url(#p1db196e603)" d="M 202.70116 210.467474 
L 202.716329 209.465604 
L 215.627435 200.224835 
L 215.607301 201.220664 
z
" style="fill:#ba0c2f;fill-opacity:0.8;"/>
    <path clip-path="url(#p1db196e603)" d="M 202.70116 210.467474 
L 215.607301 201.220664 
L 239.012472 206.537345 
L 226.263183 215.888913 
z
" style="fill:#74081d;fill-opacity:0.8;"/>
    <path clip-path="url(#p1db196e603)" d="M 202.716329 209.465604 
L 226.287915 214.883534 
L 239.042041 205.538033 
L 215.627435 200.224835 
z
" style="fill:#a30a29;fill-opacity:0.8;"/>
    <path clip-path="url(#p1db196e603)" d="M 226.263183 215.888913 
L 239.012472 206.537345 
L 239.042041 205.538033 
L 226.287915 214.883534 
z
" style="fill:#5d0618;fill-opacity:0.8;"/>
    <path clip-path="url(#p1db196e603)" d="M 202.70116 210.467474 
L 226.263183 215.888913 
L 226.287915 214.883534 
L 202.716329 209.465604 
z
" style="fill:#ba0c2f;fill-opacity:0.8;"/>
   </g>
   <g id="Poly3DCollection_13">
    <path clip-path="url(#p1db196e603)" d="M 142.90122 209.025184 
L 142.900279 208.917312 
L 166.088591 214.321966 
L 166.088534 214.430216 
z
" style="fill:#5d0618;fill-opacity:0.8;"/>
    <path clip-path="url(#p1db196e603)" d="M 129.17083 218.425978 
L 129.169283 218.31745 
L 142.900279 208.917312 
L 142.90122 209.025184 
z
" style="fill:#ba0c2f;fill-opacity:0.8;"/>
    <path clip-path="url(#p1db196e603)" d="M 129.17083 218.425978 
L 142.90122 209.025184 
L 166.088534 214.430216 
L 152.509433 223.938404 
z
" style="fill:#74081d;fill-opacity:0.8;"/>
    <path clip-path="url(#p1db196e603)" d="M 129.169283 218.31745 
L 152.508897 223.829496 
L 166.088591 214.321966 
L 142.900279 208.917312 
z
" style="fill:#a30a29;fill-opacity:0.8;"/>
    <path clip-path="url(#p1db196e603)" d="M 152.509433 223.938404 
L 166.088534 214.430216 
L 166.088591 214.321966 
L 152.508897 223.829496 
z
" style="fill:#5d0618;fill-opacity:0.8;"/>
    <path clip-path="url(#p1db196e603)" d="M 129.17083 218.425978 
L 152.509433 223.938404 
L 152.508897 223.829496 
L 129.169283 218.31745 
z
" style="fill:#ba0c2f;fill-opacity:0.8;"/>
   </g>
   <g id="Poly3DCollection_14">
    <path clip-path="url(#p1db196e603)" d="M 252.868637 174.524188 
L 264.826022 165.95713 
L 287.620167 170.883733 
L 275.8131 179.544184 
z
" style="fill:#74081d;fill-opacity:0.8;"/>
    <path clip-path="url(#p1db196e603)" d="M 264.826022 165.95713 
L 269.841858 38.138577 
L 293.813663 42.587149 
L 287.620167 170.883733 
z
" style="fill:#5d0618;fill-opacity:0.8;"/>
    <path clip-path="url(#p1db196e603)" d="M 252.868637 174.524188 
L 257.328709 45.875918 
L 269.841858 38.138577 
L 264.826022 165.95713 
z
" style="fill:#ba0c2f;fill-opacity:0.8;"/>
    <path clip-path="url(#p1db196e603)" d="M 275.8131 179.544184 
L 287.620167 170.883733 
L 293.813663 42.587149 
L 281.467003 50.413123 
z
" style="fill:#5d0618;fill-opacity:0.8;"/>
    <path clip-path="url(#p1db196e603)" d="M 252.868637 174.524188 
L 275.8131 179.544184 
L 281.467003 50.413123 
L 257.328709 45.875918 
z
" style="fill:#ba0c2f;fill-opacity:0.8;"/>
    <path clip-path="url(#p1db196e603)" d="M 257.328709 45.875918 
L 281.467003 50.413123 
L 293.813663 42.587149 
L 269.841858 38.138577 
z
" style="fill:#a30a29;fill-opacity:0.8;"/>
   </g>
   <g id="Poly3DCollection_15">
    <path clip-path="url(#p1db196e603)" d="M 25.579898 198.334202 
L 203.736081 240.609706 
L 299.718258 169.616378 
L 130.053112 133.100926 
z
" style="fill-opacity:0.15;"/>
   </g>
   <g id="Poly3DCollection_16">
    <path clip-path="url(#p1db196e603)" d="M 38.413819 196.989763 
L 52.707891 188.000852 
L 74.881333 193.169547 
L 60.722182 202.258853 
z
" style="fill:#74081d;fill-opacity:0.8;"/>
    <path clip-path="url(#p1db196e603)" d="M 52.707891 188.000852 
L 46.933544 57.750519 
L 70.222556 62.427839 
L 74.881333 193.169547 
z
" style="fill:#5d0618;fill-opacity:0.8;"/>
    <path clip-path="url(#p1db196e603)" d="M 38.413819 196.989763 
L 31.836896 65.886594 
L 46.933544 57.750519 
L 52.707891 188.000852 
z
" style="fill:#ba0c2f;fill-opacity:0.8;"/>
    <path clip-path="url(#p1db196e603)" d="M 60.722182 202.258853 
L 74.881333 193.169547 
L 70.222556 62.427839 
L 55.274545 70.659531 
z
" style="fill:#5d0618;fill-opacity:0.8;"/>
    <path clip-path="url(#p1db196e603)" d="M 38.413819 196.989763 
L 60.722182 202.258853 
L 55.274545 70.659531 
L 31.836896 65.886594 
z
" style="fill:#ba0c2f;fill-opacity:0.8;"/>
    <path clip-path="url(#p1db196e603)" d="M 31.836896 65.886594 
L 55.274545 70.659531 
L 70.222556 62.427839 
L 46.933544 57.750519 
z
" style="fill:#a30a29;fill-opacity:0.8;"/>
   </g>
   <g id="Poly3DCollection_17">
    <path clip-path="url(#p1db196e603)" d="M 176.116748 229.514298 
L 189.540183 219.896865 
L 213.260712 225.42619 
L 199.997442 235.154762 
z
" style="fill:#74081d;fill-opacity:0.8;"/>
    <path clip-path="url(#p1db196e603)" d="M 189.540183 219.896865 
L 189.996691 173.90221 
L 214.159575 179.26547 
L 213.260712 225.42619 
z
" style="fill:#5d0618;fill-opacity:0.8;"/>
    <path clip-path="url(#p1db196e603)" d="M 176.116748 229.514298 
L 176.328004 183.231526 
L 189.996691 173.90221 
L 189.540183 219.896865 
z
" style="fill:#ba0c2f;fill-opacity:0.8;"/>
    <path clip-path="url(#p1db196e603)" d="M 199.997442 235.154762 
L 213.260712 225.42619 
L 214.159575 179.26547 
L 200.657125 188.704609 
z
" style="fill:#5d0618;fill-opacity:0.8;"/>
    <path clip-path="url(#p1db196e603)" d="M 176.116748 229.514298 
L 199.997442 235.154762 
L 200.657125 188.704609 
L 176.328004 183.231526 
z
" style="fill:#ba0c2f;fill-opacity:0.8;"/>
    <path clip-path="url(#p1db196e603)" d="M 176.328004 183.231526 
L 200.657125 188.704609 
L 214.159575 179.26547 
L 189.996691 173.90221 
z
" style="fill:#a30a29;fill-opacity:0.8;"/>
   </g>
  </g>
  <g id="patch_6">
   <path d="M 425.945455 262.8 
L 806.4 262.8 
L 806.4 -14.4 
L 425.945455 -14.4 
z
" style="fill:#ffffff;"/>
  </g>
  <g id="pane3d_4">
   <g id="patch_7">
    <path d="M 476.380584 201.548569 
L 585.268665 133.58541 
L 583.455794 3.718968 
L 468.496488 64.782468 
" style="fill:#f2f2f2;opacity:0.5;stroke:#f2f2f2;stroke-linejoin:miter;"/>
   </g>
  </g>
  <g id="pane3d_5">
   <g id="patch_8">
    <path d="M 585.268665 133.58541 
L 761.65712 171.581202 
L 769.037001 37.79869 
L 583.455794 3.718968 
" style="fill:#e6e6e6;opacity:0.5;stroke:#e6e6e6;stroke-linejoin:miter;"/>
   </g>
  </g>
  <g id="pane3d_6">
   <g id="patch_9">
    <path d="M 476.380584 201.548569 
L 661.965072 245.80086 
L 761.65712 171.581202 
L 585.268665 133.58541 
" style="fill:#ececec;opacity:0.5;stroke:#ececec;stroke-linejoin:miter;"/>
   </g>
  </g>
  <g id="axis3d_4">
   <g id="line2d_17">
    <path d="M 476.380584 201.548569 
L 661.965072 245.80086 
" style="fill:none;stroke:#000000;stroke-linecap:square;stroke-width:0.8;"/>
   </g>
   <g id="Line3DCollection_4">
    <path d="M 498.841271 206.90428 
L 606.679397 138.19749 
L 605.9393 7.847789 
" style="fill:none;stroke:#b0b0b0;stroke-width:0.8;"/>
    <path d="M 544.057792 217.686079 
L 649.729469 147.470895 
L 651.182353 16.156123 
" style="fill:none;stroke:#b0b0b0;stroke-width:0.8;"/>
    <path d="M 590.310744 228.715013 
L 693.693551 156.941187 
L 697.435637 24.649974 
" style="fill:none;stroke:#b0b0b0;stroke-width:0.8;"/>
    <path d="M 637.636176 239.999678 
L 738.601063 166.614702 
L 744.733372 33.335625 
" style="fill:none;stroke:#b0b0b0;stroke-width:0.8;"/>
   </g>
   <g id="xtick_14">
    <g id="line2d_18">
     <path d="M 499.770538 206.312217 
L 496.979262 208.09062 
" style="fill:none;stroke:#000000;stroke-linecap:square;stroke-width:0.8;"/>
    </g>
    <g id="text_14">
     <!-- 00 -->
     <g transform="translate(472.654007 247.89009)rotate(-45)scale(0.24 -0.24)">
      <use transform="scale(0.996264)" xlink:href="#CMR17-48"/>
      <use transform="translate(45.690477 0)scale(0.996264)" xlink:href="#CMR17-48"/>
     </g>
    </g>
   </g>
   <g id="xtick_15">
    <g id="line2d_19">
     <path d="M 544.969128 217.080527 
L 542.231671 218.899473 
" style="fill:none;stroke:#000000;stroke-linecap:square;stroke-width:0.8;"/>
    </g>
    <g id="text_15">
     <!-- 01 -->
     <g transform="translate(517.866433 258.846842)rotate(-45)scale(0.24 -0.24)">
      <use transform="scale(0.996264)" xlink:href="#CMR17-48"/>
      <use transform="translate(45.690477 0)scale(0.996264)" xlink:href="#CMR17-49"/>
     </g>
    </g>
   </g>
   <g id="xtick_16">
    <g id="line2d_20">
     <path d="M 591.20308 228.095506 
L 588.522658 229.956397 
" style="fill:none;stroke:#000000;stroke-linecap:square;stroke-width:0.8;"/>
    </g>
    <g id="text_16">
     <!-- 10 -->
     <g transform="translate(564.117045 270.055188)rotate(-45)scale(0.24 -0.24)">
      <use transform="scale(0.996264)" xlink:href="#CMR17-49"/>
      <use transform="translate(45.690477 0)scale(0.996264)" xlink:href="#CMR17-48"/>
     </g>
    </g>
   </g>
   <g id="xtick_17">
    <g id="line2d_21">
     <path d="M 638.50838 239.365727 
L 635.888391 241.270032 
" style="fill:none;stroke:#000000;stroke-linecap:square;stroke-width:0.8;"/>
    </g>
    <g id="text_17">
     <!-- 11 -->
     <g transform="translate(611.44202 281.523893)rotate(-45)scale(0.24 -0.24)">
      <use transform="scale(0.996264)" xlink:href="#CMR17-49"/>
      <use transform="translate(45.690477 0)scale(0.996264)" xlink:href="#CMR17-49"/>
     </g>
    </g>
   </g>
  </g>
  <g id="axis3d_5">
   <g id="line2d_22">
    <path d="M 761.65712 171.581202 
L 661.965072 245.80086 
" style="fill:none;stroke:#000000;stroke-linecap:square;stroke-width:0.8;"/>
   </g>
   <g id="Line3DCollection_5">
    <path d="M 484.000685 56.547028 
L 491.016499 192.413474 
L 675.403872 235.795817 
" style="fill:none;stroke:#b0b0b0;stroke-width:0.8;"/>
    <path d="M 513.777478 40.730342 
L 519.168861 174.842005 
L 701.219492 216.576366 
" style="fill:none;stroke:#b0b0b0;stroke-width:0.8;"/>
    <path d="M 542.401344 25.526062 
L 546.284836 157.917404 
L 726.04244 198.095948 
" style="fill:none;stroke:#b0b0b0;stroke-width:0.8;"/>
    <path d="M 569.937971 10.899296 
L 572.420618 141.604597 
L 749.928893 180.312741 
" style="fill:none;stroke:#b0b0b0;stroke-width:0.8;"/>
   </g>
   <g id="xtick_18">
    <g id="line2d_23">
     <path d="M 673.861052 235.432825 
L 678.492943 236.522608 
" style="fill:none;stroke:#000000;stroke-linecap:square;stroke-width:0.8;"/>
    </g>
    <g id="text_18">
     <!-- 00 -->
     <g transform="translate(689.937743 249.065483)rotate(-337.5)scale(0.24 -0.24)">
      <use transform="scale(0.996264)" xlink:href="#CMR17-48"/>
      <use transform="translate(45.690477 0)scale(0.996264)" xlink:href="#CMR17-48"/>
     </g>
    </g>
   </g>
   <g id="xtick_19">
    <g id="line2d_24">
     <path d="M 699.697534 216.227463 
L 704.266725 217.274932 
" style="fill:none;stroke:#000000;stroke-linecap:square;stroke-width:0.8;"/>
    </g>
    <g id="text_19">
     <!-- 01 -->
     <g transform="translate(715.491295 229.621057)rotate(-337.5)scale(0.24 -0.24)">
      <use transform="scale(0.996264)" xlink:href="#CMR17-48"/>
      <use transform="translate(45.690477 0)scale(0.996264)" xlink:href="#CMR17-49"/>
     </g>
    </g>
   </g>
   <g id="xtick_20">
    <g id="line2d_25">
     <path d="M 724.540896 197.76033 
L 729.048738 198.767901 
" style="fill:none;stroke:#000000;stroke-linecap:square;stroke-width:0.8;"/>
    </g>
    <g id="text_20">
     <!-- 10 -->
     <g transform="translate(740.062706 210.923969)rotate(-337.5)scale(0.24 -0.24)">
      <use transform="scale(0.996264)" xlink:href="#CMR17-49"/>
      <use transform="translate(45.690477 0)scale(0.996264)" xlink:href="#CMR17-48"/>
     </g>
    </g>
   </g>
   <g id="xtick_21">
    <g id="line2d_26">
     <path d="M 748.44732 179.989663 
L 752.895146 180.959573 
" style="fill:none;stroke:#000000;stroke-linecap:square;stroke-width:0.8;"/>
    </g>
    <g id="text_21">
     <!-- 11 -->
     <g transform="translate(763.707533 192.931947)rotate(-337.5)scale(0.24 -0.24)">
      <use transform="scale(0.996264)" xlink:href="#CMR17-49"/>
      <use transform="translate(45.690477 0)scale(0.996264)" xlink:href="#CMR17-49"/>
     </g>
    </g>
   </g>
  </g>
  <g id="axis3d_6">
   <g id="line2d_27">
    <path d="M 761.65712 171.581202 
L 769.037001 37.79869 
" style="fill:none;stroke:#000000;stroke-linecap:square;stroke-width:0.8;"/>
   </g>
   <g id="Line3DCollection_6">
    <path d="M 761.828026 168.483004 
L 585.226592 130.571496 
L 476.198307 198.386597 
" style="fill:none;stroke:#b0b0b0;stroke-width:0.8;"/>
    <path d="M 764.569454 118.786399 
L 584.552305 82.268414 
L 473.272512 147.632581 
" style="fill:none;stroke:#b0b0b0;stroke-width:0.8;"/>
    <path d="M 767.419981 67.112047 
L 583.852341 32.125893 
L 470.226312 94.789868 
" style="fill:none;stroke:#b0b0b0;stroke-width:0.8;"/>
   </g>
   <g id="xtick_22">
    <g id="line2d_28">
     <path d="M 760.354527 168.166683 
L 764.778092 169.116302 
" style="fill:none;stroke:#000000;stroke-linecap:square;stroke-width:0.8;"/>
    </g>
    <g id="text_22">
     <!-- $0.0$ -->
     <g transform="translate(766.142389 183.147255)scale(0.24 -0.24)">
      <use transform="scale(0.996264)" xlink:href="#CMR17-48"/>
      <use transform="translate(45.690477 0)scale(0.996264)" xlink:href="#CMMI12-58"/>
      <use transform="translate(72.787654 0)scale(0.996264)" xlink:href="#CMR17-48"/>
     </g>
    </g>
   </g>
   <g id="xtick_23">
    <g id="line2d_29">
     <path d="M 763.066248 118.481461 
L 767.579055 119.396921 
" style="fill:none;stroke:#000000;stroke-linecap:square;stroke-width:0.8;"/>
    </g>
    <g id="text_23">
     <!-- $0.2$ -->
     <g transform="translate(769.238649 133.520529)scale(0.24 -0.24)">
      <use transform="scale(0.996264)" xlink:href="#CMR17-48"/>
      <use transform="translate(45.690477 0)scale(0.996264)" xlink:href="#CMMI12-58"/>
      <use transform="translate(72.787654 0)scale(0.996264)" xlink:href="#CMR17-50"/>
     </g>
    </g>
   </g>
   <g id="xtick_24">
    <g id="line2d_30">
     <path d="M 765.885848 66.819656 
L 770.491566 67.69746 
" style="fill:none;stroke:#000000;stroke-linecap:square;stroke-width:0.8;"/>
    </g>
    <g id="text_24">
     <!-- $0.4$ -->
     <g transform="translate(772.457857 81.923199)scale(0.24 -0.24)">
      <use transform="scale(0.996264)" xlink:href="#CMR17-48"/>
      <use transform="translate(45.690477 0)scale(0.996264)" xlink:href="#CMMI12-58"/>
      <use transform="translate(72.787654 0)scale(0.996264)" xlink:href="#CMR17-52"/>
     </g>
    </g>
   </g>
  </g>
  <g id="axes_2">
   <g id="Poly3DCollection_18">
    <path clip-path="url(#p71d92cdf0e)" d="M 589.590545 136.934982 
L 589.592863 137.123442 
L 610.982722 141.744687 
L 610.981963 141.555578 
z
" style="fill:#0cba97;fill-opacity:0.8;"/>
    <path clip-path="url(#p71d92cdf0e)" d="M 576.807164 144.968915 
L 576.810446 145.1585 
L 589.592863 137.123442 
L 589.590545 136.934982 
z
" style="fill:#065d4c;fill-opacity:0.8;"/>
    <path clip-path="url(#p71d92cdf0e)" d="M 576.810446 145.1585 
L 598.328646 149.864576 
L 610.982722 141.744687 
L 589.592863 137.123442 
z
" style="fill:#0aa384;fill-opacity:0.8;"/>
    <path clip-path="url(#p71d92cdf0e)" d="M 576.807164 144.968915 
L 589.590545 136.934982 
L 610.981963 141.555578 
L 598.326942 149.674337 
z
" style="fill:#08745e;fill-opacity:0.8;"/>
    <path clip-path="url(#p71d92cdf0e)" d="M 598.326942 149.674337 
L 610.981963 141.555578 
L 610.982722 141.744687 
L 598.328646 149.864576 
z
" style="fill:#0cba97;fill-opacity:0.8;"/>
    <path clip-path="url(#p71d92cdf0e)" d="M 576.807164 144.968915 
L 598.326942 149.674337 
L 598.328646 149.864576 
L 576.810446 145.1585 
z
" style="fill:#065d4c;fill-opacity:0.8;"/>
   </g>
   <g id="Poly3DCollection_19">
    <path clip-path="url(#p71d92cdf0e)" d="M 632.598801 146.224866 
L 632.599773 146.003537 
L 654.447511 150.721526 
L 654.444642 150.943619 
z
" style="fill:#065d4c;fill-opacity:0.8;"/>
    <path clip-path="url(#p71d92cdf0e)" d="M 620.075581 154.429801 
L 620.075474 154.207147 
L 632.599773 146.003537 
L 632.598801 146.224866 
z
" style="fill:#0cba97;fill-opacity:0.8;"/>
    <path clip-path="url(#p71d92cdf0e)" d="M 620.075581 154.429801 
L 632.598801 146.224866 
L 654.444642 150.943619 
L 642.056753 159.236109 
z
" style="fill:#08745e;fill-opacity:0.8;"/>
    <path clip-path="url(#p71d92cdf0e)" d="M 620.075474 154.207147 
L 642.058566 159.012685 
L 654.447511 150.721526 
L 632.599773 146.003537 
z
" style="fill:#0aa384;fill-opacity:0.8;"/>
    <path clip-path="url(#p71d92cdf0e)" d="M 642.056753 159.236109 
L 654.444642 150.943619 
L 654.447511 150.721526 
L 642.058566 159.012685 
z
" style="fill:#065d4c;fill-opacity:0.8;"/>
    <path clip-path="url(#p71d92cdf0e)" d="M 620.075581 154.429801 
L 642.056753 159.236109 
L 642.058566 159.012685 
L 620.075474 154.207147 
z
" style="fill:#0cba97;fill-opacity:0.8;"/>
   </g>
   <g id="Poly3DCollection_20">
    <path clip-path="url(#p71d92cdf0e)" d="M 563.788645 153.150625 
L 563.777059 152.634531 
L 585.430637 157.42535 
L 585.437901 157.94323 
z
" style="fill:#065d4c;fill-opacity:0.8;"/>
    <path clip-path="url(#p71d92cdf0e)" d="M 550.528439 161.484227 
L 550.514051 160.965035 
L 563.777059 152.634531 
L 563.788645 153.150625 
z
" style="fill:#0cba97;fill-opacity:0.8;"/>
    <path clip-path="url(#p71d92cdf0e)" d="M 550.528439 161.484227 
L 563.788645 153.150625 
L 585.437901 157.94323 
L 572.308289 166.366461 
z
" style="fill:#08745e;fill-opacity:0.8;"/>
    <path clip-path="url(#p71d92cdf0e)" d="M 550.514051 160.965035 
L 572.298274 165.845468 
L 585.430637 157.42535 
L 563.777059 152.634531 
z
" style="fill:#0aa384;fill-opacity:0.8;"/>
    <path clip-path="url(#p71d92cdf0e)" d="M 572.308289 166.366461 
L 585.437901 157.94323 
L 585.430637 157.42535 
L 572.298274 165.845468 
z
" style="fill:#065d4c;fill-opacity:0.8;"/>
    <path clip-path="url(#p71d92cdf0e)" d="M 550.528439 161.484227 
L 572.308289 166.366461 
L 572.298274 165.845468 
L 550.514051 160.965035 
z
" style="fill:#0cba97;fill-opacity:0.8;"/>
   </g>
   <g id="Poly3DCollection_21">
    <path clip-path="url(#p71d92cdf0e)" d="M 676.523144 155.712627 
L 676.530634 155.365325 
L 698.848616 160.184193 
L 698.838043 160.532698 
z
" style="fill:#065d4c;fill-opacity:0.8;"/>
    <path clip-path="url(#p71d92cdf0e)" d="M 664.274206 164.094082 
L 664.280089 163.744693 
L 676.530634 155.365325 
L 676.523144 155.712627 
z
" style="fill:#0cba97;fill-opacity:0.8;"/>
    <path clip-path="url(#p71d92cdf0e)" d="M 664.274206 164.094082 
L 676.523144 155.712627 
L 698.838043 160.532698 
L 686.731771 169.004556 
z
" style="fill:#08745e;fill-opacity:0.8;"/>
    <path clip-path="url(#p71d92cdf0e)" d="M 664.280089 163.744693 
L 686.740777 168.653955 
L 698.848616 160.184193 
L 676.530634 155.365325 
z
" style="fill:#0aa384;fill-opacity:0.8;"/>
    <path clip-path="url(#p71d92cdf0e)" d="M 686.731771 169.004556 
L 698.838043 160.532698 
L 698.848616 160.184193 
L 686.740777 168.653955 
z
" style="fill:#065d4c;fill-opacity:0.8;"/>
    <path clip-path="url(#p71d92cdf0e)" d="M 664.274206 164.094082 
L 686.731771 169.004556 
L 686.740777 168.653955 
L 664.280089 163.744693 
z
" style="fill:#0cba97;fill-opacity:0.8;"/>
   </g>
   <g id="Poly3DCollection_22">
    <path clip-path="url(#p71d92cdf0e)" d="M 607.319536 162.787278 
L 607.320088 162.887986 
L 629.43699 167.784658 
L 629.437312 167.683601 
z
" style="fill:#0cba97;fill-opacity:0.8;"/>
    <path clip-path="url(#p71d92cdf0e)" d="M 594.324112 171.301591 
L 594.325187 171.402904 
L 607.320088 162.887986 
L 607.319536 162.787278 
z
" style="fill:#065d4c;fill-opacity:0.8;"/>
    <path clip-path="url(#p71d92cdf0e)" d="M 594.325187 171.402904 
L 616.579955 176.392147 
L 629.43699 167.784658 
L 607.320088 162.887986 
z
" style="fill:#0aa384;fill-opacity:0.8;"/>
    <path clip-path="url(#p71d92cdf0e)" d="M 594.324112 171.301591 
L 607.319536 162.787278 
L 629.437312 167.683601 
L 616.579766 176.290482 
z
" style="fill:#08745e;fill-opacity:0.8;"/>
    <path clip-path="url(#p71d92cdf0e)" d="M 616.579766 176.290482 
L 629.437312 167.683601 
L 629.43699 167.784658 
L 616.579955 176.392147 
z
" style="fill:#0cba97;fill-opacity:0.8;"/>
    <path clip-path="url(#p71d92cdf0e)" d="M 594.324112 171.301591 
L 616.579766 176.290482 
L 616.579955 176.392147 
L 594.325187 171.402904 
z
" style="fill:#065d4c;fill-opacity:0.8;"/>
   </g>
   <g id="Poly3DCollection_23">
    <path clip-path="url(#p71d92cdf0e)" d="M 721.393156 165.404655 
L 721.393156 165.404655 
L 744.192384 170.329342 
L 744.192384 170.329342 
z
" style="fill:#065d4c;fill-opacity:0.8;"/>
    <path clip-path="url(#p71d92cdf0e)" d="M 709.433361 173.968388 
L 709.433361 173.968388 
L 721.393156 165.404655 
L 721.393156 165.404655 
z
" style="fill:#065d4c;fill-opacity:0.8;"/>
    <path clip-path="url(#p71d92cdf0e)" d="M 709.433361 173.968388 
L 721.393156 165.404655 
L 744.192384 170.329342 
L 732.382975 178.986452 
z
" style="fill:#08745e;fill-opacity:0.8;"/>
    <path clip-path="url(#p71d92cdf0e)" d="M 709.433361 173.968388 
L 732.382975 178.986452 
L 744.192384 170.329342 
L 721.393156 165.404655 
z
" style="fill:#0aa384;fill-opacity:0.8;"/>
    <path clip-path="url(#p71d92cdf0e)" d="M 732.382975 178.986452 
L 744.192384 170.329342 
L 744.192384 170.329342 
L 732.382975 178.986452 
z
" style="fill:#065d4c;fill-opacity:0.8;"/>
    <path clip-path="url(#p71d92cdf0e)" d="M 709.433361 173.968388 
L 732.382975 178.986452 
L 732.382975 178.986452 
L 709.433361 173.968388 
z
" style="fill:#065d4c;fill-opacity:0.8;"/>
   </g>
   <g id="Poly3DCollection_24">
    <path clip-path="url(#p71d92cdf0e)" d="M 537.019755 169.97399 
L 537.001395 169.419495 
L 558.917644 174.391968 
L 558.931306 174.94839 
z
" style="fill:#065d4c;fill-opacity:0.8;"/>
    <path clip-path="url(#p71d92cdf0e)" d="M 523.255541 178.624345 
L 523.23398 178.066506 
L 537.001395 169.419495 
L 537.019755 169.97399 
z
" style="fill:#0cba97;fill-opacity:0.8;"/>
    <path clip-path="url(#p71d92cdf0e)" d="M 523.255541 178.624345 
L 537.019755 169.97399 
L 558.931306 174.94839 
L 545.299896 183.693546 
z
" style="fill:#08745e;fill-opacity:0.8;"/>
    <path clip-path="url(#p71d92cdf0e)" d="M 523.23398 178.066506 
L 545.28309 183.133765 
L 558.917644 174.391968 
L 537.001395 169.419495 
z
" style="fill:#0aa384;fill-opacity:0.8;"/>
    <path clip-path="url(#p71d92cdf0e)" d="M 545.299896 183.693546 
L 558.931306 174.94839 
L 558.917644 174.391968 
L 545.28309 183.133765 
z
" style="fill:#065d4c;fill-opacity:0.8;"/>
    <path clip-path="url(#p71d92cdf0e)" d="M 523.255541 178.624345 
L 545.299896 183.693546 
L 545.28309 183.133765 
L 523.23398 178.066506 
z
" style="fill:#0cba97;fill-opacity:0.8;"/>
   </g>
   <g id="Poly3DCollection_25">
    <path clip-path="url(#p71d92cdf0e)" d="M 651.795072 172.633051 
L 651.795072 172.633051 
L 674.396742 177.636497 
L 674.396742 177.636497 
z
" style="fill:#065d4c;fill-opacity:0.8;"/>
    <path clip-path="url(#p71d92cdf0e)" d="M 639.079189 181.334017 
L 639.079189 181.334017 
L 651.795072 172.633051 
L 651.795072 172.633051 
z
" style="fill:#065d4c;fill-opacity:0.8;"/>
    <path clip-path="url(#p71d92cdf0e)" d="M 639.079189 181.334017 
L 651.795072 172.633051 
L 674.396742 177.636497 
L 661.826411 186.433099 
z
" style="fill:#08745e;fill-opacity:0.8;"/>
    <path clip-path="url(#p71d92cdf0e)" d="M 639.079189 181.334017 
L 661.826411 186.433099 
L 674.396742 177.636497 
L 651.795072 172.633051 
z
" style="fill:#0aa384;fill-opacity:0.8;"/>
    <path clip-path="url(#p71d92cdf0e)" d="M 661.826411 186.433099 
L 674.396742 177.636497 
L 674.396742 177.636497 
L 661.826411 186.433099 
z
" style="fill:#065d4c;fill-opacity:0.8;"/>
    <path clip-path="url(#p71d92cdf0e)" d="M 639.079189 181.334017 
L 661.826411 186.433099 
L 661.826411 186.433099 
L 639.079189 181.334017 
z
" style="fill:#065d4c;fill-opacity:0.8;"/>
   </g>
   <g id="Poly3DCollection_26">
    <path clip-path="url(#p71d92cdf0e)" d="M 581.082507 179.977196 
L 581.082507 179.977196 
L 603.477311 185.061305 
L 603.477311 185.061305 
z
" style="fill:#065d4c;fill-opacity:0.8;"/>
    <path clip-path="url(#p71d92cdf0e)" d="M 567.587658 188.81872 
L 567.587658 188.81872 
L 581.082507 179.977196 
L 581.082507 179.977196 
z
" style="fill:#065d4c;fill-opacity:0.8;"/>
    <path clip-path="url(#p71d92cdf0e)" d="M 567.587658 188.81872 
L 581.082507 179.977196 
L 603.477311 185.061305 
L 590.122882 194.000799 
z
" style="fill:#08745e;fill-opacity:0.8;"/>
    <path clip-path="url(#p71d92cdf0e)" d="M 567.587658 188.81872 
L 590.122882 194.000799 
L 603.477311 185.061305 
L 581.082507 179.977196 
z
" style="fill:#0aa384;fill-opacity:0.8;"/>
    <path clip-path="url(#p71d92cdf0e)" d="M 590.122882 194.000799 
L 603.477311 185.061305 
L 603.477311 185.061305 
L 590.122882 194.000799 
z
" style="fill:#065d4c;fill-opacity:0.8;"/>
    <path clip-path="url(#p71d92cdf0e)" d="M 567.587658 188.81872 
L 590.122882 194.000799 
L 590.122882 194.000799 
L 567.587658 188.81872 
z
" style="fill:#065d4c;fill-opacity:0.8;"/>
   </g>
   <g id="Poly3DCollection_27">
    <path clip-path="url(#p71d92cdf0e)" d="M 697.246336 182.694826 
L 697.235729 183.048669 
L 720.334046 188.164024 
L 720.347957 187.808948 
z
" style="fill:#0cba97;fill-opacity:0.8;"/>
    <path clip-path="url(#p71d92cdf0e)" d="M 684.825546 191.588651 
L 684.816589 191.944633 
L 697.235729 183.048669 
L 697.246336 182.694826 
z
" style="fill:#065d4c;fill-opacity:0.8;"/>
    <path clip-path="url(#p71d92cdf0e)" d="M 684.816589 191.944633 
L 708.068498 197.158841 
L 720.334046 188.164024 
L 697.235729 183.048669 
z
" style="fill:#0aa384;fill-opacity:0.8;"/>
    <path clip-path="url(#p71d92cdf0e)" d="M 684.825546 191.588651 
L 697.246336 182.694826 
L 720.347957 187.808948 
L 708.080803 196.801616 
z
" style="fill:#08745e;fill-opacity:0.8;"/>
    <path clip-path="url(#p71d92cdf0e)" d="M 708.080803 196.801616 
L 720.347957 187.808948 
L 720.334046 188.164024 
L 708.068498 197.158841 
z
" style="fill:#0cba97;fill-opacity:0.8;"/>
    <path clip-path="url(#p71d92cdf0e)" d="M 684.825546 191.588651 
L 708.080803 196.801616 
L 708.068498 197.158841 
L 684.816589 191.944633 
z
" style="fill:#065d4c;fill-opacity:0.8;"/>
   </g>
   <g id="Poly3DCollection_28">
    <path clip-path="url(#p71d92cdf0e)" d="M 509.228477 187.439892 
L 509.228477 187.439892 
L 531.406729 192.606631 
L 531.406729 192.606631 
z
" style="fill:#065d4c;fill-opacity:0.8;"/>
    <path clip-path="url(#p71d92cdf0e)" d="M 494.930962 196.425409 
L 494.930962 196.425409 
L 509.228477 187.439892 
L 509.228477 187.439892 
z
" style="fill:#065d4c;fill-opacity:0.8;"/>
    <path clip-path="url(#p71d92cdf0e)" d="M 494.930962 196.425409 
L 509.228477 187.439892 
L 531.406729 192.606631 
L 517.244193 201.692527 
z
" style="fill:#08745e;fill-opacity:0.8;"/>
    <path clip-path="url(#p71d92cdf0e)" d="M 494.930962 196.425409 
L 517.244193 201.692527 
L 531.406729 192.606631 
L 509.228477 187.439892 
z
" style="fill:#0aa384;fill-opacity:0.8;"/>
    <path clip-path="url(#p71d92cdf0e)" d="M 517.244193 201.692527 
L 531.406729 192.606631 
L 531.406729 192.606631 
L 517.244193 201.692527 
z
" style="fill:#065d4c;fill-opacity:0.8;"/>
    <path clip-path="url(#p71d92cdf0e)" d="M 494.930962 196.425409 
L 517.244193 201.692527 
L 517.244193 201.692527 
L 494.930962 196.425409 
z
" style="fill:#065d4c;fill-opacity:0.8;"/>
   </g>
   <g id="Poly3DCollection_29">
    <path clip-path="url(#p71d92cdf0e)" d="M 626.119758 190.201634 
L 626.119953 190.09899 
L 649.015111 195.296119 
L 649.013979 195.399122 
z
" style="fill:#065d4c;fill-opacity:0.8;"/>
    <path clip-path="url(#p71d92cdf0e)" d="M 612.909712 199.240736 
L 612.909367 199.13747 
L 626.119953 190.09899 
L 626.119758 190.201634 
z
" style="fill:#0cba97;fill-opacity:0.8;"/>
    <path clip-path="url(#p71d92cdf0e)" d="M 612.909712 199.240736 
L 626.119758 190.201634 
L 649.013979 195.399122 
L 635.952386 204.539505 
z
" style="fill:#08745e;fill-opacity:0.8;"/>
    <path clip-path="url(#p71d92cdf0e)" d="M 612.909367 199.13747 
L 635.95299 204.435878 
L 649.015111 195.296119 
L 626.119953 190.09899 
z
" style="fill:#0aa384;fill-opacity:0.8;"/>
    <path clip-path="url(#p71d92cdf0e)" d="M 635.952386 204.539505 
L 649.013979 195.399122 
L 649.015111 195.296119 
L 635.95299 204.435878 
z
" style="fill:#065d4c;fill-opacity:0.8;"/>
    <path clip-path="url(#p71d92cdf0e)" d="M 612.909712 199.240736 
L 635.952386 204.539505 
L 635.95299 204.435878 
L 612.909367 199.13747 
z
" style="fill:#0cba97;fill-opacity:0.8;"/>
   </g>
   <g id="Poly3DCollection_30">
    <path clip-path="url(#p71d92cdf0e)" d="M 553.832231 197.83097 
L 553.84737 198.395852 
L 576.51925 203.680734 
L 576.509142 203.113878 
z
" style="fill:#0cba97;fill-opacity:0.8;"/>
    <path clip-path="url(#p71d92cdf0e)" d="M 539.808605 207.018938 
L 539.827068 207.587244 
L 553.84737 198.395852 
L 553.832231 197.83097 
z
" style="fill:#065d4c;fill-opacity:0.8;"/>
    <path clip-path="url(#p71d92cdf0e)" d="M 539.827068 207.587244 
L 562.641831 212.975942 
L 576.51925 203.680734 
L 553.84737 198.395852 
z
" style="fill:#0aa384;fill-opacity:0.8;"/>
    <path clip-path="url(#p71d92cdf0e)" d="M 539.808605 207.018938 
L 553.832231 197.83097 
L 576.509142 203.113878 
L 562.628462 212.405647 
z
" style="fill:#08745e;fill-opacity:0.8;"/>
    <path clip-path="url(#p71d92cdf0e)" d="M 562.628462 212.405647 
L 576.509142 203.113878 
L 576.51925 203.680734 
L 562.641831 212.975942 
z
" style="fill:#0cba97;fill-opacity:0.8;"/>
    <path clip-path="url(#p71d92cdf0e)" d="M 539.808605 207.018938 
L 562.628462 212.405647 
L 562.641831 212.975942 
L 539.827068 207.587244 
z
" style="fill:#065d4c;fill-opacity:0.8;"/>
   </g>
   <g id="Poly3DCollection_31">
    <path clip-path="url(#p71d92cdf0e)" d="M 672.164198 200.654726 
L 672.159551 200.884562 
L 695.567906 206.200067 
L 695.574731 205.969428 
z
" style="fill:#0cba97;fill-opacity:0.8;"/>
    <path clip-path="url(#p71d92cdf0e)" d="M 659.255235 209.898103 
L 659.251734 210.129334 
L 672.159551 200.884562 
L 672.164198 200.654726 
z
" style="fill:#065d4c;fill-opacity:0.8;"/>
    <path clip-path="url(#p71d92cdf0e)" d="M 659.251734 210.129334 
L 682.816985 215.549589 
L 695.567906 206.200067 
L 672.159551 200.884562 
z
" style="fill:#0aa384;fill-opacity:0.8;"/>
    <path clip-path="url(#p71d92cdf0e)" d="M 659.255235 209.898103 
L 672.164198 200.654726 
L 695.574731 205.969428 
L 682.822693 215.317549 
z
" style="fill:#08745e;fill-opacity:0.8;"/>
    <path clip-path="url(#p71d92cdf0e)" d="M 682.822693 215.317549 
L 695.574731 205.969428 
L 695.567906 206.200067 
L 682.816985 215.549589 
z
" style="fill:#0cba97;fill-opacity:0.8;"/>
    <path clip-path="url(#p71d92cdf0e)" d="M 659.255235 209.898103 
L 682.822693 215.317549 
L 682.816985 215.549589 
L 659.251734 210.129334 
z
" style="fill:#065d4c;fill-opacity:0.8;"/>
   </g>
   <g id="Poly3DCollection_32">
    <path clip-path="url(#p71d92cdf0e)" d="M 599.441712 208.456346 
L 599.446386 208.992187 
L 622.634006 214.397103 
L 622.63429 213.859387 
z
" style="fill:#0cba97;fill-opacity:0.8;"/>
    <path clip-path="url(#p71d92cdf0e)" d="M 585.708127 217.853686 
L 585.715811 218.39278 
L 599.446386 208.992187 
L 599.441712 208.456346 
z
" style="fill:#065d4c;fill-opacity:0.8;"/>
    <path clip-path="url(#p71d92cdf0e)" d="M 585.715811 218.39278 
L 609.054724 223.90509 
L 622.634006 214.397103 
L 599.446386 208.992187 
z
" style="fill:#0aa384;fill-opacity:0.8;"/>
    <path clip-path="url(#p71d92cdf0e)" d="M 585.708127 217.853686 
L 599.441712 208.456346 
L 622.63429 213.859387 
L 609.052062 223.364106 
z
" style="fill:#08745e;fill-opacity:0.8;"/>
    <path clip-path="url(#p71d92cdf0e)" d="M 609.052062 223.364106 
L 622.63429 213.859387 
L 622.634006 214.397103 
L 609.054724 223.90509 
z
" style="fill:#0cba97;fill-opacity:0.8;"/>
    <path clip-path="url(#p71d92cdf0e)" d="M 585.708127 217.853686 
L 609.052062 223.364106 
L 609.054724 223.90509 
L 585.715811 218.39278 
z
" style="fill:#065d4c;fill-opacity:0.8;"/>
   </g>
   <g id="Poly3DCollection_33">
    <path clip-path="url(#p71d92cdf0e)" d="M 646.091323 219.324036 
L 646.093303 219.124516 
L 669.821259 224.651133 
L 669.81736 224.851353 
z
" style="fill:#065d4c;fill-opacity:0.8;"/>
    <path clip-path="url(#p71d92cdf0e)" d="M 632.664833 228.937985 
L 632.665749 228.737251 
L 646.093303 219.124516 
L 646.091323 219.324036 
z
" style="fill:#0cba97;fill-opacity:0.8;"/>
    <path clip-path="url(#p71d92cdf0e)" d="M 632.664833 228.937985 
L 646.091323 219.324036 
L 669.81736 224.851353 
L 656.55111 234.576427 
z
" style="fill:#08745e;fill-opacity:0.8;"/>
    <path clip-path="url(#p71d92cdf0e)" d="M 632.665749 228.737251 
L 656.553971 234.374988 
L 669.821259 224.651133 
L 646.093303 219.124516 
z
" style="fill:#0aa384;fill-opacity:0.8;"/>
    <path clip-path="url(#p71d92cdf0e)" d="M 656.55111 234.576427 
L 669.81736 224.851353 
L 669.821259 224.651133 
L 656.553971 234.374988 
z
" style="fill:#065d4c;fill-opacity:0.8;"/>
    <path clip-path="url(#p71d92cdf0e)" d="M 632.664833 228.937985 
L 656.55111 234.576427 
L 656.553971 234.374988 
L 632.665749 228.737251 
z
" style="fill:#0cba97;fill-opacity:0.8;"/>
   </g>
   <g id="Poly3DCollection_34">
    <path clip-path="url(#p71d92cdf0e)" d="M 482.094121 197.769344 
L 660.290671 240.029429 
L 756.29307 169.062478 
L 586.591316 132.561527 
z
" style="fill-opacity:0.2;"/>
   </g>
  </g>
 </g>
 <defs>
  <clipPath id="p1db196e603">
   <rect height="277.2" width="380.454545" x="-30.6" y="-14.4"/>
  </clipPath>
  <clipPath id="p71d92cdf0e">
   <rect height="277.2" width="380.454545" x="425.945455" y="-14.4"/>
  </clipPath>
 </defs>
</svg>
