<?xml version="1.0" encoding="utf-8" standalone="no"?>
<!DOCTYPE svg PUBLIC "-//W3C//DTD SVG 1.1//EN"
  "http://www.w3.org/Graphics/SVG/1.1/DTD/svg11.dtd">
<!-- Created with matplotlib (https://matplotlib.org/) -->
<svg height="302.4pt" version="1.1" viewBox="0 0 820.8 302.4" width="820.8pt" xmlns="http://www.w3.org/2000/svg" xmlns:xlink="http://www.w3.org/1999/xlink">
 <defs>
  <style type="text/css">
*{stroke-linecap:butt;stroke-linejoin:round;}
  </style>
 </defs>
 <g id="figure_1">
  <g id="patch_1">
   <path d="M 0 302.4 
L 820.8 302.4 
L 820.8 0 
L 0 0 
z
" style="fill:#ffffff;"/>
  </g>
  <g id="patch_2">
   <path d="M -30.6 262.8 
L 349.854545 262.8 
L 349.854545 -14.4 
L -30.6 -14.4 
z
" style="fill:#ffffff;"/>
  </g>
  <g id="pane3d_1">
   <g id="patch_3">
    <path d="M 19.835129 201.548569 
L 128.723211 133.58541 
L 126.910339 3.718968 
L 11.951034 64.782468 
" style="fill:#f2f2f2;opacity:0.5;stroke:#f2f2f2;stroke-linejoin:miter;"/>
   </g>
  </g>
  <g id="pane3d_2">
   <g id="patch_4">
    <path d="M 128.723211 133.58541 
L 305.111665 171.581202 
L 312.491547 37.79869 
L 126.910339 3.718968 
" style="fill:#e6e6e6;opacity:0.5;stroke:#e6e6e6;stroke-linejoin:miter;"/>
   </g>
  </g>
  <g id="pane3d_3">
   <g id="patch_5">
    <path d="M 19.835129 201.548569 
L 205.419617 245.80086 
L 305.111665 171.581202 
L 128.723211 133.58541 
" style="fill:#ececec;opacity:0.5;stroke:#ececec;stroke-linejoin:miter;"/>
   </g>
  </g>
  <g id="axis3d_1">
   <g id="line2d_1">
    <path d="M 19.835129 201.548569 
L 205.419617 245.80086 
" style="fill:none;stroke:#000000;stroke-linecap:square;stroke-width:0.8;"/>
   </g>
   <g id="Line3DCollection_1">
    <path d="M 42.295817 206.90428 
L 150.133942 138.19749 
L 149.393845 7.847789 
" style="fill:none;stroke:#b0b0b0;stroke-width:0.8;"/>
    <path d="M 87.512337 217.686079 
L 193.184014 147.470895 
L 194.636898 16.156123 
" style="fill:none;stroke:#b0b0b0;stroke-width:0.8;"/>
    <path d="M 133.765289 228.715013 
L 237.148096 156.941187 
L 240.890183 24.649974 
" style="fill:none;stroke:#b0b0b0;stroke-width:0.8;"/>
    <path d="M 181.090721 239.999678 
L 282.055608 166.614702 
L 288.187917 33.335625 
" style="fill:none;stroke:#b0b0b0;stroke-width:0.8;"/>
   </g>
   <g id="xtick_1">
    <g id="line2d_2">
     <path d="M 43.225084 206.312217 
L 40.433807 208.09062 
" style="fill:none;stroke:#000000;stroke-linecap:square;stroke-width:0.8;"/>
    </g>
    <g id="text_1">
     <!-- 00 -->
     <defs>
      <path d="M 42 31.84375 
C 42 37.96875 41.90625 48.421875 37.703125 56.453125 
C 34 63.484375 28.09375 66 22.90625 66 
C 18.09375 66 12 63.78125 8.203125 56.5625 
C 4.203125 49.015625 3.796875 39.671875 3.796875 31.84375 
C 3.796875 26.109375 3.90625 17.375 7 9.734375 
C 11.296875 -0.609375 19 -2 22.90625 -2 
C 27.5 -2 34.5 -0.109375 38.59375 9.4375 
C 41.59375 16.375 42 24.5 42 31.84375 
z
M 22.90625 -0.40625 
C 16.5 -0.40625 12.703125 5.125 11.296875 12.75 
C 10.203125 18.6875 10.203125 27.328125 10.203125 32.953125 
C 10.203125 40.6875 10.203125 47.109375 11.5 53.234375 
C 13.40625 61.78125 19 64.390625 22.90625 64.390625 
C 27 64.390625 32.296875 61.671875 34.203125 53.4375 
C 35.5 47.71875 35.59375 40.984375 35.59375 32.953125 
C 35.59375 26.421875 35.59375 18.375 34.40625 12.453125 
C 32.296875 1.5 26.40625 -0.40625 22.90625 -0.40625 
z
" id="CMR17-48"/>
     </defs>
     <g transform="translate(16.108553 247.89009)rotate(-45)scale(0.24 -0.24)">
      <use transform="scale(0.996264)" xlink:href="#CMR17-48"/>
      <use transform="translate(45.690477 0)scale(0.996264)" xlink:href="#CMR17-48"/>
     </g>
    </g>
   </g>
   <g id="xtick_2">
    <g id="line2d_3">
     <path d="M 88.423674 217.080527 
L 85.686217 218.899473 
" style="fill:none;stroke:#000000;stroke-linecap:square;stroke-width:0.8;"/>
    </g>
    <g id="text_2">
     <!-- 01 -->
     <defs>
      <path d="M 26.59375 63.796875 
C 26.59375 65.890625 26.5 66 25.09375 66 
C 21.203125 61.359375 15.296875 59.890625 9.703125 59.6875 
C 9.40625 59.6875 8.90625 59.6875 8.796875 59.5 
C 8.703125 59.296875 8.703125 59.09375 8.703125 57 
C 11.796875 57 17 57.59375 21 59.984375 
L 21 7.296875 
C 21 3.796875 20.796875 2.59375 12.203125 2.59375 
L 9.203125 2.59375 
L 9.203125 0 
C 14 0.09375 19 0.1875 23.796875 0.1875 
C 28.59375 0.1875 33.59375 0.09375 38.40625 0 
L 38.40625 2.59375 
L 35.40625 2.59375 
C 26.796875 2.59375 26.59375 3.6875 26.59375 7.296875 
z
" id="CMR17-49"/>
     </defs>
     <g transform="translate(61.320978 258.846842)rotate(-45)scale(0.24 -0.24)">
      <use transform="scale(0.996264)" xlink:href="#CMR17-48"/>
      <use transform="translate(45.690477 0)scale(0.996264)" xlink:href="#CMR17-49"/>
     </g>
    </g>
   </g>
   <g id="xtick_3">
    <g id="line2d_4">
     <path d="M 134.657625 228.095506 
L 131.977203 229.956397 
" style="fill:none;stroke:#000000;stroke-linecap:square;stroke-width:0.8;"/>
    </g>
    <g id="text_3">
     <!-- 10 -->
     <g transform="translate(107.571591 270.055188)rotate(-45)scale(0.24 -0.24)">
      <use transform="scale(0.996264)" xlink:href="#CMR17-49"/>
      <use transform="translate(45.690477 0)scale(0.996264)" xlink:href="#CMR17-48"/>
     </g>
    </g>
   </g>
   <g id="xtick_4">
    <g id="line2d_5">
     <path d="M 181.962926 239.365727 
L 179.342936 241.270032 
" style="fill:none;stroke:#000000;stroke-linecap:square;stroke-width:0.8;"/>
    </g>
    <g id="text_4">
     <!-- 11 -->
     <g transform="translate(154.896566 281.523893)rotate(-45)scale(0.24 -0.24)">
      <use transform="scale(0.996264)" xlink:href="#CMR17-49"/>
      <use transform="translate(45.690477 0)scale(0.996264)" xlink:href="#CMR17-49"/>
     </g>
    </g>
   </g>
  </g>
  <g id="axis3d_2">
   <g id="line2d_6">
    <path d="M 305.111665 171.581202 
L 205.419617 245.80086 
" style="fill:none;stroke:#000000;stroke-linecap:square;stroke-width:0.8;"/>
   </g>
   <g id="Line3DCollection_2">
    <path d="M 27.455231 56.547028 
L 34.471044 192.413474 
L 218.858418 235.795817 
" style="fill:none;stroke:#b0b0b0;stroke-width:0.8;"/>
    <path d="M 57.232024 40.730342 
L 62.623407 174.842005 
L 244.674037 216.576366 
" style="fill:none;stroke:#b0b0b0;stroke-width:0.8;"/>
    <path d="M 85.85589 25.526062 
L 89.739382 157.917404 
L 269.496985 198.095948 
" style="fill:none;stroke:#b0b0b0;stroke-width:0.8;"/>
    <path d="M 113.392516 10.899296 
L 115.875164 141.604597 
L 293.383438 180.312741 
" style="fill:none;stroke:#b0b0b0;stroke-width:0.8;"/>
   </g>
   <g id="xtick_5">
    <g id="line2d_7">
     <path d="M 217.315598 235.432825 
L 221.947489 236.522608 
" style="fill:none;stroke:#000000;stroke-linecap:square;stroke-width:0.8;"/>
    </g>
    <g id="text_5">
     <!-- 00 -->
     <g transform="translate(233.392289 249.065483)rotate(-337.5)scale(0.24 -0.24)">
      <use transform="scale(0.996264)" xlink:href="#CMR17-48"/>
      <use transform="translate(45.690477 0)scale(0.996264)" xlink:href="#CMR17-48"/>
     </g>
    </g>
   </g>
   <g id="xtick_6">
    <g id="line2d_8">
     <path d="M 243.15208 216.227463 
L 247.72127 217.274932 
" style="fill:none;stroke:#000000;stroke-linecap:square;stroke-width:0.8;"/>
    </g>
    <g id="text_6">
     <!-- 01 -->
     <g transform="translate(258.94584 229.621057)rotate(-337.5)scale(0.24 -0.24)">
      <use transform="scale(0.996264)" xlink:href="#CMR17-48"/>
      <use transform="translate(45.690477 0)scale(0.996264)" xlink:href="#CMR17-49"/>
     </g>
    </g>
   </g>
   <g id="xtick_7">
    <g id="line2d_9">
     <path d="M 267.995442 197.76033 
L 272.503283 198.767901 
" style="fill:none;stroke:#000000;stroke-linecap:square;stroke-width:0.8;"/>
    </g>
    <g id="text_7">
     <!-- 10 -->
     <g transform="translate(283.517252 210.923969)rotate(-337.5)scale(0.24 -0.24)">
      <use transform="scale(0.996264)" xlink:href="#CMR17-49"/>
      <use transform="translate(45.690477 0)scale(0.996264)" xlink:href="#CMR17-48"/>
     </g>
    </g>
   </g>
   <g id="xtick_8">
    <g id="line2d_10">
     <path d="M 291.901865 179.989663 
L 296.349691 180.959573 
" style="fill:none;stroke:#000000;stroke-linecap:square;stroke-width:0.8;"/>
    </g>
    <g id="text_8">
     <!-- 11 -->
     <g transform="translate(307.162078 192.931947)rotate(-337.5)scale(0.24 -0.24)">
      <use transform="scale(0.996264)" xlink:href="#CMR17-49"/>
      <use transform="translate(45.690477 0)scale(0.996264)" xlink:href="#CMR17-49"/>
     </g>
    </g>
   </g>
  </g>
  <g id="axis3d_3">
   <g id="line2d_11">
    <path d="M 305.111665 171.581202 
L 312.491547 37.79869 
" style="fill:none;stroke:#000000;stroke-linecap:square;stroke-width:0.8;"/>
   </g>
   <g id="Line3DCollection_3">
    <path d="M 305.252029 169.036678 
L 128.688656 131.110086 
L 19.685428 198.951687 
" style="fill:none;stroke:#b0b0b0;stroke-width:0.8;"/>
    <path d="M 308.000145 119.218826 
L 128.012713 82.688379 
L 16.752532 148.074489 
" style="fill:none;stroke:#b0b0b0;stroke-width:0.8;"/>
    <path d="M 310.857923 67.413027 
L 127.31096 32.417707 
L 13.698612 95.097857 
" style="fill:none;stroke:#b0b0b0;stroke-width:0.8;"/>
   </g>
   <g id="xtick_9">
    <g id="line2d_12">
     <path d="M 303.77886 168.720235 
L 308.201432 169.670223 
" style="fill:none;stroke:#000000;stroke-linecap:square;stroke-width:0.8;"/>
    </g>
    <g id="text_9">
     <!-- $0.0$ -->
     <defs>
      <path d="M 18.40625 4.796875 
C 18.40625 7.6875 16 9.6875 13.59375 9.6875 
C 10.703125 9.6875 8.703125 7.296875 8.703125 4.890625 
C 8.703125 2 11.09375 0 13.5 0 
C 16.40625 0 18.40625 2.390625 18.40625 4.796875 
z
" id="CMMI12-58"/>
     </defs>
     <g transform="translate(309.562437 183.700174)scale(0.24 -0.24)">
      <use transform="scale(0.996264)" xlink:href="#CMR17-48"/>
      <use transform="translate(45.690477 0)scale(0.996264)" xlink:href="#CMMI12-58"/>
      <use transform="translate(72.787654 0)scale(0.996264)" xlink:href="#CMR17-48"/>
     </g>
    </g>
   </g>
   <g id="xtick_10">
    <g id="line2d_13">
     <path d="M 306.497198 118.913786 
L 311.009228 119.829552 
" style="fill:none;stroke:#000000;stroke-linecap:square;stroke-width:0.8;"/>
    </g>
    <g id="text_10">
     <!-- $0.2$ -->
     <defs>
      <path d="M 41.703125 15.46875 
L 39.90625 15.46875 
C 38.90625 8.390625 38.09375 7.1875 37.703125 6.59375 
C 37.203125 5.796875 30 5.796875 28.59375 5.796875 
L 9.40625 5.796875 
C 13 9.6875 20 16.765625 28.5 24.9375 
C 34.59375 30.71875 41.703125 37.5 41.703125 47.390625 
C 41.703125 59.1875 32.296875 66 21.796875 66 
C 10.796875 66 4.09375 56.296875 4.09375 47.296875 
C 4.09375 43.390625 7 42.890625 8.203125 42.890625 
C 9.203125 42.890625 12.203125 43.484375 12.203125 46.984375 
C 12.203125 50.09375 9.59375 51 8.203125 51 
C 7.59375 51 7 50.890625 6.59375 50.6875 
C 8.5 59.1875 14.296875 63.390625 20.40625 63.390625 
C 29.09375 63.390625 34.796875 56.5 34.796875 47.390625 
C 34.796875 38.703125 29.703125 31.21875 24 24.734375 
L 4.09375 2.296875 
L 4.09375 0 
L 39.296875 0 
z
" id="CMR17-50"/>
     </defs>
     <g transform="translate(312.666254 133.95233)scale(0.24 -0.24)">
      <use transform="scale(0.996264)" xlink:href="#CMR17-48"/>
      <use transform="translate(45.690477 0)scale(0.996264)" xlink:href="#CMMI12-58"/>
      <use transform="translate(72.787654 0)scale(0.996264)" xlink:href="#CMR17-50"/>
     </g>
    </g>
   </g>
   <g id="xtick_11">
    <g id="line2d_14">
     <path d="M 309.32397 67.120562 
L 313.929147 67.998591 
" style="fill:none;stroke:#000000;stroke-linecap:square;stroke-width:0.8;"/>
    </g>
    <g id="text_11">
     <!-- $0.4$ -->
     <defs>
      <path d="M 33.59375 64.796875 
C 33.59375 66.890625 33.5 67 31.703125 67 
L 2 19.59375 
L 2 17 
L 27.796875 17 
L 27.796875 7.1875 
C 27.796875 3.59375 27.59375 2.59375 20.59375 2.59375 
L 18.703125 2.59375 
L 18.703125 0 
C 21.90625 0.1875 27.296875 0.1875 30.703125 0.1875 
C 34.09375 0.1875 39.5 0.1875 42.703125 0 
L 42.703125 2.59375 
L 40.796875 2.59375 
C 33.796875 2.59375 33.59375 3.59375 33.59375 7.1875 
L 33.59375 17 
L 43.796875 17 
L 43.796875 19.59375 
L 33.59375 19.59375 
z
M 28.09375 58.171875 
L 28.09375 19.59375 
L 4 19.59375 
z
" id="CMR17-52"/>
     </defs>
     <g transform="translate(315.893653 82.223718)scale(0.24 -0.24)">
      <use transform="scale(0.996264)" xlink:href="#CMR17-48"/>
      <use transform="translate(45.690477 0)scale(0.996264)" xlink:href="#CMMI12-58"/>
      <use transform="translate(72.787654 0)scale(0.996264)" xlink:href="#CMR17-52"/>
     </g>
    </g>
   </g>
  </g>
  <g id="axes_1">
   <g id="Poly3DCollection_1">
    <path clip-path="url(#p32b1964a7a)" d="M 176.050954 146.769767 
L 176.052182 146.490075 
L 197.89575 151.209743 
L 197.892125 151.4904 
z
" style="fill:#5d0618;fill-opacity:0.8;"/>
    <path clip-path="url(#p32b1964a7a)" d="M 163.530392 154.977964 
L 163.530256 154.696598 
L 176.052182 146.490075 
L 176.050954 146.769767 
z
" style="fill:#ba0c2f;fill-opacity:0.8;"/>
    <path clip-path="url(#p32b1964a7a)" d="M 163.530392 154.977964 
L 176.050954 146.769767 
L 197.892125 151.4904 
L 185.506836 159.786168 
z
" style="fill:#74081d;fill-opacity:0.8;"/>
    <path clip-path="url(#p32b1964a7a)" d="M 163.530256 154.696598 
L 185.509126 159.503829 
L 197.89575 151.209743 
L 176.052182 146.490075 
z
" style="fill:#a30a29;fill-opacity:0.8;"/>
    <path clip-path="url(#p32b1964a7a)" d="M 185.506836 159.786168 
L 197.892125 151.4904 
L 197.89575 151.209743 
L 185.509126 159.503829 
z
" style="fill:#5d0618;fill-opacity:0.8;"/>
    <path clip-path="url(#p32b1964a7a)" d="M 163.530392 154.977964 
L 185.506836 159.786168 
L 185.509126 159.503829 
L 163.530256 154.696598 
z
" style="fill:#ba0c2f;fill-opacity:0.8;"/>
   </g>
   <g id="Poly3DCollection_2">
    <path clip-path="url(#p32b1964a7a)" d="M 120.271134 145.513314 
L 133.051747 137.476151 
L 154.438688 142.098609 
L 141.786381 150.220613 
z
" style="fill:#74081d;fill-opacity:0.8;"/>
    <path clip-path="url(#p32b1964a7a)" d="M 133.051747 137.476151 
L 132.666663 106.172803 
L 154.312604 110.685642 
L 154.438688 142.098609 
z
" style="fill:#5d0618;fill-opacity:0.8;"/>
    <path clip-path="url(#p32b1964a7a)" d="M 120.271134 145.513314 
L 119.725893 114.019739 
L 132.666663 106.172803 
L 133.051747 137.476151 
z
" style="fill:#ba0c2f;fill-opacity:0.8;"/>
    <path clip-path="url(#p32b1964a7a)" d="M 141.786381 150.220613 
L 154.438688 142.098609 
L 154.312604 110.685642 
L 141.503266 118.61643 
z
" style="fill:#5d0618;fill-opacity:0.8;"/>
    <path clip-path="url(#p32b1964a7a)" d="M 120.271134 145.513314 
L 141.786381 150.220613 
L 141.503266 118.61643 
L 119.725893 114.019739 
z
" style="fill:#ba0c2f;fill-opacity:0.8;"/>
    <path clip-path="url(#p32b1964a7a)" d="M 119.725893 114.019739 
L 141.503266 118.61643 
L 154.312604 110.685642 
L 132.666663 106.172803 
z
" style="fill:#a30a29;fill-opacity:0.8;"/>
   </g>
   <g id="Poly3DCollection_3">
    <path clip-path="url(#p32b1964a7a)" d="M 107.255484 153.698282 
L 107.289566 155.216507 
L 128.921523 160.016247 
L 128.900155 158.49278 
z
" style="fill:#ba0c2f;fill-opacity:0.8;"/>
    <path clip-path="url(#p32b1964a7a)" d="M 93.998253 162.035168 
L 94.04058 163.562489 
L 107.289566 155.216507 
L 107.255484 153.698282 
z
" style="fill:#5d0618;fill-opacity:0.8;"/>
    <path clip-path="url(#p32b1964a7a)" d="M 94.04058 163.562489 
L 115.802923 168.451917 
L 128.921523 160.016247 
L 107.289566 155.216507 
z
" style="fill:#a30a29;fill-opacity:0.8;"/>
    <path clip-path="url(#p32b1964a7a)" d="M 93.998253 162.035168 
L 107.255484 153.698282 
L 128.900155 158.49278 
L 115.773462 166.919311 
z
" style="fill:#74081d;fill-opacity:0.8;"/>
    <path clip-path="url(#p32b1964a7a)" d="M 115.773462 166.919311 
L 128.900155 158.49278 
L 128.921523 160.016247 
L 115.802923 168.451917 
z
" style="fill:#ba0c2f;fill-opacity:0.8;"/>
    <path clip-path="url(#p32b1964a7a)" d="M 93.998253 162.035168 
L 115.773462 166.919311 
L 115.802923 168.451917 
L 94.04058 163.562489 
z
" style="fill:#5d0618;fill-opacity:0.8;"/>
   </g>
   <g id="Poly3DCollection_4">
    <path clip-path="url(#p32b1964a7a)" d="M 219.965857 156.261297 
L 219.964772 156.311568 
L 242.274354 161.133711 
L 242.275884 161.083265 
z
" style="fill:#ba0c2f;fill-opacity:0.8;"/>
    <path clip-path="url(#p32b1964a7a)" d="M 207.719458 164.646045 
L 207.718607 164.696618 
L 219.964772 156.311568 
L 219.965857 156.261297 
z
" style="fill:#5d0618;fill-opacity:0.8;"/>
    <path clip-path="url(#p32b1964a7a)" d="M 207.718607 164.696618 
L 230.170785 169.609182 
L 242.274354 161.133711 
L 219.964772 156.311568 
z
" style="fill:#a30a29;fill-opacity:0.8;"/>
    <path clip-path="url(#p32b1964a7a)" d="M 207.719458 164.646045 
L 219.965857 156.261297 
L 242.275884 161.083265 
L 230.172089 169.558433 
z
" style="fill:#74081d;fill-opacity:0.8;"/>
    <path clip-path="url(#p32b1964a7a)" d="M 230.172089 169.558433 
L 242.275884 161.083265 
L 242.274354 161.133711 
L 230.170785 169.609182 
z
" style="fill:#ba0c2f;fill-opacity:0.8;"/>
    <path clip-path="url(#p32b1964a7a)" d="M 207.719458 164.646045 
L 230.172089 169.558433 
L 230.170785 169.609182 
L 207.718607 164.696618 
z
" style="fill:#5d0618;fill-opacity:0.8;"/>
   </g>
   <g id="Poly3DCollection_5">
    <path clip-path="url(#p32b1964a7a)" d="M 150.777105 163.33873 
L 150.77545 163.036918 
L 172.891059 167.934106 
L 172.890093 168.236965 
z
" style="fill:#5d0618;fill-opacity:0.8;"/>
    <path clip-path="url(#p32b1964a7a)" d="M 137.784542 171.856359 
L 137.781322 171.552732 
L 150.77545 163.036918 
L 150.777105 163.33873 
z
" style="fill:#ba0c2f;fill-opacity:0.8;"/>
    <path clip-path="url(#p32b1964a7a)" d="M 137.784542 171.856359 
L 150.777105 163.33873 
L 172.890093 168.236965 
L 160.035349 176.847178 
z
" style="fill:#74081d;fill-opacity:0.8;"/>
    <path clip-path="url(#p32b1964a7a)" d="M 137.781322 171.552732 
L 160.034781 176.542496 
L 172.891059 167.934106 
L 150.77545 163.036918 
z
" style="fill:#a30a29;fill-opacity:0.8;"/>
    <path clip-path="url(#p32b1964a7a)" d="M 160.035349 176.847178 
L 172.890093 168.236965 
L 172.891059 167.934106 
L 160.034781 176.542496 
z
" style="fill:#5d0618;fill-opacity:0.8;"/>
    <path clip-path="url(#p32b1964a7a)" d="M 137.784542 171.856359 
L 160.035349 176.847178 
L 160.034781 176.542496 
L 137.781322 171.552732 
z
" style="fill:#ba0c2f;fill-opacity:0.8;"/>
   </g>
   <g id="Poly3DCollection_6">
    <path clip-path="url(#p32b1964a7a)" d="M 80.492653 170.528244 
L 80.516342 171.243675 
L 102.417134 176.222483 
L 102.399507 175.504569 
z
" style="fill:#ba0c2f;fill-opacity:0.8;"/>
    <path clip-path="url(#p32b1964a7a)" d="M 66.731637 179.181938 
L 66.759455 179.901678 
L 80.516342 171.243675 
L 80.492653 170.528244 
z
" style="fill:#5d0618;fill-opacity:0.8;"/>
    <path clip-path="url(#p32b1964a7a)" d="M 66.759455 179.901678 
L 88.792921 184.975322 
L 102.417134 176.222483 
L 80.516342 171.243675 
z
" style="fill:#a30a29;fill-opacity:0.8;"/>
    <path clip-path="url(#p32b1964a7a)" d="M 66.731637 179.181938 
L 80.492653 170.528244 
L 102.399507 175.504569 
L 88.771239 184.25308 
z
" style="fill:#74081d;fill-opacity:0.8;"/>
    <path clip-path="url(#p32b1964a7a)" d="M 88.771239 184.25308 
L 102.399507 175.504569 
L 102.417134 176.222483 
L 88.792921 184.975322 
z
" style="fill:#ba0c2f;fill-opacity:0.8;"/>
    <path clip-path="url(#p32b1964a7a)" d="M 66.731637 179.181938 
L 88.771239 184.25308 
L 88.792921 184.975322 
L 66.759455 179.901678 
z
" style="fill:#5d0618;fill-opacity:0.8;"/>
   </g>
   <g id="Poly3DCollection_7">
    <path clip-path="url(#p32b1964a7a)" d="M 195.242961 173.188335 
L 195.247404 172.817712 
L 217.847412 177.821799 
L 217.839633 178.19371 
z
" style="fill:#5d0618;fill-opacity:0.8;"/>
    <path clip-path="url(#p32b1964a7a)" d="M 182.529819 181.892649 
L 182.532433 181.519791 
L 195.247404 172.817712 
L 195.242961 173.188335 
z
" style="fill:#ba0c2f;fill-opacity:0.8;"/>
    <path clip-path="url(#p32b1964a7a)" d="M 182.529819 181.892649 
L 195.242961 173.188335 
L 217.839633 178.19371 
L 205.271977 186.993677 
z
" style="fill:#74081d;fill-opacity:0.8;"/>
    <path clip-path="url(#p32b1964a7a)" d="M 182.532433 181.519791 
L 205.27797 186.619521 
L 217.847412 177.821799 
L 195.247404 172.817712 
z
" style="fill:#a30a29;fill-opacity:0.8;"/>
    <path clip-path="url(#p32b1964a7a)" d="M 205.271977 186.993677 
L 217.839633 178.19371 
L 217.847412 177.821799 
L 205.27797 186.619521 
z
" style="fill:#5d0618;fill-opacity:0.8;"/>
    <path clip-path="url(#p32b1964a7a)" d="M 182.529819 181.892649 
L 205.271977 186.993677 
L 205.27797 186.619521 
L 182.532433 181.519791 
z
" style="fill:#ba0c2f;fill-opacity:0.8;"/>
   </g>
   <g id="Poly3DCollection_8">
    <path clip-path="url(#p32b1964a7a)" d="M 124.545907 180.535308 
L 124.540134 180.171413 
L 146.93323 185.256198 
L 146.935803 185.62136 
z
" style="fill:#5d0618;fill-opacity:0.8;"/>
    <path clip-path="url(#p32b1964a7a)" d="M 111.054142 189.380204 
L 111.046358 189.014111 
L 124.540134 180.171413 
L 124.545907 180.535308 
z
" style="fill:#ba0c2f;fill-opacity:0.8;"/>
    <path clip-path="url(#p32b1964a7a)" d="M 111.054142 189.380204 
L 124.545907 180.535308 
L 146.935803 185.62136 
L 133.584397 194.564241 
z
" style="fill:#74081d;fill-opacity:0.8;"/>
    <path clip-path="url(#p32b1964a7a)" d="M 111.046358 189.014111 
L 133.579853 194.196871 
L 146.93323 185.256198 
L 124.540134 180.171413 
z
" style="fill:#a30a29;fill-opacity:0.8;"/>
    <path clip-path="url(#p32b1964a7a)" d="M 133.584397 194.564241 
L 146.935803 185.62136 
L 146.93323 185.256198 
L 133.579853 194.196871 
z
" style="fill:#5d0618;fill-opacity:0.8;"/>
    <path clip-path="url(#p32b1964a7a)" d="M 111.054142 189.380204 
L 133.584397 194.564241 
L 133.579853 194.196871 
L 111.046358 189.014111 
z
" style="fill:#ba0c2f;fill-opacity:0.8;"/>
   </g>
   <g id="Poly3DCollection_9">
    <path clip-path="url(#p32b1964a7a)" d="M 240.68412 183.253979 
L 240.682584 183.305211 
L 263.778506 188.421459 
L 263.78052 188.370049 
z
" style="fill:#ba0c2f;fill-opacity:0.8;"/>
    <path clip-path="url(#p32b1964a7a)" d="M 228.265937 192.151184 
L 228.26464 192.202725 
L 240.682584 183.305211 
L 240.68412 183.253979 
z
" style="fill:#5d0618;fill-opacity:0.8;"/>
    <path clip-path="url(#p32b1964a7a)" d="M 228.26464 192.202725 
L 251.514122 197.417833 
L 263.778506 188.421459 
L 240.682584 183.305211 
z
" style="fill:#a30a29;fill-opacity:0.8;"/>
    <path clip-path="url(#p32b1964a7a)" d="M 228.265937 192.151184 
L 240.68412 183.253979 
L 263.78052 188.370049 
L 251.515903 197.366112 
z
" style="fill:#74081d;fill-opacity:0.8;"/>
    <path clip-path="url(#p32b1964a7a)" d="M 251.515903 197.366112 
L 263.78052 188.370049 
L 263.778506 188.421459 
L 251.514122 197.417833 
z
" style="fill:#ba0c2f;fill-opacity:0.8;"/>
    <path clip-path="url(#p32b1964a7a)" d="M 228.265937 192.151184 
L 251.515903 197.366112 
L 251.514122 197.417833 
L 228.26464 192.202725 
z
" style="fill:#5d0618;fill-opacity:0.8;"/>
   </g>
   <g id="Poly3DCollection_10">
    <path clip-path="url(#p32b1964a7a)" d="M 169.573234 190.763642 
L 169.573819 190.456053 
L 192.465719 195.654429 
L 192.462326 195.96309 
z
" style="fill:#5d0618;fill-opacity:0.8;"/>
    <path clip-path="url(#p32b1964a7a)" d="M 156.366146 199.806146 
L 156.365113 199.496696 
L 169.573819 190.456053 
L 169.573234 190.763642 
z
" style="fill:#ba0c2f;fill-opacity:0.8;"/>
    <path clip-path="url(#p32b1964a7a)" d="M 156.366146 199.806146 
L 169.573234 190.763642 
L 192.462326 195.96309 
L 179.403624 205.106891 
z
" style="fill:#74081d;fill-opacity:0.8;"/>
    <path clip-path="url(#p32b1964a7a)" d="M 156.365113 199.496696 
L 179.405434 204.79636 
L 192.465719 195.654429 
L 169.573819 190.456053 
z
" style="fill:#a30a29;fill-opacity:0.8;"/>
    <path clip-path="url(#p32b1964a7a)" d="M 179.403624 205.106891 
L 192.462326 195.96309 
L 192.465719 195.654429 
L 179.405434 204.79636 
z
" style="fill:#5d0618;fill-opacity:0.8;"/>
    <path clip-path="url(#p32b1964a7a)" d="M 156.366146 199.806146 
L 179.403624 205.106891 
L 179.405434 204.79636 
L 156.365113 199.496696 
z
" style="fill:#ba0c2f;fill-opacity:0.8;"/>
   </g>
   <g id="Poly3DCollection_11">
    <path clip-path="url(#p32b1964a7a)" d="M 97.301916 198.395852 
L 97.321458 199.124991 
L 119.986843 204.412418 
L 119.973795 203.680734 
z
" style="fill:#ba0c2f;fill-opacity:0.8;"/>
    <path clip-path="url(#p32b1964a7a)" d="M 83.281614 207.587244 
L 83.305446 208.320799 
L 97.321458 199.124991 
L 97.301916 198.395852 
z
" style="fill:#5d0618;fill-opacity:0.8;"/>
    <path clip-path="url(#p32b1964a7a)" d="M 83.305446 208.320799 
L 106.113634 213.712063 
L 119.986843 204.412418 
L 97.321458 199.124991 
z
" style="fill:#a30a29;fill-opacity:0.8;"/>
    <path clip-path="url(#p32b1964a7a)" d="M 83.281614 207.587244 
L 97.301916 198.395852 
L 119.973795 203.680734 
L 106.096377 212.975942 
z
" style="fill:#74081d;fill-opacity:0.8;"/>
    <path clip-path="url(#p32b1964a7a)" d="M 106.096377 212.975942 
L 119.973795 203.680734 
L 119.986843 204.412418 
L 106.113634 213.712063 
z
" style="fill:#ba0c2f;fill-opacity:0.8;"/>
    <path clip-path="url(#p32b1964a7a)" d="M 83.281614 207.587244 
L 106.096377 212.975942 
L 106.113634 213.712063 
L 83.305446 208.320799 
z
" style="fill:#5d0618;fill-opacity:0.8;"/>
   </g>
   <g id="Poly3DCollection_12">
    <path clip-path="url(#p32b1964a7a)" d="M 215.607301 201.220664 
L 215.613174 200.930176 
L 239.021098 206.245841 
L 239.012472 206.537345 
z
" style="fill:#5d0618;fill-opacity:0.8;"/>
    <path clip-path="url(#p32b1964a7a)" d="M 202.70116 210.467474 
L 202.705585 210.175224 
L 215.613174 200.930176 
L 215.607301 201.220664 
z
" style="fill:#ba0c2f;fill-opacity:0.8;"/>
    <path clip-path="url(#p32b1964a7a)" d="M 202.70116 210.467474 
L 215.607301 201.220664 
L 239.012472 206.537345 
L 226.263183 215.888913 
z
" style="fill:#74081d;fill-opacity:0.8;"/>
    <path clip-path="url(#p32b1964a7a)" d="M 202.705585 210.175224 
L 226.270397 215.595641 
L 239.021098 206.245841 
L 215.613174 200.930176 
z
" style="fill:#a30a29;fill-opacity:0.8;"/>
    <path clip-path="url(#p32b1964a7a)" d="M 226.263183 215.888913 
L 239.012472 206.537345 
L 239.021098 206.245841 
L 226.270397 215.595641 
z
" style="fill:#5d0618;fill-opacity:0.8;"/>
    <path clip-path="url(#p32b1964a7a)" d="M 202.70116 210.467474 
L 226.263183 215.888913 
L 226.270397 215.595641 
L 202.705585 210.175224 
z
" style="fill:#ba0c2f;fill-opacity:0.8;"/>
   </g>
   <g id="Poly3DCollection_13">
    <path clip-path="url(#p32b1964a7a)" d="M 142.90122 209.025184 
L 142.914976 210.602052 
L 166.087699 216.012596 
L 166.088534 214.430216 
z
" style="fill:#ba0c2f;fill-opacity:0.8;"/>
    <path clip-path="url(#p32b1964a7a)" d="M 129.17083 218.425978 
L 129.193444 220.012408 
L 142.914976 210.602052 
L 142.90122 209.025184 
z
" style="fill:#5d0618;fill-opacity:0.8;"/>
    <path clip-path="url(#p32b1964a7a)" d="M 129.193444 220.012408 
L 152.517265 225.530387 
L 166.087699 216.012596 
L 142.914976 210.602052 
z
" style="fill:#a30a29;fill-opacity:0.8;"/>
    <path clip-path="url(#p32b1964a7a)" d="M 129.17083 218.425978 
L 142.90122 209.025184 
L 166.088534 214.430216 
L 152.509433 223.938404 
z
" style="fill:#74081d;fill-opacity:0.8;"/>
    <path clip-path="url(#p32b1964a7a)" d="M 152.509433 223.938404 
L 166.088534 214.430216 
L 166.087699 216.012596 
L 152.517265 225.530387 
z
" style="fill:#ba0c2f;fill-opacity:0.8;"/>
    <path clip-path="url(#p32b1964a7a)" d="M 129.17083 218.425978 
L 152.509433 223.938404 
L 152.517265 225.530387 
L 129.193444 220.012408 
z
" style="fill:#5d0618;fill-opacity:0.8;"/>
   </g>
   <g id="Poly3DCollection_14">
    <path clip-path="url(#p32b1964a7a)" d="M 252.868637 174.524188 
L 264.826022 165.95713 
L 287.620167 170.883733 
L 275.8131 179.544184 
z
" style="fill:#74081d;fill-opacity:0.8;"/>
    <path clip-path="url(#p32b1964a7a)" d="M 264.826022 165.95713 
L 269.813336 38.865404 
L 293.778434 43.31689 
L 287.620167 170.883733 
z
" style="fill:#5d0618;fill-opacity:0.8;"/>
    <path clip-path="url(#p32b1964a7a)" d="M 252.868637 174.524188 
L 257.303336 46.607806 
L 269.813336 38.865404 
L 264.826022 165.95713 
z
" style="fill:#ba0c2f;fill-opacity:0.8;"/>
    <path clip-path="url(#p32b1964a7a)" d="M 275.8131 179.544184 
L 287.620167 170.883733 
L 293.778434 43.31689 
L 281.434829 51.147959 
z
" style="fill:#5d0618;fill-opacity:0.8;"/>
    <path clip-path="url(#p32b1964a7a)" d="M 252.868637 174.524188 
L 275.8131 179.544184 
L 281.434829 51.147959 
L 257.303336 46.607806 
z
" style="fill:#ba0c2f;fill-opacity:0.8;"/>
    <path clip-path="url(#p32b1964a7a)" d="M 257.303336 46.607806 
L 281.434829 51.147959 
L 293.778434 43.31689 
L 269.813336 38.865404 
z
" style="fill:#a30a29;fill-opacity:0.8;"/>
   </g>
   <g id="Poly3DCollection_15">
    <path clip-path="url(#p32b1964a7a)" d="M 25.579898 198.334202 
L 203.736081 240.609706 
L 299.718258 169.616378 
L 130.053112 133.100926 
z
" style="fill-opacity:0.15;"/>
   </g>
   <g id="Poly3DCollection_16">
    <path clip-path="url(#p32b1964a7a)" d="M 176.116748 229.514298 
L 189.540183 219.896865 
L 213.260712 225.42619 
L 199.997442 235.154762 
z
" style="fill:#74081d;fill-opacity:0.8;"/>
    <path clip-path="url(#p32b1964a7a)" d="M 189.540183 219.896865 
L 189.869419 186.725232 
L 213.908958 192.135771 
L 213.260712 225.42619 
z
" style="fill:#5d0618;fill-opacity:0.8;"/>
    <path clip-path="url(#p32b1964a7a)" d="M 176.116748 229.514298 
L 176.269099 196.136583 
L 189.869419 186.725232 
L 189.540183 219.896865 
z
" style="fill:#ba0c2f;fill-opacity:0.8;"/>
    <path clip-path="url(#p32b1964a7a)" d="M 199.997442 235.154762 
L 213.260712 225.42619 
L 213.908958 192.135771 
L 200.473171 201.657345 
z
" style="fill:#5d0618;fill-opacity:0.8;"/>
    <path clip-path="url(#p32b1964a7a)" d="M 176.116748 229.514298 
L 199.997442 235.154762 
L 200.473171 201.657345 
L 176.269099 196.136583 
z
" style="fill:#ba0c2f;fill-opacity:0.8;"/>
    <path clip-path="url(#p32b1964a7a)" d="M 176.269099 196.136583 
L 200.473171 201.657345 
L 213.908958 192.135771 
L 189.869419 186.725232 
z
" style="fill:#a30a29;fill-opacity:0.8;"/>
   </g>
   <g id="Poly3DCollection_17">
    <path clip-path="url(#p32b1964a7a)" d="M 38.413819 196.989763 
L 52.707891 188.000852 
L 74.881333 193.169547 
L 60.722182 202.258853 
z
" style="fill:#74081d;fill-opacity:0.8;"/>
    <path clip-path="url(#p32b1964a7a)" d="M 52.707891 188.000852 
L 46.933544 57.750519 
L 70.222556 62.427839 
L 74.881333 193.169547 
z
" style="fill:#5d0618;fill-opacity:0.8;"/>
    <path clip-path="url(#p32b1964a7a)" d="M 38.413819 196.989763 
L 31.836896 65.886594 
L 46.933544 57.750519 
L 52.707891 188.000852 
z
" style="fill:#ba0c2f;fill-opacity:0.8;"/>
    <path clip-path="url(#p32b1964a7a)" d="M 60.722182 202.258853 
L 74.881333 193.169547 
L 70.222556 62.427839 
L 55.274545 70.659531 
z
" style="fill:#5d0618;fill-opacity:0.8;"/>
    <path clip-path="url(#p32b1964a7a)" d="M 38.413819 196.989763 
L 60.722182 202.258853 
L 55.274545 70.659531 
L 31.836896 65.886594 
z
" style="fill:#ba0c2f;fill-opacity:0.8;"/>
    <path clip-path="url(#p32b1964a7a)" d="M 31.836896 65.886594 
L 55.274545 70.659531 
L 70.222556 62.427839 
L 46.933544 57.750519 
z
" style="fill:#a30a29;fill-opacity:0.8;"/>
   </g>
  </g>
  <g id="patch_6">
   <path d="M 425.945455 262.8 
L 806.4 262.8 
L 806.4 -14.4 
L 425.945455 -14.4 
z
" style="fill:#ffffff;"/>
  </g>
  <g id="pane3d_4">
   <g id="patch_7">
    <path d="M 476.380584 201.548569 
L 585.268665 133.58541 
L 583.455794 3.718968 
L 468.496488 64.782468 
" style="fill:#f2f2f2;opacity:0.5;stroke:#f2f2f2;stroke-linejoin:miter;"/>
   </g>
  </g>
  <g id="pane3d_5">
   <g id="patch_8">
    <path d="M 585.268665 133.58541 
L 761.65712 171.581202 
L 769.037001 37.79869 
L 583.455794 3.718968 
" style="fill:#e6e6e6;opacity:0.5;stroke:#e6e6e6;stroke-linejoin:miter;"/>
   </g>
  </g>
  <g id="pane3d_6">
   <g id="patch_9">
    <path d="M 476.380584 201.548569 
L 661.965072 245.80086 
L 761.65712 171.581202 
L 585.268665 133.58541 
" style="fill:#ececec;opacity:0.5;stroke:#ececec;stroke-linejoin:miter;"/>
   </g>
  </g>
  <g id="axis3d_4">
   <g id="line2d_15">
    <path d="M 476.380584 201.548569 
L 661.965072 245.80086 
" style="fill:none;stroke:#000000;stroke-linecap:square;stroke-width:0.8;"/>
   </g>
   <g id="Line3DCollection_4">
    <path d="M 498.841271 206.90428 
L 606.679397 138.19749 
L 605.9393 7.847789 
" style="fill:none;stroke:#b0b0b0;stroke-width:0.8;"/>
    <path d="M 544.057792 217.686079 
L 649.729469 147.470895 
L 651.182353 16.156123 
" style="fill:none;stroke:#b0b0b0;stroke-width:0.8;"/>
    <path d="M 590.310744 228.715013 
L 693.693551 156.941187 
L 697.435637 24.649974 
" style="fill:none;stroke:#b0b0b0;stroke-width:0.8;"/>
    <path d="M 637.636176 239.999678 
L 738.601063 166.614702 
L 744.733372 33.335625 
" style="fill:none;stroke:#b0b0b0;stroke-width:0.8;"/>
   </g>
   <g id="xtick_12">
    <g id="line2d_16">
     <path d="M 499.770538 206.312217 
L 496.979262 208.09062 
" style="fill:none;stroke:#000000;stroke-linecap:square;stroke-width:0.8;"/>
    </g>
    <g id="text_12">
     <!-- 00 -->
     <g transform="translate(472.654007 247.89009)rotate(-45)scale(0.24 -0.24)">
      <use transform="scale(0.996264)" xlink:href="#CMR17-48"/>
      <use transform="translate(45.690477 0)scale(0.996264)" xlink:href="#CMR17-48"/>
     </g>
    </g>
   </g>
   <g id="xtick_13">
    <g id="line2d_17">
     <path d="M 544.969128 217.080527 
L 542.231671 218.899473 
" style="fill:none;stroke:#000000;stroke-linecap:square;stroke-width:0.8;"/>
    </g>
    <g id="text_13">
     <!-- 01 -->
     <g transform="translate(517.866433 258.846842)rotate(-45)scale(0.24 -0.24)">
      <use transform="scale(0.996264)" xlink:href="#CMR17-48"/>
      <use transform="translate(45.690477 0)scale(0.996264)" xlink:href="#CMR17-49"/>
     </g>
    </g>
   </g>
   <g id="xtick_14">
    <g id="line2d_18">
     <path d="M 591.20308 228.095506 
L 588.522658 229.956397 
" style="fill:none;stroke:#000000;stroke-linecap:square;stroke-width:0.8;"/>
    </g>
    <g id="text_14">
     <!-- 10 -->
     <g transform="translate(564.117045 270.055188)rotate(-45)scale(0.24 -0.24)">
      <use transform="scale(0.996264)" xlink:href="#CMR17-49"/>
      <use transform="translate(45.690477 0)scale(0.996264)" xlink:href="#CMR17-48"/>
     </g>
    </g>
   </g>
   <g id="xtick_15">
    <g id="line2d_19">
     <path d="M 638.50838 239.365727 
L 635.888391 241.270032 
" style="fill:none;stroke:#000000;stroke-linecap:square;stroke-width:0.8;"/>
    </g>
    <g id="text_15">
     <!-- 11 -->
     <g transform="translate(611.44202 281.523893)rotate(-45)scale(0.24 -0.24)">
      <use transform="scale(0.996264)" xlink:href="#CMR17-49"/>
      <use transform="translate(45.690477 0)scale(0.996264)" xlink:href="#CMR17-49"/>
     </g>
    </g>
   </g>
  </g>
  <g id="axis3d_5">
   <g id="line2d_20">
    <path d="M 761.65712 171.581202 
L 661.965072 245.80086 
" style="fill:none;stroke:#000000;stroke-linecap:square;stroke-width:0.8;"/>
   </g>
   <g id="Line3DCollection_5">
    <path d="M 484.000685 56.547028 
L 491.016499 192.413474 
L 675.403872 235.795817 
" style="fill:none;stroke:#b0b0b0;stroke-width:0.8;"/>
    <path d="M 513.777478 40.730342 
L 519.168861 174.842005 
L 701.219492 216.576366 
" style="fill:none;stroke:#b0b0b0;stroke-width:0.8;"/>
    <path d="M 542.401344 25.526062 
L 546.284836 157.917404 
L 726.04244 198.095948 
" style="fill:none;stroke:#b0b0b0;stroke-width:0.8;"/>
    <path d="M 569.937971 10.899296 
L 572.420618 141.604597 
L 749.928893 180.312741 
" style="fill:none;stroke:#b0b0b0;stroke-width:0.8;"/>
   </g>
   <g id="xtick_16">
    <g id="line2d_21">
     <path d="M 673.861052 235.432825 
L 678.492943 236.522608 
" style="fill:none;stroke:#000000;stroke-linecap:square;stroke-width:0.8;"/>
    </g>
    <g id="text_16">
     <!-- 00 -->
     <g transform="translate(689.937743 249.065483)rotate(-337.5)scale(0.24 -0.24)">
      <use transform="scale(0.996264)" xlink:href="#CMR17-48"/>
      <use transform="translate(45.690477 0)scale(0.996264)" xlink:href="#CMR17-48"/>
     </g>
    </g>
   </g>
   <g id="xtick_17">
    <g id="line2d_22">
     <path d="M 699.697534 216.227463 
L 704.266725 217.274932 
" style="fill:none;stroke:#000000;stroke-linecap:square;stroke-width:0.8;"/>
    </g>
    <g id="text_17">
     <!-- 01 -->
     <g transform="translate(715.491295 229.621057)rotate(-337.5)scale(0.24 -0.24)">
      <use transform="scale(0.996264)" xlink:href="#CMR17-48"/>
      <use transform="translate(45.690477 0)scale(0.996264)" xlink:href="#CMR17-49"/>
     </g>
    </g>
   </g>
   <g id="xtick_18">
    <g id="line2d_23">
     <path d="M 724.540896 197.76033 
L 729.048738 198.767901 
" style="fill:none;stroke:#000000;stroke-linecap:square;stroke-width:0.8;"/>
    </g>
    <g id="text_18">
     <!-- 10 -->
     <g transform="translate(740.062706 210.923969)rotate(-337.5)scale(0.24 -0.24)">
      <use transform="scale(0.996264)" xlink:href="#CMR17-49"/>
      <use transform="translate(45.690477 0)scale(0.996264)" xlink:href="#CMR17-48"/>
     </g>
    </g>
   </g>
   <g id="xtick_19">
    <g id="line2d_24">
     <path d="M 748.44732 179.989663 
L 752.895146 180.959573 
" style="fill:none;stroke:#000000;stroke-linecap:square;stroke-width:0.8;"/>
    </g>
    <g id="text_19">
     <!-- 11 -->
     <g transform="translate(763.707533 192.931947)rotate(-337.5)scale(0.24 -0.24)">
      <use transform="scale(0.996264)" xlink:href="#CMR17-49"/>
      <use transform="translate(45.690477 0)scale(0.996264)" xlink:href="#CMR17-49"/>
     </g>
    </g>
   </g>
  </g>
  <g id="axis3d_6">
   <g id="line2d_25">
    <path d="M 761.65712 171.581202 
L 769.037001 37.79869 
" style="fill:none;stroke:#000000;stroke-linecap:square;stroke-width:0.8;"/>
   </g>
   <g id="Line3DCollection_6">
    <path d="M 761.877149 167.592517 
L 585.214501 129.70529 
L 476.145914 197.477734 
" style="fill:none;stroke:#b0b0b0;stroke-width:0.8;"/>
    <path d="M 764.595304 118.317783 
L 584.545952 81.813311 
L 473.244906 147.153686 
" style="fill:none;stroke:#b0b0b0;stroke-width:0.8;"/>
    <path d="M 767.420658 67.099759 
L 583.852174 32.11398 
L 470.225587 94.777294 
" style="fill:none;stroke:#b0b0b0;stroke-width:0.8;"/>
   </g>
   <g id="xtick_20">
    <g id="line2d_26">
     <path d="M 760.403117 167.276394 
L 764.82828 168.225419 
" style="fill:none;stroke:#000000;stroke-linecap:square;stroke-width:0.8;"/>
    </g>
    <g id="text_20">
     <!-- $0.0$ -->
     <g transform="translate(766.197871 182.257984)scale(0.24 -0.24)">
      <use transform="scale(0.996264)" xlink:href="#CMR17-48"/>
      <use transform="translate(45.690477 0)scale(0.996264)" xlink:href="#CMMI12-58"/>
      <use transform="translate(72.787654 0)scale(0.996264)" xlink:href="#CMR17-48"/>
     </g>
    </g>
   </g>
   <g id="xtick_21">
    <g id="line2d_27">
     <path d="M 763.091818 118.012956 
L 767.605467 118.928084 
" style="fill:none;stroke:#000000;stroke-linecap:square;stroke-width:0.8;"/>
    </g>
    <g id="text_21">
     <!-- $0.2$ -->
     <g transform="translate(769.267844 133.052591)scale(0.24 -0.24)">
      <use transform="scale(0.996264)" xlink:href="#CMR17-48"/>
      <use transform="translate(45.690477 0)scale(0.996264)" xlink:href="#CMMI12-58"/>
      <use transform="translate(72.787654 0)scale(0.996264)" xlink:href="#CMR17-50"/>
     </g>
    </g>
   </g>
   <g id="xtick_22">
    <g id="line2d_28">
     <path d="M 765.886518 66.807372 
L 770.492258 67.685166 
" style="fill:none;stroke:#000000;stroke-linecap:square;stroke-width:0.8;"/>
    </g>
    <g id="text_22">
     <!-- $0.4$ -->
     <g transform="translate(772.458622 81.91093)scale(0.24 -0.24)">
      <use transform="scale(0.996264)" xlink:href="#CMR17-48"/>
      <use transform="translate(45.690477 0)scale(0.996264)" xlink:href="#CMMI12-58"/>
      <use transform="translate(72.787654 0)scale(0.996264)" xlink:href="#CMR17-52"/>
     </g>
    </g>
   </g>
  </g>
  <g id="axes_2">
   <g id="Poly3DCollection_18">
    <path clip-path="url(#pa63681054c)" d="M 589.579838 136.064623 
L 589.597202 137.476151 
L 610.984142 142.098609 
L 610.978457 140.682224 
z
" style="fill:#0cba97;fill-opacity:0.8;"/>
    <path clip-path="url(#pa63681054c)" d="M 576.792005 144.093359 
L 576.816589 145.513314 
L 589.597202 137.476151 
L 589.579838 136.064623 
z
" style="fill:#065d4c;fill-opacity:0.8;"/>
    <path clip-path="url(#pa63681054c)" d="M 576.816589 145.513314 
L 598.331835 150.220613 
L 610.984142 142.098609 
L 589.597202 137.476151 
z
" style="fill:#0aa384;fill-opacity:0.8;"/>
    <path clip-path="url(#pa63681054c)" d="M 576.792005 144.093359 
L 589.579838 136.064623 
L 610.978457 140.682224 
L 598.319071 148.795759 
z
" style="fill:#08745e;fill-opacity:0.8;"/>
    <path clip-path="url(#pa63681054c)" d="M 598.319071 148.795759 
L 610.978457 140.682224 
L 610.984142 142.098609 
L 598.331835 150.220613 
z
" style="fill:#0cba97;fill-opacity:0.8;"/>
    <path clip-path="url(#pa63681054c)" d="M 576.792005 144.093359 
L 598.319071 148.795759 
L 598.331835 150.220613 
L 576.816589 145.513314 
z
" style="fill:#065d4c;fill-opacity:0.8;"/>
   </g>
   <g id="Poly3DCollection_19">
    <path clip-path="url(#pa63681054c)" d="M 632.60265 145.348501 
L 632.601956 145.506545 
L 654.453953 150.222818 
L 654.456002 150.064229 
z
" style="fill:#0cba97;fill-opacity:0.8;"/>
    <path clip-path="url(#pa63681054c)" d="M 620.075155 153.548186 
L 620.075232 153.707177 
L 632.601956 145.506545 
L 632.60265 145.348501 
z
" style="fill:#065d4c;fill-opacity:0.8;"/>
    <path clip-path="url(#pa63681054c)" d="M 620.075232 153.707177 
L 642.062637 158.510985 
L 654.453953 150.222818 
L 632.601956 145.506545 
z
" style="fill:#0aa384;fill-opacity:0.8;"/>
    <path clip-path="url(#pa63681054c)" d="M 620.075155 153.548186 
L 632.60265 145.348501 
L 654.456002 150.064229 
L 642.063931 158.351443 
z
" style="fill:#08745e;fill-opacity:0.8;"/>
    <path clip-path="url(#pa63681054c)" d="M 642.063931 158.351443 
L 654.456002 150.064229 
L 654.453953 150.222818 
L 642.062637 158.510985 
z
" style="fill:#0cba97;fill-opacity:0.8;"/>
    <path clip-path="url(#pa63681054c)" d="M 620.075155 153.548186 
L 642.063931 158.351443 
L 642.062637 158.510985 
L 620.075232 153.707177 
z
" style="fill:#065d4c;fill-opacity:0.8;"/>
   </g>
   <g id="Poly3DCollection_20">
    <path clip-path="url(#pa63681054c)" d="M 563.768872 152.269826 
L 563.758837 151.822779 
L 585.419212 156.610788 
L 585.425504 157.059383 
z
" style="fill:#065d4c;fill-opacity:0.8;"/>
    <path clip-path="url(#pa63681054c)" d="M 550.503883 160.59814 
L 550.49142 160.148407 
L 563.758837 151.822779 
L 563.768872 152.269826 
z
" style="fill:#0cba97;fill-opacity:0.8;"/>
    <path clip-path="url(#pa63681054c)" d="M 550.503883 160.59814 
L 563.768872 152.269826 
L 585.425504 157.059383 
L 572.291197 165.4773 
z
" style="fill:#08745e;fill-opacity:0.8;"/>
    <path clip-path="url(#pa63681054c)" d="M 550.49142 160.148407 
L 572.282522 165.026006 
L 585.419212 156.610788 
L 563.758837 151.822779 
z
" style="fill:#0aa384;fill-opacity:0.8;"/>
    <path clip-path="url(#pa63681054c)" d="M 572.291197 165.4773 
L 585.425504 157.059383 
L 585.419212 156.610788 
L 572.282522 165.026006 
z
" style="fill:#065d4c;fill-opacity:0.8;"/>
    <path clip-path="url(#pa63681054c)" d="M 550.503883 160.59814 
L 572.291197 165.4773 
L 572.282522 165.026006 
L 550.49142 160.148407 
z
" style="fill:#0cba97;fill-opacity:0.8;"/>
   </g>
   <g id="Poly3DCollection_21">
    <path clip-path="url(#pa63681054c)" d="M 676.542174 154.830196 
L 676.553206 154.318683 
L 698.880481 159.133925 
L 698.864908 159.647211 
z
" style="fill:#065d4c;fill-opacity:0.8;"/>
    <path clip-path="url(#pa63681054c)" d="M 664.289152 163.206349 
L 664.297816 162.69176 
L 676.553206 154.318683 
L 676.542174 154.830196 
z
" style="fill:#0cba97;fill-opacity:0.8;"/>
    <path clip-path="url(#pa63681054c)" d="M 664.289152 163.206349 
L 676.542174 154.830196 
L 698.864908 159.647211 
L 686.754653 168.113743 
z
" style="fill:#08745e;fill-opacity:0.8;"/>
    <path clip-path="url(#pa63681054c)" d="M 664.297816 162.69176 
L 686.767917 167.597366 
L 698.880481 159.133925 
L 676.553206 154.318683 
z
" style="fill:#0aa384;fill-opacity:0.8;"/>
    <path clip-path="url(#pa63681054c)" d="M 686.754653 168.113743 
L 698.864908 159.647211 
L 698.880481 159.133925 
L 686.767917 167.597366 
z
" style="fill:#065d4c;fill-opacity:0.8;"/>
    <path clip-path="url(#pa63681054c)" d="M 664.289152 163.206349 
L 686.754653 168.113743 
L 686.767917 167.597366 
L 664.297816 162.69176 
z
" style="fill:#0cba97;fill-opacity:0.8;"/>
   </g>
   <g id="Poly3DCollection_22">
    <path clip-path="url(#pa63681054c)" d="M 607.314675 161.900369 
L 607.315718 162.090682 
L 629.439541 166.984588 
L 629.440149 166.793615 
z
" style="fill:#0cba97;fill-opacity:0.8;"/>
    <path clip-path="url(#pa63681054c)" d="M 594.314648 170.409342 
L 594.316679 170.600801 
L 607.315718 162.090682 
L 607.314675 161.900369 
z
" style="fill:#065d4c;fill-opacity:0.8;"/>
    <path clip-path="url(#pa63681054c)" d="M 594.316679 170.600801 
L 616.578455 175.587256 
L 629.439541 166.984588 
L 607.315718 162.090682 
z
" style="fill:#0aa384;fill-opacity:0.8;"/>
    <path clip-path="url(#pa63681054c)" d="M 594.314648 170.409342 
L 607.314675 161.900369 
L 629.440149 166.793615 
L 616.578096 175.395131 
z
" style="fill:#08745e;fill-opacity:0.8;"/>
    <path clip-path="url(#pa63681054c)" d="M 616.578096 175.395131 
L 629.440149 166.793615 
L 629.439541 166.984588 
L 616.578455 175.587256 
z
" style="fill:#0cba97;fill-opacity:0.8;"/>
    <path clip-path="url(#pa63681054c)" d="M 594.314648 170.409342 
L 616.578096 175.395131 
L 616.578455 175.587256 
L 594.316679 170.600801 
z
" style="fill:#065d4c;fill-opacity:0.8;"/>
   </g>
   <g id="Poly3DCollection_23">
    <path clip-path="url(#pa63681054c)" d="M 721.428025 164.516099 
L 721.428025 164.516099 
L 744.235428 169.4377 
L 744.235428 169.4377 
z
" style="fill:#065d4c;fill-opacity:0.8;"/>
    <path clip-path="url(#pa63681054c)" d="M 709.464351 173.074479 
L 709.464351 173.074479 
L 721.428025 164.516099 
L 721.428025 164.516099 
z
" style="fill:#065d4c;fill-opacity:0.8;"/>
    <path clip-path="url(#pa63681054c)" d="M 709.464351 173.074479 
L 721.428025 164.516099 
L 744.235428 169.4377 
L 732.42225 178.089432 
z
" style="fill:#08745e;fill-opacity:0.8;"/>
    <path clip-path="url(#pa63681054c)" d="M 709.464351 173.074479 
L 732.42225 178.089432 
L 744.235428 169.4377 
L 721.428025 164.516099 
z
" style="fill:#0aa384;fill-opacity:0.8;"/>
    <path clip-path="url(#pa63681054c)" d="M 732.42225 178.089432 
L 744.235428 169.4377 
L 744.235428 169.4377 
L 732.42225 178.089432 
z
" style="fill:#065d4c;fill-opacity:0.8;"/>
    <path clip-path="url(#pa63681054c)" d="M 709.464351 173.074479 
L 732.42225 178.089432 
L 732.42225 178.089432 
L 709.464351 173.074479 
z
" style="fill:#065d4c;fill-opacity:0.8;"/>
   </g>
   <g id="Poly3DCollection_24">
    <path clip-path="url(#pa63681054c)" d="M 536.990238 169.08257 
L 537.016626 169.879495 
L 558.928978 174.853567 
L 558.909343 174.053872 
z
" style="fill:#0cba97;fill-opacity:0.8;"/>
    <path clip-path="url(#pa63681054c)" d="M 523.22088 177.727549 
L 523.251866 178.529281 
L 537.016626 169.879495 
L 536.990238 169.08257 
z
" style="fill:#065d4c;fill-opacity:0.8;"/>
    <path clip-path="url(#pa63681054c)" d="M 523.251866 178.529281 
L 545.297032 183.598151 
L 558.928978 174.853567 
L 537.016626 169.879495 
z
" style="fill:#0aa384;fill-opacity:0.8;"/>
    <path clip-path="url(#pa63681054c)" d="M 523.22088 177.727549 
L 536.990238 169.08257 
L 558.909343 174.053872 
L 545.272879 182.793626 
z
" style="fill:#08745e;fill-opacity:0.8;"/>
    <path clip-path="url(#pa63681054c)" d="M 545.272879 182.793626 
L 558.909343 174.053872 
L 558.928978 174.853567 
L 545.297032 183.598151 
z
" style="fill:#0cba97;fill-opacity:0.8;"/>
    <path clip-path="url(#pa63681054c)" d="M 523.22088 177.727549 
L 545.272879 182.793626 
L 545.297032 183.598151 
L 523.251866 178.529281 
z
" style="fill:#065d4c;fill-opacity:0.8;"/>
   </g>
   <g id="Poly3DCollection_25">
    <path clip-path="url(#pa63681054c)" d="M 651.805776 171.739973 
L 651.805776 171.739973 
L 674.415485 176.740312 
L 674.415485 176.740312 
z
" style="fill:#065d4c;fill-opacity:0.8;"/>
    <path clip-path="url(#pa63681054c)" d="M 639.085487 180.435549 
L 639.085487 180.435549 
L 651.805776 171.739973 
L 651.805776 171.739973 
z
" style="fill:#065d4c;fill-opacity:0.8;"/>
    <path clip-path="url(#pa63681054c)" d="M 639.085487 180.435549 
L 651.805776 171.739973 
L 674.415485 176.740312 
L 661.840852 185.531499 
z
" style="fill:#08745e;fill-opacity:0.8;"/>
    <path clip-path="url(#pa63681054c)" d="M 639.085487 180.435549 
L 661.840852 185.531499 
L 674.415485 176.740312 
L 651.805776 171.739973 
z
" style="fill:#0aa384;fill-opacity:0.8;"/>
    <path clip-path="url(#pa63681054c)" d="M 661.840852 185.531499 
L 674.415485 176.740312 
L 674.415485 176.740312 
L 661.840852 185.531499 
z
" style="fill:#065d4c;fill-opacity:0.8;"/>
    <path clip-path="url(#pa63681054c)" d="M 639.085487 180.435549 
L 661.840852 185.531499 
L 661.840852 185.531499 
L 639.085487 180.435549 
z
" style="fill:#065d4c;fill-opacity:0.8;"/>
   </g>
   <g id="Poly3DCollection_26">
    <path clip-path="url(#pa63681054c)" d="M 581.068265 179.079564 
L 581.068265 179.079564 
L 603.470962 184.160545 
L 603.470962 184.160545 
z
" style="fill:#065d4c;fill-opacity:0.8;"/>
    <path clip-path="url(#pa63681054c)" d="M 567.568458 187.915662 
L 567.568458 187.915662 
L 581.068265 179.079564 
L 581.068265 179.079564 
z
" style="fill:#065d4c;fill-opacity:0.8;"/>
    <path clip-path="url(#pa63681054c)" d="M 567.568458 187.915662 
L 581.068265 179.079564 
L 603.470962 184.160545 
L 590.111673 193.094588 
z
" style="fill:#08745e;fill-opacity:0.8;"/>
    <path clip-path="url(#pa63681054c)" d="M 567.568458 187.915662 
L 590.111673 193.094588 
L 603.470962 184.160545 
L 581.068265 179.079564 
z
" style="fill:#0aa384;fill-opacity:0.8;"/>
    <path clip-path="url(#pa63681054c)" d="M 590.111673 193.094588 
L 603.470962 184.160545 
L 603.470962 184.160545 
L 590.111673 193.094588 
z
" style="fill:#065d4c;fill-opacity:0.8;"/>
    <path clip-path="url(#pa63681054c)" d="M 567.568458 187.915662 
L 590.111673 193.094588 
L 590.111673 193.094588 
L 567.568458 187.915662 
z
" style="fill:#065d4c;fill-opacity:0.8;"/>
   </g>
   <g id="Poly3DCollection_27">
    <path clip-path="url(#pa63681054c)" d="M 697.273295 181.79552 
L 697.257674 182.31661 
L 720.362825 187.429413 
L 720.383311 186.906507 
z
" style="fill:#0cba97;fill-opacity:0.8;"/>
    <path clip-path="url(#pa63681054c)" d="M 684.848311 190.683905 
L 684.83512 191.208148 
L 697.257674 182.31661 
L 697.273295 181.79552 
z
" style="fill:#065d4c;fill-opacity:0.8;"/>
    <path clip-path="url(#pa63681054c)" d="M 684.83512 191.208148 
L 708.093955 196.419784 
L 720.362825 187.429413 
L 697.257674 182.31661 
z
" style="fill:#0aa384;fill-opacity:0.8;"/>
    <path clip-path="url(#pa63681054c)" d="M 684.848311 190.683905 
L 697.273295 181.79552 
L 720.383311 186.906507 
L 708.112076 195.89371 
z
" style="fill:#08745e;fill-opacity:0.8;"/>
    <path clip-path="url(#pa63681054c)" d="M 708.112076 195.89371 
L 720.383311 186.906507 
L 720.362825 187.429413 
L 708.093955 196.419784 
z
" style="fill:#0cba97;fill-opacity:0.8;"/>
    <path clip-path="url(#pa63681054c)" d="M 684.848311 190.683905 
L 708.112076 195.89371 
L 708.093955 196.419784 
L 684.83512 191.208148 
z
" style="fill:#065d4c;fill-opacity:0.8;"/>
   </g>
   <g id="Poly3DCollection_28">
    <path clip-path="url(#pa63681054c)" d="M 509.188479 186.537676 
L 509.188479 186.537676 
L 531.374468 191.701266 
L 531.374468 191.701266 
z
" style="fill:#065d4c;fill-opacity:0.8;"/>
    <path clip-path="url(#pa63681054c)" d="M 494.885428 195.517729 
L 494.885428 195.517729 
L 509.188479 186.537676 
L 509.188479 186.537676 
z
" style="fill:#065d4c;fill-opacity:0.8;"/>
    <path clip-path="url(#pa63681054c)" d="M 494.885428 195.517729 
L 517.206488 200.781674 
L 531.374468 191.701266 
L 509.188479 186.537676 
z
" style="fill:#0aa384;fill-opacity:0.8;"/>
    <path clip-path="url(#pa63681054c)" d="M 494.885428 195.517729 
L 509.188479 186.537676 
L 531.374468 191.701266 
L 517.206488 200.781674 
z
" style="fill:#08745e;fill-opacity:0.8;"/>
    <path clip-path="url(#pa63681054c)" d="M 517.206488 200.781674 
L 531.374468 191.701266 
L 531.374468 191.701266 
L 517.206488 200.781674 
z
" style="fill:#065d4c;fill-opacity:0.8;"/>
    <path clip-path="url(#pa63681054c)" d="M 494.885428 195.517729 
L 517.206488 200.781674 
L 517.206488 200.781674 
L 494.885428 195.517729 
z
" style="fill:#065d4c;fill-opacity:0.8;"/>
   </g>
   <g id="Poly3DCollection_29">
    <path clip-path="url(#pa63681054c)" d="M 626.121478 189.297732 
L 626.121847 189.103742 
L 649.026088 194.297395 
L 649.023948 194.492063 
z
" style="fill:#065d4c;fill-opacity:0.8;"/>
    <path clip-path="url(#pa63681054c)" d="M 612.906675 198.331358 
L 612.906023 198.136191 
L 626.121847 189.103742 
L 626.121478 189.297732 
z
" style="fill:#0cba97;fill-opacity:0.8;"/>
    <path clip-path="url(#pa63681054c)" d="M 612.906675 198.331358 
L 626.121478 189.297732 
L 649.023948 194.492063 
L 635.957705 203.626946 
z
" style="fill:#08745e;fill-opacity:0.8;"/>
    <path clip-path="url(#pa63681054c)" d="M 612.906023 198.136191 
L 635.958847 203.431095 
L 649.026088 194.297395 
L 626.121847 189.103742 
z
" style="fill:#0aa384;fill-opacity:0.8;"/>
    <path clip-path="url(#pa63681054c)" d="M 635.957705 203.626946 
L 649.023948 194.492063 
L 649.026088 194.297395 
L 635.958847 203.431095 
z
" style="fill:#065d4c;fill-opacity:0.8;"/>
    <path clip-path="url(#pa63681054c)" d="M 612.906675 198.331358 
L 635.957705 203.626946 
L 635.958847 203.431095 
L 612.906023 198.136191 
z
" style="fill:#0cba97;fill-opacity:0.8;"/>
   </g>
   <g id="Poly3DCollection_30">
    <path clip-path="url(#pa63681054c)" d="M 553.807882 196.922442 
L 553.786099 196.109696 
L 576.47834 201.386581 
L 576.492884 202.202172 
z
" style="fill:#065d4c;fill-opacity:0.8;"/>
    <path clip-path="url(#pa63681054c)" d="M 539.778908 206.104897 
L 539.752343 205.287215 
L 553.786099 196.109696 
L 553.807882 196.922442 
z
" style="fill:#0cba97;fill-opacity:0.8;"/>
    <path clip-path="url(#pa63681054c)" d="M 539.778908 206.104897 
L 553.807882 196.922442 
L 576.492884 202.202172 
L 562.606959 211.488404 
z
" style="fill:#08745e;fill-opacity:0.8;"/>
    <path clip-path="url(#pa63681054c)" d="M 539.752343 205.287215 
L 562.587722 210.667854 
L 576.47834 201.386581 
L 553.786099 196.109696 
z
" style="fill:#0aa384;fill-opacity:0.8;"/>
    <path clip-path="url(#pa63681054c)" d="M 562.606959 211.488404 
L 576.492884 202.202172 
L 576.47834 201.386581 
L 562.587722 210.667854 
z
" style="fill:#065d4c;fill-opacity:0.8;"/>
    <path clip-path="url(#pa63681054c)" d="M 539.778908 206.104897 
L 562.606959 211.488404 
L 562.587722 210.667854 
L 539.752343 205.287215 
z
" style="fill:#0cba97;fill-opacity:0.8;"/>
   </g>
   <g id="Poly3DCollection_31">
    <path clip-path="url(#pa63681054c)" d="M 672.182601 199.744497 
L 672.18592 199.580321 
L 695.606632 204.891263 
L 695.601758 205.056013 
z
" style="fill:#065d4c;fill-opacity:0.8;"/>
    <path clip-path="url(#pa63681054c)" d="M 659.269101 208.982348 
L 659.271602 208.817175 
L 672.18592 199.580321 
L 672.182601 199.744497 
z
" style="fill:#0cba97;fill-opacity:0.8;"/>
    <path clip-path="url(#pa63681054c)" d="M 659.269101 208.982348 
L 672.182601 199.744497 
L 695.601758 205.056013 
L 682.845299 214.398584 
z
" style="fill:#08745e;fill-opacity:0.8;"/>
    <path clip-path="url(#pa63681054c)" d="M 659.271602 208.817175 
L 682.849376 214.232833 
L 695.606632 204.891263 
L 672.18592 199.580321 
z
" style="fill:#0aa384;fill-opacity:0.8;"/>
    <path clip-path="url(#pa63681054c)" d="M 682.845299 214.398584 
L 695.601758 205.056013 
L 695.606632 204.891263 
L 682.849376 214.232833 
z
" style="fill:#065d4c;fill-opacity:0.8;"/>
    <path clip-path="url(#pa63681054c)" d="M 659.269101 208.982348 
L 682.845299 214.398584 
L 682.849376 214.232833 
L 659.271602 208.817175 
z
" style="fill:#0cba97;fill-opacity:0.8;"/>
   </g>
   <g id="Poly3DCollection_32">
    <path clip-path="url(#pa63681054c)" d="M 599.433731 207.541449 
L 599.43778 208.005645 
L 622.634529 213.407106 
L 622.634775 212.941283 
z
" style="fill:#0cba97;fill-opacity:0.8;"/>
    <path clip-path="url(#pa63681054c)" d="M 585.695006 216.933227 
L 585.701663 217.400245 
L 599.43778 208.005645 
L 599.433731 207.541449 
z
" style="fill:#065d4c;fill-opacity:0.8;"/>
    <path clip-path="url(#pa63681054c)" d="M 585.701663 217.400245 
L 609.049823 222.909075 
L 622.634529 213.407106 
L 599.43778 208.005645 
z
" style="fill:#0aa384;fill-opacity:0.8;"/>
    <path clip-path="url(#pa63681054c)" d="M 585.695006 216.933227 
L 599.433731 207.541449 
L 622.634775 212.941283 
L 609.047518 222.440417 
z
" style="fill:#08745e;fill-opacity:0.8;"/>
    <path clip-path="url(#pa63681054c)" d="M 609.047518 222.440417 
L 622.634775 212.941283 
L 622.634529 213.407106 
L 609.049823 222.909075 
z
" style="fill:#0cba97;fill-opacity:0.8;"/>
    <path clip-path="url(#pa63681054c)" d="M 585.695006 216.933227 
L 609.047518 222.440417 
L 609.049823 222.909075 
L 585.701663 217.400245 
z
" style="fill:#065d4c;fill-opacity:0.8;"/>
   </g>
   <g id="Poly3DCollection_33">
    <path clip-path="url(#pa63681054c)" d="M 646.100467 218.402713 
L 646.115315 216.906771 
L 669.864596 222.425597 
L 669.835364 223.926797 
z
" style="fill:#065d4c;fill-opacity:0.8;"/>
    <path clip-path="url(#pa63681054c)" d="M 632.669064 228.011054 
L 632.675934 226.505991 
L 646.115315 216.906771 
L 646.100467 218.402713 
z
" style="fill:#0cba97;fill-opacity:0.8;"/>
    <path clip-path="url(#pa63681054c)" d="M 632.669064 228.011054 
L 646.100467 218.402713 
L 669.835364 223.926797 
L 656.564321 233.646239 
z
" style="fill:#08745e;fill-opacity:0.8;"/>
    <path clip-path="url(#pa63681054c)" d="M 632.675934 226.505991 
L 656.585771 232.13588 
L 669.864596 222.425597 
L 646.115315 216.906771 
z
" style="fill:#0aa384;fill-opacity:0.8;"/>
    <path clip-path="url(#pa63681054c)" d="M 656.564321 233.646239 
L 669.835364 223.926797 
L 669.864596 222.425597 
L 656.585771 232.13588 
z
" style="fill:#065d4c;fill-opacity:0.8;"/>
    <path clip-path="url(#pa63681054c)" d="M 632.669064 228.011054 
L 656.564321 233.646239 
L 656.585771 232.13588 
L 632.675934 226.505991 
z
" style="fill:#0cba97;fill-opacity:0.8;"/>
   </g>
   <g id="Poly3DCollection_34">
    <path clip-path="url(#pa63681054c)" d="M 482.043889 196.860852 
L 660.305365 239.096115 
L 756.340288 168.171628 
L 586.579655 131.694019 
z
" style="fill-opacity:0.2;"/>
   </g>
  </g>
 </g>
 <defs>
  <clipPath id="p32b1964a7a">
   <rect height="277.2" width="380.454545" x="-30.6" y="-14.4"/>
  </clipPath>
  <clipPath id="pa63681054c">
   <rect height="277.2" width="380.454545" x="425.945455" y="-14.4"/>
  </clipPath>
 </defs>
</svg>
