<?xml version="1.0" encoding="utf-8" standalone="no"?>
<!DOCTYPE svg PUBLIC "-//W3C//DTD SVG 1.1//EN"
  "http://www.w3.org/Graphics/SVG/1.1/DTD/svg11.dtd">
<!-- Created with matplotlib (https://matplotlib.org/) -->
<svg height="302.4pt" version="1.1" viewBox="0 0 820.8 302.4" width="820.8pt" xmlns="http://www.w3.org/2000/svg" xmlns:xlink="http://www.w3.org/1999/xlink">
 <defs>
  <style type="text/css">
*{stroke-linecap:butt;stroke-linejoin:round;}
  </style>
 </defs>
 <g id="figure_1">
  <g id="patch_1">
   <path d="M 0 302.4 
L 820.8 302.4 
L 820.8 0 
L 0 0 
z
" style="fill:#ffffff;"/>
  </g>
  <g id="patch_2">
   <path d="M -30.6 262.8 
L 349.854545 262.8 
L 349.854545 -14.4 
L -30.6 -14.4 
z
" style="fill:#ffffff;"/>
  </g>
  <g id="pane3d_1">
   <g id="patch_3">
    <path d="M 19.835129 201.548569 
L 128.723211 133.58541 
L 126.910339 3.718968 
L 11.951034 64.782468 
" style="fill:#f2f2f2;opacity:0.5;stroke:#f2f2f2;stroke-linejoin:miter;"/>
   </g>
  </g>
  <g id="pane3d_2">
   <g id="patch_4">
    <path d="M 128.723211 133.58541 
L 305.111665 171.581202 
L 312.491547 37.79869 
L 126.910339 3.718968 
" style="fill:#e6e6e6;opacity:0.5;stroke:#e6e6e6;stroke-linejoin:miter;"/>
   </g>
  </g>
  <g id="pane3d_3">
   <g id="patch_5">
    <path d="M 19.835129 201.548569 
L 205.419617 245.80086 
L 305.111665 171.581202 
L 128.723211 133.58541 
" style="fill:#ececec;opacity:0.5;stroke:#ececec;stroke-linejoin:miter;"/>
   </g>
  </g>
  <g id="axis3d_1">
   <g id="line2d_1">
    <path d="M 19.835129 201.548569 
L 205.419617 245.80086 
" style="fill:none;stroke:#000000;stroke-linecap:square;stroke-width:0.8;"/>
   </g>
   <g id="Line3DCollection_1">
    <path d="M 42.295817 206.90428 
L 150.133942 138.19749 
L 149.393845 7.847789 
" style="fill:none;stroke:#b0b0b0;stroke-width:0.8;"/>
    <path d="M 87.512337 217.686079 
L 193.184014 147.470895 
L 194.636898 16.156123 
" style="fill:none;stroke:#b0b0b0;stroke-width:0.8;"/>
    <path d="M 133.765289 228.715013 
L 237.148096 156.941187 
L 240.890183 24.649974 
" style="fill:none;stroke:#b0b0b0;stroke-width:0.8;"/>
    <path d="M 181.090721 239.999678 
L 282.055608 166.614702 
L 288.187917 33.335625 
" style="fill:none;stroke:#b0b0b0;stroke-width:0.8;"/>
   </g>
   <g id="xtick_1">
    <g id="line2d_2">
     <path d="M 43.225084 206.312217 
L 40.433807 208.09062 
" style="fill:none;stroke:#000000;stroke-linecap:square;stroke-width:0.8;"/>
    </g>
    <g id="text_1">
     <!-- 00 -->
     <defs>
      <path d="M 42 31.84375 
C 42 37.96875 41.90625 48.421875 37.703125 56.453125 
C 34 63.484375 28.09375 66 22.90625 66 
C 18.09375 66 12 63.78125 8.203125 56.5625 
C 4.203125 49.015625 3.796875 39.671875 3.796875 31.84375 
C 3.796875 26.109375 3.90625 17.375 7 9.734375 
C 11.296875 -0.609375 19 -2 22.90625 -2 
C 27.5 -2 34.5 -0.109375 38.59375 9.4375 
C 41.59375 16.375 42 24.5 42 31.84375 
z
M 22.90625 -0.40625 
C 16.5 -0.40625 12.703125 5.125 11.296875 12.75 
C 10.203125 18.6875 10.203125 27.328125 10.203125 32.953125 
C 10.203125 40.6875 10.203125 47.109375 11.5 53.234375 
C 13.40625 61.78125 19 64.390625 22.90625 64.390625 
C 27 64.390625 32.296875 61.671875 34.203125 53.4375 
C 35.5 47.71875 35.59375 40.984375 35.59375 32.953125 
C 35.59375 26.421875 35.59375 18.375 34.40625 12.453125 
C 32.296875 1.5 26.40625 -0.40625 22.90625 -0.40625 
z
" id="CMR17-48"/>
     </defs>
     <g transform="translate(16.108553 247.89009)rotate(-45)scale(0.24 -0.24)">
      <use transform="scale(0.996264)" xlink:href="#CMR17-48"/>
      <use transform="translate(45.690477 0)scale(0.996264)" xlink:href="#CMR17-48"/>
     </g>
    </g>
   </g>
   <g id="xtick_2">
    <g id="line2d_3">
     <path d="M 88.423674 217.080527 
L 85.686217 218.899473 
" style="fill:none;stroke:#000000;stroke-linecap:square;stroke-width:0.8;"/>
    </g>
    <g id="text_2">
     <!-- 01 -->
     <defs>
      <path d="M 26.59375 63.796875 
C 26.59375 65.890625 26.5 66 25.09375 66 
C 21.203125 61.359375 15.296875 59.890625 9.703125 59.6875 
C 9.40625 59.6875 8.90625 59.6875 8.796875 59.5 
C 8.703125 59.296875 8.703125 59.09375 8.703125 57 
C 11.796875 57 17 57.59375 21 59.984375 
L 21 7.296875 
C 21 3.796875 20.796875 2.59375 12.203125 2.59375 
L 9.203125 2.59375 
L 9.203125 0 
C 14 0.09375 19 0.1875 23.796875 0.1875 
C 28.59375 0.1875 33.59375 0.09375 38.40625 0 
L 38.40625 2.59375 
L 35.40625 2.59375 
C 26.796875 2.59375 26.59375 3.6875 26.59375 7.296875 
z
" id="CMR17-49"/>
     </defs>
     <g transform="translate(61.320978 258.846842)rotate(-45)scale(0.24 -0.24)">
      <use transform="scale(0.996264)" xlink:href="#CMR17-48"/>
      <use transform="translate(45.690477 0)scale(0.996264)" xlink:href="#CMR17-49"/>
     </g>
    </g>
   </g>
   <g id="xtick_3">
    <g id="line2d_4">
     <path d="M 134.657625 228.095506 
L 131.977203 229.956397 
" style="fill:none;stroke:#000000;stroke-linecap:square;stroke-width:0.8;"/>
    </g>
    <g id="text_3">
     <!-- 10 -->
     <g transform="translate(107.571591 270.055188)rotate(-45)scale(0.24 -0.24)">
      <use transform="scale(0.996264)" xlink:href="#CMR17-49"/>
      <use transform="translate(45.690477 0)scale(0.996264)" xlink:href="#CMR17-48"/>
     </g>
    </g>
   </g>
   <g id="xtick_4">
    <g id="line2d_5">
     <path d="M 181.962926 239.365727 
L 179.342936 241.270032 
" style="fill:none;stroke:#000000;stroke-linecap:square;stroke-width:0.8;"/>
    </g>
    <g id="text_4">
     <!-- 11 -->
     <g transform="translate(154.896566 281.523893)rotate(-45)scale(0.24 -0.24)">
      <use transform="scale(0.996264)" xlink:href="#CMR17-49"/>
      <use transform="translate(45.690477 0)scale(0.996264)" xlink:href="#CMR17-49"/>
     </g>
    </g>
   </g>
  </g>
  <g id="axis3d_2">
   <g id="line2d_6">
    <path d="M 305.111665 171.581202 
L 205.419617 245.80086 
" style="fill:none;stroke:#000000;stroke-linecap:square;stroke-width:0.8;"/>
   </g>
   <g id="Line3DCollection_2">
    <path d="M 27.455231 56.547028 
L 34.471044 192.413474 
L 218.858418 235.795817 
" style="fill:none;stroke:#b0b0b0;stroke-width:0.8;"/>
    <path d="M 57.232024 40.730342 
L 62.623407 174.842005 
L 244.674037 216.576366 
" style="fill:none;stroke:#b0b0b0;stroke-width:0.8;"/>
    <path d="M 85.85589 25.526062 
L 89.739382 157.917404 
L 269.496985 198.095948 
" style="fill:none;stroke:#b0b0b0;stroke-width:0.8;"/>
    <path d="M 113.392516 10.899296 
L 115.875164 141.604597 
L 293.383438 180.312741 
" style="fill:none;stroke:#b0b0b0;stroke-width:0.8;"/>
   </g>
   <g id="xtick_5">
    <g id="line2d_7">
     <path d="M 217.315598 235.432825 
L 221.947489 236.522608 
" style="fill:none;stroke:#000000;stroke-linecap:square;stroke-width:0.8;"/>
    </g>
    <g id="text_5">
     <!-- 00 -->
     <g transform="translate(233.392289 249.065483)rotate(-337.5)scale(0.24 -0.24)">
      <use transform="scale(0.996264)" xlink:href="#CMR17-48"/>
      <use transform="translate(45.690477 0)scale(0.996264)" xlink:href="#CMR17-48"/>
     </g>
    </g>
   </g>
   <g id="xtick_6">
    <g id="line2d_8">
     <path d="M 243.15208 216.227463 
L 247.72127 217.274932 
" style="fill:none;stroke:#000000;stroke-linecap:square;stroke-width:0.8;"/>
    </g>
    <g id="text_6">
     <!-- 01 -->
     <g transform="translate(258.94584 229.621057)rotate(-337.5)scale(0.24 -0.24)">
      <use transform="scale(0.996264)" xlink:href="#CMR17-48"/>
      <use transform="translate(45.690477 0)scale(0.996264)" xlink:href="#CMR17-49"/>
     </g>
    </g>
   </g>
   <g id="xtick_7">
    <g id="line2d_9">
     <path d="M 267.995442 197.76033 
L 272.503283 198.767901 
" style="fill:none;stroke:#000000;stroke-linecap:square;stroke-width:0.8;"/>
    </g>
    <g id="text_7">
     <!-- 10 -->
     <g transform="translate(283.517252 210.923969)rotate(-337.5)scale(0.24 -0.24)">
      <use transform="scale(0.996264)" xlink:href="#CMR17-49"/>
      <use transform="translate(45.690477 0)scale(0.996264)" xlink:href="#CMR17-48"/>
     </g>
    </g>
   </g>
   <g id="xtick_8">
    <g id="line2d_10">
     <path d="M 291.901865 179.989663 
L 296.349691 180.959573 
" style="fill:none;stroke:#000000;stroke-linecap:square;stroke-width:0.8;"/>
    </g>
    <g id="text_8">
     <!-- 11 -->
     <g transform="translate(307.162078 192.931947)rotate(-337.5)scale(0.24 -0.24)">
      <use transform="scale(0.996264)" xlink:href="#CMR17-49"/>
      <use transform="translate(45.690477 0)scale(0.996264)" xlink:href="#CMR17-49"/>
     </g>
    </g>
   </g>
  </g>
  <g id="axis3d_3">
   <g id="line2d_11">
    <path d="M 305.111665 171.581202 
L 312.491547 37.79869 
" style="fill:none;stroke:#000000;stroke-linecap:square;stroke-width:0.8;"/>
   </g>
   <g id="Line3DCollection_3">
    <path d="M 305.252029 169.036678 
L 128.688656 131.110086 
L 19.685428 198.951687 
" style="fill:none;stroke:#b0b0b0;stroke-width:0.8;"/>
    <path d="M 307.124233 135.09737 
L 128.228039 98.113394 
L 17.687748 164.29776 
" style="fill:none;stroke:#b0b0b0;stroke-width:0.8;"/>
    <path d="M 309.047011 100.241236 
L 127.755508 64.263296 
L 15.634287 128.676195 
" style="fill:none;stroke:#b0b0b0;stroke-width:0.8;"/>
    <path d="M 311.022443 64.430615 
L 127.270596 29.526251 
L 13.522676 92.04589 
" style="fill:none;stroke:#b0b0b0;stroke-width:0.8;"/>
   </g>
   <g id="xtick_9">
    <g id="line2d_12">
     <path d="M 303.77886 168.720235 
L 308.201432 169.670223 
" style="fill:none;stroke:#000000;stroke-linecap:square;stroke-width:0.8;"/>
    </g>
    <g id="text_9">
     <!-- $0.0$ -->
     <defs>
      <path d="M 18.40625 4.796875 
C 18.40625 7.6875 16 9.6875 13.59375 9.6875 
C 10.703125 9.6875 8.703125 7.296875 8.703125 4.890625 
C 8.703125 2 11.09375 0 13.5 0 
C 16.40625 0 18.40625 2.390625 18.40625 4.796875 
z
" id="CMMI12-58"/>
     </defs>
     <g transform="translate(309.562437 183.700174)scale(0.24 -0.24)">
      <use transform="scale(0.996264)" xlink:href="#CMR17-48"/>
      <use transform="translate(45.690477 0)scale(0.996264)" xlink:href="#CMMI12-58"/>
      <use transform="translate(72.787654 0)scale(0.996264)" xlink:href="#CMR17-48"/>
     </g>
    </g>
   </g>
   <g id="xtick_10">
    <g id="line2d_13">
     <path d="M 305.630781 134.788623 
L 310.114285 135.715517 
" style="fill:none;stroke:#000000;stroke-linecap:square;stroke-width:0.8;"/>
    </g>
    <g id="text_10">
     <!-- $0.1$ -->
     <g transform="translate(311.676996 149.808112)scale(0.24 -0.24)">
      <use transform="scale(0.996264)" xlink:href="#CMR17-48"/>
      <use transform="translate(45.690477 0)scale(0.996264)" xlink:href="#CMMI12-58"/>
      <use transform="translate(72.787654 0)scale(0.996264)" xlink:href="#CMR17-49"/>
     </g>
    </g>
   </g>
   <g id="xtick_11">
    <g id="line2d_14">
     <path d="M 307.532711 99.940717 
L 312.078848 100.842914 
" style="fill:none;stroke:#000000;stroke-linecap:square;stroke-width:0.8;"/>
    </g>
    <g id="text_11">
     <!-- $0.2$ -->
     <defs>
      <path d="M 41.703125 15.46875 
L 39.90625 15.46875 
C 38.90625 8.390625 38.09375 7.1875 37.703125 6.59375 
C 37.203125 5.796875 30 5.796875 28.59375 5.796875 
L 9.40625 5.796875 
C 13 9.6875 20 16.765625 28.5 24.9375 
C 34.59375 30.71875 41.703125 37.5 41.703125 47.390625 
C 41.703125 59.1875 32.296875 66 21.796875 66 
C 10.796875 66 4.09375 56.296875 4.09375 47.296875 
C 4.09375 43.390625 7 42.890625 8.203125 42.890625 
C 9.203125 42.890625 12.203125 43.484375 12.203125 46.984375 
C 12.203125 50.09375 9.59375 51 8.203125 51 
C 7.59375 51 7 50.890625 6.59375 50.6875 
C 8.5 59.1875 14.296875 63.390625 20.40625 63.390625 
C 29.09375 63.390625 34.796875 56.5 34.796875 47.390625 
C 34.796875 38.703125 29.703125 31.21875 24 24.734375 
L 4.09375 2.296875 
L 4.09375 0 
L 39.296875 0 
z
" id="CMR17-50"/>
     </defs>
     <g transform="translate(313.848552 115.002496)scale(0.24 -0.24)">
      <use transform="scale(0.996264)" xlink:href="#CMR17-48"/>
      <use transform="translate(45.690477 0)scale(0.996264)" xlink:href="#CMMI12-58"/>
      <use transform="translate(72.787654 0)scale(0.996264)" xlink:href="#CMR17-50"/>
     </g>
    </g>
   </g>
   <g id="xtick_12">
    <g id="line2d_15">
     <path d="M 309.486704 64.138896 
L 314.097246 65.014686 
" style="fill:none;stroke:#000000;stroke-linecap:square;stroke-width:0.8;"/>
    </g>
    <g id="text_12">
     <!-- $0.3$ -->
     <defs>
      <path d="M 22.09375 34 
C 31 34 34.90625 26.140625 34.90625 17.09375 
C 34.90625 5.03125 28.5 0.390625 22.703125 0.390625 
C 17.40625 0.390625 8.796875 3.015625 6.09375 10.796875 
C 6.59375 10.59375 7.09375 10.59375 7.59375 10.59375 
C 10 10.59375 11.796875 12.1875 11.796875 14.796875 
C 11.796875 17.6875 9.59375 19 7.59375 19 
C 5.90625 19 3.296875 18.1875 3.296875 14.484375 
C 3.296875 5.234375 12.296875 -2 22.90625 -2 
C 34 -2 42.5 6.75 42.5 16.984375 
C 42.5 26.84375 34.5 34 25 35.09375 
C 32.59375 36.671875 39.90625 43.375 39.90625 52.390625 
C 39.90625 60.25 32 66 23 66 
C 13.90625 66 5.90625 60.34375 5.90625 52.296875 
C 5.90625 48.796875 8.5 48.1875 9.796875 48.1875 
C 11.90625 48.1875 13.703125 49.484375 13.703125 52.09375 
C 13.703125 54.6875 11.90625 56 9.796875 56 
C 9.40625 56 8.90625 56 8.5 55.796875 
C 11.40625 62.484375 19.296875 63.6875 22.796875 63.6875 
C 26.296875 63.6875 32.90625 61.96875 32.90625 52.296875 
C 32.90625 49.484375 32.5 44.546875 29.09375 40.21875 
C 26.09375 36.390625 22.703125 36.1875 19.40625 35.890625 
C 18.90625 35.890625 16.59375 35.6875 16.203125 35.6875 
C 15.5 35.59375 15.09375 35.5 15.09375 34.796875 
C 15.09375 34.09375 15.203125 34 17.203125 34 
z
" id="CMR17-51"/>
     </defs>
     <g transform="translate(316.079442 79.245885)scale(0.24 -0.24)">
      <use transform="scale(0.996264)" xlink:href="#CMR17-48"/>
      <use transform="translate(45.690477 0)scale(0.996264)" xlink:href="#CMMI12-58"/>
      <use transform="translate(72.787654 0)scale(0.996264)" xlink:href="#CMR17-51"/>
     </g>
    </g>
   </g>
  </g>
  <g id="axes_1">
   <g id="Poly3DCollection_1">
    <path clip-path="url(#pc291fcabd8)" d="M 133.051747 137.476151 
L 133.0372 136.293611 
L 154.433925 140.912 
L 154.438688 142.098609 
z
" style="fill:#5d0618;fill-opacity:0.8;"/>
    <path clip-path="url(#pc291fcabd8)" d="M 120.271134 145.513314 
L 120.250539 144.323714 
L 133.0372 136.293611 
L 133.051747 137.476151 
z
" style="fill:#ba0c2f;fill-opacity:0.8;"/>
    <path clip-path="url(#pc291fcabd8)" d="M 120.271134 145.513314 
L 133.051747 137.476151 
L 154.438688 142.098609 
L 141.786381 150.220613 
z
" style="fill:#74081d;fill-opacity:0.8;"/>
    <path clip-path="url(#pc291fcabd8)" d="M 120.250539 144.323714 
L 141.775687 149.02691 
L 154.433925 140.912 
L 133.0372 136.293611 
z
" style="fill:#a30a29;fill-opacity:0.8;"/>
    <path clip-path="url(#pc291fcabd8)" d="M 141.786381 150.220613 
L 154.438688 142.098609 
L 154.433925 140.912 
L 141.775687 149.02691 
z
" style="fill:#5d0618;fill-opacity:0.8;"/>
    <path clip-path="url(#pc291fcabd8)" d="M 120.271134 145.513314 
L 141.786381 150.220613 
L 141.775687 149.02691 
L 120.250539 144.323714 
z
" style="fill:#ba0c2f;fill-opacity:0.8;"/>
   </g>
   <g id="Poly3DCollection_2">
    <path clip-path="url(#pc291fcabd8)" d="M 176.050954 146.769767 
L 176.047344 147.591715 
L 197.88147 152.315181 
L 197.892125 151.4904 
z
" style="fill:#ba0c2f;fill-opacity:0.8;"/>
    <path clip-path="url(#pc291fcabd8)" d="M 163.530392 154.977964 
L 163.530792 155.804827 
L 176.047344 147.591715 
L 176.050954 146.769767 
z
" style="fill:#5d0618;fill-opacity:0.8;"/>
    <path clip-path="url(#pc291fcabd8)" d="M 163.530792 155.804827 
L 185.500103 160.615888 
L 197.88147 152.315181 
L 176.047344 147.591715 
z
" style="fill:#a30a29;fill-opacity:0.8;"/>
    <path clip-path="url(#pc291fcabd8)" d="M 163.530392 154.977964 
L 176.050954 146.769767 
L 197.892125 151.4904 
L 185.506836 159.786168 
z
" style="fill:#74081d;fill-opacity:0.8;"/>
    <path clip-path="url(#pc291fcabd8)" d="M 185.506836 159.786168 
L 197.892125 151.4904 
L 197.88147 152.315181 
L 185.500103 160.615888 
z
" style="fill:#ba0c2f;fill-opacity:0.8;"/>
    <path clip-path="url(#pc291fcabd8)" d="M 163.530392 154.977964 
L 185.506836 159.786168 
L 185.500103 160.615888 
L 163.530792 155.804827 
z
" style="fill:#5d0618;fill-opacity:0.8;"/>
   </g>
   <g id="Poly3DCollection_3">
    <path clip-path="url(#pc291fcabd8)" d="M 107.255484 153.698282 
L 107.208619 151.610612 
L 128.870771 156.397886 
L 128.900155 158.49278 
z
" style="fill:#5d0618;fill-opacity:0.8;"/>
    <path clip-path="url(#pc291fcabd8)" d="M 93.998253 162.035168 
L 93.94005 159.934965 
L 107.208619 151.610612 
L 107.255484 153.698282 
z
" style="fill:#ba0c2f;fill-opacity:0.8;"/>
    <path clip-path="url(#pc291fcabd8)" d="M 93.998253 162.035168 
L 107.255484 153.698282 
L 128.900155 158.49278 
L 115.773462 166.919311 
z
" style="fill:#74081d;fill-opacity:0.8;"/>
    <path clip-path="url(#pc291fcabd8)" d="M 93.94005 159.934965 
L 115.73295 164.811823 
L 128.870771 156.397886 
L 107.208619 151.610612 
z
" style="fill:#a30a29;fill-opacity:0.8;"/>
    <path clip-path="url(#pc291fcabd8)" d="M 115.773462 166.919311 
L 128.900155 158.49278 
L 128.870771 156.397886 
L 115.73295 164.811823 
z
" style="fill:#5d0618;fill-opacity:0.8;"/>
    <path clip-path="url(#pc291fcabd8)" d="M 93.998253 162.035168 
L 115.773462 166.919311 
L 115.73295 164.811823 
L 93.94005 159.934965 
z
" style="fill:#ba0c2f;fill-opacity:0.8;"/>
   </g>
   <g id="Poly3DCollection_4">
    <path clip-path="url(#pc291fcabd8)" d="M 219.965857 156.261297 
L 220.018422 153.823896 
L 242.350091 158.637422 
L 242.275884 161.083265 
z
" style="fill:#5d0618;fill-opacity:0.8;"/>
    <path clip-path="url(#pc291fcabd8)" d="M 207.719458 164.646045 
L 207.760742 162.193996 
L 220.018422 153.823896 
L 219.965857 156.261297 
z
" style="fill:#ba0c2f;fill-opacity:0.8;"/>
    <path clip-path="url(#pc291fcabd8)" d="M 207.719458 164.646045 
L 219.965857 156.261297 
L 242.275884 161.083265 
L 230.172089 169.558433 
z
" style="fill:#74081d;fill-opacity:0.8;"/>
    <path clip-path="url(#pc291fcabd8)" d="M 207.760742 162.193996 
L 230.235293 167.097872 
L 242.350091 158.637422 
L 220.018422 153.823896 
z
" style="fill:#a30a29;fill-opacity:0.8;"/>
    <path clip-path="url(#pc291fcabd8)" d="M 230.172089 169.558433 
L 242.275884 161.083265 
L 242.350091 158.637422 
L 230.235293 167.097872 
z
" style="fill:#5d0618;fill-opacity:0.8;"/>
    <path clip-path="url(#pc291fcabd8)" d="M 207.719458 164.646045 
L 230.172089 169.558433 
L 230.235293 167.097872 
L 207.760742 162.193996 
z
" style="fill:#ba0c2f;fill-opacity:0.8;"/>
   </g>
   <g id="Poly3DCollection_5">
    <path clip-path="url(#pc291fcabd8)" d="M 150.777105 163.33873 
L 150.765948 161.30347 
L 172.896604 166.194644 
L 172.890093 168.236965 
z
" style="fill:#5d0618;fill-opacity:0.8;"/>
    <path clip-path="url(#pc291fcabd8)" d="M 137.784542 171.856359 
L 137.762823 169.808847 
L 150.765948 161.30347 
L 150.777105 163.33873 
z
" style="fill:#ba0c2f;fill-opacity:0.8;"/>
    <path clip-path="url(#pc291fcabd8)" d="M 137.784542 171.856359 
L 150.777105 163.33873 
L 172.890093 168.236965 
L 160.035349 176.847178 
z
" style="fill:#74081d;fill-opacity:0.8;"/>
    <path clip-path="url(#pc291fcabd8)" d="M 137.762823 169.808847 
L 160.031518 174.792546 
L 172.896604 166.194644 
L 150.765948 161.30347 
z
" style="fill:#a30a29;fill-opacity:0.8;"/>
    <path clip-path="url(#pc291fcabd8)" d="M 160.035349 176.847178 
L 172.890093 168.236965 
L 172.896604 166.194644 
L 160.031518 174.792546 
z
" style="fill:#5d0618;fill-opacity:0.8;"/>
    <path clip-path="url(#pc291fcabd8)" d="M 137.784542 171.856359 
L 160.035349 176.847178 
L 160.031518 174.792546 
L 137.762823 169.808847 
z
" style="fill:#ba0c2f;fill-opacity:0.8;"/>
   </g>
   <g id="Poly3DCollection_6">
    <path clip-path="url(#pc291fcabd8)" d="M 80.492653 170.528244 
L 80.402664 167.81051 
L 102.332548 172.777383 
L 102.399507 175.504569 
z
" style="fill:#5d0618;fill-opacity:0.8;"/>
    <path clip-path="url(#pc291fcabd8)" d="M 66.731637 179.181938 
L 66.625963 176.447806 
L 80.402664 167.81051 
L 80.492653 170.528244 
z
" style="fill:#ba0c2f;fill-opacity:0.8;"/>
    <path clip-path="url(#pc291fcabd8)" d="M 66.731637 179.181938 
L 80.492653 170.528244 
L 102.399507 175.504569 
L 88.771239 184.25308 
z
" style="fill:#74081d;fill-opacity:0.8;"/>
    <path clip-path="url(#pc291fcabd8)" d="M 66.625963 176.447806 
L 88.688871 181.509419 
L 102.332548 172.777383 
L 80.402664 167.81051 
z
" style="fill:#a30a29;fill-opacity:0.8;"/>
    <path clip-path="url(#pc291fcabd8)" d="M 88.771239 184.25308 
L 102.399507 175.504569 
L 102.332548 172.777383 
L 88.688871 181.509419 
z
" style="fill:#5d0618;fill-opacity:0.8;"/>
    <path clip-path="url(#pc291fcabd8)" d="M 66.731637 179.181938 
L 88.771239 184.25308 
L 88.688871 181.509419 
L 66.625963 176.447806 
z
" style="fill:#ba0c2f;fill-opacity:0.8;"/>
   </g>
   <g id="Poly3DCollection_7">
    <path clip-path="url(#pc291fcabd8)" d="M 252.868637 174.524188 
L 264.826022 165.95713 
L 287.620167 170.883733 
L 275.8131 179.544184 
z
" style="fill:#74081d;fill-opacity:0.8;"/>
    <path clip-path="url(#pc291fcabd8)" d="M 264.826022 165.95713 
L 266.771514 116.380161 
L 290.022038 121.129613 
L 287.620167 170.883733 
z
" style="fill:#5d0618;fill-opacity:0.8;"/>
    <path clip-path="url(#pc291fcabd8)" d="M 252.868637 174.524188 
L 254.598065 124.639805 
L 266.771514 116.380161 
L 264.826022 165.95713 
z
" style="fill:#ba0c2f;fill-opacity:0.8;"/>
    <path clip-path="url(#pc291fcabd8)" d="M 275.8131 179.544184 
L 287.620167 170.883733 
L 290.022038 121.129613 
L 278.005075 129.481072 
z
" style="fill:#5d0618;fill-opacity:0.8;"/>
    <path clip-path="url(#pc291fcabd8)" d="M 252.868637 174.524188 
L 275.8131 179.544184 
L 278.005075 129.481072 
L 254.598065 124.639805 
z
" style="fill:#ba0c2f;fill-opacity:0.8;"/>
    <path clip-path="url(#pc291fcabd8)" d="M 254.598065 124.639805 
L 278.005075 129.481072 
L 290.022038 121.129613 
L 266.771514 116.380161 
z
" style="fill:#a30a29;fill-opacity:0.8;"/>
   </g>
   <g id="Poly3DCollection_8">
    <path clip-path="url(#pc291fcabd8)" d="M 240.68412 183.253979 
L 240.758583 180.769953 
L 263.878174 185.877359 
L 263.78052 188.370049 
z
" style="fill:#5d0618;fill-opacity:0.8;"/>
    <path clip-path="url(#pc291fcabd8)" d="M 228.265937 192.151184 
L 228.328817 189.652126 
L 240.758583 180.769953 
L 240.68412 183.253979 
z
" style="fill:#ba0c2f;fill-opacity:0.8;"/>
    <path clip-path="url(#pc291fcabd8)" d="M 228.265937 192.151184 
L 240.68412 183.253979 
L 263.78052 188.370049 
L 251.515903 197.366112 
z
" style="fill:#74081d;fill-opacity:0.8;"/>
    <path clip-path="url(#pc291fcabd8)" d="M 228.328817 189.652126 
L 251.602287 194.858322 
L 263.878174 185.877359 
L 240.758583 180.769953 
z
" style="fill:#a30a29;fill-opacity:0.8;"/>
    <path clip-path="url(#pc291fcabd8)" d="M 251.515903 197.366112 
L 263.78052 188.370049 
L 263.878174 185.877359 
L 251.602287 194.858322 
z
" style="fill:#5d0618;fill-opacity:0.8;"/>
    <path clip-path="url(#pc291fcabd8)" d="M 228.265937 192.151184 
L 251.515903 197.366112 
L 251.602287 194.858322 
L 228.328817 189.652126 
z
" style="fill:#ba0c2f;fill-opacity:0.8;"/>
   </g>
   <g id="Poly3DCollection_9">
    <path clip-path="url(#pc291fcabd8)" d="M 169.573234 190.763642 
L 169.577181 188.689387 
L 192.485203 193.881591 
L 192.462326 195.96309 
z
" style="fill:#5d0618;fill-opacity:0.8;"/>
    <path clip-path="url(#pc291fcabd8)" d="M 156.366146 199.806146 
L 156.359177 197.719323 
L 169.577181 188.689387 
L 169.573234 190.763642 
z
" style="fill:#ba0c2f;fill-opacity:0.8;"/>
    <path clip-path="url(#pc291fcabd8)" d="M 156.366146 199.806146 
L 169.573234 190.763642 
L 192.462326 195.96309 
L 179.403624 205.106891 
z
" style="fill:#74081d;fill-opacity:0.8;"/>
    <path clip-path="url(#pc291fcabd8)" d="M 156.359177 197.719323 
L 179.415831 203.012768 
L 192.485203 193.881591 
L 169.577181 188.689387 
z
" style="fill:#a30a29;fill-opacity:0.8;"/>
    <path clip-path="url(#pc291fcabd8)" d="M 179.403624 205.106891 
L 192.462326 195.96309 
L 192.485203 193.881591 
L 179.415831 203.012768 
z
" style="fill:#5d0618;fill-opacity:0.8;"/>
    <path clip-path="url(#pc291fcabd8)" d="M 156.366146 199.806146 
L 179.403624 205.106891 
L 179.415831 203.012768 
L 156.359177 197.719323 
z
" style="fill:#ba0c2f;fill-opacity:0.8;"/>
   </g>
   <g id="Poly3DCollection_10">
    <path clip-path="url(#pc291fcabd8)" d="M 97.301916 198.395852 
L 97.22768 195.625933 
L 119.924229 200.901123 
L 119.973795 203.680734 
z
" style="fill:#5d0618;fill-opacity:0.8;"/>
    <path clip-path="url(#pc291fcabd8)" d="M 83.281614 207.587244 
L 83.191075 204.80051 
L 97.22768 195.625933 
L 97.301916 198.395852 
z
" style="fill:#ba0c2f;fill-opacity:0.8;"/>
    <path clip-path="url(#pc291fcabd8)" d="M 83.281614 207.587244 
L 97.301916 198.395852 
L 119.973795 203.680734 
L 106.096377 212.975942 
z
" style="fill:#74081d;fill-opacity:0.8;"/>
    <path clip-path="url(#pc291fcabd8)" d="M 83.191075 204.80051 
L 106.030818 210.179442 
L 119.924229 200.901123 
L 97.22768 195.625933 
z
" style="fill:#a30a29;fill-opacity:0.8;"/>
    <path clip-path="url(#pc291fcabd8)" d="M 106.096377 212.975942 
L 119.973795 203.680734 
L 119.924229 200.901123 
L 106.030818 210.179442 
z
" style="fill:#5d0618;fill-opacity:0.8;"/>
    <path clip-path="url(#pc291fcabd8)" d="M 83.281614 207.587244 
L 106.096377 212.975942 
L 106.030818 210.179442 
L 83.191075 204.80051 
z
" style="fill:#ba0c2f;fill-opacity:0.8;"/>
   </g>
   <g id="Poly3DCollection_11">
    <path clip-path="url(#pc291fcabd8)" d="M 111.054142 189.380204 
L 124.545907 180.535308 
L 146.935803 185.62136 
L 133.584397 194.564241 
z
" style="fill:#74081d;fill-opacity:0.8;"/>
    <path clip-path="url(#pc291fcabd8)" d="M 124.545907 180.535308 
L 123.717386 128.314566 
L 146.566416 133.212944 
L 146.935803 185.62136 
z
" style="fill:#5d0618;fill-opacity:0.8;"/>
    <path clip-path="url(#pc291fcabd8)" d="M 111.054142 189.380204 
L 109.936914 136.833801 
L 123.717386 128.314566 
L 124.545907 180.535308 
z
" style="fill:#ba0c2f;fill-opacity:0.8;"/>
    <path clip-path="url(#pc291fcabd8)" d="M 133.584397 194.564241 
L 146.935803 185.62136 
L 146.566416 133.212944 
L 132.93211 141.828527 
z
" style="fill:#5d0618;fill-opacity:0.8;"/>
    <path clip-path="url(#pc291fcabd8)" d="M 111.054142 189.380204 
L 133.584397 194.564241 
L 132.93211 141.828527 
L 109.936914 136.833801 
z
" style="fill:#ba0c2f;fill-opacity:0.8;"/>
    <path clip-path="url(#pc291fcabd8)" d="M 109.936914 136.833801 
L 132.93211 141.828527 
L 146.566416 133.212944 
L 123.717386 128.314566 
z
" style="fill:#a30a29;fill-opacity:0.8;"/>
   </g>
   <g id="Poly3DCollection_12">
    <path clip-path="url(#pc291fcabd8)" d="M 215.607301 201.220664 
L 215.590041 202.074318 
L 238.987125 207.39398 
L 239.012472 206.537345 
z
" style="fill:#ba0c2f;fill-opacity:0.8;"/>
    <path clip-path="url(#pc291fcabd8)" d="M 202.70116 210.467474 
L 202.688156 211.3263 
L 215.590041 202.074318 
L 215.607301 201.220664 
z
" style="fill:#5d0618;fill-opacity:0.8;"/>
    <path clip-path="url(#pc291fcabd8)" d="M 202.688156 211.3263 
L 226.241982 216.750744 
L 238.987125 207.39398 
L 215.590041 202.074318 
z
" style="fill:#a30a29;fill-opacity:0.8;"/>
    <path clip-path="url(#pc291fcabd8)" d="M 202.70116 210.467474 
L 215.607301 201.220664 
L 239.012472 206.537345 
L 226.263183 215.888913 
z
" style="fill:#74081d;fill-opacity:0.8;"/>
    <path clip-path="url(#pc291fcabd8)" d="M 226.263183 215.888913 
L 239.012472 206.537345 
L 238.987125 207.39398 
L 226.241982 216.750744 
z
" style="fill:#ba0c2f;fill-opacity:0.8;"/>
    <path clip-path="url(#pc291fcabd8)" d="M 202.70116 210.467474 
L 226.263183 215.888913 
L 226.241982 216.750744 
L 202.688156 211.3263 
z
" style="fill:#5d0618;fill-opacity:0.8;"/>
   </g>
   <g id="Poly3DCollection_13">
    <path clip-path="url(#pc291fcabd8)" d="M 142.90122 209.025184 
L 142.882303 206.856689 
L 166.089683 212.254122 
L 166.088534 214.430216 
z
" style="fill:#5d0618;fill-opacity:0.8;"/>
    <path clip-path="url(#pc291fcabd8)" d="M 129.17083 218.425978 
L 129.139731 216.244301 
L 142.882303 206.856689 
L 142.90122 209.025184 
z
" style="fill:#ba0c2f;fill-opacity:0.8;"/>
    <path clip-path="url(#pc291fcabd8)" d="M 129.17083 218.425978 
L 142.90122 209.025184 
L 166.088534 214.430216 
L 152.509433 223.938404 
z
" style="fill:#74081d;fill-opacity:0.8;"/>
    <path clip-path="url(#pc291fcabd8)" d="M 129.139731 216.244301 
L 152.498662 221.749072 
L 166.089683 212.254122 
L 142.882303 206.856689 
z
" style="fill:#a30a29;fill-opacity:0.8;"/>
    <path clip-path="url(#pc291fcabd8)" d="M 152.509433 223.938404 
L 166.088534 214.430216 
L 166.089683 212.254122 
L 152.498662 221.749072 
z
" style="fill:#5d0618;fill-opacity:0.8;"/>
    <path clip-path="url(#pc291fcabd8)" d="M 129.17083 218.425978 
L 152.509433 223.938404 
L 152.498662 221.749072 
L 129.139731 216.244301 
z
" style="fill:#ba0c2f;fill-opacity:0.8;"/>
   </g>
   <g id="Poly3DCollection_14">
    <path clip-path="url(#pc291fcabd8)" d="M 182.529819 181.892649 
L 195.242961 173.188335 
L 217.839633 178.19371 
L 205.271977 186.993677 
z
" style="fill:#74081d;fill-opacity:0.8;"/>
    <path clip-path="url(#pc291fcabd8)" d="M 195.242961 173.188335 
L 196.66695 54.382505 
L 220.333664 58.944744 
L 217.839633 178.19371 
z
" style="fill:#5d0618;fill-opacity:0.8;"/>
    <path clip-path="url(#pc291fcabd8)" d="M 182.529819 181.892649 
L 183.367998 62.317704 
L 196.66695 54.382505 
L 195.242961 173.188335 
z
" style="fill:#ba0c2f;fill-opacity:0.8;"/>
    <path clip-path="url(#pc291fcabd8)" d="M 205.271977 186.993677 
L 217.839633 178.19371 
L 220.333664 58.944744 
L 207.194414 66.971275 
z
" style="fill:#5d0618;fill-opacity:0.8;"/>
    <path clip-path="url(#pc291fcabd8)" d="M 182.529819 181.892649 
L 205.271977 186.993677 
L 207.194414 66.971275 
L 183.367998 62.317704 
z
" style="fill:#ba0c2f;fill-opacity:0.8;"/>
    <path clip-path="url(#pc291fcabd8)" d="M 183.367998 62.317704 
L 207.194414 66.971275 
L 220.333664 58.944744 
L 196.66695 54.382505 
z
" style="fill:#a30a29;fill-opacity:0.8;"/>
   </g>
   <g id="Poly3DCollection_15">
    <path clip-path="url(#pc291fcabd8)" d="M 189.540183 219.896865 
L 189.552607 218.645114 
L 213.285172 224.17005 
L 213.260712 225.42619 
z
" style="fill:#5d0618;fill-opacity:0.8;"/>
    <path clip-path="url(#pc291fcabd8)" d="M 176.116748 229.514298 
L 176.122496 228.254932 
L 189.552607 218.645114 
L 189.540183 219.896865 
z
" style="fill:#ba0c2f;fill-opacity:0.8;"/>
    <path clip-path="url(#pc291fcabd8)" d="M 176.116748 229.514298 
L 189.540183 219.896865 
L 213.260712 225.42619 
L 199.997442 235.154762 
z
" style="fill:#74081d;fill-opacity:0.8;"/>
    <path clip-path="url(#pc291fcabd8)" d="M 176.122496 228.254932 
L 200.015391 233.890974 
L 213.285172 224.17005 
L 189.552607 218.645114 
z
" style="fill:#a30a29;fill-opacity:0.8;"/>
    <path clip-path="url(#pc291fcabd8)" d="M 199.997442 235.154762 
L 213.260712 225.42619 
L 213.285172 224.17005 
L 200.015391 233.890974 
z
" style="fill:#5d0618;fill-opacity:0.8;"/>
    <path clip-path="url(#pc291fcabd8)" d="M 176.116748 229.514298 
L 199.997442 235.154762 
L 200.015391 233.890974 
L 176.122496 228.254932 
z
" style="fill:#ba0c2f;fill-opacity:0.8;"/>
   </g>
   <g id="Poly3DCollection_16">
    <path clip-path="url(#pc291fcabd8)" d="M 25.579898 198.334202 
L 203.736081 240.609706 
L 299.718258 169.616378 
L 130.053112 133.100926 
z
" style="fill-opacity:0.15;"/>
   </g>
   <g id="Poly3DCollection_17">
    <path clip-path="url(#pc291fcabd8)" d="M 38.413819 196.989763 
L 52.707891 188.000852 
L 74.881333 193.169547 
L 60.722182 202.258853 
z
" style="fill:#74081d;fill-opacity:0.8;"/>
    <path clip-path="url(#pc291fcabd8)" d="M 52.707891 188.000852 
L 46.933544 57.750519 
L 70.222556 62.427839 
L 74.881333 193.169547 
z
" style="fill:#5d0618;fill-opacity:0.8;"/>
    <path clip-path="url(#pc291fcabd8)" d="M 38.413819 196.989763 
L 31.836896 65.886594 
L 46.933544 57.750519 
L 52.707891 188.000852 
z
" style="fill:#ba0c2f;fill-opacity:0.8;"/>
    <path clip-path="url(#pc291fcabd8)" d="M 60.722182 202.258853 
L 74.881333 193.169547 
L 70.222556 62.427839 
L 55.274545 70.659531 
z
" style="fill:#5d0618;fill-opacity:0.8;"/>
    <path clip-path="url(#pc291fcabd8)" d="M 38.413819 196.989763 
L 60.722182 202.258853 
L 55.274545 70.659531 
L 31.836896 65.886594 
z
" style="fill:#ba0c2f;fill-opacity:0.8;"/>
    <path clip-path="url(#pc291fcabd8)" d="M 31.836896 65.886594 
L 55.274545 70.659531 
L 70.222556 62.427839 
L 46.933544 57.750519 
z
" style="fill:#a30a29;fill-opacity:0.8;"/>
   </g>
  </g>
  <g id="patch_6">
   <path d="M 425.945455 262.8 
L 806.4 262.8 
L 806.4 -14.4 
L 425.945455 -14.4 
z
" style="fill:#ffffff;"/>
  </g>
  <g id="pane3d_4">
   <g id="patch_7">
    <path d="M 476.380584 201.548569 
L 585.268665 133.58541 
L 583.455794 3.718968 
L 468.496488 64.782468 
" style="fill:#f2f2f2;opacity:0.5;stroke:#f2f2f2;stroke-linejoin:miter;"/>
   </g>
  </g>
  <g id="pane3d_5">
   <g id="patch_8">
    <path d="M 585.268665 133.58541 
L 761.65712 171.581202 
L 769.037001 37.79869 
L 583.455794 3.718968 
" style="fill:#e6e6e6;opacity:0.5;stroke:#e6e6e6;stroke-linejoin:miter;"/>
   </g>
  </g>
  <g id="pane3d_6">
   <g id="patch_9">
    <path d="M 476.380584 201.548569 
L 661.965072 245.80086 
L 761.65712 171.581202 
L 585.268665 133.58541 
" style="fill:#ececec;opacity:0.5;stroke:#ececec;stroke-linejoin:miter;"/>
   </g>
  </g>
  <g id="axis3d_4">
   <g id="line2d_16">
    <path d="M 476.380584 201.548569 
L 661.965072 245.80086 
" style="fill:none;stroke:#000000;stroke-linecap:square;stroke-width:0.8;"/>
   </g>
   <g id="Line3DCollection_4">
    <path d="M 498.841271 206.90428 
L 606.679397 138.19749 
L 605.9393 7.847789 
" style="fill:none;stroke:#b0b0b0;stroke-width:0.8;"/>
    <path d="M 544.057792 217.686079 
L 649.729469 147.470895 
L 651.182353 16.156123 
" style="fill:none;stroke:#b0b0b0;stroke-width:0.8;"/>
    <path d="M 590.310744 228.715013 
L 693.693551 156.941187 
L 697.435637 24.649974 
" style="fill:none;stroke:#b0b0b0;stroke-width:0.8;"/>
    <path d="M 637.636176 239.999678 
L 738.601063 166.614702 
L 744.733372 33.335625 
" style="fill:none;stroke:#b0b0b0;stroke-width:0.8;"/>
   </g>
   <g id="xtick_13">
    <g id="line2d_17">
     <path d="M 499.770538 206.312217 
L 496.979262 208.09062 
" style="fill:none;stroke:#000000;stroke-linecap:square;stroke-width:0.8;"/>
    </g>
    <g id="text_13">
     <!-- 00 -->
     <g transform="translate(472.654007 247.89009)rotate(-45)scale(0.24 -0.24)">
      <use transform="scale(0.996264)" xlink:href="#CMR17-48"/>
      <use transform="translate(45.690477 0)scale(0.996264)" xlink:href="#CMR17-48"/>
     </g>
    </g>
   </g>
   <g id="xtick_14">
    <g id="line2d_18">
     <path d="M 544.969128 217.080527 
L 542.231671 218.899473 
" style="fill:none;stroke:#000000;stroke-linecap:square;stroke-width:0.8;"/>
    </g>
    <g id="text_14">
     <!-- 01 -->
     <g transform="translate(517.866433 258.846842)rotate(-45)scale(0.24 -0.24)">
      <use transform="scale(0.996264)" xlink:href="#CMR17-48"/>
      <use transform="translate(45.690477 0)scale(0.996264)" xlink:href="#CMR17-49"/>
     </g>
    </g>
   </g>
   <g id="xtick_15">
    <g id="line2d_19">
     <path d="M 591.20308 228.095506 
L 588.522658 229.956397 
" style="fill:none;stroke:#000000;stroke-linecap:square;stroke-width:0.8;"/>
    </g>
    <g id="text_15">
     <!-- 10 -->
     <g transform="translate(564.117045 270.055188)rotate(-45)scale(0.24 -0.24)">
      <use transform="scale(0.996264)" xlink:href="#CMR17-49"/>
      <use transform="translate(45.690477 0)scale(0.996264)" xlink:href="#CMR17-48"/>
     </g>
    </g>
   </g>
   <g id="xtick_16">
    <g id="line2d_20">
     <path d="M 638.50838 239.365727 
L 635.888391 241.270032 
" style="fill:none;stroke:#000000;stroke-linecap:square;stroke-width:0.8;"/>
    </g>
    <g id="text_16">
     <!-- 11 -->
     <g transform="translate(611.44202 281.523893)rotate(-45)scale(0.24 -0.24)">
      <use transform="scale(0.996264)" xlink:href="#CMR17-49"/>
      <use transform="translate(45.690477 0)scale(0.996264)" xlink:href="#CMR17-49"/>
     </g>
    </g>
   </g>
  </g>
  <g id="axis3d_5">
   <g id="line2d_21">
    <path d="M 761.65712 171.581202 
L 661.965072 245.80086 
" style="fill:none;stroke:#000000;stroke-linecap:square;stroke-width:0.8;"/>
   </g>
   <g id="Line3DCollection_5">
    <path d="M 484.000685 56.547028 
L 491.016499 192.413474 
L 675.403872 235.795817 
" style="fill:none;stroke:#b0b0b0;stroke-width:0.8;"/>
    <path d="M 513.777478 40.730342 
L 519.168861 174.842005 
L 701.219492 216.576366 
" style="fill:none;stroke:#b0b0b0;stroke-width:0.8;"/>
    <path d="M 542.401344 25.526062 
L 546.284836 157.917404 
L 726.04244 198.095948 
" style="fill:none;stroke:#b0b0b0;stroke-width:0.8;"/>
    <path d="M 569.937971 10.899296 
L 572.420618 141.604597 
L 749.928893 180.312741 
" style="fill:none;stroke:#b0b0b0;stroke-width:0.8;"/>
   </g>
   <g id="xtick_17">
    <g id="line2d_22">
     <path d="M 673.861052 235.432825 
L 678.492943 236.522608 
" style="fill:none;stroke:#000000;stroke-linecap:square;stroke-width:0.8;"/>
    </g>
    <g id="text_17">
     <!-- 00 -->
     <g transform="translate(689.937743 249.065483)rotate(-337.5)scale(0.24 -0.24)">
      <use transform="scale(0.996264)" xlink:href="#CMR17-48"/>
      <use transform="translate(45.690477 0)scale(0.996264)" xlink:href="#CMR17-48"/>
     </g>
    </g>
   </g>
   <g id="xtick_18">
    <g id="line2d_23">
     <path d="M 699.697534 216.227463 
L 704.266725 217.274932 
" style="fill:none;stroke:#000000;stroke-linecap:square;stroke-width:0.8;"/>
    </g>
    <g id="text_18">
     <!-- 01 -->
     <g transform="translate(715.491295 229.621057)rotate(-337.5)scale(0.24 -0.24)">
      <use transform="scale(0.996264)" xlink:href="#CMR17-48"/>
      <use transform="translate(45.690477 0)scale(0.996264)" xlink:href="#CMR17-49"/>
     </g>
    </g>
   </g>
   <g id="xtick_19">
    <g id="line2d_24">
     <path d="M 724.540896 197.76033 
L 729.048738 198.767901 
" style="fill:none;stroke:#000000;stroke-linecap:square;stroke-width:0.8;"/>
    </g>
    <g id="text_19">
     <!-- 10 -->
     <g transform="translate(740.062706 210.923969)rotate(-337.5)scale(0.24 -0.24)">
      <use transform="scale(0.996264)" xlink:href="#CMR17-49"/>
      <use transform="translate(45.690477 0)scale(0.996264)" xlink:href="#CMR17-48"/>
     </g>
    </g>
   </g>
   <g id="xtick_20">
    <g id="line2d_25">
     <path d="M 748.44732 179.989663 
L 752.895146 180.959573 
" style="fill:none;stroke:#000000;stroke-linecap:square;stroke-width:0.8;"/>
    </g>
    <g id="text_20">
     <!-- 11 -->
     <g transform="translate(763.707533 192.931947)rotate(-337.5)scale(0.24 -0.24)">
      <use transform="scale(0.996264)" xlink:href="#CMR17-49"/>
      <use transform="translate(45.690477 0)scale(0.996264)" xlink:href="#CMR17-49"/>
     </g>
    </g>
   </g>
  </g>
  <g id="axis3d_6">
   <g id="line2d_26">
    <path d="M 761.65712 171.581202 
L 769.037001 37.79869 
" style="fill:none;stroke:#000000;stroke-linecap:square;stroke-width:0.8;"/>
   </g>
   <g id="Line3DCollection_6">
    <path d="M 762.450385 157.200879 
L 585.07342 119.598864 
L 475.534421 186.87011 
" style="fill:none;stroke:#b0b0b0;stroke-width:0.8;"/>
    <path d="M 764.155848 126.284243 
L 584.653967 89.551005 
L 473.714174 155.294116 
" style="fill:none;stroke:#b0b0b0;stroke-width:0.8;"/>
    <path d="M 765.903032 94.611288 
L 584.22469 58.799446 
L 471.847895 122.919617 
" style="fill:none;stroke:#b0b0b0;stroke-width:0.8;"/>
    <path d="M 767.693487 62.153916 
L 583.785241 27.319174 
L 469.933817 89.715936 
" style="fill:none;stroke:#b0b0b0;stroke-width:0.8;"/>
   </g>
   <g id="xtick_21">
    <g id="line2d_27">
     <path d="M 760.970145 156.887084 
L 765.41396 157.829125 
" style="fill:none;stroke:#000000;stroke-linecap:square;stroke-width:0.8;"/>
    </g>
    <g id="text_21">
     <!-- $0.0$ -->
     <g transform="translate(766.845324 171.880633)scale(0.24 -0.24)">
      <use transform="scale(0.996264)" xlink:href="#CMR17-48"/>
      <use transform="translate(45.690477 0)scale(0.996264)" xlink:href="#CMMI12-58"/>
      <use transform="translate(72.787654 0)scale(0.996264)" xlink:href="#CMR17-48"/>
     </g>
    </g>
   </g>
   <g id="xtick_22">
    <g id="line2d_28">
     <path d="M 762.657127 125.977545 
L 767.156462 126.898288 
" style="fill:none;stroke:#000000;stroke-linecap:square;stroke-width:0.8;"/>
    </g>
    <g id="text_22">
     <!-- $0.1$ -->
     <g transform="translate(768.771525 141.007567)scale(0.24 -0.24)">
      <use transform="scale(0.996264)" xlink:href="#CMR17-48"/>
      <use transform="translate(45.690477 0)scale(0.996264)" xlink:href="#CMMI12-58"/>
      <use transform="translate(72.787654 0)scale(0.996264)" xlink:href="#CMR17-49"/>
     </g>
    </g>
   </g>
   <g id="xtick_23">
    <g id="line2d_29">
     <path d="M 764.385363 94.312129 
L 768.941621 95.210244 
" style="fill:none;stroke:#000000;stroke-linecap:square;stroke-width:0.8;"/>
    </g>
    <g id="text_23">
     <!-- $0.2$ -->
     <g transform="translate(770.744744 109.380898)scale(0.24 -0.24)">
      <use transform="scale(0.996264)" xlink:href="#CMR17-48"/>
      <use transform="translate(45.690477 0)scale(0.996264)" xlink:href="#CMMI12-58"/>
      <use transform="translate(72.787654 0)scale(0.996264)" xlink:href="#CMR17-50"/>
     </g>
    </g>
   </g>
   <g id="xtick_24">
    <g id="line2d_30">
     <path d="M 766.156385 61.862767 
L 770.771024 62.736843 
" style="fill:none;stroke:#000000;stroke-linecap:square;stroke-width:0.8;"/>
    </g>
    <g id="text_24">
     <!-- $0.3$ -->
     <g transform="translate(772.766724 76.972692)scale(0.24 -0.24)">
      <use transform="scale(0.996264)" xlink:href="#CMR17-48"/>
      <use transform="translate(45.690477 0)scale(0.996264)" xlink:href="#CMMI12-58"/>
      <use transform="translate(72.787654 0)scale(0.996264)" xlink:href="#CMR17-51"/>
     </g>
    </g>
   </g>
  </g>
  <g id="axes_2">
   <g id="Poly3DCollection_18">
    <path clip-path="url(#p391b78dc25)" d="M 589.454912 125.909435 
L 589.446042 125.188412 
L 610.934652 129.768317 
L 610.937556 130.491854 
z
" style="fill:#065d4c;fill-opacity:0.8;"/>
    <path clip-path="url(#p391b78dc25)" d="M 576.615134 133.87712 
L 576.602576 133.151734 
L 589.446042 125.188412 
L 589.454912 125.909435 
z
" style="fill:#0cba97;fill-opacity:0.8;"/>
    <path clip-path="url(#p391b78dc25)" d="M 576.615134 133.87712 
L 589.454912 125.909435 
L 610.937556 130.491854 
L 598.227235 138.54403 
z
" style="fill:#08745e;fill-opacity:0.8;"/>
    <path clip-path="url(#p391b78dc25)" d="M 576.602576 133.151734 
L 598.220714 137.816107 
L 610.934652 129.768317 
L 589.446042 125.188412 
z
" style="fill:#0aa384;fill-opacity:0.8;"/>
    <path clip-path="url(#p391b78dc25)" d="M 598.227235 138.54403 
L 610.937556 130.491854 
L 610.934652 129.768317 
L 598.220714 137.816107 
z
" style="fill:#065d4c;fill-opacity:0.8;"/>
    <path clip-path="url(#p391b78dc25)" d="M 576.615134 133.87712 
L 598.227235 138.54403 
L 598.220714 137.816107 
L 576.602576 133.151734 
z
" style="fill:#0cba97;fill-opacity:0.8;"/>
   </g>
   <g id="Poly3DCollection_19">
    <path clip-path="url(#p391b78dc25)" d="M 632.64756 135.122771 
L 632.661428 131.965139 
L 654.629484 136.634266 
L 654.588552 139.802959 
z
" style="fill:#065d4c;fill-opacity:0.8;"/>
    <path clip-path="url(#p391b78dc25)" d="M 620.070181 143.260787 
L 620.068645 140.083961 
L 632.661428 131.965139 
L 632.64756 135.122771 
z
" style="fill:#0cba97;fill-opacity:0.8;"/>
    <path clip-path="url(#p391b78dc25)" d="M 620.070181 143.260787 
L 632.64756 135.122771 
L 654.588552 139.802959 
L 642.147692 148.028197 
z
" style="fill:#08745e;fill-opacity:0.8;"/>
    <path clip-path="url(#p391b78dc25)" d="M 620.068645 140.083961 
L 642.173558 144.840211 
L 654.629484 136.634266 
L 632.661428 131.965139 
z
" style="fill:#0aa384;fill-opacity:0.8;"/>
    <path clip-path="url(#p391b78dc25)" d="M 642.147692 148.028197 
L 654.588552 139.802959 
L 654.629484 136.634266 
L 642.173558 144.840211 
z
" style="fill:#065d4c;fill-opacity:0.8;"/>
    <path clip-path="url(#p391b78dc25)" d="M 620.070181 143.260787 
L 642.147692 148.028197 
L 642.173558 144.840211 
L 620.068645 140.083961 
z
" style="fill:#0cba97;fill-opacity:0.8;"/>
   </g>
   <g id="Poly3DCollection_20">
    <path clip-path="url(#p391b78dc25)" d="M 563.538152 141.992002 
L 563.272954 130.178255 
L 585.114555 134.890318 
L 585.280842 146.745759 
z
" style="fill:#065d4c;fill-opacity:0.8;"/>
    <path clip-path="url(#p391b78dc25)" d="M 550.217333 150.258196 
L 549.887933 138.372096 
L 563.272954 130.178255 
L 563.538152 141.992002 
z
" style="fill:#0cba97;fill-opacity:0.8;"/>
    <path clip-path="url(#p391b78dc25)" d="M 550.217333 150.258196 
L 563.538152 141.992002 
L 585.280842 146.745759 
L 572.09174 155.10125 
z
" style="fill:#08745e;fill-opacity:0.8;"/>
    <path clip-path="url(#p391b78dc25)" d="M 549.887933 138.372096 
L 571.862447 143.173084 
L 585.114555 134.890318 
L 563.272954 130.178255 
z
" style="fill:#0aa384;fill-opacity:0.8;"/>
    <path clip-path="url(#p391b78dc25)" d="M 572.09174 155.10125 
L 585.280842 146.745759 
L 585.114555 134.890318 
L 571.862447 143.173084 
z
" style="fill:#065d4c;fill-opacity:0.8;"/>
    <path clip-path="url(#p391b78dc25)" d="M 550.217333 150.258196 
L 572.09174 155.10125 
L 571.862447 143.173084 
L 549.887933 138.372096 
z
" style="fill:#0cba97;fill-opacity:0.8;"/>
   </g>
   <g id="Poly3DCollection_21">
    <path clip-path="url(#p391b78dc25)" d="M 676.764239 144.533209 
L 676.860508 140.069297 
L 699.314317 144.834718 
L 699.178406 149.31433 
z
" style="fill:#065d4c;fill-opacity:0.8;"/>
    <path clip-path="url(#p391b78dc25)" d="M 664.463565 152.847078 
L 664.53918 148.355923 
L 676.860508 140.069297 
L 676.764239 144.533209 
z
" style="fill:#0cba97;fill-opacity:0.8;"/>
    <path clip-path="url(#p391b78dc25)" d="M 664.463565 152.847078 
L 676.764239 144.533209 
L 699.178406 149.31433 
L 687.021683 157.71827 
z
" style="fill:#08745e;fill-opacity:0.8;"/>
    <path clip-path="url(#p391b78dc25)" d="M 664.53918 148.355923 
L 687.137454 153.211278 
L 699.314317 144.834718 
L 676.860508 140.069297 
z
" style="fill:#0aa384;fill-opacity:0.8;"/>
    <path clip-path="url(#p391b78dc25)" d="M 687.021683 157.71827 
L 699.178406 149.31433 
L 699.314317 144.834718 
L 687.137454 153.211278 
z
" style="fill:#065d4c;fill-opacity:0.8;"/>
    <path clip-path="url(#p391b78dc25)" d="M 664.463565 152.847078 
L 687.021683 157.71827 
L 687.137454 153.211278 
L 664.53918 148.355923 
z
" style="fill:#0cba97;fill-opacity:0.8;"/>
   </g>
   <g id="Poly3DCollection_22">
    <path clip-path="url(#p391b78dc25)" d="M 607.257941 151.550768 
L 607.251148 150.311623 
L 629.477224 155.164356 
L 629.47326 156.40786 
z
" style="fill:#065d4c;fill-opacity:0.8;"/>
    <path clip-path="url(#p391b78dc25)" d="M 594.204199 159.997008 
L 594.190975 158.7503 
L 607.251148 150.311623 
L 607.257941 151.550768 
z
" style="fill:#0cba97;fill-opacity:0.8;"/>
    <path clip-path="url(#p391b78dc25)" d="M 594.204199 159.997008 
L 607.257941 151.550768 
L 629.47326 156.40786 
L 616.558617 164.946337 
z
" style="fill:#08745e;fill-opacity:0.8;"/>
    <path clip-path="url(#p391b78dc25)" d="M 594.190975 158.7503 
L 616.556284 163.695232 
L 629.477224 155.164356 
L 607.251148 150.311623 
z
" style="fill:#0aa384;fill-opacity:0.8;"/>
    <path clip-path="url(#p391b78dc25)" d="M 616.558617 164.946337 
L 629.47326 156.40786 
L 629.477224 155.164356 
L 616.556284 163.695232 
z
" style="fill:#065d4c;fill-opacity:0.8;"/>
    <path clip-path="url(#p391b78dc25)" d="M 594.204199 159.997008 
L 616.558617 164.946337 
L 616.556284 163.695232 
L 594.190975 158.7503 
z
" style="fill:#0cba97;fill-opacity:0.8;"/>
   </g>
   <g id="Poly3DCollection_23">
    <path clip-path="url(#p391b78dc25)" d="M 721.834922 154.147145 
L 721.834922 154.147145 
L 744.737737 159.032497 
L 744.737737 159.032497 
z
" style="fill:#065d4c;fill-opacity:0.8;"/>
    <path clip-path="url(#p391b78dc25)" d="M 709.82601 162.642628 
L 709.82601 162.642628 
L 721.834922 154.147145 
L 721.834922 154.147145 
z
" style="fill:#065d4c;fill-opacity:0.8;"/>
    <path clip-path="url(#p391b78dc25)" d="M 709.82601 162.642628 
L 721.834922 154.147145 
L 744.737737 159.032497 
L 732.880601 167.621028 
z
" style="fill:#08745e;fill-opacity:0.8;"/>
    <path clip-path="url(#p391b78dc25)" d="M 709.82601 162.642628 
L 732.880601 167.621028 
L 744.737737 159.032497 
L 721.834922 154.147145 
z
" style="fill:#0aa384;fill-opacity:0.8;"/>
    <path clip-path="url(#p391b78dc25)" d="M 732.880601 167.621028 
L 744.737737 159.032497 
L 744.737737 159.032497 
L 732.880601 167.621028 
z
" style="fill:#065d4c;fill-opacity:0.8;"/>
    <path clip-path="url(#p391b78dc25)" d="M 709.82601 162.642628 
L 732.880601 167.621028 
L 732.880601 167.621028 
L 709.82601 162.642628 
z
" style="fill:#065d4c;fill-opacity:0.8;"/>
   </g>
   <g id="Poly3DCollection_24">
    <path clip-path="url(#p391b78dc25)" d="M 536.64579 158.679976 
L 536.478084 153.615147 
L 558.528244 158.532139 
L 558.653038 163.614865 
z
" style="fill:#065d4c;fill-opacity:0.8;"/>
    <path clip-path="url(#p391b78dc25)" d="M 522.816379 167.261775 
L 522.619424 162.165892 
L 536.478084 153.615147 
L 536.64579 158.679976 
z
" style="fill:#0cba97;fill-opacity:0.8;"/>
    <path clip-path="url(#p391b78dc25)" d="M 522.816379 167.261775 
L 536.64579 158.679976 
L 558.653038 163.614865 
L 544.957583 172.291137 
z
" style="fill:#08745e;fill-opacity:0.8;"/>
    <path clip-path="url(#p391b78dc25)" d="M 522.619424 162.165892 
L 544.804058 167.177205 
L 558.528244 158.532139 
L 536.478084 153.615147 
z
" style="fill:#0aa384;fill-opacity:0.8;"/>
    <path clip-path="url(#p391b78dc25)" d="M 544.957583 172.291137 
L 558.653038 163.614865 
L 558.528244 158.532139 
L 544.804058 167.177205 
z
" style="fill:#065d4c;fill-opacity:0.8;"/>
    <path clip-path="url(#p391b78dc25)" d="M 522.816379 167.261775 
L 544.957583 172.291137 
L 544.804058 167.177205 
L 522.619424 162.165892 
z
" style="fill:#0cba97;fill-opacity:0.8;"/>
   </g>
   <g id="Poly3DCollection_25">
    <path clip-path="url(#p391b78dc25)" d="M 651.930693 161.317887 
L 651.930693 161.317887 
L 674.634221 166.281719 
L 674.634221 166.281719 
z
" style="fill:#065d4c;fill-opacity:0.8;"/>
    <path clip-path="url(#p391b78dc25)" d="M 639.158987 169.950121 
L 639.158987 169.950121 
L 651.930693 161.317887 
L 651.930693 161.317887 
z
" style="fill:#065d4c;fill-opacity:0.8;"/>
    <path clip-path="url(#p391b78dc25)" d="M 639.158987 169.950121 
L 651.930693 161.317887 
L 674.634221 166.281719 
L 662.00939 175.009262 
z
" style="fill:#08745e;fill-opacity:0.8;"/>
    <path clip-path="url(#p391b78dc25)" d="M 639.158987 169.950121 
L 662.00939 175.009262 
L 674.634221 166.281719 
L 651.930693 161.317887 
z
" style="fill:#0aa384;fill-opacity:0.8;"/>
    <path clip-path="url(#p391b78dc25)" d="M 662.00939 175.009262 
L 674.634221 166.281719 
L 674.634221 166.281719 
L 662.00939 175.009262 
z
" style="fill:#065d4c;fill-opacity:0.8;"/>
    <path clip-path="url(#p391b78dc25)" d="M 639.158987 169.950121 
L 662.00939 175.009262 
L 662.00939 175.009262 
L 639.158987 169.950121 
z
" style="fill:#065d4c;fill-opacity:0.8;"/>
   </g>
   <g id="Poly3DCollection_26">
    <path clip-path="url(#p391b78dc25)" d="M 580.902062 168.60397 
L 580.902062 168.60397 
L 603.396868 173.648188 
L 603.396868 173.648188 
z
" style="fill:#065d4c;fill-opacity:0.8;"/>
    <path clip-path="url(#p391b78dc25)" d="M 567.344372 177.376283 
L 567.344372 177.376283 
L 580.902062 168.60397 
L 580.902062 168.60397 
z
" style="fill:#065d4c;fill-opacity:0.8;"/>
    <path clip-path="url(#p391b78dc25)" d="M 567.344372 177.376283 
L 580.902062 168.60397 
L 603.396868 173.648188 
L 589.980854 182.518146 
z
" style="fill:#08745e;fill-opacity:0.8;"/>
    <path clip-path="url(#p391b78dc25)" d="M 567.344372 177.376283 
L 589.980854 182.518146 
L 603.396868 173.648188 
L 580.902062 168.60397 
z
" style="fill:#0aa384;fill-opacity:0.8;"/>
    <path clip-path="url(#p391b78dc25)" d="M 589.980854 182.518146 
L 603.396868 173.648188 
L 603.396868 173.648188 
L 589.980854 182.518146 
z
" style="fill:#065d4c;fill-opacity:0.8;"/>
    <path clip-path="url(#p391b78dc25)" d="M 567.344372 177.376283 
L 589.980854 182.518146 
L 589.980854 182.518146 
L 567.344372 177.376283 
z
" style="fill:#065d4c;fill-opacity:0.8;"/>
   </g>
   <g id="Poly3DCollection_27">
    <path clip-path="url(#p391b78dc25)" d="M 697.587911 171.300246 
L 697.451982 175.834687 
L 720.617651 180.9248 
L 720.795919 176.374377 
z
" style="fill:#0cba97;fill-opacity:0.8;"/>
    <path clip-path="url(#p391b78dc25)" d="M 685.113999 180.124686 
L 684.999207 184.686856 
L 697.451982 175.834687 
L 697.587911 171.300246 
z
" style="fill:#065d4c;fill-opacity:0.8;"/>
    <path clip-path="url(#p391b78dc25)" d="M 684.999207 184.686856 
L 708.319376 189.87562 
L 720.617651 180.9248 
L 697.451982 175.834687 
z
" style="fill:#0aa384;fill-opacity:0.8;"/>
    <path clip-path="url(#p391b78dc25)" d="M 685.113999 180.124686 
L 697.587911 171.300246 
L 720.795919 176.374377 
L 708.477079 185.297335 
z
" style="fill:#08745e;fill-opacity:0.8;"/>
    <path clip-path="url(#p391b78dc25)" d="M 708.477079 185.297335 
L 720.795919 176.374377 
L 720.617651 180.9248 
L 708.319376 189.87562 
z
" style="fill:#0cba97;fill-opacity:0.8;"/>
    <path clip-path="url(#p391b78dc25)" d="M 685.113999 180.124686 
L 708.477079 185.297335 
L 708.319376 189.87562 
L 684.999207 184.686856 
z
" style="fill:#065d4c;fill-opacity:0.8;"/>
   </g>
   <g id="Poly3DCollection_28">
    <path clip-path="url(#p391b78dc25)" d="M 508.721679 176.008198 
L 508.721679 176.008198 
L 530.997947 181.134772 
L 530.997947 181.134772 
z
" style="fill:#065d4c;fill-opacity:0.8;"/>
    <path clip-path="url(#p391b78dc25)" d="M 494.353984 184.924028 
L 494.353984 184.924028 
L 508.721679 176.008198 
L 508.721679 176.008198 
z
" style="fill:#065d4c;fill-opacity:0.8;"/>
    <path clip-path="url(#p391b78dc25)" d="M 494.353984 184.924028 
L 508.721679 176.008198 
L 530.997947 181.134772 
L 516.76641 190.150659 
z
" style="fill:#08745e;fill-opacity:0.8;"/>
    <path clip-path="url(#p391b78dc25)" d="M 494.353984 184.924028 
L 516.76641 190.150659 
L 530.997947 181.134772 
L 508.721679 176.008198 
z
" style="fill:#0aa384;fill-opacity:0.8;"/>
    <path clip-path="url(#p391b78dc25)" d="M 516.76641 190.150659 
L 530.997947 181.134772 
L 530.997947 181.134772 
L 516.76641 190.150659 
z
" style="fill:#065d4c;fill-opacity:0.8;"/>
    <path clip-path="url(#p391b78dc25)" d="M 494.353984 184.924028 
L 516.76641 190.150659 
L 516.76641 190.150659 
L 494.353984 184.924028 
z
" style="fill:#065d4c;fill-opacity:0.8;"/>
   </g>
   <g id="Poly3DCollection_29">
    <path clip-path="url(#p391b78dc25)" d="M 626.141552 178.748439 
L 626.13915 180.010409 
L 649.126381 185.172096 
L 649.1403 183.905661 
z
" style="fill:#0cba97;fill-opacity:0.8;"/>
    <path clip-path="url(#p391b78dc25)" d="M 612.871229 187.717681 
L 612.875469 188.987398 
L 626.13915 180.010409 
L 626.141552 178.748439 
z
" style="fill:#065d4c;fill-opacity:0.8;"/>
    <path clip-path="url(#p391b78dc25)" d="M 612.875469 188.987398 
L 636.012365 194.250083 
L 649.126381 185.172096 
L 626.13915 180.010409 
z
" style="fill:#0aa384;fill-opacity:0.8;"/>
    <path clip-path="url(#p391b78dc25)" d="M 612.871229 187.717681 
L 626.141552 178.748439 
L 649.1403 183.905661 
L 636.019793 192.975864 
z
" style="fill:#08745e;fill-opacity:0.8;"/>
    <path clip-path="url(#p391b78dc25)" d="M 636.019793 192.975864 
L 649.1403 183.905661 
L 649.126381 185.172096 
L 636.012365 194.250083 
z
" style="fill:#0cba97;fill-opacity:0.8;"/>
    <path clip-path="url(#p391b78dc25)" d="M 612.871229 187.717681 
L 636.019793 192.975864 
L 636.012365 194.250083 
L 612.875469 188.987398 
z
" style="fill:#065d4c;fill-opacity:0.8;"/>
   </g>
   <g id="Poly3DCollection_30">
    <path clip-path="url(#p391b78dc25)" d="M 553.523693 186.318759 
L 553.661522 191.461452 
L 576.395162 196.722006 
L 576.303133 191.56113 
z
" style="fill:#0cba97;fill-opacity:0.8;"/>
    <path clip-path="url(#p391b78dc25)" d="M 539.432299 195.436398 
L 539.600405 200.610636 
L 553.661522 191.461452 
L 553.523693 186.318759 
z
" style="fill:#065d4c;fill-opacity:0.8;"/>
    <path clip-path="url(#p391b78dc25)" d="M 539.600405 200.610636 
L 562.477703 205.974817 
L 576.395162 196.722006 
L 553.661522 191.461452 
z
" style="fill:#0aa384;fill-opacity:0.8;"/>
    <path clip-path="url(#p391b78dc25)" d="M 539.432299 195.436398 
L 553.523693 186.318759 
L 576.303133 191.56113 
L 562.355973 200.782254 
z
" style="fill:#08745e;fill-opacity:0.8;"/>
    <path clip-path="url(#p391b78dc25)" d="M 562.355973 200.782254 
L 576.303133 191.56113 
L 576.395162 196.722006 
L 562.477703 205.974817 
z
" style="fill:#0cba97;fill-opacity:0.8;"/>
    <path clip-path="url(#p391b78dc25)" d="M 539.432299 195.436398 
L 562.355973 200.782254 
L 562.477703 205.974817 
L 539.600405 200.610636 
z
" style="fill:#065d4c;fill-opacity:0.8;"/>
   </g>
   <g id="Poly3DCollection_31">
    <path clip-path="url(#p391b78dc25)" d="M 672.397393 189.120814 
L 672.331217 192.393873 
L 695.820019 197.679531 
L 695.917209 194.39488 
z
" style="fill:#0cba97;fill-opacity:0.8;"/>
    <path clip-path="url(#p391b78dc25)" d="M 659.43094 198.293693 
L 659.381078 201.586863 
L 672.331217 192.393873 
L 672.397393 189.120814 
z
" style="fill:#065d4c;fill-opacity:0.8;"/>
    <path clip-path="url(#p391b78dc25)" d="M 659.381078 201.586863 
L 683.027865 206.977041 
L 695.820019 197.679531 
L 672.331217 192.393873 
z
" style="fill:#0aa384;fill-opacity:0.8;"/>
    <path clip-path="url(#p391b78dc25)" d="M 659.43094 198.293693 
L 672.397393 189.120814 
L 695.917209 194.39488 
L 683.109163 203.672187 
z
" style="fill:#08745e;fill-opacity:0.8;"/>
    <path clip-path="url(#p391b78dc25)" d="M 683.109163 203.672187 
L 695.917209 194.39488 
L 695.820019 197.679531 
L 683.027865 206.977041 
z
" style="fill:#0cba97;fill-opacity:0.8;"/>
    <path clip-path="url(#p391b78dc25)" d="M 659.43094 198.293693 
L 683.109163 203.672187 
L 683.027865 206.977041 
L 659.381078 201.586863 
z
" style="fill:#065d4c;fill-opacity:0.8;"/>
   </g>
   <g id="Poly3DCollection_32">
    <path clip-path="url(#p391b78dc25)" d="M 599.340576 196.862878 
L 599.446674 209.025184 
L 622.633989 214.430216 
L 622.64043 202.225015 
z
" style="fill:#0cba97;fill-opacity:0.8;"/>
    <path clip-path="url(#p391b78dc25)" d="M 585.541856 206.189256 
L 585.716284 218.425978 
L 599.446674 209.025184 
L 599.340576 196.862878 
z
" style="fill:#065d4c;fill-opacity:0.8;"/>
    <path clip-path="url(#p391b78dc25)" d="M 585.716284 218.425978 
L 609.054888 223.938404 
L 622.633989 214.430216 
L 599.446674 209.025184 
z
" style="fill:#0aa384;fill-opacity:0.8;"/>
    <path clip-path="url(#p391b78dc25)" d="M 585.541856 206.189256 
L 599.340576 196.862878 
L 622.64043 202.225015 
L 608.994473 211.658462 
z
" style="fill:#08745e;fill-opacity:0.8;"/>
    <path clip-path="url(#p391b78dc25)" d="M 608.994473 211.658462 
L 622.64043 202.225015 
L 622.633989 214.430216 
L 609.054888 223.938404 
z
" style="fill:#0cba97;fill-opacity:0.8;"/>
    <path clip-path="url(#p391b78dc25)" d="M 585.541856 206.189256 
L 608.994473 211.658462 
L 609.054888 223.938404 
L 585.716284 218.425978 
z
" style="fill:#065d4c;fill-opacity:0.8;"/>
   </g>
   <g id="Poly3DCollection_33">
    <path clip-path="url(#p391b78dc25)" d="M 646.207205 207.648581 
L 646.199628 208.411966 
L 670.030596 213.900738 
L 670.045513 213.134636 
z
" style="fill:#0cba97;fill-opacity:0.8;"/>
    <path clip-path="url(#p391b78dc25)" d="M 632.718452 217.190951 
L 632.714946 217.959049 
L 646.199628 208.411966 
L 646.207205 207.648581 
z
" style="fill:#065d4c;fill-opacity:0.8;"/>
    <path clip-path="url(#p391b78dc25)" d="M 632.714946 217.959049 
L 656.707584 223.558662 
L 670.030596 213.900738 
L 646.199628 208.411966 
z
" style="fill:#0aa384;fill-opacity:0.8;"/>
    <path clip-path="url(#p391b78dc25)" d="M 632.718452 217.190951 
L 646.207205 207.648581 
L 670.045513 213.134636 
L 656.718532 222.787826 
z
" style="fill:#08745e;fill-opacity:0.8;"/>
    <path clip-path="url(#p391b78dc25)" d="M 656.718532 222.787826 
L 670.045513 213.134636 
L 670.030596 213.900738 
L 656.707584 223.558662 
z
" style="fill:#0cba97;fill-opacity:0.8;"/>
    <path clip-path="url(#p391b78dc25)" d="M 632.718452 217.190951 
L 656.718532 222.787826 
L 656.707584 223.558662 
L 632.714946 217.959049 
z
" style="fill:#065d4c;fill-opacity:0.8;"/>
   </g>
   <g id="Poly3DCollection_34">
    <path clip-path="url(#p391b78dc25)" d="M 481.457626 186.257607 
L 660.476896 228.20092 
L 756.891295 157.77573 
L 586.4436 121.572305 
z
" style="fill-opacity:0.2;"/>
   </g>
  </g>
 </g>
 <defs>
  <clipPath id="pc291fcabd8">
   <rect height="277.2" width="380.454545" x="-30.6" y="-14.4"/>
  </clipPath>
  <clipPath id="p391b78dc25">
   <rect height="277.2" width="380.454545" x="425.945455" y="-14.4"/>
  </clipPath>
 </defs>
</svg>
