<?xml version="1.0" encoding="utf-8" standalone="no"?>
<!DOCTYPE svg PUBLIC "-//W3C//DTD SVG 1.1//EN"
  "http://www.w3.org/Graphics/SVG/1.1/DTD/svg11.dtd">
<!-- Created with matplotlib (https://matplotlib.org/) -->
<svg height="302.4pt" version="1.1" viewBox="0 0 820.8 302.4" width="820.8pt" xmlns="http://www.w3.org/2000/svg" xmlns:xlink="http://www.w3.org/1999/xlink">
 <defs>
  <style type="text/css">
*{stroke-linecap:butt;stroke-linejoin:round;}
  </style>
 </defs>
 <g id="figure_1">
  <g id="patch_1">
   <path d="M 0 302.4 
L 820.8 302.4 
L 820.8 0 
L 0 0 
z
" style="fill:#ffffff;"/>
  </g>
  <g id="patch_2">
   <path d="M -30.6 262.8 
L 349.854545 262.8 
L 349.854545 -14.4 
L -30.6 -14.4 
z
" style="fill:#ffffff;"/>
  </g>
  <g id="pane3d_1">
   <g id="patch_3">
    <path d="M 19.835129 201.548569 
L 128.723211 133.58541 
L 126.910339 3.718968 
L 11.951034 64.782468 
" style="fill:#f2f2f2;opacity:0.5;stroke:#f2f2f2;stroke-linejoin:miter;"/>
   </g>
  </g>
  <g id="pane3d_2">
   <g id="patch_4">
    <path d="M 128.723211 133.58541 
L 305.111665 171.581202 
L 312.491547 37.79869 
L 126.910339 3.718968 
" style="fill:#e6e6e6;opacity:0.5;stroke:#e6e6e6;stroke-linejoin:miter;"/>
   </g>
  </g>
  <g id="pane3d_3">
   <g id="patch_5">
    <path d="M 19.835129 201.548569 
L 205.419617 245.80086 
L 305.111665 171.581202 
L 128.723211 133.58541 
" style="fill:#ececec;opacity:0.5;stroke:#ececec;stroke-linejoin:miter;"/>
   </g>
  </g>
  <g id="axis3d_1">
   <g id="line2d_1">
    <path d="M 19.835129 201.548569 
L 205.419617 245.80086 
" style="fill:none;stroke:#000000;stroke-linecap:square;stroke-width:0.8;"/>
   </g>
   <g id="Line3DCollection_1">
    <path d="M 42.295817 206.90428 
L 150.133942 138.19749 
L 149.393845 7.847789 
" style="fill:none;stroke:#b0b0b0;stroke-width:0.8;"/>
    <path d="M 87.512337 217.686079 
L 193.184014 147.470895 
L 194.636898 16.156123 
" style="fill:none;stroke:#b0b0b0;stroke-width:0.8;"/>
    <path d="M 133.765289 228.715013 
L 237.148096 156.941187 
L 240.890183 24.649974 
" style="fill:none;stroke:#b0b0b0;stroke-width:0.8;"/>
    <path d="M 181.090721 239.999678 
L 282.055608 166.614702 
L 288.187917 33.335625 
" style="fill:none;stroke:#b0b0b0;stroke-width:0.8;"/>
   </g>
   <g id="xtick_1">
    <g id="line2d_2">
     <path d="M 43.225084 206.312217 
L 40.433807 208.09062 
" style="fill:none;stroke:#000000;stroke-linecap:square;stroke-width:0.8;"/>
    </g>
    <g id="text_1">
     <!-- 00 -->
     <defs>
      <path d="M 42 31.84375 
C 42 37.96875 41.90625 48.421875 37.703125 56.453125 
C 34 63.484375 28.09375 66 22.90625 66 
C 18.09375 66 12 63.78125 8.203125 56.5625 
C 4.203125 49.015625 3.796875 39.671875 3.796875 31.84375 
C 3.796875 26.109375 3.90625 17.375 7 9.734375 
C 11.296875 -0.609375 19 -2 22.90625 -2 
C 27.5 -2 34.5 -0.109375 38.59375 9.4375 
C 41.59375 16.375 42 24.5 42 31.84375 
z
M 22.90625 -0.40625 
C 16.5 -0.40625 12.703125 5.125 11.296875 12.75 
C 10.203125 18.6875 10.203125 27.328125 10.203125 32.953125 
C 10.203125 40.6875 10.203125 47.109375 11.5 53.234375 
C 13.40625 61.78125 19 64.390625 22.90625 64.390625 
C 27 64.390625 32.296875 61.671875 34.203125 53.4375 
C 35.5 47.71875 35.59375 40.984375 35.59375 32.953125 
C 35.59375 26.421875 35.59375 18.375 34.40625 12.453125 
C 32.296875 1.5 26.40625 -0.40625 22.90625 -0.40625 
z
" id="CMR17-48"/>
     </defs>
     <g transform="translate(16.108553 247.89009)rotate(-45)scale(0.24 -0.24)">
      <use transform="scale(0.996264)" xlink:href="#CMR17-48"/>
      <use transform="translate(45.690477 0)scale(0.996264)" xlink:href="#CMR17-48"/>
     </g>
    </g>
   </g>
   <g id="xtick_2">
    <g id="line2d_3">
     <path d="M 88.423674 217.080527 
L 85.686217 218.899473 
" style="fill:none;stroke:#000000;stroke-linecap:square;stroke-width:0.8;"/>
    </g>
    <g id="text_2">
     <!-- 01 -->
     <defs>
      <path d="M 26.59375 63.796875 
C 26.59375 65.890625 26.5 66 25.09375 66 
C 21.203125 61.359375 15.296875 59.890625 9.703125 59.6875 
C 9.40625 59.6875 8.90625 59.6875 8.796875 59.5 
C 8.703125 59.296875 8.703125 59.09375 8.703125 57 
C 11.796875 57 17 57.59375 21 59.984375 
L 21 7.296875 
C 21 3.796875 20.796875 2.59375 12.203125 2.59375 
L 9.203125 2.59375 
L 9.203125 0 
C 14 0.09375 19 0.1875 23.796875 0.1875 
C 28.59375 0.1875 33.59375 0.09375 38.40625 0 
L 38.40625 2.59375 
L 35.40625 2.59375 
C 26.796875 2.59375 26.59375 3.6875 26.59375 7.296875 
z
" id="CMR17-49"/>
     </defs>
     <g transform="translate(61.320978 258.846842)rotate(-45)scale(0.24 -0.24)">
      <use transform="scale(0.996264)" xlink:href="#CMR17-48"/>
      <use transform="translate(45.690477 0)scale(0.996264)" xlink:href="#CMR17-49"/>
     </g>
    </g>
   </g>
   <g id="xtick_3">
    <g id="line2d_4">
     <path d="M 134.657625 228.095506 
L 131.977203 229.956397 
" style="fill:none;stroke:#000000;stroke-linecap:square;stroke-width:0.8;"/>
    </g>
    <g id="text_3">
     <!-- 10 -->
     <g transform="translate(107.571591 270.055188)rotate(-45)scale(0.24 -0.24)">
      <use transform="scale(0.996264)" xlink:href="#CMR17-49"/>
      <use transform="translate(45.690477 0)scale(0.996264)" xlink:href="#CMR17-48"/>
     </g>
    </g>
   </g>
   <g id="xtick_4">
    <g id="line2d_5">
     <path d="M 181.962926 239.365727 
L 179.342936 241.270032 
" style="fill:none;stroke:#000000;stroke-linecap:square;stroke-width:0.8;"/>
    </g>
    <g id="text_4">
     <!-- 11 -->
     <g transform="translate(154.896566 281.523893)rotate(-45)scale(0.24 -0.24)">
      <use transform="scale(0.996264)" xlink:href="#CMR17-49"/>
      <use transform="translate(45.690477 0)scale(0.996264)" xlink:href="#CMR17-49"/>
     </g>
    </g>
   </g>
  </g>
  <g id="axis3d_2">
   <g id="line2d_6">
    <path d="M 305.111665 171.581202 
L 205.419617 245.80086 
" style="fill:none;stroke:#000000;stroke-linecap:square;stroke-width:0.8;"/>
   </g>
   <g id="Line3DCollection_2">
    <path d="M 27.455231 56.547028 
L 34.471044 192.413474 
L 218.858418 235.795817 
" style="fill:none;stroke:#b0b0b0;stroke-width:0.8;"/>
    <path d="M 57.232024 40.730342 
L 62.623407 174.842005 
L 244.674037 216.576366 
" style="fill:none;stroke:#b0b0b0;stroke-width:0.8;"/>
    <path d="M 85.85589 25.526062 
L 89.739382 157.917404 
L 269.496985 198.095948 
" style="fill:none;stroke:#b0b0b0;stroke-width:0.8;"/>
    <path d="M 113.392516 10.899296 
L 115.875164 141.604597 
L 293.383438 180.312741 
" style="fill:none;stroke:#b0b0b0;stroke-width:0.8;"/>
   </g>
   <g id="xtick_5">
    <g id="line2d_7">
     <path d="M 217.315598 235.432825 
L 221.947489 236.522608 
" style="fill:none;stroke:#000000;stroke-linecap:square;stroke-width:0.8;"/>
    </g>
    <g id="text_5">
     <!-- 00 -->
     <g transform="translate(233.392289 249.065483)rotate(-337.5)scale(0.24 -0.24)">
      <use transform="scale(0.996264)" xlink:href="#CMR17-48"/>
      <use transform="translate(45.690477 0)scale(0.996264)" xlink:href="#CMR17-48"/>
     </g>
    </g>
   </g>
   <g id="xtick_6">
    <g id="line2d_8">
     <path d="M 243.15208 216.227463 
L 247.72127 217.274932 
" style="fill:none;stroke:#000000;stroke-linecap:square;stroke-width:0.8;"/>
    </g>
    <g id="text_6">
     <!-- 01 -->
     <g transform="translate(258.94584 229.621057)rotate(-337.5)scale(0.24 -0.24)">
      <use transform="scale(0.996264)" xlink:href="#CMR17-48"/>
      <use transform="translate(45.690477 0)scale(0.996264)" xlink:href="#CMR17-49"/>
     </g>
    </g>
   </g>
   <g id="xtick_7">
    <g id="line2d_9">
     <path d="M 267.995442 197.76033 
L 272.503283 198.767901 
" style="fill:none;stroke:#000000;stroke-linecap:square;stroke-width:0.8;"/>
    </g>
    <g id="text_7">
     <!-- 10 -->
     <g transform="translate(283.517252 210.923969)rotate(-337.5)scale(0.24 -0.24)">
      <use transform="scale(0.996264)" xlink:href="#CMR17-49"/>
      <use transform="translate(45.690477 0)scale(0.996264)" xlink:href="#CMR17-48"/>
     </g>
    </g>
   </g>
   <g id="xtick_8">
    <g id="line2d_10">
     <path d="M 291.901865 179.989663 
L 296.349691 180.959573 
" style="fill:none;stroke:#000000;stroke-linecap:square;stroke-width:0.8;"/>
    </g>
    <g id="text_8">
     <!-- 11 -->
     <g transform="translate(307.162078 192.931947)rotate(-337.5)scale(0.24 -0.24)">
      <use transform="scale(0.996264)" xlink:href="#CMR17-49"/>
      <use transform="translate(45.690477 0)scale(0.996264)" xlink:href="#CMR17-49"/>
     </g>
    </g>
   </g>
  </g>
  <g id="axis3d_3">
   <g id="line2d_11">
    <path d="M 305.111665 171.581202 
L 312.491547 37.79869 
" style="fill:none;stroke:#000000;stroke-linecap:square;stroke-width:0.8;"/>
   </g>
   <g id="Line3DCollection_3">
    <path d="M 305.252029 169.036678 
L 128.688656 131.110086 
L 19.685428 198.951687 
" style="fill:none;stroke:#b0b0b0;stroke-width:0.8;"/>
    <path d="M 307.013729 137.100578 
L 128.255212 100.059952 
L 17.805706 166.343987 
" style="fill:none;stroke:#b0b0b0;stroke-width:0.8;"/>
    <path d="M 308.820175 104.353332 
L 127.811226 68.254708 
L 15.876637 132.880254 
" style="fill:none;stroke:#b0b0b0;stroke-width:0.8;"/>
    <path d="M 310.673092 70.763638 
L 127.356311 35.666468 
L 13.896251 98.52633 
" style="fill:none;stroke:#b0b0b0;stroke-width:0.8;"/>
   </g>
   <g id="xtick_9">
    <g id="line2d_12">
     <path d="M 303.77886 168.720235 
L 308.201432 169.670223 
" style="fill:none;stroke:#000000;stroke-linecap:square;stroke-width:0.8;"/>
    </g>
    <g id="text_9">
     <!-- $0.0$ -->
     <defs>
      <path d="M 18.40625 4.796875 
C 18.40625 7.6875 16 9.6875 13.59375 9.6875 
C 10.703125 9.6875 8.703125 7.296875 8.703125 4.890625 
C 8.703125 2 11.09375 0 13.5 0 
C 16.40625 0 18.40625 2.390625 18.40625 4.796875 
z
" id="CMMI12-58"/>
     </defs>
     <g transform="translate(309.562437 183.700174)scale(0.24 -0.24)">
      <use transform="scale(0.996264)" xlink:href="#CMR17-48"/>
      <use transform="translate(45.690477 0)scale(0.996264)" xlink:href="#CMMI12-58"/>
      <use transform="translate(72.787654 0)scale(0.996264)" xlink:href="#CMR17-48"/>
     </g>
    </g>
   </g>
   <g id="xtick_10">
    <g id="line2d_13">
     <path d="M 305.521475 136.791367 
L 310.001381 137.719651 
" style="fill:none;stroke:#000000;stroke-linecap:square;stroke-width:0.8;"/>
    </g>
    <g id="text_10">
     <!-- $0.1$ -->
     <g transform="translate(311.552191 151.808478)scale(0.24 -0.24)">
      <use transform="scale(0.996264)" xlink:href="#CMR17-48"/>
      <use transform="translate(45.690477 0)scale(0.996264)" xlink:href="#CMMI12-58"/>
      <use transform="translate(72.787654 0)scale(0.996264)" xlink:href="#CMR17-49"/>
     </g>
    </g>
   </g>
   <g id="xtick_11">
    <g id="line2d_14">
     <path d="M 307.308335 104.051825 
L 311.84708 104.956988 
" style="fill:none;stroke:#000000;stroke-linecap:square;stroke-width:0.8;"/>
    </g>
    <g id="text_11">
     <!-- $0.2$ -->
     <defs>
      <path d="M 41.703125 15.46875 
L 39.90625 15.46875 
C 38.90625 8.390625 38.09375 7.1875 37.703125 6.59375 
C 37.203125 5.796875 30 5.796875 28.59375 5.796875 
L 9.40625 5.796875 
C 13 9.6875 20 16.765625 28.5 24.9375 
C 34.59375 30.71875 41.703125 37.5 41.703125 47.390625 
C 41.703125 59.1875 32.296875 66 21.796875 66 
C 10.796875 66 4.09375 56.296875 4.09375 47.296875 
C 4.09375 43.390625 7 42.890625 8.203125 42.890625 
C 9.203125 42.890625 12.203125 43.484375 12.203125 46.984375 
C 12.203125 50.09375 9.59375 51 8.203125 51 
C 7.59375 51 7 50.890625 6.59375 50.6875 
C 8.5 59.1875 14.296875 63.390625 20.40625 63.390625 
C 29.09375 63.390625 34.796875 56.5 34.796875 47.390625 
C 34.796875 38.703125 29.703125 31.21875 24 24.734375 
L 4.09375 2.296875 
L 4.09375 0 
L 39.296875 0 
z
" id="CMR17-50"/>
     </defs>
     <g transform="translate(313.592373 119.108527)scale(0.24 -0.24)">
      <use transform="scale(0.996264)" xlink:href="#CMR17-48"/>
      <use transform="translate(45.690477 0)scale(0.996264)" xlink:href="#CMMI12-58"/>
      <use transform="translate(72.787654 0)scale(0.996264)" xlink:href="#CMR17-50"/>
     </g>
    </g>
   </g>
   <g id="xtick_12">
    <g id="line2d_15">
     <path d="M 309.141146 70.470337 
L 313.740295 71.350874 
" style="fill:none;stroke:#000000;stroke-linecap:square;stroke-width:0.8;"/>
    </g>
    <g id="text_12">
     <!-- $0.3$ -->
     <defs>
      <path d="M 22.09375 34 
C 31 34 34.90625 26.140625 34.90625 17.09375 
C 34.90625 5.03125 28.5 0.390625 22.703125 0.390625 
C 17.40625 0.390625 8.796875 3.015625 6.09375 10.796875 
C 6.59375 10.59375 7.09375 10.59375 7.59375 10.59375 
C 10 10.59375 11.796875 12.1875 11.796875 14.796875 
C 11.796875 17.6875 9.59375 19 7.59375 19 
C 5.90625 19 3.296875 18.1875 3.296875 14.484375 
C 3.296875 5.234375 12.296875 -2 22.90625 -2 
C 34 -2 42.5 6.75 42.5 16.984375 
C 42.5 26.84375 34.5 34 25 35.09375 
C 32.59375 36.671875 39.90625 43.375 39.90625 52.390625 
C 39.90625 60.25 32 66 23 66 
C 13.90625 66 5.90625 60.34375 5.90625 52.296875 
C 5.90625 48.796875 8.5 48.1875 9.796875 48.1875 
C 11.90625 48.1875 13.703125 49.484375 13.703125 52.09375 
C 13.703125 54.6875 11.90625 56 9.796875 56 
C 9.40625 56 8.90625 56 8.5 55.796875 
C 11.40625 62.484375 19.296875 63.6875 22.796875 63.6875 
C 26.296875 63.6875 32.90625 61.96875 32.90625 52.296875 
C 32.90625 49.484375 32.5 44.546875 29.09375 40.21875 
C 26.09375 36.390625 22.703125 36.1875 19.40625 35.890625 
C 18.90625 35.890625 16.59375 35.6875 16.203125 35.6875 
C 15.5 35.59375 15.09375 35.5 15.09375 34.796875 
C 15.09375 34.09375 15.203125 34 17.203125 34 
z
" id="CMR17-51"/>
     </defs>
     <g transform="translate(315.684925 85.569202)scale(0.24 -0.24)">
      <use transform="scale(0.996264)" xlink:href="#CMR17-48"/>
      <use transform="translate(45.690477 0)scale(0.996264)" xlink:href="#CMMI12-58"/>
      <use transform="translate(72.787654 0)scale(0.996264)" xlink:href="#CMR17-51"/>
     </g>
    </g>
   </g>
  </g>
  <g id="axes_1">
   <g id="Poly3DCollection_1">
    <path clip-path="url(#pd1fe87d5b3)" d="M 133.051747 137.476151 
L 133.160628 146.326995 
L 154.474334 150.979721 
L 154.438688 142.098609 
z
" style="fill:#ba0c2f;fill-opacity:0.8;"/>
    <path clip-path="url(#pd1fe87d5b3)" d="M 120.271134 145.513314 
L 120.425276 154.41668 
L 133.160628 146.326995 
L 133.051747 137.476151 
z
" style="fill:#5d0618;fill-opacity:0.8;"/>
    <path clip-path="url(#pd1fe87d5b3)" d="M 120.425276 154.41668 
L 141.866412 159.154505 
L 154.474334 150.979721 
L 133.160628 146.326995 
z
" style="fill:#a30a29;fill-opacity:0.8;"/>
    <path clip-path="url(#pd1fe87d5b3)" d="M 120.271134 145.513314 
L 133.051747 137.476151 
L 154.438688 142.098609 
L 141.786381 150.220613 
z
" style="fill:#74081d;fill-opacity:0.8;"/>
    <path clip-path="url(#pd1fe87d5b3)" d="M 141.786381 150.220613 
L 154.438688 142.098609 
L 154.474334 150.979721 
L 141.866412 159.154505 
z
" style="fill:#ba0c2f;fill-opacity:0.8;"/>
    <path clip-path="url(#pd1fe87d5b3)" d="M 120.271134 145.513314 
L 141.786381 150.220613 
L 141.866412 159.154505 
L 120.425276 154.41668 
z
" style="fill:#5d0618;fill-opacity:0.8;"/>
   </g>
   <g id="Poly3DCollection_2">
    <path clip-path="url(#pd1fe87d5b3)" d="M 176.050954 146.769767 
L 176.067026 143.110099 
L 197.939562 147.818084 
L 197.892125 151.4904 
z
" style="fill:#5d0618;fill-opacity:0.8;"/>
    <path clip-path="url(#pd1fe87d5b3)" d="M 163.530392 154.977964 
L 163.528612 151.296349 
L 176.067026 143.110099 
L 176.050954 146.769767 
z
" style="fill:#ba0c2f;fill-opacity:0.8;"/>
    <path clip-path="url(#pd1fe87d5b3)" d="M 163.530392 154.977964 
L 176.050954 146.769767 
L 197.892125 151.4904 
L 185.506836 159.786168 
z
" style="fill:#74081d;fill-opacity:0.8;"/>
    <path clip-path="url(#pd1fe87d5b3)" d="M 163.528612 151.296349 
L 185.536811 156.091797 
L 197.939562 147.818084 
L 176.067026 143.110099 
z
" style="fill:#a30a29;fill-opacity:0.8;"/>
    <path clip-path="url(#pd1fe87d5b3)" d="M 185.506836 159.786168 
L 197.892125 151.4904 
L 197.939562 147.818084 
L 185.536811 156.091797 
z
" style="fill:#5d0618;fill-opacity:0.8;"/>
    <path clip-path="url(#pd1fe87d5b3)" d="M 163.530392 154.977964 
L 185.506836 159.786168 
L 185.536811 156.091797 
L 163.528612 151.296349 
z
" style="fill:#ba0c2f;fill-opacity:0.8;"/>
   </g>
   <g id="Poly3DCollection_3">
    <path clip-path="url(#pd1fe87d5b3)" d="M 107.255484 153.698282 
L 107.137713 148.451952 
L 128.826313 153.228263 
L 128.900155 158.49278 
z
" style="fill:#5d0618;fill-opacity:0.8;"/>
    <path clip-path="url(#pd1fe87d5b3)" d="M 93.998253 162.035168 
L 93.851987 156.757281 
L 107.137713 148.451952 
L 107.255484 153.698282 
z
" style="fill:#ba0c2f;fill-opacity:0.8;"/>
    <path clip-path="url(#pd1fe87d5b3)" d="M 93.998253 162.035168 
L 107.255484 153.698282 
L 128.900155 158.49278 
L 115.773462 166.919311 
z
" style="fill:#74081d;fill-opacity:0.8;"/>
    <path clip-path="url(#pd1fe87d5b3)" d="M 93.851987 156.757281 
L 115.671653 161.623082 
L 128.826313 153.228263 
L 107.137713 148.451952 
z
" style="fill:#a30a29;fill-opacity:0.8;"/>
    <path clip-path="url(#pd1fe87d5b3)" d="M 115.773462 166.919311 
L 128.900155 158.49278 
L 128.826313 153.228263 
L 115.671653 161.623082 
z
" style="fill:#5d0618;fill-opacity:0.8;"/>
    <path clip-path="url(#pd1fe87d5b3)" d="M 93.998253 162.035168 
L 115.773462 166.919311 
L 115.671653 161.623082 
L 93.851987 156.757281 
z
" style="fill:#ba0c2f;fill-opacity:0.8;"/>
   </g>
   <g id="Poly3DCollection_4">
    <path clip-path="url(#pd1fe87d5b3)" d="M 219.965857 156.261297 
L 220.117137 149.246521 
L 242.48945 154.044127 
L 242.275884 161.083265 
z
" style="fill:#5d0618;fill-opacity:0.8;"/>
    <path clip-path="url(#pd1fe87d5b3)" d="M 207.719458 164.646045 
L 207.838274 157.588996 
L 220.117137 149.246521 
L 219.965857 156.261297 
z
" style="fill:#ba0c2f;fill-opacity:0.8;"/>
    <path clip-path="url(#pd1fe87d5b3)" d="M 207.719458 164.646045 
L 219.965857 156.261297 
L 242.275884 161.083265 
L 230.172089 169.558433 
z
" style="fill:#74081d;fill-opacity:0.8;"/>
    <path clip-path="url(#pd1fe87d5b3)" d="M 207.838274 157.588996 
L 230.353995 162.476816 
L 242.48945 154.044127 
L 220.117137 149.246521 
z
" style="fill:#a30a29;fill-opacity:0.8;"/>
    <path clip-path="url(#pd1fe87d5b3)" d="M 230.172089 169.558433 
L 242.275884 161.083265 
L 242.48945 154.044127 
L 230.353995 162.476816 
z
" style="fill:#5d0618;fill-opacity:0.8;"/>
    <path clip-path="url(#pd1fe87d5b3)" d="M 207.719458 164.646045 
L 230.172089 169.558433 
L 230.353995 162.476816 
L 207.838274 157.588996 
z
" style="fill:#ba0c2f;fill-opacity:0.8;"/>
   </g>
   <g id="Poly3DCollection_5">
    <path clip-path="url(#pd1fe87d5b3)" d="M 150.777105 163.33873 
L 150.77173 162.358267 
L 172.89323 167.253102 
L 172.890093 168.236965 
z
" style="fill:#5d0618;fill-opacity:0.8;"/>
    <path clip-path="url(#pd1fe87d5b3)" d="M 137.784542 171.856359 
L 137.77408 170.869998 
L 150.77173 162.358267 
L 150.777105 163.33873 
z
" style="fill:#ba0c2f;fill-opacity:0.8;"/>
    <path clip-path="url(#pd1fe87d5b3)" d="M 137.784542 171.856359 
L 150.777105 163.33873 
L 172.890093 168.236965 
L 160.035349 176.847178 
z
" style="fill:#74081d;fill-opacity:0.8;"/>
    <path clip-path="url(#pd1fe87d5b3)" d="M 137.77408 170.869998 
L 160.033504 175.857389 
L 172.89323 167.253102 
L 150.77173 162.358267 
z
" style="fill:#a30a29;fill-opacity:0.8;"/>
    <path clip-path="url(#pd1fe87d5b3)" d="M 160.035349 176.847178 
L 172.890093 168.236965 
L 172.89323 167.253102 
L 160.033504 175.857389 
z
" style="fill:#5d0618;fill-opacity:0.8;"/>
    <path clip-path="url(#pd1fe87d5b3)" d="M 137.784542 171.856359 
L 160.035349 176.847178 
L 160.033504 175.857389 
L 137.77408 170.869998 
z
" style="fill:#ba0c2f;fill-opacity:0.8;"/>
   </g>
   <g id="Poly3DCollection_6">
    <path clip-path="url(#pd1fe87d5b3)" d="M 80.492653 170.528244 
L 80.317631 165.242463 
L 102.269275 170.200377 
L 102.399507 175.504569 
z
" style="fill:#5d0618;fill-opacity:0.8;"/>
    <path clip-path="url(#pd1fe87d5b3)" d="M 66.731637 179.181938 
L 66.526108 173.864213 
L 80.317631 165.242463 
L 80.492653 170.528244 
z
" style="fill:#ba0c2f;fill-opacity:0.8;"/>
    <path clip-path="url(#pd1fe87d5b3)" d="M 66.731637 179.181938 
L 80.492653 170.528244 
L 102.399507 175.504569 
L 88.771239 184.25308 
z
" style="fill:#74081d;fill-opacity:0.8;"/>
    <path clip-path="url(#pd1fe87d5b3)" d="M 66.526108 173.864213 
L 88.611038 178.916793 
L 102.269275 170.200377 
L 80.317631 165.242463 
z
" style="fill:#a30a29;fill-opacity:0.8;"/>
    <path clip-path="url(#pd1fe87d5b3)" d="M 88.771239 184.25308 
L 102.399507 175.504569 
L 102.269275 170.200377 
L 88.611038 178.916793 
z
" style="fill:#5d0618;fill-opacity:0.8;"/>
    <path clip-path="url(#pd1fe87d5b3)" d="M 66.731637 179.181938 
L 88.771239 184.25308 
L 88.611038 178.916793 
L 66.526108 173.864213 
z
" style="fill:#ba0c2f;fill-opacity:0.8;"/>
   </g>
   <g id="Poly3DCollection_7">
    <path clip-path="url(#pd1fe87d5b3)" d="M 240.68412 183.253979 
L 240.898435 176.104636 
L 264.061584 181.195698 
L 263.78052 188.370049 
z
" style="fill:#5d0618;fill-opacity:0.8;"/>
    <path clip-path="url(#pd1fe87d5b3)" d="M 228.265937 192.151184 
L 228.446918 184.958451 
L 240.898435 176.104636 
L 240.68412 183.253979 
z
" style="fill:#ba0c2f;fill-opacity:0.8;"/>
    <path clip-path="url(#pd1fe87d5b3)" d="M 228.265937 192.151184 
L 240.68412 183.253979 
L 263.78052 188.370049 
L 251.515903 197.366112 
z
" style="fill:#74081d;fill-opacity:0.8;"/>
    <path clip-path="url(#pd1fe87d5b3)" d="M 228.446918 184.958451 
L 251.764533 190.148171 
L 264.061584 181.195698 
L 240.898435 176.104636 
z
" style="fill:#a30a29;fill-opacity:0.8;"/>
    <path clip-path="url(#pd1fe87d5b3)" d="M 251.515903 197.366112 
L 263.78052 188.370049 
L 264.061584 181.195698 
L 251.764533 190.148171 
z
" style="fill:#5d0618;fill-opacity:0.8;"/>
    <path clip-path="url(#pd1fe87d5b3)" d="M 228.265937 192.151184 
L 251.515903 197.366112 
L 251.764533 190.148171 
L 228.446918 184.958451 
z
" style="fill:#ba0c2f;fill-opacity:0.8;"/>
   </g>
   <g id="Poly3DCollection_8">
    <path clip-path="url(#pd1fe87d5b3)" d="M 169.573234 190.763642 
L 169.575135 189.764406 
L 192.473347 194.960367 
L 192.462326 195.96309 
z
" style="fill:#5d0618;fill-opacity:0.8;"/>
    <path clip-path="url(#pd1fe87d5b3)" d="M 156.366146 199.806146 
L 156.362789 198.80086 
L 169.575135 189.764406 
L 169.573234 190.763642 
z
" style="fill:#ba0c2f;fill-opacity:0.8;"/>
    <path clip-path="url(#pd1fe87d5b3)" d="M 156.366146 199.806146 
L 169.573234 190.763642 
L 192.462326 195.96309 
L 179.403624 205.106891 
z
" style="fill:#74081d;fill-opacity:0.8;"/>
    <path clip-path="url(#pd1fe87d5b3)" d="M 156.362789 198.80086 
L 179.409504 204.098091 
L 192.473347 194.960367 
L 169.575135 189.764406 
z
" style="fill:#a30a29;fill-opacity:0.8;"/>
    <path clip-path="url(#pd1fe87d5b3)" d="M 179.403624 205.106891 
L 192.462326 195.96309 
L 192.473347 194.960367 
L 179.409504 204.098091 
z
" style="fill:#5d0618;fill-opacity:0.8;"/>
    <path clip-path="url(#pd1fe87d5b3)" d="M 156.366146 199.806146 
L 179.403624 205.106891 
L 179.409504 204.098091 
L 156.362789 198.80086 
z
" style="fill:#ba0c2f;fill-opacity:0.8;"/>
   </g>
   <g id="Poly3DCollection_9">
    <path clip-path="url(#pd1fe87d5b3)" d="M 252.868637 174.524188 
L 264.826022 165.95713 
L 287.620167 170.883733 
L 275.8131 179.544184 
z
" style="fill:#74081d;fill-opacity:0.8;"/>
    <path clip-path="url(#pd1fe87d5b3)" d="M 264.826022 165.95713 
L 267.64802 94.044156 
L 291.104323 98.710374 
L 287.620167 170.883733 
z
" style="fill:#5d0618;fill-opacity:0.8;"/>
    <path clip-path="url(#pd1fe87d5b3)" d="M 252.868637 174.524188 
L 255.377435 102.159336 
L 267.64802 94.044156 
L 264.826022 165.95713 
z
" style="fill:#ba0c2f;fill-opacity:0.8;"/>
    <path clip-path="url(#pd1fe87d5b3)" d="M 275.8131 179.544184 
L 287.620167 170.883733 
L 291.104323 98.710374 
L 278.993045 106.916548 
z
" style="fill:#5d0618;fill-opacity:0.8;"/>
    <path clip-path="url(#pd1fe87d5b3)" d="M 252.868637 174.524188 
L 275.8131 179.544184 
L 278.993045 106.916548 
L 255.377435 102.159336 
z
" style="fill:#ba0c2f;fill-opacity:0.8;"/>
    <path clip-path="url(#pd1fe87d5b3)" d="M 255.377435 102.159336 
L 278.993045 106.916548 
L 291.104323 98.710374 
L 267.64802 94.044156 
z
" style="fill:#a30a29;fill-opacity:0.8;"/>
   </g>
   <g id="Poly3DCollection_10">
    <path clip-path="url(#pd1fe87d5b3)" d="M 182.529819 181.892649 
L 195.242961 173.188335 
L 217.839633 178.19371 
L 205.271977 186.993677 
z
" style="fill:#74081d;fill-opacity:0.8;"/>
    <path clip-path="url(#pd1fe87d5b3)" d="M 195.242961 173.188335 
L 196.086413 102.81773 
L 219.316734 107.567968 
L 217.839633 178.19371 
z
" style="fill:#5d0618;fill-opacity:0.8;"/>
    <path clip-path="url(#pd1fe87d5b3)" d="M 182.529819 181.892649 
L 183.026196 111.079284 
L 196.086413 102.81773 
L 195.242961 173.188335 
z
" style="fill:#ba0c2f;fill-opacity:0.8;"/>
    <path clip-path="url(#pd1fe87d5b3)" d="M 205.271977 186.993677 
L 217.839633 178.19371 
L 219.316734 107.567968 
L 206.410341 115.922855 
z
" style="fill:#5d0618;fill-opacity:0.8;"/>
    <path clip-path="url(#pd1fe87d5b3)" d="M 182.529819 181.892649 
L 205.271977 186.993677 
L 206.410341 115.922855 
L 183.026196 111.079284 
z
" style="fill:#ba0c2f;fill-opacity:0.8;"/>
    <path clip-path="url(#pd1fe87d5b3)" d="M 183.026196 111.079284 
L 206.410341 115.922855 
L 219.316734 107.567968 
L 196.086413 102.81773 
z
" style="fill:#a30a29;fill-opacity:0.8;"/>
   </g>
   <g id="Poly3DCollection_11">
    <path clip-path="url(#pd1fe87d5b3)" d="M 97.301916 198.395852 
L 97.157528 193.00841 
L 119.87739 198.274409 
L 119.973795 203.680734 
z
" style="fill:#5d0618;fill-opacity:0.8;"/>
    <path clip-path="url(#pd1fe87d5b3)" d="M 83.281614 207.587244 
L 83.105517 202.167042 
L 97.157528 193.00841 
L 97.301916 198.395852 
z
" style="fill:#ba0c2f;fill-opacity:0.8;"/>
    <path clip-path="url(#pd1fe87d5b3)" d="M 83.281614 207.587244 
L 97.301916 198.395852 
L 119.973795 203.680734 
L 106.096377 212.975942 
z
" style="fill:#74081d;fill-opacity:0.8;"/>
    <path clip-path="url(#pd1fe87d5b3)" d="M 83.105517 202.167042 
L 105.968864 207.536712 
L 119.87739 198.274409 
L 97.157528 193.00841 
z
" style="fill:#a30a29;fill-opacity:0.8;"/>
    <path clip-path="url(#pd1fe87d5b3)" d="M 106.096377 212.975942 
L 119.973795 203.680734 
L 119.87739 198.274409 
L 105.968864 207.536712 
z
" style="fill:#5d0618;fill-opacity:0.8;"/>
    <path clip-path="url(#pd1fe87d5b3)" d="M 83.281614 207.587244 
L 106.096377 212.975942 
L 105.968864 207.536712 
L 83.105517 202.167042 
z
" style="fill:#ba0c2f;fill-opacity:0.8;"/>
   </g>
   <g id="Poly3DCollection_12">
    <path clip-path="url(#pd1fe87d5b3)" d="M 111.054142 189.380204 
L 124.545907 180.535308 
L 146.935803 185.62136 
L 133.584397 194.564241 
z
" style="fill:#74081d;fill-opacity:0.8;"/>
    <path clip-path="url(#pd1fe87d5b3)" d="M 124.545907 180.535308 
L 123.650355 124.089667 
L 146.536528 128.972343 
L 146.935803 185.62136 
z
" style="fill:#5d0618;fill-opacity:0.8;"/>
    <path clip-path="url(#pd1fe87d5b3)" d="M 111.054142 189.380204 
L 109.846506 132.58165 
L 123.650355 124.089667 
L 124.545907 180.535308 
z
" style="fill:#ba0c2f;fill-opacity:0.8;"/>
    <path clip-path="url(#pd1fe87d5b3)" d="M 133.584397 194.564241 
L 146.935803 185.62136 
L 146.536528 128.972343 
L 132.879319 137.560524 
z
" style="fill:#5d0618;fill-opacity:0.8;"/>
    <path clip-path="url(#pd1fe87d5b3)" d="M 111.054142 189.380204 
L 133.584397 194.564241 
L 132.879319 137.560524 
L 109.846506 132.58165 
z
" style="fill:#ba0c2f;fill-opacity:0.8;"/>
    <path clip-path="url(#pd1fe87d5b3)" d="M 109.846506 132.58165 
L 132.879319 137.560524 
L 146.536528 128.972343 
L 123.650355 124.089667 
z
" style="fill:#a30a29;fill-opacity:0.8;"/>
   </g>
   <g id="Poly3DCollection_13">
    <path clip-path="url(#pd1fe87d5b3)" d="M 215.607301 201.220664 
L 215.684155 197.419425 
L 239.125341 202.722788 
L 239.012472 206.537345 
z
" style="fill:#5d0618;fill-opacity:0.8;"/>
    <path clip-path="url(#pd1fe87d5b3)" d="M 202.70116 210.467474 
L 202.759065 206.643132 
L 215.684155 197.419425 
L 215.607301 201.220664 
z
" style="fill:#ba0c2f;fill-opacity:0.8;"/>
    <path clip-path="url(#pd1fe87d5b3)" d="M 202.70116 210.467474 
L 215.607301 201.220664 
L 239.012472 206.537345 
L 226.263183 215.888913 
z
" style="fill:#74081d;fill-opacity:0.8;"/>
    <path clip-path="url(#pd1fe87d5b3)" d="M 202.759065 206.643132 
L 226.35759 212.051153 
L 239.125341 202.722788 
L 215.684155 197.419425 
z
" style="fill:#a30a29;fill-opacity:0.8;"/>
    <path clip-path="url(#pd1fe87d5b3)" d="M 226.263183 215.888913 
L 239.012472 206.537345 
L 239.125341 202.722788 
L 226.35759 212.051153 
z
" style="fill:#5d0618;fill-opacity:0.8;"/>
    <path clip-path="url(#pd1fe87d5b3)" d="M 202.70116 210.467474 
L 226.263183 215.888913 
L 226.35759 212.051153 
L 202.759065 206.643132 
z
" style="fill:#ba0c2f;fill-opacity:0.8;"/>
   </g>
   <g id="Poly3DCollection_14">
    <path clip-path="url(#pd1fe87d5b3)" d="M 142.90122 209.025184 
L 142.853678 203.575327 
L 166.09142 208.961221 
L 166.088534 214.430216 
z
" style="fill:#5d0618;fill-opacity:0.8;"/>
    <path clip-path="url(#pd1fe87d5b3)" d="M 129.17083 218.425978 
L 129.092672 212.942921 
L 142.853678 203.575327 
L 142.90122 209.025184 
z
" style="fill:#ba0c2f;fill-opacity:0.8;"/>
    <path clip-path="url(#pd1fe87d5b3)" d="M 129.17083 218.425978 
L 142.90122 209.025184 
L 166.088534 214.430216 
L 152.509433 223.938404 
z
" style="fill:#74081d;fill-opacity:0.8;"/>
    <path clip-path="url(#pd1fe87d5b3)" d="M 129.092672 212.942921 
L 152.482363 218.436066 
L 166.09142 208.961221 
L 142.853678 203.575327 
z
" style="fill:#a30a29;fill-opacity:0.8;"/>
    <path clip-path="url(#pd1fe87d5b3)" d="M 152.509433 223.938404 
L 166.088534 214.430216 
L 166.09142 208.961221 
L 152.482363 218.436066 
z
" style="fill:#5d0618;fill-opacity:0.8;"/>
    <path clip-path="url(#pd1fe87d5b3)" d="M 129.17083 218.425978 
L 152.509433 223.938404 
L 152.482363 218.436066 
L 129.092672 212.942921 
z
" style="fill:#ba0c2f;fill-opacity:0.8;"/>
   </g>
   <g id="Poly3DCollection_15">
    <path clip-path="url(#pd1fe87d5b3)" d="M 189.540183 219.896865 
L 189.447229 229.262311 
L 213.077709 234.824256 
L 213.260712 225.42619 
z
" style="fill:#ba0c2f;fill-opacity:0.8;"/>
    <path clip-path="url(#pd1fe87d5b3)" d="M 176.116748 229.514298 
L 176.073742 238.936326 
L 189.447229 229.262311 
L 189.540183 219.896865 
z
" style="fill:#5d0618;fill-opacity:0.8;"/>
    <path clip-path="url(#pd1fe87d5b3)" d="M 176.073742 238.936326 
L 199.863165 244.609639 
L 213.077709 234.824256 
L 189.447229 229.262311 
z
" style="fill:#a30a29;fill-opacity:0.8;"/>
    <path clip-path="url(#pd1fe87d5b3)" d="M 176.116748 229.514298 
L 189.540183 219.896865 
L 213.260712 225.42619 
L 199.997442 235.154762 
z
" style="fill:#74081d;fill-opacity:0.8;"/>
    <path clip-path="url(#pd1fe87d5b3)" d="M 199.997442 235.154762 
L 213.260712 225.42619 
L 213.077709 234.824256 
L 199.863165 244.609639 
z
" style="fill:#ba0c2f;fill-opacity:0.8;"/>
    <path clip-path="url(#pd1fe87d5b3)" d="M 176.116748 229.514298 
L 199.997442 235.154762 
L 199.863165 244.609639 
L 176.073742 238.936326 
z
" style="fill:#5d0618;fill-opacity:0.8;"/>
   </g>
   <g id="Poly3DCollection_16">
    <path clip-path="url(#pd1fe87d5b3)" d="M 25.579898 198.334202 
L 203.736081 240.609706 
L 299.718258 169.616378 
L 130.053112 133.100926 
z
" style="fill-opacity:0.15;"/>
   </g>
   <g id="Poly3DCollection_17">
    <path clip-path="url(#pd1fe87d5b3)" d="M 38.413819 196.989763 
L 52.707891 188.000852 
L 74.881333 193.169547 
L 60.722182 202.258853 
z
" style="fill:#74081d;fill-opacity:0.8;"/>
    <path clip-path="url(#pd1fe87d5b3)" d="M 52.707891 188.000852 
L 46.933544 57.750519 
L 70.222556 62.427839 
L 74.881333 193.169547 
z
" style="fill:#5d0618;fill-opacity:0.8;"/>
    <path clip-path="url(#pd1fe87d5b3)" d="M 38.413819 196.989763 
L 31.836896 65.886594 
L 46.933544 57.750519 
L 52.707891 188.000852 
z
" style="fill:#ba0c2f;fill-opacity:0.8;"/>
    <path clip-path="url(#pd1fe87d5b3)" d="M 60.722182 202.258853 
L 74.881333 193.169547 
L 70.222556 62.427839 
L 55.274545 70.659531 
z
" style="fill:#5d0618;fill-opacity:0.8;"/>
    <path clip-path="url(#pd1fe87d5b3)" d="M 38.413819 196.989763 
L 60.722182 202.258853 
L 55.274545 70.659531 
L 31.836896 65.886594 
z
" style="fill:#ba0c2f;fill-opacity:0.8;"/>
    <path clip-path="url(#pd1fe87d5b3)" d="M 31.836896 65.886594 
L 55.274545 70.659531 
L 70.222556 62.427839 
L 46.933544 57.750519 
z
" style="fill:#a30a29;fill-opacity:0.8;"/>
   </g>
  </g>
  <g id="patch_6">
   <path d="M 425.945455 262.8 
L 806.4 262.8 
L 806.4 -14.4 
L 425.945455 -14.4 
z
" style="fill:#ffffff;"/>
  </g>
  <g id="pane3d_4">
   <g id="patch_7">
    <path d="M 476.380584 201.548569 
L 585.268665 133.58541 
L 583.455794 3.718968 
L 468.496488 64.782468 
" style="fill:#f2f2f2;opacity:0.5;stroke:#f2f2f2;stroke-linejoin:miter;"/>
   </g>
  </g>
  <g id="pane3d_5">
   <g id="patch_8">
    <path d="M 585.268665 133.58541 
L 761.65712 171.581202 
L 769.037001 37.79869 
L 583.455794 3.718968 
" style="fill:#e6e6e6;opacity:0.5;stroke:#e6e6e6;stroke-linejoin:miter;"/>
   </g>
  </g>
  <g id="pane3d_6">
   <g id="patch_9">
    <path d="M 476.380584 201.548569 
L 661.965072 245.80086 
L 761.65712 171.581202 
L 585.268665 133.58541 
" style="fill:#ececec;opacity:0.5;stroke:#ececec;stroke-linejoin:miter;"/>
   </g>
  </g>
  <g id="axis3d_4">
   <g id="line2d_16">
    <path d="M 476.380584 201.548569 
L 661.965072 245.80086 
" style="fill:none;stroke:#000000;stroke-linecap:square;stroke-width:0.8;"/>
   </g>
   <g id="Line3DCollection_4">
    <path d="M 498.841271 206.90428 
L 606.679397 138.19749 
L 605.9393 7.847789 
" style="fill:none;stroke:#b0b0b0;stroke-width:0.8;"/>
    <path d="M 544.057792 217.686079 
L 649.729469 147.470895 
L 651.182353 16.156123 
" style="fill:none;stroke:#b0b0b0;stroke-width:0.8;"/>
    <path d="M 590.310744 228.715013 
L 693.693551 156.941187 
L 697.435637 24.649974 
" style="fill:none;stroke:#b0b0b0;stroke-width:0.8;"/>
    <path d="M 637.636176 239.999678 
L 738.601063 166.614702 
L 744.733372 33.335625 
" style="fill:none;stroke:#b0b0b0;stroke-width:0.8;"/>
   </g>
   <g id="xtick_13">
    <g id="line2d_17">
     <path d="M 499.770538 206.312217 
L 496.979262 208.09062 
" style="fill:none;stroke:#000000;stroke-linecap:square;stroke-width:0.8;"/>
    </g>
    <g id="text_13">
     <!-- 00 -->
     <g transform="translate(472.654007 247.89009)rotate(-45)scale(0.24 -0.24)">
      <use transform="scale(0.996264)" xlink:href="#CMR17-48"/>
      <use transform="translate(45.690477 0)scale(0.996264)" xlink:href="#CMR17-48"/>
     </g>
    </g>
   </g>
   <g id="xtick_14">
    <g id="line2d_18">
     <path d="M 544.969128 217.080527 
L 542.231671 218.899473 
" style="fill:none;stroke:#000000;stroke-linecap:square;stroke-width:0.8;"/>
    </g>
    <g id="text_14">
     <!-- 01 -->
     <g transform="translate(517.866433 258.846842)rotate(-45)scale(0.24 -0.24)">
      <use transform="scale(0.996264)" xlink:href="#CMR17-48"/>
      <use transform="translate(45.690477 0)scale(0.996264)" xlink:href="#CMR17-49"/>
     </g>
    </g>
   </g>
   <g id="xtick_15">
    <g id="line2d_19">
     <path d="M 591.20308 228.095506 
L 588.522658 229.956397 
" style="fill:none;stroke:#000000;stroke-linecap:square;stroke-width:0.8;"/>
    </g>
    <g id="text_15">
     <!-- 10 -->
     <g transform="translate(564.117045 270.055188)rotate(-45)scale(0.24 -0.24)">
      <use transform="scale(0.996264)" xlink:href="#CMR17-49"/>
      <use transform="translate(45.690477 0)scale(0.996264)" xlink:href="#CMR17-48"/>
     </g>
    </g>
   </g>
   <g id="xtick_16">
    <g id="line2d_20">
     <path d="M 638.50838 239.365727 
L 635.888391 241.270032 
" style="fill:none;stroke:#000000;stroke-linecap:square;stroke-width:0.8;"/>
    </g>
    <g id="text_16">
     <!-- 11 -->
     <g transform="translate(611.44202 281.523893)rotate(-45)scale(0.24 -0.24)">
      <use transform="scale(0.996264)" xlink:href="#CMR17-49"/>
      <use transform="translate(45.690477 0)scale(0.996264)" xlink:href="#CMR17-49"/>
     </g>
    </g>
   </g>
  </g>
  <g id="axis3d_5">
   <g id="line2d_21">
    <path d="M 761.65712 171.581202 
L 661.965072 245.80086 
" style="fill:none;stroke:#000000;stroke-linecap:square;stroke-width:0.8;"/>
   </g>
   <g id="Line3DCollection_5">
    <path d="M 484.000685 56.547028 
L 491.016499 192.413474 
L 675.403872 235.795817 
" style="fill:none;stroke:#b0b0b0;stroke-width:0.8;"/>
    <path d="M 513.777478 40.730342 
L 519.168861 174.842005 
L 701.219492 216.576366 
" style="fill:none;stroke:#b0b0b0;stroke-width:0.8;"/>
    <path d="M 542.401344 25.526062 
L 546.284836 157.917404 
L 726.04244 198.095948 
" style="fill:none;stroke:#b0b0b0;stroke-width:0.8;"/>
    <path d="M 569.937971 10.899296 
L 572.420618 141.604597 
L 749.928893 180.312741 
" style="fill:none;stroke:#b0b0b0;stroke-width:0.8;"/>
   </g>
   <g id="xtick_17">
    <g id="line2d_22">
     <path d="M 673.861052 235.432825 
L 678.492943 236.522608 
" style="fill:none;stroke:#000000;stroke-linecap:square;stroke-width:0.8;"/>
    </g>
    <g id="text_17">
     <!-- 00 -->
     <g transform="translate(689.937743 249.065483)rotate(-337.5)scale(0.24 -0.24)">
      <use transform="scale(0.996264)" xlink:href="#CMR17-48"/>
      <use transform="translate(45.690477 0)scale(0.996264)" xlink:href="#CMR17-48"/>
     </g>
    </g>
   </g>
   <g id="xtick_18">
    <g id="line2d_23">
     <path d="M 699.697534 216.227463 
L 704.266725 217.274932 
" style="fill:none;stroke:#000000;stroke-linecap:square;stroke-width:0.8;"/>
    </g>
    <g id="text_18">
     <!-- 01 -->
     <g transform="translate(715.491295 229.621057)rotate(-337.5)scale(0.24 -0.24)">
      <use transform="scale(0.996264)" xlink:href="#CMR17-48"/>
      <use transform="translate(45.690477 0)scale(0.996264)" xlink:href="#CMR17-49"/>
     </g>
    </g>
   </g>
   <g id="xtick_19">
    <g id="line2d_24">
     <path d="M 724.540896 197.76033 
L 729.048738 198.767901 
" style="fill:none;stroke:#000000;stroke-linecap:square;stroke-width:0.8;"/>
    </g>
    <g id="text_19">
     <!-- 10 -->
     <g transform="translate(740.062706 210.923969)rotate(-337.5)scale(0.24 -0.24)">
      <use transform="scale(0.996264)" xlink:href="#CMR17-49"/>
      <use transform="translate(45.690477 0)scale(0.996264)" xlink:href="#CMR17-48"/>
     </g>
    </g>
   </g>
   <g id="xtick_20">
    <g id="line2d_25">
     <path d="M 748.44732 179.989663 
L 752.895146 180.959573 
" style="fill:none;stroke:#000000;stroke-linecap:square;stroke-width:0.8;"/>
    </g>
    <g id="text_20">
     <!-- 11 -->
     <g transform="translate(763.707533 192.931947)rotate(-337.5)scale(0.24 -0.24)">
      <use transform="scale(0.996264)" xlink:href="#CMR17-49"/>
      <use transform="translate(45.690477 0)scale(0.996264)" xlink:href="#CMR17-49"/>
     </g>
    </g>
   </g>
  </g>
  <g id="axis3d_6">
   <g id="line2d_26">
    <path d="M 761.65712 171.581202 
L 769.037001 37.79869 
" style="fill:none;stroke:#000000;stroke-linecap:square;stroke-width:0.8;"/>
   </g>
   <g id="Line3DCollection_6">
    <path d="M 762.241526 160.987088 
L 585.124817 123.28076 
L 475.757238 190.735343 
" style="fill:none;stroke:#b0b0b0;stroke-width:0.8;"/>
    <path d="M 763.896722 130.981695 
L 584.717671 94.114506 
L 473.990834 160.093369 
" style="fill:none;stroke:#b0b0b0;stroke-width:0.8;"/>
    <path d="M 765.59126 100.263097 
L 584.301259 64.284515 
L 472.18103 128.698547 
" style="fill:none;stroke:#b0b0b0;stroke-width:0.8;"/>
    <path d="M 767.326561 68.805562 
L 583.875262 33.767869 
L 470.326209 96.522787 
" style="fill:none;stroke:#b0b0b0;stroke-width:0.8;"/>
   </g>
   <g id="xtick_21">
    <g id="line2d_27">
     <path d="M 760.763547 160.672442 
L 765.200566 161.617038 
" style="fill:none;stroke:#000000;stroke-linecap:square;stroke-width:0.8;"/>
    </g>
    <g id="text_21">
     <!-- $0.0$ -->
     <g transform="translate(766.609425 175.661616)scale(0.24 -0.24)">
      <use transform="scale(0.996264)" xlink:href="#CMR17-48"/>
      <use transform="translate(45.690477 0)scale(0.996264)" xlink:href="#CMMI12-58"/>
      <use transform="translate(72.787654 0)scale(0.996264)" xlink:href="#CMR17-48"/>
     </g>
    </g>
   </g>
   <g id="xtick_22">
    <g id="line2d_28">
     <path d="M 762.400809 130.673902 
L 766.891705 131.597931 
" style="fill:none;stroke:#000000;stroke-linecap:square;stroke-width:0.8;"/>
    </g>
    <g id="text_22">
     <!-- $0.1$ -->
     <g transform="translate(768.478866 145.698296)scale(0.24 -0.24)">
      <use transform="scale(0.996264)" xlink:href="#CMR17-48"/>
      <use transform="translate(45.690477 0)scale(0.996264)" xlink:href="#CMMI12-58"/>
      <use transform="translate(72.787654 0)scale(0.996264)" xlink:href="#CMR17-49"/>
     </g>
    </g>
   </g>
   <g id="xtick_23">
    <g id="line2d_29">
     <path d="M 764.076972 99.962574 
L 768.62307 100.864787 
" style="fill:none;stroke:#000000;stroke-linecap:square;stroke-width:0.8;"/>
    </g>
    <g id="text_23">
     <!-- $0.2$ -->
     <g transform="translate(770.392645 115.024326)scale(0.24 -0.24)">
      <use transform="scale(0.996264)" xlink:href="#CMR17-48"/>
      <use transform="translate(45.690477 0)scale(0.996264)" xlink:href="#CMMI12-58"/>
      <use transform="translate(72.787654 0)scale(0.996264)" xlink:href="#CMR17-50"/>
     </g>
    </g>
   </g>
   <g id="xtick_24">
    <g id="line2d_30">
     <path d="M 765.793442 68.512748 
L 770.396113 69.391821 
" style="fill:none;stroke:#000000;stroke-linecap:square;stroke-width:0.8;"/>
    </g>
    <g id="text_24">
     <!-- $0.3$ -->
     <g transform="translate(772.352359 83.614119)scale(0.24 -0.24)">
      <use transform="scale(0.996264)" xlink:href="#CMR17-48"/>
      <use transform="translate(45.690477 0)scale(0.996264)" xlink:href="#CMMI12-58"/>
      <use transform="translate(72.787654 0)scale(0.996264)" xlink:href="#CMR17-51"/>
     </g>
    </g>
   </g>
  </g>
  <g id="axes_2">
   <g id="Poly3DCollection_18">
    <path clip-path="url(#p46ada45054)" d="M 589.500425 129.609163 
L 589.494278 129.109533 
L 610.950445 133.703084 
L 610.952457 134.204448 
z
" style="fill:#065d4c;fill-opacity:0.8;"/>
    <path clip-path="url(#p46ada45054)" d="M 576.679573 137.599174 
L 576.670871 137.096536 
L 589.494278 129.109533 
L 589.500425 129.609163 
z
" style="fill:#0cba97;fill-opacity:0.8;"/>
    <path clip-path="url(#p46ada45054)" d="M 576.679573 137.599174 
L 589.500425 129.609163 
L 610.952457 134.204448 
L 598.260694 142.279064 
z
" style="fill:#08745e;fill-opacity:0.8;"/>
    <path clip-path="url(#p46ada45054)" d="M 576.670871 137.096536 
L 598.256175 141.774676 
L 610.950445 133.703084 
L 589.494278 129.109533 
z
" style="fill:#0aa384;fill-opacity:0.8;"/>
    <path clip-path="url(#p46ada45054)" d="M 598.260694 142.279064 
L 610.952457 134.204448 
L 610.950445 133.703084 
L 598.256175 141.774676 
z
" style="fill:#065d4c;fill-opacity:0.8;"/>
    <path clip-path="url(#p46ada45054)" d="M 576.679573 137.599174 
L 598.260694 142.279064 
L 598.256175 141.774676 
L 576.670871 137.096536 
z
" style="fill:#0cba97;fill-opacity:0.8;"/>
   </g>
   <g id="Poly3DCollection_19">
    <path clip-path="url(#p46ada45054)" d="M 632.631198 138.848296 
L 632.651755 134.167492 
L 654.600935 138.844338 
L 654.54026 143.541482 
z
" style="fill:#065d4c;fill-opacity:0.8;"/>
    <path clip-path="url(#p46ada45054)" d="M 620.071993 147.008868 
L 620.069716 142.299709 
L 632.651755 134.167492 
L 632.631198 138.848296 
z
" style="fill:#0cba97;fill-opacity:0.8;"/>
    <path clip-path="url(#p46ada45054)" d="M 620.071993 147.008868 
L 632.631198 138.848296 
L 654.54026 143.541482 
L 642.117174 151.789389 
z
" style="fill:#08745e;fill-opacity:0.8;"/>
    <path clip-path="url(#p46ada45054)" d="M 620.069716 142.299709 
L 642.155517 147.063747 
L 654.600935 138.844338 
L 632.651755 134.167492 
z
" style="fill:#0aa384;fill-opacity:0.8;"/>
    <path clip-path="url(#p46ada45054)" d="M 642.117174 151.789389 
L 654.54026 143.541482 
L 654.600935 138.844338 
L 642.155517 147.063747 
z
" style="fill:#065d4c;fill-opacity:0.8;"/>
    <path clip-path="url(#p46ada45054)" d="M 620.071993 147.008868 
L 642.117174 151.789389 
L 642.155517 147.063747 
L 620.069716 142.299709 
z
" style="fill:#0cba97;fill-opacity:0.8;"/>
   </g>
   <g id="Poly3DCollection_20">
    <path clip-path="url(#p46ada45054)" d="M 563.622212 145.73658 
L 563.645857 146.789906 
L 585.348374 151.560431 
L 585.333548 150.503432 
z
" style="fill:#0cba97;fill-opacity:0.8;"/>
    <path clip-path="url(#p46ada45054)" d="M 550.321736 154.025496 
L 550.351103 155.085195 
L 563.645857 146.789906 
L 563.622212 145.73658 
z
" style="fill:#065d4c;fill-opacity:0.8;"/>
    <path clip-path="url(#p46ada45054)" d="M 550.351103 155.085195 
L 572.184853 159.94516 
L 585.348374 151.560431 
L 563.645857 146.789906 
z
" style="fill:#0aa384;fill-opacity:0.8;"/>
    <path clip-path="url(#p46ada45054)" d="M 550.321736 154.025496 
L 563.622212 145.73658 
L 585.333548 150.503432 
L 572.164412 158.881757 
z
" style="fill:#08745e;fill-opacity:0.8;"/>
    <path clip-path="url(#p46ada45054)" d="M 572.164412 158.881757 
L 585.333548 150.503432 
L 585.348374 151.560431 
L 572.184853 159.94516 
z
" style="fill:#0cba97;fill-opacity:0.8;"/>
    <path clip-path="url(#p46ada45054)" d="M 550.321736 154.025496 
L 572.164412 158.881757 
L 572.184853 159.94516 
L 550.351103 155.085195 
z
" style="fill:#065d4c;fill-opacity:0.8;"/>
   </g>
   <g id="Poly3DCollection_21">
    <path clip-path="url(#p46ada45054)" d="M 676.683332 148.284797 
L 676.773236 144.116018 
L 699.191108 148.895675 
L 699.064185 153.079046 
z
" style="fill:#065d4c;fill-opacity:0.8;"/>
    <path clip-path="url(#p46ada45054)" d="M 664.400018 156.621448 
L 664.470632 152.427347 
L 676.773236 144.116018 
L 676.683332 148.284797 
z
" style="fill:#0cba97;fill-opacity:0.8;"/>
    <path clip-path="url(#p46ada45054)" d="M 664.400018 156.621448 
L 676.683332 148.284797 
L 699.064185 153.079046 
L 686.92439 161.505882 
z
" style="fill:#08745e;fill-opacity:0.8;"/>
    <path clip-path="url(#p46ada45054)" d="M 664.470632 152.427347 
L 687.032502 157.297062 
L 699.191108 148.895675 
L 676.773236 144.116018 
z
" style="fill:#0aa384;fill-opacity:0.8;"/>
    <path clip-path="url(#p46ada45054)" d="M 686.92439 161.505882 
L 699.064185 153.079046 
L 699.191108 148.895675 
L 687.032502 157.297062 
z
" style="fill:#065d4c;fill-opacity:0.8;"/>
    <path clip-path="url(#p46ada45054)" d="M 664.400018 156.621448 
L 686.92439 161.505882 
L 687.032502 157.297062 
L 664.470632 152.427347 
z
" style="fill:#0cba97;fill-opacity:0.8;"/>
   </g>
   <g id="Poly3DCollection_22">
    <path clip-path="url(#p46ada45054)" d="M 607.278612 155.3216 
L 607.28704 156.859148 
L 629.456277 161.734841 
L 629.461196 160.191917 
z
" style="fill:#0cba97;fill-opacity:0.8;"/>
    <path clip-path="url(#p46ada45054)" d="M 594.244441 163.790789 
L 594.26085 165.337664 
L 607.28704 156.859148 
L 607.278612 155.3216 
z
" style="fill:#065d4c;fill-opacity:0.8;"/>
    <path clip-path="url(#p46ada45054)" d="M 594.26085 165.337664 
L 616.568608 170.305752 
L 629.456277 161.734841 
L 607.28704 156.859148 
z
" style="fill:#0aa384;fill-opacity:0.8;"/>
    <path clip-path="url(#p46ada45054)" d="M 594.244441 163.790789 
L 607.278612 155.3216 
L 629.461196 160.191917 
L 616.565714 168.753456 
z
" style="fill:#08745e;fill-opacity:0.8;"/>
    <path clip-path="url(#p46ada45054)" d="M 616.565714 168.753456 
L 629.461196 160.191917 
L 629.456277 161.734841 
L 616.568608 170.305752 
z
" style="fill:#0cba97;fill-opacity:0.8;"/>
    <path clip-path="url(#p46ada45054)" d="M 594.244441 163.790789 
L 616.565714 168.753456 
L 616.568608 170.305752 
L 594.26085 165.337664 
z
" style="fill:#065d4c;fill-opacity:0.8;"/>
   </g>
   <g id="Poly3DCollection_23">
    <path clip-path="url(#p46ada45054)" d="M 721.68667 157.925056 
L 721.68667 157.925056 
L 744.554719 162.823669 
L 744.554719 162.823669 
z
" style="fill:#065d4c;fill-opacity:0.8;"/>
    <path clip-path="url(#p46ada45054)" d="M 709.694237 166.443548 
L 709.694237 166.443548 
L 721.68667 157.925056 
L 721.68667 157.925056 
z
" style="fill:#065d4c;fill-opacity:0.8;"/>
    <path clip-path="url(#p46ada45054)" d="M 709.694237 166.443548 
L 732.713595 171.435321 
L 744.554719 162.823669 
L 721.68667 157.925056 
z
" style="fill:#0aa384;fill-opacity:0.8;"/>
    <path clip-path="url(#p46ada45054)" d="M 709.694237 166.443548 
L 721.68667 157.925056 
L 744.554719 162.823669 
L 732.713595 171.435321 
z
" style="fill:#08745e;fill-opacity:0.8;"/>
    <path clip-path="url(#p46ada45054)" d="M 732.713595 171.435321 
L 744.554719 162.823669 
L 744.554719 162.823669 
L 732.713595 171.435321 
z
" style="fill:#065d4c;fill-opacity:0.8;"/>
    <path clip-path="url(#p46ada45054)" d="M 709.694237 166.443548 
L 732.713595 171.435321 
L 732.713595 171.435321 
L 709.694237 166.443548 
z
" style="fill:#065d4c;fill-opacity:0.8;"/>
   </g>
   <g id="Poly3DCollection_24">
    <path clip-path="url(#p46ada45054)" d="M 651.885179 165.115235 
L 651.885179 165.115235 
L 674.554522 170.092423 
L 674.554522 170.092423 
z
" style="fill:#065d4c;fill-opacity:0.8;"/>
    <path clip-path="url(#p46ada45054)" d="M 639.132206 173.770642 
L 639.132206 173.770642 
L 651.885179 165.115235 
L 651.885179 165.115235 
z
" style="fill:#065d4c;fill-opacity:0.8;"/>
    <path clip-path="url(#p46ada45054)" d="M 639.132206 173.770642 
L 651.885179 165.115235 
L 674.554522 170.092423 
L 661.94798 178.843251 
z
" style="fill:#08745e;fill-opacity:0.8;"/>
    <path clip-path="url(#p46ada45054)" d="M 639.132206 173.770642 
L 661.94798 178.843251 
L 674.554522 170.092423 
L 651.885179 165.115235 
z
" style="fill:#0aa384;fill-opacity:0.8;"/>
    <path clip-path="url(#p46ada45054)" d="M 661.94798 178.843251 
L 674.554522 170.092423 
L 674.554522 170.092423 
L 661.94798 178.843251 
z
" style="fill:#065d4c;fill-opacity:0.8;"/>
    <path clip-path="url(#p46ada45054)" d="M 639.132206 173.770642 
L 661.94798 178.843251 
L 661.94798 178.843251 
L 639.132206 173.770642 
z
" style="fill:#065d4c;fill-opacity:0.8;"/>
   </g>
   <g id="Poly3DCollection_25">
    <path clip-path="url(#p46ada45054)" d="M 536.771291 162.470194 
L 536.50278 154.360958 
L 558.54662 159.280593 
L 558.746425 167.418403 
z
" style="fill:#065d4c;fill-opacity:0.8;"/>
    <path clip-path="url(#p46ada45054)" d="M 522.963764 171.075106 
L 522.648426 162.916288 
L 536.50278 154.360958 
L 536.771291 162.470194 
z
" style="fill:#0cba97;fill-opacity:0.8;"/>
    <path clip-path="url(#p46ada45054)" d="M 522.963764 171.075106 
L 536.771291 162.470194 
L 558.746425 167.418403 
L 545.072467 176.117901 
z
" style="fill:#08745e;fill-opacity:0.8;"/>
    <path clip-path="url(#p46ada45054)" d="M 522.648426 162.916288 
L 544.826666 167.930266 
L 558.54662 159.280593 
L 536.50278 154.360958 
z
" style="fill:#0aa384;fill-opacity:0.8;"/>
    <path clip-path="url(#p46ada45054)" d="M 545.072467 176.117901 
L 558.746425 167.418403 
L 558.54662 159.280593 
L 544.826666 167.930266 
z
" style="fill:#065d4c;fill-opacity:0.8;"/>
    <path clip-path="url(#p46ada45054)" d="M 522.963764 171.075106 
L 545.072467 176.117901 
L 544.826666 167.930266 
L 522.648426 162.916288 
z
" style="fill:#0cba97;fill-opacity:0.8;"/>
   </g>
   <g id="Poly3DCollection_26">
    <path clip-path="url(#p46ada45054)" d="M 580.96262 172.420893 
L 580.96262 172.420893 
L 603.423866 177.478562 
L 603.423866 177.478562 
z
" style="fill:#065d4c;fill-opacity:0.8;"/>
    <path clip-path="url(#p46ada45054)" d="M 567.426023 181.216544 
L 567.426023 181.216544 
L 580.96262 172.420893 
L 580.96262 172.420893 
z
" style="fill:#065d4c;fill-opacity:0.8;"/>
    <path clip-path="url(#p46ada45054)" d="M 567.426023 181.216544 
L 580.96262 172.420893 
L 603.423866 177.478562 
L 590.028521 186.371969 
z
" style="fill:#08745e;fill-opacity:0.8;"/>
    <path clip-path="url(#p46ada45054)" d="M 567.426023 181.216544 
L 590.028521 186.371969 
L 603.423866 177.478562 
L 580.96262 172.420893 
z
" style="fill:#0aa384;fill-opacity:0.8;"/>
    <path clip-path="url(#p46ada45054)" d="M 590.028521 186.371969 
L 603.423866 177.478562 
L 603.423866 177.478562 
L 590.028521 186.371969 
z
" style="fill:#065d4c;fill-opacity:0.8;"/>
    <path clip-path="url(#p46ada45054)" d="M 567.426023 181.216544 
L 590.028521 186.371969 
L 590.028521 186.371969 
L 567.426023 181.216544 
z
" style="fill:#065d4c;fill-opacity:0.8;"/>
   </g>
   <g id="Poly3DCollection_27">
    <path clip-path="url(#p46ada45054)" d="M 697.473275 175.12437 
L 697.346316 179.359605 
L 720.479074 184.46208 
L 720.645577 180.211986 
z
" style="fill:#0cba97;fill-opacity:0.8;"/>
    <path clip-path="url(#p46ada45054)" d="M 685.017189 183.972206 
L 684.909974 188.233223 
L 697.346316 179.359605 
L 697.473275 175.12437 
z
" style="fill:#065d4c;fill-opacity:0.8;"/>
    <path clip-path="url(#p46ada45054)" d="M 684.909974 188.233223 
L 708.196788 193.434448 
L 720.479074 184.46208 
L 697.346316 179.359605 
z
" style="fill:#0aa384;fill-opacity:0.8;"/>
    <path clip-path="url(#p46ada45054)" d="M 685.017189 183.972206 
L 697.473275 175.12437 
L 720.645577 180.211986 
L 708.344079 189.158451 
z
" style="fill:#08745e;fill-opacity:0.8;"/>
    <path clip-path="url(#p46ada45054)" d="M 708.344079 189.158451 
L 720.645577 180.211986 
L 720.479074 184.46208 
L 708.196788 193.434448 
z
" style="fill:#0cba97;fill-opacity:0.8;"/>
    <path clip-path="url(#p46ada45054)" d="M 685.017189 183.972206 
L 708.344079 189.158451 
L 708.196788 193.434448 
L 684.909974 188.233223 
z
" style="fill:#065d4c;fill-opacity:0.8;"/>
   </g>
   <g id="Poly3DCollection_28">
    <path clip-path="url(#p46ada45054)" d="M 508.891768 179.844837 
L 508.891768 179.844837 
L 531.135142 184.984954 
L 531.135142 184.984954 
z
" style="fill:#065d4c;fill-opacity:0.8;"/>
    <path clip-path="url(#p46ada45054)" d="M 494.547632 188.784166 
L 494.547632 188.784166 
L 508.891768 179.844837 
L 508.891768 179.844837 
z
" style="fill:#065d4c;fill-opacity:0.8;"/>
    <path clip-path="url(#p46ada45054)" d="M 494.547632 188.784166 
L 516.926768 194.024452 
L 531.135142 184.984954 
L 508.891768 179.844837 
z
" style="fill:#0aa384;fill-opacity:0.8;"/>
    <path clip-path="url(#p46ada45054)" d="M 494.547632 188.784166 
L 508.891768 179.844837 
L 531.135142 184.984954 
L 516.926768 194.024452 
z
" style="fill:#08745e;fill-opacity:0.8;"/>
    <path clip-path="url(#p46ada45054)" d="M 516.926768 194.024452 
L 531.135142 184.984954 
L 531.135142 184.984954 
L 516.926768 194.024452 
z
" style="fill:#065d4c;fill-opacity:0.8;"/>
    <path clip-path="url(#p46ada45054)" d="M 494.547632 188.784166 
L 516.926768 194.024452 
L 516.926768 194.024452 
L 494.547632 188.784166 
z
" style="fill:#065d4c;fill-opacity:0.8;"/>
   </g>
   <g id="Poly3DCollection_29">
    <path clip-path="url(#p46ada45054)" d="M 626.134237 182.592328 
L 626.137223 181.023148 
L 649.115211 186.188413 
L 649.097904 187.763128 
z
" style="fill:#065d4c;fill-opacity:0.8;"/>
    <path clip-path="url(#p46ada45054)" d="M 612.884145 191.585129 
L 612.878872 190.006345 
L 626.137223 181.023148 
L 626.134237 182.592328 
z
" style="fill:#0cba97;fill-opacity:0.8;"/>
    <path clip-path="url(#p46ada45054)" d="M 612.884145 191.585129 
L 626.134237 182.592328 
L 649.097904 187.763128 
L 635.997169 196.857 
z
" style="fill:#08745e;fill-opacity:0.8;"/>
    <path clip-path="url(#p46ada45054)" d="M 612.878872 190.006345 
L 636.006405 195.272636 
L 649.115211 186.188413 
L 626.137223 181.023148 
z
" style="fill:#0aa384;fill-opacity:0.8;"/>
    <path clip-path="url(#p46ada45054)" d="M 635.997169 196.857 
L 649.097904 187.763128 
L 649.115211 186.188413 
L 636.006405 195.272636 
z
" style="fill:#065d4c;fill-opacity:0.8;"/>
    <path clip-path="url(#p46ada45054)" d="M 612.884145 191.585129 
L 635.997169 196.857 
L 636.006405 195.272636 
L 612.878872 190.006345 
z
" style="fill:#0cba97;fill-opacity:0.8;"/>
   </g>
   <g id="Poly3DCollection_30">
    <path clip-path="url(#p46ada45054)" d="M 553.627246 190.182549 
L 553.84737 198.395852 
L 576.51925 203.680734 
L 576.372276 195.438592 
z
" style="fill:#0cba97;fill-opacity:0.8;"/>
    <path clip-path="url(#p46ada45054)" d="M 539.5586 199.323908 
L 539.827068 207.587244 
L 553.84737 198.395852 
L 553.627246 190.182549 
z
" style="fill:#065d4c;fill-opacity:0.8;"/>
    <path clip-path="url(#p46ada45054)" d="M 539.827068 207.587244 
L 562.641831 212.975942 
L 576.51925 203.680734 
L 553.84737 198.395852 
z
" style="fill:#0aa384;fill-opacity:0.8;"/>
    <path clip-path="url(#p46ada45054)" d="M 539.5586 199.323908 
L 553.627246 190.182549 
L 576.372276 195.438592 
L 562.447431 204.683543 
z
" style="fill:#08745e;fill-opacity:0.8;"/>
    <path clip-path="url(#p46ada45054)" d="M 562.447431 204.683543 
L 576.372276 195.438592 
L 576.51925 203.680734 
L 562.641831 212.975942 
z
" style="fill:#0cba97;fill-opacity:0.8;"/>
    <path clip-path="url(#p46ada45054)" d="M 539.5586 199.323908 
L 562.447431 204.683543 
L 562.641831 212.975942 
L 539.827068 207.587244 
z
" style="fill:#065d4c;fill-opacity:0.8;"/>
   </g>
   <g id="Poly3DCollection_31">
    <path clip-path="url(#p46ada45054)" d="M 672.319126 192.991923 
L 672.221166 197.837069 
L 695.658394 203.141898 
L 695.802261 198.279694 
z
" style="fill:#0cba97;fill-opacity:0.8;"/>
    <path clip-path="url(#p46ada45054)" d="M 659.371967 202.188579 
L 659.298157 207.063319 
L 672.221166 197.837069 
L 672.319126 192.991923 
z
" style="fill:#065d4c;fill-opacity:0.8;"/>
    <path clip-path="url(#p46ada45054)" d="M 659.298157 207.063319 
L 682.892672 212.472818 
L 695.658394 203.141898 
L 672.221166 197.837069 
z
" style="fill:#0aa384;fill-opacity:0.8;"/>
    <path clip-path="url(#p46ada45054)" d="M 659.371967 202.188579 
L 672.319126 192.991923 
L 695.802261 198.279694 
L 683.013011 207.580887 
z
" style="fill:#08745e;fill-opacity:0.8;"/>
    <path clip-path="url(#p46ada45054)" d="M 683.013011 207.580887 
L 695.802261 198.279694 
L 695.658394 203.141898 
L 682.892672 212.472818 
z
" style="fill:#0cba97;fill-opacity:0.8;"/>
    <path clip-path="url(#p46ada45054)" d="M 659.371967 202.188579 
L 683.013011 207.580887 
L 682.892672 212.472818 
L 659.298157 207.063319 
z
" style="fill:#065d4c;fill-opacity:0.8;"/>
   </g>
   <g id="Poly3DCollection_32">
    <path clip-path="url(#p46ada45054)" d="M 599.374521 200.754073 
L 599.364965 199.658678 
L 622.638949 205.030735 
L 622.638369 206.130007 
z
" style="fill:#065d4c;fill-opacity:0.8;"/>
    <path clip-path="url(#p46ada45054)" d="M 585.597664 210.104388 
L 585.581954 209.002266 
L 599.364965 199.658678 
L 599.374521 200.754073 
z
" style="fill:#0cba97;fill-opacity:0.8;"/>
    <path clip-path="url(#p46ada45054)" d="M 585.597664 210.104388 
L 599.374521 200.754073 
L 622.638369 206.130007 
L 609.013803 215.587497 
z
" style="fill:#08745e;fill-opacity:0.8;"/>
    <path clip-path="url(#p46ada45054)" d="M 585.581954 209.002266 
L 609.008361 214.481469 
L 622.638949 205.030735 
L 599.364965 199.658678 
z
" style="fill:#0aa384;fill-opacity:0.8;"/>
    <path clip-path="url(#p46ada45054)" d="M 609.013803 215.587497 
L 622.638369 206.130007 
L 622.638949 205.030735 
L 609.008361 214.481469 
z
" style="fill:#065d4c;fill-opacity:0.8;"/>
    <path clip-path="url(#p46ada45054)" d="M 585.597664 210.104388 
L 609.013803 215.587497 
L 609.008361 214.481469 
L 585.581954 209.002266 
z
" style="fill:#0cba97;fill-opacity:0.8;"/>
   </g>
   <g id="Poly3DCollection_33">
    <path clip-path="url(#p46ada45054)" d="M 646.168309 211.567431 
L 646.163059 212.096367 
L 669.958597 217.598216 
L 669.968933 217.067406 
z
" style="fill:#0cba97;fill-opacity:0.8;"/>
    <path clip-path="url(#p46ada45054)" d="M 632.700454 221.133949 
L 632.698025 221.666135 
L 646.163059 212.096367 
L 646.168309 211.567431 
z
" style="fill:#065d4c;fill-opacity:0.8;"/>
    <path clip-path="url(#p46ada45054)" d="M 632.698025 221.666135 
L 656.654749 227.278921 
L 669.958597 217.598216 
L 646.163059 212.096367 
z
" style="fill:#0aa384;fill-opacity:0.8;"/>
    <path clip-path="url(#p46ada45054)" d="M 632.700454 221.133949 
L 646.168309 211.567431 
L 669.968933 217.067406 
L 656.662334 226.744849 
z
" style="fill:#08745e;fill-opacity:0.8;"/>
    <path clip-path="url(#p46ada45054)" d="M 656.662334 226.744849 
L 669.968933 217.067406 
L 669.958597 217.598216 
L 656.654749 227.278921 
z
" style="fill:#0cba97;fill-opacity:0.8;"/>
    <path clip-path="url(#p46ada45054)" d="M 632.700454 221.133949 
L 656.662334 226.744849 
L 656.654749 227.278921 
L 632.698025 221.666135 
z
" style="fill:#065d4c;fill-opacity:0.8;"/>
   </g>
   <g id="Poly3DCollection_34">
    <path clip-path="url(#p46ada45054)" d="M 481.67125 190.121237 
L 660.414386 232.171408 
L 756.690534 161.563498 
L 586.493167 125.259791 
z
" style="fill-opacity:0.2;"/>
   </g>
  </g>
 </g>
 <defs>
  <clipPath id="pd1fe87d5b3">
   <rect height="277.2" width="380.454545" x="-30.6" y="-14.4"/>
  </clipPath>
  <clipPath id="p46ada45054">
   <rect height="277.2" width="380.454545" x="425.945455" y="-14.4"/>
  </clipPath>
 </defs>
</svg>
