<?xml version="1.0" encoding="utf-8" standalone="no"?>
<!DOCTYPE svg PUBLIC "-//W3C//DTD SVG 1.1//EN"
  "http://www.w3.org/Graphics/SVG/1.1/DTD/svg11.dtd">
<!-- Created with matplotlib (https://matplotlib.org/) -->
<svg height="542.8356pt" version="1.1" viewBox="0 0 1410.58248 542.8356" width="1410.58248pt" xmlns="http://www.w3.org/2000/svg" xmlns:xlink="http://www.w3.org/1999/xlink">
 <defs>
  <style type="text/css">
*{stroke-linecap:butt;stroke-linejoin:round;}
  </style>
 </defs>
 <g id="figure_1">
  <g id="patch_1">
   <path d="M 0 542.8356 
L 1410.58248 542.8356 
L 1410.58248 0 
L 0 0 
z
" style="fill:#ffffff;"/>
  </g>
  <g id="axes_1">
   <g id="line2d_1">
    <path clip-path="url(#pfb94446b9d)" d="M 216.72008 44.2832 
L 1398.74708 44.2832 
" style="fill:none;stroke:#000000;stroke-linecap:square;stroke-width:2;"/>
   </g>
   <g id="line2d_2">
    <path clip-path="url(#pfb94446b9d)" d="M 216.72008 90.6372 
L 1398.74708 90.6372 
" style="fill:none;stroke:#000000;stroke-linecap:square;stroke-width:2;"/>
   </g>
   <g id="line2d_3">
    <path clip-path="url(#pfb94446b9d)" d="M 216.72008 136.9912 
L 1398.74708 136.9912 
" style="fill:none;stroke:#000000;stroke-linecap:square;stroke-width:2;"/>
   </g>
   <g id="line2d_4">
    <path clip-path="url(#pfb94446b9d)" d="M 216.72008 183.3452 
L 1398.74708 183.3452 
" style="fill:none;stroke:#000000;stroke-linecap:square;stroke-width:2;"/>
   </g>
   <g id="line2d_5">
    <path clip-path="url(#pfb94446b9d)" d="M 216.72008 229.6992 
L 1398.74708 229.6992 
" style="fill:none;stroke:#000000;stroke-linecap:square;stroke-width:2;"/>
   </g>
   <g id="line2d_6">
    <path clip-path="url(#pfb94446b9d)" d="M 216.72008 322.4072 
L 1398.74708 322.4072 
" style="fill:none;stroke:#000000;stroke-linecap:square;stroke-width:2;"/>
   </g>
   <g id="line2d_7">
    <path clip-path="url(#pfb94446b9d)" d="M 216.72008 368.7612 
L 1398.74708 368.7612 
" style="fill:none;stroke:#000000;stroke-linecap:square;stroke-width:2;"/>
   </g>
   <g id="line2d_8">
    <path clip-path="url(#pfb94446b9d)" d="M 216.72008 415.1152 
L 1398.74708 415.1152 
" style="fill:none;stroke:#000000;stroke-linecap:square;stroke-width:2;"/>
   </g>
   <g id="line2d_9">
    <path clip-path="url(#pfb94446b9d)" d="M 216.72008 461.4692 
L 1398.74708 461.4692 
" style="fill:none;stroke:#000000;stroke-linecap:square;stroke-width:2;"/>
   </g>
   <g id="line2d_10">
    <path clip-path="url(#pfb94446b9d)" d="M 216.72008 507.8232 
L 1398.74708 507.8232 
" style="fill:none;stroke:#000000;stroke-linecap:square;stroke-width:2;"/>
   </g>
   <g id="patch_2">
    <path clip-path="url(#pfb94446b9d)" d="M 601.69005 252.8762 
L 619.76811 252.8762 
L 619.76811 21.1062 
L 601.69005 21.1062 
z
" style="fill:#bdbdbd;opacity:0.6;"/>
   </g>
   <g id="patch_3">
    <path clip-path="url(#pfb94446b9d)" d="M 1018.87605 252.8762 
L 1036.95411 252.8762 
L 1036.95411 21.1062 
L 1018.87605 21.1062 
z
" style="fill:#bdbdbd;opacity:0.6;"/>
   </g>
   <g id="line2d_11">
    <path clip-path="url(#pfb94446b9d)" d="M 263.07408 229.6992 
L 263.07408 183.3452 
" style="fill:none;stroke:#6fa4ff;stroke-linecap:square;stroke-width:2;"/>
   </g>
   <g id="line2d_12">
    <path clip-path="url(#pfb94446b9d)" d="M 332.60508 90.6372 
L 332.60508 44.2832 
" style="fill:none;stroke:#6fa4ff;stroke-linecap:square;stroke-width:2;"/>
   </g>
   <g id="line2d_13">
    <path clip-path="url(#pfb94446b9d)" d="M 332.60508 229.6992 
L 332.60508 183.3452 
" style="fill:none;stroke:#6fa4ff;stroke-linecap:square;stroke-width:2;"/>
   </g>
   <g id="line2d_14">
    <path clip-path="url(#pfb94446b9d)" d="M 378.95908 90.6372 
L 378.95908 44.2832 
" style="fill:none;stroke:#6fa4ff;stroke-linecap:square;stroke-width:2;"/>
   </g>
   <g id="line2d_15">
    <path clip-path="url(#pfb94446b9d)" d="M 378.95908 229.6992 
L 378.95908 183.3452 
" style="fill:none;stroke:#6fa4ff;stroke-linecap:square;stroke-width:2;"/>
   </g>
   <g id="line2d_16">
    <path clip-path="url(#pfb94446b9d)" d="M 448.49008 90.6372 
L 448.49008 44.2832 
" style="fill:none;stroke:#6fa4ff;stroke-linecap:square;stroke-width:2;"/>
   </g>
   <g id="line2d_17">
    <path clip-path="url(#pfb94446b9d)" d="M 518.02108 183.3452 
L 518.02108 90.6372 
" style="fill:none;stroke:#6fa4ff;stroke-linecap:square;stroke-width:2;"/>
   </g>
   <g id="line2d_18">
    <path clip-path="url(#pfb94446b9d)" d="M 564.37508 90.6372 
L 564.37508 44.2832 
" style="fill:none;stroke:#6fa4ff;stroke-linecap:square;stroke-width:2;"/>
   </g>
   <g id="line2d_19">
    <path clip-path="url(#pfb94446b9d)" d="M 749.79108 136.9912 
L 749.79108 90.6372 
" style="fill:none;stroke:#6fa4ff;stroke-linecap:square;stroke-width:2;"/>
   </g>
   <g id="line2d_20">
    <path clip-path="url(#pfb94446b9d)" d="M 796.14508 136.9912 
L 796.14508 90.6372 
" style="fill:none;stroke:#6fa4ff;stroke-linecap:square;stroke-width:2;"/>
   </g>
   <g id="line2d_21">
    <path clip-path="url(#pfb94446b9d)" d="M 842.49908 136.9912 
L 842.49908 90.6372 
" style="fill:none;stroke:#6fa4ff;stroke-linecap:square;stroke-width:2;"/>
   </g>
   <g id="line2d_22">
    <path clip-path="url(#pfb94446b9d)" d="M 888.85308 90.6372 
L 888.85308 44.2832 
" style="fill:none;stroke:#6fa4ff;stroke-linecap:square;stroke-width:2;"/>
   </g>
   <g id="line2d_23">
    <path clip-path="url(#pfb94446b9d)" d="M 981.56108 90.6372 
L 981.56108 44.2832 
" style="fill:none;stroke:#6fa4ff;stroke-linecap:square;stroke-width:2;"/>
   </g>
   <g id="line2d_24">
    <path clip-path="url(#pfb94446b9d)" d="M 1097.44608 136.9912 
L 1097.44608 90.6372 
" style="fill:none;stroke:#6fa4ff;stroke-linecap:square;stroke-width:2;"/>
   </g>
   <g id="line2d_25">
    <path clip-path="url(#pfb94446b9d)" d="M 1097.44608 229.6992 
L 1097.44608 183.3452 
" style="fill:none;stroke:#6fa4ff;stroke-linecap:square;stroke-width:2;"/>
   </g>
   <g id="line2d_26">
    <path clip-path="url(#pfb94446b9d)" d="M 1166.97708 136.9912 
L 1166.97708 90.6372 
" style="fill:none;stroke:#6fa4ff;stroke-linecap:square;stroke-width:2;"/>
   </g>
   <g id="line2d_27">
    <path clip-path="url(#pfb94446b9d)" d="M 1166.97708 229.6992 
L 1166.97708 183.3452 
" style="fill:none;stroke:#6fa4ff;stroke-linecap:square;stroke-width:2;"/>
   </g>
   <g id="line2d_28">
    <path clip-path="url(#pfb94446b9d)" d="M 1213.33108 136.9912 
L 1213.33108 90.6372 
" style="fill:none;stroke:#6fa4ff;stroke-linecap:square;stroke-width:2;"/>
   </g>
   <g id="line2d_29">
    <path clip-path="url(#pfb94446b9d)" d="M 1213.33108 229.6992 
L 1213.33108 183.3452 
" style="fill:none;stroke:#6fa4ff;stroke-linecap:square;stroke-width:2;"/>
   </g>
   <g id="line2d_30">
    <path clip-path="url(#pfb94446b9d)" d="M 1282.86208 183.3452 
L 1282.86208 90.6372 
" style="fill:none;stroke:#6fa4ff;stroke-linecap:square;stroke-width:2;"/>
   </g>
   <g id="line2d_31">
    <path clip-path="url(#pfb94446b9d)" d="M 1352.39308 90.6372 
L 1352.39308 44.2832 
" style="fill:none;stroke:#6fa4ff;stroke-linecap:square;stroke-width:2;"/>
   </g>
   <g id="line2d_32">
    <path clip-path="url(#pfb94446b9d)" d="M 1352.39308 229.6992 
L 1352.39308 183.3452 
" style="fill:none;stroke:#6fa4ff;stroke-linecap:square;stroke-width:2;"/>
   </g>
   <g id="line2d_33">
    <path clip-path="url(#pfb94446b9d)" d="M 239.89708 368.7612 
L 239.89708 322.4072 
" style="fill:none;stroke:#6fa4ff;stroke-linecap:square;stroke-width:2;"/>
   </g>
   <g id="line2d_34">
    <path clip-path="url(#pfb94446b9d)" d="M 239.89708 507.8232 
L 239.89708 461.4692 
" style="fill:none;stroke:#6fa4ff;stroke-linecap:square;stroke-width:2;"/>
   </g>
   <g id="line2d_35">
    <path clip-path="url(#pfb94446b9d)" d="M 286.25108 368.7612 
L 286.25108 322.4072 
" style="fill:none;stroke:#6fa4ff;stroke-linecap:square;stroke-width:2;"/>
   </g>
   <g id="line2d_36">
    <path clip-path="url(#pfb94446b9d)" d="M 286.25108 507.8232 
L 286.25108 461.4692 
" style="fill:none;stroke:#6fa4ff;stroke-linecap:square;stroke-width:2;"/>
   </g>
   <g id="line2d_37">
    <path clip-path="url(#pfb94446b9d)" d="M 355.78208 461.4692 
L 355.78208 368.7612 
" style="fill:none;stroke:#6fa4ff;stroke-linecap:square;stroke-width:2;"/>
   </g>
   <g id="line2d_38">
    <path clip-path="url(#pfb94446b9d)" d="M 518.02108 368.7612 
L 518.02108 322.4072 
" style="fill:none;stroke:#6fa4ff;stroke-linecap:square;stroke-width:2;"/>
   </g>
   <g id="line2d_39">
    <path clip-path="url(#pfb94446b9d)" d="M 657.08308 461.4692 
L 657.08308 368.7612 
" style="fill:none;stroke:#6fa4ff;stroke-linecap:square;stroke-width:2;"/>
   </g>
   <g id="line2d_40">
    <path clip-path="url(#pfb94446b9d)" d="M 703.43708 461.4692 
L 703.43708 368.7612 
" style="fill:none;stroke:#6fa4ff;stroke-linecap:square;stroke-width:2;"/>
   </g>
   <g id="line2d_41">
    <path clip-path="url(#pfb94446b9d)" d="M 749.79108 461.4692 
L 749.79108 368.7612 
" style="fill:none;stroke:#6fa4ff;stroke-linecap:square;stroke-width:2;"/>
   </g>
   <g id="line2d_42">
    <path clip-path="url(#pfb94446b9d)" d="M 796.14508 507.8232 
L 796.14508 461.4692 
" style="fill:none;stroke:#6fa4ff;stroke-linecap:square;stroke-width:2;"/>
   </g>
   <g id="line2d_43">
    <path clip-path="url(#pfb94446b9d)" d="M 1295.8412 44.2832 
L 1295.8412 229.6992 
" style="fill:none;stroke:#000000;stroke-linecap:square;stroke-width:1.5;"/>
   </g>
   <g id="line2d_44">
    <path clip-path="url(#pfb94446b9d)" d="M 1305.112 44.2832 
L 1305.112 229.6992 
" style="fill:none;stroke:#000000;stroke-linecap:square;stroke-width:1.5;"/>
   </g>
   <g id="line2d_45">
    <path clip-path="url(#pfb94446b9d)" d="M 99.908 322.4072 
L 99.908 507.8232 
" style="fill:none;stroke:#000000;stroke-linecap:square;stroke-width:1.5;"/>
   </g>
   <g id="line2d_46">
    <path clip-path="url(#pfb94446b9d)" d="M 109.1788 322.4072 
L 109.1788 507.8232 
" style="fill:none;stroke:#000000;stroke-linecap:square;stroke-width:1.5;"/>
   </g>
   <g id="patch_4">
    <path clip-path="url(#pfb94446b9d)" d="M 248.00903 59.34825 
L 278.13913 59.34825 
L 278.13913 29.21815 
L 248.00903 29.21815 
z
" style="fill:#fa74a6;"/>
   </g>
   <g id="patch_5">
    <path clip-path="url(#pfb94446b9d)" d="M 263.07408 187.864715 
C 264.272669 187.864715 265.422329 187.38851 266.26986 186.54098 
C 267.11739 185.693449 267.593595 184.543789 267.593595 183.3452 
C 267.593595 182.146611 267.11739 180.996951 266.26986 180.14942 
C 265.422329 179.30189 264.272669 178.825685 263.07408 178.825685 
C 261.875491 178.825685 260.725831 179.30189 259.8783 180.14942 
C 259.03077 180.996951 258.554565 182.146611 258.554565 183.3452 
C 258.554565 184.543789 259.03077 185.693449 259.8783 186.54098 
C 260.725831 187.38851 261.875491 187.864715 263.07408 187.864715 
z
" style="fill:#6fa4ff;stroke:#6fa4ff;stroke-linejoin:miter;stroke-width:1.5;"/>
   </g>
   <g id="patch_6">
    <path clip-path="url(#pfb94446b9d)" d="M 263.07408 240.244735 
C 265.870789 240.244735 268.553328 239.133591 270.530899 237.156019 
C 272.508471 235.178448 273.619615 232.495909 273.619615 229.6992 
C 273.619615 226.902491 272.508471 224.219952 270.530899 222.242381 
C 268.553328 220.264809 265.870789 219.153665 263.07408 219.153665 
C 260.277371 219.153665 257.594832 220.264809 255.617261 222.242381 
C 253.639689 224.219952 252.528545 226.902491 252.528545 229.6992 
C 252.528545 232.495909 253.639689 235.178448 255.617261 237.156019 
C 257.594832 239.133591 260.277371 240.244735 263.07408 240.244735 
z
" style="fill:#6fa4ff;stroke:#6fa4ff;stroke-linejoin:miter;stroke-width:2;"/>
   </g>
   <g id="patch_7">
    <path clip-path="url(#pfb94446b9d)" d="M 332.60508 48.802715 
C 333.803669 48.802715 334.953329 48.32651 335.80086 47.47898 
C 336.64839 46.631449 337.124595 45.481789 337.124595 44.2832 
C 337.124595 43.084611 336.64839 41.934951 335.80086 41.08742 
C 334.953329 40.23989 333.803669 39.763685 332.60508 39.763685 
C 331.406491 39.763685 330.256831 40.23989 329.4093 41.08742 
C 328.56177 41.934951 328.085565 43.084611 328.085565 44.2832 
C 328.085565 45.481789 328.56177 46.631449 329.4093 47.47898 
C 330.256831 48.32651 331.406491 48.802715 332.60508 48.802715 
z
" style="fill:#6fa4ff;stroke:#6fa4ff;stroke-linejoin:miter;stroke-width:1.5;"/>
   </g>
   <g id="patch_8">
    <path clip-path="url(#pfb94446b9d)" d="M 332.60508 101.182735 
C 335.401789 101.182735 338.084328 100.071591 340.061899 98.094019 
C 342.039471 96.116448 343.150615 93.433909 343.150615 90.6372 
C 343.150615 87.840491 342.039471 85.157952 340.061899 83.180381 
C 338.084328 81.202809 335.401789 80.091665 332.60508 80.091665 
C 329.808371 80.091665 327.125832 81.202809 325.148261 83.180381 
C 323.170689 85.157952 322.059545 87.840491 322.059545 90.6372 
C 322.059545 93.433909 323.170689 96.116448 325.148261 98.094019 
C 327.125832 100.071591 329.808371 101.182735 332.60508 101.182735 
z
" style="fill:#6fa4ff;stroke:#6fa4ff;stroke-linejoin:miter;stroke-width:2;"/>
   </g>
   <g id="patch_9">
    <path clip-path="url(#pfb94446b9d)" d="M 332.60508 234.218715 
C 333.803669 234.218715 334.953329 233.74251 335.80086 232.89498 
C 336.64839 232.047449 337.124595 230.897789 337.124595 229.6992 
C 337.124595 228.500611 336.64839 227.350951 335.80086 226.50342 
C 334.953329 225.65589 333.803669 225.179685 332.60508 225.179685 
C 331.406491 225.179685 330.256831 225.65589 329.4093 226.50342 
C 328.56177 227.350951 328.085565 228.500611 328.085565 229.6992 
C 328.085565 230.897789 328.56177 232.047449 329.4093 232.89498 
C 330.256831 233.74251 331.406491 234.218715 332.60508 234.218715 
z
" style="fill:#6fa4ff;stroke:#6fa4ff;stroke-linejoin:miter;stroke-width:1.5;"/>
   </g>
   <g id="patch_10">
    <path clip-path="url(#pfb94446b9d)" d="M 332.60508 193.890735 
C 335.401789 193.890735 338.084328 192.779591 340.061899 190.802019 
C 342.039471 188.824448 343.150615 186.141909 343.150615 183.3452 
C 343.150615 180.548491 342.039471 177.865952 340.061899 175.888381 
C 338.084328 173.910809 335.401789 172.799665 332.60508 172.799665 
C 329.808371 172.799665 327.125832 173.910809 325.148261 175.888381 
C 323.170689 177.865952 322.059545 180.548491 322.059545 183.3452 
C 322.059545 186.141909 323.170689 188.824448 325.148261 190.802019 
C 327.125832 192.779591 329.808371 193.890735 332.60508 193.890735 
z
" style="fill:#6fa4ff;stroke:#6fa4ff;stroke-linejoin:miter;stroke-width:2;"/>
   </g>
   <g id="patch_11">
    <path clip-path="url(#pfb94446b9d)" d="M 378.95908 95.156715 
C 380.157669 95.156715 381.307329 94.68051 382.15486 93.83298 
C 383.00239 92.985449 383.478595 91.835789 383.478595 90.6372 
C 383.478595 89.438611 383.00239 88.288951 382.15486 87.44142 
C 381.307329 86.59389 380.157669 86.117685 378.95908 86.117685 
C 377.760491 86.117685 376.610831 86.59389 375.7633 87.44142 
C 374.91577 88.288951 374.439565 89.438611 374.439565 90.6372 
C 374.439565 91.835789 374.91577 92.985449 375.7633 93.83298 
C 376.610831 94.68051 377.760491 95.156715 378.95908 95.156715 
z
" style="fill:#6fa4ff;stroke:#6fa4ff;stroke-linejoin:miter;stroke-width:1.5;"/>
   </g>
   <g id="patch_12">
    <path clip-path="url(#pfb94446b9d)" d="M 378.95908 54.828735 
C 381.755789 54.828735 384.438328 53.717591 386.415899 51.740019 
C 388.393471 49.762448 389.504615 47.079909 389.504615 44.2832 
C 389.504615 41.486491 388.393471 38.803952 386.415899 36.826381 
C 384.438328 34.848809 381.755789 33.737665 378.95908 33.737665 
C 376.162371 33.737665 373.479832 34.848809 371.502261 36.826381 
C 369.524689 38.803952 368.413545 41.486491 368.413545 44.2832 
C 368.413545 47.079909 369.524689 49.762448 371.502261 51.740019 
C 373.479832 53.717591 376.162371 54.828735 378.95908 54.828735 
z
" style="fill:#6fa4ff;stroke:#6fa4ff;stroke-linejoin:miter;stroke-width:2;"/>
   </g>
   <g id="patch_13">
    <path clip-path="url(#pfb94446b9d)" d="M 378.95908 187.864715 
C 380.157669 187.864715 381.307329 187.38851 382.15486 186.54098 
C 383.00239 185.693449 383.478595 184.543789 383.478595 183.3452 
C 383.478595 182.146611 383.00239 180.996951 382.15486 180.14942 
C 381.307329 179.30189 380.157669 178.825685 378.95908 178.825685 
C 377.760491 178.825685 376.610831 179.30189 375.7633 180.14942 
C 374.91577 180.996951 374.439565 182.146611 374.439565 183.3452 
C 374.439565 184.543789 374.91577 185.693449 375.7633 186.54098 
C 376.610831 187.38851 377.760491 187.864715 378.95908 187.864715 
z
" style="fill:#6fa4ff;stroke:#6fa4ff;stroke-linejoin:miter;stroke-width:1.5;"/>
   </g>
   <g id="patch_14">
    <path clip-path="url(#pfb94446b9d)" d="M 378.95908 240.244735 
C 381.755789 240.244735 384.438328 239.133591 386.415899 237.156019 
C 388.393471 235.178448 389.504615 232.495909 389.504615 229.6992 
C 389.504615 226.902491 388.393471 224.219952 386.415899 222.242381 
C 384.438328 220.264809 381.755789 219.153665 378.95908 219.153665 
C 376.162371 219.153665 373.479832 220.264809 371.502261 222.242381 
C 369.524689 224.219952 368.413545 226.902491 368.413545 229.6992 
C 368.413545 232.495909 369.524689 235.178448 371.502261 237.156019 
C 373.479832 239.133591 376.162371 240.244735 378.95908 240.244735 
z
" style="fill:#6fa4ff;stroke:#6fa4ff;stroke-linejoin:miter;stroke-width:2;"/>
   </g>
   <g id="patch_15">
    <path clip-path="url(#pfb94446b9d)" d="M 448.49008 48.802715 
C 449.688669 48.802715 450.838329 48.32651 451.68586 47.47898 
C 452.53339 46.631449 453.009595 45.481789 453.009595 44.2832 
C 453.009595 43.084611 452.53339 41.934951 451.68586 41.08742 
C 450.838329 40.23989 449.688669 39.763685 448.49008 39.763685 
C 447.291491 39.763685 446.141831 40.23989 445.2943 41.08742 
C 444.44677 41.934951 443.970565 43.084611 443.970565 44.2832 
C 443.970565 45.481789 444.44677 46.631449 445.2943 47.47898 
C 446.141831 48.32651 447.291491 48.802715 448.49008 48.802715 
z
" style="fill:#6fa4ff;stroke:#6fa4ff;stroke-linejoin:miter;stroke-width:1.5;"/>
   </g>
   <g id="patch_16">
    <path clip-path="url(#pfb94446b9d)" d="M 448.49008 101.182735 
C 451.286789 101.182735 453.969328 100.071591 455.946899 98.094019 
C 457.924471 96.116448 459.035615 93.433909 459.035615 90.6372 
C 459.035615 87.840491 457.924471 85.157952 455.946899 83.180381 
C 453.969328 81.202809 451.286789 80.091665 448.49008 80.091665 
C 445.693371 80.091665 443.010832 81.202809 441.033261 83.180381 
C 439.055689 85.157952 437.944545 87.840491 437.944545 90.6372 
C 437.944545 93.433909 439.055689 96.116448 441.033261 98.094019 
C 443.010832 100.071591 445.693371 101.182735 448.49008 101.182735 
z
" style="fill:#6fa4ff;stroke:#6fa4ff;stroke-linejoin:miter;stroke-width:2;"/>
   </g>
   <g id="patch_17">
    <path clip-path="url(#pfb94446b9d)" d="M 433.42503 244.76425 
L 463.55513 244.76425 
L 463.55513 214.63415 
L 433.42503 214.63415 
z
" style="fill:#fa74a6;"/>
   </g>
   <g id="patch_18">
    <path clip-path="url(#pfb94446b9d)" d="M 518.02108 95.156715 
C 519.219669 95.156715 520.369329 94.68051 521.21686 93.83298 
C 522.06439 92.985449 522.540595 91.835789 522.540595 90.6372 
C 522.540595 89.438611 522.06439 88.288951 521.21686 87.44142 
C 520.369329 86.59389 519.219669 86.117685 518.02108 86.117685 
C 516.822491 86.117685 515.672831 86.59389 514.8253 87.44142 
C 513.97777 88.288951 513.501565 89.438611 513.501565 90.6372 
C 513.501565 91.835789 513.97777 92.985449 514.8253 93.83298 
C 515.672831 94.68051 516.822491 95.156715 518.02108 95.156715 
z
" style="fill:#6fa4ff;stroke:#6fa4ff;stroke-linejoin:miter;stroke-width:1.5;"/>
   </g>
   <g id="patch_19">
    <path clip-path="url(#pfb94446b9d)" d="M 518.02108 193.890735 
C 520.817789 193.890735 523.500328 192.779591 525.477899 190.802019 
C 527.455471 188.824448 528.566615 186.141909 528.566615 183.3452 
C 528.566615 180.548491 527.455471 177.865952 525.477899 175.888381 
C 523.500328 173.910809 520.817789 172.799665 518.02108 172.799665 
C 515.224371 172.799665 512.541832 173.910809 510.564261 175.888381 
C 508.586689 177.865952 507.475545 180.548491 507.475545 183.3452 
C 507.475545 186.141909 508.586689 188.824448 510.564261 190.802019 
C 512.541832 192.779591 515.224371 193.890735 518.02108 193.890735 
z
" style="fill:#6fa4ff;stroke:#6fa4ff;stroke-linejoin:miter;stroke-width:2;"/>
   </g>
   <g id="patch_20">
    <path clip-path="url(#pfb94446b9d)" d="M 564.37508 95.156715 
C 565.573669 95.156715 566.723329 94.68051 567.57086 93.83298 
C 568.41839 92.985449 568.894595 91.835789 568.894595 90.6372 
C 568.894595 89.438611 568.41839 88.288951 567.57086 87.44142 
C 566.723329 86.59389 565.573669 86.117685 564.37508 86.117685 
C 563.176491 86.117685 562.026831 86.59389 561.1793 87.44142 
C 560.33177 88.288951 559.855565 89.438611 559.855565 90.6372 
C 559.855565 91.835789 560.33177 92.985449 561.1793 93.83298 
C 562.026831 94.68051 563.176491 95.156715 564.37508 95.156715 
z
" style="fill:#6fa4ff;stroke:#6fa4ff;stroke-linejoin:miter;stroke-width:1.5;"/>
   </g>
   <g id="patch_21">
    <path clip-path="url(#pfb94446b9d)" d="M 564.37508 54.828735 
C 567.171789 54.828735 569.854328 53.717591 571.831899 51.740019 
C 573.809471 49.762448 574.920615 47.079909 574.920615 44.2832 
C 574.920615 41.486491 573.809471 38.803952 571.831899 36.826381 
C 569.854328 34.848809 567.171789 33.737665 564.37508 33.737665 
C 561.578371 33.737665 558.895832 34.848809 556.918261 36.826381 
C 554.940689 38.803952 553.829545 41.486491 553.829545 44.2832 
C 553.829545 47.079909 554.940689 49.762448 556.918261 51.740019 
C 558.895832 53.717591 561.578371 54.828735 564.37508 54.828735 
z
" style="fill:#6fa4ff;stroke:#6fa4ff;stroke-linejoin:miter;stroke-width:2;"/>
   </g>
   <g id="patch_22">
    <path clip-path="url(#pfb94446b9d)" d="M 665.19503 152.05625 
L 695.32513 152.05625 
L 695.32513 121.92615 
L 665.19503 121.92615 
z
" style="fill:#fa74a6;"/>
   </g>
   <g id="patch_23">
    <path clip-path="url(#pfb94446b9d)" d="M 749.79108 95.156715 
C 750.989669 95.156715 752.139329 94.68051 752.98686 93.83298 
C 753.83439 92.985449 754.310595 91.835789 754.310595 90.6372 
C 754.310595 89.438611 753.83439 88.288951 752.98686 87.44142 
C 752.139329 86.59389 750.989669 86.117685 749.79108 86.117685 
C 748.592491 86.117685 747.442831 86.59389 746.5953 87.44142 
C 745.74777 88.288951 745.271565 89.438611 745.271565 90.6372 
C 745.271565 91.835789 745.74777 92.985449 746.5953 93.83298 
C 747.442831 94.68051 748.592491 95.156715 749.79108 95.156715 
z
" style="fill:#6fa4ff;stroke:#6fa4ff;stroke-linejoin:miter;stroke-width:1.5;"/>
   </g>
   <g id="patch_24">
    <path clip-path="url(#pfb94446b9d)" d="M 749.79108 147.536735 
C 752.587789 147.536735 755.270328 146.425591 757.247899 144.448019 
C 759.225471 142.470448 760.336615 139.787909 760.336615 136.9912 
C 760.336615 134.194491 759.225471 131.511952 757.247899 129.534381 
C 755.270328 127.556809 752.587789 126.445665 749.79108 126.445665 
C 746.994371 126.445665 744.311832 127.556809 742.334261 129.534381 
C 740.356689 131.511952 739.245545 134.194491 739.245545 136.9912 
C 739.245545 139.787909 740.356689 142.470448 742.334261 144.448019 
C 744.311832 146.425591 746.994371 147.536735 749.79108 147.536735 
z
" style="fill:#6fa4ff;stroke:#6fa4ff;stroke-linejoin:miter;stroke-width:2;"/>
   </g>
   <g id="patch_25">
    <path clip-path="url(#pfb94446b9d)" d="M 796.14508 141.510715 
C 797.343669 141.510715 798.493329 141.03451 799.34086 140.18698 
C 800.18839 139.339449 800.664595 138.189789 800.664595 136.9912 
C 800.664595 135.792611 800.18839 134.642951 799.34086 133.79542 
C 798.493329 132.94789 797.343669 132.471685 796.14508 132.471685 
C 794.946491 132.471685 793.796831 132.94789 792.9493 133.79542 
C 792.10177 134.642951 791.625565 135.792611 791.625565 136.9912 
C 791.625565 138.189789 792.10177 139.339449 792.9493 140.18698 
C 793.796831 141.03451 794.946491 141.510715 796.14508 141.510715 
z
" style="fill:#6fa4ff;stroke:#6fa4ff;stroke-linejoin:miter;stroke-width:1.5;"/>
   </g>
   <g id="patch_26">
    <path clip-path="url(#pfb94446b9d)" d="M 796.14508 101.182735 
C 798.941789 101.182735 801.624328 100.071591 803.601899 98.094019 
C 805.579471 96.116448 806.690615 93.433909 806.690615 90.6372 
C 806.690615 87.840491 805.579471 85.157952 803.601899 83.180381 
C 801.624328 81.202809 798.941789 80.091665 796.14508 80.091665 
C 793.348371 80.091665 790.665832 81.202809 788.688261 83.180381 
C 786.710689 85.157952 785.599545 87.840491 785.599545 90.6372 
C 785.599545 93.433909 786.710689 96.116448 788.688261 98.094019 
C 790.665832 100.071591 793.348371 101.182735 796.14508 101.182735 
z
" style="fill:#6fa4ff;stroke:#6fa4ff;stroke-linejoin:miter;stroke-width:2;"/>
   </g>
   <g id="patch_27">
    <path clip-path="url(#pfb94446b9d)" d="M 842.49908 95.156715 
C 843.697669 95.156715 844.847329 94.68051 845.69486 93.83298 
C 846.54239 92.985449 847.018595 91.835789 847.018595 90.6372 
C 847.018595 89.438611 846.54239 88.288951 845.69486 87.44142 
C 844.847329 86.59389 843.697669 86.117685 842.49908 86.117685 
C 841.300491 86.117685 840.150831 86.59389 839.3033 87.44142 
C 838.45577 88.288951 837.979565 89.438611 837.979565 90.6372 
C 837.979565 91.835789 838.45577 92.985449 839.3033 93.83298 
C 840.150831 94.68051 841.300491 95.156715 842.49908 95.156715 
z
" style="fill:#6fa4ff;stroke:#6fa4ff;stroke-linejoin:miter;stroke-width:1.5;"/>
   </g>
   <g id="patch_28">
    <path clip-path="url(#pfb94446b9d)" d="M 842.49908 147.536735 
C 845.295789 147.536735 847.978328 146.425591 849.955899 144.448019 
C 851.933471 142.470448 853.044615 139.787909 853.044615 136.9912 
C 853.044615 134.194491 851.933471 131.511952 849.955899 129.534381 
C 847.978328 127.556809 845.295789 126.445665 842.49908 126.445665 
C 839.702371 126.445665 837.019832 127.556809 835.042261 129.534381 
C 833.064689 131.511952 831.953545 134.194491 831.953545 136.9912 
C 831.953545 139.787909 833.064689 142.470448 835.042261 144.448019 
C 837.019832 146.425591 839.702371 147.536735 842.49908 147.536735 
z
" style="fill:#6fa4ff;stroke:#6fa4ff;stroke-linejoin:miter;stroke-width:2;"/>
   </g>
   <g id="patch_29">
    <path clip-path="url(#pfb94446b9d)" d="M 888.85308 95.156715 
C 890.051669 95.156715 891.201329 94.68051 892.04886 93.83298 
C 892.89639 92.985449 893.372595 91.835789 893.372595 90.6372 
C 893.372595 89.438611 892.89639 88.288951 892.04886 87.44142 
C 891.201329 86.59389 890.051669 86.117685 888.85308 86.117685 
C 887.654491 86.117685 886.504831 86.59389 885.6573 87.44142 
C 884.80977 88.288951 884.333565 89.438611 884.333565 90.6372 
C 884.333565 91.835789 884.80977 92.985449 885.6573 93.83298 
C 886.504831 94.68051 887.654491 95.156715 888.85308 95.156715 
z
" style="fill:#6fa4ff;stroke:#6fa4ff;stroke-linejoin:miter;stroke-width:1.5;"/>
   </g>
   <g id="patch_30">
    <path clip-path="url(#pfb94446b9d)" d="M 888.85308 54.828735 
C 891.649789 54.828735 894.332328 53.717591 896.309899 51.740019 
C 898.287471 49.762448 899.398615 47.079909 899.398615 44.2832 
C 899.398615 41.486491 898.287471 38.803952 896.309899 36.826381 
C 894.332328 34.848809 891.649789 33.737665 888.85308 33.737665 
C 886.056371 33.737665 883.373832 34.848809 881.396261 36.826381 
C 879.418689 38.803952 878.307545 41.486491 878.307545 44.2832 
C 878.307545 47.079909 879.418689 49.762448 881.396261 51.740019 
C 883.373832 53.717591 886.056371 54.828735 888.85308 54.828735 
z
" style="fill:#6fa4ff;stroke:#6fa4ff;stroke-linejoin:miter;stroke-width:2;"/>
   </g>
   <g id="patch_31">
    <path clip-path="url(#pfb94446b9d)" d="M 920.14203 59.34825 
L 950.27213 59.34825 
L 950.27213 29.21815 
L 920.14203 29.21815 
z
" style="fill:#fa74a6;"/>
   </g>
   <g id="patch_32">
    <path clip-path="url(#pfb94446b9d)" d="M 981.56108 95.156715 
C 982.759669 95.156715 983.909329 94.68051 984.75686 93.83298 
C 985.60439 92.985449 986.080595 91.835789 986.080595 90.6372 
C 986.080595 89.438611 985.60439 88.288951 984.75686 87.44142 
C 983.909329 86.59389 982.759669 86.117685 981.56108 86.117685 
C 980.362491 86.117685 979.212831 86.59389 978.3653 87.44142 
C 977.51777 88.288951 977.041565 89.438611 977.041565 90.6372 
C 977.041565 91.835789 977.51777 92.985449 978.3653 93.83298 
C 979.212831 94.68051 980.362491 95.156715 981.56108 95.156715 
z
" style="fill:#6fa4ff;stroke:#6fa4ff;stroke-linejoin:miter;stroke-width:1.5;"/>
   </g>
   <g id="patch_33">
    <path clip-path="url(#pfb94446b9d)" d="M 981.56108 54.828735 
C 984.357789 54.828735 987.040328 53.717591 989.017899 51.740019 
C 990.995471 49.762448 992.106615 47.079909 992.106615 44.2832 
C 992.106615 41.486491 990.995471 38.803952 989.017899 36.826381 
C 987.040328 34.848809 984.357789 33.737665 981.56108 33.737665 
C 978.764371 33.737665 976.081832 34.848809 974.104261 36.826381 
C 972.126689 38.803952 971.015545 41.486491 971.015545 44.2832 
C 971.015545 47.079909 972.126689 49.762448 974.104261 51.740019 
C 976.081832 53.717591 978.764371 54.828735 981.56108 54.828735 
z
" style="fill:#6fa4ff;stroke:#6fa4ff;stroke-linejoin:miter;stroke-width:2;"/>
   </g>
   <g id="patch_34">
    <path clip-path="url(#pfb94446b9d)" d="M 1082.38103 59.34825 
L 1112.51113 59.34825 
L 1112.51113 29.21815 
L 1082.38103 29.21815 
z
" style="fill:#fa74a6;"/>
   </g>
   <g id="patch_35">
    <path clip-path="url(#pfb94446b9d)" d="M 1097.44608 95.156715 
C 1098.644669 95.156715 1099.794329 94.68051 1100.64186 93.83298 
C 1101.48939 92.985449 1101.965595 91.835789 1101.965595 90.6372 
C 1101.965595 89.438611 1101.48939 88.288951 1100.64186 87.44142 
C 1099.794329 86.59389 1098.644669 86.117685 1097.44608 86.117685 
C 1096.247491 86.117685 1095.097831 86.59389 1094.2503 87.44142 
C 1093.40277 88.288951 1092.926565 89.438611 1092.926565 90.6372 
C 1092.926565 91.835789 1093.40277 92.985449 1094.2503 93.83298 
C 1095.097831 94.68051 1096.247491 95.156715 1097.44608 95.156715 
z
" style="fill:#6fa4ff;stroke:#6fa4ff;stroke-linejoin:miter;stroke-width:1.5;"/>
   </g>
   <g id="patch_36">
    <path clip-path="url(#pfb94446b9d)" d="M 1097.44608 147.536735 
C 1100.242789 147.536735 1102.925328 146.425591 1104.902899 144.448019 
C 1106.880471 142.470448 1107.991615 139.787909 1107.991615 136.9912 
C 1107.991615 134.194491 1106.880471 131.511952 1104.902899 129.534381 
C 1102.925328 127.556809 1100.242789 126.445665 1097.44608 126.445665 
C 1094.649371 126.445665 1091.966832 127.556809 1089.989261 129.534381 
C 1088.011689 131.511952 1086.900545 134.194491 1086.900545 136.9912 
C 1086.900545 139.787909 1088.011689 142.470448 1089.989261 144.448019 
C 1091.966832 146.425591 1094.649371 147.536735 1097.44608 147.536735 
z
" style="fill:#6fa4ff;stroke:#6fa4ff;stroke-linejoin:miter;stroke-width:2;"/>
   </g>
   <g id="patch_37">
    <path clip-path="url(#pfb94446b9d)" d="M 1097.44608 187.864715 
C 1098.644669 187.864715 1099.794329 187.38851 1100.64186 186.54098 
C 1101.48939 185.693449 1101.965595 184.543789 1101.965595 183.3452 
C 1101.965595 182.146611 1101.48939 180.996951 1100.64186 180.14942 
C 1099.794329 179.30189 1098.644669 178.825685 1097.44608 178.825685 
C 1096.247491 178.825685 1095.097831 179.30189 1094.2503 180.14942 
C 1093.40277 180.996951 1092.926565 182.146611 1092.926565 183.3452 
C 1092.926565 184.543789 1093.40277 185.693449 1094.2503 186.54098 
C 1095.097831 187.38851 1096.247491 187.864715 1097.44608 187.864715 
z
" style="fill:#6fa4ff;stroke:#6fa4ff;stroke-linejoin:miter;stroke-width:1.5;"/>
   </g>
   <g id="patch_38">
    <path clip-path="url(#pfb94446b9d)" d="M 1097.44608 240.244735 
C 1100.242789 240.244735 1102.925328 239.133591 1104.902899 237.156019 
C 1106.880471 235.178448 1107.991615 232.495909 1107.991615 229.6992 
C 1107.991615 226.902491 1106.880471 224.219952 1104.902899 222.242381 
C 1102.925328 220.264809 1100.242789 219.153665 1097.44608 219.153665 
C 1094.649371 219.153665 1091.966832 220.264809 1089.989261 222.242381 
C 1088.011689 224.219952 1086.900545 226.902491 1086.900545 229.6992 
C 1086.900545 232.495909 1088.011689 235.178448 1089.989261 237.156019 
C 1091.966832 239.133591 1094.649371 240.244735 1097.44608 240.244735 
z
" style="fill:#6fa4ff;stroke:#6fa4ff;stroke-linejoin:miter;stroke-width:2;"/>
   </g>
   <g id="patch_39">
    <path clip-path="url(#pfb94446b9d)" d="M 1166.97708 141.510715 
C 1168.175669 141.510715 1169.325329 141.03451 1170.17286 140.18698 
C 1171.02039 139.339449 1171.496595 138.189789 1171.496595 136.9912 
C 1171.496595 135.792611 1171.02039 134.642951 1170.17286 133.79542 
C 1169.325329 132.94789 1168.175669 132.471685 1166.97708 132.471685 
C 1165.778491 132.471685 1164.628831 132.94789 1163.7813 133.79542 
C 1162.93377 134.642951 1162.457565 135.792611 1162.457565 136.9912 
C 1162.457565 138.189789 1162.93377 139.339449 1163.7813 140.18698 
C 1164.628831 141.03451 1165.778491 141.510715 1166.97708 141.510715 
z
" style="fill:#6fa4ff;stroke:#6fa4ff;stroke-linejoin:miter;stroke-width:1.5;"/>
   </g>
   <g id="patch_40">
    <path clip-path="url(#pfb94446b9d)" d="M 1166.97708 101.182735 
C 1169.773789 101.182735 1172.456328 100.071591 1174.433899 98.094019 
C 1176.411471 96.116448 1177.522615 93.433909 1177.522615 90.6372 
C 1177.522615 87.840491 1176.411471 85.157952 1174.433899 83.180381 
C 1172.456328 81.202809 1169.773789 80.091665 1166.97708 80.091665 
C 1164.180371 80.091665 1161.497832 81.202809 1159.520261 83.180381 
C 1157.542689 85.157952 1156.431545 87.840491 1156.431545 90.6372 
C 1156.431545 93.433909 1157.542689 96.116448 1159.520261 98.094019 
C 1161.497832 100.071591 1164.180371 101.182735 1166.97708 101.182735 
z
" style="fill:#6fa4ff;stroke:#6fa4ff;stroke-linejoin:miter;stroke-width:2;"/>
   </g>
   <g id="patch_41">
    <path clip-path="url(#pfb94446b9d)" d="M 1166.97708 234.218715 
C 1168.175669 234.218715 1169.325329 233.74251 1170.17286 232.89498 
C 1171.02039 232.047449 1171.496595 230.897789 1171.496595 229.6992 
C 1171.496595 228.500611 1171.02039 227.350951 1170.17286 226.50342 
C 1169.325329 225.65589 1168.175669 225.179685 1166.97708 225.179685 
C 1165.778491 225.179685 1164.628831 225.65589 1163.7813 226.50342 
C 1162.93377 227.350951 1162.457565 228.500611 1162.457565 229.6992 
C 1162.457565 230.897789 1162.93377 232.047449 1163.7813 232.89498 
C 1164.628831 233.74251 1165.778491 234.218715 1166.97708 234.218715 
z
" style="fill:#6fa4ff;stroke:#6fa4ff;stroke-linejoin:miter;stroke-width:1.5;"/>
   </g>
   <g id="patch_42">
    <path clip-path="url(#pfb94446b9d)" d="M 1166.97708 193.890735 
C 1169.773789 193.890735 1172.456328 192.779591 1174.433899 190.802019 
C 1176.411471 188.824448 1177.522615 186.141909 1177.522615 183.3452 
C 1177.522615 180.548491 1176.411471 177.865952 1174.433899 175.888381 
C 1172.456328 173.910809 1169.773789 172.799665 1166.97708 172.799665 
C 1164.180371 172.799665 1161.497832 173.910809 1159.520261 175.888381 
C 1157.542689 177.865952 1156.431545 180.548491 1156.431545 183.3452 
C 1156.431545 186.141909 1157.542689 188.824448 1159.520261 190.802019 
C 1161.497832 192.779591 1164.180371 193.890735 1166.97708 193.890735 
z
" style="fill:#6fa4ff;stroke:#6fa4ff;stroke-linejoin:miter;stroke-width:2;"/>
   </g>
   <g id="patch_43">
    <path clip-path="url(#pfb94446b9d)" d="M 1213.33108 95.156715 
C 1214.529669 95.156715 1215.679329 94.68051 1216.52686 93.83298 
C 1217.37439 92.985449 1217.850595 91.835789 1217.850595 90.6372 
C 1217.850595 89.438611 1217.37439 88.288951 1216.52686 87.44142 
C 1215.679329 86.59389 1214.529669 86.117685 1213.33108 86.117685 
C 1212.132491 86.117685 1210.982831 86.59389 1210.1353 87.44142 
C 1209.28777 88.288951 1208.811565 89.438611 1208.811565 90.6372 
C 1208.811565 91.835789 1209.28777 92.985449 1210.1353 93.83298 
C 1210.982831 94.68051 1212.132491 95.156715 1213.33108 95.156715 
z
" style="fill:#6fa4ff;stroke:#6fa4ff;stroke-linejoin:miter;stroke-width:1.5;"/>
   </g>
   <g id="patch_44">
    <path clip-path="url(#pfb94446b9d)" d="M 1213.33108 147.536735 
C 1216.127789 147.536735 1218.810328 146.425591 1220.787899 144.448019 
C 1222.765471 142.470448 1223.876615 139.787909 1223.876615 136.9912 
C 1223.876615 134.194491 1222.765471 131.511952 1220.787899 129.534381 
C 1218.810328 127.556809 1216.127789 126.445665 1213.33108 126.445665 
C 1210.534371 126.445665 1207.851832 127.556809 1205.874261 129.534381 
C 1203.896689 131.511952 1202.785545 134.194491 1202.785545 136.9912 
C 1202.785545 139.787909 1203.896689 142.470448 1205.874261 144.448019 
C 1207.851832 146.425591 1210.534371 147.536735 1213.33108 147.536735 
z
" style="fill:#6fa4ff;stroke:#6fa4ff;stroke-linejoin:miter;stroke-width:2;"/>
   </g>
   <g id="patch_45">
    <path clip-path="url(#pfb94446b9d)" d="M 1213.33108 187.864715 
C 1214.529669 187.864715 1215.679329 187.38851 1216.52686 186.54098 
C 1217.37439 185.693449 1217.850595 184.543789 1217.850595 183.3452 
C 1217.850595 182.146611 1217.37439 180.996951 1216.52686 180.14942 
C 1215.679329 179.30189 1214.529669 178.825685 1213.33108 178.825685 
C 1212.132491 178.825685 1210.982831 179.30189 1210.1353 180.14942 
C 1209.28777 180.996951 1208.811565 182.146611 1208.811565 183.3452 
C 1208.811565 184.543789 1209.28777 185.693449 1210.1353 186.54098 
C 1210.982831 187.38851 1212.132491 187.864715 1213.33108 187.864715 
z
" style="fill:#6fa4ff;stroke:#6fa4ff;stroke-linejoin:miter;stroke-width:1.5;"/>
   </g>
   <g id="patch_46">
    <path clip-path="url(#pfb94446b9d)" d="M 1213.33108 240.244735 
C 1216.127789 240.244735 1218.810328 239.133591 1220.787899 237.156019 
C 1222.765471 235.178448 1223.876615 232.495909 1223.876615 229.6992 
C 1223.876615 226.902491 1222.765471 224.219952 1220.787899 222.242381 
C 1218.810328 220.264809 1216.127789 219.153665 1213.33108 219.153665 
C 1210.534371 219.153665 1207.851832 220.264809 1205.874261 222.242381 
C 1203.896689 224.219952 1202.785545 226.902491 1202.785545 229.6992 
C 1202.785545 232.495909 1203.896689 235.178448 1205.874261 237.156019 
C 1207.851832 239.133591 1210.534371 240.244735 1213.33108 240.244735 
z
" style="fill:#6fa4ff;stroke:#6fa4ff;stroke-linejoin:miter;stroke-width:2;"/>
   </g>
   <g id="patch_47">
    <path clip-path="url(#pfb94446b9d)" d="M 1282.86208 187.864715 
C 1284.060669 187.864715 1285.210329 187.38851 1286.05786 186.54098 
C 1286.90539 185.693449 1287.381595 184.543789 1287.381595 183.3452 
C 1287.381595 182.146611 1286.90539 180.996951 1286.05786 180.14942 
C 1285.210329 179.30189 1284.060669 178.825685 1282.86208 178.825685 
C 1281.663491 178.825685 1280.513831 179.30189 1279.6663 180.14942 
C 1278.81877 180.996951 1278.342565 182.146611 1278.342565 183.3452 
C 1278.342565 184.543789 1278.81877 185.693449 1279.6663 186.54098 
C 1280.513831 187.38851 1281.663491 187.864715 1282.86208 187.864715 
z
" style="fill:#6fa4ff;stroke:#6fa4ff;stroke-linejoin:miter;stroke-width:1.5;"/>
   </g>
   <g id="patch_48">
    <path clip-path="url(#pfb94446b9d)" d="M 1282.86208 101.182735 
C 1285.658789 101.182735 1288.341328 100.071591 1290.318899 98.094019 
C 1292.296471 96.116448 1293.407615 93.433909 1293.407615 90.6372 
C 1293.407615 87.840491 1292.296471 85.157952 1290.318899 83.180381 
C 1288.341328 81.202809 1285.658789 80.091665 1282.86208 80.091665 
C 1280.065371 80.091665 1277.382832 81.202809 1275.405261 83.180381 
C 1273.427689 85.157952 1272.316545 87.840491 1272.316545 90.6372 
C 1272.316545 93.433909 1273.427689 96.116448 1275.405261 98.094019 
C 1277.382832 100.071591 1280.065371 101.182735 1282.86208 101.182735 
z
" style="fill:#6fa4ff;stroke:#6fa4ff;stroke-linejoin:miter;stroke-width:2;"/>
   </g>
   <g id="patch_49">
    <path clip-path="url(#pfb94446b9d)" d="M 1267.79703 244.76425 
L 1297.92713 244.76425 
L 1297.92713 214.63415 
L 1267.79703 214.63415 
z
" style="fill:#fa74a6;"/>
   </g>
   <g id="patch_50">
    <path clip-path="url(#pfb94446b9d)" d="M 1352.39308 48.802715 
C 1353.591669 48.802715 1354.741329 48.32651 1355.58886 47.47898 
C 1356.43639 46.631449 1356.912595 45.481789 1356.912595 44.2832 
C 1356.912595 43.084611 1356.43639 41.934951 1355.58886 41.08742 
C 1354.741329 40.23989 1353.591669 39.763685 1352.39308 39.763685 
C 1351.194491 39.763685 1350.044831 40.23989 1349.1973 41.08742 
C 1348.34977 41.934951 1347.873565 43.084611 1347.873565 44.2832 
C 1347.873565 45.481789 1348.34977 46.631449 1349.1973 47.47898 
C 1350.044831 48.32651 1351.194491 48.802715 1352.39308 48.802715 
z
" style="fill:#6fa4ff;stroke:#6fa4ff;stroke-linejoin:miter;stroke-width:1.5;"/>
   </g>
   <g id="patch_51">
    <path clip-path="url(#pfb94446b9d)" d="M 1352.39308 101.182735 
C 1355.189789 101.182735 1357.872328 100.071591 1359.849899 98.094019 
C 1361.827471 96.116448 1362.938615 93.433909 1362.938615 90.6372 
C 1362.938615 87.840491 1361.827471 85.157952 1359.849899 83.180381 
C 1357.872328 81.202809 1355.189789 80.091665 1352.39308 80.091665 
C 1349.596371 80.091665 1346.913832 81.202809 1344.936261 83.180381 
C 1342.958689 85.157952 1341.847545 87.840491 1341.847545 90.6372 
C 1341.847545 93.433909 1342.958689 96.116448 1344.936261 98.094019 
C 1346.913832 100.071591 1349.596371 101.182735 1352.39308 101.182735 
z
" style="fill:#6fa4ff;stroke:#6fa4ff;stroke-linejoin:miter;stroke-width:2;"/>
   </g>
   <g id="patch_52">
    <path clip-path="url(#pfb94446b9d)" d="M 1352.39308 187.864715 
C 1353.591669 187.864715 1354.741329 187.38851 1355.58886 186.54098 
C 1356.43639 185.693449 1356.912595 184.543789 1356.912595 183.3452 
C 1356.912595 182.146611 1356.43639 180.996951 1355.58886 180.14942 
C 1354.741329 179.30189 1353.591669 178.825685 1352.39308 178.825685 
C 1351.194491 178.825685 1350.044831 179.30189 1349.1973 180.14942 
C 1348.34977 180.996951 1347.873565 182.146611 1347.873565 183.3452 
C 1347.873565 184.543789 1348.34977 185.693449 1349.1973 186.54098 
C 1350.044831 187.38851 1351.194491 187.864715 1352.39308 187.864715 
z
" style="fill:#6fa4ff;stroke:#6fa4ff;stroke-linejoin:miter;stroke-width:1.5;"/>
   </g>
   <g id="patch_53">
    <path clip-path="url(#pfb94446b9d)" d="M 1352.39308 240.244735 
C 1355.189789 240.244735 1357.872328 239.133591 1359.849899 237.156019 
C 1361.827471 235.178448 1362.938615 232.495909 1362.938615 229.6992 
C 1362.938615 226.902491 1361.827471 224.219952 1359.849899 222.242381 
C 1357.872328 220.264809 1355.189789 219.153665 1352.39308 219.153665 
C 1349.596371 219.153665 1346.913832 220.264809 1344.936261 222.242381 
C 1342.958689 224.219952 1341.847545 226.902491 1341.847545 229.6992 
C 1341.847545 232.495909 1342.958689 235.178448 1344.936261 237.156019 
C 1346.913832 239.133591 1349.596371 240.244735 1352.39308 240.244735 
z
" style="fill:#6fa4ff;stroke:#6fa4ff;stroke-linejoin:miter;stroke-width:2;"/>
   </g>
   <g id="patch_54">
    <path clip-path="url(#pfb94446b9d)" d="M 239.89708 373.280715 
C 241.095669 373.280715 242.245329 372.80451 243.09286 371.95698 
C 243.94039 371.109449 244.416595 369.959789 244.416595 368.7612 
C 244.416595 367.562611 243.94039 366.412951 243.09286 365.56542 
C 242.245329 364.71789 241.095669 364.241685 239.89708 364.241685 
C 238.698491 364.241685 237.548831 364.71789 236.7013 365.56542 
C 235.85377 366.412951 235.377565 367.562611 235.377565 368.7612 
C 235.377565 369.959789 235.85377 371.109449 236.7013 371.95698 
C 237.548831 372.80451 238.698491 373.280715 239.89708 373.280715 
z
" style="fill:#6fa4ff;stroke:#6fa4ff;stroke-linejoin:miter;stroke-width:1.5;"/>
   </g>
   <g id="patch_55">
    <path clip-path="url(#pfb94446b9d)" d="M 239.89708 332.952735 
C 242.693789 332.952735 245.376328 331.841591 247.353899 329.864019 
C 249.331471 327.886448 250.442615 325.203909 250.442615 322.4072 
C 250.442615 319.610491 249.331471 316.927952 247.353899 314.950381 
C 245.376328 312.972809 242.693789 311.861665 239.89708 311.861665 
C 237.100371 311.861665 234.417832 312.972809 232.440261 314.950381 
C 230.462689 316.927952 229.351545 319.610491 229.351545 322.4072 
C 229.351545 325.203909 230.462689 327.886448 232.440261 329.864019 
C 234.417832 331.841591 237.100371 332.952735 239.89708 332.952735 
z
" style="fill:#6fa4ff;stroke:#6fa4ff;stroke-linejoin:miter;stroke-width:2;"/>
   </g>
   <g id="patch_56">
    <path clip-path="url(#pfb94446b9d)" d="M 239.89708 512.342715 
C 241.095669 512.342715 242.245329 511.86651 243.09286 511.01898 
C 243.94039 510.171449 244.416595 509.021789 244.416595 507.8232 
C 244.416595 506.624611 243.94039 505.474951 243.09286 504.62742 
C 242.245329 503.77989 241.095669 503.303685 239.89708 503.303685 
C 238.698491 503.303685 237.548831 503.77989 236.7013 504.62742 
C 235.85377 505.474951 235.377565 506.624611 235.377565 507.8232 
C 235.377565 509.021789 235.85377 510.171449 236.7013 511.01898 
C 237.548831 511.86651 238.698491 512.342715 239.89708 512.342715 
z
" style="fill:#6fa4ff;stroke:#6fa4ff;stroke-linejoin:miter;stroke-width:1.5;"/>
   </g>
   <g id="patch_57">
    <path clip-path="url(#pfb94446b9d)" d="M 239.89708 472.014735 
C 242.693789 472.014735 245.376328 470.903591 247.353899 468.926019 
C 249.331471 466.948448 250.442615 464.265909 250.442615 461.4692 
C 250.442615 458.672491 249.331471 455.989952 247.353899 454.012381 
C 245.376328 452.034809 242.693789 450.923665 239.89708 450.923665 
C 237.100371 450.923665 234.417832 452.034809 232.440261 454.012381 
C 230.462689 455.989952 229.351545 458.672491 229.351545 461.4692 
C 229.351545 464.265909 230.462689 466.948448 232.440261 468.926019 
C 234.417832 470.903591 237.100371 472.014735 239.89708 472.014735 
z
" style="fill:#6fa4ff;stroke:#6fa4ff;stroke-linejoin:miter;stroke-width:2;"/>
   </g>
   <g id="patch_58">
    <path clip-path="url(#pfb94446b9d)" d="M 286.25108 326.926715 
C 287.449669 326.926715 288.599329 326.45051 289.44686 325.60298 
C 290.29439 324.755449 290.770595 323.605789 290.770595 322.4072 
C 290.770595 321.208611 290.29439 320.058951 289.44686 319.21142 
C 288.599329 318.36389 287.449669 317.887685 286.25108 317.887685 
C 285.052491 317.887685 283.902831 318.36389 283.0553 319.21142 
C 282.20777 320.058951 281.731565 321.208611 281.731565 322.4072 
C 281.731565 323.605789 282.20777 324.755449 283.0553 325.60298 
C 283.902831 326.45051 285.052491 326.926715 286.25108 326.926715 
z
" style="fill:#6fa4ff;stroke:#6fa4ff;stroke-linejoin:miter;stroke-width:1.5;"/>
   </g>
   <g id="patch_59">
    <path clip-path="url(#pfb94446b9d)" d="M 286.25108 379.306735 
C 289.047789 379.306735 291.730328 378.195591 293.707899 376.218019 
C 295.685471 374.240448 296.796615 371.557909 296.796615 368.7612 
C 296.796615 365.964491 295.685471 363.281952 293.707899 361.304381 
C 291.730328 359.326809 289.047789 358.215665 286.25108 358.215665 
C 283.454371 358.215665 280.771832 359.326809 278.794261 361.304381 
C 276.816689 363.281952 275.705545 365.964491 275.705545 368.7612 
C 275.705545 371.557909 276.816689 374.240448 278.794261 376.218019 
C 280.771832 378.195591 283.454371 379.306735 286.25108 379.306735 
z
" style="fill:#6fa4ff;stroke:#6fa4ff;stroke-linejoin:miter;stroke-width:2;"/>
   </g>
   <g id="patch_60">
    <path clip-path="url(#pfb94446b9d)" d="M 286.25108 465.988715 
C 287.449669 465.988715 288.599329 465.51251 289.44686 464.66498 
C 290.29439 463.817449 290.770595 462.667789 290.770595 461.4692 
C 290.770595 460.270611 290.29439 459.120951 289.44686 458.27342 
C 288.599329 457.42589 287.449669 456.949685 286.25108 456.949685 
C 285.052491 456.949685 283.902831 457.42589 283.0553 458.27342 
C 282.20777 459.120951 281.731565 460.270611 281.731565 461.4692 
C 281.731565 462.667789 282.20777 463.817449 283.0553 464.66498 
C 283.902831 465.51251 285.052491 465.988715 286.25108 465.988715 
z
" style="fill:#6fa4ff;stroke:#6fa4ff;stroke-linejoin:miter;stroke-width:1.5;"/>
   </g>
   <g id="patch_61">
    <path clip-path="url(#pfb94446b9d)" d="M 286.25108 518.368735 
C 289.047789 518.368735 291.730328 517.257591 293.707899 515.280019 
C 295.685471 513.302448 296.796615 510.619909 296.796615 507.8232 
C 296.796615 505.026491 295.685471 502.343952 293.707899 500.366381 
C 291.730328 498.388809 289.047789 497.277665 286.25108 497.277665 
C 283.454371 497.277665 280.771832 498.388809 278.794261 500.366381 
C 276.816689 502.343952 275.705545 505.026491 275.705545 507.8232 
C 275.705545 510.619909 276.816689 513.302448 278.794261 515.280019 
C 280.771832 517.257591 283.454371 518.368735 286.25108 518.368735 
z
" style="fill:#6fa4ff;stroke:#6fa4ff;stroke-linejoin:miter;stroke-width:2;"/>
   </g>
   <g id="patch_62">
    <path clip-path="url(#pfb94446b9d)" d="M 355.78208 465.988715 
C 356.980669 465.988715 358.130329 465.51251 358.97786 464.66498 
C 359.82539 463.817449 360.301595 462.667789 360.301595 461.4692 
C 360.301595 460.270611 359.82539 459.120951 358.97786 458.27342 
C 358.130329 457.42589 356.980669 456.949685 355.78208 456.949685 
C 354.583491 456.949685 353.433831 457.42589 352.5863 458.27342 
C 351.73877 459.120951 351.262565 460.270611 351.262565 461.4692 
C 351.262565 462.667789 351.73877 463.817449 352.5863 464.66498 
C 353.433831 465.51251 354.583491 465.988715 355.78208 465.988715 
z
" style="fill:#6fa4ff;stroke:#6fa4ff;stroke-linejoin:miter;stroke-width:1.5;"/>
   </g>
   <g id="patch_63">
    <path clip-path="url(#pfb94446b9d)" d="M 355.78208 379.306735 
C 358.578789 379.306735 361.261328 378.195591 363.238899 376.218019 
C 365.216471 374.240448 366.327615 371.557909 366.327615 368.7612 
C 366.327615 365.964491 365.216471 363.281952 363.238899 361.304381 
C 361.261328 359.326809 358.578789 358.215665 355.78208 358.215665 
C 352.985371 358.215665 350.302832 359.326809 348.325261 361.304381 
C 346.347689 363.281952 345.236545 365.964491 345.236545 368.7612 
C 345.236545 371.557909 346.347689 374.240448 348.325261 376.218019 
C 350.302832 378.195591 352.985371 379.306735 355.78208 379.306735 
z
" style="fill:#6fa4ff;stroke:#6fa4ff;stroke-linejoin:miter;stroke-width:2;"/>
   </g>
   <g id="patch_64">
    <path clip-path="url(#pfb94446b9d)" d="M 340.71703 522.88825 
L 370.84713 522.88825 
L 370.84713 492.75815 
L 340.71703 492.75815 
z
" style="fill:#fa74a6;"/>
   </g>
   <g id="patch_65">
    <path clip-path="url(#pfb94446b9d)" d="M 433.42503 383.82625 
L 463.55513 383.82625 
L 463.55513 353.69615 
L 433.42503 353.69615 
z
" style="fill:#fa74a6;"/>
   </g>
   <g id="patch_66">
    <path clip-path="url(#pfb94446b9d)" d="M 518.02108 326.926715 
C 519.219669 326.926715 520.369329 326.45051 521.21686 325.60298 
C 522.06439 324.755449 522.540595 323.605789 522.540595 322.4072 
C 522.540595 321.208611 522.06439 320.058951 521.21686 319.21142 
C 520.369329 318.36389 519.219669 317.887685 518.02108 317.887685 
C 516.822491 317.887685 515.672831 318.36389 514.8253 319.21142 
C 513.97777 320.058951 513.501565 321.208611 513.501565 322.4072 
C 513.501565 323.605789 513.97777 324.755449 514.8253 325.60298 
C 515.672831 326.45051 516.822491 326.926715 518.02108 326.926715 
z
" style="fill:#6fa4ff;stroke:#6fa4ff;stroke-linejoin:miter;stroke-width:1.5;"/>
   </g>
   <g id="patch_67">
    <path clip-path="url(#pfb94446b9d)" d="M 518.02108 379.306735 
C 520.817789 379.306735 523.500328 378.195591 525.477899 376.218019 
C 527.455471 374.240448 528.566615 371.557909 528.566615 368.7612 
C 528.566615 365.964491 527.455471 363.281952 525.477899 361.304381 
C 523.500328 359.326809 520.817789 358.215665 518.02108 358.215665 
C 515.224371 358.215665 512.541832 359.326809 510.564261 361.304381 
C 508.586689 363.281952 507.475545 365.964491 507.475545 368.7612 
C 507.475545 371.557909 508.586689 374.240448 510.564261 376.218019 
C 512.541832 378.195591 515.224371 379.306735 518.02108 379.306735 
z
" style="fill:#6fa4ff;stroke:#6fa4ff;stroke-linejoin:miter;stroke-width:2;"/>
   </g>
   <g id="patch_68">
    <path clip-path="url(#pfb94446b9d)" d="M 572.48703 383.82625 
L 602.61713 383.82625 
L 602.61713 353.69615 
L 572.48703 353.69615 
z
" style="fill:#fa74a6;"/>
   </g>
   <g id="patch_69">
    <path clip-path="url(#pfb94446b9d)" d="M 657.08308 373.280715 
C 658.281669 373.280715 659.431329 372.80451 660.27886 371.95698 
C 661.12639 371.109449 661.602595 369.959789 661.602595 368.7612 
C 661.602595 367.562611 661.12639 366.412951 660.27886 365.56542 
C 659.431329 364.71789 658.281669 364.241685 657.08308 364.241685 
C 655.884491 364.241685 654.734831 364.71789 653.8873 365.56542 
C 653.03977 366.412951 652.563565 367.562611 652.563565 368.7612 
C 652.563565 369.959789 653.03977 371.109449 653.8873 371.95698 
C 654.734831 372.80451 655.884491 373.280715 657.08308 373.280715 
z
" style="fill:#6fa4ff;stroke:#6fa4ff;stroke-linejoin:miter;stroke-width:1.5;"/>
   </g>
   <g id="patch_70">
    <path clip-path="url(#pfb94446b9d)" d="M 657.08308 472.014735 
C 659.879789 472.014735 662.562328 470.903591 664.539899 468.926019 
C 666.517471 466.948448 667.628615 464.265909 667.628615 461.4692 
C 667.628615 458.672491 666.517471 455.989952 664.539899 454.012381 
C 662.562328 452.034809 659.879789 450.923665 657.08308 450.923665 
C 654.286371 450.923665 651.603832 452.034809 649.626261 454.012381 
C 647.648689 455.989952 646.537545 458.672491 646.537545 461.4692 
C 646.537545 464.265909 647.648689 466.948448 649.626261 468.926019 
C 651.603832 470.903591 654.286371 472.014735 657.08308 472.014735 
z
" style="fill:#6fa4ff;stroke:#6fa4ff;stroke-linejoin:miter;stroke-width:2;"/>
   </g>
   <g id="patch_71">
    <path clip-path="url(#pfb94446b9d)" d="M 703.43708 465.988715 
C 704.635669 465.988715 705.785329 465.51251 706.63286 464.66498 
C 707.48039 463.817449 707.956595 462.667789 707.956595 461.4692 
C 707.956595 460.270611 707.48039 459.120951 706.63286 458.27342 
C 705.785329 457.42589 704.635669 456.949685 703.43708 456.949685 
C 702.238491 456.949685 701.088831 457.42589 700.2413 458.27342 
C 699.39377 459.120951 698.917565 460.270611 698.917565 461.4692 
C 698.917565 462.667789 699.39377 463.817449 700.2413 464.66498 
C 701.088831 465.51251 702.238491 465.988715 703.43708 465.988715 
z
" style="fill:#6fa4ff;stroke:#6fa4ff;stroke-linejoin:miter;stroke-width:1.5;"/>
   </g>
   <g id="patch_72">
    <path clip-path="url(#pfb94446b9d)" d="M 703.43708 379.306735 
C 706.233789 379.306735 708.916328 378.195591 710.893899 376.218019 
C 712.871471 374.240448 713.982615 371.557909 713.982615 368.7612 
C 713.982615 365.964491 712.871471 363.281952 710.893899 361.304381 
C 708.916328 359.326809 706.233789 358.215665 703.43708 358.215665 
C 700.640371 358.215665 697.957832 359.326809 695.980261 361.304381 
C 694.002689 363.281952 692.891545 365.964491 692.891545 368.7612 
C 692.891545 371.557909 694.002689 374.240448 695.980261 376.218019 
C 697.957832 378.195591 700.640371 379.306735 703.43708 379.306735 
z
" style="fill:#6fa4ff;stroke:#6fa4ff;stroke-linejoin:miter;stroke-width:2;"/>
   </g>
   <g id="patch_73">
    <path clip-path="url(#pfb94446b9d)" d="M 749.79108 373.280715 
C 750.989669 373.280715 752.139329 372.80451 752.98686 371.95698 
C 753.83439 371.109449 754.310595 369.959789 754.310595 368.7612 
C 754.310595 367.562611 753.83439 366.412951 752.98686 365.56542 
C 752.139329 364.71789 750.989669 364.241685 749.79108 364.241685 
C 748.592491 364.241685 747.442831 364.71789 746.5953 365.56542 
C 745.74777 366.412951 745.271565 367.562611 745.271565 368.7612 
C 745.271565 369.959789 745.74777 371.109449 746.5953 371.95698 
C 747.442831 372.80451 748.592491 373.280715 749.79108 373.280715 
z
" style="fill:#6fa4ff;stroke:#6fa4ff;stroke-linejoin:miter;stroke-width:1.5;"/>
   </g>
   <g id="patch_74">
    <path clip-path="url(#pfb94446b9d)" d="M 749.79108 472.014735 
C 752.587789 472.014735 755.270328 470.903591 757.247899 468.926019 
C 759.225471 466.948448 760.336615 464.265909 760.336615 461.4692 
C 760.336615 458.672491 759.225471 455.989952 757.247899 454.012381 
C 755.270328 452.034809 752.587789 450.923665 749.79108 450.923665 
C 746.994371 450.923665 744.311832 452.034809 742.334261 454.012381 
C 740.356689 455.989952 739.245545 458.672491 739.245545 461.4692 
C 739.245545 464.265909 740.356689 466.948448 742.334261 468.926019 
C 744.311832 470.903591 746.994371 472.014735 749.79108 472.014735 
z
" style="fill:#6fa4ff;stroke:#6fa4ff;stroke-linejoin:miter;stroke-width:2;"/>
   </g>
   <g id="patch_75">
    <path clip-path="url(#pfb94446b9d)" d="M 796.14508 512.342715 
C 797.343669 512.342715 798.493329 511.86651 799.34086 511.01898 
C 800.18839 510.171449 800.664595 509.021789 800.664595 507.8232 
C 800.664595 506.624611 800.18839 505.474951 799.34086 504.62742 
C 798.493329 503.77989 797.343669 503.303685 796.14508 503.303685 
C 794.946491 503.303685 793.796831 503.77989 792.9493 504.62742 
C 792.10177 505.474951 791.625565 506.624611 791.625565 507.8232 
C 791.625565 509.021789 792.10177 510.171449 792.9493 511.01898 
C 793.796831 511.86651 794.946491 512.342715 796.14508 512.342715 
z
" style="fill:#6fa4ff;stroke:#6fa4ff;stroke-linejoin:miter;stroke-width:1.5;"/>
   </g>
   <g id="patch_76">
    <path clip-path="url(#pfb94446b9d)" d="M 796.14508 472.014735 
C 798.941789 472.014735 801.624328 470.903591 803.601899 468.926019 
C 805.579471 466.948448 806.690615 464.265909 806.690615 461.4692 
C 806.690615 458.672491 805.579471 455.989952 803.601899 454.012381 
C 801.624328 452.034809 798.941789 450.923665 796.14508 450.923665 
C 793.348371 450.923665 790.665832 452.034809 788.688261 454.012381 
C 786.710689 455.989952 785.599545 458.672491 785.599545 461.4692 
C 785.599545 464.265909 786.710689 466.948448 788.688261 468.926019 
C 790.665832 470.903591 793.348371 472.014735 796.14508 472.014735 
z
" style="fill:#6fa4ff;stroke:#6fa4ff;stroke-linejoin:miter;stroke-width:2;"/>
   </g>
   <g id="patch_77">
    <path clip-path="url(#pfb94446b9d)" d="M 850.61103 476.53425 
L 880.74113 476.53425 
L 880.74113 446.40415 
L 850.61103 446.40415 
z
" style="fill:#fa74a6;"/>
   </g>
   <g id="line2d_47">
    <path clip-path="url(#pfb94446b9d)" d="M 263.07408 235.72522 
L 263.07408 223.67318 
" style="fill:none;stroke:#ffffff;stroke-linecap:square;stroke-width:2;"/>
   </g>
   <g id="line2d_48">
    <path clip-path="url(#pfb94446b9d)" d="M 257.04806 229.6992 
L 269.1001 229.6992 
" style="fill:none;stroke:#ffffff;stroke-linecap:square;stroke-width:2;"/>
   </g>
   <g id="line2d_49">
    <path clip-path="url(#pfb94446b9d)" d="M 332.60508 96.66322 
L 332.60508 84.61118 
" style="fill:none;stroke:#ffffff;stroke-linecap:square;stroke-width:2;"/>
   </g>
   <g id="line2d_50">
    <path clip-path="url(#pfb94446b9d)" d="M 326.57906 90.6372 
L 338.6311 90.6372 
" style="fill:none;stroke:#ffffff;stroke-linecap:square;stroke-width:2;"/>
   </g>
   <g id="line2d_51">
    <path clip-path="url(#pfb94446b9d)" d="M 332.60508 189.37122 
L 332.60508 177.31918 
" style="fill:none;stroke:#ffffff;stroke-linecap:square;stroke-width:2;"/>
   </g>
   <g id="line2d_52">
    <path clip-path="url(#pfb94446b9d)" d="M 326.57906 183.3452 
L 338.6311 183.3452 
" style="fill:none;stroke:#ffffff;stroke-linecap:square;stroke-width:2;"/>
   </g>
   <g id="line2d_53">
    <path clip-path="url(#pfb94446b9d)" d="M 378.95908 50.30922 
L 378.95908 38.25718 
" style="fill:none;stroke:#ffffff;stroke-linecap:square;stroke-width:2;"/>
   </g>
   <g id="line2d_54">
    <path clip-path="url(#pfb94446b9d)" d="M 372.93306 44.2832 
L 384.9851 44.2832 
" style="fill:none;stroke:#ffffff;stroke-linecap:square;stroke-width:2;"/>
   </g>
   <g id="line2d_55">
    <path clip-path="url(#pfb94446b9d)" d="M 378.95908 235.72522 
L 378.95908 223.67318 
" style="fill:none;stroke:#ffffff;stroke-linecap:square;stroke-width:2;"/>
   </g>
   <g id="line2d_56">
    <path clip-path="url(#pfb94446b9d)" d="M 372.93306 229.6992 
L 384.9851 229.6992 
" style="fill:none;stroke:#ffffff;stroke-linecap:square;stroke-width:2;"/>
   </g>
   <g id="line2d_57">
    <path clip-path="url(#pfb94446b9d)" d="M 448.49008 96.66322 
L 448.49008 84.61118 
" style="fill:none;stroke:#ffffff;stroke-linecap:square;stroke-width:2;"/>
   </g>
   <g id="line2d_58">
    <path clip-path="url(#pfb94446b9d)" d="M 442.46406 90.6372 
L 454.5161 90.6372 
" style="fill:none;stroke:#ffffff;stroke-linecap:square;stroke-width:2;"/>
   </g>
   <g id="line2d_59">
    <path clip-path="url(#pfb94446b9d)" d="M 518.02108 189.37122 
L 518.02108 177.31918 
" style="fill:none;stroke:#ffffff;stroke-linecap:square;stroke-width:2;"/>
   </g>
   <g id="line2d_60">
    <path clip-path="url(#pfb94446b9d)" d="M 511.99506 183.3452 
L 524.0471 183.3452 
" style="fill:none;stroke:#ffffff;stroke-linecap:square;stroke-width:2;"/>
   </g>
   <g id="line2d_61">
    <path clip-path="url(#pfb94446b9d)" d="M 564.37508 50.30922 
L 564.37508 38.25718 
" style="fill:none;stroke:#ffffff;stroke-linecap:square;stroke-width:2;"/>
   </g>
   <g id="line2d_62">
    <path clip-path="url(#pfb94446b9d)" d="M 558.34906 44.2832 
L 570.4011 44.2832 
" style="fill:none;stroke:#ffffff;stroke-linecap:square;stroke-width:2;"/>
   </g>
   <g id="line2d_63">
    <path clip-path="url(#pfb94446b9d)" d="M 610.72908 206.5222 
L 610.72908 252.8762 
" style="fill:none;stroke:#000000;stroke-dasharray:3.7,1.6;stroke-dashoffset:0;"/>
   </g>
   <g id="line2d_64">
    <path clip-path="url(#pfb94446b9d)" d="M 610.72908 67.4602 
L 610.72908 113.8142 
" style="fill:none;stroke:#000000;stroke-dasharray:3.7,1.6;stroke-dashoffset:0;"/>
   </g>
   <g id="line2d_65">
    <path clip-path="url(#pfb94446b9d)" d="M 610.72908 160.1682 
L 610.72908 206.5222 
" style="fill:none;stroke:#000000;stroke-dasharray:3.7,1.6;stroke-dashoffset:0;"/>
   </g>
   <g id="line2d_66">
    <path clip-path="url(#pfb94446b9d)" d="M 610.72908 21.1062 
L 610.72908 67.4602 
" style="fill:none;stroke:#000000;stroke-dasharray:3.7,1.6;stroke-dashoffset:0;"/>
   </g>
   <g id="line2d_67">
    <path clip-path="url(#pfb94446b9d)" d="M 610.72908 113.8142 
L 610.72908 160.1682 
" style="fill:none;stroke:#000000;stroke-dasharray:3.7,1.6;stroke-dashoffset:0;"/>
   </g>
   <g id="line2d_68">
    <path clip-path="url(#pfb94446b9d)" d="M 749.79108 143.01722 
L 749.79108 130.96518 
" style="fill:none;stroke:#ffffff;stroke-linecap:square;stroke-width:2;"/>
   </g>
   <g id="line2d_69">
    <path clip-path="url(#pfb94446b9d)" d="M 743.76506 136.9912 
L 755.8171 136.9912 
" style="fill:none;stroke:#ffffff;stroke-linecap:square;stroke-width:2;"/>
   </g>
   <g id="line2d_70">
    <path clip-path="url(#pfb94446b9d)" d="M 796.14508 96.66322 
L 796.14508 84.61118 
" style="fill:none;stroke:#ffffff;stroke-linecap:square;stroke-width:2;"/>
   </g>
   <g id="line2d_71">
    <path clip-path="url(#pfb94446b9d)" d="M 790.11906 90.6372 
L 802.1711 90.6372 
" style="fill:none;stroke:#ffffff;stroke-linecap:square;stroke-width:2;"/>
   </g>
   <g id="line2d_72">
    <path clip-path="url(#pfb94446b9d)" d="M 842.49908 143.01722 
L 842.49908 130.96518 
" style="fill:none;stroke:#ffffff;stroke-linecap:square;stroke-width:2;"/>
   </g>
   <g id="line2d_73">
    <path clip-path="url(#pfb94446b9d)" d="M 836.47306 136.9912 
L 848.5251 136.9912 
" style="fill:none;stroke:#ffffff;stroke-linecap:square;stroke-width:2;"/>
   </g>
   <g id="line2d_74">
    <path clip-path="url(#pfb94446b9d)" d="M 888.85308 50.30922 
L 888.85308 38.25718 
" style="fill:none;stroke:#ffffff;stroke-linecap:square;stroke-width:2;"/>
   </g>
   <g id="line2d_75">
    <path clip-path="url(#pfb94446b9d)" d="M 882.82706 44.2832 
L 894.8791 44.2832 
" style="fill:none;stroke:#ffffff;stroke-linecap:square;stroke-width:2;"/>
   </g>
   <g id="line2d_76">
    <path clip-path="url(#pfb94446b9d)" d="M 981.56108 50.30922 
L 981.56108 38.25718 
" style="fill:none;stroke:#ffffff;stroke-linecap:square;stroke-width:2;"/>
   </g>
   <g id="line2d_77">
    <path clip-path="url(#pfb94446b9d)" d="M 975.53506 44.2832 
L 987.5871 44.2832 
" style="fill:none;stroke:#ffffff;stroke-linecap:square;stroke-width:2;"/>
   </g>
   <g id="line2d_78">
    <path clip-path="url(#pfb94446b9d)" d="M 1027.91508 206.5222 
L 1027.91508 252.8762 
" style="fill:none;stroke:#000000;stroke-dasharray:3.7,1.6;stroke-dashoffset:0;"/>
   </g>
   <g id="line2d_79">
    <path clip-path="url(#pfb94446b9d)" d="M 1027.91508 113.8142 
L 1027.91508 160.1682 
" style="fill:none;stroke:#000000;stroke-dasharray:3.7,1.6;stroke-dashoffset:0;"/>
   </g>
   <g id="line2d_80">
    <path clip-path="url(#pfb94446b9d)" d="M 1027.91508 160.1682 
L 1027.91508 206.5222 
" style="fill:none;stroke:#000000;stroke-dasharray:3.7,1.6;stroke-dashoffset:0;"/>
   </g>
   <g id="line2d_81">
    <path clip-path="url(#pfb94446b9d)" d="M 1027.91508 21.1062 
L 1027.91508 67.4602 
" style="fill:none;stroke:#000000;stroke-dasharray:3.7,1.6;stroke-dashoffset:0;"/>
   </g>
   <g id="line2d_82">
    <path clip-path="url(#pfb94446b9d)" d="M 1027.91508 67.4602 
L 1027.91508 113.8142 
" style="fill:none;stroke:#000000;stroke-dasharray:3.7,1.6;stroke-dashoffset:0;"/>
   </g>
   <g id="line2d_83">
    <path clip-path="url(#pfb94446b9d)" d="M 1097.44608 143.01722 
L 1097.44608 130.96518 
" style="fill:none;stroke:#ffffff;stroke-linecap:square;stroke-width:2;"/>
   </g>
   <g id="line2d_84">
    <path clip-path="url(#pfb94446b9d)" d="M 1091.42006 136.9912 
L 1103.4721 136.9912 
" style="fill:none;stroke:#ffffff;stroke-linecap:square;stroke-width:2;"/>
   </g>
   <g id="line2d_85">
    <path clip-path="url(#pfb94446b9d)" d="M 1097.44608 235.72522 
L 1097.44608 223.67318 
" style="fill:none;stroke:#ffffff;stroke-linecap:square;stroke-width:2;"/>
   </g>
   <g id="line2d_86">
    <path clip-path="url(#pfb94446b9d)" d="M 1091.42006 229.6992 
L 1103.4721 229.6992 
" style="fill:none;stroke:#ffffff;stroke-linecap:square;stroke-width:2;"/>
   </g>
   <g id="line2d_87">
    <path clip-path="url(#pfb94446b9d)" d="M 1166.97708 96.66322 
L 1166.97708 84.61118 
" style="fill:none;stroke:#ffffff;stroke-linecap:square;stroke-width:2;"/>
   </g>
   <g id="line2d_88">
    <path clip-path="url(#pfb94446b9d)" d="M 1160.95106 90.6372 
L 1173.0031 90.6372 
" style="fill:none;stroke:#ffffff;stroke-linecap:square;stroke-width:2;"/>
   </g>
   <g id="line2d_89">
    <path clip-path="url(#pfb94446b9d)" d="M 1166.97708 189.37122 
L 1166.97708 177.31918 
" style="fill:none;stroke:#ffffff;stroke-linecap:square;stroke-width:2;"/>
   </g>
   <g id="line2d_90">
    <path clip-path="url(#pfb94446b9d)" d="M 1160.95106 183.3452 
L 1173.0031 183.3452 
" style="fill:none;stroke:#ffffff;stroke-linecap:square;stroke-width:2;"/>
   </g>
   <g id="line2d_91">
    <path clip-path="url(#pfb94446b9d)" d="M 1213.33108 143.01722 
L 1213.33108 130.96518 
" style="fill:none;stroke:#ffffff;stroke-linecap:square;stroke-width:2;"/>
   </g>
   <g id="line2d_92">
    <path clip-path="url(#pfb94446b9d)" d="M 1207.30506 136.9912 
L 1219.3571 136.9912 
" style="fill:none;stroke:#ffffff;stroke-linecap:square;stroke-width:2;"/>
   </g>
   <g id="line2d_93">
    <path clip-path="url(#pfb94446b9d)" d="M 1213.33108 235.72522 
L 1213.33108 223.67318 
" style="fill:none;stroke:#ffffff;stroke-linecap:square;stroke-width:2;"/>
   </g>
   <g id="line2d_94">
    <path clip-path="url(#pfb94446b9d)" d="M 1207.30506 229.6992 
L 1219.3571 229.6992 
" style="fill:none;stroke:#ffffff;stroke-linecap:square;stroke-width:2;"/>
   </g>
   <g id="line2d_95">
    <path clip-path="url(#pfb94446b9d)" d="M 1282.86208 96.66322 
L 1282.86208 84.61118 
" style="fill:none;stroke:#ffffff;stroke-linecap:square;stroke-width:2;"/>
   </g>
   <g id="line2d_96">
    <path clip-path="url(#pfb94446b9d)" d="M 1276.83606 90.6372 
L 1288.8881 90.6372 
" style="fill:none;stroke:#ffffff;stroke-linecap:square;stroke-width:2;"/>
   </g>
   <g id="line2d_97">
    <path clip-path="url(#pfb94446b9d)" d="M 1352.39308 96.66322 
L 1352.39308 84.61118 
" style="fill:none;stroke:#ffffff;stroke-linecap:square;stroke-width:2;"/>
   </g>
   <g id="line2d_98">
    <path clip-path="url(#pfb94446b9d)" d="M 1346.36706 90.6372 
L 1358.4191 90.6372 
" style="fill:none;stroke:#ffffff;stroke-linecap:square;stroke-width:2;"/>
   </g>
   <g id="line2d_99">
    <path clip-path="url(#pfb94446b9d)" d="M 1352.39308 235.72522 
L 1352.39308 223.67318 
" style="fill:none;stroke:#ffffff;stroke-linecap:square;stroke-width:2;"/>
   </g>
   <g id="line2d_100">
    <path clip-path="url(#pfb94446b9d)" d="M 1346.36706 229.6992 
L 1358.4191 229.6992 
" style="fill:none;stroke:#ffffff;stroke-linecap:square;stroke-width:2;"/>
   </g>
   <g id="line2d_101">
    <path clip-path="url(#pfb94446b9d)" d="M 239.89708 328.43322 
L 239.89708 316.38118 
" style="fill:none;stroke:#ffffff;stroke-linecap:square;stroke-width:2;"/>
   </g>
   <g id="line2d_102">
    <path clip-path="url(#pfb94446b9d)" d="M 233.87106 322.4072 
L 245.9231 322.4072 
" style="fill:none;stroke:#ffffff;stroke-linecap:square;stroke-width:2;"/>
   </g>
   <g id="line2d_103">
    <path clip-path="url(#pfb94446b9d)" d="M 239.89708 467.49522 
L 239.89708 455.44318 
" style="fill:none;stroke:#ffffff;stroke-linecap:square;stroke-width:2;"/>
   </g>
   <g id="line2d_104">
    <path clip-path="url(#pfb94446b9d)" d="M 233.87106 461.4692 
L 245.9231 461.4692 
" style="fill:none;stroke:#ffffff;stroke-linecap:square;stroke-width:2;"/>
   </g>
   <g id="line2d_105">
    <path clip-path="url(#pfb94446b9d)" d="M 286.25108 374.78722 
L 286.25108 362.73518 
" style="fill:none;stroke:#ffffff;stroke-linecap:square;stroke-width:2;"/>
   </g>
   <g id="line2d_106">
    <path clip-path="url(#pfb94446b9d)" d="M 280.22506 368.7612 
L 292.2771 368.7612 
" style="fill:none;stroke:#ffffff;stroke-linecap:square;stroke-width:2;"/>
   </g>
   <g id="line2d_107">
    <path clip-path="url(#pfb94446b9d)" d="M 286.25108 513.84922 
L 286.25108 501.79718 
" style="fill:none;stroke:#ffffff;stroke-linecap:square;stroke-width:2;"/>
   </g>
   <g id="line2d_108">
    <path clip-path="url(#pfb94446b9d)" d="M 280.22506 507.8232 
L 292.2771 507.8232 
" style="fill:none;stroke:#ffffff;stroke-linecap:square;stroke-width:2;"/>
   </g>
   <g id="line2d_109">
    <path clip-path="url(#pfb94446b9d)" d="M 355.78208 374.78722 
L 355.78208 362.73518 
" style="fill:none;stroke:#ffffff;stroke-linecap:square;stroke-width:2;"/>
   </g>
   <g id="line2d_110">
    <path clip-path="url(#pfb94446b9d)" d="M 349.75606 368.7612 
L 361.8081 368.7612 
" style="fill:none;stroke:#ffffff;stroke-linecap:square;stroke-width:2;"/>
   </g>
   <g id="line2d_111">
    <path clip-path="url(#pfb94446b9d)" d="M 518.02108 374.78722 
L 518.02108 362.73518 
" style="fill:none;stroke:#ffffff;stroke-linecap:square;stroke-width:2;"/>
   </g>
   <g id="line2d_112">
    <path clip-path="url(#pfb94446b9d)" d="M 511.99506 368.7612 
L 524.0471 368.7612 
" style="fill:none;stroke:#ffffff;stroke-linecap:square;stroke-width:2;"/>
   </g>
   <g id="line2d_113">
    <path clip-path="url(#pfb94446b9d)" d="M 657.08308 467.49522 
L 657.08308 455.44318 
" style="fill:none;stroke:#ffffff;stroke-linecap:square;stroke-width:2;"/>
   </g>
   <g id="line2d_114">
    <path clip-path="url(#pfb94446b9d)" d="M 651.05706 461.4692 
L 663.1091 461.4692 
" style="fill:none;stroke:#ffffff;stroke-linecap:square;stroke-width:2;"/>
   </g>
   <g id="line2d_115">
    <path clip-path="url(#pfb94446b9d)" d="M 703.43708 374.78722 
L 703.43708 362.73518 
" style="fill:none;stroke:#ffffff;stroke-linecap:square;stroke-width:2;"/>
   </g>
   <g id="line2d_116">
    <path clip-path="url(#pfb94446b9d)" d="M 697.41106 368.7612 
L 709.4631 368.7612 
" style="fill:none;stroke:#ffffff;stroke-linecap:square;stroke-width:2;"/>
   </g>
   <g id="line2d_117">
    <path clip-path="url(#pfb94446b9d)" d="M 749.79108 467.49522 
L 749.79108 455.44318 
" style="fill:none;stroke:#ffffff;stroke-linecap:square;stroke-width:2;"/>
   </g>
   <g id="line2d_118">
    <path clip-path="url(#pfb94446b9d)" d="M 743.76506 461.4692 
L 755.8171 461.4692 
" style="fill:none;stroke:#ffffff;stroke-linecap:square;stroke-width:2;"/>
   </g>
   <g id="line2d_119">
    <path clip-path="url(#pfb94446b9d)" d="M 796.14508 467.49522 
L 796.14508 455.44318 
" style="fill:none;stroke:#ffffff;stroke-linecap:square;stroke-width:2;"/>
   </g>
   <g id="line2d_120">
    <path clip-path="url(#pfb94446b9d)" d="M 790.11906 461.4692 
L 802.1711 461.4692 
" style="fill:none;stroke:#ffffff;stroke-linecap:square;stroke-width:2;"/>
   </g>
   <g id="text_1">
    <g clip-path="url(#pfb94446b9d)">
     <!-- $U_2$ -->
     <defs>
      <path d="M 15.484375 72.90625 
L 25.390625 72.90625 
L 16.796875 28.609375 
Q 16.265625 25.640625 16.046875 23.703125 
Q 15.828125 21.78125 15.828125 20.3125 
Q 15.828125 13.578125 19.578125 10.078125 
Q 23.34375 6.59375 30.609375 6.59375 
Q 40.046875 6.59375 45.28125 11.765625 
Q 50.53125 16.9375 52.78125 28.609375 
L 61.375 72.90625 
L 71.296875 72.90625 
L 62.5 27.390625 
Q 59.625 12.640625 51.5625 5.609375 
Q 43.5 -1.421875 29.5 -1.421875 
Q 18.5625 -1.421875 12.1875 4.078125 
Q 5.8125 9.578125 5.8125 19 
Q 5.8125 20.703125 6.046875 22.828125 
Q 6.296875 24.953125 6.78125 27.390625 
z
" id="DejaVuSans-Oblique-85"/>
      <path d="M 19.1875 8.296875 
L 53.609375 8.296875 
L 53.609375 0 
L 7.328125 0 
L 7.328125 8.296875 
Q 12.9375 14.109375 22.625 23.890625 
Q 32.328125 33.6875 34.8125 36.53125 
Q 39.546875 41.84375 41.421875 45.53125 
Q 43.3125 49.21875 43.3125 52.78125 
Q 43.3125 58.59375 39.234375 62.25 
Q 35.15625 65.921875 28.609375 65.921875 
Q 23.96875 65.921875 18.8125 64.3125 
Q 13.671875 62.703125 7.8125 59.421875 
L 7.8125 69.390625 
Q 13.765625 71.78125 18.9375 73 
Q 24.125 74.21875 28.421875 74.21875 
Q 39.75 74.21875 46.484375 68.546875 
Q 53.21875 62.890625 53.21875 53.421875 
Q 53.21875 48.921875 51.53125 44.890625 
Q 49.859375 40.875 45.40625 35.40625 
Q 44.1875 33.984375 37.640625 27.21875 
Q 31.109375 20.453125 19.1875 8.296875 
z
" id="DejaVuSans-50"/>
     </defs>
     <g transform="translate(255.20908 43.350873)scale(0.13 -0.13)">
      <use transform="translate(0 0.09375)" xlink:href="#DejaVuSans-Oblique-85"/>
      <use transform="translate(73.193359 -16.3125)scale(0.7)" xlink:href="#DejaVuSans-50"/>
     </g>
    </g>
   </g>
   <g id="text_2">
    <g clip-path="url(#pfb94446b9d)">
     <!-- 0, $\pi$ -->
     <defs>
      <path d="M 31.78125 66.40625 
Q 24.171875 66.40625 20.328125 58.90625 
Q 16.5 51.421875 16.5 36.375 
Q 16.5 21.390625 20.328125 13.890625 
Q 24.171875 6.390625 31.78125 6.390625 
Q 39.453125 6.390625 43.28125 13.890625 
Q 47.125 21.390625 47.125 36.375 
Q 47.125 51.421875 43.28125 58.90625 
Q 39.453125 66.40625 31.78125 66.40625 
z
M 31.78125 74.21875 
Q 44.046875 74.21875 50.515625 64.515625 
Q 56.984375 54.828125 56.984375 36.375 
Q 56.984375 17.96875 50.515625 8.265625 
Q 44.046875 -1.421875 31.78125 -1.421875 
Q 19.53125 -1.421875 13.0625 8.265625 
Q 6.59375 17.96875 6.59375 36.375 
Q 6.59375 54.828125 13.0625 64.515625 
Q 19.53125 74.21875 31.78125 74.21875 
z
" id="DejaVuSans-48"/>
      <path d="M 11.71875 12.40625 
L 22.015625 12.40625 
L 22.015625 4 
L 14.015625 -11.625 
L 7.71875 -11.625 
L 11.71875 4 
z
" id="DejaVuSans-44"/>
      <path id="DejaVuSans-32"/>
      <path d="M 9.125 54.6875 
L 61.53125 54.6875 
L 59.765625 45.703125 
L 52.875 45.703125 
L 46.34375 12.109375 
Q 45.65625 8.59375 46.578125 7.03125 
Q 47.46875 5.515625 50.140625 5.515625 
Q 50.875 5.515625 51.953125 5.671875 
Q 53.078125 5.765625 53.421875 5.8125 
L 52.15625 -0.6875 
Q 50.34375 -1.3125 48.484375 -1.609375 
Q 46.578125 -1.90625 44.78125 -1.90625 
Q 38.921875 -1.90625 37.3125 1.265625 
Q 35.6875 4.5 37.359375 13.09375 
L 43.703125 45.703125 
L 23.53125 45.703125 
L 14.65625 0 
L 5.46875 0 
L 14.359375 45.703125 
L 7.375 45.703125 
z
" id="DejaVuSans-Oblique-960"/>
     </defs>
     <g transform="translate(255.55408 55.52973)scale(0.08 -0.08)">
      <use transform="translate(0 0.78125)" xlink:href="#DejaVuSans-48"/>
      <use transform="translate(63.623047 0.78125)" xlink:href="#DejaVuSans-44"/>
      <use transform="translate(95.410156 0.78125)" xlink:href="#DejaVuSans-32"/>
      <use transform="translate(127.197266 0.78125)" xlink:href="#DejaVuSans-Oblique-960"/>
     </g>
    </g>
   </g>
   <g id="text_3">
    <g clip-path="url(#pfb94446b9d)">
     <!-- $U_2$ -->
     <g transform="translate(440.62508 228.766872)scale(0.13 -0.13)">
      <use transform="translate(0 0.09375)" xlink:href="#DejaVuSans-Oblique-85"/>
      <use transform="translate(73.193359 -16.3125)scale(0.7)" xlink:href="#DejaVuSans-50"/>
     </g>
    </g>
   </g>
   <g id="text_4">
    <g clip-path="url(#pfb94446b9d)">
     <!-- 0, 0 -->
     <g transform="translate(440.85758 240.94573)scale(0.08 -0.08)">
      <use xlink:href="#DejaVuSans-48"/>
      <use x="63.623047" xlink:href="#DejaVuSans-44"/>
      <use x="95.410156" xlink:href="#DejaVuSans-32"/>
      <use x="127.197266" xlink:href="#DejaVuSans-48"/>
     </g>
    </g>
   </g>
   <g id="text_5">
    <g clip-path="url(#pfb94446b9d)">
     <!-- $U_2$ -->
     <g transform="translate(672.39508 136.058873)scale(0.13 -0.13)">
      <use transform="translate(0 0.09375)" xlink:href="#DejaVuSans-Oblique-85"/>
      <use transform="translate(73.193359 -16.3125)scale(0.7)" xlink:href="#DejaVuSans-50"/>
     </g>
    </g>
   </g>
   <g id="text_6">
    <g clip-path="url(#pfb94446b9d)">
     <!-- 0, $\pi$ -->
     <g transform="translate(672.74008 148.23773)scale(0.08 -0.08)">
      <use transform="translate(0 0.78125)" xlink:href="#DejaVuSans-48"/>
      <use transform="translate(63.623047 0.78125)" xlink:href="#DejaVuSans-44"/>
      <use transform="translate(95.410156 0.78125)" xlink:href="#DejaVuSans-32"/>
      <use transform="translate(127.197266 0.78125)" xlink:href="#DejaVuSans-Oblique-960"/>
     </g>
    </g>
   </g>
   <g id="text_7">
    <g clip-path="url(#pfb94446b9d)">
     <!-- $U_1$ -->
     <defs>
      <path d="M 12.40625 8.296875 
L 28.515625 8.296875 
L 28.515625 63.921875 
L 10.984375 60.40625 
L 10.984375 69.390625 
L 28.421875 72.90625 
L 38.28125 72.90625 
L 38.28125 8.296875 
L 54.390625 8.296875 
L 54.390625 0 
L 12.40625 0 
z
" id="DejaVuSans-49"/>
     </defs>
     <g transform="translate(927.34208 43.350873)scale(0.13 -0.13)">
      <use transform="translate(0 0.09375)" xlink:href="#DejaVuSans-Oblique-85"/>
      <use transform="translate(73.193359 -16.3125)scale(0.7)" xlink:href="#DejaVuSans-49"/>
     </g>
    </g>
   </g>
   <g id="text_8">
    <g clip-path="url(#pfb94446b9d)">
     <!-- $\pi$/3 -->
     <defs>
      <path d="M 25.390625 72.90625 
L 33.6875 72.90625 
L 8.296875 -9.28125 
L 0 -9.28125 
z
" id="DejaVuSans-47"/>
      <path d="M 40.578125 39.3125 
Q 47.65625 37.796875 51.625 33 
Q 55.609375 28.21875 55.609375 21.1875 
Q 55.609375 10.40625 48.1875 4.484375 
Q 40.765625 -1.421875 27.09375 -1.421875 
Q 22.515625 -1.421875 17.65625 -0.515625 
Q 12.796875 0.390625 7.625 2.203125 
L 7.625 11.71875 
Q 11.71875 9.328125 16.59375 8.109375 
Q 21.484375 6.890625 26.8125 6.890625 
Q 36.078125 6.890625 40.9375 10.546875 
Q 45.796875 14.203125 45.796875 21.1875 
Q 45.796875 27.640625 41.28125 31.265625 
Q 36.765625 34.90625 28.71875 34.90625 
L 20.21875 34.90625 
L 20.21875 43.015625 
L 29.109375 43.015625 
Q 36.375 43.015625 40.234375 45.921875 
Q 44.09375 48.828125 44.09375 54.296875 
Q 44.09375 59.90625 40.109375 62.90625 
Q 36.140625 65.921875 28.71875 65.921875 
Q 24.65625 65.921875 20.015625 65.03125 
Q 15.375 64.15625 9.8125 62.3125 
L 9.8125 71.09375 
Q 15.4375 72.65625 20.34375 73.4375 
Q 25.25 74.21875 29.59375 74.21875 
Q 40.828125 74.21875 47.359375 69.109375 
Q 53.90625 64.015625 53.90625 55.328125 
Q 53.90625 49.265625 50.4375 45.09375 
Q 46.96875 40.921875 40.578125 39.3125 
z
" id="DejaVuSans-51"/>
     </defs>
     <g transform="translate(928.88708 55.52973)scale(0.08 -0.08)">
      <use transform="translate(0 0.78125)" xlink:href="#DejaVuSans-Oblique-960"/>
      <use transform="translate(60.205078 0.78125)" xlink:href="#DejaVuSans-47"/>
      <use transform="translate(93.896484 0.78125)" xlink:href="#DejaVuSans-51"/>
     </g>
    </g>
   </g>
   <g id="text_9">
    <g clip-path="url(#pfb94446b9d)">
     <!-- $U_2$ -->
     <g transform="translate(1089.58108 43.350873)scale(0.13 -0.13)">
      <use transform="translate(0 0.09375)" xlink:href="#DejaVuSans-Oblique-85"/>
      <use transform="translate(73.193359 -16.3125)scale(0.7)" xlink:href="#DejaVuSans-50"/>
     </g>
    </g>
   </g>
   <g id="text_10">
    <g clip-path="url(#pfb94446b9d)">
     <!-- 0, $\pi$ -->
     <g transform="translate(1089.92608 55.52973)scale(0.08 -0.08)">
      <use transform="translate(0 0.78125)" xlink:href="#DejaVuSans-48"/>
      <use transform="translate(63.623047 0.78125)" xlink:href="#DejaVuSans-44"/>
      <use transform="translate(95.410156 0.78125)" xlink:href="#DejaVuSans-32"/>
      <use transform="translate(127.197266 0.78125)" xlink:href="#DejaVuSans-Oblique-960"/>
     </g>
    </g>
   </g>
   <g id="text_11">
    <g clip-path="url(#pfb94446b9d)">
     <!-- $U_2$ -->
     <g transform="translate(1274.99708 228.766872)scale(0.13 -0.13)">
      <use transform="translate(0 0.09375)" xlink:href="#DejaVuSans-Oblique-85"/>
      <use transform="translate(73.193359 -16.3125)scale(0.7)" xlink:href="#DejaVuSans-50"/>
     </g>
    </g>
   </g>
   <g id="text_12">
    <g clip-path="url(#pfb94446b9d)">
     <!-- 0, $\pi$ -->
     <g transform="translate(1275.34208 240.94573)scale(0.08 -0.08)">
      <use transform="translate(0 0.78125)" xlink:href="#DejaVuSans-48"/>
      <use transform="translate(63.623047 0.78125)" xlink:href="#DejaVuSans-44"/>
      <use transform="translate(95.410156 0.78125)" xlink:href="#DejaVuSans-32"/>
      <use transform="translate(127.197266 0.78125)" xlink:href="#DejaVuSans-Oblique-960"/>
     </g>
    </g>
   </g>
   <g id="text_13">
    <g clip-path="url(#pfb94446b9d)">
     <!-- $U_2$ -->
     <g transform="translate(347.91708 506.890872)scale(0.13 -0.13)">
      <use transform="translate(0 0.09375)" xlink:href="#DejaVuSans-Oblique-85"/>
      <use transform="translate(73.193359 -16.3125)scale(0.7)" xlink:href="#DejaVuSans-50"/>
     </g>
    </g>
   </g>
   <g id="text_14">
    <g clip-path="url(#pfb94446b9d)">
     <!-- 0, $\pi$ -->
     <g transform="translate(348.26208 519.06973)scale(0.08 -0.08)">
      <use transform="translate(0 0.78125)" xlink:href="#DejaVuSans-48"/>
      <use transform="translate(63.623047 0.78125)" xlink:href="#DejaVuSans-44"/>
      <use transform="translate(95.410156 0.78125)" xlink:href="#DejaVuSans-32"/>
      <use transform="translate(127.197266 0.78125)" xlink:href="#DejaVuSans-Oblique-960"/>
     </g>
    </g>
   </g>
   <g id="text_15">
    <g clip-path="url(#pfb94446b9d)">
     <!-- $U_2$ -->
     <g transform="translate(440.62508 367.828872)scale(0.13 -0.13)">
      <use transform="translate(0 0.09375)" xlink:href="#DejaVuSans-Oblique-85"/>
      <use transform="translate(73.193359 -16.3125)scale(0.7)" xlink:href="#DejaVuSans-50"/>
     </g>
    </g>
   </g>
   <g id="text_16">
    <g clip-path="url(#pfb94446b9d)">
     <!-- 0, $\pi$ -->
     <g transform="translate(440.97008 380.00773)scale(0.08 -0.08)">
      <use transform="translate(0 0.78125)" xlink:href="#DejaVuSans-48"/>
      <use transform="translate(63.623047 0.78125)" xlink:href="#DejaVuSans-44"/>
      <use transform="translate(95.410156 0.78125)" xlink:href="#DejaVuSans-32"/>
      <use transform="translate(127.197266 0.78125)" xlink:href="#DejaVuSans-Oblique-960"/>
     </g>
    </g>
   </g>
   <g id="text_17">
    <g clip-path="url(#pfb94446b9d)">
     <!-- $U_2$ -->
     <g transform="translate(579.68708 367.828872)scale(0.13 -0.13)">
      <use transform="translate(0 0.09375)" xlink:href="#DejaVuSans-Oblique-85"/>
      <use transform="translate(73.193359 -16.3125)scale(0.7)" xlink:href="#DejaVuSans-50"/>
     </g>
    </g>
   </g>
   <g id="text_18">
    <g clip-path="url(#pfb94446b9d)">
     <!-- 0, $\pi$ -->
     <g transform="translate(580.03208 380.00773)scale(0.08 -0.08)">
      <use transform="translate(0 0.78125)" xlink:href="#DejaVuSans-48"/>
      <use transform="translate(63.623047 0.78125)" xlink:href="#DejaVuSans-44"/>
      <use transform="translate(95.410156 0.78125)" xlink:href="#DejaVuSans-32"/>
      <use transform="translate(127.197266 0.78125)" xlink:href="#DejaVuSans-Oblique-960"/>
     </g>
    </g>
   </g>
   <g id="text_19">
    <g clip-path="url(#pfb94446b9d)">
     <!-- $U_2$ -->
     <g transform="translate(857.81108 460.536872)scale(0.13 -0.13)">
      <use transform="translate(0 0.09375)" xlink:href="#DejaVuSans-Oblique-85"/>
      <use transform="translate(73.193359 -16.3125)scale(0.7)" xlink:href="#DejaVuSans-50"/>
     </g>
    </g>
   </g>
   <g id="text_20">
    <g clip-path="url(#pfb94446b9d)">
     <!-- 0, $\pi$ -->
     <g transform="translate(858.15608 472.71573)scale(0.08 -0.08)">
      <use transform="translate(0 0.78125)" xlink:href="#DejaVuSans-48"/>
      <use transform="translate(63.623047 0.78125)" xlink:href="#DejaVuSans-44"/>
      <use transform="translate(95.410156 0.78125)" xlink:href="#DejaVuSans-32"/>
      <use transform="translate(127.197266 0.78125)" xlink:href="#DejaVuSans-Oblique-960"/>
     </g>
    </g>
   </g>
   <g id="text_21">
    <g clip-path="url(#pfb94446b9d)">
     <!-- ${q}_{1} \mapsto {0}$ -->
     <defs>
      <path d="M 41.703125 8.203125 
Q 38.09375 3.46875 33.171875 1.015625 
Q 28.265625 -1.421875 22.3125 -1.421875 
Q 14.015625 -1.421875 9.296875 4.171875 
Q 4.59375 9.765625 4.59375 19.578125 
Q 4.59375 27.484375 7.5 34.859375 
Q 10.40625 42.234375 15.828125 48.09375 
Q 19.34375 51.90625 23.90625 53.953125 
Q 28.46875 56 33.5 56 
Q 39.546875 56 43.453125 53.609375 
Q 47.359375 51.21875 49.125 46.390625 
L 50.6875 54.59375 
L 59.71875 54.59375 
L 45.125 -20.609375 
L 36.078125 -20.609375 
z
M 13.921875 20.90625 
Q 13.921875 13.671875 16.9375 9.890625 
Q 19.96875 6.109375 25.6875 6.109375 
Q 34.1875 6.109375 40.1875 14.234375 
Q 46.1875 22.359375 46.1875 33.984375 
Q 46.1875 41.015625 43.078125 44.75 
Q 39.984375 48.484375 34.1875 48.484375 
Q 29.9375 48.484375 26.3125 46.5 
Q 22.703125 44.53125 20.015625 40.71875 
Q 17.1875 36.71875 15.546875 31.34375 
Q 13.921875 25.984375 13.921875 20.90625 
z
" id="DejaVuSans-Oblique-113"/>
      <path d="M 65.234375 27.203125 
L 14.015625 27.203125 
L 14.015625 10.359375 
L 5.71875 10.359375 
L 5.71875 52.34375 
L 14.015625 52.34375 
L 14.015625 35.5 
L 65.234375 35.5 
L 53.859375 46.875 
L 59.71875 52.734375 
L 78.90625 33.546875 
L 78.90625 29.15625 
L 59.71875 9.96875 
L 53.859375 15.828125 
z
" id="DejaVuSans-8614"/>
     </defs>
     <g transform="translate(145.11808 48.734177)scale(0.1625 -0.1625)">
      <use transform="translate(0 0.78125)" xlink:href="#DejaVuSans-Oblique-113"/>
      <use transform="translate(63.476562 -15.625)scale(0.7)" xlink:href="#DejaVuSans-49"/>
      <use transform="translate(130.229492 0.78125)" xlink:href="#DejaVuSans-8614"/>
      <use transform="translate(233.500977 0.78125)" xlink:href="#DejaVuSans-48"/>
     </g>
    </g>
   </g>
   <g id="text_22">
    <g clip-path="url(#pfb94446b9d)">
     <!-- ${q}_{3} \mapsto {1}$ -->
     <g transform="translate(145.11808 95.088177)scale(0.1625 -0.1625)">
      <use transform="translate(0 0.09375)" xlink:href="#DejaVuSans-Oblique-113"/>
      <use transform="translate(63.476562 -16.3125)scale(0.7)" xlink:href="#DejaVuSans-51"/>
      <use transform="translate(130.229492 0.09375)" xlink:href="#DejaVuSans-8614"/>
      <use transform="translate(233.500977 0.09375)" xlink:href="#DejaVuSans-49"/>
     </g>
    </g>
   </g>
   <g id="text_23">
    <g clip-path="url(#pfb94446b9d)">
     <!-- ${a}_{0} \mapsto {2}$ -->
     <defs>
      <path d="M 53.71875 31.203125 
L 47.609375 0 
L 38.625 0 
L 40.28125 8.296875 
Q 36.328125 3.421875 31.265625 1 
Q 26.21875 -1.421875 20.015625 -1.421875 
Q 13.03125 -1.421875 8.5625 2.84375 
Q 4.109375 7.125 4.109375 13.8125 
Q 4.109375 23.390625 11.75 28.953125 
Q 19.390625 34.515625 32.8125 34.515625 
L 45.3125 34.515625 
L 45.796875 36.921875 
Q 45.90625 37.3125 45.953125 37.765625 
Q 46 38.234375 46 39.203125 
Q 46 43.5625 42.453125 45.96875 
Q 38.921875 48.390625 32.515625 48.390625 
Q 28.125 48.390625 23.5 47.265625 
Q 18.890625 46.140625 14.015625 43.890625 
L 15.578125 52.203125 
Q 20.65625 54.109375 25.515625 55.046875 
Q 30.375 56 34.90625 56 
Q 44.578125 56 49.625 51.796875 
Q 54.6875 47.609375 54.6875 39.59375 
Q 54.6875 37.984375 54.4375 35.8125 
Q 54.203125 33.640625 53.71875 31.203125 
z
M 44 27.484375 
L 35.015625 27.484375 
Q 23.96875 27.484375 18.671875 24.53125 
Q 13.375 21.578125 13.375 15.375 
Q 13.375 11.078125 16.078125 8.640625 
Q 18.796875 6.203125 23.578125 6.203125 
Q 30.90625 6.203125 36.375 11.453125 
Q 41.84375 16.703125 43.609375 25.484375 
z
" id="DejaVuSans-Oblique-97"/>
     </defs>
     <g transform="translate(145.60558 141.475184)scale(0.1625 -0.1625)">
      <use transform="translate(0 0.78125)" xlink:href="#DejaVuSans-Oblique-97"/>
      <use transform="translate(61.279297 -15.625)scale(0.7)" xlink:href="#DejaVuSans-48"/>
      <use transform="translate(128.032227 0.78125)" xlink:href="#DejaVuSans-8614"/>
      <use transform="translate(231.303711 0.78125)" xlink:href="#DejaVuSans-50"/>
     </g>
    </g>
   </g>
   <g id="text_24">
    <g clip-path="url(#pfb94446b9d)">
     <!-- ${q}_{0} \mapsto {3}$ -->
     <g transform="translate(145.11808 187.796177)scale(0.1625 -0.1625)">
      <use transform="translate(0 0.78125)" xlink:href="#DejaVuSans-Oblique-113"/>
      <use transform="translate(63.476562 -15.625)scale(0.7)" xlink:href="#DejaVuSans-48"/>
      <use transform="translate(130.229492 0.78125)" xlink:href="#DejaVuSans-8614"/>
      <use transform="translate(233.500977 0.78125)" xlink:href="#DejaVuSans-51"/>
     </g>
    </g>
   </g>
   <g id="text_25">
    <g clip-path="url(#pfb94446b9d)">
     <!-- ${q}_{2} \mapsto {4}$ -->
     <defs>
      <path d="M 37.796875 64.3125 
L 12.890625 25.390625 
L 37.796875 25.390625 
z
M 35.203125 72.90625 
L 47.609375 72.90625 
L 47.609375 25.390625 
L 58.015625 25.390625 
L 58.015625 17.1875 
L 47.609375 17.1875 
L 47.609375 0 
L 37.796875 0 
L 37.796875 17.1875 
L 4.890625 17.1875 
L 4.890625 26.703125 
z
" id="DejaVuSans-52"/>
     </defs>
     <g transform="translate(145.11808 234.150177)scale(0.1625 -0.1625)">
      <use transform="translate(0 0.09375)" xlink:href="#DejaVuSans-Oblique-113"/>
      <use transform="translate(63.476562 -16.3125)scale(0.7)" xlink:href="#DejaVuSans-50"/>
      <use transform="translate(130.229492 0.09375)" xlink:href="#DejaVuSans-8614"/>
      <use transform="translate(233.500977 0.09375)" xlink:href="#DejaVuSans-52"/>
     </g>
    </g>
   </g>
   <g id="text_26">
    <g clip-path="url(#pfb94446b9d)">
     <!-- ${q}_{1} \mapsto {0}$ -->
     <g transform="translate(145.11808 326.858177)scale(0.1625 -0.1625)">
      <use transform="translate(0 0.78125)" xlink:href="#DejaVuSans-Oblique-113"/>
      <use transform="translate(63.476562 -15.625)scale(0.7)" xlink:href="#DejaVuSans-49"/>
      <use transform="translate(130.229492 0.78125)" xlink:href="#DejaVuSans-8614"/>
      <use transform="translate(233.500977 0.78125)" xlink:href="#DejaVuSans-48"/>
     </g>
    </g>
   </g>
   <g id="text_27">
    <g clip-path="url(#pfb94446b9d)">
     <!-- ${q}_{3} \mapsto {1}$ -->
     <g transform="translate(145.11808 373.212177)scale(0.1625 -0.1625)">
      <use transform="translate(0 0.09375)" xlink:href="#DejaVuSans-Oblique-113"/>
      <use transform="translate(63.476562 -16.3125)scale(0.7)" xlink:href="#DejaVuSans-51"/>
      <use transform="translate(130.229492 0.09375)" xlink:href="#DejaVuSans-8614"/>
      <use transform="translate(233.500977 0.09375)" xlink:href="#DejaVuSans-49"/>
     </g>
    </g>
   </g>
   <g id="text_28">
    <g clip-path="url(#pfb94446b9d)">
     <!-- ${a}_{0} \mapsto {2}$ -->
     <g transform="translate(145.60558 419.599184)scale(0.1625 -0.1625)">
      <use transform="translate(0 0.78125)" xlink:href="#DejaVuSans-Oblique-97"/>
      <use transform="translate(61.279297 -15.625)scale(0.7)" xlink:href="#DejaVuSans-48"/>
      <use transform="translate(128.032227 0.78125)" xlink:href="#DejaVuSans-8614"/>
      <use transform="translate(231.303711 0.78125)" xlink:href="#DejaVuSans-50"/>
     </g>
    </g>
   </g>
   <g id="text_29">
    <g clip-path="url(#pfb94446b9d)">
     <!-- ${q}_{0} \mapsto {3}$ -->
     <g transform="translate(145.11808 465.920177)scale(0.1625 -0.1625)">
      <use transform="translate(0 0.78125)" xlink:href="#DejaVuSans-Oblique-113"/>
      <use transform="translate(63.476562 -15.625)scale(0.7)" xlink:href="#DejaVuSans-48"/>
      <use transform="translate(130.229492 0.78125)" xlink:href="#DejaVuSans-8614"/>
      <use transform="translate(233.500977 0.78125)" xlink:href="#DejaVuSans-51"/>
     </g>
    </g>
   </g>
   <g id="text_30">
    <g clip-path="url(#pfb94446b9d)">
     <!-- ${q}_{2} \mapsto {4}$ -->
     <g transform="translate(145.11808 512.274177)scale(0.1625 -0.1625)">
      <use transform="translate(0 0.09375)" xlink:href="#DejaVuSans-Oblique-113"/>
      <use transform="translate(63.476562 -16.3125)scale(0.7)" xlink:href="#DejaVuSans-50"/>
      <use transform="translate(130.229492 0.09375)" xlink:href="#DejaVuSans-8614"/>
      <use transform="translate(233.500977 0.09375)" xlink:href="#DejaVuSans-52"/>
     </g>
    </g>
   </g>
  </g>
 </g>
 <defs>
  <clipPath id="pfb94446b9d">
   <rect height="528.4356" width="1396.18248" x="7.2" y="7.2"/>
  </clipPath>
 </defs>
</svg>
