<?xml version="1.0" encoding="utf-8" standalone="no"?>
<!DOCTYPE svg PUBLIC "-//W3C//DTD SVG 1.1//EN"
  "http://www.w3.org/Graphics/SVG/1.1/DTD/svg11.dtd">
<!-- Created with matplotlib (https://matplotlib.org/) -->
<svg height="302.4pt" version="1.1" viewBox="0 0 820.8 302.4" width="820.8pt" xmlns="http://www.w3.org/2000/svg" xmlns:xlink="http://www.w3.org/1999/xlink">
 <defs>
  <style type="text/css">
*{stroke-linecap:butt;stroke-linejoin:round;}
  </style>
 </defs>
 <g id="figure_1">
  <g id="patch_1">
   <path d="M 0 302.4 
L 820.8 302.4 
L 820.8 0 
L 0 0 
z
" style="fill:#ffffff;"/>
  </g>
  <g id="patch_2">
   <path d="M -30.6 262.8 
L 349.854545 262.8 
L 349.854545 -14.4 
L -30.6 -14.4 
z
" style="fill:#ffffff;"/>
  </g>
  <g id="pane3d_1">
   <g id="patch_3">
    <path d="M 19.835129 201.548569 
L 128.723211 133.58541 
L 126.910339 3.718968 
L 11.951034 64.782468 
" style="fill:#f2f2f2;opacity:0.5;stroke:#f2f2f2;stroke-linejoin:miter;"/>
   </g>
  </g>
  <g id="pane3d_2">
   <g id="patch_4">
    <path d="M 128.723211 133.58541 
L 305.111665 171.581202 
L 312.491547 37.79869 
L 126.910339 3.718968 
" style="fill:#e6e6e6;opacity:0.5;stroke:#e6e6e6;stroke-linejoin:miter;"/>
   </g>
  </g>
  <g id="pane3d_3">
   <g id="patch_5">
    <path d="M 19.835129 201.548569 
L 205.419617 245.80086 
L 305.111665 171.581202 
L 128.723211 133.58541 
" style="fill:#ececec;opacity:0.5;stroke:#ececec;stroke-linejoin:miter;"/>
   </g>
  </g>
  <g id="axis3d_1">
   <g id="line2d_1">
    <path d="M 19.835129 201.548569 
L 205.419617 245.80086 
" style="fill:none;stroke:#000000;stroke-linecap:square;stroke-width:0.8;"/>
   </g>
   <g id="Line3DCollection_1">
    <path d="M 42.295817 206.90428 
L 150.133942 138.19749 
L 149.393845 7.847789 
" style="fill:none;stroke:#b0b0b0;stroke-width:0.8;"/>
    <path d="M 87.512337 217.686079 
L 193.184014 147.470895 
L 194.636898 16.156123 
" style="fill:none;stroke:#b0b0b0;stroke-width:0.8;"/>
    <path d="M 133.765289 228.715013 
L 237.148096 156.941187 
L 240.890183 24.649974 
" style="fill:none;stroke:#b0b0b0;stroke-width:0.8;"/>
    <path d="M 181.090721 239.999678 
L 282.055608 166.614702 
L 288.187917 33.335625 
" style="fill:none;stroke:#b0b0b0;stroke-width:0.8;"/>
   </g>
   <g id="xtick_1">
    <g id="line2d_2">
     <path d="M 43.225084 206.312217 
L 40.433807 208.09062 
" style="fill:none;stroke:#000000;stroke-linecap:square;stroke-width:0.8;"/>
    </g>
    <g id="text_1">
     <!-- 00 -->
     <defs>
      <path d="M 42 31.84375 
C 42 37.96875 41.90625 48.421875 37.703125 56.453125 
C 34 63.484375 28.09375 66 22.90625 66 
C 18.09375 66 12 63.78125 8.203125 56.5625 
C 4.203125 49.015625 3.796875 39.671875 3.796875 31.84375 
C 3.796875 26.109375 3.90625 17.375 7 9.734375 
C 11.296875 -0.609375 19 -2 22.90625 -2 
C 27.5 -2 34.5 -0.109375 38.59375 9.4375 
C 41.59375 16.375 42 24.5 42 31.84375 
z
M 22.90625 -0.40625 
C 16.5 -0.40625 12.703125 5.125 11.296875 12.75 
C 10.203125 18.6875 10.203125 27.328125 10.203125 32.953125 
C 10.203125 40.6875 10.203125 47.109375 11.5 53.234375 
C 13.40625 61.78125 19 64.390625 22.90625 64.390625 
C 27 64.390625 32.296875 61.671875 34.203125 53.4375 
C 35.5 47.71875 35.59375 40.984375 35.59375 32.953125 
C 35.59375 26.421875 35.59375 18.375 34.40625 12.453125 
C 32.296875 1.5 26.40625 -0.40625 22.90625 -0.40625 
z
" id="CMR17-48"/>
     </defs>
     <g transform="translate(17.674928 245.619336)rotate(-45)scale(0.22 -0.22)">
      <use transform="scale(0.996264)" xlink:href="#CMR17-48"/>
      <use transform="translate(45.690477 0)scale(0.996264)" xlink:href="#CMR17-48"/>
     </g>
    </g>
   </g>
   <g id="xtick_2">
    <g id="line2d_3">
     <path d="M 88.423674 217.080527 
L 85.686217 218.899473 
" style="fill:none;stroke:#000000;stroke-linecap:square;stroke-width:0.8;"/>
    </g>
    <g id="text_2">
     <!-- 01 -->
     <defs>
      <path d="M 26.59375 63.796875 
C 26.59375 65.890625 26.5 66 25.09375 66 
C 21.203125 61.359375 15.296875 59.890625 9.703125 59.6875 
C 9.40625 59.6875 8.90625 59.6875 8.796875 59.5 
C 8.703125 59.296875 8.703125 59.09375 8.703125 57 
C 11.796875 57 17 57.59375 21 59.984375 
L 21 7.296875 
C 21 3.796875 20.796875 2.59375 12.203125 2.59375 
L 9.203125 2.59375 
L 9.203125 0 
C 14 0.09375 19 0.1875 23.796875 0.1875 
C 28.59375 0.1875 33.59375 0.09375 38.40625 0 
L 38.40625 2.59375 
L 35.40625 2.59375 
C 26.796875 2.59375 26.59375 3.6875 26.59375 7.296875 
z
" id="CMR17-49"/>
     </defs>
     <g transform="translate(62.887353 256.576088)rotate(-45)scale(0.22 -0.22)">
      <use transform="scale(0.996264)" xlink:href="#CMR17-48"/>
      <use transform="translate(45.690477 0)scale(0.996264)" xlink:href="#CMR17-49"/>
     </g>
    </g>
   </g>
   <g id="xtick_3">
    <g id="line2d_4">
     <path d="M 134.657625 228.095506 
L 131.977203 229.956397 
" style="fill:none;stroke:#000000;stroke-linecap:square;stroke-width:0.8;"/>
    </g>
    <g id="text_3">
     <!-- 10 -->
     <g transform="translate(109.137966 267.784434)rotate(-45)scale(0.22 -0.22)">
      <use transform="scale(0.996264)" xlink:href="#CMR17-49"/>
      <use transform="translate(45.690477 0)scale(0.996264)" xlink:href="#CMR17-48"/>
     </g>
    </g>
   </g>
   <g id="xtick_4">
    <g id="line2d_5">
     <path d="M 181.962926 239.365727 
L 179.342936 241.270032 
" style="fill:none;stroke:#000000;stroke-linecap:square;stroke-width:0.8;"/>
    </g>
    <g id="text_4">
     <!-- 11 -->
     <g transform="translate(156.462941 279.25314)rotate(-45)scale(0.22 -0.22)">
      <use transform="scale(0.996264)" xlink:href="#CMR17-49"/>
      <use transform="translate(45.690477 0)scale(0.996264)" xlink:href="#CMR17-49"/>
     </g>
    </g>
   </g>
  </g>
  <g id="axis3d_2">
   <g id="line2d_6">
    <path d="M 305.111665 171.581202 
L 205.419617 245.80086 
" style="fill:none;stroke:#000000;stroke-linecap:square;stroke-width:0.8;"/>
   </g>
   <g id="Line3DCollection_2">
    <path d="M 27.455231 56.547028 
L 34.471044 192.413474 
L 218.858418 235.795817 
" style="fill:none;stroke:#b0b0b0;stroke-width:0.8;"/>
    <path d="M 57.232024 40.730342 
L 62.623407 174.842005 
L 244.674037 216.576366 
" style="fill:none;stroke:#b0b0b0;stroke-width:0.8;"/>
    <path d="M 85.85589 25.526062 
L 89.739382 157.917404 
L 269.496985 198.095948 
" style="fill:none;stroke:#b0b0b0;stroke-width:0.8;"/>
    <path d="M 113.392516 10.899296 
L 115.875164 141.604597 
L 293.383438 180.312741 
" style="fill:none;stroke:#b0b0b0;stroke-width:0.8;"/>
   </g>
   <g id="xtick_5">
    <g id="line2d_7">
     <path d="M 217.315598 235.432825 
L 221.947489 236.522608 
" style="fill:none;stroke:#000000;stroke-linecap:square;stroke-width:0.8;"/>
    </g>
    <g id="text_5">
     <!-- 00 -->
     <g transform="translate(233.243972 248.955025)rotate(-337.5)scale(0.22 -0.22)">
      <use transform="scale(0.996264)" xlink:href="#CMR17-48"/>
      <use transform="translate(45.690477 0)scale(0.996264)" xlink:href="#CMR17-48"/>
     </g>
    </g>
   </g>
   <g id="xtick_6">
    <g id="line2d_8">
     <path d="M 243.15208 216.227463 
L 247.72127 217.274932 
" style="fill:none;stroke:#000000;stroke-linecap:square;stroke-width:0.8;"/>
    </g>
    <g id="text_6">
     <!-- 01 -->
     <g transform="translate(258.797524 229.510599)rotate(-337.5)scale(0.22 -0.22)">
      <use transform="scale(0.996264)" xlink:href="#CMR17-48"/>
      <use transform="translate(45.690477 0)scale(0.996264)" xlink:href="#CMR17-49"/>
     </g>
    </g>
   </g>
   <g id="xtick_7">
    <g id="line2d_9">
     <path d="M 267.995442 197.76033 
L 272.503283 198.767901 
" style="fill:none;stroke:#000000;stroke-linecap:square;stroke-width:0.8;"/>
    </g>
    <g id="text_7">
     <!-- 10 -->
     <g transform="translate(283.368935 210.813511)rotate(-337.5)scale(0.22 -0.22)">
      <use transform="scale(0.996264)" xlink:href="#CMR17-49"/>
      <use transform="translate(45.690477 0)scale(0.996264)" xlink:href="#CMR17-48"/>
     </g>
    </g>
   </g>
   <g id="xtick_8">
    <g id="line2d_10">
     <path d="M 291.901865 179.989663 
L 296.349691 180.959573 
" style="fill:none;stroke:#000000;stroke-linecap:square;stroke-width:0.8;"/>
    </g>
    <g id="text_8">
     <!-- 11 -->
     <g transform="translate(307.013762 192.821489)rotate(-337.5)scale(0.22 -0.22)">
      <use transform="scale(0.996264)" xlink:href="#CMR17-49"/>
      <use transform="translate(45.690477 0)scale(0.996264)" xlink:href="#CMR17-49"/>
     </g>
    </g>
   </g>
  </g>
  <g id="axis3d_3">
   <g id="line2d_11">
    <path d="M 305.111665 171.581202 
L 312.491547 37.79869 
" style="fill:none;stroke:#000000;stroke-linecap:square;stroke-width:0.8;"/>
   </g>
   <g id="Line3DCollection_3">
    <path d="M 305.325344 167.70763 
L 128.670609 129.817263 
L 19.607232 197.595223 
" style="fill:none;stroke:#b0b0b0;stroke-width:0.8;"/>
    <path d="M 308.045086 118.404136 
L 128.001668 81.897173 
L 16.704538 147.241933 
" style="fill:none;stroke:#b0b0b0;stroke-width:0.8;"/>
    <path d="M 310.872158 67.15497 
L 127.307467 32.167509 
L 13.683389 94.833791 
" style="fill:none;stroke:#b0b0b0;stroke-width:0.8;"/>
   </g>
   <g id="xtick_9">
    <g id="line2d_12">
     <path d="M 303.851381 167.391482 
L 308.276338 168.340583 
" style="fill:none;stroke:#000000;stroke-linecap:square;stroke-width:0.8;"/>
    </g>
    <g id="text_9">
     <!-- $0.0$ -->
     <defs>
      <path d="M 18.40625 4.796875 
C 18.40625 7.6875 16 9.6875 13.59375 9.6875 
C 10.703125 9.6875 8.703125 7.296875 8.703125 4.890625 
C 8.703125 2 11.09375 0 13.5 0 
C 16.40625 0 18.40625 2.390625 18.40625 4.796875 
z
" id="CMMI12-58"/>
     </defs>
     <g transform="translate(310.830026 180.989228)scale(0.22 -0.22)">
      <use transform="scale(0.996264)" xlink:href="#CMR17-48"/>
      <use transform="translate(45.690477 0)scale(0.996264)" xlink:href="#CMMI12-58"/>
      <use transform="translate(72.787654 0)scale(0.996264)" xlink:href="#CMR17-48"/>
     </g>
    </g>
   </g>
   <g id="xtick_10">
    <g id="line2d_13">
     <path d="M 306.541652 118.099288 
L 311.055145 119.014478 
" style="fill:none;stroke:#000000;stroke-linecap:square;stroke-width:0.8;"/>
    </g>
    <g id="text_10">
     <!-- $0.2$ -->
     <defs>
      <path d="M 41.703125 15.46875 
L 39.90625 15.46875 
C 38.90625 8.390625 38.09375 7.1875 37.703125 6.59375 
C 37.203125 5.796875 30 5.796875 28.59375 5.796875 
L 9.40625 5.796875 
C 13 9.6875 20 16.765625 28.5 24.9375 
C 34.59375 30.71875 41.703125 37.5 41.703125 47.390625 
C 41.703125 59.1875 32.296875 66 21.796875 66 
C 10.796875 66 4.09375 56.296875 4.09375 47.296875 
C 4.09375 43.390625 7 42.890625 8.203125 42.890625 
C 9.203125 42.890625 12.203125 43.484375 12.203125 46.984375 
C 12.203125 50.09375 9.59375 51 8.203125 51 
C 7.59375 51 7 50.890625 6.59375 50.6875 
C 8.5 59.1875 14.296875 63.390625 20.40625 63.390625 
C 29.09375 63.390625 34.796875 56.5 34.796875 47.390625 
C 34.796875 38.703125 29.703125 31.21875 24 24.734375 
L 4.09375 2.296875 
L 4.09375 0 
L 39.296875 0 
z
" id="CMR17-50"/>
     </defs>
     <g transform="translate(313.901791 131.755107)scale(0.22 -0.22)">
      <use transform="scale(0.996264)" xlink:href="#CMR17-48"/>
      <use transform="translate(45.690477 0)scale(0.996264)" xlink:href="#CMMI12-58"/>
      <use transform="translate(72.787654 0)scale(0.996264)" xlink:href="#CMR17-50"/>
     </g>
    </g>
   </g>
   <g id="xtick_11">
    <g id="line2d_14">
     <path d="M 309.338051 66.862569 
L 313.943692 67.740405 
" style="fill:none;stroke:#000000;stroke-linecap:square;stroke-width:0.8;"/>
    </g>
    <g id="text_11">
     <!-- $0.4$ -->
     <defs>
      <path d="M 33.59375 64.796875 
C 33.59375 66.890625 33.5 67 31.703125 67 
L 2 19.59375 
L 2 17 
L 27.796875 17 
L 27.796875 7.1875 
C 27.796875 3.59375 27.59375 2.59375 20.59375 2.59375 
L 18.703125 2.59375 
L 18.703125 0 
C 21.90625 0.1875 27.296875 0.1875 30.703125 0.1875 
C 34.09375 0.1875 39.5 0.1875 42.703125 0 
L 42.703125 2.59375 
L 40.796875 2.59375 
C 33.796875 2.59375 33.59375 3.59375 33.59375 7.1875 
L 33.59375 17 
L 43.796875 17 
L 43.796875 19.59375 
L 33.59375 19.59375 
z
M 28.09375 58.171875 
L 28.09375 19.59375 
L 4 19.59375 
z
" id="CMR17-52"/>
     </defs>
     <g transform="translate(317.09451 80.582345)scale(0.22 -0.22)">
      <use transform="scale(0.996264)" xlink:href="#CMR17-48"/>
      <use transform="translate(45.690477 0)scale(0.996264)" xlink:href="#CMMI12-58"/>
      <use transform="translate(72.787654 0)scale(0.996264)" xlink:href="#CMR17-52"/>
     </g>
    </g>
   </g>
  </g>
  <g id="axes_1">
   <g id="Poly3DCollection_1">
    <path clip-path="url(#p5b380b57d8)" d="M 176.056698 145.461788 
L 176.057204 145.346684 
L 197.910571 150.062405 
L 197.909079 150.177907 
z
" style="fill:#5d0618;fill-opacity:0.8;"/>
    <path clip-path="url(#p5b380b57d8)" d="M 163.529756 153.662152 
L 163.5297 153.546358 
L 176.057204 145.346684 
L 176.056698 145.461788 
z
" style="fill:#ba0c2f;fill-opacity:0.8;"/>
    <path clip-path="url(#p5b380b57d8)" d="M 163.529756 153.662152 
L 176.056698 145.461788 
L 197.909079 150.177907 
L 185.517549 158.465803 
z
" style="fill:#74081d;fill-opacity:0.8;"/>
    <path clip-path="url(#p5b380b57d8)" d="M 163.5297 153.546358 
L 185.518491 158.349609 
L 197.910571 150.062405 
L 176.057204 145.346684 
z
" style="fill:#a30a29;fill-opacity:0.8;"/>
    <path clip-path="url(#p5b380b57d8)" d="M 185.517549 158.465803 
L 197.909079 150.177907 
L 197.910571 150.062405 
L 185.518491 158.349609 
z
" style="fill:#5d0618;fill-opacity:0.8;"/>
    <path clip-path="url(#p5b380b57d8)" d="M 163.529756 153.662152 
L 185.517549 158.465803 
L 185.518491 158.349609 
L 163.5297 153.546358 
z
" style="fill:#ba0c2f;fill-opacity:0.8;"/>
   </g>
   <g id="Poly3DCollection_2">
    <path clip-path="url(#p5b380b57d8)" d="M 107.225974 152.383686 
L 107.255484 153.698282 
L 128.900155 158.49278 
L 128.881652 157.173637 
z
" style="fill:#ba0c2f;fill-opacity:0.8;"/>
    <path clip-path="url(#p5b380b57d8)" d="M 93.961603 160.712684 
L 93.998253 162.035168 
L 107.255484 153.698282 
L 107.225974 152.383686 
z
" style="fill:#5d0618;fill-opacity:0.8;"/>
    <path clip-path="url(#p5b380b57d8)" d="M 93.998253 162.035168 
L 115.773462 166.919311 
L 128.900155 158.49278 
L 107.255484 153.698282 
z
" style="fill:#a30a29;fill-opacity:0.8;"/>
    <path clip-path="url(#p5b380b57d8)" d="M 93.961603 160.712684 
L 107.225974 152.383686 
L 128.881652 157.173637 
L 115.747952 165.592242 
z
" style="fill:#74081d;fill-opacity:0.8;"/>
    <path clip-path="url(#p5b380b57d8)" d="M 115.747952 165.592242 
L 128.881652 157.173637 
L 128.900155 158.49278 
L 115.773462 166.919311 
z
" style="fill:#ba0c2f;fill-opacity:0.8;"/>
    <path clip-path="url(#p5b380b57d8)" d="M 93.961603 160.712684 
L 115.747952 165.592242 
L 115.773462 166.919311 
L 93.998253 162.035168 
z
" style="fill:#5d0618;fill-opacity:0.8;"/>
   </g>
   <g id="Poly3DCollection_3">
    <path clip-path="url(#p5b380b57d8)" d="M 219.99426 154.944267 
L 219.987469 155.259139 
L 242.306395 160.07764 
L 242.315981 159.761678 
z
" style="fill:#ba0c2f;fill-opacity:0.8;"/>
    <path clip-path="url(#p5b380b57d8)" d="M 207.741766 163.321106 
L 207.736432 163.63787 
L 219.987469 155.259139 
L 219.99426 154.944267 
z
" style="fill:#5d0618;fill-opacity:0.8;"/>
    <path clip-path="url(#p5b380b57d8)" d="M 207.736432 163.63787 
L 230.198076 168.546761 
L 242.306395 160.07764 
L 219.987469 155.259139 
z
" style="fill:#a30a29;fill-opacity:0.8;"/>
    <path clip-path="url(#p5b380b57d8)" d="M 207.741766 163.321106 
L 219.99426 154.944267 
L 242.315981 159.761678 
L 230.206241 168.228898 
z
" style="fill:#74081d;fill-opacity:0.8;"/>
    <path clip-path="url(#p5b380b57d8)" d="M 230.206241 168.228898 
L 242.315981 159.761678 
L 242.306395 160.07764 
L 230.198076 168.546761 
z
" style="fill:#ba0c2f;fill-opacity:0.8;"/>
    <path clip-path="url(#p5b380b57d8)" d="M 207.741766 163.321106 
L 230.206241 168.228898 
L 230.198076 168.546761 
L 207.736432 163.63787 
z
" style="fill:#5d0618;fill-opacity:0.8;"/>
   </g>
   <g id="Poly3DCollection_4">
    <path clip-path="url(#p5b380b57d8)" d="M 120.24851 144.206541 
L 133.035767 136.177133 
L 154.433456 140.795122 
L 141.774634 148.909332 
z
" style="fill:#74081d;fill-opacity:0.8;"/>
    <path clip-path="url(#p5b380b57d8)" d="M 133.035767 136.177133 
L 132.322198 78.171377 
L 154.199807 82.582774 
L 154.433456 140.795122 
z
" style="fill:#5d0618;fill-opacity:0.8;"/>
    <path clip-path="url(#p5b380b57d8)" d="M 120.24851 144.206541 
L 119.238063 85.842247 
L 132.322198 78.171377 
L 133.035767 136.177133 
z
" style="fill:#ba0c2f;fill-opacity:0.8;"/>
    <path clip-path="url(#p5b380b57d8)" d="M 141.774634 148.909332 
L 154.433456 140.795122 
L 154.199807 82.582774 
L 141.249929 90.336505 
z
" style="fill:#5d0618;fill-opacity:0.8;"/>
    <path clip-path="url(#p5b380b57d8)" d="M 120.24851 144.206541 
L 141.774634 148.909332 
L 141.249929 90.336505 
L 119.238063 85.842247 
z
" style="fill:#ba0c2f;fill-opacity:0.8;"/>
    <path clip-path="url(#p5b380b57d8)" d="M 119.238063 85.842247 
L 141.249929 90.336505 
L 154.199807 82.582774 
L 132.322198 78.171377 
z
" style="fill:#a30a29;fill-opacity:0.8;"/>
   </g>
   <g id="Poly3DCollection_5">
    <path clip-path="url(#p5b380b57d8)" d="M 150.769849 162.015019 
L 150.769577 161.965543 
L 172.894486 166.859015 
L 172.894328 166.908663 
z
" style="fill:#5d0618;fill-opacity:0.8;"/>
    <path clip-path="url(#p5b380b57d8)" d="M 137.770417 170.524683 
L 137.769889 170.474909 
L 150.769577 161.965543 
L 150.769849 162.015019 
z
" style="fill:#ba0c2f;fill-opacity:0.8;"/>
    <path clip-path="url(#p5b380b57d8)" d="M 137.770417 170.524683 
L 150.769849 162.015019 
L 172.894328 166.908663 
L 160.032858 175.510873 
z
" style="fill:#74081d;fill-opacity:0.8;"/>
    <path clip-path="url(#p5b380b57d8)" d="M 137.769889 170.474909 
L 160.032765 175.460926 
L 172.894486 166.859015 
L 150.769577 161.965543 
z
" style="fill:#a30a29;fill-opacity:0.8;"/>
    <path clip-path="url(#p5b380b57d8)" d="M 160.032858 175.510873 
L 172.894328 166.908663 
L 172.894486 166.859015 
L 160.032765 175.460926 
z
" style="fill:#5d0618;fill-opacity:0.8;"/>
    <path clip-path="url(#p5b380b57d8)" d="M 137.770417 170.524683 
L 160.032858 175.510873 
L 160.032765 175.460926 
L 137.769889 170.474909 
z
" style="fill:#ba0c2f;fill-opacity:0.8;"/>
   </g>
   <g id="Poly3DCollection_6">
    <path clip-path="url(#p5b380b57d8)" d="M 80.4486 169.197804 
L 80.453617 169.349323 
L 102.370461 174.321552 
L 102.366728 174.169506 
z
" style="fill:#ba0c2f;fill-opacity:0.8;"/>
    <path clip-path="url(#p5b380b57d8)" d="M 66.679906 177.843478 
L 66.685797 177.995911 
L 80.453617 169.349323 
L 80.4486 169.197804 
z
" style="fill:#5d0618;fill-opacity:0.8;"/>
    <path clip-path="url(#p5b380b57d8)" d="M 66.685797 177.995911 
L 88.735509 183.062924 
L 102.370461 174.321552 
L 80.453617 169.349323 
z
" style="fill:#a30a29;fill-opacity:0.8;"/>
    <path clip-path="url(#p5b380b57d8)" d="M 66.679906 177.843478 
L 80.4486 169.197804 
L 102.366728 174.169506 
L 88.730917 182.909959 
z
" style="fill:#74081d;fill-opacity:0.8;"/>
    <path clip-path="url(#p5b380b57d8)" d="M 88.730917 182.909959 
L 102.366728 174.169506 
L 102.370461 174.321552 
L 88.735509 183.062924 
z
" style="fill:#ba0c2f;fill-opacity:0.8;"/>
    <path clip-path="url(#p5b380b57d8)" d="M 66.679906 177.843478 
L 88.730917 182.909959 
L 88.735509 183.062924 
L 66.685797 177.995911 
z
" style="fill:#5d0618;fill-opacity:0.8;"/>
   </g>
   <g id="Poly3DCollection_7">
    <path clip-path="url(#p5b380b57d8)" d="M 195.258938 171.855421 
L 195.263551 171.470527 
L 217.875685 176.469928 
L 217.867608 176.856162 
z
" style="fill:#5d0618;fill-opacity:0.8;"/>
    <path clip-path="url(#p5b380b57d8)" d="M 182.539219 180.551694 
L 182.541933 180.164475 
L 195.263551 171.470527 
L 195.258938 171.855421 
z
" style="fill:#ba0c2f;fill-opacity:0.8;"/>
    <path clip-path="url(#p5b380b57d8)" d="M 182.539219 180.551694 
L 195.258938 171.855421 
L 217.867608 176.856162 
L 205.29353 185.64805 
z
" style="fill:#74081d;fill-opacity:0.8;"/>
    <path clip-path="url(#p5b380b57d8)" d="M 182.541933 180.164475 
L 205.299754 185.25948 
L 217.875685 176.469928 
L 195.263551 171.470527 
z
" style="fill:#a30a29;fill-opacity:0.8;"/>
    <path clip-path="url(#p5b380b57d8)" d="M 205.29353 185.64805 
L 217.867608 176.856162 
L 217.875685 176.469928 
L 205.299754 185.25948 
z
" style="fill:#5d0618;fill-opacity:0.8;"/>
    <path clip-path="url(#p5b380b57d8)" d="M 182.539219 180.551694 
L 205.29353 185.64805 
L 205.299754 185.25948 
L 182.541933 180.164475 
z
" style="fill:#ba0c2f;fill-opacity:0.8;"/>
   </g>
   <g id="Poly3DCollection_8">
    <path clip-path="url(#p5b380b57d8)" d="M 124.524652 179.195601 
L 124.518804 178.827036 
L 146.923721 183.907136 
L 146.926328 184.276987 
z
" style="fill:#5d0618;fill-opacity:0.8;"/>
    <path clip-path="url(#p5b380b57d8)" d="M 111.025485 188.032401 
L 111.017601 187.661606 
L 124.518804 178.827036 
L 124.524652 179.195601 
z
" style="fill:#ba0c2f;fill-opacity:0.8;"/>
    <path clip-path="url(#p5b380b57d8)" d="M 111.025485 188.032401 
L 124.524652 179.195601 
L 146.926328 184.276987 
L 133.567668 193.211735 
z
" style="fill:#74081d;fill-opacity:0.8;"/>
    <path clip-path="url(#p5b380b57d8)" d="M 111.017601 187.661606 
L 133.563065 192.839644 
L 146.923721 183.907136 
L 124.518804 178.827036 
z
" style="fill:#a30a29;fill-opacity:0.8;"/>
    <path clip-path="url(#p5b380b57d8)" d="M 133.567668 193.211735 
L 146.926328 184.276987 
L 146.923721 183.907136 
L 133.563065 192.839644 
z
" style="fill:#5d0618;fill-opacity:0.8;"/>
    <path clip-path="url(#p5b380b57d8)" d="M 111.025485 188.032401 
L 133.567668 193.211735 
L 133.563065 192.839644 
L 111.017601 187.661606 
z
" style="fill:#ba0c2f;fill-opacity:0.8;"/>
   </g>
   <g id="Poly3DCollection_9">
    <path clip-path="url(#p5b380b57d8)" d="M 240.724355 181.911774 
L 240.714736 182.232668 
L 263.820671 187.345179 
L 263.833286 187.023166 
z
" style="fill:#ba0c2f;fill-opacity:0.8;"/>
    <path clip-path="url(#p5b380b57d8)" d="M 228.299913 190.800862 
L 228.29179 191.123698 
L 240.714736 182.232668 
L 240.724355 181.911774 
z
" style="fill:#5d0618;fill-opacity:0.8;"/>
    <path clip-path="url(#p5b380b57d8)" d="M 228.29179 191.123698 
L 251.55142 196.33504 
L 263.820671 187.345179 
L 240.714736 182.232668 
z
" style="fill:#a30a29;fill-opacity:0.8;"/>
    <path clip-path="url(#p5b380b57d8)" d="M 228.299913 190.800862 
L 240.724355 181.911774 
L 263.833286 187.023166 
L 251.562579 196.011076 
z
" style="fill:#74081d;fill-opacity:0.8;"/>
    <path clip-path="url(#p5b380b57d8)" d="M 251.562579 196.011076 
L 263.833286 187.023166 
L 263.820671 187.345179 
L 251.55142 196.33504 
z
" style="fill:#ba0c2f;fill-opacity:0.8;"/>
    <path clip-path="url(#p5b380b57d8)" d="M 228.299913 190.800862 
L 251.562579 196.011076 
L 251.55142 196.33504 
L 228.29179 191.123698 
z
" style="fill:#5d0618;fill-opacity:0.8;"/>
   </g>
   <g id="Poly3DCollection_10">
    <path clip-path="url(#p5b380b57d8)" d="M 169.575801 189.41458 
L 169.575897 189.364156 
L 192.477761 194.558719 
L 192.477205 194.609319 
z
" style="fill:#5d0618;fill-opacity:0.8;"/>
    <path clip-path="url(#p5b380b57d8)" d="M 156.361613 198.448914 
L 156.361444 198.398184 
L 169.575897 189.364156 
L 169.575801 189.41458 
z
" style="fill:#ba0c2f;fill-opacity:0.8;"/>
    <path clip-path="url(#p5b380b57d8)" d="M 156.361613 198.448914 
L 169.575801 189.41458 
L 192.477205 194.609319 
L 179.411563 203.744913 
z
" style="fill:#74081d;fill-opacity:0.8;"/>
    <path clip-path="url(#p5b380b57d8)" d="M 156.361444 198.398184 
L 179.41186 203.694006 
L 192.477761 194.558719 
L 169.575897 189.364156 
z
" style="fill:#a30a29;fill-opacity:0.8;"/>
    <path clip-path="url(#p5b380b57d8)" d="M 179.411563 203.744913 
L 192.477205 194.609319 
L 192.477761 194.558719 
L 179.41186 203.694006 
z
" style="fill:#5d0618;fill-opacity:0.8;"/>
    <path clip-path="url(#p5b380b57d8)" d="M 156.361613 198.448914 
L 179.411563 203.744913 
L 179.41186 203.694006 
L 156.361444 198.398184 
z
" style="fill:#ba0c2f;fill-opacity:0.8;"/>
   </g>
   <g id="Poly3DCollection_11">
    <path clip-path="url(#p5b380b57d8)" d="M 97.265575 197.039888 
L 97.269714 197.194316 
L 119.952295 202.474998 
L 119.949531 202.32003 
z
" style="fill:#ba0c2f;fill-opacity:0.8;"/>
    <path clip-path="url(#p5b380b57d8)" d="M 83.237293 206.223056 
L 83.24234 206.378422 
L 97.269714 197.194316 
L 97.265575 197.039888 
z
" style="fill:#5d0618;fill-opacity:0.8;"/>
    <path clip-path="url(#p5b380b57d8)" d="M 83.24234 206.378422 
L 106.067939 211.762888 
L 119.952295 202.474998 
L 97.269714 197.194316 
z
" style="fill:#a30a29;fill-opacity:0.8;"/>
    <path clip-path="url(#p5b380b57d8)" d="M 83.237293 206.223056 
L 97.265575 197.039888 
L 119.949531 202.32003 
L 106.064284 211.606978 
z
" style="fill:#74081d;fill-opacity:0.8;"/>
    <path clip-path="url(#p5b380b57d8)" d="M 106.064284 211.606978 
L 119.949531 202.32003 
L 119.952295 202.474998 
L 106.067939 211.762888 
z
" style="fill:#ba0c2f;fill-opacity:0.8;"/>
    <path clip-path="url(#p5b380b57d8)" d="M 83.237293 206.223056 
L 106.064284 211.606978 
L 106.067939 211.762888 
L 83.24234 206.378422 
z
" style="fill:#5d0618;fill-opacity:0.8;"/>
   </g>
   <g id="Poly3DCollection_12">
    <path clip-path="url(#p5b380b57d8)" d="M 215.634767 199.862163 
L 215.637184 199.742609 
L 239.056359 205.054119 
L 239.052809 205.174091 
z
" style="fill:#5d0618;fill-opacity:0.8;"/>
    <path clip-path="url(#p5b380b57d8)" d="M 202.721854 209.100729 
L 202.723675 208.980449 
L 215.637184 199.742609 
L 215.634767 199.862163 
z
" style="fill:#ba0c2f;fill-opacity:0.8;"/>
    <path clip-path="url(#p5b380b57d8)" d="M 202.721854 209.100729 
L 215.634767 199.862163 
L 239.052809 205.174091 
L 226.296922 214.517381 
z
" style="fill:#74081d;fill-opacity:0.8;"/>
    <path clip-path="url(#p5b380b57d8)" d="M 202.723675 208.980449 
L 226.299891 214.396679 
L 239.056359 205.054119 
L 215.637184 199.742609 
z
" style="fill:#a30a29;fill-opacity:0.8;"/>
    <path clip-path="url(#p5b380b57d8)" d="M 226.296922 214.517381 
L 239.052809 205.174091 
L 239.056359 205.054119 
L 226.299891 214.396679 
z
" style="fill:#5d0618;fill-opacity:0.8;"/>
    <path clip-path="url(#p5b380b57d8)" d="M 202.721854 209.100729 
L 226.296922 214.517381 
L 226.299891 214.396679 
L 202.723675 208.980449 
z
" style="fill:#ba0c2f;fill-opacity:0.8;"/>
   </g>
   <g id="Poly3DCollection_13">
    <path clip-path="url(#p5b380b57d8)" d="M 142.889308 207.659719 
L 142.90122 209.025184 
L 166.088534 214.430216 
L 166.089257 213.059968 
z
" style="fill:#ba0c2f;fill-opacity:0.8;"/>
    <path clip-path="url(#p5b380b57d8)" d="M 129.151248 217.052216 
L 129.17083 218.425978 
L 142.90122 209.025184 
L 142.889308 207.659719 
z
" style="fill:#5d0618;fill-opacity:0.8;"/>
    <path clip-path="url(#p5b380b57d8)" d="M 129.17083 218.425978 
L 152.509433 223.938404 
L 166.088534 214.430216 
L 142.90122 209.025184 
z
" style="fill:#a30a29;fill-opacity:0.8;"/>
    <path clip-path="url(#p5b380b57d8)" d="M 129.151248 217.052216 
L 142.889308 207.659719 
L 166.089257 213.059968 
L 152.502651 222.559824 
z
" style="fill:#74081d;fill-opacity:0.8;"/>
    <path clip-path="url(#p5b380b57d8)" d="M 152.502651 222.559824 
L 166.089257 213.059968 
L 166.088534 214.430216 
L 152.509433 223.938404 
z
" style="fill:#ba0c2f;fill-opacity:0.8;"/>
    <path clip-path="url(#p5b380b57d8)" d="M 129.151248 217.052216 
L 152.502651 222.559824 
L 152.509433 223.938404 
L 129.17083 218.425978 
z
" style="fill:#5d0618;fill-opacity:0.8;"/>
   </g>
   <g id="Poly3DCollection_14">
    <path clip-path="url(#p5b380b57d8)" d="M 252.914891 173.190034 
L 264.878063 164.630962 
L 287.684409 169.552963 
L 275.871718 178.20539 
z
" style="fill:#74081d;fill-opacity:0.8;"/>
    <path clip-path="url(#p5b380b57d8)" d="M 264.878063 164.630962 
L 269.809637 38.959678 
L 293.773865 43.411542 
L 287.684409 169.552963 
z
" style="fill:#5d0618;fill-opacity:0.8;"/>
    <path clip-path="url(#p5b380b57d8)" d="M 252.914891 173.190034 
L 257.300045 46.702737 
L 269.809637 38.959678 
L 264.878063 164.630962 
z
" style="fill:#ba0c2f;fill-opacity:0.8;"/>
    <path clip-path="url(#p5b380b57d8)" d="M 275.871718 178.20539 
L 287.684409 169.552963 
L 293.773865 43.411542 
L 281.430656 51.243272 
z
" style="fill:#5d0618;fill-opacity:0.8;"/>
    <path clip-path="url(#p5b380b57d8)" d="M 252.914891 173.190034 
L 275.871718 178.20539 
L 281.430656 51.243272 
L 257.300045 46.702737 
z
" style="fill:#ba0c2f;fill-opacity:0.8;"/>
    <path clip-path="url(#p5b380b57d8)" d="M 257.300045 46.702737 
L 281.430656 51.243272 
L 293.773865 43.411542 
L 269.809637 38.959678 
z
" style="fill:#a30a29;fill-opacity:0.8;"/>
   </g>
   <g id="Poly3DCollection_15">
    <path clip-path="url(#p5b380b57d8)" d="M 25.504928 196.978294 
L 203.758011 239.216767 
L 299.788729 168.286788 
L 130.035708 131.80616 
z
" style="fill-opacity:0.15;"/>
   </g>
   <g id="Poly3DCollection_16">
    <path clip-path="url(#p5b380b57d8)" d="M 38.345859 195.635066 
L 52.648195 186.654306 
L 74.833184 191.818303 
L 60.665908 200.899421 
z
" style="fill:#74081d;fill-opacity:0.8;"/>
    <path clip-path="url(#p5b380b57d8)" d="M 52.648195 186.654306 
L 46.933544 57.750519 
L 70.222556 62.427839 
L 74.833184 191.818303 
z
" style="fill:#5d0618;fill-opacity:0.8;"/>
    <path clip-path="url(#p5b380b57d8)" d="M 38.345859 195.635066 
L 31.836896 65.886594 
L 46.933544 57.750519 
L 52.648195 186.654306 
z
" style="fill:#ba0c2f;fill-opacity:0.8;"/>
    <path clip-path="url(#p5b380b57d8)" d="M 60.665908 200.899421 
L 74.833184 191.818303 
L 70.222556 62.427839 
L 55.274545 70.659531 
z
" style="fill:#5d0618;fill-opacity:0.8;"/>
    <path clip-path="url(#p5b380b57d8)" d="M 38.345859 195.635066 
L 60.665908 200.899421 
L 55.274545 70.659531 
L 31.836896 65.886594 
z
" style="fill:#ba0c2f;fill-opacity:0.8;"/>
    <path clip-path="url(#p5b380b57d8)" d="M 31.836896 65.886594 
L 55.274545 70.659531 
L 70.222556 62.427839 
L 46.933544 57.750519 
z
" style="fill:#a30a29;fill-opacity:0.8;"/>
   </g>
   <g id="Poly3DCollection_17">
    <path clip-path="url(#p5b380b57d8)" d="M 176.123063 228.13088 
L 189.553831 218.521814 
L 213.287582 224.046316 
L 200.017159 233.766487 
z
" style="fill:#74081d;fill-opacity:0.8;"/>
    <path clip-path="url(#p5b380b57d8)" d="M 189.553831 218.521814 
L 190.164561 156.988682 
L 214.49016 162.288422 
L 213.287582 224.046316 
z
" style="fill:#5d0618;fill-opacity:0.8;"/>
    <path clip-path="url(#p5b380b57d8)" d="M 176.123063 228.13088 
L 176.405708 166.20777 
L 190.164561 156.988682 
L 189.553831 218.521814 
z
" style="fill:#ba0c2f;fill-opacity:0.8;"/>
    <path clip-path="url(#p5b380b57d8)" d="M 200.017159 233.766487 
L 213.287582 224.046316 
L 214.49016 162.288422 
L 200.899806 171.616768 
z
" style="fill:#5d0618;fill-opacity:0.8;"/>
    <path clip-path="url(#p5b380b57d8)" d="M 176.123063 228.13088 
L 200.017159 233.766487 
L 200.899806 171.616768 
L 176.405708 166.20777 
z
" style="fill:#ba0c2f;fill-opacity:0.8;"/>
    <path clip-path="url(#p5b380b57d8)" d="M 176.405708 166.20777 
L 200.899806 171.616768 
L 214.49016 162.288422 
L 190.164561 156.988682 
z
" style="fill:#a30a29;fill-opacity:0.8;"/>
   </g>
  </g>
  <g id="patch_6">
   <path d="M 425.945455 262.8 
L 806.4 262.8 
L 806.4 -14.4 
L 425.945455 -14.4 
z
" style="fill:#ffffff;"/>
  </g>
  <g id="pane3d_4">
   <g id="patch_7">
    <path d="M 476.380584 201.548569 
L 585.268665 133.58541 
L 583.455794 3.718968 
L 468.496488 64.782468 
" style="fill:#f2f2f2;opacity:0.5;stroke:#f2f2f2;stroke-linejoin:miter;"/>
   </g>
  </g>
  <g id="pane3d_5">
   <g id="patch_8">
    <path d="M 585.268665 133.58541 
L 761.65712 171.581202 
L 769.037001 37.79869 
L 583.455794 3.718968 
" style="fill:#e6e6e6;opacity:0.5;stroke:#e6e6e6;stroke-linejoin:miter;"/>
   </g>
  </g>
  <g id="pane3d_6">
   <g id="patch_9">
    <path d="M 476.380584 201.548569 
L 661.965072 245.80086 
L 761.65712 171.581202 
L 585.268665 133.58541 
" style="fill:#ececec;opacity:0.5;stroke:#ececec;stroke-linejoin:miter;"/>
   </g>
  </g>
  <g id="axis3d_4">
   <g id="line2d_15">
    <path d="M 476.380584 201.548569 
L 661.965072 245.80086 
" style="fill:none;stroke:#000000;stroke-linecap:square;stroke-width:0.8;"/>
   </g>
   <g id="Line3DCollection_4">
    <path d="M 498.841271 206.90428 
L 606.679397 138.19749 
L 605.9393 7.847789 
" style="fill:none;stroke:#b0b0b0;stroke-width:0.8;"/>
    <path d="M 544.057792 217.686079 
L 649.729469 147.470895 
L 651.182353 16.156123 
" style="fill:none;stroke:#b0b0b0;stroke-width:0.8;"/>
    <path d="M 590.310744 228.715013 
L 693.693551 156.941187 
L 697.435637 24.649974 
" style="fill:none;stroke:#b0b0b0;stroke-width:0.8;"/>
    <path d="M 637.636176 239.999678 
L 738.601063 166.614702 
L 744.733372 33.335625 
" style="fill:none;stroke:#b0b0b0;stroke-width:0.8;"/>
   </g>
   <g id="xtick_12">
    <g id="line2d_16">
     <path d="M 499.770538 206.312217 
L 496.979262 208.09062 
" style="fill:none;stroke:#000000;stroke-linecap:square;stroke-width:0.8;"/>
    </g>
    <g id="text_12">
     <!-- 00 -->
     <g transform="translate(474.220382 245.619336)rotate(-45)scale(0.22 -0.22)">
      <use transform="scale(0.996264)" xlink:href="#CMR17-48"/>
      <use transform="translate(45.690477 0)scale(0.996264)" xlink:href="#CMR17-48"/>
     </g>
    </g>
   </g>
   <g id="xtick_13">
    <g id="line2d_17">
     <path d="M 544.969128 217.080527 
L 542.231671 218.899473 
" style="fill:none;stroke:#000000;stroke-linecap:square;stroke-width:0.8;"/>
    </g>
    <g id="text_13">
     <!-- 01 -->
     <g transform="translate(519.432807 256.576088)rotate(-45)scale(0.22 -0.22)">
      <use transform="scale(0.996264)" xlink:href="#CMR17-48"/>
      <use transform="translate(45.690477 0)scale(0.996264)" xlink:href="#CMR17-49"/>
     </g>
    </g>
   </g>
   <g id="xtick_14">
    <g id="line2d_18">
     <path d="M 591.20308 228.095506 
L 588.522658 229.956397 
" style="fill:none;stroke:#000000;stroke-linecap:square;stroke-width:0.8;"/>
    </g>
    <g id="text_14">
     <!-- 10 -->
     <g transform="translate(565.68342 267.784434)rotate(-45)scale(0.22 -0.22)">
      <use transform="scale(0.996264)" xlink:href="#CMR17-49"/>
      <use transform="translate(45.690477 0)scale(0.996264)" xlink:href="#CMR17-48"/>
     </g>
    </g>
   </g>
   <g id="xtick_15">
    <g id="line2d_19">
     <path d="M 638.50838 239.365727 
L 635.888391 241.270032 
" style="fill:none;stroke:#000000;stroke-linecap:square;stroke-width:0.8;"/>
    </g>
    <g id="text_15">
     <!-- 11 -->
     <g transform="translate(613.008395 279.25314)rotate(-45)scale(0.22 -0.22)">
      <use transform="scale(0.996264)" xlink:href="#CMR17-49"/>
      <use transform="translate(45.690477 0)scale(0.996264)" xlink:href="#CMR17-49"/>
     </g>
    </g>
   </g>
  </g>
  <g id="axis3d_5">
   <g id="line2d_20">
    <path d="M 761.65712 171.581202 
L 661.965072 245.80086 
" style="fill:none;stroke:#000000;stroke-linecap:square;stroke-width:0.8;"/>
   </g>
   <g id="Line3DCollection_5">
    <path d="M 484.000685 56.547028 
L 491.016499 192.413474 
L 675.403872 235.795817 
" style="fill:none;stroke:#b0b0b0;stroke-width:0.8;"/>
    <path d="M 513.777478 40.730342 
L 519.168861 174.842005 
L 701.219492 216.576366 
" style="fill:none;stroke:#b0b0b0;stroke-width:0.8;"/>
    <path d="M 542.401344 25.526062 
L 546.284836 157.917404 
L 726.04244 198.095948 
" style="fill:none;stroke:#b0b0b0;stroke-width:0.8;"/>
    <path d="M 569.937971 10.899296 
L 572.420618 141.604597 
L 749.928893 180.312741 
" style="fill:none;stroke:#b0b0b0;stroke-width:0.8;"/>
   </g>
   <g id="xtick_16">
    <g id="line2d_21">
     <path d="M 673.861052 235.432825 
L 678.492943 236.522608 
" style="fill:none;stroke:#000000;stroke-linecap:square;stroke-width:0.8;"/>
    </g>
    <g id="text_16">
     <!-- 00 -->
     <g transform="translate(689.789427 248.955025)rotate(-337.5)scale(0.22 -0.22)">
      <use transform="scale(0.996264)" xlink:href="#CMR17-48"/>
      <use transform="translate(45.690477 0)scale(0.996264)" xlink:href="#CMR17-48"/>
     </g>
    </g>
   </g>
   <g id="xtick_17">
    <g id="line2d_22">
     <path d="M 699.697534 216.227463 
L 704.266725 217.274932 
" style="fill:none;stroke:#000000;stroke-linecap:square;stroke-width:0.8;"/>
    </g>
    <g id="text_17">
     <!-- 01 -->
     <g transform="translate(715.342978 229.510599)rotate(-337.5)scale(0.22 -0.22)">
      <use transform="scale(0.996264)" xlink:href="#CMR17-48"/>
      <use transform="translate(45.690477 0)scale(0.996264)" xlink:href="#CMR17-49"/>
     </g>
    </g>
   </g>
   <g id="xtick_18">
    <g id="line2d_23">
     <path d="M 724.540896 197.76033 
L 729.048738 198.767901 
" style="fill:none;stroke:#000000;stroke-linecap:square;stroke-width:0.8;"/>
    </g>
    <g id="text_18">
     <!-- 10 -->
     <g transform="translate(739.91439 210.813511)rotate(-337.5)scale(0.22 -0.22)">
      <use transform="scale(0.996264)" xlink:href="#CMR17-49"/>
      <use transform="translate(45.690477 0)scale(0.996264)" xlink:href="#CMR17-48"/>
     </g>
    </g>
   </g>
   <g id="xtick_19">
    <g id="line2d_24">
     <path d="M 748.44732 179.989663 
L 752.895146 180.959573 
" style="fill:none;stroke:#000000;stroke-linecap:square;stroke-width:0.8;"/>
    </g>
    <g id="text_19">
     <!-- 11 -->
     <g transform="translate(763.559216 192.821489)rotate(-337.5)scale(0.22 -0.22)">
      <use transform="scale(0.996264)" xlink:href="#CMR17-49"/>
      <use transform="translate(45.690477 0)scale(0.996264)" xlink:href="#CMR17-49"/>
     </g>
    </g>
   </g>
  </g>
  <g id="axis3d_6">
   <g id="line2d_25">
    <path d="M 761.65712 171.581202 
L 769.037001 37.79869 
" style="fill:none;stroke:#000000;stroke-linecap:square;stroke-width:0.8;"/>
   </g>
   <g id="Line3DCollection_6">
    <path d="M 761.92586 166.70948 
L 585.20251 128.846357 
L 476.093958 196.576454 
" style="fill:none;stroke:#b0b0b0;stroke-width:0.8;"/>
    <path d="M 764.624889 117.781466 
L 584.538682 81.292467 
L 473.21331 146.605596 
" style="fill:none;stroke:#b0b0b0;stroke-width:0.8;"/>
    <path d="M 767.429562 66.938355 
L 583.84999 31.957493 
L 470.216066 94.612131 
" style="fill:none;stroke:#b0b0b0;stroke-width:0.8;"/>
   </g>
   <g id="xtick_20">
    <g id="line2d_26">
     <path d="M 760.4513 166.393554 
L 764.878049 167.341989 
" style="fill:none;stroke:#000000;stroke-linecap:square;stroke-width:0.8;"/>
    </g>
    <g id="text_20">
     <!-- $0.0$ -->
     <g transform="translate(767.437671 179.992443)scale(0.22 -0.22)">
      <use transform="scale(0.996264)" xlink:href="#CMR17-48"/>
      <use transform="translate(45.690477 0)scale(0.996264)" xlink:href="#CMMI12-58"/>
      <use transform="translate(72.787654 0)scale(0.996264)" xlink:href="#CMR17-48"/>
     </g>
    </g>
   </g>
   <g id="xtick_21">
    <g id="line2d_27">
     <path d="M 763.121082 117.476765 
L 767.635695 118.391514 
" style="fill:none;stroke:#000000;stroke-linecap:square;stroke-width:0.8;"/>
    </g>
    <g id="text_21">
     <!-- $0.2$ -->
     <g transform="translate(770.486038 131.133339)scale(0.22 -0.22)">
      <use transform="scale(0.996264)" xlink:href="#CMR17-48"/>
      <use transform="translate(45.690477 0)scale(0.996264)" xlink:href="#CMMI12-58"/>
      <use transform="translate(72.787654 0)scale(0.996264)" xlink:href="#CMR17-50"/>
     </g>
    </g>
   </g>
   <g id="xtick_22">
    <g id="line2d_28">
     <path d="M 765.895325 66.646008 
L 770.501356 67.523682 
" style="fill:none;stroke:#000000;stroke-linecap:square;stroke-width:0.8;"/>
    </g>
    <g id="text_22">
     <!-- $0.4$ -->
     <g transform="translate(773.653458 80.366062)scale(0.22 -0.22)">
      <use transform="scale(0.996264)" xlink:href="#CMR17-48"/>
      <use transform="translate(45.690477 0)scale(0.996264)" xlink:href="#CMMI12-58"/>
      <use transform="translate(72.787654 0)scale(0.996264)" xlink:href="#CMR17-52"/>
     </g>
    </g>
   </g>
  </g>
  <g id="axes_2">
   <g id="Poly3DCollection_18">
    <path clip-path="url(#pa28710df08)" d="M 589.569221 135.201568 
L 589.54119 132.922968 
L 610.965804 137.52973 
L 610.974981 139.816195 
z
" style="fill:#065d4c;fill-opacity:0.8;"/>
    <path clip-path="url(#pa28710df08)" d="M 576.776974 143.225143 
L 576.737289 140.932895 
L 589.54119 132.922968 
L 589.569221 135.201568 
z
" style="fill:#0cba97;fill-opacity:0.8;"/>
    <path clip-path="url(#pa28710df08)" d="M 576.776974 143.225143 
L 589.569221 135.201568 
L 610.974981 139.816195 
L 598.311267 147.924544 
z
" style="fill:#08745e;fill-opacity:0.8;"/>
    <path clip-path="url(#pa28710df08)" d="M 576.737289 140.932895 
L 598.290661 145.624362 
L 610.965804 137.52973 
L 589.54119 132.922968 
z
" style="fill:#0aa384;fill-opacity:0.8;"/>
    <path clip-path="url(#pa28710df08)" d="M 598.311267 147.924544 
L 610.974981 139.816195 
L 610.965804 137.52973 
L 598.290661 145.624362 
z
" style="fill:#065d4c;fill-opacity:0.8;"/>
    <path clip-path="url(#pa28710df08)" d="M 576.776974 143.225143 
L 598.311267 147.924544 
L 598.290661 145.624362 
L 576.737289 140.932895 
z
" style="fill:#0cba97;fill-opacity:0.8;"/>
   </g>
   <g id="Poly3DCollection_19">
    <path clip-path="url(#pa28710df08)" d="M 632.606467 144.479484 
L 632.604926 144.830387 
L 654.462718 149.544324 
L 654.467266 149.192208 
z
" style="fill:#0cba97;fill-opacity:0.8;"/>
    <path clip-path="url(#pa28710df08)" d="M 620.074732 152.673957 
L 620.074903 153.026966 
L 632.604926 144.830387 
L 632.606467 144.479484 
z
" style="fill:#065d4c;fill-opacity:0.8;"/>
    <path clip-path="url(#pa28710df08)" d="M 620.074903 153.026966 
L 642.068175 157.828417 
L 654.462718 149.544324 
L 632.604926 144.830387 
z
" style="fill:#0aa384;fill-opacity:0.8;"/>
    <path clip-path="url(#pa28710df08)" d="M 620.074732 152.673957 
L 632.606467 144.479484 
L 654.467266 149.192208 
L 642.071049 157.474185 
z
" style="fill:#08745e;fill-opacity:0.8;"/>
    <path clip-path="url(#pa28710df08)" d="M 642.071049 157.474185 
L 654.467266 149.192208 
L 654.462718 149.544324 
L 642.068175 157.828417 
z
" style="fill:#0cba97;fill-opacity:0.8;"/>
    <path clip-path="url(#pa28710df08)" d="M 620.074732 152.673957 
L 642.071049 157.474185 
L 642.068175 157.828417 
L 620.074903 153.026966 
z
" style="fill:#065d4c;fill-opacity:0.8;"/>
   </g>
   <g id="Poly3DCollection_20">
    <path clip-path="url(#pa28710df08)" d="M 563.749265 151.396406 
L 563.731522 150.606001 
L 585.402086 155.389793 
L 585.413211 156.182938 
z
" style="fill:#065d4c;fill-opacity:0.8;"/>
    <path clip-path="url(#pa28710df08)" d="M 550.479533 159.719471 
L 550.457497 158.924311 
L 563.731522 150.606001 
L 563.749265 151.396406 
z
" style="fill:#0cba97;fill-opacity:0.8;"/>
    <path clip-path="url(#pa28710df08)" d="M 550.479533 159.719471 
L 563.749265 151.396406 
L 585.413211 156.182938 
L 572.274248 164.59558 
z
" style="fill:#08745e;fill-opacity:0.8;"/>
    <path clip-path="url(#pa28710df08)" d="M 550.457497 158.924311 
L 572.258909 163.797658 
L 585.402086 155.389793 
L 563.731522 150.606001 
z
" style="fill:#0aa384;fill-opacity:0.8;"/>
    <path clip-path="url(#pa28710df08)" d="M 572.274248 164.59558 
L 585.413211 156.182938 
L 585.402086 155.389793 
L 572.258909 163.797658 
z
" style="fill:#065d4c;fill-opacity:0.8;"/>
    <path clip-path="url(#pa28710df08)" d="M 550.479533 159.719471 
L 572.274248 164.59558 
L 572.258909 163.797658 
L 550.457497 158.924311 
z
" style="fill:#0cba97;fill-opacity:0.8;"/>
   </g>
   <g id="Poly3DCollection_21">
    <path clip-path="url(#pa28710df08)" d="M 676.561045 153.955157 
L 676.575334 153.292584 
L 698.911721 158.104267 
L 698.891549 158.769139 
z
" style="fill:#065d4c;fill-opacity:0.8;"/>
    <path clip-path="url(#pa28710df08)" d="M 664.303973 162.326047 
L 664.315196 161.659485 
L 676.575334 153.292584 
L 676.561045 153.955157 
z
" style="fill:#0cba97;fill-opacity:0.8;"/>
    <path clip-path="url(#pa28710df08)" d="M 664.303973 162.326047 
L 676.561045 153.955157 
L 698.891549 158.769139 
L 686.777344 167.230382 
z
" style="fill:#08745e;fill-opacity:0.8;"/>
    <path clip-path="url(#pa28710df08)" d="M 664.315196 161.659485 
L 686.794526 166.561502 
L 698.911721 158.104267 
L 676.575334 153.292584 
z
" style="fill:#0aa384;fill-opacity:0.8;"/>
    <path clip-path="url(#pa28710df08)" d="M 686.777344 167.230382 
L 698.891549 158.769139 
L 698.911721 158.104267 
L 686.794526 166.561502 
z
" style="fill:#065d4c;fill-opacity:0.8;"/>
    <path clip-path="url(#pa28710df08)" d="M 664.303973 162.326047 
L 686.777344 167.230382 
L 686.794526 166.561502 
L 664.315196 161.659485 
z
" style="fill:#0cba97;fill-opacity:0.8;"/>
   </g>
   <g id="Poly3DCollection_22">
    <path clip-path="url(#pa28710df08)" d="M 607.309853 161.020884 
L 607.308022 160.686766 
L 629.444032 165.575796 
L 629.442963 165.911075 
z
" style="fill:#065d4c;fill-opacity:0.8;"/>
    <path clip-path="url(#pa28710df08)" d="M 594.305262 169.524557 
L 594.301697 169.188424 
L 607.308022 160.686766 
L 607.309853 161.020884 
z
" style="fill:#0cba97;fill-opacity:0.8;"/>
    <path clip-path="url(#pa28710df08)" d="M 594.305262 169.524557 
L 607.309853 161.020884 
L 629.442963 165.911075 
L 616.576441 174.507266 
z
" style="fill:#08745e;fill-opacity:0.8;"/>
    <path clip-path="url(#pa28710df08)" d="M 594.301697 169.188424 
L 616.575812 174.169962 
L 629.444032 165.575796 
L 607.308022 160.686766 
z
" style="fill:#0aa384;fill-opacity:0.8;"/>
    <path clip-path="url(#pa28710df08)" d="M 616.576441 174.507266 
L 629.442963 165.911075 
L 629.444032 165.575796 
L 616.575812 174.169962 
z
" style="fill:#065d4c;fill-opacity:0.8;"/>
    <path clip-path="url(#pa28710df08)" d="M 594.305262 169.524557 
L 616.576441 174.507266 
L 616.575812 174.169962 
L 594.301697 169.188424 
z
" style="fill:#0cba97;fill-opacity:0.8;"/>
   </g>
   <g id="Poly3DCollection_23">
    <path clip-path="url(#pa28710df08)" d="M 721.462602 163.634979 
L 721.462602 163.634979 
L 744.278112 168.553518 
L 744.278112 168.553518 
z
" style="fill:#065d4c;fill-opacity:0.8;"/>
    <path clip-path="url(#pa28710df08)" d="M 709.495083 172.188045 
L 709.495083 172.188045 
L 721.462602 163.634979 
L 721.462602 163.634979 
z
" style="fill:#065d4c;fill-opacity:0.8;"/>
    <path clip-path="url(#pa28710df08)" d="M 709.495083 172.188045 
L 721.462602 163.634979 
L 744.278112 168.553518 
L 732.461197 177.19991 
z
" style="fill:#08745e;fill-opacity:0.8;"/>
    <path clip-path="url(#pa28710df08)" d="M 709.495083 172.188045 
L 732.461197 177.19991 
L 744.278112 168.553518 
L 721.462602 163.634979 
z
" style="fill:#0aa384;fill-opacity:0.8;"/>
    <path clip-path="url(#pa28710df08)" d="M 732.461197 177.19991 
L 744.278112 168.553518 
L 744.278112 168.553518 
L 732.461197 177.19991 
z
" style="fill:#065d4c;fill-opacity:0.8;"/>
    <path clip-path="url(#pa28710df08)" d="M 709.495083 172.188045 
L 732.461197 177.19991 
L 732.461197 177.19991 
L 709.495083 172.188045 
z
" style="fill:#065d4c;fill-opacity:0.8;"/>
   </g>
   <g id="Poly3DCollection_24">
    <path clip-path="url(#pa28710df08)" d="M 536.960969 168.198608 
L 536.978877 168.739432 
L 558.900889 173.70954 
L 558.887564 173.166833 
z
" style="fill:#0cba97;fill-opacity:0.8;"/>
    <path clip-path="url(#pa28710df08)" d="M 523.186508 176.83825 
L 523.207537 177.38234 
L 536.978877 168.739432 
L 536.960969 168.198608 
z
" style="fill:#065d4c;fill-opacity:0.8;"/>
    <path clip-path="url(#pa28710df08)" d="M 523.207537 177.38234 
L 545.262479 182.447214 
L 558.900889 173.70954 
L 536.978877 168.739432 
z
" style="fill:#0aa384;fill-opacity:0.8;"/>
    <path clip-path="url(#pa28710df08)" d="M 523.186508 176.83825 
L 536.960969 168.198608 
L 558.887564 173.166833 
L 545.246088 181.901226 
z
" style="fill:#08745e;fill-opacity:0.8;"/>
    <path clip-path="url(#pa28710df08)" d="M 545.246088 181.901226 
L 558.887564 173.166833 
L 558.900889 173.70954 
L 545.262479 182.447214 
z
" style="fill:#0cba97;fill-opacity:0.8;"/>
    <path clip-path="url(#pa28710df08)" d="M 523.186508 176.83825 
L 545.246088 181.901226 
L 545.262479 182.447214 
L 523.207537 177.38234 
z
" style="fill:#065d4c;fill-opacity:0.8;"/>
   </g>
   <g id="Poly3DCollection_25">
    <path clip-path="url(#pa28710df08)" d="M 651.816391 170.854364 
L 651.816391 170.854364 
L 674.434072 175.851619 
L 674.434072 175.851619 
z
" style="fill:#065d4c;fill-opacity:0.8;"/>
    <path clip-path="url(#pa28710df08)" d="M 639.091733 179.544589 
L 639.091733 179.544589 
L 651.816391 170.854364 
L 651.816391 170.854364 
z
" style="fill:#065d4c;fill-opacity:0.8;"/>
    <path clip-path="url(#pa28710df08)" d="M 639.091733 179.544589 
L 661.855172 184.637431 
L 674.434072 175.851619 
L 651.816391 170.854364 
z
" style="fill:#0aa384;fill-opacity:0.8;"/>
    <path clip-path="url(#pa28710df08)" d="M 639.091733 179.544589 
L 651.816391 170.854364 
L 674.434072 175.851619 
L 661.855172 184.637431 
z
" style="fill:#08745e;fill-opacity:0.8;"/>
    <path clip-path="url(#pa28710df08)" d="M 661.855172 184.637431 
L 674.434072 175.851619 
L 674.434072 175.851619 
L 661.855172 184.637431 
z
" style="fill:#065d4c;fill-opacity:0.8;"/>
    <path clip-path="url(#pa28710df08)" d="M 639.091733 179.544589 
L 661.855172 184.637431 
L 661.855172 184.637431 
L 639.091733 179.544589 
z
" style="fill:#065d4c;fill-opacity:0.8;"/>
   </g>
   <g id="Poly3DCollection_26">
    <path clip-path="url(#pa28710df08)" d="M 581.054143 178.189435 
L 581.054143 178.189435 
L 603.464666 183.267311 
L 603.464666 183.267311 
z
" style="fill:#065d4c;fill-opacity:0.8;"/>
    <path clip-path="url(#pa28710df08)" d="M 567.549417 187.020145 
L 567.549417 187.020145 
L 581.054143 178.189435 
L 581.054143 178.189435 
z
" style="fill:#065d4c;fill-opacity:0.8;"/>
    <path clip-path="url(#pa28710df08)" d="M 567.549417 187.020145 
L 581.054143 178.189435 
L 603.464666 183.267311 
L 590.100558 192.195941 
z
" style="fill:#08745e;fill-opacity:0.8;"/>
    <path clip-path="url(#pa28710df08)" d="M 567.549417 187.020145 
L 590.100558 192.195941 
L 603.464666 183.267311 
L 581.054143 178.189435 
z
" style="fill:#0aa384;fill-opacity:0.8;"/>
    <path clip-path="url(#pa28710df08)" d="M 590.100558 192.195941 
L 603.464666 183.267311 
L 603.464666 183.267311 
L 590.100558 192.195941 
z
" style="fill:#065d4c;fill-opacity:0.8;"/>
    <path clip-path="url(#pa28710df08)" d="M 567.549417 187.020145 
L 590.100558 192.195941 
L 590.100558 192.195941 
L 567.549417 187.020145 
z
" style="fill:#065d4c;fill-opacity:0.8;"/>
   </g>
   <g id="Poly3DCollection_27">
    <path clip-path="url(#pa28710df08)" d="M 697.300028 180.903729 
L 697.279796 181.57864 
L 720.391837 186.688869 
L 720.41837 186.011602 
z
" style="fill:#0cba97;fill-opacity:0.8;"/>
    <path clip-path="url(#pa28710df08)" d="M 684.870886 189.786713 
L 684.853801 190.465712 
L 697.279796 181.57864 
L 697.300028 180.903729 
z
" style="fill:#065d4c;fill-opacity:0.8;"/>
    <path clip-path="url(#pa28710df08)" d="M 684.853801 190.465712 
L 708.119619 195.674753 
L 720.391837 186.688869 
L 697.279796 181.57864 
z
" style="fill:#0aa384;fill-opacity:0.8;"/>
    <path clip-path="url(#pa28710df08)" d="M 684.870886 189.786713 
L 697.300028 180.903729 
L 720.41837 186.011602 
L 708.143089 194.99338 
z
" style="fill:#08745e;fill-opacity:0.8;"/>
    <path clip-path="url(#pa28710df08)" d="M 708.143089 194.99338 
L 720.41837 186.011602 
L 720.391837 186.688869 
L 708.119619 195.674753 
z
" style="fill:#0cba97;fill-opacity:0.8;"/>
    <path clip-path="url(#pa28710df08)" d="M 684.870886 189.786713 
L 708.143089 194.99338 
L 708.119619 195.674753 
L 684.853801 190.465712 
z
" style="fill:#065d4c;fill-opacity:0.8;"/>
   </g>
   <g id="Poly3DCollection_28">
    <path clip-path="url(#pa28710df08)" d="M 509.148816 185.642996 
L 509.148816 185.642996 
L 531.342476 190.803459 
L 531.342476 190.803459 
z
" style="fill:#065d4c;fill-opacity:0.8;"/>
    <path clip-path="url(#pa28710df08)" d="M 494.840273 194.617625 
L 494.840273 194.617625 
L 509.148816 185.642996 
L 509.148816 185.642996 
z
" style="fill:#065d4c;fill-opacity:0.8;"/>
    <path clip-path="url(#pa28710df08)" d="M 494.840273 194.617625 
L 517.169097 199.878419 
L 531.342476 190.803459 
L 509.148816 185.642996 
z
" style="fill:#0aa384;fill-opacity:0.8;"/>
    <path clip-path="url(#pa28710df08)" d="M 494.840273 194.617625 
L 509.148816 185.642996 
L 531.342476 190.803459 
L 517.169097 199.878419 
z
" style="fill:#08745e;fill-opacity:0.8;"/>
    <path clip-path="url(#pa28710df08)" d="M 517.169097 199.878419 
L 531.342476 190.803459 
L 531.342476 190.803459 
L 517.169097 199.878419 
z
" style="fill:#065d4c;fill-opacity:0.8;"/>
    <path clip-path="url(#pa28710df08)" d="M 494.840273 194.617625 
L 517.169097 199.878419 
L 517.169097 199.878419 
L 494.840273 194.617625 
z
" style="fill:#065d4c;fill-opacity:0.8;"/>
   </g>
   <g id="Poly3DCollection_29">
    <path clip-path="url(#pa28710df08)" d="M 626.123184 188.401378 
L 626.122536 188.741818 
L 649.03008 193.934206 
L 649.033834 193.592575 
z
" style="fill:#0cba97;fill-opacity:0.8;"/>
    <path clip-path="url(#pa28710df08)" d="M 612.903664 197.429567 
L 612.904807 197.772072 
L 626.122536 188.741818 
L 626.123184 188.401378 
z
" style="fill:#065d4c;fill-opacity:0.8;"/>
    <path clip-path="url(#pa28710df08)" d="M 612.904807 197.772072 
L 635.960977 203.065701 
L 649.03008 193.934206 
L 626.122536 188.741818 
z
" style="fill:#0aa384;fill-opacity:0.8;"/>
    <path clip-path="url(#pa28710df08)" d="M 612.903664 197.429567 
L 626.123184 188.401378 
L 649.033834 193.592575 
L 635.96298 202.721996 
z
" style="fill:#08745e;fill-opacity:0.8;"/>
    <path clip-path="url(#pa28710df08)" d="M 635.96298 202.721996 
L 649.033834 193.592575 
L 649.03008 193.934206 
L 635.960977 203.065701 
z
" style="fill:#0cba97;fill-opacity:0.8;"/>
    <path clip-path="url(#pa28710df08)" d="M 612.903664 197.429567 
L 635.96298 202.721996 
L 635.960977 203.065701 
L 612.904807 197.772072 
z
" style="fill:#065d4c;fill-opacity:0.8;"/>
   </g>
   <g id="Poly3DCollection_30">
    <path clip-path="url(#pa28710df08)" d="M 553.783736 196.021494 
L 553.768956 195.470035 
L 576.466894 200.744678 
L 576.476762 201.29807 
z
" style="fill:#065d4c;fill-opacity:0.8;"/>
    <path clip-path="url(#pa28710df08)" d="M 539.74946 205.198477 
L 539.731434 204.643664 
L 553.768956 195.470035 
L 553.783736 196.021494 
z
" style="fill:#0cba97;fill-opacity:0.8;"/>
    <path clip-path="url(#pa28710df08)" d="M 539.74946 205.198477 
L 553.783736 196.021494 
L 576.476762 201.29807 
L 562.585635 210.578805 
z
" style="fill:#08745e;fill-opacity:0.8;"/>
    <path clip-path="url(#pa28710df08)" d="M 539.731434 204.643664 
L 562.572583 210.022045 
L 576.466894 200.744678 
L 553.768956 195.470035 
z
" style="fill:#0aa384;fill-opacity:0.8;"/>
    <path clip-path="url(#pa28710df08)" d="M 562.585635 210.578805 
L 576.476762 201.29807 
L 576.466894 200.744678 
L 562.572583 210.022045 
z
" style="fill:#065d4c;fill-opacity:0.8;"/>
    <path clip-path="url(#pa28710df08)" d="M 539.74946 205.198477 
L 562.585635 210.578805 
L 562.572583 210.022045 
L 539.731434 204.643664 
z
" style="fill:#0cba97;fill-opacity:0.8;"/>
   </g>
   <g id="Poly3DCollection_31">
    <path clip-path="url(#pa28710df08)" d="M 672.20085 198.841861 
L 672.208222 198.477272 
L 695.639385 203.784348 
L 695.628559 204.150215 
z
" style="fill:#065d4c;fill-opacity:0.8;"/>
    <path clip-path="url(#pa28710df08)" d="M 659.282851 208.074226 
L 659.288405 207.70742 
L 672.208222 198.477272 
L 672.20085 198.841861 
z
" style="fill:#0cba97;fill-opacity:0.8;"/>
    <path clip-path="url(#pa28710df08)" d="M 659.282851 208.074226 
L 672.20085 198.841861 
L 695.628559 204.150215 
L 682.867717 213.487276 
z
" style="fill:#08745e;fill-opacity:0.8;"/>
    <path clip-path="url(#pa28710df08)" d="M 659.288405 207.70742 
L 682.876772 213.119182 
L 695.639385 203.784348 
L 672.208222 198.477272 
z
" style="fill:#0aa384;fill-opacity:0.8;"/>
    <path clip-path="url(#pa28710df08)" d="M 682.867717 213.487276 
L 695.628559 204.150215 
L 695.639385 203.784348 
L 682.876772 213.119182 
z
" style="fill:#065d4c;fill-opacity:0.8;"/>
    <path clip-path="url(#pa28710df08)" d="M 659.282851 208.074226 
L 682.867717 213.487276 
L 682.876772 213.119182 
L 659.288405 207.70742 
z
" style="fill:#0cba97;fill-opacity:0.8;"/>
   </g>
   <g id="Poly3DCollection_32">
    <path clip-path="url(#pa28710df08)" d="M 599.425816 206.634178 
L 599.432974 207.454711 
L 622.634821 212.854242 
L 622.635255 212.03083 
z
" style="fill:#0cba97;fill-opacity:0.8;"/>
    <path clip-path="url(#pa28710df08)" d="M 585.681995 216.020435 
L 585.693762 216.845962 
L 599.432974 207.454711 
L 599.425816 206.634178 
z
" style="fill:#065d4c;fill-opacity:0.8;"/>
    <path clip-path="url(#pa28710df08)" d="M 585.693762 216.845962 
L 609.047087 222.352846 
L 622.634821 212.854242 
L 599.432974 207.454711 
z
" style="fill:#0aa384;fill-opacity:0.8;"/>
    <path clip-path="url(#pa28710df08)" d="M 585.681995 216.020435 
L 599.425816 206.634178 
L 622.635255 212.03083 
L 609.043011 221.524419 
z
" style="fill:#08745e;fill-opacity:0.8;"/>
    <path clip-path="url(#pa28710df08)" d="M 609.043011 221.524419 
L 622.635255 212.03083 
L 622.634821 212.854242 
L 609.047087 222.352846 
z
" style="fill:#0cba97;fill-opacity:0.8;"/>
    <path clip-path="url(#pa28710df08)" d="M 585.681995 216.020435 
L 609.043011 221.524419 
L 609.047087 222.352846 
L 585.693762 216.845962 
z
" style="fill:#065d4c;fill-opacity:0.8;"/>
   </g>
   <g id="Poly3DCollection_33">
    <path clip-path="url(#pa28710df08)" d="M 646.109536 217.489063 
L 646.085638 219.896865 
L 669.806167 225.42619 
L 669.853217 223.009937 
z
" style="fill:#0cba97;fill-opacity:0.8;"/>
    <path clip-path="url(#pa28710df08)" d="M 632.67326 227.091835 
L 632.662203 229.514298 
L 646.085638 219.896865 
L 646.109536 217.489063 
z
" style="fill:#065d4c;fill-opacity:0.8;"/>
    <path clip-path="url(#pa28710df08)" d="M 632.662203 229.514298 
L 656.542897 235.154762 
L 669.806167 225.42619 
L 646.085638 219.896865 
z
" style="fill:#0aa384;fill-opacity:0.8;"/>
    <path clip-path="url(#pa28710df08)" d="M 632.67326 227.091835 
L 646.109536 217.489063 
L 669.853217 223.009937 
L 656.577422 232.723787 
z
" style="fill:#08745e;fill-opacity:0.8;"/>
    <path clip-path="url(#pa28710df08)" d="M 656.577422 232.723787 
L 669.853217 223.009937 
L 669.806167 225.42619 
L 656.542897 235.154762 
z
" style="fill:#0cba97;fill-opacity:0.8;"/>
    <path clip-path="url(#pa28710df08)" d="M 632.67326 227.091835 
L 656.577422 232.723787 
L 656.542897 235.154762 
L 632.662203 229.514298 
z
" style="fill:#065d4c;fill-opacity:0.8;"/>
   </g>
   <g id="Poly3DCollection_34">
    <path clip-path="url(#pa28710df08)" d="M 481.994077 195.959942 
L 660.319937 238.170559 
L 756.38711 167.288232 
L 586.568092 130.833793 
z
" style="fill-opacity:0.2;"/>
   </g>
  </g>
 </g>
 <defs>
  <clipPath id="p5b380b57d8">
   <rect height="277.2" width="380.454545" x="-30.6" y="-14.4"/>
  </clipPath>
  <clipPath id="pa28710df08">
   <rect height="277.2" width="380.454545" x="425.945455" y="-14.4"/>
  </clipPath>
 </defs>
</svg>
