<?xml version="1.0" encoding="utf-8" standalone="no"?>
<!DOCTYPE svg PUBLIC "-//W3C//DTD SVG 1.1//EN"
  "http://www.w3.org/Graphics/SVG/1.1/DTD/svg11.dtd">
<!-- Created with matplotlib (https://matplotlib.org/) -->
<svg height="302.4pt" version="1.1" viewBox="0 0 820.8 302.4" width="820.8pt" xmlns="http://www.w3.org/2000/svg" xmlns:xlink="http://www.w3.org/1999/xlink">
 <defs>
  <style type="text/css">
*{stroke-linecap:butt;stroke-linejoin:round;}
  </style>
 </defs>
 <g id="figure_1">
  <g id="patch_1">
   <path d="M 0 302.4 
L 820.8 302.4 
L 820.8 0 
L 0 0 
z
" style="fill:#ffffff;"/>
  </g>
  <g id="patch_2">
   <path d="M -30.6 262.8 
L 349.854545 262.8 
L 349.854545 -14.4 
L -30.6 -14.4 
z
" style="fill:#ffffff;"/>
  </g>
  <g id="pane3d_1">
   <g id="patch_3">
    <path d="M 19.835129 201.548569 
L 128.723211 133.58541 
L 126.910339 3.718968 
L 11.951034 64.782468 
" style="fill:#f2f2f2;opacity:0.5;stroke:#f2f2f2;stroke-linejoin:miter;"/>
   </g>
  </g>
  <g id="pane3d_2">
   <g id="patch_4">
    <path d="M 128.723211 133.58541 
L 305.111665 171.581202 
L 312.491547 37.79869 
L 126.910339 3.718968 
" style="fill:#e6e6e6;opacity:0.5;stroke:#e6e6e6;stroke-linejoin:miter;"/>
   </g>
  </g>
  <g id="pane3d_3">
   <g id="patch_5">
    <path d="M 19.835129 201.548569 
L 205.419617 245.80086 
L 305.111665 171.581202 
L 128.723211 133.58541 
" style="fill:#ececec;opacity:0.5;stroke:#ececec;stroke-linejoin:miter;"/>
   </g>
  </g>
  <g id="axis3d_1">
   <g id="line2d_1">
    <path d="M 19.835129 201.548569 
L 205.419617 245.80086 
" style="fill:none;stroke:#000000;stroke-linecap:square;stroke-width:0.8;"/>
   </g>
   <g id="Line3DCollection_1">
    <path d="M 42.295817 206.90428 
L 150.133942 138.19749 
L 149.393845 7.847789 
" style="fill:none;stroke:#b0b0b0;stroke-width:0.8;"/>
    <path d="M 87.512337 217.686079 
L 193.184014 147.470895 
L 194.636898 16.156123 
" style="fill:none;stroke:#b0b0b0;stroke-width:0.8;"/>
    <path d="M 133.765289 228.715013 
L 237.148096 156.941187 
L 240.890183 24.649974 
" style="fill:none;stroke:#b0b0b0;stroke-width:0.8;"/>
    <path d="M 181.090721 239.999678 
L 282.055608 166.614702 
L 288.187917 33.335625 
" style="fill:none;stroke:#b0b0b0;stroke-width:0.8;"/>
   </g>
   <g id="xtick_1">
    <g id="line2d_2">
     <path d="M 43.225084 206.312217 
L 40.433807 208.09062 
" style="fill:none;stroke:#000000;stroke-linecap:square;stroke-width:0.8;"/>
    </g>
    <g id="text_1">
     <!-- 00 -->
     <defs>
      <path d="M 42 31.84375 
C 42 37.96875 41.90625 48.421875 37.703125 56.453125 
C 34 63.484375 28.09375 66 22.90625 66 
C 18.09375 66 12 63.78125 8.203125 56.5625 
C 4.203125 49.015625 3.796875 39.671875 3.796875 31.84375 
C 3.796875 26.109375 3.90625 17.375 7 9.734375 
C 11.296875 -0.609375 19 -2 22.90625 -2 
C 27.5 -2 34.5 -0.109375 38.59375 9.4375 
C 41.59375 16.375 42 24.5 42 31.84375 
z
M 22.90625 -0.40625 
C 16.5 -0.40625 12.703125 5.125 11.296875 12.75 
C 10.203125 18.6875 10.203125 27.328125 10.203125 32.953125 
C 10.203125 40.6875 10.203125 47.109375 11.5 53.234375 
C 13.40625 61.78125 19 64.390625 22.90625 64.390625 
C 27 64.390625 32.296875 61.671875 34.203125 53.4375 
C 35.5 47.71875 35.59375 40.984375 35.59375 32.953125 
C 35.59375 26.421875 35.59375 18.375 34.40625 12.453125 
C 32.296875 1.5 26.40625 -0.40625 22.90625 -0.40625 
z
" id="CMR17-48"/>
     </defs>
     <g transform="translate(17.674928 245.619336)rotate(-45)scale(0.22 -0.22)">
      <use transform="scale(0.996264)" xlink:href="#CMR17-48"/>
      <use transform="translate(45.690477 0)scale(0.996264)" xlink:href="#CMR17-48"/>
     </g>
    </g>
   </g>
   <g id="xtick_2">
    <g id="line2d_3">
     <path d="M 88.423674 217.080527 
L 85.686217 218.899473 
" style="fill:none;stroke:#000000;stroke-linecap:square;stroke-width:0.8;"/>
    </g>
    <g id="text_2">
     <!-- 01 -->
     <defs>
      <path d="M 26.59375 63.796875 
C 26.59375 65.890625 26.5 66 25.09375 66 
C 21.203125 61.359375 15.296875 59.890625 9.703125 59.6875 
C 9.40625 59.6875 8.90625 59.6875 8.796875 59.5 
C 8.703125 59.296875 8.703125 59.09375 8.703125 57 
C 11.796875 57 17 57.59375 21 59.984375 
L 21 7.296875 
C 21 3.796875 20.796875 2.59375 12.203125 2.59375 
L 9.203125 2.59375 
L 9.203125 0 
C 14 0.09375 19 0.1875 23.796875 0.1875 
C 28.59375 0.1875 33.59375 0.09375 38.40625 0 
L 38.40625 2.59375 
L 35.40625 2.59375 
C 26.796875 2.59375 26.59375 3.6875 26.59375 7.296875 
z
" id="CMR17-49"/>
     </defs>
     <g transform="translate(62.887353 256.576088)rotate(-45)scale(0.22 -0.22)">
      <use transform="scale(0.996264)" xlink:href="#CMR17-48"/>
      <use transform="translate(45.690477 0)scale(0.996264)" xlink:href="#CMR17-49"/>
     </g>
    </g>
   </g>
   <g id="xtick_3">
    <g id="line2d_4">
     <path d="M 134.657625 228.095506 
L 131.977203 229.956397 
" style="fill:none;stroke:#000000;stroke-linecap:square;stroke-width:0.8;"/>
    </g>
    <g id="text_3">
     <!-- 10 -->
     <g transform="translate(109.137966 267.784434)rotate(-45)scale(0.22 -0.22)">
      <use transform="scale(0.996264)" xlink:href="#CMR17-49"/>
      <use transform="translate(45.690477 0)scale(0.996264)" xlink:href="#CMR17-48"/>
     </g>
    </g>
   </g>
   <g id="xtick_4">
    <g id="line2d_5">
     <path d="M 181.962926 239.365727 
L 179.342936 241.270032 
" style="fill:none;stroke:#000000;stroke-linecap:square;stroke-width:0.8;"/>
    </g>
    <g id="text_4">
     <!-- 11 -->
     <g transform="translate(156.462941 279.25314)rotate(-45)scale(0.22 -0.22)">
      <use transform="scale(0.996264)" xlink:href="#CMR17-49"/>
      <use transform="translate(45.690477 0)scale(0.996264)" xlink:href="#CMR17-49"/>
     </g>
    </g>
   </g>
  </g>
  <g id="axis3d_2">
   <g id="line2d_6">
    <path d="M 305.111665 171.581202 
L 205.419617 245.80086 
" style="fill:none;stroke:#000000;stroke-linecap:square;stroke-width:0.8;"/>
   </g>
   <g id="Line3DCollection_2">
    <path d="M 27.455231 56.547028 
L 34.471044 192.413474 
L 218.858418 235.795817 
" style="fill:none;stroke:#b0b0b0;stroke-width:0.8;"/>
    <path d="M 57.232024 40.730342 
L 62.623407 174.842005 
L 244.674037 216.576366 
" style="fill:none;stroke:#b0b0b0;stroke-width:0.8;"/>
    <path d="M 85.85589 25.526062 
L 89.739382 157.917404 
L 269.496985 198.095948 
" style="fill:none;stroke:#b0b0b0;stroke-width:0.8;"/>
    <path d="M 113.392516 10.899296 
L 115.875164 141.604597 
L 293.383438 180.312741 
" style="fill:none;stroke:#b0b0b0;stroke-width:0.8;"/>
   </g>
   <g id="xtick_5">
    <g id="line2d_7">
     <path d="M 217.315598 235.432825 
L 221.947489 236.522608 
" style="fill:none;stroke:#000000;stroke-linecap:square;stroke-width:0.8;"/>
    </g>
    <g id="text_5">
     <!-- 00 -->
     <g transform="translate(233.243972 248.955025)rotate(-337.5)scale(0.22 -0.22)">
      <use transform="scale(0.996264)" xlink:href="#CMR17-48"/>
      <use transform="translate(45.690477 0)scale(0.996264)" xlink:href="#CMR17-48"/>
     </g>
    </g>
   </g>
   <g id="xtick_6">
    <g id="line2d_8">
     <path d="M 243.15208 216.227463 
L 247.72127 217.274932 
" style="fill:none;stroke:#000000;stroke-linecap:square;stroke-width:0.8;"/>
    </g>
    <g id="text_6">
     <!-- 01 -->
     <g transform="translate(258.797524 229.510599)rotate(-337.5)scale(0.22 -0.22)">
      <use transform="scale(0.996264)" xlink:href="#CMR17-48"/>
      <use transform="translate(45.690477 0)scale(0.996264)" xlink:href="#CMR17-49"/>
     </g>
    </g>
   </g>
   <g id="xtick_7">
    <g id="line2d_9">
     <path d="M 267.995442 197.76033 
L 272.503283 198.767901 
" style="fill:none;stroke:#000000;stroke-linecap:square;stroke-width:0.8;"/>
    </g>
    <g id="text_7">
     <!-- 10 -->
     <g transform="translate(283.368935 210.813511)rotate(-337.5)scale(0.22 -0.22)">
      <use transform="scale(0.996264)" xlink:href="#CMR17-49"/>
      <use transform="translate(45.690477 0)scale(0.996264)" xlink:href="#CMR17-48"/>
     </g>
    </g>
   </g>
   <g id="xtick_8">
    <g id="line2d_10">
     <path d="M 291.901865 179.989663 
L 296.349691 180.959573 
" style="fill:none;stroke:#000000;stroke-linecap:square;stroke-width:0.8;"/>
    </g>
    <g id="text_8">
     <!-- 11 -->
     <g transform="translate(307.013762 192.821489)rotate(-337.5)scale(0.22 -0.22)">
      <use transform="scale(0.996264)" xlink:href="#CMR17-49"/>
      <use transform="translate(45.690477 0)scale(0.996264)" xlink:href="#CMR17-49"/>
     </g>
    </g>
   </g>
  </g>
  <g id="axis3d_3">
   <g id="line2d_11">
    <path d="M 305.111665 171.581202 
L 312.491547 37.79869 
" style="fill:none;stroke:#000000;stroke-linecap:square;stroke-width:0.8;"/>
   </g>
   <g id="Line3DCollection_3">
    <path d="M 305.715952 160.626685 
L 128.57447 122.930266 
L 19.190575 190.367433 
" style="fill:none;stroke:#b0b0b0;stroke-width:0.8;"/>
    <path d="M 307.203327 133.663559 
L 128.208591 96.720208 
L 17.603315 162.833093 
" style="fill:none;stroke:#b0b0b0;stroke-width:0.8;"/>
    <path d="M 308.722427 106.125297 
L 127.835238 69.974833 
L 15.981061 134.691711 
" style="fill:none;stroke:#b0b0b0;stroke-width:0.8;"/>
    <path d="M 310.27428 77.993299 
L 127.454182 42.677572 
L 14.322643 105.922989 
" style="fill:none;stroke:#b0b0b0;stroke-width:0.8;"/>
    <path d="M 311.859957 49.248153 
L 127.065181 14.811165 
L 12.626839 76.505713 
" style="fill:none;stroke:#b0b0b0;stroke-width:0.8;"/>
   </g>
   <g id="xtick_9">
    <g id="line2d_12">
     <path d="M 304.237759 160.312119 
L 308.675424 161.256472 
" style="fill:none;stroke:#000000;stroke-linecap:square;stroke-width:0.8;"/>
    </g>
    <g id="text_9">
     <!-- $0.0$ -->
     <defs>
      <path d="M 18.40625 4.796875 
C 18.40625 7.6875 16 9.6875 13.59375 9.6875 
C 10.703125 9.6875 8.703125 7.296875 8.703125 4.890625 
C 8.703125 2 11.09375 0 13.5 0 
C 16.40625 0 18.40625 2.390625 18.40625 4.796875 
z
" id="CMMI12-58"/>
     </defs>
     <g transform="translate(311.271207 173.917997)scale(0.22 -0.22)">
      <use transform="scale(0.996264)" xlink:href="#CMR17-48"/>
      <use transform="translate(45.690477 0)scale(0.996264)" xlink:href="#CMMI12-58"/>
      <use transform="translate(72.787654 0)scale(0.996264)" xlink:href="#CMR17-48"/>
     </g>
    </g>
   </g>
   <g id="xtick_10">
    <g id="line2d_13">
     <path d="M 305.709017 133.355143 
L 310.195097 134.281041 
" style="fill:none;stroke:#000000;stroke-linecap:square;stroke-width:0.8;"/>
    </g>
    <g id="text_10">
     <!-- $0.1$ -->
     <g transform="translate(312.951107 146.992627)scale(0.22 -0.22)">
      <use transform="scale(0.996264)" xlink:href="#CMR17-48"/>
      <use transform="translate(45.690477 0)scale(0.996264)" xlink:href="#CMMI12-58"/>
      <use transform="translate(72.787654 0)scale(0.996264)" xlink:href="#CMR17-49"/>
     </g>
    </g>
   </g>
   <g id="xtick_11">
    <g id="line2d_14">
     <path d="M 307.211647 105.823367 
L 311.747208 106.729802 
" style="fill:none;stroke:#000000;stroke-linecap:square;stroke-width:0.8;"/>
    </g>
    <g id="text_11">
     <!-- $0.2$ -->
     <defs>
      <path d="M 41.703125 15.46875 
L 39.90625 15.46875 
C 38.90625 8.390625 38.09375 7.1875 37.703125 6.59375 
C 37.203125 5.796875 30 5.796875 28.59375 5.796875 
L 9.40625 5.796875 
C 13 9.6875 20 16.765625 28.5 24.9375 
C 34.59375 30.71875 41.703125 37.5 41.703125 47.390625 
C 41.703125 59.1875 32.296875 66 21.796875 66 
C 10.796875 66 4.09375 56.296875 4.09375 47.296875 
C 4.09375 43.390625 7 42.890625 8.203125 42.890625 
C 9.203125 42.890625 12.203125 43.484375 12.203125 46.984375 
C 12.203125 50.09375 9.59375 51 8.203125 51 
C 7.59375 51 7 50.890625 6.59375 50.6875 
C 8.5 59.1875 14.296875 63.390625 20.40625 63.390625 
C 29.09375 63.390625 34.796875 56.5 34.796875 47.390625 
C 34.796875 38.703125 29.703125 31.21875 24 24.734375 
L 4.09375 2.296875 
L 4.09375 0 
L 39.296875 0 
z
" id="CMR17-50"/>
     </defs>
     <g transform="translate(314.666762 119.494176)scale(0.22 -0.22)">
      <use transform="scale(0.996264)" xlink:href="#CMR17-48"/>
      <use transform="translate(45.690477 0)scale(0.996264)" xlink:href="#CMMI12-58"/>
      <use transform="translate(72.787654 0)scale(0.996264)" xlink:href="#CMR17-50"/>
     </g>
    </g>
   </g>
   <g id="xtick_12">
    <g id="line2d_15">
     <path d="M 308.746663 77.698206 
L 313.332806 78.584121 
" style="fill:none;stroke:#000000;stroke-linecap:square;stroke-width:0.8;"/>
    </g>
    <g id="text_12">
     <!-- $0.3$ -->
     <defs>
      <path d="M 22.09375 34 
C 31 34 34.90625 26.140625 34.90625 17.09375 
C 34.90625 5.03125 28.5 0.390625 22.703125 0.390625 
C 17.40625 0.390625 8.796875 3.015625 6.09375 10.796875 
C 6.59375 10.59375 7.09375 10.59375 7.59375 10.59375 
C 10 10.59375 11.796875 12.1875 11.796875 14.796875 
C 11.796875 17.6875 9.59375 19 7.59375 19 
C 5.90625 19 3.296875 18.1875 3.296875 14.484375 
C 3.296875 5.234375 12.296875 -2 22.90625 -2 
C 34 -2 42.5 6.75 42.5 16.984375 
C 42.5 26.84375 34.5 34 25 35.09375 
C 32.59375 36.671875 39.90625 43.375 39.90625 52.390625 
C 39.90625 60.25 32 66 23 66 
C 13.90625 66 5.90625 60.34375 5.90625 52.296875 
C 5.90625 48.796875 8.5 48.1875 9.796875 48.1875 
C 11.90625 48.1875 13.703125 49.484375 13.703125 52.09375 
C 13.703125 54.6875 11.90625 56 9.796875 56 
C 9.40625 56 8.90625 56 8.5 55.796875 
C 11.40625 62.484375 19.296875 63.6875 22.796875 63.6875 
C 26.296875 63.6875 32.90625 61.96875 32.90625 52.296875 
C 32.90625 49.484375 32.5 44.546875 29.09375 40.21875 
C 26.09375 36.390625 22.703125 36.1875 19.40625 35.890625 
C 18.90625 35.890625 16.59375 35.6875 16.203125 35.6875 
C 15.5 35.59375 15.09375 35.5 15.09375 34.796875 
C 15.09375 34.09375 15.203125 34 17.203125 34 
z
" id="CMR17-51"/>
     </defs>
     <g transform="translate(316.419327 91.404151)scale(0.22 -0.22)">
      <use transform="scale(0.996264)" xlink:href="#CMR17-48"/>
      <use transform="translate(45.690477 0)scale(0.996264)" xlink:href="#CMMI12-58"/>
      <use transform="translate(72.787654 0)scale(0.996264)" xlink:href="#CMR17-51"/>
     </g>
    </g>
   </g>
   <g id="xtick_13">
    <g id="line2d_16">
     <path d="M 310.315123 48.960269 
L 314.952989 49.824548 
" style="fill:none;stroke:#000000;stroke-linecap:square;stroke-width:0.8;"/>
    </g>
    <g id="text_13">
     <!-- $0.4$ -->
     <defs>
      <path d="M 33.59375 64.796875 
C 33.59375 66.890625 33.5 67 31.703125 67 
L 2 19.59375 
L 2 17 
L 27.796875 17 
L 27.796875 7.1875 
C 27.796875 3.59375 27.59375 2.59375 20.59375 2.59375 
L 18.703125 2.59375 
L 18.703125 0 
C 21.90625 0.1875 27.296875 0.1875 30.703125 0.1875 
C 34.09375 0.1875 39.5 0.1875 42.703125 0 
L 42.703125 2.59375 
L 40.796875 2.59375 
C 33.796875 2.59375 33.59375 3.59375 33.59375 7.1875 
L 33.59375 17 
L 43.796875 17 
L 43.796875 19.59375 
L 33.59375 19.59375 
z
M 28.09375 58.171875 
L 28.09375 19.59375 
L 4 19.59375 
z
" id="CMR17-52"/>
     </defs>
     <g transform="translate(318.210004 62.703255)scale(0.22 -0.22)">
      <use transform="scale(0.996264)" xlink:href="#CMR17-48"/>
      <use transform="translate(45.690477 0)scale(0.996264)" xlink:href="#CMMI12-58"/>
      <use transform="translate(72.787654 0)scale(0.996264)" xlink:href="#CMR17-52"/>
     </g>
    </g>
   </g>
  </g>
  <g id="axes_1">
   <g id="Poly3DCollection_1">
    <path clip-path="url(#p372809e903)" d="M 132.950637 129.256975 
L 133.051747 137.476151 
L 154.438688 142.098609 
L 154.405584 133.851037 
z
" style="fill:#ba0c2f;fill-opacity:0.8;"/>
    <path clip-path="url(#p372809e903)" d="M 120.127984 137.244865 
L 120.271134 145.513314 
L 133.051747 137.476151 
L 132.950637 129.256975 
z
" style="fill:#5d0618;fill-opacity:0.8;"/>
    <path clip-path="url(#p372809e903)" d="M 120.271134 145.513314 
L 141.786381 150.220613 
L 154.438688 142.098609 
L 133.051747 137.476151 
z
" style="fill:#a30a29;fill-opacity:0.8;"/>
    <path clip-path="url(#p372809e903)" d="M 120.127984 137.244865 
L 132.950637 129.256975 
L 154.405584 133.851037 
L 141.712054 141.923522 
z
" style="fill:#74081d;fill-opacity:0.8;"/>
    <path clip-path="url(#p372809e903)" d="M 141.712054 141.923522 
L 154.405584 133.851037 
L 154.438688 142.098609 
L 141.786381 150.220613 
z
" style="fill:#ba0c2f;fill-opacity:0.8;"/>
    <path clip-path="url(#p372809e903)" d="M 120.127984 137.244865 
L 141.712054 141.923522 
L 141.786381 150.220613 
L 120.271134 145.513314 
z
" style="fill:#5d0618;fill-opacity:0.8;"/>
   </g>
   <g id="Poly3DCollection_2">
    <path clip-path="url(#p372809e903)" d="M 176.087301 138.493658 
L 176.082642 139.554421 
L 197.985652 144.250064 
L 197.999402 143.185609 
z
" style="fill:#ba0c2f;fill-opacity:0.8;"/>
    <path clip-path="url(#p372809e903)" d="M 163.526366 146.652086 
L 163.526882 147.719256 
L 176.082642 139.554421 
L 176.087301 138.493658 
z
" style="fill:#5d0618;fill-opacity:0.8;"/>
    <path clip-path="url(#p372809e903)" d="M 163.526882 147.719256 
L 185.565936 152.502256 
L 197.985652 144.250064 
L 176.082642 139.554421 
z
" style="fill:#a30a29;fill-opacity:0.8;"/>
    <path clip-path="url(#p372809e903)" d="M 163.526366 146.652086 
L 176.087301 138.493658 
L 197.999402 143.185609 
L 185.574625 151.431362 
z
" style="fill:#74081d;fill-opacity:0.8;"/>
    <path clip-path="url(#p372809e903)" d="M 185.574625 151.431362 
L 197.999402 143.185609 
L 197.985652 144.250064 
L 185.565936 152.502256 
z
" style="fill:#ba0c2f;fill-opacity:0.8;"/>
    <path clip-path="url(#p372809e903)" d="M 163.526366 146.652086 
L 185.574625 151.431362 
L 185.565936 152.502256 
L 163.526882 147.719256 
z
" style="fill:#5d0618;fill-opacity:0.8;"/>
   </g>
   <g id="Poly3DCollection_3">
    <path clip-path="url(#p372809e903)" d="M 107.068756 145.380131 
L 106.84208 135.282459 
L 128.640947 140.012608 
L 128.783077 150.145739 
z
" style="fill:#5d0618;fill-opacity:0.8;"/>
    <path clip-path="url(#p372809e903)" d="M 93.766343 153.666889 
L 93.484801 143.507685 
L 106.84208 135.282459 
L 107.068756 145.380131 
z
" style="fill:#ba0c2f;fill-opacity:0.8;"/>
    <path clip-path="url(#p372809e903)" d="M 93.766343 153.666889 
L 107.068756 145.380131 
L 128.783077 150.145739 
L 115.61204 158.521895 
z
" style="fill:#74081d;fill-opacity:0.8;"/>
    <path clip-path="url(#p372809e903)" d="M 93.484801 143.507685 
L 115.416064 148.326922 
L 128.640947 140.012608 
L 106.84208 135.282459 
z
" style="fill:#a30a29;fill-opacity:0.8;"/>
    <path clip-path="url(#p372809e903)" d="M 115.61204 158.521895 
L 128.783077 150.145739 
L 128.640947 140.012608 
L 115.416064 148.326922 
z
" style="fill:#5d0618;fill-opacity:0.8;"/>
    <path clip-path="url(#p372809e903)" d="M 93.766343 153.666889 
L 115.61204 158.521895 
L 115.416064 148.326922 
L 93.484801 143.507685 
z
" style="fill:#ba0c2f;fill-opacity:0.8;"/>
   </g>
   <g id="Poly3DCollection_4">
    <path clip-path="url(#p372809e903)" d="M 220.145579 147.927682 
L 220.391313 136.533185 
L 242.876527 141.286111 
L 242.529604 152.720684 
z
" style="fill:#5d0618;fill-opacity:0.8;"/>
    <path clip-path="url(#p372809e903)" d="M 207.860613 156.262169 
L 208.053626 144.798128 
L 220.391313 136.533185 
L 220.145579 147.927682 
z
" style="fill:#ba0c2f;fill-opacity:0.8;"/>
    <path clip-path="url(#p372809e903)" d="M 207.860613 156.262169 
L 220.145579 147.927682 
L 242.529604 152.720684 
L 230.388196 161.145346 
z
" style="fill:#74081d;fill-opacity:0.8;"/>
    <path clip-path="url(#p372809e903)" d="M 208.053626 144.798128 
L 230.683713 149.640877 
L 242.876527 141.286111 
L 220.391313 136.533185 
z
" style="fill:#a30a29;fill-opacity:0.8;"/>
    <path clip-path="url(#p372809e903)" d="M 230.388196 161.145346 
L 242.529604 152.720684 
L 242.876527 141.286111 
L 230.683713 149.640877 
z
" style="fill:#5d0618;fill-opacity:0.8;"/>
    <path clip-path="url(#p372809e903)" d="M 207.860613 156.262169 
L 230.388196 161.145346 
L 230.683713 149.640877 
L 208.053626 144.798128 
z
" style="fill:#ba0c2f;fill-opacity:0.8;"/>
   </g>
   <g id="Poly3DCollection_5">
    <path clip-path="url(#p372809e903)" d="M 150.731189 154.962657 
L 150.701714 149.58554 
L 172.934093 154.435716 
L 172.91689 159.831718 
z
" style="fill:#5d0618;fill-opacity:0.8;"/>
    <path clip-path="url(#p372809e903)" d="M 137.695156 163.429666 
L 137.637771 158.019779 
L 150.701714 149.58554 
L 150.731189 154.962657 
z
" style="fill:#ba0c2f;fill-opacity:0.8;"/>
    <path clip-path="url(#p372809e903)" d="M 137.695156 163.429666 
L 150.731189 154.962657 
L 172.91689 159.831718 
L 160.019584 168.391066 
z
" style="fill:#74081d;fill-opacity:0.8;"/>
    <path clip-path="url(#p372809e903)" d="M 137.637771 158.019779 
L 160.009463 162.962132 
L 172.934093 154.435716 
L 150.701714 149.58554 
z
" style="fill:#a30a29;fill-opacity:0.8;"/>
    <path clip-path="url(#p372809e903)" d="M 160.019584 168.391066 
L 172.91689 159.831718 
L 172.934093 154.435716 
L 160.009463 162.962132 
z
" style="fill:#5d0618;fill-opacity:0.8;"/>
    <path clip-path="url(#p372809e903)" d="M 137.695156 163.429666 
L 160.019584 168.391066 
L 160.009463 162.962132 
L 137.637771 158.019779 
z
" style="fill:#ba0c2f;fill-opacity:0.8;"/>
   </g>
   <g id="Poly3DCollection_6">
    <path clip-path="url(#p372809e903)" d="M 80.21389 162.109409 
L 80.075551 157.931459 
L 102.089141 162.86371 
L 102.192081 167.056354 
z
" style="fill:#5d0618;fill-opacity:0.8;"/>
    <path clip-path="url(#p372809e903)" d="M 66.40428 170.712126 
L 66.241817 166.508681 
L 80.075551 157.931459 
L 80.21389 162.109409 
z
" style="fill:#ba0c2f;fill-opacity:0.8;"/>
    <path clip-path="url(#p372809e903)" d="M 66.40428 170.712126 
L 80.21389 162.109409 
L 102.192081 167.056354 
L 88.516077 175.753645 
z
" style="fill:#74081d;fill-opacity:0.8;"/>
    <path clip-path="url(#p372809e903)" d="M 66.241817 166.508681 
L 88.38944 171.535382 
L 102.089141 162.86371 
L 80.075551 157.931459 
z
" style="fill:#a30a29;fill-opacity:0.8;"/>
    <path clip-path="url(#p372809e903)" d="M 88.516077 175.753645 
L 102.192081 167.056354 
L 102.089141 162.86371 
L 88.38944 171.535382 
z
" style="fill:#5d0618;fill-opacity:0.8;"/>
    <path clip-path="url(#p372809e903)" d="M 66.40428 170.712126 
L 88.516077 175.753645 
L 88.38944 171.535382 
L 66.241817 166.508681 
z
" style="fill:#ba0c2f;fill-opacity:0.8;"/>
   </g>
   <g id="Poly3DCollection_7">
    <path clip-path="url(#p372809e903)" d="M 240.938732 174.760365 
L 241.286943 163.14442 
L 264.571114 168.189578 
L 264.114433 179.8467 
z
" style="fill:#5d0618;fill-opacity:0.8;"/>
    <path clip-path="url(#p372809e903)" d="M 228.480949 183.605979 
L 228.775024 171.918588 
L 241.286943 163.14442 
L 240.938732 174.760365 
z
" style="fill:#ba0c2f;fill-opacity:0.8;"/>
    <path clip-path="url(#p372809e903)" d="M 228.480949 183.605979 
L 240.938732 174.760365 
L 264.114433 179.8467 
L 251.811284 188.790933 
z
" style="fill:#74081d;fill-opacity:0.8;"/>
    <path clip-path="url(#p372809e903)" d="M 228.775024 171.918588 
L 252.215299 177.062022 
L 264.571114 168.189578 
L 241.286943 163.14442 
z
" style="fill:#a30a29;fill-opacity:0.8;"/>
    <path clip-path="url(#p372809e903)" d="M 251.811284 188.790933 
L 264.114433 179.8467 
L 264.571114 168.189578 
L 252.215299 177.062022 
z
" style="fill:#5d0618;fill-opacity:0.8;"/>
    <path clip-path="url(#p372809e903)" d="M 228.480949 183.605979 
L 251.811284 188.790933 
L 252.215299 177.062022 
L 228.775024 171.918588 
z
" style="fill:#ba0c2f;fill-opacity:0.8;"/>
   </g>
   <g id="Poly3DCollection_8">
    <path clip-path="url(#p372809e903)" d="M 253.161326 166.081748 
L 265.155327 157.565441 
L 288.026686 162.462794 
L 276.184037 171.07225 
z
" style="fill:#74081d;fill-opacity:0.8;"/>
    <path clip-path="url(#p372809e903)" d="M 265.155327 157.565441 
L 267.648655 94.02796 
L 291.105108 98.694117 
L 288.026686 162.462794 
z
" style="fill:#5d0618;fill-opacity:0.8;"/>
    <path clip-path="url(#p372809e903)" d="M 253.161326 166.081748 
L 255.378 102.143034 
L 267.648655 94.02796 
L 265.155327 157.565441 
z
" style="fill:#ba0c2f;fill-opacity:0.8;"/>
    <path clip-path="url(#p372809e903)" d="M 276.184037 171.07225 
L 288.026686 162.462794 
L 291.105108 98.694117 
L 278.993761 106.900185 
z
" style="fill:#5d0618;fill-opacity:0.8;"/>
    <path clip-path="url(#p372809e903)" d="M 253.161326 166.081748 
L 276.184037 171.07225 
L 278.993761 106.900185 
L 255.378 102.143034 
z
" style="fill:#ba0c2f;fill-opacity:0.8;"/>
    <path clip-path="url(#p372809e903)" d="M 255.378 102.143034 
L 278.993761 106.900185 
L 291.105108 98.694117 
L 267.648655 94.02796 
z
" style="fill:#a30a29;fill-opacity:0.8;"/>
   </g>
   <g id="Poly3DCollection_9">
    <path clip-path="url(#p372809e903)" d="M 182.589301 173.40698 
L 195.344057 164.753773 
L 218.016654 169.729693 
L 205.40837 178.478309 
z
" style="fill:#74081d;fill-opacity:0.8;"/>
    <path clip-path="url(#p372809e903)" d="M 195.344057 164.753773 
L 195.97402 112.194844 
L 219.11988 116.980311 
L 218.016654 169.729693 
z
" style="fill:#5d0618;fill-opacity:0.8;"/>
    <path clip-path="url(#p372809e903)" d="M 182.589301 173.40698 
L 182.960037 120.517544 
L 195.97402 112.194844 
L 195.344057 164.753773 
z
" style="fill:#ba0c2f;fill-opacity:0.8;"/>
    <path clip-path="url(#p372809e903)" d="M 205.40837 178.478309 
L 218.016654 169.729693 
L 219.11988 116.980311 
L 206.258595 125.396694 
z
" style="fill:#5d0618;fill-opacity:0.8;"/>
    <path clip-path="url(#p372809e903)" d="M 182.589301 173.40698 
L 205.40837 178.478309 
L 206.258595 125.396694 
L 182.960037 120.517544 
z
" style="fill:#ba0c2f;fill-opacity:0.8;"/>
    <path clip-path="url(#p372809e903)" d="M 182.960037 120.517544 
L 206.258595 125.396694 
L 219.11988 116.980311 
L 195.97402 112.194844 
z
" style="fill:#a30a29;fill-opacity:0.8;"/>
   </g>
   <g id="Poly3DCollection_10">
    <path clip-path="url(#p372809e903)" d="M 169.589479 182.226445 
L 169.59991 176.745001 
L 192.616942 181.89512 
L 192.556485 187.395956 
z
" style="fill:#5d0618;fill-opacity:0.8;"/>
    <path clip-path="url(#p372809e903)" d="M 156.337461 191.217009 
L 156.319042 185.70192 
L 169.59991 176.745001 
L 169.589479 182.226445 
z
" style="fill:#ba0c2f;fill-opacity:0.8;"/>
    <path clip-path="url(#p372809e903)" d="M 156.337461 191.217009 
L 169.589479 182.226445 
L 192.556485 187.395956 
L 179.453868 196.48758 
z
" style="fill:#74081d;fill-opacity:0.8;"/>
    <path clip-path="url(#p372809e903)" d="M 156.319042 185.70192 
L 179.486131 190.952941 
L 192.616942 181.89512 
L 169.59991 176.745001 
z
" style="fill:#a30a29;fill-opacity:0.8;"/>
    <path clip-path="url(#p372809e903)" d="M 179.453868 196.48758 
L 192.556485 187.395956 
L 192.616942 181.89512 
L 179.486131 190.952941 
z
" style="fill:#5d0618;fill-opacity:0.8;"/>
    <path clip-path="url(#p372809e903)" d="M 156.337461 191.217009 
L 179.453868 196.48758 
L 179.486131 190.952941 
L 156.319042 185.70192 
z
" style="fill:#ba0c2f;fill-opacity:0.8;"/>
   </g>
   <g id="Poly3DCollection_11">
    <path clip-path="url(#p372809e903)" d="M 110.872796 180.851006 
L 124.411402 172.057572 
L 146.875841 177.113964 
L 133.47853 186.005143 
z
" style="fill:#74081d;fill-opacity:0.8;"/>
    <path clip-path="url(#p372809e903)" d="M 124.411402 172.057572 
L 123.782708 132.431726 
L 146.595543 137.345332 
L 146.875841 177.113964 
z
" style="fill:#5d0618;fill-opacity:0.8;"/>
    <path clip-path="url(#p372809e903)" d="M 110.872796 180.851006 
L 110.025014 140.977389 
L 123.782708 132.431726 
L 124.411402 172.057572 
z
" style="fill:#ba0c2f;fill-opacity:0.8;"/>
    <path clip-path="url(#p372809e903)" d="M 133.47853 186.005143 
L 146.875841 177.113964 
L 146.595543 137.345332 
L 132.983552 145.987485 
z
" style="fill:#5d0618;fill-opacity:0.8;"/>
    <path clip-path="url(#p372809e903)" d="M 110.872796 180.851006 
L 133.47853 186.005143 
L 132.983552 145.987485 
L 110.025014 140.977389 
z
" style="fill:#ba0c2f;fill-opacity:0.8;"/>
    <path clip-path="url(#p372809e903)" d="M 110.025014 140.977389 
L 132.983552 145.987485 
L 146.595543 137.345332 
L 123.782708 132.431726 
z
" style="fill:#a30a29;fill-opacity:0.8;"/>
   </g>
   <g id="Poly3DCollection_12">
    <path clip-path="url(#p372809e903)" d="M 97.071935 189.814777 
L 96.957787 185.555671 
L 119.744023 190.795334 
L 119.82024 195.069521 
z
" style="fill:#5d0618;fill-opacity:0.8;"/>
    <path clip-path="url(#p372809e903)" d="M 83.001124 198.953883 
L 82.8619 194.668612 
L 96.957787 185.555671 
L 97.071935 189.814777 
z
" style="fill:#ba0c2f;fill-opacity:0.8;"/>
    <path clip-path="url(#p372809e903)" d="M 83.001124 198.953883 
L 97.071935 189.814777 
L 119.82024 195.069521 
L 105.893272 204.312209 
z
" style="fill:#74081d;fill-opacity:0.8;"/>
    <path clip-path="url(#p372809e903)" d="M 82.8619 194.668612 
L 105.792455 200.011738 
L 119.744023 190.795334 
L 96.957787 185.555671 
z
" style="fill:#a30a29;fill-opacity:0.8;"/>
    <path clip-path="url(#p372809e903)" d="M 105.893272 204.312209 
L 119.82024 195.069521 
L 119.744023 190.795334 
L 105.792455 200.011738 
z
" style="fill:#5d0618;fill-opacity:0.8;"/>
    <path clip-path="url(#p372809e903)" d="M 83.001124 198.953883 
L 105.893272 204.312209 
L 105.792455 200.011738 
L 82.8619 194.668612 
z
" style="fill:#ba0c2f;fill-opacity:0.8;"/>
   </g>
   <g id="Poly3DCollection_13">
    <path clip-path="url(#p372809e903)" d="M 215.781121 192.623456 
L 215.758838 193.725564 
L 239.235023 199.015925 
L 239.267748 197.909925 
z
" style="fill:#ba0c2f;fill-opacity:0.8;"/>
    <path clip-path="url(#p372809e903)" d="M 202.832126 201.817853 
L 202.815336 202.926713 
L 215.758838 193.725564 
L 215.781121 192.623456 
z
" style="fill:#5d0618;fill-opacity:0.8;"/>
    <path clip-path="url(#p372809e903)" d="M 202.815336 202.926713 
L 226.449334 208.32163 
L 239.235023 199.015925 
L 215.758838 193.725564 
z
" style="fill:#a30a29;fill-opacity:0.8;"/>
    <path clip-path="url(#p372809e903)" d="M 202.832126 201.817853 
L 215.781121 192.623456 
L 239.267748 197.909925 
L 226.476708 207.208849 
z
" style="fill:#74081d;fill-opacity:0.8;"/>
    <path clip-path="url(#p372809e903)" d="M 226.476708 207.208849 
L 239.267748 197.909925 
L 239.235023 199.015925 
L 226.449334 208.32163 
z
" style="fill:#ba0c2f;fill-opacity:0.8;"/>
    <path clip-path="url(#p372809e903)" d="M 202.832126 201.817853 
L 226.476708 207.208849 
L 226.449334 208.32163 
L 202.815336 202.926713 
z
" style="fill:#5d0618;fill-opacity:0.8;"/>
   </g>
   <g id="Poly3DCollection_14">
    <path clip-path="url(#p372809e903)" d="M 142.825835 200.383698 
L 142.734283 189.888872 
L 166.098669 195.226111 
L 166.093111 205.758322 
z
" style="fill:#5d0618;fill-opacity:0.8;"/>
    <path clip-path="url(#p372809e903)" d="M 129.046898 209.731739 
L 128.896375 199.172052 
L 142.734283 189.888872 
L 142.825835 200.383698 
z
" style="fill:#ba0c2f;fill-opacity:0.8;"/>
    <path clip-path="url(#p372809e903)" d="M 129.046898 209.731739 
L 142.825835 200.383698 
L 166.093111 205.758322 
L 152.466508 215.213528 
z
" style="fill:#74081d;fill-opacity:0.8;"/>
    <path clip-path="url(#p372809e903)" d="M 128.896375 199.172052 
L 152.414371 204.616163 
L 166.098669 195.226111 
L 142.734283 189.888872 
z
" style="fill:#a30a29;fill-opacity:0.8;"/>
    <path clip-path="url(#p372809e903)" d="M 152.466508 215.213528 
L 166.093111 205.758322 
L 166.098669 195.226111 
L 152.414371 204.616163 
z
" style="fill:#5d0618;fill-opacity:0.8;"/>
    <path clip-path="url(#p372809e903)" d="M 129.046898 209.731739 
L 152.466508 215.213528 
L 152.414371 204.616163 
L 128.896375 199.172052 
z
" style="fill:#ba0c2f;fill-opacity:0.8;"/>
   </g>
   <g id="Poly3DCollection_15">
    <path clip-path="url(#p372809e903)" d="M 189.626557 211.19443 
L 189.540183 219.896865 
L 213.260712 225.42619 
L 213.430767 216.693083 
z
" style="fill:#ba0c2f;fill-opacity:0.8;"/>
    <path clip-path="url(#p372809e903)" d="M 176.156713 220.758654 
L 176.116748 229.514298 
L 189.540183 219.896865 
L 189.626557 211.19443 
z
" style="fill:#5d0618;fill-opacity:0.8;"/>
    <path clip-path="url(#p372809e903)" d="M 176.116748 229.514298 
L 199.997442 235.154762 
L 213.260712 225.42619 
L 189.540183 219.896865 
z
" style="fill:#a30a29;fill-opacity:0.8;"/>
    <path clip-path="url(#p372809e903)" d="M 176.156713 220.758654 
L 189.626557 211.19443 
L 213.430767 216.693083 
L 200.122228 226.368222 
z
" style="fill:#74081d;fill-opacity:0.8;"/>
    <path clip-path="url(#p372809e903)" d="M 200.122228 226.368222 
L 213.430767 216.693083 
L 213.260712 225.42619 
L 199.997442 235.154762 
z
" style="fill:#ba0c2f;fill-opacity:0.8;"/>
    <path clip-path="url(#p372809e903)" d="M 176.156713 220.758654 
L 200.122228 226.368222 
L 199.997442 235.154762 
L 176.116748 229.514298 
z
" style="fill:#5d0618;fill-opacity:0.8;"/>
   </g>
   <g id="Poly3DCollection_16">
    <path clip-path="url(#p372809e903)" d="M 25.105462 189.75348 
L 203.874881 231.793503 
L 300.16419 161.202946 
L 129.942994 124.908767 
z
" style="fill-opacity:0.15;"/>
   </g>
   <g id="Poly3DCollection_17">
    <path clip-path="url(#p372809e903)" d="M 37.983745 188.416741 
L 52.330123 179.479643 
L 74.576629 184.618474 
L 60.36605 193.655729 
z
" style="fill:#74081d;fill-opacity:0.8;"/>
    <path clip-path="url(#p372809e903)" d="M 52.330123 179.479643 
L 46.933544 57.750519 
L 70.222556 62.427839 
L 74.576629 184.618474 
z
" style="fill:#5d0618;fill-opacity:0.8;"/>
    <path clip-path="url(#p372809e903)" d="M 37.983745 188.416741 
L 31.836896 65.886594 
L 46.933544 57.750519 
L 52.330123 179.479643 
z
" style="fill:#ba0c2f;fill-opacity:0.8;"/>
    <path clip-path="url(#p372809e903)" d="M 60.36605 193.655729 
L 74.576629 184.618474 
L 70.222556 62.427839 
L 55.274545 70.659531 
z
" style="fill:#5d0618;fill-opacity:0.8;"/>
    <path clip-path="url(#p372809e903)" d="M 37.983745 188.416741 
L 60.36605 193.655729 
L 55.274545 70.659531 
L 31.836896 65.886594 
z
" style="fill:#ba0c2f;fill-opacity:0.8;"/>
    <path clip-path="url(#p372809e903)" d="M 31.836896 65.886594 
L 55.274545 70.659531 
L 70.222556 62.427839 
L 46.933544 57.750519 
z
" style="fill:#a30a29;fill-opacity:0.8;"/>
   </g>
  </g>
  <g id="patch_6">
   <path d="M 425.945455 262.8 
L 806.4 262.8 
L 806.4 -14.4 
L 425.945455 -14.4 
z
" style="fill:#ffffff;"/>
  </g>
  <g id="pane3d_4">
   <g id="patch_7">
    <path d="M 476.380584 201.548569 
L 585.268665 133.58541 
L 583.455794 3.718968 
L 468.496488 64.782468 
" style="fill:#f2f2f2;opacity:0.5;stroke:#f2f2f2;stroke-linejoin:miter;"/>
   </g>
  </g>
  <g id="pane3d_5">
   <g id="patch_8">
    <path d="M 585.268665 133.58541 
L 761.65712 171.581202 
L 769.037001 37.79869 
L 583.455794 3.718968 
" style="fill:#e6e6e6;opacity:0.5;stroke:#e6e6e6;stroke-linejoin:miter;"/>
   </g>
  </g>
  <g id="pane3d_6">
   <g id="patch_9">
    <path d="M 476.380584 201.548569 
L 661.965072 245.80086 
L 761.65712 171.581202 
L 585.268665 133.58541 
" style="fill:#ececec;opacity:0.5;stroke:#ececec;stroke-linejoin:miter;"/>
   </g>
  </g>
  <g id="axis3d_4">
   <g id="line2d_17">
    <path d="M 476.380584 201.548569 
L 661.965072 245.80086 
" style="fill:none;stroke:#000000;stroke-linecap:square;stroke-width:0.8;"/>
   </g>
   <g id="Line3DCollection_4">
    <path d="M 498.841271 206.90428 
L 606.679397 138.19749 
L 605.9393 7.847789 
" style="fill:none;stroke:#b0b0b0;stroke-width:0.8;"/>
    <path d="M 544.057792 217.686079 
L 649.729469 147.470895 
L 651.182353 16.156123 
" style="fill:none;stroke:#b0b0b0;stroke-width:0.8;"/>
    <path d="M 590.310744 228.715013 
L 693.693551 156.941187 
L 697.435637 24.649974 
" style="fill:none;stroke:#b0b0b0;stroke-width:0.8;"/>
    <path d="M 637.636176 239.999678 
L 738.601063 166.614702 
L 744.733372 33.335625 
" style="fill:none;stroke:#b0b0b0;stroke-width:0.8;"/>
   </g>
   <g id="xtick_14">
    <g id="line2d_18">
     <path d="M 499.770538 206.312217 
L 496.979262 208.09062 
" style="fill:none;stroke:#000000;stroke-linecap:square;stroke-width:0.8;"/>
    </g>
    <g id="text_14">
     <!-- 00 -->
     <g transform="translate(474.220382 245.619336)rotate(-45)scale(0.22 -0.22)">
      <use transform="scale(0.996264)" xlink:href="#CMR17-48"/>
      <use transform="translate(45.690477 0)scale(0.996264)" xlink:href="#CMR17-48"/>
     </g>
    </g>
   </g>
   <g id="xtick_15">
    <g id="line2d_19">
     <path d="M 544.969128 217.080527 
L 542.231671 218.899473 
" style="fill:none;stroke:#000000;stroke-linecap:square;stroke-width:0.8;"/>
    </g>
    <g id="text_15">
     <!-- 01 -->
     <g transform="translate(519.432807 256.576088)rotate(-45)scale(0.22 -0.22)">
      <use transform="scale(0.996264)" xlink:href="#CMR17-48"/>
      <use transform="translate(45.690477 0)scale(0.996264)" xlink:href="#CMR17-49"/>
     </g>
    </g>
   </g>
   <g id="xtick_16">
    <g id="line2d_20">
     <path d="M 591.20308 228.095506 
L 588.522658 229.956397 
" style="fill:none;stroke:#000000;stroke-linecap:square;stroke-width:0.8;"/>
    </g>
    <g id="text_16">
     <!-- 10 -->
     <g transform="translate(565.68342 267.784434)rotate(-45)scale(0.22 -0.22)">
      <use transform="scale(0.996264)" xlink:href="#CMR17-49"/>
      <use transform="translate(45.690477 0)scale(0.996264)" xlink:href="#CMR17-48"/>
     </g>
    </g>
   </g>
   <g id="xtick_17">
    <g id="line2d_21">
     <path d="M 638.50838 239.365727 
L 635.888391 241.270032 
" style="fill:none;stroke:#000000;stroke-linecap:square;stroke-width:0.8;"/>
    </g>
    <g id="text_17">
     <!-- 11 -->
     <g transform="translate(613.008395 279.25314)rotate(-45)scale(0.22 -0.22)">
      <use transform="scale(0.996264)" xlink:href="#CMR17-49"/>
      <use transform="translate(45.690477 0)scale(0.996264)" xlink:href="#CMR17-49"/>
     </g>
    </g>
   </g>
  </g>
  <g id="axis3d_5">
   <g id="line2d_22">
    <path d="M 761.65712 171.581202 
L 661.965072 245.80086 
" style="fill:none;stroke:#000000;stroke-linecap:square;stroke-width:0.8;"/>
   </g>
   <g id="Line3DCollection_5">
    <path d="M 484.000685 56.547028 
L 491.016499 192.413474 
L 675.403872 235.795817 
" style="fill:none;stroke:#b0b0b0;stroke-width:0.8;"/>
    <path d="M 513.777478 40.730342 
L 519.168861 174.842005 
L 701.219492 216.576366 
" style="fill:none;stroke:#b0b0b0;stroke-width:0.8;"/>
    <path d="M 542.401344 25.526062 
L 546.284836 157.917404 
L 726.04244 198.095948 
" style="fill:none;stroke:#b0b0b0;stroke-width:0.8;"/>
    <path d="M 569.937971 10.899296 
L 572.420618 141.604597 
L 749.928893 180.312741 
" style="fill:none;stroke:#b0b0b0;stroke-width:0.8;"/>
   </g>
   <g id="xtick_18">
    <g id="line2d_23">
     <path d="M 673.861052 235.432825 
L 678.492943 236.522608 
" style="fill:none;stroke:#000000;stroke-linecap:square;stroke-width:0.8;"/>
    </g>
    <g id="text_18">
     <!-- 00 -->
     <g transform="translate(689.789427 248.955025)rotate(-337.5)scale(0.22 -0.22)">
      <use transform="scale(0.996264)" xlink:href="#CMR17-48"/>
      <use transform="translate(45.690477 0)scale(0.996264)" xlink:href="#CMR17-48"/>
     </g>
    </g>
   </g>
   <g id="xtick_19">
    <g id="line2d_24">
     <path d="M 699.697534 216.227463 
L 704.266725 217.274932 
" style="fill:none;stroke:#000000;stroke-linecap:square;stroke-width:0.8;"/>
    </g>
    <g id="text_19">
     <!-- 01 -->
     <g transform="translate(715.342978 229.510599)rotate(-337.5)scale(0.22 -0.22)">
      <use transform="scale(0.996264)" xlink:href="#CMR17-48"/>
      <use transform="translate(45.690477 0)scale(0.996264)" xlink:href="#CMR17-49"/>
     </g>
    </g>
   </g>
   <g id="xtick_20">
    <g id="line2d_25">
     <path d="M 724.540896 197.76033 
L 729.048738 198.767901 
" style="fill:none;stroke:#000000;stroke-linecap:square;stroke-width:0.8;"/>
    </g>
    <g id="text_20">
     <!-- 10 -->
     <g transform="translate(739.91439 210.813511)rotate(-337.5)scale(0.22 -0.22)">
      <use transform="scale(0.996264)" xlink:href="#CMR17-49"/>
      <use transform="translate(45.690477 0)scale(0.996264)" xlink:href="#CMR17-48"/>
     </g>
    </g>
   </g>
   <g id="xtick_21">
    <g id="line2d_26">
     <path d="M 748.44732 179.989663 
L 752.895146 180.959573 
" style="fill:none;stroke:#000000;stroke-linecap:square;stroke-width:0.8;"/>
    </g>
    <g id="text_21">
     <!-- 11 -->
     <g transform="translate(763.559216 192.821489)rotate(-337.5)scale(0.22 -0.22)">
      <use transform="scale(0.996264)" xlink:href="#CMR17-49"/>
      <use transform="translate(45.690477 0)scale(0.996264)" xlink:href="#CMR17-49"/>
     </g>
    </g>
   </g>
  </g>
  <g id="axis3d_6">
   <g id="line2d_27">
    <path d="M 761.65712 171.581202 
L 769.037001 37.79869 
" style="fill:none;stroke:#000000;stroke-linecap:square;stroke-width:0.8;"/>
   </g>
   <g id="Line3DCollection_6">
    <path d="M 762.126625 163.070012 
L 585.153095 125.306491 
L 475.879809 192.86158 
" style="fill:none;stroke:#b0b0b0;stroke-width:0.8;"/>
    <path d="M 763.643155 135.578358 
L 584.780018 98.580768 
L 474.261526 164.789087 
" style="fill:none;stroke:#b0b0b0;stroke-width:0.8;"/>
    <path d="M 765.192705 107.488095 
L 584.399161 71.297829 
L 472.606824 136.084824 
" style="fill:none;stroke:#b0b0b0;stroke-width:0.8;"/>
    <path d="M 766.776368 78.779458 
L 584.010281 43.440064 
L 470.914459 106.727224 
" style="fill:none;stroke:#b0b0b0;stroke-width:0.8;"/>
    <path d="M 768.395281 49.431798 
L 583.61312 14.989113 
L 469.183131 76.693721 
" style="fill:none;stroke:#b0b0b0;stroke-width:0.8;"/>
   </g>
   <g id="xtick_22">
    <g id="line2d_28">
     <path d="M 760.649891 162.754899 
L 765.083171 163.700895 
" style="fill:none;stroke:#000000;stroke-linecap:square;stroke-width:0.8;"/>
    </g>
    <g id="text_22">
     <!-- $0.0$ -->
     <g transform="translate(767.664429 176.357964)scale(0.22 -0.22)">
      <use transform="scale(0.996264)" xlink:href="#CMR17-48"/>
      <use transform="translate(45.690477 0)scale(0.996264)" xlink:href="#CMMI12-58"/>
      <use transform="translate(72.787654 0)scale(0.996264)" xlink:href="#CMR17-48"/>
     </g>
    </g>
   </g>
   <g id="xtick_23">
    <g id="line2d_29">
     <path d="M 762.14999 135.269499 
L 766.63263 136.196727 
" style="fill:none;stroke:#000000;stroke-linecap:square;stroke-width:0.8;"/>
    </g>
    <g id="text_23">
     <!-- $0.1$ -->
     <g transform="translate(769.377265 148.904705)scale(0.22 -0.22)">
      <use transform="scale(0.996264)" xlink:href="#CMR17-48"/>
      <use transform="translate(45.690477 0)scale(0.996264)" xlink:href="#CMMI12-58"/>
      <use transform="translate(72.787654 0)scale(0.996264)" xlink:href="#CMR17-49"/>
     </g>
    </g>
   </g>
   <g id="xtick_24">
    <g id="line2d_30">
     <path d="M 763.682741 107.185839 
L 768.215852 108.093252 
" style="fill:none;stroke:#000000;stroke-linecap:square;stroke-width:0.8;"/>
    </g>
    <g id="text_24">
     <!-- $0.2$ -->
     <g transform="translate(771.127315 120.854974)scale(0.22 -0.22)">
      <use transform="scale(0.996264)" xlink:href="#CMR17-48"/>
      <use transform="translate(45.690477 0)scale(0.996264)" xlink:href="#CMMI12-58"/>
      <use transform="translate(72.787654 0)scale(0.996264)" xlink:href="#CMR17-50"/>
     </g>
    </g>
   </g>
   <g id="xtick_25">
    <g id="line2d_31">
     <path d="M 765.249221 78.484171 
L 769.833951 79.370667 
" style="fill:none;stroke:#000000;stroke-linecap:square;stroke-width:0.8;"/>
    </g>
    <g id="text_25">
     <!-- $0.3$ -->
     <g transform="translate(772.915806 92.189119)scale(0.22 -0.22)">
      <use transform="scale(0.996264)" xlink:href="#CMR17-48"/>
      <use transform="translate(45.690477 0)scale(0.996264)" xlink:href="#CMMI12-58"/>
      <use transform="translate(72.787654 0)scale(0.996264)" xlink:href="#CMR17-51"/>
     </g>
    </g>
   </g>
   <g id="xtick_26">
    <g id="line2d_32">
     <path d="M 766.850557 49.143868 
L 771.488093 50.008287 
" style="fill:none;stroke:#000000;stroke-linecap:square;stroke-width:0.8;"/>
    </g>
    <g id="text_26">
     <!-- $0.4$ -->
     <g transform="translate(774.744018 62.886613)scale(0.22 -0.22)">
      <use transform="scale(0.996264)" xlink:href="#CMR17-48"/>
      <use transform="translate(45.690477 0)scale(0.996264)" xlink:href="#CMMI12-58"/>
      <use transform="translate(72.787654 0)scale(0.996264)" xlink:href="#CMR17-52"/>
     </g>
    </g>
   </g>
  </g>
  <g id="axes_2">
   <g id="Poly3DCollection_18">
    <path clip-path="url(#pc8a961ef4a)" d="M 589.525465 131.644672 
L 589.484291 128.297685 
L 610.947175 132.888415 
L 610.960656 136.247012 
z
" style="fill:#065d4c;fill-opacity:0.8;"/>
    <path clip-path="url(#pc8a961ef4a)" d="M 576.715025 139.646926 
L 576.656731 136.279793 
L 589.484291 128.297685 
L 589.525465 131.644672 
z
" style="fill:#0cba97;fill-opacity:0.8;"/>
    <path clip-path="url(#pc8a961ef4a)" d="M 576.715025 139.646926 
L 589.525465 131.644672 
L 610.960656 136.247012 
L 598.279102 144.333932 
z
" style="fill:#08745e;fill-opacity:0.8;"/>
    <path clip-path="url(#pc8a961ef4a)" d="M 576.656731 136.279793 
L 598.248833 140.955088 
L 610.947175 132.888415 
L 589.484291 128.297685 
z
" style="fill:#0aa384;fill-opacity:0.8;"/>
    <path clip-path="url(#pc8a961ef4a)" d="M 598.279102 144.333932 
L 610.960656 136.247012 
L 610.947175 132.888415 
L 598.248833 140.955088 
z
" style="fill:#065d4c;fill-opacity:0.8;"/>
    <path clip-path="url(#pc8a961ef4a)" d="M 576.715025 139.646926 
L 598.279102 144.333932 
L 598.248833 140.955088 
L 576.656731 136.279793 
z
" style="fill:#0cba97;fill-opacity:0.8;"/>
   </g>
   <g id="Poly3DCollection_19">
    <path clip-path="url(#pc8a961ef4a)" d="M 632.622196 140.897951 
L 632.640992 136.618343 
L 654.569166 141.303756 
L 654.513691 145.598264 
z
" style="fill:#065d4c;fill-opacity:0.8;"/>
    <path clip-path="url(#pc8a961ef4a)" d="M 620.07299 149.070889 
L 620.070909 144.765426 
L 632.640992 136.618343 
L 632.622196 140.897951 
z
" style="fill:#0cba97;fill-opacity:0.8;"/>
    <path clip-path="url(#pc8a961ef4a)" d="M 620.07299 149.070889 
L 632.622196 140.897951 
L 654.513691 145.598264 
L 642.100385 153.858598 
z
" style="fill:#08745e;fill-opacity:0.8;"/>
    <path clip-path="url(#pc8a961ef4a)" d="M 620.070909 144.765426 
L 642.135441 149.538106 
L 654.569166 141.303756 
L 632.640992 136.618343 
z
" style="fill:#0aa384;fill-opacity:0.8;"/>
    <path clip-path="url(#pc8a961ef4a)" d="M 642.100385 153.858598 
L 654.513691 145.598264 
L 654.569166 141.303756 
L 642.135441 149.538106 
z
" style="fill:#065d4c;fill-opacity:0.8;"/>
    <path clip-path="url(#pc8a961ef4a)" d="M 620.07299 149.070889 
L 642.100385 153.858598 
L 642.135441 149.538106 
L 620.070909 144.765426 
z
" style="fill:#0cba97;fill-opacity:0.8;"/>
   </g>
   <g id="Poly3DCollection_20">
    <path clip-path="url(#pc8a961ef4a)" d="M 563.668458 147.796681 
L 563.710617 149.674738 
L 585.388978 154.455298 
L 585.362545 152.570712 
z
" style="fill:#0cba97;fill-opacity:0.8;"/>
    <path clip-path="url(#pc8a961ef4a)" d="M 550.379172 156.098054 
L 550.431533 157.98744 
L 563.710617 149.674738 
L 563.668458 147.796681 
z
" style="fill:#065d4c;fill-opacity:0.8;"/>
    <path clip-path="url(#pc8a961ef4a)" d="M 550.431533 157.98744 
L 572.240837 162.857527 
L 585.388978 154.455298 
L 563.710617 149.674738 
z
" style="fill:#0aa384;fill-opacity:0.8;"/>
    <path clip-path="url(#pc8a961ef4a)" d="M 550.379172 156.098054 
L 563.668458 147.796681 
L 585.362545 152.570712 
L 572.204391 160.961555 
z
" style="fill:#08745e;fill-opacity:0.8;"/>
    <path clip-path="url(#pc8a961ef4a)" d="M 572.204391 160.961555 
L 585.362545 152.570712 
L 585.388978 154.455298 
L 572.240837 162.857527 
z
" style="fill:#0cba97;fill-opacity:0.8;"/>
    <path clip-path="url(#pc8a961ef4a)" d="M 550.379172 156.098054 
L 572.204391 160.961555 
L 572.240837 162.857527 
L 550.431533 157.98744 
z
" style="fill:#065d4c;fill-opacity:0.8;"/>
   </g>
   <g id="Poly3DCollection_21">
    <path clip-path="url(#pc8a961ef4a)" d="M 676.638821 150.34874 
L 676.638161 150.379344 
L 699.000416 155.180898 
L 699.001347 155.150188 
z
" style="fill:#0cba97;fill-opacity:0.8;"/>
    <path clip-path="url(#pc8a961ef4a)" d="M 664.365059 158.697881 
L 664.36454 158.72867 
L 676.638161 150.379344 
L 676.638821 150.34874 
z
" style="fill:#065d4c;fill-opacity:0.8;"/>
    <path clip-path="url(#pc8a961ef4a)" d="M 664.36454 158.72867 
L 686.870072 163.620471 
L 699.000416 155.180898 
L 676.638161 150.379344 
z
" style="fill:#0aa384;fill-opacity:0.8;"/>
    <path clip-path="url(#pc8a961ef4a)" d="M 664.365059 158.697881 
L 676.638821 150.34874 
L 699.001347 155.150188 
L 686.870866 163.589575 
z
" style="fill:#08745e;fill-opacity:0.8;"/>
    <path clip-path="url(#pc8a961ef4a)" d="M 686.870866 163.589575 
L 699.001347 155.150188 
L 699.000416 155.180898 
L 686.870072 163.620471 
z
" style="fill:#0cba97;fill-opacity:0.8;"/>
    <path clip-path="url(#pc8a961ef4a)" d="M 664.365059 158.697881 
L 686.870866 163.589575 
L 686.870072 163.620471 
L 664.36454 158.72867 
z
" style="fill:#065d4c;fill-opacity:0.8;"/>
   </g>
   <g id="Poly3DCollection_22">
    <path clip-path="url(#pc8a961ef4a)" d="M 607.289983 157.396094 
L 607.279855 155.548507 
L 629.46047 160.419618 
L 629.454559 162.273662 
z
" style="fill:#065d4c;fill-opacity:0.8;"/>
    <path clip-path="url(#pc8a961ef4a)" d="M 594.26658 165.877863 
L 594.246863 164.019073 
L 607.279855 155.548507 
L 607.289983 157.396094 
z
" style="fill:#0cba97;fill-opacity:0.8;"/>
    <path clip-path="url(#pc8a961ef4a)" d="M 594.26658 165.877863 
L 607.289983 157.396094 
L 629.454559 162.273662 
L 616.569619 170.847842 
z
" style="fill:#08745e;fill-opacity:0.8;"/>
    <path clip-path="url(#pc8a961ef4a)" d="M 594.246863 164.019073 
L 616.566141 168.982541 
L 629.46047 160.419618 
L 607.279855 155.548507 
z
" style="fill:#0aa384;fill-opacity:0.8;"/>
    <path clip-path="url(#pc8a961ef4a)" d="M 616.569619 170.847842 
L 629.454559 162.273662 
L 629.46047 160.419618 
L 616.566141 168.982541 
z
" style="fill:#065d4c;fill-opacity:0.8;"/>
    <path clip-path="url(#pc8a961ef4a)" d="M 594.26658 165.877863 
L 616.569619 170.847842 
L 616.566141 168.982541 
L 594.246863 164.019073 
z
" style="fill:#0cba97;fill-opacity:0.8;"/>
   </g>
   <g id="Poly3DCollection_23">
    <path clip-path="url(#pc8a961ef4a)" d="M 721.60511 160.003431 
L 721.60511 160.003431 
L 744.454035 164.909314 
L 744.454035 164.909314 
z
" style="fill:#065d4c;fill-opacity:0.8;"/>
    <path clip-path="url(#pc8a961ef4a)" d="M 709.621745 168.534536 
L 709.621745 168.534536 
L 721.60511 160.003431 
L 721.60511 160.003431 
z
" style="fill:#065d4c;fill-opacity:0.8;"/>
    <path clip-path="url(#pc8a961ef4a)" d="M 709.621745 168.534536 
L 721.60511 160.003431 
L 744.454035 164.909314 
L 732.621722 173.533639 
z
" style="fill:#08745e;fill-opacity:0.8;"/>
    <path clip-path="url(#pc8a961ef4a)" d="M 709.621745 168.534536 
L 732.621722 173.533639 
L 744.454035 164.909314 
L 721.60511 160.003431 
z
" style="fill:#0aa384;fill-opacity:0.8;"/>
    <path clip-path="url(#pc8a961ef4a)" d="M 732.621722 173.533639 
L 744.454035 164.909314 
L 744.454035 164.909314 
L 732.621722 173.533639 
z
" style="fill:#065d4c;fill-opacity:0.8;"/>
    <path clip-path="url(#pc8a961ef4a)" d="M 709.621745 168.534536 
L 732.621722 173.533639 
L 732.621722 173.533639 
L 709.621745 168.534536 
z
" style="fill:#065d4c;fill-opacity:0.8;"/>
   </g>
   <g id="Poly3DCollection_24">
    <path clip-path="url(#pc8a961ef4a)" d="M 536.840333 164.555315 
L 536.641628 158.554286 
L 558.649941 163.488732 
L 558.7978 169.510826 
z
" style="fill:#065d4c;fill-opacity:0.8;"/>
    <path clip-path="url(#pc8a961ef4a)" d="M 523.044843 173.172897 
L 522.811491 167.135317 
L 536.641628 158.554286 
L 536.840333 164.555315 
z
" style="fill:#0cba97;fill-opacity:0.8;"/>
    <path clip-path="url(#pc8a961ef4a)" d="M 523.044843 173.172897 
L 536.840333 164.555315 
L 558.7978 169.510826 
L 545.135666 178.223054 
z
" style="fill:#08745e;fill-opacity:0.8;"/>
    <path clip-path="url(#pc8a961ef4a)" d="M 522.811491 167.135317 
L 544.953774 172.164232 
L 558.649941 163.488732 
L 536.641628 158.554286 
z
" style="fill:#0aa384;fill-opacity:0.8;"/>
    <path clip-path="url(#pc8a961ef4a)" d="M 545.135666 178.223054 
L 558.7978 169.510826 
L 558.649941 163.488732 
L 544.953774 172.164232 
z
" style="fill:#065d4c;fill-opacity:0.8;"/>
    <path clip-path="url(#pc8a961ef4a)" d="M 523.044843 173.172897 
L 545.135666 178.223054 
L 544.953774 172.164232 
L 522.811491 167.135317 
z
" style="fill:#0cba97;fill-opacity:0.8;"/>
   </g>
   <g id="Poly3DCollection_25">
    <path clip-path="url(#pc8a961ef4a)" d="M 651.86014 167.204265 
L 651.86014 167.204265 
L 674.510678 172.188774 
L 674.510678 172.188774 
z
" style="fill:#065d4c;fill-opacity:0.8;"/>
    <path clip-path="url(#pc8a961ef4a)" d="M 639.117474 175.872374 
L 639.117474 175.872374 
L 651.86014 167.204265 
L 651.86014 167.204265 
z
" style="fill:#065d4c;fill-opacity:0.8;"/>
    <path clip-path="url(#pc8a961ef4a)" d="M 639.117474 175.872374 
L 651.86014 167.204265 
L 674.510678 172.188774 
L 661.914197 180.952365 
z
" style="fill:#08745e;fill-opacity:0.8;"/>
    <path clip-path="url(#pc8a961ef4a)" d="M 639.117474 175.872374 
L 661.914197 180.952365 
L 674.510678 172.188774 
L 651.86014 167.204265 
z
" style="fill:#0aa384;fill-opacity:0.8;"/>
    <path clip-path="url(#pc8a961ef4a)" d="M 661.914197 180.952365 
L 674.510678 172.188774 
L 674.510678 172.188774 
L 661.914197 180.952365 
z
" style="fill:#065d4c;fill-opacity:0.8;"/>
    <path clip-path="url(#pc8a961ef4a)" d="M 639.117474 175.872374 
L 661.914197 180.952365 
L 661.914197 180.952365 
L 639.117474 175.872374 
z
" style="fill:#065d4c;fill-opacity:0.8;"/>
   </g>
   <g id="Poly3DCollection_26">
    <path clip-path="url(#pc8a961ef4a)" d="M 580.995935 174.520654 
L 580.995935 174.520654 
L 603.438717 179.585695 
L 603.438717 179.585695 
z
" style="fill:#065d4c;fill-opacity:0.8;"/>
    <path clip-path="url(#pc8a961ef4a)" d="M 567.470939 183.329095 
L 567.470939 183.329095 
L 580.995935 174.520654 
L 580.995935 174.520654 
z
" style="fill:#065d4c;fill-opacity:0.8;"/>
    <path clip-path="url(#pc8a961ef4a)" d="M 567.470939 183.329095 
L 580.995935 174.520654 
L 603.438717 179.585695 
L 590.054743 188.491952 
z
" style="fill:#08745e;fill-opacity:0.8;"/>
    <path clip-path="url(#pc8a961ef4a)" d="M 567.470939 183.329095 
L 590.054743 188.491952 
L 603.438717 179.585695 
L 580.995935 174.520654 
z
" style="fill:#0aa384;fill-opacity:0.8;"/>
    <path clip-path="url(#pc8a961ef4a)" d="M 590.054743 188.491952 
L 603.438717 179.585695 
L 603.438717 179.585695 
L 590.054743 188.491952 
z
" style="fill:#065d4c;fill-opacity:0.8;"/>
    <path clip-path="url(#pc8a961ef4a)" d="M 567.470939 183.329095 
L 590.054743 188.491952 
L 590.054743 188.491952 
L 567.470939 183.329095 
z
" style="fill:#065d4c;fill-opacity:0.8;"/>
   </g>
   <g id="Poly3DCollection_27">
    <path clip-path="url(#pc8a961ef4a)" d="M 697.410213 177.228077 
L 697.411148 177.196884 
L 720.564098 182.291781 
L 720.562872 182.323083 
z
" style="fill:#065d4c;fill-opacity:0.8;"/>
    <path clip-path="url(#pc8a961ef4a)" d="M 684.963933 186.088736 
L 684.964723 186.057353 
L 697.411148 177.196884 
L 697.410213 177.228077 
z
" style="fill:#0cba97;fill-opacity:0.8;"/>
    <path clip-path="url(#pc8a961ef4a)" d="M 684.963933 186.088736 
L 697.410213 177.228077 
L 720.562872 182.323083 
L 708.270917 191.282432 
z
" style="fill:#08745e;fill-opacity:0.8;"/>
    <path clip-path="url(#pc8a961ef4a)" d="M 684.964723 186.057353 
L 708.272001 191.250939 
L 720.564098 182.291781 
L 697.411148 177.196884 
z
" style="fill:#0aa384;fill-opacity:0.8;"/>
    <path clip-path="url(#pc8a961ef4a)" d="M 708.270917 191.282432 
L 720.562872 182.323083 
L 720.564098 182.291781 
L 708.272001 191.250939 
z
" style="fill:#065d4c;fill-opacity:0.8;"/>
    <path clip-path="url(#pc8a961ef4a)" d="M 684.963933 186.088736 
L 708.270917 191.282432 
L 708.272001 191.250939 
L 684.964723 186.057353 
z
" style="fill:#0cba97;fill-opacity:0.8;"/>
   </g>
   <g id="Poly3DCollection_28">
    <path clip-path="url(#pc8a961ef4a)" d="M 508.985335 181.955402 
L 508.985335 181.955402 
L 531.210614 187.102943 
L 531.210614 187.102943 
z
" style="fill:#065d4c;fill-opacity:0.8;"/>
    <path clip-path="url(#pc8a961ef4a)" d="M 494.654156 190.907611 
L 494.654156 190.907611 
L 508.985335 181.955402 
L 508.985335 181.955402 
z
" style="fill:#065d4c;fill-opacity:0.8;"/>
    <path clip-path="url(#pc8a961ef4a)" d="M 494.654156 190.907611 
L 517.01498 196.155379 
L 531.210614 187.102943 
L 508.985335 181.955402 
z
" style="fill:#0aa384;fill-opacity:0.8;"/>
    <path clip-path="url(#pc8a961ef4a)" d="M 494.654156 190.907611 
L 508.985335 181.955402 
L 531.210614 187.102943 
L 517.01498 196.155379 
z
" style="fill:#08745e;fill-opacity:0.8;"/>
    <path clip-path="url(#pc8a961ef4a)" d="M 517.01498 196.155379 
L 531.210614 187.102943 
L 531.210614 187.102943 
L 517.01498 196.155379 
z
" style="fill:#065d4c;fill-opacity:0.8;"/>
    <path clip-path="url(#pc8a961ef4a)" d="M 494.654156 190.907611 
L 517.01498 196.155379 
L 517.01498 196.155379 
L 494.654156 190.907611 
z
" style="fill:#065d4c;fill-opacity:0.8;"/>
   </g>
   <g id="Poly3DCollection_29">
    <path clip-path="url(#pc8a961ef4a)" d="M 626.130214 184.706867 
L 626.126635 186.587316 
L 649.053842 191.772159 
L 649.074582 189.885109 
z
" style="fill:#0cba97;fill-opacity:0.8;"/>
    <path clip-path="url(#pc8a961ef4a)" d="M 612.89125 193.712579 
L 612.897568 195.604481 
L 626.126635 186.587316 
L 626.130214 184.706867 
z
" style="fill:#065d4c;fill-opacity:0.8;"/>
    <path clip-path="url(#pc8a961ef4a)" d="M 612.897568 195.604481 
L 635.973657 200.890507 
L 649.053842 191.772159 
L 626.126635 186.587316 
z
" style="fill:#0aa384;fill-opacity:0.8;"/>
    <path clip-path="url(#pc8a961ef4a)" d="M 612.89125 193.712579 
L 626.130214 184.706867 
L 649.074582 189.885109 
L 635.984724 198.991952 
z
" style="fill:#08745e;fill-opacity:0.8;"/>
    <path clip-path="url(#pc8a961ef4a)" d="M 635.984724 198.991952 
L 649.074582 189.885109 
L 649.053842 191.772159 
L 635.973657 200.890507 
z
" style="fill:#0cba97;fill-opacity:0.8;"/>
    <path clip-path="url(#pc8a961ef4a)" d="M 612.89125 193.712579 
L 635.984724 198.991952 
L 635.973657 200.890507 
L 612.897568 195.604481 
z
" style="fill:#065d4c;fill-opacity:0.8;"/>
   </g>
   <g id="Poly3DCollection_30">
    <path clip-path="url(#pc8a961ef4a)" d="M 553.68421 192.307996 
L 553.84737 198.395852 
L 576.51925 203.680734 
L 576.41031 197.571531 
z
" style="fill:#0cba97;fill-opacity:0.8;"/>
    <path clip-path="url(#pc8a961ef4a)" d="M 539.628076 201.462353 
L 539.827068 207.587244 
L 553.84737 198.395852 
L 553.68421 192.307996 
z
" style="fill:#065d4c;fill-opacity:0.8;"/>
    <path clip-path="url(#pc8a961ef4a)" d="M 539.827068 207.587244 
L 562.641831 212.975942 
L 576.51925 203.680734 
L 553.84737 198.395852 
z
" style="fill:#0aa384;fill-opacity:0.8;"/>
    <path clip-path="url(#pc8a961ef4a)" d="M 539.628076 201.462353 
L 553.68421 192.307996 
L 576.41031 197.571531 
L 562.49774 206.829539 
z
" style="fill:#08745e;fill-opacity:0.8;"/>
    <path clip-path="url(#pc8a961ef4a)" d="M 562.49774 206.829539 
L 576.41031 197.571531 
L 576.51925 203.680734 
L 562.641831 212.975942 
z
" style="fill:#0cba97;fill-opacity:0.8;"/>
    <path clip-path="url(#pc8a961ef4a)" d="M 539.628076 201.462353 
L 562.49774 206.829539 
L 562.641831 212.975942 
L 539.827068 207.587244 
z
" style="fill:#065d4c;fill-opacity:0.8;"/>
   </g>
   <g id="Poly3DCollection_31">
    <path clip-path="url(#pc8a961ef4a)" d="M 672.276072 195.121381 
L 672.186488 199.552217 
L 695.607467 204.86306 
L 695.739031 200.416662 
z
" style="fill:#0cba97;fill-opacity:0.8;"/>
    <path clip-path="url(#pc8a961ef4a)" d="M 659.339527 204.331066 
L 659.27203 208.7889 
L 672.186488 199.552217 
L 672.276072 195.121381 
z
" style="fill:#065d4c;fill-opacity:0.8;"/>
    <path clip-path="url(#pc8a961ef4a)" d="M 659.27203 208.7889 
L 682.850074 214.204458 
L 695.607467 204.86306 
L 672.186488 199.552217 
z
" style="fill:#0aa384;fill-opacity:0.8;"/>
    <path clip-path="url(#pc8a961ef4a)" d="M 659.339527 204.331066 
L 672.276072 195.121381 
L 695.739031 200.416662 
L 682.960121 209.730943 
z
" style="fill:#08745e;fill-opacity:0.8;"/>
    <path clip-path="url(#pc8a961ef4a)" d="M 682.960121 209.730943 
L 695.739031 200.416662 
L 695.607467 204.86306 
L 682.850074 214.204458 
z
" style="fill:#0cba97;fill-opacity:0.8;"/>
    <path clip-path="url(#pc8a961ef4a)" d="M 659.339527 204.331066 
L 682.960121 209.730943 
L 682.850074 214.204458 
L 659.27203 208.7889 
z
" style="fill:#065d4c;fill-opacity:0.8;"/>
   </g>
   <g id="Poly3DCollection_32">
    <path clip-path="url(#pc8a961ef4a)" d="M 599.393193 202.894538 
L 599.376146 200.940368 
L 622.63827 206.316961 
L 622.637235 208.278032 
z
" style="fill:#065d4c;fill-opacity:0.8;"/>
    <path clip-path="url(#pc8a961ef4a)" d="M 585.628362 212.257968 
L 585.600336 210.291826 
L 599.376146 200.940368 
L 599.393193 202.894538 
z
" style="fill:#0cba97;fill-opacity:0.8;"/>
    <path clip-path="url(#pc8a961ef4a)" d="M 585.628362 212.257968 
L 599.393193 202.894538 
L 622.637235 208.278032 
L 609.024435 217.748694 
z
" style="fill:#08745e;fill-opacity:0.8;"/>
    <path clip-path="url(#pc8a961ef4a)" d="M 585.600336 210.291826 
L 609.014728 215.775598 
L 622.63827 206.316961 
L 599.376146 200.940368 
z
" style="fill:#0aa384;fill-opacity:0.8;"/>
    <path clip-path="url(#pc8a961ef4a)" d="M 609.024435 217.748694 
L 622.637235 208.278032 
L 622.63827 206.316961 
L 609.014728 215.775598 
z
" style="fill:#065d4c;fill-opacity:0.8;"/>
    <path clip-path="url(#pc8a961ef4a)" d="M 585.628362 212.257968 
L 609.024435 217.748694 
L 609.014728 215.775598 
L 585.600336 210.291826 
z
" style="fill:#0cba97;fill-opacity:0.8;"/>
   </g>
   <g id="Poly3DCollection_33">
    <path clip-path="url(#pc8a961ef4a)" d="M 646.146914 213.723049 
L 646.111832 217.257684 
L 669.857738 222.777745 
L 669.926809 219.230651 
z
" style="fill:#0cba97;fill-opacity:0.8;"/>
    <path clip-path="url(#pc8a961ef4a)" d="M 632.690555 223.302797 
L 632.674322 226.859045 
L 646.111832 217.257684 
L 646.146914 213.723049 
z
" style="fill:#065d4c;fill-opacity:0.8;"/>
    <path clip-path="url(#pc8a961ef4a)" d="M 632.674322 226.859045 
L 656.580739 232.490178 
L 669.857738 222.777745 
L 646.111832 217.257684 
z
" style="fill:#0aa384;fill-opacity:0.8;"/>
    <path clip-path="url(#pc8a961ef4a)" d="M 632.690555 223.302797 
L 646.146914 213.723049 
L 669.926809 219.230651 
L 656.631423 228.92138 
z
" style="fill:#08745e;fill-opacity:0.8;"/>
    <path clip-path="url(#pc8a961ef4a)" d="M 656.631423 228.92138 
L 669.926809 219.230651 
L 669.857738 222.777745 
L 656.580739 232.490178 
z
" style="fill:#0cba97;fill-opacity:0.8;"/>
    <path clip-path="url(#pc8a961ef4a)" d="M 632.690555 223.302797 
L 656.631423 228.92138 
L 656.580739 232.490178 
L 632.674322 226.859045 
z
" style="fill:#065d4c;fill-opacity:0.8;"/>
   </g>
   <g id="Poly3DCollection_34">
    <path clip-path="url(#pc8a961ef4a)" d="M 481.788763 192.246596 
L 660.380003 234.355316 
L 756.580089 163.647276 
L 586.520437 127.288588 
z
" style="fill-opacity:0.2;"/>
   </g>
  </g>
 </g>
 <defs>
  <clipPath id="p372809e903">
   <rect height="277.2" width="380.454545" x="-30.6" y="-14.4"/>
  </clipPath>
  <clipPath id="pc8a961ef4a">
   <rect height="277.2" width="380.454545" x="425.945455" y="-14.4"/>
  </clipPath>
 </defs>
</svg>
