<?xml version="1.0" encoding="utf-8" standalone="no"?>
<!DOCTYPE svg PUBLIC "-//W3C//DTD SVG 1.1//EN"
  "http://www.w3.org/Graphics/SVG/1.1/DTD/svg11.dtd">
<!-- Created with matplotlib (https://matplotlib.org/) -->
<svg height="302.4pt" version="1.1" viewBox="0 0 820.8 302.4" width="820.8pt" xmlns="http://www.w3.org/2000/svg" xmlns:xlink="http://www.w3.org/1999/xlink">
 <defs>
  <style type="text/css">
*{stroke-linecap:butt;stroke-linejoin:round;}
  </style>
 </defs>
 <g id="figure_1">
  <g id="patch_1">
   <path d="M 0 302.4 
L 820.8 302.4 
L 820.8 0 
L 0 0 
z
" style="fill:#ffffff;"/>
  </g>
  <g id="patch_2">
   <path d="M -30.6 262.8 
L 349.854545 262.8 
L 349.854545 -14.4 
L -30.6 -14.4 
z
" style="fill:#ffffff;"/>
  </g>
  <g id="pane3d_1">
   <g id="patch_3">
    <path d="M 19.835129 201.548569 
L 128.723211 133.58541 
L 126.910339 3.718968 
L 11.951034 64.782468 
" style="fill:#f2f2f2;opacity:0.5;stroke:#f2f2f2;stroke-linejoin:miter;"/>
   </g>
  </g>
  <g id="pane3d_2">
   <g id="patch_4">
    <path d="M 128.723211 133.58541 
L 305.111665 171.581202 
L 312.491547 37.79869 
L 126.910339 3.718968 
" style="fill:#e6e6e6;opacity:0.5;stroke:#e6e6e6;stroke-linejoin:miter;"/>
   </g>
  </g>
  <g id="pane3d_3">
   <g id="patch_5">
    <path d="M 19.835129 201.548569 
L 205.419617 245.80086 
L 305.111665 171.581202 
L 128.723211 133.58541 
" style="fill:#ececec;opacity:0.5;stroke:#ececec;stroke-linejoin:miter;"/>
   </g>
  </g>
  <g id="axis3d_1">
   <g id="line2d_1">
    <path d="M 19.835129 201.548569 
L 205.419617 245.80086 
" style="fill:none;stroke:#000000;stroke-linecap:square;stroke-width:0.8;"/>
   </g>
   <g id="Line3DCollection_1">
    <path d="M 42.295817 206.90428 
L 150.133942 138.19749 
L 149.393845 7.847789 
" style="fill:none;stroke:#b0b0b0;stroke-width:0.8;"/>
    <path d="M 87.512337 217.686079 
L 193.184014 147.470895 
L 194.636898 16.156123 
" style="fill:none;stroke:#b0b0b0;stroke-width:0.8;"/>
    <path d="M 133.765289 228.715013 
L 237.148096 156.941187 
L 240.890183 24.649974 
" style="fill:none;stroke:#b0b0b0;stroke-width:0.8;"/>
    <path d="M 181.090721 239.999678 
L 282.055608 166.614702 
L 288.187917 33.335625 
" style="fill:none;stroke:#b0b0b0;stroke-width:0.8;"/>
   </g>
   <g id="xtick_1">
    <g id="line2d_2">
     <path d="M 43.225084 206.312217 
L 40.433807 208.09062 
" style="fill:none;stroke:#000000;stroke-linecap:square;stroke-width:0.8;"/>
    </g>
    <g id="text_1">
     <!-- 00 -->
     <defs>
      <path d="M 42 31.84375 
C 42 37.96875 41.90625 48.421875 37.703125 56.453125 
C 34 63.484375 28.09375 66 22.90625 66 
C 18.09375 66 12 63.78125 8.203125 56.5625 
C 4.203125 49.015625 3.796875 39.671875 3.796875 31.84375 
C 3.796875 26.109375 3.90625 17.375 7 9.734375 
C 11.296875 -0.609375 19 -2 22.90625 -2 
C 27.5 -2 34.5 -0.109375 38.59375 9.4375 
C 41.59375 16.375 42 24.5 42 31.84375 
z
M 22.90625 -0.40625 
C 16.5 -0.40625 12.703125 5.125 11.296875 12.75 
C 10.203125 18.6875 10.203125 27.328125 10.203125 32.953125 
C 10.203125 40.6875 10.203125 47.109375 11.5 53.234375 
C 13.40625 61.78125 19 64.390625 22.90625 64.390625 
C 27 64.390625 32.296875 61.671875 34.203125 53.4375 
C 35.5 47.71875 35.59375 40.984375 35.59375 32.953125 
C 35.59375 26.421875 35.59375 18.375 34.40625 12.453125 
C 32.296875 1.5 26.40625 -0.40625 22.90625 -0.40625 
z
" id="CMR17-48"/>
     </defs>
     <g transform="translate(17.674928 245.619336)rotate(-45)scale(0.22 -0.22)">
      <use transform="scale(0.996264)" xlink:href="#CMR17-48"/>
      <use transform="translate(45.690477 0)scale(0.996264)" xlink:href="#CMR17-48"/>
     </g>
    </g>
   </g>
   <g id="xtick_2">
    <g id="line2d_3">
     <path d="M 88.423674 217.080527 
L 85.686217 218.899473 
" style="fill:none;stroke:#000000;stroke-linecap:square;stroke-width:0.8;"/>
    </g>
    <g id="text_2">
     <!-- 01 -->
     <defs>
      <path d="M 26.59375 63.796875 
C 26.59375 65.890625 26.5 66 25.09375 66 
C 21.203125 61.359375 15.296875 59.890625 9.703125 59.6875 
C 9.40625 59.6875 8.90625 59.6875 8.796875 59.5 
C 8.703125 59.296875 8.703125 59.09375 8.703125 57 
C 11.796875 57 17 57.59375 21 59.984375 
L 21 7.296875 
C 21 3.796875 20.796875 2.59375 12.203125 2.59375 
L 9.203125 2.59375 
L 9.203125 0 
C 14 0.09375 19 0.1875 23.796875 0.1875 
C 28.59375 0.1875 33.59375 0.09375 38.40625 0 
L 38.40625 2.59375 
L 35.40625 2.59375 
C 26.796875 2.59375 26.59375 3.6875 26.59375 7.296875 
z
" id="CMR17-49"/>
     </defs>
     <g transform="translate(62.887353 256.576088)rotate(-45)scale(0.22 -0.22)">
      <use transform="scale(0.996264)" xlink:href="#CMR17-48"/>
      <use transform="translate(45.690477 0)scale(0.996264)" xlink:href="#CMR17-49"/>
     </g>
    </g>
   </g>
   <g id="xtick_3">
    <g id="line2d_4">
     <path d="M 134.657625 228.095506 
L 131.977203 229.956397 
" style="fill:none;stroke:#000000;stroke-linecap:square;stroke-width:0.8;"/>
    </g>
    <g id="text_3">
     <!-- 10 -->
     <g transform="translate(109.137966 267.784434)rotate(-45)scale(0.22 -0.22)">
      <use transform="scale(0.996264)" xlink:href="#CMR17-49"/>
      <use transform="translate(45.690477 0)scale(0.996264)" xlink:href="#CMR17-48"/>
     </g>
    </g>
   </g>
   <g id="xtick_4">
    <g id="line2d_5">
     <path d="M 181.962926 239.365727 
L 179.342936 241.270032 
" style="fill:none;stroke:#000000;stroke-linecap:square;stroke-width:0.8;"/>
    </g>
    <g id="text_4">
     <!-- 11 -->
     <g transform="translate(156.462941 279.25314)rotate(-45)scale(0.22 -0.22)">
      <use transform="scale(0.996264)" xlink:href="#CMR17-49"/>
      <use transform="translate(45.690477 0)scale(0.996264)" xlink:href="#CMR17-49"/>
     </g>
    </g>
   </g>
  </g>
  <g id="axis3d_2">
   <g id="line2d_6">
    <path d="M 305.111665 171.581202 
L 205.419617 245.80086 
" style="fill:none;stroke:#000000;stroke-linecap:square;stroke-width:0.8;"/>
   </g>
   <g id="Line3DCollection_2">
    <path d="M 27.455231 56.547028 
L 34.471044 192.413474 
L 218.858418 235.795817 
" style="fill:none;stroke:#b0b0b0;stroke-width:0.8;"/>
    <path d="M 57.232024 40.730342 
L 62.623407 174.842005 
L 244.674037 216.576366 
" style="fill:none;stroke:#b0b0b0;stroke-width:0.8;"/>
    <path d="M 85.85589 25.526062 
L 89.739382 157.917404 
L 269.496985 198.095948 
" style="fill:none;stroke:#b0b0b0;stroke-width:0.8;"/>
    <path d="M 113.392516 10.899296 
L 115.875164 141.604597 
L 293.383438 180.312741 
" style="fill:none;stroke:#b0b0b0;stroke-width:0.8;"/>
   </g>
   <g id="xtick_5">
    <g id="line2d_7">
     <path d="M 217.315598 235.432825 
L 221.947489 236.522608 
" style="fill:none;stroke:#000000;stroke-linecap:square;stroke-width:0.8;"/>
    </g>
    <g id="text_5">
     <!-- 00 -->
     <g transform="translate(233.243972 248.955025)rotate(-337.5)scale(0.22 -0.22)">
      <use transform="scale(0.996264)" xlink:href="#CMR17-48"/>
      <use transform="translate(45.690477 0)scale(0.996264)" xlink:href="#CMR17-48"/>
     </g>
    </g>
   </g>
   <g id="xtick_6">
    <g id="line2d_8">
     <path d="M 243.15208 216.227463 
L 247.72127 217.274932 
" style="fill:none;stroke:#000000;stroke-linecap:square;stroke-width:0.8;"/>
    </g>
    <g id="text_6">
     <!-- 01 -->
     <g transform="translate(258.797524 229.510599)rotate(-337.5)scale(0.22 -0.22)">
      <use transform="scale(0.996264)" xlink:href="#CMR17-48"/>
      <use transform="translate(45.690477 0)scale(0.996264)" xlink:href="#CMR17-49"/>
     </g>
    </g>
   </g>
   <g id="xtick_7">
    <g id="line2d_9">
     <path d="M 267.995442 197.76033 
L 272.503283 198.767901 
" style="fill:none;stroke:#000000;stroke-linecap:square;stroke-width:0.8;"/>
    </g>
    <g id="text_7">
     <!-- 10 -->
     <g transform="translate(283.368935 210.813511)rotate(-337.5)scale(0.22 -0.22)">
      <use transform="scale(0.996264)" xlink:href="#CMR17-49"/>
      <use transform="translate(45.690477 0)scale(0.996264)" xlink:href="#CMR17-48"/>
     </g>
    </g>
   </g>
   <g id="xtick_8">
    <g id="line2d_10">
     <path d="M 291.901865 179.989663 
L 296.349691 180.959573 
" style="fill:none;stroke:#000000;stroke-linecap:square;stroke-width:0.8;"/>
    </g>
    <g id="text_8">
     <!-- 11 -->
     <g transform="translate(307.013762 192.821489)rotate(-337.5)scale(0.22 -0.22)">
      <use transform="scale(0.996264)" xlink:href="#CMR17-49"/>
      <use transform="translate(45.690477 0)scale(0.996264)" xlink:href="#CMR17-49"/>
     </g>
    </g>
   </g>
  </g>
  <g id="axis3d_3">
   <g id="line2d_11">
    <path d="M 305.111665 171.581202 
L 312.491547 37.79869 
" style="fill:none;stroke:#000000;stroke-linecap:square;stroke-width:0.8;"/>
   </g>
   <g id="Line3DCollection_3">
    <path d="M 305.429232 165.824344 
L 128.645037 127.985406 
L 19.496423 195.67301 
" style="fill:none;stroke:#b0b0b0;stroke-width:0.8;"/>
    <path d="M 307.142966 134.757767 
L 128.223432 97.783407 
L 17.66775 163.950854 
" style="fill:none;stroke:#b0b0b0;stroke-width:0.8;"/>
    <path d="M 308.898974 102.924857 
L 127.79187 66.868097 
L 15.792452 131.419884 
" style="fill:none;stroke:#b0b0b0;stroke-width:0.8;"/>
    <path d="M 310.698839 70.296904 
L 127.349993 35.213901 
L 13.868722 98.048768 
" style="fill:none;stroke:#b0b0b0;stroke-width:0.8;"/>
   </g>
   <g id="xtick_9">
    <g id="line2d_12">
     <path d="M 303.954144 165.508616 
L 308.382481 166.456458 
" style="fill:none;stroke:#000000;stroke-linecap:square;stroke-width:0.8;"/>
    </g>
    <g id="text_9">
     <!-- $0.0$ -->
     <defs>
      <path d="M 18.40625 4.796875 
C 18.40625 7.6875 16 9.6875 13.59375 9.6875 
C 10.703125 9.6875 8.703125 7.296875 8.703125 4.890625 
C 8.703125 2 11.09375 0 13.5 0 
C 16.40625 0 18.40625 2.390625 18.40625 4.796875 
z
" id="CMMI12-58"/>
     </defs>
     <g transform="translate(310.947365 179.108518)scale(0.22 -0.22)">
      <use transform="scale(0.996264)" xlink:href="#CMR17-48"/>
      <use transform="translate(45.690477 0)scale(0.996264)" xlink:href="#CMMI12-58"/>
      <use transform="translate(72.787654 0)scale(0.996264)" xlink:href="#CMR17-48"/>
     </g>
    </g>
   </g>
   <g id="xtick_10">
    <g id="line2d_13">
     <path d="M 305.649311 134.449098 
L 310.133426 135.375756 
" style="fill:none;stroke:#000000;stroke-linecap:square;stroke-width:0.8;"/>
    </g>
    <g id="text_10">
     <!-- $0.1$ -->
     <g transform="translate(312.882935 148.08528)scale(0.22 -0.22)">
      <use transform="scale(0.996264)" xlink:href="#CMR17-48"/>
      <use transform="translate(45.690477 0)scale(0.996264)" xlink:href="#CMMI12-58"/>
      <use transform="translate(72.787654 0)scale(0.996264)" xlink:href="#CMR17-49"/>
     </g>
    </g>
   </g>
   <g id="xtick_11">
    <g id="line2d_14">
     <path d="M 307.386279 102.623694 
L 311.927592 103.527827 
" style="fill:none;stroke:#000000;stroke-linecap:square;stroke-width:0.8;"/>
    </g>
    <g id="text_11">
     <!-- $0.2$ -->
     <defs>
      <path d="M 41.703125 15.46875 
L 39.90625 15.46875 
C 38.90625 8.390625 38.09375 7.1875 37.703125 6.59375 
C 37.203125 5.796875 30 5.796875 28.59375 5.796875 
L 9.40625 5.796875 
C 13 9.6875 20 16.765625 28.5 24.9375 
C 34.59375 30.71875 41.703125 37.5 41.703125 47.390625 
C 41.703125 59.1875 32.296875 66 21.796875 66 
C 10.796875 66 4.09375 56.296875 4.09375 47.296875 
C 4.09375 43.390625 7 42.890625 8.203125 42.890625 
C 9.203125 42.890625 12.203125 43.484375 12.203125 46.984375 
C 12.203125 50.09375 9.59375 51 8.203125 51 
C 7.59375 51 7 50.890625 6.59375 50.6875 
C 8.5 59.1875 14.296875 63.390625 20.40625 63.390625 
C 29.09375 63.390625 34.796875 56.5 34.796875 47.390625 
C 34.796875 38.703125 29.703125 31.21875 24 24.734375 
L 4.09375 2.296875 
L 4.09375 0 
L 39.296875 0 
z
" id="CMR17-50"/>
     </defs>
     <g transform="translate(314.866147 116.298445)scale(0.22 -0.22)">
      <use transform="scale(0.996264)" xlink:href="#CMR17-48"/>
      <use transform="translate(45.690477 0)scale(0.996264)" xlink:href="#CMMI12-58"/>
      <use transform="translate(72.787654 0)scale(0.996264)" xlink:href="#CMR17-50"/>
     </g>
    </g>
   </g>
   <g id="xtick_12">
    <g id="line2d_15">
     <path d="M 309.166613 70.00372 
L 313.766601 70.883907 
" style="fill:none;stroke:#000000;stroke-linecap:square;stroke-width:0.8;"/>
    </g>
    <g id="text_12">
     <!-- $0.3$ -->
     <defs>
      <path d="M 22.09375 34 
C 31 34 34.90625 26.140625 34.90625 17.09375 
C 34.90625 5.03125 28.5 0.390625 22.703125 0.390625 
C 17.40625 0.390625 8.796875 3.015625 6.09375 10.796875 
C 6.59375 10.59375 7.09375 10.59375 7.59375 10.59375 
C 10 10.59375 11.796875 12.1875 11.796875 14.796875 
C 11.796875 17.6875 9.59375 19 7.59375 19 
C 5.90625 19 3.296875 18.1875 3.296875 14.484375 
C 3.296875 5.234375 12.296875 -2 22.90625 -2 
C 34 -2 42.5 6.75 42.5 16.984375 
C 42.5 26.84375 34.5 34 25 35.09375 
C 32.59375 36.671875 39.90625 43.375 39.90625 52.390625 
C 39.90625 60.25 32 66 23 66 
C 13.90625 66 5.90625 60.34375 5.90625 52.296875 
C 5.90625 48.796875 8.5 48.1875 9.796875 48.1875 
C 11.90625 48.1875 13.703125 49.484375 13.703125 52.09375 
C 13.703125 54.6875 11.90625 56 9.796875 56 
C 9.40625 56 8.90625 56 8.5 55.796875 
C 11.40625 62.484375 19.296875 63.6875 22.796875 63.6875 
C 26.296875 63.6875 32.90625 61.96875 32.90625 52.296875 
C 32.90625 49.484375 32.5 44.546875 29.09375 40.21875 
C 26.09375 36.390625 22.703125 36.1875 19.40625 35.890625 
C 18.90625 35.890625 16.59375 35.6875 16.203125 35.6875 
C 15.5 35.59375 15.09375 35.5 15.09375 34.796875 
C 15.09375 34.09375 15.203125 34 17.203125 34 
z
" id="CMR17-51"/>
     </defs>
     <g transform="translate(316.898781 83.719469)scale(0.22 -0.22)">
      <use transform="scale(0.996264)" xlink:href="#CMR17-48"/>
      <use transform="translate(45.690477 0)scale(0.996264)" xlink:href="#CMMI12-58"/>
      <use transform="translate(72.787654 0)scale(0.996264)" xlink:href="#CMR17-51"/>
     </g>
    </g>
   </g>
  </g>
  <g id="axes_1">
   <g id="Poly3DCollection_1">
    <path clip-path="url(#p0c7cb875bc)" d="M 133.013124 134.336481 
L 133.051747 137.476151 
L 154.438688 142.098609 
L 154.426043 138.948125 
z
" style="fill:#ba0c2f;fill-opacity:0.8;"/>
    <path clip-path="url(#p0c7cb875bc)" d="M 120.216453 142.354879 
L 120.271134 145.513314 
L 133.051747 137.476151 
L 133.013124 134.336481 
z
" style="fill:#5d0618;fill-opacity:0.8;"/>
    <path clip-path="url(#p0c7cb875bc)" d="M 120.271134 145.513314 
L 141.786381 150.220613 
L 154.438688 142.098609 
L 133.051747 137.476151 
z
" style="fill:#a30a29;fill-opacity:0.8;"/>
    <path clip-path="url(#p0c7cb875bc)" d="M 120.216453 142.354879 
L 133.013124 134.336481 
L 154.426043 138.948125 
L 141.757989 147.051271 
z
" style="fill:#74081d;fill-opacity:0.8;"/>
    <path clip-path="url(#p0c7cb875bc)" d="M 141.757989 147.051271 
L 154.426043 138.948125 
L 154.438688 142.098609 
L 141.786381 150.220613 
z
" style="fill:#ba0c2f;fill-opacity:0.8;"/>
    <path clip-path="url(#p0c7cb875bc)" d="M 120.216453 142.354879 
L 141.757989 147.051271 
L 141.786381 150.220613 
L 120.271134 145.513314 
z
" style="fill:#5d0618;fill-opacity:0.8;"/>
   </g>
   <g id="Poly3DCollection_2">
    <path clip-path="url(#p0c7cb875bc)" d="M 176.064838 143.608415 
L 176.07297 141.756707 
L 197.957105 146.46 
L 197.933103 148.318125 
z
" style="fill:#5d0618;fill-opacity:0.8;"/>
    <path clip-path="url(#p0c7cb875bc)" d="M 163.528854 151.797659 
L 163.527954 149.934817 
L 176.07297 141.756707 
L 176.064838 143.608415 
z
" style="fill:#ba0c2f;fill-opacity:0.8;"/>
    <path clip-path="url(#p0c7cb875bc)" d="M 163.528854 151.797659 
L 176.064838 143.608415 
L 197.933103 148.318125 
L 185.532729 156.594847 
z
" style="fill:#74081d;fill-opacity:0.8;"/>
    <path clip-path="url(#p0c7cb875bc)" d="M 163.527954 149.934817 
L 185.547896 154.725533 
L 197.957105 146.46 
L 176.07297 141.756707 
z
" style="fill:#a30a29;fill-opacity:0.8;"/>
    <path clip-path="url(#p0c7cb875bc)" d="M 185.532729 156.594847 
L 197.933103 148.318125 
L 197.957105 146.46 
L 185.547896 154.725533 
z
" style="fill:#5d0618;fill-opacity:0.8;"/>
    <path clip-path="url(#p0c7cb875bc)" d="M 163.528854 151.797659 
L 185.532729 156.594847 
L 185.547896 154.725533 
L 163.527954 149.934817 
z
" style="fill:#ba0c2f;fill-opacity:0.8;"/>
   </g>
   <g id="Poly3DCollection_3">
    <path clip-path="url(#p0c7cb875bc)" d="M 220.034507 153.078046 
L 220.044268 152.625397 
L 242.386579 157.434764 
L 242.372798 157.888985 
z
" style="fill:#5d0618;fill-opacity:0.8;"/>
    <path clip-path="url(#p0c7cb875bc)" d="M 207.773375 161.443655 
L 207.781042 160.98828 
L 220.044268 152.625397 
L 220.034507 153.078046 
z
" style="fill:#ba0c2f;fill-opacity:0.8;"/>
    <path clip-path="url(#p0c7cb875bc)" d="M 207.773375 161.443655 
L 220.034507 153.078046 
L 242.372798 157.888985 
L 230.254634 166.344921 
z
" style="fill:#74081d;fill-opacity:0.8;"/>
    <path clip-path="url(#p0c7cb875bc)" d="M 207.781042 160.98828 
L 230.266372 165.88796 
L 242.386579 157.434764 
L 220.044268 152.625397 
z
" style="fill:#a30a29;fill-opacity:0.8;"/>
    <path clip-path="url(#p0c7cb875bc)" d="M 230.254634 166.344921 
L 242.372798 157.888985 
L 242.386579 157.434764 
L 230.266372 165.88796 
z
" style="fill:#5d0618;fill-opacity:0.8;"/>
    <path clip-path="url(#p0c7cb875bc)" d="M 207.773375 161.443655 
L 230.254634 166.344921 
L 230.266372 165.88796 
L 207.781042 160.98828 
z
" style="fill:#ba0c2f;fill-opacity:0.8;"/>
   </g>
   <g id="Poly3DCollection_4">
    <path clip-path="url(#p0c7cb875bc)" d="M 107.184158 150.520919 
L 106.954866 140.30673 
L 128.711667 145.054576 
L 128.855434 155.304416 
z
" style="fill:#5d0618;fill-opacity:0.8;"/>
    <path clip-path="url(#p0c7cb875bc)" d="M 93.90967 158.838717 
L 93.62489 148.562666 
L 106.954866 140.30673 
L 107.184158 150.520919 
z
" style="fill:#ba0c2f;fill-opacity:0.8;"/>
    <path clip-path="url(#p0c7cb875bc)" d="M 93.90967 158.838717 
L 107.184158 150.520919 
L 128.855434 155.304416 
L 115.711804 163.711766 
z
" style="fill:#74081d;fill-opacity:0.8;"/>
    <path clip-path="url(#p0c7cb875bc)" d="M 93.62489 148.562666 
L 115.513578 153.399755 
L 128.711667 145.054576 
L 106.954866 140.30673 
z
" style="fill:#a30a29;fill-opacity:0.8;"/>
    <path clip-path="url(#p0c7cb875bc)" d="M 115.711804 163.711766 
L 128.855434 155.304416 
L 128.711667 145.054576 
L 115.513578 153.399755 
z
" style="fill:#5d0618;fill-opacity:0.8;"/>
    <path clip-path="url(#p0c7cb875bc)" d="M 93.90967 158.838717 
L 115.711804 163.711766 
L 115.513578 153.399755 
L 93.62489 148.562666 
z
" style="fill:#ba0c2f;fill-opacity:0.8;"/>
   </g>
   <g id="Poly3DCollection_5">
    <path clip-path="url(#p0c7cb875bc)" d="M 150.759566 160.139311 
L 150.755558 159.408067 
L 172.902668 164.292648 
L 172.900329 165.026438 
z
" style="fill:#5d0618;fill-opacity:0.8;"/>
    <path clip-path="url(#p0c7cb875bc)" d="M 137.7504 168.637667 
L 137.742597 167.902006 
L 150.755558 159.408067 
L 150.759566 160.139311 
z
" style="fill:#ba0c2f;fill-opacity:0.8;"/>
    <path clip-path="url(#p0c7cb875bc)" d="M 137.7504 168.637667 
L 150.759566 160.139311 
L 172.900329 165.026438 
L 160.029327 173.617284 
z
" style="fill:#74081d;fill-opacity:0.8;"/>
    <path clip-path="url(#p0c7cb875bc)" d="M 137.742597 167.902006 
L 160.027951 172.879058 
L 172.902668 164.292648 
L 150.755558 159.408067 
z
" style="fill:#a30a29;fill-opacity:0.8;"/>
    <path clip-path="url(#p0c7cb875bc)" d="M 160.029327 173.617284 
L 172.900329 165.026438 
L 172.902668 164.292648 
L 160.027951 172.879058 
z
" style="fill:#5d0618;fill-opacity:0.8;"/>
    <path clip-path="url(#p0c7cb875bc)" d="M 137.7504 168.637667 
L 160.029327 173.617284 
L 160.027951 172.879058 
L 137.742597 167.902006 
z
" style="fill:#ba0c2f;fill-opacity:0.8;"/>
   </g>
   <g id="Poly3DCollection_6">
    <path clip-path="url(#p0c7cb875bc)" d="M 80.386175 167.312543 
L 80.367776 166.756881 
L 102.306588 171.720081 
L 102.320279 172.277682 
z
" style="fill:#5d0618;fill-opacity:0.8;"/>
    <path clip-path="url(#p0c7cb875bc)" d="M 66.606601 175.946829 
L 66.584994 175.387804 
L 80.367776 166.756881 
L 80.386175 167.312543 
z
" style="fill:#ba0c2f;fill-opacity:0.8;"/>
    <path clip-path="url(#p0c7cb875bc)" d="M 66.606601 175.946829 
L 80.386175 167.312543 
L 102.320279 172.277682 
L 88.673779 181.006693 
z
" style="fill:#74081d;fill-opacity:0.8;"/>
    <path clip-path="url(#p0c7cb875bc)" d="M 66.584994 175.387804 
L 88.656938 180.445715 
L 102.306588 171.720081 
L 80.367776 166.756881 
z
" style="fill:#a30a29;fill-opacity:0.8;"/>
    <path clip-path="url(#p0c7cb875bc)" d="M 88.673779 181.006693 
L 102.320279 172.277682 
L 102.306588 171.720081 
L 88.656938 180.445715 
z
" style="fill:#5d0618;fill-opacity:0.8;"/>
    <path clip-path="url(#p0c7cb875bc)" d="M 66.606601 175.946829 
L 88.673779 181.006693 
L 88.656938 180.445715 
L 66.584994 175.387804 
z
" style="fill:#ba0c2f;fill-opacity:0.8;"/>
   </g>
   <g id="Poly3DCollection_7">
    <path clip-path="url(#p0c7cb875bc)" d="M 252.980433 171.2995 
L 264.951806 162.751766 
L 287.775443 167.667232 
L 275.954782 176.308267 
z
" style="fill:#74081d;fill-opacity:0.8;"/>
    <path clip-path="url(#p0c7cb875bc)" d="M 264.951806 162.751766 
L 266.82248 115.081388 
L 290.084967 119.826058 
L 287.775443 167.667232 
z
" style="fill:#5d0618;fill-opacity:0.8;"/>
    <path clip-path="url(#p0c7cb875bc)" d="M 252.980433 171.2995 
L 254.64338 123.332733 
L 266.82248 115.081388 
L 264.951806 162.751766 
z
" style="fill:#ba0c2f;fill-opacity:0.8;"/>
    <path clip-path="url(#p0c7cb875bc)" d="M 275.954782 176.308267 
L 287.775443 167.667232 
L 290.084967 119.826058 
L 278.062515 128.169173 
z
" style="fill:#5d0618;fill-opacity:0.8;"/>
    <path clip-path="url(#p0c7cb875bc)" d="M 252.980433 171.2995 
L 275.954782 176.308267 
L 278.062515 128.169173 
L 254.64338 123.332733 
z
" style="fill:#ba0c2f;fill-opacity:0.8;"/>
    <path clip-path="url(#p0c7cb875bc)" d="M 254.64338 123.332733 
L 278.062515 128.169173 
L 290.084967 119.826058 
L 266.82248 115.081388 
z
" style="fill:#a30a29;fill-opacity:0.8;"/>
   </g>
   <g id="Poly3DCollection_8">
    <path clip-path="url(#p0c7cb875bc)" d="M 240.78137 180.009808 
L 240.7952 179.548477 
L 263.926194 184.651613 
L 263.908058 185.114557 
z
" style="fill:#5d0618;fill-opacity:0.8;"/>
    <path clip-path="url(#p0c7cb875bc)" d="M 228.34806 188.887372 
L 228.359738 188.423242 
L 240.7952 179.548477 
L 240.78137 180.009808 
z
" style="fill:#ba0c2f;fill-opacity:0.8;"/>
    <path clip-path="url(#p0c7cb875bc)" d="M 228.34806 188.887372 
L 240.78137 180.009808 
L 263.908058 185.114557 
L 251.628722 194.09089 
z
" style="fill:#74081d;fill-opacity:0.8;"/>
    <path clip-path="url(#p0c7cb875bc)" d="M 228.359738 188.423242 
L 251.644765 193.625133 
L 263.926194 184.651613 
L 240.7952 179.548477 
z
" style="fill:#a30a29;fill-opacity:0.8;"/>
    <path clip-path="url(#p0c7cb875bc)" d="M 251.628722 194.09089 
L 263.908058 185.114557 
L 263.926194 184.651613 
L 251.644765 193.625133 
z
" style="fill:#5d0618;fill-opacity:0.8;"/>
    <path clip-path="url(#p0c7cb875bc)" d="M 228.34806 188.887372 
L 251.628722 194.09089 
L 251.644765 193.625133 
L 228.359738 188.423242 
z
" style="fill:#ba0c2f;fill-opacity:0.8;"/>
   </g>
   <g id="Poly3DCollection_9">
    <path clip-path="url(#p0c7cb875bc)" d="M 169.579439 187.502879 
L 169.580857 186.757579 
L 192.506509 191.943019 
L 192.498289 192.69093 
z
" style="fill:#5d0618;fill-opacity:0.8;"/>
    <path clip-path="url(#p0c7cb875bc)" d="M 156.35519 196.52561 
L 156.352686 195.77578 
L 169.580857 186.757579 
L 169.579439 187.502879 
z
" style="fill:#ba0c2f;fill-opacity:0.8;"/>
    <path clip-path="url(#p0c7cb875bc)" d="M 156.35519 196.52561 
L 169.579439 187.502879 
L 192.498289 192.69093 
L 179.422814 201.81487 
z
" style="fill:#74081d;fill-opacity:0.8;"/>
    <path clip-path="url(#p0c7cb875bc)" d="M 156.352686 195.77578 
L 179.4272 201.062407 
L 192.506509 191.943019 
L 169.580857 186.757579 
z
" style="fill:#a30a29;fill-opacity:0.8;"/>
    <path clip-path="url(#p0c7cb875bc)" d="M 179.422814 201.81487 
L 192.498289 192.69093 
L 192.506509 191.943019 
L 179.4272 201.062407 
z
" style="fill:#5d0618;fill-opacity:0.8;"/>
    <path clip-path="url(#p0c7cb875bc)" d="M 156.35519 196.52561 
L 179.422814 201.81487 
L 179.4272 201.062407 
L 156.352686 195.77578 
z
" style="fill:#ba0c2f;fill-opacity:0.8;"/>
   </g>
   <g id="Poly3DCollection_10">
    <path clip-path="url(#p0c7cb875bc)" d="M 110.984877 186.122486 
L 124.494532 177.297182 
L 146.912901 182.371942 
L 133.543962 191.295141 
z
" style="fill:#74081d;fill-opacity:0.8;"/>
    <path clip-path="url(#p0c7cb875bc)" d="M 124.494532 177.297182 
L 123.757757 130.859151 
L 146.584418 135.766949 
L 146.912901 182.371942 
z
" style="fill:#5d0618;fill-opacity:0.8;"/>
    <path clip-path="url(#p0c7cb875bc)" d="M 110.984877 186.122486 
L 109.991364 139.394734 
L 123.757757 130.859151 
L 124.494532 177.297182 
z
" style="fill:#ba0c2f;fill-opacity:0.8;"/>
    <path clip-path="url(#p0c7cb875bc)" d="M 133.543962 191.295141 
L 146.912901 182.371942 
L 146.584418 135.766949 
L 132.963904 144.398969 
z
" style="fill:#5d0618;fill-opacity:0.8;"/>
    <path clip-path="url(#p0c7cb875bc)" d="M 110.984877 186.122486 
L 133.543962 191.295141 
L 132.963904 144.398969 
L 109.991364 139.394734 
z
" style="fill:#ba0c2f;fill-opacity:0.8;"/>
    <path clip-path="url(#p0c7cb875bc)" d="M 109.991364 139.394734 
L 132.963904 144.398969 
L 146.584418 135.766949 
L 123.757757 130.859151 
z
" style="fill:#a30a29;fill-opacity:0.8;"/>
   </g>
   <g id="Poly3DCollection_11">
    <path clip-path="url(#p0c7cb875bc)" d="M 97.214077 195.118385 
L 97.198898 194.552024 
L 119.905012 199.823447 
L 119.915147 200.391795 
z
" style="fill:#5d0618;fill-opacity:0.8;"/>
    <path clip-path="url(#p0c7cb875bc)" d="M 83.174485 204.289875 
L 83.155973 203.720066 
L 97.198898 194.552024 
L 97.214077 195.118385 
z
" style="fill:#ba0c2f;fill-opacity:0.8;"/>
    <path clip-path="url(#p0c7cb875bc)" d="M 83.174485 204.289875 
L 97.214077 195.118385 
L 119.915147 200.391795 
L 106.018805 209.667013 
z
" style="fill:#74081d;fill-opacity:0.8;"/>
    <path clip-path="url(#p0c7cb875bc)" d="M 83.155973 203.720066 
L 106.0054 209.095201 
L 119.905012 199.823447 
L 97.198898 194.552024 
z
" style="fill:#a30a29;fill-opacity:0.8;"/>
    <path clip-path="url(#p0c7cb875bc)" d="M 106.018805 209.667013 
L 119.915147 200.391795 
L 119.905012 199.823447 
L 106.0054 209.095201 
z
" style="fill:#5d0618;fill-opacity:0.8;"/>
    <path clip-path="url(#p0c7cb875bc)" d="M 83.174485 204.289875 
L 106.018805 209.667013 
L 106.0054 209.095201 
L 83.155973 203.720066 
z
" style="fill:#ba0c2f;fill-opacity:0.8;"/>
   </g>
   <g id="Poly3DCollection_12">
    <path clip-path="url(#p0c7cb875bc)" d="M 215.673689 197.937056 
L 215.71258 196.01351 
L 239.167086 201.311932 
L 239.109971 203.242237 
z
" style="fill:#5d0618;fill-opacity:0.8;"/>
    <path clip-path="url(#p0c7cb875bc)" d="M 202.75118 207.163916 
L 202.780482 205.228644 
L 215.71258 196.01351 
L 215.673689 197.937056 
z
" style="fill:#ba0c2f;fill-opacity:0.8;"/>
    <path clip-path="url(#p0c7cb875bc)" d="M 202.75118 207.163916 
L 215.673689 197.937056 
L 239.109971 203.242237 
L 226.344734 212.573768 
z
" style="fill:#74081d;fill-opacity:0.8;"/>
    <path clip-path="url(#p0c7cb875bc)" d="M 202.780482 205.228644 
L 226.392508 210.631685 
L 239.167086 201.311932 
L 215.71258 196.01351 
z
" style="fill:#a30a29;fill-opacity:0.8;"/>
    <path clip-path="url(#p0c7cb875bc)" d="M 226.344734 212.573768 
L 239.109971 203.242237 
L 239.167086 201.311932 
L 226.392508 210.631685 
z
" style="fill:#5d0618;fill-opacity:0.8;"/>
    <path clip-path="url(#p0c7cb875bc)" d="M 202.75118 207.163916 
L 226.344734 212.573768 
L 226.392508 210.631685 
L 202.780482 205.228644 
z
" style="fill:#ba0c2f;fill-opacity:0.8;"/>
   </g>
   <g id="Poly3DCollection_13">
    <path clip-path="url(#p0c7cb875bc)" d="M 182.552538 178.651502 
L 195.281576 169.966647 
L 217.907248 174.960807 
L 205.324073 183.741224 
z
" style="fill:#74081d;fill-opacity:0.8;"/>
    <path clip-path="url(#p0c7cb875bc)" d="M 195.281576 169.966647 
L 196.473619 70.512416 
L 219.994982 75.138386 
L 217.907248 174.960807 
z
" style="fill:#5d0618;fill-opacity:0.8;"/>
    <path clip-path="url(#p0c7cb875bc)" d="M 182.552538 178.651502 
L 183.254158 78.558256 
L 196.473619 70.512416 
L 195.281576 169.966647 
z
" style="fill:#ba0c2f;fill-opacity:0.8;"/>
    <path clip-path="url(#p0c7cb875bc)" d="M 205.324073 183.741224 
L 217.907248 174.960807 
L 219.994982 75.138386 
L 206.933251 83.27626 
z
" style="fill:#5d0618;fill-opacity:0.8;"/>
    <path clip-path="url(#p0c7cb875bc)" d="M 182.552538 178.651502 
L 205.324073 183.741224 
L 206.933251 83.27626 
L 183.254158 78.558256 
z
" style="fill:#ba0c2f;fill-opacity:0.8;"/>
    <path clip-path="url(#p0c7cb875bc)" d="M 183.254158 78.558256 
L 206.933251 83.27626 
L 219.994982 75.138386 
L 196.473619 70.512416 
z
" style="fill:#a30a29;fill-opacity:0.8;"/>
   </g>
   <g id="Poly3DCollection_14">
    <path clip-path="url(#p0c7cb875bc)" d="M 142.872428 205.724723 
L 142.779842 195.111391 
L 166.095903 200.467297 
L 166.090282 211.118181 
z
" style="fill:#5d0618;fill-opacity:0.8;"/>
    <path clip-path="url(#p0c7cb875bc)" d="M 129.123497 215.105438 
L 128.971281 204.426957 
L 142.779842 195.111391 
L 142.872428 205.724723 
z
" style="fill:#ba0c2f;fill-opacity:0.8;"/>
    <path clip-path="url(#p0c7cb875bc)" d="M 129.123497 215.105438 
L 142.872428 205.724723 
L 166.090282 211.118181 
L 152.493039 220.606204 
z
" style="fill:#74081d;fill-opacity:0.8;"/>
    <path clip-path="url(#p0c7cb875bc)" d="M 128.971281 204.426957 
L 152.440317 209.889882 
L 166.095903 200.467297 
L 142.779842 195.111391 
z
" style="fill:#a30a29;fill-opacity:0.8;"/>
    <path clip-path="url(#p0c7cb875bc)" d="M 152.493039 220.606204 
L 166.090282 211.118181 
L 166.095903 200.467297 
L 152.440317 209.889882 
z
" style="fill:#5d0618;fill-opacity:0.8;"/>
    <path clip-path="url(#p0c7cb875bc)" d="M 129.123497 215.105438 
L 152.493039 220.606204 
L 152.440317 209.889882 
L 128.971281 204.426957 
z
" style="fill:#ba0c2f;fill-opacity:0.8;"/>
   </g>
   <g id="Poly3DCollection_15">
    <path clip-path="url(#p0c7cb875bc)" d="M 189.573171 216.573205 
L 189.540183 219.896865 
L 213.260712 225.42619 
L 213.325659 222.090858 
z
" style="fill:#ba0c2f;fill-opacity:0.8;"/>
    <path clip-path="url(#p0c7cb875bc)" d="M 176.132011 226.170389 
L 176.116748 229.514298 
L 189.540183 219.896865 
L 189.573171 216.573205 
z
" style="fill:#5d0618;fill-opacity:0.8;"/>
    <path clip-path="url(#p0c7cb875bc)" d="M 176.116748 229.514298 
L 199.997442 235.154762 
L 213.260712 225.42619 
L 189.540183 219.896865 
z
" style="fill:#a30a29;fill-opacity:0.8;"/>
    <path clip-path="url(#p0c7cb875bc)" d="M 176.132011 226.170389 
L 189.573171 216.573205 
L 213.325659 222.090858 
L 200.045099 231.799096 
z
" style="fill:#74081d;fill-opacity:0.8;"/>
    <path clip-path="url(#p0c7cb875bc)" d="M 200.045099 231.799096 
L 213.325659 222.090858 
L 213.260712 225.42619 
L 199.997442 235.154762 
z
" style="fill:#ba0c2f;fill-opacity:0.8;"/>
    <path clip-path="url(#p0c7cb875bc)" d="M 176.132011 226.170389 
L 200.045099 231.799096 
L 199.997442 235.154762 
L 176.116748 229.514298 
z
" style="fill:#5d0618;fill-opacity:0.8;"/>
   </g>
   <g id="Poly3DCollection_16">
    <path clip-path="url(#p0c7cb875bc)" d="M 25.398691 195.05687 
L 203.789089 237.242752 
L 299.888589 166.402734 
L 130.011047 129.971546 
z
" style="fill-opacity:0.15;"/>
   </g>
   <g id="Poly3DCollection_17">
    <path clip-path="url(#p0c7cb875bc)" d="M 38.249555 193.715362 
L 52.563603 184.746175 
L 74.764953 189.903502 
L 60.586162 198.972994 
z
" style="fill:#74081d;fill-opacity:0.8;"/>
    <path clip-path="url(#p0c7cb875bc)" d="M 52.563603 184.746175 
L 46.933544 57.750519 
L 70.222556 62.427839 
L 74.764953 189.903502 
z
" style="fill:#5d0618;fill-opacity:0.8;"/>
    <path clip-path="url(#p0c7cb875bc)" d="M 38.249555 193.715362 
L 31.836896 65.886594 
L 46.933544 57.750519 
L 52.563603 184.746175 
z
" style="fill:#ba0c2f;fill-opacity:0.8;"/>
    <path clip-path="url(#p0c7cb875bc)" d="M 60.586162 198.972994 
L 74.764953 189.903502 
L 70.222556 62.427839 
L 55.274545 70.659531 
z
" style="fill:#5d0618;fill-opacity:0.8;"/>
    <path clip-path="url(#p0c7cb875bc)" d="M 38.249555 193.715362 
L 60.586162 198.972994 
L 55.274545 70.659531 
L 31.836896 65.886594 
z
" style="fill:#ba0c2f;fill-opacity:0.8;"/>
    <path clip-path="url(#p0c7cb875bc)" d="M 31.836896 65.886594 
L 55.274545 70.659531 
L 70.222556 62.427839 
L 46.933544 57.750519 
z
" style="fill:#a30a29;fill-opacity:0.8;"/>
   </g>
  </g>
  <g id="patch_6">
   <path d="M 425.945455 262.8 
L 806.4 262.8 
L 806.4 -14.4 
L 425.945455 -14.4 
z
" style="fill:#ffffff;"/>
  </g>
  <g id="pane3d_4">
   <g id="patch_7">
    <path d="M 476.380584 201.548569 
L 585.268665 133.58541 
L 583.455794 3.718968 
L 468.496488 64.782468 
" style="fill:#f2f2f2;opacity:0.5;stroke:#f2f2f2;stroke-linejoin:miter;"/>
   </g>
  </g>
  <g id="pane3d_5">
   <g id="patch_8">
    <path d="M 585.268665 133.58541 
L 761.65712 171.581202 
L 769.037001 37.79869 
L 583.455794 3.718968 
" style="fill:#e6e6e6;opacity:0.5;stroke:#e6e6e6;stroke-linejoin:miter;"/>
   </g>
  </g>
  <g id="pane3d_6">
   <g id="patch_9">
    <path d="M 476.380584 201.548569 
L 661.965072 245.80086 
L 761.65712 171.581202 
L 585.268665 133.58541 
" style="fill:#ececec;opacity:0.5;stroke:#ececec;stroke-linejoin:miter;"/>
   </g>
  </g>
  <g id="axis3d_4">
   <g id="line2d_16">
    <path d="M 476.380584 201.548569 
L 661.965072 245.80086 
" style="fill:none;stroke:#000000;stroke-linecap:square;stroke-width:0.8;"/>
   </g>
   <g id="Line3DCollection_4">
    <path d="M 498.841271 206.90428 
L 606.679397 138.19749 
L 605.9393 7.847789 
" style="fill:none;stroke:#b0b0b0;stroke-width:0.8;"/>
    <path d="M 544.057792 217.686079 
L 649.729469 147.470895 
L 651.182353 16.156123 
" style="fill:none;stroke:#b0b0b0;stroke-width:0.8;"/>
    <path d="M 590.310744 228.715013 
L 693.693551 156.941187 
L 697.435637 24.649974 
" style="fill:none;stroke:#b0b0b0;stroke-width:0.8;"/>
    <path d="M 637.636176 239.999678 
L 738.601063 166.614702 
L 744.733372 33.335625 
" style="fill:none;stroke:#b0b0b0;stroke-width:0.8;"/>
   </g>
   <g id="xtick_13">
    <g id="line2d_17">
     <path d="M 499.770538 206.312217 
L 496.979262 208.09062 
" style="fill:none;stroke:#000000;stroke-linecap:square;stroke-width:0.8;"/>
    </g>
    <g id="text_13">
     <!-- 00 -->
     <g transform="translate(474.220382 245.619336)rotate(-45)scale(0.22 -0.22)">
      <use transform="scale(0.996264)" xlink:href="#CMR17-48"/>
      <use transform="translate(45.690477 0)scale(0.996264)" xlink:href="#CMR17-48"/>
     </g>
    </g>
   </g>
   <g id="xtick_14">
    <g id="line2d_18">
     <path d="M 544.969128 217.080527 
L 542.231671 218.899473 
" style="fill:none;stroke:#000000;stroke-linecap:square;stroke-width:0.8;"/>
    </g>
    <g id="text_14">
     <!-- 01 -->
     <g transform="translate(519.432807 256.576088)rotate(-45)scale(0.22 -0.22)">
      <use transform="scale(0.996264)" xlink:href="#CMR17-48"/>
      <use transform="translate(45.690477 0)scale(0.996264)" xlink:href="#CMR17-49"/>
     </g>
    </g>
   </g>
   <g id="xtick_15">
    <g id="line2d_19">
     <path d="M 591.20308 228.095506 
L 588.522658 229.956397 
" style="fill:none;stroke:#000000;stroke-linecap:square;stroke-width:0.8;"/>
    </g>
    <g id="text_15">
     <!-- 10 -->
     <g transform="translate(565.68342 267.784434)rotate(-45)scale(0.22 -0.22)">
      <use transform="scale(0.996264)" xlink:href="#CMR17-49"/>
      <use transform="translate(45.690477 0)scale(0.996264)" xlink:href="#CMR17-48"/>
     </g>
    </g>
   </g>
   <g id="xtick_16">
    <g id="line2d_20">
     <path d="M 638.50838 239.365727 
L 635.888391 241.270032 
" style="fill:none;stroke:#000000;stroke-linecap:square;stroke-width:0.8;"/>
    </g>
    <g id="text_16">
     <!-- 11 -->
     <g transform="translate(613.008395 279.25314)rotate(-45)scale(0.22 -0.22)">
      <use transform="scale(0.996264)" xlink:href="#CMR17-49"/>
      <use transform="translate(45.690477 0)scale(0.996264)" xlink:href="#CMR17-49"/>
     </g>
    </g>
   </g>
  </g>
  <g id="axis3d_5">
   <g id="line2d_21">
    <path d="M 761.65712 171.581202 
L 661.965072 245.80086 
" style="fill:none;stroke:#000000;stroke-linecap:square;stroke-width:0.8;"/>
   </g>
   <g id="Line3DCollection_5">
    <path d="M 484.000685 56.547028 
L 491.016499 192.413474 
L 675.403872 235.795817 
" style="fill:none;stroke:#b0b0b0;stroke-width:0.8;"/>
    <path d="M 513.777478 40.730342 
L 519.168861 174.842005 
L 701.219492 216.576366 
" style="fill:none;stroke:#b0b0b0;stroke-width:0.8;"/>
    <path d="M 542.401344 25.526062 
L 546.284836 157.917404 
L 726.04244 198.095948 
" style="fill:none;stroke:#b0b0b0;stroke-width:0.8;"/>
    <path d="M 569.937971 10.899296 
L 572.420618 141.604597 
L 749.928893 180.312741 
" style="fill:none;stroke:#b0b0b0;stroke-width:0.8;"/>
   </g>
   <g id="xtick_17">
    <g id="line2d_22">
     <path d="M 673.861052 235.432825 
L 678.492943 236.522608 
" style="fill:none;stroke:#000000;stroke-linecap:square;stroke-width:0.8;"/>
    </g>
    <g id="text_17">
     <!-- 00 -->
     <g transform="translate(689.789427 248.955025)rotate(-337.5)scale(0.22 -0.22)">
      <use transform="scale(0.996264)" xlink:href="#CMR17-48"/>
      <use transform="translate(45.690477 0)scale(0.996264)" xlink:href="#CMR17-48"/>
     </g>
    </g>
   </g>
   <g id="xtick_18">
    <g id="line2d_23">
     <path d="M 699.697534 216.227463 
L 704.266725 217.274932 
" style="fill:none;stroke:#000000;stroke-linecap:square;stroke-width:0.8;"/>
    </g>
    <g id="text_18">
     <!-- 01 -->
     <g transform="translate(715.342978 229.510599)rotate(-337.5)scale(0.22 -0.22)">
      <use transform="scale(0.996264)" xlink:href="#CMR17-48"/>
      <use transform="translate(45.690477 0)scale(0.996264)" xlink:href="#CMR17-49"/>
     </g>
    </g>
   </g>
   <g id="xtick_19">
    <g id="line2d_24">
     <path d="M 724.540896 197.76033 
L 729.048738 198.767901 
" style="fill:none;stroke:#000000;stroke-linecap:square;stroke-width:0.8;"/>
    </g>
    <g id="text_19">
     <!-- 10 -->
     <g transform="translate(739.91439 210.813511)rotate(-337.5)scale(0.22 -0.22)">
      <use transform="scale(0.996264)" xlink:href="#CMR17-49"/>
      <use transform="translate(45.690477 0)scale(0.996264)" xlink:href="#CMR17-48"/>
     </g>
    </g>
   </g>
   <g id="xtick_20">
    <g id="line2d_25">
     <path d="M 748.44732 179.989663 
L 752.895146 180.959573 
" style="fill:none;stroke:#000000;stroke-linecap:square;stroke-width:0.8;"/>
    </g>
    <g id="text_20">
     <!-- 11 -->
     <g transform="translate(763.559216 192.821489)rotate(-337.5)scale(0.22 -0.22)">
      <use transform="scale(0.996264)" xlink:href="#CMR17-49"/>
      <use transform="translate(45.690477 0)scale(0.996264)" xlink:href="#CMR17-49"/>
     </g>
    </g>
   </g>
  </g>
  <g id="axis3d_6">
   <g id="line2d_26">
    <path d="M 761.65712 171.581202 
L 769.037001 37.79869 
" style="fill:none;stroke:#000000;stroke-linecap:square;stroke-width:0.8;"/>
   </g>
   <g id="Line3DCollection_6">
    <path d="M 762.202818 161.688775 
L 585.134343 123.963164 
L 475.79853 191.451633 
" style="fill:none;stroke:#b0b0b0;stroke-width:0.8;"/>
    <path d="M 763.86197 131.611661 
L 584.726215 94.726561 
L 474.027934 160.736943 
" style="fill:none;stroke:#b0b0b0;stroke-width:0.8;"/>
    <path d="M 765.560666 100.817711 
L 584.308773 64.82282 
L 472.213718 129.265589 
" style="fill:none;stroke:#b0b0b0;stroke-width:0.8;"/>
    <path d="M 767.300335 69.280987 
L 583.881697 34.228842 
L 470.354252 97.009261 
" style="fill:none;stroke:#b0b0b0;stroke-width:0.8;"/>
   </g>
   <g id="xtick_21">
    <g id="line2d_27">
     <path d="M 760.725259 161.373971 
L 765.161019 162.319039 
" style="fill:none;stroke:#000000;stroke-linecap:square;stroke-width:0.8;"/>
    </g>
    <g id="text_21">
     <!-- $0.0$ -->
     <g transform="translate(767.750488 174.978625)scale(0.22 -0.22)">
      <use transform="scale(0.996264)" xlink:href="#CMR17-48"/>
      <use transform="translate(45.690477 0)scale(0.996264)" xlink:href="#CMMI12-58"/>
      <use transform="translate(72.787654 0)scale(0.996264)" xlink:href="#CMR17-48"/>
     </g>
    </g>
   </g>
   <g id="xtick_22">
    <g id="line2d_28">
     <path d="M 762.366434 131.303722 
L 766.8562 132.22819 
" style="fill:none;stroke:#000000;stroke-linecap:square;stroke-width:0.8;"/>
    </g>
    <g id="text_22">
     <!-- $0.1$ -->
     <g transform="translate(769.624399 144.943652)scale(0.22 -0.22)">
      <use transform="scale(0.996264)" xlink:href="#CMR17-48"/>
      <use transform="translate(45.690477 0)scale(0.996264)" xlink:href="#CMMI12-58"/>
      <use transform="translate(72.787654 0)scale(0.996264)" xlink:href="#CMR17-49"/>
     </g>
    </g>
   </g>
   <g id="xtick_23">
    <g id="line2d_29">
     <path d="M 764.04671 100.517053 
L 768.591811 101.419667 
" style="fill:none;stroke:#000000;stroke-linecap:square;stroke-width:0.8;"/>
    </g>
    <g id="text_23">
     <!-- $0.2$ -->
     <g transform="translate(771.542875 114.194407)scale(0.22 -0.22)">
      <use transform="scale(0.996264)" xlink:href="#CMR17-48"/>
      <use transform="translate(45.690477 0)scale(0.996264)" xlink:href="#CMMI12-58"/>
      <use transform="translate(72.787654 0)scale(0.996264)" xlink:href="#CMR17-50"/>
     </g>
    </g>
   </g>
   <g id="xtick_24">
    <g id="line2d_30">
     <path d="M 765.767501 68.988055 
L 770.369317 69.867483 
" style="fill:none;stroke:#000000;stroke-linecap:square;stroke-width:0.8;"/>
    </g>
    <g id="text_24">
     <!-- $0.3$ -->
     <g transform="translate(773.507523 82.705105)scale(0.22 -0.22)">
      <use transform="scale(0.996264)" xlink:href="#CMR17-48"/>
      <use transform="translate(45.690477 0)scale(0.996264)" xlink:href="#CMMI12-58"/>
      <use transform="translate(72.787654 0)scale(0.996264)" xlink:href="#CMR17-51"/>
     </g>
    </g>
   </g>
  </g>
  <g id="axes_2">
   <g id="Poly3DCollection_18">
    <path clip-path="url(#p6debfa70f4)" d="M 589.50886 130.294863 
L 589.518847 131.106695 
L 610.958489 135.707172 
L 610.955219 134.892527 
z
" style="fill:#0cba97;fill-opacity:0.8;"/>
    <path clip-path="url(#p6debfa70f4)" d="M 576.691516 138.289002 
L 576.705655 139.105716 
L 589.518847 131.106695 
L 589.50886 130.294863 
z
" style="fill:#065d4c;fill-opacity:0.8;"/>
    <path clip-path="url(#p6debfa70f4)" d="M 576.705655 139.105716 
L 598.274236 143.790843 
L 610.958489 135.707172 
L 589.518847 131.106695 
z
" style="fill:#0aa384;fill-opacity:0.8;"/>
    <path clip-path="url(#p6debfa70f4)" d="M 576.691516 138.289002 
L 589.50886 130.294863 
L 610.955219 134.892527 
L 598.266895 142.971291 
z
" style="fill:#08745e;fill-opacity:0.8;"/>
    <path clip-path="url(#p6debfa70f4)" d="M 598.266895 142.971291 
L 610.955219 134.892527 
L 610.958489 135.707172 
L 598.274236 143.790843 
z
" style="fill:#0cba97;fill-opacity:0.8;"/>
    <path clip-path="url(#p6debfa70f4)" d="M 576.691516 138.289002 
L 598.266895 142.971291 
L 598.274236 143.790843 
L 576.705655 139.105716 
z
" style="fill:#065d4c;fill-opacity:0.8;"/>
   </g>
   <g id="Poly3DCollection_19">
    <path clip-path="url(#p6debfa70f4)" d="M 632.628166 139.538766 
L 632.627422 139.708129 
L 654.529114 144.404307 
L 654.531309 144.234355 
z
" style="fill:#0cba97;fill-opacity:0.8;"/>
    <path clip-path="url(#p6debfa70f4)" d="M 620.072329 147.703507 
L 620.072412 147.873892 
L 632.627422 139.708129 
L 632.628166 139.538766 
z
" style="fill:#065d4c;fill-opacity:0.8;"/>
    <path clip-path="url(#p6debfa70f4)" d="M 620.072412 147.873892 
L 642.110131 152.657431 
L 654.529114 144.404307 
L 632.627422 139.708129 
z
" style="fill:#0aa384;fill-opacity:0.8;"/>
    <path clip-path="url(#p6debfa70f4)" d="M 620.072329 147.703507 
L 632.628166 139.538766 
L 654.531309 144.234355 
L 642.111518 152.486451 
z
" style="fill:#08745e;fill-opacity:0.8;"/>
    <path clip-path="url(#p6debfa70f4)" d="M 642.111518 152.486451 
L 654.531309 144.234355 
L 654.529114 144.404307 
L 642.110131 152.657431 
z
" style="fill:#0cba97;fill-opacity:0.8;"/>
    <path clip-path="url(#p6debfa70f4)" d="M 620.072329 147.703507 
L 642.111518 152.486451 
L 642.110131 152.657431 
L 620.072412 147.873892 
z
" style="fill:#065d4c;fill-opacity:0.8;"/>
   </g>
   <g id="Poly3DCollection_20">
    <path clip-path="url(#p6debfa70f4)" d="M 563.637791 146.430571 
L 563.622046 145.729206 
L 585.333445 150.496032 
L 585.343316 151.199844 
z
" style="fill:#065d4c;fill-opacity:0.8;"/>
    <path clip-path="url(#p6debfa70f4)" d="M 550.341085 154.723687 
L 550.32153 154.018077 
L 563.622046 145.729206 
L 563.637791 146.430571 
z
" style="fill:#0cba97;fill-opacity:0.8;"/>
    <path clip-path="url(#p6debfa70f4)" d="M 550.341085 154.723687 
L 563.637791 146.430571 
L 585.343316 151.199844 
L 572.17788 159.58239 
z
" style="fill:#08745e;fill-opacity:0.8;"/>
    <path clip-path="url(#p6debfa70f4)" d="M 550.32153 154.018077 
L 572.164269 158.874312 
L 585.333445 150.496032 
L 563.622046 145.729206 
z
" style="fill:#0aa384;fill-opacity:0.8;"/>
    <path clip-path="url(#p6debfa70f4)" d="M 572.17788 159.58239 
L 585.343316 151.199844 
L 585.333445 150.496032 
L 572.164269 158.874312 
z
" style="fill:#065d4c;fill-opacity:0.8;"/>
    <path clip-path="url(#p6debfa70f4)" d="M 550.341085 154.723687 
L 572.17788 159.58239 
L 572.164269 158.874312 
L 550.32153 154.018077 
z
" style="fill:#0cba97;fill-opacity:0.8;"/>
   </g>
   <g id="Poly3DCollection_21">
    <path clip-path="url(#p6debfa70f4)" d="M 676.668338 148.980084 
L 676.796477 143.038348 
L 699.223919 147.81422 
L 699.043017 153.77676 
z
" style="fill:#065d4c;fill-opacity:0.8;"/>
    <path clip-path="url(#p6debfa70f4)" d="M 664.388241 157.320946 
L 664.488886 151.343111 
L 676.796477 143.038348 
L 676.668338 148.980084 
z
" style="fill:#0cba97;fill-opacity:0.8;"/>
    <path clip-path="url(#p6debfa70f4)" d="M 664.388241 157.320946 
L 676.668338 148.980084 
L 699.043017 153.77676 
L 686.906359 162.207828 
z
" style="fill:#08745e;fill-opacity:0.8;"/>
    <path clip-path="url(#p6debfa70f4)" d="M 664.488886 151.343111 
L 687.060451 156.209008 
L 699.223919 147.81422 
L 676.796477 143.038348 
z
" style="fill:#0aa384;fill-opacity:0.8;"/>
    <path clip-path="url(#p6debfa70f4)" d="M 686.906359 162.207828 
L 699.043017 153.77676 
L 699.223919 147.81422 
L 687.060451 156.209008 
z
" style="fill:#065d4c;fill-opacity:0.8;"/>
    <path clip-path="url(#p6debfa70f4)" d="M 664.388241 157.320946 
L 686.906359 162.207828 
L 687.060451 156.209008 
L 664.488886 151.343111 
z
" style="fill:#0cba97;fill-opacity:0.8;"/>
   </g>
   <g id="Poly3DCollection_22">
    <path clip-path="url(#p6debfa70f4)" d="M 607.282442 156.020444 
L 607.29554 158.409712 
L 629.451317 163.290815 
L 629.45896 160.893206 
z
" style="fill:#0cba97;fill-opacity:0.8;"/>
    <path clip-path="url(#p6debfa70f4)" d="M 594.251899 164.493875 
L 594.277397 166.897616 
L 607.29554 158.409712 
L 607.282442 156.020444 
z
" style="fill:#065d4c;fill-opacity:0.8;"/>
    <path clip-path="url(#p6debfa70f4)" d="M 594.277397 166.897616 
L 616.571527 171.87116 
L 629.451317 163.290815 
L 607.29554 158.409712 
z
" style="fill:#0aa384;fill-opacity:0.8;"/>
    <path clip-path="url(#p6debfa70f4)" d="M 594.251899 164.493875 
L 607.282442 156.020444 
L 629.45896 160.893206 
L 616.56703 169.459007 
z
" style="fill:#08745e;fill-opacity:0.8;"/>
    <path clip-path="url(#p6debfa70f4)" d="M 616.56703 169.459007 
L 629.45896 160.893206 
L 629.451317 163.290815 
L 616.571527 171.87116 
z
" style="fill:#0cba97;fill-opacity:0.8;"/>
    <path clip-path="url(#p6debfa70f4)" d="M 594.251899 164.493875 
L 616.56703 169.459007 
L 616.571527 171.87116 
L 594.277397 166.897616 
z
" style="fill:#065d4c;fill-opacity:0.8;"/>
   </g>
   <g id="Poly3DCollection_23">
    <path clip-path="url(#p6debfa70f4)" d="M 721.659194 158.625209 
L 721.659194 158.625209 
L 744.520801 163.526273 
L 744.520801 163.526273 
z
" style="fill:#065d4c;fill-opacity:0.8;"/>
    <path clip-path="url(#p6debfa70f4)" d="M 709.669816 167.147954 
L 709.669816 167.147954 
L 721.659194 158.625209 
L 721.659194 158.625209 
z
" style="fill:#065d4c;fill-opacity:0.8;"/>
    <path clip-path="url(#p6debfa70f4)" d="M 709.669816 167.147954 
L 721.659194 158.625209 
L 744.520801 163.526273 
L 732.682645 172.142198 
z
" style="fill:#08745e;fill-opacity:0.8;"/>
    <path clip-path="url(#p6debfa70f4)" d="M 709.669816 167.147954 
L 732.682645 172.142198 
L 744.520801 163.526273 
L 721.659194 158.625209 
z
" style="fill:#0aa384;fill-opacity:0.8;"/>
    <path clip-path="url(#p6debfa70f4)" d="M 732.682645 172.142198 
L 744.520801 163.526273 
L 744.520801 163.526273 
L 732.682645 172.142198 
z
" style="fill:#065d4c;fill-opacity:0.8;"/>
    <path clip-path="url(#p6debfa70f4)" d="M 709.669816 167.147954 
L 732.682645 172.142198 
L 732.682645 172.142198 
L 709.669816 167.147954 
z
" style="fill:#065d4c;fill-opacity:0.8;"/>
   </g>
   <g id="Poly3DCollection_24">
    <path clip-path="url(#p6debfa70f4)" d="M 536.794549 163.172621 
L 536.54958 155.774359 
L 558.581446 160.698995 
L 558.763732 168.123292 
z
" style="fill:#065d4c;fill-opacity:0.8;"/>
    <path clip-path="url(#p6debfa70f4)" d="M 522.991077 171.781805 
L 522.70339 164.338367 
L 536.54958 155.774359 
L 536.794549 163.172621 
z
" style="fill:#0cba97;fill-opacity:0.8;"/>
    <path clip-path="url(#p6debfa70f4)" d="M 522.991077 171.781805 
L 536.794549 163.172621 
L 558.763732 168.123292 
L 545.093757 176.827082 
z
" style="fill:#08745e;fill-opacity:0.8;"/>
    <path clip-path="url(#p6debfa70f4)" d="M 522.70339 164.338367 
L 544.869509 169.357388 
L 558.581446 160.698995 
L 536.54958 155.774359 
z
" style="fill:#0aa384;fill-opacity:0.8;"/>
    <path clip-path="url(#p6debfa70f4)" d="M 545.093757 176.827082 
L 558.763732 168.123292 
L 558.581446 160.698995 
L 544.869509 169.357388 
z
" style="fill:#065d4c;fill-opacity:0.8;"/>
    <path clip-path="url(#p6debfa70f4)" d="M 522.991077 171.781805 
L 545.093757 176.827082 
L 544.869509 169.357388 
L 522.70339 164.338367 
z
" style="fill:#0cba97;fill-opacity:0.8;"/>
   </g>
   <g id="Poly3DCollection_25">
    <path clip-path="url(#p6debfa70f4)" d="M 651.876744 165.81898 
L 651.876744 165.81898 
L 674.539752 170.798636 
L 674.539752 170.798636 
z
" style="fill:#065d4c;fill-opacity:0.8;"/>
    <path clip-path="url(#p6debfa70f4)" d="M 639.127243 174.47867 
L 639.127243 174.47867 
L 651.876744 165.81898 
L 651.876744 165.81898 
z
" style="fill:#065d4c;fill-opacity:0.8;"/>
    <path clip-path="url(#p6debfa70f4)" d="M 639.127243 174.47867 
L 651.876744 165.81898 
L 674.539752 170.798636 
L 661.936599 179.553768 
z
" style="fill:#08745e;fill-opacity:0.8;"/>
    <path clip-path="url(#p6debfa70f4)" d="M 639.127243 174.47867 
L 661.936599 179.553768 
L 674.539752 170.798636 
L 651.876744 165.81898 
z
" style="fill:#0aa384;fill-opacity:0.8;"/>
    <path clip-path="url(#p6debfa70f4)" d="M 661.936599 179.553768 
L 674.539752 170.798636 
L 674.539752 170.798636 
L 661.936599 179.553768 
z
" style="fill:#065d4c;fill-opacity:0.8;"/>
    <path clip-path="url(#p6debfa70f4)" d="M 639.127243 174.47867 
L 661.936599 179.553768 
L 661.936599 179.553768 
L 639.127243 174.47867 
z
" style="fill:#065d4c;fill-opacity:0.8;"/>
   </g>
   <g id="Poly3DCollection_26">
    <path clip-path="url(#p6debfa70f4)" d="M 580.973843 173.128256 
L 580.973843 173.128256 
L 603.428869 178.188411 
L 603.428869 178.188411 
z
" style="fill:#065d4c;fill-opacity:0.8;"/>
    <path clip-path="url(#p6debfa70f4)" d="M 567.441154 181.928219 
L 567.441154 181.928219 
L 580.973843 173.128256 
L 580.973843 173.128256 
z
" style="fill:#065d4c;fill-opacity:0.8;"/>
    <path clip-path="url(#p6debfa70f4)" d="M 567.441154 181.928219 
L 580.973843 173.128256 
L 603.428869 178.188411 
L 590.037355 187.08615 
z
" style="fill:#08745e;fill-opacity:0.8;"/>
    <path clip-path="url(#p6debfa70f4)" d="M 567.441154 181.928219 
L 590.037355 187.08615 
L 603.428869 178.188411 
L 580.973843 173.128256 
z
" style="fill:#0aa384;fill-opacity:0.8;"/>
    <path clip-path="url(#p6debfa70f4)" d="M 590.037355 187.08615 
L 603.428869 178.188411 
L 603.428869 178.188411 
L 590.037355 187.08615 
z
" style="fill:#065d4c;fill-opacity:0.8;"/>
    <path clip-path="url(#p6debfa70f4)" d="M 567.441154 181.928219 
L 590.037355 187.08615 
L 590.037355 187.08615 
L 567.441154 181.928219 
z
" style="fill:#065d4c;fill-opacity:0.8;"/>
   </g>
   <g id="Poly3DCollection_27">
    <path clip-path="url(#p6debfa70f4)" d="M 697.452031 175.833064 
L 697.271332 181.86099 
L 720.380737 186.972205 
L 720.617715 180.923171 
z
" style="fill:#0cba97;fill-opacity:0.8;"/>
    <path clip-path="url(#p6debfa70f4)" d="M 684.999248 184.685223 
L 684.846653 190.749771 
L 697.271332 181.86099 
L 697.452031 175.833064 
z
" style="fill:#065d4c;fill-opacity:0.8;"/>
    <path clip-path="url(#p6debfa70f4)" d="M 684.846653 190.749771 
L 708.1098 195.959806 
L 720.380737 186.972205 
L 697.271332 181.86099 
z
" style="fill:#0aa384;fill-opacity:0.8;"/>
    <path clip-path="url(#p6debfa70f4)" d="M 684.999248 184.685223 
L 697.452031 175.833064 
L 720.617715 180.923171 
L 708.319432 189.873981 
z
" style="fill:#08745e;fill-opacity:0.8;"/>
    <path clip-path="url(#p6debfa70f4)" d="M 708.319432 189.873981 
L 720.617715 180.923171 
L 720.380737 186.972205 
L 708.1098 195.959806 
z
" style="fill:#0cba97;fill-opacity:0.8;"/>
    <path clip-path="url(#p6debfa70f4)" d="M 684.999248 184.685223 
L 708.319432 189.873981 
L 708.1098 195.959806 
L 684.846653 190.749771 
z
" style="fill:#065d4c;fill-opacity:0.8;"/>
   </g>
   <g id="Poly3DCollection_28">
    <path clip-path="url(#p6debfa70f4)" d="M 508.923289 180.555843 
L 508.923289 180.555843 
L 531.160567 185.698463 
L 531.160567 185.698463 
z
" style="fill:#065d4c;fill-opacity:0.8;"/>
    <path clip-path="url(#p6debfa70f4)" d="M 494.583518 189.499515 
L 494.583518 189.499515 
L 508.923289 180.555843 
L 508.923289 180.555843 
z
" style="fill:#065d4c;fill-opacity:0.8;"/>
    <path clip-path="url(#p6debfa70f4)" d="M 494.583518 189.499515 
L 508.923289 180.555843 
L 531.160567 185.698463 
L 516.956485 194.742323 
z
" style="fill:#08745e;fill-opacity:0.8;"/>
    <path clip-path="url(#p6debfa70f4)" d="M 494.583518 189.499515 
L 516.956485 194.742323 
L 531.160567 185.698463 
L 508.923289 180.555843 
z
" style="fill:#0aa384;fill-opacity:0.8;"/>
    <path clip-path="url(#p6debfa70f4)" d="M 516.956485 194.742323 
L 531.160567 185.698463 
L 531.160567 185.698463 
L 516.956485 194.742323 
z
" style="fill:#065d4c;fill-opacity:0.8;"/>
    <path clip-path="url(#p6debfa70f4)" d="M 494.583518 189.499515 
L 516.956485 194.742323 
L 516.956485 194.742323 
L 494.583518 189.499515 
z
" style="fill:#065d4c;fill-opacity:0.8;"/>
   </g>
   <g id="Poly3DCollection_29">
    <path clip-path="url(#p6debfa70f4)" d="M 626.132882 183.304674 
L 626.137525 180.864641 
L 649.116959 186.029347 
L 649.090047 188.477983 
z
" style="fill:#065d4c;fill-opacity:0.8;"/>
    <path clip-path="url(#p6debfa70f4)" d="M 612.886538 192.301828 
L 612.87834 189.846868 
L 626.137525 180.864641 
L 626.132882 183.304674 
z
" style="fill:#0cba97;fill-opacity:0.8;"/>
    <path clip-path="url(#p6debfa70f4)" d="M 612.886538 192.301828 
L 626.132882 183.304674 
L 649.090047 188.477983 
L 635.992976 197.576229 
z
" style="fill:#08745e;fill-opacity:0.8;"/>
    <path clip-path="url(#p6debfa70f4)" d="M 612.87834 189.846868 
L 636.007338 195.112595 
L 649.116959 186.029347 
L 626.137525 180.864641 
z
" style="fill:#0aa384;fill-opacity:0.8;"/>
    <path clip-path="url(#p6debfa70f4)" d="M 635.992976 197.576229 
L 649.090047 188.477983 
L 649.116959 186.029347 
L 636.007338 195.112595 
z
" style="fill:#065d4c;fill-opacity:0.8;"/>
    <path clip-path="url(#p6debfa70f4)" d="M 612.886538 192.301828 
L 635.992976 197.576229 
L 636.007338 195.112595 
L 612.87834 189.846868 
z
" style="fill:#0cba97;fill-opacity:0.8;"/>
   </g>
   <g id="Poly3DCollection_30">
    <path clip-path="url(#p6debfa70f4)" d="M 553.646437 190.898573 
L 553.84737 198.395852 
L 576.51925 203.680734 
L 576.385089 196.157142 
z
" style="fill:#0cba97;fill-opacity:0.8;"/>
    <path clip-path="url(#p6debfa70f4)" d="M 539.582006 200.044314 
L 539.827068 207.587244 
L 553.84737 198.395852 
L 553.646437 190.898573 
z
" style="fill:#065d4c;fill-opacity:0.8;"/>
    <path clip-path="url(#p6debfa70f4)" d="M 539.827068 207.587244 
L 562.641831 212.975942 
L 576.51925 203.680734 
L 553.84737 198.395852 
z
" style="fill:#0aa384;fill-opacity:0.8;"/>
    <path clip-path="url(#p6debfa70f4)" d="M 539.582006 200.044314 
L 553.646437 190.898573 
L 576.385089 196.157142 
L 562.46438 205.406496 
z
" style="fill:#08745e;fill-opacity:0.8;"/>
    <path clip-path="url(#p6debfa70f4)" d="M 562.46438 205.406496 
L 576.385089 196.157142 
L 576.51925 203.680734 
L 562.641831 212.975942 
z
" style="fill:#0cba97;fill-opacity:0.8;"/>
    <path clip-path="url(#p6debfa70f4)" d="M 539.582006 200.044314 
L 562.46438 205.406496 
L 562.641831 212.975942 
L 539.827068 207.587244 
z
" style="fill:#065d4c;fill-opacity:0.8;"/>
   </g>
   <g id="Poly3DCollection_31">
    <path clip-path="url(#p6debfa70f4)" d="M 672.304622 193.709299 
L 672.30818 193.533315 
L 695.786186 198.822998 
L 695.78096 198.999603 
z
" style="fill:#065d4c;fill-opacity:0.8;"/>
    <path clip-path="url(#p6debfa70f4)" d="M 659.361038 202.910349 
L 659.363719 202.733287 
L 672.30818 193.533315 
L 672.304622 193.709299 
z
" style="fill:#0cba97;fill-opacity:0.8;"/>
    <path clip-path="url(#p6debfa70f4)" d="M 659.361038 202.910349 
L 672.304622 193.709299 
L 695.78096 198.999603 
L 682.995193 208.305208 
z
" style="fill:#08745e;fill-opacity:0.8;"/>
    <path clip-path="url(#p6debfa70f4)" d="M 659.363719 202.733287 
L 682.999564 208.127521 
L 695.786186 198.822998 
L 672.30818 193.533315 
z
" style="fill:#0aa384;fill-opacity:0.8;"/>
    <path clip-path="url(#p6debfa70f4)" d="M 682.995193 208.305208 
L 695.78096 198.999603 
L 695.786186 198.822998 
L 682.999564 208.127521 
z
" style="fill:#065d4c;fill-opacity:0.8;"/>
    <path clip-path="url(#p6debfa70f4)" d="M 659.361038 202.910349 
L 682.995193 208.305208 
L 682.999564 208.127521 
L 659.363719 202.733287 
z
" style="fill:#0cba97;fill-opacity:0.8;"/>
   </g>
   <g id="Poly3DCollection_32">
    <path clip-path="url(#p6debfa70f4)" d="M 599.380811 201.475161 
L 599.387165 202.203488 
L 622.637601 207.584544 
L 622.637987 206.853644 
z
" style="fill:#0cba97;fill-opacity:0.8;"/>
    <path clip-path="url(#p6debfa70f4)" d="M 585.608006 210.829898 
L 585.618452 211.562688 
L 599.387165 202.203488 
L 599.380811 201.475161 
z
" style="fill:#065d4c;fill-opacity:0.8;"/>
    <path clip-path="url(#p6debfa70f4)" d="M 585.618452 211.562688 
L 609.021003 217.050957 
L 622.637601 207.584544 
L 599.387165 202.203488 
z
" style="fill:#0aa384;fill-opacity:0.8;"/>
    <path clip-path="url(#p6debfa70f4)" d="M 585.608006 210.829898 
L 599.380811 201.475161 
L 622.637987 206.853644 
L 609.017385 216.315575 
z
" style="fill:#08745e;fill-opacity:0.8;"/>
    <path clip-path="url(#p6debfa70f4)" d="M 609.017385 216.315575 
L 622.637987 206.853644 
L 622.637601 207.584544 
L 609.021003 217.050957 
z
" style="fill:#0cba97;fill-opacity:0.8;"/>
    <path clip-path="url(#p6debfa70f4)" d="M 585.608006 210.829898 
L 609.017385 216.315575 
L 609.021003 217.050957 
L 585.618452 211.562688 
z
" style="fill:#065d4c;fill-opacity:0.8;"/>
   </g>
   <g id="Poly3DCollection_33">
    <path clip-path="url(#p6debfa70f4)" d="M 646.161102 212.293629 
L 646.16964 211.433307 
L 669.971554 216.932807 
L 669.954742 217.796175 
z
" style="fill:#065d4c;fill-opacity:0.8;"/>
    <path clip-path="url(#p6debfa70f4)" d="M 632.697119 221.864607 
L 632.70107 220.999 
L 646.16964 211.433307 
L 646.161102 212.293629 
z
" style="fill:#0cba97;fill-opacity:0.8;"/>
    <path clip-path="url(#p6debfa70f4)" d="M 632.697119 221.864607 
L 646.161102 212.293629 
L 669.954742 217.796175 
L 656.651921 227.478098 
z
" style="fill:#08745e;fill-opacity:0.8;"/>
    <path clip-path="url(#p6debfa70f4)" d="M 632.70107 220.999 
L 656.664258 226.609421 
L 669.971554 216.932807 
L 646.16964 211.433307 
z
" style="fill:#0aa384;fill-opacity:0.8;"/>
    <path clip-path="url(#p6debfa70f4)" d="M 656.651921 227.478098 
L 669.954742 217.796175 
L 669.971554 216.932807 
L 656.664258 226.609421 
z
" style="fill:#065d4c;fill-opacity:0.8;"/>
    <path clip-path="url(#p6debfa70f4)" d="M 632.697119 221.864607 
L 656.651921 227.478098 
L 656.664258 226.609421 
L 632.70107 220.999 
z
" style="fill:#0cba97;fill-opacity:0.8;"/>
   </g>
   <g id="Poly3DCollection_34">
    <path clip-path="url(#p6debfa70f4)" d="M 481.710838 190.837232 
L 660.402802 232.907145 
L 756.653328 162.265472 
L 586.502353 125.943229 
z
" style="fill-opacity:0.2;"/>
   </g>
  </g>
 </g>
 <defs>
  <clipPath id="p0c7cb875bc">
   <rect height="277.2" width="380.454545" x="-30.6" y="-14.4"/>
  </clipPath>
  <clipPath id="p6debfa70f4">
   <rect height="277.2" width="380.454545" x="425.945455" y="-14.4"/>
  </clipPath>
 </defs>
</svg>
