<?xml version="1.0" encoding="utf-8" standalone="no"?>
<!DOCTYPE svg PUBLIC "-//W3C//DTD SVG 1.1//EN"
  "http://www.w3.org/Graphics/SVG/1.1/DTD/svg11.dtd">
<!-- Created with matplotlib (https://matplotlib.org/) -->
<svg height="302.4pt" version="1.1" viewBox="0 0 820.8 302.4" width="820.8pt" xmlns="http://www.w3.org/2000/svg" xmlns:xlink="http://www.w3.org/1999/xlink">
 <defs>
  <style type="text/css">
*{stroke-linecap:butt;stroke-linejoin:round;}
  </style>
 </defs>
 <g id="figure_1">
  <g id="patch_1">
   <path d="M 0 302.4 
L 820.8 302.4 
L 820.8 0 
L 0 0 
z
" style="fill:#ffffff;"/>
  </g>
  <g id="patch_2">
   <path d="M -30.6 262.8 
L 349.854545 262.8 
L 349.854545 -14.4 
L -30.6 -14.4 
z
" style="fill:#ffffff;"/>
  </g>
  <g id="pane3d_1">
   <g id="patch_3">
    <path d="M 19.835129 201.548569 
L 128.723211 133.58541 
L 126.910339 3.718968 
L 11.951034 64.782468 
" style="fill:#f2f2f2;opacity:0.5;stroke:#f2f2f2;stroke-linejoin:miter;"/>
   </g>
  </g>
  <g id="pane3d_2">
   <g id="patch_4">
    <path d="M 128.723211 133.58541 
L 305.111665 171.581202 
L 312.491547 37.79869 
L 126.910339 3.718968 
" style="fill:#e6e6e6;opacity:0.5;stroke:#e6e6e6;stroke-linejoin:miter;"/>
   </g>
  </g>
  <g id="pane3d_3">
   <g id="patch_5">
    <path d="M 19.835129 201.548569 
L 205.419617 245.80086 
L 305.111665 171.581202 
L 128.723211 133.58541 
" style="fill:#ececec;opacity:0.5;stroke:#ececec;stroke-linejoin:miter;"/>
   </g>
  </g>
  <g id="axis3d_1">
   <g id="line2d_1">
    <path d="M 19.835129 201.548569 
L 205.419617 245.80086 
" style="fill:none;stroke:#000000;stroke-linecap:square;stroke-width:0.8;"/>
   </g>
   <g id="Line3DCollection_1">
    <path d="M 42.295817 206.90428 
L 150.133942 138.19749 
L 149.393845 7.847789 
" style="fill:none;stroke:#b0b0b0;stroke-width:0.8;"/>
    <path d="M 87.512337 217.686079 
L 193.184014 147.470895 
L 194.636898 16.156123 
" style="fill:none;stroke:#b0b0b0;stroke-width:0.8;"/>
    <path d="M 133.765289 228.715013 
L 237.148096 156.941187 
L 240.890183 24.649974 
" style="fill:none;stroke:#b0b0b0;stroke-width:0.8;"/>
    <path d="M 181.090721 239.999678 
L 282.055608 166.614702 
L 288.187917 33.335625 
" style="fill:none;stroke:#b0b0b0;stroke-width:0.8;"/>
   </g>
   <g id="xtick_1">
    <g id="line2d_2">
     <path d="M 43.225084 206.312217 
L 40.433807 208.09062 
" style="fill:none;stroke:#000000;stroke-linecap:square;stroke-width:0.8;"/>
    </g>
    <g id="text_1">
     <!-- 00 -->
     <defs>
      <path d="M 42 31.84375 
C 42 37.96875 41.90625 48.421875 37.703125 56.453125 
C 34 63.484375 28.09375 66 22.90625 66 
C 18.09375 66 12 63.78125 8.203125 56.5625 
C 4.203125 49.015625 3.796875 39.671875 3.796875 31.84375 
C 3.796875 26.109375 3.90625 17.375 7 9.734375 
C 11.296875 -0.609375 19 -2 22.90625 -2 
C 27.5 -2 34.5 -0.109375 38.59375 9.4375 
C 41.59375 16.375 42 24.5 42 31.84375 
z
M 22.90625 -0.40625 
C 16.5 -0.40625 12.703125 5.125 11.296875 12.75 
C 10.203125 18.6875 10.203125 27.328125 10.203125 32.953125 
C 10.203125 40.6875 10.203125 47.109375 11.5 53.234375 
C 13.40625 61.78125 19 64.390625 22.90625 64.390625 
C 27 64.390625 32.296875 61.671875 34.203125 53.4375 
C 35.5 47.71875 35.59375 40.984375 35.59375 32.953125 
C 35.59375 26.421875 35.59375 18.375 34.40625 12.453125 
C 32.296875 1.5 26.40625 -0.40625 22.90625 -0.40625 
z
" id="CMR17-48"/>
     </defs>
     <g transform="translate(17.674928 245.619336)rotate(-45)scale(0.22 -0.22)">
      <use transform="scale(0.996264)" xlink:href="#CMR17-48"/>
      <use transform="translate(45.690477 0)scale(0.996264)" xlink:href="#CMR17-48"/>
     </g>
    </g>
   </g>
   <g id="xtick_2">
    <g id="line2d_3">
     <path d="M 88.423674 217.080527 
L 85.686217 218.899473 
" style="fill:none;stroke:#000000;stroke-linecap:square;stroke-width:0.8;"/>
    </g>
    <g id="text_2">
     <!-- 01 -->
     <defs>
      <path d="M 26.59375 63.796875 
C 26.59375 65.890625 26.5 66 25.09375 66 
C 21.203125 61.359375 15.296875 59.890625 9.703125 59.6875 
C 9.40625 59.6875 8.90625 59.6875 8.796875 59.5 
C 8.703125 59.296875 8.703125 59.09375 8.703125 57 
C 11.796875 57 17 57.59375 21 59.984375 
L 21 7.296875 
C 21 3.796875 20.796875 2.59375 12.203125 2.59375 
L 9.203125 2.59375 
L 9.203125 0 
C 14 0.09375 19 0.1875 23.796875 0.1875 
C 28.59375 0.1875 33.59375 0.09375 38.40625 0 
L 38.40625 2.59375 
L 35.40625 2.59375 
C 26.796875 2.59375 26.59375 3.6875 26.59375 7.296875 
z
" id="CMR17-49"/>
     </defs>
     <g transform="translate(62.887353 256.576088)rotate(-45)scale(0.22 -0.22)">
      <use transform="scale(0.996264)" xlink:href="#CMR17-48"/>
      <use transform="translate(45.690477 0)scale(0.996264)" xlink:href="#CMR17-49"/>
     </g>
    </g>
   </g>
   <g id="xtick_3">
    <g id="line2d_4">
     <path d="M 134.657625 228.095506 
L 131.977203 229.956397 
" style="fill:none;stroke:#000000;stroke-linecap:square;stroke-width:0.8;"/>
    </g>
    <g id="text_3">
     <!-- 10 -->
     <g transform="translate(109.137966 267.784434)rotate(-45)scale(0.22 -0.22)">
      <use transform="scale(0.996264)" xlink:href="#CMR17-49"/>
      <use transform="translate(45.690477 0)scale(0.996264)" xlink:href="#CMR17-48"/>
     </g>
    </g>
   </g>
   <g id="xtick_4">
    <g id="line2d_5">
     <path d="M 181.962926 239.365727 
L 179.342936 241.270032 
" style="fill:none;stroke:#000000;stroke-linecap:square;stroke-width:0.8;"/>
    </g>
    <g id="text_4">
     <!-- 11 -->
     <g transform="translate(156.462941 279.25314)rotate(-45)scale(0.22 -0.22)">
      <use transform="scale(0.996264)" xlink:href="#CMR17-49"/>
      <use transform="translate(45.690477 0)scale(0.996264)" xlink:href="#CMR17-49"/>
     </g>
    </g>
   </g>
  </g>
  <g id="axis3d_2">
   <g id="line2d_6">
    <path d="M 305.111665 171.581202 
L 205.419617 245.80086 
" style="fill:none;stroke:#000000;stroke-linecap:square;stroke-width:0.8;"/>
   </g>
   <g id="Line3DCollection_2">
    <path d="M 27.455231 56.547028 
L 34.471044 192.413474 
L 218.858418 235.795817 
" style="fill:none;stroke:#b0b0b0;stroke-width:0.8;"/>
    <path d="M 57.232024 40.730342 
L 62.623407 174.842005 
L 244.674037 216.576366 
" style="fill:none;stroke:#b0b0b0;stroke-width:0.8;"/>
    <path d="M 85.85589 25.526062 
L 89.739382 157.917404 
L 269.496985 198.095948 
" style="fill:none;stroke:#b0b0b0;stroke-width:0.8;"/>
    <path d="M 113.392516 10.899296 
L 115.875164 141.604597 
L 293.383438 180.312741 
" style="fill:none;stroke:#b0b0b0;stroke-width:0.8;"/>
   </g>
   <g id="xtick_5">
    <g id="line2d_7">
     <path d="M 217.315598 235.432825 
L 221.947489 236.522608 
" style="fill:none;stroke:#000000;stroke-linecap:square;stroke-width:0.8;"/>
    </g>
    <g id="text_5">
     <!-- 00 -->
     <g transform="translate(233.243972 248.955025)rotate(-337.5)scale(0.22 -0.22)">
      <use transform="scale(0.996264)" xlink:href="#CMR17-48"/>
      <use transform="translate(45.690477 0)scale(0.996264)" xlink:href="#CMR17-48"/>
     </g>
    </g>
   </g>
   <g id="xtick_6">
    <g id="line2d_8">
     <path d="M 243.15208 216.227463 
L 247.72127 217.274932 
" style="fill:none;stroke:#000000;stroke-linecap:square;stroke-width:0.8;"/>
    </g>
    <g id="text_6">
     <!-- 01 -->
     <g transform="translate(258.797524 229.510599)rotate(-337.5)scale(0.22 -0.22)">
      <use transform="scale(0.996264)" xlink:href="#CMR17-48"/>
      <use transform="translate(45.690477 0)scale(0.996264)" xlink:href="#CMR17-49"/>
     </g>
    </g>
   </g>
   <g id="xtick_7">
    <g id="line2d_9">
     <path d="M 267.995442 197.76033 
L 272.503283 198.767901 
" style="fill:none;stroke:#000000;stroke-linecap:square;stroke-width:0.8;"/>
    </g>
    <g id="text_7">
     <!-- 10 -->
     <g transform="translate(283.368935 210.813511)rotate(-337.5)scale(0.22 -0.22)">
      <use transform="scale(0.996264)" xlink:href="#CMR17-49"/>
      <use transform="translate(45.690477 0)scale(0.996264)" xlink:href="#CMR17-48"/>
     </g>
    </g>
   </g>
   <g id="xtick_8">
    <g id="line2d_10">
     <path d="M 291.901865 179.989663 
L 296.349691 180.959573 
" style="fill:none;stroke:#000000;stroke-linecap:square;stroke-width:0.8;"/>
    </g>
    <g id="text_8">
     <!-- 11 -->
     <g transform="translate(307.013762 192.821489)rotate(-337.5)scale(0.22 -0.22)">
      <use transform="scale(0.996264)" xlink:href="#CMR17-49"/>
      <use transform="translate(45.690477 0)scale(0.996264)" xlink:href="#CMR17-49"/>
     </g>
    </g>
   </g>
  </g>
  <g id="axis3d_3">
   <g id="line2d_11">
    <path d="M 305.111665 171.581202 
L 312.491547 37.79869 
" style="fill:none;stroke:#000000;stroke-linecap:square;stroke-width:0.8;"/>
   </g>
   <g id="Line3DCollection_3">
    <path d="M 306.126829 153.1783 
L 128.473366 115.687609 
L 18.752215 182.763163 
" style="fill:none;stroke:#b0b0b0;stroke-width:0.8;"/>
    <path d="M 308.599331 108.356789 
L 127.86548 72.141182 
L 16.112559 136.972817 
" style="fill:none;stroke:#b0b0b0;stroke-width:0.8;"/>
    <path d="M 311.159865 61.939415 
L 127.236884 27.111241 
L 13.375708 89.496411 
" style="fill:none;stroke:#b0b0b0;stroke-width:0.8;"/>
   </g>
   <g id="xtick_9">
    <g id="line2d_12">
     <path d="M 304.644185 152.865414 
L 309.095222 153.804728 
" style="fill:none;stroke:#000000;stroke-linecap:square;stroke-width:0.8;"/>
    </g>
    <g id="text_9">
     <!-- $0.0$ -->
     <defs>
      <path d="M 18.40625 4.796875 
C 18.40625 7.6875 16 9.6875 13.59375 9.6875 
C 10.703125 9.6875 8.703125 7.296875 8.703125 4.890625 
C 8.703125 2 11.09375 0 13.5 0 
C 16.40625 0 18.40625 2.390625 18.40625 4.796875 
z
" id="CMMI12-58"/>
     </defs>
     <g transform="translate(311.735276 166.479921)scale(0.22 -0.22)">
      <use transform="scale(0.996264)" xlink:href="#CMR17-48"/>
      <use transform="translate(45.690477 0)scale(0.996264)" xlink:href="#CMMI12-58"/>
      <use transform="translate(72.787654 0)scale(0.996264)" xlink:href="#CMR17-48"/>
     </g>
    </g>
   </g>
   <g id="xtick_10">
    <g id="line2d_13">
     <path d="M 307.089886 108.054325 
L 311.621435 108.96236 
" style="fill:none;stroke:#000000;stroke-linecap:square;stroke-width:0.8;"/>
    </g>
    <g id="text_10">
     <!-- $0.2$ -->
     <defs>
      <path d="M 41.703125 15.46875 
L 39.90625 15.46875 
C 38.90625 8.390625 38.09375 7.1875 37.703125 6.59375 
C 37.203125 5.796875 30 5.796875 28.59375 5.796875 
L 9.40625 5.796875 
C 13 9.6875 20 16.765625 28.5 24.9375 
C 34.59375 30.71875 41.703125 37.5 41.703125 47.390625 
C 41.703125 59.1875 32.296875 66 21.796875 66 
C 10.796875 66 4.09375 56.296875 4.09375 47.296875 
C 4.09375 43.390625 7 42.890625 8.203125 42.890625 
C 9.203125 42.890625 12.203125 43.484375 12.203125 46.984375 
C 12.203125 50.09375 9.59375 51 8.203125 51 
C 7.59375 51 7 50.890625 6.59375 50.6875 
C 8.5 59.1875 14.296875 63.390625 20.40625 63.390625 
C 29.09375 63.390625 34.796875 56.5 34.796875 47.390625 
C 34.796875 38.703125 29.703125 31.21875 24 24.734375 
L 4.09375 2.296875 
L 4.09375 0 
L 39.296875 0 
z
" id="CMR17-50"/>
     </defs>
     <g transform="translate(314.527742 121.722394)scale(0.22 -0.22)">
      <use transform="scale(0.996264)" xlink:href="#CMR17-48"/>
      <use transform="translate(45.690477 0)scale(0.996264)" xlink:href="#CMMI12-58"/>
      <use transform="translate(72.787654 0)scale(0.996264)" xlink:href="#CMR17-50"/>
     </g>
    </g>
   </g>
   <g id="xtick_11">
    <g id="line2d_14">
     <path d="M 309.622634 61.648321 
L 314.23766 62.522235 
" style="fill:none;stroke:#000000;stroke-linecap:square;stroke-width:0.8;"/>
    </g>
    <g id="text_11">
     <!-- $0.4$ -->
     <defs>
      <path d="M 33.59375 64.796875 
C 33.59375 66.890625 33.5 67 31.703125 67 
L 2 19.59375 
L 2 17 
L 27.796875 17 
L 27.796875 7.1875 
C 27.796875 3.59375 27.59375 2.59375 20.59375 2.59375 
L 18.703125 2.59375 
L 18.703125 0 
C 21.90625 0.1875 27.296875 0.1875 30.703125 0.1875 
C 34.09375 0.1875 39.5 0.1875 42.703125 0 
L 42.703125 2.59375 
L 40.796875 2.59375 
C 33.796875 2.59375 33.59375 3.59375 33.59375 7.1875 
L 33.59375 17 
L 43.796875 17 
L 43.796875 19.59375 
L 33.59375 19.59375 
z
M 28.09375 58.171875 
L 28.09375 19.59375 
L 4 19.59375 
z
" id="CMR17-52"/>
     </defs>
     <g transform="translate(317.419413 75.37481)scale(0.22 -0.22)">
      <use transform="scale(0.996264)" xlink:href="#CMR17-48"/>
      <use transform="translate(45.690477 0)scale(0.996264)" xlink:href="#CMMI12-58"/>
      <use transform="translate(72.787654 0)scale(0.996264)" xlink:href="#CMR17-52"/>
     </g>
    </g>
   </g>
  </g>
  <g id="axes_1">
   <g id="Poly3DCollection_1">
    <path clip-path="url(#pbfab940241)" d="M 132.861108 121.979154 
L 132.816542 118.356424 
L 154.361679 122.912403 
L 154.376271 126.547844 
z
" style="fill:#5d0618;fill-opacity:0.8;"/>
    <path clip-path="url(#pbfab940241)" d="M 120.001223 129.923015 
L 119.938122 126.278227 
L 132.816542 118.356424 
L 132.861108 121.979154 
z
" style="fill:#ba0c2f;fill-opacity:0.8;"/>
    <path clip-path="url(#pbfab940241)" d="M 120.001223 129.923015 
L 132.861108 121.979154 
L 154.376271 126.547844 
L 141.646235 134.576072 
z
" style="fill:#74081d;fill-opacity:0.8;"/>
    <path clip-path="url(#pbfab940241)" d="M 119.938122 126.278227 
L 141.613469 130.918458 
L 154.361679 122.912403 
L 132.816542 118.356424 
z
" style="fill:#a30a29;fill-opacity:0.8;"/>
    <path clip-path="url(#pbfab940241)" d="M 141.646235 134.576072 
L 154.376271 126.547844 
L 154.361679 122.912403 
L 141.613469 130.918458 
z
" style="fill:#5d0618;fill-opacity:0.8;"/>
    <path clip-path="url(#pbfab940241)" d="M 120.001223 129.923015 
L 141.646235 134.576072 
L 141.613469 130.918458 
L 119.938122 126.278227 
z
" style="fill:#ba0c2f;fill-opacity:0.8;"/>
   </g>
   <g id="Poly3DCollection_2">
    <path clip-path="url(#pbfab940241)" d="M 176.119487 131.16496 
L 176.118435 131.404564 
L 198.091296 136.071722 
L 198.094402 135.831277 
z
" style="fill:#ba0c2f;fill-opacity:0.8;"/>
    <path clip-path="url(#pbfab940241)" d="M 163.522801 139.278906 
L 163.522918 139.51997 
L 176.118435 131.404564 
L 176.119487 131.16496 
z
" style="fill:#5d0618;fill-opacity:0.8;"/>
    <path clip-path="url(#pbfab940241)" d="M 163.522918 139.51997 
L 185.632696 144.274234 
L 198.091296 136.071722 
L 176.118435 131.404564 
z
" style="fill:#a30a29;fill-opacity:0.8;"/>
    <path clip-path="url(#pbfab940241)" d="M 163.522801 139.278906 
L 176.119487 131.16496 
L 198.094402 135.831277 
L 185.634659 144.032321 
z
" style="fill:#74081d;fill-opacity:0.8;"/>
    <path clip-path="url(#pbfab940241)" d="M 185.634659 144.032321 
L 198.094402 135.831277 
L 198.091296 136.071722 
L 185.632696 144.274234 
z
" style="fill:#ba0c2f;fill-opacity:0.8;"/>
    <path clip-path="url(#pbfab940241)" d="M 163.522801 139.278906 
L 185.634659 144.032321 
L 185.632696 144.274234 
L 163.522918 139.51997 
z
" style="fill:#5d0618;fill-opacity:0.8;"/>
   </g>
   <g id="Poly3DCollection_3">
    <path clip-path="url(#pbfab940241)" d="M 106.903395 138.013858 
L 106.881959 137.058921 
L 128.665952 141.795339 
L 128.679393 142.753641 
z
" style="fill:#5d0618;fill-opacity:0.8;"/>
    <path clip-path="url(#pbfab940241)" d="M 93.56096 146.255802 
L 93.534334 145.295026 
L 106.881959 137.058921 
L 106.903395 138.013858 
z
" style="fill:#ba0c2f;fill-opacity:0.8;"/>
    <path clip-path="url(#pbfab940241)" d="M 93.56096 146.255802 
L 106.903395 138.013858 
L 128.679393 142.753641 
L 115.469077 151.084758 
z
" style="fill:#74081d;fill-opacity:0.8;"/>
    <path clip-path="url(#pbfab940241)" d="M 93.534334 145.295026 
L 115.450543 150.120587 
L 128.665952 141.795339 
L 106.881959 137.058921 
z
" style="fill:#a30a29;fill-opacity:0.8;"/>
    <path clip-path="url(#pbfab940241)" d="M 115.469077 151.084758 
L 128.679393 142.753641 
L 128.665952 141.795339 
L 115.450543 150.120587 
z
" style="fill:#5d0618;fill-opacity:0.8;"/>
    <path clip-path="url(#pbfab940241)" d="M 93.56096 146.255802 
L 115.469077 151.084758 
L 115.450543 150.120587 
L 93.534334 145.295026 
z
" style="fill:#ba0c2f;fill-opacity:0.8;"/>
   </g>
   <g id="Poly3DCollection_4">
    <path clip-path="url(#pbfab940241)" d="M 220.304738 140.547586 
L 220.359886 137.990435 
L 242.832158 142.748516 
L 242.7543 145.314693 
z
" style="fill:#5d0618;fill-opacity:0.8;"/>
    <path clip-path="url(#pbfab940241)" d="M 207.985623 148.837138 
L 208.02894 146.264325 
L 220.359886 137.990435 
L 220.304738 140.547586 
z
" style="fill:#ba0c2f;fill-opacity:0.8;"/>
    <path clip-path="url(#pbfab940241)" d="M 207.985623 148.837138 
L 220.304738 140.547586 
L 242.7543 145.314693 
L 230.579595 153.694194 
z
" style="fill:#74081d;fill-opacity:0.8;"/>
    <path clip-path="url(#pbfab940241)" d="M 208.02894 146.264325 
L 230.645917 151.112275 
L 242.832158 142.748516 
L 220.359886 137.990435 
z
" style="fill:#a30a29;fill-opacity:0.8;"/>
    <path clip-path="url(#pbfab940241)" d="M 230.579595 153.694194 
L 242.7543 145.314693 
L 242.832158 142.748516 
L 230.645917 151.112275 
z
" style="fill:#5d0618;fill-opacity:0.8;"/>
    <path clip-path="url(#pbfab940241)" d="M 207.985623 148.837138 
L 230.579595 153.694194 
L 230.645917 151.112275 
L 208.02894 146.264325 
z
" style="fill:#ba0c2f;fill-opacity:0.8;"/>
   </g>
   <g id="Poly3DCollection_5">
    <path clip-path="url(#pbfab940241)" d="M 150.690526 147.544603 
L 150.777105 163.33873 
L 172.890093 168.236965 
L 172.940622 152.387578 
z
" style="fill:#ba0c2f;fill-opacity:0.8;"/>
    <path clip-path="url(#pbfab940241)" d="M 137.784542 171.856359 
L 160.035349 176.847178 
L 172.890093 168.236965 
L 150.777105 163.33873 
z
" style="fill:#a30a29;fill-opacity:0.8;"/>
    <path clip-path="url(#pbfab940241)" d="M 137.615989 155.966348 
L 137.784542 171.856359 
L 150.777105 163.33873 
L 150.690526 147.544603 
z
" style="fill:#5d0618;fill-opacity:0.8;"/>
    <path clip-path="url(#pbfab940241)" d="M 160.005621 160.901438 
L 172.940622 152.387578 
L 172.890093 168.236965 
L 160.035349 176.847178 
z
" style="fill:#ba0c2f;fill-opacity:0.8;"/>
    <path clip-path="url(#pbfab940241)" d="M 137.615989 155.966348 
L 150.690526 147.544603 
L 172.940622 152.387578 
L 160.005621 160.901438 
z
" style="fill:#74081d;fill-opacity:0.8;"/>
    <path clip-path="url(#pbfab940241)" d="M 137.615989 155.966348 
L 160.005621 160.901438 
L 160.035349 176.847178 
L 137.784542 171.856359 
z
" style="fill:#5d0618;fill-opacity:0.8;"/>
   </g>
   <g id="Poly3DCollection_6">
    <path clip-path="url(#pbfab940241)" d="M 79.966999 154.653119 
L 79.512089 140.91451 
L 101.669841 145.786141 
L 102.008364 159.573788 
z
" style="fill:#5d0618;fill-opacity:0.8;"/>
    <path clip-path="url(#pbfab940241)" d="M 66.114333 163.210244 
L 65.580049 149.386541 
L 79.512089 140.91451 
L 79.966999 154.653119 
z
" style="fill:#ba0c2f;fill-opacity:0.8;"/>
    <path clip-path="url(#pbfab940241)" d="M 66.114333 163.210244 
L 79.966999 154.653119 
L 102.008364 159.573788 
L 88.290067 168.225265 
z
" style="fill:#74081d;fill-opacity:0.8;"/>
    <path clip-path="url(#pbfab940241)" d="M 65.580049 149.386541 
L 87.87358 154.352093 
L 101.669841 145.786141 
L 79.512089 140.91451 
z
" style="fill:#a30a29;fill-opacity:0.8;"/>
    <path clip-path="url(#pbfab940241)" d="M 88.290067 168.225265 
L 102.008364 159.573788 
L 101.669841 145.786141 
L 87.87358 154.352093 
z
" style="fill:#5d0618;fill-opacity:0.8;"/>
    <path clip-path="url(#pbfab940241)" d="M 66.114333 163.210244 
L 88.290067 168.225265 
L 87.87358 154.352093 
L 65.580049 149.386541 
z
" style="fill:#ba0c2f;fill-opacity:0.8;"/>
   </g>
   <g id="Poly3DCollection_7">
    <path clip-path="url(#pbfab940241)" d="M 241.164254 167.237193 
L 241.242405 164.630164 
L 264.512701 169.680621 
L 264.410204 172.296926 
z
" style="fill:#5d0618;fill-opacity:0.8;"/>
    <path clip-path="url(#pbfab940241)" d="M 228.671406 176.036651 
L 228.737409 173.413527 
L 241.242405 164.630164 
L 241.164254 167.237193 
z
" style="fill:#ba0c2f;fill-opacity:0.8;"/>
    <path clip-path="url(#pbfab940241)" d="M 228.671406 176.036651 
L 241.164254 167.237193 
L 264.410204 172.296926 
L 252.072942 181.194784 
z
" style="fill:#74081d;fill-opacity:0.8;"/>
    <path clip-path="url(#pbfab940241)" d="M 228.737409 173.413527 
L 252.16362 178.562306 
L 264.512701 169.680621 
L 241.242405 164.630164 
z
" style="fill:#a30a29;fill-opacity:0.8;"/>
    <path clip-path="url(#pbfab940241)" d="M 252.072942 181.194784 
L 264.410204 172.296926 
L 264.512701 169.680621 
L 252.16362 178.562306 
z
" style="fill:#5d0618;fill-opacity:0.8;"/>
    <path clip-path="url(#pbfab940241)" d="M 228.671406 176.036651 
L 252.072942 181.194784 
L 252.16362 178.562306 
L 228.737409 173.413527 
z
" style="fill:#ba0c2f;fill-opacity:0.8;"/>
   </g>
   <g id="Poly3DCollection_8">
    <path clip-path="url(#pbfab940241)" d="M 253.420558 158.604346 
L 265.446973 150.133424 
L 288.386728 155.004622 
L 276.512585 163.56847 
z
" style="fill:#74081d;fill-opacity:0.8;"/>
    <path clip-path="url(#pbfab940241)" d="M 265.446973 150.133424 
L 267.543034 96.719514 
L 290.974684 101.395814 
L 288.386728 155.004622 
z
" style="fill:#5d0618;fill-opacity:0.8;"/>
    <path clip-path="url(#pbfab940241)" d="M 253.420558 158.604346 
L 255.284077 104.852193 
L 267.543034 96.719514 
L 265.446973 150.133424 
z
" style="fill:#ba0c2f;fill-opacity:0.8;"/>
    <path clip-path="url(#pbfab940241)" d="M 276.512585 163.56847 
L 288.386728 155.004622 
L 290.974684 101.395814 
L 278.874694 109.619589 
z
" style="fill:#5d0618;fill-opacity:0.8;"/>
    <path clip-path="url(#pbfab940241)" d="M 253.420558 158.604346 
L 276.512585 163.56847 
L 278.874694 109.619589 
L 255.284077 104.852193 
z
" style="fill:#ba0c2f;fill-opacity:0.8;"/>
    <path clip-path="url(#pbfab940241)" d="M 255.284077 104.852193 
L 278.874694 109.619589 
L 290.974684 101.395814 
L 267.543034 96.719514 
z
" style="fill:#a30a29;fill-opacity:0.8;"/>
   </g>
   <g id="Poly3DCollection_9">
    <path clip-path="url(#pbfab940241)" d="M 182.641986 165.890913 
L 195.433595 157.283418 
L 218.173444 162.232993 
L 205.529183 170.935676 
z
" style="fill:#74081d;fill-opacity:0.8;"/>
    <path clip-path="url(#pbfab940241)" d="M 195.433595 157.283418 
L 195.921642 116.564813 
L 219.028144 121.366568 
L 218.173444 162.232993 
z
" style="fill:#5d0618;fill-opacity:0.8;"/>
    <path clip-path="url(#pbfab940241)" d="M 182.641986 165.890913 
L 182.929207 124.915784 
L 195.921642 116.564813 
L 195.433595 157.283418 
z
" style="fill:#ba0c2f;fill-opacity:0.8;"/>
    <path clip-path="url(#pbfab940241)" d="M 205.529183 170.935676 
L 218.173444 162.232993 
L 219.028144 121.366568 
L 206.187884 129.81138 
z
" style="fill:#5d0618;fill-opacity:0.8;"/>
    <path clip-path="url(#pbfab940241)" d="M 182.641986 165.890913 
L 205.529183 170.935676 
L 206.187884 129.81138 
L 182.929207 124.915784 
z
" style="fill:#ba0c2f;fill-opacity:0.8;"/>
    <path clip-path="url(#pbfab940241)" d="M 182.929207 124.915784 
L 206.187884 129.81138 
L 219.028144 121.366568 
L 195.921642 116.564813 
z
" style="fill:#a30a29;fill-opacity:0.8;"/>
   </g>
   <g id="Poly3DCollection_10">
    <path clip-path="url(#pbfab940241)" d="M 124.292266 164.548603 
L 123.969437 144.20104 
L 146.678799 149.157769 
L 146.822729 169.578461 
z
" style="fill:#5d0618;fill-opacity:0.8;"/>
    <path clip-path="url(#pbfab940241)" d="M 110.712164 173.296 
L 124.292266 164.548603 
L 146.822729 169.578461 
L 133.384751 178.423383 
z
" style="fill:#74081d;fill-opacity:0.8;"/>
    <path clip-path="url(#pbfab940241)" d="M 110.712164 173.296 
L 110.276841 152.821538 
L 123.969437 144.20104 
L 124.292266 164.548603 
z
" style="fill:#ba0c2f;fill-opacity:0.8;"/>
    <path clip-path="url(#pbfab940241)" d="M 133.384751 178.423383 
L 146.822729 169.578461 
L 146.678799 149.157769 
L 133.13059 157.875152 
z
" style="fill:#5d0618;fill-opacity:0.8;"/>
    <path clip-path="url(#pbfab940241)" d="M 110.276841 152.821538 
L 133.13059 157.875152 
L 146.678799 149.157769 
L 123.969437 144.20104 
z
" style="fill:#a30a29;fill-opacity:0.8;"/>
    <path clip-path="url(#pbfab940241)" d="M 110.712164 173.296 
L 133.384751 178.423383 
L 133.13059 157.875152 
L 110.276841 152.821538 
z
" style="fill:#ba0c2f;fill-opacity:0.8;"/>
   </g>
   <g id="Poly3DCollection_11">
    <path clip-path="url(#pbfab940241)" d="M 169.603869 174.664283 
L 169.573234 190.763642 
L 192.462326 195.96309 
L 192.639892 179.807006 
z
" style="fill:#ba0c2f;fill-opacity:0.8;"/>
    <path clip-path="url(#pbfab940241)" d="M 156.366146 199.806146 
L 179.403624 205.106891 
L 192.462326 195.96309 
L 169.573234 190.763642 
z
" style="fill:#a30a29;fill-opacity:0.8;"/>
    <path clip-path="url(#pbfab940241)" d="M 156.31205 183.608369 
L 156.366146 199.806146 
L 169.573234 190.763642 
L 169.603869 174.664283 
z
" style="fill:#5d0618;fill-opacity:0.8;"/>
    <path clip-path="url(#pbfab940241)" d="M 179.498378 188.851934 
L 192.639892 179.807006 
L 192.462326 195.96309 
L 179.403624 205.106891 
z
" style="fill:#ba0c2f;fill-opacity:0.8;"/>
    <path clip-path="url(#pbfab940241)" d="M 156.31205 183.608369 
L 169.603869 174.664283 
L 192.639892 179.807006 
L 179.498378 188.851934 
z
" style="fill:#74081d;fill-opacity:0.8;"/>
    <path clip-path="url(#pbfab940241)" d="M 156.31205 183.608369 
L 179.498378 188.851934 
L 179.403624 205.106891 
L 156.366146 199.806146 
z
" style="fill:#5d0618;fill-opacity:0.8;"/>
   </g>
   <g id="Poly3DCollection_12">
    <path clip-path="url(#pbfab940241)" d="M 215.9351 185.007592 
L 215.930065 185.256626 
L 239.486498 190.516944 
L 239.493893 190.267022 
z
" style="fill:#ba0c2f;fill-opacity:0.8;"/>
    <path clip-path="url(#pbfab940241)" d="M 202.948149 194.155077 
L 202.944355 194.405652 
L 215.930065 185.256626 
L 215.9351 185.007592 
z
" style="fill:#5d0618;fill-opacity:0.8;"/>
    <path clip-path="url(#pbfab940241)" d="M 202.944355 194.405652 
L 226.659693 199.770289 
L 239.486498 190.516944 
L 215.930065 185.256626 
z
" style="fill:#a30a29;fill-opacity:0.8;"/>
    <path clip-path="url(#pbfab940241)" d="M 202.948149 194.155077 
L 215.9351 185.007592 
L 239.493893 190.267022 
L 226.665879 199.518818 
z
" style="fill:#74081d;fill-opacity:0.8;"/>
    <path clip-path="url(#pbfab940241)" d="M 226.665879 199.518818 
L 239.493893 190.267022 
L 239.486498 190.516944 
L 226.659693 199.770289 
z
" style="fill:#ba0c2f;fill-opacity:0.8;"/>
    <path clip-path="url(#pbfab940241)" d="M 202.948149 194.155077 
L 226.665879 199.518818 
L 226.659693 199.770289 
L 202.944355 194.405652 
z
" style="fill:#5d0618;fill-opacity:0.8;"/>
   </g>
   <g id="Poly3DCollection_13">
    <path clip-path="url(#pbfab940241)" d="M 96.86821 182.213352 
L 96.492741 168.203771 
L 119.433493 173.381157 
L 119.68421 187.441124 
z
" style="fill:#5d0618;fill-opacity:0.8;"/>
    <path clip-path="url(#pbfab940241)" d="M 82.75264 191.305661 
L 82.294642 177.208654 
L 96.492741 168.203771 
L 96.86821 182.213352 
z
" style="fill:#ba0c2f;fill-opacity:0.8;"/>
    <path clip-path="url(#pbfab940241)" d="M 82.75264 191.305661 
L 96.86821 182.213352 
L 119.68421 187.441124 
L 105.713336 196.636799 
z
" style="fill:#74081d;fill-opacity:0.8;"/>
    <path clip-path="url(#pbfab940241)" d="M 82.294642 177.208654 
L 105.381667 182.488986 
L 119.433493 173.381157 
L 96.492741 168.203771 
z
" style="fill:#a30a29;fill-opacity:0.8;"/>
    <path clip-path="url(#pbfab940241)" d="M 105.713336 196.636799 
L 119.68421 187.441124 
L 119.433493 173.381157 
L 105.381667 182.488986 
z
" style="fill:#5d0618;fill-opacity:0.8;"/>
    <path clip-path="url(#pbfab940241)" d="M 82.75264 191.305661 
L 105.713336 196.636799 
L 105.381667 182.488986 
L 82.294642 177.208654 
z
" style="fill:#ba0c2f;fill-opacity:0.8;"/>
   </g>
   <g id="Poly3DCollection_14">
    <path clip-path="url(#pbfab940241)" d="M 142.759052 192.728204 
L 142.750393 191.735574 
L 166.097691 197.079427 
L 166.097165 198.075606 
z
" style="fill:#5d0618;fill-opacity:0.8;"/>
    <path clip-path="url(#pbfab940241)" d="M 128.937099 202.029018 
L 128.922862 201.030231 
L 142.750393 191.735574 
L 142.759052 192.728204 
z
" style="fill:#ba0c2f;fill-opacity:0.8;"/>
    <path clip-path="url(#pbfab940241)" d="M 128.937099 202.029018 
L 142.759052 192.728204 
L 166.097165 198.075606 
L 152.428477 207.483373 
z
" style="fill:#74081d;fill-opacity:0.8;"/>
    <path clip-path="url(#pbfab940241)" d="M 128.922862 201.030231 
L 152.423546 206.481008 
L 166.097691 197.079427 
L 142.750393 191.735574 
z
" style="fill:#a30a29;fill-opacity:0.8;"/>
    <path clip-path="url(#pbfab940241)" d="M 152.428477 207.483373 
L 166.097165 198.075606 
L 166.097691 197.079427 
L 152.423546 206.481008 
z
" style="fill:#5d0618;fill-opacity:0.8;"/>
    <path clip-path="url(#pbfab940241)" d="M 128.937099 202.029018 
L 152.428477 207.483373 
L 152.423546 206.481008 
L 128.922862 201.030231 
z
" style="fill:#ba0c2f;fill-opacity:0.8;"/>
   </g>
   <g id="Poly3DCollection_15">
    <path clip-path="url(#pbfab940241)" d="M 189.703081 203.48437 
L 189.741188 199.644963 
L 213.656467 205.10237 
L 213.581436 208.955556 
z
" style="fill:#5d0618;fill-opacity:0.8;"/>
    <path clip-path="url(#pbfab940241)" d="M 176.192123 213.000944 
L 176.209757 209.137631 
L 189.741188 199.644963 
L 189.703081 203.48437 
z
" style="fill:#ba0c2f;fill-opacity:0.8;"/>
    <path clip-path="url(#pbfab940241)" d="M 176.192123 213.000944 
L 189.703081 203.48437 
L 213.581436 208.955556 
L 200.232796 218.582838 
z
" style="fill:#74081d;fill-opacity:0.8;"/>
    <path clip-path="url(#pbfab940241)" d="M 176.209757 209.137631 
L 200.28786 214.705638 
L 213.656467 205.10237 
L 189.741188 199.644963 
z
" style="fill:#a30a29;fill-opacity:0.8;"/>
    <path clip-path="url(#pbfab940241)" d="M 200.232796 218.582838 
L 213.581436 208.955556 
L 213.656467 205.10237 
L 200.28786 214.705638 
z
" style="fill:#5d0618;fill-opacity:0.8;"/>
    <path clip-path="url(#pbfab940241)" d="M 176.192123 213.000944 
L 200.232796 218.582838 
L 200.28786 214.705638 
L 176.209757 209.137631 
z
" style="fill:#ba0c2f;fill-opacity:0.8;"/>
   </g>
   <g id="Poly3DCollection_16">
    <path clip-path="url(#pbfab940241)" d="M 24.685189 182.152371 
L 203.99787 223.981545 
L 300.559135 153.751487 
L 129.84549 117.655086 
z
" style="fill-opacity:0.15;"/>
   </g>
   <g id="Poly3DCollection_17">
    <path clip-path="url(#pbfab940241)" d="M 37.602773 180.822521 
L 51.995506 171.931783 
L 74.30672 177.043895 
L 60.050568 186.034572 
z
" style="fill:#74081d;fill-opacity:0.8;"/>
    <path clip-path="url(#pbfab940241)" d="M 51.995506 171.931783 
L 46.933544 57.750519 
L 70.222556 62.427839 
L 74.30672 177.043895 
z
" style="fill:#5d0618;fill-opacity:0.8;"/>
    <path clip-path="url(#pbfab940241)" d="M 37.602773 180.822521 
L 31.836896 65.886594 
L 46.933544 57.750519 
L 51.995506 171.931783 
z
" style="fill:#ba0c2f;fill-opacity:0.8;"/>
    <path clip-path="url(#pbfab940241)" d="M 60.050568 186.034572 
L 74.30672 177.043895 
L 70.222556 62.427839 
L 55.274545 70.659531 
z
" style="fill:#5d0618;fill-opacity:0.8;"/>
    <path clip-path="url(#pbfab940241)" d="M 37.602773 180.822521 
L 60.050568 186.034572 
L 55.274545 70.659531 
L 31.836896 65.886594 
z
" style="fill:#ba0c2f;fill-opacity:0.8;"/>
    <path clip-path="url(#pbfab940241)" d="M 31.836896 65.886594 
L 55.274545 70.659531 
L 70.222556 62.427839 
L 46.933544 57.750519 
z
" style="fill:#a30a29;fill-opacity:0.8;"/>
   </g>
  </g>
  <g id="patch_6">
   <path d="M 425.945455 262.8 
L 806.4 262.8 
L 806.4 -14.4 
L 425.945455 -14.4 
z
" style="fill:#ffffff;"/>
  </g>
  <g id="pane3d_4">
   <g id="patch_7">
    <path d="M 476.380584 201.548569 
L 585.268665 133.58541 
L 583.455794 3.718968 
L 468.496488 64.782468 
" style="fill:#f2f2f2;opacity:0.5;stroke:#f2f2f2;stroke-linejoin:miter;"/>
   </g>
  </g>
  <g id="pane3d_5">
   <g id="patch_8">
    <path d="M 585.268665 133.58541 
L 761.65712 171.581202 
L 769.037001 37.79869 
L 583.455794 3.718968 
" style="fill:#e6e6e6;opacity:0.5;stroke:#e6e6e6;stroke-linejoin:miter;"/>
   </g>
  </g>
  <g id="pane3d_6">
   <g id="patch_9">
    <path d="M 476.380584 201.548569 
L 661.965072 245.80086 
L 761.65712 171.581202 
L 585.268665 133.58541 
" style="fill:#ececec;opacity:0.5;stroke:#ececec;stroke-linejoin:miter;"/>
   </g>
  </g>
  <g id="axis3d_4">
   <g id="line2d_15">
    <path d="M 476.380584 201.548569 
L 661.965072 245.80086 
" style="fill:none;stroke:#000000;stroke-linecap:square;stroke-width:0.8;"/>
   </g>
   <g id="Line3DCollection_4">
    <path d="M 498.841271 206.90428 
L 606.679397 138.19749 
L 605.9393 7.847789 
" style="fill:none;stroke:#b0b0b0;stroke-width:0.8;"/>
    <path d="M 544.057792 217.686079 
L 649.729469 147.470895 
L 651.182353 16.156123 
" style="fill:none;stroke:#b0b0b0;stroke-width:0.8;"/>
    <path d="M 590.310744 228.715013 
L 693.693551 156.941187 
L 697.435637 24.649974 
" style="fill:none;stroke:#b0b0b0;stroke-width:0.8;"/>
    <path d="M 637.636176 239.999678 
L 738.601063 166.614702 
L 744.733372 33.335625 
" style="fill:none;stroke:#b0b0b0;stroke-width:0.8;"/>
   </g>
   <g id="xtick_12">
    <g id="line2d_16">
     <path d="M 499.770538 206.312217 
L 496.979262 208.09062 
" style="fill:none;stroke:#000000;stroke-linecap:square;stroke-width:0.8;"/>
    </g>
    <g id="text_12">
     <!-- 00 -->
     <g transform="translate(474.220382 245.619336)rotate(-45)scale(0.22 -0.22)">
      <use transform="scale(0.996264)" xlink:href="#CMR17-48"/>
      <use transform="translate(45.690477 0)scale(0.996264)" xlink:href="#CMR17-48"/>
     </g>
    </g>
   </g>
   <g id="xtick_13">
    <g id="line2d_17">
     <path d="M 544.969128 217.080527 
L 542.231671 218.899473 
" style="fill:none;stroke:#000000;stroke-linecap:square;stroke-width:0.8;"/>
    </g>
    <g id="text_13">
     <!-- 01 -->
     <g transform="translate(519.432807 256.576088)rotate(-45)scale(0.22 -0.22)">
      <use transform="scale(0.996264)" xlink:href="#CMR17-48"/>
      <use transform="translate(45.690477 0)scale(0.996264)" xlink:href="#CMR17-49"/>
     </g>
    </g>
   </g>
   <g id="xtick_14">
    <g id="line2d_18">
     <path d="M 591.20308 228.095506 
L 588.522658 229.956397 
" style="fill:none;stroke:#000000;stroke-linecap:square;stroke-width:0.8;"/>
    </g>
    <g id="text_14">
     <!-- 10 -->
     <g transform="translate(565.68342 267.784434)rotate(-45)scale(0.22 -0.22)">
      <use transform="scale(0.996264)" xlink:href="#CMR17-49"/>
      <use transform="translate(45.690477 0)scale(0.996264)" xlink:href="#CMR17-48"/>
     </g>
    </g>
   </g>
   <g id="xtick_15">
    <g id="line2d_19">
     <path d="M 638.50838 239.365727 
L 635.888391 241.270032 
" style="fill:none;stroke:#000000;stroke-linecap:square;stroke-width:0.8;"/>
    </g>
    <g id="text_15">
     <!-- 11 -->
     <g transform="translate(613.008395 279.25314)rotate(-45)scale(0.22 -0.22)">
      <use transform="scale(0.996264)" xlink:href="#CMR17-49"/>
      <use transform="translate(45.690477 0)scale(0.996264)" xlink:href="#CMR17-49"/>
     </g>
    </g>
   </g>
  </g>
  <g id="axis3d_5">
   <g id="line2d_20">
    <path d="M 761.65712 171.581202 
L 661.965072 245.80086 
" style="fill:none;stroke:#000000;stroke-linecap:square;stroke-width:0.8;"/>
   </g>
   <g id="Line3DCollection_5">
    <path d="M 484.000685 56.547028 
L 491.016499 192.413474 
L 675.403872 235.795817 
" style="fill:none;stroke:#b0b0b0;stroke-width:0.8;"/>
    <path d="M 513.777478 40.730342 
L 519.168861 174.842005 
L 701.219492 216.576366 
" style="fill:none;stroke:#b0b0b0;stroke-width:0.8;"/>
    <path d="M 542.401344 25.526062 
L 546.284836 157.917404 
L 726.04244 198.095948 
" style="fill:none;stroke:#b0b0b0;stroke-width:0.8;"/>
    <path d="M 569.937971 10.899296 
L 572.420618 141.604597 
L 749.928893 180.312741 
" style="fill:none;stroke:#b0b0b0;stroke-width:0.8;"/>
   </g>
   <g id="xtick_16">
    <g id="line2d_21">
     <path d="M 673.861052 235.432825 
L 678.492943 236.522608 
" style="fill:none;stroke:#000000;stroke-linecap:square;stroke-width:0.8;"/>
    </g>
    <g id="text_16">
     <!-- 00 -->
     <g transform="translate(689.789427 248.955025)rotate(-337.5)scale(0.22 -0.22)">
      <use transform="scale(0.996264)" xlink:href="#CMR17-48"/>
      <use transform="translate(45.690477 0)scale(0.996264)" xlink:href="#CMR17-48"/>
     </g>
    </g>
   </g>
   <g id="xtick_17">
    <g id="line2d_22">
     <path d="M 699.697534 216.227463 
L 704.266725 217.274932 
" style="fill:none;stroke:#000000;stroke-linecap:square;stroke-width:0.8;"/>
    </g>
    <g id="text_17">
     <!-- 01 -->
     <g transform="translate(715.342978 229.510599)rotate(-337.5)scale(0.22 -0.22)">
      <use transform="scale(0.996264)" xlink:href="#CMR17-48"/>
      <use transform="translate(45.690477 0)scale(0.996264)" xlink:href="#CMR17-49"/>
     </g>
    </g>
   </g>
   <g id="xtick_18">
    <g id="line2d_23">
     <path d="M 724.540896 197.76033 
L 729.048738 198.767901 
" style="fill:none;stroke:#000000;stroke-linecap:square;stroke-width:0.8;"/>
    </g>
    <g id="text_18">
     <!-- 10 -->
     <g transform="translate(739.91439 210.813511)rotate(-337.5)scale(0.22 -0.22)">
      <use transform="scale(0.996264)" xlink:href="#CMR17-49"/>
      <use transform="translate(45.690477 0)scale(0.996264)" xlink:href="#CMR17-48"/>
     </g>
    </g>
   </g>
   <g id="xtick_19">
    <g id="line2d_24">
     <path d="M 748.44732 179.989663 
L 752.895146 180.959573 
" style="fill:none;stroke:#000000;stroke-linecap:square;stroke-width:0.8;"/>
    </g>
    <g id="text_19">
     <!-- 11 -->
     <g transform="translate(763.559216 192.821489)rotate(-337.5)scale(0.22 -0.22)">
      <use transform="scale(0.996264)" xlink:href="#CMR17-49"/>
      <use transform="translate(45.690477 0)scale(0.996264)" xlink:href="#CMR17-49"/>
     </g>
    </g>
   </g>
  </g>
  <g id="axis3d_6">
   <g id="line2d_25">
    <path d="M 761.65712 171.581202 
L 769.037001 37.79869 
" style="fill:none;stroke:#000000;stroke-linecap:square;stroke-width:0.8;"/>
   </g>
   <g id="Line3DCollection_6">
    <path d="M 763.287151 142.031995 
L 584.867567 104.852453 
L 474.641519 171.380857 
" style="fill:none;stroke:#b0b0b0;stroke-width:0.8;"/>
    <path d="M 765.520647 101.543178 
L 584.318603 65.526971 
L 472.256476 130.007302 
" style="fill:none;stroke:#b0b0b0;stroke-width:0.8;"/>
    <path d="M 767.825539 59.760075 
L 583.752849 24.998714 
L 469.792584 87.265953 
" style="fill:none;stroke:#b0b0b0;stroke-width:0.8;"/>
   </g>
   <g id="xtick_20">
    <g id="line2d_26">
     <path d="M 761.797844 141.721649 
L 766.268894 142.653338 
" style="fill:none;stroke:#000000;stroke-linecap:square;stroke-width:0.8;"/>
    </g>
    <g id="text_20">
     <!-- $0.0$ -->
     <g transform="translate(768.975186 155.349215)scale(0.22 -0.22)">
      <use transform="scale(0.996264)" xlink:href="#CMR17-48"/>
      <use transform="translate(45.690477 0)scale(0.996264)" xlink:href="#CMMI12-58"/>
      <use transform="translate(72.787654 0)scale(0.996264)" xlink:href="#CMR17-48"/>
     </g>
    </g>
   </g>
   <g id="xtick_21">
    <g id="line2d_27">
     <path d="M 764.007125 101.242346 
L 768.550922 102.145484 
" style="fill:none;stroke:#000000;stroke-linecap:square;stroke-width:0.8;"/>
    </g>
    <g id="text_21">
     <!-- $0.2$ -->
     <g transform="translate(771.497679 114.918803)scale(0.22 -0.22)">
      <use transform="scale(0.996264)" xlink:href="#CMR17-48"/>
      <use transform="translate(45.690477 0)scale(0.996264)" xlink:href="#CMMI12-58"/>
      <use transform="translate(72.787654 0)scale(0.996264)" xlink:href="#CMR17-50"/>
     </g>
    </g>
   </g>
   <g id="xtick_22">
    <g id="line2d_28">
     <path d="M 766.287003 59.469528 
L 770.90595 60.341797 
" style="fill:none;stroke:#000000;stroke-linecap:square;stroke-width:0.8;"/>
    </g>
    <g id="text_22">
     <!-- $0.4$ -->
     <g transform="translate(774.100629 73.198835)scale(0.22 -0.22)">
      <use transform="scale(0.996264)" xlink:href="#CMR17-48"/>
      <use transform="translate(45.690477 0)scale(0.996264)" xlink:href="#CMMI12-58"/>
      <use transform="translate(72.787654 0)scale(0.996264)" xlink:href="#CMR17-52"/>
     </g>
    </g>
   </g>
  </g>
  <g id="axes_2">
   <g id="Poly3DCollection_18">
    <path clip-path="url(#p9e61046150)" d="M 576.357018 118.968123 
L 589.272618 111.090839 
L 610.877869 115.621165 
L 598.093207 123.582465 
z
" style="fill:#08745e;fill-opacity:0.8;"/>
    <path clip-path="url(#p9e61046150)" d="M 589.272618 111.090839 
L 588.941321 84.159897 
L 610.769386 88.593258 
L 610.877869 115.621165 
z
" style="fill:#065d4c;fill-opacity:0.8;"/>
    <path clip-path="url(#p9e61046150)" d="M 576.357018 118.968123 
L 575.887855 91.868891 
L 588.941321 84.159897 
L 589.272618 111.090839 
z
" style="fill:#0cba97;fill-opacity:0.8;"/>
    <path clip-path="url(#p9e61046150)" d="M 598.093207 123.582465 
L 610.877869 115.621165 
L 610.769386 88.593258 
L 597.84957 96.385333 
z
" style="fill:#065d4c;fill-opacity:0.8;"/>
    <path clip-path="url(#p9e61046150)" d="M 576.357018 118.968123 
L 598.093207 123.582465 
L 597.84957 96.385333 
L 575.887855 91.868891 
z
" style="fill:#0cba97;fill-opacity:0.8;"/>
    <path clip-path="url(#p9e61046150)" d="M 575.887855 91.868891 
L 597.84957 96.385333 
L 610.769386 88.593258 
L 588.941321 84.159897 
z
" style="fill:#0aa384;fill-opacity:0.8;"/>
   </g>
   <g id="Poly3DCollection_19">
    <path clip-path="url(#p9e61046150)" d="M 632.713099 120.199715 
L 632.712904 120.2441 
L 654.781426 124.871806 
L 654.782001 124.827262 
z
" style="fill:#0cba97;fill-opacity:0.8;"/>
    <path clip-path="url(#p9e61046150)" d="M 620.062921 128.246381 
L 620.062943 128.291041 
L 632.712904 120.2441 
L 632.713099 120.199715 
z
" style="fill:#065d4c;fill-opacity:0.8;"/>
    <path clip-path="url(#p9e61046150)" d="M 620.062943 128.291041 
L 642.269582 133.005495 
L 654.781426 124.871806 
L 632.712904 120.2441 
z
" style="fill:#0aa384;fill-opacity:0.8;"/>
    <path clip-path="url(#p9e61046150)" d="M 620.062921 128.246381 
L 632.713099 120.199715 
L 654.782001 124.827262 
L 642.269946 132.960676 
z
" style="fill:#08745e;fill-opacity:0.8;"/>
    <path clip-path="url(#p9e61046150)" d="M 642.269946 132.960676 
L 654.782001 124.827262 
L 654.781426 124.871806 
L 642.269582 133.005495 
z
" style="fill:#0cba97;fill-opacity:0.8;"/>
    <path clip-path="url(#p9e61046150)" d="M 620.062921 128.246381 
L 642.269946 132.960676 
L 642.269582 133.005495 
L 620.062943 128.291041 
z
" style="fill:#065d4c;fill-opacity:0.8;"/>
   </g>
   <g id="Poly3DCollection_20">
    <path clip-path="url(#p9e61046150)" d="M 563.201423 126.991781 
L 563.195115 126.710778 
L 585.065746 131.410492 
L 585.069701 131.692498 
z
" style="fill:#065d4c;fill-opacity:0.8;"/>
    <path clip-path="url(#p9e61046150)" d="M 549.799081 135.165932 
L 549.791245 134.883189 
L 563.195115 126.710778 
L 563.201423 126.991781 
z
" style="fill:#0cba97;fill-opacity:0.8;"/>
    <path clip-path="url(#p9e61046150)" d="M 549.799081 135.165932 
L 563.201423 126.991781 
L 585.069701 131.692498 
L 571.800596 139.955471 
z
" style="fill:#08745e;fill-opacity:0.8;"/>
    <path clip-path="url(#p9e61046150)" d="M 549.791245 134.883189 
L 571.795141 139.671716 
L 585.065746 131.410492 
L 563.195115 126.710778 
z
" style="fill:#0aa384;fill-opacity:0.8;"/>
    <path clip-path="url(#p9e61046150)" d="M 571.800596 139.955471 
L 585.069701 131.692498 
L 585.065746 131.410492 
L 571.795141 139.671716 
z
" style="fill:#065d4c;fill-opacity:0.8;"/>
    <path clip-path="url(#p9e61046150)" d="M 549.799081 135.165932 
L 571.800596 139.955471 
L 571.795141 139.671716 
L 549.791245 134.883189 
z
" style="fill:#0cba97;fill-opacity:0.8;"/>
   </g>
   <g id="Poly3DCollection_21">
    <path clip-path="url(#p9e61046150)" d="M 677.088346 129.504598 
L 677.235898 122.662728 
L 699.844311 127.366132 
L 699.635986 134.232531 
z
" style="fill:#065d4c;fill-opacity:0.8;"/>
    <path clip-path="url(#p9e61046150)" d="M 664.718147 137.72617 
L 664.834056 130.841733 
L 677.235898 122.662728 
L 677.088346 129.504598 
z
" style="fill:#0cba97;fill-opacity:0.8;"/>
    <path clip-path="url(#p9e61046150)" d="M 664.718147 137.72617 
L 677.088346 129.504598 
L 699.635986 134.232531 
L 687.411473 142.543701 
z
" style="fill:#08745e;fill-opacity:0.8;"/>
    <path clip-path="url(#p9e61046150)" d="M 664.834056 130.841733 
L 687.58895 135.634511 
L 699.844311 127.366132 
L 677.235898 122.662728 
z
" style="fill:#0aa384;fill-opacity:0.8;"/>
    <path clip-path="url(#p9e61046150)" d="M 687.411473 142.543701 
L 699.635986 134.232531 
L 699.844311 127.366132 
L 687.58895 135.634511 
z
" style="fill:#065d4c;fill-opacity:0.8;"/>
    <path clip-path="url(#p9e61046150)" d="M 664.718147 137.72617 
L 687.411473 142.543701 
L 687.58895 135.634511 
L 664.834056 130.841733 
z
" style="fill:#0cba97;fill-opacity:0.8;"/>
   </g>
   <g id="Poly3DCollection_22">
    <path clip-path="url(#p9e61046150)" d="M 607.175131 136.444191 
L 607.227696 146.033325 
L 629.490912 150.870957 
L 629.521591 141.247696 
z
" style="fill:#0cba97;fill-opacity:0.8;"/>
    <path clip-path="url(#p9e61046150)" d="M 594.04297 144.797443 
L 594.145315 154.445799 
L 607.227696 146.033325 
L 607.175131 136.444191 
z
" style="fill:#065d4c;fill-opacity:0.8;"/>
    <path clip-path="url(#p9e61046150)" d="M 594.145315 154.445799 
L 616.548231 159.375499 
L 629.490912 150.870957 
L 607.227696 146.033325 
z
" style="fill:#0aa384;fill-opacity:0.8;"/>
    <path clip-path="url(#p9e61046150)" d="M 594.04297 144.797443 
L 607.175131 136.444191 
L 629.521591 141.247696 
L 616.53018 149.692713 
z
" style="fill:#08745e;fill-opacity:0.8;"/>
    <path clip-path="url(#p9e61046150)" d="M 616.53018 149.692713 
L 629.521591 141.247696 
L 629.490912 150.870957 
L 616.548231 159.375499 
z
" style="fill:#0cba97;fill-opacity:0.8;"/>
    <path clip-path="url(#p9e61046150)" d="M 594.04297 144.797443 
L 616.53018 149.692713 
L 616.548231 159.375499 
L 594.145315 154.445799 
z
" style="fill:#065d4c;fill-opacity:0.8;"/>
   </g>
   <g id="Poly3DCollection_23">
    <path clip-path="url(#p9e61046150)" d="M 722.428857 139.011885 
L 722.428857 139.011885 
L 745.470984 143.843504 
L 745.470984 143.843504 
z
" style="fill:#065d4c;fill-opacity:0.8;"/>
    <path clip-path="url(#p9e61046150)" d="M 710.353963 147.414127 
L 710.353963 147.414127 
L 722.428857 139.011885 
L 722.428857 139.011885 
z
" style="fill:#065d4c;fill-opacity:0.8;"/>
    <path clip-path="url(#p9e61046150)" d="M 710.353963 147.414127 
L 722.428857 139.011885 
L 745.470984 143.843504 
L 733.549742 152.338322 
z
" style="fill:#08745e;fill-opacity:0.8;"/>
    <path clip-path="url(#p9e61046150)" d="M 710.353963 147.414127 
L 733.549742 152.338322 
L 745.470984 143.843504 
L 722.428857 139.011885 
z
" style="fill:#0aa384;fill-opacity:0.8;"/>
    <path clip-path="url(#p9e61046150)" d="M 733.549742 152.338322 
L 745.470984 143.843504 
L 745.470984 143.843504 
L 733.549742 152.338322 
z
" style="fill:#065d4c;fill-opacity:0.8;"/>
    <path clip-path="url(#p9e61046150)" d="M 710.353963 147.414127 
L 733.549742 152.338322 
L 733.549742 152.338322 
L 710.353963 147.414127 
z
" style="fill:#065d4c;fill-opacity:0.8;"/>
   </g>
   <g id="Poly3DCollection_24">
    <path clip-path="url(#p9e61046150)" d="M 652.113046 146.103863 
L 652.113046 146.103863 
L 674.953547 151.013564 
L 674.953547 151.013564 
z
" style="fill:#065d4c;fill-opacity:0.8;"/>
    <path clip-path="url(#p9e61046150)" d="M 639.26629 154.642167 
L 639.26629 154.642167 
L 652.113046 146.103863 
L 652.113046 146.103863 
z
" style="fill:#065d4c;fill-opacity:0.8;"/>
    <path clip-path="url(#p9e61046150)" d="M 639.26629 154.642167 
L 652.113046 146.103863 
L 674.953547 151.013564 
L 662.255457 159.646709 
z
" style="fill:#08745e;fill-opacity:0.8;"/>
    <path clip-path="url(#p9e61046150)" d="M 639.26629 154.642167 
L 662.255457 159.646709 
L 674.953547 151.013564 
L 652.113046 146.103863 
z
" style="fill:#0aa384;fill-opacity:0.8;"/>
    <path clip-path="url(#p9e61046150)" d="M 662.255457 159.646709 
L 674.953547 151.013564 
L 674.953547 151.013564 
L 662.255457 159.646709 
z
" style="fill:#065d4c;fill-opacity:0.8;"/>
    <path clip-path="url(#p9e61046150)" d="M 639.26629 154.642167 
L 662.255457 159.646709 
L 662.255457 159.646709 
L 639.26629 154.642167 
z
" style="fill:#065d4c;fill-opacity:0.8;"/>
   </g>
   <g id="Poly3DCollection_25">
    <path clip-path="url(#p9e61046150)" d="M 536.142983 143.494849 
L 535.856878 134.854271 
L 558.065963 139.704013 
L 558.278878 148.375752 
z
" style="fill:#065d4c;fill-opacity:0.8;"/>
    <path clip-path="url(#p9e61046150)" d="M 522.225855 151.98297 
L 521.889808 143.288317 
L 535.856878 134.854271 
L 536.142983 143.494849 
z
" style="fill:#0cba97;fill-opacity:0.8;"/>
    <path clip-path="url(#p9e61046150)" d="M 522.225855 151.98297 
L 536.142983 143.494849 
L 558.278878 148.375752 
L 544.497263 156.957877 
z
" style="fill:#08745e;fill-opacity:0.8;"/>
    <path clip-path="url(#p9e61046150)" d="M 521.889808 143.288317 
L 544.235297 148.231783 
L 558.065963 139.704013 
L 535.856878 134.854271 
z
" style="fill:#0aa384;fill-opacity:0.8;"/>
    <path clip-path="url(#p9e61046150)" d="M 544.497263 156.957877 
L 558.278878 148.375752 
L 558.065963 139.704013 
L 544.235297 148.231783 
z
" style="fill:#065d4c;fill-opacity:0.8;"/>
    <path clip-path="url(#p9e61046150)" d="M 522.225855 151.98297 
L 544.497263 156.957877 
L 544.235297 148.231783 
L 521.889808 143.288317 
z
" style="fill:#0cba97;fill-opacity:0.8;"/>
   </g>
   <g id="Poly3DCollection_26">
    <path clip-path="url(#p9e61046150)" d="M 580.659421 153.3106 
L 580.659421 153.3106 
L 603.288693 158.300291 
L 603.288693 158.300291 
z
" style="fill:#065d4c;fill-opacity:0.8;"/>
    <path clip-path="url(#p9e61046150)" d="M 567.017197 161.988299 
L 567.017197 161.988299 
L 580.659421 153.3106 
L 580.659421 153.3106 
z
" style="fill:#065d4c;fill-opacity:0.8;"/>
    <path clip-path="url(#p9e61046150)" d="M 567.017197 161.988299 
L 589.78984 167.075169 
L 603.288693 158.300291 
L 580.659421 153.3106 
z
" style="fill:#0aa384;fill-opacity:0.8;"/>
    <path clip-path="url(#p9e61046150)" d="M 567.017197 161.988299 
L 580.659421 153.3106 
L 603.288693 158.300291 
L 589.78984 167.075169 
z
" style="fill:#08745e;fill-opacity:0.8;"/>
    <path clip-path="url(#p9e61046150)" d="M 589.78984 167.075169 
L 603.288693 158.300291 
L 603.288693 158.300291 
L 589.78984 167.075169 
z
" style="fill:#065d4c;fill-opacity:0.8;"/>
    <path clip-path="url(#p9e61046150)" d="M 567.017197 161.988299 
L 589.78984 167.075169 
L 589.78984 167.075169 
L 567.017197 161.988299 
z
" style="fill:#065d4c;fill-opacity:0.8;"/>
   </g>
   <g id="Poly3DCollection_27">
    <path clip-path="url(#p9e61046150)" d="M 698.047234 155.977689 
L 697.839205 162.917334 
L 721.125497 167.961681 
L 721.398341 160.997149 
z
" style="fill:#0cba97;fill-opacity:0.8;"/>
    <path clip-path="url(#p9e61046150)" d="M 685.501928 164.707264 
L 685.326228 171.690095 
L 697.839205 162.917334 
L 698.047234 155.977689 
z
" style="fill:#065d4c;fill-opacity:0.8;"/>
    <path clip-path="url(#p9e61046150)" d="M 685.326228 171.690095 
L 708.768652 176.832711 
L 721.125497 167.961681 
L 697.839205 162.917334 
z
" style="fill:#0aa384;fill-opacity:0.8;"/>
    <path clip-path="url(#p9e61046150)" d="M 685.501928 164.707264 
L 698.047234 155.977689 
L 721.398341 160.997149 
L 709.010048 169.824778 
z
" style="fill:#08745e;fill-opacity:0.8;"/>
    <path clip-path="url(#p9e61046150)" d="M 709.010048 169.824778 
L 721.398341 160.997149 
L 721.125497 167.961681 
L 708.768652 176.832711 
z
" style="fill:#0cba97;fill-opacity:0.8;"/>
    <path clip-path="url(#p9e61046150)" d="M 685.501928 164.707264 
L 709.010048 169.824778 
L 708.768652 176.832711 
L 685.326228 171.690095 
z
" style="fill:#065d4c;fill-opacity:0.8;"/>
   </g>
   <g id="Poly3DCollection_28">
    <path clip-path="url(#p9e61046150)" d="M 508.04014 160.634904 
L 508.04014 160.634904 
L 530.448187 165.706556 
L 530.448187 165.706556 
z
" style="fill:#065d4c;fill-opacity:0.8;"/>
    <path clip-path="url(#p9e61046150)" d="M 493.577986 169.455438 
L 493.577986 169.455438 
L 508.04014 160.634904 
L 508.04014 160.634904 
z
" style="fill:#065d4c;fill-opacity:0.8;"/>
    <path clip-path="url(#p9e61046150)" d="M 493.577986 169.455438 
L 516.123786 174.626686 
L 530.448187 165.706556 
L 508.04014 160.634904 
z
" style="fill:#0aa384;fill-opacity:0.8;"/>
    <path clip-path="url(#p9e61046150)" d="M 493.577986 169.455438 
L 508.04014 160.634904 
L 530.448187 165.706556 
L 516.123786 174.626686 
z
" style="fill:#08745e;fill-opacity:0.8;"/>
    <path clip-path="url(#p9e61046150)" d="M 516.123786 174.626686 
L 530.448187 165.706556 
L 530.448187 165.706556 
L 516.123786 174.626686 
z
" style="fill:#065d4c;fill-opacity:0.8;"/>
    <path clip-path="url(#p9e61046150)" d="M 493.577986 169.455438 
L 516.123786 174.626686 
L 516.123786 174.626686 
L 493.577986 169.455438 
z
" style="fill:#065d4c;fill-opacity:0.8;"/>
   </g>
   <g id="Poly3DCollection_29">
    <path clip-path="url(#p9e61046150)" d="M 626.170861 163.345746 
L 626.189611 153.492517 
L 649.418877 158.558899 
L 649.310191 168.447904 
z
" style="fill:#065d4c;fill-opacity:0.8;"/>
    <path clip-path="url(#p9e61046150)" d="M 612.819469 172.219445 
L 612.786355 162.304137 
L 626.189611 153.492517 
L 626.170861 163.345746 
z
" style="fill:#0cba97;fill-opacity:0.8;"/>
    <path clip-path="url(#p9e61046150)" d="M 612.819469 172.219445 
L 626.170861 163.345746 
L 649.310191 168.447904 
L 636.11046 177.422102 
z
" style="fill:#08745e;fill-opacity:0.8;"/>
    <path clip-path="url(#p9e61046150)" d="M 612.786355 162.304137 
L 636.16847 167.470707 
L 649.418877 158.558899 
L 626.189611 153.492517 
z
" style="fill:#0aa384;fill-opacity:0.8;"/>
    <path clip-path="url(#p9e61046150)" d="M 636.11046 177.422102 
L 649.310191 168.447904 
L 649.418877 158.558899 
L 636.16847 167.470707 
z
" style="fill:#065d4c;fill-opacity:0.8;"/>
    <path clip-path="url(#p9e61046150)" d="M 612.819469 172.219445 
L 636.11046 177.422102 
L 636.16847 167.470707 
L 612.786355 162.304137 
z
" style="fill:#0cba97;fill-opacity:0.8;"/>
   </g>
   <g id="Poly3DCollection_30">
    <path clip-path="url(#p9e61046150)" d="M 553.108724 170.835355 
L 553.343291 179.587554 
L 576.182674 184.805949 
L 576.026044 176.022272 
z
" style="fill:#0cba97;fill-opacity:0.8;"/>
    <path clip-path="url(#p9e61046150)" d="M 538.926131 179.856777 
L 539.212257 188.663594 
L 553.343291 179.587554 
L 553.108724 170.835355 
z
" style="fill:#065d4c;fill-opacity:0.8;"/>
    <path clip-path="url(#p9e61046150)" d="M 539.212257 188.663594 
L 562.196631 193.985278 
L 576.182674 184.805949 
L 553.343291 179.587554 
z
" style="fill:#0aa384;fill-opacity:0.8;"/>
    <path clip-path="url(#p9e61046150)" d="M 538.926131 179.856777 
L 553.108724 170.835355 
L 576.026044 176.022272 
L 561.989427 185.146721 
z
" style="fill:#08745e;fill-opacity:0.8;"/>
    <path clip-path="url(#p9e61046150)" d="M 561.989427 185.146721 
L 576.026044 176.022272 
L 576.182674 184.805949 
L 562.196631 193.985278 
z
" style="fill:#0cba97;fill-opacity:0.8;"/>
    <path clip-path="url(#p9e61046150)" d="M 538.926131 179.856777 
L 561.989427 185.146721 
L 562.196631 193.985278 
L 539.212257 188.663594 
z
" style="fill:#065d4c;fill-opacity:0.8;"/>
   </g>
   <g id="Poly3DCollection_31">
    <path clip-path="url(#p9e61046150)" d="M 672.71104 173.607726 
L 672.711973 173.561567 
L 696.379239 178.77987 
L 696.377868 178.826196 
z
" style="fill:#065d4c;fill-opacity:0.8;"/>
    <path clip-path="url(#p9e61046150)" d="M 659.667288 182.684141 
L 659.667991 182.637693 
L 672.711973 173.561567 
L 672.71104 173.607726 
z
" style="fill:#0cba97;fill-opacity:0.8;"/>
    <path clip-path="url(#p9e61046150)" d="M 659.667288 182.684141 
L 672.71104 173.607726 
L 696.377868 178.826196 
L 683.494529 188.006584 
z
" style="fill:#08745e;fill-opacity:0.8;"/>
    <path clip-path="url(#p9e61046150)" d="M 659.667991 182.637693 
L 683.495676 187.959968 
L 696.379239 178.77987 
L 672.711973 173.561567 
z
" style="fill:#0aa384;fill-opacity:0.8;"/>
    <path clip-path="url(#p9e61046150)" d="M 683.494529 188.006584 
L 696.377868 178.826196 
L 696.379239 178.77987 
L 683.495676 187.959968 
z
" style="fill:#065d4c;fill-opacity:0.8;"/>
    <path clip-path="url(#p9e61046150)" d="M 659.667288 182.684141 
L 683.494529 188.006584 
L 683.495676 187.959968 
L 659.667991 182.637693 
z
" style="fill:#0cba97;fill-opacity:0.8;"/>
   </g>
   <g id="Poly3DCollection_32">
    <path clip-path="url(#p9e61046150)" d="M 599.204535 181.268301 
L 599.207084 181.560479 
L 622.648534 186.867694 
L 622.648689 186.574457 
z
" style="fill:#0cba97;fill-opacity:0.8;"/>
    <path clip-path="url(#p9e61046150)" d="M 585.318178 190.497552 
L 585.322369 190.791567 
L 599.207084 181.560479 
L 599.204535 181.268301 
z
" style="fill:#065d4c;fill-opacity:0.8;"/>
    <path clip-path="url(#p9e61046150)" d="M 585.322369 190.791567 
L 608.918446 196.205409 
L 622.648534 186.867694 
L 599.207084 181.560479 
z
" style="fill:#0aa384;fill-opacity:0.8;"/>
    <path clip-path="url(#p9e61046150)" d="M 585.318178 190.497552 
L 599.204535 181.268301 
L 622.648689 186.574457 
L 608.916995 195.910326 
z
" style="fill:#08745e;fill-opacity:0.8;"/>
    <path clip-path="url(#p9e61046150)" d="M 608.916995 195.910326 
L 622.648689 186.574457 
L 622.648534 186.867694 
L 608.918446 196.205409 
z
" style="fill:#0cba97;fill-opacity:0.8;"/>
    <path clip-path="url(#p9e61046150)" d="M 585.318178 190.497552 
L 608.916995 195.910326 
L 608.918446 196.205409 
L 585.322369 190.791567 
z
" style="fill:#065d4c;fill-opacity:0.8;"/>
   </g>
   <g id="Poly3DCollection_33">
    <path clip-path="url(#p9e61046150)" d="M 632.662203 229.514298 
L 656.542897 235.154762 
L 669.806167 225.42619 
L 646.085638 219.896865 
z
" style="fill:#0aa384;fill-opacity:0.8;"/>
    <path clip-path="url(#p9e61046150)" d="M 646.363098 191.941781 
L 646.085638 219.896865 
L 669.806167 225.42619 
L 670.352464 197.371336 
z
" style="fill:#0cba97;fill-opacity:0.8;"/>
    <path clip-path="url(#p9e61046150)" d="M 632.790593 201.386127 
L 632.662203 229.514298 
L 646.085638 219.896865 
L 646.363098 191.941781 
z
" style="fill:#065d4c;fill-opacity:0.8;"/>
    <path clip-path="url(#p9e61046150)" d="M 656.9438 206.92606 
L 670.352464 197.371336 
L 669.806167 225.42619 
L 656.542897 235.154762 
z
" style="fill:#0cba97;fill-opacity:0.8;"/>
    <path clip-path="url(#p9e61046150)" d="M 632.790593 201.386127 
L 656.9438 206.92606 
L 656.542897 235.154762 
L 632.662203 229.514298 
z
" style="fill:#065d4c;fill-opacity:0.8;"/>
    <path clip-path="url(#p9e61046150)" d="M 632.790593 201.386127 
L 646.363098 191.941781 
L 670.352464 197.371336 
L 656.9438 206.92606 
z
" style="fill:#08745e;fill-opacity:0.8;"/>
   </g>
   <g id="Poly3DCollection_34">
    <path clip-path="url(#p9e61046150)" d="M 480.60157 170.774852 
L 660.727481 212.284469 
L 757.695617 142.60053 
L 586.245075 106.803265 
z
" style="fill-opacity:0.2;"/>
   </g>
  </g>
 </g>
 <defs>
  <clipPath id="pbfab940241">
   <rect height="277.2" width="380.454545" x="-30.6" y="-14.4"/>
  </clipPath>
  <clipPath id="p9e61046150">
   <rect height="277.2" width="380.454545" x="425.945455" y="-14.4"/>
  </clipPath>
 </defs>
</svg>
