<?xml version="1.0" encoding="utf-8" standalone="no"?>
<!DOCTYPE svg PUBLIC "-//W3C//DTD SVG 1.1//EN"
  "http://www.w3.org/Graphics/SVG/1.1/DTD/svg11.dtd">
<!-- Created with matplotlib (https://matplotlib.org/) -->
<svg height="302.4pt" version="1.1" viewBox="0 0 820.8 302.4" width="820.8pt" xmlns="http://www.w3.org/2000/svg" xmlns:xlink="http://www.w3.org/1999/xlink">
 <defs>
  <style type="text/css">
*{stroke-linecap:butt;stroke-linejoin:round;}
  </style>
 </defs>
 <g id="figure_1">
  <g id="patch_1">
   <path d="M 0 302.4 
L 820.8 302.4 
L 820.8 0 
L 0 0 
z
" style="fill:#ffffff;"/>
  </g>
  <g id="patch_2">
   <path d="M -30.6 262.8 
L 349.854545 262.8 
L 349.854545 -14.4 
L -30.6 -14.4 
z
" style="fill:#ffffff;"/>
  </g>
  <g id="pane3d_1">
   <g id="patch_3">
    <path d="M 19.835129 201.548569 
L 128.723211 133.58541 
L 126.910339 3.718968 
L 11.951034 64.782468 
" style="fill:#f2f2f2;opacity:0.5;stroke:#f2f2f2;stroke-linejoin:miter;"/>
   </g>
  </g>
  <g id="pane3d_2">
   <g id="patch_4">
    <path d="M 128.723211 133.58541 
L 305.111665 171.581202 
L 312.491547 37.79869 
L 126.910339 3.718968 
" style="fill:#e6e6e6;opacity:0.5;stroke:#e6e6e6;stroke-linejoin:miter;"/>
   </g>
  </g>
  <g id="pane3d_3">
   <g id="patch_5">
    <path d="M 19.835129 201.548569 
L 205.419617 245.80086 
L 305.111665 171.581202 
L 128.723211 133.58541 
" style="fill:#ececec;opacity:0.5;stroke:#ececec;stroke-linejoin:miter;"/>
   </g>
  </g>
  <g id="axis3d_1">
   <g id="line2d_1">
    <path d="M 19.835129 201.548569 
L 205.419617 245.80086 
" style="fill:none;stroke:#000000;stroke-linecap:square;stroke-width:0.8;"/>
   </g>
   <g id="Line3DCollection_1">
    <path d="M 42.295817 206.90428 
L 150.133942 138.19749 
L 149.393845 7.847789 
" style="fill:none;stroke:#b0b0b0;stroke-width:0.8;"/>
    <path d="M 87.512337 217.686079 
L 193.184014 147.470895 
L 194.636898 16.156123 
" style="fill:none;stroke:#b0b0b0;stroke-width:0.8;"/>
    <path d="M 133.765289 228.715013 
L 237.148096 156.941187 
L 240.890183 24.649974 
" style="fill:none;stroke:#b0b0b0;stroke-width:0.8;"/>
    <path d="M 181.090721 239.999678 
L 282.055608 166.614702 
L 288.187917 33.335625 
" style="fill:none;stroke:#b0b0b0;stroke-width:0.8;"/>
   </g>
   <g id="xtick_1">
    <g id="line2d_2">
     <path d="M 43.225084 206.312217 
L 40.433807 208.09062 
" style="fill:none;stroke:#000000;stroke-linecap:square;stroke-width:0.8;"/>
    </g>
    <g id="text_1">
     <!-- 00 -->
     <defs>
      <path d="M 42 31.84375 
C 42 37.96875 41.90625 48.421875 37.703125 56.453125 
C 34 63.484375 28.09375 66 22.90625 66 
C 18.09375 66 12 63.78125 8.203125 56.5625 
C 4.203125 49.015625 3.796875 39.671875 3.796875 31.84375 
C 3.796875 26.109375 3.90625 17.375 7 9.734375 
C 11.296875 -0.609375 19 -2 22.90625 -2 
C 27.5 -2 34.5 -0.109375 38.59375 9.4375 
C 41.59375 16.375 42 24.5 42 31.84375 
z
M 22.90625 -0.40625 
C 16.5 -0.40625 12.703125 5.125 11.296875 12.75 
C 10.203125 18.6875 10.203125 27.328125 10.203125 32.953125 
C 10.203125 40.6875 10.203125 47.109375 11.5 53.234375 
C 13.40625 61.78125 19 64.390625 22.90625 64.390625 
C 27 64.390625 32.296875 61.671875 34.203125 53.4375 
C 35.5 47.71875 35.59375 40.984375 35.59375 32.953125 
C 35.59375 26.421875 35.59375 18.375 34.40625 12.453125 
C 32.296875 1.5 26.40625 -0.40625 22.90625 -0.40625 
z
" id="CMR17-48"/>
     </defs>
     <g transform="translate(17.674928 245.619336)rotate(-45)scale(0.22 -0.22)">
      <use transform="scale(0.996264)" xlink:href="#CMR17-48"/>
      <use transform="translate(45.690477 0)scale(0.996264)" xlink:href="#CMR17-48"/>
     </g>
    </g>
   </g>
   <g id="xtick_2">
    <g id="line2d_3">
     <path d="M 88.423674 217.080527 
L 85.686217 218.899473 
" style="fill:none;stroke:#000000;stroke-linecap:square;stroke-width:0.8;"/>
    </g>
    <g id="text_2">
     <!-- 01 -->
     <defs>
      <path d="M 26.59375 63.796875 
C 26.59375 65.890625 26.5 66 25.09375 66 
C 21.203125 61.359375 15.296875 59.890625 9.703125 59.6875 
C 9.40625 59.6875 8.90625 59.6875 8.796875 59.5 
C 8.703125 59.296875 8.703125 59.09375 8.703125 57 
C 11.796875 57 17 57.59375 21 59.984375 
L 21 7.296875 
C 21 3.796875 20.796875 2.59375 12.203125 2.59375 
L 9.203125 2.59375 
L 9.203125 0 
C 14 0.09375 19 0.1875 23.796875 0.1875 
C 28.59375 0.1875 33.59375 0.09375 38.40625 0 
L 38.40625 2.59375 
L 35.40625 2.59375 
C 26.796875 2.59375 26.59375 3.6875 26.59375 7.296875 
z
" id="CMR17-49"/>
     </defs>
     <g transform="translate(62.887353 256.576088)rotate(-45)scale(0.22 -0.22)">
      <use transform="scale(0.996264)" xlink:href="#CMR17-48"/>
      <use transform="translate(45.690477 0)scale(0.996264)" xlink:href="#CMR17-49"/>
     </g>
    </g>
   </g>
   <g id="xtick_3">
    <g id="line2d_4">
     <path d="M 134.657625 228.095506 
L 131.977203 229.956397 
" style="fill:none;stroke:#000000;stroke-linecap:square;stroke-width:0.8;"/>
    </g>
    <g id="text_3">
     <!-- 10 -->
     <g transform="translate(109.137966 267.784434)rotate(-45)scale(0.22 -0.22)">
      <use transform="scale(0.996264)" xlink:href="#CMR17-49"/>
      <use transform="translate(45.690477 0)scale(0.996264)" xlink:href="#CMR17-48"/>
     </g>
    </g>
   </g>
   <g id="xtick_4">
    <g id="line2d_5">
     <path d="M 181.962926 239.365727 
L 179.342936 241.270032 
" style="fill:none;stroke:#000000;stroke-linecap:square;stroke-width:0.8;"/>
    </g>
    <g id="text_4">
     <!-- 11 -->
     <g transform="translate(156.462941 279.25314)rotate(-45)scale(0.22 -0.22)">
      <use transform="scale(0.996264)" xlink:href="#CMR17-49"/>
      <use transform="translate(45.690477 0)scale(0.996264)" xlink:href="#CMR17-49"/>
     </g>
    </g>
   </g>
  </g>
  <g id="axis3d_2">
   <g id="line2d_6">
    <path d="M 305.111665 171.581202 
L 205.419617 245.80086 
" style="fill:none;stroke:#000000;stroke-linecap:square;stroke-width:0.8;"/>
   </g>
   <g id="Line3DCollection_2">
    <path d="M 27.455231 56.547028 
L 34.471044 192.413474 
L 218.858418 235.795817 
" style="fill:none;stroke:#b0b0b0;stroke-width:0.8;"/>
    <path d="M 57.232024 40.730342 
L 62.623407 174.842005 
L 244.674037 216.576366 
" style="fill:none;stroke:#b0b0b0;stroke-width:0.8;"/>
    <path d="M 85.85589 25.526062 
L 89.739382 157.917404 
L 269.496985 198.095948 
" style="fill:none;stroke:#b0b0b0;stroke-width:0.8;"/>
    <path d="M 113.392516 10.899296 
L 115.875164 141.604597 
L 293.383438 180.312741 
" style="fill:none;stroke:#b0b0b0;stroke-width:0.8;"/>
   </g>
   <g id="xtick_5">
    <g id="line2d_7">
     <path d="M 217.315598 235.432825 
L 221.947489 236.522608 
" style="fill:none;stroke:#000000;stroke-linecap:square;stroke-width:0.8;"/>
    </g>
    <g id="text_5">
     <!-- 00 -->
     <g transform="translate(233.243972 248.955025)rotate(-337.5)scale(0.22 -0.22)">
      <use transform="scale(0.996264)" xlink:href="#CMR17-48"/>
      <use transform="translate(45.690477 0)scale(0.996264)" xlink:href="#CMR17-48"/>
     </g>
    </g>
   </g>
   <g id="xtick_6">
    <g id="line2d_8">
     <path d="M 243.15208 216.227463 
L 247.72127 217.274932 
" style="fill:none;stroke:#000000;stroke-linecap:square;stroke-width:0.8;"/>
    </g>
    <g id="text_6">
     <!-- 01 -->
     <g transform="translate(258.797524 229.510599)rotate(-337.5)scale(0.22 -0.22)">
      <use transform="scale(0.996264)" xlink:href="#CMR17-48"/>
      <use transform="translate(45.690477 0)scale(0.996264)" xlink:href="#CMR17-49"/>
     </g>
    </g>
   </g>
   <g id="xtick_7">
    <g id="line2d_9">
     <path d="M 267.995442 197.76033 
L 272.503283 198.767901 
" style="fill:none;stroke:#000000;stroke-linecap:square;stroke-width:0.8;"/>
    </g>
    <g id="text_7">
     <!-- 10 -->
     <g transform="translate(283.368935 210.813511)rotate(-337.5)scale(0.22 -0.22)">
      <use transform="scale(0.996264)" xlink:href="#CMR17-49"/>
      <use transform="translate(45.690477 0)scale(0.996264)" xlink:href="#CMR17-48"/>
     </g>
    </g>
   </g>
   <g id="xtick_8">
    <g id="line2d_10">
     <path d="M 291.901865 179.989663 
L 296.349691 180.959573 
" style="fill:none;stroke:#000000;stroke-linecap:square;stroke-width:0.8;"/>
    </g>
    <g id="text_8">
     <!-- 11 -->
     <g transform="translate(307.013762 192.821489)rotate(-337.5)scale(0.22 -0.22)">
      <use transform="scale(0.996264)" xlink:href="#CMR17-49"/>
      <use transform="translate(45.690477 0)scale(0.996264)" xlink:href="#CMR17-49"/>
     </g>
    </g>
   </g>
  </g>
  <g id="axis3d_3">
   <g id="line2d_11">
    <path d="M 305.111665 171.581202 
L 312.491547 37.79869 
" style="fill:none;stroke:#000000;stroke-linecap:square;stroke-width:0.8;"/>
   </g>
   <g id="Line3DCollection_3">
    <path d="M 306.717522 142.470223 
L 128.328058 105.278374 
L 18.121865 171.828426 
" style="fill:none;stroke:#b0b0b0;stroke-width:0.8;"/>
    <path d="M 308.2684 114.355909 
L 127.94679 77.965954 
L 16.466039 143.104671 
" style="fill:none;stroke:#b0b0b0;stroke-width:0.8;"/>
    <path d="M 309.85354 85.620477 
L 127.55746 50.075965 
L 14.772394 113.724854 
" style="fill:none;stroke:#b0b0b0;stroke-width:0.8;"/>
    <path d="M 311.474092 56.243115 
L 127.159809 21.589891 
L 13.039618 83.666238 
" style="fill:none;stroke:#b0b0b0;stroke-width:0.8;"/>
   </g>
   <g id="xtick_9">
    <g id="line2d_12">
     <path d="M 305.228478 142.159777 
L 309.698741 143.091768 
" style="fill:none;stroke:#000000;stroke-linecap:square;stroke-width:0.8;"/>
    </g>
    <g id="text_9">
     <!-- $0.1$ -->
     <defs>
      <path d="M 18.40625 4.796875 
C 18.40625 7.6875 16 9.6875 13.59375 9.6875 
C 10.703125 9.6875 8.703125 7.296875 8.703125 4.890625 
C 8.703125 2 11.09375 0 13.5 0 
C 16.40625 0 18.40625 2.390625 18.40625 4.796875 
z
" id="CMMI12-58"/>
     </defs>
     <g transform="translate(312.402428 155.786826)scale(0.22 -0.22)">
      <use transform="scale(0.996264)" xlink:href="#CMR17-48"/>
      <use transform="translate(45.690477 0)scale(0.996264)" xlink:href="#CMMI12-58"/>
      <use transform="translate(72.787654 0)scale(0.996264)" xlink:href="#CMR17-49"/>
     </g>
    </g>
   </g>
   <g id="xtick_10">
    <g id="line2d_13">
     <path d="M 306.762544 114.052018 
L 311.283312 114.964336 
" style="fill:none;stroke:#000000;stroke-linecap:square;stroke-width:0.8;"/>
    </g>
    <g id="text_10">
     <!-- $0.2$ -->
     <defs>
      <path d="M 41.703125 15.46875 
L 39.90625 15.46875 
C 38.90625 8.390625 38.09375 7.1875 37.703125 6.59375 
C 37.203125 5.796875 30 5.796875 28.59375 5.796875 
L 9.40625 5.796875 
C 13 9.6875 20 16.765625 28.5 24.9375 
C 34.59375 30.71875 41.703125 37.5 41.703125 47.390625 
C 41.703125 59.1875 32.296875 66 21.796875 66 
C 10.796875 66 4.09375 56.296875 4.09375 47.296875 
C 4.09375 43.390625 7 42.890625 8.203125 42.890625 
C 9.203125 42.890625 12.203125 43.484375 12.203125 46.984375 
C 12.203125 50.09375 9.59375 51 8.203125 51 
C 7.59375 51 7 50.890625 6.59375 50.6875 
C 8.5 59.1875 14.296875 63.390625 20.40625 63.390625 
C 29.09375 63.390625 34.796875 56.5 34.796875 47.390625 
C 34.796875 38.703125 29.703125 31.21875 24 24.734375 
L 4.09375 2.296875 
L 4.09375 0 
L 39.296875 0 
z
" id="CMR17-50"/>
     </defs>
     <g transform="translate(314.153997 127.712756)scale(0.22 -0.22)">
      <use transform="scale(0.996264)" xlink:href="#CMR17-48"/>
      <use transform="translate(45.690477 0)scale(0.996264)" xlink:href="#CMMI12-58"/>
      <use transform="translate(72.787654 0)scale(0.996264)" xlink:href="#CMR17-50"/>
     </g>
    </g>
   </g>
   <g id="xtick_11">
    <g id="line2d_14">
     <path d="M 308.330489 85.323509 
L 312.902915 86.215051 
" style="fill:none;stroke:#000000;stroke-linecap:square;stroke-width:0.8;"/>
    </g>
    <g id="text_11">
     <!-- $0.3$ -->
     <defs>
      <path d="M 22.09375 34 
C 31 34 34.90625 26.140625 34.90625 17.09375 
C 34.90625 5.03125 28.5 0.390625 22.703125 0.390625 
C 17.40625 0.390625 8.796875 3.015625 6.09375 10.796875 
C 6.59375 10.59375 7.09375 10.59375 7.59375 10.59375 
C 10 10.59375 11.796875 12.1875 11.796875 14.796875 
C 11.796875 17.6875 9.59375 19 7.59375 19 
C 5.90625 19 3.296875 18.1875 3.296875 14.484375 
C 3.296875 5.234375 12.296875 -2 22.90625 -2 
C 34 -2 42.5 6.75 42.5 16.984375 
C 42.5 26.84375 34.5 34 25 35.09375 
C 32.59375 36.671875 39.90625 43.375 39.90625 52.390625 
C 39.90625 60.25 32 66 23 66 
C 13.90625 66 5.90625 60.34375 5.90625 52.296875 
C 5.90625 48.796875 8.5 48.1875 9.796875 48.1875 
C 11.90625 48.1875 13.703125 49.484375 13.703125 52.09375 
C 13.703125 54.6875 11.90625 56 9.796875 56 
C 9.40625 56 8.90625 56 8.5 55.796875 
C 11.40625 62.484375 19.296875 63.6875 22.796875 63.6875 
C 26.296875 63.6875 32.90625 61.96875 32.90625 52.296875 
C 32.90625 49.484375 32.5 44.546875 29.09375 40.21875 
C 26.09375 36.390625 22.703125 36.1875 19.40625 35.890625 
C 18.90625 35.890625 16.59375 35.6875 16.203125 35.6875 
C 15.5 35.59375 15.09375 35.5 15.09375 34.796875 
C 15.09375 34.09375 15.203125 34 17.203125 34 
z
" id="CMR17-51"/>
     </defs>
     <g transform="translate(315.944178 99.019819)scale(0.22 -0.22)">
      <use transform="scale(0.996264)" xlink:href="#CMR17-48"/>
      <use transform="translate(45.690477 0)scale(0.996264)" xlink:href="#CMMI12-58"/>
      <use transform="translate(72.787654 0)scale(0.996264)" xlink:href="#CMR17-51"/>
     </g>
    </g>
   </g>
   <g id="xtick_12">
    <g id="line2d_15">
     <path d="M 309.933449 55.953456 
L 314.558725 56.823062 
" style="fill:none;stroke:#000000;stroke-linecap:square;stroke-width:0.8;"/>
    </g>
    <g id="text_12">
     <!-- $0.4$ -->
     <defs>
      <path d="M 33.59375 64.796875 
C 33.59375 66.890625 33.5 67 31.703125 67 
L 2 19.59375 
L 2 17 
L 27.796875 17 
L 27.796875 7.1875 
C 27.796875 3.59375 27.59375 2.59375 20.59375 2.59375 
L 18.703125 2.59375 
L 18.703125 0 
C 21.90625 0.1875 27.296875 0.1875 30.703125 0.1875 
C 34.09375 0.1875 39.5 0.1875 42.703125 0 
L 42.703125 2.59375 
L 40.796875 2.59375 
C 33.796875 2.59375 33.59375 3.59375 33.59375 7.1875 
L 33.59375 17 
L 43.796875 17 
L 43.796875 19.59375 
L 33.59375 19.59375 
z
M 28.09375 58.171875 
L 28.09375 19.59375 
L 4 19.59375 
z
" id="CMR17-52"/>
     </defs>
     <g transform="translate(317.774261 69.687322)scale(0.22 -0.22)">
      <use transform="scale(0.996264)" xlink:href="#CMR17-48"/>
      <use transform="translate(45.690477 0)scale(0.996264)" xlink:href="#CMMI12-58"/>
      <use transform="translate(72.787654 0)scale(0.996264)" xlink:href="#CMR17-52"/>
     </g>
    </g>
   </g>
  </g>
  <g id="axes_1">
   <g id="Poly3DCollection_1">
    <path clip-path="url(#p87821e93a1)" d="M 176.046862 147.701445 
L 176.058837 144.974703 
L 197.915392 149.689139 
L 197.880048 152.425288 
z
" style="fill:#5d0618;fill-opacity:0.8;"/>
    <path clip-path="url(#p87821e93a1)" d="M 163.530845 155.915213 
L 163.529519 153.172147 
L 176.058837 144.974703 
L 176.046862 147.701445 
z
" style="fill:#ba0c2f;fill-opacity:0.8;"/>
    <path clip-path="url(#p87821e93a1)" d="M 163.530845 155.915213 
L 176.046862 147.701445 
L 197.880048 152.425288 
L 185.499205 160.726655 
z
" style="fill:#74081d;fill-opacity:0.8;"/>
    <path clip-path="url(#p87821e93a1)" d="M 163.529519 153.172147 
L 185.521538 157.974101 
L 197.915392 149.689139 
L 176.058837 144.974703 
z
" style="fill:#a30a29;fill-opacity:0.8;"/>
    <path clip-path="url(#p87821e93a1)" d="M 185.499205 160.726655 
L 197.880048 152.425288 
L 197.915392 149.689139 
L 185.521538 157.974101 
z
" style="fill:#5d0618;fill-opacity:0.8;"/>
    <path clip-path="url(#p87821e93a1)" d="M 163.530845 155.915213 
L 185.499205 160.726655 
L 185.521538 157.974101 
L 163.529519 153.172147 
z
" style="fill:#ba0c2f;fill-opacity:0.8;"/>
   </g>
   <g id="Poly3DCollection_2">
    <path clip-path="url(#p87821e93a1)" d="M 107.276504 154.634666 
L 107.206684 151.524406 
L 128.869558 156.311382 
L 128.913334 159.432398 
z
" style="fill:#5d0618;fill-opacity:0.8;"/>
    <path clip-path="url(#p87821e93a1)" d="M 94.024359 162.977164 
L 93.937647 159.848241 
L 107.206684 151.524406 
L 107.276504 154.634666 
z
" style="fill:#ba0c2f;fill-opacity:0.8;"/>
    <path clip-path="url(#p87821e93a1)" d="M 94.024359 162.977164 
L 107.276504 154.634666 
L 128.913334 159.432398 
L 115.791632 167.864568 
z
" style="fill:#74081d;fill-opacity:0.8;"/>
    <path clip-path="url(#p87821e93a1)" d="M 93.937647 159.848241 
L 115.731277 164.724798 
L 128.869558 156.311382 
L 107.206684 151.524406 
z
" style="fill:#a30a29;fill-opacity:0.8;"/>
    <path clip-path="url(#p87821e93a1)" d="M 115.791632 167.864568 
L 128.913334 159.432398 
L 128.869558 156.311382 
L 115.731277 164.724798 
z
" style="fill:#5d0618;fill-opacity:0.8;"/>
    <path clip-path="url(#p87821e93a1)" d="M 94.024359 162.977164 
L 115.791632 167.864568 
L 115.731277 164.724798 
L 93.937647 159.848241 
z
" style="fill:#ba0c2f;fill-opacity:0.8;"/>
   </g>
   <g id="Poly3DCollection_3">
    <path clip-path="url(#p87821e93a1)" d="M 219.945625 157.199412 
L 219.965857 156.261297 
L 242.275884 161.083265 
L 242.247323 162.024623 
z
" style="fill:#5d0618;fill-opacity:0.8;"/>
    <path clip-path="url(#p87821e93a1)" d="M 207.703569 165.589786 
L 207.719458 164.646045 
L 219.965857 156.261297 
L 219.945625 157.199412 
z
" style="fill:#ba0c2f;fill-opacity:0.8;"/>
    <path clip-path="url(#p87821e93a1)" d="M 207.703569 165.589786 
L 219.945625 157.199412 
L 242.247323 162.024623 
L 230.147763 170.505444 
z
" style="fill:#74081d;fill-opacity:0.8;"/>
    <path clip-path="url(#p87821e93a1)" d="M 207.719458 164.646045 
L 230.172089 169.558433 
L 242.275884 161.083265 
L 219.965857 156.261297 
z
" style="fill:#a30a29;fill-opacity:0.8;"/>
    <path clip-path="url(#p87821e93a1)" d="M 230.147763 170.505444 
L 242.247323 162.024623 
L 242.275884 161.083265 
L 230.172089 169.558433 
z
" style="fill:#5d0618;fill-opacity:0.8;"/>
    <path clip-path="url(#p87821e93a1)" d="M 207.703569 165.589786 
L 230.147763 170.505444 
L 230.172089 169.558433 
L 207.719458 164.646045 
z
" style="fill:#ba0c2f;fill-opacity:0.8;"/>
   </g>
   <g id="Poly3DCollection_4">
    <path clip-path="url(#p87821e93a1)" d="M 120.287249 146.444134 
L 133.06313 138.401454 
L 154.442414 143.027091 
L 141.794748 151.15464 
z
" style="fill:#74081d;fill-opacity:0.8;"/>
    <path clip-path="url(#p87821e93a1)" d="M 133.06313 138.401454 
L 132.033963 54.740889 
L 154.105412 59.064943 
L 154.442414 143.027091 
z
" style="fill:#5d0618;fill-opacity:0.8;"/>
    <path clip-path="url(#p87821e93a1)" d="M 120.287249 146.444134 
L 118.829791 62.260146 
L 132.033963 54.740889 
L 133.06313 138.401454 
z
" style="fill:#ba0c2f;fill-opacity:0.8;"/>
    <path clip-path="url(#p87821e93a1)" d="M 141.794748 151.15464 
L 154.442414 143.027091 
L 154.105412 59.064943 
L 141.037887 66.666156 
z
" style="fill:#5d0618;fill-opacity:0.8;"/>
    <path clip-path="url(#p87821e93a1)" d="M 120.287249 146.444134 
L 141.794748 151.15464 
L 141.037887 66.666156 
L 118.829791 62.260146 
z
" style="fill:#ba0c2f;fill-opacity:0.8;"/>
    <path clip-path="url(#p87821e93a1)" d="M 118.829791 62.260146 
L 141.037887 66.666156 
L 154.105412 59.064943 
L 132.033963 54.740889 
z
" style="fill:#a30a29;fill-opacity:0.8;"/>
   </g>
   <g id="Poly3DCollection_5">
    <path clip-path="url(#p87821e93a1)" d="M 150.782273 164.281598 
L 150.721408 153.178333 
L 172.922598 158.041141 
L 172.887077 169.183098 
z
" style="fill:#5d0618;fill-opacity:0.8;"/>
    <path clip-path="url(#p87821e93a1)" d="M 137.794604 172.804893 
L 137.676114 161.634492 
L 150.721408 153.178333 
L 150.782273 164.281598 
z
" style="fill:#ba0c2f;fill-opacity:0.8;"/>
    <path clip-path="url(#p87821e93a1)" d="M 137.794604 172.804893 
L 150.782273 164.281598 
L 172.887077 169.183098 
L 160.037123 177.799003 
z
" style="fill:#74081d;fill-opacity:0.8;"/>
    <path clip-path="url(#p87821e93a1)" d="M 137.676114 161.634492 
L 160.016226 166.589586 
L 172.922598 158.041141 
L 150.721408 153.178333 
z
" style="fill:#a30a29;fill-opacity:0.8;"/>
    <path clip-path="url(#p87821e93a1)" d="M 160.037123 177.799003 
L 172.887077 169.183098 
L 172.922598 158.041141 
L 160.016226 166.589586 
z
" style="fill:#5d0618;fill-opacity:0.8;"/>
    <path clip-path="url(#p87821e93a1)" d="M 137.794604 172.804893 
L 160.037123 177.799003 
L 160.016226 166.589586 
L 137.676114 161.634492 
z
" style="fill:#ba0c2f;fill-opacity:0.8;"/>
   </g>
   <g id="Poly3DCollection_6">
    <path clip-path="url(#p87821e93a1)" d="M 80.524031 171.475898 
L 80.350645 166.239507 
L 102.293841 171.200902 
L 102.422855 176.455511 
z
" style="fill:#5d0618;fill-opacity:0.8;"/>
    <path clip-path="url(#p87821e93a1)" d="M 66.768484 180.135297 
L 66.564877 174.867298 
L 80.350645 166.239507 
L 80.524031 171.475898 
z
" style="fill:#ba0c2f;fill-opacity:0.8;"/>
    <path clip-path="url(#p87821e93a1)" d="M 66.768484 180.135297 
L 80.524031 171.475898 
L 102.422855 176.455511 
L 88.799959 185.209754 
z
" style="fill:#74081d;fill-opacity:0.8;"/>
    <path clip-path="url(#p87821e93a1)" d="M 66.564877 174.867298 
L 88.641257 179.923389 
L 102.293841 171.200902 
L 80.350645 166.239507 
z
" style="fill:#a30a29;fill-opacity:0.8;"/>
    <path clip-path="url(#p87821e93a1)" d="M 88.799959 185.209754 
L 102.422855 176.455511 
L 102.293841 171.200902 
L 88.641257 179.923389 
z
" style="fill:#5d0618;fill-opacity:0.8;"/>
    <path clip-path="url(#p87821e93a1)" d="M 66.768484 180.135297 
L 88.799959 185.209754 
L 88.641257 179.923389 
L 66.564877 174.867298 
z
" style="fill:#ba0c2f;fill-opacity:0.8;"/>
   </g>
   <g id="Poly3DCollection_7">
    <path clip-path="url(#p87821e93a1)" d="M 182.523124 182.847783 
L 195.231582 174.137749 
L 217.819708 179.146421 
L 205.256625 187.952134 
z
" style="fill:#74081d;fill-opacity:0.8;"/>
    <path clip-path="url(#p87821e93a1)" d="M 195.231582 174.137749 
L 195.551029 147.485733 
L 218.379087 152.400392 
L 217.819708 179.146421 
z
" style="fill:#5d0618;fill-opacity:0.8;"/>
    <path clip-path="url(#p87821e93a1)" d="M 182.523124 182.847783 
L 182.711089 156.032641 
L 195.551029 147.485733 
L 195.231582 174.137749 
z
" style="fill:#ba0c2f;fill-opacity:0.8;"/>
    <path clip-path="url(#p87821e93a1)" d="M 205.256625 187.952134 
L 217.819708 179.146421 
L 218.379087 152.400392 
L 205.68765 161.042185 
z
" style="fill:#5d0618;fill-opacity:0.8;"/>
    <path clip-path="url(#p87821e93a1)" d="M 182.523124 182.847783 
L 205.256625 187.952134 
L 205.68765 161.042185 
L 182.711089 156.032641 
z
" style="fill:#ba0c2f;fill-opacity:0.8;"/>
    <path clip-path="url(#p87821e93a1)" d="M 182.711089 156.032641 
L 205.68765 161.042185 
L 218.379087 152.400392 
L 195.551029 147.485733 
z
" style="fill:#a30a29;fill-opacity:0.8;"/>
   </g>
   <g id="Poly3DCollection_8">
    <path clip-path="url(#p87821e93a1)" d="M 240.655461 184.210002 
L 240.68412 183.253979 
L 263.78052 188.370049 
L 263.742937 189.329399 
z
" style="fill:#5d0618;fill-opacity:0.8;"/>
    <path clip-path="url(#p87821e93a1)" d="M 228.241736 193.112979 
L 228.265937 192.151184 
L 240.68412 183.253979 
L 240.655461 184.210002 
z
" style="fill:#ba0c2f;fill-opacity:0.8;"/>
    <path clip-path="url(#p87821e93a1)" d="M 228.241736 193.112979 
L 240.655461 184.210002 
L 263.742937 189.329399 
L 251.482658 198.33126 
z
" style="fill:#74081d;fill-opacity:0.8;"/>
    <path clip-path="url(#p87821e93a1)" d="M 228.265937 192.151184 
L 251.515903 197.366112 
L 263.78052 188.370049 
L 240.68412 183.253979 
z
" style="fill:#a30a29;fill-opacity:0.8;"/>
    <path clip-path="url(#p87821e93a1)" d="M 251.482658 198.33126 
L 263.742937 189.329399 
L 263.78052 188.370049 
L 251.515903 197.366112 
z
" style="fill:#5d0618;fill-opacity:0.8;"/>
    <path clip-path="url(#p87821e93a1)" d="M 228.241736 193.112979 
L 251.482658 198.33126 
L 251.515903 197.366112 
L 228.265937 192.151184 
z
" style="fill:#ba0c2f;fill-opacity:0.8;"/>
   </g>
   <g id="Poly3DCollection_9">
    <path clip-path="url(#p87821e93a1)" d="M 124.561047 181.489554 
L 124.243496 161.47468 
L 146.800987 166.493606 
L 146.942553 186.578925 
z
" style="fill:#5d0618;fill-opacity:0.8;"/>
    <path clip-path="url(#p87821e93a1)" d="M 111.074553 190.340208 
L 124.561047 181.489554 
L 146.942553 186.578925 
L 133.596313 195.527591 
z
" style="fill:#74081d;fill-opacity:0.8;"/>
    <path clip-path="url(#p87821e93a1)" d="M 111.074553 190.340208 
L 110.646403 170.203108 
L 124.243496 161.47468 
L 124.561047 181.489554 
z
" style="fill:#ba0c2f;fill-opacity:0.8;"/>
    <path clip-path="url(#p87821e93a1)" d="M 133.596313 195.527591 
L 146.942553 186.578925 
L 146.800987 166.493606 
L 133.346359 175.319466 
z
" style="fill:#5d0618;fill-opacity:0.8;"/>
    <path clip-path="url(#p87821e93a1)" d="M 110.646403 170.203108 
L 133.346359 175.319466 
L 146.800987 166.493606 
L 124.243496 161.47468 
z
" style="fill:#a30a29;fill-opacity:0.8;"/>
    <path clip-path="url(#p87821e93a1)" d="M 111.074553 190.340208 
L 133.596313 195.527591 
L 133.346359 175.319466 
L 110.646403 170.203108 
z
" style="fill:#ba0c2f;fill-opacity:0.8;"/>
   </g>
   <g id="Poly3DCollection_10">
    <path clip-path="url(#p87821e93a1)" d="M 169.571405 191.724541 
L 169.59294 180.407579 
L 192.576546 185.57067 
L 192.451729 196.927339 
z
" style="fill:#5d0618;fill-opacity:0.8;"/>
    <path clip-path="url(#p87821e93a1)" d="M 156.369375 200.772856 
L 156.331349 189.387005 
L 169.59294 180.407579 
L 169.571405 191.724541 
z
" style="fill:#ba0c2f;fill-opacity:0.8;"/>
    <path clip-path="url(#p87821e93a1)" d="M 156.369375 200.772856 
L 169.571405 191.724541 
L 192.451729 196.927339 
L 179.397969 206.076977 
z
" style="fill:#74081d;fill-opacity:0.8;"/>
    <path clip-path="url(#p87821e93a1)" d="M 156.331349 189.387005 
L 179.464573 194.651104 
L 192.576546 185.57067 
L 169.59294 180.407579 
z
" style="fill:#a30a29;fill-opacity:0.8;"/>
    <path clip-path="url(#p87821e93a1)" d="M 179.397969 206.076977 
L 192.451729 196.927339 
L 192.576546 185.57067 
L 179.464573 194.651104 
z
" style="fill:#5d0618;fill-opacity:0.8;"/>
    <path clip-path="url(#p87821e93a1)" d="M 156.369375 200.772856 
L 179.397969 206.076977 
L 179.464573 194.651104 
L 156.331349 189.387005 
z
" style="fill:#ba0c2f;fill-opacity:0.8;"/>
   </g>
   <g id="Poly3DCollection_11">
    <path clip-path="url(#p87821e93a1)" d="M 97.3278 199.36166 
L 97.184765 194.024682 
L 119.895575 199.294253 
L 119.991078 204.649913 
z
" style="fill:#5d0618;fill-opacity:0.8;"/>
    <path clip-path="url(#p87821e93a1)" d="M 83.313182 208.558901 
L 83.138736 203.189511 
L 97.184765 194.024682 
L 97.3278 199.36166 
z
" style="fill:#ba0c2f;fill-opacity:0.8;"/>
    <path clip-path="url(#p87821e93a1)" d="M 83.313182 208.558901 
L 97.3278 199.36166 
L 119.991078 204.649913 
L 106.119235 213.950996 
z
" style="fill:#74081d;fill-opacity:0.8;"/>
    <path clip-path="url(#p87821e93a1)" d="M 83.138736 203.189511 
L 105.992918 208.562781 
L 119.895575 199.294253 
L 97.184765 194.024682 
z
" style="fill:#a30a29;fill-opacity:0.8;"/>
    <path clip-path="url(#p87821e93a1)" d="M 106.119235 213.950996 
L 119.991078 204.649913 
L 119.895575 199.294253 
L 105.992918 208.562781 
z
" style="fill:#5d0618;fill-opacity:0.8;"/>
    <path clip-path="url(#p87821e93a1)" d="M 83.313182 208.558901 
L 106.119235 213.950996 
L 105.992918 208.562781 
L 83.138736 203.189511 
z
" style="fill:#ba0c2f;fill-opacity:0.8;"/>
   </g>
   <g id="Poly3DCollection_12">
    <path clip-path="url(#p87821e93a1)" d="M 215.587737 202.188277 
L 215.644996 199.356242 
L 239.067831 204.666399 
L 238.983742 207.508337 
z
" style="fill:#5d0618;fill-opacity:0.8;"/>
    <path clip-path="url(#p87821e93a1)" d="M 202.68642 211.44095 
L 202.729561 208.591735 
L 215.644996 199.356242 
L 215.587737 202.188277 
z
" style="fill:#ba0c2f;fill-opacity:0.8;"/>
    <path clip-path="url(#p87821e93a1)" d="M 202.68642 211.44095 
L 215.587737 202.188277 
L 238.983742 207.508337 
L 226.239152 216.865794 
z
" style="fill:#74081d;fill-opacity:0.8;"/>
    <path clip-path="url(#p87821e93a1)" d="M 202.729561 208.591735 
L 226.309487 214.006601 
L 239.067831 204.666399 
L 215.644996 199.356242 
z
" style="fill:#a30a29;fill-opacity:0.8;"/>
    <path clip-path="url(#p87821e93a1)" d="M 226.239152 216.865794 
L 238.983742 207.508337 
L 239.067831 204.666399 
L 226.309487 214.006601 
z
" style="fill:#5d0618;fill-opacity:0.8;"/>
    <path clip-path="url(#p87821e93a1)" d="M 202.68642 211.44095 
L 226.239152 216.865794 
L 226.309487 214.006601 
L 202.729561 208.591735 
z
" style="fill:#ba0c2f;fill-opacity:0.8;"/>
   </g>
   <g id="Poly3DCollection_13">
    <path clip-path="url(#p87821e93a1)" d="M 252.835692 175.474484 
L 264.788953 166.901746 
L 287.574407 171.831623 
L 275.771348 180.497781 
z
" style="fill:#74081d;fill-opacity:0.8;"/>
    <path clip-path="url(#p87821e93a1)" d="M 264.788953 166.901746 
L 268.994789 59.72444 
L 292.767476 64.258626 
L 287.574407 171.831623 
z
" style="fill:#5d0618;fill-opacity:0.8;"/>
    <path clip-path="url(#p87821e93a1)" d="M 252.835692 175.474484 
L 256.575202 67.610423 
L 268.994789 59.72444 
L 264.788953 166.901746 
z
" style="fill:#ba0c2f;fill-opacity:0.8;"/>
    <path clip-path="url(#p87821e93a1)" d="M 275.771348 180.497781 
L 287.574407 171.831623 
L 292.767476 64.258626 
L 280.511584 72.234206 
z
" style="fill:#5d0618;fill-opacity:0.8;"/>
    <path clip-path="url(#p87821e93a1)" d="M 252.835692 175.474484 
L 275.771348 180.497781 
L 280.511584 72.234206 
L 256.575202 67.610423 
z
" style="fill:#ba0c2f;fill-opacity:0.8;"/>
    <path clip-path="url(#p87821e93a1)" d="M 256.575202 67.610423 
L 280.511584 72.234206 
L 292.767476 64.258626 
L 268.994789 59.72444 
z
" style="fill:#a30a29;fill-opacity:0.8;"/>
   </g>
   <g id="Poly3DCollection_14">
    <path clip-path="url(#p87821e93a1)" d="M 142.909704 209.99775 
L 142.881522 206.767141 
L 166.08973 212.16426 
L 166.088019 215.406183 
z
" style="fill:#5d0618;fill-opacity:0.8;"/>
    <path clip-path="url(#p87821e93a1)" d="M 129.184777 219.404444 
L 129.138447 216.154208 
L 142.881522 206.767141 
L 142.909704 209.99775 
z
" style="fill:#ba0c2f;fill-opacity:0.8;"/>
    <path clip-path="url(#p87821e93a1)" d="M 129.184777 219.404444 
L 142.909704 209.99775 
L 166.088019 215.406183 
L 152.514264 224.920296 
z
" style="fill:#74081d;fill-opacity:0.8;"/>
    <path clip-path="url(#p87821e93a1)" d="M 129.138447 216.154208 
L 152.498217 221.658662 
L 166.08973 212.16426 
L 142.881522 206.767141 
z
" style="fill:#a30a29;fill-opacity:0.8;"/>
    <path clip-path="url(#p87821e93a1)" d="M 152.514264 224.920296 
L 166.088019 215.406183 
L 166.08973 212.16426 
L 152.498217 221.658662 
z
" style="fill:#5d0618;fill-opacity:0.8;"/>
    <path clip-path="url(#p87821e93a1)" d="M 129.184777 219.404444 
L 152.514264 224.920296 
L 152.498217 221.658662 
L 129.138447 216.154208 
z
" style="fill:#ba0c2f;fill-opacity:0.8;"/>
   </g>
   <g id="Poly3DCollection_15">
    <path clip-path="url(#p87821e93a1)" d="M 38.462225 197.95467 
L 52.750411 188.959963 
L 74.915628 194.131999 
L 60.762264 203.227128 
z
" style="fill:#74081d;fill-opacity:0.8;"/>
    <path clip-path="url(#p87821e93a1)" d="M 52.750411 188.959963 
L 46.933544 57.750519 
L 70.222556 62.427839 
L 74.915628 194.131999 
z
" style="fill:#5d0618;fill-opacity:0.8;"/>
    <path clip-path="url(#p87821e93a1)" d="M 38.462225 197.95467 
L 31.836896 65.886594 
L 46.933544 57.750519 
L 52.750411 188.959963 
z
" style="fill:#ba0c2f;fill-opacity:0.8;"/>
    <path clip-path="url(#p87821e93a1)" d="M 60.762264 203.227128 
L 74.915628 194.131999 
L 70.222556 62.427839 
L 55.274545 70.659531 
z
" style="fill:#5d0618;fill-opacity:0.8;"/>
    <path clip-path="url(#p87821e93a1)" d="M 38.462225 197.95467 
L 60.762264 203.227128 
L 55.274545 70.659531 
L 31.836896 65.886594 
z
" style="fill:#ba0c2f;fill-opacity:0.8;"/>
    <path clip-path="url(#p87821e93a1)" d="M 31.836896 65.886594 
L 55.274545 70.659531 
L 70.222556 62.427839 
L 46.933544 57.750519 
z
" style="fill:#a30a29;fill-opacity:0.8;"/>
   </g>
   <g id="Poly3DCollection_16">
    <path clip-path="url(#p87821e93a1)" d="M 176.112251 230.499631 
L 189.530463 220.876247 
L 213.241574 226.409003 
L 199.9834 236.14355 
z
" style="fill:#74081d;fill-opacity:0.8;"/>
    <path clip-path="url(#p87821e93a1)" d="M 189.530463 220.876247 
L 190.411986 132.059793 
L 214.977456 137.263504 
L 213.241574 226.409003 
z
" style="fill:#5d0618;fill-opacity:0.8;"/>
    <path clip-path="url(#p87821e93a1)" d="M 176.112251 230.499631 
L 176.520256 141.11222 
L 190.411986 132.059793 
L 189.530463 220.876247 
z
" style="fill:#ba0c2f;fill-opacity:0.8;"/>
    <path clip-path="url(#p87821e93a1)" d="M 199.9834 236.14355 
L 213.241574 226.409003 
L 214.977456 137.263504 
L 201.257589 146.424275 
z
" style="fill:#5d0618;fill-opacity:0.8;"/>
    <path clip-path="url(#p87821e93a1)" d="M 176.112251 230.499631 
L 199.9834 236.14355 
L 201.257589 146.424275 
L 176.520256 141.11222 
z
" style="fill:#ba0c2f;fill-opacity:0.8;"/>
    <path clip-path="url(#p87821e93a1)" d="M 176.520256 141.11222 
L 201.257589 146.424275 
L 214.977456 137.263504 
L 190.411986 132.059793 
z
" style="fill:#a30a29;fill-opacity:0.8;"/>
   </g>
  </g>
  <g id="patch_6">
   <path d="M 425.945455 262.8 
L 806.4 262.8 
L 806.4 -14.4 
L 425.945455 -14.4 
z
" style="fill:#ffffff;"/>
  </g>
  <g id="pane3d_4">
   <g id="patch_7">
    <path d="M 476.380584 201.548569 
L 585.268665 133.58541 
L 583.455794 3.718968 
L 468.496488 64.782468 
" style="fill:#f2f2f2;opacity:0.5;stroke:#f2f2f2;stroke-linejoin:miter;"/>
   </g>
  </g>
  <g id="pane3d_5">
   <g id="patch_8">
    <path d="M 585.268665 133.58541 
L 761.65712 171.581202 
L 769.037001 37.79869 
L 583.455794 3.718968 
" style="fill:#e6e6e6;opacity:0.5;stroke:#e6e6e6;stroke-linejoin:miter;"/>
   </g>
  </g>
  <g id="pane3d_6">
   <g id="patch_9">
    <path d="M 476.380584 201.548569 
L 661.965072 245.80086 
L 761.65712 171.581202 
L 585.268665 133.58541 
" style="fill:#ececec;opacity:0.5;stroke:#ececec;stroke-linejoin:miter;"/>
   </g>
  </g>
  <g id="axis3d_4">
   <g id="line2d_16">
    <path d="M 476.380584 201.548569 
L 661.965072 245.80086 
" style="fill:none;stroke:#000000;stroke-linecap:square;stroke-width:0.8;"/>
   </g>
   <g id="Line3DCollection_4">
    <path d="M 498.841271 206.90428 
L 606.679397 138.19749 
L 605.9393 7.847789 
" style="fill:none;stroke:#b0b0b0;stroke-width:0.8;"/>
    <path d="M 544.057792 217.686079 
L 649.729469 147.470895 
L 651.182353 16.156123 
" style="fill:none;stroke:#b0b0b0;stroke-width:0.8;"/>
    <path d="M 590.310744 228.715013 
L 693.693551 156.941187 
L 697.435637 24.649974 
" style="fill:none;stroke:#b0b0b0;stroke-width:0.8;"/>
    <path d="M 637.636176 239.999678 
L 738.601063 166.614702 
L 744.733372 33.335625 
" style="fill:none;stroke:#b0b0b0;stroke-width:0.8;"/>
   </g>
   <g id="xtick_13">
    <g id="line2d_17">
     <path d="M 499.770538 206.312217 
L 496.979262 208.09062 
" style="fill:none;stroke:#000000;stroke-linecap:square;stroke-width:0.8;"/>
    </g>
    <g id="text_13">
     <!-- 00 -->
     <g transform="translate(474.220382 245.619336)rotate(-45)scale(0.22 -0.22)">
      <use transform="scale(0.996264)" xlink:href="#CMR17-48"/>
      <use transform="translate(45.690477 0)scale(0.996264)" xlink:href="#CMR17-48"/>
     </g>
    </g>
   </g>
   <g id="xtick_14">
    <g id="line2d_18">
     <path d="M 544.969128 217.080527 
L 542.231671 218.899473 
" style="fill:none;stroke:#000000;stroke-linecap:square;stroke-width:0.8;"/>
    </g>
    <g id="text_14">
     <!-- 01 -->
     <g transform="translate(519.432807 256.576088)rotate(-45)scale(0.22 -0.22)">
      <use transform="scale(0.996264)" xlink:href="#CMR17-48"/>
      <use transform="translate(45.690477 0)scale(0.996264)" xlink:href="#CMR17-49"/>
     </g>
    </g>
   </g>
   <g id="xtick_15">
    <g id="line2d_19">
     <path d="M 591.20308 228.095506 
L 588.522658 229.956397 
" style="fill:none;stroke:#000000;stroke-linecap:square;stroke-width:0.8;"/>
    </g>
    <g id="text_15">
     <!-- 10 -->
     <g transform="translate(565.68342 267.784434)rotate(-45)scale(0.22 -0.22)">
      <use transform="scale(0.996264)" xlink:href="#CMR17-49"/>
      <use transform="translate(45.690477 0)scale(0.996264)" xlink:href="#CMR17-48"/>
     </g>
    </g>
   </g>
   <g id="xtick_16">
    <g id="line2d_20">
     <path d="M 638.50838 239.365727 
L 635.888391 241.270032 
" style="fill:none;stroke:#000000;stroke-linecap:square;stroke-width:0.8;"/>
    </g>
    <g id="text_16">
     <!-- 11 -->
     <g transform="translate(613.008395 279.25314)rotate(-45)scale(0.22 -0.22)">
      <use transform="scale(0.996264)" xlink:href="#CMR17-49"/>
      <use transform="translate(45.690477 0)scale(0.996264)" xlink:href="#CMR17-49"/>
     </g>
    </g>
   </g>
  </g>
  <g id="axis3d_5">
   <g id="line2d_21">
    <path d="M 761.65712 171.581202 
L 661.965072 245.80086 
" style="fill:none;stroke:#000000;stroke-linecap:square;stroke-width:0.8;"/>
   </g>
   <g id="Line3DCollection_5">
    <path d="M 484.000685 56.547028 
L 491.016499 192.413474 
L 675.403872 235.795817 
" style="fill:none;stroke:#b0b0b0;stroke-width:0.8;"/>
    <path d="M 513.777478 40.730342 
L 519.168861 174.842005 
L 701.219492 216.576366 
" style="fill:none;stroke:#b0b0b0;stroke-width:0.8;"/>
    <path d="M 542.401344 25.526062 
L 546.284836 157.917404 
L 726.04244 198.095948 
" style="fill:none;stroke:#b0b0b0;stroke-width:0.8;"/>
    <path d="M 569.937971 10.899296 
L 572.420618 141.604597 
L 749.928893 180.312741 
" style="fill:none;stroke:#b0b0b0;stroke-width:0.8;"/>
   </g>
   <g id="xtick_17">
    <g id="line2d_22">
     <path d="M 673.861052 235.432825 
L 678.492943 236.522608 
" style="fill:none;stroke:#000000;stroke-linecap:square;stroke-width:0.8;"/>
    </g>
    <g id="text_17">
     <!-- 00 -->
     <g transform="translate(689.789427 248.955025)rotate(-337.5)scale(0.22 -0.22)">
      <use transform="scale(0.996264)" xlink:href="#CMR17-48"/>
      <use transform="translate(45.690477 0)scale(0.996264)" xlink:href="#CMR17-48"/>
     </g>
    </g>
   </g>
   <g id="xtick_18">
    <g id="line2d_23">
     <path d="M 699.697534 216.227463 
L 704.266725 217.274932 
" style="fill:none;stroke:#000000;stroke-linecap:square;stroke-width:0.8;"/>
    </g>
    <g id="text_18">
     <!-- 01 -->
     <g transform="translate(715.342978 229.510599)rotate(-337.5)scale(0.22 -0.22)">
      <use transform="scale(0.996264)" xlink:href="#CMR17-48"/>
      <use transform="translate(45.690477 0)scale(0.996264)" xlink:href="#CMR17-49"/>
     </g>
    </g>
   </g>
   <g id="xtick_19">
    <g id="line2d_24">
     <path d="M 724.540896 197.76033 
L 729.048738 198.767901 
" style="fill:none;stroke:#000000;stroke-linecap:square;stroke-width:0.8;"/>
    </g>
    <g id="text_19">
     <!-- 10 -->
     <g transform="translate(739.91439 210.813511)rotate(-337.5)scale(0.22 -0.22)">
      <use transform="scale(0.996264)" xlink:href="#CMR17-49"/>
      <use transform="translate(45.690477 0)scale(0.996264)" xlink:href="#CMR17-48"/>
     </g>
    </g>
   </g>
   <g id="xtick_20">
    <g id="line2d_25">
     <path d="M 748.44732 179.989663 
L 752.895146 180.959573 
" style="fill:none;stroke:#000000;stroke-linecap:square;stroke-width:0.8;"/>
    </g>
    <g id="text_20">
     <!-- 11 -->
     <g transform="translate(763.559216 192.821489)rotate(-337.5)scale(0.22 -0.22)">
      <use transform="scale(0.996264)" xlink:href="#CMR17-49"/>
      <use transform="translate(45.690477 0)scale(0.996264)" xlink:href="#CMR17-49"/>
     </g>
    </g>
   </g>
  </g>
  <g id="axis3d_6">
   <g id="line2d_26">
    <path d="M 761.65712 171.581202 
L 769.037001 37.79869 
" style="fill:none;stroke:#000000;stroke-linecap:square;stroke-width:0.8;"/>
   </g>
   <g id="Line3DCollection_6">
    <path d="M 762.808909 150.701559 
L 584.985207 113.279666 
L 475.151887 180.234264 
" style="fill:none;stroke:#b0b0b0;stroke-width:0.8;"/>
    <path d="M 765.431388 103.161256 
L 584.340528 67.097563 
L 472.351838 131.661564 
" style="fill:none;stroke:#b0b0b0;stroke-width:0.8;"/>
    <path d="M 768.152913 53.825442 
L 583.672555 19.246782 
L 469.442412 81.191488 
" style="fill:none;stroke:#b0b0b0;stroke-width:0.8;"/>
   </g>
   <g id="xtick_21">
    <g id="line2d_27">
     <path d="M 761.324785 150.389235 
L 765.780268 151.326863 
" style="fill:none;stroke:#000000;stroke-linecap:square;stroke-width:0.8;"/>
    </g>
    <g id="text_21">
     <!-- $0.0$ -->
     <g transform="translate(768.435041 164.006629)scale(0.22 -0.22)">
      <use transform="scale(0.996264)" xlink:href="#CMR17-48"/>
      <use transform="translate(45.690477 0)scale(0.996264)" xlink:href="#CMMI12-58"/>
      <use transform="translate(72.787654 0)scale(0.996264)" xlink:href="#CMR17-48"/>
     </g>
    </g>
   </g>
   <g id="xtick_22">
    <g id="line2d_28">
     <path d="M 763.918835 102.860036 
L 768.459723 103.76434 
" style="fill:none;stroke:#000000;stroke-linecap:square;stroke-width:0.8;"/>
    </g>
    <g id="text_22">
     <!-- $0.2$ -->
     <g transform="translate(771.396874 116.534495)scale(0.22 -0.22)">
      <use transform="scale(0.996264)" xlink:href="#CMR17-48"/>
      <use transform="translate(45.690477 0)scale(0.996264)" xlink:href="#CMMI12-58"/>
      <use transform="translate(72.787654 0)scale(0.996264)" xlink:href="#CMR17-50"/>
     </g>
    </g>
   </g>
   <g id="xtick_23">
    <g id="line2d_29">
     <path d="M 766.610822 53.536395 
L 771.240449 54.404164 
" style="fill:none;stroke:#000000;stroke-linecap:square;stroke-width:0.8;"/>
    </g>
    <g id="text_23">
     <!-- $0.4$ -->
     <g transform="translate(774.470322 67.273406)scale(0.22 -0.22)">
      <use transform="scale(0.996264)" xlink:href="#CMR17-48"/>
      <use transform="translate(45.690477 0)scale(0.996264)" xlink:href="#CMMI12-58"/>
      <use transform="translate(72.787654 0)scale(0.996264)" xlink:href="#CMR17-52"/>
     </g>
    </g>
   </g>
  </g>
  <g id="axes_2">
   <g id="Poly3DCollection_17">
    <path clip-path="url(#p80d4fe967e)" d="M 589.376796 119.559455 
L 589.153305 101.392004 
L 610.838801 105.88775 
L 610.911979 124.119661 
z
" style="fill:#065d4c;fill-opacity:0.8;"/>
    <path clip-path="url(#p80d4fe967e)" d="M 576.504531 127.488593 
L 589.376796 119.559455 
L 610.911979 124.119661 
L 598.169804 132.13309 
z
" style="fill:#08745e;fill-opacity:0.8;"/>
    <path clip-path="url(#p80d4fe967e)" d="M 576.504531 127.488593 
L 576.188065 109.209274 
L 589.153305 101.392004 
L 589.376796 119.559455 
z
" style="fill:#0cba97;fill-opacity:0.8;"/>
    <path clip-path="url(#p80d4fe967e)" d="M 598.169804 132.13309 
L 610.911979 124.119661 
L 610.838801 105.88775 
L 598.005473 113.78871 
z
" style="fill:#065d4c;fill-opacity:0.8;"/>
    <path clip-path="url(#p80d4fe967e)" d="M 576.188065 109.209274 
L 598.005473 113.78871 
L 610.838801 105.88775 
L 589.153305 101.392004 
z
" style="fill:#0aa384;fill-opacity:0.8;"/>
    <path clip-path="url(#p80d4fe967e)" d="M 576.504531 127.488593 
L 598.169804 132.13309 
L 598.005473 113.78871 
L 576.188065 109.209274 
z
" style="fill:#0cba97;fill-opacity:0.8;"/>
   </g>
   <g id="Poly3DCollection_18">
    <path clip-path="url(#p80d4fe967e)" d="M 632.675643 128.72825 
L 632.669117 130.214353 
L 654.652179 134.877328 
L 654.671444 133.385994 
z
" style="fill:#0cba97;fill-opacity:0.8;"/>
    <path clip-path="url(#p80d4fe967e)" d="M 620.06707 136.827319 
L 620.067793 138.3225 
L 632.669117 130.214353 
L 632.675643 128.72825 
z
" style="fill:#065d4c;fill-opacity:0.8;"/>
    <path clip-path="url(#p80d4fe967e)" d="M 620.067793 138.3225 
L 642.187901 143.072544 
L 654.652179 134.877328 
L 632.669117 130.214353 
z
" style="fill:#0aa384;fill-opacity:0.8;"/>
    <path clip-path="url(#p80d4fe967e)" d="M 620.06707 136.827319 
L 632.675643 128.72825 
L 654.671444 133.385994 
L 642.200075 141.572086 
z
" style="fill:#08745e;fill-opacity:0.8;"/>
    <path clip-path="url(#p80d4fe967e)" d="M 642.200075 141.572086 
L 654.671444 133.385994 
L 654.652179 134.877328 
L 642.187901 143.072544 
z
" style="fill:#0cba97;fill-opacity:0.8;"/>
    <path clip-path="url(#p80d4fe967e)" d="M 620.06707 136.827319 
L 642.200075 141.572086 
L 642.187901 143.072544 
L 620.067793 138.3225 
z
" style="fill:#065d4c;fill-opacity:0.8;"/>
   </g>
   <g id="Poly3DCollection_19">
    <path clip-path="url(#p80d4fe967e)" d="M 676.903114 138.093685 
L 676.894713 138.483212 
L 699.362609 143.243035 
L 699.374468 142.852132 
z
" style="fill:#0cba97;fill-opacity:0.8;"/>
    <path clip-path="url(#p80d4fe967e)" d="M 664.572646 146.368209 
L 664.566047 146.760124 
L 676.894713 138.483212 
L 676.903114 138.093685 
z
" style="fill:#065d4c;fill-opacity:0.8;"/>
    <path clip-path="url(#p80d4fe967e)" d="M 664.566047 146.760124 
L 687.178591 151.609832 
L 699.362609 143.243035 
L 676.894713 138.483212 
z
" style="fill:#0aa384;fill-opacity:0.8;"/>
    <path clip-path="url(#p80d4fe967e)" d="M 664.572646 146.368209 
L 676.903114 138.093685 
L 699.374468 142.852132 
L 687.188693 151.216527 
z
" style="fill:#08745e;fill-opacity:0.8;"/>
    <path clip-path="url(#p80d4fe967e)" d="M 687.188693 151.216527 
L 699.374468 142.852132 
L 699.362609 143.243035 
L 687.178591 151.609832 
z
" style="fill:#0cba97;fill-opacity:0.8;"/>
    <path clip-path="url(#p80d4fe967e)" d="M 664.572646 146.368209 
L 687.188693 151.216527 
L 687.178591 151.609832 
L 664.566047 146.760124 
z
" style="fill:#065d4c;fill-opacity:0.8;"/>
   </g>
   <g id="Poly3DCollection_20">
    <path clip-path="url(#p80d4fe967e)" d="M 563.393868 135.564581 
L 563.147548 124.591816 
L 585.035918 129.283958 
L 585.190372 140.295727 
z
" style="fill:#065d4c;fill-opacity:0.8;"/>
    <path clip-path="url(#p80d4fe967e)" d="M 550.038122 143.791537 
L 549.732158 132.751088 
L 563.147548 124.591816 
L 563.393868 135.564581 
z
" style="fill:#0cba97;fill-opacity:0.8;"/>
    <path clip-path="url(#p80d4fe967e)" d="M 550.038122 143.791537 
L 563.393868 135.564581 
L 585.190372 140.295727 
L 571.966994 148.611779 
z
" style="fill:#08745e;fill-opacity:0.8;"/>
    <path clip-path="url(#p80d4fe967e)" d="M 549.732158 132.751088 
L 571.75401 137.531974 
L 585.035918 129.283958 
L 563.147548 124.591816 
z
" style="fill:#0aa384;fill-opacity:0.8;"/>
    <path clip-path="url(#p80d4fe967e)" d="M 571.966994 148.611779 
L 585.190372 140.295727 
L 585.035918 129.283958 
L 571.75401 137.531974 
z
" style="fill:#065d4c;fill-opacity:0.8;"/>
    <path clip-path="url(#p80d4fe967e)" d="M 550.038122 143.791537 
L 571.966994 148.611779 
L 571.75401 137.531974 
L 549.732158 132.751088 
z
" style="fill:#0cba97;fill-opacity:0.8;"/>
   </g>
   <g id="Poly3DCollection_21">
    <path clip-path="url(#p80d4fe967e)" d="M 607.222459 145.078007 
L 607.224097 145.37673 
L 629.493013 150.212037 
L 629.493968 149.912257 
z
" style="fill:#0cba97;fill-opacity:0.8;"/>
    <path clip-path="url(#p80d4fe967e)" d="M 594.135119 153.484611 
L 594.138307 153.78517 
L 607.224097 145.37673 
L 607.222459 145.078007 
z
" style="fill:#065d4c;fill-opacity:0.8;"/>
    <path clip-path="url(#p80d4fe967e)" d="M 594.138307 153.78517 
L 616.546995 158.712526 
L 629.493013 150.212037 
L 607.224097 145.37673 
z
" style="fill:#0aa384;fill-opacity:0.8;"/>
    <path clip-path="url(#p80d4fe967e)" d="M 594.135119 153.484611 
L 607.222459 145.078007 
L 629.493968 149.912257 
L 616.546433 158.4109 
z
" style="fill:#08745e;fill-opacity:0.8;"/>
    <path clip-path="url(#p80d4fe967e)" d="M 616.546433 158.4109 
L 629.493968 149.912257 
L 629.493013 150.212037 
L 616.546995 158.712526 
z
" style="fill:#0cba97;fill-opacity:0.8;"/>
    <path clip-path="url(#p80d4fe967e)" d="M 594.135119 153.484611 
L 616.546433 158.4109 
L 616.546995 158.712526 
L 594.138307 153.78517 
z
" style="fill:#065d4c;fill-opacity:0.8;"/>
   </g>
   <g id="Poly3DCollection_22">
    <path clip-path="url(#p80d4fe967e)" d="M 722.089405 147.662158 
L 722.089405 147.662158 
L 745.051905 152.524607 
L 745.051905 152.524607 
z
" style="fill:#065d4c;fill-opacity:0.8;"/>
    <path clip-path="url(#p80d4fe967e)" d="M 710.052214 156.117898 
L 710.052214 156.117898 
L 722.089405 147.662158 
L 722.089405 147.662158 
z
" style="fill:#065d4c;fill-opacity:0.8;"/>
    <path clip-path="url(#p80d4fe967e)" d="M 710.052214 156.117898 
L 722.089405 147.662158 
L 745.051905 152.524607 
L 733.167293 161.073197 
z
" style="fill:#08745e;fill-opacity:0.8;"/>
    <path clip-path="url(#p80d4fe967e)" d="M 710.052214 156.117898 
L 733.167293 161.073197 
L 745.051905 152.524607 
L 722.089405 147.662158 
z
" style="fill:#0aa384;fill-opacity:0.8;"/>
    <path clip-path="url(#p80d4fe967e)" d="M 733.167293 161.073197 
L 745.051905 152.524607 
L 745.051905 152.524607 
L 733.167293 161.073197 
z
" style="fill:#065d4c;fill-opacity:0.8;"/>
    <path clip-path="url(#p80d4fe967e)" d="M 710.052214 156.117898 
L 733.167293 161.073197 
L 733.167293 161.073197 
L 710.052214 156.117898 
z
" style="fill:#065d4c;fill-opacity:0.8;"/>
   </g>
   <g id="Poly3DCollection_23">
    <path clip-path="url(#p80d4fe967e)" d="M 652.008824 154.799327 
L 652.008824 154.799327 
L 674.771036 159.740089 
L 674.771036 159.740089 
z
" style="fill:#065d4c;fill-opacity:0.8;"/>
    <path clip-path="url(#p80d4fe967e)" d="M 639.20496 163.391529 
L 639.20496 163.391529 
L 652.008824 154.799327 
L 652.008824 154.799327 
z
" style="fill:#065d4c;fill-opacity:0.8;"/>
    <path clip-path="url(#p80d4fe967e)" d="M 639.20496 163.391529 
L 662.114813 168.427403 
L 674.771036 159.740089 
L 652.008824 154.799327 
z
" style="fill:#0aa384;fill-opacity:0.8;"/>
    <path clip-path="url(#p80d4fe967e)" d="M 639.20496 163.391529 
L 652.008824 154.799327 
L 674.771036 159.740089 
L 662.114813 168.427403 
z
" style="fill:#08745e;fill-opacity:0.8;"/>
    <path clip-path="url(#p80d4fe967e)" d="M 662.114813 168.427403 
L 674.771036 159.740089 
L 674.771036 159.740089 
L 662.114813 168.427403 
z
" style="fill:#065d4c;fill-opacity:0.8;"/>
    <path clip-path="url(#p80d4fe967e)" d="M 639.20496 163.391529 
L 662.114813 168.427403 
L 662.114813 168.427403 
L 639.20496 163.391529 
z
" style="fill:#065d4c;fill-opacity:0.8;"/>
   </g>
   <g id="Poly3DCollection_24">
    <path clip-path="url(#p80d4fe967e)" d="M 536.430357 152.173733 
L 536.093557 142.00214 
L 558.242096 146.877683 
L 558.492728 157.085613 
z
" style="fill:#065d4c;fill-opacity:0.8;"/>
    <path clip-path="url(#p80d4fe967e)" d="M 522.56337 160.715606 
L 522.167803 150.480959 
L 536.093557 142.00214 
L 536.430357 152.173733 
z
" style="fill:#0cba97;fill-opacity:0.8;"/>
    <path clip-path="url(#p80d4fe967e)" d="M 522.56337 160.715606 
L 536.430357 152.173733 
L 558.492728 157.085613 
L 544.760364 165.721761 
z
" style="fill:#08745e;fill-opacity:0.8;"/>
    <path clip-path="url(#p80d4fe967e)" d="M 522.167803 150.480959 
L 544.452009 155.450458 
L 558.242096 146.877683 
L 536.093557 142.00214 
z
" style="fill:#0aa384;fill-opacity:0.8;"/>
    <path clip-path="url(#p80d4fe967e)" d="M 544.760364 165.721761 
L 558.492728 157.085613 
L 558.242096 146.877683 
L 544.452009 155.450458 
z
" style="fill:#065d4c;fill-opacity:0.8;"/>
    <path clip-path="url(#p80d4fe967e)" d="M 522.56337 160.715606 
L 544.760364 165.721761 
L 544.452009 155.450458 
L 522.167803 150.480959 
z
" style="fill:#0cba97;fill-opacity:0.8;"/>
   </g>
   <g id="Poly3DCollection_25">
    <path clip-path="url(#p80d4fe967e)" d="M 580.798104 162.051593 
L 580.798104 162.051593 
L 603.350522 167.072575 
L 603.350522 167.072575 
z
" style="fill:#065d4c;fill-opacity:0.8;"/>
    <path clip-path="url(#p80d4fe967e)" d="M 567.2042 170.783587 
L 567.2042 170.783587 
L 580.798104 162.051593 
L 580.798104 162.051593 
z
" style="fill:#065d4c;fill-opacity:0.8;"/>
    <path clip-path="url(#p80d4fe967e)" d="M 567.2042 170.783587 
L 589.899019 175.902017 
L 603.350522 167.072575 
L 580.798104 162.051593 
z
" style="fill:#0aa384;fill-opacity:0.8;"/>
    <path clip-path="url(#p80d4fe967e)" d="M 567.2042 170.783587 
L 580.798104 162.051593 
L 603.350522 167.072575 
L 589.899019 175.902017 
z
" style="fill:#08745e;fill-opacity:0.8;"/>
    <path clip-path="url(#p80d4fe967e)" d="M 589.899019 175.902017 
L 603.350522 167.072575 
L 603.350522 167.072575 
L 589.899019 175.902017 
z
" style="fill:#065d4c;fill-opacity:0.8;"/>
    <path clip-path="url(#p80d4fe967e)" d="M 567.2042 170.783587 
L 589.899019 175.902017 
L 589.899019 175.902017 
L 567.2042 170.783587 
z
" style="fill:#065d4c;fill-opacity:0.8;"/>
   </g>
   <g id="Poly3DCollection_26">
    <path clip-path="url(#p80d4fe967e)" d="M 697.784704 164.735431 
L 697.796612 164.338174 
L 721.069635 169.387591 
L 721.054017 169.786264 
z
" style="fill:#065d4c;fill-opacity:0.8;"/>
    <path clip-path="url(#p80d4fe967e)" d="M 685.280198 173.519446 
L 685.290256 173.119732 
L 697.796612 164.338174 
L 697.784704 164.735431 
z
" style="fill:#0cba97;fill-opacity:0.8;"/>
    <path clip-path="url(#p80d4fe967e)" d="M 685.280198 173.519446 
L 697.784704 164.735431 
L 721.054017 169.786264 
L 708.705413 178.668603 
z
" style="fill:#08745e;fill-opacity:0.8;"/>
    <path clip-path="url(#p80d4fe967e)" d="M 685.290256 173.119732 
L 708.719231 178.267461 
L 721.069635 169.387591 
L 697.796612 164.338174 
z
" style="fill:#0aa384;fill-opacity:0.8;"/>
    <path clip-path="url(#p80d4fe967e)" d="M 708.705413 178.668603 
L 721.054017 169.786264 
L 721.069635 169.387591 
L 708.719231 178.267461 
z
" style="fill:#065d4c;fill-opacity:0.8;"/>
    <path clip-path="url(#p80d4fe967e)" d="M 685.280198 173.519446 
L 708.705413 178.668603 
L 708.719231 178.267461 
L 685.290256 173.119732 
z
" style="fill:#0cba97;fill-opacity:0.8;"/>
   </g>
   <g id="Poly3DCollection_27">
    <path clip-path="url(#p80d4fe967e)" d="M 508.429685 169.421762 
L 508.429685 169.421762 
L 530.762416 174.524933 
L 530.762416 174.524933 
z
" style="fill:#065d4c;fill-opacity:0.8;"/>
    <path clip-path="url(#p80d4fe967e)" d="M 494.021532 178.296986 
L 494.021532 178.296986 
L 508.429685 169.421762 
L 508.429685 169.421762 
z
" style="fill:#065d4c;fill-opacity:0.8;"/>
    <path clip-path="url(#p80d4fe967e)" d="M 494.021532 178.296986 
L 508.429685 169.421762 
L 530.762416 174.524933 
L 516.491103 183.500021 
z
" style="fill:#08745e;fill-opacity:0.8;"/>
    <path clip-path="url(#p80d4fe967e)" d="M 494.021532 178.296986 
L 516.491103 183.500021 
L 530.762416 174.524933 
L 508.429685 169.421762 
z
" style="fill:#0aa384;fill-opacity:0.8;"/>
    <path clip-path="url(#p80d4fe967e)" d="M 516.491103 183.500021 
L 530.762416 174.524933 
L 530.762416 174.524933 
L 516.491103 183.500021 
z
" style="fill:#065d4c;fill-opacity:0.8;"/>
    <path clip-path="url(#p80d4fe967e)" d="M 494.021532 178.296986 
L 516.491103 183.500021 
L 516.491103 183.500021 
L 494.021532 178.296986 
z
" style="fill:#065d4c;fill-opacity:0.8;"/>
   </g>
   <g id="Poly3DCollection_28">
    <path clip-path="url(#p80d4fe967e)" d="M 626.154109 172.149475 
L 626.154689 171.844833 
L 649.216445 176.977505 
L 649.213085 177.283234 
z
" style="fill:#065d4c;fill-opacity:0.8;"/>
    <path clip-path="url(#p80d4fe967e)" d="M 612.849054 181.078008 
L 612.84803 180.771479 
L 626.154689 171.844833 
L 626.154109 172.149475 
z
" style="fill:#0cba97;fill-opacity:0.8;"/>
    <path clip-path="url(#p80d4fe967e)" d="M 612.849054 181.078008 
L 626.154109 172.149475 
L 649.213085 177.283234 
L 636.058636 186.312534 
z
" style="fill:#08745e;fill-opacity:0.8;"/>
    <path clip-path="url(#p80d4fe967e)" d="M 612.84803 180.771479 
L 636.060429 186.004908 
L 649.216445 176.977505 
L 626.154689 171.844833 
z
" style="fill:#0aa384;fill-opacity:0.8;"/>
    <path clip-path="url(#p80d4fe967e)" d="M 636.058636 186.312534 
L 649.213085 177.283234 
L 649.216445 176.977505 
L 636.060429 186.004908 
z
" style="fill:#065d4c;fill-opacity:0.8;"/>
    <path clip-path="url(#p80d4fe967e)" d="M 612.849054 181.078008 
L 636.058636 186.312534 
L 636.060429 186.004908 
L 612.84803 180.771479 
z
" style="fill:#0cba97;fill-opacity:0.8;"/>
   </g>
   <g id="Poly3DCollection_29">
    <path clip-path="url(#p80d4fe967e)" d="M 553.345913 179.685405 
L 553.621647 189.973632 
L 576.368537 195.228937 
L 576.184425 184.90415 
z
" style="fill:#0cba97;fill-opacity:0.8;"/>
    <path clip-path="url(#p80d4fe967e)" d="M 539.215455 188.762052 
L 539.551771 199.113711 
L 553.621647 189.973632 
L 553.345913 179.685405 
z
" style="fill:#065d4c;fill-opacity:0.8;"/>
    <path clip-path="url(#p80d4fe967e)" d="M 539.551771 199.113711 
L 562.442486 204.472602 
L 576.368537 195.228937 
L 553.621647 189.973632 
z
" style="fill:#0aa384;fill-opacity:0.8;"/>
    <path clip-path="url(#p80d4fe967e)" d="M 539.215455 188.762052 
L 553.345913 179.685405 
L 576.184425 184.90415 
L 562.198947 194.084089 
z
" style="fill:#08745e;fill-opacity:0.8;"/>
    <path clip-path="url(#p80d4fe967e)" d="M 562.198947 194.084089 
L 576.184425 184.90415 
L 576.368537 195.228937 
L 562.442486 204.472602 
z
" style="fill:#0cba97;fill-opacity:0.8;"/>
    <path clip-path="url(#p80d4fe967e)" d="M 539.215455 188.762052 
L 562.198947 194.084089 
L 562.442486 204.472602 
L 539.551771 199.113711 
z
" style="fill:#065d4c;fill-opacity:0.8;"/>
   </g>
   <g id="Poly3DCollection_30">
    <path clip-path="url(#p80d4fe967e)" d="M 672.531763 182.474813 
L 672.563033 180.928199 
L 696.160484 186.173038 
L 696.114557 187.725193 
z
" style="fill:#065d4c;fill-opacity:0.8;"/>
    <path clip-path="url(#p80d4fe967e)" d="M 659.532191 191.606596 
L 659.555754 190.050369 
L 672.563033 180.928199 
L 672.531763 182.474813 
z
" style="fill:#0cba97;fill-opacity:0.8;"/>
    <path clip-path="url(#p80d4fe967e)" d="M 659.532191 191.606596 
L 672.531763 182.474813 
L 696.114557 187.725193 
L 683.27425 196.961214 
z
" style="fill:#08745e;fill-opacity:0.8;"/>
    <path clip-path="url(#p80d4fe967e)" d="M 659.555754 190.050369 
L 683.312669 195.399401 
L 696.160484 186.173038 
L 672.563033 180.928199 
z
" style="fill:#0aa384;fill-opacity:0.8;"/>
    <path clip-path="url(#p80d4fe967e)" d="M 683.27425 196.961214 
L 696.114557 187.725193 
L 696.160484 186.173038 
L 683.312669 195.399401 
z
" style="fill:#065d4c;fill-opacity:0.8;"/>
    <path clip-path="url(#p80d4fe967e)" d="M 659.532191 191.606596 
L 683.27425 196.961214 
L 683.312669 195.399401 
L 659.555754 190.050369 
z
" style="fill:#0cba97;fill-opacity:0.8;"/>
   </g>
   <g id="Poly3DCollection_31">
    <path clip-path="url(#p80d4fe967e)" d="M 599.282296 190.18216 
L 599.38094 201.48995 
L 622.637979 206.868486 
L 622.643968 195.52045 
z
" style="fill:#0cba97;fill-opacity:0.8;"/>
    <path clip-path="url(#p80d4fe967e)" d="M 585.446036 199.467165 
L 585.608218 210.844778 
L 599.38094 201.48995 
L 599.282296 190.18216 
z
" style="fill:#065d4c;fill-opacity:0.8;"/>
    <path clip-path="url(#p80d4fe967e)" d="M 585.608218 210.844778 
L 609.017458 216.330508 
L 622.637979 206.868486 
L 599.38094 201.48995 
z
" style="fill:#0aa384;fill-opacity:0.8;"/>
    <path clip-path="url(#p80d4fe967e)" d="M 585.446036 199.467165 
L 599.282296 190.18216 
L 622.643968 195.52045 
L 608.961283 204.912335 
z
" style="fill:#08745e;fill-opacity:0.8;"/>
    <path clip-path="url(#p80d4fe967e)" d="M 608.961283 204.912335 
L 622.643968 195.52045 
L 622.637979 206.868486 
L 609.017458 216.330508 
z
" style="fill:#0cba97;fill-opacity:0.8;"/>
    <path clip-path="url(#p80d4fe967e)" d="M 585.446036 199.467165 
L 608.961283 204.912335 
L 609.017458 216.330508 
L 585.608218 210.844778 
z
" style="fill:#065d4c;fill-opacity:0.8;"/>
   </g>
   <g id="Poly3DCollection_32">
    <path clip-path="url(#p80d4fe967e)" d="M 646.273987 200.92006 
L 646.085638 219.896865 
L 669.806167 225.42619 
L 670.177003 206.38205 
z
" style="fill:#0cba97;fill-opacity:0.8;"/>
    <path clip-path="url(#p80d4fe967e)" d="M 632.662203 229.514298 
L 656.542897 235.154762 
L 669.806167 225.42619 
L 646.085638 219.896865 
z
" style="fill:#0aa384;fill-opacity:0.8;"/>
    <path clip-path="url(#p80d4fe967e)" d="M 632.749355 210.42068 
L 632.662203 229.514298 
L 646.085638 219.896865 
L 646.273987 200.92006 
z
" style="fill:#065d4c;fill-opacity:0.8;"/>
    <path clip-path="url(#p80d4fe967e)" d="M 656.815027 215.993307 
L 670.177003 206.38205 
L 669.806167 225.42619 
L 656.542897 235.154762 
z
" style="fill:#0cba97;fill-opacity:0.8;"/>
    <path clip-path="url(#p80d4fe967e)" d="M 632.749355 210.42068 
L 646.273987 200.92006 
L 670.177003 206.38205 
L 656.815027 215.993307 
z
" style="fill:#08745e;fill-opacity:0.8;"/>
    <path clip-path="url(#p80d4fe967e)" d="M 632.749355 210.42068 
L 656.815027 215.993307 
L 656.542897 235.154762 
L 632.662203 229.514298 
z
" style="fill:#065d4c;fill-opacity:0.8;"/>
   </g>
   <g id="Poly3DCollection_33">
    <path clip-path="url(#p80d4fe967e)" d="M 481.090877 179.62453 
L 660.584234 221.383115 
L 757.235918 151.273718 
L 586.358528 115.243457 
z
" style="fill-opacity:0.2;"/>
   </g>
  </g>
 </g>
 <defs>
  <clipPath id="p87821e93a1">
   <rect height="277.2" width="380.454545" x="-30.6" y="-14.4"/>
  </clipPath>
  <clipPath id="p80d4fe967e">
   <rect height="277.2" width="380.454545" x="425.945455" y="-14.4"/>
  </clipPath>
 </defs>
</svg>
