<?xml version="1.0" encoding="utf-8" standalone="no"?>
<!DOCTYPE svg PUBLIC "-//W3C//DTD SVG 1.1//EN"
  "http://www.w3.org/Graphics/SVG/1.1/DTD/svg11.dtd">
<!-- Created with matplotlib (https://matplotlib.org/) -->
<svg height="302.4pt" version="1.1" viewBox="0 0 820.8 302.4" width="820.8pt" xmlns="http://www.w3.org/2000/svg" xmlns:xlink="http://www.w3.org/1999/xlink">
 <defs>
  <style type="text/css">
*{stroke-linecap:butt;stroke-linejoin:round;}
  </style>
 </defs>
 <g id="figure_1">
  <g id="patch_1">
   <path d="M 0 302.4 
L 820.8 302.4 
L 820.8 0 
L 0 0 
z
" style="fill:#ffffff;"/>
  </g>
  <g id="patch_2">
   <path d="M -30.6 262.8 
L 349.854545 262.8 
L 349.854545 -14.4 
L -30.6 -14.4 
z
" style="fill:#ffffff;"/>
  </g>
  <g id="pane3d_1">
   <g id="patch_3">
    <path d="M 19.835129 201.548569 
L 128.723211 133.58541 
L 126.910339 3.718968 
L 11.951034 64.782468 
" style="fill:#f2f2f2;opacity:0.5;stroke:#f2f2f2;stroke-linejoin:miter;"/>
   </g>
  </g>
  <g id="pane3d_2">
   <g id="patch_4">
    <path d="M 128.723211 133.58541 
L 305.111665 171.581202 
L 312.491547 37.79869 
L 126.910339 3.718968 
" style="fill:#e6e6e6;opacity:0.5;stroke:#e6e6e6;stroke-linejoin:miter;"/>
   </g>
  </g>
  <g id="pane3d_3">
   <g id="patch_5">
    <path d="M 19.835129 201.548569 
L 205.419617 245.80086 
L 305.111665 171.581202 
L 128.723211 133.58541 
" style="fill:#ececec;opacity:0.5;stroke:#ececec;stroke-linejoin:miter;"/>
   </g>
  </g>
  <g id="axis3d_1">
   <g id="line2d_1">
    <path d="M 19.835129 201.548569 
L 205.419617 245.80086 
" style="fill:none;stroke:#000000;stroke-linecap:square;stroke-width:0.8;"/>
   </g>
   <g id="Line3DCollection_1">
    <path d="M 42.295817 206.90428 
L 150.133942 138.19749 
L 149.393845 7.847789 
" style="fill:none;stroke:#b0b0b0;stroke-width:0.8;"/>
    <path d="M 87.512337 217.686079 
L 193.184014 147.470895 
L 194.636898 16.156123 
" style="fill:none;stroke:#b0b0b0;stroke-width:0.8;"/>
    <path d="M 133.765289 228.715013 
L 237.148096 156.941187 
L 240.890183 24.649974 
" style="fill:none;stroke:#b0b0b0;stroke-width:0.8;"/>
    <path d="M 181.090721 239.999678 
L 282.055608 166.614702 
L 288.187917 33.335625 
" style="fill:none;stroke:#b0b0b0;stroke-width:0.8;"/>
   </g>
   <g id="xtick_1">
    <g id="line2d_2">
     <path d="M 43.225084 206.312217 
L 40.433807 208.09062 
" style="fill:none;stroke:#000000;stroke-linecap:square;stroke-width:0.8;"/>
    </g>
    <g id="text_1">
     <!-- 00 -->
     <defs>
      <path d="M 42 31.84375 
C 42 37.96875 41.90625 48.421875 37.703125 56.453125 
C 34 63.484375 28.09375 66 22.90625 66 
C 18.09375 66 12 63.78125 8.203125 56.5625 
C 4.203125 49.015625 3.796875 39.671875 3.796875 31.84375 
C 3.796875 26.109375 3.90625 17.375 7 9.734375 
C 11.296875 -0.609375 19 -2 22.90625 -2 
C 27.5 -2 34.5 -0.109375 38.59375 9.4375 
C 41.59375 16.375 42 24.5 42 31.84375 
z
M 22.90625 -0.40625 
C 16.5 -0.40625 12.703125 5.125 11.296875 12.75 
C 10.203125 18.6875 10.203125 27.328125 10.203125 32.953125 
C 10.203125 40.6875 10.203125 47.109375 11.5 53.234375 
C 13.40625 61.78125 19 64.390625 22.90625 64.390625 
C 27 64.390625 32.296875 61.671875 34.203125 53.4375 
C 35.5 47.71875 35.59375 40.984375 35.59375 32.953125 
C 35.59375 26.421875 35.59375 18.375 34.40625 12.453125 
C 32.296875 1.5 26.40625 -0.40625 22.90625 -0.40625 
z
" id="CMR17-48"/>
     </defs>
     <g transform="translate(17.674928 245.619336)rotate(-45)scale(0.22 -0.22)">
      <use transform="scale(0.996264)" xlink:href="#CMR17-48"/>
      <use transform="translate(45.690477 0)scale(0.996264)" xlink:href="#CMR17-48"/>
     </g>
    </g>
   </g>
   <g id="xtick_2">
    <g id="line2d_3">
     <path d="M 88.423674 217.080527 
L 85.686217 218.899473 
" style="fill:none;stroke:#000000;stroke-linecap:square;stroke-width:0.8;"/>
    </g>
    <g id="text_2">
     <!-- 01 -->
     <defs>
      <path d="M 26.59375 63.796875 
C 26.59375 65.890625 26.5 66 25.09375 66 
C 21.203125 61.359375 15.296875 59.890625 9.703125 59.6875 
C 9.40625 59.6875 8.90625 59.6875 8.796875 59.5 
C 8.703125 59.296875 8.703125 59.09375 8.703125 57 
C 11.796875 57 17 57.59375 21 59.984375 
L 21 7.296875 
C 21 3.796875 20.796875 2.59375 12.203125 2.59375 
L 9.203125 2.59375 
L 9.203125 0 
C 14 0.09375 19 0.1875 23.796875 0.1875 
C 28.59375 0.1875 33.59375 0.09375 38.40625 0 
L 38.40625 2.59375 
L 35.40625 2.59375 
C 26.796875 2.59375 26.59375 3.6875 26.59375 7.296875 
z
" id="CMR17-49"/>
     </defs>
     <g transform="translate(62.887353 256.576088)rotate(-45)scale(0.22 -0.22)">
      <use transform="scale(0.996264)" xlink:href="#CMR17-48"/>
      <use transform="translate(45.690477 0)scale(0.996264)" xlink:href="#CMR17-49"/>
     </g>
    </g>
   </g>
   <g id="xtick_3">
    <g id="line2d_4">
     <path d="M 134.657625 228.095506 
L 131.977203 229.956397 
" style="fill:none;stroke:#000000;stroke-linecap:square;stroke-width:0.8;"/>
    </g>
    <g id="text_3">
     <!-- 10 -->
     <g transform="translate(109.137966 267.784434)rotate(-45)scale(0.22 -0.22)">
      <use transform="scale(0.996264)" xlink:href="#CMR17-49"/>
      <use transform="translate(45.690477 0)scale(0.996264)" xlink:href="#CMR17-48"/>
     </g>
    </g>
   </g>
   <g id="xtick_4">
    <g id="line2d_5">
     <path d="M 181.962926 239.365727 
L 179.342936 241.270032 
" style="fill:none;stroke:#000000;stroke-linecap:square;stroke-width:0.8;"/>
    </g>
    <g id="text_4">
     <!-- 11 -->
     <g transform="translate(156.462941 279.25314)rotate(-45)scale(0.22 -0.22)">
      <use transform="scale(0.996264)" xlink:href="#CMR17-49"/>
      <use transform="translate(45.690477 0)scale(0.996264)" xlink:href="#CMR17-49"/>
     </g>
    </g>
   </g>
  </g>
  <g id="axis3d_2">
   <g id="line2d_6">
    <path d="M 305.111665 171.581202 
L 205.419617 245.80086 
" style="fill:none;stroke:#000000;stroke-linecap:square;stroke-width:0.8;"/>
   </g>
   <g id="Line3DCollection_2">
    <path d="M 27.455231 56.547028 
L 34.471044 192.413474 
L 218.858418 235.795817 
" style="fill:none;stroke:#b0b0b0;stroke-width:0.8;"/>
    <path d="M 57.232024 40.730342 
L 62.623407 174.842005 
L 244.674037 216.576366 
" style="fill:none;stroke:#b0b0b0;stroke-width:0.8;"/>
    <path d="M 85.85589 25.526062 
L 89.739382 157.917404 
L 269.496985 198.095948 
" style="fill:none;stroke:#b0b0b0;stroke-width:0.8;"/>
    <path d="M 113.392516 10.899296 
L 115.875164 141.604597 
L 293.383438 180.312741 
" style="fill:none;stroke:#b0b0b0;stroke-width:0.8;"/>
   </g>
   <g id="xtick_5">
    <g id="line2d_7">
     <path d="M 217.315598 235.432825 
L 221.947489 236.522608 
" style="fill:none;stroke:#000000;stroke-linecap:square;stroke-width:0.8;"/>
    </g>
    <g id="text_5">
     <!-- 00 -->
     <g transform="translate(233.243972 248.955025)rotate(-337.5)scale(0.22 -0.22)">
      <use transform="scale(0.996264)" xlink:href="#CMR17-48"/>
      <use transform="translate(45.690477 0)scale(0.996264)" xlink:href="#CMR17-48"/>
     </g>
    </g>
   </g>
   <g id="xtick_6">
    <g id="line2d_8">
     <path d="M 243.15208 216.227463 
L 247.72127 217.274932 
" style="fill:none;stroke:#000000;stroke-linecap:square;stroke-width:0.8;"/>
    </g>
    <g id="text_6">
     <!-- 01 -->
     <g transform="translate(258.797524 229.510599)rotate(-337.5)scale(0.22 -0.22)">
      <use transform="scale(0.996264)" xlink:href="#CMR17-48"/>
      <use transform="translate(45.690477 0)scale(0.996264)" xlink:href="#CMR17-49"/>
     </g>
    </g>
   </g>
   <g id="xtick_7">
    <g id="line2d_9">
     <path d="M 267.995442 197.76033 
L 272.503283 198.767901 
" style="fill:none;stroke:#000000;stroke-linecap:square;stroke-width:0.8;"/>
    </g>
    <g id="text_7">
     <!-- 10 -->
     <g transform="translate(283.368935 210.813511)rotate(-337.5)scale(0.22 -0.22)">
      <use transform="scale(0.996264)" xlink:href="#CMR17-49"/>
      <use transform="translate(45.690477 0)scale(0.996264)" xlink:href="#CMR17-48"/>
     </g>
    </g>
   </g>
   <g id="xtick_8">
    <g id="line2d_10">
     <path d="M 291.901865 179.989663 
L 296.349691 180.959573 
" style="fill:none;stroke:#000000;stroke-linecap:square;stroke-width:0.8;"/>
    </g>
    <g id="text_8">
     <!-- 11 -->
     <g transform="translate(307.013762 192.821489)rotate(-337.5)scale(0.22 -0.22)">
      <use transform="scale(0.996264)" xlink:href="#CMR17-49"/>
      <use transform="translate(45.690477 0)scale(0.996264)" xlink:href="#CMR17-49"/>
     </g>
    </g>
   </g>
  </g>
  <g id="axis3d_3">
   <g id="line2d_11">
    <path d="M 305.111665 171.581202 
L 312.491547 37.79869 
" style="fill:none;stroke:#000000;stroke-linecap:square;stroke-width:0.8;"/>
   </g>
   <g id="Line3DCollection_3">
    <path d="M 305.459608 165.273689 
L 128.637561 127.449809 
L 19.464023 195.110956 
" style="fill:none;stroke:#b0b0b0;stroke-width:0.8;"/>
    <path d="M 306.904005 139.089665 
L 128.282195 101.992915 
L 17.922826 168.375686 
" style="fill:none;stroke:#b0b0b0;stroke-width:0.8;"/>
    <path d="M 308.378367 112.362431 
L 127.91977 76.030284 
L 16.348586 141.067191 
" style="fill:none;stroke:#b0b0b0;stroke-width:0.8;"/>
    <path d="M 309.883636 85.074904 
L 127.550072 49.546697 
L 14.740226 113.166837 
" style="fill:none;stroke:#b0b0b0;stroke-width:0.8;"/>
    <path d="M 311.420795 57.209282 
L 127.172881 22.526312 
L 13.096627 84.655172 
" style="fill:none;stroke:#b0b0b0;stroke-width:0.8;"/>
   </g>
   <g id="xtick_9">
    <g id="line2d_12">
     <path d="M 303.984191 164.958084 
L 308.413516 165.905558 
" style="fill:none;stroke:#000000;stroke-linecap:square;stroke-width:0.8;"/>
    </g>
    <g id="text_9">
     <!-- $0.0$ -->
     <defs>
      <path d="M 18.40625 4.796875 
C 18.40625 7.6875 16 9.6875 13.59375 9.6875 
C 10.703125 9.6875 8.703125 7.296875 8.703125 4.890625 
C 8.703125 2 11.09375 0 13.5 0 
C 16.40625 0 18.40625 2.390625 18.40625 4.796875 
z
" id="CMMI12-58"/>
     </defs>
     <g transform="translate(310.981674 178.558617)scale(0.22 -0.22)">
      <use transform="scale(0.996264)" xlink:href="#CMR17-48"/>
      <use transform="translate(45.690477 0)scale(0.996264)" xlink:href="#CMMI12-58"/>
      <use transform="translate(72.787654 0)scale(0.996264)" xlink:href="#CMR17-48"/>
     </g>
    </g>
   </g>
   <g id="xtick_10">
    <g id="line2d_13">
     <path d="M 305.412939 138.779996 
L 309.889274 139.709655 
" style="fill:none;stroke:#000000;stroke-linecap:square;stroke-width:0.8;"/>
    </g>
    <g id="text_10">
     <!-- $0.1$ -->
     <g transform="translate(312.613047 152.411038)scale(0.22 -0.22)">
      <use transform="scale(0.996264)" xlink:href="#CMR17-48"/>
      <use transform="translate(45.690477 0)scale(0.996264)" xlink:href="#CMMI12-58"/>
      <use transform="translate(72.787654 0)scale(0.996264)" xlink:href="#CMR17-49"/>
     </g>
    </g>
   </g>
   <g id="xtick_11">
    <g id="line2d_14">
     <path d="M 306.871318 112.059013 
L 311.395668 112.969911 
" style="fill:none;stroke:#000000;stroke-linecap:square;stroke-width:0.8;"/>
    </g>
    <g id="text_11">
     <!-- $0.2$ -->
     <defs>
      <path d="M 41.703125 15.46875 
L 39.90625 15.46875 
C 38.90625 8.390625 38.09375 7.1875 37.703125 6.59375 
C 37.203125 5.796875 30 5.796875 28.59375 5.796875 
L 9.40625 5.796875 
C 13 9.6875 20 16.765625 28.5 24.9375 
C 34.59375 30.71875 41.703125 37.5 41.703125 47.390625 
C 41.703125 59.1875 32.296875 66 21.796875 66 
C 10.796875 66 4.09375 56.296875 4.09375 47.296875 
C 4.09375 43.390625 7 42.890625 8.203125 42.890625 
C 9.203125 42.890625 12.203125 43.484375 12.203125 46.984375 
C 12.203125 50.09375 9.59375 51 8.203125 51 
C 7.59375 51 7 50.890625 6.59375 50.6875 
C 8.5 59.1875 14.296875 63.390625 20.40625 63.390625 
C 29.09375 63.390625 34.796875 56.5 34.796875 47.390625 
C 34.796875 38.703125 29.703125 31.21875 24 24.734375 
L 4.09375 2.296875 
L 4.09375 0 
L 39.296875 0 
z
" id="CMR17-50"/>
     </defs>
     <g transform="translate(314.278191 125.722182)scale(0.22 -0.22)">
      <use transform="scale(0.996264)" xlink:href="#CMR17-48"/>
      <use transform="translate(45.690477 0)scale(0.996264)" xlink:href="#CMMI12-58"/>
      <use transform="translate(72.787654 0)scale(0.996264)" xlink:href="#CMR17-50"/>
     </g>
    </g>
   </g>
   <g id="xtick_12">
    <g id="line2d_15">
     <path d="M 308.360258 84.77807 
L 312.933665 85.669211 
" style="fill:none;stroke:#000000;stroke-linecap:square;stroke-width:0.8;"/>
    </g>
    <g id="text_12">
     <!-- $0.3$ -->
     <defs>
      <path d="M 22.09375 34 
C 31 34 34.90625 26.140625 34.90625 17.09375 
C 34.90625 5.03125 28.5 0.390625 22.703125 0.390625 
C 17.40625 0.390625 8.796875 3.015625 6.09375 10.796875 
C 6.59375 10.59375 7.09375 10.59375 7.59375 10.59375 
C 10 10.59375 11.796875 12.1875 11.796875 14.796875 
C 11.796875 17.6875 9.59375 19 7.59375 19 
C 5.90625 19 3.296875 18.1875 3.296875 14.484375 
C 3.296875 5.234375 12.296875 -2 22.90625 -2 
C 34 -2 42.5 6.75 42.5 16.984375 
C 42.5 26.84375 34.5 34 25 35.09375 
C 32.59375 36.671875 39.90625 43.375 39.90625 52.390625 
C 39.90625 60.25 32 66 23 66 
C 13.90625 66 5.90625 60.34375 5.90625 52.296875 
C 5.90625 48.796875 8.5 48.1875 9.796875 48.1875 
C 11.90625 48.1875 13.703125 49.484375 13.703125 52.09375 
C 13.703125 54.6875 11.90625 56 9.796875 56 
C 9.40625 56 8.90625 56 8.5 55.796875 
C 11.40625 62.484375 19.296875 63.6875 22.796875 63.6875 
C 26.296875 63.6875 32.90625 61.96875 32.90625 52.296875 
C 32.90625 49.484375 32.5 44.546875 29.09375 40.21875 
C 26.09375 36.390625 22.703125 36.1875 19.40625 35.890625 
C 18.90625 35.890625 16.59375 35.6875 16.203125 35.6875 
C 15.5 35.59375 15.09375 35.5 15.09375 34.796875 
C 15.09375 34.09375 15.203125 34 17.203125 34 
z
" id="CMR17-51"/>
     </defs>
     <g transform="translate(315.978165 98.475066)scale(0.22 -0.22)">
      <use transform="scale(0.996264)" xlink:href="#CMR17-48"/>
      <use transform="translate(45.690477 0)scale(0.996264)" xlink:href="#CMMI12-58"/>
      <use transform="translate(72.787654 0)scale(0.996264)" xlink:href="#CMR17-51"/>
     </g>
    </g>
   </g>
   <g id="xtick_13">
    <g id="line2d_16">
     <path d="M 309.880731 56.919379 
L 314.504268 57.789717 
" style="fill:none;stroke:#000000;stroke-linecap:square;stroke-width:0.8;"/>
    </g>
    <g id="text_13">
     <!-- $0.4$ -->
     <defs>
      <path d="M 33.59375 64.796875 
C 33.59375 66.890625 33.5 67 31.703125 67 
L 2 19.59375 
L 2 17 
L 27.796875 17 
L 27.796875 7.1875 
C 27.796875 3.59375 27.59375 2.59375 20.59375 2.59375 
L 18.703125 2.59375 
L 18.703125 0 
C 21.90625 0.1875 27.296875 0.1875 30.703125 0.1875 
C 34.09375 0.1875 39.5 0.1875 42.703125 0 
L 42.703125 2.59375 
L 40.796875 2.59375 
C 33.796875 2.59375 33.59375 3.59375 33.59375 7.1875 
L 33.59375 17 
L 43.796875 17 
L 43.796875 19.59375 
L 33.59375 19.59375 
z
M 28.09375 58.171875 
L 28.09375 19.59375 
L 4 19.59375 
z
" id="CMR17-52"/>
     </defs>
     <g transform="translate(317.714074 70.65199)scale(0.22 -0.22)">
      <use transform="scale(0.996264)" xlink:href="#CMR17-48"/>
      <use transform="translate(45.690477 0)scale(0.996264)" xlink:href="#CMMI12-58"/>
      <use transform="translate(72.787654 0)scale(0.996264)" xlink:href="#CMR17-52"/>
     </g>
    </g>
   </g>
  </g>
  <g id="axes_1">
   <g id="Poly3DCollection_1">
    <path clip-path="url(#p7c644b1b54)" d="M 133.006504 133.79831 
L 133.02628 135.405935 
L 154.43035 140.021267 
L 154.423875 138.408096 
z
" style="fill:#ba0c2f;fill-opacity:0.8;"/>
    <path clip-path="url(#p7c644b1b54)" d="M 120.20708 141.813485 
L 120.235079 143.430733 
L 133.02628 135.405935 
L 133.006504 133.79831 
z
" style="fill:#5d0618;fill-opacity:0.8;"/>
    <path clip-path="url(#p7c644b1b54)" d="M 120.235079 143.430733 
L 141.76766 148.130844 
L 154.43035 140.021267 
L 133.02628 135.405935 
z
" style="fill:#a30a29;fill-opacity:0.8;"/>
    <path clip-path="url(#p7c644b1b54)" d="M 120.20708 141.813485 
L 133.006504 133.79831 
L 154.423875 138.408096 
L 141.753123 146.508002 
z
" style="fill:#74081d;fill-opacity:0.8;"/>
    <path clip-path="url(#p7c644b1b54)" d="M 141.753123 146.508002 
L 154.423875 138.408096 
L 154.43035 140.021267 
L 141.76766 148.130844 
z
" style="fill:#ba0c2f;fill-opacity:0.8;"/>
    <path clip-path="url(#p7c644b1b54)" d="M 120.20708 141.813485 
L 141.753123 146.508002 
L 141.76766 148.130844 
L 120.235079 143.430733 
z
" style="fill:#5d0618;fill-opacity:0.8;"/>
   </g>
   <g id="Poly3DCollection_2">
    <path clip-path="url(#p7c644b1b54)" d="M 176.067218 143.066519 
L 176.080744 139.986657 
L 197.980049 144.683804 
L 197.940127 147.774353 
z
" style="fill:#5d0618;fill-opacity:0.8;"/>
    <path clip-path="url(#p7c644b1b54)" d="M 163.528591 151.252507 
L 163.527093 148.1541 
L 176.080744 139.986657 
L 176.067218 143.066519 
z
" style="fill:#ba0c2f;fill-opacity:0.8;"/>
    <path clip-path="url(#p7c644b1b54)" d="M 163.528591 151.252507 
L 176.067218 143.066519 
L 197.940127 147.774353 
L 185.537168 156.047803 
z
" style="fill:#74081d;fill-opacity:0.8;"/>
    <path clip-path="url(#p7c644b1b54)" d="M 163.527093 148.1541 
L 185.562395 152.938616 
L 197.980049 144.683804 
L 176.080744 139.986657 
z
" style="fill:#a30a29;fill-opacity:0.8;"/>
    <path clip-path="url(#p7c644b1b54)" d="M 185.537168 156.047803 
L 197.940127 147.774353 
L 197.980049 144.683804 
L 185.562395 152.938616 
z
" style="fill:#5d0618;fill-opacity:0.8;"/>
    <path clip-path="url(#p7c644b1b54)" d="M 163.528591 151.252507 
L 185.537168 156.047803 
L 185.562395 152.938616 
L 163.527093 148.1541 
z
" style="fill:#ba0c2f;fill-opacity:0.8;"/>
   </g>
   <g id="Poly3DCollection_3">
    <path clip-path="url(#p7c644b1b54)" d="M 107.171931 149.976273 
L 107.021757 143.286471 
L 128.753608 148.044762 
L 128.847768 154.75788 
z
" style="fill:#5d0618;fill-opacity:0.8;"/>
    <path clip-path="url(#p7c644b1b54)" d="M 93.894485 158.290792 
L 93.70797 151.560531 
L 107.021757 143.286471 
L 107.171931 149.976273 
z
" style="fill:#ba0c2f;fill-opacity:0.8;"/>
    <path clip-path="url(#p7c644b1b54)" d="M 93.894485 158.290792 
L 107.171931 149.976273 
L 128.847768 154.75788 
L 115.701234 163.161934 
z
" style="fill:#74081d;fill-opacity:0.8;"/>
    <path clip-path="url(#p7c644b1b54)" d="M 93.70797 151.560531 
L 115.571408 156.408157 
L 128.753608 148.044762 
L 107.021757 143.286471 
z
" style="fill:#a30a29;fill-opacity:0.8;"/>
    <path clip-path="url(#p7c644b1b54)" d="M 115.701234 163.161934 
L 128.847768 154.75788 
L 128.753608 148.044762 
L 115.571408 156.408157 
z
" style="fill:#5d0618;fill-opacity:0.8;"/>
    <path clip-path="url(#p7c644b1b54)" d="M 93.894485 158.290792 
L 115.701234 163.161934 
L 115.571408 156.408157 
L 93.70797 151.560531 
z
" style="fill:#ba0c2f;fill-opacity:0.8;"/>
   </g>
   <g id="Poly3DCollection_4">
    <path clip-path="url(#p7c644b1b54)" d="M 220.046274 152.532388 
L 220.241166 143.49539 
L 242.66455 148.272868 
L 242.389411 157.341432 
z
" style="fill:#5d0618;fill-opacity:0.8;"/>
    <path clip-path="url(#p7c644b1b54)" d="M 207.782617 160.894709 
L 207.93569 151.802938 
L 220.241166 143.49539 
L 220.046274 152.532388 
z
" style="fill:#ba0c2f;fill-opacity:0.8;"/>
    <path clip-path="url(#p7c644b1b54)" d="M 207.782617 160.894709 
L 220.046274 152.532388 
L 242.389411 157.341432 
L 230.268784 165.794064 
z
" style="fill:#74081d;fill-opacity:0.8;"/>
    <path clip-path="url(#p7c644b1b54)" d="M 207.93569 151.802938 
L 230.503143 156.670456 
L 242.66455 148.272868 
L 220.241166 143.49539 
z
" style="fill:#a30a29;fill-opacity:0.8;"/>
    <path clip-path="url(#p7c644b1b54)" d="M 230.268784 165.794064 
L 242.389411 157.341432 
L 242.66455 148.272868 
L 230.503143 156.670456 
z
" style="fill:#5d0618;fill-opacity:0.8;"/>
    <path clip-path="url(#p7c644b1b54)" d="M 207.782617 160.894709 
L 230.268784 165.794064 
L 230.503143 156.670456 
L 207.93569 151.802938 
z
" style="fill:#ba0c2f;fill-opacity:0.8;"/>
   </g>
   <g id="Poly3DCollection_5">
    <path clip-path="url(#p7c644b1b54)" d="M 150.75656 159.590876 
L 150.75842 159.93017 
L 172.900998 164.816569 
L 172.902083 164.476094 
z
" style="fill:#ba0c2f;fill-opacity:0.8;"/>
    <path clip-path="url(#p7c644b1b54)" d="M 137.744547 168.08592 
L 137.748168 168.427263 
L 150.75842 159.93017 
L 150.75656 159.590876 
z
" style="fill:#5d0618;fill-opacity:0.8;"/>
    <path clip-path="url(#p7c644b1b54)" d="M 137.748168 168.427263 
L 160.028934 173.406147 
L 172.900998 164.816569 
L 150.75842 159.93017 
z
" style="fill:#a30a29;fill-opacity:0.8;"/>
    <path clip-path="url(#p7c644b1b54)" d="M 137.744547 168.08592 
L 150.75656 159.590876 
L 172.902083 164.476094 
L 160.028295 173.063613 
z
" style="fill:#74081d;fill-opacity:0.8;"/>
    <path clip-path="url(#p7c644b1b54)" d="M 160.028295 173.063613 
L 172.902083 164.476094 
L 172.900998 164.816569 
L 160.028934 173.406147 
z
" style="fill:#ba0c2f;fill-opacity:0.8;"/>
    <path clip-path="url(#p7c644b1b54)" d="M 137.744547 168.08592 
L 160.028295 173.063613 
L 160.028934 173.406147 
L 137.748168 168.427263 
z
" style="fill:#5d0618;fill-opacity:0.8;"/>
   </g>
   <g id="Poly3DCollection_6">
    <path clip-path="url(#p7c644b1b54)" d="M 80.367923 166.76131 
L 80.492653 170.528244 
L 102.399507 175.504569 
L 102.306697 171.724527 
z
" style="fill:#ba0c2f;fill-opacity:0.8;"/>
    <path clip-path="url(#p7c644b1b54)" d="M 66.585167 175.392261 
L 66.731637 179.181938 
L 80.492653 170.528244 
L 80.367923 166.76131 
z
" style="fill:#5d0618;fill-opacity:0.8;"/>
    <path clip-path="url(#p7c644b1b54)" d="M 66.731637 179.181938 
L 88.771239 184.25308 
L 102.399507 175.504569 
L 80.492653 170.528244 
z
" style="fill:#a30a29;fill-opacity:0.8;"/>
    <path clip-path="url(#p7c644b1b54)" d="M 66.585167 175.392261 
L 80.367923 166.76131 
L 102.306697 171.724527 
L 88.657072 180.450187 
z
" style="fill:#74081d;fill-opacity:0.8;"/>
    <path clip-path="url(#p7c644b1b54)" d="M 88.657072 180.450187 
L 102.306697 171.724527 
L 102.399507 175.504569 
L 88.771239 184.25308 
z
" style="fill:#ba0c2f;fill-opacity:0.8;"/>
    <path clip-path="url(#p7c644b1b54)" d="M 66.585167 175.392261 
L 88.657072 180.450187 
L 88.771239 184.25308 
L 66.731637 179.181938 
z
" style="fill:#5d0618;fill-opacity:0.8;"/>
   </g>
   <g id="Poly3DCollection_7">
    <path clip-path="url(#p7c644b1b54)" d="M 252.999597 170.746723 
L 264.973368 162.202308 
L 287.80206 167.115861 
L 275.97907 175.75356 
z
" style="fill:#74081d;fill-opacity:0.8;"/>
    <path clip-path="url(#p7c644b1b54)" d="M 264.973368 162.202308 
L 266.738348 117.225324 
L 289.981088 121.977883 
L 287.80206 167.115861 
z
" style="fill:#5d0618;fill-opacity:0.8;"/>
    <path clip-path="url(#p7c644b1b54)" d="M 252.999597 170.746723 
L 254.568578 125.490362 
L 266.738348 117.225324 
L 264.973368 162.202308 
z
" style="fill:#ba0c2f;fill-opacity:0.8;"/>
    <path clip-path="url(#p7c644b1b54)" d="M 275.97907 175.75356 
L 287.80206 167.115861 
L 289.981088 121.977883 
L 277.967696 130.334766 
z
" style="fill:#5d0618;fill-opacity:0.8;"/>
    <path clip-path="url(#p7c644b1b54)" d="M 252.999597 170.746723 
L 275.97907 175.75356 
L 277.967696 130.334766 
L 254.568578 125.490362 
z
" style="fill:#ba0c2f;fill-opacity:0.8;"/>
    <path clip-path="url(#p7c644b1b54)" d="M 254.568578 125.490362 
L 277.967696 130.334766 
L 289.981088 121.977883 
L 266.738348 117.225324 
z
" style="fill:#a30a29;fill-opacity:0.8;"/>
   </g>
   <g id="Poly3DCollection_8">
    <path clip-path="url(#p7c644b1b54)" d="M 240.798041 179.453683 
L 241.07417 170.242301 
L 264.292058 175.31269 
L 263.929921 184.556487 
z
" style="fill:#5d0618;fill-opacity:0.8;"/>
    <path clip-path="url(#p7c644b1b54)" d="M 228.362138 188.327872 
L 228.595327 179.060248 
L 241.07417 170.242301 
L 240.798041 179.453683 
z
" style="fill:#ba0c2f;fill-opacity:0.8;"/>
    <path clip-path="url(#p7c644b1b54)" d="M 228.362138 188.327872 
L 240.798041 179.453683 
L 263.929921 184.556487 
L 251.648062 193.529429 
z
" style="fill:#74081d;fill-opacity:0.8;"/>
    <path clip-path="url(#p7c644b1b54)" d="M 228.595327 179.060248 
L 251.968421 184.229125 
L 264.292058 175.31269 
L 241.07417 170.242301 
z
" style="fill:#a30a29;fill-opacity:0.8;"/>
    <path clip-path="url(#p7c644b1b54)" d="M 251.648062 193.529429 
L 263.929921 184.556487 
L 264.292058 175.31269 
L 251.968421 184.229125 
z
" style="fill:#5d0618;fill-opacity:0.8;"/>
    <path clip-path="url(#p7c644b1b54)" d="M 228.362138 188.327872 
L 251.648062 193.529429 
L 251.968421 184.229125 
L 228.595327 179.060248 
z
" style="fill:#ba0c2f;fill-opacity:0.8;"/>
   </g>
   <g id="Poly3DCollection_9">
    <path clip-path="url(#p7c644b1b54)" d="M 169.580502 186.943903 
L 169.579844 187.289719 
L 192.50064 192.477024 
L 192.504454 192.129996 
z
" style="fill:#ba0c2f;fill-opacity:0.8;"/>
    <path clip-path="url(#p7c644b1b54)" d="M 156.353312 195.963237 
L 156.354474 196.311155 
L 169.579844 187.289719 
L 169.580502 186.943903 
z
" style="fill:#5d0618;fill-opacity:0.8;"/>
    <path clip-path="url(#p7c644b1b54)" d="M 156.354474 196.311155 
L 179.424068 201.599662 
L 192.50064 192.477024 
L 169.579844 187.289719 
z
" style="fill:#a30a29;fill-opacity:0.8;"/>
    <path clip-path="url(#p7c644b1b54)" d="M 156.353312 195.963237 
L 169.580502 186.943903 
L 192.504454 192.129996 
L 179.426103 201.250523 
z
" style="fill:#74081d;fill-opacity:0.8;"/>
    <path clip-path="url(#p7c644b1b54)" d="M 179.426103 201.250523 
L 192.504454 192.129996 
L 192.50064 192.477024 
L 179.424068 201.599662 
z
" style="fill:#ba0c2f;fill-opacity:0.8;"/>
    <path clip-path="url(#p7c644b1b54)" d="M 156.353312 195.963237 
L 179.426103 201.250523 
L 179.424068 201.599662 
L 156.354474 196.311155 
z
" style="fill:#5d0618;fill-opacity:0.8;"/>
   </g>
   <g id="Poly3DCollection_10">
    <path clip-path="url(#p7c644b1b54)" d="M 182.556433 178.095897 
L 195.288195 169.414385 
L 217.918839 174.406618 
L 205.333003 183.183676 
z
" style="fill:#74081d;fill-opacity:0.8;"/>
    <path clip-path="url(#p7c644b1b54)" d="M 195.288195 169.414385 
L 195.967263 112.758604 
L 219.108045 117.546177 
L 217.918839 174.406618 
z
" style="fill:#5d0618;fill-opacity:0.8;"/>
    <path clip-path="url(#p7c644b1b54)" d="M 182.556433 178.095897 
L 182.95606 121.08496 
L 195.967263 112.758604 
L 195.288195 169.414385 
z
" style="fill:#ba0c2f;fill-opacity:0.8;"/>
    <path clip-path="url(#p7c644b1b54)" d="M 205.333003 183.183676 
L 217.918839 174.406618 
L 219.108045 117.546177 
L 206.249473 125.966236 
z
" style="fill:#5d0618;fill-opacity:0.8;"/>
    <path clip-path="url(#p7c644b1b54)" d="M 182.556433 178.095897 
L 205.333003 183.183676 
L 206.249473 125.966236 
L 182.95606 121.08496 
z
" style="fill:#ba0c2f;fill-opacity:0.8;"/>
    <path clip-path="url(#p7c644b1b54)" d="M 182.95606 121.08496 
L 206.249473 125.966236 
L 219.108045 117.546177 
L 195.967263 112.758604 
z
" style="fill:#a30a29;fill-opacity:0.8;"/>
   </g>
   <g id="Poly3DCollection_11">
    <path clip-path="url(#p7c644b1b54)" d="M 110.973003 185.564033 
L 124.485725 176.742096 
L 146.908975 181.814915 
L 133.53703 190.734732 
z
" style="fill:#74081d;fill-opacity:0.8;"/>
    <path clip-path="url(#p7c644b1b54)" d="M 124.485725 176.742096 
L 123.822926 134.966657 
L 146.613475 139.889601 
L 146.908975 181.814915 
z
" style="fill:#5d0618;fill-opacity:0.8;"/>
    <path clip-path="url(#p7c644b1b54)" d="M 110.973003 185.564033 
L 110.079255 143.528526 
L 123.822926 134.966657 
L 124.485725 176.742096 
z
" style="fill:#ba0c2f;fill-opacity:0.8;"/>
    <path clip-path="url(#p7c644b1b54)" d="M 133.53703 190.734732 
L 146.908975 181.814915 
L 146.613475 139.889601 
L 133.015223 148.548049 
z
" style="fill:#5d0618;fill-opacity:0.8;"/>
    <path clip-path="url(#p7c644b1b54)" d="M 110.973003 185.564033 
L 133.53703 190.734732 
L 133.015223 148.548049 
L 110.079255 143.528526 
z
" style="fill:#ba0c2f;fill-opacity:0.8;"/>
    <path clip-path="url(#p7c644b1b54)" d="M 110.079255 143.528526 
L 133.015223 148.548049 
L 146.613475 139.889601 
L 123.822926 134.966657 
z
" style="fill:#a30a29;fill-opacity:0.8;"/>
   </g>
   <g id="Poly3DCollection_12">
    <path clip-path="url(#p7c644b1b54)" d="M 97.199019 194.556539 
L 97.301916 198.395852 
L 119.973795 203.680734 
L 119.905093 199.827978 
z
" style="fill:#ba0c2f;fill-opacity:0.8;"/>
    <path clip-path="url(#p7c644b1b54)" d="M 83.15612 203.724608 
L 83.281614 207.587244 
L 97.301916 198.395852 
L 97.199019 194.556539 
z
" style="fill:#5d0618;fill-opacity:0.8;"/>
    <path clip-path="url(#p7c644b1b54)" d="M 83.281614 207.587244 
L 106.096377 212.975942 
L 119.973795 203.680734 
L 97.301916 198.395852 
z
" style="fill:#a30a29;fill-opacity:0.8;"/>
    <path clip-path="url(#p7c644b1b54)" d="M 83.15612 203.724608 
L 97.199019 194.556539 
L 119.905093 199.827978 
L 106.005507 209.09976 
z
" style="fill:#74081d;fill-opacity:0.8;"/>
    <path clip-path="url(#p7c644b1b54)" d="M 106.005507 209.09976 
L 119.905093 199.827978 
L 119.973795 203.680734 
L 106.096377 212.975942 
z
" style="fill:#ba0c2f;fill-opacity:0.8;"/>
    <path clip-path="url(#p7c644b1b54)" d="M 83.15612 203.724608 
L 106.005507 209.09976 
L 106.096377 212.975942 
L 83.281614 207.587244 
z
" style="fill:#5d0618;fill-opacity:0.8;"/>
   </g>
   <g id="Poly3DCollection_13">
    <path clip-path="url(#p7c644b1b54)" d="M 215.68507 197.374155 
L 215.749759 194.174631 
L 239.221688 199.466576 
L 239.126685 202.677359 
z
" style="fill:#5d0618;fill-opacity:0.8;"/>
    <path clip-path="url(#p7c644b1b54)" d="M 202.759755 206.597586 
L 202.808495 203.378528 
L 215.749759 194.174631 
L 215.68507 197.374155 
z
" style="fill:#ba0c2f;fill-opacity:0.8;"/>
    <path clip-path="url(#p7c644b1b54)" d="M 202.759755 206.597586 
L 215.68507 197.374155 
L 239.126685 202.677359 
L 226.358714 212.005447 
z
" style="fill:#74081d;fill-opacity:0.8;"/>
    <path clip-path="url(#p7c644b1b54)" d="M 202.808495 203.378528 
L 226.438181 208.775042 
L 239.221688 199.466576 
L 215.749759 194.174631 
z
" style="fill:#a30a29;fill-opacity:0.8;"/>
    <path clip-path="url(#p7c644b1b54)" d="M 226.358714 212.005447 
L 239.126685 202.677359 
L 239.221688 199.466576 
L 226.438181 208.775042 
z
" style="fill:#5d0618;fill-opacity:0.8;"/>
    <path clip-path="url(#p7c644b1b54)" d="M 202.759755 206.597586 
L 226.358714 212.005447 
L 226.438181 208.775042 
L 202.808495 203.378528 
z
" style="fill:#ba0c2f;fill-opacity:0.8;"/>
   </g>
   <g id="Poly3DCollection_14">
    <path clip-path="url(#p7c644b1b54)" d="M 142.867492 205.158925 
L 142.806856 198.20811 
L 166.094263 203.575025 
L 166.090582 210.550394 
z
" style="fill:#5d0618;fill-opacity:0.8;"/>
    <path clip-path="url(#p7c644b1b54)" d="M 129.115383 214.53619 
L 129.015695 207.542777 
L 142.806856 198.20811 
L 142.867492 205.158925 
z
" style="fill:#ba0c2f;fill-opacity:0.8;"/>
    <path clip-path="url(#p7c644b1b54)" d="M 129.115383 214.53619 
L 142.867492 205.158925 
L 166.090582 210.550394 
L 152.490229 220.034952 
z
" style="fill:#74081d;fill-opacity:0.8;"/>
    <path clip-path="url(#p7c644b1b54)" d="M 129.015695 207.542777 
L 152.455701 213.016798 
L 166.094263 203.575025 
L 142.806856 198.20811 
z
" style="fill:#a30a29;fill-opacity:0.8;"/>
    <path clip-path="url(#p7c644b1b54)" d="M 152.490229 220.034952 
L 166.090582 210.550394 
L 166.094263 203.575025 
L 152.455701 213.016798 
z
" style="fill:#5d0618;fill-opacity:0.8;"/>
    <path clip-path="url(#p7c644b1b54)" d="M 129.115383 214.53619 
L 152.490229 220.034952 
L 152.455701 213.016798 
L 129.015695 207.542777 
z
" style="fill:#ba0c2f;fill-opacity:0.8;"/>
   </g>
   <g id="Poly3DCollection_15">
    <path clip-path="url(#p7c644b1b54)" d="M 189.578826 216.003421 
L 189.561934 217.705416 
L 213.303535 223.22705 
L 213.336793 221.519067 
z
" style="fill:#ba0c2f;fill-opacity:0.8;"/>
    <path clip-path="url(#p7c644b1b54)" d="M 176.134628 225.597124 
L 176.126812 227.309507 
L 189.561934 217.705416 
L 189.578826 216.003421 
z
" style="fill:#5d0618;fill-opacity:0.8;"/>
    <path clip-path="url(#p7c644b1b54)" d="M 176.126812 227.309507 
L 200.028865 232.942225 
L 213.303535 223.22705 
L 189.561934 217.705416 
z
" style="fill:#a30a29;fill-opacity:0.8;"/>
    <path clip-path="url(#p7c644b1b54)" d="M 176.134628 225.597124 
L 189.578826 216.003421 
L 213.336793 221.519067 
L 200.05327 231.22381 
z
" style="fill:#74081d;fill-opacity:0.8;"/>
    <path clip-path="url(#p7c644b1b54)" d="M 200.05327 231.22381 
L 213.336793 221.519067 
L 213.303535 223.22705 
L 200.028865 232.942225 
z
" style="fill:#ba0c2f;fill-opacity:0.8;"/>
    <path clip-path="url(#p7c644b1b54)" d="M 176.134628 225.597124 
L 200.05327 231.22381 
L 200.028865 232.942225 
L 176.126812 227.309507 
z
" style="fill:#5d0618;fill-opacity:0.8;"/>
   </g>
   <g id="Poly3DCollection_16">
    <path clip-path="url(#p7c644b1b54)" d="M 25.367627 194.495047 
L 203.798177 236.665526 
L 299.917787 165.851855 
L 130.003837 129.435142 
z
" style="fill-opacity:0.15;"/>
   </g>
   <g id="Poly3DCollection_17">
    <path clip-path="url(#p7c644b1b54)" d="M 38.221396 193.154042 
L 52.538868 184.188245 
L 74.745002 189.343618 
L 60.562844 198.409705 
z
" style="fill:#74081d;fill-opacity:0.8;"/>
    <path clip-path="url(#p7c644b1b54)" d="M 52.538868 184.188245 
L 46.933544 57.750519 
L 70.222556 62.427839 
L 74.745002 189.343618 
z
" style="fill:#5d0618;fill-opacity:0.8;"/>
    <path clip-path="url(#p7c644b1b54)" d="M 38.221396 193.154042 
L 31.836896 65.886594 
L 46.933544 57.750519 
L 52.538868 184.188245 
z
" style="fill:#ba0c2f;fill-opacity:0.8;"/>
    <path clip-path="url(#p7c644b1b54)" d="M 60.562844 198.409705 
L 74.745002 189.343618 
L 70.222556 62.427839 
L 55.274545 70.659531 
z
" style="fill:#5d0618;fill-opacity:0.8;"/>
    <path clip-path="url(#p7c644b1b54)" d="M 38.221396 193.154042 
L 60.562844 198.409705 
L 55.274545 70.659531 
L 31.836896 65.886594 
z
" style="fill:#ba0c2f;fill-opacity:0.8;"/>
    <path clip-path="url(#p7c644b1b54)" d="M 31.836896 65.886594 
L 55.274545 70.659531 
L 70.222556 62.427839 
L 46.933544 57.750519 
z
" style="fill:#a30a29;fill-opacity:0.8;"/>
   </g>
  </g>
  <g id="patch_6">
   <path d="M 425.945455 262.8 
L 806.4 262.8 
L 806.4 -14.4 
L 425.945455 -14.4 
z
" style="fill:#ffffff;"/>
  </g>
  <g id="pane3d_4">
   <g id="patch_7">
    <path d="M 476.380584 201.548569 
L 585.268665 133.58541 
L 583.455794 3.718968 
L 468.496488 64.782468 
" style="fill:#f2f2f2;opacity:0.5;stroke:#f2f2f2;stroke-linejoin:miter;"/>
   </g>
  </g>
  <g id="pane3d_5">
   <g id="patch_8">
    <path d="M 585.268665 133.58541 
L 761.65712 171.581202 
L 769.037001 37.79869 
L 583.455794 3.718968 
" style="fill:#e6e6e6;opacity:0.5;stroke:#e6e6e6;stroke-linejoin:miter;"/>
   </g>
  </g>
  <g id="pane3d_6">
   <g id="patch_9">
    <path d="M 476.380584 201.548569 
L 661.965072 245.80086 
L 761.65712 171.581202 
L 585.268665 133.58541 
" style="fill:#ececec;opacity:0.5;stroke:#ececec;stroke-linejoin:miter;"/>
   </g>
  </g>
  <g id="axis3d_4">
   <g id="line2d_17">
    <path d="M 476.380584 201.548569 
L 661.965072 245.80086 
" style="fill:none;stroke:#000000;stroke-linecap:square;stroke-width:0.8;"/>
   </g>
   <g id="Line3DCollection_4">
    <path d="M 498.841271 206.90428 
L 606.679397 138.19749 
L 605.9393 7.847789 
" style="fill:none;stroke:#b0b0b0;stroke-width:0.8;"/>
    <path d="M 544.057792 217.686079 
L 649.729469 147.470895 
L 651.182353 16.156123 
" style="fill:none;stroke:#b0b0b0;stroke-width:0.8;"/>
    <path d="M 590.310744 228.715013 
L 693.693551 156.941187 
L 697.435637 24.649974 
" style="fill:none;stroke:#b0b0b0;stroke-width:0.8;"/>
    <path d="M 637.636176 239.999678 
L 738.601063 166.614702 
L 744.733372 33.335625 
" style="fill:none;stroke:#b0b0b0;stroke-width:0.8;"/>
   </g>
   <g id="xtick_14">
    <g id="line2d_18">
     <path d="M 499.770538 206.312217 
L 496.979262 208.09062 
" style="fill:none;stroke:#000000;stroke-linecap:square;stroke-width:0.8;"/>
    </g>
    <g id="text_14">
     <!-- 00 -->
     <g transform="translate(474.220382 245.619336)rotate(-45)scale(0.22 -0.22)">
      <use transform="scale(0.996264)" xlink:href="#CMR17-48"/>
      <use transform="translate(45.690477 0)scale(0.996264)" xlink:href="#CMR17-48"/>
     </g>
    </g>
   </g>
   <g id="xtick_15">
    <g id="line2d_19">
     <path d="M 544.969128 217.080527 
L 542.231671 218.899473 
" style="fill:none;stroke:#000000;stroke-linecap:square;stroke-width:0.8;"/>
    </g>
    <g id="text_15">
     <!-- 01 -->
     <g transform="translate(519.432807 256.576088)rotate(-45)scale(0.22 -0.22)">
      <use transform="scale(0.996264)" xlink:href="#CMR17-48"/>
      <use transform="translate(45.690477 0)scale(0.996264)" xlink:href="#CMR17-49"/>
     </g>
    </g>
   </g>
   <g id="xtick_16">
    <g id="line2d_20">
     <path d="M 591.20308 228.095506 
L 588.522658 229.956397 
" style="fill:none;stroke:#000000;stroke-linecap:square;stroke-width:0.8;"/>
    </g>
    <g id="text_16">
     <!-- 10 -->
     <g transform="translate(565.68342 267.784434)rotate(-45)scale(0.22 -0.22)">
      <use transform="scale(0.996264)" xlink:href="#CMR17-49"/>
      <use transform="translate(45.690477 0)scale(0.996264)" xlink:href="#CMR17-48"/>
     </g>
    </g>
   </g>
   <g id="xtick_17">
    <g id="line2d_21">
     <path d="M 638.50838 239.365727 
L 635.888391 241.270032 
" style="fill:none;stroke:#000000;stroke-linecap:square;stroke-width:0.8;"/>
    </g>
    <g id="text_17">
     <!-- 11 -->
     <g transform="translate(613.008395 279.25314)rotate(-45)scale(0.22 -0.22)">
      <use transform="scale(0.996264)" xlink:href="#CMR17-49"/>
      <use transform="translate(45.690477 0)scale(0.996264)" xlink:href="#CMR17-49"/>
     </g>
    </g>
   </g>
  </g>
  <g id="axis3d_5">
   <g id="line2d_22">
    <path d="M 761.65712 171.581202 
L 661.965072 245.80086 
" style="fill:none;stroke:#000000;stroke-linecap:square;stroke-width:0.8;"/>
   </g>
   <g id="Line3DCollection_5">
    <path d="M 484.000685 56.547028 
L 491.016499 192.413474 
L 675.403872 235.795817 
" style="fill:none;stroke:#b0b0b0;stroke-width:0.8;"/>
    <path d="M 513.777478 40.730342 
L 519.168861 174.842005 
L 701.219492 216.576366 
" style="fill:none;stroke:#b0b0b0;stroke-width:0.8;"/>
    <path d="M 542.401344 25.526062 
L 546.284836 157.917404 
L 726.04244 198.095948 
" style="fill:none;stroke:#b0b0b0;stroke-width:0.8;"/>
    <path d="M 569.937971 10.899296 
L 572.420618 141.604597 
L 749.928893 180.312741 
" style="fill:none;stroke:#b0b0b0;stroke-width:0.8;"/>
   </g>
   <g id="xtick_18">
    <g id="line2d_23">
     <path d="M 673.861052 235.432825 
L 678.492943 236.522608 
" style="fill:none;stroke:#000000;stroke-linecap:square;stroke-width:0.8;"/>
    </g>
    <g id="text_18">
     <!-- 00 -->
     <g transform="translate(689.789427 248.955025)rotate(-337.5)scale(0.22 -0.22)">
      <use transform="scale(0.996264)" xlink:href="#CMR17-48"/>
      <use transform="translate(45.690477 0)scale(0.996264)" xlink:href="#CMR17-48"/>
     </g>
    </g>
   </g>
   <g id="xtick_19">
    <g id="line2d_24">
     <path d="M 699.697534 216.227463 
L 704.266725 217.274932 
" style="fill:none;stroke:#000000;stroke-linecap:square;stroke-width:0.8;"/>
    </g>
    <g id="text_19">
     <!-- 01 -->
     <g transform="translate(715.342978 229.510599)rotate(-337.5)scale(0.22 -0.22)">
      <use transform="scale(0.996264)" xlink:href="#CMR17-48"/>
      <use transform="translate(45.690477 0)scale(0.996264)" xlink:href="#CMR17-49"/>
     </g>
    </g>
   </g>
   <g id="xtick_20">
    <g id="line2d_25">
     <path d="M 724.540896 197.76033 
L 729.048738 198.767901 
" style="fill:none;stroke:#000000;stroke-linecap:square;stroke-width:0.8;"/>
    </g>
    <g id="text_20">
     <!-- 10 -->
     <g transform="translate(739.91439 210.813511)rotate(-337.5)scale(0.22 -0.22)">
      <use transform="scale(0.996264)" xlink:href="#CMR17-49"/>
      <use transform="translate(45.690477 0)scale(0.996264)" xlink:href="#CMR17-48"/>
     </g>
    </g>
   </g>
   <g id="xtick_21">
    <g id="line2d_26">
     <path d="M 748.44732 179.989663 
L 752.895146 180.959573 
" style="fill:none;stroke:#000000;stroke-linecap:square;stroke-width:0.8;"/>
    </g>
    <g id="text_21">
     <!-- 11 -->
     <g transform="translate(763.559216 192.821489)rotate(-337.5)scale(0.22 -0.22)">
      <use transform="scale(0.996264)" xlink:href="#CMR17-49"/>
      <use transform="translate(45.690477 0)scale(0.996264)" xlink:href="#CMR17-49"/>
     </g>
    </g>
   </g>
  </g>
  <g id="axis3d_6">
   <g id="line2d_27">
    <path d="M 761.65712 171.581202 
L 769.037001 37.79869 
" style="fill:none;stroke:#000000;stroke-linecap:square;stroke-width:0.8;"/>
   </g>
   <g id="Line3DCollection_6">
    <path d="M 762.002642 165.317578 
L 585.183611 127.492497 
L 476.01206 195.155754 
" style="fill:none;stroke:#b0b0b0;stroke-width:0.8;"/>
    <path d="M 763.447527 139.124691 
L 584.828125 102.026954 
L 474.470343 168.411461 
" style="fill:none;stroke:#b0b0b0;stroke-width:0.8;"/>
    <path d="M 764.922399 112.388215 
L 584.465574 76.055321 
L 472.895559 141.093546 
" style="fill:none;stroke:#b0b0b0;stroke-width:0.8;"/>
    <path d="M 766.4282 85.09105 
L 584.095745 49.56236 
L 471.286633 113.183352 
" style="fill:none;stroke:#b0b0b0;stroke-width:0.8;"/>
    <path d="M 767.965913 57.215373 
L 583.718418 22.532216 
L 469.642441 84.661406 
" style="fill:none;stroke:#b0b0b0;stroke-width:0.8;"/>
   </g>
   <g id="xtick_22">
    <g id="line2d_28">
     <path d="M 760.527251 165.001963 
L 764.956497 165.949466 
" style="fill:none;stroke:#000000;stroke-linecap:square;stroke-width:0.8;"/>
    </g>
    <g id="text_22">
     <!-- $0.0$ -->
     <g transform="translate(767.524394 178.602446)scale(0.22 -0.22)">
      <use transform="scale(0.996264)" xlink:href="#CMR17-48"/>
      <use transform="translate(45.690477 0)scale(0.996264)" xlink:href="#CMMI12-58"/>
      <use transform="translate(72.787654 0)scale(0.996264)" xlink:href="#CMR17-48"/>
     </g>
    </g>
   </g>
   <g id="xtick_23">
    <g id="line2d_29">
     <path d="M 761.956483 138.815014 
L 766.432754 139.744698 
" style="fill:none;stroke:#000000;stroke-linecap:square;stroke-width:0.8;"/>
    </g>
    <g id="text_23">
     <!-- $0.1$ -->
     <g transform="translate(769.156319 152.446014)scale(0.22 -0.22)">
      <use transform="scale(0.996264)" xlink:href="#CMR17-48"/>
      <use transform="translate(45.690477 0)scale(0.996264)" xlink:href="#CMMI12-58"/>
      <use transform="translate(72.787654 0)scale(0.996264)" xlink:href="#CMR17-49"/>
     </g>
    </g>
   </g>
   <g id="xtick_24">
    <g id="line2d_30">
     <path d="M 763.415366 112.084792 
L 767.93967 112.995708 
" style="fill:none;stroke:#000000;stroke-linecap:square;stroke-width:0.8;"/>
    </g>
    <g id="text_24">
     <!-- $0.2$ -->
     <g transform="translate(770.822039 125.747929)scale(0.22 -0.22)">
      <use transform="scale(0.996264)" xlink:href="#CMR17-48"/>
      <use transform="translate(45.690477 0)scale(0.996264)" xlink:href="#CMMI12-58"/>
      <use transform="translate(72.787654 0)scale(0.996264)" xlink:href="#CMR17-50"/>
     </g>
    </g>
   </g>
   <g id="xtick_25">
    <g id="line2d_31">
     <path d="M 764.904832 84.794212 
L 769.478209 85.685365 
" style="fill:none;stroke:#000000;stroke-linecap:square;stroke-width:0.8;"/>
    </g>
    <g id="text_25">
     <!-- $0.3$ -->
     <g transform="translate(772.522614 98.491188)scale(0.22 -0.22)">
      <use transform="scale(0.996264)" xlink:href="#CMR17-48"/>
      <use transform="translate(45.690477 0)scale(0.996264)" xlink:href="#CMMI12-58"/>
      <use transform="translate(72.787654 0)scale(0.996264)" xlink:href="#CMR17-51"/>
     </g>
    </g>
   </g>
   <g id="xtick_26">
    <g id="line2d_32">
     <path d="M 766.425853 56.925468 
L 771.049379 57.795811 
" style="fill:none;stroke:#000000;stroke-linecap:square;stroke-width:0.8;"/>
    </g>
    <g id="text_26">
     <!-- $0.4$ -->
     <g transform="translate(774.259149 70.658072)scale(0.22 -0.22)">
      <use transform="scale(0.996264)" xlink:href="#CMR17-48"/>
      <use transform="translate(45.690477 0)scale(0.996264)" xlink:href="#CMMI12-58"/>
      <use transform="translate(72.787654 0)scale(0.996264)" xlink:href="#CMR17-52"/>
     </g>
    </g>
   </g>
  </g>
  <g id="axes_2">
   <g id="Poly3DCollection_18">
    <path clip-path="url(#p0df6903037)" d="M 589.552486 133.841204 
L 589.56788 135.092589 
L 610.974542 139.70684 
L 610.969502 138.451138 
z
" style="fill:#0cba97;fill-opacity:0.8;"/>
    <path clip-path="url(#p0df6903037)" d="M 576.753281 141.856635 
L 576.775076 143.115512 
L 589.56788 135.092589 
L 589.552486 133.841204 
z
" style="fill:#065d4c;fill-opacity:0.8;"/>
    <path clip-path="url(#p0df6903037)" d="M 576.775076 143.115512 
L 598.310281 147.814534 
L 610.974542 139.70684 
L 589.56788 135.092589 
z
" style="fill:#0aa384;fill-opacity:0.8;"/>
    <path clip-path="url(#p0df6903037)" d="M 576.753281 141.856635 
L 589.552486 133.841204 
L 610.969502 138.451138 
L 598.298965 146.551302 
z
" style="fill:#08745e;fill-opacity:0.8;"/>
    <path clip-path="url(#p0df6903037)" d="M 598.298965 146.551302 
L 610.969502 138.451138 
L 610.974542 139.70684 
L 598.310281 147.814534 
z
" style="fill:#0cba97;fill-opacity:0.8;"/>
    <path clip-path="url(#p0df6903037)" d="M 576.753281 141.856635 
L 598.298965 146.551302 
L 598.310281 147.814534 
L 576.775076 143.115512 
z
" style="fill:#065d4c;fill-opacity:0.8;"/>
   </g>
   <g id="Poly3DCollection_19">
    <path clip-path="url(#p0df6903037)" d="M 632.612483 143.109709 
L 632.616045 142.298661 
L 654.495535 147.003834 
L 654.485021 147.817693 
z
" style="fill:#065d4c;fill-opacity:0.8;"/>
    <path clip-path="url(#p0df6903037)" d="M 620.074066 151.295957 
L 620.073672 150.480032 
L 632.616045 142.298661 
L 632.612483 143.109709 
z
" style="fill:#0cba97;fill-opacity:0.8;"/>
    <path clip-path="url(#p0df6903037)" d="M 620.074066 151.295957 
L 632.612483 143.109709 
L 654.485021 147.817693 
L 642.082269 156.091404 
z
" style="fill:#08745e;fill-opacity:0.8;"/>
    <path clip-path="url(#p0df6903037)" d="M 620.073672 150.480032 
L 642.088912 155.272644 
L 654.495535 147.003834 
L 632.616045 142.298661 
z
" style="fill:#0aa384;fill-opacity:0.8;"/>
    <path clip-path="url(#p0df6903037)" d="M 642.082269 156.091404 
L 654.485021 147.817693 
L 654.495535 147.003834 
L 642.088912 155.272644 
z
" style="fill:#065d4c;fill-opacity:0.8;"/>
    <path clip-path="url(#p0df6903037)" d="M 620.074066 151.295957 
L 642.082269 156.091404 
L 642.088912 155.272644 
L 620.073672 150.480032 
z
" style="fill:#0cba97;fill-opacity:0.8;"/>
   </g>
   <g id="Poly3DCollection_20">
    <path clip-path="url(#p0df6903037)" d="M 563.71836 150.019683 
L 563.717972 150.002369 
L 585.39359 154.784066 
L 585.393833 154.80144 
z
" style="fill:#065d4c;fill-opacity:0.8;"/>
    <path clip-path="url(#p0df6903037)" d="M 550.44115 158.334463 
L 550.440667 158.317045 
L 563.717972 150.002369 
L 563.71836 150.019683 
z
" style="fill:#0cba97;fill-opacity:0.8;"/>
    <path clip-path="url(#p0df6903037)" d="M 550.44115 158.334463 
L 563.71836 150.019683 
L 585.393833 154.80144 
L 572.247531 163.205757 
z
" style="fill:#08745e;fill-opacity:0.8;"/>
    <path clip-path="url(#p0df6903037)" d="M 550.440667 158.317045 
L 572.247195 163.188278 
L 585.39359 154.784066 
L 563.717972 150.002369 
z
" style="fill:#0aa384;fill-opacity:0.8;"/>
    <path clip-path="url(#p0df6903037)" d="M 572.247531 163.205757 
L 585.393833 154.80144 
L 585.39359 154.784066 
L 572.247195 163.188278 
z
" style="fill:#065d4c;fill-opacity:0.8;"/>
    <path clip-path="url(#p0df6903037)" d="M 550.44115 158.334463 
L 572.247531 163.205757 
L 572.247195 163.188278 
L 550.440667 158.317045 
z
" style="fill:#0cba97;fill-opacity:0.8;"/>
   </g>
   <g id="Poly3DCollection_21">
    <path clip-path="url(#p0df6903037)" d="M 676.590791 152.575878 
L 676.664033 149.179678 
L 699.03694 153.977051 
L 698.933541 157.385073 
z
" style="fill:#065d4c;fill-opacity:0.8;"/>
    <path clip-path="url(#p0df6903037)" d="M 664.327335 160.938462 
L 664.38486 157.521748 
L 676.664033 149.179678 
L 676.590791 152.575878 
z
" style="fill:#0cba97;fill-opacity:0.8;"/>
    <path clip-path="url(#p0df6903037)" d="M 664.327335 160.938462 
L 676.590791 152.575878 
L 698.933541 157.385073 
L 686.813111 165.837969 
z
" style="fill:#08745e;fill-opacity:0.8;"/>
    <path clip-path="url(#p0df6903037)" d="M 664.38486 157.521748 
L 686.901183 162.409333 
L 699.03694 153.977051 
L 676.664033 149.179678 
z
" style="fill:#0aa384;fill-opacity:0.8;"/>
    <path clip-path="url(#p0df6903037)" d="M 686.813111 165.837969 
L 698.933541 157.385073 
L 699.03694 153.977051 
L 686.901183 162.409333 
z
" style="fill:#065d4c;fill-opacity:0.8;"/>
    <path clip-path="url(#p0df6903037)" d="M 664.327335 160.938462 
L 686.813111 165.837969 
L 686.901183 162.409333 
L 664.38486 157.521748 
z
" style="fill:#0cba97;fill-opacity:0.8;"/>
   </g>
   <g id="Poly3DCollection_22">
    <path clip-path="url(#p0df6903037)" d="M 607.302254 159.634588 
L 607.30591 160.301479 
L 629.445264 165.189169 
L 629.447398 164.519958 
z
" style="fill:#0cba97;fill-opacity:0.8;"/>
    <path clip-path="url(#p0df6903037)" d="M 594.290468 168.129895 
L 594.297585 168.800813 
L 607.30591 160.301479 
L 607.302254 159.634588 
z
" style="fill:#065d4c;fill-opacity:0.8;"/>
    <path clip-path="url(#p0df6903037)" d="M 594.297585 168.800813 
L 616.575087 173.780999 
L 629.445264 165.189169 
L 607.30591 160.301479 
z
" style="fill:#0aa384;fill-opacity:0.8;"/>
    <path clip-path="url(#p0df6903037)" d="M 594.290468 168.129895 
L 607.302254 159.634588 
L 629.447398 164.519958 
L 616.573832 173.107742 
z
" style="fill:#08745e;fill-opacity:0.8;"/>
    <path clip-path="url(#p0df6903037)" d="M 616.573832 173.107742 
L 629.447398 164.519958 
L 629.445264 165.189169 
L 616.575087 173.780999 
z
" style="fill:#0cba97;fill-opacity:0.8;"/>
    <path clip-path="url(#p0df6903037)" d="M 594.290468 168.129895 
L 616.573832 173.107742 
L 616.575087 173.780999 
L 594.297585 168.800813 
z
" style="fill:#065d4c;fill-opacity:0.8;"/>
   </g>
   <g id="Poly3DCollection_23">
    <path clip-path="url(#p0df6903037)" d="M 721.517104 162.246102 
L 721.517104 162.246102 
L 744.345393 167.159807 
L 744.345393 167.159807 
z
" style="fill:#065d4c;fill-opacity:0.8;"/>
    <path clip-path="url(#p0df6903037)" d="M 709.543524 170.79078 
L 709.543524 170.79078 
L 721.517104 162.246102 
L 721.517104 162.246102 
z
" style="fill:#065d4c;fill-opacity:0.8;"/>
    <path clip-path="url(#p0df6903037)" d="M 709.543524 170.79078 
L 721.517104 162.246102 
L 744.345393 167.159807 
L 732.522589 175.797772 
z
" style="fill:#08745e;fill-opacity:0.8;"/>
    <path clip-path="url(#p0df6903037)" d="M 709.543524 170.79078 
L 732.522589 175.797772 
L 744.345393 167.159807 
L 721.517104 162.246102 
z
" style="fill:#0aa384;fill-opacity:0.8;"/>
    <path clip-path="url(#p0df6903037)" d="M 732.522589 175.797772 
L 744.345393 167.159807 
L 744.345393 167.159807 
L 732.522589 175.797772 
z
" style="fill:#065d4c;fill-opacity:0.8;"/>
    <path clip-path="url(#p0df6903037)" d="M 709.543524 170.79078 
L 732.522589 175.797772 
L 732.522589 175.797772 
L 709.543524 170.79078 
z
" style="fill:#065d4c;fill-opacity:0.8;"/>
   </g>
   <g id="Poly3DCollection_24">
    <path clip-path="url(#p0df6903037)" d="M 536.914832 166.805245 
L 537.038107 170.528244 
L 558.944962 175.504569 
L 558.853234 171.768615 
z
" style="fill:#0cba97;fill-opacity:0.8;"/>
    <path clip-path="url(#p0df6903037)" d="M 523.132329 175.436462 
L 523.277092 179.181938 
L 537.038107 170.528244 
L 536.914832 166.805245 
z
" style="fill:#065d4c;fill-opacity:0.8;"/>
    <path clip-path="url(#p0df6903037)" d="M 523.277092 179.181938 
L 545.316693 184.25308 
L 558.944962 175.504569 
L 537.038107 170.528244 
z
" style="fill:#0aa384;fill-opacity:0.8;"/>
    <path clip-path="url(#p0df6903037)" d="M 523.132329 175.436462 
L 536.914832 166.805245 
L 558.853234 171.768615 
L 545.203858 180.494542 
z
" style="fill:#08745e;fill-opacity:0.8;"/>
    <path clip-path="url(#p0df6903037)" d="M 545.203858 180.494542 
L 558.853234 171.768615 
L 558.944962 175.504569 
L 545.316693 184.25308 
z
" style="fill:#0cba97;fill-opacity:0.8;"/>
    <path clip-path="url(#p0df6903037)" d="M 523.132329 175.436462 
L 545.203858 180.494542 
L 545.316693 184.25308 
L 523.277092 179.181938 
z
" style="fill:#065d4c;fill-opacity:0.8;"/>
   </g>
   <g id="Poly3DCollection_25">
    <path clip-path="url(#p0df6903037)" d="M 651.833122 169.458401 
L 651.833122 169.458401 
L 674.463369 174.450788 
L 674.463369 174.450788 
z
" style="fill:#065d4c;fill-opacity:0.8;"/>
    <path clip-path="url(#p0df6903037)" d="M 639.101577 178.14018 
L 639.101577 178.14018 
L 651.833122 169.458401 
L 651.833122 169.458401 
z
" style="fill:#065d4c;fill-opacity:0.8;"/>
    <path clip-path="url(#p0df6903037)" d="M 639.101577 178.14018 
L 661.877746 183.228114 
L 674.463369 174.450788 
L 651.833122 169.458401 
z
" style="fill:#0aa384;fill-opacity:0.8;"/>
    <path clip-path="url(#p0df6903037)" d="M 639.101577 178.14018 
L 651.833122 169.458401 
L 674.463369 174.450788 
L 661.877746 183.228114 
z
" style="fill:#08745e;fill-opacity:0.8;"/>
    <path clip-path="url(#p0df6903037)" d="M 661.877746 183.228114 
L 674.463369 174.450788 
L 674.463369 174.450788 
L 661.877746 183.228114 
z
" style="fill:#065d4c;fill-opacity:0.8;"/>
    <path clip-path="url(#p0df6903037)" d="M 639.101577 178.14018 
L 661.877746 183.228114 
L 661.877746 183.228114 
L 639.101577 178.14018 
z
" style="fill:#065d4c;fill-opacity:0.8;"/>
   </g>
   <g id="Poly3DCollection_26">
    <path clip-path="url(#p0df6903037)" d="M 581.031882 176.786338 
L 581.031882 176.786338 
L 603.454742 181.859312 
L 603.454742 181.859312 
z
" style="fill:#065d4c;fill-opacity:0.8;"/>
    <path clip-path="url(#p0df6903037)" d="M 567.519404 185.608543 
L 567.519404 185.608543 
L 581.031882 176.786338 
L 581.031882 176.786338 
z
" style="fill:#065d4c;fill-opacity:0.8;"/>
    <path clip-path="url(#p0df6903037)" d="M 567.519404 185.608543 
L 590.083037 190.779398 
L 603.454742 181.859312 
L 581.031882 176.786338 
z
" style="fill:#0aa384;fill-opacity:0.8;"/>
    <path clip-path="url(#p0df6903037)" d="M 567.519404 185.608543 
L 581.031882 176.786338 
L 603.454742 181.859312 
L 590.083037 190.779398 
z
" style="fill:#08745e;fill-opacity:0.8;"/>
    <path clip-path="url(#p0df6903037)" d="M 590.083037 190.779398 
L 603.454742 181.859312 
L 603.454742 181.859312 
L 590.083037 190.779398 
z
" style="fill:#065d4c;fill-opacity:0.8;"/>
    <path clip-path="url(#p0df6903037)" d="M 567.519404 185.608543 
L 590.083037 190.779398 
L 590.083037 190.779398 
L 567.519404 185.608543 
z
" style="fill:#065d4c;fill-opacity:0.8;"/>
   </g>
   <g id="Poly3DCollection_27">
    <path clip-path="url(#p0df6903037)" d="M 697.342167 179.498008 
L 697.238684 182.950088 
L 720.337922 188.065099 
L 720.473633 184.600967 
z
" style="fill:#0cba97;fill-opacity:0.8;"/>
    <path clip-path="url(#p0df6903037)" d="M 684.90647 188.372466 
L 684.819084 191.845456 
L 697.238684 182.950088 
L 697.342167 179.498008 
z
" style="fill:#065d4c;fill-opacity:0.8;"/>
    <path clip-path="url(#p0df6903037)" d="M 684.819084 191.845456 
L 708.071926 197.059318 
L 720.337922 188.065099 
L 697.238684 182.950088 
z
" style="fill:#0aa384;fill-opacity:0.8;"/>
    <path clip-path="url(#p0df6903037)" d="M 684.90647 188.372466 
L 697.342167 179.498008 
L 720.473633 184.600967 
L 708.191975 193.574179 
z
" style="fill:#08745e;fill-opacity:0.8;"/>
    <path clip-path="url(#p0df6903037)" d="M 708.191975 193.574179 
L 720.473633 184.600967 
L 720.337922 188.065099 
L 708.071926 197.059318 
z
" style="fill:#0cba97;fill-opacity:0.8;"/>
    <path clip-path="url(#p0df6903037)" d="M 684.90647 188.372466 
L 708.191975 193.574179 
L 708.071926 197.059318 
L 684.819084 191.845456 
z
" style="fill:#065d4c;fill-opacity:0.8;"/>
   </g>
   <g id="Poly3DCollection_28">
    <path clip-path="url(#p0df6903037)" d="M 509.086294 184.232714 
L 509.086294 184.232714 
L 531.292047 189.388242 
L 531.292047 189.388242 
z
" style="fill:#065d4c;fill-opacity:0.8;"/>
    <path clip-path="url(#p0df6903037)" d="M 494.769095 193.198781 
L 494.769095 193.198781 
L 509.086294 184.232714 
L 509.086294 184.232714 
z
" style="fill:#065d4c;fill-opacity:0.8;"/>
    <path clip-path="url(#p0df6903037)" d="M 494.769095 193.198781 
L 509.086294 184.232714 
L 531.292047 189.388242 
L 517.110157 198.454601 
z
" style="fill:#08745e;fill-opacity:0.8;"/>
    <path clip-path="url(#p0df6903037)" d="M 494.769095 193.198781 
L 517.110157 198.454601 
L 531.292047 189.388242 
L 509.086294 184.232714 
z
" style="fill:#0aa384;fill-opacity:0.8;"/>
    <path clip-path="url(#p0df6903037)" d="M 517.110157 198.454601 
L 531.292047 189.388242 
L 531.292047 189.388242 
L 517.110157 198.454601 
z
" style="fill:#065d4c;fill-opacity:0.8;"/>
    <path clip-path="url(#p0df6903037)" d="M 494.769095 193.198781 
L 517.110157 198.454601 
L 517.110157 198.454601 
L 494.769095 193.198781 
z
" style="fill:#065d4c;fill-opacity:0.8;"/>
   </g>
   <g id="Poly3DCollection_29">
    <path clip-path="url(#p0df6903037)" d="M 626.125872 186.988455 
L 626.127166 186.308383 
L 649.056918 191.492248 
L 649.049418 192.174704 
z
" style="fill:#065d4c;fill-opacity:0.8;"/>
    <path clip-path="url(#p0df6903037)" d="M 612.898916 196.00806 
L 612.896631 195.323851 
L 626.127166 186.308383 
L 626.125872 186.988455 
z
" style="fill:#0cba97;fill-opacity:0.8;"/>
    <path clip-path="url(#p0df6903037)" d="M 612.898916 196.00806 
L 626.125872 186.988455 
L 649.049418 192.174704 
L 635.971296 201.295503 
z
" style="fill:#08745e;fill-opacity:0.8;"/>
    <path clip-path="url(#p0df6903037)" d="M 612.896631 195.323851 
L 635.975298 200.608891 
L 649.056918 191.492248 
L 626.127166 186.308383 
z
" style="fill:#0aa384;fill-opacity:0.8;"/>
    <path clip-path="url(#p0df6903037)" d="M 635.971296 201.295503 
L 649.049418 192.174704 
L 649.056918 191.492248 
L 635.975298 200.608891 
z
" style="fill:#065d4c;fill-opacity:0.8;"/>
    <path clip-path="url(#p0df6903037)" d="M 612.898916 196.00806 
L 635.971296 201.295503 
L 635.975298 200.608891 
L 612.896631 195.323851 
z
" style="fill:#0cba97;fill-opacity:0.8;"/>
   </g>
   <g id="Poly3DCollection_30">
    <path clip-path="url(#p0df6903037)" d="M 553.745674 194.60132 
L 553.64367 190.795331 
L 576.383241 196.053536 
L 576.451349 199.872916 
z
" style="fill:#065d4c;fill-opacity:0.8;"/>
    <path clip-path="url(#p0df6903037)" d="M 539.703039 203.769662 
L 539.578631 199.940441 
L 553.64367 190.795331 
L 553.745674 194.60132 
z
" style="fill:#0cba97;fill-opacity:0.8;"/>
    <path clip-path="url(#p0df6903037)" d="M 539.703039 203.769662 
L 553.745674 194.60132 
L 576.451349 199.872916 
L 562.552021 209.144972 
z
" style="fill:#08745e;fill-opacity:0.8;"/>
    <path clip-path="url(#p0df6903037)" d="M 539.578631 199.940441 
L 562.461936 205.302255 
L 576.383241 196.053536 
L 553.64367 190.795331 
z
" style="fill:#0aa384;fill-opacity:0.8;"/>
    <path clip-path="url(#p0df6903037)" d="M 562.552021 209.144972 
L 576.451349 199.872916 
L 576.383241 196.053536 
L 562.461936 205.302255 
z
" style="fill:#065d4c;fill-opacity:0.8;"/>
    <path clip-path="url(#p0df6903037)" d="M 539.703039 203.769662 
L 562.552021 209.144972 
L 562.461936 205.302255 
L 539.578631 199.940441 
z
" style="fill:#0cba97;fill-opacity:0.8;"/>
   </g>
   <g id="Poly3DCollection_31">
    <path clip-path="url(#p0df6903037)" d="M 672.229618 197.41902 
L 672.212595 198.260969 
L 695.645807 203.567286 
L 695.670807 202.722382 
z
" style="fill:#0cba97;fill-opacity:0.8;"/>
    <path clip-path="url(#p0df6903037)" d="M 659.304526 206.642724 
L 659.2917 207.4898 
L 672.212595 198.260969 
L 672.229618 197.41902 
z
" style="fill:#065d4c;fill-opacity:0.8;"/>
    <path clip-path="url(#p0df6903037)" d="M 659.2917 207.4898 
L 682.882144 212.900798 
L 695.645807 203.567286 
L 672.212595 198.260969 
z
" style="fill:#0aa384;fill-opacity:0.8;"/>
    <path clip-path="url(#p0df6903037)" d="M 659.304526 206.642724 
L 672.229618 197.41902 
L 695.670807 202.722382 
L 682.903055 212.050744 
z
" style="fill:#08745e;fill-opacity:0.8;"/>
    <path clip-path="url(#p0df6903037)" d="M 682.903055 212.050744 
L 695.670807 202.722382 
L 695.645807 203.567286 
L 682.882144 212.900798 
z
" style="fill:#0cba97;fill-opacity:0.8;"/>
    <path clip-path="url(#p0df6903037)" d="M 659.304526 206.642724 
L 682.903055 212.050744 
L 682.882144 212.900798 
L 659.2917 207.4898 
z
" style="fill:#065d4c;fill-opacity:0.8;"/>
   </g>
   <g id="Poly3DCollection_32">
    <path clip-path="url(#p0df6903037)" d="M 599.41334 205.204021 
L 599.413497 205.222007 
L 622.636003 210.613697 
L 622.636012 210.595648 
z
" style="fill:#0cba97;fill-opacity:0.8;"/>
    <path clip-path="url(#p0df6903037)" d="M 585.661484 214.581561 
L 585.661742 214.599656 
L 599.413497 205.222007 
L 599.41334 205.204021 
z
" style="fill:#065d4c;fill-opacity:0.8;"/>
    <path clip-path="url(#p0df6903037)" d="M 585.661742 214.599656 
L 609.035997 220.098642 
L 622.636003 210.613697 
L 599.413497 205.222007 
z
" style="fill:#0aa384;fill-opacity:0.8;"/>
    <path clip-path="url(#p0df6903037)" d="M 585.661484 214.581561 
L 599.41334 205.204021 
L 622.636012 210.595648 
L 609.035907 220.080482 
z
" style="fill:#08745e;fill-opacity:0.8;"/>
    <path clip-path="url(#p0df6903037)" d="M 609.035907 220.080482 
L 622.636012 210.595648 
L 622.636003 210.613697 
L 609.035997 220.098642 
z
" style="fill:#0cba97;fill-opacity:0.8;"/>
    <path clip-path="url(#p0df6903037)" d="M 585.661484 214.581561 
L 609.035907 220.080482 
L 609.035997 220.098642 
L 585.661742 214.599656 
z
" style="fill:#065d4c;fill-opacity:0.8;"/>
   </g>
   <g id="Poly3DCollection_33">
    <path clip-path="url(#p0df6903037)" d="M 646.12383 216.048835 
L 646.136994 214.722572 
L 669.907277 220.233703 
L 669.881361 221.56464 
z
" style="fill:#065d4c;fill-opacity:0.8;"/>
    <path clip-path="url(#p0df6903037)" d="M 632.679874 225.642815 
L 632.685964 224.308442 
L 646.136994 214.722572 
L 646.12383 216.048835 
z
" style="fill:#0cba97;fill-opacity:0.8;"/>
    <path clip-path="url(#p0df6903037)" d="M 632.679874 225.642815 
L 646.12383 216.048835 
L 669.881361 221.56464 
L 656.598073 231.269662 
z
" style="fill:#08745e;fill-opacity:0.8;"/>
    <path clip-path="url(#p0df6903037)" d="M 632.685964 224.308442 
L 656.617091 229.930579 
L 669.907277 220.233703 
L 646.136994 214.722572 
z
" style="fill:#0aa384;fill-opacity:0.8;"/>
    <path clip-path="url(#p0df6903037)" d="M 656.598073 231.269662 
L 669.881361 221.56464 
L 669.907277 220.233703 
L 656.617091 229.930579 
z
" style="fill:#065d4c;fill-opacity:0.8;"/>
    <path clip-path="url(#p0df6903037)" d="M 632.679874 225.642815 
L 656.598073 231.269662 
L 656.617091 229.930579 
L 632.685964 224.308442 
z
" style="fill:#0cba97;fill-opacity:0.8;"/>
   </g>
   <g id="Poly3DCollection_34">
    <path clip-path="url(#p0df6903037)" d="M 481.915558 194.539826 
L 660.342907 236.711533 
L 756.460914 165.895761 
L 586.549866 129.477895 
z
" style="fill-opacity:0.2;"/>
   </g>
  </g>
 </g>
 <defs>
  <clipPath id="p7c644b1b54">
   <rect height="277.2" width="380.454545" x="-30.6" y="-14.4"/>
  </clipPath>
  <clipPath id="p0df6903037">
   <rect height="277.2" width="380.454545" x="425.945455" y="-14.4"/>
  </clipPath>
 </defs>
</svg>
