<?xml version="1.0" encoding="utf-8" standalone="no"?>
<!DOCTYPE svg PUBLIC "-//W3C//DTD SVG 1.1//EN"
  "http://www.w3.org/Graphics/SVG/1.1/DTD/svg11.dtd">
<!-- Created with matplotlib (https://matplotlib.org/) -->
<svg height="302.4pt" version="1.1" viewBox="0 0 820.8 302.4" width="820.8pt" xmlns="http://www.w3.org/2000/svg" xmlns:xlink="http://www.w3.org/1999/xlink">
 <defs>
  <style type="text/css">
*{stroke-linecap:butt;stroke-linejoin:round;}
  </style>
 </defs>
 <g id="figure_1">
  <g id="patch_1">
   <path d="M 0 302.4 
L 820.8 302.4 
L 820.8 0 
L 0 0 
z
" style="fill:#ffffff;"/>
  </g>
  <g id="patch_2">
   <path d="M -30.6 262.8 
L 349.854545 262.8 
L 349.854545 -14.4 
L -30.6 -14.4 
z
" style="fill:#ffffff;"/>
  </g>
  <g id="pane3d_1">
   <g id="patch_3">
    <path d="M 19.835129 201.548569 
L 128.723211 133.58541 
L 126.910339 3.718968 
L 11.951034 64.782468 
" style="fill:#f2f2f2;opacity:0.5;stroke:#f2f2f2;stroke-linejoin:miter;"/>
   </g>
  </g>
  <g id="pane3d_2">
   <g id="patch_4">
    <path d="M 128.723211 133.58541 
L 305.111665 171.581202 
L 312.491547 37.79869 
L 126.910339 3.718968 
" style="fill:#e6e6e6;opacity:0.5;stroke:#e6e6e6;stroke-linejoin:miter;"/>
   </g>
  </g>
  <g id="pane3d_3">
   <g id="patch_5">
    <path d="M 19.835129 201.548569 
L 205.419617 245.80086 
L 305.111665 171.581202 
L 128.723211 133.58541 
" style="fill:#ececec;opacity:0.5;stroke:#ececec;stroke-linejoin:miter;"/>
   </g>
  </g>
  <g id="axis3d_1">
   <g id="line2d_1">
    <path d="M 19.835129 201.548569 
L 205.419617 245.80086 
" style="fill:none;stroke:#000000;stroke-linecap:square;stroke-width:0.8;"/>
   </g>
   <g id="Line3DCollection_1">
    <path d="M 57.25499 210.471268 
L 164.384175 141.267129 
L 164.364666 10.596997 
" style="fill:none;stroke:#b0b0b0;stroke-width:0.8;"/>
    <path d="M 165.194119 236.209161 
L 266.979744 163.367214 
L 272.30378 30.418697 
" style="fill:none;stroke:#b0b0b0;stroke-width:0.8;"/>
   </g>
   <g id="xtick_1">
    <g id="line2d_2">
     <path d="M 58.178395 209.87476 
L 55.404712 211.666525 
" style="fill:none;stroke:#000000;stroke-linecap:square;stroke-width:0.8;"/>
    </g>
    <g id="text_1">
     <!-- 0 -->
     <defs>
      <path d="M 42 31.84375 
C 42 37.96875 41.90625 48.421875 37.703125 56.453125 
C 34 63.484375 28.09375 66 22.90625 66 
C 18.09375 66 12 63.78125 8.203125 56.5625 
C 4.203125 49.015625 3.796875 39.671875 3.796875 31.84375 
C 3.796875 26.109375 3.90625 17.375 7 9.734375 
C 11.296875 -0.609375 19 -2 22.90625 -2 
C 27.5 -2 34.5 -0.109375 38.59375 9.4375 
C 41.59375 16.375 42 24.5 42 31.84375 
z
M 22.90625 -0.40625 
C 16.5 -0.40625 12.703125 5.125 11.296875 12.75 
C 10.203125 18.6875 10.203125 27.328125 10.203125 32.953125 
C 10.203125 40.6875 10.203125 47.109375 11.5 53.234375 
C 13.40625 61.78125 19 64.390625 22.90625 64.390625 
C 27 64.390625 32.296875 61.671875 34.203125 53.4375 
C 35.5 47.71875 35.59375 40.984375 35.59375 32.953125 
C 35.59375 26.421875 35.59375 18.375 34.40625 12.453125 
C 32.296875 1.5 26.40625 -0.40625 22.90625 -0.40625 
z
" id="CMR17-48"/>
     </defs>
     <g transform="translate(39.740318 242.136387)rotate(-45)scale(0.22 -0.22)">
      <use transform="scale(0.996264)" xlink:href="#CMR17-48"/>
     </g>
    </g>
   </g>
   <g id="xtick_2">
    <g id="line2d_3">
     <path d="M 166.073164 235.580081 
L 163.432641 237.469747 
" style="fill:none;stroke:#000000;stroke-linecap:square;stroke-width:0.8;"/>
    </g>
    <g id="text_2">
     <!-- 1 -->
     <defs>
      <path d="M 26.59375 63.796875 
C 26.59375 65.890625 26.5 66 25.09375 66 
C 21.203125 61.359375 15.296875 59.890625 9.703125 59.6875 
C 9.40625 59.6875 8.90625 59.6875 8.796875 59.5 
C 8.703125 59.296875 8.703125 59.09375 8.703125 57 
C 11.796875 57 17 57.59375 21 59.984375 
L 21 7.296875 
C 21 3.796875 20.796875 2.59375 12.203125 2.59375 
L 9.203125 2.59375 
L 9.203125 0 
C 14 0.09375 19 0.1875 23.796875 0.1875 
C 28.59375 0.1875 33.59375 0.09375 38.40625 0 
L 38.40625 2.59375 
L 35.40625 2.59375 
C 26.796875 2.59375 26.59375 3.6875 26.59375 7.296875 
z
" id="CMR17-49"/>
     </defs>
     <g transform="translate(147.674044 268.292981)rotate(-45)scale(0.22 -0.22)">
      <use transform="scale(0.996264)" xlink:href="#CMR17-49"/>
     </g>
    </g>
   </g>
  </g>
  <g id="axis3d_2">
   <g id="line2d_4">
    <path d="M 305.111665 171.581202 
L 205.419617 245.80086 
" style="fill:none;stroke:#000000;stroke-linecap:square;stroke-width:0.8;"/>
   </g>
   <g id="Line3DCollection_2">
    <path d="M 37.513203 51.204485 
L 43.973964 186.482168 
L 227.577572 229.3045 
" style="fill:none;stroke:#b0b0b0;stroke-width:0.8;"/>
    <path d="M 104.330597 15.712761 
L 107.268846 146.976282 
L 285.52205 186.16546 
" style="fill:none;stroke:#b0b0b0;stroke-width:0.8;"/>
   </g>
   <g id="xtick_3">
    <g id="line2d_5">
     <path d="M 226.041757 228.946298 
L 230.652597 230.021696 
" style="fill:none;stroke:#000000;stroke-linecap:square;stroke-width:0.8;"/>
    </g>
    <g id="text_3">
     <!-- 0 -->
     <g transform="translate(241.87456 244.311113)rotate(-337.5)scale(0.22 -0.22)">
      <use transform="scale(0.996264)" xlink:href="#CMR17-48"/>
     </g>
    </g>
   </g>
   <g id="xtick_4">
    <g id="line2d_6">
     <path d="M 284.033869 185.838281 
L 288.501553 186.820507 
" style="fill:none;stroke:#000000;stroke-linecap:square;stroke-width:0.8;"/>
    </g>
    <g id="text_4">
     <!-- 1 -->
     <g transform="translate(299.231851 200.666315)rotate(-337.5)scale(0.22 -0.22)">
      <use transform="scale(0.996264)" xlink:href="#CMR17-49"/>
     </g>
    </g>
   </g>
  </g>
  <g id="axis3d_3">
   <g id="line2d_7">
    <path d="M 305.111665 171.581202 
L 312.491547 37.79869 
" style="fill:none;stroke:#000000;stroke-linecap:square;stroke-width:0.8;"/>
   </g>
   <g id="Line3DCollection_3">
    <path d="M 305.796015 159.175302 
L 128.554767 121.518833 
L 19.105163 188.885789 
" style="fill:none;stroke:#b0b0b0;stroke-width:0.8;"/>
    <path d="M 307.32792 131.404936 
L 128.177957 94.525712 
L 17.470305 160.525753 
" style="fill:none;stroke:#b0b0b0;stroke-width:0.8;"/>
    <path d="M 308.89347 103.024635 
L 127.793222 66.964948 
L 15.798332 131.521891 
" style="fill:none;stroke:#b0b0b0;stroke-width:0.8;"/>
    <path d="M 310.493787 74.014082 
L 127.400311 38.818445 
L 14.087966 101.852027 
" style="fill:none;stroke:#b0b0b0;stroke-width:0.8;"/>
    <path d="M 312.130042 44.352048 
L 126.998959 10.067331 
L 12.33787 71.492955 
" style="fill:none;stroke:#b0b0b0;stroke-width:0.8;"/>
   </g>
   <g id="xtick_5">
    <g id="line2d_8">
     <path d="M 304.316954 158.861063 
L 308.757225 159.804437 
" style="fill:none;stroke:#000000;stroke-linecap:square;stroke-width:0.8;"/>
    </g>
    <g id="text_5">
     <!-- $0.30$ -->
     <defs>
      <path d="M 18.40625 4.796875 
C 18.40625 7.6875 16 9.6875 13.59375 9.6875 
C 10.703125 9.6875 8.703125 7.296875 8.703125 4.890625 
C 8.703125 2 11.09375 0 13.5 0 
C 16.40625 0 18.40625 2.390625 18.40625 4.796875 
z
" id="CMMI12-58"/>
      <path d="M 22.09375 34 
C 31 34 34.90625 26.140625 34.90625 17.09375 
C 34.90625 5.03125 28.5 0.390625 22.703125 0.390625 
C 17.40625 0.390625 8.796875 3.015625 6.09375 10.796875 
C 6.59375 10.59375 7.09375 10.59375 7.59375 10.59375 
C 10 10.59375 11.796875 12.1875 11.796875 14.796875 
C 11.796875 17.6875 9.59375 19 7.59375 19 
C 5.90625 19 3.296875 18.1875 3.296875 14.484375 
C 3.296875 5.234375 12.296875 -2 22.90625 -2 
C 34 -2 42.5 6.75 42.5 16.984375 
C 42.5 26.84375 34.5 34 25 35.09375 
C 32.59375 36.671875 39.90625 43.375 39.90625 52.390625 
C 39.90625 60.25 32 66 23 66 
C 13.90625 66 5.90625 60.34375 5.90625 52.296875 
C 5.90625 48.796875 8.5 48.1875 9.796875 48.1875 
C 11.90625 48.1875 13.703125 49.484375 13.703125 52.09375 
C 13.703125 54.6875 11.90625 56 9.796875 56 
C 9.40625 56 8.90625 56 8.5 55.796875 
C 11.40625 62.484375 19.296875 63.6875 22.796875 63.6875 
C 26.296875 63.6875 32.90625 61.96875 32.90625 52.296875 
C 32.90625 49.484375 32.5 44.546875 29.09375 40.21875 
C 26.09375 36.390625 22.703125 36.1875 19.40625 35.890625 
C 18.90625 35.890625 16.59375 35.6875 16.203125 35.6875 
C 15.5 35.59375 15.09375 35.5 15.09375 34.796875 
C 15.09375 34.09375 15.203125 34 17.203125 34 
z
" id="CMR17-51"/>
     </defs>
     <g transform="translate(306.335682 172.468616)scale(0.22 -0.22)">
      <use transform="scale(0.996264)" xlink:href="#CMR17-48"/>
      <use transform="translate(45.690477 0)scale(0.996264)" xlink:href="#CMMI12-58"/>
      <use transform="translate(72.787654 0)scale(0.996264)" xlink:href="#CMR17-51"/>
      <use transform="translate(118.478131 0)scale(0.996264)" xlink:href="#CMR17-48"/>
     </g>
    </g>
   </g>
   <g id="xtick_6">
    <g id="line2d_9">
     <path d="M 305.83226 131.097044 
L 310.322396 132.021369 
" style="fill:none;stroke:#000000;stroke-linecap:square;stroke-width:0.8;"/>
    </g>
    <g id="text_6">
     <!-- $0.35$ -->
     <defs>
      <path d="M 11.40625 58.59375 
C 12.40625 58.1875 16.5 56.890625 20.703125 56.890625 
C 30 56.890625 35.09375 61.890625 38 64.6875 
C 38 65.484375 38 66 37.40625 66 
C 37.296875 66 37.09375 66 36.296875 65.59375 
C 32.796875 64.09375 28.703125 63 23.703125 63 
C 20.703125 63 16.203125 63.359375 11.296875 65.484375 
C 10.203125 66 10 66 9.90625 66 
C 9.40625 66 9.296875 65.890625 9.296875 63.90625 
L 9.296875 34.859375 
C 9.296875 33.015625 9.296875 32.5 10.296875 32.5 
C 10.796875 32.5 11 32.703125 11.5 33.421875 
C 14.703125 38.046875 19.09375 40 24.09375 40 
C 27.59375 40 35.09375 37.734375 35.09375 20.203125 
C 35.09375 16.984375 35.09375 11.1875 32.09375 6.59375 
C 29.59375 2.484375 25.703125 0.390625 21.40625 0.390625 
C 14.796875 0.390625 8.09375 4.984375 6.296875 12.6875 
C 6.703125 12.59375 7.5 12.390625 7.90625 12.390625 
C 9.203125 12.390625 11.703125 13.09375 11.703125 16.1875 
C 11.703125 18.890625 9.796875 20 7.90625 20 
C 5.59375 20 4.09375 18.59375 4.09375 15.796875 
C 4.09375 7.09375 11 -2 21.59375 -2 
C 31.90625 -2 41.703125 6.890625 41.703125 19.796875 
C 41.703125 32.09375 33.90625 41.59375 24.203125 41.59375 
C 19.09375 41.59375 14.796875 39.6875 11.40625 36 
z
" id="CMR17-53"/>
     </defs>
     <g transform="translate(308.065871 144.737221)scale(0.22 -0.22)">
      <use transform="scale(0.996264)" xlink:href="#CMR17-48"/>
      <use transform="translate(45.690477 0)scale(0.996264)" xlink:href="#CMMI12-58"/>
      <use transform="translate(72.787654 0)scale(0.996264)" xlink:href="#CMR17-51"/>
      <use transform="translate(118.478131 0)scale(0.996264)" xlink:href="#CMR17-53"/>
     </g>
    </g>
   </g>
   <g id="xtick_7">
    <g id="line2d_10">
     <path d="M 307.380835 102.723447 
L 311.921968 103.627653 
" style="fill:none;stroke:#000000;stroke-linecap:square;stroke-width:0.8;"/>
    </g>
    <g id="text_7">
     <!-- $0.40$ -->
     <defs>
      <path d="M 33.59375 64.796875 
C 33.59375 66.890625 33.5 67 31.703125 67 
L 2 19.59375 
L 2 17 
L 27.796875 17 
L 27.796875 7.1875 
C 27.796875 3.59375 27.59375 2.59375 20.59375 2.59375 
L 18.703125 2.59375 
L 18.703125 0 
C 21.90625 0.1875 27.296875 0.1875 30.703125 0.1875 
C 34.09375 0.1875 39.5 0.1875 42.703125 0 
L 42.703125 2.59375 
L 40.796875 2.59375 
C 33.796875 2.59375 33.59375 3.59375 33.59375 7.1875 
L 33.59375 17 
L 43.796875 17 
L 43.796875 19.59375 
L 33.59375 19.59375 
z
M 28.09375 58.171875 
L 28.09375 19.59375 
L 4 19.59375 
z
" id="CMR17-52"/>
     </defs>
     <g transform="translate(309.833979 116.398075)scale(0.22 -0.22)">
      <use transform="scale(0.996264)" xlink:href="#CMR17-48"/>
      <use transform="translate(45.690477 0)scale(0.996264)" xlink:href="#CMMI12-58"/>
      <use transform="translate(72.787654 0)scale(0.996264)" xlink:href="#CMR17-52"/>
      <use transform="translate(118.478131 0)scale(0.996264)" xlink:href="#CMR17-48"/>
     </g>
    </g>
   </g>
   <g id="xtick_8">
    <g id="line2d_11">
     <path d="M 308.963787 73.719974 
L 313.557088 74.602934 
" style="fill:none;stroke:#000000;stroke-linecap:square;stroke-width:0.8;"/>
    </g>
    <g id="text_8">
     <!-- $0.45$ -->
     <g transform="translate(311.641264 87.430978)scale(0.22 -0.22)">
      <use transform="scale(0.996264)" xlink:href="#CMR17-48"/>
      <use transform="translate(45.690477 0)scale(0.996264)" xlink:href="#CMMI12-58"/>
      <use transform="translate(72.787654 0)scale(0.996264)" xlink:href="#CMR17-52"/>
      <use transform="translate(118.478131 0)scale(0.996264)" xlink:href="#CMR17-53"/>
     </g>
    </g>
   </g>
   <g id="xtick_9">
    <g id="line2d_12">
     <path d="M 310.582275 44.065415 
L 315.228954 44.925941 
" style="fill:none;stroke:#000000;stroke-linecap:square;stroke-width:0.8;"/>
    </g>
    <g id="text_9">
     <!-- $0.50$ -->
     <g transform="translate(313.489045 57.814824)scale(0.22 -0.22)">
      <use transform="scale(0.996264)" xlink:href="#CMR17-48"/>
      <use transform="translate(45.690477 0)scale(0.996264)" xlink:href="#CMMI12-58"/>
      <use transform="translate(72.787654 0)scale(0.996264)" xlink:href="#CMR17-53"/>
      <use transform="translate(118.478131 0)scale(0.996264)" xlink:href="#CMR17-48"/>
     </g>
    </g>
   </g>
  </g>
  <g id="axes_1">
   <g id="Poly3DCollection_1">
    <path clip-path="url(#pa739a93073)" d="M 106.342137 300.269903 
L 134.798495 279.468526 
L 182.272958 291.375984 
L 154.454666 312.668925 
z
" style="fill:#74081d;fill-opacity:0.8;"/>
    <path clip-path="url(#pa739a93073)" d="M 134.798495 279.468526 
L 133.051747 137.476151 
L 183.305731 148.337776 
L 182.272958 291.375984 
z
" style="fill:#5d0618;fill-opacity:0.8;"/>
    <path clip-path="url(#pa739a93073)" d="M 106.342137 300.269903 
L 102.863579 156.460156 
L 133.051747 137.476151 
L 134.798495 279.468526 
z
" style="fill:#ba0c2f;fill-opacity:0.8;"/>
    <path clip-path="url(#pa739a93073)" d="M 154.454666 312.668925 
L 182.272958 291.375984 
L 183.305731 148.337776 
L 153.832878 167.797324 
z
" style="fill:#5d0618;fill-opacity:0.8;"/>
    <path clip-path="url(#pa739a93073)" d="M 106.342137 300.269903 
L 154.454666 312.668925 
L 153.832878 167.797324 
L 102.863579 156.460156 
z
" style="fill:#ba0c2f;fill-opacity:0.8;"/>
    <path clip-path="url(#pa739a93073)" d="M 102.863579 156.460156 
L 153.832878 167.797324 
L 183.305731 148.337776 
L 133.051747 137.476151 
z
" style="fill:#a30a29;fill-opacity:0.8;"/>
   </g>
   <g id="Poly3DCollection_2">
    <path clip-path="url(#pa739a93073)" d="M 145.90515 371.808974 
L 175.428004 348.094096 
L 226.627704 361.66144 
L 197.855495 385.975414 
z
" style="fill:#74081d;fill-opacity:0.8;"/>
    <path clip-path="url(#pa739a93073)" d="M 175.428004 348.094096 
L 176.0935 200.277182 
L 230.54071 212.751359 
L 226.627704 361.66144 
z
" style="fill:#5d0618;fill-opacity:0.8;"/>
    <path clip-path="url(#pa739a93073)" d="M 145.90515 371.808974 
L 144.700269 222.09393 
L 176.0935 200.277182 
L 175.428004 348.094096 
z
" style="fill:#ba0c2f;fill-opacity:0.8;"/>
    <path clip-path="url(#pa739a93073)" d="M 197.855495 385.975414 
L 226.627704 361.66144 
L 230.54071 212.751359 
L 199.997442 235.154762 
z
" style="fill:#5d0618;fill-opacity:0.8;"/>
    <path clip-path="url(#pa739a93073)" d="M 145.90515 371.808974 
L 197.855495 385.975414 
L 199.997442 235.154762 
L 144.700269 222.09393 
z
" style="fill:#ba0c2f;fill-opacity:0.8;"/>
    <path clip-path="url(#pa739a93073)" d="M 144.700269 222.09393 
L 199.997442 235.154762 
L 230.54071 212.751359 
L 176.0935 200.277182 
z
" style="fill:#a30a29;fill-opacity:0.8;"/>
   </g>
   <g id="Poly3DCollection_3">
    <path clip-path="url(#pa739a93073)" d="M 203.722729 325.365739 
L 230.864398 303.5636 
L 280.612706 316.041379 
L 254.188463 338.371203 
z
" style="fill:#74081d;fill-opacity:0.8;"/>
    <path clip-path="url(#pa739a93073)" d="M 230.864398 303.5636 
L 238.103007 39.391667 
L 293.467376 49.760384 
L 280.612706 316.041379 
z
" style="fill:#5d0618;fill-opacity:0.8;"/>
    <path clip-path="url(#pa739a93073)" d="M 203.722729 325.365739 
L 208.087545 57.52638 
L 238.103007 39.391667 
L 230.864398 303.5636 
z
" style="fill:#ba0c2f;fill-opacity:0.8;"/>
    <path clip-path="url(#pa739a93073)" d="M 254.188463 338.371203 
L 280.612706 316.041379 
L 293.467376 49.760384 
L 264.343577 68.383627 
z
" style="fill:#5d0618;fill-opacity:0.8;"/>
    <path clip-path="url(#pa739a93073)" d="M 203.722729 325.365739 
L 254.188463 338.371203 
L 264.343577 68.383627 
L 208.087545 57.52638 
z
" style="fill:#ba0c2f;fill-opacity:0.8;"/>
    <path clip-path="url(#pa739a93073)" d="M 208.087545 57.52638 
L 264.343577 68.383627 
L 293.467376 49.760384 
L 238.103007 39.391667 
z
" style="fill:#a30a29;fill-opacity:0.8;"/>
   </g>
   <g id="Poly3DCollection_4">
    <path clip-path="url(#pa739a93073)" d="M 45.814576 344.515081 
L 76.705813 321.933826 
L 125.46889 334.855493 
L 95.24056 357.993148 
z
" style="fill:#74081d;fill-opacity:0.8;"/>
    <path clip-path="url(#pa739a93073)" d="M 76.705813 321.933826 
L 66.597173 47.153149 
L 120.896706 57.861825 
L 125.46889 334.855493 
z
" style="fill:#5d0618;fill-opacity:0.8;"/>
    <path clip-path="url(#pa739a93073)" d="M 45.814576 344.515081 
L 31.836896 65.886594 
L 66.597173 47.153149 
L 76.705813 321.933826 
z
" style="fill:#ba0c2f;fill-opacity:0.8;"/>
    <path clip-path="url(#pa739a93073)" d="M 95.24056 357.993148 
L 125.46889 334.855493 
L 120.896706 57.861825 
L 86.957532 77.111583 
z
" style="fill:#5d0618;fill-opacity:0.8;"/>
    <path clip-path="url(#pa739a93073)" d="M 45.814576 344.515081 
L 95.24056 357.993148 
L 86.957532 77.111583 
L 31.836896 65.886594 
z
" style="fill:#ba0c2f;fill-opacity:0.8;"/>
    <path clip-path="url(#pa739a93073)" d="M 31.836896 65.886594 
L 86.957532 77.111583 
L 120.896706 57.861825 
L 66.597173 47.153149 
z
" style="fill:#a30a29;fill-opacity:0.8;"/>
   </g>
  </g>
  <g id="patch_6">
   <path d="M 425.945455 262.8 
L 806.4 262.8 
L 806.4 -14.4 
L 425.945455 -14.4 
z
" style="fill:#ffffff;"/>
  </g>
  <g id="pane3d_4">
   <g id="patch_7">
    <path d="M 476.380584 201.548569 
L 585.268665 133.58541 
L 583.455794 3.718968 
L 468.496488 64.782468 
" style="fill:#f2f2f2;opacity:0.5;stroke:#f2f2f2;stroke-linejoin:miter;"/>
   </g>
  </g>
  <g id="pane3d_5">
   <g id="patch_8">
    <path d="M 585.268665 133.58541 
L 761.65712 171.581202 
L 769.037001 37.79869 
L 583.455794 3.718968 
" style="fill:#e6e6e6;opacity:0.5;stroke:#e6e6e6;stroke-linejoin:miter;"/>
   </g>
  </g>
  <g id="pane3d_6">
   <g id="patch_9">
    <path d="M 476.380584 201.548569 
L 661.965072 245.80086 
L 761.65712 171.581202 
L 585.268665 133.58541 
" style="fill:#ececec;opacity:0.5;stroke:#ececec;stroke-linejoin:miter;"/>
   </g>
  </g>
  <g id="axis3d_4">
   <g id="line2d_13">
    <path d="M 476.380584 201.548569 
L 661.965072 245.80086 
" style="fill:none;stroke:#000000;stroke-linecap:square;stroke-width:0.8;"/>
   </g>
   <g id="Line3DCollection_4">
    <path d="M 513.800444 210.471268 
L 620.92963 141.267129 
L 620.91012 10.596997 
" style="fill:none;stroke:#b0b0b0;stroke-width:0.8;"/>
    <path d="M 621.739574 236.209161 
L 723.525199 163.367214 
L 728.849235 30.418697 
" style="fill:none;stroke:#b0b0b0;stroke-width:0.8;"/>
   </g>
   <g id="xtick_10">
    <g id="line2d_14">
     <path d="M 514.72385 209.87476 
L 511.950167 211.666525 
" style="fill:none;stroke:#000000;stroke-linecap:square;stroke-width:0.8;"/>
    </g>
    <g id="text_10">
     <!-- 0 -->
     <g transform="translate(496.285773 242.136387)rotate(-45)scale(0.22 -0.22)">
      <use transform="scale(0.996264)" xlink:href="#CMR17-48"/>
     </g>
    </g>
   </g>
   <g id="xtick_11">
    <g id="line2d_15">
     <path d="M 622.618618 235.580081 
L 619.978095 237.469747 
" style="fill:none;stroke:#000000;stroke-linecap:square;stroke-width:0.8;"/>
    </g>
    <g id="text_11">
     <!-- 1 -->
     <g transform="translate(604.219498 268.292981)rotate(-45)scale(0.22 -0.22)">
      <use transform="scale(0.996264)" xlink:href="#CMR17-49"/>
     </g>
    </g>
   </g>
  </g>
  <g id="axis3d_5">
   <g id="line2d_16">
    <path d="M 761.65712 171.581202 
L 661.965072 245.80086 
" style="fill:none;stroke:#000000;stroke-linecap:square;stroke-width:0.8;"/>
   </g>
   <g id="Line3DCollection_5">
    <path d="M 494.058657 51.204485 
L 500.519418 186.482168 
L 684.123027 229.3045 
" style="fill:none;stroke:#b0b0b0;stroke-width:0.8;"/>
    <path d="M 560.876051 15.712761 
L 563.814301 146.976282 
L 742.067505 186.16546 
" style="fill:none;stroke:#b0b0b0;stroke-width:0.8;"/>
   </g>
   <g id="xtick_12">
    <g id="line2d_17">
     <path d="M 682.587211 228.946298 
L 687.198051 230.021696 
" style="fill:none;stroke:#000000;stroke-linecap:square;stroke-width:0.8;"/>
    </g>
    <g id="text_12">
     <!-- 0 -->
     <g transform="translate(698.420015 244.311113)rotate(-337.5)scale(0.22 -0.22)">
      <use transform="scale(0.996264)" xlink:href="#CMR17-48"/>
     </g>
    </g>
   </g>
   <g id="xtick_13">
    <g id="line2d_18">
     <path d="M 740.579324 185.838281 
L 745.047008 186.820507 
" style="fill:none;stroke:#000000;stroke-linecap:square;stroke-width:0.8;"/>
    </g>
    <g id="text_13">
     <!-- 1 -->
     <g transform="translate(755.777306 200.666315)rotate(-337.5)scale(0.22 -0.22)">
      <use transform="scale(0.996264)" xlink:href="#CMR17-49"/>
     </g>
    </g>
   </g>
  </g>
  <g id="axis3d_6">
   <g id="line2d_19">
    <path d="M 761.65712 171.581202 
L 769.037001 37.79869 
" style="fill:none;stroke:#000000;stroke-linecap:square;stroke-width:0.8;"/>
   </g>
   <g id="Line3DCollection_6">
    <path d="M 761.904795 167.091346 
L 585.207695 129.217796 
L 476.116426 196.966212 
" style="fill:none;stroke:#b0b0b0;stroke-width:0.8;"/>
    <path d="M 764.58094 118.578181 
L 584.549482 82.0662 
L 473.260246 147.419797 
" style="fill:none;stroke:#b0b0b0;stroke-width:0.8;"/>
    <path d="M 767.360943 68.182282 
L 583.866826 33.163548 
L 470.289443 95.885014 
" style="fill:none;stroke:#b0b0b0;stroke-width:0.8;"/>
   </g>
   <g id="xtick_14">
    <g id="line2d_20">
     <path d="M 760.430464 166.775335 
L 764.856527 167.724025 
" style="fill:none;stroke:#000000;stroke-linecap:square;stroke-width:0.8;"/>
    </g>
    <g id="text_14">
     <!-- $0.0$ -->
     <g transform="translate(767.413878 180.373786)scale(0.22 -0.22)">
      <use transform="scale(0.996264)" xlink:href="#CMR17-48"/>
      <use transform="translate(45.690477 0)scale(0.996264)" xlink:href="#CMMI12-58"/>
      <use transform="translate(72.787654 0)scale(0.996264)" xlink:href="#CMR17-48"/>
     </g>
    </g>
   </g>
   <g id="xtick_15">
    <g id="line2d_21">
     <path d="M 763.07761 118.273292 
L 767.59079 119.188605 
" style="fill:none;stroke:#000000;stroke-linecap:square;stroke-width:0.8;"/>
    </g>
    <g id="text_15">
     <!-- $0.2$ -->
     <defs>
      <path d="M 41.703125 15.46875 
L 39.90625 15.46875 
C 38.90625 8.390625 38.09375 7.1875 37.703125 6.59375 
C 37.203125 5.796875 30 5.796875 28.59375 5.796875 
L 9.40625 5.796875 
C 13 9.6875 20 16.765625 28.5 24.9375 
C 34.59375 30.71875 41.703125 37.5 41.703125 47.390625 
C 41.703125 59.1875 32.296875 66 21.796875 66 
C 10.796875 66 4.09375 56.296875 4.09375 47.296875 
C 4.09375 43.390625 7 42.890625 8.203125 42.890625 
C 9.203125 42.890625 12.203125 43.484375 12.203125 46.984375 
C 12.203125 50.09375 9.59375 51 8.203125 51 
C 7.59375 51 7 50.890625 6.59375 50.6875 
C 8.5 59.1875 14.296875 63.390625 20.40625 63.390625 
C 29.09375 63.390625 34.796875 56.5 34.796875 47.390625 
C 34.796875 38.703125 29.703125 31.21875 24 24.734375 
L 4.09375 2.296875 
L 4.09375 0 
L 39.296875 0 
z
" id="CMR17-50"/>
     </defs>
     <g transform="translate(770.436402 131.928901)scale(0.22 -0.22)">
      <use transform="scale(0.996264)" xlink:href="#CMR17-48"/>
      <use transform="translate(45.690477 0)scale(0.996264)" xlink:href="#CMMI12-58"/>
      <use transform="translate(72.787654 0)scale(0.996264)" xlink:href="#CMR17-50"/>
     </g>
    </g>
   </g>
   <g id="xtick_16">
    <g id="line2d_22">
     <path d="M 765.827451 67.889625 
L 770.431243 68.768231 
" style="fill:none;stroke:#000000;stroke-linecap:square;stroke-width:0.8;"/>
    </g>
    <g id="text_16">
     <!-- $0.4$ -->
     <g transform="translate(773.575967 81.608083)scale(0.22 -0.22)">
      <use transform="scale(0.996264)" xlink:href="#CMR17-48"/>
      <use transform="translate(45.690477 0)scale(0.996264)" xlink:href="#CMMI12-58"/>
      <use transform="translate(72.787654 0)scale(0.996264)" xlink:href="#CMR17-52"/>
     </g>
    </g>
   </g>
  </g>
  <g id="axes_2">
   <g id="Poly3DCollection_5">
    <path clip-path="url(#p436c92e84c)" d="M 589.573812 135.574791 
L 589.550387 133.670624 
L 639.878884 144.501549 
L 639.865025 146.421094 
z
" style="fill:#065d4c;fill-opacity:0.8;"/>
    <path clip-path="url(#p436c92e84c)" d="M 559.362398 154.532147 
L 559.315692 152.601231 
L 589.550387 133.670624 
L 589.573812 135.574791 
z
" style="fill:#0cba97;fill-opacity:0.8;"/>
    <path clip-path="url(#p436c92e84c)" d="M 559.362398 154.532147 
L 589.573812 135.574791 
L 639.865025 146.421094 
L 610.36999 165.853687 
z
" style="fill:#08745e;fill-opacity:0.8;"/>
    <path clip-path="url(#p436c92e84c)" d="M 559.315692 152.601231 
L 610.361635 163.907083 
L 639.878884 144.501549 
L 589.550387 133.670624 
z
" style="fill:#0aa384;fill-opacity:0.8;"/>
    <path clip-path="url(#p436c92e84c)" d="M 610.36999 165.853687 
L 639.865025 146.421094 
L 639.878884 144.501549 
L 610.361635 163.907083 
z
" style="fill:#065d4c;fill-opacity:0.8;"/>
    <path clip-path="url(#p436c92e84c)" d="M 559.362398 154.532147 
L 610.36999 165.853687 
L 610.361635 163.907083 
L 559.315692 152.601231 
z
" style="fill:#0cba97;fill-opacity:0.8;"/>
   </g>
   <g id="Poly3DCollection_6">
    <path clip-path="url(#p436c92e84c)" d="M 691.411118 157.538038 
L 691.411118 157.538038 
L 744.259653 168.935879 
L 744.259653 168.935879 
z
" style="fill:#065d4c;fill-opacity:0.8;"/>
    <path clip-path="url(#p436c92e84c)" d="M 662.678449 177.463965 
L 662.678449 177.463965 
L 691.411118 157.538038 
L 691.411118 157.538038 
z
" style="fill:#065d4c;fill-opacity:0.8;"/>
    <path clip-path="url(#p436c92e84c)" d="M 662.678449 177.463965 
L 691.411118 157.538038 
L 744.259653 168.935879 
L 716.338182 189.374168 
z
" style="fill:#08745e;fill-opacity:0.8;"/>
    <path clip-path="url(#p436c92e84c)" d="M 662.678449 177.463965 
L 716.338182 189.374168 
L 744.259653 168.935879 
L 691.411118 157.538038 
z
" style="fill:#0aa384;fill-opacity:0.8;"/>
    <path clip-path="url(#p436c92e84c)" d="M 716.338182 189.374168 
L 744.259653 168.935879 
L 744.259653 168.935879 
L 716.338182 189.374168 
z
" style="fill:#065d4c;fill-opacity:0.8;"/>
    <path clip-path="url(#p436c92e84c)" d="M 662.678449 177.463965 
L 716.338182 189.374168 
L 716.338182 189.374168 
L 662.678449 177.463965 
z
" style="fill:#065d4c;fill-opacity:0.8;"/>
   </g>
   <g id="Poly3DCollection_7">
    <path clip-path="url(#p436c92e84c)" d="M 527.820995 174.324058 
L 527.820995 174.324058 
L 579.55979 186.152767 
L 579.55979 186.152767 
z
" style="fill:#065d4c;fill-opacity:0.8;"/>
    <path clip-path="url(#p436c92e84c)" d="M 494.8598 195.006874 
L 494.8598 195.006874 
L 527.820995 174.324058 
L 527.820995 174.324058 
z
" style="fill:#065d4c;fill-opacity:0.8;"/>
    <path clip-path="url(#p436c92e84c)" d="M 494.8598 195.006874 
L 527.820995 174.324058 
L 579.55979 186.152767 
L 547.344453 207.377611 
z
" style="fill:#08745e;fill-opacity:0.8;"/>
    <path clip-path="url(#p436c92e84c)" d="M 494.8598 195.006874 
L 547.344453 207.377611 
L 579.55979 186.152767 
L 527.820995 174.324058 
z
" style="fill:#0aa384;fill-opacity:0.8;"/>
    <path clip-path="url(#p436c92e84c)" d="M 547.344453 207.377611 
L 579.55979 186.152767 
L 579.55979 186.152767 
L 547.344453 207.377611 
z
" style="fill:#065d4c;fill-opacity:0.8;"/>
    <path clip-path="url(#p436c92e84c)" d="M 494.8598 195.006874 
L 547.344453 207.377611 
L 547.344453 207.377611 
L 494.8598 195.006874 
z
" style="fill:#065d4c;fill-opacity:0.8;"/>
   </g>
   <g id="Poly3DCollection_8">
    <path clip-path="url(#p436c92e84c)" d="M 632.647901 198.289962 
L 632.638955 200.277182 
L 687.086164 212.751359 
L 687.138811 210.747869 
z
" style="fill:#0cba97;fill-opacity:0.8;"/>
    <path clip-path="url(#p436c92e84c)" d="M 601.229503 220.078425 
L 601.245724 222.09393 
L 632.638955 200.277182 
L 632.647901 198.289962 
z
" style="fill:#065d4c;fill-opacity:0.8;"/>
    <path clip-path="url(#p436c92e84c)" d="M 601.245724 222.09393 
L 656.542897 235.154762 
L 687.086164 212.751359 
L 632.638955 200.277182 
z
" style="fill:#0aa384;fill-opacity:0.8;"/>
    <path clip-path="url(#p436c92e84c)" d="M 601.229503 220.078425 
L 632.647901 198.289962 
L 687.138811 210.747869 
L 656.571756 233.122704 
z
" style="fill:#08745e;fill-opacity:0.8;"/>
    <path clip-path="url(#p436c92e84c)" d="M 656.571756 233.122704 
L 687.138811 210.747869 
L 687.086164 212.751359 
L 656.542897 235.154762 
z
" style="fill:#0cba97;fill-opacity:0.8;"/>
    <path clip-path="url(#p436c92e84c)" d="M 601.229503 220.078425 
L 656.571756 233.122704 
L 656.542897 235.154762 
L 601.245724 222.09393 
z
" style="fill:#065d4c;fill-opacity:0.8;"/>
   </g>
   <g id="Poly3DCollection_9">
    <path clip-path="url(#p436c92e84c)" d="M 482.015618 196.34954 
L 660.313635 238.570818 
L 756.366862 167.670253 
L 586.573092 131.205792 
z
" style="fill-opacity:0.2;"/>
   </g>
  </g>
 </g>
 <defs>
  <clipPath id="pa739a93073">
   <rect height="277.2" width="380.454545" x="-30.6" y="-14.4"/>
  </clipPath>
  <clipPath id="p436c92e84c">
   <rect height="277.2" width="380.454545" x="425.945455" y="-14.4"/>
  </clipPath>
 </defs>
</svg>
