<?xml version="1.0" encoding="utf-8" standalone="no"?>
<!DOCTYPE svg PUBLIC "-//W3C//DTD SVG 1.1//EN"
  "http://www.w3.org/Graphics/SVG/1.1/DTD/svg11.dtd">
<!-- Created with matplotlib (https://matplotlib.org/) -->
<svg height="302.4pt" version="1.1" viewBox="0 0 820.8 302.4" width="820.8pt" xmlns="http://www.w3.org/2000/svg" xmlns:xlink="http://www.w3.org/1999/xlink">
 <defs>
  <style type="text/css">
*{stroke-linecap:butt;stroke-linejoin:round;}
  </style>
 </defs>
 <g id="figure_1">
  <g id="patch_1">
   <path d="M 0 302.4 
L 820.8 302.4 
L 820.8 0 
L 0 0 
z
" style="fill:#ffffff;"/>
  </g>
  <g id="patch_2">
   <path d="M -30.6 262.8 
L 349.854545 262.8 
L 349.854545 -14.4 
L -30.6 -14.4 
z
" style="fill:#ffffff;"/>
  </g>
  <g id="pane3d_1">
   <g id="patch_3">
    <path d="M 19.835129 201.548569 
L 128.723211 133.58541 
L 126.910339 3.718968 
L 11.951034 64.782468 
" style="fill:#f2f2f2;opacity:0.5;stroke:#f2f2f2;stroke-linejoin:miter;"/>
   </g>
  </g>
  <g id="pane3d_2">
   <g id="patch_4">
    <path d="M 128.723211 133.58541 
L 305.111665 171.581202 
L 312.491547 37.79869 
L 126.910339 3.718968 
" style="fill:#e6e6e6;opacity:0.5;stroke:#e6e6e6;stroke-linejoin:miter;"/>
   </g>
  </g>
  <g id="pane3d_3">
   <g id="patch_5">
    <path d="M 19.835129 201.548569 
L 205.419617 245.80086 
L 305.111665 171.581202 
L 128.723211 133.58541 
" style="fill:#ececec;opacity:0.5;stroke:#ececec;stroke-linejoin:miter;"/>
   </g>
  </g>
  <g id="axis3d_1">
   <g id="line2d_1">
    <path d="M 19.835129 201.548569 
L 205.419617 245.80086 
" style="fill:none;stroke:#000000;stroke-linecap:square;stroke-width:0.8;"/>
   </g>
   <g id="Line3DCollection_1">
    <path d="M 42.295817 206.90428 
L 150.133942 138.19749 
L 149.393845 7.847789 
" style="fill:none;stroke:#b0b0b0;stroke-width:0.8;"/>
    <path d="M 87.512337 217.686079 
L 193.184014 147.470895 
L 194.636898 16.156123 
" style="fill:none;stroke:#b0b0b0;stroke-width:0.8;"/>
    <path d="M 133.765289 228.715013 
L 237.148096 156.941187 
L 240.890183 24.649974 
" style="fill:none;stroke:#b0b0b0;stroke-width:0.8;"/>
    <path d="M 181.090721 239.999678 
L 282.055608 166.614702 
L 288.187917 33.335625 
" style="fill:none;stroke:#b0b0b0;stroke-width:0.8;"/>
   </g>
   <g id="xtick_1">
    <g id="line2d_2">
     <path d="M 43.225084 206.312217 
L 40.433807 208.09062 
" style="fill:none;stroke:#000000;stroke-linecap:square;stroke-width:0.8;"/>
    </g>
    <g id="text_1">
     <!-- 00 -->
     <defs>
      <path d="M 42 31.84375 
C 42 37.96875 41.90625 48.421875 37.703125 56.453125 
C 34 63.484375 28.09375 66 22.90625 66 
C 18.09375 66 12 63.78125 8.203125 56.5625 
C 4.203125 49.015625 3.796875 39.671875 3.796875 31.84375 
C 3.796875 26.109375 3.90625 17.375 7 9.734375 
C 11.296875 -0.609375 19 -2 22.90625 -2 
C 27.5 -2 34.5 -0.109375 38.59375 9.4375 
C 41.59375 16.375 42 24.5 42 31.84375 
z
M 22.90625 -0.40625 
C 16.5 -0.40625 12.703125 5.125 11.296875 12.75 
C 10.203125 18.6875 10.203125 27.328125 10.203125 32.953125 
C 10.203125 40.6875 10.203125 47.109375 11.5 53.234375 
C 13.40625 61.78125 19 64.390625 22.90625 64.390625 
C 27 64.390625 32.296875 61.671875 34.203125 53.4375 
C 35.5 47.71875 35.59375 40.984375 35.59375 32.953125 
C 35.59375 26.421875 35.59375 18.375 34.40625 12.453125 
C 32.296875 1.5 26.40625 -0.40625 22.90625 -0.40625 
z
" id="CMR17-48"/>
     </defs>
     <g transform="translate(23.330362 237.14703)rotate(-45)scale(0.14 -0.14)">
      <use transform="scale(0.996264)" xlink:href="#CMR17-48"/>
      <use transform="translate(45.690477 0)scale(0.996264)" xlink:href="#CMR17-48"/>
     </g>
    </g>
   </g>
   <g id="xtick_2">
    <g id="line2d_3">
     <path d="M 88.423674 217.080527 
L 85.686217 218.899473 
" style="fill:none;stroke:#000000;stroke-linecap:square;stroke-width:0.8;"/>
    </g>
    <g id="text_2">
     <!-- 01 -->
     <defs>
      <path d="M 26.59375 63.796875 
C 26.59375 65.890625 26.5 66 25.09375 66 
C 21.203125 61.359375 15.296875 59.890625 9.703125 59.6875 
C 9.40625 59.6875 8.90625 59.6875 8.796875 59.5 
C 8.703125 59.296875 8.703125 59.09375 8.703125 57 
C 11.796875 57 17 57.59375 21 59.984375 
L 21 7.296875 
C 21 3.796875 20.796875 2.59375 12.203125 2.59375 
L 9.203125 2.59375 
L 9.203125 0 
C 14 0.09375 19 0.1875 23.796875 0.1875 
C 28.59375 0.1875 33.59375 0.09375 38.40625 0 
L 38.40625 2.59375 
L 35.40625 2.59375 
C 26.796875 2.59375 26.59375 3.6875 26.59375 7.296875 
z
" id="CMR17-49"/>
     </defs>
     <g transform="translate(68.542787 248.103782)rotate(-45)scale(0.14 -0.14)">
      <use transform="scale(0.996264)" xlink:href="#CMR17-48"/>
      <use transform="translate(45.690477 0)scale(0.996264)" xlink:href="#CMR17-49"/>
     </g>
    </g>
   </g>
   <g id="xtick_3">
    <g id="line2d_4">
     <path d="M 134.657625 228.095506 
L 131.977203 229.956397 
" style="fill:none;stroke:#000000;stroke-linecap:square;stroke-width:0.8;"/>
    </g>
    <g id="text_3">
     <!-- 10 -->
     <g transform="translate(114.7934 259.312128)rotate(-45)scale(0.14 -0.14)">
      <use transform="scale(0.996264)" xlink:href="#CMR17-49"/>
      <use transform="translate(45.690477 0)scale(0.996264)" xlink:href="#CMR17-48"/>
     </g>
    </g>
   </g>
   <g id="xtick_4">
    <g id="line2d_5">
     <path d="M 181.962926 239.365727 
L 179.342936 241.270032 
" style="fill:none;stroke:#000000;stroke-linecap:square;stroke-width:0.8;"/>
    </g>
    <g id="text_4">
     <!-- 11 -->
     <g transform="translate(162.118375 270.780834)rotate(-45)scale(0.14 -0.14)">
      <use transform="scale(0.996264)" xlink:href="#CMR17-49"/>
      <use transform="translate(45.690477 0)scale(0.996264)" xlink:href="#CMR17-49"/>
     </g>
    </g>
   </g>
  </g>
  <g id="axis3d_2">
   <g id="line2d_6">
    <path d="M 305.111665 171.581202 
L 205.419617 245.80086 
" style="fill:none;stroke:#000000;stroke-linecap:square;stroke-width:0.8;"/>
   </g>
   <g id="Line3DCollection_2">
    <path d="M 27.455231 56.547028 
L 34.471044 192.413474 
L 218.858418 235.795817 
" style="fill:none;stroke:#b0b0b0;stroke-width:0.8;"/>
    <path d="M 57.232024 40.730342 
L 62.623407 174.842005 
L 244.674037 216.576366 
" style="fill:none;stroke:#b0b0b0;stroke-width:0.8;"/>
    <path d="M 85.85589 25.526062 
L 89.739382 157.917404 
L 269.496985 198.095948 
" style="fill:none;stroke:#b0b0b0;stroke-width:0.8;"/>
    <path d="M 113.392516 10.899296 
L 115.875164 141.604597 
L 293.383438 180.312741 
" style="fill:none;stroke:#b0b0b0;stroke-width:0.8;"/>
   </g>
   <g id="xtick_5">
    <g id="line2d_7">
     <path d="M 217.315598 235.432825 
L 221.947489 236.522608 
" style="fill:none;stroke:#000000;stroke-linecap:square;stroke-width:0.8;"/>
    </g>
    <g id="text_5">
     <!-- 00 -->
     <g transform="translate(232.650369 248.348363)rotate(-337.5)scale(0.14 -0.14)">
      <use transform="scale(0.996264)" xlink:href="#CMR17-48"/>
      <use transform="translate(45.690477 0)scale(0.996264)" xlink:href="#CMR17-48"/>
     </g>
    </g>
   </g>
   <g id="xtick_6">
    <g id="line2d_8">
     <path d="M 243.15208 216.227463 
L 247.72127 217.274932 
" style="fill:none;stroke:#000000;stroke-linecap:square;stroke-width:0.8;"/>
    </g>
    <g id="text_6">
     <!-- 01 -->
     <g transform="translate(258.203921 228.903937)rotate(-337.5)scale(0.14 -0.14)">
      <use transform="scale(0.996264)" xlink:href="#CMR17-48"/>
      <use transform="translate(45.690477 0)scale(0.996264)" xlink:href="#CMR17-49"/>
     </g>
    </g>
   </g>
   <g id="xtick_7">
    <g id="line2d_9">
     <path d="M 267.995442 197.76033 
L 272.503283 198.767901 
" style="fill:none;stroke:#000000;stroke-linecap:square;stroke-width:0.8;"/>
    </g>
    <g id="text_7">
     <!-- 10 -->
     <g transform="translate(282.775332 210.206849)rotate(-337.5)scale(0.14 -0.14)">
      <use transform="scale(0.996264)" xlink:href="#CMR17-49"/>
      <use transform="translate(45.690477 0)scale(0.996264)" xlink:href="#CMR17-48"/>
     </g>
    </g>
   </g>
   <g id="xtick_8">
    <g id="line2d_10">
     <path d="M 291.901865 179.989663 
L 296.349691 180.959573 
" style="fill:none;stroke:#000000;stroke-linecap:square;stroke-width:0.8;"/>
    </g>
    <g id="text_8">
     <!-- 11 -->
     <g transform="translate(306.420159 192.214827)rotate(-337.5)scale(0.14 -0.14)">
      <use transform="scale(0.996264)" xlink:href="#CMR17-49"/>
      <use transform="translate(45.690477 0)scale(0.996264)" xlink:href="#CMR17-49"/>
     </g>
    </g>
   </g>
  </g>
  <g id="axis3d_3">
   <g id="line2d_11">
    <path d="M 305.111665 171.581202 
L 312.491547 37.79869 
" style="fill:none;stroke:#000000;stroke-linecap:square;stroke-width:0.8;"/>
   </g>
   <g id="text_9">
    <!-- Re[$\rho$] -->
    <defs>
     <path d="M 39.203125 33.6875 
C 48.703125 35.59375 56.703125 42.015625 56.703125 50.046875 
C 56.703125 59.46875 46.09375 68 32.09375 68 
L 5.203125 68 
L 5.203125 65.390625 
C 12.09375 65.390625 13.203125 65.390625 13.203125 60.875 
L 13.203125 6.6875 
C 13.203125 2.1875 12.09375 2.1875 5.203125 2.1875 
L 5.203125 -0.40625 
C 8.09375 -0.203125 13.296875 -0.203125 16.40625 -0.203125 
C 19.5 -0.203125 24.703125 -0.203125 27.59375 -0.40625 
L 27.59375 2.1875 
C 20.703125 2.1875 19.59375 2.1875 19.59375 6.6875 
L 19.59375 33 
L 31.296875 33 
C 37 33 40.203125 30.6875 41.59375 29.390625 
C 45.59375 25.5 45.59375 22.796875 45.59375 16 
C 45.59375 9.296875 45.59375 5.890625 48.59375 2.5 
C 52.40625 -1.609375 57.5 -2 59.703125 -2 
C 67.09375 -2 68.203125 6.296875 68.203125 8 
C 68.203125 8.59375 68.203125 9.296875 67.296875 9.296875 
C 66.5 9.296875 66.40625 8.6875 66.40625 8.296875 
C 65.90625 1.796875 63 -0.40625 59.90625 -0.40625 
C 54.40625 -0.40625 53.796875 5.890625 53.203125 12 
C 52.90625 14.09375 52.703125 15.59375 52.5 17.796875 
C 51.90625 22.796875 51.09375 30.09375 39.203125 33.6875 
z
M 31 34.59375 
L 19.59375 34.59375 
L 19.59375 61.484375 
C 19.59375 64.890625 19.796875 65.390625 23.796875 65.390625 
L 31.09375 65.390625 
C 39.40625 65.390625 49.09375 62.484375 49.09375 50.046875 
C 49.09375 37.09375 38.5 34.59375 31 34.59375 
z
" id="CMR17-82"/>
     <path d="M 38.09375 23.484375 
C 38.5 23.890625 38.5 24.09375 38.5 25.09375 
C 38.5 35.171875 33.09375 44 21.703125 44 
C 11.09375 44 2.703125 33.984375 2.703125 21.78125 
C 2.703125 8.65625 12.203125 -1 22.796875 -1 
C 34 -1 38.40625 9.671875 38.40625 11.796875 
C 38.40625 12.5 37.796875 12.5 37.59375 12.5 
C 36.90625 12.5 36.796875 12.296875 36.40625 11.078125 
C 34.203125 4.21875 28.703125 0.796875 23.5 0.796875 
C 19.203125 0.796875 14.90625 3.21875 12.203125 7.65625 
C 9.09375 12.796875 9.09375 18.75 9.09375 23.484375 
z
M 9.203125 25 
C 9.90625 39.234375 17.59375 42.390625 21.59375 42.390625 
C 28.40625 42.390625 33 36.0625 33.09375 25 
z
" id="CMR17-101"/>
     <path d="M 23.5 -25 
L 23.5 -21.5 
L 14.09375 -21.5 
L 14.09375 71.484375 
L 23.5 71.484375 
L 23.5 75 
L 10.59375 75 
L 10.59375 -25 
z
" id="CMR17-91"/>
     <path d="M 3.09375 -16.953125 
C 3 -17.4375 2.796875 -18.03125 2.796875 -18.609375 
C 2.796875 -20.109375 4 -21.109375 5.5 -21.109375 
C 7 -21.109375 8.40625 -20.109375 9 -18.71875 
C 9.40625 -17.828125 12.203125 -6.09375 15.40625 6.078125 
C 17.40625 1.09375 21.09375 -1 25 -1 
C 36.296875 -1 49.09375 12.96875 49.09375 28.03125 
C 49.09375 38.703125 42.59375 44 35.703125 44 
C 26.90625 44 16.203125 34.90625 12.90625 21.640625 
z
M 24.90625 1 
C 18.09375 1 16.40625 8.875 16.40625 10.078125 
C 16.40625 10.671875 18.90625 20.140625 19.203125 21.640625 
C 24.296875 41.5 34.09375 41.984375 35.59375 41.984375 
C 40.09375 41.984375 42.59375 37.90625 42.59375 32.015625 
C 42.59375 26.9375 39.90625 17.046875 38.203125 12.859375 
C 35.203125 5.984375 30 1 24.90625 1 
z
" id="CMMI12-26"/>
     <path d="M 14.296875 75 
L 1.40625 75 
L 1.40625 71.484375 
L 10.796875 71.484375 
L 10.796875 -21.5 
L 1.40625 -21.5 
L 1.40625 -25 
L 14.296875 -25 
z
" id="CMR17-93"/>
    </defs>
    <g transform="translate(352.486567 117.931831)rotate(-86.842577)scale(0.14 -0.14)">
     <use transform="scale(0.996264)" xlink:href="#CMR17-82"/>
     <use transform="translate(67.791102 0)scale(0.996264)" xlink:href="#CMR17-101"/>
     <use transform="translate(108.276762 0)scale(0.996264)" xlink:href="#CMR17-91"/>
     <use transform="translate(133.147821 0)scale(0.996264)" xlink:href="#CMMI12-26"/>
     <use transform="translate(183.462194 0)scale(0.996264)" xlink:href="#CMR17-93"/>
    </g>
   </g>
   <g id="Line3DCollection_3">
    <path d="M 305.264365 168.813066 
L 128.68562 130.892565 
L 19.672272 198.723465 
" style="fill:none;stroke:#b0b0b0;stroke-width:0.8;"/>
    <path d="M 308.012017 119.003616 
L 128.009796 82.47937 
L 16.739854 147.854561 
" style="fill:none;stroke:#b0b0b0;stroke-width:0.8;"/>
    <path d="M 310.869284 67.207075 
L 127.308172 32.218027 
L 13.686463 94.887109 
" style="fill:none;stroke:#b0b0b0;stroke-width:0.8;"/>
   </g>
   <g id="xtick_9">
    <g id="line2d_12">
     <path d="M 303.791062 168.496672 
L 308.214035 169.446511 
" style="fill:none;stroke:#000000;stroke-linecap:square;stroke-width:0.8;"/>
    </g>
    <g id="text_10">
     <!-- $0.0$ -->
     <defs>
      <path d="M 18.40625 4.796875 
C 18.40625 7.6875 16 9.6875 13.59375 9.6875 
C 10.703125 9.6875 8.703125 7.296875 8.703125 4.890625 
C 8.703125 2 11.09375 0 13.5 0 
C 16.40625 0 18.40625 2.390625 18.40625 4.796875 
z
" id="CMMI12-58"/>
     </defs>
     <g transform="translate(315.068454 176.558338)scale(0.14 -0.14)">
      <use transform="scale(0.996264)" xlink:href="#CMR17-48"/>
      <use transform="translate(45.690477 0)scale(0.996264)" xlink:href="#CMMI12-58"/>
      <use transform="translate(72.787654 0)scale(0.996264)" xlink:href="#CMR17-48"/>
     </g>
    </g>
   </g>
   <g id="xtick_10">
    <g id="line2d_13">
     <path d="M 306.508941 118.698627 
L 311.021357 119.614241 
" style="fill:none;stroke:#000000;stroke-linecap:square;stroke-width:0.8;"/>
    </g>
    <g id="text_11">
     <!-- $0.2$ -->
     <defs>
      <path d="M 41.703125 15.46875 
L 39.90625 15.46875 
C 38.90625 8.390625 38.09375 7.1875 37.703125 6.59375 
C 37.203125 5.796875 30 5.796875 28.59375 5.796875 
L 9.40625 5.796875 
C 13 9.6875 20 16.765625 28.5 24.9375 
C 34.59375 30.71875 41.703125 37.5 41.703125 47.390625 
C 41.703125 59.1875 32.296875 66 21.796875 66 
C 10.796875 66 4.09375 56.296875 4.09375 47.296875 
C 4.09375 43.390625 7 42.890625 8.203125 42.890625 
C 9.203125 42.890625 12.203125 43.484375 12.203125 46.984375 
C 12.203125 50.09375 9.59375 51 8.203125 51 
C 7.59375 51 7 50.890625 6.59375 50.6875 
C 8.5 59.1875 14.296875 63.390625 20.40625 63.390625 
C 29.09375 63.390625 34.796875 56.5 34.796875 47.390625 
C 34.796875 38.703125 29.703125 31.21875 24 24.734375 
L 4.09375 2.296875 
L 4.09375 0 
L 39.296875 0 
z
" id="CMR17-50"/>
     </defs>
     <g transform="translate(318.171746 126.818903)scale(0.14 -0.14)">
      <use transform="scale(0.996264)" xlink:href="#CMR17-48"/>
      <use transform="translate(45.690477 0)scale(0.996264)" xlink:href="#CMMI12-58"/>
      <use transform="translate(72.787654 0)scale(0.996264)" xlink:href="#CMR17-50"/>
     </g>
    </g>
   </g>
   <g id="xtick_11">
    <g id="line2d_14">
     <path d="M 309.335208 66.914661 
L 313.940755 67.792536 
" style="fill:none;stroke:#000000;stroke-linecap:square;stroke-width:0.8;"/>
    </g>
    <g id="text_12">
     <!-- $0.4$ -->
     <defs>
      <path d="M 33.59375 64.796875 
C 33.59375 66.890625 33.5 67 31.703125 67 
L 2 19.59375 
L 2 17 
L 27.796875 17 
L 27.796875 7.1875 
C 27.796875 3.59375 27.59375 2.59375 20.59375 2.59375 
L 18.703125 2.59375 
L 18.703125 0 
C 21.90625 0.1875 27.296875 0.1875 30.703125 0.1875 
C 34.09375 0.1875 39.5 0.1875 42.703125 0 
L 42.703125 2.59375 
L 40.796875 2.59375 
C 33.796875 2.59375 33.59375 3.59375 33.59375 7.1875 
L 33.59375 17 
L 43.796875 17 
L 43.796875 19.59375 
L 33.59375 19.59375 
z
M 28.09375 58.171875 
L 28.09375 19.59375 
L 4 19.59375 
z
" id="CMR17-52"/>
     </defs>
     <g transform="translate(321.398567 75.099553)scale(0.14 -0.14)">
      <use transform="scale(0.996264)" xlink:href="#CMR17-48"/>
      <use transform="translate(45.690477 0)scale(0.996264)" xlink:href="#CMMI12-58"/>
      <use transform="translate(72.787654 0)scale(0.996264)" xlink:href="#CMR17-52"/>
     </g>
    </g>
   </g>
  </g>
  <g id="axes_1">
   <g id="Poly3DCollection_1">
    <path clip-path="url(#p0229d4a479)" d="M 133.049059 137.257588 
L 132.960476 130.056739 
L 154.408805 134.653577 
L 154.437808 141.879294 
z
" style="fill:#5d0618;fill-opacity:0.8;"/>
    <path clip-path="url(#p0229d4a479)" d="M 120.267328 145.293447 
L 120.141914 138.049445 
L 132.960476 130.056739 
L 133.049059 137.257588 
z
" style="fill:#ba0c2f;fill-opacity:0.8;"/>
    <path clip-path="url(#p0229d4a479)" d="M 120.267328 145.293447 
L 133.049059 137.257588 
L 154.437808 141.879294 
L 141.784404 149.999988 
z
" style="fill:#74081d;fill-opacity:0.8;"/>
    <path clip-path="url(#p0229d4a479)" d="M 120.141914 138.049445 
L 141.719287 142.730901 
L 154.408805 134.653577 
L 132.960476 130.056739 
z
" style="fill:#a30a29;fill-opacity:0.8;"/>
    <path clip-path="url(#p0229d4a479)" d="M 141.784404 149.999988 
L 154.437808 141.879294 
L 154.408805 134.653577 
L 141.719287 142.730901 
z
" style="fill:#5d0618;fill-opacity:0.8;"/>
    <path clip-path="url(#p0229d4a479)" d="M 120.267328 145.293447 
L 141.784404 149.999988 
L 141.719287 142.730901 
L 120.141914 138.049445 
z
" style="fill:#ba0c2f;fill-opacity:0.8;"/>
   </g>
   <g id="Poly3DCollection_2">
    <path clip-path="url(#p0229d4a479)" d="M 176.05192 146.549697 
L 176.057668 145.241005 
L 197.911941 149.956361 
L 197.894977 151.269571 
z
" style="fill:#5d0618;fill-opacity:0.8;"/>
    <path clip-path="url(#p0229d4a479)" d="M 163.530285 154.756577 
L 163.529648 153.440046 
L 176.057668 145.241005 
L 176.05192 146.549697 
z
" style="fill:#ba0c2f;fill-opacity:0.8;"/>
    <path clip-path="url(#p0229d4a479)" d="M 163.530285 154.756577 
L 176.05192 146.549697 
L 197.894977 151.269571 
L 185.508638 159.564015 
z
" style="fill:#74081d;fill-opacity:0.8;"/>
    <path clip-path="url(#p0229d4a479)" d="M 163.529648 153.440046 
L 185.519357 158.242928 
L 197.911941 149.956361 
L 176.057668 145.241005 
z
" style="fill:#a30a29;fill-opacity:0.8;"/>
    <path clip-path="url(#p0229d4a479)" d="M 185.508638 159.564015 
L 197.894977 151.269571 
L 197.911941 149.956361 
L 185.519357 158.242928 
z
" style="fill:#5d0618;fill-opacity:0.8;"/>
    <path clip-path="url(#p0229d4a479)" d="M 163.530285 154.756577 
L 185.508638 159.564015 
L 185.519357 158.242928 
L 163.529648 153.440046 
z
" style="fill:#ba0c2f;fill-opacity:0.8;"/>
   </g>
   <g id="Poly3DCollection_3">
    <path clip-path="url(#p0229d4a479)" d="M 107.250519 153.477099 
L 107.255484 153.698282 
L 128.900155 158.49278 
L 128.897042 158.270833 
z
" style="fill:#ba0c2f;fill-opacity:0.8;"/>
    <path clip-path="url(#p0229d4a479)" d="M 93.992087 161.81266 
L 93.998253 162.035168 
L 107.255484 153.698282 
L 107.250519 153.477099 
z
" style="fill:#5d0618;fill-opacity:0.8;"/>
    <path clip-path="url(#p0229d4a479)" d="M 93.998253 162.035168 
L 115.773462 166.919311 
L 128.900155 158.49278 
L 107.255484 153.698282 
z
" style="fill:#a30a29;fill-opacity:0.8;"/>
    <path clip-path="url(#p0229d4a479)" d="M 93.992087 161.81266 
L 107.250519 153.477099 
L 128.897042 158.270833 
L 115.76917 166.696031 
z
" style="fill:#74081d;fill-opacity:0.8;"/>
    <path clip-path="url(#p0229d4a479)" d="M 115.76917 166.696031 
L 128.897042 158.270833 
L 128.900155 158.49278 
L 115.773462 166.919311 
z
" style="fill:#ba0c2f;fill-opacity:0.8;"/>
    <path clip-path="url(#p0229d4a479)" d="M 93.992087 161.81266 
L 115.76917 166.696031 
L 115.773462 166.919311 
L 93.998253 162.035168 
z
" style="fill:#5d0618;fill-opacity:0.8;"/>
   </g>
   <g id="Poly3DCollection_4">
    <path clip-path="url(#p0229d4a479)" d="M 219.970635 156.039705 
L 219.975671 155.806226 
L 242.289739 160.62662 
L 242.28263 160.860908 
z
" style="fill:#5d0618;fill-opacity:0.8;"/>
    <path clip-path="url(#p0229d4a479)" d="M 207.723212 164.423124 
L 207.727166 164.188242 
L 219.975671 155.806226 
L 219.970635 156.039705 
z
" style="fill:#ba0c2f;fill-opacity:0.8;"/>
    <path clip-path="url(#p0229d4a479)" d="M 207.723212 164.423124 
L 219.970635 156.039705 
L 242.28263 160.860908 
L 230.177835 169.334739 
z
" style="fill:#74081d;fill-opacity:0.8;"/>
    <path clip-path="url(#p0229d4a479)" d="M 207.727166 164.188242 
L 230.183889 169.099043 
L 242.289739 160.62662 
L 219.975671 155.806226 
z
" style="fill:#a30a29;fill-opacity:0.8;"/>
    <path clip-path="url(#p0229d4a479)" d="M 230.177835 169.334739 
L 242.28263 160.860908 
L 242.289739 160.62662 
L 230.183889 169.099043 
z
" style="fill:#5d0618;fill-opacity:0.8;"/>
    <path clip-path="url(#p0229d4a479)" d="M 207.723212 164.423124 
L 230.177835 169.334739 
L 230.183889 169.099043 
L 207.727166 164.188242 
z
" style="fill:#ba0c2f;fill-opacity:0.8;"/>
   </g>
   <g id="Poly3DCollection_5">
    <path clip-path="url(#p0229d4a479)" d="M 150.775884 163.116015 
L 150.774917 162.939637 
L 172.89137 167.836488 
L 172.890806 168.013478 
z
" style="fill:#5d0618;fill-opacity:0.8;"/>
    <path clip-path="url(#p0229d4a479)" d="M 137.782166 171.632305 
L 137.780284 171.454866 
L 150.774917 162.939637 
L 150.775884 163.116015 
z
" style="fill:#ba0c2f;fill-opacity:0.8;"/>
    <path clip-path="url(#p0229d4a479)" d="M 137.782166 171.632305 
L 150.775884 163.116015 
L 172.890806 168.013478 
L 160.03493 176.622345 
z
" style="fill:#74081d;fill-opacity:0.8;"/>
    <path clip-path="url(#p0229d4a479)" d="M 137.780284 171.454866 
L 160.034598 176.44429 
L 172.89137 167.836488 
L 150.774917 162.939637 
z
" style="fill:#a30a29;fill-opacity:0.8;"/>
    <path clip-path="url(#p0229d4a479)" d="M 160.03493 176.622345 
L 172.890806 168.013478 
L 172.89137 167.836488 
L 160.034598 176.44429 
z
" style="fill:#5d0618;fill-opacity:0.8;"/>
    <path clip-path="url(#p0229d4a479)" d="M 137.782166 171.632305 
L 160.03493 176.622345 
L 160.034598 176.44429 
L 137.780284 171.454866 
z
" style="fill:#ba0c2f;fill-opacity:0.8;"/>
   </g>
   <g id="Poly3DCollection_6">
    <path clip-path="url(#p0229d4a479)" d="M 80.485241 170.304397 
L 80.463685 169.653409 
L 102.377953 174.626695 
L 102.393992 175.279945 
z
" style="fill:#5d0618;fill-opacity:0.8;"/>
    <path clip-path="url(#p0229d4a479)" d="M 66.722933 178.956744 
L 66.697621 178.301831 
L 80.463685 169.653409 
L 80.485241 170.304397 
z
" style="fill:#ba0c2f;fill-opacity:0.8;"/>
    <path clip-path="url(#p0229d4a479)" d="M 66.722933 178.956744 
L 80.485241 170.304397 
L 102.393992 175.279945 
L 88.764455 184.027102 
z
" style="fill:#74081d;fill-opacity:0.8;"/>
    <path clip-path="url(#p0229d4a479)" d="M 66.697621 178.301831 
L 88.744725 183.36991 
L 102.377953 174.626695 
L 80.463685 169.653409 
z
" style="fill:#a30a29;fill-opacity:0.8;"/>
    <path clip-path="url(#p0229d4a479)" d="M 88.764455 184.027102 
L 102.393992 175.279945 
L 102.377953 174.626695 
L 88.744725 183.36991 
z
" style="fill:#5d0618;fill-opacity:0.8;"/>
    <path clip-path="url(#p0229d4a479)" d="M 66.722933 178.956744 
L 88.764455 184.027102 
L 88.744725 183.36991 
L 66.697621 178.301831 
z
" style="fill:#ba0c2f;fill-opacity:0.8;"/>
   </g>
   <g id="Poly3DCollection_7">
    <path clip-path="url(#p0229d4a479)" d="M 195.245649 172.964073 
L 195.249731 172.623579 
L 217.851486 177.626992 
L 217.84434 177.968669 
z
" style="fill:#5d0618;fill-opacity:0.8;"/>
    <path clip-path="url(#p0229d4a479)" d="M 182.5314 181.667035 
L 182.533802 181.324488 
L 195.249731 172.623579 
L 195.245649 172.964073 
z
" style="fill:#ba0c2f;fill-opacity:0.8;"/>
    <path clip-path="url(#p0229d4a479)" d="M 182.5314 181.667035 
L 195.245649 172.964073 
L 217.84434 177.968669 
L 205.275603 186.767277 
z
" style="fill:#74081d;fill-opacity:0.8;"/>
    <path clip-path="url(#p0229d4a479)" d="M 182.533802 181.324488 
L 205.281109 186.423537 
L 217.851486 177.626992 
L 195.249731 172.623579 
z
" style="fill:#a30a29;fill-opacity:0.8;"/>
    <path clip-path="url(#p0229d4a479)" d="M 205.275603 186.767277 
L 217.84434 177.968669 
L 217.851486 177.626992 
L 205.281109 186.423537 
z
" style="fill:#5d0618;fill-opacity:0.8;"/>
    <path clip-path="url(#p0229d4a479)" d="M 182.5314 181.667035 
L 205.275603 186.767277 
L 205.281109 186.423537 
L 182.533802 181.324488 
z
" style="fill:#ba0c2f;fill-opacity:0.8;"/>
   </g>
   <g id="Poly3DCollection_8">
    <path clip-path="url(#p0229d4a479)" d="M 124.542331 180.309904 
L 124.536952 179.970875 
L 146.931811 185.054962 
L 146.934209 185.395171 
z
" style="fill:#5d0618;fill-opacity:0.8;"/>
    <path clip-path="url(#p0229d4a479)" d="M 111.04932 189.153438 
L 111.042068 188.812362 
L 124.536952 179.970875 
L 124.542331 180.309904 
z
" style="fill:#ba0c2f;fill-opacity:0.8;"/>
    <path clip-path="url(#p0229d4a479)" d="M 111.04932 189.153438 
L 124.542331 180.309904 
L 146.934209 185.395171 
L 133.581582 194.336685 
z
" style="fill:#74081d;fill-opacity:0.8;"/>
    <path clip-path="url(#p0229d4a479)" d="M 111.042068 188.812362 
L 133.577349 193.994419 
L 146.931811 185.054962 
L 124.536952 179.970875 
z
" style="fill:#a30a29;fill-opacity:0.8;"/>
    <path clip-path="url(#p0229d4a479)" d="M 133.581582 194.336685 
L 146.934209 185.395171 
L 146.931811 185.054962 
L 133.577349 193.994419 
z
" style="fill:#5d0618;fill-opacity:0.8;"/>
    <path clip-path="url(#p0229d4a479)" d="M 111.04932 189.153438 
L 133.581582 194.336685 
L 133.577349 193.994419 
L 111.042068 188.812362 
z
" style="fill:#ba0c2f;fill-opacity:0.8;"/>
   </g>
   <g id="Poly3DCollection_9">
    <path clip-path="url(#p0229d4a479)" d="M 240.69089 183.028155 
L 240.698022 182.790214 
L 263.798752 187.904668 
L 263.789398 188.143438 
z
" style="fill:#5d0618;fill-opacity:0.8;"/>
    <path clip-path="url(#p0229d4a479)" d="M 228.271653 191.923995 
L 228.277676 191.684615 
L 240.698022 182.790214 
L 240.69089 183.028155 
z
" style="fill:#ba0c2f;fill-opacity:0.8;"/>
    <path clip-path="url(#p0229d4a479)" d="M 228.271653 191.923995 
L 240.69089 183.028155 
L 263.789398 188.143438 
L 251.523756 197.13813 
z
" style="fill:#74081d;fill-opacity:0.8;"/>
    <path clip-path="url(#p0229d4a479)" d="M 228.277676 191.684615 
L 251.532031 196.897915 
L 263.798752 187.904668 
L 240.698022 182.790214 
z
" style="fill:#a30a29;fill-opacity:0.8;"/>
    <path clip-path="url(#p0229d4a479)" d="M 251.523756 197.13813 
L 263.789398 188.143438 
L 263.798752 187.904668 
L 251.532031 196.897915 
z
" style="fill:#5d0618;fill-opacity:0.8;"/>
    <path clip-path="url(#p0229d4a479)" d="M 228.271653 191.923995 
L 251.523756 197.13813 
L 251.532031 196.897915 
L 228.277676 191.684615 
z
" style="fill:#ba0c2f;fill-opacity:0.8;"/>
   </g>
   <g id="Poly3DCollection_10">
    <path clip-path="url(#p0229d4a479)" d="M 169.573666 190.536665 
L 169.574008 190.35691 
L 192.466812 195.554939 
L 192.46483 195.735321 
z
" style="fill:#5d0618;fill-opacity:0.8;"/>
    <path clip-path="url(#p0229d4a479)" d="M 156.365383 199.577795 
L 156.364779 199.396952 
L 169.574008 190.35691 
L 169.573666 190.536665 
z
" style="fill:#ba0c2f;fill-opacity:0.8;"/>
    <path clip-path="url(#p0229d4a479)" d="M 156.365383 199.577795 
L 169.573666 190.536665 
L 192.46483 195.735321 
L 179.404959 204.877742 
z
" style="fill:#74081d;fill-opacity:0.8;"/>
    <path clip-path="url(#p0229d4a479)" d="M 156.364779 199.396952 
L 179.406017 204.696267 
L 192.466812 195.554939 
L 169.574008 190.35691 
z
" style="fill:#a30a29;fill-opacity:0.8;"/>
    <path clip-path="url(#p0229d4a479)" d="M 179.404959 204.877742 
L 192.46483 195.735321 
L 192.466812 195.554939 
L 179.406017 204.696267 
z
" style="fill:#5d0618;fill-opacity:0.8;"/>
    <path clip-path="url(#p0229d4a479)" d="M 156.365383 199.577795 
L 179.404959 204.877742 
L 179.406017 204.696267 
L 156.364779 199.396952 
z
" style="fill:#ba0c2f;fill-opacity:0.8;"/>
   </g>
   <g id="Poly3DCollection_11">
    <path clip-path="url(#p0229d4a479)" d="M 97.295802 198.167714 
L 97.27802 197.504239 
L 119.95784 202.786005 
L 119.969713 203.451799 
z
" style="fill:#5d0618;fill-opacity:0.8;"/>
    <path clip-path="url(#p0229d4a479)" d="M 83.274157 207.357724 
L 83.252471 206.690225 
L 97.27802 197.504239 
L 97.295802 198.167714 
z
" style="fill:#ba0c2f;fill-opacity:0.8;"/>
    <path clip-path="url(#p0229d4a479)" d="M 83.274157 207.357724 
L 97.295802 198.167714 
L 119.969713 203.451799 
L 106.090977 212.745619 
z
" style="fill:#74081d;fill-opacity:0.8;"/>
    <path clip-path="url(#p0229d4a479)" d="M 83.252471 206.690225 
L 106.075274 212.075783 
L 119.95784 202.786005 
L 97.27802 197.504239 
z
" style="fill:#a30a29;fill-opacity:0.8;"/>
    <path clip-path="url(#p0229d4a479)" d="M 106.090977 212.745619 
L 119.969713 203.451799 
L 119.95784 202.786005 
L 106.075274 212.075783 
z
" style="fill:#5d0618;fill-opacity:0.8;"/>
    <path clip-path="url(#p0229d4a479)" d="M 83.274157 207.357724 
L 106.090977 212.745619 
L 106.075274 212.075783 
L 83.252471 206.690225 
z
" style="fill:#ba0c2f;fill-opacity:0.8;"/>
   </g>
   <g id="Poly3DCollection_12">
    <path clip-path="url(#p0229d4a479)" d="M 215.611922 200.9921 
L 215.639404 199.632844 
L 239.059618 204.943969 
L 239.019259 206.307981 
z
" style="fill:#5d0618;fill-opacity:0.8;"/>
    <path clip-path="url(#p0229d4a479)" d="M 202.704641 210.237524 
L 202.725347 208.870017 
L 215.639404 199.632844 
L 215.611922 200.9921 
z
" style="fill:#ba0c2f;fill-opacity:0.8;"/>
    <path clip-path="url(#p0229d4a479)" d="M 202.704641 210.237524 
L 215.611922 200.9921 
L 239.019259 206.307981 
L 226.268859 215.658158 
z
" style="fill:#74081d;fill-opacity:0.8;"/>
    <path clip-path="url(#p0229d4a479)" d="M 202.725347 208.870017 
L 226.302617 214.28586 
L 239.059618 204.943969 
L 215.639404 199.632844 
z
" style="fill:#a30a29;fill-opacity:0.8;"/>
    <path clip-path="url(#p0229d4a479)" d="M 226.268859 215.658158 
L 239.019259 206.307981 
L 239.059618 204.943969 
L 226.302617 214.28586 
z
" style="fill:#5d0618;fill-opacity:0.8;"/>
    <path clip-path="url(#p0229d4a479)" d="M 202.704641 210.237524 
L 226.268859 215.658158 
L 226.302617 214.28586 
L 202.725347 208.870017 
z
" style="fill:#ba0c2f;fill-opacity:0.8;"/>
   </g>
   <g id="Poly3DCollection_13">
    <path clip-path="url(#p0229d4a479)" d="M 142.899216 208.795449 
L 142.90122 209.025184 
L 166.088534 214.430216 
L 166.088656 214.199677 
z
" style="fill:#ba0c2f;fill-opacity:0.8;"/>
    <path clip-path="url(#p0229d4a479)" d="M 129.167535 218.194848 
L 129.17083 218.425978 
L 142.90122 209.025184 
L 142.899216 208.795449 
z
" style="fill:#5d0618;fill-opacity:0.8;"/>
    <path clip-path="url(#p0229d4a479)" d="M 129.17083 218.425978 
L 152.509433 223.938404 
L 166.088534 214.430216 
L 142.90122 209.025184 
z
" style="fill:#a30a29;fill-opacity:0.8;"/>
    <path clip-path="url(#p0229d4a479)" d="M 129.167535 218.194848 
L 142.899216 208.795449 
L 166.088656 214.199677 
L 152.508292 223.706464 
z
" style="fill:#74081d;fill-opacity:0.8;"/>
    <path clip-path="url(#p0229d4a479)" d="M 152.508292 223.706464 
L 166.088656 214.199677 
L 166.088534 214.430216 
L 152.509433 223.938404 
z
" style="fill:#ba0c2f;fill-opacity:0.8;"/>
    <path clip-path="url(#p0229d4a479)" d="M 129.167535 218.194848 
L 152.508292 223.706464 
L 152.509433 223.938404 
L 129.17083 218.425978 
z
" style="fill:#5d0618;fill-opacity:0.8;"/>
   </g>
   <g id="Poly3DCollection_14">
    <path clip-path="url(#p0229d4a479)" d="M 252.876419 174.299718 
L 264.834778 165.734002 
L 287.630975 170.659832 
L 275.822963 179.318933 
z
" style="fill:#74081d;fill-opacity:0.8;"/>
    <path clip-path="url(#p0229d4a479)" d="M 264.834778 165.734002 
L 269.853873 37.832394 
L 293.828503 42.279736 
L 287.630975 170.659832 
z
" style="fill:#5d0618;fill-opacity:0.8;"/>
    <path clip-path="url(#p0229d4a479)" d="M 252.876419 174.299718 
L 257.339398 45.567601 
L 269.853873 37.832394 
L 264.834778 165.734002 
z
" style="fill:#ba0c2f;fill-opacity:0.8;"/>
    <path clip-path="url(#p0229d4a479)" d="M 275.822963 179.318933 
L 287.630975 170.659832 
L 293.828503 42.279736 
L 281.480557 50.103563 
z
" style="fill:#5d0618;fill-opacity:0.8;"/>
    <path clip-path="url(#p0229d4a479)" d="M 252.876419 174.299718 
L 275.822963 179.318933 
L 281.480557 50.103563 
L 257.339398 45.567601 
z
" style="fill:#ba0c2f;fill-opacity:0.8;"/>
    <path clip-path="url(#p0229d4a479)" d="M 257.339398 45.567601 
L 281.480557 50.103563 
L 293.828503 42.279736 
L 269.853873 37.832394 
z
" style="fill:#a30a29;fill-opacity:0.8;"/>
   </g>
   <g id="Poly3DCollection_15">
    <path clip-path="url(#p0229d4a479)" d="M 189.542479 219.665518 
L 189.61815 212.041445 
L 213.414215 217.543099 
L 213.265233 225.194033 
z
" style="fill:#5d0618;fill-opacity:0.8;"/>
    <path clip-path="url(#p0229d4a479)" d="M 176.11781 229.281545 
L 176.152823 221.610875 
L 189.61815 212.041445 
L 189.542479 219.665518 
z
" style="fill:#ba0c2f;fill-opacity:0.8;"/>
    <path clip-path="url(#p0229d4a479)" d="M 176.11781 229.281545 
L 189.542479 219.665518 
L 213.265233 225.194033 
L 200.00076 234.921193 
z
" style="fill:#74081d;fill-opacity:0.8;"/>
    <path clip-path="url(#p0229d4a479)" d="M 176.152823 221.610875 
L 200.110082 227.223466 
L 213.414215 217.543099 
L 189.61815 212.041445 
z
" style="fill:#a30a29;fill-opacity:0.8;"/>
    <path clip-path="url(#p0229d4a479)" d="M 200.00076 234.921193 
L 213.265233 225.194033 
L 213.414215 217.543099 
L 200.110082 227.223466 
z
" style="fill:#5d0618;fill-opacity:0.8;"/>
    <path clip-path="url(#p0229d4a479)" d="M 176.11781 229.281545 
L 200.00076 234.921193 
L 200.110082 227.223466 
L 176.152823 221.610875 
z
" style="fill:#ba0c2f;fill-opacity:0.8;"/>
   </g>
   <g id="Poly3DCollection_16">
    <path clip-path="url(#p0229d4a479)" d="M 25.567284 198.106074 
L 203.73977 240.375352 
L 299.730115 169.392674 
L 130.050184 132.883078 
z
" style="fill-opacity:0.15;"/>
   </g>
   <g id="Poly3DCollection_17">
    <path clip-path="url(#p0229d4a479)" d="M 38.402385 196.761838 
L 52.697848 187.774298 
L 74.873232 192.942203 
L 60.712714 202.030132 
z
" style="fill:#74081d;fill-opacity:0.8;"/>
    <path clip-path="url(#p0229d4a479)" d="M 52.697848 187.774298 
L 46.959354 58.332716 
L 70.243385 63.012399 
L 74.873232 192.942203 
z
" style="fill:#5d0618;fill-opacity:0.8;"/>
    <path clip-path="url(#p0229d4a479)" d="M 38.402385 196.761838 
L 31.866308 66.472893 
L 46.959354 58.332716 
L 52.697848 187.774298 
z
" style="fill:#ba0c2f;fill-opacity:0.8;"/>
    <path clip-path="url(#p0229d4a479)" d="M 60.712714 202.030132 
L 74.873232 192.942203 
L 70.243385 63.012399 
L 55.298915 71.24822 
z
" style="fill:#5d0618;fill-opacity:0.8;"/>
    <path clip-path="url(#p0229d4a479)" d="M 38.402385 196.761838 
L 60.712714 202.030132 
L 55.298915 71.24822 
L 31.866308 66.472893 
z
" style="fill:#ba0c2f;fill-opacity:0.8;"/>
    <path clip-path="url(#p0229d4a479)" d="M 31.866308 66.472893 
L 55.298915 71.24822 
L 70.243385 63.012399 
L 46.959354 58.332716 
z
" style="fill:#a30a29;fill-opacity:0.8;"/>
   </g>
  </g>
  <g id="patch_6">
   <path d="M 425.945455 262.8 
L 806.4 262.8 
L 806.4 -14.4 
L 425.945455 -14.4 
z
" style="fill:#ffffff;"/>
  </g>
  <g id="pane3d_4">
   <g id="patch_7">
    <path d="M 476.380584 201.548569 
L 585.268665 133.58541 
L 583.455794 3.718968 
L 468.496488 64.782468 
" style="fill:#f2f2f2;opacity:0.5;stroke:#f2f2f2;stroke-linejoin:miter;"/>
   </g>
  </g>
  <g id="pane3d_5">
   <g id="patch_8">
    <path d="M 585.268665 133.58541 
L 761.65712 171.581202 
L 769.037001 37.79869 
L 583.455794 3.718968 
" style="fill:#e6e6e6;opacity:0.5;stroke:#e6e6e6;stroke-linejoin:miter;"/>
   </g>
  </g>
  <g id="pane3d_6">
   <g id="patch_9">
    <path d="M 476.380584 201.548569 
L 661.965072 245.80086 
L 761.65712 171.581202 
L 585.268665 133.58541 
" style="fill:#ececec;opacity:0.5;stroke:#ececec;stroke-linejoin:miter;"/>
   </g>
  </g>
  <g id="axis3d_4">
   <g id="line2d_15">
    <path d="M 476.380584 201.548569 
L 661.965072 245.80086 
" style="fill:none;stroke:#000000;stroke-linecap:square;stroke-width:0.8;"/>
   </g>
   <g id="Line3DCollection_4">
    <path d="M 498.841271 206.90428 
L 606.679397 138.19749 
L 605.9393 7.847789 
" style="fill:none;stroke:#b0b0b0;stroke-width:0.8;"/>
    <path d="M 544.057792 217.686079 
L 649.729469 147.470895 
L 651.182353 16.156123 
" style="fill:none;stroke:#b0b0b0;stroke-width:0.8;"/>
    <path d="M 590.310744 228.715013 
L 693.693551 156.941187 
L 697.435637 24.649974 
" style="fill:none;stroke:#b0b0b0;stroke-width:0.8;"/>
    <path d="M 637.636176 239.999678 
L 738.601063 166.614702 
L 744.733372 33.335625 
" style="fill:none;stroke:#b0b0b0;stroke-width:0.8;"/>
   </g>
   <g id="xtick_12">
    <g id="line2d_16">
     <path d="M 499.770538 206.312217 
L 496.979262 208.09062 
" style="fill:none;stroke:#000000;stroke-linecap:square;stroke-width:0.8;"/>
    </g>
    <g id="text_13">
     <!-- 00 -->
     <g transform="translate(479.875817 237.14703)rotate(-45)scale(0.14 -0.14)">
      <use transform="scale(0.996264)" xlink:href="#CMR17-48"/>
      <use transform="translate(45.690477 0)scale(0.996264)" xlink:href="#CMR17-48"/>
     </g>
    </g>
   </g>
   <g id="xtick_13">
    <g id="line2d_17">
     <path d="M 544.969128 217.080527 
L 542.231671 218.899473 
" style="fill:none;stroke:#000000;stroke-linecap:square;stroke-width:0.8;"/>
    </g>
    <g id="text_14">
     <!-- 01 -->
     <g transform="translate(525.088242 248.103782)rotate(-45)scale(0.14 -0.14)">
      <use transform="scale(0.996264)" xlink:href="#CMR17-48"/>
      <use transform="translate(45.690477 0)scale(0.996264)" xlink:href="#CMR17-49"/>
     </g>
    </g>
   </g>
   <g id="xtick_14">
    <g id="line2d_18">
     <path d="M 591.20308 228.095506 
L 588.522658 229.956397 
" style="fill:none;stroke:#000000;stroke-linecap:square;stroke-width:0.8;"/>
    </g>
    <g id="text_15">
     <!-- 10 -->
     <g transform="translate(571.338855 259.312128)rotate(-45)scale(0.14 -0.14)">
      <use transform="scale(0.996264)" xlink:href="#CMR17-49"/>
      <use transform="translate(45.690477 0)scale(0.996264)" xlink:href="#CMR17-48"/>
     </g>
    </g>
   </g>
   <g id="xtick_15">
    <g id="line2d_19">
     <path d="M 638.50838 239.365727 
L 635.888391 241.270032 
" style="fill:none;stroke:#000000;stroke-linecap:square;stroke-width:0.8;"/>
    </g>
    <g id="text_16">
     <!-- 11 -->
     <g transform="translate(618.66383 270.780834)rotate(-45)scale(0.14 -0.14)">
      <use transform="scale(0.996264)" xlink:href="#CMR17-49"/>
      <use transform="translate(45.690477 0)scale(0.996264)" xlink:href="#CMR17-49"/>
     </g>
    </g>
   </g>
  </g>
  <g id="axis3d_5">
   <g id="line2d_20">
    <path d="M 761.65712 171.581202 
L 661.965072 245.80086 
" style="fill:none;stroke:#000000;stroke-linecap:square;stroke-width:0.8;"/>
   </g>
   <g id="Line3DCollection_5">
    <path d="M 484.000685 56.547028 
L 491.016499 192.413474 
L 675.403872 235.795817 
" style="fill:none;stroke:#b0b0b0;stroke-width:0.8;"/>
    <path d="M 513.777478 40.730342 
L 519.168861 174.842005 
L 701.219492 216.576366 
" style="fill:none;stroke:#b0b0b0;stroke-width:0.8;"/>
    <path d="M 542.401344 25.526062 
L 546.284836 157.917404 
L 726.04244 198.095948 
" style="fill:none;stroke:#b0b0b0;stroke-width:0.8;"/>
    <path d="M 569.937971 10.899296 
L 572.420618 141.604597 
L 749.928893 180.312741 
" style="fill:none;stroke:#b0b0b0;stroke-width:0.8;"/>
   </g>
   <g id="xtick_16">
    <g id="line2d_21">
     <path d="M 673.861052 235.432825 
L 678.492943 236.522608 
" style="fill:none;stroke:#000000;stroke-linecap:square;stroke-width:0.8;"/>
    </g>
    <g id="text_17">
     <!-- 00 -->
     <g transform="translate(689.195824 248.348363)rotate(-337.5)scale(0.14 -0.14)">
      <use transform="scale(0.996264)" xlink:href="#CMR17-48"/>
      <use transform="translate(45.690477 0)scale(0.996264)" xlink:href="#CMR17-48"/>
     </g>
    </g>
   </g>
   <g id="xtick_17">
    <g id="line2d_22">
     <path d="M 699.697534 216.227463 
L 704.266725 217.274932 
" style="fill:none;stroke:#000000;stroke-linecap:square;stroke-width:0.8;"/>
    </g>
    <g id="text_18">
     <!-- 01 -->
     <g transform="translate(714.749375 228.903937)rotate(-337.5)scale(0.14 -0.14)">
      <use transform="scale(0.996264)" xlink:href="#CMR17-48"/>
      <use transform="translate(45.690477 0)scale(0.996264)" xlink:href="#CMR17-49"/>
     </g>
    </g>
   </g>
   <g id="xtick_18">
    <g id="line2d_23">
     <path d="M 724.540896 197.76033 
L 729.048738 198.767901 
" style="fill:none;stroke:#000000;stroke-linecap:square;stroke-width:0.8;"/>
    </g>
    <g id="text_19">
     <!-- 10 -->
     <g transform="translate(739.320787 210.206849)rotate(-337.5)scale(0.14 -0.14)">
      <use transform="scale(0.996264)" xlink:href="#CMR17-49"/>
      <use transform="translate(45.690477 0)scale(0.996264)" xlink:href="#CMR17-48"/>
     </g>
    </g>
   </g>
   <g id="xtick_19">
    <g id="line2d_24">
     <path d="M 748.44732 179.989663 
L 752.895146 180.959573 
" style="fill:none;stroke:#000000;stroke-linecap:square;stroke-width:0.8;"/>
    </g>
    <g id="text_20">
     <!-- 11 -->
     <g transform="translate(762.965613 192.214827)rotate(-337.5)scale(0.14 -0.14)">
      <use transform="scale(0.996264)" xlink:href="#CMR17-49"/>
      <use transform="translate(45.690477 0)scale(0.996264)" xlink:href="#CMR17-49"/>
     </g>
    </g>
   </g>
  </g>
  <g id="axis3d_6">
   <g id="line2d_25">
    <path d="M 761.65712 171.581202 
L 769.037001 37.79869 
" style="fill:none;stroke:#000000;stroke-linecap:square;stroke-width:0.8;"/>
   </g>
   <g id="text_21">
    <!-- Im[$\rho$] -->
    <defs>
     <path d="M 19.703125 60.90625 
C 19.703125 65.390625 20.90625 65.390625 28.09375 65.390625 
L 28.09375 68 
C 24.90625 67.796875 19.796875 67.796875 16.40625 67.796875 
C 13 67.796875 7.90625 67.796875 4.703125 68 
L 4.703125 65.390625 
C 11.90625 65.390625 13.09375 65.390625 13.09375 60.90625 
L 13.09375 7.078125 
C 13.09375 2.59375 11.90625 2.59375 4.703125 2.59375 
L 4.703125 0 
C 7.90625 0.1875 13 0.1875 16.40625 0.1875 
C 19.796875 0.1875 24.90625 0.1875 28.09375 0 
L 28.09375 2.59375 
C 20.90625 2.59375 19.703125 2.59375 19.703125 7.078125 
z
" id="CMR17-73"/>
     <path d="M 67.59375 30.53125 
C 67.59375 35.5625 66.703125 44 54.796875 44 
C 48 44 43.296875 39.375 41.5 33.953125 
L 41.40625 33.953125 
C 40.203125 42.1875 34.296875 44 28.703125 44 
C 20.796875 44 16.703125 37.875 15.203125 33.84375 
L 15.09375 33.84375 
L 15.09375 44 
L 3.296875 42.890625 
L 3.296875 40.28125 
C 9.203125 40.28125 10.09375 39.6875 10.09375 34.859375 
L 10.09375 6.921875 
C 10.09375 3.09375 9.703125 2.59375 3.296875 2.59375 
L 3.296875 0 
C 5.703125 0.1875 10.09375 0.1875 12.703125 0.1875 
C 15.296875 0.1875 19.796875 0.1875 22.203125 0 
L 22.203125 2.59375 
C 15.796875 2.59375 15.40625 3 15.40625 6.921875 
L 15.40625 26.21875 
C 15.40625 35.453125 21 42.390625 28 42.390625 
C 35.40625 42.390625 36.203125 35.765625 36.203125 30.9375 
L 36.203125 6.921875 
C 36.203125 3.09375 35.796875 2.59375 29.40625 2.59375 
L 29.40625 0 
C 31.796875 0.1875 36.203125 0.1875 38.796875 0.1875 
C 41.40625 0.1875 45.90625 0.1875 48.296875 0 
L 48.296875 2.59375 
C 41.90625 2.59375 41.5 3 41.5 6.921875 
L 41.5 26.21875 
C 41.5 35.453125 47.09375 42.390625 54.09375 42.390625 
C 61.5 42.390625 62.296875 35.765625 62.296875 30.9375 
L 62.296875 6.921875 
C 62.296875 3.09375 61.90625 2.59375 55.5 2.59375 
L 55.5 0 
C 57.90625 0.1875 62.296875 0.1875 64.90625 0.1875 
C 67.5 0.1875 72 0.1875 74.40625 0 
L 74.40625 2.59375 
C 68 2.59375 67.59375 3 67.59375 6.921875 
z
" id="CMR17-109"/>
    </defs>
    <g transform="translate(809.026865 118.025317)rotate(-86.842577)scale(0.14 -0.14)">
     <use transform="scale(0.996264)" xlink:href="#CMR17-73"/>
     <use transform="translate(32.638409 0)scale(0.996264)" xlink:href="#CMR17-109"/>
     <use transform="translate(109.557999 0)scale(0.996264)" xlink:href="#CMR17-91"/>
     <use transform="translate(134.429058 0)scale(0.996264)" xlink:href="#CMMI12-26"/>
     <use transform="translate(184.74343 0)scale(0.996264)" xlink:href="#CMR17-93"/>
    </g>
   </g>
   <g id="Line3DCollection_6">
    <path d="M 761.885477 167.441539 
L 585.21245 129.558431 
L 476.137031 197.323638 
" style="fill:none;stroke:#b0b0b0;stroke-width:0.8;"/>
    <path d="M 764.604629 118.14874 
L 584.543661 81.649144 
L 473.234947 146.980934 
" style="fill:none;stroke:#b0b0b0;stroke-width:0.8;"/>
    <path d="M 767.431053 66.91133 
L 583.849624 31.931291 
L 470.214472 94.584476 
" style="fill:none;stroke:#b0b0b0;stroke-width:0.8;"/>
   </g>
   <g id="xtick_20">
    <g id="line2d_26">
     <path d="M 760.411355 167.12545 
L 764.83679 168.074374 
" style="fill:none;stroke:#000000;stroke-linecap:square;stroke-width:0.8;"/>
    </g>
    <g id="text_22">
     <!-- $0.0$ -->
     <g transform="translate(771.699363 175.188683)scale(0.14 -0.14)">
      <use transform="scale(0.996264)" xlink:href="#CMR17-48"/>
      <use transform="translate(45.690477 0)scale(0.996264)" xlink:href="#CMMI12-58"/>
      <use transform="translate(72.787654 0)scale(0.996264)" xlink:href="#CMR17-48"/>
     </g>
    </g>
   </g>
   <g id="xtick_21">
    <g id="line2d_27">
     <path d="M 763.101042 117.843953 
L 767.614994 118.758962 
" style="fill:none;stroke:#000000;stroke-linecap:square;stroke-width:0.8;"/>
    </g>
    <g id="text_23">
     <!-- $0.2$ -->
     <g transform="translate(774.77046 125.965265)scale(0.14 -0.14)">
      <use transform="scale(0.996264)" xlink:href="#CMR17-48"/>
      <use transform="translate(45.690477 0)scale(0.996264)" xlink:href="#CMMI12-58"/>
      <use transform="translate(72.787654 0)scale(0.996264)" xlink:href="#CMR17-50"/>
     </g>
    </g>
   </g>
   <g id="xtick_22">
    <g id="line2d_28">
     <path d="M 765.896799 66.61899 
L 770.502879 67.496643 
" style="fill:none;stroke:#000000;stroke-linecap:square;stroke-width:0.8;"/>
    </g>
    <g id="text_24">
     <!-- $0.4$ -->
     <g transform="translate(777.962445 74.804262)scale(0.14 -0.14)">
      <use transform="scale(0.996264)" xlink:href="#CMR17-48"/>
      <use transform="translate(45.690477 0)scale(0.996264)" xlink:href="#CMMI12-58"/>
      <use transform="translate(72.787654 0)scale(0.996264)" xlink:href="#CMR17-52"/>
     </g>
    </g>
   </g>
  </g>
  <g id="axes_2">
   <g id="Poly3DCollection_18">
    <path clip-path="url(#p3e236a1fc0)" d="M 589.578022 135.91706 
L 589.572512 135.469091 
L 610.976059 140.084641 
L 610.977863 140.534153 
z
" style="fill:#065d4c;fill-opacity:0.8;"/>
    <path clip-path="url(#p3e236a1fc0)" d="M 576.789435 143.944914 
L 576.781633 143.494267 
L 589.572512 135.469091 
L 589.578022 135.91706 
z
" style="fill:#0cba97;fill-opacity:0.8;"/>
    <path clip-path="url(#p3e236a1fc0)" d="M 576.789435 143.944914 
L 589.578022 135.91706 
L 610.977863 140.534153 
L 598.317737 148.646801 
z
" style="fill:#08745e;fill-opacity:0.8;"/>
    <path clip-path="url(#p3e236a1fc0)" d="M 576.781633 143.494267 
L 598.313686 148.194598 
L 610.976059 140.084641 
L 589.572512 135.469091 
z
" style="fill:#0aa384;fill-opacity:0.8;"/>
    <path clip-path="url(#p3e236a1fc0)" d="M 598.317737 148.646801 
L 610.977863 140.534153 
L 610.976059 140.084641 
L 598.313686 148.194598 
z
" style="fill:#065d4c;fill-opacity:0.8;"/>
    <path clip-path="url(#p3e236a1fc0)" d="M 576.789435 143.944914 
L 598.317737 148.646801 
L 598.313686 148.194598 
L 576.781633 143.494267 
z
" style="fill:#0cba97;fill-opacity:0.8;"/>
   </g>
   <g id="Poly3DCollection_19">
    <path clip-path="url(#p3e236a1fc0)" d="M 632.603303 145.199919 
L 632.605011 144.810853 
L 654.462971 149.524722 
L 654.457928 149.915133 
z
" style="fill:#065d4c;fill-opacity:0.8;"/>
    <path clip-path="url(#p3e236a1fc0)" d="M 620.075083 153.398714 
L 620.074894 153.007314 
L 632.605011 144.810853 
L 632.603303 145.199919 
z
" style="fill:#0cba97;fill-opacity:0.8;"/>
    <path clip-path="url(#p3e236a1fc0)" d="M 620.075083 153.398714 
L 632.603303 145.199919 
L 654.457928 149.915133 
L 642.065148 158.201453 
z
" style="fill:#08745e;fill-opacity:0.8;"/>
    <path clip-path="url(#p3e236a1fc0)" d="M 620.074894 153.007314 
L 642.068335 157.808698 
L 654.462971 149.524722 
L 632.605011 144.810853 
z
" style="fill:#0aa384;fill-opacity:0.8;"/>
    <path clip-path="url(#p3e236a1fc0)" d="M 642.065148 158.201453 
L 654.457928 149.915133 
L 654.462971 149.524722 
L 642.068335 157.808698 
z
" style="fill:#065d4c;fill-opacity:0.8;"/>
    <path clip-path="url(#p3e236a1fc0)" d="M 620.075083 153.398714 
L 642.065148 158.201453 
L 642.068335 157.808698 
L 620.074894 153.007314 
z
" style="fill:#0cba97;fill-opacity:0.8;"/>
   </g>
   <g id="Poly3DCollection_20">
    <path clip-path="url(#p3e236a1fc0)" d="M 563.76552 152.120491 
L 563.759205 151.839174 
L 585.419443 156.62724 
L 585.423402 156.909532 
z
" style="fill:#065d4c;fill-opacity:0.8;"/>
    <path clip-path="url(#p3e236a1fc0)" d="M 550.49972 160.447908 
L 550.491877 160.1649 
L 563.759205 151.839174 
L 563.76552 152.120491 
z
" style="fill:#0cba97;fill-opacity:0.8;"/>
    <path clip-path="url(#p3e236a1fc0)" d="M 550.49972 160.447908 
L 563.76552 152.120491 
L 585.423402 156.909532 
L 572.288299 165.326547 
z
" style="fill:#08745e;fill-opacity:0.8;"/>
    <path clip-path="url(#p3e236a1fc0)" d="M 550.491877 160.1649 
L 572.28284 165.042557 
L 585.419443 156.62724 
L 563.759205 151.839174 
z
" style="fill:#0aa384;fill-opacity:0.8;"/>
    <path clip-path="url(#p3e236a1fc0)" d="M 572.288299 165.326547 
L 585.423402 156.909532 
L 585.419443 156.62724 
L 572.28284 165.042557 
z
" style="fill:#065d4c;fill-opacity:0.8;"/>
    <path clip-path="url(#p3e236a1fc0)" d="M 550.49972 160.447908 
L 572.288299 165.326547 
L 572.28284 165.042557 
L 550.491877 160.1649 
z
" style="fill:#0cba97;fill-opacity:0.8;"/>
   </g>
   <g id="Poly3DCollection_21">
    <path clip-path="url(#p3e236a1fc0)" d="M 676.545401 154.680585 
L 676.579533 153.09792 
L 698.917648 157.908927 
L 698.869463 159.497082 
z
" style="fill:#065d4c;fill-opacity:0.8;"/>
    <path clip-path="url(#p3e236a1fc0)" d="M 664.291686 163.055839 
L 664.318493 161.463649 
L 676.579533 153.09792 
L 676.545401 154.680585 
z
" style="fill:#0cba97;fill-opacity:0.8;"/>
    <path clip-path="url(#p3e236a1fc0)" d="M 664.291686 163.055839 
L 676.545401 154.680585 
L 698.869463 159.497082 
L 686.758533 167.962709 
z
" style="fill:#08745e;fill-opacity:0.8;"/>
    <path clip-path="url(#p3e236a1fc0)" d="M 664.318493 161.463649 
L 686.799574 166.364984 
L 698.917648 157.908927 
L 676.579533 153.09792 
z
" style="fill:#0aa384;fill-opacity:0.8;"/>
    <path clip-path="url(#p3e236a1fc0)" d="M 686.758533 167.962709 
L 698.869463 159.497082 
L 698.917648 157.908927 
L 686.799574 166.364984 
z
" style="fill:#065d4c;fill-opacity:0.8;"/>
    <path clip-path="url(#p3e236a1fc0)" d="M 664.291686 163.055839 
L 686.758533 167.962709 
L 686.799574 166.364984 
L 664.318493 161.463649 
z
" style="fill:#0cba97;fill-opacity:0.8;"/>
   </g>
   <g id="Poly3DCollection_22">
    <path clip-path="url(#p3e236a1fc0)" d="M 607.31385 161.749998 
L 607.312483 161.500543 
L 629.441429 166.392401 
L 629.44063 166.642722 
z
" style="fill:#065d4c;fill-opacity:0.8;"/>
    <path clip-path="url(#p3e236a1fc0)" d="M 594.313043 170.258065 
L 594.310381 170.007108 
L 607.312483 161.500543 
L 607.31385 161.749998 
z
" style="fill:#0cba97;fill-opacity:0.8;"/>
    <path clip-path="url(#p3e236a1fc0)" d="M 594.313043 170.258065 
L 607.31385 161.749998 
L 629.44063 166.642722 
L 616.577813 175.243328 
z
" style="fill:#08745e;fill-opacity:0.8;"/>
    <path clip-path="url(#p3e236a1fc0)" d="M 594.310381 170.007108 
L 616.577344 174.991497 
L 629.441429 166.392401 
L 607.312483 161.500543 
z
" style="fill:#0aa384;fill-opacity:0.8;"/>
    <path clip-path="url(#p3e236a1fc0)" d="M 616.577813 175.243328 
L 629.44063 166.642722 
L 629.441429 166.392401 
L 616.577344 174.991497 
z
" style="fill:#065d4c;fill-opacity:0.8;"/>
    <path clip-path="url(#p3e236a1fc0)" d="M 594.313043 170.258065 
L 616.577813 175.243328 
L 616.577344 174.991497 
L 594.310381 170.007108 
z
" style="fill:#0cba97;fill-opacity:0.8;"/>
   </g>
   <g id="Poly3DCollection_23">
    <path clip-path="url(#p3e236a1fc0)" d="M 721.433937 164.365448 
L 721.433937 164.365448 
L 744.242726 169.286527 
L 744.242726 169.286527 
z
" style="fill:#065d4c;fill-opacity:0.8;"/>
    <path clip-path="url(#p3e236a1fc0)" d="M 709.469606 172.92292 
L 709.469606 172.92292 
L 721.433937 164.365448 
L 721.433937 164.365448 
z
" style="fill:#065d4c;fill-opacity:0.8;"/>
    <path clip-path="url(#p3e236a1fc0)" d="M 709.469606 172.92292 
L 721.433937 164.365448 
L 744.242726 169.286527 
L 732.428909 177.937346 
z
" style="fill:#08745e;fill-opacity:0.8;"/>
    <path clip-path="url(#p3e236a1fc0)" d="M 709.469606 172.92292 
L 732.428909 177.937346 
L 744.242726 169.286527 
L 721.433937 164.365448 
z
" style="fill:#0aa384;fill-opacity:0.8;"/>
    <path clip-path="url(#p3e236a1fc0)" d="M 732.428909 177.937346 
L 744.242726 169.286527 
L 744.242726 169.286527 
L 732.428909 177.937346 
z
" style="fill:#065d4c;fill-opacity:0.8;"/>
    <path clip-path="url(#p3e236a1fc0)" d="M 709.469606 172.92292 
L 732.428909 177.937346 
L 732.428909 177.937346 
L 709.469606 172.92292 
z
" style="fill:#065d4c;fill-opacity:0.8;"/>
   </g>
   <g id="Poly3DCollection_24">
    <path clip-path="url(#p3e236a1fc0)" d="M 536.985234 168.931434 
L 536.97577 168.645613 
L 558.898578 173.615394 
L 558.90562 173.90221 
z
" style="fill:#065d4c;fill-opacity:0.8;"/>
    <path clip-path="url(#p3e236a1fc0)" d="M 523.215003 177.575501 
L 523.203889 177.287954 
L 536.97577 168.645613 
L 536.985234 168.931434 
z
" style="fill:#0cba97;fill-opacity:0.8;"/>
    <path clip-path="url(#p3e236a1fc0)" d="M 523.215003 177.575501 
L 536.985234 168.931434 
L 558.90562 173.90221 
L 545.268299 182.641048 
z
" style="fill:#08745e;fill-opacity:0.8;"/>
    <path clip-path="url(#p3e236a1fc0)" d="M 523.203889 177.287954 
L 545.259636 182.352499 
L 558.898578 173.615394 
L 536.97577 168.645613 
z
" style="fill:#0aa384;fill-opacity:0.8;"/>
    <path clip-path="url(#p3e236a1fc0)" d="M 545.268299 182.641048 
L 558.90562 173.90221 
L 558.898578 173.615394 
L 545.259636 182.352499 
z
" style="fill:#065d4c;fill-opacity:0.8;"/>
    <path clip-path="url(#p3e236a1fc0)" d="M 523.215003 177.575501 
L 545.268299 182.641048 
L 545.259636 182.352499 
L 523.203889 177.287954 
z
" style="fill:#0cba97;fill-opacity:0.8;"/>
   </g>
   <g id="Poly3DCollection_25">
    <path clip-path="url(#p3e236a1fc0)" d="M 651.807591 171.588555 
L 651.807591 171.588555 
L 674.418663 176.588367 
L 674.418663 176.588367 
z
" style="fill:#065d4c;fill-opacity:0.8;"/>
    <path clip-path="url(#p3e236a1fc0)" d="M 639.086555 180.283217 
L 639.086555 180.283217 
L 651.807591 171.588555 
L 651.807591 171.588555 
z
" style="fill:#065d4c;fill-opacity:0.8;"/>
    <path clip-path="url(#p3e236a1fc0)" d="M 639.086555 180.283217 
L 661.8433 185.378636 
L 674.418663 176.588367 
L 651.807591 171.588555 
z
" style="fill:#0aa384;fill-opacity:0.8;"/>
    <path clip-path="url(#p3e236a1fc0)" d="M 639.086555 180.283217 
L 651.807591 171.588555 
L 674.418663 176.588367 
L 661.8433 185.378636 
z
" style="fill:#08745e;fill-opacity:0.8;"/>
    <path clip-path="url(#p3e236a1fc0)" d="M 661.8433 185.378636 
L 674.418663 176.588367 
L 674.418663 176.588367 
L 661.8433 185.378636 
z
" style="fill:#065d4c;fill-opacity:0.8;"/>
    <path clip-path="url(#p3e236a1fc0)" d="M 639.086555 180.283217 
L 661.8433 185.378636 
L 661.8433 185.378636 
L 639.086555 180.283217 
z
" style="fill:#065d4c;fill-opacity:0.8;"/>
   </g>
   <g id="Poly3DCollection_26">
    <path clip-path="url(#p3e236a1fc0)" d="M 581.065851 178.927374 
L 581.065851 178.927374 
L 603.469885 184.007824 
L 603.469885 184.007824 
z
" style="fill:#065d4c;fill-opacity:0.8;"/>
    <path clip-path="url(#p3e236a1fc0)" d="M 567.565202 187.762551 
L 567.565202 187.762551 
L 581.065851 178.927374 
L 581.065851 178.927374 
z
" style="fill:#065d4c;fill-opacity:0.8;"/>
    <path clip-path="url(#p3e236a1fc0)" d="M 567.565202 187.762551 
L 581.065851 178.927374 
L 603.469885 184.007824 
L 590.109773 192.940942 
z
" style="fill:#08745e;fill-opacity:0.8;"/>
    <path clip-path="url(#p3e236a1fc0)" d="M 567.565202 187.762551 
L 590.109773 192.940942 
L 603.469885 184.007824 
L 581.065851 178.927374 
z
" style="fill:#0aa384;fill-opacity:0.8;"/>
    <path clip-path="url(#p3e236a1fc0)" d="M 590.109773 192.940942 
L 603.469885 184.007824 
L 603.469885 184.007824 
L 590.109773 192.940942 
z
" style="fill:#065d4c;fill-opacity:0.8;"/>
    <path clip-path="url(#p3e236a1fc0)" d="M 567.565202 187.762551 
L 590.109773 192.940942 
L 590.109773 192.940942 
L 567.565202 187.762551 
z
" style="fill:#065d4c;fill-opacity:0.8;"/>
   </g>
   <g id="Poly3DCollection_27">
    <path clip-path="url(#p3e236a1fc0)" d="M 697.277865 181.643046 
L 697.229575 183.253979 
L 720.325975 188.370049 
L 720.389305 186.753501 
z
" style="fill:#0cba97;fill-opacity:0.8;"/>
    <path clip-path="url(#p3e236a1fc0)" d="M 684.85217 190.530508 
L 684.811391 192.151184 
L 697.229575 183.253979 
L 697.277865 181.643046 
z
" style="fill:#065d4c;fill-opacity:0.8;"/>
    <path clip-path="url(#p3e236a1fc0)" d="M 684.811391 192.151184 
L 708.061358 197.366112 
L 720.325975 188.370049 
L 697.229575 183.253979 
z
" style="fill:#0aa384;fill-opacity:0.8;"/>
    <path clip-path="url(#p3e236a1fc0)" d="M 684.85217 190.530508 
L 697.277865 181.643046 
L 720.389305 186.753501 
L 708.117379 195.739776 
z
" style="fill:#08745e;fill-opacity:0.8;"/>
    <path clip-path="url(#p3e236a1fc0)" d="M 708.117379 195.739776 
L 720.389305 186.753501 
L 720.325975 188.370049 
L 708.061358 197.366112 
z
" style="fill:#0cba97;fill-opacity:0.8;"/>
    <path clip-path="url(#p3e236a1fc0)" d="M 684.85217 190.530508 
L 708.117379 195.739776 
L 708.061358 197.366112 
L 684.811391 192.151184 
z
" style="fill:#065d4c;fill-opacity:0.8;"/>
   </g>
   <g id="Poly3DCollection_28">
    <path clip-path="url(#p3e236a1fc0)" d="M 509.181698 186.384708 
L 509.181698 186.384708 
L 531.368998 191.547764 
L 531.368998 191.547764 
z
" style="fill:#065d4c;fill-opacity:0.8;"/>
    <path clip-path="url(#p3e236a1fc0)" d="M 494.877707 195.363835 
L 494.877707 195.363835 
L 509.181698 186.384708 
L 509.181698 186.384708 
z
" style="fill:#065d4c;fill-opacity:0.8;"/>
    <path clip-path="url(#p3e236a1fc0)" d="M 494.877707 195.363835 
L 509.181698 186.384708 
L 531.368998 191.547764 
L 517.200095 200.627241 
z
" style="fill:#08745e;fill-opacity:0.8;"/>
    <path clip-path="url(#p3e236a1fc0)" d="M 494.877707 195.363835 
L 517.200095 200.627241 
L 531.368998 191.547764 
L 509.181698 186.384708 
z
" style="fill:#0aa384;fill-opacity:0.8;"/>
    <path clip-path="url(#p3e236a1fc0)" d="M 517.200095 200.627241 
L 531.368998 191.547764 
L 531.368998 191.547764 
L 517.200095 200.627241 
z
" style="fill:#065d4c;fill-opacity:0.8;"/>
    <path clip-path="url(#p3e236a1fc0)" d="M 494.877707 195.363835 
L 517.200095 200.627241 
L 517.200095 200.627241 
L 494.877707 195.363835 
z
" style="fill:#065d4c;fill-opacity:0.8;"/>
   </g>
   <g id="Poly3DCollection_29">
    <path clip-path="url(#p3e236a1fc0)" d="M 626.121769 189.144478 
L 626.121286 189.398665 
L 649.022835 194.593349 
L 649.025639 194.338274 
z
" style="fill:#0cba97;fill-opacity:0.8;"/>
    <path clip-path="url(#p3e236a1fc0)" d="M 612.90616 198.177175 
L 612.907014 198.432903 
L 626.121286 189.398665 
L 626.121769 189.144478 
z
" style="fill:#065d4c;fill-opacity:0.8;"/>
    <path clip-path="url(#p3e236a1fc0)" d="M 612.907014 198.432903 
L 635.957111 203.728846 
L 649.022835 194.593349 
L 626.121286 189.398665 
z
" style="fill:#0aa384;fill-opacity:0.8;"/>
    <path clip-path="url(#p3e236a1fc0)" d="M 612.90616 198.177175 
L 626.121769 189.144478 
L 649.025639 194.338274 
L 635.958607 203.472223 
z
" style="fill:#08745e;fill-opacity:0.8;"/>
    <path clip-path="url(#p3e236a1fc0)" d="M 635.958607 203.472223 
L 649.025639 194.338274 
L 649.022835 194.593349 
L 635.957111 203.728846 
z
" style="fill:#0cba97;fill-opacity:0.8;"/>
    <path clip-path="url(#p3e236a1fc0)" d="M 612.90616 198.177175 
L 635.958607 203.472223 
L 635.957111 203.728846 
L 612.907014 198.432903 
z
" style="fill:#065d4c;fill-opacity:0.8;"/>
   </g>
   <g id="Poly3DCollection_30">
    <path clip-path="url(#p3e236a1fc0)" d="M 553.803753 196.768403 
L 553.811559 197.059648 
L 576.495339 202.339858 
L 576.490128 202.047594 
z
" style="fill:#0cba97;fill-opacity:0.8;"/>
    <path clip-path="url(#p3e236a1fc0)" d="M 539.773873 205.949923 
L 539.783393 206.242936 
L 553.811559 197.059648 
L 553.803753 196.768403 
z
" style="fill:#065d4c;fill-opacity:0.8;"/>
    <path clip-path="url(#p3e236a1fc0)" d="M 539.783393 206.242936 
L 562.610206 211.626927 
L 576.495339 202.339858 
L 553.811559 197.059648 
z
" style="fill:#0aa384;fill-opacity:0.8;"/>
    <path clip-path="url(#p3e236a1fc0)" d="M 539.773873 205.949923 
L 553.803753 196.768403 
L 576.490128 202.047594 
L 562.603313 211.332887 
z
" style="fill:#08745e;fill-opacity:0.8;"/>
    <path clip-path="url(#p3e236a1fc0)" d="M 562.603313 211.332887 
L 576.490128 202.047594 
L 576.495339 202.339858 
L 562.610206 211.626927 
z
" style="fill:#0cba97;fill-opacity:0.8;"/>
    <path clip-path="url(#p3e236a1fc0)" d="M 539.773873 205.949923 
L 562.603313 211.332887 
L 562.610206 211.626927 
L 539.783393 206.242936 
z
" style="fill:#065d4c;fill-opacity:0.8;"/>
   </g>
   <g id="Poly3DCollection_31">
    <path clip-path="url(#p3e236a1fc0)" d="M 672.185721 199.590169 
L 672.177553 199.994155 
L 695.594345 205.306546 
L 695.60634 204.901145 
z
" style="fill:#0cba97;fill-opacity:0.8;"/>
    <path clip-path="url(#p3e236a1fc0)" d="M 659.271452 208.827083 
L 659.265298 209.233523 
L 672.177553 199.994155 
L 672.185721 199.590169 
z
" style="fill:#065d4c;fill-opacity:0.8;"/>
    <path clip-path="url(#p3e236a1fc0)" d="M 659.265298 209.233523 
L 682.839098 214.65064 
L 695.594345 205.306546 
L 672.177553 199.994155 
z
" style="fill:#0aa384;fill-opacity:0.8;"/>
    <path clip-path="url(#p3e236a1fc0)" d="M 659.271452 208.827083 
L 672.185721 199.590169 
L 695.60634 204.901145 
L 682.849132 214.242775 
z
" style="fill:#08745e;fill-opacity:0.8;"/>
    <path clip-path="url(#p3e236a1fc0)" d="M 682.849132 214.242775 
L 695.60634 204.901145 
L 695.594345 205.306546 
L 682.839098 214.65064 
z
" style="fill:#0cba97;fill-opacity:0.8;"/>
    <path clip-path="url(#p3e236a1fc0)" d="M 659.271452 208.827083 
L 682.849132 214.242775 
L 682.839098 214.65064 
L 659.265298 209.233523 
z
" style="fill:#065d4c;fill-opacity:0.8;"/>
   </g>
   <g id="Poly3DCollection_32">
    <path clip-path="url(#p3e236a1fc0)" d="M 599.432378 207.386329 
L 599.434926 207.678479 
L 622.634702 213.078795 
L 622.634857 212.78562 
z
" style="fill:#0cba97;fill-opacity:0.8;"/>
    <path clip-path="url(#p3e236a1fc0)" d="M 585.692781 216.777164 
L 585.696971 217.071091 
L 599.434926 207.678479 
L 599.432378 207.386329 
z
" style="fill:#065d4c;fill-opacity:0.8;"/>
    <path clip-path="url(#p3e236a1fc0)" d="M 585.696971 217.071091 
L 609.048198 222.578765 
L 622.634702 213.078795 
L 599.434926 207.678479 
z
" style="fill:#0aa384;fill-opacity:0.8;"/>
    <path clip-path="url(#p3e236a1fc0)" d="M 585.692781 216.777164 
L 599.432378 207.386329 
L 622.634857 212.78562 
L 609.046747 222.283806 
z
" style="fill:#08745e;fill-opacity:0.8;"/>
    <path clip-path="url(#p3e236a1fc0)" d="M 609.046747 222.283806 
L 622.634857 212.78562 
L 622.634702 213.078795 
L 609.048198 222.578765 
z
" style="fill:#0cba97;fill-opacity:0.8;"/>
    <path clip-path="url(#p3e236a1fc0)" d="M 585.692781 216.777164 
L 609.046747 222.283806 
L 609.048198 222.578765 
L 585.696971 217.071091 
z
" style="fill:#065d4c;fill-opacity:0.8;"/>
   </g>
   <g id="Poly3DCollection_33">
    <path clip-path="url(#p3e236a1fc0)" d="M 646.102018 218.246503 
L 646.097313 218.720551 
L 669.829153 224.245751 
L 669.838416 223.770039 
z
" style="fill:#0cba97;fill-opacity:0.8;"/>
    <path clip-path="url(#p3e236a1fc0)" d="M 632.669781 227.853892 
L 632.667604 228.330828 
L 646.097313 218.720551 
L 646.102018 218.246503 
z
" style="fill:#065d4c;fill-opacity:0.8;"/>
    <path clip-path="url(#p3e236a1fc0)" d="M 632.667604 228.330828 
L 656.559764 233.967137 
L 669.829153 224.245751 
L 646.097313 218.720551 
z
" style="fill:#0aa384;fill-opacity:0.8;"/>
    <path clip-path="url(#p3e236a1fc0)" d="M 632.669781 227.853892 
L 646.102018 218.246503 
L 669.838416 223.770039 
L 656.566561 233.488525 
z
" style="fill:#08745e;fill-opacity:0.8;"/>
    <path clip-path="url(#p3e236a1fc0)" d="M 656.566561 233.488525 
L 669.838416 223.770039 
L 669.829153 224.245751 
L 656.559764 233.967137 
z
" style="fill:#0cba97;fill-opacity:0.8;"/>
    <path clip-path="url(#p3e236a1fc0)" d="M 632.669781 227.853892 
L 656.566561 233.488525 
L 656.559764 233.967137 
L 632.667604 228.330828 
z
" style="fill:#065d4c;fill-opacity:0.8;"/>
   </g>
   <g id="Poly3DCollection_34">
    <path clip-path="url(#p3e236a1fc0)" d="M 482.035373 196.70682 
L 660.307856 238.937871 
L 756.348293 168.020589 
L 586.577678 131.54694 
z
" style="fill-opacity:0.2;"/>
   </g>
  </g>
 </g>
 <defs>
  <clipPath id="p0229d4a479">
   <rect height="277.2" width="380.454545" x="-30.6" y="-14.4"/>
  </clipPath>
  <clipPath id="p3e236a1fc0">
   <rect height="277.2" width="380.454545" x="425.945455" y="-14.4"/>
  </clipPath>
 </defs>
</svg>
