<?xml version="1.0" encoding="utf-8" standalone="no"?>
<!DOCTYPE svg PUBLIC "-//W3C//DTD SVG 1.1//EN"
  "http://www.w3.org/Graphics/SVG/1.1/DTD/svg11.dtd">
<!-- Created with matplotlib (https://matplotlib.org/) -->
<svg height="302.4pt" version="1.1" viewBox="0 0 820.8 302.4" width="820.8pt" xmlns="http://www.w3.org/2000/svg" xmlns:xlink="http://www.w3.org/1999/xlink">
 <defs>
  <style type="text/css">
*{stroke-linecap:butt;stroke-linejoin:round;}
  </style>
 </defs>
 <g id="figure_1">
  <g id="patch_1">
   <path d="M 0 302.4 
L 820.8 302.4 
L 820.8 0 
L 0 0 
z
" style="fill:#ffffff;"/>
  </g>
  <g id="patch_2">
   <path d="M -30.6 262.8 
L 349.854545 262.8 
L 349.854545 -14.4 
L -30.6 -14.4 
z
" style="fill:#ffffff;"/>
  </g>
  <g id="pane3d_1">
   <g id="patch_3">
    <path d="M 19.835129 201.548569 
L 128.723211 133.58541 
L 126.910339 3.718968 
L 11.951034 64.782468 
" style="fill:#f2f2f2;opacity:0.5;stroke:#f2f2f2;stroke-linejoin:miter;"/>
   </g>
  </g>
  <g id="pane3d_2">
   <g id="patch_4">
    <path d="M 128.723211 133.58541 
L 305.111665 171.581202 
L 312.491547 37.79869 
L 126.910339 3.718968 
" style="fill:#e6e6e6;opacity:0.5;stroke:#e6e6e6;stroke-linejoin:miter;"/>
   </g>
  </g>
  <g id="pane3d_3">
   <g id="patch_5">
    <path d="M 19.835129 201.548569 
L 205.419617 245.80086 
L 305.111665 171.581202 
L 128.723211 133.58541 
" style="fill:#ececec;opacity:0.5;stroke:#ececec;stroke-linejoin:miter;"/>
   </g>
  </g>
  <g id="axis3d_1">
   <g id="line2d_1">
    <path d="M 19.835129 201.548569 
L 205.419617 245.80086 
" style="fill:none;stroke:#000000;stroke-linecap:square;stroke-width:0.8;"/>
   </g>
   <g id="Line3DCollection_1">
    <path d="M 42.295817 206.90428 
L 150.133942 138.19749 
L 149.393845 7.847789 
" style="fill:none;stroke:#b0b0b0;stroke-width:0.8;"/>
    <path d="M 87.512337 217.686079 
L 193.184014 147.470895 
L 194.636898 16.156123 
" style="fill:none;stroke:#b0b0b0;stroke-width:0.8;"/>
    <path d="M 133.765289 228.715013 
L 237.148096 156.941187 
L 240.890183 24.649974 
" style="fill:none;stroke:#b0b0b0;stroke-width:0.8;"/>
    <path d="M 181.090721 239.999678 
L 282.055608 166.614702 
L 288.187917 33.335625 
" style="fill:none;stroke:#b0b0b0;stroke-width:0.8;"/>
   </g>
   <g id="xtick_1">
    <g id="line2d_2">
     <path d="M 43.225084 206.312217 
L 40.433807 208.09062 
" style="fill:none;stroke:#000000;stroke-linecap:square;stroke-width:0.8;"/>
    </g>
    <g id="text_1">
     <!-- 00 -->
     <defs>
      <path d="M 42 31.84375 
C 42 37.96875 41.90625 48.421875 37.703125 56.453125 
C 34 63.484375 28.09375 66 22.90625 66 
C 18.09375 66 12 63.78125 8.203125 56.5625 
C 4.203125 49.015625 3.796875 39.671875 3.796875 31.84375 
C 3.796875 26.109375 3.90625 17.375 7 9.734375 
C 11.296875 -0.609375 19 -2 22.90625 -2 
C 27.5 -2 34.5 -0.109375 38.59375 9.4375 
C 41.59375 16.375 42 24.5 42 31.84375 
z
M 22.90625 -0.40625 
C 16.5 -0.40625 12.703125 5.125 11.296875 12.75 
C 10.203125 18.6875 10.203125 27.328125 10.203125 32.953125 
C 10.203125 40.6875 10.203125 47.109375 11.5 53.234375 
C 13.40625 61.78125 19 64.390625 22.90625 64.390625 
C 27 64.390625 32.296875 61.671875 34.203125 53.4375 
C 35.5 47.71875 35.59375 40.984375 35.59375 32.953125 
C 35.59375 26.421875 35.59375 18.375 34.40625 12.453125 
C 32.296875 1.5 26.40625 -0.40625 22.90625 -0.40625 
z
" id="CMR17-48"/>
     </defs>
     <g transform="translate(23.330362 237.14703)rotate(-45)scale(0.14 -0.14)">
      <use transform="scale(0.996264)" xlink:href="#CMR17-48"/>
      <use transform="translate(45.690477 0)scale(0.996264)" xlink:href="#CMR17-48"/>
     </g>
    </g>
   </g>
   <g id="xtick_2">
    <g id="line2d_3">
     <path d="M 88.423674 217.080527 
L 85.686217 218.899473 
" style="fill:none;stroke:#000000;stroke-linecap:square;stroke-width:0.8;"/>
    </g>
    <g id="text_2">
     <!-- 01 -->
     <defs>
      <path d="M 26.59375 63.796875 
C 26.59375 65.890625 26.5 66 25.09375 66 
C 21.203125 61.359375 15.296875 59.890625 9.703125 59.6875 
C 9.40625 59.6875 8.90625 59.6875 8.796875 59.5 
C 8.703125 59.296875 8.703125 59.09375 8.703125 57 
C 11.796875 57 17 57.59375 21 59.984375 
L 21 7.296875 
C 21 3.796875 20.796875 2.59375 12.203125 2.59375 
L 9.203125 2.59375 
L 9.203125 0 
C 14 0.09375 19 0.1875 23.796875 0.1875 
C 28.59375 0.1875 33.59375 0.09375 38.40625 0 
L 38.40625 2.59375 
L 35.40625 2.59375 
C 26.796875 2.59375 26.59375 3.6875 26.59375 7.296875 
z
" id="CMR17-49"/>
     </defs>
     <g transform="translate(68.542787 248.103782)rotate(-45)scale(0.14 -0.14)">
      <use transform="scale(0.996264)" xlink:href="#CMR17-48"/>
      <use transform="translate(45.690477 0)scale(0.996264)" xlink:href="#CMR17-49"/>
     </g>
    </g>
   </g>
   <g id="xtick_3">
    <g id="line2d_4">
     <path d="M 134.657625 228.095506 
L 131.977203 229.956397 
" style="fill:none;stroke:#000000;stroke-linecap:square;stroke-width:0.8;"/>
    </g>
    <g id="text_3">
     <!-- 10 -->
     <g transform="translate(114.7934 259.312128)rotate(-45)scale(0.14 -0.14)">
      <use transform="scale(0.996264)" xlink:href="#CMR17-49"/>
      <use transform="translate(45.690477 0)scale(0.996264)" xlink:href="#CMR17-48"/>
     </g>
    </g>
   </g>
   <g id="xtick_4">
    <g id="line2d_5">
     <path d="M 181.962926 239.365727 
L 179.342936 241.270032 
" style="fill:none;stroke:#000000;stroke-linecap:square;stroke-width:0.8;"/>
    </g>
    <g id="text_4">
     <!-- 11 -->
     <g transform="translate(162.118375 270.780834)rotate(-45)scale(0.14 -0.14)">
      <use transform="scale(0.996264)" xlink:href="#CMR17-49"/>
      <use transform="translate(45.690477 0)scale(0.996264)" xlink:href="#CMR17-49"/>
     </g>
    </g>
   </g>
  </g>
  <g id="axis3d_2">
   <g id="line2d_6">
    <path d="M 305.111665 171.581202 
L 205.419617 245.80086 
" style="fill:none;stroke:#000000;stroke-linecap:square;stroke-width:0.8;"/>
   </g>
   <g id="Line3DCollection_2">
    <path d="M 27.455231 56.547028 
L 34.471044 192.413474 
L 218.858418 235.795817 
" style="fill:none;stroke:#b0b0b0;stroke-width:0.8;"/>
    <path d="M 57.232024 40.730342 
L 62.623407 174.842005 
L 244.674037 216.576366 
" style="fill:none;stroke:#b0b0b0;stroke-width:0.8;"/>
    <path d="M 85.85589 25.526062 
L 89.739382 157.917404 
L 269.496985 198.095948 
" style="fill:none;stroke:#b0b0b0;stroke-width:0.8;"/>
    <path d="M 113.392516 10.899296 
L 115.875164 141.604597 
L 293.383438 180.312741 
" style="fill:none;stroke:#b0b0b0;stroke-width:0.8;"/>
   </g>
   <g id="xtick_5">
    <g id="line2d_7">
     <path d="M 217.315598 235.432825 
L 221.947489 236.522608 
" style="fill:none;stroke:#000000;stroke-linecap:square;stroke-width:0.8;"/>
    </g>
    <g id="text_5">
     <!-- 00 -->
     <g transform="translate(232.650369 248.348363)rotate(-337.5)scale(0.14 -0.14)">
      <use transform="scale(0.996264)" xlink:href="#CMR17-48"/>
      <use transform="translate(45.690477 0)scale(0.996264)" xlink:href="#CMR17-48"/>
     </g>
    </g>
   </g>
   <g id="xtick_6">
    <g id="line2d_8">
     <path d="M 243.15208 216.227463 
L 247.72127 217.274932 
" style="fill:none;stroke:#000000;stroke-linecap:square;stroke-width:0.8;"/>
    </g>
    <g id="text_6">
     <!-- 01 -->
     <g transform="translate(258.203921 228.903937)rotate(-337.5)scale(0.14 -0.14)">
      <use transform="scale(0.996264)" xlink:href="#CMR17-48"/>
      <use transform="translate(45.690477 0)scale(0.996264)" xlink:href="#CMR17-49"/>
     </g>
    </g>
   </g>
   <g id="xtick_7">
    <g id="line2d_9">
     <path d="M 267.995442 197.76033 
L 272.503283 198.767901 
" style="fill:none;stroke:#000000;stroke-linecap:square;stroke-width:0.8;"/>
    </g>
    <g id="text_7">
     <!-- 10 -->
     <g transform="translate(282.775332 210.206849)rotate(-337.5)scale(0.14 -0.14)">
      <use transform="scale(0.996264)" xlink:href="#CMR17-49"/>
      <use transform="translate(45.690477 0)scale(0.996264)" xlink:href="#CMR17-48"/>
     </g>
    </g>
   </g>
   <g id="xtick_8">
    <g id="line2d_10">
     <path d="M 291.901865 179.989663 
L 296.349691 180.959573 
" style="fill:none;stroke:#000000;stroke-linecap:square;stroke-width:0.8;"/>
    </g>
    <g id="text_8">
     <!-- 11 -->
     <g transform="translate(306.420159 192.214827)rotate(-337.5)scale(0.14 -0.14)">
      <use transform="scale(0.996264)" xlink:href="#CMR17-49"/>
      <use transform="translate(45.690477 0)scale(0.996264)" xlink:href="#CMR17-49"/>
     </g>
    </g>
   </g>
  </g>
  <g id="axis3d_3">
   <g id="line2d_11">
    <path d="M 305.111665 171.581202 
L 312.491547 37.79869 
" style="fill:none;stroke:#000000;stroke-linecap:square;stroke-width:0.8;"/>
   </g>
   <g id="text_9">
    <!-- Re[$\rho$] -->
    <defs>
     <path d="M 39.203125 33.6875 
C 48.703125 35.59375 56.703125 42.015625 56.703125 50.046875 
C 56.703125 59.46875 46.09375 68 32.09375 68 
L 5.203125 68 
L 5.203125 65.390625 
C 12.09375 65.390625 13.203125 65.390625 13.203125 60.875 
L 13.203125 6.6875 
C 13.203125 2.1875 12.09375 2.1875 5.203125 2.1875 
L 5.203125 -0.40625 
C 8.09375 -0.203125 13.296875 -0.203125 16.40625 -0.203125 
C 19.5 -0.203125 24.703125 -0.203125 27.59375 -0.40625 
L 27.59375 2.1875 
C 20.703125 2.1875 19.59375 2.1875 19.59375 6.6875 
L 19.59375 33 
L 31.296875 33 
C 37 33 40.203125 30.6875 41.59375 29.390625 
C 45.59375 25.5 45.59375 22.796875 45.59375 16 
C 45.59375 9.296875 45.59375 5.890625 48.59375 2.5 
C 52.40625 -1.609375 57.5 -2 59.703125 -2 
C 67.09375 -2 68.203125 6.296875 68.203125 8 
C 68.203125 8.59375 68.203125 9.296875 67.296875 9.296875 
C 66.5 9.296875 66.40625 8.6875 66.40625 8.296875 
C 65.90625 1.796875 63 -0.40625 59.90625 -0.40625 
C 54.40625 -0.40625 53.796875 5.890625 53.203125 12 
C 52.90625 14.09375 52.703125 15.59375 52.5 17.796875 
C 51.90625 22.796875 51.09375 30.09375 39.203125 33.6875 
z
M 31 34.59375 
L 19.59375 34.59375 
L 19.59375 61.484375 
C 19.59375 64.890625 19.796875 65.390625 23.796875 65.390625 
L 31.09375 65.390625 
C 39.40625 65.390625 49.09375 62.484375 49.09375 50.046875 
C 49.09375 37.09375 38.5 34.59375 31 34.59375 
z
" id="CMR17-82"/>
     <path d="M 38.09375 23.484375 
C 38.5 23.890625 38.5 24.09375 38.5 25.09375 
C 38.5 35.171875 33.09375 44 21.703125 44 
C 11.09375 44 2.703125 33.984375 2.703125 21.78125 
C 2.703125 8.65625 12.203125 -1 22.796875 -1 
C 34 -1 38.40625 9.671875 38.40625 11.796875 
C 38.40625 12.5 37.796875 12.5 37.59375 12.5 
C 36.90625 12.5 36.796875 12.296875 36.40625 11.078125 
C 34.203125 4.21875 28.703125 0.796875 23.5 0.796875 
C 19.203125 0.796875 14.90625 3.21875 12.203125 7.65625 
C 9.09375 12.796875 9.09375 18.75 9.09375 23.484375 
z
M 9.203125 25 
C 9.90625 39.234375 17.59375 42.390625 21.59375 42.390625 
C 28.40625 42.390625 33 36.0625 33.09375 25 
z
" id="CMR17-101"/>
     <path d="M 23.5 -25 
L 23.5 -21.5 
L 14.09375 -21.5 
L 14.09375 71.484375 
L 23.5 71.484375 
L 23.5 75 
L 10.59375 75 
L 10.59375 -25 
z
" id="CMR17-91"/>
     <path d="M 3.09375 -16.953125 
C 3 -17.4375 2.796875 -18.03125 2.796875 -18.609375 
C 2.796875 -20.109375 4 -21.109375 5.5 -21.109375 
C 7 -21.109375 8.40625 -20.109375 9 -18.71875 
C 9.40625 -17.828125 12.203125 -6.09375 15.40625 6.078125 
C 17.40625 1.09375 21.09375 -1 25 -1 
C 36.296875 -1 49.09375 12.96875 49.09375 28.03125 
C 49.09375 38.703125 42.59375 44 35.703125 44 
C 26.90625 44 16.203125 34.90625 12.90625 21.640625 
z
M 24.90625 1 
C 18.09375 1 16.40625 8.875 16.40625 10.078125 
C 16.40625 10.671875 18.90625 20.140625 19.203125 21.640625 
C 24.296875 41.5 34.09375 41.984375 35.59375 41.984375 
C 40.09375 41.984375 42.59375 37.90625 42.59375 32.015625 
C 42.59375 26.9375 39.90625 17.046875 38.203125 12.859375 
C 35.203125 5.984375 30 1 24.90625 1 
z
" id="CMMI12-26"/>
     <path d="M 14.296875 75 
L 1.40625 75 
L 1.40625 71.484375 
L 10.796875 71.484375 
L 10.796875 -21.5 
L 1.40625 -21.5 
L 1.40625 -25 
L 14.296875 -25 
z
" id="CMR17-93"/>
    </defs>
    <g transform="translate(352.486567 117.931831)rotate(-86.842577)scale(0.14 -0.14)">
     <use transform="scale(0.996264)" xlink:href="#CMR17-82"/>
     <use transform="translate(67.791102 0)scale(0.996264)" xlink:href="#CMR17-101"/>
     <use transform="translate(108.276762 0)scale(0.996264)" xlink:href="#CMR17-91"/>
     <use transform="translate(133.147821 0)scale(0.996264)" xlink:href="#CMMI12-26"/>
     <use transform="translate(183.462194 0)scale(0.996264)" xlink:href="#CMR17-93"/>
    </g>
   </g>
   <g id="Line3DCollection_3">
    <path d="M 305.284904 168.440733 
L 128.680564 130.530377 
L 19.650365 198.343455 
" style="fill:none;stroke:#b0b0b0;stroke-width:0.8;"/>
    <path d="M 308.030396 118.670438 
L 128.005279 82.155797 
L 16.720227 147.514078 
" style="fill:none;stroke:#b0b0b0;stroke-width:0.8;"/>
    <path d="M 310.885313 66.916503 
L 127.304239 31.936306 
L 13.669322 94.589769 
" style="fill:none;stroke:#b0b0b0;stroke-width:0.8;"/>
   </g>
   <g id="xtick_9">
    <g id="line2d_12">
     <path d="M 303.811379 168.124422 
L 308.23502 169.074013 
" style="fill:none;stroke:#000000;stroke-linecap:square;stroke-width:0.8;"/>
    </g>
    <g id="text_10">
     <!-- $0.0$ -->
     <defs>
      <path d="M 18.40625 4.796875 
C 18.40625 7.6875 16 9.6875 13.59375 9.6875 
C 10.703125 9.6875 8.703125 7.296875 8.703125 4.890625 
C 8.703125 2 11.09375 0 13.5 0 
C 16.40625 0 18.40625 2.390625 18.40625 4.796875 
z
" id="CMMI12-58"/>
     </defs>
     <g transform="translate(315.091652 176.186513)scale(0.14 -0.14)">
      <use transform="scale(0.996264)" xlink:href="#CMR17-48"/>
      <use transform="translate(45.690477 0)scale(0.996264)" xlink:href="#CMMI12-58"/>
      <use transform="translate(72.787654 0)scale(0.996264)" xlink:href="#CMR17-48"/>
     </g>
    </g>
   </g>
   <g id="xtick_10">
    <g id="line2d_13">
     <path d="M 306.527121 118.365528 
L 311.040136 119.280906 
" style="fill:none;stroke:#000000;stroke-linecap:square;stroke-width:0.8;"/>
    </g>
    <g id="text_11">
     <!-- $0.2$ -->
     <defs>
      <path d="M 41.703125 15.46875 
L 39.90625 15.46875 
C 38.90625 8.390625 38.09375 7.1875 37.703125 6.59375 
C 37.203125 5.796875 30 5.796875 28.59375 5.796875 
L 9.40625 5.796875 
C 13 9.6875 20 16.765625 28.5 24.9375 
C 34.59375 30.71875 41.703125 37.5 41.703125 47.390625 
C 41.703125 59.1875 32.296875 66 21.796875 66 
C 10.796875 66 4.09375 56.296875 4.09375 47.296875 
C 4.09375 43.390625 7 42.890625 8.203125 42.890625 
C 9.203125 42.890625 12.203125 43.484375 12.203125 46.984375 
C 12.203125 50.09375 9.59375 51 8.203125 51 
C 7.59375 51 7 50.890625 6.59375 50.6875 
C 8.5 59.1875 14.296875 63.390625 20.40625 63.390625 
C 29.09375 63.390625 34.796875 56.5 34.796875 47.390625 
C 34.796875 38.703125 29.703125 31.21875 24 24.734375 
L 4.09375 2.296875 
L 4.09375 0 
L 39.296875 0 
z
" id="CMR17-50"/>
     </defs>
     <g transform="translate(318.192503 126.486208)scale(0.14 -0.14)">
      <use transform="scale(0.996264)" xlink:href="#CMR17-48"/>
      <use transform="translate(45.690477 0)scale(0.996264)" xlink:href="#CMMI12-58"/>
      <use transform="translate(72.787654 0)scale(0.996264)" xlink:href="#CMR17-50"/>
     </g>
    </g>
   </g>
   <g id="xtick_11">
    <g id="line2d_14">
     <path d="M 309.351063 66.624161 
L 313.957133 67.501818 
" style="fill:none;stroke:#000000;stroke-linecap:square;stroke-width:0.8;"/>
    </g>
    <g id="text_12">
     <!-- $0.4$ -->
     <defs>
      <path d="M 33.59375 64.796875 
C 33.59375 66.890625 33.5 67 31.703125 67 
L 2 19.59375 
L 2 17 
L 27.796875 17 
L 27.796875 7.1875 
C 27.796875 3.59375 27.59375 2.59375 20.59375 2.59375 
L 18.703125 2.59375 
L 18.703125 0 
C 21.90625 0.1875 27.296875 0.1875 30.703125 0.1875 
C 34.09375 0.1875 39.5 0.1875 42.703125 0 
L 42.703125 2.59375 
L 40.796875 2.59375 
C 33.796875 2.59375 33.59375 3.59375 33.59375 7.1875 
L 33.59375 17 
L 43.796875 17 
L 43.796875 19.59375 
L 33.59375 19.59375 
z
M 28.09375 58.171875 
L 28.09375 19.59375 
L 4 19.59375 
z
" id="CMR17-52"/>
     </defs>
     <g transform="translate(321.416668 74.809426)scale(0.14 -0.14)">
      <use transform="scale(0.996264)" xlink:href="#CMR17-48"/>
      <use transform="translate(45.690477 0)scale(0.996264)" xlink:href="#CMMI12-58"/>
      <use transform="translate(72.787654 0)scale(0.996264)" xlink:href="#CMR17-52"/>
     </g>
    </g>
   </g>
  </g>
  <g id="axes_1">
   <g id="Poly3DCollection_1">
    <path clip-path="url(#pe4ad7c54c6)" d="M 133.044582 136.893666 
L 133.025905 135.375436 
L 154.430227 139.990663 
L 154.436342 141.51412 
z
" style="fill:#5d0618;fill-opacity:0.8;"/>
    <path clip-path="url(#pe4ad7c54c6)" d="M 120.26099 144.927353 
L 120.234548 143.400051 
L 133.025905 135.375436 
L 133.044582 136.893666 
z
" style="fill:#ba0c2f;fill-opacity:0.8;"/>
    <path clip-path="url(#pe4ad7c54c6)" d="M 120.26099 144.927353 
L 133.044582 136.893666 
L 154.436342 141.51412 
L 141.781114 149.632632 
z
" style="fill:#74081d;fill-opacity:0.8;"/>
    <path clip-path="url(#pe4ad7c54c6)" d="M 120.234548 143.400051 
L 141.767385 148.100057 
L 154.430227 139.990663 
L 133.025905 135.375436 
z
" style="fill:#a30a29;fill-opacity:0.8;"/>
    <path clip-path="url(#pe4ad7c54c6)" d="M 141.781114 149.632632 
L 154.436342 141.51412 
L 154.430227 139.990663 
L 141.767385 148.100057 
z
" style="fill:#5d0618;fill-opacity:0.8;"/>
    <path clip-path="url(#pe4ad7c54c6)" d="M 120.26099 144.927353 
L 141.781114 149.632632 
L 141.767385 148.100057 
L 120.234548 143.400051 
z
" style="fill:#ba0c2f;fill-opacity:0.8;"/>
   </g>
   <g id="Poly3DCollection_2">
    <path clip-path="url(#pe4ad7c54c6)" d="M 176.053529 146.183266 
L 176.054462 145.970907 
L 197.902479 150.688783 
L 197.899727 150.901875 
z
" style="fill:#5d0618;fill-opacity:0.8;"/>
    <path clip-path="url(#pe4ad7c54c6)" d="M 163.530107 154.387951 
L 163.530003 154.174321 
L 176.054462 145.970907 
L 176.053529 146.183266 
z
" style="fill:#ba0c2f;fill-opacity:0.8;"/>
    <path clip-path="url(#pe4ad7c54c6)" d="M 163.530107 154.387951 
L 176.053529 146.183266 
L 197.899727 150.901875 
L 185.511639 159.194115 
z
" style="fill:#74081d;fill-opacity:0.8;"/>
    <path clip-path="url(#pe4ad7c54c6)" d="M 163.530003 154.174321 
L 185.513379 158.979745 
L 197.902479 150.688783 
L 176.054462 145.970907 
z
" style="fill:#a30a29;fill-opacity:0.8;"/>
    <path clip-path="url(#pe4ad7c54c6)" d="M 185.511639 159.194115 
L 197.899727 150.901875 
L 197.902479 150.688783 
L 185.513379 158.979745 
z
" style="fill:#5d0618;fill-opacity:0.8;"/>
    <path clip-path="url(#pe4ad7c54c6)" d="M 163.530107 154.387951 
L 185.511639 159.194115 
L 185.513379 158.979745 
L 163.530003 154.174321 
z
" style="fill:#ba0c2f;fill-opacity:0.8;"/>
   </g>
   <g id="Poly3DCollection_3">
    <path clip-path="url(#pe4ad7c54c6)" d="M 107.242251 153.108814 
L 107.255484 153.698282 
L 128.900155 158.49278 
L 128.891858 157.901275 
z
" style="fill:#ba0c2f;fill-opacity:0.8;"/>
    <path clip-path="url(#pe4ad7c54c6)" d="M 93.981819 161.442165 
L 93.998253 162.035168 
L 107.255484 153.698282 
L 107.242251 153.108814 
z
" style="fill:#5d0618;fill-opacity:0.8;"/>
    <path clip-path="url(#pe4ad7c54c6)" d="M 93.998253 162.035168 
L 115.773462 166.919311 
L 128.900155 158.49278 
L 107.255484 153.698282 
z
" style="fill:#a30a29;fill-opacity:0.8;"/>
    <path clip-path="url(#pe4ad7c54c6)" d="M 93.981819 161.442165 
L 107.242251 153.108814 
L 128.891858 157.901275 
L 115.762023 166.324253 
z
" style="fill:#74081d;fill-opacity:0.8;"/>
    <path clip-path="url(#pe4ad7c54c6)" d="M 115.762023 166.324253 
L 128.891858 157.901275 
L 128.900155 158.49278 
L 115.773462 166.919311 
z
" style="fill:#ba0c2f;fill-opacity:0.8;"/>
    <path clip-path="url(#pe4ad7c54c6)" d="M 93.981819 161.442165 
L 115.762023 166.324253 
L 115.773462 166.919311 
L 93.998253 162.035168 
z
" style="fill:#5d0618;fill-opacity:0.8;"/>
   </g>
   <g id="Poly3DCollection_4">
    <path clip-path="url(#pe4ad7c54c6)" d="M 219.978593 155.670739 
L 219.970473 156.047225 
L 242.282401 160.868453 
L 242.293864 160.490664 
z
" style="fill:#ba0c2f;fill-opacity:0.8;"/>
    <path clip-path="url(#pe4ad7c54c6)" d="M 207.729461 164.051942 
L 207.723084 164.430688 
L 219.970473 156.047225 
L 219.978593 155.670739 
z
" style="fill:#5d0618;fill-opacity:0.8;"/>
    <path clip-path="url(#pe4ad7c54c6)" d="M 207.723084 164.430688 
L 230.17764 169.34233 
L 242.282401 160.868453 
L 219.970473 156.047225 
z
" style="fill:#a30a29;fill-opacity:0.8;"/>
    <path clip-path="url(#pe4ad7c54c6)" d="M 207.729461 164.051942 
L 219.978593 155.670739 
L 242.293864 160.490664 
L 230.187402 168.96227 
z
" style="fill:#74081d;fill-opacity:0.8;"/>
    <path clip-path="url(#pe4ad7c54c6)" d="M 230.187402 168.96227 
L 242.293864 160.490664 
L 242.282401 160.868453 
L 230.17764 169.34233 
z
" style="fill:#ba0c2f;fill-opacity:0.8;"/>
    <path clip-path="url(#pe4ad7c54c6)" d="M 207.729461 164.051942 
L 230.187402 168.96227 
L 230.17764 169.34233 
L 207.723084 164.430688 
z
" style="fill:#5d0618;fill-opacity:0.8;"/>
   </g>
   <g id="Poly3DCollection_5">
    <path clip-path="url(#pe4ad7c54c6)" d="M 150.773851 162.745177 
L 150.773738 162.724638 
L 172.892058 167.620744 
L 172.891992 167.641354 
z
" style="fill:#5d0618;fill-opacity:0.8;"/>
    <path clip-path="url(#pe4ad7c54c6)" d="M 137.778208 171.259236 
L 137.777989 171.238574 
L 150.773738 162.724638 
L 150.773851 162.745177 
z
" style="fill:#ba0c2f;fill-opacity:0.8;"/>
    <path clip-path="url(#pe4ad7c54c6)" d="M 137.778208 171.259236 
L 150.773851 162.745177 
L 172.891992 167.641354 
L 160.034232 176.24798 
z
" style="fill:#74081d;fill-opacity:0.8;"/>
    <path clip-path="url(#pe4ad7c54c6)" d="M 137.777989 171.238574 
L 160.034193 176.227246 
L 172.892058 167.620744 
L 150.773738 162.724638 
z
" style="fill:#a30a29;fill-opacity:0.8;"/>
    <path clip-path="url(#pe4ad7c54c6)" d="M 160.034232 176.24798 
L 172.891992 167.641354 
L 172.892058 167.620744 
L 160.034193 176.227246 
z
" style="fill:#5d0618;fill-opacity:0.8;"/>
    <path clip-path="url(#pe4ad7c54c6)" d="M 137.778208 171.259236 
L 160.034232 176.24798 
L 160.034193 176.227246 
L 137.777989 171.238574 
z
" style="fill:#ba0c2f;fill-opacity:0.8;"/>
   </g>
   <g id="Poly3DCollection_6">
    <path clip-path="url(#pe4ad7c54c6)" d="M 80.472899 169.931675 
L 80.491752 170.501039 
L 102.398837 175.477269 
L 102.384809 174.905928 
z
" style="fill:#ba0c2f;fill-opacity:0.8;"/>
    <path clip-path="url(#pe4ad7c54c6)" d="M 66.708441 178.581775 
L 66.730579 179.15457 
L 80.491752 170.501039 
L 80.472899 169.931675 
z
" style="fill:#5d0618;fill-opacity:0.8;"/>
    <path clip-path="url(#pe4ad7c54c6)" d="M 66.730579 179.15457 
L 88.770414 184.225617 
L 102.398837 175.477269 
L 80.491752 170.501039 
z
" style="fill:#a30a29;fill-opacity:0.8;"/>
    <path clip-path="url(#pe4ad7c54c6)" d="M 66.708441 178.581775 
L 80.472899 169.931675 
L 102.384809 174.905928 
L 88.753159 183.650828 
z
" style="fill:#74081d;fill-opacity:0.8;"/>
    <path clip-path="url(#pe4ad7c54c6)" d="M 88.753159 183.650828 
L 102.384809 174.905928 
L 102.398837 175.477269 
L 88.770414 184.225617 
z
" style="fill:#ba0c2f;fill-opacity:0.8;"/>
    <path clip-path="url(#pe4ad7c54c6)" d="M 66.708441 178.581775 
L 88.753159 183.650828 
L 88.770414 184.225617 
L 66.730579 179.15457 
z
" style="fill:#5d0618;fill-opacity:0.8;"/>
   </g>
   <g id="Poly3DCollection_7">
    <path clip-path="url(#pe4ad7c54c6)" d="M 195.250125 172.590657 
L 195.259022 171.848367 
L 217.867756 176.849083 
L 217.852177 177.593956 
z
" style="fill:#5d0618;fill-opacity:0.8;"/>
    <path clip-path="url(#pe4ad7c54c6)" d="M 182.534034 181.291368 
L 182.539268 180.544597 
L 195.259022 171.848367 
L 195.250125 172.590657 
z
" style="fill:#ba0c2f;fill-opacity:0.8;"/>
    <path clip-path="url(#pe4ad7c54c6)" d="M 182.534034 181.291368 
L 195.250125 172.590657 
L 217.852177 177.593956 
L 205.281642 186.390301 
z
" style="fill:#74081d;fill-opacity:0.8;"/>
    <path clip-path="url(#pe4ad7c54c6)" d="M 182.539268 180.544597 
L 205.293644 185.640928 
L 217.867756 176.849083 
L 195.259022 171.848367 
z
" style="fill:#a30a29;fill-opacity:0.8;"/>
    <path clip-path="url(#pe4ad7c54c6)" d="M 205.281642 186.390301 
L 217.852177 177.593956 
L 217.867756 176.849083 
L 205.293644 185.640928 
z
" style="fill:#5d0618;fill-opacity:0.8;"/>
    <path clip-path="url(#pe4ad7c54c6)" d="M 182.534034 181.291368 
L 205.281642 186.390301 
L 205.293644 185.640928 
L 182.539268 180.544597 
z
" style="fill:#ba0c2f;fill-opacity:0.8;"/>
   </g>
   <g id="Poly3DCollection_8">
    <path clip-path="url(#pe4ad7c54c6)" d="M 124.536376 179.934586 
L 124.524552 179.189336 
L 146.926284 184.270699 
L 146.931555 185.018547 
z
" style="fill:#5d0618;fill-opacity:0.8;"/>
    <path clip-path="url(#pe4ad7c54c6)" d="M 111.041292 188.775853 
L 111.025351 188.026097 
L 124.524552 179.189336 
L 124.536376 179.934586 
z
" style="fill:#ba0c2f;fill-opacity:0.8;"/>
    <path clip-path="url(#pe4ad7c54c6)" d="M 111.041292 188.775853 
L 124.536376 179.934586 
L 146.931555 185.018547 
L 133.576896 193.957783 
z
" style="fill:#74081d;fill-opacity:0.8;"/>
    <path clip-path="url(#pe4ad7c54c6)" d="M 111.025351 188.026097 
L 133.56759 193.205409 
L 146.926284 184.270699 
L 124.524552 179.189336 
z
" style="fill:#a30a29;fill-opacity:0.8;"/>
    <path clip-path="url(#pe4ad7c54c6)" d="M 133.576896 193.957783 
L 146.931555 185.018547 
L 146.926284 184.270699 
L 133.56759 193.205409 
z
" style="fill:#5d0618;fill-opacity:0.8;"/>
    <path clip-path="url(#pe4ad7c54c6)" d="M 111.041292 188.775853 
L 133.576896 193.957783 
L 133.56759 193.205409 
L 111.025351 188.026097 
z
" style="fill:#ba0c2f;fill-opacity:0.8;"/>
   </g>
   <g id="Poly3DCollection_9">
    <path clip-path="url(#pe4ad7c54c6)" d="M 240.702161 182.652137 
L 240.69066 183.035817 
L 263.789097 188.151128 
L 263.80418 187.766111 
z
" style="fill:#ba0c2f;fill-opacity:0.8;"/>
    <path clip-path="url(#pe4ad7c54c6)" d="M 228.281172 191.545704 
L 228.271459 191.931704 
L 240.69066 183.035817 
L 240.702161 182.652137 
z
" style="fill:#5d0618;fill-opacity:0.8;"/>
    <path clip-path="url(#pe4ad7c54c6)" d="M 228.271459 191.931704 
L 251.52349 197.145866 
L 263.789097 188.151128 
L 240.69066 183.035817 
z
" style="fill:#a30a29;fill-opacity:0.8;"/>
    <path clip-path="url(#pe4ad7c54c6)" d="M 228.281172 191.545704 
L 240.702161 182.652137 
L 263.80418 187.766111 
L 251.536833 196.758519 
z
" style="fill:#74081d;fill-opacity:0.8;"/>
    <path clip-path="url(#pe4ad7c54c6)" d="M 251.536833 196.758519 
L 263.80418 187.766111 
L 263.789097 188.151128 
L 251.52349 197.145866 
z
" style="fill:#ba0c2f;fill-opacity:0.8;"/>
    <path clip-path="url(#pe4ad7c54c6)" d="M 228.281172 191.545704 
L 251.536833 196.758519 
L 251.52349 197.145866 
L 228.271459 191.931704 
z
" style="fill:#5d0618;fill-opacity:0.8;"/>
   </g>
   <g id="Poly3DCollection_10">
    <path clip-path="url(#pe4ad7c54c6)" d="M 169.574385 190.158727 
L 169.574425 190.137795 
L 192.469229 195.335059 
L 192.468998 195.356065 
z
" style="fill:#5d0618;fill-opacity:0.8;"/>
    <path clip-path="url(#pe4ad7c54c6)" d="M 156.364114 199.197569 
L 156.364043 199.17651 
L 169.574425 190.137795 
L 169.574385 190.158727 
z
" style="fill:#ba0c2f;fill-opacity:0.8;"/>
    <path clip-path="url(#pe4ad7c54c6)" d="M 156.364114 199.197569 
L 169.574385 190.158727 
L 192.468998 195.356065 
L 179.407184 204.496188 
z
" style="fill:#74081d;fill-opacity:0.8;"/>
    <path clip-path="url(#pe4ad7c54c6)" d="M 156.364043 199.17651 
L 179.407307 204.475055 
L 192.469229 195.335059 
L 169.574425 190.137795 
z
" style="fill:#a30a29;fill-opacity:0.8;"/>
    <path clip-path="url(#pe4ad7c54c6)" d="M 179.407184 204.496188 
L 192.468998 195.356065 
L 192.469229 195.335059 
L 179.407307 204.475055 
z
" style="fill:#5d0618;fill-opacity:0.8;"/>
    <path clip-path="url(#pe4ad7c54c6)" d="M 156.364114 199.197569 
L 179.407184 204.496188 
L 179.407307 204.475055 
L 156.364043 199.17651 
z
" style="fill:#ba0c2f;fill-opacity:0.8;"/>
   </g>
   <g id="Poly3DCollection_11">
    <path clip-path="url(#pe4ad7c54c6)" d="M 97.285621 197.787843 
L 97.301173 198.368125 
L 119.973299 203.652911 
L 119.962915 203.070601 
z
" style="fill:#ba0c2f;fill-opacity:0.8;"/>
    <path clip-path="url(#pe4ad7c54c6)" d="M 83.26174 206.97555 
L 83.280708 207.55935 
L 97.301173 198.368125 
L 97.285621 197.787843 
z
" style="fill:#5d0618;fill-opacity:0.8;"/>
    <path clip-path="url(#pe4ad7c54c6)" d="M 83.280708 207.55935 
L 106.09572 212.94795 
L 119.973299 203.652911 
L 97.301173 198.368125 
z
" style="fill:#a30a29;fill-opacity:0.8;"/>
    <path clip-path="url(#pe4ad7c54c6)" d="M 83.26174 206.97555 
L 97.285621 197.787843 
L 119.962915 203.070601 
L 106.081986 212.362107 
z
" style="fill:#74081d;fill-opacity:0.8;"/>
    <path clip-path="url(#pe4ad7c54c6)" d="M 106.081986 212.362107 
L 119.962915 203.070601 
L 119.973299 203.652911 
L 106.09572 212.94795 
z
" style="fill:#ba0c2f;fill-opacity:0.8;"/>
    <path clip-path="url(#pe4ad7c54c6)" d="M 83.26174 206.97555 
L 106.081986 212.362107 
L 106.09572 212.94795 
L 83.280708 207.55935 
z
" style="fill:#5d0618;fill-opacity:0.8;"/>
   </g>
   <g id="Poly3DCollection_12">
    <path clip-path="url(#pe4ad7c54c6)" d="M 215.619617 200.611519 
L 215.624076 200.390957 
L 239.037108 205.704736 
L 239.030559 205.926069 
z
" style="fill:#5d0618;fill-opacity:0.8;"/>
    <path clip-path="url(#pe4ad7c54c6)" d="M 202.710439 209.854634 
L 202.713799 209.632734 
L 215.624076 200.390957 
L 215.619617 200.611519 
z
" style="fill:#ba0c2f;fill-opacity:0.8;"/>
    <path clip-path="url(#pe4ad7c54c6)" d="M 202.710439 209.854634 
L 215.619617 200.611519 
L 239.030559 205.926069 
L 226.278311 215.273928 
z
" style="fill:#74081d;fill-opacity:0.8;"/>
    <path clip-path="url(#pe4ad7c54c6)" d="M 202.713799 209.632734 
L 226.283789 215.05125 
L 239.037108 205.704736 
L 215.624076 200.390957 
z
" style="fill:#a30a29;fill-opacity:0.8;"/>
    <path clip-path="url(#pe4ad7c54c6)" d="M 226.278311 215.273928 
L 239.030559 205.926069 
L 239.037108 205.704736 
L 226.283789 215.05125 
z
" style="fill:#5d0618;fill-opacity:0.8;"/>
    <path clip-path="url(#pe4ad7c54c6)" d="M 202.710439 209.854634 
L 226.278311 215.273928 
L 226.283789 215.05125 
L 202.713799 209.632734 
z
" style="fill:#ba0c2f;fill-opacity:0.8;"/>
   </g>
   <g id="Poly3DCollection_13">
    <path clip-path="url(#pe4ad7c54c6)" d="M 142.895879 208.412918 
L 142.90122 209.025184 
L 166.088534 214.430216 
L 166.088859 213.815806 
z
" style="fill:#ba0c2f;fill-opacity:0.8;"/>
    <path clip-path="url(#pe4ad7c54c6)" d="M 129.162049 217.809993 
L 129.17083 218.425978 
L 142.90122 209.025184 
L 142.895879 208.412918 
z
" style="fill:#5d0618;fill-opacity:0.8;"/>
    <path clip-path="url(#pe4ad7c54c6)" d="M 129.17083 218.425978 
L 152.509433 223.938404 
L 166.088534 214.430216 
L 142.90122 209.025184 
z
" style="fill:#a30a29;fill-opacity:0.8;"/>
    <path clip-path="url(#pe4ad7c54c6)" d="M 129.162049 217.809993 
L 142.895879 208.412918 
L 166.088859 213.815806 
L 152.506392 223.32026 
z
" style="fill:#74081d;fill-opacity:0.8;"/>
    <path clip-path="url(#pe4ad7c54c6)" d="M 152.506392 223.32026 
L 166.088859 213.815806 
L 166.088534 214.430216 
L 152.509433 223.938404 
z
" style="fill:#ba0c2f;fill-opacity:0.8;"/>
    <path clip-path="url(#pe4ad7c54c6)" d="M 129.162049 217.809993 
L 152.506392 223.32026 
L 152.509433 223.938404 
L 129.17083 218.425978 
z
" style="fill:#5d0618;fill-opacity:0.8;"/>
   </g>
   <g id="Poly3DCollection_14">
    <path clip-path="url(#pe4ad7c54c6)" d="M 252.889377 173.925955 
L 264.849357 165.362476 
L 287.648973 170.287017 
L 275.839385 178.943871 
z
" style="fill:#74081d;fill-opacity:0.8;"/>
    <path clip-path="url(#pe4ad7c54c6)" d="M 264.849357 165.362476 
L 269.817733 38.753367 
L 293.783865 43.204404 
L 287.648973 170.287017 
z
" style="fill:#5d0618;fill-opacity:0.8;"/>
    <path clip-path="url(#pe4ad7c54c6)" d="M 252.889377 173.925955 
L 257.307247 46.494989 
L 269.817733 38.753367 
L 264.849357 165.362476 
z
" style="fill:#ba0c2f;fill-opacity:0.8;"/>
    <path clip-path="url(#pe4ad7c54c6)" d="M 275.839385 178.943871 
L 287.648973 170.287017 
L 293.783865 43.204404 
L 281.439789 51.034688 
z
" style="fill:#5d0618;fill-opacity:0.8;"/>
    <path clip-path="url(#pe4ad7c54c6)" d="M 252.889377 173.925955 
L 275.839385 178.943871 
L 281.439789 51.034688 
L 257.307247 46.494989 
z
" style="fill:#ba0c2f;fill-opacity:0.8;"/>
    <path clip-path="url(#pe4ad7c54c6)" d="M 257.307247 46.494989 
L 281.439789 51.034688 
L 293.783865 43.204404 
L 269.817733 38.753367 
z
" style="fill:#a30a29;fill-opacity:0.8;"/>
   </g>
   <g id="Poly3DCollection_15">
    <path clip-path="url(#pe4ad7c54c6)" d="M 189.546303 219.280302 
L 189.562254 217.673128 
L 213.304166 223.194649 
L 213.27276 224.807466 
z
" style="fill:#5d0618;fill-opacity:0.8;"/>
    <path clip-path="url(#pe4ad7c54c6)" d="M 176.119579 228.893986 
L 176.12696 227.277023 
L 189.562254 217.673128 
L 189.546303 219.280302 
z
" style="fill:#ba0c2f;fill-opacity:0.8;"/>
    <path clip-path="url(#pe4ad7c54c6)" d="M 176.119579 228.893986 
L 189.546303 219.280302 
L 213.27276 224.807466 
L 200.006283 234.532273 
z
" style="fill:#74081d;fill-opacity:0.8;"/>
    <path clip-path="url(#pe4ad7c54c6)" d="M 176.12696 227.277023 
L 200.029328 232.909627 
L 213.304166 223.194649 
L 189.562254 217.673128 
z
" style="fill:#a30a29;fill-opacity:0.8;"/>
    <path clip-path="url(#pe4ad7c54c6)" d="M 200.006283 234.532273 
L 213.27276 224.807466 
L 213.304166 223.194649 
L 200.029328 232.909627 
z
" style="fill:#5d0618;fill-opacity:0.8;"/>
    <path clip-path="url(#pe4ad7c54c6)" d="M 176.119579 228.893986 
L 200.006283 234.532273 
L 200.029328 232.909627 
L 176.12696 227.277023 
z
" style="fill:#ba0c2f;fill-opacity:0.8;"/>
   </g>
   <g id="Poly3DCollection_16">
    <path clip-path="url(#pe4ad7c54c6)" d="M 25.546282 197.726219 
L 203.745914 239.985127 
L 299.749857 169.02019 
L 130.045308 132.520347 
z
" style="fill-opacity:0.15;"/>
   </g>
   <g id="Poly3DCollection_17">
    <path clip-path="url(#pe4ad7c54c6)" d="M 38.383346 196.382323 
L 52.681124 187.397065 
L 74.859743 192.563654 
L 60.696949 201.649291 
z
" style="fill:#74081d;fill-opacity:0.8;"/>
    <path clip-path="url(#pe4ad7c54c6)" d="M 52.681124 187.397065 
L 46.933544 57.750519 
L 70.222556 62.427839 
L 74.859743 192.563654 
z
" style="fill:#5d0618;fill-opacity:0.8;"/>
    <path clip-path="url(#pe4ad7c54c6)" d="M 38.383346 196.382323 
L 31.836896 65.886594 
L 46.933544 57.750519 
L 52.681124 187.397065 
z
" style="fill:#ba0c2f;fill-opacity:0.8;"/>
    <path clip-path="url(#pe4ad7c54c6)" d="M 60.696949 201.649291 
L 74.859743 192.563654 
L 70.222556 62.427839 
L 55.274545 70.659531 
z
" style="fill:#5d0618;fill-opacity:0.8;"/>
    <path clip-path="url(#pe4ad7c54c6)" d="M 38.383346 196.382323 
L 60.696949 201.649291 
L 55.274545 70.659531 
L 31.836896 65.886594 
z
" style="fill:#ba0c2f;fill-opacity:0.8;"/>
    <path clip-path="url(#pe4ad7c54c6)" d="M 31.836896 65.886594 
L 55.274545 70.659531 
L 70.222556 62.427839 
L 46.933544 57.750519 
z
" style="fill:#a30a29;fill-opacity:0.8;"/>
   </g>
  </g>
  <g id="patch_6">
   <path d="M 425.945455 262.8 
L 806.4 262.8 
L 806.4 -14.4 
L 425.945455 -14.4 
z
" style="fill:#ffffff;"/>
  </g>
  <g id="pane3d_4">
   <g id="patch_7">
    <path d="M 476.380584 201.548569 
L 585.268665 133.58541 
L 583.455794 3.718968 
L 468.496488 64.782468 
" style="fill:#f2f2f2;opacity:0.5;stroke:#f2f2f2;stroke-linejoin:miter;"/>
   </g>
  </g>
  <g id="pane3d_5">
   <g id="patch_8">
    <path d="M 585.268665 133.58541 
L 761.65712 171.581202 
L 769.037001 37.79869 
L 583.455794 3.718968 
" style="fill:#e6e6e6;opacity:0.5;stroke:#e6e6e6;stroke-linejoin:miter;"/>
   </g>
  </g>
  <g id="pane3d_6">
   <g id="patch_9">
    <path d="M 476.380584 201.548569 
L 661.965072 245.80086 
L 761.65712 171.581202 
L 585.268665 133.58541 
" style="fill:#ececec;opacity:0.5;stroke:#ececec;stroke-linejoin:miter;"/>
   </g>
  </g>
  <g id="axis3d_4">
   <g id="line2d_15">
    <path d="M 476.380584 201.548569 
L 661.965072 245.80086 
" style="fill:none;stroke:#000000;stroke-linecap:square;stroke-width:0.8;"/>
   </g>
   <g id="Line3DCollection_4">
    <path d="M 498.841271 206.90428 
L 606.679397 138.19749 
L 605.9393 7.847789 
" style="fill:none;stroke:#b0b0b0;stroke-width:0.8;"/>
    <path d="M 544.057792 217.686079 
L 649.729469 147.470895 
L 651.182353 16.156123 
" style="fill:none;stroke:#b0b0b0;stroke-width:0.8;"/>
    <path d="M 590.310744 228.715013 
L 693.693551 156.941187 
L 697.435637 24.649974 
" style="fill:none;stroke:#b0b0b0;stroke-width:0.8;"/>
    <path d="M 637.636176 239.999678 
L 738.601063 166.614702 
L 744.733372 33.335625 
" style="fill:none;stroke:#b0b0b0;stroke-width:0.8;"/>
   </g>
   <g id="xtick_12">
    <g id="line2d_16">
     <path d="M 499.770538 206.312217 
L 496.979262 208.09062 
" style="fill:none;stroke:#000000;stroke-linecap:square;stroke-width:0.8;"/>
    </g>
    <g id="text_13">
     <!-- 00 -->
     <g transform="translate(479.875817 237.14703)rotate(-45)scale(0.14 -0.14)">
      <use transform="scale(0.996264)" xlink:href="#CMR17-48"/>
      <use transform="translate(45.690477 0)scale(0.996264)" xlink:href="#CMR17-48"/>
     </g>
    </g>
   </g>
   <g id="xtick_13">
    <g id="line2d_17">
     <path d="M 544.969128 217.080527 
L 542.231671 218.899473 
" style="fill:none;stroke:#000000;stroke-linecap:square;stroke-width:0.8;"/>
    </g>
    <g id="text_14">
     <!-- 01 -->
     <g transform="translate(525.088242 248.103782)rotate(-45)scale(0.14 -0.14)">
      <use transform="scale(0.996264)" xlink:href="#CMR17-48"/>
      <use transform="translate(45.690477 0)scale(0.996264)" xlink:href="#CMR17-49"/>
     </g>
    </g>
   </g>
   <g id="xtick_14">
    <g id="line2d_18">
     <path d="M 591.20308 228.095506 
L 588.522658 229.956397 
" style="fill:none;stroke:#000000;stroke-linecap:square;stroke-width:0.8;"/>
    </g>
    <g id="text_15">
     <!-- 10 -->
     <g transform="translate(571.338855 259.312128)rotate(-45)scale(0.14 -0.14)">
      <use transform="scale(0.996264)" xlink:href="#CMR17-49"/>
      <use transform="translate(45.690477 0)scale(0.996264)" xlink:href="#CMR17-48"/>
     </g>
    </g>
   </g>
   <g id="xtick_15">
    <g id="line2d_19">
     <path d="M 638.50838 239.365727 
L 635.888391 241.270032 
" style="fill:none;stroke:#000000;stroke-linecap:square;stroke-width:0.8;"/>
    </g>
    <g id="text_16">
     <!-- 11 -->
     <g transform="translate(618.66383 270.780834)rotate(-45)scale(0.14 -0.14)">
      <use transform="scale(0.996264)" xlink:href="#CMR17-49"/>
      <use transform="translate(45.690477 0)scale(0.996264)" xlink:href="#CMR17-49"/>
     </g>
    </g>
   </g>
  </g>
  <g id="axis3d_5">
   <g id="line2d_20">
    <path d="M 761.65712 171.581202 
L 661.965072 245.80086 
" style="fill:none;stroke:#000000;stroke-linecap:square;stroke-width:0.8;"/>
   </g>
   <g id="Line3DCollection_5">
    <path d="M 484.000685 56.547028 
L 491.016499 192.413474 
L 675.403872 235.795817 
" style="fill:none;stroke:#b0b0b0;stroke-width:0.8;"/>
    <path d="M 513.777478 40.730342 
L 519.168861 174.842005 
L 701.219492 216.576366 
" style="fill:none;stroke:#b0b0b0;stroke-width:0.8;"/>
    <path d="M 542.401344 25.526062 
L 546.284836 157.917404 
L 726.04244 198.095948 
" style="fill:none;stroke:#b0b0b0;stroke-width:0.8;"/>
    <path d="M 569.937971 10.899296 
L 572.420618 141.604597 
L 749.928893 180.312741 
" style="fill:none;stroke:#b0b0b0;stroke-width:0.8;"/>
   </g>
   <g id="xtick_16">
    <g id="line2d_21">
     <path d="M 673.861052 235.432825 
L 678.492943 236.522608 
" style="fill:none;stroke:#000000;stroke-linecap:square;stroke-width:0.8;"/>
    </g>
    <g id="text_17">
     <!-- 00 -->
     <g transform="translate(689.195824 248.348363)rotate(-337.5)scale(0.14 -0.14)">
      <use transform="scale(0.996264)" xlink:href="#CMR17-48"/>
      <use transform="translate(45.690477 0)scale(0.996264)" xlink:href="#CMR17-48"/>
     </g>
    </g>
   </g>
   <g id="xtick_17">
    <g id="line2d_22">
     <path d="M 699.697534 216.227463 
L 704.266725 217.274932 
" style="fill:none;stroke:#000000;stroke-linecap:square;stroke-width:0.8;"/>
    </g>
    <g id="text_18">
     <!-- 01 -->
     <g transform="translate(714.749375 228.903937)rotate(-337.5)scale(0.14 -0.14)">
      <use transform="scale(0.996264)" xlink:href="#CMR17-48"/>
      <use transform="translate(45.690477 0)scale(0.996264)" xlink:href="#CMR17-49"/>
     </g>
    </g>
   </g>
   <g id="xtick_18">
    <g id="line2d_23">
     <path d="M 724.540896 197.76033 
L 729.048738 198.767901 
" style="fill:none;stroke:#000000;stroke-linecap:square;stroke-width:0.8;"/>
    </g>
    <g id="text_19">
     <!-- 10 -->
     <g transform="translate(739.320787 210.206849)rotate(-337.5)scale(0.14 -0.14)">
      <use transform="scale(0.996264)" xlink:href="#CMR17-49"/>
      <use transform="translate(45.690477 0)scale(0.996264)" xlink:href="#CMR17-48"/>
     </g>
    </g>
   </g>
   <g id="xtick_19">
    <g id="line2d_24">
     <path d="M 748.44732 179.989663 
L 752.895146 180.959573 
" style="fill:none;stroke:#000000;stroke-linecap:square;stroke-width:0.8;"/>
    </g>
    <g id="text_20">
     <!-- 11 -->
     <g transform="translate(762.965613 192.214827)rotate(-337.5)scale(0.14 -0.14)">
      <use transform="scale(0.996264)" xlink:href="#CMR17-49"/>
      <use transform="translate(45.690477 0)scale(0.996264)" xlink:href="#CMR17-49"/>
     </g>
    </g>
   </g>
  </g>
  <g id="axis3d_6">
   <g id="line2d_25">
    <path d="M 761.65712 171.581202 
L 769.037001 37.79869 
" style="fill:none;stroke:#000000;stroke-linecap:square;stroke-width:0.8;"/>
   </g>
   <g id="text_21">
    <!-- Im[$\rho$] -->
    <defs>
     <path d="M 19.703125 60.90625 
C 19.703125 65.390625 20.90625 65.390625 28.09375 65.390625 
L 28.09375 68 
C 24.90625 67.796875 19.796875 67.796875 16.40625 67.796875 
C 13 67.796875 7.90625 67.796875 4.703125 68 
L 4.703125 65.390625 
C 11.90625 65.390625 13.09375 65.390625 13.09375 60.90625 
L 13.09375 7.078125 
C 13.09375 2.59375 11.90625 2.59375 4.703125 2.59375 
L 4.703125 0 
C 7.90625 0.1875 13 0.1875 16.40625 0.1875 
C 19.796875 0.1875 24.90625 0.1875 28.09375 0 
L 28.09375 2.59375 
C 20.90625 2.59375 19.703125 2.59375 19.703125 7.078125 
z
" id="CMR17-73"/>
     <path d="M 67.59375 30.53125 
C 67.59375 35.5625 66.703125 44 54.796875 44 
C 48 44 43.296875 39.375 41.5 33.953125 
L 41.40625 33.953125 
C 40.203125 42.1875 34.296875 44 28.703125 44 
C 20.796875 44 16.703125 37.875 15.203125 33.84375 
L 15.09375 33.84375 
L 15.09375 44 
L 3.296875 42.890625 
L 3.296875 40.28125 
C 9.203125 40.28125 10.09375 39.6875 10.09375 34.859375 
L 10.09375 6.921875 
C 10.09375 3.09375 9.703125 2.59375 3.296875 2.59375 
L 3.296875 0 
C 5.703125 0.1875 10.09375 0.1875 12.703125 0.1875 
C 15.296875 0.1875 19.796875 0.1875 22.203125 0 
L 22.203125 2.59375 
C 15.796875 2.59375 15.40625 3 15.40625 6.921875 
L 15.40625 26.21875 
C 15.40625 35.453125 21 42.390625 28 42.390625 
C 35.40625 42.390625 36.203125 35.765625 36.203125 30.9375 
L 36.203125 6.921875 
C 36.203125 3.09375 35.796875 2.59375 29.40625 2.59375 
L 29.40625 0 
C 31.796875 0.1875 36.203125 0.1875 38.796875 0.1875 
C 41.40625 0.1875 45.90625 0.1875 48.296875 0 
L 48.296875 2.59375 
C 41.90625 2.59375 41.5 3 41.5 6.921875 
L 41.5 26.21875 
C 41.5 35.453125 47.09375 42.390625 54.09375 42.390625 
C 61.5 42.390625 62.296875 35.765625 62.296875 30.9375 
L 62.296875 6.921875 
C 62.296875 3.09375 61.90625 2.59375 55.5 2.59375 
L 55.5 0 
C 57.90625 0.1875 62.296875 0.1875 64.90625 0.1875 
C 67.5 0.1875 72 0.1875 74.40625 0 
L 74.40625 2.59375 
C 68 2.59375 67.59375 3 67.59375 6.921875 
z
" id="CMR17-109"/>
    </defs>
    <g transform="translate(809.026865 118.025317)rotate(-86.842577)scale(0.14 -0.14)">
     <use transform="scale(0.996264)" xlink:href="#CMR17-73"/>
     <use transform="translate(32.638409 0)scale(0.996264)" xlink:href="#CMR17-109"/>
     <use transform="translate(109.557999 0)scale(0.996264)" xlink:href="#CMR17-91"/>
     <use transform="translate(134.429058 0)scale(0.996264)" xlink:href="#CMMI12-26"/>
     <use transform="translate(184.74343 0)scale(0.996264)" xlink:href="#CMR17-93"/>
    </g>
   </g>
   <g id="Line3DCollection_6">
    <path d="M 761.877506 167.586042 
L 585.214413 129.698992 
L 476.145533 197.471125 
" style="fill:none;stroke:#b0b0b0;stroke-width:0.8;"/>
    <path d="M 764.6052 118.138395 
L 584.54352 81.639097 
L 473.234338 146.970361 
" style="fill:none;stroke:#b0b0b0;stroke-width:0.8;"/>
    <path d="M 767.440853 66.733664 
L 583.847219 31.759039 
L 470.203991 94.402671 
" style="fill:none;stroke:#b0b0b0;stroke-width:0.8;"/>
   </g>
   <g id="xtick_20">
    <g id="line2d_26">
     <path d="M 760.40347 167.269921 
L 764.828645 168.218941 
" style="fill:none;stroke:#000000;stroke-linecap:square;stroke-width:0.8;"/>
    </g>
    <g id="text_22">
     <!-- $0.0$ -->
     <g transform="translate(771.690359 175.332989)scale(0.14 -0.14)">
      <use transform="scale(0.996264)" xlink:href="#CMR17-48"/>
      <use transform="translate(45.690477 0)scale(0.996264)" xlink:href="#CMMI12-58"/>
      <use transform="translate(72.787654 0)scale(0.996264)" xlink:href="#CMR17-48"/>
     </g>
    </g>
   </g>
   <g id="xtick_21">
    <g id="line2d_27">
     <path d="M 763.101607 117.833609 
L 767.615577 118.748611 
" style="fill:none;stroke:#000000;stroke-linecap:square;stroke-width:0.8;"/>
    </g>
    <g id="text_23">
     <!-- $0.2$ -->
     <g transform="translate(774.771105 125.954934)scale(0.14 -0.14)">
      <use transform="scale(0.996264)" xlink:href="#CMR17-48"/>
      <use transform="translate(45.690477 0)scale(0.996264)" xlink:href="#CMMI12-58"/>
      <use transform="translate(72.787654 0)scale(0.996264)" xlink:href="#CMR17-50"/>
     </g>
    </g>
   </g>
   <g id="xtick_22">
    <g id="line2d_28">
     <path d="M 765.906494 66.441369 
L 770.512893 67.318889 
" style="fill:none;stroke:#000000;stroke-linecap:square;stroke-width:0.8;"/>
    </g>
    <g id="text_24">
     <!-- $0.4$ -->
     <g transform="translate(777.973513 74.626868)scale(0.14 -0.14)">
      <use transform="scale(0.996264)" xlink:href="#CMR17-48"/>
      <use transform="translate(45.690477 0)scale(0.996264)" xlink:href="#CMMI12-58"/>
      <use transform="translate(72.787654 0)scale(0.996264)" xlink:href="#CMR17-52"/>
     </g>
    </g>
   </g>
  </g>
  <g id="axes_2">
   <g id="Poly3DCollection_18">
    <path clip-path="url(#pf4534dfad6)" d="M 589.57976 136.058295 
L 589.597202 137.476151 
L 610.984142 142.098609 
L 610.978432 140.675874 
z
" style="fill:#0cba97;fill-opacity:0.8;"/>
    <path clip-path="url(#pf4534dfad6)" d="M 576.791895 144.086992 
L 576.816589 145.513314 
L 589.597202 137.476151 
L 589.57976 136.058295 
z
" style="fill:#065d4c;fill-opacity:0.8;"/>
    <path clip-path="url(#pf4534dfad6)" d="M 576.816589 145.513314 
L 598.331835 150.220613 
L 610.984142 142.098609 
L 589.597202 137.476151 
z
" style="fill:#0aa384;fill-opacity:0.8;"/>
    <path clip-path="url(#pf4534dfad6)" d="M 576.791895 144.086992 
L 589.57976 136.058295 
L 610.978432 140.675874 
L 598.319014 148.789371 
z
" style="fill:#08745e;fill-opacity:0.8;"/>
    <path clip-path="url(#pf4534dfad6)" d="M 598.319014 148.789371 
L 610.978432 140.675874 
L 610.984142 142.098609 
L 598.331835 150.220613 
z
" style="fill:#0cba97;fill-opacity:0.8;"/>
    <path clip-path="url(#pf4534dfad6)" d="M 576.791895 144.086992 
L 598.319014 148.789371 
L 598.331835 150.220613 
L 576.816589 145.513314 
z
" style="fill:#065d4c;fill-opacity:0.8;"/>
   </g>
   <g id="Poly3DCollection_19">
    <path clip-path="url(#pf4534dfad6)" d="M 632.602678 145.342129 
L 632.599374 146.094512 
L 654.446332 150.812816 
L 654.456084 150.057834 
z
" style="fill:#0cba97;fill-opacity:0.8;"/>
    <path clip-path="url(#pf4534dfad6)" d="M 620.075152 153.541776 
L 620.075518 154.298667 
L 632.599374 146.094512 
L 632.602678 145.342129 
z
" style="fill:#065d4c;fill-opacity:0.8;"/>
    <path clip-path="url(#pf4534dfad6)" d="M 620.075518 154.298667 
L 642.057821 159.104522 
L 654.446332 150.812816 
L 632.599374 146.094512 
z
" style="fill:#0aa384;fill-opacity:0.8;"/>
    <path clip-path="url(#pf4534dfad6)" d="M 620.075152 153.541776 
L 632.602678 145.342129 
L 654.456084 150.057834 
L 642.063983 158.345011 
z
" style="fill:#08745e;fill-opacity:0.8;"/>
    <path clip-path="url(#pf4534dfad6)" d="M 642.063983 158.345011 
L 654.456084 150.057834 
L 654.446332 150.812816 
L 642.057821 159.104522 
z
" style="fill:#0cba97;fill-opacity:0.8;"/>
    <path clip-path="url(#pf4534dfad6)" d="M 620.075152 153.541776 
L 642.063983 158.345011 
L 642.057821 159.104522 
L 620.075518 154.298667 
z
" style="fill:#065d4c;fill-opacity:0.8;"/>
   </g>
   <g id="Poly3DCollection_20">
    <path clip-path="url(#pf4534dfad6)" d="M 563.768728 152.263421 
L 563.759744 151.863204 
L 585.419781 156.651353 
L 585.425414 157.052956 
z
" style="fill:#065d4c;fill-opacity:0.8;"/>
    <path clip-path="url(#pf4534dfad6)" d="M 550.503705 160.591697 
L 550.492547 160.189075 
L 563.759744 151.863204 
L 563.768728 152.263421 
z
" style="fill:#0cba97;fill-opacity:0.8;"/>
    <path clip-path="url(#pf4534dfad6)" d="M 550.503705 160.591697 
L 563.768728 152.263421 
L 585.425414 157.052956 
L 572.291072 165.470835 
z
" style="fill:#08745e;fill-opacity:0.8;"/>
    <path clip-path="url(#pf4534dfad6)" d="M 550.492547 160.189075 
L 572.283306 165.066815 
L 585.419781 156.651353 
L 563.759744 151.863204 
z
" style="fill:#0aa384;fill-opacity:0.8;"/>
    <path clip-path="url(#pf4534dfad6)" d="M 572.291072 165.470835 
L 585.425414 157.052956 
L 585.419781 156.651353 
L 572.283306 165.066815 
z
" style="fill:#065d4c;fill-opacity:0.8;"/>
    <path clip-path="url(#pf4534dfad6)" d="M 550.503705 160.591697 
L 572.291072 165.470835 
L 572.283306 165.066815 
L 550.492547 160.189075 
z
" style="fill:#0cba97;fill-opacity:0.8;"/>
   </g>
   <g id="Poly3DCollection_21">
    <path clip-path="url(#pf4534dfad6)" d="M 676.542313 154.82378 
L 676.55811 154.091281 
L 698.887405 158.905735 
L 698.865104 159.640773 
z
" style="fill:#065d4c;fill-opacity:0.8;"/>
    <path clip-path="url(#pf4534dfad6)" d="M 664.289261 163.199895 
L 664.301668 162.46299 
L 676.55811 154.091281 
L 676.542313 154.82378 
z
" style="fill:#0cba97;fill-opacity:0.8;"/>
    <path clip-path="url(#pf4534dfad6)" d="M 664.289261 163.199895 
L 676.542313 154.82378 
L 698.865104 159.640773 
L 686.754819 168.107265 
z
" style="fill:#08745e;fill-opacity:0.8;"/>
    <path clip-path="url(#pf4534dfad6)" d="M 664.301668 162.46299 
L 686.773814 167.367801 
L 698.887405 158.905735 
L 676.55811 154.091281 
z
" style="fill:#0aa384;fill-opacity:0.8;"/>
    <path clip-path="url(#pf4534dfad6)" d="M 686.754819 168.107265 
L 698.865104 159.640773 
L 698.887405 158.905735 
L 686.773814 167.367801 
z
" style="fill:#065d4c;fill-opacity:0.8;"/>
    <path clip-path="url(#pf4534dfad6)" d="M 664.289261 163.199895 
L 686.754819 168.107265 
L 686.773814 167.367801 
L 664.301668 162.46299 
z
" style="fill:#0cba97;fill-opacity:0.8;"/>
   </g>
   <g id="Poly3DCollection_22">
    <path clip-path="url(#pf4534dfad6)" d="M 607.314639 161.89392 
L 607.31069 161.173471 
L 629.442475 166.064192 
L 629.44017 166.787143 
z
" style="fill:#065d4c;fill-opacity:0.8;"/>
    <path clip-path="url(#pf4534dfad6)" d="M 594.314579 170.402854 
L 594.306891 169.678064 
L 607.31069 161.173471 
L 607.314639 161.89392 
z
" style="fill:#0cba97;fill-opacity:0.8;"/>
    <path clip-path="url(#pf4534dfad6)" d="M 594.314579 170.402854 
L 607.314639 161.89392 
L 629.44017 166.787143 
L 616.578084 175.38862 
z
" style="fill:#08745e;fill-opacity:0.8;"/>
    <path clip-path="url(#pf4534dfad6)" d="M 594.306891 169.678064 
L 616.576728 174.661307 
L 629.442475 166.064192 
L 607.31069 161.173471 
z
" style="fill:#0aa384;fill-opacity:0.8;"/>
    <path clip-path="url(#pf4534dfad6)" d="M 616.578084 175.38862 
L 629.44017 166.787143 
L 629.442475 166.064192 
L 616.576728 174.661307 
z
" style="fill:#065d4c;fill-opacity:0.8;"/>
    <path clip-path="url(#pf4534dfad6)" d="M 594.314579 170.402854 
L 616.578084 175.38862 
L 616.576728 174.661307 
L 594.306891 169.678064 
z
" style="fill:#0cba97;fill-opacity:0.8;"/>
   </g>
   <g id="Poly3DCollection_23">
    <path clip-path="url(#pf4534dfad6)" d="M 721.428278 164.509638 
L 721.428278 164.509638 
L 744.235741 169.431217 
L 744.235741 169.431217 
z
" style="fill:#065d4c;fill-opacity:0.8;"/>
    <path clip-path="url(#pf4534dfad6)" d="M 709.464577 173.067979 
L 709.464577 173.067979 
L 721.428278 164.509638 
L 721.428278 164.509638 
z
" style="fill:#065d4c;fill-opacity:0.8;"/>
    <path clip-path="url(#pf4534dfad6)" d="M 709.464577 173.067979 
L 721.428278 164.509638 
L 744.235741 169.431217 
L 732.422536 178.08291 
z
" style="fill:#08745e;fill-opacity:0.8;"/>
    <path clip-path="url(#pf4534dfad6)" d="M 709.464577 173.067979 
L 732.422536 178.08291 
L 744.235741 169.431217 
L 721.428278 164.509638 
z
" style="fill:#0aa384;fill-opacity:0.8;"/>
    <path clip-path="url(#pf4534dfad6)" d="M 732.422536 178.08291 
L 744.235741 169.431217 
L 744.235741 169.431217 
L 732.422536 178.08291 
z
" style="fill:#065d4c;fill-opacity:0.8;"/>
    <path clip-path="url(#pf4534dfad6)" d="M 709.464577 173.067979 
L 732.422536 178.08291 
L 732.422536 178.08291 
L 709.464577 173.067979 
z
" style="fill:#065d4c;fill-opacity:0.8;"/>
   </g>
   <g id="Poly3DCollection_24">
    <path clip-path="url(#pf4534dfad6)" d="M 536.990024 169.076089 
L 536.998042 169.318228 
L 558.915149 174.290349 
L 558.909184 174.047367 
z
" style="fill:#0cba97;fill-opacity:0.8;"/>
    <path clip-path="url(#pf4534dfad6)" d="M 523.220628 177.721028 
L 523.230043 177.964628 
L 536.998042 169.318228 
L 536.990024 169.076089 
z
" style="fill:#065d4c;fill-opacity:0.8;"/>
    <path clip-path="url(#pf4534dfad6)" d="M 523.230043 177.964628 
L 545.280021 183.031532 
L 558.915149 174.290349 
L 536.998042 169.318228 
z
" style="fill:#0aa384;fill-opacity:0.8;"/>
    <path clip-path="url(#pf4534dfad6)" d="M 523.220628 177.721028 
L 536.990024 169.076089 
L 558.909184 174.047367 
L 545.272683 182.787083 
z
" style="fill:#08745e;fill-opacity:0.8;"/>
    <path clip-path="url(#pf4534dfad6)" d="M 545.272683 182.787083 
L 558.909184 174.047367 
L 558.915149 174.290349 
L 545.280021 183.031532 
z
" style="fill:#0cba97;fill-opacity:0.8;"/>
    <path clip-path="url(#pf4534dfad6)" d="M 523.220628 177.721028 
L 545.272683 182.787083 
L 545.280021 183.031532 
L 523.230043 177.964628 
z
" style="fill:#065d4c;fill-opacity:0.8;"/>
   </g>
   <g id="Poly3DCollection_25">
    <path clip-path="url(#pf4534dfad6)" d="M 651.805854 171.733479 
L 651.805854 171.733479 
L 674.415621 176.733795 
L 674.415621 176.733795 
z
" style="fill:#065d4c;fill-opacity:0.8;"/>
    <path clip-path="url(#pf4534dfad6)" d="M 639.085533 180.429016 
L 639.085533 180.429016 
L 651.805854 171.733479 
L 651.805854 171.733479 
z
" style="fill:#065d4c;fill-opacity:0.8;"/>
    <path clip-path="url(#pf4534dfad6)" d="M 639.085533 180.429016 
L 651.805854 171.733479 
L 674.415621 176.733795 
L 661.840957 185.524944 
z
" style="fill:#08745e;fill-opacity:0.8;"/>
    <path clip-path="url(#pf4534dfad6)" d="M 639.085533 180.429016 
L 661.840957 185.524944 
L 674.415621 176.733795 
L 651.805854 171.733479 
z
" style="fill:#0aa384;fill-opacity:0.8;"/>
    <path clip-path="url(#pf4534dfad6)" d="M 661.840957 185.524944 
L 674.415621 176.733795 
L 674.415621 176.733795 
L 661.840957 185.524944 
z
" style="fill:#065d4c;fill-opacity:0.8;"/>
    <path clip-path="url(#pf4534dfad6)" d="M 639.085533 180.429016 
L 661.840957 185.524944 
L 661.840957 185.524944 
L 639.085533 180.429016 
z
" style="fill:#065d4c;fill-opacity:0.8;"/>
   </g>
   <g id="Poly3DCollection_26">
    <path clip-path="url(#pf4534dfad6)" d="M 581.068162 179.073037 
L 581.068162 179.073037 
L 603.470916 184.153996 
L 603.470916 184.153996 
z
" style="fill:#065d4c;fill-opacity:0.8;"/>
    <path clip-path="url(#pf4534dfad6)" d="M 567.568318 187.909095 
L 567.568318 187.909095 
L 581.068162 179.073037 
L 581.068162 179.073037 
z
" style="fill:#065d4c;fill-opacity:0.8;"/>
    <path clip-path="url(#pf4534dfad6)" d="M 567.568318 187.909095 
L 581.068162 179.073037 
L 603.470916 184.153996 
L 590.111592 193.087999 
z
" style="fill:#08745e;fill-opacity:0.8;"/>
    <path clip-path="url(#pf4534dfad6)" d="M 567.568318 187.909095 
L 590.111592 193.087999 
L 603.470916 184.153996 
L 581.068162 179.073037 
z
" style="fill:#0aa384;fill-opacity:0.8;"/>
    <path clip-path="url(#pf4534dfad6)" d="M 590.111592 193.087999 
L 603.470916 184.153996 
L 603.470916 184.153996 
L 590.111592 193.087999 
z
" style="fill:#065d4c;fill-opacity:0.8;"/>
    <path clip-path="url(#pf4534dfad6)" d="M 567.568318 187.909095 
L 590.111592 193.087999 
L 590.111592 193.087999 
L 567.568318 187.909095 
z
" style="fill:#065d4c;fill-opacity:0.8;"/>
   </g>
   <g id="Poly3DCollection_27">
    <path clip-path="url(#pf4534dfad6)" d="M 697.273491 181.788981 
L 697.251125 182.535063 
L 720.354237 187.648628 
L 720.383568 186.899945 
z
" style="fill:#0cba97;fill-opacity:0.8;"/>
    <path clip-path="url(#pf4534dfad6)" d="M 684.848476 190.677326 
L 684.82959 191.427922 
L 697.251125 182.535063 
L 697.273491 181.788981 
z
" style="fill:#065d4c;fill-opacity:0.8;"/>
    <path clip-path="url(#pf4534dfad6)" d="M 684.82959 191.427922 
L 708.086358 196.640326 
L 720.354237 187.648628 
L 697.251125 182.535063 
z
" style="fill:#0aa384;fill-opacity:0.8;"/>
    <path clip-path="url(#pf4534dfad6)" d="M 684.848476 190.677326 
L 697.273491 181.788981 
L 720.383568 186.899945 
L 708.112304 195.887108 
z
" style="fill:#08745e;fill-opacity:0.8;"/>
    <path clip-path="url(#pf4534dfad6)" d="M 708.112304 195.887108 
L 720.383568 186.899945 
L 720.354237 187.648628 
L 708.086358 196.640326 
z
" style="fill:#0cba97;fill-opacity:0.8;"/>
    <path clip-path="url(#pf4534dfad6)" d="M 684.848476 190.677326 
L 708.112304 195.887108 
L 708.086358 196.640326 
L 684.82959 191.427922 
z
" style="fill:#065d4c;fill-opacity:0.8;"/>
   </g>
   <g id="Poly3DCollection_28">
    <path clip-path="url(#pf4534dfad6)" d="M 509.188189 186.531116 
L 509.188189 186.531116 
L 531.374233 191.694683 
L 531.374233 191.694683 
z
" style="fill:#065d4c;fill-opacity:0.8;"/>
    <path clip-path="url(#pf4534dfad6)" d="M 494.885096 195.511129 
L 494.885096 195.511129 
L 509.188189 186.531116 
L 509.188189 186.531116 
z
" style="fill:#065d4c;fill-opacity:0.8;"/>
    <path clip-path="url(#pf4534dfad6)" d="M 494.885096 195.511129 
L 517.206214 200.775051 
L 531.374233 191.694683 
L 509.188189 186.531116 
z
" style="fill:#0aa384;fill-opacity:0.8;"/>
    <path clip-path="url(#pf4534dfad6)" d="M 494.885096 195.511129 
L 509.188189 186.531116 
L 531.374233 191.694683 
L 517.206214 200.775051 
z
" style="fill:#08745e;fill-opacity:0.8;"/>
    <path clip-path="url(#pf4534dfad6)" d="M 517.206214 200.775051 
L 531.374233 191.694683 
L 531.374233 191.694683 
L 517.206214 200.775051 
z
" style="fill:#065d4c;fill-opacity:0.8;"/>
    <path clip-path="url(#pf4534dfad6)" d="M 494.885096 195.511129 
L 517.206214 200.775051 
L 517.206214 200.775051 
L 494.885096 195.511129 
z
" style="fill:#065d4c;fill-opacity:0.8;"/>
   </g>
   <g id="Poly3DCollection_29">
    <path clip-path="url(#pf4534dfad6)" d="M 626.12149 189.29116 
L 626.120094 190.024999 
L 649.015927 195.22187 
L 649.024021 194.485468 
z
" style="fill:#0cba97;fill-opacity:0.8;"/>
    <path clip-path="url(#pf4534dfad6)" d="M 612.906653 198.324745 
L 612.909119 199.063032 
L 626.120094 190.024999 
L 626.12149 189.29116 
z
" style="fill:#065d4c;fill-opacity:0.8;"/>
    <path clip-path="url(#pf4534dfad6)" d="M 612.909119 199.063032 
L 635.953425 204.36118 
L 649.015927 195.22187 
L 626.120094 190.024999 
z
" style="fill:#0aa384;fill-opacity:0.8;"/>
    <path clip-path="url(#pf4534dfad6)" d="M 612.906653 198.324745 
L 626.12149 189.29116 
L 649.024021 194.485468 
L 635.957744 203.62031 
z
" style="fill:#08745e;fill-opacity:0.8;"/>
    <path clip-path="url(#pf4534dfad6)" d="M 635.957744 203.62031 
L 649.024021 194.485468 
L 649.015927 195.22187 
L 635.953425 204.36118 
z
" style="fill:#0cba97;fill-opacity:0.8;"/>
    <path clip-path="url(#pf4534dfad6)" d="M 612.906653 198.324745 
L 635.957744 203.62031 
L 635.953425 204.36118 
L 612.909119 199.063032 
z
" style="fill:#065d4c;fill-opacity:0.8;"/>
   </g>
   <g id="Poly3DCollection_30">
    <path clip-path="url(#pf4534dfad6)" d="M 553.807705 196.915835 
L 553.801089 196.668998 
L 576.488349 201.947842 
L 576.492766 202.195543 
z
" style="fill:#065d4c;fill-opacity:0.8;"/>
    <path clip-path="url(#pf4534dfad6)" d="M 539.778692 206.098251 
L 539.770624 205.849915 
L 553.801089 196.668998 
L 553.807705 196.915835 
z
" style="fill:#0cba97;fill-opacity:0.8;"/>
    <path clip-path="url(#pf4534dfad6)" d="M 539.778692 206.098251 
L 553.807705 196.915835 
L 576.492766 202.195543 
L 562.606802 211.481735 
z
" style="fill:#08745e;fill-opacity:0.8;"/>
    <path clip-path="url(#pf4534dfad6)" d="M 539.770624 205.849915 
L 562.60096 211.232528 
L 576.488349 201.947842 
L 553.801089 196.668998 
z
" style="fill:#0aa384;fill-opacity:0.8;"/>
    <path clip-path="url(#pf4534dfad6)" d="M 562.606802 211.481735 
L 576.492766 202.195543 
L 576.488349 201.947842 
L 562.60096 211.232528 
z
" style="fill:#065d4c;fill-opacity:0.8;"/>
    <path clip-path="url(#pf4534dfad6)" d="M 539.778692 206.098251 
L 562.606802 211.481735 
L 562.60096 211.232528 
L 539.770624 205.849915 
z
" style="fill:#0cba97;fill-opacity:0.8;"/>
   </g>
   <g id="Poly3DCollection_31">
    <path clip-path="url(#pf4534dfad6)" d="M 672.182735 199.737878 
L 672.198544 198.955932 
L 695.625172 204.264687 
L 695.601954 205.049371 
z
" style="fill:#065d4c;fill-opacity:0.8;"/>
    <path clip-path="url(#pf4534dfad6)" d="M 659.269202 208.975689 
L 659.281113 208.188991 
L 672.198544 198.955932 
L 672.182735 199.737878 
z
" style="fill:#0cba97;fill-opacity:0.8;"/>
    <path clip-path="url(#pf4534dfad6)" d="M 659.269202 208.975689 
L 672.182735 199.737878 
L 695.601954 205.049371 
L 682.845463 214.391902 
z
" style="fill:#08745e;fill-opacity:0.8;"/>
    <path clip-path="url(#pf4534dfad6)" d="M 659.281113 208.188991 
L 682.864884 213.602444 
L 695.625172 204.264687 
L 672.198544 198.955932 
z
" style="fill:#0aa384;fill-opacity:0.8;"/>
    <path clip-path="url(#pf4534dfad6)" d="M 682.845463 214.391902 
L 695.601954 205.049371 
L 695.625172 204.264687 
L 682.864884 213.602444 
z
" style="fill:#065d4c;fill-opacity:0.8;"/>
    <path clip-path="url(#pf4534dfad6)" d="M 659.269202 208.975689 
L 682.845463 214.391902 
L 682.864884 213.602444 
L 659.281113 208.188991 
z
" style="fill:#0cba97;fill-opacity:0.8;"/>
   </g>
   <g id="Poly3DCollection_32">
    <path clip-path="url(#pf4534dfad6)" d="M 599.433673 207.534796 
L 599.437298 207.950382 
L 622.634558 213.35165 
L 622.634778 212.934607 
z
" style="fill:#0cba97;fill-opacity:0.8;"/>
    <path clip-path="url(#pf4534dfad6)" d="M 585.694911 216.926534 
L 585.700871 217.344647 
L 599.437298 207.950382 
L 599.433673 207.534796 
z
" style="fill:#065d4c;fill-opacity:0.8;"/>
    <path clip-path="url(#pf4534dfad6)" d="M 585.700871 217.344647 
L 609.049549 222.853281 
L 622.634558 213.35165 
L 599.437298 207.950382 
z
" style="fill:#0aa384;fill-opacity:0.8;"/>
    <path clip-path="url(#pf4534dfad6)" d="M 585.694911 216.926534 
L 599.433673 207.534796 
L 622.634778 212.934607 
L 609.047485 222.433701 
z
" style="fill:#08745e;fill-opacity:0.8;"/>
    <path clip-path="url(#pf4534dfad6)" d="M 609.047485 222.433701 
L 622.634778 212.934607 
L 622.634558 213.35165 
L 609.049549 222.853281 
z
" style="fill:#0cba97;fill-opacity:0.8;"/>
    <path clip-path="url(#pf4534dfad6)" d="M 585.694911 216.926534 
L 609.047485 222.433701 
L 609.049549 222.853281 
L 585.700871 217.344647 
z
" style="fill:#065d4c;fill-opacity:0.8;"/>
   </g>
   <g id="Poly3DCollection_33">
    <path clip-path="url(#pf4534dfad6)" d="M 646.100534 218.396013 
L 646.115448 216.893356 
L 669.864858 222.412135 
L 669.835495 223.920074 
z
" style="fill:#065d4c;fill-opacity:0.8;"/>
    <path clip-path="url(#pf4534dfad6)" d="M 632.669095 228.004314 
L 632.675995 226.492494 
L 646.115448 216.893356 
L 646.100534 218.396013 
z
" style="fill:#0cba97;fill-opacity:0.8;"/>
    <path clip-path="url(#pf4534dfad6)" d="M 632.669095 228.004314 
L 646.100534 218.396013 
L 669.835495 223.920074 
L 656.564417 233.639475 
z
" style="fill:#08745e;fill-opacity:0.8;"/>
    <path clip-path="url(#pf4534dfad6)" d="M 632.675995 226.492494 
L 656.585963 232.122336 
L 669.864858 222.412135 
L 646.115448 216.893356 
z
" style="fill:#0aa384;fill-opacity:0.8;"/>
    <path clip-path="url(#pf4534dfad6)" d="M 656.564417 233.639475 
L 669.835495 223.920074 
L 669.864858 222.412135 
L 656.585963 232.122336 
z
" style="fill:#065d4c;fill-opacity:0.8;"/>
    <path clip-path="url(#pf4534dfad6)" d="M 632.669095 228.004314 
L 656.564417 233.639475 
L 656.585963 232.122336 
L 632.675995 226.492494 
z
" style="fill:#0cba97;fill-opacity:0.8;"/>
   </g>
   <g id="Poly3DCollection_34">
    <path clip-path="url(#pf4534dfad6)" d="M 482.043524 196.854246 
L 660.305472 239.089328 
L 756.340631 168.165151 
L 586.57957 131.687711 
z
" style="fill-opacity:0.2;"/>
   </g>
  </g>
 </g>
 <defs>
  <clipPath id="pe4ad7c54c6">
   <rect height="277.2" width="380.454545" x="-30.6" y="-14.4"/>
  </clipPath>
  <clipPath id="pf4534dfad6">
   <rect height="277.2" width="380.454545" x="425.945455" y="-14.4"/>
  </clipPath>
 </defs>
</svg>
