<?xml version="1.0" encoding="utf-8" standalone="no"?>
<!DOCTYPE svg PUBLIC "-//W3C//DTD SVG 1.1//EN"
  "http://www.w3.org/Graphics/SVG/1.1/DTD/svg11.dtd">
<!-- Created with matplotlib (https://matplotlib.org/) -->
<svg height="302.4pt" version="1.1" viewBox="0 0 820.8 302.4" width="820.8pt" xmlns="http://www.w3.org/2000/svg" xmlns:xlink="http://www.w3.org/1999/xlink">
 <defs>
  <style type="text/css">
*{stroke-linecap:butt;stroke-linejoin:round;}
  </style>
 </defs>
 <g id="figure_1">
  <g id="patch_1">
   <path d="M 0 302.4 
L 820.8 302.4 
L 820.8 0 
L 0 0 
z
" style="fill:#ffffff;"/>
  </g>
  <g id="patch_2">
   <path d="M -30.6 262.8 
L 349.854545 262.8 
L 349.854545 -14.4 
L -30.6 -14.4 
z
" style="fill:#ffffff;"/>
  </g>
  <g id="pane3d_1">
   <g id="patch_3">
    <path d="M 19.835129 201.548569 
L 128.723211 133.58541 
L 126.910339 3.718968 
L 11.951034 64.782468 
" style="fill:#f2f2f2;opacity:0.5;stroke:#f2f2f2;stroke-linejoin:miter;"/>
   </g>
  </g>
  <g id="pane3d_2">
   <g id="patch_4">
    <path d="M 128.723211 133.58541 
L 305.111665 171.581202 
L 312.491547 37.79869 
L 126.910339 3.718968 
" style="fill:#e6e6e6;opacity:0.5;stroke:#e6e6e6;stroke-linejoin:miter;"/>
   </g>
  </g>
  <g id="pane3d_3">
   <g id="patch_5">
    <path d="M 19.835129 201.548569 
L 205.419617 245.80086 
L 305.111665 171.581202 
L 128.723211 133.58541 
" style="fill:#ececec;opacity:0.5;stroke:#ececec;stroke-linejoin:miter;"/>
   </g>
  </g>
  <g id="axis3d_1">
   <g id="line2d_1">
    <path d="M 19.835129 201.548569 
L 205.419617 245.80086 
" style="fill:none;stroke:#000000;stroke-linecap:square;stroke-width:0.8;"/>
   </g>
   <g id="Line3DCollection_1">
    <path d="M 42.295817 206.90428 
L 150.133942 138.19749 
L 149.393845 7.847789 
" style="fill:none;stroke:#b0b0b0;stroke-width:0.8;"/>
    <path d="M 87.512337 217.686079 
L 193.184014 147.470895 
L 194.636898 16.156123 
" style="fill:none;stroke:#b0b0b0;stroke-width:0.8;"/>
    <path d="M 133.765289 228.715013 
L 237.148096 156.941187 
L 240.890183 24.649974 
" style="fill:none;stroke:#b0b0b0;stroke-width:0.8;"/>
    <path d="M 181.090721 239.999678 
L 282.055608 166.614702 
L 288.187917 33.335625 
" style="fill:none;stroke:#b0b0b0;stroke-width:0.8;"/>
   </g>
   <g id="xtick_1">
    <g id="line2d_2">
     <path d="M 43.225084 206.312217 
L 40.433807 208.09062 
" style="fill:none;stroke:#000000;stroke-linecap:square;stroke-width:0.8;"/>
    </g>
    <g id="text_1">
     <!-- 00 -->
     <defs>
      <path d="M 42 31.84375 
C 42 37.96875 41.90625 48.421875 37.703125 56.453125 
C 34 63.484375 28.09375 66 22.90625 66 
C 18.09375 66 12 63.78125 8.203125 56.5625 
C 4.203125 49.015625 3.796875 39.671875 3.796875 31.84375 
C 3.796875 26.109375 3.90625 17.375 7 9.734375 
C 11.296875 -0.609375 19 -2 22.90625 -2 
C 27.5 -2 34.5 -0.109375 38.59375 9.4375 
C 41.59375 16.375 42 24.5 42 31.84375 
z
M 22.90625 -0.40625 
C 16.5 -0.40625 12.703125 5.125 11.296875 12.75 
C 10.203125 18.6875 10.203125 27.328125 10.203125 32.953125 
C 10.203125 40.6875 10.203125 47.109375 11.5 53.234375 
C 13.40625 61.78125 19 64.390625 22.90625 64.390625 
C 27 64.390625 32.296875 61.671875 34.203125 53.4375 
C 35.5 47.71875 35.59375 40.984375 35.59375 32.953125 
C 35.59375 26.421875 35.59375 18.375 34.40625 12.453125 
C 32.296875 1.5 26.40625 -0.40625 22.90625 -0.40625 
z
" id="CMR17-48"/>
     </defs>
     <g transform="translate(23.330362 237.14703)rotate(-45)scale(0.14 -0.14)">
      <use transform="scale(0.996264)" xlink:href="#CMR17-48"/>
      <use transform="translate(45.690477 0)scale(0.996264)" xlink:href="#CMR17-48"/>
     </g>
    </g>
   </g>
   <g id="xtick_2">
    <g id="line2d_3">
     <path d="M 88.423674 217.080527 
L 85.686217 218.899473 
" style="fill:none;stroke:#000000;stroke-linecap:square;stroke-width:0.8;"/>
    </g>
    <g id="text_2">
     <!-- 01 -->
     <defs>
      <path d="M 26.59375 63.796875 
C 26.59375 65.890625 26.5 66 25.09375 66 
C 21.203125 61.359375 15.296875 59.890625 9.703125 59.6875 
C 9.40625 59.6875 8.90625 59.6875 8.796875 59.5 
C 8.703125 59.296875 8.703125 59.09375 8.703125 57 
C 11.796875 57 17 57.59375 21 59.984375 
L 21 7.296875 
C 21 3.796875 20.796875 2.59375 12.203125 2.59375 
L 9.203125 2.59375 
L 9.203125 0 
C 14 0.09375 19 0.1875 23.796875 0.1875 
C 28.59375 0.1875 33.59375 0.09375 38.40625 0 
L 38.40625 2.59375 
L 35.40625 2.59375 
C 26.796875 2.59375 26.59375 3.6875 26.59375 7.296875 
z
" id="CMR17-49"/>
     </defs>
     <g transform="translate(68.542787 248.103782)rotate(-45)scale(0.14 -0.14)">
      <use transform="scale(0.996264)" xlink:href="#CMR17-48"/>
      <use transform="translate(45.690477 0)scale(0.996264)" xlink:href="#CMR17-49"/>
     </g>
    </g>
   </g>
   <g id="xtick_3">
    <g id="line2d_4">
     <path d="M 134.657625 228.095506 
L 131.977203 229.956397 
" style="fill:none;stroke:#000000;stroke-linecap:square;stroke-width:0.8;"/>
    </g>
    <g id="text_3">
     <!-- 10 -->
     <g transform="translate(114.7934 259.312128)rotate(-45)scale(0.14 -0.14)">
      <use transform="scale(0.996264)" xlink:href="#CMR17-49"/>
      <use transform="translate(45.690477 0)scale(0.996264)" xlink:href="#CMR17-48"/>
     </g>
    </g>
   </g>
   <g id="xtick_4">
    <g id="line2d_5">
     <path d="M 181.962926 239.365727 
L 179.342936 241.270032 
" style="fill:none;stroke:#000000;stroke-linecap:square;stroke-width:0.8;"/>
    </g>
    <g id="text_4">
     <!-- 11 -->
     <g transform="translate(162.118375 270.780834)rotate(-45)scale(0.14 -0.14)">
      <use transform="scale(0.996264)" xlink:href="#CMR17-49"/>
      <use transform="translate(45.690477 0)scale(0.996264)" xlink:href="#CMR17-49"/>
     </g>
    </g>
   </g>
  </g>
  <g id="axis3d_2">
   <g id="line2d_6">
    <path d="M 305.111665 171.581202 
L 205.419617 245.80086 
" style="fill:none;stroke:#000000;stroke-linecap:square;stroke-width:0.8;"/>
   </g>
   <g id="Line3DCollection_2">
    <path d="M 27.455231 56.547028 
L 34.471044 192.413474 
L 218.858418 235.795817 
" style="fill:none;stroke:#b0b0b0;stroke-width:0.8;"/>
    <path d="M 57.232024 40.730342 
L 62.623407 174.842005 
L 244.674037 216.576366 
" style="fill:none;stroke:#b0b0b0;stroke-width:0.8;"/>
    <path d="M 85.85589 25.526062 
L 89.739382 157.917404 
L 269.496985 198.095948 
" style="fill:none;stroke:#b0b0b0;stroke-width:0.8;"/>
    <path d="M 113.392516 10.899296 
L 115.875164 141.604597 
L 293.383438 180.312741 
" style="fill:none;stroke:#b0b0b0;stroke-width:0.8;"/>
   </g>
   <g id="xtick_5">
    <g id="line2d_7">
     <path d="M 217.315598 235.432825 
L 221.947489 236.522608 
" style="fill:none;stroke:#000000;stroke-linecap:square;stroke-width:0.8;"/>
    </g>
    <g id="text_5">
     <!-- 00 -->
     <g transform="translate(232.650369 248.348363)rotate(-337.5)scale(0.14 -0.14)">
      <use transform="scale(0.996264)" xlink:href="#CMR17-48"/>
      <use transform="translate(45.690477 0)scale(0.996264)" xlink:href="#CMR17-48"/>
     </g>
    </g>
   </g>
   <g id="xtick_6">
    <g id="line2d_8">
     <path d="M 243.15208 216.227463 
L 247.72127 217.274932 
" style="fill:none;stroke:#000000;stroke-linecap:square;stroke-width:0.8;"/>
    </g>
    <g id="text_6">
     <!-- 01 -->
     <g transform="translate(258.203921 228.903937)rotate(-337.5)scale(0.14 -0.14)">
      <use transform="scale(0.996264)" xlink:href="#CMR17-48"/>
      <use transform="translate(45.690477 0)scale(0.996264)" xlink:href="#CMR17-49"/>
     </g>
    </g>
   </g>
   <g id="xtick_7">
    <g id="line2d_9">
     <path d="M 267.995442 197.76033 
L 272.503283 198.767901 
" style="fill:none;stroke:#000000;stroke-linecap:square;stroke-width:0.8;"/>
    </g>
    <g id="text_7">
     <!-- 10 -->
     <g transform="translate(282.775332 210.206849)rotate(-337.5)scale(0.14 -0.14)">
      <use transform="scale(0.996264)" xlink:href="#CMR17-49"/>
      <use transform="translate(45.690477 0)scale(0.996264)" xlink:href="#CMR17-48"/>
     </g>
    </g>
   </g>
   <g id="xtick_8">
    <g id="line2d_10">
     <path d="M 291.901865 179.989663 
L 296.349691 180.959573 
" style="fill:none;stroke:#000000;stroke-linecap:square;stroke-width:0.8;"/>
    </g>
    <g id="text_8">
     <!-- 11 -->
     <g transform="translate(306.420159 192.214827)rotate(-337.5)scale(0.14 -0.14)">
      <use transform="scale(0.996264)" xlink:href="#CMR17-49"/>
      <use transform="translate(45.690477 0)scale(0.996264)" xlink:href="#CMR17-49"/>
     </g>
    </g>
   </g>
  </g>
  <g id="axis3d_3">
   <g id="line2d_11">
    <path d="M 305.111665 171.581202 
L 312.491547 37.79869 
" style="fill:none;stroke:#000000;stroke-linecap:square;stroke-width:0.8;"/>
   </g>
   <g id="text_9">
    <!-- Re[$\rho$] -->
    <defs>
     <path d="M 39.203125 33.6875 
C 48.703125 35.59375 56.703125 42.015625 56.703125 50.046875 
C 56.703125 59.46875 46.09375 68 32.09375 68 
L 5.203125 68 
L 5.203125 65.390625 
C 12.09375 65.390625 13.203125 65.390625 13.203125 60.875 
L 13.203125 6.6875 
C 13.203125 2.1875 12.09375 2.1875 5.203125 2.1875 
L 5.203125 -0.40625 
C 8.09375 -0.203125 13.296875 -0.203125 16.40625 -0.203125 
C 19.5 -0.203125 24.703125 -0.203125 27.59375 -0.40625 
L 27.59375 2.1875 
C 20.703125 2.1875 19.59375 2.1875 19.59375 6.6875 
L 19.59375 33 
L 31.296875 33 
C 37 33 40.203125 30.6875 41.59375 29.390625 
C 45.59375 25.5 45.59375 22.796875 45.59375 16 
C 45.59375 9.296875 45.59375 5.890625 48.59375 2.5 
C 52.40625 -1.609375 57.5 -2 59.703125 -2 
C 67.09375 -2 68.203125 6.296875 68.203125 8 
C 68.203125 8.59375 68.203125 9.296875 67.296875 9.296875 
C 66.5 9.296875 66.40625 8.6875 66.40625 8.296875 
C 65.90625 1.796875 63 -0.40625 59.90625 -0.40625 
C 54.40625 -0.40625 53.796875 5.890625 53.203125 12 
C 52.90625 14.09375 52.703125 15.59375 52.5 17.796875 
C 51.90625 22.796875 51.09375 30.09375 39.203125 33.6875 
z
M 31 34.59375 
L 19.59375 34.59375 
L 19.59375 61.484375 
C 19.59375 64.890625 19.796875 65.390625 23.796875 65.390625 
L 31.09375 65.390625 
C 39.40625 65.390625 49.09375 62.484375 49.09375 50.046875 
C 49.09375 37.09375 38.5 34.59375 31 34.59375 
z
" id="CMR17-82"/>
     <path d="M 38.09375 23.484375 
C 38.5 23.890625 38.5 24.09375 38.5 25.09375 
C 38.5 35.171875 33.09375 44 21.703125 44 
C 11.09375 44 2.703125 33.984375 2.703125 21.78125 
C 2.703125 8.65625 12.203125 -1 22.796875 -1 
C 34 -1 38.40625 9.671875 38.40625 11.796875 
C 38.40625 12.5 37.796875 12.5 37.59375 12.5 
C 36.90625 12.5 36.796875 12.296875 36.40625 11.078125 
C 34.203125 4.21875 28.703125 0.796875 23.5 0.796875 
C 19.203125 0.796875 14.90625 3.21875 12.203125 7.65625 
C 9.09375 12.796875 9.09375 18.75 9.09375 23.484375 
z
M 9.203125 25 
C 9.90625 39.234375 17.59375 42.390625 21.59375 42.390625 
C 28.40625 42.390625 33 36.0625 33.09375 25 
z
" id="CMR17-101"/>
     <path d="M 23.5 -25 
L 23.5 -21.5 
L 14.09375 -21.5 
L 14.09375 71.484375 
L 23.5 71.484375 
L 23.5 75 
L 10.59375 75 
L 10.59375 -25 
z
" id="CMR17-91"/>
     <path d="M 3.09375 -16.953125 
C 3 -17.4375 2.796875 -18.03125 2.796875 -18.609375 
C 2.796875 -20.109375 4 -21.109375 5.5 -21.109375 
C 7 -21.109375 8.40625 -20.109375 9 -18.71875 
C 9.40625 -17.828125 12.203125 -6.09375 15.40625 6.078125 
C 17.40625 1.09375 21.09375 -1 25 -1 
C 36.296875 -1 49.09375 12.96875 49.09375 28.03125 
C 49.09375 38.703125 42.59375 44 35.703125 44 
C 26.90625 44 16.203125 34.90625 12.90625 21.640625 
z
M 24.90625 1 
C 18.09375 1 16.40625 8.875 16.40625 10.078125 
C 16.40625 10.671875 18.90625 20.140625 19.203125 21.640625 
C 24.296875 41.5 34.09375 41.984375 35.59375 41.984375 
C 40.09375 41.984375 42.59375 37.90625 42.59375 32.015625 
C 42.59375 26.9375 39.90625 17.046875 38.203125 12.859375 
C 35.203125 5.984375 30 1 24.90625 1 
z
" id="CMMI12-26"/>
     <path d="M 14.296875 75 
L 1.40625 75 
L 1.40625 71.484375 
L 10.796875 71.484375 
L 10.796875 -21.5 
L 1.40625 -21.5 
L 1.40625 -25 
L 14.296875 -25 
z
" id="CMR17-93"/>
    </defs>
    <g transform="translate(352.486567 117.931831)rotate(-86.842577)scale(0.14 -0.14)">
     <use transform="scale(0.996264)" xlink:href="#CMR17-82"/>
     <use transform="translate(67.791102 0)scale(0.996264)" xlink:href="#CMR17-101"/>
     <use transform="translate(108.276762 0)scale(0.996264)" xlink:href="#CMR17-91"/>
     <use transform="translate(133.147821 0)scale(0.996264)" xlink:href="#CMMI12-26"/>
     <use transform="translate(183.462194 0)scale(0.996264)" xlink:href="#CMR17-93"/>
    </g>
   </g>
   <g id="Line3DCollection_3">
    <path d="M 305.287939 168.385707 
L 128.679817 130.476851 
L 19.647128 198.287293 
" style="fill:none;stroke:#b0b0b0;stroke-width:0.8;"/>
    <path d="M 308.023893 118.788325 
L 128.006877 82.270285 
L 16.727171 147.63455 
" style="fill:none;stroke:#b0b0b0;stroke-width:0.8;"/>
    <path d="M 310.868502 67.221241 
L 127.308364 32.231762 
L 13.687299 94.901605 
" style="fill:none;stroke:#b0b0b0;stroke-width:0.8;"/>
   </g>
   <g id="xtick_9">
    <g id="line2d_12">
     <path d="M 303.814381 168.069408 
L 308.238121 169.018962 
" style="fill:none;stroke:#000000;stroke-linecap:square;stroke-width:0.8;"/>
    </g>
    <g id="text_10">
     <!-- $0.0$ -->
     <defs>
      <path d="M 18.40625 4.796875 
C 18.40625 7.6875 16 9.6875 13.59375 9.6875 
C 10.703125 9.6875 8.703125 7.296875 8.703125 4.890625 
C 8.703125 2 11.09375 0 13.5 0 
C 16.40625 0 18.40625 2.390625 18.40625 4.796875 
z
" id="CMMI12-58"/>
     </defs>
     <g transform="translate(315.095081 176.131562)scale(0.14 -0.14)">
      <use transform="scale(0.996264)" xlink:href="#CMR17-48"/>
      <use transform="translate(45.690477 0)scale(0.996264)" xlink:href="#CMMI12-58"/>
      <use transform="translate(72.787654 0)scale(0.996264)" xlink:href="#CMR17-48"/>
     </g>
    </g>
   </g>
   <g id="xtick_10">
    <g id="line2d_13">
     <path d="M 306.520688 118.483387 
L 311.033491 119.398848 
" style="fill:none;stroke:#000000;stroke-linecap:square;stroke-width:0.8;"/>
    </g>
    <g id="text_11">
     <!-- $0.2$ -->
     <defs>
      <path d="M 41.703125 15.46875 
L 39.90625 15.46875 
C 38.90625 8.390625 38.09375 7.1875 37.703125 6.59375 
C 37.203125 5.796875 30 5.796875 28.59375 5.796875 
L 9.40625 5.796875 
C 13 9.6875 20 16.765625 28.5 24.9375 
C 34.59375 30.71875 41.703125 37.5 41.703125 47.390625 
C 41.703125 59.1875 32.296875 66 21.796875 66 
C 10.796875 66 4.09375 56.296875 4.09375 47.296875 
C 4.09375 43.390625 7 42.890625 8.203125 42.890625 
C 9.203125 42.890625 12.203125 43.484375 12.203125 46.984375 
C 12.203125 50.09375 9.59375 51 8.203125 51 
C 7.59375 51 7 50.890625 6.59375 50.6875 
C 8.5 59.1875 14.296875 63.390625 20.40625 63.390625 
C 29.09375 63.390625 34.796875 56.5 34.796875 47.390625 
C 34.796875 38.703125 29.703125 31.21875 24 24.734375 
L 4.09375 2.296875 
L 4.09375 0 
L 39.296875 0 
z
" id="CMR17-50"/>
     </defs>
     <g transform="translate(318.185159 126.603923)scale(0.14 -0.14)">
      <use transform="scale(0.996264)" xlink:href="#CMR17-48"/>
      <use transform="translate(45.690477 0)scale(0.996264)" xlink:href="#CMMI12-58"/>
      <use transform="translate(72.787654 0)scale(0.996264)" xlink:href="#CMR17-50"/>
     </g>
    </g>
   </g>
   <g id="xtick_11">
    <g id="line2d_14">
     <path d="M 309.334435 66.928824 
L 313.939957 67.806709 
" style="fill:none;stroke:#000000;stroke-linecap:square;stroke-width:0.8;"/>
    </g>
    <g id="text_12">
     <!-- $0.4$ -->
     <defs>
      <path d="M 33.59375 64.796875 
C 33.59375 66.890625 33.5 67 31.703125 67 
L 2 19.59375 
L 2 17 
L 27.796875 17 
L 27.796875 7.1875 
C 27.796875 3.59375 27.59375 2.59375 20.59375 2.59375 
L 18.703125 2.59375 
L 18.703125 0 
C 21.90625 0.1875 27.296875 0.1875 30.703125 0.1875 
C 34.09375 0.1875 39.5 0.1875 42.703125 0 
L 42.703125 2.59375 
L 40.796875 2.59375 
C 33.796875 2.59375 33.59375 3.59375 33.59375 7.1875 
L 33.59375 17 
L 43.796875 17 
L 43.796875 19.59375 
L 33.59375 19.59375 
z
M 28.09375 58.171875 
L 28.09375 19.59375 
L 4 19.59375 
z
" id="CMR17-52"/>
     </defs>
     <g transform="translate(321.397685 75.113697)scale(0.14 -0.14)">
      <use transform="scale(0.996264)" xlink:href="#CMR17-48"/>
      <use transform="translate(45.690477 0)scale(0.996264)" xlink:href="#CMMI12-58"/>
      <use transform="translate(72.787654 0)scale(0.996264)" xlink:href="#CMR17-52"/>
     </g>
    </g>
   </g>
  </g>
  <g id="axes_1">
   <g id="Poly3DCollection_1">
    <path clip-path="url(#p7bfac3ae93)" d="M 133.04392 136.839883 
L 133.03992 136.514713 
L 154.434816 141.133863 
L 154.436125 141.460152 
z
" style="fill:#5d0618;fill-opacity:0.8;"/>
    <path clip-path="url(#p7bfac3ae93)" d="M 120.260053 144.873249 
L 120.25439 144.546137 
L 133.03992 136.514713 
L 133.04392 136.839883 
z
" style="fill:#ba0c2f;fill-opacity:0.8;"/>
    <path clip-path="url(#p7bfac3ae93)" d="M 120.260053 144.873249 
L 133.04392 136.839883 
L 154.436125 141.460152 
L 141.780627 149.578341 
z
" style="fill:#74081d;fill-opacity:0.8;"/>
    <path clip-path="url(#p7bfac3ae93)" d="M 120.25439 144.546137 
L 141.777687 149.250101 
L 154.434816 141.133863 
L 133.03992 136.514713 
z
" style="fill:#a30a29;fill-opacity:0.8;"/>
    <path clip-path="url(#p7bfac3ae93)" d="M 141.780627 149.578341 
L 154.436125 141.460152 
L 154.434816 141.133863 
L 141.777687 149.250101 
z
" style="fill:#5d0618;fill-opacity:0.8;"/>
    <path clip-path="url(#p7bfac3ae93)" d="M 120.260053 144.873249 
L 141.780627 149.578341 
L 141.777687 149.250101 
L 120.25439 144.546137 
z
" style="fill:#ba0c2f;fill-opacity:0.8;"/>
   </g>
   <g id="Poly3DCollection_2">
    <path clip-path="url(#p7bfac3ae93)" d="M 176.053767 146.129111 
L 176.056822 145.433536 
L 197.909445 150.149557 
L 197.900429 150.847534 
z
" style="fill:#5d0618;fill-opacity:0.8;"/>
    <path clip-path="url(#p7bfac3ae93)" d="M 163.53008 154.333473 
L 163.529742 153.63373 
L 176.056822 145.433536 
L 176.053767 146.129111 
z
" style="fill:#ba0c2f;fill-opacity:0.8;"/>
    <path clip-path="url(#p7bfac3ae93)" d="M 163.53008 154.333473 
L 176.053767 146.129111 
L 197.900429 150.847534 
L 185.512083 159.139448 
z
" style="fill:#74081d;fill-opacity:0.8;"/>
    <path clip-path="url(#p7bfac3ae93)" d="M 163.529742 153.63373 
L 185.51778 158.437283 
L 197.909445 150.149557 
L 176.056822 145.433536 
z
" style="fill:#a30a29;fill-opacity:0.8;"/>
    <path clip-path="url(#p7bfac3ae93)" d="M 185.512083 159.139448 
L 197.900429 150.847534 
L 197.909445 150.149557 
L 185.51778 158.437283 
z
" style="fill:#5d0618;fill-opacity:0.8;"/>
    <path clip-path="url(#p7bfac3ae93)" d="M 163.53008 154.333473 
L 185.512083 159.139448 
L 185.51778 158.437283 
L 163.529742 153.63373 
z
" style="fill:#ba0c2f;fill-opacity:0.8;"/>
   </g>
   <g id="Poly3DCollection_3">
    <path clip-path="url(#p7bfac3ae93)" d="M 107.24103 153.054386 
L 107.255484 153.698282 
L 128.900155 158.49278 
L 128.891092 157.846658 
z
" style="fill:#ba0c2f;fill-opacity:0.8;"/>
    <path clip-path="url(#p7bfac3ae93)" d="M 93.980302 161.38741 
L 93.998253 162.035168 
L 107.255484 153.698282 
L 107.24103 153.054386 
z
" style="fill:#5d0618;fill-opacity:0.8;"/>
    <path clip-path="url(#p7bfac3ae93)" d="M 93.998253 162.035168 
L 115.773462 166.919311 
L 128.900155 158.49278 
L 107.255484 153.698282 
z
" style="fill:#a30a29;fill-opacity:0.8;"/>
    <path clip-path="url(#p7bfac3ae93)" d="M 93.980302 161.38741 
L 107.24103 153.054386 
L 128.891092 157.846658 
L 115.760967 166.269308 
z
" style="fill:#74081d;fill-opacity:0.8;"/>
    <path clip-path="url(#p7bfac3ae93)" d="M 115.760967 166.269308 
L 128.891092 157.846658 
L 128.900155 158.49278 
L 115.773462 166.919311 
z
" style="fill:#ba0c2f;fill-opacity:0.8;"/>
    <path clip-path="url(#p7bfac3ae93)" d="M 93.980302 161.38741 
L 115.760967 166.269308 
L 115.773462 166.919311 
L 93.998253 162.035168 
z
" style="fill:#5d0618;fill-opacity:0.8;"/>
   </g>
   <g id="Poly3DCollection_4">
    <path clip-path="url(#p7bfac3ae93)" d="M 219.979769 155.61621 
L 219.989276 155.175339 
L 242.308946 159.99355 
L 242.295524 160.435947 
z
" style="fill:#5d0618;fill-opacity:0.8;"/>
    <path clip-path="url(#p7bfac3ae93)" d="M 207.730385 163.997086 
L 207.737852 163.553567 
L 219.989276 155.175339 
L 219.979769 155.61621 
z
" style="fill:#ba0c2f;fill-opacity:0.8;"/>
    <path clip-path="url(#p7bfac3ae93)" d="M 207.730385 163.997086 
L 219.979769 155.61621 
L 242.295524 160.435947 
L 230.188816 168.907223 
z
" style="fill:#74081d;fill-opacity:0.8;"/>
    <path clip-path="url(#p7bfac3ae93)" d="M 207.737852 163.553567 
L 230.200249 168.462166 
L 242.308946 159.99355 
L 219.989276 155.175339 
z
" style="fill:#a30a29;fill-opacity:0.8;"/>
    <path clip-path="url(#p7bfac3ae93)" d="M 230.188816 168.907223 
L 242.295524 160.435947 
L 242.308946 159.99355 
L 230.200249 168.462166 
z
" style="fill:#5d0618;fill-opacity:0.8;"/>
    <path clip-path="url(#p7bfac3ae93)" d="M 207.730385 163.997086 
L 230.188816 168.907223 
L 230.200249 168.462166 
L 207.737852 163.553567 
z
" style="fill:#ba0c2f;fill-opacity:0.8;"/>
   </g>
   <g id="Poly3DCollection_5">
    <path clip-path="url(#p7bfac3ae93)" d="M 150.773551 162.690372 
L 150.774251 162.818077 
L 172.891759 167.714507 
L 172.892168 167.586359 
z
" style="fill:#ba0c2f;fill-opacity:0.8;"/>
    <path clip-path="url(#p7bfac3ae93)" d="M 137.777624 171.204101 
L 137.778986 171.332575 
L 150.774251 162.818077 
L 150.773551 162.690372 
z
" style="fill:#5d0618;fill-opacity:0.8;"/>
    <path clip-path="url(#p7bfac3ae93)" d="M 137.778986 171.332575 
L 160.034369 176.321573 
L 172.891759 167.714507 
L 150.774251 162.818077 
z
" style="fill:#a30a29;fill-opacity:0.8;"/>
    <path clip-path="url(#p7bfac3ae93)" d="M 137.777624 171.204101 
L 150.773551 162.690372 
L 172.892168 167.586359 
L 160.034129 176.192653 
z
" style="fill:#74081d;fill-opacity:0.8;"/>
    <path clip-path="url(#p7bfac3ae93)" d="M 160.034129 176.192653 
L 172.892168 167.586359 
L 172.891759 167.714507 
L 160.034369 176.321573 
z
" style="fill:#ba0c2f;fill-opacity:0.8;"/>
    <path clip-path="url(#p7bfac3ae93)" d="M 137.777624 171.204101 
L 160.034129 176.192653 
L 160.034369 176.321573 
L 137.778986 171.332575 
z
" style="fill:#5d0618;fill-opacity:0.8;"/>
   </g>
   <g id="Poly3DCollection_6">
    <path clip-path="url(#p7bfac3ae93)" d="M 80.471075 169.876591 
L 80.477612 170.073992 
L 102.388315 175.048739 
L 102.383452 174.850653 
z
" style="fill:#ba0c2f;fill-opacity:0.8;"/>
    <path clip-path="url(#p7bfac3ae93)" d="M 66.706299 178.526359 
L 66.713975 178.72495 
L 80.477612 170.073992 
L 80.471075 169.876591 
z
" style="fill:#5d0618;fill-opacity:0.8;"/>
    <path clip-path="url(#p7bfac3ae93)" d="M 66.713975 178.72495 
L 88.757472 183.794501 
L 102.388315 175.048739 
L 80.477612 170.073992 
z
" style="fill:#a30a29;fill-opacity:0.8;"/>
    <path clip-path="url(#p7bfac3ae93)" d="M 66.706299 178.526359 
L 80.471075 169.876591 
L 102.383452 174.850653 
L 88.751489 183.595219 
z
" style="fill:#74081d;fill-opacity:0.8;"/>
    <path clip-path="url(#p7bfac3ae93)" d="M 88.751489 183.595219 
L 102.383452 174.850653 
L 102.388315 175.048739 
L 88.757472 183.794501 
z
" style="fill:#ba0c2f;fill-opacity:0.8;"/>
    <path clip-path="url(#p7bfac3ae93)" d="M 66.706299 178.526359 
L 88.751489 183.595219 
L 88.757472 183.794501 
L 66.713975 178.72495 
z
" style="fill:#5d0618;fill-opacity:0.8;"/>
   </g>
   <g id="Poly3DCollection_7">
    <path clip-path="url(#p7bfac3ae93)" d="M 195.250787 172.535471 
L 195.252527 172.390236 
L 217.856383 177.392838 
L 217.853335 177.538577 
z
" style="fill:#5d0618;fill-opacity:0.8;"/>
    <path clip-path="url(#p7bfac3ae93)" d="M 182.534423 181.235848 
L 182.535447 181.089738 
L 195.252527 172.390236 
L 195.250787 172.535471 
z
" style="fill:#ba0c2f;fill-opacity:0.8;"/>
    <path clip-path="url(#p7bfac3ae93)" d="M 182.534423 181.235848 
L 195.250787 172.535471 
L 217.853335 177.538577 
L 205.282534 186.334589 
z
" style="fill:#74081d;fill-opacity:0.8;"/>
    <path clip-path="url(#p7bfac3ae93)" d="M 182.535447 181.089738 
L 205.284882 186.187969 
L 217.856383 177.392838 
L 195.252527 172.390236 
z
" style="fill:#a30a29;fill-opacity:0.8;"/>
    <path clip-path="url(#p7bfac3ae93)" d="M 205.282534 186.334589 
L 217.853335 177.538577 
L 217.856383 177.392838 
L 205.284882 186.187969 
z
" style="fill:#5d0618;fill-opacity:0.8;"/>
    <path clip-path="url(#p7bfac3ae93)" d="M 182.534423 181.235848 
L 205.282534 186.334589 
L 205.284882 186.187969 
L 182.535447 181.089738 
z
" style="fill:#ba0c2f;fill-opacity:0.8;"/>
   </g>
   <g id="Poly3DCollection_8">
    <path clip-path="url(#p7bfac3ae93)" d="M 124.535496 179.879118 
L 124.533234 179.736503 
L 146.930154 184.819774 
L 146.931162 184.962886 
z
" style="fill:#5d0618;fill-opacity:0.8;"/>
    <path clip-path="url(#p7bfac3ae93)" d="M 111.040106 188.72005 
L 111.037055 188.576573 
L 124.533234 179.736503 
L 124.535496 179.879118 
z
" style="fill:#ba0c2f;fill-opacity:0.8;"/>
    <path clip-path="url(#p7bfac3ae93)" d="M 111.040106 188.72005 
L 124.535496 179.879118 
L 146.931162 184.962886 
L 133.576203 193.901785 
z
" style="fill:#74081d;fill-opacity:0.8;"/>
    <path clip-path="url(#p7bfac3ae93)" d="M 111.037055 188.576573 
L 133.574422 193.757807 
L 146.930154 184.819774 
L 124.533234 179.736503 
z
" style="fill:#a30a29;fill-opacity:0.8;"/>
    <path clip-path="url(#p7bfac3ae93)" d="M 133.576203 193.901785 
L 146.931162 184.962886 
L 146.930154 184.819774 
L 133.574422 193.757807 
z
" style="fill:#5d0618;fill-opacity:0.8;"/>
    <path clip-path="url(#p7bfac3ae93)" d="M 111.040106 188.72005 
L 133.576203 193.901785 
L 133.574422 193.757807 
L 111.037055 188.576573 
z
" style="fill:#ba0c2f;fill-opacity:0.8;"/>
   </g>
   <g id="Poly3DCollection_9">
    <path clip-path="url(#p7bfac3ae93)" d="M 240.703827 182.596566 
L 240.717296 182.147266 
L 263.824028 187.259479 
L 263.806365 187.710346 
z
" style="fill:#5d0618;fill-opacity:0.8;"/>
    <path clip-path="url(#p7bfac3ae93)" d="M 228.282578 191.489797 
L 228.293952 191.037779 
L 240.717296 182.147266 
L 240.703827 182.596566 
z
" style="fill:#ba0c2f;fill-opacity:0.8;"/>
    <path clip-path="url(#p7bfac3ae93)" d="M 228.282578 191.489797 
L 240.703827 182.596566 
L 263.806365 187.710346 
L 251.538765 196.702417 
z
" style="fill:#74081d;fill-opacity:0.8;"/>
    <path clip-path="url(#p7bfac3ae93)" d="M 228.293952 191.037779 
L 251.55439 196.248821 
L 263.824028 187.259479 
L 240.717296 182.147266 
z
" style="fill:#a30a29;fill-opacity:0.8;"/>
    <path clip-path="url(#p7bfac3ae93)" d="M 251.538765 196.702417 
L 263.806365 187.710346 
L 263.824028 187.259479 
L 251.55439 196.248821 
z
" style="fill:#5d0618;fill-opacity:0.8;"/>
    <path clip-path="url(#p7bfac3ae93)" d="M 228.282578 191.489797 
L 251.538765 196.702417 
L 251.55439 196.248821 
L 228.293952 191.037779 
z
" style="fill:#ba0c2f;fill-opacity:0.8;"/>
   </g>
   <g id="Poly3DCollection_10">
    <path clip-path="url(#p7bfac3ae93)" d="M 169.574491 190.102872 
L 169.574244 190.233022 
L 192.468178 195.43062 
L 192.469614 195.300015 
z
" style="fill:#ba0c2f;fill-opacity:0.8;"/>
    <path clip-path="url(#p7bfac3ae93)" d="M 156.363926 199.141376 
L 156.364363 199.272315 
L 169.574244 190.233022 
L 169.574491 190.102872 
z
" style="fill:#5d0618;fill-opacity:0.8;"/>
    <path clip-path="url(#p7bfac3ae93)" d="M 156.364363 199.272315 
L 179.406746 204.571194 
L 192.468178 195.43062 
L 169.574244 190.233022 
z
" style="fill:#a30a29;fill-opacity:0.8;"/>
    <path clip-path="url(#p7bfac3ae93)" d="M 156.363926 199.141376 
L 169.574491 190.102872 
L 192.469614 195.300015 
L 179.407512 204.439798 
z
" style="fill:#74081d;fill-opacity:0.8;"/>
    <path clip-path="url(#p7bfac3ae93)" d="M 179.407512 204.439798 
L 192.469614 195.300015 
L 192.468178 195.43062 
L 179.406746 204.571194 
z
" style="fill:#ba0c2f;fill-opacity:0.8;"/>
    <path clip-path="url(#p7bfac3ae93)" d="M 156.363926 199.141376 
L 179.407512 204.439798 
L 179.406746 204.571194 
L 156.364363 199.272315 
z
" style="fill:#5d0618;fill-opacity:0.8;"/>
   </g>
   <g id="Poly3DCollection_11">
    <path clip-path="url(#p7bfac3ae93)" d="M 97.284116 197.731703 
L 97.289508 197.93289 
L 119.965511 203.216155 
L 119.961911 203.014264 
z
" style="fill:#ba0c2f;fill-opacity:0.8;"/>
    <path clip-path="url(#p7bfac3ae93)" d="M 83.259905 206.919069 
L 83.266481 207.121476 
L 97.289508 197.93289 
L 97.284116 197.731703 
z
" style="fill:#5d0618;fill-opacity:0.8;"/>
    <path clip-path="url(#p7bfac3ae93)" d="M 83.266481 207.121476 
L 106.085419 212.508544 
L 119.965511 203.216155 
L 97.289508 197.93289 
z
" style="fill:#a30a29;fill-opacity:0.8;"/>
    <path clip-path="url(#p7bfac3ae93)" d="M 83.259905 206.919069 
L 97.284116 197.731703 
L 119.961911 203.014264 
L 106.080658 212.305428 
z
" style="fill:#74081d;fill-opacity:0.8;"/>
    <path clip-path="url(#p7bfac3ae93)" d="M 106.080658 212.305428 
L 119.961911 203.014264 
L 119.965511 203.216155 
L 106.085419 212.508544 
z
" style="fill:#ba0c2f;fill-opacity:0.8;"/>
    <path clip-path="url(#p7bfac3ae93)" d="M 83.259905 206.919069 
L 106.080658 212.305428 
L 106.085419 212.508544 
L 83.266481 207.121476 
z
" style="fill:#5d0618;fill-opacity:0.8;"/>
   </g>
   <g id="Poly3DCollection_12">
    <path clip-path="url(#p7bfac3ae93)" d="M 215.620754 200.555273 
L 215.635361 199.832818 
L 239.053681 205.144644 
L 239.032229 205.869627 
z
" style="fill:#5d0618;fill-opacity:0.8;"/>
    <path clip-path="url(#p7bfac3ae93)" d="M 202.711296 209.798047 
L 202.722301 209.071206 
L 215.635361 199.832818 
L 215.620754 200.555273 
z
" style="fill:#ba0c2f;fill-opacity:0.8;"/>
    <path clip-path="url(#p7bfac3ae93)" d="M 202.711296 209.798047 
L 215.620754 200.555273 
L 239.032229 205.869627 
L 226.279708 215.217142 
z
" style="fill:#74081d;fill-opacity:0.8;"/>
    <path clip-path="url(#p7bfac3ae93)" d="M 202.722301 209.071206 
L 226.297651 214.487754 
L 239.053681 205.144644 
L 215.635361 199.832818 
z
" style="fill:#a30a29;fill-opacity:0.8;"/>
    <path clip-path="url(#p7bfac3ae93)" d="M 226.279708 215.217142 
L 239.032229 205.869627 
L 239.053681 205.144644 
L 226.297651 214.487754 
z
" style="fill:#5d0618;fill-opacity:0.8;"/>
    <path clip-path="url(#p7bfac3ae93)" d="M 202.711296 209.798047 
L 226.279708 215.217142 
L 226.297651 214.487754 
L 202.722301 209.071206 
z
" style="fill:#ba0c2f;fill-opacity:0.8;"/>
   </g>
   <g id="Poly3DCollection_13">
    <path clip-path="url(#p7bfac3ae93)" d="M 142.895385 208.356383 
L 142.90122 209.025184 
L 166.088534 214.430216 
L 166.088888 213.759074 
z
" style="fill:#ba0c2f;fill-opacity:0.8;"/>
    <path clip-path="url(#p7bfac3ae93)" d="M 129.161239 217.753115 
L 129.17083 218.425978 
L 142.90122 209.025184 
L 142.895385 208.356383 
z
" style="fill:#5d0618;fill-opacity:0.8;"/>
    <path clip-path="url(#p7bfac3ae93)" d="M 129.17083 218.425978 
L 152.509433 223.938404 
L 166.088534 214.430216 
L 142.90122 209.025184 
z
" style="fill:#a30a29;fill-opacity:0.8;"/>
    <path clip-path="url(#p7bfac3ae93)" d="M 129.161239 217.753115 
L 142.895385 208.356383 
L 166.088888 213.759074 
L 152.506111 223.263183 
z
" style="fill:#74081d;fill-opacity:0.8;"/>
    <path clip-path="url(#p7bfac3ae93)" d="M 152.506111 223.263183 
L 166.088888 213.759074 
L 166.088534 214.430216 
L 152.509433 223.938404 
z
" style="fill:#ba0c2f;fill-opacity:0.8;"/>
    <path clip-path="url(#p7bfac3ae93)" d="M 129.161239 217.753115 
L 152.506111 223.263183 
L 152.509433 223.938404 
L 129.17083 218.425978 
z
" style="fill:#5d0618;fill-opacity:0.8;"/>
   </g>
   <g id="Poly3DCollection_14">
    <path clip-path="url(#p7bfac3ae93)" d="M 252.891292 173.870717 
L 264.851512 165.307569 
L 287.651633 170.231919 
L 275.841812 178.888441 
z
" style="fill:#74081d;fill-opacity:0.8;"/>
    <path clip-path="url(#p7bfac3ae93)" d="M 264.851512 165.307569 
L 269.837607 38.246901 
L 293.808412 42.695907 
L 287.651633 170.231919 
z
" style="fill:#5d0618;fill-opacity:0.8;"/>
    <path clip-path="url(#p7bfac3ae93)" d="M 252.891292 173.870717 
L 257.324928 45.984996 
L 269.837607 38.246901 
L 264.851512 165.307569 
z
" style="fill:#ba0c2f;fill-opacity:0.8;"/>
    <path clip-path="url(#p7bfac3ae93)" d="M 275.841812 178.888441 
L 287.651633 170.231919 
L 293.808412 42.695907 
L 281.462208 50.522641 
z
" style="fill:#5d0618;fill-opacity:0.8;"/>
    <path clip-path="url(#p7bfac3ae93)" d="M 252.891292 173.870717 
L 275.841812 178.888441 
L 281.462208 50.522641 
L 257.324928 45.984996 
z
" style="fill:#ba0c2f;fill-opacity:0.8;"/>
    <path clip-path="url(#p7bfac3ae93)" d="M 257.324928 45.984996 
L 281.462208 50.522641 
L 293.808412 42.695907 
L 269.837607 38.246901 
z
" style="fill:#a30a29;fill-opacity:0.8;"/>
   </g>
   <g id="Poly3DCollection_15">
    <path clip-path="url(#p7bfac3ae93)" d="M 189.546868 219.223371 
L 189.550284 218.879165 
L 213.280599 224.404922 
L 213.273873 224.750335 
z
" style="fill:#5d0618;fill-opacity:0.8;"/>
    <path clip-path="url(#p7bfac3ae93)" d="M 176.119841 228.836708 
L 176.121422 228.490407 
L 189.550284 218.879165 
L 189.546868 219.223371 
z
" style="fill:#ba0c2f;fill-opacity:0.8;"/>
    <path clip-path="url(#p7bfac3ae93)" d="M 176.119841 228.836708 
L 189.546868 219.223371 
L 213.273873 224.750335 
L 200.007099 234.474794 
z
" style="fill:#74081d;fill-opacity:0.8;"/>
    <path clip-path="url(#p7bfac3ae93)" d="M 176.121422 228.490407 
L 200.012035 234.127277 
L 213.280599 224.404922 
L 189.550284 218.879165 
z
" style="fill:#a30a29;fill-opacity:0.8;"/>
    <path clip-path="url(#p7bfac3ae93)" d="M 200.007099 234.474794 
L 213.273873 224.750335 
L 213.280599 224.404922 
L 200.012035 234.127277 
z
" style="fill:#5d0618;fill-opacity:0.8;"/>
    <path clip-path="url(#p7bfac3ae93)" d="M 176.119841 228.836708 
L 200.007099 234.474794 
L 200.012035 234.127277 
L 176.121422 228.490407 
z
" style="fill:#ba0c2f;fill-opacity:0.8;"/>
   </g>
   <g id="Poly3DCollection_16">
    <path clip-path="url(#p7bfac3ae93)" d="M 25.543178 197.67008 
L 203.746822 239.927455 
L 299.752775 168.965141 
L 130.044587 132.466739 
z
" style="fill-opacity:0.15;"/>
   </g>
   <g id="Poly3DCollection_17">
    <path clip-path="url(#p7bfac3ae93)" d="M 38.380532 196.326234 
L 52.678652 187.341314 
L 74.857749 192.507709 
L 60.694619 201.593006 
z
" style="fill:#74081d;fill-opacity:0.8;"/>
    <path clip-path="url(#p7bfac3ae93)" d="M 52.678652 187.341314 
L 46.933544 57.750519 
L 70.222556 62.427839 
L 74.857749 192.507709 
z
" style="fill:#5d0618;fill-opacity:0.8;"/>
    <path clip-path="url(#p7bfac3ae93)" d="M 38.380532 196.326234 
L 31.836896 65.886594 
L 46.933544 57.750519 
L 52.678652 187.341314 
z
" style="fill:#ba0c2f;fill-opacity:0.8;"/>
    <path clip-path="url(#p7bfac3ae93)" d="M 60.694619 201.593006 
L 74.857749 192.507709 
L 70.222556 62.427839 
L 55.274545 70.659531 
z
" style="fill:#5d0618;fill-opacity:0.8;"/>
    <path clip-path="url(#p7bfac3ae93)" d="M 38.380532 196.326234 
L 60.694619 201.593006 
L 55.274545 70.659531 
L 31.836896 65.886594 
z
" style="fill:#ba0c2f;fill-opacity:0.8;"/>
    <path clip-path="url(#p7bfac3ae93)" d="M 31.836896 65.886594 
L 55.274545 70.659531 
L 70.222556 62.427839 
L 46.933544 57.750519 
z
" style="fill:#a30a29;fill-opacity:0.8;"/>
   </g>
  </g>
  <g id="patch_6">
   <path d="M 425.945455 262.8 
L 806.4 262.8 
L 806.4 -14.4 
L 425.945455 -14.4 
z
" style="fill:#ffffff;"/>
  </g>
  <g id="pane3d_4">
   <g id="patch_7">
    <path d="M 476.380584 201.548569 
L 585.268665 133.58541 
L 583.455794 3.718968 
L 468.496488 64.782468 
" style="fill:#f2f2f2;opacity:0.5;stroke:#f2f2f2;stroke-linejoin:miter;"/>
   </g>
  </g>
  <g id="pane3d_5">
   <g id="patch_8">
    <path d="M 585.268665 133.58541 
L 761.65712 171.581202 
L 769.037001 37.79869 
L 583.455794 3.718968 
" style="fill:#e6e6e6;opacity:0.5;stroke:#e6e6e6;stroke-linejoin:miter;"/>
   </g>
  </g>
  <g id="pane3d_6">
   <g id="patch_9">
    <path d="M 476.380584 201.548569 
L 661.965072 245.80086 
L 761.65712 171.581202 
L 585.268665 133.58541 
" style="fill:#ececec;opacity:0.5;stroke:#ececec;stroke-linejoin:miter;"/>
   </g>
  </g>
  <g id="axis3d_4">
   <g id="line2d_15">
    <path d="M 476.380584 201.548569 
L 661.965072 245.80086 
" style="fill:none;stroke:#000000;stroke-linecap:square;stroke-width:0.8;"/>
   </g>
   <g id="Line3DCollection_4">
    <path d="M 498.841271 206.90428 
L 606.679397 138.19749 
L 605.9393 7.847789 
" style="fill:none;stroke:#b0b0b0;stroke-width:0.8;"/>
    <path d="M 544.057792 217.686079 
L 649.729469 147.470895 
L 651.182353 16.156123 
" style="fill:none;stroke:#b0b0b0;stroke-width:0.8;"/>
    <path d="M 590.310744 228.715013 
L 693.693551 156.941187 
L 697.435637 24.649974 
" style="fill:none;stroke:#b0b0b0;stroke-width:0.8;"/>
    <path d="M 637.636176 239.999678 
L 738.601063 166.614702 
L 744.733372 33.335625 
" style="fill:none;stroke:#b0b0b0;stroke-width:0.8;"/>
   </g>
   <g id="xtick_12">
    <g id="line2d_16">
     <path d="M 499.770538 206.312217 
L 496.979262 208.09062 
" style="fill:none;stroke:#000000;stroke-linecap:square;stroke-width:0.8;"/>
    </g>
    <g id="text_13">
     <!-- 00 -->
     <g transform="translate(479.875817 237.14703)rotate(-45)scale(0.14 -0.14)">
      <use transform="scale(0.996264)" xlink:href="#CMR17-48"/>
      <use transform="translate(45.690477 0)scale(0.996264)" xlink:href="#CMR17-48"/>
     </g>
    </g>
   </g>
   <g id="xtick_13">
    <g id="line2d_17">
     <path d="M 544.969128 217.080527 
L 542.231671 218.899473 
" style="fill:none;stroke:#000000;stroke-linecap:square;stroke-width:0.8;"/>
    </g>
    <g id="text_14">
     <!-- 01 -->
     <g transform="translate(525.088242 248.103782)rotate(-45)scale(0.14 -0.14)">
      <use transform="scale(0.996264)" xlink:href="#CMR17-48"/>
      <use transform="translate(45.690477 0)scale(0.996264)" xlink:href="#CMR17-49"/>
     </g>
    </g>
   </g>
   <g id="xtick_14">
    <g id="line2d_18">
     <path d="M 591.20308 228.095506 
L 588.522658 229.956397 
" style="fill:none;stroke:#000000;stroke-linecap:square;stroke-width:0.8;"/>
    </g>
    <g id="text_15">
     <!-- 10 -->
     <g transform="translate(571.338855 259.312128)rotate(-45)scale(0.14 -0.14)">
      <use transform="scale(0.996264)" xlink:href="#CMR17-49"/>
      <use transform="translate(45.690477 0)scale(0.996264)" xlink:href="#CMR17-48"/>
     </g>
    </g>
   </g>
   <g id="xtick_15">
    <g id="line2d_19">
     <path d="M 638.50838 239.365727 
L 635.888391 241.270032 
" style="fill:none;stroke:#000000;stroke-linecap:square;stroke-width:0.8;"/>
    </g>
    <g id="text_16">
     <!-- 11 -->
     <g transform="translate(618.66383 270.780834)rotate(-45)scale(0.14 -0.14)">
      <use transform="scale(0.996264)" xlink:href="#CMR17-49"/>
      <use transform="translate(45.690477 0)scale(0.996264)" xlink:href="#CMR17-49"/>
     </g>
    </g>
   </g>
  </g>
  <g id="axis3d_5">
   <g id="line2d_20">
    <path d="M 761.65712 171.581202 
L 661.965072 245.80086 
" style="fill:none;stroke:#000000;stroke-linecap:square;stroke-width:0.8;"/>
   </g>
   <g id="Line3DCollection_5">
    <path d="M 484.000685 56.547028 
L 491.016499 192.413474 
L 675.403872 235.795817 
" style="fill:none;stroke:#b0b0b0;stroke-width:0.8;"/>
    <path d="M 513.777478 40.730342 
L 519.168861 174.842005 
L 701.219492 216.576366 
" style="fill:none;stroke:#b0b0b0;stroke-width:0.8;"/>
    <path d="M 542.401344 25.526062 
L 546.284836 157.917404 
L 726.04244 198.095948 
" style="fill:none;stroke:#b0b0b0;stroke-width:0.8;"/>
    <path d="M 569.937971 10.899296 
L 572.420618 141.604597 
L 749.928893 180.312741 
" style="fill:none;stroke:#b0b0b0;stroke-width:0.8;"/>
   </g>
   <g id="xtick_16">
    <g id="line2d_21">
     <path d="M 673.861052 235.432825 
L 678.492943 236.522608 
" style="fill:none;stroke:#000000;stroke-linecap:square;stroke-width:0.8;"/>
    </g>
    <g id="text_17">
     <!-- 00 -->
     <g transform="translate(689.195824 248.348363)rotate(-337.5)scale(0.14 -0.14)">
      <use transform="scale(0.996264)" xlink:href="#CMR17-48"/>
      <use transform="translate(45.690477 0)scale(0.996264)" xlink:href="#CMR17-48"/>
     </g>
    </g>
   </g>
   <g id="xtick_17">
    <g id="line2d_22">
     <path d="M 699.697534 216.227463 
L 704.266725 217.274932 
" style="fill:none;stroke:#000000;stroke-linecap:square;stroke-width:0.8;"/>
    </g>
    <g id="text_18">
     <!-- 01 -->
     <g transform="translate(714.749375 228.903937)rotate(-337.5)scale(0.14 -0.14)">
      <use transform="scale(0.996264)" xlink:href="#CMR17-48"/>
      <use transform="translate(45.690477 0)scale(0.996264)" xlink:href="#CMR17-49"/>
     </g>
    </g>
   </g>
   <g id="xtick_18">
    <g id="line2d_23">
     <path d="M 724.540896 197.76033 
L 729.048738 198.767901 
" style="fill:none;stroke:#000000;stroke-linecap:square;stroke-width:0.8;"/>
    </g>
    <g id="text_19">
     <!-- 10 -->
     <g transform="translate(739.320787 210.206849)rotate(-337.5)scale(0.14 -0.14)">
      <use transform="scale(0.996264)" xlink:href="#CMR17-49"/>
      <use transform="translate(45.690477 0)scale(0.996264)" xlink:href="#CMR17-48"/>
     </g>
    </g>
   </g>
   <g id="xtick_19">
    <g id="line2d_24">
     <path d="M 748.44732 179.989663 
L 752.895146 180.959573 
" style="fill:none;stroke:#000000;stroke-linecap:square;stroke-width:0.8;"/>
    </g>
    <g id="text_20">
     <!-- 11 -->
     <g transform="translate(762.965613 192.214827)rotate(-337.5)scale(0.14 -0.14)">
      <use transform="scale(0.996264)" xlink:href="#CMR17-49"/>
      <use transform="translate(45.690477 0)scale(0.996264)" xlink:href="#CMR17-49"/>
     </g>
    </g>
   </g>
  </g>
  <g id="axis3d_6">
   <g id="line2d_25">
    <path d="M 761.65712 171.581202 
L 769.037001 37.79869 
" style="fill:none;stroke:#000000;stroke-linecap:square;stroke-width:0.8;"/>
   </g>
   <g id="text_21">
    <!-- Im[$\rho$] -->
    <defs>
     <path d="M 19.703125 60.90625 
C 19.703125 65.390625 20.90625 65.390625 28.09375 65.390625 
L 28.09375 68 
C 24.90625 67.796875 19.796875 67.796875 16.40625 67.796875 
C 13 67.796875 7.90625 67.796875 4.703125 68 
L 4.703125 65.390625 
C 11.90625 65.390625 13.09375 65.390625 13.09375 60.90625 
L 13.09375 7.078125 
C 13.09375 2.59375 11.90625 2.59375 4.703125 2.59375 
L 4.703125 0 
C 7.90625 0.1875 13 0.1875 16.40625 0.1875 
C 19.796875 0.1875 24.90625 0.1875 28.09375 0 
L 28.09375 2.59375 
C 20.90625 2.59375 19.703125 2.59375 19.703125 7.078125 
z
" id="CMR17-73"/>
     <path d="M 67.59375 30.53125 
C 67.59375 35.5625 66.703125 44 54.796875 44 
C 48 44 43.296875 39.375 41.5 33.953125 
L 41.40625 33.953125 
C 40.203125 42.1875 34.296875 44 28.703125 44 
C 20.796875 44 16.703125 37.875 15.203125 33.84375 
L 15.09375 33.84375 
L 15.09375 44 
L 3.296875 42.890625 
L 3.296875 40.28125 
C 9.203125 40.28125 10.09375 39.6875 10.09375 34.859375 
L 10.09375 6.921875 
C 10.09375 3.09375 9.703125 2.59375 3.296875 2.59375 
L 3.296875 0 
C 5.703125 0.1875 10.09375 0.1875 12.703125 0.1875 
C 15.296875 0.1875 19.796875 0.1875 22.203125 0 
L 22.203125 2.59375 
C 15.796875 2.59375 15.40625 3 15.40625 6.921875 
L 15.40625 26.21875 
C 15.40625 35.453125 21 42.390625 28 42.390625 
C 35.40625 42.390625 36.203125 35.765625 36.203125 30.9375 
L 36.203125 6.921875 
C 36.203125 3.09375 35.796875 2.59375 29.40625 2.59375 
L 29.40625 0 
C 31.796875 0.1875 36.203125 0.1875 38.796875 0.1875 
C 41.40625 0.1875 45.90625 0.1875 48.296875 0 
L 48.296875 2.59375 
C 41.90625 2.59375 41.5 3 41.5 6.921875 
L 41.5 26.21875 
C 41.5 35.453125 47.09375 42.390625 54.09375 42.390625 
C 61.5 42.390625 62.296875 35.765625 62.296875 30.9375 
L 62.296875 6.921875 
C 62.296875 3.09375 61.90625 2.59375 55.5 2.59375 
L 55.5 0 
C 57.90625 0.1875 62.296875 0.1875 64.90625 0.1875 
C 67.5 0.1875 72 0.1875 74.40625 0 
L 74.40625 2.59375 
C 68 2.59375 67.59375 3 67.59375 6.921875 
z
" id="CMR17-109"/>
    </defs>
    <g transform="translate(809.026865 118.025317)rotate(-86.842577)scale(0.14 -0.14)">
     <use transform="scale(0.996264)" xlink:href="#CMR17-73"/>
     <use transform="translate(32.638409 0)scale(0.996264)" xlink:href="#CMR17-109"/>
     <use transform="translate(109.557999 0)scale(0.996264)" xlink:href="#CMR17-91"/>
     <use transform="translate(134.429058 0)scale(0.996264)" xlink:href="#CMMI12-26"/>
     <use transform="translate(184.74343 0)scale(0.996264)" xlink:href="#CMR17-93"/>
    </g>
   </g>
   <g id="Line3DCollection_6">
    <path d="M 761.839476 168.275449 
L 585.223774 130.369599 
L 476.186095 198.174761 
" style="fill:none;stroke:#b0b0b0;stroke-width:0.8;"/>
    <path d="M 764.573141 118.719553 
L 584.551399 82.203496 
L 473.268574 147.56427 
" style="fill:none;stroke:#b0b0b0;stroke-width:0.8;"/>
    <path d="M 767.415274 67.197369 
L 583.853495 32.208617 
L 470.231345 94.877177 
" style="fill:none;stroke:#b0b0b0;stroke-width:0.8;"/>
   </g>
   <g id="xtick_20">
    <g id="line2d_26">
     <path d="M 760.365852 167.959175 
L 764.78979 168.908655 
" style="fill:none;stroke:#000000;stroke-linecap:square;stroke-width:0.8;"/>
    </g>
    <g id="text_22">
     <!-- $0.0$ -->
     <g transform="translate(771.647405 176.021455)scale(0.14 -0.14)">
      <use transform="scale(0.996264)" xlink:href="#CMR17-48"/>
      <use transform="translate(45.690477 0)scale(0.996264)" xlink:href="#CMMI12-58"/>
      <use transform="translate(72.787654 0)scale(0.996264)" xlink:href="#CMR17-48"/>
     </g>
    </g>
   </g>
   <g id="xtick_21">
    <g id="line2d_27">
     <path d="M 763.069895 118.414631 
L 767.582822 119.330045 
" style="fill:none;stroke:#000000;stroke-linecap:square;stroke-width:0.8;"/>
    </g>
    <g id="text_23">
     <!-- $0.2$ -->
     <g transform="translate(774.734898 126.535251)scale(0.14 -0.14)">
      <use transform="scale(0.996264)" xlink:href="#CMR17-48"/>
      <use transform="translate(45.690477 0)scale(0.996264)" xlink:href="#CMMI12-58"/>
      <use transform="translate(72.787654 0)scale(0.996264)" xlink:href="#CMR17-50"/>
     </g>
    </g>
   </g>
   <g id="xtick_22">
    <g id="line2d_28">
     <path d="M 765.881192 66.904957 
L 770.486757 67.782825 
" style="fill:none;stroke:#000000;stroke-linecap:square;stroke-width:0.8;"/>
    </g>
    <g id="text_24">
     <!-- $0.4$ -->
     <g transform="translate(777.944626 75.089862)scale(0.14 -0.14)">
      <use transform="scale(0.996264)" xlink:href="#CMR17-48"/>
      <use transform="translate(45.690477 0)scale(0.996264)" xlink:href="#CMMI12-58"/>
      <use transform="translate(72.787654 0)scale(0.996264)" xlink:href="#CMR17-52"/>
     </g>
    </g>
   </g>
  </g>
  <g id="axes_2">
   <g id="Poly3DCollection_18">
    <path clip-path="url(#p2052b1f8ba)" d="M 589.588049 136.732117 
L 589.587426 136.681505 
L 610.980942 141.301229 
L 610.981146 141.352015 
z
" style="fill:#065d4c;fill-opacity:0.8;"/>
    <path clip-path="url(#p2052b1f8ba)" d="M 576.803631 144.764839 
L 576.802749 144.713925 
L 589.587426 136.681505 
L 589.588049 136.732117 
z
" style="fill:#0cba97;fill-opacity:0.8;"/>
    <path clip-path="url(#p2052b1f8ba)" d="M 576.803631 144.764839 
L 589.588049 136.732117 
L 610.981146 141.352015 
L 598.325107 149.469557 
z
" style="fill:#08745e;fill-opacity:0.8;"/>
    <path clip-path="url(#p2052b1f8ba)" d="M 576.802749 144.713925 
L 598.32465 149.418467 
L 610.980942 141.301229 
L 589.587426 136.681505 
z
" style="fill:#0aa384;fill-opacity:0.8;"/>
    <path clip-path="url(#p2052b1f8ba)" d="M 598.325107 149.469557 
L 610.981146 141.352015 
L 610.980942 141.301229 
L 598.32465 149.418467 
z
" style="fill:#065d4c;fill-opacity:0.8;"/>
    <path clip-path="url(#p2052b1f8ba)" d="M 576.803631 144.764839 
L 598.325107 149.469557 
L 598.32465 149.418467 
L 576.802749 144.713925 
z
" style="fill:#0cba97;fill-opacity:0.8;"/>
   </g>
   <g id="Poly3DCollection_19">
    <path clip-path="url(#p2052b1f8ba)" d="M 632.599698 146.020602 
L 632.601013 145.721279 
L 654.45117 150.438294 
L 654.44729 150.73865 
z
" style="fill:#065d4c;fill-opacity:0.8;"/>
    <path clip-path="url(#p2052b1f8ba)" d="M 620.075482 154.224314 
L 620.075337 153.923198 
L 632.601013 145.721279 
L 632.599698 146.020602 
z
" style="fill:#0cba97;fill-opacity:0.8;"/>
    <path clip-path="url(#p2052b1f8ba)" d="M 620.075482 154.224314 
L 632.599698 146.020602 
L 654.44729 150.73865 
L 642.058426 159.029911 
z
" style="fill:#08745e;fill-opacity:0.8;"/>
    <path clip-path="url(#p2052b1f8ba)" d="M 620.075337 153.923198 
L 642.060878 158.727754 
L 654.45117 150.438294 
L 632.601013 145.721279 
z
" style="fill:#0aa384;fill-opacity:0.8;"/>
    <path clip-path="url(#p2052b1f8ba)" d="M 642.058426 159.029911 
L 654.44729 150.73865 
L 654.45117 150.438294 
L 642.060878 158.727754 
z
" style="fill:#065d4c;fill-opacity:0.8;"/>
    <path clip-path="url(#p2052b1f8ba)" d="M 620.075482 154.224314 
L 642.058426 159.029911 
L 642.060878 158.727754 
L 620.075337 153.923198 
z
" style="fill:#0cba97;fill-opacity:0.8;"/>
   </g>
   <g id="Poly3DCollection_20">
    <path clip-path="url(#p2052b1f8ba)" d="M 563.784036 152.945328 
L 563.790802 153.246744 
L 585.439254 158.039681 
L 585.435012 157.737223 
z
" style="fill:#0cba97;fill-opacity:0.8;"/>
    <path clip-path="url(#p2052b1f8ba)" d="M 550.522716 161.277698 
L 550.531119 161.580923 
L 563.790802 153.246744 
L 563.784036 152.945328 
z
" style="fill:#065d4c;fill-opacity:0.8;"/>
    <path clip-path="url(#p2052b1f8ba)" d="M 550.531119 161.580923 
L 572.310154 166.463491 
L 585.439254 158.039681 
L 563.790802 153.246744 
z
" style="fill:#0aa384;fill-opacity:0.8;"/>
    <path clip-path="url(#p2052b1f8ba)" d="M 550.522716 161.277698 
L 563.784036 152.945328 
L 585.435012 157.737223 
L 572.304305 166.159215 
z
" style="fill:#08745e;fill-opacity:0.8;"/>
    <path clip-path="url(#p2052b1f8ba)" d="M 572.304305 166.159215 
L 585.435012 157.737223 
L 585.439254 158.039681 
L 572.310154 166.463491 
z
" style="fill:#0cba97;fill-opacity:0.8;"/>
    <path clip-path="url(#p2052b1f8ba)" d="M 550.522716 161.277698 
L 572.304305 166.159215 
L 572.310154 166.463491 
L 550.531119 161.580923 
z
" style="fill:#065d4c;fill-opacity:0.8;"/>
   </g>
   <g id="Poly3DCollection_21">
    <path clip-path="url(#p2052b1f8ba)" d="M 676.527579 155.50695 
L 676.543857 154.752158 
L 698.867284 159.568902 
L 698.844305 160.326308 
z
" style="fill:#065d4c;fill-opacity:0.8;"/>
    <path clip-path="url(#p2052b1f8ba)" d="M 664.27769 163.887169 
L 664.290474 163.127842 
L 676.543857 154.752158 
L 676.527579 155.50695 
z
" style="fill:#0cba97;fill-opacity:0.8;"/>
    <path clip-path="url(#p2052b1f8ba)" d="M 664.27769 163.887169 
L 676.527579 155.50695 
L 698.844305 160.326308 
L 686.737104 168.796926 
z
" style="fill:#08745e;fill-opacity:0.8;"/>
    <path clip-path="url(#p2052b1f8ba)" d="M 664.290474 163.127842 
L 686.756677 168.034962 
L 698.867284 159.568902 
L 676.543857 154.752158 
z
" style="fill:#0aa384;fill-opacity:0.8;"/>
    <path clip-path="url(#p2052b1f8ba)" d="M 686.737104 168.796926 
L 698.844305 160.326308 
L 698.867284 159.568902 
L 686.756677 168.034962 
z
" style="fill:#065d4c;fill-opacity:0.8;"/>
    <path clip-path="url(#p2052b1f8ba)" d="M 664.27769 163.887169 
L 686.737104 168.796926 
L 686.756677 168.034962 
L 664.290474 163.127842 
z
" style="fill:#0cba97;fill-opacity:0.8;"/>
   </g>
   <g id="Poly3DCollection_22">
    <path clip-path="url(#p2052b1f8ba)" d="M 607.318403 162.580557 
L 607.318487 162.595912 
L 629.437924 167.491572 
L 629.437973 167.476163 
z
" style="fill:#0cba97;fill-opacity:0.8;"/>
    <path clip-path="url(#p2052b1f8ba)" d="M 594.321906 171.093626 
L 594.32207 171.109073 
L 607.318487 162.595912 
L 607.318403 162.580557 
z
" style="fill:#065d4c;fill-opacity:0.8;"/>
    <path clip-path="url(#p2052b1f8ba)" d="M 594.32207 171.109073 
L 616.579405 176.097295 
L 629.437924 167.491572 
L 607.318487 162.595912 
z
" style="fill:#0aa384;fill-opacity:0.8;"/>
    <path clip-path="url(#p2052b1f8ba)" d="M 594.321906 171.093626 
L 607.318403 162.580557 
L 629.437973 167.476163 
L 616.579377 176.081794 
z
" style="fill:#08745e;fill-opacity:0.8;"/>
    <path clip-path="url(#p2052b1f8ba)" d="M 616.579377 176.081794 
L 629.437973 167.476163 
L 629.437924 167.491572 
L 616.579405 176.097295 
z
" style="fill:#0cba97;fill-opacity:0.8;"/>
    <path clip-path="url(#p2052b1f8ba)" d="M 594.321906 171.093626 
L 616.579377 176.081794 
L 616.579405 176.097295 
L 594.32207 171.109073 
z
" style="fill:#065d4c;fill-opacity:0.8;"/>
   </g>
   <g id="Poly3DCollection_23">
    <path clip-path="url(#p2052b1f8ba)" d="M 721.401284 165.19755 
L 721.401284 165.19755 
L 744.202417 170.121518 
L 744.202417 170.121518 
z
" style="fill:#065d4c;fill-opacity:0.8;"/>
    <path clip-path="url(#p2052b1f8ba)" d="M 709.440584 173.760036 
L 709.440584 173.760036 
L 721.401284 165.19755 
L 721.401284 165.19755 
z
" style="fill:#065d4c;fill-opacity:0.8;"/>
    <path clip-path="url(#p2052b1f8ba)" d="M 709.440584 173.760036 
L 721.401284 165.19755 
L 744.202417 170.121518 
L 732.392129 178.777375 
z
" style="fill:#08745e;fill-opacity:0.8;"/>
    <path clip-path="url(#p2052b1f8ba)" d="M 709.440584 173.760036 
L 732.392129 178.777375 
L 744.202417 170.121518 
L 721.401284 165.19755 
z
" style="fill:#0aa384;fill-opacity:0.8;"/>
    <path clip-path="url(#p2052b1f8ba)" d="M 732.392129 178.777375 
L 744.202417 170.121518 
L 744.202417 170.121518 
L 732.392129 178.777375 
z
" style="fill:#065d4c;fill-opacity:0.8;"/>
    <path clip-path="url(#p2052b1f8ba)" d="M 709.440584 173.760036 
L 732.392129 178.777375 
L 732.392129 178.777375 
L 709.440584 173.760036 
z
" style="fill:#065d4c;fill-opacity:0.8;"/>
   </g>
   <g id="Poly3DCollection_24">
    <path clip-path="url(#p2052b1f8ba)" d="M 537.012875 169.766218 
L 537.02154 170.027903 
L 558.932634 175.00249 
L 558.926187 174.739896 
z
" style="fill:#0cba97;fill-opacity:0.8;"/>
    <path clip-path="url(#p2052b1f8ba)" d="M 523.247462 178.415321 
L 523.257637 178.678583 
L 537.02154 170.027903 
L 537.012875 169.766218 
z
" style="fill:#065d4c;fill-opacity:0.8;"/>
    <path clip-path="url(#p2052b1f8ba)" d="M 523.257637 178.678583 
L 545.30153 183.747973 
L 558.932634 175.00249 
L 537.02154 170.027903 
z
" style="fill:#0aa384;fill-opacity:0.8;"/>
    <path clip-path="url(#p2052b1f8ba)" d="M 523.247462 178.415321 
L 537.012875 169.766218 
L 558.926187 174.739896 
L 545.293599 183.483794 
z
" style="fill:#08745e;fill-opacity:0.8;"/>
    <path clip-path="url(#p2052b1f8ba)" d="M 545.293599 183.483794 
L 558.926187 174.739896 
L 558.932634 175.00249 
L 545.30153 183.747973 
z
" style="fill:#0cba97;fill-opacity:0.8;"/>
    <path clip-path="url(#p2052b1f8ba)" d="M 523.247462 178.415321 
L 545.293599 183.483794 
L 545.30153 183.747973 
L 523.257637 178.678583 
z
" style="fill:#065d4c;fill-opacity:0.8;"/>
   </g>
   <g id="Poly3DCollection_25">
    <path clip-path="url(#p2052b1f8ba)" d="M 651.797566 172.424893 
L 651.797566 172.424893 
L 674.40111 177.427615 
L 674.40111 177.427615 
z
" style="fill:#065d4c;fill-opacity:0.8;"/>
    <path clip-path="url(#p2052b1f8ba)" d="M 639.080657 181.124603 
L 639.080657 181.124603 
L 651.797566 172.424893 
L 651.797566 172.424893 
z
" style="fill:#065d4c;fill-opacity:0.8;"/>
    <path clip-path="url(#p2052b1f8ba)" d="M 639.080657 181.124603 
L 651.797566 172.424893 
L 674.40111 177.427615 
L 661.829777 186.222956 
z
" style="fill:#08745e;fill-opacity:0.8;"/>
    <path clip-path="url(#p2052b1f8ba)" d="M 639.080657 181.124603 
L 661.829777 186.222956 
L 674.40111 177.427615 
L 651.797566 172.424893 
z
" style="fill:#0aa384;fill-opacity:0.8;"/>
    <path clip-path="url(#p2052b1f8ba)" d="M 661.829777 186.222956 
L 674.40111 177.427615 
L 674.40111 177.427615 
L 661.829777 186.222956 
z
" style="fill:#065d4c;fill-opacity:0.8;"/>
    <path clip-path="url(#p2052b1f8ba)" d="M 639.080657 181.124603 
L 661.829777 186.222956 
L 661.829777 186.222956 
L 639.080657 181.124603 
z
" style="fill:#065d4c;fill-opacity:0.8;"/>
   </g>
   <g id="Poly3DCollection_26">
    <path clip-path="url(#p2052b1f8ba)" d="M 581.079187 179.767977 
L 581.079187 179.767977 
L 603.475831 184.851357 
L 603.475831 184.851357 
z
" style="fill:#065d4c;fill-opacity:0.8;"/>
    <path clip-path="url(#p2052b1f8ba)" d="M 567.583183 188.608237 
L 567.583183 188.608237 
L 581.079187 179.767977 
L 581.079187 179.767977 
z
" style="fill:#065d4c;fill-opacity:0.8;"/>
    <path clip-path="url(#p2052b1f8ba)" d="M 567.583183 188.608237 
L 581.079187 179.767977 
L 603.475831 184.851357 
L 590.12027 193.789581 
z
" style="fill:#08745e;fill-opacity:0.8;"/>
    <path clip-path="url(#p2052b1f8ba)" d="M 567.583183 188.608237 
L 590.12027 193.789581 
L 603.475831 184.851357 
L 581.079187 179.767977 
z
" style="fill:#0aa384;fill-opacity:0.8;"/>
    <path clip-path="url(#p2052b1f8ba)" d="M 590.12027 193.789581 
L 603.475831 184.851357 
L 603.475831 184.851357 
L 590.12027 193.789581 
z
" style="fill:#065d4c;fill-opacity:0.8;"/>
    <path clip-path="url(#p2052b1f8ba)" d="M 567.583183 188.608237 
L 590.12027 193.789581 
L 590.12027 193.789581 
L 567.583183 188.608237 
z
" style="fill:#065d4c;fill-opacity:0.8;"/>
   </g>
   <g id="Poly3DCollection_27">
    <path clip-path="url(#p2052b1f8ba)" d="M 697.25262 182.485217 
L 697.229575 183.253979 
L 720.325975 188.370049 
L 720.356197 187.598609 
z
" style="fill:#0cba97;fill-opacity:0.8;"/>
    <path clip-path="url(#p2052b1f8ba)" d="M 684.830852 191.377775 
L 684.811391 192.151184 
L 697.229575 183.253979 
L 697.25262 182.485217 
z
" style="fill:#065d4c;fill-opacity:0.8;"/>
    <path clip-path="url(#p2052b1f8ba)" d="M 684.811391 192.151184 
L 708.061358 197.366112 
L 720.325975 188.370049 
L 697.229575 183.253979 
z
" style="fill:#0aa384;fill-opacity:0.8;"/>
    <path clip-path="url(#p2052b1f8ba)" d="M 684.830852 191.377775 
L 697.25262 182.485217 
L 720.356197 187.598609 
L 708.088092 196.590004 
z
" style="fill:#08745e;fill-opacity:0.8;"/>
    <path clip-path="url(#p2052b1f8ba)" d="M 708.088092 196.590004 
L 720.356197 187.598609 
L 720.325975 188.370049 
L 708.061358 197.366112 
z
" style="fill:#0cba97;fill-opacity:0.8;"/>
    <path clip-path="url(#p2052b1f8ba)" d="M 684.830852 191.377775 
L 708.088092 196.590004 
L 708.061358 197.366112 
L 684.811391 192.151184 
z
" style="fill:#065d4c;fill-opacity:0.8;"/>
   </g>
   <g id="Poly3DCollection_28">
    <path clip-path="url(#p2052b1f8ba)" d="M 509.219154 187.229605 
L 509.219154 187.229605 
L 531.399209 192.39561 
L 531.399209 192.39561 
z
" style="fill:#065d4c;fill-opacity:0.8;"/>
    <path clip-path="url(#p2052b1f8ba)" d="M 494.920349 196.213849 
L 494.920349 196.213849 
L 509.219154 187.229605 
L 509.219154 187.229605 
z
" style="fill:#065d4c;fill-opacity:0.8;"/>
    <path clip-path="url(#p2052b1f8ba)" d="M 494.920349 196.213849 
L 509.219154 187.229605 
L 531.399209 192.39561 
L 517.235405 201.480228 
z
" style="fill:#08745e;fill-opacity:0.8;"/>
    <path clip-path="url(#p2052b1f8ba)" d="M 494.920349 196.213849 
L 517.235405 201.480228 
L 531.399209 192.39561 
L 509.219154 187.229605 
z
" style="fill:#0aa384;fill-opacity:0.8;"/>
    <path clip-path="url(#p2052b1f8ba)" d="M 517.235405 201.480228 
L 531.399209 192.39561 
L 531.399209 192.39561 
L 517.235405 201.480228 
z
" style="fill:#065d4c;fill-opacity:0.8;"/>
    <path clip-path="url(#p2052b1f8ba)" d="M 494.920349 196.213849 
L 517.235405 201.480228 
L 517.235405 201.480228 
L 494.920349 196.213849 
z
" style="fill:#065d4c;fill-opacity:0.8;"/>
   </g>
   <g id="Poly3DCollection_29">
    <path clip-path="url(#p2052b1f8ba)" d="M 626.120159 189.990954 
L 626.120189 189.975305 
L 649.016475 195.172002 
L 649.016303 195.187706 
z
" style="fill:#065d4c;fill-opacity:0.8;"/>
    <path clip-path="url(#p2052b1f8ba)" d="M 612.909004 199.02878 
L 612.908952 199.013036 
L 626.120189 189.975305 
L 626.120159 189.990954 
z
" style="fill:#0cba97;fill-opacity:0.8;"/>
    <path clip-path="url(#p2052b1f8ba)" d="M 612.909004 199.02878 
L 626.120159 189.990954 
L 649.016303 195.187706 
L 635.953625 204.326808 
z
" style="fill:#08745e;fill-opacity:0.8;"/>
    <path clip-path="url(#p2052b1f8ba)" d="M 612.908952 199.013036 
L 635.953718 204.311009 
L 649.016475 195.172002 
L 626.120189 189.975305 
z
" style="fill:#0aa384;fill-opacity:0.8;"/>
    <path clip-path="url(#p2052b1f8ba)" d="M 635.953625 204.326808 
L 649.016303 195.187706 
L 649.016475 195.172002 
L 635.953718 204.311009 
z
" style="fill:#065d4c;fill-opacity:0.8;"/>
    <path clip-path="url(#p2052b1f8ba)" d="M 612.909004 199.02878 
L 635.953625 204.326808 
L 635.953718 204.311009 
L 612.908952 199.013036 
z
" style="fill:#0cba97;fill-opacity:0.8;"/>
   </g>
   <g id="Poly3DCollection_30">
    <path clip-path="url(#p2052b1f8ba)" d="M 553.826556 197.619212 
L 553.819406 197.352451 
L 576.500579 202.633686 
L 576.505352 202.90138 
z
" style="fill:#065d4c;fill-opacity:0.8;"/>
    <path clip-path="url(#p2052b1f8ba)" d="M 539.801683 206.805896 
L 539.792964 206.537516 
L 553.819406 197.352451 
L 553.826556 197.619212 
z
" style="fill:#0cba97;fill-opacity:0.8;"/>
    <path clip-path="url(#p2052b1f8ba)" d="M 539.801683 206.805896 
L 553.826556 197.619212 
L 576.505352 202.90138 
L 562.62345 212.191859 
z
" style="fill:#08745e;fill-opacity:0.8;"/>
    <path clip-path="url(#p2052b1f8ba)" d="M 539.792964 206.537516 
L 562.617136 211.92254 
L 576.500579 202.633686 
L 553.819406 197.352451 
z
" style="fill:#0aa384;fill-opacity:0.8;"/>
    <path clip-path="url(#p2052b1f8ba)" d="M 562.62345 212.191859 
L 576.505352 202.90138 
L 576.500579 202.633686 
L 562.617136 211.92254 
z
" style="fill:#065d4c;fill-opacity:0.8;"/>
    <path clip-path="url(#p2052b1f8ba)" d="M 539.801683 206.805896 
L 562.62345 212.191859 
L 562.617136 211.92254 
L 539.792964 206.537516 
z
" style="fill:#0cba97;fill-opacity:0.8;"/>
   </g>
   <g id="Poly3DCollection_31">
    <path clip-path="url(#p2052b1f8ba)" d="M 672.168487 200.442572 
L 672.162203 200.753383 
L 695.571801 206.06843 
L 695.58103 205.756532 
z
" style="fill:#0cba97;fill-opacity:0.8;"/>
    <path clip-path="url(#p2052b1f8ba)" d="M 659.258467 209.684662 
L 659.253732 209.997359 
L 672.162203 200.753383 
L 672.168487 200.442572 
z
" style="fill:#065d4c;fill-opacity:0.8;"/>
    <path clip-path="url(#p2052b1f8ba)" d="M 659.253732 209.997359 
L 682.820243 215.417152 
L 695.571801 206.06843 
L 672.162203 200.753383 
z
" style="fill:#0aa384;fill-opacity:0.8;"/>
    <path clip-path="url(#p2052b1f8ba)" d="M 659.258467 209.684662 
L 672.168487 200.442572 
L 695.58103 205.756532 
L 682.827962 215.10336 
z
" style="fill:#08745e;fill-opacity:0.8;"/>
    <path clip-path="url(#p2052b1f8ba)" d="M 682.827962 215.10336 
L 695.58103 205.756532 
L 695.571801 206.06843 
L 682.820243 215.417152 
z
" style="fill:#0cba97;fill-opacity:0.8;"/>
    <path clip-path="url(#p2052b1f8ba)" d="M 659.258467 209.684662 
L 682.827962 215.10336 
L 682.820243 215.417152 
L 659.253732 209.997359 
z
" style="fill:#065d4c;fill-opacity:0.8;"/>
   </g>
   <g id="Poly3DCollection_32">
    <path clip-path="url(#p2052b1f8ba)" d="M 599.439852 208.243105 
L 599.43712 207.929947 
L 622.634569 213.331144 
L 622.634403 213.645398 
z
" style="fill:#065d4c;fill-opacity:0.8;"/>
    <path clip-path="url(#p2052b1f8ba)" d="M 585.705069 217.639148 
L 585.700578 217.324088 
L 599.43712 207.929947 
L 599.439852 208.243105 
z
" style="fill:#0cba97;fill-opacity:0.8;"/>
    <path clip-path="url(#p2052b1f8ba)" d="M 585.705069 217.639148 
L 599.439852 208.243105 
L 622.634403 213.645398 
L 609.051003 223.148816 
z
" style="fill:#08745e;fill-opacity:0.8;"/>
    <path clip-path="url(#p2052b1f8ba)" d="M 585.700578 217.324088 
L 609.049447 222.83265 
L 622.634569 213.331144 
L 599.43712 207.929947 
z
" style="fill:#0aa384;fill-opacity:0.8;"/>
    <path clip-path="url(#p2052b1f8ba)" d="M 609.051003 223.148816 
L 622.634403 213.645398 
L 622.634569 213.331144 
L 609.049447 222.83265 
z
" style="fill:#065d4c;fill-opacity:0.8;"/>
    <path clip-path="url(#p2052b1f8ba)" d="M 585.705069 217.639148 
L 609.051003 223.148816 
L 609.049447 222.83265 
L 585.700578 217.324088 
z
" style="fill:#0cba97;fill-opacity:0.8;"/>
   </g>
   <g id="Poly3DCollection_33">
    <path clip-path="url(#p2052b1f8ba)" d="M 646.093454 219.109297 
L 646.092923 219.16287 
L 669.82051 224.689622 
L 669.821556 224.635861 
z
" style="fill:#0cba97;fill-opacity:0.8;"/>
    <path clip-path="url(#p2052b1f8ba)" d="M 632.665819 228.72194 
L 632.665573 228.775839 
L 646.092923 219.16287 
L 646.093454 219.109297 
z
" style="fill:#065d4c;fill-opacity:0.8;"/>
    <path clip-path="url(#p2052b1f8ba)" d="M 632.665573 228.775839 
L 656.553421 234.413711 
L 669.82051 224.689622 
L 646.092923 219.16287 
z
" style="fill:#0aa384;fill-opacity:0.8;"/>
    <path clip-path="url(#p2052b1f8ba)" d="M 632.665819 228.72194 
L 646.093454 219.109297 
L 669.821556 224.635861 
L 656.55419 234.359623 
z
" style="fill:#08745e;fill-opacity:0.8;"/>
    <path clip-path="url(#p2052b1f8ba)" d="M 656.55419 234.359623 
L 669.821556 224.635861 
L 669.82051 224.689622 
L 656.553421 234.413711 
z
" style="fill:#0cba97;fill-opacity:0.8;"/>
    <path clip-path="url(#p2052b1f8ba)" d="M 632.665819 228.72194 
L 656.55419 234.359623 
L 656.553421 234.413711 
L 632.665573 228.775839 
z
" style="fill:#065d4c;fill-opacity:0.8;"/>
   </g>
   <g id="Poly3DCollection_34">
    <path clip-path="url(#p2052b1f8ba)" d="M 482.082413 197.557594 
L 660.294096 239.811897 
L 756.304076 168.854839 
L 586.588598 132.359326 
z
" style="fill-opacity:0.2;"/>
   </g>
  </g>
 </g>
 <defs>
  <clipPath id="p7bfac3ae93">
   <rect height="277.2" width="380.454545" x="-30.6" y="-14.4"/>
  </clipPath>
  <clipPath id="p2052b1f8ba">
   <rect height="277.2" width="380.454545" x="425.945455" y="-14.4"/>
  </clipPath>
 </defs>
</svg>
