<?xml version="1.0" encoding="utf-8" standalone="no"?>
<!DOCTYPE svg PUBLIC "-//W3C//DTD SVG 1.1//EN"
  "http://www.w3.org/Graphics/SVG/1.1/DTD/svg11.dtd">
<!-- Created with matplotlib (https://matplotlib.org/) -->
<svg height="302.4pt" version="1.1" viewBox="0 0 820.8 302.4" width="820.8pt" xmlns="http://www.w3.org/2000/svg" xmlns:xlink="http://www.w3.org/1999/xlink">
 <defs>
  <style type="text/css">
*{stroke-linecap:butt;stroke-linejoin:round;}
  </style>
 </defs>
 <g id="figure_1">
  <g id="patch_1">
   <path d="M 0 302.4 
L 820.8 302.4 
L 820.8 0 
L 0 0 
z
" style="fill:#ffffff;"/>
  </g>
  <g id="patch_2">
   <path d="M -30.6 262.8 
L 349.854545 262.8 
L 349.854545 -14.4 
L -30.6 -14.4 
z
" style="fill:#ffffff;"/>
  </g>
  <g id="pane3d_1">
   <g id="patch_3">
    <path d="M 19.835129 201.548569 
L 128.723211 133.58541 
L 126.910339 3.718968 
L 11.951034 64.782468 
" style="fill:#f2f2f2;opacity:0.5;stroke:#f2f2f2;stroke-linejoin:miter;"/>
   </g>
  </g>
  <g id="pane3d_2">
   <g id="patch_4">
    <path d="M 128.723211 133.58541 
L 305.111665 171.581202 
L 312.491547 37.79869 
L 126.910339 3.718968 
" style="fill:#e6e6e6;opacity:0.5;stroke:#e6e6e6;stroke-linejoin:miter;"/>
   </g>
  </g>
  <g id="pane3d_3">
   <g id="patch_5">
    <path d="M 19.835129 201.548569 
L 205.419617 245.80086 
L 305.111665 171.581202 
L 128.723211 133.58541 
" style="fill:#ececec;opacity:0.5;stroke:#ececec;stroke-linejoin:miter;"/>
   </g>
  </g>
  <g id="axis3d_1">
   <g id="line2d_1">
    <path d="M 19.835129 201.548569 
L 205.419617 245.80086 
" style="fill:none;stroke:#000000;stroke-linecap:square;stroke-width:0.8;"/>
   </g>
   <g id="Line3DCollection_1">
    <path d="M 42.295817 206.90428 
L 150.133942 138.19749 
L 149.393845 7.847789 
" style="fill:none;stroke:#b0b0b0;stroke-width:0.8;"/>
    <path d="M 87.512337 217.686079 
L 193.184014 147.470895 
L 194.636898 16.156123 
" style="fill:none;stroke:#b0b0b0;stroke-width:0.8;"/>
    <path d="M 133.765289 228.715013 
L 237.148096 156.941187 
L 240.890183 24.649974 
" style="fill:none;stroke:#b0b0b0;stroke-width:0.8;"/>
    <path d="M 181.090721 239.999678 
L 282.055608 166.614702 
L 288.187917 33.335625 
" style="fill:none;stroke:#b0b0b0;stroke-width:0.8;"/>
   </g>
   <g id="xtick_1">
    <g id="line2d_2">
     <path d="M 43.225084 206.312217 
L 40.433807 208.09062 
" style="fill:none;stroke:#000000;stroke-linecap:square;stroke-width:0.8;"/>
    </g>
    <g id="text_1">
     <!-- 00 -->
     <defs>
      <path d="M 42 31.84375 
C 42 37.96875 41.90625 48.421875 37.703125 56.453125 
C 34 63.484375 28.09375 66 22.90625 66 
C 18.09375 66 12 63.78125 8.203125 56.5625 
C 4.203125 49.015625 3.796875 39.671875 3.796875 31.84375 
C 3.796875 26.109375 3.90625 17.375 7 9.734375 
C 11.296875 -0.609375 19 -2 22.90625 -2 
C 27.5 -2 34.5 -0.109375 38.59375 9.4375 
C 41.59375 16.375 42 24.5 42 31.84375 
z
M 22.90625 -0.40625 
C 16.5 -0.40625 12.703125 5.125 11.296875 12.75 
C 10.203125 18.6875 10.203125 27.328125 10.203125 32.953125 
C 10.203125 40.6875 10.203125 47.109375 11.5 53.234375 
C 13.40625 61.78125 19 64.390625 22.90625 64.390625 
C 27 64.390625 32.296875 61.671875 34.203125 53.4375 
C 35.5 47.71875 35.59375 40.984375 35.59375 32.953125 
C 35.59375 26.421875 35.59375 18.375 34.40625 12.453125 
C 32.296875 1.5 26.40625 -0.40625 22.90625 -0.40625 
z
" id="CMR17-48"/>
     </defs>
     <g transform="translate(23.330362 237.14703)rotate(-45)scale(0.14 -0.14)">
      <use transform="scale(0.996264)" xlink:href="#CMR17-48"/>
      <use transform="translate(45.690477 0)scale(0.996264)" xlink:href="#CMR17-48"/>
     </g>
    </g>
   </g>
   <g id="xtick_2">
    <g id="line2d_3">
     <path d="M 88.423674 217.080527 
L 85.686217 218.899473 
" style="fill:none;stroke:#000000;stroke-linecap:square;stroke-width:0.8;"/>
    </g>
    <g id="text_2">
     <!-- 01 -->
     <defs>
      <path d="M 26.59375 63.796875 
C 26.59375 65.890625 26.5 66 25.09375 66 
C 21.203125 61.359375 15.296875 59.890625 9.703125 59.6875 
C 9.40625 59.6875 8.90625 59.6875 8.796875 59.5 
C 8.703125 59.296875 8.703125 59.09375 8.703125 57 
C 11.796875 57 17 57.59375 21 59.984375 
L 21 7.296875 
C 21 3.796875 20.796875 2.59375 12.203125 2.59375 
L 9.203125 2.59375 
L 9.203125 0 
C 14 0.09375 19 0.1875 23.796875 0.1875 
C 28.59375 0.1875 33.59375 0.09375 38.40625 0 
L 38.40625 2.59375 
L 35.40625 2.59375 
C 26.796875 2.59375 26.59375 3.6875 26.59375 7.296875 
z
" id="CMR17-49"/>
     </defs>
     <g transform="translate(68.542787 248.103782)rotate(-45)scale(0.14 -0.14)">
      <use transform="scale(0.996264)" xlink:href="#CMR17-48"/>
      <use transform="translate(45.690477 0)scale(0.996264)" xlink:href="#CMR17-49"/>
     </g>
    </g>
   </g>
   <g id="xtick_3">
    <g id="line2d_4">
     <path d="M 134.657625 228.095506 
L 131.977203 229.956397 
" style="fill:none;stroke:#000000;stroke-linecap:square;stroke-width:0.8;"/>
    </g>
    <g id="text_3">
     <!-- 10 -->
     <g transform="translate(114.7934 259.312128)rotate(-45)scale(0.14 -0.14)">
      <use transform="scale(0.996264)" xlink:href="#CMR17-49"/>
      <use transform="translate(45.690477 0)scale(0.996264)" xlink:href="#CMR17-48"/>
     </g>
    </g>
   </g>
   <g id="xtick_4">
    <g id="line2d_5">
     <path d="M 181.962926 239.365727 
L 179.342936 241.270032 
" style="fill:none;stroke:#000000;stroke-linecap:square;stroke-width:0.8;"/>
    </g>
    <g id="text_4">
     <!-- 11 -->
     <g transform="translate(162.118375 270.780834)rotate(-45)scale(0.14 -0.14)">
      <use transform="scale(0.996264)" xlink:href="#CMR17-49"/>
      <use transform="translate(45.690477 0)scale(0.996264)" xlink:href="#CMR17-49"/>
     </g>
    </g>
   </g>
  </g>
  <g id="axis3d_2">
   <g id="line2d_6">
    <path d="M 305.111665 171.581202 
L 205.419617 245.80086 
" style="fill:none;stroke:#000000;stroke-linecap:square;stroke-width:0.8;"/>
   </g>
   <g id="Line3DCollection_2">
    <path d="M 27.455231 56.547028 
L 34.471044 192.413474 
L 218.858418 235.795817 
" style="fill:none;stroke:#b0b0b0;stroke-width:0.8;"/>
    <path d="M 57.232024 40.730342 
L 62.623407 174.842005 
L 244.674037 216.576366 
" style="fill:none;stroke:#b0b0b0;stroke-width:0.8;"/>
    <path d="M 85.85589 25.526062 
L 89.739382 157.917404 
L 269.496985 198.095948 
" style="fill:none;stroke:#b0b0b0;stroke-width:0.8;"/>
    <path d="M 113.392516 10.899296 
L 115.875164 141.604597 
L 293.383438 180.312741 
" style="fill:none;stroke:#b0b0b0;stroke-width:0.8;"/>
   </g>
   <g id="xtick_5">
    <g id="line2d_7">
     <path d="M 217.315598 235.432825 
L 221.947489 236.522608 
" style="fill:none;stroke:#000000;stroke-linecap:square;stroke-width:0.8;"/>
    </g>
    <g id="text_5">
     <!-- 00 -->
     <g transform="translate(232.650369 248.348363)rotate(-337.5)scale(0.14 -0.14)">
      <use transform="scale(0.996264)" xlink:href="#CMR17-48"/>
      <use transform="translate(45.690477 0)scale(0.996264)" xlink:href="#CMR17-48"/>
     </g>
    </g>
   </g>
   <g id="xtick_6">
    <g id="line2d_8">
     <path d="M 243.15208 216.227463 
L 247.72127 217.274932 
" style="fill:none;stroke:#000000;stroke-linecap:square;stroke-width:0.8;"/>
    </g>
    <g id="text_6">
     <!-- 01 -->
     <g transform="translate(258.203921 228.903937)rotate(-337.5)scale(0.14 -0.14)">
      <use transform="scale(0.996264)" xlink:href="#CMR17-48"/>
      <use transform="translate(45.690477 0)scale(0.996264)" xlink:href="#CMR17-49"/>
     </g>
    </g>
   </g>
   <g id="xtick_7">
    <g id="line2d_9">
     <path d="M 267.995442 197.76033 
L 272.503283 198.767901 
" style="fill:none;stroke:#000000;stroke-linecap:square;stroke-width:0.8;"/>
    </g>
    <g id="text_7">
     <!-- 10 -->
     <g transform="translate(282.775332 210.206849)rotate(-337.5)scale(0.14 -0.14)">
      <use transform="scale(0.996264)" xlink:href="#CMR17-49"/>
      <use transform="translate(45.690477 0)scale(0.996264)" xlink:href="#CMR17-48"/>
     </g>
    </g>
   </g>
   <g id="xtick_8">
    <g id="line2d_10">
     <path d="M 291.901865 179.989663 
L 296.349691 180.959573 
" style="fill:none;stroke:#000000;stroke-linecap:square;stroke-width:0.8;"/>
    </g>
    <g id="text_8">
     <!-- 11 -->
     <g transform="translate(306.420159 192.214827)rotate(-337.5)scale(0.14 -0.14)">
      <use transform="scale(0.996264)" xlink:href="#CMR17-49"/>
      <use transform="translate(45.690477 0)scale(0.996264)" xlink:href="#CMR17-49"/>
     </g>
    </g>
   </g>
  </g>
  <g id="axis3d_3">
   <g id="line2d_11">
    <path d="M 305.111665 171.581202 
L 312.491547 37.79869 
" style="fill:none;stroke:#000000;stroke-linecap:square;stroke-width:0.8;"/>
   </g>
   <g id="text_9">
    <!-- Re[$\rho$] -->
    <defs>
     <path d="M 39.203125 33.6875 
C 48.703125 35.59375 56.703125 42.015625 56.703125 50.046875 
C 56.703125 59.46875 46.09375 68 32.09375 68 
L 5.203125 68 
L 5.203125 65.390625 
C 12.09375 65.390625 13.203125 65.390625 13.203125 60.875 
L 13.203125 6.6875 
C 13.203125 2.1875 12.09375 2.1875 5.203125 2.1875 
L 5.203125 -0.40625 
C 8.09375 -0.203125 13.296875 -0.203125 16.40625 -0.203125 
C 19.5 -0.203125 24.703125 -0.203125 27.59375 -0.40625 
L 27.59375 2.1875 
C 20.703125 2.1875 19.59375 2.1875 19.59375 6.6875 
L 19.59375 33 
L 31.296875 33 
C 37 33 40.203125 30.6875 41.59375 29.390625 
C 45.59375 25.5 45.59375 22.796875 45.59375 16 
C 45.59375 9.296875 45.59375 5.890625 48.59375 2.5 
C 52.40625 -1.609375 57.5 -2 59.703125 -2 
C 67.09375 -2 68.203125 6.296875 68.203125 8 
C 68.203125 8.59375 68.203125 9.296875 67.296875 9.296875 
C 66.5 9.296875 66.40625 8.6875 66.40625 8.296875 
C 65.90625 1.796875 63 -0.40625 59.90625 -0.40625 
C 54.40625 -0.40625 53.796875 5.890625 53.203125 12 
C 52.90625 14.09375 52.703125 15.59375 52.5 17.796875 
C 51.90625 22.796875 51.09375 30.09375 39.203125 33.6875 
z
M 31 34.59375 
L 19.59375 34.59375 
L 19.59375 61.484375 
C 19.59375 64.890625 19.796875 65.390625 23.796875 65.390625 
L 31.09375 65.390625 
C 39.40625 65.390625 49.09375 62.484375 49.09375 50.046875 
C 49.09375 37.09375 38.5 34.59375 31 34.59375 
z
" id="CMR17-82"/>
     <path d="M 38.09375 23.484375 
C 38.5 23.890625 38.5 24.09375 38.5 25.09375 
C 38.5 35.171875 33.09375 44 21.703125 44 
C 11.09375 44 2.703125 33.984375 2.703125 21.78125 
C 2.703125 8.65625 12.203125 -1 22.796875 -1 
C 34 -1 38.40625 9.671875 38.40625 11.796875 
C 38.40625 12.5 37.796875 12.5 37.59375 12.5 
C 36.90625 12.5 36.796875 12.296875 36.40625 11.078125 
C 34.203125 4.21875 28.703125 0.796875 23.5 0.796875 
C 19.203125 0.796875 14.90625 3.21875 12.203125 7.65625 
C 9.09375 12.796875 9.09375 18.75 9.09375 23.484375 
z
M 9.203125 25 
C 9.90625 39.234375 17.59375 42.390625 21.59375 42.390625 
C 28.40625 42.390625 33 36.0625 33.09375 25 
z
" id="CMR17-101"/>
     <path d="M 23.5 -25 
L 23.5 -21.5 
L 14.09375 -21.5 
L 14.09375 71.484375 
L 23.5 71.484375 
L 23.5 75 
L 10.59375 75 
L 10.59375 -25 
z
" id="CMR17-91"/>
     <path d="M 3.09375 -16.953125 
C 3 -17.4375 2.796875 -18.03125 2.796875 -18.609375 
C 2.796875 -20.109375 4 -21.109375 5.5 -21.109375 
C 7 -21.109375 8.40625 -20.109375 9 -18.71875 
C 9.40625 -17.828125 12.203125 -6.09375 15.40625 6.078125 
C 17.40625 1.09375 21.09375 -1 25 -1 
C 36.296875 -1 49.09375 12.96875 49.09375 28.03125 
C 49.09375 38.703125 42.59375 44 35.703125 44 
C 26.90625 44 16.203125 34.90625 12.90625 21.640625 
z
M 24.90625 1 
C 18.09375 1 16.40625 8.875 16.40625 10.078125 
C 16.40625 10.671875 18.90625 20.140625 19.203125 21.640625 
C 24.296875 41.5 34.09375 41.984375 35.59375 41.984375 
C 40.09375 41.984375 42.59375 37.90625 42.59375 32.015625 
C 42.59375 26.9375 39.90625 17.046875 38.203125 12.859375 
C 35.203125 5.984375 30 1 24.90625 1 
z
" id="CMMI12-26"/>
     <path d="M 14.296875 75 
L 1.40625 75 
L 1.40625 71.484375 
L 10.796875 71.484375 
L 10.796875 -21.5 
L 1.40625 -21.5 
L 1.40625 -25 
L 14.296875 -25 
z
" id="CMR17-93"/>
    </defs>
    <g transform="translate(352.486567 117.931831)rotate(-86.842577)scale(0.14 -0.14)">
     <use transform="scale(0.996264)" xlink:href="#CMR17-82"/>
     <use transform="translate(67.791102 0)scale(0.996264)" xlink:href="#CMR17-101"/>
     <use transform="translate(108.276762 0)scale(0.996264)" xlink:href="#CMR17-91"/>
     <use transform="translate(133.147821 0)scale(0.996264)" xlink:href="#CMMI12-26"/>
     <use transform="translate(183.462194 0)scale(0.996264)" xlink:href="#CMR17-93"/>
    </g>
   </g>
   <g id="Line3DCollection_3">
    <path d="M 306.200383 151.844913 
L 128.455269 114.391236 
L 18.673732 181.401716 
" style="fill:none;stroke:#b0b0b0;stroke-width:0.8;"/>
    <path d="M 308.974615 101.553635 
L 127.77329 65.53712 
L 15.711637 130.017993 
" style="fill:none;stroke:#b0b0b0;stroke-width:0.8;"/>
    <path d="M 311.859859 49.249922 
L 127.065205 14.812879 
L 12.626943 76.507523 
" style="fill:none;stroke:#b0b0b0;stroke-width:0.8;"/>
   </g>
   <g id="xtick_9">
    <g id="line2d_12">
     <path d="M 304.716942 151.532329 
L 309.170373 152.470736 
" style="fill:none;stroke:#000000;stroke-linecap:square;stroke-width:0.8;"/>
    </g>
    <g id="text_10">
     <!-- $0.0$ -->
     <defs>
      <path d="M 18.40625 4.796875 
C 18.40625 7.6875 16 9.6875 13.59375 9.6875 
C 10.703125 9.6875 8.703125 7.296875 8.703125 4.890625 
C 8.703125 2 11.09375 0 13.5 0 
C 16.40625 0 18.40625 2.390625 18.40625 4.796875 
z
" id="CMMI12-58"/>
     </defs>
     <g transform="translate(316.125655 159.613573)scale(0.14 -0.14)">
      <use transform="scale(0.996264)" xlink:href="#CMR17-48"/>
      <use transform="translate(45.690477 0)scale(0.996264)" xlink:href="#CMMI12-58"/>
      <use transform="translate(72.787654 0)scale(0.996264)" xlink:href="#CMR17-48"/>
     </g>
    </g>
   </g>
   <g id="xtick_10">
    <g id="line2d_13">
     <path d="M 307.4611 101.252801 
L 312.004878 102.155945 
" style="fill:none;stroke:#000000;stroke-linecap:square;stroke-width:0.8;"/>
    </g>
    <g id="text_11">
     <!-- $0.2$ -->
     <defs>
      <path d="M 41.703125 15.46875 
L 39.90625 15.46875 
C 38.90625 8.390625 38.09375 7.1875 37.703125 6.59375 
C 37.203125 5.796875 30 5.796875 28.59375 5.796875 
L 9.40625 5.796875 
C 13 9.6875 20 16.765625 28.5 24.9375 
C 34.59375 30.71875 41.703125 37.5 41.703125 47.390625 
C 41.703125 59.1875 32.296875 66 21.796875 66 
C 10.796875 66 4.09375 56.296875 4.09375 47.296875 
C 4.09375 43.390625 7 42.890625 8.203125 42.890625 
C 9.203125 42.890625 12.203125 43.484375 12.203125 46.984375 
C 12.203125 50.09375 9.59375 51 8.203125 51 
C 7.59375 51 7 50.890625 6.59375 50.6875 
C 8.5 59.1875 14.296875 63.390625 20.40625 63.390625 
C 29.09375 63.390625 34.796875 56.5 34.796875 47.390625 
C 34.796875 38.703125 29.703125 31.21875 24 24.734375 
L 4.09375 2.296875 
L 4.09375 0 
L 39.296875 0 
z
" id="CMR17-50"/>
     </defs>
     <g transform="translate(319.258876 109.394428)scale(0.14 -0.14)">
      <use transform="scale(0.996264)" xlink:href="#CMR17-48"/>
      <use transform="translate(45.690477 0)scale(0.996264)" xlink:href="#CMMI12-58"/>
      <use transform="translate(72.787654 0)scale(0.996264)" xlink:href="#CMR17-50"/>
     </g>
    </g>
   </g>
   <g id="xtick_11">
    <g id="line2d_14">
     <path d="M 310.315027 48.962037 
L 314.95289 49.826317 
" style="fill:none;stroke:#000000;stroke-linecap:square;stroke-width:0.8;"/>
    </g>
    <g id="text_12">
     <!-- $0.4$ -->
     <defs>
      <path d="M 33.59375 64.796875 
C 33.59375 66.890625 33.5 67 31.703125 67 
L 2 19.59375 
L 2 17 
L 27.796875 17 
L 27.796875 7.1875 
C 27.796875 3.59375 27.59375 2.59375 20.59375 2.59375 
L 18.703125 2.59375 
L 18.703125 0 
C 21.90625 0.1875 27.296875 0.1875 30.703125 0.1875 
C 34.09375 0.1875 39.5 0.1875 42.703125 0 
L 42.703125 2.59375 
L 40.796875 2.59375 
C 33.796875 2.59375 33.59375 3.59375 33.59375 7.1875 
L 33.59375 17 
L 43.796875 17 
L 43.796875 19.59375 
L 33.59375 19.59375 
z
M 28.09375 58.171875 
L 28.09375 19.59375 
L 4 19.59375 
z
" id="CMR17-52"/>
     </defs>
     <g transform="translate(322.517197 57.170204)scale(0.14 -0.14)">
      <use transform="scale(0.996264)" xlink:href="#CMR17-48"/>
      <use transform="translate(45.690477 0)scale(0.996264)" xlink:href="#CMMI12-58"/>
      <use transform="translate(72.787654 0)scale(0.996264)" xlink:href="#CMR17-52"/>
     </g>
    </g>
   </g>
  </g>
  <g id="axes_1">
   <g id="Poly3DCollection_1">
    <path clip-path="url(#p412372152a)" d="M 132.845082 120.676456 
L 132.812309 118.012344 
L 154.360293 122.567113 
L 154.371024 125.240582 
z
" style="fill:#5d0618;fill-opacity:0.8;"/>
    <path clip-path="url(#p412372152a)" d="M 119.978532 128.612396 
L 119.932128 125.932047 
L 132.812309 118.012344 
L 132.845082 120.676456 
z
" style="fill:#ba0c2f;fill-opacity:0.8;"/>
    <path clip-path="url(#p412372152a)" d="M 119.978532 128.612396 
L 132.845082 120.676456 
L 154.371024 125.240582 
L 141.634453 133.260847 
z
" style="fill:#74081d;fill-opacity:0.8;"/>
    <path clip-path="url(#p412372152a)" d="M 119.932128 125.932047 
L 141.610357 130.571057 
L 154.360293 122.567113 
L 132.812309 118.012344 
z
" style="fill:#a30a29;fill-opacity:0.8;"/>
    <path clip-path="url(#p412372152a)" d="M 141.634453 133.260847 
L 154.371024 125.240582 
L 154.360293 122.567113 
L 141.610357 130.571057 
z
" style="fill:#5d0618;fill-opacity:0.8;"/>
    <path clip-path="url(#p412372152a)" d="M 119.978532 128.612396 
L 141.634453 133.260847 
L 141.610357 130.571057 
L 119.932128 125.932047 
z
" style="fill:#ba0c2f;fill-opacity:0.8;"/>
   </g>
   <g id="Poly3DCollection_2">
    <path clip-path="url(#p412372152a)" d="M 176.125249 129.85311 
L 176.134825 127.672689 
L 198.139672 132.326713 
L 198.111407 134.514815 
z
" style="fill:#5d0618;fill-opacity:0.8;"/>
    <path clip-path="url(#p412372152a)" d="M 163.522163 137.959052 
L 163.521102 135.765302 
L 176.134825 127.672689 
L 176.125249 129.85311 
z
" style="fill:#ba0c2f;fill-opacity:0.8;"/>
    <path clip-path="url(#p412372152a)" d="M 163.522163 137.959052 
L 176.125249 129.85311 
L 198.111407 134.514815 
L 185.645405 142.707814 
z
" style="fill:#74081d;fill-opacity:0.8;"/>
    <path clip-path="url(#p412372152a)" d="M 163.521102 135.765302 
L 185.663268 140.506313 
L 198.139672 132.326713 
L 176.134825 127.672689 
z
" style="fill:#a30a29;fill-opacity:0.8;"/>
    <path clip-path="url(#p412372152a)" d="M 185.645405 142.707814 
L 198.111407 134.514815 
L 198.139672 132.326713 
L 185.663268 140.506313 
z
" style="fill:#5d0618;fill-opacity:0.8;"/>
    <path clip-path="url(#p412372152a)" d="M 163.522163 137.959052 
L 185.645405 142.707814 
L 185.663268 140.506313 
L 163.521102 135.765302 
z
" style="fill:#ba0c2f;fill-opacity:0.8;"/>
   </g>
   <g id="Poly3DCollection_3">
    <path clip-path="url(#p412372152a)" d="M 106.873795 136.695247 
L 106.75382 131.350737 
L 128.585604 136.066963 
L 128.660833 141.430383 
z
" style="fill:#5d0618;fill-opacity:0.8;"/>
    <path clip-path="url(#p412372152a)" d="M 93.524194 144.929127 
L 93.375172 139.551804 
L 106.75382 131.350737 
L 106.873795 136.695247 
z
" style="fill:#ba0c2f;fill-opacity:0.8;"/>
    <path clip-path="url(#p412372152a)" d="M 93.524194 144.929127 
L 106.873795 136.695247 
L 128.660833 141.430383 
L 115.443485 149.753395 
z
" style="fill:#74081d;fill-opacity:0.8;"/>
    <path clip-path="url(#p412372152a)" d="M 93.375172 139.551804 
L 115.339751 144.356994 
L 128.585604 136.066963 
L 106.75382 131.350737 
z
" style="fill:#a30a29;fill-opacity:0.8;"/>
    <path clip-path="url(#p412372152a)" d="M 115.443485 149.753395 
L 128.660833 141.430383 
L 128.585604 136.066963 
L 115.339751 144.356994 
z
" style="fill:#5d0618;fill-opacity:0.8;"/>
    <path clip-path="url(#p412372152a)" d="M 93.524194 144.929127 
L 115.443485 149.753395 
L 115.339751 144.356994 
L 93.375172 139.551804 
z
" style="fill:#ba0c2f;fill-opacity:0.8;"/>
   </g>
   <g id="Poly3DCollection_4">
    <path clip-path="url(#p412372152a)" d="M 220.333229 139.226487 
L 220.415833 135.396213 
L 242.911145 140.145109 
L 242.794523 143.988934 
z
" style="fill:#5d0618;fill-opacity:0.8;"/>
    <path clip-path="url(#p412372152a)" d="M 208.008002 147.507954 
L 208.072886 143.654164 
L 220.415833 135.396213 
L 220.333229 139.226487 
z
" style="fill:#ba0c2f;fill-opacity:0.8;"/>
    <path clip-path="url(#p412372152a)" d="M 208.008002 147.507954 
L 220.333229 139.226487 
L 242.794523 143.988934 
L 230.613859 152.360309 
z
" style="fill:#74081d;fill-opacity:0.8;"/>
    <path clip-path="url(#p412372152a)" d="M 208.072886 143.654164 
L 230.713202 148.492848 
L 242.911145 140.145109 
L 220.415833 135.396213 
z
" style="fill:#a30a29;fill-opacity:0.8;"/>
    <path clip-path="url(#p412372152a)" d="M 230.613859 152.360309 
L 242.794523 143.988934 
L 242.911145 140.145109 
L 230.713202 148.492848 
z
" style="fill:#5d0618;fill-opacity:0.8;"/>
    <path clip-path="url(#p412372152a)" d="M 208.008002 147.507954 
L 230.613859 152.360309 
L 230.713202 148.492848 
L 208.072886 143.654164 
z
" style="fill:#ba0c2f;fill-opacity:0.8;"/>
   </g>
   <g id="Poly3DCollection_5">
    <path clip-path="url(#p412372152a)" d="M 150.683246 146.216674 
L 150.777105 163.33873 
L 172.890093 168.236965 
L 172.944871 151.054955 
z
" style="fill:#ba0c2f;fill-opacity:0.8;"/>
    <path clip-path="url(#p412372152a)" d="M 137.784542 171.856359 
L 160.035349 176.847178 
L 172.890093 168.236965 
L 150.777105 163.33873 
z
" style="fill:#a30a29;fill-opacity:0.8;"/>
    <path clip-path="url(#p412372152a)" d="M 137.601817 154.630273 
L 137.784542 171.856359 
L 150.777105 163.33873 
L 150.683246 146.216674 
z
" style="fill:#5d0618;fill-opacity:0.8;"/>
    <path clip-path="url(#p412372152a)" d="M 160.003122 159.560629 
L 172.944871 151.054955 
L 172.890093 168.236965 
L 160.035349 176.847178 
z
" style="fill:#ba0c2f;fill-opacity:0.8;"/>
    <path clip-path="url(#p412372152a)" d="M 137.601817 154.630273 
L 150.683246 146.216674 
L 172.944871 151.054955 
L 160.003122 159.560629 
z
" style="fill:#74081d;fill-opacity:0.8;"/>
    <path clip-path="url(#p412372152a)" d="M 137.601817 154.630273 
L 160.003122 159.560629 
L 160.035349 176.847178 
L 137.784542 171.856359 
z
" style="fill:#5d0618;fill-opacity:0.8;"/>
   </g>
   <g id="Poly3DCollection_6">
    <path clip-path="url(#p412372152a)" d="M 79.922801 153.318309 
L 79.656183 145.266242 
L 101.777071 150.153493 
L 101.975475 158.234249 
z
" style="fill:#5d0618;fill-opacity:0.8;"/>
    <path clip-path="url(#p412372152a)" d="M 66.062426 161.867229 
L 65.74929 153.765379 
L 79.656183 145.266242 
L 79.922801 153.318309 
z
" style="fill:#ba0c2f;fill-opacity:0.8;"/>
    <path clip-path="url(#p412372152a)" d="M 66.062426 161.867229 
L 79.922801 153.318309 
L 101.975475 158.234249 
L 88.249605 166.87748 
z
" style="fill:#74081d;fill-opacity:0.8;"/>
    <path clip-path="url(#p412372152a)" d="M 65.74929 153.765379 
L 88.005511 158.746691 
L 101.777071 150.153493 
L 79.656183 145.266242 
z
" style="fill:#a30a29;fill-opacity:0.8;"/>
    <path clip-path="url(#p412372152a)" d="M 88.249605 166.87748 
L 101.975475 158.234249 
L 101.777071 150.153493 
L 88.005511 158.746691 
z
" style="fill:#5d0618;fill-opacity:0.8;"/>
    <path clip-path="url(#p412372152a)" d="M 66.062426 161.867229 
L 88.249605 166.87748 
L 88.005511 158.746691 
L 65.74929 153.765379 
z
" style="fill:#ba0c2f;fill-opacity:0.8;"/>
   </g>
   <g id="Poly3DCollection_7">
    <path clip-path="url(#p412372152a)" d="M 241.204628 165.890345 
L 241.321693 161.985181 
L 264.616691 167.026198 
L 264.463156 170.94529 
z
" style="fill:#5d0618;fill-opacity:0.8;"/>
    <path clip-path="url(#p412372152a)" d="M 228.705504 174.681495 
L 228.804373 170.752163 
L 241.321693 161.985181 
L 241.204628 165.890345 
z
" style="fill:#ba0c2f;fill-opacity:0.8;"/>
    <path clip-path="url(#p412372152a)" d="M 228.705504 174.681495 
L 241.204628 165.890345 
L 264.463156 170.94529 
L 252.119788 179.834799 
z
" style="fill:#74081d;fill-opacity:0.8;"/>
    <path clip-path="url(#p412372152a)" d="M 228.804373 170.752163 
L 252.255621 175.891419 
L 264.616691 167.026198 
L 241.321693 161.985181 
z
" style="fill:#a30a29;fill-opacity:0.8;"/>
    <path clip-path="url(#p412372152a)" d="M 252.119788 179.834799 
L 264.463156 170.94529 
L 264.616691 167.026198 
L 252.255621 175.891419 
z
" style="fill:#5d0618;fill-opacity:0.8;"/>
    <path clip-path="url(#p412372152a)" d="M 228.705504 174.681495 
L 252.119788 179.834799 
L 252.255621 175.891419 
L 228.804373 170.752163 
z
" style="fill:#ba0c2f;fill-opacity:0.8;"/>
   </g>
   <g id="Poly3DCollection_8">
    <path clip-path="url(#p412372152a)" d="M 253.466966 157.265737 
L 265.499182 148.802982 
L 288.451182 153.669473 
L 276.571402 162.225113 
z
" style="fill:#74081d;fill-opacity:0.8;"/>
    <path clip-path="url(#p412372152a)" d="M 265.499182 148.802982 
L 267.675584 93.341741 
L 291.13836 98.005307 
L 288.451182 153.669473 
z
" style="fill:#5d0618;fill-opacity:0.8;"/>
    <path clip-path="url(#p412372152a)" d="M 253.466966 157.265737 
L 255.401946 101.452317 
L 267.675584 93.341741 
L 265.499182 148.802982 
z
" style="fill:#ba0c2f;fill-opacity:0.8;"/>
    <path clip-path="url(#p412372152a)" d="M 276.571402 162.225113 
L 288.451182 153.669473 
L 291.13836 98.005307 
L 279.024118 106.206851 
z
" style="fill:#5d0618;fill-opacity:0.8;"/>
    <path clip-path="url(#p412372152a)" d="M 253.466966 157.265737 
L 276.571402 162.225113 
L 279.024118 106.206851 
L 255.401946 101.452317 
z
" style="fill:#ba0c2f;fill-opacity:0.8;"/>
    <path clip-path="url(#p412372152a)" d="M 255.401946 101.452317 
L 279.024118 106.206851 
L 291.13836 98.005307 
L 267.675584 93.341741 
z
" style="fill:#a30a29;fill-opacity:0.8;"/>
   </g>
   <g id="Poly3DCollection_9">
    <path clip-path="url(#p412372152a)" d="M 169.606445 173.310417 
L 169.573234 190.763642 
L 192.462326 195.96309 
L 192.654825 178.448318 
z
" style="fill:#ba0c2f;fill-opacity:0.8;"/>
    <path clip-path="url(#p412372152a)" d="M 156.366146 199.806146 
L 179.403624 205.106891 
L 192.462326 195.96309 
L 169.573234 190.763642 
z
" style="fill:#a30a29;fill-opacity:0.8;"/>
    <path clip-path="url(#p412372152a)" d="M 156.307501 182.246136 
L 156.366146 199.806146 
L 169.573234 190.763642 
L 169.606445 173.310417 
z
" style="fill:#5d0618;fill-opacity:0.8;"/>
    <path clip-path="url(#p412372152a)" d="M 179.506347 187.484838 
L 192.654825 178.448318 
L 192.462326 195.96309 
L 179.403624 205.106891 
z
" style="fill:#ba0c2f;fill-opacity:0.8;"/>
    <path clip-path="url(#p412372152a)" d="M 156.307501 182.246136 
L 169.606445 173.310417 
L 192.654825 178.448318 
L 179.506347 187.484838 
z
" style="fill:#74081d;fill-opacity:0.8;"/>
    <path clip-path="url(#p412372152a)" d="M 156.307501 182.246136 
L 179.506347 187.484838 
L 179.403624 205.106891 
L 156.366146 199.806146 
z
" style="fill:#5d0618;fill-opacity:0.8;"/>
   </g>
   <g id="Poly3DCollection_10">
    <path clip-path="url(#p412372152a)" d="M 110.683405 171.943422 
L 124.270938 163.204312 
L 146.813221 168.229394 
L 133.367961 177.065989 
z
" style="fill:#74081d;fill-opacity:0.8;"/>
    <path clip-path="url(#p412372152a)" d="M 124.270938 163.204312 
L 123.744707 130.036597 
L 146.578599 134.941353 
L 146.813221 168.229394 
z
" style="fill:#5d0618;fill-opacity:0.8;"/>
    <path clip-path="url(#p412372152a)" d="M 110.683405 171.943422 
L 109.973763 138.566901 
L 123.744707 130.036597 
L 124.270938 163.204312 
z
" style="fill:#ba0c2f;fill-opacity:0.8;"/>
    <path clip-path="url(#p412372152a)" d="M 133.367961 177.065989 
L 146.813221 168.229394 
L 146.578599 134.941353 
L 132.953626 143.568065 
z
" style="fill:#5d0618;fill-opacity:0.8;"/>
    <path clip-path="url(#p412372152a)" d="M 110.683405 171.943422 
L 133.367961 177.065989 
L 132.953626 143.568065 
L 109.973763 138.566901 
z
" style="fill:#ba0c2f;fill-opacity:0.8;"/>
    <path clip-path="url(#p412372152a)" d="M 109.973763 138.566901 
L 132.953626 143.568065 
L 146.578599 134.941353 
L 123.744707 130.036597 
z
" style="fill:#a30a29;fill-opacity:0.8;"/>
   </g>
   <g id="Poly3DCollection_11">
    <path clip-path="url(#p412372152a)" d="M 182.651418 164.545345 
L 195.449624 155.946077 
L 218.201513 160.890911 
L 205.550812 169.585325 
z
" style="fill:#74081d;fill-opacity:0.8;"/>
    <path clip-path="url(#p412372152a)" d="M 195.449624 155.946077 
L 196.101853 101.529519 
L 219.343778 106.274888 
L 218.201513 160.890911 
z
" style="fill:#5d0618;fill-opacity:0.8;"/>
    <path clip-path="url(#p412372152a)" d="M 182.651418 164.545345 
L 183.035285 109.782622 
L 196.101853 101.529519 
L 195.449624 155.946077 
z
" style="fill:#ba0c2f;fill-opacity:0.8;"/>
    <path clip-path="url(#p412372152a)" d="M 205.550812 169.585325 
L 218.201513 160.890911 
L 219.343778 106.274888 
L 206.431189 114.621275 
z
" style="fill:#5d0618;fill-opacity:0.8;"/>
    <path clip-path="url(#p412372152a)" d="M 182.651418 164.545345 
L 205.550812 169.585325 
L 206.431189 114.621275 
L 183.035285 109.782622 
z
" style="fill:#ba0c2f;fill-opacity:0.8;"/>
    <path clip-path="url(#p412372152a)" d="M 183.035285 109.782622 
L 206.431189 114.621275 
L 219.343778 106.274888 
L 196.101853 101.529519 
z
" style="fill:#a30a29;fill-opacity:0.8;"/>
   </g>
   <g id="Poly3DCollection_12">
    <path clip-path="url(#p412372152a)" d="M 96.831736 180.852417 
L 96.611685 172.641832 
L 119.512919 177.835275 
L 119.659855 186.075333 
z
" style="fill:#5d0618;fill-opacity:0.8;"/>
    <path clip-path="url(#p412372152a)" d="M 82.708151 189.936301 
L 82.439736 181.674576 
L 96.611685 172.641832 
L 96.831736 180.852417 
z
" style="fill:#ba0c2f;fill-opacity:0.8;"/>
    <path clip-path="url(#p412372152a)" d="M 82.708151 189.936301 
L 96.831736 180.852417 
L 119.659855 186.075333 
L 105.681119 195.262543 
z
" style="fill:#74081d;fill-opacity:0.8;"/>
    <path clip-path="url(#p412372152a)" d="M 82.439736 181.674576 
L 105.486742 186.971101 
L 119.512919 177.835275 
L 96.611685 172.641832 
z
" style="fill:#a30a29;fill-opacity:0.8;"/>
    <path clip-path="url(#p412372152a)" d="M 105.681119 195.262543 
L 119.659855 186.075333 
L 119.512919 177.835275 
L 105.486742 186.971101 
z
" style="fill:#5d0618;fill-opacity:0.8;"/>
    <path clip-path="url(#p412372152a)" d="M 82.708151 189.936301 
L 105.681119 195.262543 
L 105.486742 186.971101 
L 82.439736 181.674576 
z
" style="fill:#ba0c2f;fill-opacity:0.8;"/>
   </g>
   <g id="Poly3DCollection_13">
    <path clip-path="url(#p412372152a)" d="M 215.962669 183.644058 
L 216.008493 181.377546 
L 239.601686 186.623996 
L 239.534382 188.898619 
z
" style="fill:#5d0618;fill-opacity:0.8;"/>
    <path clip-path="url(#p412372152a)" d="M 202.968923 192.783096 
L 203.003454 190.502511 
L 216.008493 181.377546 
L 215.962669 183.644058 
z
" style="fill:#ba0c2f;fill-opacity:0.8;"/>
    <path clip-path="url(#p412372152a)" d="M 202.968923 192.783096 
L 215.962669 183.644058 
L 239.534382 188.898619 
L 226.69975 198.141929 
z
" style="fill:#74081d;fill-opacity:0.8;"/>
    <path clip-path="url(#p412372152a)" d="M 203.003454 190.502511 
L 226.756052 195.853167 
L 239.601686 186.623996 
L 216.008493 181.377546 
z
" style="fill:#a30a29;fill-opacity:0.8;"/>
    <path clip-path="url(#p412372152a)" d="M 226.69975 198.141929 
L 239.534382 188.898619 
L 239.601686 186.623996 
L 226.756052 195.853167 
z
" style="fill:#5d0618;fill-opacity:0.8;"/>
    <path clip-path="url(#p412372152a)" d="M 202.968923 192.783096 
L 226.69975 198.141929 
L 226.756052 195.853167 
L 203.003454 190.502511 
z
" style="fill:#ba0c2f;fill-opacity:0.8;"/>
   </g>
   <g id="Poly3DCollection_14">
    <path clip-path="url(#p412372152a)" d="M 142.747095 191.357534 
L 142.698623 185.801132 
L 166.100834 191.123674 
L 166.097891 196.700034 
z
" style="fill:#5d0618;fill-opacity:0.8;"/>
    <path clip-path="url(#p412372152a)" d="M 128.91744 200.649843 
L 128.837742 195.058813 
L 142.698623 185.801132 
L 142.747095 191.357534 
z
" style="fill:#ba0c2f;fill-opacity:0.8;"/>
    <path clip-path="url(#p412372152a)" d="M 128.91744 200.649843 
L 142.747095 191.357534 
L 166.097891 196.700034 
L 152.421668 206.099257 
z
" style="fill:#74081d;fill-opacity:0.8;"/>
    <path clip-path="url(#p412372152a)" d="M 128.837742 195.058813 
L 152.394062 200.488108 
L 166.100834 191.123674 
L 142.698623 185.801132 
z
" style="fill:#a30a29;fill-opacity:0.8;"/>
    <path clip-path="url(#p412372152a)" d="M 152.421668 206.099257 
L 166.097891 196.700034 
L 166.100834 191.123674 
L 152.394062 200.488108 
z
" style="fill:#5d0618;fill-opacity:0.8;"/>
    <path clip-path="url(#p412372152a)" d="M 128.91744 200.649843 
L 152.421668 206.099257 
L 152.394062 200.488108 
L 128.837742 195.058813 
z
" style="fill:#ba0c2f;fill-opacity:0.8;"/>
   </g>
   <g id="Poly3DCollection_15">
    <path clip-path="url(#p412372152a)" d="M 189.716783 202.103873 
L 189.744808 199.280251 
L 213.663594 204.736345 
L 213.608414 207.570113 
z
" style="fill:#5d0618;fill-opacity:0.8;"/>
    <path clip-path="url(#p412372152a)" d="M 176.198463 211.611866 
L 176.211432 208.770642 
L 189.744808 199.280251 
L 189.716783 202.103873 
z
" style="fill:#ba0c2f;fill-opacity:0.8;"/>
    <path clip-path="url(#p412372152a)" d="M 176.198463 211.611866 
L 189.716783 202.103873 
L 213.608414 207.570113 
L 200.252595 217.188774 
z
" style="fill:#74081d;fill-opacity:0.8;"/>
    <path clip-path="url(#p412372152a)" d="M 176.211432 208.770642 
L 200.293091 214.337326 
L 213.663594 204.736345 
L 189.744808 199.280251 
z
" style="fill:#a30a29;fill-opacity:0.8;"/>
    <path clip-path="url(#p412372152a)" d="M 200.252595 217.188774 
L 213.608414 207.570113 
L 213.663594 204.736345 
L 200.293091 214.337326 
z
" style="fill:#5d0618;fill-opacity:0.8;"/>
    <path clip-path="url(#p412372152a)" d="M 176.198463 211.611866 
L 200.252595 217.188774 
L 200.293091 214.337326 
L 176.211432 208.770642 
z
" style="fill:#ba0c2f;fill-opacity:0.8;"/>
   </g>
   <g id="Poly3DCollection_16">
    <path clip-path="url(#p412372152a)" d="M 24.609945 180.791493 
L 204.019893 222.582694 
L 300.629837 152.417547 
L 129.828038 116.35673 
z
" style="fill-opacity:0.15;"/>
   </g>
   <g id="Poly3DCollection_17">
    <path clip-path="url(#p412372152a)" d="M 37.534565 179.462884 
L 51.9356 170.580492 
L 74.258398 175.687794 
L 59.994084 184.670084 
z
" style="fill:#74081d;fill-opacity:0.8;"/>
    <path clip-path="url(#p412372152a)" d="M 51.9356 170.580492 
L 46.933544 57.750519 
L 70.222556 62.427839 
L 74.258398 175.687794 
z
" style="fill:#5d0618;fill-opacity:0.8;"/>
    <path clip-path="url(#p412372152a)" d="M 37.534565 179.462884 
L 31.836896 65.886594 
L 46.933544 57.750519 
L 51.9356 170.580492 
z
" style="fill:#ba0c2f;fill-opacity:0.8;"/>
    <path clip-path="url(#p412372152a)" d="M 59.994084 184.670084 
L 74.258398 175.687794 
L 70.222556 62.427839 
L 55.274545 70.659531 
z
" style="fill:#5d0618;fill-opacity:0.8;"/>
    <path clip-path="url(#p412372152a)" d="M 37.534565 179.462884 
L 59.994084 184.670084 
L 55.274545 70.659531 
L 31.836896 65.886594 
z
" style="fill:#ba0c2f;fill-opacity:0.8;"/>
    <path clip-path="url(#p412372152a)" d="M 31.836896 65.886594 
L 55.274545 70.659531 
L 70.222556 62.427839 
L 46.933544 57.750519 
z
" style="fill:#a30a29;fill-opacity:0.8;"/>
   </g>
  </g>
  <g id="patch_6">
   <path d="M 425.945455 262.8 
L 806.4 262.8 
L 806.4 -14.4 
L 425.945455 -14.4 
z
" style="fill:#ffffff;"/>
  </g>
  <g id="pane3d_4">
   <g id="patch_7">
    <path d="M 476.380584 201.548569 
L 585.268665 133.58541 
L 583.455794 3.718968 
L 468.496488 64.782468 
" style="fill:#f2f2f2;opacity:0.5;stroke:#f2f2f2;stroke-linejoin:miter;"/>
   </g>
  </g>
  <g id="pane3d_5">
   <g id="patch_8">
    <path d="M 585.268665 133.58541 
L 761.65712 171.581202 
L 769.037001 37.79869 
L 583.455794 3.718968 
" style="fill:#e6e6e6;opacity:0.5;stroke:#e6e6e6;stroke-linejoin:miter;"/>
   </g>
  </g>
  <g id="pane3d_6">
   <g id="patch_9">
    <path d="M 476.380584 201.548569 
L 661.965072 245.80086 
L 761.65712 171.581202 
L 585.268665 133.58541 
" style="fill:#ececec;opacity:0.5;stroke:#ececec;stroke-linejoin:miter;"/>
   </g>
  </g>
  <g id="axis3d_4">
   <g id="line2d_15">
    <path d="M 476.380584 201.548569 
L 661.965072 245.80086 
" style="fill:none;stroke:#000000;stroke-linecap:square;stroke-width:0.8;"/>
   </g>
   <g id="Line3DCollection_4">
    <path d="M 498.841271 206.90428 
L 606.679397 138.19749 
L 605.9393 7.847789 
" style="fill:none;stroke:#b0b0b0;stroke-width:0.8;"/>
    <path d="M 544.057792 217.686079 
L 649.729469 147.470895 
L 651.182353 16.156123 
" style="fill:none;stroke:#b0b0b0;stroke-width:0.8;"/>
    <path d="M 590.310744 228.715013 
L 693.693551 156.941187 
L 697.435637 24.649974 
" style="fill:none;stroke:#b0b0b0;stroke-width:0.8;"/>
    <path d="M 637.636176 239.999678 
L 738.601063 166.614702 
L 744.733372 33.335625 
" style="fill:none;stroke:#b0b0b0;stroke-width:0.8;"/>
   </g>
   <g id="xtick_12">
    <g id="line2d_16">
     <path d="M 499.770538 206.312217 
L 496.979262 208.09062 
" style="fill:none;stroke:#000000;stroke-linecap:square;stroke-width:0.8;"/>
    </g>
    <g id="text_13">
     <!-- 00 -->
     <g transform="translate(479.875817 237.14703)rotate(-45)scale(0.14 -0.14)">
      <use transform="scale(0.996264)" xlink:href="#CMR17-48"/>
      <use transform="translate(45.690477 0)scale(0.996264)" xlink:href="#CMR17-48"/>
     </g>
    </g>
   </g>
   <g id="xtick_13">
    <g id="line2d_17">
     <path d="M 544.969128 217.080527 
L 542.231671 218.899473 
" style="fill:none;stroke:#000000;stroke-linecap:square;stroke-width:0.8;"/>
    </g>
    <g id="text_14">
     <!-- 01 -->
     <g transform="translate(525.088242 248.103782)rotate(-45)scale(0.14 -0.14)">
      <use transform="scale(0.996264)" xlink:href="#CMR17-48"/>
      <use transform="translate(45.690477 0)scale(0.996264)" xlink:href="#CMR17-49"/>
     </g>
    </g>
   </g>
   <g id="xtick_14">
    <g id="line2d_18">
     <path d="M 591.20308 228.095506 
L 588.522658 229.956397 
" style="fill:none;stroke:#000000;stroke-linecap:square;stroke-width:0.8;"/>
    </g>
    <g id="text_15">
     <!-- 10 -->
     <g transform="translate(571.338855 259.312128)rotate(-45)scale(0.14 -0.14)">
      <use transform="scale(0.996264)" xlink:href="#CMR17-49"/>
      <use transform="translate(45.690477 0)scale(0.996264)" xlink:href="#CMR17-48"/>
     </g>
    </g>
   </g>
   <g id="xtick_15">
    <g id="line2d_19">
     <path d="M 638.50838 239.365727 
L 635.888391 241.270032 
" style="fill:none;stroke:#000000;stroke-linecap:square;stroke-width:0.8;"/>
    </g>
    <g id="text_16">
     <!-- 11 -->
     <g transform="translate(618.66383 270.780834)rotate(-45)scale(0.14 -0.14)">
      <use transform="scale(0.996264)" xlink:href="#CMR17-49"/>
      <use transform="translate(45.690477 0)scale(0.996264)" xlink:href="#CMR17-49"/>
     </g>
    </g>
   </g>
  </g>
  <g id="axis3d_5">
   <g id="line2d_20">
    <path d="M 761.65712 171.581202 
L 661.965072 245.80086 
" style="fill:none;stroke:#000000;stroke-linecap:square;stroke-width:0.8;"/>
   </g>
   <g id="Line3DCollection_5">
    <path d="M 484.000685 56.547028 
L 491.016499 192.413474 
L 675.403872 235.795817 
" style="fill:none;stroke:#b0b0b0;stroke-width:0.8;"/>
    <path d="M 513.777478 40.730342 
L 519.168861 174.842005 
L 701.219492 216.576366 
" style="fill:none;stroke:#b0b0b0;stroke-width:0.8;"/>
    <path d="M 542.401344 25.526062 
L 546.284836 157.917404 
L 726.04244 198.095948 
" style="fill:none;stroke:#b0b0b0;stroke-width:0.8;"/>
    <path d="M 569.937971 10.899296 
L 572.420618 141.604597 
L 749.928893 180.312741 
" style="fill:none;stroke:#b0b0b0;stroke-width:0.8;"/>
   </g>
   <g id="xtick_16">
    <g id="line2d_21">
     <path d="M 673.861052 235.432825 
L 678.492943 236.522608 
" style="fill:none;stroke:#000000;stroke-linecap:square;stroke-width:0.8;"/>
    </g>
    <g id="text_17">
     <!-- 00 -->
     <g transform="translate(689.195824 248.348363)rotate(-337.5)scale(0.14 -0.14)">
      <use transform="scale(0.996264)" xlink:href="#CMR17-48"/>
      <use transform="translate(45.690477 0)scale(0.996264)" xlink:href="#CMR17-48"/>
     </g>
    </g>
   </g>
   <g id="xtick_17">
    <g id="line2d_22">
     <path d="M 699.697534 216.227463 
L 704.266725 217.274932 
" style="fill:none;stroke:#000000;stroke-linecap:square;stroke-width:0.8;"/>
    </g>
    <g id="text_18">
     <!-- 01 -->
     <g transform="translate(714.749375 228.903937)rotate(-337.5)scale(0.14 -0.14)">
      <use transform="scale(0.996264)" xlink:href="#CMR17-48"/>
      <use transform="translate(45.690477 0)scale(0.996264)" xlink:href="#CMR17-49"/>
     </g>
    </g>
   </g>
   <g id="xtick_18">
    <g id="line2d_23">
     <path d="M 724.540896 197.76033 
L 729.048738 198.767901 
" style="fill:none;stroke:#000000;stroke-linecap:square;stroke-width:0.8;"/>
    </g>
    <g id="text_19">
     <!-- 10 -->
     <g transform="translate(739.320787 210.206849)rotate(-337.5)scale(0.14 -0.14)">
      <use transform="scale(0.996264)" xlink:href="#CMR17-49"/>
      <use transform="translate(45.690477 0)scale(0.996264)" xlink:href="#CMR17-48"/>
     </g>
    </g>
   </g>
   <g id="xtick_19">
    <g id="line2d_24">
     <path d="M 748.44732 179.989663 
L 752.895146 180.959573 
" style="fill:none;stroke:#000000;stroke-linecap:square;stroke-width:0.8;"/>
    </g>
    <g id="text_20">
     <!-- 11 -->
     <g transform="translate(762.965613 192.214827)rotate(-337.5)scale(0.14 -0.14)">
      <use transform="scale(0.996264)" xlink:href="#CMR17-49"/>
      <use transform="translate(45.690477 0)scale(0.996264)" xlink:href="#CMR17-49"/>
     </g>
    </g>
   </g>
  </g>
  <g id="axis3d_6">
   <g id="line2d_25">
    <path d="M 761.65712 171.581202 
L 769.037001 37.79869 
" style="fill:none;stroke:#000000;stroke-linecap:square;stroke-width:0.8;"/>
   </g>
   <g id="text_21">
    <!-- Im[$\rho$] -->
    <defs>
     <path d="M 19.703125 60.90625 
C 19.703125 65.390625 20.90625 65.390625 28.09375 65.390625 
L 28.09375 68 
C 24.90625 67.796875 19.796875 67.796875 16.40625 67.796875 
C 13 67.796875 7.90625 67.796875 4.703125 68 
L 4.703125 65.390625 
C 11.90625 65.390625 13.09375 65.390625 13.09375 60.90625 
L 13.09375 7.078125 
C 13.09375 2.59375 11.90625 2.59375 4.703125 2.59375 
L 4.703125 0 
C 7.90625 0.1875 13 0.1875 16.40625 0.1875 
C 19.796875 0.1875 24.90625 0.1875 28.09375 0 
L 28.09375 2.59375 
C 20.90625 2.59375 19.703125 2.59375 19.703125 7.078125 
z
" id="CMR17-73"/>
     <path d="M 67.59375 30.53125 
C 67.59375 35.5625 66.703125 44 54.796875 44 
C 48 44 43.296875 39.375 41.5 33.953125 
L 41.40625 33.953125 
C 40.203125 42.1875 34.296875 44 28.703125 44 
C 20.796875 44 16.703125 37.875 15.203125 33.84375 
L 15.09375 33.84375 
L 15.09375 44 
L 3.296875 42.890625 
L 3.296875 40.28125 
C 9.203125 40.28125 10.09375 39.6875 10.09375 34.859375 
L 10.09375 6.921875 
C 10.09375 3.09375 9.703125 2.59375 3.296875 2.59375 
L 3.296875 0 
C 5.703125 0.1875 10.09375 0.1875 12.703125 0.1875 
C 15.296875 0.1875 19.796875 0.1875 22.203125 0 
L 22.203125 2.59375 
C 15.796875 2.59375 15.40625 3 15.40625 6.921875 
L 15.40625 26.21875 
C 15.40625 35.453125 21 42.390625 28 42.390625 
C 35.40625 42.390625 36.203125 35.765625 36.203125 30.9375 
L 36.203125 6.921875 
C 36.203125 3.09375 35.796875 2.59375 29.40625 2.59375 
L 29.40625 0 
C 31.796875 0.1875 36.203125 0.1875 38.796875 0.1875 
C 41.40625 0.1875 45.90625 0.1875 48.296875 0 
L 48.296875 2.59375 
C 41.90625 2.59375 41.5 3 41.5 6.921875 
L 41.5 26.21875 
C 41.5 35.453125 47.09375 42.390625 54.09375 42.390625 
C 61.5 42.390625 62.296875 35.765625 62.296875 30.9375 
L 62.296875 6.921875 
C 62.296875 3.09375 61.90625 2.59375 55.5 2.59375 
L 55.5 0 
C 57.90625 0.1875 62.296875 0.1875 64.90625 0.1875 
C 67.5 0.1875 72 0.1875 74.40625 0 
L 74.40625 2.59375 
C 68 2.59375 67.59375 3 67.59375 6.921875 
z
" id="CMR17-109"/>
    </defs>
    <g transform="translate(809.026865 118.025317)rotate(-86.842577)scale(0.14 -0.14)">
     <use transform="scale(0.996264)" xlink:href="#CMR17-73"/>
     <use transform="translate(32.638409 0)scale(0.996264)" xlink:href="#CMR17-109"/>
     <use transform="translate(109.557999 0)scale(0.996264)" xlink:href="#CMR17-91"/>
     <use transform="translate(134.429058 0)scale(0.996264)" xlink:href="#CMMI12-26"/>
     <use transform="translate(184.74343 0)scale(0.996264)" xlink:href="#CMR17-93"/>
    </g>
   </g>
   <g id="Line3DCollection_6">
    <path d="M 762.558304 155.244527 
L 585.046865 117.69659 
L 475.419282 184.87278 
" style="fill:none;stroke:#b0b0b0;stroke-width:0.8;"/>
    <path d="M 763.972473 129.608467 
L 584.699047 92.780365 
L 473.90996 158.690441 
" style="fill:none;stroke:#b0b0b0;stroke-width:0.8;"/>
    <path d="M 765.415247 103.453868 
L 584.344493 67.381596 
L 472.369083 131.960712 
" style="fill:none;stroke:#b0b0b0;stroke-width:0.8;"/>
    <path d="M 766.887501 76.764836 
L 583.983005 41.48613 
L 470.795651 104.666246 
" style="fill:none;stroke:#b0b0b0;stroke-width:0.8;"/>
    <path d="M 768.39015 49.524821 
L 583.614378 15.079251 
L 469.188621 76.788953 
" style="fill:none;stroke:#b0b0b0;stroke-width:0.8;"/>
   </g>
   <g id="xtick_20">
    <g id="line2d_26">
     <path d="M 761.076895 154.931173 
L 765.524222 155.87189 
" style="fill:none;stroke:#000000;stroke-linecap:square;stroke-width:0.8;"/>
    </g>
    <g id="text_22">
     <!-- $0.0$ -->
     <g transform="translate(772.459299 163.008462)scale(0.14 -0.14)">
      <use transform="scale(0.996264)" xlink:href="#CMR17-48"/>
      <use transform="translate(45.690477 0)scale(0.996264)" xlink:href="#CMMI12-58"/>
      <use transform="translate(72.787654 0)scale(0.996264)" xlink:href="#CMR17-48"/>
     </g>
    </g>
   </g>
   <g id="xtick_21">
    <g id="line2d_27">
     <path d="M 762.475739 129.300993 
L 766.969103 130.224064 
" style="fill:none;stroke:#000000;stroke-linecap:square;stroke-width:0.8;"/>
    </g>
    <g id="text_23">
     <!-- $0.1$ -->
     <g transform="translate(774.056505 137.408501)scale(0.14 -0.14)">
      <use transform="scale(0.996264)" xlink:href="#CMR17-48"/>
      <use transform="translate(45.690477 0)scale(0.996264)" xlink:href="#CMMI12-58"/>
      <use transform="translate(72.787654 0)scale(0.996264)" xlink:href="#CMR17-49"/>
     </g>
    </g>
   </g>
   <g id="xtick_22">
    <g id="line2d_28">
     <path d="M 763.902868 103.152577 
L 768.44323 104.057092 
" style="fill:none;stroke:#000000;stroke-linecap:square;stroke-width:0.8;"/>
    </g>
    <g id="text_24">
     <!-- $0.2$ -->
     <g transform="translate(775.685948 111.291859)scale(0.14 -0.14)">
      <use transform="scale(0.996264)" xlink:href="#CMR17-48"/>
      <use transform="translate(45.690477 0)scale(0.996264)" xlink:href="#CMMI12-58"/>
      <use transform="translate(72.787654 0)scale(0.996264)" xlink:href="#CMR17-50"/>
     </g>
    </g>
   </g>
   <g id="xtick_23">
    <g id="line2d_29">
     <path d="M 765.359148 76.470046 
L 769.947501 77.35505 
" style="fill:none;stroke:#000000;stroke-linecap:square;stroke-width:0.8;"/>
    </g>
    <g id="text_25">
     <!-- $0.3$ -->
     <defs>
      <path d="M 22.09375 34 
C 31 34 34.90625 26.140625 34.90625 17.09375 
C 34.90625 5.03125 28.5 0.390625 22.703125 0.390625 
C 17.40625 0.390625 8.796875 3.015625 6.09375 10.796875 
C 6.59375 10.59375 7.09375 10.59375 7.59375 10.59375 
C 10 10.59375 11.796875 12.1875 11.796875 14.796875 
C 11.796875 17.6875 9.59375 19 7.59375 19 
C 5.90625 19 3.296875 18.1875 3.296875 14.484375 
C 3.296875 5.234375 12.296875 -2 22.90625 -2 
C 34 -2 42.5 6.75 42.5 16.984375 
C 42.5 26.84375 34.5 34 25 35.09375 
C 32.59375 36.671875 39.90625 43.375 39.90625 52.390625 
C 39.90625 60.25 32 66 23 66 
C 13.90625 66 5.90625 60.34375 5.90625 52.296875 
C 5.90625 48.796875 8.5 48.1875 9.796875 48.1875 
C 11.90625 48.1875 13.703125 49.484375 13.703125 52.09375 
C 13.703125 54.6875 11.90625 56 9.796875 56 
C 9.40625 56 8.90625 56 8.5 55.796875 
C 11.40625 62.484375 19.296875 63.6875 22.796875 63.6875 
C 26.296875 63.6875 32.90625 61.96875 32.90625 52.296875 
C 32.90625 49.484375 32.5 44.546875 29.09375 40.21875 
C 26.09375 36.390625 22.703125 36.1875 19.40625 35.890625 
C 18.90625 35.890625 16.59375 35.6875 16.203125 35.6875 
C 15.5 35.59375 15.09375 35.5 15.09375 34.796875 
C 15.09375 34.09375 15.203125 34 17.203125 34 
z
" id="CMR17-51"/>
     </defs>
     <g transform="translate(777.348613 84.642733)scale(0.14 -0.14)">
      <use transform="scale(0.996264)" xlink:href="#CMR17-48"/>
      <use transform="translate(45.690477 0)scale(0.996264)" xlink:href="#CMMI12-58"/>
      <use transform="translate(72.787654 0)scale(0.996264)" xlink:href="#CMR17-51"/>
     </g>
    </g>
   </g>
   <g id="xtick_24">
    <g id="line2d_30">
     <path d="M 766.845482 49.236866 
L 771.48285 50.101356 
" style="fill:none;stroke:#000000;stroke-linecap:square;stroke-width:0.8;"/>
    </g>
    <g id="text_26">
     <!-- $0.4$ -->
     <g transform="translate(779.045527 57.444673)scale(0.14 -0.14)">
      <use transform="scale(0.996264)" xlink:href="#CMR17-48"/>
      <use transform="translate(45.690477 0)scale(0.996264)" xlink:href="#CMMI12-58"/>
      <use transform="translate(72.787654 0)scale(0.996264)" xlink:href="#CMR17-52"/>
     </g>
    </g>
   </g>
  </g>
  <g id="axes_2">
   <g id="Poly3DCollection_18">
    <path clip-path="url(#pdaf8b3d274)" d="M 589.431397 123.997918 
L 589.331412 115.870171 
L 610.89712 120.417397 
L 610.929857 128.573668 
z
" style="fill:#065d4c;fill-opacity:0.8;"/>
    <path clip-path="url(#pdaf8b3d274)" d="M 576.58184 131.95403 
L 576.440269 123.776783 
L 589.331412 115.870171 
L 589.431397 123.997918 
z
" style="fill:#0cba97;fill-opacity:0.8;"/>
    <path clip-path="url(#pdaf8b3d274)" d="M 576.58184 131.95403 
L 589.431397 123.997918 
L 610.929857 128.573668 
L 598.209947 136.61421 
z
" style="fill:#08745e;fill-opacity:0.8;"/>
    <path clip-path="url(#pdaf8b3d274)" d="M 576.440269 123.776783 
L 598.136436 128.408179 
L 610.89712 120.417397 
L 589.331412 115.870171 
z
" style="fill:#0aa384;fill-opacity:0.8;"/>
    <path clip-path="url(#pdaf8b3d274)" d="M 598.209947 136.61421 
L 610.929857 128.573668 
L 610.89712 120.417397 
L 598.136436 128.408179 
z
" style="fill:#065d4c;fill-opacity:0.8;"/>
    <path clip-path="url(#pdaf8b3d274)" d="M 576.58184 131.95403 
L 598.209947 136.61421 
L 598.136436 128.408179 
L 576.440269 123.776783 
z
" style="fill:#0cba97;fill-opacity:0.8;"/>
   </g>
   <g id="Poly3DCollection_19">
    <path clip-path="url(#pdaf8b3d274)" d="M 632.656014 133.197881 
L 632.660578 132.158557 
L 654.626977 136.828362 
L 654.613504 137.87133 
z
" style="fill:#065d4c;fill-opacity:0.8;"/>
    <path clip-path="url(#pdaf8b3d274)" d="M 620.069245 141.324204 
L 620.068739 140.278556 
L 632.660578 132.158557 
L 632.656014 133.197881 
z
" style="fill:#0cba97;fill-opacity:0.8;"/>
    <path clip-path="url(#pdaf8b3d274)" d="M 620.069245 141.324204 
L 632.656014 133.197881 
L 654.613504 137.87133 
L 642.16346 146.084816 
z
" style="fill:#08745e;fill-opacity:0.8;"/>
    <path clip-path="url(#pdaf8b3d274)" d="M 620.068739 140.278556 
L 642.171974 145.035491 
L 654.626977 136.828362 
L 632.660578 132.158557 
z
" style="fill:#0aa384;fill-opacity:0.8;"/>
    <path clip-path="url(#pdaf8b3d274)" d="M 642.16346 146.084816 
L 654.613504 137.87133 
L 654.626977 136.828362 
L 642.171974 145.035491 
z
" style="fill:#065d4c;fill-opacity:0.8;"/>
    <path clip-path="url(#pdaf8b3d274)" d="M 620.069245 141.324204 
L 642.16346 146.084816 
L 642.171974 145.035491 
L 620.068739 140.278556 
z
" style="fill:#0cba97;fill-opacity:0.8;"/>
   </g>
   <g id="Poly3DCollection_20">
    <path clip-path="url(#pdaf8b3d274)" d="M 676.806043 142.594808 
L 676.854457 140.349871 
L 699.305774 145.116282 
L 699.237424 147.369122 
z
" style="fill:#065d4c;fill-opacity:0.8;"/>
    <path clip-path="url(#pdaf8b3d274)" d="M 664.4964 150.896865 
L 664.534427 148.638215 
L 676.854457 140.349871 
L 676.806043 142.594808 
z
" style="fill:#0cba97;fill-opacity:0.8;"/>
    <path clip-path="url(#pdaf8b3d274)" d="M 664.4964 150.896865 
L 676.806043 142.594808 
L 699.237424 147.369122 
L 687.071954 155.761191 
z
" style="fill:#08745e;fill-opacity:0.8;"/>
    <path clip-path="url(#pdaf8b3d274)" d="M 664.534427 148.638215 
L 687.130177 153.494568 
L 699.305774 145.116282 
L 676.854457 140.349871 
z
" style="fill:#0aa384;fill-opacity:0.8;"/>
    <path clip-path="url(#pdaf8b3d274)" d="M 687.071954 155.761191 
L 699.237424 147.369122 
L 699.305774 145.116282 
L 687.130177 153.494568 
z
" style="fill:#065d4c;fill-opacity:0.8;"/>
    <path clip-path="url(#pdaf8b3d274)" d="M 664.4964 150.896865 
L 687.071954 155.761191 
L 687.130177 153.494568 
L 664.534427 148.638215 
z
" style="fill:#0cba97;fill-opacity:0.8;"/>
   </g>
   <g id="Poly3DCollection_21">
    <path clip-path="url(#pdaf8b3d274)" d="M 563.49472 140.057234 
L 563.209081 127.332898 
L 585.074503 132.034831 
L 585.253609 144.804203 
z
" style="fill:#065d4c;fill-opacity:0.8;"/>
    <path clip-path="url(#pdaf8b3d274)" d="M 550.163388 148.311649 
L 549.808593 135.50916 
L 563.209081 127.332898 
L 563.49472 140.057234 
z
" style="fill:#0cba97;fill-opacity:0.8;"/>
    <path clip-path="url(#pdaf8b3d274)" d="M 550.163388 148.311649 
L 563.49472 140.057234 
L 585.253609 144.804203 
L 572.05419 153.147854 
z
" style="fill:#08745e;fill-opacity:0.8;"/>
    <path clip-path="url(#pdaf8b3d274)" d="M 549.808593 135.50916 
L 571.807217 140.299927 
L 585.074503 132.034831 
L 563.209081 127.332898 
z
" style="fill:#0aa384;fill-opacity:0.8;"/>
    <path clip-path="url(#pdaf8b3d274)" d="M 572.05419 153.147854 
L 585.253609 144.804203 
L 585.074503 132.034831 
L 571.807217 140.299927 
z
" style="fill:#065d4c;fill-opacity:0.8;"/>
    <path clip-path="url(#pdaf8b3d274)" d="M 550.163388 148.311649 
L 572.05419 153.147854 
L 571.807217 140.299927 
L 549.808593 135.50916 
z
" style="fill:#0cba97;fill-opacity:0.8;"/>
   </g>
   <g id="Poly3DCollection_22">
    <path clip-path="url(#pdaf8b3d274)" d="M 721.911524 152.195095 
L 721.911524 152.195095 
L 744.832304 157.073573 
L 744.832304 157.073573 
z
" style="fill:#065d4c;fill-opacity:0.8;"/>
    <path clip-path="url(#pdaf8b3d274)" d="M 709.894099 160.678649 
L 709.894099 160.678649 
L 721.911524 152.195095 
L 721.911524 152.195095 
z
" style="fill:#065d4c;fill-opacity:0.8;"/>
    <path clip-path="url(#pdaf8b3d274)" d="M 709.894099 160.678649 
L 721.911524 152.195095 
L 744.832304 157.073573 
L 732.966896 165.650114 
z
" style="fill:#08745e;fill-opacity:0.8;"/>
    <path clip-path="url(#pdaf8b3d274)" d="M 709.894099 160.678649 
L 732.966896 165.650114 
L 744.832304 157.073573 
L 721.911524 152.195095 
z
" style="fill:#0aa384;fill-opacity:0.8;"/>
    <path clip-path="url(#pdaf8b3d274)" d="M 732.966896 165.650114 
L 744.832304 157.073573 
L 744.832304 157.073573 
L 732.966896 165.650114 
z
" style="fill:#065d4c;fill-opacity:0.8;"/>
    <path clip-path="url(#pdaf8b3d274)" d="M 709.894099 160.678649 
L 732.966896 165.650114 
L 732.966896 165.650114 
L 709.894099 160.678649 
z
" style="fill:#065d4c;fill-opacity:0.8;"/>
   </g>
   <g id="Poly3DCollection_23">
    <path clip-path="url(#pdaf8b3d274)" d="M 607.247261 149.602389 
L 607.171147 135.717396 
L 629.523917 140.518298 
L 629.479493 154.452624 
z
" style="fill:#065d4c;fill-opacity:0.8;"/>
    <path clip-path="url(#pdaf8b3d274)" d="M 594.183405 158.036731 
L 594.035213 144.066131 
L 607.171147 135.717396 
L 607.247261 149.602389 
z
" style="fill:#0cba97;fill-opacity:0.8;"/>
    <path clip-path="url(#pdaf8b3d274)" d="M 594.183405 158.036731 
L 607.247261 149.602389 
L 629.479493 154.452624 
L 616.554949 162.979144 
z
" style="fill:#08745e;fill-opacity:0.8;"/>
    <path clip-path="url(#pdaf8b3d274)" d="M 594.035213 144.066131 
L 616.528811 148.958776 
L 629.523917 140.518298 
L 607.171147 135.717396 
z
" style="fill:#0aa384;fill-opacity:0.8;"/>
    <path clip-path="url(#pdaf8b3d274)" d="M 616.554949 162.979144 
L 629.479493 154.452624 
L 629.523917 140.518298 
L 616.528811 148.958776 
z
" style="fill:#065d4c;fill-opacity:0.8;"/>
    <path clip-path="url(#pdaf8b3d274)" d="M 594.183405 158.036731 
L 616.554949 162.979144 
L 616.528811 148.958776 
L 594.035213 144.066131 
z
" style="fill:#0cba97;fill-opacity:0.8;"/>
   </g>
   <g id="Poly3DCollection_24">
    <path clip-path="url(#pdaf8b3d274)" d="M 651.954211 159.35576 
L 651.954211 159.35576 
L 674.675403 164.312667 
L 674.675403 164.312667 
z
" style="fill:#065d4c;fill-opacity:0.8;"/>
    <path clip-path="url(#pdaf8b3d274)" d="M 639.172825 167.975977 
L 639.172825 167.975977 
L 651.954211 159.35576 
L 651.954211 159.35576 
z
" style="fill:#065d4c;fill-opacity:0.8;"/>
    <path clip-path="url(#pdaf8b3d274)" d="M 639.172825 167.975977 
L 651.954211 159.35576 
L 674.675403 164.312667 
L 662.041122 173.028135 
z
" style="fill:#08745e;fill-opacity:0.8;"/>
    <path clip-path="url(#pdaf8b3d274)" d="M 639.172825 167.975977 
L 662.041122 173.028135 
L 674.675403 164.312667 
L 651.954211 159.35576 
z
" style="fill:#0aa384;fill-opacity:0.8;"/>
    <path clip-path="url(#pdaf8b3d274)" d="M 662.041122 173.028135 
L 674.675403 164.312667 
L 674.675403 164.312667 
L 662.041122 173.028135 
z
" style="fill:#065d4c;fill-opacity:0.8;"/>
    <path clip-path="url(#pdaf8b3d274)" d="M 639.172825 167.975977 
L 662.041122 173.028135 
L 662.041122 173.028135 
L 639.172825 167.975977 
z
" style="fill:#065d4c;fill-opacity:0.8;"/>
   </g>
   <g id="Poly3DCollection_25">
    <path clip-path="url(#pdaf8b3d274)" d="M 536.580943 156.721546 
L 536.20024 145.224057 
L 558.321486 150.111158 
L 558.604784 161.649528 
z
" style="fill:#065d4c;fill-opacity:0.8;"/>
    <path clip-path="url(#pdaf8b3d274)" d="M 522.740223 165.29136 
L 522.293104 153.722933 
L 536.20024 145.224057 
L 536.580943 156.721546 
z
" style="fill:#0cba97;fill-opacity:0.8;"/>
    <path clip-path="url(#pdaf8b3d274)" d="M 522.740223 165.29136 
L 536.580943 156.721546 
L 558.604784 161.649528 
L 544.89822 170.313756 
z
" style="fill:#08745e;fill-opacity:0.8;"/>
    <path clip-path="url(#pdaf8b3d274)" d="M 522.293104 153.722933 
L 544.549686 158.704092 
L 558.321486 150.111158 
L 536.20024 145.224057 
z
" style="fill:#0aa384;fill-opacity:0.8;"/>
    <path clip-path="url(#pdaf8b3d274)" d="M 544.89822 170.313756 
L 558.604784 161.649528 
L 558.321486 150.111158 
L 544.549686 158.704092 
z
" style="fill:#065d4c;fill-opacity:0.8;"/>
    <path clip-path="url(#pdaf8b3d274)" d="M 522.740223 165.29136 
L 544.89822 170.313756 
L 544.549686 158.704092 
L 522.293104 153.722933 
z
" style="fill:#0cba97;fill-opacity:0.8;"/>
   </g>
   <g id="Poly3DCollection_26">
    <path clip-path="url(#pdaf8b3d274)" d="M 580.87077 166.631691 
L 580.87077 166.631691 
L 603.382918 171.668935 
L 603.382918 171.668935 
z
" style="fill:#065d4c;fill-opacity:0.8;"/>
    <path clip-path="url(#pdaf8b3d274)" d="M 567.302181 175.391903 
L 567.302181 175.391903 
L 580.87077 166.631691 
L 580.87077 166.631691 
z
" style="fill:#065d4c;fill-opacity:0.8;"/>
    <path clip-path="url(#pdaf8b3d274)" d="M 567.302181 175.391903 
L 589.956222 180.526733 
L 603.382918 171.668935 
L 580.87077 166.631691 
z
" style="fill:#0aa384;fill-opacity:0.8;"/>
    <path clip-path="url(#pdaf8b3d274)" d="M 567.302181 175.391903 
L 580.87077 166.631691 
L 603.382918 171.668935 
L 589.956222 180.526733 
z
" style="fill:#08745e;fill-opacity:0.8;"/>
    <path clip-path="url(#pdaf8b3d274)" d="M 589.956222 180.526733 
L 603.382918 171.668935 
L 603.382918 171.668935 
L 589.956222 180.526733 
z
" style="fill:#065d4c;fill-opacity:0.8;"/>
    <path clip-path="url(#pdaf8b3d274)" d="M 567.302181 175.391903 
L 589.956222 180.526733 
L 589.956222 180.526733 
L 567.302181 175.391903 
z
" style="fill:#065d4c;fill-opacity:0.8;"/>
   </g>
   <g id="Poly3DCollection_27">
    <path clip-path="url(#pdaf8b3d274)" d="M 697.647145 169.324235 
L 697.578663 171.608735 
L 720.783791 176.683956 
L 720.873606 174.391373 
z
" style="fill:#0cba97;fill-opacity:0.8;"/>
    <path clip-path="url(#pdaf8b3d274)" d="M 685.164024 178.136541 
L 685.106189 180.435066 
L 697.578663 171.608735 
L 697.647145 169.324235 
z
" style="fill:#065d4c;fill-opacity:0.8;"/>
    <path clip-path="url(#pdaf8b3d274)" d="M 685.106189 180.435066 
L 708.46635 185.608815 
L 720.783791 176.683956 
L 697.578663 171.608735 
z
" style="fill:#0aa384;fill-opacity:0.8;"/>
    <path clip-path="url(#pdaf8b3d274)" d="M 685.164024 178.136541 
L 697.647145 169.324235 
L 720.873606 174.391373 
L 708.545806 183.302139 
z
" style="fill:#08745e;fill-opacity:0.8;"/>
    <path clip-path="url(#pdaf8b3d274)" d="M 708.545806 183.302139 
L 720.873606 174.391373 
L 720.783791 176.683956 
L 708.46635 185.608815 
z
" style="fill:#0cba97;fill-opacity:0.8;"/>
    <path clip-path="url(#pdaf8b3d274)" d="M 685.164024 178.136541 
L 708.545806 183.302139 
L 708.46635 185.608815 
L 685.106189 180.435066 
z
" style="fill:#065d4c;fill-opacity:0.8;"/>
   </g>
   <g id="Poly3DCollection_28">
    <path clip-path="url(#pdaf8b3d274)" d="M 508.63379 174.025697 
L 508.63379 174.025697 
L 530.927053 179.145246 
L 530.927053 179.145246 
z
" style="fill:#065d4c;fill-opacity:0.8;"/>
    <path clip-path="url(#pdaf8b3d274)" d="M 494.253918 182.92934 
L 494.253918 182.92934 
L 508.63379 174.025697 
L 508.63379 174.025697 
z
" style="fill:#065d4c;fill-opacity:0.8;"/>
    <path clip-path="url(#pdaf8b3d274)" d="M 494.253918 182.92934 
L 508.63379 174.025697 
L 530.927053 179.145246 
L 516.683546 188.148889 
z
" style="fill:#08745e;fill-opacity:0.8;"/>
    <path clip-path="url(#pdaf8b3d274)" d="M 494.253918 182.92934 
L 516.683546 188.148889 
L 530.927053 179.145246 
L 508.63379 174.025697 
z
" style="fill:#0aa384;fill-opacity:0.8;"/>
    <path clip-path="url(#pdaf8b3d274)" d="M 516.683546 188.148889 
L 530.927053 179.145246 
L 530.927053 179.145246 
L 516.683546 188.148889 
z
" style="fill:#065d4c;fill-opacity:0.8;"/>
    <path clip-path="url(#pdaf8b3d274)" d="M 494.253918 182.92934 
L 516.683546 188.148889 
L 516.683546 188.148889 
L 494.253918 182.92934 
z
" style="fill:#065d4c;fill-opacity:0.8;"/>
   </g>
   <g id="Poly3DCollection_29">
    <path clip-path="url(#pdaf8b3d274)" d="M 626.145331 176.762178 
L 626.118688 190.763642 
L 649.007781 195.96309 
L 649.162207 181.912358 
z
" style="fill:#0cba97;fill-opacity:0.8;"/>
    <path clip-path="url(#pdaf8b3d274)" d="M 612.864554 185.719202 
L 612.911601 199.806146 
L 626.118688 190.763642 
L 626.145331 176.762178 
z
" style="fill:#065d4c;fill-opacity:0.8;"/>
    <path clip-path="url(#pdaf8b3d274)" d="M 612.911601 199.806146 
L 635.949078 205.106891 
L 649.007781 195.96309 
L 626.118688 190.763642 
z
" style="fill:#0aa384;fill-opacity:0.8;"/>
    <path clip-path="url(#pdaf8b3d274)" d="M 612.864554 185.719202 
L 626.145331 176.762178 
L 649.162207 181.912358 
L 636.031484 190.970285 
z
" style="fill:#08745e;fill-opacity:0.8;"/>
    <path clip-path="url(#pdaf8b3d274)" d="M 636.031484 190.970285 
L 649.162207 181.912358 
L 649.007781 195.96309 
L 635.949078 205.106891 
z
" style="fill:#0cba97;fill-opacity:0.8;"/>
    <path clip-path="url(#pdaf8b3d274)" d="M 612.864554 185.719202 
L 636.031484 190.970285 
L 635.949078 205.106891 
L 612.911601 199.806146 
z
" style="fill:#065d4c;fill-opacity:0.8;"/>
   </g>
   <g id="Poly3DCollection_30">
    <path clip-path="url(#pdaf8b3d274)" d="M 553.470183 184.322176 
L 553.781496 195.93795 
L 576.475267 201.214233 
L 576.267403 189.557457 
z
" style="fill:#0cba97;fill-opacity:0.8;"/>
    <path clip-path="url(#pdaf8b3d274)" d="M 539.367032 193.427513 
L 539.746729 205.114424 
L 553.781496 195.93795 
L 553.470183 184.322176 
z
" style="fill:#065d4c;fill-opacity:0.8;"/>
    <path clip-path="url(#pdaf8b3d274)" d="M 539.746729 205.114424 
L 562.583657 210.494458 
L 576.475267 201.214233 
L 553.781496 195.93795 
z
" style="fill:#0aa384;fill-opacity:0.8;"/>
    <path clip-path="url(#pdaf8b3d274)" d="M 539.367032 193.427513 
L 553.470183 184.322176 
L 576.267403 189.557457 
L 562.308711 198.766221 
z
" style="fill:#08745e;fill-opacity:0.8;"/>
    <path clip-path="url(#pdaf8b3d274)" d="M 562.308711 198.766221 
L 576.267403 189.557457 
L 576.475267 201.214233 
L 562.583657 210.494458 
z
" style="fill:#0cba97;fill-opacity:0.8;"/>
    <path clip-path="url(#pdaf8b3d274)" d="M 539.367032 193.427513 
L 562.308711 198.766221 
L 562.583657 210.494458 
L 539.746729 205.114424 
z
" style="fill:#065d4c;fill-opacity:0.8;"/>
   </g>
   <g id="Poly3DCollection_31">
    <path clip-path="url(#pdaf8b3d274)" d="M 672.437837 187.120436 
L 672.416017 188.199673 
L 695.944561 193.470468 
L 695.976608 192.387393 
z
" style="fill:#0cba97;fill-opacity:0.8;"/>
    <path clip-path="url(#pdaf8b3d274)" d="M 659.461415 196.280981 
L 659.444973 197.366876 
L 672.416017 188.199673 
L 672.437837 187.120436 
z
" style="fill:#065d4c;fill-opacity:0.8;"/>
    <path clip-path="url(#pdaf8b3d274)" d="M 659.444973 197.366876 
L 683.132043 202.742073 
L 695.944561 193.470468 
L 672.416017 188.199673 
z
" style="fill:#0aa384;fill-opacity:0.8;"/>
    <path clip-path="url(#pdaf8b3d274)" d="M 659.461415 196.280981 
L 672.437837 187.120436 
L 695.976608 192.387393 
L 683.158851 201.65231 
z
" style="fill:#08745e;fill-opacity:0.8;"/>
    <path clip-path="url(#pdaf8b3d274)" d="M 683.158851 201.65231 
L 695.976608 192.387393 
L 695.944561 193.470468 
L 683.132043 202.742073 
z
" style="fill:#0cba97;fill-opacity:0.8;"/>
    <path clip-path="url(#pdaf8b3d274)" d="M 659.461415 196.280981 
L 683.158851 201.65231 
L 683.132043 202.742073 
L 659.444973 197.366876 
z
" style="fill:#065d4c;fill-opacity:0.8;"/>
   </g>
   <g id="Poly3DCollection_32">
    <path clip-path="url(#pdaf8b3d274)" d="M 599.323034 194.85208 
L 599.43724 207.943698 
L 622.634562 213.344942 
L 622.641495 200.207062 
z
" style="fill:#0cba97;fill-opacity:0.8;"/>
    <path clip-path="url(#pdaf8b3d274)" d="M 585.513016 204.166044 
L 585.700775 217.337922 
L 599.43724 207.943698 
L 599.323034 194.85208 
z
" style="fill:#065d4c;fill-opacity:0.8;"/>
    <path clip-path="url(#pdaf8b3d274)" d="M 585.700775 217.337922 
L 609.049516 222.846533 
L 622.634562 213.344942 
L 599.43724 207.943698 
z
" style="fill:#0aa384;fill-opacity:0.8;"/>
    <path clip-path="url(#pdaf8b3d274)" d="M 585.513016 204.166044 
L 599.323034 194.85208 
L 622.641495 200.207062 
L 608.984483 209.628037 
z
" style="fill:#08745e;fill-opacity:0.8;"/>
    <path clip-path="url(#pdaf8b3d274)" d="M 608.984483 209.628037 
L 622.641495 200.207062 
L 622.634562 213.344942 
L 609.049516 222.846533 
z
" style="fill:#0cba97;fill-opacity:0.8;"/>
    <path clip-path="url(#pdaf8b3d274)" d="M 585.513016 204.166044 
L 608.984483 209.628037 
L 609.049516 222.846533 
L 585.700775 217.337922 
z
" style="fill:#065d4c;fill-opacity:0.8;"/>
   </g>
   <g id="Poly3DCollection_33">
    <path clip-path="url(#pdaf8b3d274)" d="M 646.227305 205.623439 
L 646.142391 214.178734 
L 669.917904 219.687945 
L 670.085089 211.102273 
z
" style="fill:#0cba97;fill-opacity:0.8;"/>
    <path clip-path="url(#pdaf8b3d274)" d="M 632.727753 215.153281 
L 632.688462 223.761274 
L 646.142391 214.178734 
L 646.227305 205.623439 
z
" style="fill:#065d4c;fill-opacity:0.8;"/>
    <path clip-path="url(#pdaf8b3d274)" d="M 632.688462 223.761274 
L 656.624889 229.381478 
L 669.917904 219.687945 
L 646.142391 214.178734 
z
" style="fill:#0aa384;fill-opacity:0.8;"/>
    <path clip-path="url(#pdaf8b3d274)" d="M 632.727753 215.153281 
L 646.227305 205.623439 
L 670.085089 211.102273 
L 656.747574 220.742881 
z
" style="fill:#08745e;fill-opacity:0.8;"/>
    <path clip-path="url(#pdaf8b3d274)" d="M 656.747574 220.742881 
L 670.085089 211.102273 
L 669.917904 219.687945 
L 656.624889 229.381478 
z
" style="fill:#0cba97;fill-opacity:0.8;"/>
    <path clip-path="url(#pdaf8b3d274)" d="M 632.727753 215.153281 
L 656.747574 220.742881 
L 656.624889 229.381478 
L 632.688462 223.761274 
z
" style="fill:#065d4c;fill-opacity:0.8;"/>
   </g>
   <g id="Poly3DCollection_34">
    <path clip-path="url(#pdaf8b3d274)" d="M 481.347238 184.261107 
L 660.509201 226.148988 
L 756.995029 155.81857 
L 586.41799 119.667133 
z
" style="fill-opacity:0.2;"/>
   </g>
  </g>
 </g>
 <defs>
  <clipPath id="p412372152a">
   <rect height="277.2" width="380.454545" x="-30.6" y="-14.4"/>
  </clipPath>
  <clipPath id="pdaf8b3d274">
   <rect height="277.2" width="380.454545" x="425.945455" y="-14.4"/>
  </clipPath>
 </defs>
</svg>
