<?xml version="1.0" encoding="utf-8" standalone="no"?>
<!DOCTYPE svg PUBLIC "-//W3C//DTD SVG 1.1//EN"
  "http://www.w3.org/Graphics/SVG/1.1/DTD/svg11.dtd">
<!-- Created with matplotlib (https://matplotlib.org/) -->
<svg height="302.4pt" version="1.1" viewBox="0 0 820.8 302.4" width="820.8pt" xmlns="http://www.w3.org/2000/svg" xmlns:xlink="http://www.w3.org/1999/xlink">
 <defs>
  <style type="text/css">
*{stroke-linecap:butt;stroke-linejoin:round;}
  </style>
 </defs>
 <g id="figure_1">
  <g id="patch_1">
   <path d="M 0 302.4 
L 820.8 302.4 
L 820.8 0 
L 0 0 
z
" style="fill:#ffffff;"/>
  </g>
  <g id="patch_2">
   <path d="M -30.6 262.8 
L 349.854545 262.8 
L 349.854545 -14.4 
L -30.6 -14.4 
z
" style="fill:#ffffff;"/>
  </g>
  <g id="pane3d_1">
   <g id="patch_3">
    <path d="M 19.835129 201.548569 
L 128.723211 133.58541 
L 126.910339 3.718968 
L 11.951034 64.782468 
" style="fill:#f2f2f2;opacity:0.5;stroke:#f2f2f2;stroke-linejoin:miter;"/>
   </g>
  </g>
  <g id="pane3d_2">
   <g id="patch_4">
    <path d="M 128.723211 133.58541 
L 305.111665 171.581202 
L 312.491547 37.79869 
L 126.910339 3.718968 
" style="fill:#e6e6e6;opacity:0.5;stroke:#e6e6e6;stroke-linejoin:miter;"/>
   </g>
  </g>
  <g id="pane3d_3">
   <g id="patch_5">
    <path d="M 19.835129 201.548569 
L 205.419617 245.80086 
L 305.111665 171.581202 
L 128.723211 133.58541 
" style="fill:#ececec;opacity:0.5;stroke:#ececec;stroke-linejoin:miter;"/>
   </g>
  </g>
  <g id="axis3d_1">
   <g id="line2d_1">
    <path d="M 19.835129 201.548569 
L 205.419617 245.80086 
" style="fill:none;stroke:#000000;stroke-linecap:square;stroke-width:0.8;"/>
   </g>
   <g id="Line3DCollection_1">
    <path d="M 42.295817 206.90428 
L 150.133942 138.19749 
L 149.393845 7.847789 
" style="fill:none;stroke:#b0b0b0;stroke-width:0.8;"/>
    <path d="M 87.512337 217.686079 
L 193.184014 147.470895 
L 194.636898 16.156123 
" style="fill:none;stroke:#b0b0b0;stroke-width:0.8;"/>
    <path d="M 133.765289 228.715013 
L 237.148096 156.941187 
L 240.890183 24.649974 
" style="fill:none;stroke:#b0b0b0;stroke-width:0.8;"/>
    <path d="M 181.090721 239.999678 
L 282.055608 166.614702 
L 288.187917 33.335625 
" style="fill:none;stroke:#b0b0b0;stroke-width:0.8;"/>
   </g>
   <g id="xtick_1">
    <g id="line2d_2">
     <path d="M 43.225084 206.312217 
L 40.433807 208.09062 
" style="fill:none;stroke:#000000;stroke-linecap:square;stroke-width:0.8;"/>
    </g>
    <g id="text_1">
     <!-- 00 -->
     <defs>
      <path d="M 42 31.84375 
C 42 37.96875 41.90625 48.421875 37.703125 56.453125 
C 34 63.484375 28.09375 66 22.90625 66 
C 18.09375 66 12 63.78125 8.203125 56.5625 
C 4.203125 49.015625 3.796875 39.671875 3.796875 31.84375 
C 3.796875 26.109375 3.90625 17.375 7 9.734375 
C 11.296875 -0.609375 19 -2 22.90625 -2 
C 27.5 -2 34.5 -0.109375 38.59375 9.4375 
C 41.59375 16.375 42 24.5 42 31.84375 
z
M 22.90625 -0.40625 
C 16.5 -0.40625 12.703125 5.125 11.296875 12.75 
C 10.203125 18.6875 10.203125 27.328125 10.203125 32.953125 
C 10.203125 40.6875 10.203125 47.109375 11.5 53.234375 
C 13.40625 61.78125 19 64.390625 22.90625 64.390625 
C 27 64.390625 32.296875 61.671875 34.203125 53.4375 
C 35.5 47.71875 35.59375 40.984375 35.59375 32.953125 
C 35.59375 26.421875 35.59375 18.375 34.40625 12.453125 
C 32.296875 1.5 26.40625 -0.40625 22.90625 -0.40625 
z
" id="CMR17-48"/>
     </defs>
     <g transform="translate(23.330362 237.14703)rotate(-45)scale(0.14 -0.14)">
      <use transform="scale(0.996264)" xlink:href="#CMR17-48"/>
      <use transform="translate(45.690477 0)scale(0.996264)" xlink:href="#CMR17-48"/>
     </g>
    </g>
   </g>
   <g id="xtick_2">
    <g id="line2d_3">
     <path d="M 88.423674 217.080527 
L 85.686217 218.899473 
" style="fill:none;stroke:#000000;stroke-linecap:square;stroke-width:0.8;"/>
    </g>
    <g id="text_2">
     <!-- 01 -->
     <defs>
      <path d="M 26.59375 63.796875 
C 26.59375 65.890625 26.5 66 25.09375 66 
C 21.203125 61.359375 15.296875 59.890625 9.703125 59.6875 
C 9.40625 59.6875 8.90625 59.6875 8.796875 59.5 
C 8.703125 59.296875 8.703125 59.09375 8.703125 57 
C 11.796875 57 17 57.59375 21 59.984375 
L 21 7.296875 
C 21 3.796875 20.796875 2.59375 12.203125 2.59375 
L 9.203125 2.59375 
L 9.203125 0 
C 14 0.09375 19 0.1875 23.796875 0.1875 
C 28.59375 0.1875 33.59375 0.09375 38.40625 0 
L 38.40625 2.59375 
L 35.40625 2.59375 
C 26.796875 2.59375 26.59375 3.6875 26.59375 7.296875 
z
" id="CMR17-49"/>
     </defs>
     <g transform="translate(68.542787 248.103782)rotate(-45)scale(0.14 -0.14)">
      <use transform="scale(0.996264)" xlink:href="#CMR17-48"/>
      <use transform="translate(45.690477 0)scale(0.996264)" xlink:href="#CMR17-49"/>
     </g>
    </g>
   </g>
   <g id="xtick_3">
    <g id="line2d_4">
     <path d="M 134.657625 228.095506 
L 131.977203 229.956397 
" style="fill:none;stroke:#000000;stroke-linecap:square;stroke-width:0.8;"/>
    </g>
    <g id="text_3">
     <!-- 10 -->
     <g transform="translate(114.7934 259.312128)rotate(-45)scale(0.14 -0.14)">
      <use transform="scale(0.996264)" xlink:href="#CMR17-49"/>
      <use transform="translate(45.690477 0)scale(0.996264)" xlink:href="#CMR17-48"/>
     </g>
    </g>
   </g>
   <g id="xtick_4">
    <g id="line2d_5">
     <path d="M 181.962926 239.365727 
L 179.342936 241.270032 
" style="fill:none;stroke:#000000;stroke-linecap:square;stroke-width:0.8;"/>
    </g>
    <g id="text_4">
     <!-- 11 -->
     <g transform="translate(162.118375 270.780834)rotate(-45)scale(0.14 -0.14)">
      <use transform="scale(0.996264)" xlink:href="#CMR17-49"/>
      <use transform="translate(45.690477 0)scale(0.996264)" xlink:href="#CMR17-49"/>
     </g>
    </g>
   </g>
  </g>
  <g id="axis3d_2">
   <g id="line2d_6">
    <path d="M 305.111665 171.581202 
L 205.419617 245.80086 
" style="fill:none;stroke:#000000;stroke-linecap:square;stroke-width:0.8;"/>
   </g>
   <g id="Line3DCollection_2">
    <path d="M 27.455231 56.547028 
L 34.471044 192.413474 
L 218.858418 235.795817 
" style="fill:none;stroke:#b0b0b0;stroke-width:0.8;"/>
    <path d="M 57.232024 40.730342 
L 62.623407 174.842005 
L 244.674037 216.576366 
" style="fill:none;stroke:#b0b0b0;stroke-width:0.8;"/>
    <path d="M 85.85589 25.526062 
L 89.739382 157.917404 
L 269.496985 198.095948 
" style="fill:none;stroke:#b0b0b0;stroke-width:0.8;"/>
    <path d="M 113.392516 10.899296 
L 115.875164 141.604597 
L 293.383438 180.312741 
" style="fill:none;stroke:#b0b0b0;stroke-width:0.8;"/>
   </g>
   <g id="xtick_5">
    <g id="line2d_7">
     <path d="M 217.315598 235.432825 
L 221.947489 236.522608 
" style="fill:none;stroke:#000000;stroke-linecap:square;stroke-width:0.8;"/>
    </g>
    <g id="text_5">
     <!-- 00 -->
     <g transform="translate(232.650369 248.348363)rotate(-337.5)scale(0.14 -0.14)">
      <use transform="scale(0.996264)" xlink:href="#CMR17-48"/>
      <use transform="translate(45.690477 0)scale(0.996264)" xlink:href="#CMR17-48"/>
     </g>
    </g>
   </g>
   <g id="xtick_6">
    <g id="line2d_8">
     <path d="M 243.15208 216.227463 
L 247.72127 217.274932 
" style="fill:none;stroke:#000000;stroke-linecap:square;stroke-width:0.8;"/>
    </g>
    <g id="text_6">
     <!-- 01 -->
     <g transform="translate(258.203921 228.903937)rotate(-337.5)scale(0.14 -0.14)">
      <use transform="scale(0.996264)" xlink:href="#CMR17-48"/>
      <use transform="translate(45.690477 0)scale(0.996264)" xlink:href="#CMR17-49"/>
     </g>
    </g>
   </g>
   <g id="xtick_7">
    <g id="line2d_9">
     <path d="M 267.995442 197.76033 
L 272.503283 198.767901 
" style="fill:none;stroke:#000000;stroke-linecap:square;stroke-width:0.8;"/>
    </g>
    <g id="text_7">
     <!-- 10 -->
     <g transform="translate(282.775332 210.206849)rotate(-337.5)scale(0.14 -0.14)">
      <use transform="scale(0.996264)" xlink:href="#CMR17-49"/>
      <use transform="translate(45.690477 0)scale(0.996264)" xlink:href="#CMR17-48"/>
     </g>
    </g>
   </g>
   <g id="xtick_8">
    <g id="line2d_10">
     <path d="M 291.901865 179.989663 
L 296.349691 180.959573 
" style="fill:none;stroke:#000000;stroke-linecap:square;stroke-width:0.8;"/>
    </g>
    <g id="text_8">
     <!-- 11 -->
     <g transform="translate(306.420159 192.214827)rotate(-337.5)scale(0.14 -0.14)">
      <use transform="scale(0.996264)" xlink:href="#CMR17-49"/>
      <use transform="translate(45.690477 0)scale(0.996264)" xlink:href="#CMR17-49"/>
     </g>
    </g>
   </g>
  </g>
  <g id="axis3d_3">
   <g id="line2d_11">
    <path d="M 305.111665 171.581202 
L 312.491547 37.79869 
" style="fill:none;stroke:#000000;stroke-linecap:square;stroke-width:0.8;"/>
   </g>
   <g id="text_9">
    <!-- Re[$\rho$] -->
    <defs>
     <path d="M 39.203125 33.6875 
C 48.703125 35.59375 56.703125 42.015625 56.703125 50.046875 
C 56.703125 59.46875 46.09375 68 32.09375 68 
L 5.203125 68 
L 5.203125 65.390625 
C 12.09375 65.390625 13.203125 65.390625 13.203125 60.875 
L 13.203125 6.6875 
C 13.203125 2.1875 12.09375 2.1875 5.203125 2.1875 
L 5.203125 -0.40625 
C 8.09375 -0.203125 13.296875 -0.203125 16.40625 -0.203125 
C 19.5 -0.203125 24.703125 -0.203125 27.59375 -0.40625 
L 27.59375 2.1875 
C 20.703125 2.1875 19.59375 2.1875 19.59375 6.6875 
L 19.59375 33 
L 31.296875 33 
C 37 33 40.203125 30.6875 41.59375 29.390625 
C 45.59375 25.5 45.59375 22.796875 45.59375 16 
C 45.59375 9.296875 45.59375 5.890625 48.59375 2.5 
C 52.40625 -1.609375 57.5 -2 59.703125 -2 
C 67.09375 -2 68.203125 6.296875 68.203125 8 
C 68.203125 8.59375 68.203125 9.296875 67.296875 9.296875 
C 66.5 9.296875 66.40625 8.6875 66.40625 8.296875 
C 65.90625 1.796875 63 -0.40625 59.90625 -0.40625 
C 54.40625 -0.40625 53.796875 5.890625 53.203125 12 
C 52.90625 14.09375 52.703125 15.59375 52.5 17.796875 
C 51.90625 22.796875 51.09375 30.09375 39.203125 33.6875 
z
M 31 34.59375 
L 19.59375 34.59375 
L 19.59375 61.484375 
C 19.59375 64.890625 19.796875 65.390625 23.796875 65.390625 
L 31.09375 65.390625 
C 39.40625 65.390625 49.09375 62.484375 49.09375 50.046875 
C 49.09375 37.09375 38.5 34.59375 31 34.59375 
z
" id="CMR17-82"/>
     <path d="M 38.09375 23.484375 
C 38.5 23.890625 38.5 24.09375 38.5 25.09375 
C 38.5 35.171875 33.09375 44 21.703125 44 
C 11.09375 44 2.703125 33.984375 2.703125 21.78125 
C 2.703125 8.65625 12.203125 -1 22.796875 -1 
C 34 -1 38.40625 9.671875 38.40625 11.796875 
C 38.40625 12.5 37.796875 12.5 37.59375 12.5 
C 36.90625 12.5 36.796875 12.296875 36.40625 11.078125 
C 34.203125 4.21875 28.703125 0.796875 23.5 0.796875 
C 19.203125 0.796875 14.90625 3.21875 12.203125 7.65625 
C 9.09375 12.796875 9.09375 18.75 9.09375 23.484375 
z
M 9.203125 25 
C 9.90625 39.234375 17.59375 42.390625 21.59375 42.390625 
C 28.40625 42.390625 33 36.0625 33.09375 25 
z
" id="CMR17-101"/>
     <path d="M 23.5 -25 
L 23.5 -21.5 
L 14.09375 -21.5 
L 14.09375 71.484375 
L 23.5 71.484375 
L 23.5 75 
L 10.59375 75 
L 10.59375 -25 
z
" id="CMR17-91"/>
     <path d="M 3.09375 -16.953125 
C 3 -17.4375 2.796875 -18.03125 2.796875 -18.609375 
C 2.796875 -20.109375 4 -21.109375 5.5 -21.109375 
C 7 -21.109375 8.40625 -20.109375 9 -18.71875 
C 9.40625 -17.828125 12.203125 -6.09375 15.40625 6.078125 
C 17.40625 1.09375 21.09375 -1 25 -1 
C 36.296875 -1 49.09375 12.96875 49.09375 28.03125 
C 49.09375 38.703125 42.59375 44 35.703125 44 
C 26.90625 44 16.203125 34.90625 12.90625 21.640625 
z
M 24.90625 1 
C 18.09375 1 16.40625 8.875 16.40625 10.078125 
C 16.40625 10.671875 18.90625 20.140625 19.203125 21.640625 
C 24.296875 41.5 34.09375 41.984375 35.59375 41.984375 
C 40.09375 41.984375 42.59375 37.90625 42.59375 32.015625 
C 42.59375 26.9375 39.90625 17.046875 38.203125 12.859375 
C 35.203125 5.984375 30 1 24.90625 1 
z
" id="CMMI12-26"/>
     <path d="M 14.296875 75 
L 1.40625 75 
L 1.40625 71.484375 
L 10.796875 71.484375 
L 10.796875 -21.5 
L 1.40625 -21.5 
L 1.40625 -25 
L 14.296875 -25 
z
" id="CMR17-93"/>
    </defs>
    <g transform="translate(352.486567 117.931831)rotate(-86.842577)scale(0.14 -0.14)">
     <use transform="scale(0.996264)" xlink:href="#CMR17-82"/>
     <use transform="translate(67.791102 0)scale(0.996264)" xlink:href="#CMR17-101"/>
     <use transform="translate(108.276762 0)scale(0.996264)" xlink:href="#CMR17-91"/>
     <use transform="translate(133.147821 0)scale(0.996264)" xlink:href="#CMMI12-26"/>
     <use transform="translate(183.462194 0)scale(0.996264)" xlink:href="#CMR17-93"/>
    </g>
   </g>
   <g id="Line3DCollection_3">
    <path d="M 305.321028 167.785869 
L 128.671671 129.893369 
L 19.611836 197.675078 
" style="fill:none;stroke:#b0b0b0;stroke-width:0.8;"/>
    <path d="M 306.751544 141.853467 
L 128.319691 104.67894 
L 18.085553 171.198523 
" style="fill:none;stroke:#b0b0b0;stroke-width:0.8;"/>
    <path d="M 308.211479 115.387766 
L 127.960778 78.967937 
L 16.526833 144.159263 
" style="fill:none;stroke:#b0b0b0;stroke-width:0.8;"/>
    <path d="M 309.701749 88.372145 
L 127.594726 52.745545 
L 14.93463 116.539169 
" style="fill:none;stroke:#b0b0b0;stroke-width:0.8;"/>
    <path d="M 311.22331 60.789286 
L 127.221321 25.996353 
L 13.307852 88.31932 
" style="fill:none;stroke:#b0b0b0;stroke-width:0.8;"/>
   </g>
   <g id="xtick_9">
    <g id="line2d_12">
     <path d="M 303.847112 167.469704 
L 308.271928 168.418858 
" style="fill:none;stroke:#000000;stroke-linecap:square;stroke-width:0.8;"/>
    </g>
    <g id="text_10">
     <!-- $0.0$ -->
     <defs>
      <path d="M 18.40625 4.796875 
C 18.40625 7.6875 16 9.6875 13.59375 9.6875 
C 10.703125 9.6875 8.703125 7.296875 8.703125 4.890625 
C 8.703125 2 11.09375 0 13.5 0 
C 16.40625 0 18.40625 2.390625 18.40625 4.796875 
z
" id="CMMI12-58"/>
     </defs>
     <g transform="translate(315.132454 175.532544)scale(0.14 -0.14)">
      <use transform="scale(0.996264)" xlink:href="#CMR17-48"/>
      <use transform="translate(45.690477 0)scale(0.996264)" xlink:href="#CMMI12-58"/>
      <use transform="translate(72.787654 0)scale(0.996264)" xlink:href="#CMR17-48"/>
     </g>
    </g>
   </g>
   <g id="xtick_10">
    <g id="line2d_13">
     <path d="M 305.262131 141.543162 
L 309.733502 142.474728 
" style="fill:none;stroke:#000000;stroke-linecap:square;stroke-width:0.8;"/>
    </g>
    <g id="text_11">
     <!-- $0.1$ -->
     <g transform="translate(316.748157 149.636121)scale(0.14 -0.14)">
      <use transform="scale(0.996264)" xlink:href="#CMR17-48"/>
      <use transform="translate(45.690477 0)scale(0.996264)" xlink:href="#CMMI12-58"/>
      <use transform="translate(72.787654 0)scale(0.996264)" xlink:href="#CMR17-49"/>
     </g>
    </g>
   </g>
   <g id="xtick_11">
    <g id="line2d_14">
     <path d="M 306.70624 115.083631 
L 311.225154 115.996682 
" style="fill:none;stroke:#000000;stroke-linecap:square;stroke-width:0.8;"/>
    </g>
    <g id="text_12">
     <!-- $0.2$ -->
     <defs>
      <path d="M 41.703125 15.46875 
L 39.90625 15.46875 
C 38.90625 8.390625 38.09375 7.1875 37.703125 6.59375 
C 37.203125 5.796875 30 5.796875 28.59375 5.796875 
L 9.40625 5.796875 
C 13 9.6875 20 16.765625 28.5 24.9375 
C 34.59375 30.71875 41.703125 37.5 41.703125 47.390625 
C 41.703125 59.1875 32.296875 66 21.796875 66 
C 10.796875 66 4.09375 56.296875 4.09375 47.296875 
C 4.09375 43.390625 7 42.890625 8.203125 42.890625 
C 9.203125 42.890625 12.203125 43.484375 12.203125 46.984375 
C 12.203125 50.09375 9.59375 51 8.203125 51 
C 7.59375 51 7 50.890625 6.59375 50.6875 
C 8.5 59.1875 14.296875 63.390625 20.40625 63.390625 
C 29.09375 63.390625 34.796875 56.5 34.796875 47.390625 
C 34.796875 38.703125 29.703125 31.21875 24 24.734375 
L 4.09375 2.296875 
L 4.09375 0 
L 39.296875 0 
z
" id="CMR17-50"/>
     </defs>
     <g transform="translate(318.397015 123.208296)scale(0.14 -0.14)">
      <use transform="scale(0.996264)" xlink:href="#CMR17-48"/>
      <use transform="translate(45.690477 0)scale(0.996264)" xlink:href="#CMMI12-58"/>
      <use transform="translate(72.787654 0)scale(0.996264)" xlink:href="#CMR17-50"/>
     </g>
    </g>
   </g>
   <g id="xtick_12">
    <g id="line2d_15">
     <path d="M 308.180345 88.074505 
L 312.747823 88.968065 
" style="fill:none;stroke:#000000;stroke-linecap:square;stroke-width:0.8;"/>
    </g>
    <g id="text_13">
     <!-- $0.3$ -->
     <defs>
      <path d="M 22.09375 34 
C 31 34 34.90625 26.140625 34.90625 17.09375 
C 34.90625 5.03125 28.5 0.390625 22.703125 0.390625 
C 17.40625 0.390625 8.796875 3.015625 6.09375 10.796875 
C 6.59375 10.59375 7.09375 10.59375 7.59375 10.59375 
C 10 10.59375 11.796875 12.1875 11.796875 14.796875 
C 11.796875 17.6875 9.59375 19 7.59375 19 
C 5.90625 19 3.296875 18.1875 3.296875 14.484375 
C 3.296875 5.234375 12.296875 -2 22.90625 -2 
C 34 -2 42.5 6.75 42.5 16.984375 
C 42.5 26.84375 34.5 34 25 35.09375 
C 32.59375 36.671875 39.90625 43.375 39.90625 52.390625 
C 39.90625 60.25 32 66 23 66 
C 13.90625 66 5.90625 60.34375 5.90625 52.296875 
C 5.90625 48.796875 8.5 48.1875 9.796875 48.1875 
C 11.90625 48.1875 13.703125 49.484375 13.703125 52.09375 
C 13.703125 54.6875 11.90625 56 9.796875 56 
C 9.40625 56 8.90625 56 8.5 55.796875 
C 11.40625 62.484375 19.296875 63.6875 22.796875 63.6875 
C 26.296875 63.6875 32.90625 61.96875 32.90625 52.296875 
C 32.90625 49.484375 32.5 44.546875 29.09375 40.21875 
C 26.09375 36.390625 22.703125 36.1875 19.40625 35.890625 
C 18.90625 35.890625 16.59375 35.6875 16.203125 35.6875 
C 15.5 35.59375 15.09375 35.5 15.09375 34.796875 
C 15.09375 34.09375 15.203125 34 17.203125 34 
z
" id="CMR17-51"/>
     </defs>
     <g transform="translate(320.080059 96.232541)scale(0.14 -0.14)">
      <use transform="scale(0.996264)" xlink:href="#CMR17-48"/>
      <use transform="translate(45.690477 0)scale(0.996264)" xlink:href="#CMMI12-58"/>
      <use transform="translate(72.787654 0)scale(0.996264)" xlink:href="#CMR17-51"/>
     </g>
    </g>
   </g>
   <g id="xtick_13">
    <g id="line2d_16">
     <path d="M 309.68539 60.49848 
L 314.302485 61.371527 
" style="fill:none;stroke:#000000;stroke-linecap:square;stroke-width:0.8;"/>
    </g>
    <g id="text_14">
     <!-- $0.4$ -->
     <defs>
      <path d="M 33.59375 64.796875 
C 33.59375 66.890625 33.5 67 31.703125 67 
L 2 19.59375 
L 2 17 
L 27.796875 17 
L 27.796875 7.1875 
C 27.796875 3.59375 27.59375 2.59375 20.59375 2.59375 
L 18.703125 2.59375 
L 18.703125 0 
C 21.90625 0.1875 27.296875 0.1875 30.703125 0.1875 
C 34.09375 0.1875 39.5 0.1875 42.703125 0 
L 42.703125 2.59375 
L 40.796875 2.59375 
C 33.796875 2.59375 33.59375 3.59375 33.59375 7.1875 
L 33.59375 17 
L 43.796875 17 
L 43.796875 19.59375 
L 33.59375 19.59375 
z
M 28.09375 58.171875 
L 28.09375 19.59375 
L 4 19.59375 
z
" id="CMR17-52"/>
     </defs>
     <g transform="translate(321.798363 68.691639)scale(0.14 -0.14)">
      <use transform="scale(0.996264)" xlink:href="#CMR17-48"/>
      <use transform="translate(45.690477 0)scale(0.996264)" xlink:href="#CMMI12-58"/>
      <use transform="translate(72.787654 0)scale(0.996264)" xlink:href="#CMR17-52"/>
     </g>
    </g>
   </g>
  </g>
  <g id="axes_1">
   <g id="Poly3DCollection_1">
    <path clip-path="url(#pe4bf2d1ac6)" d="M 176.05636 145.538787 
L 176.053187 146.261318 
L 197.898715 150.980197 
L 197.908081 150.255171 
z
" style="fill:#ba0c2f;fill-opacity:0.8;"/>
    <path clip-path="url(#pe4bf2d1ac6)" d="M 163.529793 153.739612 
L 163.530145 154.466472 
L 176.053187 146.261318 
L 176.05636 145.538787 
z
" style="fill:#5d0618;fill-opacity:0.8;"/>
    <path clip-path="url(#pe4bf2d1ac6)" d="M 163.530145 154.466472 
L 185.511 159.272907 
L 197.898715 150.980197 
L 176.053187 146.261318 
z
" style="fill:#a30a29;fill-opacity:0.8;"/>
    <path clip-path="url(#pe4bf2d1ac6)" d="M 163.529793 153.739612 
L 176.05636 145.538787 
L 197.908081 150.255171 
L 185.516918 158.543532 
z
" style="fill:#74081d;fill-opacity:0.8;"/>
    <path clip-path="url(#pe4bf2d1ac6)" d="M 185.516918 158.543532 
L 197.908081 150.255171 
L 197.898715 150.980197 
L 185.511 159.272907 
z
" style="fill:#ba0c2f;fill-opacity:0.8;"/>
    <path clip-path="url(#pe4bf2d1ac6)" d="M 163.529793 153.739612 
L 185.516918 158.543532 
L 185.511 159.272907 
L 163.530145 154.466472 
z
" style="fill:#5d0618;fill-opacity:0.8;"/>
   </g>
   <g id="Poly3DCollection_2">
    <path clip-path="url(#pe4bf2d1ac6)" d="M 107.227711 152.461074 
L 107.057062 144.859225 
L 128.775745 149.623014 
L 128.882741 157.251294 
z
" style="fill:#5d0618;fill-opacity:0.8;"/>
    <path clip-path="url(#pe4bf2d1ac6)" d="M 93.963761 160.790537 
L 93.75182 153.142826 
L 107.057062 144.859225 
L 107.227711 152.461074 
z
" style="fill:#ba0c2f;fill-opacity:0.8;"/>
    <path clip-path="url(#pe4bf2d1ac6)" d="M 93.963761 160.790537 
L 107.227711 152.461074 
L 128.882741 157.251294 
L 115.749453 165.670365 
z
" style="fill:#74081d;fill-opacity:0.8;"/>
    <path clip-path="url(#pe4bf2d1ac6)" d="M 93.75182 153.142826 
L 115.601931 157.995998 
L 128.775745 149.623014 
L 107.057062 144.859225 
z
" style="fill:#a30a29;fill-opacity:0.8;"/>
    <path clip-path="url(#pe4bf2d1ac6)" d="M 115.749453 165.670365 
L 128.882741 157.251294 
L 128.775745 149.623014 
L 115.601931 157.995998 
z
" style="fill:#5d0618;fill-opacity:0.8;"/>
    <path clip-path="url(#pe4bf2d1ac6)" d="M 93.963761 160.790537 
L 115.749453 165.670365 
L 115.601931 157.995998 
L 93.75182 153.142826 
z
" style="fill:#ba0c2f;fill-opacity:0.8;"/>
   </g>
   <g id="Poly3DCollection_3">
    <path clip-path="url(#pe4bf2d1ac6)" d="M 219.992588 155.021799 
L 220.159338 147.289688 
L 242.549028 152.080461 
L 242.31362 159.839478 
z
" style="fill:#5d0618;fill-opacity:0.8;"/>
    <path clip-path="url(#pe4bf2d1ac6)" d="M 207.740452 163.399104 
L 207.871419 155.620306 
L 220.159338 147.289688 
L 219.992588 155.021799 
z
" style="fill:#ba0c2f;fill-opacity:0.8;"/>
    <path clip-path="url(#pe4bf2d1ac6)" d="M 207.740452 163.399104 
L 219.992588 155.021799 
L 242.31362 159.839478 
L 230.20423 168.307166 
z
" style="fill:#74081d;fill-opacity:0.8;"/>
    <path clip-path="url(#pe4bf2d1ac6)" d="M 207.871419 155.620306 
L 230.404742 160.501234 
L 242.549028 152.080461 
L 220.159338 147.289688 
z
" style="fill:#a30a29;fill-opacity:0.8;"/>
    <path clip-path="url(#pe4bf2d1ac6)" d="M 230.20423 168.307166 
L 242.31362 159.839478 
L 242.549028 152.080461 
L 230.404742 160.501234 
z
" style="fill:#5d0618;fill-opacity:0.8;"/>
    <path clip-path="url(#pe4bf2d1ac6)" d="M 207.740452 163.399104 
L 230.20423 168.307166 
L 230.404742 160.501234 
L 207.871419 155.620306 
z
" style="fill:#ba0c2f;fill-opacity:0.8;"/>
   </g>
   <g id="Poly3DCollection_4">
    <path clip-path="url(#pe4bf2d1ac6)" d="M 150.770276 162.092944 
L 150.76933 161.920477 
L 172.894631 166.813793 
L 172.894079 166.986859 
z
" style="fill:#5d0618;fill-opacity:0.8;"/>
    <path clip-path="url(#pe4bf2d1ac6)" d="M 137.771248 170.603078 
L 137.769408 170.429572 
L 150.76933 161.920477 
L 150.770276 162.092944 
z
" style="fill:#ba0c2f;fill-opacity:0.8;"/>
    <path clip-path="url(#pe4bf2d1ac6)" d="M 137.771248 170.603078 
L 150.770276 162.092944 
L 172.894079 166.986859 
L 160.033004 175.58954 
z
" style="fill:#74081d;fill-opacity:0.8;"/>
    <path clip-path="url(#pe4bf2d1ac6)" d="M 137.769408 170.429572 
L 160.03268 175.415431 
L 172.894631 166.813793 
L 150.76933 161.920477 
z
" style="fill:#a30a29;fill-opacity:0.8;"/>
    <path clip-path="url(#pe4bf2d1ac6)" d="M 160.033004 175.58954 
L 172.894079 166.986859 
L 172.894631 166.813793 
L 160.03268 175.415431 
z
" style="fill:#5d0618;fill-opacity:0.8;"/>
    <path clip-path="url(#pe4bf2d1ac6)" d="M 137.771248 170.603078 
L 160.033004 175.58954 
L 160.03268 175.415431 
L 137.769408 170.429572 
z
" style="fill:#ba0c2f;fill-opacity:0.8;"/>
   </g>
   <g id="Poly3DCollection_5">
    <path clip-path="url(#pe4bf2d1ac6)" d="M 80.451193 169.276126 
L 80.492653 170.528244 
L 102.399507 175.504569 
L 102.368658 174.2481 
z
" style="fill:#ba0c2f;fill-opacity:0.8;"/>
    <path clip-path="url(#pe4bf2d1ac6)" d="M 66.682951 177.922272 
L 66.731637 179.181938 
L 80.492653 170.528244 
L 80.451193 169.276126 
z
" style="fill:#5d0618;fill-opacity:0.8;"/>
    <path clip-path="url(#pe4bf2d1ac6)" d="M 66.731637 179.181938 
L 88.771239 184.25308 
L 102.399507 175.504569 
L 80.492653 170.528244 
z
" style="fill:#a30a29;fill-opacity:0.8;"/>
    <path clip-path="url(#pe4bf2d1ac6)" d="M 66.682951 177.922272 
L 80.451193 169.276126 
L 102.368658 174.2481 
L 88.733291 182.989028 
z
" style="fill:#74081d;fill-opacity:0.8;"/>
    <path clip-path="url(#pe4bf2d1ac6)" d="M 88.733291 182.989028 
L 102.368658 174.2481 
L 102.399507 175.504569 
L 88.771239 184.25308 
z
" style="fill:#ba0c2f;fill-opacity:0.8;"/>
    <path clip-path="url(#pe4bf2d1ac6)" d="M 66.682951 177.922272 
L 88.733291 182.989028 
L 88.771239 184.25308 
L 66.731637 179.181938 
z
" style="fill:#5d0618;fill-opacity:0.8;"/>
   </g>
   <g id="Poly3DCollection_6">
    <path clip-path="url(#pe4bf2d1ac6)" d="M 120.249842 144.283468 
L 133.036708 136.253604 
L 154.433764 140.871855 
L 141.775326 148.986525 
z
" style="fill:#74081d;fill-opacity:0.8;"/>
    <path clip-path="url(#pe4bf2d1ac6)" d="M 133.036708 136.253604 
L 131.675692 25.617237 
L 153.988069 29.829604 
L 154.433764 140.871855 
z
" style="fill:#5d0618;fill-opacity:0.8;"/>
    <path clip-path="url(#pe4bf2d1ac6)" d="M 120.249842 144.283468 
L 118.322224 32.942598 
L 131.675692 25.617237 
L 133.036708 136.253604 
z
" style="fill:#ba0c2f;fill-opacity:0.8;"/>
    <path clip-path="url(#pe4bf2d1ac6)" d="M 141.775326 148.986525 
L 154.433764 140.871855 
L 153.988069 29.829604 
L 140.774244 37.235691 
z
" style="fill:#5d0618;fill-opacity:0.8;"/>
    <path clip-path="url(#pe4bf2d1ac6)" d="M 120.249842 144.283468 
L 141.775326 148.986525 
L 140.774244 37.235691 
L 118.322224 32.942598 
z
" style="fill:#ba0c2f;fill-opacity:0.8;"/>
    <path clip-path="url(#pe4bf2d1ac6)" d="M 118.322224 32.942598 
L 140.774244 37.235691 
L 153.988069 29.829604 
L 131.675692 25.617237 
z
" style="fill:#a30a29;fill-opacity:0.8;"/>
   </g>
   <g id="Poly3DCollection_7">
    <path clip-path="url(#pe4bf2d1ac6)" d="M 195.257997 171.933888 
L 195.353491 163.966639 
L 218.033174 168.939793 
L 217.865961 176.934902 
z
" style="fill:#5d0618;fill-opacity:0.8;"/>
    <path clip-path="url(#pe4bf2d1ac6)" d="M 182.538665 180.630635 
L 182.594852 172.615048 
L 195.353491 163.966639 
L 195.257997 171.933888 
z
" style="fill:#ba0c2f;fill-opacity:0.8;"/>
    <path clip-path="url(#pe4bf2d1ac6)" d="M 182.538665 180.630635 
L 195.257997 171.933888 
L 217.865961 176.934902 
L 205.292262 185.727266 
z
" style="fill:#74081d;fill-opacity:0.8;"/>
    <path clip-path="url(#pe4bf2d1ac6)" d="M 182.594852 172.615048 
L 205.4211 177.68359 
L 218.033174 168.939793 
L 195.353491 163.966639 
z
" style="fill:#a30a29;fill-opacity:0.8;"/>
    <path clip-path="url(#pe4bf2d1ac6)" d="M 205.292262 185.727266 
L 217.865961 176.934902 
L 218.033174 168.939793 
L 205.4211 177.68359 
z
" style="fill:#5d0618;fill-opacity:0.8;"/>
    <path clip-path="url(#pe4bf2d1ac6)" d="M 182.538665 180.630635 
L 205.292262 185.727266 
L 205.4211 177.68359 
L 182.594852 172.615048 
z
" style="fill:#ba0c2f;fill-opacity:0.8;"/>
   </g>
   <g id="Poly3DCollection_8">
    <path clip-path="url(#pe4bf2d1ac6)" d="M 124.525903 179.274469 
L 124.361234 168.89556 
L 146.853476 173.940808 
L 146.926886 184.356129 
z
" style="fill:#5d0618;fill-opacity:0.8;"/>
    <path clip-path="url(#pe4bf2d1ac6)" d="M 111.027172 188.111746 
L 110.805155 177.66966 
L 124.361234 168.89556 
L 124.525903 179.274469 
z
" style="fill:#ba0c2f;fill-opacity:0.8;"/>
    <path clip-path="url(#pe4bf2d1ac6)" d="M 111.027172 188.111746 
L 124.525903 179.274469 
L 146.926886 184.356129 
L 133.568653 193.291357 
z
" style="fill:#74081d;fill-opacity:0.8;"/>
    <path clip-path="url(#pe4bf2d1ac6)" d="M 110.805155 177.66966 
L 133.439041 182.812562 
L 146.853476 173.940808 
L 124.361234 168.89556 
z
" style="fill:#a30a29;fill-opacity:0.8;"/>
    <path clip-path="url(#pe4bf2d1ac6)" d="M 133.568653 193.291357 
L 146.926886 184.356129 
L 146.853476 173.940808 
L 133.439041 182.812562 
z
" style="fill:#5d0618;fill-opacity:0.8;"/>
    <path clip-path="url(#pe4bf2d1ac6)" d="M 111.027172 188.111746 
L 133.568653 193.291357 
L 133.439041 182.812562 
L 110.805155 177.66966 
z
" style="fill:#ba0c2f;fill-opacity:0.8;"/>
   </g>
   <g id="Poly3DCollection_9">
    <path clip-path="url(#pe4bf2d1ac6)" d="M 240.721987 181.990789 
L 240.958227 174.110054 
L 264.139999 179.194099 
L 263.83018 187.102456 
z
" style="fill:#5d0618;fill-opacity:0.8;"/>
    <path clip-path="url(#pe4bf2d1ac6)" d="M 228.297913 190.880356 
L 228.497412 182.951695 
L 240.958227 174.110054 
L 240.721987 181.990789 
z
" style="fill:#ba0c2f;fill-opacity:0.8;"/>
    <path clip-path="url(#pe4bf2d1ac6)" d="M 228.297913 190.880356 
L 240.721987 181.990789 
L 263.83018 187.102456 
L 251.559831 196.090847 
z
" style="fill:#74081d;fill-opacity:0.8;"/>
    <path clip-path="url(#pe4bf2d1ac6)" d="M 228.497412 182.951695 
L 251.833901 188.13434 
L 264.139999 179.194099 
L 240.958227 174.110054 
z
" style="fill:#a30a29;fill-opacity:0.8;"/>
    <path clip-path="url(#pe4bf2d1ac6)" d="M 251.559831 196.090847 
L 263.83018 187.102456 
L 264.139999 179.194099 
L 251.833901 188.13434 
z
" style="fill:#5d0618;fill-opacity:0.8;"/>
    <path clip-path="url(#pe4bf2d1ac6)" d="M 228.297913 190.880356 
L 251.559831 196.090847 
L 251.833901 188.13434 
L 228.497412 182.951695 
z
" style="fill:#ba0c2f;fill-opacity:0.8;"/>
   </g>
   <g id="Poly3DCollection_10">
    <path clip-path="url(#pe4bf2d1ac6)" d="M 169.57565 189.493999 
L 169.575984 189.318226 
L 192.478268 194.512629 
L 192.476329 194.689016 
z
" style="fill:#5d0618;fill-opacity:0.8;"/>
    <path clip-path="url(#pe4bf2d1ac6)" d="M 156.36188 198.528814 
L 156.36129 198.351976 
L 169.575984 189.318226 
L 169.57565 189.493999 
z
" style="fill:#ba0c2f;fill-opacity:0.8;"/>
    <path clip-path="url(#pe4bf2d1ac6)" d="M 156.36188 198.528814 
L 169.57565 189.493999 
L 192.476329 194.689016 
L 179.411096 203.825093 
z
" style="fill:#74081d;fill-opacity:0.8;"/>
    <path clip-path="url(#pe4bf2d1ac6)" d="M 156.36129 198.351976 
L 179.41213 203.647636 
L 192.478268 194.512629 
L 169.575984 189.318226 
z
" style="fill:#a30a29;fill-opacity:0.8;"/>
    <path clip-path="url(#pe4bf2d1ac6)" d="M 179.411096 203.825093 
L 192.476329 194.689016 
L 192.478268 194.512629 
L 179.41213 203.647636 
z
" style="fill:#5d0618;fill-opacity:0.8;"/>
    <path clip-path="url(#pe4bf2d1ac6)" d="M 156.36188 198.528814 
L 179.411096 203.825093 
L 179.41213 203.647636 
L 156.36129 198.351976 
z
" style="fill:#ba0c2f;fill-opacity:0.8;"/>
   </g>
   <g id="Poly3DCollection_11">
    <path clip-path="url(#pe4bf2d1ac6)" d="M 97.267714 197.119714 
L 97.301916 198.395852 
L 119.973795 203.680734 
L 119.95096 202.400135 
z
" style="fill:#ba0c2f;fill-opacity:0.8;"/>
    <path clip-path="url(#pe4bf2d1ac6)" d="M 83.239902 206.303366 
L 83.281614 207.587244 
L 97.301916 198.395852 
L 97.267714 197.119714 
z
" style="fill:#5d0618;fill-opacity:0.8;"/>
    <path clip-path="url(#pe4bf2d1ac6)" d="M 83.281614 207.587244 
L 106.096377 212.975942 
L 119.973795 203.680734 
L 97.301916 198.395852 
z
" style="fill:#a30a29;fill-opacity:0.8;"/>
    <path clip-path="url(#pe4bf2d1ac6)" d="M 83.239902 206.303366 
L 97.267714 197.119714 
L 119.95096 202.400135 
L 106.066173 211.687569 
z
" style="fill:#74081d;fill-opacity:0.8;"/>
    <path clip-path="url(#pe4bf2d1ac6)" d="M 106.066173 211.687569 
L 119.95096 202.400135 
L 119.973795 203.680734 
L 106.096377 212.975942 
z
" style="fill:#ba0c2f;fill-opacity:0.8;"/>
    <path clip-path="url(#pe4bf2d1ac6)" d="M 83.239902 206.303366 
L 106.066173 211.687569 
L 106.096377 212.975942 
L 83.281614 207.587244 
z
" style="fill:#5d0618;fill-opacity:0.8;"/>
   </g>
   <g id="Poly3DCollection_12">
    <path clip-path="url(#pe4bf2d1ac6)" d="M 215.63315 199.942138 
L 215.617978 200.692586 
L 239.028152 206.00742 
L 239.050435 205.254346 
z
" style="fill:#ba0c2f;fill-opacity:0.8;"/>
    <path clip-path="url(#pe4bf2d1ac6)" d="M 202.720636 209.18119 
L 202.709204 209.936193 
L 215.617978 200.692586 
L 215.63315 199.942138 
z
" style="fill:#5d0618;fill-opacity:0.8;"/>
    <path clip-path="url(#pe4bf2d1ac6)" d="M 202.709204 209.936193 
L 226.276298 215.355772 
L 239.028152 206.00742 
L 215.617978 200.692586 
z
" style="fill:#a30a29;fill-opacity:0.8;"/>
    <path clip-path="url(#pe4bf2d1ac6)" d="M 202.720636 209.18119 
L 215.63315 199.942138 
L 239.050435 205.254346 
L 226.294936 214.598124 
z
" style="fill:#74081d;fill-opacity:0.8;"/>
    <path clip-path="url(#pe4bf2d1ac6)" d="M 226.294936 214.598124 
L 239.050435 205.254346 
L 239.028152 206.00742 
L 226.276298 215.355772 
z
" style="fill:#ba0c2f;fill-opacity:0.8;"/>
    <path clip-path="url(#pe4bf2d1ac6)" d="M 202.720636 209.18119 
L 226.294936 214.598124 
L 226.276298 215.355772 
L 202.709204 209.936193 
z
" style="fill:#5d0618;fill-opacity:0.8;"/>
   </g>
   <g id="Poly3DCollection_13">
    <path clip-path="url(#pe4bf2d1ac6)" d="M 252.912168 173.268575 
L 264.874999 164.709032 
L 287.680627 169.631304 
L 275.868268 178.284204 
z
" style="fill:#74081d;fill-opacity:0.8;"/>
    <path clip-path="url(#pe4bf2d1ac6)" d="M 264.874999 164.709032 
L 269.693676 41.914695 
L 293.630641 46.378386 
L 287.680627 169.631304 
z
" style="fill:#5d0618;fill-opacity:0.8;"/>
    <path clip-path="url(#pe4bf2d1ac6)" d="M 252.912168 173.268575 
L 257.196886 49.678288 
L 269.693676 41.914695 
L 264.874999 164.709032 
z
" style="fill:#ba0c2f;fill-opacity:0.8;"/>
    <path clip-path="url(#pe4bf2d1ac6)" d="M 275.868268 178.284204 
L 287.680627 169.631304 
L 293.630641 46.378386 
L 281.29985 54.230787 
z
" style="fill:#5d0618;fill-opacity:0.8;"/>
    <path clip-path="url(#pe4bf2d1ac6)" d="M 252.912168 173.268575 
L 275.868268 178.284204 
L 281.29985 54.230787 
L 257.196886 49.678288 
z
" style="fill:#ba0c2f;fill-opacity:0.8;"/>
    <path clip-path="url(#pe4bf2d1ac6)" d="M 257.196886 49.678288 
L 281.29985 54.230787 
L 293.630641 46.378386 
L 269.693676 41.914695 
z
" style="fill:#a30a29;fill-opacity:0.8;"/>
   </g>
   <g id="Poly3DCollection_14">
    <path clip-path="url(#pe4bf2d1ac6)" d="M 142.890009 207.740104 
L 142.821113 199.842429 
L 166.093397 205.215136 
L 166.089215 213.140635 
z
" style="fill:#5d0618;fill-opacity:0.8;"/>
    <path clip-path="url(#pe4bf2d1ac6)" d="M 129.1524 217.13309 
L 129.039135 209.187146 
L 142.821113 199.842429 
L 142.890009 207.740104 
z
" style="fill:#ba0c2f;fill-opacity:0.8;"/>
    <path clip-path="url(#pe4bf2d1ac6)" d="M 129.1524 217.13309 
L 142.890009 207.740104 
L 166.089215 213.140635 
L 152.50305 222.640982 
z
" style="fill:#74081d;fill-opacity:0.8;"/>
    <path clip-path="url(#pe4bf2d1ac6)" d="M 129.039135 209.187146 
L 152.463819 214.667004 
L 166.093397 205.215136 
L 142.821113 199.842429 
z
" style="fill:#a30a29;fill-opacity:0.8;"/>
    <path clip-path="url(#pe4bf2d1ac6)" d="M 152.50305 222.640982 
L 166.089215 213.140635 
L 166.093397 205.215136 
L 152.463819 214.667004 
z
" style="fill:#5d0618;fill-opacity:0.8;"/>
    <path clip-path="url(#pe4bf2d1ac6)" d="M 129.1524 217.13309 
L 152.50305 222.640982 
L 152.463819 214.667004 
L 129.039135 209.187146 
z
" style="fill:#ba0c2f;fill-opacity:0.8;"/>
   </g>
   <g id="Poly3DCollection_15">
    <path clip-path="url(#pe4bf2d1ac6)" d="M 25.509342 197.058116 
L 203.75672 239.298771 
L 299.784581 168.36506 
L 130.036732 131.88238 
z
" style="fill-opacity:0.15;"/>
   </g>
   <g id="Poly3DCollection_16">
    <path clip-path="url(#pe4bf2d1ac6)" d="M 38.34986 195.714817 
L 52.65171 186.733577 
L 74.836018 191.89785 
L 60.66922 200.979451 
z
" style="fill:#74081d;fill-opacity:0.8;"/>
    <path clip-path="url(#pe4bf2d1ac6)" d="M 52.65171 186.733577 
L 46.933544 57.750519 
L 70.222556 62.427839 
L 74.836018 191.89785 
z
" style="fill:#5d0618;fill-opacity:0.8;"/>
    <path clip-path="url(#pe4bf2d1ac6)" d="M 38.34986 195.714817 
L 31.836896 65.886594 
L 46.933544 57.750519 
L 52.65171 186.733577 
z
" style="fill:#ba0c2f;fill-opacity:0.8;"/>
    <path clip-path="url(#pe4bf2d1ac6)" d="M 60.66922 200.979451 
L 74.836018 191.89785 
L 70.222556 62.427839 
L 55.274545 70.659531 
z
" style="fill:#5d0618;fill-opacity:0.8;"/>
    <path clip-path="url(#pe4bf2d1ac6)" d="M 38.34986 195.714817 
L 60.66922 200.979451 
L 55.274545 70.659531 
L 31.836896 65.886594 
z
" style="fill:#ba0c2f;fill-opacity:0.8;"/>
    <path clip-path="url(#pe4bf2d1ac6)" d="M 31.836896 65.886594 
L 55.274545 70.659531 
L 70.222556 62.427839 
L 46.933544 57.750519 
z
" style="fill:#a30a29;fill-opacity:0.8;"/>
   </g>
   <g id="Poly3DCollection_17">
    <path clip-path="url(#pe4bf2d1ac6)" d="M 176.122691 228.212323 
L 189.553027 218.602764 
L 213.286 224.127551 
L 200.015998 233.848216 
z
" style="fill:#74081d;fill-opacity:0.8;"/>
    <path clip-path="url(#pe4bf2d1ac6)" d="M 189.553027 218.602764 
L 190.720119 101.014401 
L 215.584393 106.094516 
L 213.286 224.127551 
z
" style="fill:#5d0618;fill-opacity:0.8;"/>
    <path clip-path="url(#pe4bf2d1ac6)" d="M 176.122691 228.212323 
L 176.662941 109.852284 
L 190.720119 101.014401 
L 189.553027 218.602764 
z
" style="fill:#ba0c2f;fill-opacity:0.8;"/>
    <path clip-path="url(#pe4bf2d1ac6)" d="M 200.015998 233.848216 
L 213.286 224.127551 
L 215.584393 106.094516 
L 201.703314 115.039464 
z
" style="fill:#5d0618;fill-opacity:0.8;"/>
    <path clip-path="url(#pe4bf2d1ac6)" d="M 176.122691 228.212323 
L 200.015998 233.848216 
L 201.703314 115.039464 
L 176.662941 109.852284 
z
" style="fill:#ba0c2f;fill-opacity:0.8;"/>
    <path clip-path="url(#pe4bf2d1ac6)" d="M 176.662941 109.852284 
L 201.703314 115.039464 
L 215.584393 106.094516 
L 190.720119 101.014401 
z
" style="fill:#a30a29;fill-opacity:0.8;"/>
   </g>
  </g>
  <g id="patch_6">
   <path d="M 425.945455 262.8 
L 806.4 262.8 
L 806.4 -14.4 
L 425.945455 -14.4 
z
" style="fill:#ffffff;"/>
  </g>
  <g id="pane3d_4">
   <g id="patch_7">
    <path d="M 476.380584 201.548569 
L 585.268665 133.58541 
L 583.455794 3.718968 
L 468.496488 64.782468 
" style="fill:#f2f2f2;opacity:0.5;stroke:#f2f2f2;stroke-linejoin:miter;"/>
   </g>
  </g>
  <g id="pane3d_5">
   <g id="patch_8">
    <path d="M 585.268665 133.58541 
L 761.65712 171.581202 
L 769.037001 37.79869 
L 583.455794 3.718968 
" style="fill:#e6e6e6;opacity:0.5;stroke:#e6e6e6;stroke-linejoin:miter;"/>
   </g>
  </g>
  <g id="pane3d_6">
   <g id="patch_9">
    <path d="M 476.380584 201.548569 
L 661.965072 245.80086 
L 761.65712 171.581202 
L 585.268665 133.58541 
" style="fill:#ececec;opacity:0.5;stroke:#ececec;stroke-linejoin:miter;"/>
   </g>
  </g>
  <g id="axis3d_4">
   <g id="line2d_17">
    <path d="M 476.380584 201.548569 
L 661.965072 245.80086 
" style="fill:none;stroke:#000000;stroke-linecap:square;stroke-width:0.8;"/>
   </g>
   <g id="Line3DCollection_4">
    <path d="M 498.841271 206.90428 
L 606.679397 138.19749 
L 605.9393 7.847789 
" style="fill:none;stroke:#b0b0b0;stroke-width:0.8;"/>
    <path d="M 544.057792 217.686079 
L 649.729469 147.470895 
L 651.182353 16.156123 
" style="fill:none;stroke:#b0b0b0;stroke-width:0.8;"/>
    <path d="M 590.310744 228.715013 
L 693.693551 156.941187 
L 697.435637 24.649974 
" style="fill:none;stroke:#b0b0b0;stroke-width:0.8;"/>
    <path d="M 637.636176 239.999678 
L 738.601063 166.614702 
L 744.733372 33.335625 
" style="fill:none;stroke:#b0b0b0;stroke-width:0.8;"/>
   </g>
   <g id="xtick_14">
    <g id="line2d_18">
     <path d="M 499.770538 206.312217 
L 496.979262 208.09062 
" style="fill:none;stroke:#000000;stroke-linecap:square;stroke-width:0.8;"/>
    </g>
    <g id="text_15">
     <!-- 00 -->
     <g transform="translate(479.875817 237.14703)rotate(-45)scale(0.14 -0.14)">
      <use transform="scale(0.996264)" xlink:href="#CMR17-48"/>
      <use transform="translate(45.690477 0)scale(0.996264)" xlink:href="#CMR17-48"/>
     </g>
    </g>
   </g>
   <g id="xtick_15">
    <g id="line2d_19">
     <path d="M 544.969128 217.080527 
L 542.231671 218.899473 
" style="fill:none;stroke:#000000;stroke-linecap:square;stroke-width:0.8;"/>
    </g>
    <g id="text_16">
     <!-- 01 -->
     <g transform="translate(525.088242 248.103782)rotate(-45)scale(0.14 -0.14)">
      <use transform="scale(0.996264)" xlink:href="#CMR17-48"/>
      <use transform="translate(45.690477 0)scale(0.996264)" xlink:href="#CMR17-49"/>
     </g>
    </g>
   </g>
   <g id="xtick_16">
    <g id="line2d_20">
     <path d="M 591.20308 228.095506 
L 588.522658 229.956397 
" style="fill:none;stroke:#000000;stroke-linecap:square;stroke-width:0.8;"/>
    </g>
    <g id="text_17">
     <!-- 10 -->
     <g transform="translate(571.338855 259.312128)rotate(-45)scale(0.14 -0.14)">
      <use transform="scale(0.996264)" xlink:href="#CMR17-49"/>
      <use transform="translate(45.690477 0)scale(0.996264)" xlink:href="#CMR17-48"/>
     </g>
    </g>
   </g>
   <g id="xtick_17">
    <g id="line2d_21">
     <path d="M 638.50838 239.365727 
L 635.888391 241.270032 
" style="fill:none;stroke:#000000;stroke-linecap:square;stroke-width:0.8;"/>
    </g>
    <g id="text_18">
     <!-- 11 -->
     <g transform="translate(618.66383 270.780834)rotate(-45)scale(0.14 -0.14)">
      <use transform="scale(0.996264)" xlink:href="#CMR17-49"/>
      <use transform="translate(45.690477 0)scale(0.996264)" xlink:href="#CMR17-49"/>
     </g>
    </g>
   </g>
  </g>
  <g id="axis3d_5">
   <g id="line2d_22">
    <path d="M 761.65712 171.581202 
L 661.965072 245.80086 
" style="fill:none;stroke:#000000;stroke-linecap:square;stroke-width:0.8;"/>
   </g>
   <g id="Line3DCollection_5">
    <path d="M 484.000685 56.547028 
L 491.016499 192.413474 
L 675.403872 235.795817 
" style="fill:none;stroke:#b0b0b0;stroke-width:0.8;"/>
    <path d="M 513.777478 40.730342 
L 519.168861 174.842005 
L 701.219492 216.576366 
" style="fill:none;stroke:#b0b0b0;stroke-width:0.8;"/>
    <path d="M 542.401344 25.526062 
L 546.284836 157.917404 
L 726.04244 198.095948 
" style="fill:none;stroke:#b0b0b0;stroke-width:0.8;"/>
    <path d="M 569.937971 10.899296 
L 572.420618 141.604597 
L 749.928893 180.312741 
" style="fill:none;stroke:#b0b0b0;stroke-width:0.8;"/>
   </g>
   <g id="xtick_18">
    <g id="line2d_23">
     <path d="M 673.861052 235.432825 
L 678.492943 236.522608 
" style="fill:none;stroke:#000000;stroke-linecap:square;stroke-width:0.8;"/>
    </g>
    <g id="text_19">
     <!-- 00 -->
     <g transform="translate(689.195824 248.348363)rotate(-337.5)scale(0.14 -0.14)">
      <use transform="scale(0.996264)" xlink:href="#CMR17-48"/>
      <use transform="translate(45.690477 0)scale(0.996264)" xlink:href="#CMR17-48"/>
     </g>
    </g>
   </g>
   <g id="xtick_19">
    <g id="line2d_24">
     <path d="M 699.697534 216.227463 
L 704.266725 217.274932 
" style="fill:none;stroke:#000000;stroke-linecap:square;stroke-width:0.8;"/>
    </g>
    <g id="text_20">
     <!-- 01 -->
     <g transform="translate(714.749375 228.903937)rotate(-337.5)scale(0.14 -0.14)">
      <use transform="scale(0.996264)" xlink:href="#CMR17-48"/>
      <use transform="translate(45.690477 0)scale(0.996264)" xlink:href="#CMR17-49"/>
     </g>
    </g>
   </g>
   <g id="xtick_20">
    <g id="line2d_25">
     <path d="M 724.540896 197.76033 
L 729.048738 198.767901 
" style="fill:none;stroke:#000000;stroke-linecap:square;stroke-width:0.8;"/>
    </g>
    <g id="text_21">
     <!-- 10 -->
     <g transform="translate(739.320787 210.206849)rotate(-337.5)scale(0.14 -0.14)">
      <use transform="scale(0.996264)" xlink:href="#CMR17-49"/>
      <use transform="translate(45.690477 0)scale(0.996264)" xlink:href="#CMR17-48"/>
     </g>
    </g>
   </g>
   <g id="xtick_21">
    <g id="line2d_26">
     <path d="M 748.44732 179.989663 
L 752.895146 180.959573 
" style="fill:none;stroke:#000000;stroke-linecap:square;stroke-width:0.8;"/>
    </g>
    <g id="text_22">
     <!-- 11 -->
     <g transform="translate(762.965613 192.214827)rotate(-337.5)scale(0.14 -0.14)">
      <use transform="scale(0.996264)" xlink:href="#CMR17-49"/>
      <use transform="translate(45.690477 0)scale(0.996264)" xlink:href="#CMR17-49"/>
     </g>
    </g>
   </g>
  </g>
  <g id="axis3d_6">
   <g id="line2d_27">
    <path d="M 761.65712 171.581202 
L 769.037001 37.79869 
" style="fill:none;stroke:#000000;stroke-linecap:square;stroke-width:0.8;"/>
   </g>
   <g id="text_23">
    <!-- Im[$\rho$] -->
    <defs>
     <path d="M 19.703125 60.90625 
C 19.703125 65.390625 20.90625 65.390625 28.09375 65.390625 
L 28.09375 68 
C 24.90625 67.796875 19.796875 67.796875 16.40625 67.796875 
C 13 67.796875 7.90625 67.796875 4.703125 68 
L 4.703125 65.390625 
C 11.90625 65.390625 13.09375 65.390625 13.09375 60.90625 
L 13.09375 7.078125 
C 13.09375 2.59375 11.90625 2.59375 4.703125 2.59375 
L 4.703125 0 
C 7.90625 0.1875 13 0.1875 16.40625 0.1875 
C 19.796875 0.1875 24.90625 0.1875 28.09375 0 
L 28.09375 2.59375 
C 20.90625 2.59375 19.703125 2.59375 19.703125 7.078125 
z
" id="CMR17-73"/>
     <path d="M 67.59375 30.53125 
C 67.59375 35.5625 66.703125 44 54.796875 44 
C 48 44 43.296875 39.375 41.5 33.953125 
L 41.40625 33.953125 
C 40.203125 42.1875 34.296875 44 28.703125 44 
C 20.796875 44 16.703125 37.875 15.203125 33.84375 
L 15.09375 33.84375 
L 15.09375 44 
L 3.296875 42.890625 
L 3.296875 40.28125 
C 9.203125 40.28125 10.09375 39.6875 10.09375 34.859375 
L 10.09375 6.921875 
C 10.09375 3.09375 9.703125 2.59375 3.296875 2.59375 
L 3.296875 0 
C 5.703125 0.1875 10.09375 0.1875 12.703125 0.1875 
C 15.296875 0.1875 19.796875 0.1875 22.203125 0 
L 22.203125 2.59375 
C 15.796875 2.59375 15.40625 3 15.40625 6.921875 
L 15.40625 26.21875 
C 15.40625 35.453125 21 42.390625 28 42.390625 
C 35.40625 42.390625 36.203125 35.765625 36.203125 30.9375 
L 36.203125 6.921875 
C 36.203125 3.09375 35.796875 2.59375 29.40625 2.59375 
L 29.40625 0 
C 31.796875 0.1875 36.203125 0.1875 38.796875 0.1875 
C 41.40625 0.1875 45.90625 0.1875 48.296875 0 
L 48.296875 2.59375 
C 41.90625 2.59375 41.5 3 41.5 6.921875 
L 41.5 26.21875 
C 41.5 35.453125 47.09375 42.390625 54.09375 42.390625 
C 61.5 42.390625 62.296875 35.765625 62.296875 30.9375 
L 62.296875 6.921875 
C 62.296875 3.09375 61.90625 2.59375 55.5 2.59375 
L 55.5 0 
C 57.90625 0.1875 62.296875 0.1875 64.90625 0.1875 
C 67.5 0.1875 72 0.1875 74.40625 0 
L 74.40625 2.59375 
C 68 2.59375 67.59375 3 67.59375 6.921875 
z
" id="CMR17-109"/>
    </defs>
    <g transform="translate(809.026865 118.025317)rotate(-86.842577)scale(0.14 -0.14)">
     <use transform="scale(0.996264)" xlink:href="#CMR17-73"/>
     <use transform="translate(32.638409 0)scale(0.996264)" xlink:href="#CMR17-109"/>
     <use transform="translate(109.557999 0)scale(0.996264)" xlink:href="#CMR17-91"/>
     <use transform="translate(134.429058 0)scale(0.996264)" xlink:href="#CMMI12-26"/>
     <use transform="translate(184.74343 0)scale(0.996264)" xlink:href="#CMR17-93"/>
    </g>
   </g>
   <g id="Line3DCollection_6">
    <path d="M 762.167293 162.332771 
L 585.143086 124.589477 
L 475.836426 192.109021 
" style="fill:none;stroke:#b0b0b0;stroke-width:0.8;"/>
    <path d="M 763.538802 137.470056 
L 584.805678 100.418996 
L 474.372916 166.721388 
" style="fill:none;stroke:#b0b0b0;stroke-width:0.8;"/>
    <path d="M 764.937283 112.118397 
L 584.461916 75.793336 
L 472.879662 140.817763 
" style="fill:none;stroke:#b0b0b0;stroke-width:0.8;"/>
    <path d="M 766.363539 86.263226 
L 584.111619 50.699518 
L 471.355745 114.382254 
" style="fill:none;stroke:#b0b0b0;stroke-width:0.8;"/>
    <path d="M 767.818406 59.889393 
L 583.754598 25.124064 
L 469.800214 87.398309 
" style="fill:none;stroke:#b0b0b0;stroke-width:0.8;"/>
   </g>
   <g id="xtick_22">
    <g id="line2d_28">
     <path d="M 760.690119 162.017823 
L 765.124723 162.963324 
" style="fill:none;stroke:#000000;stroke-linecap:square;stroke-width:0.8;"/>
    </g>
    <g id="text_24">
     <!-- $0.0$ -->
     <g transform="translate(772.017667 170.086919)scale(0.14 -0.14)">
      <use transform="scale(0.996264)" xlink:href="#CMR17-48"/>
      <use transform="translate(45.690477 0)scale(0.996264)" xlink:href="#CMMI12-58"/>
      <use transform="translate(72.787654 0)scale(0.996264)" xlink:href="#CMR17-48"/>
     </g>
    </g>
   </g>
   <g id="xtick_23">
    <g id="line2d_29">
     <path d="M 762.046769 137.16076 
L 766.526012 138.089299 
" style="fill:none;stroke:#000000;stroke-linecap:square;stroke-width:0.8;"/>
    </g>
    <g id="text_25">
     <!-- $0.1$ -->
     <g transform="translate(773.566711 145.258904)scale(0.14 -0.14)">
      <use transform="scale(0.996264)" xlink:href="#CMR17-48"/>
      <use transform="translate(45.690477 0)scale(0.996264)" xlink:href="#CMMI12-58"/>
      <use transform="translate(72.787654 0)scale(0.996264)" xlink:href="#CMR17-49"/>
     </g>
    </g>
   </g>
   <g id="xtick_24">
    <g id="line2d_30">
     <path d="M 763.430088 111.815037 
L 767.954877 112.725761 
" style="fill:none;stroke:#000000;stroke-linecap:square;stroke-width:0.8;"/>
    </g>
    <g id="text_26">
     <!-- $0.2$ -->
     <g transform="translate(775.146152 119.943687)scale(0.14 -0.14)">
      <use transform="scale(0.996264)" xlink:href="#CMR17-48"/>
      <use transform="translate(45.690477 0)scale(0.996264)" xlink:href="#CMMI12-58"/>
      <use transform="translate(72.787654 0)scale(0.996264)" xlink:href="#CMR17-50"/>
     </g>
    </g>
   </g>
   <g id="xtick_25">
    <g id="line2d_31">
     <path d="M 764.840872 85.966101 
L 769.412142 86.858115 
" style="fill:none;stroke:#000000;stroke-linecap:square;stroke-width:0.8;"/>
    </g>
    <g id="text_27">
     <!-- $0.3$ -->
     <g transform="translate(776.756894 94.126785)scale(0.14 -0.14)">
      <use transform="scale(0.996264)" xlink:href="#CMR17-48"/>
      <use transform="translate(45.690477 0)scale(0.996264)" xlink:href="#CMMI12-58"/>
      <use transform="translate(72.787654 0)scale(0.996264)" xlink:href="#CMR17-51"/>
     </g>
    </g>
   </g>
   <g id="xtick_26">
    <g id="line2d_32">
     <path d="M 766.279947 59.598815 
L 770.898661 60.471181 
" style="fill:none;stroke:#000000;stroke-linecap:square;stroke-width:0.8;"/>
    </g>
    <g id="text_28">
     <!-- $0.4$ -->
     <g transform="translate(778.399876 67.793137)scale(0.14 -0.14)">
      <use transform="scale(0.996264)" xlink:href="#CMR17-48"/>
      <use transform="translate(45.690477 0)scale(0.996264)" xlink:href="#CMMI12-58"/>
      <use transform="translate(72.787654 0)scale(0.996264)" xlink:href="#CMR17-52"/>
     </g>
    </g>
   </g>
  </g>
  <g id="axes_2">
   <g id="Poly3DCollection_18">
    <path clip-path="url(#p0e647e870d)" d="M 589.516602 130.9242 
L 589.52445 131.562168 
L 610.960323 136.164222 
L 610.957754 135.524044 
z
" style="fill:#0cba97;fill-opacity:0.8;"/>
    <path clip-path="url(#p0e647e870d)" d="M 576.702477 138.922124 
L 576.713588 139.563926 
L 589.52445 131.562168 
L 589.516602 130.9242 
z
" style="fill:#065d4c;fill-opacity:0.8;"/>
    <path clip-path="url(#p0e647e870d)" d="M 576.713588 139.563926 
L 598.278355 144.250644 
L 610.960323 136.164222 
L 589.52445 131.562168 
z
" style="fill:#0aa384;fill-opacity:0.8;"/>
    <path clip-path="url(#p0e647e870d)" d="M 576.702477 138.922124 
L 589.516602 130.9242 
L 610.957754 135.524044 
L 598.272586 143.606613 
z
" style="fill:#08745e;fill-opacity:0.8;"/>
    <path clip-path="url(#p0e647e870d)" d="M 598.272586 143.606613 
L 610.957754 135.524044 
L 610.960323 136.164222 
L 598.278355 144.250644 
z
" style="fill:#0cba97;fill-opacity:0.8;"/>
    <path clip-path="url(#p0e647e870d)" d="M 576.702477 138.922124 
L 598.272586 143.606613 
L 598.278355 144.250644 
L 576.713588 139.563926 
z
" style="fill:#065d4c;fill-opacity:0.8;"/>
   </g>
   <g id="Poly3DCollection_19">
    <path clip-path="url(#p0e647e870d)" d="M 632.625382 140.172476 
L 632.61989 141.423126 
L 654.506884 146.125262 
L 654.523095 144.870268 
z
" style="fill:#0cba97;fill-opacity:0.8;"/>
    <path clip-path="url(#p0e647e870d)" d="M 620.072637 148.34104 
L 620.073246 149.599228 
L 632.61989 141.423126 
L 632.625382 140.172476 
z
" style="fill:#065d4c;fill-opacity:0.8;"/>
    <path clip-path="url(#p0e647e870d)" d="M 620.073246 149.599228 
L 642.096083 154.388776 
L 654.506884 146.125262 
L 632.61989 141.423126 
z
" style="fill:#0aa384;fill-opacity:0.8;"/>
    <path clip-path="url(#p0e647e870d)" d="M 620.072637 148.34104 
L 632.625382 140.172476 
L 654.523095 144.870268 
L 642.106327 153.126208 
z
" style="fill:#08745e;fill-opacity:0.8;"/>
    <path clip-path="url(#p0e647e870d)" d="M 642.106327 153.126208 
L 654.523095 144.870268 
L 654.506884 146.125262 
L 642.096083 154.388776 
z
" style="fill:#0cba97;fill-opacity:0.8;"/>
    <path clip-path="url(#p0e647e870d)" d="M 620.072637 148.34104 
L 642.106327 153.126208 
L 642.096083 154.388776 
L 620.073246 149.599228 
z
" style="fill:#065d4c;fill-opacity:0.8;"/>
   </g>
   <g id="Poly3DCollection_20">
    <path clip-path="url(#p0e647e870d)" d="M 563.652089 147.067511 
L 563.502467 140.40233 
L 585.258467 145.150511 
L 585.352282 151.839003 
z
" style="fill:#065d4c;fill-opacity:0.8;"/>
    <path clip-path="url(#p0e647e870d)" d="M 550.358843 155.364479 
L 550.17301 148.658848 
L 563.502467 140.40233 
L 563.652089 147.067511 
z
" style="fill:#0cba97;fill-opacity:0.8;"/>
    <path clip-path="url(#p0e647e870d)" d="M 550.358843 155.364479 
L 563.652089 147.067511 
L 585.352282 151.839003 
L 572.190241 160.22542 
z
" style="fill:#08745e;fill-opacity:0.8;"/>
    <path clip-path="url(#p0e647e870d)" d="M 550.17301 148.658848 
L 572.060888 153.496276 
L 585.258467 145.150511 
L 563.502467 140.40233 
z
" style="fill:#0aa384;fill-opacity:0.8;"/>
    <path clip-path="url(#p0e647e870d)" d="M 572.190241 160.22542 
L 585.352282 151.839003 
L 585.258467 145.150511 
L 572.060888 153.496276 
z
" style="fill:#065d4c;fill-opacity:0.8;"/>
    <path clip-path="url(#p0e647e870d)" d="M 550.358843 155.364479 
L 572.190241 160.22542 
L 572.060888 153.496276 
L 550.17301 148.658848 
z
" style="fill:#0cba97;fill-opacity:0.8;"/>
   </g>
   <g id="Poly3DCollection_21">
    <path clip-path="url(#p0e647e870d)" d="M 676.654576 149.618212 
L 676.634699 150.539906 
L 698.995527 155.342019 
L 699.023589 154.417114 
z
" style="fill:#0cba97;fill-opacity:0.8;"/>
    <path clip-path="url(#p0e647e870d)" d="M 664.377432 157.962936 
L 664.361821 158.890202 
L 676.634699 150.539906 
L 676.654576 149.618212 
z
" style="fill:#065d4c;fill-opacity:0.8;"/>
    <path clip-path="url(#p0e647e870d)" d="M 664.361821 158.890202 
L 686.865908 163.782568 
L 698.995527 155.342019 
L 676.634699 150.539906 
z
" style="fill:#0aa384;fill-opacity:0.8;"/>
    <path clip-path="url(#p0e647e870d)" d="M 664.377432 157.962936 
L 676.654576 149.618212 
L 699.023589 154.417114 
L 686.88981 162.852062 
z
" style="fill:#08745e;fill-opacity:0.8;"/>
    <path clip-path="url(#p0e647e870d)" d="M 686.88981 162.852062 
L 699.023589 154.417114 
L 698.995527 155.342019 
L 686.865908 163.782568 
z
" style="fill:#0cba97;fill-opacity:0.8;"/>
    <path clip-path="url(#p0e647e870d)" d="M 664.377432 157.962936 
L 686.88981 162.852062 
L 686.865908 163.782568 
L 664.361821 158.890202 
z
" style="fill:#065d4c;fill-opacity:0.8;"/>
   </g>
   <g id="Poly3DCollection_22">
    <path clip-path="url(#p0e647e870d)" d="M 607.285958 156.661834 
L 607.285881 156.647654 
L 629.456954 161.522607 
L 629.456908 161.536838 
z
" style="fill:#065d4c;fill-opacity:0.8;"/>
    <path clip-path="url(#p0e647e870d)" d="M 594.258744 165.139154 
L 594.258593 165.124887 
L 607.285881 156.647654 
L 607.285958 156.661834 
z
" style="fill:#0cba97;fill-opacity:0.8;"/>
    <path clip-path="url(#p0e647e870d)" d="M 594.258744 165.139154 
L 607.285958 156.661834 
L 629.456908 161.536838 
L 616.568237 170.106547 
z
" style="fill:#08745e;fill-opacity:0.8;"/>
    <path clip-path="url(#p0e647e870d)" d="M 594.258593 165.124887 
L 616.56821 170.09223 
L 629.456954 161.522607 
L 607.285881 156.647654 
z
" style="fill:#0aa384;fill-opacity:0.8;"/>
    <path clip-path="url(#p0e647e870d)" d="M 616.568237 170.106547 
L 629.456908 161.536838 
L 629.456954 161.522607 
L 616.56821 170.09223 
z
" style="fill:#065d4c;fill-opacity:0.8;"/>
    <path clip-path="url(#p0e647e870d)" d="M 594.258744 165.139154 
L 616.568237 170.106547 
L 616.56821 170.09223 
L 594.258593 165.124887 
z
" style="fill:#0cba97;fill-opacity:0.8;"/>
   </g>
   <g id="Poly3DCollection_23">
    <path clip-path="url(#p0e647e870d)" d="M 721.633978 159.267799 
L 721.633978 159.267799 
L 744.489672 164.17111 
L 744.489672 164.17111 
z
" style="fill:#065d4c;fill-opacity:0.8;"/>
    <path clip-path="url(#p0e647e870d)" d="M 709.647403 167.794443 
L 709.647403 167.794443 
L 721.633978 159.267799 
L 721.633978 159.267799 
z
" style="fill:#065d4c;fill-opacity:0.8;"/>
    <path clip-path="url(#p0e647e870d)" d="M 709.647403 167.794443 
L 721.633978 159.267799 
L 744.489672 164.17111 
L 732.65424 172.790954 
z
" style="fill:#08745e;fill-opacity:0.8;"/>
    <path clip-path="url(#p0e647e870d)" d="M 709.647403 167.794443 
L 732.65424 172.790954 
L 744.489672 164.17111 
L 721.633978 159.267799 
z
" style="fill:#0aa384;fill-opacity:0.8;"/>
    <path clip-path="url(#p0e647e870d)" d="M 732.65424 172.790954 
L 744.489672 164.17111 
L 744.489672 164.17111 
L 732.65424 172.790954 
z
" style="fill:#065d4c;fill-opacity:0.8;"/>
    <path clip-path="url(#p0e647e870d)" d="M 709.647403 167.794443 
L 732.65424 172.790954 
L 732.65424 172.790954 
L 709.647403 167.794443 
z
" style="fill:#065d4c;fill-opacity:0.8;"/>
   </g>
   <g id="Poly3DCollection_24">
    <path clip-path="url(#p0e647e870d)" d="M 536.815896 163.817297 
L 536.606303 157.487452 
L 558.623655 162.418137 
L 558.779616 168.770226 
z
" style="fill:#065d4c;fill-opacity:0.8;"/>
    <path clip-path="url(#p0e647e870d)" d="M 523.016145 172.430398 
L 522.770006 166.061956 
L 536.606303 157.487452 
L 536.815896 163.817297 
z
" style="fill:#0cba97;fill-opacity:0.8;"/>
    <path clip-path="url(#p0e647e870d)" d="M 523.016145 172.430398 
L 536.815896 163.817297 
L 558.779616 168.770226 
L 545.113297 177.477951 
z
" style="fill:#08745e;fill-opacity:0.8;"/>
    <path clip-path="url(#p0e647e870d)" d="M 522.770006 166.061956 
L 544.921436 171.087078 
L 558.623655 162.418137 
L 536.606303 157.487452 
z
" style="fill:#0aa384;fill-opacity:0.8;"/>
    <path clip-path="url(#p0e647e870d)" d="M 545.113297 177.477951 
L 558.779616 168.770226 
L 558.623655 162.418137 
L 544.921436 171.087078 
z
" style="fill:#065d4c;fill-opacity:0.8;"/>
    <path clip-path="url(#p0e647e870d)" d="M 523.016145 172.430398 
L 545.113297 177.477951 
L 544.921436 171.087078 
L 522.770006 166.061956 
z
" style="fill:#0cba97;fill-opacity:0.8;"/>
   </g>
   <g id="Poly3DCollection_25">
    <path clip-path="url(#p0e647e870d)" d="M 651.869002 166.464864 
L 651.869002 166.464864 
L 674.526196 171.446784 
L 674.526196 171.446784 
z
" style="fill:#065d4c;fill-opacity:0.8;"/>
    <path clip-path="url(#p0e647e870d)" d="M 639.122688 175.128482 
L 639.122688 175.128482 
L 651.869002 166.464864 
L 651.869002 166.464864 
z
" style="fill:#065d4c;fill-opacity:0.8;"/>
    <path clip-path="url(#p0e647e870d)" d="M 639.122688 175.128482 
L 651.869002 166.464864 
L 674.526196 171.446784 
L 661.926154 180.205862 
z
" style="fill:#08745e;fill-opacity:0.8;"/>
    <path clip-path="url(#p0e647e870d)" d="M 639.122688 175.128482 
L 661.926154 180.205862 
L 674.526196 171.446784 
L 651.869002 166.464864 
z
" style="fill:#0aa384;fill-opacity:0.8;"/>
    <path clip-path="url(#p0e647e870d)" d="M 661.926154 180.205862 
L 674.526196 171.446784 
L 674.526196 171.446784 
L 661.926154 180.205862 
z
" style="fill:#065d4c;fill-opacity:0.8;"/>
    <path clip-path="url(#p0e647e870d)" d="M 639.122688 175.128482 
L 661.926154 180.205862 
L 661.926154 180.205862 
L 639.122688 175.128482 
z
" style="fill:#065d4c;fill-opacity:0.8;"/>
   </g>
   <g id="Poly3DCollection_26">
    <path clip-path="url(#p0e647e870d)" d="M 580.984143 173.777458 
L 580.984143 173.777458 
L 603.433461 178.839892 
L 603.433461 178.839892 
z
" style="fill:#065d4c;fill-opacity:0.8;"/>
    <path clip-path="url(#p0e647e870d)" d="M 567.455041 182.581376 
L 567.455041 182.581376 
L 580.984143 173.777458 
L 580.984143 173.777458 
z
" style="fill:#065d4c;fill-opacity:0.8;"/>
    <path clip-path="url(#p0e647e870d)" d="M 567.455041 182.581376 
L 580.984143 173.777458 
L 603.433461 178.839892 
L 590.045462 187.741605 
z
" style="fill:#08745e;fill-opacity:0.8;"/>
    <path clip-path="url(#p0e647e870d)" d="M 567.455041 182.581376 
L 590.045462 187.741605 
L 603.433461 178.839892 
L 580.984143 173.777458 
z
" style="fill:#0aa384;fill-opacity:0.8;"/>
    <path clip-path="url(#p0e647e870d)" d="M 590.045462 187.741605 
L 603.433461 178.839892 
L 603.433461 178.839892 
L 590.045462 187.741605 
z
" style="fill:#065d4c;fill-opacity:0.8;"/>
    <path clip-path="url(#p0e647e870d)" d="M 567.455041 182.581376 
L 590.045462 187.741605 
L 590.045462 187.741605 
L 567.455041 182.581376 
z
" style="fill:#065d4c;fill-opacity:0.8;"/>
   </g>
   <g id="Poly3DCollection_27">
    <path clip-path="url(#p0e647e870d)" d="M 697.432533 176.483486 
L 697.460715 175.543356 
L 720.629105 180.632445 
L 720.592145 181.575878 
z
" style="fill:#065d4c;fill-opacity:0.8;"/>
    <path clip-path="url(#p0e647e870d)" d="M 684.982782 185.33961 
L 685.006582 184.393748 
L 697.460715 175.543356 
L 697.432533 176.483486 
z
" style="fill:#0cba97;fill-opacity:0.8;"/>
    <path clip-path="url(#p0e647e870d)" d="M 684.982782 185.33961 
L 697.432533 176.483486 
L 720.592145 181.575878 
L 708.296812 190.530672 
z
" style="fill:#08745e;fill-opacity:0.8;"/>
    <path clip-path="url(#p0e647e870d)" d="M 685.006582 184.393748 
L 708.329508 189.581479 
L 720.629105 180.632445 
L 697.460715 175.543356 
z
" style="fill:#0aa384;fill-opacity:0.8;"/>
    <path clip-path="url(#p0e647e870d)" d="M 708.296812 190.530672 
L 720.592145 181.575878 
L 720.629105 180.632445 
L 708.329508 189.581479 
z
" style="fill:#065d4c;fill-opacity:0.8;"/>
    <path clip-path="url(#p0e647e870d)" d="M 684.982782 185.33961 
L 708.296812 190.530672 
L 708.329508 189.581479 
L 685.006582 184.393748 
z
" style="fill:#0cba97;fill-opacity:0.8;"/>
   </g>
   <g id="Poly3DCollection_28">
    <path clip-path="url(#p0e647e870d)" d="M 508.952218 181.208386 
L 508.952218 181.208386 
L 531.183901 186.353301 
L 531.183901 186.353301 
z
" style="fill:#065d4c;fill-opacity:0.8;"/>
    <path clip-path="url(#p0e647e870d)" d="M 494.616453 190.15604 
L 494.616453 190.15604 
L 508.952218 181.208386 
L 508.952218 181.208386 
z
" style="fill:#065d4c;fill-opacity:0.8;"/>
    <path clip-path="url(#p0e647e870d)" d="M 494.616453 190.15604 
L 508.952218 181.208386 
L 531.183901 186.353301 
L 516.983758 195.401162 
z
" style="fill:#08745e;fill-opacity:0.8;"/>
    <path clip-path="url(#p0e647e870d)" d="M 494.616453 190.15604 
L 516.983758 195.401162 
L 531.183901 186.353301 
L 508.952218 181.208386 
z
" style="fill:#0aa384;fill-opacity:0.8;"/>
    <path clip-path="url(#p0e647e870d)" d="M 516.983758 195.401162 
L 531.183901 186.353301 
L 531.183901 186.353301 
L 516.983758 195.401162 
z
" style="fill:#065d4c;fill-opacity:0.8;"/>
    <path clip-path="url(#p0e647e870d)" d="M 494.616453 190.15604 
L 516.983758 195.401162 
L 516.983758 195.401162 
L 494.616453 190.15604 
z
" style="fill:#065d4c;fill-opacity:0.8;"/>
   </g>
   <g id="Poly3DCollection_29">
    <path clip-path="url(#p0e647e870d)" d="M 626.131638 183.958445 
L 626.13161 183.972899 
L 649.082677 189.148561 
L 649.082836 189.134056 
z
" style="fill:#0cba97;fill-opacity:0.8;"/>
    <path clip-path="url(#p0e647e870d)" d="M 612.888735 192.959592 
L 612.888784 192.974134 
L 626.13161 183.972899 
L 626.131638 183.958445 
z
" style="fill:#065d4c;fill-opacity:0.8;"/>
    <path clip-path="url(#p0e647e870d)" d="M 612.888784 192.974134 
L 635.989044 198.250905 
L 649.082677 189.148561 
L 626.13161 183.972899 
z
" style="fill:#0aa384;fill-opacity:0.8;"/>
    <path clip-path="url(#p0e647e870d)" d="M 612.888735 192.959592 
L 626.131638 183.958445 
L 649.082836 189.134056 
L 635.989129 198.236311 
z
" style="fill:#08745e;fill-opacity:0.8;"/>
    <path clip-path="url(#p0e647e870d)" d="M 635.989129 198.236311 
L 649.082836 189.134056 
L 649.082677 189.148561 
L 635.989044 198.250905 
z
" style="fill:#0cba97;fill-opacity:0.8;"/>
    <path clip-path="url(#p0e647e870d)" d="M 612.888735 192.959592 
L 635.989129 198.236311 
L 635.989044 198.250905 
L 612.888784 192.974134 
z
" style="fill:#065d4c;fill-opacity:0.8;"/>
   </g>
   <g id="Poly3DCollection_30">
    <path clip-path="url(#p0e647e870d)" d="M 553.664049 191.555717 
L 553.836107 197.975597 
L 576.51173 203.259011 
L 576.396848 196.816602 
z
" style="fill:#0cba97;fill-opacity:0.8;"/>
    <path clip-path="url(#p0e647e870d)" d="M 539.603486 200.705477 
L 539.813332 207.164442 
L 553.836107 197.975597 
L 553.664049 191.555717 
z
" style="fill:#065d4c;fill-opacity:0.8;"/>
    <path clip-path="url(#p0e647e870d)" d="M 539.813332 207.164442 
L 562.631885 212.551661 
L 576.51173 203.259011 
L 553.836107 197.975597 
z
" style="fill:#0aa384;fill-opacity:0.8;"/>
    <path clip-path="url(#p0e647e870d)" d="M 539.603486 200.705477 
L 553.664049 191.555717 
L 576.396848 196.816602 
L 562.479934 206.069993 
z
" style="fill:#08745e;fill-opacity:0.8;"/>
    <path clip-path="url(#p0e647e870d)" d="M 562.479934 206.069993 
L 576.396848 196.816602 
L 576.51173 203.259011 
L 562.631885 212.551661 
z
" style="fill:#0cba97;fill-opacity:0.8;"/>
    <path clip-path="url(#p0e647e870d)" d="M 539.603486 200.705477 
L 562.479934 206.069993 
L 562.631885 212.551661 
L 539.813332 207.164442 
z
" style="fill:#065d4c;fill-opacity:0.8;"/>
   </g>
   <g id="Poly3DCollection_31">
    <path clip-path="url(#p0e647e870d)" d="M 672.29131 194.367683 
L 672.317607 193.067056 
L 695.80003 198.355092 
L 695.761411 199.660309 
z
" style="fill:#065d4c;fill-opacity:0.8;"/>
    <path clip-path="url(#p0e647e870d)" d="M 659.351009 203.572761 
L 659.370822 202.264172 
L 672.317607 193.067056 
L 672.29131 194.367683 
z
" style="fill:#0cba97;fill-opacity:0.8;"/>
    <path clip-path="url(#p0e647e870d)" d="M 659.351009 203.572761 
L 672.29131 194.367683 
L 695.761411 199.660309 
L 682.97884 208.969961 
z
" style="fill:#08745e;fill-opacity:0.8;"/>
    <path clip-path="url(#p0e647e870d)" d="M 659.370822 202.264172 
L 683.011145 207.656747 
L 695.80003 198.355092 
L 672.317607 193.067056 
z
" style="fill:#0aa384;fill-opacity:0.8;"/>
    <path clip-path="url(#p0e647e870d)" d="M 682.97884 208.969961 
L 695.761411 199.660309 
L 695.80003 198.355092 
L 683.011145 207.656747 
z
" style="fill:#065d4c;fill-opacity:0.8;"/>
    <path clip-path="url(#p0e647e870d)" d="M 659.351009 203.572761 
L 682.97884 208.969961 
L 683.011145 207.656747 
L 659.370822 202.264172 
z
" style="fill:#0cba97;fill-opacity:0.8;"/>
   </g>
   <g id="Poly3DCollection_32">
    <path clip-path="url(#p0e647e870d)" d="M 599.386584 202.136948 
L 599.446674 209.025184 
L 622.633989 214.430216 
L 622.637637 207.517769 
z
" style="fill:#0cba97;fill-opacity:0.8;"/>
    <path clip-path="url(#p0e647e870d)" d="M 585.617497 211.49574 
L 585.716284 218.425978 
L 599.446674 209.025184 
L 599.386584 202.136948 
z
" style="fill:#065d4c;fill-opacity:0.8;"/>
    <path clip-path="url(#p0e647e870d)" d="M 585.716284 218.425978 
L 609.054888 223.938404 
L 622.633989 214.430216 
L 599.446674 209.025184 
z
" style="fill:#0aa384;fill-opacity:0.8;"/>
    <path clip-path="url(#p0e647e870d)" d="M 585.617497 211.49574 
L 599.386584 202.136948 
L 622.637637 207.517769 
L 609.020672 216.983773 
z
" style="fill:#08745e;fill-opacity:0.8;"/>
    <path clip-path="url(#p0e647e870d)" d="M 609.020672 216.983773 
L 622.637637 207.517769 
L 622.633989 214.430216 
L 609.054888 223.938404 
z
" style="fill:#0cba97;fill-opacity:0.8;"/>
    <path clip-path="url(#p0e647e870d)" d="M 585.617497 211.49574 
L 609.020672 216.983773 
L 609.054888 223.938404 
L 585.716284 218.425978 
z
" style="fill:#065d4c;fill-opacity:0.8;"/>
   </g>
   <g id="Poly3DCollection_33">
    <path clip-path="url(#p0e647e870d)" d="M 646.154487 212.960101 
L 646.161196 212.284154 
L 669.954927 217.786667 
L 669.941718 218.465006 
z
" style="fill:#065d4c;fill-opacity:0.8;"/>
    <path clip-path="url(#p0e647e870d)" d="M 632.694059 222.53517 
L 632.697163 221.855075 
L 646.161196 212.284154 
L 646.154487 212.960101 
z
" style="fill:#0cba97;fill-opacity:0.8;"/>
    <path clip-path="url(#p0e647e870d)" d="M 632.694059 222.53517 
L 646.154487 212.960101 
L 669.941718 218.465006 
L 656.642364 228.151036 
z
" style="fill:#08745e;fill-opacity:0.8;"/>
    <path clip-path="url(#p0e647e870d)" d="M 632.697163 221.855075 
L 656.652057 227.468531 
L 669.954927 217.786667 
L 646.161196 212.284154 
z
" style="fill:#0aa384;fill-opacity:0.8;"/>
    <path clip-path="url(#p0e647e870d)" d="M 656.642364 228.151036 
L 669.941718 218.465006 
L 669.954927 217.786667 
L 656.652057 227.468531 
z
" style="fill:#065d4c;fill-opacity:0.8;"/>
    <path clip-path="url(#p0e647e870d)" d="M 632.694059 222.53517 
L 656.642364 228.151036 
L 656.652057 227.468531 
L 632.697163 221.855075 
z
" style="fill:#0cba97;fill-opacity:0.8;"/>
   </g>
   <g id="Poly3DCollection_34">
    <path clip-path="url(#p0e647e870d)" d="M 481.74717 191.494348 
L 660.392172 233.582364 
L 756.619181 162.909733 
L 586.510785 126.57049 
z
" style="fill-opacity:0.2;"/>
   </g>
  </g>
 </g>
 <defs>
  <clipPath id="pe4bf2d1ac6">
   <rect height="277.2" width="380.454545" x="-30.6" y="-14.4"/>
  </clipPath>
  <clipPath id="p0e647e870d">
   <rect height="277.2" width="380.454545" x="425.945455" y="-14.4"/>
  </clipPath>
 </defs>
</svg>
