<?xml version="1.0" encoding="utf-8" standalone="no"?>
<!DOCTYPE svg PUBLIC "-//W3C//DTD SVG 1.1//EN"
  "http://www.w3.org/Graphics/SVG/1.1/DTD/svg11.dtd">
<!-- Created with matplotlib (https://matplotlib.org/) -->
<svg height="302.4pt" version="1.1" viewBox="0 0 820.8 302.4" width="820.8pt" xmlns="http://www.w3.org/2000/svg" xmlns:xlink="http://www.w3.org/1999/xlink">
 <defs>
  <style type="text/css">
*{stroke-linecap:butt;stroke-linejoin:round;}
  </style>
 </defs>
 <g id="figure_1">
  <g id="patch_1">
   <path d="M 0 302.4 
L 820.8 302.4 
L 820.8 0 
L 0 0 
z
" style="fill:#ffffff;"/>
  </g>
  <g id="patch_2">
   <path d="M -30.6 262.8 
L 349.854545 262.8 
L 349.854545 -14.4 
L -30.6 -14.4 
z
" style="fill:#ffffff;"/>
  </g>
  <g id="pane3d_1">
   <g id="patch_3">
    <path d="M 19.835129 201.548569 
L 128.723211 133.58541 
L 126.910339 3.718968 
L 11.951034 64.782468 
" style="fill:#f2f2f2;opacity:0.5;stroke:#f2f2f2;stroke-linejoin:miter;"/>
   </g>
  </g>
  <g id="pane3d_2">
   <g id="patch_4">
    <path d="M 128.723211 133.58541 
L 305.111665 171.581202 
L 312.491547 37.79869 
L 126.910339 3.718968 
" style="fill:#e6e6e6;opacity:0.5;stroke:#e6e6e6;stroke-linejoin:miter;"/>
   </g>
  </g>
  <g id="pane3d_3">
   <g id="patch_5">
    <path d="M 19.835129 201.548569 
L 205.419617 245.80086 
L 305.111665 171.581202 
L 128.723211 133.58541 
" style="fill:#ececec;opacity:0.5;stroke:#ececec;stroke-linejoin:miter;"/>
   </g>
  </g>
  <g id="axis3d_1">
   <g id="line2d_1">
    <path d="M 19.835129 201.548569 
L 205.419617 245.80086 
" style="fill:none;stroke:#000000;stroke-linecap:square;stroke-width:0.8;"/>
   </g>
   <g id="Line3DCollection_1">
    <path d="M 42.295817 206.90428 
L 150.133942 138.19749 
L 149.393845 7.847789 
" style="fill:none;stroke:#b0b0b0;stroke-width:0.8;"/>
    <path d="M 87.512337 217.686079 
L 193.184014 147.470895 
L 194.636898 16.156123 
" style="fill:none;stroke:#b0b0b0;stroke-width:0.8;"/>
    <path d="M 133.765289 228.715013 
L 237.148096 156.941187 
L 240.890183 24.649974 
" style="fill:none;stroke:#b0b0b0;stroke-width:0.8;"/>
    <path d="M 181.090721 239.999678 
L 282.055608 166.614702 
L 288.187917 33.335625 
" style="fill:none;stroke:#b0b0b0;stroke-width:0.8;"/>
   </g>
   <g id="xtick_1">
    <g id="line2d_2">
     <path d="M 43.225084 206.312217 
L 40.433807 208.09062 
" style="fill:none;stroke:#000000;stroke-linecap:square;stroke-width:0.8;"/>
    </g>
    <g id="text_1">
     <!-- 00 -->
     <defs>
      <path d="M 42 31.84375 
C 42 37.96875 41.90625 48.421875 37.703125 56.453125 
C 34 63.484375 28.09375 66 22.90625 66 
C 18.09375 66 12 63.78125 8.203125 56.5625 
C 4.203125 49.015625 3.796875 39.671875 3.796875 31.84375 
C 3.796875 26.109375 3.90625 17.375 7 9.734375 
C 11.296875 -0.609375 19 -2 22.90625 -2 
C 27.5 -2 34.5 -0.109375 38.59375 9.4375 
C 41.59375 16.375 42 24.5 42 31.84375 
z
M 22.90625 -0.40625 
C 16.5 -0.40625 12.703125 5.125 11.296875 12.75 
C 10.203125 18.6875 10.203125 27.328125 10.203125 32.953125 
C 10.203125 40.6875 10.203125 47.109375 11.5 53.234375 
C 13.40625 61.78125 19 64.390625 22.90625 64.390625 
C 27 64.390625 32.296875 61.671875 34.203125 53.4375 
C 35.5 47.71875 35.59375 40.984375 35.59375 32.953125 
C 35.59375 26.421875 35.59375 18.375 34.40625 12.453125 
C 32.296875 1.5 26.40625 -0.40625 22.90625 -0.40625 
z
" id="CMR17-48"/>
     </defs>
     <g transform="translate(23.330362 237.14703)rotate(-45)scale(0.14 -0.14)">
      <use transform="scale(0.996264)" xlink:href="#CMR17-48"/>
      <use transform="translate(45.690477 0)scale(0.996264)" xlink:href="#CMR17-48"/>
     </g>
    </g>
   </g>
   <g id="xtick_2">
    <g id="line2d_3">
     <path d="M 88.423674 217.080527 
L 85.686217 218.899473 
" style="fill:none;stroke:#000000;stroke-linecap:square;stroke-width:0.8;"/>
    </g>
    <g id="text_2">
     <!-- 01 -->
     <defs>
      <path d="M 26.59375 63.796875 
C 26.59375 65.890625 26.5 66 25.09375 66 
C 21.203125 61.359375 15.296875 59.890625 9.703125 59.6875 
C 9.40625 59.6875 8.90625 59.6875 8.796875 59.5 
C 8.703125 59.296875 8.703125 59.09375 8.703125 57 
C 11.796875 57 17 57.59375 21 59.984375 
L 21 7.296875 
C 21 3.796875 20.796875 2.59375 12.203125 2.59375 
L 9.203125 2.59375 
L 9.203125 0 
C 14 0.09375 19 0.1875 23.796875 0.1875 
C 28.59375 0.1875 33.59375 0.09375 38.40625 0 
L 38.40625 2.59375 
L 35.40625 2.59375 
C 26.796875 2.59375 26.59375 3.6875 26.59375 7.296875 
z
" id="CMR17-49"/>
     </defs>
     <g transform="translate(68.542787 248.103782)rotate(-45)scale(0.14 -0.14)">
      <use transform="scale(0.996264)" xlink:href="#CMR17-48"/>
      <use transform="translate(45.690477 0)scale(0.996264)" xlink:href="#CMR17-49"/>
     </g>
    </g>
   </g>
   <g id="xtick_3">
    <g id="line2d_4">
     <path d="M 134.657625 228.095506 
L 131.977203 229.956397 
" style="fill:none;stroke:#000000;stroke-linecap:square;stroke-width:0.8;"/>
    </g>
    <g id="text_3">
     <!-- 10 -->
     <g transform="translate(114.7934 259.312128)rotate(-45)scale(0.14 -0.14)">
      <use transform="scale(0.996264)" xlink:href="#CMR17-49"/>
      <use transform="translate(45.690477 0)scale(0.996264)" xlink:href="#CMR17-48"/>
     </g>
    </g>
   </g>
   <g id="xtick_4">
    <g id="line2d_5">
     <path d="M 181.962926 239.365727 
L 179.342936 241.270032 
" style="fill:none;stroke:#000000;stroke-linecap:square;stroke-width:0.8;"/>
    </g>
    <g id="text_4">
     <!-- 11 -->
     <g transform="translate(162.118375 270.780834)rotate(-45)scale(0.14 -0.14)">
      <use transform="scale(0.996264)" xlink:href="#CMR17-49"/>
      <use transform="translate(45.690477 0)scale(0.996264)" xlink:href="#CMR17-49"/>
     </g>
    </g>
   </g>
  </g>
  <g id="axis3d_2">
   <g id="line2d_6">
    <path d="M 305.111665 171.581202 
L 205.419617 245.80086 
" style="fill:none;stroke:#000000;stroke-linecap:square;stroke-width:0.8;"/>
   </g>
   <g id="Line3DCollection_2">
    <path d="M 27.455231 56.547028 
L 34.471044 192.413474 
L 218.858418 235.795817 
" style="fill:none;stroke:#b0b0b0;stroke-width:0.8;"/>
    <path d="M 57.232024 40.730342 
L 62.623407 174.842005 
L 244.674037 216.576366 
" style="fill:none;stroke:#b0b0b0;stroke-width:0.8;"/>
    <path d="M 85.85589 25.526062 
L 89.739382 157.917404 
L 269.496985 198.095948 
" style="fill:none;stroke:#b0b0b0;stroke-width:0.8;"/>
    <path d="M 113.392516 10.899296 
L 115.875164 141.604597 
L 293.383438 180.312741 
" style="fill:none;stroke:#b0b0b0;stroke-width:0.8;"/>
   </g>
   <g id="xtick_5">
    <g id="line2d_7">
     <path d="M 217.315598 235.432825 
L 221.947489 236.522608 
" style="fill:none;stroke:#000000;stroke-linecap:square;stroke-width:0.8;"/>
    </g>
    <g id="text_5">
     <!-- 00 -->
     <g transform="translate(232.650369 248.348363)rotate(-337.5)scale(0.14 -0.14)">
      <use transform="scale(0.996264)" xlink:href="#CMR17-48"/>
      <use transform="translate(45.690477 0)scale(0.996264)" xlink:href="#CMR17-48"/>
     </g>
    </g>
   </g>
   <g id="xtick_6">
    <g id="line2d_8">
     <path d="M 243.15208 216.227463 
L 247.72127 217.274932 
" style="fill:none;stroke:#000000;stroke-linecap:square;stroke-width:0.8;"/>
    </g>
    <g id="text_6">
     <!-- 01 -->
     <g transform="translate(258.203921 228.903937)rotate(-337.5)scale(0.14 -0.14)">
      <use transform="scale(0.996264)" xlink:href="#CMR17-48"/>
      <use transform="translate(45.690477 0)scale(0.996264)" xlink:href="#CMR17-49"/>
     </g>
    </g>
   </g>
   <g id="xtick_7">
    <g id="line2d_9">
     <path d="M 267.995442 197.76033 
L 272.503283 198.767901 
" style="fill:none;stroke:#000000;stroke-linecap:square;stroke-width:0.8;"/>
    </g>
    <g id="text_7">
     <!-- 10 -->
     <g transform="translate(282.775332 210.206849)rotate(-337.5)scale(0.14 -0.14)">
      <use transform="scale(0.996264)" xlink:href="#CMR17-49"/>
      <use transform="translate(45.690477 0)scale(0.996264)" xlink:href="#CMR17-48"/>
     </g>
    </g>
   </g>
   <g id="xtick_8">
    <g id="line2d_10">
     <path d="M 291.901865 179.989663 
L 296.349691 180.959573 
" style="fill:none;stroke:#000000;stroke-linecap:square;stroke-width:0.8;"/>
    </g>
    <g id="text_8">
     <!-- 11 -->
     <g transform="translate(306.420159 192.214827)rotate(-337.5)scale(0.14 -0.14)">
      <use transform="scale(0.996264)" xlink:href="#CMR17-49"/>
      <use transform="translate(45.690477 0)scale(0.996264)" xlink:href="#CMR17-49"/>
     </g>
    </g>
   </g>
  </g>
  <g id="axis3d_3">
   <g id="line2d_11">
    <path d="M 305.111665 171.581202 
L 312.491547 37.79869 
" style="fill:none;stroke:#000000;stroke-linecap:square;stroke-width:0.8;"/>
   </g>
   <g id="text_9">
    <!-- Re[$\rho$] -->
    <defs>
     <path d="M 39.203125 33.6875 
C 48.703125 35.59375 56.703125 42.015625 56.703125 50.046875 
C 56.703125 59.46875 46.09375 68 32.09375 68 
L 5.203125 68 
L 5.203125 65.390625 
C 12.09375 65.390625 13.203125 65.390625 13.203125 60.875 
L 13.203125 6.6875 
C 13.203125 2.1875 12.09375 2.1875 5.203125 2.1875 
L 5.203125 -0.40625 
C 8.09375 -0.203125 13.296875 -0.203125 16.40625 -0.203125 
C 19.5 -0.203125 24.703125 -0.203125 27.59375 -0.40625 
L 27.59375 2.1875 
C 20.703125 2.1875 19.59375 2.1875 19.59375 6.6875 
L 19.59375 33 
L 31.296875 33 
C 37 33 40.203125 30.6875 41.59375 29.390625 
C 45.59375 25.5 45.59375 22.796875 45.59375 16 
C 45.59375 9.296875 45.59375 5.890625 48.59375 2.5 
C 52.40625 -1.609375 57.5 -2 59.703125 -2 
C 67.09375 -2 68.203125 6.296875 68.203125 8 
C 68.203125 8.59375 68.203125 9.296875 67.296875 9.296875 
C 66.5 9.296875 66.40625 8.6875 66.40625 8.296875 
C 65.90625 1.796875 63 -0.40625 59.90625 -0.40625 
C 54.40625 -0.40625 53.796875 5.890625 53.203125 12 
C 52.90625 14.09375 52.703125 15.59375 52.5 17.796875 
C 51.90625 22.796875 51.09375 30.09375 39.203125 33.6875 
z
M 31 34.59375 
L 19.59375 34.59375 
L 19.59375 61.484375 
C 19.59375 64.890625 19.796875 65.390625 23.796875 65.390625 
L 31.09375 65.390625 
C 39.40625 65.390625 49.09375 62.484375 49.09375 50.046875 
C 49.09375 37.09375 38.5 34.59375 31 34.59375 
z
" id="CMR17-82"/>
     <path d="M 38.09375 23.484375 
C 38.5 23.890625 38.5 24.09375 38.5 25.09375 
C 38.5 35.171875 33.09375 44 21.703125 44 
C 11.09375 44 2.703125 33.984375 2.703125 21.78125 
C 2.703125 8.65625 12.203125 -1 22.796875 -1 
C 34 -1 38.40625 9.671875 38.40625 11.796875 
C 38.40625 12.5 37.796875 12.5 37.59375 12.5 
C 36.90625 12.5 36.796875 12.296875 36.40625 11.078125 
C 34.203125 4.21875 28.703125 0.796875 23.5 0.796875 
C 19.203125 0.796875 14.90625 3.21875 12.203125 7.65625 
C 9.09375 12.796875 9.09375 18.75 9.09375 23.484375 
z
M 9.203125 25 
C 9.90625 39.234375 17.59375 42.390625 21.59375 42.390625 
C 28.40625 42.390625 33 36.0625 33.09375 25 
z
" id="CMR17-101"/>
     <path d="M 23.5 -25 
L 23.5 -21.5 
L 14.09375 -21.5 
L 14.09375 71.484375 
L 23.5 71.484375 
L 23.5 75 
L 10.59375 75 
L 10.59375 -25 
z
" id="CMR17-91"/>
     <path d="M 3.09375 -16.953125 
C 3 -17.4375 2.796875 -18.03125 2.796875 -18.609375 
C 2.796875 -20.109375 4 -21.109375 5.5 -21.109375 
C 7 -21.109375 8.40625 -20.109375 9 -18.71875 
C 9.40625 -17.828125 12.203125 -6.09375 15.40625 6.078125 
C 17.40625 1.09375 21.09375 -1 25 -1 
C 36.296875 -1 49.09375 12.96875 49.09375 28.03125 
C 49.09375 38.703125 42.59375 44 35.703125 44 
C 26.90625 44 16.203125 34.90625 12.90625 21.640625 
z
M 24.90625 1 
C 18.09375 1 16.40625 8.875 16.40625 10.078125 
C 16.40625 10.671875 18.90625 20.140625 19.203125 21.640625 
C 24.296875 41.5 34.09375 41.984375 35.59375 41.984375 
C 40.09375 41.984375 42.59375 37.90625 42.59375 32.015625 
C 42.59375 26.9375 39.90625 17.046875 38.203125 12.859375 
C 35.203125 5.984375 30 1 24.90625 1 
z
" id="CMMI12-26"/>
     <path d="M 14.296875 75 
L 1.40625 75 
L 1.40625 71.484375 
L 10.796875 71.484375 
L 10.796875 -21.5 
L 1.40625 -21.5 
L 1.40625 -25 
L 14.296875 -25 
z
" id="CMR17-93"/>
    </defs>
    <g transform="translate(352.486567 117.931831)rotate(-86.842577)scale(0.14 -0.14)">
     <use transform="scale(0.996264)" xlink:href="#CMR17-82"/>
     <use transform="translate(67.791102 0)scale(0.996264)" xlink:href="#CMR17-101"/>
     <use transform="translate(108.276762 0)scale(0.996264)" xlink:href="#CMR17-91"/>
     <use transform="translate(133.147821 0)scale(0.996264)" xlink:href="#CMMI12-26"/>
     <use transform="translate(183.462194 0)scale(0.996264)" xlink:href="#CMR17-93"/>
    </g>
   </g>
   <g id="Line3DCollection_3">
    <path d="M 306.607527 144.464216 
L 128.355113 107.216443 
L 18.239258 173.864855 
" style="fill:none;stroke:#b0b0b0;stroke-width:0.8;"/>
    <path d="M 308.080658 117.759296 
L 127.992926 81.270937 
L 16.66655 146.58294 
" style="fill:none;stroke:#b0b0b0;stroke-width:0.8;"/>
    <path d="M 309.58471 90.493842 
L 127.623463 54.804111 
L 15.059715 118.709034 
" style="fill:none;stroke:#b0b0b0;stroke-width:0.8;"/>
    <path d="M 311.120666 62.65002 
L 127.2465 27.800093 
L 13.417631 90.223657 
" style="fill:none;stroke:#b0b0b0;stroke-width:0.8;"/>
   </g>
   <g id="xtick_9">
    <g id="line2d_12">
     <path d="M 305.119674 144.153313 
L 309.586357 145.086675 
" style="fill:none;stroke:#000000;stroke-linecap:square;stroke-width:0.8;"/>
    </g>
    <g id="text_10">
     <!-- $0.1$ -->
     <defs>
      <path d="M 18.40625 4.796875 
C 18.40625 7.6875 16 9.6875 13.59375 9.6875 
C 10.703125 9.6875 8.703125 7.296875 8.703125 4.890625 
C 8.703125 2 11.09375 0 13.5 0 
C 16.40625 0 18.40625 2.390625 18.40625 4.796875 
z
" id="CMMI12-58"/>
     </defs>
     <g transform="translate(316.585499 152.243198)scale(0.14 -0.14)">
      <use transform="scale(0.996264)" xlink:href="#CMR17-48"/>
      <use transform="translate(45.690477 0)scale(0.996264)" xlink:href="#CMMI12-58"/>
      <use transform="translate(72.787654 0)scale(0.996264)" xlink:href="#CMR17-49"/>
     </g>
    </g>
   </g>
   <g id="xtick_10">
    <g id="line2d_13">
     <path d="M 306.576838 117.4546 
L 311.09149 118.369333 
" style="fill:none;stroke:#000000;stroke-linecap:square;stroke-width:0.8;"/>
    </g>
    <g id="text_11">
     <!-- $0.2$ -->
     <defs>
      <path d="M 41.703125 15.46875 
L 39.90625 15.46875 
C 38.90625 8.390625 38.09375 7.1875 37.703125 6.59375 
C 37.203125 5.796875 30 5.796875 28.59375 5.796875 
L 9.40625 5.796875 
C 13 9.6875 20 16.765625 28.5 24.9375 
C 34.59375 30.71875 41.703125 37.5 41.703125 47.390625 
C 41.703125 59.1875 32.296875 66 21.796875 66 
C 10.796875 66 4.09375 56.296875 4.09375 47.296875 
C 4.09375 43.390625 7 42.890625 8.203125 42.890625 
C 9.203125 42.890625 12.203125 43.484375 12.203125 46.984375 
C 12.203125 50.09375 9.59375 51 8.203125 51 
C 7.59375 51 7 50.890625 6.59375 50.6875 
C 8.5 59.1875 14.296875 63.390625 20.40625 63.390625 
C 29.09375 63.390625 34.796875 56.5 34.796875 47.390625 
C 34.796875 38.703125 29.703125 31.21875 24 24.734375 
L 4.09375 2.296875 
L 4.09375 0 
L 39.296875 0 
z
" id="CMR17-50"/>
     </defs>
     <g transform="translate(318.249268 125.576385)scale(0.14 -0.14)">
      <use transform="scale(0.996264)" xlink:href="#CMR17-48"/>
      <use transform="translate(45.690477 0)scale(0.996264)" xlink:href="#CMMI12-58"/>
      <use transform="translate(72.787654 0)scale(0.996264)" xlink:href="#CMR17-50"/>
     </g>
    </g>
   </g>
   <g id="xtick_11">
    <g id="line2d_14">
     <path d="M 308.064575 90.195684 
L 312.628238 91.090797 
" style="fill:none;stroke:#000000;stroke-linecap:square;stroke-width:0.8;"/>
    </g>
    <g id="text_12">
     <!-- $0.3$ -->
     <defs>
      <path d="M 22.09375 34 
C 31 34 34.90625 26.140625 34.90625 17.09375 
C 34.90625 5.03125 28.5 0.390625 22.703125 0.390625 
C 17.40625 0.390625 8.796875 3.015625 6.09375 10.796875 
C 6.59375 10.59375 7.09375 10.59375 7.59375 10.59375 
C 10 10.59375 11.796875 12.1875 11.796875 14.796875 
C 11.796875 17.6875 9.59375 19 7.59375 19 
C 5.90625 19 3.296875 18.1875 3.296875 14.484375 
C 3.296875 5.234375 12.296875 -2 22.90625 -2 
C 34 -2 42.5 6.75 42.5 16.984375 
C 42.5 26.84375 34.5 34 25 35.09375 
C 32.59375 36.671875 39.90625 43.375 39.90625 52.390625 
C 39.90625 60.25 32 66 23 66 
C 13.90625 66 5.90625 60.34375 5.90625 52.296875 
C 5.90625 48.796875 8.5 48.1875 9.796875 48.1875 
C 11.90625 48.1875 13.703125 49.484375 13.703125 52.09375 
C 13.703125 54.6875 11.90625 56 9.796875 56 
C 9.40625 56 8.90625 56 8.5 55.796875 
C 11.40625 62.484375 19.296875 63.6875 22.796875 63.6875 
C 26.296875 63.6875 32.90625 61.96875 32.90625 52.296875 
C 32.90625 49.484375 32.5 44.546875 29.09375 40.21875 
C 26.09375 36.390625 22.703125 36.1875 19.40625 35.890625 
C 18.90625 35.890625 16.59375 35.6875 16.203125 35.6875 
C 15.5 35.59375 15.09375 35.5 15.09375 34.796875 
C 15.09375 34.09375 15.203125 34 17.203125 34 
z
" id="CMR17-51"/>
     </defs>
     <g transform="translate(319.947883 98.351063)scale(0.14 -0.14)">
      <use transform="scale(0.996264)" xlink:href="#CMR17-48"/>
      <use transform="translate(45.690477 0)scale(0.996264)" xlink:href="#CMMI12-58"/>
      <use transform="translate(72.787654 0)scale(0.996264)" xlink:href="#CMR17-51"/>
     </g>
    </g>
   </g>
   <g id="xtick_12">
    <g id="line2d_15">
     <path d="M 309.583861 62.358747 
L 314.197607 63.233197 
" style="fill:none;stroke:#000000;stroke-linecap:square;stroke-width:0.8;"/>
    </g>
    <g id="text_13">
     <!-- $0.4$ -->
     <defs>
      <path d="M 33.59375 64.796875 
C 33.59375 66.890625 33.5 67 31.703125 67 
L 2 19.59375 
L 2 17 
L 27.796875 17 
L 27.796875 7.1875 
C 27.796875 3.59375 27.59375 2.59375 20.59375 2.59375 
L 18.703125 2.59375 
L 18.703125 0 
C 21.90625 0.1875 27.296875 0.1875 30.703125 0.1875 
C 34.09375 0.1875 39.5 0.1875 42.703125 0 
L 42.703125 2.59375 
L 40.796875 2.59375 
C 33.796875 2.59375 33.59375 3.59375 33.59375 7.1875 
L 33.59375 17 
L 43.796875 17 
L 43.796875 19.59375 
L 33.59375 19.59375 
z
M 28.09375 58.171875 
L 28.09375 19.59375 
L 4 19.59375 
z
" id="CMR17-52"/>
     </defs>
     <g transform="translate(321.682449 70.549503)scale(0.14 -0.14)">
      <use transform="scale(0.996264)" xlink:href="#CMR17-48"/>
      <use transform="translate(45.690477 0)scale(0.996264)" xlink:href="#CMMI12-58"/>
      <use transform="translate(72.787654 0)scale(0.996264)" xlink:href="#CMR17-52"/>
     </g>
    </g>
   </g>
  </g>
  <g id="axes_1">
   <g id="Poly3DCollection_1">
    <path clip-path="url(#pd0d574a667)" d="M 133.070854 139.029343 
L 133.042108 136.692607 
L 154.435532 141.31237 
L 154.444943 143.657136 
z
" style="fill:#5d0618;fill-opacity:0.8;"/>
    <path clip-path="url(#pd0d574a667)" d="M 120.298184 147.075763 
L 120.257488 144.725094 
L 133.042108 136.692607 
L 133.070854 139.029343 
z
" style="fill:#ba0c2f;fill-opacity:0.8;"/>
    <path clip-path="url(#pd0d574a667)" d="M 120.298184 147.075763 
L 133.070854 139.029343 
L 154.444943 143.657136 
L 141.800426 151.788443 
z
" style="fill:#74081d;fill-opacity:0.8;"/>
    <path clip-path="url(#pd0d574a667)" d="M 120.257488 144.725094 
L 141.779296 149.429674 
L 154.435532 141.31237 
L 133.042108 136.692607 
z
" style="fill:#a30a29;fill-opacity:0.8;"/>
    <path clip-path="url(#pd0d574a667)" d="M 141.800426 151.788443 
L 154.444943 143.657136 
L 154.435532 141.31237 
L 141.779296 149.429674 
z
" style="fill:#5d0618;fill-opacity:0.8;"/>
    <path clip-path="url(#pd0d574a667)" d="M 120.298184 147.075763 
L 141.800426 151.788443 
L 141.779296 149.429674 
L 120.257488 144.725094 
z
" style="fill:#ba0c2f;fill-opacity:0.8;"/>
   </g>
   <g id="Poly3DCollection_2">
    <path clip-path="url(#pd0d574a667)" d="M 176.044085 148.333655 
L 176.058751 144.994318 
L 197.915138 149.708821 
L 197.871853 153.059676 
z
" style="fill:#5d0618;fill-opacity:0.8;"/>
    <path clip-path="url(#pd0d574a667)" d="M 163.531153 156.551201 
L 163.529528 153.191879 
L 176.058751 144.994318 
L 176.044085 148.333655 
z
" style="fill:#ba0c2f;fill-opacity:0.8;"/>
    <path clip-path="url(#pd0d574a667)" d="M 163.531153 156.551201 
L 176.044085 148.333655 
L 197.871853 153.059676 
L 185.494027 161.364838 
z
" style="fill:#74081d;fill-opacity:0.8;"/>
    <path clip-path="url(#pd0d574a667)" d="M 163.529528 153.191879 
L 185.521378 157.993902 
L 197.915138 149.708821 
L 176.058751 144.994318 
z
" style="fill:#a30a29;fill-opacity:0.8;"/>
    <path clip-path="url(#pd0d574a667)" d="M 185.494027 161.364838 
L 197.871853 153.059676 
L 197.915138 149.708821 
L 185.521378 157.993902 
z
" style="fill:#5d0618;fill-opacity:0.8;"/>
    <path clip-path="url(#pd0d574a667)" d="M 163.531153 156.551201 
L 185.494027 161.364838 
L 185.521378 157.993902 
L 163.529528 153.191879 
z
" style="fill:#ba0c2f;fill-opacity:0.8;"/>
   </g>
   <g id="Poly3DCollection_3">
    <path clip-path="url(#pd0d574a667)" d="M 107.290768 155.270067 
L 107.00354 142.474969 
L 128.742186 147.230419 
L 128.922277 160.069992 
z
" style="fill:#5d0618;fill-opacity:0.8;"/>
    <path clip-path="url(#pd0d574a667)" d="M 94.042073 163.61637 
L 93.685344 150.7441 
L 107.00354 142.474969 
L 107.290768 155.270067 
z
" style="fill:#ba0c2f;fill-opacity:0.8;"/>
    <path clip-path="url(#pd0d574a667)" d="M 94.042073 163.61637 
L 107.290768 155.270067 
L 128.922277 160.069992 
L 115.803962 168.505984 
z
" style="fill:#74081d;fill-opacity:0.8;"/>
    <path clip-path="url(#pd0d574a667)" d="M 93.685344 150.7441 
L 115.555659 155.58886 
L 128.742186 147.230419 
L 107.00354 142.474969 
z
" style="fill:#a30a29;fill-opacity:0.8;"/>
    <path clip-path="url(#pd0d574a667)" d="M 115.803962 168.505984 
L 128.922277 160.069992 
L 128.742186 147.230419 
L 115.555659 155.58886 
z
" style="fill:#5d0618;fill-opacity:0.8;"/>
    <path clip-path="url(#pd0d574a667)" d="M 94.042073 163.61637 
L 115.803962 168.505984 
L 115.555659 155.58886 
L 93.685344 150.7441 
z
" style="fill:#ba0c2f;fill-opacity:0.8;"/>
   </g>
   <g id="Poly3DCollection_4">
    <path clip-path="url(#pd0d574a667)" d="M 219.931897 157.835987 
L 220.116304 149.285161 
L 242.488274 154.082901 
L 242.227943 162.663397 
z
" style="fill:#5d0618;fill-opacity:0.8;"/>
    <path clip-path="url(#pd0d574a667)" d="M 207.692787 166.230176 
L 207.837619 157.62787 
L 220.116304 149.285161 
L 219.931897 157.835987 
z
" style="fill:#ba0c2f;fill-opacity:0.8;"/>
    <path clip-path="url(#pd0d574a667)" d="M 207.692787 166.230176 
L 219.931897 157.835987 
L 242.227943 162.663397 
L 230.131256 171.14805 
z
" style="fill:#74081d;fill-opacity:0.8;"/>
    <path clip-path="url(#pd0d574a667)" d="M 207.837619 157.62787 
L 230.352993 162.515825 
L 242.488274 154.082901 
L 220.116304 149.285161 
z
" style="fill:#a30a29;fill-opacity:0.8;"/>
    <path clip-path="url(#pd0d574a667)" d="M 230.131256 171.14805 
L 242.227943 162.663397 
L 242.488274 154.082901 
L 230.352993 162.515825 
z
" style="fill:#5d0618;fill-opacity:0.8;"/>
    <path clip-path="url(#pd0d574a667)" d="M 207.692787 166.230176 
L 230.131256 171.14805 
L 230.352993 162.515825 
L 207.837619 157.62787 
z
" style="fill:#ba0c2f;fill-opacity:0.8;"/>
   </g>
   <g id="Poly3DCollection_5">
    <path clip-path="url(#pd0d574a667)" d="M 150.78578 164.921395 
L 150.777105 163.33873 
L 172.890093 168.236965 
L 172.88503 169.825109 
z
" style="fill:#5d0618;fill-opacity:0.8;"/>
    <path clip-path="url(#pd0d574a667)" d="M 137.801431 173.448531 
L 137.784542 171.856359 
L 150.777105 163.33873 
L 150.78578 164.921395 
z
" style="fill:#ba0c2f;fill-opacity:0.8;"/>
    <path clip-path="url(#pd0d574a667)" d="M 137.801431 173.448531 
L 150.78578 164.921395 
L 172.88503 169.825109 
L 160.038327 178.444873 
z
" style="fill:#74081d;fill-opacity:0.8;"/>
    <path clip-path="url(#pd0d574a667)" d="M 137.784542 171.856359 
L 160.035349 176.847178 
L 172.890093 168.236965 
L 150.777105 163.33873 
z
" style="fill:#a30a29;fill-opacity:0.8;"/>
    <path clip-path="url(#pd0d574a667)" d="M 160.038327 178.444873 
L 172.88503 169.825109 
L 172.890093 168.236965 
L 160.035349 176.847178 
z
" style="fill:#5d0618;fill-opacity:0.8;"/>
    <path clip-path="url(#pd0d574a667)" d="M 137.801431 173.448531 
L 160.038327 178.444873 
L 160.035349 176.847178 
L 137.784542 171.856359 
z
" style="fill:#ba0c2f;fill-opacity:0.8;"/>
   </g>
   <g id="Poly3DCollection_6">
    <path clip-path="url(#pd0d574a667)" d="M 264.7638 167.542728 
L 265.653782 144.863321 
L 288.642044 149.71583 
L 287.543357 172.474824 
z
" style="fill:#5d0618;fill-opacity:0.8;"/>
    <path clip-path="url(#pd0d574a667)" d="M 252.813336 176.119317 
L 264.7638 167.542728 
L 287.543357 172.474824 
L 275.743016 181.144851 
z
" style="fill:#74081d;fill-opacity:0.8;"/>
    <path clip-path="url(#pd0d574a667)" d="M 252.813336 176.119317 
L 253.60439 153.301813 
L 265.653782 144.863321 
L 264.7638 167.542728 
z
" style="fill:#ba0c2f;fill-opacity:0.8;"/>
    <path clip-path="url(#pd0d574a667)" d="M 275.743016 181.144851 
L 287.543357 172.474824 
L 288.642044 149.71583 
L 276.745577 158.247084 
z
" style="fill:#5d0618;fill-opacity:0.8;"/>
    <path clip-path="url(#pd0d574a667)" d="M 253.60439 153.301813 
L 276.745577 158.247084 
L 288.642044 149.71583 
L 265.653782 144.863321 
z
" style="fill:#a30a29;fill-opacity:0.8;"/>
    <path clip-path="url(#pd0d574a667)" d="M 252.813336 176.119317 
L 275.743016 181.144851 
L 276.745577 158.247084 
L 253.60439 153.301813 
z
" style="fill:#ba0c2f;fill-opacity:0.8;"/>
   </g>
   <g id="Poly3DCollection_7">
    <path clip-path="url(#pd0d574a667)" d="M 80.545324 172.118939 
L 80.095147 158.523278 
L 102.103723 163.457615 
L 102.438698 177.100782 
z
" style="fill:#5d0618;fill-opacity:0.8;"/>
    <path clip-path="url(#pd0d574a667)" d="M 66.793487 180.782207 
L 66.264831 167.104119 
L 80.095147 158.523278 
L 80.545324 172.118939 
z
" style="fill:#ba0c2f;fill-opacity:0.8;"/>
    <path clip-path="url(#pd0d574a667)" d="M 66.793487 180.782207 
L 80.545324 172.118939 
L 102.438698 177.100782 
L 88.819448 185.858911 
z
" style="fill:#74081d;fill-opacity:0.8;"/>
    <path clip-path="url(#pd0d574a667)" d="M 66.264831 167.104119 
L 88.407379 172.132924 
L 102.103723 163.457615 
L 80.095147 158.523278 
z
" style="fill:#a30a29;fill-opacity:0.8;"/>
    <path clip-path="url(#pd0d574a667)" d="M 88.819448 185.858911 
L 102.438698 177.100782 
L 102.103723 163.457615 
L 88.407379 172.132924 
z
" style="fill:#5d0618;fill-opacity:0.8;"/>
    <path clip-path="url(#pd0d574a667)" d="M 66.793487 180.782207 
L 88.819448 185.858911 
L 88.407379 172.132924 
L 66.264831 167.104119 
z
" style="fill:#ba0c2f;fill-opacity:0.8;"/>
   </g>
   <g id="Poly3DCollection_8">
    <path clip-path="url(#pd0d574a667)" d="M 240.636015 184.858716 
L 240.897255 176.14402 
L 264.060036 181.23522 
L 263.717434 189.980369 
z
" style="fill:#5d0618;fill-opacity:0.8;"/>
    <path clip-path="url(#pd0d574a667)" d="M 228.225315 193.765606 
L 228.445921 184.998075 
L 240.897255 176.14402 
L 240.636015 184.858716 
z
" style="fill:#ba0c2f;fill-opacity:0.8;"/>
    <path clip-path="url(#pd0d574a667)" d="M 228.225315 193.765606 
L 240.636015 184.858716 
L 263.717434 189.980369 
L 251.460099 198.986161 
z
" style="fill:#74081d;fill-opacity:0.8;"/>
    <path clip-path="url(#pd0d574a667)" d="M 228.445921 184.998075 
L 251.763163 190.187934 
L 264.060036 181.23522 
L 240.897255 176.14402 
z
" style="fill:#a30a29;fill-opacity:0.8;"/>
    <path clip-path="url(#pd0d574a667)" d="M 251.460099 198.986161 
L 263.717434 189.980369 
L 264.060036 181.23522 
L 251.763163 190.187934 
z
" style="fill:#5d0618;fill-opacity:0.8;"/>
    <path clip-path="url(#pd0d574a667)" d="M 228.225315 193.765606 
L 251.460099 198.986161 
L 251.763163 190.187934 
L 228.445921 184.998075 
z
" style="fill:#ba0c2f;fill-opacity:0.8;"/>
   </g>
   <g id="Poly3DCollection_9">
    <path clip-path="url(#pd0d574a667)" d="M 169.570165 192.376561 
L 169.573234 190.763642 
L 192.462326 195.96309 
L 192.444537 197.581629 
z
" style="fill:#5d0618;fill-opacity:0.8;"/>
    <path clip-path="url(#pd0d574a667)" d="M 156.371565 201.428815 
L 156.366146 199.806146 
L 169.573234 190.763642 
L 169.570165 192.376561 
z
" style="fill:#ba0c2f;fill-opacity:0.8;"/>
    <path clip-path="url(#pd0d574a667)" d="M 156.371565 201.428815 
L 169.570165 192.376561 
L 192.444537 197.581629 
L 179.394132 206.735224 
z
" style="fill:#74081d;fill-opacity:0.8;"/>
    <path clip-path="url(#pd0d574a667)" d="M 156.366146 199.806146 
L 179.403624 205.106891 
L 192.462326 195.96309 
L 169.573234 190.763642 
z
" style="fill:#a30a29;fill-opacity:0.8;"/>
    <path clip-path="url(#pd0d574a667)" d="M 179.394132 206.735224 
L 192.444537 197.581629 
L 192.462326 195.96309 
L 179.403624 205.106891 
z
" style="fill:#5d0618;fill-opacity:0.8;"/>
    <path clip-path="url(#pd0d574a667)" d="M 156.371565 201.428815 
L 179.394132 206.735224 
L 179.403624 205.106891 
L 156.366146 199.806146 
z
" style="fill:#ba0c2f;fill-opacity:0.8;"/>
   </g>
   <g id="Poly3DCollection_10">
    <path clip-path="url(#pd0d574a667)" d="M 111.088403 190.991622 
L 124.57132 182.137064 
L 146.947132 187.228685 
L 133.604398 196.181272 
z
" style="fill:#74081d;fill-opacity:0.8;"/>
    <path clip-path="url(#pd0d574a667)" d="M 124.57132 182.137064 
L 124.011662 146.862484 
L 146.697626 151.82888 
L 146.947132 187.228685 
z
" style="fill:#5d0618;fill-opacity:0.8;"/>
    <path clip-path="url(#pd0d574a667)" d="M 111.088403 190.991622 
L 110.333785 155.499758 
L 124.011662 146.862484 
L 124.57132 182.137064 
z
" style="fill:#ba0c2f;fill-opacity:0.8;"/>
    <path clip-path="url(#pd0d574a667)" d="M 133.604398 196.181272 
L 146.947132 187.228685 
L 146.697626 151.82888 
L 133.163838 160.563128 
z
" style="fill:#5d0618;fill-opacity:0.8;"/>
    <path clip-path="url(#pd0d574a667)" d="M 111.088403 190.991622 
L 133.604398 196.181272 
L 133.163838 160.563128 
L 110.333785 155.499758 
z
" style="fill:#ba0c2f;fill-opacity:0.8;"/>
    <path clip-path="url(#pd0d574a667)" d="M 110.333785 155.499758 
L 133.163838 160.563128 
L 146.697626 151.82888 
L 124.011662 146.862484 
z
" style="fill:#a30a29;fill-opacity:0.8;"/>
   </g>
   <g id="Poly3DCollection_11">
    <path clip-path="url(#pd0d574a667)" d="M 182.518581 183.495895 
L 195.22386 174.781984 
L 217.806187 179.792891 
L 205.246208 188.602499 
z
" style="fill:#74081d;fill-opacity:0.8;"/>
    <path clip-path="url(#pd0d574a667)" d="M 195.22386 174.781984 
L 196.194016 93.840173 
L 219.505208 98.556328 
L 217.806187 179.792891 
z
" style="fill:#5d0618;fill-opacity:0.8;"/>
    <path clip-path="url(#pd0d574a667)" d="M 182.518581 183.495895 
L 183.089541 102.042567 
L 196.194016 93.840173 
L 195.22386 174.781984 
z
" style="fill:#ba0c2f;fill-opacity:0.8;"/>
    <path clip-path="url(#pd0d574a667)" d="M 205.246208 188.602499 
L 217.806187 179.792891 
L 219.505208 98.556328 
L 206.555636 106.85171 
z
" style="fill:#5d0618;fill-opacity:0.8;"/>
    <path clip-path="url(#pd0d574a667)" d="M 182.518581 183.495895 
L 205.246208 188.602499 
L 206.555636 106.85171 
L 183.089541 102.042567 
z
" style="fill:#ba0c2f;fill-opacity:0.8;"/>
    <path clip-path="url(#pd0d574a667)" d="M 183.089541 102.042567 
L 206.555636 106.85171 
L 219.505208 98.556328 
L 196.194016 93.840173 
z
" style="fill:#a30a29;fill-opacity:0.8;"/>
   </g>
   <g id="Poly3DCollection_12">
    <path clip-path="url(#pd0d574a667)" d="M 215.574463 202.844849 
L 215.644584 199.376616 
L 239.067226 204.686844 
L 238.964247 208.167199 
z
" style="fill:#5d0618;fill-opacity:0.8;"/>
    <path clip-path="url(#pd0d574a667)" d="M 202.676419 212.101495 
L 202.72925 208.612232 
L 215.644584 199.376616 
L 215.574463 202.844849 
z
" style="fill:#ba0c2f;fill-opacity:0.8;"/>
    <path clip-path="url(#pd0d574a667)" d="M 202.676419 212.101495 
L 215.574463 202.844849 
L 238.964247 208.167199 
L 226.222846 217.528648 
z
" style="fill:#74081d;fill-opacity:0.8;"/>
    <path clip-path="url(#pd0d574a667)" d="M 202.72925 208.612232 
L 226.308981 214.02717 
L 239.067226 204.686844 
L 215.644584 199.376616 
z
" style="fill:#a30a29;fill-opacity:0.8;"/>
    <path clip-path="url(#pd0d574a667)" d="M 226.222846 217.528648 
L 238.964247 208.167199 
L 239.067226 204.686844 
L 226.308981 214.02717 
z
" style="fill:#5d0618;fill-opacity:0.8;"/>
    <path clip-path="url(#pd0d574a667)" d="M 202.676419 212.101495 
L 226.222846 217.528648 
L 226.308981 214.02717 
L 202.72925 208.612232 
z
" style="fill:#ba0c2f;fill-opacity:0.8;"/>
   </g>
   <g id="Poly3DCollection_13">
    <path clip-path="url(#pd0d574a667)" d="M 97.345364 200.017008 
L 96.973957 186.159012 
L 119.75482 191.400816 
L 120.002805 205.307547 
z
" style="fill:#5d0618;fill-opacity:0.8;"/>
    <path clip-path="url(#pd0d574a667)" d="M 83.334603 209.218214 
L 82.881622 195.275668 
L 96.973957 186.159012 
L 97.345364 200.017008 
z
" style="fill:#ba0c2f;fill-opacity:0.8;"/>
    <path clip-path="url(#pd0d574a667)" d="M 83.334603 209.218214 
L 97.345364 200.017008 
L 120.002805 205.307547 
L 106.134745 214.612612 
z
" style="fill:#74081d;fill-opacity:0.8;"/>
    <path clip-path="url(#pd0d574a667)" d="M 82.881622 195.275668 
L 105.806737 200.620952 
L 119.75482 191.400816 
L 96.973957 186.159012 
z
" style="fill:#a30a29;fill-opacity:0.8;"/>
    <path clip-path="url(#pd0d574a667)" d="M 106.134745 214.612612 
L 120.002805 205.307547 
L 119.75482 191.400816 
L 105.806737 200.620952 
z
" style="fill:#5d0618;fill-opacity:0.8;"/>
    <path clip-path="url(#pd0d574a667)" d="M 83.334603 209.218214 
L 106.134745 214.612612 
L 105.806737 200.620952 
L 82.881622 195.275668 
z
" style="fill:#ba0c2f;fill-opacity:0.8;"/>
   </g>
   <g id="Poly3DCollection_14">
    <path clip-path="url(#pd0d574a667)" d="M 142.915461 210.657679 
L 142.7995 197.364795 
L 166.094709 202.728716 
L 166.08767 216.068417 
z
" style="fill:#5d0618;fill-opacity:0.8;"/>
    <path clip-path="url(#pd0d574a667)" d="M 129.194241 220.068372 
L 129.0036 206.694268 
L 142.7995 197.364795 
L 142.915461 210.657679 
z
" style="fill:#ba0c2f;fill-opacity:0.8;"/>
    <path clip-path="url(#pd0d574a667)" d="M 129.194241 220.068372 
L 142.915461 210.657679 
L 166.08767 216.068417 
L 152.517542 225.586546 
z
" style="fill:#74081d;fill-opacity:0.8;"/>
    <path clip-path="url(#pd0d574a667)" d="M 129.0036 206.694268 
L 152.451511 212.165271 
L 166.094709 202.728716 
L 142.7995 197.364795 
z
" style="fill:#a30a29;fill-opacity:0.8;"/>
    <path clip-path="url(#pd0d574a667)" d="M 152.517542 225.586546 
L 166.08767 216.068417 
L 166.094709 202.728716 
L 152.451511 212.165271 
z
" style="fill:#5d0618;fill-opacity:0.8;"/>
    <path clip-path="url(#pd0d574a667)" d="M 129.194241 220.068372 
L 152.517542 225.586546 
L 152.451511 212.165271 
L 129.0036 206.694268 
z
" style="fill:#ba0c2f;fill-opacity:0.8;"/>
   </g>
   <g id="Poly3DCollection_15">
    <path clip-path="url(#pd0d574a667)" d="M 189.523867 221.540796 
L 189.548415 219.067474 
L 213.276919 224.593892 
L 213.228589 227.075877 
z
" style="fill:#5d0618;fill-opacity:0.8;"/>
    <path clip-path="url(#pd0d574a667)" d="M 176.109199 231.168213 
L 176.120557 228.679863 
L 189.548415 219.067474 
L 189.523867 221.540796 
z
" style="fill:#ba0c2f;fill-opacity:0.8;"/>
    <path clip-path="url(#pd0d574a667)" d="M 176.109199 231.168213 
L 189.523867 221.540796 
L 213.228589 227.075877 
L 199.973871 236.814473 
z
" style="fill:#74081d;fill-opacity:0.8;"/>
    <path clip-path="url(#pd0d574a667)" d="M 176.120557 228.679863 
L 200.009335 234.317398 
L 213.276919 224.593892 
L 189.548415 219.067474 
z
" style="fill:#a30a29;fill-opacity:0.8;"/>
    <path clip-path="url(#pd0d574a667)" d="M 199.973871 236.814473 
L 213.228589 227.075877 
L 213.276919 224.593892 
L 200.009335 234.317398 
z
" style="fill:#5d0618;fill-opacity:0.8;"/>
    <path clip-path="url(#pd0d574a667)" d="M 176.109199 231.168213 
L 199.973871 236.814473 
L 200.009335 234.317398 
L 176.120557 228.679863 
z
" style="fill:#ba0c2f;fill-opacity:0.8;"/>
   </g>
   <g id="Poly3DCollection_16">
    <path clip-path="url(#pd0d574a667)" d="M 38.49507 198.609408 
L 52.779263 189.610771 
L 74.9389 194.785072 
L 60.789462 203.884148 
z
" style="fill:#74081d;fill-opacity:0.8;"/>
    <path clip-path="url(#pd0d574a667)" d="M 52.779263 189.610771 
L 46.933544 57.750519 
L 70.222556 62.427839 
L 74.9389 194.785072 
z
" style="fill:#5d0618;fill-opacity:0.8;"/>
    <path clip-path="url(#pd0d574a667)" d="M 38.49507 198.609408 
L 31.836896 65.886594 
L 46.933544 57.750519 
L 52.779263 189.610771 
z
" style="fill:#ba0c2f;fill-opacity:0.8;"/>
    <path clip-path="url(#pd0d574a667)" d="M 60.789462 203.884148 
L 74.9389 194.785072 
L 70.222556 62.427839 
L 55.274545 70.659531 
z
" style="fill:#5d0618;fill-opacity:0.8;"/>
    <path clip-path="url(#pd0d574a667)" d="M 38.49507 198.609408 
L 60.789462 203.884148 
L 55.274545 70.659531 
L 31.836896 65.886594 
z
" style="fill:#ba0c2f;fill-opacity:0.8;"/>
    <path clip-path="url(#pd0d574a667)" d="M 31.836896 65.886594 
L 55.274545 70.659531 
L 70.222556 62.427839 
L 46.933544 57.750519 
z
" style="fill:#a30a29;fill-opacity:0.8;"/>
   </g>
  </g>
  <g id="patch_6">
   <path d="M 425.945455 262.8 
L 806.4 262.8 
L 806.4 -14.4 
L 425.945455 -14.4 
z
" style="fill:#ffffff;"/>
  </g>
  <g id="pane3d_4">
   <g id="patch_7">
    <path d="M 476.380584 201.548569 
L 585.268665 133.58541 
L 583.455794 3.718968 
L 468.496488 64.782468 
" style="fill:#f2f2f2;opacity:0.5;stroke:#f2f2f2;stroke-linejoin:miter;"/>
   </g>
  </g>
  <g id="pane3d_5">
   <g id="patch_8">
    <path d="M 585.268665 133.58541 
L 761.65712 171.581202 
L 769.037001 37.79869 
L 583.455794 3.718968 
" style="fill:#e6e6e6;opacity:0.5;stroke:#e6e6e6;stroke-linejoin:miter;"/>
   </g>
  </g>
  <g id="pane3d_6">
   <g id="patch_9">
    <path d="M 476.380584 201.548569 
L 661.965072 245.80086 
L 761.65712 171.581202 
L 585.268665 133.58541 
" style="fill:#ececec;opacity:0.5;stroke:#ececec;stroke-linejoin:miter;"/>
   </g>
  </g>
  <g id="axis3d_4">
   <g id="line2d_16">
    <path d="M 476.380584 201.548569 
L 661.965072 245.80086 
" style="fill:none;stroke:#000000;stroke-linecap:square;stroke-width:0.8;"/>
   </g>
   <g id="Line3DCollection_4">
    <path d="M 498.841271 206.90428 
L 606.679397 138.19749 
L 605.9393 7.847789 
" style="fill:none;stroke:#b0b0b0;stroke-width:0.8;"/>
    <path d="M 544.057792 217.686079 
L 649.729469 147.470895 
L 651.182353 16.156123 
" style="fill:none;stroke:#b0b0b0;stroke-width:0.8;"/>
    <path d="M 590.310744 228.715013 
L 693.693551 156.941187 
L 697.435637 24.649974 
" style="fill:none;stroke:#b0b0b0;stroke-width:0.8;"/>
    <path d="M 637.636176 239.999678 
L 738.601063 166.614702 
L 744.733372 33.335625 
" style="fill:none;stroke:#b0b0b0;stroke-width:0.8;"/>
   </g>
   <g id="xtick_13">
    <g id="line2d_17">
     <path d="M 499.770538 206.312217 
L 496.979262 208.09062 
" style="fill:none;stroke:#000000;stroke-linecap:square;stroke-width:0.8;"/>
    </g>
    <g id="text_14">
     <!-- 00 -->
     <g transform="translate(479.875817 237.14703)rotate(-45)scale(0.14 -0.14)">
      <use transform="scale(0.996264)" xlink:href="#CMR17-48"/>
      <use transform="translate(45.690477 0)scale(0.996264)" xlink:href="#CMR17-48"/>
     </g>
    </g>
   </g>
   <g id="xtick_14">
    <g id="line2d_18">
     <path d="M 544.969128 217.080527 
L 542.231671 218.899473 
" style="fill:none;stroke:#000000;stroke-linecap:square;stroke-width:0.8;"/>
    </g>
    <g id="text_15">
     <!-- 01 -->
     <g transform="translate(525.088242 248.103782)rotate(-45)scale(0.14 -0.14)">
      <use transform="scale(0.996264)" xlink:href="#CMR17-48"/>
      <use transform="translate(45.690477 0)scale(0.996264)" xlink:href="#CMR17-49"/>
     </g>
    </g>
   </g>
   <g id="xtick_15">
    <g id="line2d_19">
     <path d="M 591.20308 228.095506 
L 588.522658 229.956397 
" style="fill:none;stroke:#000000;stroke-linecap:square;stroke-width:0.8;"/>
    </g>
    <g id="text_16">
     <!-- 10 -->
     <g transform="translate(571.338855 259.312128)rotate(-45)scale(0.14 -0.14)">
      <use transform="scale(0.996264)" xlink:href="#CMR17-49"/>
      <use transform="translate(45.690477 0)scale(0.996264)" xlink:href="#CMR17-48"/>
     </g>
    </g>
   </g>
   <g id="xtick_16">
    <g id="line2d_20">
     <path d="M 638.50838 239.365727 
L 635.888391 241.270032 
" style="fill:none;stroke:#000000;stroke-linecap:square;stroke-width:0.8;"/>
    </g>
    <g id="text_17">
     <!-- 11 -->
     <g transform="translate(618.66383 270.780834)rotate(-45)scale(0.14 -0.14)">
      <use transform="scale(0.996264)" xlink:href="#CMR17-49"/>
      <use transform="translate(45.690477 0)scale(0.996264)" xlink:href="#CMR17-49"/>
     </g>
    </g>
   </g>
  </g>
  <g id="axis3d_5">
   <g id="line2d_21">
    <path d="M 761.65712 171.581202 
L 661.965072 245.80086 
" style="fill:none;stroke:#000000;stroke-linecap:square;stroke-width:0.8;"/>
   </g>
   <g id="Line3DCollection_5">
    <path d="M 484.000685 56.547028 
L 491.016499 192.413474 
L 675.403872 235.795817 
" style="fill:none;stroke:#b0b0b0;stroke-width:0.8;"/>
    <path d="M 513.777478 40.730342 
L 519.168861 174.842005 
L 701.219492 216.576366 
" style="fill:none;stroke:#b0b0b0;stroke-width:0.8;"/>
    <path d="M 542.401344 25.526062 
L 546.284836 157.917404 
L 726.04244 198.095948 
" style="fill:none;stroke:#b0b0b0;stroke-width:0.8;"/>
    <path d="M 569.937971 10.899296 
L 572.420618 141.604597 
L 749.928893 180.312741 
" style="fill:none;stroke:#b0b0b0;stroke-width:0.8;"/>
   </g>
   <g id="xtick_17">
    <g id="line2d_22">
     <path d="M 673.861052 235.432825 
L 678.492943 236.522608 
" style="fill:none;stroke:#000000;stroke-linecap:square;stroke-width:0.8;"/>
    </g>
    <g id="text_18">
     <!-- 00 -->
     <g transform="translate(689.195824 248.348363)rotate(-337.5)scale(0.14 -0.14)">
      <use transform="scale(0.996264)" xlink:href="#CMR17-48"/>
      <use transform="translate(45.690477 0)scale(0.996264)" xlink:href="#CMR17-48"/>
     </g>
    </g>
   </g>
   <g id="xtick_18">
    <g id="line2d_23">
     <path d="M 699.697534 216.227463 
L 704.266725 217.274932 
" style="fill:none;stroke:#000000;stroke-linecap:square;stroke-width:0.8;"/>
    </g>
    <g id="text_19">
     <!-- 01 -->
     <g transform="translate(714.749375 228.903937)rotate(-337.5)scale(0.14 -0.14)">
      <use transform="scale(0.996264)" xlink:href="#CMR17-48"/>
      <use transform="translate(45.690477 0)scale(0.996264)" xlink:href="#CMR17-49"/>
     </g>
    </g>
   </g>
   <g id="xtick_19">
    <g id="line2d_24">
     <path d="M 724.540896 197.76033 
L 729.048738 198.767901 
" style="fill:none;stroke:#000000;stroke-linecap:square;stroke-width:0.8;"/>
    </g>
    <g id="text_20">
     <!-- 10 -->
     <g transform="translate(739.320787 210.206849)rotate(-337.5)scale(0.14 -0.14)">
      <use transform="scale(0.996264)" xlink:href="#CMR17-49"/>
      <use transform="translate(45.690477 0)scale(0.996264)" xlink:href="#CMR17-48"/>
     </g>
    </g>
   </g>
   <g id="xtick_20">
    <g id="line2d_25">
     <path d="M 748.44732 179.989663 
L 752.895146 180.959573 
" style="fill:none;stroke:#000000;stroke-linecap:square;stroke-width:0.8;"/>
    </g>
    <g id="text_21">
     <!-- 11 -->
     <g transform="translate(762.965613 192.214827)rotate(-337.5)scale(0.14 -0.14)">
      <use transform="scale(0.996264)" xlink:href="#CMR17-49"/>
      <use transform="translate(45.690477 0)scale(0.996264)" xlink:href="#CMR17-49"/>
     </g>
    </g>
   </g>
  </g>
  <g id="axis3d_6">
   <g id="line2d_26">
    <path d="M 761.65712 171.581202 
L 769.037001 37.79869 
" style="fill:none;stroke:#000000;stroke-linecap:square;stroke-width:0.8;"/>
   </g>
   <g id="text_22">
    <!-- Im[$\rho$] -->
    <defs>
     <path d="M 19.703125 60.90625 
C 19.703125 65.390625 20.90625 65.390625 28.09375 65.390625 
L 28.09375 68 
C 24.90625 67.796875 19.796875 67.796875 16.40625 67.796875 
C 13 67.796875 7.90625 67.796875 4.703125 68 
L 4.703125 65.390625 
C 11.90625 65.390625 13.09375 65.390625 13.09375 60.90625 
L 13.09375 7.078125 
C 13.09375 2.59375 11.90625 2.59375 4.703125 2.59375 
L 4.703125 0 
C 7.90625 0.1875 13 0.1875 16.40625 0.1875 
C 19.796875 0.1875 24.90625 0.1875 28.09375 0 
L 28.09375 2.59375 
C 20.90625 2.59375 19.703125 2.59375 19.703125 7.078125 
z
" id="CMR17-73"/>
     <path d="M 67.59375 30.53125 
C 67.59375 35.5625 66.703125 44 54.796875 44 
C 48 44 43.296875 39.375 41.5 33.953125 
L 41.40625 33.953125 
C 40.203125 42.1875 34.296875 44 28.703125 44 
C 20.796875 44 16.703125 37.875 15.203125 33.84375 
L 15.09375 33.84375 
L 15.09375 44 
L 3.296875 42.890625 
L 3.296875 40.28125 
C 9.203125 40.28125 10.09375 39.6875 10.09375 34.859375 
L 10.09375 6.921875 
C 10.09375 3.09375 9.703125 2.59375 3.296875 2.59375 
L 3.296875 0 
C 5.703125 0.1875 10.09375 0.1875 12.703125 0.1875 
C 15.296875 0.1875 19.796875 0.1875 22.203125 0 
L 22.203125 2.59375 
C 15.796875 2.59375 15.40625 3 15.40625 6.921875 
L 15.40625 26.21875 
C 15.40625 35.453125 21 42.390625 28 42.390625 
C 35.40625 42.390625 36.203125 35.765625 36.203125 30.9375 
L 36.203125 6.921875 
C 36.203125 3.09375 35.796875 2.59375 29.40625 2.59375 
L 29.40625 0 
C 31.796875 0.1875 36.203125 0.1875 38.796875 0.1875 
C 41.40625 0.1875 45.90625 0.1875 48.296875 0 
L 48.296875 2.59375 
C 41.90625 2.59375 41.5 3 41.5 6.921875 
L 41.5 26.21875 
C 41.5 35.453125 47.09375 42.390625 54.09375 42.390625 
C 61.5 42.390625 62.296875 35.765625 62.296875 30.9375 
L 62.296875 6.921875 
C 62.296875 3.09375 61.90625 2.59375 55.5 2.59375 
L 55.5 0 
C 57.90625 0.1875 62.296875 0.1875 64.90625 0.1875 
C 67.5 0.1875 72 0.1875 74.40625 0 
L 74.40625 2.59375 
C 68 2.59375 67.59375 3 67.59375 6.921875 
z
" id="CMR17-109"/>
    </defs>
    <g transform="translate(809.026865 118.025317)rotate(-86.842577)scale(0.14 -0.14)">
     <use transform="scale(0.996264)" xlink:href="#CMR17-73"/>
     <use transform="translate(32.638409 0)scale(0.996264)" xlink:href="#CMR17-109"/>
     <use transform="translate(109.557999 0)scale(0.996264)" xlink:href="#CMR17-91"/>
     <use transform="translate(134.429058 0)scale(0.996264)" xlink:href="#CMMI12-26"/>
     <use transform="translate(184.74343 0)scale(0.996264)" xlink:href="#CMR17-93"/>
    </g>
   </g>
   <g id="Line3DCollection_6">
    <path d="M 762.394893 158.206847 
L 585.087075 120.577073 
L 475.593624 187.897111 
" style="fill:none;stroke:#b0b0b0;stroke-width:0.8;"/>
    <path d="M 765.040237 110.252041 
L 584.43662 73.981231 
L 472.769692 138.910105 
" style="fill:none;stroke:#b0b0b0;stroke-width:0.8;"/>
    <path d="M 767.78668 60.464512 
L 583.762381 25.681538 
L 469.834146 87.986927 
" style="fill:none;stroke:#b0b0b0;stroke-width:0.8;"/>
   </g>
   <g id="xtick_21">
    <g id="line2d_27">
     <path d="M 760.915253 157.892825 
L 765.357263 158.835546 
" style="fill:none;stroke:#000000;stroke-linecap:square;stroke-width:0.8;"/>
    </g>
    <g id="text_23">
     <!-- $0.0$ -->
     <g transform="translate(772.274732 165.966682)scale(0.14 -0.14)">
      <use transform="scale(0.996264)" xlink:href="#CMR17-48"/>
      <use transform="translate(45.690477 0)scale(0.996264)" xlink:href="#CMMI12-58"/>
      <use transform="translate(72.787654 0)scale(0.996264)" xlink:href="#CMR17-48"/>
     </g>
    </g>
   </g>
   <g id="xtick_22">
    <g id="line2d_28">
     <path d="M 763.531926 109.949125 
L 768.060069 110.858517 
" style="fill:none;stroke:#000000;stroke-linecap:square;stroke-width:0.8;"/>
    </g>
    <g id="text_24">
     <!-- $0.2$ -->
     <g transform="translate(775.262426 118.080056)scale(0.14 -0.14)">
      <use transform="scale(0.996264)" xlink:href="#CMR17-48"/>
      <use transform="translate(45.690477 0)scale(0.996264)" xlink:href="#CMMI12-58"/>
      <use transform="translate(72.787654 0)scale(0.996264)" xlink:href="#CMR17-50"/>
     </g>
    </g>
   </g>
   <g id="xtick_23">
    <g id="line2d_29">
     <path d="M 766.248566 60.173788 
L 770.866245 61.046589 
" style="fill:none;stroke:#000000;stroke-linecap:square;stroke-width:0.8;"/>
    </g>
    <g id="text_25">
     <!-- $0.4$ -->
     <g transform="translate(778.364049 68.367366)scale(0.14 -0.14)">
      <use transform="scale(0.996264)" xlink:href="#CMR17-48"/>
      <use transform="translate(45.690477 0)scale(0.996264)" xlink:href="#CMMI12-58"/>
      <use transform="translate(72.787654 0)scale(0.996264)" xlink:href="#CMR17-52"/>
     </g>
    </g>
   </g>
  </g>
  <g id="axes_2">
   <g id="Poly3DCollection_17">
    <path clip-path="url(#p61fa23f9cf)" d="M 589.467004 126.892389 
L 589.449663 125.482786 
L 610.935837 130.063718 
L 610.941515 131.478232 
z
" style="fill:#065d4c;fill-opacity:0.8;"/>
    <path clip-path="url(#p61fa23f9cf)" d="M 576.632254 134.866015 
L 576.607703 133.447891 
L 589.449663 125.482786 
L 589.467004 126.892389 
z
" style="fill:#0cba97;fill-opacity:0.8;"/>
    <path clip-path="url(#p61fa23f9cf)" d="M 576.632254 134.866015 
L 589.467004 126.892389 
L 610.941515 131.478232 
L 598.236124 139.536379 
z
" style="fill:#08745e;fill-opacity:0.8;"/>
    <path clip-path="url(#p61fa23f9cf)" d="M 576.607703 133.447891 
L 598.223376 138.113299 
L 610.935837 130.063718 
L 589.449663 125.482786 
z
" style="fill:#0aa384;fill-opacity:0.8;"/>
    <path clip-path="url(#p61fa23f9cf)" d="M 598.236124 139.536379 
L 610.941515 131.478232 
L 610.935837 130.063718 
L 598.223376 138.113299 
z
" style="fill:#065d4c;fill-opacity:0.8;"/>
    <path clip-path="url(#p61fa23f9cf)" d="M 576.632254 134.866015 
L 598.236124 139.536379 
L 598.223376 138.113299 
L 576.607703 133.447891 
z
" style="fill:#0cba97;fill-opacity:0.8;"/>
   </g>
   <g id="Poly3DCollection_18">
    <path clip-path="url(#p61fa23f9cf)" d="M 632.643213 136.11259 
L 632.640273 136.782011 
L 654.567044 141.467995 
L 654.575721 140.796237 
z
" style="fill:#0cba97;fill-opacity:0.8;"/>
    <path clip-path="url(#p61fa23f9cf)" d="M 620.070663 144.256608 
L 620.070988 144.930085 
L 632.640273 136.782011 
L 632.643213 136.11259 
z
" style="fill:#065d4c;fill-opacity:0.8;"/>
    <path clip-path="url(#p61fa23f9cf)" d="M 620.070988 144.930085 
L 642.1341 149.703341 
L 654.567044 141.467995 
L 632.640273 136.782011 
z
" style="fill:#0aa384;fill-opacity:0.8;"/>
    <path clip-path="url(#p61fa23f9cf)" d="M 620.070663 144.256608 
L 632.643213 136.11259 
L 654.575721 140.796237 
L 642.139583 149.027507 
z
" style="fill:#08745e;fill-opacity:0.8;"/>
    <path clip-path="url(#p61fa23f9cf)" d="M 642.139583 149.027507 
L 654.575721 140.796237 
L 654.567044 141.467995 
L 642.1341 149.703341 
z
" style="fill:#0cba97;fill-opacity:0.8;"/>
    <path clip-path="url(#p61fa23f9cf)" d="M 620.070663 144.256608 
L 642.139583 149.027507 
L 642.1341 149.703341 
L 620.070988 144.930085 
z
" style="fill:#065d4c;fill-opacity:0.8;"/>
   </g>
   <g id="Poly3DCollection_19">
    <path clip-path="url(#p61fa23f9cf)" d="M 563.560486 142.986891 
L 563.615245 145.426219 
L 585.32918 150.191988 
L 585.294846 147.744133 
z
" style="fill:#0cba97;fill-opacity:0.8;"/>
    <path clip-path="url(#p61fa23f9cf)" d="M 550.245071 151.259132 
L 550.313083 153.713256 
L 563.615245 145.426219 
L 563.560486 142.986891 
z
" style="fill:#065d4c;fill-opacity:0.8;"/>
    <path clip-path="url(#p61fa23f9cf)" d="M 550.313083 153.713256 
L 572.158389 158.568425 
L 585.32918 150.191988 
L 563.615245 145.426219 
z
" style="fill:#0aa384;fill-opacity:0.8;"/>
    <path clip-path="url(#p61fa23f9cf)" d="M 550.245071 151.259132 
L 563.560486 142.986891 
L 585.294846 147.744133 
L 572.111048 156.105701 
z
" style="fill:#08745e;fill-opacity:0.8;"/>
    <path clip-path="url(#p61fa23f9cf)" d="M 572.111048 156.105701 
L 585.294846 147.744133 
L 585.32918 150.191988 
L 572.158389 158.568425 
z
" style="fill:#0cba97;fill-opacity:0.8;"/>
    <path clip-path="url(#p61fa23f9cf)" d="M 550.245071 151.259132 
L 572.111048 156.105701 
L 572.158389 158.568425 
L 550.313083 153.713256 
z
" style="fill:#065d4c;fill-opacity:0.8;"/>
   </g>
   <g id="Poly3DCollection_20">
    <path clip-path="url(#p61fa23f9cf)" d="M 676.742743 145.529964 
L 676.909169 137.81289 
L 699.383018 142.570343 
L 699.148059 150.314578 
z
" style="fill:#065d4c;fill-opacity:0.8;"/>
    <path clip-path="url(#p61fa23f9cf)" d="M 664.446681 153.849896 
L 664.577402 146.085691 
L 676.909169 137.81289 
L 676.742743 145.529964 
z
" style="fill:#0cba97;fill-opacity:0.8;"/>
    <path clip-path="url(#p61fa23f9cf)" d="M 664.446681 153.849896 
L 676.742743 145.529964 
L 699.148059 150.314578 
L 686.995833 158.724612 
z
" style="fill:#08745e;fill-opacity:0.8;"/>
    <path clip-path="url(#p61fa23f9cf)" d="M 664.577402 146.085691 
L 687.195976 150.933008 
L 699.383018 142.570343 
L 676.909169 137.81289 
z
" style="fill:#0aa384;fill-opacity:0.8;"/>
    <path clip-path="url(#p61fa23f9cf)" d="M 686.995833 158.724612 
L 699.148059 150.314578 
L 699.383018 142.570343 
L 687.195976 150.933008 
z
" style="fill:#065d4c;fill-opacity:0.8;"/>
    <path clip-path="url(#p61fa23f9cf)" d="M 664.446681 153.849896 
L 686.995833 158.724612 
L 687.195976 150.933008 
L 664.577402 146.085691 
z
" style="fill:#0cba97;fill-opacity:0.8;"/>
   </g>
   <g id="Poly3DCollection_21">
    <path clip-path="url(#p61fa23f9cf)" d="M 607.263433 152.552644 
L 607.282799 156.085551 
L 629.458752 160.95854 
L 629.470055 157.413255 
z
" style="fill:#0cba97;fill-opacity:0.8;"/>
    <path clip-path="url(#p61fa23f9cf)" d="M 594.214891 161.004992 
L 594.252594 164.559376 
L 607.282799 156.085551 
L 607.263433 152.552644 
z
" style="fill:#065d4c;fill-opacity:0.8;"/>
    <path clip-path="url(#p61fa23f9cf)" d="M 594.252594 164.559376 
L 616.567152 169.524738 
L 629.458752 160.95854 
L 607.282799 156.085551 
z
" style="fill:#0aa384;fill-opacity:0.8;"/>
    <path clip-path="url(#p61fa23f9cf)" d="M 594.214891 161.004992 
L 607.263433 152.552644 
L 629.470055 157.413255 
L 616.560503 165.957871 
z
" style="fill:#08745e;fill-opacity:0.8;"/>
    <path clip-path="url(#p61fa23f9cf)" d="M 616.560503 165.957871 
L 629.470055 157.413255 
L 629.458752 160.95854 
L 616.567152 169.524738 
z
" style="fill:#0cba97;fill-opacity:0.8;"/>
    <path clip-path="url(#p61fa23f9cf)" d="M 594.214891 161.004992 
L 616.560503 165.957871 
L 616.567152 169.524738 
L 594.252594 164.559376 
z
" style="fill:#065d4c;fill-opacity:0.8;"/>
   </g>
   <g id="Poly3DCollection_22">
    <path clip-path="url(#p61fa23f9cf)" d="M 721.795532 155.150905 
L 721.795532 155.150905 
L 744.689111 160.039787 
L 744.689111 160.039787 
z
" style="fill:#065d4c;fill-opacity:0.8;"/>
    <path clip-path="url(#p61fa23f9cf)" d="M 709.790999 163.652512 
L 709.790999 163.652512 
L 721.795532 155.150905 
L 721.795532 155.150905 
z
" style="fill:#065d4c;fill-opacity:0.8;"/>
    <path clip-path="url(#p61fa23f9cf)" d="M 709.790999 163.652512 
L 732.836228 168.634471 
L 744.689111 160.039787 
L 721.795532 155.150905 
z
" style="fill:#0aa384;fill-opacity:0.8;"/>
    <path clip-path="url(#p61fa23f9cf)" d="M 709.790999 163.652512 
L 721.795532 155.150905 
L 744.689111 160.039787 
L 732.836228 168.634471 
z
" style="fill:#08745e;fill-opacity:0.8;"/>
    <path clip-path="url(#p61fa23f9cf)" d="M 732.836228 168.634471 
L 744.689111 160.039787 
L 744.689111 160.039787 
L 732.836228 168.634471 
z
" style="fill:#065d4c;fill-opacity:0.8;"/>
    <path clip-path="url(#p61fa23f9cf)" d="M 709.790999 163.652512 
L 732.836228 168.634471 
L 732.836228 168.634471 
L 709.790999 163.652512 
z
" style="fill:#065d4c;fill-opacity:0.8;"/>
   </g>
   <g id="Poly3DCollection_23">
    <path clip-path="url(#p61fa23f9cf)" d="M 651.9186 162.32682 
L 651.9186 162.32682 
L 674.613045 167.294207 
L 674.613045 167.294207 
z
" style="fill:#065d4c;fill-opacity:0.8;"/>
    <path clip-path="url(#p61fa23f9cf)" d="M 639.151871 170.965221 
L 639.151871 170.965221 
L 651.9186 162.32682 
L 651.9186 162.32682 
z
" style="fill:#065d4c;fill-opacity:0.8;"/>
    <path clip-path="url(#p61fa23f9cf)" d="M 639.151871 170.965221 
L 651.9186 162.32682 
L 674.613045 167.294207 
L 661.993073 176.027947 
z
" style="fill:#08745e;fill-opacity:0.8;"/>
    <path clip-path="url(#p61fa23f9cf)" d="M 639.151871 170.965221 
L 661.993073 176.027947 
L 674.613045 167.294207 
L 651.9186 162.32682 
z
" style="fill:#0aa384;fill-opacity:0.8;"/>
    <path clip-path="url(#p61fa23f9cf)" d="M 661.993073 176.027947 
L 674.613045 167.294207 
L 674.613045 167.294207 
L 661.993073 176.027947 
z
" style="fill:#065d4c;fill-opacity:0.8;"/>
    <path clip-path="url(#p61fa23f9cf)" d="M 639.151871 170.965221 
L 661.993073 176.027947 
L 661.993073 176.027947 
L 639.151871 170.965221 
z
" style="fill:#065d4c;fill-opacity:0.8;"/>
   </g>
   <g id="Poly3DCollection_24">
    <path clip-path="url(#p61fa23f9cf)" d="M 536.679135 159.687011 
L 536.317091 148.753027 
L 558.408441 153.652736 
L 558.677851 164.625445 
z
" style="fill:#065d4c;fill-opacity:0.8;"/>
    <path clip-path="url(#p61fa23f9cf)" d="M 522.855538 168.274962 
L 522.430344 157.273781 
L 536.317091 148.753027 
L 536.679135 159.687011 
z
" style="fill:#0cba97;fill-opacity:0.8;"/>
    <path clip-path="url(#p61fa23f9cf)" d="M 522.855538 168.274962 
L 536.679135 159.687011 
L 558.677851 164.625445 
L 544.988108 173.307899 
z
" style="fill:#08745e;fill-opacity:0.8;"/>
    <path clip-path="url(#p61fa23f9cf)" d="M 522.430344 157.273781 
L 544.656668 162.26766 
L 558.408441 153.652736 
L 536.317091 148.753027 
z
" style="fill:#0aa384;fill-opacity:0.8;"/>
    <path clip-path="url(#p61fa23f9cf)" d="M 544.988108 173.307899 
L 558.677851 164.625445 
L 558.408441 153.652736 
L 544.656668 162.26766 
z
" style="fill:#065d4c;fill-opacity:0.8;"/>
    <path clip-path="url(#p61fa23f9cf)" d="M 522.855538 168.274962 
L 544.988108 173.307899 
L 544.656668 162.26766 
L 522.430344 157.273781 
z
" style="fill:#0cba97;fill-opacity:0.8;"/>
   </g>
   <g id="Poly3DCollection_25">
    <path clip-path="url(#p61fa23f9cf)" d="M 580.918152 169.618112 
L 580.918152 169.618112 
L 603.404041 174.665911 
L 603.404041 174.665911 
z
" style="fill:#065d4c;fill-opacity:0.8;"/>
    <path clip-path="url(#p61fa23f9cf)" d="M 567.366067 178.396637 
L 567.366067 178.396637 
L 580.918152 169.618112 
L 580.918152 169.618112 
z
" style="fill:#065d4c;fill-opacity:0.8;"/>
    <path clip-path="url(#p61fa23f9cf)" d="M 567.366067 178.396637 
L 580.918152 169.618112 
L 603.404041 174.665911 
L 589.993519 183.54211 
z
" style="fill:#08745e;fill-opacity:0.8;"/>
    <path clip-path="url(#p61fa23f9cf)" d="M 567.366067 178.396637 
L 589.993519 183.54211 
L 603.404041 174.665911 
L 580.918152 169.618112 
z
" style="fill:#0aa384;fill-opacity:0.8;"/>
    <path clip-path="url(#p61fa23f9cf)" d="M 589.993519 183.54211 
L 603.404041 174.665911 
L 603.404041 174.665911 
L 589.993519 183.54211 
z
" style="fill:#065d4c;fill-opacity:0.8;"/>
    <path clip-path="url(#p61fa23f9cf)" d="M 567.366067 178.396637 
L 589.993519 183.54211 
L 589.993519 183.54211 
L 567.366067 178.396637 
z
" style="fill:#065d4c;fill-opacity:0.8;"/>
   </g>
   <g id="Poly3DCollection_26">
    <path clip-path="url(#p61fa23f9cf)" d="M 697.557452 172.316306 
L 697.323069 180.135092 
L 720.448587 185.240279 
L 720.755974 177.394025 
z
" style="fill:#0cba97;fill-opacity:0.8;"/>
    <path clip-path="url(#p61fa23f9cf)" d="M 685.088276 181.146972 
L 684.890343 189.013416 
L 697.323069 180.135092 
L 697.557452 172.316306 
z
" style="fill:#065d4c;fill-opacity:0.8;"/>
    <path clip-path="url(#p61fa23f9cf)" d="M 684.890343 189.013416 
L 708.169819 194.217375 
L 720.448587 185.240279 
L 697.323069 180.135092 
z
" style="fill:#0aa384;fill-opacity:0.8;"/>
    <path clip-path="url(#p61fa23f9cf)" d="M 685.088276 181.146972 
L 697.557452 172.316306 
L 720.755974 177.394025 
L 708.441741 186.323241 
z
" style="fill:#08745e;fill-opacity:0.8;"/>
    <path clip-path="url(#p61fa23f9cf)" d="M 708.441741 186.323241 
L 720.755974 177.394025 
L 720.448587 185.240279 
L 708.169819 194.217375 
z
" style="fill:#0cba97;fill-opacity:0.8;"/>
    <path clip-path="url(#p61fa23f9cf)" d="M 685.088276 181.146972 
L 708.441741 186.323241 
L 708.169819 194.217375 
L 684.890343 189.013416 
z
" style="fill:#065d4c;fill-opacity:0.8;"/>
   </g>
   <g id="Poly3DCollection_27">
    <path clip-path="url(#p61fa23f9cf)" d="M 508.766872 177.027588 
L 508.766872 177.027588 
L 531.0344 182.157767 
L 531.0344 182.157767 
z
" style="fill:#065d4c;fill-opacity:0.8;"/>
    <path clip-path="url(#p61fa23f9cf)" d="M 494.405436 185.949673 
L 494.405436 185.949673 
L 508.766872 177.027588 
L 508.766872 177.027588 
z
" style="fill:#065d4c;fill-opacity:0.8;"/>
    <path clip-path="url(#p61fa23f9cf)" d="M 494.405436 185.949673 
L 516.809018 191.179939 
L 531.0344 182.157767 
L 508.766872 177.027588 
z
" style="fill:#0aa384;fill-opacity:0.8;"/>
    <path clip-path="url(#p61fa23f9cf)" d="M 494.405436 185.949673 
L 508.766872 177.027588 
L 531.0344 182.157767 
L 516.809018 191.179939 
z
" style="fill:#08745e;fill-opacity:0.8;"/>
    <path clip-path="url(#p61fa23f9cf)" d="M 516.809018 191.179939 
L 531.0344 182.157767 
L 531.0344 182.157767 
L 516.809018 191.179939 
z
" style="fill:#065d4c;fill-opacity:0.8;"/>
    <path clip-path="url(#p61fa23f9cf)" d="M 494.405436 185.949673 
L 516.809018 191.179939 
L 516.809018 191.179939 
L 494.405436 185.949673 
z
" style="fill:#065d4c;fill-opacity:0.8;"/>
   </g>
   <g id="Poly3DCollection_28">
    <path clip-path="url(#p61fa23f9cf)" d="M 626.139608 179.769759 
L 626.146481 176.158223 
L 649.168869 181.306258 
L 649.129035 184.930595 
z
" style="fill:#065d4c;fill-opacity:0.8;"/>
    <path clip-path="url(#p61fa23f9cf)" d="M 612.874661 188.745272 
L 612.862525 185.111526 
L 626.146481 176.158223 
L 626.139608 179.769759 
z
" style="fill:#0cba97;fill-opacity:0.8;"/>
    <path clip-path="url(#p61fa23f9cf)" d="M 612.874661 188.745272 
L 626.139608 179.769759 
L 649.129035 184.930595 
L 636.013782 194.007098 
z
" style="fill:#08745e;fill-opacity:0.8;"/>
    <path clip-path="url(#p61fa23f9cf)" d="M 612.862525 185.111526 
L 636.035039 190.360447 
L 649.168869 181.306258 
L 626.146481 176.158223 
z
" style="fill:#0aa384;fill-opacity:0.8;"/>
    <path clip-path="url(#p61fa23f9cf)" d="M 636.013782 194.007098 
L 649.129035 184.930595 
L 649.168869 181.306258 
L 636.035039 190.360447 
z
" style="fill:#065d4c;fill-opacity:0.8;"/>
    <path clip-path="url(#p61fa23f9cf)" d="M 612.874661 188.745272 
L 636.013782 194.007098 
L 636.035039 190.360447 
L 612.862525 185.111526 
z
" style="fill:#0cba97;fill-opacity:0.8;"/>
   </g>
   <g id="Poly3DCollection_29">
    <path clip-path="url(#p61fa23f9cf)" d="M 553.551208 187.345376 
L 553.84737 198.395852 
L 576.51925 203.680734 
L 576.321504 192.591386 
z
" style="fill:#0cba97;fill-opacity:0.8;"/>
    <path clip-path="url(#p61fa23f9cf)" d="M 539.465858 196.469329 
L 539.827068 207.587244 
L 553.84737 198.395852 
L 553.551208 187.345376 
z
" style="fill:#065d4c;fill-opacity:0.8;"/>
    <path clip-path="url(#p61fa23f9cf)" d="M 539.827068 207.587244 
L 562.641831 212.975942 
L 576.51925 203.680734 
L 553.84737 198.395852 
z
" style="fill:#0aa384;fill-opacity:0.8;"/>
    <path clip-path="url(#p61fa23f9cf)" d="M 539.465858 196.469329 
L 553.551208 187.345376 
L 576.321504 192.591386 
L 562.380274 201.818852 
z
" style="fill:#08745e;fill-opacity:0.8;"/>
    <path clip-path="url(#p61fa23f9cf)" d="M 562.380274 201.818852 
L 576.321504 192.591386 
L 576.51925 203.680734 
L 562.641831 212.975942 
z
" style="fill:#0cba97;fill-opacity:0.8;"/>
    <path clip-path="url(#p61fa23f9cf)" d="M 539.465858 196.469329 
L 562.380274 201.818852 
L 562.641831 212.975942 
L 539.827068 207.587244 
z
" style="fill:#065d4c;fill-opacity:0.8;"/>
   </g>
   <g id="Poly3DCollection_30">
    <path clip-path="url(#p61fa23f9cf)" d="M 672.376597 190.14938 
L 672.390669 189.453398 
L 695.907333 194.728644 
L 695.886667 195.427094 
z
" style="fill:#065d4c;fill-opacity:0.8;"/>
    <path clip-path="url(#p61fa23f9cf)" d="M 659.415271 199.328587 
L 659.425873 198.628324 
L 672.390669 189.453398 
L 672.376597 190.14938 
z
" style="fill:#0cba97;fill-opacity:0.8;"/>
    <path clip-path="url(#p61fa23f9cf)" d="M 659.415271 199.328587 
L 672.376597 190.14938 
L 695.886667 195.427094 
L 683.083615 204.710758 
z
" style="fill:#08745e;fill-opacity:0.8;"/>
    <path clip-path="url(#p61fa23f9cf)" d="M 659.425873 198.628324 
L 683.100902 204.008008 
L 695.907333 194.728644 
L 672.390669 189.453398 
z
" style="fill:#0aa384;fill-opacity:0.8;"/>
    <path clip-path="url(#p61fa23f9cf)" d="M 683.083615 204.710758 
L 695.886667 195.427094 
L 695.907333 194.728644 
L 683.100902 204.008008 
z
" style="fill:#065d4c;fill-opacity:0.8;"/>
    <path clip-path="url(#p61fa23f9cf)" d="M 659.415271 199.328587 
L 683.083615 204.710758 
L 683.100902 204.008008 
L 659.425873 198.628324 
z
" style="fill:#0cba97;fill-opacity:0.8;"/>
   </g>
   <g id="Poly3DCollection_31">
    <path clip-path="url(#p61fa23f9cf)" d="M 599.349595 197.89679 
L 599.327438 195.356878 
L 622.641227 200.713657 
L 622.639882 203.2626 
z
" style="fill:#065d4c;fill-opacity:0.8;"/>
    <path clip-path="url(#p61fa23f9cf)" d="M 585.556685 207.22954 
L 585.520256 204.673961 
L 599.327438 195.356878 
L 599.349595 197.89679 
z
" style="fill:#0cba97;fill-opacity:0.8;"/>
    <path clip-path="url(#p61fa23f9cf)" d="M 585.556685 207.22954 
L 599.349595 197.89679 
L 622.639882 203.2626 
L 608.999609 212.702447 
z
" style="fill:#08745e;fill-opacity:0.8;"/>
    <path clip-path="url(#p61fa23f9cf)" d="M 585.520256 204.673961 
L 608.986991 210.137767 
L 622.641227 200.713657 
L 599.327438 195.356878 
z
" style="fill:#0aa384;fill-opacity:0.8;"/>
    <path clip-path="url(#p61fa23f9cf)" d="M 608.999609 212.702447 
L 622.639882 203.2626 
L 622.641227 200.713657 
L 608.986991 210.137767 
z
" style="fill:#065d4c;fill-opacity:0.8;"/>
    <path clip-path="url(#p61fa23f9cf)" d="M 585.556685 207.22954 
L 608.999609 212.702447 
L 608.986991 210.137767 
L 585.520256 204.673961 
z
" style="fill:#0cba97;fill-opacity:0.8;"/>
   </g>
   <g id="Poly3DCollection_32">
    <path clip-path="url(#p61fa23f9cf)" d="M 646.19687 208.689854 
L 646.182067 210.181337 
L 669.996019 215.676396 
L 670.025165 214.179615 
z
" style="fill:#0cba97;fill-opacity:0.8;"/>
    <path clip-path="url(#p61fa23f9cf)" d="M 632.71367 218.238652 
L 632.70682 219.739327 
L 646.182067 210.181337 
L 646.19687 208.689854 
z
" style="fill:#065d4c;fill-opacity:0.8;"/>
    <path clip-path="url(#p61fa23f9cf)" d="M 632.70682 219.739327 
L 656.682211 225.345275 
L 669.996019 215.676396 
L 646.182067 210.181337 
z
" style="fill:#0aa384;fill-opacity:0.8;"/>
    <path clip-path="url(#p61fa23f9cf)" d="M 632.71367 218.238652 
L 646.19687 208.689854 
L 670.025165 214.179615 
L 656.703599 223.839261 
z
" style="fill:#08745e;fill-opacity:0.8;"/>
    <path clip-path="url(#p61fa23f9cf)" d="M 656.703599 223.839261 
L 670.025165 214.179615 
L 669.996019 215.676396 
L 656.682211 225.345275 
z
" style="fill:#0cba97;fill-opacity:0.8;"/>
    <path clip-path="url(#p61fa23f9cf)" d="M 632.71367 218.238652 
L 656.703599 223.839261 
L 656.682211 225.345275 
L 632.70682 219.739327 
z
" style="fill:#065d4c;fill-opacity:0.8;"/>
   </g>
   <g id="Poly3DCollection_33">
    <path clip-path="url(#p61fa23f9cf)" d="M 481.514386 187.284182 
L 660.460286 229.25594 
L 756.837955 158.782113 
L 586.456769 122.552002 
z
" style="fill-opacity:0.2;"/>
   </g>
  </g>
 </g>
 <defs>
  <clipPath id="pd0d574a667">
   <rect height="277.2" width="380.454545" x="-30.6" y="-14.4"/>
  </clipPath>
  <clipPath id="p61fa23f9cf">
   <rect height="277.2" width="380.454545" x="425.945455" y="-14.4"/>
  </clipPath>
 </defs>
</svg>
