<?xml version="1.0" encoding="utf-8" standalone="no"?>
<!DOCTYPE svg PUBLIC "-//W3C//DTD SVG 1.1//EN"
  "http://www.w3.org/Graphics/SVG/1.1/DTD/svg11.dtd">
<!-- Created with matplotlib (https://matplotlib.org/) -->
<svg height="302.4pt" version="1.1" viewBox="0 0 820.8 302.4" width="820.8pt" xmlns="http://www.w3.org/2000/svg" xmlns:xlink="http://www.w3.org/1999/xlink">
 <defs>
  <style type="text/css">
*{stroke-linecap:butt;stroke-linejoin:round;}
  </style>
 </defs>
 <g id="figure_1">
  <g id="patch_1">
   <path d="M 0 302.4 
L 820.8 302.4 
L 820.8 0 
L 0 0 
z
" style="fill:#ffffff;"/>
  </g>
  <g id="patch_2">
   <path d="M -30.6 262.8 
L 349.854545 262.8 
L 349.854545 -14.4 
L -30.6 -14.4 
z
" style="fill:#ffffff;"/>
  </g>
  <g id="pane3d_1">
   <g id="patch_3">
    <path d="M 19.835129 201.548569 
L 128.723211 133.58541 
L 126.910339 3.718968 
L 11.951034 64.782468 
" style="fill:#f2f2f2;opacity:0.5;stroke:#f2f2f2;stroke-linejoin:miter;"/>
   </g>
  </g>
  <g id="pane3d_2">
   <g id="patch_4">
    <path d="M 128.723211 133.58541 
L 305.111665 171.581202 
L 312.491547 37.79869 
L 126.910339 3.718968 
" style="fill:#e6e6e6;opacity:0.5;stroke:#e6e6e6;stroke-linejoin:miter;"/>
   </g>
  </g>
  <g id="pane3d_3">
   <g id="patch_5">
    <path d="M 19.835129 201.548569 
L 205.419617 245.80086 
L 305.111665 171.581202 
L 128.723211 133.58541 
" style="fill:#ececec;opacity:0.5;stroke:#ececec;stroke-linejoin:miter;"/>
   </g>
  </g>
  <g id="axis3d_1">
   <g id="line2d_1">
    <path d="M 19.835129 201.548569 
L 205.419617 245.80086 
" style="fill:none;stroke:#000000;stroke-linecap:square;stroke-width:0.8;"/>
   </g>
   <g id="Line3DCollection_1">
    <path d="M 42.295817 206.90428 
L 150.133942 138.19749 
L 149.393845 7.847789 
" style="fill:none;stroke:#b0b0b0;stroke-width:0.8;"/>
    <path d="M 87.512337 217.686079 
L 193.184014 147.470895 
L 194.636898 16.156123 
" style="fill:none;stroke:#b0b0b0;stroke-width:0.8;"/>
    <path d="M 133.765289 228.715013 
L 237.148096 156.941187 
L 240.890183 24.649974 
" style="fill:none;stroke:#b0b0b0;stroke-width:0.8;"/>
    <path d="M 181.090721 239.999678 
L 282.055608 166.614702 
L 288.187917 33.335625 
" style="fill:none;stroke:#b0b0b0;stroke-width:0.8;"/>
   </g>
   <g id="xtick_1">
    <g id="line2d_2">
     <path d="M 43.225084 206.312217 
L 40.433807 208.09062 
" style="fill:none;stroke:#000000;stroke-linecap:square;stroke-width:0.8;"/>
    </g>
    <g id="text_1">
     <!-- 00 -->
     <defs>
      <path d="M 42 31.84375 
C 42 37.96875 41.90625 48.421875 37.703125 56.453125 
C 34 63.484375 28.09375 66 22.90625 66 
C 18.09375 66 12 63.78125 8.203125 56.5625 
C 4.203125 49.015625 3.796875 39.671875 3.796875 31.84375 
C 3.796875 26.109375 3.90625 17.375 7 9.734375 
C 11.296875 -0.609375 19 -2 22.90625 -2 
C 27.5 -2 34.5 -0.109375 38.59375 9.4375 
C 41.59375 16.375 42 24.5 42 31.84375 
z
M 22.90625 -0.40625 
C 16.5 -0.40625 12.703125 5.125 11.296875 12.75 
C 10.203125 18.6875 10.203125 27.328125 10.203125 32.953125 
C 10.203125 40.6875 10.203125 47.109375 11.5 53.234375 
C 13.40625 61.78125 19 64.390625 22.90625 64.390625 
C 27 64.390625 32.296875 61.671875 34.203125 53.4375 
C 35.5 47.71875 35.59375 40.984375 35.59375 32.953125 
C 35.59375 26.421875 35.59375 18.375 34.40625 12.453125 
C 32.296875 1.5 26.40625 -0.40625 22.90625 -0.40625 
z
" id="CMR17-48"/>
     </defs>
     <g transform="translate(23.330362 237.14703)rotate(-45)scale(0.14 -0.14)">
      <use transform="scale(0.996264)" xlink:href="#CMR17-48"/>
      <use transform="translate(45.690477 0)scale(0.996264)" xlink:href="#CMR17-48"/>
     </g>
    </g>
   </g>
   <g id="xtick_2">
    <g id="line2d_3">
     <path d="M 88.423674 217.080527 
L 85.686217 218.899473 
" style="fill:none;stroke:#000000;stroke-linecap:square;stroke-width:0.8;"/>
    </g>
    <g id="text_2">
     <!-- 01 -->
     <defs>
      <path d="M 26.59375 63.796875 
C 26.59375 65.890625 26.5 66 25.09375 66 
C 21.203125 61.359375 15.296875 59.890625 9.703125 59.6875 
C 9.40625 59.6875 8.90625 59.6875 8.796875 59.5 
C 8.703125 59.296875 8.703125 59.09375 8.703125 57 
C 11.796875 57 17 57.59375 21 59.984375 
L 21 7.296875 
C 21 3.796875 20.796875 2.59375 12.203125 2.59375 
L 9.203125 2.59375 
L 9.203125 0 
C 14 0.09375 19 0.1875 23.796875 0.1875 
C 28.59375 0.1875 33.59375 0.09375 38.40625 0 
L 38.40625 2.59375 
L 35.40625 2.59375 
C 26.796875 2.59375 26.59375 3.6875 26.59375 7.296875 
z
" id="CMR17-49"/>
     </defs>
     <g transform="translate(68.542787 248.103782)rotate(-45)scale(0.14 -0.14)">
      <use transform="scale(0.996264)" xlink:href="#CMR17-48"/>
      <use transform="translate(45.690477 0)scale(0.996264)" xlink:href="#CMR17-49"/>
     </g>
    </g>
   </g>
   <g id="xtick_3">
    <g id="line2d_4">
     <path d="M 134.657625 228.095506 
L 131.977203 229.956397 
" style="fill:none;stroke:#000000;stroke-linecap:square;stroke-width:0.8;"/>
    </g>
    <g id="text_3">
     <!-- 10 -->
     <g transform="translate(114.7934 259.312128)rotate(-45)scale(0.14 -0.14)">
      <use transform="scale(0.996264)" xlink:href="#CMR17-49"/>
      <use transform="translate(45.690477 0)scale(0.996264)" xlink:href="#CMR17-48"/>
     </g>
    </g>
   </g>
   <g id="xtick_4">
    <g id="line2d_5">
     <path d="M 181.962926 239.365727 
L 179.342936 241.270032 
" style="fill:none;stroke:#000000;stroke-linecap:square;stroke-width:0.8;"/>
    </g>
    <g id="text_4">
     <!-- 11 -->
     <g transform="translate(162.118375 270.780834)rotate(-45)scale(0.14 -0.14)">
      <use transform="scale(0.996264)" xlink:href="#CMR17-49"/>
      <use transform="translate(45.690477 0)scale(0.996264)" xlink:href="#CMR17-49"/>
     </g>
    </g>
   </g>
  </g>
  <g id="axis3d_2">
   <g id="line2d_6">
    <path d="M 305.111665 171.581202 
L 205.419617 245.80086 
" style="fill:none;stroke:#000000;stroke-linecap:square;stroke-width:0.8;"/>
   </g>
   <g id="Line3DCollection_2">
    <path d="M 27.455231 56.547028 
L 34.471044 192.413474 
L 218.858418 235.795817 
" style="fill:none;stroke:#b0b0b0;stroke-width:0.8;"/>
    <path d="M 57.232024 40.730342 
L 62.623407 174.842005 
L 244.674037 216.576366 
" style="fill:none;stroke:#b0b0b0;stroke-width:0.8;"/>
    <path d="M 85.85589 25.526062 
L 89.739382 157.917404 
L 269.496985 198.095948 
" style="fill:none;stroke:#b0b0b0;stroke-width:0.8;"/>
    <path d="M 113.392516 10.899296 
L 115.875164 141.604597 
L 293.383438 180.312741 
" style="fill:none;stroke:#b0b0b0;stroke-width:0.8;"/>
   </g>
   <g id="xtick_5">
    <g id="line2d_7">
     <path d="M 217.315598 235.432825 
L 221.947489 236.522608 
" style="fill:none;stroke:#000000;stroke-linecap:square;stroke-width:0.8;"/>
    </g>
    <g id="text_5">
     <!-- 00 -->
     <g transform="translate(232.650369 248.348363)rotate(-337.5)scale(0.14 -0.14)">
      <use transform="scale(0.996264)" xlink:href="#CMR17-48"/>
      <use transform="translate(45.690477 0)scale(0.996264)" xlink:href="#CMR17-48"/>
     </g>
    </g>
   </g>
   <g id="xtick_6">
    <g id="line2d_8">
     <path d="M 243.15208 216.227463 
L 247.72127 217.274932 
" style="fill:none;stroke:#000000;stroke-linecap:square;stroke-width:0.8;"/>
    </g>
    <g id="text_6">
     <!-- 01 -->
     <g transform="translate(258.203921 228.903937)rotate(-337.5)scale(0.14 -0.14)">
      <use transform="scale(0.996264)" xlink:href="#CMR17-48"/>
      <use transform="translate(45.690477 0)scale(0.996264)" xlink:href="#CMR17-49"/>
     </g>
    </g>
   </g>
   <g id="xtick_7">
    <g id="line2d_9">
     <path d="M 267.995442 197.76033 
L 272.503283 198.767901 
" style="fill:none;stroke:#000000;stroke-linecap:square;stroke-width:0.8;"/>
    </g>
    <g id="text_7">
     <!-- 10 -->
     <g transform="translate(282.775332 210.206849)rotate(-337.5)scale(0.14 -0.14)">
      <use transform="scale(0.996264)" xlink:href="#CMR17-49"/>
      <use transform="translate(45.690477 0)scale(0.996264)" xlink:href="#CMR17-48"/>
     </g>
    </g>
   </g>
   <g id="xtick_8">
    <g id="line2d_10">
     <path d="M 291.901865 179.989663 
L 296.349691 180.959573 
" style="fill:none;stroke:#000000;stroke-linecap:square;stroke-width:0.8;"/>
    </g>
    <g id="text_8">
     <!-- 11 -->
     <g transform="translate(306.420159 192.214827)rotate(-337.5)scale(0.14 -0.14)">
      <use transform="scale(0.996264)" xlink:href="#CMR17-49"/>
      <use transform="translate(45.690477 0)scale(0.996264)" xlink:href="#CMR17-49"/>
     </g>
    </g>
   </g>
  </g>
  <g id="axis3d_3">
   <g id="line2d_11">
    <path d="M 305.111665 171.581202 
L 312.491547 37.79869 
" style="fill:none;stroke:#000000;stroke-linecap:square;stroke-width:0.8;"/>
   </g>
   <g id="text_9">
    <!-- Re[$\rho$] -->
    <defs>
     <path d="M 39.203125 33.6875 
C 48.703125 35.59375 56.703125 42.015625 56.703125 50.046875 
C 56.703125 59.46875 46.09375 68 32.09375 68 
L 5.203125 68 
L 5.203125 65.390625 
C 12.09375 65.390625 13.203125 65.390625 13.203125 60.875 
L 13.203125 6.6875 
C 13.203125 2.1875 12.09375 2.1875 5.203125 2.1875 
L 5.203125 -0.40625 
C 8.09375 -0.203125 13.296875 -0.203125 16.40625 -0.203125 
C 19.5 -0.203125 24.703125 -0.203125 27.59375 -0.40625 
L 27.59375 2.1875 
C 20.703125 2.1875 19.59375 2.1875 19.59375 6.6875 
L 19.59375 33 
L 31.296875 33 
C 37 33 40.203125 30.6875 41.59375 29.390625 
C 45.59375 25.5 45.59375 22.796875 45.59375 16 
C 45.59375 9.296875 45.59375 5.890625 48.59375 2.5 
C 52.40625 -1.609375 57.5 -2 59.703125 -2 
C 67.09375 -2 68.203125 6.296875 68.203125 8 
C 68.203125 8.59375 68.203125 9.296875 67.296875 9.296875 
C 66.5 9.296875 66.40625 8.6875 66.40625 8.296875 
C 65.90625 1.796875 63 -0.40625 59.90625 -0.40625 
C 54.40625 -0.40625 53.796875 5.890625 53.203125 12 
C 52.90625 14.09375 52.703125 15.59375 52.5 17.796875 
C 51.90625 22.796875 51.09375 30.09375 39.203125 33.6875 
z
M 31 34.59375 
L 19.59375 34.59375 
L 19.59375 61.484375 
C 19.59375 64.890625 19.796875 65.390625 23.796875 65.390625 
L 31.09375 65.390625 
C 39.40625 65.390625 49.09375 62.484375 49.09375 50.046875 
C 49.09375 37.09375 38.5 34.59375 31 34.59375 
z
" id="CMR17-82"/>
     <path d="M 38.09375 23.484375 
C 38.5 23.890625 38.5 24.09375 38.5 25.09375 
C 38.5 35.171875 33.09375 44 21.703125 44 
C 11.09375 44 2.703125 33.984375 2.703125 21.78125 
C 2.703125 8.65625 12.203125 -1 22.796875 -1 
C 34 -1 38.40625 9.671875 38.40625 11.796875 
C 38.40625 12.5 37.796875 12.5 37.59375 12.5 
C 36.90625 12.5 36.796875 12.296875 36.40625 11.078125 
C 34.203125 4.21875 28.703125 0.796875 23.5 0.796875 
C 19.203125 0.796875 14.90625 3.21875 12.203125 7.65625 
C 9.09375 12.796875 9.09375 18.75 9.09375 23.484375 
z
M 9.203125 25 
C 9.90625 39.234375 17.59375 42.390625 21.59375 42.390625 
C 28.40625 42.390625 33 36.0625 33.09375 25 
z
" id="CMR17-101"/>
     <path d="M 23.5 -25 
L 23.5 -21.5 
L 14.09375 -21.5 
L 14.09375 71.484375 
L 23.5 71.484375 
L 23.5 75 
L 10.59375 75 
L 10.59375 -25 
z
" id="CMR17-91"/>
     <path d="M 3.09375 -16.953125 
C 3 -17.4375 2.796875 -18.03125 2.796875 -18.609375 
C 2.796875 -20.109375 4 -21.109375 5.5 -21.109375 
C 7 -21.109375 8.40625 -20.109375 9 -18.71875 
C 9.40625 -17.828125 12.203125 -6.09375 15.40625 6.078125 
C 17.40625 1.09375 21.09375 -1 25 -1 
C 36.296875 -1 49.09375 12.96875 49.09375 28.03125 
C 49.09375 38.703125 42.59375 44 35.703125 44 
C 26.90625 44 16.203125 34.90625 12.90625 21.640625 
z
M 24.90625 1 
C 18.09375 1 16.40625 8.875 16.40625 10.078125 
C 16.40625 10.671875 18.90625 20.140625 19.203125 21.640625 
C 24.296875 41.5 34.09375 41.984375 35.59375 41.984375 
C 40.09375 41.984375 42.59375 37.90625 42.59375 32.015625 
C 42.59375 26.9375 39.90625 17.046875 38.203125 12.859375 
C 35.203125 5.984375 30 1 24.90625 1 
z
" id="CMMI12-26"/>
     <path d="M 14.296875 75 
L 1.40625 75 
L 1.40625 71.484375 
L 10.796875 71.484375 
L 10.796875 -21.5 
L 1.40625 -21.5 
L 1.40625 -25 
L 14.296875 -25 
z
" id="CMR17-93"/>
    </defs>
    <g transform="translate(352.486567 117.931831)rotate(-86.842577)scale(0.14 -0.14)">
     <use transform="scale(0.996264)" xlink:href="#CMR17-82"/>
     <use transform="translate(67.791102 0)scale(0.996264)" xlink:href="#CMR17-101"/>
     <use transform="translate(108.276762 0)scale(0.996264)" xlink:href="#CMR17-91"/>
     <use transform="translate(133.147821 0)scale(0.996264)" xlink:href="#CMMI12-26"/>
     <use transform="translate(183.462194 0)scale(0.996264)" xlink:href="#CMR17-93"/>
    </g>
   </g>
   <g id="Line3DCollection_3">
    <path d="M 305.291823 168.315301 
L 128.678861 130.408364 
L 19.642985 198.215436 
" style="fill:none;stroke:#b0b0b0;stroke-width:0.8;"/>
    <path d="M 307.27538 132.357371 
L 128.190874 95.451086 
L 17.526395 161.498747 
" style="fill:none;stroke:#b0b0b0;stroke-width:0.8;"/>
    <path d="M 309.315737 95.369777 
L 127.689511 59.5355 
L 15.347151 123.695216 
" style="fill:none;stroke:#b0b0b0;stroke-width:0.8;"/>
    <path d="M 311.415369 57.307651 
L 127.174212 22.621655 
L 13.102431 84.755858 
" style="fill:none;stroke:#b0b0b0;stroke-width:0.8;"/>
   </g>
   <g id="xtick_9">
    <g id="line2d_12">
     <path d="M 303.818223 167.999018 
L 308.242089 168.948525 
" style="fill:none;stroke:#000000;stroke-linecap:square;stroke-width:0.8;"/>
    </g>
    <g id="text_10">
     <!-- $0.0$ -->
     <defs>
      <path d="M 18.40625 4.796875 
C 18.40625 7.6875 16 9.6875 13.59375 9.6875 
C 10.703125 9.6875 8.703125 7.296875 8.703125 4.890625 
C 8.703125 2 11.09375 0 13.5 0 
C 16.40625 0 18.40625 2.390625 18.40625 4.796875 
z
" id="CMMI12-58"/>
     </defs>
     <g transform="translate(315.099468 176.061253)scale(0.14 -0.14)">
      <use transform="scale(0.996264)" xlink:href="#CMR17-48"/>
      <use transform="translate(45.690477 0)scale(0.996264)" xlink:href="#CMMI12-58"/>
      <use transform="translate(72.787654 0)scale(0.996264)" xlink:href="#CMR17-48"/>
     </g>
    </g>
   </g>
   <g id="xtick_10">
    <g id="line2d_13">
     <path d="M 305.78029 132.049258 
L 310.268716 132.974246 
" style="fill:none;stroke:#000000;stroke-linecap:square;stroke-width:0.8;"/>
    </g>
    <g id="text_11">
     <!-- $0.1$ -->
     <g transform="translate(317.339789 140.153481)scale(0.14 -0.14)">
      <use transform="scale(0.996264)" xlink:href="#CMR17-48"/>
      <use transform="translate(45.690477 0)scale(0.996264)" xlink:href="#CMMI12-58"/>
      <use transform="translate(72.787654 0)scale(0.996264)" xlink:href="#CMR17-49"/>
     </g>
    </g>
   </g>
   <g id="xtick_11">
    <g id="line2d_14">
     <path d="M 307.798521 95.070435 
L 312.353416 95.969102 
" style="fill:none;stroke:#000000;stroke-linecap:square;stroke-width:0.8;"/>
    </g>
    <g id="text_12">
     <!-- $0.2$ -->
     <defs>
      <path d="M 41.703125 15.46875 
L 39.90625 15.46875 
C 38.90625 8.390625 38.09375 7.1875 37.703125 6.59375 
C 37.203125 5.796875 30 5.796875 28.59375 5.796875 
L 9.40625 5.796875 
C 13 9.6875 20 16.765625 28.5 24.9375 
C 34.59375 30.71875 41.703125 37.5 41.703125 47.390625 
C 41.703125 59.1875 32.296875 66 21.796875 66 
C 10.796875 66 4.09375 56.296875 4.09375 47.296875 
C 4.09375 43.390625 7 42.890625 8.203125 42.890625 
C 9.203125 42.890625 12.203125 43.484375 12.203125 46.984375 
C 12.203125 50.09375 9.59375 51 8.203125 51 
C 7.59375 51 7 50.890625 6.59375 50.6875 
C 8.5 59.1875 14.296875 63.390625 20.40625 63.390625 
C 29.09375 63.390625 34.796875 56.5 34.796875 47.390625 
C 34.796875 38.703125 29.703125 31.21875 24 24.734375 
L 4.09375 2.296875 
L 4.09375 0 
L 39.296875 0 
z
" id="CMR17-50"/>
     </defs>
     <g transform="translate(319.644122 103.21973)scale(0.14 -0.14)">
      <use transform="scale(0.996264)" xlink:href="#CMR17-48"/>
      <use transform="translate(45.690477 0)scale(0.996264)" xlink:href="#CMMI12-58"/>
      <use transform="translate(72.787654 0)scale(0.996264)" xlink:href="#CMR17-50"/>
     </g>
    </g>
   </g>
   <g id="xtick_12">
    <g id="line2d_15">
     <path d="M 309.875363 57.017723 
L 314.498724 57.888136 
" style="fill:none;stroke:#000000;stroke-linecap:square;stroke-width:0.8;"/>
    </g>
    <g id="text_13">
     <!-- $0.3$ -->
     <defs>
      <path d="M 22.09375 34 
C 31 34 34.90625 26.140625 34.90625 17.09375 
C 34.90625 5.03125 28.5 0.390625 22.703125 0.390625 
C 17.40625 0.390625 8.796875 3.015625 6.09375 10.796875 
C 6.59375 10.59375 7.09375 10.59375 7.59375 10.59375 
C 10 10.59375 11.796875 12.1875 11.796875 14.796875 
C 11.796875 17.6875 9.59375 19 7.59375 19 
C 5.90625 19 3.296875 18.1875 3.296875 14.484375 
C 3.296875 5.234375 12.296875 -2 22.90625 -2 
C 34 -2 42.5 6.75 42.5 16.984375 
C 42.5 26.84375 34.5 34 25 35.09375 
C 32.59375 36.671875 39.90625 43.375 39.90625 52.390625 
C 39.90625 60.25 32 66 23 66 
C 13.90625 66 5.90625 60.34375 5.90625 52.296875 
C 5.90625 48.796875 8.5 48.1875 9.796875 48.1875 
C 11.90625 48.1875 13.703125 49.484375 13.703125 52.09375 
C 13.703125 54.6875 11.90625 56 9.796875 56 
C 9.40625 56 8.90625 56 8.5 55.796875 
C 11.40625 62.484375 19.296875 63.6875 22.796875 63.6875 
C 26.296875 63.6875 32.90625 61.96875 32.90625 52.296875 
C 32.90625 49.484375 32.5 44.546875 29.09375 40.21875 
C 26.09375 36.390625 22.703125 36.1875 19.40625 35.890625 
C 18.90625 35.890625 16.59375 35.6875 16.203125 35.6875 
C 15.5 35.59375 15.09375 35.5 15.09375 34.796875 
C 15.09375 34.09375 15.203125 34 17.203125 34 
z
" id="CMR17-51"/>
     </defs>
     <g transform="translate(322.01525 65.21539)scale(0.14 -0.14)">
      <use transform="scale(0.996264)" xlink:href="#CMR17-48"/>
      <use transform="translate(45.690477 0)scale(0.996264)" xlink:href="#CMMI12-58"/>
      <use transform="translate(72.787654 0)scale(0.996264)" xlink:href="#CMR17-51"/>
     </g>
    </g>
   </g>
  </g>
  <g id="axes_1">
   <g id="Poly3DCollection_1">
    <path clip-path="url(#pfc4db19858)" d="M 133.043074 136.771068 
L 133.030531 135.751492 
L 154.431742 140.368014 
L 154.435848 141.391101 
z
" style="fill:#5d0618;fill-opacity:0.8;"/>
    <path clip-path="url(#pfc4db19858)" d="M 120.258854 144.804023 
L 120.241097 143.778356 
L 133.030531 135.751492 
L 133.043074 136.771068 
z
" style="fill:#ba0c2f;fill-opacity:0.8;"/>
    <path clip-path="url(#pfc4db19858)" d="M 120.258854 144.804023 
L 133.043074 136.771068 
L 154.435848 141.391101 
L 141.780005 149.508876 
z
" style="fill:#74081d;fill-opacity:0.8;"/>
    <path clip-path="url(#pfc4db19858)" d="M 120.241097 143.778356 
L 141.770785 148.479668 
L 154.431742 140.368014 
L 133.030531 135.751492 
z
" style="fill:#a30a29;fill-opacity:0.8;"/>
    <path clip-path="url(#pfc4db19858)" d="M 141.780005 149.508876 
L 154.435848 141.391101 
L 154.431742 140.368014 
L 141.770785 148.479668 
z
" style="fill:#5d0618;fill-opacity:0.8;"/>
    <path clip-path="url(#pfc4db19858)" d="M 120.258854 144.804023 
L 141.780005 149.508876 
L 141.770785 148.479668 
L 120.241097 143.778356 
z
" style="fill:#ba0c2f;fill-opacity:0.8;"/>
   </g>
   <g id="Poly3DCollection_2">
    <path clip-path="url(#pfc4db19858)" d="M 176.054072 146.059822 
L 176.050954 146.769767 
L 197.892125 151.4904 
L 197.901327 150.778005 
z
" style="fill:#ba0c2f;fill-opacity:0.8;"/>
    <path clip-path="url(#pfc4db19858)" d="M 163.530047 154.263769 
L 163.530392 154.977964 
L 176.050954 146.769767 
L 176.054072 146.059822 
z
" style="fill:#5d0618;fill-opacity:0.8;"/>
    <path clip-path="url(#pfc4db19858)" d="M 163.530392 154.977964 
L 185.506836 159.786168 
L 197.892125 151.4904 
L 176.050954 146.769767 
z
" style="fill:#a30a29;fill-opacity:0.8;"/>
    <path clip-path="url(#pfc4db19858)" d="M 163.530047 154.263769 
L 176.054072 146.059822 
L 197.901327 150.778005 
L 185.51265 159.069503 
z
" style="fill:#74081d;fill-opacity:0.8;"/>
    <path clip-path="url(#pfc4db19858)" d="M 185.51265 159.069503 
L 197.901327 150.778005 
L 197.892125 151.4904 
L 185.506836 159.786168 
z
" style="fill:#ba0c2f;fill-opacity:0.8;"/>
    <path clip-path="url(#pfc4db19858)" d="M 163.530047 154.263769 
L 185.51265 159.069503 
L 185.506836 159.786168 
L 163.530392 154.977964 
z
" style="fill:#5d0618;fill-opacity:0.8;"/>
   </g>
   <g id="Poly3DCollection_3">
    <path clip-path="url(#pfc4db19858)" d="M 107.239466 152.984746 
L 107.050657 144.573907 
L 128.771729 149.336699 
L 128.890112 157.776778 
z
" style="fill:#5d0618;fill-opacity:0.8;"/>
    <path clip-path="url(#pfc4db19858)" d="M 93.97836 161.317353 
L 93.743865 152.855779 
L 107.050657 144.573907 
L 107.239466 152.984746 
z
" style="fill:#ba0c2f;fill-opacity:0.8;"/>
    <path clip-path="url(#pfc4db19858)" d="M 93.97836 161.317353 
L 107.239466 152.984746 
L 128.890112 157.776778 
L 115.759615 166.199008 
z
" style="fill:#74081d;fill-opacity:0.8;"/>
    <path clip-path="url(#pfc4db19858)" d="M 93.743865 152.855779 
L 115.596393 157.707945 
L 128.771729 149.336699 
L 107.050657 144.573907 
z
" style="fill:#a30a29;fill-opacity:0.8;"/>
    <path clip-path="url(#pfc4db19858)" d="M 115.759615 166.199008 
L 128.890112 157.776778 
L 128.771729 149.336699 
L 115.596393 157.707945 
z
" style="fill:#5d0618;fill-opacity:0.8;"/>
    <path clip-path="url(#pfc4db19858)" d="M 93.97836 161.317353 
L 115.759615 166.199008 
L 115.596393 157.707945 
L 93.743865 152.855779 
z
" style="fill:#ba0c2f;fill-opacity:0.8;"/>
   </g>
   <g id="Poly3DCollection_4">
    <path clip-path="url(#pfc4db19858)" d="M 219.981273 155.546441 
L 220.072006 151.339204 
L 242.425738 156.144099 
L 242.297648 160.365937 
z
" style="fill:#5d0618;fill-opacity:0.8;"/>
    <path clip-path="url(#pfc4db19858)" d="M 207.731566 163.926898 
L 207.802828 159.694328 
L 220.072006 151.339204 
L 219.981273 155.546441 
z
" style="fill:#ba0c2f;fill-opacity:0.8;"/>
    <path clip-path="url(#pfc4db19858)" d="M 207.731566 163.926898 
L 219.981273 155.546441 
L 242.297648 160.365937 
L 230.190626 168.836792 
z
" style="fill:#74081d;fill-opacity:0.8;"/>
    <path clip-path="url(#pfc4db19858)" d="M 207.802828 159.694328 
L 230.299726 164.589499 
L 242.425738 156.144099 
L 220.072006 151.339204 
z
" style="fill:#a30a29;fill-opacity:0.8;"/>
    <path clip-path="url(#pfc4db19858)" d="M 230.190626 168.836792 
L 242.297648 160.365937 
L 242.425738 156.144099 
L 230.299726 164.589499 
z
" style="fill:#5d0618;fill-opacity:0.8;"/>
    <path clip-path="url(#pfc4db19858)" d="M 207.731566 163.926898 
L 230.190626 168.836792 
L 230.299726 164.589499 
L 207.802828 159.694328 
z
" style="fill:#ba0c2f;fill-opacity:0.8;"/>
   </g>
   <g id="Poly3DCollection_5">
    <path clip-path="url(#pfc4db19858)" d="M 150.773166 162.620249 
L 150.776524 163.232792 
L 172.890432 168.13066 
L 172.892392 167.515993 
z
" style="fill:#ba0c2f;fill-opacity:0.8;"/>
    <path clip-path="url(#pfc4db19858)" d="M 137.776875 171.133557 
L 137.783412 171.749784 
L 150.776524 163.232792 
L 150.773166 162.620249 
z
" style="fill:#5d0618;fill-opacity:0.8;"/>
    <path clip-path="url(#pfc4db19858)" d="M 137.783412 171.749784 
L 160.03515 176.740232 
L 172.890432 168.13066 
L 150.776524 163.232792 
z
" style="fill:#a30a29;fill-opacity:0.8;"/>
    <path clip-path="url(#pfc4db19858)" d="M 137.776875 171.133557 
L 150.773166 162.620249 
L 172.892392 167.515993 
L 160.033997 176.121864 
z
" style="fill:#74081d;fill-opacity:0.8;"/>
    <path clip-path="url(#pfc4db19858)" d="M 160.033997 176.121864 
L 172.892392 167.515993 
L 172.890432 168.13066 
L 160.03515 176.740232 
z
" style="fill:#ba0c2f;fill-opacity:0.8;"/>
    <path clip-path="url(#pfc4db19858)" d="M 137.776875 171.133557 
L 160.033997 176.121864 
L 160.03515 176.740232 
L 137.783412 171.749784 
z
" style="fill:#5d0618;fill-opacity:0.8;"/>
   </g>
   <g id="Poly3DCollection_6">
    <path clip-path="url(#pfc4db19858)" d="M 80.468742 169.806112 
L 80.233092 162.68931 
L 102.206369 167.638288 
L 102.381715 174.779929 
z
" style="fill:#5d0618;fill-opacity:0.8;"/>
    <path clip-path="url(#pfc4db19858)" d="M 66.703559 178.455455 
L 66.426829 171.295556 
L 80.233092 162.68931 
L 80.468742 169.806112 
z
" style="fill:#ba0c2f;fill-opacity:0.8;"/>
    <path clip-path="url(#pfc4db19858)" d="M 66.703559 178.455455 
L 80.468742 169.806112 
L 102.381715 174.779929 
L 88.749353 183.524068 
z
" style="fill:#74081d;fill-opacity:0.8;"/>
    <path clip-path="url(#pfc4db19858)" d="M 66.426829 171.295556 
L 88.533654 176.339125 
L 102.206369 167.638288 
L 80.233092 162.68931 
z
" style="fill:#a30a29;fill-opacity:0.8;"/>
    <path clip-path="url(#pfc4db19858)" d="M 88.749353 183.524068 
L 102.381715 174.779929 
L 102.206369 167.638288 
L 88.533654 176.339125 
z
" style="fill:#5d0618;fill-opacity:0.8;"/>
    <path clip-path="url(#pfc4db19858)" d="M 66.703559 178.455455 
L 88.749353 183.524068 
L 88.533654 176.339125 
L 66.426829 171.295556 
z
" style="fill:#ba0c2f;fill-opacity:0.8;"/>
   </g>
   <g id="Poly3DCollection_7">
    <path clip-path="url(#pfc4db19858)" d="M 240.705959 182.525464 
L 240.834496 178.237586 
L 263.97773 183.336132 
L 263.80916 187.638995 
z
" style="fill:#5d0618;fill-opacity:0.8;"/>
    <path clip-path="url(#pfc4db19858)" d="M 228.284378 191.418265 
L 228.392923 187.104387 
L 240.834496 178.237586 
L 240.705959 182.525464 
z
" style="fill:#ba0c2f;fill-opacity:0.8;"/>
    <path clip-path="url(#pfc4db19858)" d="M 228.284378 191.418265 
L 240.705959 182.525464 
L 263.80916 187.638995 
L 251.541238 196.630635 
z
" style="fill:#74081d;fill-opacity:0.8;"/>
    <path clip-path="url(#pfc4db19858)" d="M 228.392923 187.104387 
L 251.690354 192.301652 
L 263.97773 183.336132 
L 240.834496 178.237586 
z
" style="fill:#a30a29;fill-opacity:0.8;"/>
    <path clip-path="url(#pfc4db19858)" d="M 251.541238 196.630635 
L 263.80916 187.638995 
L 263.97773 183.336132 
L 251.690354 192.301652 
z
" style="fill:#5d0618;fill-opacity:0.8;"/>
    <path clip-path="url(#pfc4db19858)" d="M 228.284378 191.418265 
L 251.541238 196.630635 
L 251.690354 192.301652 
L 228.392923 187.104387 
z
" style="fill:#ba0c2f;fill-opacity:0.8;"/>
   </g>
   <g id="Poly3DCollection_8">
    <path clip-path="url(#pfc4db19858)" d="M 252.893742 173.800041 
L 264.854269 165.237316 
L 287.655036 170.161422 
L 275.844917 178.81752 
z
" style="fill:#74081d;fill-opacity:0.8;"/>
    <path clip-path="url(#pfc4db19858)" d="M 264.854269 165.237316 
L 267.447525 99.15337 
L 290.856749 103.838814 
L 287.655036 170.161422 
z
" style="fill:#5d0618;fill-opacity:0.8;"/>
    <path clip-path="url(#pfc4db19858)" d="M 252.893742 173.800041 
L 255.199148 107.301922 
L 267.447525 99.15337 
L 264.854269 165.237316 
z
" style="fill:#ba0c2f;fill-opacity:0.8;"/>
    <path clip-path="url(#pfc4db19858)" d="M 275.844917 178.81752 
L 287.655036 170.161422 
L 290.856749 103.838814 
L 278.76703 112.078555 
z
" style="fill:#5d0618;fill-opacity:0.8;"/>
    <path clip-path="url(#pfc4db19858)" d="M 252.893742 173.800041 
L 275.844917 178.81752 
L 278.76703 112.078555 
L 255.199148 107.301922 
z
" style="fill:#ba0c2f;fill-opacity:0.8;"/>
    <path clip-path="url(#pfc4db19858)" d="M 255.199148 107.301922 
L 278.76703 112.078555 
L 290.856749 103.838814 
L 267.447525 99.15337 
z
" style="fill:#a30a29;fill-opacity:0.8;"/>
   </g>
   <g id="Poly3DCollection_9">
    <path clip-path="url(#pfc4db19858)" d="M 169.574627 190.031406 
L 169.573439 190.655676 
L 192.463517 195.854748 
L 192.470402 195.2283 
z
" style="fill:#ba0c2f;fill-opacity:0.8;"/>
    <path clip-path="url(#pfc4db19858)" d="M 156.363686 199.069477 
L 156.365783 199.697527 
L 169.573439 190.655676 
L 169.574627 190.031406 
z
" style="fill:#5d0618;fill-opacity:0.8;"/>
    <path clip-path="url(#pfc4db19858)" d="M 156.365783 199.697527 
L 179.404259 204.997893 
L 192.463517 195.854748 
L 169.573439 190.655676 
z
" style="fill:#a30a29;fill-opacity:0.8;"/>
    <path clip-path="url(#pfc4db19858)" d="M 156.363686 199.069477 
L 169.574627 190.031406 
L 192.470402 195.2283 
L 179.407933 204.367648 
z
" style="fill:#74081d;fill-opacity:0.8;"/>
    <path clip-path="url(#pfc4db19858)" d="M 179.407933 204.367648 
L 192.470402 195.2283 
L 192.463517 195.854748 
L 179.404259 204.997893 
z
" style="fill:#ba0c2f;fill-opacity:0.8;"/>
    <path clip-path="url(#pfc4db19858)" d="M 156.363686 199.069477 
L 179.407933 204.367648 
L 179.404259 204.997893 
L 156.365783 199.697527 
z
" style="fill:#5d0618;fill-opacity:0.8;"/>
   </g>
   <g id="Poly3DCollection_10">
    <path clip-path="url(#pfc4db19858)" d="M 97.282191 197.659871 
L 97.087778 190.405909 
L 119.830818 195.66274 
L 119.960625 202.942182 
z
" style="fill:#5d0618;fill-opacity:0.8;"/>
    <path clip-path="url(#pfc4db19858)" d="M 83.257558 206.846802 
L 83.020447 199.548635 
L 97.087778 190.405909 
L 97.282191 197.659871 
z
" style="fill:#ba0c2f;fill-opacity:0.8;"/>
    <path clip-path="url(#pfc4db19858)" d="M 83.257558 206.846802 
L 97.282191 197.659871 
L 119.960625 202.942182 
L 106.078958 212.232908 
z
" style="fill:#74081d;fill-opacity:0.8;"/>
    <path clip-path="url(#pfc4db19858)" d="M 83.020447 199.548635 
L 105.907264 204.909064 
L 119.830818 195.66274 
L 97.087778 190.405909 
z
" style="fill:#a30a29;fill-opacity:0.8;"/>
    <path clip-path="url(#pfc4db19858)" d="M 106.078958 212.232908 
L 119.960625 202.942182 
L 119.830818 195.66274 
L 105.907264 204.909064 
z
" style="fill:#5d0618;fill-opacity:0.8;"/>
    <path clip-path="url(#pfc4db19858)" d="M 83.257558 206.846802 
L 106.078958 212.232908 
L 105.907264 204.909064 
L 83.020447 199.548635 
z
" style="fill:#ba0c2f;fill-opacity:0.8;"/>
   </g>
   <g id="Poly3DCollection_11">
    <path clip-path="url(#pfc4db19858)" d="M 215.622209 200.483307 
L 215.607301 201.220664 
L 239.012472 206.537345 
L 239.034366 205.797409 
z
" style="fill:#ba0c2f;fill-opacity:0.8;"/>
    <path clip-path="url(#pfc4db19858)" d="M 202.712392 209.725644 
L 202.70116 210.467474 
L 215.607301 201.220664 
L 215.622209 200.483307 
z
" style="fill:#5d0618;fill-opacity:0.8;"/>
    <path clip-path="url(#pfc4db19858)" d="M 202.70116 210.467474 
L 226.263183 215.888913 
L 239.012472 206.537345 
L 215.607301 201.220664 
z
" style="fill:#a30a29;fill-opacity:0.8;"/>
    <path clip-path="url(#pfc4db19858)" d="M 202.712392 209.725644 
L 215.622209 200.483307 
L 239.034366 205.797409 
L 226.281496 215.144486 
z
" style="fill:#74081d;fill-opacity:0.8;"/>
    <path clip-path="url(#pfc4db19858)" d="M 226.281496 215.144486 
L 239.034366 205.797409 
L 239.012472 206.537345 
L 226.263183 215.888913 
z
" style="fill:#ba0c2f;fill-opacity:0.8;"/>
    <path clip-path="url(#pfc4db19858)" d="M 202.712392 209.725644 
L 226.281496 215.144486 
L 226.263183 215.888913 
L 202.70116 210.467474 
z
" style="fill:#5d0618;fill-opacity:0.8;"/>
   </g>
   <g id="Poly3DCollection_12">
    <path clip-path="url(#pfc4db19858)" d="M 111.038588 188.648651 
L 124.53437 179.808148 
L 146.93066 184.891668 
L 133.575317 193.830137 
z
" style="fill:#74081d;fill-opacity:0.8;"/>
    <path clip-path="url(#pfc4db19858)" d="M 124.53437 179.808148 
L 123.477877 113.218629 
L 146.459619 118.060543 
L 146.93066 184.891668 
z
" style="fill:#5d0618;fill-opacity:0.8;"/>
    <path clip-path="url(#pfc4db19858)" d="M 111.038588 188.648651 
L 109.613864 121.639866 
L 123.477877 113.218629 
L 124.53437 179.808148 
z
" style="fill:#ba0c2f;fill-opacity:0.8;"/>
    <path clip-path="url(#pfc4db19858)" d="M 133.575317 193.830137 
L 146.93066 184.891668 
L 146.459619 118.060543 
L 132.743471 126.577582 
z
" style="fill:#5d0618;fill-opacity:0.8;"/>
    <path clip-path="url(#pfc4db19858)" d="M 111.038588 188.648651 
L 133.575317 193.830137 
L 132.743471 126.577582 
L 109.613864 121.639866 
z
" style="fill:#ba0c2f;fill-opacity:0.8;"/>
    <path clip-path="url(#pfc4db19858)" d="M 109.613864 121.639866 
L 132.743471 126.577582 
L 146.459619 118.060543 
L 123.477877 113.218629 
z
" style="fill:#a30a29;fill-opacity:0.8;"/>
   </g>
   <g id="Poly3DCollection_13">
    <path clip-path="url(#pfc4db19858)" d="M 142.894754 208.284049 
L 142.818527 199.545951 
L 166.093554 204.917609 
L 166.088927 213.686486 
z
" style="fill:#5d0618;fill-opacity:0.8;"/>
    <path clip-path="url(#pfc4db19858)" d="M 129.160201 217.680341 
L 129.034883 208.888847 
L 142.818527 199.545951 
L 142.894754 208.284049 
z
" style="fill:#ba0c2f;fill-opacity:0.8;"/>
    <path clip-path="url(#pfc4db19858)" d="M 129.160201 217.680341 
L 142.894754 208.284049 
L 166.088927 213.686486 
L 152.505752 223.190153 
z
" style="fill:#74081d;fill-opacity:0.8;"/>
    <path clip-path="url(#pfc4db19858)" d="M 129.034883 208.888847 
L 152.462347 214.367647 
L 166.093554 204.917609 
L 142.818527 199.545951 
z
" style="fill:#a30a29;fill-opacity:0.8;"/>
    <path clip-path="url(#pfc4db19858)" d="M 152.505752 223.190153 
L 166.088927 213.686486 
L 166.093554 204.917609 
L 152.462347 214.367647 
z
" style="fill:#5d0618;fill-opacity:0.8;"/>
    <path clip-path="url(#pfc4db19858)" d="M 129.160201 217.680341 
L 152.505752 223.190153 
L 152.462347 214.367647 
L 129.034883 208.888847 
z
" style="fill:#ba0c2f;fill-opacity:0.8;"/>
   </g>
   <g id="Poly3DCollection_14">
    <path clip-path="url(#pfc4db19858)" d="M 182.534921 181.164812 
L 195.251633 172.464861 
L 217.854817 177.467721 
L 205.283676 186.263305 
z
" style="fill:#74081d;fill-opacity:0.8;"/>
    <path clip-path="url(#pfc4db19858)" d="M 195.251633 172.464861 
L 196.555813 63.654875 
L 220.138968 68.253887 
L 217.854817 177.467721 
z
" style="fill:#5d0618;fill-opacity:0.8;"/>
    <path clip-path="url(#pfc4db19858)" d="M 182.534921 181.164812 
L 183.302555 71.653916 
L 196.555813 63.654875 
L 195.251633 172.464861 
z
" style="fill:#ba0c2f;fill-opacity:0.8;"/>
    <path clip-path="url(#pfc4db19858)" d="M 205.283676 186.263305 
L 217.854817 177.467721 
L 220.138968 68.253887 
L 207.044277 76.344668 
z
" style="fill:#5d0618;fill-opacity:0.8;"/>
    <path clip-path="url(#pfc4db19858)" d="M 182.534921 181.164812 
L 205.283676 186.263305 
L 207.044277 76.344668 
L 183.302555 71.653916 
z
" style="fill:#ba0c2f;fill-opacity:0.8;"/>
    <path clip-path="url(#pfc4db19858)" d="M 183.302555 71.653916 
L 207.044277 76.344668 
L 220.138968 68.253887 
L 196.555813 63.654875 
z
" style="fill:#a30a29;fill-opacity:0.8;"/>
   </g>
   <g id="Poly3DCollection_15">
    <path clip-path="url(#pfc4db19858)" d="M 189.547591 219.150529 
L 189.558303 218.071231 
L 213.296387 223.594151 
L 213.275296 224.677237 
z
" style="fill:#5d0618;fill-opacity:0.8;"/>
    <path clip-path="url(#pfc4db19858)" d="M 176.120175 228.763423 
L 176.125132 227.677553 
L 189.558303 218.071231 
L 189.547591 219.150529 
z
" style="fill:#ba0c2f;fill-opacity:0.8;"/>
    <path clip-path="url(#pfc4db19858)" d="M 176.120175 228.763423 
L 189.547591 219.150529 
L 213.275296 224.677237 
L 200.008144 234.401251 
z
" style="fill:#74081d;fill-opacity:0.8;"/>
    <path clip-path="url(#pfc4db19858)" d="M 176.125132 227.677553 
L 200.023619 233.311565 
L 213.296387 223.594151 
L 189.558303 218.071231 
z
" style="fill:#a30a29;fill-opacity:0.8;"/>
    <path clip-path="url(#pfc4db19858)" d="M 200.008144 234.401251 
L 213.275296 224.677237 
L 213.296387 223.594151 
L 200.023619 233.311565 
z
" style="fill:#5d0618;fill-opacity:0.8;"/>
    <path clip-path="url(#pfc4db19858)" d="M 176.120175 228.763423 
L 200.008144 234.401251 
L 200.023619 233.311565 
L 176.125132 227.677553 
z
" style="fill:#ba0c2f;fill-opacity:0.8;"/>
   </g>
   <g id="Poly3DCollection_16">
    <path clip-path="url(#pfc4db19858)" d="M 25.539206 197.598252 
L 203.747984 239.853665 
L 299.756508 168.894707 
L 130.043665 132.39815 
z
" style="fill-opacity:0.15;"/>
   </g>
   <g id="Poly3DCollection_17">
    <path clip-path="url(#pfc4db19858)" d="M 38.376932 196.25447 
L 52.67549 187.269982 
L 74.855199 192.436128 
L 60.691638 201.520991 
z
" style="fill:#74081d;fill-opacity:0.8;"/>
    <path clip-path="url(#pfc4db19858)" d="M 52.67549 187.269982 
L 46.933544 57.750519 
L 70.222556 62.427839 
L 74.855199 192.436128 
z
" style="fill:#5d0618;fill-opacity:0.8;"/>
    <path clip-path="url(#pfc4db19858)" d="M 38.376932 196.25447 
L 31.836896 65.886594 
L 46.933544 57.750519 
L 52.67549 187.269982 
z
" style="fill:#ba0c2f;fill-opacity:0.8;"/>
    <path clip-path="url(#pfc4db19858)" d="M 60.691638 201.520991 
L 74.855199 192.436128 
L 70.222556 62.427839 
L 55.274545 70.659531 
z
" style="fill:#5d0618;fill-opacity:0.8;"/>
    <path clip-path="url(#pfc4db19858)" d="M 38.376932 196.25447 
L 60.691638 201.520991 
L 55.274545 70.659531 
L 31.836896 65.886594 
z
" style="fill:#ba0c2f;fill-opacity:0.8;"/>
    <path clip-path="url(#pfc4db19858)" d="M 31.836896 65.886594 
L 55.274545 70.659531 
L 70.222556 62.427839 
L 46.933544 57.750519 
z
" style="fill:#a30a29;fill-opacity:0.8;"/>
   </g>
  </g>
  <g id="patch_6">
   <path d="M 425.945455 262.8 
L 806.4 262.8 
L 806.4 -14.4 
L 425.945455 -14.4 
z
" style="fill:#ffffff;"/>
  </g>
  <g id="pane3d_4">
   <g id="patch_7">
    <path d="M 476.380584 201.548569 
L 585.268665 133.58541 
L 583.455794 3.718968 
L 468.496488 64.782468 
" style="fill:#f2f2f2;opacity:0.5;stroke:#f2f2f2;stroke-linejoin:miter;"/>
   </g>
  </g>
  <g id="pane3d_5">
   <g id="patch_8">
    <path d="M 585.268665 133.58541 
L 761.65712 171.581202 
L 769.037001 37.79869 
L 583.455794 3.718968 
" style="fill:#e6e6e6;opacity:0.5;stroke:#e6e6e6;stroke-linejoin:miter;"/>
   </g>
  </g>
  <g id="pane3d_6">
   <g id="patch_9">
    <path d="M 476.380584 201.548569 
L 661.965072 245.80086 
L 761.65712 171.581202 
L 585.268665 133.58541 
" style="fill:#ececec;opacity:0.5;stroke:#ececec;stroke-linejoin:miter;"/>
   </g>
  </g>
  <g id="axis3d_4">
   <g id="line2d_16">
    <path d="M 476.380584 201.548569 
L 661.965072 245.80086 
" style="fill:none;stroke:#000000;stroke-linecap:square;stroke-width:0.8;"/>
   </g>
   <g id="Line3DCollection_4">
    <path d="M 498.841271 206.90428 
L 606.679397 138.19749 
L 605.9393 7.847789 
" style="fill:none;stroke:#b0b0b0;stroke-width:0.8;"/>
    <path d="M 544.057792 217.686079 
L 649.729469 147.470895 
L 651.182353 16.156123 
" style="fill:none;stroke:#b0b0b0;stroke-width:0.8;"/>
    <path d="M 590.310744 228.715013 
L 693.693551 156.941187 
L 697.435637 24.649974 
" style="fill:none;stroke:#b0b0b0;stroke-width:0.8;"/>
    <path d="M 637.636176 239.999678 
L 738.601063 166.614702 
L 744.733372 33.335625 
" style="fill:none;stroke:#b0b0b0;stroke-width:0.8;"/>
   </g>
   <g id="xtick_13">
    <g id="line2d_17">
     <path d="M 499.770538 206.312217 
L 496.979262 208.09062 
" style="fill:none;stroke:#000000;stroke-linecap:square;stroke-width:0.8;"/>
    </g>
    <g id="text_14">
     <!-- 00 -->
     <g transform="translate(479.875817 237.14703)rotate(-45)scale(0.14 -0.14)">
      <use transform="scale(0.996264)" xlink:href="#CMR17-48"/>
      <use transform="translate(45.690477 0)scale(0.996264)" xlink:href="#CMR17-48"/>
     </g>
    </g>
   </g>
   <g id="xtick_14">
    <g id="line2d_18">
     <path d="M 544.969128 217.080527 
L 542.231671 218.899473 
" style="fill:none;stroke:#000000;stroke-linecap:square;stroke-width:0.8;"/>
    </g>
    <g id="text_15">
     <!-- 01 -->
     <g transform="translate(525.088242 248.103782)rotate(-45)scale(0.14 -0.14)">
      <use transform="scale(0.996264)" xlink:href="#CMR17-48"/>
      <use transform="translate(45.690477 0)scale(0.996264)" xlink:href="#CMR17-49"/>
     </g>
    </g>
   </g>
   <g id="xtick_15">
    <g id="line2d_19">
     <path d="M 591.20308 228.095506 
L 588.522658 229.956397 
" style="fill:none;stroke:#000000;stroke-linecap:square;stroke-width:0.8;"/>
    </g>
    <g id="text_16">
     <!-- 10 -->
     <g transform="translate(571.338855 259.312128)rotate(-45)scale(0.14 -0.14)">
      <use transform="scale(0.996264)" xlink:href="#CMR17-49"/>
      <use transform="translate(45.690477 0)scale(0.996264)" xlink:href="#CMR17-48"/>
     </g>
    </g>
   </g>
   <g id="xtick_16">
    <g id="line2d_20">
     <path d="M 638.50838 239.365727 
L 635.888391 241.270032 
" style="fill:none;stroke:#000000;stroke-linecap:square;stroke-width:0.8;"/>
    </g>
    <g id="text_17">
     <!-- 11 -->
     <g transform="translate(618.66383 270.780834)rotate(-45)scale(0.14 -0.14)">
      <use transform="scale(0.996264)" xlink:href="#CMR17-49"/>
      <use transform="translate(45.690477 0)scale(0.996264)" xlink:href="#CMR17-49"/>
     </g>
    </g>
   </g>
  </g>
  <g id="axis3d_5">
   <g id="line2d_21">
    <path d="M 761.65712 171.581202 
L 661.965072 245.80086 
" style="fill:none;stroke:#000000;stroke-linecap:square;stroke-width:0.8;"/>
   </g>
   <g id="Line3DCollection_5">
    <path d="M 484.000685 56.547028 
L 491.016499 192.413474 
L 675.403872 235.795817 
" style="fill:none;stroke:#b0b0b0;stroke-width:0.8;"/>
    <path d="M 513.777478 40.730342 
L 519.168861 174.842005 
L 701.219492 216.576366 
" style="fill:none;stroke:#b0b0b0;stroke-width:0.8;"/>
    <path d="M 542.401344 25.526062 
L 546.284836 157.917404 
L 726.04244 198.095948 
" style="fill:none;stroke:#b0b0b0;stroke-width:0.8;"/>
    <path d="M 569.937971 10.899296 
L 572.420618 141.604597 
L 749.928893 180.312741 
" style="fill:none;stroke:#b0b0b0;stroke-width:0.8;"/>
   </g>
   <g id="xtick_17">
    <g id="line2d_22">
     <path d="M 673.861052 235.432825 
L 678.492943 236.522608 
" style="fill:none;stroke:#000000;stroke-linecap:square;stroke-width:0.8;"/>
    </g>
    <g id="text_18">
     <!-- 00 -->
     <g transform="translate(689.195824 248.348363)rotate(-337.5)scale(0.14 -0.14)">
      <use transform="scale(0.996264)" xlink:href="#CMR17-48"/>
      <use transform="translate(45.690477 0)scale(0.996264)" xlink:href="#CMR17-48"/>
     </g>
    </g>
   </g>
   <g id="xtick_18">
    <g id="line2d_23">
     <path d="M 699.697534 216.227463 
L 704.266725 217.274932 
" style="fill:none;stroke:#000000;stroke-linecap:square;stroke-width:0.8;"/>
    </g>
    <g id="text_19">
     <!-- 01 -->
     <g transform="translate(714.749375 228.903937)rotate(-337.5)scale(0.14 -0.14)">
      <use transform="scale(0.996264)" xlink:href="#CMR17-48"/>
      <use transform="translate(45.690477 0)scale(0.996264)" xlink:href="#CMR17-49"/>
     </g>
    </g>
   </g>
   <g id="xtick_19">
    <g id="line2d_24">
     <path d="M 724.540896 197.76033 
L 729.048738 198.767901 
" style="fill:none;stroke:#000000;stroke-linecap:square;stroke-width:0.8;"/>
    </g>
    <g id="text_20">
     <!-- 10 -->
     <g transform="translate(739.320787 210.206849)rotate(-337.5)scale(0.14 -0.14)">
      <use transform="scale(0.996264)" xlink:href="#CMR17-49"/>
      <use transform="translate(45.690477 0)scale(0.996264)" xlink:href="#CMR17-48"/>
     </g>
    </g>
   </g>
   <g id="xtick_20">
    <g id="line2d_25">
     <path d="M 748.44732 179.989663 
L 752.895146 180.959573 
" style="fill:none;stroke:#000000;stroke-linecap:square;stroke-width:0.8;"/>
    </g>
    <g id="text_21">
     <!-- 11 -->
     <g transform="translate(762.965613 192.214827)rotate(-337.5)scale(0.14 -0.14)">
      <use transform="scale(0.996264)" xlink:href="#CMR17-49"/>
      <use transform="translate(45.690477 0)scale(0.996264)" xlink:href="#CMR17-49"/>
     </g>
    </g>
   </g>
  </g>
  <g id="axis3d_6">
   <g id="line2d_26">
    <path d="M 761.65712 171.581202 
L 769.037001 37.79869 
" style="fill:none;stroke:#000000;stroke-linecap:square;stroke-width:0.8;"/>
   </g>
   <g id="text_22">
    <!-- Im[$\rho$] -->
    <defs>
     <path d="M 19.703125 60.90625 
C 19.703125 65.390625 20.90625 65.390625 28.09375 65.390625 
L 28.09375 68 
C 24.90625 67.796875 19.796875 67.796875 16.40625 67.796875 
C 13 67.796875 7.90625 67.796875 4.703125 68 
L 4.703125 65.390625 
C 11.90625 65.390625 13.09375 65.390625 13.09375 60.90625 
L 13.09375 7.078125 
C 13.09375 2.59375 11.90625 2.59375 4.703125 2.59375 
L 4.703125 0 
C 7.90625 0.1875 13 0.1875 16.40625 0.1875 
C 19.796875 0.1875 24.90625 0.1875 28.09375 0 
L 28.09375 2.59375 
C 20.90625 2.59375 19.703125 2.59375 19.703125 7.078125 
z
" id="CMR17-73"/>
     <path d="M 67.59375 30.53125 
C 67.59375 35.5625 66.703125 44 54.796875 44 
C 48 44 43.296875 39.375 41.5 33.953125 
L 41.40625 33.953125 
C 40.203125 42.1875 34.296875 44 28.703125 44 
C 20.796875 44 16.703125 37.875 15.203125 33.84375 
L 15.09375 33.84375 
L 15.09375 44 
L 3.296875 42.890625 
L 3.296875 40.28125 
C 9.203125 40.28125 10.09375 39.6875 10.09375 34.859375 
L 10.09375 6.921875 
C 10.09375 3.09375 9.703125 2.59375 3.296875 2.59375 
L 3.296875 0 
C 5.703125 0.1875 10.09375 0.1875 12.703125 0.1875 
C 15.296875 0.1875 19.796875 0.1875 22.203125 0 
L 22.203125 2.59375 
C 15.796875 2.59375 15.40625 3 15.40625 6.921875 
L 15.40625 26.21875 
C 15.40625 35.453125 21 42.390625 28 42.390625 
C 35.40625 42.390625 36.203125 35.765625 36.203125 30.9375 
L 36.203125 6.921875 
C 36.203125 3.09375 35.796875 2.59375 29.40625 2.59375 
L 29.40625 0 
C 31.796875 0.1875 36.203125 0.1875 38.796875 0.1875 
C 41.40625 0.1875 45.90625 0.1875 48.296875 0 
L 48.296875 2.59375 
C 41.90625 2.59375 41.5 3 41.5 6.921875 
L 41.5 26.21875 
C 41.5 35.453125 47.09375 42.390625 54.09375 42.390625 
C 61.5 42.390625 62.296875 35.765625 62.296875 30.9375 
L 62.296875 6.921875 
C 62.296875 3.09375 61.90625 2.59375 55.5 2.59375 
L 55.5 0 
C 57.90625 0.1875 62.296875 0.1875 64.90625 0.1875 
C 67.5 0.1875 72 0.1875 74.40625 0 
L 74.40625 2.59375 
C 68 2.59375 67.59375 3 67.59375 6.921875 
z
" id="CMR17-109"/>
    </defs>
    <g transform="translate(809.026865 118.025317)rotate(-86.842577)scale(0.14 -0.14)">
     <use transform="scale(0.996264)" xlink:href="#CMR17-73"/>
     <use transform="translate(32.638409 0)scale(0.996264)" xlink:href="#CMR17-109"/>
     <use transform="translate(109.557999 0)scale(0.996264)" xlink:href="#CMR17-91"/>
     <use transform="translate(134.429058 0)scale(0.996264)" xlink:href="#CMMI12-26"/>
     <use transform="translate(184.74343 0)scale(0.996264)" xlink:href="#CMR17-93"/>
    </g>
   </g>
   <g id="Line3DCollection_6">
    <path d="M 762.134761 162.922518 
L 585.151093 125.163042 
L 475.871129 192.711022 
" style="fill:none;stroke:#b0b0b0;stroke-width:0.8;"/>
    <path d="M 764.037442 128.430708 
L 584.683075 91.636176 
L 473.840596 157.487171 
" style="fill:none;stroke:#b0b0b0;stroke-width:0.8;"/>
    <path d="M 765.992243 92.99407 
L 584.202783 57.230126 
L 471.752562 121.265871 
" style="fill:none;stroke:#b0b0b0;stroke-width:0.8;"/>
    <path d="M 768.001336 56.573241 
L 583.70973 21.909851 
L 469.604552 84.004147 
" style="fill:none;stroke:#b0b0b0;stroke-width:0.8;"/>
   </g>
   <g id="xtick_21">
    <g id="line2d_27">
     <path d="M 760.657939 162.607438 
L 765.091484 163.553335 
" style="fill:none;stroke:#000000;stroke-linecap:square;stroke-width:0.8;"/>
    </g>
    <g id="text_23">
     <!-- $0.0$ -->
     <g transform="translate(771.980922 170.675854)scale(0.14 -0.14)">
      <use transform="scale(0.996264)" xlink:href="#CMR17-48"/>
      <use transform="translate(45.690477 0)scale(0.996264)" xlink:href="#CMMI12-58"/>
      <use transform="translate(72.787654 0)scale(0.996264)" xlink:href="#CMR17-48"/>
     </g>
    </g>
   </g>
   <g id="xtick_22">
    <g id="line2d_28">
     <path d="M 762.540004 128.123509 
L 767.035483 129.045756 
" style="fill:none;stroke:#000000;stroke-linecap:square;stroke-width:0.8;"/>
    </g>
    <g id="text_24">
     <!-- $0.1$ -->
     <g transform="translate(774.129882 136.232427)scale(0.14 -0.14)">
      <use transform="scale(0.996264)" xlink:href="#CMR17-48"/>
      <use transform="translate(45.690477 0)scale(0.996264)" xlink:href="#CMMI12-58"/>
      <use transform="translate(72.787654 0)scale(0.996264)" xlink:href="#CMR17-49"/>
     </g>
    </g>
   </g>
   <g id="xtick_23">
    <g id="line2d_29">
     <path d="M 764.473606 92.695304 
L 769.032772 93.592242 
" style="fill:none;stroke:#000000;stroke-linecap:square;stroke-width:0.8;"/>
    </g>
    <g id="text_25">
     <!-- $0.2$ -->
     <g transform="translate(776.337578 100.84756)scale(0.14 -0.14)">
      <use transform="scale(0.996264)" xlink:href="#CMR17-48"/>
      <use transform="translate(45.690477 0)scale(0.996264)" xlink:href="#CMMI12-58"/>
      <use transform="translate(72.787654 0)scale(0.996264)" xlink:href="#CMR17-50"/>
     </g>
    </g>
   </g>
   <g id="xtick_24">
    <g id="line2d_30">
     <path d="M 766.46089 56.283499 
L 771.085572 57.153355 
" style="fill:none;stroke:#000000;stroke-linecap:square;stroke-width:0.8;"/>
    </g>
    <g id="text_26">
     <!-- $0.3$ -->
     <g transform="translate(778.606454 64.482119)scale(0.14 -0.14)">
      <use transform="scale(0.996264)" xlink:href="#CMR17-48"/>
      <use transform="translate(45.690477 0)scale(0.996264)" xlink:href="#CMMI12-58"/>
      <use transform="translate(72.787654 0)scale(0.996264)" xlink:href="#CMR17-51"/>
     </g>
    </g>
   </g>
  </g>
  <g id="axes_2">
   <g id="Poly3DCollection_18">
    <path clip-path="url(#pcc16f40fb0)" d="M 589.523692 131.500531 
L 589.531863 132.164751 
L 610.96275 136.768891 
L 610.960075 136.102372 
z
" style="fill:#0cba97;fill-opacity:0.8;"/>
    <path clip-path="url(#pcc16f40fb0)" d="M 576.712515 139.501919 
L 576.724083 140.170128 
L 589.531863 132.164751 
L 589.523692 131.500531 
z
" style="fill:#065d4c;fill-opacity:0.8;"/>
    <path clip-path="url(#pcc16f40fb0)" d="M 576.724083 140.170128 
L 598.283805 144.85895 
L 610.96275 136.768891 
L 589.531863 132.164751 
z
" style="fill:#0aa384;fill-opacity:0.8;"/>
    <path clip-path="url(#pcc16f40fb0)" d="M 576.712515 139.501919 
L 589.523692 131.500531 
L 610.960075 136.102372 
L 598.277798 144.188422 
z
" style="fill:#08745e;fill-opacity:0.8;"/>
    <path clip-path="url(#pcc16f40fb0)" d="M 598.277798 144.188422 
L 610.960075 136.102372 
L 610.96275 136.768891 
L 598.283805 144.85895 
z
" style="fill:#0cba97;fill-opacity:0.8;"/>
    <path clip-path="url(#pcc16f40fb0)" d="M 576.712515 139.501919 
L 598.277798 144.188422 
L 598.283805 144.85895 
L 576.724083 140.170128 
z
" style="fill:#065d4c;fill-opacity:0.8;"/>
   </g>
   <g id="Poly3DCollection_19">
    <path clip-path="url(#pcc16f40fb0)" d="M 632.622834 140.752809 
L 632.623357 140.633553 
L 654.517118 145.332948 
L 654.515572 145.452618 
z
" style="fill:#065d4c;fill-opacity:0.8;"/>
    <path clip-path="url(#pcc16f40fb0)" d="M 620.07292 148.924872 
L 620.072862 148.804897 
L 632.623357 140.633553 
L 632.622834 140.752809 
z
" style="fill:#0cba97;fill-opacity:0.8;"/>
    <path clip-path="url(#pcc16f40fb0)" d="M 620.07292 148.924872 
L 632.622834 140.752809 
L 654.515572 145.452618 
L 642.101574 153.712074 
z
" style="fill:#08745e;fill-opacity:0.8;"/>
    <path clip-path="url(#pcc16f40fb0)" d="M 620.072862 148.804897 
L 642.102551 153.591681 
L 654.517118 145.332948 
L 632.623357 140.633553 
z
" style="fill:#0aa384;fill-opacity:0.8;"/>
    <path clip-path="url(#pcc16f40fb0)" d="M 642.101574 153.712074 
L 654.515572 145.452618 
L 654.517118 145.332948 
L 642.102551 153.591681 
z
" style="fill:#065d4c;fill-opacity:0.8;"/>
    <path clip-path="url(#pcc16f40fb0)" d="M 620.07292 148.924872 
L 642.101574 153.712074 
L 642.102551 153.591681 
L 620.072862 148.804897 
z
" style="fill:#0cba97;fill-opacity:0.8;"/>
   </g>
   <g id="Poly3DCollection_20">
    <path clip-path="url(#pcc16f40fb0)" d="M 563.665183 147.6508 
L 563.635151 146.312972 
L 585.341661 151.081835 
L 585.360491 152.424324 
z
" style="fill:#065d4c;fill-opacity:0.8;"/>
    <path clip-path="url(#pcc16f40fb0)" d="M 550.375105 155.951292 
L 550.337806 154.605377 
L 563.635151 146.312972 
L 563.665183 147.6508 
z
" style="fill:#0cba97;fill-opacity:0.8;"/>
    <path clip-path="url(#pcc16f40fb0)" d="M 550.375105 155.951292 
L 563.665183 147.6508 
L 585.360491 152.424324 
L 572.20156 160.814282 
z
" style="fill:#08745e;fill-opacity:0.8;"/>
    <path clip-path="url(#pcc16f40fb0)" d="M 550.337806 154.605377 
L 572.175598 159.463665 
L 585.341661 151.081835 
L 563.635151 146.312972 
z
" style="fill:#0aa384;fill-opacity:0.8;"/>
    <path clip-path="url(#pcc16f40fb0)" d="M 572.20156 160.814282 
L 585.360491 152.424324 
L 585.341661 151.081835 
L 572.175598 159.463665 
z
" style="fill:#065d4c;fill-opacity:0.8;"/>
    <path clip-path="url(#pcc16f40fb0)" d="M 550.375105 155.951292 
L 572.20156 160.814282 
L 572.175598 159.463665 
L 550.337806 154.605377 
z
" style="fill:#0cba97;fill-opacity:0.8;"/>
   </g>
   <g id="Poly3DCollection_21">
    <path clip-path="url(#pcc16f40fb0)" d="M 676.641973 150.202588 
L 676.746536 145.354069 
L 699.153414 150.138067 
L 699.005797 155.003527 
z
" style="fill:#065d4c;fill-opacity:0.8;"/>
    <path clip-path="url(#pcc16f40fb0)" d="M 664.367534 158.550846 
L 664.449661 153.672931 
L 676.746536 145.354069 
L 676.641973 150.202588 
z
" style="fill:#0cba97;fill-opacity:0.8;"/>
    <path clip-path="url(#pcc16f40fb0)" d="M 664.367534 158.550846 
L 676.641973 150.202588 
L 699.005797 155.003527 
L 686.874656 163.442026 
z
" style="fill:#08745e;fill-opacity:0.8;"/>
    <path clip-path="url(#pcc16f40fb0)" d="M 664.449661 153.672931 
L 687.000394 158.547026 
L 699.153414 150.138067 
L 676.746536 145.354069 
z
" style="fill:#0aa384;fill-opacity:0.8;"/>
    <path clip-path="url(#pcc16f40fb0)" d="M 686.874656 163.442026 
L 699.005797 155.003527 
L 699.153414 150.138067 
L 687.000394 158.547026 
z
" style="fill:#065d4c;fill-opacity:0.8;"/>
    <path clip-path="url(#pcc16f40fb0)" d="M 664.367534 158.550846 
L 686.874656 163.442026 
L 687.000394 158.547026 
L 664.449661 153.672931 
z
" style="fill:#0cba97;fill-opacity:0.8;"/>
   </g>
   <g id="Poly3DCollection_22">
    <path clip-path="url(#pcc16f40fb0)" d="M 607.289178 157.249196 
L 607.292399 157.836797 
L 629.453149 162.715902 
L 629.455029 162.12625 
z
" style="fill:#0cba97;fill-opacity:0.8;"/>
    <path clip-path="url(#pcc16f40fb0)" d="M 594.265012 165.730075 
L 594.271283 166.321234 
L 607.292399 157.836797 
L 607.289178 157.249196 
z
" style="fill:#065d4c;fill-opacity:0.8;"/>
    <path clip-path="url(#pcc16f40fb0)" d="M 594.271283 166.321234 
L 616.570448 171.292763 
L 629.453149 162.715902 
L 607.292399 157.836797 
z
" style="fill:#0aa384;fill-opacity:0.8;"/>
    <path clip-path="url(#pcc16f40fb0)" d="M 594.265012 165.730075 
L 607.289178 157.249196 
L 629.455029 162.12625 
L 616.569342 170.699536 
z
" style="fill:#08745e;fill-opacity:0.8;"/>
    <path clip-path="url(#pcc16f40fb0)" d="M 616.569342 170.699536 
L 629.455029 162.12625 
L 629.453149 162.715902 
L 616.570448 171.292763 
z
" style="fill:#0cba97;fill-opacity:0.8;"/>
    <path clip-path="url(#pcc16f40fb0)" d="M 594.265012 165.730075 
L 616.569342 170.699536 
L 616.570448 171.292763 
L 594.271283 166.321234 
z
" style="fill:#065d4c;fill-opacity:0.8;"/>
   </g>
   <g id="Poly3DCollection_23">
    <path clip-path="url(#pcc16f40fb0)" d="M 721.610886 159.856258 
L 721.610886 159.856258 
L 744.461165 164.761626 
L 744.461165 164.761626 
z
" style="fill:#065d4c;fill-opacity:0.8;"/>
    <path clip-path="url(#pcc16f40fb0)" d="M 709.626878 168.386471 
L 709.626878 168.386471 
L 721.610886 159.856258 
L 721.610886 159.856258 
z
" style="fill:#065d4c;fill-opacity:0.8;"/>
    <path clip-path="url(#pcc16f40fb0)" d="M 709.626878 168.386471 
L 721.610886 159.856258 
L 744.461165 164.761626 
L 732.628228 173.385056 
z
" style="fill:#08745e;fill-opacity:0.8;"/>
    <path clip-path="url(#pcc16f40fb0)" d="M 709.626878 168.386471 
L 732.628228 173.385056 
L 744.461165 164.761626 
L 721.610886 159.856258 
z
" style="fill:#0aa384;fill-opacity:0.8;"/>
    <path clip-path="url(#pcc16f40fb0)" d="M 732.628228 173.385056 
L 744.461165 164.761626 
L 744.461165 164.761626 
L 732.628228 173.385056 
z
" style="fill:#065d4c;fill-opacity:0.8;"/>
    <path clip-path="url(#pcc16f40fb0)" d="M 709.626878 168.386471 
L 732.628228 173.385056 
L 732.628228 173.385056 
L 709.626878 168.386471 
z
" style="fill:#065d4c;fill-opacity:0.8;"/>
   </g>
   <g id="Poly3DCollection_24">
    <path clip-path="url(#pcc16f40fb0)" d="M 536.835444 164.407665 
L 536.631804 158.257578 
L 558.642631 163.190978 
L 558.794162 169.36266 
z
" style="fill:#065d4c;fill-opacity:0.8;"/>
    <path clip-path="url(#pcc16f40fb0)" d="M 523.039102 173.024351 
L 522.799953 166.836794 
L 536.631804 158.257578 
L 536.835444 164.407665 
z
" style="fill:#0cba97;fill-opacity:0.8;"/>
    <path clip-path="url(#pcc16f40fb0)" d="M 523.039102 173.024351 
L 536.835444 164.407665 
L 558.794162 169.36266 
L 545.131191 178.073987 
z
" style="fill:#08745e;fill-opacity:0.8;"/>
    <path clip-path="url(#pcc16f40fb0)" d="M 522.799953 166.836794 
L 544.94478 171.864655 
L 558.642631 163.190978 
L 536.631804 158.257578 
z
" style="fill:#0aa384;fill-opacity:0.8;"/>
    <path clip-path="url(#pcc16f40fb0)" d="M 545.131191 178.073987 
L 558.794162 169.36266 
L 558.642631 163.190978 
L 544.94478 171.864655 
z
" style="fill:#065d4c;fill-opacity:0.8;"/>
    <path clip-path="url(#pcc16f40fb0)" d="M 523.039102 173.024351 
L 545.131191 178.073987 
L 544.94478 171.864655 
L 522.799953 166.836794 
z
" style="fill:#0cba97;fill-opacity:0.8;"/>
   </g>
   <g id="Poly3DCollection_25">
    <path clip-path="url(#pcc16f40fb0)" d="M 651.861913 167.056338 
L 651.861913 167.056338 
L 674.513783 172.040329 
L 674.513783 172.040329 
z
" style="fill:#065d4c;fill-opacity:0.8;"/>
    <path clip-path="url(#pcc16f40fb0)" d="M 639.118517 175.723549 
L 639.118517 175.723549 
L 651.861913 167.056338 
L 651.861913 167.056338 
z
" style="fill:#065d4c;fill-opacity:0.8;"/>
    <path clip-path="url(#pcc16f40fb0)" d="M 639.118517 175.723549 
L 651.861913 167.056338 
L 674.513783 172.040329 
L 661.916589 180.803018 
z
" style="fill:#08745e;fill-opacity:0.8;"/>
    <path clip-path="url(#pcc16f40fb0)" d="M 639.118517 175.723549 
L 661.916589 180.803018 
L 674.513783 172.040329 
L 651.861913 167.056338 
z
" style="fill:#0aa384;fill-opacity:0.8;"/>
    <path clip-path="url(#pcc16f40fb0)" d="M 661.916589 180.803018 
L 674.513783 172.040329 
L 674.513783 172.040329 
L 661.916589 180.803018 
z
" style="fill:#065d4c;fill-opacity:0.8;"/>
    <path clip-path="url(#pcc16f40fb0)" d="M 639.118517 175.723549 
L 661.916589 180.803018 
L 661.916589 180.803018 
L 639.118517 175.723549 
z
" style="fill:#065d4c;fill-opacity:0.8;"/>
   </g>
   <g id="Poly3DCollection_26">
    <path clip-path="url(#pcc16f40fb0)" d="M 580.993576 174.371968 
L 580.993576 174.371968 
L 603.437666 179.436488 
L 603.437666 179.436488 
z
" style="fill:#065d4c;fill-opacity:0.8;"/>
    <path clip-path="url(#pcc16f40fb0)" d="M 567.467759 183.179505 
L 567.467759 183.179505 
L 580.993576 174.371968 
L 580.993576 174.371968 
z
" style="fill:#065d4c;fill-opacity:0.8;"/>
    <path clip-path="url(#pcc16f40fb0)" d="M 567.467759 183.179505 
L 580.993576 174.371968 
L 603.437666 179.436488 
L 590.052887 188.341837 
z
" style="fill:#08745e;fill-opacity:0.8;"/>
    <path clip-path="url(#pcc16f40fb0)" d="M 567.467759 183.179505 
L 590.052887 188.341837 
L 603.437666 179.436488 
L 580.993576 174.371968 
z
" style="fill:#0aa384;fill-opacity:0.8;"/>
    <path clip-path="url(#pcc16f40fb0)" d="M 590.052887 188.341837 
L 603.437666 179.436488 
L 603.437666 179.436488 
L 590.052887 188.341837 
z
" style="fill:#065d4c;fill-opacity:0.8;"/>
    <path clip-path="url(#pcc16f40fb0)" d="M 567.467759 183.179505 
L 590.052887 188.341837 
L 590.052887 188.341837 
L 567.467759 183.179505 
z
" style="fill:#065d4c;fill-opacity:0.8;"/>
   </g>
   <g id="Poly3DCollection_27">
    <path clip-path="url(#pcc16f40fb0)" d="M 697.414678 177.079112 
L 697.267104 182.002051 
L 720.375192 187.113758 
L 720.568728 182.173596 
z
" style="fill:#0cba97;fill-opacity:0.8;"/>
    <path clip-path="url(#pcc16f40fb0)" d="M 684.967704 185.938865 
L 684.843083 190.891686 
L 697.267104 182.002051 
L 697.414678 177.079112 
z
" style="fill:#065d4c;fill-opacity:0.8;"/>
    <path clip-path="url(#pcc16f40fb0)" d="M 684.843083 190.891686 
L 708.104894 196.102217 
L 720.375192 187.113758 
L 697.267104 182.002051 
z
" style="fill:#0aa384;fill-opacity:0.8;"/>
    <path clip-path="url(#pcc16f40fb0)" d="M 684.967704 185.938865 
L 697.414678 177.079112 
L 720.568728 182.173596 
L 708.276097 191.132034 
z
" style="fill:#08745e;fill-opacity:0.8;"/>
    <path clip-path="url(#pcc16f40fb0)" d="M 708.276097 191.132034 
L 720.568728 182.173596 
L 720.375192 187.113758 
L 708.104894 196.102217 
z
" style="fill:#0cba97;fill-opacity:0.8;"/>
    <path clip-path="url(#pcc16f40fb0)" d="M 684.967704 185.938865 
L 708.276097 191.132034 
L 708.104894 196.102217 
L 684.843083 190.891686 
z
" style="fill:#065d4c;fill-opacity:0.8;"/>
   </g>
   <g id="Poly3DCollection_28">
    <path clip-path="url(#pcc16f40fb0)" d="M 508.978709 181.805953 
L 508.978709 181.805953 
L 531.205269 186.952968 
L 531.205269 186.952968 
z
" style="fill:#065d4c;fill-opacity:0.8;"/>
    <path clip-path="url(#pcc16f40fb0)" d="M 494.646613 190.757251 
L 494.646613 190.757251 
L 508.978709 181.805953 
L 508.978709 181.805953 
z
" style="fill:#065d4c;fill-opacity:0.8;"/>
    <path clip-path="url(#pcc16f40fb0)" d="M 494.646613 190.757251 
L 508.978709 181.805953 
L 531.205269 186.952968 
L 517.008733 196.00449 
z
" style="fill:#08745e;fill-opacity:0.8;"/>
    <path clip-path="url(#pcc16f40fb0)" d="M 494.646613 190.757251 
L 517.008733 196.00449 
L 531.205269 186.952968 
L 508.978709 181.805953 
z
" style="fill:#0aa384;fill-opacity:0.8;"/>
    <path clip-path="url(#pcc16f40fb0)" d="M 517.008733 196.00449 
L 531.205269 186.952968 
L 531.205269 186.952968 
L 517.008733 196.00449 
z
" style="fill:#065d4c;fill-opacity:0.8;"/>
    <path clip-path="url(#pcc16f40fb0)" d="M 494.646613 190.757251 
L 517.008733 196.00449 
L 517.008733 196.00449 
L 494.646613 190.757251 
z
" style="fill:#065d4c;fill-opacity:0.8;"/>
   </g>
   <g id="Poly3DCollection_29">
    <path clip-path="url(#pcc16f40fb0)" d="M 626.130499 184.557136 
L 626.131639 183.957926 
L 649.082842 189.133534 
L 649.076233 189.734852 
z
" style="fill:#065d4c;fill-opacity:0.8;"/>
    <path clip-path="url(#pcc16f40fb0)" d="M 612.890747 193.561936 
L 612.888733 192.959069 
L 626.131639 183.957926 
L 626.130499 184.557136 
z
" style="fill:#0cba97;fill-opacity:0.8;"/>
    <path clip-path="url(#pcc16f40fb0)" d="M 612.890747 193.561936 
L 626.130499 184.557136 
L 649.076233 189.734852 
L 635.985605 198.840777 
z
" style="fill:#08745e;fill-opacity:0.8;"/>
    <path clip-path="url(#pcc16f40fb0)" d="M 612.888733 192.959069 
L 635.989132 198.235787 
L 649.082842 189.133534 
L 626.131639 183.957926 
z
" style="fill:#0aa384;fill-opacity:0.8;"/>
    <path clip-path="url(#pcc16f40fb0)" d="M 635.985605 198.840777 
L 649.076233 189.734852 
L 649.082842 189.133534 
L 635.989132 198.235787 
z
" style="fill:#065d4c;fill-opacity:0.8;"/>
    <path clip-path="url(#pcc16f40fb0)" d="M 612.890747 193.561936 
L 635.985605 198.840777 
L 635.989132 198.235787 
L 612.888733 192.959069 
z
" style="fill:#0cba97;fill-opacity:0.8;"/>
   </g>
   <g id="Poly3DCollection_30">
    <path clip-path="url(#pcc16f40fb0)" d="M 553.680177 192.157494 
L 553.84737 198.395852 
L 576.51925 203.680734 
L 576.407617 197.420499 
z
" style="fill:#0cba97;fill-opacity:0.8;"/>
    <path clip-path="url(#pcc16f40fb0)" d="M 539.623157 201.310931 
L 539.827068 207.587244 
L 553.84737 198.395852 
L 553.680177 192.157494 
z
" style="fill:#065d4c;fill-opacity:0.8;"/>
    <path clip-path="url(#pcc16f40fb0)" d="M 539.827068 207.587244 
L 562.641831 212.975942 
L 576.51925 203.680734 
L 553.84737 198.395852 
z
" style="fill:#0aa384;fill-opacity:0.8;"/>
    <path clip-path="url(#pcc16f40fb0)" d="M 539.623157 201.310931 
L 553.680177 192.157494 
L 576.407617 197.420499 
L 562.494178 206.677583 
z
" style="fill:#08745e;fill-opacity:0.8;"/>
    <path clip-path="url(#pcc16f40fb0)" d="M 562.494178 206.677583 
L 576.407617 197.420499 
L 576.51925 203.680734 
L 562.641831 212.975942 
z
" style="fill:#0cba97;fill-opacity:0.8;"/>
    <path clip-path="url(#pcc16f40fb0)" d="M 539.623157 201.310931 
L 562.494178 206.677583 
L 562.641831 212.975942 
L 539.827068 207.587244 
z
" style="fill:#065d4c;fill-opacity:0.8;"/>
   </g>
   <g id="Poly3DCollection_31">
    <path clip-path="url(#pcc16f40fb0)" d="M 672.279121 194.970595 
L 672.276616 195.094477 
L 695.73983 200.389664 
L 695.743508 200.265345 
z
" style="fill:#0cba97;fill-opacity:0.8;"/>
    <path clip-path="url(#pcc16f40fb0)" d="M 659.341824 204.179359 
L 659.339937 204.303998 
L 672.276616 195.094477 
L 672.279121 194.970595 
z
" style="fill:#065d4c;fill-opacity:0.8;"/>
    <path clip-path="url(#pcc16f40fb0)" d="M 659.339937 204.303998 
L 682.960789 209.703779 
L 695.73983 200.389664 
L 672.276616 195.094477 
z
" style="fill:#0aa384;fill-opacity:0.8;"/>
    <path clip-path="url(#pcc16f40fb0)" d="M 659.341824 204.179359 
L 672.279121 194.970595 
L 695.743508 200.265345 
L 682.963866 209.5787 
z
" style="fill:#08745e;fill-opacity:0.8;"/>
    <path clip-path="url(#pcc16f40fb0)" d="M 682.963866 209.5787 
L 695.743508 200.265345 
L 695.73983 200.389664 
L 682.960789 209.703779 
z
" style="fill:#0cba97;fill-opacity:0.8;"/>
    <path clip-path="url(#pcc16f40fb0)" d="M 659.341824 204.179359 
L 682.963866 209.5787 
L 682.960789 209.703779 
L 659.339937 204.303998 
z
" style="fill:#065d4c;fill-opacity:0.8;"/>
   </g>
   <g id="Poly3DCollection_32">
    <path clip-path="url(#pcc16f40fb0)" d="M 599.391871 202.742974 
L 599.403983 204.13144 
L 622.63658 209.519293 
L 622.637316 208.125933 
z
" style="fill:#0cba97;fill-opacity:0.8;"/>
    <path clip-path="url(#pcc16f40fb0)" d="M 585.626189 212.105476 
L 585.646102 213.502432 
L 599.403983 204.13144 
L 599.391871 202.742974 
z
" style="fill:#065d4c;fill-opacity:0.8;"/>
    <path clip-path="url(#pcc16f40fb0)" d="M 585.646102 213.502432 
L 609.030579 218.997551 
L 622.63658 209.519293 
L 599.403983 204.13144 
z
" style="fill:#0aa384;fill-opacity:0.8;"/>
    <path clip-path="url(#pcc16f40fb0)" d="M 585.626189 212.105476 
L 599.391871 202.742974 
L 622.637316 208.125933 
L 609.023682 217.595664 
z
" style="fill:#08745e;fill-opacity:0.8;"/>
    <path clip-path="url(#pcc16f40fb0)" d="M 609.023682 217.595664 
L 622.637316 208.125933 
L 622.63658 209.519293 
L 609.030579 218.997551 
z
" style="fill:#0cba97;fill-opacity:0.8;"/>
    <path clip-path="url(#pcc16f40fb0)" d="M 585.626189 212.105476 
L 609.023682 217.595664 
L 609.030579 218.997551 
L 585.646102 213.502432 
z
" style="fill:#065d4c;fill-opacity:0.8;"/>
   </g>
   <g id="Poly3DCollection_33">
    <path clip-path="url(#pcc16f40fb0)" d="M 646.148429 213.570414 
L 646.155414 212.866665 
L 669.943544 218.371239 
L 669.929792 219.077476 
z
" style="fill:#065d4c;fill-opacity:0.8;"/>
    <path clip-path="url(#pcc16f40fb0)" d="M 632.691256 223.149226 
L 632.694488 222.441161 
L 646.155414 212.866665 
L 646.148429 213.570414 
z
" style="fill:#0cba97;fill-opacity:0.8;"/>
    <path clip-path="url(#pcc16f40fb0)" d="M 632.691256 223.149226 
L 646.148429 213.570414 
L 669.929792 219.077476 
L 656.633612 228.767265 
z
" style="fill:#08745e;fill-opacity:0.8;"/>
    <path clip-path="url(#pcc16f40fb0)" d="M 632.694488 222.441161 
L 656.643703 228.056694 
L 669.943544 218.371239 
L 646.155414 212.866665 
z
" style="fill:#0aa384;fill-opacity:0.8;"/>
    <path clip-path="url(#pcc16f40fb0)" d="M 656.633612 228.767265 
L 669.929792 219.077476 
L 669.943544 218.371239 
L 656.643703 228.056694 
z
" style="fill:#065d4c;fill-opacity:0.8;"/>
    <path clip-path="url(#pcc16f40fb0)" d="M 632.691256 223.149226 
L 656.633612 228.767265 
L 656.643703 228.056694 
L 632.694488 222.441161 
z
" style="fill:#0cba97;fill-opacity:0.8;"/>
   </g>
   <g id="Poly3DCollection_34">
    <path clip-path="url(#pcc16f40fb0)" d="M 481.780442 192.0961 
L 660.382437 234.200679 
L 756.58791 163.499721 
L 586.518506 127.144922 
z
" style="fill-opacity:0.2;"/>
   </g>
  </g>
 </g>
 <defs>
  <clipPath id="pfc4db19858">
   <rect height="277.2" width="380.454545" x="-30.6" y="-14.4"/>
  </clipPath>
  <clipPath id="pcc16f40fb0">
   <rect height="277.2" width="380.454545" x="425.945455" y="-14.4"/>
  </clipPath>
 </defs>
</svg>
