<?xml version="1.0" encoding="utf-8" standalone="no"?>
<!DOCTYPE svg PUBLIC "-//W3C//DTD SVG 1.1//EN"
  "http://www.w3.org/Graphics/SVG/1.1/DTD/svg11.dtd">
<!-- Created with matplotlib (https://matplotlib.org/) -->
<svg height="302.4pt" version="1.1" viewBox="0 0 820.8 302.4" width="820.8pt" xmlns="http://www.w3.org/2000/svg" xmlns:xlink="http://www.w3.org/1999/xlink">
 <defs>
  <style type="text/css">
*{stroke-linecap:butt;stroke-linejoin:round;}
  </style>
 </defs>
 <g id="figure_1">
  <g id="patch_1">
   <path d="M 0 302.4 
L 820.8 302.4 
L 820.8 0 
L 0 0 
z
" style="fill:#ffffff;"/>
  </g>
  <g id="patch_2">
   <path d="M -30.6 262.8 
L 349.854545 262.8 
L 349.854545 -14.4 
L -30.6 -14.4 
z
" style="fill:#ffffff;"/>
  </g>
  <g id="pane3d_1">
   <g id="patch_3">
    <path d="M 19.835129 201.548569 
L 128.723211 133.58541 
L 126.910339 3.718968 
L 11.951034 64.782468 
" style="fill:#f2f2f2;opacity:0.5;stroke:#f2f2f2;stroke-linejoin:miter;"/>
   </g>
  </g>
  <g id="pane3d_2">
   <g id="patch_4">
    <path d="M 128.723211 133.58541 
L 305.111665 171.581202 
L 312.491547 37.79869 
L 126.910339 3.718968 
" style="fill:#e6e6e6;opacity:0.5;stroke:#e6e6e6;stroke-linejoin:miter;"/>
   </g>
  </g>
  <g id="pane3d_3">
   <g id="patch_5">
    <path d="M 19.835129 201.548569 
L 205.419617 245.80086 
L 305.111665 171.581202 
L 128.723211 133.58541 
" style="fill:#ececec;opacity:0.5;stroke:#ececec;stroke-linejoin:miter;"/>
   </g>
  </g>
  <g id="axis3d_1">
   <g id="line2d_1">
    <path d="M 19.835129 201.548569 
L 205.419617 245.80086 
" style="fill:none;stroke:#000000;stroke-linecap:square;stroke-width:0.8;"/>
   </g>
   <g id="Line3DCollection_1">
    <path d="M 42.295817 206.90428 
L 150.133942 138.19749 
L 149.393845 7.847789 
" style="fill:none;stroke:#b0b0b0;stroke-width:0.8;"/>
    <path d="M 87.512337 217.686079 
L 193.184014 147.470895 
L 194.636898 16.156123 
" style="fill:none;stroke:#b0b0b0;stroke-width:0.8;"/>
    <path d="M 133.765289 228.715013 
L 237.148096 156.941187 
L 240.890183 24.649974 
" style="fill:none;stroke:#b0b0b0;stroke-width:0.8;"/>
    <path d="M 181.090721 239.999678 
L 282.055608 166.614702 
L 288.187917 33.335625 
" style="fill:none;stroke:#b0b0b0;stroke-width:0.8;"/>
   </g>
   <g id="xtick_1">
    <g id="line2d_2">
     <path d="M 43.225084 206.312217 
L 40.433807 208.09062 
" style="fill:none;stroke:#000000;stroke-linecap:square;stroke-width:0.8;"/>
    </g>
    <g id="text_1">
     <!-- 00 -->
     <defs>
      <path d="M 42 31.84375 
C 42 37.96875 41.90625 48.421875 37.703125 56.453125 
C 34 63.484375 28.09375 66 22.90625 66 
C 18.09375 66 12 63.78125 8.203125 56.5625 
C 4.203125 49.015625 3.796875 39.671875 3.796875 31.84375 
C 3.796875 26.109375 3.90625 17.375 7 9.734375 
C 11.296875 -0.609375 19 -2 22.90625 -2 
C 27.5 -2 34.5 -0.109375 38.59375 9.4375 
C 41.59375 16.375 42 24.5 42 31.84375 
z
M 22.90625 -0.40625 
C 16.5 -0.40625 12.703125 5.125 11.296875 12.75 
C 10.203125 18.6875 10.203125 27.328125 10.203125 32.953125 
C 10.203125 40.6875 10.203125 47.109375 11.5 53.234375 
C 13.40625 61.78125 19 64.390625 22.90625 64.390625 
C 27 64.390625 32.296875 61.671875 34.203125 53.4375 
C 35.5 47.71875 35.59375 40.984375 35.59375 32.953125 
C 35.59375 26.421875 35.59375 18.375 34.40625 12.453125 
C 32.296875 1.5 26.40625 -0.40625 22.90625 -0.40625 
z
" id="CMR17-48"/>
     </defs>
     <g transform="translate(23.330362 237.14703)rotate(-45)scale(0.14 -0.14)">
      <use transform="scale(0.996264)" xlink:href="#CMR17-48"/>
      <use transform="translate(45.690477 0)scale(0.996264)" xlink:href="#CMR17-48"/>
     </g>
    </g>
   </g>
   <g id="xtick_2">
    <g id="line2d_3">
     <path d="M 88.423674 217.080527 
L 85.686217 218.899473 
" style="fill:none;stroke:#000000;stroke-linecap:square;stroke-width:0.8;"/>
    </g>
    <g id="text_2">
     <!-- 01 -->
     <defs>
      <path d="M 26.59375 63.796875 
C 26.59375 65.890625 26.5 66 25.09375 66 
C 21.203125 61.359375 15.296875 59.890625 9.703125 59.6875 
C 9.40625 59.6875 8.90625 59.6875 8.796875 59.5 
C 8.703125 59.296875 8.703125 59.09375 8.703125 57 
C 11.796875 57 17 57.59375 21 59.984375 
L 21 7.296875 
C 21 3.796875 20.796875 2.59375 12.203125 2.59375 
L 9.203125 2.59375 
L 9.203125 0 
C 14 0.09375 19 0.1875 23.796875 0.1875 
C 28.59375 0.1875 33.59375 0.09375 38.40625 0 
L 38.40625 2.59375 
L 35.40625 2.59375 
C 26.796875 2.59375 26.59375 3.6875 26.59375 7.296875 
z
" id="CMR17-49"/>
     </defs>
     <g transform="translate(68.542787 248.103782)rotate(-45)scale(0.14 -0.14)">
      <use transform="scale(0.996264)" xlink:href="#CMR17-48"/>
      <use transform="translate(45.690477 0)scale(0.996264)" xlink:href="#CMR17-49"/>
     </g>
    </g>
   </g>
   <g id="xtick_3">
    <g id="line2d_4">
     <path d="M 134.657625 228.095506 
L 131.977203 229.956397 
" style="fill:none;stroke:#000000;stroke-linecap:square;stroke-width:0.8;"/>
    </g>
    <g id="text_3">
     <!-- 10 -->
     <g transform="translate(114.7934 259.312128)rotate(-45)scale(0.14 -0.14)">
      <use transform="scale(0.996264)" xlink:href="#CMR17-49"/>
      <use transform="translate(45.690477 0)scale(0.996264)" xlink:href="#CMR17-48"/>
     </g>
    </g>
   </g>
   <g id="xtick_4">
    <g id="line2d_5">
     <path d="M 181.962926 239.365727 
L 179.342936 241.270032 
" style="fill:none;stroke:#000000;stroke-linecap:square;stroke-width:0.8;"/>
    </g>
    <g id="text_4">
     <!-- 11 -->
     <g transform="translate(162.118375 270.780834)rotate(-45)scale(0.14 -0.14)">
      <use transform="scale(0.996264)" xlink:href="#CMR17-49"/>
      <use transform="translate(45.690477 0)scale(0.996264)" xlink:href="#CMR17-49"/>
     </g>
    </g>
   </g>
  </g>
  <g id="axis3d_2">
   <g id="line2d_6">
    <path d="M 305.111665 171.581202 
L 205.419617 245.80086 
" style="fill:none;stroke:#000000;stroke-linecap:square;stroke-width:0.8;"/>
   </g>
   <g id="Line3DCollection_2">
    <path d="M 27.455231 56.547028 
L 34.471044 192.413474 
L 218.858418 235.795817 
" style="fill:none;stroke:#b0b0b0;stroke-width:0.8;"/>
    <path d="M 57.232024 40.730342 
L 62.623407 174.842005 
L 244.674037 216.576366 
" style="fill:none;stroke:#b0b0b0;stroke-width:0.8;"/>
    <path d="M 85.85589 25.526062 
L 89.739382 157.917404 
L 269.496985 198.095948 
" style="fill:none;stroke:#b0b0b0;stroke-width:0.8;"/>
    <path d="M 113.392516 10.899296 
L 115.875164 141.604597 
L 293.383438 180.312741 
" style="fill:none;stroke:#b0b0b0;stroke-width:0.8;"/>
   </g>
   <g id="xtick_5">
    <g id="line2d_7">
     <path d="M 217.315598 235.432825 
L 221.947489 236.522608 
" style="fill:none;stroke:#000000;stroke-linecap:square;stroke-width:0.8;"/>
    </g>
    <g id="text_5">
     <!-- 00 -->
     <g transform="translate(232.650369 248.348363)rotate(-337.5)scale(0.14 -0.14)">
      <use transform="scale(0.996264)" xlink:href="#CMR17-48"/>
      <use transform="translate(45.690477 0)scale(0.996264)" xlink:href="#CMR17-48"/>
     </g>
    </g>
   </g>
   <g id="xtick_6">
    <g id="line2d_8">
     <path d="M 243.15208 216.227463 
L 247.72127 217.274932 
" style="fill:none;stroke:#000000;stroke-linecap:square;stroke-width:0.8;"/>
    </g>
    <g id="text_6">
     <!-- 01 -->
     <g transform="translate(258.203921 228.903937)rotate(-337.5)scale(0.14 -0.14)">
      <use transform="scale(0.996264)" xlink:href="#CMR17-48"/>
      <use transform="translate(45.690477 0)scale(0.996264)" xlink:href="#CMR17-49"/>
     </g>
    </g>
   </g>
   <g id="xtick_7">
    <g id="line2d_9">
     <path d="M 267.995442 197.76033 
L 272.503283 198.767901 
" style="fill:none;stroke:#000000;stroke-linecap:square;stroke-width:0.8;"/>
    </g>
    <g id="text_7">
     <!-- 10 -->
     <g transform="translate(282.775332 210.206849)rotate(-337.5)scale(0.14 -0.14)">
      <use transform="scale(0.996264)" xlink:href="#CMR17-49"/>
      <use transform="translate(45.690477 0)scale(0.996264)" xlink:href="#CMR17-48"/>
     </g>
    </g>
   </g>
   <g id="xtick_8">
    <g id="line2d_10">
     <path d="M 291.901865 179.989663 
L 296.349691 180.959573 
" style="fill:none;stroke:#000000;stroke-linecap:square;stroke-width:0.8;"/>
    </g>
    <g id="text_8">
     <!-- 11 -->
     <g transform="translate(306.420159 192.214827)rotate(-337.5)scale(0.14 -0.14)">
      <use transform="scale(0.996264)" xlink:href="#CMR17-49"/>
      <use transform="translate(45.690477 0)scale(0.996264)" xlink:href="#CMR17-49"/>
     </g>
    </g>
   </g>
  </g>
  <g id="axis3d_3">
   <g id="line2d_11">
    <path d="M 305.111665 171.581202 
L 312.491547 37.79869 
" style="fill:none;stroke:#000000;stroke-linecap:square;stroke-width:0.8;"/>
   </g>
   <g id="text_9">
    <!-- Re[$\rho$] -->
    <defs>
     <path d="M 39.203125 33.6875 
C 48.703125 35.59375 56.703125 42.015625 56.703125 50.046875 
C 56.703125 59.46875 46.09375 68 32.09375 68 
L 5.203125 68 
L 5.203125 65.390625 
C 12.09375 65.390625 13.203125 65.390625 13.203125 60.875 
L 13.203125 6.6875 
C 13.203125 2.1875 12.09375 2.1875 5.203125 2.1875 
L 5.203125 -0.40625 
C 8.09375 -0.203125 13.296875 -0.203125 16.40625 -0.203125 
C 19.5 -0.203125 24.703125 -0.203125 27.59375 -0.40625 
L 27.59375 2.1875 
C 20.703125 2.1875 19.59375 2.1875 19.59375 6.6875 
L 19.59375 33 
L 31.296875 33 
C 37 33 40.203125 30.6875 41.59375 29.390625 
C 45.59375 25.5 45.59375 22.796875 45.59375 16 
C 45.59375 9.296875 45.59375 5.890625 48.59375 2.5 
C 52.40625 -1.609375 57.5 -2 59.703125 -2 
C 67.09375 -2 68.203125 6.296875 68.203125 8 
C 68.203125 8.59375 68.203125 9.296875 67.296875 9.296875 
C 66.5 9.296875 66.40625 8.6875 66.40625 8.296875 
C 65.90625 1.796875 63 -0.40625 59.90625 -0.40625 
C 54.40625 -0.40625 53.796875 5.890625 53.203125 12 
C 52.90625 14.09375 52.703125 15.59375 52.5 17.796875 
C 51.90625 22.796875 51.09375 30.09375 39.203125 33.6875 
z
M 31 34.59375 
L 19.59375 34.59375 
L 19.59375 61.484375 
C 19.59375 64.890625 19.796875 65.390625 23.796875 65.390625 
L 31.09375 65.390625 
C 39.40625 65.390625 49.09375 62.484375 49.09375 50.046875 
C 49.09375 37.09375 38.5 34.59375 31 34.59375 
z
" id="CMR17-82"/>
     <path d="M 38.09375 23.484375 
C 38.5 23.890625 38.5 24.09375 38.5 25.09375 
C 38.5 35.171875 33.09375 44 21.703125 44 
C 11.09375 44 2.703125 33.984375 2.703125 21.78125 
C 2.703125 8.65625 12.203125 -1 22.796875 -1 
C 34 -1 38.40625 9.671875 38.40625 11.796875 
C 38.40625 12.5 37.796875 12.5 37.59375 12.5 
C 36.90625 12.5 36.796875 12.296875 36.40625 11.078125 
C 34.203125 4.21875 28.703125 0.796875 23.5 0.796875 
C 19.203125 0.796875 14.90625 3.21875 12.203125 7.65625 
C 9.09375 12.796875 9.09375 18.75 9.09375 23.484375 
z
M 9.203125 25 
C 9.90625 39.234375 17.59375 42.390625 21.59375 42.390625 
C 28.40625 42.390625 33 36.0625 33.09375 25 
z
" id="CMR17-101"/>
     <path d="M 23.5 -25 
L 23.5 -21.5 
L 14.09375 -21.5 
L 14.09375 71.484375 
L 23.5 71.484375 
L 23.5 75 
L 10.59375 75 
L 10.59375 -25 
z
" id="CMR17-91"/>
     <path d="M 3.09375 -16.953125 
C 3 -17.4375 2.796875 -18.03125 2.796875 -18.609375 
C 2.796875 -20.109375 4 -21.109375 5.5 -21.109375 
C 7 -21.109375 8.40625 -20.109375 9 -18.71875 
C 9.40625 -17.828125 12.203125 -6.09375 15.40625 6.078125 
C 17.40625 1.09375 21.09375 -1 25 -1 
C 36.296875 -1 49.09375 12.96875 49.09375 28.03125 
C 49.09375 38.703125 42.59375 44 35.703125 44 
C 26.90625 44 16.203125 34.90625 12.90625 21.640625 
z
M 24.90625 1 
C 18.09375 1 16.40625 8.875 16.40625 10.078125 
C 16.40625 10.671875 18.90625 20.140625 19.203125 21.640625 
C 24.296875 41.5 34.09375 41.984375 35.59375 41.984375 
C 40.09375 41.984375 42.59375 37.90625 42.59375 32.015625 
C 42.59375 26.9375 39.90625 17.046875 38.203125 12.859375 
C 35.203125 5.984375 30 1 24.90625 1 
z
" id="CMMI12-26"/>
     <path d="M 14.296875 75 
L 1.40625 75 
L 1.40625 71.484375 
L 10.796875 71.484375 
L 10.796875 -21.5 
L 1.40625 -21.5 
L 1.40625 -25 
L 14.296875 -25 
z
" id="CMR17-93"/>
    </defs>
    <g transform="translate(352.486567 117.931831)rotate(-86.842577)scale(0.14 -0.14)">
     <use transform="scale(0.996264)" xlink:href="#CMR17-82"/>
     <use transform="translate(67.791102 0)scale(0.996264)" xlink:href="#CMR17-101"/>
     <use transform="translate(108.276762 0)scale(0.996264)" xlink:href="#CMR17-91"/>
     <use transform="translate(133.147821 0)scale(0.996264)" xlink:href="#CMMI12-26"/>
     <use transform="translate(183.462194 0)scale(0.996264)" xlink:href="#CMR17-93"/>
    </g>
   </g>
   <g id="Line3DCollection_3">
    <path d="M 306.627961 144.093788 
L 128.350087 106.856395 
L 18.21745 173.486551 
" style="fill:none;stroke:#b0b0b0;stroke-width:0.8;"/>
    <path d="M 308.096845 117.465859 
L 127.988948 80.985969 
L 16.649263 146.283058 
" style="fill:none;stroke:#b0b0b0;stroke-width:0.8;"/>
    <path d="M 309.596466 90.280721 
L 127.620576 54.597325 
L 15.047151 118.49108 
" style="fill:none;stroke:#b0b0b0;stroke-width:0.8;"/>
    <path d="M 311.1278 62.520702 
L 127.24475 27.674732 
L 13.410002 90.091311 
" style="fill:none;stroke:#b0b0b0;stroke-width:0.8;"/>
   </g>
   <g id="xtick_9">
    <g id="line2d_12">
     <path d="M 305.139887 143.78297 
L 309.607235 144.716078 
" style="fill:none;stroke:#000000;stroke-linecap:square;stroke-width:0.8;"/>
    </g>
    <g id="text_10">
     <!-- $0.1$ -->
     <defs>
      <path d="M 18.40625 4.796875 
C 18.40625 7.6875 16 9.6875 13.59375 9.6875 
C 10.703125 9.6875 8.703125 7.296875 8.703125 4.890625 
C 8.703125 2 11.09375 0 13.5 0 
C 16.40625 0 18.40625 2.390625 18.40625 4.796875 
z
" id="CMMI12-58"/>
     </defs>
     <g transform="translate(316.608578 151.873291)scale(0.14 -0.14)">
      <use transform="scale(0.996264)" xlink:href="#CMR17-48"/>
      <use transform="translate(45.690477 0)scale(0.996264)" xlink:href="#CMMI12-58"/>
      <use transform="translate(72.787654 0)scale(0.996264)" xlink:href="#CMR17-49"/>
     </g>
    </g>
   </g>
   <g id="xtick_10">
    <g id="line2d_13">
     <path d="M 306.592849 117.161232 
L 311.108028 118.075758 
" style="fill:none;stroke:#000000;stroke-linecap:square;stroke-width:0.8;"/>
    </g>
    <g id="text_11">
     <!-- $0.2$ -->
     <defs>
      <path d="M 41.703125 15.46875 
L 39.90625 15.46875 
C 38.90625 8.390625 38.09375 7.1875 37.703125 6.59375 
C 37.203125 5.796875 30 5.796875 28.59375 5.796875 
L 9.40625 5.796875 
C 13 9.6875 20 16.765625 28.5 24.9375 
C 34.59375 30.71875 41.703125 37.5 41.703125 47.390625 
C 41.703125 59.1875 32.296875 66 21.796875 66 
C 10.796875 66 4.09375 56.296875 4.09375 47.296875 
C 4.09375 43.390625 7 42.890625 8.203125 42.890625 
C 9.203125 42.890625 12.203125 43.484375 12.203125 46.984375 
C 12.203125 50.09375 9.59375 51 8.203125 51 
C 7.59375 51 7 50.890625 6.59375 50.6875 
C 8.5 59.1875 14.296875 63.390625 20.40625 63.390625 
C 29.09375 63.390625 34.796875 56.5 34.796875 47.390625 
C 34.796875 38.703125 29.703125 31.21875 24 24.734375 
L 4.09375 2.296875 
L 4.09375 0 
L 39.296875 0 
z
" id="CMR17-50"/>
     </defs>
     <g transform="translate(318.267549 125.283373)scale(0.14 -0.14)">
      <use transform="scale(0.996264)" xlink:href="#CMR17-48"/>
      <use transform="translate(45.690477 0)scale(0.996264)" xlink:href="#CMMI12-58"/>
      <use transform="translate(72.787654 0)scale(0.996264)" xlink:href="#CMR17-50"/>
     </g>
    </g>
   </g>
   <g id="xtick_11">
    <g id="line2d_14">
     <path d="M 308.076204 89.982615 
L 312.64025 90.877573 
" style="fill:none;stroke:#000000;stroke-linecap:square;stroke-width:0.8;"/>
    </g>
    <g id="text_12">
     <!-- $0.3$ -->
     <defs>
      <path d="M 22.09375 34 
C 31 34 34.90625 26.140625 34.90625 17.09375 
C 34.90625 5.03125 28.5 0.390625 22.703125 0.390625 
C 17.40625 0.390625 8.796875 3.015625 6.09375 10.796875 
C 6.59375 10.59375 7.09375 10.59375 7.59375 10.59375 
C 10 10.59375 11.796875 12.1875 11.796875 14.796875 
C 11.796875 17.6875 9.59375 19 7.59375 19 
C 5.90625 19 3.296875 18.1875 3.296875 14.484375 
C 3.296875 5.234375 12.296875 -2 22.90625 -2 
C 34 -2 42.5 6.75 42.5 16.984375 
C 42.5 26.84375 34.5 34 25 35.09375 
C 32.59375 36.671875 39.90625 43.375 39.90625 52.390625 
C 39.90625 60.25 32 66 23 66 
C 13.90625 66 5.90625 60.34375 5.90625 52.296875 
C 5.90625 48.796875 8.5 48.1875 9.796875 48.1875 
C 11.90625 48.1875 13.703125 49.484375 13.703125 52.09375 
C 13.703125 54.6875 11.90625 56 9.796875 56 
C 9.40625 56 8.90625 56 8.5 55.796875 
C 11.40625 62.484375 19.296875 63.6875 22.796875 63.6875 
C 26.296875 63.6875 32.90625 61.96875 32.90625 52.296875 
C 32.90625 49.484375 32.5 44.546875 29.09375 40.21875 
C 26.09375 36.390625 22.703125 36.1875 19.40625 35.890625 
C 18.90625 35.890625 16.59375 35.6875 16.203125 35.6875 
C 15.5 35.59375 15.09375 35.5 15.09375 34.796875 
C 15.09375 34.09375 15.203125 34 17.203125 34 
z
" id="CMR17-51"/>
     </defs>
     <g transform="translate(319.96116 98.138261)scale(0.14 -0.14)">
      <use transform="scale(0.996264)" xlink:href="#CMR17-48"/>
      <use transform="translate(45.690477 0)scale(0.996264)" xlink:href="#CMMI12-58"/>
      <use transform="translate(72.787654 0)scale(0.996264)" xlink:href="#CMR17-51"/>
     </g>
    </g>
   </g>
   <g id="xtick_12">
    <g id="line2d_15">
     <path d="M 309.590917 62.229461 
L 314.204896 63.103814 
" style="fill:none;stroke:#000000;stroke-linecap:square;stroke-width:0.8;"/>
    </g>
    <g id="text_13">
     <!-- $0.4$ -->
     <defs>
      <path d="M 33.59375 64.796875 
C 33.59375 66.890625 33.5 67 31.703125 67 
L 2 19.59375 
L 2 17 
L 27.796875 17 
L 27.796875 7.1875 
C 27.796875 3.59375 27.59375 2.59375 20.59375 2.59375 
L 18.703125 2.59375 
L 18.703125 0 
C 21.90625 0.1875 27.296875 0.1875 30.703125 0.1875 
C 34.09375 0.1875 39.5 0.1875 42.703125 0 
L 42.703125 2.59375 
L 40.796875 2.59375 
C 33.796875 2.59375 33.59375 3.59375 33.59375 7.1875 
L 33.59375 17 
L 43.796875 17 
L 43.796875 19.59375 
L 33.59375 19.59375 
z
M 28.09375 58.171875 
L 28.09375 19.59375 
L 4 19.59375 
z
" id="CMR17-52"/>
     </defs>
     <g transform="translate(321.690505 70.420384)scale(0.14 -0.14)">
      <use transform="scale(0.996264)" xlink:href="#CMR17-48"/>
      <use transform="translate(45.690477 0)scale(0.996264)" xlink:href="#CMMI12-58"/>
      <use transform="translate(72.787654 0)scale(0.996264)" xlink:href="#CMR17-52"/>
     </g>
    </g>
   </g>
  </g>
  <g id="axes_1">
   <g id="Poly3DCollection_1">
    <path clip-path="url(#peabfbb9980)" d="M 133.065512 138.595112 
L 133.051747 137.476151 
L 154.438688 142.098609 
L 154.443194 143.221414 
z
" style="fill:#5d0618;fill-opacity:0.8;"/>
    <path clip-path="url(#peabfbb9980)" d="M 120.290622 146.638946 
L 120.271134 145.513314 
L 133.051747 137.476151 
L 133.065512 138.595112 
z
" style="fill:#ba0c2f;fill-opacity:0.8;"/>
    <path clip-path="url(#peabfbb9980)" d="M 120.290622 146.638946 
L 133.065512 138.595112 
L 154.443194 143.221414 
L 141.796499 151.350122 
z
" style="fill:#74081d;fill-opacity:0.8;"/>
    <path clip-path="url(#peabfbb9980)" d="M 120.271134 145.513314 
L 141.786381 150.220613 
L 154.438688 142.098609 
L 133.051747 137.476151 
z
" style="fill:#a30a29;fill-opacity:0.8;"/>
    <path clip-path="url(#peabfbb9980)" d="M 141.796499 151.350122 
L 154.443194 143.221414 
L 154.438688 142.098609 
L 141.786381 150.220613 
z
" style="fill:#5d0618;fill-opacity:0.8;"/>
    <path clip-path="url(#peabfbb9980)" d="M 120.290622 146.638946 
L 141.796499 151.350122 
L 141.786381 150.220613 
L 120.271134 145.513314 
z
" style="fill:#ba0c2f;fill-opacity:0.8;"/>
   </g>
   <g id="Poly3DCollection_2">
    <path clip-path="url(#peabfbb9980)" d="M 176.046005 147.896436 
L 176.055141 145.816305 
L 197.904483 150.533648 
L 197.877521 152.620951 
z
" style="fill:#5d0618;fill-opacity:0.8;"/>
    <path clip-path="url(#peabfbb9980)" d="M 163.53094 156.111369 
L 163.529928 154.018793 
L 176.055141 145.816305 
L 176.046005 147.896436 
z
" style="fill:#ba0c2f;fill-opacity:0.8;"/>
    <path clip-path="url(#peabfbb9980)" d="M 163.53094 156.111369 
L 176.046005 147.896436 
L 197.877521 152.620951 
L 185.497608 160.923489 
z
" style="fill:#74081d;fill-opacity:0.8;"/>
    <path clip-path="url(#peabfbb9980)" d="M 163.529928 154.018793 
L 185.514645 158.823679 
L 197.904483 150.533648 
L 176.055141 145.816305 
z
" style="fill:#a30a29;fill-opacity:0.8;"/>
    <path clip-path="url(#peabfbb9980)" d="M 185.497608 160.923489 
L 197.877521 152.620951 
L 197.904483 150.533648 
L 185.514645 158.823679 
z
" style="fill:#5d0618;fill-opacity:0.8;"/>
    <path clip-path="url(#peabfbb9980)" d="M 163.53094 156.111369 
L 185.497608 160.923489 
L 185.514645 158.823679 
L 163.529928 154.018793 
z
" style="fill:#ba0c2f;fill-opacity:0.8;"/>
   </g>
   <g id="Poly3DCollection_3">
    <path clip-path="url(#peabfbb9980)" d="M 107.280904 154.830641 
L 107.134093 148.29072 
L 128.824044 153.06647 
L 128.916092 159.62905 
z
" style="fill:#5d0618;fill-opacity:0.8;"/>
    <path clip-path="url(#peabfbb9980)" d="M 94.029822 163.174313 
L 93.847492 156.595076 
L 107.134093 148.29072 
L 107.280904 154.830641 
z
" style="fill:#ba0c2f;fill-opacity:0.8;"/>
    <path clip-path="url(#peabfbb9980)" d="M 94.029822 163.174313 
L 107.280904 154.830641 
L 128.916092 159.62905 
L 115.795435 168.062399 
z
" style="fill:#74081d;fill-opacity:0.8;"/>
    <path clip-path="url(#peabfbb9980)" d="M 93.847492 156.595076 
L 115.668524 161.460311 
L 128.824044 153.06647 
L 107.134093 148.29072 
z
" style="fill:#a30a29;fill-opacity:0.8;"/>
    <path clip-path="url(#peabfbb9980)" d="M 115.795435 168.062399 
L 128.916092 159.62905 
L 128.824044 153.06647 
L 115.668524 161.460311 
z
" style="fill:#5d0618;fill-opacity:0.8;"/>
    <path clip-path="url(#peabfbb9980)" d="M 94.029822 163.174313 
L 115.795435 168.062399 
L 115.668524 161.460311 
L 93.847492 156.595076 
z
" style="fill:#ba0c2f;fill-opacity:0.8;"/>
   </g>
   <g id="Poly3DCollection_4">
    <path clip-path="url(#peabfbb9980)" d="M 219.941391 157.39575 
L 220.078314 151.04671 
L 242.434643 155.850587 
L 242.241346 162.221639 
z
" style="fill:#5d0618;fill-opacity:0.8;"/>
    <path clip-path="url(#peabfbb9980)" d="M 207.700244 165.7873 
L 207.807782 159.400068 
L 220.078314 151.04671 
L 219.941391 157.39575 
z
" style="fill:#ba0c2f;fill-opacity:0.8;"/>
    <path clip-path="url(#peabfbb9980)" d="M 207.700244 165.7873 
L 219.941391 157.39575 
L 242.241346 162.221639 
L 230.142672 170.703642 
z
" style="fill:#74081d;fill-opacity:0.8;"/>
    <path clip-path="url(#peabfbb9980)" d="M 207.807782 159.400068 
L 230.307311 164.294212 
L 242.434643 155.850587 
L 220.078314 151.04671 
z
" style="fill:#a30a29;fill-opacity:0.8;"/>
    <path clip-path="url(#peabfbb9980)" d="M 230.142672 170.703642 
L 242.241346 162.221639 
L 242.434643 155.850587 
L 230.307311 164.294212 
z
" style="fill:#5d0618;fill-opacity:0.8;"/>
    <path clip-path="url(#peabfbb9980)" d="M 207.700244 165.7873 
L 230.142672 170.703642 
L 230.307311 164.294212 
L 207.807782 159.400068 
z
" style="fill:#ba0c2f;fill-opacity:0.8;"/>
   </g>
   <g id="Poly3DCollection_5">
    <path clip-path="url(#peabfbb9980)" d="M 150.783355 164.478929 
L 150.775454 163.037524 
L 172.891057 167.934715 
L 172.886446 169.381112 
z
" style="fill:#5d0618;fill-opacity:0.8;"/>
    <path clip-path="url(#peabfbb9980)" d="M 137.79671 173.003409 
L 137.781328 171.553342 
L 150.775454 163.037524 
L 150.783355 164.478929 
z
" style="fill:#ba0c2f;fill-opacity:0.8;"/>
    <path clip-path="url(#peabfbb9980)" d="M 137.79671 173.003409 
L 150.783355 164.478929 
L 172.886446 169.381112 
L 160.037495 177.998208 
z
" style="fill:#74081d;fill-opacity:0.8;"/>
    <path clip-path="url(#peabfbb9980)" d="M 137.781328 171.553342 
L 160.034782 176.543108 
L 172.891057 167.934715 
L 150.775454 163.037524 
z
" style="fill:#a30a29;fill-opacity:0.8;"/>
    <path clip-path="url(#peabfbb9980)" d="M 160.037495 177.998208 
L 172.886446 169.381112 
L 172.891057 167.934715 
L 160.034782 176.543108 
z
" style="fill:#5d0618;fill-opacity:0.8;"/>
    <path clip-path="url(#peabfbb9980)" d="M 137.79671 173.003409 
L 160.037495 177.998208 
L 160.034782 176.543108 
L 137.781328 171.553342 
z
" style="fill:#ba0c2f;fill-opacity:0.8;"/>
   </g>
   <g id="Poly3DCollection_6">
    <path clip-path="url(#peabfbb9980)" d="M 80.530598 171.67423 
L 80.287835 164.342612 
L 102.247104 169.29738 
L 102.427742 176.654531 
z
" style="fill:#5d0618;fill-opacity:0.8;"/>
    <path clip-path="url(#peabfbb9980)" d="M 66.776196 180.334823 
L 66.491118 172.958904 
L 80.287835 164.342612 
L 80.530598 171.67423 
z
" style="fill:#ba0c2f;fill-opacity:0.8;"/>
    <path clip-path="url(#peabfbb9980)" d="M 66.776196 180.334823 
L 80.530598 171.67423 
L 102.427742 176.654531 
L 88.80597 185.409973 
z
" style="fill:#74081d;fill-opacity:0.8;"/>
    <path clip-path="url(#peabfbb9980)" d="M 66.491118 172.958904 
L 88.583764 178.008311 
L 102.247104 169.29738 
L 80.287835 164.342612 
z
" style="fill:#a30a29;fill-opacity:0.8;"/>
    <path clip-path="url(#peabfbb9980)" d="M 88.80597 185.409973 
L 102.427742 176.654531 
L 102.247104 169.29738 
L 88.583764 178.008311 
z
" style="fill:#5d0618;fill-opacity:0.8;"/>
    <path clip-path="url(#peabfbb9980)" d="M 66.776196 180.334823 
L 88.80597 185.409973 
L 88.583764 178.008311 
L 66.491118 172.958904 
z
" style="fill:#ba0c2f;fill-opacity:0.8;"/>
   </g>
   <g id="Poly3DCollection_7">
    <path clip-path="url(#peabfbb9980)" d="M 264.781195 167.099443 
L 265.654947 144.833616 
L 288.643483 149.686019 
L 287.56483 172.030005 
z
" style="fill:#5d0618;fill-opacity:0.8;"/>
    <path clip-path="url(#peabfbb9980)" d="M 252.828796 175.673369 
L 264.781195 167.099443 
L 287.56483 172.030005 
L 275.76261 180.697356 
z
" style="fill:#74081d;fill-opacity:0.8;"/>
    <path clip-path="url(#peabfbb9980)" d="M 252.828796 175.673369 
L 253.605426 153.271924 
L 265.654947 144.833616 
L 264.781195 167.099443 
z
" style="fill:#ba0c2f;fill-opacity:0.8;"/>
    <path clip-path="url(#peabfbb9980)" d="M 275.76261 180.697356 
L 287.56483 172.030005 
L 288.643483 149.686019 
L 276.746891 158.217089 
z
" style="fill:#5d0618;fill-opacity:0.8;"/>
    <path clip-path="url(#peabfbb9980)" d="M 253.605426 153.271924 
L 276.746891 158.217089 
L 288.643483 149.686019 
L 265.654947 144.833616 
z
" style="fill:#a30a29;fill-opacity:0.8;"/>
    <path clip-path="url(#peabfbb9980)" d="M 252.828796 175.673369 
L 275.76261 180.697356 
L 276.746891 158.217089 
L 253.605426 153.271924 
z
" style="fill:#ba0c2f;fill-opacity:0.8;"/>
   </g>
   <g id="Poly3DCollection_8">
    <path clip-path="url(#peabfbb9980)" d="M 240.649464 184.410084 
L 240.843433 177.93947 
L 263.98945 183.036971 
L 263.735071 189.530177 
z
" style="fill:#5d0618;fill-opacity:0.8;"/>
    <path clip-path="url(#peabfbb9980)" d="M 228.236672 193.314269 
L 228.40047 186.804458 
L 240.843433 177.93947 
L 240.649464 184.410084 
z
" style="fill:#ba0c2f;fill-opacity:0.8;"/>
    <path clip-path="url(#peabfbb9980)" d="M 228.236672 193.314269 
L 240.649464 184.410084 
L 263.735071 189.530177 
L 251.4757 198.533252 
z
" style="fill:#74081d;fill-opacity:0.8;"/>
    <path clip-path="url(#peabfbb9980)" d="M 228.40047 186.804458 
L 251.700722 192.000669 
L 263.98945 183.036971 
L 240.843433 177.93947 
z
" style="fill:#a30a29;fill-opacity:0.8;"/>
    <path clip-path="url(#peabfbb9980)" d="M 251.4757 198.533252 
L 263.735071 189.530177 
L 263.98945 183.036971 
L 251.700722 192.000669 
z
" style="fill:#5d0618;fill-opacity:0.8;"/>
    <path clip-path="url(#peabfbb9980)" d="M 228.236672 193.314269 
L 251.4757 198.533252 
L 251.700722 192.000669 
L 228.40047 186.804458 
z
" style="fill:#ba0c2f;fill-opacity:0.8;"/>
   </g>
   <g id="Poly3DCollection_9">
    <path clip-path="url(#peabfbb9980)" d="M 111.078825 190.541124 
L 124.564216 181.689265 
L 146.943965 186.77933 
L 133.598806 195.729206 
z
" style="fill:#74081d;fill-opacity:0.8;"/>
    <path clip-path="url(#peabfbb9980)" d="M 124.564216 181.689265 
L 124.119539 153.661815 
L 146.745722 158.65277 
L 146.943965 186.77933 
z
" style="fill:#5d0618;fill-opacity:0.8;"/>
    <path clip-path="url(#peabfbb9980)" d="M 111.078825 190.541124 
L 110.479256 162.341706 
L 124.119539 153.661815 
L 124.564216 181.689265 
z
" style="fill:#ba0c2f;fill-opacity:0.8;"/>
    <path clip-path="url(#peabfbb9980)" d="M 133.598806 195.729206 
L 146.943965 186.77933 
L 146.745722 158.65277 
L 133.248772 167.429851 
z
" style="fill:#5d0618;fill-opacity:0.8;"/>
    <path clip-path="url(#peabfbb9980)" d="M 111.078825 190.541124 
L 133.598806 195.729206 
L 133.248772 167.429851 
L 110.479256 162.341706 
z
" style="fill:#ba0c2f;fill-opacity:0.8;"/>
    <path clip-path="url(#peabfbb9980)" d="M 110.479256 162.341706 
L 133.248772 167.429851 
L 146.745722 158.65277 
L 124.119539 153.661815 
z
" style="fill:#a30a29;fill-opacity:0.8;"/>
   </g>
   <g id="Poly3DCollection_10">
    <path clip-path="url(#peabfbb9980)" d="M 169.571023 191.925643 
L 169.573818 190.456671 
L 192.465712 195.655048 
L 192.449511 197.129142 
z
" style="fill:#5d0618;fill-opacity:0.8;"/>
    <path clip-path="url(#peabfbb9980)" d="M 156.37005 200.975174 
L 156.365115 199.497317 
L 169.573818 190.456671 
L 169.571023 191.925643 
z
" style="fill:#ba0c2f;fill-opacity:0.8;"/>
    <path clip-path="url(#peabfbb9980)" d="M 156.37005 200.975174 
L 169.571023 191.925643 
L 192.449511 197.129142 
L 179.396785 206.28 
z
" style="fill:#74081d;fill-opacity:0.8;"/>
    <path clip-path="url(#peabfbb9980)" d="M 156.365115 199.497317 
L 179.40543 204.796983 
L 192.465712 195.655048 
L 169.573818 190.456671 
z
" style="fill:#a30a29;fill-opacity:0.8;"/>
    <path clip-path="url(#peabfbb9980)" d="M 179.396785 206.28 
L 192.449511 197.129142 
L 192.465712 195.655048 
L 179.40543 204.796983 
z
" style="fill:#5d0618;fill-opacity:0.8;"/>
    <path clip-path="url(#peabfbb9980)" d="M 156.37005 200.975174 
L 179.396785 206.28 
L 179.40543 204.796983 
L 156.365115 199.497317 
z
" style="fill:#ba0c2f;fill-opacity:0.8;"/>
   </g>
   <g id="Poly3DCollection_11">
    <path clip-path="url(#peabfbb9980)" d="M 97.333218 199.563789 
L 97.132945 192.091185 
L 119.860976 197.353956 
L 119.994695 204.852748 
z
" style="fill:#5d0618;fill-opacity:0.8;"/>
    <path clip-path="url(#peabfbb9980)" d="M 83.319789 208.762253 
L 83.075535 201.244217 
L 97.132945 192.091185 
L 97.333218 199.563789 
z
" style="fill:#ba0c2f;fill-opacity:0.8;"/>
    <path clip-path="url(#peabfbb9980)" d="M 83.319789 208.762253 
L 97.333218 199.563789 
L 119.994695 204.852748 
L 106.124019 214.155059 
z
" style="fill:#74081d;fill-opacity:0.8;"/>
    <path clip-path="url(#peabfbb9980)" d="M 83.075535 201.244217 
L 105.947154 206.610634 
L 119.860976 197.353956 
L 97.132945 192.091185 
z
" style="fill:#a30a29;fill-opacity:0.8;"/>
    <path clip-path="url(#peabfbb9980)" d="M 106.124019 214.155059 
L 119.994695 204.852748 
L 119.860976 197.353956 
L 105.947154 206.610634 
z
" style="fill:#5d0618;fill-opacity:0.8;"/>
    <path clip-path="url(#peabfbb9980)" d="M 83.319789 208.762253 
L 106.124019 214.155059 
L 105.947154 206.610634 
L 83.075535 201.244217 
z
" style="fill:#ba0c2f;fill-opacity:0.8;"/>
   </g>
   <g id="Poly3DCollection_12">
    <path clip-path="url(#peabfbb9980)" d="M 215.583643 202.390784 
L 215.627323 200.230382 
L 239.041876 205.543599 
L 238.977729 207.71155 
z
" style="fill:#5d0618;fill-opacity:0.8;"/>
    <path clip-path="url(#peabfbb9980)" d="M 202.683335 211.644683 
L 202.716245 209.471184 
L 215.627323 200.230382 
L 215.583643 202.390784 
z
" style="fill:#ba0c2f;fill-opacity:0.8;"/>
    <path clip-path="url(#peabfbb9980)" d="M 202.683335 211.644683 
L 215.583643 202.390784 
L 238.977729 207.71155 
L 226.234123 217.070239 
z
" style="fill:#74081d;fill-opacity:0.8;"/>
    <path clip-path="url(#peabfbb9980)" d="M 202.716245 209.471184 
L 226.287777 214.889134 
L 239.041876 205.543599 
L 215.627323 200.230382 
z
" style="fill:#a30a29;fill-opacity:0.8;"/>
    <path clip-path="url(#peabfbb9980)" d="M 226.234123 217.070239 
L 238.977729 207.71155 
L 239.041876 205.543599 
L 226.287777 214.889134 
z
" style="fill:#5d0618;fill-opacity:0.8;"/>
    <path clip-path="url(#peabfbb9980)" d="M 202.683335 211.644683 
L 226.234123 217.070239 
L 226.287777 214.889134 
L 202.716245 209.471184 
z
" style="fill:#ba0c2f;fill-opacity:0.8;"/>
   </g>
   <g id="Poly3DCollection_13">
    <path clip-path="url(#peabfbb9980)" d="M 182.521723 183.04768 
L 195.2292 174.33645 
L 217.815538 179.345811 
L 205.253412 188.152726 
z
" style="fill:#74081d;fill-opacity:0.8;"/>
    <path clip-path="url(#peabfbb9980)" d="M 195.2292 174.33645 
L 196.290472 85.792716 
L 219.674162 90.478024 
L 217.815538 179.345811 
z
" style="fill:#5d0618;fill-opacity:0.8;"/>
    <path clip-path="url(#peabfbb9980)" d="M 182.521723 183.04768 
L 183.146326 93.941565 
L 196.290472 85.792716 
L 195.2292 174.33645 
z
" style="fill:#ba0c2f;fill-opacity:0.8;"/>
    <path clip-path="url(#peabfbb9980)" d="M 205.253412 188.152726 
L 217.815538 179.345811 
L 219.674162 90.478024 
L 206.685892 98.719541 
z
" style="fill:#5d0618;fill-opacity:0.8;"/>
    <path clip-path="url(#peabfbb9980)" d="M 182.521723 183.04768 
L 205.253412 188.152726 
L 206.685892 98.719541 
L 183.146326 93.941565 
z
" style="fill:#ba0c2f;fill-opacity:0.8;"/>
    <path clip-path="url(#peabfbb9980)" d="M 183.146326 93.941565 
L 206.685892 98.719541 
L 219.674162 90.478024 
L 196.290472 85.792716 
z
" style="fill:#a30a29;fill-opacity:0.8;"/>
   </g>
   <g id="Poly3DCollection_14">
    <path clip-path="url(#peabfbb9980)" d="M 142.91148 210.201293 
L 142.852216 203.407818 
L 166.091509 208.793122 
L 166.087911 215.610437 
z
" style="fill:#5d0618;fill-opacity:0.8;"/>
    <path clip-path="url(#peabfbb9980)" d="M 129.187696 219.60922 
L 129.090269 212.774387 
L 142.852216 203.407818 
L 142.91148 210.201293 
z
" style="fill:#ba0c2f;fill-opacity:0.8;"/>
    <path clip-path="url(#peabfbb9980)" d="M 129.187696 219.60922 
L 142.91148 210.201293 
L 166.087911 215.610437 
L 152.515275 225.125789 
z
" style="fill:#74081d;fill-opacity:0.8;"/>
    <path clip-path="url(#peabfbb9980)" d="M 129.090269 212.774387 
L 152.48153 218.266938 
L 166.091509 208.793122 
L 142.852216 203.407818 
z
" style="fill:#a30a29;fill-opacity:0.8;"/>
    <path clip-path="url(#peabfbb9980)" d="M 152.515275 225.125789 
L 166.087911 215.610437 
L 166.091509 208.793122 
L 152.48153 218.266938 
z
" style="fill:#5d0618;fill-opacity:0.8;"/>
    <path clip-path="url(#peabfbb9980)" d="M 129.187696 219.60922 
L 152.515275 225.125789 
L 152.48153 218.266938 
L 129.090269 212.774387 
z
" style="fill:#ba0c2f;fill-opacity:0.8;"/>
   </g>
   <g id="Poly3DCollection_15">
    <path clip-path="url(#peabfbb9980)" d="M 189.528428 221.081215 
L 189.540183 219.896865 
L 213.260712 225.42619 
L 213.237569 226.614688 
z
" style="fill:#5d0618;fill-opacity:0.8;"/>
    <path clip-path="url(#peabfbb9980)" d="M 176.111309 230.705843 
L 176.116748 229.514298 
L 189.540183 219.896865 
L 189.528428 221.081215 
z
" style="fill:#ba0c2f;fill-opacity:0.8;"/>
    <path clip-path="url(#peabfbb9980)" d="M 176.111309 230.705843 
L 189.528428 221.081215 
L 213.237569 226.614688 
L 199.980461 236.350484 
z
" style="fill:#74081d;fill-opacity:0.8;"/>
    <path clip-path="url(#peabfbb9980)" d="M 176.116748 229.514298 
L 199.997442 235.154762 
L 213.260712 225.42619 
L 189.540183 219.896865 
z
" style="fill:#a30a29;fill-opacity:0.8;"/>
    <path clip-path="url(#peabfbb9980)" d="M 199.980461 236.350484 
L 213.237569 226.614688 
L 213.260712 225.42619 
L 199.997442 235.154762 
z
" style="fill:#5d0618;fill-opacity:0.8;"/>
    <path clip-path="url(#peabfbb9980)" d="M 176.111309 230.705843 
L 199.980461 236.350484 
L 199.997442 235.154762 
L 176.116748 229.514298 
z
" style="fill:#ba0c2f;fill-opacity:0.8;"/>
   </g>
   <g id="Poly3DCollection_16">
    <path clip-path="url(#peabfbb9980)" d="M 38.472355 198.156611 
L 52.75931 189.160691 
L 74.922806 194.333426 
L 60.770653 203.429773 
z
" style="fill:#74081d;fill-opacity:0.8;"/>
    <path clip-path="url(#peabfbb9980)" d="M 52.75931 189.160691 
L 46.933544 57.750519 
L 70.222556 62.427839 
L 74.922806 194.333426 
z
" style="fill:#5d0618;fill-opacity:0.8;"/>
    <path clip-path="url(#peabfbb9980)" d="M 38.472355 198.156611 
L 31.836896 65.886594 
L 46.933544 57.750519 
L 52.75931 189.160691 
z
" style="fill:#ba0c2f;fill-opacity:0.8;"/>
    <path clip-path="url(#peabfbb9980)" d="M 60.770653 203.429773 
L 74.922806 194.333426 
L 70.222556 62.427839 
L 55.274545 70.659531 
z
" style="fill:#5d0618;fill-opacity:0.8;"/>
    <path clip-path="url(#peabfbb9980)" d="M 38.472355 198.156611 
L 60.770653 203.429773 
L 55.274545 70.659531 
L 31.836896 65.886594 
z
" style="fill:#ba0c2f;fill-opacity:0.8;"/>
    <path clip-path="url(#peabfbb9980)" d="M 31.836896 65.886594 
L 55.274545 70.659531 
L 70.222556 62.427839 
L 46.933544 57.750519 
z
" style="fill:#a30a29;fill-opacity:0.8;"/>
   </g>
  </g>
  <g id="patch_6">
   <path d="M 425.945455 262.8 
L 806.4 262.8 
L 806.4 -14.4 
L 425.945455 -14.4 
z
" style="fill:#ffffff;"/>
  </g>
  <g id="pane3d_4">
   <g id="patch_7">
    <path d="M 476.380584 201.548569 
L 585.268665 133.58541 
L 583.455794 3.718968 
L 468.496488 64.782468 
" style="fill:#f2f2f2;opacity:0.5;stroke:#f2f2f2;stroke-linejoin:miter;"/>
   </g>
  </g>
  <g id="pane3d_5">
   <g id="patch_8">
    <path d="M 585.268665 133.58541 
L 761.65712 171.581202 
L 769.037001 37.79869 
L 583.455794 3.718968 
" style="fill:#e6e6e6;opacity:0.5;stroke:#e6e6e6;stroke-linejoin:miter;"/>
   </g>
  </g>
  <g id="pane3d_6">
   <g id="patch_9">
    <path d="M 476.380584 201.548569 
L 661.965072 245.80086 
L 761.65712 171.581202 
L 585.268665 133.58541 
" style="fill:#ececec;opacity:0.5;stroke:#ececec;stroke-linejoin:miter;"/>
   </g>
  </g>
  <g id="axis3d_4">
   <g id="line2d_16">
    <path d="M 476.380584 201.548569 
L 661.965072 245.80086 
" style="fill:none;stroke:#000000;stroke-linecap:square;stroke-width:0.8;"/>
   </g>
   <g id="Line3DCollection_4">
    <path d="M 498.841271 206.90428 
L 606.679397 138.19749 
L 605.9393 7.847789 
" style="fill:none;stroke:#b0b0b0;stroke-width:0.8;"/>
    <path d="M 544.057792 217.686079 
L 649.729469 147.470895 
L 651.182353 16.156123 
" style="fill:none;stroke:#b0b0b0;stroke-width:0.8;"/>
    <path d="M 590.310744 228.715013 
L 693.693551 156.941187 
L 697.435637 24.649974 
" style="fill:none;stroke:#b0b0b0;stroke-width:0.8;"/>
    <path d="M 637.636176 239.999678 
L 738.601063 166.614702 
L 744.733372 33.335625 
" style="fill:none;stroke:#b0b0b0;stroke-width:0.8;"/>
   </g>
   <g id="xtick_13">
    <g id="line2d_17">
     <path d="M 499.770538 206.312217 
L 496.979262 208.09062 
" style="fill:none;stroke:#000000;stroke-linecap:square;stroke-width:0.8;"/>
    </g>
    <g id="text_14">
     <!-- 00 -->
     <g transform="translate(479.875817 237.14703)rotate(-45)scale(0.14 -0.14)">
      <use transform="scale(0.996264)" xlink:href="#CMR17-48"/>
      <use transform="translate(45.690477 0)scale(0.996264)" xlink:href="#CMR17-48"/>
     </g>
    </g>
   </g>
   <g id="xtick_14">
    <g id="line2d_18">
     <path d="M 544.969128 217.080527 
L 542.231671 218.899473 
" style="fill:none;stroke:#000000;stroke-linecap:square;stroke-width:0.8;"/>
    </g>
    <g id="text_15">
     <!-- 01 -->
     <g transform="translate(525.088242 248.103782)rotate(-45)scale(0.14 -0.14)">
      <use transform="scale(0.996264)" xlink:href="#CMR17-48"/>
      <use transform="translate(45.690477 0)scale(0.996264)" xlink:href="#CMR17-49"/>
     </g>
    </g>
   </g>
   <g id="xtick_15">
    <g id="line2d_19">
     <path d="M 591.20308 228.095506 
L 588.522658 229.956397 
" style="fill:none;stroke:#000000;stroke-linecap:square;stroke-width:0.8;"/>
    </g>
    <g id="text_16">
     <!-- 10 -->
     <g transform="translate(571.338855 259.312128)rotate(-45)scale(0.14 -0.14)">
      <use transform="scale(0.996264)" xlink:href="#CMR17-49"/>
      <use transform="translate(45.690477 0)scale(0.996264)" xlink:href="#CMR17-48"/>
     </g>
    </g>
   </g>
   <g id="xtick_16">
    <g id="line2d_20">
     <path d="M 638.50838 239.365727 
L 635.888391 241.270032 
" style="fill:none;stroke:#000000;stroke-linecap:square;stroke-width:0.8;"/>
    </g>
    <g id="text_17">
     <!-- 11 -->
     <g transform="translate(618.66383 270.780834)rotate(-45)scale(0.14 -0.14)">
      <use transform="scale(0.996264)" xlink:href="#CMR17-49"/>
      <use transform="translate(45.690477 0)scale(0.996264)" xlink:href="#CMR17-49"/>
     </g>
    </g>
   </g>
  </g>
  <g id="axis3d_5">
   <g id="line2d_21">
    <path d="M 761.65712 171.581202 
L 661.965072 245.80086 
" style="fill:none;stroke:#000000;stroke-linecap:square;stroke-width:0.8;"/>
   </g>
   <g id="Line3DCollection_5">
    <path d="M 484.000685 56.547028 
L 491.016499 192.413474 
L 675.403872 235.795817 
" style="fill:none;stroke:#b0b0b0;stroke-width:0.8;"/>
    <path d="M 513.777478 40.730342 
L 519.168861 174.842005 
L 701.219492 216.576366 
" style="fill:none;stroke:#b0b0b0;stroke-width:0.8;"/>
    <path d="M 542.401344 25.526062 
L 546.284836 157.917404 
L 726.04244 198.095948 
" style="fill:none;stroke:#b0b0b0;stroke-width:0.8;"/>
    <path d="M 569.937971 10.899296 
L 572.420618 141.604597 
L 749.928893 180.312741 
" style="fill:none;stroke:#b0b0b0;stroke-width:0.8;"/>
   </g>
   <g id="xtick_17">
    <g id="line2d_22">
     <path d="M 673.861052 235.432825 
L 678.492943 236.522608 
" style="fill:none;stroke:#000000;stroke-linecap:square;stroke-width:0.8;"/>
    </g>
    <g id="text_18">
     <!-- 00 -->
     <g transform="translate(689.195824 248.348363)rotate(-337.5)scale(0.14 -0.14)">
      <use transform="scale(0.996264)" xlink:href="#CMR17-48"/>
      <use transform="translate(45.690477 0)scale(0.996264)" xlink:href="#CMR17-48"/>
     </g>
    </g>
   </g>
   <g id="xtick_18">
    <g id="line2d_23">
     <path d="M 699.697534 216.227463 
L 704.266725 217.274932 
" style="fill:none;stroke:#000000;stroke-linecap:square;stroke-width:0.8;"/>
    </g>
    <g id="text_19">
     <!-- 01 -->
     <g transform="translate(714.749375 228.903937)rotate(-337.5)scale(0.14 -0.14)">
      <use transform="scale(0.996264)" xlink:href="#CMR17-48"/>
      <use transform="translate(45.690477 0)scale(0.996264)" xlink:href="#CMR17-49"/>
     </g>
    </g>
   </g>
   <g id="xtick_19">
    <g id="line2d_24">
     <path d="M 724.540896 197.76033 
L 729.048738 198.767901 
" style="fill:none;stroke:#000000;stroke-linecap:square;stroke-width:0.8;"/>
    </g>
    <g id="text_20">
     <!-- 10 -->
     <g transform="translate(739.320787 210.206849)rotate(-337.5)scale(0.14 -0.14)">
      <use transform="scale(0.996264)" xlink:href="#CMR17-49"/>
      <use transform="translate(45.690477 0)scale(0.996264)" xlink:href="#CMR17-48"/>
     </g>
    </g>
   </g>
   <g id="xtick_20">
    <g id="line2d_25">
     <path d="M 748.44732 179.989663 
L 752.895146 180.959573 
" style="fill:none;stroke:#000000;stroke-linecap:square;stroke-width:0.8;"/>
    </g>
    <g id="text_21">
     <!-- 11 -->
     <g transform="translate(762.965613 192.214827)rotate(-337.5)scale(0.14 -0.14)">
      <use transform="scale(0.996264)" xlink:href="#CMR17-49"/>
      <use transform="translate(45.690477 0)scale(0.996264)" xlink:href="#CMR17-49"/>
     </g>
    </g>
   </g>
  </g>
  <g id="axis3d_6">
   <g id="line2d_26">
    <path d="M 761.65712 171.581202 
L 769.037001 37.79869 
" style="fill:none;stroke:#000000;stroke-linecap:square;stroke-width:0.8;"/>
   </g>
   <g id="text_22">
    <!-- Im[$\rho$] -->
    <defs>
     <path d="M 19.703125 60.90625 
C 19.703125 65.390625 20.90625 65.390625 28.09375 65.390625 
L 28.09375 68 
C 24.90625 67.796875 19.796875 67.796875 16.40625 67.796875 
C 13 67.796875 7.90625 67.796875 4.703125 68 
L 4.703125 65.390625 
C 11.90625 65.390625 13.09375 65.390625 13.09375 60.90625 
L 13.09375 7.078125 
C 13.09375 2.59375 11.90625 2.59375 4.703125 2.59375 
L 4.703125 0 
C 7.90625 0.1875 13 0.1875 16.40625 0.1875 
C 19.796875 0.1875 24.90625 0.1875 28.09375 0 
L 28.09375 2.59375 
C 20.90625 2.59375 19.703125 2.59375 19.703125 7.078125 
z
" id="CMR17-73"/>
     <path d="M 67.59375 30.53125 
C 67.59375 35.5625 66.703125 44 54.796875 44 
C 48 44 43.296875 39.375 41.5 33.953125 
L 41.40625 33.953125 
C 40.203125 42.1875 34.296875 44 28.703125 44 
C 20.796875 44 16.703125 37.875 15.203125 33.84375 
L 15.09375 33.84375 
L 15.09375 44 
L 3.296875 42.890625 
L 3.296875 40.28125 
C 9.203125 40.28125 10.09375 39.6875 10.09375 34.859375 
L 10.09375 6.921875 
C 10.09375 3.09375 9.703125 2.59375 3.296875 2.59375 
L 3.296875 0 
C 5.703125 0.1875 10.09375 0.1875 12.703125 0.1875 
C 15.296875 0.1875 19.796875 0.1875 22.203125 0 
L 22.203125 2.59375 
C 15.796875 2.59375 15.40625 3 15.40625 6.921875 
L 15.40625 26.21875 
C 15.40625 35.453125 21 42.390625 28 42.390625 
C 35.40625 42.390625 36.203125 35.765625 36.203125 30.9375 
L 36.203125 6.921875 
C 36.203125 3.09375 35.796875 2.59375 29.40625 2.59375 
L 29.40625 0 
C 31.796875 0.1875 36.203125 0.1875 38.796875 0.1875 
C 41.40625 0.1875 45.90625 0.1875 48.296875 0 
L 48.296875 2.59375 
C 41.90625 2.59375 41.5 3 41.5 6.921875 
L 41.5 26.21875 
C 41.5 35.453125 47.09375 42.390625 54.09375 42.390625 
C 61.5 42.390625 62.296875 35.765625 62.296875 30.9375 
L 62.296875 6.921875 
C 62.296875 3.09375 61.90625 2.59375 55.5 2.59375 
L 55.5 0 
C 57.90625 0.1875 62.296875 0.1875 64.90625 0.1875 
C 67.5 0.1875 72 0.1875 74.40625 0 
L 74.40625 2.59375 
C 68 2.59375 67.59375 3 67.59375 6.921875 
z
" id="CMR17-109"/>
    </defs>
    <g transform="translate(809.026865 118.025317)rotate(-86.842577)scale(0.14 -0.14)">
     <use transform="scale(0.996264)" xlink:href="#CMR17-73"/>
     <use transform="translate(32.638409 0)scale(0.996264)" xlink:href="#CMR17-109"/>
     <use transform="translate(109.557999 0)scale(0.996264)" xlink:href="#CMR17-91"/>
     <use transform="translate(134.429058 0)scale(0.996264)" xlink:href="#CMMI12-26"/>
     <use transform="translate(184.74343 0)scale(0.996264)" xlink:href="#CMR17-93"/>
    </g>
   </g>
   <g id="Line3DCollection_6">
    <path d="M 762.261143 160.631471 
L 585.11999 122.934921 
L 475.736311 190.372319 
" style="fill:none;stroke:#b0b0b0;stroke-width:0.8;"/>
    <path d="M 764.96076 111.692805 
L 584.456148 75.380105 
L 472.854585 140.382761 
" style="fill:none;stroke:#b0b0b0;stroke-width:0.8;"/>
    <path d="M 767.76581 60.842847 
L 583.7675 26.048272 
L 469.856467 88.374138 
" style="fill:none;stroke:#b0b0b0;stroke-width:0.8;"/>
   </g>
   <g id="xtick_21">
    <g id="line2d_27">
     <path d="M 760.782952 160.316904 
L 765.220609 161.26126 
" style="fill:none;stroke:#000000;stroke-linecap:square;stroke-width:0.8;"/>
    </g>
    <g id="text_23">
     <!-- $0.0$ -->
     <g transform="translate(772.123666 168.38796)scale(0.14 -0.14)">
      <use transform="scale(0.996264)" xlink:href="#CMR17-48"/>
      <use transform="translate(45.690477 0)scale(0.996264)" xlink:href="#CMMI12-58"/>
      <use transform="translate(72.787654 0)scale(0.996264)" xlink:href="#CMR17-48"/>
     </g>
    </g>
   </g>
   <g id="xtick_22">
    <g id="line2d_28">
     <path d="M 763.453311 111.389546 
L 767.978865 112.299966 
" style="fill:none;stroke:#000000;stroke-linecap:square;stroke-width:0.8;"/>
    </g>
    <g id="text_24">
     <!-- $0.2$ -->
     <g transform="translate(775.172667 119.518716)scale(0.14 -0.14)">
      <use transform="scale(0.996264)" xlink:href="#CMR17-48"/>
      <use transform="translate(45.690477 0)scale(0.996264)" xlink:href="#CMMI12-58"/>
      <use transform="translate(72.787654 0)scale(0.996264)" xlink:href="#CMR17-50"/>
     </g>
    </g>
   </g>
   <g id="xtick_23">
    <g id="line2d_29">
     <path d="M 766.227922 60.552028 
L 770.844921 61.425115 
" style="fill:none;stroke:#000000;stroke-linecap:square;stroke-width:0.8;"/>
    </g>
    <g id="text_25">
     <!-- $0.4$ -->
     <g transform="translate(778.340481 68.745117)scale(0.14 -0.14)">
      <use transform="scale(0.996264)" xlink:href="#CMR17-48"/>
      <use transform="translate(45.690477 0)scale(0.996264)" xlink:href="#CMMI12-58"/>
      <use transform="translate(72.787654 0)scale(0.996264)" xlink:href="#CMR17-52"/>
     </g>
    </g>
   </g>
  </g>
  <g id="axes_2">
   <g id="Poly3DCollection_17">
    <path clip-path="url(#p3a4779b368)" d="M 589.49615 129.261652 
L 589.470406 127.168934 
L 610.942629 131.755739 
L 610.951058 133.855731 
z
" style="fill:#065d4c;fill-opacity:0.8;"/>
    <path clip-path="url(#p3a4779b368)" d="M 576.67352 137.24957 
L 576.637071 135.14423 
L 589.470406 127.168934 
L 589.49615 129.261652 
z
" style="fill:#0cba97;fill-opacity:0.8;"/>
    <path clip-path="url(#p3a4779b368)" d="M 576.67352 137.24957 
L 589.49615 129.261652 
L 610.951058 133.855731 
L 598.257551 141.928243 
z
" style="fill:#08745e;fill-opacity:0.8;"/>
    <path clip-path="url(#p3a4779b368)" d="M 576.637071 135.14423 
L 598.238625 139.815565 
L 610.942629 131.755739 
L 589.470406 127.168934 
z
" style="fill:#0aa384;fill-opacity:0.8;"/>
    <path clip-path="url(#p3a4779b368)" d="M 598.257551 141.928243 
L 610.951058 133.855731 
L 610.942629 131.755739 
L 598.238625 139.815565 
z
" style="fill:#065d4c;fill-opacity:0.8;"/>
    <path clip-path="url(#p3a4779b368)" d="M 576.67352 137.24957 
L 598.257551 141.928243 
L 598.238625 139.815565 
L 576.637071 135.14423 
z
" style="fill:#0cba97;fill-opacity:0.8;"/>
   </g>
   <g id="Poly3DCollection_18">
    <path clip-path="url(#p3a4779b368)" d="M 632.632735 138.498367 
L 632.63719 137.48399 
L 654.557945 142.172422 
L 654.544796 143.190335 
z
" style="fill:#065d4c;fill-opacity:0.8;"/>
    <path clip-path="url(#p3a4779b368)" d="M 620.071823 146.656824 
L 620.07133 145.636313 
L 632.63719 137.48399 
L 632.632735 138.498367 
z
" style="fill:#0cba97;fill-opacity:0.8;"/>
    <path clip-path="url(#p3a4779b368)" d="M 620.071823 146.656824 
L 632.632735 138.498367 
L 654.544796 143.190335 
L 642.120041 151.436116 
z
" style="fill:#08745e;fill-opacity:0.8;"/>
    <path clip-path="url(#p3a4779b368)" d="M 620.07133 145.636313 
L 642.12835 150.412039 
L 654.557945 142.172422 
L 632.63719 137.48399 
z
" style="fill:#0aa384;fill-opacity:0.8;"/>
    <path clip-path="url(#p3a4779b368)" d="M 642.120041 151.436116 
L 654.544796 143.190335 
L 654.557945 142.172422 
L 642.12835 150.412039 
z
" style="fill:#065d4c;fill-opacity:0.8;"/>
    <path clip-path="url(#p3a4779b368)" d="M 620.071823 146.656824 
L 642.120041 151.436116 
L 642.12835 150.412039 
L 620.07133 145.636313 
z
" style="fill:#0cba97;fill-opacity:0.8;"/>
   </g>
   <g id="Poly3DCollection_19">
    <path clip-path="url(#p3a4779b368)" d="M 563.614316 145.384865 
L 563.426479 137.01732 
L 585.210821 141.753592 
L 585.328598 150.150489 
z
" style="fill:#065d4c;fill-opacity:0.8;"/>
    <path clip-path="url(#p3a4779b368)" d="M 550.31193 153.671651 
L 550.078628 145.253171 
L 563.426479 137.01732 
L 563.614316 145.384865 
z
" style="fill:#0cba97;fill-opacity:0.8;"/>
    <path clip-path="url(#p3a4779b368)" d="M 550.31193 153.671651 
L 563.614316 145.384865 
L 585.328598 150.150489 
L 572.157586 158.526674 
z
" style="fill:#08745e;fill-opacity:0.8;"/>
    <path clip-path="url(#p3a4779b368)" d="M 550.078628 145.253171 
L 571.99519 150.078585 
L 585.210821 141.753592 
L 563.426479 137.01732 
z
" style="fill:#0aa384;fill-opacity:0.8;"/>
    <path clip-path="url(#p3a4779b368)" d="M 572.157586 158.526674 
L 585.328598 150.150489 
L 585.210821 141.753592 
L 571.99519 150.078585 
z
" style="fill:#065d4c;fill-opacity:0.8;"/>
    <path clip-path="url(#p3a4779b368)" d="M 550.31193 153.671651 
L 572.157586 158.526674 
L 571.99519 150.078585 
L 550.078628 145.253171 
z
" style="fill:#0cba97;fill-opacity:0.8;"/>
   </g>
   <g id="Poly3DCollection_20">
    <path clip-path="url(#p3a4779b368)" d="M 676.690932 147.932424 
L 676.757636 144.839367 
L 699.169085 149.62156 
L 699.074914 152.725443 
z
" style="fill:#065d4c;fill-opacity:0.8;"/>
    <path clip-path="url(#p3a4779b368)" d="M 664.405987 156.26694 
L 664.458379 153.155098 
L 676.757636 144.839367 
L 676.690932 147.932424 
z
" style="fill:#0cba97;fill-opacity:0.8;"/>
    <path clip-path="url(#p3a4779b368)" d="M 664.405987 156.26694 
L 676.690932 147.932424 
L 699.074914 152.725443 
L 686.933528 161.150133 
z
" style="fill:#08745e;fill-opacity:0.8;"/>
    <path clip-path="url(#p3a4779b368)" d="M 664.458379 153.155098 
L 687.013743 158.027373 
L 699.169085 149.62156 
L 676.757636 144.839367 
z
" style="fill:#0aa384;fill-opacity:0.8;"/>
    <path clip-path="url(#p3a4779b368)" d="M 686.933528 161.150133 
L 699.074914 152.725443 
L 699.169085 149.62156 
L 687.013743 158.027373 
z
" style="fill:#065d4c;fill-opacity:0.8;"/>
    <path clip-path="url(#p3a4779b368)" d="M 664.405987 156.26694 
L 686.933528 161.150133 
L 687.013743 158.027373 
L 664.458379 153.155098 
z
" style="fill:#0cba97;fill-opacity:0.8;"/>
   </g>
   <g id="Poly3DCollection_21">
    <path clip-path="url(#p3a4779b368)" d="M 607.27667 154.967424 
L 607.284097 156.322224 
L 629.457995 161.19604 
L 629.462329 159.836501 
z
" style="fill:#0cba97;fill-opacity:0.8;"/>
    <path clip-path="url(#p3a4779b368)" d="M 594.240662 163.434462 
L 594.25512 164.797484 
L 607.284097 156.322224 
L 607.27667 154.967424 
z
" style="fill:#065d4c;fill-opacity:0.8;"/>
    <path clip-path="url(#p3a4779b368)" d="M 594.25512 164.797484 
L 616.567598 169.763681 
L 629.457995 161.19604 
L 607.284097 156.322224 
z
" style="fill:#0aa384;fill-opacity:0.8;"/>
    <path clip-path="url(#p3a4779b368)" d="M 594.240662 163.434462 
L 607.27667 154.967424 
L 629.462329 159.836501 
L 616.565048 168.395879 
z
" style="fill:#08745e;fill-opacity:0.8;"/>
    <path clip-path="url(#p3a4779b368)" d="M 616.565048 168.395879 
L 629.462329 159.836501 
L 629.457995 161.19604 
L 616.567598 169.763681 
z
" style="fill:#0cba97;fill-opacity:0.8;"/>
    <path clip-path="url(#p3a4779b368)" d="M 594.240662 163.434462 
L 616.565048 168.395879 
L 616.567598 169.763681 
L 594.25512 164.797484 
z
" style="fill:#065d4c;fill-opacity:0.8;"/>
   </g>
   <g id="Poly3DCollection_22">
    <path clip-path="url(#p3a4779b368)" d="M 721.700594 157.570217 
L 721.700594 157.570217 
L 744.571909 162.467587 
L 744.571909 162.467587 
z
" style="fill:#065d4c;fill-opacity:0.8;"/>
    <path clip-path="url(#p3a4779b368)" d="M 709.706614 166.086552 
L 709.706614 166.086552 
L 721.700594 157.570217 
L 721.700594 157.570217 
z
" style="fill:#065d4c;fill-opacity:0.8;"/>
    <path clip-path="url(#p3a4779b368)" d="M 709.706614 166.086552 
L 732.729281 171.077071 
L 744.571909 162.467587 
L 721.700594 157.570217 
z
" style="fill:#0aa384;fill-opacity:0.8;"/>
    <path clip-path="url(#p3a4779b368)" d="M 709.706614 166.086552 
L 721.700594 157.570217 
L 744.571909 162.467587 
L 732.729281 171.077071 
z
" style="fill:#08745e;fill-opacity:0.8;"/>
    <path clip-path="url(#p3a4779b368)" d="M 732.729281 171.077071 
L 744.571909 162.467587 
L 744.571909 162.467587 
L 732.729281 171.077071 
z
" style="fill:#065d4c;fill-opacity:0.8;"/>
    <path clip-path="url(#p3a4779b368)" d="M 709.706614 166.086552 
L 732.729281 171.077071 
L 732.729281 171.077071 
L 709.706614 166.086552 
z
" style="fill:#065d4c;fill-opacity:0.8;"/>
   </g>
   <g id="Poly3DCollection_23">
    <path clip-path="url(#p3a4779b368)" d="M 536.759503 162.1142 
L 536.576261 156.580139 
L 558.6013 161.507621 
L 558.737654 167.061162 
z
" style="fill:#065d4c;fill-opacity:0.8;"/>
    <path clip-path="url(#p3a4779b368)" d="M 522.949921 170.716947 
L 522.734724 165.149086 
L 536.576261 156.580139 
L 536.759503 162.1142 
z
" style="fill:#0cba97;fill-opacity:0.8;"/>
    <path clip-path="url(#p3a4779b368)" d="M 522.949921 170.716947 
L 536.759503 162.1142 
L 558.737654 167.061162 
L 545.061677 175.758482 
z
" style="fill:#08745e;fill-opacity:0.8;"/>
    <path clip-path="url(#p3a4779b368)" d="M 522.734724 165.149086 
L 544.893934 170.170979 
L 558.6013 161.507621 
L 536.576261 156.580139 
z
" style="fill:#0aa384;fill-opacity:0.8;"/>
    <path clip-path="url(#p3a4779b368)" d="M 545.061677 175.758482 
L 558.737654 167.061162 
L 558.6013 161.507621 
L 544.893934 170.170979 
z
" style="fill:#065d4c;fill-opacity:0.8;"/>
    <path clip-path="url(#p3a4779b368)" d="M 522.949921 170.716947 
L 545.061677 175.758482 
L 544.893934 170.170979 
L 522.734724 165.149086 
z
" style="fill:#0cba97;fill-opacity:0.8;"/>
   </g>
   <g id="Poly3DCollection_24">
    <path clip-path="url(#p3a4779b368)" d="M 651.889454 164.758573 
L 651.889454 164.758573 
L 674.562008 169.73451 
L 674.562008 169.73451 
z
" style="fill:#065d4c;fill-opacity:0.8;"/>
    <path clip-path="url(#p3a4779b368)" d="M 639.134721 173.411809 
L 639.134721 173.411809 
L 651.889454 164.758573 
L 651.889454 164.758573 
z
" style="fill:#065d4c;fill-opacity:0.8;"/>
    <path clip-path="url(#p3a4779b368)" d="M 639.134721 173.411809 
L 651.889454 164.758573 
L 674.562008 169.73451 
L 661.953747 178.483156 
z
" style="fill:#08745e;fill-opacity:0.8;"/>
    <path clip-path="url(#p3a4779b368)" d="M 639.134721 173.411809 
L 661.953747 178.483156 
L 674.562008 169.73451 
L 651.889454 164.758573 
z
" style="fill:#0aa384;fill-opacity:0.8;"/>
    <path clip-path="url(#p3a4779b368)" d="M 661.953747 178.483156 
L 674.562008 169.73451 
L 674.562008 169.73451 
L 661.953747 178.483156 
z
" style="fill:#065d4c;fill-opacity:0.8;"/>
    <path clip-path="url(#p3a4779b368)" d="M 639.134721 173.411809 
L 661.953747 178.483156 
L 661.953747 178.483156 
L 639.134721 173.411809 
z
" style="fill:#065d4c;fill-opacity:0.8;"/>
   </g>
   <g id="Poly3DCollection_25">
    <path clip-path="url(#p3a4779b368)" d="M 580.956933 172.062397 
L 580.956933 172.062397 
L 603.42133 177.118805 
L 603.42133 177.118805 
z
" style="fill:#065d4c;fill-opacity:0.8;"/>
    <path clip-path="url(#p3a4779b368)" d="M 567.418354 180.85586 
L 567.418354 180.85586 
L 580.956933 172.062397 
L 580.956933 172.062397 
z
" style="fill:#065d4c;fill-opacity:0.8;"/>
    <path clip-path="url(#p3a4779b368)" d="M 567.418354 180.85586 
L 580.956933 172.062397 
L 603.42133 177.118805 
L 590.024044 186.010014 
z
" style="fill:#08745e;fill-opacity:0.8;"/>
    <path clip-path="url(#p3a4779b368)" d="M 567.418354 180.85586 
L 590.024044 186.010014 
L 603.42133 177.118805 
L 580.956933 172.062397 
z
" style="fill:#0aa384;fill-opacity:0.8;"/>
    <path clip-path="url(#p3a4779b368)" d="M 590.024044 186.010014 
L 603.42133 177.118805 
L 603.42133 177.118805 
L 590.024044 186.010014 
z
" style="fill:#065d4c;fill-opacity:0.8;"/>
    <path clip-path="url(#p3a4779b368)" d="M 567.418354 180.85586 
L 590.024044 186.010014 
L 590.024044 186.010014 
L 567.418354 180.85586 
z
" style="fill:#065d4c;fill-opacity:0.8;"/>
   </g>
   <g id="Poly3DCollection_26">
    <path clip-path="url(#p3a4779b368)" d="M 697.484042 174.765199 
L 697.389763 177.910258 
L 720.536053 183.007657 
L 720.659697 179.851551 
z
" style="fill:#0cba97;fill-opacity:0.8;"/>
    <path clip-path="url(#p3a4779b368)" d="M 685.026281 183.610842 
L 684.946664 186.775068 
L 697.389763 177.910258 
L 697.484042 174.765199 
z
" style="fill:#065d4c;fill-opacity:0.8;"/>
    <path clip-path="url(#p3a4779b368)" d="M 684.946664 186.775068 
L 708.247192 191.971176 
L 720.536053 183.007657 
L 697.389763 177.910258 
z
" style="fill:#0aa384;fill-opacity:0.8;"/>
    <path clip-path="url(#p3a4779b368)" d="M 685.026281 183.610842 
L 697.484042 174.765199 
L 720.659697 179.851551 
L 708.356571 188.795814 
z
" style="fill:#08745e;fill-opacity:0.8;"/>
    <path clip-path="url(#p3a4779b368)" d="M 708.356571 188.795814 
L 720.659697 179.851551 
L 720.536053 183.007657 
L 708.247192 191.971176 
z
" style="fill:#0cba97;fill-opacity:0.8;"/>
    <path clip-path="url(#p3a4779b368)" d="M 685.026281 183.610842 
L 708.356571 188.795814 
L 708.247192 191.971176 
L 684.946664 186.775068 
z
" style="fill:#065d4c;fill-opacity:0.8;"/>
   </g>
   <g id="Poly3DCollection_27">
    <path clip-path="url(#p3a4779b368)" d="M 508.875793 179.484493 
L 508.875793 179.484493 
L 531.122257 184.623341 
L 531.122257 184.623341 
z
" style="fill:#065d4c;fill-opacity:0.8;"/>
    <path clip-path="url(#p3a4779b368)" d="M 494.529444 188.42162 
L 494.529444 188.42162 
L 508.875793 179.484493 
L 508.875793 179.484493 
z
" style="fill:#065d4c;fill-opacity:0.8;"/>
    <path clip-path="url(#p3a4779b368)" d="M 494.529444 188.42162 
L 508.875793 179.484493 
L 531.122257 184.623341 
L 516.911708 193.660626 
z
" style="fill:#08745e;fill-opacity:0.8;"/>
    <path clip-path="url(#p3a4779b368)" d="M 494.529444 188.42162 
L 516.911708 193.660626 
L 531.122257 184.623341 
L 508.875793 179.484493 
z
" style="fill:#0aa384;fill-opacity:0.8;"/>
    <path clip-path="url(#p3a4779b368)" d="M 516.911708 193.660626 
L 531.122257 184.623341 
L 531.122257 184.623341 
L 516.911708 193.660626 
z
" style="fill:#065d4c;fill-opacity:0.8;"/>
    <path clip-path="url(#p3a4779b368)" d="M 494.529444 188.42162 
L 516.911708 193.660626 
L 516.911708 193.660626 
L 494.529444 188.42162 
z
" style="fill:#065d4c;fill-opacity:0.8;"/>
   </g>
   <g id="Poly3DCollection_28">
    <path clip-path="url(#p3a4779b368)" d="M 626.134924 182.231304 
L 626.137555 180.848821 
L 649.117134 186.013471 
L 649.101886 187.400832 
z
" style="fill:#065d4c;fill-opacity:0.8;"/>
    <path clip-path="url(#p3a4779b368)" d="M 612.882932 191.221898 
L 612.878286 189.830951 
L 626.137555 180.848821 
L 626.134924 182.231304 
z
" style="fill:#0cba97;fill-opacity:0.8;"/>
    <path clip-path="url(#p3a4779b368)" d="M 612.882932 191.221898 
L 626.134924 182.231304 
L 649.101886 187.400832 
L 635.999294 196.492486 
z
" style="fill:#08745e;fill-opacity:0.8;"/>
    <path clip-path="url(#p3a4779b368)" d="M 612.878286 189.830951 
L 636.007431 195.096622 
L 649.117134 186.013471 
L 626.137555 180.848821 
z
" style="fill:#0aa384;fill-opacity:0.8;"/>
    <path clip-path="url(#p3a4779b368)" d="M 635.999294 196.492486 
L 649.101886 187.400832 
L 649.117134 186.013471 
L 636.007431 195.096622 
z
" style="fill:#065d4c;fill-opacity:0.8;"/>
    <path clip-path="url(#p3a4779b368)" d="M 612.882932 191.221898 
L 635.999294 196.492486 
L 636.007431 195.096622 
L 612.878286 189.830951 
z
" style="fill:#0cba97;fill-opacity:0.8;"/>
   </g>
   <g id="Poly3DCollection_29">
    <path clip-path="url(#p3a4779b368)" d="M 553.617521 189.819661 
L 553.76805 195.436222 
L 576.466289 200.710747 
L 576.365782 195.074422 
z
" style="fill:#0cba97;fill-opacity:0.8;"/>
    <path clip-path="url(#p3a4779b368)" d="M 539.546738 198.958797 
L 539.730329 204.609645 
L 553.76805 195.436222 
L 553.617521 189.819661 
z
" style="fill:#065d4c;fill-opacity:0.8;"/>
    <path clip-path="url(#p3a4779b368)" d="M 539.730329 204.609645 
L 562.571782 209.987907 
L 576.466289 200.710747 
L 553.76805 195.436222 
z
" style="fill:#0aa384;fill-opacity:0.8;"/>
    <path clip-path="url(#p3a4779b368)" d="M 539.546738 198.958797 
L 553.617521 189.819661 
L 576.365782 195.074422 
L 562.438842 204.31714 
z
" style="fill:#08745e;fill-opacity:0.8;"/>
    <path clip-path="url(#p3a4779b368)" d="M 562.438842 204.31714 
L 576.365782 195.074422 
L 576.466289 200.710747 
L 562.571782 209.987907 
z
" style="fill:#0cba97;fill-opacity:0.8;"/>
    <path clip-path="url(#p3a4779b368)" d="M 539.546738 198.958797 
L 562.438842 204.31714 
L 562.571782 209.987907 
L 539.730329 204.609645 
z
" style="fill:#065d4c;fill-opacity:0.8;"/>
   </g>
   <g id="Poly3DCollection_30">
    <path clip-path="url(#p3a4779b368)" d="M 672.326477 192.628349 
L 672.305185 193.681435 
L 695.781787 198.97164 
L 695.813057 197.914836 
z
" style="fill:#0cba97;fill-opacity:0.8;"/>
    <path clip-path="url(#p3a4779b368)" d="M 659.377506 201.822776 
L 659.361463 202.882314 
L 672.305185 193.681435 
L 672.326477 192.628349 
z
" style="fill:#065d4c;fill-opacity:0.8;"/>
    <path clip-path="url(#p3a4779b368)" d="M 659.361463 202.882314 
L 682.995885 208.277075 
L 695.781787 198.97164 
L 672.305185 193.681435 
z
" style="fill:#0aa384;fill-opacity:0.8;"/>
    <path clip-path="url(#p3a4779b368)" d="M 659.377506 201.822776 
L 672.326477 192.628349 
L 695.813057 197.914836 
L 683.022041 207.21379 
z
" style="fill:#08745e;fill-opacity:0.8;"/>
    <path clip-path="url(#p3a4779b368)" d="M 683.022041 207.21379 
L 695.813057 197.914836 
L 695.781787 198.97164 
L 682.995885 208.277075 
z
" style="fill:#0cba97;fill-opacity:0.8;"/>
    <path clip-path="url(#p3a4779b368)" d="M 659.377506 201.822776 
L 683.022041 207.21379 
L 682.995885 208.277075 
L 659.361463 202.882314 
z
" style="fill:#065d4c;fill-opacity:0.8;"/>
   </g>
   <g id="Poly3DCollection_31">
    <path clip-path="url(#p3a4779b368)" d="M 599.371333 200.388617 
L 599.446674 209.025184 
L 622.633989 214.430216 
L 622.638563 205.763258 
z
" style="fill:#0cba97;fill-opacity:0.8;"/>
    <path clip-path="url(#p3a4779b368)" d="M 585.592423 209.736688 
L 585.716284 218.425978 
L 599.446674 209.025184 
L 599.371333 200.388617 
z
" style="fill:#065d4c;fill-opacity:0.8;"/>
    <path clip-path="url(#p3a4779b368)" d="M 585.716284 218.425978 
L 609.054888 223.938404 
L 622.633989 214.430216 
L 599.446674 209.025184 
z
" style="fill:#0aa384;fill-opacity:0.8;"/>
    <path clip-path="url(#p3a4779b368)" d="M 585.592423 209.736688 
L 599.371333 200.388617 
L 622.638563 205.763258 
L 609.011987 215.218494 
z
" style="fill:#08745e;fill-opacity:0.8;"/>
    <path clip-path="url(#p3a4779b368)" d="M 609.011987 215.218494 
L 622.638563 205.763258 
L 622.633989 214.430216 
L 609.054888 223.938404 
z
" style="fill:#0cba97;fill-opacity:0.8;"/>
    <path clip-path="url(#p3a4779b368)" d="M 585.592423 209.736688 
L 609.011987 215.218494 
L 609.054888 223.938404 
L 585.716284 218.425978 
z
" style="fill:#065d4c;fill-opacity:0.8;"/>
   </g>
   <g id="Poly3DCollection_32">
    <path clip-path="url(#p3a4779b368)" d="M 646.171962 211.199383 
L 646.150001 213.412057 
L 669.932886 218.918559 
L 669.976125 216.698054 
z
" style="fill:#0cba97;fill-opacity:0.8;"/>
    <path clip-path="url(#p3a4779b368)" d="M 632.702145 220.763638 
L 632.691983 222.989898 
L 646.150001 213.412057 
L 646.171962 211.199383 
z
" style="fill:#065d4c;fill-opacity:0.8;"/>
    <path clip-path="url(#p3a4779b368)" d="M 632.691983 222.989898 
L 656.635883 228.607373 
L 669.932886 218.918559 
L 646.150001 213.412057 
z
" style="fill:#0aa384;fill-opacity:0.8;"/>
    <path clip-path="url(#p3a4779b368)" d="M 632.702145 220.763638 
L 646.171962 211.199383 
L 669.976125 216.698054 
L 656.667612 226.373224 
z
" style="fill:#08745e;fill-opacity:0.8;"/>
    <path clip-path="url(#p3a4779b368)" d="M 656.667612 226.373224 
L 669.976125 216.698054 
L 669.932886 218.918559 
L 656.635883 228.607373 
z
" style="fill:#0cba97;fill-opacity:0.8;"/>
    <path clip-path="url(#p3a4779b368)" d="M 632.702145 220.763638 
L 656.667612 226.373224 
L 656.635883 228.607373 
L 632.691983 222.989898 
z
" style="fill:#065d4c;fill-opacity:0.8;"/>
   </g>
   <g id="Poly3DCollection_33">
    <path clip-path="url(#p3a4779b368)" d="M 481.651186 189.758364 
L 660.420256 231.798522 
L 756.709391 161.207734 
L 586.488511 124.913428 
z
" style="fill-opacity:0.2;"/>
   </g>
  </g>
 </g>
 <defs>
  <clipPath id="peabfbb9980">
   <rect height="277.2" width="380.454545" x="-30.6" y="-14.4"/>
  </clipPath>
  <clipPath id="p3a4779b368">
   <rect height="277.2" width="380.454545" x="425.945455" y="-14.4"/>
  </clipPath>
 </defs>
</svg>
