<?xml version="1.0" encoding="utf-8" standalone="no"?>
<!DOCTYPE svg PUBLIC "-//W3C//DTD SVG 1.1//EN"
  "http://www.w3.org/Graphics/SVG/1.1/DTD/svg11.dtd">
<!-- Created with matplotlib (https://matplotlib.org/) -->
<svg height="302.4pt" version="1.1" viewBox="0 0 820.8 302.4" width="820.8pt" xmlns="http://www.w3.org/2000/svg" xmlns:xlink="http://www.w3.org/1999/xlink">
 <defs>
  <style type="text/css">
*{stroke-linecap:butt;stroke-linejoin:round;}
  </style>
 </defs>
 <g id="figure_1">
  <g id="patch_1">
   <path d="M 0 302.4 
L 820.8 302.4 
L 820.8 0 
L 0 0 
z
" style="fill:#ffffff;"/>
  </g>
  <g id="patch_2">
   <path d="M -30.6 262.8 
L 349.854545 262.8 
L 349.854545 -14.4 
L -30.6 -14.4 
z
" style="fill:#ffffff;"/>
  </g>
  <g id="pane3d_1">
   <g id="patch_3">
    <path d="M 19.835129 201.548569 
L 128.723211 133.58541 
L 126.910339 3.718968 
L 11.951034 64.782468 
" style="fill:#f2f2f2;opacity:0.5;stroke:#f2f2f2;stroke-linejoin:miter;"/>
   </g>
  </g>
  <g id="pane3d_2">
   <g id="patch_4">
    <path d="M 128.723211 133.58541 
L 305.111665 171.581202 
L 312.491547 37.79869 
L 126.910339 3.718968 
" style="fill:#e6e6e6;opacity:0.5;stroke:#e6e6e6;stroke-linejoin:miter;"/>
   </g>
  </g>
  <g id="pane3d_3">
   <g id="patch_5">
    <path d="M 19.835129 201.548569 
L 205.419617 245.80086 
L 305.111665 171.581202 
L 128.723211 133.58541 
" style="fill:#ececec;opacity:0.5;stroke:#ececec;stroke-linejoin:miter;"/>
   </g>
  </g>
  <g id="axis3d_1">
   <g id="line2d_1">
    <path d="M 19.835129 201.548569 
L 205.419617 245.80086 
" style="fill:none;stroke:#000000;stroke-linecap:square;stroke-width:0.8;"/>
   </g>
   <g id="Line3DCollection_1">
    <path d="M 42.295817 206.90428 
L 150.133942 138.19749 
L 149.393845 7.847789 
" style="fill:none;stroke:#b0b0b0;stroke-width:0.8;"/>
    <path d="M 87.512337 217.686079 
L 193.184014 147.470895 
L 194.636898 16.156123 
" style="fill:none;stroke:#b0b0b0;stroke-width:0.8;"/>
    <path d="M 133.765289 228.715013 
L 237.148096 156.941187 
L 240.890183 24.649974 
" style="fill:none;stroke:#b0b0b0;stroke-width:0.8;"/>
    <path d="M 181.090721 239.999678 
L 282.055608 166.614702 
L 288.187917 33.335625 
" style="fill:none;stroke:#b0b0b0;stroke-width:0.8;"/>
   </g>
   <g id="xtick_1">
    <g id="line2d_2">
     <path d="M 43.225084 206.312217 
L 40.433807 208.09062 
" style="fill:none;stroke:#000000;stroke-linecap:square;stroke-width:0.8;"/>
    </g>
    <g id="text_1">
     <!-- 00 -->
     <defs>
      <path d="M 42 31.84375 
C 42 37.96875 41.90625 48.421875 37.703125 56.453125 
C 34 63.484375 28.09375 66 22.90625 66 
C 18.09375 66 12 63.78125 8.203125 56.5625 
C 4.203125 49.015625 3.796875 39.671875 3.796875 31.84375 
C 3.796875 26.109375 3.90625 17.375 7 9.734375 
C 11.296875 -0.609375 19 -2 22.90625 -2 
C 27.5 -2 34.5 -0.109375 38.59375 9.4375 
C 41.59375 16.375 42 24.5 42 31.84375 
z
M 22.90625 -0.40625 
C 16.5 -0.40625 12.703125 5.125 11.296875 12.75 
C 10.203125 18.6875 10.203125 27.328125 10.203125 32.953125 
C 10.203125 40.6875 10.203125 47.109375 11.5 53.234375 
C 13.40625 61.78125 19 64.390625 22.90625 64.390625 
C 27 64.390625 32.296875 61.671875 34.203125 53.4375 
C 35.5 47.71875 35.59375 40.984375 35.59375 32.953125 
C 35.59375 26.421875 35.59375 18.375 34.40625 12.453125 
C 32.296875 1.5 26.40625 -0.40625 22.90625 -0.40625 
z
" id="CMR17-48"/>
     </defs>
     <g transform="translate(23.330362 237.14703)rotate(-45)scale(0.14 -0.14)">
      <use transform="scale(0.996264)" xlink:href="#CMR17-48"/>
      <use transform="translate(45.690477 0)scale(0.996264)" xlink:href="#CMR17-48"/>
     </g>
    </g>
   </g>
   <g id="xtick_2">
    <g id="line2d_3">
     <path d="M 88.423674 217.080527 
L 85.686217 218.899473 
" style="fill:none;stroke:#000000;stroke-linecap:square;stroke-width:0.8;"/>
    </g>
    <g id="text_2">
     <!-- 01 -->
     <defs>
      <path d="M 26.59375 63.796875 
C 26.59375 65.890625 26.5 66 25.09375 66 
C 21.203125 61.359375 15.296875 59.890625 9.703125 59.6875 
C 9.40625 59.6875 8.90625 59.6875 8.796875 59.5 
C 8.703125 59.296875 8.703125 59.09375 8.703125 57 
C 11.796875 57 17 57.59375 21 59.984375 
L 21 7.296875 
C 21 3.796875 20.796875 2.59375 12.203125 2.59375 
L 9.203125 2.59375 
L 9.203125 0 
C 14 0.09375 19 0.1875 23.796875 0.1875 
C 28.59375 0.1875 33.59375 0.09375 38.40625 0 
L 38.40625 2.59375 
L 35.40625 2.59375 
C 26.796875 2.59375 26.59375 3.6875 26.59375 7.296875 
z
" id="CMR17-49"/>
     </defs>
     <g transform="translate(68.542787 248.103782)rotate(-45)scale(0.14 -0.14)">
      <use transform="scale(0.996264)" xlink:href="#CMR17-48"/>
      <use transform="translate(45.690477 0)scale(0.996264)" xlink:href="#CMR17-49"/>
     </g>
    </g>
   </g>
   <g id="xtick_3">
    <g id="line2d_4">
     <path d="M 134.657625 228.095506 
L 131.977203 229.956397 
" style="fill:none;stroke:#000000;stroke-linecap:square;stroke-width:0.8;"/>
    </g>
    <g id="text_3">
     <!-- 10 -->
     <g transform="translate(114.7934 259.312128)rotate(-45)scale(0.14 -0.14)">
      <use transform="scale(0.996264)" xlink:href="#CMR17-49"/>
      <use transform="translate(45.690477 0)scale(0.996264)" xlink:href="#CMR17-48"/>
     </g>
    </g>
   </g>
   <g id="xtick_4">
    <g id="line2d_5">
     <path d="M 181.962926 239.365727 
L 179.342936 241.270032 
" style="fill:none;stroke:#000000;stroke-linecap:square;stroke-width:0.8;"/>
    </g>
    <g id="text_4">
     <!-- 11 -->
     <g transform="translate(162.118375 270.780834)rotate(-45)scale(0.14 -0.14)">
      <use transform="scale(0.996264)" xlink:href="#CMR17-49"/>
      <use transform="translate(45.690477 0)scale(0.996264)" xlink:href="#CMR17-49"/>
     </g>
    </g>
   </g>
  </g>
  <g id="axis3d_2">
   <g id="line2d_6">
    <path d="M 305.111665 171.581202 
L 205.419617 245.80086 
" style="fill:none;stroke:#000000;stroke-linecap:square;stroke-width:0.8;"/>
   </g>
   <g id="Line3DCollection_2">
    <path d="M 27.455231 56.547028 
L 34.471044 192.413474 
L 218.858418 235.795817 
" style="fill:none;stroke:#b0b0b0;stroke-width:0.8;"/>
    <path d="M 57.232024 40.730342 
L 62.623407 174.842005 
L 244.674037 216.576366 
" style="fill:none;stroke:#b0b0b0;stroke-width:0.8;"/>
    <path d="M 85.85589 25.526062 
L 89.739382 157.917404 
L 269.496985 198.095948 
" style="fill:none;stroke:#b0b0b0;stroke-width:0.8;"/>
    <path d="M 113.392516 10.899296 
L 115.875164 141.604597 
L 293.383438 180.312741 
" style="fill:none;stroke:#b0b0b0;stroke-width:0.8;"/>
   </g>
   <g id="xtick_5">
    <g id="line2d_7">
     <path d="M 217.315598 235.432825 
L 221.947489 236.522608 
" style="fill:none;stroke:#000000;stroke-linecap:square;stroke-width:0.8;"/>
    </g>
    <g id="text_5">
     <!-- 00 -->
     <g transform="translate(232.650369 248.348363)rotate(-337.5)scale(0.14 -0.14)">
      <use transform="scale(0.996264)" xlink:href="#CMR17-48"/>
      <use transform="translate(45.690477 0)scale(0.996264)" xlink:href="#CMR17-48"/>
     </g>
    </g>
   </g>
   <g id="xtick_6">
    <g id="line2d_8">
     <path d="M 243.15208 216.227463 
L 247.72127 217.274932 
" style="fill:none;stroke:#000000;stroke-linecap:square;stroke-width:0.8;"/>
    </g>
    <g id="text_6">
     <!-- 01 -->
     <g transform="translate(258.203921 228.903937)rotate(-337.5)scale(0.14 -0.14)">
      <use transform="scale(0.996264)" xlink:href="#CMR17-48"/>
      <use transform="translate(45.690477 0)scale(0.996264)" xlink:href="#CMR17-49"/>
     </g>
    </g>
   </g>
   <g id="xtick_7">
    <g id="line2d_9">
     <path d="M 267.995442 197.76033 
L 272.503283 198.767901 
" style="fill:none;stroke:#000000;stroke-linecap:square;stroke-width:0.8;"/>
    </g>
    <g id="text_7">
     <!-- 10 -->
     <g transform="translate(282.775332 210.206849)rotate(-337.5)scale(0.14 -0.14)">
      <use transform="scale(0.996264)" xlink:href="#CMR17-49"/>
      <use transform="translate(45.690477 0)scale(0.996264)" xlink:href="#CMR17-48"/>
     </g>
    </g>
   </g>
   <g id="xtick_8">
    <g id="line2d_10">
     <path d="M 291.901865 179.989663 
L 296.349691 180.959573 
" style="fill:none;stroke:#000000;stroke-linecap:square;stroke-width:0.8;"/>
    </g>
    <g id="text_8">
     <!-- 11 -->
     <g transform="translate(306.420159 192.214827)rotate(-337.5)scale(0.14 -0.14)">
      <use transform="scale(0.996264)" xlink:href="#CMR17-49"/>
      <use transform="translate(45.690477 0)scale(0.996264)" xlink:href="#CMR17-49"/>
     </g>
    </g>
   </g>
  </g>
  <g id="axis3d_3">
   <g id="line2d_11">
    <path d="M 305.111665 171.581202 
L 312.491547 37.79869 
" style="fill:none;stroke:#000000;stroke-linecap:square;stroke-width:0.8;"/>
   </g>
   <g id="text_9">
    <!-- Re[$\rho$] -->
    <defs>
     <path d="M 39.203125 33.6875 
C 48.703125 35.59375 56.703125 42.015625 56.703125 50.046875 
C 56.703125 59.46875 46.09375 68 32.09375 68 
L 5.203125 68 
L 5.203125 65.390625 
C 12.09375 65.390625 13.203125 65.390625 13.203125 60.875 
L 13.203125 6.6875 
C 13.203125 2.1875 12.09375 2.1875 5.203125 2.1875 
L 5.203125 -0.40625 
C 8.09375 -0.203125 13.296875 -0.203125 16.40625 -0.203125 
C 19.5 -0.203125 24.703125 -0.203125 27.59375 -0.40625 
L 27.59375 2.1875 
C 20.703125 2.1875 19.59375 2.1875 19.59375 6.6875 
L 19.59375 33 
L 31.296875 33 
C 37 33 40.203125 30.6875 41.59375 29.390625 
C 45.59375 25.5 45.59375 22.796875 45.59375 16 
C 45.59375 9.296875 45.59375 5.890625 48.59375 2.5 
C 52.40625 -1.609375 57.5 -2 59.703125 -2 
C 67.09375 -2 68.203125 6.296875 68.203125 8 
C 68.203125 8.59375 68.203125 9.296875 67.296875 9.296875 
C 66.5 9.296875 66.40625 8.6875 66.40625 8.296875 
C 65.90625 1.796875 63 -0.40625 59.90625 -0.40625 
C 54.40625 -0.40625 53.796875 5.890625 53.203125 12 
C 52.90625 14.09375 52.703125 15.59375 52.5 17.796875 
C 51.90625 22.796875 51.09375 30.09375 39.203125 33.6875 
z
M 31 34.59375 
L 19.59375 34.59375 
L 19.59375 61.484375 
C 19.59375 64.890625 19.796875 65.390625 23.796875 65.390625 
L 31.09375 65.390625 
C 39.40625 65.390625 49.09375 62.484375 49.09375 50.046875 
C 49.09375 37.09375 38.5 34.59375 31 34.59375 
z
" id="CMR17-82"/>
     <path d="M 38.09375 23.484375 
C 38.5 23.890625 38.5 24.09375 38.5 25.09375 
C 38.5 35.171875 33.09375 44 21.703125 44 
C 11.09375 44 2.703125 33.984375 2.703125 21.78125 
C 2.703125 8.65625 12.203125 -1 22.796875 -1 
C 34 -1 38.40625 9.671875 38.40625 11.796875 
C 38.40625 12.5 37.796875 12.5 37.59375 12.5 
C 36.90625 12.5 36.796875 12.296875 36.40625 11.078125 
C 34.203125 4.21875 28.703125 0.796875 23.5 0.796875 
C 19.203125 0.796875 14.90625 3.21875 12.203125 7.65625 
C 9.09375 12.796875 9.09375 18.75 9.09375 23.484375 
z
M 9.203125 25 
C 9.90625 39.234375 17.59375 42.390625 21.59375 42.390625 
C 28.40625 42.390625 33 36.0625 33.09375 25 
z
" id="CMR17-101"/>
     <path d="M 23.5 -25 
L 23.5 -21.5 
L 14.09375 -21.5 
L 14.09375 71.484375 
L 23.5 71.484375 
L 23.5 75 
L 10.59375 75 
L 10.59375 -25 
z
" id="CMR17-91"/>
     <path d="M 3.09375 -16.953125 
C 3 -17.4375 2.796875 -18.03125 2.796875 -18.609375 
C 2.796875 -20.109375 4 -21.109375 5.5 -21.109375 
C 7 -21.109375 8.40625 -20.109375 9 -18.71875 
C 9.40625 -17.828125 12.203125 -6.09375 15.40625 6.078125 
C 17.40625 1.09375 21.09375 -1 25 -1 
C 36.296875 -1 49.09375 12.96875 49.09375 28.03125 
C 49.09375 38.703125 42.59375 44 35.703125 44 
C 26.90625 44 16.203125 34.90625 12.90625 21.640625 
z
M 24.90625 1 
C 18.09375 1 16.40625 8.875 16.40625 10.078125 
C 16.40625 10.671875 18.90625 20.140625 19.203125 21.640625 
C 24.296875 41.5 34.09375 41.984375 35.59375 41.984375 
C 40.09375 41.984375 42.59375 37.90625 42.59375 32.015625 
C 42.59375 26.9375 39.90625 17.046875 38.203125 12.859375 
C 35.203125 5.984375 30 1 24.90625 1 
z
" id="CMMI12-26"/>
     <path d="M 14.296875 75 
L 1.40625 75 
L 1.40625 71.484375 
L 10.796875 71.484375 
L 10.796875 -21.5 
L 1.40625 -21.5 
L 1.40625 -25 
L 14.296875 -25 
z
" id="CMR17-93"/>
    </defs>
    <g transform="translate(352.486567 117.931831)rotate(-86.842577)scale(0.14 -0.14)">
     <use transform="scale(0.996264)" xlink:href="#CMR17-82"/>
     <use transform="translate(67.791102 0)scale(0.996264)" xlink:href="#CMR17-101"/>
     <use transform="translate(108.276762 0)scale(0.996264)" xlink:href="#CMR17-91"/>
     <use transform="translate(133.147821 0)scale(0.996264)" xlink:href="#CMMI12-26"/>
     <use transform="translate(183.462194 0)scale(0.996264)" xlink:href="#CMR17-93"/>
    </g>
   </g>
   <g id="Line3DCollection_3">
    <path d="M 305.30688 168.04234 
L 128.675154 130.142845 
L 19.626925 197.936843 
" style="fill:none;stroke:#b0b0b0;stroke-width:0.8;"/>
    <path d="M 308.048909 118.334832 
L 128.000729 81.829869 
L 16.700456 147.171109 
" style="fill:none;stroke:#b0b0b0;stroke-width:0.8;"/>
    <path d="M 310.900066 66.649051 
L 127.30062 31.677003 
L 13.653545 94.316085 
" style="fill:none;stroke:#b0b0b0;stroke-width:0.8;"/>
   </g>
   <g id="xtick_9">
    <g id="line2d_12">
     <path d="M 303.833117 167.726118 
L 308.257474 168.675443 
" style="fill:none;stroke:#000000;stroke-linecap:square;stroke-width:0.8;"/>
    </g>
    <g id="text_10">
     <!-- $0.0$ -->
     <defs>
      <path d="M 18.40625 4.796875 
C 18.40625 7.6875 16 9.6875 13.59375 9.6875 
C 10.703125 9.6875 8.703125 7.296875 8.703125 4.890625 
C 8.703125 2 11.09375 0 13.5 0 
C 16.40625 0 18.40625 2.390625 18.40625 4.796875 
z
" id="CMMI12-58"/>
     </defs>
     <g transform="translate(315.116475 175.788665)scale(0.14 -0.14)">
      <use transform="scale(0.996264)" xlink:href="#CMR17-48"/>
      <use transform="translate(45.690477 0)scale(0.996264)" xlink:href="#CMMI12-58"/>
      <use transform="translate(72.787654 0)scale(0.996264)" xlink:href="#CMR17-48"/>
     </g>
    </g>
   </g>
   <g id="xtick_10">
    <g id="line2d_13">
     <path d="M 306.545433 118.030001 
L 311.059051 118.945142 
" style="fill:none;stroke:#000000;stroke-linecap:square;stroke-width:0.8;"/>
    </g>
    <g id="text_11">
     <!-- $0.2$ -->
     <defs>
      <path d="M 41.703125 15.46875 
L 39.90625 15.46875 
C 38.90625 8.390625 38.09375 7.1875 37.703125 6.59375 
C 37.203125 5.796875 30 5.796875 28.59375 5.796875 
L 9.40625 5.796875 
C 13 9.6875 20 16.765625 28.5 24.9375 
C 34.59375 30.71875 41.703125 37.5 41.703125 47.390625 
C 41.703125 59.1875 32.296875 66 21.796875 66 
C 10.796875 66 4.09375 56.296875 4.09375 47.296875 
C 4.09375 43.390625 7 42.890625 8.203125 42.890625 
C 9.203125 42.890625 12.203125 43.484375 12.203125 46.984375 
C 12.203125 50.09375 9.59375 51 8.203125 51 
C 7.59375 51 7 50.890625 6.59375 50.6875 
C 8.5 59.1875 14.296875 63.390625 20.40625 63.390625 
C 29.09375 63.390625 34.796875 56.5 34.796875 47.390625 
C 34.796875 38.703125 29.703125 31.21875 24 24.734375 
L 4.09375 2.296875 
L 4.09375 0 
L 39.296875 0 
z
" id="CMR17-50"/>
     </defs>
     <g transform="translate(318.213412 126.151087)scale(0.14 -0.14)">
      <use transform="scale(0.996264)" xlink:href="#CMR17-48"/>
      <use transform="translate(45.690477 0)scale(0.996264)" xlink:href="#CMMI12-58"/>
      <use transform="translate(72.787654 0)scale(0.996264)" xlink:href="#CMR17-50"/>
     </g>
    </g>
   </g>
   <g id="xtick_11">
    <g id="line2d_14">
     <path d="M 309.365656 66.356776 
L 313.972207 67.234232 
" style="fill:none;stroke:#000000;stroke-linecap:square;stroke-width:0.8;"/>
    </g>
    <g id="text_12">
     <!-- $0.4$ -->
     <defs>
      <path d="M 33.59375 64.796875 
C 33.59375 66.890625 33.5 67 31.703125 67 
L 2 19.59375 
L 2 17 
L 27.796875 17 
L 27.796875 7.1875 
C 27.796875 3.59375 27.59375 2.59375 20.59375 2.59375 
L 18.703125 2.59375 
L 18.703125 0 
C 21.90625 0.1875 27.296875 0.1875 30.703125 0.1875 
C 34.09375 0.1875 39.5 0.1875 42.703125 0 
L 42.703125 2.59375 
L 40.796875 2.59375 
C 33.796875 2.59375 33.59375 3.59375 33.59375 7.1875 
L 33.59375 17 
L 43.796875 17 
L 43.796875 19.59375 
L 33.59375 19.59375 
z
M 28.09375 58.171875 
L 28.09375 19.59375 
L 4 19.59375 
z
" id="CMR17-52"/>
     </defs>
     <g transform="translate(321.433329 74.542384)scale(0.14 -0.14)">
      <use transform="scale(0.996264)" xlink:href="#CMR17-48"/>
      <use transform="translate(45.690477 0)scale(0.996264)" xlink:href="#CMMI12-58"/>
      <use transform="translate(72.787654 0)scale(0.996264)" xlink:href="#CMR17-52"/>
     </g>
    </g>
   </g>
  </g>
  <g id="axes_1">
   <g id="Poly3DCollection_1">
    <path clip-path="url(#p4559cfe5e0)" d="M 133.039792 136.504277 
L 132.982074 131.812478 
L 154.415877 136.415399 
L 154.434774 141.123391 
z
" style="fill:#5d0618;fill-opacity:0.8;"/>
    <path clip-path="url(#p4559cfe5e0)" d="M 120.254208 144.535638 
L 120.172493 139.81574 
L 132.982074 131.812478 
L 133.039792 136.504277 
z
" style="fill:#ba0c2f;fill-opacity:0.8;"/>
    <path clip-path="url(#p4559cfe5e0)" d="M 120.254208 144.535638 
L 133.039792 136.504277 
L 154.434774 141.123391 
L 141.777592 149.239565 
z
" style="fill:#74081d;fill-opacity:0.8;"/>
    <path clip-path="url(#p4559cfe5e0)" d="M 120.172493 139.81574 
L 141.735165 144.503332 
L 154.415877 136.415399 
L 132.982074 131.812478 
z
" style="fill:#a30a29;fill-opacity:0.8;"/>
    <path clip-path="url(#p4559cfe5e0)" d="M 141.777592 149.239565 
L 154.434774 141.123391 
L 154.415877 136.415399 
L 141.735165 144.503332 
z
" style="fill:#5d0618;fill-opacity:0.8;"/>
    <path clip-path="url(#p4559cfe5e0)" d="M 120.254208 144.535638 
L 141.777592 149.239565 
L 141.735165 144.503332 
L 120.172493 139.81574 
z
" style="fill:#ba0c2f;fill-opacity:0.8;"/>
   </g>
   <g id="Poly3DCollection_2">
    <path clip-path="url(#p4559cfe5e0)" d="M 176.055251 145.791189 
L 176.050954 146.769767 
L 197.892125 151.4904 
L 197.904809 150.508445 
z
" style="fill:#ba0c2f;fill-opacity:0.8;"/>
    <path clip-path="url(#p4559cfe5e0)" d="M 163.529916 153.993527 
L 163.530392 154.977964 
L 176.050954 146.769767 
L 176.055251 145.791189 
z
" style="fill:#5d0618;fill-opacity:0.8;"/>
    <path clip-path="url(#p4559cfe5e0)" d="M 163.530392 154.977964 
L 185.506836 159.786168 
L 197.892125 151.4904 
L 176.050954 146.769767 
z
" style="fill:#a30a29;fill-opacity:0.8;"/>
    <path clip-path="url(#p4559cfe5e0)" d="M 163.529916 153.993527 
L 176.055251 145.791189 
L 197.904809 150.508445 
L 185.514851 158.798326 
z
" style="fill:#74081d;fill-opacity:0.8;"/>
    <path clip-path="url(#p4559cfe5e0)" d="M 185.514851 158.798326 
L 197.904809 150.508445 
L 197.892125 151.4904 
L 185.506836 159.786168 
z
" style="fill:#ba0c2f;fill-opacity:0.8;"/>
    <path clip-path="url(#p4559cfe5e0)" d="M 163.529916 153.993527 
L 185.514851 158.798326 
L 185.506836 159.786168 
L 163.530392 154.977964 
z
" style="fill:#5d0618;fill-opacity:0.8;"/>
   </g>
   <g id="Poly3DCollection_3">
    <path clip-path="url(#p4559cfe5e0)" d="M 107.233405 152.714754 
L 107.229321 152.532821 
L 128.883751 157.323289 
L 128.886312 157.505852 
z
" style="fill:#5d0618;fill-opacity:0.8;"/>
    <path clip-path="url(#p4559cfe5e0)" d="M 93.970833 161.04574 
L 93.965761 160.862715 
L 107.229321 152.532821 
L 107.233405 152.714754 
z
" style="fill:#ba0c2f;fill-opacity:0.8;"/>
    <path clip-path="url(#p4559cfe5e0)" d="M 93.970833 161.04574 
L 107.233405 152.714754 
L 128.886312 157.505852 
L 115.754376 165.926453 
z
" style="fill:#74081d;fill-opacity:0.8;"/>
    <path clip-path="url(#p4559cfe5e0)" d="M 93.965761 160.862715 
L 115.750846 165.742793 
L 128.883751 157.323289 
L 107.229321 152.532821 
z
" style="fill:#a30a29;fill-opacity:0.8;"/>
    <path clip-path="url(#p4559cfe5e0)" d="M 115.754376 165.926453 
L 128.886312 157.505852 
L 128.883751 157.323289 
L 115.750846 165.742793 
z
" style="fill:#5d0618;fill-opacity:0.8;"/>
    <path clip-path="url(#p4559cfe5e0)" d="M 93.970833 161.04574 
L 115.754376 165.926453 
L 115.750846 165.742793 
L 93.965761 160.862715 
z
" style="fill:#ba0c2f;fill-opacity:0.8;"/>
   </g>
   <g id="Poly3DCollection_4">
    <path clip-path="url(#p4559cfe5e0)" d="M 219.987107 155.275949 
L 219.997119 154.81166 
L 242.320018 159.628611 
L 242.305883 160.094508 
z
" style="fill:#5d0618;fill-opacity:0.8;"/>
    <path clip-path="url(#p4559cfe5e0)" d="M 207.736148 163.654781 
L 207.744012 163.187702 
L 219.997119 154.81166 
L 219.987107 155.275949 
z
" style="fill:#ba0c2f;fill-opacity:0.8;"/>
    <path clip-path="url(#p4559cfe5e0)" d="M 207.736148 163.654781 
L 219.987107 155.275949 
L 242.305883 160.094508 
L 230.19764 168.563731 
z
" style="fill:#74081d;fill-opacity:0.8;"/>
    <path clip-path="url(#p4559cfe5e0)" d="M 207.744012 163.187702 
L 230.209679 168.09503 
L 242.320018 159.628611 
L 219.997119 154.81166 
z
" style="fill:#a30a29;fill-opacity:0.8;"/>
    <path clip-path="url(#p4559cfe5e0)" d="M 230.19764 168.563731 
L 242.305883 160.094508 
L 242.320018 159.628611 
L 230.209679 168.09503 
z
" style="fill:#5d0618;fill-opacity:0.8;"/>
    <path clip-path="url(#p4559cfe5e0)" d="M 207.736148 163.654781 
L 230.19764 168.563731 
L 230.209679 168.09503 
L 207.744012 163.187702 
z
" style="fill:#ba0c2f;fill-opacity:0.8;"/>
   </g>
   <g id="Poly3DCollection_5">
    <path clip-path="url(#p4559cfe5e0)" d="M 150.771676 162.348384 
L 150.768158 161.706586 
L 172.895315 166.59916 
L 172.893262 167.243186 
z
" style="fill:#5d0618;fill-opacity:0.8;"/>
    <path clip-path="url(#p4559cfe5e0)" d="M 137.773974 170.860056 
L 137.767125 170.214393 
L 150.768158 161.706586 
L 150.771676 162.348384 
z
" style="fill:#ba0c2f;fill-opacity:0.8;"/>
    <path clip-path="url(#p4559cfe5e0)" d="M 137.773974 170.860056 
L 150.771676 162.348384 
L 172.893262 167.243186 
L 160.033485 175.847412 
z
" style="fill:#74081d;fill-opacity:0.8;"/>
    <path clip-path="url(#p4559cfe5e0)" d="M 137.767125 170.214393 
L 160.032277 175.199503 
L 172.895315 166.59916 
L 150.768158 161.706586 
z
" style="fill:#a30a29;fill-opacity:0.8;"/>
    <path clip-path="url(#p4559cfe5e0)" d="M 160.033485 175.847412 
L 172.893262 167.243186 
L 172.895315 166.59916 
L 160.032277 175.199503 
z
" style="fill:#5d0618;fill-opacity:0.8;"/>
    <path clip-path="url(#p4559cfe5e0)" d="M 137.773974 170.860056 
L 160.033485 175.847412 
L 160.032277 175.199503 
L 137.767125 170.214393 
z
" style="fill:#ba0c2f;fill-opacity:0.8;"/>
   </g>
   <g id="Poly3DCollection_6">
    <path clip-path="url(#p4559cfe5e0)" d="M 80.459694 169.532865 
L 80.44029 168.946836 
L 102.360545 173.917665 
L 102.374983 174.505732 
z
" style="fill:#5d0618;fill-opacity:0.8;"/>
    <path clip-path="url(#p4559cfe5e0)" d="M 66.692934 178.18056 
L 66.670147 177.590995 
L 80.44029 168.946836 
L 80.459694 169.532865 
z
" style="fill:#ba0c2f;fill-opacity:0.8;"/>
    <path clip-path="url(#p4559cfe5e0)" d="M 66.692934 178.18056 
L 80.459694 169.532865 
L 102.374983 174.505732 
L 88.741072 183.248216 
z
" style="fill:#74081d;fill-opacity:0.8;"/>
    <path clip-path="url(#p4559cfe5e0)" d="M 66.670147 177.590995 
L 88.723311 182.656597 
L 102.360545 173.917665 
L 80.44029 168.946836 
z
" style="fill:#a30a29;fill-opacity:0.8;"/>
    <path clip-path="url(#p4559cfe5e0)" d="M 88.741072 183.248216 
L 102.374983 174.505732 
L 102.360545 173.917665 
L 88.723311 182.656597 
z
" style="fill:#5d0618;fill-opacity:0.8;"/>
    <path clip-path="url(#p4559cfe5e0)" d="M 66.692934 178.18056 
L 88.741072 183.248216 
L 88.723311 182.656597 
L 66.670147 177.590995 
z
" style="fill:#ba0c2f;fill-opacity:0.8;"/>
   </g>
   <g id="Poly3DCollection_7">
    <path clip-path="url(#p4559cfe5e0)" d="M 195.254914 172.191106 
L 195.264891 171.358713 
L 217.878032 176.357725 
L 217.860562 177.193014 
z
" style="fill:#5d0618;fill-opacity:0.8;"/>
    <path clip-path="url(#p4559cfe5e0)" d="M 182.536851 180.889405 
L 182.542721 180.051986 
L 195.264891 171.358713 
L 195.254914 172.191106 
z
" style="fill:#ba0c2f;fill-opacity:0.8;"/>
    <path clip-path="url(#p4559cfe5e0)" d="M 182.536851 180.889405 
L 195.254914 172.191106 
L 217.860562 177.193014 
L 205.288102 185.986938 
z
" style="fill:#74081d;fill-opacity:0.8;"/>
    <path clip-path="url(#p4559cfe5e0)" d="M 182.542721 180.051986 
L 205.301562 185.146599 
L 217.878032 176.357725 
L 195.264891 171.358713 
z
" style="fill:#a30a29;fill-opacity:0.8;"/>
    <path clip-path="url(#p4559cfe5e0)" d="M 205.288102 185.986938 
L 217.860562 177.193014 
L 217.878032 176.357725 
L 205.301562 185.146599 
z
" style="fill:#5d0618;fill-opacity:0.8;"/>
    <path clip-path="url(#p4559cfe5e0)" d="M 182.536851 180.889405 
L 205.288102 185.986938 
L 205.301562 185.146599 
L 182.542721 180.051986 
z
" style="fill:#ba0c2f;fill-opacity:0.8;"/>
   </g>
   <g id="Poly3DCollection_8">
    <path clip-path="url(#p4559cfe5e0)" d="M 124.530005 179.532998 
L 124.516629 178.689941 
L 146.922752 183.769563 
L 146.928714 184.615559 
z
" style="fill:#5d0618;fill-opacity:0.8;"/>
    <path clip-path="url(#p4559cfe5e0)" d="M 111.032702 188.371838 
L 111.014669 187.523681 
L 124.516629 178.689941 
L 124.530005 179.532998 
z
" style="fill:#ba0c2f;fill-opacity:0.8;"/>
    <path clip-path="url(#p4559cfe5e0)" d="M 111.032702 188.371838 
L 124.530005 179.532998 
L 146.928714 184.615559 
L 133.571881 193.552357 
z
" style="fill:#74081d;fill-opacity:0.8;"/>
    <path clip-path="url(#p4559cfe5e0)" d="M 111.014669 187.523681 
L 133.561354 192.701238 
L 146.922752 183.769563 
L 124.516629 178.689941 
z
" style="fill:#a30a29;fill-opacity:0.8;"/>
    <path clip-path="url(#p4559cfe5e0)" d="M 133.571881 193.552357 
L 146.928714 184.615559 
L 146.922752 183.769563 
L 133.561354 192.701238 
z
" style="fill:#5d0618;fill-opacity:0.8;"/>
    <path clip-path="url(#p4559cfe5e0)" d="M 111.032702 188.371838 
L 133.571881 193.552357 
L 133.561354 192.701238 
L 111.014669 187.523681 
z
" style="fill:#ba0c2f;fill-opacity:0.8;"/>
   </g>
   <g id="Poly3DCollection_9">
    <path clip-path="url(#p4559cfe5e0)" d="M 240.714222 182.2498 
L 240.728406 181.77663 
L 263.838599 186.88755 
L 263.819997 187.362371 
z
" style="fill:#5d0618;fill-opacity:0.8;"/>
    <path clip-path="url(#p4559cfe5e0)" d="M 228.291356 191.140934 
L 228.303334 190.6649 
L 240.728406 181.77663 
L 240.714222 182.2498 
z
" style="fill:#ba0c2f;fill-opacity:0.8;"/>
    <path clip-path="url(#p4559cfe5e0)" d="M 228.291356 191.140934 
L 240.714222 182.2498 
L 263.819997 187.362371 
L 251.550824 196.352335 
z
" style="fill:#74081d;fill-opacity:0.8;"/>
    <path clip-path="url(#p4559cfe5e0)" d="M 228.303334 190.6649 
L 251.567279 195.874638 
L 263.838599 186.88755 
L 240.728406 181.77663 
z
" style="fill:#a30a29;fill-opacity:0.8;"/>
    <path clip-path="url(#p4559cfe5e0)" d="M 251.550824 196.352335 
L 263.819997 187.362371 
L 263.838599 186.88755 
L 251.567279 195.874638 
z
" style="fill:#5d0618;fill-opacity:0.8;"/>
    <path clip-path="url(#p4559cfe5e0)" d="M 228.291356 191.140934 
L 251.550824 196.352335 
L 251.567279 195.874638 
L 228.303334 190.6649 
z
" style="fill:#ba0c2f;fill-opacity:0.8;"/>
   </g>
   <g id="Poly3DCollection_10">
    <path clip-path="url(#p4559cfe5e0)" d="M 169.575154 189.754334 
L 169.576399 189.100235 
L 192.480672 194.293875 
L 192.473458 194.95026 
z
" style="fill:#5d0618;fill-opacity:0.8;"/>
    <path clip-path="url(#p4559cfe5e0)" d="M 156.362755 198.790727 
L 156.360557 198.132663 
L 169.576399 189.100235 
L 169.575154 189.754334 
z
" style="fill:#ba0c2f;fill-opacity:0.8;"/>
    <path clip-path="url(#p4559cfe5e0)" d="M 156.362755 198.790727 
L 169.575154 189.754334 
L 192.473458 194.95026 
L 179.409563 204.087922 
z
" style="fill:#74081d;fill-opacity:0.8;"/>
    <path clip-path="url(#p4559cfe5e0)" d="M 156.360557 198.132663 
L 179.413413 203.427555 
L 192.480672 194.293875 
L 169.576399 189.100235 
z
" style="fill:#a30a29;fill-opacity:0.8;"/>
    <path clip-path="url(#p4559cfe5e0)" d="M 179.409563 204.087922 
L 192.473458 194.95026 
L 192.480672 194.293875 
L 179.413413 203.427555 
z
" style="fill:#5d0618;fill-opacity:0.8;"/>
    <path clip-path="url(#p4559cfe5e0)" d="M 156.362755 198.790727 
L 179.409563 204.087922 
L 179.413413 203.427555 
L 156.360557 198.132663 
z
" style="fill:#ba0c2f;fill-opacity:0.8;"/>
   </g>
   <g id="Poly3DCollection_11">
    <path clip-path="url(#p4559cfe5e0)" d="M 97.274727 197.381381 
L 97.25872 196.7841 
L 119.944954 202.063347 
L 119.955642 202.662718 
z
" style="fill:#5d0618;fill-opacity:0.8;"/>
    <path clip-path="url(#p4559cfe5e0)" d="M 83.248455 206.566622 
L 83.228932 205.965715 
L 97.25872 196.7841 
L 97.274727 197.381381 
z
" style="fill:#ba0c2f;fill-opacity:0.8;"/>
    <path clip-path="url(#p4559cfe5e0)" d="M 83.248455 206.566622 
L 97.274727 197.381381 
L 119.955642 202.662718 
L 106.072366 211.951748 
z
" style="fill:#74081d;fill-opacity:0.8;"/>
    <path clip-path="url(#p4559cfe5e0)" d="M 83.228932 205.965715 
L 106.05823 211.348735 
L 119.944954 202.063347 
L 97.25872 196.7841 
z
" style="fill:#a30a29;fill-opacity:0.8;"/>
    <path clip-path="url(#p4559cfe5e0)" d="M 106.072366 211.951748 
L 119.955642 202.662718 
L 119.944954 202.063347 
L 106.05823 211.348735 
z
" style="fill:#5d0618;fill-opacity:0.8;"/>
    <path clip-path="url(#p4559cfe5e0)" d="M 83.248455 206.566622 
L 106.072366 211.951748 
L 106.05823 211.348735 
L 83.228932 205.965715 
z
" style="fill:#ba0c2f;fill-opacity:0.8;"/>
   </g>
   <g id="Poly3DCollection_12">
    <path clip-path="url(#p4559cfe5e0)" d="M 215.62785 200.204296 
L 215.607301 201.220664 
L 239.012472 206.537345 
L 239.042651 205.517422 
z
" style="fill:#ba0c2f;fill-opacity:0.8;"/>
    <path clip-path="url(#p4559cfe5e0)" d="M 202.716642 209.444939 
L 202.70116 210.467474 
L 215.607301 201.220664 
L 215.62785 200.204296 
z
" style="fill:#5d0618;fill-opacity:0.8;"/>
    <path clip-path="url(#p4559cfe5e0)" d="M 202.70116 210.467474 
L 226.263183 215.888913 
L 239.012472 206.537345 
L 215.607301 201.220664 
z
" style="fill:#a30a29;fill-opacity:0.8;"/>
    <path clip-path="url(#p4559cfe5e0)" d="M 202.716642 209.444939 
L 215.62785 200.204296 
L 239.042651 205.517422 
L 226.288425 214.862798 
z
" style="fill:#74081d;fill-opacity:0.8;"/>
    <path clip-path="url(#p4559cfe5e0)" d="M 226.288425 214.862798 
L 239.042651 205.517422 
L 239.012472 206.537345 
L 226.263183 215.888913 
z
" style="fill:#ba0c2f;fill-opacity:0.8;"/>
    <path clip-path="url(#p4559cfe5e0)" d="M 202.716642 209.444939 
L 226.288425 214.862798 
L 226.263183 215.888913 
L 202.70116 210.467474 
z
" style="fill:#5d0618;fill-opacity:0.8;"/>
   </g>
   <g id="Poly3DCollection_13">
    <path clip-path="url(#p4559cfe5e0)" d="M 142.892308 208.003607 
L 142.890659 207.814629 
L 166.089175 213.215422 
L 166.089075 213.405061 
z
" style="fill:#5d0618;fill-opacity:0.8;"/>
    <path clip-path="url(#p4559cfe5e0)" d="M 129.156179 217.398195 
L 129.153469 217.208069 
L 142.890659 207.814629 
L 142.892308 208.003607 
z
" style="fill:#ba0c2f;fill-opacity:0.8;"/>
    <path clip-path="url(#p4559cfe5e0)" d="M 129.156179 217.398195 
L 142.892308 208.003607 
L 166.089075 213.405061 
L 152.504359 222.907017 
z
" style="fill:#74081d;fill-opacity:0.8;"/>
    <path clip-path="url(#p4559cfe5e0)" d="M 129.153469 217.208069 
L 152.50342 222.716224 
L 166.089175 213.215422 
L 142.890659 207.814629 
z
" style="fill:#a30a29;fill-opacity:0.8;"/>
    <path clip-path="url(#p4559cfe5e0)" d="M 152.504359 222.907017 
L 166.089075 213.405061 
L 166.089175 213.215422 
L 152.50342 222.716224 
z
" style="fill:#5d0618;fill-opacity:0.8;"/>
    <path clip-path="url(#p4559cfe5e0)" d="M 129.156179 217.398195 
L 152.504359 222.907017 
L 152.50342 222.716224 
L 129.153469 217.208069 
z
" style="fill:#ba0c2f;fill-opacity:0.8;"/>
   </g>
   <g id="Poly3DCollection_14">
    <path clip-path="url(#p4559cfe5e0)" d="M 252.903242 173.526032 
L 264.864957 164.964947 
L 287.66823 169.888107 
L 275.856956 178.542557 
z
" style="fill:#74081d;fill-opacity:0.8;"/>
    <path clip-path="url(#p4559cfe5e0)" d="M 264.864957 164.964947 
L 269.827781 38.497297 
L 293.796276 42.947308 
L 287.66823 169.888107 
z
" style="fill:#5d0618;fill-opacity:0.8;"/>
    <path clip-path="url(#p4559cfe5e0)" d="M 252.903242 173.526032 
L 257.316186 46.237137 
L 269.827781 38.497297 
L 264.864957 164.964947 
z
" style="fill:#ba0c2f;fill-opacity:0.8;"/>
    <path clip-path="url(#p4559cfe5e0)" d="M 275.856956 178.542557 
L 287.66823 169.888107 
L 293.796276 42.947308 
L 281.451124 50.775797 
z
" style="fill:#5d0618;fill-opacity:0.8;"/>
    <path clip-path="url(#p4559cfe5e0)" d="M 252.903242 173.526032 
L 275.856956 178.542557 
L 281.451124 50.775797 
L 257.316186 46.237137 
z
" style="fill:#ba0c2f;fill-opacity:0.8;"/>
    <path clip-path="url(#p4559cfe5e0)" d="M 257.316186 46.237137 
L 281.451124 50.775797 
L 293.796276 42.947308 
L 269.827781 38.497297 
z
" style="fill:#a30a29;fill-opacity:0.8;"/>
   </g>
   <g id="Poly3DCollection_15">
    <path clip-path="url(#p4559cfe5e0)" d="M 189.550394 218.868117 
L 189.599696 213.900743 
L 213.377882 219.408973 
L 213.280815 224.393835 
z
" style="fill:#5d0618;fill-opacity:0.8;"/>
    <path clip-path="url(#p4559cfe5e0)" d="M 176.121472 228.479292 
L 176.144284 223.48158 
L 189.599696 213.900743 
L 189.550394 218.868117 
z
" style="fill:#ba0c2f;fill-opacity:0.8;"/>
    <path clip-path="url(#p4559cfe5e0)" d="M 176.121472 228.479292 
L 189.550394 218.868117 
L 213.280815 224.393835 
L 200.012193 234.116123 
z
" style="fill:#74081d;fill-opacity:0.8;"/>
    <path clip-path="url(#p4559cfe5e0)" d="M 176.144284 223.48158 
L 200.083421 229.100795 
L 213.377882 219.408973 
L 189.599696 213.900743 
z
" style="fill:#a30a29;fill-opacity:0.8;"/>
    <path clip-path="url(#p4559cfe5e0)" d="M 200.012193 234.116123 
L 213.280815 224.393835 
L 213.377882 219.408973 
L 200.083421 229.100795 
z
" style="fill:#5d0618;fill-opacity:0.8;"/>
    <path clip-path="url(#p4559cfe5e0)" d="M 176.121472 228.479292 
L 200.012193 234.116123 
L 200.083421 229.100795 
L 176.144284 223.48158 
z
" style="fill:#ba0c2f;fill-opacity:0.8;"/>
   </g>
   <g id="Poly3DCollection_16">
    <path clip-path="url(#p4559cfe5e0)" d="M 25.523809 197.319773 
L 203.752488 239.567579 
L 299.770982 168.621635 
L 130.040091 132.132232 
z
" style="fill-opacity:0.15;"/>
   </g>
   <g id="Poly3DCollection_17">
    <path clip-path="url(#p4559cfe5e0)" d="M 38.362975 195.97624 
L 52.663229 186.993426 
L 74.84531 192.158607 
L 60.68008 201.241789 
z
" style="fill:#74081d;fill-opacity:0.8;"/>
    <path clip-path="url(#p4559cfe5e0)" d="M 52.663229 186.993426 
L 46.933544 57.750519 
L 70.222556 62.427839 
L 74.84531 192.158607 
z
" style="fill:#5d0618;fill-opacity:0.8;"/>
    <path clip-path="url(#p4559cfe5e0)" d="M 38.362975 195.97624 
L 31.836896 65.886594 
L 46.933544 57.750519 
L 52.663229 186.993426 
z
" style="fill:#ba0c2f;fill-opacity:0.8;"/>
    <path clip-path="url(#p4559cfe5e0)" d="M 60.68008 201.241789 
L 74.84531 192.158607 
L 70.222556 62.427839 
L 55.274545 70.659531 
z
" style="fill:#5d0618;fill-opacity:0.8;"/>
    <path clip-path="url(#p4559cfe5e0)" d="M 38.362975 195.97624 
L 60.68008 201.241789 
L 55.274545 70.659531 
L 31.836896 65.886594 
z
" style="fill:#ba0c2f;fill-opacity:0.8;"/>
    <path clip-path="url(#p4559cfe5e0)" d="M 31.836896 65.886594 
L 55.274545 70.659531 
L 70.222556 62.427839 
L 46.933544 57.750519 
z
" style="fill:#a30a29;fill-opacity:0.8;"/>
   </g>
  </g>
  <g id="patch_6">
   <path d="M 425.945455 262.8 
L 806.4 262.8 
L 806.4 -14.4 
L 425.945455 -14.4 
z
" style="fill:#ffffff;"/>
  </g>
  <g id="pane3d_4">
   <g id="patch_7">
    <path d="M 476.380584 201.548569 
L 585.268665 133.58541 
L 583.455794 3.718968 
L 468.496488 64.782468 
" style="fill:#f2f2f2;opacity:0.5;stroke:#f2f2f2;stroke-linejoin:miter;"/>
   </g>
  </g>
  <g id="pane3d_5">
   <g id="patch_8">
    <path d="M 585.268665 133.58541 
L 761.65712 171.581202 
L 769.037001 37.79869 
L 583.455794 3.718968 
" style="fill:#e6e6e6;opacity:0.5;stroke:#e6e6e6;stroke-linejoin:miter;"/>
   </g>
  </g>
  <g id="pane3d_6">
   <g id="patch_9">
    <path d="M 476.380584 201.548569 
L 661.965072 245.80086 
L 761.65712 171.581202 
L 585.268665 133.58541 
" style="fill:#ececec;opacity:0.5;stroke:#ececec;stroke-linejoin:miter;"/>
   </g>
  </g>
  <g id="axis3d_4">
   <g id="line2d_15">
    <path d="M 476.380584 201.548569 
L 661.965072 245.80086 
" style="fill:none;stroke:#000000;stroke-linecap:square;stroke-width:0.8;"/>
   </g>
   <g id="Line3DCollection_4">
    <path d="M 498.841271 206.90428 
L 606.679397 138.19749 
L 605.9393 7.847789 
" style="fill:none;stroke:#b0b0b0;stroke-width:0.8;"/>
    <path d="M 544.057792 217.686079 
L 649.729469 147.470895 
L 651.182353 16.156123 
" style="fill:none;stroke:#b0b0b0;stroke-width:0.8;"/>
    <path d="M 590.310744 228.715013 
L 693.693551 156.941187 
L 697.435637 24.649974 
" style="fill:none;stroke:#b0b0b0;stroke-width:0.8;"/>
    <path d="M 637.636176 239.999678 
L 738.601063 166.614702 
L 744.733372 33.335625 
" style="fill:none;stroke:#b0b0b0;stroke-width:0.8;"/>
   </g>
   <g id="xtick_12">
    <g id="line2d_16">
     <path d="M 499.770538 206.312217 
L 496.979262 208.09062 
" style="fill:none;stroke:#000000;stroke-linecap:square;stroke-width:0.8;"/>
    </g>
    <g id="text_13">
     <!-- 00 -->
     <g transform="translate(479.875817 237.14703)rotate(-45)scale(0.14 -0.14)">
      <use transform="scale(0.996264)" xlink:href="#CMR17-48"/>
      <use transform="translate(45.690477 0)scale(0.996264)" xlink:href="#CMR17-48"/>
     </g>
    </g>
   </g>
   <g id="xtick_13">
    <g id="line2d_17">
     <path d="M 544.969128 217.080527 
L 542.231671 218.899473 
" style="fill:none;stroke:#000000;stroke-linecap:square;stroke-width:0.8;"/>
    </g>
    <g id="text_14">
     <!-- 01 -->
     <g transform="translate(525.088242 248.103782)rotate(-45)scale(0.14 -0.14)">
      <use transform="scale(0.996264)" xlink:href="#CMR17-48"/>
      <use transform="translate(45.690477 0)scale(0.996264)" xlink:href="#CMR17-49"/>
     </g>
    </g>
   </g>
   <g id="xtick_14">
    <g id="line2d_18">
     <path d="M 591.20308 228.095506 
L 588.522658 229.956397 
" style="fill:none;stroke:#000000;stroke-linecap:square;stroke-width:0.8;"/>
    </g>
    <g id="text_15">
     <!-- 10 -->
     <g transform="translate(571.338855 259.312128)rotate(-45)scale(0.14 -0.14)">
      <use transform="scale(0.996264)" xlink:href="#CMR17-49"/>
      <use transform="translate(45.690477 0)scale(0.996264)" xlink:href="#CMR17-48"/>
     </g>
    </g>
   </g>
   <g id="xtick_15">
    <g id="line2d_19">
     <path d="M 638.50838 239.365727 
L 635.888391 241.270032 
" style="fill:none;stroke:#000000;stroke-linecap:square;stroke-width:0.8;"/>
    </g>
    <g id="text_16">
     <!-- 11 -->
     <g transform="translate(618.66383 270.780834)rotate(-45)scale(0.14 -0.14)">
      <use transform="scale(0.996264)" xlink:href="#CMR17-49"/>
      <use transform="translate(45.690477 0)scale(0.996264)" xlink:href="#CMR17-49"/>
     </g>
    </g>
   </g>
  </g>
  <g id="axis3d_5">
   <g id="line2d_20">
    <path d="M 761.65712 171.581202 
L 661.965072 245.80086 
" style="fill:none;stroke:#000000;stroke-linecap:square;stroke-width:0.8;"/>
   </g>
   <g id="Line3DCollection_5">
    <path d="M 484.000685 56.547028 
L 491.016499 192.413474 
L 675.403872 235.795817 
" style="fill:none;stroke:#b0b0b0;stroke-width:0.8;"/>
    <path d="M 513.777478 40.730342 
L 519.168861 174.842005 
L 701.219492 216.576366 
" style="fill:none;stroke:#b0b0b0;stroke-width:0.8;"/>
    <path d="M 542.401344 25.526062 
L 546.284836 157.917404 
L 726.04244 198.095948 
" style="fill:none;stroke:#b0b0b0;stroke-width:0.8;"/>
    <path d="M 569.937971 10.899296 
L 572.420618 141.604597 
L 749.928893 180.312741 
" style="fill:none;stroke:#b0b0b0;stroke-width:0.8;"/>
   </g>
   <g id="xtick_16">
    <g id="line2d_21">
     <path d="M 673.861052 235.432825 
L 678.492943 236.522608 
" style="fill:none;stroke:#000000;stroke-linecap:square;stroke-width:0.8;"/>
    </g>
    <g id="text_17">
     <!-- 00 -->
     <g transform="translate(689.195824 248.348363)rotate(-337.5)scale(0.14 -0.14)">
      <use transform="scale(0.996264)" xlink:href="#CMR17-48"/>
      <use transform="translate(45.690477 0)scale(0.996264)" xlink:href="#CMR17-48"/>
     </g>
    </g>
   </g>
   <g id="xtick_17">
    <g id="line2d_22">
     <path d="M 699.697534 216.227463 
L 704.266725 217.274932 
" style="fill:none;stroke:#000000;stroke-linecap:square;stroke-width:0.8;"/>
    </g>
    <g id="text_18">
     <!-- 01 -->
     <g transform="translate(714.749375 228.903937)rotate(-337.5)scale(0.14 -0.14)">
      <use transform="scale(0.996264)" xlink:href="#CMR17-48"/>
      <use transform="translate(45.690477 0)scale(0.996264)" xlink:href="#CMR17-49"/>
     </g>
    </g>
   </g>
   <g id="xtick_18">
    <g id="line2d_23">
     <path d="M 724.540896 197.76033 
L 729.048738 198.767901 
" style="fill:none;stroke:#000000;stroke-linecap:square;stroke-width:0.8;"/>
    </g>
    <g id="text_19">
     <!-- 10 -->
     <g transform="translate(739.320787 210.206849)rotate(-337.5)scale(0.14 -0.14)">
      <use transform="scale(0.996264)" xlink:href="#CMR17-49"/>
      <use transform="translate(45.690477 0)scale(0.996264)" xlink:href="#CMR17-48"/>
     </g>
    </g>
   </g>
   <g id="xtick_19">
    <g id="line2d_24">
     <path d="M 748.44732 179.989663 
L 752.895146 180.959573 
" style="fill:none;stroke:#000000;stroke-linecap:square;stroke-width:0.8;"/>
    </g>
    <g id="text_20">
     <!-- 11 -->
     <g transform="translate(762.965613 192.214827)rotate(-337.5)scale(0.14 -0.14)">
      <use transform="scale(0.996264)" xlink:href="#CMR17-49"/>
      <use transform="translate(45.690477 0)scale(0.996264)" xlink:href="#CMR17-49"/>
     </g>
    </g>
   </g>
  </g>
  <g id="axis3d_6">
   <g id="line2d_25">
    <path d="M 761.65712 171.581202 
L 769.037001 37.79869 
" style="fill:none;stroke:#000000;stroke-linecap:square;stroke-width:0.8;"/>
   </g>
   <g id="text_21">
    <!-- Im[$\rho$] -->
    <defs>
     <path d="M 19.703125 60.90625 
C 19.703125 65.390625 20.90625 65.390625 28.09375 65.390625 
L 28.09375 68 
C 24.90625 67.796875 19.796875 67.796875 16.40625 67.796875 
C 13 67.796875 7.90625 67.796875 4.703125 68 
L 4.703125 65.390625 
C 11.90625 65.390625 13.09375 65.390625 13.09375 60.90625 
L 13.09375 7.078125 
C 13.09375 2.59375 11.90625 2.59375 4.703125 2.59375 
L 4.703125 0 
C 7.90625 0.1875 13 0.1875 16.40625 0.1875 
C 19.796875 0.1875 24.90625 0.1875 28.09375 0 
L 28.09375 2.59375 
C 20.90625 2.59375 19.703125 2.59375 19.703125 7.078125 
z
" id="CMR17-73"/>
     <path d="M 67.59375 30.53125 
C 67.59375 35.5625 66.703125 44 54.796875 44 
C 48 44 43.296875 39.375 41.5 33.953125 
L 41.40625 33.953125 
C 40.203125 42.1875 34.296875 44 28.703125 44 
C 20.796875 44 16.703125 37.875 15.203125 33.84375 
L 15.09375 33.84375 
L 15.09375 44 
L 3.296875 42.890625 
L 3.296875 40.28125 
C 9.203125 40.28125 10.09375 39.6875 10.09375 34.859375 
L 10.09375 6.921875 
C 10.09375 3.09375 9.703125 2.59375 3.296875 2.59375 
L 3.296875 0 
C 5.703125 0.1875 10.09375 0.1875 12.703125 0.1875 
C 15.296875 0.1875 19.796875 0.1875 22.203125 0 
L 22.203125 2.59375 
C 15.796875 2.59375 15.40625 3 15.40625 6.921875 
L 15.40625 26.21875 
C 15.40625 35.453125 21 42.390625 28 42.390625 
C 35.40625 42.390625 36.203125 35.765625 36.203125 30.9375 
L 36.203125 6.921875 
C 36.203125 3.09375 35.796875 2.59375 29.40625 2.59375 
L 29.40625 0 
C 31.796875 0.1875 36.203125 0.1875 38.796875 0.1875 
C 41.40625 0.1875 45.90625 0.1875 48.296875 0 
L 48.296875 2.59375 
C 41.90625 2.59375 41.5 3 41.5 6.921875 
L 41.5 26.21875 
C 41.5 35.453125 47.09375 42.390625 54.09375 42.390625 
C 61.5 42.390625 62.296875 35.765625 62.296875 30.9375 
L 62.296875 6.921875 
C 62.296875 3.09375 61.90625 2.59375 55.5 2.59375 
L 55.5 0 
C 57.90625 0.1875 62.296875 0.1875 64.90625 0.1875 
C 67.5 0.1875 72 0.1875 74.40625 0 
L 74.40625 2.59375 
C 68 2.59375 67.59375 3 67.59375 6.921875 
z
" id="CMR17-109"/>
    </defs>
    <g transform="translate(809.026865 118.025317)rotate(-86.842577)scale(0.14 -0.14)">
     <use transform="scale(0.996264)" xlink:href="#CMR17-73"/>
     <use transform="translate(32.638409 0)scale(0.996264)" xlink:href="#CMR17-109"/>
     <use transform="translate(109.557999 0)scale(0.996264)" xlink:href="#CMR17-91"/>
     <use transform="translate(134.429058 0)scale(0.996264)" xlink:href="#CMMI12-26"/>
     <use transform="translate(184.74343 0)scale(0.996264)" xlink:href="#CMR17-93"/>
    </g>
   </g>
   <g id="Line3DCollection_6">
    <path d="M 761.876657 167.601437 
L 585.214622 129.713967 
L 476.146439 197.486838 
" style="fill:none;stroke:#b0b0b0;stroke-width:0.8;"/>
    <path d="M 764.609487 118.060686 
L 584.542467 81.563631 
L 473.22976 146.890947 
" style="fill:none;stroke:#b0b0b0;stroke-width:0.8;"/>
    <path d="M 767.450687 66.555391 
L 583.844807 31.586198 
L 470.193475 94.220243 
" style="fill:none;stroke:#b0b0b0;stroke-width:0.8;"/>
   </g>
   <g id="xtick_20">
    <g id="line2d_26">
     <path d="M 760.40263 167.285312 
L 764.827778 168.234343 
" style="fill:none;stroke:#000000;stroke-linecap:square;stroke-width:0.8;"/>
    </g>
    <g id="text_22">
     <!-- $0.0$ -->
     <g transform="translate(771.6894 175.348363)scale(0.14 -0.14)">
      <use transform="scale(0.996264)" xlink:href="#CMR17-48"/>
      <use transform="translate(45.690477 0)scale(0.996264)" xlink:href="#CMMI12-58"/>
      <use transform="translate(72.787654 0)scale(0.996264)" xlink:href="#CMR17-48"/>
     </g>
    </g>
   </g>
   <g id="xtick_21">
    <g id="line2d_27">
     <path d="M 763.105847 117.75592 
L 767.619957 118.670867 
" style="fill:none;stroke:#000000;stroke-linecap:square;stroke-width:0.8;"/>
    </g>
    <g id="text_23">
     <!-- $0.2$ -->
     <g transform="translate(774.775946 125.877339)scale(0.14 -0.14)">
      <use transform="scale(0.996264)" xlink:href="#CMR17-48"/>
      <use transform="translate(45.690477 0)scale(0.996264)" xlink:href="#CMMI12-58"/>
      <use transform="translate(72.787654 0)scale(0.996264)" xlink:href="#CMR17-50"/>
     </g>
    </g>
   </g>
   <g id="xtick_22">
    <g id="line2d_28">
     <path d="M 765.916221 66.26314 
L 770.522941 67.140526 
" style="fill:none;stroke:#000000;stroke-linecap:square;stroke-width:0.8;"/>
    </g>
    <g id="text_24">
     <!-- $0.4$ -->
     <g transform="translate(777.984619 74.448869)scale(0.14 -0.14)">
      <use transform="scale(0.996264)" xlink:href="#CMR17-48"/>
      <use transform="translate(45.690477 0)scale(0.996264)" xlink:href="#CMMI12-58"/>
      <use transform="translate(72.787654 0)scale(0.996264)" xlink:href="#CMR17-52"/>
     </g>
    </g>
   </g>
  </g>
  <g id="axes_2">
   <g id="Poly3DCollection_18">
    <path clip-path="url(#pd3a969d079)" d="M 589.579945 136.073342 
L 589.562669 134.669005 
L 610.972836 139.281795 
L 610.978492 140.690973 
z
" style="fill:#065d4c;fill-opacity:0.8;"/>
    <path clip-path="url(#pd3a969d079)" d="M 576.792157 144.102129 
L 576.767699 142.689393 
L 589.562669 134.669005 
L 589.579945 136.073342 
z
" style="fill:#0cba97;fill-opacity:0.8;"/>
    <path clip-path="url(#pd3a969d079)" d="M 576.792157 144.102129 
L 589.579945 136.073342 
L 610.978492 140.690973 
L 598.31915 148.80456 
z
" style="fill:#08745e;fill-opacity:0.8;"/>
    <path clip-path="url(#pd3a969d079)" d="M 576.767699 142.689393 
L 598.306451 147.386942 
L 610.972836 139.281795 
L 589.562669 134.669005 
z
" style="fill:#0aa384;fill-opacity:0.8;"/>
    <path clip-path="url(#pd3a969d079)" d="M 598.31915 148.80456 
L 610.978492 140.690973 
L 610.972836 139.281795 
L 598.306451 147.386942 
z
" style="fill:#065d4c;fill-opacity:0.8;"/>
    <path clip-path="url(#pd3a969d079)" d="M 576.792157 144.102129 
L 598.31915 148.80456 
L 598.306451 147.386942 
L 576.767699 142.689393 
z
" style="fill:#0cba97;fill-opacity:0.8;"/>
   </g>
   <g id="Poly3DCollection_19">
    <path clip-path="url(#pd3a969d079)" d="M 632.602612 145.35728 
L 632.60227 145.435085 
L 654.454879 150.151111 
L 654.455888 150.073037 
z
" style="fill:#0cba97;fill-opacity:0.8;"/>
    <path clip-path="url(#pd3a969d079)" d="M 620.075159 153.557017 
L 620.075197 153.635289 
L 632.60227 145.435085 
L 632.602612 145.35728 
z
" style="fill:#065d4c;fill-opacity:0.8;"/>
    <path clip-path="url(#pd3a969d079)" d="M 620.075197 153.635289 
L 642.063222 158.438847 
L 654.454879 150.151111 
L 632.60227 145.435085 
z
" style="fill:#0aa384;fill-opacity:0.8;"/>
    <path clip-path="url(#pd3a969d079)" d="M 620.075159 153.557017 
L 632.602612 145.35728 
L 654.455888 150.073037 
L 642.063859 158.360305 
z
" style="fill:#08745e;fill-opacity:0.8;"/>
    <path clip-path="url(#pd3a969d079)" d="M 642.063859 158.360305 
L 654.455888 150.073037 
L 654.454879 150.151111 
L 642.063222 158.438847 
z
" style="fill:#0cba97;fill-opacity:0.8;"/>
    <path clip-path="url(#pd3a969d079)" d="M 620.075159 153.557017 
L 642.063859 158.360305 
L 642.063222 158.438847 
L 620.075197 153.635289 
z
" style="fill:#065d4c;fill-opacity:0.8;"/>
   </g>
   <g id="Poly3DCollection_20">
    <path clip-path="url(#pd3a969d079)" d="M 563.76907 152.278649 
L 563.756502 151.718758 
L 585.417748 156.506407 
L 585.425628 157.068237 
z
" style="fill:#065d4c;fill-opacity:0.8;"/>
    <path clip-path="url(#pd3a969d079)" d="M 550.504129 160.607016 
L 550.48852 160.04376 
L 563.756502 151.718758 
L 563.76907 152.278649 
z
" style="fill:#0cba97;fill-opacity:0.8;"/>
    <path clip-path="url(#pd3a969d079)" d="M 550.504129 160.607016 
L 563.76907 152.278649 
L 585.425628 157.068237 
L 572.291368 165.486207 
z
" style="fill:#08745e;fill-opacity:0.8;"/>
    <path clip-path="url(#pd3a969d079)" d="M 550.48852 160.04376 
L 572.280503 164.920996 
L 585.417748 156.506407 
L 563.756502 151.718758 
z
" style="fill:#0aa384;fill-opacity:0.8;"/>
    <path clip-path="url(#pd3a969d079)" d="M 572.291368 165.486207 
L 585.425628 157.068237 
L 585.417748 156.506407 
L 572.280503 164.920996 
z
" style="fill:#065d4c;fill-opacity:0.8;"/>
    <path clip-path="url(#pd3a969d079)" d="M 550.504129 160.607016 
L 572.291368 165.486207 
L 572.280503 164.920996 
L 550.48852 160.04376 
z
" style="fill:#0cba97;fill-opacity:0.8;"/>
   </g>
   <g id="Poly3DCollection_21">
    <path clip-path="url(#pd3a969d079)" d="M 676.541984 154.839036 
L 676.549552 154.488086 
L 698.875324 159.303916 
L 698.864639 159.656081 
z
" style="fill:#065d4c;fill-opacity:0.8;"/>
    <path clip-path="url(#pd3a969d079)" d="M 664.289003 163.215242 
L 664.294947 162.862182 
L 676.549552 154.488086 
L 676.541984 154.839036 
z
" style="fill:#0cba97;fill-opacity:0.8;"/>
    <path clip-path="url(#pd3a969d079)" d="M 664.289003 163.215242 
L 676.541984 154.839036 
L 698.864639 159.656081 
L 686.754424 168.122666 
z
" style="fill:#08745e;fill-opacity:0.8;"/>
    <path clip-path="url(#pd3a969d079)" d="M 664.294947 162.862182 
L 686.763524 167.76838 
L 698.875324 159.303916 
L 676.549552 154.488086 
z
" style="fill:#0aa384;fill-opacity:0.8;"/>
    <path clip-path="url(#pd3a969d079)" d="M 686.754424 168.122666 
L 698.864639 159.656081 
L 698.875324 159.303916 
L 686.763524 167.76838 
z
" style="fill:#065d4c;fill-opacity:0.8;"/>
    <path clip-path="url(#pd3a969d079)" d="M 664.289003 163.215242 
L 686.754424 168.122666 
L 686.763524 167.76838 
L 664.294947 162.862182 
z
" style="fill:#0cba97;fill-opacity:0.8;"/>
   </g>
   <g id="Poly3DCollection_22">
    <path clip-path="url(#pd3a969d079)" d="M 607.314723 161.909253 
L 607.31195 161.403398 
L 629.441739 166.294919 
L 629.440121 166.80253 
z
" style="fill:#065d4c;fill-opacity:0.8;"/>
    <path clip-path="url(#pd3a969d079)" d="M 594.314742 170.41828 
L 594.309344 169.909377 
L 607.31195 161.403398 
L 607.314723 161.909253 
z
" style="fill:#0cba97;fill-opacity:0.8;"/>
    <path clip-path="url(#pd3a969d079)" d="M 594.314742 170.41828 
L 607.314723 161.909253 
L 629.440121 166.80253 
L 616.578113 175.404099 
z
" style="fill:#08745e;fill-opacity:0.8;"/>
    <path clip-path="url(#pd3a969d079)" d="M 594.309344 169.909377 
L 616.577161 174.893426 
L 629.441739 166.294919 
L 607.31195 161.403398 
z
" style="fill:#0aa384;fill-opacity:0.8;"/>
    <path clip-path="url(#pd3a969d079)" d="M 616.578113 175.404099 
L 629.440121 166.80253 
L 629.441739 166.294919 
L 616.577161 174.893426 
z
" style="fill:#065d4c;fill-opacity:0.8;"/>
    <path clip-path="url(#pd3a969d079)" d="M 594.314742 170.41828 
L 616.578113 175.404099 
L 616.577161 174.893426 
L 594.309344 169.909377 
z
" style="fill:#0cba97;fill-opacity:0.8;"/>
   </g>
   <g id="Poly3DCollection_23">
    <path clip-path="url(#pd3a969d079)" d="M 721.427676 164.524999 
L 721.427676 164.524999 
L 744.234997 169.446632 
L 744.234997 169.446632 
z
" style="fill:#065d4c;fill-opacity:0.8;"/>
    <path clip-path="url(#pd3a969d079)" d="M 709.464041 173.083433 
L 709.464041 173.083433 
L 721.427676 164.524999 
L 721.427676 164.524999 
z
" style="fill:#065d4c;fill-opacity:0.8;"/>
    <path clip-path="url(#pd3a969d079)" d="M 709.464041 173.083433 
L 721.427676 164.524999 
L 744.234997 169.446632 
L 732.421857 178.098418 
z
" style="fill:#08745e;fill-opacity:0.8;"/>
    <path clip-path="url(#pd3a969d079)" d="M 709.464041 173.083433 
L 732.421857 178.098418 
L 744.234997 169.446632 
L 721.427676 164.524999 
z
" style="fill:#0aa384;fill-opacity:0.8;"/>
    <path clip-path="url(#pd3a969d079)" d="M 732.421857 178.098418 
L 744.234997 169.446632 
L 744.234997 169.446632 
L 732.421857 178.098418 
z
" style="fill:#065d4c;fill-opacity:0.8;"/>
    <path clip-path="url(#pd3a969d079)" d="M 709.464041 173.083433 
L 732.421857 178.098418 
L 732.421857 178.098418 
L 709.464041 173.083433 
z
" style="fill:#065d4c;fill-opacity:0.8;"/>
   </g>
   <g id="Poly3DCollection_24">
    <path clip-path="url(#pd3a969d079)" d="M 536.990534 169.0915 
L 537.012833 169.764944 
L 558.926156 174.738618 
L 558.909563 174.062832 
z
" style="fill:#0cba97;fill-opacity:0.8;"/>
    <path clip-path="url(#pd3a969d079)" d="M 523.221227 177.736532 
L 523.247412 178.414039 
L 537.012833 169.764944 
L 536.990534 169.0915 
z
" style="fill:#065d4c;fill-opacity:0.8;"/>
    <path clip-path="url(#pd3a969d079)" d="M 523.247412 178.414039 
L 545.29356 183.482508 
L 558.926156 174.738618 
L 537.012833 169.764944 
z
" style="fill:#0aa384;fill-opacity:0.8;"/>
    <path clip-path="url(#pd3a969d079)" d="M 523.221227 177.736532 
L 536.990534 169.0915 
L 558.909563 174.062832 
L 545.27315 182.802641 
z
" style="fill:#08745e;fill-opacity:0.8;"/>
    <path clip-path="url(#pd3a969d079)" d="M 545.27315 182.802641 
L 558.909563 174.062832 
L 558.926156 174.738618 
L 545.29356 183.482508 
z
" style="fill:#0cba97;fill-opacity:0.8;"/>
    <path clip-path="url(#pd3a969d079)" d="M 523.221227 177.736532 
L 545.27315 182.802641 
L 545.29356 183.482508 
L 523.247412 178.414039 
z
" style="fill:#065d4c;fill-opacity:0.8;"/>
   </g>
   <g id="Poly3DCollection_25">
    <path clip-path="url(#pd3a969d079)" d="M 651.805669 171.748919 
L 651.805669 171.748919 
L 674.415297 176.749289 
L 674.415297 176.749289 
z
" style="fill:#065d4c;fill-opacity:0.8;"/>
    <path clip-path="url(#pd3a969d079)" d="M 639.085424 180.444549 
L 639.085424 180.444549 
L 651.805669 171.748919 
L 651.805669 171.748919 
z
" style="fill:#065d4c;fill-opacity:0.8;"/>
    <path clip-path="url(#pd3a969d079)" d="M 639.085424 180.444549 
L 651.805669 171.748919 
L 674.415297 176.749289 
L 661.840707 185.540531 
z
" style="fill:#08745e;fill-opacity:0.8;"/>
    <path clip-path="url(#pd3a969d079)" d="M 639.085424 180.444549 
L 661.840707 185.540531 
L 674.415297 176.749289 
L 651.805669 171.748919 
z
" style="fill:#0aa384;fill-opacity:0.8;"/>
    <path clip-path="url(#pd3a969d079)" d="M 661.840707 185.540531 
L 674.415297 176.749289 
L 674.415297 176.749289 
L 661.840707 185.540531 
z
" style="fill:#065d4c;fill-opacity:0.8;"/>
    <path clip-path="url(#pd3a969d079)" d="M 639.085424 180.444549 
L 661.840707 185.540531 
L 661.840707 185.540531 
L 639.085424 180.444549 
z
" style="fill:#065d4c;fill-opacity:0.8;"/>
   </g>
   <g id="Poly3DCollection_26">
    <path clip-path="url(#pd3a969d079)" d="M 581.068408 179.088556 
L 581.068408 179.088556 
L 603.471025 184.169568 
L 603.471025 184.169568 
z
" style="fill:#065d4c;fill-opacity:0.8;"/>
    <path clip-path="url(#pd3a969d079)" d="M 567.56865 187.924708 
L 567.56865 187.924708 
L 581.068408 179.088556 
L 581.068408 179.088556 
z
" style="fill:#065d4c;fill-opacity:0.8;"/>
    <path clip-path="url(#pd3a969d079)" d="M 567.56865 187.924708 
L 590.111786 193.103666 
L 603.471025 184.169568 
L 581.068408 179.088556 
z
" style="fill:#0aa384;fill-opacity:0.8;"/>
    <path clip-path="url(#pd3a969d079)" d="M 567.56865 187.924708 
L 581.068408 179.088556 
L 603.471025 184.169568 
L 590.111786 193.103666 
z
" style="fill:#08745e;fill-opacity:0.8;"/>
    <path clip-path="url(#pd3a969d079)" d="M 590.111786 193.103666 
L 603.471025 184.169568 
L 603.471025 184.169568 
L 590.111786 193.103666 
z
" style="fill:#065d4c;fill-opacity:0.8;"/>
    <path clip-path="url(#pd3a969d079)" d="M 567.56865 187.924708 
L 590.111786 193.103666 
L 590.111786 193.103666 
L 567.56865 187.924708 
z
" style="fill:#065d4c;fill-opacity:0.8;"/>
   </g>
   <g id="Poly3DCollection_27">
    <path clip-path="url(#pd3a969d079)" d="M 697.273025 181.804529 
L 697.262306 182.162094 
L 720.3689 187.274359 
L 720.382957 186.915546 
z
" style="fill:#0cba97;fill-opacity:0.8;"/>
    <path clip-path="url(#pd3a969d079)" d="M 684.848083 190.692968 
L 684.839031 191.052697 
L 697.262306 182.162094 
L 697.273025 181.804529 
z
" style="fill:#065d4c;fill-opacity:0.8;"/>
    <path clip-path="url(#pd3a969d079)" d="M 684.839031 191.052697 
L 708.099329 196.26379 
L 720.3689 187.274359 
L 697.262306 182.162094 
z
" style="fill:#0aa384;fill-opacity:0.8;"/>
    <path clip-path="url(#pd3a969d079)" d="M 684.848083 190.692968 
L 697.273025 181.804529 
L 720.382957 186.915546 
L 708.111763 195.902804 
z
" style="fill:#08745e;fill-opacity:0.8;"/>
    <path clip-path="url(#pd3a969d079)" d="M 708.111763 195.902804 
L 720.382957 186.915546 
L 720.3689 187.274359 
L 708.099329 196.26379 
z
" style="fill:#0cba97;fill-opacity:0.8;"/>
    <path clip-path="url(#pd3a969d079)" d="M 684.848083 190.692968 
L 708.111763 195.902804 
L 708.099329 196.26379 
L 684.839031 191.052697 
z
" style="fill:#065d4c;fill-opacity:0.8;"/>
   </g>
   <g id="Poly3DCollection_28">
    <path clip-path="url(#pd3a969d079)" d="M 509.18888 186.546714 
L 509.18888 186.546714 
L 531.374791 191.710335 
L 531.374791 191.710335 
z
" style="fill:#065d4c;fill-opacity:0.8;"/>
    <path clip-path="url(#pd3a969d079)" d="M 494.885884 195.526822 
L 494.885884 195.526822 
L 509.18888 186.546714 
L 509.18888 186.546714 
z
" style="fill:#065d4c;fill-opacity:0.8;"/>
    <path clip-path="url(#pd3a969d079)" d="M 494.885884 195.526822 
L 517.206866 200.790798 
L 531.374791 191.710335 
L 509.18888 186.546714 
z
" style="fill:#0aa384;fill-opacity:0.8;"/>
    <path clip-path="url(#pd3a969d079)" d="M 494.885884 195.526822 
L 509.18888 186.546714 
L 531.374791 191.710335 
L 517.206866 200.790798 
z
" style="fill:#08745e;fill-opacity:0.8;"/>
    <path clip-path="url(#pd3a969d079)" d="M 517.206866 200.790798 
L 531.374791 191.710335 
L 531.374791 191.710335 
L 517.206866 200.790798 
z
" style="fill:#065d4c;fill-opacity:0.8;"/>
    <path clip-path="url(#pd3a969d079)" d="M 494.885884 195.526822 
L 517.206866 200.790798 
L 517.206866 200.790798 
L 494.885884 195.526822 
z
" style="fill:#065d4c;fill-opacity:0.8;"/>
   </g>
   <g id="Poly3DCollection_29">
    <path clip-path="url(#pd3a969d079)" d="M 626.121461 189.306787 
L 626.12048 189.822131 
L 649.018165 195.018294 
L 649.023849 194.501149 
z
" style="fill:#0cba97;fill-opacity:0.8;"/>
    <path clip-path="url(#pd3a969d079)" d="M 612.906706 198.340467 
L 612.908437 198.858935 
L 626.12048 189.822131 
L 626.121461 189.306787 
z
" style="fill:#065d4c;fill-opacity:0.8;"/>
    <path clip-path="url(#pd3a969d079)" d="M 612.908437 198.858935 
L 635.954619 204.156369 
L 649.018165 195.018294 
L 626.12048 189.822131 
z
" style="fill:#0aa384;fill-opacity:0.8;"/>
    <path clip-path="url(#pd3a969d079)" d="M 612.906706 198.340467 
L 626.121461 189.306787 
L 649.023849 194.501149 
L 635.957652 203.636087 
z
" style="fill:#08745e;fill-opacity:0.8;"/>
    <path clip-path="url(#pd3a969d079)" d="M 635.957652 203.636087 
L 649.023849 194.501149 
L 649.018165 195.018294 
L 635.954619 204.156369 
z
" style="fill:#0cba97;fill-opacity:0.8;"/>
    <path clip-path="url(#pd3a969d079)" d="M 612.906706 198.340467 
L 635.957652 203.636087 
L 635.954619 204.156369 
L 612.908437 198.858935 
z
" style="fill:#065d4c;fill-opacity:0.8;"/>
   </g>
   <g id="Poly3DCollection_30">
    <path clip-path="url(#pd3a969d079)" d="M 553.808126 196.931542 
L 553.78972 196.244797 
L 576.480758 201.522155 
L 576.493047 202.211305 
z
" style="fill:#065d4c;fill-opacity:0.8;"/>
    <path clip-path="url(#pd3a969d079)" d="M 539.779206 206.114053 
L 539.756759 205.423136 
L 553.78972 196.244797 
L 553.808126 196.931542 
z
" style="fill:#0cba97;fill-opacity:0.8;"/>
    <path clip-path="url(#pd3a969d079)" d="M 539.779206 206.114053 
L 553.808126 196.931542 
L 576.493047 202.211305 
L 562.607174 211.497593 
z
" style="fill:#08745e;fill-opacity:0.8;"/>
    <path clip-path="url(#pd3a969d079)" d="M 539.756759 205.423136 
L 562.59092 210.804253 
L 576.480758 201.522155 
L 553.78972 196.244797 
z
" style="fill:#0aa384;fill-opacity:0.8;"/>
    <path clip-path="url(#pd3a969d079)" d="M 562.607174 211.497593 
L 576.493047 202.211305 
L 576.480758 201.522155 
L 562.59092 210.804253 
z
" style="fill:#065d4c;fill-opacity:0.8;"/>
    <path clip-path="url(#pd3a969d079)" d="M 539.779206 206.114053 
L 562.607174 211.497593 
L 562.59092 210.804253 
L 539.756759 205.423136 
z
" style="fill:#0cba97;fill-opacity:0.8;"/>
   </g>
   <g id="Poly3DCollection_31">
    <path clip-path="url(#pd3a969d079)" d="M 672.182416 199.753614 
L 672.18405 199.672796 
L 695.603887 204.984061 
L 695.601487 205.065163 
z
" style="fill:#065d4c;fill-opacity:0.8;"/>
    <path clip-path="url(#pd3a969d079)" d="M 659.268962 208.991521 
L 659.270193 208.910212 
L 672.18405 199.672796 
L 672.182416 199.753614 
z
" style="fill:#0cba97;fill-opacity:0.8;"/>
    <path clip-path="url(#pd3a969d079)" d="M 659.268962 208.991521 
L 672.182416 199.753614 
L 695.601487 205.065163 
L 682.845072 214.40779 
z
" style="fill:#08745e;fill-opacity:0.8;"/>
    <path clip-path="url(#pd3a969d079)" d="M 659.270193 208.910212 
L 682.84708 214.326195 
L 695.603887 204.984061 
L 672.18405 199.672796 
z
" style="fill:#0aa384;fill-opacity:0.8;"/>
    <path clip-path="url(#pd3a969d079)" d="M 682.845072 214.40779 
L 695.601487 205.065163 
L 695.603887 204.984061 
L 682.84708 214.326195 
z
" style="fill:#065d4c;fill-opacity:0.8;"/>
    <path clip-path="url(#pd3a969d079)" d="M 659.268962 208.991521 
L 682.845072 214.40779 
L 682.84708 214.326195 
L 659.270193 208.910212 
z
" style="fill:#0cba97;fill-opacity:0.8;"/>
   </g>
   <g id="Poly3DCollection_32">
    <path clip-path="url(#pd3a969d079)" d="M 599.433811 207.550613 
L 599.438882 208.131929 
L 622.634462 213.533834 
L 622.63477 212.95048 
z
" style="fill:#0cba97;fill-opacity:0.8;"/>
    <path clip-path="url(#pd3a969d079)" d="M 585.695137 216.942447 
L 585.703474 217.527297 
L 599.438882 208.131929 
L 599.433811 207.550613 
z
" style="fill:#065d4c;fill-opacity:0.8;"/>
    <path clip-path="url(#pd3a969d079)" d="M 585.703474 217.527297 
L 609.050451 223.036573 
L 622.634462 213.533834 
L 599.438882 208.131929 
z
" style="fill:#0aa384;fill-opacity:0.8;"/>
    <path clip-path="url(#pd3a969d079)" d="M 585.695137 216.942447 
L 599.433811 207.550613 
L 622.63477 212.95048 
L 609.047563 222.44967 
z
" style="fill:#08745e;fill-opacity:0.8;"/>
    <path clip-path="url(#pd3a969d079)" d="M 609.047563 222.44967 
L 622.63477 212.95048 
L 622.634462 213.533834 
L 609.050451 223.036573 
z
" style="fill:#0cba97;fill-opacity:0.8;"/>
    <path clip-path="url(#pd3a969d079)" d="M 585.695137 216.942447 
L 609.047563 222.44967 
L 609.050451 223.036573 
L 585.703474 217.527297 
z
" style="fill:#065d4c;fill-opacity:0.8;"/>
   </g>
   <g id="Poly3DCollection_33">
    <path clip-path="url(#pd3a969d079)" d="M 646.100376 218.411942 
L 646.085638 219.896865 
L 669.806167 225.42619 
L 669.835183 223.936058 
z
" style="fill:#0cba97;fill-opacity:0.8;"/>
    <path clip-path="url(#pd3a969d079)" d="M 632.669022 228.020339 
L 632.662203 229.514298 
L 646.085638 219.896865 
L 646.100376 218.411942 
z
" style="fill:#065d4c;fill-opacity:0.8;"/>
    <path clip-path="url(#pd3a969d079)" d="M 632.662203 229.514298 
L 656.542897 235.154762 
L 669.806167 225.42619 
L 646.085638 219.896865 
z
" style="fill:#0aa384;fill-opacity:0.8;"/>
    <path clip-path="url(#pd3a969d079)" d="M 632.669022 228.020339 
L 646.100376 218.411942 
L 669.835183 223.936058 
L 656.564189 233.655557 
z
" style="fill:#08745e;fill-opacity:0.8;"/>
    <path clip-path="url(#pd3a969d079)" d="M 656.564189 233.655557 
L 669.835183 223.936058 
L 669.806167 225.42619 
L 656.542897 235.154762 
z
" style="fill:#0cba97;fill-opacity:0.8;"/>
    <path clip-path="url(#pd3a969d079)" d="M 632.669022 228.020339 
L 656.564189 233.655557 
L 656.542897 235.154762 
L 632.662203 229.514298 
z
" style="fill:#065d4c;fill-opacity:0.8;"/>
   </g>
   <g id="Poly3DCollection_34">
    <path clip-path="url(#pd3a969d079)" d="M 482.044392 196.869953 
L 660.305218 239.105464 
L 756.339815 168.180552 
L 586.579772 131.702709 
z
" style="fill-opacity:0.2;"/>
   </g>
  </g>
 </g>
 <defs>
  <clipPath id="p4559cfe5e0">
   <rect height="277.2" width="380.454545" x="-30.6" y="-14.4"/>
  </clipPath>
  <clipPath id="pd3a969d079">
   <rect height="277.2" width="380.454545" x="425.945455" y="-14.4"/>
  </clipPath>
 </defs>
</svg>
