<?xml version="1.0" encoding="utf-8" standalone="no"?>
<!DOCTYPE svg PUBLIC "-//W3C//DTD SVG 1.1//EN"
  "http://www.w3.org/Graphics/SVG/1.1/DTD/svg11.dtd">
<!-- Created with matplotlib (https://matplotlib.org/) -->
<svg height="302.4pt" version="1.1" viewBox="0 0 820.8 302.4" width="820.8pt" xmlns="http://www.w3.org/2000/svg" xmlns:xlink="http://www.w3.org/1999/xlink">
 <defs>
  <style type="text/css">
*{stroke-linecap:butt;stroke-linejoin:round;}
  </style>
 </defs>
 <g id="figure_1">
  <g id="patch_1">
   <path d="M 0 302.4 
L 820.8 302.4 
L 820.8 0 
L 0 0 
z
" style="fill:#ffffff;"/>
  </g>
  <g id="patch_2">
   <path d="M -30.6 262.8 
L 349.854545 262.8 
L 349.854545 -14.4 
L -30.6 -14.4 
z
" style="fill:#ffffff;"/>
  </g>
  <g id="pane3d_1">
   <g id="patch_3">
    <path d="M 19.835129 201.548569 
L 128.723211 133.58541 
L 126.910339 3.718968 
L 11.951034 64.782468 
" style="fill:#f2f2f2;opacity:0.5;stroke:#f2f2f2;stroke-linejoin:miter;"/>
   </g>
  </g>
  <g id="pane3d_2">
   <g id="patch_4">
    <path d="M 128.723211 133.58541 
L 305.111665 171.581202 
L 312.491547 37.79869 
L 126.910339 3.718968 
" style="fill:#e6e6e6;opacity:0.5;stroke:#e6e6e6;stroke-linejoin:miter;"/>
   </g>
  </g>
  <g id="pane3d_3">
   <g id="patch_5">
    <path d="M 19.835129 201.548569 
L 205.419617 245.80086 
L 305.111665 171.581202 
L 128.723211 133.58541 
" style="fill:#ececec;opacity:0.5;stroke:#ececec;stroke-linejoin:miter;"/>
   </g>
  </g>
  <g id="axis3d_1">
   <g id="line2d_1">
    <path d="M 19.835129 201.548569 
L 205.419617 245.80086 
" style="fill:none;stroke:#000000;stroke-linecap:square;stroke-width:0.8;"/>
   </g>
   <g id="Line3DCollection_1">
    <path d="M 42.295817 206.90428 
L 150.133942 138.19749 
L 149.393845 7.847789 
" style="fill:none;stroke:#b0b0b0;stroke-width:0.8;"/>
    <path d="M 87.512337 217.686079 
L 193.184014 147.470895 
L 194.636898 16.156123 
" style="fill:none;stroke:#b0b0b0;stroke-width:0.8;"/>
    <path d="M 133.765289 228.715013 
L 237.148096 156.941187 
L 240.890183 24.649974 
" style="fill:none;stroke:#b0b0b0;stroke-width:0.8;"/>
    <path d="M 181.090721 239.999678 
L 282.055608 166.614702 
L 288.187917 33.335625 
" style="fill:none;stroke:#b0b0b0;stroke-width:0.8;"/>
   </g>
   <g id="xtick_1">
    <g id="line2d_2">
     <path d="M 43.225084 206.312217 
L 40.433807 208.09062 
" style="fill:none;stroke:#000000;stroke-linecap:square;stroke-width:0.8;"/>
    </g>
    <g id="text_1">
     <!-- 00 -->
     <defs>
      <path d="M 42 31.84375 
C 42 37.96875 41.90625 48.421875 37.703125 56.453125 
C 34 63.484375 28.09375 66 22.90625 66 
C 18.09375 66 12 63.78125 8.203125 56.5625 
C 4.203125 49.015625 3.796875 39.671875 3.796875 31.84375 
C 3.796875 26.109375 3.90625 17.375 7 9.734375 
C 11.296875 -0.609375 19 -2 22.90625 -2 
C 27.5 -2 34.5 -0.109375 38.59375 9.4375 
C 41.59375 16.375 42 24.5 42 31.84375 
z
M 22.90625 -0.40625 
C 16.5 -0.40625 12.703125 5.125 11.296875 12.75 
C 10.203125 18.6875 10.203125 27.328125 10.203125 32.953125 
C 10.203125 40.6875 10.203125 47.109375 11.5 53.234375 
C 13.40625 61.78125 19 64.390625 22.90625 64.390625 
C 27 64.390625 32.296875 61.671875 34.203125 53.4375 
C 35.5 47.71875 35.59375 40.984375 35.59375 32.953125 
C 35.59375 26.421875 35.59375 18.375 34.40625 12.453125 
C 32.296875 1.5 26.40625 -0.40625 22.90625 -0.40625 
z
" id="CMR17-48"/>
     </defs>
     <g transform="translate(23.330362 237.14703)rotate(-45)scale(0.14 -0.14)">
      <use transform="scale(0.996264)" xlink:href="#CMR17-48"/>
      <use transform="translate(45.690477 0)scale(0.996264)" xlink:href="#CMR17-48"/>
     </g>
    </g>
   </g>
   <g id="xtick_2">
    <g id="line2d_3">
     <path d="M 88.423674 217.080527 
L 85.686217 218.899473 
" style="fill:none;stroke:#000000;stroke-linecap:square;stroke-width:0.8;"/>
    </g>
    <g id="text_2">
     <!-- 01 -->
     <defs>
      <path d="M 26.59375 63.796875 
C 26.59375 65.890625 26.5 66 25.09375 66 
C 21.203125 61.359375 15.296875 59.890625 9.703125 59.6875 
C 9.40625 59.6875 8.90625 59.6875 8.796875 59.5 
C 8.703125 59.296875 8.703125 59.09375 8.703125 57 
C 11.796875 57 17 57.59375 21 59.984375 
L 21 7.296875 
C 21 3.796875 20.796875 2.59375 12.203125 2.59375 
L 9.203125 2.59375 
L 9.203125 0 
C 14 0.09375 19 0.1875 23.796875 0.1875 
C 28.59375 0.1875 33.59375 0.09375 38.40625 0 
L 38.40625 2.59375 
L 35.40625 2.59375 
C 26.796875 2.59375 26.59375 3.6875 26.59375 7.296875 
z
" id="CMR17-49"/>
     </defs>
     <g transform="translate(68.542787 248.103782)rotate(-45)scale(0.14 -0.14)">
      <use transform="scale(0.996264)" xlink:href="#CMR17-48"/>
      <use transform="translate(45.690477 0)scale(0.996264)" xlink:href="#CMR17-49"/>
     </g>
    </g>
   </g>
   <g id="xtick_3">
    <g id="line2d_4">
     <path d="M 134.657625 228.095506 
L 131.977203 229.956397 
" style="fill:none;stroke:#000000;stroke-linecap:square;stroke-width:0.8;"/>
    </g>
    <g id="text_3">
     <!-- 10 -->
     <g transform="translate(114.7934 259.312128)rotate(-45)scale(0.14 -0.14)">
      <use transform="scale(0.996264)" xlink:href="#CMR17-49"/>
      <use transform="translate(45.690477 0)scale(0.996264)" xlink:href="#CMR17-48"/>
     </g>
    </g>
   </g>
   <g id="xtick_4">
    <g id="line2d_5">
     <path d="M 181.962926 239.365727 
L 179.342936 241.270032 
" style="fill:none;stroke:#000000;stroke-linecap:square;stroke-width:0.8;"/>
    </g>
    <g id="text_4">
     <!-- 11 -->
     <g transform="translate(162.118375 270.780834)rotate(-45)scale(0.14 -0.14)">
      <use transform="scale(0.996264)" xlink:href="#CMR17-49"/>
      <use transform="translate(45.690477 0)scale(0.996264)" xlink:href="#CMR17-49"/>
     </g>
    </g>
   </g>
  </g>
  <g id="axis3d_2">
   <g id="line2d_6">
    <path d="M 305.111665 171.581202 
L 205.419617 245.80086 
" style="fill:none;stroke:#000000;stroke-linecap:square;stroke-width:0.8;"/>
   </g>
   <g id="Line3DCollection_2">
    <path d="M 27.455231 56.547028 
L 34.471044 192.413474 
L 218.858418 235.795817 
" style="fill:none;stroke:#b0b0b0;stroke-width:0.8;"/>
    <path d="M 57.232024 40.730342 
L 62.623407 174.842005 
L 244.674037 216.576366 
" style="fill:none;stroke:#b0b0b0;stroke-width:0.8;"/>
    <path d="M 85.85589 25.526062 
L 89.739382 157.917404 
L 269.496985 198.095948 
" style="fill:none;stroke:#b0b0b0;stroke-width:0.8;"/>
    <path d="M 113.392516 10.899296 
L 115.875164 141.604597 
L 293.383438 180.312741 
" style="fill:none;stroke:#b0b0b0;stroke-width:0.8;"/>
   </g>
   <g id="xtick_5">
    <g id="line2d_7">
     <path d="M 217.315598 235.432825 
L 221.947489 236.522608 
" style="fill:none;stroke:#000000;stroke-linecap:square;stroke-width:0.8;"/>
    </g>
    <g id="text_5">
     <!-- 00 -->
     <g transform="translate(232.650369 248.348363)rotate(-337.5)scale(0.14 -0.14)">
      <use transform="scale(0.996264)" xlink:href="#CMR17-48"/>
      <use transform="translate(45.690477 0)scale(0.996264)" xlink:href="#CMR17-48"/>
     </g>
    </g>
   </g>
   <g id="xtick_6">
    <g id="line2d_8">
     <path d="M 243.15208 216.227463 
L 247.72127 217.274932 
" style="fill:none;stroke:#000000;stroke-linecap:square;stroke-width:0.8;"/>
    </g>
    <g id="text_6">
     <!-- 01 -->
     <g transform="translate(258.203921 228.903937)rotate(-337.5)scale(0.14 -0.14)">
      <use transform="scale(0.996264)" xlink:href="#CMR17-48"/>
      <use transform="translate(45.690477 0)scale(0.996264)" xlink:href="#CMR17-49"/>
     </g>
    </g>
   </g>
   <g id="xtick_7">
    <g id="line2d_9">
     <path d="M 267.995442 197.76033 
L 272.503283 198.767901 
" style="fill:none;stroke:#000000;stroke-linecap:square;stroke-width:0.8;"/>
    </g>
    <g id="text_7">
     <!-- 10 -->
     <g transform="translate(282.775332 210.206849)rotate(-337.5)scale(0.14 -0.14)">
      <use transform="scale(0.996264)" xlink:href="#CMR17-49"/>
      <use transform="translate(45.690477 0)scale(0.996264)" xlink:href="#CMR17-48"/>
     </g>
    </g>
   </g>
   <g id="xtick_8">
    <g id="line2d_10">
     <path d="M 291.901865 179.989663 
L 296.349691 180.959573 
" style="fill:none;stroke:#000000;stroke-linecap:square;stroke-width:0.8;"/>
    </g>
    <g id="text_8">
     <!-- 11 -->
     <g transform="translate(306.420159 192.214827)rotate(-337.5)scale(0.14 -0.14)">
      <use transform="scale(0.996264)" xlink:href="#CMR17-49"/>
      <use transform="translate(45.690477 0)scale(0.996264)" xlink:href="#CMR17-49"/>
     </g>
    </g>
   </g>
  </g>
  <g id="axis3d_3">
   <g id="line2d_11">
    <path d="M 305.111665 171.581202 
L 312.491547 37.79869 
" style="fill:none;stroke:#000000;stroke-linecap:square;stroke-width:0.8;"/>
   </g>
   <g id="text_9">
    <!-- Re[$\rho$] -->
    <defs>
     <path d="M 39.203125 33.6875 
C 48.703125 35.59375 56.703125 42.015625 56.703125 50.046875 
C 56.703125 59.46875 46.09375 68 32.09375 68 
L 5.203125 68 
L 5.203125 65.390625 
C 12.09375 65.390625 13.203125 65.390625 13.203125 60.875 
L 13.203125 6.6875 
C 13.203125 2.1875 12.09375 2.1875 5.203125 2.1875 
L 5.203125 -0.40625 
C 8.09375 -0.203125 13.296875 -0.203125 16.40625 -0.203125 
C 19.5 -0.203125 24.703125 -0.203125 27.59375 -0.40625 
L 27.59375 2.1875 
C 20.703125 2.1875 19.59375 2.1875 19.59375 6.6875 
L 19.59375 33 
L 31.296875 33 
C 37 33 40.203125 30.6875 41.59375 29.390625 
C 45.59375 25.5 45.59375 22.796875 45.59375 16 
C 45.59375 9.296875 45.59375 5.890625 48.59375 2.5 
C 52.40625 -1.609375 57.5 -2 59.703125 -2 
C 67.09375 -2 68.203125 6.296875 68.203125 8 
C 68.203125 8.59375 68.203125 9.296875 67.296875 9.296875 
C 66.5 9.296875 66.40625 8.6875 66.40625 8.296875 
C 65.90625 1.796875 63 -0.40625 59.90625 -0.40625 
C 54.40625 -0.40625 53.796875 5.890625 53.203125 12 
C 52.90625 14.09375 52.703125 15.59375 52.5 17.796875 
C 51.90625 22.796875 51.09375 30.09375 39.203125 33.6875 
z
M 31 34.59375 
L 19.59375 34.59375 
L 19.59375 61.484375 
C 19.59375 64.890625 19.796875 65.390625 23.796875 65.390625 
L 31.09375 65.390625 
C 39.40625 65.390625 49.09375 62.484375 49.09375 50.046875 
C 49.09375 37.09375 38.5 34.59375 31 34.59375 
z
" id="CMR17-82"/>
     <path d="M 38.09375 23.484375 
C 38.5 23.890625 38.5 24.09375 38.5 25.09375 
C 38.5 35.171875 33.09375 44 21.703125 44 
C 11.09375 44 2.703125 33.984375 2.703125 21.78125 
C 2.703125 8.65625 12.203125 -1 22.796875 -1 
C 34 -1 38.40625 9.671875 38.40625 11.796875 
C 38.40625 12.5 37.796875 12.5 37.59375 12.5 
C 36.90625 12.5 36.796875 12.296875 36.40625 11.078125 
C 34.203125 4.21875 28.703125 0.796875 23.5 0.796875 
C 19.203125 0.796875 14.90625 3.21875 12.203125 7.65625 
C 9.09375 12.796875 9.09375 18.75 9.09375 23.484375 
z
M 9.203125 25 
C 9.90625 39.234375 17.59375 42.390625 21.59375 42.390625 
C 28.40625 42.390625 33 36.0625 33.09375 25 
z
" id="CMR17-101"/>
     <path d="M 23.5 -25 
L 23.5 -21.5 
L 14.09375 -21.5 
L 14.09375 71.484375 
L 23.5 71.484375 
L 23.5 75 
L 10.59375 75 
L 10.59375 -25 
z
" id="CMR17-91"/>
     <path d="M 3.09375 -16.953125 
C 3 -17.4375 2.796875 -18.03125 2.796875 -18.609375 
C 2.796875 -20.109375 4 -21.109375 5.5 -21.109375 
C 7 -21.109375 8.40625 -20.109375 9 -18.71875 
C 9.40625 -17.828125 12.203125 -6.09375 15.40625 6.078125 
C 17.40625 1.09375 21.09375 -1 25 -1 
C 36.296875 -1 49.09375 12.96875 49.09375 28.03125 
C 49.09375 38.703125 42.59375 44 35.703125 44 
C 26.90625 44 16.203125 34.90625 12.90625 21.640625 
z
M 24.90625 1 
C 18.09375 1 16.40625 8.875 16.40625 10.078125 
C 16.40625 10.671875 18.90625 20.140625 19.203125 21.640625 
C 24.296875 41.5 34.09375 41.984375 35.59375 41.984375 
C 40.09375 41.984375 42.59375 37.90625 42.59375 32.015625 
C 42.59375 26.9375 39.90625 17.046875 38.203125 12.859375 
C 35.203125 5.984375 30 1 24.90625 1 
z
" id="CMMI12-26"/>
     <path d="M 14.296875 75 
L 1.40625 75 
L 1.40625 71.484375 
L 10.796875 71.484375 
L 10.796875 -21.5 
L 1.40625 -21.5 
L 1.40625 -25 
L 14.296875 -25 
z
" id="CMR17-93"/>
    </defs>
    <g transform="translate(352.486567 117.931831)rotate(-86.842577)scale(0.14 -0.14)">
     <use transform="scale(0.996264)" xlink:href="#CMR17-82"/>
     <use transform="translate(67.791102 0)scale(0.996264)" xlink:href="#CMR17-101"/>
     <use transform="translate(108.276762 0)scale(0.996264)" xlink:href="#CMR17-91"/>
     <use transform="translate(133.147821 0)scale(0.996264)" xlink:href="#CMMI12-26"/>
     <use transform="translate(183.462194 0)scale(0.996264)" xlink:href="#CMR17-93"/>
    </g>
   </g>
   <g id="Line3DCollection_3">
    <path d="M 305.287848 168.387356 
L 128.679839 130.478455 
L 19.647225 198.288977 
" style="fill:none;stroke:#b0b0b0;stroke-width:0.8;"/>
    <path d="M 308.022749 118.809058 
L 128.007158 82.29042 
L 16.728393 147.655737 
" style="fill:none;stroke:#b0b0b0;stroke-width:0.8;"/>
    <path d="M 310.866222 67.262587 
L 127.308923 32.271848 
L 13.689737 94.943913 
" style="fill:none;stroke:#b0b0b0;stroke-width:0.8;"/>
   </g>
   <g id="xtick_9">
    <g id="line2d_12">
     <path d="M 303.814291 168.071057 
L 308.238028 169.020612 
" style="fill:none;stroke:#000000;stroke-linecap:square;stroke-width:0.8;"/>
    </g>
    <g id="text_10">
     <!-- $0.0$ -->
     <defs>
      <path d="M 18.40625 4.796875 
C 18.40625 7.6875 16 9.6875 13.59375 9.6875 
C 10.703125 9.6875 8.703125 7.296875 8.703125 4.890625 
C 8.703125 2 11.09375 0 13.5 0 
C 16.40625 0 18.40625 2.390625 18.40625 4.796875 
z
" id="CMMI12-58"/>
     </defs>
     <g transform="translate(315.094978 176.133209)scale(0.14 -0.14)">
      <use transform="scale(0.996264)" xlink:href="#CMR17-48"/>
      <use transform="translate(45.690477 0)scale(0.996264)" xlink:href="#CMMI12-58"/>
      <use transform="translate(72.787654 0)scale(0.996264)" xlink:href="#CMR17-48"/>
     </g>
    </g>
   </g>
   <g id="xtick_10">
    <g id="line2d_13">
     <path d="M 306.519557 118.504115 
L 311.032323 119.419591 
" style="fill:none;stroke:#000000;stroke-linecap:square;stroke-width:0.8;"/>
    </g>
    <g id="text_11">
     <!-- $0.2$ -->
     <defs>
      <path d="M 41.703125 15.46875 
L 39.90625 15.46875 
C 38.90625 8.390625 38.09375 7.1875 37.703125 6.59375 
C 37.203125 5.796875 30 5.796875 28.59375 5.796875 
L 9.40625 5.796875 
C 13 9.6875 20 16.765625 28.5 24.9375 
C 34.59375 30.71875 41.703125 37.5 41.703125 47.390625 
C 41.703125 59.1875 32.296875 66 21.796875 66 
C 10.796875 66 4.09375 56.296875 4.09375 47.296875 
C 4.09375 43.390625 7 42.890625 8.203125 42.890625 
C 9.203125 42.890625 12.203125 43.484375 12.203125 46.984375 
C 12.203125 50.09375 9.59375 51 8.203125 51 
C 7.59375 51 7 50.890625 6.59375 50.6875 
C 8.5 59.1875 14.296875 63.390625 20.40625 63.390625 
C 29.09375 63.390625 34.796875 56.5 34.796875 47.390625 
C 34.796875 38.703125 29.703125 31.21875 24 24.734375 
L 4.09375 2.296875 
L 4.09375 0 
L 39.296875 0 
z
" id="CMR17-50"/>
     </defs>
     <g transform="translate(318.183867 126.624626)scale(0.14 -0.14)">
      <use transform="scale(0.996264)" xlink:href="#CMR17-48"/>
      <use transform="translate(45.690477 0)scale(0.996264)" xlink:href="#CMMI12-58"/>
      <use transform="translate(72.787654 0)scale(0.996264)" xlink:href="#CMR17-50"/>
     </g>
    </g>
   </g>
   <g id="xtick_11">
    <g id="line2d_14">
     <path d="M 309.332179 66.970159 
L 313.937626 67.848075 
" style="fill:none;stroke:#000000;stroke-linecap:square;stroke-width:0.8;"/>
    </g>
    <g id="text_12">
     <!-- $0.4$ -->
     <defs>
      <path d="M 33.59375 64.796875 
C 33.59375 66.890625 33.5 67 31.703125 67 
L 2 19.59375 
L 2 17 
L 27.796875 17 
L 27.796875 7.1875 
C 27.796875 3.59375 27.59375 2.59375 20.59375 2.59375 
L 18.703125 2.59375 
L 18.703125 0 
C 21.90625 0.1875 27.296875 0.1875 30.703125 0.1875 
C 34.09375 0.1875 39.5 0.1875 42.703125 0 
L 42.703125 2.59375 
L 40.796875 2.59375 
C 33.796875 2.59375 33.59375 3.59375 33.59375 7.1875 
L 33.59375 17 
L 43.796875 17 
L 43.796875 19.59375 
L 33.59375 19.59375 
z
M 28.09375 58.171875 
L 28.09375 19.59375 
L 4 19.59375 
z
" id="CMR17-52"/>
     </defs>
     <g transform="translate(321.395109 75.154979)scale(0.14 -0.14)">
      <use transform="scale(0.996264)" xlink:href="#CMR17-48"/>
      <use transform="translate(45.690477 0)scale(0.996264)" xlink:href="#CMMI12-58"/>
      <use transform="translate(72.787654 0)scale(0.996264)" xlink:href="#CMR17-52"/>
     </g>
    </g>
   </g>
  </g>
  <g id="axes_1">
   <g id="Poly3DCollection_1">
    <path clip-path="url(#pe6eb50bad1)" d="M 133.04394 136.841495 
L 133.044599 136.895041 
L 154.436347 141.5155 
L 154.436132 141.46177 
z
" style="fill:#ba0c2f;fill-opacity:0.8;"/>
    <path clip-path="url(#pe6eb50bad1)" d="M 120.260081 144.874871 
L 120.261013 144.928736 
L 133.044599 136.895041 
L 133.04394 136.841495 
z
" style="fill:#5d0618;fill-opacity:0.8;"/>
    <path clip-path="url(#pe6eb50bad1)" d="M 120.261013 144.928736 
L 141.781126 149.63402 
L 154.436347 141.5155 
L 133.044599 136.895041 
z
" style="fill:#a30a29;fill-opacity:0.8;"/>
    <path clip-path="url(#pe6eb50bad1)" d="M 120.260081 144.874871 
L 133.04394 136.841495 
L 154.436132 141.46177 
L 141.780642 149.579968 
z
" style="fill:#74081d;fill-opacity:0.8;"/>
    <path clip-path="url(#pe6eb50bad1)" d="M 141.780642 149.579968 
L 154.436132 141.46177 
L 154.436347 141.5155 
L 141.781126 149.63402 
z
" style="fill:#ba0c2f;fill-opacity:0.8;"/>
    <path clip-path="url(#pe6eb50bad1)" d="M 120.260081 144.874871 
L 141.780642 149.579968 
L 141.781126 149.63402 
L 120.261013 144.928736 
z
" style="fill:#5d0618;fill-opacity:0.8;"/>
   </g>
   <g id="Poly3DCollection_2">
    <path clip-path="url(#pe6eb50bad1)" d="M 176.05376 146.130735 
L 176.055299 145.780296 
L 197.90495 150.497514 
L 197.900408 150.849163 
z
" style="fill:#5d0618;fill-opacity:0.8;"/>
    <path clip-path="url(#pe6eb50bad1)" d="M 163.530081 154.335106 
L 163.529911 153.982568 
L 176.055299 145.780296 
L 176.05376 146.130735 
z
" style="fill:#ba0c2f;fill-opacity:0.8;"/>
    <path clip-path="url(#pe6eb50bad1)" d="M 163.530081 154.335106 
L 176.05376 146.130735 
L 197.900408 150.849163 
L 185.51207 159.141087 
z
" style="fill:#74081d;fill-opacity:0.8;"/>
    <path clip-path="url(#pe6eb50bad1)" d="M 163.529911 153.982568 
L 185.51494 158.787329 
L 197.90495 150.497514 
L 176.055299 145.780296 
z
" style="fill:#a30a29;fill-opacity:0.8;"/>
    <path clip-path="url(#pe6eb50bad1)" d="M 185.51207 159.141087 
L 197.900408 150.849163 
L 197.90495 150.497514 
L 185.51494 158.787329 
z
" style="fill:#5d0618;fill-opacity:0.8;"/>
    <path clip-path="url(#pe6eb50bad1)" d="M 163.530081 154.335106 
L 185.51207 159.141087 
L 185.51494 158.787329 
L 163.529911 153.982568 
z
" style="fill:#ba0c2f;fill-opacity:0.8;"/>
   </g>
   <g id="Poly3DCollection_3">
    <path clip-path="url(#pe6eb50bad1)" d="M 107.241066 153.056018 
L 107.239425 152.982887 
L 128.890086 157.774911 
L 128.891115 157.848295 
z
" style="fill:#5d0618;fill-opacity:0.8;"/>
    <path clip-path="url(#pe6eb50bad1)" d="M 93.980347 161.389052 
L 93.978309 161.315482 
L 107.239425 152.982887 
L 107.241066 153.056018 
z
" style="fill:#ba0c2f;fill-opacity:0.8;"/>
    <path clip-path="url(#pe6eb50bad1)" d="M 93.980347 161.389052 
L 107.241066 153.056018 
L 128.891115 157.848295 
L 115.760998 166.270955 
z
" style="fill:#74081d;fill-opacity:0.8;"/>
    <path clip-path="url(#pe6eb50bad1)" d="M 93.978309 161.315482 
L 115.759579 166.19713 
L 128.890086 157.774911 
L 107.239425 152.982887 
z
" style="fill:#a30a29;fill-opacity:0.8;"/>
    <path clip-path="url(#pe6eb50bad1)" d="M 115.760998 166.270955 
L 128.891115 157.848295 
L 128.890086 157.774911 
L 115.759579 166.19713 
z
" style="fill:#5d0618;fill-opacity:0.8;"/>
    <path clip-path="url(#pe6eb50bad1)" d="M 93.980347 161.389052 
L 115.760998 166.270955 
L 115.759579 166.19713 
L 93.978309 161.315482 
z
" style="fill:#ba0c2f;fill-opacity:0.8;"/>
   </g>
   <g id="Poly3DCollection_4">
    <path clip-path="url(#pe6eb50bad1)" d="M 219.979733 155.617844 
L 219.965857 156.261297 
L 242.275884 161.083265 
L 242.295474 160.437587 
z
" style="fill:#ba0c2f;fill-opacity:0.8;"/>
    <path clip-path="url(#pe6eb50bad1)" d="M 207.730357 163.99873 
L 207.719458 164.646045 
L 219.965857 156.261297 
L 219.979733 155.617844 
z
" style="fill:#5d0618;fill-opacity:0.8;"/>
    <path clip-path="url(#pe6eb50bad1)" d="M 207.719458 164.646045 
L 230.172089 169.558433 
L 242.275884 161.083265 
L 219.965857 156.261297 
z
" style="fill:#a30a29;fill-opacity:0.8;"/>
    <path clip-path="url(#pe6eb50bad1)" d="M 207.730357 163.99873 
L 219.979733 155.617844 
L 242.295474 160.437587 
L 230.188774 168.908874 
z
" style="fill:#74081d;fill-opacity:0.8;"/>
    <path clip-path="url(#pe6eb50bad1)" d="M 230.188774 168.908874 
L 242.295474 160.437587 
L 242.275884 161.083265 
L 230.172089 169.558433 
z
" style="fill:#ba0c2f;fill-opacity:0.8;"/>
    <path clip-path="url(#pe6eb50bad1)" d="M 207.730357 163.99873 
L 230.188774 168.908874 
L 230.172089 169.558433 
L 207.719458 164.646045 
z
" style="fill:#5d0618;fill-opacity:0.8;"/>
   </g>
   <g id="Poly3DCollection_5">
    <path clip-path="url(#pe6eb50bad1)" d="M 150.77356 162.692014 
L 150.77202 162.411105 
L 172.893061 167.306123 
L 172.892162 167.588007 
z
" style="fill:#5d0618;fill-opacity:0.8;"/>
    <path clip-path="url(#pe6eb50bad1)" d="M 137.777641 171.205754 
L 137.774643 170.923153 
L 150.77202 162.411105 
L 150.77356 162.692014 
z
" style="fill:#ba0c2f;fill-opacity:0.8;"/>
    <path clip-path="url(#pe6eb50bad1)" d="M 137.777641 171.205754 
L 150.77356 162.692014 
L 172.892162 167.588007 
L 160.034132 176.194312 
z
" style="fill:#74081d;fill-opacity:0.8;"/>
    <path clip-path="url(#pe6eb50bad1)" d="M 137.774643 170.923153 
L 160.033603 175.910729 
L 172.893061 167.306123 
L 150.77202 162.411105 
z
" style="fill:#a30a29;fill-opacity:0.8;"/>
    <path clip-path="url(#pe6eb50bad1)" d="M 160.034132 176.194312 
L 172.892162 167.588007 
L 172.893061 167.306123 
L 160.033603 175.910729 
z
" style="fill:#5d0618;fill-opacity:0.8;"/>
    <path clip-path="url(#pe6eb50bad1)" d="M 137.777641 171.205754 
L 160.034132 176.194312 
L 160.033603 175.910729 
L 137.774643 170.923153 
z
" style="fill:#ba0c2f;fill-opacity:0.8;"/>
   </g>
   <g id="Poly3DCollection_6">
    <path clip-path="url(#pe6eb50bad1)" d="M 80.47113 169.878242 
L 80.46924 169.821156 
L 102.382086 174.795025 
L 102.383493 174.85231 
z
" style="fill:#5d0618;fill-opacity:0.8;"/>
    <path clip-path="url(#pe6eb50bad1)" d="M 66.706363 178.52802 
L 66.704144 178.47059 
L 80.46924 169.821156 
L 80.47113 169.878242 
z
" style="fill:#ba0c2f;fill-opacity:0.8;"/>
    <path clip-path="url(#pe6eb50bad1)" d="M 66.706363 178.52802 
L 80.47113 169.878242 
L 102.383493 174.85231 
L 88.751539 183.596886 
z
" style="fill:#74081d;fill-opacity:0.8;"/>
    <path clip-path="url(#pe6eb50bad1)" d="M 66.704144 178.47059 
L 88.749809 183.539256 
L 102.382086 174.795025 
L 80.46924 169.821156 
z
" style="fill:#a30a29;fill-opacity:0.8;"/>
    <path clip-path="url(#pe6eb50bad1)" d="M 88.751539 183.596886 
L 102.383493 174.85231 
L 102.382086 174.795025 
L 88.749809 183.539256 
z
" style="fill:#5d0618;fill-opacity:0.8;"/>
    <path clip-path="url(#pe6eb50bad1)" d="M 66.706363 178.52802 
L 88.751539 183.596886 
L 88.749809 183.539256 
L 66.704144 178.47059 
z
" style="fill:#ba0c2f;fill-opacity:0.8;"/>
   </g>
   <g id="Poly3DCollection_7">
    <path clip-path="url(#pe6eb50bad1)" d="M 195.250767 172.537125 
L 195.254291 172.243083 
L 217.859472 177.245172 
L 217.8533 177.540237 
z
" style="fill:#5d0618;fill-opacity:0.8;"/>
    <path clip-path="url(#pe6eb50bad1)" d="M 182.534411 181.237513 
L 182.536485 180.941696 
L 195.254291 172.243083 
L 195.250767 172.537125 
z
" style="fill:#ba0c2f;fill-opacity:0.8;"/>
    <path clip-path="url(#pe6eb50bad1)" d="M 182.534411 181.237513 
L 195.250767 172.537125 
L 217.8533 177.540237 
L 205.282507 186.336259 
z
" style="fill:#74081d;fill-opacity:0.8;"/>
    <path clip-path="url(#pe6eb50bad1)" d="M 182.536485 180.941696 
L 205.287262 186.039411 
L 217.859472 177.245172 
L 195.254291 172.243083 
z
" style="fill:#a30a29;fill-opacity:0.8;"/>
    <path clip-path="url(#pe6eb50bad1)" d="M 205.282507 186.336259 
L 217.8533 177.540237 
L 217.859472 177.245172 
L 205.287262 186.039411 
z
" style="fill:#5d0618;fill-opacity:0.8;"/>
    <path clip-path="url(#pe6eb50bad1)" d="M 182.534411 181.237513 
L 205.282507 186.336259 
L 205.287262 186.039411 
L 182.536485 180.941696 
z
" style="fill:#ba0c2f;fill-opacity:0.8;"/>
   </g>
   <g id="Poly3DCollection_8">
    <path clip-path="url(#pe6eb50bad1)" d="M 124.535523 179.880781 
L 124.530856 179.586673 
L 146.929094 184.669421 
L 146.931174 184.964554 
z
" style="fill:#5d0618;fill-opacity:0.8;"/>
    <path clip-path="url(#pe6eb50bad1)" d="M 111.040141 188.721723 
L 111.03385 188.425837 
L 124.530856 179.586673 
L 124.535523 179.880781 
z
" style="fill:#ba0c2f;fill-opacity:0.8;"/>
    <path clip-path="url(#pe6eb50bad1)" d="M 111.040141 188.721723 
L 124.535523 179.880781 
L 146.931174 184.964554 
L 133.576224 193.903464 
z
" style="fill:#74081d;fill-opacity:0.8;"/>
    <path clip-path="url(#pe6eb50bad1)" d="M 111.03385 188.425837 
L 133.572551 193.606545 
L 146.929094 184.669421 
L 124.530856 179.586673 
z
" style="fill:#a30a29;fill-opacity:0.8;"/>
    <path clip-path="url(#pe6eb50bad1)" d="M 133.576224 193.903464 
L 146.931174 184.964554 
L 146.929094 184.669421 
L 133.572551 193.606545 
z
" style="fill:#5d0618;fill-opacity:0.8;"/>
    <path clip-path="url(#pe6eb50bad1)" d="M 111.040141 188.721723 
L 133.576224 193.903464 
L 133.572551 193.606545 
L 111.03385 188.425837 
z
" style="fill:#ba0c2f;fill-opacity:0.8;"/>
   </g>
   <g id="Poly3DCollection_9">
    <path clip-path="url(#pe6eb50bad1)" d="M 240.703777 182.598232 
L 240.68412 183.253979 
L 263.78052 188.370049 
L 263.8063 187.712017 
z
" style="fill:#ba0c2f;fill-opacity:0.8;"/>
    <path clip-path="url(#pe6eb50bad1)" d="M 228.282536 191.491473 
L 228.265937 192.151184 
L 240.68412 183.253979 
L 240.703777 182.598232 
z
" style="fill:#5d0618;fill-opacity:0.8;"/>
    <path clip-path="url(#pe6eb50bad1)" d="M 228.265937 192.151184 
L 251.515903 197.366112 
L 263.78052 188.370049 
L 240.68412 183.253979 
z
" style="fill:#a30a29;fill-opacity:0.8;"/>
    <path clip-path="url(#pe6eb50bad1)" d="M 228.282536 191.491473 
L 240.703777 182.598232 
L 263.8063 187.712017 
L 251.538707 196.704099 
z
" style="fill:#74081d;fill-opacity:0.8;"/>
    <path clip-path="url(#pe6eb50bad1)" d="M 251.538707 196.704099 
L 263.8063 187.712017 
L 263.78052 188.370049 
L 251.515903 197.366112 
z
" style="fill:#ba0c2f;fill-opacity:0.8;"/>
    <path clip-path="url(#pe6eb50bad1)" d="M 228.282536 191.491473 
L 251.538707 196.704099 
L 251.515903 197.366112 
L 228.265937 192.151184 
z
" style="fill:#5d0618;fill-opacity:0.8;"/>
   </g>
   <g id="Poly3DCollection_10">
    <path clip-path="url(#pe6eb50bad1)" d="M 169.574488 190.104546 
L 169.575033 189.818256 
L 192.472753 195.014405 
L 192.469595 195.301695 
z
" style="fill:#5d0618;fill-opacity:0.8;"/>
    <path clip-path="url(#pe6eb50bad1)" d="M 156.363932 199.14306 
L 156.36297 198.855036 
L 169.575033 189.818256 
L 169.574488 190.104546 
z
" style="fill:#ba0c2f;fill-opacity:0.8;"/>
    <path clip-path="url(#pe6eb50bad1)" d="M 156.363932 199.14306 
L 169.574488 190.104546 
L 192.469595 195.301695 
L 179.407502 204.441488 
z
" style="fill:#74081d;fill-opacity:0.8;"/>
    <path clip-path="url(#pe6eb50bad1)" d="M 156.36297 198.855036 
L 179.409187 204.152456 
L 192.472753 195.014405 
L 169.575033 189.818256 
z
" style="fill:#a30a29;fill-opacity:0.8;"/>
    <path clip-path="url(#pe6eb50bad1)" d="M 179.407502 204.441488 
L 192.469595 195.301695 
L 192.472753 195.014405 
L 179.409187 204.152456 
z
" style="fill:#5d0618;fill-opacity:0.8;"/>
    <path clip-path="url(#pe6eb50bad1)" d="M 156.363932 199.14306 
L 179.407502 204.441488 
L 179.409187 204.152456 
L 156.36297 198.855036 
z
" style="fill:#ba0c2f;fill-opacity:0.8;"/>
   </g>
   <g id="Poly3DCollection_11">
    <path clip-path="url(#pe6eb50bad1)" d="M 97.284161 197.733386 
L 97.282602 197.675204 
L 119.9609 202.957568 
L 119.961941 203.015953 
z
" style="fill:#5d0618;fill-opacity:0.8;"/>
    <path clip-path="url(#pe6eb50bad1)" d="M 83.25996 206.920762 
L 83.258059 206.862227 
L 97.282602 197.675204 
L 97.284161 197.733386 
z
" style="fill:#ba0c2f;fill-opacity:0.8;"/>
    <path clip-path="url(#pe6eb50bad1)" d="M 83.25996 206.920762 
L 97.284161 197.733386 
L 119.961941 203.015953 
L 106.080697 212.307127 
z
" style="fill:#74081d;fill-opacity:0.8;"/>
    <path clip-path="url(#pe6eb50bad1)" d="M 83.258059 206.862227 
L 106.07932 212.248388 
L 119.9609 202.957568 
L 97.282602 197.675204 
z
" style="fill:#a30a29;fill-opacity:0.8;"/>
    <path clip-path="url(#pe6eb50bad1)" d="M 106.080697 212.307127 
L 119.961941 203.015953 
L 119.9609 202.957568 
L 106.07932 212.248388 
z
" style="fill:#5d0618;fill-opacity:0.8;"/>
    <path clip-path="url(#pe6eb50bad1)" d="M 83.25996 206.920762 
L 106.080697 212.307127 
L 106.07932 212.248388 
L 83.258059 206.862227 
z
" style="fill:#ba0c2f;fill-opacity:0.8;"/>
   </g>
   <g id="Poly3DCollection_12">
    <path clip-path="url(#pe6eb50bad1)" d="M 215.62072 200.556959 
L 215.628079 200.192981 
L 239.042987 205.506068 
L 239.032179 205.871319 
z
" style="fill:#5d0618;fill-opacity:0.8;"/>
    <path clip-path="url(#pe6eb50bad1)" d="M 202.71127 209.799743 
L 202.716814 209.433556 
L 215.628079 200.192981 
L 215.62072 200.556959 
z
" style="fill:#ba0c2f;fill-opacity:0.8;"/>
    <path clip-path="url(#pe6eb50bad1)" d="M 202.71127 209.799743 
L 215.62072 200.556959 
L 239.032179 205.871319 
L 226.279666 215.218844 
z
" style="fill:#74081d;fill-opacity:0.8;"/>
    <path clip-path="url(#pe6eb50bad1)" d="M 202.716814 209.433556 
L 226.288706 214.851375 
L 239.042987 205.506068 
L 215.628079 200.192981 
z
" style="fill:#a30a29;fill-opacity:0.8;"/>
    <path clip-path="url(#pe6eb50bad1)" d="M 226.279666 215.218844 
L 239.032179 205.871319 
L 239.042987 205.506068 
L 226.288706 214.851375 
z
" style="fill:#5d0618;fill-opacity:0.8;"/>
    <path clip-path="url(#pe6eb50bad1)" d="M 202.71127 209.799743 
L 226.279666 215.218844 
L 226.288706 214.851375 
L 202.716814 209.433556 
z
" style="fill:#ba0c2f;fill-opacity:0.8;"/>
   </g>
   <g id="Poly3DCollection_13">
    <path clip-path="url(#pe6eb50bad1)" d="M 142.8954 208.358078 
L 142.894738 208.282117 
L 166.088928 213.684547 
L 166.088888 213.760774 
z
" style="fill:#5d0618;fill-opacity:0.8;"/>
    <path clip-path="url(#pe6eb50bad1)" d="M 129.161263 217.75482 
L 129.160174 217.678398 
L 142.894738 208.282117 
L 142.8954 208.358078 
z
" style="fill:#ba0c2f;fill-opacity:0.8;"/>
    <path clip-path="url(#pe6eb50bad1)" d="M 129.161263 217.75482 
L 142.8954 208.358078 
L 166.088888 213.760774 
L 152.506119 223.264894 
z
" style="fill:#74081d;fill-opacity:0.8;"/>
    <path clip-path="url(#pe6eb50bad1)" d="M 129.160174 217.678398 
L 152.505742 223.188203 
L 166.088928 213.684547 
L 142.894738 208.282117 
z
" style="fill:#a30a29;fill-opacity:0.8;"/>
    <path clip-path="url(#pe6eb50bad1)" d="M 152.506119 223.264894 
L 166.088888 213.760774 
L 166.088928 213.684547 
L 152.505742 223.188203 
z
" style="fill:#5d0618;fill-opacity:0.8;"/>
    <path clip-path="url(#pe6eb50bad1)" d="M 129.161263 217.75482 
L 152.506119 223.264894 
L 152.505742 223.188203 
L 129.160174 217.678398 
z
" style="fill:#ba0c2f;fill-opacity:0.8;"/>
   </g>
   <g id="Poly3DCollection_14">
    <path clip-path="url(#pe6eb50bad1)" d="M 252.891235 173.872373 
L 264.851447 165.309215 
L 287.651553 170.23357 
L 275.841739 178.890103 
z
" style="fill:#74081d;fill-opacity:0.8;"/>
    <path clip-path="url(#pe6eb50bad1)" d="M 264.851447 165.309215 
L 269.820632 38.679475 
L 293.787446 43.130215 
L 287.651553 170.23357 
z
" style="fill:#5d0618;fill-opacity:0.8;"/>
    <path clip-path="url(#pe6eb50bad1)" d="M 252.891235 173.872373 
L 257.309827 46.420583 
L 269.820632 38.679475 
L 264.851447 165.309215 
z
" style="fill:#ba0c2f;fill-opacity:0.8;"/>
    <path clip-path="url(#pe6eb50bad1)" d="M 275.841739 178.890103 
L 287.651553 170.23357 
L 293.787446 43.130215 
L 281.443059 50.959982 
z
" style="fill:#5d0618;fill-opacity:0.8;"/>
    <path clip-path="url(#pe6eb50bad1)" d="M 252.891235 173.872373 
L 275.841739 178.890103 
L 281.443059 50.959982 
L 257.309827 46.420583 
z
" style="fill:#ba0c2f;fill-opacity:0.8;"/>
    <path clip-path="url(#pe6eb50bad1)" d="M 257.309827 46.420583 
L 281.443059 50.959982 
L 293.787446 43.130215 
L 269.820632 38.679475 
z
" style="fill:#a30a29;fill-opacity:0.8;"/>
   </g>
   <g id="Poly3DCollection_15">
    <path clip-path="url(#pe6eb50bad1)" d="M 189.546851 219.225078 
L 189.546288 219.281758 
L 213.272732 224.808927 
L 213.273839 224.752048 
z
" style="fill:#ba0c2f;fill-opacity:0.8;"/>
    <path clip-path="url(#pe6eb50bad1)" d="M 176.119833 228.838425 
L 176.119573 228.89545 
L 189.546288 219.281758 
L 189.546851 219.225078 
z
" style="fill:#5d0618;fill-opacity:0.8;"/>
    <path clip-path="url(#pe6eb50bad1)" d="M 176.119573 228.89545 
L 200.006262 234.533743 
L 213.272732 224.808927 
L 189.546288 219.281758 
z
" style="fill:#a30a29;fill-opacity:0.8;"/>
    <path clip-path="url(#pe6eb50bad1)" d="M 176.119833 228.838425 
L 189.546851 219.225078 
L 213.273839 224.752048 
L 200.007075 234.476517 
z
" style="fill:#74081d;fill-opacity:0.8;"/>
    <path clip-path="url(#pe6eb50bad1)" d="M 200.007075 234.476517 
L 213.273839 224.752048 
L 213.272732 224.808927 
L 200.006262 234.533743 
z
" style="fill:#ba0c2f;fill-opacity:0.8;"/>
    <path clip-path="url(#pe6eb50bad1)" d="M 176.119833 228.838425 
L 200.007075 234.476517 
L 200.006262 234.533743 
L 176.119573 228.89545 
z
" style="fill:#5d0618;fill-opacity:0.8;"/>
   </g>
   <g id="Poly3DCollection_16">
    <path clip-path="url(#pe6eb50bad1)" d="M 25.543271 197.671763 
L 203.746795 239.929184 
L 299.752687 168.966791 
L 130.044609 132.468346 
z
" style="fill-opacity:0.15;"/>
   </g>
   <g id="Poly3DCollection_17">
    <path clip-path="url(#pe6eb50bad1)" d="M 38.380617 196.327916 
L 52.678726 187.342985 
L 74.857809 192.509386 
L 60.694689 201.594693 
z
" style="fill:#74081d;fill-opacity:0.8;"/>
    <path clip-path="url(#pe6eb50bad1)" d="M 52.678726 187.342985 
L 46.933544 57.750519 
L 70.222556 62.427839 
L 74.857809 192.509386 
z
" style="fill:#5d0618;fill-opacity:0.8;"/>
    <path clip-path="url(#pe6eb50bad1)" d="M 38.380617 196.327916 
L 31.836896 65.886594 
L 46.933544 57.750519 
L 52.678726 187.342985 
z
" style="fill:#ba0c2f;fill-opacity:0.8;"/>
    <path clip-path="url(#pe6eb50bad1)" d="M 60.694689 201.594693 
L 74.857809 192.509386 
L 70.222556 62.427839 
L 55.274545 70.659531 
z
" style="fill:#5d0618;fill-opacity:0.8;"/>
    <path clip-path="url(#pe6eb50bad1)" d="M 38.380617 196.327916 
L 60.694689 201.594693 
L 55.274545 70.659531 
L 31.836896 65.886594 
z
" style="fill:#ba0c2f;fill-opacity:0.8;"/>
    <path clip-path="url(#pe6eb50bad1)" d="M 31.836896 65.886594 
L 55.274545 70.659531 
L 70.222556 62.427839 
L 46.933544 57.750519 
z
" style="fill:#a30a29;fill-opacity:0.8;"/>
   </g>
  </g>
  <g id="patch_6">
   <path d="M 425.945455 262.8 
L 806.4 262.8 
L 806.4 -14.4 
L 425.945455 -14.4 
z
" style="fill:#ffffff;"/>
  </g>
  <g id="pane3d_4">
   <g id="patch_7">
    <path d="M 476.380584 201.548569 
L 585.268665 133.58541 
L 583.455794 3.718968 
L 468.496488 64.782468 
" style="fill:#f2f2f2;opacity:0.5;stroke:#f2f2f2;stroke-linejoin:miter;"/>
   </g>
  </g>
  <g id="pane3d_5">
   <g id="patch_8">
    <path d="M 585.268665 133.58541 
L 761.65712 171.581202 
L 769.037001 37.79869 
L 583.455794 3.718968 
" style="fill:#e6e6e6;opacity:0.5;stroke:#e6e6e6;stroke-linejoin:miter;"/>
   </g>
  </g>
  <g id="pane3d_6">
   <g id="patch_9">
    <path d="M 476.380584 201.548569 
L 661.965072 245.80086 
L 761.65712 171.581202 
L 585.268665 133.58541 
" style="fill:#ececec;opacity:0.5;stroke:#ececec;stroke-linejoin:miter;"/>
   </g>
  </g>
  <g id="axis3d_4">
   <g id="line2d_15">
    <path d="M 476.380584 201.548569 
L 661.965072 245.80086 
" style="fill:none;stroke:#000000;stroke-linecap:square;stroke-width:0.8;"/>
   </g>
   <g id="Line3DCollection_4">
    <path d="M 498.841271 206.90428 
L 606.679397 138.19749 
L 605.9393 7.847789 
" style="fill:none;stroke:#b0b0b0;stroke-width:0.8;"/>
    <path d="M 544.057792 217.686079 
L 649.729469 147.470895 
L 651.182353 16.156123 
" style="fill:none;stroke:#b0b0b0;stroke-width:0.8;"/>
    <path d="M 590.310744 228.715013 
L 693.693551 156.941187 
L 697.435637 24.649974 
" style="fill:none;stroke:#b0b0b0;stroke-width:0.8;"/>
    <path d="M 637.636176 239.999678 
L 738.601063 166.614702 
L 744.733372 33.335625 
" style="fill:none;stroke:#b0b0b0;stroke-width:0.8;"/>
   </g>
   <g id="xtick_12">
    <g id="line2d_16">
     <path d="M 499.770538 206.312217 
L 496.979262 208.09062 
" style="fill:none;stroke:#000000;stroke-linecap:square;stroke-width:0.8;"/>
    </g>
    <g id="text_13">
     <!-- 00 -->
     <g transform="translate(479.875817 237.14703)rotate(-45)scale(0.14 -0.14)">
      <use transform="scale(0.996264)" xlink:href="#CMR17-48"/>
      <use transform="translate(45.690477 0)scale(0.996264)" xlink:href="#CMR17-48"/>
     </g>
    </g>
   </g>
   <g id="xtick_13">
    <g id="line2d_17">
     <path d="M 544.969128 217.080527 
L 542.231671 218.899473 
" style="fill:none;stroke:#000000;stroke-linecap:square;stroke-width:0.8;"/>
    </g>
    <g id="text_14">
     <!-- 01 -->
     <g transform="translate(525.088242 248.103782)rotate(-45)scale(0.14 -0.14)">
      <use transform="scale(0.996264)" xlink:href="#CMR17-48"/>
      <use transform="translate(45.690477 0)scale(0.996264)" xlink:href="#CMR17-49"/>
     </g>
    </g>
   </g>
   <g id="xtick_14">
    <g id="line2d_18">
     <path d="M 591.20308 228.095506 
L 588.522658 229.956397 
" style="fill:none;stroke:#000000;stroke-linecap:square;stroke-width:0.8;"/>
    </g>
    <g id="text_15">
     <!-- 10 -->
     <g transform="translate(571.338855 259.312128)rotate(-45)scale(0.14 -0.14)">
      <use transform="scale(0.996264)" xlink:href="#CMR17-49"/>
      <use transform="translate(45.690477 0)scale(0.996264)" xlink:href="#CMR17-48"/>
     </g>
    </g>
   </g>
   <g id="xtick_15">
    <g id="line2d_19">
     <path d="M 638.50838 239.365727 
L 635.888391 241.270032 
" style="fill:none;stroke:#000000;stroke-linecap:square;stroke-width:0.8;"/>
    </g>
    <g id="text_16">
     <!-- 11 -->
     <g transform="translate(618.66383 270.780834)rotate(-45)scale(0.14 -0.14)">
      <use transform="scale(0.996264)" xlink:href="#CMR17-49"/>
      <use transform="translate(45.690477 0)scale(0.996264)" xlink:href="#CMR17-49"/>
     </g>
    </g>
   </g>
  </g>
  <g id="axis3d_5">
   <g id="line2d_20">
    <path d="M 761.65712 171.581202 
L 661.965072 245.80086 
" style="fill:none;stroke:#000000;stroke-linecap:square;stroke-width:0.8;"/>
   </g>
   <g id="Line3DCollection_5">
    <path d="M 484.000685 56.547028 
L 491.016499 192.413474 
L 675.403872 235.795817 
" style="fill:none;stroke:#b0b0b0;stroke-width:0.8;"/>
    <path d="M 513.777478 40.730342 
L 519.168861 174.842005 
L 701.219492 216.576366 
" style="fill:none;stroke:#b0b0b0;stroke-width:0.8;"/>
    <path d="M 542.401344 25.526062 
L 546.284836 157.917404 
L 726.04244 198.095948 
" style="fill:none;stroke:#b0b0b0;stroke-width:0.8;"/>
    <path d="M 569.937971 10.899296 
L 572.420618 141.604597 
L 749.928893 180.312741 
" style="fill:none;stroke:#b0b0b0;stroke-width:0.8;"/>
   </g>
   <g id="xtick_16">
    <g id="line2d_21">
     <path d="M 673.861052 235.432825 
L 678.492943 236.522608 
" style="fill:none;stroke:#000000;stroke-linecap:square;stroke-width:0.8;"/>
    </g>
    <g id="text_17">
     <!-- 00 -->
     <g transform="translate(689.195824 248.348363)rotate(-337.5)scale(0.14 -0.14)">
      <use transform="scale(0.996264)" xlink:href="#CMR17-48"/>
      <use transform="translate(45.690477 0)scale(0.996264)" xlink:href="#CMR17-48"/>
     </g>
    </g>
   </g>
   <g id="xtick_17">
    <g id="line2d_22">
     <path d="M 699.697534 216.227463 
L 704.266725 217.274932 
" style="fill:none;stroke:#000000;stroke-linecap:square;stroke-width:0.8;"/>
    </g>
    <g id="text_18">
     <!-- 01 -->
     <g transform="translate(714.749375 228.903937)rotate(-337.5)scale(0.14 -0.14)">
      <use transform="scale(0.996264)" xlink:href="#CMR17-48"/>
      <use transform="translate(45.690477 0)scale(0.996264)" xlink:href="#CMR17-49"/>
     </g>
    </g>
   </g>
   <g id="xtick_18">
    <g id="line2d_23">
     <path d="M 724.540896 197.76033 
L 729.048738 198.767901 
" style="fill:none;stroke:#000000;stroke-linecap:square;stroke-width:0.8;"/>
    </g>
    <g id="text_19">
     <!-- 10 -->
     <g transform="translate(739.320787 210.206849)rotate(-337.5)scale(0.14 -0.14)">
      <use transform="scale(0.996264)" xlink:href="#CMR17-49"/>
      <use transform="translate(45.690477 0)scale(0.996264)" xlink:href="#CMR17-48"/>
     </g>
    </g>
   </g>
   <g id="xtick_19">
    <g id="line2d_24">
     <path d="M 748.44732 179.989663 
L 752.895146 180.959573 
" style="fill:none;stroke:#000000;stroke-linecap:square;stroke-width:0.8;"/>
    </g>
    <g id="text_20">
     <!-- 11 -->
     <g transform="translate(762.965613 192.214827)rotate(-337.5)scale(0.14 -0.14)">
      <use transform="scale(0.996264)" xlink:href="#CMR17-49"/>
      <use transform="translate(45.690477 0)scale(0.996264)" xlink:href="#CMR17-49"/>
     </g>
    </g>
   </g>
  </g>
  <g id="axis3d_6">
   <g id="line2d_25">
    <path d="M 761.65712 171.581202 
L 769.037001 37.79869 
" style="fill:none;stroke:#000000;stroke-linecap:square;stroke-width:0.8;"/>
   </g>
   <g id="text_21">
    <!-- Im[$\rho$] -->
    <defs>
     <path d="M 19.703125 60.90625 
C 19.703125 65.390625 20.90625 65.390625 28.09375 65.390625 
L 28.09375 68 
C 24.90625 67.796875 19.796875 67.796875 16.40625 67.796875 
C 13 67.796875 7.90625 67.796875 4.703125 68 
L 4.703125 65.390625 
C 11.90625 65.390625 13.09375 65.390625 13.09375 60.90625 
L 13.09375 7.078125 
C 13.09375 2.59375 11.90625 2.59375 4.703125 2.59375 
L 4.703125 0 
C 7.90625 0.1875 13 0.1875 16.40625 0.1875 
C 19.796875 0.1875 24.90625 0.1875 28.09375 0 
L 28.09375 2.59375 
C 20.90625 2.59375 19.703125 2.59375 19.703125 7.078125 
z
" id="CMR17-73"/>
     <path d="M 67.59375 30.53125 
C 67.59375 35.5625 66.703125 44 54.796875 44 
C 48 44 43.296875 39.375 41.5 33.953125 
L 41.40625 33.953125 
C 40.203125 42.1875 34.296875 44 28.703125 44 
C 20.796875 44 16.703125 37.875 15.203125 33.84375 
L 15.09375 33.84375 
L 15.09375 44 
L 3.296875 42.890625 
L 3.296875 40.28125 
C 9.203125 40.28125 10.09375 39.6875 10.09375 34.859375 
L 10.09375 6.921875 
C 10.09375 3.09375 9.703125 2.59375 3.296875 2.59375 
L 3.296875 0 
C 5.703125 0.1875 10.09375 0.1875 12.703125 0.1875 
C 15.296875 0.1875 19.796875 0.1875 22.203125 0 
L 22.203125 2.59375 
C 15.796875 2.59375 15.40625 3 15.40625 6.921875 
L 15.40625 26.21875 
C 15.40625 35.453125 21 42.390625 28 42.390625 
C 35.40625 42.390625 36.203125 35.765625 36.203125 30.9375 
L 36.203125 6.921875 
C 36.203125 3.09375 35.796875 2.59375 29.40625 2.59375 
L 29.40625 0 
C 31.796875 0.1875 36.203125 0.1875 38.796875 0.1875 
C 41.40625 0.1875 45.90625 0.1875 48.296875 0 
L 48.296875 2.59375 
C 41.90625 2.59375 41.5 3 41.5 6.921875 
L 41.5 26.21875 
C 41.5 35.453125 47.09375 42.390625 54.09375 42.390625 
C 61.5 42.390625 62.296875 35.765625 62.296875 30.9375 
L 62.296875 6.921875 
C 62.296875 3.09375 61.90625 2.59375 55.5 2.59375 
L 55.5 0 
C 57.90625 0.1875 62.296875 0.1875 64.90625 0.1875 
C 67.5 0.1875 72 0.1875 74.40625 0 
L 74.40625 2.59375 
C 68 2.59375 67.59375 3 67.59375 6.921875 
z
" id="CMR17-109"/>
    </defs>
    <g transform="translate(809.026865 118.025317)rotate(-86.842577)scale(0.14 -0.14)">
     <use transform="scale(0.996264)" xlink:href="#CMR17-73"/>
     <use transform="translate(32.638409 0)scale(0.996264)" xlink:href="#CMR17-109"/>
     <use transform="translate(109.557999 0)scale(0.996264)" xlink:href="#CMR17-91"/>
     <use transform="translate(134.429058 0)scale(0.996264)" xlink:href="#CMMI12-26"/>
     <use transform="translate(184.74343 0)scale(0.996264)" xlink:href="#CMR17-93"/>
    </g>
   </g>
   <g id="Line3DCollection_6">
    <path d="M 761.840038 168.265258 
L 585.223636 130.359685 
L 476.185496 198.16436 
" style="fill:none;stroke:#b0b0b0;stroke-width:0.8;"/>
    <path d="M 764.572406 118.732882 
L 584.55158 82.216441 
L 473.26936 147.577891 
" style="fill:none;stroke:#b0b0b0;stroke-width:0.8;"/>
    <path d="M 767.413137 67.23611 
L 583.85402 32.246178 
L 470.23363 94.91682 
" style="fill:none;stroke:#b0b0b0;stroke-width:0.8;"/>
   </g>
   <g id="xtick_20">
    <g id="line2d_26">
     <path d="M 760.366408 167.948986 
L 764.790364 168.89846 
" style="fill:none;stroke:#000000;stroke-linecap:square;stroke-width:0.8;"/>
    </g>
    <g id="text_22">
     <!-- $0.0$ -->
     <g transform="translate(771.64804 176.011278)scale(0.14 -0.14)">
      <use transform="scale(0.996264)" xlink:href="#CMR17-48"/>
      <use transform="translate(45.690477 0)scale(0.996264)" xlink:href="#CMMI12-58"/>
      <use transform="translate(72.787654 0)scale(0.996264)" xlink:href="#CMR17-48"/>
     </g>
    </g>
   </g>
   <g id="xtick_21">
    <g id="line2d_27">
     <path d="M 763.069168 118.427957 
L 767.582071 119.34338 
" style="fill:none;stroke:#000000;stroke-linecap:square;stroke-width:0.8;"/>
    </g>
    <g id="text_23">
     <!-- $0.2$ -->
     <g transform="translate(774.734068 126.548561)scale(0.14 -0.14)">
      <use transform="scale(0.996264)" xlink:href="#CMR17-48"/>
      <use transform="translate(45.690477 0)scale(0.996264)" xlink:href="#CMMI12-58"/>
      <use transform="translate(72.787654 0)scale(0.996264)" xlink:href="#CMR17-50"/>
     </g>
    </g>
   </g>
   <g id="xtick_22">
    <g id="line2d_28">
     <path d="M 765.879078 66.943689 
L 770.484573 67.821586 
" style="fill:none;stroke:#000000;stroke-linecap:square;stroke-width:0.8;"/>
    </g>
    <g id="text_24">
     <!-- $0.4$ -->
     <g transform="translate(777.942213 75.128543)scale(0.14 -0.14)">
      <use transform="scale(0.996264)" xlink:href="#CMR17-48"/>
      <use transform="translate(45.690477 0)scale(0.996264)" xlink:href="#CMMI12-58"/>
      <use transform="translate(72.787654 0)scale(0.996264)" xlink:href="#CMR17-52"/>
     </g>
    </g>
   </g>
  </g>
  <g id="axes_2">
   <g id="Poly3DCollection_18">
    <path clip-path="url(#p3a14fe611c)" d="M 589.587926 136.722156 
L 589.589307 136.834347 
L 610.981557 141.454598 
L 610.981106 141.34202 
z
" style="fill:#0cba97;fill-opacity:0.8;"/>
    <path clip-path="url(#p3a14fe611c)" d="M 576.803457 144.754819 
L 576.805411 144.86768 
L 589.589307 136.834347 
L 589.587926 136.722156 
z
" style="fill:#065d4c;fill-opacity:0.8;"/>
    <path clip-path="url(#p3a14fe611c)" d="M 576.805411 144.86768 
L 598.326032 149.572753 
L 610.981557 141.454598 
L 589.589307 136.834347 
z
" style="fill:#0aa384;fill-opacity:0.8;"/>
    <path clip-path="url(#p3a14fe611c)" d="M 576.803457 144.754819 
L 589.587926 136.722156 
L 610.981106 141.34202 
L 598.325017 149.459502 
z
" style="fill:#08745e;fill-opacity:0.8;"/>
    <path clip-path="url(#p3a14fe611c)" d="M 598.325017 149.459502 
L 610.981106 141.34202 
L 610.981557 141.454598 
L 598.326032 149.572753 
z
" style="fill:#0cba97;fill-opacity:0.8;"/>
    <path clip-path="url(#p3a14fe611c)" d="M 576.803457 144.754819 
L 598.325017 149.459502 
L 598.326032 149.572753 
L 576.805411 144.86768 
z
" style="fill:#065d4c;fill-opacity:0.8;"/>
   </g>
   <g id="Poly3DCollection_19">
    <path clip-path="url(#p3a14fe611c)" d="M 632.599742 146.010572 
L 632.59645 146.760341 
L 654.437701 151.480942 
L 654.44742 150.728586 
z
" style="fill:#0cba97;fill-opacity:0.8;"/>
    <path clip-path="url(#p3a14fe611c)" d="M 620.075477 154.214224 
L 620.075842 154.968482 
L 632.59645 146.760341 
L 632.599742 146.010572 
z
" style="fill:#065d4c;fill-opacity:0.8;"/>
    <path clip-path="url(#p3a14fe611c)" d="M 620.075842 154.968482 
L 642.052367 159.776653 
L 654.437701 151.480942 
L 632.59645 146.760341 
z
" style="fill:#0aa384;fill-opacity:0.8;"/>
    <path clip-path="url(#p3a14fe611c)" d="M 620.075477 154.214224 
L 632.599742 146.010572 
L 654.44742 150.728586 
L 642.058508 159.019786 
z
" style="fill:#08745e;fill-opacity:0.8;"/>
    <path clip-path="url(#p3a14fe611c)" d="M 642.058508 159.019786 
L 654.44742 150.728586 
L 654.437701 151.480942 
L 642.052367 159.776653 
z
" style="fill:#0cba97;fill-opacity:0.8;"/>
    <path clip-path="url(#p3a14fe611c)" d="M 620.075477 154.214224 
L 642.058508 159.019786 
L 642.052367 159.776653 
L 620.075842 154.968482 
z
" style="fill:#065d4c;fill-opacity:0.8;"/>
   </g>
   <g id="Poly3DCollection_20">
    <path clip-path="url(#p3a14fe611c)" d="M 563.78381 152.935247 
L 563.766671 152.171758 
L 585.424124 156.960976 
L 585.43487 157.727107 
z
" style="fill:#065d4c;fill-opacity:0.8;"/>
    <path clip-path="url(#p3a14fe611c)" d="M 550.522435 161.267557 
L 550.501149 160.499483 
L 563.766671 152.171758 
L 563.78381 152.935247 
z
" style="fill:#0cba97;fill-opacity:0.8;"/>
    <path clip-path="url(#p3a14fe611c)" d="M 550.522435 161.267557 
L 563.78381 152.935247 
L 585.43487 157.727107 
L 572.304109 166.149039 
z
" style="fill:#08745e;fill-opacity:0.8;"/>
    <path clip-path="url(#p3a14fe611c)" d="M 550.501149 160.499483 
L 572.289294 165.378301 
L 585.424124 156.960976 
L 563.766671 152.171758 
z
" style="fill:#0aa384;fill-opacity:0.8;"/>
    <path clip-path="url(#p3a14fe611c)" d="M 572.304109 166.149039 
L 585.43487 157.727107 
L 585.424124 156.960976 
L 572.289294 165.378301 
z
" style="fill:#065d4c;fill-opacity:0.8;"/>
    <path clip-path="url(#p3a14fe611c)" d="M 550.522435 161.267557 
L 572.304109 166.149039 
L 572.289294 165.378301 
L 550.501149 160.499483 
z
" style="fill:#0cba97;fill-opacity:0.8;"/>
   </g>
   <g id="Poly3DCollection_21">
    <path clip-path="url(#p3a14fe611c)" d="M 676.527797 155.49685 
L 676.52877 155.451727 
L 698.845986 160.270895 
L 698.844612 160.316174 
z
" style="fill:#065d4c;fill-opacity:0.8;"/>
    <path clip-path="url(#p3a14fe611c)" d="M 664.277861 163.877009 
L 664.278625 163.831615 
L 676.52877 155.451727 
L 676.527797 155.49685 
z
" style="fill:#0cba97;fill-opacity:0.8;"/>
    <path clip-path="url(#p3a14fe611c)" d="M 664.277861 163.877009 
L 676.527797 155.49685 
L 698.844612 160.316174 
L 686.737366 168.786731 
z
" style="fill:#08745e;fill-opacity:0.8;"/>
    <path clip-path="url(#p3a14fe611c)" d="M 664.278625 163.831615 
L 686.738536 168.741179 
L 698.845986 160.270895 
L 676.52877 155.451727 
z
" style="fill:#0aa384;fill-opacity:0.8;"/>
    <path clip-path="url(#p3a14fe611c)" d="M 686.737366 168.786731 
L 698.844612 160.316174 
L 698.845986 160.270895 
L 686.738536 168.741179 
z
" style="fill:#065d4c;fill-opacity:0.8;"/>
    <path clip-path="url(#p3a14fe611c)" d="M 664.277861 163.877009 
L 686.737366 168.786731 
L 686.738536 168.741179 
L 664.278625 163.831615 
z
" style="fill:#0cba97;fill-opacity:0.8;"/>
   </g>
   <g id="Poly3DCollection_22">
    <path clip-path="url(#p3a14fe611c)" d="M 607.318348 162.570407 
L 607.318441 162.587525 
L 629.437951 167.483156 
L 629.438006 167.465978 
z
" style="fill:#0cba97;fill-opacity:0.8;"/>
    <path clip-path="url(#p3a14fe611c)" d="M 594.321798 171.083414 
L 594.321981 171.100636 
L 607.318441 162.587525 
L 607.318348 162.570407 
z
" style="fill:#065d4c;fill-opacity:0.8;"/>
    <path clip-path="url(#p3a14fe611c)" d="M 594.321981 171.100636 
L 616.57939 176.088829 
L 629.437951 167.483156 
L 607.318441 162.587525 
z
" style="fill:#0aa384;fill-opacity:0.8;"/>
    <path clip-path="url(#p3a14fe611c)" d="M 594.321798 171.083414 
L 607.318348 162.570407 
L 629.438006 167.465978 
L 616.579357 176.071547 
z
" style="fill:#08745e;fill-opacity:0.8;"/>
    <path clip-path="url(#p3a14fe611c)" d="M 616.579357 176.071547 
L 629.438006 167.465978 
L 629.437951 167.483156 
L 616.57939 176.088829 
z
" style="fill:#0cba97;fill-opacity:0.8;"/>
    <path clip-path="url(#p3a14fe611c)" d="M 594.321798 171.083414 
L 616.579357 176.071547 
L 616.57939 176.088829 
L 594.321981 171.100636 
z
" style="fill:#065d4c;fill-opacity:0.8;"/>
   </g>
   <g id="Poly3DCollection_23">
    <path clip-path="url(#p3a14fe611c)" d="M 721.401683 165.187381 
L 721.401683 165.187381 
L 744.20291 170.111314 
L 744.20291 170.111314 
z
" style="fill:#065d4c;fill-opacity:0.8;"/>
    <path clip-path="url(#p3a14fe611c)" d="M 709.440938 173.749806 
L 709.440938 173.749806 
L 721.401683 165.187381 
L 721.401683 165.187381 
z
" style="fill:#065d4c;fill-opacity:0.8;"/>
    <path clip-path="url(#p3a14fe611c)" d="M 709.440938 173.749806 
L 721.401683 165.187381 
L 744.20291 170.111314 
L 732.392578 178.767109 
z
" style="fill:#08745e;fill-opacity:0.8;"/>
    <path clip-path="url(#p3a14fe611c)" d="M 709.440938 173.749806 
L 732.392578 178.767109 
L 744.20291 170.111314 
L 721.401683 165.187381 
z
" style="fill:#0aa384;fill-opacity:0.8;"/>
    <path clip-path="url(#p3a14fe611c)" d="M 732.392578 178.767109 
L 744.20291 170.111314 
L 744.20291 170.111314 
L 732.392578 178.767109 
z
" style="fill:#065d4c;fill-opacity:0.8;"/>
    <path clip-path="url(#p3a14fe611c)" d="M 709.440938 173.749806 
L 732.392578 178.767109 
L 732.392578 178.767109 
L 709.440938 173.749806 
z
" style="fill:#065d4c;fill-opacity:0.8;"/>
   </g>
   <g id="Poly3DCollection_24">
    <path clip-path="url(#p3a14fe611c)" d="M 537.012537 169.756016 
L 537.01401 169.8005 
L 558.927032 174.774297 
L 558.925936 174.729659 
z
" style="fill:#0cba97;fill-opacity:0.8;"/>
    <path clip-path="url(#p3a14fe611c)" d="M 523.247065 178.405057 
L 523.248795 178.449809 
L 537.01401 169.8005 
L 537.012537 169.756016 
z
" style="fill:#065d4c;fill-opacity:0.8;"/>
    <path clip-path="url(#p3a14fe611c)" d="M 523.248795 178.449809 
L 545.294638 183.518403 
L 558.927032 174.774297 
L 537.01401 169.8005 
z
" style="fill:#0aa384;fill-opacity:0.8;"/>
    <path clip-path="url(#p3a14fe611c)" d="M 523.247065 178.405057 
L 537.012537 169.756016 
L 558.925936 174.729659 
L 545.293289 183.473495 
z
" style="fill:#08745e;fill-opacity:0.8;"/>
    <path clip-path="url(#p3a14fe611c)" d="M 545.293289 183.473495 
L 558.925936 174.729659 
L 558.927032 174.774297 
L 545.294638 183.518403 
z
" style="fill:#0cba97;fill-opacity:0.8;"/>
    <path clip-path="url(#p3a14fe611c)" d="M 523.247065 178.405057 
L 545.293289 183.473495 
L 545.294638 183.518403 
L 523.248795 178.449809 
z
" style="fill:#065d4c;fill-opacity:0.8;"/>
   </g>
   <g id="Poly3DCollection_25">
    <path clip-path="url(#p3a14fe611c)" d="M 651.797689 172.414672 
L 651.797689 172.414672 
L 674.401325 177.417358 
L 674.401325 177.417358 
z
" style="fill:#065d4c;fill-opacity:0.8;"/>
    <path clip-path="url(#p3a14fe611c)" d="M 639.080729 181.11432 
L 639.080729 181.11432 
L 651.797689 172.414672 
L 651.797689 172.414672 
z
" style="fill:#065d4c;fill-opacity:0.8;"/>
    <path clip-path="url(#p3a14fe611c)" d="M 639.080729 181.11432 
L 651.797689 172.414672 
L 674.401325 177.417358 
L 661.829942 186.212637 
z
" style="fill:#08745e;fill-opacity:0.8;"/>
    <path clip-path="url(#p3a14fe611c)" d="M 639.080729 181.11432 
L 661.829942 186.212637 
L 674.401325 177.417358 
L 651.797689 172.414672 
z
" style="fill:#0aa384;fill-opacity:0.8;"/>
    <path clip-path="url(#p3a14fe611c)" d="M 661.829942 186.212637 
L 674.401325 177.417358 
L 674.401325 177.417358 
L 661.829942 186.212637 
z
" style="fill:#065d4c;fill-opacity:0.8;"/>
    <path clip-path="url(#p3a14fe611c)" d="M 639.080729 181.11432 
L 661.829942 186.212637 
L 661.829942 186.212637 
L 639.080729 181.11432 
z
" style="fill:#065d4c;fill-opacity:0.8;"/>
   </g>
   <g id="Poly3DCollection_26">
    <path clip-path="url(#p3a14fe611c)" d="M 581.079024 179.757704 
L 581.079024 179.757704 
L 603.475758 184.841048 
L 603.475758 184.841048 
z
" style="fill:#065d4c;fill-opacity:0.8;"/>
    <path clip-path="url(#p3a14fe611c)" d="M 567.582963 188.597902 
L 567.582963 188.597902 
L 581.079024 179.757704 
L 581.079024 179.757704 
z
" style="fill:#065d4c;fill-opacity:0.8;"/>
    <path clip-path="url(#p3a14fe611c)" d="M 567.582963 188.597902 
L 581.079024 179.757704 
L 603.475758 184.841048 
L 590.120141 193.77921 
z
" style="fill:#08745e;fill-opacity:0.8;"/>
    <path clip-path="url(#p3a14fe611c)" d="M 567.582963 188.597902 
L 590.120141 193.77921 
L 603.475758 184.841048 
L 581.079024 179.757704 
z
" style="fill:#0aa384;fill-opacity:0.8;"/>
    <path clip-path="url(#p3a14fe611c)" d="M 590.120141 193.77921 
L 603.475758 184.841048 
L 603.475758 184.841048 
L 590.120141 193.77921 
z
" style="fill:#065d4c;fill-opacity:0.8;"/>
    <path clip-path="url(#p3a14fe611c)" d="M 567.582963 188.597902 
L 590.120141 193.77921 
L 590.120141 193.77921 
L 567.582963 188.597902 
z
" style="fill:#065d4c;fill-opacity:0.8;"/>
   </g>
   <g id="Poly3DCollection_27">
    <path clip-path="url(#p3a14fe611c)" d="M 697.252928 182.474925 
L 697.25155 182.520909 
L 720.354794 187.634425 
L 720.356602 187.588281 
z
" style="fill:#0cba97;fill-opacity:0.8;"/>
    <path clip-path="url(#p3a14fe611c)" d="M 684.831112 191.36742 
L 684.829948 191.413683 
L 697.25155 182.520909 
L 697.252928 182.474925 
z
" style="fill:#065d4c;fill-opacity:0.8;"/>
    <path clip-path="url(#p3a14fe611c)" d="M 684.829948 191.413683 
L 708.086851 196.626037 
L 720.354794 187.634425 
L 697.25155 182.520909 
z
" style="fill:#0aa384;fill-opacity:0.8;"/>
    <path clip-path="url(#p3a14fe611c)" d="M 684.831112 191.36742 
L 697.252928 182.474925 
L 720.356602 187.588281 
L 708.08845 196.579613 
z
" style="fill:#08745e;fill-opacity:0.8;"/>
    <path clip-path="url(#p3a14fe611c)" d="M 708.08845 196.579613 
L 720.356602 187.588281 
L 720.354794 187.634425 
L 708.086851 196.626037 
z
" style="fill:#0cba97;fill-opacity:0.8;"/>
    <path clip-path="url(#p3a14fe611c)" d="M 684.831112 191.36742 
L 708.08845 196.579613 
L 708.086851 196.626037 
L 684.829948 191.413683 
z
" style="fill:#065d4c;fill-opacity:0.8;"/>
   </g>
   <g id="Poly3DCollection_28">
    <path clip-path="url(#p3a14fe611c)" d="M 509.218697 187.219279 
L 509.218697 187.219279 
L 531.39884 192.385248 
L 531.39884 192.385248 
z
" style="fill:#065d4c;fill-opacity:0.8;"/>
    <path clip-path="url(#p3a14fe611c)" d="M 494.919828 196.203461 
L 494.919828 196.203461 
L 509.218697 187.219279 
L 509.218697 187.219279 
z
" style="fill:#065d4c;fill-opacity:0.8;"/>
    <path clip-path="url(#p3a14fe611c)" d="M 494.919828 196.203461 
L 509.218697 187.219279 
L 531.39884 192.385248 
L 517.234973 201.469804 
z
" style="fill:#08745e;fill-opacity:0.8;"/>
    <path clip-path="url(#p3a14fe611c)" d="M 494.919828 196.203461 
L 517.234973 201.469804 
L 531.39884 192.385248 
L 509.218697 187.219279 
z
" style="fill:#0aa384;fill-opacity:0.8;"/>
    <path clip-path="url(#p3a14fe611c)" d="M 517.234973 201.469804 
L 531.39884 192.385248 
L 531.39884 192.385248 
L 517.234973 201.469804 
z
" style="fill:#065d4c;fill-opacity:0.8;"/>
    <path clip-path="url(#p3a14fe611c)" d="M 494.919828 196.203461 
L 517.234973 201.469804 
L 517.234973 201.469804 
L 494.919828 196.203461 
z
" style="fill:#065d4c;fill-opacity:0.8;"/>
   </g>
   <g id="Poly3DCollection_29">
    <path clip-path="url(#p3a14fe611c)" d="M 626.120178 189.980609 
L 626.120212 189.963162 
L 649.016609 195.159818 
L 649.016417 195.177325 
z
" style="fill:#065d4c;fill-opacity:0.8;"/>
    <path clip-path="url(#p3a14fe611c)" d="M 612.90897 199.018373 
L 612.908911 199.00082 
L 626.120212 189.963162 
L 626.120178 189.980609 
z
" style="fill:#0cba97;fill-opacity:0.8;"/>
    <path clip-path="url(#p3a14fe611c)" d="M 612.90897 199.018373 
L 626.120178 189.980609 
L 649.016417 195.177325 
L 635.953686 204.316365 
z
" style="fill:#08745e;fill-opacity:0.8;"/>
    <path clip-path="url(#p3a14fe611c)" d="M 612.908911 199.00082 
L 635.953789 204.298751 
L 649.016609 195.159818 
L 626.120212 189.963162 
z
" style="fill:#0aa384;fill-opacity:0.8;"/>
    <path clip-path="url(#p3a14fe611c)" d="M 635.953686 204.316365 
L 649.016417 195.177325 
L 649.016609 195.159818 
L 635.953789 204.298751 
z
" style="fill:#065d4c;fill-opacity:0.8;"/>
    <path clip-path="url(#p3a14fe611c)" d="M 612.90897 199.018373 
L 635.953686 204.316365 
L 635.953789 204.298751 
L 612.908911 199.00082 
z
" style="fill:#0cba97;fill-opacity:0.8;"/>
   </g>
   <g id="Poly3DCollection_30">
    <path clip-path="url(#p3a14fe611c)" d="M 553.826277 197.608815 
L 553.825062 197.563476 
L 576.504355 202.845449 
L 576.505166 202.890946 
z
" style="fill:#065d4c;fill-opacity:0.8;"/>
    <path clip-path="url(#p3a14fe611c)" d="M 539.801343 206.795435 
L 539.799861 206.749821 
L 553.825062 197.563476 
L 553.826277 197.608815 
z
" style="fill:#0cba97;fill-opacity:0.8;"/>
    <path clip-path="url(#p3a14fe611c)" d="M 539.801343 206.795435 
L 553.826277 197.608815 
L 576.505166 202.890946 
L 562.623204 212.181362 
z
" style="fill:#08745e;fill-opacity:0.8;"/>
    <path clip-path="url(#p3a14fe611c)" d="M 539.799861 206.749821 
L 562.622131 212.135588 
L 576.504355 202.845449 
L 553.825062 197.563476 
z
" style="fill:#0aa384;fill-opacity:0.8;"/>
    <path clip-path="url(#p3a14fe611c)" d="M 562.623204 212.181362 
L 576.505166 202.890946 
L 576.504355 202.845449 
L 562.622131 212.135588 
z
" style="fill:#065d4c;fill-opacity:0.8;"/>
    <path clip-path="url(#p3a14fe611c)" d="M 539.801343 206.795435 
L 562.623204 212.181362 
L 562.622131 212.135588 
L 539.799861 206.749821 
z
" style="fill:#0cba97;fill-opacity:0.8;"/>
   </g>
   <g id="Poly3DCollection_31">
    <path clip-path="url(#p3a14fe611c)" d="M 672.168698 200.432155 
L 672.184452 199.652952 
L 695.604476 204.964148 
L 695.581339 205.746078 
z
" style="fill:#065d4c;fill-opacity:0.8;"/>
    <path clip-path="url(#p3a14fe611c)" d="M 659.258626 209.674182 
L 659.270495 208.890248 
L 672.184452 199.652952 
L 672.168698 200.432155 
z
" style="fill:#0cba97;fill-opacity:0.8;"/>
    <path clip-path="url(#p3a14fe611c)" d="M 659.258626 209.674182 
L 672.168698 200.432155 
L 695.581339 205.746078 
L 682.828221 215.092843 
z
" style="fill:#08745e;fill-opacity:0.8;"/>
    <path clip-path="url(#p3a14fe611c)" d="M 659.270495 208.890248 
L 682.847572 214.306161 
L 695.604476 204.964148 
L 672.184452 199.652952 
z
" style="fill:#0aa384;fill-opacity:0.8;"/>
    <path clip-path="url(#p3a14fe611c)" d="M 682.828221 215.092843 
L 695.581339 205.746078 
L 695.604476 204.964148 
L 682.847572 214.306161 
z
" style="fill:#065d4c;fill-opacity:0.8;"/>
    <path clip-path="url(#p3a14fe611c)" d="M 659.258626 209.674182 
L 682.828221 215.092843 
L 682.847572 214.306161 
L 659.270495 208.890248 
z
" style="fill:#0cba97;fill-opacity:0.8;"/>
   </g>
   <g id="Poly3DCollection_32">
    <path clip-path="url(#p3a14fe611c)" d="M 599.43976 208.232634 
L 599.446674 209.025184 
L 622.633989 214.430216 
L 622.634409 213.634891 
z
" style="fill:#0cba97;fill-opacity:0.8;"/>
    <path clip-path="url(#p3a14fe611c)" d="M 585.704918 217.628614 
L 585.716284 218.425978 
L 599.446674 209.025184 
L 599.43976 208.232634 
z
" style="fill:#065d4c;fill-opacity:0.8;"/>
    <path clip-path="url(#p3a14fe611c)" d="M 585.716284 218.425978 
L 609.054888 223.938404 
L 622.633989 214.430216 
L 599.446674 209.025184 
z
" style="fill:#0aa384;fill-opacity:0.8;"/>
    <path clip-path="url(#p3a14fe611c)" d="M 585.704918 217.628614 
L 599.43976 208.232634 
L 622.634409 213.634891 
L 609.050951 223.138245 
z
" style="fill:#08745e;fill-opacity:0.8;"/>
    <path clip-path="url(#p3a14fe611c)" d="M 609.050951 223.138245 
L 622.634409 213.634891 
L 622.633989 214.430216 
L 609.054888 223.938404 
z
" style="fill:#0cba97;fill-opacity:0.8;"/>
    <path clip-path="url(#p3a14fe611c)" d="M 585.704918 217.628614 
L 609.050951 223.138245 
L 609.054888 223.938404 
L 585.716284 218.425978 
z
" style="fill:#065d4c;fill-opacity:0.8;"/>
   </g>
   <g id="Poly3DCollection_33">
    <path clip-path="url(#p3a14fe611c)" d="M 646.093559 219.098753 
L 646.094738 218.979983 
L 669.824083 224.506094 
L 669.821762 224.62528 
z
" style="fill:#065d4c;fill-opacity:0.8;"/>
    <path clip-path="url(#p3a14fe611c)" d="M 632.665868 228.711332 
L 632.666413 228.591839 
L 646.094738 218.979983 
L 646.093559 219.098753 
z
" style="fill:#0cba97;fill-opacity:0.8;"/>
    <path clip-path="url(#p3a14fe611c)" d="M 632.665868 228.711332 
L 646.093559 219.098753 
L 669.821762 224.62528 
L 656.554341 234.348978 
z
" style="fill:#08745e;fill-opacity:0.8;"/>
    <path clip-path="url(#p3a14fe611c)" d="M 632.666413 228.591839 
L 656.556044 234.229066 
L 669.824083 224.506094 
L 646.094738 218.979983 
z
" style="fill:#0aa384;fill-opacity:0.8;"/>
    <path clip-path="url(#p3a14fe611c)" d="M 656.554341 234.348978 
L 669.821762 224.62528 
L 669.824083 224.506094 
L 656.556044 234.229066 
z
" style="fill:#065d4c;fill-opacity:0.8;"/>
    <path clip-path="url(#p3a14fe611c)" d="M 632.665868 228.711332 
L 656.554341 234.348978 
L 656.556044 234.229066 
L 632.666413 228.591839 
z
" style="fill:#0cba97;fill-opacity:0.8;"/>
   </g>
   <g id="Poly3DCollection_34">
    <path clip-path="url(#p3a14fe611c)" d="M 482.081838 197.547197 
L 660.294264 239.801216 
L 756.304616 168.844643 
L 586.588465 132.349398 
z
" style="fill-opacity:0.2;"/>
   </g>
  </g>
 </g>
 <defs>
  <clipPath id="pe6eb50bad1">
   <rect height="277.2" width="380.454545" x="-30.6" y="-14.4"/>
  </clipPath>
  <clipPath id="p3a14fe611c">
   <rect height="277.2" width="380.454545" x="425.945455" y="-14.4"/>
  </clipPath>
 </defs>
</svg>
