<?xml version="1.0" encoding="utf-8" standalone="no"?>
<!DOCTYPE svg PUBLIC "-//W3C//DTD SVG 1.1//EN"
  "http://www.w3.org/Graphics/SVG/1.1/DTD/svg11.dtd">
<!-- Created with matplotlib (https://matplotlib.org/) -->
<svg height="302.4pt" version="1.1" viewBox="0 0 820.8 302.4" width="820.8pt" xmlns="http://www.w3.org/2000/svg" xmlns:xlink="http://www.w3.org/1999/xlink">
 <defs>
  <style type="text/css">
*{stroke-linecap:butt;stroke-linejoin:round;}
  </style>
 </defs>
 <g id="figure_1">
  <g id="patch_1">
   <path d="M 0 302.4 
L 820.8 302.4 
L 820.8 0 
L 0 0 
z
" style="fill:#ffffff;"/>
  </g>
  <g id="patch_2">
   <path d="M -30.6 262.8 
L 349.854545 262.8 
L 349.854545 -14.4 
L -30.6 -14.4 
z
" style="fill:#ffffff;"/>
  </g>
  <g id="pane3d_1">
   <g id="patch_3">
    <path d="M 19.835129 201.548569 
L 128.723211 133.58541 
L 126.910339 3.718968 
L 11.951034 64.782468 
" style="fill:#f2f2f2;opacity:0.5;stroke:#f2f2f2;stroke-linejoin:miter;"/>
   </g>
  </g>
  <g id="pane3d_2">
   <g id="patch_4">
    <path d="M 128.723211 133.58541 
L 305.111665 171.581202 
L 312.491547 37.79869 
L 126.910339 3.718968 
" style="fill:#e6e6e6;opacity:0.5;stroke:#e6e6e6;stroke-linejoin:miter;"/>
   </g>
  </g>
  <g id="pane3d_3">
   <g id="patch_5">
    <path d="M 19.835129 201.548569 
L 205.419617 245.80086 
L 305.111665 171.581202 
L 128.723211 133.58541 
" style="fill:#ececec;opacity:0.5;stroke:#ececec;stroke-linejoin:miter;"/>
   </g>
  </g>
  <g id="axis3d_1">
   <g id="line2d_1">
    <path d="M 19.835129 201.548569 
L 205.419617 245.80086 
" style="fill:none;stroke:#000000;stroke-linecap:square;stroke-width:0.8;"/>
   </g>
   <g id="Line3DCollection_1">
    <path d="M 42.295817 206.90428 
L 150.133942 138.19749 
L 149.393845 7.847789 
" style="fill:none;stroke:#b0b0b0;stroke-width:0.8;"/>
    <path d="M 87.512337 217.686079 
L 193.184014 147.470895 
L 194.636898 16.156123 
" style="fill:none;stroke:#b0b0b0;stroke-width:0.8;"/>
    <path d="M 133.765289 228.715013 
L 237.148096 156.941187 
L 240.890183 24.649974 
" style="fill:none;stroke:#b0b0b0;stroke-width:0.8;"/>
    <path d="M 181.090721 239.999678 
L 282.055608 166.614702 
L 288.187917 33.335625 
" style="fill:none;stroke:#b0b0b0;stroke-width:0.8;"/>
   </g>
   <g id="xtick_1">
    <g id="line2d_2">
     <path d="M 43.225084 206.312217 
L 40.433807 208.09062 
" style="fill:none;stroke:#000000;stroke-linecap:square;stroke-width:0.8;"/>
    </g>
    <g id="text_1">
     <!-- 00 -->
     <defs>
      <path d="M 42 31.84375 
C 42 37.96875 41.90625 48.421875 37.703125 56.453125 
C 34 63.484375 28.09375 66 22.90625 66 
C 18.09375 66 12 63.78125 8.203125 56.5625 
C 4.203125 49.015625 3.796875 39.671875 3.796875 31.84375 
C 3.796875 26.109375 3.90625 17.375 7 9.734375 
C 11.296875 -0.609375 19 -2 22.90625 -2 
C 27.5 -2 34.5 -0.109375 38.59375 9.4375 
C 41.59375 16.375 42 24.5 42 31.84375 
z
M 22.90625 -0.40625 
C 16.5 -0.40625 12.703125 5.125 11.296875 12.75 
C 10.203125 18.6875 10.203125 27.328125 10.203125 32.953125 
C 10.203125 40.6875 10.203125 47.109375 11.5 53.234375 
C 13.40625 61.78125 19 64.390625 22.90625 64.390625 
C 27 64.390625 32.296875 61.671875 34.203125 53.4375 
C 35.5 47.71875 35.59375 40.984375 35.59375 32.953125 
C 35.59375 26.421875 35.59375 18.375 34.40625 12.453125 
C 32.296875 1.5 26.40625 -0.40625 22.90625 -0.40625 
z
" id="CMR17-48"/>
     </defs>
     <g transform="translate(23.330362 237.14703)rotate(-45)scale(0.14 -0.14)">
      <use transform="scale(0.996264)" xlink:href="#CMR17-48"/>
      <use transform="translate(45.690477 0)scale(0.996264)" xlink:href="#CMR17-48"/>
     </g>
    </g>
   </g>
   <g id="xtick_2">
    <g id="line2d_3">
     <path d="M 88.423674 217.080527 
L 85.686217 218.899473 
" style="fill:none;stroke:#000000;stroke-linecap:square;stroke-width:0.8;"/>
    </g>
    <g id="text_2">
     <!-- 01 -->
     <defs>
      <path d="M 26.59375 63.796875 
C 26.59375 65.890625 26.5 66 25.09375 66 
C 21.203125 61.359375 15.296875 59.890625 9.703125 59.6875 
C 9.40625 59.6875 8.90625 59.6875 8.796875 59.5 
C 8.703125 59.296875 8.703125 59.09375 8.703125 57 
C 11.796875 57 17 57.59375 21 59.984375 
L 21 7.296875 
C 21 3.796875 20.796875 2.59375 12.203125 2.59375 
L 9.203125 2.59375 
L 9.203125 0 
C 14 0.09375 19 0.1875 23.796875 0.1875 
C 28.59375 0.1875 33.59375 0.09375 38.40625 0 
L 38.40625 2.59375 
L 35.40625 2.59375 
C 26.796875 2.59375 26.59375 3.6875 26.59375 7.296875 
z
" id="CMR17-49"/>
     </defs>
     <g transform="translate(68.542787 248.103782)rotate(-45)scale(0.14 -0.14)">
      <use transform="scale(0.996264)" xlink:href="#CMR17-48"/>
      <use transform="translate(45.690477 0)scale(0.996264)" xlink:href="#CMR17-49"/>
     </g>
    </g>
   </g>
   <g id="xtick_3">
    <g id="line2d_4">
     <path d="M 134.657625 228.095506 
L 131.977203 229.956397 
" style="fill:none;stroke:#000000;stroke-linecap:square;stroke-width:0.8;"/>
    </g>
    <g id="text_3">
     <!-- 10 -->
     <g transform="translate(114.7934 259.312128)rotate(-45)scale(0.14 -0.14)">
      <use transform="scale(0.996264)" xlink:href="#CMR17-49"/>
      <use transform="translate(45.690477 0)scale(0.996264)" xlink:href="#CMR17-48"/>
     </g>
    </g>
   </g>
   <g id="xtick_4">
    <g id="line2d_5">
     <path d="M 181.962926 239.365727 
L 179.342936 241.270032 
" style="fill:none;stroke:#000000;stroke-linecap:square;stroke-width:0.8;"/>
    </g>
    <g id="text_4">
     <!-- 11 -->
     <g transform="translate(162.118375 270.780834)rotate(-45)scale(0.14 -0.14)">
      <use transform="scale(0.996264)" xlink:href="#CMR17-49"/>
      <use transform="translate(45.690477 0)scale(0.996264)" xlink:href="#CMR17-49"/>
     </g>
    </g>
   </g>
  </g>
  <g id="axis3d_2">
   <g id="line2d_6">
    <path d="M 305.111665 171.581202 
L 205.419617 245.80086 
" style="fill:none;stroke:#000000;stroke-linecap:square;stroke-width:0.8;"/>
   </g>
   <g id="Line3DCollection_2">
    <path d="M 27.455231 56.547028 
L 34.471044 192.413474 
L 218.858418 235.795817 
" style="fill:none;stroke:#b0b0b0;stroke-width:0.8;"/>
    <path d="M 57.232024 40.730342 
L 62.623407 174.842005 
L 244.674037 216.576366 
" style="fill:none;stroke:#b0b0b0;stroke-width:0.8;"/>
    <path d="M 85.85589 25.526062 
L 89.739382 157.917404 
L 269.496985 198.095948 
" style="fill:none;stroke:#b0b0b0;stroke-width:0.8;"/>
    <path d="M 113.392516 10.899296 
L 115.875164 141.604597 
L 293.383438 180.312741 
" style="fill:none;stroke:#b0b0b0;stroke-width:0.8;"/>
   </g>
   <g id="xtick_5">
    <g id="line2d_7">
     <path d="M 217.315598 235.432825 
L 221.947489 236.522608 
" style="fill:none;stroke:#000000;stroke-linecap:square;stroke-width:0.8;"/>
    </g>
    <g id="text_5">
     <!-- 00 -->
     <g transform="translate(232.650369 248.348363)rotate(-337.5)scale(0.14 -0.14)">
      <use transform="scale(0.996264)" xlink:href="#CMR17-48"/>
      <use transform="translate(45.690477 0)scale(0.996264)" xlink:href="#CMR17-48"/>
     </g>
    </g>
   </g>
   <g id="xtick_6">
    <g id="line2d_8">
     <path d="M 243.15208 216.227463 
L 247.72127 217.274932 
" style="fill:none;stroke:#000000;stroke-linecap:square;stroke-width:0.8;"/>
    </g>
    <g id="text_6">
     <!-- 01 -->
     <g transform="translate(258.203921 228.903937)rotate(-337.5)scale(0.14 -0.14)">
      <use transform="scale(0.996264)" xlink:href="#CMR17-48"/>
      <use transform="translate(45.690477 0)scale(0.996264)" xlink:href="#CMR17-49"/>
     </g>
    </g>
   </g>
   <g id="xtick_7">
    <g id="line2d_9">
     <path d="M 267.995442 197.76033 
L 272.503283 198.767901 
" style="fill:none;stroke:#000000;stroke-linecap:square;stroke-width:0.8;"/>
    </g>
    <g id="text_7">
     <!-- 10 -->
     <g transform="translate(282.775332 210.206849)rotate(-337.5)scale(0.14 -0.14)">
      <use transform="scale(0.996264)" xlink:href="#CMR17-49"/>
      <use transform="translate(45.690477 0)scale(0.996264)" xlink:href="#CMR17-48"/>
     </g>
    </g>
   </g>
   <g id="xtick_8">
    <g id="line2d_10">
     <path d="M 291.901865 179.989663 
L 296.349691 180.959573 
" style="fill:none;stroke:#000000;stroke-linecap:square;stroke-width:0.8;"/>
    </g>
    <g id="text_8">
     <!-- 11 -->
     <g transform="translate(306.420159 192.214827)rotate(-337.5)scale(0.14 -0.14)">
      <use transform="scale(0.996264)" xlink:href="#CMR17-49"/>
      <use transform="translate(45.690477 0)scale(0.996264)" xlink:href="#CMR17-49"/>
     </g>
    </g>
   </g>
  </g>
  <g id="axis3d_3">
   <g id="line2d_11">
    <path d="M 305.111665 171.581202 
L 312.491547 37.79869 
" style="fill:none;stroke:#000000;stroke-linecap:square;stroke-width:0.8;"/>
   </g>
   <g id="text_9">
    <!-- Re[$\rho$] -->
    <defs>
     <path d="M 39.203125 33.6875 
C 48.703125 35.59375 56.703125 42.015625 56.703125 50.046875 
C 56.703125 59.46875 46.09375 68 32.09375 68 
L 5.203125 68 
L 5.203125 65.390625 
C 12.09375 65.390625 13.203125 65.390625 13.203125 60.875 
L 13.203125 6.6875 
C 13.203125 2.1875 12.09375 2.1875 5.203125 2.1875 
L 5.203125 -0.40625 
C 8.09375 -0.203125 13.296875 -0.203125 16.40625 -0.203125 
C 19.5 -0.203125 24.703125 -0.203125 27.59375 -0.40625 
L 27.59375 2.1875 
C 20.703125 2.1875 19.59375 2.1875 19.59375 6.6875 
L 19.59375 33 
L 31.296875 33 
C 37 33 40.203125 30.6875 41.59375 29.390625 
C 45.59375 25.5 45.59375 22.796875 45.59375 16 
C 45.59375 9.296875 45.59375 5.890625 48.59375 2.5 
C 52.40625 -1.609375 57.5 -2 59.703125 -2 
C 67.09375 -2 68.203125 6.296875 68.203125 8 
C 68.203125 8.59375 68.203125 9.296875 67.296875 9.296875 
C 66.5 9.296875 66.40625 8.6875 66.40625 8.296875 
C 65.90625 1.796875 63 -0.40625 59.90625 -0.40625 
C 54.40625 -0.40625 53.796875 5.890625 53.203125 12 
C 52.90625 14.09375 52.703125 15.59375 52.5 17.796875 
C 51.90625 22.796875 51.09375 30.09375 39.203125 33.6875 
z
M 31 34.59375 
L 19.59375 34.59375 
L 19.59375 61.484375 
C 19.59375 64.890625 19.796875 65.390625 23.796875 65.390625 
L 31.09375 65.390625 
C 39.40625 65.390625 49.09375 62.484375 49.09375 50.046875 
C 49.09375 37.09375 38.5 34.59375 31 34.59375 
z
" id="CMR17-82"/>
     <path d="M 38.09375 23.484375 
C 38.5 23.890625 38.5 24.09375 38.5 25.09375 
C 38.5 35.171875 33.09375 44 21.703125 44 
C 11.09375 44 2.703125 33.984375 2.703125 21.78125 
C 2.703125 8.65625 12.203125 -1 22.796875 -1 
C 34 -1 38.40625 9.671875 38.40625 11.796875 
C 38.40625 12.5 37.796875 12.5 37.59375 12.5 
C 36.90625 12.5 36.796875 12.296875 36.40625 11.078125 
C 34.203125 4.21875 28.703125 0.796875 23.5 0.796875 
C 19.203125 0.796875 14.90625 3.21875 12.203125 7.65625 
C 9.09375 12.796875 9.09375 18.75 9.09375 23.484375 
z
M 9.203125 25 
C 9.90625 39.234375 17.59375 42.390625 21.59375 42.390625 
C 28.40625 42.390625 33 36.0625 33.09375 25 
z
" id="CMR17-101"/>
     <path d="M 23.5 -25 
L 23.5 -21.5 
L 14.09375 -21.5 
L 14.09375 71.484375 
L 23.5 71.484375 
L 23.5 75 
L 10.59375 75 
L 10.59375 -25 
z
" id="CMR17-91"/>
     <path d="M 3.09375 -16.953125 
C 3 -17.4375 2.796875 -18.03125 2.796875 -18.609375 
C 2.796875 -20.109375 4 -21.109375 5.5 -21.109375 
C 7 -21.109375 8.40625 -20.109375 9 -18.71875 
C 9.40625 -17.828125 12.203125 -6.09375 15.40625 6.078125 
C 17.40625 1.09375 21.09375 -1 25 -1 
C 36.296875 -1 49.09375 12.96875 49.09375 28.03125 
C 49.09375 38.703125 42.59375 44 35.703125 44 
C 26.90625 44 16.203125 34.90625 12.90625 21.640625 
z
M 24.90625 1 
C 18.09375 1 16.40625 8.875 16.40625 10.078125 
C 16.40625 10.671875 18.90625 20.140625 19.203125 21.640625 
C 24.296875 41.5 34.09375 41.984375 35.59375 41.984375 
C 40.09375 41.984375 42.59375 37.90625 42.59375 32.015625 
C 42.59375 26.9375 39.90625 17.046875 38.203125 12.859375 
C 35.203125 5.984375 30 1 24.90625 1 
z
" id="CMMI12-26"/>
     <path d="M 14.296875 75 
L 1.40625 75 
L 1.40625 71.484375 
L 10.796875 71.484375 
L 10.796875 -21.5 
L 1.40625 -21.5 
L 1.40625 -25 
L 14.296875 -25 
z
" id="CMR17-93"/>
    </defs>
    <g transform="translate(352.486567 117.931831)rotate(-86.842577)scale(0.14 -0.14)">
     <use transform="scale(0.996264)" xlink:href="#CMR17-82"/>
     <use transform="translate(67.791102 0)scale(0.996264)" xlink:href="#CMR17-101"/>
     <use transform="translate(108.276762 0)scale(0.996264)" xlink:href="#CMR17-91"/>
     <use transform="translate(133.147821 0)scale(0.996264)" xlink:href="#CMMI12-26"/>
     <use transform="translate(183.462194 0)scale(0.996264)" xlink:href="#CMR17-93"/>
    </g>
   </g>
   <g id="Line3DCollection_3">
    <path d="M 305.311513 167.958364 
L 128.674014 130.061159 
L 19.621985 197.851133 
" style="fill:none;stroke:#b0b0b0;stroke-width:0.8;"/>
    <path d="M 308.041816 118.463418 
L 128.002472 81.954746 
L 16.708031 147.302516 
" style="fill:none;stroke:#b0b0b0;stroke-width:0.8;"/>
    <path d="M 310.880303 67.007313 
L 127.305468 32.02435 
L 13.674679 94.682694 
" style="fill:none;stroke:#b0b0b0;stroke-width:0.8;"/>
   </g>
   <g id="xtick_9">
    <g id="line2d_12">
     <path d="M 303.837699 167.64216 
L 308.262207 168.591429 
" style="fill:none;stroke:#000000;stroke-linecap:square;stroke-width:0.8;"/>
    </g>
    <g id="text_10">
     <!-- $0.0$ -->
     <defs>
      <path d="M 18.40625 4.796875 
C 18.40625 7.6875 16 9.6875 13.59375 9.6875 
C 10.703125 9.6875 8.703125 7.296875 8.703125 4.890625 
C 8.703125 2 11.09375 0 13.5 0 
C 16.40625 0 18.40625 2.390625 18.40625 4.796875 
z
" id="CMMI12-58"/>
     </defs>
     <g transform="translate(315.121707 175.704803)scale(0.14 -0.14)">
      <use transform="scale(0.996264)" xlink:href="#CMR17-48"/>
      <use transform="translate(45.690477 0)scale(0.996264)" xlink:href="#CMMI12-58"/>
      <use transform="translate(72.787654 0)scale(0.996264)" xlink:href="#CMR17-48"/>
     </g>
    </g>
   </g>
   <g id="xtick_10">
    <g id="line2d_13">
     <path d="M 306.538417 118.158556 
L 311.051804 119.073788 
" style="fill:none;stroke:#000000;stroke-linecap:square;stroke-width:0.8;"/>
    </g>
    <g id="text_11">
     <!-- $0.2$ -->
     <defs>
      <path d="M 41.703125 15.46875 
L 39.90625 15.46875 
C 38.90625 8.390625 38.09375 7.1875 37.703125 6.59375 
C 37.203125 5.796875 30 5.796875 28.59375 5.796875 
L 9.40625 5.796875 
C 13 9.6875 20 16.765625 28.5 24.9375 
C 34.59375 30.71875 41.703125 37.5 41.703125 47.390625 
C 41.703125 59.1875 32.296875 66 21.796875 66 
C 10.796875 66 4.09375 56.296875 4.09375 47.296875 
C 4.09375 43.390625 7 42.890625 8.203125 42.890625 
C 9.203125 42.890625 12.203125 43.484375 12.203125 46.984375 
C 12.203125 50.09375 9.59375 51 8.203125 51 
C 7.59375 51 7 50.890625 6.59375 50.6875 
C 8.5 59.1875 14.296875 63.390625 20.40625 63.390625 
C 29.09375 63.390625 34.796875 56.5 34.796875 47.390625 
C 34.796875 38.703125 29.703125 31.21875 24 24.734375 
L 4.09375 2.296875 
L 4.09375 0 
L 39.296875 0 
z
" id="CMR17-50"/>
     </defs>
     <g transform="translate(318.205401 126.279486)scale(0.14 -0.14)">
      <use transform="scale(0.996264)" xlink:href="#CMR17-48"/>
      <use transform="translate(45.690477 0)scale(0.996264)" xlink:href="#CMMI12-58"/>
      <use transform="translate(72.787654 0)scale(0.996264)" xlink:href="#CMR17-50"/>
     </g>
    </g>
   </g>
   <g id="xtick_11">
    <g id="line2d_14">
     <path d="M 309.346108 66.714949 
L 313.952014 67.592674 
" style="fill:none;stroke:#000000;stroke-linecap:square;stroke-width:0.8;"/>
    </g>
    <g id="text_12">
     <!-- $0.4$ -->
     <defs>
      <path d="M 33.59375 64.796875 
C 33.59375 66.890625 33.5 67 31.703125 67 
L 2 19.59375 
L 2 17 
L 27.796875 17 
L 27.796875 7.1875 
C 27.796875 3.59375 27.59375 2.59375 20.59375 2.59375 
L 18.703125 2.59375 
L 18.703125 0 
C 21.90625 0.1875 27.296875 0.1875 30.703125 0.1875 
C 34.09375 0.1875 39.5 0.1875 42.703125 0 
L 42.703125 2.59375 
L 40.796875 2.59375 
C 33.796875 2.59375 33.59375 3.59375 33.59375 7.1875 
L 33.59375 17 
L 43.796875 17 
L 43.796875 19.59375 
L 33.59375 19.59375 
z
M 28.09375 58.171875 
L 28.09375 19.59375 
L 4 19.59375 
z
" id="CMR17-52"/>
     </defs>
     <g transform="translate(321.411011 74.900097)scale(0.14 -0.14)">
      <use transform="scale(0.996264)" xlink:href="#CMR17-48"/>
      <use transform="translate(45.690477 0)scale(0.996264)" xlink:href="#CMMI12-58"/>
      <use transform="translate(72.787654 0)scale(0.996264)" xlink:href="#CMR17-52"/>
     </g>
    </g>
   </g>
  </g>
  <g id="axes_1">
   <g id="Poly3DCollection_1">
    <path clip-path="url(#p42e06e65d6)" d="M 133.038782 136.422199 
L 132.86427 122.23622 
L 154.377306 126.80581 
L 154.434443 141.041031 
z
" style="fill:#5d0618;fill-opacity:0.8;"/>
    <path clip-path="url(#p42e06e65d6)" d="M 120.252778 144.45307 
L 133.038782 136.422199 
L 154.434443 141.041031 
L 141.77685 149.156712 
z
" style="fill:#74081d;fill-opacity:0.8;"/>
    <path clip-path="url(#p42e06e65d6)" d="M 120.252778 144.45307 
L 120.0057 130.181642 
L 132.86427 122.23622 
L 133.038782 136.422199 
z
" style="fill:#ba0c2f;fill-opacity:0.8;"/>
    <path clip-path="url(#p42e06e65d6)" d="M 141.77685 149.156712 
L 154.434443 141.041031 
L 154.377306 126.80581 
L 141.648559 134.835607 
z
" style="fill:#5d0618;fill-opacity:0.8;"/>
    <path clip-path="url(#p42e06e65d6)" d="M 120.0057 130.181642 
L 141.648559 134.835607 
L 154.377306 126.80581 
L 132.86427 122.23622 
z
" style="fill:#a30a29;fill-opacity:0.8;"/>
    <path clip-path="url(#p42e06e65d6)" d="M 120.252778 144.45307 
L 141.77685 149.156712 
L 141.648559 134.835607 
L 120.0057 130.181642 
z
" style="fill:#ba0c2f;fill-opacity:0.8;"/>
   </g>
   <g id="Poly3DCollection_2">
    <path clip-path="url(#p42e06e65d6)" d="M 176.055614 145.708545 
L 176.056366 145.5373 
L 197.9081 150.253679 
L 197.90588 150.425516 
z
" style="fill:#5d0618;fill-opacity:0.8;"/>
    <path clip-path="url(#p42e06e65d6)" d="M 163.529876 153.910388 
L 163.529792 153.738116 
L 176.056366 145.5373 
L 176.055614 145.708545 
z
" style="fill:#ba0c2f;fill-opacity:0.8;"/>
    <path clip-path="url(#p42e06e65d6)" d="M 163.529876 153.910388 
L 176.055614 145.708545 
L 197.90588 150.425516 
L 185.515528 158.714898 
z
" style="fill:#74081d;fill-opacity:0.8;"/>
    <path clip-path="url(#p42e06e65d6)" d="M 163.529792 153.738116 
L 185.51693 158.542031 
L 197.9081 150.253679 
L 176.056366 145.5373 
z
" style="fill:#a30a29;fill-opacity:0.8;"/>
    <path clip-path="url(#p42e06e65d6)" d="M 185.515528 158.714898 
L 197.90588 150.425516 
L 197.9081 150.253679 
L 185.51693 158.542031 
z
" style="fill:#5d0618;fill-opacity:0.8;"/>
    <path clip-path="url(#p42e06e65d6)" d="M 163.529876 153.910388 
L 185.515528 158.714898 
L 185.51693 158.542031 
L 163.529792 153.738116 
z
" style="fill:#ba0c2f;fill-opacity:0.8;"/>
   </g>
   <g id="Poly3DCollection_3">
    <path clip-path="url(#p42e06e65d6)" d="M 107.231541 152.631692 
L 107.201471 151.292161 
L 128.866289 156.078332 
L 128.885143 157.422502 
z
" style="fill:#5d0618;fill-opacity:0.8;"/>
    <path clip-path="url(#p42e06e65d6)" d="M 93.968517 160.962179 
L 93.931172 159.614599 
L 107.201471 151.292161 
L 107.231541 152.631692 
z
" style="fill:#ba0c2f;fill-opacity:0.8;"/>
    <path clip-path="url(#p42e06e65d6)" d="M 93.968517 160.962179 
L 107.231541 152.631692 
L 128.885143 157.422502 
L 115.752764 165.842602 
z
" style="fill:#74081d;fill-opacity:0.8;"/>
    <path clip-path="url(#p42e06e65d6)" d="M 93.931172 159.614599 
L 115.72677 164.490344 
L 128.866289 156.078332 
L 107.201471 151.292161 
z
" style="fill:#a30a29;fill-opacity:0.8;"/>
    <path clip-path="url(#p42e06e65d6)" d="M 115.752764 165.842602 
L 128.885143 157.422502 
L 128.866289 156.078332 
L 115.72677 164.490344 
z
" style="fill:#5d0618;fill-opacity:0.8;"/>
    <path clip-path="url(#p42e06e65d6)" d="M 93.968517 160.962179 
L 115.752764 165.842602 
L 115.72677 164.490344 
L 93.931172 159.614599 
z
" style="fill:#ba0c2f;fill-opacity:0.8;"/>
   </g>
   <g id="Poly3DCollection_4">
    <path clip-path="url(#p42e06e65d6)" d="M 219.988901 155.192733 
L 219.965857 156.261297 
L 242.275884 161.083265 
L 242.308416 160.011004 
z
" style="fill:#ba0c2f;fill-opacity:0.8;"/>
    <path clip-path="url(#p42e06e65d6)" d="M 207.737557 163.571065 
L 207.719458 164.646045 
L 219.965857 156.261297 
L 219.988901 155.192733 
z
" style="fill:#5d0618;fill-opacity:0.8;"/>
    <path clip-path="url(#p42e06e65d6)" d="M 207.719458 164.646045 
L 230.172089 169.558433 
L 242.275884 161.083265 
L 219.965857 156.261297 
z
" style="fill:#a30a29;fill-opacity:0.8;"/>
    <path clip-path="url(#p42e06e65d6)" d="M 207.737557 163.571065 
L 219.988901 155.192733 
L 242.308416 160.011004 
L 230.199798 168.479724 
z
" style="fill:#74081d;fill-opacity:0.8;"/>
    <path clip-path="url(#p42e06e65d6)" d="M 230.199798 168.479724 
L 242.308416 160.011004 
L 242.275884 161.083265 
L 230.172089 169.558433 
z
" style="fill:#ba0c2f;fill-opacity:0.8;"/>
    <path clip-path="url(#p42e06e65d6)" d="M 207.737557 163.571065 
L 230.199798 168.479724 
L 230.172089 169.558433 
L 207.719458 164.646045 
z
" style="fill:#5d0618;fill-opacity:0.8;"/>
   </g>
   <g id="Poly3DCollection_5">
    <path clip-path="url(#p42e06e65d6)" d="M 150.771217 162.264746 
L 150.771426 162.30281 
L 172.893407 167.197453 
L 172.893529 167.159257 
z
" style="fill:#ba0c2f;fill-opacity:0.8;"/>
    <path clip-path="url(#p42e06e65d6)" d="M 137.773082 170.775914 
L 137.773488 170.814207 
L 150.771426 162.30281 
L 150.771217 162.264746 
z
" style="fill:#5d0618;fill-opacity:0.8;"/>
    <path clip-path="url(#p42e06e65d6)" d="M 137.773488 170.814207 
L 160.033399 175.801404 
L 172.893407 167.197453 
L 150.771426 162.30281 
z
" style="fill:#a30a29;fill-opacity:0.8;"/>
    <path clip-path="url(#p42e06e65d6)" d="M 137.773082 170.775914 
L 150.771217 162.264746 
L 172.893529 167.159257 
L 160.033328 175.762977 
z
" style="fill:#74081d;fill-opacity:0.8;"/>
    <path clip-path="url(#p42e06e65d6)" d="M 160.033328 175.762977 
L 172.893529 167.159257 
L 172.893407 167.197453 
L 160.033399 175.801404 
z
" style="fill:#ba0c2f;fill-opacity:0.8;"/>
    <path clip-path="url(#p42e06e65d6)" d="M 137.773082 170.775914 
L 160.033328 175.762977 
L 160.033399 175.801404 
L 137.773488 170.814207 
z
" style="fill:#5d0618;fill-opacity:0.8;"/>
   </g>
   <g id="Poly3DCollection_6">
    <path clip-path="url(#p42e06e65d6)" d="M 80.45691 169.448801 
L 80.453417 169.343284 
L 102.370312 174.315492 
L 102.372912 174.421376 
z
" style="fill:#5d0618;fill-opacity:0.8;"/>
    <path clip-path="url(#p42e06e65d6)" d="M 66.689665 178.095989 
L 66.685562 177.989835 
L 80.453417 169.343284 
L 80.45691 169.448801 
z
" style="fill:#ba0c2f;fill-opacity:0.8;"/>
    <path clip-path="url(#p42e06e65d6)" d="M 66.689665 178.095989 
L 80.45691 169.448801 
L 102.372912 174.421376 
L 88.738524 183.16335 
z
" style="fill:#74081d;fill-opacity:0.8;"/>
    <path clip-path="url(#p42e06e65d6)" d="M 66.685562 177.989835 
L 88.735326 183.056827 
L 102.370312 174.315492 
L 80.453417 169.343284 
z
" style="fill:#a30a29;fill-opacity:0.8;"/>
    <path clip-path="url(#p42e06e65d6)" d="M 88.738524 183.16335 
L 102.372912 174.421376 
L 102.370312 174.315492 
L 88.735326 183.056827 
z
" style="fill:#5d0618;fill-opacity:0.8;"/>
    <path clip-path="url(#p42e06e65d6)" d="M 66.689665 178.095989 
L 88.738524 183.16335 
L 88.735326 183.056827 
L 66.685562 177.989835 
z
" style="fill:#ba0c2f;fill-opacity:0.8;"/>
   </g>
   <g id="Poly3DCollection_7">
    <path clip-path="url(#p42e06e65d6)" d="M 195.255924 172.106885 
L 195.259 171.850204 
L 217.867717 176.850927 
L 217.86233 177.108501 
z
" style="fill:#5d0618;fill-opacity:0.8;"/>
    <path clip-path="url(#p42e06e65d6)" d="M 182.537445 180.804676 
L 182.539255 180.546446 
L 195.259 171.850204 
L 195.255924 172.106885 
z
" style="fill:#ba0c2f;fill-opacity:0.8;"/>
    <path clip-path="url(#p42e06e65d6)" d="M 182.537445 180.804676 
L 195.255924 172.106885 
L 217.86233 177.108501 
L 205.289464 185.901914 
z
" style="fill:#74081d;fill-opacity:0.8;"/>
    <path clip-path="url(#p42e06e65d6)" d="M 182.539255 180.546446 
L 205.293615 185.642783 
L 217.867717 176.850927 
L 195.259 171.850204 
z
" style="fill:#a30a29;fill-opacity:0.8;"/>
    <path clip-path="url(#p42e06e65d6)" d="M 205.289464 185.901914 
L 217.86233 177.108501 
L 217.867717 176.850927 
L 205.293615 185.642783 
z
" style="fill:#5d0618;fill-opacity:0.8;"/>
    <path clip-path="url(#p42e06e65d6)" d="M 182.537445 180.804676 
L 205.289464 185.901914 
L 205.293615 185.642783 
L 182.539255 180.546446 
z
" style="fill:#ba0c2f;fill-opacity:0.8;"/>
   </g>
   <g id="Poly3DCollection_8">
    <path clip-path="url(#p42e06e65d6)" d="M 124.528662 179.448348 
L 124.524868 179.209219 
L 146.926424 184.290652 
L 146.928116 184.530614 
z
" style="fill:#5d0618;fill-opacity:0.8;"/>
    <path clip-path="url(#p42e06e65d6)" d="M 111.030891 188.286676 
L 111.025776 188.046101 
L 124.524868 179.209219 
L 124.528662 179.448348 
z
" style="fill:#ba0c2f;fill-opacity:0.8;"/>
    <path clip-path="url(#p42e06e65d6)" d="M 111.030891 188.286676 
L 124.528662 179.448348 
L 146.928116 184.530614 
L 133.570824 193.466898 
z
" style="fill:#74081d;fill-opacity:0.8;"/>
    <path clip-path="url(#p42e06e65d6)" d="M 111.025776 188.046101 
L 133.567838 193.225483 
L 146.926424 184.290652 
L 124.524868 179.209219 
z
" style="fill:#a30a29;fill-opacity:0.8;"/>
    <path clip-path="url(#p42e06e65d6)" d="M 133.570824 193.466898 
L 146.928116 184.530614 
L 146.926424 184.290652 
L 133.567838 193.225483 
z
" style="fill:#5d0618;fill-opacity:0.8;"/>
    <path clip-path="url(#p42e06e65d6)" d="M 111.030891 188.286676 
L 133.570824 193.466898 
L 133.567838 193.225483 
L 111.025776 188.046101 
z
" style="fill:#ba0c2f;fill-opacity:0.8;"/>
   </g>
   <g id="Poly3DCollection_9">
    <path clip-path="url(#p42e06e65d6)" d="M 240.716765 182.164992 
L 240.68412 183.253979 
L 263.78052 188.370049 
L 263.823331 187.277267 
z
" style="fill:#ba0c2f;fill-opacity:0.8;"/>
    <path clip-path="url(#p42e06e65d6)" d="M 228.293503 191.055613 
L 228.265937 192.151184 
L 240.68412 183.253979 
L 240.716765 182.164992 
z
" style="fill:#5d0618;fill-opacity:0.8;"/>
    <path clip-path="url(#p42e06e65d6)" d="M 228.265937 192.151184 
L 251.515903 197.366112 
L 263.78052 188.370049 
L 240.68412 183.253979 
z
" style="fill:#a30a29;fill-opacity:0.8;"/>
    <path clip-path="url(#p42e06e65d6)" d="M 228.293503 191.055613 
L 240.716765 182.164992 
L 263.823331 187.277267 
L 251.553773 196.266716 
z
" style="fill:#74081d;fill-opacity:0.8;"/>
    <path clip-path="url(#p42e06e65d6)" d="M 251.553773 196.266716 
L 263.823331 187.277267 
L 263.78052 188.370049 
L 251.515903 197.366112 
z
" style="fill:#ba0c2f;fill-opacity:0.8;"/>
    <path clip-path="url(#p42e06e65d6)" d="M 228.293503 191.055613 
L 251.553773 196.266716 
L 251.515903 197.366112 
L 228.265937 192.151184 
z
" style="fill:#5d0618;fill-opacity:0.8;"/>
   </g>
   <g id="Poly3DCollection_10">
    <path clip-path="url(#p42e06e65d6)" d="M 169.575317 189.669093 
L 169.575243 189.707887 
L 192.47397 194.90365 
L 192.474398 194.864721 
z
" style="fill:#ba0c2f;fill-opacity:0.8;"/>
    <path clip-path="url(#p42e06e65d6)" d="M 156.362468 198.704969 
L 156.362599 198.743998 
L 169.575243 189.707887 
L 169.575317 189.669093 
z
" style="fill:#5d0618;fill-opacity:0.8;"/>
    <path clip-path="url(#p42e06e65d6)" d="M 156.362599 198.743998 
L 179.409837 204.04103 
L 192.47397 194.90365 
L 169.575243 189.707887 
z
" style="fill:#a30a29;fill-opacity:0.8;"/>
    <path clip-path="url(#p42e06e65d6)" d="M 156.362468 198.704969 
L 169.575317 189.669093 
L 192.474398 194.864721 
L 179.410065 204.001864 
z
" style="fill:#74081d;fill-opacity:0.8;"/>
    <path clip-path="url(#p42e06e65d6)" d="M 179.410065 204.001864 
L 192.474398 194.864721 
L 192.47397 194.90365 
L 179.409837 204.04103 
z
" style="fill:#ba0c2f;fill-opacity:0.8;"/>
    <path clip-path="url(#p42e06e65d6)" d="M 156.362468 198.704969 
L 179.410065 204.001864 
L 179.409837 204.04103 
L 156.362599 198.743998 
z
" style="fill:#5d0618;fill-opacity:0.8;"/>
   </g>
   <g id="Poly3DCollection_11">
    <path clip-path="url(#p42e06e65d6)" d="M 97.272431 197.295704 
L 97.269549 197.188161 
L 119.952184 202.468821 
L 119.954109 202.57674 
z
" style="fill:#5d0618;fill-opacity:0.8;"/>
    <path clip-path="url(#p42e06e65d6)" d="M 83.245654 206.480425 
L 83.242139 206.372229 
L 97.269549 197.188161 
L 97.272431 197.295704 
z
" style="fill:#ba0c2f;fill-opacity:0.8;"/>
    <path clip-path="url(#p42e06e65d6)" d="M 83.245654 206.480425 
L 97.272431 197.295704 
L 119.954109 202.57674 
L 106.070338 211.865248 
z
" style="fill:#74081d;fill-opacity:0.8;"/>
    <path clip-path="url(#p42e06e65d6)" d="M 83.242139 206.372229 
L 106.067793 211.756673 
L 119.952184 202.468821 
L 97.269549 197.188161 
z
" style="fill:#a30a29;fill-opacity:0.8;"/>
    <path clip-path="url(#p42e06e65d6)" d="M 106.070338 211.865248 
L 119.954109 202.57674 
L 119.952184 202.468821 
L 106.067793 211.756673 
z
" style="fill:#5d0618;fill-opacity:0.8;"/>
    <path clip-path="url(#p42e06e65d6)" d="M 83.245654 206.480425 
L 106.070338 211.865248 
L 106.067793 211.756673 
L 83.242139 206.372229 
z
" style="fill:#ba0c2f;fill-opacity:0.8;"/>
   </g>
   <g id="Poly3DCollection_12">
    <path clip-path="url(#p42e06e65d6)" d="M 215.629585 200.118458 
L 215.633182 199.940594 
L 239.050481 205.252797 
L 239.045199 205.431283 
z
" style="fill:#5d0618;fill-opacity:0.8;"/>
    <path clip-path="url(#p42e06e65d6)" d="M 202.71795 209.35858 
L 202.720659 209.179636 
L 215.633182 199.940594 
L 215.629585 200.118458 
z
" style="fill:#ba0c2f;fill-opacity:0.8;"/>
    <path clip-path="url(#p42e06e65d6)" d="M 202.71795 209.35858 
L 215.629585 200.118458 
L 239.045199 205.431283 
L 226.290557 214.776136 
z
" style="fill:#74081d;fill-opacity:0.8;"/>
    <path clip-path="url(#p42e06e65d6)" d="M 202.720659 209.179636 
L 226.294974 214.596565 
L 239.050481 205.252797 
L 215.633182 199.940594 
z
" style="fill:#a30a29;fill-opacity:0.8;"/>
    <path clip-path="url(#p42e06e65d6)" d="M 226.290557 214.776136 
L 239.045199 205.431283 
L 239.050481 205.252797 
L 226.294974 214.596565 
z
" style="fill:#5d0618;fill-opacity:0.8;"/>
    <path clip-path="url(#p42e06e65d6)" d="M 202.71795 209.35858 
L 226.290557 214.776136 
L 226.294974 214.596565 
L 202.720659 209.179636 
z
" style="fill:#ba0c2f;fill-opacity:0.8;"/>
   </g>
   <g id="Poly3DCollection_13">
    <path clip-path="url(#p42e06e65d6)" d="M 142.891555 207.917328 
L 142.879417 206.525891 
L 166.089858 211.922162 
L 166.089121 213.318481 
z
" style="fill:#5d0618;fill-opacity:0.8;"/>
    <path clip-path="url(#p42e06e65d6)" d="M 129.154942 217.311392 
L 129.134987 215.911488 
L 142.879417 206.525891 
L 142.891555 207.917328 
z
" style="fill:#ba0c2f;fill-opacity:0.8;"/>
    <path clip-path="url(#p42e06e65d6)" d="M 129.154942 217.311392 
L 142.891555 207.917328 
L 166.089121 213.318481 
L 152.50393 222.81991 
z
" style="fill:#74081d;fill-opacity:0.8;"/>
    <path clip-path="url(#p42e06e65d6)" d="M 129.134987 215.911488 
L 152.497019 221.415089 
L 166.089858 211.922162 
L 142.879417 206.525891 
z
" style="fill:#a30a29;fill-opacity:0.8;"/>
    <path clip-path="url(#p42e06e65d6)" d="M 152.50393 222.81991 
L 166.089121 213.318481 
L 166.089858 211.922162 
L 152.497019 221.415089 
z
" style="fill:#5d0618;fill-opacity:0.8;"/>
    <path clip-path="url(#p42e06e65d6)" d="M 129.154942 217.311392 
L 152.50393 222.81991 
L 152.497019 221.415089 
L 129.134987 215.911488 
z
" style="fill:#ba0c2f;fill-opacity:0.8;"/>
   </g>
   <g id="Poly3DCollection_14">
    <path clip-path="url(#p42e06e65d6)" d="M 252.906164 173.441733 
L 264.868245 164.881153 
L 287.672289 169.804022 
L 275.86066 178.457964 
z
" style="fill:#74081d;fill-opacity:0.8;"/>
    <path clip-path="url(#p42e06e65d6)" d="M 264.868245 164.881153 
L 269.853873 37.832394 
L 293.828503 42.279736 
L 287.672289 169.804022 
z
" style="fill:#5d0618;fill-opacity:0.8;"/>
    <path clip-path="url(#p42e06e65d6)" d="M 252.906164 173.441733 
L 257.339398 45.567601 
L 269.853873 37.832394 
L 264.868245 164.881153 
z
" style="fill:#ba0c2f;fill-opacity:0.8;"/>
    <path clip-path="url(#p42e06e65d6)" d="M 275.86066 178.457964 
L 287.672289 169.804022 
L 293.828503 42.279736 
L 281.480557 50.103563 
z
" style="fill:#5d0618;fill-opacity:0.8;"/>
    <path clip-path="url(#p42e06e65d6)" d="M 252.906164 173.441733 
L 275.86066 178.457964 
L 281.480557 50.103563 
L 257.339398 45.567601 
z
" style="fill:#ba0c2f;fill-opacity:0.8;"/>
    <path clip-path="url(#p42e06e65d6)" d="M 257.339398 45.567601 
L 281.480557 50.103563 
L 293.828503 42.279736 
L 269.853873 37.832394 
z
" style="fill:#a30a29;fill-opacity:0.8;"/>
   </g>
   <g id="Poly3DCollection_15">
    <path clip-path="url(#p42e06e65d6)" d="M 25.519072 197.234099 
L 203.753873 239.479564 
L 299.775434 168.537625 
L 130.038991 132.050423 
z
" style="fill-opacity:0.15;"/>
   </g>
   <g id="Poly3DCollection_16">
    <path clip-path="url(#p42e06e65d6)" d="M 189.551256 218.781233 
L 189.700377 203.756772 
L 213.576113 209.228934 
L 213.282512 224.306646 
z
" style="fill:#5d0618;fill-opacity:0.8;"/>
    <path clip-path="url(#p42e06e65d6)" d="M 176.121871 228.391879 
L 189.551256 218.781233 
L 213.282512 224.306646 
L 200.013439 234.028403 
z
" style="fill:#74081d;fill-opacity:0.8;"/>
    <path clip-path="url(#p42e06e65d6)" d="M 176.121871 228.391879 
L 176.190871 213.275038 
L 189.700377 203.756772 
L 189.551256 218.781233 
z
" style="fill:#ba0c2f;fill-opacity:0.8;"/>
    <path clip-path="url(#p42e06e65d6)" d="M 200.013439 234.028403 
L 213.282512 224.306646 
L 213.576113 209.228934 
L 200.22889 218.857914 
z
" style="fill:#5d0618;fill-opacity:0.8;"/>
    <path clip-path="url(#p42e06e65d6)" d="M 176.190871 213.275038 
L 200.22889 218.857914 
L 213.576113 209.228934 
L 189.700377 203.756772 
z
" style="fill:#a30a29;fill-opacity:0.8;"/>
    <path clip-path="url(#p42e06e65d6)" d="M 176.121871 228.391879 
L 200.013439 234.028403 
L 200.22889 218.857914 
L 176.190871 213.275038 
z
" style="fill:#ba0c2f;fill-opacity:0.8;"/>
   </g>
   <g id="Poly3DCollection_17">
    <path clip-path="url(#p42e06e65d6)" d="M 38.358681 195.890643 
L 52.659458 186.908344 
L 74.842267 192.073228 
L 60.676524 201.155892 
z
" style="fill:#74081d;fill-opacity:0.8;"/>
    <path clip-path="url(#p42e06e65d6)" d="M 52.659458 186.908344 
L 46.948555 58.089135 
L 70.234671 62.767829 
L 74.842267 192.073228 
z
" style="fill:#5d0618;fill-opacity:0.8;"/>
    <path clip-path="url(#p42e06e65d6)" d="M 38.358681 195.890643 
L 31.854002 66.227596 
L 46.948555 58.089135 
L 52.659458 186.908344 
z
" style="fill:#ba0c2f;fill-opacity:0.8;"/>
    <path clip-path="url(#p42e06e65d6)" d="M 60.676524 201.155892 
L 74.842267 192.073228 
L 70.234671 62.767829 
L 55.288719 71.001923 
z
" style="fill:#5d0618;fill-opacity:0.8;"/>
    <path clip-path="url(#p42e06e65d6)" d="M 38.358681 195.890643 
L 60.676524 201.155892 
L 55.288719 71.001923 
L 31.854002 66.227596 
z
" style="fill:#ba0c2f;fill-opacity:0.8;"/>
    <path clip-path="url(#p42e06e65d6)" d="M 31.854002 66.227596 
L 55.288719 71.001923 
L 70.234671 62.767829 
L 46.948555 58.089135 
z
" style="fill:#a30a29;fill-opacity:0.8;"/>
   </g>
  </g>
  <g id="patch_6">
   <path d="M 425.945455 262.8 
L 806.4 262.8 
L 806.4 -14.4 
L 425.945455 -14.4 
z
" style="fill:#ffffff;"/>
  </g>
  <g id="pane3d_4">
   <g id="patch_7">
    <path d="M 476.380584 201.548569 
L 585.268665 133.58541 
L 583.455794 3.718968 
L 468.496488 64.782468 
" style="fill:#f2f2f2;opacity:0.5;stroke:#f2f2f2;stroke-linejoin:miter;"/>
   </g>
  </g>
  <g id="pane3d_5">
   <g id="patch_8">
    <path d="M 585.268665 133.58541 
L 761.65712 171.581202 
L 769.037001 37.79869 
L 583.455794 3.718968 
" style="fill:#e6e6e6;opacity:0.5;stroke:#e6e6e6;stroke-linejoin:miter;"/>
   </g>
  </g>
  <g id="pane3d_6">
   <g id="patch_9">
    <path d="M 476.380584 201.548569 
L 661.965072 245.80086 
L 761.65712 171.581202 
L 585.268665 133.58541 
" style="fill:#ececec;opacity:0.5;stroke:#ececec;stroke-linejoin:miter;"/>
   </g>
  </g>
  <g id="axis3d_4">
   <g id="line2d_15">
    <path d="M 476.380584 201.548569 
L 661.965072 245.80086 
" style="fill:none;stroke:#000000;stroke-linecap:square;stroke-width:0.8;"/>
   </g>
   <g id="Line3DCollection_4">
    <path d="M 498.841271 206.90428 
L 606.679397 138.19749 
L 605.9393 7.847789 
" style="fill:none;stroke:#b0b0b0;stroke-width:0.8;"/>
    <path d="M 544.057792 217.686079 
L 649.729469 147.470895 
L 651.182353 16.156123 
" style="fill:none;stroke:#b0b0b0;stroke-width:0.8;"/>
    <path d="M 590.310744 228.715013 
L 693.693551 156.941187 
L 697.435637 24.649974 
" style="fill:none;stroke:#b0b0b0;stroke-width:0.8;"/>
    <path d="M 637.636176 239.999678 
L 738.601063 166.614702 
L 744.733372 33.335625 
" style="fill:none;stroke:#b0b0b0;stroke-width:0.8;"/>
   </g>
   <g id="xtick_12">
    <g id="line2d_16">
     <path d="M 499.770538 206.312217 
L 496.979262 208.09062 
" style="fill:none;stroke:#000000;stroke-linecap:square;stroke-width:0.8;"/>
    </g>
    <g id="text_13">
     <!-- 00 -->
     <g transform="translate(479.875817 237.14703)rotate(-45)scale(0.14 -0.14)">
      <use transform="scale(0.996264)" xlink:href="#CMR17-48"/>
      <use transform="translate(45.690477 0)scale(0.996264)" xlink:href="#CMR17-48"/>
     </g>
    </g>
   </g>
   <g id="xtick_13">
    <g id="line2d_17">
     <path d="M 544.969128 217.080527 
L 542.231671 218.899473 
" style="fill:none;stroke:#000000;stroke-linecap:square;stroke-width:0.8;"/>
    </g>
    <g id="text_14">
     <!-- 01 -->
     <g transform="translate(525.088242 248.103782)rotate(-45)scale(0.14 -0.14)">
      <use transform="scale(0.996264)" xlink:href="#CMR17-48"/>
      <use transform="translate(45.690477 0)scale(0.996264)" xlink:href="#CMR17-49"/>
     </g>
    </g>
   </g>
   <g id="xtick_14">
    <g id="line2d_18">
     <path d="M 591.20308 228.095506 
L 588.522658 229.956397 
" style="fill:none;stroke:#000000;stroke-linecap:square;stroke-width:0.8;"/>
    </g>
    <g id="text_15">
     <!-- 10 -->
     <g transform="translate(571.338855 259.312128)rotate(-45)scale(0.14 -0.14)">
      <use transform="scale(0.996264)" xlink:href="#CMR17-49"/>
      <use transform="translate(45.690477 0)scale(0.996264)" xlink:href="#CMR17-48"/>
     </g>
    </g>
   </g>
   <g id="xtick_15">
    <g id="line2d_19">
     <path d="M 638.50838 239.365727 
L 635.888391 241.270032 
" style="fill:none;stroke:#000000;stroke-linecap:square;stroke-width:0.8;"/>
    </g>
    <g id="text_16">
     <!-- 11 -->
     <g transform="translate(618.66383 270.780834)rotate(-45)scale(0.14 -0.14)">
      <use transform="scale(0.996264)" xlink:href="#CMR17-49"/>
      <use transform="translate(45.690477 0)scale(0.996264)" xlink:href="#CMR17-49"/>
     </g>
    </g>
   </g>
  </g>
  <g id="axis3d_5">
   <g id="line2d_20">
    <path d="M 761.65712 171.581202 
L 661.965072 245.80086 
" style="fill:none;stroke:#000000;stroke-linecap:square;stroke-width:0.8;"/>
   </g>
   <g id="Line3DCollection_5">
    <path d="M 484.000685 56.547028 
L 491.016499 192.413474 
L 675.403872 235.795817 
" style="fill:none;stroke:#b0b0b0;stroke-width:0.8;"/>
    <path d="M 513.777478 40.730342 
L 519.168861 174.842005 
L 701.219492 216.576366 
" style="fill:none;stroke:#b0b0b0;stroke-width:0.8;"/>
    <path d="M 542.401344 25.526062 
L 546.284836 157.917404 
L 726.04244 198.095948 
" style="fill:none;stroke:#b0b0b0;stroke-width:0.8;"/>
    <path d="M 569.937971 10.899296 
L 572.420618 141.604597 
L 749.928893 180.312741 
" style="fill:none;stroke:#b0b0b0;stroke-width:0.8;"/>
   </g>
   <g id="xtick_16">
    <g id="line2d_21">
     <path d="M 673.861052 235.432825 
L 678.492943 236.522608 
" style="fill:none;stroke:#000000;stroke-linecap:square;stroke-width:0.8;"/>
    </g>
    <g id="text_17">
     <!-- 00 -->
     <g transform="translate(689.195824 248.348363)rotate(-337.5)scale(0.14 -0.14)">
      <use transform="scale(0.996264)" xlink:href="#CMR17-48"/>
      <use transform="translate(45.690477 0)scale(0.996264)" xlink:href="#CMR17-48"/>
     </g>
    </g>
   </g>
   <g id="xtick_17">
    <g id="line2d_22">
     <path d="M 699.697534 216.227463 
L 704.266725 217.274932 
" style="fill:none;stroke:#000000;stroke-linecap:square;stroke-width:0.8;"/>
    </g>
    <g id="text_18">
     <!-- 01 -->
     <g transform="translate(714.749375 228.903937)rotate(-337.5)scale(0.14 -0.14)">
      <use transform="scale(0.996264)" xlink:href="#CMR17-48"/>
      <use transform="translate(45.690477 0)scale(0.996264)" xlink:href="#CMR17-49"/>
     </g>
    </g>
   </g>
   <g id="xtick_18">
    <g id="line2d_23">
     <path d="M 724.540896 197.76033 
L 729.048738 198.767901 
" style="fill:none;stroke:#000000;stroke-linecap:square;stroke-width:0.8;"/>
    </g>
    <g id="text_19">
     <!-- 10 -->
     <g transform="translate(739.320787 210.206849)rotate(-337.5)scale(0.14 -0.14)">
      <use transform="scale(0.996264)" xlink:href="#CMR17-49"/>
      <use transform="translate(45.690477 0)scale(0.996264)" xlink:href="#CMR17-48"/>
     </g>
    </g>
   </g>
   <g id="xtick_19">
    <g id="line2d_24">
     <path d="M 748.44732 179.989663 
L 752.895146 180.959573 
" style="fill:none;stroke:#000000;stroke-linecap:square;stroke-width:0.8;"/>
    </g>
    <g id="text_20">
     <!-- 11 -->
     <g transform="translate(762.965613 192.214827)rotate(-337.5)scale(0.14 -0.14)">
      <use transform="scale(0.996264)" xlink:href="#CMR17-49"/>
      <use transform="translate(45.690477 0)scale(0.996264)" xlink:href="#CMR17-49"/>
     </g>
    </g>
   </g>
  </g>
  <g id="axis3d_6">
   <g id="line2d_25">
    <path d="M 761.65712 171.581202 
L 769.037001 37.79869 
" style="fill:none;stroke:#000000;stroke-linecap:square;stroke-width:0.8;"/>
   </g>
   <g id="text_21">
    <!-- Im[$\rho$] -->
    <defs>
     <path d="M 19.703125 60.90625 
C 19.703125 65.390625 20.90625 65.390625 28.09375 65.390625 
L 28.09375 68 
C 24.90625 67.796875 19.796875 67.796875 16.40625 67.796875 
C 13 67.796875 7.90625 67.796875 4.703125 68 
L 4.703125 65.390625 
C 11.90625 65.390625 13.09375 65.390625 13.09375 60.90625 
L 13.09375 7.078125 
C 13.09375 2.59375 11.90625 2.59375 4.703125 2.59375 
L 4.703125 0 
C 7.90625 0.1875 13 0.1875 16.40625 0.1875 
C 19.796875 0.1875 24.90625 0.1875 28.09375 0 
L 28.09375 2.59375 
C 20.90625 2.59375 19.703125 2.59375 19.703125 7.078125 
z
" id="CMR17-73"/>
     <path d="M 67.59375 30.53125 
C 67.59375 35.5625 66.703125 44 54.796875 44 
C 48 44 43.296875 39.375 41.5 33.953125 
L 41.40625 33.953125 
C 40.203125 42.1875 34.296875 44 28.703125 44 
C 20.796875 44 16.703125 37.875 15.203125 33.84375 
L 15.09375 33.84375 
L 15.09375 44 
L 3.296875 42.890625 
L 3.296875 40.28125 
C 9.203125 40.28125 10.09375 39.6875 10.09375 34.859375 
L 10.09375 6.921875 
C 10.09375 3.09375 9.703125 2.59375 3.296875 2.59375 
L 3.296875 0 
C 5.703125 0.1875 10.09375 0.1875 12.703125 0.1875 
C 15.296875 0.1875 19.796875 0.1875 22.203125 0 
L 22.203125 2.59375 
C 15.796875 2.59375 15.40625 3 15.40625 6.921875 
L 15.40625 26.21875 
C 15.40625 35.453125 21 42.390625 28 42.390625 
C 35.40625 42.390625 36.203125 35.765625 36.203125 30.9375 
L 36.203125 6.921875 
C 36.203125 3.09375 35.796875 2.59375 29.40625 2.59375 
L 29.40625 0 
C 31.796875 0.1875 36.203125 0.1875 38.796875 0.1875 
C 41.40625 0.1875 45.90625 0.1875 48.296875 0 
L 48.296875 2.59375 
C 41.90625 2.59375 41.5 3 41.5 6.921875 
L 41.5 26.21875 
C 41.5 35.453125 47.09375 42.390625 54.09375 42.390625 
C 61.5 42.390625 62.296875 35.765625 62.296875 30.9375 
L 62.296875 6.921875 
C 62.296875 3.09375 61.90625 2.59375 55.5 2.59375 
L 55.5 0 
C 57.90625 0.1875 62.296875 0.1875 64.90625 0.1875 
C 67.5 0.1875 72 0.1875 74.40625 0 
L 74.40625 2.59375 
C 68 2.59375 67.59375 3 67.59375 6.921875 
z
" id="CMR17-109"/>
    </defs>
    <g transform="translate(809.026865 118.025317)rotate(-86.842577)scale(0.14 -0.14)">
     <use transform="scale(0.996264)" xlink:href="#CMR17-73"/>
     <use transform="translate(32.638409 0)scale(0.996264)" xlink:href="#CMR17-109"/>
     <use transform="translate(109.557999 0)scale(0.996264)" xlink:href="#CMR17-91"/>
     <use transform="translate(134.429058 0)scale(0.996264)" xlink:href="#CMMI12-26"/>
     <use transform="translate(184.74343 0)scale(0.996264)" xlink:href="#CMR17-93"/>
    </g>
   </g>
   <g id="Line3DCollection_6">
    <path d="M 761.831662 168.417094 
L 585.225697 130.507382 
L 476.194429 198.319328 
" style="fill:none;stroke:#b0b0b0;stroke-width:0.8;"/>
    <path d="M 764.571499 118.749324 
L 584.551803 82.232408 
L 473.270328 147.594693 
" style="fill:none;stroke:#b0b0b0;stroke-width:0.8;"/>
    <path d="M 767.420304 67.106176 
L 583.852261 32.120201 
L 470.225965 94.78386 
" style="fill:none;stroke:#b0b0b0;stroke-width:0.8;"/>
   </g>
   <g id="xtick_20">
    <g id="line2d_26">
     <path d="M 760.358123 168.100788 
L 764.781807 169.050363 
" style="fill:none;stroke:#000000;stroke-linecap:square;stroke-width:0.8;"/>
    </g>
    <g id="text_22">
     <!-- $0.0$ -->
     <g transform="translate(771.63858 176.162906)scale(0.14 -0.14)">
      <use transform="scale(0.996264)" xlink:href="#CMR17-48"/>
      <use transform="translate(45.690477 0)scale(0.996264)" xlink:href="#CMMI12-58"/>
      <use transform="translate(72.787654 0)scale(0.996264)" xlink:href="#CMR17-48"/>
     </g>
    </g>
   </g>
   <g id="xtick_21">
    <g id="line2d_27">
     <path d="M 763.068271 118.444394 
L 767.581144 119.359829 
" style="fill:none;stroke:#000000;stroke-linecap:square;stroke-width:0.8;"/>
    </g>
    <g id="text_23">
     <!-- $0.2$ -->
     <g transform="translate(774.733043 126.564978)scale(0.14 -0.14)">
      <use transform="scale(0.996264)" xlink:href="#CMR17-48"/>
      <use transform="translate(45.690477 0)scale(0.996264)" xlink:href="#CMMI12-58"/>
      <use transform="translate(72.787654 0)scale(0.996264)" xlink:href="#CMR17-50"/>
     </g>
    </g>
   </g>
   <g id="xtick_22">
    <g id="line2d_28">
     <path d="M 765.886168 66.813787 
L 770.491897 67.691587 
" style="fill:none;stroke:#000000;stroke-linecap:square;stroke-width:0.8;"/>
    </g>
    <g id="text_24">
     <!-- $0.4$ -->
     <g transform="translate(777.950307 74.998809)scale(0.14 -0.14)">
      <use transform="scale(0.996264)" xlink:href="#CMR17-48"/>
      <use transform="translate(45.690477 0)scale(0.996264)" xlink:href="#CMMI12-58"/>
      <use transform="translate(72.787654 0)scale(0.996264)" xlink:href="#CMR17-52"/>
     </g>
    </g>
   </g>
  </g>
  <g id="axes_2">
   <g id="Poly3DCollection_18">
    <path clip-path="url(#p46ed6f1e65)" d="M 589.589752 136.870561 
L 589.582299 136.264686 
L 610.979263 140.882976 
L 610.981703 141.490936 
z
" style="fill:#065d4c;fill-opacity:0.8;"/>
    <path clip-path="url(#p46ed6f1e65)" d="M 576.806042 144.90411 
L 576.79549 144.294617 
L 589.582299 136.264686 
L 589.589752 136.870561 
z
" style="fill:#0cba97;fill-opacity:0.8;"/>
    <path clip-path="url(#p46ed6f1e65)" d="M 576.806042 144.90411 
L 589.589752 136.870561 
L 610.981703 141.490936 
L 598.326359 149.609308 
z
" style="fill:#08745e;fill-opacity:0.8;"/>
    <path clip-path="url(#p46ed6f1e65)" d="M 576.79549 144.294617 
L 598.32088 148.997712 
L 610.979263 140.882976 
L 589.582299 136.264686 
z
" style="fill:#0aa384;fill-opacity:0.8;"/>
    <path clip-path="url(#p46ed6f1e65)" d="M 598.326359 149.609308 
L 610.981703 141.490936 
L 610.979263 140.882976 
L 598.32088 148.997712 
z
" style="fill:#065d4c;fill-opacity:0.8;"/>
    <path clip-path="url(#p46ed6f1e65)" d="M 576.806042 144.90411 
L 598.326359 149.609308 
L 598.32088 148.997712 
L 576.79549 144.294617 
z
" style="fill:#0cba97;fill-opacity:0.8;"/>
   </g>
   <g id="Poly3DCollection_19">
    <path clip-path="url(#p46ed6f1e65)" d="M 632.599086 146.160001 
L 632.598184 146.365482 
L 654.442819 151.08472 
L 654.445483 150.87853 
z
" style="fill:#0cba97;fill-opacity:0.8;"/>
    <path clip-path="url(#p46ed6f1e65)" d="M 620.07555 154.364548 
L 620.07565 154.571259 
L 632.598184 146.365482 
L 632.599086 146.160001 
z
" style="fill:#065d4c;fill-opacity:0.8;"/>
    <path clip-path="url(#p46ed6f1e65)" d="M 620.07565 154.571259 
L 642.055601 159.378057 
L 654.442819 151.08472 
L 632.598184 146.365482 
z
" style="fill:#0aa384;fill-opacity:0.8;"/>
    <path clip-path="url(#p46ed6f1e65)" d="M 620.07555 154.364548 
L 632.599086 146.160001 
L 654.445483 150.87853 
L 642.057284 159.17063 
z
" style="fill:#08745e;fill-opacity:0.8;"/>
    <path clip-path="url(#p46ed6f1e65)" d="M 642.057284 159.17063 
L 654.445483 150.87853 
L 654.442819 151.08472 
L 642.055601 159.378057 
z
" style="fill:#0cba97;fill-opacity:0.8;"/>
    <path clip-path="url(#p46ed6f1e65)" d="M 620.07555 154.364548 
L 642.057284 159.17063 
L 642.055601 159.378057 
L 620.07565 154.571259 
z
" style="fill:#065d4c;fill-opacity:0.8;"/>
   </g>
   <g id="Poly3DCollection_20">
    <path clip-path="url(#p46ed6f1e65)" d="M 563.787181 153.085432 
L 563.794617 153.416693 
L 585.441646 158.210218 
L 585.436984 157.877812 
z
" style="fill:#0cba97;fill-opacity:0.8;"/>
    <path clip-path="url(#p46ed6f1e65)" d="M 550.526622 161.418643 
L 550.535857 161.751891 
L 563.794617 153.416693 
L 563.787181 153.085432 
z
" style="fill:#065d4c;fill-opacity:0.8;"/>
    <path clip-path="url(#p46ed6f1e65)" d="M 550.535857 161.751891 
L 572.313452 166.635053 
L 585.441646 158.210218 
L 563.794617 153.416693 
z
" style="fill:#0aa384;fill-opacity:0.8;"/>
    <path clip-path="url(#p46ed6f1e65)" d="M 550.526622 161.418643 
L 563.787181 153.085432 
L 585.436984 157.877812 
L 572.307024 166.300649 
z
" style="fill:#08745e;fill-opacity:0.8;"/>
    <path clip-path="url(#p46ed6f1e65)" d="M 572.307024 166.300649 
L 585.436984 157.877812 
L 585.441646 158.210218 
L 572.313452 166.635053 
z
" style="fill:#0cba97;fill-opacity:0.8;"/>
    <path clip-path="url(#p46ed6f1e65)" d="M 550.526622 161.418643 
L 572.307024 166.300649 
L 572.313452 166.635053 
L 550.535857 161.751891 
z
" style="fill:#065d4c;fill-opacity:0.8;"/>
   </g>
   <g id="Poly3DCollection_21">
    <path clip-path="url(#p46ed6f1e65)" d="M 676.524552 155.647313 
L 676.518229 155.940515 
L 698.831105 160.761374 
L 698.840031 160.467158 
z
" style="fill:#0cba97;fill-opacity:0.8;"/>
    <path clip-path="url(#p46ed6f1e65)" d="M 664.275312 164.028376 
L 664.270346 164.323338 
L 676.518229 155.940515 
L 676.524552 155.647313 
z
" style="fill:#065d4c;fill-opacity:0.8;"/>
    <path clip-path="url(#p46ed6f1e65)" d="M 664.270346 164.323338 
L 686.725861 169.234607 
L 698.831105 160.761374 
L 676.518229 155.940515 
z
" style="fill:#0aa384;fill-opacity:0.8;"/>
    <path clip-path="url(#p46ed6f1e65)" d="M 664.275312 164.028376 
L 676.524552 155.647313 
L 698.840031 160.467158 
L 686.733464 168.938622 
z
" style="fill:#08745e;fill-opacity:0.8;"/>
    <path clip-path="url(#p46ed6f1e65)" d="M 686.733464 168.938622 
L 698.840031 160.467158 
L 698.831105 160.761374 
L 686.725861 169.234607 
z
" style="fill:#0cba97;fill-opacity:0.8;"/>
    <path clip-path="url(#p46ed6f1e65)" d="M 664.275312 164.028376 
L 686.733464 168.938622 
L 686.725861 169.234607 
L 664.270346 164.323338 
z
" style="fill:#065d4c;fill-opacity:0.8;"/>
   </g>
   <g id="Poly3DCollection_22">
    <path clip-path="url(#p46ed6f1e65)" d="M 607.319177 162.721633 
L 607.320378 162.940775 
L 629.436821 167.837631 
L 629.437522 167.617728 
z
" style="fill:#0cba97;fill-opacity:0.8;"/>
    <path clip-path="url(#p46ed6f1e65)" d="M 594.323412 171.23555 
L 594.32575 171.456011 
L 607.320378 162.940775 
L 607.319177 162.721633 
z
" style="fill:#065d4c;fill-opacity:0.8;"/>
    <path clip-path="url(#p46ed6f1e65)" d="M 594.32575 171.456011 
L 616.580054 176.445439 
L 629.436821 167.837631 
L 607.320378 162.940775 
z
" style="fill:#0aa384;fill-opacity:0.8;"/>
    <path clip-path="url(#p46ed6f1e65)" d="M 594.323412 171.23555 
L 607.319177 162.721633 
L 629.437522 167.617728 
L 616.579642 176.224212 
z
" style="fill:#08745e;fill-opacity:0.8;"/>
    <path clip-path="url(#p46ed6f1e65)" d="M 616.579642 176.224212 
L 629.437522 167.617728 
L 629.436821 167.837631 
L 616.580054 176.445439 
z
" style="fill:#0cba97;fill-opacity:0.8;"/>
    <path clip-path="url(#p46ed6f1e65)" d="M 594.323412 171.23555 
L 616.579642 176.224212 
L 616.580054 176.445439 
L 594.32575 171.456011 
z
" style="fill:#065d4c;fill-opacity:0.8;"/>
   </g>
   <g id="Poly3DCollection_23">
    <path clip-path="url(#p46ed6f1e65)" d="M 721.395737 165.338888 
L 721.395737 165.338888 
L 744.19557 170.263347 
L 744.19557 170.263347 
z
" style="fill:#065d4c;fill-opacity:0.8;"/>
    <path clip-path="url(#p46ed6f1e65)" d="M 709.435654 173.902225 
L 709.435654 173.902225 
L 721.395737 165.338888 
L 721.395737 165.338888 
z
" style="fill:#065d4c;fill-opacity:0.8;"/>
    <path clip-path="url(#p46ed6f1e65)" d="M 709.435654 173.902225 
L 721.395737 165.338888 
L 744.19557 170.263347 
L 732.385882 178.920059 
z
" style="fill:#08745e;fill-opacity:0.8;"/>
    <path clip-path="url(#p46ed6f1e65)" d="M 709.435654 173.902225 
L 732.385882 178.920059 
L 744.19557 170.263347 
L 721.395737 165.338888 
z
" style="fill:#0aa384;fill-opacity:0.8;"/>
    <path clip-path="url(#p46ed6f1e65)" d="M 732.385882 178.920059 
L 744.19557 170.263347 
L 744.19557 170.263347 
L 732.385882 178.920059 
z
" style="fill:#065d4c;fill-opacity:0.8;"/>
    <path clip-path="url(#p46ed6f1e65)" d="M 709.435654 173.902225 
L 732.385882 178.920059 
L 732.385882 178.920059 
L 709.435654 173.902225 
z
" style="fill:#065d4c;fill-opacity:0.8;"/>
   </g>
   <g id="Poly3DCollection_24">
    <path clip-path="url(#p46ed6f1e65)" d="M 537.01757 169.908011 
L 537.031799 170.337741 
L 558.940268 175.313405 
L 558.929681 174.882182 
z
" style="fill:#0cba97;fill-opacity:0.8;"/>
    <path clip-path="url(#p46ed6f1e65)" d="M 523.252975 178.557968 
L 523.269684 178.990288 
L 537.031799 170.337741 
L 537.01757 169.908011 
z
" style="fill:#065d4c;fill-opacity:0.8;"/>
    <path clip-path="url(#p46ed6f1e65)" d="M 523.269684 178.990288 
L 545.31092 184.060763 
L 558.940268 175.313405 
L 537.031799 170.337741 
z
" style="fill:#0aa384;fill-opacity:0.8;"/>
    <path clip-path="url(#p46ed6f1e65)" d="M 523.252975 178.557968 
L 537.01757 169.908011 
L 558.929681 174.882182 
L 545.297896 183.626939 
z
" style="fill:#08745e;fill-opacity:0.8;"/>
    <path clip-path="url(#p46ed6f1e65)" d="M 545.297896 183.626939 
L 558.929681 174.882182 
L 558.940268 175.313405 
L 545.31092 184.060763 
z
" style="fill:#0cba97;fill-opacity:0.8;"/>
    <path clip-path="url(#p46ed6f1e65)" d="M 523.252975 178.557968 
L 545.297896 183.626939 
L 545.31092 184.060763 
L 523.269684 178.990288 
z
" style="fill:#065d4c;fill-opacity:0.8;"/>
   </g>
   <g id="Poly3DCollection_25">
    <path clip-path="url(#p46ed6f1e65)" d="M 651.795864 172.566949 
L 651.795864 172.566949 
L 674.398129 177.570165 
L 674.398129 177.570165 
z
" style="fill:#065d4c;fill-opacity:0.8;"/>
    <path clip-path="url(#p46ed6f1e65)" d="M 639.079655 181.267517 
L 639.079655 181.267517 
L 651.795864 172.566949 
L 651.795864 172.566949 
z
" style="fill:#065d4c;fill-opacity:0.8;"/>
    <path clip-path="url(#p46ed6f1e65)" d="M 639.079655 181.267517 
L 651.795864 172.566949 
L 674.398129 177.570165 
L 661.827479 186.366367 
z
" style="fill:#08745e;fill-opacity:0.8;"/>
    <path clip-path="url(#p46ed6f1e65)" d="M 639.079655 181.267517 
L 661.827479 186.366367 
L 674.398129 177.570165 
L 651.795864 172.566949 
z
" style="fill:#0aa384;fill-opacity:0.8;"/>
    <path clip-path="url(#p46ed6f1e65)" d="M 661.827479 186.366367 
L 674.398129 177.570165 
L 674.398129 177.570165 
L 661.827479 186.366367 
z
" style="fill:#065d4c;fill-opacity:0.8;"/>
    <path clip-path="url(#p46ed6f1e65)" d="M 639.079655 181.267517 
L 661.827479 186.366367 
L 661.827479 186.366367 
L 639.079655 181.267517 
z
" style="fill:#065d4c;fill-opacity:0.8;"/>
   </g>
   <g id="Poly3DCollection_26">
    <path clip-path="url(#p46ed6f1e65)" d="M 581.081453 179.910757 
L 581.081453 179.910757 
L 603.476841 184.994635 
L 603.476841 184.994635 
z
" style="fill:#065d4c;fill-opacity:0.8;"/>
    <path clip-path="url(#p46ed6f1e65)" d="M 567.586237 188.75188 
L 567.586237 188.75188 
L 581.081453 179.910757 
L 581.081453 179.910757 
z
" style="fill:#065d4c;fill-opacity:0.8;"/>
    <path clip-path="url(#p46ed6f1e65)" d="M 567.586237 188.75188 
L 581.081453 179.910757 
L 603.476841 184.994635 
L 590.122053 193.933726 
z
" style="fill:#08745e;fill-opacity:0.8;"/>
    <path clip-path="url(#p46ed6f1e65)" d="M 567.586237 188.75188 
L 590.122053 193.933726 
L 603.476841 184.994635 
L 581.081453 179.910757 
z
" style="fill:#0aa384;fill-opacity:0.8;"/>
    <path clip-path="url(#p46ed6f1e65)" d="M 590.122053 193.933726 
L 603.476841 184.994635 
L 603.476841 184.994635 
L 590.122053 193.933726 
z
" style="fill:#065d4c;fill-opacity:0.8;"/>
    <path clip-path="url(#p46ed6f1e65)" d="M 567.586237 188.75188 
L 590.122053 193.933726 
L 590.122053 193.933726 
L 567.586237 188.75188 
z
" style="fill:#065d4c;fill-opacity:0.8;"/>
   </g>
   <g id="Poly3DCollection_27">
    <path clip-path="url(#p46ed6f1e65)" d="M 697.248332 182.628264 
L 697.257291 182.329389 
L 720.362323 187.442237 
L 720.350573 187.742154 
z
" style="fill:#065d4c;fill-opacity:0.8;"/>
    <path clip-path="url(#p46ed6f1e65)" d="M 684.827231 191.521687 
L 684.834796 191.221004 
L 697.257291 182.329389 
L 697.248332 182.628264 
z
" style="fill:#0cba97;fill-opacity:0.8;"/>
    <path clip-path="url(#p46ed6f1e65)" d="M 684.827231 191.521687 
L 697.248332 182.628264 
L 720.350573 187.742154 
L 708.083117 196.734418 
z
" style="fill:#08745e;fill-opacity:0.8;"/>
    <path clip-path="url(#p46ed6f1e65)" d="M 684.834796 191.221004 
L 708.093511 196.432685 
L 720.362323 187.442237 
L 697.257291 182.329389 
z
" style="fill:#0aa384;fill-opacity:0.8;"/>
    <path clip-path="url(#p46ed6f1e65)" d="M 708.083117 196.734418 
L 720.350573 187.742154 
L 720.362323 187.442237 
L 708.093511 196.432685 
z
" style="fill:#065d4c;fill-opacity:0.8;"/>
    <path clip-path="url(#p46ed6f1e65)" d="M 684.827231 191.521687 
L 708.083117 196.734418 
L 708.093511 196.432685 
L 684.834796 191.221004 
z
" style="fill:#0cba97;fill-opacity:0.8;"/>
   </g>
   <g id="Poly3DCollection_28">
    <path clip-path="url(#p46ed6f1e65)" d="M 509.225517 187.373114 
L 509.225517 187.373114 
L 531.404341 192.53962 
L 531.404341 192.53962 
z
" style="fill:#065d4c;fill-opacity:0.8;"/>
    <path clip-path="url(#p46ed6f1e65)" d="M 494.927592 196.358227 
L 494.927592 196.358227 
L 509.225517 187.373114 
L 509.225517 187.373114 
z
" style="fill:#065d4c;fill-opacity:0.8;"/>
    <path clip-path="url(#p46ed6f1e65)" d="M 494.927592 196.358227 
L 509.225517 187.373114 
L 531.404341 192.53962 
L 517.241403 201.625111 
z
" style="fill:#08745e;fill-opacity:0.8;"/>
    <path clip-path="url(#p46ed6f1e65)" d="M 494.927592 196.358227 
L 517.241403 201.625111 
L 531.404341 192.53962 
L 509.225517 187.373114 
z
" style="fill:#0aa384;fill-opacity:0.8;"/>
    <path clip-path="url(#p46ed6f1e65)" d="M 517.241403 201.625111 
L 531.404341 192.53962 
L 531.404341 192.53962 
L 517.241403 201.625111 
z
" style="fill:#065d4c;fill-opacity:0.8;"/>
    <path clip-path="url(#p46ed6f1e65)" d="M 494.927592 196.358227 
L 517.241403 201.625111 
L 517.241403 201.625111 
L 494.927592 196.358227 
z
" style="fill:#065d4c;fill-opacity:0.8;"/>
   </g>
   <g id="Poly3DCollection_29">
    <path clip-path="url(#p46ed6f1e65)" d="M 626.119885 190.134732 
L 626.12031 189.911354 
L 649.017181 195.107828 
L 649.014717 195.331986 
z
" style="fill:#065d4c;fill-opacity:0.8;"/>
    <path clip-path="url(#p46ed6f1e65)" d="M 612.909487 199.173429 
L 612.908737 198.948698 
L 626.12031 189.911354 
L 626.119885 190.134732 
z
" style="fill:#0cba97;fill-opacity:0.8;"/>
    <path clip-path="url(#p46ed6f1e65)" d="M 612.909487 199.173429 
L 626.119885 190.134732 
L 649.014717 195.331986 
L 635.952779 204.471963 
z
" style="fill:#08745e;fill-opacity:0.8;"/>
    <path clip-path="url(#p46ed6f1e65)" d="M 612.908737 198.948698 
L 635.954094 204.246446 
L 649.017181 195.107828 
L 626.12031 189.911354 
z
" style="fill:#0aa384;fill-opacity:0.8;"/>
    <path clip-path="url(#p46ed6f1e65)" d="M 635.952779 204.471963 
L 649.014717 195.331986 
L 649.017181 195.107828 
L 635.954094 204.246446 
z
" style="fill:#065d4c;fill-opacity:0.8;"/>
    <path clip-path="url(#p46ed6f1e65)" d="M 612.909487 199.173429 
L 635.952779 204.471963 
L 635.954094 204.246446 
L 612.908737 198.948698 
z
" style="fill:#0cba97;fill-opacity:0.8;"/>
   </g>
   <g id="Poly3DCollection_30">
    <path clip-path="url(#p46ed6f1e65)" d="M 553.830429 197.763725 
L 553.818687 197.325602 
L 576.500098 202.606743 
L 576.507938 203.046399 
z
" style="fill:#065d4c;fill-opacity:0.8;"/>
    <path clip-path="url(#p46ed6f1e65)" d="M 539.806407 206.951286 
L 539.792086 206.510504 
L 553.818687 197.325602 
L 553.830429 197.763725 
z
" style="fill:#0cba97;fill-opacity:0.8;"/>
    <path clip-path="url(#p46ed6f1e65)" d="M 539.806407 206.951286 
L 553.830429 197.763725 
L 576.507938 203.046399 
L 562.62687 212.337758 
z
" style="fill:#08745e;fill-opacity:0.8;"/>
    <path clip-path="url(#p46ed6f1e65)" d="M 539.792086 206.510504 
L 562.616501 211.895433 
L 576.500098 202.606743 
L 553.818687 197.325602 
z
" style="fill:#0aa384;fill-opacity:0.8;"/>
    <path clip-path="url(#p46ed6f1e65)" d="M 562.62687 212.337758 
L 576.507938 203.046399 
L 576.500098 202.606743 
L 562.616501 211.895433 
z
" style="fill:#065d4c;fill-opacity:0.8;"/>
    <path clip-path="url(#p46ed6f1e65)" d="M 539.806407 206.951286 
L 562.62687 212.337758 
L 562.616501 211.895433 
L 539.792086 206.510504 
z
" style="fill:#0cba97;fill-opacity:0.8;"/>
   </g>
   <g id="Poly3DCollection_31">
    <path clip-path="url(#p46ed6f1e65)" d="M 672.16556 200.587356 
L 672.169875 200.373903 
L 695.583069 205.687622 
L 695.576731 205.901822 
z
" style="fill:#065d4c;fill-opacity:0.8;"/>
    <path clip-path="url(#p46ed6f1e65)" d="M 659.256261 209.830324 
L 659.259513 209.615576 
L 672.169875 200.373903 
L 672.16556 200.587356 
z
" style="fill:#0cba97;fill-opacity:0.8;"/>
    <path clip-path="url(#p46ed6f1e65)" d="M 659.256261 209.830324 
L 672.16556 200.587356 
L 695.576731 205.901822 
L 682.824366 215.249533 
z
" style="fill:#08745e;fill-opacity:0.8;"/>
    <path clip-path="url(#p46ed6f1e65)" d="M 659.259513 209.615576 
L 682.829667 215.034032 
L 695.583069 205.687622 
L 672.169875 200.373903 
z
" style="fill:#0aa384;fill-opacity:0.8;"/>
    <path clip-path="url(#p46ed6f1e65)" d="M 682.824366 215.249533 
L 695.576731 205.901822 
L 695.583069 205.687622 
L 682.829667 215.034032 
z
" style="fill:#065d4c;fill-opacity:0.8;"/>
    <path clip-path="url(#p46ed6f1e65)" d="M 659.256261 209.830324 
L 682.824366 215.249533 
L 682.829667 215.034032 
L 659.259513 209.615576 
z
" style="fill:#0cba97;fill-opacity:0.8;"/>
   </g>
   <g id="Poly3DCollection_32">
    <path clip-path="url(#p46ed6f1e65)" d="M 599.441121 208.388631 
L 599.438119 208.04446 
L 622.634508 213.446057 
L 622.634326 213.791434 
z
" style="fill:#065d4c;fill-opacity:0.8;"/>
    <path clip-path="url(#p46ed6f1e65)" d="M 585.707156 217.785558 
L 585.70222 217.439296 
L 599.438119 208.04446 
L 599.441121 208.388631 
z
" style="fill:#0cba97;fill-opacity:0.8;"/>
    <path clip-path="url(#p46ed6f1e65)" d="M 585.707156 217.785558 
L 599.441121 208.388631 
L 622.634326 213.791434 
L 609.051726 223.29574 
z
" style="fill:#08745e;fill-opacity:0.8;"/>
    <path clip-path="url(#p46ed6f1e65)" d="M 585.70222 217.439296 
L 609.050016 222.948263 
L 622.634508 213.446057 
L 599.438119 208.04446 
z
" style="fill:#0aa384;fill-opacity:0.8;"/>
    <path clip-path="url(#p46ed6f1e65)" d="M 609.051726 223.29574 
L 622.634326 213.791434 
L 622.634508 213.446057 
L 609.050016 222.948263 
z
" style="fill:#065d4c;fill-opacity:0.8;"/>
    <path clip-path="url(#p46ed6f1e65)" d="M 585.707156 217.785558 
L 609.051726 223.29574 
L 609.050016 222.948263 
L 585.70222 217.439296 
z
" style="fill:#0cba97;fill-opacity:0.8;"/>
   </g>
   <g id="Poly3DCollection_33">
    <path clip-path="url(#p46ed6f1e65)" d="M 646.092 219.255845 
L 646.085638 219.896865 
L 669.806167 225.42619 
L 669.818693 224.782923 
z
" style="fill:#0cba97;fill-opacity:0.8;"/>
    <path clip-path="url(#p46ed6f1e65)" d="M 632.665146 228.869379 
L 632.662203 229.514298 
L 646.085638 219.896865 
L 646.092 219.255845 
z
" style="fill:#065d4c;fill-opacity:0.8;"/>
    <path clip-path="url(#p46ed6f1e65)" d="M 632.662203 229.514298 
L 656.542897 235.154762 
L 669.806167 225.42619 
L 646.085638 219.896865 
z
" style="fill:#0aa384;fill-opacity:0.8;"/>
    <path clip-path="url(#p46ed6f1e65)" d="M 632.665146 228.869379 
L 646.092 219.255845 
L 669.818693 224.782923 
L 656.552088 234.50758 
z
" style="fill:#08745e;fill-opacity:0.8;"/>
    <path clip-path="url(#p46ed6f1e65)" d="M 656.552088 234.50758 
L 669.818693 224.782923 
L 669.806167 225.42619 
L 656.542897 235.154762 
z
" style="fill:#0cba97;fill-opacity:0.8;"/>
    <path clip-path="url(#p46ed6f1e65)" d="M 632.665146 228.869379 
L 656.552088 234.50758 
L 656.542897 235.154762 
L 632.662203 229.514298 
z
" style="fill:#065d4c;fill-opacity:0.8;"/>
   </g>
   <g id="Poly3DCollection_34">
    <path clip-path="url(#p46ed6f1e65)" d="M 482.090403 197.702102 
L 660.291759 239.960351 
L 756.296565 168.996541 
L 586.590453 132.497317 
z
" style="fill-opacity:0.2;"/>
   </g>
  </g>
 </g>
 <defs>
  <clipPath id="p42e06e65d6">
   <rect height="277.2" width="380.454545" x="-30.6" y="-14.4"/>
  </clipPath>
  <clipPath id="p46ed6f1e65">
   <rect height="277.2" width="380.454545" x="425.945455" y="-14.4"/>
  </clipPath>
 </defs>
</svg>
