<?xml version="1.0" encoding="utf-8" standalone="no"?>
<!DOCTYPE svg PUBLIC "-//W3C//DTD SVG 1.1//EN"
  "http://www.w3.org/Graphics/SVG/1.1/DTD/svg11.dtd">
<!-- Created with matplotlib (https://matplotlib.org/) -->
<svg height="302.4pt" version="1.1" viewBox="0 0 820.8 302.4" width="820.8pt" xmlns="http://www.w3.org/2000/svg" xmlns:xlink="http://www.w3.org/1999/xlink">
 <defs>
  <style type="text/css">
*{stroke-linecap:butt;stroke-linejoin:round;}
  </style>
 </defs>
 <g id="figure_1">
  <g id="patch_1">
   <path d="M 0 302.4 
L 820.8 302.4 
L 820.8 0 
L 0 0 
z
" style="fill:#ffffff;"/>
  </g>
  <g id="patch_2">
   <path d="M -30.6 262.8 
L 349.854545 262.8 
L 349.854545 -14.4 
L -30.6 -14.4 
z
" style="fill:#ffffff;"/>
  </g>
  <g id="pane3d_1">
   <g id="patch_3">
    <path d="M 19.835129 201.548569 
L 128.723211 133.58541 
L 126.910339 3.718968 
L 11.951034 64.782468 
" style="fill:#f2f2f2;opacity:0.5;stroke:#f2f2f2;stroke-linejoin:miter;"/>
   </g>
  </g>
  <g id="pane3d_2">
   <g id="patch_4">
    <path d="M 128.723211 133.58541 
L 305.111665 171.581202 
L 312.491547 37.79869 
L 126.910339 3.718968 
" style="fill:#e6e6e6;opacity:0.5;stroke:#e6e6e6;stroke-linejoin:miter;"/>
   </g>
  </g>
  <g id="pane3d_3">
   <g id="patch_5">
    <path d="M 19.835129 201.548569 
L 205.419617 245.80086 
L 305.111665 171.581202 
L 128.723211 133.58541 
" style="fill:#ececec;opacity:0.5;stroke:#ececec;stroke-linejoin:miter;"/>
   </g>
  </g>
  <g id="axis3d_1">
   <g id="line2d_1">
    <path d="M 19.835129 201.548569 
L 205.419617 245.80086 
" style="fill:none;stroke:#000000;stroke-linecap:square;stroke-width:0.8;"/>
   </g>
   <g id="Line3DCollection_1">
    <path d="M 42.295817 206.90428 
L 150.133942 138.19749 
L 149.393845 7.847789 
" style="fill:none;stroke:#b0b0b0;stroke-width:0.8;"/>
    <path d="M 87.512337 217.686079 
L 193.184014 147.470895 
L 194.636898 16.156123 
" style="fill:none;stroke:#b0b0b0;stroke-width:0.8;"/>
    <path d="M 133.765289 228.715013 
L 237.148096 156.941187 
L 240.890183 24.649974 
" style="fill:none;stroke:#b0b0b0;stroke-width:0.8;"/>
    <path d="M 181.090721 239.999678 
L 282.055608 166.614702 
L 288.187917 33.335625 
" style="fill:none;stroke:#b0b0b0;stroke-width:0.8;"/>
   </g>
   <g id="xtick_1">
    <g id="line2d_2">
     <path d="M 43.225084 206.312217 
L 40.433807 208.09062 
" style="fill:none;stroke:#000000;stroke-linecap:square;stroke-width:0.8;"/>
    </g>
    <g id="text_1">
     <!-- 00 -->
     <defs>
      <path d="M 42 31.84375 
C 42 37.96875 41.90625 48.421875 37.703125 56.453125 
C 34 63.484375 28.09375 66 22.90625 66 
C 18.09375 66 12 63.78125 8.203125 56.5625 
C 4.203125 49.015625 3.796875 39.671875 3.796875 31.84375 
C 3.796875 26.109375 3.90625 17.375 7 9.734375 
C 11.296875 -0.609375 19 -2 22.90625 -2 
C 27.5 -2 34.5 -0.109375 38.59375 9.4375 
C 41.59375 16.375 42 24.5 42 31.84375 
z
M 22.90625 -0.40625 
C 16.5 -0.40625 12.703125 5.125 11.296875 12.75 
C 10.203125 18.6875 10.203125 27.328125 10.203125 32.953125 
C 10.203125 40.6875 10.203125 47.109375 11.5 53.234375 
C 13.40625 61.78125 19 64.390625 22.90625 64.390625 
C 27 64.390625 32.296875 61.671875 34.203125 53.4375 
C 35.5 47.71875 35.59375 40.984375 35.59375 32.953125 
C 35.59375 26.421875 35.59375 18.375 34.40625 12.453125 
C 32.296875 1.5 26.40625 -0.40625 22.90625 -0.40625 
z
" id="CMR17-48"/>
     </defs>
     <g transform="translate(23.330362 237.14703)rotate(-45)scale(0.14 -0.14)">
      <use transform="scale(0.996264)" xlink:href="#CMR17-48"/>
      <use transform="translate(45.690477 0)scale(0.996264)" xlink:href="#CMR17-48"/>
     </g>
    </g>
   </g>
   <g id="xtick_2">
    <g id="line2d_3">
     <path d="M 88.423674 217.080527 
L 85.686217 218.899473 
" style="fill:none;stroke:#000000;stroke-linecap:square;stroke-width:0.8;"/>
    </g>
    <g id="text_2">
     <!-- 01 -->
     <defs>
      <path d="M 26.59375 63.796875 
C 26.59375 65.890625 26.5 66 25.09375 66 
C 21.203125 61.359375 15.296875 59.890625 9.703125 59.6875 
C 9.40625 59.6875 8.90625 59.6875 8.796875 59.5 
C 8.703125 59.296875 8.703125 59.09375 8.703125 57 
C 11.796875 57 17 57.59375 21 59.984375 
L 21 7.296875 
C 21 3.796875 20.796875 2.59375 12.203125 2.59375 
L 9.203125 2.59375 
L 9.203125 0 
C 14 0.09375 19 0.1875 23.796875 0.1875 
C 28.59375 0.1875 33.59375 0.09375 38.40625 0 
L 38.40625 2.59375 
L 35.40625 2.59375 
C 26.796875 2.59375 26.59375 3.6875 26.59375 7.296875 
z
" id="CMR17-49"/>
     </defs>
     <g transform="translate(68.542787 248.103782)rotate(-45)scale(0.14 -0.14)">
      <use transform="scale(0.996264)" xlink:href="#CMR17-48"/>
      <use transform="translate(45.690477 0)scale(0.996264)" xlink:href="#CMR17-49"/>
     </g>
    </g>
   </g>
   <g id="xtick_3">
    <g id="line2d_4">
     <path d="M 134.657625 228.095506 
L 131.977203 229.956397 
" style="fill:none;stroke:#000000;stroke-linecap:square;stroke-width:0.8;"/>
    </g>
    <g id="text_3">
     <!-- 10 -->
     <g transform="translate(114.7934 259.312128)rotate(-45)scale(0.14 -0.14)">
      <use transform="scale(0.996264)" xlink:href="#CMR17-49"/>
      <use transform="translate(45.690477 0)scale(0.996264)" xlink:href="#CMR17-48"/>
     </g>
    </g>
   </g>
   <g id="xtick_4">
    <g id="line2d_5">
     <path d="M 181.962926 239.365727 
L 179.342936 241.270032 
" style="fill:none;stroke:#000000;stroke-linecap:square;stroke-width:0.8;"/>
    </g>
    <g id="text_4">
     <!-- 11 -->
     <g transform="translate(162.118375 270.780834)rotate(-45)scale(0.14 -0.14)">
      <use transform="scale(0.996264)" xlink:href="#CMR17-49"/>
      <use transform="translate(45.690477 0)scale(0.996264)" xlink:href="#CMR17-49"/>
     </g>
    </g>
   </g>
  </g>
  <g id="axis3d_2">
   <g id="line2d_6">
    <path d="M 305.111665 171.581202 
L 205.419617 245.80086 
" style="fill:none;stroke:#000000;stroke-linecap:square;stroke-width:0.8;"/>
   </g>
   <g id="Line3DCollection_2">
    <path d="M 27.455231 56.547028 
L 34.471044 192.413474 
L 218.858418 235.795817 
" style="fill:none;stroke:#b0b0b0;stroke-width:0.8;"/>
    <path d="M 57.232024 40.730342 
L 62.623407 174.842005 
L 244.674037 216.576366 
" style="fill:none;stroke:#b0b0b0;stroke-width:0.8;"/>
    <path d="M 85.85589 25.526062 
L 89.739382 157.917404 
L 269.496985 198.095948 
" style="fill:none;stroke:#b0b0b0;stroke-width:0.8;"/>
    <path d="M 113.392516 10.899296 
L 115.875164 141.604597 
L 293.383438 180.312741 
" style="fill:none;stroke:#b0b0b0;stroke-width:0.8;"/>
   </g>
   <g id="xtick_5">
    <g id="line2d_7">
     <path d="M 217.315598 235.432825 
L 221.947489 236.522608 
" style="fill:none;stroke:#000000;stroke-linecap:square;stroke-width:0.8;"/>
    </g>
    <g id="text_5">
     <!-- 00 -->
     <g transform="translate(232.650369 248.348363)rotate(-337.5)scale(0.14 -0.14)">
      <use transform="scale(0.996264)" xlink:href="#CMR17-48"/>
      <use transform="translate(45.690477 0)scale(0.996264)" xlink:href="#CMR17-48"/>
     </g>
    </g>
   </g>
   <g id="xtick_6">
    <g id="line2d_8">
     <path d="M 243.15208 216.227463 
L 247.72127 217.274932 
" style="fill:none;stroke:#000000;stroke-linecap:square;stroke-width:0.8;"/>
    </g>
    <g id="text_6">
     <!-- 01 -->
     <g transform="translate(258.203921 228.903937)rotate(-337.5)scale(0.14 -0.14)">
      <use transform="scale(0.996264)" xlink:href="#CMR17-48"/>
      <use transform="translate(45.690477 0)scale(0.996264)" xlink:href="#CMR17-49"/>
     </g>
    </g>
   </g>
   <g id="xtick_7">
    <g id="line2d_9">
     <path d="M 267.995442 197.76033 
L 272.503283 198.767901 
" style="fill:none;stroke:#000000;stroke-linecap:square;stroke-width:0.8;"/>
    </g>
    <g id="text_7">
     <!-- 10 -->
     <g transform="translate(282.775332 210.206849)rotate(-337.5)scale(0.14 -0.14)">
      <use transform="scale(0.996264)" xlink:href="#CMR17-49"/>
      <use transform="translate(45.690477 0)scale(0.996264)" xlink:href="#CMR17-48"/>
     </g>
    </g>
   </g>
   <g id="xtick_8">
    <g id="line2d_10">
     <path d="M 291.901865 179.989663 
L 296.349691 180.959573 
" style="fill:none;stroke:#000000;stroke-linecap:square;stroke-width:0.8;"/>
    </g>
    <g id="text_8">
     <!-- 11 -->
     <g transform="translate(306.420159 192.214827)rotate(-337.5)scale(0.14 -0.14)">
      <use transform="scale(0.996264)" xlink:href="#CMR17-49"/>
      <use transform="translate(45.690477 0)scale(0.996264)" xlink:href="#CMR17-49"/>
     </g>
    </g>
   </g>
  </g>
  <g id="axis3d_3">
   <g id="line2d_11">
    <path d="M 305.111665 171.581202 
L 312.491547 37.79869 
" style="fill:none;stroke:#000000;stroke-linecap:square;stroke-width:0.8;"/>
   </g>
   <g id="text_9">
    <!-- Re[$\rho$] -->
    <defs>
     <path d="M 39.203125 33.6875 
C 48.703125 35.59375 56.703125 42.015625 56.703125 50.046875 
C 56.703125 59.46875 46.09375 68 32.09375 68 
L 5.203125 68 
L 5.203125 65.390625 
C 12.09375 65.390625 13.203125 65.390625 13.203125 60.875 
L 13.203125 6.6875 
C 13.203125 2.1875 12.09375 2.1875 5.203125 2.1875 
L 5.203125 -0.40625 
C 8.09375 -0.203125 13.296875 -0.203125 16.40625 -0.203125 
C 19.5 -0.203125 24.703125 -0.203125 27.59375 -0.40625 
L 27.59375 2.1875 
C 20.703125 2.1875 19.59375 2.1875 19.59375 6.6875 
L 19.59375 33 
L 31.296875 33 
C 37 33 40.203125 30.6875 41.59375 29.390625 
C 45.59375 25.5 45.59375 22.796875 45.59375 16 
C 45.59375 9.296875 45.59375 5.890625 48.59375 2.5 
C 52.40625 -1.609375 57.5 -2 59.703125 -2 
C 67.09375 -2 68.203125 6.296875 68.203125 8 
C 68.203125 8.59375 68.203125 9.296875 67.296875 9.296875 
C 66.5 9.296875 66.40625 8.6875 66.40625 8.296875 
C 65.90625 1.796875 63 -0.40625 59.90625 -0.40625 
C 54.40625 -0.40625 53.796875 5.890625 53.203125 12 
C 52.90625 14.09375 52.703125 15.59375 52.5 17.796875 
C 51.90625 22.796875 51.09375 30.09375 39.203125 33.6875 
z
M 31 34.59375 
L 19.59375 34.59375 
L 19.59375 61.484375 
C 19.59375 64.890625 19.796875 65.390625 23.796875 65.390625 
L 31.09375 65.390625 
C 39.40625 65.390625 49.09375 62.484375 49.09375 50.046875 
C 49.09375 37.09375 38.5 34.59375 31 34.59375 
z
" id="CMR17-82"/>
     <path d="M 38.09375 23.484375 
C 38.5 23.890625 38.5 24.09375 38.5 25.09375 
C 38.5 35.171875 33.09375 44 21.703125 44 
C 11.09375 44 2.703125 33.984375 2.703125 21.78125 
C 2.703125 8.65625 12.203125 -1 22.796875 -1 
C 34 -1 38.40625 9.671875 38.40625 11.796875 
C 38.40625 12.5 37.796875 12.5 37.59375 12.5 
C 36.90625 12.5 36.796875 12.296875 36.40625 11.078125 
C 34.203125 4.21875 28.703125 0.796875 23.5 0.796875 
C 19.203125 0.796875 14.90625 3.21875 12.203125 7.65625 
C 9.09375 12.796875 9.09375 18.75 9.09375 23.484375 
z
M 9.203125 25 
C 9.90625 39.234375 17.59375 42.390625 21.59375 42.390625 
C 28.40625 42.390625 33 36.0625 33.09375 25 
z
" id="CMR17-101"/>
     <path d="M 23.5 -25 
L 23.5 -21.5 
L 14.09375 -21.5 
L 14.09375 71.484375 
L 23.5 71.484375 
L 23.5 75 
L 10.59375 75 
L 10.59375 -25 
z
" id="CMR17-91"/>
     <path d="M 3.09375 -16.953125 
C 3 -17.4375 2.796875 -18.03125 2.796875 -18.609375 
C 2.796875 -20.109375 4 -21.109375 5.5 -21.109375 
C 7 -21.109375 8.40625 -20.109375 9 -18.71875 
C 9.40625 -17.828125 12.203125 -6.09375 15.40625 6.078125 
C 17.40625 1.09375 21.09375 -1 25 -1 
C 36.296875 -1 49.09375 12.96875 49.09375 28.03125 
C 49.09375 38.703125 42.59375 44 35.703125 44 
C 26.90625 44 16.203125 34.90625 12.90625 21.640625 
z
M 24.90625 1 
C 18.09375 1 16.40625 8.875 16.40625 10.078125 
C 16.40625 10.671875 18.90625 20.140625 19.203125 21.640625 
C 24.296875 41.5 34.09375 41.984375 35.59375 41.984375 
C 40.09375 41.984375 42.59375 37.90625 42.59375 32.015625 
C 42.59375 26.9375 39.90625 17.046875 38.203125 12.859375 
C 35.203125 5.984375 30 1 24.90625 1 
z
" id="CMMI12-26"/>
     <path d="M 14.296875 75 
L 1.40625 75 
L 1.40625 71.484375 
L 10.796875 71.484375 
L 10.796875 -21.5 
L 1.40625 -21.5 
L 1.40625 -25 
L 14.296875 -25 
z
" id="CMR17-93"/>
    </defs>
    <g transform="translate(352.486567 117.931831)rotate(-86.842577)scale(0.14 -0.14)">
     <use transform="scale(0.996264)" xlink:href="#CMR17-82"/>
     <use transform="translate(67.791102 0)scale(0.996264)" xlink:href="#CMR17-101"/>
     <use transform="translate(108.276762 0)scale(0.996264)" xlink:href="#CMR17-91"/>
     <use transform="translate(133.147821 0)scale(0.996264)" xlink:href="#CMMI12-26"/>
     <use transform="translate(183.462194 0)scale(0.996264)" xlink:href="#CMR17-93"/>
    </g>
   </g>
   <g id="Line3DCollection_3">
    <path d="M 305.305603 168.065488 
L 128.675468 130.165362 
L 19.628287 197.960468 
" style="fill:none;stroke:#b0b0b0;stroke-width:0.8;"/>
    <path d="M 308.020906 118.842477 
L 128.007611 82.322876 
L 16.730361 147.689889 
" style="fill:none;stroke:#b0b0b0;stroke-width:0.8;"/>
    <path d="M 310.8432 67.679926 
L 127.314572 32.67648 
L 13.714356 95.370968 
" style="fill:none;stroke:#b0b0b0;stroke-width:0.8;"/>
   </g>
   <g id="xtick_9">
    <g id="line2d_12">
     <path d="M 303.831854 167.74926 
L 308.256169 168.698601 
" style="fill:none;stroke:#000000;stroke-linecap:square;stroke-width:0.8;"/>
    </g>
    <g id="text_10">
     <!-- $0.0$ -->
     <defs>
      <path d="M 18.40625 4.796875 
C 18.40625 7.6875 16 9.6875 13.59375 9.6875 
C 10.703125 9.6875 8.703125 7.296875 8.703125 4.890625 
C 8.703125 2 11.09375 0 13.5 0 
C 16.40625 0 18.40625 2.390625 18.40625 4.796875 
z
" id="CMMI12-58"/>
     </defs>
     <g transform="translate(315.115032 175.81178)scale(0.14 -0.14)">
      <use transform="scale(0.996264)" xlink:href="#CMR17-48"/>
      <use transform="translate(45.690477 0)scale(0.996264)" xlink:href="#CMMI12-58"/>
      <use transform="translate(72.787654 0)scale(0.996264)" xlink:href="#CMR17-48"/>
     </g>
    </g>
   </g>
   <g id="xtick_10">
    <g id="line2d_13">
     <path d="M 306.517734 118.537525 
L 311.030439 119.453026 
" style="fill:none;stroke:#000000;stroke-linecap:square;stroke-width:0.8;"/>
    </g>
    <g id="text_11">
     <!-- $0.2$ -->
     <defs>
      <path d="M 41.703125 15.46875 
L 39.90625 15.46875 
C 38.90625 8.390625 38.09375 7.1875 37.703125 6.59375 
C 37.203125 5.796875 30 5.796875 28.59375 5.796875 
L 9.40625 5.796875 
C 13 9.6875 20 16.765625 28.5 24.9375 
C 34.59375 30.71875 41.703125 37.5 41.703125 47.390625 
C 41.703125 59.1875 32.296875 66 21.796875 66 
C 10.796875 66 4.09375 56.296875 4.09375 47.296875 
C 4.09375 43.390625 7 42.890625 8.203125 42.890625 
C 9.203125 42.890625 12.203125 43.484375 12.203125 46.984375 
C 12.203125 50.09375 9.59375 51 8.203125 51 
C 7.59375 51 7 50.890625 6.59375 50.6875 
C 8.5 59.1875 14.296875 63.390625 20.40625 63.390625 
C 29.09375 63.390625 34.796875 56.5 34.796875 47.390625 
C 34.796875 38.703125 29.703125 31.21875 24 24.734375 
L 4.09375 2.296875 
L 4.09375 0 
L 39.296875 0 
z
" id="CMR17-50"/>
     </defs>
     <g transform="translate(318.181785 126.657997)scale(0.14 -0.14)">
      <use transform="scale(0.996264)" xlink:href="#CMR17-48"/>
      <use transform="translate(45.690477 0)scale(0.996264)" xlink:href="#CMMI12-58"/>
      <use transform="translate(72.787654 0)scale(0.996264)" xlink:href="#CMR17-50"/>
     </g>
    </g>
   </g>
   <g id="xtick_11">
    <g id="line2d_14">
     <path d="M 309.309407 67.387393 
L 313.914103 68.265623 
" style="fill:none;stroke:#000000;stroke-linecap:square;stroke-width:0.8;"/>
    </g>
    <g id="text_12">
     <!-- $0.4$ -->
     <defs>
      <path d="M 33.59375 64.796875 
C 33.59375 66.890625 33.5 67 31.703125 67 
L 2 19.59375 
L 2 17 
L 27.796875 17 
L 27.796875 7.1875 
C 27.796875 3.59375 27.59375 2.59375 20.59375 2.59375 
L 18.703125 2.59375 
L 18.703125 0 
C 21.90625 0.1875 27.296875 0.1875 30.703125 0.1875 
C 34.09375 0.1875 39.5 0.1875 42.703125 0 
L 42.703125 2.59375 
L 40.796875 2.59375 
C 33.796875 2.59375 33.59375 3.59375 33.59375 7.1875 
L 33.59375 17 
L 43.796875 17 
L 43.796875 19.59375 
L 33.59375 19.59375 
z
M 28.09375 58.171875 
L 28.09375 19.59375 
L 4 19.59375 
z
" id="CMR17-52"/>
     </defs>
     <g transform="translate(321.369111 75.571679)scale(0.14 -0.14)">
      <use transform="scale(0.996264)" xlink:href="#CMR17-48"/>
      <use transform="translate(45.690477 0)scale(0.996264)" xlink:href="#CMMI12-58"/>
      <use transform="translate(72.787654 0)scale(0.996264)" xlink:href="#CMR17-52"/>
     </g>
    </g>
   </g>
  </g>
  <g id="axes_1">
   <g id="Poly3DCollection_1">
    <path clip-path="url(#p4e9758c580)" d="M 133.04007 136.526901 
L 133.018091 134.740239 
L 154.427669 139.353275 
L 154.434865 141.146093 
z
" style="fill:#5d0618;fill-opacity:0.8;"/>
    <path clip-path="url(#p4e9758c580)" d="M 120.254602 144.558398 
L 120.223485 142.761054 
L 133.018091 134.740239 
L 133.04007 136.526901 
z
" style="fill:#ba0c2f;fill-opacity:0.8;"/>
    <path clip-path="url(#p4e9758c580)" d="M 120.254602 144.558398 
L 133.04007 136.526901 
L 154.434865 141.146093 
L 141.777797 149.262403 
z
" style="fill:#74081d;fill-opacity:0.8;"/>
    <path clip-path="url(#p4e9758c580)" d="M 120.223485 142.761054 
L 141.761641 147.45885 
L 154.427669 139.353275 
L 133.018091 134.740239 
z
" style="fill:#a30a29;fill-opacity:0.8;"/>
    <path clip-path="url(#p4e9758c580)" d="M 141.777797 149.262403 
L 154.434865 141.146093 
L 154.427669 139.353275 
L 141.761641 147.45885 
z
" style="fill:#5d0618;fill-opacity:0.8;"/>
    <path clip-path="url(#p4e9758c580)" d="M 120.254602 144.558398 
L 141.777797 149.262403 
L 141.761641 147.45885 
L 120.223485 142.761054 
z
" style="fill:#ba0c2f;fill-opacity:0.8;"/>
   </g>
   <g id="Poly3DCollection_2">
    <path clip-path="url(#p4e9758c580)" d="M 176.055151 145.81397 
L 176.052824 146.343934 
L 197.897644 151.063098 
L 197.904514 150.531305 
z
" style="fill:#ba0c2f;fill-opacity:0.8;"/>
    <path clip-path="url(#p4e9758c580)" d="M 163.529927 154.016444 
L 163.530185 154.549582 
L 176.052824 146.343934 
L 176.055151 145.81397 
z
" style="fill:#5d0618;fill-opacity:0.8;"/>
    <path clip-path="url(#p4e9758c580)" d="M 163.530185 154.549582 
L 185.510323 159.356305 
L 197.897644 151.063098 
L 176.052824 146.343934 
z
" style="fill:#a30a29;fill-opacity:0.8;"/>
    <path clip-path="url(#p4e9758c580)" d="M 163.529927 154.016444 
L 176.055151 145.81397 
L 197.904514 150.531305 
L 185.514664 158.821322 
z
" style="fill:#74081d;fill-opacity:0.8;"/>
    <path clip-path="url(#p4e9758c580)" d="M 185.514664 158.821322 
L 197.904514 150.531305 
L 197.897644 151.063098 
L 185.510323 159.356305 
z
" style="fill:#ba0c2f;fill-opacity:0.8;"/>
    <path clip-path="url(#p4e9758c580)" d="M 163.529927 154.016444 
L 185.514664 158.821322 
L 185.510323 159.356305 
L 163.530185 154.549582 
z
" style="fill:#5d0618;fill-opacity:0.8;"/>
   </g>
   <g id="Poly3DCollection_3">
    <path clip-path="url(#p4e9758c580)" d="M 107.233919 152.73765 
L 107.255484 153.698282 
L 128.900155 158.49278 
L 128.886634 157.528827 
z
" style="fill:#ba0c2f;fill-opacity:0.8;"/>
    <path clip-path="url(#p4e9758c580)" d="M 93.971471 161.068774 
L 93.998253 162.035168 
L 107.255484 153.698282 
L 107.233919 152.73765 
z
" style="fill:#5d0618;fill-opacity:0.8;"/>
    <path clip-path="url(#p4e9758c580)" d="M 93.998253 162.035168 
L 115.773462 166.919311 
L 128.900155 158.49278 
L 107.255484 153.698282 
z
" style="fill:#a30a29;fill-opacity:0.8;"/>
    <path clip-path="url(#p4e9758c580)" d="M 93.971471 161.068774 
L 107.233919 152.73765 
L 128.886634 157.528827 
L 115.75482 165.949567 
z
" style="fill:#74081d;fill-opacity:0.8;"/>
    <path clip-path="url(#p4e9758c580)" d="M 115.75482 165.949567 
L 128.886634 157.528827 
L 128.900155 158.49278 
L 115.773462 166.919311 
z
" style="fill:#ba0c2f;fill-opacity:0.8;"/>
    <path clip-path="url(#p4e9758c580)" d="M 93.971471 161.068774 
L 115.75482 165.949567 
L 115.773462 166.919311 
L 93.998253 162.035168 
z
" style="fill:#5d0618;fill-opacity:0.8;"/>
   </g>
   <g id="Poly3DCollection_4">
    <path clip-path="url(#p4e9758c580)" d="M 219.986612 155.298888 
L 219.981549 155.533651 
L 242.298037 160.353102 
L 242.305184 160.117526 
z
" style="fill:#ba0c2f;fill-opacity:0.8;"/>
    <path clip-path="url(#p4e9758c580)" d="M 207.735759 163.677857 
L 207.731783 163.914031 
L 219.981549 155.533651 
L 219.986612 155.298888 
z
" style="fill:#5d0618;fill-opacity:0.8;"/>
    <path clip-path="url(#p4e9758c580)" d="M 207.731783 163.914031 
L 230.190957 168.82388 
L 242.298037 160.353102 
L 219.981549 155.533651 
z
" style="fill:#a30a29;fill-opacity:0.8;"/>
    <path clip-path="url(#p4e9758c580)" d="M 207.735759 163.677857 
L 219.986612 155.298888 
L 242.305184 160.117526 
L 230.197045 168.586887 
z
" style="fill:#74081d;fill-opacity:0.8;"/>
    <path clip-path="url(#p4e9758c580)" d="M 230.197045 168.586887 
L 242.305184 160.117526 
L 242.298037 160.353102 
L 230.190957 168.82388 
z
" style="fill:#ba0c2f;fill-opacity:0.8;"/>
    <path clip-path="url(#p4e9758c580)" d="M 207.735759 163.677857 
L 230.197045 168.586887 
L 230.190957 168.82388 
L 207.731783 163.914031 
z
" style="fill:#5d0618;fill-opacity:0.8;"/>
   </g>
   <g id="Poly3DCollection_5">
    <path clip-path="url(#p4e9758c580)" d="M 150.771802 162.371439 
L 150.771749 162.361739 
L 172.893219 167.256586 
L 172.893188 167.26632 
z
" style="fill:#5d0618;fill-opacity:0.8;"/>
    <path clip-path="url(#p4e9758c580)" d="M 137.77422 170.883249 
L 137.774117 170.87349 
L 150.771749 162.361739 
L 150.771802 162.371439 
z
" style="fill:#ba0c2f;fill-opacity:0.8;"/>
    <path clip-path="url(#p4e9758c580)" d="M 137.77422 170.883249 
L 150.771802 162.371439 
L 172.893188 167.26632 
L 160.033528 175.870686 
z
" style="fill:#74081d;fill-opacity:0.8;"/>
    <path clip-path="url(#p4e9758c580)" d="M 137.774117 170.87349 
L 160.03351 175.860893 
L 172.893219 167.256586 
L 150.771749 162.361739 
z
" style="fill:#a30a29;fill-opacity:0.8;"/>
    <path clip-path="url(#p4e9758c580)" d="M 160.033528 175.870686 
L 172.893188 167.26632 
L 172.893219 167.256586 
L 160.03351 175.860893 
z
" style="fill:#5d0618;fill-opacity:0.8;"/>
    <path clip-path="url(#p4e9758c580)" d="M 137.77422 170.883249 
L 160.033528 175.870686 
L 160.03351 175.860893 
L 137.774117 170.87349 
z
" style="fill:#ba0c2f;fill-opacity:0.8;"/>
   </g>
   <g id="Poly3DCollection_6">
    <path clip-path="url(#p4e9758c580)" d="M 80.460461 169.556037 
L 80.478103 170.088836 
L 102.388681 175.063635 
L 102.375554 174.528985 
z
" style="fill:#ba0c2f;fill-opacity:0.8;"/>
    <path clip-path="url(#p4e9758c580)" d="M 66.693835 178.203872 
L 66.714552 178.739883 
L 80.478103 170.088836 
L 80.460461 169.556037 
z
" style="fill:#5d0618;fill-opacity:0.8;"/>
    <path clip-path="url(#p4e9758c580)" d="M 66.714552 178.739883 
L 88.757922 183.809487 
L 102.388681 175.063635 
L 80.478103 170.088836 
z
" style="fill:#a30a29;fill-opacity:0.8;"/>
    <path clip-path="url(#p4e9758c580)" d="M 66.693835 178.203872 
L 80.460461 169.556037 
L 102.375554 174.528985 
L 88.741774 183.271609 
z
" style="fill:#74081d;fill-opacity:0.8;"/>
    <path clip-path="url(#p4e9758c580)" d="M 88.741774 183.271609 
L 102.375554 174.528985 
L 102.388681 175.063635 
L 88.757922 183.809487 
z
" style="fill:#ba0c2f;fill-opacity:0.8;"/>
    <path clip-path="url(#p4e9758c580)" d="M 66.693835 178.203872 
L 88.741774 183.271609 
L 88.757922 183.809487 
L 66.714552 178.739883 
z
" style="fill:#5d0618;fill-opacity:0.8;"/>
   </g>
   <g id="Poly3DCollection_7">
    <path clip-path="url(#p4e9758c580)" d="M 195.254636 172.214321 
L 195.259056 171.845573 
L 217.867814 176.84628 
L 217.860075 177.21631 
z
" style="fill:#5d0618;fill-opacity:0.8;"/>
    <path clip-path="url(#p4e9758c580)" d="M 182.536688 180.91276 
L 182.539288 180.541787 
L 195.259056 171.845573 
L 195.254636 172.214321 
z
" style="fill:#ba0c2f;fill-opacity:0.8;"/>
    <path clip-path="url(#p4e9758c580)" d="M 182.536688 180.91276 
L 195.254636 172.214321 
L 217.860075 177.21631 
L 205.287727 186.010375 
z
" style="fill:#74081d;fill-opacity:0.8;"/>
    <path clip-path="url(#p4e9758c580)" d="M 182.539288 180.541787 
L 205.29369 185.638108 
L 217.867814 176.84628 
L 195.259056 171.845573 
z
" style="fill:#a30a29;fill-opacity:0.8;"/>
    <path clip-path="url(#p4e9758c580)" d="M 205.287727 186.010375 
L 217.860075 177.21631 
L 217.867814 176.84628 
L 205.29369 185.638108 
z
" style="fill:#5d0618;fill-opacity:0.8;"/>
    <path clip-path="url(#p4e9758c580)" d="M 182.536688 180.91276 
L 205.287727 186.010375 
L 205.29369 185.638108 
L 182.539288 180.541787 
z
" style="fill:#ba0c2f;fill-opacity:0.8;"/>
   </g>
   <g id="Poly3DCollection_8">
    <path clip-path="url(#p4e9758c580)" d="M 124.530375 179.556331 
L 124.524705 179.198962 
L 146.926352 184.280359 
L 146.928879 184.638974 
z
" style="fill:#5d0618;fill-opacity:0.8;"/>
    <path clip-path="url(#p4e9758c580)" d="M 111.033201 188.395312 
L 111.025557 188.035782 
L 124.524705 179.198962 
L 124.530375 179.556331 
z
" style="fill:#ba0c2f;fill-opacity:0.8;"/>
    <path clip-path="url(#p4e9758c580)" d="M 111.033201 188.395312 
L 124.530375 179.556331 
L 146.928879 184.638974 
L 133.572172 193.575913 
z
" style="fill:#74081d;fill-opacity:0.8;"/>
    <path clip-path="url(#p4e9758c580)" d="M 111.025557 188.035782 
L 133.56771 193.215127 
L 146.926352 184.280359 
L 124.524705 179.198962 
z
" style="fill:#a30a29;fill-opacity:0.8;"/>
    <path clip-path="url(#p4e9758c580)" d="M 133.572172 193.575913 
L 146.928879 184.638974 
L 146.926352 184.280359 
L 133.56771 193.215127 
z
" style="fill:#5d0618;fill-opacity:0.8;"/>
    <path clip-path="url(#p4e9758c580)" d="M 111.033201 188.395312 
L 133.572172 193.575913 
L 133.56771 193.215127 
L 111.025557 188.035782 
z
" style="fill:#ba0c2f;fill-opacity:0.8;"/>
   </g>
   <g id="Poly3DCollection_9">
    <path clip-path="url(#p4e9758c580)" d="M 240.713521 182.273177 
L 240.706349 182.512429 
L 263.809673 187.625915 
L 263.819078 187.385829 
z
" style="fill:#ba0c2f;fill-opacity:0.8;"/>
    <path clip-path="url(#p4e9758c580)" d="M 228.290765 191.164452 
L 228.284708 191.405151 
L 240.706349 182.512429 
L 240.713521 182.273177 
z
" style="fill:#5d0618;fill-opacity:0.8;"/>
    <path clip-path="url(#p4e9758c580)" d="M 228.284708 191.405151 
L 251.541691 196.617475 
L 263.809673 187.625915 
L 240.706349 182.512429 
z
" style="fill:#a30a29;fill-opacity:0.8;"/>
    <path clip-path="url(#p4e9758c580)" d="M 228.290765 191.164452 
L 240.713521 182.273177 
L 263.819078 187.385829 
L 251.550011 196.375936 
z
" style="fill:#74081d;fill-opacity:0.8;"/>
    <path clip-path="url(#p4e9758c580)" d="M 251.550011 196.375936 
L 263.819078 187.385829 
L 263.809673 187.625915 
L 251.541691 196.617475 
z
" style="fill:#ba0c2f;fill-opacity:0.8;"/>
    <path clip-path="url(#p4e9758c580)" d="M 228.290765 191.164452 
L 251.550011 196.375936 
L 251.541691 196.617475 
L 228.284708 191.405151 
z
" style="fill:#5d0618;fill-opacity:0.8;"/>
   </g>
   <g id="Poly3DCollection_10">
    <path clip-path="url(#p4e9758c580)" d="M 169.57511 189.77783 
L 169.575129 189.767944 
L 192.473308 194.963918 
L 192.473199 194.973838 
z
" style="fill:#5d0618;fill-opacity:0.8;"/>
    <path clip-path="url(#p4e9758c580)" d="M 156.362834 198.814366 
L 156.362801 198.804419 
L 169.575129 189.767944 
L 169.57511 189.77783 
z
" style="fill:#ba0c2f;fill-opacity:0.8;"/>
    <path clip-path="url(#p4e9758c580)" d="M 156.362834 198.814366 
L 169.57511 189.77783 
L 192.473199 194.973838 
L 179.409425 204.111644 
z
" style="fill:#74081d;fill-opacity:0.8;"/>
    <path clip-path="url(#p4e9758c580)" d="M 156.362801 198.804419 
L 179.409483 204.101663 
L 192.473308 194.963918 
L 169.575129 189.767944 
z
" style="fill:#a30a29;fill-opacity:0.8;"/>
    <path clip-path="url(#p4e9758c580)" d="M 179.409425 204.111644 
L 192.473199 194.973838 
L 192.473308 194.963918 
L 179.409483 204.101663 
z
" style="fill:#5d0618;fill-opacity:0.8;"/>
    <path clip-path="url(#p4e9758c580)" d="M 156.362834 198.814366 
L 179.409425 204.111644 
L 179.409483 204.101663 
L 156.362801 198.804419 
z
" style="fill:#ba0c2f;fill-opacity:0.8;"/>
   </g>
   <g id="Poly3DCollection_11">
    <path clip-path="url(#p4e9758c580)" d="M 97.27536 197.404998 
L 97.289914 197.948019 
L 119.965782 203.231337 
L 119.956065 202.686417 
z
" style="fill:#ba0c2f;fill-opacity:0.8;"/>
    <path clip-path="url(#p4e9758c580)" d="M 83.249227 206.590382 
L 83.266976 207.136697 
L 97.289914 197.948019 
L 97.27536 197.404998 
z
" style="fill:#5d0618;fill-opacity:0.8;"/>
    <path clip-path="url(#p4e9758c580)" d="M 83.266976 207.136697 
L 106.085777 212.523819 
L 119.965782 203.231337 
L 97.289914 197.948019 
z
" style="fill:#a30a29;fill-opacity:0.8;"/>
    <path clip-path="url(#p4e9758c580)" d="M 83.249227 206.590382 
L 97.27536 197.404998 
L 119.956065 202.686417 
L 106.072925 211.975591 
z
" style="fill:#74081d;fill-opacity:0.8;"/>
    <path clip-path="url(#p4e9758c580)" d="M 106.072925 211.975591 
L 119.956065 202.686417 
L 119.965782 203.231337 
L 106.085777 212.523819 
z
" style="fill:#ba0c2f;fill-opacity:0.8;"/>
    <path clip-path="url(#p4e9758c580)" d="M 83.249227 206.590382 
L 106.072925 211.975591 
L 106.085777 212.523819 
L 83.266976 207.136697 
z
" style="fill:#5d0618;fill-opacity:0.8;"/>
   </g>
   <g id="Poly3DCollection_12">
    <path clip-path="url(#p4e9758c580)" d="M 215.627372 200.227957 
L 215.616243 200.778392 
L 239.025604 206.093526 
L 239.041948 205.541165 
z
" style="fill:#ba0c2f;fill-opacity:0.8;"/>
    <path clip-path="url(#p4e9758c580)" d="M 202.716282 209.468744 
L 202.707897 210.02252 
L 215.616243 200.778392 
L 215.627372 200.227957 
z
" style="fill:#5d0618;fill-opacity:0.8;"/>
    <path clip-path="url(#p4e9758c580)" d="M 202.707897 210.02252 
L 226.274167 215.442401 
L 239.025604 206.093526 
L 215.616243 200.778392 
z
" style="fill:#a30a29;fill-opacity:0.8;"/>
    <path clip-path="url(#p4e9758c580)" d="M 202.716282 209.468744 
L 215.627372 200.227957 
L 239.041948 205.541165 
L 226.287837 214.886685 
z
" style="fill:#74081d;fill-opacity:0.8;"/>
    <path clip-path="url(#p4e9758c580)" d="M 226.287837 214.886685 
L 239.041948 205.541165 
L 239.025604 206.093526 
L 226.274167 215.442401 
z
" style="fill:#ba0c2f;fill-opacity:0.8;"/>
    <path clip-path="url(#p4e9758c580)" d="M 202.716282 209.468744 
L 226.287837 214.886685 
L 226.274167 215.442401 
L 202.707897 210.02252 
z
" style="fill:#5d0618;fill-opacity:0.8;"/>
   </g>
   <g id="Poly3DCollection_13">
    <path clip-path="url(#p4e9758c580)" d="M 142.892515 208.027389 
L 142.90122 209.025184 
L 166.088534 214.430216 
L 166.089063 213.428927 
z
" style="fill:#ba0c2f;fill-opacity:0.8;"/>
    <path clip-path="url(#p4e9758c580)" d="M 129.15652 217.422121 
L 129.17083 218.425978 
L 142.90122 209.025184 
L 142.892515 208.027389 
z
" style="fill:#5d0618;fill-opacity:0.8;"/>
    <path clip-path="url(#p4e9758c580)" d="M 129.17083 218.425978 
L 152.509433 223.938404 
L 166.088534 214.430216 
L 142.90122 209.025184 
z
" style="fill:#a30a29;fill-opacity:0.8;"/>
    <path clip-path="url(#p4e9758c580)" d="M 129.15652 217.422121 
L 142.892515 208.027389 
L 166.089063 213.428927 
L 152.504477 222.931028 
z
" style="fill:#74081d;fill-opacity:0.8;"/>
    <path clip-path="url(#p4e9758c580)" d="M 152.504477 222.931028 
L 166.089063 213.428927 
L 166.088534 214.430216 
L 152.509433 223.938404 
z
" style="fill:#ba0c2f;fill-opacity:0.8;"/>
    <path clip-path="url(#p4e9758c580)" d="M 129.15652 217.422121 
L 152.504477 222.931028 
L 152.509433 223.938404 
L 129.17083 218.425978 
z
" style="fill:#5d0618;fill-opacity:0.8;"/>
   </g>
   <g id="Poly3DCollection_14">
    <path clip-path="url(#p4e9758c580)" d="M 252.902436 173.549268 
L 264.86405 164.988044 
L 287.667111 169.911285 
L 275.855935 178.565874 
z
" style="fill:#74081d;fill-opacity:0.8;"/>
    <path clip-path="url(#p4e9758c580)" d="M 264.86405 164.988044 
L 269.76616 40.067584 
L 293.720167 44.523887 
L 287.667111 169.911285 
z
" style="fill:#5d0618;fill-opacity:0.8;"/>
    <path clip-path="url(#p4e9758c580)" d="M 252.902436 173.549268 
L 257.261368 47.81835 
L 269.76616 40.067584 
L 264.86405 164.988044 
z
" style="fill:#ba0c2f;fill-opacity:0.8;"/>
    <path clip-path="url(#p4e9758c580)" d="M 275.855935 178.565874 
L 287.667111 169.911285 
L 293.720167 44.523887 
L 281.381613 52.363375 
z
" style="fill:#5d0618;fill-opacity:0.8;"/>
    <path clip-path="url(#p4e9758c580)" d="M 252.902436 173.549268 
L 275.855935 178.565874 
L 281.381613 52.363375 
L 257.261368 47.81835 
z
" style="fill:#ba0c2f;fill-opacity:0.8;"/>
    <path clip-path="url(#p4e9758c580)" d="M 257.261368 47.81835 
L 281.381613 52.363375 
L 293.720167 44.523887 
L 269.76616 40.067584 
z
" style="fill:#a30a29;fill-opacity:0.8;"/>
   </g>
   <g id="Poly3DCollection_15">
    <path clip-path="url(#p4e9758c580)" d="M 189.550156 218.892067 
L 189.568929 217.000666 
L 213.317306 222.519822 
L 213.280347 224.417868 
z
" style="fill:#5d0618;fill-opacity:0.8;"/>
    <path clip-path="url(#p4e9758c580)" d="M 176.121362 228.503387 
L 176.130048 226.600459 
L 189.568929 217.000666 
L 189.550156 218.892067 
z
" style="fill:#ba0c2f;fill-opacity:0.8;"/>
    <path clip-path="url(#p4e9758c580)" d="M 176.121362 228.503387 
L 189.550156 218.892067 
L 213.280347 224.417868 
L 200.01185 234.140303 
z
" style="fill:#74081d;fill-opacity:0.8;"/>
    <path clip-path="url(#p4e9758c580)" d="M 176.130048 226.600459 
L 200.03897 232.230681 
L 213.317306 222.519822 
L 189.568929 217.000666 
z
" style="fill:#a30a29;fill-opacity:0.8;"/>
    <path clip-path="url(#p4e9758c580)" d="M 200.01185 234.140303 
L 213.280347 224.417868 
L 213.317306 222.519822 
L 200.03897 232.230681 
z
" style="fill:#5d0618;fill-opacity:0.8;"/>
    <path clip-path="url(#p4e9758c580)" d="M 176.121362 228.503387 
L 200.01185 234.140303 
L 200.03897 232.230681 
L 176.130048 226.600459 
z
" style="fill:#ba0c2f;fill-opacity:0.8;"/>
   </g>
   <g id="Poly3DCollection_16">
    <path clip-path="url(#p4e9758c580)" d="M 25.525115 197.343389 
L 203.752106 239.59184 
L 299.769754 168.644792 
L 130.040394 132.154782 
z
" style="fill-opacity:0.15;"/>
   </g>
   <g id="Poly3DCollection_17">
    <path clip-path="url(#p4e9758c580)" d="M 38.364158 195.999835 
L 52.664269 187.016879 
L 74.846148 192.182141 
L 60.68106 201.265466 
z
" style="fill:#74081d;fill-opacity:0.8;"/>
    <path clip-path="url(#p4e9758c580)" d="M 52.664269 187.016879 
L 46.933544 57.750519 
L 70.222556 62.427839 
L 74.846148 192.182141 
z
" style="fill:#5d0618;fill-opacity:0.8;"/>
    <path clip-path="url(#p4e9758c580)" d="M 38.364158 195.999835 
L 31.836896 65.886594 
L 46.933544 57.750519 
L 52.664269 187.016879 
z
" style="fill:#ba0c2f;fill-opacity:0.8;"/>
    <path clip-path="url(#p4e9758c580)" d="M 60.68106 201.265466 
L 74.846148 192.182141 
L 70.222556 62.427839 
L 55.274545 70.659531 
z
" style="fill:#5d0618;fill-opacity:0.8;"/>
    <path clip-path="url(#p4e9758c580)" d="M 38.364158 195.999835 
L 60.68106 201.265466 
L 55.274545 70.659531 
L 31.836896 65.886594 
z
" style="fill:#ba0c2f;fill-opacity:0.8;"/>
    <path clip-path="url(#p4e9758c580)" d="M 31.836896 65.886594 
L 55.274545 70.659531 
L 70.222556 62.427839 
L 46.933544 57.750519 
z
" style="fill:#a30a29;fill-opacity:0.8;"/>
   </g>
  </g>
  <g id="patch_6">
   <path d="M 425.945455 262.8 
L 806.4 262.8 
L 806.4 -14.4 
L 425.945455 -14.4 
z
" style="fill:#ffffff;"/>
  </g>
  <g id="pane3d_4">
   <g id="patch_7">
    <path d="M 476.380584 201.548569 
L 585.268665 133.58541 
L 583.455794 3.718968 
L 468.496488 64.782468 
" style="fill:#f2f2f2;opacity:0.5;stroke:#f2f2f2;stroke-linejoin:miter;"/>
   </g>
  </g>
  <g id="pane3d_5">
   <g id="patch_8">
    <path d="M 585.268665 133.58541 
L 761.65712 171.581202 
L 769.037001 37.79869 
L 583.455794 3.718968 
" style="fill:#e6e6e6;opacity:0.5;stroke:#e6e6e6;stroke-linejoin:miter;"/>
   </g>
  </g>
  <g id="pane3d_6">
   <g id="patch_9">
    <path d="M 476.380584 201.548569 
L 661.965072 245.80086 
L 761.65712 171.581202 
L 585.268665 133.58541 
" style="fill:#ececec;opacity:0.5;stroke:#ececec;stroke-linejoin:miter;"/>
   </g>
  </g>
  <g id="axis3d_4">
   <g id="line2d_15">
    <path d="M 476.380584 201.548569 
L 661.965072 245.80086 
" style="fill:none;stroke:#000000;stroke-linecap:square;stroke-width:0.8;"/>
   </g>
   <g id="Line3DCollection_4">
    <path d="M 498.841271 206.90428 
L 606.679397 138.19749 
L 605.9393 7.847789 
" style="fill:none;stroke:#b0b0b0;stroke-width:0.8;"/>
    <path d="M 544.057792 217.686079 
L 649.729469 147.470895 
L 651.182353 16.156123 
" style="fill:none;stroke:#b0b0b0;stroke-width:0.8;"/>
    <path d="M 590.310744 228.715013 
L 693.693551 156.941187 
L 697.435637 24.649974 
" style="fill:none;stroke:#b0b0b0;stroke-width:0.8;"/>
    <path d="M 637.636176 239.999678 
L 738.601063 166.614702 
L 744.733372 33.335625 
" style="fill:none;stroke:#b0b0b0;stroke-width:0.8;"/>
   </g>
   <g id="xtick_12">
    <g id="line2d_16">
     <path d="M 499.770538 206.312217 
L 496.979262 208.09062 
" style="fill:none;stroke:#000000;stroke-linecap:square;stroke-width:0.8;"/>
    </g>
    <g id="text_13">
     <!-- 00 -->
     <g transform="translate(479.875817 237.14703)rotate(-45)scale(0.14 -0.14)">
      <use transform="scale(0.996264)" xlink:href="#CMR17-48"/>
      <use transform="translate(45.690477 0)scale(0.996264)" xlink:href="#CMR17-48"/>
     </g>
    </g>
   </g>
   <g id="xtick_13">
    <g id="line2d_17">
     <path d="M 544.969128 217.080527 
L 542.231671 218.899473 
" style="fill:none;stroke:#000000;stroke-linecap:square;stroke-width:0.8;"/>
    </g>
    <g id="text_14">
     <!-- 01 -->
     <g transform="translate(525.088242 248.103782)rotate(-45)scale(0.14 -0.14)">
      <use transform="scale(0.996264)" xlink:href="#CMR17-48"/>
      <use transform="translate(45.690477 0)scale(0.996264)" xlink:href="#CMR17-49"/>
     </g>
    </g>
   </g>
   <g id="xtick_14">
    <g id="line2d_18">
     <path d="M 591.20308 228.095506 
L 588.522658 229.956397 
" style="fill:none;stroke:#000000;stroke-linecap:square;stroke-width:0.8;"/>
    </g>
    <g id="text_15">
     <!-- 10 -->
     <g transform="translate(571.338855 259.312128)rotate(-45)scale(0.14 -0.14)">
      <use transform="scale(0.996264)" xlink:href="#CMR17-49"/>
      <use transform="translate(45.690477 0)scale(0.996264)" xlink:href="#CMR17-48"/>
     </g>
    </g>
   </g>
   <g id="xtick_15">
    <g id="line2d_19">
     <path d="M 638.50838 239.365727 
L 635.888391 241.270032 
" style="fill:none;stroke:#000000;stroke-linecap:square;stroke-width:0.8;"/>
    </g>
    <g id="text_16">
     <!-- 11 -->
     <g transform="translate(618.66383 270.780834)rotate(-45)scale(0.14 -0.14)">
      <use transform="scale(0.996264)" xlink:href="#CMR17-49"/>
      <use transform="translate(45.690477 0)scale(0.996264)" xlink:href="#CMR17-49"/>
     </g>
    </g>
   </g>
  </g>
  <g id="axis3d_5">
   <g id="line2d_20">
    <path d="M 761.65712 171.581202 
L 661.965072 245.80086 
" style="fill:none;stroke:#000000;stroke-linecap:square;stroke-width:0.8;"/>
   </g>
   <g id="Line3DCollection_5">
    <path d="M 484.000685 56.547028 
L 491.016499 192.413474 
L 675.403872 235.795817 
" style="fill:none;stroke:#b0b0b0;stroke-width:0.8;"/>
    <path d="M 513.777478 40.730342 
L 519.168861 174.842005 
L 701.219492 216.576366 
" style="fill:none;stroke:#b0b0b0;stroke-width:0.8;"/>
    <path d="M 542.401344 25.526062 
L 546.284836 157.917404 
L 726.04244 198.095948 
" style="fill:none;stroke:#b0b0b0;stroke-width:0.8;"/>
    <path d="M 569.937971 10.899296 
L 572.420618 141.604597 
L 749.928893 180.312741 
" style="fill:none;stroke:#b0b0b0;stroke-width:0.8;"/>
   </g>
   <g id="xtick_16">
    <g id="line2d_21">
     <path d="M 673.861052 235.432825 
L 678.492943 236.522608 
" style="fill:none;stroke:#000000;stroke-linecap:square;stroke-width:0.8;"/>
    </g>
    <g id="text_17">
     <!-- 00 -->
     <g transform="translate(689.195824 248.348363)rotate(-337.5)scale(0.14 -0.14)">
      <use transform="scale(0.996264)" xlink:href="#CMR17-48"/>
      <use transform="translate(45.690477 0)scale(0.996264)" xlink:href="#CMR17-48"/>
     </g>
    </g>
   </g>
   <g id="xtick_17">
    <g id="line2d_22">
     <path d="M 699.697534 216.227463 
L 704.266725 217.274932 
" style="fill:none;stroke:#000000;stroke-linecap:square;stroke-width:0.8;"/>
    </g>
    <g id="text_18">
     <!-- 01 -->
     <g transform="translate(714.749375 228.903937)rotate(-337.5)scale(0.14 -0.14)">
      <use transform="scale(0.996264)" xlink:href="#CMR17-48"/>
      <use transform="translate(45.690477 0)scale(0.996264)" xlink:href="#CMR17-49"/>
     </g>
    </g>
   </g>
   <g id="xtick_18">
    <g id="line2d_23">
     <path d="M 724.540896 197.76033 
L 729.048738 198.767901 
" style="fill:none;stroke:#000000;stroke-linecap:square;stroke-width:0.8;"/>
    </g>
    <g id="text_19">
     <!-- 10 -->
     <g transform="translate(739.320787 210.206849)rotate(-337.5)scale(0.14 -0.14)">
      <use transform="scale(0.996264)" xlink:href="#CMR17-49"/>
      <use transform="translate(45.690477 0)scale(0.996264)" xlink:href="#CMR17-48"/>
     </g>
    </g>
   </g>
   <g id="xtick_19">
    <g id="line2d_24">
     <path d="M 748.44732 179.989663 
L 752.895146 180.959573 
" style="fill:none;stroke:#000000;stroke-linecap:square;stroke-width:0.8;"/>
    </g>
    <g id="text_20">
     <!-- 11 -->
     <g transform="translate(762.965613 192.214827)rotate(-337.5)scale(0.14 -0.14)">
      <use transform="scale(0.996264)" xlink:href="#CMR17-49"/>
      <use transform="translate(45.690477 0)scale(0.996264)" xlink:href="#CMR17-49"/>
     </g>
    </g>
   </g>
  </g>
  <g id="axis3d_6">
   <g id="line2d_25">
    <path d="M 761.65712 171.581202 
L 769.037001 37.79869 
" style="fill:none;stroke:#000000;stroke-linecap:square;stroke-width:0.8;"/>
   </g>
   <g id="text_21">
    <!-- Im[$\rho$] -->
    <defs>
     <path d="M 19.703125 60.90625 
C 19.703125 65.390625 20.90625 65.390625 28.09375 65.390625 
L 28.09375 68 
C 24.90625 67.796875 19.796875 67.796875 16.40625 67.796875 
C 13 67.796875 7.90625 67.796875 4.703125 68 
L 4.703125 65.390625 
C 11.90625 65.390625 13.09375 65.390625 13.09375 60.90625 
L 13.09375 7.078125 
C 13.09375 2.59375 11.90625 2.59375 4.703125 2.59375 
L 4.703125 0 
C 7.90625 0.1875 13 0.1875 16.40625 0.1875 
C 19.796875 0.1875 24.90625 0.1875 28.09375 0 
L 28.09375 2.59375 
C 20.90625 2.59375 19.703125 2.59375 19.703125 7.078125 
z
" id="CMR17-73"/>
     <path d="M 67.59375 30.53125 
C 67.59375 35.5625 66.703125 44 54.796875 44 
C 48 44 43.296875 39.375 41.5 33.953125 
L 41.40625 33.953125 
C 40.203125 42.1875 34.296875 44 28.703125 44 
C 20.796875 44 16.703125 37.875 15.203125 33.84375 
L 15.09375 33.84375 
L 15.09375 44 
L 3.296875 42.890625 
L 3.296875 40.28125 
C 9.203125 40.28125 10.09375 39.6875 10.09375 34.859375 
L 10.09375 6.921875 
C 10.09375 3.09375 9.703125 2.59375 3.296875 2.59375 
L 3.296875 0 
C 5.703125 0.1875 10.09375 0.1875 12.703125 0.1875 
C 15.296875 0.1875 19.796875 0.1875 22.203125 0 
L 22.203125 2.59375 
C 15.796875 2.59375 15.40625 3 15.40625 6.921875 
L 15.40625 26.21875 
C 15.40625 35.453125 21 42.390625 28 42.390625 
C 35.40625 42.390625 36.203125 35.765625 36.203125 30.9375 
L 36.203125 6.921875 
C 36.203125 3.09375 35.796875 2.59375 29.40625 2.59375 
L 29.40625 0 
C 31.796875 0.1875 36.203125 0.1875 38.796875 0.1875 
C 41.40625 0.1875 45.90625 0.1875 48.296875 0 
L 48.296875 2.59375 
C 41.90625 2.59375 41.5 3 41.5 6.921875 
L 41.5 26.21875 
C 41.5 35.453125 47.09375 42.390625 54.09375 42.390625 
C 61.5 42.390625 62.296875 35.765625 62.296875 30.9375 
L 62.296875 6.921875 
C 62.296875 3.09375 61.90625 2.59375 55.5 2.59375 
L 55.5 0 
C 57.90625 0.1875 62.296875 0.1875 64.90625 0.1875 
C 67.5 0.1875 72 0.1875 74.40625 0 
L 74.40625 2.59375 
C 68 2.59375 67.59375 3 67.59375 6.921875 
z
" id="CMR17-109"/>
    </defs>
    <g transform="translate(809.026865 118.025317)rotate(-86.842577)scale(0.14 -0.14)">
     <use transform="scale(0.996264)" xlink:href="#CMR17-73"/>
     <use transform="translate(32.638409 0)scale(0.996264)" xlink:href="#CMR17-109"/>
     <use transform="translate(109.557999 0)scale(0.996264)" xlink:href="#CMR17-91"/>
     <use transform="translate(134.429058 0)scale(0.996264)" xlink:href="#CMMI12-26"/>
     <use transform="translate(184.74343 0)scale(0.996264)" xlink:href="#CMR17-93"/>
    </g>
   </g>
   <g id="Line3DCollection_6">
    <path d="M 761.87382 167.652864 
L 585.21532 129.763991 
L 476.149465 197.539327 
" style="fill:none;stroke:#b0b0b0;stroke-width:0.8;"/>
    <path d="M 764.580601 118.584333 
L 584.549566 82.072174 
L 473.260608 147.426083 
" style="fill:none;stroke:#b0b0b0;stroke-width:0.8;"/>
    <path d="M 767.393678 67.588854 
L 583.858794 32.58818 
L 470.254438 95.277777 
" style="fill:none;stroke:#b0b0b0;stroke-width:0.8;"/>
   </g>
   <g id="xtick_20">
    <g id="line2d_26">
     <path d="M 760.399824 167.336728 
L 764.824879 168.285793 
" style="fill:none;stroke:#000000;stroke-linecap:square;stroke-width:0.8;"/>
    </g>
    <g id="text_22">
     <!-- $0.0$ -->
     <g transform="translate(771.686196 175.39972)scale(0.14 -0.14)">
      <use transform="scale(0.996264)" xlink:href="#CMR17-48"/>
      <use transform="translate(45.690477 0)scale(0.996264)" xlink:href="#CMMI12-58"/>
      <use transform="translate(72.787654 0)scale(0.996264)" xlink:href="#CMR17-48"/>
     </g>
    </g>
   </g>
   <g id="xtick_21">
    <g id="line2d_27">
     <path d="M 763.077274 118.279442 
L 767.590443 119.19476 
" style="fill:none;stroke:#000000;stroke-linecap:square;stroke-width:0.8;"/>
    </g>
    <g id="text_23">
     <!-- $0.2$ -->
     <g transform="translate(774.743322 126.400226)scale(0.14 -0.14)">
      <use transform="scale(0.996264)" xlink:href="#CMR17-48"/>
      <use transform="translate(45.690477 0)scale(0.996264)" xlink:href="#CMMI12-58"/>
      <use transform="translate(72.787654 0)scale(0.996264)" xlink:href="#CMR17-50"/>
     </g>
    </g>
   </g>
   <g id="xtick_22">
    <g id="line2d_28">
     <path d="M 765.859831 67.296344 
L 770.464691 68.174505 
" style="fill:none;stroke:#000000;stroke-linecap:square;stroke-width:0.8;"/>
    </g>
    <g id="text_24">
     <!-- $0.4$ -->
     <g transform="translate(777.920239 75.480746)scale(0.14 -0.14)">
      <use transform="scale(0.996264)" xlink:href="#CMR17-48"/>
      <use transform="translate(45.690477 0)scale(0.996264)" xlink:href="#CMMI12-58"/>
      <use transform="translate(72.787654 0)scale(0.996264)" xlink:href="#CMR17-52"/>
     </g>
    </g>
   </g>
  </g>
  <g id="axes_2">
   <g id="Poly3DCollection_18">
    <path clip-path="url(#pfa7244b26a)" d="M 589.580563 136.123606 
L 589.583091 136.329115 
L 610.979523 140.947626 
L 610.978695 140.74141 
z
" style="fill:#0cba97;fill-opacity:0.8;"/>
    <path clip-path="url(#pfa7244b26a)" d="M 576.793033 144.152694 
L 576.796612 144.35943 
L 589.583091 136.329115 
L 589.580563 136.123606 
z
" style="fill:#065d4c;fill-opacity:0.8;"/>
    <path clip-path="url(#pfa7244b26a)" d="M 576.796612 144.35943 
L 598.321463 149.062749 
L 610.979523 140.947626 
L 589.583091 136.329115 
z
" style="fill:#0aa384;fill-opacity:0.8;"/>
    <path clip-path="url(#pfa7244b26a)" d="M 576.793033 144.152694 
L 589.580563 136.123606 
L 610.978695 140.74141 
L 598.319605 148.855299 
z
" style="fill:#08745e;fill-opacity:0.8;"/>
    <path clip-path="url(#pfa7244b26a)" d="M 598.319605 148.855299 
L 610.978695 140.74141 
L 610.979523 140.947626 
L 598.321463 149.062749 
z
" style="fill:#0cba97;fill-opacity:0.8;"/>
    <path clip-path="url(#pfa7244b26a)" d="M 576.793033 144.152694 
L 598.319605 148.855299 
L 598.321463 149.062749 
L 576.796612 144.35943 
z
" style="fill:#065d4c;fill-opacity:0.8;"/>
   </g>
   <g id="Poly3DCollection_19">
    <path clip-path="url(#pfa7244b26a)" d="M 632.602389 145.407891 
L 632.601536 145.602234 
L 654.452713 150.318838 
L 654.455232 150.123824 
z
" style="fill:#0cba97;fill-opacity:0.8;"/>
    <path clip-path="url(#pfa7244b26a)" d="M 620.075184 153.607932 
L 620.075279 153.80344 
L 632.601536 145.602234 
L 632.602389 145.407891 
z
" style="fill:#065d4c;fill-opacity:0.8;"/>
    <path clip-path="url(#pfa7244b26a)" d="M 620.075279 153.80344 
L 642.061853 158.60758 
L 654.452713 150.318838 
L 632.601536 145.602234 
z
" style="fill:#0aa384;fill-opacity:0.8;"/>
    <path clip-path="url(#pfa7244b26a)" d="M 620.075184 153.607932 
L 632.602389 145.407891 
L 654.455232 150.123824 
L 642.063445 158.411396 
z
" style="fill:#08745e;fill-opacity:0.8;"/>
    <path clip-path="url(#pfa7244b26a)" d="M 642.063445 158.411396 
L 654.455232 150.123824 
L 654.452713 150.318838 
L 642.061853 158.60758 
z
" style="fill:#0cba97;fill-opacity:0.8;"/>
    <path clip-path="url(#pfa7244b26a)" d="M 620.075184 153.607932 
L 642.063445 158.411396 
L 642.061853 158.60758 
L 620.075279 153.80344 
z
" style="fill:#065d4c;fill-opacity:0.8;"/>
   </g>
   <g id="Poly3DCollection_20">
    <path clip-path="url(#pfa7244b26a)" d="M 563.770212 152.329516 
L 563.7565 151.71868 
L 585.417747 156.506329 
L 585.426344 157.11928 
z
" style="fill:#065d4c;fill-opacity:0.8;"/>
    <path clip-path="url(#pfa7244b26a)" d="M 550.505547 160.658189 
L 550.488518 160.043683 
L 563.7565 151.71868 
L 563.770212 152.329516 
z
" style="fill:#0cba97;fill-opacity:0.8;"/>
    <path clip-path="url(#pfa7244b26a)" d="M 550.505547 160.658189 
L 563.770212 152.329516 
L 585.426344 157.11928 
L 572.292355 165.537558 
z
" style="fill:#08745e;fill-opacity:0.8;"/>
    <path clip-path="url(#pfa7244b26a)" d="M 550.488518 160.043683 
L 572.280501 164.920918 
L 585.417747 156.506329 
L 563.7565 151.71868 
z
" style="fill:#0aa384;fill-opacity:0.8;"/>
    <path clip-path="url(#pfa7244b26a)" d="M 572.292355 165.537558 
L 585.426344 157.11928 
L 585.417747 156.506329 
L 572.280501 164.920918 
z
" style="fill:#065d4c;fill-opacity:0.8;"/>
    <path clip-path="url(#pfa7244b26a)" d="M 550.505547 160.658189 
L 572.292355 165.537558 
L 572.280501 164.920918 
L 550.488518 160.043683 
z
" style="fill:#0cba97;fill-opacity:0.8;"/>
   </g>
   <g id="Poly3DCollection_21">
    <path clip-path="url(#pfa7244b26a)" d="M 676.540885 154.889998 
L 676.57049 153.517228 
L 698.904882 158.329691 
L 698.863088 159.70722 
z
" style="fill:#065d4c;fill-opacity:0.8;"/>
    <path clip-path="url(#pfa7244b26a)" d="M 664.288139 163.26651 
L 664.311391 161.885483 
L 676.57049 153.517228 
L 676.540885 154.889998 
z
" style="fill:#0cba97;fill-opacity:0.8;"/>
    <path clip-path="url(#pfa7244b26a)" d="M 664.288139 163.26651 
L 676.540885 154.889998 
L 698.863088 159.70722 
L 686.753102 168.174112 
z
" style="fill:#08745e;fill-opacity:0.8;"/>
    <path clip-path="url(#pfa7244b26a)" d="M 664.311391 161.885483 
L 686.7887 166.788285 
L 698.904882 158.329691 
L 676.57049 153.517228 
z
" style="fill:#0aa384;fill-opacity:0.8;"/>
    <path clip-path="url(#pfa7244b26a)" d="M 686.753102 168.174112 
L 698.863088 159.70722 
L 698.904882 158.329691 
L 686.7887 166.788285 
z
" style="fill:#065d4c;fill-opacity:0.8;"/>
    <path clip-path="url(#pfa7244b26a)" d="M 664.288139 163.26651 
L 686.753102 168.174112 
L 686.7887 166.788285 
L 664.311391 161.885483 
z
" style="fill:#0cba97;fill-opacity:0.8;"/>
   </g>
   <g id="Poly3DCollection_22">
    <path clip-path="url(#pfa7244b26a)" d="M 607.315004 161.960473 
L 607.313137 161.619934 
L 629.441047 166.512206 
L 629.439957 166.853928 
z
" style="fill:#065d4c;fill-opacity:0.8;"/>
    <path clip-path="url(#pfa7244b26a)" d="M 594.315289 170.469809 
L 594.311655 170.127218 
L 607.313137 161.619934 
L 607.315004 161.960473 
z
" style="fill:#0cba97;fill-opacity:0.8;"/>
    <path clip-path="url(#pfa7244b26a)" d="M 594.315289 170.469809 
L 607.315004 161.960473 
L 629.439957 166.853928 
L 616.57821 175.455808 
z
" style="fill:#08745e;fill-opacity:0.8;"/>
    <path clip-path="url(#pfa7244b26a)" d="M 594.311655 170.127218 
L 616.577569 175.112025 
L 629.441047 166.512206 
L 607.313137 161.619934 
z
" style="fill:#0aa384;fill-opacity:0.8;"/>
    <path clip-path="url(#pfa7244b26a)" d="M 616.57821 175.455808 
L 629.439957 166.853928 
L 629.441047 166.512206 
L 616.577569 175.112025 
z
" style="fill:#065d4c;fill-opacity:0.8;"/>
    <path clip-path="url(#pfa7244b26a)" d="M 594.315289 170.469809 
L 616.57821 175.455808 
L 616.577569 175.112025 
L 594.311655 170.127218 
z
" style="fill:#0cba97;fill-opacity:0.8;"/>
   </g>
   <g id="Poly3DCollection_23">
    <path clip-path="url(#pfa7244b26a)" d="M 721.425662 164.576315 
L 721.425662 164.576315 
L 744.232511 169.498126 
L 744.232511 169.498126 
z
" style="fill:#065d4c;fill-opacity:0.8;"/>
    <path clip-path="url(#pfa7244b26a)" d="M 709.462251 173.135058 
L 709.462251 173.135058 
L 721.425662 164.576315 
L 721.425662 164.576315 
z
" style="fill:#065d4c;fill-opacity:0.8;"/>
    <path clip-path="url(#pfa7244b26a)" d="M 709.462251 173.135058 
L 721.425662 164.576315 
L 744.232511 169.498126 
L 732.419588 178.150223 
z
" style="fill:#08745e;fill-opacity:0.8;"/>
    <path clip-path="url(#pfa7244b26a)" d="M 709.462251 173.135058 
L 732.419588 178.150223 
L 744.232511 169.498126 
L 721.425662 164.576315 
z
" style="fill:#0aa384;fill-opacity:0.8;"/>
    <path clip-path="url(#pfa7244b26a)" d="M 732.419588 178.150223 
L 744.232511 169.498126 
L 744.232511 169.498126 
L 732.419588 178.150223 
z
" style="fill:#065d4c;fill-opacity:0.8;"/>
    <path clip-path="url(#pfa7244b26a)" d="M 709.462251 173.135058 
L 732.419588 178.150223 
L 732.419588 178.150223 
L 709.462251 173.135058 
z
" style="fill:#065d4c;fill-opacity:0.8;"/>
   </g>
   <g id="Poly3DCollection_24">
    <path clip-path="url(#pfa7244b26a)" d="M 536.992239 169.142981 
L 537.009975 169.678632 
L 558.924029 174.652006 
L 558.910832 174.114493 
z
" style="fill:#0cba97;fill-opacity:0.8;"/>
    <path clip-path="url(#pfa7244b26a)" d="M 523.223229 177.788324 
L 523.244056 178.327207 
L 537.009975 169.678632 
L 536.992239 169.142981 
z
" style="fill:#065d4c;fill-opacity:0.8;"/>
    <path clip-path="url(#pfa7244b26a)" d="M 523.244056 178.327207 
L 545.290944 183.395373 
L 558.924029 174.652006 
L 537.009975 169.678632 
z
" style="fill:#0aa384;fill-opacity:0.8;"/>
    <path clip-path="url(#pfa7244b26a)" d="M 523.223229 177.788324 
L 536.992239 169.142981 
L 558.910832 174.114493 
L 545.27471 182.854613 
z
" style="fill:#08745e;fill-opacity:0.8;"/>
    <path clip-path="url(#pfa7244b26a)" d="M 545.27471 182.854613 
L 558.910832 174.114493 
L 558.924029 174.652006 
L 545.290944 183.395373 
z
" style="fill:#0cba97;fill-opacity:0.8;"/>
    <path clip-path="url(#pfa7244b26a)" d="M 523.223229 177.788324 
L 545.27471 182.854613 
L 545.290944 183.395373 
L 523.244056 178.327207 
z
" style="fill:#065d4c;fill-opacity:0.8;"/>
   </g>
   <g id="Poly3DCollection_25">
    <path clip-path="url(#pfa7244b26a)" d="M 651.80505 171.800496 
L 651.80505 171.800496 
L 674.414215 176.801046 
L 674.414215 176.801046 
z
" style="fill:#065d4c;fill-opacity:0.8;"/>
    <path clip-path="url(#pfa7244b26a)" d="M 639.08506 180.496437 
L 639.08506 180.496437 
L 651.80505 171.800496 
L 651.80505 171.800496 
z
" style="fill:#065d4c;fill-opacity:0.8;"/>
    <path clip-path="url(#pfa7244b26a)" d="M 639.08506 180.496437 
L 651.80505 171.800496 
L 674.414215 176.801046 
L 661.839873 185.5926 
z
" style="fill:#08745e;fill-opacity:0.8;"/>
    <path clip-path="url(#pfa7244b26a)" d="M 639.08506 180.496437 
L 661.839873 185.5926 
L 674.414215 176.801046 
L 651.80505 171.800496 
z
" style="fill:#0aa384;fill-opacity:0.8;"/>
    <path clip-path="url(#pfa7244b26a)" d="M 661.839873 185.5926 
L 674.414215 176.801046 
L 674.414215 176.801046 
L 661.839873 185.5926 
z
" style="fill:#065d4c;fill-opacity:0.8;"/>
    <path clip-path="url(#pfa7244b26a)" d="M 639.08506 180.496437 
L 661.839873 185.5926 
L 661.839873 185.5926 
L 639.08506 180.496437 
z
" style="fill:#065d4c;fill-opacity:0.8;"/>
   </g>
   <g id="Poly3DCollection_26">
    <path clip-path="url(#pfa7244b26a)" d="M 581.06923 179.140396 
L 581.06923 179.140396 
L 603.471392 184.221589 
L 603.471392 184.221589 
z
" style="fill:#065d4c;fill-opacity:0.8;"/>
    <path clip-path="url(#pfa7244b26a)" d="M 567.569759 187.976862 
L 567.569759 187.976862 
L 581.06923 179.140396 
L 581.06923 179.140396 
z
" style="fill:#065d4c;fill-opacity:0.8;"/>
    <path clip-path="url(#pfa7244b26a)" d="M 567.569759 187.976862 
L 581.06923 179.140396 
L 603.471392 184.221589 
L 590.112433 193.156002 
z
" style="fill:#08745e;fill-opacity:0.8;"/>
    <path clip-path="url(#pfa7244b26a)" d="M 567.569759 187.976862 
L 590.112433 193.156002 
L 603.471392 184.221589 
L 581.06923 179.140396 
z
" style="fill:#0aa384;fill-opacity:0.8;"/>
    <path clip-path="url(#pfa7244b26a)" d="M 590.112433 193.156002 
L 603.471392 184.221589 
L 603.471392 184.221589 
L 590.112433 193.156002 
z
" style="fill:#065d4c;fill-opacity:0.8;"/>
    <path clip-path="url(#pfa7244b26a)" d="M 567.569759 187.976862 
L 590.112433 193.156002 
L 590.112433 193.156002 
L 567.569759 187.976862 
z
" style="fill:#065d4c;fill-opacity:0.8;"/>
   </g>
   <g id="Poly3DCollection_27">
    <path clip-path="url(#pfa7244b26a)" d="M 697.271468 181.856466 
L 697.229575 183.253979 
L 720.325975 188.370049 
L 720.380915 186.967665 
z
" style="fill:#0cba97;fill-opacity:0.8;"/>
    <path clip-path="url(#pfa7244b26a)" d="M 684.846768 190.74522 
L 684.811391 192.151184 
L 697.229575 183.253979 
L 697.271468 181.856466 
z
" style="fill:#065d4c;fill-opacity:0.8;"/>
    <path clip-path="url(#pfa7244b26a)" d="M 684.811391 192.151184 
L 708.061358 197.366112 
L 720.325975 188.370049 
L 697.229575 183.253979 
z
" style="fill:#0aa384;fill-opacity:0.8;"/>
    <path clip-path="url(#pfa7244b26a)" d="M 684.846768 190.74522 
L 697.271468 181.856466 
L 720.380915 186.967665 
L 708.109957 195.955238 
z
" style="fill:#08745e;fill-opacity:0.8;"/>
    <path clip-path="url(#pfa7244b26a)" d="M 708.109957 195.955238 
L 720.380915 186.967665 
L 720.325975 188.370049 
L 708.061358 197.366112 
z
" style="fill:#0cba97;fill-opacity:0.8;"/>
    <path clip-path="url(#pfa7244b26a)" d="M 684.846768 190.74522 
L 708.109957 195.955238 
L 708.061358 197.366112 
L 684.811391 192.151184 
z
" style="fill:#065d4c;fill-opacity:0.8;"/>
   </g>
   <g id="Poly3DCollection_28">
    <path clip-path="url(#pfa7244b26a)" d="M 509.19119 186.598819 
L 509.19119 186.598819 
L 531.376654 191.762622 
L 531.376654 191.762622 
z
" style="fill:#065d4c;fill-opacity:0.8;"/>
    <path clip-path="url(#pfa7244b26a)" d="M 494.888513 195.579243 
L 494.888513 195.579243 
L 509.19119 186.598819 
L 509.19119 186.598819 
z
" style="fill:#065d4c;fill-opacity:0.8;"/>
    <path clip-path="url(#pfa7244b26a)" d="M 494.888513 195.579243 
L 509.19119 186.598819 
L 531.376654 191.762622 
L 517.209043 200.843403 
z
" style="fill:#08745e;fill-opacity:0.8;"/>
    <path clip-path="url(#pfa7244b26a)" d="M 494.888513 195.579243 
L 517.209043 200.843403 
L 531.376654 191.762622 
L 509.19119 186.598819 
z
" style="fill:#0aa384;fill-opacity:0.8;"/>
    <path clip-path="url(#pfa7244b26a)" d="M 517.209043 200.843403 
L 531.376654 191.762622 
L 531.376654 191.762622 
L 517.209043 200.843403 
z
" style="fill:#065d4c;fill-opacity:0.8;"/>
    <path clip-path="url(#pfa7244b26a)" d="M 494.888513 195.579243 
L 517.209043 200.843403 
L 517.209043 200.843403 
L 494.888513 195.579243 
z
" style="fill:#065d4c;fill-opacity:0.8;"/>
   </g>
   <g id="Poly3DCollection_29">
    <path clip-path="url(#pfa7244b26a)" d="M 626.121361 189.358989 
L 626.120701 189.705963 
L 649.019446 194.90172 
L 649.023273 194.553534 
z
" style="fill:#0cba97;fill-opacity:0.8;"/>
    <path clip-path="url(#pfa7244b26a)" d="M 612.906881 198.392986 
L 612.908047 198.742063 
L 626.120701 189.705963 
L 626.121361 189.358989 
z
" style="fill:#065d4c;fill-opacity:0.8;"/>
    <path clip-path="url(#pfa7244b26a)" d="M 612.908047 198.742063 
L 635.955303 204.039088 
L 649.019446 194.90172 
L 626.120701 189.705963 
z
" style="fill:#0aa384;fill-opacity:0.8;"/>
    <path clip-path="url(#pfa7244b26a)" d="M 612.906881 198.392986 
L 626.121361 189.358989 
L 649.023273 194.553534 
L 635.957345 203.68879 
z
" style="fill:#08745e;fill-opacity:0.8;"/>
    <path clip-path="url(#pfa7244b26a)" d="M 635.957345 203.68879 
L 649.023273 194.553534 
L 649.019446 194.90172 
L 635.955303 204.039088 
z
" style="fill:#0cba97;fill-opacity:0.8;"/>
    <path clip-path="url(#pfa7244b26a)" d="M 612.906881 198.392986 
L 635.957345 203.68879 
L 635.955303 204.039088 
L 612.908047 198.742063 
z
" style="fill:#065d4c;fill-opacity:0.8;"/>
   </g>
   <g id="Poly3DCollection_30">
    <path clip-path="url(#pfa7244b26a)" d="M 553.809532 196.984012 
L 553.794894 196.437842 
L 576.484212 201.715877 
L 576.493986 202.263959 
z
" style="fill:#065d4c;fill-opacity:0.8;"/>
    <path clip-path="url(#pfa7244b26a)" d="M 539.780921 206.166841 
L 539.763069 205.617355 
L 553.794894 196.437842 
L 553.809532 196.984012 
z
" style="fill:#0cba97;fill-opacity:0.8;"/>
    <path clip-path="url(#pfa7244b26a)" d="M 539.780921 206.166841 
L 553.809532 196.984012 
L 576.493986 202.263959 
L 562.608416 211.550566 
z
" style="fill:#08745e;fill-opacity:0.8;"/>
    <path clip-path="url(#pfa7244b26a)" d="M 539.763069 205.617355 
L 562.595489 210.999153 
L 576.484212 201.715877 
L 553.794894 196.437842 
z
" style="fill:#0aa384;fill-opacity:0.8;"/>
    <path clip-path="url(#pfa7244b26a)" d="M 562.608416 211.550566 
L 576.493986 202.263959 
L 576.484212 201.715877 
L 562.595489 210.999153 
z
" style="fill:#065d4c;fill-opacity:0.8;"/>
    <path clip-path="url(#pfa7244b26a)" d="M 539.780921 206.166841 
L 562.608416 211.550566 
L 562.595489 210.999153 
L 539.763069 205.617355 
z
" style="fill:#0cba97;fill-opacity:0.8;"/>
   </g>
   <g id="Poly3DCollection_31">
    <path clip-path="url(#pfa7244b26a)" d="M 672.181354 199.806183 
L 672.185435 199.604295 
L 695.605921 204.915321 
L 695.599926 205.117915 
z
" style="fill:#065d4c;fill-opacity:0.8;"/>
    <path clip-path="url(#pfa7244b26a)" d="M 659.268161 209.044409 
L 659.271237 208.841295 
L 672.185435 199.604295 
L 672.181354 199.806183 
z
" style="fill:#0cba97;fill-opacity:0.8;"/>
    <path clip-path="url(#pfa7244b26a)" d="M 659.268161 209.044409 
L 672.181354 199.806183 
L 695.599926 205.117915 
L 682.843767 214.460863 
z
" style="fill:#08745e;fill-opacity:0.8;"/>
    <path clip-path="url(#pfa7244b26a)" d="M 659.271237 208.841295 
L 682.848781 214.257037 
L 695.605921 204.915321 
L 672.185435 199.604295 
z
" style="fill:#0aa384;fill-opacity:0.8;"/>
    <path clip-path="url(#pfa7244b26a)" d="M 682.843767 214.460863 
L 695.599926 205.117915 
L 695.605921 204.915321 
L 682.848781 214.257037 
z
" style="fill:#065d4c;fill-opacity:0.8;"/>
    <path clip-path="url(#pfa7244b26a)" d="M 659.268161 209.044409 
L 682.843767 214.460863 
L 682.848781 214.257037 
L 659.271237 208.841295 
z
" style="fill:#0cba97;fill-opacity:0.8;"/>
   </g>
   <g id="Poly3DCollection_32">
    <path clip-path="url(#pfa7244b26a)" d="M 599.434272 207.603451 
L 599.439804 208.237634 
L 622.634406 213.639909 
L 622.634742 213.003503 
z
" style="fill:#0cba97;fill-opacity:0.8;"/>
    <path clip-path="url(#pfa7244b26a)" d="M 585.695895 216.995606 
L 585.70499 217.633645 
L 599.439804 208.237634 
L 599.434272 207.603451 
z
" style="fill:#065d4c;fill-opacity:0.8;"/>
    <path clip-path="url(#pfa7244b26a)" d="M 585.70499 217.633645 
L 609.050976 223.143293 
L 622.634406 213.639909 
L 599.439804 208.237634 
z
" style="fill:#0aa384;fill-opacity:0.8;"/>
    <path clip-path="url(#pfa7244b26a)" d="M 585.695895 216.995606 
L 599.434272 207.603451 
L 622.634742 213.003503 
L 609.047826 222.503016 
z
" style="fill:#08745e;fill-opacity:0.8;"/>
    <path clip-path="url(#pfa7244b26a)" d="M 609.047826 222.503016 
L 622.634742 213.003503 
L 622.634406 213.639909 
L 609.050976 223.143293 
z
" style="fill:#0cba97;fill-opacity:0.8;"/>
    <path clip-path="url(#pfa7244b26a)" d="M 585.695895 216.995606 
L 609.047826 222.503016 
L 609.050976 223.143293 
L 585.70499 217.633645 
z
" style="fill:#065d4c;fill-opacity:0.8;"/>
   </g>
   <g id="Poly3DCollection_33">
    <path clip-path="url(#pfa7244b26a)" d="M 646.099848 218.465151 
L 646.102007 218.247566 
L 669.838395 223.771106 
L 669.834144 223.989455 
z
" style="fill:#065d4c;fill-opacity:0.8;"/>
    <path clip-path="url(#pfa7244b26a)" d="M 632.668777 228.073872 
L 632.669777 227.854962 
L 646.102007 218.247566 
L 646.099848 218.465151 
z
" style="fill:#0cba97;fill-opacity:0.8;"/>
    <path clip-path="url(#pfa7244b26a)" d="M 632.668777 228.073872 
L 646.099848 218.465151 
L 669.834144 223.989455 
L 656.563426 233.709279 
z
" style="fill:#08745e;fill-opacity:0.8;"/>
    <path clip-path="url(#pfa7244b26a)" d="M 632.669777 227.854962 
L 656.566546 233.489599 
L 669.838395 223.771106 
L 646.102007 218.247566 
z
" style="fill:#0aa384;fill-opacity:0.8;"/>
    <path clip-path="url(#pfa7244b26a)" d="M 656.563426 233.709279 
L 669.834144 223.989455 
L 669.838395 223.771106 
L 656.566546 233.489599 
z
" style="fill:#065d4c;fill-opacity:0.8;"/>
    <path clip-path="url(#pfa7244b26a)" d="M 632.668777 228.073872 
L 656.563426 233.709279 
L 656.566546 233.489599 
L 632.669777 227.854962 
z
" style="fill:#0cba97;fill-opacity:0.8;"/>
   </g>
   <g id="Poly3DCollection_34">
    <path clip-path="url(#pfa7244b26a)" d="M 482.047293 196.922421 
L 660.304369 239.159366 
L 756.337088 168.232 
L 586.580445 131.752809 
z
" style="fill-opacity:0.2;"/>
   </g>
  </g>
 </g>
 <defs>
  <clipPath id="p4e9758c580">
   <rect height="277.2" width="380.454545" x="-30.6" y="-14.4"/>
  </clipPath>
  <clipPath id="pfa7244b26a">
   <rect height="277.2" width="380.454545" x="425.945455" y="-14.4"/>
  </clipPath>
 </defs>
</svg>
