<?xml version="1.0" encoding="utf-8" standalone="no"?>
<!DOCTYPE svg PUBLIC "-//W3C//DTD SVG 1.1//EN"
  "http://www.w3.org/Graphics/SVG/1.1/DTD/svg11.dtd">
<!-- Created with matplotlib (https://matplotlib.org/) -->
<svg height="302.4pt" version="1.1" viewBox="0 0 820.8 302.4" width="820.8pt" xmlns="http://www.w3.org/2000/svg" xmlns:xlink="http://www.w3.org/1999/xlink">
 <defs>
  <style type="text/css">
*{stroke-linecap:butt;stroke-linejoin:round;}
  </style>
 </defs>
 <g id="figure_1">
  <g id="patch_1">
   <path d="M 0 302.4 
L 820.8 302.4 
L 820.8 0 
L 0 0 
z
" style="fill:#ffffff;"/>
  </g>
  <g id="patch_2">
   <path d="M -30.6 262.8 
L 349.854545 262.8 
L 349.854545 -14.4 
L -30.6 -14.4 
z
" style="fill:#ffffff;"/>
  </g>
  <g id="pane3d_1">
   <g id="patch_3">
    <path d="M 19.835129 201.548569 
L 128.723211 133.58541 
L 126.910339 3.718968 
L 11.951034 64.782468 
" style="fill:#f2f2f2;opacity:0.5;stroke:#f2f2f2;stroke-linejoin:miter;"/>
   </g>
  </g>
  <g id="pane3d_2">
   <g id="patch_4">
    <path d="M 128.723211 133.58541 
L 305.111665 171.581202 
L 312.491547 37.79869 
L 126.910339 3.718968 
" style="fill:#e6e6e6;opacity:0.5;stroke:#e6e6e6;stroke-linejoin:miter;"/>
   </g>
  </g>
  <g id="pane3d_3">
   <g id="patch_5">
    <path d="M 19.835129 201.548569 
L 205.419617 245.80086 
L 305.111665 171.581202 
L 128.723211 133.58541 
" style="fill:#ececec;opacity:0.5;stroke:#ececec;stroke-linejoin:miter;"/>
   </g>
  </g>
  <g id="axis3d_1">
   <g id="line2d_1">
    <path d="M 19.835129 201.548569 
L 205.419617 245.80086 
" style="fill:none;stroke:#000000;stroke-linecap:square;stroke-width:0.8;"/>
   </g>
   <g id="Line3DCollection_1">
    <path d="M 42.295817 206.90428 
L 150.133942 138.19749 
L 149.393845 7.847789 
" style="fill:none;stroke:#b0b0b0;stroke-width:0.8;"/>
    <path d="M 87.512337 217.686079 
L 193.184014 147.470895 
L 194.636898 16.156123 
" style="fill:none;stroke:#b0b0b0;stroke-width:0.8;"/>
    <path d="M 133.765289 228.715013 
L 237.148096 156.941187 
L 240.890183 24.649974 
" style="fill:none;stroke:#b0b0b0;stroke-width:0.8;"/>
    <path d="M 181.090721 239.999678 
L 282.055608 166.614702 
L 288.187917 33.335625 
" style="fill:none;stroke:#b0b0b0;stroke-width:0.8;"/>
   </g>
   <g id="xtick_1">
    <g id="line2d_2">
     <path d="M 43.225084 206.312217 
L 40.433807 208.09062 
" style="fill:none;stroke:#000000;stroke-linecap:square;stroke-width:0.8;"/>
    </g>
    <g id="text_1">
     <!-- 00 -->
     <defs>
      <path d="M 42 31.84375 
C 42 37.96875 41.90625 48.421875 37.703125 56.453125 
C 34 63.484375 28.09375 66 22.90625 66 
C 18.09375 66 12 63.78125 8.203125 56.5625 
C 4.203125 49.015625 3.796875 39.671875 3.796875 31.84375 
C 3.796875 26.109375 3.90625 17.375 7 9.734375 
C 11.296875 -0.609375 19 -2 22.90625 -2 
C 27.5 -2 34.5 -0.109375 38.59375 9.4375 
C 41.59375 16.375 42 24.5 42 31.84375 
z
M 22.90625 -0.40625 
C 16.5 -0.40625 12.703125 5.125 11.296875 12.75 
C 10.203125 18.6875 10.203125 27.328125 10.203125 32.953125 
C 10.203125 40.6875 10.203125 47.109375 11.5 53.234375 
C 13.40625 61.78125 19 64.390625 22.90625 64.390625 
C 27 64.390625 32.296875 61.671875 34.203125 53.4375 
C 35.5 47.71875 35.59375 40.984375 35.59375 32.953125 
C 35.59375 26.421875 35.59375 18.375 34.40625 12.453125 
C 32.296875 1.5 26.40625 -0.40625 22.90625 -0.40625 
z
" id="CMR17-48"/>
     </defs>
     <g transform="translate(23.330362 237.14703)rotate(-45)scale(0.14 -0.14)">
      <use transform="scale(0.996264)" xlink:href="#CMR17-48"/>
      <use transform="translate(45.690477 0)scale(0.996264)" xlink:href="#CMR17-48"/>
     </g>
    </g>
   </g>
   <g id="xtick_2">
    <g id="line2d_3">
     <path d="M 88.423674 217.080527 
L 85.686217 218.899473 
" style="fill:none;stroke:#000000;stroke-linecap:square;stroke-width:0.8;"/>
    </g>
    <g id="text_2">
     <!-- 01 -->
     <defs>
      <path d="M 26.59375 63.796875 
C 26.59375 65.890625 26.5 66 25.09375 66 
C 21.203125 61.359375 15.296875 59.890625 9.703125 59.6875 
C 9.40625 59.6875 8.90625 59.6875 8.796875 59.5 
C 8.703125 59.296875 8.703125 59.09375 8.703125 57 
C 11.796875 57 17 57.59375 21 59.984375 
L 21 7.296875 
C 21 3.796875 20.796875 2.59375 12.203125 2.59375 
L 9.203125 2.59375 
L 9.203125 0 
C 14 0.09375 19 0.1875 23.796875 0.1875 
C 28.59375 0.1875 33.59375 0.09375 38.40625 0 
L 38.40625 2.59375 
L 35.40625 2.59375 
C 26.796875 2.59375 26.59375 3.6875 26.59375 7.296875 
z
" id="CMR17-49"/>
     </defs>
     <g transform="translate(68.542787 248.103782)rotate(-45)scale(0.14 -0.14)">
      <use transform="scale(0.996264)" xlink:href="#CMR17-48"/>
      <use transform="translate(45.690477 0)scale(0.996264)" xlink:href="#CMR17-49"/>
     </g>
    </g>
   </g>
   <g id="xtick_3">
    <g id="line2d_4">
     <path d="M 134.657625 228.095506 
L 131.977203 229.956397 
" style="fill:none;stroke:#000000;stroke-linecap:square;stroke-width:0.8;"/>
    </g>
    <g id="text_3">
     <!-- 10 -->
     <g transform="translate(114.7934 259.312128)rotate(-45)scale(0.14 -0.14)">
      <use transform="scale(0.996264)" xlink:href="#CMR17-49"/>
      <use transform="translate(45.690477 0)scale(0.996264)" xlink:href="#CMR17-48"/>
     </g>
    </g>
   </g>
   <g id="xtick_4">
    <g id="line2d_5">
     <path d="M 181.962926 239.365727 
L 179.342936 241.270032 
" style="fill:none;stroke:#000000;stroke-linecap:square;stroke-width:0.8;"/>
    </g>
    <g id="text_4">
     <!-- 11 -->
     <g transform="translate(162.118375 270.780834)rotate(-45)scale(0.14 -0.14)">
      <use transform="scale(0.996264)" xlink:href="#CMR17-49"/>
      <use transform="translate(45.690477 0)scale(0.996264)" xlink:href="#CMR17-49"/>
     </g>
    </g>
   </g>
  </g>
  <g id="axis3d_2">
   <g id="line2d_6">
    <path d="M 305.111665 171.581202 
L 205.419617 245.80086 
" style="fill:none;stroke:#000000;stroke-linecap:square;stroke-width:0.8;"/>
   </g>
   <g id="Line3DCollection_2">
    <path d="M 27.455231 56.547028 
L 34.471044 192.413474 
L 218.858418 235.795817 
" style="fill:none;stroke:#b0b0b0;stroke-width:0.8;"/>
    <path d="M 57.232024 40.730342 
L 62.623407 174.842005 
L 244.674037 216.576366 
" style="fill:none;stroke:#b0b0b0;stroke-width:0.8;"/>
    <path d="M 85.85589 25.526062 
L 89.739382 157.917404 
L 269.496985 198.095948 
" style="fill:none;stroke:#b0b0b0;stroke-width:0.8;"/>
    <path d="M 113.392516 10.899296 
L 115.875164 141.604597 
L 293.383438 180.312741 
" style="fill:none;stroke:#b0b0b0;stroke-width:0.8;"/>
   </g>
   <g id="xtick_5">
    <g id="line2d_7">
     <path d="M 217.315598 235.432825 
L 221.947489 236.522608 
" style="fill:none;stroke:#000000;stroke-linecap:square;stroke-width:0.8;"/>
    </g>
    <g id="text_5">
     <!-- 00 -->
     <g transform="translate(232.650369 248.348363)rotate(-337.5)scale(0.14 -0.14)">
      <use transform="scale(0.996264)" xlink:href="#CMR17-48"/>
      <use transform="translate(45.690477 0)scale(0.996264)" xlink:href="#CMR17-48"/>
     </g>
    </g>
   </g>
   <g id="xtick_6">
    <g id="line2d_8">
     <path d="M 243.15208 216.227463 
L 247.72127 217.274932 
" style="fill:none;stroke:#000000;stroke-linecap:square;stroke-width:0.8;"/>
    </g>
    <g id="text_6">
     <!-- 01 -->
     <g transform="translate(258.203921 228.903937)rotate(-337.5)scale(0.14 -0.14)">
      <use transform="scale(0.996264)" xlink:href="#CMR17-48"/>
      <use transform="translate(45.690477 0)scale(0.996264)" xlink:href="#CMR17-49"/>
     </g>
    </g>
   </g>
   <g id="xtick_7">
    <g id="line2d_9">
     <path d="M 267.995442 197.76033 
L 272.503283 198.767901 
" style="fill:none;stroke:#000000;stroke-linecap:square;stroke-width:0.8;"/>
    </g>
    <g id="text_7">
     <!-- 10 -->
     <g transform="translate(282.775332 210.206849)rotate(-337.5)scale(0.14 -0.14)">
      <use transform="scale(0.996264)" xlink:href="#CMR17-49"/>
      <use transform="translate(45.690477 0)scale(0.996264)" xlink:href="#CMR17-48"/>
     </g>
    </g>
   </g>
   <g id="xtick_8">
    <g id="line2d_10">
     <path d="M 291.901865 179.989663 
L 296.349691 180.959573 
" style="fill:none;stroke:#000000;stroke-linecap:square;stroke-width:0.8;"/>
    </g>
    <g id="text_8">
     <!-- 11 -->
     <g transform="translate(306.420159 192.214827)rotate(-337.5)scale(0.14 -0.14)">
      <use transform="scale(0.996264)" xlink:href="#CMR17-49"/>
      <use transform="translate(45.690477 0)scale(0.996264)" xlink:href="#CMR17-49"/>
     </g>
    </g>
   </g>
  </g>
  <g id="axis3d_3">
   <g id="line2d_11">
    <path d="M 305.111665 171.581202 
L 312.491547 37.79869 
" style="fill:none;stroke:#000000;stroke-linecap:square;stroke-width:0.8;"/>
   </g>
   <g id="text_9">
    <!-- Re[$\rho$] -->
    <defs>
     <path d="M 39.203125 33.6875 
C 48.703125 35.59375 56.703125 42.015625 56.703125 50.046875 
C 56.703125 59.46875 46.09375 68 32.09375 68 
L 5.203125 68 
L 5.203125 65.390625 
C 12.09375 65.390625 13.203125 65.390625 13.203125 60.875 
L 13.203125 6.6875 
C 13.203125 2.1875 12.09375 2.1875 5.203125 2.1875 
L 5.203125 -0.40625 
C 8.09375 -0.203125 13.296875 -0.203125 16.40625 -0.203125 
C 19.5 -0.203125 24.703125 -0.203125 27.59375 -0.40625 
L 27.59375 2.1875 
C 20.703125 2.1875 19.59375 2.1875 19.59375 6.6875 
L 19.59375 33 
L 31.296875 33 
C 37 33 40.203125 30.6875 41.59375 29.390625 
C 45.59375 25.5 45.59375 22.796875 45.59375 16 
C 45.59375 9.296875 45.59375 5.890625 48.59375 2.5 
C 52.40625 -1.609375 57.5 -2 59.703125 -2 
C 67.09375 -2 68.203125 6.296875 68.203125 8 
C 68.203125 8.59375 68.203125 9.296875 67.296875 9.296875 
C 66.5 9.296875 66.40625 8.6875 66.40625 8.296875 
C 65.90625 1.796875 63 -0.40625 59.90625 -0.40625 
C 54.40625 -0.40625 53.796875 5.890625 53.203125 12 
C 52.90625 14.09375 52.703125 15.59375 52.5 17.796875 
C 51.90625 22.796875 51.09375 30.09375 39.203125 33.6875 
z
M 31 34.59375 
L 19.59375 34.59375 
L 19.59375 61.484375 
C 19.59375 64.890625 19.796875 65.390625 23.796875 65.390625 
L 31.09375 65.390625 
C 39.40625 65.390625 49.09375 62.484375 49.09375 50.046875 
C 49.09375 37.09375 38.5 34.59375 31 34.59375 
z
" id="CMR17-82"/>
     <path d="M 38.09375 23.484375 
C 38.5 23.890625 38.5 24.09375 38.5 25.09375 
C 38.5 35.171875 33.09375 44 21.703125 44 
C 11.09375 44 2.703125 33.984375 2.703125 21.78125 
C 2.703125 8.65625 12.203125 -1 22.796875 -1 
C 34 -1 38.40625 9.671875 38.40625 11.796875 
C 38.40625 12.5 37.796875 12.5 37.59375 12.5 
C 36.90625 12.5 36.796875 12.296875 36.40625 11.078125 
C 34.203125 4.21875 28.703125 0.796875 23.5 0.796875 
C 19.203125 0.796875 14.90625 3.21875 12.203125 7.65625 
C 9.09375 12.796875 9.09375 18.75 9.09375 23.484375 
z
M 9.203125 25 
C 9.90625 39.234375 17.59375 42.390625 21.59375 42.390625 
C 28.40625 42.390625 33 36.0625 33.09375 25 
z
" id="CMR17-101"/>
     <path d="M 23.5 -25 
L 23.5 -21.5 
L 14.09375 -21.5 
L 14.09375 71.484375 
L 23.5 71.484375 
L 23.5 75 
L 10.59375 75 
L 10.59375 -25 
z
" id="CMR17-91"/>
     <path d="M 3.09375 -16.953125 
C 3 -17.4375 2.796875 -18.03125 2.796875 -18.609375 
C 2.796875 -20.109375 4 -21.109375 5.5 -21.109375 
C 7 -21.109375 8.40625 -20.109375 9 -18.71875 
C 9.40625 -17.828125 12.203125 -6.09375 15.40625 6.078125 
C 17.40625 1.09375 21.09375 -1 25 -1 
C 36.296875 -1 49.09375 12.96875 49.09375 28.03125 
C 49.09375 38.703125 42.59375 44 35.703125 44 
C 26.90625 44 16.203125 34.90625 12.90625 21.640625 
z
M 24.90625 1 
C 18.09375 1 16.40625 8.875 16.40625 10.078125 
C 16.40625 10.671875 18.90625 20.140625 19.203125 21.640625 
C 24.296875 41.5 34.09375 41.984375 35.59375 41.984375 
C 40.09375 41.984375 42.59375 37.90625 42.59375 32.015625 
C 42.59375 26.9375 39.90625 17.046875 38.203125 12.859375 
C 35.203125 5.984375 30 1 24.90625 1 
z
" id="CMMI12-26"/>
     <path d="M 14.296875 75 
L 1.40625 75 
L 1.40625 71.484375 
L 10.796875 71.484375 
L 10.796875 -21.5 
L 1.40625 -21.5 
L 1.40625 -25 
L 14.296875 -25 
z
" id="CMR17-93"/>
    </defs>
    <g transform="translate(352.486567 117.931831)rotate(-86.842577)scale(0.14 -0.14)">
     <use transform="scale(0.996264)" xlink:href="#CMR17-82"/>
     <use transform="translate(67.791102 0)scale(0.996264)" xlink:href="#CMR17-101"/>
     <use transform="translate(108.276762 0)scale(0.996264)" xlink:href="#CMR17-91"/>
     <use transform="translate(133.147821 0)scale(0.996264)" xlink:href="#CMMI12-26"/>
     <use transform="translate(183.462194 0)scale(0.996264)" xlink:href="#CMR17-93"/>
    </g>
   </g>
   <g id="Line3DCollection_3">
    <path d="M 305.337609 167.485299 
L 128.66759 129.600998 
L 19.594151 197.368302 
" style="fill:none;stroke:#b0b0b0;stroke-width:0.8;"/>
    <path d="M 308.042987 118.442195 
L 128.002184 81.934135 
L 16.70678 147.280828 
" style="fill:none;stroke:#b0b0b0;stroke-width:0.8;"/>
    <path d="M 310.854544 67.474289 
L 127.311789 32.477104 
L 13.702225 95.160545 
" style="fill:none;stroke:#b0b0b0;stroke-width:0.8;"/>
   </g>
   <g id="xtick_9">
    <g id="line2d_12">
     <path d="M 303.863513 167.169201 
L 308.288869 168.118154 
" style="fill:none;stroke:#000000;stroke-linecap:square;stroke-width:0.8;"/>
    </g>
    <g id="text_10">
     <!-- $0.0$ -->
     <defs>
      <path d="M 18.40625 4.796875 
C 18.40625 7.6875 16 9.6875 13.59375 9.6875 
C 10.703125 9.6875 8.703125 7.296875 8.703125 4.890625 
C 8.703125 2 11.09375 0 13.5 0 
C 16.40625 0 18.40625 2.390625 18.40625 4.796875 
z
" id="CMMI12-58"/>
     </defs>
     <g transform="translate(315.151182 175.232384)scale(0.14 -0.14)">
      <use transform="scale(0.996264)" xlink:href="#CMR17-48"/>
      <use transform="translate(45.690477 0)scale(0.996264)" xlink:href="#CMMI12-58"/>
      <use transform="translate(72.787654 0)scale(0.996264)" xlink:href="#CMR17-48"/>
     </g>
    </g>
   </g>
   <g id="xtick_10">
    <g id="line2d_13">
     <path d="M 306.539575 118.137338 
L 311.053 119.052555 
" style="fill:none;stroke:#000000;stroke-linecap:square;stroke-width:0.8;"/>
    </g>
    <g id="text_11">
     <!-- $0.2$ -->
     <defs>
      <path d="M 41.703125 15.46875 
L 39.90625 15.46875 
C 38.90625 8.390625 38.09375 7.1875 37.703125 6.59375 
C 37.203125 5.796875 30 5.796875 28.59375 5.796875 
L 9.40625 5.796875 
C 13 9.6875 20 16.765625 28.5 24.9375 
C 34.59375 30.71875 41.703125 37.5 41.703125 47.390625 
C 41.703125 59.1875 32.296875 66 21.796875 66 
C 10.796875 66 4.09375 56.296875 4.09375 47.296875 
C 4.09375 43.390625 7 42.890625 8.203125 42.890625 
C 9.203125 42.890625 12.203125 43.484375 12.203125 46.984375 
C 12.203125 50.09375 9.59375 51 8.203125 51 
C 7.59375 51 7 50.890625 6.59375 50.6875 
C 8.5 59.1875 14.296875 63.390625 20.40625 63.390625 
C 29.09375 63.390625 34.796875 56.5 34.796875 47.390625 
C 34.796875 38.703125 29.703125 31.21875 24 24.734375 
L 4.09375 2.296875 
L 4.09375 0 
L 39.296875 0 
z
" id="CMR17-50"/>
     </defs>
     <g transform="translate(318.206723 126.258295)scale(0.14 -0.14)">
      <use transform="scale(0.996264)" xlink:href="#CMR17-48"/>
      <use transform="translate(45.690477 0)scale(0.996264)" xlink:href="#CMMI12-58"/>
      <use transform="translate(72.787654 0)scale(0.996264)" xlink:href="#CMR17-50"/>
     </g>
    </g>
   </g>
   <g id="xtick_11">
    <g id="line2d_14">
     <path d="M 309.320627 67.181808 
L 313.925694 68.059883 
" style="fill:none;stroke:#000000;stroke-linecap:square;stroke-width:0.8;"/>
    </g>
    <g id="text_12">
     <!-- $0.4$ -->
     <defs>
      <path d="M 33.59375 64.796875 
C 33.59375 66.890625 33.5 67 31.703125 67 
L 2 19.59375 
L 2 17 
L 27.796875 17 
L 27.796875 7.1875 
C 27.796875 3.59375 27.59375 2.59375 20.59375 2.59375 
L 18.703125 2.59375 
L 18.703125 0 
C 21.90625 0.1875 27.296875 0.1875 30.703125 0.1875 
C 34.09375 0.1875 39.5 0.1875 42.703125 0 
L 42.703125 2.59375 
L 40.796875 2.59375 
C 33.796875 2.59375 33.59375 3.59375 33.59375 7.1875 
L 33.59375 17 
L 43.796875 17 
L 43.796875 19.59375 
L 33.59375 19.59375 
z
M 28.09375 58.171875 
L 28.09375 19.59375 
L 4 19.59375 
z
" id="CMR17-52"/>
     </defs>
     <g transform="translate(321.381921 75.366357)scale(0.14 -0.14)">
      <use transform="scale(0.996264)" xlink:href="#CMR17-48"/>
      <use transform="translate(45.690477 0)scale(0.996264)" xlink:href="#CMMI12-58"/>
      <use transform="translate(72.787654 0)scale(0.996264)" xlink:href="#CMR17-52"/>
     </g>
    </g>
   </g>
  </g>
  <g id="axes_1">
   <g id="Poly3DCollection_1">
    <path clip-path="url(#p886ed3f493)" d="M 133.033094 135.959831 
L 133.051747 137.476151 
L 154.438688 142.098609 
L 154.432581 140.577071 
z
" style="fill:#ba0c2f;fill-opacity:0.8;"/>
    <path clip-path="url(#p886ed3f493)" d="M 120.244726 143.98794 
L 120.271134 145.513314 
L 133.051747 137.476151 
L 133.033094 135.959831 
z
" style="fill:#5d0618;fill-opacity:0.8;"/>
    <path clip-path="url(#p886ed3f493)" d="M 120.271134 145.513314 
L 141.786381 150.220613 
L 154.438688 142.098609 
L 133.051747 137.476151 
z
" style="fill:#a30a29;fill-opacity:0.8;"/>
    <path clip-path="url(#p886ed3f493)" d="M 120.244726 143.98794 
L 133.033094 135.959831 
L 154.432581 140.577071 
L 141.772669 148.689977 
z
" style="fill:#74081d;fill-opacity:0.8;"/>
    <path clip-path="url(#p886ed3f493)" d="M 141.772669 148.689977 
L 154.432581 140.577071 
L 154.438688 142.098609 
L 141.786381 150.220613 
z
" style="fill:#ba0c2f;fill-opacity:0.8;"/>
    <path clip-path="url(#p886ed3f493)" d="M 120.244726 143.98794 
L 141.772669 148.689977 
L 141.786381 150.220613 
L 120.271134 145.513314 
z
" style="fill:#5d0618;fill-opacity:0.8;"/>
   </g>
   <g id="Poly3DCollection_2">
    <path clip-path="url(#p886ed3f493)" d="M 176.057659 145.242986 
L 176.055073 145.831883 
L 197.904282 150.54928 
L 197.911915 149.958348 
z
" style="fill:#ba0c2f;fill-opacity:0.8;"/>
    <path clip-path="url(#p886ed3f493)" d="M 163.529649 153.442038 
L 163.529936 154.034464 
L 176.055073 145.831883 
L 176.057659 145.242986 
z
" style="fill:#5d0618;fill-opacity:0.8;"/>
    <path clip-path="url(#p886ed3f493)" d="M 163.529936 154.034464 
L 185.514517 158.839405 
L 197.904282 150.54928 
L 176.055073 145.831883 
z
" style="fill:#a30a29;fill-opacity:0.8;"/>
    <path clip-path="url(#p886ed3f493)" d="M 163.529649 153.442038 
L 176.057659 145.242986 
L 197.911915 149.958348 
L 185.519341 158.244927 
z
" style="fill:#74081d;fill-opacity:0.8;"/>
    <path clip-path="url(#p886ed3f493)" d="M 185.519341 158.244927 
L 197.911915 149.958348 
L 197.904282 150.54928 
L 185.514517 158.839405 
z
" style="fill:#ba0c2f;fill-opacity:0.8;"/>
    <path clip-path="url(#p886ed3f493)" d="M 163.529649 153.442038 
L 185.519341 158.244927 
L 185.514517 158.839405 
L 163.529936 154.034464 
z
" style="fill:#5d0618;fill-opacity:0.8;"/>
   </g>
   <g id="Poly3DCollection_3">
    <path clip-path="url(#p886ed3f493)" d="M 107.221037 152.163776 
L 107.223455 152.271508 
L 128.880073 157.061072 
L 128.878557 156.952966 
z
" style="fill:#ba0c2f;fill-opacity:0.8;"/>
    <path clip-path="url(#p886ed3f493)" d="M 93.955472 160.491453 
L 93.958476 160.599833 
L 107.223455 152.271508 
L 107.221037 152.163776 
z
" style="fill:#5d0618;fill-opacity:0.8;"/>
    <path clip-path="url(#p886ed3f493)" d="M 93.958476 160.599833 
L 115.745775 165.478999 
L 128.880073 157.061072 
L 107.223455 152.271508 
z
" style="fill:#a30a29;fill-opacity:0.8;"/>
    <path clip-path="url(#p886ed3f493)" d="M 93.955472 160.491453 
L 107.221037 152.163776 
L 128.878557 156.952966 
L 115.743684 165.370243 
z
" style="fill:#74081d;fill-opacity:0.8;"/>
    <path clip-path="url(#p886ed3f493)" d="M 115.743684 165.370243 
L 128.878557 156.952966 
L 128.880073 157.061072 
L 115.745775 165.478999 
z
" style="fill:#ba0c2f;fill-opacity:0.8;"/>
    <path clip-path="url(#p886ed3f493)" d="M 93.955472 160.491453 
L 115.743684 165.370243 
L 115.745775 165.478999 
L 93.958476 160.599833 
z
" style="fill:#5d0618;fill-opacity:0.8;"/>
   </g>
   <g id="Poly3DCollection_4">
    <path clip-path="url(#p886ed3f493)" d="M 219.999011 154.72395 
L 219.997929 154.774137 
L 242.32116 159.590958 
L 242.322688 159.540597 
z
" style="fill:#ba0c2f;fill-opacity:0.8;"/>
    <path clip-path="url(#p886ed3f493)" d="M 207.745497 163.099464 
L 207.744647 163.149953 
L 219.997929 154.774137 
L 219.999011 154.72395 
z
" style="fill:#5d0618;fill-opacity:0.8;"/>
    <path clip-path="url(#p886ed3f493)" d="M 207.744647 163.149953 
L 230.210652 168.057151 
L 242.32116 159.590958 
L 219.997929 154.774137 
z
" style="fill:#a30a29;fill-opacity:0.8;"/>
    <path clip-path="url(#p886ed3f493)" d="M 207.745497 163.099464 
L 219.999011 154.72395 
L 242.322688 159.540597 
L 230.211954 168.006486 
z
" style="fill:#74081d;fill-opacity:0.8;"/>
    <path clip-path="url(#p886ed3f493)" d="M 230.211954 168.006486 
L 242.322688 159.540597 
L 242.32116 159.590958 
L 230.210652 168.057151 
z
" style="fill:#ba0c2f;fill-opacity:0.8;"/>
    <path clip-path="url(#p886ed3f493)" d="M 207.745497 163.099464 
L 230.211954 168.006486 
L 230.210652 168.057151 
L 207.744647 163.149953 
z
" style="fill:#5d0618;fill-opacity:0.8;"/>
   </g>
   <g id="Poly3DCollection_5">
    <path clip-path="url(#p886ed3f493)" d="M 150.768635 161.793582 
L 150.768393 161.749436 
L 172.895178 166.642158 
L 172.895036 166.686458 
z
" style="fill:#5d0618;fill-opacity:0.8;"/>
    <path clip-path="url(#p886ed3f493)" d="M 137.768054 170.301913 
L 137.767582 170.2575 
L 150.768393 161.749436 
L 150.768635 161.793582 
z
" style="fill:#ba0c2f;fill-opacity:0.8;"/>
    <path clip-path="url(#p886ed3f493)" d="M 137.768054 170.301913 
L 150.768635 161.793582 
L 172.895036 166.686458 
L 160.032441 175.287327 
z
" style="fill:#74081d;fill-opacity:0.8;"/>
    <path clip-path="url(#p886ed3f493)" d="M 137.767582 170.2575 
L 160.032358 175.242761 
L 172.895178 166.642158 
L 150.768393 161.749436 
z
" style="fill:#a30a29;fill-opacity:0.8;"/>
    <path clip-path="url(#p886ed3f493)" d="M 160.032441 175.287327 
L 172.895036 166.686458 
L 172.895178 166.642158 
L 160.032358 175.242761 
z
" style="fill:#5d0618;fill-opacity:0.8;"/>
    <path clip-path="url(#p886ed3f493)" d="M 137.768054 170.301913 
L 160.032441 175.287327 
L 160.032358 175.242761 
L 137.767582 170.2575 
z
" style="fill:#ba0c2f;fill-opacity:0.8;"/>
   </g>
   <g id="Poly3DCollection_6">
    <path clip-path="url(#p886ed3f493)" d="M 80.44123 168.975241 
L 80.452838 169.325818 
L 102.369882 174.297966 
L 102.361244 173.946169 
z
" style="fill:#ba0c2f;fill-opacity:0.8;"/>
    <path clip-path="url(#p886ed3f493)" d="M 66.671252 177.619572 
L 66.684883 177.972265 
L 80.452838 169.325818 
L 80.44123 168.975241 
z
" style="fill:#5d0618;fill-opacity:0.8;"/>
    <path clip-path="url(#p886ed3f493)" d="M 66.684883 177.972265 
L 88.734797 183.039195 
L 102.369882 174.297966 
L 80.452838 169.325818 
z
" style="fill:#a30a29;fill-opacity:0.8;"/>
    <path clip-path="url(#p886ed3f493)" d="M 66.671252 177.619572 
L 80.44123 168.975241 
L 102.361244 173.946169 
L 88.724172 182.685273 
z
" style="fill:#74081d;fill-opacity:0.8;"/>
    <path clip-path="url(#p886ed3f493)" d="M 88.724172 182.685273 
L 102.361244 173.946169 
L 102.369882 174.297966 
L 88.734797 183.039195 
z
" style="fill:#ba0c2f;fill-opacity:0.8;"/>
    <path clip-path="url(#p886ed3f493)" d="M 66.671252 177.619572 
L 88.724172 182.685273 
L 88.734797 183.039195 
L 66.684883 177.972265 
z
" style="fill:#5d0618;fill-opacity:0.8;"/>
   </g>
   <g id="Poly3DCollection_7">
    <path clip-path="url(#p886ed3f493)" d="M 195.26161 171.632443 
L 195.264649 171.37888 
L 217.877609 176.377962 
L 217.872287 176.632408 
z
" style="fill:#5d0618;fill-opacity:0.8;"/>
    <path clip-path="url(#p886ed3f493)" d="M 182.540791 180.32737 
L 182.542579 180.072275 
L 195.264649 171.37888 
L 195.26161 171.632443 
z
" style="fill:#ba0c2f;fill-opacity:0.8;"/>
    <path clip-path="url(#p886ed3f493)" d="M 182.540791 180.32737 
L 195.26161 171.632443 
L 217.872287 176.632408 
L 205.297136 185.422943 
z
" style="fill:#74081d;fill-opacity:0.8;"/>
    <path clip-path="url(#p886ed3f493)" d="M 182.542579 180.072275 
L 205.301236 185.166959 
L 217.877609 176.377962 
L 195.264649 171.37888 
z
" style="fill:#a30a29;fill-opacity:0.8;"/>
    <path clip-path="url(#p886ed3f493)" d="M 205.297136 185.422943 
L 217.872287 176.632408 
L 217.877609 176.377962 
L 205.301236 185.166959 
z
" style="fill:#5d0618;fill-opacity:0.8;"/>
    <path clip-path="url(#p886ed3f493)" d="M 182.540791 180.32737 
L 205.297136 185.422943 
L 205.301236 185.166959 
L 182.542579 180.072275 
z
" style="fill:#ba0c2f;fill-opacity:0.8;"/>
   </g>
   <g id="Poly3DCollection_8">
    <path clip-path="url(#p886ed3f493)" d="M 124.521096 178.971486 
L 124.516961 178.710846 
L 146.922899 183.790541 
L 146.924743 184.05209 
z
" style="fill:#5d0618;fill-opacity:0.8;"/>
    <path clip-path="url(#p886ed3f493)" d="M 111.020691 187.80693 
L 111.015116 187.544713 
L 124.516961 178.710846 
L 124.521096 178.971486 
z
" style="fill:#ba0c2f;fill-opacity:0.8;"/>
    <path clip-path="url(#p886ed3f493)" d="M 111.020691 187.80693 
L 124.521096 178.971486 
L 146.924743 184.05209 
L 133.564869 192.985476 
z
" style="fill:#74081d;fill-opacity:0.8;"/>
    <path clip-path="url(#p886ed3f493)" d="M 111.015116 187.544713 
L 133.561615 192.722343 
L 146.922899 183.790541 
L 124.516961 178.710846 
z
" style="fill:#a30a29;fill-opacity:0.8;"/>
    <path clip-path="url(#p886ed3f493)" d="M 133.564869 192.985476 
L 146.924743 184.05209 
L 146.922899 183.790541 
L 133.561615 192.722343 
z
" style="fill:#5d0618;fill-opacity:0.8;"/>
    <path clip-path="url(#p886ed3f493)" d="M 111.020691 187.80693 
L 133.564869 192.985476 
L 133.561615 192.722343 
L 111.015116 187.544713 
z
" style="fill:#ba0c2f;fill-opacity:0.8;"/>
   </g>
   <g id="Poly3DCollection_9">
    <path clip-path="url(#p886ed3f493)" d="M 240.731086 181.687241 
L 240.729553 181.738388 
L 263.840102 186.849175 
L 263.842113 186.797849 
z
" style="fill:#ba0c2f;fill-opacity:0.8;"/>
    <path clip-path="url(#p886ed3f493)" d="M 228.305597 190.57497 
L 228.304302 190.626427 
L 240.729553 181.738388 
L 240.731086 181.687241 
z
" style="fill:#5d0618;fill-opacity:0.8;"/>
    <path clip-path="url(#p886ed3f493)" d="M 228.304302 190.626427 
L 251.568609 195.836031 
L 263.840102 186.849175 
L 240.729553 181.738388 
z
" style="fill:#a30a29;fill-opacity:0.8;"/>
    <path clip-path="url(#p886ed3f493)" d="M 228.305597 190.57497 
L 240.731086 181.687241 
L 263.842113 186.797849 
L 251.570387 195.784394 
z
" style="fill:#74081d;fill-opacity:0.8;"/>
    <path clip-path="url(#p886ed3f493)" d="M 251.570387 195.784394 
L 263.842113 186.797849 
L 263.840102 186.849175 
L 251.568609 195.836031 
z
" style="fill:#ba0c2f;fill-opacity:0.8;"/>
    <path clip-path="url(#p886ed3f493)" d="M 228.305597 190.57497 
L 251.570387 195.784394 
L 251.568609 195.836031 
L 228.304302 190.626427 
z
" style="fill:#5d0618;fill-opacity:0.8;"/>
   </g>
   <g id="Poly3DCollection_10">
    <path clip-path="url(#p886ed3f493)" d="M 169.57623 189.188899 
L 169.576316 189.143906 
L 192.48019 194.337699 
L 192.479694 194.382849 
z
" style="fill:#5d0618;fill-opacity:0.8;"/>
    <path clip-path="url(#p886ed3f493)" d="M 156.360855 198.221864 
L 156.360704 198.176599 
L 169.576316 189.143906 
L 169.57623 189.188899 
z
" style="fill:#ba0c2f;fill-opacity:0.8;"/>
    <path clip-path="url(#p886ed3f493)" d="M 156.360855 198.221864 
L 169.57623 189.188899 
L 192.479694 194.382849 
L 179.412891 203.517069 
z
" style="fill:#74081d;fill-opacity:0.8;"/>
    <path clip-path="url(#p886ed3f493)" d="M 156.360704 198.176599 
L 179.413156 203.471645 
L 192.48019 194.337699 
L 169.576316 189.143906 
z
" style="fill:#a30a29;fill-opacity:0.8;"/>
    <path clip-path="url(#p886ed3f493)" d="M 179.412891 203.517069 
L 192.479694 194.382849 
L 192.48019 194.337699 
L 179.413156 203.471645 
z
" style="fill:#5d0618;fill-opacity:0.8;"/>
    <path clip-path="url(#p886ed3f493)" d="M 156.360855 198.221864 
L 179.412891 203.517069 
L 179.413156 203.471645 
L 156.360704 198.176599 
z
" style="fill:#ba0c2f;fill-opacity:0.8;"/>
   </g>
   <g id="Poly3DCollection_11">
    <path clip-path="url(#p886ed3f493)" d="M 97.259495 196.813051 
L 97.269072 197.17036 
L 119.951866 202.450958 
L 119.945472 202.092399 
z
" style="fill:#ba0c2f;fill-opacity:0.8;"/>
    <path clip-path="url(#p886ed3f493)" d="M 83.229878 205.994842 
L 83.241557 206.35432 
L 97.269072 197.17036 
L 97.259495 196.813051 
z
" style="fill:#5d0618;fill-opacity:0.8;"/>
    <path clip-path="url(#p886ed3f493)" d="M 83.241557 206.35432 
L 106.067372 211.738702 
L 119.951866 202.450958 
L 97.269072 197.17036 
z
" style="fill:#a30a29;fill-opacity:0.8;"/>
    <path clip-path="url(#p886ed3f493)" d="M 83.229878 205.994842 
L 97.259495 196.813051 
L 119.945472 202.092399 
L 106.058915 211.377964 
z
" style="fill:#74081d;fill-opacity:0.8;"/>
    <path clip-path="url(#p886ed3f493)" d="M 106.058915 211.377964 
L 119.945472 202.092399 
L 119.951866 202.450958 
L 106.067372 211.738702 
z
" style="fill:#ba0c2f;fill-opacity:0.8;"/>
    <path clip-path="url(#p886ed3f493)" d="M 83.229878 205.994842 
L 106.058915 211.377964 
L 106.067372 211.738702 
L 83.241557 206.35432 
z
" style="fill:#5d0618;fill-opacity:0.8;"/>
   </g>
   <g id="Poly3DCollection_12">
    <path clip-path="url(#p886ed3f493)" d="M 215.639362 199.634901 
L 215.626995 200.246562 
L 239.041396 205.559836 
L 239.059557 204.946034 
z
" style="fill:#ba0c2f;fill-opacity:0.8;"/>
    <path clip-path="url(#p886ed3f493)" d="M 202.725316 208.872087 
L 202.715998 209.487462 
L 215.626995 200.246562 
L 215.639362 199.634901 
z
" style="fill:#5d0618;fill-opacity:0.8;"/>
    <path clip-path="url(#p886ed3f493)" d="M 202.715998 209.487462 
L 226.287375 214.905469 
L 239.041396 205.559836 
L 215.626995 200.246562 
z
" style="fill:#a30a29;fill-opacity:0.8;"/>
    <path clip-path="url(#p886ed3f493)" d="M 202.725316 208.872087 
L 215.639362 199.634901 
L 239.059557 204.946034 
L 226.302566 214.287936 
z
" style="fill:#74081d;fill-opacity:0.8;"/>
    <path clip-path="url(#p886ed3f493)" d="M 226.302566 214.287936 
L 239.059557 204.946034 
L 239.041396 205.559836 
L 226.287375 214.905469 
z
" style="fill:#ba0c2f;fill-opacity:0.8;"/>
    <path clip-path="url(#p886ed3f493)" d="M 202.725316 208.872087 
L 226.302566 214.287936 
L 226.287375 214.905469 
L 202.715998 209.487462 
z
" style="fill:#5d0618;fill-opacity:0.8;"/>
   </g>
   <g id="Poly3DCollection_13">
    <path clip-path="url(#p886ed3f493)" d="M 142.887315 207.43129 
L 142.888291 207.543197 
L 166.089319 212.943037 
L 166.089378 212.830739 
z
" style="fill:#ba0c2f;fill-opacity:0.8;"/>
    <path clip-path="url(#p886ed3f493)" d="M 129.147972 216.822398 
L 129.149577 216.934985 
L 142.888291 207.543197 
L 142.887315 207.43129 
z
" style="fill:#5d0618;fill-opacity:0.8;"/>
    <path clip-path="url(#p886ed3f493)" d="M 129.149577 216.934985 
L 152.502072 222.442182 
L 166.089319 212.943037 
L 142.888291 207.543197 
z
" style="fill:#a30a29;fill-opacity:0.8;"/>
    <path clip-path="url(#p886ed3f493)" d="M 129.147972 216.822398 
L 142.887315 207.43129 
L 166.089378 212.830739 
L 152.501516 222.3292 
z
" style="fill:#74081d;fill-opacity:0.8;"/>
    <path clip-path="url(#p886ed3f493)" d="M 152.501516 222.3292 
L 166.089378 212.830739 
L 166.089319 212.943037 
L 152.502072 222.442182 
z
" style="fill:#ba0c2f;fill-opacity:0.8;"/>
    <path clip-path="url(#p886ed3f493)" d="M 129.147972 216.822398 
L 152.501516 222.3292 
L 152.502072 222.442182 
L 129.149577 216.934985 
z
" style="fill:#5d0618;fill-opacity:0.8;"/>
   </g>
   <g id="Poly3DCollection_14">
    <path clip-path="url(#p886ed3f493)" d="M 252.922628 172.966849 
L 264.886769 164.409114 
L 287.695156 169.330344 
L 275.881524 177.981428 
z
" style="fill:#74081d;fill-opacity:0.8;"/>
    <path clip-path="url(#p886ed3f493)" d="M 264.886769 164.409114 
L 269.783259 39.631864 
L 293.741285 44.086422 
L 287.695156 169.330344 
z
" style="fill:#5d0618;fill-opacity:0.8;"/>
    <path clip-path="url(#p886ed3f493)" d="M 252.922628 172.966849 
L 257.276579 47.379599 
L 269.783259 39.631864 
L 264.886769 164.409114 
z
" style="fill:#ba0c2f;fill-opacity:0.8;"/>
    <path clip-path="url(#p886ed3f493)" d="M 275.881524 177.981428 
L 287.695156 169.330344 
L 293.741285 44.086422 
L 281.400901 51.92286 
z
" style="fill:#5d0618;fill-opacity:0.8;"/>
    <path clip-path="url(#p886ed3f493)" d="M 252.922628 172.966849 
L 275.881524 177.981428 
L 281.400901 51.92286 
L 257.276579 47.379599 
z
" style="fill:#ba0c2f;fill-opacity:0.8;"/>
    <path clip-path="url(#p886ed3f493)" d="M 257.276579 47.379599 
L 281.400901 51.92286 
L 293.741285 44.086422 
L 269.783259 39.631864 
z
" style="fill:#a30a29;fill-opacity:0.8;"/>
   </g>
   <g id="Poly3DCollection_15">
    <path clip-path="url(#p886ed3f493)" d="M 189.556114 218.29178 
L 189.540183 219.896865 
L 213.260712 225.42619 
L 213.292077 223.815475 
z
" style="fill:#ba0c2f;fill-opacity:0.8;"/>
    <path clip-path="url(#p886ed3f493)" d="M 176.124119 227.899446 
L 176.116748 229.514298 
L 189.540183 219.896865 
L 189.556114 218.29178 
z
" style="fill:#5d0618;fill-opacity:0.8;"/>
    <path clip-path="url(#p886ed3f493)" d="M 176.116748 229.514298 
L 199.997442 235.154762 
L 213.260712 225.42619 
L 189.540183 219.896865 
z
" style="fill:#a30a29;fill-opacity:0.8;"/>
    <path clip-path="url(#p886ed3f493)" d="M 176.124119 227.899446 
L 189.556114 218.29178 
L 213.292077 223.815475 
L 200.020457 233.534239 
z
" style="fill:#74081d;fill-opacity:0.8;"/>
    <path clip-path="url(#p886ed3f493)" d="M 200.020457 233.534239 
L 213.292077 223.815475 
L 213.260712 225.42619 
L 199.997442 235.154762 
z
" style="fill:#ba0c2f;fill-opacity:0.8;"/>
    <path clip-path="url(#p886ed3f493)" d="M 176.124119 227.899446 
L 200.020457 233.534239 
L 199.997442 235.154762 
L 176.116748 229.514298 
z
" style="fill:#5d0618;fill-opacity:0.8;"/>
   </g>
   <g id="Poly3DCollection_16">
    <path clip-path="url(#p886ed3f493)" d="M 25.492387 196.751466 
L 203.76168 238.983738 
L 299.800518 168.064367 
L 130.032797 131.58957 
z
" style="fill-opacity:0.15;"/>
   </g>
   <g id="Poly3DCollection_17">
    <path clip-path="url(#p886ed3f493)" d="M 38.33449 195.408441 
L 52.638209 186.429046 
L 74.825129 191.592256 
L 60.656493 200.672003 
z
" style="fill:#74081d;fill-opacity:0.8;"/>
    <path clip-path="url(#p886ed3f493)" d="M 52.638209 186.429046 
L 46.933544 57.750519 
L 70.222556 62.427839 
L 74.825129 191.592256 
z
" style="fill:#5d0618;fill-opacity:0.8;"/>
    <path clip-path="url(#p886ed3f493)" d="M 38.33449 195.408441 
L 31.836896 65.886594 
L 46.933544 57.750519 
L 52.638209 186.429046 
z
" style="fill:#ba0c2f;fill-opacity:0.8;"/>
    <path clip-path="url(#p886ed3f493)" d="M 60.656493 200.672003 
L 74.825129 191.592256 
L 70.222556 62.427839 
L 55.274545 70.659531 
z
" style="fill:#5d0618;fill-opacity:0.8;"/>
    <path clip-path="url(#p886ed3f493)" d="M 38.33449 195.408441 
L 60.656493 200.672003 
L 55.274545 70.659531 
L 31.836896 65.886594 
z
" style="fill:#ba0c2f;fill-opacity:0.8;"/>
    <path clip-path="url(#p886ed3f493)" d="M 31.836896 65.886594 
L 55.274545 70.659531 
L 70.222556 62.427839 
L 46.933544 57.750519 
z
" style="fill:#a30a29;fill-opacity:0.8;"/>
   </g>
  </g>
  <g id="patch_6">
   <path d="M 425.945455 262.8 
L 806.4 262.8 
L 806.4 -14.4 
L 425.945455 -14.4 
z
" style="fill:#ffffff;"/>
  </g>
  <g id="pane3d_4">
   <g id="patch_7">
    <path d="M 476.380584 201.548569 
L 585.268665 133.58541 
L 583.455794 3.718968 
L 468.496488 64.782468 
" style="fill:#f2f2f2;opacity:0.5;stroke:#f2f2f2;stroke-linejoin:miter;"/>
   </g>
  </g>
  <g id="pane3d_5">
   <g id="patch_8">
    <path d="M 585.268665 133.58541 
L 761.65712 171.581202 
L 769.037001 37.79869 
L 583.455794 3.718968 
" style="fill:#e6e6e6;opacity:0.5;stroke:#e6e6e6;stroke-linejoin:miter;"/>
   </g>
  </g>
  <g id="pane3d_6">
   <g id="patch_9">
    <path d="M 476.380584 201.548569 
L 661.965072 245.80086 
L 761.65712 171.581202 
L 585.268665 133.58541 
" style="fill:#ececec;opacity:0.5;stroke:#ececec;stroke-linejoin:miter;"/>
   </g>
  </g>
  <g id="axis3d_4">
   <g id="line2d_15">
    <path d="M 476.380584 201.548569 
L 661.965072 245.80086 
" style="fill:none;stroke:#000000;stroke-linecap:square;stroke-width:0.8;"/>
   </g>
   <g id="Line3DCollection_4">
    <path d="M 498.841271 206.90428 
L 606.679397 138.19749 
L 605.9393 7.847789 
" style="fill:none;stroke:#b0b0b0;stroke-width:0.8;"/>
    <path d="M 544.057792 217.686079 
L 649.729469 147.470895 
L 651.182353 16.156123 
" style="fill:none;stroke:#b0b0b0;stroke-width:0.8;"/>
    <path d="M 590.310744 228.715013 
L 693.693551 156.941187 
L 697.435637 24.649974 
" style="fill:none;stroke:#b0b0b0;stroke-width:0.8;"/>
    <path d="M 637.636176 239.999678 
L 738.601063 166.614702 
L 744.733372 33.335625 
" style="fill:none;stroke:#b0b0b0;stroke-width:0.8;"/>
   </g>
   <g id="xtick_12">
    <g id="line2d_16">
     <path d="M 499.770538 206.312217 
L 496.979262 208.09062 
" style="fill:none;stroke:#000000;stroke-linecap:square;stroke-width:0.8;"/>
    </g>
    <g id="text_13">
     <!-- 00 -->
     <g transform="translate(479.875817 237.14703)rotate(-45)scale(0.14 -0.14)">
      <use transform="scale(0.996264)" xlink:href="#CMR17-48"/>
      <use transform="translate(45.690477 0)scale(0.996264)" xlink:href="#CMR17-48"/>
     </g>
    </g>
   </g>
   <g id="xtick_13">
    <g id="line2d_17">
     <path d="M 544.969128 217.080527 
L 542.231671 218.899473 
" style="fill:none;stroke:#000000;stroke-linecap:square;stroke-width:0.8;"/>
    </g>
    <g id="text_14">
     <!-- 01 -->
     <g transform="translate(525.088242 248.103782)rotate(-45)scale(0.14 -0.14)">
      <use transform="scale(0.996264)" xlink:href="#CMR17-48"/>
      <use transform="translate(45.690477 0)scale(0.996264)" xlink:href="#CMR17-49"/>
     </g>
    </g>
   </g>
   <g id="xtick_14">
    <g id="line2d_18">
     <path d="M 591.20308 228.095506 
L 588.522658 229.956397 
" style="fill:none;stroke:#000000;stroke-linecap:square;stroke-width:0.8;"/>
    </g>
    <g id="text_15">
     <!-- 10 -->
     <g transform="translate(571.338855 259.312128)rotate(-45)scale(0.14 -0.14)">
      <use transform="scale(0.996264)" xlink:href="#CMR17-49"/>
      <use transform="translate(45.690477 0)scale(0.996264)" xlink:href="#CMR17-48"/>
     </g>
    </g>
   </g>
   <g id="xtick_15">
    <g id="line2d_19">
     <path d="M 638.50838 239.365727 
L 635.888391 241.270032 
" style="fill:none;stroke:#000000;stroke-linecap:square;stroke-width:0.8;"/>
    </g>
    <g id="text_16">
     <!-- 11 -->
     <g transform="translate(618.66383 270.780834)rotate(-45)scale(0.14 -0.14)">
      <use transform="scale(0.996264)" xlink:href="#CMR17-49"/>
      <use transform="translate(45.690477 0)scale(0.996264)" xlink:href="#CMR17-49"/>
     </g>
    </g>
   </g>
  </g>
  <g id="axis3d_5">
   <g id="line2d_20">
    <path d="M 761.65712 171.581202 
L 661.965072 245.80086 
" style="fill:none;stroke:#000000;stroke-linecap:square;stroke-width:0.8;"/>
   </g>
   <g id="Line3DCollection_5">
    <path d="M 484.000685 56.547028 
L 491.016499 192.413474 
L 675.403872 235.795817 
" style="fill:none;stroke:#b0b0b0;stroke-width:0.8;"/>
    <path d="M 513.777478 40.730342 
L 519.168861 174.842005 
L 701.219492 216.576366 
" style="fill:none;stroke:#b0b0b0;stroke-width:0.8;"/>
    <path d="M 542.401344 25.526062 
L 546.284836 157.917404 
L 726.04244 198.095948 
" style="fill:none;stroke:#b0b0b0;stroke-width:0.8;"/>
    <path d="M 569.937971 10.899296 
L 572.420618 141.604597 
L 749.928893 180.312741 
" style="fill:none;stroke:#b0b0b0;stroke-width:0.8;"/>
   </g>
   <g id="xtick_16">
    <g id="line2d_21">
     <path d="M 673.861052 235.432825 
L 678.492943 236.522608 
" style="fill:none;stroke:#000000;stroke-linecap:square;stroke-width:0.8;"/>
    </g>
    <g id="text_17">
     <!-- 00 -->
     <g transform="translate(689.195824 248.348363)rotate(-337.5)scale(0.14 -0.14)">
      <use transform="scale(0.996264)" xlink:href="#CMR17-48"/>
      <use transform="translate(45.690477 0)scale(0.996264)" xlink:href="#CMR17-48"/>
     </g>
    </g>
   </g>
   <g id="xtick_17">
    <g id="line2d_22">
     <path d="M 699.697534 216.227463 
L 704.266725 217.274932 
" style="fill:none;stroke:#000000;stroke-linecap:square;stroke-width:0.8;"/>
    </g>
    <g id="text_18">
     <!-- 01 -->
     <g transform="translate(714.749375 228.903937)rotate(-337.5)scale(0.14 -0.14)">
      <use transform="scale(0.996264)" xlink:href="#CMR17-48"/>
      <use transform="translate(45.690477 0)scale(0.996264)" xlink:href="#CMR17-49"/>
     </g>
    </g>
   </g>
   <g id="xtick_18">
    <g id="line2d_23">
     <path d="M 724.540896 197.76033 
L 729.048738 198.767901 
" style="fill:none;stroke:#000000;stroke-linecap:square;stroke-width:0.8;"/>
    </g>
    <g id="text_19">
     <!-- 10 -->
     <g transform="translate(739.320787 210.206849)rotate(-337.5)scale(0.14 -0.14)">
      <use transform="scale(0.996264)" xlink:href="#CMR17-49"/>
      <use transform="translate(45.690477 0)scale(0.996264)" xlink:href="#CMR17-48"/>
     </g>
    </g>
   </g>
   <g id="xtick_19">
    <g id="line2d_24">
     <path d="M 748.44732 179.989663 
L 752.895146 180.959573 
" style="fill:none;stroke:#000000;stroke-linecap:square;stroke-width:0.8;"/>
    </g>
    <g id="text_20">
     <!-- 11 -->
     <g transform="translate(762.965613 192.214827)rotate(-337.5)scale(0.14 -0.14)">
      <use transform="scale(0.996264)" xlink:href="#CMR17-49"/>
      <use transform="translate(45.690477 0)scale(0.996264)" xlink:href="#CMR17-49"/>
     </g>
    </g>
   </g>
  </g>
  <g id="axis3d_6">
   <g id="line2d_25">
    <path d="M 761.65712 171.581202 
L 769.037001 37.79869 
" style="fill:none;stroke:#000000;stroke-linecap:square;stroke-width:0.8;"/>
   </g>
   <g id="text_21">
    <!-- Im[$\rho$] -->
    <defs>
     <path d="M 19.703125 60.90625 
C 19.703125 65.390625 20.90625 65.390625 28.09375 65.390625 
L 28.09375 68 
C 24.90625 67.796875 19.796875 67.796875 16.40625 67.796875 
C 13 67.796875 7.90625 67.796875 4.703125 68 
L 4.703125 65.390625 
C 11.90625 65.390625 13.09375 65.390625 13.09375 60.90625 
L 13.09375 7.078125 
C 13.09375 2.59375 11.90625 2.59375 4.703125 2.59375 
L 4.703125 0 
C 7.90625 0.1875 13 0.1875 16.40625 0.1875 
C 19.796875 0.1875 24.90625 0.1875 28.09375 0 
L 28.09375 2.59375 
C 20.90625 2.59375 19.703125 2.59375 19.703125 7.078125 
z
" id="CMR17-73"/>
     <path d="M 67.59375 30.53125 
C 67.59375 35.5625 66.703125 44 54.796875 44 
C 48 44 43.296875 39.375 41.5 33.953125 
L 41.40625 33.953125 
C 40.203125 42.1875 34.296875 44 28.703125 44 
C 20.796875 44 16.703125 37.875 15.203125 33.84375 
L 15.09375 33.84375 
L 15.09375 44 
L 3.296875 42.890625 
L 3.296875 40.28125 
C 9.203125 40.28125 10.09375 39.6875 10.09375 34.859375 
L 10.09375 6.921875 
C 10.09375 3.09375 9.703125 2.59375 3.296875 2.59375 
L 3.296875 0 
C 5.703125 0.1875 10.09375 0.1875 12.703125 0.1875 
C 15.296875 0.1875 19.796875 0.1875 22.203125 0 
L 22.203125 2.59375 
C 15.796875 2.59375 15.40625 3 15.40625 6.921875 
L 15.40625 26.21875 
C 15.40625 35.453125 21 42.390625 28 42.390625 
C 35.40625 42.390625 36.203125 35.765625 36.203125 30.9375 
L 36.203125 6.921875 
C 36.203125 3.09375 35.796875 2.59375 29.40625 2.59375 
L 29.40625 0 
C 31.796875 0.1875 36.203125 0.1875 38.796875 0.1875 
C 41.40625 0.1875 45.90625 0.1875 48.296875 0 
L 48.296875 2.59375 
C 41.90625 2.59375 41.5 3 41.5 6.921875 
L 41.5 26.21875 
C 41.5 35.453125 47.09375 42.390625 54.09375 42.390625 
C 61.5 42.390625 62.296875 35.765625 62.296875 30.9375 
L 62.296875 6.921875 
C 62.296875 3.09375 61.90625 2.59375 55.5 2.59375 
L 55.5 0 
C 57.90625 0.1875 62.296875 0.1875 64.90625 0.1875 
C 67.5 0.1875 72 0.1875 74.40625 0 
L 74.40625 2.59375 
C 68 2.59375 67.59375 3 67.59375 6.921875 
z
" id="CMR17-109"/>
    </defs>
    <g transform="translate(809.026865 118.025317)rotate(-86.842577)scale(0.14 -0.14)">
     <use transform="scale(0.996264)" xlink:href="#CMR17-73"/>
     <use transform="translate(32.638409 0)scale(0.996264)" xlink:href="#CMR17-109"/>
     <use transform="translate(109.557999 0)scale(0.996264)" xlink:href="#CMR17-91"/>
     <use transform="translate(134.429058 0)scale(0.996264)" xlink:href="#CMMI12-26"/>
     <use transform="translate(184.74343 0)scale(0.996264)" xlink:href="#CMR17-93"/>
    </g>
   </g>
   <g id="Line3DCollection_6">
    <path d="M 761.861841 167.870009 
L 585.218269 129.975214 
L 476.162241 197.760955 
" style="fill:none;stroke:#b0b0b0;stroke-width:0.8;"/>
    <path d="M 764.575172 118.682751 
L 584.5509 82.167754 
L 473.266406 147.52666 
" style="fill:none;stroke:#b0b0b0;stroke-width:0.8;"/>
    <path d="M 767.395328 67.558948 
L 583.858389 32.559185 
L 470.252674 95.247175 
" style="fill:none;stroke:#b0b0b0;stroke-width:0.8;"/>
   </g>
   <g id="xtick_20">
    <g id="line2d_26">
     <path d="M 760.387975 167.553825 
L 764.812641 168.503035 
" style="fill:none;stroke:#000000;stroke-linecap:square;stroke-width:0.8;"/>
    </g>
    <g id="text_22">
     <!-- $0.0$ -->
     <g transform="translate(771.672666 175.616569)scale(0.14 -0.14)">
      <use transform="scale(0.996264)" xlink:href="#CMR17-48"/>
      <use transform="translate(45.690477 0)scale(0.996264)" xlink:href="#CMMI12-58"/>
      <use transform="translate(72.787654 0)scale(0.996264)" xlink:href="#CMR17-48"/>
     </g>
    </g>
   </g>
   <g id="xtick_21">
    <g id="line2d_27">
     <path d="M 763.071904 118.377837 
L 767.584896 119.293225 
" style="fill:none;stroke:#000000;stroke-linecap:square;stroke-width:0.8;"/>
    </g>
    <g id="text_23">
     <!-- $0.2$ -->
     <g transform="translate(774.737191 126.498502)scale(0.14 -0.14)">
      <use transform="scale(0.996264)" xlink:href="#CMR17-48"/>
      <use transform="translate(45.690477 0)scale(0.996264)" xlink:href="#CMMI12-58"/>
      <use transform="translate(72.787654 0)scale(0.996264)" xlink:href="#CMR17-50"/>
     </g>
    </g>
   </g>
   <g id="xtick_22">
    <g id="line2d_28">
     <path d="M 765.861463 67.266446 
L 770.466377 68.144585 
" style="fill:none;stroke:#000000;stroke-linecap:square;stroke-width:0.8;"/>
    </g>
    <g id="text_24">
     <!-- $0.4$ -->
     <g transform="translate(777.922102 75.450887)scale(0.14 -0.14)">
      <use transform="scale(0.996264)" xlink:href="#CMR17-48"/>
      <use transform="translate(45.690477 0)scale(0.996264)" xlink:href="#CMMI12-58"/>
      <use transform="translate(72.787654 0)scale(0.996264)" xlink:href="#CMR17-52"/>
     </g>
    </g>
   </g>
  </g>
  <g id="axes_2">
   <g id="Poly3DCollection_18">
    <path clip-path="url(#peed1316572)" d="M 589.583174 136.335841 
L 589.570353 135.293645 
L 610.975352 139.90859 
L 610.97955 140.954376 
z
" style="fill:#065d4c;fill-opacity:0.8;"/>
    <path clip-path="url(#peed1316572)" d="M 576.796729 144.366197 
L 576.778578 143.317771 
L 589.570353 135.293645 
L 589.583174 136.335841 
z
" style="fill:#0cba97;fill-opacity:0.8;"/>
    <path clip-path="url(#peed1316572)" d="M 576.796729 144.366197 
L 589.583174 136.335841 
L 610.97955 140.954376 
L 598.321524 149.069539 
z
" style="fill:#08745e;fill-opacity:0.8;"/>
    <path clip-path="url(#peed1316572)" d="M 576.778578 143.317771 
L 598.312099 148.017492 
L 610.975352 139.90859 
L 589.570353 135.293645 
z
" style="fill:#0aa384;fill-opacity:0.8;"/>
    <path clip-path="url(#peed1316572)" d="M 598.321524 149.069539 
L 610.97955 140.954376 
L 610.975352 139.90859 
L 598.312099 148.017492 
z
" style="fill:#065d4c;fill-opacity:0.8;"/>
    <path clip-path="url(#peed1316572)" d="M 576.796729 144.366197 
L 598.321524 149.069539 
L 598.312099 148.017492 
L 576.778578 143.317771 
z
" style="fill:#0cba97;fill-opacity:0.8;"/>
   </g>
   <g id="Poly3DCollection_19">
    <path clip-path="url(#peed1316572)" d="M 632.601451 145.621592 
L 632.596408 146.769767 
L 654.437579 151.4904 
L 654.452462 150.338262 
z
" style="fill:#0cba97;fill-opacity:0.8;"/>
    <path clip-path="url(#peed1316572)" d="M 620.075288 153.822913 
L 620.075847 154.977964 
L 632.596408 146.769767 
L 632.601451 145.621592 
z
" style="fill:#065d4c;fill-opacity:0.8;"/>
    <path clip-path="url(#peed1316572)" d="M 620.075847 154.977964 
L 642.05229 159.786168 
L 654.437579 151.4904 
L 632.596408 146.769767 
z
" style="fill:#0aa384;fill-opacity:0.8;"/>
    <path clip-path="url(#peed1316572)" d="M 620.075288 153.822913 
L 632.601451 145.621592 
L 654.452462 150.338262 
L 642.061694 158.627121 
z
" style="fill:#08745e;fill-opacity:0.8;"/>
    <path clip-path="url(#peed1316572)" d="M 642.061694 158.627121 
L 654.452462 150.338262 
L 654.437579 151.4904 
L 642.05229 159.786168 
z
" style="fill:#0cba97;fill-opacity:0.8;"/>
    <path clip-path="url(#peed1316572)" d="M 620.075288 153.822913 
L 642.061694 158.627121 
L 642.05229 159.786168 
L 620.075847 154.977964 
z
" style="fill:#065d4c;fill-opacity:0.8;"/>
   </g>
   <g id="Poly3DCollection_20">
    <path clip-path="url(#peed1316572)" d="M 563.775034 152.544299 
L 563.753452 151.582918 
L 585.415836 156.370097 
L 585.429367 157.334806 
z
" style="fill:#065d4c;fill-opacity:0.8;"/>
    <path clip-path="url(#peed1316572)" d="M 550.511536 160.874261 
L 550.484733 159.907105 
L 563.753452 151.582918 
L 563.775034 152.544299 
z
" style="fill:#0cba97;fill-opacity:0.8;"/>
    <path clip-path="url(#peed1316572)" d="M 550.511536 160.874261 
L 563.775034 152.544299 
L 585.429367 157.334806 
L 572.296523 165.754379 
z
" style="fill:#08745e;fill-opacity:0.8;"/>
    <path clip-path="url(#peed1316572)" d="M 550.484733 159.907105 
L 572.277867 164.783866 
L 585.415836 156.370097 
L 563.753452 151.582918 
z
" style="fill:#0aa384;fill-opacity:0.8;"/>
    <path clip-path="url(#peed1316572)" d="M 572.296523 165.754379 
L 585.429367 157.334806 
L 585.415836 156.370097 
L 572.277867 164.783866 
z
" style="fill:#065d4c;fill-opacity:0.8;"/>
    <path clip-path="url(#peed1316572)" d="M 550.511536 160.874261 
L 572.296523 165.754379 
L 572.277867 164.783866 
L 550.484733 159.907105 
z
" style="fill:#0cba97;fill-opacity:0.8;"/>
   </g>
   <g id="Poly3DCollection_21">
    <path clip-path="url(#peed1316572)" d="M 676.536244 155.105178 
L 676.547524 154.582139 
L 698.87246 159.398295 
L 698.856537 159.923145 
z
" style="fill:#065d4c;fill-opacity:0.8;"/>
    <path clip-path="url(#peed1316572)" d="M 664.284495 163.482984 
L 664.293354 162.956801 
L 676.547524 154.582139 
L 676.536244 155.105178 
z
" style="fill:#0cba97;fill-opacity:0.8;"/>
    <path clip-path="url(#peed1316572)" d="M 664.284495 163.482984 
L 676.536244 155.105178 
L 698.856537 159.923145 
L 686.747522 168.391337 
z
" style="fill:#08745e;fill-opacity:0.8;"/>
    <path clip-path="url(#peed1316572)" d="M 664.293354 162.956801 
L 686.761086 167.863328 
L 698.87246 159.398295 
L 676.547524 154.582139 
z
" style="fill:#0aa384;fill-opacity:0.8;"/>
    <path clip-path="url(#peed1316572)" d="M 686.747522 168.391337 
L 698.856537 159.923145 
L 698.87246 159.398295 
L 686.761086 167.863328 
z
" style="fill:#065d4c;fill-opacity:0.8;"/>
    <path clip-path="url(#peed1316572)" d="M 664.284495 163.482984 
L 686.747522 168.391337 
L 686.761086 167.863328 
L 664.293354 162.956801 
z
" style="fill:#0cba97;fill-opacity:0.8;"/>
   </g>
   <g id="Poly3DCollection_22">
    <path clip-path="url(#peed1316572)" d="M 607.31619 162.176746 
L 607.314902 161.941905 
L 629.440017 166.835295 
L 629.439265 167.070952 
z
" style="fill:#065d4c;fill-opacity:0.8;"/>
    <path clip-path="url(#peed1316572)" d="M 594.317597 170.687384 
L 594.315091 170.451128 
L 607.314902 161.941905 
L 607.31619 162.176746 
z
" style="fill:#0cba97;fill-opacity:0.8;"/>
    <path clip-path="url(#peed1316572)" d="M 594.317597 170.687384 
L 607.31619 162.176746 
L 629.439265 167.070952 
L 616.578617 175.67414 
z
" style="fill:#08745e;fill-opacity:0.8;"/>
    <path clip-path="url(#peed1316572)" d="M 594.315091 170.451128 
L 616.578175 175.437062 
L 629.440017 166.835295 
L 607.314902 161.941905 
z
" style="fill:#0aa384;fill-opacity:0.8;"/>
    <path clip-path="url(#peed1316572)" d="M 616.578617 175.67414 
L 629.439265 167.070952 
L 629.440017 166.835295 
L 616.578175 175.437062 
z
" style="fill:#065d4c;fill-opacity:0.8;"/>
    <path clip-path="url(#peed1316572)" d="M 594.317597 170.687384 
L 616.578617 175.67414 
L 616.578175 175.437062 
L 594.315091 170.451128 
z
" style="fill:#0cba97;fill-opacity:0.8;"/>
   </g>
   <g id="Poly3DCollection_23">
    <path clip-path="url(#peed1316572)" d="M 721.417159 164.79299 
L 721.417159 164.79299 
L 744.222015 169.715553 
L 744.222015 169.715553 
z
" style="fill:#065d4c;fill-opacity:0.8;"/>
    <path clip-path="url(#peed1316572)" d="M 709.454694 173.353038 
L 709.454694 173.353038 
L 721.417159 164.79299 
L 721.417159 164.79299 
z
" style="fill:#065d4c;fill-opacity:0.8;"/>
    <path clip-path="url(#peed1316572)" d="M 709.454694 173.353038 
L 721.417159 164.79299 
L 744.222015 169.715553 
L 732.410011 178.368961 
z
" style="fill:#08745e;fill-opacity:0.8;"/>
    <path clip-path="url(#peed1316572)" d="M 709.454694 173.353038 
L 732.410011 178.368961 
L 744.222015 169.715553 
L 721.417159 164.79299 
z
" style="fill:#0aa384;fill-opacity:0.8;"/>
    <path clip-path="url(#peed1316572)" d="M 732.410011 178.368961 
L 744.222015 169.715553 
L 744.222015 169.715553 
L 732.410011 178.368961 
z
" style="fill:#065d4c;fill-opacity:0.8;"/>
    <path clip-path="url(#peed1316572)" d="M 709.454694 173.353038 
L 732.410011 178.368961 
L 732.410011 178.368961 
L 709.454694 173.353038 
z
" style="fill:#065d4c;fill-opacity:0.8;"/>
   </g>
   <g id="Poly3DCollection_24">
    <path clip-path="url(#peed1316572)" d="M 536.999436 169.360354 
L 537.0205 169.9965 
L 558.931861 174.970978 
L 558.916187 174.332621 
z
" style="fill:#0cba97;fill-opacity:0.8;"/>
    <path clip-path="url(#peed1316572)" d="M 523.231681 178.007009 
L 523.256416 178.646991 
L 537.0205 169.9965 
L 536.999436 169.360354 
z
" style="fill:#065d4c;fill-opacity:0.8;"/>
    <path clip-path="url(#peed1316572)" d="M 523.256416 178.646991 
L 545.300578 183.716271 
L 558.931861 174.970978 
L 537.0205 169.9965 
z
" style="fill:#0aa384;fill-opacity:0.8;"/>
    <path clip-path="url(#peed1316572)" d="M 523.231681 178.007009 
L 536.999436 169.360354 
L 558.916187 174.332621 
L 545.281298 183.07406 
z
" style="fill:#08745e;fill-opacity:0.8;"/>
    <path clip-path="url(#peed1316572)" d="M 545.281298 183.07406 
L 558.916187 174.332621 
L 558.931861 174.970978 
L 545.300578 183.716271 
z
" style="fill:#0cba97;fill-opacity:0.8;"/>
    <path clip-path="url(#peed1316572)" d="M 523.231681 178.007009 
L 545.281298 183.07406 
L 545.300578 183.716271 
L 523.256416 178.646991 
z
" style="fill:#065d4c;fill-opacity:0.8;"/>
   </g>
   <g id="Poly3DCollection_25">
    <path clip-path="url(#peed1316572)" d="M 651.80244 172.018273 
L 651.80244 172.018273 
L 674.409644 177.019581 
L 674.409644 177.019581 
z
" style="fill:#065d4c;fill-opacity:0.8;"/>
    <path clip-path="url(#peed1316572)" d="M 639.083525 180.71553 
L 639.083525 180.71553 
L 651.80244 172.018273 
L 651.80244 172.018273 
z
" style="fill:#065d4c;fill-opacity:0.8;"/>
    <path clip-path="url(#peed1316572)" d="M 639.083525 180.71553 
L 661.836352 185.812456 
L 674.409644 177.019581 
L 651.80244 172.018273 
z
" style="fill:#0aa384;fill-opacity:0.8;"/>
    <path clip-path="url(#peed1316572)" d="M 639.083525 180.71553 
L 651.80244 172.018273 
L 674.409644 177.019581 
L 661.836352 185.812456 
z
" style="fill:#08745e;fill-opacity:0.8;"/>
    <path clip-path="url(#peed1316572)" d="M 661.836352 185.812456 
L 674.409644 177.019581 
L 674.409644 177.019581 
L 661.836352 185.812456 
z
" style="fill:#065d4c;fill-opacity:0.8;"/>
    <path clip-path="url(#peed1316572)" d="M 639.083525 180.71553 
L 661.836352 185.812456 
L 661.836352 185.812456 
L 639.083525 180.71553 
z
" style="fill:#065d4c;fill-opacity:0.8;"/>
   </g>
   <g id="Poly3DCollection_26">
    <path clip-path="url(#peed1316572)" d="M 581.072703 179.359284 
L 581.072703 179.359284 
L 603.47294 184.44124 
L 603.47294 184.44124 
z
" style="fill:#065d4c;fill-opacity:0.8;"/>
    <path clip-path="url(#peed1316572)" d="M 567.574441 188.197074 
L 567.574441 188.197074 
L 581.072703 179.359284 
L 581.072703 179.359284 
z
" style="fill:#065d4c;fill-opacity:0.8;"/>
    <path clip-path="url(#peed1316572)" d="M 567.574441 188.197074 
L 581.072703 179.359284 
L 603.47294 184.44124 
L 590.115166 193.376983 
z
" style="fill:#08745e;fill-opacity:0.8;"/>
    <path clip-path="url(#peed1316572)" d="M 567.574441 188.197074 
L 590.115166 193.376983 
L 603.47294 184.44124 
L 581.072703 179.359284 
z
" style="fill:#0aa384;fill-opacity:0.8;"/>
    <path clip-path="url(#peed1316572)" d="M 590.115166 193.376983 
L 603.47294 184.44124 
L 603.47294 184.44124 
L 590.115166 193.376983 
z
" style="fill:#065d4c;fill-opacity:0.8;"/>
    <path clip-path="url(#peed1316572)" d="M 567.574441 188.197074 
L 590.115166 193.376983 
L 590.115166 193.376983 
L 567.574441 188.197074 
z
" style="fill:#065d4c;fill-opacity:0.8;"/>
   </g>
   <g id="Poly3DCollection_27">
    <path clip-path="url(#peed1316572)" d="M 697.264894 182.075762 
L 697.248922 182.608584 
L 720.351347 187.722406 
L 720.372294 187.187726 
z
" style="fill:#0cba97;fill-opacity:0.8;"/>
    <path clip-path="url(#peed1316572)" d="M 684.841217 190.965843 
L 684.827729 191.501888 
L 697.248922 182.608584 
L 697.264894 182.075762 
z
" style="fill:#065d4c;fill-opacity:0.8;"/>
    <path clip-path="url(#peed1316572)" d="M 684.827729 191.501888 
L 708.083802 196.71455 
L 720.351347 187.722406 
L 697.248922 182.608584 
z
" style="fill:#0aa384;fill-opacity:0.8;"/>
    <path clip-path="url(#peed1316572)" d="M 684.841217 190.965843 
L 697.264894 182.075762 
L 720.372294 187.187726 
L 708.102331 196.176633 
z
" style="fill:#08745e;fill-opacity:0.8;"/>
    <path clip-path="url(#peed1316572)" d="M 708.102331 196.176633 
L 720.372294 187.187726 
L 720.351347 187.722406 
L 708.083802 196.71455 
z
" style="fill:#0cba97;fill-opacity:0.8;"/>
    <path clip-path="url(#peed1316572)" d="M 684.841217 190.965843 
L 708.102331 196.176633 
L 708.083802 196.71455 
L 684.827729 191.501888 
z
" style="fill:#065d4c;fill-opacity:0.8;"/>
   </g>
   <g id="Poly3DCollection_28">
    <path clip-path="url(#peed1316572)" d="M 509.200943 186.818825 
L 509.200943 186.818825 
L 531.384521 191.983397 
L 531.384521 191.983397 
z
" style="fill:#065d4c;fill-opacity:0.8;"/>
    <path clip-path="url(#peed1316572)" d="M 494.899617 195.800582 
L 494.899617 195.800582 
L 509.200943 186.818825 
L 509.200943 186.818825 
z
" style="fill:#065d4c;fill-opacity:0.8;"/>
    <path clip-path="url(#peed1316572)" d="M 494.899617 195.800582 
L 517.218238 201.065516 
L 531.384521 191.983397 
L 509.200943 186.818825 
z
" style="fill:#0aa384;fill-opacity:0.8;"/>
    <path clip-path="url(#peed1316572)" d="M 494.899617 195.800582 
L 509.200943 186.818825 
L 531.384521 191.983397 
L 517.218238 201.065516 
z
" style="fill:#08745e;fill-opacity:0.8;"/>
    <path clip-path="url(#peed1316572)" d="M 517.218238 201.065516 
L 531.384521 191.983397 
L 531.384521 191.983397 
L 517.218238 201.065516 
z
" style="fill:#065d4c;fill-opacity:0.8;"/>
    <path clip-path="url(#peed1316572)" d="M 494.899617 195.800582 
L 517.218238 201.065516 
L 517.218238 201.065516 
L 494.899617 195.800582 
z
" style="fill:#065d4c;fill-opacity:0.8;"/>
   </g>
   <g id="Poly3DCollection_29">
    <path clip-path="url(#peed1316572)" d="M 626.120942 189.579407 
L 626.120487 189.818704 
L 649.018203 195.014855 
L 649.020842 194.774722 
z
" style="fill:#0cba97;fill-opacity:0.8;"/>
    <path clip-path="url(#peed1316572)" d="M 612.907622 198.61474 
L 612.908426 198.855487 
L 626.120487 189.818704 
L 626.120942 189.579407 
z
" style="fill:#065d4c;fill-opacity:0.8;"/>
    <path clip-path="url(#peed1316572)" d="M 612.908426 198.855487 
L 635.954639 204.152909 
L 649.018203 195.014855 
L 626.120487 189.818704 
z
" style="fill:#0aa384;fill-opacity:0.8;"/>
    <path clip-path="url(#peed1316572)" d="M 612.907622 198.61474 
L 626.120942 189.579407 
L 649.020842 194.774722 
L 635.956047 203.911319 
z
" style="fill:#08745e;fill-opacity:0.8;"/>
    <path clip-path="url(#peed1316572)" d="M 635.956047 203.911319 
L 649.020842 194.774722 
L 649.018203 195.014855 
L 635.954639 204.152909 
z
" style="fill:#0cba97;fill-opacity:0.8;"/>
    <path clip-path="url(#peed1316572)" d="M 612.907622 198.61474 
L 635.956047 203.911319 
L 635.954639 204.152909 
L 612.908426 198.855487 
z
" style="fill:#065d4c;fill-opacity:0.8;"/>
   </g>
   <g id="Poly3DCollection_30">
    <path clip-path="url(#peed1316572)" d="M 553.81547 197.205559 
L 553.798084 196.556872 
L 576.486342 201.835323 
L 576.49795 202.48628 
z
" style="fill:#065d4c;fill-opacity:0.8;"/>
    <path clip-path="url(#peed1316572)" d="M 539.788162 206.389732 
L 539.766959 205.737107 
L 553.798084 196.556872 
L 553.81547 197.205559 
z
" style="fill:#0cba97;fill-opacity:0.8;"/>
    <path clip-path="url(#peed1316572)" d="M 539.788162 206.389732 
L 553.81547 197.205559 
L 576.49795 202.48628 
L 562.613659 211.774238 
z
" style="fill:#08745e;fill-opacity:0.8;"/>
    <path clip-path="url(#peed1316572)" d="M 539.766959 205.737107 
L 562.598306 211.119325 
L 576.486342 201.835323 
L 553.798084 196.556872 
z
" style="fill:#0aa384;fill-opacity:0.8;"/>
    <path clip-path="url(#peed1316572)" d="M 562.613659 211.774238 
L 576.49795 202.48628 
L 576.486342 201.835323 
L 562.598306 211.119325 
z
" style="fill:#065d4c;fill-opacity:0.8;"/>
    <path clip-path="url(#peed1316572)" d="M 539.788162 206.389732 
L 562.613659 211.774238 
L 562.598306 211.119325 
L 539.766959 205.737107 
z
" style="fill:#0cba97;fill-opacity:0.8;"/>
   </g>
   <g id="Poly3DCollection_31">
    <path clip-path="url(#peed1316572)" d="M 672.176866 200.028144 
L 672.200999 198.834492 
L 695.628778 204.14282 
L 695.593336 205.340653 
z
" style="fill:#065d4c;fill-opacity:0.8;"/>
    <path clip-path="url(#peed1316572)" d="M 659.26478 209.267718 
L 659.282963 208.066812 
L 672.200999 198.834492 
L 672.176866 200.028144 
z
" style="fill:#0cba97;fill-opacity:0.8;"/>
    <path clip-path="url(#peed1316572)" d="M 659.26478 209.267718 
L 672.176866 200.028144 
L 695.593336 205.340653 
L 682.838254 214.684955 
z
" style="fill:#08745e;fill-opacity:0.8;"/>
    <path clip-path="url(#peed1316572)" d="M 659.282963 208.066812 
L 682.8679 213.479836 
L 695.628778 204.14282 
L 672.200999 198.834492 
z
" style="fill:#0aa384;fill-opacity:0.8;"/>
    <path clip-path="url(#peed1316572)" d="M 682.838254 214.684955 
L 695.593336 205.340653 
L 695.628778 204.14282 
L 682.8679 213.479836 
z
" style="fill:#065d4c;fill-opacity:0.8;"/>
    <path clip-path="url(#peed1316572)" d="M 659.26478 209.267718 
L 682.838254 214.684955 
L 682.8679 213.479836 
L 659.282963 208.066812 
z
" style="fill:#0cba97;fill-opacity:0.8;"/>
   </g>
   <g id="Poly3DCollection_32">
    <path clip-path="url(#peed1316572)" d="M 599.436218 207.826551 
L 599.444923 208.824385 
L 622.634095 214.228714 
L 622.634624 213.227385 
z
" style="fill:#0cba97;fill-opacity:0.8;"/>
    <path clip-path="url(#peed1316572)" d="M 585.699095 217.220063 
L 585.713405 218.22396 
L 599.444923 208.824385 
L 599.436218 207.826551 
z
" style="fill:#065d4c;fill-opacity:0.8;"/>
    <path clip-path="url(#peed1316572)" d="M 585.713405 218.22396 
L 609.05389 223.735678 
L 622.634095 214.228714 
L 599.444923 208.824385 
z
" style="fill:#0aa384;fill-opacity:0.8;"/>
    <path clip-path="url(#peed1316572)" d="M 585.699095 217.220063 
L 599.436218 207.826551 
L 622.634624 213.227385 
L 609.048934 222.72826 
z
" style="fill:#08745e;fill-opacity:0.8;"/>
    <path clip-path="url(#peed1316572)" d="M 609.048934 222.72826 
L 622.634624 213.227385 
L 622.634095 214.228714 
L 609.05389 223.735678 
z
" style="fill:#0cba97;fill-opacity:0.8;"/>
    <path clip-path="url(#peed1316572)" d="M 585.699095 217.220063 
L 609.048934 222.72826 
L 609.05389 223.735678 
L 585.713405 218.22396 
z
" style="fill:#065d4c;fill-opacity:0.8;"/>
   </g>
   <g id="Poly3DCollection_33">
    <path clip-path="url(#peed1316572)" d="M 646.097618 218.689819 
L 646.086677 219.792123 
L 669.808213 225.321081 
L 669.829753 224.214911 
z
" style="fill:#0cba97;fill-opacity:0.8;"/>
    <path clip-path="url(#peed1316572)" d="M 632.667746 228.299908 
L 632.662684 229.408919 
L 646.086677 219.792123 
L 646.097618 218.689819 
z
" style="fill:#065d4c;fill-opacity:0.8;"/>
    <path clip-path="url(#peed1316572)" d="M 632.662684 229.408919 
L 656.544399 235.049014 
L 669.808213 225.321081 
L 646.086677 219.792123 
z
" style="fill:#0aa384;fill-opacity:0.8;"/>
    <path clip-path="url(#peed1316572)" d="M 632.667746 228.299908 
L 646.097618 218.689819 
L 669.829753 224.214911 
L 656.560204 233.936109 
z
" style="fill:#08745e;fill-opacity:0.8;"/>
    <path clip-path="url(#peed1316572)" d="M 656.560204 233.936109 
L 669.829753 224.214911 
L 669.808213 225.321081 
L 656.544399 235.049014 
z
" style="fill:#0cba97;fill-opacity:0.8;"/>
    <path clip-path="url(#peed1316572)" d="M 632.667746 228.299908 
L 656.560204 233.936109 
L 656.544399 235.049014 
L 632.662684 229.408919 
z
" style="fill:#065d4c;fill-opacity:0.8;"/>
   </g>
   <g id="Poly3DCollection_34">
    <path clip-path="url(#peed1316572)" d="M 482.059542 197.143958 
L 660.300786 239.386959 
L 756.325574 168.449234 
L 586.583289 131.964349 
z
" style="fill-opacity:0.2;"/>
   </g>
  </g>
 </g>
 <defs>
  <clipPath id="p886ed3f493">
   <rect height="277.2" width="380.454545" x="-30.6" y="-14.4"/>
  </clipPath>
  <clipPath id="peed1316572">
   <rect height="277.2" width="380.454545" x="425.945455" y="-14.4"/>
  </clipPath>
 </defs>
</svg>
