<?xml version="1.0" encoding="utf-8" standalone="no"?>
<!DOCTYPE svg PUBLIC "-//W3C//DTD SVG 1.1//EN"
  "http://www.w3.org/Graphics/SVG/1.1/DTD/svg11.dtd">
<!-- Created with matplotlib (https://matplotlib.org/) -->
<svg height="302.4pt" version="1.1" viewBox="0 0 820.8 302.4" width="820.8pt" xmlns="http://www.w3.org/2000/svg" xmlns:xlink="http://www.w3.org/1999/xlink">
 <defs>
  <style type="text/css">
*{stroke-linecap:butt;stroke-linejoin:round;}
  </style>
 </defs>
 <g id="figure_1">
  <g id="patch_1">
   <path d="M 0 302.4 
L 820.8 302.4 
L 820.8 0 
L 0 0 
z
" style="fill:#ffffff;"/>
  </g>
  <g id="patch_2">
   <path d="M -30.6 262.8 
L 349.854545 262.8 
L 349.854545 -14.4 
L -30.6 -14.4 
z
" style="fill:#ffffff;"/>
  </g>
  <g id="pane3d_1">
   <g id="patch_3">
    <path d="M 19.835129 201.548569 
L 128.723211 133.58541 
L 126.910339 3.718968 
L 11.951034 64.782468 
" style="fill:#f2f2f2;opacity:0.5;stroke:#f2f2f2;stroke-linejoin:miter;"/>
   </g>
  </g>
  <g id="pane3d_2">
   <g id="patch_4">
    <path d="M 128.723211 133.58541 
L 305.111665 171.581202 
L 312.491547 37.79869 
L 126.910339 3.718968 
" style="fill:#e6e6e6;opacity:0.5;stroke:#e6e6e6;stroke-linejoin:miter;"/>
   </g>
  </g>
  <g id="pane3d_3">
   <g id="patch_5">
    <path d="M 19.835129 201.548569 
L 205.419617 245.80086 
L 305.111665 171.581202 
L 128.723211 133.58541 
" style="fill:#ececec;opacity:0.5;stroke:#ececec;stroke-linejoin:miter;"/>
   </g>
  </g>
  <g id="axis3d_1">
   <g id="line2d_1">
    <path d="M 19.835129 201.548569 
L 205.419617 245.80086 
" style="fill:none;stroke:#000000;stroke-linecap:square;stroke-width:0.8;"/>
   </g>
   <g id="Line3DCollection_1">
    <path d="M 42.295817 206.90428 
L 150.133942 138.19749 
L 149.393845 7.847789 
" style="fill:none;stroke:#b0b0b0;stroke-width:0.8;"/>
    <path d="M 87.512337 217.686079 
L 193.184014 147.470895 
L 194.636898 16.156123 
" style="fill:none;stroke:#b0b0b0;stroke-width:0.8;"/>
    <path d="M 133.765289 228.715013 
L 237.148096 156.941187 
L 240.890183 24.649974 
" style="fill:none;stroke:#b0b0b0;stroke-width:0.8;"/>
    <path d="M 181.090721 239.999678 
L 282.055608 166.614702 
L 288.187917 33.335625 
" style="fill:none;stroke:#b0b0b0;stroke-width:0.8;"/>
   </g>
   <g id="xtick_1">
    <g id="line2d_2">
     <path d="M 43.225084 206.312217 
L 40.433807 208.09062 
" style="fill:none;stroke:#000000;stroke-linecap:square;stroke-width:0.8;"/>
    </g>
    <g id="text_1">
     <!-- 00 -->
     <defs>
      <path d="M 42 31.84375 
C 42 37.96875 41.90625 48.421875 37.703125 56.453125 
C 34 63.484375 28.09375 66 22.90625 66 
C 18.09375 66 12 63.78125 8.203125 56.5625 
C 4.203125 49.015625 3.796875 39.671875 3.796875 31.84375 
C 3.796875 26.109375 3.90625 17.375 7 9.734375 
C 11.296875 -0.609375 19 -2 22.90625 -2 
C 27.5 -2 34.5 -0.109375 38.59375 9.4375 
C 41.59375 16.375 42 24.5 42 31.84375 
z
M 22.90625 -0.40625 
C 16.5 -0.40625 12.703125 5.125 11.296875 12.75 
C 10.203125 18.6875 10.203125 27.328125 10.203125 32.953125 
C 10.203125 40.6875 10.203125 47.109375 11.5 53.234375 
C 13.40625 61.78125 19 64.390625 22.90625 64.390625 
C 27 64.390625 32.296875 61.671875 34.203125 53.4375 
C 35.5 47.71875 35.59375 40.984375 35.59375 32.953125 
C 35.59375 26.421875 35.59375 18.375 34.40625 12.453125 
C 32.296875 1.5 26.40625 -0.40625 22.90625 -0.40625 
z
" id="CMR17-48"/>
     </defs>
     <g transform="translate(23.330362 237.14703)rotate(-45)scale(0.14 -0.14)">
      <use transform="scale(0.996264)" xlink:href="#CMR17-48"/>
      <use transform="translate(45.690477 0)scale(0.996264)" xlink:href="#CMR17-48"/>
     </g>
    </g>
   </g>
   <g id="xtick_2">
    <g id="line2d_3">
     <path d="M 88.423674 217.080527 
L 85.686217 218.899473 
" style="fill:none;stroke:#000000;stroke-linecap:square;stroke-width:0.8;"/>
    </g>
    <g id="text_2">
     <!-- 01 -->
     <defs>
      <path d="M 26.59375 63.796875 
C 26.59375 65.890625 26.5 66 25.09375 66 
C 21.203125 61.359375 15.296875 59.890625 9.703125 59.6875 
C 9.40625 59.6875 8.90625 59.6875 8.796875 59.5 
C 8.703125 59.296875 8.703125 59.09375 8.703125 57 
C 11.796875 57 17 57.59375 21 59.984375 
L 21 7.296875 
C 21 3.796875 20.796875 2.59375 12.203125 2.59375 
L 9.203125 2.59375 
L 9.203125 0 
C 14 0.09375 19 0.1875 23.796875 0.1875 
C 28.59375 0.1875 33.59375 0.09375 38.40625 0 
L 38.40625 2.59375 
L 35.40625 2.59375 
C 26.796875 2.59375 26.59375 3.6875 26.59375 7.296875 
z
" id="CMR17-49"/>
     </defs>
     <g transform="translate(68.542787 248.103782)rotate(-45)scale(0.14 -0.14)">
      <use transform="scale(0.996264)" xlink:href="#CMR17-48"/>
      <use transform="translate(45.690477 0)scale(0.996264)" xlink:href="#CMR17-49"/>
     </g>
    </g>
   </g>
   <g id="xtick_3">
    <g id="line2d_4">
     <path d="M 134.657625 228.095506 
L 131.977203 229.956397 
" style="fill:none;stroke:#000000;stroke-linecap:square;stroke-width:0.8;"/>
    </g>
    <g id="text_3">
     <!-- 10 -->
     <g transform="translate(114.7934 259.312128)rotate(-45)scale(0.14 -0.14)">
      <use transform="scale(0.996264)" xlink:href="#CMR17-49"/>
      <use transform="translate(45.690477 0)scale(0.996264)" xlink:href="#CMR17-48"/>
     </g>
    </g>
   </g>
   <g id="xtick_4">
    <g id="line2d_5">
     <path d="M 181.962926 239.365727 
L 179.342936 241.270032 
" style="fill:none;stroke:#000000;stroke-linecap:square;stroke-width:0.8;"/>
    </g>
    <g id="text_4">
     <!-- 11 -->
     <g transform="translate(162.118375 270.780834)rotate(-45)scale(0.14 -0.14)">
      <use transform="scale(0.996264)" xlink:href="#CMR17-49"/>
      <use transform="translate(45.690477 0)scale(0.996264)" xlink:href="#CMR17-49"/>
     </g>
    </g>
   </g>
  </g>
  <g id="axis3d_2">
   <g id="line2d_6">
    <path d="M 305.111665 171.581202 
L 205.419617 245.80086 
" style="fill:none;stroke:#000000;stroke-linecap:square;stroke-width:0.8;"/>
   </g>
   <g id="Line3DCollection_2">
    <path d="M 27.455231 56.547028 
L 34.471044 192.413474 
L 218.858418 235.795817 
" style="fill:none;stroke:#b0b0b0;stroke-width:0.8;"/>
    <path d="M 57.232024 40.730342 
L 62.623407 174.842005 
L 244.674037 216.576366 
" style="fill:none;stroke:#b0b0b0;stroke-width:0.8;"/>
    <path d="M 85.85589 25.526062 
L 89.739382 157.917404 
L 269.496985 198.095948 
" style="fill:none;stroke:#b0b0b0;stroke-width:0.8;"/>
    <path d="M 113.392516 10.899296 
L 115.875164 141.604597 
L 293.383438 180.312741 
" style="fill:none;stroke:#b0b0b0;stroke-width:0.8;"/>
   </g>
   <g id="xtick_5">
    <g id="line2d_7">
     <path d="M 217.315598 235.432825 
L 221.947489 236.522608 
" style="fill:none;stroke:#000000;stroke-linecap:square;stroke-width:0.8;"/>
    </g>
    <g id="text_5">
     <!-- 00 -->
     <g transform="translate(232.650369 248.348363)rotate(-337.5)scale(0.14 -0.14)">
      <use transform="scale(0.996264)" xlink:href="#CMR17-48"/>
      <use transform="translate(45.690477 0)scale(0.996264)" xlink:href="#CMR17-48"/>
     </g>
    </g>
   </g>
   <g id="xtick_6">
    <g id="line2d_8">
     <path d="M 243.15208 216.227463 
L 247.72127 217.274932 
" style="fill:none;stroke:#000000;stroke-linecap:square;stroke-width:0.8;"/>
    </g>
    <g id="text_6">
     <!-- 01 -->
     <g transform="translate(258.203921 228.903937)rotate(-337.5)scale(0.14 -0.14)">
      <use transform="scale(0.996264)" xlink:href="#CMR17-48"/>
      <use transform="translate(45.690477 0)scale(0.996264)" xlink:href="#CMR17-49"/>
     </g>
    </g>
   </g>
   <g id="xtick_7">
    <g id="line2d_9">
     <path d="M 267.995442 197.76033 
L 272.503283 198.767901 
" style="fill:none;stroke:#000000;stroke-linecap:square;stroke-width:0.8;"/>
    </g>
    <g id="text_7">
     <!-- 10 -->
     <g transform="translate(282.775332 210.206849)rotate(-337.5)scale(0.14 -0.14)">
      <use transform="scale(0.996264)" xlink:href="#CMR17-49"/>
      <use transform="translate(45.690477 0)scale(0.996264)" xlink:href="#CMR17-48"/>
     </g>
    </g>
   </g>
   <g id="xtick_8">
    <g id="line2d_10">
     <path d="M 291.901865 179.989663 
L 296.349691 180.959573 
" style="fill:none;stroke:#000000;stroke-linecap:square;stroke-width:0.8;"/>
    </g>
    <g id="text_8">
     <!-- 11 -->
     <g transform="translate(306.420159 192.214827)rotate(-337.5)scale(0.14 -0.14)">
      <use transform="scale(0.996264)" xlink:href="#CMR17-49"/>
      <use transform="translate(45.690477 0)scale(0.996264)" xlink:href="#CMR17-49"/>
     </g>
    </g>
   </g>
  </g>
  <g id="axis3d_3">
   <g id="line2d_11">
    <path d="M 305.111665 171.581202 
L 312.491547 37.79869 
" style="fill:none;stroke:#000000;stroke-linecap:square;stroke-width:0.8;"/>
   </g>
   <g id="text_9">
    <!-- Re[$\rho$] -->
    <defs>
     <path d="M 39.203125 33.6875 
C 48.703125 35.59375 56.703125 42.015625 56.703125 50.046875 
C 56.703125 59.46875 46.09375 68 32.09375 68 
L 5.203125 68 
L 5.203125 65.390625 
C 12.09375 65.390625 13.203125 65.390625 13.203125 60.875 
L 13.203125 6.6875 
C 13.203125 2.1875 12.09375 2.1875 5.203125 2.1875 
L 5.203125 -0.40625 
C 8.09375 -0.203125 13.296875 -0.203125 16.40625 -0.203125 
C 19.5 -0.203125 24.703125 -0.203125 27.59375 -0.40625 
L 27.59375 2.1875 
C 20.703125 2.1875 19.59375 2.1875 19.59375 6.6875 
L 19.59375 33 
L 31.296875 33 
C 37 33 40.203125 30.6875 41.59375 29.390625 
C 45.59375 25.5 45.59375 22.796875 45.59375 16 
C 45.59375 9.296875 45.59375 5.890625 48.59375 2.5 
C 52.40625 -1.609375 57.5 -2 59.703125 -2 
C 67.09375 -2 68.203125 6.296875 68.203125 8 
C 68.203125 8.59375 68.203125 9.296875 67.296875 9.296875 
C 66.5 9.296875 66.40625 8.6875 66.40625 8.296875 
C 65.90625 1.796875 63 -0.40625 59.90625 -0.40625 
C 54.40625 -0.40625 53.796875 5.890625 53.203125 12 
C 52.90625 14.09375 52.703125 15.59375 52.5 17.796875 
C 51.90625 22.796875 51.09375 30.09375 39.203125 33.6875 
z
M 31 34.59375 
L 19.59375 34.59375 
L 19.59375 61.484375 
C 19.59375 64.890625 19.796875 65.390625 23.796875 65.390625 
L 31.09375 65.390625 
C 39.40625 65.390625 49.09375 62.484375 49.09375 50.046875 
C 49.09375 37.09375 38.5 34.59375 31 34.59375 
z
" id="CMR17-82"/>
     <path d="M 38.09375 23.484375 
C 38.5 23.890625 38.5 24.09375 38.5 25.09375 
C 38.5 35.171875 33.09375 44 21.703125 44 
C 11.09375 44 2.703125 33.984375 2.703125 21.78125 
C 2.703125 8.65625 12.203125 -1 22.796875 -1 
C 34 -1 38.40625 9.671875 38.40625 11.796875 
C 38.40625 12.5 37.796875 12.5 37.59375 12.5 
C 36.90625 12.5 36.796875 12.296875 36.40625 11.078125 
C 34.203125 4.21875 28.703125 0.796875 23.5 0.796875 
C 19.203125 0.796875 14.90625 3.21875 12.203125 7.65625 
C 9.09375 12.796875 9.09375 18.75 9.09375 23.484375 
z
M 9.203125 25 
C 9.90625 39.234375 17.59375 42.390625 21.59375 42.390625 
C 28.40625 42.390625 33 36.0625 33.09375 25 
z
" id="CMR17-101"/>
     <path d="M 23.5 -25 
L 23.5 -21.5 
L 14.09375 -21.5 
L 14.09375 71.484375 
L 23.5 71.484375 
L 23.5 75 
L 10.59375 75 
L 10.59375 -25 
z
" id="CMR17-91"/>
     <path d="M 3.09375 -16.953125 
C 3 -17.4375 2.796875 -18.03125 2.796875 -18.609375 
C 2.796875 -20.109375 4 -21.109375 5.5 -21.109375 
C 7 -21.109375 8.40625 -20.109375 9 -18.71875 
C 9.40625 -17.828125 12.203125 -6.09375 15.40625 6.078125 
C 17.40625 1.09375 21.09375 -1 25 -1 
C 36.296875 -1 49.09375 12.96875 49.09375 28.03125 
C 49.09375 38.703125 42.59375 44 35.703125 44 
C 26.90625 44 16.203125 34.90625 12.90625 21.640625 
z
M 24.90625 1 
C 18.09375 1 16.40625 8.875 16.40625 10.078125 
C 16.40625 10.671875 18.90625 20.140625 19.203125 21.640625 
C 24.296875 41.5 34.09375 41.984375 35.59375 41.984375 
C 40.09375 41.984375 42.59375 37.90625 42.59375 32.015625 
C 42.59375 26.9375 39.90625 17.046875 38.203125 12.859375 
C 35.203125 5.984375 30 1 24.90625 1 
z
" id="CMMI12-26"/>
     <path d="M 14.296875 75 
L 1.40625 75 
L 1.40625 71.484375 
L 10.796875 71.484375 
L 10.796875 -21.5 
L 1.40625 -21.5 
L 1.40625 -25 
L 14.296875 -25 
z
" id="CMR17-93"/>
    </defs>
    <g transform="translate(352.486567 117.931831)rotate(-86.842577)scale(0.14 -0.14)">
     <use transform="scale(0.996264)" xlink:href="#CMR17-82"/>
     <use transform="translate(67.791102 0)scale(0.996264)" xlink:href="#CMR17-101"/>
     <use transform="translate(108.276762 0)scale(0.996264)" xlink:href="#CMR17-91"/>
     <use transform="translate(133.147821 0)scale(0.996264)" xlink:href="#CMMI12-26"/>
     <use transform="translate(183.462194 0)scale(0.996264)" xlink:href="#CMR17-93"/>
    </g>
   </g>
   <g id="Line3DCollection_3">
    <path d="M 305.305915 168.059847 
L 128.675392 130.159875 
L 19.627955 197.954711 
" style="fill:none;stroke:#b0b0b0;stroke-width:0.8;"/>
    <path d="M 308.032254 118.636766 
L 128.004822 82.123095 
L 16.718243 147.479667 
" style="fill:none;stroke:#b0b0b0;stroke-width:0.8;"/>
    <path d="M 310.866464 67.258194 
L 127.308864 32.267589 
L 13.689478 94.939419 
" style="fill:none;stroke:#b0b0b0;stroke-width:0.8;"/>
   </g>
   <g id="xtick_9">
    <g id="line2d_12">
     <path d="M 303.832162 167.743621 
L 308.256487 168.692957 
" style="fill:none;stroke:#000000;stroke-linecap:square;stroke-width:0.8;"/>
    </g>
    <g id="text_10">
     <!-- $0.0$ -->
     <defs>
      <path d="M 18.40625 4.796875 
C 18.40625 7.6875 16 9.6875 13.59375 9.6875 
C 10.703125 9.6875 8.703125 7.296875 8.703125 4.890625 
C 8.703125 2 11.09375 0 13.5 0 
C 16.40625 0 18.40625 2.390625 18.40625 4.796875 
z
" id="CMMI12-58"/>
     </defs>
     <g transform="translate(315.115384 175.806147)scale(0.14 -0.14)">
      <use transform="scale(0.996264)" xlink:href="#CMR17-48"/>
      <use transform="translate(45.690477 0)scale(0.996264)" xlink:href="#CMMI12-58"/>
      <use transform="translate(72.787654 0)scale(0.996264)" xlink:href="#CMR17-48"/>
     </g>
    </g>
   </g>
   <g id="xtick_10">
    <g id="line2d_13">
     <path d="M 306.528958 118.331863 
L 311.042034 119.247218 
" style="fill:none;stroke:#000000;stroke-linecap:square;stroke-width:0.8;"/>
    </g>
    <g id="text_11">
     <!-- $0.2$ -->
     <defs>
      <path d="M 41.703125 15.46875 
L 39.90625 15.46875 
C 38.90625 8.390625 38.09375 7.1875 37.703125 6.59375 
C 37.203125 5.796875 30 5.796875 28.59375 5.796875 
L 9.40625 5.796875 
C 13 9.6875 20 16.765625 28.5 24.9375 
C 34.59375 30.71875 41.703125 37.5 41.703125 47.390625 
C 41.703125 59.1875 32.296875 66 21.796875 66 
C 10.796875 66 4.09375 56.296875 4.09375 47.296875 
C 4.09375 43.390625 7 42.890625 8.203125 42.890625 
C 9.203125 42.890625 12.203125 43.484375 12.203125 46.984375 
C 12.203125 50.09375 9.59375 51 8.203125 51 
C 7.59375 51 7 50.890625 6.59375 50.6875 
C 8.5 59.1875 14.296875 63.390625 20.40625 63.390625 
C 29.09375 63.390625 34.796875 56.5 34.796875 47.390625 
C 34.796875 38.703125 29.703125 31.21875 24 24.734375 
L 4.09375 2.296875 
L 4.09375 0 
L 39.296875 0 
z
" id="CMR17-50"/>
     </defs>
     <g transform="translate(318.194601 126.452584)scale(0.14 -0.14)">
      <use transform="scale(0.996264)" xlink:href="#CMR17-48"/>
      <use transform="translate(45.690477 0)scale(0.996264)" xlink:href="#CMMI12-58"/>
      <use transform="translate(72.787654 0)scale(0.996264)" xlink:href="#CMR17-50"/>
     </g>
    </g>
   </g>
   <g id="xtick_11">
    <g id="line2d_14">
     <path d="M 309.332419 66.965767 
L 313.937874 67.843681 
" style="fill:none;stroke:#000000;stroke-linecap:square;stroke-width:0.8;"/>
    </g>
    <g id="text_12">
     <!-- $0.4$ -->
     <defs>
      <path d="M 33.59375 64.796875 
C 33.59375 66.890625 33.5 67 31.703125 67 
L 2 19.59375 
L 2 17 
L 27.796875 17 
L 27.796875 7.1875 
C 27.796875 3.59375 27.59375 2.59375 20.59375 2.59375 
L 18.703125 2.59375 
L 18.703125 0 
C 21.90625 0.1875 27.296875 0.1875 30.703125 0.1875 
C 34.09375 0.1875 39.5 0.1875 42.703125 0 
L 42.703125 2.59375 
L 40.796875 2.59375 
C 33.796875 2.59375 33.59375 3.59375 33.59375 7.1875 
L 33.59375 17 
L 43.796875 17 
L 43.796875 19.59375 
L 33.59375 19.59375 
z
M 28.09375 58.171875 
L 28.09375 19.59375 
L 4 19.59375 
z
" id="CMR17-52"/>
     </defs>
     <g transform="translate(321.395383 75.150594)scale(0.14 -0.14)">
      <use transform="scale(0.996264)" xlink:href="#CMR17-48"/>
      <use transform="translate(45.690477 0)scale(0.996264)" xlink:href="#CMMI12-58"/>
      <use transform="translate(72.787654 0)scale(0.996264)" xlink:href="#CMR17-52"/>
     </g>
    </g>
   </g>
  </g>
  <g id="axes_1">
   <g id="Poly3DCollection_1">
    <path clip-path="url(#p184763b497)" d="M 133.040002 136.521388 
L 132.952261 129.388954 
L 154.406116 133.983475 
L 154.434842 141.140561 
z
" style="fill:#5d0618;fill-opacity:0.8;"/>
    <path clip-path="url(#p184763b497)" d="M 120.254506 144.552852 
L 120.130283 137.37764 
L 132.952261 129.388954 
L 133.040002 136.521388 
z
" style="fill:#ba0c2f;fill-opacity:0.8;"/>
    <path clip-path="url(#p184763b497)" d="M 120.254506 144.552852 
L 133.040002 136.521388 
L 154.434842 141.140561 
L 141.777747 149.256838 
z
" style="fill:#74081d;fill-opacity:0.8;"/>
    <path clip-path="url(#p184763b497)" d="M 120.130283 137.37764 
L 141.713248 142.056758 
L 154.406116 133.983475 
L 132.952261 129.388954 
z
" style="fill:#a30a29;fill-opacity:0.8;"/>
    <path clip-path="url(#p184763b497)" d="M 141.777747 149.256838 
L 154.434842 141.140561 
L 154.406116 133.983475 
L 141.713248 142.056758 
z
" style="fill:#5d0618;fill-opacity:0.8;"/>
    <path clip-path="url(#p184763b497)" d="M 120.254506 144.552852 
L 141.777747 149.256838 
L 141.713248 142.056758 
L 120.130283 137.37764 
z
" style="fill:#ba0c2f;fill-opacity:0.8;"/>
   </g>
   <g id="Poly3DCollection_2">
    <path clip-path="url(#p184763b497)" d="M 176.055176 145.808419 
L 176.051392 146.669962 
L 197.893418 151.39025 
L 197.904586 150.525734 
z
" style="fill:#ba0c2f;fill-opacity:0.8;"/>
    <path clip-path="url(#p184763b497)" d="M 163.529924 154.010859 
L 163.530343 154.877561 
L 176.051392 146.669962 
L 176.055176 145.808419 
z
" style="fill:#5d0618;fill-opacity:0.8;"/>
    <path clip-path="url(#p184763b497)" d="M 163.530343 154.877561 
L 185.507653 159.685418 
L 197.893418 151.39025 
L 176.051392 146.669962 
z
" style="fill:#a30a29;fill-opacity:0.8;"/>
    <path clip-path="url(#p184763b497)" d="M 163.529924 154.010859 
L 176.055176 145.808419 
L 197.904586 150.525734 
L 185.51471 158.815718 
z
" style="fill:#74081d;fill-opacity:0.8;"/>
    <path clip-path="url(#p184763b497)" d="M 185.51471 158.815718 
L 197.904586 150.525734 
L 197.893418 151.39025 
L 185.507653 159.685418 
z
" style="fill:#ba0c2f;fill-opacity:0.8;"/>
    <path clip-path="url(#p184763b497)" d="M 163.529924 154.010859 
L 185.51471 158.815718 
L 185.507653 159.685418 
L 163.530343 154.877561 
z
" style="fill:#5d0618;fill-opacity:0.8;"/>
   </g>
   <g id="Poly3DCollection_3">
    <path clip-path="url(#p184763b497)" d="M 107.233794 152.732071 
L 107.222282 152.219242 
L 128.879337 157.008624 
L 128.886555 157.523228 
z
" style="fill:#5d0618;fill-opacity:0.8;"/>
    <path clip-path="url(#p184763b497)" d="M 93.971316 161.063161 
L 93.957019 160.547252 
L 107.222282 152.219242 
L 107.233794 152.732071 
z
" style="fill:#ba0c2f;fill-opacity:0.8;"/>
    <path clip-path="url(#p184763b497)" d="M 93.971316 161.063161 
L 107.233794 152.732071 
L 128.886555 157.523228 
L 115.754712 165.943934 
z
" style="fill:#74081d;fill-opacity:0.8;"/>
    <path clip-path="url(#p184763b497)" d="M 93.957019 160.547252 
L 115.74476 165.426236 
L 128.879337 157.008624 
L 107.222282 152.219242 
z
" style="fill:#a30a29;fill-opacity:0.8;"/>
    <path clip-path="url(#p184763b497)" d="M 115.754712 165.943934 
L 128.886555 157.523228 
L 128.879337 157.008624 
L 115.74476 165.426236 
z
" style="fill:#5d0618;fill-opacity:0.8;"/>
    <path clip-path="url(#p184763b497)" d="M 93.971316 161.063161 
L 115.754712 165.943934 
L 115.74476 165.426236 
L 93.957019 160.547252 
z
" style="fill:#ba0c2f;fill-opacity:0.8;"/>
   </g>
   <g id="Poly3DCollection_4">
    <path clip-path="url(#p184763b497)" d="M 219.986732 155.293298 
L 219.996639 154.833935 
L 242.31934 159.650963 
L 242.305355 160.111917 
z
" style="fill:#5d0618;fill-opacity:0.8;"/>
    <path clip-path="url(#p184763b497)" d="M 207.735854 163.672234 
L 207.743634 163.210111 
L 219.996639 154.833935 
L 219.986732 155.293298 
z
" style="fill:#ba0c2f;fill-opacity:0.8;"/>
    <path clip-path="url(#p184763b497)" d="M 207.735854 163.672234 
L 219.986732 155.293298 
L 242.305355 160.111917 
L 230.19719 168.581245 
z
" style="fill:#74081d;fill-opacity:0.8;"/>
    <path clip-path="url(#p184763b497)" d="M 207.743634 163.210111 
L 230.209102 168.117517 
L 242.31934 159.650963 
L 219.996639 154.833935 
z
" style="fill:#a30a29;fill-opacity:0.8;"/>
    <path clip-path="url(#p184763b497)" d="M 230.19719 168.581245 
L 242.305355 160.111917 
L 242.31934 159.650963 
L 230.209102 168.117517 
z
" style="fill:#5d0618;fill-opacity:0.8;"/>
    <path clip-path="url(#p184763b497)" d="M 207.735854 163.672234 
L 230.19719 168.581245 
L 230.209102 168.117517 
L 207.743634 163.210111 
z
" style="fill:#ba0c2f;fill-opacity:0.8;"/>
   </g>
   <g id="Poly3DCollection_5">
    <path clip-path="url(#p184763b497)" d="M 150.771772 162.365821 
L 150.773224 162.630852 
L 172.892358 167.526633 
L 172.893206 167.260683 
z
" style="fill:#ba0c2f;fill-opacity:0.8;"/>
    <path clip-path="url(#p184763b497)" d="M 137.77416 170.877597 
L 137.776988 171.144224 
L 150.773224 162.630852 
L 150.771772 162.365821 
z
" style="fill:#5d0618;fill-opacity:0.8;"/>
    <path clip-path="url(#p184763b497)" d="M 137.776988 171.144224 
L 160.034017 176.132568 
L 172.892358 167.526633 
L 150.773224 162.630852 
z
" style="fill:#a30a29;fill-opacity:0.8;"/>
    <path clip-path="url(#p184763b497)" d="M 137.77416 170.877597 
L 150.771772 162.365821 
L 172.893206 167.260683 
L 160.033518 175.865015 
z
" style="fill:#74081d;fill-opacity:0.8;"/>
    <path clip-path="url(#p184763b497)" d="M 160.033518 175.865015 
L 172.893206 167.260683 
L 172.892358 167.526633 
L 160.034017 176.132568 
z
" style="fill:#ba0c2f;fill-opacity:0.8;"/>
    <path clip-path="url(#p184763b497)" d="M 137.77416 170.877597 
L 160.033518 175.865015 
L 160.034017 176.132568 
L 137.776988 171.144224 
z
" style="fill:#5d0618;fill-opacity:0.8;"/>
   </g>
   <g id="Poly3DCollection_6">
    <path clip-path="url(#p184763b497)" d="M 80.460274 169.55039 
L 80.492653 170.528244 
L 102.399507 175.504569 
L 102.375415 174.523318 
z
" style="fill:#ba0c2f;fill-opacity:0.8;"/>
    <path clip-path="url(#p184763b497)" d="M 66.693615 178.198191 
L 66.731637 179.181938 
L 80.492653 170.528244 
L 80.460274 169.55039 
z
" style="fill:#5d0618;fill-opacity:0.8;"/>
    <path clip-path="url(#p184763b497)" d="M 66.731637 179.181938 
L 88.771239 184.25308 
L 102.399507 175.504569 
L 80.492653 170.528244 
z
" style="fill:#a30a29;fill-opacity:0.8;"/>
    <path clip-path="url(#p184763b497)" d="M 66.693615 178.198191 
L 80.460274 169.55039 
L 102.375415 174.523318 
L 88.741603 183.265909 
z
" style="fill:#74081d;fill-opacity:0.8;"/>
    <path clip-path="url(#p184763b497)" d="M 88.741603 183.265909 
L 102.375415 174.523318 
L 102.399507 175.504569 
L 88.771239 184.25308 
z
" style="fill:#ba0c2f;fill-opacity:0.8;"/>
    <path clip-path="url(#p184763b497)" d="M 66.693615 178.198191 
L 88.741603 183.265909 
L 88.771239 184.25308 
L 66.731637 179.181938 
z
" style="fill:#5d0618;fill-opacity:0.8;"/>
   </g>
   <g id="Poly3DCollection_7">
    <path clip-path="url(#p184763b497)" d="M 195.254704 172.208664 
L 195.25828 171.910301 
L 217.866456 176.911233 
L 217.860194 177.210633 
z
" style="fill:#5d0618;fill-opacity:0.8;"/>
    <path clip-path="url(#p184763b497)" d="M 182.536728 180.907069 
L 182.538832 180.606906 
L 195.25828 171.910301 
L 195.254704 172.208664 
z
" style="fill:#ba0c2f;fill-opacity:0.8;"/>
    <path clip-path="url(#p184763b497)" d="M 182.536728 180.907069 
L 195.254704 172.208664 
L 217.860194 177.210633 
L 205.287818 186.004664 
z
" style="fill:#74081d;fill-opacity:0.8;"/>
    <path clip-path="url(#p184763b497)" d="M 182.538832 180.606906 
L 205.292643 185.703454 
L 217.866456 176.911233 
L 195.25828 171.910301 
z
" style="fill:#a30a29;fill-opacity:0.8;"/>
    <path clip-path="url(#p184763b497)" d="M 205.287818 186.004664 
L 217.860194 177.210633 
L 217.866456 176.911233 
L 205.292643 185.703454 
z
" style="fill:#5d0618;fill-opacity:0.8;"/>
    <path clip-path="url(#p184763b497)" d="M 182.536728 180.907069 
L 205.287818 186.004664 
L 205.292643 185.703454 
L 182.538832 180.606906 
z
" style="fill:#ba0c2f;fill-opacity:0.8;"/>
   </g>
   <g id="Poly3DCollection_8">
    <path clip-path="url(#p184763b497)" d="M 124.530285 179.550645 
L 124.525504 179.249289 
L 146.926708 184.330861 
L 146.928839 184.633268 
z
" style="fill:#5d0618;fill-opacity:0.8;"/>
    <path clip-path="url(#p184763b497)" d="M 111.03308 188.389592 
L 111.026634 188.086413 
L 124.525504 179.249289 
L 124.530285 179.550645 
z
" style="fill:#ba0c2f;fill-opacity:0.8;"/>
    <path clip-path="url(#p184763b497)" d="M 111.03308 188.389592 
L 124.530285 179.550645 
L 146.928839 184.633268 
L 133.572101 193.570173 
z
" style="fill:#74081d;fill-opacity:0.8;"/>
    <path clip-path="url(#p184763b497)" d="M 111.026634 188.086413 
L 133.568338 193.265935 
L 146.926708 184.330861 
L 124.525504 179.249289 
z
" style="fill:#a30a29;fill-opacity:0.8;"/>
    <path clip-path="url(#p184763b497)" d="M 133.572101 193.570173 
L 146.928839 184.633268 
L 146.926708 184.330861 
L 133.568338 193.265935 
z
" style="fill:#5d0618;fill-opacity:0.8;"/>
    <path clip-path="url(#p184763b497)" d="M 111.03308 188.389592 
L 133.572101 193.570173 
L 133.568338 193.265935 
L 111.026634 188.086413 
z
" style="fill:#ba0c2f;fill-opacity:0.8;"/>
   </g>
   <g id="Poly3DCollection_9">
    <path clip-path="url(#p184763b497)" d="M 240.713692 182.26748 
L 240.727726 181.799331 
L 263.837707 186.910331 
L 263.819302 187.380113 
z
" style="fill:#5d0618;fill-opacity:0.8;"/>
    <path clip-path="url(#p184763b497)" d="M 228.290909 191.158721 
L 228.30276 190.687739 
L 240.727726 181.799331 
L 240.713692 182.26748 
z
" style="fill:#ba0c2f;fill-opacity:0.8;"/>
    <path clip-path="url(#p184763b497)" d="M 228.290909 191.158721 
L 240.713692 182.26748 
L 263.819302 187.380113 
L 251.550209 196.370185 
z
" style="fill:#74081d;fill-opacity:0.8;"/>
    <path clip-path="url(#p184763b497)" d="M 228.30276 190.687739 
L 251.566489 195.897557 
L 263.837707 186.910331 
L 240.727726 181.799331 
z
" style="fill:#a30a29;fill-opacity:0.8;"/>
    <path clip-path="url(#p184763b497)" d="M 251.550209 196.370185 
L 263.819302 187.380113 
L 263.837707 186.910331 
L 251.566489 195.897557 
z
" style="fill:#5d0618;fill-opacity:0.8;"/>
    <path clip-path="url(#p184763b497)" d="M 228.290909 191.158721 
L 251.550209 196.370185 
L 251.566489 195.897557 
L 228.30276 190.687739 
z
" style="fill:#ba0c2f;fill-opacity:0.8;"/>
   </g>
   <g id="Poly3DCollection_10">
    <path clip-path="url(#p184763b497)" d="M 169.575121 189.772105 
L 169.574607 190.042213 
L 192.470283 195.239144 
L 192.473262 194.968093 
z
" style="fill:#ba0c2f;fill-opacity:0.8;"/>
    <path clip-path="url(#p184763b497)" d="M 156.362815 198.808605 
L 156.363722 199.08035 
L 169.574607 190.042213 
L 169.575121 189.772105 
z
" style="fill:#5d0618;fill-opacity:0.8;"/>
    <path clip-path="url(#p184763b497)" d="M 156.363722 199.08035 
L 179.407869 204.378558 
L 192.470283 195.239144 
L 169.574607 190.042213 
z
" style="fill:#a30a29;fill-opacity:0.8;"/>
    <path clip-path="url(#p184763b497)" d="M 156.362815 198.808605 
L 169.575121 189.772105 
L 192.473262 194.968093 
L 179.409459 204.105863 
z
" style="fill:#74081d;fill-opacity:0.8;"/>
    <path clip-path="url(#p184763b497)" d="M 179.409459 204.105863 
L 192.473262 194.968093 
L 192.470283 195.239144 
L 179.407869 204.378558 
z
" style="fill:#ba0c2f;fill-opacity:0.8;"/>
    <path clip-path="url(#p184763b497)" d="M 156.362815 198.808605 
L 179.409459 204.105863 
L 179.407869 204.378558 
L 156.363722 199.08035 
z
" style="fill:#5d0618;fill-opacity:0.8;"/>
   </g>
   <g id="Poly3DCollection_11">
    <path clip-path="url(#p184763b497)" d="M 97.275206 197.399243 
L 97.301916 198.395852 
L 119.973795 203.680734 
L 119.955962 202.680642 
z
" style="fill:#ba0c2f;fill-opacity:0.8;"/>
    <path clip-path="url(#p184763b497)" d="M 83.249039 206.584592 
L 83.281614 207.587244 
L 97.301916 198.395852 
L 97.275206 197.399243 
z
" style="fill:#5d0618;fill-opacity:0.8;"/>
    <path clip-path="url(#p184763b497)" d="M 83.281614 207.587244 
L 106.096377 212.975942 
L 119.973795 203.680734 
L 97.301916 198.395852 
z
" style="fill:#a30a29;fill-opacity:0.8;"/>
    <path clip-path="url(#p184763b497)" d="M 83.249039 206.584592 
L 97.275206 197.399243 
L 119.955962 202.680642 
L 106.072789 211.96978 
z
" style="fill:#74081d;fill-opacity:0.8;"/>
    <path clip-path="url(#p184763b497)" d="M 106.072789 211.96978 
L 119.955962 202.680642 
L 119.973795 203.680734 
L 106.096377 212.975942 
z
" style="fill:#ba0c2f;fill-opacity:0.8;"/>
    <path clip-path="url(#p184763b497)" d="M 83.249039 206.584592 
L 106.072789 211.96978 
L 106.096377 212.975942 
L 83.281614 207.587244 
z
" style="fill:#5d0618;fill-opacity:0.8;"/>
   </g>
   <g id="Poly3DCollection_12">
    <path clip-path="url(#p184763b497)" d="M 215.627488 200.222191 
L 215.609397 201.117007 
L 239.01555 206.433325 
L 239.042119 205.535379 
z
" style="fill:#ba0c2f;fill-opacity:0.8;"/>
    <path clip-path="url(#p184763b497)" d="M 202.71637 209.462943 
L 202.702739 210.363188 
L 215.609397 201.117007 
L 215.627488 200.222191 
z
" style="fill:#5d0618;fill-opacity:0.8;"/>
    <path clip-path="url(#p184763b497)" d="M 202.702739 210.363188 
L 226.265757 215.784262 
L 239.01555 206.433325 
L 215.609397 201.117007 
z
" style="fill:#a30a29;fill-opacity:0.8;"/>
    <path clip-path="url(#p184763b497)" d="M 202.71637 209.462943 
L 215.627488 200.222191 
L 239.042119 205.535379 
L 226.287981 214.880864 
z
" style="fill:#74081d;fill-opacity:0.8;"/>
    <path clip-path="url(#p184763b497)" d="M 226.287981 214.880864 
L 239.042119 205.535379 
L 239.01555 206.433325 
L 226.265757 215.784262 
z
" style="fill:#ba0c2f;fill-opacity:0.8;"/>
    <path clip-path="url(#p184763b497)" d="M 202.71637 209.462943 
L 226.287981 214.880864 
L 226.265757 215.784262 
L 202.702739 210.363188 
z
" style="fill:#5d0618;fill-opacity:0.8;"/>
   </g>
   <g id="Poly3DCollection_13">
    <path clip-path="url(#p184763b497)" d="M 142.892465 208.021593 
L 142.887818 207.488905 
L 166.089348 212.888556 
L 166.089066 213.423111 
z
" style="fill:#5d0618;fill-opacity:0.8;"/>
    <path clip-path="url(#p184763b497)" d="M 129.156437 217.416291 
L 129.148798 216.880364 
L 142.887818 207.488905 
L 142.892465 208.021593 
z
" style="fill:#ba0c2f;fill-opacity:0.8;"/>
    <path clip-path="url(#p184763b497)" d="M 129.156437 217.416291 
L 142.892465 208.021593 
L 166.089066 213.423111 
L 152.504448 222.925177 
z
" style="fill:#74081d;fill-opacity:0.8;"/>
    <path clip-path="url(#p184763b497)" d="M 129.148798 216.880364 
L 152.501802 222.387368 
L 166.089348 212.888556 
L 142.887818 207.488905 
z
" style="fill:#a30a29;fill-opacity:0.8;"/>
    <path clip-path="url(#p184763b497)" d="M 152.504448 222.925177 
L 166.089066 213.423111 
L 166.089348 212.888556 
L 152.501802 222.387368 
z
" style="fill:#5d0618;fill-opacity:0.8;"/>
    <path clip-path="url(#p184763b497)" d="M 129.156437 217.416291 
L 152.504448 222.925177 
L 152.501802 222.387368 
L 129.148798 216.880364 
z
" style="fill:#ba0c2f;fill-opacity:0.8;"/>
   </g>
   <g id="Poly3DCollection_14">
    <path clip-path="url(#p184763b497)" d="M 252.902633 173.543606 
L 264.864271 164.982416 
L 287.667384 169.905637 
L 275.856184 178.560192 
z
" style="fill:#74081d;fill-opacity:0.8;"/>
    <path clip-path="url(#p184763b497)" d="M 264.864271 164.982416 
L 269.853873 37.832394 
L 293.828503 42.279736 
L 287.667384 169.905637 
z
" style="fill:#5d0618;fill-opacity:0.8;"/>
    <path clip-path="url(#p184763b497)" d="M 252.902633 173.543606 
L 257.339398 45.567601 
L 269.853873 37.832394 
L 264.864271 164.982416 
z
" style="fill:#ba0c2f;fill-opacity:0.8;"/>
    <path clip-path="url(#p184763b497)" d="M 275.856184 178.560192 
L 287.667384 169.905637 
L 293.828503 42.279736 
L 281.480557 50.103563 
z
" style="fill:#5d0618;fill-opacity:0.8;"/>
    <path clip-path="url(#p184763b497)" d="M 252.902633 173.543606 
L 275.856184 178.560192 
L 281.480557 50.103563 
L 257.339398 45.567601 
z
" style="fill:#ba0c2f;fill-opacity:0.8;"/>
    <path clip-path="url(#p184763b497)" d="M 257.339398 45.567601 
L 281.480557 50.103563 
L 293.828503 42.279736 
L 269.853873 37.832394 
z
" style="fill:#a30a29;fill-opacity:0.8;"/>
   </g>
   <g id="Poly3DCollection_15">
    <path clip-path="url(#p184763b497)" d="M 189.550214 218.886231 
L 189.625169 211.33421 
L 213.428036 216.833359 
L 213.280461 224.412012 
z
" style="fill:#5d0618;fill-opacity:0.8;"/>
    <path clip-path="url(#p184763b497)" d="M 176.121389 228.497516 
L 176.156071 220.899294 
L 189.625169 211.33421 
L 189.550214 218.886231 
z
" style="fill:#ba0c2f;fill-opacity:0.8;"/>
    <path clip-path="url(#p184763b497)" d="M 176.121389 228.497516 
L 189.550214 218.886231 
L 213.280461 224.412012 
L 200.011933 234.134411 
z
" style="fill:#74081d;fill-opacity:0.8;"/>
    <path clip-path="url(#p184763b497)" d="M 176.156071 220.899294 
L 200.120224 226.509361 
L 213.428036 216.833359 
L 189.625169 211.33421 
z
" style="fill:#a30a29;fill-opacity:0.8;"/>
    <path clip-path="url(#p184763b497)" d="M 200.011933 234.134411 
L 213.280461 224.412012 
L 213.428036 216.833359 
L 200.120224 226.509361 
z
" style="fill:#5d0618;fill-opacity:0.8;"/>
    <path clip-path="url(#p184763b497)" d="M 176.121389 228.497516 
L 200.011933 234.134411 
L 200.120224 226.509361 
L 176.156071 220.899294 
z
" style="fill:#ba0c2f;fill-opacity:0.8;"/>
   </g>
   <g id="Poly3DCollection_16">
    <path clip-path="url(#p184763b497)" d="M 25.524796 197.337634 
L 203.752199 239.585928 
L 299.770053 168.639149 
L 130.04032 132.149287 
z
" style="fill-opacity:0.15;"/>
   </g>
   <g id="Poly3DCollection_17">
    <path clip-path="url(#p184763b497)" d="M 38.36387 195.994085 
L 52.664016 187.011164 
L 74.845944 192.176406 
L 60.680821 201.259696 
z
" style="fill:#74081d;fill-opacity:0.8;"/>
    <path clip-path="url(#p184763b497)" d="M 52.664016 187.011164 
L 46.979947 58.797216 
L 70.260004 63.478782 
L 74.845944 192.176406 
z
" style="fill:#5d0618;fill-opacity:0.8;"/>
    <path clip-path="url(#p184763b497)" d="M 38.36387 195.994085 
L 31.889774 66.940664 
L 46.979947 58.797216 
L 52.664016 187.011164 
z
" style="fill:#ba0c2f;fill-opacity:0.8;"/>
    <path clip-path="url(#p184763b497)" d="M 60.680821 201.259696 
L 74.845944 192.176406 
L 70.260004 63.478782 
L 55.318357 71.717896 
z
" style="fill:#5d0618;fill-opacity:0.8;"/>
    <path clip-path="url(#p184763b497)" d="M 38.36387 195.994085 
L 60.680821 201.259696 
L 55.318357 71.717896 
L 31.889774 66.940664 
z
" style="fill:#ba0c2f;fill-opacity:0.8;"/>
    <path clip-path="url(#p184763b497)" d="M 31.889774 66.940664 
L 55.318357 71.717896 
L 70.260004 63.478782 
L 46.979947 58.797216 
z
" style="fill:#a30a29;fill-opacity:0.8;"/>
   </g>
  </g>
  <g id="patch_6">
   <path d="M 425.945455 262.8 
L 806.4 262.8 
L 806.4 -14.4 
L 425.945455 -14.4 
z
" style="fill:#ffffff;"/>
  </g>
  <g id="pane3d_4">
   <g id="patch_7">
    <path d="M 476.380584 201.548569 
L 585.268665 133.58541 
L 583.455794 3.718968 
L 468.496488 64.782468 
" style="fill:#f2f2f2;opacity:0.5;stroke:#f2f2f2;stroke-linejoin:miter;"/>
   </g>
  </g>
  <g id="pane3d_5">
   <g id="patch_8">
    <path d="M 585.268665 133.58541 
L 761.65712 171.581202 
L 769.037001 37.79869 
L 583.455794 3.718968 
" style="fill:#e6e6e6;opacity:0.5;stroke:#e6e6e6;stroke-linejoin:miter;"/>
   </g>
  </g>
  <g id="pane3d_6">
   <g id="patch_9">
    <path d="M 476.380584 201.548569 
L 661.965072 245.80086 
L 761.65712 171.581202 
L 585.268665 133.58541 
" style="fill:#ececec;opacity:0.5;stroke:#ececec;stroke-linejoin:miter;"/>
   </g>
  </g>
  <g id="axis3d_4">
   <g id="line2d_15">
    <path d="M 476.380584 201.548569 
L 661.965072 245.80086 
" style="fill:none;stroke:#000000;stroke-linecap:square;stroke-width:0.8;"/>
   </g>
   <g id="Line3DCollection_4">
    <path d="M 498.841271 206.90428 
L 606.679397 138.19749 
L 605.9393 7.847789 
" style="fill:none;stroke:#b0b0b0;stroke-width:0.8;"/>
    <path d="M 544.057792 217.686079 
L 649.729469 147.470895 
L 651.182353 16.156123 
" style="fill:none;stroke:#b0b0b0;stroke-width:0.8;"/>
    <path d="M 590.310744 228.715013 
L 693.693551 156.941187 
L 697.435637 24.649974 
" style="fill:none;stroke:#b0b0b0;stroke-width:0.8;"/>
    <path d="M 637.636176 239.999678 
L 738.601063 166.614702 
L 744.733372 33.335625 
" style="fill:none;stroke:#b0b0b0;stroke-width:0.8;"/>
   </g>
   <g id="xtick_12">
    <g id="line2d_16">
     <path d="M 499.770538 206.312217 
L 496.979262 208.09062 
" style="fill:none;stroke:#000000;stroke-linecap:square;stroke-width:0.8;"/>
    </g>
    <g id="text_13">
     <!-- 00 -->
     <g transform="translate(479.875817 237.14703)rotate(-45)scale(0.14 -0.14)">
      <use transform="scale(0.996264)" xlink:href="#CMR17-48"/>
      <use transform="translate(45.690477 0)scale(0.996264)" xlink:href="#CMR17-48"/>
     </g>
    </g>
   </g>
   <g id="xtick_13">
    <g id="line2d_17">
     <path d="M 544.969128 217.080527 
L 542.231671 218.899473 
" style="fill:none;stroke:#000000;stroke-linecap:square;stroke-width:0.8;"/>
    </g>
    <g id="text_14">
     <!-- 01 -->
     <g transform="translate(525.088242 248.103782)rotate(-45)scale(0.14 -0.14)">
      <use transform="scale(0.996264)" xlink:href="#CMR17-48"/>
      <use transform="translate(45.690477 0)scale(0.996264)" xlink:href="#CMR17-49"/>
     </g>
    </g>
   </g>
   <g id="xtick_14">
    <g id="line2d_18">
     <path d="M 591.20308 228.095506 
L 588.522658 229.956397 
" style="fill:none;stroke:#000000;stroke-linecap:square;stroke-width:0.8;"/>
    </g>
    <g id="text_15">
     <!-- 10 -->
     <g transform="translate(571.338855 259.312128)rotate(-45)scale(0.14 -0.14)">
      <use transform="scale(0.996264)" xlink:href="#CMR17-49"/>
      <use transform="translate(45.690477 0)scale(0.996264)" xlink:href="#CMR17-48"/>
     </g>
    </g>
   </g>
   <g id="xtick_15">
    <g id="line2d_19">
     <path d="M 638.50838 239.365727 
L 635.888391 241.270032 
" style="fill:none;stroke:#000000;stroke-linecap:square;stroke-width:0.8;"/>
    </g>
    <g id="text_16">
     <!-- 11 -->
     <g transform="translate(618.66383 270.780834)rotate(-45)scale(0.14 -0.14)">
      <use transform="scale(0.996264)" xlink:href="#CMR17-49"/>
      <use transform="translate(45.690477 0)scale(0.996264)" xlink:href="#CMR17-49"/>
     </g>
    </g>
   </g>
  </g>
  <g id="axis3d_5">
   <g id="line2d_20">
    <path d="M 761.65712 171.581202 
L 661.965072 245.80086 
" style="fill:none;stroke:#000000;stroke-linecap:square;stroke-width:0.8;"/>
   </g>
   <g id="Line3DCollection_5">
    <path d="M 484.000685 56.547028 
L 491.016499 192.413474 
L 675.403872 235.795817 
" style="fill:none;stroke:#b0b0b0;stroke-width:0.8;"/>
    <path d="M 513.777478 40.730342 
L 519.168861 174.842005 
L 701.219492 216.576366 
" style="fill:none;stroke:#b0b0b0;stroke-width:0.8;"/>
    <path d="M 542.401344 25.526062 
L 546.284836 157.917404 
L 726.04244 198.095948 
" style="fill:none;stroke:#b0b0b0;stroke-width:0.8;"/>
    <path d="M 569.937971 10.899296 
L 572.420618 141.604597 
L 749.928893 180.312741 
" style="fill:none;stroke:#b0b0b0;stroke-width:0.8;"/>
   </g>
   <g id="xtick_16">
    <g id="line2d_21">
     <path d="M 673.861052 235.432825 
L 678.492943 236.522608 
" style="fill:none;stroke:#000000;stroke-linecap:square;stroke-width:0.8;"/>
    </g>
    <g id="text_17">
     <!-- 00 -->
     <g transform="translate(689.195824 248.348363)rotate(-337.5)scale(0.14 -0.14)">
      <use transform="scale(0.996264)" xlink:href="#CMR17-48"/>
      <use transform="translate(45.690477 0)scale(0.996264)" xlink:href="#CMR17-48"/>
     </g>
    </g>
   </g>
   <g id="xtick_17">
    <g id="line2d_22">
     <path d="M 699.697534 216.227463 
L 704.266725 217.274932 
" style="fill:none;stroke:#000000;stroke-linecap:square;stroke-width:0.8;"/>
    </g>
    <g id="text_18">
     <!-- 01 -->
     <g transform="translate(714.749375 228.903937)rotate(-337.5)scale(0.14 -0.14)">
      <use transform="scale(0.996264)" xlink:href="#CMR17-48"/>
      <use transform="translate(45.690477 0)scale(0.996264)" xlink:href="#CMR17-49"/>
     </g>
    </g>
   </g>
   <g id="xtick_18">
    <g id="line2d_23">
     <path d="M 724.540896 197.76033 
L 729.048738 198.767901 
" style="fill:none;stroke:#000000;stroke-linecap:square;stroke-width:0.8;"/>
    </g>
    <g id="text_19">
     <!-- 10 -->
     <g transform="translate(739.320787 210.206849)rotate(-337.5)scale(0.14 -0.14)">
      <use transform="scale(0.996264)" xlink:href="#CMR17-49"/>
      <use transform="translate(45.690477 0)scale(0.996264)" xlink:href="#CMR17-48"/>
     </g>
    </g>
   </g>
   <g id="xtick_19">
    <g id="line2d_24">
     <path d="M 748.44732 179.989663 
L 752.895146 180.959573 
" style="fill:none;stroke:#000000;stroke-linecap:square;stroke-width:0.8;"/>
    </g>
    <g id="text_20">
     <!-- 11 -->
     <g transform="translate(762.965613 192.214827)rotate(-337.5)scale(0.14 -0.14)">
      <use transform="scale(0.996264)" xlink:href="#CMR17-49"/>
      <use transform="translate(45.690477 0)scale(0.996264)" xlink:href="#CMR17-49"/>
     </g>
    </g>
   </g>
  </g>
  <g id="axis3d_6">
   <g id="line2d_25">
    <path d="M 761.65712 171.581202 
L 769.037001 37.79869 
" style="fill:none;stroke:#000000;stroke-linecap:square;stroke-width:0.8;"/>
   </g>
   <g id="text_21">
    <!-- Im[$\rho$] -->
    <defs>
     <path d="M 19.703125 60.90625 
C 19.703125 65.390625 20.90625 65.390625 28.09375 65.390625 
L 28.09375 68 
C 24.90625 67.796875 19.796875 67.796875 16.40625 67.796875 
C 13 67.796875 7.90625 67.796875 4.703125 68 
L 4.703125 65.390625 
C 11.90625 65.390625 13.09375 65.390625 13.09375 60.90625 
L 13.09375 7.078125 
C 13.09375 2.59375 11.90625 2.59375 4.703125 2.59375 
L 4.703125 0 
C 7.90625 0.1875 13 0.1875 16.40625 0.1875 
C 19.796875 0.1875 24.90625 0.1875 28.09375 0 
L 28.09375 2.59375 
C 20.90625 2.59375 19.703125 2.59375 19.703125 7.078125 
z
" id="CMR17-73"/>
     <path d="M 67.59375 30.53125 
C 67.59375 35.5625 66.703125 44 54.796875 44 
C 48 44 43.296875 39.375 41.5 33.953125 
L 41.40625 33.953125 
C 40.203125 42.1875 34.296875 44 28.703125 44 
C 20.796875 44 16.703125 37.875 15.203125 33.84375 
L 15.09375 33.84375 
L 15.09375 44 
L 3.296875 42.890625 
L 3.296875 40.28125 
C 9.203125 40.28125 10.09375 39.6875 10.09375 34.859375 
L 10.09375 6.921875 
C 10.09375 3.09375 9.703125 2.59375 3.296875 2.59375 
L 3.296875 0 
C 5.703125 0.1875 10.09375 0.1875 12.703125 0.1875 
C 15.296875 0.1875 19.796875 0.1875 22.203125 0 
L 22.203125 2.59375 
C 15.796875 2.59375 15.40625 3 15.40625 6.921875 
L 15.40625 26.21875 
C 15.40625 35.453125 21 42.390625 28 42.390625 
C 35.40625 42.390625 36.203125 35.765625 36.203125 30.9375 
L 36.203125 6.921875 
C 36.203125 3.09375 35.796875 2.59375 29.40625 2.59375 
L 29.40625 0 
C 31.796875 0.1875 36.203125 0.1875 38.796875 0.1875 
C 41.40625 0.1875 45.90625 0.1875 48.296875 0 
L 48.296875 2.59375 
C 41.90625 2.59375 41.5 3 41.5 6.921875 
L 41.5 26.21875 
C 41.5 35.453125 47.09375 42.390625 54.09375 42.390625 
C 61.5 42.390625 62.296875 35.765625 62.296875 30.9375 
L 62.296875 6.921875 
C 62.296875 3.09375 61.90625 2.59375 55.5 2.59375 
L 55.5 0 
C 57.90625 0.1875 62.296875 0.1875 64.90625 0.1875 
C 67.5 0.1875 72 0.1875 74.40625 0 
L 74.40625 2.59375 
C 68 2.59375 67.59375 3 67.59375 6.921875 
z
" id="CMR17-109"/>
    </defs>
    <g transform="translate(809.026865 118.025317)rotate(-86.842577)scale(0.14 -0.14)">
     <use transform="scale(0.996264)" xlink:href="#CMR17-73"/>
     <use transform="translate(32.638409 0)scale(0.996264)" xlink:href="#CMR17-109"/>
     <use transform="translate(109.557999 0)scale(0.996264)" xlink:href="#CMR17-91"/>
     <use transform="translate(134.429058 0)scale(0.996264)" xlink:href="#CMMI12-26"/>
     <use transform="translate(184.74343 0)scale(0.996264)" xlink:href="#CMR17-93"/>
    </g>
   </g>
   <g id="Line3DCollection_6">
    <path d="M 761.863056 167.847991 
L 585.21797 129.953796 
L 476.160945 197.738482 
" style="fill:none;stroke:#b0b0b0;stroke-width:0.8;"/>
    <path d="M 764.585001 118.504554 
L 584.548484 81.994696 
L 473.255909 147.344554 
" style="fill:none;stroke:#b0b0b0;stroke-width:0.8;"/>
    <path d="M 767.414458 67.212151 
L 583.853695 32.222948 
L 470.232217 94.892303 
" style="fill:none;stroke:#b0b0b0;stroke-width:0.8;"/>
   </g>
   <g id="xtick_20">
    <g id="line2d_26">
     <path d="M 760.389177 167.531812 
L 764.813882 168.481007 
" style="fill:none;stroke:#000000;stroke-linecap:square;stroke-width:0.8;"/>
    </g>
    <g id="text_22">
     <!-- $0.0$ -->
     <g transform="translate(771.674038 175.594581)scale(0.14 -0.14)">
      <use transform="scale(0.996264)" xlink:href="#CMR17-48"/>
      <use transform="translate(45.690477 0)scale(0.996264)" xlink:href="#CMMI12-58"/>
      <use transform="translate(72.787654 0)scale(0.996264)" xlink:href="#CMR17-48"/>
     </g>
    </g>
   </g>
   <g id="xtick_21">
    <g id="line2d_27">
     <path d="M 763.081627 118.199682 
L 767.59494 119.114944 
" style="fill:none;stroke:#000000;stroke-linecap:square;stroke-width:0.8;"/>
    </g>
    <g id="text_23">
     <!-- $0.2$ -->
     <g transform="translate(774.748293 126.320563)scale(0.14 -0.14)">
      <use transform="scale(0.996264)" xlink:href="#CMR17-48"/>
      <use transform="translate(45.690477 0)scale(0.996264)" xlink:href="#CMMI12-58"/>
      <use transform="translate(72.787654 0)scale(0.996264)" xlink:href="#CMR17-50"/>
     </g>
    </g>
   </g>
   <g id="xtick_22">
    <g id="line2d_28">
     <path d="M 765.880385 66.919736 
L 770.485923 67.797614 
" style="fill:none;stroke:#000000;stroke-linecap:square;stroke-width:0.8;"/>
    </g>
    <g id="text_24">
     <!-- $0.4$ -->
     <g transform="translate(777.943705 75.104621)scale(0.14 -0.14)">
      <use transform="scale(0.996264)" xlink:href="#CMR17-48"/>
      <use transform="translate(45.690477 0)scale(0.996264)" xlink:href="#CMMI12-58"/>
      <use transform="translate(72.787654 0)scale(0.996264)" xlink:href="#CMR17-52"/>
     </g>
    </g>
   </g>
  </g>
  <g id="axes_2">
   <g id="Poly3DCollection_18">
    <path clip-path="url(#p53c2140048)" d="M 589.582909 136.314321 
L 589.594581 137.263076 
L 610.983284 141.884801 
L 610.979463 140.932782 
z
" style="fill:#0cba97;fill-opacity:0.8;"/>
    <path clip-path="url(#p53c2140048)" d="M 576.796354 144.344548 
L 576.812878 145.298968 
L 589.594581 137.263076 
L 589.582909 136.314321 
z
" style="fill:#065d4c;fill-opacity:0.8;"/>
    <path clip-path="url(#p53c2140048)" d="M 576.812878 145.298968 
L 598.329909 150.005528 
L 610.983284 141.884801 
L 589.594581 137.263076 
z
" style="fill:#0aa384;fill-opacity:0.8;"/>
    <path clip-path="url(#p53c2140048)" d="M 576.796354 144.344548 
L 589.582909 136.314321 
L 610.979463 140.932782 
L 598.321329 149.047816 
z
" style="fill:#08745e;fill-opacity:0.8;"/>
    <path clip-path="url(#p53c2140048)" d="M 598.321329 149.047816 
L 610.979463 140.932782 
L 610.983284 141.884801 
L 598.329909 150.005528 
z
" style="fill:#0cba97;fill-opacity:0.8;"/>
    <path clip-path="url(#p53c2140048)" d="M 576.796354 144.344548 
L 598.321329 149.047816 
L 598.329909 150.005528 
L 576.812878 145.298968 
z
" style="fill:#065d4c;fill-opacity:0.8;"/>
   </g>
   <g id="Poly3DCollection_19">
    <path clip-path="url(#p53c2140048)" d="M 632.601546 145.599923 
L 632.5997 146.020193 
L 654.447295 150.738239 
L 654.452743 150.316518 
z
" style="fill:#0cba97;fill-opacity:0.8;"/>
    <path clip-path="url(#p53c2140048)" d="M 620.075277 153.801114 
L 620.075482 154.223902 
L 632.5997 146.020193 
L 632.601546 145.599923 
z
" style="fill:#065d4c;fill-opacity:0.8;"/>
    <path clip-path="url(#p53c2140048)" d="M 620.075482 154.223902 
L 642.05843 159.029498 
L 654.447295 150.738239 
L 632.5997 146.020193 
z
" style="fill:#0aa384;fill-opacity:0.8;"/>
    <path clip-path="url(#p53c2140048)" d="M 620.075277 153.801114 
L 632.601546 145.599923 
L 654.452743 150.316518 
L 642.061872 158.605247 
z
" style="fill:#08745e;fill-opacity:0.8;"/>
    <path clip-path="url(#p53c2140048)" d="M 642.061872 158.605247 
L 654.452743 150.316518 
L 654.447295 150.738239 
L 642.05843 159.029498 
z
" style="fill:#0cba97;fill-opacity:0.8;"/>
    <path clip-path="url(#p53c2140048)" d="M 620.075277 153.801114 
L 642.061872 158.605247 
L 642.05843 159.029498 
L 620.075482 154.223902 
z
" style="fill:#065d4c;fill-opacity:0.8;"/>
   </g>
   <g id="Poly3DCollection_20">
    <path clip-path="url(#p53c2140048)" d="M 563.774545 152.52252 
L 563.748127 151.345678 
L 585.412497 156.132035 
L 585.429061 157.312952 
z
" style="fill:#065d4c;fill-opacity:0.8;"/>
    <path clip-path="url(#p53c2140048)" d="M 550.510928 160.852351 
L 550.478119 159.668438 
L 563.748127 151.345678 
L 563.774545 152.52252 
z
" style="fill:#0cba97;fill-opacity:0.8;"/>
    <path clip-path="url(#p53c2140048)" d="M 550.510928 160.852351 
L 563.774545 152.52252 
L 585.429061 157.312952 
L 572.2961 165.732394 
z
" style="fill:#08745e;fill-opacity:0.8;"/>
    <path clip-path="url(#p53c2140048)" d="M 550.478119 159.668438 
L 572.273263 164.544371 
L 585.412497 156.132035 
L 563.748127 151.345678 
z
" style="fill:#0aa384;fill-opacity:0.8;"/>
    <path clip-path="url(#p53c2140048)" d="M 572.2961 165.732394 
L 585.429061 157.312952 
L 585.412497 156.132035 
L 572.273263 164.544371 
z
" style="fill:#065d4c;fill-opacity:0.8;"/>
    <path clip-path="url(#p53c2140048)" d="M 550.510928 160.852351 
L 572.2961 165.732394 
L 572.273263 164.544371 
L 550.478119 159.668438 
z
" style="fill:#0cba97;fill-opacity:0.8;"/>
   </g>
   <g id="Poly3DCollection_21">
    <path clip-path="url(#p53c2140048)" d="M 676.536715 155.083359 
L 676.546343 154.636887 
L 698.870794 159.453233 
L 698.857201 159.901251 
z
" style="fill:#065d4c;fill-opacity:0.8;"/>
    <path clip-path="url(#p53c2140048)" d="M 664.284864 163.461033 
L 664.292426 163.011878 
L 676.546343 154.636887 
L 676.536715 155.083359 
z
" style="fill:#0cba97;fill-opacity:0.8;"/>
    <path clip-path="url(#p53c2140048)" d="M 664.284864 163.461033 
L 676.536715 155.083359 
L 698.857201 159.901251 
L 686.748088 168.369311 
z
" style="fill:#08745e;fill-opacity:0.8;"/>
    <path clip-path="url(#p53c2140048)" d="M 664.292426 163.011878 
L 686.759666 167.918596 
L 698.870794 159.453233 
L 676.546343 154.636887 
z
" style="fill:#0aa384;fill-opacity:0.8;"/>
    <path clip-path="url(#p53c2140048)" d="M 686.748088 168.369311 
L 698.857201 159.901251 
L 698.870794 159.453233 
L 686.759666 167.918596 
z
" style="fill:#065d4c;fill-opacity:0.8;"/>
    <path clip-path="url(#p53c2140048)" d="M 664.284864 163.461033 
L 686.748088 168.369311 
L 686.759666 167.918596 
L 664.292426 163.011878 
z
" style="fill:#0cba97;fill-opacity:0.8;"/>
   </g>
   <g id="Poly3DCollection_22">
    <path clip-path="url(#p53c2140048)" d="M 607.316069 162.154816 
L 607.315412 162.03489 
L 629.439719 166.928603 
L 629.439335 167.048946 
z
" style="fill:#065d4c;fill-opacity:0.8;"/>
    <path clip-path="url(#p53c2140048)" d="M 594.317363 170.665322 
L 594.316083 170.544674 
L 607.315412 162.03489 
L 607.316069 162.154816 
z
" style="fill:#0cba97;fill-opacity:0.8;"/>
    <path clip-path="url(#p53c2140048)" d="M 594.317363 170.665322 
L 607.316069 162.154816 
L 629.439335 167.048946 
L 616.578575 175.652001 
z
" style="fill:#08745e;fill-opacity:0.8;"/>
    <path clip-path="url(#p53c2140048)" d="M 594.316083 170.544674 
L 616.57835 175.530933 
L 629.439719 166.928603 
L 607.315412 162.03489 
z
" style="fill:#0aa384;fill-opacity:0.8;"/>
    <path clip-path="url(#p53c2140048)" d="M 616.578575 175.652001 
L 629.439335 167.048946 
L 629.439719 166.928603 
L 616.57835 175.530933 
z
" style="fill:#065d4c;fill-opacity:0.8;"/>
    <path clip-path="url(#p53c2140048)" d="M 594.317363 170.665322 
L 616.578575 175.652001 
L 616.57835 175.530933 
L 594.316083 170.544674 
z
" style="fill:#0cba97;fill-opacity:0.8;"/>
   </g>
   <g id="Poly3DCollection_23">
    <path clip-path="url(#p53c2140048)" d="M 721.418021 164.771019 
L 721.418021 164.771019 
L 744.223079 169.693506 
L 744.223079 169.693506 
z
" style="fill:#065d4c;fill-opacity:0.8;"/>
    <path clip-path="url(#p53c2140048)" d="M 709.45546 173.330935 
L 709.45546 173.330935 
L 721.418021 164.771019 
L 721.418021 164.771019 
z
" style="fill:#065d4c;fill-opacity:0.8;"/>
    <path clip-path="url(#p53c2140048)" d="M 709.45546 173.330935 
L 732.410982 178.346781 
L 744.223079 169.693506 
L 721.418021 164.771019 
z
" style="fill:#0aa384;fill-opacity:0.8;"/>
    <path clip-path="url(#p53c2140048)" d="M 709.45546 173.330935 
L 721.418021 164.771019 
L 744.223079 169.693506 
L 732.410982 178.346781 
z
" style="fill:#08745e;fill-opacity:0.8;"/>
    <path clip-path="url(#p53c2140048)" d="M 732.410982 178.346781 
L 744.223079 169.693506 
L 744.223079 169.693506 
L 732.410982 178.346781 
z
" style="fill:#065d4c;fill-opacity:0.8;"/>
    <path clip-path="url(#p53c2140048)" d="M 709.45546 173.330935 
L 732.410982 178.346781 
L 732.410982 178.346781 
L 709.45546 173.330935 
z
" style="fill:#065d4c;fill-opacity:0.8;"/>
   </g>
   <g id="Poly3DCollection_24">
    <path clip-path="url(#p53c2140048)" d="M 536.998707 169.338313 
L 537.022706 170.063114 
L 558.933502 175.037824 
L 558.915644 174.310503 
z
" style="fill:#0cba97;fill-opacity:0.8;"/>
    <path clip-path="url(#p53c2140048)" d="M 523.230824 177.984834 
L 523.259006 178.714007 
L 537.022706 170.063114 
L 536.998707 169.338313 
z
" style="fill:#065d4c;fill-opacity:0.8;"/>
    <path clip-path="url(#p53c2140048)" d="M 523.259006 178.714007 
L 545.302597 183.78352 
L 558.933502 175.037824 
L 537.022706 170.063114 
z
" style="fill:#0aa384;fill-opacity:0.8;"/>
    <path clip-path="url(#p53c2140048)" d="M 523.230824 177.984834 
L 536.998707 169.338313 
L 558.915644 174.310503 
L 545.28063 183.051808 
z
" style="fill:#08745e;fill-opacity:0.8;"/>
    <path clip-path="url(#p53c2140048)" d="M 545.28063 183.051808 
L 558.915644 174.310503 
L 558.933502 175.037824 
L 545.302597 183.78352 
z
" style="fill:#0cba97;fill-opacity:0.8;"/>
    <path clip-path="url(#p53c2140048)" d="M 523.230824 177.984834 
L 545.28063 183.051808 
L 545.302597 183.78352 
L 523.259006 178.714007 
z
" style="fill:#065d4c;fill-opacity:0.8;"/>
   </g>
   <g id="Poly3DCollection_25">
    <path clip-path="url(#p53c2140048)" d="M 651.802705 171.996191 
L 651.802705 171.996191 
L 674.410108 176.997421 
L 674.410108 176.997421 
z
" style="fill:#065d4c;fill-opacity:0.8;"/>
    <path clip-path="url(#p53c2140048)" d="M 639.08368 180.693314 
L 639.08368 180.693314 
L 651.802705 171.996191 
L 651.802705 171.996191 
z
" style="fill:#065d4c;fill-opacity:0.8;"/>
    <path clip-path="url(#p53c2140048)" d="M 639.08368 180.693314 
L 651.802705 171.996191 
L 674.410108 176.997421 
L 661.836709 185.790163 
z
" style="fill:#08745e;fill-opacity:0.8;"/>
    <path clip-path="url(#p53c2140048)" d="M 639.08368 180.693314 
L 661.836709 185.790163 
L 674.410108 176.997421 
L 651.802705 171.996191 
z
" style="fill:#0aa384;fill-opacity:0.8;"/>
    <path clip-path="url(#p53c2140048)" d="M 661.836709 185.790163 
L 674.410108 176.997421 
L 674.410108 176.997421 
L 661.836709 185.790163 
z
" style="fill:#065d4c;fill-opacity:0.8;"/>
    <path clip-path="url(#p53c2140048)" d="M 639.08368 180.693314 
L 661.836709 185.790163 
L 661.836709 185.790163 
L 639.08368 180.693314 
z
" style="fill:#065d4c;fill-opacity:0.8;"/>
   </g>
   <g id="Poly3DCollection_26">
    <path clip-path="url(#p53c2140048)" d="M 581.072351 179.337089 
L 581.072351 179.337089 
L 603.472783 184.418968 
L 603.472783 184.418968 
z
" style="fill:#065d4c;fill-opacity:0.8;"/>
    <path clip-path="url(#p53c2140048)" d="M 567.573966 188.174744 
L 567.573966 188.174744 
L 581.072351 179.337089 
L 581.072351 179.337089 
z
" style="fill:#065d4c;fill-opacity:0.8;"/>
    <path clip-path="url(#p53c2140048)" d="M 567.573966 188.174744 
L 581.072351 179.337089 
L 603.472783 184.418968 
L 590.114889 193.354575 
z
" style="fill:#08745e;fill-opacity:0.8;"/>
    <path clip-path="url(#p53c2140048)" d="M 567.573966 188.174744 
L 590.114889 193.354575 
L 603.472783 184.418968 
L 581.072351 179.337089 
z
" style="fill:#0aa384;fill-opacity:0.8;"/>
    <path clip-path="url(#p53c2140048)" d="M 590.114889 193.354575 
L 603.472783 184.418968 
L 603.472783 184.418968 
L 590.114889 193.354575 
z
" style="fill:#065d4c;fill-opacity:0.8;"/>
    <path clip-path="url(#p53c2140048)" d="M 567.573966 188.174744 
L 590.114889 193.354575 
L 590.114889 193.354575 
L 567.573966 188.174744 
z
" style="fill:#065d4c;fill-opacity:0.8;"/>
   </g>
   <g id="Poly3DCollection_27">
    <path clip-path="url(#p53c2140048)" d="M 697.26556 182.053526 
L 697.251925 182.508376 
L 720.355287 187.621848 
L 720.373168 187.165412 
z
" style="fill:#0cba97;fill-opacity:0.8;"/>
    <path clip-path="url(#p53c2140048)" d="M 684.841779 190.943472 
L 684.830265 191.401074 
L 697.251925 182.508376 
L 697.26556 182.053526 
z
" style="fill:#065d4c;fill-opacity:0.8;"/>
    <path clip-path="url(#p53c2140048)" d="M 684.830265 191.401074 
L 708.087286 196.613384 
L 720.355287 187.621848 
L 697.251925 182.508376 
z
" style="fill:#0aa384;fill-opacity:0.8;"/>
    <path clip-path="url(#p53c2140048)" d="M 684.841779 190.943472 
L 697.26556 182.053526 
L 720.373168 187.165412 
L 708.103104 196.154184 
z
" style="fill:#08745e;fill-opacity:0.8;"/>
    <path clip-path="url(#p53c2140048)" d="M 708.103104 196.154184 
L 720.373168 187.165412 
L 720.355287 187.621848 
L 708.087286 196.613384 
z
" style="fill:#0cba97;fill-opacity:0.8;"/>
    <path clip-path="url(#p53c2140048)" d="M 684.841779 190.943472 
L 708.103104 196.154184 
L 708.087286 196.613384 
L 684.830265 191.401074 
z
" style="fill:#065d4c;fill-opacity:0.8;"/>
   </g>
   <g id="Poly3DCollection_28">
    <path clip-path="url(#p53c2140048)" d="M 509.199955 186.796517 
L 509.199955 186.796517 
L 531.383723 191.96101 
L 531.383723 191.96101 
z
" style="fill:#065d4c;fill-opacity:0.8;"/>
    <path clip-path="url(#p53c2140048)" d="M 494.898491 195.778138 
L 494.898491 195.778138 
L 509.199955 186.796517 
L 509.199955 186.796517 
z
" style="fill:#065d4c;fill-opacity:0.8;"/>
    <path clip-path="url(#p53c2140048)" d="M 494.898491 195.778138 
L 517.217305 201.042994 
L 531.383723 191.96101 
L 509.199955 186.796517 
z
" style="fill:#0aa384;fill-opacity:0.8;"/>
    <path clip-path="url(#p53c2140048)" d="M 494.898491 195.778138 
L 509.199955 186.796517 
L 531.383723 191.96101 
L 517.217305 201.042994 
z
" style="fill:#08745e;fill-opacity:0.8;"/>
    <path clip-path="url(#p53c2140048)" d="M 517.217305 201.042994 
L 531.383723 191.96101 
L 531.383723 191.96101 
L 517.217305 201.042994 
z
" style="fill:#065d4c;fill-opacity:0.8;"/>
    <path clip-path="url(#p53c2140048)" d="M 494.898491 195.778138 
L 517.217305 201.042994 
L 517.217305 201.042994 
L 494.898491 195.778138 
z
" style="fill:#065d4c;fill-opacity:0.8;"/>
   </g>
   <g id="Poly3DCollection_29">
    <path clip-path="url(#p53c2140048)" d="M 626.120984 189.557057 
L 626.120752 189.67927 
L 649.01974 194.874933 
L 649.021088 194.752294 
z
" style="fill:#0cba97;fill-opacity:0.8;"/>
    <path clip-path="url(#p53c2140048)" d="M 612.907547 198.592254 
L 612.907957 198.715207 
L 626.120752 189.67927 
L 626.120984 189.557057 
z
" style="fill:#065d4c;fill-opacity:0.8;"/>
    <path clip-path="url(#p53c2140048)" d="M 612.907957 198.715207 
L 635.95546 204.012139 
L 649.01974 194.874933 
L 626.120752 189.67927 
z
" style="fill:#0aa384;fill-opacity:0.8;"/>
    <path clip-path="url(#p53c2140048)" d="M 612.907547 198.592254 
L 626.120984 189.557057 
L 649.021088 194.752294 
L 635.956179 203.888755 
z
" style="fill:#08745e;fill-opacity:0.8;"/>
    <path clip-path="url(#p53c2140048)" d="M 635.956179 203.888755 
L 649.021088 194.752294 
L 649.01974 194.874933 
L 635.95546 204.012139 
z
" style="fill:#0cba97;fill-opacity:0.8;"/>
    <path clip-path="url(#p53c2140048)" d="M 612.907547 198.592254 
L 635.956179 203.888755 
L 635.95546 204.012139 
L 612.907957 198.715207 
z
" style="fill:#065d4c;fill-opacity:0.8;"/>
   </g>
   <g id="Poly3DCollection_30">
    <path clip-path="url(#p53c2140048)" d="M 553.814867 197.183094 
L 553.795058 196.443951 
L 576.484322 201.722006 
L 576.497548 202.463737 
z
" style="fill:#065d4c;fill-opacity:0.8;"/>
    <path clip-path="url(#p53c2140048)" d="M 539.787428 206.367132 
L 539.763268 205.6235 
L 553.795058 196.443951 
L 553.814867 197.183094 
z
" style="fill:#0cba97;fill-opacity:0.8;"/>
    <path clip-path="url(#p53c2140048)" d="M 539.787428 206.367132 
L 553.814867 197.183094 
L 576.497548 202.463737 
L 562.613128 211.751558 
z
" style="fill:#08745e;fill-opacity:0.8;"/>
    <path clip-path="url(#p53c2140048)" d="M 539.763268 205.6235 
L 562.595634 211.00532 
L 576.484322 201.722006 
L 553.795058 196.443951 
z
" style="fill:#0aa384;fill-opacity:0.8;"/>
    <path clip-path="url(#p53c2140048)" d="M 562.613128 211.751558 
L 576.497548 202.463737 
L 576.484322 201.722006 
L 562.595634 211.00532 
z
" style="fill:#065d4c;fill-opacity:0.8;"/>
    <path clip-path="url(#p53c2140048)" d="M 539.787428 206.367132 
L 562.613128 211.751558 
L 562.595634 211.00532 
L 539.763268 205.6235 
z
" style="fill:#0cba97;fill-opacity:0.8;"/>
   </g>
   <g id="Poly3DCollection_31">
    <path clip-path="url(#p53c2140048)" d="M 672.177321 200.005637 
L 672.18615 199.568976 
L 695.606969 204.879878 
L 695.594004 205.318068 
z
" style="fill:#065d4c;fill-opacity:0.8;"/>
    <path clip-path="url(#p53c2140048)" d="M 659.265123 209.245075 
L 659.271775 208.805761 
L 672.18615 199.568976 
L 672.177321 200.005637 
z
" style="fill:#0cba97;fill-opacity:0.8;"/>
    <path clip-path="url(#p53c2140048)" d="M 659.265123 209.245075 
L 672.177321 200.005637 
L 695.594004 205.318068 
L 682.838813 214.662232 
z
" style="fill:#08745e;fill-opacity:0.8;"/>
    <path clip-path="url(#p53c2140048)" d="M 659.271775 208.805761 
L 682.849658 214.221378 
L 695.606969 204.879878 
L 672.18615 199.568976 
z
" style="fill:#0aa384;fill-opacity:0.8;"/>
    <path clip-path="url(#p53c2140048)" d="M 682.838813 214.662232 
L 695.594004 205.318068 
L 695.606969 204.879878 
L 682.849658 214.221378 
z
" style="fill:#065d4c;fill-opacity:0.8;"/>
    <path clip-path="url(#p53c2140048)" d="M 659.265123 209.245075 
L 682.838813 214.662232 
L 682.849658 214.221378 
L 659.271775 208.805761 
z
" style="fill:#0cba97;fill-opacity:0.8;"/>
   </g>
   <g id="Poly3DCollection_32">
    <path clip-path="url(#p53c2140048)" d="M 599.436021 207.803929 
L 599.446674 209.025184 
L 622.633989 214.430216 
L 622.634636 213.204684 
z
" style="fill:#0cba97;fill-opacity:0.8;"/>
    <path clip-path="url(#p53c2140048)" d="M 585.69877 217.197303 
L 585.716284 218.425978 
L 599.446674 209.025184 
L 599.436021 207.803929 
z
" style="fill:#065d4c;fill-opacity:0.8;"/>
    <path clip-path="url(#p53c2140048)" d="M 585.716284 218.425978 
L 609.054888 223.938404 
L 622.633989 214.430216 
L 599.446674 209.025184 
z
" style="fill:#0aa384;fill-opacity:0.8;"/>
    <path clip-path="url(#p53c2140048)" d="M 585.69877 217.197303 
L 599.436021 207.803929 
L 622.634636 213.204684 
L 609.048822 222.705421 
z
" style="fill:#08745e;fill-opacity:0.8;"/>
    <path clip-path="url(#p53c2140048)" d="M 609.048822 222.705421 
L 622.634636 213.204684 
L 622.633989 214.430216 
L 609.054888 223.938404 
z
" style="fill:#0cba97;fill-opacity:0.8;"/>
    <path clip-path="url(#p53c2140048)" d="M 585.69877 217.197303 
L 609.048822 222.705421 
L 609.054888 223.938404 
L 585.716284 218.425978 
z
" style="fill:#065d4c;fill-opacity:0.8;"/>
   </g>
   <g id="Poly3DCollection_33">
    <path clip-path="url(#p53c2140048)" d="M 646.097844 218.667038 
L 646.10782 217.66194 
L 669.849839 223.183421 
L 669.830199 224.19205 
z
" style="fill:#065d4c;fill-opacity:0.8;"/>
    <path clip-path="url(#p53c2140048)" d="M 632.66785 228.276988 
L 632.672466 227.265766 
L 646.10782 217.66194 
L 646.097844 218.667038 
z
" style="fill:#0cba97;fill-opacity:0.8;"/>
    <path clip-path="url(#p53c2140048)" d="M 632.66785 228.276988 
L 646.097844 218.667038 
L 669.830199 224.19205 
L 656.560531 233.913108 
z
" style="fill:#08745e;fill-opacity:0.8;"/>
    <path clip-path="url(#p53c2140048)" d="M 632.672466 227.265766 
L 656.574943 232.89833 
L 669.849839 223.183421 
L 646.10782 217.66194 
z
" style="fill:#0aa384;fill-opacity:0.8;"/>
    <path clip-path="url(#p53c2140048)" d="M 656.560531 233.913108 
L 669.830199 224.19205 
L 669.849839 223.183421 
L 656.574943 232.89833 
z
" style="fill:#065d4c;fill-opacity:0.8;"/>
    <path clip-path="url(#p53c2140048)" d="M 632.66785 228.276988 
L 656.560531 233.913108 
L 656.574943 232.89833 
L 632.672466 227.265766 
z
" style="fill:#0cba97;fill-opacity:0.8;"/>
   </g>
   <g id="Poly3DCollection_34">
    <path clip-path="url(#p53c2140048)" d="M 482.0583 197.121494 
L 660.301149 239.363881 
L 756.326741 168.427207 
L 586.583 131.942899 
z
" style="fill-opacity:0.2;"/>
   </g>
  </g>
 </g>
 <defs>
  <clipPath id="p184763b497">
   <rect height="277.2" width="380.454545" x="-30.6" y="-14.4"/>
  </clipPath>
  <clipPath id="p53c2140048">
   <rect height="277.2" width="380.454545" x="425.945455" y="-14.4"/>
  </clipPath>
 </defs>
</svg>
