<?xml version="1.0" encoding="utf-8" standalone="no"?>
<!DOCTYPE svg PUBLIC "-//W3C//DTD SVG 1.1//EN"
  "http://www.w3.org/Graphics/SVG/1.1/DTD/svg11.dtd">
<!-- Created with matplotlib (https://matplotlib.org/) -->
<svg height="302.4pt" version="1.1" viewBox="0 0 820.8 302.4" width="820.8pt" xmlns="http://www.w3.org/2000/svg" xmlns:xlink="http://www.w3.org/1999/xlink">
 <defs>
  <style type="text/css">
*{stroke-linecap:butt;stroke-linejoin:round;}
  </style>
 </defs>
 <g id="figure_1">
  <g id="patch_1">
   <path d="M 0 302.4 
L 820.8 302.4 
L 820.8 0 
L 0 0 
z
" style="fill:#ffffff;"/>
  </g>
  <g id="patch_2">
   <path d="M -30.6 262.8 
L 349.854545 262.8 
L 349.854545 -14.4 
L -30.6 -14.4 
z
" style="fill:#ffffff;"/>
  </g>
  <g id="pane3d_1">
   <g id="patch_3">
    <path d="M 19.835129 201.548569 
L 128.723211 133.58541 
L 126.910339 3.718968 
L 11.951034 64.782468 
" style="fill:#f2f2f2;opacity:0.5;stroke:#f2f2f2;stroke-linejoin:miter;"/>
   </g>
  </g>
  <g id="pane3d_2">
   <g id="patch_4">
    <path d="M 128.723211 133.58541 
L 305.111665 171.581202 
L 312.491547 37.79869 
L 126.910339 3.718968 
" style="fill:#e6e6e6;opacity:0.5;stroke:#e6e6e6;stroke-linejoin:miter;"/>
   </g>
  </g>
  <g id="pane3d_3">
   <g id="patch_5">
    <path d="M 19.835129 201.548569 
L 205.419617 245.80086 
L 305.111665 171.581202 
L 128.723211 133.58541 
" style="fill:#ececec;opacity:0.5;stroke:#ececec;stroke-linejoin:miter;"/>
   </g>
  </g>
  <g id="axis3d_1">
   <g id="line2d_1">
    <path d="M 19.835129 201.548569 
L 205.419617 245.80086 
" style="fill:none;stroke:#000000;stroke-linecap:square;stroke-width:0.8;"/>
   </g>
   <g id="Line3DCollection_1">
    <path d="M 42.295817 206.90428 
L 150.133942 138.19749 
L 149.393845 7.847789 
" style="fill:none;stroke:#b0b0b0;stroke-width:0.8;"/>
    <path d="M 87.512337 217.686079 
L 193.184014 147.470895 
L 194.636898 16.156123 
" style="fill:none;stroke:#b0b0b0;stroke-width:0.8;"/>
    <path d="M 133.765289 228.715013 
L 237.148096 156.941187 
L 240.890183 24.649974 
" style="fill:none;stroke:#b0b0b0;stroke-width:0.8;"/>
    <path d="M 181.090721 239.999678 
L 282.055608 166.614702 
L 288.187917 33.335625 
" style="fill:none;stroke:#b0b0b0;stroke-width:0.8;"/>
   </g>
   <g id="xtick_1">
    <g id="line2d_2">
     <path d="M 43.225084 206.312217 
L 40.433807 208.09062 
" style="fill:none;stroke:#000000;stroke-linecap:square;stroke-width:0.8;"/>
    </g>
    <g id="text_1">
     <!-- 00 -->
     <defs>
      <path d="M 42 31.84375 
C 42 37.96875 41.90625 48.421875 37.703125 56.453125 
C 34 63.484375 28.09375 66 22.90625 66 
C 18.09375 66 12 63.78125 8.203125 56.5625 
C 4.203125 49.015625 3.796875 39.671875 3.796875 31.84375 
C 3.796875 26.109375 3.90625 17.375 7 9.734375 
C 11.296875 -0.609375 19 -2 22.90625 -2 
C 27.5 -2 34.5 -0.109375 38.59375 9.4375 
C 41.59375 16.375 42 24.5 42 31.84375 
z
M 22.90625 -0.40625 
C 16.5 -0.40625 12.703125 5.125 11.296875 12.75 
C 10.203125 18.6875 10.203125 27.328125 10.203125 32.953125 
C 10.203125 40.6875 10.203125 47.109375 11.5 53.234375 
C 13.40625 61.78125 19 64.390625 22.90625 64.390625 
C 27 64.390625 32.296875 61.671875 34.203125 53.4375 
C 35.5 47.71875 35.59375 40.984375 35.59375 32.953125 
C 35.59375 26.421875 35.59375 18.375 34.40625 12.453125 
C 32.296875 1.5 26.40625 -0.40625 22.90625 -0.40625 
z
" id="CMR17-48"/>
     </defs>
     <g transform="translate(23.330362 237.14703)rotate(-45)scale(0.14 -0.14)">
      <use transform="scale(0.996264)" xlink:href="#CMR17-48"/>
      <use transform="translate(45.690477 0)scale(0.996264)" xlink:href="#CMR17-48"/>
     </g>
    </g>
   </g>
   <g id="xtick_2">
    <g id="line2d_3">
     <path d="M 88.423674 217.080527 
L 85.686217 218.899473 
" style="fill:none;stroke:#000000;stroke-linecap:square;stroke-width:0.8;"/>
    </g>
    <g id="text_2">
     <!-- 01 -->
     <defs>
      <path d="M 26.59375 63.796875 
C 26.59375 65.890625 26.5 66 25.09375 66 
C 21.203125 61.359375 15.296875 59.890625 9.703125 59.6875 
C 9.40625 59.6875 8.90625 59.6875 8.796875 59.5 
C 8.703125 59.296875 8.703125 59.09375 8.703125 57 
C 11.796875 57 17 57.59375 21 59.984375 
L 21 7.296875 
C 21 3.796875 20.796875 2.59375 12.203125 2.59375 
L 9.203125 2.59375 
L 9.203125 0 
C 14 0.09375 19 0.1875 23.796875 0.1875 
C 28.59375 0.1875 33.59375 0.09375 38.40625 0 
L 38.40625 2.59375 
L 35.40625 2.59375 
C 26.796875 2.59375 26.59375 3.6875 26.59375 7.296875 
z
" id="CMR17-49"/>
     </defs>
     <g transform="translate(68.542787 248.103782)rotate(-45)scale(0.14 -0.14)">
      <use transform="scale(0.996264)" xlink:href="#CMR17-48"/>
      <use transform="translate(45.690477 0)scale(0.996264)" xlink:href="#CMR17-49"/>
     </g>
    </g>
   </g>
   <g id="xtick_3">
    <g id="line2d_4">
     <path d="M 134.657625 228.095506 
L 131.977203 229.956397 
" style="fill:none;stroke:#000000;stroke-linecap:square;stroke-width:0.8;"/>
    </g>
    <g id="text_3">
     <!-- 10 -->
     <g transform="translate(114.7934 259.312128)rotate(-45)scale(0.14 -0.14)">
      <use transform="scale(0.996264)" xlink:href="#CMR17-49"/>
      <use transform="translate(45.690477 0)scale(0.996264)" xlink:href="#CMR17-48"/>
     </g>
    </g>
   </g>
   <g id="xtick_4">
    <g id="line2d_5">
     <path d="M 181.962926 239.365727 
L 179.342936 241.270032 
" style="fill:none;stroke:#000000;stroke-linecap:square;stroke-width:0.8;"/>
    </g>
    <g id="text_4">
     <!-- 11 -->
     <g transform="translate(162.118375 270.780834)rotate(-45)scale(0.14 -0.14)">
      <use transform="scale(0.996264)" xlink:href="#CMR17-49"/>
      <use transform="translate(45.690477 0)scale(0.996264)" xlink:href="#CMR17-49"/>
     </g>
    </g>
   </g>
  </g>
  <g id="axis3d_2">
   <g id="line2d_6">
    <path d="M 305.111665 171.581202 
L 205.419617 245.80086 
" style="fill:none;stroke:#000000;stroke-linecap:square;stroke-width:0.8;"/>
   </g>
   <g id="Line3DCollection_2">
    <path d="M 27.455231 56.547028 
L 34.471044 192.413474 
L 218.858418 235.795817 
" style="fill:none;stroke:#b0b0b0;stroke-width:0.8;"/>
    <path d="M 57.232024 40.730342 
L 62.623407 174.842005 
L 244.674037 216.576366 
" style="fill:none;stroke:#b0b0b0;stroke-width:0.8;"/>
    <path d="M 85.85589 25.526062 
L 89.739382 157.917404 
L 269.496985 198.095948 
" style="fill:none;stroke:#b0b0b0;stroke-width:0.8;"/>
    <path d="M 113.392516 10.899296 
L 115.875164 141.604597 
L 293.383438 180.312741 
" style="fill:none;stroke:#b0b0b0;stroke-width:0.8;"/>
   </g>
   <g id="xtick_5">
    <g id="line2d_7">
     <path d="M 217.315598 235.432825 
L 221.947489 236.522608 
" style="fill:none;stroke:#000000;stroke-linecap:square;stroke-width:0.8;"/>
    </g>
    <g id="text_5">
     <!-- 00 -->
     <g transform="translate(232.650369 248.348363)rotate(-337.5)scale(0.14 -0.14)">
      <use transform="scale(0.996264)" xlink:href="#CMR17-48"/>
      <use transform="translate(45.690477 0)scale(0.996264)" xlink:href="#CMR17-48"/>
     </g>
    </g>
   </g>
   <g id="xtick_6">
    <g id="line2d_8">
     <path d="M 243.15208 216.227463 
L 247.72127 217.274932 
" style="fill:none;stroke:#000000;stroke-linecap:square;stroke-width:0.8;"/>
    </g>
    <g id="text_6">
     <!-- 01 -->
     <g transform="translate(258.203921 228.903937)rotate(-337.5)scale(0.14 -0.14)">
      <use transform="scale(0.996264)" xlink:href="#CMR17-48"/>
      <use transform="translate(45.690477 0)scale(0.996264)" xlink:href="#CMR17-49"/>
     </g>
    </g>
   </g>
   <g id="xtick_7">
    <g id="line2d_9">
     <path d="M 267.995442 197.76033 
L 272.503283 198.767901 
" style="fill:none;stroke:#000000;stroke-linecap:square;stroke-width:0.8;"/>
    </g>
    <g id="text_7">
     <!-- 10 -->
     <g transform="translate(282.775332 210.206849)rotate(-337.5)scale(0.14 -0.14)">
      <use transform="scale(0.996264)" xlink:href="#CMR17-49"/>
      <use transform="translate(45.690477 0)scale(0.996264)" xlink:href="#CMR17-48"/>
     </g>
    </g>
   </g>
   <g id="xtick_8">
    <g id="line2d_10">
     <path d="M 291.901865 179.989663 
L 296.349691 180.959573 
" style="fill:none;stroke:#000000;stroke-linecap:square;stroke-width:0.8;"/>
    </g>
    <g id="text_8">
     <!-- 11 -->
     <g transform="translate(306.420159 192.214827)rotate(-337.5)scale(0.14 -0.14)">
      <use transform="scale(0.996264)" xlink:href="#CMR17-49"/>
      <use transform="translate(45.690477 0)scale(0.996264)" xlink:href="#CMR17-49"/>
     </g>
    </g>
   </g>
  </g>
  <g id="axis3d_3">
   <g id="line2d_11">
    <path d="M 305.111665 171.581202 
L 312.491547 37.79869 
" style="fill:none;stroke:#000000;stroke-linecap:square;stroke-width:0.8;"/>
   </g>
   <g id="text_9">
    <!-- Re[$\rho$] -->
    <defs>
     <path d="M 39.203125 33.6875 
C 48.703125 35.59375 56.703125 42.015625 56.703125 50.046875 
C 56.703125 59.46875 46.09375 68 32.09375 68 
L 5.203125 68 
L 5.203125 65.390625 
C 12.09375 65.390625 13.203125 65.390625 13.203125 60.875 
L 13.203125 6.6875 
C 13.203125 2.1875 12.09375 2.1875 5.203125 2.1875 
L 5.203125 -0.40625 
C 8.09375 -0.203125 13.296875 -0.203125 16.40625 -0.203125 
C 19.5 -0.203125 24.703125 -0.203125 27.59375 -0.40625 
L 27.59375 2.1875 
C 20.703125 2.1875 19.59375 2.1875 19.59375 6.6875 
L 19.59375 33 
L 31.296875 33 
C 37 33 40.203125 30.6875 41.59375 29.390625 
C 45.59375 25.5 45.59375 22.796875 45.59375 16 
C 45.59375 9.296875 45.59375 5.890625 48.59375 2.5 
C 52.40625 -1.609375 57.5 -2 59.703125 -2 
C 67.09375 -2 68.203125 6.296875 68.203125 8 
C 68.203125 8.59375 68.203125 9.296875 67.296875 9.296875 
C 66.5 9.296875 66.40625 8.6875 66.40625 8.296875 
C 65.90625 1.796875 63 -0.40625 59.90625 -0.40625 
C 54.40625 -0.40625 53.796875 5.890625 53.203125 12 
C 52.90625 14.09375 52.703125 15.59375 52.5 17.796875 
C 51.90625 22.796875 51.09375 30.09375 39.203125 33.6875 
z
M 31 34.59375 
L 19.59375 34.59375 
L 19.59375 61.484375 
C 19.59375 64.890625 19.796875 65.390625 23.796875 65.390625 
L 31.09375 65.390625 
C 39.40625 65.390625 49.09375 62.484375 49.09375 50.046875 
C 49.09375 37.09375 38.5 34.59375 31 34.59375 
z
" id="CMR17-82"/>
     <path d="M 38.09375 23.484375 
C 38.5 23.890625 38.5 24.09375 38.5 25.09375 
C 38.5 35.171875 33.09375 44 21.703125 44 
C 11.09375 44 2.703125 33.984375 2.703125 21.78125 
C 2.703125 8.65625 12.203125 -1 22.796875 -1 
C 34 -1 38.40625 9.671875 38.40625 11.796875 
C 38.40625 12.5 37.796875 12.5 37.59375 12.5 
C 36.90625 12.5 36.796875 12.296875 36.40625 11.078125 
C 34.203125 4.21875 28.703125 0.796875 23.5 0.796875 
C 19.203125 0.796875 14.90625 3.21875 12.203125 7.65625 
C 9.09375 12.796875 9.09375 18.75 9.09375 23.484375 
z
M 9.203125 25 
C 9.90625 39.234375 17.59375 42.390625 21.59375 42.390625 
C 28.40625 42.390625 33 36.0625 33.09375 25 
z
" id="CMR17-101"/>
     <path d="M 23.5 -25 
L 23.5 -21.5 
L 14.09375 -21.5 
L 14.09375 71.484375 
L 23.5 71.484375 
L 23.5 75 
L 10.59375 75 
L 10.59375 -25 
z
" id="CMR17-91"/>
     <path d="M 3.09375 -16.953125 
C 3 -17.4375 2.796875 -18.03125 2.796875 -18.609375 
C 2.796875 -20.109375 4 -21.109375 5.5 -21.109375 
C 7 -21.109375 8.40625 -20.109375 9 -18.71875 
C 9.40625 -17.828125 12.203125 -6.09375 15.40625 6.078125 
C 17.40625 1.09375 21.09375 -1 25 -1 
C 36.296875 -1 49.09375 12.96875 49.09375 28.03125 
C 49.09375 38.703125 42.59375 44 35.703125 44 
C 26.90625 44 16.203125 34.90625 12.90625 21.640625 
z
M 24.90625 1 
C 18.09375 1 16.40625 8.875 16.40625 10.078125 
C 16.40625 10.671875 18.90625 20.140625 19.203125 21.640625 
C 24.296875 41.5 34.09375 41.984375 35.59375 41.984375 
C 40.09375 41.984375 42.59375 37.90625 42.59375 32.015625 
C 42.59375 26.9375 39.90625 17.046875 38.203125 12.859375 
C 35.203125 5.984375 30 1 24.90625 1 
z
" id="CMMI12-26"/>
     <path d="M 14.296875 75 
L 1.40625 75 
L 1.40625 71.484375 
L 10.796875 71.484375 
L 10.796875 -21.5 
L 1.40625 -21.5 
L 1.40625 -25 
L 14.296875 -25 
z
" id="CMR17-93"/>
    </defs>
    <g transform="translate(352.486567 117.931831)rotate(-86.842577)scale(0.14 -0.14)">
     <use transform="scale(0.996264)" xlink:href="#CMR17-82"/>
     <use transform="translate(67.791102 0)scale(0.996264)" xlink:href="#CMR17-101"/>
     <use transform="translate(108.276762 0)scale(0.996264)" xlink:href="#CMR17-91"/>
     <use transform="translate(133.147821 0)scale(0.996264)" xlink:href="#CMMI12-26"/>
     <use transform="translate(183.462194 0)scale(0.996264)" xlink:href="#CMR17-93"/>
    </g>
   </g>
   <g id="Line3DCollection_3">
    <path d="M 305.515924 164.252801 
L 128.6237 126.456864 
L 19.403953 194.068912 
" style="fill:none;stroke:#b0b0b0;stroke-width:0.8;"/>
    <path d="M 308.235227 114.95726 
L 127.954942 78.549891 
L 16.501469 143.719275 
" style="fill:none;stroke:#b0b0b0;stroke-width:0.8;"/>
    <path d="M 311.061677 63.719367 
L 127.260971 28.836736 
L 13.480717 91.318019 
" style="fill:none;stroke:#b0b0b0;stroke-width:0.8;"/>
   </g>
   <g id="xtick_9">
    <g id="line2d_12">
     <path d="M 304.039897 163.937423 
L 308.471054 164.884213 
" style="fill:none;stroke:#000000;stroke-linecap:square;stroke-width:0.8;"/>
    </g>
    <g id="text_10">
     <!-- $0.0$ -->
     <defs>
      <path d="M 18.40625 4.796875 
C 18.40625 7.6875 16 9.6875 13.59375 9.6875 
C 10.703125 9.6875 8.703125 7.296875 8.703125 4.890625 
C 8.703125 2 11.09375 0 13.5 0 
C 16.40625 0 18.40625 2.390625 18.40625 4.796875 
z
" id="CMMI12-58"/>
     </defs>
     <g transform="translate(315.352584 172.004311)scale(0.14 -0.14)">
      <use transform="scale(0.996264)" xlink:href="#CMR17-48"/>
      <use transform="translate(45.690477 0)scale(0.996264)" xlink:href="#CMMI12-58"/>
      <use transform="translate(72.787654 0)scale(0.996264)" xlink:href="#CMR17-48"/>
     </g>
    </g>
   </g>
   <g id="xtick_10">
    <g id="line2d_13">
     <path d="M 306.729731 114.653227 
L 311.249418 115.565972 
" style="fill:none;stroke:#000000;stroke-linecap:square;stroke-width:0.8;"/>
    </g>
    <g id="text_11">
     <!-- $0.2$ -->
     <defs>
      <path d="M 41.703125 15.46875 
L 39.90625 15.46875 
C 38.90625 8.390625 38.09375 7.1875 37.703125 6.59375 
C 37.203125 5.796875 30 5.796875 28.59375 5.796875 
L 9.40625 5.796875 
C 13 9.6875 20 16.765625 28.5 24.9375 
C 34.59375 30.71875 41.703125 37.5 41.703125 47.390625 
C 41.703125 59.1875 32.296875 66 21.796875 66 
C 10.796875 66 4.09375 56.296875 4.09375 47.296875 
C 4.09375 43.390625 7 42.890625 8.203125 42.890625 
C 9.203125 42.890625 12.203125 43.484375 12.203125 46.984375 
C 12.203125 50.09375 9.59375 51 8.203125 51 
C 7.59375 51 7 50.890625 6.59375 50.6875 
C 8.5 59.1875 14.296875 63.390625 20.40625 63.390625 
C 29.09375 63.390625 34.796875 56.5 34.796875 47.390625 
C 34.796875 38.703125 29.703125 31.21875 24 24.734375 
L 4.09375 2.296875 
L 4.09375 0 
L 39.296875 0 
z
" id="CMR17-50"/>
     </defs>
     <g transform="translate(318.423836 122.778416)scale(0.14 -0.14)">
      <use transform="scale(0.996264)" xlink:href="#CMR17-48"/>
      <use transform="translate(45.690477 0)scale(0.996264)" xlink:href="#CMMI12-58"/>
      <use transform="translate(72.787654 0)scale(0.996264)" xlink:href="#CMR17-50"/>
     </g>
    </g>
   </g>
   <g id="xtick_11">
    <g id="line2d_14">
     <path d="M 309.525512 63.427826 
L 314.137335 64.303081 
" style="fill:none;stroke:#000000;stroke-linecap:square;stroke-width:0.8;"/>
    </g>
    <g id="text_12">
     <!-- $0.4$ -->
     <defs>
      <path d="M 33.59375 64.796875 
C 33.59375 66.890625 33.5 67 31.703125 67 
L 2 19.59375 
L 2 17 
L 27.796875 17 
L 27.796875 7.1875 
C 27.796875 3.59375 27.59375 2.59375 20.59375 2.59375 
L 18.703125 2.59375 
L 18.703125 0 
C 21.90625 0.1875 27.296875 0.1875 30.703125 0.1875 
C 34.09375 0.1875 39.5 0.1875 42.703125 0 
L 42.703125 2.59375 
L 40.796875 2.59375 
C 33.796875 2.59375 33.59375 3.59375 33.59375 7.1875 
L 33.59375 17 
L 43.796875 17 
L 43.796875 19.59375 
L 33.59375 19.59375 
z
M 28.09375 58.171875 
L 28.09375 19.59375 
L 4 19.59375 
z
" id="CMR17-52"/>
     </defs>
     <g transform="translate(321.615834 71.617203)scale(0.14 -0.14)">
      <use transform="scale(0.996264)" xlink:href="#CMR17-48"/>
      <use transform="translate(45.690477 0)scale(0.996264)" xlink:href="#CMMI12-58"/>
      <use transform="translate(72.787654 0)scale(0.996264)" xlink:href="#CMR17-52"/>
     </g>
    </g>
   </g>
  </g>
  <g id="axes_1">
   <g id="Poly3DCollection_1">
    <path clip-path="url(#p434eb03eed)" d="M 132.99423 132.800587 
L 133.001269 133.372765 
L 154.422161 137.981081 
L 154.419857 137.406925 
z
" style="fill:#ba0c2f;fill-opacity:0.8;"/>
    <path clip-path="url(#p434eb03eed)" d="M 120.189703 140.809779 
L 120.199668 141.385389 
L 133.001269 133.372765 
L 132.99423 132.800587 
z
" style="fill:#5d0618;fill-opacity:0.8;"/>
    <path clip-path="url(#p434eb03eed)" d="M 120.199668 141.385389 
L 141.749274 146.078424 
L 154.422161 137.981081 
L 133.001269 133.372765 
z
" style="fill:#a30a29;fill-opacity:0.8;"/>
    <path clip-path="url(#p434eb03eed)" d="M 120.189703 140.809779 
L 132.99423 132.800587 
L 154.419857 137.406925 
L 141.7441 145.50082 
z
" style="fill:#74081d;fill-opacity:0.8;"/>
    <path clip-path="url(#p434eb03eed)" d="M 141.7441 145.50082 
L 154.419857 137.406925 
L 154.422161 137.981081 
L 141.749274 146.078424 
z
" style="fill:#ba0c2f;fill-opacity:0.8;"/>
    <path clip-path="url(#p434eb03eed)" d="M 120.189703 140.809779 
L 141.7441 145.50082 
L 141.749274 146.078424 
L 120.199668 141.385389 
z
" style="fill:#5d0618;fill-opacity:0.8;"/>
   </g>
   <g id="Poly3DCollection_2">
    <path clip-path="url(#p434eb03eed)" d="M 176.07163 142.061884 
L 176.089548 137.982047 
L 198.006034 142.672216 
L 197.953149 146.766236 
z
" style="fill:#5d0618;fill-opacity:0.8;"/>
    <path clip-path="url(#p434eb03eed)" d="M 163.528102 150.24183 
L 163.526117 146.137382 
L 176.089548 137.982047 
L 176.07163 142.061884 
z
" style="fill:#ba0c2f;fill-opacity:0.8;"/>
    <path clip-path="url(#p434eb03eed)" d="M 163.528102 150.24183 
L 176.07163 142.061884 
L 197.953149 146.766236 
L 185.545397 155.033614 
z
" style="fill:#74081d;fill-opacity:0.8;"/>
    <path clip-path="url(#p434eb03eed)" d="M 163.526117 146.137382 
L 185.578815 150.91486 
L 198.006034 142.672216 
L 176.089548 137.982047 
z
" style="fill:#a30a29;fill-opacity:0.8;"/>
    <path clip-path="url(#p434eb03eed)" d="M 185.545397 155.033614 
L 197.953149 146.766236 
L 198.006034 142.672216 
L 185.578815 150.91486 
z
" style="fill:#5d0618;fill-opacity:0.8;"/>
    <path clip-path="url(#p434eb03eed)" d="M 163.528102 150.24183 
L 185.545397 155.033614 
L 185.578815 150.91486 
L 163.526117 146.137382 
z
" style="fill:#ba0c2f;fill-opacity:0.8;"/>
   </g>
   <g id="Poly3DCollection_3">
    <path clip-path="url(#p434eb03eed)" d="M 107.149264 148.966534 
L 107.027118 143.525308 
L 128.75697 148.284434 
L 128.833556 153.744634 
z
" style="fill:#5d0618;fill-opacity:0.8;"/>
    <path clip-path="url(#p434eb03eed)" d="M 93.866334 157.274967 
L 93.714629 151.800819 
L 107.027118 143.525308 
L 107.149264 148.966534 
z
" style="fill:#ba0c2f;fill-opacity:0.8;"/>
    <path clip-path="url(#p434eb03eed)" d="M 93.866334 157.274967 
L 107.149264 148.966534 
L 128.833556 153.744634 
L 115.681639 162.142572 
z
" style="fill:#74081d;fill-opacity:0.8;"/>
    <path clip-path="url(#p434eb03eed)" d="M 93.714629 151.800819 
L 115.576043 156.649288 
L 128.75697 148.284434 
L 107.027118 143.525308 
z
" style="fill:#a30a29;fill-opacity:0.8;"/>
    <path clip-path="url(#p434eb03eed)" d="M 115.681639 162.142572 
L 128.833556 153.744634 
L 128.75697 148.284434 
L 115.576043 156.649288 
z
" style="fill:#5d0618;fill-opacity:0.8;"/>
    <path clip-path="url(#p434eb03eed)" d="M 93.866334 157.274967 
L 115.681639 162.142572 
L 115.576043 156.649288 
L 93.714629 151.800819 
z
" style="fill:#ba0c2f;fill-opacity:0.8;"/>
   </g>
   <g id="Poly3DCollection_4">
    <path clip-path="url(#p434eb03eed)" d="M 220.068091 151.520772 
L 220.166697 146.948488 
L 242.559416 151.738067 
L 242.42021 156.326299 
z
" style="fill:#5d0618;fill-opacity:0.8;"/>
    <path clip-path="url(#p434eb03eed)" d="M 207.799752 159.876991 
L 207.877199 155.277036 
L 220.166697 146.948488 
L 220.068091 151.520772 
z
" style="fill:#ba0c2f;fill-opacity:0.8;"/>
    <path clip-path="url(#p434eb03eed)" d="M 207.799752 159.876991 
L 220.068091 151.520772 
L 242.42021 156.326299 
L 230.295018 164.772799 
z
" style="fill:#74081d;fill-opacity:0.8;"/>
    <path clip-path="url(#p434eb03eed)" d="M 207.877199 155.277036 
L 230.41359 160.15676 
L 242.559416 151.738067 
L 220.166697 146.948488 
z
" style="fill:#a30a29;fill-opacity:0.8;"/>
    <path clip-path="url(#p434eb03eed)" d="M 230.295018 164.772799 
L 242.42021 156.326299 
L 242.559416 151.738067 
L 230.41359 160.15676 
z
" style="fill:#5d0618;fill-opacity:0.8;"/>
    <path clip-path="url(#p434eb03eed)" d="M 207.799752 159.876991 
L 230.295018 164.772799 
L 230.41359 160.15676 
L 207.877199 155.277036 
z
" style="fill:#ba0c2f;fill-opacity:0.8;"/>
   </g>
   <g id="Poly3DCollection_5">
    <path clip-path="url(#p434eb03eed)" d="M 150.750986 158.574105 
L 150.777105 163.33873 
L 172.890093 168.236965 
L 172.905336 163.455781 
z
" style="fill:#ba0c2f;fill-opacity:0.8;"/>
    <path clip-path="url(#p434eb03eed)" d="M 137.733697 167.063003 
L 137.784542 171.856359 
L 150.777105 163.33873 
L 150.750986 158.574105 
z
" style="fill:#5d0618;fill-opacity:0.8;"/>
    <path clip-path="url(#p434eb03eed)" d="M 137.784542 171.856359 
L 160.035349 176.847178 
L 172.890093 168.236965 
L 150.777105 163.33873 
z
" style="fill:#a30a29;fill-opacity:0.8;"/>
    <path clip-path="url(#p434eb03eed)" d="M 137.733697 167.063003 
L 150.750986 158.574105 
L 172.905336 163.455781 
L 160.026382 172.037125 
z
" style="fill:#74081d;fill-opacity:0.8;"/>
    <path clip-path="url(#p434eb03eed)" d="M 160.026382 172.037125 
L 172.905336 163.455781 
L 172.890093 168.236965 
L 160.035349 176.847178 
z
" style="fill:#ba0c2f;fill-opacity:0.8;"/>
    <path clip-path="url(#p434eb03eed)" d="M 137.733697 167.063003 
L 160.026382 172.037125 
L 160.035349 176.847178 
L 137.784542 171.856359 
z
" style="fill:#5d0618;fill-opacity:0.8;"/>
   </g>
   <g id="Poly3DCollection_6">
    <path clip-path="url(#p434eb03eed)" d="M 80.334084 165.739348 
L 79.974033 154.865552 
L 102.013599 159.786973 
L 102.281518 170.698998 
z
" style="fill:#5d0618;fill-opacity:0.8;"/>
    <path clip-path="url(#p434eb03eed)" d="M 66.545429 174.36411 
L 66.122594 163.423982 
L 79.974033 154.865552 
L 80.334084 165.739348 
z
" style="fill:#ba0c2f;fill-opacity:0.8;"/>
    <path clip-path="url(#p434eb03eed)" d="M 66.545429 174.36411 
L 80.334084 165.739348 
L 102.281518 170.698998 
L 88.626098 179.41844 
z
" style="fill:#74081d;fill-opacity:0.8;"/>
    <path clip-path="url(#p434eb03eed)" d="M 66.122594 163.423982 
L 88.296507 168.43976 
L 102.013599 159.786973 
L 79.974033 154.865552 
z
" style="fill:#a30a29;fill-opacity:0.8;"/>
    <path clip-path="url(#p434eb03eed)" d="M 88.626098 179.41844 
L 102.281518 170.698998 
L 102.013599 159.786973 
L 88.296507 168.43976 
z
" style="fill:#5d0618;fill-opacity:0.8;"/>
    <path clip-path="url(#p434eb03eed)" d="M 66.545429 174.36411 
L 88.626098 179.41844 
L 88.296507 168.43976 
L 66.122594 163.423982 
z
" style="fill:#ba0c2f;fill-opacity:0.8;"/>
   </g>
   <g id="Poly3DCollection_7">
    <path clip-path="url(#p434eb03eed)" d="M 253.035127 169.721895 
L 265.013342 161.183642 
L 287.851407 166.093643 
L 276.024098 174.725152 
z
" style="fill:#74081d;fill-opacity:0.8;"/>
    <path clip-path="url(#p434eb03eed)" d="M 265.013342 161.183642 
L 267.091685 108.221224 
L 290.417366 112.940518 
L 287.851407 166.093643 
z
" style="fill:#5d0618;fill-opacity:0.8;"/>
    <path clip-path="url(#p434eb03eed)" d="M 253.035127 169.721895 
L 254.88274 116.428527 
L 267.091685 108.221224 
L 265.013342 161.183642 
z
" style="fill:#ba0c2f;fill-opacity:0.8;"/>
    <path clip-path="url(#p434eb03eed)" d="M 276.024098 174.725152 
L 287.851407 166.093643 
L 290.417366 112.940518 
L 278.365932 121.239345 
z
" style="fill:#5d0618;fill-opacity:0.8;"/>
    <path clip-path="url(#p434eb03eed)" d="M 253.035127 169.721895 
L 276.024098 174.725152 
L 278.365932 121.239345 
L 254.88274 116.428527 
z
" style="fill:#ba0c2f;fill-opacity:0.8;"/>
    <path clip-path="url(#p434eb03eed)" d="M 254.88274 116.428527 
L 278.365932 121.239345 
L 290.417366 112.940518 
L 267.091685 108.221224 
z
" style="fill:#a30a29;fill-opacity:0.8;"/>
   </g>
   <g id="Poly3DCollection_8">
    <path clip-path="url(#p434eb03eed)" d="M 240.828949 178.422643 
L 240.968652 173.762262 
L 264.153672 178.845082 
L 263.970455 183.521837 
z
" style="fill:#5d0618;fill-opacity:0.8;"/>
    <path clip-path="url(#p434eb03eed)" d="M 228.388238 187.290569 
L 228.506216 182.601777 
L 240.968652 173.762262 
L 240.828949 178.422643 
z
" style="fill:#ba0c2f;fill-opacity:0.8;"/>
    <path clip-path="url(#p434eb03eed)" d="M 228.388238 187.290569 
L 240.828949 178.422643 
L 263.970455 183.521837 
L 251.683918 192.488487 
z
" style="fill:#74081d;fill-opacity:0.8;"/>
    <path clip-path="url(#p434eb03eed)" d="M 228.506216 182.601777 
L 251.845997 187.783188 
L 264.153672 178.845082 
L 240.968652 173.762262 
z
" style="fill:#a30a29;fill-opacity:0.8;"/>
    <path clip-path="url(#p434eb03eed)" d="M 251.683918 192.488487 
L 263.970455 183.521837 
L 264.153672 178.845082 
L 251.845997 187.783188 
z
" style="fill:#5d0618;fill-opacity:0.8;"/>
    <path clip-path="url(#p434eb03eed)" d="M 228.388238 187.290569 
L 251.683918 192.488487 
L 251.845997 187.783188 
L 228.506216 182.601777 
z
" style="fill:#ba0c2f;fill-opacity:0.8;"/>
   </g>
   <g id="Poly3DCollection_9">
    <path clip-path="url(#p434eb03eed)" d="M 124.469397 175.712983 
L 124.089858 151.791089 
L 146.73249 156.775307 
L 146.901696 180.782202 
z
" style="fill:#5d0618;fill-opacity:0.8;"/>
    <path clip-path="url(#p434eb03eed)" d="M 110.95099 184.528673 
L 124.469397 175.712983 
L 146.901696 180.782202 
L 133.524179 189.695742 
z
" style="fill:#74081d;fill-opacity:0.8;"/>
    <path clip-path="url(#p434eb03eed)" d="M 110.95099 184.528673 
L 110.439233 160.45929 
L 124.089858 151.791089 
L 124.469397 175.712983 
z
" style="fill:#ba0c2f;fill-opacity:0.8;"/>
    <path clip-path="url(#p434eb03eed)" d="M 133.524179 189.695742 
L 146.901696 180.782202 
L 146.73249 156.775307 
L 133.225405 165.540639 
z
" style="fill:#5d0618;fill-opacity:0.8;"/>
    <path clip-path="url(#p434eb03eed)" d="M 110.439233 160.45929 
L 133.225405 165.540639 
L 146.73249 156.775307 
L 124.089858 151.791089 
z
" style="fill:#a30a29;fill-opacity:0.8;"/>
    <path clip-path="url(#p434eb03eed)" d="M 110.95099 184.528673 
L 133.524179 189.695742 
L 133.225405 165.540639 
L 110.439233 160.45929 
z
" style="fill:#ba0c2f;fill-opacity:0.8;"/>
   </g>
   <g id="Poly3DCollection_10">
    <path clip-path="url(#p434eb03eed)" d="M 169.582474 185.907571 
L 169.573234 190.763642 
L 192.462326 195.96309 
L 192.515884 191.09003 
z
" style="fill:#ba0c2f;fill-opacity:0.8;"/>
    <path clip-path="url(#p434eb03eed)" d="M 156.34983 194.9206 
L 156.366146 199.806146 
L 169.573234 190.763642 
L 169.582474 185.907571 
z
" style="fill:#5d0618;fill-opacity:0.8;"/>
    <path clip-path="url(#p434eb03eed)" d="M 156.366146 199.806146 
L 179.403624 205.106891 
L 192.462326 195.96309 
L 169.573234 190.763642 
z
" style="fill:#a30a29;fill-opacity:0.8;"/>
    <path clip-path="url(#p434eb03eed)" d="M 156.34983 194.9206 
L 169.582474 185.907571 
L 192.515884 191.09003 
L 179.432203 200.204222 
z
" style="fill:#74081d;fill-opacity:0.8;"/>
    <path clip-path="url(#p434eb03eed)" d="M 179.432203 200.204222 
L 192.515884 191.09003 
L 192.462326 195.96309 
L 179.403624 205.106891 
z
" style="fill:#ba0c2f;fill-opacity:0.8;"/>
    <path clip-path="url(#p434eb03eed)" d="M 156.34983 194.9206 
L 179.432203 200.204222 
L 179.403624 205.106891 
L 156.366146 199.806146 
z
" style="fill:#5d0618;fill-opacity:0.8;"/>
   </g>
   <g id="Poly3DCollection_11">
    <path clip-path="url(#p434eb03eed)" d="M 182.563653 177.065821 
L 195.300467 168.390513 
L 217.940327 173.379171 
L 205.34956 182.149995 
z
" style="fill:#74081d;fill-opacity:0.8;"/>
    <path clip-path="url(#p434eb03eed)" d="M 195.300467 168.390513 
L 195.893213 118.936689 
L 218.978353 123.747251 
L 217.940327 173.379171 
z
" style="fill:#5d0618;fill-opacity:0.8;"/>
    <path clip-path="url(#p434eb03eed)" d="M 182.563653 177.065821 
L 182.912474 127.302944 
L 195.893213 118.936689 
L 195.300467 168.390513 
z
" style="fill:#ba0c2f;fill-opacity:0.8;"/>
    <path clip-path="url(#p434eb03eed)" d="M 205.34956 182.149995 
L 217.940327 173.379171 
L 218.978353 123.747251 
L 206.149506 132.207432 
z
" style="fill:#5d0618;fill-opacity:0.8;"/>
    <path clip-path="url(#p434eb03eed)" d="M 182.563653 177.065821 
L 205.34956 182.149995 
L 206.149506 132.207432 
L 182.912474 127.302944 
z
" style="fill:#ba0c2f;fill-opacity:0.8;"/>
    <path clip-path="url(#p434eb03eed)" d="M 182.912474 127.302944 
L 206.149506 132.207432 
L 218.978353 123.747251 
L 195.893213 118.936689 
z
" style="fill:#a30a29;fill-opacity:0.8;"/>
   </g>
   <g id="Poly3DCollection_12">
    <path clip-path="url(#p434eb03eed)" d="M 97.171101 193.514881 
L 96.874015 182.429939 
L 119.688086 187.658483 
L 119.886453 198.782661 
z
" style="fill:#5d0618;fill-opacity:0.8;"/>
    <path clip-path="url(#p434eb03eed)" d="M 83.122072 202.676603 
L 82.759721 191.523587 
L 96.874015 182.429939 
L 97.171101 193.514881 
z
" style="fill:#ba0c2f;fill-opacity:0.8;"/>
    <path clip-path="url(#p434eb03eed)" d="M 83.122072 202.676603 
L 97.171101 193.514881 
L 119.886453 198.782661 
L 105.980852 208.048067 
z
" style="fill:#74081d;fill-opacity:0.8;"/>
    <path clip-path="url(#p434eb03eed)" d="M 82.759721 191.523587 
L 105.718463 196.855504 
L 119.688086 187.658483 
L 96.874015 182.429939 
z
" style="fill:#a30a29;fill-opacity:0.8;"/>
    <path clip-path="url(#p434eb03eed)" d="M 105.980852 208.048067 
L 119.886453 198.782661 
L 119.688086 187.658483 
L 105.718463 196.855504 
z
" style="fill:#5d0618;fill-opacity:0.8;"/>
    <path clip-path="url(#p434eb03eed)" d="M 83.122072 202.676603 
L 105.980852 208.048067 
L 105.718463 196.855504 
L 82.759721 191.523587 
z
" style="fill:#ba0c2f;fill-opacity:0.8;"/>
   </g>
   <g id="Poly3DCollection_13">
    <path clip-path="url(#p434eb03eed)" d="M 215.70617 196.330538 
L 215.791869 192.091884 
L 239.283532 197.376475 
L 239.157673 201.630075 
z
" style="fill:#5d0618;fill-opacity:0.8;"/>
    <path clip-path="url(#p434eb03eed)" d="M 202.775653 205.547606 
L 202.840224 201.283022 
L 215.791869 192.091884 
L 215.70617 196.330538 
z
" style="fill:#ba0c2f;fill-opacity:0.8;"/>
    <path clip-path="url(#p434eb03eed)" d="M 202.775653 205.547606 
L 215.70617 196.330538 
L 239.157673 201.630075 
L 226.384634 210.951771 
z
" style="fill:#74081d;fill-opacity:0.8;"/>
    <path clip-path="url(#p434eb03eed)" d="M 202.840224 201.283022 
L 226.489911 206.672124 
L 239.283532 197.376475 
L 215.791869 192.091884 
z
" style="fill:#a30a29;fill-opacity:0.8;"/>
    <path clip-path="url(#p434eb03eed)" d="M 226.384634 210.951771 
L 239.157673 201.630075 
L 239.283532 197.376475 
L 226.489911 206.672124 
z
" style="fill:#5d0618;fill-opacity:0.8;"/>
    <path clip-path="url(#p434eb03eed)" d="M 202.775653 205.547606 
L 226.384634 210.951771 
L 226.489911 206.672124 
L 202.840224 201.283022 
z
" style="fill:#ba0c2f;fill-opacity:0.8;"/>
   </g>
   <g id="Poly3DCollection_14">
    <path clip-path="url(#p434eb03eed)" d="M 142.858341 204.109932 
L 142.809021 198.456304 
L 166.094131 203.8241 
L 166.091137 209.49771 
z
" style="fill:#5d0618;fill-opacity:0.8;"/>
    <path clip-path="url(#p434eb03eed)" d="M 129.100339 213.480793 
L 129.019255 207.792499 
L 142.809021 198.456304 
L 142.858341 204.109932 
z
" style="fill:#ba0c2f;fill-opacity:0.8;"/>
    <path clip-path="url(#p434eb03eed)" d="M 129.100339 213.480793 
L 142.858341 204.109932 
L 166.091137 209.49771 
L 152.485018 218.975836 
z
" style="fill:#74081d;fill-opacity:0.8;"/>
    <path clip-path="url(#p434eb03eed)" d="M 129.019255 207.792499 
L 152.456934 213.267407 
L 166.094131 203.8241 
L 142.809021 198.456304 
z
" style="fill:#a30a29;fill-opacity:0.8;"/>
    <path clip-path="url(#p434eb03eed)" d="M 152.485018 218.975836 
L 166.091137 209.49771 
L 166.094131 203.8241 
L 152.456934 213.267407 
z
" style="fill:#5d0618;fill-opacity:0.8;"/>
    <path clip-path="url(#p434eb03eed)" d="M 129.100339 213.480793 
L 152.485018 218.975836 
L 152.456934 213.267407 
L 129.019255 207.792499 
z
" style="fill:#ba0c2f;fill-opacity:0.8;"/>
   </g>
   <g id="Poly3DCollection_15">
    <path clip-path="url(#p434eb03eed)" d="M 189.589311 214.947029 
L 189.583298 215.552862 
L 213.345598 221.066921 
L 213.357437 220.458952 
z
" style="fill:#ba0c2f;fill-opacity:0.8;"/>
    <path clip-path="url(#p434eb03eed)" d="M 176.139479 224.534273 
L 176.136697 225.143812 
L 189.583298 215.552862 
L 189.589311 214.947029 
z
" style="fill:#5d0618;fill-opacity:0.8;"/>
    <path clip-path="url(#p434eb03eed)" d="M 176.136697 225.143812 
L 200.05973 230.768898 
L 213.345598 221.066921 
L 189.583298 215.552862 
z
" style="fill:#a30a29;fill-opacity:0.8;"/>
    <path clip-path="url(#p434eb03eed)" d="M 176.139479 224.534273 
L 189.589311 214.947029 
L 213.357437 220.458952 
L 200.068417 230.157208 
z
" style="fill:#74081d;fill-opacity:0.8;"/>
    <path clip-path="url(#p434eb03eed)" d="M 200.068417 230.157208 
L 213.357437 220.458952 
L 213.345598 221.066921 
L 200.05973 230.768898 
z
" style="fill:#ba0c2f;fill-opacity:0.8;"/>
    <path clip-path="url(#p434eb03eed)" d="M 176.139479 224.534273 
L 200.068417 230.157208 
L 200.05973 230.768898 
L 176.136697 225.143812 
z
" style="fill:#5d0618;fill-opacity:0.8;"/>
   </g>
   <g id="Poly3DCollection_16">
    <path clip-path="url(#p434eb03eed)" d="M 25.310035 193.453431 
L 203.815026 235.595323 
L 299.971918 164.830549 
L 129.99047 128.440698 
z
" style="fill-opacity:0.15;"/>
   </g>
   <g id="Poly3DCollection_17">
    <path clip-path="url(#p434eb03eed)" d="M 38.169189 192.113362 
L 52.493011 183.153855 
L 74.708014 188.305602 
L 60.519613 197.36537 
z
" style="fill:#74081d;fill-opacity:0.8;"/>
    <path clip-path="url(#p434eb03eed)" d="M 52.493011 183.153855 
L 46.933544 57.750519 
L 70.222556 62.427839 
L 74.708014 188.305602 
z
" style="fill:#5d0618;fill-opacity:0.8;"/>
    <path clip-path="url(#p434eb03eed)" d="M 38.169189 192.113362 
L 31.836896 65.886594 
L 46.933544 57.750519 
L 52.493011 183.153855 
z
" style="fill:#ba0c2f;fill-opacity:0.8;"/>
    <path clip-path="url(#p434eb03eed)" d="M 60.519613 197.36537 
L 74.708014 188.305602 
L 70.222556 62.427839 
L 55.274545 70.659531 
z
" style="fill:#5d0618;fill-opacity:0.8;"/>
    <path clip-path="url(#p434eb03eed)" d="M 38.169189 192.113362 
L 60.519613 197.36537 
L 55.274545 70.659531 
L 31.836896 65.886594 
z
" style="fill:#ba0c2f;fill-opacity:0.8;"/>
    <path clip-path="url(#p434eb03eed)" d="M 31.836896 65.886594 
L 55.274545 70.659531 
L 70.222556 62.427839 
L 46.933544 57.750519 
z
" style="fill:#a30a29;fill-opacity:0.8;"/>
   </g>
  </g>
  <g id="patch_6">
   <path d="M 425.945455 262.8 
L 806.4 262.8 
L 806.4 -14.4 
L 425.945455 -14.4 
z
" style="fill:#ffffff;"/>
  </g>
  <g id="pane3d_4">
   <g id="patch_7">
    <path d="M 476.380584 201.548569 
L 585.268665 133.58541 
L 583.455794 3.718968 
L 468.496488 64.782468 
" style="fill:#f2f2f2;opacity:0.5;stroke:#f2f2f2;stroke-linejoin:miter;"/>
   </g>
  </g>
  <g id="pane3d_5">
   <g id="patch_8">
    <path d="M 585.268665 133.58541 
L 761.65712 171.581202 
L 769.037001 37.79869 
L 583.455794 3.718968 
" style="fill:#e6e6e6;opacity:0.5;stroke:#e6e6e6;stroke-linejoin:miter;"/>
   </g>
  </g>
  <g id="pane3d_6">
   <g id="patch_9">
    <path d="M 476.380584 201.548569 
L 661.965072 245.80086 
L 761.65712 171.581202 
L 585.268665 133.58541 
" style="fill:#ececec;opacity:0.5;stroke:#ececec;stroke-linejoin:miter;"/>
   </g>
  </g>
  <g id="axis3d_4">
   <g id="line2d_15">
    <path d="M 476.380584 201.548569 
L 661.965072 245.80086 
" style="fill:none;stroke:#000000;stroke-linecap:square;stroke-width:0.8;"/>
   </g>
   <g id="Line3DCollection_4">
    <path d="M 498.841271 206.90428 
L 606.679397 138.19749 
L 605.9393 7.847789 
" style="fill:none;stroke:#b0b0b0;stroke-width:0.8;"/>
    <path d="M 544.057792 217.686079 
L 649.729469 147.470895 
L 651.182353 16.156123 
" style="fill:none;stroke:#b0b0b0;stroke-width:0.8;"/>
    <path d="M 590.310744 228.715013 
L 693.693551 156.941187 
L 697.435637 24.649974 
" style="fill:none;stroke:#b0b0b0;stroke-width:0.8;"/>
    <path d="M 637.636176 239.999678 
L 738.601063 166.614702 
L 744.733372 33.335625 
" style="fill:none;stroke:#b0b0b0;stroke-width:0.8;"/>
   </g>
   <g id="xtick_12">
    <g id="line2d_16">
     <path d="M 499.770538 206.312217 
L 496.979262 208.09062 
" style="fill:none;stroke:#000000;stroke-linecap:square;stroke-width:0.8;"/>
    </g>
    <g id="text_13">
     <!-- 00 -->
     <g transform="translate(479.875817 237.14703)rotate(-45)scale(0.14 -0.14)">
      <use transform="scale(0.996264)" xlink:href="#CMR17-48"/>
      <use transform="translate(45.690477 0)scale(0.996264)" xlink:href="#CMR17-48"/>
     </g>
    </g>
   </g>
   <g id="xtick_13">
    <g id="line2d_17">
     <path d="M 544.969128 217.080527 
L 542.231671 218.899473 
" style="fill:none;stroke:#000000;stroke-linecap:square;stroke-width:0.8;"/>
    </g>
    <g id="text_14">
     <!-- 01 -->
     <g transform="translate(525.088242 248.103782)rotate(-45)scale(0.14 -0.14)">
      <use transform="scale(0.996264)" xlink:href="#CMR17-48"/>
      <use transform="translate(45.690477 0)scale(0.996264)" xlink:href="#CMR17-49"/>
     </g>
    </g>
   </g>
   <g id="xtick_14">
    <g id="line2d_18">
     <path d="M 591.20308 228.095506 
L 588.522658 229.956397 
" style="fill:none;stroke:#000000;stroke-linecap:square;stroke-width:0.8;"/>
    </g>
    <g id="text_15">
     <!-- 10 -->
     <g transform="translate(571.338855 259.312128)rotate(-45)scale(0.14 -0.14)">
      <use transform="scale(0.996264)" xlink:href="#CMR17-49"/>
      <use transform="translate(45.690477 0)scale(0.996264)" xlink:href="#CMR17-48"/>
     </g>
    </g>
   </g>
   <g id="xtick_15">
    <g id="line2d_19">
     <path d="M 638.50838 239.365727 
L 635.888391 241.270032 
" style="fill:none;stroke:#000000;stroke-linecap:square;stroke-width:0.8;"/>
    </g>
    <g id="text_16">
     <!-- 11 -->
     <g transform="translate(618.66383 270.780834)rotate(-45)scale(0.14 -0.14)">
      <use transform="scale(0.996264)" xlink:href="#CMR17-49"/>
      <use transform="translate(45.690477 0)scale(0.996264)" xlink:href="#CMR17-49"/>
     </g>
    </g>
   </g>
  </g>
  <g id="axis3d_5">
   <g id="line2d_20">
    <path d="M 761.65712 171.581202 
L 661.965072 245.80086 
" style="fill:none;stroke:#000000;stroke-linecap:square;stroke-width:0.8;"/>
   </g>
   <g id="Line3DCollection_5">
    <path d="M 484.000685 56.547028 
L 491.016499 192.413474 
L 675.403872 235.795817 
" style="fill:none;stroke:#b0b0b0;stroke-width:0.8;"/>
    <path d="M 513.777478 40.730342 
L 519.168861 174.842005 
L 701.219492 216.576366 
" style="fill:none;stroke:#b0b0b0;stroke-width:0.8;"/>
    <path d="M 542.401344 25.526062 
L 546.284836 157.917404 
L 726.04244 198.095948 
" style="fill:none;stroke:#b0b0b0;stroke-width:0.8;"/>
    <path d="M 569.937971 10.899296 
L 572.420618 141.604597 
L 749.928893 180.312741 
" style="fill:none;stroke:#b0b0b0;stroke-width:0.8;"/>
   </g>
   <g id="xtick_16">
    <g id="line2d_21">
     <path d="M 673.861052 235.432825 
L 678.492943 236.522608 
" style="fill:none;stroke:#000000;stroke-linecap:square;stroke-width:0.8;"/>
    </g>
    <g id="text_17">
     <!-- 00 -->
     <g transform="translate(689.195824 248.348363)rotate(-337.5)scale(0.14 -0.14)">
      <use transform="scale(0.996264)" xlink:href="#CMR17-48"/>
      <use transform="translate(45.690477 0)scale(0.996264)" xlink:href="#CMR17-48"/>
     </g>
    </g>
   </g>
   <g id="xtick_17">
    <g id="line2d_22">
     <path d="M 699.697534 216.227463 
L 704.266725 217.274932 
" style="fill:none;stroke:#000000;stroke-linecap:square;stroke-width:0.8;"/>
    </g>
    <g id="text_18">
     <!-- 01 -->
     <g transform="translate(714.749375 228.903937)rotate(-337.5)scale(0.14 -0.14)">
      <use transform="scale(0.996264)" xlink:href="#CMR17-48"/>
      <use transform="translate(45.690477 0)scale(0.996264)" xlink:href="#CMR17-49"/>
     </g>
    </g>
   </g>
   <g id="xtick_18">
    <g id="line2d_23">
     <path d="M 724.540896 197.76033 
L 729.048738 198.767901 
" style="fill:none;stroke:#000000;stroke-linecap:square;stroke-width:0.8;"/>
    </g>
    <g id="text_19">
     <!-- 10 -->
     <g transform="translate(739.320787 210.206849)rotate(-337.5)scale(0.14 -0.14)">
      <use transform="scale(0.996264)" xlink:href="#CMR17-49"/>
      <use transform="translate(45.690477 0)scale(0.996264)" xlink:href="#CMR17-48"/>
     </g>
    </g>
   </g>
   <g id="xtick_19">
    <g id="line2d_24">
     <path d="M 748.44732 179.989663 
L 752.895146 180.959573 
" style="fill:none;stroke:#000000;stroke-linecap:square;stroke-width:0.8;"/>
    </g>
    <g id="text_20">
     <!-- 11 -->
     <g transform="translate(762.965613 192.214827)rotate(-337.5)scale(0.14 -0.14)">
      <use transform="scale(0.996264)" xlink:href="#CMR17-49"/>
      <use transform="translate(45.690477 0)scale(0.996264)" xlink:href="#CMR17-49"/>
     </g>
    </g>
   </g>
  </g>
  <g id="axis3d_6">
   <g id="line2d_25">
    <path d="M 761.65712 171.581202 
L 769.037001 37.79869 
" style="fill:none;stroke:#000000;stroke-linecap:square;stroke-width:0.8;"/>
   </g>
   <g id="text_21">
    <!-- Im[$\rho$] -->
    <defs>
     <path d="M 19.703125 60.90625 
C 19.703125 65.390625 20.90625 65.390625 28.09375 65.390625 
L 28.09375 68 
C 24.90625 67.796875 19.796875 67.796875 16.40625 67.796875 
C 13 67.796875 7.90625 67.796875 4.703125 68 
L 4.703125 65.390625 
C 11.90625 65.390625 13.09375 65.390625 13.09375 60.90625 
L 13.09375 7.078125 
C 13.09375 2.59375 11.90625 2.59375 4.703125 2.59375 
L 4.703125 0 
C 7.90625 0.1875 13 0.1875 16.40625 0.1875 
C 19.796875 0.1875 24.90625 0.1875 28.09375 0 
L 28.09375 2.59375 
C 20.90625 2.59375 19.703125 2.59375 19.703125 7.078125 
z
" id="CMR17-73"/>
     <path d="M 67.59375 30.53125 
C 67.59375 35.5625 66.703125 44 54.796875 44 
C 48 44 43.296875 39.375 41.5 33.953125 
L 41.40625 33.953125 
C 40.203125 42.1875 34.296875 44 28.703125 44 
C 20.796875 44 16.703125 37.875 15.203125 33.84375 
L 15.09375 33.84375 
L 15.09375 44 
L 3.296875 42.890625 
L 3.296875 40.28125 
C 9.203125 40.28125 10.09375 39.6875 10.09375 34.859375 
L 10.09375 6.921875 
C 10.09375 3.09375 9.703125 2.59375 3.296875 2.59375 
L 3.296875 0 
C 5.703125 0.1875 10.09375 0.1875 12.703125 0.1875 
C 15.296875 0.1875 19.796875 0.1875 22.203125 0 
L 22.203125 2.59375 
C 15.796875 2.59375 15.40625 3 15.40625 6.921875 
L 15.40625 26.21875 
C 15.40625 35.453125 21 42.390625 28 42.390625 
C 35.40625 42.390625 36.203125 35.765625 36.203125 30.9375 
L 36.203125 6.921875 
C 36.203125 3.09375 35.796875 2.59375 29.40625 2.59375 
L 29.40625 0 
C 31.796875 0.1875 36.203125 0.1875 38.796875 0.1875 
C 41.40625 0.1875 45.90625 0.1875 48.296875 0 
L 48.296875 2.59375 
C 41.90625 2.59375 41.5 3 41.5 6.921875 
L 41.5 26.21875 
C 41.5 35.453125 47.09375 42.390625 54.09375 42.390625 
C 61.5 42.390625 62.296875 35.765625 62.296875 30.9375 
L 62.296875 6.921875 
C 62.296875 3.09375 61.90625 2.59375 55.5 2.59375 
L 55.5 0 
C 57.90625 0.1875 62.296875 0.1875 64.90625 0.1875 
C 67.5 0.1875 72 0.1875 74.40625 0 
L 74.40625 2.59375 
C 68 2.59375 67.59375 3 67.59375 6.921875 
z
" id="CMR17-109"/>
    </defs>
    <g transform="translate(809.026865 118.025317)rotate(-86.842577)scale(0.14 -0.14)">
     <use transform="scale(0.996264)" xlink:href="#CMR17-73"/>
     <use transform="translate(32.638409 0)scale(0.996264)" xlink:href="#CMR17-109"/>
     <use transform="translate(109.557999 0)scale(0.996264)" xlink:href="#CMR17-91"/>
     <use transform="translate(134.429058 0)scale(0.996264)" xlink:href="#CMMI12-26"/>
     <use transform="translate(184.74343 0)scale(0.996264)" xlink:href="#CMR17-93"/>
    </g>
   </g>
   <g id="Line3DCollection_6">
    <path d="M 761.969213 165.92358 
L 585.191839 128.081929 
L 476.047717 195.7743 
" style="fill:none;stroke:#b0b0b0;stroke-width:0.8;"/>
    <path d="M 764.724177 115.981577 
L 584.514282 79.544573 
L 473.107272 144.766146 
" style="fill:none;stroke:#b0b0b0;stroke-width:0.8;"/>
    <path d="M 767.589219 64.044096 
L 583.81082 29.151541 
L 470.045329 91.650339 
" style="fill:none;stroke:#b0b0b0;stroke-width:0.8;"/>
   </g>
   <g id="xtick_20">
    <g id="line2d_26">
     <path d="M 760.494184 165.60783 
L 764.922343 166.555738 
" style="fill:none;stroke:#000000;stroke-linecap:square;stroke-width:0.8;"/>
    </g>
    <g id="text_22">
     <!-- $0.0$ -->
     <g transform="translate(771.79394 173.672801)scale(0.14 -0.14)">
      <use transform="scale(0.996264)" xlink:href="#CMR17-48"/>
      <use transform="translate(45.690477 0)scale(0.996264)" xlink:href="#CMMI12-58"/>
      <use transform="translate(72.787654 0)scale(0.996264)" xlink:href="#CMR17-48"/>
     </g>
    </g>
   </g>
   <g id="xtick_21">
    <g id="line2d_27">
     <path d="M 763.219294 115.677302 
L 767.73714 116.590774 
" style="fill:none;stroke:#000000;stroke-linecap:square;stroke-width:0.8;"/>
    </g>
    <g id="text_23">
     <!-- $0.2$ -->
     <g transform="translate(774.905475 123.801245)scale(0.14 -0.14)">
      <use transform="scale(0.996264)" xlink:href="#CMR17-48"/>
      <use transform="translate(45.690477 0)scale(0.996264)" xlink:href="#CMMI12-58"/>
      <use transform="translate(72.787654 0)scale(0.996264)" xlink:href="#CMR17-50"/>
     </g>
    </g>
   </g>
   <g id="xtick_22">
    <g id="line2d_28">
     <path d="M 766.053248 63.752474 
L 770.664487 64.627973 
" style="fill:none;stroke:#000000;stroke-linecap:square;stroke-width:0.8;"/>
    </g>
    <g id="text_24">
     <!-- $0.4$ -->
     <g transform="translate(778.14106 71.941432)scale(0.14 -0.14)">
      <use transform="scale(0.996264)" xlink:href="#CMR17-48"/>
      <use transform="translate(45.690477 0)scale(0.996264)" xlink:href="#CMMI12-58"/>
      <use transform="translate(72.787654 0)scale(0.996264)" xlink:href="#CMR17-52"/>
     </g>
    </g>
   </g>
  </g>
  <g id="axes_2">
   <g id="Poly3DCollection_18">
    <path clip-path="url(#pad25d0d04b)" d="M 589.559772 134.433469 
L 589.568417 135.136211 
L 610.974718 139.750613 
L 610.971888 139.045447 
z
" style="fill:#0cba97;fill-opacity:0.8;"/>
    <path clip-path="url(#pad25d0d04b)" d="M 576.763597 142.452447 
L 576.775836 143.159396 
L 589.568417 135.136211 
L 589.559772 134.433469 
z
" style="fill:#065d4c;fill-opacity:0.8;"/>
    <path clip-path="url(#pad25d0d04b)" d="M 576.775836 143.159396 
L 598.310676 147.858569 
L 610.974718 139.750613 
L 589.568417 135.136211 
z
" style="fill:#0aa384;fill-opacity:0.8;"/>
    <path clip-path="url(#pad25d0d04b)" d="M 576.763597 142.452447 
L 589.559772 134.433469 
L 610.971888 139.045447 
L 598.304321 147.149176 
z
" style="fill:#08745e;fill-opacity:0.8;"/>
    <path clip-path="url(#pad25d0d04b)" d="M 598.304321 147.149176 
L 610.971888 139.045447 
L 610.974718 139.750613 
L 598.310676 147.858569 
z
" style="fill:#0cba97;fill-opacity:0.8;"/>
    <path clip-path="url(#pad25d0d04b)" d="M 576.763597 142.452447 
L 598.304321 147.149176 
L 598.310676 147.858569 
L 576.775836 143.159396 
z
" style="fill:#065d4c;fill-opacity:0.8;"/>
   </g>
   <g id="Poly3DCollection_19">
    <path clip-path="url(#pad25d0d04b)" d="M 632.609863 143.706073 
L 632.612008 143.217743 
L 654.483621 147.9261 
L 654.477291 148.416121 
z
" style="fill:#065d4c;fill-opacity:0.8;"/>
    <path clip-path="url(#pad25d0d04b)" d="M 620.074356 151.895904 
L 620.074119 151.40464 
L 632.612008 143.217743 
L 632.609863 143.706073 
z
" style="fill:#0cba97;fill-opacity:0.8;"/>
    <path clip-path="url(#pad25d0d04b)" d="M 620.074356 151.895904 
L 632.609863 143.706073 
L 654.477291 148.416121 
L 642.077384 156.693433 
z
" style="fill:#08745e;fill-opacity:0.8;"/>
    <path clip-path="url(#pad25d0d04b)" d="M 620.074119 151.40464 
L 642.081384 156.200464 
L 654.483621 147.9261 
L 632.612008 143.217743 
z
" style="fill:#0aa384;fill-opacity:0.8;"/>
    <path clip-path="url(#pad25d0d04b)" d="M 642.077384 156.693433 
L 654.477291 148.416121 
L 654.483621 147.9261 
L 642.081384 156.200464 
z
" style="fill:#065d4c;fill-opacity:0.8;"/>
    <path clip-path="url(#pad25d0d04b)" d="M 620.074356 151.895904 
L 642.077384 156.693433 
L 642.081384 156.200464 
L 620.074119 151.40464 
z
" style="fill:#0cba97;fill-opacity:0.8;"/>
   </g>
   <g id="Poly3DCollection_20">
    <path clip-path="url(#pad25d0d04b)" d="M 563.731816 150.619073 
L 563.676185 148.140887 
L 585.367389 152.916116 
L 585.40227 155.40291 
z
" style="fill:#065d4c;fill-opacity:0.8;"/>
    <path clip-path="url(#pad25d0d04b)" d="M 550.457861 158.937462 
L 550.388769 156.444338 
L 563.676185 148.140887 
L 563.731816 150.619073 
z
" style="fill:#0cba97;fill-opacity:0.8;"/>
    <path clip-path="url(#pad25d0d04b)" d="M 550.457861 158.937462 
L 563.731816 150.619073 
L 585.40227 155.40291 
L 572.259163 163.810854 
z
" style="fill:#08745e;fill-opacity:0.8;"/>
    <path clip-path="url(#pad25d0d04b)" d="M 550.388769 156.444338 
L 572.211071 161.309048 
L 585.367389 152.916116 
L 563.676185 148.140887 
z
" style="fill:#0aa384;fill-opacity:0.8;"/>
    <path clip-path="url(#pad25d0d04b)" d="M 572.259163 163.810854 
L 585.40227 155.40291 
L 585.367389 152.916116 
L 572.211071 161.309048 
z
" style="fill:#065d4c;fill-opacity:0.8;"/>
    <path clip-path="url(#pad25d0d04b)" d="M 550.457861 158.937462 
L 572.259163 163.810854 
L 572.211071 161.309048 
L 550.388769 156.444338 
z
" style="fill:#0cba97;fill-opacity:0.8;"/>
   </g>
   <g id="Poly3DCollection_21">
    <path clip-path="url(#pad25d0d04b)" d="M 676.57784 153.176382 
L 676.625217 150.979559 
L 698.982142 155.783203 
L 698.915259 157.987662 
z
" style="fill:#065d4c;fill-opacity:0.8;"/>
    <path clip-path="url(#pad25d0d04b)" d="M 664.317164 161.542584 
L 664.354374 159.332511 
L 676.625217 150.979559 
L 676.57784 153.176382 
z
" style="fill:#0cba97;fill-opacity:0.8;"/>
    <path clip-path="url(#pad25d0d04b)" d="M 664.317164 161.542584 
L 676.57784 153.176382 
L 698.915259 157.987662 
L 686.797539 166.444194 
z
" style="fill:#08745e;fill-opacity:0.8;"/>
    <path clip-path="url(#pad25d0d04b)" d="M 664.354374 159.332511 
L 686.854507 164.22642 
L 698.982142 155.783203 
L 676.625217 150.979559 
z
" style="fill:#0aa384;fill-opacity:0.8;"/>
    <path clip-path="url(#pad25d0d04b)" d="M 686.797539 166.444194 
L 698.915259 157.987662 
L 698.982142 155.783203 
L 686.854507 164.22642 
z
" style="fill:#065d4c;fill-opacity:0.8;"/>
    <path clip-path="url(#pad25d0d04b)" d="M 664.317164 161.542584 
L 686.797539 166.444194 
L 686.854507 164.22642 
L 664.354374 159.332511 
z
" style="fill:#0cba97;fill-opacity:0.8;"/>
   </g>
   <g id="Poly3DCollection_22">
    <path clip-path="url(#pad25d0d04b)" d="M 607.305563 160.238148 
L 607.31482 161.926909 
L 629.440065 166.820247 
L 629.445467 165.125618 
z
" style="fill:#0cba97;fill-opacity:0.8;"/>
    <path clip-path="url(#pad25d0d04b)" d="M 594.296909 168.737099 
L 594.314931 170.436043 
L 607.31482 161.926909 
L 607.305563 160.238148 
z
" style="fill:#065d4c;fill-opacity:0.8;"/>
    <path clip-path="url(#pad25d0d04b)" d="M 594.314931 170.436043 
L 616.578146 175.421924 
L 629.440065 166.820247 
L 607.31482 161.926909 
z
" style="fill:#0aa384;fill-opacity:0.8;"/>
    <path clip-path="url(#pad25d0d04b)" d="M 594.296909 168.737099 
L 607.305563 160.238148 
L 629.445467 165.125618 
L 616.574968 173.717064 
z
" style="fill:#08745e;fill-opacity:0.8;"/>
    <path clip-path="url(#pad25d0d04b)" d="M 616.574968 173.717064 
L 629.445467 165.125618 
L 629.440065 166.820247 
L 616.578146 175.421924 
z
" style="fill:#0cba97;fill-opacity:0.8;"/>
    <path clip-path="url(#pad25d0d04b)" d="M 594.296909 168.737099 
L 616.574968 173.717064 
L 616.578146 175.421924 
L 594.314931 170.436043 
z
" style="fill:#065d4c;fill-opacity:0.8;"/>
   </g>
   <g id="Poly3DCollection_23">
    <path clip-path="url(#pad25d0d04b)" d="M 721.493375 162.850786 
L 721.493375 162.850786 
L 744.3161 167.766597 
L 744.3161 167.766597 
z
" style="fill:#065d4c;fill-opacity:0.8;"/>
    <path clip-path="url(#pad25d0d04b)" d="M 709.522434 171.399118 
L 709.522434 171.399118 
L 721.493375 162.850786 
L 721.493375 162.850786 
z
" style="fill:#065d4c;fill-opacity:0.8;"/>
    <path clip-path="url(#pad25d0d04b)" d="M 709.522434 171.399118 
L 721.493375 162.850786 
L 744.3161 167.766597 
L 732.49586 176.408233 
z
" style="fill:#08745e;fill-opacity:0.8;"/>
    <path clip-path="url(#pad25d0d04b)" d="M 709.522434 171.399118 
L 732.49586 176.408233 
L 744.3161 167.766597 
L 721.493375 162.850786 
z
" style="fill:#0aa384;fill-opacity:0.8;"/>
    <path clip-path="url(#pad25d0d04b)" d="M 732.49586 176.408233 
L 744.3161 167.766597 
L 744.3161 167.766597 
L 732.49586 176.408233 
z
" style="fill:#065d4c;fill-opacity:0.8;"/>
    <path clip-path="url(#pad25d0d04b)" d="M 709.522434 171.399118 
L 732.49586 176.408233 
L 732.49586 176.408233 
L 709.522434 171.399118 
z
" style="fill:#065d4c;fill-opacity:0.8;"/>
   </g>
   <g id="Poly3DCollection_24">
    <path clip-path="url(#pad25d0d04b)" d="M 536.934919 167.411884 
L 536.831478 164.287883 
L 558.79121 169.242459 
L 558.868181 172.377368 
z
" style="fill:#065d4c;fill-opacity:0.8;"/>
    <path clip-path="url(#pad25d0d04b)" d="M 523.155918 176.04677 
L 523.034444 172.903842 
L 536.831478 164.287883 
L 536.934919 167.411884 
z
" style="fill:#0cba97;fill-opacity:0.8;"/>
    <path clip-path="url(#pad25d0d04b)" d="M 523.155918 176.04677 
L 536.934919 167.411884 
L 558.868181 172.377368 
L 545.222244 181.106983 
z
" style="fill:#08745e;fill-opacity:0.8;"/>
    <path clip-path="url(#pad25d0d04b)" d="M 523.034444 172.903842 
L 545.12756 177.953056 
L 558.79121 169.242459 
L 536.831478 164.287883 
z
" style="fill:#0aa384;fill-opacity:0.8;"/>
    <path clip-path="url(#pad25d0d04b)" d="M 545.222244 181.106983 
L 558.868181 172.377368 
L 558.79121 169.242459 
L 545.12756 177.953056 
z
" style="fill:#065d4c;fill-opacity:0.8;"/>
    <path clip-path="url(#pad25d0d04b)" d="M 523.155918 176.04677 
L 545.222244 181.106983 
L 545.12756 177.953056 
L 523.034444 172.903842 
z
" style="fill:#0cba97;fill-opacity:0.8;"/>
   </g>
   <g id="Poly3DCollection_25">
    <path clip-path="url(#pad25d0d04b)" d="M 651.825838 170.066172 
L 651.825838 170.066172 
L 674.450614 175.06068 
L 674.450614 175.06068 
z
" style="fill:#065d4c;fill-opacity:0.8;"/>
    <path clip-path="url(#pad25d0d04b)" d="M 639.097291 178.75163 
L 639.097291 178.75163 
L 651.825838 170.066172 
L 651.825838 170.066172 
z
" style="fill:#065d4c;fill-opacity:0.8;"/>
    <path clip-path="url(#pad25d0d04b)" d="M 639.097291 178.75163 
L 661.867918 183.841702 
L 674.450614 175.06068 
L 651.825838 170.066172 
z
" style="fill:#0aa384;fill-opacity:0.8;"/>
    <path clip-path="url(#pad25d0d04b)" d="M 639.097291 178.75163 
L 651.825838 170.066172 
L 674.450614 175.06068 
L 661.867918 183.841702 
z
" style="fill:#08745e;fill-opacity:0.8;"/>
    <path clip-path="url(#pad25d0d04b)" d="M 661.867918 183.841702 
L 674.450614 175.06068 
L 674.450614 175.06068 
L 661.867918 183.841702 
z
" style="fill:#065d4c;fill-opacity:0.8;"/>
    <path clip-path="url(#pad25d0d04b)" d="M 639.097291 178.75163 
L 661.867918 183.841702 
L 661.867918 183.841702 
L 639.097291 178.75163 
z
" style="fill:#065d4c;fill-opacity:0.8;"/>
   </g>
   <g id="Poly3DCollection_26">
    <path clip-path="url(#pad25d0d04b)" d="M 581.041574 177.397216 
L 581.041574 177.397216 
L 603.459063 182.472326 
L 603.459063 182.472326 
z
" style="fill:#065d4c;fill-opacity:0.8;"/>
    <path clip-path="url(#pad25d0d04b)" d="M 567.532471 186.223127 
L 567.532471 186.223127 
L 581.041574 177.397216 
L 581.041574 177.397216 
z
" style="fill:#065d4c;fill-opacity:0.8;"/>
    <path clip-path="url(#pad25d0d04b)" d="M 567.532471 186.223127 
L 581.041574 177.397216 
L 603.459063 182.472326 
L 590.090665 191.396134 
z
" style="fill:#08745e;fill-opacity:0.8;"/>
    <path clip-path="url(#pad25d0d04b)" d="M 567.532471 186.223127 
L 590.090665 191.396134 
L 603.459063 182.472326 
L 581.041574 177.397216 
z
" style="fill:#0aa384;fill-opacity:0.8;"/>
    <path clip-path="url(#pad25d0d04b)" d="M 590.090665 191.396134 
L 603.459063 182.472326 
L 603.459063 182.472326 
L 590.090665 191.396134 
z
" style="fill:#065d4c;fill-opacity:0.8;"/>
    <path clip-path="url(#pad25d0d04b)" d="M 567.532471 186.223127 
L 590.090665 191.396134 
L 590.090665 191.396134 
L 567.532471 186.223127 
z
" style="fill:#065d4c;fill-opacity:0.8;"/>
   </g>
   <g id="Poly3DCollection_27">
    <path clip-path="url(#pad25d0d04b)" d="M 697.323821 180.110029 
L 697.25682 182.345083 
L 720.361706 187.457986 
L 720.449573 185.215129 
z
" style="fill:#0cba97;fill-opacity:0.8;"/>
    <path clip-path="url(#pad25d0d04b)" d="M 684.890977 188.988201 
L 684.834399 191.236793 
L 697.25682 182.345083 
L 697.323821 180.110029 
z
" style="fill:#065d4c;fill-opacity:0.8;"/>
    <path clip-path="url(#pad25d0d04b)" d="M 684.834399 191.236793 
L 708.092965 196.44853 
L 720.361706 187.457986 
L 697.25682 182.345083 
z
" style="fill:#0aa384;fill-opacity:0.8;"/>
    <path clip-path="url(#pad25d0d04b)" d="M 684.890977 188.988201 
L 697.323821 180.110029 
L 720.449573 185.215129 
L 708.170691 194.192072 
z
" style="fill:#08745e;fill-opacity:0.8;"/>
    <path clip-path="url(#pad25d0d04b)" d="M 708.170691 194.192072 
L 720.449573 185.215129 
L 720.361706 187.457986 
L 708.092965 196.44853 
z
" style="fill:#0cba97;fill-opacity:0.8;"/>
    <path clip-path="url(#pad25d0d04b)" d="M 684.890977 188.988201 
L 708.170691 194.192072 
L 708.092965 196.44853 
L 684.834399 191.236793 
z
" style="fill:#065d4c;fill-opacity:0.8;"/>
   </g>
   <g id="Poly3DCollection_28">
    <path clip-path="url(#pad25d0d04b)" d="M 509.113515 184.846722 
L 509.113515 184.846722 
L 531.314002 190.0044 
L 531.314002 190.0044 
z
" style="fill:#065d4c;fill-opacity:0.8;"/>
    <path clip-path="url(#pad25d0d04b)" d="M 494.800085 193.816519 
L 494.800085 193.816519 
L 509.113515 184.846722 
L 509.113515 184.846722 
z
" style="fill:#065d4c;fill-opacity:0.8;"/>
    <path clip-path="url(#pad25d0d04b)" d="M 494.800085 193.816519 
L 517.135819 199.074505 
L 531.314002 190.0044 
L 509.113515 184.846722 
z
" style="fill:#0aa384;fill-opacity:0.8;"/>
    <path clip-path="url(#pad25d0d04b)" d="M 494.800085 193.816519 
L 509.113515 184.846722 
L 531.314002 190.0044 
L 517.135819 199.074505 
z
" style="fill:#08745e;fill-opacity:0.8;"/>
    <path clip-path="url(#pad25d0d04b)" d="M 517.135819 199.074505 
L 531.314002 190.0044 
L 531.314002 190.0044 
L 517.135819 199.074505 
z
" style="fill:#065d4c;fill-opacity:0.8;"/>
    <path clip-path="url(#pad25d0d04b)" d="M 494.800085 193.816519 
L 517.135819 199.074505 
L 517.135819 199.074505 
L 494.800085 193.816519 
z
" style="fill:#065d4c;fill-opacity:0.8;"/>
   </g>
   <g id="Poly3DCollection_29">
    <path clip-path="url(#pad25d0d04b)" d="M 626.124702 187.603614 
L 626.127981 185.880099 
L 649.061642 191.062462 
L 649.042633 192.792018 
z
" style="fill:#065d4c;fill-opacity:0.8;"/>
    <path clip-path="url(#pad25d0d04b)" d="M 612.900983 196.626958 
L 612.895192 194.89296 
L 626.127981 185.880099 
L 626.124702 187.603614 
z
" style="fill:#0cba97;fill-opacity:0.8;"/>
    <path clip-path="url(#pad25d0d04b)" d="M 612.900983 196.626958 
L 626.124702 187.603614 
L 649.042633 192.792018 
L 635.967675 201.916573 
z
" style="fill:#08745e;fill-opacity:0.8;"/>
    <path clip-path="url(#pad25d0d04b)" d="M 612.895192 194.89296 
L 635.977819 200.176486 
L 649.061642 191.062462 
L 626.127981 185.880099 
z
" style="fill:#0aa384;fill-opacity:0.8;"/>
    <path clip-path="url(#pad25d0d04b)" d="M 635.967675 201.916573 
L 649.042633 192.792018 
L 649.061642 191.062462 
L 635.977819 200.176486 
z
" style="fill:#065d4c;fill-opacity:0.8;"/>
    <path clip-path="url(#pad25d0d04b)" d="M 612.900983 196.626958 
L 635.967675 201.916573 
L 635.977819 200.176486 
L 612.895192 194.89296 
z
" style="fill:#0cba97;fill-opacity:0.8;"/>
   </g>
   <g id="Poly3DCollection_30">
    <path clip-path="url(#pad25d0d04b)" d="M 553.762245 195.219637 
L 553.84737 198.395852 
L 576.51925 203.680734 
L 576.462413 200.493402 
z
" style="fill:#0cba97;fill-opacity:0.8;"/>
    <path clip-path="url(#pad25d0d04b)" d="M 539.72325 204.391743 
L 539.827068 207.587244 
L 553.84737 198.395852 
L 553.762245 195.219637 
z
" style="fill:#065d4c;fill-opacity:0.8;"/>
    <path clip-path="url(#pad25d0d04b)" d="M 539.827068 207.587244 
L 562.641831 212.975942 
L 576.51925 203.680734 
L 553.84737 198.395852 
z
" style="fill:#0aa384;fill-opacity:0.8;"/>
    <path clip-path="url(#pad25d0d04b)" d="M 539.72325 204.391743 
L 553.762245 195.219637 
L 576.462413 200.493402 
L 562.566656 209.769239 
z
" style="fill:#08745e;fill-opacity:0.8;"/>
    <path clip-path="url(#pad25d0d04b)" d="M 562.566656 209.769239 
L 576.462413 200.493402 
L 576.51925 203.680734 
L 562.641831 212.975942 
z
" style="fill:#0cba97;fill-opacity:0.8;"/>
    <path clip-path="url(#pad25d0d04b)" d="M 539.72325 204.391743 
L 562.566656 209.769239 
L 562.641831 212.975942 
L 539.827068 207.587244 
z
" style="fill:#065d4c;fill-opacity:0.8;"/>
   </g>
   <g id="Poly3DCollection_31">
    <path clip-path="url(#pad25d0d04b)" d="M 672.217093 198.038499 
L 672.206841 198.545551 
L 695.637357 203.852866 
L 695.652413 203.344035 
z
" style="fill:#0cba97;fill-opacity:0.8;"/>
    <path clip-path="url(#pad25d0d04b)" d="M 659.295089 207.265976 
L 659.287365 207.776114 
L 672.206841 198.545551 
L 672.217093 198.038499 
z
" style="fill:#065d4c;fill-opacity:0.8;"/>
    <path clip-path="url(#pad25d0d04b)" d="M 659.287365 207.776114 
L 682.875076 213.188117 
L 695.637357 203.852866 
L 672.206841 198.545551 
z
" style="fill:#0aa384;fill-opacity:0.8;"/>
    <path clip-path="url(#pad25d0d04b)" d="M 659.295089 207.265976 
L 672.217093 198.038499 
L 695.652413 203.344035 
L 682.887669 212.676187 
z
" style="fill:#08745e;fill-opacity:0.8;"/>
    <path clip-path="url(#pad25d0d04b)" d="M 682.887669 212.676187 
L 695.652413 203.344035 
L 695.637357 203.852866 
L 682.875076 213.188117 
z
" style="fill:#0cba97;fill-opacity:0.8;"/>
    <path clip-path="url(#pad25d0d04b)" d="M 659.295089 207.265976 
L 682.887669 212.676187 
L 682.875076 213.188117 
L 659.287365 207.776114 
z
" style="fill:#065d4c;fill-opacity:0.8;"/>
   </g>
   <g id="Poly3DCollection_32">
    <path clip-path="url(#pad25d0d04b)" d="M 599.418772 205.826687 
L 599.441185 208.395951 
L 622.634322 213.79878 
L 622.635683 211.220503 
z
" style="fill:#0cba97;fill-opacity:0.8;"/>
    <path clip-path="url(#pad25d0d04b)" d="M 585.670414 215.208024 
L 585.707261 217.792923 
L 599.441185 208.395951 
L 599.418772 205.826687 
z
" style="fill:#065d4c;fill-opacity:0.8;"/>
    <path clip-path="url(#pad25d0d04b)" d="M 585.707261 217.792923 
L 609.051762 223.30313 
L 622.634322 213.79878 
L 599.441185 208.395951 
z
" style="fill:#0aa384;fill-opacity:0.8;"/>
    <path clip-path="url(#pad25d0d04b)" d="M 585.670414 215.208024 
L 599.418772 205.826687 
L 622.635683 211.220503 
L 609.039 220.709151 
z
" style="fill:#08745e;fill-opacity:0.8;"/>
    <path clip-path="url(#pad25d0d04b)" d="M 609.039 220.709151 
L 622.635683 211.220503 
L 622.634322 213.79878 
L 609.051762 223.30313 
z
" style="fill:#0cba97;fill-opacity:0.8;"/>
    <path clip-path="url(#pad25d0d04b)" d="M 585.670414 215.208024 
L 609.039 220.709151 
L 609.051762 223.30313 
L 585.707261 217.792923 
z
" style="fill:#065d4c;fill-opacity:0.8;"/>
   </g>
   <g id="Poly3DCollection_33">
    <path clip-path="url(#pad25d0d04b)" d="M 646.117607 216.675888 
L 646.124995 215.931459 
L 669.883654 221.446852 
L 669.869107 222.193901 
z
" style="fill:#065d4c;fill-opacity:0.8;"/>
    <path clip-path="url(#pad25d0d04b)" d="M 632.676994 226.273698 
L 632.680413 225.524723 
L 646.124995 215.931459 
L 646.117607 216.675888 
z
" style="fill:#0cba97;fill-opacity:0.8;"/>
    <path clip-path="url(#pad25d0d04b)" d="M 632.676994 226.273698 
L 646.117607 216.675888 
L 669.869107 222.193901 
L 656.589082 231.902769 
z
" style="fill:#08745e;fill-opacity:0.8;"/>
    <path clip-path="url(#pad25d0d04b)" d="M 632.680413 225.524723 
L 656.599756 231.151153 
L 669.883654 221.446852 
L 646.124995 215.931459 
z
" style="fill:#0aa384;fill-opacity:0.8;"/>
    <path clip-path="url(#pad25d0d04b)" d="M 656.589082 231.902769 
L 669.869107 222.193901 
L 669.883654 221.446852 
L 656.599756 231.151153 
z
" style="fill:#065d4c;fill-opacity:0.8;"/>
    <path clip-path="url(#pad25d0d04b)" d="M 632.676994 226.273698 
L 656.589082 231.902769 
L 656.599756 231.151153 
L 632.680413 225.524723 
z
" style="fill:#0cba97;fill-opacity:0.8;"/>
   </g>
   <g id="Poly3DCollection_34">
    <path clip-path="url(#pad25d0d04b)" d="M 481.949744 195.158118 
L 660.332906 237.346775 
L 756.428781 166.502011 
L 586.557801 130.068214 
z
" style="fill-opacity:0.2;"/>
   </g>
  </g>
 </g>
 <defs>
  <clipPath id="p434eb03eed">
   <rect height="277.2" width="380.454545" x="-30.6" y="-14.4"/>
  </clipPath>
  <clipPath id="pad25d0d04b">
   <rect height="277.2" width="380.454545" x="425.945455" y="-14.4"/>
  </clipPath>
 </defs>
</svg>
