<?xml version="1.0" encoding="utf-8" standalone="no"?>
<!DOCTYPE svg PUBLIC "-//W3C//DTD SVG 1.1//EN"
  "http://www.w3.org/Graphics/SVG/1.1/DTD/svg11.dtd">
<!-- Created with matplotlib (https://matplotlib.org/) -->
<svg height="302.4pt" version="1.1" viewBox="0 0 820.8 302.4" width="820.8pt" xmlns="http://www.w3.org/2000/svg" xmlns:xlink="http://www.w3.org/1999/xlink">
 <defs>
  <style type="text/css">
*{stroke-linecap:butt;stroke-linejoin:round;}
  </style>
 </defs>
 <g id="figure_1">
  <g id="patch_1">
   <path d="M 0 302.4 
L 820.8 302.4 
L 820.8 0 
L 0 0 
z
" style="fill:#ffffff;"/>
  </g>
  <g id="patch_2">
   <path d="M -30.6 262.8 
L 349.854545 262.8 
L 349.854545 -14.4 
L -30.6 -14.4 
z
" style="fill:#ffffff;"/>
  </g>
  <g id="pane3d_1">
   <g id="patch_3">
    <path d="M 19.835129 201.548569 
L 128.723211 133.58541 
L 126.910339 3.718968 
L 11.951034 64.782468 
" style="fill:#f2f2f2;opacity:0.5;stroke:#f2f2f2;stroke-linejoin:miter;"/>
   </g>
  </g>
  <g id="pane3d_2">
   <g id="patch_4">
    <path d="M 128.723211 133.58541 
L 305.111665 171.581202 
L 312.491547 37.79869 
L 126.910339 3.718968 
" style="fill:#e6e6e6;opacity:0.5;stroke:#e6e6e6;stroke-linejoin:miter;"/>
   </g>
  </g>
  <g id="pane3d_3">
   <g id="patch_5">
    <path d="M 19.835129 201.548569 
L 205.419617 245.80086 
L 305.111665 171.581202 
L 128.723211 133.58541 
" style="fill:#ececec;opacity:0.5;stroke:#ececec;stroke-linejoin:miter;"/>
   </g>
  </g>
  <g id="axis3d_1">
   <g id="line2d_1">
    <path d="M 19.835129 201.548569 
L 205.419617 245.80086 
" style="fill:none;stroke:#000000;stroke-linecap:square;stroke-width:0.8;"/>
   </g>
   <g id="Line3DCollection_1">
    <path d="M 42.295817 206.90428 
L 150.133942 138.19749 
L 149.393845 7.847789 
" style="fill:none;stroke:#b0b0b0;stroke-width:0.8;"/>
    <path d="M 87.512337 217.686079 
L 193.184014 147.470895 
L 194.636898 16.156123 
" style="fill:none;stroke:#b0b0b0;stroke-width:0.8;"/>
    <path d="M 133.765289 228.715013 
L 237.148096 156.941187 
L 240.890183 24.649974 
" style="fill:none;stroke:#b0b0b0;stroke-width:0.8;"/>
    <path d="M 181.090721 239.999678 
L 282.055608 166.614702 
L 288.187917 33.335625 
" style="fill:none;stroke:#b0b0b0;stroke-width:0.8;"/>
   </g>
   <g id="xtick_1">
    <g id="line2d_2">
     <path d="M 43.225084 206.312217 
L 40.433807 208.09062 
" style="fill:none;stroke:#000000;stroke-linecap:square;stroke-width:0.8;"/>
    </g>
    <g id="text_1">
     <!-- 00 -->
     <defs>
      <path d="M 42 31.84375 
C 42 37.96875 41.90625 48.421875 37.703125 56.453125 
C 34 63.484375 28.09375 66 22.90625 66 
C 18.09375 66 12 63.78125 8.203125 56.5625 
C 4.203125 49.015625 3.796875 39.671875 3.796875 31.84375 
C 3.796875 26.109375 3.90625 17.375 7 9.734375 
C 11.296875 -0.609375 19 -2 22.90625 -2 
C 27.5 -2 34.5 -0.109375 38.59375 9.4375 
C 41.59375 16.375 42 24.5 42 31.84375 
z
M 22.90625 -0.40625 
C 16.5 -0.40625 12.703125 5.125 11.296875 12.75 
C 10.203125 18.6875 10.203125 27.328125 10.203125 32.953125 
C 10.203125 40.6875 10.203125 47.109375 11.5 53.234375 
C 13.40625 61.78125 19 64.390625 22.90625 64.390625 
C 27 64.390625 32.296875 61.671875 34.203125 53.4375 
C 35.5 47.71875 35.59375 40.984375 35.59375 32.953125 
C 35.59375 26.421875 35.59375 18.375 34.40625 12.453125 
C 32.296875 1.5 26.40625 -0.40625 22.90625 -0.40625 
z
" id="CMR17-48"/>
     </defs>
     <g transform="translate(23.330362 237.14703)rotate(-45)scale(0.14 -0.14)">
      <use transform="scale(0.996264)" xlink:href="#CMR17-48"/>
      <use transform="translate(45.690477 0)scale(0.996264)" xlink:href="#CMR17-48"/>
     </g>
    </g>
   </g>
   <g id="xtick_2">
    <g id="line2d_3">
     <path d="M 88.423674 217.080527 
L 85.686217 218.899473 
" style="fill:none;stroke:#000000;stroke-linecap:square;stroke-width:0.8;"/>
    </g>
    <g id="text_2">
     <!-- 01 -->
     <defs>
      <path d="M 26.59375 63.796875 
C 26.59375 65.890625 26.5 66 25.09375 66 
C 21.203125 61.359375 15.296875 59.890625 9.703125 59.6875 
C 9.40625 59.6875 8.90625 59.6875 8.796875 59.5 
C 8.703125 59.296875 8.703125 59.09375 8.703125 57 
C 11.796875 57 17 57.59375 21 59.984375 
L 21 7.296875 
C 21 3.796875 20.796875 2.59375 12.203125 2.59375 
L 9.203125 2.59375 
L 9.203125 0 
C 14 0.09375 19 0.1875 23.796875 0.1875 
C 28.59375 0.1875 33.59375 0.09375 38.40625 0 
L 38.40625 2.59375 
L 35.40625 2.59375 
C 26.796875 2.59375 26.59375 3.6875 26.59375 7.296875 
z
" id="CMR17-49"/>
     </defs>
     <g transform="translate(68.542787 248.103782)rotate(-45)scale(0.14 -0.14)">
      <use transform="scale(0.996264)" xlink:href="#CMR17-48"/>
      <use transform="translate(45.690477 0)scale(0.996264)" xlink:href="#CMR17-49"/>
     </g>
    </g>
   </g>
   <g id="xtick_3">
    <g id="line2d_4">
     <path d="M 134.657625 228.095506 
L 131.977203 229.956397 
" style="fill:none;stroke:#000000;stroke-linecap:square;stroke-width:0.8;"/>
    </g>
    <g id="text_3">
     <!-- 10 -->
     <g transform="translate(114.7934 259.312128)rotate(-45)scale(0.14 -0.14)">
      <use transform="scale(0.996264)" xlink:href="#CMR17-49"/>
      <use transform="translate(45.690477 0)scale(0.996264)" xlink:href="#CMR17-48"/>
     </g>
    </g>
   </g>
   <g id="xtick_4">
    <g id="line2d_5">
     <path d="M 181.962926 239.365727 
L 179.342936 241.270032 
" style="fill:none;stroke:#000000;stroke-linecap:square;stroke-width:0.8;"/>
    </g>
    <g id="text_4">
     <!-- 11 -->
     <g transform="translate(162.118375 270.780834)rotate(-45)scale(0.14 -0.14)">
      <use transform="scale(0.996264)" xlink:href="#CMR17-49"/>
      <use transform="translate(45.690477 0)scale(0.996264)" xlink:href="#CMR17-49"/>
     </g>
    </g>
   </g>
  </g>
  <g id="axis3d_2">
   <g id="line2d_6">
    <path d="M 305.111665 171.581202 
L 205.419617 245.80086 
" style="fill:none;stroke:#000000;stroke-linecap:square;stroke-width:0.8;"/>
   </g>
   <g id="Line3DCollection_2">
    <path d="M 27.455231 56.547028 
L 34.471044 192.413474 
L 218.858418 235.795817 
" style="fill:none;stroke:#b0b0b0;stroke-width:0.8;"/>
    <path d="M 57.232024 40.730342 
L 62.623407 174.842005 
L 244.674037 216.576366 
" style="fill:none;stroke:#b0b0b0;stroke-width:0.8;"/>
    <path d="M 85.85589 25.526062 
L 89.739382 157.917404 
L 269.496985 198.095948 
" style="fill:none;stroke:#b0b0b0;stroke-width:0.8;"/>
    <path d="M 113.392516 10.899296 
L 115.875164 141.604597 
L 293.383438 180.312741 
" style="fill:none;stroke:#b0b0b0;stroke-width:0.8;"/>
   </g>
   <g id="xtick_5">
    <g id="line2d_7">
     <path d="M 217.315598 235.432825 
L 221.947489 236.522608 
" style="fill:none;stroke:#000000;stroke-linecap:square;stroke-width:0.8;"/>
    </g>
    <g id="text_5">
     <!-- 00 -->
     <g transform="translate(232.650369 248.348363)rotate(-337.5)scale(0.14 -0.14)">
      <use transform="scale(0.996264)" xlink:href="#CMR17-48"/>
      <use transform="translate(45.690477 0)scale(0.996264)" xlink:href="#CMR17-48"/>
     </g>
    </g>
   </g>
   <g id="xtick_6">
    <g id="line2d_8">
     <path d="M 243.15208 216.227463 
L 247.72127 217.274932 
" style="fill:none;stroke:#000000;stroke-linecap:square;stroke-width:0.8;"/>
    </g>
    <g id="text_6">
     <!-- 01 -->
     <g transform="translate(258.203921 228.903937)rotate(-337.5)scale(0.14 -0.14)">
      <use transform="scale(0.996264)" xlink:href="#CMR17-48"/>
      <use transform="translate(45.690477 0)scale(0.996264)" xlink:href="#CMR17-49"/>
     </g>
    </g>
   </g>
   <g id="xtick_7">
    <g id="line2d_9">
     <path d="M 267.995442 197.76033 
L 272.503283 198.767901 
" style="fill:none;stroke:#000000;stroke-linecap:square;stroke-width:0.8;"/>
    </g>
    <g id="text_7">
     <!-- 10 -->
     <g transform="translate(282.775332 210.206849)rotate(-337.5)scale(0.14 -0.14)">
      <use transform="scale(0.996264)" xlink:href="#CMR17-49"/>
      <use transform="translate(45.690477 0)scale(0.996264)" xlink:href="#CMR17-48"/>
     </g>
    </g>
   </g>
   <g id="xtick_8">
    <g id="line2d_10">
     <path d="M 291.901865 179.989663 
L 296.349691 180.959573 
" style="fill:none;stroke:#000000;stroke-linecap:square;stroke-width:0.8;"/>
    </g>
    <g id="text_8">
     <!-- 11 -->
     <g transform="translate(306.420159 192.214827)rotate(-337.5)scale(0.14 -0.14)">
      <use transform="scale(0.996264)" xlink:href="#CMR17-49"/>
      <use transform="translate(45.690477 0)scale(0.996264)" xlink:href="#CMR17-49"/>
     </g>
    </g>
   </g>
  </g>
  <g id="axis3d_3">
   <g id="line2d_11">
    <path d="M 305.111665 171.581202 
L 312.491547 37.79869 
" style="fill:none;stroke:#000000;stroke-linecap:square;stroke-width:0.8;"/>
   </g>
   <g id="text_9">
    <!-- Re[$\rho$] -->
    <defs>
     <path d="M 39.203125 33.6875 
C 48.703125 35.59375 56.703125 42.015625 56.703125 50.046875 
C 56.703125 59.46875 46.09375 68 32.09375 68 
L 5.203125 68 
L 5.203125 65.390625 
C 12.09375 65.390625 13.203125 65.390625 13.203125 60.875 
L 13.203125 6.6875 
C 13.203125 2.1875 12.09375 2.1875 5.203125 2.1875 
L 5.203125 -0.40625 
C 8.09375 -0.203125 13.296875 -0.203125 16.40625 -0.203125 
C 19.5 -0.203125 24.703125 -0.203125 27.59375 -0.40625 
L 27.59375 2.1875 
C 20.703125 2.1875 19.59375 2.1875 19.59375 6.6875 
L 19.59375 33 
L 31.296875 33 
C 37 33 40.203125 30.6875 41.59375 29.390625 
C 45.59375 25.5 45.59375 22.796875 45.59375 16 
C 45.59375 9.296875 45.59375 5.890625 48.59375 2.5 
C 52.40625 -1.609375 57.5 -2 59.703125 -2 
C 67.09375 -2 68.203125 6.296875 68.203125 8 
C 68.203125 8.59375 68.203125 9.296875 67.296875 9.296875 
C 66.5 9.296875 66.40625 8.6875 66.40625 8.296875 
C 65.90625 1.796875 63 -0.40625 59.90625 -0.40625 
C 54.40625 -0.40625 53.796875 5.890625 53.203125 12 
C 52.90625 14.09375 52.703125 15.59375 52.5 17.796875 
C 51.90625 22.796875 51.09375 30.09375 39.203125 33.6875 
z
M 31 34.59375 
L 19.59375 34.59375 
L 19.59375 61.484375 
C 19.59375 64.890625 19.796875 65.390625 23.796875 65.390625 
L 31.09375 65.390625 
C 39.40625 65.390625 49.09375 62.484375 49.09375 50.046875 
C 49.09375 37.09375 38.5 34.59375 31 34.59375 
z
" id="CMR17-82"/>
     <path d="M 38.09375 23.484375 
C 38.5 23.890625 38.5 24.09375 38.5 25.09375 
C 38.5 35.171875 33.09375 44 21.703125 44 
C 11.09375 44 2.703125 33.984375 2.703125 21.78125 
C 2.703125 8.65625 12.203125 -1 22.796875 -1 
C 34 -1 38.40625 9.671875 38.40625 11.796875 
C 38.40625 12.5 37.796875 12.5 37.59375 12.5 
C 36.90625 12.5 36.796875 12.296875 36.40625 11.078125 
C 34.203125 4.21875 28.703125 0.796875 23.5 0.796875 
C 19.203125 0.796875 14.90625 3.21875 12.203125 7.65625 
C 9.09375 12.796875 9.09375 18.75 9.09375 23.484375 
z
M 9.203125 25 
C 9.90625 39.234375 17.59375 42.390625 21.59375 42.390625 
C 28.40625 42.390625 33 36.0625 33.09375 25 
z
" id="CMR17-101"/>
     <path d="M 23.5 -25 
L 23.5 -21.5 
L 14.09375 -21.5 
L 14.09375 71.484375 
L 23.5 71.484375 
L 23.5 75 
L 10.59375 75 
L 10.59375 -25 
z
" id="CMR17-91"/>
     <path d="M 3.09375 -16.953125 
C 3 -17.4375 2.796875 -18.03125 2.796875 -18.609375 
C 2.796875 -20.109375 4 -21.109375 5.5 -21.109375 
C 7 -21.109375 8.40625 -20.109375 9 -18.71875 
C 9.40625 -17.828125 12.203125 -6.09375 15.40625 6.078125 
C 17.40625 1.09375 21.09375 -1 25 -1 
C 36.296875 -1 49.09375 12.96875 49.09375 28.03125 
C 49.09375 38.703125 42.59375 44 35.703125 44 
C 26.90625 44 16.203125 34.90625 12.90625 21.640625 
z
M 24.90625 1 
C 18.09375 1 16.40625 8.875 16.40625 10.078125 
C 16.40625 10.671875 18.90625 20.140625 19.203125 21.640625 
C 24.296875 41.5 34.09375 41.984375 35.59375 41.984375 
C 40.09375 41.984375 42.59375 37.90625 42.59375 32.015625 
C 42.59375 26.9375 39.90625 17.046875 38.203125 12.859375 
C 35.203125 5.984375 30 1 24.90625 1 
z
" id="CMMI12-26"/>
     <path d="M 14.296875 75 
L 1.40625 75 
L 1.40625 71.484375 
L 10.796875 71.484375 
L 10.796875 -21.5 
L 1.40625 -21.5 
L 1.40625 -25 
L 14.296875 -25 
z
" id="CMR17-93"/>
    </defs>
    <g transform="translate(352.486567 117.931831)rotate(-86.842577)scale(0.14 -0.14)">
     <use transform="scale(0.996264)" xlink:href="#CMR17-82"/>
     <use transform="translate(67.791102 0)scale(0.996264)" xlink:href="#CMR17-101"/>
     <use transform="translate(108.276762 0)scale(0.996264)" xlink:href="#CMR17-91"/>
     <use transform="translate(133.147821 0)scale(0.996264)" xlink:href="#CMMI12-26"/>
     <use transform="translate(183.462194 0)scale(0.996264)" xlink:href="#CMR17-93"/>
    </g>
   </g>
   <g id="Line3DCollection_3">
    <path d="M 307.377085 130.513659 
L 128.165869 93.659785 
L 17.417815 159.615215 
" style="fill:none;stroke:#b0b0b0;stroke-width:0.8;"/>
    <path d="M 309.592216 90.357774 
L 127.62162 54.672087 
L 15.051693 118.56988 
" style="fill:none;stroke:#b0b0b0;stroke-width:0.8;"/>
    <path d="M 311.877246 48.934729 
L 127.060941 14.507465 
L 12.608341 76.18484 
" style="fill:none;stroke:#b0b0b0;stroke-width:0.8;"/>
   </g>
   <g id="xtick_9">
    <g id="line2d_12">
     <path d="M 305.880893 130.205974 
L 310.37263 131.129677 
" style="fill:none;stroke:#000000;stroke-linecap:square;stroke-width:0.8;"/>
    </g>
    <g id="text_10">
     <!-- $0.1$ -->
     <defs>
      <path d="M 18.40625 4.796875 
C 18.40625 7.6875 16 9.6875 13.59375 9.6875 
C 10.703125 9.6875 8.703125 7.296875 8.703125 4.890625 
C 8.703125 2 11.09375 0 13.5 0 
C 16.40625 0 18.40625 2.390625 18.40625 4.796875 
z
" id="CMMI12-58"/>
     </defs>
     <g transform="translate(317.454656 138.312399)scale(0.14 -0.14)">
      <use transform="scale(0.996264)" xlink:href="#CMR17-48"/>
      <use transform="translate(45.690477 0)scale(0.996264)" xlink:href="#CMMI12-58"/>
      <use transform="translate(72.787654 0)scale(0.996264)" xlink:href="#CMR17-49"/>
     </g>
    </g>
   </g>
   <g id="xtick_10">
    <g id="line2d_13">
     <path d="M 308.072 90.059649 
L 312.635907 90.954663 
" style="fill:none;stroke:#000000;stroke-linecap:square;stroke-width:0.8;"/>
    </g>
    <g id="text_11">
     <!-- $0.2$ -->
     <defs>
      <path d="M 41.703125 15.46875 
L 39.90625 15.46875 
C 38.90625 8.390625 38.09375 7.1875 37.703125 6.59375 
C 37.203125 5.796875 30 5.796875 28.59375 5.796875 
L 9.40625 5.796875 
C 13 9.6875 20 16.765625 28.5 24.9375 
C 34.59375 30.71875 41.703125 37.5 41.703125 47.390625 
C 41.703125 59.1875 32.296875 66 21.796875 66 
C 10.796875 66 4.09375 56.296875 4.09375 47.296875 
C 4.09375 43.390625 7 42.890625 8.203125 42.890625 
C 9.203125 42.890625 12.203125 43.484375 12.203125 46.984375 
C 12.203125 50.09375 9.59375 51 8.203125 51 
C 7.59375 51 7 50.890625 6.59375 50.6875 
C 8.5 59.1875 14.296875 63.390625 20.40625 63.390625 
C 29.09375 63.390625 34.796875 56.5 34.796875 47.390625 
C 34.796875 38.703125 29.703125 31.21875 24 24.734375 
L 4.09375 2.296875 
L 4.09375 0 
L 39.296875 0 
z
" id="CMR17-50"/>
     </defs>
     <g transform="translate(319.956359 98.215199)scale(0.14 -0.14)">
      <use transform="scale(0.996264)" xlink:href="#CMR17-48"/>
      <use transform="translate(45.690477 0)scale(0.996264)" xlink:href="#CMMI12-58"/>
      <use transform="translate(72.787654 0)scale(0.996264)" xlink:href="#CMR17-50"/>
     </g>
    </g>
   </g>
   <g id="xtick_11">
    <g id="line2d_14">
     <path d="M 310.332225 48.646925 
L 314.970655 49.510963 
" style="fill:none;stroke:#000000;stroke-linecap:square;stroke-width:0.8;"/>
    </g>
    <g id="text_12">
     <!-- $0.3$ -->
     <defs>
      <path d="M 22.09375 34 
C 31 34 34.90625 26.140625 34.90625 17.09375 
C 34.90625 5.03125 28.5 0.390625 22.703125 0.390625 
C 17.40625 0.390625 8.796875 3.015625 6.09375 10.796875 
C 6.59375 10.59375 7.09375 10.59375 7.59375 10.59375 
C 10 10.59375 11.796875 12.1875 11.796875 14.796875 
C 11.796875 17.6875 9.59375 19 7.59375 19 
C 5.90625 19 3.296875 18.1875 3.296875 14.484375 
C 3.296875 5.234375 12.296875 -2 22.90625 -2 
C 34 -2 42.5 6.75 42.5 16.984375 
C 42.5 26.84375 34.5 34 25 35.09375 
C 32.59375 36.671875 39.90625 43.375 39.90625 52.390625 
C 39.90625 60.25 32 66 23 66 
C 13.90625 66 5.90625 60.34375 5.90625 52.296875 
C 5.90625 48.796875 8.5 48.1875 9.796875 48.1875 
C 11.90625 48.1875 13.703125 49.484375 13.703125 52.09375 
C 13.703125 54.6875 11.90625 56 9.796875 56 
C 9.40625 56 8.90625 56 8.5 55.796875 
C 11.40625 62.484375 19.296875 63.6875 22.796875 63.6875 
C 26.296875 63.6875 32.90625 61.96875 32.90625 52.296875 
C 32.90625 49.484375 32.5 44.546875 29.09375 40.21875 
C 26.09375 36.390625 22.703125 36.1875 19.40625 35.890625 
C 18.90625 35.890625 16.59375 35.6875 16.203125 35.6875 
C 15.5 35.59375 15.09375 35.5 15.09375 34.796875 
C 15.09375 34.09375 15.203125 34 17.203125 34 
z
" id="CMR17-51"/>
     </defs>
     <g transform="translate(322.536831 56.855503)scale(0.14 -0.14)">
      <use transform="scale(0.996264)" xlink:href="#CMR17-48"/>
      <use transform="translate(45.690477 0)scale(0.996264)" xlink:href="#CMMI12-58"/>
      <use transform="translate(72.787654 0)scale(0.996264)" xlink:href="#CMR17-51"/>
     </g>
    </g>
   </g>
  </g>
  <g id="axes_1">
   <g id="Poly3DCollection_1">
    <path clip-path="url(#p8c92a221b5)" d="M 133.056833 137.889577 
L 133.051747 137.476151 
L 154.438688 142.098609 
L 154.440353 142.513456 
z
" style="fill:#5d0618;fill-opacity:0.8;"/>
    <path clip-path="url(#p8c92a221b5)" d="M 120.278334 145.929206 
L 120.271134 145.513314 
L 133.051747 137.476151 
L 133.056833 137.889577 
z
" style="fill:#ba0c2f;fill-opacity:0.8;"/>
    <path clip-path="url(#p8c92a221b5)" d="M 120.278334 145.929206 
L 133.056833 137.889577 
L 154.440353 142.513456 
L 141.790119 150.637938 
z
" style="fill:#74081d;fill-opacity:0.8;"/>
    <path clip-path="url(#p8c92a221b5)" d="M 120.271134 145.513314 
L 141.786381 150.220613 
L 154.438688 142.098609 
L 133.051747 137.476151 
z
" style="fill:#a30a29;fill-opacity:0.8;"/>
    <path clip-path="url(#p8c92a221b5)" d="M 141.790119 150.637938 
L 154.440353 142.513456 
L 154.438688 142.098609 
L 141.786381 150.220613 
z
" style="fill:#5d0618;fill-opacity:0.8;"/>
    <path clip-path="url(#p8c92a221b5)" d="M 120.278334 145.929206 
L 141.790119 150.637938 
L 141.786381 150.220613 
L 120.271134 145.513314 
z
" style="fill:#ba0c2f;fill-opacity:0.8;"/>
   </g>
   <g id="Poly3DCollection_2">
    <path clip-path="url(#p8c92a221b5)" d="M 176.049125 147.186042 
L 176.068098 142.866106 
L 197.942725 147.573245 
L 197.886729 151.90811 
z
" style="fill:#5d0618;fill-opacity:0.8;"/>
    <path clip-path="url(#p8c92a221b5)" d="M 163.530594 155.396729 
L 163.528493 151.050889 
L 176.068098 142.866106 
L 176.049125 147.186042 
z
" style="fill:#ba0c2f;fill-opacity:0.8;"/>
    <path clip-path="url(#p8c92a221b5)" d="M 163.530594 155.396729 
L 176.049125 147.186042 
L 197.886729 151.90811 
L 185.503426 160.20638 
z
" style="fill:#74081d;fill-opacity:0.8;"/>
    <path clip-path="url(#p8c92a221b5)" d="M 163.528493 151.050889 
L 185.538809 155.845485 
L 197.942725 147.573245 
L 176.068098 142.866106 
z
" style="fill:#a30a29;fill-opacity:0.8;"/>
    <path clip-path="url(#p8c92a221b5)" d="M 185.503426 160.20638 
L 197.886729 151.90811 
L 197.942725 147.573245 
L 185.538809 155.845485 
z
" style="fill:#5d0618;fill-opacity:0.8;"/>
    <path clip-path="url(#p8c92a221b5)" d="M 163.530594 155.396729 
L 185.503426 160.20638 
L 185.538809 155.845485 
L 163.528493 151.050889 
z
" style="fill:#ba0c2f;fill-opacity:0.8;"/>
   </g>
   <g id="Poly3DCollection_3">
    <path clip-path="url(#p8c92a221b5)" d="M 107.264876 154.11666 
L 107.180264 150.347486 
L 128.852993 155.130381 
L 128.906043 158.912604 
z
" style="fill:#5d0618;fill-opacity:0.8;"/>
    <path clip-path="url(#p8c92a221b5)" d="M 94.009917 162.456055 
L 93.904835 158.66424 
L 107.180264 150.347486 
L 107.264876 154.11666 
z
" style="fill:#ba0c2f;fill-opacity:0.8;"/>
    <path clip-path="url(#p8c92a221b5)" d="M 94.009917 162.456055 
L 107.264876 154.11666 
L 128.906043 158.912604 
L 115.78158 167.341655 
z
" style="fill:#74081d;fill-opacity:0.8;"/>
    <path clip-path="url(#p8c92a221b5)" d="M 93.904835 158.66424 
L 115.708438 163.536681 
L 128.852993 155.130381 
L 107.180264 150.347486 
z
" style="fill:#a30a29;fill-opacity:0.8;"/>
    <path clip-path="url(#p8c92a221b5)" d="M 115.78158 167.341655 
L 128.906043 158.912604 
L 128.852993 155.130381 
L 115.708438 163.536681 
z
" style="fill:#5d0618;fill-opacity:0.8;"/>
    <path clip-path="url(#p8c92a221b5)" d="M 94.009917 162.456055 
L 115.78158 167.341655 
L 115.708438 163.536681 
L 93.904835 158.66424 
z
" style="fill:#ba0c2f;fill-opacity:0.8;"/>
   </g>
   <g id="Poly3DCollection_4">
    <path clip-path="url(#p8c92a221b5)" d="M 219.956817 156.680449 
L 220.075977 151.155092 
L 242.431343 155.959346 
L 242.263123 161.503867 
z
" style="fill:#5d0618;fill-opacity:0.8;"/>
    <path clip-path="url(#p8c92a221b5)" d="M 207.712359 165.067712 
L 207.805946 159.509104 
L 220.075977 151.155092 
L 219.956817 156.680449 
z
" style="fill:#ba0c2f;fill-opacity:0.8;"/>
    <path clip-path="url(#p8c92a221b5)" d="M 207.712359 165.067712 
L 219.956817 156.680449 
L 242.263123 161.503867 
L 230.16122 169.981561 
z
" style="fill:#74081d;fill-opacity:0.8;"/>
    <path clip-path="url(#p8c92a221b5)" d="M 207.805946 159.509104 
L 230.304501 164.403629 
L 242.431343 155.959346 
L 220.075977 151.155092 
z
" style="fill:#a30a29;fill-opacity:0.8;"/>
    <path clip-path="url(#p8c92a221b5)" d="M 230.16122 169.981561 
L 242.263123 161.503867 
L 242.431343 155.959346 
L 230.304501 164.403629 
z
" style="fill:#5d0618;fill-opacity:0.8;"/>
    <path clip-path="url(#p8c92a221b5)" d="M 207.712359 165.067712 
L 230.16122 169.981561 
L 230.304501 164.403629 
L 207.805946 159.509104 
z
" style="fill:#ba0c2f;fill-opacity:0.8;"/>
   </g>
   <g id="Poly3DCollection_5">
    <path clip-path="url(#p8c92a221b5)" d="M 150.779414 163.760006 
L 150.768733 161.811582 
L 172.894979 166.70452 
L 172.888746 168.659701 
z
" style="fill:#5d0618;fill-opacity:0.8;"/>
    <path clip-path="url(#p8c92a221b5)" d="M 137.789038 172.280168 
L 137.768246 170.320021 
L 150.768733 161.811582 
L 150.779414 163.760006 
z
" style="fill:#ba0c2f;fill-opacity:0.8;"/>
    <path clip-path="url(#p8c92a221b5)" d="M 137.789038 172.280168 
L 150.779414 163.760006 
L 172.888746 168.659701 
L 160.036142 177.272458 
z
" style="fill:#74081d;fill-opacity:0.8;"/>
    <path clip-path="url(#p8c92a221b5)" d="M 137.768246 170.320021 
L 160.032475 175.305499 
L 172.894979 166.70452 
L 150.768733 161.811582 
z
" style="fill:#a30a29;fill-opacity:0.8;"/>
    <path clip-path="url(#p8c92a221b5)" d="M 160.036142 177.272458 
L 172.888746 168.659701 
L 172.894979 166.70452 
L 160.032475 175.305499 
z
" style="fill:#5d0618;fill-opacity:0.8;"/>
    <path clip-path="url(#p8c92a221b5)" d="M 137.789038 172.280168 
L 160.036142 177.272458 
L 160.032475 175.305499 
L 137.768246 170.320021 
z
" style="fill:#ba0c2f;fill-opacity:0.8;"/>
   </g>
   <g id="Poly3DCollection_6">
    <path clip-path="url(#p8c92a221b5)" d="M 80.506673 170.951659 
L 80.207883 161.927997 
L 102.187611 166.874305 
L 102.409939 175.929454 
z
" style="fill:#5d0618;fill-opacity:0.8;"/>
    <path clip-path="url(#p8c92a221b5)" d="M 66.748101 179.607904 
L 66.397226 170.529609 
L 80.207883 161.927997 
L 80.506673 170.951659 
z
" style="fill:#ba0c2f;fill-opacity:0.8;"/>
    <path clip-path="url(#p8c92a221b5)" d="M 66.748101 179.607904 
L 80.506673 170.951659 
L 102.409939 175.929454 
L 88.784071 184.680527 
z
" style="fill:#74081d;fill-opacity:0.8;"/>
    <path clip-path="url(#p8c92a221b5)" d="M 66.397226 170.529609 
L 88.510578 175.570486 
L 102.187611 166.874305 
L 80.207883 161.927997 
z
" style="fill:#a30a29;fill-opacity:0.8;"/>
    <path clip-path="url(#p8c92a221b5)" d="M 88.784071 184.680527 
L 102.409939 175.929454 
L 102.187611 166.874305 
L 88.510578 175.570486 
z
" style="fill:#5d0618;fill-opacity:0.8;"/>
    <path clip-path="url(#p8c92a221b5)" d="M 66.748101 179.607904 
L 88.784071 184.680527 
L 88.510578 175.570486 
L 66.397226 170.529609 
z
" style="fill:#ba0c2f;fill-opacity:0.8;"/>
   </g>
   <g id="Poly3DCollection_7">
    <path clip-path="url(#p8c92a221b5)" d="M 240.671315 183.681135 
L 240.840121 178.049935 
L 263.985107 183.147824 
L 263.763728 188.798692 
z
" style="fill:#5d0618;fill-opacity:0.8;"/>
    <path clip-path="url(#p8c92a221b5)" d="M 228.255124 192.58092 
L 228.397673 186.915595 
L 240.840121 178.049935 
L 240.671315 183.681135 
z
" style="fill:#ba0c2f;fill-opacity:0.8;"/>
    <path clip-path="url(#p8c92a221b5)" d="M 228.255124 192.58092 
L 240.671315 183.681135 
L 263.763728 188.798692 
L 251.501049 197.797347 
z
" style="fill:#74081d;fill-opacity:0.8;"/>
    <path clip-path="url(#p8c92a221b5)" d="M 228.397673 186.915595 
L 251.69688 192.112197 
L 263.985107 183.147824 
L 240.840121 178.049935 
z
" style="fill:#a30a29;fill-opacity:0.8;"/>
    <path clip-path="url(#p8c92a221b5)" d="M 251.501049 197.797347 
L 263.763728 188.798692 
L 263.985107 183.147824 
L 251.69688 192.112197 
z
" style="fill:#5d0618;fill-opacity:0.8;"/>
    <path clip-path="url(#p8c92a221b5)" d="M 228.255124 192.58092 
L 251.501049 197.797347 
L 251.69688 192.112197 
L 228.397673 186.915595 
z
" style="fill:#ba0c2f;fill-opacity:0.8;"/>
   </g>
   <g id="Poly3DCollection_8">
    <path clip-path="url(#p8c92a221b5)" d="M 169.572417 191.192977 
L 169.576196 189.207244 
L 192.479492 194.401258 
L 192.457591 196.393923 
z
" style="fill:#5d0618;fill-opacity:0.8;"/>
    <path clip-path="url(#p8c92a221b5)" d="M 156.367589 200.238079 
L 156.360917 198.240321 
L 169.576196 189.207244 
L 169.572417 191.192977 
z
" style="fill:#ba0c2f;fill-opacity:0.8;"/>
    <path clip-path="url(#p8c92a221b5)" d="M 156.367589 200.238079 
L 169.572417 191.192977 
L 192.457591 196.393923 
L 179.401097 205.540333 
z
" style="fill:#74081d;fill-opacity:0.8;"/>
    <path clip-path="url(#p8c92a221b5)" d="M 156.360917 198.240321 
L 179.412783 203.53559 
L 192.479492 194.401258 
L 169.576196 189.207244 
z
" style="fill:#a30a29;fill-opacity:0.8;"/>
    <path clip-path="url(#p8c92a221b5)" d="M 179.401097 205.540333 
L 192.457591 196.393923 
L 192.479492 194.401258 
L 179.412783 203.53559 
z
" style="fill:#5d0618;fill-opacity:0.8;"/>
    <path clip-path="url(#p8c92a221b5)" d="M 156.367589 200.238079 
L 179.401097 205.540333 
L 179.412783 203.53559 
L 156.360917 198.240321 
z
" style="fill:#ba0c2f;fill-opacity:0.8;"/>
   </g>
   <g id="Poly3DCollection_9">
    <path clip-path="url(#p8c92a221b5)" d="M 252.853917 174.948785 
L 264.809459 166.379188 
L 287.599721 171.307254 
L 275.794445 179.970256 
z
" style="fill:#74081d;fill-opacity:0.8;"/>
    <path clip-path="url(#p8c92a221b5)" d="M 264.809459 166.379188 
L 267.708108 92.512937 
L 291.178522 97.173371 
L 287.599721 171.307254 
z
" style="fill:#5d0618;fill-opacity:0.8;"/>
    <path clip-path="url(#p8c92a221b5)" d="M 252.853917 174.948785 
L 255.430868 100.618076 
L 267.708108 92.512937 
L 264.809459 166.379188 
z
" style="fill:#ba0c2f;fill-opacity:0.8;"/>
    <path clip-path="url(#p8c92a221b5)" d="M 275.794445 179.970256 
L 287.599721 171.307254 
L 291.178522 97.173371 
L 279.060783 105.369447 
z
" style="fill:#5d0618;fill-opacity:0.8;"/>
    <path clip-path="url(#p8c92a221b5)" d="M 252.853917 174.948785 
L 275.794445 179.970256 
L 279.060783 105.369447 
L 255.430868 100.618076 
z
" style="fill:#ba0c2f;fill-opacity:0.8;"/>
    <path clip-path="url(#p8c92a221b5)" d="M 255.430868 100.618076 
L 279.060783 105.369447 
L 291.178522 97.173371 
L 267.708108 92.512937 
z
" style="fill:#a30a29;fill-opacity:0.8;"/>
   </g>
   <g id="Poly3DCollection_10">
    <path clip-path="url(#p8c92a221b5)" d="M 97.313481 198.827381 
L 97.066979 189.629849 
L 119.816931 194.88394 
L 119.981517 204.11377 
z
" style="fill:#5d0618;fill-opacity:0.8;"/>
    <path clip-path="url(#p8c92a221b5)" d="M 83.295719 208.021388 
L 82.995079 198.767822 
L 97.066979 189.629849 
L 97.313481 198.827381 
z
" style="fill:#ba0c2f;fill-opacity:0.8;"/>
    <path clip-path="url(#p8c92a221b5)" d="M 83.295719 208.021388 
L 97.313481 198.827381 
L 119.981517 204.11377 
L 106.10659 213.411605 
z
" style="fill:#74081d;fill-opacity:0.8;"/>
    <path clip-path="url(#p8c92a221b5)" d="M 82.995079 198.767822 
L 105.888894 204.12549 
L 119.816931 194.88394 
L 97.066979 189.629849 
z
" style="fill:#a30a29;fill-opacity:0.8;"/>
    <path clip-path="url(#p8c92a221b5)" d="M 106.10659 213.411605 
L 119.981517 204.11377 
L 119.816931 194.88394 
L 105.888894 204.12549 
z
" style="fill:#5d0618;fill-opacity:0.8;"/>
    <path clip-path="url(#p8c92a221b5)" d="M 83.295719 208.021388 
L 106.10659 213.411605 
L 105.888894 204.12549 
L 82.995079 198.767822 
z
" style="fill:#ba0c2f;fill-opacity:0.8;"/>
   </g>
   <g id="Poly3DCollection_11">
    <path clip-path="url(#p8c92a221b5)" d="M 215.59856 201.653001 
L 215.68928 197.165969 
L 239.132866 202.468442 
L 238.999635 206.971191 
z
" style="fill:#5d0618;fill-opacity:0.8;"/>
    <path clip-path="url(#p8c92a221b5)" d="M 202.694574 210.902431 
L 202.762926 206.388132 
L 215.68928 197.165969 
L 215.59856 201.653001 
z
" style="fill:#ba0c2f;fill-opacity:0.8;"/>
    <path clip-path="url(#p8c92a221b5)" d="M 202.694574 210.902431 
L 215.59856 201.653001 
L 238.999635 206.971191 
L 226.252446 216.325392 
z
" style="fill:#74081d;fill-opacity:0.8;"/>
    <path clip-path="url(#p8c92a221b5)" d="M 202.762926 206.388132 
L 226.363885 211.795256 
L 239.132866 202.468442 
L 215.68928 197.165969 
z
" style="fill:#a30a29;fill-opacity:0.8;"/>
    <path clip-path="url(#p8c92a221b5)" d="M 226.252446 216.325392 
L 238.999635 206.971191 
L 239.132866 202.468442 
L 226.363885 211.795256 
z
" style="fill:#5d0618;fill-opacity:0.8;"/>
    <path clip-path="url(#p8c92a221b5)" d="M 202.694574 210.902431 
L 226.252446 216.325392 
L 226.363885 211.795256 
L 202.762926 206.388132 
z
" style="fill:#ba0c2f;fill-opacity:0.8;"/>
   </g>
   <g id="Poly3DCollection_12">
    <path clip-path="url(#p8c92a221b5)" d="M 111.063262 189.80914 
L 124.552672 180.96167 
L 146.938819 186.049205 
L 133.589721 194.994672 
z
" style="fill:#74081d;fill-opacity:0.8;"/>
    <path clip-path="url(#p8c92a221b5)" d="M 124.552672 180.96167 
L 123.373279 106.625943 
L 146.412976 111.442887 
L 146.938819 186.049205 
z
" style="fill:#5d0618;fill-opacity:0.8;"/>
    <path clip-path="url(#p8c92a221b5)" d="M 111.063262 189.80914 
L 109.472771 115.003839 
L 123.373279 106.625943 
L 124.552672 180.96167 
z
" style="fill:#ba0c2f;fill-opacity:0.8;"/>
    <path clip-path="url(#p8c92a221b5)" d="M 133.589721 194.994672 
L 146.938819 186.049205 
L 146.412976 111.442887 
L 132.661078 119.916337 
z
" style="fill:#5d0618;fill-opacity:0.8;"/>
    <path clip-path="url(#p8c92a221b5)" d="M 111.063262 189.80914 
L 133.589721 194.994672 
L 132.661078 119.916337 
L 109.472771 115.003839 
z
" style="fill:#ba0c2f;fill-opacity:0.8;"/>
    <path clip-path="url(#p8c92a221b5)" d="M 109.472771 115.003839 
L 132.661078 119.916337 
L 146.412976 111.442887 
L 123.373279 106.625943 
z
" style="fill:#a30a29;fill-opacity:0.8;"/>
   </g>
   <g id="Poly3DCollection_13">
    <path clip-path="url(#p8c92a221b5)" d="M 142.905011 209.459734 
L 142.870856 205.544555 
L 166.090378 210.93738 
L 166.088304 214.866286 
z
" style="fill:#5d0618;fill-opacity:0.8;"/>
    <path clip-path="url(#p8c92a221b5)" d="M 129.177062 218.863165 
L 129.120913 214.924172 
L 142.870856 205.544555 
L 142.905011 209.459734 
z
" style="fill:#ba0c2f;fill-opacity:0.8;"/>
    <path clip-path="url(#p8c92a221b5)" d="M 129.177062 218.863165 
L 142.905011 209.459734 
L 166.088304 214.866286 
L 152.511591 224.377123 
z
" style="fill:#74081d;fill-opacity:0.8;"/>
    <path clip-path="url(#p8c92a221b5)" d="M 129.120913 214.924172 
L 152.492144 220.4243 
L 166.090378 210.93738 
L 142.870856 205.544555 
z
" style="fill:#a30a29;fill-opacity:0.8;"/>
    <path clip-path="url(#p8c92a221b5)" d="M 152.511591 224.377123 
L 166.088304 214.866286 
L 166.090378 210.93738 
L 152.492144 220.4243 
z
" style="fill:#5d0618;fill-opacity:0.8;"/>
    <path clip-path="url(#p8c92a221b5)" d="M 129.177062 218.863165 
L 152.511591 224.377123 
L 152.492144 220.4243 
L 129.120913 214.924172 
z
" style="fill:#ba0c2f;fill-opacity:0.8;"/>
   </g>
   <g id="Poly3DCollection_14">
    <path clip-path="url(#p8c92a221b5)" d="M 182.526828 182.319408 
L 195.237877 173.612537 
L 217.830731 178.619386 
L 205.265118 187.421921 
z
" style="fill:#74081d;fill-opacity:0.8;"/>
    <path clip-path="url(#p8c92a221b5)" d="M 195.237877 173.612537 
L 196.717179 50.191777 
L 220.421661 54.737276 
L 217.830731 178.619386 
z
" style="fill:#5d0618;fill-opacity:0.8;"/>
    <path clip-path="url(#p8c92a221b5)" d="M 182.526828 182.319408 
L 183.397577 58.097911 
L 196.717179 50.191777 
L 195.237877 173.612537 
z
" style="fill:#ba0c2f;fill-opacity:0.8;"/>
    <path clip-path="url(#p8c92a221b5)" d="M 205.265118 187.421921 
L 217.830731 178.619386 
L 220.421661 54.737276 
L 207.262274 62.734551 
z
" style="fill:#5d0618;fill-opacity:0.8;"/>
    <path clip-path="url(#p8c92a221b5)" d="M 182.526828 182.319408 
L 205.265118 187.421921 
L 207.262274 62.734551 
L 183.397577 58.097911 
z
" style="fill:#ba0c2f;fill-opacity:0.8;"/>
    <path clip-path="url(#p8c92a221b5)" d="M 183.397577 58.097911 
L 207.262274 62.734551 
L 220.421661 54.737276 
L 196.717179 50.191777 
z
" style="fill:#a30a29;fill-opacity:0.8;"/>
   </g>
   <g id="Poly3DCollection_15">
    <path clip-path="url(#p8c92a221b5)" d="M 189.53584 220.334462 
L 189.540183 219.896865 
L 213.260712 225.42619 
L 213.252161 225.86532 
z
" style="fill:#5d0618;fill-opacity:0.8;"/>
    <path clip-path="url(#p8c92a221b5)" d="M 176.114738 229.954554 
L 176.116748 229.514298 
L 189.540183 219.896865 
L 189.53584 220.334462 
z
" style="fill:#ba0c2f;fill-opacity:0.8;"/>
    <path clip-path="url(#p8c92a221b5)" d="M 176.114738 229.954554 
L 189.53584 220.334462 
L 213.252161 225.86532 
L 199.991168 235.596563 
z
" style="fill:#74081d;fill-opacity:0.8;"/>
    <path clip-path="url(#p8c92a221b5)" d="M 176.116748 229.514298 
L 199.997442 235.154762 
L 213.260712 225.42619 
L 189.540183 219.896865 
z
" style="fill:#a30a29;fill-opacity:0.8;"/>
    <path clip-path="url(#p8c92a221b5)" d="M 199.991168 235.596563 
L 213.252161 225.86532 
L 213.260712 225.42619 
L 199.997442 235.154762 
z
" style="fill:#5d0618;fill-opacity:0.8;"/>
    <path clip-path="url(#p8c92a221b5)" d="M 176.114738 229.954554 
L 199.991168 235.596563 
L 199.997442 235.154762 
L 176.116748 229.514298 
z
" style="fill:#ba0c2f;fill-opacity:0.8;"/>
   </g>
   <g id="Poly3DCollection_16">
    <path clip-path="url(#p8c92a221b5)" d="M 38.435447 197.42089 
L 52.72689 188.429388 
L 74.896656 193.599577 
L 60.740091 202.691485 
z
" style="fill:#74081d;fill-opacity:0.8;"/>
    <path clip-path="url(#p8c92a221b5)" d="M 52.72689 188.429388 
L 46.933544 57.750519 
L 70.222556 62.427839 
L 74.896656 193.599577 
z
" style="fill:#5d0618;fill-opacity:0.8;"/>
    <path clip-path="url(#p8c92a221b5)" d="M 38.435447 197.42089 
L 31.836896 65.886594 
L 46.933544 57.750519 
L 52.72689 188.429388 
z
" style="fill:#ba0c2f;fill-opacity:0.8;"/>
    <path clip-path="url(#p8c92a221b5)" d="M 60.740091 202.691485 
L 74.896656 193.599577 
L 70.222556 62.427839 
L 55.274545 70.659532 
z
" style="fill:#5d0618;fill-opacity:0.8;"/>
    <path clip-path="url(#p8c92a221b5)" d="M 38.435447 197.42089 
L 60.740091 202.691485 
L 55.274545 70.659532 
L 31.836896 65.886594 
z
" style="fill:#ba0c2f;fill-opacity:0.8;"/>
    <path clip-path="url(#p8c92a221b5)" d="M 31.836896 65.886594 
L 55.274545 70.659532 
L 70.222556 62.427839 
L 46.933544 57.750519 
z
" style="fill:#a30a29;fill-opacity:0.8;"/>
   </g>
  </g>
  <g id="patch_6">
   <path d="M 425.945455 262.8 
L 806.4 262.8 
L 806.4 -14.4 
L 425.945455 -14.4 
z
" style="fill:#ffffff;"/>
  </g>
  <g id="pane3d_4">
   <g id="patch_7">
    <path d="M 476.380584 201.548569 
L 585.268665 133.58541 
L 583.455794 3.718968 
L 468.496488 64.782468 
" style="fill:#f2f2f2;opacity:0.5;stroke:#f2f2f2;stroke-linejoin:miter;"/>
   </g>
  </g>
  <g id="pane3d_5">
   <g id="patch_8">
    <path d="M 585.268665 133.58541 
L 761.65712 171.581202 
L 769.037001 37.79869 
L 583.455794 3.718968 
" style="fill:#e6e6e6;opacity:0.5;stroke:#e6e6e6;stroke-linejoin:miter;"/>
   </g>
  </g>
  <g id="pane3d_6">
   <g id="patch_9">
    <path d="M 476.380584 201.548569 
L 661.965072 245.80086 
L 761.65712 171.581202 
L 585.268665 133.58541 
" style="fill:#ececec;opacity:0.5;stroke:#ececec;stroke-linejoin:miter;"/>
   </g>
  </g>
  <g id="axis3d_4">
   <g id="line2d_15">
    <path d="M 476.380584 201.548569 
L 661.965072 245.80086 
" style="fill:none;stroke:#000000;stroke-linecap:square;stroke-width:0.8;"/>
   </g>
   <g id="Line3DCollection_4">
    <path d="M 498.841271 206.90428 
L 606.679397 138.19749 
L 605.9393 7.847789 
" style="fill:none;stroke:#b0b0b0;stroke-width:0.8;"/>
    <path d="M 544.057792 217.686079 
L 649.729469 147.470895 
L 651.182353 16.156123 
" style="fill:none;stroke:#b0b0b0;stroke-width:0.8;"/>
    <path d="M 590.310744 228.715013 
L 693.693551 156.941187 
L 697.435637 24.649974 
" style="fill:none;stroke:#b0b0b0;stroke-width:0.8;"/>
    <path d="M 637.636176 239.999678 
L 738.601063 166.614702 
L 744.733372 33.335625 
" style="fill:none;stroke:#b0b0b0;stroke-width:0.8;"/>
   </g>
   <g id="xtick_12">
    <g id="line2d_16">
     <path d="M 499.770538 206.312217 
L 496.979262 208.09062 
" style="fill:none;stroke:#000000;stroke-linecap:square;stroke-width:0.8;"/>
    </g>
    <g id="text_13">
     <!-- 00 -->
     <g transform="translate(479.875817 237.14703)rotate(-45)scale(0.14 -0.14)">
      <use transform="scale(0.996264)" xlink:href="#CMR17-48"/>
      <use transform="translate(45.690477 0)scale(0.996264)" xlink:href="#CMR17-48"/>
     </g>
    </g>
   </g>
   <g id="xtick_13">
    <g id="line2d_17">
     <path d="M 544.969128 217.080527 
L 542.231671 218.899473 
" style="fill:none;stroke:#000000;stroke-linecap:square;stroke-width:0.8;"/>
    </g>
    <g id="text_14">
     <!-- 01 -->
     <g transform="translate(525.088242 248.103782)rotate(-45)scale(0.14 -0.14)">
      <use transform="scale(0.996264)" xlink:href="#CMR17-48"/>
      <use transform="translate(45.690477 0)scale(0.996264)" xlink:href="#CMR17-49"/>
     </g>
    </g>
   </g>
   <g id="xtick_14">
    <g id="line2d_18">
     <path d="M 591.20308 228.095506 
L 588.522658 229.956397 
" style="fill:none;stroke:#000000;stroke-linecap:square;stroke-width:0.8;"/>
    </g>
    <g id="text_15">
     <!-- 10 -->
     <g transform="translate(571.338855 259.312128)rotate(-45)scale(0.14 -0.14)">
      <use transform="scale(0.996264)" xlink:href="#CMR17-49"/>
      <use transform="translate(45.690477 0)scale(0.996264)" xlink:href="#CMR17-48"/>
     </g>
    </g>
   </g>
   <g id="xtick_15">
    <g id="line2d_19">
     <path d="M 638.50838 239.365727 
L 635.888391 241.270032 
" style="fill:none;stroke:#000000;stroke-linecap:square;stroke-width:0.8;"/>
    </g>
    <g id="text_16">
     <!-- 11 -->
     <g transform="translate(618.66383 270.780834)rotate(-45)scale(0.14 -0.14)">
      <use transform="scale(0.996264)" xlink:href="#CMR17-49"/>
      <use transform="translate(45.690477 0)scale(0.996264)" xlink:href="#CMR17-49"/>
     </g>
    </g>
   </g>
  </g>
  <g id="axis3d_5">
   <g id="line2d_20">
    <path d="M 761.65712 171.581202 
L 661.965072 245.80086 
" style="fill:none;stroke:#000000;stroke-linecap:square;stroke-width:0.8;"/>
   </g>
   <g id="Line3DCollection_5">
    <path d="M 484.000685 56.547028 
L 491.016499 192.413474 
L 675.403872 235.795817 
" style="fill:none;stroke:#b0b0b0;stroke-width:0.8;"/>
    <path d="M 513.777478 40.730342 
L 519.168861 174.842005 
L 701.219492 216.576366 
" style="fill:none;stroke:#b0b0b0;stroke-width:0.8;"/>
    <path d="M 542.401344 25.526062 
L 546.284836 157.917404 
L 726.04244 198.095948 
" style="fill:none;stroke:#b0b0b0;stroke-width:0.8;"/>
    <path d="M 569.937971 10.899296 
L 572.420618 141.604597 
L 749.928893 180.312741 
" style="fill:none;stroke:#b0b0b0;stroke-width:0.8;"/>
   </g>
   <g id="xtick_16">
    <g id="line2d_21">
     <path d="M 673.861052 235.432825 
L 678.492943 236.522608 
" style="fill:none;stroke:#000000;stroke-linecap:square;stroke-width:0.8;"/>
    </g>
    <g id="text_17">
     <!-- 00 -->
     <g transform="translate(689.195824 248.348363)rotate(-337.5)scale(0.14 -0.14)">
      <use transform="scale(0.996264)" xlink:href="#CMR17-48"/>
      <use transform="translate(45.690477 0)scale(0.996264)" xlink:href="#CMR17-48"/>
     </g>
    </g>
   </g>
   <g id="xtick_17">
    <g id="line2d_22">
     <path d="M 699.697534 216.227463 
L 704.266725 217.274932 
" style="fill:none;stroke:#000000;stroke-linecap:square;stroke-width:0.8;"/>
    </g>
    <g id="text_18">
     <!-- 01 -->
     <g transform="translate(714.749375 228.903937)rotate(-337.5)scale(0.14 -0.14)">
      <use transform="scale(0.996264)" xlink:href="#CMR17-48"/>
      <use transform="translate(45.690477 0)scale(0.996264)" xlink:href="#CMR17-49"/>
     </g>
    </g>
   </g>
   <g id="xtick_18">
    <g id="line2d_23">
     <path d="M 724.540896 197.76033 
L 729.048738 198.767901 
" style="fill:none;stroke:#000000;stroke-linecap:square;stroke-width:0.8;"/>
    </g>
    <g id="text_19">
     <!-- 10 -->
     <g transform="translate(739.320787 210.206849)rotate(-337.5)scale(0.14 -0.14)">
      <use transform="scale(0.996264)" xlink:href="#CMR17-49"/>
      <use transform="translate(45.690477 0)scale(0.996264)" xlink:href="#CMR17-48"/>
     </g>
    </g>
   </g>
   <g id="xtick_19">
    <g id="line2d_24">
     <path d="M 748.44732 179.989663 
L 752.895146 180.959573 
" style="fill:none;stroke:#000000;stroke-linecap:square;stroke-width:0.8;"/>
    </g>
    <g id="text_20">
     <!-- 11 -->
     <g transform="translate(762.965613 192.214827)rotate(-337.5)scale(0.14 -0.14)">
      <use transform="scale(0.996264)" xlink:href="#CMR17-49"/>
      <use transform="translate(45.690477 0)scale(0.996264)" xlink:href="#CMR17-49"/>
     </g>
    </g>
   </g>
  </g>
  <g id="axis3d_6">
   <g id="line2d_25">
    <path d="M 761.65712 171.581202 
L 769.037001 37.79869 
" style="fill:none;stroke:#000000;stroke-linecap:square;stroke-width:0.8;"/>
   </g>
   <g id="text_21">
    <!-- Im[$\rho$] -->
    <defs>
     <path d="M 19.703125 60.90625 
C 19.703125 65.390625 20.90625 65.390625 28.09375 65.390625 
L 28.09375 68 
C 24.90625 67.796875 19.796875 67.796875 16.40625 67.796875 
C 13 67.796875 7.90625 67.796875 4.703125 68 
L 4.703125 65.390625 
C 11.90625 65.390625 13.09375 65.390625 13.09375 60.90625 
L 13.09375 7.078125 
C 13.09375 2.59375 11.90625 2.59375 4.703125 2.59375 
L 4.703125 0 
C 7.90625 0.1875 13 0.1875 16.40625 0.1875 
C 19.796875 0.1875 24.90625 0.1875 28.09375 0 
L 28.09375 2.59375 
C 20.90625 2.59375 19.703125 2.59375 19.703125 7.078125 
z
" id="CMR17-73"/>
     <path d="M 67.59375 30.53125 
C 67.59375 35.5625 66.703125 44 54.796875 44 
C 48 44 43.296875 39.375 41.5 33.953125 
L 41.40625 33.953125 
C 40.203125 42.1875 34.296875 44 28.703125 44 
C 20.796875 44 16.703125 37.875 15.203125 33.84375 
L 15.09375 33.84375 
L 15.09375 44 
L 3.296875 42.890625 
L 3.296875 40.28125 
C 9.203125 40.28125 10.09375 39.6875 10.09375 34.859375 
L 10.09375 6.921875 
C 10.09375 3.09375 9.703125 2.59375 3.296875 2.59375 
L 3.296875 0 
C 5.703125 0.1875 10.09375 0.1875 12.703125 0.1875 
C 15.296875 0.1875 19.796875 0.1875 22.203125 0 
L 22.203125 2.59375 
C 15.796875 2.59375 15.40625 3 15.40625 6.921875 
L 15.40625 26.21875 
C 15.40625 35.453125 21 42.390625 28 42.390625 
C 35.40625 42.390625 36.203125 35.765625 36.203125 30.9375 
L 36.203125 6.921875 
C 36.203125 3.09375 35.796875 2.59375 29.40625 2.59375 
L 29.40625 0 
C 31.796875 0.1875 36.203125 0.1875 38.796875 0.1875 
C 41.40625 0.1875 45.90625 0.1875 48.296875 0 
L 48.296875 2.59375 
C 41.90625 2.59375 41.5 3 41.5 6.921875 
L 41.5 26.21875 
C 41.5 35.453125 47.09375 42.390625 54.09375 42.390625 
C 61.5 42.390625 62.296875 35.765625 62.296875 30.9375 
L 62.296875 6.921875 
C 62.296875 3.09375 61.90625 2.59375 55.5 2.59375 
L 55.5 0 
C 57.90625 0.1875 62.296875 0.1875 64.90625 0.1875 
C 67.5 0.1875 72 0.1875 74.40625 0 
L 74.40625 2.59375 
C 68 2.59375 67.59375 3 67.59375 6.921875 
z
" id="CMR17-109"/>
    </defs>
    <g transform="translate(809.026865 118.025317)rotate(-86.842577)scale(0.14 -0.14)">
     <use transform="scale(0.996264)" xlink:href="#CMR17-73"/>
     <use transform="translate(32.638409 0)scale(0.996264)" xlink:href="#CMR17-109"/>
     <use transform="translate(109.557999 0)scale(0.996264)" xlink:href="#CMR17-91"/>
     <use transform="translate(134.429058 0)scale(0.996264)" xlink:href="#CMMI12-26"/>
     <use transform="translate(184.74343 0)scale(0.996264)" xlink:href="#CMR17-93"/>
    </g>
   </g>
   <g id="Line3DCollection_6">
    <path d="M 762.265795 160.547141 
L 585.118845 122.852911 
L 475.731349 190.286233 
" style="fill:none;stroke:#b0b0b0;stroke-width:0.8;"/>
    <path d="M 764.270456 124.206638 
L 584.625794 87.532867 
L 473.591801 153.171301 
" style="fill:none;stroke:#b0b0b0;stroke-width:0.8;"/>
    <path d="M 766.332962 86.817528 
L 584.119126 51.237276 
L 471.388427 114.949182 
" style="fill:none;stroke:#b0b0b0;stroke-width:0.8;"/>
    <path d="M 768.455852 48.333761 
L 583.598267 13.925154 
L 469.118328 75.569583 
" style="fill:none;stroke:#b0b0b0;stroke-width:0.8;"/>
   </g>
   <g id="xtick_20">
    <g id="line2d_26">
     <path d="M 760.787554 160.232594 
L 765.225362 161.176893 
" style="fill:none;stroke:#000000;stroke-linecap:square;stroke-width:0.8;"/>
    </g>
    <g id="text_22">
     <!-- $0.0$ -->
     <g transform="translate(772.128921 168.303747)scale(0.14 -0.14)">
      <use transform="scale(0.996264)" xlink:href="#CMR17-48"/>
      <use transform="translate(45.690477 0)scale(0.996264)" xlink:href="#CMMI12-58"/>
      <use transform="translate(72.787654 0)scale(0.996264)" xlink:href="#CMR17-48"/>
     </g>
    </g>
   </g>
   <g id="xtick_21">
    <g id="line2d_27">
     <path d="M 762.770492 123.900426 
L 767.273559 124.81971 
" style="fill:none;stroke:#000000;stroke-linecap:square;stroke-width:0.8;"/>
    </g>
    <g id="text_23">
     <!-- $0.1$ -->
     <g transform="translate(774.393047 132.014417)scale(0.14 -0.14)">
      <use transform="scale(0.996264)" xlink:href="#CMR17-48"/>
      <use transform="translate(45.690477 0)scale(0.996264)" xlink:href="#CMMI12-58"/>
      <use transform="translate(72.787654 0)scale(0.996264)" xlink:href="#CMR17-49"/>
     </g>
    </g>
   </g>
   <g id="xtick_22">
    <g id="line2d_28">
     <path d="M 764.810627 86.520267 
L 769.3809 87.412688 
" style="fill:none;stroke:#000000;stroke-linecap:square;stroke-width:0.8;"/>
    </g>
    <g id="text_24">
     <!-- $0.2$ -->
     <g transform="translate(776.722362 94.680255)scale(0.14 -0.14)">
      <use transform="scale(0.996264)" xlink:href="#CMR17-48"/>
      <use transform="translate(45.690477 0)scale(0.996264)" xlink:href="#CMMI12-58"/>
      <use transform="translate(72.787654 0)scale(0.996264)" xlink:href="#CMR17-50"/>
     </g>
    </g>
   </g>
   <g id="xtick_23">
    <g id="line2d_29">
     <path d="M 766.910471 48.04611 
L 771.549983 48.909689 
" style="fill:none;stroke:#000000;stroke-linecap:square;stroke-width:0.8;"/>
    </g>
    <g id="text_25">
     <!-- $0.3$ -->
     <g transform="translate(779.119722 56.255476)scale(0.14 -0.14)">
      <use transform="scale(0.996264)" xlink:href="#CMR17-48"/>
      <use transform="translate(45.690477 0)scale(0.996264)" xlink:href="#CMMI12-58"/>
      <use transform="translate(72.787654 0)scale(0.996264)" xlink:href="#CMR17-51"/>
     </g>
    </g>
   </g>
  </g>
  <g id="axes_2">
   <g id="Poly3DCollection_17">
    <path clip-path="url(#pf8ec8b931c)" d="M 589.495136 129.179245 
L 589.506299 130.086701 
L 610.954381 134.683642 
L 610.950726 133.773038 
z
" style="fill:#0cba97;fill-opacity:0.8;"/>
    <path clip-path="url(#pf8ec8b931c)" d="M 576.672085 137.166668 
L 576.68789 138.079587 
L 589.506299 130.086701 
L 589.495136 129.179245 
z
" style="fill:#065d4c;fill-opacity:0.8;"/>
    <path clip-path="url(#pf8ec8b931c)" d="M 576.68789 138.079587 
L 598.265012 142.761148 
L 610.954381 134.683642 
L 589.506299 130.086701 
z
" style="fill:#0aa384;fill-opacity:0.8;"/>
    <path clip-path="url(#pf8ec8b931c)" d="M 576.672085 137.166668 
L 589.495136 129.179245 
L 610.950726 133.773038 
L 598.256806 141.845052 
z
" style="fill:#08745e;fill-opacity:0.8;"/>
    <path clip-path="url(#pf8ec8b931c)" d="M 598.256806 141.845052 
L 610.950726 133.773038 
L 610.954381 134.683642 
L 598.265012 142.761148 
z
" style="fill:#0cba97;fill-opacity:0.8;"/>
    <path clip-path="url(#pf8ec8b931c)" d="M 576.672085 137.166668 
L 598.256806 141.845052 
L 598.265012 142.761148 
L 576.68789 138.079587 
z
" style="fill:#065d4c;fill-opacity:0.8;"/>
   </g>
   <g id="Poly3DCollection_18">
    <path clip-path="url(#pf8ec8b931c)" d="M 632.633099 138.415387 
L 632.627407 139.711537 
L 654.52907 144.407727 
L 654.545871 143.107066 
z
" style="fill:#0cba97;fill-opacity:0.8;"/>
    <path clip-path="url(#pf8ec8b931c)" d="M 620.071783 146.573343 
L 620.072413 147.87732 
L 632.627407 139.711537 
L 632.633099 138.415387 
z
" style="fill:#065d4c;fill-opacity:0.8;"/>
    <path clip-path="url(#pf8ec8b931c)" d="M 620.072413 147.87732 
L 642.110103 152.660871 
L 654.52907 144.407727 
L 632.627407 139.711537 
z
" style="fill:#0aa384;fill-opacity:0.8;"/>
    <path clip-path="url(#pf8ec8b931c)" d="M 620.071783 146.573343 
L 632.633099 138.415387 
L 654.545871 143.107066 
L 642.12072 151.352343 
z
" style="fill:#08745e;fill-opacity:0.8;"/>
    <path clip-path="url(#pf8ec8b931c)" d="M 642.12072 151.352343 
L 654.545871 143.107066 
L 654.52907 144.407727 
L 642.110103 152.660871 
z
" style="fill:#0cba97;fill-opacity:0.8;"/>
    <path clip-path="url(#pf8ec8b931c)" d="M 620.071783 146.573343 
L 642.12072 151.352343 
L 642.110103 152.660871 
L 620.072413 147.87732 
z
" style="fill:#065d4c;fill-opacity:0.8;"/>
   </g>
   <g id="Poly3DCollection_19">
    <path clip-path="url(#pf8ec8b931c)" d="M 563.612444 145.301461 
L 563.800939 153.698282 
L 585.445609 158.49278 
L 585.327424 150.066794 
z
" style="fill:#0cba97;fill-opacity:0.8;"/>
    <path clip-path="url(#pf8ec8b931c)" d="M 550.309604 153.587742 
L 550.543708 162.035168 
L 563.800939 153.698282 
L 563.612444 145.301461 
z
" style="fill:#065d4c;fill-opacity:0.8;"/>
    <path clip-path="url(#pf8ec8b931c)" d="M 550.543708 162.035168 
L 572.318916 166.919311 
L 585.445609 158.49278 
L 563.800939 153.698282 
z
" style="fill:#0aa384;fill-opacity:0.8;"/>
    <path clip-path="url(#pf8ec8b931c)" d="M 550.309604 153.587742 
L 563.612444 145.301461 
L 585.327424 150.066794 
L 572.155968 158.442472 
z
" style="fill:#08745e;fill-opacity:0.8;"/>
    <path clip-path="url(#pf8ec8b931c)" d="M 572.155968 158.442472 
L 585.327424 150.066794 
L 585.445609 158.49278 
L 572.318916 166.919311 
z
" style="fill:#0cba97;fill-opacity:0.8;"/>
    <path clip-path="url(#pf8ec8b931c)" d="M 550.309604 153.587742 
L 572.155968 158.442472 
L 572.318916 166.919311 
L 550.543708 162.035168 
z
" style="fill:#065d4c;fill-opacity:0.8;"/>
   </g>
   <g id="Poly3DCollection_20">
    <path clip-path="url(#pf8ec8b931c)" d="M 676.692734 147.848865 
L 676.691721 147.895821 
L 699.076028 152.688712 
L 699.077458 152.641592 
z
" style="fill:#0cba97;fill-opacity:0.8;"/>
    <path clip-path="url(#pf8ec8b931c)" d="M 664.407402 156.182874 
L 664.406607 156.230115 
L 676.691721 147.895821 
L 676.692734 147.848865 
z
" style="fill:#065d4c;fill-opacity:0.8;"/>
    <path clip-path="url(#pf8ec8b931c)" d="M 664.406607 156.230115 
L 686.934477 161.113179 
L 699.076028 152.688712 
L 676.691721 147.895821 
z
" style="fill:#0aa384;fill-opacity:0.8;"/>
    <path clip-path="url(#pf8ec8b931c)" d="M 664.407402 156.182874 
L 676.692734 147.848865 
L 699.077458 152.641592 
L 686.935695 161.065773 
z
" style="fill:#08745e;fill-opacity:0.8;"/>
    <path clip-path="url(#pf8ec8b931c)" d="M 686.935695 161.065773 
L 699.077458 152.641592 
L 699.076028 152.688712 
L 686.934477 161.113179 
z
" style="fill:#0cba97;fill-opacity:0.8;"/>
    <path clip-path="url(#pf8ec8b931c)" d="M 664.407402 156.182874 
L 686.935695 161.065773 
L 686.934477 161.113179 
L 664.406607 156.230115 
z
" style="fill:#065d4c;fill-opacity:0.8;"/>
   </g>
   <g id="Poly3DCollection_21">
    <path clip-path="url(#pf8ec8b931c)" d="M 607.27621 154.883436 
L 607.280055 155.584877 
L 629.460354 160.456115 
L 629.462598 159.75222 
z
" style="fill:#0cba97;fill-opacity:0.8;"/>
    <path clip-path="url(#pf8ec8b931c)" d="M 594.239765 163.349964 
L 594.247251 164.055664 
L 607.280055 155.584877 
L 607.27621 154.883436 
z
" style="fill:#065d4c;fill-opacity:0.8;"/>
    <path clip-path="url(#pf8ec8b931c)" d="M 594.247251 164.055664 
L 616.56621 169.01926 
L 629.460354 160.456115 
L 607.280055 155.584877 
z
" style="fill:#0aa384;fill-opacity:0.8;"/>
    <path clip-path="url(#pf8ec8b931c)" d="M 594.239765 163.349964 
L 607.27621 154.883436 
L 629.462598 159.75222 
L 616.56489 168.311084 
z
" style="fill:#08745e;fill-opacity:0.8;"/>
    <path clip-path="url(#pf8ec8b931c)" d="M 616.56489 168.311084 
L 629.462598 159.75222 
L 629.460354 160.456115 
L 616.56621 169.01926 
z
" style="fill:#0cba97;fill-opacity:0.8;"/>
    <path clip-path="url(#pf8ec8b931c)" d="M 594.239765 163.349964 
L 616.56489 168.311084 
L 616.56621 169.01926 
L 594.247251 164.055664 
z
" style="fill:#065d4c;fill-opacity:0.8;"/>
   </g>
   <g id="Poly3DCollection_22">
    <path clip-path="url(#pf8ec8b931c)" d="M 721.703896 157.486072 
L 721.703896 157.486072 
L 744.575985 162.383147 
L 744.575985 162.383147 
z
" style="fill:#065d4c;fill-opacity:0.8;"/>
    <path clip-path="url(#pf8ec8b931c)" d="M 709.709549 166.001896 
L 709.709549 166.001896 
L 721.703896 157.486072 
L 721.703896 157.486072 
z
" style="fill:#065d4c;fill-opacity:0.8;"/>
    <path clip-path="url(#pf8ec8b931c)" d="M 709.709549 166.001896 
L 721.703896 157.486072 
L 744.575985 162.383147 
L 732.733 170.992118 
z
" style="fill:#08745e;fill-opacity:0.8;"/>
    <path clip-path="url(#pf8ec8b931c)" d="M 709.709549 166.001896 
L 732.733 170.992118 
L 744.575985 162.383147 
L 721.703896 157.486072 
z
" style="fill:#0aa384;fill-opacity:0.8;"/>
    <path clip-path="url(#pf8ec8b931c)" d="M 732.733 170.992118 
L 744.575985 162.383147 
L 744.575985 162.383147 
L 732.733 170.992118 
z
" style="fill:#065d4c;fill-opacity:0.8;"/>
    <path clip-path="url(#pf8ec8b931c)" d="M 709.709549 166.001896 
L 732.733 170.992118 
L 732.733 170.992118 
L 709.709549 166.001896 
z
" style="fill:#065d4c;fill-opacity:0.8;"/>
   </g>
   <g id="Poly3DCollection_23">
    <path clip-path="url(#pf8ec8b931c)" d="M 536.756708 162.029782 
L 536.713906 160.737118 
L 558.703724 165.679244 
L 558.735574 166.976447 
z
" style="fill:#065d4c;fill-opacity:0.8;"/>
    <path clip-path="url(#pf8ec8b931c)" d="M 522.946638 170.632014 
L 522.896373 169.331475 
L 536.713906 160.737118 
L 536.756708 162.029782 
z
" style="fill:#0cba97;fill-opacity:0.8;"/>
    <path clip-path="url(#pf8ec8b931c)" d="M 522.946638 170.632014 
L 536.756708 162.029782 
L 558.735574 166.976447 
L 545.059118 175.673251 
z
" style="fill:#08745e;fill-opacity:0.8;"/>
    <path clip-path="url(#pf8ec8b931c)" d="M 522.896373 169.331475 
L 545.019937 174.368135 
L 558.703724 165.679244 
L 536.713906 160.737118 
z
" style="fill:#0aa384;fill-opacity:0.8;"/>
    <path clip-path="url(#pf8ec8b931c)" d="M 545.059118 175.673251 
L 558.735574 166.976447 
L 558.703724 165.679244 
L 545.019937 174.368135 
z
" style="fill:#065d4c;fill-opacity:0.8;"/>
    <path clip-path="url(#pf8ec8b931c)" d="M 522.946638 170.632014 
L 545.059118 175.673251 
L 545.019937 174.368135 
L 522.896373 169.331475 
z
" style="fill:#0cba97;fill-opacity:0.8;"/>
   </g>
   <g id="Poly3DCollection_24">
    <path clip-path="url(#pf8ec8b931c)" d="M 651.890468 164.673996 
L 651.890468 164.673996 
L 674.563783 169.649636 
L 674.563783 169.649636 
z
" style="fill:#065d4c;fill-opacity:0.8;"/>
    <path clip-path="url(#pf8ec8b931c)" d="M 639.135318 173.326717 
L 639.135318 173.326717 
L 651.890468 164.673996 
L 651.890468 164.673996 
z
" style="fill:#065d4c;fill-opacity:0.8;"/>
    <path clip-path="url(#pf8ec8b931c)" d="M 639.135318 173.326717 
L 651.890468 164.673996 
L 674.563783 169.649636 
L 661.955115 178.397764 
z
" style="fill:#08745e;fill-opacity:0.8;"/>
    <path clip-path="url(#pf8ec8b931c)" d="M 639.135318 173.326717 
L 661.955115 178.397764 
L 674.563783 169.649636 
L 651.890468 164.673996 
z
" style="fill:#0aa384;fill-opacity:0.8;"/>
    <path clip-path="url(#pf8ec8b931c)" d="M 661.955115 178.397764 
L 674.563783 169.649636 
L 674.563783 169.649636 
L 661.955115 178.397764 
z
" style="fill:#065d4c;fill-opacity:0.8;"/>
    <path clip-path="url(#pf8ec8b931c)" d="M 639.135318 173.326717 
L 661.955115 178.397764 
L 661.955115 178.397764 
L 639.135318 173.326717 
z
" style="fill:#065d4c;fill-opacity:0.8;"/>
   </g>
   <g id="Poly3DCollection_25">
    <path clip-path="url(#pf8ec8b931c)" d="M 580.955584 171.977385 
L 580.955584 171.977385 
L 603.420729 177.033494 
L 603.420729 177.033494 
z
" style="fill:#065d4c;fill-opacity:0.8;"/>
    <path clip-path="url(#pf8ec8b931c)" d="M 567.416535 180.770329 
L 567.416535 180.770329 
L 580.955584 171.977385 
L 580.955584 171.977385 
z
" style="fill:#065d4c;fill-opacity:0.8;"/>
    <path clip-path="url(#pf8ec8b931c)" d="M 567.416535 180.770329 
L 580.955584 171.977385 
L 603.420729 177.033494 
L 590.022983 185.924182 
z
" style="fill:#08745e;fill-opacity:0.8;"/>
    <path clip-path="url(#pf8ec8b931c)" d="M 567.416535 180.770329 
L 590.022983 185.924182 
L 603.420729 177.033494 
L 580.955584 171.977385 
z
" style="fill:#0aa384;fill-opacity:0.8;"/>
    <path clip-path="url(#pf8ec8b931c)" d="M 590.022983 185.924182 
L 603.420729 177.033494 
L 603.420729 177.033494 
L 590.022983 185.924182 
z
" style="fill:#065d4c;fill-opacity:0.8;"/>
    <path clip-path="url(#pf8ec8b931c)" d="M 567.416535 180.770329 
L 590.022983 185.924182 
L 590.022983 185.924182 
L 567.416535 180.770329 
z
" style="fill:#065d4c;fill-opacity:0.8;"/>
   </g>
   <g id="Poly3DCollection_26">
    <path clip-path="url(#pf8ec8b931c)" d="M 697.486595 174.680027 
L 697.48803 174.632162 
L 720.664927 179.718046 
L 720.663046 179.766079 
z
" style="fill:#065d4c;fill-opacity:0.8;"/>
    <path clip-path="url(#pf8ec8b931c)" d="M 685.028437 183.52515 
L 685.029649 183.476993 
L 697.48803 174.632162 
L 697.486595 174.680027 
z
" style="fill:#0cba97;fill-opacity:0.8;"/>
    <path clip-path="url(#pf8ec8b931c)" d="M 685.028437 183.52515 
L 697.486595 174.680027 
L 720.663046 179.766079 
L 708.359533 188.709819 
z
" style="fill:#08745e;fill-opacity:0.8;"/>
    <path clip-path="url(#pf8ec8b931c)" d="M 685.029649 183.476993 
L 708.361198 188.661492 
L 720.664927 179.718046 
L 697.48803 174.632162 
z
" style="fill:#0aa384;fill-opacity:0.8;"/>
    <path clip-path="url(#pf8ec8b931c)" d="M 708.359533 188.709819 
L 720.663046 179.766079 
L 720.664927 179.718046 
L 708.361198 188.661492 
z
" style="fill:#065d4c;fill-opacity:0.8;"/>
    <path clip-path="url(#pf8ec8b931c)" d="M 685.028437 183.52515 
L 708.359533 188.709819 
L 708.361198 188.661492 
L 685.029649 183.476993 
z
" style="fill:#0cba97;fill-opacity:0.8;"/>
   </g>
   <g id="Poly3DCollection_27">
    <path clip-path="url(#pf8ec8b931c)" d="M 508.872005 179.399042 
L 508.872005 179.399042 
L 531.119201 184.537589 
L 531.119201 184.537589 
z
" style="fill:#065d4c;fill-opacity:0.8;"/>
    <path clip-path="url(#pf8ec8b931c)" d="M 494.525131 188.335647 
L 494.525131 188.335647 
L 508.872005 179.399042 
L 508.872005 179.399042 
z
" style="fill:#065d4c;fill-opacity:0.8;"/>
    <path clip-path="url(#pf8ec8b931c)" d="M 494.525131 188.335647 
L 508.872005 179.399042 
L 531.119201 184.537589 
L 516.908136 193.574349 
z
" style="fill:#08745e;fill-opacity:0.8;"/>
    <path clip-path="url(#pf8ec8b931c)" d="M 494.525131 188.335647 
L 516.908136 193.574349 
L 531.119201 184.537589 
L 508.872005 179.399042 
z
" style="fill:#0aa384;fill-opacity:0.8;"/>
    <path clip-path="url(#pf8ec8b931c)" d="M 516.908136 193.574349 
L 531.119201 184.537589 
L 531.119201 184.537589 
L 516.908136 193.574349 
z
" style="fill:#065d4c;fill-opacity:0.8;"/>
    <path clip-path="url(#pf8ec8b931c)" d="M 494.525131 188.335647 
L 516.908136 193.574349 
L 516.908136 193.574349 
L 494.525131 188.335647 
z
" style="fill:#065d4c;fill-opacity:0.8;"/>
   </g>
   <g id="Poly3DCollection_28">
    <path clip-path="url(#pf8ec8b931c)" d="M 626.135087 182.145693 
L 626.136449 181.430289 
L 649.11072 186.596992 
L 649.10283 187.314919 
z
" style="fill:#065d4c;fill-opacity:0.8;"/>
    <path clip-path="url(#pf8ec8b931c)" d="M 612.882644 191.135762 
L 612.88024 190.41598 
L 626.136449 181.430289 
L 626.135087 182.145693 
z
" style="fill:#0cba97;fill-opacity:0.8;"/>
    <path clip-path="url(#pf8ec8b931c)" d="M 612.882644 191.135762 
L 626.135087 182.145693 
L 649.10283 187.314919 
L 635.999798 196.406046 
z
" style="fill:#08745e;fill-opacity:0.8;"/>
    <path clip-path="url(#pf8ec8b931c)" d="M 612.88024 190.41598 
L 636.004008 195.68372 
L 649.11072 186.596992 
L 626.136449 181.430289 
z
" style="fill:#0aa384;fill-opacity:0.8;"/>
    <path clip-path="url(#pf8ec8b931c)" d="M 635.999798 196.406046 
L 649.10283 187.314919 
L 649.11072 186.596992 
L 636.004008 195.68372 
z
" style="fill:#065d4c;fill-opacity:0.8;"/>
    <path clip-path="url(#pf8ec8b931c)" d="M 612.882644 191.135762 
L 635.999798 196.406046 
L 636.004008 195.68372 
L 612.88024 190.41598 
z
" style="fill:#0cba97;fill-opacity:0.8;"/>
   </g>
   <g id="Poly3DCollection_29">
    <path clip-path="url(#pf8ec8b931c)" d="M 553.615214 189.733607 
L 553.650494 191.049964 
L 576.387798 196.309067 
L 576.364242 194.988064 
z
" style="fill:#0cba97;fill-opacity:0.8;"/>
    <path clip-path="url(#pf8ec8b931c)" d="M 539.543925 198.872215 
L 539.586954 200.196632 
L 553.650494 191.049964 
L 553.615214 189.733607 
z
" style="fill:#065d4c;fill-opacity:0.8;"/>
    <path clip-path="url(#pf8ec8b931c)" d="M 539.586954 200.196632 
L 562.467963 205.559351 
L 576.387798 196.309067 
L 553.650494 191.049964 
z
" style="fill:#0aa384;fill-opacity:0.8;"/>
    <path clip-path="url(#pf8ec8b931c)" d="M 539.543925 198.872215 
L 553.615214 189.733607 
L 576.364242 194.988064 
L 562.436805 204.230253 
z
" style="fill:#08745e;fill-opacity:0.8;"/>
    <path clip-path="url(#pf8ec8b931c)" d="M 562.436805 204.230253 
L 576.364242 194.988064 
L 576.387798 196.309067 
L 562.467963 205.559351 
z
" style="fill:#0cba97;fill-opacity:0.8;"/>
    <path clip-path="url(#pf8ec8b931c)" d="M 539.543925 198.872215 
L 562.436805 204.230253 
L 562.467963 205.559351 
L 539.586954 200.196632 
z
" style="fill:#065d4c;fill-opacity:0.8;"/>
   </g>
   <g id="Poly3DCollection_30">
    <path clip-path="url(#pf8ec8b931c)" d="M 672.32822 192.542132 
L 672.355476 191.194026 
L 695.855647 196.475441 
L 695.815617 197.828314 
z
" style="fill:#065d4c;fill-opacity:0.8;"/>
    <path clip-path="url(#pf8ec8b931c)" d="M 659.378819 201.736031 
L 659.399356 200.379653 
L 672.355476 191.194026 
L 672.32822 192.542132 
z
" style="fill:#0cba97;fill-opacity:0.8;"/>
    <path clip-path="url(#pf8ec8b931c)" d="M 659.378819 201.736031 
L 672.32822 192.542132 
L 695.815617 197.828314 
L 683.024183 207.126737 
z
" style="fill:#08745e;fill-opacity:0.8;"/>
    <path clip-path="url(#pf8ec8b931c)" d="M 659.399356 200.379653 
L 683.057667 205.765554 
L 695.855647 196.475441 
L 672.355476 191.194026 
z
" style="fill:#0aa384;fill-opacity:0.8;"/>
    <path clip-path="url(#pf8ec8b931c)" d="M 683.024183 207.126737 
L 695.815617 197.828314 
L 695.855647 196.475441 
L 683.057667 205.765554 
z
" style="fill:#065d4c;fill-opacity:0.8;"/>
    <path clip-path="url(#pf8ec8b931c)" d="M 659.378819 201.736031 
L 683.024183 207.126737 
L 683.057667 205.765554 
L 659.399356 200.379653 
z
" style="fill:#0cba97;fill-opacity:0.8;"/>
   </g>
   <g id="Poly3DCollection_31">
    <path clip-path="url(#pf8ec8b931c)" d="M 599.370577 200.301953 
L 599.293947 191.517797 
L 622.643261 196.860872 
L 622.638608 205.676288 
z
" style="fill:#065d4c;fill-opacity:0.8;"/>
    <path clip-path="url(#pf8ec8b931c)" d="M 585.59118 209.649493 
L 585.465193 200.811102 
L 599.293947 191.517797 
L 599.370577 200.301953 
z
" style="fill:#0cba97;fill-opacity:0.8;"/>
    <path clip-path="url(#pf8ec8b931c)" d="M 585.59118 209.649493 
L 599.370577 200.301953 
L 622.638608 205.676288 
L 609.011557 215.13099 
z
" style="fill:#08745e;fill-opacity:0.8;"/>
    <path clip-path="url(#pf8ec8b931c)" d="M 585.465193 200.811102 
L 608.967918 206.261094 
L 622.643261 196.860872 
L 599.293947 191.517797 
z
" style="fill:#0aa384;fill-opacity:0.8;"/>
    <path clip-path="url(#pf8ec8b931c)" d="M 609.011557 215.13099 
L 622.638608 205.676288 
L 622.643261 196.860872 
L 608.967918 206.261094 
z
" style="fill:#065d4c;fill-opacity:0.8;"/>
    <path clip-path="url(#pf8ec8b931c)" d="M 585.59118 209.649493 
L 609.011557 215.13099 
L 608.967918 206.261094 
L 585.465193 200.811102 
z
" style="fill:#0cba97;fill-opacity:0.8;"/>
   </g>
   <g id="Poly3DCollection_32">
    <path clip-path="url(#pf8ec8b931c)" d="M 646.172828 211.112105 
L 646.182375 210.150297 
L 669.996626 215.645246 
L 669.977831 216.610467 
z
" style="fill:#065d4c;fill-opacity:0.8;"/>
    <path clip-path="url(#pf8ec8b931c)" d="M 632.702545 220.675824 
L 632.706963 219.708096 
L 646.182375 210.150297 
L 646.172828 211.112105 
z
" style="fill:#0cba97;fill-opacity:0.8;"/>
    <path clip-path="url(#pf8ec8b931c)" d="M 632.702545 220.675824 
L 646.172828 211.112105 
L 669.977831 216.610467 
L 656.668864 226.285097 
z
" style="fill:#08745e;fill-opacity:0.8;"/>
    <path clip-path="url(#pf8ec8b931c)" d="M 632.706963 219.708096 
L 656.682656 225.313933 
L 669.996626 215.645246 
L 646.182375 210.150297 
z
" style="fill:#0aa384;fill-opacity:0.8;"/>
    <path clip-path="url(#pf8ec8b931c)" d="M 656.668864 226.285097 
L 669.977831 216.610467 
L 669.996626 215.645246 
L 656.682656 225.313933 
z
" style="fill:#065d4c;fill-opacity:0.8;"/>
    <path clip-path="url(#pf8ec8b931c)" d="M 632.702545 220.675824 
L 656.668864 226.285097 
L 656.682656 225.313933 
L 632.706963 219.708096 
z
" style="fill:#0cba97;fill-opacity:0.8;"/>
   </g>
   <g id="Poly3DCollection_33">
    <path clip-path="url(#pf8ec8b931c)" d="M 481.646428 189.672313 
L 660.421649 231.710096 
L 756.713862 161.12337 
L 586.487407 124.831294 
z
" style="fill-opacity:0.2;"/>
   </g>
  </g>
 </g>
 <defs>
  <clipPath id="p8c92a221b5">
   <rect height="277.2" width="380.454545" x="-30.6" y="-14.4"/>
  </clipPath>
  <clipPath id="pf8ec8b931c">
   <rect height="277.2" width="380.454545" x="425.945455" y="-14.4"/>
  </clipPath>
 </defs>
</svg>
