<?xml version="1.0" encoding="utf-8" standalone="no"?>
<!DOCTYPE svg PUBLIC "-//W3C//DTD SVG 1.1//EN"
  "http://www.w3.org/Graphics/SVG/1.1/DTD/svg11.dtd">
<!-- Created with matplotlib (https://matplotlib.org/) -->
<svg height="302.4pt" version="1.1" viewBox="0 0 820.8 302.4" width="820.8pt" xmlns="http://www.w3.org/2000/svg" xmlns:xlink="http://www.w3.org/1999/xlink">
 <defs>
  <style type="text/css">
*{stroke-linecap:butt;stroke-linejoin:round;}
  </style>
 </defs>
 <g id="figure_1">
  <g id="patch_1">
   <path d="M 0 302.4 
L 820.8 302.4 
L 820.8 0 
L 0 0 
z
" style="fill:#ffffff;"/>
  </g>
  <g id="patch_2">
   <path d="M -30.6 262.8 
L 349.854545 262.8 
L 349.854545 -14.4 
L -30.6 -14.4 
z
" style="fill:#ffffff;"/>
  </g>
  <g id="pane3d_1">
   <g id="patch_3">
    <path d="M 19.835129 201.548569 
L 128.723211 133.58541 
L 126.910339 3.718968 
L 11.951034 64.782468 
" style="fill:#f2f2f2;opacity:0.5;stroke:#f2f2f2;stroke-linejoin:miter;"/>
   </g>
  </g>
  <g id="pane3d_2">
   <g id="patch_4">
    <path d="M 128.723211 133.58541 
L 305.111665 171.581202 
L 312.491547 37.79869 
L 126.910339 3.718968 
" style="fill:#e6e6e6;opacity:0.5;stroke:#e6e6e6;stroke-linejoin:miter;"/>
   </g>
  </g>
  <g id="pane3d_3">
   <g id="patch_5">
    <path d="M 19.835129 201.548569 
L 205.419617 245.80086 
L 305.111665 171.581202 
L 128.723211 133.58541 
" style="fill:#ececec;opacity:0.5;stroke:#ececec;stroke-linejoin:miter;"/>
   </g>
  </g>
  <g id="axis3d_1">
   <g id="line2d_1">
    <path d="M 19.835129 201.548569 
L 205.419617 245.80086 
" style="fill:none;stroke:#000000;stroke-linecap:square;stroke-width:0.8;"/>
   </g>
   <g id="Line3DCollection_1">
    <path d="M 42.295817 206.90428 
L 150.133942 138.19749 
L 149.393845 7.847789 
" style="fill:none;stroke:#b0b0b0;stroke-width:0.8;"/>
    <path d="M 87.512337 217.686079 
L 193.184014 147.470895 
L 194.636898 16.156123 
" style="fill:none;stroke:#b0b0b0;stroke-width:0.8;"/>
    <path d="M 133.765289 228.715013 
L 237.148096 156.941187 
L 240.890183 24.649974 
" style="fill:none;stroke:#b0b0b0;stroke-width:0.8;"/>
    <path d="M 181.090721 239.999678 
L 282.055608 166.614702 
L 288.187917 33.335625 
" style="fill:none;stroke:#b0b0b0;stroke-width:0.8;"/>
   </g>
   <g id="xtick_1">
    <g id="line2d_2">
     <path d="M 43.225084 206.312217 
L 40.433807 208.09062 
" style="fill:none;stroke:#000000;stroke-linecap:square;stroke-width:0.8;"/>
    </g>
    <g id="text_1">
     <!-- 00 -->
     <defs>
      <path d="M 42 31.84375 
C 42 37.96875 41.90625 48.421875 37.703125 56.453125 
C 34 63.484375 28.09375 66 22.90625 66 
C 18.09375 66 12 63.78125 8.203125 56.5625 
C 4.203125 49.015625 3.796875 39.671875 3.796875 31.84375 
C 3.796875 26.109375 3.90625 17.375 7 9.734375 
C 11.296875 -0.609375 19 -2 22.90625 -2 
C 27.5 -2 34.5 -0.109375 38.59375 9.4375 
C 41.59375 16.375 42 24.5 42 31.84375 
z
M 22.90625 -0.40625 
C 16.5 -0.40625 12.703125 5.125 11.296875 12.75 
C 10.203125 18.6875 10.203125 27.328125 10.203125 32.953125 
C 10.203125 40.6875 10.203125 47.109375 11.5 53.234375 
C 13.40625 61.78125 19 64.390625 22.90625 64.390625 
C 27 64.390625 32.296875 61.671875 34.203125 53.4375 
C 35.5 47.71875 35.59375 40.984375 35.59375 32.953125 
C 35.59375 26.421875 35.59375 18.375 34.40625 12.453125 
C 32.296875 1.5 26.40625 -0.40625 22.90625 -0.40625 
z
" id="CMR17-48"/>
     </defs>
     <g transform="translate(23.330362 237.14703)rotate(-45)scale(0.14 -0.14)">
      <use transform="scale(0.996264)" xlink:href="#CMR17-48"/>
      <use transform="translate(45.690477 0)scale(0.996264)" xlink:href="#CMR17-48"/>
     </g>
    </g>
   </g>
   <g id="xtick_2">
    <g id="line2d_3">
     <path d="M 88.423674 217.080527 
L 85.686217 218.899473 
" style="fill:none;stroke:#000000;stroke-linecap:square;stroke-width:0.8;"/>
    </g>
    <g id="text_2">
     <!-- 01 -->
     <defs>
      <path d="M 26.59375 63.796875 
C 26.59375 65.890625 26.5 66 25.09375 66 
C 21.203125 61.359375 15.296875 59.890625 9.703125 59.6875 
C 9.40625 59.6875 8.90625 59.6875 8.796875 59.5 
C 8.703125 59.296875 8.703125 59.09375 8.703125 57 
C 11.796875 57 17 57.59375 21 59.984375 
L 21 7.296875 
C 21 3.796875 20.796875 2.59375 12.203125 2.59375 
L 9.203125 2.59375 
L 9.203125 0 
C 14 0.09375 19 0.1875 23.796875 0.1875 
C 28.59375 0.1875 33.59375 0.09375 38.40625 0 
L 38.40625 2.59375 
L 35.40625 2.59375 
C 26.796875 2.59375 26.59375 3.6875 26.59375 7.296875 
z
" id="CMR17-49"/>
     </defs>
     <g transform="translate(68.542787 248.103782)rotate(-45)scale(0.14 -0.14)">
      <use transform="scale(0.996264)" xlink:href="#CMR17-48"/>
      <use transform="translate(45.690477 0)scale(0.996264)" xlink:href="#CMR17-49"/>
     </g>
    </g>
   </g>
   <g id="xtick_3">
    <g id="line2d_4">
     <path d="M 134.657625 228.095506 
L 131.977203 229.956397 
" style="fill:none;stroke:#000000;stroke-linecap:square;stroke-width:0.8;"/>
    </g>
    <g id="text_3">
     <!-- 10 -->
     <g transform="translate(114.7934 259.312128)rotate(-45)scale(0.14 -0.14)">
      <use transform="scale(0.996264)" xlink:href="#CMR17-49"/>
      <use transform="translate(45.690477 0)scale(0.996264)" xlink:href="#CMR17-48"/>
     </g>
    </g>
   </g>
   <g id="xtick_4">
    <g id="line2d_5">
     <path d="M 181.962926 239.365727 
L 179.342936 241.270032 
" style="fill:none;stroke:#000000;stroke-linecap:square;stroke-width:0.8;"/>
    </g>
    <g id="text_4">
     <!-- 11 -->
     <g transform="translate(162.118375 270.780834)rotate(-45)scale(0.14 -0.14)">
      <use transform="scale(0.996264)" xlink:href="#CMR17-49"/>
      <use transform="translate(45.690477 0)scale(0.996264)" xlink:href="#CMR17-49"/>
     </g>
    </g>
   </g>
  </g>
  <g id="axis3d_2">
   <g id="line2d_6">
    <path d="M 305.111665 171.581202 
L 205.419617 245.80086 
" style="fill:none;stroke:#000000;stroke-linecap:square;stroke-width:0.8;"/>
   </g>
   <g id="Line3DCollection_2">
    <path d="M 27.455231 56.547028 
L 34.471044 192.413474 
L 218.858418 235.795817 
" style="fill:none;stroke:#b0b0b0;stroke-width:0.8;"/>
    <path d="M 57.232024 40.730342 
L 62.623407 174.842005 
L 244.674037 216.576366 
" style="fill:none;stroke:#b0b0b0;stroke-width:0.8;"/>
    <path d="M 85.85589 25.526062 
L 89.739382 157.917404 
L 269.496985 198.095948 
" style="fill:none;stroke:#b0b0b0;stroke-width:0.8;"/>
    <path d="M 113.392516 10.899296 
L 115.875164 141.604597 
L 293.383438 180.312741 
" style="fill:none;stroke:#b0b0b0;stroke-width:0.8;"/>
   </g>
   <g id="xtick_5">
    <g id="line2d_7">
     <path d="M 217.315598 235.432825 
L 221.947489 236.522608 
" style="fill:none;stroke:#000000;stroke-linecap:square;stroke-width:0.8;"/>
    </g>
    <g id="text_5">
     <!-- 00 -->
     <g transform="translate(232.650369 248.348363)rotate(-337.5)scale(0.14 -0.14)">
      <use transform="scale(0.996264)" xlink:href="#CMR17-48"/>
      <use transform="translate(45.690477 0)scale(0.996264)" xlink:href="#CMR17-48"/>
     </g>
    </g>
   </g>
   <g id="xtick_6">
    <g id="line2d_8">
     <path d="M 243.15208 216.227463 
L 247.72127 217.274932 
" style="fill:none;stroke:#000000;stroke-linecap:square;stroke-width:0.8;"/>
    </g>
    <g id="text_6">
     <!-- 01 -->
     <g transform="translate(258.203921 228.903937)rotate(-337.5)scale(0.14 -0.14)">
      <use transform="scale(0.996264)" xlink:href="#CMR17-48"/>
      <use transform="translate(45.690477 0)scale(0.996264)" xlink:href="#CMR17-49"/>
     </g>
    </g>
   </g>
   <g id="xtick_7">
    <g id="line2d_9">
     <path d="M 267.995442 197.76033 
L 272.503283 198.767901 
" style="fill:none;stroke:#000000;stroke-linecap:square;stroke-width:0.8;"/>
    </g>
    <g id="text_7">
     <!-- 10 -->
     <g transform="translate(282.775332 210.206849)rotate(-337.5)scale(0.14 -0.14)">
      <use transform="scale(0.996264)" xlink:href="#CMR17-49"/>
      <use transform="translate(45.690477 0)scale(0.996264)" xlink:href="#CMR17-48"/>
     </g>
    </g>
   </g>
   <g id="xtick_8">
    <g id="line2d_10">
     <path d="M 291.901865 179.989663 
L 296.349691 180.959573 
" style="fill:none;stroke:#000000;stroke-linecap:square;stroke-width:0.8;"/>
    </g>
    <g id="text_8">
     <!-- 11 -->
     <g transform="translate(306.420159 192.214827)rotate(-337.5)scale(0.14 -0.14)">
      <use transform="scale(0.996264)" xlink:href="#CMR17-49"/>
      <use transform="translate(45.690477 0)scale(0.996264)" xlink:href="#CMR17-49"/>
     </g>
    </g>
   </g>
  </g>
  <g id="axis3d_3">
   <g id="line2d_11">
    <path d="M 305.111665 171.581202 
L 312.491547 37.79869 
" style="fill:none;stroke:#000000;stroke-linecap:square;stroke-width:0.8;"/>
   </g>
   <g id="text_9">
    <!-- Re[$\rho$] -->
    <defs>
     <path d="M 39.203125 33.6875 
C 48.703125 35.59375 56.703125 42.015625 56.703125 50.046875 
C 56.703125 59.46875 46.09375 68 32.09375 68 
L 5.203125 68 
L 5.203125 65.390625 
C 12.09375 65.390625 13.203125 65.390625 13.203125 60.875 
L 13.203125 6.6875 
C 13.203125 2.1875 12.09375 2.1875 5.203125 2.1875 
L 5.203125 -0.40625 
C 8.09375 -0.203125 13.296875 -0.203125 16.40625 -0.203125 
C 19.5 -0.203125 24.703125 -0.203125 27.59375 -0.40625 
L 27.59375 2.1875 
C 20.703125 2.1875 19.59375 2.1875 19.59375 6.6875 
L 19.59375 33 
L 31.296875 33 
C 37 33 40.203125 30.6875 41.59375 29.390625 
C 45.59375 25.5 45.59375 22.796875 45.59375 16 
C 45.59375 9.296875 45.59375 5.890625 48.59375 2.5 
C 52.40625 -1.609375 57.5 -2 59.703125 -2 
C 67.09375 -2 68.203125 6.296875 68.203125 8 
C 68.203125 8.59375 68.203125 9.296875 67.296875 9.296875 
C 66.5 9.296875 66.40625 8.6875 66.40625 8.296875 
C 65.90625 1.796875 63 -0.40625 59.90625 -0.40625 
C 54.40625 -0.40625 53.796875 5.890625 53.203125 12 
C 52.90625 14.09375 52.703125 15.59375 52.5 17.796875 
C 51.90625 22.796875 51.09375 30.09375 39.203125 33.6875 
z
M 31 34.59375 
L 19.59375 34.59375 
L 19.59375 61.484375 
C 19.59375 64.890625 19.796875 65.390625 23.796875 65.390625 
L 31.09375 65.390625 
C 39.40625 65.390625 49.09375 62.484375 49.09375 50.046875 
C 49.09375 37.09375 38.5 34.59375 31 34.59375 
z
" id="CMR17-82"/>
     <path d="M 38.09375 23.484375 
C 38.5 23.890625 38.5 24.09375 38.5 25.09375 
C 38.5 35.171875 33.09375 44 21.703125 44 
C 11.09375 44 2.703125 33.984375 2.703125 21.78125 
C 2.703125 8.65625 12.203125 -1 22.796875 -1 
C 34 -1 38.40625 9.671875 38.40625 11.796875 
C 38.40625 12.5 37.796875 12.5 37.59375 12.5 
C 36.90625 12.5 36.796875 12.296875 36.40625 11.078125 
C 34.203125 4.21875 28.703125 0.796875 23.5 0.796875 
C 19.203125 0.796875 14.90625 3.21875 12.203125 7.65625 
C 9.09375 12.796875 9.09375 18.75 9.09375 23.484375 
z
M 9.203125 25 
C 9.90625 39.234375 17.59375 42.390625 21.59375 42.390625 
C 28.40625 42.390625 33 36.0625 33.09375 25 
z
" id="CMR17-101"/>
     <path d="M 23.5 -25 
L 23.5 -21.5 
L 14.09375 -21.5 
L 14.09375 71.484375 
L 23.5 71.484375 
L 23.5 75 
L 10.59375 75 
L 10.59375 -25 
z
" id="CMR17-91"/>
     <path d="M 3.09375 -16.953125 
C 3 -17.4375 2.796875 -18.03125 2.796875 -18.609375 
C 2.796875 -20.109375 4 -21.109375 5.5 -21.109375 
C 7 -21.109375 8.40625 -20.109375 9 -18.71875 
C 9.40625 -17.828125 12.203125 -6.09375 15.40625 6.078125 
C 17.40625 1.09375 21.09375 -1 25 -1 
C 36.296875 -1 49.09375 12.96875 49.09375 28.03125 
C 49.09375 38.703125 42.59375 44 35.703125 44 
C 26.90625 44 16.203125 34.90625 12.90625 21.640625 
z
M 24.90625 1 
C 18.09375 1 16.40625 8.875 16.40625 10.078125 
C 16.40625 10.671875 18.90625 20.140625 19.203125 21.640625 
C 24.296875 41.5 34.09375 41.984375 35.59375 41.984375 
C 40.09375 41.984375 42.59375 37.90625 42.59375 32.015625 
C 42.59375 26.9375 39.90625 17.046875 38.203125 12.859375 
C 35.203125 5.984375 30 1 24.90625 1 
z
" id="CMMI12-26"/>
     <path d="M 14.296875 75 
L 1.40625 75 
L 1.40625 71.484375 
L 10.796875 71.484375 
L 10.796875 -21.5 
L 1.40625 -21.5 
L 1.40625 -25 
L 14.296875 -25 
z
" id="CMR17-93"/>
    </defs>
    <g transform="translate(352.486567 117.931831)rotate(-86.842577)scale(0.14 -0.14)">
     <use transform="scale(0.996264)" xlink:href="#CMR17-82"/>
     <use transform="translate(67.791102 0)scale(0.996264)" xlink:href="#CMR17-101"/>
     <use transform="translate(108.276762 0)scale(0.996264)" xlink:href="#CMR17-91"/>
     <use transform="translate(133.147821 0)scale(0.996264)" xlink:href="#CMMI12-26"/>
     <use transform="translate(183.462194 0)scale(0.996264)" xlink:href="#CMR17-93"/>
    </g>
   </g>
   <g id="Line3DCollection_3">
    <path d="M 305.384327 166.63838 
L 128.65609 128.777199 
L 19.54432 196.503884 
" style="fill:none;stroke:#b0b0b0;stroke-width:0.8;"/>
    <path d="M 306.789929 141.157626 
L 128.31025 104.002658 
L 18.044585 170.487838 
" style="fill:none;stroke:#b0b0b0;stroke-width:0.8;"/>
    <path d="M 308.223916 115.162314 
L 127.957722 78.74901 
L 16.51355 143.928847 
" style="fill:none;stroke:#b0b0b0;stroke-width:0.8;"/>
    <path d="M 309.687156 88.6367 
L 127.598309 53.00222 
L 14.950227 116.809736 
" style="fill:none;stroke:#b0b0b0;stroke-width:0.8;"/>
    <path d="M 311.180553 61.564389 
L 127.231809 26.747702 
L 13.353582 89.112597 
" style="fill:none;stroke:#b0b0b0;stroke-width:0.8;"/>
   </g>
   <g id="xtick_9">
    <g id="line2d_12">
     <path d="M 303.909726 166.322471 
L 308.336602 167.270857 
" style="fill:none;stroke:#000000;stroke-linecap:square;stroke-width:0.8;"/>
    </g>
    <g id="text_10">
     <!-- $0.0$ -->
     <defs>
      <path d="M 18.40625 4.796875 
C 18.40625 7.6875 16 9.6875 13.59375 9.6875 
C 10.703125 9.6875 8.703125 7.296875 8.703125 4.890625 
C 8.703125 2 11.09375 0 13.5 0 
C 16.40625 0 18.40625 2.390625 18.40625 4.796875 
z
" id="CMMI12-58"/>
     </defs>
     <g transform="translate(315.203949 174.386623)scale(0.14 -0.14)">
      <use transform="scale(0.996264)" xlink:href="#CMR17-48"/>
      <use transform="translate(45.690477 0)scale(0.996264)" xlink:href="#CMMI12-58"/>
      <use transform="translate(72.787654 0)scale(0.996264)" xlink:href="#CMR17-48"/>
     </g>
    </g>
   </g>
   <g id="xtick_10">
    <g id="line2d_13">
     <path d="M 305.3001 140.847481 
L 309.77272 141.778568 
" style="fill:none;stroke:#000000;stroke-linecap:square;stroke-width:0.8;"/>
    </g>
    <g id="text_11">
     <!-- $0.1$ -->
     <g transform="translate(316.79151 148.941262)scale(0.14 -0.14)">
      <use transform="scale(0.996264)" xlink:href="#CMR17-48"/>
      <use transform="translate(45.690477 0)scale(0.996264)" xlink:href="#CMMI12-58"/>
      <use transform="translate(72.787654 0)scale(0.996264)" xlink:href="#CMR17-49"/>
     </g>
    </g>
   </g>
   <g id="xtick_11">
    <g id="line2d_14">
     <path d="M 306.718542 114.858232 
L 311.237861 115.771123 
" style="fill:none;stroke:#000000;stroke-linecap:square;stroke-width:0.8;"/>
    </g>
    <g id="text_12">
     <!-- $0.2$ -->
     <defs>
      <path d="M 41.703125 15.46875 
L 39.90625 15.46875 
C 38.90625 8.390625 38.09375 7.1875 37.703125 6.59375 
C 37.203125 5.796875 30 5.796875 28.59375 5.796875 
L 9.40625 5.796875 
C 13 9.6875 20 16.765625 28.5 24.9375 
C 34.59375 30.71875 41.703125 37.5 41.703125 47.390625 
C 41.703125 59.1875 32.296875 66 21.796875 66 
C 10.796875 66 4.09375 56.296875 4.09375 47.296875 
C 4.09375 43.390625 7 42.890625 8.203125 42.890625 
C 9.203125 42.890625 12.203125 43.484375 12.203125 46.984375 
C 12.203125 50.09375 9.59375 51 8.203125 51 
C 7.59375 51 7 50.890625 6.59375 50.6875 
C 8.5 59.1875 14.296875 63.390625 20.40625 63.390625 
C 29.09375 63.390625 34.796875 56.5 34.796875 47.390625 
C 34.796875 38.703125 29.703125 31.21875 24 24.734375 
L 4.09375 2.296875 
L 4.09375 0 
L 39.296875 0 
z
" id="CMR17-50"/>
     </defs>
     <g transform="translate(318.411061 122.983172)scale(0.14 -0.14)">
      <use transform="scale(0.996264)" xlink:href="#CMR17-48"/>
      <use transform="translate(45.690477 0)scale(0.996264)" xlink:href="#CMMI12-58"/>
      <use transform="translate(72.787654 0)scale(0.996264)" xlink:href="#CMR17-50"/>
     </g>
    </g>
   </g>
   <g id="xtick_12">
    <g id="line2d_15">
     <path d="M 308.16591 88.338995 
L 312.732911 89.232749 
" style="fill:none;stroke:#000000;stroke-linecap:square;stroke-width:0.8;"/>
    </g>
    <g id="text_13">
     <!-- $0.3$ -->
     <defs>
      <path d="M 22.09375 34 
C 31 34 34.90625 26.140625 34.90625 17.09375 
C 34.90625 5.03125 28.5 0.390625 22.703125 0.390625 
C 17.40625 0.390625 8.796875 3.015625 6.09375 10.796875 
C 6.59375 10.59375 7.09375 10.59375 7.59375 10.59375 
C 10 10.59375 11.796875 12.1875 11.796875 14.796875 
C 11.796875 17.6875 9.59375 19 7.59375 19 
C 5.90625 19 3.296875 18.1875 3.296875 14.484375 
C 3.296875 5.234375 12.296875 -2 22.90625 -2 
C 34 -2 42.5 6.75 42.5 16.984375 
C 42.5 26.84375 34.5 34 25 35.09375 
C 32.59375 36.671875 39.90625 43.375 39.90625 52.390625 
C 39.90625 60.25 32 66 23 66 
C 13.90625 66 5.90625 60.34375 5.90625 52.296875 
C 5.90625 48.796875 8.5 48.1875 9.796875 48.1875 
C 11.90625 48.1875 13.703125 49.484375 13.703125 52.09375 
C 13.703125 54.6875 11.90625 56 9.796875 56 
C 9.40625 56 8.90625 56 8.5 55.796875 
C 11.40625 62.484375 19.296875 63.6875 22.796875 63.6875 
C 26.296875 63.6875 32.90625 61.96875 32.90625 52.296875 
C 32.90625 49.484375 32.5 44.546875 29.09375 40.21875 
C 26.09375 36.390625 22.703125 36.1875 19.40625 35.890625 
C 18.90625 35.890625 16.59375 35.6875 16.203125 35.6875 
C 15.5 35.59375 15.09375 35.5 15.09375 34.796875 
C 15.09375 34.09375 15.203125 34 17.203125 34 
z
" id="CMR17-51"/>
     </defs>
     <g transform="translate(320.063578 96.4967)scale(0.14 -0.14)">
      <use transform="scale(0.996264)" xlink:href="#CMR17-48"/>
      <use transform="translate(45.690477 0)scale(0.996264)" xlink:href="#CMMI12-58"/>
      <use transform="translate(72.787654 0)scale(0.996264)" xlink:href="#CMR17-51"/>
     </g>
    </g>
   </g>
   <g id="xtick_13">
    <g id="line2d_16">
     <path d="M 309.643097 61.273388 
L 314.258798 62.14702 
" style="fill:none;stroke:#000000;stroke-linecap:square;stroke-width:0.8;"/>
    </g>
    <g id="text_14">
     <!-- $0.4$ -->
     <defs>
      <path d="M 33.59375 64.796875 
C 33.59375 66.890625 33.5 67 31.703125 67 
L 2 19.59375 
L 2 17 
L 27.796875 17 
L 27.796875 7.1875 
C 27.796875 3.59375 27.59375 2.59375 20.59375 2.59375 
L 18.703125 2.59375 
L 18.703125 0 
C 21.90625 0.1875 27.296875 0.1875 30.703125 0.1875 
C 34.09375 0.1875 39.5 0.1875 42.703125 0 
L 42.703125 2.59375 
L 40.796875 2.59375 
C 33.796875 2.59375 33.59375 3.59375 33.59375 7.1875 
L 33.59375 17 
L 43.796875 17 
L 43.796875 19.59375 
L 33.59375 19.59375 
z
M 28.09375 58.171875 
L 28.09375 19.59375 
L 4 19.59375 
z
" id="CMR17-52"/>
     </defs>
     <g transform="translate(321.750078 69.465545)scale(0.14 -0.14)">
      <use transform="scale(0.996264)" xlink:href="#CMR17-48"/>
      <use transform="translate(45.690477 0)scale(0.996264)" xlink:href="#CMMI12-58"/>
      <use transform="translate(72.787654 0)scale(0.996264)" xlink:href="#CMR17-52"/>
     </g>
    </g>
   </g>
  </g>
  <g id="axes_1">
   <g id="Poly3DCollection_1">
    <path clip-path="url(#p984bbc3158)" d="M 176.061319 144.409514 
L 176.050954 146.769767 
L 197.892125 151.4904 
L 197.922719 149.121995 
z
" style="fill:#ba0c2f;fill-opacity:0.8;"/>
    <path clip-path="url(#p984bbc3158)" d="M 163.529244 152.603567 
L 163.530392 154.977964 
L 176.050954 146.769767 
L 176.061319 144.409514 
z
" style="fill:#5d0618;fill-opacity:0.8;"/>
    <path clip-path="url(#p984bbc3158)" d="M 163.530392 154.977964 
L 185.506836 159.786168 
L 197.892125 151.4904 
L 176.050954 146.769767 
z
" style="fill:#a30a29;fill-opacity:0.8;"/>
    <path clip-path="url(#p984bbc3158)" d="M 163.529244 152.603567 
L 176.061319 144.409514 
L 197.922719 149.121995 
L 185.526168 157.403551 
z
" style="fill:#74081d;fill-opacity:0.8;"/>
    <path clip-path="url(#p984bbc3158)" d="M 185.526168 157.403551 
L 197.922719 149.121995 
L 197.892125 151.4904 
L 185.506836 159.786168 
z
" style="fill:#ba0c2f;fill-opacity:0.8;"/>
    <path clip-path="url(#p984bbc3158)" d="M 163.529244 152.603567 
L 185.526168 157.403551 
L 185.506836 159.786168 
L 163.530392 154.977964 
z
" style="fill:#5d0618;fill-opacity:0.8;"/>
   </g>
   <g id="Poly3DCollection_2">
    <path clip-path="url(#p984bbc3158)" d="M 107.202232 151.326081 
L 106.977015 141.293376 
L 128.725554 146.044684 
L 128.866766 156.112369 
z
" style="fill:#5d0618;fill-opacity:0.8;"/>
    <path clip-path="url(#p984bbc3158)" d="M 93.932118 159.648723 
L 93.652399 149.55532 
L 106.977015 141.293376 
L 107.202232 151.326081 
z
" style="fill:#ba0c2f;fill-opacity:0.8;"/>
    <path clip-path="url(#p984bbc3158)" d="M 93.932118 159.648723 
L 107.202232 151.326081 
L 128.866766 156.112369 
L 115.727428 164.524587 
z
" style="fill:#74081d;fill-opacity:0.8;"/>
    <path clip-path="url(#p984bbc3158)" d="M 93.652399 149.55532 
L 115.532727 154.395902 
L 128.725554 146.044684 
L 106.977015 141.293376 
z
" style="fill:#a30a29;fill-opacity:0.8;"/>
    <path clip-path="url(#p984bbc3158)" d="M 115.727428 164.524587 
L 128.866766 156.112369 
L 128.725554 146.044684 
L 115.532727 154.395902 
z
" style="fill:#5d0618;fill-opacity:0.8;"/>
    <path clip-path="url(#p984bbc3158)" d="M 93.932118 159.648723 
L 115.727428 164.524587 
L 115.532727 154.395902 
L 93.652399 149.55532 
z
" style="fill:#ba0c2f;fill-opacity:0.8;"/>
   </g>
   <g id="Poly3DCollection_3">
    <path clip-path="url(#p984bbc3158)" d="M 220.01711 153.884702 
L 220.149052 147.766653 
L 242.534506 152.559092 
L 242.348239 158.698439 
z
" style="fill:#5d0618;fill-opacity:0.8;"/>
    <path clip-path="url(#p984bbc3158)" d="M 207.759712 162.255168 
L 207.86334 156.100163 
L 220.149052 147.766653 
L 220.01711 153.884702 
z
" style="fill:#ba0c2f;fill-opacity:0.8;"/>
    <path clip-path="url(#p984bbc3158)" d="M 207.759712 162.255168 
L 220.01711 153.884702 
L 242.348239 158.698439 
L 230.233717 167.159256 
z
" style="fill:#74081d;fill-opacity:0.8;"/>
    <path clip-path="url(#p984bbc3158)" d="M 207.86334 156.100163 
L 230.392372 160.982772 
L 242.534506 152.559092 
L 220.149052 147.766653 
z
" style="fill:#a30a29;fill-opacity:0.8;"/>
    <path clip-path="url(#p984bbc3158)" d="M 230.233717 167.159256 
L 242.348239 158.698439 
L 242.534506 152.559092 
L 230.392372 160.982772 
z
" style="fill:#5d0618;fill-opacity:0.8;"/>
    <path clip-path="url(#p984bbc3158)" d="M 207.759712 162.255168 
L 230.233717 167.159256 
L 230.392372 160.982772 
L 207.86334 156.100163 
z
" style="fill:#ba0c2f;fill-opacity:0.8;"/>
   </g>
   <g id="Poly3DCollection_4">
    <path clip-path="url(#p984bbc3158)" d="M 150.764011 160.95007 
L 150.759538 160.134201 
L 172.900345 165.02131 
L 172.897735 165.840016 
z
" style="fill:#5d0618;fill-opacity:0.8;"/>
    <path clip-path="url(#p984bbc3158)" d="M 137.759052 169.453317 
L 137.750346 168.632525 
L 150.759538 160.134201 
L 150.764011 160.95007 
z
" style="fill:#ba0c2f;fill-opacity:0.8;"/>
    <path clip-path="url(#p984bbc3158)" d="M 137.759052 169.453317 
L 150.764011 160.95007 
L 172.897735 165.840016 
L 160.030853 174.435777 
z
" style="fill:#74081d;fill-opacity:0.8;"/>
    <path clip-path="url(#p984bbc3158)" d="M 137.750346 168.632525 
L 160.029318 173.612125 
L 172.900345 165.02131 
L 150.759538 160.134201 
z
" style="fill:#a30a29;fill-opacity:0.8;"/>
    <path clip-path="url(#p984bbc3158)" d="M 160.030853 174.435777 
L 172.897735 165.840016 
L 172.900345 165.02131 
L 160.029318 173.612125 
z
" style="fill:#5d0618;fill-opacity:0.8;"/>
    <path clip-path="url(#p984bbc3158)" d="M 137.759052 169.453317 
L 160.030853 174.435777 
L 160.029318 173.612125 
L 137.750346 168.632525 
z
" style="fill:#ba0c2f;fill-opacity:0.8;"/>
   </g>
   <g id="Poly3DCollection_5">
    <path clip-path="url(#p984bbc3158)" d="M 80.413158 168.127434 
L 80.406333 167.921331 
L 102.335278 172.888591 
L 102.340356 173.095411 
z
" style="fill:#5d0618;fill-opacity:0.8;"/>
    <path clip-path="url(#p984bbc3158)" d="M 66.638286 176.766645 
L 66.630272 176.559297 
L 80.406333 167.921331 
L 80.413158 168.127434 
z
" style="fill:#ba0c2f;fill-opacity:0.8;"/>
    <path clip-path="url(#p984bbc3158)" d="M 66.638286 176.766645 
L 80.413158 168.127434 
L 102.340356 173.095411 
L 88.698477 181.829371 
z
" style="fill:#74081d;fill-opacity:0.8;"/>
    <path clip-path="url(#p984bbc3158)" d="M 66.630272 176.559297 
L 88.69223 181.6213 
L 102.335278 172.888591 
L 80.406333 167.921331 
z
" style="fill:#a30a29;fill-opacity:0.8;"/>
    <path clip-path="url(#p984bbc3158)" d="M 88.698477 181.829371 
L 102.340356 173.095411 
L 102.335278 172.888591 
L 88.69223 181.6213 
z
" style="fill:#5d0618;fill-opacity:0.8;"/>
    <path clip-path="url(#p984bbc3158)" d="M 66.638286 176.766645 
L 88.698477 181.829371 
L 88.69223 181.6213 
L 66.630272 176.559297 
z
" style="fill:#ba0c2f;fill-opacity:0.8;"/>
   </g>
   <g id="Poly3DCollection_6">
    <path clip-path="url(#p984bbc3158)" d="M 120.230309 143.155238 
L 133.022911 135.132078 
L 154.429247 139.746466 
L 141.765184 147.854397 
z
" style="fill:#74081d;fill-opacity:0.8;"/>
    <path clip-path="url(#p984bbc3158)" d="M 133.022911 135.132078 
L 131.701142 27.686017 
L 153.996405 31.906432 
L 154.429247 139.746466 
z
" style="fill:#5d0618;fill-opacity:0.8;"/>
    <path clip-path="url(#p984bbc3158)" d="M 120.230309 143.155238 
L 118.358282 35.02535 
L 131.701142 27.686017 
L 133.022911 135.132078 
z
" style="fill:#ba0c2f;fill-opacity:0.8;"/>
    <path clip-path="url(#p984bbc3158)" d="M 141.765184 147.854397 
L 154.429247 139.746466 
L 153.996405 31.906432 
L 140.792974 39.326583 
z
" style="fill:#5d0618;fill-opacity:0.8;"/>
    <path clip-path="url(#p984bbc3158)" d="M 120.230309 143.155238 
L 141.765184 147.854397 
L 140.792974 39.326583 
L 118.358282 35.02535 
z
" style="fill:#ba0c2f;fill-opacity:0.8;"/>
    <path clip-path="url(#p984bbc3158)" d="M 118.358282 35.02535 
L 140.792974 39.326583 
L 153.996405 31.906432 
L 131.701142 27.686017 
z
" style="fill:#a30a29;fill-opacity:0.8;"/>
   </g>
   <g id="Poly3DCollection_7">
    <path clip-path="url(#p984bbc3158)" d="M 195.271791 170.783057 
L 195.368601 162.706002 
L 218.059633 167.674723 
L 217.890114 175.780063 
z
" style="fill:#5d0618;fill-opacity:0.8;"/>
    <path clip-path="url(#p984bbc3158)" d="M 182.546781 179.472851 
L 182.603742 171.346719 
L 195.368601 162.706002 
L 195.271791 170.783057 
z
" style="fill:#ba0c2f;fill-opacity:0.8;"/>
    <path clip-path="url(#p984bbc3158)" d="M 182.546781 179.472851 
L 195.271791 170.783057 
L 217.890114 175.780063 
L 205.310871 184.565442 
z
" style="fill:#74081d;fill-opacity:0.8;"/>
    <path clip-path="url(#p984bbc3158)" d="M 182.603742 171.346719 
L 205.441486 176.410791 
L 218.059633 167.674723 
L 195.368601 162.706002 
z
" style="fill:#a30a29;fill-opacity:0.8;"/>
    <path clip-path="url(#p984bbc3158)" d="M 205.310871 184.565442 
L 217.890114 175.780063 
L 218.059633 167.674723 
L 205.441486 176.410791 
z
" style="fill:#5d0618;fill-opacity:0.8;"/>
    <path clip-path="url(#p984bbc3158)" d="M 182.546781 179.472851 
L 205.310871 184.565442 
L 205.441486 176.410791 
L 182.603742 171.346719 
z
" style="fill:#ba0c2f;fill-opacity:0.8;"/>
   </g>
   <g id="Poly3DCollection_8">
    <path clip-path="url(#p984bbc3158)" d="M 124.507551 178.117764 
L 124.348394 168.086263 
L 146.847752 173.128652 
L 146.918705 183.19539 
z
" style="fill:#5d0618;fill-opacity:0.8;"/>
    <path clip-path="url(#p984bbc3158)" d="M 111.00243 186.94804 
L 110.787843 176.855402 
L 124.348394 168.086263 
L 124.507551 178.117764 
z
" style="fill:#ba0c2f;fill-opacity:0.8;"/>
    <path clip-path="url(#p984bbc3158)" d="M 111.00243 186.94804 
L 124.507551 178.117764 
L 146.918705 183.19539 
L 133.554209 192.123584 
z
" style="fill:#74081d;fill-opacity:0.8;"/>
    <path clip-path="url(#p984bbc3158)" d="M 110.787843 176.855402 
L 133.428933 181.995421 
L 146.847752 173.128652 
L 124.348394 168.086263 
z
" style="fill:#a30a29;fill-opacity:0.8;"/>
    <path clip-path="url(#p984bbc3158)" d="M 133.554209 192.123584 
L 146.918705 183.19539 
L 146.847752 173.128652 
L 133.428933 181.995421 
z
" style="fill:#5d0618;fill-opacity:0.8;"/>
    <path clip-path="url(#p984bbc3158)" d="M 111.00243 186.94804 
L 133.554209 192.123584 
L 133.428933 181.995421 
L 110.787843 176.855402 
z
" style="fill:#ba0c2f;fill-opacity:0.8;"/>
   </g>
   <g id="Poly3DCollection_9">
    <path clip-path="url(#p984bbc3158)" d="M 240.756726 180.831924 
L 240.943653 174.596228 
L 264.120886 179.681985 
L 263.875738 185.939547 
z
" style="fill:#5d0618;fill-opacity:0.8;"/>
    <path clip-path="url(#p984bbc3158)" d="M 228.327249 189.714473 
L 228.485104 183.440839 
L 240.943653 174.596228 
L 240.756726 180.831924 
z
" style="fill:#ba0c2f;fill-opacity:0.8;"/>
    <path clip-path="url(#p984bbc3158)" d="M 228.327249 189.714473 
L 240.756726 180.831924 
L 263.875738 185.939547 
L 251.600132 194.920887 
z
" style="fill:#74081d;fill-opacity:0.8;"/>
    <path clip-path="url(#p984bbc3158)" d="M 228.485104 183.440839 
L 251.816993 188.625211 
L 264.120886 179.681985 
L 240.943653 174.596228 
z
" style="fill:#a30a29;fill-opacity:0.8;"/>
    <path clip-path="url(#p984bbc3158)" d="M 251.600132 194.920887 
L 263.875738 185.939547 
L 264.120886 179.681985 
L 251.816993 188.625211 
z
" style="fill:#5d0618;fill-opacity:0.8;"/>
    <path clip-path="url(#p984bbc3158)" d="M 228.327249 189.714473 
L 251.600132 194.920887 
L 251.816993 188.625211 
L 228.485104 183.440839 
z
" style="fill:#ba0c2f;fill-opacity:0.8;"/>
   </g>
   <g id="Poly3DCollection_10">
    <path clip-path="url(#p984bbc3158)" d="M 169.577866 188.329206 
L 169.579449 187.49767 
L 192.498347 192.685704 
L 192.489176 193.52015 
z
" style="fill:#5d0618;fill-opacity:0.8;"/>
    <path clip-path="url(#p984bbc3158)" d="M 156.357966 197.356956 
L 156.355173 196.52037 
L 169.579449 187.49767 
L 169.577866 188.329206 
z
" style="fill:#ba0c2f;fill-opacity:0.8;"/>
    <path clip-path="url(#p984bbc3158)" d="M 156.357966 197.356956 
L 169.577866 188.329206 
L 192.489176 193.52015 
L 179.417951 202.649131 
z
" style="fill:#74081d;fill-opacity:0.8;"/>
    <path clip-path="url(#p984bbc3158)" d="M 156.355173 196.52037 
L 179.422844 201.809611 
L 192.498347 192.685704 
L 169.579449 187.49767 
z
" style="fill:#a30a29;fill-opacity:0.8;"/>
    <path clip-path="url(#p984bbc3158)" d="M 179.417951 202.649131 
L 192.489176 193.52015 
L 192.498347 192.685704 
L 179.422844 201.809611 
z
" style="fill:#5d0618;fill-opacity:0.8;"/>
    <path clip-path="url(#p984bbc3158)" d="M 156.357966 197.356956 
L 179.417951 202.649131 
L 179.422844 201.809611 
L 156.355173 196.52037 
z
" style="fill:#ba0c2f;fill-opacity:0.8;"/>
   </g>
   <g id="Poly3DCollection_11">
    <path clip-path="url(#p984bbc3158)" d="M 97.236337 195.948952 
L 97.230707 195.738886 
L 119.92625 201.014472 
L 119.930009 201.225274 
z
" style="fill:#5d0618;fill-opacity:0.8;"/>
    <path clip-path="url(#p984bbc3158)" d="M 83.201634 205.125493 
L 83.194768 204.91415 
L 97.230707 195.738886 
L 97.236337 195.948952 
z
" style="fill:#ba0c2f;fill-opacity:0.8;"/>
    <path clip-path="url(#p984bbc3158)" d="M 83.201634 205.125493 
L 97.236337 195.948952 
L 119.930009 201.225274 
L 106.038463 210.505565 
z
" style="fill:#74081d;fill-opacity:0.8;"/>
    <path clip-path="url(#p984bbc3158)" d="M 83.194768 204.91415 
L 106.033491 210.293481 
L 119.92625 201.014472 
L 97.230707 195.738886 
z
" style="fill:#a30a29;fill-opacity:0.8;"/>
    <path clip-path="url(#p984bbc3158)" d="M 106.038463 210.505565 
L 119.930009 201.225274 
L 119.92625 201.014472 
L 106.033491 210.293481 
z
" style="fill:#5d0618;fill-opacity:0.8;"/>
    <path clip-path="url(#p984bbc3158)" d="M 83.201634 205.125493 
L 106.038463 210.505565 
L 106.033491 210.293481 
L 83.194768 204.91415 
z
" style="fill:#ba0c2f;fill-opacity:0.8;"/>
   </g>
   <g id="Poly3DCollection_12">
    <path clip-path="url(#p984bbc3158)" d="M 215.656865 198.769182 
L 215.607301 201.220664 
L 239.012472 206.537345 
L 239.085263 204.077281 
z
" style="fill:#ba0c2f;fill-opacity:0.8;"/>
    <path clip-path="url(#p984bbc3158)" d="M 202.738504 208.001105 
L 202.70116 210.467474 
L 215.607301 201.220664 
L 215.656865 198.769182 
z
" style="fill:#5d0618;fill-opacity:0.8;"/>
    <path clip-path="url(#p984bbc3158)" d="M 202.70116 210.467474 
L 226.263183 215.888913 
L 239.012472 206.537345 
L 215.607301 201.220664 
z
" style="fill:#a30a29;fill-opacity:0.8;"/>
    <path clip-path="url(#p984bbc3158)" d="M 202.738504 208.001105 
L 215.656865 198.769182 
L 239.085263 204.077281 
L 226.324067 213.413898 
z
" style="fill:#74081d;fill-opacity:0.8;"/>
    <path clip-path="url(#p984bbc3158)" d="M 226.324067 213.413898 
L 239.085263 204.077281 
L 239.012472 206.537345 
L 226.263183 215.888913 
z
" style="fill:#ba0c2f;fill-opacity:0.8;"/>
    <path clip-path="url(#p984bbc3158)" d="M 202.738504 208.001105 
L 226.324067 213.413898 
L 226.263183 215.888913 
L 202.70116 210.467474 
z
" style="fill:#5d0618;fill-opacity:0.8;"/>
   </g>
   <g id="Poly3DCollection_13">
    <path clip-path="url(#p984bbc3158)" d="M 252.952103 172.116672 
L 264.919931 163.564033 
L 287.736094 168.482326 
L 275.918878 177.128288 
z
" style="fill:#74081d;fill-opacity:0.8;"/>
    <path clip-path="url(#p984bbc3158)" d="M 264.919931 163.564033 
L 269.603015 44.225005 
L 293.518666 48.697917 
L 287.736094 168.482326 
z
" style="fill:#5d0618;fill-opacity:0.8;"/>
    <path clip-path="url(#p984bbc3158)" d="M 252.952103 172.116672 
L 257.116235 52.004608 
L 269.603015 44.225005 
L 264.919931 163.564033 
z
" style="fill:#ba0c2f;fill-opacity:0.8;"/>
    <path clip-path="url(#p984bbc3158)" d="M 275.918878 177.128288 
L 287.736094 168.482326 
L 293.518666 48.697917 
L 281.197585 56.566433 
z
" style="fill:#5d0618;fill-opacity:0.8;"/>
    <path clip-path="url(#p984bbc3158)" d="M 252.952103 172.116672 
L 275.918878 177.128288 
L 281.197585 56.566433 
L 257.116235 52.004608 
z
" style="fill:#ba0c2f;fill-opacity:0.8;"/>
    <path clip-path="url(#p984bbc3158)" d="M 257.116235 52.004608 
L 281.197585 56.566433 
L 293.518666 48.697917 
L 269.603015 44.225005 
z
" style="fill:#a30a29;fill-opacity:0.8;"/>
   </g>
   <g id="Poly3DCollection_14">
    <path clip-path="url(#p984bbc3158)" d="M 142.879724 206.561126 
L 142.788787 196.13682 
L 166.09536 201.496375 
L 166.089839 211.957521 
z
" style="fill:#5d0618;fill-opacity:0.8;"/>
    <path clip-path="url(#p984bbc3158)" d="M 129.135492 215.946938 
L 128.985988 205.458719 
L 142.788787 196.13682 
L 142.879724 206.561126 
z
" style="fill:#ba0c2f;fill-opacity:0.8;"/>
    <path clip-path="url(#p984bbc3158)" d="M 129.135492 215.946938 
L 142.879724 206.561126 
L 166.089839 211.957521 
L 152.497194 221.450663 
z
" style="fill:#74081d;fill-opacity:0.8;"/>
    <path clip-path="url(#p984bbc3158)" d="M 128.985988 205.458719 
L 152.445411 210.925323 
L 166.09536 201.496375 
L 142.788787 196.13682 
z
" style="fill:#a30a29;fill-opacity:0.8;"/>
    <path clip-path="url(#p984bbc3158)" d="M 152.497194 221.450663 
L 166.089839 211.957521 
L 166.09536 201.496375 
L 152.445411 210.925323 
z
" style="fill:#5d0618;fill-opacity:0.8;"/>
    <path clip-path="url(#p984bbc3158)" d="M 129.135492 215.946938 
L 152.497194 221.450663 
L 152.445411 210.925323 
L 128.985988 205.458719 
z
" style="fill:#ba0c2f;fill-opacity:0.8;"/>
   </g>
   <g id="Poly3DCollection_15">
    <path clip-path="url(#p984bbc3158)" d="M 25.444612 195.887402 
L 203.775655 238.096033 
L 299.845425 167.217103 
L 130.021706 130.764531 
z
" style="fill-opacity:0.15;"/>
   </g>
   <g id="Poly3DCollection_16">
    <path clip-path="url(#p984bbc3158)" d="M 38.291183 194.54515 
L 52.600168 185.570958 
L 74.794445 190.731169 
L 60.620632 199.80569 
z
" style="fill:#74081d;fill-opacity:0.8;"/>
    <path clip-path="url(#p984bbc3158)" d="M 52.600168 185.570958 
L 46.933544 57.750519 
L 70.222556 62.427839 
L 74.794445 190.731169 
z
" style="fill:#5d0618;fill-opacity:0.8;"/>
    <path clip-path="url(#p984bbc3158)" d="M 38.291183 194.54515 
L 31.836896 65.886594 
L 46.933544 57.750519 
L 52.600168 185.570958 
z
" style="fill:#ba0c2f;fill-opacity:0.8;"/>
    <path clip-path="url(#p984bbc3158)" d="M 60.620632 199.80569 
L 74.794445 190.731169 
L 70.222556 62.427839 
L 55.274545 70.659531 
z
" style="fill:#5d0618;fill-opacity:0.8;"/>
    <path clip-path="url(#p984bbc3158)" d="M 38.291183 194.54515 
L 60.620632 199.80569 
L 55.274545 70.659531 
L 31.836896 65.886594 
z
" style="fill:#ba0c2f;fill-opacity:0.8;"/>
    <path clip-path="url(#p984bbc3158)" d="M 31.836896 65.886594 
L 55.274545 70.659531 
L 70.222556 62.427839 
L 46.933544 57.750519 
z
" style="fill:#a30a29;fill-opacity:0.8;"/>
   </g>
   <g id="Poly3DCollection_17">
    <path clip-path="url(#p984bbc3158)" d="M 176.128143 227.01782 
L 189.564811 217.415497 
L 213.3092 222.936112 
L 200.033022 232.649512 
z
" style="fill:#74081d;fill-opacity:0.8;"/>
    <path clip-path="url(#p984bbc3158)" d="M 189.564811 217.415497 
L 190.698209 103.221862 
L 215.541234 108.310912 
L 213.3092 222.936112 
z
" style="fill:#5d0618;fill-opacity:0.8;"/>
    <path clip-path="url(#p984bbc3158)" d="M 176.128143 227.01782 
L 176.652794 112.075256 
L 190.698209 103.221862 
L 189.564811 217.415497 
z
" style="fill:#ba0c2f;fill-opacity:0.8;"/>
    <path clip-path="url(#p984bbc3158)" d="M 200.033022 232.649512 
L 213.3092 222.936112 
L 215.541234 108.310912 
L 201.671615 117.271467 
z
" style="fill:#5d0618;fill-opacity:0.8;"/>
    <path clip-path="url(#p984bbc3158)" d="M 176.128143 227.01782 
L 200.033022 232.649512 
L 201.671615 117.271467 
L 176.652794 112.075256 
z
" style="fill:#ba0c2f;fill-opacity:0.8;"/>
    <path clip-path="url(#p984bbc3158)" d="M 176.652794 112.075256 
L 201.671615 117.271467 
L 215.541234 108.310912 
L 190.698209 103.221862 
z
" style="fill:#a30a29;fill-opacity:0.8;"/>
   </g>
  </g>
  <g id="patch_6">
   <path d="M 425.945455 262.8 
L 806.4 262.8 
L 806.4 -14.4 
L 425.945455 -14.4 
z
" style="fill:#ffffff;"/>
  </g>
  <g id="pane3d_4">
   <g id="patch_7">
    <path d="M 476.380584 201.548569 
L 585.268665 133.58541 
L 583.455794 3.718968 
L 468.496488 64.782468 
" style="fill:#f2f2f2;opacity:0.5;stroke:#f2f2f2;stroke-linejoin:miter;"/>
   </g>
  </g>
  <g id="pane3d_5">
   <g id="patch_8">
    <path d="M 585.268665 133.58541 
L 761.65712 171.581202 
L 769.037001 37.79869 
L 583.455794 3.718968 
" style="fill:#e6e6e6;opacity:0.5;stroke:#e6e6e6;stroke-linejoin:miter;"/>
   </g>
  </g>
  <g id="pane3d_6">
   <g id="patch_9">
    <path d="M 476.380584 201.548569 
L 661.965072 245.80086 
L 761.65712 171.581202 
L 585.268665 133.58541 
" style="fill:#ececec;opacity:0.5;stroke:#ececec;stroke-linejoin:miter;"/>
   </g>
  </g>
  <g id="axis3d_4">
   <g id="line2d_17">
    <path d="M 476.380584 201.548569 
L 661.965072 245.80086 
" style="fill:none;stroke:#000000;stroke-linecap:square;stroke-width:0.8;"/>
   </g>
   <g id="Line3DCollection_4">
    <path d="M 498.841271 206.90428 
L 606.679397 138.19749 
L 605.9393 7.847789 
" style="fill:none;stroke:#b0b0b0;stroke-width:0.8;"/>
    <path d="M 544.057792 217.686079 
L 649.729469 147.470895 
L 651.182353 16.156123 
" style="fill:none;stroke:#b0b0b0;stroke-width:0.8;"/>
    <path d="M 590.310744 228.715013 
L 693.693551 156.941187 
L 697.435637 24.649974 
" style="fill:none;stroke:#b0b0b0;stroke-width:0.8;"/>
    <path d="M 637.636176 239.999678 
L 738.601063 166.614702 
L 744.733372 33.335625 
" style="fill:none;stroke:#b0b0b0;stroke-width:0.8;"/>
   </g>
   <g id="xtick_14">
    <g id="line2d_18">
     <path d="M 499.770538 206.312217 
L 496.979262 208.09062 
" style="fill:none;stroke:#000000;stroke-linecap:square;stroke-width:0.8;"/>
    </g>
    <g id="text_15">
     <!-- 00 -->
     <g transform="translate(479.875817 237.14703)rotate(-45)scale(0.14 -0.14)">
      <use transform="scale(0.996264)" xlink:href="#CMR17-48"/>
      <use transform="translate(45.690477 0)scale(0.996264)" xlink:href="#CMR17-48"/>
     </g>
    </g>
   </g>
   <g id="xtick_15">
    <g id="line2d_19">
     <path d="M 544.969128 217.080527 
L 542.231671 218.899473 
" style="fill:none;stroke:#000000;stroke-linecap:square;stroke-width:0.8;"/>
    </g>
    <g id="text_16">
     <!-- 01 -->
     <g transform="translate(525.088242 248.103782)rotate(-45)scale(0.14 -0.14)">
      <use transform="scale(0.996264)" xlink:href="#CMR17-48"/>
      <use transform="translate(45.690477 0)scale(0.996264)" xlink:href="#CMR17-49"/>
     </g>
    </g>
   </g>
   <g id="xtick_16">
    <g id="line2d_20">
     <path d="M 591.20308 228.095506 
L 588.522658 229.956397 
" style="fill:none;stroke:#000000;stroke-linecap:square;stroke-width:0.8;"/>
    </g>
    <g id="text_17">
     <!-- 10 -->
     <g transform="translate(571.338855 259.312128)rotate(-45)scale(0.14 -0.14)">
      <use transform="scale(0.996264)" xlink:href="#CMR17-49"/>
      <use transform="translate(45.690477 0)scale(0.996264)" xlink:href="#CMR17-48"/>
     </g>
    </g>
   </g>
   <g id="xtick_17">
    <g id="line2d_21">
     <path d="M 638.50838 239.365727 
L 635.888391 241.270032 
" style="fill:none;stroke:#000000;stroke-linecap:square;stroke-width:0.8;"/>
    </g>
    <g id="text_18">
     <!-- 11 -->
     <g transform="translate(618.66383 270.780834)rotate(-45)scale(0.14 -0.14)">
      <use transform="scale(0.996264)" xlink:href="#CMR17-49"/>
      <use transform="translate(45.690477 0)scale(0.996264)" xlink:href="#CMR17-49"/>
     </g>
    </g>
   </g>
  </g>
  <g id="axis3d_5">
   <g id="line2d_22">
    <path d="M 761.65712 171.581202 
L 661.965072 245.80086 
" style="fill:none;stroke:#000000;stroke-linecap:square;stroke-width:0.8;"/>
   </g>
   <g id="Line3DCollection_5">
    <path d="M 484.000685 56.547028 
L 491.016499 192.413474 
L 675.403872 235.795817 
" style="fill:none;stroke:#b0b0b0;stroke-width:0.8;"/>
    <path d="M 513.777478 40.730342 
L 519.168861 174.842005 
L 701.219492 216.576366 
" style="fill:none;stroke:#b0b0b0;stroke-width:0.8;"/>
    <path d="M 542.401344 25.526062 
L 546.284836 157.917404 
L 726.04244 198.095948 
" style="fill:none;stroke:#b0b0b0;stroke-width:0.8;"/>
    <path d="M 569.937971 10.899296 
L 572.420618 141.604597 
L 749.928893 180.312741 
" style="fill:none;stroke:#b0b0b0;stroke-width:0.8;"/>
   </g>
   <g id="xtick_18">
    <g id="line2d_23">
     <path d="M 673.861052 235.432825 
L 678.492943 236.522608 
" style="fill:none;stroke:#000000;stroke-linecap:square;stroke-width:0.8;"/>
    </g>
    <g id="text_19">
     <!-- 00 -->
     <g transform="translate(689.195824 248.348363)rotate(-337.5)scale(0.14 -0.14)">
      <use transform="scale(0.996264)" xlink:href="#CMR17-48"/>
      <use transform="translate(45.690477 0)scale(0.996264)" xlink:href="#CMR17-48"/>
     </g>
    </g>
   </g>
   <g id="xtick_19">
    <g id="line2d_24">
     <path d="M 699.697534 216.227463 
L 704.266725 217.274932 
" style="fill:none;stroke:#000000;stroke-linecap:square;stroke-width:0.8;"/>
    </g>
    <g id="text_20">
     <!-- 01 -->
     <g transform="translate(714.749375 228.903937)rotate(-337.5)scale(0.14 -0.14)">
      <use transform="scale(0.996264)" xlink:href="#CMR17-48"/>
      <use transform="translate(45.690477 0)scale(0.996264)" xlink:href="#CMR17-49"/>
     </g>
    </g>
   </g>
   <g id="xtick_20">
    <g id="line2d_25">
     <path d="M 724.540896 197.76033 
L 729.048738 198.767901 
" style="fill:none;stroke:#000000;stroke-linecap:square;stroke-width:0.8;"/>
    </g>
    <g id="text_21">
     <!-- 10 -->
     <g transform="translate(739.320787 210.206849)rotate(-337.5)scale(0.14 -0.14)">
      <use transform="scale(0.996264)" xlink:href="#CMR17-49"/>
      <use transform="translate(45.690477 0)scale(0.996264)" xlink:href="#CMR17-48"/>
     </g>
    </g>
   </g>
   <g id="xtick_21">
    <g id="line2d_26">
     <path d="M 748.44732 179.989663 
L 752.895146 180.959573 
" style="fill:none;stroke:#000000;stroke-linecap:square;stroke-width:0.8;"/>
    </g>
    <g id="text_22">
     <!-- 11 -->
     <g transform="translate(762.965613 192.214827)rotate(-337.5)scale(0.14 -0.14)">
      <use transform="scale(0.996264)" xlink:href="#CMR17-49"/>
      <use transform="translate(45.690477 0)scale(0.996264)" xlink:href="#CMR17-49"/>
     </g>
    </g>
   </g>
  </g>
  <g id="axis3d_6">
   <g id="line2d_27">
    <path d="M 761.65712 171.581202 
L 769.037001 37.79869 
" style="fill:none;stroke:#000000;stroke-linecap:square;stroke-width:0.8;"/>
   </g>
   <g id="text_23">
    <!-- Im[$\rho$] -->
    <defs>
     <path d="M 19.703125 60.90625 
C 19.703125 65.390625 20.90625 65.390625 28.09375 65.390625 
L 28.09375 68 
C 24.90625 67.796875 19.796875 67.796875 16.40625 67.796875 
C 13 67.796875 7.90625 67.796875 4.703125 68 
L 4.703125 65.390625 
C 11.90625 65.390625 13.09375 65.390625 13.09375 60.90625 
L 13.09375 7.078125 
C 13.09375 2.59375 11.90625 2.59375 4.703125 2.59375 
L 4.703125 0 
C 7.90625 0.1875 13 0.1875 16.40625 0.1875 
C 19.796875 0.1875 24.90625 0.1875 28.09375 0 
L 28.09375 2.59375 
C 20.90625 2.59375 19.703125 2.59375 19.703125 7.078125 
z
" id="CMR17-73"/>
     <path d="M 67.59375 30.53125 
C 67.59375 35.5625 66.703125 44 54.796875 44 
C 48 44 43.296875 39.375 41.5 33.953125 
L 41.40625 33.953125 
C 40.203125 42.1875 34.296875 44 28.703125 44 
C 20.796875 44 16.703125 37.875 15.203125 33.84375 
L 15.09375 33.84375 
L 15.09375 44 
L 3.296875 42.890625 
L 3.296875 40.28125 
C 9.203125 40.28125 10.09375 39.6875 10.09375 34.859375 
L 10.09375 6.921875 
C 10.09375 3.09375 9.703125 2.59375 3.296875 2.59375 
L 3.296875 0 
C 5.703125 0.1875 10.09375 0.1875 12.703125 0.1875 
C 15.296875 0.1875 19.796875 0.1875 22.203125 0 
L 22.203125 2.59375 
C 15.796875 2.59375 15.40625 3 15.40625 6.921875 
L 15.40625 26.21875 
C 15.40625 35.453125 21 42.390625 28 42.390625 
C 35.40625 42.390625 36.203125 35.765625 36.203125 30.9375 
L 36.203125 6.921875 
C 36.203125 3.09375 35.796875 2.59375 29.40625 2.59375 
L 29.40625 0 
C 31.796875 0.1875 36.203125 0.1875 38.796875 0.1875 
C 41.40625 0.1875 45.90625 0.1875 48.296875 0 
L 48.296875 2.59375 
C 41.90625 2.59375 41.5 3 41.5 6.921875 
L 41.5 26.21875 
C 41.5 35.453125 47.09375 42.390625 54.09375 42.390625 
C 61.5 42.390625 62.296875 35.765625 62.296875 30.9375 
L 62.296875 6.921875 
C 62.296875 3.09375 61.90625 2.59375 55.5 2.59375 
L 55.5 0 
C 57.90625 0.1875 62.296875 0.1875 64.90625 0.1875 
C 67.5 0.1875 72 0.1875 74.40625 0 
L 74.40625 2.59375 
C 68 2.59375 67.59375 3 67.59375 6.921875 
z
" id="CMR17-109"/>
    </defs>
    <g transform="translate(809.026865 118.025317)rotate(-86.842577)scale(0.14 -0.14)">
     <use transform="scale(0.996264)" xlink:href="#CMR17-73"/>
     <use transform="translate(32.638409 0)scale(0.996264)" xlink:href="#CMR17-109"/>
     <use transform="translate(109.557999 0)scale(0.996264)" xlink:href="#CMR17-91"/>
     <use transform="translate(134.429058 0)scale(0.996264)" xlink:href="#CMMI12-26"/>
     <use transform="translate(184.74343 0)scale(0.996264)" xlink:href="#CMR17-93"/>
    </g>
   </g>
   <g id="Line3DCollection_6">
    <path d="M 762.300946 159.909916 
L 585.110194 122.233219 
L 475.693849 189.635727 
" style="fill:none;stroke:#b0b0b0;stroke-width:0.8;"/>
    <path d="M 764.993123 111.106122 
L 584.448196 74.810472 
L 472.820017 139.783098 
" style="fill:none;stroke:#b0b0b0;stroke-width:0.8;"/>
    <path d="M 767.790117 60.402205 
L 583.761537 25.621143 
L 469.83047 87.923159 
" style="fill:none;stroke:#b0b0b0;stroke-width:0.8;"/>
   </g>
   <g id="xtick_22">
    <g id="line2d_28">
     <path d="M 760.822324 159.595512 
L 765.261277 160.539382 
" style="fill:none;stroke:#000000;stroke-linecap:square;stroke-width:0.8;"/>
    </g>
    <g id="text_24">
     <!-- $0.0$ -->
     <g transform="translate(772.168623 167.6674)scale(0.14 -0.14)">
      <use transform="scale(0.996264)" xlink:href="#CMR17-48"/>
      <use transform="translate(45.690477 0)scale(0.996264)" xlink:href="#CMMI12-58"/>
      <use transform="translate(72.787654 0)scale(0.996264)" xlink:href="#CMR17-48"/>
     </g>
    </g>
   </g>
   <g id="xtick_23">
    <g id="line2d_29">
     <path d="M 763.485323 110.803003 
L 768.011931 111.713005 
" style="fill:none;stroke:#000000;stroke-linecap:square;stroke-width:0.8;"/>
    </g>
    <g id="text_25">
     <!-- $0.2$ -->
     <g transform="translate(775.209217 118.932889)scale(0.14 -0.14)">
      <use transform="scale(0.996264)" xlink:href="#CMR17-48"/>
      <use transform="translate(45.690477 0)scale(0.996264)" xlink:href="#CMMI12-58"/>
      <use transform="translate(72.787654 0)scale(0.996264)" xlink:href="#CMR17-50"/>
     </g>
    </g>
   </g>
   <g id="xtick_24">
    <g id="line2d_30">
     <path d="M 766.251966 60.111498 
L 770.869757 60.984252 
" style="fill:none;stroke:#000000;stroke-linecap:square;stroke-width:0.8;"/>
    </g>
    <g id="text_26">
     <!-- $0.4$ -->
     <g transform="translate(778.367931 68.305156)scale(0.14 -0.14)">
      <use transform="scale(0.996264)" xlink:href="#CMR17-48"/>
      <use transform="translate(45.690477 0)scale(0.996264)" xlink:href="#CMMI12-58"/>
      <use transform="translate(72.787654 0)scale(0.996264)" xlink:href="#CMR17-52"/>
     </g>
    </g>
   </g>
  </g>
  <g id="axes_2">
   <g id="Poly3DCollection_18">
    <path clip-path="url(#pba11d5df14)" d="M 589.487476 128.556556 
L 589.412389 122.452797 
L 610.923633 127.023145 
L 610.948218 133.148186 
z
" style="fill:#065d4c;fill-opacity:0.8;"/>
    <path clip-path="url(#pba11d5df14)" d="M 576.66124 136.540225 
L 576.554927 130.399534 
L 589.412389 122.452797 
L 589.487476 128.556556 
z
" style="fill:#0cba97;fill-opacity:0.8;"/>
    <path clip-path="url(#pba11d5df14)" d="M 576.66124 136.540225 
L 589.487476 128.556556 
L 610.948218 133.148186 
L 598.251174 141.216428 
z
" style="fill:#08745e;fill-opacity:0.8;"/>
    <path clip-path="url(#pba11d5df14)" d="M 576.554927 130.399534 
L 598.195973 135.054264 
L 610.923633 127.023145 
L 589.412389 122.452797 
z
" style="fill:#0aa384;fill-opacity:0.8;"/>
    <path clip-path="url(#pba11d5df14)" d="M 598.251174 141.216428 
L 610.948218 133.148186 
L 610.923633 127.023145 
L 598.195973 135.054264 
z
" style="fill:#065d4c;fill-opacity:0.8;"/>
    <path clip-path="url(#pba11d5df14)" d="M 576.66124 136.540225 
L 598.251174 141.216428 
L 598.195973 135.054264 
L 576.554927 130.399534 
z
" style="fill:#0cba97;fill-opacity:0.8;"/>
   </g>
   <g id="Poly3DCollection_19">
    <path clip-path="url(#pba11d5df14)" d="M 632.635853 137.788361 
L 632.630069 139.105289 
L 654.536928 143.79937 
L 654.553999 142.477855 
z
" style="fill:#0cba97;fill-opacity:0.8;"/>
    <path clip-path="url(#pba11d5df14)" d="M 620.071478 145.942526 
L 620.072118 147.267412 
L 632.630069 139.105289 
L 632.635853 137.788361 
z
" style="fill:#065d4c;fill-opacity:0.8;"/>
    <path clip-path="url(#pba11d5df14)" d="M 620.072118 147.267412 
L 642.115069 152.048836 
L 654.536928 143.79937 
L 632.630069 139.105289 
z
" style="fill:#0aa384;fill-opacity:0.8;"/>
    <path clip-path="url(#pba11d5df14)" d="M 620.071478 145.942526 
L 632.635853 137.788361 
L 654.553999 142.477855 
L 642.125856 150.719323 
z
" style="fill:#08745e;fill-opacity:0.8;"/>
    <path clip-path="url(#pba11d5df14)" d="M 642.125856 150.719323 
L 654.553999 142.477855 
L 654.536928 143.79937 
L 642.115069 152.048836 
z
" style="fill:#0cba97;fill-opacity:0.8;"/>
    <path clip-path="url(#pba11d5df14)" d="M 620.071478 145.942526 
L 642.125856 150.719323 
L 642.115069 152.048836 
L 620.072118 147.267412 
z
" style="fill:#065d4c;fill-opacity:0.8;"/>
   </g>
   <g id="Poly3DCollection_20">
    <path clip-path="url(#pba11d5df14)" d="M 676.706351 147.217459 
L 676.606453 151.849623 
L 698.955652 156.656293 
L 699.096681 152.007979 
z
" style="fill:#0cba97;fill-opacity:0.8;"/>
    <path clip-path="url(#pba11d5df14)" d="M 664.418097 155.547639 
L 664.339637 160.207827 
L 676.606453 151.849623 
L 676.706351 147.217459 
z
" style="fill:#065d4c;fill-opacity:0.8;"/>
    <path clip-path="url(#pba11d5df14)" d="M 664.339637 160.207827 
L 686.831944 165.104788 
L 698.955652 156.656293 
L 676.606453 151.849623 
z
" style="fill:#0aa384;fill-opacity:0.8;"/>
    <path clip-path="url(#pba11d5df14)" d="M 664.418097 155.547639 
L 676.706351 147.217459 
L 699.096681 152.007979 
L 686.952069 160.428312 
z
" style="fill:#08745e;fill-opacity:0.8;"/>
    <path clip-path="url(#pba11d5df14)" d="M 686.952069 160.428312 
L 699.096681 152.007979 
L 698.955652 156.656293 
L 686.831944 165.104788 
z
" style="fill:#0cba97;fill-opacity:0.8;"/>
    <path clip-path="url(#pba11d5df14)" d="M 664.418097 155.547639 
L 686.952069 160.428312 
L 686.831944 165.104788 
L 664.339637 160.207827 
z
" style="fill:#065d4c;fill-opacity:0.8;"/>
   </g>
   <g id="Poly3DCollection_21">
    <path clip-path="url(#pba11d5df14)" d="M 563.598297 144.671233 
L 563.395986 135.65895 
L 585.191701 140.390429 
L 585.318553 149.434365 
z
" style="fill:#065d4c;fill-opacity:0.8;"/>
    <path clip-path="url(#pba11d5df14)" d="M 550.292033 152.953695 
L 550.040753 143.886484 
L 563.395986 135.65895 
L 563.598297 144.671233 
z
" style="fill:#0cba97;fill-opacity:0.8;"/>
    <path clip-path="url(#pba11d5df14)" d="M 550.292033 152.953695 
L 563.598297 144.671233 
L 585.318553 149.434365 
L 572.143737 157.806205 
z
" style="fill:#08745e;fill-opacity:0.8;"/>
    <path clip-path="url(#pba11d5df14)" d="M 550.040753 143.886484 
L 571.968826 148.707062 
L 585.191701 140.390429 
L 563.395986 135.65895 
z
" style="fill:#0aa384;fill-opacity:0.8;"/>
    <path clip-path="url(#pba11d5df14)" d="M 572.143737 157.806205 
L 585.318553 149.434365 
L 585.191701 140.390429 
L 571.968826 148.707062 
z
" style="fill:#065d4c;fill-opacity:0.8;"/>
    <path clip-path="url(#pba11d5df14)" d="M 550.292033 152.953695 
L 572.143737 157.806205 
L 571.968826 148.707062 
L 550.040753 143.886484 
z
" style="fill:#0cba97;fill-opacity:0.8;"/>
   </g>
   <g id="Poly3DCollection_22">
    <path clip-path="url(#pba11d5df14)" d="M 607.272731 154.248796 
L 607.288386 157.104769 
L 629.455491 161.981319 
L 629.464628 159.115356 
z
" style="fill:#0cba97;fill-opacity:0.8;"/>
    <path clip-path="url(#pba11d5df14)" d="M 594.232993 162.711466 
L 594.263471 165.584773 
L 607.288386 157.104769 
L 607.272731 154.248796 
z
" style="fill:#065d4c;fill-opacity:0.8;"/>
    <path clip-path="url(#pba11d5df14)" d="M 594.263471 165.584773 
L 616.569071 170.553726 
L 629.455491 161.981319 
L 607.288386 157.104769 
z
" style="fill:#0aa384;fill-opacity:0.8;"/>
    <path clip-path="url(#pba11d5df14)" d="M 594.232993 162.711466 
L 607.272731 154.248796 
L 629.464628 159.115356 
L 616.563695 167.670345 
z
" style="fill:#08745e;fill-opacity:0.8;"/>
    <path clip-path="url(#pba11d5df14)" d="M 616.563695 167.670345 
L 629.464628 159.115356 
L 629.455491 161.981319 
L 616.569071 170.553726 
z
" style="fill:#0cba97;fill-opacity:0.8;"/>
    <path clip-path="url(#pba11d5df14)" d="M 594.232993 162.711466 
L 616.563695 167.670345 
L 616.569071 170.553726 
L 594.263471 165.584773 
z
" style="fill:#065d4c;fill-opacity:0.8;"/>
   </g>
   <g id="Poly3DCollection_23">
    <path clip-path="url(#pba11d5df14)" d="M 721.728847 156.850241 
L 721.728847 156.850241 
L 744.606788 161.745088 
L 744.606788 161.745088 
z
" style="fill:#065d4c;fill-opacity:0.8;"/>
    <path clip-path="url(#pba11d5df14)" d="M 709.731726 165.362198 
L 709.731726 165.362198 
L 721.728847 156.850241 
L 721.728847 156.850241 
z
" style="fill:#065d4c;fill-opacity:0.8;"/>
    <path clip-path="url(#pba11d5df14)" d="M 709.731726 165.362198 
L 732.761108 170.350173 
L 744.606788 161.745088 
L 721.728847 156.850241 
z
" style="fill:#0aa384;fill-opacity:0.8;"/>
    <path clip-path="url(#pba11d5df14)" d="M 709.731726 165.362198 
L 721.728847 156.850241 
L 744.606788 161.745088 
L 732.761108 170.350173 
z
" style="fill:#08745e;fill-opacity:0.8;"/>
    <path clip-path="url(#pba11d5df14)" d="M 732.761108 170.350173 
L 744.606788 161.745088 
L 744.606788 161.745088 
L 732.761108 170.350173 
z
" style="fill:#065d4c;fill-opacity:0.8;"/>
    <path clip-path="url(#pba11d5df14)" d="M 709.731726 165.362198 
L 732.761108 170.350173 
L 732.761108 170.350173 
L 709.731726 165.362198 
z
" style="fill:#065d4c;fill-opacity:0.8;"/>
   </g>
   <g id="Poly3DCollection_24">
    <path clip-path="url(#pba11d5df14)" d="M 651.898128 164.034899 
L 651.898128 164.034899 
L 674.577196 169.008294 
L 674.577196 169.008294 
z
" style="fill:#065d4c;fill-opacity:0.8;"/>
    <path clip-path="url(#pba11d5df14)" d="M 639.139825 172.683725 
L 639.139825 172.683725 
L 651.898128 164.034899 
L 651.898128 164.034899 
z
" style="fill:#065d4c;fill-opacity:0.8;"/>
    <path clip-path="url(#pba11d5df14)" d="M 639.139825 172.683725 
L 651.898128 164.034899 
L 674.577196 169.008294 
L 661.96545 177.752509 
z
" style="fill:#08745e;fill-opacity:0.8;"/>
    <path clip-path="url(#pba11d5df14)" d="M 639.139825 172.683725 
L 661.96545 177.752509 
L 674.577196 169.008294 
L 651.898128 164.034899 
z
" style="fill:#0aa384;fill-opacity:0.8;"/>
    <path clip-path="url(#pba11d5df14)" d="M 661.96545 177.752509 
L 674.577196 169.008294 
L 674.577196 169.008294 
L 661.96545 177.752509 
z
" style="fill:#065d4c;fill-opacity:0.8;"/>
    <path clip-path="url(#pba11d5df14)" d="M 639.139825 172.683725 
L 661.96545 177.752509 
L 661.96545 177.752509 
L 639.139825 172.683725 
z
" style="fill:#065d4c;fill-opacity:0.8;"/>
   </g>
   <g id="Poly3DCollection_25">
    <path clip-path="url(#pba11d5df14)" d="M 536.735586 161.391883 
L 536.430885 152.189694 
L 558.493121 157.101629 
L 558.719857 166.336309 
z
" style="fill:#065d4c;fill-opacity:0.8;"/>
    <path clip-path="url(#pba11d5df14)" d="M 522.921833 169.990231 
L 522.563991 160.731665 
L 536.430885 152.189694 
L 536.735586 161.391883 
z
" style="fill:#0cba97;fill-opacity:0.8;"/>
    <path clip-path="url(#pba11d5df14)" d="M 522.921833 169.990231 
L 536.735586 161.391883 
L 558.719857 166.336309 
L 545.039783 175.02921 
z
" style="fill:#08745e;fill-opacity:0.8;"/>
    <path clip-path="url(#pba11d5df14)" d="M 522.563991 160.731665 
L 544.760848 165.737877 
L 558.493121 157.101629 
L 536.430885 152.189694 
z
" style="fill:#0aa384;fill-opacity:0.8;"/>
    <path clip-path="url(#pba11d5df14)" d="M 545.039783 175.02921 
L 558.719857 166.336309 
L 558.493121 157.101629 
L 544.760848 165.737877 
z
" style="fill:#065d4c;fill-opacity:0.8;"/>
    <path clip-path="url(#pba11d5df14)" d="M 522.921833 169.990231 
L 545.039783 175.02921 
L 544.760848 165.737877 
L 522.563991 160.731665 
z
" style="fill:#0cba97;fill-opacity:0.8;"/>
   </g>
   <g id="Poly3DCollection_26">
    <path clip-path="url(#pba11d5df14)" d="M 580.945392 171.334998 
L 580.945392 171.334998 
L 603.416185 176.388846 
L 603.416185 176.388846 
z
" style="fill:#065d4c;fill-opacity:0.8;"/>
    <path clip-path="url(#pba11d5df14)" d="M 567.402794 180.12402 
L 567.402794 180.12402 
L 580.945392 171.334998 
L 580.945392 171.334998 
z
" style="fill:#065d4c;fill-opacity:0.8;"/>
    <path clip-path="url(#pba11d5df14)" d="M 567.402794 180.12402 
L 580.945392 171.334998 
L 603.416185 176.388846 
L 590.01496 185.275593 
z
" style="fill:#08745e;fill-opacity:0.8;"/>
    <path clip-path="url(#pba11d5df14)" d="M 567.402794 180.12402 
L 590.01496 185.275593 
L 603.416185 176.388846 
L 580.945392 171.334998 
z
" style="fill:#0aa384;fill-opacity:0.8;"/>
    <path clip-path="url(#pba11d5df14)" d="M 590.01496 185.275593 
L 603.416185 176.388846 
L 603.416185 176.388846 
L 590.01496 185.275593 
z
" style="fill:#065d4c;fill-opacity:0.8;"/>
    <path clip-path="url(#pba11d5df14)" d="M 567.402794 180.12402 
L 590.01496 185.275593 
L 590.01496 185.275593 
L 567.402794 180.12402 
z
" style="fill:#065d4c;fill-opacity:0.8;"/>
   </g>
   <g id="Poly3DCollection_27">
    <path clip-path="url(#pba11d5df14)" d="M 697.505888 174.03643 
L 697.647949 169.297443 
L 720.874659 174.364485 
L 720.688348 179.120215 
z
" style="fill:#065d4c;fill-opacity:0.8;"/>
    <path clip-path="url(#pba11d5df14)" d="M 685.04473 182.877621 
L 685.164702 178.109584 
L 697.647949 169.297443 
L 697.505888 174.03643 
z
" style="fill:#0cba97;fill-opacity:0.8;"/>
    <path clip-path="url(#pba11d5df14)" d="M 685.04473 182.877621 
L 697.505888 174.03643 
L 720.688348 179.120215 
L 708.381916 188.060005 
z
" style="fill:#08745e;fill-opacity:0.8;"/>
    <path clip-path="url(#pba11d5df14)" d="M 685.164702 178.109584 
L 708.546738 183.275087 
L 720.874659 174.364485 
L 697.647949 169.297443 
z
" style="fill:#0aa384;fill-opacity:0.8;"/>
    <path clip-path="url(#pba11d5df14)" d="M 708.381916 188.060005 
L 720.688348 179.120215 
L 720.874659 174.364485 
L 708.546738 183.275087 
z
" style="fill:#065d4c;fill-opacity:0.8;"/>
    <path clip-path="url(#pba11d5df14)" d="M 685.04473 182.877621 
L 708.381916 188.060005 
L 708.546738 183.275087 
L 685.164702 178.109584 
z
" style="fill:#0cba97;fill-opacity:0.8;"/>
   </g>
   <g id="Poly3DCollection_28">
    <path clip-path="url(#pba11d5df14)" d="M 508.843379 178.753342 
L 508.843379 178.753342 
L 531.096111 183.889613 
L 531.096111 183.889613 
z
" style="fill:#065d4c;fill-opacity:0.8;"/>
    <path clip-path="url(#pba11d5df14)" d="M 494.492541 187.685997 
L 494.492541 187.685997 
L 508.843379 178.753342 
L 508.843379 178.753342 
z
" style="fill:#065d4c;fill-opacity:0.8;"/>
    <path clip-path="url(#pba11d5df14)" d="M 494.492541 187.685997 
L 508.843379 178.753342 
L 531.096111 183.889613 
L 516.881149 192.922405 
z
" style="fill:#08745e;fill-opacity:0.8;"/>
    <path clip-path="url(#pba11d5df14)" d="M 494.492541 187.685997 
L 516.881149 192.922405 
L 531.096111 183.889613 
L 508.843379 178.753342 
z
" style="fill:#0aa384;fill-opacity:0.8;"/>
    <path clip-path="url(#pba11d5df14)" d="M 516.881149 192.922405 
L 531.096111 183.889613 
L 531.096111 183.889613 
L 516.881149 192.922405 
z
" style="fill:#065d4c;fill-opacity:0.8;"/>
    <path clip-path="url(#pba11d5df14)" d="M 494.492541 187.685997 
L 516.881149 192.922405 
L 516.881149 192.922405 
L 494.492541 187.685997 
z
" style="fill:#065d4c;fill-opacity:0.8;"/>
   </g>
   <g id="Poly3DCollection_29">
    <path clip-path="url(#pba11d5df14)" d="M 626.136318 181.498774 
L 626.141871 178.580919 
L 649.142147 183.737548 
L 649.109965 186.665718 
z
" style="fill:#065d4c;fill-opacity:0.8;"/>
    <path clip-path="url(#pba11d5df14)" d="M 612.88047 190.484884 
L 612.870666 187.549132 
L 626.141871 178.580919 
L 626.136318 181.498774 
z
" style="fill:#0cba97;fill-opacity:0.8;"/>
    <path clip-path="url(#pba11d5df14)" d="M 612.88047 190.484884 
L 626.136318 181.498774 
L 649.109965 186.665718 
L 636.003605 195.752868 
z
" style="fill:#08745e;fill-opacity:0.8;"/>
    <path clip-path="url(#pba11d5df14)" d="M 612.870666 187.549132 
L 636.020779 192.806717 
L 649.142147 183.737548 
L 626.141871 178.580919 
z
" style="fill:#0aa384;fill-opacity:0.8;"/>
    <path clip-path="url(#pba11d5df14)" d="M 636.003605 195.752868 
L 649.109965 186.665718 
L 649.142147 183.737548 
L 636.020779 192.806717 
z
" style="fill:#065d4c;fill-opacity:0.8;"/>
    <path clip-path="url(#pba11d5df14)" d="M 612.88047 190.484884 
L 636.003605 195.752868 
L 636.020779 192.806717 
L 612.870666 187.549132 
z
" style="fill:#0cba97;fill-opacity:0.8;"/>
   </g>
   <g id="Poly3DCollection_30">
    <path clip-path="url(#pba11d5df14)" d="M 553.597787 189.083343 
L 553.84737 198.395852 
L 576.51925 203.680734 
L 576.352606 194.335503 
z
" style="fill:#0cba97;fill-opacity:0.8;"/>
    <path clip-path="url(#pba11d5df14)" d="M 539.522669 198.217966 
L 539.827068 207.587244 
L 553.84737 198.395852 
L 553.597787 189.083343 
z
" style="fill:#065d4c;fill-opacity:0.8;"/>
    <path clip-path="url(#pba11d5df14)" d="M 539.827068 207.587244 
L 562.641831 212.975942 
L 576.51925 203.680734 
L 553.84737 198.395852 
z
" style="fill:#0aa384;fill-opacity:0.8;"/>
    <path clip-path="url(#pba11d5df14)" d="M 539.522669 198.217966 
L 553.597787 189.083343 
L 576.352606 194.335503 
L 562.421413 203.573688 
z
" style="fill:#08745e;fill-opacity:0.8;"/>
    <path clip-path="url(#pba11d5df14)" d="M 562.421413 203.573688 
L 576.352606 194.335503 
L 576.51925 203.680734 
L 562.641831 212.975942 
z
" style="fill:#0cba97;fill-opacity:0.8;"/>
    <path clip-path="url(#pba11d5df14)" d="M 539.522669 198.217966 
L 562.421413 203.573688 
L 562.641831 212.975942 
L 539.827068 207.587244 
z
" style="fill:#065d4c;fill-opacity:0.8;"/>
   </g>
   <g id="Poly3DCollection_31">
    <path clip-path="url(#pba11d5df14)" d="M 672.341392 191.890639 
L 672.369086 190.520859 
L 695.875636 195.799889 
L 695.834962 197.174518 
z
" style="fill:#065d4c;fill-opacity:0.8;"/>
    <path clip-path="url(#pba11d5df14)" d="M 659.388744 201.080542 
L 659.409611 199.70235 
L 672.369086 190.520859 
L 672.341392 191.890639 
z
" style="fill:#0cba97;fill-opacity:0.8;"/>
    <path clip-path="url(#pba11d5df14)" d="M 659.388744 201.080542 
L 672.341392 191.890639 
L 695.834962 197.174518 
L 683.040365 206.468927 
z
" style="fill:#08745e;fill-opacity:0.8;"/>
    <path clip-path="url(#pba11d5df14)" d="M 659.409611 199.70235 
L 683.074388 205.085848 
L 695.875636 195.799889 
L 672.369086 190.520859 
z
" style="fill:#0aa384;fill-opacity:0.8;"/>
    <path clip-path="url(#pba11d5df14)" d="M 683.040365 206.468927 
L 695.834962 197.174518 
L 695.875636 195.799889 
L 683.074388 205.085848 
z
" style="fill:#065d4c;fill-opacity:0.8;"/>
    <path clip-path="url(#pba11d5df14)" d="M 659.388744 201.080542 
L 683.040365 206.468927 
L 683.074388 205.085848 
L 659.409611 199.70235 
z
" style="fill:#0cba97;fill-opacity:0.8;"/>
   </g>
   <g id="Poly3DCollection_32">
    <path clip-path="url(#pba11d5df14)" d="M 599.364864 199.647084 
L 599.445972 208.94468 
L 622.634031 214.34943 
L 622.638955 205.019101 
z
" style="fill:#0cba97;fill-opacity:0.8;"/>
    <path clip-path="url(#pba11d5df14)" d="M 585.581788 208.990602 
L 585.71513 218.344985 
L 599.445972 208.94468 
L 599.364864 199.647084 
z
" style="fill:#065d4c;fill-opacity:0.8;"/>
    <path clip-path="url(#pba11d5df14)" d="M 585.71513 218.344985 
L 609.054488 223.857127 
L 622.634031 214.34943 
L 599.445972 208.94468 
z
" style="fill:#0aa384;fill-opacity:0.8;"/>
    <path clip-path="url(#pba11d5df14)" d="M 585.581788 208.990602 
L 599.364864 199.647084 
L 622.638955 205.019101 
L 609.008304 214.469763 
z
" style="fill:#08745e;fill-opacity:0.8;"/>
    <path clip-path="url(#pba11d5df14)" d="M 609.008304 214.469763 
L 622.638955 205.019101 
L 622.634031 214.34943 
L 609.054488 223.857127 
z
" style="fill:#0cba97;fill-opacity:0.8;"/>
    <path clip-path="url(#pba11d5df14)" d="M 585.581788 208.990602 
L 609.008304 214.469763 
L 609.054488 223.857127 
L 585.71513 218.344985 
z
" style="fill:#065d4c;fill-opacity:0.8;"/>
   </g>
   <g id="Poly3DCollection_33">
    <path clip-path="url(#pba11d5df14)" d="M 646.179374 210.452589 
L 646.115524 216.885703 
L 669.865007 222.404455 
L 669.990718 215.948611 
z
" style="fill:#0cba97;fill-opacity:0.8;"/>
    <path clip-path="url(#pba11d5df14)" d="M 632.705574 220.01225 
L 632.676031 226.484794 
L 646.115524 216.885703 
L 646.179374 210.452589 
z
" style="fill:#065d4c;fill-opacity:0.8;"/>
    <path clip-path="url(#pba11d5df14)" d="M 632.676031 226.484794 
L 656.586073 232.114609 
L 669.865007 222.404455 
L 646.115524 216.885703 
z
" style="fill:#0aa384;fill-opacity:0.8;"/>
    <path clip-path="url(#pba11d5df14)" d="M 632.705574 220.01225 
L 646.179374 210.452589 
L 669.990718 215.948611 
L 656.678321 225.619167 
z
" style="fill:#08745e;fill-opacity:0.8;"/>
    <path clip-path="url(#pba11d5df14)" d="M 656.678321 225.619167 
L 669.990718 215.948611 
L 669.865007 222.404455 
L 656.586073 232.114609 
z
" style="fill:#0cba97;fill-opacity:0.8;"/>
    <path clip-path="url(#pba11d5df14)" d="M 632.705574 220.01225 
L 656.678321 225.619167 
L 656.586073 232.114609 
L 632.676031 226.484794 
z
" style="fill:#065d4c;fill-opacity:0.8;"/>
   </g>
   <g id="Poly3DCollection_34">
    <path clip-path="url(#pba11d5df14)" d="M 481.610476 189.022077 
L 660.432168 231.041903 
L 756.747651 160.485883 
L 586.479064 124.210662 
z
" style="fill-opacity:0.2;"/>
   </g>
  </g>
 </g>
 <defs>
  <clipPath id="p984bbc3158">
   <rect height="277.2" width="380.454545" x="-30.6" y="-14.4"/>
  </clipPath>
  <clipPath id="pba11d5df14">
   <rect height="277.2" width="380.454545" x="425.945455" y="-14.4"/>
  </clipPath>
 </defs>
</svg>
