<?xml version="1.0" encoding="utf-8" standalone="no"?>
<!DOCTYPE svg PUBLIC "-//W3C//DTD SVG 1.1//EN"
  "http://www.w3.org/Graphics/SVG/1.1/DTD/svg11.dtd">
<!-- Created with matplotlib (https://matplotlib.org/) -->
<svg height="302.4pt" version="1.1" viewBox="0 0 820.8 302.4" width="820.8pt" xmlns="http://www.w3.org/2000/svg" xmlns:xlink="http://www.w3.org/1999/xlink">
 <defs>
  <style type="text/css">
*{stroke-linecap:butt;stroke-linejoin:round;}
  </style>
 </defs>
 <g id="figure_1">
  <g id="patch_1">
   <path d="M 0 302.4 
L 820.8 302.4 
L 820.8 0 
L 0 0 
z
" style="fill:#ffffff;"/>
  </g>
  <g id="patch_2">
   <path d="M -30.6 262.8 
L 349.854545 262.8 
L 349.854545 -14.4 
L -30.6 -14.4 
z
" style="fill:#ffffff;"/>
  </g>
  <g id="pane3d_1">
   <g id="patch_3">
    <path d="M 19.835129 201.548569 
L 128.723211 133.58541 
L 126.910339 3.718968 
L 11.951034 64.782468 
" style="fill:#f2f2f2;opacity:0.5;stroke:#f2f2f2;stroke-linejoin:miter;"/>
   </g>
  </g>
  <g id="pane3d_2">
   <g id="patch_4">
    <path d="M 128.723211 133.58541 
L 305.111665 171.581202 
L 312.491547 37.79869 
L 126.910339 3.718968 
" style="fill:#e6e6e6;opacity:0.5;stroke:#e6e6e6;stroke-linejoin:miter;"/>
   </g>
  </g>
  <g id="pane3d_3">
   <g id="patch_5">
    <path d="M 19.835129 201.548569 
L 205.419617 245.80086 
L 305.111665 171.581202 
L 128.723211 133.58541 
" style="fill:#ececec;opacity:0.5;stroke:#ececec;stroke-linejoin:miter;"/>
   </g>
  </g>
  <g id="axis3d_1">
   <g id="line2d_1">
    <path d="M 19.835129 201.548569 
L 205.419617 245.80086 
" style="fill:none;stroke:#000000;stroke-linecap:square;stroke-width:0.8;"/>
   </g>
   <g id="Line3DCollection_1">
    <path d="M 42.295817 206.90428 
L 150.133942 138.19749 
L 149.393845 7.847789 
" style="fill:none;stroke:#b0b0b0;stroke-width:0.8;"/>
    <path d="M 87.512337 217.686079 
L 193.184014 147.470895 
L 194.636898 16.156123 
" style="fill:none;stroke:#b0b0b0;stroke-width:0.8;"/>
    <path d="M 133.765289 228.715013 
L 237.148096 156.941187 
L 240.890183 24.649974 
" style="fill:none;stroke:#b0b0b0;stroke-width:0.8;"/>
    <path d="M 181.090721 239.999678 
L 282.055608 166.614702 
L 288.187917 33.335625 
" style="fill:none;stroke:#b0b0b0;stroke-width:0.8;"/>
   </g>
   <g id="xtick_1">
    <g id="line2d_2">
     <path d="M 43.225084 206.312217 
L 40.433807 208.09062 
" style="fill:none;stroke:#000000;stroke-linecap:square;stroke-width:0.8;"/>
    </g>
    <g id="text_1">
     <!-- 00 -->
     <defs>
      <path d="M 42 31.84375 
C 42 37.96875 41.90625 48.421875 37.703125 56.453125 
C 34 63.484375 28.09375 66 22.90625 66 
C 18.09375 66 12 63.78125 8.203125 56.5625 
C 4.203125 49.015625 3.796875 39.671875 3.796875 31.84375 
C 3.796875 26.109375 3.90625 17.375 7 9.734375 
C 11.296875 -0.609375 19 -2 22.90625 -2 
C 27.5 -2 34.5 -0.109375 38.59375 9.4375 
C 41.59375 16.375 42 24.5 42 31.84375 
z
M 22.90625 -0.40625 
C 16.5 -0.40625 12.703125 5.125 11.296875 12.75 
C 10.203125 18.6875 10.203125 27.328125 10.203125 32.953125 
C 10.203125 40.6875 10.203125 47.109375 11.5 53.234375 
C 13.40625 61.78125 19 64.390625 22.90625 64.390625 
C 27 64.390625 32.296875 61.671875 34.203125 53.4375 
C 35.5 47.71875 35.59375 40.984375 35.59375 32.953125 
C 35.59375 26.421875 35.59375 18.375 34.40625 12.453125 
C 32.296875 1.5 26.40625 -0.40625 22.90625 -0.40625 
z
" id="CMR17-48"/>
     </defs>
     <g transform="translate(23.330362 237.14703)rotate(-45)scale(0.14 -0.14)">
      <use transform="scale(0.996264)" xlink:href="#CMR17-48"/>
      <use transform="translate(45.690477 0)scale(0.996264)" xlink:href="#CMR17-48"/>
     </g>
    </g>
   </g>
   <g id="xtick_2">
    <g id="line2d_3">
     <path d="M 88.423674 217.080527 
L 85.686217 218.899473 
" style="fill:none;stroke:#000000;stroke-linecap:square;stroke-width:0.8;"/>
    </g>
    <g id="text_2">
     <!-- 01 -->
     <defs>
      <path d="M 26.59375 63.796875 
C 26.59375 65.890625 26.5 66 25.09375 66 
C 21.203125 61.359375 15.296875 59.890625 9.703125 59.6875 
C 9.40625 59.6875 8.90625 59.6875 8.796875 59.5 
C 8.703125 59.296875 8.703125 59.09375 8.703125 57 
C 11.796875 57 17 57.59375 21 59.984375 
L 21 7.296875 
C 21 3.796875 20.796875 2.59375 12.203125 2.59375 
L 9.203125 2.59375 
L 9.203125 0 
C 14 0.09375 19 0.1875 23.796875 0.1875 
C 28.59375 0.1875 33.59375 0.09375 38.40625 0 
L 38.40625 2.59375 
L 35.40625 2.59375 
C 26.796875 2.59375 26.59375 3.6875 26.59375 7.296875 
z
" id="CMR17-49"/>
     </defs>
     <g transform="translate(68.542787 248.103782)rotate(-45)scale(0.14 -0.14)">
      <use transform="scale(0.996264)" xlink:href="#CMR17-48"/>
      <use transform="translate(45.690477 0)scale(0.996264)" xlink:href="#CMR17-49"/>
     </g>
    </g>
   </g>
   <g id="xtick_3">
    <g id="line2d_4">
     <path d="M 134.657625 228.095506 
L 131.977203 229.956397 
" style="fill:none;stroke:#000000;stroke-linecap:square;stroke-width:0.8;"/>
    </g>
    <g id="text_3">
     <!-- 10 -->
     <g transform="translate(114.7934 259.312128)rotate(-45)scale(0.14 -0.14)">
      <use transform="scale(0.996264)" xlink:href="#CMR17-49"/>
      <use transform="translate(45.690477 0)scale(0.996264)" xlink:href="#CMR17-48"/>
     </g>
    </g>
   </g>
   <g id="xtick_4">
    <g id="line2d_5">
     <path d="M 181.962926 239.365727 
L 179.342936 241.270032 
" style="fill:none;stroke:#000000;stroke-linecap:square;stroke-width:0.8;"/>
    </g>
    <g id="text_4">
     <!-- 11 -->
     <g transform="translate(162.118375 270.780834)rotate(-45)scale(0.14 -0.14)">
      <use transform="scale(0.996264)" xlink:href="#CMR17-49"/>
      <use transform="translate(45.690477 0)scale(0.996264)" xlink:href="#CMR17-49"/>
     </g>
    </g>
   </g>
  </g>
  <g id="axis3d_2">
   <g id="line2d_6">
    <path d="M 305.111665 171.581202 
L 205.419617 245.80086 
" style="fill:none;stroke:#000000;stroke-linecap:square;stroke-width:0.8;"/>
   </g>
   <g id="Line3DCollection_2">
    <path d="M 27.455231 56.547028 
L 34.471044 192.413474 
L 218.858418 235.795817 
" style="fill:none;stroke:#b0b0b0;stroke-width:0.8;"/>
    <path d="M 57.232024 40.730342 
L 62.623407 174.842005 
L 244.674037 216.576366 
" style="fill:none;stroke:#b0b0b0;stroke-width:0.8;"/>
    <path d="M 85.85589 25.526062 
L 89.739382 157.917404 
L 269.496985 198.095948 
" style="fill:none;stroke:#b0b0b0;stroke-width:0.8;"/>
    <path d="M 113.392516 10.899296 
L 115.875164 141.604597 
L 293.383438 180.312741 
" style="fill:none;stroke:#b0b0b0;stroke-width:0.8;"/>
   </g>
   <g id="xtick_5">
    <g id="line2d_7">
     <path d="M 217.315598 235.432825 
L 221.947489 236.522608 
" style="fill:none;stroke:#000000;stroke-linecap:square;stroke-width:0.8;"/>
    </g>
    <g id="text_5">
     <!-- 00 -->
     <g transform="translate(232.650369 248.348363)rotate(-337.5)scale(0.14 -0.14)">
      <use transform="scale(0.996264)" xlink:href="#CMR17-48"/>
      <use transform="translate(45.690477 0)scale(0.996264)" xlink:href="#CMR17-48"/>
     </g>
    </g>
   </g>
   <g id="xtick_6">
    <g id="line2d_8">
     <path d="M 243.15208 216.227463 
L 247.72127 217.274932 
" style="fill:none;stroke:#000000;stroke-linecap:square;stroke-width:0.8;"/>
    </g>
    <g id="text_6">
     <!-- 01 -->
     <g transform="translate(258.203921 228.903937)rotate(-337.5)scale(0.14 -0.14)">
      <use transform="scale(0.996264)" xlink:href="#CMR17-48"/>
      <use transform="translate(45.690477 0)scale(0.996264)" xlink:href="#CMR17-49"/>
     </g>
    </g>
   </g>
   <g id="xtick_7">
    <g id="line2d_9">
     <path d="M 267.995442 197.76033 
L 272.503283 198.767901 
" style="fill:none;stroke:#000000;stroke-linecap:square;stroke-width:0.8;"/>
    </g>
    <g id="text_7">
     <!-- 10 -->
     <g transform="translate(282.775332 210.206849)rotate(-337.5)scale(0.14 -0.14)">
      <use transform="scale(0.996264)" xlink:href="#CMR17-49"/>
      <use transform="translate(45.690477 0)scale(0.996264)" xlink:href="#CMR17-48"/>
     </g>
    </g>
   </g>
   <g id="xtick_8">
    <g id="line2d_10">
     <path d="M 291.901865 179.989663 
L 296.349691 180.959573 
" style="fill:none;stroke:#000000;stroke-linecap:square;stroke-width:0.8;"/>
    </g>
    <g id="text_8">
     <!-- 11 -->
     <g transform="translate(306.420159 192.214827)rotate(-337.5)scale(0.14 -0.14)">
      <use transform="scale(0.996264)" xlink:href="#CMR17-49"/>
      <use transform="translate(45.690477 0)scale(0.996264)" xlink:href="#CMR17-49"/>
     </g>
    </g>
   </g>
  </g>
  <g id="axis3d_3">
   <g id="line2d_11">
    <path d="M 305.111665 171.581202 
L 312.491547 37.79869 
" style="fill:none;stroke:#000000;stroke-linecap:square;stroke-width:0.8;"/>
   </g>
   <g id="text_9">
    <!-- Re[$\rho$] -->
    <defs>
     <path d="M 39.203125 33.6875 
C 48.703125 35.59375 56.703125 42.015625 56.703125 50.046875 
C 56.703125 59.46875 46.09375 68 32.09375 68 
L 5.203125 68 
L 5.203125 65.390625 
C 12.09375 65.390625 13.203125 65.390625 13.203125 60.875 
L 13.203125 6.6875 
C 13.203125 2.1875 12.09375 2.1875 5.203125 2.1875 
L 5.203125 -0.40625 
C 8.09375 -0.203125 13.296875 -0.203125 16.40625 -0.203125 
C 19.5 -0.203125 24.703125 -0.203125 27.59375 -0.40625 
L 27.59375 2.1875 
C 20.703125 2.1875 19.59375 2.1875 19.59375 6.6875 
L 19.59375 33 
L 31.296875 33 
C 37 33 40.203125 30.6875 41.59375 29.390625 
C 45.59375 25.5 45.59375 22.796875 45.59375 16 
C 45.59375 9.296875 45.59375 5.890625 48.59375 2.5 
C 52.40625 -1.609375 57.5 -2 59.703125 -2 
C 67.09375 -2 68.203125 6.296875 68.203125 8 
C 68.203125 8.59375 68.203125 9.296875 67.296875 9.296875 
C 66.5 9.296875 66.40625 8.6875 66.40625 8.296875 
C 65.90625 1.796875 63 -0.40625 59.90625 -0.40625 
C 54.40625 -0.40625 53.796875 5.890625 53.203125 12 
C 52.90625 14.09375 52.703125 15.59375 52.5 17.796875 
C 51.90625 22.796875 51.09375 30.09375 39.203125 33.6875 
z
M 31 34.59375 
L 19.59375 34.59375 
L 19.59375 61.484375 
C 19.59375 64.890625 19.796875 65.390625 23.796875 65.390625 
L 31.09375 65.390625 
C 39.40625 65.390625 49.09375 62.484375 49.09375 50.046875 
C 49.09375 37.09375 38.5 34.59375 31 34.59375 
z
" id="CMR17-82"/>
     <path d="M 38.09375 23.484375 
C 38.5 23.890625 38.5 24.09375 38.5 25.09375 
C 38.5 35.171875 33.09375 44 21.703125 44 
C 11.09375 44 2.703125 33.984375 2.703125 21.78125 
C 2.703125 8.65625 12.203125 -1 22.796875 -1 
C 34 -1 38.40625 9.671875 38.40625 11.796875 
C 38.40625 12.5 37.796875 12.5 37.59375 12.5 
C 36.90625 12.5 36.796875 12.296875 36.40625 11.078125 
C 34.203125 4.21875 28.703125 0.796875 23.5 0.796875 
C 19.203125 0.796875 14.90625 3.21875 12.203125 7.65625 
C 9.09375 12.796875 9.09375 18.75 9.09375 23.484375 
z
M 9.203125 25 
C 9.90625 39.234375 17.59375 42.390625 21.59375 42.390625 
C 28.40625 42.390625 33 36.0625 33.09375 25 
z
" id="CMR17-101"/>
     <path d="M 23.5 -25 
L 23.5 -21.5 
L 14.09375 -21.5 
L 14.09375 71.484375 
L 23.5 71.484375 
L 23.5 75 
L 10.59375 75 
L 10.59375 -25 
z
" id="CMR17-91"/>
     <path d="M 3.09375 -16.953125 
C 3 -17.4375 2.796875 -18.03125 2.796875 -18.609375 
C 2.796875 -20.109375 4 -21.109375 5.5 -21.109375 
C 7 -21.109375 8.40625 -20.109375 9 -18.71875 
C 9.40625 -17.828125 12.203125 -6.09375 15.40625 6.078125 
C 17.40625 1.09375 21.09375 -1 25 -1 
C 36.296875 -1 49.09375 12.96875 49.09375 28.03125 
C 49.09375 38.703125 42.59375 44 35.703125 44 
C 26.90625 44 16.203125 34.90625 12.90625 21.640625 
z
M 24.90625 1 
C 18.09375 1 16.40625 8.875 16.40625 10.078125 
C 16.40625 10.671875 18.90625 20.140625 19.203125 21.640625 
C 24.296875 41.5 34.09375 41.984375 35.59375 41.984375 
C 40.09375 41.984375 42.59375 37.90625 42.59375 32.015625 
C 42.59375 26.9375 39.90625 17.046875 38.203125 12.859375 
C 35.203125 5.984375 30 1 24.90625 1 
z
" id="CMMI12-26"/>
     <path d="M 14.296875 75 
L 1.40625 75 
L 1.40625 71.484375 
L 10.796875 71.484375 
L 10.796875 -21.5 
L 1.40625 -21.5 
L 1.40625 -25 
L 14.296875 -25 
z
" id="CMR17-93"/>
    </defs>
    <g transform="translate(352.486567 117.931831)rotate(-86.842577)scale(0.14 -0.14)">
     <use transform="scale(0.996264)" xlink:href="#CMR17-82"/>
     <use transform="translate(67.791102 0)scale(0.996264)" xlink:href="#CMR17-101"/>
     <use transform="translate(108.276762 0)scale(0.996264)" xlink:href="#CMR17-91"/>
     <use transform="translate(133.147821 0)scale(0.996264)" xlink:href="#CMMI12-26"/>
     <use transform="translate(183.462194 0)scale(0.996264)" xlink:href="#CMR17-93"/>
    </g>
   </g>
   <g id="Line3DCollection_3">
    <path d="M 305.305146 168.073782 
L 128.675581 130.17343 
L 19.628775 197.968933 
" style="fill:none;stroke:#b0b0b0;stroke-width:0.8;"/>
    <path d="M 307.05718 136.312909 
L 128.244527 99.294543 
L 17.759325 165.539416 
" style="fill:none;stroke:#b0b0b0;stroke-width:0.8;"/>
    <path d="M 308.853449 103.75013 
L 127.803053 67.669176 
L 15.841088 132.26359 
" style="fill:none;stroke:#b0b0b0;stroke-width:0.8;"/>
    <path d="M 310.695651 70.354686 
L 127.350775 35.269928 
L 13.87213 98.107891 
" style="fill:none;stroke:#b0b0b0;stroke-width:0.8;"/>
   </g>
   <g id="xtick_9">
    <g id="line2d_12">
     <path d="M 303.831402 167.757553 
L 308.255702 168.706899 
" style="fill:none;stroke:#000000;stroke-linecap:square;stroke-width:0.8;"/>
    </g>
    <g id="text_10">
     <!-- $0.0$ -->
     <defs>
      <path d="M 18.40625 4.796875 
C 18.40625 7.6875 16 9.6875 13.59375 9.6875 
C 10.703125 9.6875 8.703125 7.296875 8.703125 4.890625 
C 8.703125 2 11.09375 0 13.5 0 
C 16.40625 0 18.40625 2.390625 18.40625 4.796875 
z
" id="CMMI12-58"/>
     </defs>
     <g transform="translate(315.114516 175.820063)scale(0.14 -0.14)">
      <use transform="scale(0.996264)" xlink:href="#CMR17-48"/>
      <use transform="translate(45.690477 0)scale(0.996264)" xlink:href="#CMMI12-58"/>
      <use transform="translate(72.787654 0)scale(0.996264)" xlink:href="#CMR17-48"/>
     </g>
    </g>
   </g>
   <g id="xtick_10">
    <g id="line2d_13">
     <path d="M 305.564454 136.003881 
L 310.045775 136.931618 
" style="fill:none;stroke:#000000;stroke-linecap:square;stroke-width:0.8;"/>
    </g>
    <g id="text_11">
     <!-- $0.1$ -->
     <g transform="translate(317.09335 144.103397)scale(0.14 -0.14)">
      <use transform="scale(0.996264)" xlink:href="#CMR17-48"/>
      <use transform="translate(45.690477 0)scale(0.996264)" xlink:href="#CMMI12-58"/>
      <use transform="translate(72.787654 0)scale(0.996264)" xlink:href="#CMR17-49"/>
     </g>
    </g>
   </g>
   <g id="xtick_11">
    <g id="line2d_14">
     <path d="M 307.341248 103.448769 
L 311.881078 104.353497 
" style="fill:none;stroke:#000000;stroke-linecap:square;stroke-width:0.8;"/>
    </g>
    <g id="text_12">
     <!-- $0.2$ -->
     <defs>
      <path d="M 41.703125 15.46875 
L 39.90625 15.46875 
C 38.90625 8.390625 38.09375 7.1875 37.703125 6.59375 
C 37.203125 5.796875 30 5.796875 28.59375 5.796875 
L 9.40625 5.796875 
C 13 9.6875 20 16.765625 28.5 24.9375 
C 34.59375 30.71875 41.703125 37.5 41.703125 47.390625 
C 41.703125 59.1875 32.296875 66 21.796875 66 
C 10.796875 66 4.09375 56.296875 4.09375 47.296875 
C 4.09375 43.390625 7 42.890625 8.203125 42.890625 
C 9.203125 42.890625 12.203125 43.484375 12.203125 46.984375 
C 12.203125 50.09375 9.59375 51 8.203125 51 
C 7.59375 51 7 50.890625 6.59375 50.6875 
C 8.5 59.1875 14.296875 63.390625 20.40625 63.390625 
C 29.09375 63.390625 34.796875 56.5 34.796875 47.390625 
C 34.796875 38.703125 29.703125 31.21875 24 24.734375 
L 4.09375 2.296875 
L 4.09375 0 
L 39.296875 0 
z
" id="CMR17-50"/>
     </defs>
     <g transform="translate(319.122037 111.587685)scale(0.14 -0.14)">
      <use transform="scale(0.996264)" xlink:href="#CMR17-48"/>
      <use transform="translate(45.690477 0)scale(0.996264)" xlink:href="#CMMI12-58"/>
      <use transform="translate(72.787654 0)scale(0.996264)" xlink:href="#CMR17-50"/>
     </g>
    </g>
   </g>
   <g id="xtick_12">
    <g id="line2d_15">
     <path d="M 309.16346 70.061487 
L 313.763344 70.941718 
" style="fill:none;stroke:#000000;stroke-linecap:square;stroke-width:0.8;"/>
    </g>
    <g id="text_13">
     <!-- $0.3$ -->
     <defs>
      <path d="M 22.09375 34 
C 31 34 34.90625 26.140625 34.90625 17.09375 
C 34.90625 5.03125 28.5 0.390625 22.703125 0.390625 
C 17.40625 0.390625 8.796875 3.015625 6.09375 10.796875 
C 6.59375 10.59375 7.09375 10.59375 7.59375 10.59375 
C 10 10.59375 11.796875 12.1875 11.796875 14.796875 
C 11.796875 17.6875 9.59375 19 7.59375 19 
C 5.90625 19 3.296875 18.1875 3.296875 14.484375 
C 3.296875 5.234375 12.296875 -2 22.90625 -2 
C 34 -2 42.5 6.75 42.5 16.984375 
C 42.5 26.84375 34.5 34 25 35.09375 
C 32.59375 36.671875 39.90625 43.375 39.90625 52.390625 
C 39.90625 60.25 32 66 23 66 
C 13.90625 66 5.90625 60.34375 5.90625 52.296875 
C 5.90625 48.796875 8.5 48.1875 9.796875 48.1875 
C 11.90625 48.1875 13.703125 49.484375 13.703125 52.09375 
C 13.703125 54.6875 11.90625 56 9.796875 56 
C 9.40625 56 8.90625 56 8.5 55.796875 
C 11.40625 62.484375 19.296875 63.6875 22.796875 63.6875 
C 26.296875 63.6875 32.90625 61.96875 32.90625 52.296875 
C 32.90625 49.484375 32.5 44.546875 29.09375 40.21875 
C 26.09375 36.390625 22.703125 36.1875 19.40625 35.890625 
C 18.90625 35.890625 16.59375 35.6875 16.203125 35.6875 
C 15.5 35.59375 15.09375 35.5 15.09375 34.796875 
C 15.09375 34.09375 15.203125 34 17.203125 34 
z
" id="CMR17-51"/>
     </defs>
     <g transform="translate(321.202485 78.242346)scale(0.14 -0.14)">
      <use transform="scale(0.996264)" xlink:href="#CMR17-48"/>
      <use transform="translate(45.690477 0)scale(0.996264)" xlink:href="#CMMI12-58"/>
      <use transform="translate(72.787654 0)scale(0.996264)" xlink:href="#CMR17-51"/>
     </g>
    </g>
   </g>
  </g>
  <g id="axes_1">
   <g id="Poly3DCollection_1">
    <path clip-path="url(#p9c6b967dff)" d="M 133.04017 136.535008 
L 133.051747 137.476151 
L 154.438688 142.098609 
L 154.434897 141.154228 
z
" style="fill:#ba0c2f;fill-opacity:0.8;"/>
    <path clip-path="url(#p9c6b967dff)" d="M 120.254743 144.566553 
L 120.271134 145.513314 
L 133.051747 137.476151 
L 133.04017 136.535008 
z
" style="fill:#5d0618;fill-opacity:0.8;"/>
    <path clip-path="url(#p9c6b967dff)" d="M 120.271134 145.513314 
L 141.786381 150.220613 
L 154.438688 142.098609 
L 133.051747 137.476151 
z
" style="fill:#a30a29;fill-opacity:0.8;"/>
    <path clip-path="url(#p9c6b967dff)" d="M 120.254743 144.566553 
L 133.04017 136.535008 
L 154.434897 141.154228 
L 141.77787 149.270587 
z
" style="fill:#74081d;fill-opacity:0.8;"/>
    <path clip-path="url(#p9c6b967dff)" d="M 141.77787 149.270587 
L 154.434897 141.154228 
L 154.438688 142.098609 
L 141.786381 150.220613 
z
" style="fill:#ba0c2f;fill-opacity:0.8;"/>
    <path clip-path="url(#p9c6b967dff)" d="M 120.254743 144.566553 
L 141.77787 149.270587 
L 141.786381 150.220613 
L 120.271134 145.513314 
z
" style="fill:#5d0618;fill-opacity:0.8;"/>
   </g>
   <g id="Poly3DCollection_2">
    <path clip-path="url(#p9c6b967dff)" d="M 176.055115 145.822133 
L 176.064573 143.668712 
L 197.932321 148.378631 
L 197.904408 150.539495 
z
" style="fill:#5d0618;fill-opacity:0.8;"/>
    <path clip-path="url(#p9c6b967dff)" d="M 163.529931 154.024656 
L 163.528884 151.858319 
L 176.064573 143.668712 
L 176.055115 145.822133 
z
" style="fill:#ba0c2f;fill-opacity:0.8;"/>
    <path clip-path="url(#p9c6b967dff)" d="M 163.529931 154.024656 
L 176.055115 145.822133 
L 197.904408 150.539495 
L 185.514597 158.829562 
z
" style="fill:#74081d;fill-opacity:0.8;"/>
    <path clip-path="url(#p9c6b967dff)" d="M 163.528884 151.858319 
L 185.532235 156.655718 
L 197.932321 148.378631 
L 176.064573 143.668712 
z
" style="fill:#a30a29;fill-opacity:0.8;"/>
    <path clip-path="url(#p9c6b967dff)" d="M 185.514597 158.829562 
L 197.904408 150.539495 
L 197.932321 148.378631 
L 185.532235 156.655718 
z
" style="fill:#5d0618;fill-opacity:0.8;"/>
    <path clip-path="url(#p9c6b967dff)" d="M 163.529931 154.024656 
L 185.514597 158.829562 
L 185.532235 156.655718 
L 163.528884 151.858319 
z
" style="fill:#ba0c2f;fill-opacity:0.8;"/>
   </g>
   <g id="Poly3DCollection_3">
    <path clip-path="url(#p9c6b967dff)" d="M 107.234104 152.745854 
L 107.181326 150.394791 
L 128.853659 155.177851 
L 128.886749 157.537059 
z
" style="fill:#5d0618;fill-opacity:0.8;"/>
    <path clip-path="url(#p9c6b967dff)" d="M 93.9717 161.077027 
L 93.906154 158.71183 
L 107.181326 150.394791 
L 107.234104 152.745854 
z
" style="fill:#ba0c2f;fill-opacity:0.8;"/>
    <path clip-path="url(#p9c6b967dff)" d="M 93.9717 161.077027 
L 107.234104 152.745854 
L 128.886749 157.537059 
L 115.75498 165.957848 
z
" style="fill:#74081d;fill-opacity:0.8;"/>
    <path clip-path="url(#p9c6b967dff)" d="M 93.906154 158.71183 
L 115.709356 163.584437 
L 128.853659 155.177851 
L 107.181326 150.394791 
z
" style="fill:#a30a29;fill-opacity:0.8;"/>
    <path clip-path="url(#p9c6b967dff)" d="M 115.75498 165.957848 
L 128.886749 157.537059 
L 128.853659 155.177851 
L 115.709356 163.584437 
z
" style="fill:#5d0618;fill-opacity:0.8;"/>
    <path clip-path="url(#p9c6b967dff)" d="M 93.9717 161.077027 
L 115.75498 165.957848 
L 115.709356 163.584437 
L 93.906154 158.71183 
z
" style="fill:#ba0c2f;fill-opacity:0.8;"/>
   </g>
   <g id="Poly3DCollection_4">
    <path clip-path="url(#p9c6b967dff)" d="M 219.986435 155.307107 
L 220.233705 143.841354 
L 242.654016 148.620047 
L 242.304934 160.125774 
z
" style="fill:#5d0618;fill-opacity:0.8;"/>
    <path clip-path="url(#p9c6b967dff)" d="M 207.73562 163.686126 
L 207.92983 152.15101 
L 220.233705 143.841354 
L 219.986435 155.307107 
z
" style="fill:#ba0c2f;fill-opacity:0.8;"/>
    <path clip-path="url(#p9c6b967dff)" d="M 207.73562 163.686126 
L 219.986435 155.307107 
L 242.304934 160.125774 
L 230.196832 168.595185 
z
" style="fill:#74081d;fill-opacity:0.8;"/>
    <path clip-path="url(#p9c6b967dff)" d="M 207.92983 152.15101 
L 230.494171 157.019753 
L 242.654016 148.620047 
L 220.233705 143.841354 
z
" style="fill:#a30a29;fill-opacity:0.8;"/>
    <path clip-path="url(#p9c6b967dff)" d="M 230.196832 168.595185 
L 242.304934 160.125774 
L 242.654016 148.620047 
L 230.494171 157.019753 
z
" style="fill:#5d0618;fill-opacity:0.8;"/>
    <path clip-path="url(#p9c6b967dff)" d="M 207.73562 163.686126 
L 230.196832 168.595185 
L 230.494171 157.019753 
L 207.92983 152.15101 
z
" style="fill:#ba0c2f;fill-opacity:0.8;"/>
   </g>
   <g id="Poly3DCollection_5">
    <path clip-path="url(#p9c6b967dff)" d="M 150.771848 162.3797 
L 150.770626 162.156854 
L 172.893874 167.050991 
L 172.893161 167.27461 
z
" style="fill:#5d0618;fill-opacity:0.8;"/>
    <path clip-path="url(#p9c6b967dff)" d="M 137.774308 170.89156 
L 137.77193 170.667373 
L 150.770626 162.156854 
L 150.771848 162.3797 
z
" style="fill:#ba0c2f;fill-opacity:0.8;"/>
    <path clip-path="url(#p9c6b967dff)" d="M 137.774308 170.89156 
L 150.771848 162.3797 
L 172.893161 167.27461 
L 160.033544 175.879026 
z
" style="fill:#74081d;fill-opacity:0.8;"/>
    <path clip-path="url(#p9c6b967dff)" d="M 137.77193 170.667373 
L 160.033125 175.654059 
L 172.893874 167.050991 
L 150.770626 162.156854 
z
" style="fill:#a30a29;fill-opacity:0.8;"/>
    <path clip-path="url(#p9c6b967dff)" d="M 160.033544 175.879026 
L 172.893161 167.27461 
L 172.893874 167.050991 
L 160.033125 175.654059 
z
" style="fill:#5d0618;fill-opacity:0.8;"/>
    <path clip-path="url(#p9c6b967dff)" d="M 137.774308 170.89156 
L 160.033544 175.879026 
L 160.033125 175.654059 
L 137.77193 170.667373 
z
" style="fill:#ba0c2f;fill-opacity:0.8;"/>
   </g>
   <g id="Poly3DCollection_6">
    <path clip-path="url(#p9c6b967dff)" d="M 80.460736 169.56434 
L 80.030536 156.571987 
L 102.055644 161.49944 
L 102.375759 174.537316 
z
" style="fill:#5d0618;fill-opacity:0.8;"/>
    <path clip-path="url(#p9c6b967dff)" d="M 66.694158 178.212225 
L 66.188952 165.140885 
L 80.030536 156.571987 
L 80.460736 169.56434 
z
" style="fill:#ba0c2f;fill-opacity:0.8;"/>
    <path clip-path="url(#p9c6b967dff)" d="M 66.694158 178.212225 
L 80.460736 169.56434 
L 102.375759 174.537316 
L 88.742026 183.279991 
z
" style="fill:#74081d;fill-opacity:0.8;"/>
    <path clip-path="url(#p9c6b967dff)" d="M 66.188952 165.140885 
L 88.348232 170.162748 
L 102.055644 161.49944 
L 80.030536 156.571987 
z
" style="fill:#a30a29;fill-opacity:0.8;"/>
    <path clip-path="url(#p9c6b967dff)" d="M 88.742026 183.279991 
L 102.375759 174.537316 
L 102.055644 161.49944 
L 88.348232 170.162748 
z
" style="fill:#5d0618;fill-opacity:0.8;"/>
    <path clip-path="url(#p9c6b967dff)" d="M 66.694158 178.212225 
L 88.742026 183.279991 
L 88.348232 170.162748 
L 66.188952 165.140885 
z
" style="fill:#ba0c2f;fill-opacity:0.8;"/>
   </g>
   <g id="Poly3DCollection_7">
    <path clip-path="url(#p9c6b967dff)" d="M 252.902148 173.557594 
L 264.863726 164.996321 
L 287.66671 169.91959 
L 275.855569 178.574229 
z
" style="fill:#74081d;fill-opacity:0.8;"/>
    <path clip-path="url(#p9c6b967dff)" d="M 264.863726 164.996321 
L 266.450672 124.556179 
L 289.625897 129.335567 
L 287.66671 169.91959 
z
" style="fill:#5d0618;fill-opacity:0.8;"/>
    <path clip-path="url(#p9c6b967dff)" d="M 252.902148 173.557594 
L 254.312812 132.867778 
L 266.450672 124.556179 
L 264.863726 164.996321 
z
" style="fill:#ba0c2f;fill-opacity:0.8;"/>
    <path clip-path="url(#p9c6b967dff)" d="M 275.855569 178.574229 
L 287.66671 169.91959 
L 289.625897 129.335567 
L 277.643496 137.739264 
z
" style="fill:#5d0618;fill-opacity:0.8;"/>
    <path clip-path="url(#p9c6b967dff)" d="M 252.902148 173.557594 
L 275.855569 178.574229 
L 277.643496 137.739264 
L 254.312812 132.867778 
z
" style="fill:#ba0c2f;fill-opacity:0.8;"/>
    <path clip-path="url(#p9c6b967dff)" d="M 254.312812 132.867778 
L 277.643496 137.739264 
L 289.625897 129.335567 
L 266.450672 124.556179 
z
" style="fill:#a30a29;fill-opacity:0.8;"/>
   </g>
   <g id="Poly3DCollection_8">
    <path clip-path="url(#p9c6b967dff)" d="M 240.71327 182.281553 
L 241.063598 170.594977 
L 264.278192 175.666614 
L 263.818749 187.394235 
z
" style="fill:#5d0618;fill-opacity:0.8;"/>
    <path clip-path="url(#p9c6b967dff)" d="M 228.290553 191.172879 
L 228.586399 179.415089 
L 241.063598 170.594977 
L 240.71327 182.281553 
z
" style="fill:#ba0c2f;fill-opacity:0.8;"/>
    <path clip-path="url(#p9c6b967dff)" d="M 228.290553 191.172879 
L 240.71327 182.281553 
L 263.818749 187.394235 
L 251.54972 196.384392 
z
" style="fill:#74081d;fill-opacity:0.8;"/>
    <path clip-path="url(#p9c6b967dff)" d="M 228.586399 179.415089 
L 251.956154 184.585225 
L 264.278192 175.666614 
L 241.063598 170.594977 
z
" style="fill:#a30a29;fill-opacity:0.8;"/>
    <path clip-path="url(#p9c6b967dff)" d="M 251.54972 196.384392 
L 263.818749 187.394235 
L 264.278192 175.666614 
L 251.956154 184.585225 
z
" style="fill:#5d0618;fill-opacity:0.8;"/>
    <path clip-path="url(#p9c6b967dff)" d="M 228.290553 191.172879 
L 251.54972 196.384392 
L 251.956154 184.585225 
L 228.586399 179.415089 
z
" style="fill:#ba0c2f;fill-opacity:0.8;"/>
   </g>
   <g id="Poly3DCollection_9">
    <path clip-path="url(#p9c6b967dff)" d="M 169.575094 189.78625 
L 169.575526 189.559134 
L 192.475611 194.754378 
L 192.473106 194.982287 
z
" style="fill:#5d0618;fill-opacity:0.8;"/>
    <path clip-path="url(#p9c6b967dff)" d="M 156.362862 198.822836 
L 156.362099 198.594344 
L 169.575526 189.559134 
L 169.575094 189.78625 
z
" style="fill:#ba0c2f;fill-opacity:0.8;"/>
    <path clip-path="url(#p9c6b967dff)" d="M 156.362862 198.822836 
L 169.575094 189.78625 
L 192.473106 194.982287 
L 179.409376 204.120143 
z
" style="fill:#74081d;fill-opacity:0.8;"/>
    <path clip-path="url(#p9c6b967dff)" d="M 156.362099 198.594344 
L 179.410712 203.890852 
L 192.475611 194.754378 
L 169.575526 189.559134 
z
" style="fill:#a30a29;fill-opacity:0.8;"/>
    <path clip-path="url(#p9c6b967dff)" d="M 179.409376 204.120143 
L 192.473106 194.982287 
L 192.475611 194.754378 
L 179.410712 203.890852 
z
" style="fill:#5d0618;fill-opacity:0.8;"/>
    <path clip-path="url(#p9c6b967dff)" d="M 156.362862 198.822836 
L 179.409376 204.120143 
L 179.410712 203.890852 
L 156.362099 198.594344 
z
" style="fill:#ba0c2f;fill-opacity:0.8;"/>
   </g>
   <g id="Poly3DCollection_10">
    <path clip-path="url(#p9c6b967dff)" d="M 111.03338 188.403723 
L 124.530508 179.564692 
L 146.928938 184.647364 
L 133.572277 193.584354 
z
" style="fill:#74081d;fill-opacity:0.8;"/>
    <path clip-path="url(#p9c6b967dff)" d="M 124.530508 179.564692 
L 123.871577 138.033061 
L 146.635167 142.967266 
L 146.928938 184.647364 
z
" style="fill:#5d0618;fill-opacity:0.8;"/>
    <path clip-path="url(#p9c6b967dff)" d="M 111.03338 188.403723 
L 110.144868 146.614471 
L 123.871577 138.033061 
L 124.530508 179.564692 
z
" style="fill:#ba0c2f;fill-opacity:0.8;"/>
    <path clip-path="url(#p9c6b967dff)" d="M 133.572277 193.584354 
L 146.928938 184.647364 
L 146.635167 142.967266 
L 133.053534 151.645357 
z
" style="fill:#5d0618;fill-opacity:0.8;"/>
    <path clip-path="url(#p9c6b967dff)" d="M 111.03338 188.403723 
L 133.572277 193.584354 
L 133.053534 151.645357 
L 110.144868 146.614471 
z
" style="fill:#ba0c2f;fill-opacity:0.8;"/>
    <path clip-path="url(#p9c6b967dff)" d="M 110.144868 146.614471 
L 133.053534 151.645357 
L 146.635167 142.967266 
L 123.871577 138.033061 
z
" style="fill:#a30a29;fill-opacity:0.8;"/>
   </g>
   <g id="Poly3DCollection_11">
    <path clip-path="url(#p9c6b967dff)" d="M 215.6272 200.236435 
L 215.672423 197.99969 
L 239.108111 203.305091 
L 239.041696 205.549673 
z
" style="fill:#5d0618;fill-opacity:0.8;"/>
    <path clip-path="url(#p9c6b967dff)" d="M 202.716153 209.477273 
L 202.750225 207.226931 
L 215.672423 197.99969 
L 215.6272 200.236435 
z
" style="fill:#ba0c2f;fill-opacity:0.8;"/>
    <path clip-path="url(#p9c6b967dff)" d="M 202.716153 209.477273 
L 215.6272 200.236435 
L 239.041696 205.549673 
L 226.287627 214.895245 
z
" style="fill:#74081d;fill-opacity:0.8;"/>
    <path clip-path="url(#p9c6b967dff)" d="M 202.750225 207.226931 
L 226.343178 212.637005 
L 239.108111 203.305091 
L 215.672423 197.99969 
z
" style="fill:#a30a29;fill-opacity:0.8;"/>
    <path clip-path="url(#p9c6b967dff)" d="M 226.287627 214.895245 
L 239.041696 205.549673 
L 239.108111 203.305091 
L 226.343178 212.637005 
z
" style="fill:#5d0618;fill-opacity:0.8;"/>
    <path clip-path="url(#p9c6b967dff)" d="M 202.716153 209.477273 
L 226.287627 214.895245 
L 226.343178 212.637005 
L 202.750225 207.226931 
z
" style="fill:#ba0c2f;fill-opacity:0.8;"/>
   </g>
   <g id="Poly3DCollection_12">
    <path clip-path="url(#p9c6b967dff)" d="M 97.275587 197.41346 
L 96.920642 184.1697 
L 119.71922 189.404438 
L 119.956216 202.694909 
z
" style="fill:#5d0618;fill-opacity:0.8;"/>
    <path clip-path="url(#p9c6b967dff)" d="M 83.249503 206.598896 
L 82.816593 193.274096 
L 96.920642 184.1697 
L 97.275587 197.41346 
z
" style="fill:#ba0c2f;fill-opacity:0.8;"/>
    <path clip-path="url(#p9c6b967dff)" d="M 83.249503 206.598896 
L 97.275587 197.41346 
L 119.956216 202.694909 
L 106.073126 211.984134 
z
" style="fill:#74081d;fill-opacity:0.8;"/>
    <path clip-path="url(#p9c6b967dff)" d="M 82.816593 193.274096 
L 105.759647 198.612257 
L 119.71922 189.404438 
L 96.920642 184.1697 
z
" style="fill:#a30a29;fill-opacity:0.8;"/>
    <path clip-path="url(#p9c6b967dff)" d="M 106.073126 211.984134 
L 119.956216 202.694909 
L 119.71922 189.404438 
L 105.759647 198.612257 
z
" style="fill:#5d0618;fill-opacity:0.8;"/>
    <path clip-path="url(#p9c6b967dff)" d="M 83.249503 206.598896 
L 106.073126 211.984134 
L 105.759647 198.612257 
L 82.816593 193.274096 
z
" style="fill:#ba0c2f;fill-opacity:0.8;"/>
   </g>
   <g id="Poly3DCollection_13">
    <path clip-path="url(#p9c6b967dff)" d="M 142.89259 208.03591 
L 142.871285 205.593697 
L 166.090352 210.986695 
L 166.089058 213.437478 
z
" style="fill:#5d0618;fill-opacity:0.8;"/>
    <path clip-path="url(#p9c6b967dff)" d="M 129.156643 217.430695 
L 129.121618 214.973614 
L 142.871285 205.593697 
L 142.89259 208.03591 
z
" style="fill:#ba0c2f;fill-opacity:0.8;"/>
    <path clip-path="url(#p9c6b967dff)" d="M 129.156643 217.430695 
L 142.89259 208.03591 
L 166.089058 213.437478 
L 152.504519 222.939631 
z
" style="fill:#74081d;fill-opacity:0.8;"/>
    <path clip-path="url(#p9c6b967dff)" d="M 129.121618 214.973614 
L 152.492388 220.473916 
L 166.090352 210.986695 
L 142.871285 205.593697 
z
" style="fill:#a30a29;fill-opacity:0.8;"/>
    <path clip-path="url(#p9c6b967dff)" d="M 152.504519 222.939631 
L 166.089058 213.437478 
L 166.090352 210.986695 
L 152.492388 220.473916 
z
" style="fill:#5d0618;fill-opacity:0.8;"/>
    <path clip-path="url(#p9c6b967dff)" d="M 129.156643 217.430695 
L 152.504519 222.939631 
L 152.492388 220.473916 
L 129.121618 214.973614 
z
" style="fill:#ba0c2f;fill-opacity:0.8;"/>
   </g>
   <g id="Poly3DCollection_14">
    <path clip-path="url(#p9c6b967dff)" d="M 182.536629 180.921129 
L 195.254536 172.222639 
L 217.859901 177.224657 
L 205.287592 186.018772 
z
" style="fill:#74081d;fill-opacity:0.8;"/>
    <path clip-path="url(#p9c6b967dff)" d="M 195.254536 172.222639 
L 196.787066 44.360976 
L 220.544099 48.883057 
L 217.859901 177.224657 
z
" style="fill:#5d0618;fill-opacity:0.8;"/>
    <path clip-path="url(#p9c6b967dff)" d="M 182.536629 180.921129 
L 183.438734 52.22645 
L 196.787066 44.360976 
L 195.254536 172.222639 
z
" style="fill:#ba0c2f;fill-opacity:0.8;"/>
    <path clip-path="url(#p9c6b967dff)" d="M 205.287592 186.018772 
L 217.859901 177.224657 
L 220.544099 48.883057 
L 207.356699 56.839404 
z
" style="fill:#5d0618;fill-opacity:0.8;"/>
    <path clip-path="url(#p9c6b967dff)" d="M 182.536629 180.921129 
L 205.287592 186.018772 
L 207.356699 56.839404 
L 183.438734 52.22645 
z
" style="fill:#ba0c2f;fill-opacity:0.8;"/>
    <path clip-path="url(#p9c6b967dff)" d="M 183.438734 52.22645 
L 207.356699 56.839404 
L 220.544099 48.883057 
L 196.787066 44.360976 
z
" style="fill:#a30a29;fill-opacity:0.8;"/>
   </g>
   <g id="Poly3DCollection_15">
    <path clip-path="url(#p9c6b967dff)" d="M 189.550071 218.900648 
L 189.540183 219.896865 
L 213.260712 225.42619 
L 213.280179 224.42648 
z
" style="fill:#ba0c2f;fill-opacity:0.8;"/>
    <path clip-path="url(#p9c6b967dff)" d="M 176.121323 228.512021 
L 176.116748 229.514298 
L 189.540183 219.896865 
L 189.550071 218.900648 
z
" style="fill:#5d0618;fill-opacity:0.8;"/>
    <path clip-path="url(#p9c6b967dff)" d="M 176.116748 229.514298 
L 199.997442 235.154762 
L 213.260712 225.42619 
L 189.540183 219.896865 
z
" style="fill:#a30a29;fill-opacity:0.8;"/>
    <path clip-path="url(#p9c6b967dff)" d="M 176.121323 228.512021 
L 189.550071 218.900648 
L 213.280179 224.42648 
L 200.011727 234.148967 
z
" style="fill:#74081d;fill-opacity:0.8;"/>
    <path clip-path="url(#p9c6b967dff)" d="M 200.011727 234.148967 
L 213.280179 224.42648 
L 213.260712 225.42619 
L 199.997442 235.154762 
z
" style="fill:#ba0c2f;fill-opacity:0.8;"/>
    <path clip-path="url(#p9c6b967dff)" d="M 176.121323 228.512021 
L 200.011727 234.148967 
L 199.997442 235.154762 
L 176.116748 229.514298 
z
" style="fill:#5d0618;fill-opacity:0.8;"/>
   </g>
   <g id="Poly3DCollection_16">
    <path clip-path="url(#p9c6b967dff)" d="M 25.525583 197.351851 
L 203.751969 239.600533 
L 299.769314 168.65309 
L 130.040503 132.162862 
z
" style="fill-opacity:0.15;"/>
   </g>
   <g id="Poly3DCollection_17">
    <path clip-path="url(#p9c6b967dff)" d="M 38.364582 196.008289 
L 52.664642 187.025282 
L 74.846449 192.190574 
L 60.681411 201.27395 
z
" style="fill:#74081d;fill-opacity:0.8;"/>
    <path clip-path="url(#p9c6b967dff)" d="M 52.664642 187.025282 
L 47.403698 68.355658 
L 70.601978 73.075779 
L 74.846449 192.190574 
z
" style="fill:#5d0618;fill-opacity:0.8;"/>
    <path clip-path="url(#p9c6b967dff)" d="M 38.364582 196.008289 
L 32.372641 76.566044 
L 47.403698 68.355658 
L 52.664642 187.025282 
z
" style="fill:#ba0c2f;fill-opacity:0.8;"/>
    <path clip-path="url(#p9c6b967dff)" d="M 60.681411 201.27395 
L 74.846449 192.190574 
L 70.601978 73.075779 
L 55.71842 81.382266 
z
" style="fill:#5d0618;fill-opacity:0.8;"/>
    <path clip-path="url(#p9c6b967dff)" d="M 38.364582 196.008289 
L 60.681411 201.27395 
L 55.71842 81.382266 
L 32.372641 76.566044 
z
" style="fill:#ba0c2f;fill-opacity:0.8;"/>
    <path clip-path="url(#p9c6b967dff)" d="M 32.372641 76.566044 
L 55.71842 81.382266 
L 70.601978 73.075779 
L 47.403698 68.355658 
z
" style="fill:#a30a29;fill-opacity:0.8;"/>
   </g>
  </g>
  <g id="patch_6">
   <path d="M 425.945455 262.8 
L 806.4 262.8 
L 806.4 -14.4 
L 425.945455 -14.4 
z
" style="fill:#ffffff;"/>
  </g>
  <g id="pane3d_4">
   <g id="patch_7">
    <path d="M 476.380584 201.548569 
L 585.268665 133.58541 
L 583.455794 3.718968 
L 468.496488 64.782468 
" style="fill:#f2f2f2;opacity:0.5;stroke:#f2f2f2;stroke-linejoin:miter;"/>
   </g>
  </g>
  <g id="pane3d_5">
   <g id="patch_8">
    <path d="M 585.268665 133.58541 
L 761.65712 171.581202 
L 769.037001 37.79869 
L 583.455794 3.718968 
" style="fill:#e6e6e6;opacity:0.5;stroke:#e6e6e6;stroke-linejoin:miter;"/>
   </g>
  </g>
  <g id="pane3d_6">
   <g id="patch_9">
    <path d="M 476.380584 201.548569 
L 661.965072 245.80086 
L 761.65712 171.581202 
L 585.268665 133.58541 
" style="fill:#ececec;opacity:0.5;stroke:#ececec;stroke-linejoin:miter;"/>
   </g>
  </g>
  <g id="axis3d_4">
   <g id="line2d_16">
    <path d="M 476.380584 201.548569 
L 661.965072 245.80086 
" style="fill:none;stroke:#000000;stroke-linecap:square;stroke-width:0.8;"/>
   </g>
   <g id="Line3DCollection_4">
    <path d="M 498.841271 206.90428 
L 606.679397 138.19749 
L 605.9393 7.847789 
" style="fill:none;stroke:#b0b0b0;stroke-width:0.8;"/>
    <path d="M 544.057792 217.686079 
L 649.729469 147.470895 
L 651.182353 16.156123 
" style="fill:none;stroke:#b0b0b0;stroke-width:0.8;"/>
    <path d="M 590.310744 228.715013 
L 693.693551 156.941187 
L 697.435637 24.649974 
" style="fill:none;stroke:#b0b0b0;stroke-width:0.8;"/>
    <path d="M 637.636176 239.999678 
L 738.601063 166.614702 
L 744.733372 33.335625 
" style="fill:none;stroke:#b0b0b0;stroke-width:0.8;"/>
   </g>
   <g id="xtick_13">
    <g id="line2d_17">
     <path d="M 499.770538 206.312217 
L 496.979262 208.09062 
" style="fill:none;stroke:#000000;stroke-linecap:square;stroke-width:0.8;"/>
    </g>
    <g id="text_14">
     <!-- 00 -->
     <g transform="translate(479.875817 237.14703)rotate(-45)scale(0.14 -0.14)">
      <use transform="scale(0.996264)" xlink:href="#CMR17-48"/>
      <use transform="translate(45.690477 0)scale(0.996264)" xlink:href="#CMR17-48"/>
     </g>
    </g>
   </g>
   <g id="xtick_14">
    <g id="line2d_18">
     <path d="M 544.969128 217.080527 
L 542.231671 218.899473 
" style="fill:none;stroke:#000000;stroke-linecap:square;stroke-width:0.8;"/>
    </g>
    <g id="text_15">
     <!-- 01 -->
     <g transform="translate(525.088242 248.103782)rotate(-45)scale(0.14 -0.14)">
      <use transform="scale(0.996264)" xlink:href="#CMR17-48"/>
      <use transform="translate(45.690477 0)scale(0.996264)" xlink:href="#CMR17-49"/>
     </g>
    </g>
   </g>
   <g id="xtick_15">
    <g id="line2d_19">
     <path d="M 591.20308 228.095506 
L 588.522658 229.956397 
" style="fill:none;stroke:#000000;stroke-linecap:square;stroke-width:0.8;"/>
    </g>
    <g id="text_16">
     <!-- 10 -->
     <g transform="translate(571.338855 259.312128)rotate(-45)scale(0.14 -0.14)">
      <use transform="scale(0.996264)" xlink:href="#CMR17-49"/>
      <use transform="translate(45.690477 0)scale(0.996264)" xlink:href="#CMR17-48"/>
     </g>
    </g>
   </g>
   <g id="xtick_16">
    <g id="line2d_20">
     <path d="M 638.50838 239.365727 
L 635.888391 241.270032 
" style="fill:none;stroke:#000000;stroke-linecap:square;stroke-width:0.8;"/>
    </g>
    <g id="text_17">
     <!-- 11 -->
     <g transform="translate(618.66383 270.780834)rotate(-45)scale(0.14 -0.14)">
      <use transform="scale(0.996264)" xlink:href="#CMR17-49"/>
      <use transform="translate(45.690477 0)scale(0.996264)" xlink:href="#CMR17-49"/>
     </g>
    </g>
   </g>
  </g>
  <g id="axis3d_5">
   <g id="line2d_21">
    <path d="M 761.65712 171.581202 
L 661.965072 245.80086 
" style="fill:none;stroke:#000000;stroke-linecap:square;stroke-width:0.8;"/>
   </g>
   <g id="Line3DCollection_5">
    <path d="M 484.000685 56.547028 
L 491.016499 192.413474 
L 675.403872 235.795817 
" style="fill:none;stroke:#b0b0b0;stroke-width:0.8;"/>
    <path d="M 513.777478 40.730342 
L 519.168861 174.842005 
L 701.219492 216.576366 
" style="fill:none;stroke:#b0b0b0;stroke-width:0.8;"/>
    <path d="M 542.401344 25.526062 
L 546.284836 157.917404 
L 726.04244 198.095948 
" style="fill:none;stroke:#b0b0b0;stroke-width:0.8;"/>
    <path d="M 569.937971 10.899296 
L 572.420618 141.604597 
L 749.928893 180.312741 
" style="fill:none;stroke:#b0b0b0;stroke-width:0.8;"/>
   </g>
   <g id="xtick_17">
    <g id="line2d_22">
     <path d="M 673.861052 235.432825 
L 678.492943 236.522608 
" style="fill:none;stroke:#000000;stroke-linecap:square;stroke-width:0.8;"/>
    </g>
    <g id="text_18">
     <!-- 00 -->
     <g transform="translate(689.195824 248.348363)rotate(-337.5)scale(0.14 -0.14)">
      <use transform="scale(0.996264)" xlink:href="#CMR17-48"/>
      <use transform="translate(45.690477 0)scale(0.996264)" xlink:href="#CMR17-48"/>
     </g>
    </g>
   </g>
   <g id="xtick_18">
    <g id="line2d_23">
     <path d="M 699.697534 216.227463 
L 704.266725 217.274932 
" style="fill:none;stroke:#000000;stroke-linecap:square;stroke-width:0.8;"/>
    </g>
    <g id="text_19">
     <!-- 01 -->
     <g transform="translate(714.749375 228.903937)rotate(-337.5)scale(0.14 -0.14)">
      <use transform="scale(0.996264)" xlink:href="#CMR17-48"/>
      <use transform="translate(45.690477 0)scale(0.996264)" xlink:href="#CMR17-49"/>
     </g>
    </g>
   </g>
   <g id="xtick_19">
    <g id="line2d_24">
     <path d="M 724.540896 197.76033 
L 729.048738 198.767901 
" style="fill:none;stroke:#000000;stroke-linecap:square;stroke-width:0.8;"/>
    </g>
    <g id="text_20">
     <!-- 10 -->
     <g transform="translate(739.320787 210.206849)rotate(-337.5)scale(0.14 -0.14)">
      <use transform="scale(0.996264)" xlink:href="#CMR17-49"/>
      <use transform="translate(45.690477 0)scale(0.996264)" xlink:href="#CMR17-48"/>
     </g>
    </g>
   </g>
   <g id="xtick_20">
    <g id="line2d_25">
     <path d="M 748.44732 179.989663 
L 752.895146 180.959573 
" style="fill:none;stroke:#000000;stroke-linecap:square;stroke-width:0.8;"/>
    </g>
    <g id="text_21">
     <!-- 11 -->
     <g transform="translate(762.965613 192.214827)rotate(-337.5)scale(0.14 -0.14)">
      <use transform="scale(0.996264)" xlink:href="#CMR17-49"/>
      <use transform="translate(45.690477 0)scale(0.996264)" xlink:href="#CMR17-49"/>
     </g>
    </g>
   </g>
  </g>
  <g id="axis3d_6">
   <g id="line2d_26">
    <path d="M 761.65712 171.581202 
L 769.037001 37.79869 
" style="fill:none;stroke:#000000;stroke-linecap:square;stroke-width:0.8;"/>
   </g>
   <g id="text_22">
    <!-- Im[$\rho$] -->
    <defs>
     <path d="M 19.703125 60.90625 
C 19.703125 65.390625 20.90625 65.390625 28.09375 65.390625 
L 28.09375 68 
C 24.90625 67.796875 19.796875 67.796875 16.40625 67.796875 
C 13 67.796875 7.90625 67.796875 4.703125 68 
L 4.703125 65.390625 
C 11.90625 65.390625 13.09375 65.390625 13.09375 60.90625 
L 13.09375 7.078125 
C 13.09375 2.59375 11.90625 2.59375 4.703125 2.59375 
L 4.703125 0 
C 7.90625 0.1875 13 0.1875 16.40625 0.1875 
C 19.796875 0.1875 24.90625 0.1875 28.09375 0 
L 28.09375 2.59375 
C 20.90625 2.59375 19.703125 2.59375 19.703125 7.078125 
z
" id="CMR17-73"/>
     <path d="M 67.59375 30.53125 
C 67.59375 35.5625 66.703125 44 54.796875 44 
C 48 44 43.296875 39.375 41.5 33.953125 
L 41.40625 33.953125 
C 40.203125 42.1875 34.296875 44 28.703125 44 
C 20.796875 44 16.703125 37.875 15.203125 33.84375 
L 15.09375 33.84375 
L 15.09375 44 
L 3.296875 42.890625 
L 3.296875 40.28125 
C 9.203125 40.28125 10.09375 39.6875 10.09375 34.859375 
L 10.09375 6.921875 
C 10.09375 3.09375 9.703125 2.59375 3.296875 2.59375 
L 3.296875 0 
C 5.703125 0.1875 10.09375 0.1875 12.703125 0.1875 
C 15.296875 0.1875 19.796875 0.1875 22.203125 0 
L 22.203125 2.59375 
C 15.796875 2.59375 15.40625 3 15.40625 6.921875 
L 15.40625 26.21875 
C 15.40625 35.453125 21 42.390625 28 42.390625 
C 35.40625 42.390625 36.203125 35.765625 36.203125 30.9375 
L 36.203125 6.921875 
C 36.203125 3.09375 35.796875 2.59375 29.40625 2.59375 
L 29.40625 0 
C 31.796875 0.1875 36.203125 0.1875 38.796875 0.1875 
C 41.40625 0.1875 45.90625 0.1875 48.296875 0 
L 48.296875 2.59375 
C 41.90625 2.59375 41.5 3 41.5 6.921875 
L 41.5 26.21875 
C 41.5 35.453125 47.09375 42.390625 54.09375 42.390625 
C 61.5 42.390625 62.296875 35.765625 62.296875 30.9375 
L 62.296875 6.921875 
C 62.296875 3.09375 61.90625 2.59375 55.5 2.59375 
L 55.5 0 
C 57.90625 0.1875 62.296875 0.1875 64.90625 0.1875 
C 67.5 0.1875 72 0.1875 74.40625 0 
L 74.40625 2.59375 
C 68 2.59375 67.59375 3 67.59375 6.921875 
z
" id="CMR17-109"/>
    </defs>
    <g transform="translate(809.026865 118.025317)rotate(-86.842577)scale(0.14 -0.14)">
     <use transform="scale(0.996264)" xlink:href="#CMR17-73"/>
     <use transform="translate(32.638409 0)scale(0.996264)" xlink:href="#CMR17-109"/>
     <use transform="translate(109.557999 0)scale(0.996264)" xlink:href="#CMR17-91"/>
     <use transform="translate(134.429058 0)scale(0.996264)" xlink:href="#CMMI12-26"/>
     <use transform="translate(184.74343 0)scale(0.996264)" xlink:href="#CMR17-93"/>
    </g>
   </g>
   <g id="Line3DCollection_6">
    <path d="M 762.463257 156.967547 
L 585.070253 119.371976 
L 475.520689 186.631896 
" style="fill:none;stroke:#b0b0b0;stroke-width:0.8;"/>
    <path d="M 764.067858 127.879327 
L 584.675597 91.100526 
L 473.808121 156.923833 
" style="fill:none;stroke:#b0b0b0;stroke-width:0.8;"/>
    <path d="M 765.709362 98.122145 
L 584.272252 62.206607 
L 472.054842 126.509539 
" style="fill:none;stroke:#b0b0b0;stroke-width:0.8;"/>
    <path d="M 767.389055 67.672656 
L 583.859928 32.669432 
L 470.259381 95.36353 
" style="fill:none;stroke:#b0b0b0;stroke-width:0.8;"/>
   </g>
   <g id="xtick_21">
    <g id="line2d_27">
     <path d="M 760.982877 156.653804 
L 765.427111 157.595688 
" style="fill:none;stroke:#000000;stroke-linecap:square;stroke-width:0.8;"/>
    </g>
    <g id="text_23">
     <!-- $0.0$ -->
     <g transform="translate(772.351947 164.729095)scale(0.14 -0.14)">
      <use transform="scale(0.996264)" xlink:href="#CMR17-48"/>
      <use transform="translate(45.690477 0)scale(0.996264)" xlink:href="#CMMI12-58"/>
      <use transform="translate(72.787654 0)scale(0.996264)" xlink:href="#CMR17-48"/>
     </g>
    </g>
   </g>
   <g id="xtick_22">
    <g id="line2d_28">
     <path d="M 762.57009 127.572256 
L 767.06656 128.494117 
" style="fill:none;stroke:#000000;stroke-linecap:square;stroke-width:0.8;"/>
    </g>
    <g id="text_24">
     <!-- $0.1$ -->
     <g transform="translate(774.164234 135.681835)scale(0.14 -0.14)">
      <use transform="scale(0.996264)" xlink:href="#CMR17-48"/>
      <use transform="translate(45.690477 0)scale(0.996264)" xlink:href="#CMMI12-58"/>
      <use transform="translate(72.787654 0)scale(0.996264)" xlink:href="#CMR17-49"/>
     </g>
    </g>
   </g>
   <g id="xtick_23">
    <g id="line2d_29">
     <path d="M 764.193793 97.822138 
L 768.74374 98.722801 
" style="fill:none;stroke:#000000;stroke-linecap:square;stroke-width:0.8;"/>
    </g>
    <g id="text_25">
     <!-- $0.2$ -->
     <g transform="translate(776.018108 105.968013)scale(0.14 -0.14)">
      <use transform="scale(0.996264)" xlink:href="#CMR17-48"/>
      <use transform="translate(45.690477 0)scale(0.996264)" xlink:href="#CMMI12-58"/>
      <use transform="translate(72.787654 0)scale(0.996264)" xlink:href="#CMR17-50"/>
     </g>
    </g>
   </g>
   <g id="xtick_24">
    <g id="line2d_30">
     <path d="M 765.855258 67.380126 
L 770.459968 68.25835 
" style="fill:none;stroke:#000000;stroke-linecap:square;stroke-width:0.8;"/>
    </g>
    <g id="text_26">
     <!-- $0.3$ -->
     <g transform="translate(777.915018 75.56442)scale(0.14 -0.14)">
      <use transform="scale(0.996264)" xlink:href="#CMR17-48"/>
      <use transform="translate(45.690477 0)scale(0.996264)" xlink:href="#CMMI12-58"/>
      <use transform="translate(72.787654 0)scale(0.996264)" xlink:href="#CMR17-51"/>
     </g>
    </g>
   </g>
  </g>
  <g id="axes_2">
   <g id="Poly3DCollection_18">
    <path clip-path="url(#pe62116822d)" d="M 589.452107 125.681445 
L 589.455379 125.947448 
L 610.937709 130.529999 
L 610.936638 130.26307 
z
" style="fill:#0cba97;fill-opacity:0.8;"/>
    <path clip-path="url(#pe62116822d)" d="M 576.611163 133.647752 
L 576.615796 133.915363 
L 589.455379 125.947448 
L 589.452107 125.681445 
z
" style="fill:#065d4c;fill-opacity:0.8;"/>
    <path clip-path="url(#pe62116822d)" d="M 576.615796 133.915363 
L 598.227578 138.582405 
L 610.937709 130.529999 
L 589.455379 125.947448 
z
" style="fill:#0aa384;fill-opacity:0.8;"/>
    <path clip-path="url(#pe62116822d)" d="M 576.611163 133.647752 
L 589.452107 125.681445 
L 610.936638 130.26307 
L 598.225173 138.313859 
z
" style="fill:#08745e;fill-opacity:0.8;"/>
    <path clip-path="url(#pe62116822d)" d="M 598.225173 138.313859 
L 610.936638 130.26307 
L 610.937709 130.529999 
L 598.227578 138.582405 
z
" style="fill:#0cba97;fill-opacity:0.8;"/>
    <path clip-path="url(#pe62116822d)" d="M 576.611163 133.647752 
L 598.225173 138.313859 
L 598.227578 138.582405 
L 576.615796 133.915363 
z
" style="fill:#065d4c;fill-opacity:0.8;"/>
   </g>
   <g id="Poly3DCollection_19">
    <path clip-path="url(#pe62116822d)" d="M 632.648568 134.893188 
L 632.652851 133.917948 
L 654.60417 138.593921 
L 654.591528 139.572573 
z
" style="fill:#065d4c;fill-opacity:0.8;"/>
    <path clip-path="url(#pe62116822d)" d="M 620.070069 143.029811 
L 620.069595 142.048649 
L 632.652851 133.917948 
L 632.648568 134.893188 
z
" style="fill:#0cba97;fill-opacity:0.8;"/>
    <path clip-path="url(#pe62116822d)" d="M 620.070069 143.029811 
L 632.648568 134.893188 
L 654.591528 139.572573 
L 642.149572 147.79641 
z
" style="fill:#08745e;fill-opacity:0.8;"/>
    <path clip-path="url(#pe62116822d)" d="M 620.069595 142.048649 
L 642.157561 146.811806 
L 654.60417 138.593921 
L 632.652851 133.917948 
z
" style="fill:#0aa384;fill-opacity:0.8;"/>
    <path clip-path="url(#pe62116822d)" d="M 642.149572 147.79641 
L 654.591528 139.572573 
L 654.60417 138.593921 
L 642.157561 146.811806 
z
" style="fill:#065d4c;fill-opacity:0.8;"/>
    <path clip-path="url(#pe62116822d)" d="M 620.070069 143.029811 
L 642.149572 147.79641 
L 642.157561 146.811806 
L 620.069595 142.048649 
z
" style="fill:#0cba97;fill-opacity:0.8;"/>
   </g>
   <g id="Poly3DCollection_20">
    <path clip-path="url(#pe62116822d)" d="M 563.532972 141.761242 
L 563.456067 138.335368 
L 585.229373 143.076282 
L 585.277594 146.51419 
z
" style="fill:#065d4c;fill-opacity:0.8;"/>
    <path clip-path="url(#pe62116822d)" d="M 550.210899 150.026033 
L 550.115379 146.579276 
L 563.456067 138.335368 
L 563.532972 141.761242 
z
" style="fill:#0cba97;fill-opacity:0.8;"/>
    <path clip-path="url(#pe62116822d)" d="M 550.210899 150.026033 
L 563.532972 141.761242 
L 585.277594 146.51419 
L 572.087261 154.86827 
z
" style="fill:#08745e;fill-opacity:0.8;"/>
    <path clip-path="url(#pe62116822d)" d="M 550.115379 146.579276 
L 572.020772 151.409373 
L 585.229373 143.076282 
L 563.456067 138.335368 
z
" style="fill:#0aa384;fill-opacity:0.8;"/>
    <path clip-path="url(#pe62116822d)" d="M 572.087261 154.86827 
L 585.277594 146.51419 
L 585.229373 143.076282 
L 572.020772 151.409373 
z
" style="fill:#065d4c;fill-opacity:0.8;"/>
    <path clip-path="url(#pe62116822d)" d="M 550.210899 150.026033 
L 572.087261 154.86827 
L 572.020772 151.409373 
L 550.115379 146.579276 
z
" style="fill:#0cba97;fill-opacity:0.8;"/>
   </g>
   <g id="Poly3DCollection_21">
    <path clip-path="url(#pe62116822d)" d="M 676.769225 144.302016 
L 677.02956 132.23045 
L 699.552989 136.9681 
L 699.185445 149.082326 
z
" style="fill:#065d4c;fill-opacity:0.8;"/>
    <path clip-path="url(#pe62116822d)" d="M 664.467481 152.614478 
L 664.671969 140.468885 
L 677.02956 132.23045 
L 676.769225 144.302016 
z
" style="fill:#0cba97;fill-opacity:0.8;"/>
    <path clip-path="url(#pe62116822d)" d="M 664.467481 152.614478 
L 676.769225 144.302016 
L 699.185445 149.082326 
L 687.027678 157.484851 
z
" style="fill:#08745e;fill-opacity:0.8;"/>
    <path clip-path="url(#pe62116822d)" d="M 664.671969 140.468885 
L 687.340769 145.296221 
L 699.552989 136.9681 
L 677.02956 132.23045 
z
" style="fill:#0aa384;fill-opacity:0.8;"/>
    <path clip-path="url(#pe62116822d)" d="M 687.027678 157.484851 
L 699.185445 149.082326 
L 699.552989 136.9681 
L 687.340769 145.296221 
z
" style="fill:#065d4c;fill-opacity:0.8;"/>
    <path clip-path="url(#pe62116822d)" d="M 664.467481 152.614478 
L 687.027678 157.484851 
L 687.340769 145.296221 
L 664.671969 140.468885 
z
" style="fill:#0cba97;fill-opacity:0.8;"/>
   </g>
   <g id="Poly3DCollection_22">
    <path clip-path="url(#pe62116822d)" d="M 607.256667 151.318386 
L 607.250218 150.141833 
L 629.477767 154.993968 
L 629.474003 156.174661 
z
" style="fill:#065d4c;fill-opacity:0.8;"/>
    <path clip-path="url(#pe62116822d)" d="M 594.201719 159.763209 
L 594.189163 158.579473 
L 607.250218 150.141833 
L 607.256667 151.318386 
z
" style="fill:#0cba97;fill-opacity:0.8;"/>
    <path clip-path="url(#pe62116822d)" d="M 594.201719 159.763209 
L 607.256667 151.318386 
L 629.474003 156.174661 
L 616.558179 164.711714 
z
" style="fill:#08745e;fill-opacity:0.8;"/>
    <path clip-path="url(#pe62116822d)" d="M 594.189163 158.579473 
L 616.555965 163.523802 
L 629.477767 154.993968 
L 607.250218 150.141833 
z
" style="fill:#0aa384;fill-opacity:0.8;"/>
    <path clip-path="url(#pe62116822d)" d="M 616.558179 164.711714 
L 629.474003 156.174661 
L 629.477767 154.993968 
L 616.555965 163.523802 
z
" style="fill:#065d4c;fill-opacity:0.8;"/>
    <path clip-path="url(#pe62116822d)" d="M 594.201719 159.763209 
L 616.558179 164.711714 
L 616.555965 163.523802 
L 594.189163 158.579473 
z
" style="fill:#0cba97;fill-opacity:0.8;"/>
   </g>
   <g id="Poly3DCollection_23">
    <path clip-path="url(#pe62116822d)" d="M 721.844058 153.914325 
L 721.844058 153.914325 
L 744.749016 158.798859 
L 744.749016 158.798859 
z
" style="fill:#065d4c;fill-opacity:0.8;"/>
    <path clip-path="url(#pe62116822d)" d="M 709.834131 162.408387 
L 709.834131 162.408387 
L 721.844058 153.914325 
L 721.844058 153.914325 
z
" style="fill:#065d4c;fill-opacity:0.8;"/>
    <path clip-path="url(#pe62116822d)" d="M 709.834131 162.408387 
L 721.844058 153.914325 
L 744.749016 158.798859 
L 732.890893 167.385961 
z
" style="fill:#08745e;fill-opacity:0.8;"/>
    <path clip-path="url(#pe62116822d)" d="M 709.834131 162.408387 
L 732.890893 167.385961 
L 744.749016 158.798859 
L 721.844058 153.914325 
z
" style="fill:#0aa384;fill-opacity:0.8;"/>
    <path clip-path="url(#pe62116822d)" d="M 732.890893 167.385961 
L 744.749016 158.798859 
L 744.749016 158.798859 
L 732.890893 167.385961 
z
" style="fill:#065d4c;fill-opacity:0.8;"/>
    <path clip-path="url(#pe62116822d)" d="M 709.834131 162.408387 
L 732.890893 167.385961 
L 732.890893 167.385961 
L 709.834131 162.408387 
z
" style="fill:#065d4c;fill-opacity:0.8;"/>
   </g>
   <g id="Poly3DCollection_24">
    <path clip-path="url(#pe62116822d)" d="M 651.933498 161.083867 
L 651.933498 161.083867 
L 674.639133 166.046874 
L 674.639133 166.046874 
z
" style="fill:#065d4c;fill-opacity:0.8;"/>
    <path clip-path="url(#pe62116822d)" d="M 639.160637 169.714669 
L 639.160637 169.714669 
L 651.933498 161.083867 
L 651.933498 161.083867 
z
" style="fill:#065d4c;fill-opacity:0.8;"/>
    <path clip-path="url(#pe62116822d)" d="M 639.160637 169.714669 
L 651.933498 161.083867 
L 674.639133 166.046874 
L 662.013174 174.772979 
z
" style="fill:#08745e;fill-opacity:0.8;"/>
    <path clip-path="url(#pe62116822d)" d="M 639.160637 169.714669 
L 662.013174 174.772979 
L 674.639133 166.046874 
L 651.933498 161.083867 
z
" style="fill:#0aa384;fill-opacity:0.8;"/>
    <path clip-path="url(#pe62116822d)" d="M 662.013174 174.772979 
L 674.639133 166.046874 
L 674.639133 166.046874 
L 662.013174 174.772979 
z
" style="fill:#065d4c;fill-opacity:0.8;"/>
    <path clip-path="url(#pe62116822d)" d="M 639.160637 169.714669 
L 662.013174 174.772979 
L 662.013174 174.772979 
L 639.160637 169.714669 
z
" style="fill:#065d4c;fill-opacity:0.8;"/>
   </g>
   <g id="Poly3DCollection_25">
    <path clip-path="url(#pe62116822d)" d="M 536.638056 158.446396 
L 536.282327 147.703121 
L 558.382572 152.599085 
L 558.647283 163.380463 
z
" style="fill:#065d4c;fill-opacity:0.8;"/>
    <path clip-path="url(#pe62116822d)" d="M 522.807296 167.026768 
L 522.389514 156.217376 
L 536.282327 147.703121 
L 536.638056 158.446396 
z
" style="fill:#0cba97;fill-opacity:0.8;"/>
    <path clip-path="url(#pe62116822d)" d="M 522.807296 167.026768 
L 536.638056 158.446396 
L 558.647283 163.380463 
L 544.950503 172.0553 
z
" style="fill:#08745e;fill-opacity:0.8;"/>
    <path clip-path="url(#pe62116822d)" d="M 522.389514 156.217376 
L 544.62484 161.207476 
L 558.382572 152.599085 
L 536.282327 147.703121 
z
" style="fill:#0aa384;fill-opacity:0.8;"/>
    <path clip-path="url(#pe62116822d)" d="M 544.950503 172.0553 
L 558.647283 163.380463 
L 558.382572 152.599085 
L 544.62484 161.207476 
z
" style="fill:#065d4c;fill-opacity:0.8;"/>
    <path clip-path="url(#pe62116822d)" d="M 522.807296 167.026768 
L 544.950503 172.0553 
L 544.62484 161.207476 
L 522.389514 156.217376 
z
" style="fill:#0cba97;fill-opacity:0.8;"/>
   </g>
   <g id="Poly3DCollection_26">
    <path clip-path="url(#pe62116822d)" d="M 580.89833 168.36874 
L 580.89833 168.36874 
L 603.395204 173.412128 
L 603.395204 173.412128 
z
" style="fill:#065d4c;fill-opacity:0.8;"/>
    <path clip-path="url(#pe62116822d)" d="M 567.33934 177.139611 
L 567.33934 177.139611 
L 580.89833 168.36874 
L 580.89833 168.36874 
z
" style="fill:#065d4c;fill-opacity:0.8;"/>
    <path clip-path="url(#pe62116822d)" d="M 567.33934 177.139611 
L 589.977916 182.280637 
L 603.395204 173.412128 
L 580.89833 168.36874 
z
" style="fill:#0aa384;fill-opacity:0.8;"/>
    <path clip-path="url(#pe62116822d)" d="M 567.33934 177.139611 
L 580.89833 168.36874 
L 603.395204 173.412128 
L 589.977916 182.280637 
z
" style="fill:#08745e;fill-opacity:0.8;"/>
    <path clip-path="url(#pe62116822d)" d="M 589.977916 182.280637 
L 603.395204 173.412128 
L 603.395204 173.412128 
L 589.977916 182.280637 
z
" style="fill:#065d4c;fill-opacity:0.8;"/>
    <path clip-path="url(#pe62116822d)" d="M 567.33934 177.139611 
L 589.977916 182.280637 
L 589.977916 182.280637 
L 567.33934 177.139611 
z
" style="fill:#065d4c;fill-opacity:0.8;"/>
   </g>
   <g id="Poly3DCollection_27">
    <path clip-path="url(#pe62116822d)" d="M 697.594975 171.064572 
L 697.229575 183.253979 
L 720.325975 188.370049 
L 720.805185 176.13787 
z
" style="fill:#0cba97;fill-opacity:0.8;"/>
    <path clip-path="url(#pe62116822d)" d="M 685.119965 179.887566 
L 684.811391 192.151184 
L 697.229575 183.253979 
L 697.594975 171.064572 
z
" style="fill:#065d4c;fill-opacity:0.8;"/>
    <path clip-path="url(#pe62116822d)" d="M 684.811391 192.151184 
L 708.061358 197.366112 
L 720.325975 188.370049 
L 697.229575 183.253979 
z
" style="fill:#0aa384;fill-opacity:0.8;"/>
    <path clip-path="url(#pe62116822d)" d="M 685.119965 179.887566 
L 697.594975 171.064572 
L 720.805185 176.13787 
L 708.485276 185.059376 
z
" style="fill:#08745e;fill-opacity:0.8;"/>
    <path clip-path="url(#pe62116822d)" d="M 708.485276 185.059376 
L 720.805185 176.13787 
L 720.325975 188.370049 
L 708.061358 197.366112 
z
" style="fill:#0cba97;fill-opacity:0.8;"/>
    <path clip-path="url(#pe62116822d)" d="M 685.119965 179.887566 
L 708.485276 185.059376 
L 708.061358 197.366112 
L 684.811391 192.151184 
z
" style="fill:#065d4c;fill-opacity:0.8;"/>
   </g>
   <g id="Poly3DCollection_28">
    <path clip-path="url(#pe62116822d)" d="M 508.711197 175.771751 
L 508.711197 175.771751 
L 530.989492 180.897488 
L 530.989492 180.897488 
z
" style="fill:#065d4c;fill-opacity:0.8;"/>
    <path clip-path="url(#pe62116822d)" d="M 494.342049 184.686129 
L 494.342049 184.686129 
L 508.711197 175.771751 
L 508.711197 175.771751 
z
" style="fill:#065d4c;fill-opacity:0.8;"/>
    <path clip-path="url(#pe62116822d)" d="M 494.342049 184.686129 
L 508.711197 175.771751 
L 530.989492 180.897488 
L 516.756527 189.911916 
z
" style="fill:#08745e;fill-opacity:0.8;"/>
    <path clip-path="url(#pe62116822d)" d="M 494.342049 184.686129 
L 516.756527 189.911916 
L 530.989492 180.897488 
L 508.711197 175.771751 
z
" style="fill:#0aa384;fill-opacity:0.8;"/>
    <path clip-path="url(#pe62116822d)" d="M 516.756527 189.911916 
L 530.989492 180.897488 
L 530.989492 180.897488 
L 516.756527 189.911916 
z
" style="fill:#065d4c;fill-opacity:0.8;"/>
    <path clip-path="url(#pe62116822d)" d="M 494.342049 184.686129 
L 516.756527 189.911916 
L 516.756527 189.911916 
L 494.342049 184.686129 
z
" style="fill:#065d4c;fill-opacity:0.8;"/>
   </g>
   <g id="Poly3DCollection_29">
    <path clip-path="url(#pe62116822d)" d="M 626.142003 178.511544 
L 626.139722 179.709835 
L 649.129696 184.870459 
L 649.142913 183.667927 
z
" style="fill:#0cba97;fill-opacity:0.8;"/>
    <path clip-path="url(#pe62116822d)" d="M 612.870433 187.479331 
L 612.874459 188.68498 
L 626.139722 179.709835 
L 626.142003 178.511544 
z
" style="fill:#065d4c;fill-opacity:0.8;"/>
    <path clip-path="url(#pe62116822d)" d="M 612.874459 188.68498 
L 636.014135 193.946593 
L 649.129696 184.870459 
L 626.139722 179.709835 
z
" style="fill:#0aa384;fill-opacity:0.8;"/>
    <path clip-path="url(#pe62116822d)" d="M 612.870433 187.479331 
L 626.142003 178.511544 
L 649.142913 183.667927 
L 636.021188 192.736668 
z
" style="fill:#08745e;fill-opacity:0.8;"/>
    <path clip-path="url(#pe62116822d)" d="M 636.021188 192.736668 
L 649.142913 183.667927 
L 649.129696 184.870459 
L 636.014135 193.946593 
z
" style="fill:#0cba97;fill-opacity:0.8;"/>
    <path clip-path="url(#pe62116822d)" d="M 612.870433 187.479331 
L 636.021188 192.736668 
L 636.014135 193.946593 
L 612.874459 188.68498 
z
" style="fill:#065d4c;fill-opacity:0.8;"/>
   </g>
   <g id="Poly3DCollection_30">
    <path clip-path="url(#pe62116822d)" d="M 553.517311 186.080634 
L 553.808362 196.940366 
L 576.493205 202.22016 
L 576.298872 191.322161 
z
" style="fill:#0cba97;fill-opacity:0.8;"/>
    <path clip-path="url(#pe62116822d)" d="M 539.424515 195.196808 
L 539.779494 206.122931 
L 553.808362 196.940366 
L 553.517311 186.080634 
z
" style="fill:#065d4c;fill-opacity:0.8;"/>
    <path clip-path="url(#pe62116822d)" d="M 539.779494 206.122931 
L 562.607383 211.506501 
L 576.493205 202.22016 
L 553.808362 196.940366 
z
" style="fill:#0aa384;fill-opacity:0.8;"/>
    <path clip-path="url(#pe62116822d)" d="M 539.424515 195.196808 
L 553.517311 186.080634 
L 576.298872 191.322161 
L 562.350336 200.541811 
z
" style="fill:#08745e;fill-opacity:0.8;"/>
    <path clip-path="url(#pe62116822d)" d="M 562.350336 200.541811 
L 576.298872 191.322161 
L 576.493205 202.22016 
L 562.607383 211.506501 
z
" style="fill:#0cba97;fill-opacity:0.8;"/>
    <path clip-path="url(#pe62116822d)" d="M 539.424515 195.196808 
L 562.350336 200.541811 
L 562.607383 211.506501 
L 539.779494 206.122931 
z
" style="fill:#065d4c;fill-opacity:0.8;"/>
   </g>
   <g id="Poly3DCollection_31">
    <path clip-path="url(#pe62116822d)" d="M 672.402216 188.882237 
L 672.381742 189.894898 
L 695.894223 195.17171 
L 695.924293 194.155456 
z
" style="fill:#0cba97;fill-opacity:0.8;"/>
    <path clip-path="url(#pe62116822d)" d="M 659.434575 198.053646 
L 659.419147 199.07254 
L 672.381742 189.894898 
L 672.402216 188.882237 
z
" style="fill:#065d4c;fill-opacity:0.8;"/>
    <path clip-path="url(#pe62116822d)" d="M 659.419147 199.07254 
L 683.089936 204.453802 
L 695.894223 195.17171 
L 672.381742 189.894898 
z
" style="fill:#0aa384;fill-opacity:0.8;"/>
    <path clip-path="url(#pe62116822d)" d="M 659.434575 198.053646 
L 672.402216 188.882237 
L 695.924293 194.155456 
L 683.115089 203.431287 
z
" style="fill:#08745e;fill-opacity:0.8;"/>
    <path clip-path="url(#pe62116822d)" d="M 683.115089 203.431287 
L 695.924293 194.155456 
L 695.894223 195.17171 
L 683.089936 204.453802 
z
" style="fill:#0cba97;fill-opacity:0.8;"/>
    <path clip-path="url(#pe62116822d)" d="M 659.434575 198.053646 
L 683.115089 203.431287 
L 683.089936 204.453802 
L 659.419147 199.07254 
z
" style="fill:#065d4c;fill-opacity:0.8;"/>
   </g>
   <g id="Poly3DCollection_32">
    <path clip-path="url(#pe62116822d)" d="M 599.338483 196.623059 
L 599.369458 200.173688 
L 622.638676 205.547569 
L 622.640557 201.984344 
z
" style="fill:#0cba97;fill-opacity:0.8;"/>
    <path clip-path="url(#pe62116822d)" d="M 585.538416 205.947959 
L 585.58934 209.52044 
L 599.369458 200.173688 
L 599.338483 196.623059 
z
" style="fill:#065d4c;fill-opacity:0.8;"/>
    <path clip-path="url(#pe62116822d)" d="M 585.58934 209.52044 
L 609.01092 215.00148 
L 622.638676 205.547569 
L 599.369458 200.173688 
z
" style="fill:#0aa384;fill-opacity:0.8;"/>
    <path clip-path="url(#pe62116822d)" d="M 585.538416 205.947959 
L 599.338483 196.623059 
L 622.640557 201.984344 
L 608.993281 211.416306 
z
" style="fill:#08745e;fill-opacity:0.8;"/>
    <path clip-path="url(#pe62116822d)" d="M 608.993281 211.416306 
L 622.640557 201.984344 
L 622.638676 205.547569 
L 609.01092 215.00148 
z
" style="fill:#0cba97;fill-opacity:0.8;"/>
    <path clip-path="url(#pe62116822d)" d="M 585.538416 205.947959 
L 608.993281 211.416306 
L 609.01092 215.00148 
L 585.58934 209.52044 
z
" style="fill:#065d4c;fill-opacity:0.8;"/>
   </g>
   <g id="Poly3DCollection_33">
    <path clip-path="url(#pe62116822d)" d="M 646.209602 207.407053 
L 646.212399 207.125194 
L 670.055741 212.609385 
L 670.050233 212.892249 
z
" style="fill:#065d4c;fill-opacity:0.8;"/>
    <path clip-path="url(#pe62116822d)" d="M 632.719561 216.947931 
L 632.720856 216.664329 
L 646.212399 207.125194 
L 646.209602 207.407053 
z
" style="fill:#0cba97;fill-opacity:0.8;"/>
    <path clip-path="url(#pe62116822d)" d="M 632.719561 216.947931 
L 646.209602 207.407053 
L 670.050233 212.892249 
L 656.721995 222.54394 
z
" style="fill:#08745e;fill-opacity:0.8;"/>
    <path clip-path="url(#pe62116822d)" d="M 632.720856 216.664329 
L 656.726037 222.259326 
L 670.055741 212.609385 
L 646.212399 207.125194 
z
" style="fill:#0aa384;fill-opacity:0.8;"/>
    <path clip-path="url(#pe62116822d)" d="M 656.721995 222.54394 
L 670.050233 212.892249 
L 670.055741 212.609385 
L 656.726037 222.259326 
z
" style="fill:#065d4c;fill-opacity:0.8;"/>
    <path clip-path="url(#pe62116822d)" d="M 632.719561 216.947931 
L 656.721995 222.54394 
L 656.726037 222.259326 
L 632.720856 216.664329 
z
" style="fill:#0cba97;fill-opacity:0.8;"/>
   </g>
   <g id="Poly3DCollection_34">
    <path clip-path="url(#pe62116822d)" d="M 481.444461 186.019492 
L 660.480749 227.956201 
L 756.903668 157.542302 
L 586.440545 121.345072 
z
" style="fill-opacity:0.2;"/>
   </g>
  </g>
 </g>
 <defs>
  <clipPath id="p9c6b967dff">
   <rect height="277.2" width="380.454545" x="-30.6" y="-14.4"/>
  </clipPath>
  <clipPath id="pe62116822d">
   <rect height="277.2" width="380.454545" x="425.945455" y="-14.4"/>
  </clipPath>
 </defs>
</svg>
