<?xml version="1.0" encoding="utf-8" standalone="no"?>
<!DOCTYPE svg PUBLIC "-//W3C//DTD SVG 1.1//EN"
  "http://www.w3.org/Graphics/SVG/1.1/DTD/svg11.dtd">
<!-- Created with matplotlib (https://matplotlib.org/) -->
<svg height="302.4pt" version="1.1" viewBox="0 0 820.8 302.4" width="820.8pt" xmlns="http://www.w3.org/2000/svg" xmlns:xlink="http://www.w3.org/1999/xlink">
 <defs>
  <style type="text/css">
*{stroke-linecap:butt;stroke-linejoin:round;}
  </style>
 </defs>
 <g id="figure_1">
  <g id="patch_1">
   <path d="M 0 302.4 
L 820.8 302.4 
L 820.8 0 
L 0 0 
z
" style="fill:#ffffff;"/>
  </g>
  <g id="patch_2">
   <path d="M -30.6 262.8 
L 349.854545 262.8 
L 349.854545 -14.4 
L -30.6 -14.4 
z
" style="fill:#ffffff;"/>
  </g>
  <g id="pane3d_1">
   <g id="patch_3">
    <path d="M 19.835129 201.548569 
L 128.723211 133.58541 
L 126.910339 3.718968 
L 11.951034 64.782468 
" style="fill:#f2f2f2;opacity:0.5;stroke:#f2f2f2;stroke-linejoin:miter;"/>
   </g>
  </g>
  <g id="pane3d_2">
   <g id="patch_4">
    <path d="M 128.723211 133.58541 
L 305.111665 171.581202 
L 312.491547 37.79869 
L 126.910339 3.718968 
" style="fill:#e6e6e6;opacity:0.5;stroke:#e6e6e6;stroke-linejoin:miter;"/>
   </g>
  </g>
  <g id="pane3d_3">
   <g id="patch_5">
    <path d="M 19.835129 201.548569 
L 205.419617 245.80086 
L 305.111665 171.581202 
L 128.723211 133.58541 
" style="fill:#ececec;opacity:0.5;stroke:#ececec;stroke-linejoin:miter;"/>
   </g>
  </g>
  <g id="axis3d_1">
   <g id="line2d_1">
    <path d="M 19.835129 201.548569 
L 205.419617 245.80086 
" style="fill:none;stroke:#000000;stroke-linecap:square;stroke-width:0.8;"/>
   </g>
   <g id="Line3DCollection_1">
    <path d="M 57.25499 210.471268 
L 164.384175 141.267129 
L 164.364666 10.596997 
" style="fill:none;stroke:#b0b0b0;stroke-width:0.8;"/>
    <path d="M 165.194119 236.209161 
L 266.979744 163.367214 
L 272.30378 30.418697 
" style="fill:none;stroke:#b0b0b0;stroke-width:0.8;"/>
   </g>
   <g id="xtick_1">
    <g id="line2d_2">
     <path d="M 58.178395 209.87476 
L 55.404712 211.666525 
" style="fill:none;stroke:#000000;stroke-linecap:square;stroke-width:0.8;"/>
    </g>
    <g id="text_1">
     <!-- 0 -->
     <defs>
      <path d="M 42 31.84375 
C 42 37.96875 41.90625 48.421875 37.703125 56.453125 
C 34 63.484375 28.09375 66 22.90625 66 
C 18.09375 66 12 63.78125 8.203125 56.5625 
C 4.203125 49.015625 3.796875 39.671875 3.796875 31.84375 
C 3.796875 26.109375 3.90625 17.375 7 9.734375 
C 11.296875 -0.609375 19 -2 22.90625 -2 
C 27.5 -2 34.5 -0.109375 38.59375 9.4375 
C 41.59375 16.375 42 24.5 42 31.84375 
z
M 22.90625 -0.40625 
C 16.5 -0.40625 12.703125 5.125 11.296875 12.75 
C 10.203125 18.6875 10.203125 27.328125 10.203125 32.953125 
C 10.203125 40.6875 10.203125 47.109375 11.5 53.234375 
C 13.40625 61.78125 19 64.390625 22.90625 64.390625 
C 27 64.390625 32.296875 61.671875 34.203125 53.4375 
C 35.5 47.71875 35.59375 40.984375 35.59375 32.953125 
C 35.59375 26.421875 35.59375 18.375 34.40625 12.453125 
C 32.296875 1.5 26.40625 -0.40625 22.90625 -0.40625 
z
" id="CMR17-48"/>
     </defs>
     <g transform="translate(43.116453 235.94338)rotate(-45)scale(0.14 -0.14)">
      <use transform="scale(0.996264)" xlink:href="#CMR17-48"/>
     </g>
    </g>
   </g>
   <g id="xtick_2">
    <g id="line2d_3">
     <path d="M 166.073164 235.580081 
L 163.432641 237.469747 
" style="fill:none;stroke:#000000;stroke-linecap:square;stroke-width:0.8;"/>
    </g>
    <g id="text_2">
     <!-- 1 -->
     <defs>
      <path d="M 26.59375 63.796875 
C 26.59375 65.890625 26.5 66 25.09375 66 
C 21.203125 61.359375 15.296875 59.890625 9.703125 59.6875 
C 9.40625 59.6875 8.90625 59.6875 8.796875 59.5 
C 8.703125 59.296875 8.703125 59.09375 8.703125 57 
C 11.796875 57 17 57.59375 21 59.984375 
L 21 7.296875 
C 21 3.796875 20.796875 2.59375 12.203125 2.59375 
L 9.203125 2.59375 
L 9.203125 0 
C 14 0.09375 19 0.1875 23.796875 0.1875 
C 28.59375 0.1875 33.59375 0.09375 38.40625 0 
L 38.40625 2.59375 
L 35.40625 2.59375 
C 26.796875 2.59375 26.59375 3.6875 26.59375 7.296875 
z
" id="CMR17-49"/>
     </defs>
     <g transform="translate(151.050179 262.099975)rotate(-45)scale(0.14 -0.14)">
      <use transform="scale(0.996264)" xlink:href="#CMR17-49"/>
     </g>
    </g>
   </g>
  </g>
  <g id="axis3d_2">
   <g id="line2d_4">
    <path d="M 305.111665 171.581202 
L 205.419617 245.80086 
" style="fill:none;stroke:#000000;stroke-linecap:square;stroke-width:0.8;"/>
   </g>
   <g id="Line3DCollection_2">
    <path d="M 37.513203 51.204485 
L 43.973964 186.482168 
L 227.577572 229.3045 
" style="fill:none;stroke:#b0b0b0;stroke-width:0.8;"/>
    <path d="M 104.330597 15.712761 
L 107.268846 146.976282 
L 285.52205 186.16546 
" style="fill:none;stroke:#b0b0b0;stroke-width:0.8;"/>
   </g>
   <g id="xtick_3">
    <g id="line2d_5">
     <path d="M 226.041757 228.946298 
L 230.652597 230.021696 
" style="fill:none;stroke:#000000;stroke-linecap:square;stroke-width:0.8;"/>
    </g>
    <g id="text_3">
     <!-- 0 -->
     <g transform="translate(241.280957 243.087677)rotate(-337.5)scale(0.14 -0.14)">
      <use transform="scale(0.996264)" xlink:href="#CMR17-48"/>
     </g>
    </g>
   </g>
   <g id="xtick_4">
    <g id="line2d_6">
     <path d="M 284.033869 185.838281 
L 288.501553 186.820507 
" style="fill:none;stroke:#000000;stroke-linecap:square;stroke-width:0.8;"/>
    </g>
    <g id="text_4">
     <!-- 1 -->
     <g transform="translate(298.638248 199.442879)rotate(-337.5)scale(0.14 -0.14)">
      <use transform="scale(0.996264)" xlink:href="#CMR17-49"/>
     </g>
    </g>
   </g>
  </g>
  <g id="axis3d_3">
   <g id="line2d_7">
    <path d="M 305.111665 171.581202 
L 312.491547 37.79869 
" style="fill:none;stroke:#000000;stroke-linecap:square;stroke-width:0.8;"/>
   </g>
   <g id="Line3DCollection_3">
    <path d="M 305.252029 169.036678 
L 128.688656 131.110086 
L 19.685428 198.951687 
" style="fill:none;stroke:#b0b0b0;stroke-width:0.8;"/>
    <path d="M 307.967389 119.812633 
L 128.020764 83.265082 
L 16.787513 148.681307 
" style="fill:none;stroke:#b0b0b0;stroke-width:0.8;"/>
    <path d="M 310.789786 68.648212 
L 127.327677 33.615304 
L 13.771473 96.361779 
" style="fill:none;stroke:#b0b0b0;stroke-width:0.8;"/>
   </g>
   <g id="xtick_5">
    <g id="line2d_8">
     <path d="M 303.77886 168.720235 
L 308.201432 169.670223 
" style="fill:none;stroke:#000000;stroke-linecap:square;stroke-width:0.8;"/>
    </g>
    <g id="text_5">
     <!-- $0.0$ -->
     <defs>
      <path d="M 18.40625 4.796875 
C 18.40625 7.6875 16 9.6875 13.59375 9.6875 
C 10.703125 9.6875 8.703125 7.296875 8.703125 4.890625 
C 8.703125 2 11.09375 0 13.5 0 
C 16.40625 0 18.40625 2.390625 18.40625 4.796875 
z
" id="CMMI12-58"/>
     </defs>
     <g transform="translate(315.054522 176.781645)scale(0.14 -0.14)">
      <use transform="scale(0.996264)" xlink:href="#CMR17-48"/>
      <use transform="translate(45.690477 0)scale(0.996264)" xlink:href="#CMMI12-58"/>
      <use transform="translate(72.787654 0)scale(0.996264)" xlink:href="#CMR17-48"/>
     </g>
    </g>
   </g>
   <g id="xtick_6">
    <g id="line2d_9">
     <path d="M 306.464797 119.507453 
L 310.975759 120.423639 
" style="fill:none;stroke:#000000;stroke-linecap:square;stroke-width:0.8;"/>
    </g>
    <g id="text_6">
     <!-- $0.2$ -->
     <defs>
      <path d="M 41.703125 15.46875 
L 39.90625 15.46875 
C 38.90625 8.390625 38.09375 7.1875 37.703125 6.59375 
C 37.203125 5.796875 30 5.796875 28.59375 5.796875 
L 9.40625 5.796875 
C 13 9.6875 20 16.765625 28.5 24.9375 
C 34.59375 30.71875 41.703125 37.5 41.703125 47.390625 
C 41.703125 59.1875 32.296875 66 21.796875 66 
C 10.796875 66 4.09375 56.296875 4.09375 47.296875 
C 4.09375 43.390625 7 42.890625 8.203125 42.890625 
C 9.203125 42.890625 12.203125 43.484375 12.203125 46.984375 
C 12.203125 50.09375 9.59375 51 8.203125 51 
C 7.59375 51 7 50.890625 6.59375 50.6875 
C 8.5 59.1875 14.296875 63.390625 20.40625 63.390625 
C 29.09375 63.390625 34.796875 56.5 34.796875 47.390625 
C 34.796875 38.703125 29.703125 31.21875 24 24.734375 
L 4.09375 2.296875 
L 4.09375 0 
L 39.296875 0 
z
" id="CMR17-50"/>
     </defs>
     <g transform="translate(318.121344 127.626749)scale(0.14 -0.14)">
      <use transform="scale(0.996264)" xlink:href="#CMR17-48"/>
      <use transform="translate(45.690477 0)scale(0.996264)" xlink:href="#CMMI12-58"/>
      <use transform="translate(72.787654 0)scale(0.996264)" xlink:href="#CMR17-50"/>
     </g>
    </g>
   </g>
   <g id="xtick_7">
    <g id="line2d_10">
     <path d="M 309.256573 68.355438 
L 313.859527 69.234392 
" style="fill:none;stroke:#000000;stroke-linecap:square;stroke-width:0.8;"/>
    </g>
    <g id="text_7">
     <!-- $0.4$ -->
     <defs>
      <path d="M 33.59375 64.796875 
C 33.59375 66.890625 33.5 67 31.703125 67 
L 2 19.59375 
L 2 17 
L 27.796875 17 
L 27.796875 7.1875 
C 27.796875 3.59375 27.59375 2.59375 20.59375 2.59375 
L 18.703125 2.59375 
L 18.703125 0 
C 21.90625 0.1875 27.296875 0.1875 30.703125 0.1875 
C 34.09375 0.1875 39.5 0.1875 42.703125 0 
L 42.703125 2.59375 
L 40.796875 2.59375 
C 33.796875 2.59375 33.59375 3.59375 33.59375 7.1875 
L 33.59375 17 
L 43.796875 17 
L 43.796875 19.59375 
L 33.59375 19.59375 
z
M 28.09375 58.171875 
L 28.09375 19.59375 
L 4 19.59375 
z
" id="CMR17-52"/>
     </defs>
     <g transform="translate(321.308791 76.538481)scale(0.14 -0.14)">
      <use transform="scale(0.996264)" xlink:href="#CMR17-48"/>
      <use transform="translate(45.690477 0)scale(0.996264)" xlink:href="#CMMI12-58"/>
      <use transform="translate(72.787654 0)scale(0.996264)" xlink:href="#CMR17-52"/>
     </g>
    </g>
   </g>
  </g>
  <g id="axes_1">
   <g id="Poly3DCollection_1">
    <path clip-path="url(#pd9866adaa2)" d="M 133.051747 137.476151 
L 133.025145 135.313678 
L 183.321471 146.157875 
L 183.305731 148.337776 
z
" style="fill:#5d0618;fill-opacity:0.8;"/>
    <path clip-path="url(#pd9866adaa2)" d="M 102.863579 156.460156 
L 102.810539 154.26737 
L 133.025145 135.313678 
L 133.051747 137.476151 
z
" style="fill:#ba0c2f;fill-opacity:0.8;"/>
    <path clip-path="url(#pd9866adaa2)" d="M 102.863579 156.460156 
L 133.051747 137.476151 
L 183.305731 148.337776 
L 153.832878 167.797324 
z
" style="fill:#74081d;fill-opacity:0.8;"/>
    <path clip-path="url(#pd9866adaa2)" d="M 102.810539 154.26737 
L 153.82339 165.586761 
L 183.321471 146.157875 
L 133.025145 135.313678 
z
" style="fill:#a30a29;fill-opacity:0.8;"/>
    <path clip-path="url(#pd9866adaa2)" d="M 153.832878 167.797324 
L 183.305731 148.337776 
L 183.321471 146.157875 
L 153.82339 165.586761 
z
" style="fill:#5d0618;fill-opacity:0.8;"/>
    <path clip-path="url(#pd9866adaa2)" d="M 102.863579 156.460156 
L 153.832878 167.797324 
L 153.82339 165.586761 
L 102.810539 154.26737 
z
" style="fill:#ba0c2f;fill-opacity:0.8;"/>
   </g>
   <g id="Poly3DCollection_2">
    <path clip-path="url(#pd9866adaa2)" d="M 176.0935 200.277182 
L 176.103676 198.017042 
L 230.600587 210.472712 
L 230.54071 212.751359 
z
" style="fill:#5d0618;fill-opacity:0.8;"/>
    <path clip-path="url(#pd9866adaa2)" d="M 144.700269 222.09393 
L 144.681821 219.801615 
L 176.103676 198.017042 
L 176.0935 200.277182 
z
" style="fill:#ba0c2f;fill-opacity:0.8;"/>
    <path clip-path="url(#pd9866adaa2)" d="M 144.700269 222.09393 
L 176.0935 200.277182 
L 230.54071 212.751359 
L 199.997442 235.154762 
z
" style="fill:#74081d;fill-opacity:0.8;"/>
    <path clip-path="url(#pd9866adaa2)" d="M 144.681821 219.801615 
L 200.030265 232.843617 
L 230.600587 210.472712 
L 176.103676 198.017042 
z
" style="fill:#a30a29;fill-opacity:0.8;"/>
    <path clip-path="url(#pd9866adaa2)" d="M 199.997442 235.154762 
L 230.54071 212.751359 
L 230.600587 210.472712 
L 200.030265 232.843617 
z
" style="fill:#5d0618;fill-opacity:0.8;"/>
    <path clip-path="url(#pd9866adaa2)" d="M 144.700269 222.09393 
L 199.997442 235.154762 
L 200.030265 232.843617 
L 144.681821 219.801615 
z
" style="fill:#ba0c2f;fill-opacity:0.8;"/>
   </g>
   <g id="Poly3DCollection_3">
    <path clip-path="url(#pd9866adaa2)" d="M 206.101063 179.423404 
L 234.812719 159.470217 
L 287.620167 170.883733 
L 259.718426 191.349584 
z
" style="fill:#74081d;fill-opacity:0.8;"/>
    <path clip-path="url(#pd9866adaa2)" d="M 234.812719 159.470217 
L 238.306089 31.980216 
L 293.828503 42.279736 
L 287.620167 170.883733 
z
" style="fill:#5d0618;fill-opacity:0.8;"/>
    <path clip-path="url(#pd9866adaa2)" d="M 206.101063 179.423404 
L 208.210289 49.994399 
L 238.306089 31.980216 
L 234.812719 159.470217 
z
" style="fill:#ba0c2f;fill-opacity:0.8;"/>
    <path clip-path="url(#pd9866adaa2)" d="M 259.718426 191.349584 
L 287.620167 170.883733 
L 293.828503 42.279736 
L 264.629552 60.78059 
z
" style="fill:#5d0618;fill-opacity:0.8;"/>
    <path clip-path="url(#pd9866adaa2)" d="M 206.101063 179.423404 
L 259.718426 191.349584 
L 264.629552 60.78059 
L 208.210289 49.994399 
z
" style="fill:#ba0c2f;fill-opacity:0.8;"/>
    <path clip-path="url(#pd9866adaa2)" d="M 208.210289 49.994399 
L 264.629552 60.78059 
L 293.828503 42.279736 
L 238.306089 31.980216 
z
" style="fill:#a30a29;fill-opacity:0.8;"/>
   </g>
   <g id="Poly3DCollection_4">
    <path clip-path="url(#pd9866adaa2)" d="M 38.413819 196.989763 
L 71.347468 176.279247 
L 123.046871 188.123885 
L 90.857951 209.376725 
z
" style="fill:#74081d;fill-opacity:0.8;"/>
    <path clip-path="url(#pd9866adaa2)" d="M 71.347468 176.279247 
L 66.72217 50.550929 
L 120.953321 61.29168 
L 123.046871 188.123885 
z
" style="fill:#5d0618;fill-opacity:0.8;"/>
    <path clip-path="url(#pd9866adaa2)" d="M 38.413819 196.989763 
L 32.010152 69.340243 
L 66.72217 50.550929 
L 71.347468 176.279247 
z
" style="fill:#ba0c2f;fill-opacity:0.8;"/>
    <path clip-path="url(#pd9866adaa2)" d="M 90.857951 209.376725 
L 123.046871 188.123885 
L 120.953321 61.29168 
L 87.060349 80.598167 
z
" style="fill:#5d0618;fill-opacity:0.8;"/>
    <path clip-path="url(#pd9866adaa2)" d="M 38.413819 196.989763 
L 90.857951 209.376725 
L 87.060349 80.598167 
L 32.010152 69.340243 
z
" style="fill:#ba0c2f;fill-opacity:0.8;"/>
    <path clip-path="url(#pd9866adaa2)" d="M 32.010152 69.340243 
L 87.060349 80.598167 
L 120.953321 61.29168 
L 66.72217 50.550929 
z
" style="fill:#a30a29;fill-opacity:0.8;"/>
   </g>
  </g>
  <g id="patch_6">
   <path d="M 425.945455 262.8 
L 806.4 262.8 
L 806.4 -14.4 
L 425.945455 -14.4 
z
" style="fill:#ffffff;"/>
  </g>
  <g id="pane3d_4">
   <g id="patch_7">
    <path d="M 476.380584 201.548569 
L 585.268665 133.58541 
L 583.455794 3.718968 
L 468.496488 64.782468 
" style="fill:#f2f2f2;opacity:0.5;stroke:#f2f2f2;stroke-linejoin:miter;"/>
   </g>
  </g>
  <g id="pane3d_5">
   <g id="patch_8">
    <path d="M 585.268665 133.58541 
L 761.65712 171.581202 
L 769.037001 37.79869 
L 583.455794 3.718968 
" style="fill:#e6e6e6;opacity:0.5;stroke:#e6e6e6;stroke-linejoin:miter;"/>
   </g>
  </g>
  <g id="pane3d_6">
   <g id="patch_9">
    <path d="M 476.380584 201.548569 
L 661.965072 245.80086 
L 761.65712 171.581202 
L 585.268665 133.58541 
" style="fill:#ececec;opacity:0.5;stroke:#ececec;stroke-linejoin:miter;"/>
   </g>
  </g>
  <g id="axis3d_4">
   <g id="line2d_11">
    <path d="M 476.380584 201.548569 
L 661.965072 245.80086 
" style="fill:none;stroke:#000000;stroke-linecap:square;stroke-width:0.8;"/>
   </g>
   <g id="Line3DCollection_4">
    <path d="M 513.800444 210.471268 
L 620.92963 141.267129 
L 620.91012 10.596997 
" style="fill:none;stroke:#b0b0b0;stroke-width:0.8;"/>
    <path d="M 621.739574 236.209161 
L 723.525199 163.367214 
L 728.849235 30.418697 
" style="fill:none;stroke:#b0b0b0;stroke-width:0.8;"/>
   </g>
   <g id="xtick_8">
    <g id="line2d_12">
     <path d="M 514.72385 209.87476 
L 511.950167 211.666525 
" style="fill:none;stroke:#000000;stroke-linecap:square;stroke-width:0.8;"/>
    </g>
    <g id="text_8">
     <!-- 0 -->
     <g transform="translate(499.661907 235.94338)rotate(-45)scale(0.14 -0.14)">
      <use transform="scale(0.996264)" xlink:href="#CMR17-48"/>
     </g>
    </g>
   </g>
   <g id="xtick_9">
    <g id="line2d_13">
     <path d="M 622.618618 235.580081 
L 619.978095 237.469747 
" style="fill:none;stroke:#000000;stroke-linecap:square;stroke-width:0.8;"/>
    </g>
    <g id="text_9">
     <!-- 1 -->
     <g transform="translate(607.595633 262.099975)rotate(-45)scale(0.14 -0.14)">
      <use transform="scale(0.996264)" xlink:href="#CMR17-49"/>
     </g>
    </g>
   </g>
  </g>
  <g id="axis3d_5">
   <g id="line2d_14">
    <path d="M 761.65712 171.581202 
L 661.965072 245.80086 
" style="fill:none;stroke:#000000;stroke-linecap:square;stroke-width:0.8;"/>
   </g>
   <g id="Line3DCollection_5">
    <path d="M 494.058657 51.204485 
L 500.519418 186.482168 
L 684.123027 229.3045 
" style="fill:none;stroke:#b0b0b0;stroke-width:0.8;"/>
    <path d="M 560.876051 15.712761 
L 563.814301 146.976282 
L 742.067505 186.16546 
" style="fill:none;stroke:#b0b0b0;stroke-width:0.8;"/>
   </g>
   <g id="xtick_10">
    <g id="line2d_15">
     <path d="M 682.587211 228.946298 
L 687.198051 230.021696 
" style="fill:none;stroke:#000000;stroke-linecap:square;stroke-width:0.8;"/>
    </g>
    <g id="text_10">
     <!-- 0 -->
     <g transform="translate(697.826412 243.087677)rotate(-337.5)scale(0.14 -0.14)">
      <use transform="scale(0.996264)" xlink:href="#CMR17-48"/>
     </g>
    </g>
   </g>
   <g id="xtick_11">
    <g id="line2d_16">
     <path d="M 740.579324 185.838281 
L 745.047008 186.820507 
" style="fill:none;stroke:#000000;stroke-linecap:square;stroke-width:0.8;"/>
    </g>
    <g id="text_11">
     <!-- 1 -->
     <g transform="translate(755.183702 199.442879)rotate(-337.5)scale(0.14 -0.14)">
      <use transform="scale(0.996264)" xlink:href="#CMR17-49"/>
     </g>
    </g>
   </g>
  </g>
  <g id="axis3d_6">
   <g id="line2d_17">
    <path d="M 761.65712 171.581202 
L 769.037001 37.79869 
" style="fill:none;stroke:#000000;stroke-linecap:square;stroke-width:0.8;"/>
   </g>
   <g id="Line3DCollection_6">
    <path d="M 761.877857 167.579684 
L 585.214326 129.692808 
L 476.145159 197.464636 
" style="fill:none;stroke:#b0b0b0;stroke-width:0.8;"/>
    <path d="M 764.563357 118.896925 
L 584.553804 82.375755 
L 473.279024 147.745531 
" style="fill:none;stroke:#b0b0b0;stroke-width:0.8;"/>
    <path d="M 767.35347 68.317747 
L 583.868659 33.294891 
L 470.297434 96.02363 
" style="fill:none;stroke:#b0b0b0;stroke-width:0.8;"/>
   </g>
   <g id="xtick_12">
    <g id="line2d_18">
     <path d="M 760.403817 167.263565 
L 764.829004 168.21258 
" style="fill:none;stroke:#000000;stroke-linecap:square;stroke-width:0.8;"/>
    </g>
    <g id="text_12">
     <!-- $0.0$ -->
     <g transform="translate(771.690755 175.32664)scale(0.14 -0.14)">
      <use transform="scale(0.996264)" xlink:href="#CMR17-48"/>
      <use transform="translate(45.690477 0)scale(0.996264)" xlink:href="#CMMI12-58"/>
      <use transform="translate(72.787654 0)scale(0.996264)" xlink:href="#CMR17-48"/>
     </g>
    </g>
   </g>
   <g id="xtick_13">
    <g id="line2d_19">
     <path d="M 763.060217 118.591961 
L 767.572825 119.5075 
" style="fill:none;stroke:#000000;stroke-linecap:square;stroke-width:0.8;"/>
    </g>
    <g id="text_13">
     <!-- $0.2$ -->
     <g transform="translate(774.723848 126.712366)scale(0.14 -0.14)">
      <use transform="scale(0.996264)" xlink:href="#CMR17-48"/>
      <use transform="translate(45.690477 0)scale(0.996264)" xlink:href="#CMMI12-58"/>
      <use transform="translate(72.787654 0)scale(0.996264)" xlink:href="#CMR17-50"/>
     </g>
    </g>
   </g>
   <g id="xtick_14">
    <g id="line2d_20">
     <path d="M 765.820059 68.025056 
L 770.423608 68.903763 
" style="fill:none;stroke:#000000;stroke-linecap:square;stroke-width:0.8;"/>
    </g>
    <g id="text_14">
     <!-- $0.4$ -->
     <g transform="translate(777.874832 76.208523)scale(0.14 -0.14)">
      <use transform="scale(0.996264)" xlink:href="#CMR17-48"/>
      <use transform="translate(45.690477 0)scale(0.996264)" xlink:href="#CMMI12-58"/>
      <use transform="translate(72.787654 0)scale(0.996264)" xlink:href="#CMR17-52"/>
     </g>
    </g>
   </g>
  </g>
  <g id="axes_2">
   <g id="Poly3DCollection_5">
    <path clip-path="url(#pde4f80cc3f)" d="M 589.579683 136.052081 
L 589.597202 137.476151 
L 639.851186 148.337776 
L 639.861551 146.902234 
z
" style="fill:#0cba97;fill-opacity:0.8;"/>
    <path clip-path="url(#pde4f80cc3f)" d="M 559.374105 155.016132 
L 559.409034 156.460156 
L 589.597202 137.476151 
L 589.579683 136.052081 
z
" style="fill:#065d4c;fill-opacity:0.8;"/>
    <path clip-path="url(#pde4f80cc3f)" d="M 559.409034 156.460156 
L 610.378332 167.797324 
L 639.851186 148.337776 
L 589.597202 137.476151 
z
" style="fill:#0aa384;fill-opacity:0.8;"/>
    <path clip-path="url(#pde4f80cc3f)" d="M 559.374105 155.016132 
L 589.579683 136.052081 
L 639.861551 146.902234 
L 610.372084 166.341599 
z
" style="fill:#08745e;fill-opacity:0.8;"/>
    <path clip-path="url(#pde4f80cc3f)" d="M 610.372084 166.341599 
L 639.861551 146.902234 
L 639.851186 148.337776 
L 610.378332 167.797324 
z
" style="fill:#0cba97;fill-opacity:0.8;"/>
    <path clip-path="url(#pde4f80cc3f)" d="M 559.374105 155.016132 
L 610.372084 166.341599 
L 610.378332 167.797324 
L 559.409034 156.460156 
z
" style="fill:#065d4c;fill-opacity:0.8;"/>
   </g>
   <g id="Poly3DCollection_6">
    <path clip-path="url(#pde4f80cc3f)" d="M 691.397827 158.023071 
L 691.397827 158.023071 
L 744.236048 169.424851 
L 744.236048 169.424851 
z
" style="fill:#065d4c;fill-opacity:0.8;"/>
    <path clip-path="url(#pde4f80cc3f)" d="M 662.670433 177.955847 
L 662.670433 177.955847 
L 691.397827 158.023071 
L 691.397827 158.023071 
z
" style="fill:#065d4c;fill-opacity:0.8;"/>
    <path clip-path="url(#pde4f80cc3f)" d="M 662.670433 177.955847 
L 691.397827 158.023071 
L 744.236048 169.424851 
L 716.31953 189.870065 
z
" style="fill:#08745e;fill-opacity:0.8;"/>
    <path clip-path="url(#pde4f80cc3f)" d="M 662.670433 177.955847 
L 716.31953 189.870065 
L 744.236048 169.424851 
L 691.397827 158.023071 
z
" style="fill:#0aa384;fill-opacity:0.8;"/>
    <path clip-path="url(#pde4f80cc3f)" d="M 716.31953 189.870065 
L 744.236048 169.424851 
L 744.236048 169.424851 
L 716.31953 189.870065 
z
" style="fill:#065d4c;fill-opacity:0.8;"/>
    <path clip-path="url(#pde4f80cc3f)" d="M 662.670433 177.955847 
L 716.31953 189.870065 
L 716.31953 189.870065 
L 662.670433 177.955847 
z
" style="fill:#065d4c;fill-opacity:0.8;"/>
   </g>
   <g id="Poly3DCollection_7">
    <path clip-path="url(#pde4f80cc3f)" d="M 527.839051 174.814873 
L 527.839051 174.814873 
L 579.567957 186.647584 
L 579.567957 186.647584 
z
" style="fill:#065d4c;fill-opacity:0.8;"/>
    <path clip-path="url(#pde4f80cc3f)" d="M 494.884771 195.504649 
L 494.884771 195.504649 
L 527.839051 174.814873 
L 527.839051 174.814873 
z
" style="fill:#065d4c;fill-opacity:0.8;"/>
    <path clip-path="url(#pde4f80cc3f)" d="M 494.884771 195.504649 
L 527.839051 174.814873 
L 579.567957 186.647584 
L 547.359253 207.879463 
z
" style="fill:#08745e;fill-opacity:0.8;"/>
    <path clip-path="url(#pde4f80cc3f)" d="M 494.884771 195.504649 
L 547.359253 207.879463 
L 579.567957 186.647584 
L 527.839051 174.814873 
z
" style="fill:#0aa384;fill-opacity:0.8;"/>
    <path clip-path="url(#pde4f80cc3f)" d="M 547.359253 207.879463 
L 579.567957 186.647584 
L 579.567957 186.647584 
L 547.359253 207.879463 
z
" style="fill:#065d4c;fill-opacity:0.8;"/>
    <path clip-path="url(#pde4f80cc3f)" d="M 494.884771 195.504649 
L 547.359253 207.879463 
L 547.359253 207.879463 
L 494.884771 195.504649 
z
" style="fill:#065d4c;fill-opacity:0.8;"/>
   </g>
   <g id="Poly3DCollection_8">
    <path clip-path="url(#pde4f80cc3f)" d="M 632.645655 198.788825 
L 632.652364 197.298705 
L 687.165073 209.748481 
L 687.125595 211.25082 
z
" style="fill:#065d4c;fill-opacity:0.8;"/>
    <path clip-path="url(#pde4f80cc3f)" d="M 601.233575 220.584395 
L 601.221412 219.073031 
L 632.652364 197.298705 
L 632.645655 198.788825 
z
" style="fill:#0cba97;fill-opacity:0.8;"/>
    <path clip-path="url(#pde4f80cc3f)" d="M 601.233575 220.584395 
L 632.645655 198.788825 
L 687.125595 211.25082 
L 656.564511 233.632834 
z
" style="fill:#08745e;fill-opacity:0.8;"/>
    <path clip-path="url(#pde4f80cc3f)" d="M 601.221412 219.073031 
L 656.586152 232.109037 
L 687.165073 209.748481 
L 632.652364 197.298705 
z
" style="fill:#0aa384;fill-opacity:0.8;"/>
    <path clip-path="url(#pde4f80cc3f)" d="M 656.564511 233.632834 
L 687.125595 211.25082 
L 687.165073 209.748481 
L 656.586152 232.109037 
z
" style="fill:#065d4c;fill-opacity:0.8;"/>
    <path clip-path="url(#pde4f80cc3f)" d="M 601.233575 220.584395 
L 656.564511 233.632834 
L 656.586152 232.109037 
L 601.221412 219.073031 
z
" style="fill:#0cba97;fill-opacity:0.8;"/>
   </g>
   <g id="Poly3DCollection_9">
    <path clip-path="url(#pde4f80cc3f)" d="M 482.043165 196.84776 
L 660.305577 239.082665 
L 756.340968 168.15879 
L 586.579487 131.681518 
z
" style="fill-opacity:0.2;"/>
   </g>
  </g>
 </g>
 <defs>
  <clipPath id="pd9866adaa2">
   <rect height="277.2" width="380.454545" x="-30.6" y="-14.4"/>
  </clipPath>
  <clipPath id="pde4f80cc3f">
   <rect height="277.2" width="380.454545" x="425.945455" y="-14.4"/>
  </clipPath>
 </defs>
</svg>
