<?xml version="1.0" encoding="utf-8" standalone="no"?>
<!DOCTYPE svg PUBLIC "-//W3C//DTD SVG 1.1//EN"
  "http://www.w3.org/Graphics/SVG/1.1/DTD/svg11.dtd">
<!-- Created with matplotlib (https://matplotlib.org/) -->
<svg height="302.4pt" version="1.1" viewBox="0 0 820.8 302.4" width="820.8pt" xmlns="http://www.w3.org/2000/svg" xmlns:xlink="http://www.w3.org/1999/xlink">
 <defs>
  <style type="text/css">
*{stroke-linecap:butt;stroke-linejoin:round;}
  </style>
 </defs>
 <g id="figure_1">
  <g id="patch_1">
   <path d="M 0 302.4 
L 820.8 302.4 
L 820.8 0 
L 0 0 
z
" style="fill:#ffffff;"/>
  </g>
  <g id="patch_2">
   <path d="M -30.6 262.8 
L 349.854545 262.8 
L 349.854545 -14.4 
L -30.6 -14.4 
z
" style="fill:#ffffff;"/>
  </g>
  <g id="pane3d_1">
   <g id="patch_3">
    <path d="M 19.835129 201.548569 
L 128.723211 133.58541 
L 126.910339 3.718968 
L 11.951034 64.782468 
" style="fill:#f2f2f2;opacity:0.5;stroke:#f2f2f2;stroke-linejoin:miter;"/>
   </g>
  </g>
  <g id="pane3d_2">
   <g id="patch_4">
    <path d="M 128.723211 133.58541 
L 305.111665 171.581202 
L 312.491547 37.79869 
L 126.910339 3.718968 
" style="fill:#e6e6e6;opacity:0.5;stroke:#e6e6e6;stroke-linejoin:miter;"/>
   </g>
  </g>
  <g id="pane3d_3">
   <g id="patch_5">
    <path d="M 19.835129 201.548569 
L 205.419617 245.80086 
L 305.111665 171.581202 
L 128.723211 133.58541 
" style="fill:#ececec;opacity:0.5;stroke:#ececec;stroke-linejoin:miter;"/>
   </g>
  </g>
  <g id="axis3d_1">
   <g id="line2d_1">
    <path d="M 19.835129 201.548569 
L 205.419617 245.80086 
" style="fill:none;stroke:#000000;stroke-linecap:square;stroke-width:0.8;"/>
   </g>
   <g id="Line3DCollection_1">
    <path d="M 42.295817 206.90428 
L 150.133942 138.19749 
L 149.393845 7.847789 
" style="fill:none;stroke:#b0b0b0;stroke-width:0.8;"/>
    <path d="M 87.512337 217.686079 
L 193.184014 147.470895 
L 194.636898 16.156123 
" style="fill:none;stroke:#b0b0b0;stroke-width:0.8;"/>
    <path d="M 133.765289 228.715013 
L 237.148096 156.941187 
L 240.890183 24.649974 
" style="fill:none;stroke:#b0b0b0;stroke-width:0.8;"/>
    <path d="M 181.090721 239.999678 
L 282.055608 166.614702 
L 288.187917 33.335625 
" style="fill:none;stroke:#b0b0b0;stroke-width:0.8;"/>
   </g>
   <g id="xtick_1">
    <g id="line2d_2">
     <path d="M 43.225084 206.312217 
L 40.433807 208.09062 
" style="fill:none;stroke:#000000;stroke-linecap:square;stroke-width:0.8;"/>
    </g>
    <g id="text_1">
     <!-- 00 -->
     <defs>
      <path d="M 42 31.84375 
C 42 37.96875 41.90625 48.421875 37.703125 56.453125 
C 34 63.484375 28.09375 66 22.90625 66 
C 18.09375 66 12 63.78125 8.203125 56.5625 
C 4.203125 49.015625 3.796875 39.671875 3.796875 31.84375 
C 3.796875 26.109375 3.90625 17.375 7 9.734375 
C 11.296875 -0.609375 19 -2 22.90625 -2 
C 27.5 -2 34.5 -0.109375 38.59375 9.4375 
C 41.59375 16.375 42 24.5 42 31.84375 
z
M 22.90625 -0.40625 
C 16.5 -0.40625 12.703125 5.125 11.296875 12.75 
C 10.203125 18.6875 10.203125 27.328125 10.203125 32.953125 
C 10.203125 40.6875 10.203125 47.109375 11.5 53.234375 
C 13.40625 61.78125 19 64.390625 22.90625 64.390625 
C 27 64.390625 32.296875 61.671875 34.203125 53.4375 
C 35.5 47.71875 35.59375 40.984375 35.59375 32.953125 
C 35.59375 26.421875 35.59375 18.375 34.40625 12.453125 
C 32.296875 1.5 26.40625 -0.40625 22.90625 -0.40625 
z
" id="CMR17-48"/>
     </defs>
     <g transform="translate(19.241292 243.348593)rotate(-45)scale(0.2 -0.2)">
      <use transform="scale(0.996264)" xlink:href="#CMR17-48"/>
      <use transform="translate(45.690477 0)scale(0.996264)" xlink:href="#CMR17-48"/>
     </g>
    </g>
   </g>
   <g id="xtick_2">
    <g id="line2d_3">
     <path d="M 88.423674 217.080527 
L 85.686217 218.899473 
" style="fill:none;stroke:#000000;stroke-linecap:square;stroke-width:0.8;"/>
    </g>
    <g id="text_2">
     <!-- 01 -->
     <defs>
      <path d="M 26.59375 63.796875 
C 26.59375 65.890625 26.5 66 25.09375 66 
C 21.203125 61.359375 15.296875 59.890625 9.703125 59.6875 
C 9.40625 59.6875 8.90625 59.6875 8.796875 59.5 
C 8.703125 59.296875 8.703125 59.09375 8.703125 57 
C 11.796875 57 17 57.59375 21 59.984375 
L 21 7.296875 
C 21 3.796875 20.796875 2.59375 12.203125 2.59375 
L 9.203125 2.59375 
L 9.203125 0 
C 14 0.09375 19 0.1875 23.796875 0.1875 
C 28.59375 0.1875 33.59375 0.09375 38.40625 0 
L 38.40625 2.59375 
L 35.40625 2.59375 
C 26.796875 2.59375 26.59375 3.6875 26.59375 7.296875 
z
" id="CMR17-49"/>
     </defs>
     <g transform="translate(64.453717 254.305345)rotate(-45)scale(0.2 -0.2)">
      <use transform="scale(0.996264)" xlink:href="#CMR17-48"/>
      <use transform="translate(45.690477 0)scale(0.996264)" xlink:href="#CMR17-49"/>
     </g>
    </g>
   </g>
   <g id="xtick_3">
    <g id="line2d_4">
     <path d="M 134.657625 228.095506 
L 131.977203 229.956397 
" style="fill:none;stroke:#000000;stroke-linecap:square;stroke-width:0.8;"/>
    </g>
    <g id="text_3">
     <!-- 10 -->
     <g transform="translate(110.70433 265.513691)rotate(-45)scale(0.2 -0.2)">
      <use transform="scale(0.996264)" xlink:href="#CMR17-49"/>
      <use transform="translate(45.690477 0)scale(0.996264)" xlink:href="#CMR17-48"/>
     </g>
    </g>
   </g>
   <g id="xtick_4">
    <g id="line2d_5">
     <path d="M 181.962926 239.365727 
L 179.342936 241.270032 
" style="fill:none;stroke:#000000;stroke-linecap:square;stroke-width:0.8;"/>
    </g>
    <g id="text_4">
     <!-- 11 -->
     <g transform="translate(158.029305 276.982396)rotate(-45)scale(0.2 -0.2)">
      <use transform="scale(0.996264)" xlink:href="#CMR17-49"/>
      <use transform="translate(45.690477 0)scale(0.996264)" xlink:href="#CMR17-49"/>
     </g>
    </g>
   </g>
  </g>
  <g id="axis3d_2">
   <g id="line2d_6">
    <path d="M 305.111665 171.581202 
L 205.419617 245.80086 
" style="fill:none;stroke:#000000;stroke-linecap:square;stroke-width:0.8;"/>
   </g>
   <g id="Line3DCollection_2">
    <path d="M 27.455231 56.547028 
L 34.471044 192.413474 
L 218.858418 235.795817 
" style="fill:none;stroke:#b0b0b0;stroke-width:0.8;"/>
    <path d="M 57.232024 40.730342 
L 62.623407 174.842005 
L 244.674037 216.576366 
" style="fill:none;stroke:#b0b0b0;stroke-width:0.8;"/>
    <path d="M 85.85589 25.526062 
L 89.739382 157.917404 
L 269.496985 198.095948 
" style="fill:none;stroke:#b0b0b0;stroke-width:0.8;"/>
    <path d="M 113.392516 10.899296 
L 115.875164 141.604597 
L 293.383438 180.312741 
" style="fill:none;stroke:#b0b0b0;stroke-width:0.8;"/>
   </g>
   <g id="xtick_5">
    <g id="line2d_7">
     <path d="M 217.315598 235.432825 
L 221.947489 236.522608 
" style="fill:none;stroke:#000000;stroke-linecap:square;stroke-width:0.8;"/>
    </g>
    <g id="text_5">
     <!-- 00 -->
     <g transform="translate(233.095662 248.844567)rotate(-337.5)scale(0.2 -0.2)">
      <use transform="scale(0.996264)" xlink:href="#CMR17-48"/>
      <use transform="translate(45.690477 0)scale(0.996264)" xlink:href="#CMR17-48"/>
     </g>
    </g>
   </g>
   <g id="xtick_6">
    <g id="line2d_8">
     <path d="M 243.15208 216.227463 
L 247.72127 217.274932 
" style="fill:none;stroke:#000000;stroke-linecap:square;stroke-width:0.8;"/>
    </g>
    <g id="text_6">
     <!-- 01 -->
     <g transform="translate(258.649213 229.400141)rotate(-337.5)scale(0.2 -0.2)">
      <use transform="scale(0.996264)" xlink:href="#CMR17-48"/>
      <use transform="translate(45.690477 0)scale(0.996264)" xlink:href="#CMR17-49"/>
     </g>
    </g>
   </g>
   <g id="xtick_7">
    <g id="line2d_9">
     <path d="M 267.995442 197.76033 
L 272.503283 198.767901 
" style="fill:none;stroke:#000000;stroke-linecap:square;stroke-width:0.8;"/>
    </g>
    <g id="text_7">
     <!-- 10 -->
     <g transform="translate(283.220625 210.703053)rotate(-337.5)scale(0.2 -0.2)">
      <use transform="scale(0.996264)" xlink:href="#CMR17-49"/>
      <use transform="translate(45.690477 0)scale(0.996264)" xlink:href="#CMR17-48"/>
     </g>
    </g>
   </g>
   <g id="xtick_8">
    <g id="line2d_10">
     <path d="M 291.901865 179.989663 
L 296.349691 180.959573 
" style="fill:none;stroke:#000000;stroke-linecap:square;stroke-width:0.8;"/>
    </g>
    <g id="text_8">
     <!-- 11 -->
     <g transform="translate(306.865451 192.711031)rotate(-337.5)scale(0.2 -0.2)">
      <use transform="scale(0.996264)" xlink:href="#CMR17-49"/>
      <use transform="translate(45.690477 0)scale(0.996264)" xlink:href="#CMR17-49"/>
     </g>
    </g>
   </g>
  </g>
  <g id="axis3d_3">
   <g id="line2d_11">
    <path d="M 305.111665 171.581202 
L 312.491547 37.79869 
" style="fill:none;stroke:#000000;stroke-linecap:square;stroke-width:0.8;"/>
   </g>
   <g id="Line3DCollection_3">
    <path d="M 305.304945 168.077427 
L 128.67563 130.176975 
L 19.62899 197.972654 
" style="fill:none;stroke:#b0b0b0;stroke-width:0.8;"/>
    <path d="M 308.038212 118.528755 
L 128.003358 82.018199 
L 16.71188 147.369287 
" style="fill:none;stroke:#b0b0b0;stroke-width:0.8;"/>
    <path d="M 310.879905 67.014529 
L 127.305566 32.031346 
L 13.675105 94.690079 
" style="fill:none;stroke:#b0b0b0;stroke-width:0.8;"/>
   </g>
   <g id="xtick_9">
    <g id="line2d_12">
     <path d="M 303.831203 167.761197 
L 308.255496 168.710545 
" style="fill:none;stroke:#000000;stroke-linecap:square;stroke-width:0.8;"/>
    </g>
    <g id="text_9">
     <!-- $0.0$ -->
     <defs>
      <path d="M 18.40625 4.796875 
C 18.40625 7.6875 16 9.6875 13.59375 9.6875 
C 10.703125 9.6875 8.703125 7.296875 8.703125 4.890625 
C 8.703125 2 11.09375 0 13.5 0 
C 16.40625 0 18.40625 2.390625 18.40625 4.796875 
z
" id="CMMI12-58"/>
     </defs>
     <g transform="translate(311.991766 179.974824)scale(0.2 -0.2)">
      <use transform="scale(0.996264)" xlink:href="#CMR17-48"/>
      <use transform="translate(45.690477 0)scale(0.996264)" xlink:href="#CMMI12-58"/>
      <use transform="translate(72.787654 0)scale(0.996264)" xlink:href="#CMR17-48"/>
     </g>
    </g>
   </g>
   <g id="xtick_10">
    <g id="line2d_13">
     <path d="M 306.534852 118.223878 
L 311.048121 119.139156 
" style="fill:none;stroke:#000000;stroke-linecap:square;stroke-width:0.8;"/>
    </g>
    <g id="text_10">
     <!-- $0.2$ -->
     <defs>
      <path d="M 41.703125 15.46875 
L 39.90625 15.46875 
C 38.90625 8.390625 38.09375 7.1875 37.703125 6.59375 
C 37.203125 5.796875 30 5.796875 28.59375 5.796875 
L 9.40625 5.796875 
C 13 9.6875 20 16.765625 28.5 24.9375 
C 34.59375 30.71875 41.703125 37.5 41.703125 47.390625 
C 41.703125 59.1875 32.296875 66 21.796875 66 
C 10.796875 66 4.09375 56.296875 4.09375 47.296875 
C 4.09375 43.390625 7 42.890625 8.203125 42.890625 
C 9.203125 42.890625 12.203125 43.484375 12.203125 46.984375 
C 12.203125 50.09375 9.59375 51 8.203125 51 
C 7.59375 51 7 50.890625 6.59375 50.6875 
C 8.5 59.1875 14.296875 63.390625 20.40625 63.390625 
C 29.09375 63.390625 34.796875 56.5 34.796875 47.390625 
C 34.796875 38.703125 29.703125 31.21875 24 24.734375 
L 4.09375 2.296875 
L 4.09375 0 
L 39.296875 0 
z
" id="CMR17-50"/>
     </defs>
     <g transform="translate(315.078808 130.49585)scale(0.2 -0.2)">
      <use transform="scale(0.996264)" xlink:href="#CMR17-48"/>
      <use transform="translate(45.690477 0)scale(0.996264)" xlink:href="#CMMI12-58"/>
      <use transform="translate(72.787654 0)scale(0.996264)" xlink:href="#CMR17-50"/>
     </g>
    </g>
   </g>
   <g id="xtick_11">
    <g id="line2d_14">
     <path d="M 309.345714 66.722163 
L 313.951608 67.599894 
" style="fill:none;stroke:#000000;stroke-linecap:square;stroke-width:0.8;"/>
    </g>
    <g id="text_11">
     <!-- $0.4$ -->
     <defs>
      <path d="M 33.59375 64.796875 
C 33.59375 66.890625 33.5 67 31.703125 67 
L 2 19.59375 
L 2 17 
L 27.796875 17 
L 27.796875 7.1875 
C 27.796875 3.59375 27.59375 2.59375 20.59375 2.59375 
L 18.703125 2.59375 
L 18.703125 0 
C 21.90625 0.1875 27.296875 0.1875 30.703125 0.1875 
C 34.09375 0.1875 39.5 0.1875 42.703125 0 
L 42.703125 2.59375 
L 40.796875 2.59375 
C 33.796875 2.59375 33.59375 3.59375 33.59375 7.1875 
L 33.59375 17 
L 43.796875 17 
L 43.796875 19.59375 
L 33.59375 19.59375 
z
M 28.09375 58.171875 
L 28.09375 19.59375 
L 4 19.59375 
z
" id="CMR17-52"/>
     </defs>
     <g transform="translate(318.28804 79.058423)scale(0.2 -0.2)">
      <use transform="scale(0.996264)" xlink:href="#CMR17-48"/>
      <use transform="translate(45.690477 0)scale(0.996264)" xlink:href="#CMMI12-58"/>
      <use transform="translate(72.787654 0)scale(0.996264)" xlink:href="#CMR17-52"/>
     </g>
    </g>
   </g>
  </g>
  <g id="axes_1">
   <g id="Poly3DCollection_1">
    <path clip-path="url(#p2200d316ab)" d="M 133.040213 136.53857 
L 132.943433 128.671362 
L 154.403226 133.263391 
L 154.434912 141.157803 
z
" style="fill:#5d0618;fill-opacity:0.8;"/>
    <path clip-path="url(#p2200d316ab)" d="M 120.254805 144.570137 
L 120.117785 136.655724 
L 132.943433 128.671362 
L 133.040213 136.53857 
z
" style="fill:#ba0c2f;fill-opacity:0.8;"/>
    <path clip-path="url(#p2200d316ab)" d="M 120.254805 144.570137 
L 133.040213 136.53857 
L 154.434912 141.157803 
L 141.777903 149.274183 
z
" style="fill:#74081d;fill-opacity:0.8;"/>
    <path clip-path="url(#p2200d316ab)" d="M 120.117785 136.655724 
L 141.706758 141.332328 
L 154.403226 133.263391 
L 132.943433 128.671362 
z
" style="fill:#a30a29;fill-opacity:0.8;"/>
    <path clip-path="url(#p2200d316ab)" d="M 141.777903 149.274183 
L 154.434912 141.157803 
L 154.403226 133.263391 
L 141.706758 141.332328 
z
" style="fill:#5d0618;fill-opacity:0.8;"/>
    <path clip-path="url(#p2200d316ab)" d="M 120.254805 144.570137 
L 141.777903 149.274183 
L 141.706758 141.332328 
L 120.117785 136.655724 
z
" style="fill:#ba0c2f;fill-opacity:0.8;"/>
   </g>
   <g id="Poly3DCollection_2">
    <path clip-path="url(#p2200d316ab)" d="M 176.0551 145.82572 
L 176.053433 146.205334 
L 197.899441 150.92402 
L 197.904361 150.543095 
z
" style="fill:#ba0c2f;fill-opacity:0.8;"/>
    <path clip-path="url(#p2200d316ab)" d="M 163.529933 154.028264 
L 163.530117 154.410152 
L 176.053433 146.205334 
L 176.0551 145.82572 
z
" style="fill:#5d0618;fill-opacity:0.8;"/>
    <path clip-path="url(#p2200d316ab)" d="M 163.530117 154.410152 
L 185.511459 159.216392 
L 197.899441 150.92402 
L 176.053433 146.205334 
z
" style="fill:#a30a29;fill-opacity:0.8;"/>
    <path clip-path="url(#p2200d316ab)" d="M 163.529933 154.028264 
L 176.0551 145.82572 
L 197.904361 150.543095 
L 185.514568 158.833183 
z
" style="fill:#74081d;fill-opacity:0.8;"/>
    <path clip-path="url(#p2200d316ab)" d="M 185.514568 158.833183 
L 197.904361 150.543095 
L 197.899441 150.92402 
L 185.511459 159.216392 
z
" style="fill:#ba0c2f;fill-opacity:0.8;"/>
    <path clip-path="url(#p2200d316ab)" d="M 163.529933 154.028264 
L 185.514568 158.833183 
L 185.511459 159.216392 
L 163.530117 154.410152 
z
" style="fill:#5d0618;fill-opacity:0.8;"/>
   </g>
   <g id="Poly3DCollection_3">
    <path clip-path="url(#p2200d316ab)" d="M 107.234185 152.74946 
L 107.219445 152.092875 
L 128.877559 156.88182 
L 128.8868 157.540677 
z
" style="fill:#5d0618;fill-opacity:0.8;"/>
    <path clip-path="url(#p2200d316ab)" d="M 93.971801 161.080654 
L 93.953496 160.420126 
L 107.219445 152.092875 
L 107.234185 152.74946 
z
" style="fill:#ba0c2f;fill-opacity:0.8;"/>
    <path clip-path="url(#p2200d316ab)" d="M 93.971801 161.080654 
L 107.234185 152.74946 
L 128.8868 157.540677 
L 115.75505 165.961488 
z
" style="fill:#74081d;fill-opacity:0.8;"/>
    <path clip-path="url(#p2200d316ab)" d="M 93.953496 160.420126 
L 115.742308 165.298669 
L 128.877559 156.88182 
L 107.219445 152.092875 
z
" style="fill:#a30a29;fill-opacity:0.8;"/>
    <path clip-path="url(#p2200d316ab)" d="M 115.75505 165.961488 
L 128.8868 157.540677 
L 128.877559 156.88182 
L 115.742308 165.298669 
z
" style="fill:#5d0618;fill-opacity:0.8;"/>
    <path clip-path="url(#p2200d316ab)" d="M 93.971801 161.080654 
L 115.75505 165.961488 
L 115.742308 165.298669 
L 93.953496 160.420126 
z
" style="fill:#ba0c2f;fill-opacity:0.8;"/>
   </g>
   <g id="Poly3DCollection_4">
    <path clip-path="url(#p2200d316ab)" d="M 219.986357 155.310719 
L 220.006005 154.399646 
L 242.332562 159.21517 
L 242.304824 160.129398 
z
" style="fill:#5d0618;fill-opacity:0.8;"/>
    <path clip-path="url(#p2200d316ab)" d="M 207.735559 163.689759 
L 207.75099 162.773211 
L 220.006005 154.399646 
L 219.986357 155.310719 
z
" style="fill:#ba0c2f;fill-opacity:0.8;"/>
    <path clip-path="url(#p2200d316ab)" d="M 207.735559 163.689759 
L 219.986357 155.310719 
L 242.304824 160.129398 
L 230.196738 168.598831 
z
" style="fill:#74081d;fill-opacity:0.8;"/>
    <path clip-path="url(#p2200d316ab)" d="M 207.75099 162.773211 
L 230.220363 167.6791 
L 242.332562 159.21517 
L 220.006005 154.399646 
z
" style="fill:#a30a29;fill-opacity:0.8;"/>
    <path clip-path="url(#p2200d316ab)" d="M 230.196738 168.598831 
L 242.304824 160.129398 
L 242.332562 159.21517 
L 230.220363 167.6791 
z
" style="fill:#5d0618;fill-opacity:0.8;"/>
    <path clip-path="url(#p2200d316ab)" d="M 207.735559 163.689759 
L 230.196738 168.598831 
L 230.220363 167.6791 
L 207.75099 162.773211 
z
" style="fill:#ba0c2f;fill-opacity:0.8;"/>
   </g>
   <g id="Poly3DCollection_5">
    <path clip-path="url(#p2200d316ab)" d="M 150.771867 162.38333 
L 150.774963 162.948066 
L 172.891343 167.844947 
L 172.89315 167.278253 
z
" style="fill:#ba0c2f;fill-opacity:0.8;"/>
    <path clip-path="url(#p2200d316ab)" d="M 137.774347 170.895212 
L 137.780373 171.463346 
L 150.774963 162.948066 
L 150.771867 162.38333 
z
" style="fill:#5d0618;fill-opacity:0.8;"/>
    <path clip-path="url(#p2200d316ab)" d="M 137.780373 171.463346 
L 160.034614 176.4528 
L 172.891343 167.844947 
L 150.774963 162.948066 
z
" style="fill:#a30a29;fill-opacity:0.8;"/>
    <path clip-path="url(#p2200d316ab)" d="M 137.774347 170.895212 
L 150.771867 162.38333 
L 172.89315 167.278253 
L 160.033551 175.88269 
z
" style="fill:#74081d;fill-opacity:0.8;"/>
    <path clip-path="url(#p2200d316ab)" d="M 160.033551 175.88269 
L 172.89315 167.278253 
L 172.891343 167.844947 
L 160.034614 176.4528 
z
" style="fill:#ba0c2f;fill-opacity:0.8;"/>
    <path clip-path="url(#p2200d316ab)" d="M 137.774347 170.895212 
L 160.033551 175.88269 
L 160.034614 176.4528 
L 137.780373 171.463346 
z
" style="fill:#5d0618;fill-opacity:0.8;"/>
   </g>
   <g id="Poly3DCollection_6">
    <path clip-path="url(#p2200d316ab)" d="M 80.460857 169.567989 
L 80.492653 170.528244 
L 102.399507 175.504569 
L 102.375849 174.540978 
z
" style="fill:#ba0c2f;fill-opacity:0.8;"/>
    <path clip-path="url(#p2200d316ab)" d="M 66.6943 178.215896 
L 66.731637 179.181938 
L 80.492653 170.528244 
L 80.460857 169.567989 
z
" style="fill:#5d0618;fill-opacity:0.8;"/>
    <path clip-path="url(#p2200d316ab)" d="M 66.731637 179.181938 
L 88.771239 184.25308 
L 102.399507 175.504569 
L 80.492653 170.528244 
z
" style="fill:#a30a29;fill-opacity:0.8;"/>
    <path clip-path="url(#p2200d316ab)" d="M 66.6943 178.215896 
L 80.460857 169.567989 
L 102.375849 174.540978 
L 88.742136 183.283675 
z
" style="fill:#74081d;fill-opacity:0.8;"/>
    <path clip-path="url(#p2200d316ab)" d="M 88.742136 183.283675 
L 102.375849 174.540978 
L 102.399507 175.504569 
L 88.771239 184.25308 
z
" style="fill:#ba0c2f;fill-opacity:0.8;"/>
    <path clip-path="url(#p2200d316ab)" d="M 66.6943 178.215896 
L 88.742136 183.283675 
L 88.771239 184.25308 
L 66.731637 179.181938 
z
" style="fill:#5d0618;fill-opacity:0.8;"/>
   </g>
   <g id="Poly3DCollection_7">
    <path clip-path="url(#p2200d316ab)" d="M 195.254492 172.226295 
L 195.262084 171.592882 
L 217.873118 176.59271 
L 217.859824 177.228326 
z
" style="fill:#5d0618;fill-opacity:0.8;"/>
    <path clip-path="url(#p2200d316ab)" d="M 182.536603 180.924806 
L 182.54107 180.28757 
L 195.262084 171.592882 
L 195.254492 172.226295 
z
" style="fill:#ba0c2f;fill-opacity:0.8;"/>
    <path clip-path="url(#p2200d316ab)" d="M 182.536603 180.924806 
L 195.254492 172.226295 
L 217.859824 177.228326 
L 205.287533 186.022463 
z
" style="fill:#74081d;fill-opacity:0.8;"/>
    <path clip-path="url(#p2200d316ab)" d="M 182.54107 180.28757 
L 205.297776 185.383005 
L 217.873118 176.59271 
L 195.262084 171.592882 
z
" style="fill:#a30a29;fill-opacity:0.8;"/>
    <path clip-path="url(#p2200d316ab)" d="M 205.287533 186.022463 
L 217.859824 177.228326 
L 217.873118 176.59271 
L 205.297776 185.383005 
z
" style="fill:#5d0618;fill-opacity:0.8;"/>
    <path clip-path="url(#p2200d316ab)" d="M 182.536603 180.924806 
L 205.287533 186.022463 
L 205.297776 185.383005 
L 182.54107 180.28757 
z
" style="fill:#ba0c2f;fill-opacity:0.8;"/>
   </g>
   <g id="Poly3DCollection_8">
    <path clip-path="url(#p2200d316ab)" d="M 124.530566 179.568366 
L 124.520465 178.931696 
L 146.924461 184.012162 
L 146.928964 184.651051 
z
" style="fill:#5d0618;fill-opacity:0.8;"/>
    <path clip-path="url(#p2200d316ab)" d="M 111.033459 188.40742 
L 111.01984 187.766899 
L 124.520465 178.931696 
L 124.530566 179.568366 
z
" style="fill:#ba0c2f;fill-opacity:0.8;"/>
    <path clip-path="url(#p2200d316ab)" d="M 111.033459 188.40742 
L 124.530566 179.568366 
L 146.928964 184.651051 
L 133.572323 193.588063 
z
" style="fill:#74081d;fill-opacity:0.8;"/>
    <path clip-path="url(#p2200d316ab)" d="M 111.01984 187.766899 
L 133.564372 192.945306 
L 146.924461 184.012162 
L 124.520465 178.931696 
z
" style="fill:#a30a29;fill-opacity:0.8;"/>
    <path clip-path="url(#p2200d316ab)" d="M 133.572323 193.588063 
L 146.928964 184.651051 
L 146.924461 184.012162 
L 133.564372 192.945306 
z
" style="fill:#5d0618;fill-opacity:0.8;"/>
    <path clip-path="url(#p2200d316ab)" d="M 111.033459 188.40742 
L 133.572323 193.588063 
L 133.564372 192.945306 
L 111.01984 187.766899 
z
" style="fill:#ba0c2f;fill-opacity:0.8;"/>
   </g>
   <g id="Poly3DCollection_9">
    <path clip-path="url(#p2200d316ab)" d="M 240.71316 182.285234 
L 240.740994 181.35673 
L 263.855106 186.466185 
L 263.818604 187.397929 
z
" style="fill:#5d0618;fill-opacity:0.8;"/>
    <path clip-path="url(#p2200d316ab)" d="M 228.290459 191.176582 
L 228.313964 190.242458 
L 240.740994 181.35673 
L 240.71316 182.285234 
z
" style="fill:#ba0c2f;fill-opacity:0.8;"/>
    <path clip-path="url(#p2200d316ab)" d="M 228.290459 191.176582 
L 240.71316 182.285234 
L 263.818604 187.397929 
L 251.549592 196.388108 
z
" style="fill:#74081d;fill-opacity:0.8;"/>
    <path clip-path="url(#p2200d316ab)" d="M 228.313964 190.242458 
L 251.581881 195.450719 
L 263.855106 186.466185 
L 240.740994 181.35673 
z
" style="fill:#a30a29;fill-opacity:0.8;"/>
    <path clip-path="url(#p2200d316ab)" d="M 251.549592 196.388108 
L 263.818604 187.397929 
L 263.855106 186.466185 
L 251.581881 195.450719 
z
" style="fill:#5d0618;fill-opacity:0.8;"/>
    <path clip-path="url(#p2200d316ab)" d="M 228.290459 191.176582 
L 251.549592 196.388108 
L 251.581881 195.450719 
L 228.313964 190.242458 
z
" style="fill:#ba0c2f;fill-opacity:0.8;"/>
   </g>
   <g id="Poly3DCollection_10">
    <path clip-path="url(#p2200d316ab)" d="M 169.575087 189.789949 
L 169.573991 190.365501 
L 192.466717 195.56356 
L 192.473065 194.986 
z
" style="fill:#ba0c2f;fill-opacity:0.8;"/>
    <path clip-path="url(#p2200d316ab)" d="M 156.362875 198.826558 
L 156.364808 199.405595 
L 169.573991 190.365501 
L 169.575087 189.789949 
z
" style="fill:#5d0618;fill-opacity:0.8;"/>
    <path clip-path="url(#p2200d316ab)" d="M 156.364808 199.405595 
L 179.405967 204.704941 
L 192.466717 195.56356 
L 169.573991 190.365501 
z
" style="fill:#a30a29;fill-opacity:0.8;"/>
    <path clip-path="url(#p2200d316ab)" d="M 156.362875 198.826558 
L 169.575087 189.789949 
L 192.473065 194.986 
L 179.409354 204.123879 
z
" style="fill:#74081d;fill-opacity:0.8;"/>
    <path clip-path="url(#p2200d316ab)" d="M 179.409354 204.123879 
L 192.473065 194.986 
L 192.466717 195.56356 
L 179.405967 204.704941 
z
" style="fill:#ba0c2f;fill-opacity:0.8;"/>
    <path clip-path="url(#p2200d316ab)" d="M 156.362875 198.826558 
L 179.409354 204.123879 
L 179.405967 204.704941 
L 156.364808 199.405595 
z
" style="fill:#5d0618;fill-opacity:0.8;"/>
   </g>
   <g id="Poly3DCollection_11">
    <path clip-path="url(#p2200d316ab)" d="M 97.275687 197.417179 
L 97.301916 198.395852 
L 119.973795 203.680734 
L 119.956283 202.69864 
z
" style="fill:#ba0c2f;fill-opacity:0.8;"/>
    <path clip-path="url(#p2200d316ab)" d="M 83.249625 206.602637 
L 83.281614 207.587244 
L 97.301916 198.395852 
L 97.275687 197.417179 
z
" style="fill:#5d0618;fill-opacity:0.8;"/>
    <path clip-path="url(#p2200d316ab)" d="M 83.281614 207.587244 
L 106.096377 212.975942 
L 119.973795 203.680734 
L 97.301916 198.395852 
z
" style="fill:#a30a29;fill-opacity:0.8;"/>
    <path clip-path="url(#p2200d316ab)" d="M 83.249625 206.602637 
L 97.275687 197.417179 
L 119.956283 202.69864 
L 106.073214 211.987889 
z
" style="fill:#74081d;fill-opacity:0.8;"/>
    <path clip-path="url(#p2200d316ab)" d="M 106.073214 211.987889 
L 119.956283 202.69864 
L 119.973795 203.680734 
L 106.096377 212.975942 
z
" style="fill:#ba0c2f;fill-opacity:0.8;"/>
    <path clip-path="url(#p2200d316ab)" d="M 83.249625 206.602637 
L 106.073214 211.987889 
L 106.096377 212.975942 
L 83.281614 207.587244 
z
" style="fill:#5d0618;fill-opacity:0.8;"/>
   </g>
   <g id="Poly3DCollection_12">
    <path clip-path="url(#p2200d316ab)" d="M 215.627125 200.24016 
L 215.619153 200.63444 
L 239.029879 205.94907 
L 239.041586 205.553412 
z
" style="fill:#ba0c2f;fill-opacity:0.8;"/>
    <path clip-path="url(#p2200d316ab)" d="M 202.716096 209.481022 
L 202.71009 209.877694 
L 215.619153 200.63444 
L 215.627125 200.24016 
z
" style="fill:#5d0618;fill-opacity:0.8;"/>
    <path clip-path="url(#p2200d316ab)" d="M 202.71009 209.877694 
L 226.277742 215.297068 
L 239.029879 205.94907 
L 215.619153 200.63444 
z
" style="fill:#a30a29;fill-opacity:0.8;"/>
    <path clip-path="url(#p2200d316ab)" d="M 202.716096 209.481022 
L 215.627125 200.24016 
L 239.041586 205.553412 
L 226.287534 214.899006 
z
" style="fill:#74081d;fill-opacity:0.8;"/>
    <path clip-path="url(#p2200d316ab)" d="M 226.287534 214.899006 
L 239.041586 205.553412 
L 239.029879 205.94907 
L 226.277742 215.297068 
z
" style="fill:#ba0c2f;fill-opacity:0.8;"/>
    <path clip-path="url(#p2200d316ab)" d="M 202.716096 209.481022 
L 226.287534 214.899006 
L 226.277742 215.297068 
L 202.71009 209.877694 
z
" style="fill:#5d0618;fill-opacity:0.8;"/>
   </g>
   <g id="Poly3DCollection_13">
    <path clip-path="url(#p2200d316ab)" d="M 142.892622 208.039655 
L 142.886673 207.357643 
L 166.089417 212.756834 
L 166.089056 213.441236 
z
" style="fill:#5d0618;fill-opacity:0.8;"/>
    <path clip-path="url(#p2200d316ab)" d="M 129.156696 217.434462 
L 129.146915 216.748303 
L 142.886673 207.357643 
L 142.892622 208.039655 
z
" style="fill:#ba0c2f;fill-opacity:0.8;"/>
    <path clip-path="url(#p2200d316ab)" d="M 129.156696 217.434462 
L 142.892622 208.039655 
L 166.089056 213.441236 
L 152.504538 222.943412 
z
" style="fill:#74081d;fill-opacity:0.8;"/>
    <path clip-path="url(#p2200d316ab)" d="M 129.146915 216.748303 
L 152.50115 222.254845 
L 166.089417 212.756834 
L 142.886673 207.357643 
z
" style="fill:#a30a29;fill-opacity:0.8;"/>
    <path clip-path="url(#p2200d316ab)" d="M 152.504538 222.943412 
L 166.089056 213.441236 
L 166.089417 212.756834 
L 152.50115 222.254845 
z
" style="fill:#5d0618;fill-opacity:0.8;"/>
    <path clip-path="url(#p2200d316ab)" d="M 129.156696 217.434462 
L 152.504538 222.943412 
L 152.50115 222.254845 
L 129.146915 216.748303 
z
" style="fill:#ba0c2f;fill-opacity:0.8;"/>
   </g>
   <g id="Poly3DCollection_14">
    <path clip-path="url(#p2200d316ab)" d="M 252.902021 173.561253 
L 264.863583 164.999958 
L 287.666534 169.92324 
L 275.855408 178.577901 
z
" style="fill:#74081d;fill-opacity:0.8;"/>
    <path clip-path="url(#p2200d316ab)" d="M 264.863583 164.999958 
L 269.853873 37.832394 
L 293.828503 42.279736 
L 287.666534 169.92324 
z
" style="fill:#5d0618;fill-opacity:0.8;"/>
    <path clip-path="url(#p2200d316ab)" d="M 252.902021 173.561253 
L 257.339398 45.567601 
L 269.853873 37.832394 
L 264.863583 164.999958 
z
" style="fill:#ba0c2f;fill-opacity:0.8;"/>
    <path clip-path="url(#p2200d316ab)" d="M 275.855408 178.577901 
L 287.666534 169.92324 
L 293.828503 42.279736 
L 281.480557 50.103563 
z
" style="fill:#5d0618;fill-opacity:0.8;"/>
    <path clip-path="url(#p2200d316ab)" d="M 252.902021 173.561253 
L 275.855408 178.577901 
L 281.480557 50.103563 
L 257.339398 45.567601 
z
" style="fill:#ba0c2f;fill-opacity:0.8;"/>
    <path clip-path="url(#p2200d316ab)" d="M 257.339398 45.567601 
L 281.480557 50.103563 
L 293.828503 42.279736 
L 269.853873 37.832394 
z
" style="fill:#a30a29;fill-opacity:0.8;"/>
   </g>
   <g id="Poly3DCollection_15">
    <path clip-path="url(#p2200d316ab)" d="M 189.550033 218.904419 
L 189.632713 210.574188 
L 213.442888 216.070641 
L 213.280105 224.430264 
z
" style="fill:#5d0618;fill-opacity:0.8;"/>
    <path clip-path="url(#p2200d316ab)" d="M 176.121306 228.515815 
L 176.159561 220.134596 
L 189.632713 210.574188 
L 189.550033 218.904419 
z
" style="fill:#ba0c2f;fill-opacity:0.8;"/>
    <path clip-path="url(#p2200d316ab)" d="M 176.121306 228.515815 
L 189.550033 218.904419 
L 213.280105 224.430264 
L 200.011673 234.152774 
z
" style="fill:#74081d;fill-opacity:0.8;"/>
    <path clip-path="url(#p2200d316ab)" d="M 176.159561 220.134596 
L 200.131123 225.741948 
L 213.442888 216.070641 
L 189.632713 210.574188 
z
" style="fill:#a30a29;fill-opacity:0.8;"/>
    <path clip-path="url(#p2200d316ab)" d="M 200.011673 234.152774 
L 213.280105 224.430264 
L 213.442888 216.070641 
L 200.131123 225.741948 
z
" style="fill:#5d0618;fill-opacity:0.8;"/>
    <path clip-path="url(#p2200d316ab)" d="M 176.121306 228.515815 
L 200.011673 234.152774 
L 200.131123 225.741948 
L 176.159561 220.134596 
z
" style="fill:#ba0c2f;fill-opacity:0.8;"/>
   </g>
   <g id="Poly3DCollection_16">
    <path clip-path="url(#p2200d316ab)" d="M 25.525788 197.355569 
L 203.751909 239.604353 
L 299.769121 168.656736 
L 130.04055 132.166413 
z
" style="fill-opacity:0.15;"/>
   </g>
   <g id="Poly3DCollection_17">
    <path clip-path="url(#p2200d316ab)" d="M 38.364769 196.012004 
L 52.664805 187.028975 
L 74.846581 192.19428 
L 60.681566 201.277678 
z
" style="fill:#74081d;fill-opacity:0.8;"/>
    <path clip-path="url(#p2200d316ab)" d="M 52.664805 187.028975 
L 46.984612 58.902443 
L 70.263769 63.584436 
L 74.846581 192.19428 
z
" style="fill:#5d0618;fill-opacity:0.8;"/>
    <path clip-path="url(#p2200d316ab)" d="M 38.364769 196.012004 
L 31.89509 67.046632 
L 46.984612 58.902443 
L 52.664805 187.028975 
z
" style="fill:#ba0c2f;fill-opacity:0.8;"/>
    <path clip-path="url(#p2200d316ab)" d="M 60.681566 201.277678 
L 74.846581 192.19428 
L 70.263769 63.584436 
L 55.322762 71.824296 
z
" style="fill:#5d0618;fill-opacity:0.8;"/>
    <path clip-path="url(#p2200d316ab)" d="M 38.364769 196.012004 
L 60.681566 201.277678 
L 55.322762 71.824296 
L 31.89509 67.046632 
z
" style="fill:#ba0c2f;fill-opacity:0.8;"/>
    <path clip-path="url(#p2200d316ab)" d="M 31.89509 67.046632 
L 55.322762 71.824296 
L 70.263769 63.584436 
L 46.984612 58.902443 
z
" style="fill:#a30a29;fill-opacity:0.8;"/>
   </g>
  </g>
  <g id="patch_6">
   <path d="M 425.945455 262.8 
L 806.4 262.8 
L 806.4 -14.4 
L 425.945455 -14.4 
z
" style="fill:#ffffff;"/>
  </g>
  <g id="pane3d_4">
   <g id="patch_7">
    <path d="M 476.380584 201.548569 
L 585.268665 133.58541 
L 583.455794 3.718968 
L 468.496488 64.782468 
" style="fill:#f2f2f2;opacity:0.5;stroke:#f2f2f2;stroke-linejoin:miter;"/>
   </g>
  </g>
  <g id="pane3d_5">
   <g id="patch_8">
    <path d="M 585.268665 133.58541 
L 761.65712 171.581202 
L 769.037001 37.79869 
L 583.455794 3.718968 
" style="fill:#e6e6e6;opacity:0.5;stroke:#e6e6e6;stroke-linejoin:miter;"/>
   </g>
  </g>
  <g id="pane3d_6">
   <g id="patch_9">
    <path d="M 476.380584 201.548569 
L 661.965072 245.80086 
L 761.65712 171.581202 
L 585.268665 133.58541 
" style="fill:#ececec;opacity:0.5;stroke:#ececec;stroke-linejoin:miter;"/>
   </g>
  </g>
  <g id="axis3d_4">
   <g id="line2d_15">
    <path d="M 476.380584 201.548569 
L 661.965072 245.80086 
" style="fill:none;stroke:#000000;stroke-linecap:square;stroke-width:0.8;"/>
   </g>
   <g id="Line3DCollection_4">
    <path d="M 498.841271 206.90428 
L 606.679397 138.19749 
L 605.9393 7.847789 
" style="fill:none;stroke:#b0b0b0;stroke-width:0.8;"/>
    <path d="M 544.057792 217.686079 
L 649.729469 147.470895 
L 651.182353 16.156123 
" style="fill:none;stroke:#b0b0b0;stroke-width:0.8;"/>
    <path d="M 590.310744 228.715013 
L 693.693551 156.941187 
L 697.435637 24.649974 
" style="fill:none;stroke:#b0b0b0;stroke-width:0.8;"/>
    <path d="M 637.636176 239.999678 
L 738.601063 166.614702 
L 744.733372 33.335625 
" style="fill:none;stroke:#b0b0b0;stroke-width:0.8;"/>
   </g>
   <g id="xtick_12">
    <g id="line2d_16">
     <path d="M 499.770538 206.312217 
L 496.979262 208.09062 
" style="fill:none;stroke:#000000;stroke-linecap:square;stroke-width:0.8;"/>
    </g>
    <g id="text_12">
     <!-- 00 -->
     <g transform="translate(475.786746 243.348593)rotate(-45)scale(0.2 -0.2)">
      <use transform="scale(0.996264)" xlink:href="#CMR17-48"/>
      <use transform="translate(45.690477 0)scale(0.996264)" xlink:href="#CMR17-48"/>
     </g>
    </g>
   </g>
   <g id="xtick_13">
    <g id="line2d_17">
     <path d="M 544.969128 217.080527 
L 542.231671 218.899473 
" style="fill:none;stroke:#000000;stroke-linecap:square;stroke-width:0.8;"/>
    </g>
    <g id="text_13">
     <!-- 01 -->
     <g transform="translate(520.999172 254.305345)rotate(-45)scale(0.2 -0.2)">
      <use transform="scale(0.996264)" xlink:href="#CMR17-48"/>
      <use transform="translate(45.690477 0)scale(0.996264)" xlink:href="#CMR17-49"/>
     </g>
    </g>
   </g>
   <g id="xtick_14">
    <g id="line2d_18">
     <path d="M 591.20308 228.095506 
L 588.522658 229.956397 
" style="fill:none;stroke:#000000;stroke-linecap:square;stroke-width:0.8;"/>
    </g>
    <g id="text_14">
     <!-- 10 -->
     <g transform="translate(567.249784 265.513691)rotate(-45)scale(0.2 -0.2)">
      <use transform="scale(0.996264)" xlink:href="#CMR17-49"/>
      <use transform="translate(45.690477 0)scale(0.996264)" xlink:href="#CMR17-48"/>
     </g>
    </g>
   </g>
   <g id="xtick_15">
    <g id="line2d_19">
     <path d="M 638.50838 239.365727 
L 635.888391 241.270032 
" style="fill:none;stroke:#000000;stroke-linecap:square;stroke-width:0.8;"/>
    </g>
    <g id="text_15">
     <!-- 11 -->
     <g transform="translate(614.574759 276.982396)rotate(-45)scale(0.2 -0.2)">
      <use transform="scale(0.996264)" xlink:href="#CMR17-49"/>
      <use transform="translate(45.690477 0)scale(0.996264)" xlink:href="#CMR17-49"/>
     </g>
    </g>
   </g>
  </g>
  <g id="axis3d_5">
   <g id="line2d_20">
    <path d="M 761.65712 171.581202 
L 661.965072 245.80086 
" style="fill:none;stroke:#000000;stroke-linecap:square;stroke-width:0.8;"/>
   </g>
   <g id="Line3DCollection_5">
    <path d="M 484.000685 56.547028 
L 491.016499 192.413474 
L 675.403872 235.795817 
" style="fill:none;stroke:#b0b0b0;stroke-width:0.8;"/>
    <path d="M 513.777478 40.730342 
L 519.168861 174.842005 
L 701.219492 216.576366 
" style="fill:none;stroke:#b0b0b0;stroke-width:0.8;"/>
    <path d="M 542.401344 25.526062 
L 546.284836 157.917404 
L 726.04244 198.095948 
" style="fill:none;stroke:#b0b0b0;stroke-width:0.8;"/>
    <path d="M 569.937971 10.899296 
L 572.420618 141.604597 
L 749.928893 180.312741 
" style="fill:none;stroke:#b0b0b0;stroke-width:0.8;"/>
   </g>
   <g id="xtick_16">
    <g id="line2d_21">
     <path d="M 673.861052 235.432825 
L 678.492943 236.522608 
" style="fill:none;stroke:#000000;stroke-linecap:square;stroke-width:0.8;"/>
    </g>
    <g id="text_16">
     <!-- 00 -->
     <g transform="translate(689.641116 248.844567)rotate(-337.5)scale(0.2 -0.2)">
      <use transform="scale(0.996264)" xlink:href="#CMR17-48"/>
      <use transform="translate(45.690477 0)scale(0.996264)" xlink:href="#CMR17-48"/>
     </g>
    </g>
   </g>
   <g id="xtick_17">
    <g id="line2d_22">
     <path d="M 699.697534 216.227463 
L 704.266725 217.274932 
" style="fill:none;stroke:#000000;stroke-linecap:square;stroke-width:0.8;"/>
    </g>
    <g id="text_17">
     <!-- 01 -->
     <g transform="translate(715.194668 229.400141)rotate(-337.5)scale(0.2 -0.2)">
      <use transform="scale(0.996264)" xlink:href="#CMR17-48"/>
      <use transform="translate(45.690477 0)scale(0.996264)" xlink:href="#CMR17-49"/>
     </g>
    </g>
   </g>
   <g id="xtick_18">
    <g id="line2d_23">
     <path d="M 724.540896 197.76033 
L 729.048738 198.767901 
" style="fill:none;stroke:#000000;stroke-linecap:square;stroke-width:0.8;"/>
    </g>
    <g id="text_18">
     <!-- 10 -->
     <g transform="translate(739.766079 210.703053)rotate(-337.5)scale(0.2 -0.2)">
      <use transform="scale(0.996264)" xlink:href="#CMR17-49"/>
      <use transform="translate(45.690477 0)scale(0.996264)" xlink:href="#CMR17-48"/>
     </g>
    </g>
   </g>
   <g id="xtick_19">
    <g id="line2d_24">
     <path d="M 748.44732 179.989663 
L 752.895146 180.959573 
" style="fill:none;stroke:#000000;stroke-linecap:square;stroke-width:0.8;"/>
    </g>
    <g id="text_19">
     <!-- 11 -->
     <g transform="translate(763.410906 192.711031)rotate(-337.5)scale(0.2 -0.2)">
      <use transform="scale(0.996264)" xlink:href="#CMR17-49"/>
      <use transform="translate(45.690477 0)scale(0.996264)" xlink:href="#CMR17-49"/>
     </g>
    </g>
   </g>
  </g>
  <g id="axis3d_6">
   <g id="line2d_25">
    <path d="M 761.65712 171.581202 
L 769.037001 37.79869 
" style="fill:none;stroke:#000000;stroke-linecap:square;stroke-width:0.8;"/>
   </g>
   <g id="Line3DCollection_6">
    <path d="M 761.853947 168.013117 
L 585.220212 130.114419 
L 476.170661 197.907017 
" style="fill:none;stroke:#b0b0b0;stroke-width:0.8;"/>
    <path d="M 764.585877 118.48868 
L 584.548269 81.979279 
L 473.254973 147.328332 
" style="fill:none;stroke:#b0b0b0;stroke-width:0.8;"/>
    <path d="M 767.426124 67.00068 
L 583.850833 32.017919 
L 470.219742 94.675907 
" style="fill:none;stroke:#b0b0b0;stroke-width:0.8;"/>
   </g>
   <g id="xtick_20">
    <g id="line2d_26">
     <path d="M 760.380166 167.696901 
L 764.804575 168.646207 
" style="fill:none;stroke:#000000;stroke-linecap:square;stroke-width:0.8;"/>
    </g>
    <g id="text_20">
     <!-- $0.0$ -->
     <g transform="translate(768.541228 179.910602)scale(0.2 -0.2)">
      <use transform="scale(0.996264)" xlink:href="#CMR17-48"/>
      <use transform="translate(45.690477 0)scale(0.996264)" xlink:href="#CMMI12-58"/>
      <use transform="translate(72.787654 0)scale(0.996264)" xlink:href="#CMR17-48"/>
     </g>
    </g>
   </g>
   <g id="xtick_21">
    <g id="line2d_27">
     <path d="M 763.082493 118.183812 
L 767.595835 119.099062 
" style="fill:none;stroke:#000000;stroke-linecap:square;stroke-width:0.8;"/>
    </g>
    <g id="text_21">
     <!-- $0.2$ -->
     <g transform="translate(771.626759 130.455832)scale(0.2 -0.2)">
      <use transform="scale(0.996264)" xlink:href="#CMR17-48"/>
      <use transform="translate(45.690477 0)scale(0.996264)" xlink:href="#CMMI12-58"/>
      <use transform="translate(72.787654 0)scale(0.996264)" xlink:href="#CMR17-50"/>
     </g>
    </g>
   </g>
   <g id="xtick_22">
    <g id="line2d_28">
     <path d="M 765.891924 66.708318 
L 770.497843 67.586038 
" style="fill:none;stroke:#000000;stroke-linecap:square;stroke-width:0.8;"/>
    </g>
    <g id="text_22">
     <!-- $0.4$ -->
     <g transform="translate(774.834357 79.044595)scale(0.2 -0.2)">
      <use transform="scale(0.996264)" xlink:href="#CMR17-48"/>
      <use transform="translate(45.690477 0)scale(0.996264)" xlink:href="#CMMI12-58"/>
      <use transform="translate(72.787654 0)scale(0.996264)" xlink:href="#CMR17-52"/>
     </g>
    </g>
   </g>
  </g>
  <g id="axes_2">
   <g id="Poly3DCollection_18">
    <path clip-path="url(#p11a710a97d)" d="M 589.584895 136.475714 
L 589.588929 136.803662 
L 610.981434 141.423807 
L 610.980113 141.09473 
z
" style="fill:#0cba97;fill-opacity:0.8;"/>
    <path clip-path="url(#p11a710a97d)" d="M 576.799165 144.506905 
L 576.804877 144.836812 
L 589.588929 136.803662 
L 589.584895 136.475714 
z
" style="fill:#065d4c;fill-opacity:0.8;"/>
    <path clip-path="url(#p11a710a97d)" d="M 576.804877 144.836812 
L 598.325754 149.541778 
L 610.981434 141.423807 
L 589.588929 136.803662 
z
" style="fill:#0aa384;fill-opacity:0.8;"/>
    <path clip-path="url(#p11a710a97d)" d="M 576.799165 144.506905 
L 589.584895 136.475714 
L 610.980113 141.09473 
L 598.322789 149.210733 
z
" style="fill:#08745e;fill-opacity:0.8;"/>
    <path clip-path="url(#p11a710a97d)" d="M 598.322789 149.210733 
L 610.980113 141.09473 
L 610.981434 141.423807 
L 598.325754 149.541778 
z
" style="fill:#0cba97;fill-opacity:0.8;"/>
    <path clip-path="url(#p11a710a97d)" d="M 576.799165 144.506905 
L 598.322789 149.210733 
L 598.325754 149.541778 
L 576.804877 144.836812 
z
" style="fill:#065d4c;fill-opacity:0.8;"/>
   </g>
   <g id="Poly3DCollection_19">
    <path clip-path="url(#p11a710a97d)" d="M 632.600832 145.76243 
L 632.598793 146.226714 
L 654.444618 150.945473 
L 654.450636 150.479587 
z
" style="fill:#0cba97;fill-opacity:0.8;"/>
    <path clip-path="url(#p11a710a97d)" d="M 620.075357 153.964595 
L 620.075582 154.43166 
L 632.598793 146.226714 
L 632.600832 145.76243 
z
" style="fill:#065d4c;fill-opacity:0.8;"/>
    <path clip-path="url(#p11a710a97d)" d="M 620.075582 154.43166 
L 642.056738 159.237974 
L 654.444618 150.945473 
L 632.598793 146.226714 
z
" style="fill:#0aa384;fill-opacity:0.8;"/>
    <path clip-path="url(#p11a710a97d)" d="M 620.075357 153.964595 
L 632.600832 145.76243 
L 654.450636 150.479587 
L 642.060541 158.769294 
z
" style="fill:#08745e;fill-opacity:0.8;"/>
    <path clip-path="url(#p11a710a97d)" d="M 642.060541 158.769294 
L 654.450636 150.479587 
L 654.444618 150.945473 
L 642.056738 159.237974 
z
" style="fill:#0cba97;fill-opacity:0.8;"/>
    <path clip-path="url(#p11a710a97d)" d="M 620.075357 153.964595 
L 642.060541 158.769294 
L 642.056738 159.237974 
L 620.075582 154.43166 
z
" style="fill:#065d4c;fill-opacity:0.8;"/>
   </g>
   <g id="Poly3DCollection_20">
    <path clip-path="url(#p11a710a97d)" d="M 563.778211 152.685849 
L 563.758814 151.821762 
L 585.419198 156.609767 
L 585.431359 157.476847 
z
" style="fill:#065d4c;fill-opacity:0.8;"/>
    <path clip-path="url(#p11a710a97d)" d="M 550.515482 161.016662 
L 550.491392 160.147384 
L 563.758814 151.821762 
L 563.778211 152.685849 
z
" style="fill:#0cba97;fill-opacity:0.8;"/>
    <path clip-path="url(#p11a710a97d)" d="M 550.515482 161.016662 
L 563.778211 152.685849 
L 585.431359 157.476847 
L 572.29927 165.897274 
z
" style="fill:#08745e;fill-opacity:0.8;"/>
    <path clip-path="url(#p11a710a97d)" d="M 550.491392 160.147384 
L 572.282502 165.024979 
L 585.419198 156.609767 
L 563.758814 151.821762 
z
" style="fill:#0aa384;fill-opacity:0.8;"/>
    <path clip-path="url(#p11a710a97d)" d="M 572.29927 165.897274 
L 585.431359 157.476847 
L 585.419198 156.609767 
L 572.282502 165.024979 
z
" style="fill:#065d4c;fill-opacity:0.8;"/>
    <path clip-path="url(#p11a710a97d)" d="M 550.515482 161.016662 
L 572.29927 165.897274 
L 572.282502 165.024979 
L 550.491392 160.147384 
z
" style="fill:#0cba97;fill-opacity:0.8;"/>
   </g>
   <g id="Poly3DCollection_21">
    <path clip-path="url(#p11a710a97d)" d="M 676.533186 155.246991 
L 676.544998 154.69925 
L 698.868895 159.515811 
L 698.852219 160.065449 
z
" style="fill:#065d4c;fill-opacity:0.8;"/>
    <path clip-path="url(#p11a710a97d)" d="M 664.282093 163.625649 
L 664.29137 163.074616 
L 676.544998 154.69925 
L 676.533186 155.246991 
z
" style="fill:#0cba97;fill-opacity:0.8;"/>
    <path clip-path="url(#p11a710a97d)" d="M 664.282093 163.625649 
L 676.533186 155.246991 
L 698.852219 160.065449 
L 686.743845 168.534498 
z
" style="fill:#08745e;fill-opacity:0.8;"/>
    <path clip-path="url(#p11a710a97d)" d="M 664.29137 163.074616 
L 686.758049 167.981551 
L 698.868895 159.515811 
L 676.544998 154.69925 
z
" style="fill:#0aa384;fill-opacity:0.8;"/>
    <path clip-path="url(#p11a710a97d)" d="M 686.743845 168.534498 
L 698.852219 160.065449 
L 698.868895 159.515811 
L 686.758049 167.981551 
z
" style="fill:#065d4c;fill-opacity:0.8;"/>
    <path clip-path="url(#p11a710a97d)" d="M 664.282093 163.625649 
L 686.743845 168.534498 
L 686.758049 167.981551 
L 664.29137 163.074616 
z
" style="fill:#0cba97;fill-opacity:0.8;"/>
   </g>
   <g id="Poly3DCollection_22">
    <path clip-path="url(#p11a710a97d)" d="M 607.316971 162.319279 
L 607.318461 162.591133 
L 629.43794 167.486776 
L 629.438809 167.213979 
z
" style="fill:#0cba97;fill-opacity:0.8;"/>
    <path clip-path="url(#p11a710a97d)" d="M 594.319118 170.830775 
L 594.322019 171.104265 
L 607.318461 162.591133 
L 607.316971 162.319279 
z
" style="fill:#065d4c;fill-opacity:0.8;"/>
    <path clip-path="url(#p11a710a97d)" d="M 594.322019 171.104265 
L 616.579396 176.09247 
L 629.43794 167.486776 
L 607.318461 162.591133 
z
" style="fill:#0aa384;fill-opacity:0.8;"/>
    <path clip-path="url(#p11a710a97d)" d="M 594.319118 170.830775 
L 607.316971 162.319279 
L 629.438809 167.213979 
L 616.578885 175.818029 
z
" style="fill:#08745e;fill-opacity:0.8;"/>
    <path clip-path="url(#p11a710a97d)" d="M 616.578885 175.818029 
L 629.438809 167.213979 
L 629.43794 167.486776 
L 616.579396 176.09247 
z
" style="fill:#0cba97;fill-opacity:0.8;"/>
    <path clip-path="url(#p11a710a97d)" d="M 594.319118 170.830775 
L 616.578885 175.818029 
L 616.579396 176.09247 
L 594.322019 171.104265 
z
" style="fill:#065d4c;fill-opacity:0.8;"/>
   </g>
   <g id="Poly3DCollection_23">
    <path clip-path="url(#p11a710a97d)" d="M 721.411556 164.935787 
L 721.411556 164.935787 
L 744.215097 169.858846 
L 744.215097 169.858846 
z
" style="fill:#065d4c;fill-opacity:0.8;"/>
    <path clip-path="url(#p11a710a97d)" d="M 709.449713 173.496696 
L 709.449713 173.496696 
L 721.411556 164.935787 
L 721.411556 164.935787 
z
" style="fill:#065d4c;fill-opacity:0.8;"/>
    <path clip-path="url(#p11a710a97d)" d="M 709.449713 173.496696 
L 721.411556 164.935787 
L 744.215097 169.858846 
L 732.403699 178.513119 
z
" style="fill:#08745e;fill-opacity:0.8;"/>
    <path clip-path="url(#p11a710a97d)" d="M 709.449713 173.496696 
L 732.403699 178.513119 
L 744.215097 169.858846 
L 721.411556 164.935787 
z
" style="fill:#0aa384;fill-opacity:0.8;"/>
    <path clip-path="url(#p11a710a97d)" d="M 732.403699 178.513119 
L 744.215097 169.858846 
L 744.215097 169.858846 
L 732.403699 178.513119 
z
" style="fill:#065d4c;fill-opacity:0.8;"/>
    <path clip-path="url(#p11a710a97d)" d="M 709.449713 173.496696 
L 732.403699 178.513119 
L 732.403699 178.513119 
L 709.449713 173.496696 
z
" style="fill:#065d4c;fill-opacity:0.8;"/>
   </g>
   <g id="Poly3DCollection_24">
    <path clip-path="url(#p11a710a97d)" d="M 537.00418 169.503612 
L 537.038107 170.528244 
L 558.944962 175.504569 
L 558.919717 174.476377 
z
" style="fill:#0cba97;fill-opacity:0.8;"/>
    <path clip-path="url(#p11a710a97d)" d="M 523.237251 178.15113 
L 523.277092 179.181938 
L 537.038107 170.528244 
L 537.00418 169.503612 
z
" style="fill:#065d4c;fill-opacity:0.8;"/>
    <path clip-path="url(#p11a710a97d)" d="M 523.277092 179.181938 
L 545.316693 184.25308 
L 558.944962 175.504569 
L 537.038107 170.528244 
z
" style="fill:#0aa384;fill-opacity:0.8;"/>
    <path clip-path="url(#p11a710a97d)" d="M 523.237251 178.15113 
L 537.00418 169.503612 
L 558.919717 174.476377 
L 545.28564 183.218684 
z
" style="fill:#08745e;fill-opacity:0.8;"/>
    <path clip-path="url(#p11a710a97d)" d="M 545.28564 183.218684 
L 558.919717 174.476377 
L 558.944962 175.504569 
L 545.316693 184.25308 
z
" style="fill:#0cba97;fill-opacity:0.8;"/>
    <path clip-path="url(#p11a710a97d)" d="M 523.237251 178.15113 
L 545.28564 183.218684 
L 545.316693 184.25308 
L 523.277092 179.181938 
z
" style="fill:#065d4c;fill-opacity:0.8;"/>
   </g>
   <g id="Poly3DCollection_25">
    <path clip-path="url(#p11a710a97d)" d="M 651.80072 172.161798 
L 651.80072 172.161798 
L 674.406632 177.163604 
L 674.406632 177.163604 
z
" style="fill:#065d4c;fill-opacity:0.8;"/>
    <path clip-path="url(#p11a710a97d)" d="M 639.082513 180.85992 
L 639.082513 180.85992 
L 651.80072 172.161798 
L 651.80072 172.161798 
z
" style="fill:#065d4c;fill-opacity:0.8;"/>
    <path clip-path="url(#p11a710a97d)" d="M 639.082513 180.85992 
L 651.80072 172.161798 
L 674.406632 177.163604 
L 661.834031 185.95735 
z
" style="fill:#08745e;fill-opacity:0.8;"/>
    <path clip-path="url(#p11a710a97d)" d="M 639.082513 180.85992 
L 661.834031 185.95735 
L 674.406632 177.163604 
L 651.80072 172.161798 
z
" style="fill:#0aa384;fill-opacity:0.8;"/>
    <path clip-path="url(#p11a710a97d)" d="M 661.834031 185.95735 
L 674.406632 177.163604 
L 674.406632 177.163604 
L 661.834031 185.95735 
z
" style="fill:#065d4c;fill-opacity:0.8;"/>
    <path clip-path="url(#p11a710a97d)" d="M 639.082513 180.85992 
L 661.834031 185.95735 
L 661.834031 185.95735 
L 639.082513 180.85992 
z
" style="fill:#065d4c;fill-opacity:0.8;"/>
   </g>
   <g id="Poly3DCollection_26">
    <path clip-path="url(#p11a710a97d)" d="M 581.074992 179.50354 
L 581.074992 179.50354 
L 603.473961 184.585999 
L 603.473961 184.585999 
z
" style="fill:#065d4c;fill-opacity:0.8;"/>
    <path clip-path="url(#p11a710a97d)" d="M 567.577527 188.342202 
L 567.577527 188.342202 
L 581.074992 179.50354 
L 581.074992 179.50354 
z
" style="fill:#065d4c;fill-opacity:0.8;"/>
    <path clip-path="url(#p11a710a97d)" d="M 567.577527 188.342202 
L 581.074992 179.50354 
L 603.473961 184.585999 
L 590.116968 193.522618 
z
" style="fill:#08745e;fill-opacity:0.8;"/>
    <path clip-path="url(#p11a710a97d)" d="M 567.577527 188.342202 
L 590.116968 193.522618 
L 603.473961 184.585999 
L 581.074992 179.50354 
z
" style="fill:#0aa384;fill-opacity:0.8;"/>
    <path clip-path="url(#p11a710a97d)" d="M 590.116968 193.522618 
L 603.473961 184.585999 
L 603.473961 184.585999 
L 590.116968 193.522618 
z
" style="fill:#065d4c;fill-opacity:0.8;"/>
    <path clip-path="url(#p11a710a97d)" d="M 567.577527 188.342202 
L 590.116968 193.522618 
L 590.116968 193.522618 
L 567.577527 188.342202 
z
" style="fill:#065d4c;fill-opacity:0.8;"/>
   </g>
   <g id="Poly3DCollection_27">
    <path clip-path="url(#p11a710a97d)" d="M 697.260561 182.220288 
L 697.243835 182.778261 
L 720.344677 187.892674 
L 720.366612 187.332755 
z
" style="fill:#0cba97;fill-opacity:0.8;"/>
    <path clip-path="url(#p11a710a97d)" d="M 684.837558 191.111243 
L 684.823434 191.672591 
L 697.243835 182.778261 
L 697.260561 182.220288 
z
" style="fill:#065d4c;fill-opacity:0.8;"/>
    <path clip-path="url(#p11a710a97d)" d="M 684.823434 191.672591 
L 708.077901 196.885849 
L 720.344677 187.892674 
L 697.243835 182.778261 
z
" style="fill:#0aa384;fill-opacity:0.8;"/>
    <path clip-path="url(#p11a710a97d)" d="M 684.837558 191.111243 
L 697.260561 182.220288 
L 720.366612 187.332755 
L 708.097305 196.322541 
z
" style="fill:#08745e;fill-opacity:0.8;"/>
    <path clip-path="url(#p11a710a97d)" d="M 708.097305 196.322541 
L 720.366612 187.332755 
L 720.344677 187.892674 
L 708.077901 196.885849 
z
" style="fill:#0cba97;fill-opacity:0.8;"/>
    <path clip-path="url(#p11a710a97d)" d="M 684.837558 191.111243 
L 708.097305 196.322541 
L 708.077901 196.885849 
L 684.823434 191.672591 
z
" style="fill:#065d4c;fill-opacity:0.8;"/>
   </g>
   <g id="Poly3DCollection_28">
    <path clip-path="url(#p11a710a97d)" d="M 509.207371 186.963818 
L 509.207371 186.963818 
L 531.389706 192.128896 
L 531.389706 192.128896 
z
" style="fill:#065d4c;fill-opacity:0.8;"/>
    <path clip-path="url(#p11a710a97d)" d="M 494.906935 195.946453 
L 494.906935 195.946453 
L 509.207371 186.963818 
L 509.207371 186.963818 
z
" style="fill:#065d4c;fill-opacity:0.8;"/>
    <path clip-path="url(#p11a710a97d)" d="M 494.906935 195.946453 
L 509.207371 186.963818 
L 531.389706 192.128896 
L 517.224297 201.211897 
z
" style="fill:#08745e;fill-opacity:0.8;"/>
    <path clip-path="url(#p11a710a97d)" d="M 494.906935 195.946453 
L 517.224297 201.211897 
L 531.389706 192.128896 
L 509.207371 186.963818 
z
" style="fill:#0aa384;fill-opacity:0.8;"/>
    <path clip-path="url(#p11a710a97d)" d="M 517.224297 201.211897 
L 531.389706 192.128896 
L 531.389706 192.128896 
L 517.224297 201.211897 
z
" style="fill:#065d4c;fill-opacity:0.8;"/>
    <path clip-path="url(#p11a710a97d)" d="M 494.906935 195.946453 
L 517.224297 201.211897 
L 517.224297 201.211897 
L 494.906935 195.946453 
z
" style="fill:#065d4c;fill-opacity:0.8;"/>
   </g>
   <g id="Poly3DCollection_29">
    <path clip-path="url(#p11a710a97d)" d="M 626.120665 189.724671 
L 626.121193 189.447548 
L 649.022296 194.642403 
L 649.01924 194.920493 
z
" style="fill:#065d4c;fill-opacity:0.8;"/>
    <path clip-path="url(#p11a710a97d)" d="M 612.90811 198.760884 
L 612.907179 198.482082 
L 626.121193 189.447548 
L 626.120665 189.724671 
z
" style="fill:#0cba97;fill-opacity:0.8;"/>
    <path clip-path="url(#p11a710a97d)" d="M 612.90811 198.760884 
L 626.120665 189.724671 
L 649.01924 194.920493 
L 635.955193 204.057975 
z
" style="fill:#08745e;fill-opacity:0.8;"/>
    <path clip-path="url(#p11a710a97d)" d="M 612.907179 198.482082 
L 635.956823 203.778197 
L 649.022296 194.642403 
L 626.121193 189.447548 
z
" style="fill:#0aa384;fill-opacity:0.8;"/>
    <path clip-path="url(#p11a710a97d)" d="M 635.955193 204.057975 
L 649.01924 194.920493 
L 649.022296 194.642403 
L 635.956823 203.778197 
z
" style="fill:#065d4c;fill-opacity:0.8;"/>
    <path clip-path="url(#p11a710a97d)" d="M 612.90811 198.760884 
L 635.955193 204.057975 
L 635.956823 203.778197 
L 612.907179 198.482082 
z
" style="fill:#0cba97;fill-opacity:0.8;"/>
   </g>
   <g id="Poly3DCollection_30">
    <path clip-path="url(#p11a710a97d)" d="M 553.819383 197.351566 
L 553.791372 196.306414 
L 576.481861 201.583988 
L 576.500563 202.632798 
z
" style="fill:#065d4c;fill-opacity:0.8;"/>
    <path clip-path="url(#p11a710a97d)" d="M 539.792935 206.536626 
L 539.758773 205.485128 
L 553.791372 196.306414 
L 553.819383 197.351566 
z
" style="fill:#0cba97;fill-opacity:0.8;"/>
    <path clip-path="url(#p11a710a97d)" d="M 539.792935 206.536626 
L 553.819383 197.351566 
L 576.500563 202.632798 
L 562.617115 211.921646 
z
" style="fill:#08745e;fill-opacity:0.8;"/>
    <path clip-path="url(#p11a710a97d)" d="M 539.758773 205.485128 
L 562.592378 210.866462 
L 576.481861 201.583988 
L 553.791372 196.306414 
z
" style="fill:#0aa384;fill-opacity:0.8;"/>
    <path clip-path="url(#p11a710a97d)" d="M 562.617115 211.921646 
L 576.500563 202.632798 
L 576.481861 201.583988 
L 562.592378 210.866462 
z
" style="fill:#065d4c;fill-opacity:0.8;"/>
    <path clip-path="url(#p11a710a97d)" d="M 539.792935 206.536626 
L 562.617115 211.921646 
L 562.592378 210.866462 
L 539.758773 205.485128 
z
" style="fill:#0cba97;fill-opacity:0.8;"/>
   </g>
   <g id="Poly3DCollection_31">
    <path clip-path="url(#p11a710a97d)" d="M 672.173908 200.174425 
L 672.183662 199.69202 
L 695.603316 205.003353 
L 695.588992 205.487446 
z
" style="fill:#065d4c;fill-opacity:0.8;"/>
    <path clip-path="url(#p11a710a97d)" d="M 659.262552 209.414887 
L 659.2699 208.929553 
L 672.183662 199.69202 
L 672.173908 200.174425 
z
" style="fill:#0cba97;fill-opacity:0.8;"/>
    <path clip-path="url(#p11a710a97d)" d="M 659.262552 209.414887 
L 672.173908 200.174425 
L 695.588992 205.487446 
L 682.834621 214.83264 
z
" style="fill:#08745e;fill-opacity:0.8;"/>
    <path clip-path="url(#p11a710a97d)" d="M 659.2699 208.929553 
L 682.846602 214.345604 
L 695.603316 205.003353 
L 672.183662 199.69202 
z
" style="fill:#0aa384;fill-opacity:0.8;"/>
    <path clip-path="url(#p11a710a97d)" d="M 682.834621 214.83264 
L 695.588992 205.487446 
L 695.603316 205.003353 
L 682.846602 214.345604 
z
" style="fill:#065d4c;fill-opacity:0.8;"/>
    <path clip-path="url(#p11a710a97d)" d="M 659.262552 209.414887 
L 682.834621 214.83264 
L 682.846602 214.345604 
L 659.2699 208.929553 
z
" style="fill:#0cba97;fill-opacity:0.8;"/>
   </g>
   <g id="Poly3DCollection_32">
    <path clip-path="url(#p11a710a97d)" d="M 599.437501 207.973582 
L 599.445325 208.870499 
L 622.634071 214.274989 
L 622.634546 213.374932 
z
" style="fill:#0cba97;fill-opacity:0.8;"/>
    <path clip-path="url(#p11a710a97d)" d="M 585.701203 217.367988 
L 585.714066 218.270354 
L 599.445325 208.870499 
L 599.437501 207.973582 
z
" style="fill:#065d4c;fill-opacity:0.8;"/>
    <path clip-path="url(#p11a710a97d)" d="M 585.714066 218.270354 
L 609.054119 223.782234 
L 622.634071 214.274989 
L 599.445325 208.870499 
z
" style="fill:#0aa384;fill-opacity:0.8;"/>
    <path clip-path="url(#p11a710a97d)" d="M 585.701203 217.367988 
L 599.437501 207.973582 
L 622.634546 213.374932 
L 609.049664 222.876705 
z
" style="fill:#08745e;fill-opacity:0.8;"/>
    <path clip-path="url(#p11a710a97d)" d="M 609.049664 222.876705 
L 622.634546 213.374932 
L 622.634071 214.274989 
L 609.054119 223.782234 
z
" style="fill:#0cba97;fill-opacity:0.8;"/>
    <path clip-path="url(#p11a710a97d)" d="M 585.701203 217.367988 
L 609.049664 222.876705 
L 609.054119 223.782234 
L 585.714066 218.270354 
z
" style="fill:#065d4c;fill-opacity:0.8;"/>
   </g>
   <g id="Poly3DCollection_33">
    <path clip-path="url(#p11a710a97d)" d="M 646.096148 218.837882 
L 646.099595 218.490638 
L 669.833645 224.015031 
L 669.82686 224.363494 
z
" style="fill:#065d4c;fill-opacity:0.8;"/>
    <path clip-path="url(#p11a710a97d)" d="M 632.667066 228.448873 
L 632.66866 228.099515 
L 646.099595 218.490638 
L 646.096148 218.837882 
z
" style="fill:#0cba97;fill-opacity:0.8;"/>
    <path clip-path="url(#p11a710a97d)" d="M 632.667066 228.448873 
L 646.096148 218.837882 
L 669.82686 224.363494 
L 656.558081 234.085597 
z
" style="fill:#08745e;fill-opacity:0.8;"/>
    <path clip-path="url(#p11a710a97d)" d="M 632.66866 228.099515 
L 656.56306 233.735011 
L 669.833645 224.015031 
L 646.099595 218.490638 
z
" style="fill:#0aa384;fill-opacity:0.8;"/>
    <path clip-path="url(#p11a710a97d)" d="M 656.558081 234.085597 
L 669.82686 224.363494 
L 669.833645 224.015031 
L 656.56306 233.735011 
z
" style="fill:#065d4c;fill-opacity:0.8;"/>
    <path clip-path="url(#p11a710a97d)" d="M 632.667066 228.448873 
L 656.558081 234.085597 
L 656.56306 233.735011 
L 632.66866 228.099515 
z
" style="fill:#0cba97;fill-opacity:0.8;"/>
   </g>
   <g id="Poly3DCollection_34">
    <path clip-path="url(#p11a710a97d)" d="M 482.067615 197.289959 
L 660.298425 239.53695 
L 756.317986 168.5924 
L 586.585163 132.103763 
z
" style="fill-opacity:0.2;"/>
   </g>
  </g>
 </g>
 <defs>
  <clipPath id="p2200d316ab">
   <rect height="277.2" width="380.454545" x="-30.6" y="-14.4"/>
  </clipPath>
  <clipPath id="p11a710a97d">
   <rect height="277.2" width="380.454545" x="425.945455" y="-14.4"/>
  </clipPath>
 </defs>
</svg>
