<?xml version="1.0" encoding="utf-8" standalone="no"?>
<!DOCTYPE svg PUBLIC "-//W3C//DTD SVG 1.1//EN"
  "http://www.w3.org/Graphics/SVG/1.1/DTD/svg11.dtd">
<!-- Created with matplotlib (https://matplotlib.org/) -->
<svg height="302.4pt" version="1.1" viewBox="0 0 820.8 302.4" width="820.8pt" xmlns="http://www.w3.org/2000/svg" xmlns:xlink="http://www.w3.org/1999/xlink">
 <defs>
  <style type="text/css">
*{stroke-linecap:butt;stroke-linejoin:round;}
  </style>
 </defs>
 <g id="figure_1">
  <g id="patch_1">
   <path d="M 0 302.4 
L 820.8 302.4 
L 820.8 0 
L 0 0 
z
" style="fill:#ffffff;"/>
  </g>
  <g id="patch_2">
   <path d="M -30.6 262.8 
L 349.854545 262.8 
L 349.854545 -14.4 
L -30.6 -14.4 
z
" style="fill:#ffffff;"/>
  </g>
  <g id="pane3d_1">
   <g id="patch_3">
    <path d="M 19.835129 201.548569 
L 128.723211 133.58541 
L 126.910339 3.718968 
L 11.951034 64.782468 
" style="fill:#f2f2f2;opacity:0.5;stroke:#f2f2f2;stroke-linejoin:miter;"/>
   </g>
  </g>
  <g id="pane3d_2">
   <g id="patch_4">
    <path d="M 128.723211 133.58541 
L 305.111665 171.581202 
L 312.491547 37.79869 
L 126.910339 3.718968 
" style="fill:#e6e6e6;opacity:0.5;stroke:#e6e6e6;stroke-linejoin:miter;"/>
   </g>
  </g>
  <g id="pane3d_3">
   <g id="patch_5">
    <path d="M 19.835129 201.548569 
L 205.419617 245.80086 
L 305.111665 171.581202 
L 128.723211 133.58541 
" style="fill:#ececec;opacity:0.5;stroke:#ececec;stroke-linejoin:miter;"/>
   </g>
  </g>
  <g id="axis3d_1">
   <g id="line2d_1">
    <path d="M 19.835129 201.548569 
L 205.419617 245.80086 
" style="fill:none;stroke:#000000;stroke-linecap:square;stroke-width:0.8;"/>
   </g>
   <g id="Line3DCollection_1">
    <path d="M 42.295817 206.90428 
L 150.133942 138.19749 
L 149.393845 7.847789 
" style="fill:none;stroke:#b0b0b0;stroke-width:0.8;"/>
    <path d="M 87.512337 217.686079 
L 193.184014 147.470895 
L 194.636898 16.156123 
" style="fill:none;stroke:#b0b0b0;stroke-width:0.8;"/>
    <path d="M 133.765289 228.715013 
L 237.148096 156.941187 
L 240.890183 24.649974 
" style="fill:none;stroke:#b0b0b0;stroke-width:0.8;"/>
    <path d="M 181.090721 239.999678 
L 282.055608 166.614702 
L 288.187917 33.335625 
" style="fill:none;stroke:#b0b0b0;stroke-width:0.8;"/>
   </g>
   <g id="xtick_1">
    <g id="line2d_2">
     <path d="M 43.225084 206.312217 
L 40.433807 208.09062 
" style="fill:none;stroke:#000000;stroke-linecap:square;stroke-width:0.8;"/>
    </g>
    <g id="text_1">
     <!-- 00 -->
     <defs>
      <path d="M 42 31.84375 
C 42 37.96875 41.90625 48.421875 37.703125 56.453125 
C 34 63.484375 28.09375 66 22.90625 66 
C 18.09375 66 12 63.78125 8.203125 56.5625 
C 4.203125 49.015625 3.796875 39.671875 3.796875 31.84375 
C 3.796875 26.109375 3.90625 17.375 7 9.734375 
C 11.296875 -0.609375 19 -2 22.90625 -2 
C 27.5 -2 34.5 -0.109375 38.59375 9.4375 
C 41.59375 16.375 42 24.5 42 31.84375 
z
M 22.90625 -0.40625 
C 16.5 -0.40625 12.703125 5.125 11.296875 12.75 
C 10.203125 18.6875 10.203125 27.328125 10.203125 32.953125 
C 10.203125 40.6875 10.203125 47.109375 11.5 53.234375 
C 13.40625 61.78125 19 64.390625 22.90625 64.390625 
C 27 64.390625 32.296875 61.671875 34.203125 53.4375 
C 35.5 47.71875 35.59375 40.984375 35.59375 32.953125 
C 35.59375 26.421875 35.59375 18.375 34.40625 12.453125 
C 32.296875 1.5 26.40625 -0.40625 22.90625 -0.40625 
z
" id="CMR17-48"/>
     </defs>
     <g transform="translate(19.241292 243.348593)rotate(-45)scale(0.2 -0.2)">
      <use transform="scale(0.996264)" xlink:href="#CMR17-48"/>
      <use transform="translate(45.690477 0)scale(0.996264)" xlink:href="#CMR17-48"/>
     </g>
    </g>
   </g>
   <g id="xtick_2">
    <g id="line2d_3">
     <path d="M 88.423674 217.080527 
L 85.686217 218.899473 
" style="fill:none;stroke:#000000;stroke-linecap:square;stroke-width:0.8;"/>
    </g>
    <g id="text_2">
     <!-- 01 -->
     <defs>
      <path d="M 26.59375 63.796875 
C 26.59375 65.890625 26.5 66 25.09375 66 
C 21.203125 61.359375 15.296875 59.890625 9.703125 59.6875 
C 9.40625 59.6875 8.90625 59.6875 8.796875 59.5 
C 8.703125 59.296875 8.703125 59.09375 8.703125 57 
C 11.796875 57 17 57.59375 21 59.984375 
L 21 7.296875 
C 21 3.796875 20.796875 2.59375 12.203125 2.59375 
L 9.203125 2.59375 
L 9.203125 0 
C 14 0.09375 19 0.1875 23.796875 0.1875 
C 28.59375 0.1875 33.59375 0.09375 38.40625 0 
L 38.40625 2.59375 
L 35.40625 2.59375 
C 26.796875 2.59375 26.59375 3.6875 26.59375 7.296875 
z
" id="CMR17-49"/>
     </defs>
     <g transform="translate(64.453717 254.305345)rotate(-45)scale(0.2 -0.2)">
      <use transform="scale(0.996264)" xlink:href="#CMR17-48"/>
      <use transform="translate(45.690477 0)scale(0.996264)" xlink:href="#CMR17-49"/>
     </g>
    </g>
   </g>
   <g id="xtick_3">
    <g id="line2d_4">
     <path d="M 134.657625 228.095506 
L 131.977203 229.956397 
" style="fill:none;stroke:#000000;stroke-linecap:square;stroke-width:0.8;"/>
    </g>
    <g id="text_3">
     <!-- 10 -->
     <g transform="translate(110.70433 265.513691)rotate(-45)scale(0.2 -0.2)">
      <use transform="scale(0.996264)" xlink:href="#CMR17-49"/>
      <use transform="translate(45.690477 0)scale(0.996264)" xlink:href="#CMR17-48"/>
     </g>
    </g>
   </g>
   <g id="xtick_4">
    <g id="line2d_5">
     <path d="M 181.962926 239.365727 
L 179.342936 241.270032 
" style="fill:none;stroke:#000000;stroke-linecap:square;stroke-width:0.8;"/>
    </g>
    <g id="text_4">
     <!-- 11 -->
     <g transform="translate(158.029305 276.982396)rotate(-45)scale(0.2 -0.2)">
      <use transform="scale(0.996264)" xlink:href="#CMR17-49"/>
      <use transform="translate(45.690477 0)scale(0.996264)" xlink:href="#CMR17-49"/>
     </g>
    </g>
   </g>
  </g>
  <g id="axis3d_2">
   <g id="line2d_6">
    <path d="M 305.111665 171.581202 
L 205.419617 245.80086 
" style="fill:none;stroke:#000000;stroke-linecap:square;stroke-width:0.8;"/>
   </g>
   <g id="Line3DCollection_2">
    <path d="M 27.455231 56.547028 
L 34.471044 192.413474 
L 218.858418 235.795817 
" style="fill:none;stroke:#b0b0b0;stroke-width:0.8;"/>
    <path d="M 57.232024 40.730342 
L 62.623407 174.842005 
L 244.674037 216.576366 
" style="fill:none;stroke:#b0b0b0;stroke-width:0.8;"/>
    <path d="M 85.85589 25.526062 
L 89.739382 157.917404 
L 269.496985 198.095948 
" style="fill:none;stroke:#b0b0b0;stroke-width:0.8;"/>
    <path d="M 113.392516 10.899296 
L 115.875164 141.604597 
L 293.383438 180.312741 
" style="fill:none;stroke:#b0b0b0;stroke-width:0.8;"/>
   </g>
   <g id="xtick_5">
    <g id="line2d_7">
     <path d="M 217.315598 235.432825 
L 221.947489 236.522608 
" style="fill:none;stroke:#000000;stroke-linecap:square;stroke-width:0.8;"/>
    </g>
    <g id="text_5">
     <!-- 00 -->
     <g transform="translate(233.095662 248.844567)rotate(-337.5)scale(0.2 -0.2)">
      <use transform="scale(0.996264)" xlink:href="#CMR17-48"/>
      <use transform="translate(45.690477 0)scale(0.996264)" xlink:href="#CMR17-48"/>
     </g>
    </g>
   </g>
   <g id="xtick_6">
    <g id="line2d_8">
     <path d="M 243.15208 216.227463 
L 247.72127 217.274932 
" style="fill:none;stroke:#000000;stroke-linecap:square;stroke-width:0.8;"/>
    </g>
    <g id="text_6">
     <!-- 01 -->
     <g transform="translate(258.649213 229.400141)rotate(-337.5)scale(0.2 -0.2)">
      <use transform="scale(0.996264)" xlink:href="#CMR17-48"/>
      <use transform="translate(45.690477 0)scale(0.996264)" xlink:href="#CMR17-49"/>
     </g>
    </g>
   </g>
   <g id="xtick_7">
    <g id="line2d_9">
     <path d="M 267.995442 197.76033 
L 272.503283 198.767901 
" style="fill:none;stroke:#000000;stroke-linecap:square;stroke-width:0.8;"/>
    </g>
    <g id="text_7">
     <!-- 10 -->
     <g transform="translate(283.220625 210.703053)rotate(-337.5)scale(0.2 -0.2)">
      <use transform="scale(0.996264)" xlink:href="#CMR17-49"/>
      <use transform="translate(45.690477 0)scale(0.996264)" xlink:href="#CMR17-48"/>
     </g>
    </g>
   </g>
   <g id="xtick_8">
    <g id="line2d_10">
     <path d="M 291.901865 179.989663 
L 296.349691 180.959573 
" style="fill:none;stroke:#000000;stroke-linecap:square;stroke-width:0.8;"/>
    </g>
    <g id="text_8">
     <!-- 11 -->
     <g transform="translate(306.865451 192.711031)rotate(-337.5)scale(0.2 -0.2)">
      <use transform="scale(0.996264)" xlink:href="#CMR17-49"/>
      <use transform="translate(45.690477 0)scale(0.996264)" xlink:href="#CMR17-49"/>
     </g>
    </g>
   </g>
  </g>
  <g id="axis3d_3">
   <g id="line2d_11">
    <path d="M 305.111665 171.581202 
L 312.491547 37.79869 
" style="fill:none;stroke:#000000;stroke-linecap:square;stroke-width:0.8;"/>
   </g>
   <g id="Line3DCollection_3">
    <path d="M 305.301529 168.139346 
L 128.676471 130.237206 
L 19.632633 198.035851 
" style="fill:none;stroke:#b0b0b0;stroke-width:0.8;"/>
    <path d="M 308.01253 118.994326 
L 128.00967 82.470348 
L 16.739307 147.845068 
" style="fill:none;stroke:#b0b0b0;stroke-width:0.8;"/>
    <path d="M 310.830182 67.91591 
L 127.317766 32.905281 
L 13.728276 95.612445 
" style="fill:none;stroke:#b0b0b0;stroke-width:0.8;"/>
   </g>
   <g id="xtick_9">
    <g id="line2d_12">
     <path d="M 303.827824 167.823102 
L 308.252006 168.772492 
" style="fill:none;stroke:#000000;stroke-linecap:square;stroke-width:0.8;"/>
    </g>
    <g id="text_9">
     <!-- $0.0$ -->
     <defs>
      <path d="M 18.40625 4.796875 
C 18.40625 7.6875 16 9.6875 13.59375 9.6875 
C 10.703125 9.6875 8.703125 7.296875 8.703125 4.890625 
C 8.703125 2 11.09375 0 13.5 0 
C 16.40625 0 18.40625 2.390625 18.40625 4.796875 
z
" id="CMMI12-58"/>
     </defs>
     <g transform="translate(311.987909 180.036658)scale(0.2 -0.2)">
      <use transform="scale(0.996264)" xlink:href="#CMR17-48"/>
      <use transform="translate(45.690477 0)scale(0.996264)" xlink:href="#CMMI12-58"/>
      <use transform="translate(72.787654 0)scale(0.996264)" xlink:href="#CMR17-48"/>
     </g>
    </g>
   </g>
   <g id="xtick_10">
    <g id="line2d_13">
     <path d="M 306.509448 118.689339 
L 311.021881 119.604946 
" style="fill:none;stroke:#000000;stroke-linecap:square;stroke-width:0.8;"/>
    </g>
    <g id="text_10">
     <!-- $0.2$ -->
     <defs>
      <path d="M 41.703125 15.46875 
L 39.90625 15.46875 
C 38.90625 8.390625 38.09375 7.1875 37.703125 6.59375 
C 37.203125 5.796875 30 5.796875 28.59375 5.796875 
L 9.40625 5.796875 
C 13 9.6875 20 16.765625 28.5 24.9375 
C 34.59375 30.71875 41.703125 37.5 41.703125 47.390625 
C 41.703125 59.1875 32.296875 66 21.796875 66 
C 10.796875 66 4.09375 56.296875 4.09375 47.296875 
C 4.09375 43.390625 7 42.890625 8.203125 42.890625 
C 9.203125 42.890625 12.203125 43.484375 12.203125 46.984375 
C 12.203125 50.09375 9.59375 51 8.203125 51 
C 7.59375 51 7 50.890625 6.59375 50.6875 
C 8.5 59.1875 14.296875 63.390625 20.40625 63.390625 
C 29.09375 63.390625 34.796875 56.5 34.796875 47.390625 
C 34.796875 38.703125 29.703125 31.21875 24 24.734375 
L 4.09375 2.296875 
L 4.09375 0 
L 39.296875 0 
z
" id="CMR17-50"/>
     </defs>
     <g transform="translate(315.049803 130.960746)scale(0.2 -0.2)">
      <use transform="scale(0.996264)" xlink:href="#CMR17-48"/>
      <use transform="translate(45.690477 0)scale(0.996264)" xlink:href="#CMMI12-58"/>
      <use transform="translate(72.787654 0)scale(0.996264)" xlink:href="#CMR17-50"/>
     </g>
    </g>
   </g>
   <g id="xtick_11">
    <g id="line2d_14">
     <path d="M 309.296531 67.623319 
L 313.900803 68.501725 
" style="fill:none;stroke:#000000;stroke-linecap:square;stroke-width:0.8;"/>
    </g>
    <g id="text_11">
     <!-- $0.4$ -->
     <defs>
      <path d="M 33.59375 64.796875 
C 33.59375 66.890625 33.5 67 31.703125 67 
L 2 19.59375 
L 2 17 
L 27.796875 17 
L 27.796875 7.1875 
C 27.796875 3.59375 27.59375 2.59375 20.59375 2.59375 
L 18.703125 2.59375 
L 18.703125 0 
C 21.90625 0.1875 27.296875 0.1875 30.703125 0.1875 
C 34.09375 0.1875 39.5 0.1875 42.703125 0 
L 42.703125 2.59375 
L 40.796875 2.59375 
C 33.796875 2.59375 33.59375 3.59375 33.59375 7.1875 
L 33.59375 17 
L 43.796875 17 
L 43.796875 19.59375 
L 33.59375 19.59375 
z
M 28.09375 58.171875 
L 28.09375 19.59375 
L 4 19.59375 
z
" id="CMR17-52"/>
     </defs>
     <g transform="translate(318.231888 79.958422)scale(0.2 -0.2)">
      <use transform="scale(0.996264)" xlink:href="#CMR17-48"/>
      <use transform="translate(45.690477 0)scale(0.996264)" xlink:href="#CMMI12-58"/>
      <use transform="translate(72.787654 0)scale(0.996264)" xlink:href="#CMR17-52"/>
     </g>
    </g>
   </g>
  </g>
  <g id="axes_1">
   <g id="Poly3DCollection_1">
    <path clip-path="url(#p4e5cf2c4de)" d="M 133.040958 136.59909 
L 133.032798 135.935749 
L 154.432484 140.552906 
L 154.435155 141.218531 
z
" style="fill:#5d0618;fill-opacity:0.8;"/>
    <path clip-path="url(#p4e5cf2c4de)" d="M 120.255859 144.631018 
L 120.244306 143.963715 
L 133.032798 135.935749 
L 133.040958 136.59909 
z
" style="fill:#ba0c2f;fill-opacity:0.8;"/>
    <path clip-path="url(#p4e5cf2c4de)" d="M 120.255859 144.631018 
L 133.040958 136.59909 
L 154.435155 141.218531 
L 141.77845 149.335274 
z
" style="fill:#74081d;fill-opacity:0.8;"/>
    <path clip-path="url(#p4e5cf2c4de)" d="M 120.244306 143.963715 
L 141.772451 148.665667 
L 154.432484 140.552906 
L 133.032798 135.935749 
z
" style="fill:#a30a29;fill-opacity:0.8;"/>
    <path clip-path="url(#p4e5cf2c4de)" d="M 141.77845 149.335274 
L 154.435155 141.218531 
L 154.432484 140.552906 
L 141.772451 148.665667 
z
" style="fill:#5d0618;fill-opacity:0.8;"/>
    <path clip-path="url(#p4e5cf2c4de)" d="M 120.255859 144.631018 
L 141.77845 149.335274 
L 141.772451 148.665667 
L 120.244306 143.963715 
z
" style="fill:#ba0c2f;fill-opacity:0.8;"/>
   </g>
   <g id="Poly3DCollection_2">
    <path clip-path="url(#p4e5cf2c4de)" d="M 176.054832 145.886657 
L 176.050954 146.769767 
L 197.892125 151.4904 
L 197.903572 150.604243 
z
" style="fill:#ba0c2f;fill-opacity:0.8;"/>
    <path clip-path="url(#p4e5cf2c4de)" d="M 163.529962 154.089567 
L 163.530392 154.977964 
L 176.050954 146.769767 
L 176.054832 145.886657 
z
" style="fill:#5d0618;fill-opacity:0.8;"/>
    <path clip-path="url(#p4e5cf2c4de)" d="M 163.530392 154.977964 
L 185.506836 159.786168 
L 197.892125 151.4904 
L 176.050954 146.769767 
z
" style="fill:#a30a29;fill-opacity:0.8;"/>
    <path clip-path="url(#p4e5cf2c4de)" d="M 163.529962 154.089567 
L 176.054832 145.886657 
L 197.903572 150.604243 
L 185.514069 158.894698 
z
" style="fill:#74081d;fill-opacity:0.8;"/>
    <path clip-path="url(#p4e5cf2c4de)" d="M 185.514069 158.894698 
L 197.903572 150.604243 
L 197.892125 151.4904 
L 185.506836 159.786168 
z
" style="fill:#ba0c2f;fill-opacity:0.8;"/>
    <path clip-path="url(#p4e5cf2c4de)" d="M 163.529962 154.089567 
L 185.514069 158.894698 
L 185.506836 159.786168 
L 163.530392 154.977964 
z
" style="fill:#5d0618;fill-opacity:0.8;"/>
   </g>
   <g id="Poly3DCollection_3">
    <path clip-path="url(#p4e5cf2c4de)" d="M 107.235559 152.810705 
L 107.229479 152.539843 
L 128.88385 157.330335 
L 128.887662 157.602134 
z
" style="fill:#5d0618;fill-opacity:0.8;"/>
    <path clip-path="url(#p4e5cf2c4de)" d="M 93.973508 161.142267 
L 93.965957 160.869778 
L 107.229479 152.539843 
L 107.235559 152.810705 
z
" style="fill:#ba0c2f;fill-opacity:0.8;"/>
    <path clip-path="url(#p4e5cf2c4de)" d="M 93.973508 161.142267 
L 107.235559 152.810705 
L 128.887662 157.602134 
L 115.756238 166.023315 
z
" style="fill:#74081d;fill-opacity:0.8;"/>
    <path clip-path="url(#p4e5cf2c4de)" d="M 93.965957 160.869778 
L 115.750982 165.749881 
L 128.88385 157.330335 
L 107.229479 152.539843 
z
" style="fill:#a30a29;fill-opacity:0.8;"/>
    <path clip-path="url(#p4e5cf2c4de)" d="M 115.756238 166.023315 
L 128.887662 157.602134 
L 128.88385 157.330335 
L 115.750982 165.749881 
z
" style="fill:#5d0618;fill-opacity:0.8;"/>
    <path clip-path="url(#p4e5cf2c4de)" d="M 93.973508 161.142267 
L 115.756238 166.023315 
L 115.750982 165.749881 
L 93.965957 160.869778 
z
" style="fill:#ba0c2f;fill-opacity:0.8;"/>
   </g>
   <g id="Poly3DCollection_4">
    <path clip-path="url(#p4e5cf2c4de)" d="M 219.985034 155.372078 
L 219.993996 154.956492 
L 242.315609 159.773945 
L 242.302956 160.19097 
z
" style="fill:#5d0618;fill-opacity:0.8;"/>
    <path clip-path="url(#p4e5cf2c4de)" d="M 207.73452 163.751487 
L 207.741559 163.333404 
L 219.993996 154.956492 
L 219.985034 155.372078 
z
" style="fill:#ba0c2f;fill-opacity:0.8;"/>
    <path clip-path="url(#p4e5cf2c4de)" d="M 207.73452 163.751487 
L 219.985034 155.372078 
L 242.302956 160.19097 
L 230.195147 168.660773 
z
" style="fill:#74081d;fill-opacity:0.8;"/>
    <path clip-path="url(#p4e5cf2c4de)" d="M 207.741559 163.333404 
L 230.205924 168.241239 
L 242.315609 159.773945 
L 219.993996 154.956492 
z
" style="fill:#a30a29;fill-opacity:0.8;"/>
    <path clip-path="url(#p4e5cf2c4de)" d="M 230.195147 168.660773 
L 242.302956 160.19097 
L 242.315609 159.773945 
L 230.205924 168.241239 
z
" style="fill:#5d0618;fill-opacity:0.8;"/>
    <path clip-path="url(#p4e5cf2c4de)" d="M 207.73452 163.751487 
L 230.195147 168.660773 
L 230.205924 168.241239 
L 207.741559 163.333404 
z
" style="fill:#ba0c2f;fill-opacity:0.8;"/>
   </g>
   <g id="Poly3DCollection_5">
    <path clip-path="url(#p4e5cf2c4de)" d="M 150.772206 162.445001 
L 150.770826 162.193366 
L 172.893758 167.087629 
L 172.892953 167.340137 
z
" style="fill:#5d0618;fill-opacity:0.8;"/>
    <path clip-path="url(#p4e5cf2c4de)" d="M 137.775005 170.957254 
L 137.77232 170.704104 
L 150.770826 162.193366 
L 150.772206 162.445001 
z
" style="fill:#ba0c2f;fill-opacity:0.8;"/>
    <path clip-path="url(#p4e5cf2c4de)" d="M 137.775005 170.957254 
L 150.772206 162.445001 
L 172.892953 167.340137 
L 160.033667 175.944948 
z
" style="fill:#74081d;fill-opacity:0.8;"/>
    <path clip-path="url(#p4e5cf2c4de)" d="M 137.77232 170.704104 
L 160.033193 175.690918 
L 172.893758 167.087629 
L 150.770826 162.193366 
z
" style="fill:#a30a29;fill-opacity:0.8;"/>
    <path clip-path="url(#p4e5cf2c4de)" d="M 160.033667 175.944948 
L 172.892953 167.340137 
L 172.893758 167.087629 
L 160.033193 175.690918 
z
" style="fill:#5d0618;fill-opacity:0.8;"/>
    <path clip-path="url(#p4e5cf2c4de)" d="M 137.775005 170.957254 
L 160.033667 175.944948 
L 160.033193 175.690918 
L 137.77232 170.704104 
z
" style="fill:#ba0c2f;fill-opacity:0.8;"/>
   </g>
   <g id="Poly3DCollection_6">
    <path clip-path="url(#p4e5cf2c4de)" d="M 80.462909 169.629973 
L 80.471196 169.880237 
L 102.383542 174.854311 
L 102.377376 174.603177 
z
" style="fill:#ba0c2f;fill-opacity:0.8;"/>
    <path clip-path="url(#p4e5cf2c4de)" d="M 66.69671 178.278254 
L 66.706441 178.530026 
L 80.471196 169.880237 
L 80.462909 169.629973 
z
" style="fill:#5d0618;fill-opacity:0.8;"/>
    <path clip-path="url(#p4e5cf2c4de)" d="M 66.706441 178.530026 
L 88.7516 183.598899 
L 102.383542 174.854311 
L 80.471196 169.880237 
z
" style="fill:#a30a29;fill-opacity:0.8;"/>
    <path clip-path="url(#p4e5cf2c4de)" d="M 66.69671 178.278254 
L 80.462909 169.629973 
L 102.377376 174.603177 
L 88.744015 183.34625 
z
" style="fill:#74081d;fill-opacity:0.8;"/>
    <path clip-path="url(#p4e5cf2c4de)" d="M 88.744015 183.34625 
L 102.377376 174.603177 
L 102.383542 174.854311 
L 88.7516 183.598899 
z
" style="fill:#ba0c2f;fill-opacity:0.8;"/>
    <path clip-path="url(#p4e5cf2c4de)" d="M 66.69671 178.278254 
L 88.744015 183.34625 
L 88.7516 183.598899 
L 66.706441 178.530026 
z
" style="fill:#5d0618;fill-opacity:0.8;"/>
   </g>
   <g id="Poly3DCollection_7">
    <path clip-path="url(#p4e5cf2c4de)" d="M 195.253748 172.288394 
L 195.257042 172.01359 
L 217.864288 177.014881 
L 217.858521 177.290641 
z
" style="fill:#5d0618;fill-opacity:0.8;"/>
    <path clip-path="url(#p4e5cf2c4de)" d="M 182.536165 180.987281 
L 182.538103 180.710818 
L 195.257042 172.01359 
L 195.253748 172.288394 
z
" style="fill:#ba0c2f;fill-opacity:0.8;"/>
    <path clip-path="url(#p4e5cf2c4de)" d="M 182.536165 180.987281 
L 195.253748 172.288394 
L 217.858521 177.290641 
L 205.286529 186.085155 
z
" style="fill:#74081d;fill-opacity:0.8;"/>
    <path clip-path="url(#p4e5cf2c4de)" d="M 182.538103 180.710818 
L 205.290973 185.807728 
L 217.864288 177.014881 
L 195.257042 172.01359 
z
" style="fill:#a30a29;fill-opacity:0.8;"/>
    <path clip-path="url(#p4e5cf2c4de)" d="M 205.286529 186.085155 
L 217.858521 177.290641 
L 217.864288 177.014881 
L 205.290973 185.807728 
z
" style="fill:#5d0618;fill-opacity:0.8;"/>
    <path clip-path="url(#p4e5cf2c4de)" d="M 182.536165 180.987281 
L 205.286529 186.085155 
L 205.290973 185.807728 
L 182.538103 180.710818 
z
" style="fill:#ba0c2f;fill-opacity:0.8;"/>
   </g>
   <g id="Poly3DCollection_8">
    <path clip-path="url(#p4e5cf2c4de)" d="M 124.531556 179.630782 
L 124.527011 179.34431 
L 146.92738 184.426214 
L 146.929406 184.713684 
z
" style="fill:#5d0618;fill-opacity:0.8;"/>
    <path clip-path="url(#p4e5cf2c4de)" d="M 111.034794 188.470213 
L 111.028666 188.182009 
L 124.527011 179.34431 
L 124.531556 179.630782 
z
" style="fill:#ba0c2f;fill-opacity:0.8;"/>
    <path clip-path="url(#p4e5cf2c4de)" d="M 111.034794 188.470213 
L 124.531556 179.630782 
L 146.929406 184.713684 
L 133.573102 193.651076 
z
" style="fill:#74081d;fill-opacity:0.8;"/>
    <path clip-path="url(#p4e5cf2c4de)" d="M 111.028666 188.182009 
L 133.569525 193.361865 
L 146.92738 184.426214 
L 124.527011 179.34431 
z
" style="fill:#a30a29;fill-opacity:0.8;"/>
    <path clip-path="url(#p4e5cf2c4de)" d="M 133.573102 193.651076 
L 146.929406 184.713684 
L 146.92738 184.426214 
L 133.569525 193.361865 
z
" style="fill:#5d0618;fill-opacity:0.8;"/>
    <path clip-path="url(#p4e5cf2c4de)" d="M 111.034794 188.470213 
L 133.573102 193.651076 
L 133.569525 193.361865 
L 111.028666 188.182009 
z
" style="fill:#ba0c2f;fill-opacity:0.8;"/>
   </g>
   <g id="Poly3DCollection_9">
    <path clip-path="url(#p4e5cf2c4de)" d="M 240.711285 182.347767 
L 240.723982 181.924232 
L 263.832796 187.035668 
L 263.816146 187.460679 
z
" style="fill:#5d0618;fill-opacity:0.8;"/>
    <path clip-path="url(#p4e5cf2c4de)" d="M 228.288877 191.239493 
L 228.299598 190.813396 
L 240.723982 181.924232 
L 240.711285 182.347767 
z
" style="fill:#ba0c2f;fill-opacity:0.8;"/>
    <path clip-path="url(#p4e5cf2c4de)" d="M 228.288877 191.239493 
L 240.711285 182.347767 
L 263.816146 187.460679 
L 251.547417 196.451239 
z
" style="fill:#74081d;fill-opacity:0.8;"/>
    <path clip-path="url(#p4e5cf2c4de)" d="M 228.299598 190.813396 
L 251.562146 196.023653 
L 263.832796 187.035668 
L 240.723982 181.924232 
z
" style="fill:#a30a29;fill-opacity:0.8;"/>
    <path clip-path="url(#p4e5cf2c4de)" d="M 251.547417 196.451239 
L 263.816146 187.460679 
L 263.832796 187.035668 
L 251.562146 196.023653 
z
" style="fill:#5d0618;fill-opacity:0.8;"/>
    <path clip-path="url(#p4e5cf2c4de)" d="M 228.288877 191.239493 
L 251.547417 196.451239 
L 251.562146 196.023653 
L 228.299598 190.813396 
z
" style="fill:#ba0c2f;fill-opacity:0.8;"/>
   </g>
   <g id="Poly3DCollection_10">
    <path clip-path="url(#p4e5cf2c4de)" d="M 169.574967 189.852801 
L 169.575455 189.596345 
L 192.4752 194.791719 
L 192.472372 195.049071 
z
" style="fill:#5d0618;fill-opacity:0.8;"/>
    <path clip-path="url(#p4e5cf2c4de)" d="M 156.363086 198.889791 
L 156.362224 198.631781 
L 169.575455 189.596345 
L 169.574967 189.852801 
z
" style="fill:#ba0c2f;fill-opacity:0.8;"/>
    <path clip-path="url(#p4e5cf2c4de)" d="M 156.363086 198.889791 
L 169.574967 189.852801 
L 192.472372 195.049071 
L 179.408984 204.187333 
z
" style="fill:#74081d;fill-opacity:0.8;"/>
    <path clip-path="url(#p4e5cf2c4de)" d="M 156.362224 198.631781 
L 179.410493 203.92842 
L 192.4752 194.791719 
L 169.575455 189.596345 
z
" style="fill:#a30a29;fill-opacity:0.8;"/>
    <path clip-path="url(#p4e5cf2c4de)" d="M 179.408984 204.187333 
L 192.472372 195.049071 
L 192.4752 194.791719 
L 179.410493 203.92842 
z
" style="fill:#5d0618;fill-opacity:0.8;"/>
    <path clip-path="url(#p4e5cf2c4de)" d="M 156.363086 198.889791 
L 179.408984 204.187333 
L 179.410493 203.92842 
L 156.362224 198.631781 
z
" style="fill:#ba0c2f;fill-opacity:0.8;"/>
   </g>
   <g id="Poly3DCollection_11">
    <path clip-path="url(#p4e5cf2c4de)" d="M 97.27738 197.480353 
L 97.284216 197.735418 
L 119.961977 203.017993 
L 119.957413 202.762035 
z
" style="fill:#ba0c2f;fill-opacity:0.8;"/>
    <path clip-path="url(#p4e5cf2c4de)" d="M 83.25169 206.666194 
L 83.260027 206.922807 
L 97.284216 197.735418 
L 97.27738 197.480353 
z
" style="fill:#5d0618;fill-opacity:0.8;"/>
    <path clip-path="url(#p4e5cf2c4de)" d="M 83.260027 206.922807 
L 106.080746 212.30918 
L 119.961977 203.017993 
L 97.284216 197.735418 
z
" style="fill:#a30a29;fill-opacity:0.8;"/>
    <path clip-path="url(#p4e5cf2c4de)" d="M 83.25169 206.666194 
L 97.27738 197.480353 
L 119.957413 202.762035 
L 106.074709 212.051668 
z
" style="fill:#74081d;fill-opacity:0.8;"/>
    <path clip-path="url(#p4e5cf2c4de)" d="M 106.074709 212.051668 
L 119.957413 202.762035 
L 119.961977 203.017993 
L 106.080746 212.30918 
z
" style="fill:#ba0c2f;fill-opacity:0.8;"/>
    <path clip-path="url(#p4e5cf2c4de)" d="M 83.25169 206.666194 
L 106.074709 212.051668 
L 106.080746 212.30918 
L 83.260027 206.922807 
z
" style="fill:#5d0618;fill-opacity:0.8;"/>
   </g>
   <g id="Poly3DCollection_12">
    <path clip-path="url(#p4e5cf2c4de)" d="M 215.625845 200.303452 
L 215.607301 201.220664 
L 239.012472 206.537345 
L 239.039706 205.616925 
z
" style="fill:#ba0c2f;fill-opacity:0.8;"/>
    <path clip-path="url(#p4e5cf2c4de)" d="M 202.715132 209.544698 
L 202.70116 210.467474 
L 215.607301 201.220664 
L 215.625845 200.303452 
z
" style="fill:#5d0618;fill-opacity:0.8;"/>
    <path clip-path="url(#p4e5cf2c4de)" d="M 202.70116 210.467474 
L 226.263183 215.888913 
L 239.012472 206.537345 
L 215.607301 201.220664 
z
" style="fill:#a30a29;fill-opacity:0.8;"/>
    <path clip-path="url(#p4e5cf2c4de)" d="M 202.715132 209.544698 
L 215.625845 200.303452 
L 239.039706 205.616925 
L 226.285962 214.962906 
z
" style="fill:#74081d;fill-opacity:0.8;"/>
    <path clip-path="url(#p4e5cf2c4de)" d="M 226.285962 214.962906 
L 239.039706 205.616925 
L 239.012472 206.537345 
L 226.263183 215.888913 
z
" style="fill:#ba0c2f;fill-opacity:0.8;"/>
    <path clip-path="url(#p4e5cf2c4de)" d="M 202.715132 209.544698 
L 226.285962 214.962906 
L 226.263183 215.888913 
L 202.70116 210.467474 
z
" style="fill:#5d0618;fill-opacity:0.8;"/>
   </g>
   <g id="Poly3DCollection_13">
    <path clip-path="url(#p4e5cf2c4de)" d="M 142.893177 208.103272 
L 142.890723 207.821923 
L 166.089172 213.222741 
L 166.089023 213.505075 
z
" style="fill:#5d0618;fill-opacity:0.8;"/>
    <path clip-path="url(#p4e5cf2c4de)" d="M 129.157609 217.498466 
L 129.153574 217.215406 
L 142.890723 207.821923 
L 142.893177 208.103272 
z
" style="fill:#ba0c2f;fill-opacity:0.8;"/>
    <path clip-path="url(#p4e5cf2c4de)" d="M 129.157609 217.498466 
L 142.893177 208.103272 
L 166.089023 213.505075 
L 152.504854 223.00764 
z
" style="fill:#74081d;fill-opacity:0.8;"/>
    <path clip-path="url(#p4e5cf2c4de)" d="M 129.153574 217.215406 
L 152.503456 222.723587 
L 166.089172 213.222741 
L 142.890723 207.821923 
z
" style="fill:#a30a29;fill-opacity:0.8;"/>
    <path clip-path="url(#p4e5cf2c4de)" d="M 152.504854 223.00764 
L 166.089023 213.505075 
L 166.089172 213.222741 
L 152.503456 222.723587 
z
" style="fill:#5d0618;fill-opacity:0.8;"/>
    <path clip-path="url(#p4e5cf2c4de)" d="M 129.157609 217.498466 
L 152.504854 223.00764 
L 152.503456 222.723587 
L 129.153574 217.215406 
z
" style="fill:#ba0c2f;fill-opacity:0.8;"/>
   </g>
   <g id="Poly3DCollection_14">
    <path clip-path="url(#p4e5cf2c4de)" d="M 252.899866 173.62341 
L 264.861158 165.061743 
L 287.663541 169.985239 
L 275.852677 178.640274 
z
" style="fill:#74081d;fill-opacity:0.8;"/>
    <path clip-path="url(#p4e5cf2c4de)" d="M 264.861158 165.061743 
L 269.853873 37.832394 
L 293.828503 42.279736 
L 287.663541 169.985239 
z
" style="fill:#5d0618;fill-opacity:0.8;"/>
    <path clip-path="url(#p4e5cf2c4de)" d="M 252.899866 173.62341 
L 257.339398 45.567601 
L 269.853873 37.832394 
L 264.861158 165.061743 
z
" style="fill:#ba0c2f;fill-opacity:0.8;"/>
    <path clip-path="url(#p4e5cf2c4de)" d="M 275.852677 178.640274 
L 287.663541 169.985239 
L 293.828503 42.279736 
L 281.480557 50.103563 
z
" style="fill:#5d0618;fill-opacity:0.8;"/>
    <path clip-path="url(#p4e5cf2c4de)" d="M 252.899866 173.62341 
L 275.852677 178.640274 
L 281.480557 50.103563 
L 257.339398 45.567601 
z
" style="fill:#ba0c2f;fill-opacity:0.8;"/>
    <path clip-path="url(#p4e5cf2c4de)" d="M 257.339398 45.567601 
L 281.480557 50.103563 
L 293.828503 42.279736 
L 269.853873 37.832394 
z
" style="fill:#a30a29;fill-opacity:0.8;"/>
   </g>
   <g id="Poly3DCollection_15">
    <path clip-path="url(#p4e5cf2c4de)" d="M 189.549398 218.968482 
L 189.556367 218.266288 
L 213.292575 223.789893 
L 213.278853 224.494552 
z
" style="fill:#5d0618;fill-opacity:0.8;"/>
    <path clip-path="url(#p4e5cf2c4de)" d="M 176.121011 228.580268 
L 176.124236 227.873797 
L 189.556367 218.266288 
L 189.549398 218.968482 
z
" style="fill:#ba0c2f;fill-opacity:0.8;"/>
    <path clip-path="url(#p4e5cf2c4de)" d="M 176.121011 228.580268 
L 189.549398 218.968482 
L 213.278853 224.494552 
L 200.010754 234.217454 
z
" style="fill:#74081d;fill-opacity:0.8;"/>
    <path clip-path="url(#p4e5cf2c4de)" d="M 176.124236 227.873797 
L 200.020823 233.5085 
L 213.292575 223.789893 
L 189.556367 218.266288 
z
" style="fill:#a30a29;fill-opacity:0.8;"/>
    <path clip-path="url(#p4e5cf2c4de)" d="M 200.010754 234.217454 
L 213.278853 224.494552 
L 213.292575 223.789893 
L 200.020823 233.5085 
z
" style="fill:#5d0618;fill-opacity:0.8;"/>
    <path clip-path="url(#p4e5cf2c4de)" d="M 176.121011 228.580268 
L 200.010754 234.217454 
L 200.020823 233.5085 
L 176.124236 227.873797 
z
" style="fill:#ba0c2f;fill-opacity:0.8;"/>
   </g>
   <g id="Poly3DCollection_16">
    <path clip-path="url(#p4e5cf2c4de)" d="M 25.529281 197.41874 
L 203.750887 239.66925 
L 299.765838 168.718681 
L 130.041361 132.226735 
z
" style="fill-opacity:0.15;"/>
   </g>
   <g id="Poly3DCollection_17">
    <path clip-path="url(#p4e5cf2c4de)" d="M 38.367935 196.075119 
L 52.667587 187.09171 
L 74.848824 192.257234 
L 60.684188 201.341013 
z
" style="fill:#74081d;fill-opacity:0.8;"/>
    <path clip-path="url(#p4e5cf2c4de)" d="M 52.667587 187.09171 
L 47.051503 60.411287 
L 70.317752 65.099392 
L 74.848824 192.257234 
z
" style="fill:#5d0618;fill-opacity:0.8;"/>
    <path clip-path="url(#p4e5cf2c4de)" d="M 38.367935 196.075119 
L 31.971315 68.566088 
L 47.051503 60.411287 
L 52.667587 187.09171 
z
" style="fill:#ba0c2f;fill-opacity:0.8;"/>
    <path clip-path="url(#p4e5cf2c4de)" d="M 60.684188 201.341013 
L 74.848824 192.257234 
L 70.317752 65.099392 
L 55.385916 73.349933 
z
" style="fill:#5d0618;fill-opacity:0.8;"/>
    <path clip-path="url(#p4e5cf2c4de)" d="M 38.367935 196.075119 
L 60.684188 201.341013 
L 55.385916 73.349933 
L 31.971315 68.566088 
z
" style="fill:#ba0c2f;fill-opacity:0.8;"/>
    <path clip-path="url(#p4e5cf2c4de)" d="M 31.971315 68.566088 
L 55.385916 73.349933 
L 70.317752 65.099392 
L 47.051503 60.411287 
z
" style="fill:#a30a29;fill-opacity:0.8;"/>
   </g>
  </g>
  <g id="patch_6">
   <path d="M 425.945455 262.8 
L 806.4 262.8 
L 806.4 -14.4 
L 425.945455 -14.4 
z
" style="fill:#ffffff;"/>
  </g>
  <g id="pane3d_4">
   <g id="patch_7">
    <path d="M 476.380584 201.548569 
L 585.268665 133.58541 
L 583.455794 3.718968 
L 468.496488 64.782468 
" style="fill:#f2f2f2;opacity:0.5;stroke:#f2f2f2;stroke-linejoin:miter;"/>
   </g>
  </g>
  <g id="pane3d_5">
   <g id="patch_8">
    <path d="M 585.268665 133.58541 
L 761.65712 171.581202 
L 769.037001 37.79869 
L 583.455794 3.718968 
" style="fill:#e6e6e6;opacity:0.5;stroke:#e6e6e6;stroke-linejoin:miter;"/>
   </g>
  </g>
  <g id="pane3d_6">
   <g id="patch_9">
    <path d="M 476.380584 201.548569 
L 661.965072 245.80086 
L 761.65712 171.581202 
L 585.268665 133.58541 
" style="fill:#ececec;opacity:0.5;stroke:#ececec;stroke-linejoin:miter;"/>
   </g>
  </g>
  <g id="axis3d_4">
   <g id="line2d_15">
    <path d="M 476.380584 201.548569 
L 661.965072 245.80086 
" style="fill:none;stroke:#000000;stroke-linecap:square;stroke-width:0.8;"/>
   </g>
   <g id="Line3DCollection_4">
    <path d="M 498.841271 206.90428 
L 606.679397 138.19749 
L 605.9393 7.847789 
" style="fill:none;stroke:#b0b0b0;stroke-width:0.8;"/>
    <path d="M 544.057792 217.686079 
L 649.729469 147.470895 
L 651.182353 16.156123 
" style="fill:none;stroke:#b0b0b0;stroke-width:0.8;"/>
    <path d="M 590.310744 228.715013 
L 693.693551 156.941187 
L 697.435637 24.649974 
" style="fill:none;stroke:#b0b0b0;stroke-width:0.8;"/>
    <path d="M 637.636176 239.999678 
L 738.601063 166.614702 
L 744.733372 33.335625 
" style="fill:none;stroke:#b0b0b0;stroke-width:0.8;"/>
   </g>
   <g id="xtick_12">
    <g id="line2d_16">
     <path d="M 499.770538 206.312217 
L 496.979262 208.09062 
" style="fill:none;stroke:#000000;stroke-linecap:square;stroke-width:0.8;"/>
    </g>
    <g id="text_12">
     <!-- 00 -->
     <g transform="translate(475.786746 243.348593)rotate(-45)scale(0.2 -0.2)">
      <use transform="scale(0.996264)" xlink:href="#CMR17-48"/>
      <use transform="translate(45.690477 0)scale(0.996264)" xlink:href="#CMR17-48"/>
     </g>
    </g>
   </g>
   <g id="xtick_13">
    <g id="line2d_17">
     <path d="M 544.969128 217.080527 
L 542.231671 218.899473 
" style="fill:none;stroke:#000000;stroke-linecap:square;stroke-width:0.8;"/>
    </g>
    <g id="text_13">
     <!-- 01 -->
     <g transform="translate(520.999172 254.305345)rotate(-45)scale(0.2 -0.2)">
      <use transform="scale(0.996264)" xlink:href="#CMR17-48"/>
      <use transform="translate(45.690477 0)scale(0.996264)" xlink:href="#CMR17-49"/>
     </g>
    </g>
   </g>
   <g id="xtick_14">
    <g id="line2d_18">
     <path d="M 591.20308 228.095506 
L 588.522658 229.956397 
" style="fill:none;stroke:#000000;stroke-linecap:square;stroke-width:0.8;"/>
    </g>
    <g id="text_14">
     <!-- 10 -->
     <g transform="translate(567.249784 265.513691)rotate(-45)scale(0.2 -0.2)">
      <use transform="scale(0.996264)" xlink:href="#CMR17-49"/>
      <use transform="translate(45.690477 0)scale(0.996264)" xlink:href="#CMR17-48"/>
     </g>
    </g>
   </g>
   <g id="xtick_15">
    <g id="line2d_19">
     <path d="M 638.50838 239.365727 
L 635.888391 241.270032 
" style="fill:none;stroke:#000000;stroke-linecap:square;stroke-width:0.8;"/>
    </g>
    <g id="text_15">
     <!-- 11 -->
     <g transform="translate(614.574759 276.982396)rotate(-45)scale(0.2 -0.2)">
      <use transform="scale(0.996264)" xlink:href="#CMR17-49"/>
      <use transform="translate(45.690477 0)scale(0.996264)" xlink:href="#CMR17-49"/>
     </g>
    </g>
   </g>
  </g>
  <g id="axis3d_5">
   <g id="line2d_20">
    <path d="M 761.65712 171.581202 
L 661.965072 245.80086 
" style="fill:none;stroke:#000000;stroke-linecap:square;stroke-width:0.8;"/>
   </g>
   <g id="Line3DCollection_5">
    <path d="M 484.000685 56.547028 
L 491.016499 192.413474 
L 675.403872 235.795817 
" style="fill:none;stroke:#b0b0b0;stroke-width:0.8;"/>
    <path d="M 513.777478 40.730342 
L 519.168861 174.842005 
L 701.219492 216.576366 
" style="fill:none;stroke:#b0b0b0;stroke-width:0.8;"/>
    <path d="M 542.401344 25.526062 
L 546.284836 157.917404 
L 726.04244 198.095948 
" style="fill:none;stroke:#b0b0b0;stroke-width:0.8;"/>
    <path d="M 569.937971 10.899296 
L 572.420618 141.604597 
L 749.928893 180.312741 
" style="fill:none;stroke:#b0b0b0;stroke-width:0.8;"/>
   </g>
   <g id="xtick_16">
    <g id="line2d_21">
     <path d="M 673.861052 235.432825 
L 678.492943 236.522608 
" style="fill:none;stroke:#000000;stroke-linecap:square;stroke-width:0.8;"/>
    </g>
    <g id="text_16">
     <!-- 00 -->
     <g transform="translate(689.641116 248.844567)rotate(-337.5)scale(0.2 -0.2)">
      <use transform="scale(0.996264)" xlink:href="#CMR17-48"/>
      <use transform="translate(45.690477 0)scale(0.996264)" xlink:href="#CMR17-48"/>
     </g>
    </g>
   </g>
   <g id="xtick_17">
    <g id="line2d_22">
     <path d="M 699.697534 216.227463 
L 704.266725 217.274932 
" style="fill:none;stroke:#000000;stroke-linecap:square;stroke-width:0.8;"/>
    </g>
    <g id="text_17">
     <!-- 01 -->
     <g transform="translate(715.194668 229.400141)rotate(-337.5)scale(0.2 -0.2)">
      <use transform="scale(0.996264)" xlink:href="#CMR17-48"/>
      <use transform="translate(45.690477 0)scale(0.996264)" xlink:href="#CMR17-49"/>
     </g>
    </g>
   </g>
   <g id="xtick_18">
    <g id="line2d_23">
     <path d="M 724.540896 197.76033 
L 729.048738 198.767901 
" style="fill:none;stroke:#000000;stroke-linecap:square;stroke-width:0.8;"/>
    </g>
    <g id="text_18">
     <!-- 10 -->
     <g transform="translate(739.766079 210.703053)rotate(-337.5)scale(0.2 -0.2)">
      <use transform="scale(0.996264)" xlink:href="#CMR17-49"/>
      <use transform="translate(45.690477 0)scale(0.996264)" xlink:href="#CMR17-48"/>
     </g>
    </g>
   </g>
   <g id="xtick_19">
    <g id="line2d_24">
     <path d="M 748.44732 179.989663 
L 752.895146 180.959573 
" style="fill:none;stroke:#000000;stroke-linecap:square;stroke-width:0.8;"/>
    </g>
    <g id="text_19">
     <!-- 11 -->
     <g transform="translate(763.410906 192.711031)rotate(-337.5)scale(0.2 -0.2)">
      <use transform="scale(0.996264)" xlink:href="#CMR17-49"/>
      <use transform="translate(45.690477 0)scale(0.996264)" xlink:href="#CMR17-49"/>
     </g>
    </g>
   </g>
  </g>
  <g id="axis3d_6">
   <g id="line2d_25">
    <path d="M 761.65712 171.581202 
L 769.037001 37.79869 
" style="fill:none;stroke:#000000;stroke-linecap:square;stroke-width:0.8;"/>
   </g>
   <g id="Line3DCollection_6">
    <path d="M 761.870682 167.709752 
L 585.216092 129.819328 
L 476.152812 197.59739 
" style="fill:none;stroke:#b0b0b0;stroke-width:0.8;"/>
    <path d="M 764.572829 118.725208 
L 584.551476 82.208987 
L 473.268908 147.570048 
" style="fill:none;stroke:#b0b0b0;stroke-width:0.8;"/>
    <path d="M 767.380909 67.820327 
L 583.861927 32.812608 
L 470.268092 95.514638 
" style="fill:none;stroke:#b0b0b0;stroke-width:0.8;"/>
   </g>
   <g id="xtick_20">
    <g id="line2d_26">
     <path d="M 760.39672 167.393604 
L 764.821673 168.342707 
" style="fill:none;stroke:#000000;stroke-linecap:square;stroke-width:0.8;"/>
    </g>
    <g id="text_20">
     <!-- $0.0$ -->
     <g transform="translate(768.560129 179.607651)scale(0.2 -0.2)">
      <use transform="scale(0.996264)" xlink:href="#CMR17-48"/>
      <use transform="translate(45.690477 0)scale(0.996264)" xlink:href="#CMMI12-58"/>
      <use transform="translate(72.787654 0)scale(0.996264)" xlink:href="#CMR17-48"/>
     </g>
    </g>
   </g>
   <g id="xtick_21">
    <g id="line2d_27">
     <path d="M 763.069587 118.420284 
L 767.582503 119.335701 
" style="fill:none;stroke:#000000;stroke-linecap:square;stroke-width:0.8;"/>
    </g>
    <g id="text_21">
     <!-- $0.2$ -->
     <g transform="translate(771.612024 130.692018)scale(0.2 -0.2)">
      <use transform="scale(0.996264)" xlink:href="#CMR17-48"/>
      <use transform="translate(45.690477 0)scale(0.996264)" xlink:href="#CMMI12-58"/>
      <use transform="translate(72.787654 0)scale(0.996264)" xlink:href="#CMR17-50"/>
     </g>
    </g>
   </g>
   <g id="xtick_22">
    <g id="line2d_28">
     <path d="M 765.847201 67.52776 
L 770.451644 68.406095 
" style="fill:none;stroke:#000000;stroke-linecap:square;stroke-width:0.8;"/>
    </g>
    <g id="text_22">
     <!-- $0.4$ -->
     <g transform="translate(774.783297 79.862985)scale(0.2 -0.2)">
      <use transform="scale(0.996264)" xlink:href="#CMR17-48"/>
      <use transform="translate(45.690477 0)scale(0.996264)" xlink:href="#CMMI12-58"/>
      <use transform="translate(72.787654 0)scale(0.996264)" xlink:href="#CMR17-52"/>
     </g>
    </g>
   </g>
  </g>
  <g id="axes_2">
   <g id="Poly3DCollection_18">
    <path clip-path="url(#p52a8eb035d)" d="M 589.581247 136.179208 
L 589.579863 136.066658 
L 610.978466 140.684266 
L 610.978919 140.797203 
z
" style="fill:#065d4c;fill-opacity:0.8;"/>
    <path clip-path="url(#p52a8eb035d)" d="M 576.794001 144.208628 
L 576.792041 144.095406 
L 589.579863 136.066658 
L 589.581247 136.179208 
z
" style="fill:#0cba97;fill-opacity:0.8;"/>
    <path clip-path="url(#p52a8eb035d)" d="M 576.794001 144.208628 
L 589.581247 136.179208 
L 610.978919 140.797203 
L 598.320107 148.911426 
z
" style="fill:#08745e;fill-opacity:0.8;"/>
    <path clip-path="url(#p52a8eb035d)" d="M 576.792041 144.095406 
L 598.31909 148.797813 
L 610.978466 140.684266 
L 589.579863 136.066658 
z
" style="fill:#0aa384;fill-opacity:0.8;"/>
    <path clip-path="url(#p52a8eb035d)" d="M 598.320107 148.911426 
L 610.978919 140.797203 
L 610.978466 140.684266 
L 598.31909 148.797813 
z
" style="fill:#065d4c;fill-opacity:0.8;"/>
    <path clip-path="url(#p52a8eb035d)" d="M 576.794001 144.208628 
L 598.320107 148.911426 
L 598.31909 148.797813 
L 576.792041 144.095406 
z
" style="fill:#0cba97;fill-opacity:0.8;"/>
   </g>
   <g id="Poly3DCollection_19">
    <path clip-path="url(#p52a8eb035d)" d="M 632.602143 145.463877 
L 632.602667 145.344674 
L 654.456051 150.060388 
L 654.454506 150.180003 
z
" style="fill:#065d4c;fill-opacity:0.8;"/>
    <path clip-path="url(#p52a8eb035d)" d="M 620.075211 153.664254 
L 620.075153 153.544336 
L 632.602667 145.344674 
L 632.602143 145.463877 
z
" style="fill:#0cba97;fill-opacity:0.8;"/>
    <path clip-path="url(#p52a8eb035d)" d="M 620.075211 153.664254 
L 632.602143 145.463877 
L 654.454506 150.180003 
L 642.062986 158.467912 
z
" style="fill:#08745e;fill-opacity:0.8;"/>
    <path clip-path="url(#p52a8eb035d)" d="M 620.075153 153.544336 
L 642.063962 158.347579 
L 654.456051 150.060388 
L 632.602667 145.344674 
z
" style="fill:#0aa384;fill-opacity:0.8;"/>
    <path clip-path="url(#p52a8eb035d)" d="M 642.062986 158.467912 
L 654.454506 150.180003 
L 654.456051 150.060388 
L 642.063962 158.347579 
z
" style="fill:#065d4c;fill-opacity:0.8;"/>
    <path clip-path="url(#p52a8eb035d)" d="M 620.075211 153.664254 
L 642.062986 158.467912 
L 642.063962 158.347579 
L 620.075153 153.544336 
z
" style="fill:#0cba97;fill-opacity:0.8;"/>
   </g>
   <g id="Poly3DCollection_20">
    <path clip-path="url(#p52a8eb035d)" d="M 563.771475 152.385785 
L 563.772281 152.421689 
L 585.427641 157.211772 
L 585.427136 157.175744 
z
" style="fill:#0cba97;fill-opacity:0.8;"/>
    <path clip-path="url(#p52a8eb035d)" d="M 550.507116 160.714796 
L 550.508117 160.750915 
L 563.772281 152.421689 
L 563.771475 152.385785 
z
" style="fill:#065d4c;fill-opacity:0.8;"/>
    <path clip-path="url(#p52a8eb035d)" d="M 550.508117 160.750915 
L 572.294144 165.630605 
L 585.427641 157.211772 
L 563.772281 152.421689 
z
" style="fill:#0aa384;fill-opacity:0.8;"/>
    <path clip-path="url(#p52a8eb035d)" d="M 550.507116 160.714796 
L 563.771475 152.385785 
L 585.427136 157.175744 
L 572.293447 165.594361 
z
" style="fill:#08745e;fill-opacity:0.8;"/>
    <path clip-path="url(#p52a8eb035d)" d="M 572.293447 165.594361 
L 585.427136 157.175744 
L 585.427641 157.211772 
L 572.294144 165.630605 
z
" style="fill:#0cba97;fill-opacity:0.8;"/>
    <path clip-path="url(#p52a8eb035d)" d="M 550.507116 160.714796 
L 572.293447 165.594361 
L 572.294144 165.630605 
L 550.508117 160.750915 
z
" style="fill:#065d4c;fill-opacity:0.8;"/>
   </g>
   <g id="Poly3DCollection_21">
    <path clip-path="url(#p52a8eb035d)" d="M 676.539669 154.946371 
L 676.556345 154.173128 
L 698.884913 158.987866 
L 698.861371 159.763789 
z
" style="fill:#065d4c;fill-opacity:0.8;"/>
    <path clip-path="url(#p52a8eb035d)" d="M 664.287185 163.323222 
L 664.300281 162.54533 
L 676.556345 154.173128 
L 676.539669 154.946371 
z
" style="fill:#0cba97;fill-opacity:0.8;"/>
    <path clip-path="url(#p52a8eb035d)" d="M 664.287185 163.323222 
L 676.539669 154.946371 
L 698.861371 159.763789 
L 686.751641 168.231022 
z
" style="fill:#08745e;fill-opacity:0.8;"/>
    <path clip-path="url(#p52a8eb035d)" d="M 664.300281 162.54533 
L 686.771692 167.450427 
L 698.884913 158.987866 
L 676.556345 154.173128 
z
" style="fill:#0aa384;fill-opacity:0.8;"/>
    <path clip-path="url(#p52a8eb035d)" d="M 686.751641 168.231022 
L 698.861371 159.763789 
L 698.884913 158.987866 
L 686.771692 167.450427 
z
" style="fill:#065d4c;fill-opacity:0.8;"/>
    <path clip-path="url(#p52a8eb035d)" d="M 664.287185 163.323222 
L 686.751641 168.231022 
L 686.771692 167.450427 
L 664.300281 162.54533 
z
" style="fill:#0cba97;fill-opacity:0.8;"/>
   </g>
   <g id="Poly3DCollection_22">
    <path clip-path="url(#p52a8eb035d)" d="M 607.315315 162.017133 
L 607.315642 162.076921 
L 629.439585 166.97078 
L 629.439776 166.910785 
z
" style="fill:#0cba97;fill-opacity:0.8;"/>
    <path clip-path="url(#p52a8eb035d)" d="M 594.315894 170.52681 
L 594.316532 170.586958 
L 607.315642 162.076921 
L 607.315315 162.017133 
z
" style="fill:#065d4c;fill-opacity:0.8;"/>
    <path clip-path="url(#p52a8eb035d)" d="M 594.316532 170.586958 
L 616.578429 175.573364 
L 629.439585 166.97078 
L 607.315642 162.076921 
z
" style="fill:#0aa384;fill-opacity:0.8;"/>
    <path clip-path="url(#p52a8eb035d)" d="M 594.315894 170.52681 
L 607.315315 162.017133 
L 629.439776 166.910785 
L 616.578316 175.513007 
z
" style="fill:#08745e;fill-opacity:0.8;"/>
    <path clip-path="url(#p52a8eb035d)" d="M 616.578316 175.513007 
L 629.439776 166.910785 
L 629.439585 166.97078 
L 616.578429 175.573364 
z
" style="fill:#0cba97;fill-opacity:0.8;"/>
    <path clip-path="url(#p52a8eb035d)" d="M 594.315894 170.52681 
L 616.578316 175.513007 
L 616.578429 175.573364 
L 594.316532 170.586958 
z
" style="fill:#065d4c;fill-opacity:0.8;"/>
   </g>
   <g id="Poly3DCollection_23">
    <path clip-path="url(#p52a8eb035d)" d="M 721.423434 164.63308 
L 721.423434 164.63308 
L 744.229761 169.555088 
L 744.229761 169.555088 
z
" style="fill:#065d4c;fill-opacity:0.8;"/>
    <path clip-path="url(#p52a8eb035d)" d="M 709.460271 173.192165 
L 709.460271 173.192165 
L 721.423434 164.63308 
L 721.423434 164.63308 
z
" style="fill:#065d4c;fill-opacity:0.8;"/>
    <path clip-path="url(#p52a8eb035d)" d="M 709.460271 173.192165 
L 721.423434 164.63308 
L 744.229761 169.555088 
L 732.417079 178.207528 
z
" style="fill:#08745e;fill-opacity:0.8;"/>
    <path clip-path="url(#p52a8eb035d)" d="M 709.460271 173.192165 
L 732.417079 178.207528 
L 744.229761 169.555088 
L 721.423434 164.63308 
z
" style="fill:#0aa384;fill-opacity:0.8;"/>
    <path clip-path="url(#p52a8eb035d)" d="M 732.417079 178.207528 
L 744.229761 169.555088 
L 744.229761 169.555088 
L 732.417079 178.207528 
z
" style="fill:#065d4c;fill-opacity:0.8;"/>
    <path clip-path="url(#p52a8eb035d)" d="M 709.460271 173.192165 
L 732.417079 178.207528 
L 732.417079 178.207528 
L 709.460271 173.192165 
z
" style="fill:#065d4c;fill-opacity:0.8;"/>
   </g>
   <g id="Poly3DCollection_24">
    <path clip-path="url(#p52a8eb035d)" d="M 536.994124 169.199929 
L 537.038107 170.528244 
L 558.944962 175.504569 
L 558.912235 174.171639 
z
" style="fill:#0cba97;fill-opacity:0.8;"/>
    <path clip-path="url(#p52a8eb035d)" d="M 523.225443 177.845616 
L 523.277092 179.181938 
L 537.038107 170.528244 
L 536.994124 169.199929 
z
" style="fill:#065d4c;fill-opacity:0.8;"/>
    <path clip-path="url(#p52a8eb035d)" d="M 523.277092 179.181938 
L 545.316693 184.25308 
L 558.944962 175.504569 
L 537.038107 170.528244 
z
" style="fill:#0aa384;fill-opacity:0.8;"/>
    <path clip-path="url(#p52a8eb035d)" d="M 523.225443 177.845616 
L 536.994124 169.199929 
L 558.912235 174.171639 
L 545.276436 182.912105 
z
" style="fill:#08745e;fill-opacity:0.8;"/>
    <path clip-path="url(#p52a8eb035d)" d="M 545.276436 182.912105 
L 558.912235 174.171639 
L 558.944962 175.504569 
L 545.316693 184.25308 
z
" style="fill:#0cba97;fill-opacity:0.8;"/>
    <path clip-path="url(#p52a8eb035d)" d="M 523.225443 177.845616 
L 545.276436 182.912105 
L 545.316693 184.25308 
L 523.277092 179.181938 
z
" style="fill:#065d4c;fill-opacity:0.8;"/>
   </g>
   <g id="Poly3DCollection_25">
    <path clip-path="url(#p52a8eb035d)" d="M 651.804367 171.85755 
L 651.804367 171.85755 
L 674.413017 176.858298 
L 674.413017 176.858298 
z
" style="fill:#065d4c;fill-opacity:0.8;"/>
    <path clip-path="url(#p52a8eb035d)" d="M 639.084658 180.553836 
L 639.084658 180.553836 
L 651.804367 171.85755 
L 651.804367 171.85755 
z
" style="fill:#065d4c;fill-opacity:0.8;"/>
    <path clip-path="url(#p52a8eb035d)" d="M 639.084658 180.553836 
L 651.804367 171.85755 
L 674.413017 176.858298 
L 661.838951 185.650199 
z
" style="fill:#08745e;fill-opacity:0.8;"/>
    <path clip-path="url(#p52a8eb035d)" d="M 639.084658 180.553836 
L 661.838951 185.650199 
L 674.413017 176.858298 
L 651.804367 171.85755 
z
" style="fill:#0aa384;fill-opacity:0.8;"/>
    <path clip-path="url(#p52a8eb035d)" d="M 661.838951 185.650199 
L 674.413017 176.858298 
L 674.413017 176.858298 
L 661.838951 185.650199 
z
" style="fill:#065d4c;fill-opacity:0.8;"/>
    <path clip-path="url(#p52a8eb035d)" d="M 639.084658 180.553836 
L 661.838951 185.650199 
L 661.838951 185.650199 
L 639.084658 180.553836 
z
" style="fill:#065d4c;fill-opacity:0.8;"/>
   </g>
   <g id="Poly3DCollection_26">
    <path clip-path="url(#p52a8eb035d)" d="M 581.07014 179.197741 
L 581.07014 179.197741 
L 603.471798 184.279134 
L 603.471798 184.279134 
z
" style="fill:#065d4c;fill-opacity:0.8;"/>
    <path clip-path="url(#p52a8eb035d)" d="M 567.570985 188.034554 
L 567.570985 188.034554 
L 581.07014 179.197741 
L 581.07014 179.197741 
z
" style="fill:#065d4c;fill-opacity:0.8;"/>
    <path clip-path="url(#p52a8eb035d)" d="M 567.570985 188.034554 
L 581.07014 179.197741 
L 603.471798 184.279134 
L 590.113149 193.213895 
z
" style="fill:#08745e;fill-opacity:0.8;"/>
    <path clip-path="url(#p52a8eb035d)" d="M 567.570985 188.034554 
L 590.113149 193.213895 
L 603.471798 184.279134 
L 581.07014 179.197741 
z
" style="fill:#0aa384;fill-opacity:0.8;"/>
    <path clip-path="url(#p52a8eb035d)" d="M 590.113149 193.213895 
L 603.471798 184.279134 
L 603.471798 184.279134 
L 590.113149 193.213895 
z
" style="fill:#065d4c;fill-opacity:0.8;"/>
    <path clip-path="url(#p52a8eb035d)" d="M 567.570985 188.034554 
L 590.113149 193.213895 
L 590.113149 193.213895 
L 567.570985 188.034554 
z
" style="fill:#065d4c;fill-opacity:0.8;"/>
   </g>
   <g id="Poly3DCollection_27">
    <path clip-path="url(#p52a8eb035d)" d="M 697.269745 181.913918 
L 697.246137 182.701471 
L 720.347695 187.815616 
L 720.378656 187.025317 
z
" style="fill:#0cba97;fill-opacity:0.8;"/>
    <path clip-path="url(#p52a8eb035d)" d="M 684.845314 190.803019 
L 684.825377 191.595336 
L 697.246137 182.701471 
L 697.269745 181.913918 
z
" style="fill:#065d4c;fill-opacity:0.8;"/>
    <path clip-path="url(#p52a8eb035d)" d="M 684.825377 191.595336 
L 708.080572 196.808325 
L 720.347695 187.815616 
L 697.246137 182.701471 
z
" style="fill:#0aa384;fill-opacity:0.8;"/>
    <path clip-path="url(#p52a8eb035d)" d="M 684.845314 190.803019 
L 697.269745 181.913918 
L 720.378656 187.025317 
L 708.107959 196.01324 
z
" style="fill:#08745e;fill-opacity:0.8;"/>
    <path clip-path="url(#p52a8eb035d)" d="M 708.107959 196.01324 
L 720.378656 187.025317 
L 720.347695 187.815616 
L 708.080572 196.808325 
z
" style="fill:#0cba97;fill-opacity:0.8;"/>
    <path clip-path="url(#p52a8eb035d)" d="M 684.845314 190.803019 
L 708.107959 196.01324 
L 708.080572 196.808325 
L 684.825377 191.595336 
z
" style="fill:#065d4c;fill-opacity:0.8;"/>
   </g>
   <g id="Poly3DCollection_28">
    <path clip-path="url(#p52a8eb035d)" d="M 509.193745 186.656457 
L 509.193745 186.656457 
L 531.378715 191.820461 
L 531.378715 191.820461 
z
" style="fill:#065d4c;fill-opacity:0.8;"/>
    <path clip-path="url(#p52a8eb035d)" d="M 494.891422 195.63723 
L 494.891422 195.63723 
L 509.193745 186.656457 
L 509.193745 186.656457 
z
" style="fill:#065d4c;fill-opacity:0.8;"/>
    <path clip-path="url(#p52a8eb035d)" d="M 494.891422 195.63723 
L 517.211452 200.901593 
L 531.378715 191.820461 
L 509.193745 186.656457 
z
" style="fill:#0aa384;fill-opacity:0.8;"/>
    <path clip-path="url(#p52a8eb035d)" d="M 494.891422 195.63723 
L 509.193745 186.656457 
L 531.378715 191.820461 
L 517.211452 200.901593 
z
" style="fill:#08745e;fill-opacity:0.8;"/>
    <path clip-path="url(#p52a8eb035d)" d="M 517.211452 200.901593 
L 531.378715 191.820461 
L 531.378715 191.820461 
L 517.211452 200.901593 
z
" style="fill:#065d4c;fill-opacity:0.8;"/>
    <path clip-path="url(#p52a8eb035d)" d="M 494.891422 195.63723 
L 517.211452 200.901593 
L 517.211452 200.901593 
L 494.891422 195.63723 
z
" style="fill:#065d4c;fill-opacity:0.8;"/>
   </g>
   <g id="Poly3DCollection_29">
    <path clip-path="url(#p52a8eb035d)" d="M 626.121251 189.416735 
L 626.121367 189.355798 
L 649.023308 194.550332 
L 649.022636 194.611482 
z
" style="fill:#065d4c;fill-opacity:0.8;"/>
    <path clip-path="url(#p52a8eb035d)" d="M 612.907075 198.451082 
L 612.90687 198.389775 
L 626.121367 189.355798 
L 626.121251 189.416735 
z
" style="fill:#0cba97;fill-opacity:0.8;"/>
    <path clip-path="url(#p52a8eb035d)" d="M 612.907075 198.451082 
L 626.121251 189.416735 
L 649.022636 194.611482 
L 635.957005 203.747089 
z
" style="fill:#08745e;fill-opacity:0.8;"/>
    <path clip-path="url(#p52a8eb035d)" d="M 612.90687 198.389775 
L 635.957363 203.685568 
L 649.023308 194.550332 
L 626.121367 189.355798 
z
" style="fill:#0aa384;fill-opacity:0.8;"/>
    <path clip-path="url(#p52a8eb035d)" d="M 635.957005 203.747089 
L 649.022636 194.611482 
L 649.023308 194.550332 
L 635.957363 203.685568 
z
" style="fill:#065d4c;fill-opacity:0.8;"/>
    <path clip-path="url(#p52a8eb035d)" d="M 612.907075 198.451082 
L 635.957005 203.747089 
L 635.957363 203.685568 
L 612.90687 198.389775 
z
" style="fill:#0cba97;fill-opacity:0.8;"/>
   </g>
   <g id="Poly3DCollection_30">
    <path clip-path="url(#p52a8eb035d)" d="M 553.811087 197.042054 
L 553.774765 195.686799 
L 576.470773 200.962202 
L 576.495024 202.322203 
z
" style="fill:#065d4c;fill-opacity:0.8;"/>
    <path clip-path="url(#p52a8eb035d)" d="M 539.782818 206.225235 
L 539.73852 204.861746 
L 553.774765 195.686799 
L 553.811087 197.042054 
z
" style="fill:#0cba97;fill-opacity:0.8;"/>
    <path clip-path="url(#p52a8eb035d)" d="M 539.782818 206.225235 
L 553.811087 197.042054 
L 576.495024 202.322203 
L 562.60979 211.609164 
z
" style="fill:#08745e;fill-opacity:0.8;"/>
    <path clip-path="url(#p52a8eb035d)" d="M 539.73852 204.861746 
L 562.577713 210.240893 
L 576.470773 200.962202 
L 553.774765 195.686799 
z
" style="fill:#0aa384;fill-opacity:0.8;"/>
    <path clip-path="url(#p52a8eb035d)" d="M 562.60979 211.609164 
L 576.495024 202.322203 
L 576.470773 200.962202 
L 562.577713 210.240893 
z
" style="fill:#065d4c;fill-opacity:0.8;"/>
    <path clip-path="url(#p52a8eb035d)" d="M 539.782818 206.225235 
L 562.60979 211.609164 
L 562.577713 210.240893 
L 539.73852 204.861746 
z
" style="fill:#0cba97;fill-opacity:0.8;"/>
   </g>
   <g id="Poly3DCollection_31">
    <path clip-path="url(#p52a8eb035d)" d="M 672.180178 199.864333 
L 672.177675 199.988132 
L 695.594524 205.300502 
L 695.598199 205.176269 
z
" style="fill:#0cba97;fill-opacity:0.8;"/>
    <path clip-path="url(#p52a8eb035d)" d="M 659.267275 209.102912 
L 659.26539 209.227464 
L 672.177675 199.988132 
L 672.180178 199.864333 
z
" style="fill:#065d4c;fill-opacity:0.8;"/>
    <path clip-path="url(#p52a8eb035d)" d="M 659.26539 209.227464 
L 682.839248 214.644559 
L 695.594524 205.300502 
L 672.177675 199.988132 
z
" style="fill:#0aa384;fill-opacity:0.8;"/>
    <path clip-path="url(#p52a8eb035d)" d="M 659.267275 209.102912 
L 672.180178 199.864333 
L 695.598199 205.176269 
L 682.842323 214.519571 
z
" style="fill:#08745e;fill-opacity:0.8;"/>
    <path clip-path="url(#p52a8eb035d)" d="M 682.842323 214.519571 
L 695.598199 205.176269 
L 695.594524 205.300502 
L 682.839248 214.644559 
z
" style="fill:#0cba97;fill-opacity:0.8;"/>
    <path clip-path="url(#p52a8eb035d)" d="M 659.267275 209.102912 
L 682.842323 214.519571 
L 682.839248 214.644559 
L 659.26539 209.227464 
z
" style="fill:#065d4c;fill-opacity:0.8;"/>
   </g>
   <g id="Poly3DCollection_32">
    <path clip-path="url(#p52a8eb035d)" d="M 599.434782 207.6619 
L 599.434456 207.624605 
L 622.634731 213.024731 
L 622.634711 213.062157 
z
" style="fill:#065d4c;fill-opacity:0.8;"/>
    <path clip-path="url(#p52a8eb035d)" d="M 585.696733 217.05441 
L 585.696199 217.016889 
L 599.434456 207.624605 
L 599.434782 207.6619 
z
" style="fill:#0cba97;fill-opacity:0.8;"/>
    <path clip-path="url(#p52a8eb035d)" d="M 585.696733 217.05441 
L 599.434782 207.6619 
L 622.634711 213.062157 
L 609.048116 222.562026 
z
" style="fill:#08745e;fill-opacity:0.8;"/>
    <path clip-path="url(#p52a8eb035d)" d="M 585.696199 217.016889 
L 609.047931 222.524373 
L 622.634731 213.024731 
L 599.434456 207.624605 
z
" style="fill:#0aa384;fill-opacity:0.8;"/>
    <path clip-path="url(#p52a8eb035d)" d="M 609.048116 222.562026 
L 622.634711 213.062157 
L 622.634731 213.024731 
L 609.047931 222.524373 
z
" style="fill:#065d4c;fill-opacity:0.8;"/>
    <path clip-path="url(#p52a8eb035d)" d="M 585.696733 217.05441 
L 609.048116 222.562026 
L 609.047931 222.524373 
L 585.696199 217.016889 
z
" style="fill:#0cba97;fill-opacity:0.8;"/>
   </g>
   <g id="Poly3DCollection_33">
    <path clip-path="url(#p52a8eb035d)" d="M 646.099264 218.52401 
L 646.098081 218.643142 
L 669.830665 224.16807 
L 669.832993 224.04852 
z
" style="fill:#0cba97;fill-opacity:0.8;"/>
    <path clip-path="url(#p52a8eb035d)" d="M 632.668507 228.13309 
L 632.66796 228.252947 
L 646.098081 218.643142 
L 646.099264 218.52401 
z
" style="fill:#065d4c;fill-opacity:0.8;"/>
    <path clip-path="url(#p52a8eb035d)" d="M 632.66796 228.252947 
L 656.560874 233.888983 
L 669.830665 224.16807 
L 646.098081 218.643142 
z
" style="fill:#0aa384;fill-opacity:0.8;"/>
    <path clip-path="url(#p52a8eb035d)" d="M 632.668507 228.13309 
L 646.099264 218.52401 
L 669.832993 224.04852 
L 656.562582 233.768704 
z
" style="fill:#08745e;fill-opacity:0.8;"/>
    <path clip-path="url(#p52a8eb035d)" d="M 656.562582 233.768704 
L 669.832993 224.04852 
L 669.830665 224.16807 
L 656.560874 233.888983 
z
" style="fill:#0cba97;fill-opacity:0.8;"/>
    <path clip-path="url(#p52a8eb035d)" d="M 632.668507 228.13309 
L 656.562582 233.768704 
L 656.560874 233.888983 
L 632.66796 228.252947 
z
" style="fill:#065d4c;fill-opacity:0.8;"/>
   </g>
   <g id="Poly3DCollection_34">
    <path clip-path="url(#p52a8eb035d)" d="M 482.050503 196.98046 
L 660.30343 239.218992 
L 756.334071 168.288912 
L 586.58119 131.808228 
z
" style="fill-opacity:0.2;"/>
   </g>
  </g>
 </g>
 <defs>
  <clipPath id="p4e5cf2c4de">
   <rect height="277.2" width="380.454545" x="-30.6" y="-14.4"/>
  </clipPath>
  <clipPath id="p52a8eb035d">
   <rect height="277.2" width="380.454545" x="425.945455" y="-14.4"/>
  </clipPath>
 </defs>
</svg>
