<?xml version="1.0" encoding="utf-8" standalone="no"?>
<!DOCTYPE svg PUBLIC "-//W3C//DTD SVG 1.1//EN"
  "http://www.w3.org/Graphics/SVG/1.1/DTD/svg11.dtd">
<!-- Created with matplotlib (https://matplotlib.org/) -->
<svg height="302.4pt" version="1.1" viewBox="0 0 820.8 302.4" width="820.8pt" xmlns="http://www.w3.org/2000/svg" xmlns:xlink="http://www.w3.org/1999/xlink">
 <defs>
  <style type="text/css">
*{stroke-linecap:butt;stroke-linejoin:round;}
  </style>
 </defs>
 <g id="figure_1">
  <g id="patch_1">
   <path d="M 0 302.4 
L 820.8 302.4 
L 820.8 0 
L 0 0 
z
" style="fill:#ffffff;"/>
  </g>
  <g id="patch_2">
   <path d="M -30.6 262.8 
L 349.854545 262.8 
L 349.854545 -14.4 
L -30.6 -14.4 
z
" style="fill:#ffffff;"/>
  </g>
  <g id="pane3d_1">
   <g id="patch_3">
    <path d="M 19.835129 201.548569 
L 128.723211 133.58541 
L 126.910339 3.718968 
L 11.951034 64.782468 
" style="fill:#f2f2f2;opacity:0.5;stroke:#f2f2f2;stroke-linejoin:miter;"/>
   </g>
  </g>
  <g id="pane3d_2">
   <g id="patch_4">
    <path d="M 128.723211 133.58541 
L 305.111665 171.581202 
L 312.491547 37.79869 
L 126.910339 3.718968 
" style="fill:#e6e6e6;opacity:0.5;stroke:#e6e6e6;stroke-linejoin:miter;"/>
   </g>
  </g>
  <g id="pane3d_3">
   <g id="patch_5">
    <path d="M 19.835129 201.548569 
L 205.419617 245.80086 
L 305.111665 171.581202 
L 128.723211 133.58541 
" style="fill:#ececec;opacity:0.5;stroke:#ececec;stroke-linejoin:miter;"/>
   </g>
  </g>
  <g id="axis3d_1">
   <g id="line2d_1">
    <path d="M 19.835129 201.548569 
L 205.419617 245.80086 
" style="fill:none;stroke:#000000;stroke-linecap:square;stroke-width:0.8;"/>
   </g>
   <g id="Line3DCollection_1">
    <path d="M 42.295817 206.90428 
L 150.133942 138.19749 
L 149.393845 7.847789 
" style="fill:none;stroke:#b0b0b0;stroke-width:0.8;"/>
    <path d="M 87.512337 217.686079 
L 193.184014 147.470895 
L 194.636898 16.156123 
" style="fill:none;stroke:#b0b0b0;stroke-width:0.8;"/>
    <path d="M 133.765289 228.715013 
L 237.148096 156.941187 
L 240.890183 24.649974 
" style="fill:none;stroke:#b0b0b0;stroke-width:0.8;"/>
    <path d="M 181.090721 239.999678 
L 282.055608 166.614702 
L 288.187917 33.335625 
" style="fill:none;stroke:#b0b0b0;stroke-width:0.8;"/>
   </g>
   <g id="xtick_1">
    <g id="line2d_2">
     <path d="M 43.225084 206.312217 
L 40.433807 208.09062 
" style="fill:none;stroke:#000000;stroke-linecap:square;stroke-width:0.8;"/>
    </g>
    <g id="text_1">
     <!-- 00 -->
     <defs>
      <path d="M 42 31.84375 
C 42 37.96875 41.90625 48.421875 37.703125 56.453125 
C 34 63.484375 28.09375 66 22.90625 66 
C 18.09375 66 12 63.78125 8.203125 56.5625 
C 4.203125 49.015625 3.796875 39.671875 3.796875 31.84375 
C 3.796875 26.109375 3.90625 17.375 7 9.734375 
C 11.296875 -0.609375 19 -2 22.90625 -2 
C 27.5 -2 34.5 -0.109375 38.59375 9.4375 
C 41.59375 16.375 42 24.5 42 31.84375 
z
M 22.90625 -0.40625 
C 16.5 -0.40625 12.703125 5.125 11.296875 12.75 
C 10.203125 18.6875 10.203125 27.328125 10.203125 32.953125 
C 10.203125 40.6875 10.203125 47.109375 11.5 53.234375 
C 13.40625 61.78125 19 64.390625 22.90625 64.390625 
C 27 64.390625 32.296875 61.671875 34.203125 53.4375 
C 35.5 47.71875 35.59375 40.984375 35.59375 32.953125 
C 35.59375 26.421875 35.59375 18.375 34.40625 12.453125 
C 32.296875 1.5 26.40625 -0.40625 22.90625 -0.40625 
z
" id="CMR17-48"/>
     </defs>
     <g transform="translate(19.241292 243.348593)rotate(-45)scale(0.2 -0.2)">
      <use transform="scale(0.996264)" xlink:href="#CMR17-48"/>
      <use transform="translate(45.690477 0)scale(0.996264)" xlink:href="#CMR17-48"/>
     </g>
    </g>
   </g>
   <g id="xtick_2">
    <g id="line2d_3">
     <path d="M 88.423674 217.080527 
L 85.686217 218.899473 
" style="fill:none;stroke:#000000;stroke-linecap:square;stroke-width:0.8;"/>
    </g>
    <g id="text_2">
     <!-- 01 -->
     <defs>
      <path d="M 26.59375 63.796875 
C 26.59375 65.890625 26.5 66 25.09375 66 
C 21.203125 61.359375 15.296875 59.890625 9.703125 59.6875 
C 9.40625 59.6875 8.90625 59.6875 8.796875 59.5 
C 8.703125 59.296875 8.703125 59.09375 8.703125 57 
C 11.796875 57 17 57.59375 21 59.984375 
L 21 7.296875 
C 21 3.796875 20.796875 2.59375 12.203125 2.59375 
L 9.203125 2.59375 
L 9.203125 0 
C 14 0.09375 19 0.1875 23.796875 0.1875 
C 28.59375 0.1875 33.59375 0.09375 38.40625 0 
L 38.40625 2.59375 
L 35.40625 2.59375 
C 26.796875 2.59375 26.59375 3.6875 26.59375 7.296875 
z
" id="CMR17-49"/>
     </defs>
     <g transform="translate(64.453717 254.305345)rotate(-45)scale(0.2 -0.2)">
      <use transform="scale(0.996264)" xlink:href="#CMR17-48"/>
      <use transform="translate(45.690477 0)scale(0.996264)" xlink:href="#CMR17-49"/>
     </g>
    </g>
   </g>
   <g id="xtick_3">
    <g id="line2d_4">
     <path d="M 134.657625 228.095506 
L 131.977203 229.956397 
" style="fill:none;stroke:#000000;stroke-linecap:square;stroke-width:0.8;"/>
    </g>
    <g id="text_3">
     <!-- 10 -->
     <g transform="translate(110.70433 265.513691)rotate(-45)scale(0.2 -0.2)">
      <use transform="scale(0.996264)" xlink:href="#CMR17-49"/>
      <use transform="translate(45.690477 0)scale(0.996264)" xlink:href="#CMR17-48"/>
     </g>
    </g>
   </g>
   <g id="xtick_4">
    <g id="line2d_5">
     <path d="M 181.962926 239.365727 
L 179.342936 241.270032 
" style="fill:none;stroke:#000000;stroke-linecap:square;stroke-width:0.8;"/>
    </g>
    <g id="text_4">
     <!-- 11 -->
     <g transform="translate(158.029305 276.982396)rotate(-45)scale(0.2 -0.2)">
      <use transform="scale(0.996264)" xlink:href="#CMR17-49"/>
      <use transform="translate(45.690477 0)scale(0.996264)" xlink:href="#CMR17-49"/>
     </g>
    </g>
   </g>
  </g>
  <g id="axis3d_2">
   <g id="line2d_6">
    <path d="M 305.111665 171.581202 
L 205.419617 245.80086 
" style="fill:none;stroke:#000000;stroke-linecap:square;stroke-width:0.8;"/>
   </g>
   <g id="Line3DCollection_2">
    <path d="M 27.455231 56.547028 
L 34.471044 192.413474 
L 218.858418 235.795817 
" style="fill:none;stroke:#b0b0b0;stroke-width:0.8;"/>
    <path d="M 57.232024 40.730342 
L 62.623407 174.842005 
L 244.674037 216.576366 
" style="fill:none;stroke:#b0b0b0;stroke-width:0.8;"/>
    <path d="M 85.85589 25.526062 
L 89.739382 157.917404 
L 269.496985 198.095948 
" style="fill:none;stroke:#b0b0b0;stroke-width:0.8;"/>
    <path d="M 113.392516 10.899296 
L 115.875164 141.604597 
L 293.383438 180.312741 
" style="fill:none;stroke:#b0b0b0;stroke-width:0.8;"/>
   </g>
   <g id="xtick_5">
    <g id="line2d_7">
     <path d="M 217.315598 235.432825 
L 221.947489 236.522608 
" style="fill:none;stroke:#000000;stroke-linecap:square;stroke-width:0.8;"/>
    </g>
    <g id="text_5">
     <!-- 00 -->
     <g transform="translate(233.095662 248.844567)rotate(-337.5)scale(0.2 -0.2)">
      <use transform="scale(0.996264)" xlink:href="#CMR17-48"/>
      <use transform="translate(45.690477 0)scale(0.996264)" xlink:href="#CMR17-48"/>
     </g>
    </g>
   </g>
   <g id="xtick_6">
    <g id="line2d_8">
     <path d="M 243.15208 216.227463 
L 247.72127 217.274932 
" style="fill:none;stroke:#000000;stroke-linecap:square;stroke-width:0.8;"/>
    </g>
    <g id="text_6">
     <!-- 01 -->
     <g transform="translate(258.649213 229.400141)rotate(-337.5)scale(0.2 -0.2)">
      <use transform="scale(0.996264)" xlink:href="#CMR17-48"/>
      <use transform="translate(45.690477 0)scale(0.996264)" xlink:href="#CMR17-49"/>
     </g>
    </g>
   </g>
   <g id="xtick_7">
    <g id="line2d_9">
     <path d="M 267.995442 197.76033 
L 272.503283 198.767901 
" style="fill:none;stroke:#000000;stroke-linecap:square;stroke-width:0.8;"/>
    </g>
    <g id="text_7">
     <!-- 10 -->
     <g transform="translate(283.220625 210.703053)rotate(-337.5)scale(0.2 -0.2)">
      <use transform="scale(0.996264)" xlink:href="#CMR17-49"/>
      <use transform="translate(45.690477 0)scale(0.996264)" xlink:href="#CMR17-48"/>
     </g>
    </g>
   </g>
   <g id="xtick_8">
    <g id="line2d_10">
     <path d="M 291.901865 179.989663 
L 296.349691 180.959573 
" style="fill:none;stroke:#000000;stroke-linecap:square;stroke-width:0.8;"/>
    </g>
    <g id="text_8">
     <!-- 11 -->
     <g transform="translate(306.865451 192.711031)rotate(-337.5)scale(0.2 -0.2)">
      <use transform="scale(0.996264)" xlink:href="#CMR17-49"/>
      <use transform="translate(45.690477 0)scale(0.996264)" xlink:href="#CMR17-49"/>
     </g>
    </g>
   </g>
  </g>
  <g id="axis3d_3">
   <g id="line2d_11">
    <path d="M 305.111665 171.581202 
L 312.491547 37.79869 
" style="fill:none;stroke:#000000;stroke-linecap:square;stroke-width:0.8;"/>
   </g>
   <g id="Line3DCollection_3">
    <path d="M 305.303742 168.099225 
L 128.675926 130.198179 
L 19.630272 197.994901 
" style="fill:none;stroke:#b0b0b0;stroke-width:0.8;"/>
    <path d="M 308.026091 118.748488 
L 128.006337 82.231596 
L 16.724824 147.593839 
" style="fill:none;stroke:#b0b0b0;stroke-width:0.8;"/>
    <path d="M 310.855993 67.448006 
L 127.311433 32.451621 
L 13.700675 95.13365 
" style="fill:none;stroke:#b0b0b0;stroke-width:0.8;"/>
   </g>
   <g id="xtick_9">
    <g id="line2d_12">
     <path d="M 303.830013 167.78299 
L 308.254268 168.732353 
" style="fill:none;stroke:#000000;stroke-linecap:square;stroke-width:0.8;"/>
    </g>
    <g id="text_9">
     <!-- $0.0$ -->
     <defs>
      <path d="M 18.40625 4.796875 
C 18.40625 7.6875 16 9.6875 13.59375 9.6875 
C 10.703125 9.6875 8.703125 7.296875 8.703125 4.890625 
C 8.703125 2 11.09375 0 13.5 0 
C 16.40625 0 18.40625 2.390625 18.40625 4.796875 
z
" id="CMMI12-58"/>
     </defs>
     <g transform="translate(311.990408 179.996592)scale(0.2 -0.2)">
      <use transform="scale(0.996264)" xlink:href="#CMR17-48"/>
      <use transform="translate(45.690477 0)scale(0.996264)" xlink:href="#CMMI12-58"/>
      <use transform="translate(72.787654 0)scale(0.996264)" xlink:href="#CMR17-48"/>
     </g>
    </g>
   </g>
   <g id="xtick_10">
    <g id="line2d_13">
     <path d="M 306.522862 118.443559 
L 311.035737 119.358993 
" style="fill:none;stroke:#000000;stroke-linecap:square;stroke-width:0.8;"/>
    </g>
    <g id="text_10">
     <!-- $0.2$ -->
     <defs>
      <path d="M 41.703125 15.46875 
L 39.90625 15.46875 
C 38.90625 8.390625 38.09375 7.1875 37.703125 6.59375 
C 37.203125 5.796875 30 5.796875 28.59375 5.796875 
L 9.40625 5.796875 
C 13 9.6875 20 16.765625 28.5 24.9375 
C 34.59375 30.71875 41.703125 37.5 41.703125 47.390625 
C 41.703125 59.1875 32.296875 66 21.796875 66 
C 10.796875 66 4.09375 56.296875 4.09375 47.296875 
C 4.09375 43.390625 7 42.890625 8.203125 42.890625 
C 9.203125 42.890625 12.203125 43.484375 12.203125 46.984375 
C 12.203125 50.09375 9.59375 51 8.203125 51 
C 7.59375 51 7 50.890625 6.59375 50.6875 
C 8.5 59.1875 14.296875 63.390625 20.40625 63.390625 
C 29.09375 63.390625 34.796875 56.5 34.796875 47.390625 
C 34.796875 38.703125 29.703125 31.21875 24 24.734375 
L 4.09375 2.296875 
L 4.09375 0 
L 39.296875 0 
z
" id="CMR17-50"/>
     </defs>
     <g transform="translate(315.065119 130.715264)scale(0.2 -0.2)">
      <use transform="scale(0.996264)" xlink:href="#CMR17-48"/>
      <use transform="translate(45.690477 0)scale(0.996264)" xlink:href="#CMMI12-58"/>
      <use transform="translate(72.787654 0)scale(0.996264)" xlink:href="#CMR17-50"/>
     </g>
    </g>
   </g>
   <g id="xtick_11">
    <g id="line2d_14">
     <path d="M 309.322062 67.155532 
L 313.927175 68.033588 
" style="fill:none;stroke:#000000;stroke-linecap:square;stroke-width:0.8;"/>
    </g>
    <g id="text_11">
     <!-- $0.4$ -->
     <defs>
      <path d="M 33.59375 64.796875 
C 33.59375 66.890625 33.5 67 31.703125 67 
L 2 19.59375 
L 2 17 
L 27.796875 17 
L 27.796875 7.1875 
C 27.796875 3.59375 27.59375 2.59375 20.59375 2.59375 
L 18.703125 2.59375 
L 18.703125 0 
C 21.90625 0.1875 27.296875 0.1875 30.703125 0.1875 
C 34.09375 0.1875 39.5 0.1875 42.703125 0 
L 42.703125 2.59375 
L 40.796875 2.59375 
C 33.796875 2.59375 33.59375 3.59375 33.59375 7.1875 
L 33.59375 17 
L 43.796875 17 
L 43.796875 19.59375 
L 33.59375 19.59375 
z
M 28.09375 58.171875 
L 28.09375 19.59375 
L 4 19.59375 
z
" id="CMR17-52"/>
     </defs>
     <g transform="translate(318.261036 79.491235)scale(0.2 -0.2)">
      <use transform="scale(0.996264)" xlink:href="#CMR17-48"/>
      <use transform="translate(45.690477 0)scale(0.996264)" xlink:href="#CMMI12-58"/>
      <use transform="translate(72.787654 0)scale(0.996264)" xlink:href="#CMR17-52"/>
     </g>
    </g>
   </g>
  </g>
  <g id="axes_1">
   <g id="Poly3DCollection_1">
    <path clip-path="url(#pdd272e396c)" d="M 133.040476 136.559875 
L 133.028788 135.609814 
L 154.431171 140.225848 
L 154.434997 141.179181 
z
" style="fill:#5d0618;fill-opacity:0.8;"/>
    <path clip-path="url(#pdd272e396c)" d="M 120.255176 144.591569 
L 120.23863 143.635831 
L 133.028788 135.609814 
L 133.040476 136.559875 
z
" style="fill:#ba0c2f;fill-opacity:0.8;"/>
    <path clip-path="url(#pdd272e396c)" d="M 120.255176 144.591569 
L 133.040476 136.559875 
L 154.434997 141.179181 
L 141.778095 149.295689 
z
" style="fill:#74081d;fill-opacity:0.8;"/>
    <path clip-path="url(#pdd272e396c)" d="M 120.23863 143.635831 
L 141.769504 148.336651 
L 154.431171 140.225848 
L 133.028788 135.609814 
z
" style="fill:#a30a29;fill-opacity:0.8;"/>
    <path clip-path="url(#pdd272e396c)" d="M 141.778095 149.295689 
L 154.434997 141.179181 
L 154.431171 140.225848 
L 141.769504 148.336651 
z
" style="fill:#5d0618;fill-opacity:0.8;"/>
    <path clip-path="url(#pdd272e396c)" d="M 120.255176 144.591569 
L 141.778095 149.295689 
L 141.769504 148.336651 
L 120.23863 143.635831 
z
" style="fill:#ba0c2f;fill-opacity:0.8;"/>
   </g>
   <g id="Poly3DCollection_2">
    <path clip-path="url(#pdd272e396c)" d="M 176.055006 145.847172 
L 176.062218 144.204814 
L 197.925372 148.916588 
L 197.904083 150.564621 
z
" style="fill:#5d0618;fill-opacity:0.8;"/>
    <path clip-path="url(#pdd272e396c)" d="M 163.529943 154.049845 
L 163.529144 152.397639 
L 176.062218 144.204814 
L 176.055006 145.847172 
z
" style="fill:#ba0c2f;fill-opacity:0.8;"/>
    <path clip-path="url(#pdd272e396c)" d="M 163.529943 154.049845 
L 176.055006 145.847172 
L 197.904083 150.564621 
L 185.514392 158.854839 
z
" style="fill:#74081d;fill-opacity:0.8;"/>
    <path clip-path="url(#pdd272e396c)" d="M 163.529144 152.397639 
L 185.527844 157.196909 
L 197.925372 148.916588 
L 176.062218 144.204814 
z
" style="fill:#a30a29;fill-opacity:0.8;"/>
    <path clip-path="url(#pdd272e396c)" d="M 185.514392 158.854839 
L 197.904083 150.564621 
L 197.925372 148.916588 
L 185.527844 157.196909 
z
" style="fill:#5d0618;fill-opacity:0.8;"/>
    <path clip-path="url(#pdd272e396c)" d="M 163.529943 154.049845 
L 185.514392 158.854839 
L 185.527844 157.196909 
L 163.529144 152.397639 
z
" style="fill:#ba0c2f;fill-opacity:0.8;"/>
   </g>
   <g id="Poly3DCollection_3">
    <path clip-path="url(#pdd272e396c)" d="M 107.234669 152.77102 
L 107.239327 152.97855 
L 128.890025 157.77056 
L 128.887104 157.562312 
z
" style="fill:#ba0c2f;fill-opacity:0.8;"/>
    <path clip-path="url(#pdd272e396c)" d="M 93.972402 161.102344 
L 93.978188 161.311119 
L 107.239327 152.97855 
L 107.234669 152.77102 
z
" style="fill:#5d0618;fill-opacity:0.8;"/>
    <path clip-path="url(#pdd272e396c)" d="M 93.978188 161.311119 
L 115.759495 166.192752 
L 128.890025 157.77056 
L 107.239327 152.97855 
z
" style="fill:#a30a29;fill-opacity:0.8;"/>
    <path clip-path="url(#pdd272e396c)" d="M 93.972402 161.102344 
L 107.234669 152.77102 
L 128.887104 157.562312 
L 115.755468 165.983253 
z
" style="fill:#74081d;fill-opacity:0.8;"/>
    <path clip-path="url(#pdd272e396c)" d="M 115.755468 165.983253 
L 128.887104 157.562312 
L 128.890025 157.77056 
L 115.759495 166.192752 
z
" style="fill:#ba0c2f;fill-opacity:0.8;"/>
    <path clip-path="url(#pdd272e396c)" d="M 93.972402 161.102344 
L 115.755468 165.983253 
L 115.759495 166.192752 
L 93.978188 161.311119 
z
" style="fill:#5d0618;fill-opacity:0.8;"/>
   </g>
   <g id="Poly3DCollection_4">
    <path clip-path="url(#pdd272e396c)" d="M 219.985891 155.332319 
L 219.965857 156.261297 
L 242.275884 161.083265 
L 242.304167 160.151074 
z
" style="fill:#ba0c2f;fill-opacity:0.8;"/>
    <path clip-path="url(#pdd272e396c)" d="M 207.735193 163.71149 
L 207.719458 164.646045 
L 219.965857 156.261297 
L 219.985891 155.332319 
z
" style="fill:#5d0618;fill-opacity:0.8;"/>
    <path clip-path="url(#pdd272e396c)" d="M 207.719458 164.646045 
L 230.172089 169.558433 
L 242.275884 161.083265 
L 219.965857 156.261297 
z
" style="fill:#a30a29;fill-opacity:0.8;"/>
    <path clip-path="url(#pdd272e396c)" d="M 207.735193 163.71149 
L 219.985891 155.332319 
L 242.304167 160.151074 
L 230.196178 168.620637 
z
" style="fill:#74081d;fill-opacity:0.8;"/>
    <path clip-path="url(#pdd272e396c)" d="M 230.196178 168.620637 
L 242.304167 160.151074 
L 242.275884 161.083265 
L 230.172089 169.558433 
z
" style="fill:#ba0c2f;fill-opacity:0.8;"/>
    <path clip-path="url(#pdd272e396c)" d="M 207.735193 163.71149 
L 230.196178 168.620637 
L 230.172089 169.558433 
L 207.719458 164.646045 
z
" style="fill:#5d0618;fill-opacity:0.8;"/>
   </g>
   <g id="Poly3DCollection_5">
    <path clip-path="url(#pdd272e396c)" d="M 150.771986 162.405041 
L 150.774665 162.893576 
L 172.891517 167.790268 
L 172.89308 167.300038 
z
" style="fill:#ba0c2f;fill-opacity:0.8;"/>
    <path clip-path="url(#pdd272e396c)" d="M 137.774579 170.917053 
L 137.779792 171.408528 
L 150.774665 162.893576 
L 150.771986 162.405041 
z
" style="fill:#5d0618;fill-opacity:0.8;"/>
    <path clip-path="url(#pdd272e396c)" d="M 137.779792 171.408528 
L 160.034511 176.39779 
L 172.891517 167.790268 
L 150.774665 162.893576 
z
" style="fill:#a30a29;fill-opacity:0.8;"/>
    <path clip-path="url(#pdd272e396c)" d="M 137.774579 170.917053 
L 150.771986 162.405041 
L 172.89308 167.300038 
L 160.033592 175.904607 
z
" style="fill:#74081d;fill-opacity:0.8;"/>
    <path clip-path="url(#pdd272e396c)" d="M 160.033592 175.904607 
L 172.89308 167.300038 
L 172.891517 167.790268 
L 160.034511 176.39779 
z
" style="fill:#ba0c2f;fill-opacity:0.8;"/>
    <path clip-path="url(#pdd272e396c)" d="M 137.774579 170.917053 
L 160.033592 175.904607 
L 160.034511 176.39779 
L 137.779792 171.408528 
z
" style="fill:#5d0618;fill-opacity:0.8;"/>
   </g>
   <g id="Poly3DCollection_6">
    <path clip-path="url(#pdd272e396c)" d="M 80.46158 169.58981 
L 80.463349 169.64325 
L 102.377703 174.616501 
L 102.376386 174.562875 
z
" style="fill:#ba0c2f;fill-opacity:0.8;"/>
    <path clip-path="url(#pdd272e396c)" d="M 66.695148 178.237848 
L 66.697226 178.291611 
L 80.463349 169.64325 
L 80.46158 169.58981 
z
" style="fill:#5d0618;fill-opacity:0.8;"/>
    <path clip-path="url(#pdd272e396c)" d="M 66.697226 178.291611 
L 88.744417 183.359653 
L 102.377703 174.616501 
L 80.463349 169.64325 
z
" style="fill:#a30a29;fill-opacity:0.8;"/>
    <path clip-path="url(#pdd272e396c)" d="M 66.695148 178.237848 
L 80.46158 169.58981 
L 102.376386 174.562875 
L 88.742798 183.305704 
z
" style="fill:#74081d;fill-opacity:0.8;"/>
    <path clip-path="url(#pdd272e396c)" d="M 88.742798 183.305704 
L 102.376386 174.562875 
L 102.377703 174.616501 
L 88.744417 183.359653 
z
" style="fill:#ba0c2f;fill-opacity:0.8;"/>
    <path clip-path="url(#pdd272e396c)" d="M 66.695148 178.237848 
L 88.742798 183.305704 
L 88.744417 183.359653 
L 66.697226 178.291611 
z
" style="fill:#5d0618;fill-opacity:0.8;"/>
   </g>
   <g id="Poly3DCollection_7">
    <path clip-path="url(#pdd272e396c)" d="M 195.25423 172.248156 
L 195.263253 171.495386 
L 217.875164 176.494873 
L 217.859365 177.250263 
z
" style="fill:#5d0618;fill-opacity:0.8;"/>
    <path clip-path="url(#pdd272e396c)" d="M 182.536449 180.9468 
L 182.541758 180.189485 
L 195.263253 171.495386 
L 195.25423 172.248156 
z
" style="fill:#ba0c2f;fill-opacity:0.8;"/>
    <path clip-path="url(#pdd272e396c)" d="M 182.536449 180.9468 
L 195.25423 172.248156 
L 217.859365 177.250263 
L 205.28718 186.044533 
z
" style="fill:#74081d;fill-opacity:0.8;"/>
    <path clip-path="url(#pdd272e396c)" d="M 182.541758 180.189485 
L 205.299352 185.284577 
L 217.875164 176.494873 
L 195.263253 171.495386 
z
" style="fill:#a30a29;fill-opacity:0.8;"/>
    <path clip-path="url(#pdd272e396c)" d="M 205.28718 186.044533 
L 217.859365 177.250263 
L 217.875164 176.494873 
L 205.299352 185.284577 
z
" style="fill:#5d0618;fill-opacity:0.8;"/>
    <path clip-path="url(#pdd272e396c)" d="M 182.536449 180.9468 
L 205.28718 186.044533 
L 205.299352 185.284577 
L 182.541758 180.189485 
z
" style="fill:#ba0c2f;fill-opacity:0.8;"/>
   </g>
   <g id="Poly3DCollection_8">
    <path clip-path="url(#pdd272e396c)" d="M 124.530915 179.590339 
L 124.518772 178.825008 
L 146.923707 183.905102 
L 146.92912 184.6731 
z
" style="fill:#5d0618;fill-opacity:0.8;"/>
    <path clip-path="url(#pdd272e396c)" d="M 111.033929 188.429525 
L 111.017558 187.659566 
L 124.518772 178.825008 
L 124.530915 179.590339 
z
" style="fill:#ba0c2f;fill-opacity:0.8;"/>
    <path clip-path="url(#pdd272e396c)" d="M 111.033929 188.429525 
L 124.530915 179.590339 
L 146.92912 184.6731 
L 133.572597 193.610246 
z
" style="fill:#74081d;fill-opacity:0.8;"/>
    <path clip-path="url(#pdd272e396c)" d="M 111.017558 187.659566 
L 133.56304 192.837597 
L 146.923707 183.905102 
L 124.518772 178.825008 
z
" style="fill:#a30a29;fill-opacity:0.8;"/>
    <path clip-path="url(#pdd272e396c)" d="M 133.572597 193.610246 
L 146.92912 184.6731 
L 146.923707 183.905102 
L 133.56304 192.837597 
z
" style="fill:#5d0618;fill-opacity:0.8;"/>
    <path clip-path="url(#pdd272e396c)" d="M 111.033929 188.429525 
L 133.572597 193.610246 
L 133.56304 192.837597 
L 111.017558 187.659566 
z
" style="fill:#ba0c2f;fill-opacity:0.8;"/>
   </g>
   <g id="Poly3DCollection_9">
    <path clip-path="url(#pdd272e396c)" d="M 240.7125 182.307248 
L 240.68412 183.253979 
L 263.78052 188.370049 
L 263.817739 187.420019 
z
" style="fill:#ba0c2f;fill-opacity:0.8;"/>
    <path clip-path="url(#pdd272e396c)" d="M 228.289902 191.198729 
L 228.265937 192.151184 
L 240.68412 183.253979 
L 240.7125 182.307248 
z
" style="fill:#5d0618;fill-opacity:0.8;"/>
    <path clip-path="url(#pdd272e396c)" d="M 228.265937 192.151184 
L 251.515903 197.366112 
L 263.78052 188.370049 
L 240.68412 183.253979 
z
" style="fill:#a30a29;fill-opacity:0.8;"/>
    <path clip-path="url(#pdd272e396c)" d="M 228.289902 191.198729 
L 240.7125 182.307248 
L 263.817739 187.420019 
L 251.548826 196.410333 
z
" style="fill:#74081d;fill-opacity:0.8;"/>
    <path clip-path="url(#pdd272e396c)" d="M 251.548826 196.410333 
L 263.817739 187.420019 
L 263.78052 188.370049 
L 251.515903 197.366112 
z
" style="fill:#ba0c2f;fill-opacity:0.8;"/>
    <path clip-path="url(#pdd272e396c)" d="M 228.289902 191.198729 
L 251.548826 196.410333 
L 251.515903 197.366112 
L 228.265937 192.151184 
z
" style="fill:#5d0618;fill-opacity:0.8;"/>
   </g>
   <g id="Poly3DCollection_10">
    <path clip-path="url(#pdd272e396c)" d="M 169.575045 189.812076 
L 169.574097 190.309967 
L 192.46733 195.507833 
L 192.472821 195.008203 
z
" style="fill:#ba0c2f;fill-opacity:0.8;"/>
    <path clip-path="url(#pdd272e396c)" d="M 156.362949 198.848818 
L 156.364622 199.349725 
L 169.574097 190.309967 
L 169.575045 189.812076 
z
" style="fill:#5d0618;fill-opacity:0.8;"/>
    <path clip-path="url(#pdd272e396c)" d="M 156.364622 199.349725 
L 179.406293 204.648875 
L 192.46733 195.507833 
L 169.574097 190.309967 
z
" style="fill:#a30a29;fill-opacity:0.8;"/>
    <path clip-path="url(#pdd272e396c)" d="M 156.362949 198.848818 
L 169.575045 189.812076 
L 192.472821 195.008203 
L 179.409224 204.146217 
z
" style="fill:#74081d;fill-opacity:0.8;"/>
    <path clip-path="url(#pdd272e396c)" d="M 179.409224 204.146217 
L 192.472821 195.008203 
L 192.46733 195.507833 
L 179.406293 204.648875 
z
" style="fill:#ba0c2f;fill-opacity:0.8;"/>
    <path clip-path="url(#pdd272e396c)" d="M 156.362949 198.848818 
L 179.409224 204.146217 
L 179.406293 204.648875 
L 156.364622 199.349725 
z
" style="fill:#5d0618;fill-opacity:0.8;"/>
   </g>
   <g id="Poly3DCollection_11">
    <path clip-path="url(#pdd272e396c)" d="M 97.276283 197.439418 
L 97.277742 197.493884 
L 119.957655 202.775614 
L 119.956681 202.720958 
z
" style="fill:#ba0c2f;fill-opacity:0.8;"/>
    <path clip-path="url(#pdd272e396c)" d="M 83.250352 206.625011 
L 83.252132 206.679808 
L 97.277742 197.493884 
L 97.276283 197.439418 
z
" style="fill:#5d0618;fill-opacity:0.8;"/>
    <path clip-path="url(#pdd272e396c)" d="M 83.252132 206.679808 
L 106.075029 212.06533 
L 119.957655 202.775614 
L 97.277742 197.493884 
z
" style="fill:#a30a29;fill-opacity:0.8;"/>
    <path clip-path="url(#pdd272e396c)" d="M 83.250352 206.625011 
L 97.276283 197.439418 
L 119.956681 202.720958 
L 106.07374 212.010341 
z
" style="fill:#74081d;fill-opacity:0.8;"/>
    <path clip-path="url(#pdd272e396c)" d="M 106.07374 212.010341 
L 119.956681 202.720958 
L 119.957655 202.775614 
L 106.075029 212.06533 
z
" style="fill:#ba0c2f;fill-opacity:0.8;"/>
    <path clip-path="url(#pdd272e396c)" d="M 83.250352 206.625011 
L 106.07374 212.010341 
L 106.075029 212.06533 
L 83.252132 206.679808 
z
" style="fill:#5d0618;fill-opacity:0.8;"/>
   </g>
   <g id="Poly3DCollection_12">
    <path clip-path="url(#pdd272e396c)" d="M 215.626674 200.262442 
L 215.661164 198.556558 
L 239.091576 203.863911 
L 239.040924 205.575771 
z
" style="fill:#5d0618;fill-opacity:0.8;"/>
    <path clip-path="url(#pdd272e396c)" d="M 202.715756 209.503438 
L 202.741743 207.787188 
L 215.661164 198.556558 
L 215.626674 200.262442 
z
" style="fill:#ba0c2f;fill-opacity:0.8;"/>
    <path clip-path="url(#pdd272e396c)" d="M 202.715756 209.503438 
L 215.626674 200.262442 
L 239.040924 205.575771 
L 226.286981 214.921501 
z
" style="fill:#74081d;fill-opacity:0.8;"/>
    <path clip-path="url(#pdd272e396c)" d="M 202.741743 207.787188 
L 226.329348 213.19923 
L 239.091576 203.863911 
L 215.661164 198.556558 
z
" style="fill:#a30a29;fill-opacity:0.8;"/>
    <path clip-path="url(#pdd272e396c)" d="M 226.286981 214.921501 
L 239.040924 205.575771 
L 239.091576 203.863911 
L 226.329348 213.19923 
z
" style="fill:#5d0618;fill-opacity:0.8;"/>
    <path clip-path="url(#pdd272e396c)" d="M 202.715756 209.503438 
L 226.286981 214.921501 
L 226.329348 213.19923 
L 202.741743 207.787188 
z
" style="fill:#ba0c2f;fill-opacity:0.8;"/>
   </g>
   <g id="Poly3DCollection_13">
    <path clip-path="url(#pdd272e396c)" d="M 142.892818 208.062051 
L 142.894698 208.277612 
L 166.08893 213.680027 
L 166.089044 213.46371 
z
" style="fill:#ba0c2f;fill-opacity:0.8;"/>
    <path clip-path="url(#pdd272e396c)" d="M 129.157018 217.456994 
L 129.160109 217.673866 
L 142.894698 208.277612 
L 142.892818 208.062051 
z
" style="fill:#5d0618;fill-opacity:0.8;"/>
    <path clip-path="url(#pdd272e396c)" d="M 129.160109 217.673866 
L 152.50572 223.183655 
L 166.08893 213.680027 
L 142.894698 208.277612 
z
" style="fill:#a30a29;fill-opacity:0.8;"/>
    <path clip-path="url(#pdd272e396c)" d="M 129.157018 217.456994 
L 142.892818 208.062051 
L 166.089044 213.46371 
L 152.504649 222.966023 
z
" style="fill:#74081d;fill-opacity:0.8;"/>
    <path clip-path="url(#pdd272e396c)" d="M 152.504649 222.966023 
L 166.089044 213.46371 
L 166.08893 213.680027 
L 152.50572 223.183655 
z
" style="fill:#ba0c2f;fill-opacity:0.8;"/>
    <path clip-path="url(#pdd272e396c)" d="M 129.157018 217.456994 
L 152.504649 222.966023 
L 152.50572 223.183655 
L 129.160109 217.673866 
z
" style="fill:#5d0618;fill-opacity:0.8;"/>
   </g>
   <g id="Poly3DCollection_14">
    <path clip-path="url(#pdd272e396c)" d="M 252.901262 173.583135 
L 264.862729 165.021708 
L 287.665481 169.945066 
L 275.854447 178.599859 
z
" style="fill:#74081d;fill-opacity:0.8;"/>
    <path clip-path="url(#pdd272e396c)" d="M 264.862729 165.021708 
L 269.853873 37.832394 
L 293.828503 42.279736 
L 287.665481 169.945066 
z
" style="fill:#5d0618;fill-opacity:0.8;"/>
    <path clip-path="url(#pdd272e396c)" d="M 252.901262 173.583135 
L 257.339398 45.567601 
L 269.853873 37.832394 
L 264.862729 165.021708 
z
" style="fill:#ba0c2f;fill-opacity:0.8;"/>
    <path clip-path="url(#pdd272e396c)" d="M 275.854447 178.599859 
L 287.665481 169.945066 
L 293.828503 42.279736 
L 281.480557 50.103563 
z
" style="fill:#5d0618;fill-opacity:0.8;"/>
    <path clip-path="url(#pdd272e396c)" d="M 252.901262 173.583135 
L 275.854447 178.599859 
L 281.480557 50.103563 
L 257.339398 45.567601 
z
" style="fill:#ba0c2f;fill-opacity:0.8;"/>
    <path clip-path="url(#pdd272e396c)" d="M 257.339398 45.567601 
L 281.480557 50.103563 
L 293.828503 42.279736 
L 269.853873 37.832394 
z
" style="fill:#a30a29;fill-opacity:0.8;"/>
   </g>
   <g id="Poly3DCollection_15">
    <path clip-path="url(#pdd272e396c)" d="M 189.54981 218.926972 
L 189.559792 217.921248 
L 213.299317 223.443641 
L 213.279665 224.452896 
z
" style="fill:#5d0618;fill-opacity:0.8;"/>
    <path clip-path="url(#pdd272e396c)" d="M 176.121202 228.538505 
L 176.125821 227.526656 
L 189.559792 217.921248 
L 189.54981 218.926972 
z
" style="fill:#ba0c2f;fill-opacity:0.8;"/>
    <path clip-path="url(#pdd272e396c)" d="M 176.121202 228.538505 
L 189.54981 218.926972 
L 213.279665 224.452896 
L 200.011349 234.175544 
z
" style="fill:#74081d;fill-opacity:0.8;"/>
    <path clip-path="url(#pdd272e396c)" d="M 176.125821 227.526656 
L 200.02577 233.160138 
L 213.299317 223.443641 
L 189.559792 217.921248 
z
" style="fill:#a30a29;fill-opacity:0.8;"/>
    <path clip-path="url(#pdd272e396c)" d="M 200.011349 234.175544 
L 213.279665 224.452896 
L 213.299317 223.443641 
L 200.02577 233.160138 
z
" style="fill:#5d0618;fill-opacity:0.8;"/>
    <path clip-path="url(#pdd272e396c)" d="M 176.121202 228.538505 
L 200.011349 234.175544 
L 200.02577 233.160138 
L 176.125821 227.526656 
z
" style="fill:#ba0c2f;fill-opacity:0.8;"/>
   </g>
   <g id="Poly3DCollection_16">
    <path clip-path="url(#pdd272e396c)" d="M 25.527018 197.377808 
L 203.751549 239.627199 
L 299.767965 168.678543 
L 130.040836 132.187649 
z
" style="fill-opacity:0.15;"/>
   </g>
   <g id="Poly3DCollection_17">
    <path clip-path="url(#pdd272e396c)" d="M 38.365883 196.034223 
L 52.665785 187.05106 
L 74.847371 192.216442 
L 60.682489 201.299974 
z
" style="fill:#74081d;fill-opacity:0.8;"/>
    <path clip-path="url(#pdd272e396c)" d="M 52.665785 187.05106 
L 47.045983 60.286778 
L 70.313298 64.974379 
L 74.847371 192.216442 
z
" style="fill:#5d0618;fill-opacity:0.8;"/>
    <path clip-path="url(#pdd272e396c)" d="M 38.365883 196.034223 
L 31.965025 68.440703 
L 47.045983 60.286778 
L 52.665785 187.05106 
z
" style="fill:#ba0c2f;fill-opacity:0.8;"/>
    <path clip-path="url(#pdd272e396c)" d="M 60.682489 201.299974 
L 74.847371 192.216442 
L 70.313298 64.974379 
L 55.380705 73.224039 
z
" style="fill:#5d0618;fill-opacity:0.8;"/>
    <path clip-path="url(#pdd272e396c)" d="M 38.365883 196.034223 
L 60.682489 201.299974 
L 55.380705 73.224039 
L 31.965025 68.440703 
z
" style="fill:#ba0c2f;fill-opacity:0.8;"/>
    <path clip-path="url(#pdd272e396c)" d="M 31.965025 68.440703 
L 55.380705 73.224039 
L 70.313298 64.974379 
L 47.045983 60.286778 
z
" style="fill:#a30a29;fill-opacity:0.8;"/>
   </g>
  </g>
  <g id="patch_6">
   <path d="M 425.945455 262.8 
L 806.4 262.8 
L 806.4 -14.4 
L 425.945455 -14.4 
z
" style="fill:#ffffff;"/>
  </g>
  <g id="pane3d_4">
   <g id="patch_7">
    <path d="M 476.380584 201.548569 
L 585.268665 133.58541 
L 583.455794 3.718968 
L 468.496488 64.782468 
" style="fill:#f2f2f2;opacity:0.5;stroke:#f2f2f2;stroke-linejoin:miter;"/>
   </g>
  </g>
  <g id="pane3d_5">
   <g id="patch_8">
    <path d="M 585.268665 133.58541 
L 761.65712 171.581202 
L 769.037001 37.79869 
L 583.455794 3.718968 
" style="fill:#e6e6e6;opacity:0.5;stroke:#e6e6e6;stroke-linejoin:miter;"/>
   </g>
  </g>
  <g id="pane3d_6">
   <g id="patch_9">
    <path d="M 476.380584 201.548569 
L 661.965072 245.80086 
L 761.65712 171.581202 
L 585.268665 133.58541 
" style="fill:#ececec;opacity:0.5;stroke:#ececec;stroke-linejoin:miter;"/>
   </g>
  </g>
  <g id="axis3d_4">
   <g id="line2d_15">
    <path d="M 476.380584 201.548569 
L 661.965072 245.80086 
" style="fill:none;stroke:#000000;stroke-linecap:square;stroke-width:0.8;"/>
   </g>
   <g id="Line3DCollection_4">
    <path d="M 498.841271 206.90428 
L 606.679397 138.19749 
L 605.9393 7.847789 
" style="fill:none;stroke:#b0b0b0;stroke-width:0.8;"/>
    <path d="M 544.057792 217.686079 
L 649.729469 147.470895 
L 651.182353 16.156123 
" style="fill:none;stroke:#b0b0b0;stroke-width:0.8;"/>
    <path d="M 590.310744 228.715013 
L 693.693551 156.941187 
L 697.435637 24.649974 
" style="fill:none;stroke:#b0b0b0;stroke-width:0.8;"/>
    <path d="M 637.636176 239.999678 
L 738.601063 166.614702 
L 744.733372 33.335625 
" style="fill:none;stroke:#b0b0b0;stroke-width:0.8;"/>
   </g>
   <g id="xtick_12">
    <g id="line2d_16">
     <path d="M 499.770538 206.312217 
L 496.979262 208.09062 
" style="fill:none;stroke:#000000;stroke-linecap:square;stroke-width:0.8;"/>
    </g>
    <g id="text_12">
     <!-- 00 -->
     <g transform="translate(475.786746 243.348593)rotate(-45)scale(0.2 -0.2)">
      <use transform="scale(0.996264)" xlink:href="#CMR17-48"/>
      <use transform="translate(45.690477 0)scale(0.996264)" xlink:href="#CMR17-48"/>
     </g>
    </g>
   </g>
   <g id="xtick_13">
    <g id="line2d_17">
     <path d="M 544.969128 217.080527 
L 542.231671 218.899473 
" style="fill:none;stroke:#000000;stroke-linecap:square;stroke-width:0.8;"/>
    </g>
    <g id="text_13">
     <!-- 01 -->
     <g transform="translate(520.999172 254.305345)rotate(-45)scale(0.2 -0.2)">
      <use transform="scale(0.996264)" xlink:href="#CMR17-48"/>
      <use transform="translate(45.690477 0)scale(0.996264)" xlink:href="#CMR17-49"/>
     </g>
    </g>
   </g>
   <g id="xtick_14">
    <g id="line2d_18">
     <path d="M 591.20308 228.095506 
L 588.522658 229.956397 
" style="fill:none;stroke:#000000;stroke-linecap:square;stroke-width:0.8;"/>
    </g>
    <g id="text_14">
     <!-- 10 -->
     <g transform="translate(567.249784 265.513691)rotate(-45)scale(0.2 -0.2)">
      <use transform="scale(0.996264)" xlink:href="#CMR17-49"/>
      <use transform="translate(45.690477 0)scale(0.996264)" xlink:href="#CMR17-48"/>
     </g>
    </g>
   </g>
   <g id="xtick_15">
    <g id="line2d_19">
     <path d="M 638.50838 239.365727 
L 635.888391 241.270032 
" style="fill:none;stroke:#000000;stroke-linecap:square;stroke-width:0.8;"/>
    </g>
    <g id="text_15">
     <!-- 11 -->
     <g transform="translate(614.574759 276.982396)rotate(-45)scale(0.2 -0.2)">
      <use transform="scale(0.996264)" xlink:href="#CMR17-49"/>
      <use transform="translate(45.690477 0)scale(0.996264)" xlink:href="#CMR17-49"/>
     </g>
    </g>
   </g>
  </g>
  <g id="axis3d_5">
   <g id="line2d_20">
    <path d="M 761.65712 171.581202 
L 661.965072 245.80086 
" style="fill:none;stroke:#000000;stroke-linecap:square;stroke-width:0.8;"/>
   </g>
   <g id="Line3DCollection_5">
    <path d="M 484.000685 56.547028 
L 491.016499 192.413474 
L 675.403872 235.795817 
" style="fill:none;stroke:#b0b0b0;stroke-width:0.8;"/>
    <path d="M 513.777478 40.730342 
L 519.168861 174.842005 
L 701.219492 216.576366 
" style="fill:none;stroke:#b0b0b0;stroke-width:0.8;"/>
    <path d="M 542.401344 25.526062 
L 546.284836 157.917404 
L 726.04244 198.095948 
" style="fill:none;stroke:#b0b0b0;stroke-width:0.8;"/>
    <path d="M 569.937971 10.899296 
L 572.420618 141.604597 
L 749.928893 180.312741 
" style="fill:none;stroke:#b0b0b0;stroke-width:0.8;"/>
   </g>
   <g id="xtick_16">
    <g id="line2d_21">
     <path d="M 673.861052 235.432825 
L 678.492943 236.522608 
" style="fill:none;stroke:#000000;stroke-linecap:square;stroke-width:0.8;"/>
    </g>
    <g id="text_16">
     <!-- 00 -->
     <g transform="translate(689.641116 248.844567)rotate(-337.5)scale(0.2 -0.2)">
      <use transform="scale(0.996264)" xlink:href="#CMR17-48"/>
      <use transform="translate(45.690477 0)scale(0.996264)" xlink:href="#CMR17-48"/>
     </g>
    </g>
   </g>
   <g id="xtick_17">
    <g id="line2d_22">
     <path d="M 699.697534 216.227463 
L 704.266725 217.274932 
" style="fill:none;stroke:#000000;stroke-linecap:square;stroke-width:0.8;"/>
    </g>
    <g id="text_17">
     <!-- 01 -->
     <g transform="translate(715.194668 229.400141)rotate(-337.5)scale(0.2 -0.2)">
      <use transform="scale(0.996264)" xlink:href="#CMR17-48"/>
      <use transform="translate(45.690477 0)scale(0.996264)" xlink:href="#CMR17-49"/>
     </g>
    </g>
   </g>
   <g id="xtick_18">
    <g id="line2d_23">
     <path d="M 724.540896 197.76033 
L 729.048738 198.767901 
" style="fill:none;stroke:#000000;stroke-linecap:square;stroke-width:0.8;"/>
    </g>
    <g id="text_18">
     <!-- 10 -->
     <g transform="translate(739.766079 210.703053)rotate(-337.5)scale(0.2 -0.2)">
      <use transform="scale(0.996264)" xlink:href="#CMR17-49"/>
      <use transform="translate(45.690477 0)scale(0.996264)" xlink:href="#CMR17-48"/>
     </g>
    </g>
   </g>
   <g id="xtick_19">
    <g id="line2d_24">
     <path d="M 748.44732 179.989663 
L 752.895146 180.959573 
" style="fill:none;stroke:#000000;stroke-linecap:square;stroke-width:0.8;"/>
    </g>
    <g id="text_19">
     <!-- 11 -->
     <g transform="translate(763.410906 192.711031)rotate(-337.5)scale(0.2 -0.2)">
      <use transform="scale(0.996264)" xlink:href="#CMR17-49"/>
      <use transform="translate(45.690477 0)scale(0.996264)" xlink:href="#CMR17-49"/>
     </g>
    </g>
   </g>
  </g>
  <g id="axis3d_6">
   <g id="line2d_25">
    <path d="M 761.65712 171.581202 
L 769.037001 37.79869 
" style="fill:none;stroke:#000000;stroke-linecap:square;stroke-width:0.8;"/>
   </g>
   <g id="Line3DCollection_6">
    <path d="M 761.831736 168.415752 
L 585.225679 130.506077 
L 476.19435 198.317958 
" style="fill:none;stroke:#b0b0b0;stroke-width:0.8;"/>
    <path d="M 764.560636 118.946253 
L 584.554472 82.423661 
L 473.28193 147.795941 
" style="fill:none;stroke:#b0b0b0;stroke-width:0.8;"/>
    <path d="M 767.397627 67.517274 
L 583.857825 32.51878 
L 470.250216 95.204531 
" style="fill:none;stroke:#b0b0b0;stroke-width:0.8;"/>
   </g>
   <g id="xtick_20">
    <g id="line2d_26">
     <path d="M 760.358196 168.099446 
L 764.781882 169.04902 
" style="fill:none;stroke:#000000;stroke-linecap:square;stroke-width:0.8;"/>
    </g>
    <g id="text_20">
     <!-- $0.0$ -->
     <g transform="translate(768.516141 180.312687)scale(0.2 -0.2)">
      <use transform="scale(0.996264)" xlink:href="#CMR17-48"/>
      <use transform="translate(45.690477 0)scale(0.996264)" xlink:href="#CMMI12-58"/>
      <use transform="translate(72.787654 0)scale(0.996264)" xlink:href="#CMR17-48"/>
     </g>
    </g>
   </g>
   <g id="xtick_21">
    <g id="line2d_27">
     <path d="M 763.057526 118.641278 
L 767.570045 119.556851 
" style="fill:none;stroke:#000000;stroke-linecap:square;stroke-width:0.8;"/>
    </g>
    <g id="text_21">
     <!-- $0.2$ -->
     <g transform="translate(771.598252 130.912744)scale(0.2 -0.2)">
      <use transform="scale(0.996264)" xlink:href="#CMR17-48"/>
      <use transform="translate(45.690477 0)scale(0.996264)" xlink:href="#CMMI12-58"/>
      <use transform="translate(72.787654 0)scale(0.996264)" xlink:href="#CMR17-50"/>
     </g>
    </g>
   </g>
   <g id="xtick_22">
    <g id="line2d_28">
     <path d="M 765.863737 67.224783 
L 770.468726 68.10289 
" style="fill:none;stroke:#000000;stroke-linecap:square;stroke-width:0.8;"/>
    </g>
    <g id="text_22">
     <!-- $0.4$ -->
     <g transform="translate(774.802176 79.560397)scale(0.2 -0.2)">
      <use transform="scale(0.996264)" xlink:href="#CMR17-48"/>
      <use transform="translate(45.690477 0)scale(0.996264)" xlink:href="#CMMI12-58"/>
      <use transform="translate(72.787654 0)scale(0.996264)" xlink:href="#CMR17-52"/>
     </g>
    </g>
   </g>
  </g>
  <g id="axes_2">
   <g id="Poly3DCollection_18">
    <path clip-path="url(#p6dccf8daf6)" d="M 589.589736 136.869249 
L 589.582748 136.301207 
L 610.97941 140.919623 
L 610.981698 141.48962 
z
" style="fill:#065d4c;fill-opacity:0.8;"/>
    <path clip-path="url(#p6dccf8daf6)" d="M 576.806019 144.90279 
L 576.796126 144.331356 
L 589.582748 136.301207 
L 589.589736 136.869249 
z
" style="fill:#0cba97;fill-opacity:0.8;"/>
    <path clip-path="url(#p6dccf8daf6)" d="M 576.806019 144.90279 
L 589.589736 136.869249 
L 610.981698 141.48962 
L 598.326347 149.607984 
z
" style="fill:#08745e;fill-opacity:0.8;"/>
    <path clip-path="url(#p6dccf8daf6)" d="M 576.796126 144.331356 
L 598.321211 149.034578 
L 610.97941 140.919623 
L 589.582748 136.301207 
z
" style="fill:#0aa384;fill-opacity:0.8;"/>
    <path clip-path="url(#p6dccf8daf6)" d="M 598.326347 149.607984 
L 610.981698 141.48962 
L 610.97941 140.919623 
L 598.321211 149.034578 
z
" style="fill:#065d4c;fill-opacity:0.8;"/>
    <path clip-path="url(#p6dccf8daf6)" d="M 576.806019 144.90279 
L 598.326347 149.607984 
L 598.321211 149.034578 
L 576.796126 144.331356 
z
" style="fill:#0cba97;fill-opacity:0.8;"/>
   </g>
   <g id="Poly3DCollection_19">
    <path clip-path="url(#p6dccf8daf6)" d="M 632.599092 146.15868 
L 632.59864 146.261649 
L 654.444165 150.980529 
L 654.4455 150.877205 
z
" style="fill:#0cba97;fill-opacity:0.8;"/>
    <path clip-path="url(#p6dccf8daf6)" d="M 620.075549 154.363219 
L 620.075599 154.466804 
L 632.59864 146.261649 
L 632.599092 146.15868 
z
" style="fill:#065d4c;fill-opacity:0.8;"/>
    <path clip-path="url(#p6dccf8daf6)" d="M 620.075599 154.466804 
L 642.056452 159.27324 
L 654.444165 150.980529 
L 632.59864 146.261649 
z
" style="fill:#0aa384;fill-opacity:0.8;"/>
    <path clip-path="url(#p6dccf8daf6)" d="M 620.075549 154.363219 
L 632.599092 146.15868 
L 654.4455 150.877205 
L 642.057295 159.169297 
z
" style="fill:#08745e;fill-opacity:0.8;"/>
    <path clip-path="url(#p6dccf8daf6)" d="M 642.057295 159.169297 
L 654.4455 150.877205 
L 654.444165 150.980529 
L 642.056452 159.27324 
z
" style="fill:#0cba97;fill-opacity:0.8;"/>
    <path clip-path="url(#p6dccf8daf6)" d="M 620.075549 154.363219 
L 642.057295 159.169297 
L 642.056452 159.27324 
L 620.075599 154.466804 
z
" style="fill:#065d4c;fill-opacity:0.8;"/>
   </g>
   <g id="Poly3DCollection_20">
    <path clip-path="url(#p6dccf8daf6)" d="M 563.787151 153.084105 
L 563.773357 152.469633 
L 585.428316 157.259882 
L 585.436965 157.876479 
z
" style="fill:#065d4c;fill-opacity:0.8;"/>
    <path clip-path="url(#p6dccf8daf6)" d="M 550.526585 161.417307 
L 550.509454 160.799147 
L 563.773357 152.469633 
L 563.787151 153.084105 
z
" style="fill:#0cba97;fill-opacity:0.8;"/>
    <path clip-path="url(#p6dccf8daf6)" d="M 550.526585 161.417307 
L 563.787151 153.084105 
L 585.436965 157.876479 
L 572.306998 166.299309 
z
" style="fill:#08745e;fill-opacity:0.8;"/>
    <path clip-path="url(#p6dccf8daf6)" d="M 550.509454 160.799147 
L 572.295074 165.679005 
L 585.428316 157.259882 
L 563.773357 152.469633 
z
" style="fill:#0aa384;fill-opacity:0.8;"/>
    <path clip-path="url(#p6dccf8daf6)" d="M 572.306998 166.299309 
L 585.436965 157.876479 
L 585.428316 157.259882 
L 572.295074 165.679005 
z
" style="fill:#065d4c;fill-opacity:0.8;"/>
    <path clip-path="url(#p6dccf8daf6)" d="M 550.526585 161.417307 
L 572.306998 166.299309 
L 572.295074 165.679005 
L 550.509454 160.799147 
z
" style="fill:#0cba97;fill-opacity:0.8;"/>
   </g>
   <g id="Poly3DCollection_21">
    <path clip-path="url(#p6dccf8daf6)" d="M 676.524581 155.645983 
L 676.531782 155.31209 
L 698.850237 160.130774 
L 698.840072 160.465823 
z
" style="fill:#065d4c;fill-opacity:0.8;"/>
    <path clip-path="url(#p6dccf8daf6)" d="M 664.275335 164.027038 
L 664.28099 163.691139 
L 676.531782 155.31209 
L 676.524581 155.645983 
z
" style="fill:#0cba97;fill-opacity:0.8;"/>
    <path clip-path="url(#p6dccf8daf6)" d="M 664.275335 164.027038 
L 676.524581 155.645983 
L 698.840072 160.465823 
L 686.733499 168.93728 
z
" style="fill:#08745e;fill-opacity:0.8;"/>
    <path clip-path="url(#p6dccf8daf6)" d="M 664.28099 163.691139 
L 686.742157 168.600215 
L 698.850237 160.130774 
L 676.531782 155.31209 
z
" style="fill:#0aa384;fill-opacity:0.8;"/>
    <path clip-path="url(#p6dccf8daf6)" d="M 686.733499 168.93728 
L 698.840072 160.465823 
L 698.850237 160.130774 
L 686.742157 168.600215 
z
" style="fill:#065d4c;fill-opacity:0.8;"/>
    <path clip-path="url(#p6dccf8daf6)" d="M 664.275335 164.027038 
L 686.733499 168.93728 
L 686.742157 168.600215 
L 664.28099 163.691139 
z
" style="fill:#0cba97;fill-opacity:0.8;"/>
   </g>
   <g id="Poly3DCollection_22">
    <path clip-path="url(#p6dccf8daf6)" d="M 607.319169 162.720296 
L 607.322239 163.280339 
L 629.435735 168.178371 
L 629.437526 167.616387 
z
" style="fill:#0cba97;fill-opacity:0.8;"/>
    <path clip-path="url(#p6dccf8daf6)" d="M 594.323397 171.234206 
L 594.329374 171.797617 
L 607.322239 163.280339 
L 607.319169 162.720296 
z
" style="fill:#065d4c;fill-opacity:0.8;"/>
    <path clip-path="url(#p6dccf8daf6)" d="M 594.329374 171.797617 
L 616.580694 176.788231 
L 629.435735 168.178371 
L 607.322239 163.280339 
z
" style="fill:#0aa384;fill-opacity:0.8;"/>
    <path clip-path="url(#p6dccf8daf6)" d="M 594.323397 171.234206 
L 607.319169 162.720296 
L 629.437526 167.616387 
L 616.57964 176.222863 
z
" style="fill:#08745e;fill-opacity:0.8;"/>
    <path clip-path="url(#p6dccf8daf6)" d="M 616.57964 176.222863 
L 629.437526 167.616387 
L 629.435735 168.178371 
L 616.580694 176.788231 
z
" style="fill:#0cba97;fill-opacity:0.8;"/>
    <path clip-path="url(#p6dccf8daf6)" d="M 594.323397 171.234206 
L 616.57964 176.222863 
L 616.580694 176.788231 
L 594.329374 171.797617 
z
" style="fill:#065d4c;fill-opacity:0.8;"/>
   </g>
   <g id="Poly3DCollection_23">
    <path clip-path="url(#p6dccf8daf6)" d="M 721.39579 165.337549 
L 721.39579 165.337549 
L 744.195635 170.262003 
L 744.195635 170.262003 
z
" style="fill:#065d4c;fill-opacity:0.8;"/>
    <path clip-path="url(#p6dccf8daf6)" d="M 709.435701 173.900878 
L 709.435701 173.900878 
L 721.39579 165.337549 
L 721.39579 165.337549 
z
" style="fill:#065d4c;fill-opacity:0.8;"/>
    <path clip-path="url(#p6dccf8daf6)" d="M 709.435701 173.900878 
L 721.39579 165.337549 
L 744.195635 170.262003 
L 732.385941 178.918707 
z
" style="fill:#08745e;fill-opacity:0.8;"/>
    <path clip-path="url(#p6dccf8daf6)" d="M 709.435701 173.900878 
L 732.385941 178.918707 
L 744.195635 170.262003 
L 721.39579 165.337549 
z
" style="fill:#0aa384;fill-opacity:0.8;"/>
    <path clip-path="url(#p6dccf8daf6)" d="M 732.385941 178.918707 
L 744.195635 170.262003 
L 744.195635 170.262003 
L 732.385941 178.918707 
z
" style="fill:#065d4c;fill-opacity:0.8;"/>
    <path clip-path="url(#p6dccf8daf6)" d="M 709.435701 173.900878 
L 732.385941 178.918707 
L 732.385941 178.918707 
L 709.435701 173.900878 
z
" style="fill:#065d4c;fill-opacity:0.8;"/>
   </g>
   <g id="Poly3DCollection_24">
    <path clip-path="url(#p6dccf8daf6)" d="M 537.017526 169.906668 
L 536.999879 169.373708 
L 558.916516 174.346022 
L 558.929647 174.880834 
z
" style="fill:#065d4c;fill-opacity:0.8;"/>
    <path clip-path="url(#p6dccf8daf6)" d="M 523.252923 178.556617 
L 523.2322 178.020444 
L 536.999879 169.373708 
L 537.017526 169.906668 
z
" style="fill:#0cba97;fill-opacity:0.8;"/>
    <path clip-path="url(#p6dccf8daf6)" d="M 523.252923 178.556617 
L 537.017526 169.906668 
L 558.929647 174.880834 
L 545.297855 183.625582 
z
" style="fill:#08745e;fill-opacity:0.8;"/>
    <path clip-path="url(#p6dccf8daf6)" d="M 523.2322 178.020444 
L 545.281703 183.087542 
L 558.916516 174.346022 
L 536.999879 169.373708 
z
" style="fill:#0aa384;fill-opacity:0.8;"/>
    <path clip-path="url(#p6dccf8daf6)" d="M 545.297855 183.625582 
L 558.929647 174.880834 
L 558.916516 174.346022 
L 545.281703 183.087542 
z
" style="fill:#065d4c;fill-opacity:0.8;"/>
    <path clip-path="url(#p6dccf8daf6)" d="M 523.252923 178.556617 
L 545.297855 183.625582 
L 545.281703 183.087542 
L 523.2322 178.020444 
z
" style="fill:#0cba97;fill-opacity:0.8;"/>
   </g>
   <g id="Poly3DCollection_25">
    <path clip-path="url(#p6dccf8daf6)" d="M 651.79588 172.565603 
L 651.79588 172.565603 
L 674.398157 177.568815 
L 674.398157 177.568815 
z
" style="fill:#065d4c;fill-opacity:0.8;"/>
    <path clip-path="url(#p6dccf8daf6)" d="M 639.079665 181.266163 
L 639.079665 181.266163 
L 651.79588 172.565603 
L 651.79588 172.565603 
z
" style="fill:#065d4c;fill-opacity:0.8;"/>
    <path clip-path="url(#p6dccf8daf6)" d="M 639.079665 181.266163 
L 651.79588 172.565603 
L 674.398157 177.568815 
L 661.827501 186.365009 
z
" style="fill:#08745e;fill-opacity:0.8;"/>
    <path clip-path="url(#p6dccf8daf6)" d="M 639.079665 181.266163 
L 661.827501 186.365009 
L 674.398157 177.568815 
L 651.79588 172.565603 
z
" style="fill:#0aa384;fill-opacity:0.8;"/>
    <path clip-path="url(#p6dccf8daf6)" d="M 661.827501 186.365009 
L 674.398157 177.568815 
L 674.398157 177.568815 
L 661.827501 186.365009 
z
" style="fill:#065d4c;fill-opacity:0.8;"/>
    <path clip-path="url(#p6dccf8daf6)" d="M 639.079665 181.266163 
L 661.827501 186.365009 
L 661.827501 186.365009 
L 639.079665 181.266163 
z
" style="fill:#065d4c;fill-opacity:0.8;"/>
   </g>
   <g id="Poly3DCollection_26">
    <path clip-path="url(#p6dccf8daf6)" d="M 581.081431 179.909405 
L 581.081431 179.909405 
L 603.476831 184.993277 
L 603.476831 184.993277 
z
" style="fill:#065d4c;fill-opacity:0.8;"/>
    <path clip-path="url(#p6dccf8daf6)" d="M 567.586208 188.750519 
L 567.586208 188.750519 
L 581.081431 179.909405 
L 581.081431 179.909405 
z
" style="fill:#065d4c;fill-opacity:0.8;"/>
    <path clip-path="url(#p6dccf8daf6)" d="M 567.586208 188.750519 
L 581.081431 179.909405 
L 603.476831 184.993277 
L 590.122036 193.93236 
z
" style="fill:#08745e;fill-opacity:0.8;"/>
    <path clip-path="url(#p6dccf8daf6)" d="M 567.586208 188.750519 
L 590.122036 193.93236 
L 603.476831 184.993277 
L 581.081431 179.909405 
z
" style="fill:#0aa384;fill-opacity:0.8;"/>
    <path clip-path="url(#p6dccf8daf6)" d="M 590.122036 193.93236 
L 603.476831 184.993277 
L 603.476831 184.993277 
L 590.122036 193.93236 
z
" style="fill:#065d4c;fill-opacity:0.8;"/>
    <path clip-path="url(#p6dccf8daf6)" d="M 567.586208 188.750519 
L 590.122036 193.93236 
L 590.122036 193.93236 
L 567.586208 188.750519 
z
" style="fill:#065d4c;fill-opacity:0.8;"/>
   </g>
   <g id="Poly3DCollection_27">
    <path clip-path="url(#p6dccf8daf6)" d="M 697.248372 182.626909 
L 697.238174 182.967095 
L 720.337253 188.082165 
L 720.350627 187.740794 
z
" style="fill:#0cba97;fill-opacity:0.8;"/>
    <path clip-path="url(#p6dccf8daf6)" d="M 684.827265 191.520323 
L 684.818654 191.862566 
L 697.238174 182.967095 
L 697.248372 182.626909 
z
" style="fill:#065d4c;fill-opacity:0.8;"/>
    <path clip-path="url(#p6dccf8daf6)" d="M 684.818654 191.862566 
L 708.071334 197.076487 
L 720.337253 188.082165 
L 697.238174 182.967095 
z
" style="fill:#0aa384;fill-opacity:0.8;"/>
    <path clip-path="url(#p6dccf8daf6)" d="M 684.827265 191.520323 
L 697.248372 182.626909 
L 720.350627 187.740794 
L 708.083164 196.73305 
z
" style="fill:#08745e;fill-opacity:0.8;"/>
    <path clip-path="url(#p6dccf8daf6)" d="M 708.083164 196.73305 
L 720.350627 187.740794 
L 720.337253 188.082165 
L 708.071334 197.076487 
z
" style="fill:#0cba97;fill-opacity:0.8;"/>
    <path clip-path="url(#p6dccf8daf6)" d="M 684.827265 191.520323 
L 708.083164 196.73305 
L 708.071334 197.076487 
L 684.818654 191.862566 
z
" style="fill:#065d4c;fill-opacity:0.8;"/>
   </g>
   <g id="Poly3DCollection_28">
    <path clip-path="url(#p6dccf8daf6)" d="M 509.225456 187.371755 
L 509.225456 187.371755 
L 531.404292 192.538256 
L 531.404292 192.538256 
z
" style="fill:#065d4c;fill-opacity:0.8;"/>
    <path clip-path="url(#p6dccf8daf6)" d="M 494.927523 196.356859 
L 494.927523 196.356859 
L 509.225456 187.371755 
L 509.225456 187.371755 
z
" style="fill:#065d4c;fill-opacity:0.8;"/>
    <path clip-path="url(#p6dccf8daf6)" d="M 494.927523 196.356859 
L 509.225456 187.371755 
L 531.404292 192.538256 
L 517.241346 201.623738 
z
" style="fill:#08745e;fill-opacity:0.8;"/>
    <path clip-path="url(#p6dccf8daf6)" d="M 494.927523 196.356859 
L 517.241346 201.623738 
L 531.404292 192.538256 
L 509.225456 187.371755 
z
" style="fill:#0aa384;fill-opacity:0.8;"/>
    <path clip-path="url(#p6dccf8daf6)" d="M 517.241346 201.623738 
L 531.404292 192.538256 
L 531.404292 192.538256 
L 517.241346 201.623738 
z
" style="fill:#065d4c;fill-opacity:0.8;"/>
    <path clip-path="url(#p6dccf8daf6)" d="M 494.927523 196.356859 
L 517.241346 201.623738 
L 517.241346 201.623738 
L 494.927523 196.356859 
z
" style="fill:#065d4c;fill-opacity:0.8;"/>
   </g>
   <g id="Poly3DCollection_29">
    <path clip-path="url(#p6dccf8daf6)" d="M 626.119888 190.13337 
L 626.120974 189.562348 
L 649.02103 194.757603 
L 649.014732 195.330619 
z
" style="fill:#065d4c;fill-opacity:0.8;"/>
    <path clip-path="url(#p6dccf8daf6)" d="M 612.909483 199.172058 
L 612.907564 198.597577 
L 626.120974 189.562348 
L 626.119888 190.13337 
z
" style="fill:#0cba97;fill-opacity:0.8;"/>
    <path clip-path="url(#p6dccf8daf6)" d="M 612.909483 199.172058 
L 626.119888 190.13337 
L 649.014732 195.330619 
L 635.952787 204.470587 
z
" style="fill:#08745e;fill-opacity:0.8;"/>
    <path clip-path="url(#p6dccf8daf6)" d="M 612.907564 198.597577 
L 635.956148 203.894097 
L 649.02103 194.757603 
L 626.120974 189.562348 
z
" style="fill:#0aa384;fill-opacity:0.8;"/>
    <path clip-path="url(#p6dccf8daf6)" d="M 635.952787 204.470587 
L 649.014732 195.330619 
L 649.02103 194.757603 
L 635.956148 203.894097 
z
" style="fill:#065d4c;fill-opacity:0.8;"/>
    <path clip-path="url(#p6dccf8daf6)" d="M 612.909483 199.172058 
L 635.952787 204.470587 
L 635.956148 203.894097 
L 612.907564 198.597577 
z
" style="fill:#0cba97;fill-opacity:0.8;"/>
   </g>
   <g id="Poly3DCollection_30">
    <path clip-path="url(#p6dccf8daf6)" d="M 553.830392 197.762356 
L 553.844944 198.305309 
L 576.51763 203.589875 
L 576.507914 203.045025 
z
" style="fill:#0cba97;fill-opacity:0.8;"/>
    <path clip-path="url(#p6dccf8daf6)" d="M 539.806362 206.949908 
L 539.824109 207.496152 
L 553.844944 198.305309 
L 553.830392 197.762356 
z
" style="fill:#065d4c;fill-opacity:0.8;"/>
    <path clip-path="url(#p6dccf8daf6)" d="M 539.824109 207.496152 
L 562.639688 212.884532 
L 576.51763 203.589875 
L 553.844944 198.305309 
z
" style="fill:#0aa384;fill-opacity:0.8;"/>
    <path clip-path="url(#p6dccf8daf6)" d="M 539.806362 206.949908 
L 553.830392 197.762356 
L 576.507914 203.045025 
L 562.626838 212.336376 
z
" style="fill:#08745e;fill-opacity:0.8;"/>
    <path clip-path="url(#p6dccf8daf6)" d="M 562.626838 212.336376 
L 576.507914 203.045025 
L 576.51763 203.589875 
L 562.639688 212.884532 
z
" style="fill:#0cba97;fill-opacity:0.8;"/>
    <path clip-path="url(#p6dccf8daf6)" d="M 539.806362 206.949908 
L 562.626838 212.336376 
L 562.639688 212.884532 
L 539.824109 207.496152 
z
" style="fill:#065d4c;fill-opacity:0.8;"/>
   </g>
   <g id="Poly3DCollection_31">
    <path clip-path="url(#p6dccf8daf6)" d="M 672.165587 200.585984 
L 672.16775 200.479029 
L 695.579948 205.793117 
L 695.576772 205.900445 
z
" style="fill:#065d4c;fill-opacity:0.8;"/>
    <path clip-path="url(#p6dccf8daf6)" d="M 659.256282 209.828944 
L 659.257912 209.721341 
L 672.16775 200.479029 
L 672.165587 200.585984 
z
" style="fill:#0cba97;fill-opacity:0.8;"/>
    <path clip-path="url(#p6dccf8daf6)" d="M 659.256282 209.828944 
L 672.165587 200.585984 
L 695.576772 205.900445 
L 682.8244 215.248148 
z
" style="fill:#08745e;fill-opacity:0.8;"/>
    <path clip-path="url(#p6dccf8daf6)" d="M 659.257912 209.721341 
L 682.827056 215.140167 
L 695.579948 205.793117 
L 672.16775 200.479029 
z
" style="fill:#0aa384;fill-opacity:0.8;"/>
    <path clip-path="url(#p6dccf8daf6)" d="M 682.8244 215.248148 
L 695.576772 205.900445 
L 695.579948 205.793117 
L 682.827056 215.140167 
z
" style="fill:#065d4c;fill-opacity:0.8;"/>
    <path clip-path="url(#p6dccf8daf6)" d="M 659.256282 209.828944 
L 682.8244 215.248148 
L 682.827056 215.140167 
L 659.257912 209.721341 
z
" style="fill:#0cba97;fill-opacity:0.8;"/>
   </g>
   <g id="Poly3DCollection_32">
    <path clip-path="url(#p6dccf8daf6)" d="M 599.441109 208.387252 
L 599.446674 209.025184 
L 622.633989 214.430216 
L 622.634327 213.79005 
z
" style="fill:#0cba97;fill-opacity:0.8;"/>
    <path clip-path="url(#p6dccf8daf6)" d="M 585.707136 217.784171 
L 585.716284 218.425978 
L 599.446674 209.025184 
L 599.441109 208.387252 
z
" style="fill:#065d4c;fill-opacity:0.8;"/>
    <path clip-path="url(#p6dccf8daf6)" d="M 585.716284 218.425978 
L 609.054888 223.938404 
L 622.633989 214.430216 
L 599.446674 209.025184 
z
" style="fill:#0aa384;fill-opacity:0.8;"/>
    <path clip-path="url(#p6dccf8daf6)" d="M 585.707136 217.784171 
L 599.441109 208.387252 
L 622.634327 213.79005 
L 609.051719 223.294348 
z
" style="fill:#08745e;fill-opacity:0.8;"/>
    <path clip-path="url(#p6dccf8daf6)" d="M 609.051719 223.294348 
L 622.634327 213.79005 
L 622.633989 214.430216 
L 609.054888 223.938404 
z
" style="fill:#0cba97;fill-opacity:0.8;"/>
    <path clip-path="url(#p6dccf8daf6)" d="M 585.707136 217.784171 
L 609.051719 223.294348 
L 609.054888 223.938404 
L 585.716284 218.425978 
z
" style="fill:#065d4c;fill-opacity:0.8;"/>
   </g>
   <g id="Poly3DCollection_33">
    <path clip-path="url(#p6dccf8daf6)" d="M 646.092014 219.254456 
L 646.086049 219.855467 
L 669.806976 225.384648 
L 669.81872 224.78153 
z
" style="fill:#0cba97;fill-opacity:0.8;"/>
    <path clip-path="url(#p6dccf8daf6)" d="M 632.665153 228.867982 
L 632.662393 229.472649 
L 646.086049 219.855467 
L 646.092014 219.254456 
z
" style="fill:#065d4c;fill-opacity:0.8;"/>
    <path clip-path="url(#p6dccf8daf6)" d="M 632.662393 229.472649 
L 656.543491 235.112967 
L 669.806976 225.384648 
L 646.086049 219.855467 
z
" style="fill:#0aa384;fill-opacity:0.8;"/>
    <path clip-path="url(#p6dccf8daf6)" d="M 632.665153 228.867982 
L 646.092014 219.254456 
L 669.81872 224.78153 
L 656.552108 234.506178 
z
" style="fill:#08745e;fill-opacity:0.8;"/>
    <path clip-path="url(#p6dccf8daf6)" d="M 656.552108 234.506178 
L 669.81872 224.78153 
L 669.806976 225.384648 
L 656.543491 235.112967 
z
" style="fill:#0cba97;fill-opacity:0.8;"/>
    <path clip-path="url(#p6dccf8daf6)" d="M 632.665153 228.867982 
L 656.552108 234.506178 
L 656.543491 235.112967 
L 632.662393 229.472649 
z
" style="fill:#065d4c;fill-opacity:0.8;"/>
   </g>
   <g id="Poly3DCollection_34">
    <path clip-path="url(#p6dccf8daf6)" d="M 482.090327 197.700733 
L 660.291781 239.958944 
L 756.296636 168.995199 
L 586.590435 132.49601 
z
" style="fill-opacity:0.2;"/>
   </g>
  </g>
 </g>
 <defs>
  <clipPath id="pdd272e396c">
   <rect height="277.2" width="380.454545" x="-30.6" y="-14.4"/>
  </clipPath>
  <clipPath id="p6dccf8daf6">
   <rect height="277.2" width="380.454545" x="425.945455" y="-14.4"/>
  </clipPath>
 </defs>
</svg>
