<?xml version="1.0" encoding="utf-8" standalone="no"?>
<!DOCTYPE svg PUBLIC "-//W3C//DTD SVG 1.1//EN"
  "http://www.w3.org/Graphics/SVG/1.1/DTD/svg11.dtd">
<!-- Created with matplotlib (https://matplotlib.org/) -->
<svg height="302.4pt" version="1.1" viewBox="0 0 820.8 302.4" width="820.8pt" xmlns="http://www.w3.org/2000/svg" xmlns:xlink="http://www.w3.org/1999/xlink">
 <defs>
  <style type="text/css">
*{stroke-linecap:butt;stroke-linejoin:round;}
  </style>
 </defs>
 <g id="figure_1">
  <g id="patch_1">
   <path d="M 0 302.4 
L 820.8 302.4 
L 820.8 0 
L 0 0 
z
" style="fill:#ffffff;"/>
  </g>
  <g id="patch_2">
   <path d="M -30.6 262.8 
L 349.854545 262.8 
L 349.854545 -14.4 
L -30.6 -14.4 
z
" style="fill:#ffffff;"/>
  </g>
  <g id="pane3d_1">
   <g id="patch_3">
    <path d="M 19.835129 201.548569 
L 128.723211 133.58541 
L 126.910339 3.718968 
L 11.951034 64.782468 
" style="fill:#f2f2f2;opacity:0.5;stroke:#f2f2f2;stroke-linejoin:miter;"/>
   </g>
  </g>
  <g id="pane3d_2">
   <g id="patch_4">
    <path d="M 128.723211 133.58541 
L 305.111665 171.581202 
L 312.491547 37.79869 
L 126.910339 3.718968 
" style="fill:#e6e6e6;opacity:0.5;stroke:#e6e6e6;stroke-linejoin:miter;"/>
   </g>
  </g>
  <g id="pane3d_3">
   <g id="patch_5">
    <path d="M 19.835129 201.548569 
L 205.419617 245.80086 
L 305.111665 171.581202 
L 128.723211 133.58541 
" style="fill:#ececec;opacity:0.5;stroke:#ececec;stroke-linejoin:miter;"/>
   </g>
  </g>
  <g id="axis3d_1">
   <g id="line2d_1">
    <path d="M 19.835129 201.548569 
L 205.419617 245.80086 
" style="fill:none;stroke:#000000;stroke-linecap:square;stroke-width:0.8;"/>
   </g>
   <g id="Line3DCollection_1">
    <path d="M 42.295817 206.90428 
L 150.133942 138.19749 
L 149.393845 7.847789 
" style="fill:none;stroke:#b0b0b0;stroke-width:0.8;"/>
    <path d="M 87.512337 217.686079 
L 193.184014 147.470895 
L 194.636898 16.156123 
" style="fill:none;stroke:#b0b0b0;stroke-width:0.8;"/>
    <path d="M 133.765289 228.715013 
L 237.148096 156.941187 
L 240.890183 24.649974 
" style="fill:none;stroke:#b0b0b0;stroke-width:0.8;"/>
    <path d="M 181.090721 239.999678 
L 282.055608 166.614702 
L 288.187917 33.335625 
" style="fill:none;stroke:#b0b0b0;stroke-width:0.8;"/>
   </g>
   <g id="xtick_1">
    <g id="line2d_2">
     <path d="M 43.225084 206.312217 
L 40.433807 208.09062 
" style="fill:none;stroke:#000000;stroke-linecap:square;stroke-width:0.8;"/>
    </g>
    <g id="text_1">
     <!-- 00 -->
     <defs>
      <path d="M 42 31.84375 
C 42 37.96875 41.90625 48.421875 37.703125 56.453125 
C 34 63.484375 28.09375 66 22.90625 66 
C 18.09375 66 12 63.78125 8.203125 56.5625 
C 4.203125 49.015625 3.796875 39.671875 3.796875 31.84375 
C 3.796875 26.109375 3.90625 17.375 7 9.734375 
C 11.296875 -0.609375 19 -2 22.90625 -2 
C 27.5 -2 34.5 -0.109375 38.59375 9.4375 
C 41.59375 16.375 42 24.5 42 31.84375 
z
M 22.90625 -0.40625 
C 16.5 -0.40625 12.703125 5.125 11.296875 12.75 
C 10.203125 18.6875 10.203125 27.328125 10.203125 32.953125 
C 10.203125 40.6875 10.203125 47.109375 11.5 53.234375 
C 13.40625 61.78125 19 64.390625 22.90625 64.390625 
C 27 64.390625 32.296875 61.671875 34.203125 53.4375 
C 35.5 47.71875 35.59375 40.984375 35.59375 32.953125 
C 35.59375 26.421875 35.59375 18.375 34.40625 12.453125 
C 32.296875 1.5 26.40625 -0.40625 22.90625 -0.40625 
z
" id="CMR17-48"/>
     </defs>
     <g transform="translate(19.241292 243.348593)rotate(-45)scale(0.2 -0.2)">
      <use transform="scale(0.996264)" xlink:href="#CMR17-48"/>
      <use transform="translate(45.690477 0)scale(0.996264)" xlink:href="#CMR17-48"/>
     </g>
    </g>
   </g>
   <g id="xtick_2">
    <g id="line2d_3">
     <path d="M 88.423674 217.080527 
L 85.686217 218.899473 
" style="fill:none;stroke:#000000;stroke-linecap:square;stroke-width:0.8;"/>
    </g>
    <g id="text_2">
     <!-- 01 -->
     <defs>
      <path d="M 26.59375 63.796875 
C 26.59375 65.890625 26.5 66 25.09375 66 
C 21.203125 61.359375 15.296875 59.890625 9.703125 59.6875 
C 9.40625 59.6875 8.90625 59.6875 8.796875 59.5 
C 8.703125 59.296875 8.703125 59.09375 8.703125 57 
C 11.796875 57 17 57.59375 21 59.984375 
L 21 7.296875 
C 21 3.796875 20.796875 2.59375 12.203125 2.59375 
L 9.203125 2.59375 
L 9.203125 0 
C 14 0.09375 19 0.1875 23.796875 0.1875 
C 28.59375 0.1875 33.59375 0.09375 38.40625 0 
L 38.40625 2.59375 
L 35.40625 2.59375 
C 26.796875 2.59375 26.59375 3.6875 26.59375 7.296875 
z
" id="CMR17-49"/>
     </defs>
     <g transform="translate(64.453717 254.305345)rotate(-45)scale(0.2 -0.2)">
      <use transform="scale(0.996264)" xlink:href="#CMR17-48"/>
      <use transform="translate(45.690477 0)scale(0.996264)" xlink:href="#CMR17-49"/>
     </g>
    </g>
   </g>
   <g id="xtick_3">
    <g id="line2d_4">
     <path d="M 134.657625 228.095506 
L 131.977203 229.956397 
" style="fill:none;stroke:#000000;stroke-linecap:square;stroke-width:0.8;"/>
    </g>
    <g id="text_3">
     <!-- 10 -->
     <g transform="translate(110.70433 265.513691)rotate(-45)scale(0.2 -0.2)">
      <use transform="scale(0.996264)" xlink:href="#CMR17-49"/>
      <use transform="translate(45.690477 0)scale(0.996264)" xlink:href="#CMR17-48"/>
     </g>
    </g>
   </g>
   <g id="xtick_4">
    <g id="line2d_5">
     <path d="M 181.962926 239.365727 
L 179.342936 241.270032 
" style="fill:none;stroke:#000000;stroke-linecap:square;stroke-width:0.8;"/>
    </g>
    <g id="text_4">
     <!-- 11 -->
     <g transform="translate(158.029305 276.982396)rotate(-45)scale(0.2 -0.2)">
      <use transform="scale(0.996264)" xlink:href="#CMR17-49"/>
      <use transform="translate(45.690477 0)scale(0.996264)" xlink:href="#CMR17-49"/>
     </g>
    </g>
   </g>
  </g>
  <g id="axis3d_2">
   <g id="line2d_6">
    <path d="M 305.111665 171.581202 
L 205.419617 245.80086 
" style="fill:none;stroke:#000000;stroke-linecap:square;stroke-width:0.8;"/>
   </g>
   <g id="Line3DCollection_2">
    <path d="M 27.455231 56.547028 
L 34.471044 192.413474 
L 218.858418 235.795817 
" style="fill:none;stroke:#b0b0b0;stroke-width:0.8;"/>
    <path d="M 57.232024 40.730342 
L 62.623407 174.842005 
L 244.674037 216.576366 
" style="fill:none;stroke:#b0b0b0;stroke-width:0.8;"/>
    <path d="M 85.85589 25.526062 
L 89.739382 157.917404 
L 269.496985 198.095948 
" style="fill:none;stroke:#b0b0b0;stroke-width:0.8;"/>
    <path d="M 113.392516 10.899296 
L 115.875164 141.604597 
L 293.383438 180.312741 
" style="fill:none;stroke:#b0b0b0;stroke-width:0.8;"/>
   </g>
   <g id="xtick_5">
    <g id="line2d_7">
     <path d="M 217.315598 235.432825 
L 221.947489 236.522608 
" style="fill:none;stroke:#000000;stroke-linecap:square;stroke-width:0.8;"/>
    </g>
    <g id="text_5">
     <!-- 00 -->
     <g transform="translate(233.095662 248.844567)rotate(-337.5)scale(0.2 -0.2)">
      <use transform="scale(0.996264)" xlink:href="#CMR17-48"/>
      <use transform="translate(45.690477 0)scale(0.996264)" xlink:href="#CMR17-48"/>
     </g>
    </g>
   </g>
   <g id="xtick_6">
    <g id="line2d_8">
     <path d="M 243.15208 216.227463 
L 247.72127 217.274932 
" style="fill:none;stroke:#000000;stroke-linecap:square;stroke-width:0.8;"/>
    </g>
    <g id="text_6">
     <!-- 01 -->
     <g transform="translate(258.649213 229.400141)rotate(-337.5)scale(0.2 -0.2)">
      <use transform="scale(0.996264)" xlink:href="#CMR17-48"/>
      <use transform="translate(45.690477 0)scale(0.996264)" xlink:href="#CMR17-49"/>
     </g>
    </g>
   </g>
   <g id="xtick_7">
    <g id="line2d_9">
     <path d="M 267.995442 197.76033 
L 272.503283 198.767901 
" style="fill:none;stroke:#000000;stroke-linecap:square;stroke-width:0.8;"/>
    </g>
    <g id="text_7">
     <!-- 10 -->
     <g transform="translate(283.220625 210.703053)rotate(-337.5)scale(0.2 -0.2)">
      <use transform="scale(0.996264)" xlink:href="#CMR17-49"/>
      <use transform="translate(45.690477 0)scale(0.996264)" xlink:href="#CMR17-48"/>
     </g>
    </g>
   </g>
   <g id="xtick_8">
    <g id="line2d_10">
     <path d="M 291.901865 179.989663 
L 296.349691 180.959573 
" style="fill:none;stroke:#000000;stroke-linecap:square;stroke-width:0.8;"/>
    </g>
    <g id="text_8">
     <!-- 11 -->
     <g transform="translate(306.865451 192.711031)rotate(-337.5)scale(0.2 -0.2)">
      <use transform="scale(0.996264)" xlink:href="#CMR17-49"/>
      <use transform="translate(45.690477 0)scale(0.996264)" xlink:href="#CMR17-49"/>
     </g>
    </g>
   </g>
  </g>
  <g id="axis3d_3">
   <g id="line2d_11">
    <path d="M 305.111665 171.581202 
L 312.491547 37.79869 
" style="fill:none;stroke:#000000;stroke-linecap:square;stroke-width:0.8;"/>
   </g>
   <g id="Line3DCollection_3">
    <path d="M 305.261643 168.862399 
L 128.68629 130.940554 
L 19.675174 198.773816 
" style="fill:none;stroke:#b0b0b0;stroke-width:0.8;"/>
    <path d="M 306.624659 144.153637 
L 128.350899 106.914566 
L 18.220974 173.547673 
" style="fill:none;stroke:#b0b0b0;stroke-width:0.8;"/>
    <path d="M 308.014382 118.960747 
L 128.009214 82.437737 
L 16.737329 147.810753 
" style="fill:none;stroke:#b0b0b0;stroke-width:0.8;"/>
    <path d="M 309.431603 93.269358 
L 127.661058 57.497256 
L 15.223336 121.547382 
" style="fill:none;stroke:#b0b0b0;stroke-width:0.8;"/>
    <path d="M 310.877147 67.064528 
L 127.306243 32.079822 
L 13.678054 94.741242 
" style="fill:none;stroke:#b0b0b0;stroke-width:0.8;"/>
   </g>
   <g id="xtick_9">
    <g id="line2d_12">
     <path d="M 303.78837 168.545994 
L 308.211255 169.495866 
" style="fill:none;stroke:#000000;stroke-linecap:square;stroke-width:0.8;"/>
    </g>
    <g id="text_9">
     <!-- $0.0$ -->
     <defs>
      <path d="M 18.40625 4.796875 
C 18.40625 7.6875 16 9.6875 13.59375 9.6875 
C 10.703125 9.6875 8.703125 7.296875 8.703125 4.890625 
C 8.703125 2 11.09375 0 13.5 0 
C 16.40625 0 18.40625 2.390625 18.40625 4.796875 
z
" id="CMMI12-58"/>
     </defs>
     <g transform="translate(311.942858 180.758724)scale(0.2 -0.2)">
      <use transform="scale(0.996264)" xlink:href="#CMR17-48"/>
      <use transform="translate(45.690477 0)scale(0.996264)" xlink:href="#CMMI12-58"/>
      <use transform="translate(72.787654 0)scale(0.996264)" xlink:href="#CMR17-48"/>
     </g>
    </g>
   </g>
   <g id="xtick_10">
    <g id="line2d_13">
     <path d="M 305.136621 143.842806 
L 309.603861 144.775954 
" style="fill:none;stroke:#000000;stroke-linecap:square;stroke-width:0.8;"/>
    </g>
    <g id="text_10">
     <!-- $0.1$ -->
     <g transform="translate(313.482327 156.084176)scale(0.2 -0.2)">
      <use transform="scale(0.996264)" xlink:href="#CMR17-48"/>
      <use transform="translate(45.690477 0)scale(0.996264)" xlink:href="#CMMI12-58"/>
      <use transform="translate(72.787654 0)scale(0.996264)" xlink:href="#CMR17-49"/>
     </g>
    </g>
   </g>
   <g id="xtick_11">
    <g id="line2d_14">
     <path d="M 306.51128 118.655768 
L 311.023773 119.571352 
" style="fill:none;stroke:#000000;stroke-linecap:square;stroke-width:0.8;"/>
    </g>
    <g id="text_11">
     <!-- $0.2$ -->
     <defs>
      <path d="M 41.703125 15.46875 
L 39.90625 15.46875 
C 38.90625 8.390625 38.09375 7.1875 37.703125 6.59375 
C 37.203125 5.796875 30 5.796875 28.59375 5.796875 
L 9.40625 5.796875 
C 13 9.6875 20 16.765625 28.5 24.9375 
C 34.59375 30.71875 41.703125 37.5 41.703125 47.390625 
C 41.703125 59.1875 32.296875 66 21.796875 66 
C 10.796875 66 4.09375 56.296875 4.09375 47.296875 
C 4.09375 43.390625 7 42.890625 8.203125 42.890625 
C 9.203125 42.890625 12.203125 43.484375 12.203125 46.984375 
C 12.203125 50.09375 9.59375 51 8.203125 51 
C 7.59375 51 7 50.890625 6.59375 50.6875 
C 8.5 59.1875 14.296875 63.390625 20.40625 63.390625 
C 29.09375 63.390625 34.796875 56.5 34.796875 47.390625 
C 34.796875 38.703125 29.703125 31.21875 24 24.734375 
L 4.09375 2.296875 
L 4.09375 0 
L 39.296875 0 
z
" id="CMR17-50"/>
     </defs>
     <g transform="translate(315.051895 130.927216)scale(0.2 -0.2)">
      <use transform="scale(0.996264)" xlink:href="#CMR17-48"/>
      <use transform="translate(45.690477 0)scale(0.996264)" xlink:href="#CMMI12-58"/>
      <use transform="translate(72.787654 0)scale(0.996264)" xlink:href="#CMR17-50"/>
     </g>
    </g>
   </g>
   <g id="xtick_12">
    <g id="line2d_15">
     <path d="M 307.91313 92.970526 
L 312.471802 93.867664 
" style="fill:none;stroke:#000000;stroke-linecap:square;stroke-width:0.8;"/>
    </g>
    <g id="text_12">
     <!-- $0.3$ -->
     <defs>
      <path d="M 22.09375 34 
C 31 34 34.90625 26.140625 34.90625 17.09375 
C 34.90625 5.03125 28.5 0.390625 22.703125 0.390625 
C 17.40625 0.390625 8.796875 3.015625 6.09375 10.796875 
C 6.59375 10.59375 7.09375 10.59375 7.59375 10.59375 
C 10 10.59375 11.796875 12.1875 11.796875 14.796875 
C 11.796875 17.6875 9.59375 19 7.59375 19 
C 5.90625 19 3.296875 18.1875 3.296875 14.484375 
C 3.296875 5.234375 12.296875 -2 22.90625 -2 
C 34 -2 42.5 6.75 42.5 16.984375 
C 42.5 26.84375 34.5 34 25 35.09375 
C 32.59375 36.671875 39.90625 43.375 39.90625 52.390625 
C 39.90625 60.25 32 66 23 66 
C 13.90625 66 5.90625 60.34375 5.90625 52.296875 
C 5.90625 48.796875 8.5 48.1875 9.796875 48.1875 
C 11.90625 48.1875 13.703125 49.484375 13.703125 52.09375 
C 13.703125 54.6875 11.90625 56 9.796875 56 
C 9.40625 56 8.90625 56 8.5 55.796875 
C 11.40625 62.484375 19.296875 63.6875 22.796875 63.6875 
C 26.296875 63.6875 32.90625 61.96875 32.90625 52.296875 
C 32.90625 49.484375 32.5 44.546875 29.09375 40.21875 
C 26.09375 36.390625 22.703125 36.1875 19.40625 35.890625 
C 18.90625 35.890625 16.59375 35.6875 16.203125 35.6875 
C 15.5 35.59375 15.09375 35.5 15.09375 34.796875 
C 15.09375 34.09375 15.203125 34 17.203125 34 
z
" id="CMR17-51"/>
     </defs>
     <g transform="translate(316.652452 105.273558)scale(0.2 -0.2)">
      <use transform="scale(0.996264)" xlink:href="#CMR17-48"/>
      <use transform="translate(45.690477 0)scale(0.996264)" xlink:href="#CMMI12-58"/>
      <use transform="translate(72.787654 0)scale(0.996264)" xlink:href="#CMR17-51"/>
     </g>
    </g>
   </g>
   <g id="xtick_13">
    <g id="line2d_16">
     <path d="M 309.342986 66.772149 
L 313.948789 67.649917 
" style="fill:none;stroke:#000000;stroke-linecap:square;stroke-width:0.8;"/>
    </g>
    <g id="text_13">
     <!-- $0.4$ -->
     <defs>
      <path d="M 33.59375 64.796875 
C 33.59375 66.890625 33.5 67 31.703125 67 
L 2 19.59375 
L 2 17 
L 27.796875 17 
L 27.796875 7.1875 
C 27.796875 3.59375 27.59375 2.59375 20.59375 2.59375 
L 18.703125 2.59375 
L 18.703125 0 
C 21.90625 0.1875 27.296875 0.1875 30.703125 0.1875 
C 34.09375 0.1875 39.5 0.1875 42.703125 0 
L 42.703125 2.59375 
L 40.796875 2.59375 
C 33.796875 2.59375 33.59375 3.59375 33.59375 7.1875 
L 33.59375 17 
L 43.796875 17 
L 43.796875 19.59375 
L 33.59375 19.59375 
z
M 28.09375 58.171875 
L 28.09375 19.59375 
L 4 19.59375 
z
" id="CMR17-52"/>
     </defs>
     <g transform="translate(318.284925 79.108344)scale(0.2 -0.2)">
      <use transform="scale(0.996264)" xlink:href="#CMR17-48"/>
      <use transform="translate(45.690477 0)scale(0.996264)" xlink:href="#CMMI12-58"/>
      <use transform="translate(72.787654 0)scale(0.996264)" xlink:href="#CMR17-52"/>
     </g>
    </g>
   </g>
  </g>
  <g id="axes_1">
   <g id="Poly3DCollection_1">
    <path clip-path="url(#pb6be1994f2)" d="M 133.049652 137.305807 
L 133.008967 133.99854 
L 154.424681 138.609017 
L 154.438002 141.927679 
z
" style="fill:#5d0618;fill-opacity:0.8;"/>
    <path clip-path="url(#pb6be1994f2)" d="M 120.268167 145.341954 
L 120.210567 142.014914 
L 133.008967 133.99854 
L 133.049652 137.305807 
z
" style="fill:#ba0c2f;fill-opacity:0.8;"/>
    <path clip-path="url(#pb6be1994f2)" d="M 120.268167 145.341954 
L 133.049652 137.305807 
L 154.438002 141.927679 
L 141.78484 150.048662 
z
" style="fill:#74081d;fill-opacity:0.8;"/>
    <path clip-path="url(#pb6be1994f2)" d="M 120.210567 142.014914 
L 141.754933 146.710129 
L 154.424681 138.609017 
L 133.008967 133.99854 
z
" style="fill:#a30a29;fill-opacity:0.8;"/>
    <path clip-path="url(#pb6be1994f2)" d="M 141.78484 150.048662 
L 154.438002 141.927679 
L 154.424681 138.609017 
L 141.754933 146.710129 
z
" style="fill:#5d0618;fill-opacity:0.8;"/>
    <path clip-path="url(#pb6be1994f2)" d="M 120.268167 145.341954 
L 141.78484 150.048662 
L 141.754933 146.710129 
L 120.210567 142.014914 
z
" style="fill:#ba0c2f;fill-opacity:0.8;"/>
   </g>
   <g id="Poly3DCollection_2">
    <path clip-path="url(#pb6be1994f2)" d="M 176.051707 146.598249 
L 176.054382 145.989083 
L 197.902244 150.707023 
L 197.894348 151.31829 
z
" style="fill:#5d0618;fill-opacity:0.8;"/>
    <path clip-path="url(#pb6be1994f2)" d="M 163.530309 154.805419 
L 163.530012 154.192606 
L 176.054382 145.989083 
L 176.051707 146.598249 
z
" style="fill:#ba0c2f;fill-opacity:0.8;"/>
    <path clip-path="url(#pb6be1994f2)" d="M 163.530309 154.805419 
L 176.051707 146.598249 
L 197.894348 151.31829 
L 185.50824 159.613026 
z
" style="fill:#74081d;fill-opacity:0.8;"/>
    <path clip-path="url(#pb6be1994f2)" d="M 163.530012 154.192606 
L 185.51323 158.998094 
L 197.902244 150.707023 
L 176.054382 145.989083 
z
" style="fill:#a30a29;fill-opacity:0.8;"/>
    <path clip-path="url(#pb6be1994f2)" d="M 185.50824 159.613026 
L 197.894348 151.31829 
L 197.902244 150.707023 
L 185.51323 158.998094 
z
" style="fill:#5d0618;fill-opacity:0.8;"/>
    <path clip-path="url(#pb6be1994f2)" d="M 163.530309 154.805419 
L 185.50824 159.613026 
L 185.51323 158.998094 
L 163.530012 154.192606 
z
" style="fill:#ba0c2f;fill-opacity:0.8;"/>
   </g>
   <g id="Poly3DCollection_3">
    <path clip-path="url(#pb6be1994f2)" d="M 107.251614 153.525896 
L 107.229729 152.550977 
L 128.884007 157.341507 
L 128.897728 158.319799 
z
" style="fill:#5d0618;fill-opacity:0.8;"/>
    <path clip-path="url(#pb6be1994f2)" d="M 93.993447 161.861749 
L 93.966267 160.880979 
L 107.229729 152.550977 
L 107.251614 153.525896 
z
" style="fill:#ba0c2f;fill-opacity:0.8;"/>
    <path clip-path="url(#pb6be1994f2)" d="M 93.993447 161.861749 
L 107.251614 153.525896 
L 128.897728 158.319799 
L 115.770116 166.745291 
z
" style="fill:#74081d;fill-opacity:0.8;"/>
    <path clip-path="url(#pb6be1994f2)" d="M 93.966267 160.880979 
L 115.751198 165.761121 
L 128.884007 157.341507 
L 107.229729 152.550977 
z
" style="fill:#a30a29;fill-opacity:0.8;"/>
    <path clip-path="url(#pb6be1994f2)" d="M 115.770116 166.745291 
L 128.897728 158.319799 
L 128.884007 157.341507 
L 115.751198 165.761121 
z
" style="fill:#5d0618;fill-opacity:0.8;"/>
    <path clip-path="url(#pb6be1994f2)" d="M 93.993447 161.861749 
L 115.770116 166.745291 
L 115.751198 165.761121 
L 93.966267 160.880979 
z
" style="fill:#ba0c2f;fill-opacity:0.8;"/>
   </g>
   <g id="Poly3DCollection_4">
    <path clip-path="url(#pb6be1994f2)" d="M 219.969581 156.088593 
L 219.974486 155.861182 
L 242.288066 160.681766 
L 242.281142 160.909964 
z
" style="fill:#5d0618;fill-opacity:0.8;"/>
    <path clip-path="url(#pb6be1994f2)" d="M 207.722384 164.472304 
L 207.726235 164.243528 
L 219.974486 155.861182 
L 219.969581 156.088593 
z
" style="fill:#ba0c2f;fill-opacity:0.8;"/>
    <path clip-path="url(#pb6be1994f2)" d="M 207.722384 164.472304 
L 219.969581 156.088593 
L 242.281142 160.909964 
L 230.176567 169.38409 
z
" style="fill:#74081d;fill-opacity:0.8;"/>
    <path clip-path="url(#pb6be1994f2)" d="M 207.726235 164.243528 
L 230.182464 169.154521 
L 242.288066 160.681766 
L 219.974486 155.861182 
z
" style="fill:#a30a29;fill-opacity:0.8;"/>
    <path clip-path="url(#pb6be1994f2)" d="M 230.176567 169.38409 
L 242.281142 160.909964 
L 242.288066 160.681766 
L 230.182464 169.154521 
z
" style="fill:#5d0618;fill-opacity:0.8;"/>
    <path clip-path="url(#pb6be1994f2)" d="M 207.722384 164.472304 
L 230.176567 169.38409 
L 230.182464 169.154521 
L 207.726235 164.243528 
z
" style="fill:#ba0c2f;fill-opacity:0.8;"/>
   </g>
   <g id="Poly3DCollection_5">
    <path clip-path="url(#pb6be1994f2)" d="M 150.776153 163.16515 
L 150.775685 163.079824 
L 172.890922 167.977161 
L 172.890649 168.062783 
z
" style="fill:#5d0618;fill-opacity:0.8;"/>
    <path clip-path="url(#pb6be1994f2)" d="M 137.78269 171.681736 
L 137.781779 171.595896 
L 150.775685 163.079824 
L 150.776153 163.16515 
z
" style="fill:#ba0c2f;fill-opacity:0.8;"/>
    <path clip-path="url(#pb6be1994f2)" d="M 137.78269 171.681736 
L 150.776153 163.16515 
L 172.890649 168.062783 
L 160.035022 176.671948 
z
" style="fill:#74081d;fill-opacity:0.8;"/>
    <path clip-path="url(#pb6be1994f2)" d="M 137.781779 171.595896 
L 160.034862 176.58581 
L 172.890922 167.977161 
L 150.775685 163.079824 
z
" style="fill:#a30a29;fill-opacity:0.8;"/>
    <path clip-path="url(#pb6be1994f2)" d="M 160.035022 176.671948 
L 172.890649 168.062783 
L 172.890922 167.977161 
L 160.034862 176.58581 
z
" style="fill:#5d0618;fill-opacity:0.8;"/>
    <path clip-path="url(#pb6be1994f2)" d="M 137.78269 171.681736 
L 160.035022 176.671948 
L 160.034862 176.58581 
L 137.781779 171.595896 
z
" style="fill:#ba0c2f;fill-opacity:0.8;"/>
   </g>
   <g id="Poly3DCollection_6">
    <path clip-path="url(#pb6be1994f2)" d="M 80.486876 170.353782 
L 80.492653 170.528244 
L 102.399507 175.504569 
L 102.395209 175.329501 
z
" style="fill:#ba0c2f;fill-opacity:0.8;"/>
    <path clip-path="url(#pb6be1994f2)" d="M 66.724854 179.006426 
L 66.731637 179.181938 
L 80.492653 170.528244 
L 80.486876 170.353782 
z
" style="fill:#5d0618;fill-opacity:0.8;"/>
    <path clip-path="url(#pb6be1994f2)" d="M 66.731637 179.181938 
L 88.771239 184.25308 
L 102.399507 175.504569 
L 80.492653 170.528244 
z
" style="fill:#a30a29;fill-opacity:0.8;"/>
    <path clip-path="url(#pb6be1994f2)" d="M 66.724854 179.006426 
L 80.486876 170.353782 
L 102.395209 175.329501 
L 88.765951 184.076957 
z
" style="fill:#74081d;fill-opacity:0.8;"/>
    <path clip-path="url(#pb6be1994f2)" d="M 88.765951 184.076957 
L 102.395209 175.329501 
L 102.399507 175.504569 
L 88.771239 184.25308 
z
" style="fill:#ba0c2f;fill-opacity:0.8;"/>
    <path clip-path="url(#pb6be1994f2)" d="M 66.724854 179.006426 
L 88.765951 184.076957 
L 88.771239 184.25308 
L 66.731637 179.181938 
z
" style="fill:#5d0618;fill-opacity:0.8;"/>
   </g>
   <g id="Poly3DCollection_7">
    <path clip-path="url(#pb6be1994f2)" d="M 195.245056 173.013549 
L 195.248416 172.733289 
L 217.849184 177.737083 
L 217.843302 178.018317 
z
" style="fill:#5d0618;fill-opacity:0.8;"/>
    <path clip-path="url(#pb6be1994f2)" d="M 182.531052 181.71681 
L 182.533028 181.43486 
L 195.248416 172.733289 
L 195.245056 173.013549 
z
" style="fill:#ba0c2f;fill-opacity:0.8;"/>
    <path clip-path="url(#pb6be1994f2)" d="M 182.531052 181.71681 
L 195.245056 173.013549 
L 217.843302 178.018317 
L 205.274803 186.817226 
z
" style="fill:#74081d;fill-opacity:0.8;"/>
    <path clip-path="url(#pb6be1994f2)" d="M 182.533028 181.43486 
L 205.279335 186.534293 
L 217.849184 177.737083 
L 195.248416 172.733289 
z
" style="fill:#a30a29;fill-opacity:0.8;"/>
    <path clip-path="url(#pb6be1994f2)" d="M 205.274803 186.817226 
L 217.843302 178.018317 
L 217.849184 177.737083 
L 205.279335 186.534293 
z
" style="fill:#5d0618;fill-opacity:0.8;"/>
    <path clip-path="url(#pb6be1994f2)" d="M 182.531052 181.71681 
L 205.274803 186.817226 
L 205.279335 186.534293 
L 182.533028 181.43486 
z
" style="fill:#ba0c2f;fill-opacity:0.8;"/>
   </g>
   <g id="Poly3DCollection_8">
    <path clip-path="url(#pb6be1994f2)" d="M 124.54312 180.359633 
L 124.538736 180.083333 
L 146.932607 185.167811 
L 146.934561 185.445073 
z
" style="fill:#5d0618;fill-opacity:0.8;"/>
    <path clip-path="url(#pb6be1994f2)" d="M 111.050384 189.203467 
L 111.044474 188.925499 
L 124.538736 180.083333 
L 124.54312 180.359633 
z
" style="fill:#ba0c2f;fill-opacity:0.8;"/>
    <path clip-path="url(#pb6be1994f2)" d="M 111.050384 189.203467 
L 124.54312 180.359633 
L 146.934561 185.445073 
L 133.582203 194.386888 
z
" style="fill:#74081d;fill-opacity:0.8;"/>
    <path clip-path="url(#pb6be1994f2)" d="M 111.044474 188.925499 
L 133.578753 194.10795 
L 146.932607 185.167811 
L 124.538736 180.083333 
z
" style="fill:#a30a29;fill-opacity:0.8;"/>
    <path clip-path="url(#pb6be1994f2)" d="M 133.582203 194.386888 
L 146.934561 185.445073 
L 146.932607 185.167811 
L 133.578753 194.10795 
z
" style="fill:#5d0618;fill-opacity:0.8;"/>
    <path clip-path="url(#pb6be1994f2)" d="M 111.050384 189.203467 
L 133.582203 194.386888 
L 133.578753 194.10795 
L 111.044474 188.925499 
z
" style="fill:#ba0c2f;fill-opacity:0.8;"/>
   </g>
   <g id="Poly3DCollection_9">
    <path clip-path="url(#pb6be1994f2)" d="M 240.689396 183.077976 
L 240.696343 182.84622 
L 263.79655 187.960869 
L 263.78744 188.193433 
z
" style="fill:#5d0618;fill-opacity:0.8;"/>
    <path clip-path="url(#pb6be1994f2)" d="M 228.270392 191.974117 
L 228.276259 191.74096 
L 240.696343 182.84622 
L 240.689396 183.077976 
z
" style="fill:#ba0c2f;fill-opacity:0.8;"/>
    <path clip-path="url(#pb6be1994f2)" d="M 228.270392 191.974117 
L 240.689396 183.077976 
L 263.78744 188.193433 
L 251.522024 197.188427 
z
" style="fill:#74081d;fill-opacity:0.8;"/>
    <path clip-path="url(#pb6be1994f2)" d="M 228.276259 191.74096 
L 251.530083 196.954457 
L 263.79655 187.960869 
L 240.696343 182.84622 
z
" style="fill:#a30a29;fill-opacity:0.8;"/>
    <path clip-path="url(#pb6be1994f2)" d="M 251.522024 197.188427 
L 263.78744 188.193433 
L 263.79655 187.960869 
L 251.530083 196.954457 
z
" style="fill:#5d0618;fill-opacity:0.8;"/>
    <path clip-path="url(#pb6be1994f2)" d="M 228.270392 191.974117 
L 251.522024 197.188427 
L 251.530083 196.954457 
L 228.276259 191.74096 
z
" style="fill:#ba0c2f;fill-opacity:0.8;"/>
   </g>
   <g id="Poly3DCollection_10">
    <path clip-path="url(#pb6be1994f2)" d="M 169.57357 190.58674 
L 169.573736 190.49978 
L 192.465236 195.698309 
L 192.464277 195.785572 
z
" style="fill:#5d0618;fill-opacity:0.8;"/>
    <path clip-path="url(#pb6be1994f2)" d="M 156.365552 199.628174 
L 156.365259 199.540688 
L 169.573736 190.49978 
L 169.57357 190.58674 
z
" style="fill:#ba0c2f;fill-opacity:0.8;"/>
    <path clip-path="url(#pb6be1994f2)" d="M 156.365552 199.628174 
L 169.57357 190.58674 
L 192.464277 195.785572 
L 179.404665 204.928297 
z
" style="fill:#74081d;fill-opacity:0.8;"/>
    <path clip-path="url(#pb6be1994f2)" d="M 156.365259 199.540688 
L 179.405176 204.840505 
L 192.465236 195.698309 
L 169.573736 190.49978 
z
" style="fill:#a30a29;fill-opacity:0.8;"/>
    <path clip-path="url(#pb6be1994f2)" d="M 179.404665 204.928297 
L 192.464277 195.785572 
L 192.465236 195.698309 
L 179.405176 204.840505 
z
" style="fill:#5d0618;fill-opacity:0.8;"/>
    <path clip-path="url(#pb6be1994f2)" d="M 156.365552 199.628174 
L 179.404665 204.928297 
L 179.405176 204.840505 
L 156.365259 199.540688 
z
" style="fill:#ba0c2f;fill-opacity:0.8;"/>
   </g>
   <g id="Poly3DCollection_11">
    <path clip-path="url(#pb6be1994f2)" d="M 97.297151 198.218046 
L 97.301916 198.395852 
L 119.973795 203.680734 
L 119.970614 203.502307 
z
" style="fill:#ba0c2f;fill-opacity:0.8;"/>
    <path clip-path="url(#pb6be1994f2)" d="M 83.275802 207.40836 
L 83.281614 207.587244 
L 97.301916 198.395852 
L 97.297151 198.218046 
z
" style="fill:#5d0618;fill-opacity:0.8;"/>
    <path clip-path="url(#pb6be1994f2)" d="M 83.281614 207.587244 
L 106.096377 212.975942 
L 119.973795 203.680734 
L 97.301916 198.395852 
z
" style="fill:#a30a29;fill-opacity:0.8;"/>
    <path clip-path="url(#pb6be1994f2)" d="M 83.275802 207.40836 
L 97.297151 198.218046 
L 119.970614 203.502307 
L 106.092168 212.796433 
z
" style="fill:#74081d;fill-opacity:0.8;"/>
    <path clip-path="url(#pb6be1994f2)" d="M 106.092168 212.796433 
L 119.970614 203.502307 
L 119.973795 203.680734 
L 106.096377 212.975942 
z
" style="fill:#ba0c2f;fill-opacity:0.8;"/>
    <path clip-path="url(#pb6be1994f2)" d="M 83.275802 207.40836 
L 106.092168 212.796433 
L 106.096377 212.975942 
L 83.281614 207.587244 
z
" style="fill:#5d0618;fill-opacity:0.8;"/>
   </g>
   <g id="Poly3DCollection_12">
    <path clip-path="url(#pb6be1994f2)" d="M 215.610902 201.042526 
L 215.623694 200.409836 
L 239.036548 205.723681 
L 239.017762 206.358583 
z
" style="fill:#5d0618;fill-opacity:0.8;"/>
    <path clip-path="url(#pb6be1994f2)" d="M 202.703873 210.288255 
L 202.713511 209.651727 
L 215.623694 200.409836 
L 215.610902 201.042526 
z
" style="fill:#ba0c2f;fill-opacity:0.8;"/>
    <path clip-path="url(#pb6be1994f2)" d="M 202.703873 210.288255 
L 215.610902 201.042526 
L 239.017762 206.358583 
L 226.267607 215.709067 
z
" style="fill:#74081d;fill-opacity:0.8;"/>
    <path clip-path="url(#pb6be1994f2)" d="M 202.713511 209.651727 
L 226.28332 215.07031 
L 239.036548 205.723681 
L 215.623694 200.409836 
z
" style="fill:#a30a29;fill-opacity:0.8;"/>
    <path clip-path="url(#pb6be1994f2)" d="M 226.267607 215.709067 
L 239.017762 206.358583 
L 239.036548 205.723681 
L 226.28332 215.07031 
z
" style="fill:#5d0618;fill-opacity:0.8;"/>
    <path clip-path="url(#pb6be1994f2)" d="M 202.703873 210.288255 
L 226.267607 215.709067 
L 226.28332 215.07031 
L 202.713511 209.651727 
z
" style="fill:#ba0c2f;fill-opacity:0.8;"/>
   </g>
   <g id="Poly3DCollection_13">
    <path clip-path="url(#pb6be1994f2)" d="M 142.899658 208.846133 
L 142.890824 207.833488 
L 166.089165 213.234346 
L 166.088629 214.250538 
z
" style="fill:#5d0618;fill-opacity:0.8;"/>
    <path clip-path="url(#pb6be1994f2)" d="M 129.168262 218.24584 
L 129.15374 217.227042 
L 142.890824 207.833488 
L 142.899658 208.846133 
z
" style="fill:#ba0c2f;fill-opacity:0.8;"/>
    <path clip-path="url(#pb6be1994f2)" d="M 129.168262 218.24584 
L 142.899658 208.846133 
L 166.088629 214.250538 
L 152.508544 223.757635 
z
" style="fill:#74081d;fill-opacity:0.8;"/>
    <path clip-path="url(#pb6be1994f2)" d="M 129.15374 217.227042 
L 152.503514 222.735264 
L 166.089165 213.234346 
L 142.890824 207.833488 
z
" style="fill:#a30a29;fill-opacity:0.8;"/>
    <path clip-path="url(#pb6be1994f2)" d="M 152.508544 223.757635 
L 166.088629 214.250538 
L 166.089165 213.234346 
L 152.503514 222.735264 
z
" style="fill:#5d0618;fill-opacity:0.8;"/>
    <path clip-path="url(#pb6be1994f2)" d="M 129.168262 218.24584 
L 152.508544 223.757635 
L 152.503514 222.735264 
L 129.15374 217.227042 
z
" style="fill:#ba0c2f;fill-opacity:0.8;"/>
   </g>
   <g id="Poly3DCollection_14">
    <path clip-path="url(#pb6be1994f2)" d="M 252.874702 174.34924 
L 264.832846 165.783229 
L 287.628591 170.709229 
L 275.820787 179.368628 
z
" style="fill:#74081d;fill-opacity:0.8;"/>
    <path clip-path="url(#pb6be1994f2)" d="M 264.832846 165.783229 
L 269.853873 37.832394 
L 293.828503 42.279736 
L 287.628591 170.709229 
z
" style="fill:#5d0618;fill-opacity:0.8;"/>
    <path clip-path="url(#pb6be1994f2)" d="M 252.874702 174.34924 
L 257.339398 45.567601 
L 269.853873 37.832394 
L 264.832846 165.783229 
z
" style="fill:#ba0c2f;fill-opacity:0.8;"/>
    <path clip-path="url(#pb6be1994f2)" d="M 275.820787 179.368628 
L 287.628591 170.709229 
L 293.828503 42.279736 
L 281.480557 50.103563 
z
" style="fill:#5d0618;fill-opacity:0.8;"/>
    <path clip-path="url(#pb6be1994f2)" d="M 252.874702 174.34924 
L 275.820787 179.368628 
L 281.480557 50.103563 
L 257.339398 45.567601 
z
" style="fill:#ba0c2f;fill-opacity:0.8;"/>
    <path clip-path="url(#pb6be1994f2)" d="M 257.339398 45.567601 
L 281.480557 50.103563 
L 293.828503 42.279736 
L 269.853873 37.832394 
z
" style="fill:#a30a29;fill-opacity:0.8;"/>
   </g>
   <g id="Poly3DCollection_15">
    <path clip-path="url(#pb6be1994f2)" d="M 189.541973 219.716558 
L 189.576722 216.215415 
L 213.332651 221.731808 
L 213.264236 225.245251 
z
" style="fill:#5d0618;fill-opacity:0.8;"/>
    <path clip-path="url(#pb6be1994f2)" d="M 176.117576 229.332895 
L 176.133654 225.810413 
L 189.576722 216.215415 
L 189.541973 219.716558 
z
" style="fill:#ba0c2f;fill-opacity:0.8;"/>
    <path clip-path="url(#pb6be1994f2)" d="M 176.117576 229.332895 
L 189.541973 219.716558 
L 213.264236 225.245251 
L 200.000028 234.972723 
z
" style="fill:#74081d;fill-opacity:0.8;"/>
    <path clip-path="url(#pb6be1994f2)" d="M 176.133654 225.810413 
L 200.05023 231.437852 
L 213.332651 221.731808 
L 189.576722 216.215415 
z
" style="fill:#a30a29;fill-opacity:0.8;"/>
    <path clip-path="url(#pb6be1994f2)" d="M 200.000028 234.972723 
L 213.264236 225.245251 
L 213.332651 221.731808 
L 200.05023 231.437852 
z
" style="fill:#5d0618;fill-opacity:0.8;"/>
    <path clip-path="url(#pb6be1994f2)" d="M 176.117576 229.332895 
L 200.000028 234.972723 
L 200.05023 231.437852 
L 176.133654 225.810413 
z
" style="fill:#ba0c2f;fill-opacity:0.8;"/>
   </g>
   <g id="Poly3DCollection_16">
    <path clip-path="url(#pb6be1994f2)" d="M 25.570067 198.156403 
L 203.738956 240.427055 
L 299.727499 169.442028 
L 130.05083 132.931139 
z
" style="fill-opacity:0.15;"/>
   </g>
   <g id="Poly3DCollection_17">
    <path clip-path="url(#pb6be1994f2)" d="M 38.404908 196.812123 
L 52.700063 187.82428 
L 74.875019 192.99236 
L 60.714803 202.080593 
z
" style="fill:#74081d;fill-opacity:0.8;"/>
    <path clip-path="url(#pb6be1994f2)" d="M 52.700063 187.82428 
L 46.935702 57.799204 
L 70.224297 62.476722 
L 74.875019 192.99236 
z
" style="fill:#5d0618;fill-opacity:0.8;"/>
    <path clip-path="url(#pb6be1994f2)" d="M 38.404908 196.812123 
L 31.839355 65.935623 
L 46.935702 57.799204 
L 52.700063 187.82428 
z
" style="fill:#ba0c2f;fill-opacity:0.8;"/>
    <path clip-path="url(#pb6be1994f2)" d="M 60.714803 202.080593 
L 74.875019 192.99236 
L 70.224297 62.476722 
L 55.276583 70.70876 
z
" style="fill:#5d0618;fill-opacity:0.8;"/>
    <path clip-path="url(#pb6be1994f2)" d="M 38.404908 196.812123 
L 60.714803 202.080593 
L 55.276583 70.70876 
L 31.839355 65.935623 
z
" style="fill:#ba0c2f;fill-opacity:0.8;"/>
    <path clip-path="url(#pb6be1994f2)" d="M 31.839355 65.935623 
L 55.276583 70.70876 
L 70.224297 62.476722 
L 46.935702 57.799204 
z
" style="fill:#a30a29;fill-opacity:0.8;"/>
   </g>
  </g>
  <g id="patch_6">
   <path d="M 425.945455 262.8 
L 806.4 262.8 
L 806.4 -14.4 
L 425.945455 -14.4 
z
" style="fill:#ffffff;"/>
  </g>
  <g id="pane3d_4">
   <g id="patch_7">
    <path d="M 476.380584 201.548569 
L 585.268665 133.58541 
L 583.455794 3.718968 
L 468.496488 64.782468 
" style="fill:#f2f2f2;opacity:0.5;stroke:#f2f2f2;stroke-linejoin:miter;"/>
   </g>
  </g>
  <g id="pane3d_5">
   <g id="patch_8">
    <path d="M 585.268665 133.58541 
L 761.65712 171.581202 
L 769.037001 37.79869 
L 583.455794 3.718968 
" style="fill:#e6e6e6;opacity:0.5;stroke:#e6e6e6;stroke-linejoin:miter;"/>
   </g>
  </g>
  <g id="pane3d_6">
   <g id="patch_9">
    <path d="M 476.380584 201.548569 
L 661.965072 245.80086 
L 761.65712 171.581202 
L 585.268665 133.58541 
" style="fill:#ececec;opacity:0.5;stroke:#ececec;stroke-linejoin:miter;"/>
   </g>
  </g>
  <g id="axis3d_4">
   <g id="line2d_17">
    <path d="M 476.380584 201.548569 
L 661.965072 245.80086 
" style="fill:none;stroke:#000000;stroke-linecap:square;stroke-width:0.8;"/>
   </g>
   <g id="Line3DCollection_4">
    <path d="M 498.841271 206.90428 
L 606.679397 138.19749 
L 605.9393 7.847789 
" style="fill:none;stroke:#b0b0b0;stroke-width:0.8;"/>
    <path d="M 544.057792 217.686079 
L 649.729469 147.470895 
L 651.182353 16.156123 
" style="fill:none;stroke:#b0b0b0;stroke-width:0.8;"/>
    <path d="M 590.310744 228.715013 
L 693.693551 156.941187 
L 697.435637 24.649974 
" style="fill:none;stroke:#b0b0b0;stroke-width:0.8;"/>
    <path d="M 637.636176 239.999678 
L 738.601063 166.614702 
L 744.733372 33.335625 
" style="fill:none;stroke:#b0b0b0;stroke-width:0.8;"/>
   </g>
   <g id="xtick_14">
    <g id="line2d_18">
     <path d="M 499.770538 206.312217 
L 496.979262 208.09062 
" style="fill:none;stroke:#000000;stroke-linecap:square;stroke-width:0.8;"/>
    </g>
    <g id="text_14">
     <!-- 00 -->
     <g transform="translate(475.786746 243.348593)rotate(-45)scale(0.2 -0.2)">
      <use transform="scale(0.996264)" xlink:href="#CMR17-48"/>
      <use transform="translate(45.690477 0)scale(0.996264)" xlink:href="#CMR17-48"/>
     </g>
    </g>
   </g>
   <g id="xtick_15">
    <g id="line2d_19">
     <path d="M 544.969128 217.080527 
L 542.231671 218.899473 
" style="fill:none;stroke:#000000;stroke-linecap:square;stroke-width:0.8;"/>
    </g>
    <g id="text_15">
     <!-- 01 -->
     <g transform="translate(520.999172 254.305345)rotate(-45)scale(0.2 -0.2)">
      <use transform="scale(0.996264)" xlink:href="#CMR17-48"/>
      <use transform="translate(45.690477 0)scale(0.996264)" xlink:href="#CMR17-49"/>
     </g>
    </g>
   </g>
   <g id="xtick_16">
    <g id="line2d_20">
     <path d="M 591.20308 228.095506 
L 588.522658 229.956397 
" style="fill:none;stroke:#000000;stroke-linecap:square;stroke-width:0.8;"/>
    </g>
    <g id="text_16">
     <!-- 10 -->
     <g transform="translate(567.249784 265.513691)rotate(-45)scale(0.2 -0.2)">
      <use transform="scale(0.996264)" xlink:href="#CMR17-49"/>
      <use transform="translate(45.690477 0)scale(0.996264)" xlink:href="#CMR17-48"/>
     </g>
    </g>
   </g>
   <g id="xtick_17">
    <g id="line2d_21">
     <path d="M 638.50838 239.365727 
L 635.888391 241.270032 
" style="fill:none;stroke:#000000;stroke-linecap:square;stroke-width:0.8;"/>
    </g>
    <g id="text_17">
     <!-- 11 -->
     <g transform="translate(614.574759 276.982396)rotate(-45)scale(0.2 -0.2)">
      <use transform="scale(0.996264)" xlink:href="#CMR17-49"/>
      <use transform="translate(45.690477 0)scale(0.996264)" xlink:href="#CMR17-49"/>
     </g>
    </g>
   </g>
  </g>
  <g id="axis3d_5">
   <g id="line2d_22">
    <path d="M 761.65712 171.581202 
L 661.965072 245.80086 
" style="fill:none;stroke:#000000;stroke-linecap:square;stroke-width:0.8;"/>
   </g>
   <g id="Line3DCollection_5">
    <path d="M 484.000685 56.547028 
L 491.016499 192.413474 
L 675.403872 235.795817 
" style="fill:none;stroke:#b0b0b0;stroke-width:0.8;"/>
    <path d="M 513.777478 40.730342 
L 519.168861 174.842005 
L 701.219492 216.576366 
" style="fill:none;stroke:#b0b0b0;stroke-width:0.8;"/>
    <path d="M 542.401344 25.526062 
L 546.284836 157.917404 
L 726.04244 198.095948 
" style="fill:none;stroke:#b0b0b0;stroke-width:0.8;"/>
    <path d="M 569.937971 10.899296 
L 572.420618 141.604597 
L 749.928893 180.312741 
" style="fill:none;stroke:#b0b0b0;stroke-width:0.8;"/>
   </g>
   <g id="xtick_18">
    <g id="line2d_23">
     <path d="M 673.861052 235.432825 
L 678.492943 236.522608 
" style="fill:none;stroke:#000000;stroke-linecap:square;stroke-width:0.8;"/>
    </g>
    <g id="text_18">
     <!-- 00 -->
     <g transform="translate(689.641116 248.844567)rotate(-337.5)scale(0.2 -0.2)">
      <use transform="scale(0.996264)" xlink:href="#CMR17-48"/>
      <use transform="translate(45.690477 0)scale(0.996264)" xlink:href="#CMR17-48"/>
     </g>
    </g>
   </g>
   <g id="xtick_19">
    <g id="line2d_24">
     <path d="M 699.697534 216.227463 
L 704.266725 217.274932 
" style="fill:none;stroke:#000000;stroke-linecap:square;stroke-width:0.8;"/>
    </g>
    <g id="text_19">
     <!-- 01 -->
     <g transform="translate(715.194668 229.400141)rotate(-337.5)scale(0.2 -0.2)">
      <use transform="scale(0.996264)" xlink:href="#CMR17-48"/>
      <use transform="translate(45.690477 0)scale(0.996264)" xlink:href="#CMR17-49"/>
     </g>
    </g>
   </g>
   <g id="xtick_20">
    <g id="line2d_25">
     <path d="M 724.540896 197.76033 
L 729.048738 198.767901 
" style="fill:none;stroke:#000000;stroke-linecap:square;stroke-width:0.8;"/>
    </g>
    <g id="text_20">
     <!-- 10 -->
     <g transform="translate(739.766079 210.703053)rotate(-337.5)scale(0.2 -0.2)">
      <use transform="scale(0.996264)" xlink:href="#CMR17-49"/>
      <use transform="translate(45.690477 0)scale(0.996264)" xlink:href="#CMR17-48"/>
     </g>
    </g>
   </g>
   <g id="xtick_21">
    <g id="line2d_26">
     <path d="M 748.44732 179.989663 
L 752.895146 180.959573 
" style="fill:none;stroke:#000000;stroke-linecap:square;stroke-width:0.8;"/>
    </g>
    <g id="text_21">
     <!-- 11 -->
     <g transform="translate(763.410906 192.711031)rotate(-337.5)scale(0.2 -0.2)">
      <use transform="scale(0.996264)" xlink:href="#CMR17-49"/>
      <use transform="translate(45.690477 0)scale(0.996264)" xlink:href="#CMR17-49"/>
     </g>
    </g>
   </g>
  </g>
  <g id="axis3d_6">
   <g id="line2d_27">
    <path d="M 761.65712 171.581202 
L 769.037001 37.79869 
" style="fill:none;stroke:#000000;stroke-linecap:square;stroke-width:0.8;"/>
   </g>
   <g id="Line3DCollection_6">
    <path d="M 761.851512 168.057266 
L 585.220811 130.157364 
L 476.173258 197.952076 
" style="fill:none;stroke:#b0b0b0;stroke-width:0.8;"/>
    <path d="M 764.587497 118.459312 
L 584.547871 81.950759 
L 473.253243 147.29832 
" style="fill:none;stroke:#b0b0b0;stroke-width:0.8;"/>
    <path d="M 767.432126 66.89187 
L 583.849361 31.912424 
L 470.213324 94.564562 
" style="fill:none;stroke:#b0b0b0;stroke-width:0.8;"/>
   </g>
   <g id="xtick_22">
    <g id="line2d_28">
     <path d="M 760.377757 167.74104 
L 764.802087 168.690375 
" style="fill:none;stroke:#000000;stroke-linecap:square;stroke-width:0.8;"/>
    </g>
    <g id="text_22">
     <!-- $0.0$ -->
     <g transform="translate(768.538477 179.95469)scale(0.2 -0.2)">
      <use transform="scale(0.996264)" xlink:href="#CMR17-48"/>
      <use transform="translate(45.690477 0)scale(0.996264)" xlink:href="#CMMI12-58"/>
      <use transform="translate(72.787654 0)scale(0.996264)" xlink:href="#CMR17-48"/>
     </g>
    </g>
   </g>
   <g id="xtick_23">
    <g id="line2d_29">
     <path d="M 763.084096 118.154452 
L 767.59749 119.069681 
" style="fill:none;stroke:#000000;stroke-linecap:square;stroke-width:0.8;"/>
    </g>
    <g id="text_23">
     <!-- $0.2$ -->
     <g transform="translate(771.628589 130.426507)scale(0.2 -0.2)">
      <use transform="scale(0.996264)" xlink:href="#CMR17-48"/>
      <use transform="translate(45.690477 0)scale(0.996264)" xlink:href="#CMMI12-58"/>
      <use transform="translate(72.787654 0)scale(0.996264)" xlink:href="#CMR17-50"/>
     </g>
    </g>
   </g>
   <g id="xtick_24">
    <g id="line2d_30">
     <path d="M 765.897861 66.599534 
L 770.503976 67.477173 
" style="fill:none;stroke:#000000;stroke-linecap:square;stroke-width:0.8;"/>
    </g>
    <g id="text_24">
     <!-- $0.4$ -->
     <g transform="translate(774.841135 78.935951)scale(0.2 -0.2)">
      <use transform="scale(0.996264)" xlink:href="#CMR17-48"/>
      <use transform="translate(45.690477 0)scale(0.996264)" xlink:href="#CMMI12-58"/>
      <use transform="translate(72.787654 0)scale(0.996264)" xlink:href="#CMR17-52"/>
     </g>
    </g>
   </g>
  </g>
  <g id="axes_2">
   <g id="Poly3DCollection_18">
    <path clip-path="url(#p0d279f63eb)" d="M 589.585426 136.518865 
L 589.597202 137.476151 
L 610.984142 142.098609 
L 610.980287 141.13803 
z
" style="fill:#0cba97;fill-opacity:0.8;"/>
    <path clip-path="url(#p0d279f63eb)" d="M 576.799916 144.550314 
L 576.816589 145.513314 
L 589.597202 137.476151 
L 589.585426 136.518865 
z
" style="fill:#065d4c;fill-opacity:0.8;"/>
    <path clip-path="url(#p0d279f63eb)" d="M 576.816589 145.513314 
L 598.331835 150.220613 
L 610.984142 142.098609 
L 589.597202 137.476151 
z
" style="fill:#0aa384;fill-opacity:0.8;"/>
    <path clip-path="url(#p0d279f63eb)" d="M 576.799916 144.550314 
L 589.585426 136.518865 
L 610.980287 141.13803 
L 598.323179 149.254292 
z
" style="fill:#08745e;fill-opacity:0.8;"/>
    <path clip-path="url(#p0d279f63eb)" d="M 598.323179 149.254292 
L 610.980287 141.13803 
L 610.984142 142.098609 
L 598.331835 150.220613 
z
" style="fill:#0cba97;fill-opacity:0.8;"/>
    <path clip-path="url(#p0d279f63eb)" d="M 576.799916 144.550314 
L 598.323179 149.254292 
L 598.331835 150.220613 
L 576.816589 145.513314 
z
" style="fill:#065d4c;fill-opacity:0.8;"/>
   </g>
   <g id="Poly3DCollection_19">
    <path clip-path="url(#p0d279f63eb)" d="M 632.600641 145.805878 
L 632.599514 146.062503 
L 654.446747 150.780696 
L 654.450073 150.523185 
z
" style="fill:#0cba97;fill-opacity:0.8;"/>
    <path clip-path="url(#p0d279f63eb)" d="M 620.075378 154.008304 
L 620.075502 154.266466 
L 632.599514 146.062503 
L 632.600641 145.805878 
z
" style="fill:#065d4c;fill-opacity:0.8;"/>
    <path clip-path="url(#p0d279f63eb)" d="M 620.075502 154.266466 
L 642.058083 159.072209 
L 654.446747 150.780696 
L 632.599514 146.062503 
z
" style="fill:#0aa384;fill-opacity:0.8;"/>
    <path clip-path="url(#p0d279f63eb)" d="M 620.075378 154.008304 
L 632.600641 145.805878 
L 654.450073 150.523185 
L 642.060185 158.813154 
z
" style="fill:#08745e;fill-opacity:0.8;"/>
    <path clip-path="url(#p0d279f63eb)" d="M 642.060185 158.813154 
L 654.450073 150.523185 
L 654.446747 150.780696 
L 642.058083 159.072209 
z
" style="fill:#0cba97;fill-opacity:0.8;"/>
    <path clip-path="url(#p0d279f63eb)" d="M 620.075378 154.008304 
L 642.060185 158.813154 
L 642.058083 159.072209 
L 620.075502 154.266466 
z
" style="fill:#065d4c;fill-opacity:0.8;"/>
   </g>
   <g id="Poly3DCollection_20">
    <path clip-path="url(#p0d279f63eb)" d="M 563.779191 152.729518 
L 563.784207 152.952959 
L 585.435119 157.74488 
L 585.431974 157.520666 
z
" style="fill:#0cba97;fill-opacity:0.8;"/>
    <path clip-path="url(#p0d279f63eb)" d="M 550.516699 161.060592 
L 550.522929 161.285375 
L 563.784207 152.952959 
L 563.779191 152.729518 
z
" style="fill:#065d4c;fill-opacity:0.8;"/>
    <path clip-path="url(#p0d279f63eb)" d="M 550.522929 161.285375 
L 572.304453 166.166919 
L 585.435119 157.74488 
L 563.784207 152.952959 
z
" style="fill:#0aa384;fill-opacity:0.8;"/>
    <path clip-path="url(#p0d279f63eb)" d="M 550.516699 161.060592 
L 563.779191 152.729518 
L 585.431974 157.520666 
L 572.300117 165.941357 
z
" style="fill:#08745e;fill-opacity:0.8;"/>
    <path clip-path="url(#p0d279f63eb)" d="M 572.300117 165.941357 
L 585.431974 157.520666 
L 585.435119 157.74488 
L 572.304453 166.166919 
z
" style="fill:#0cba97;fill-opacity:0.8;"/>
    <path clip-path="url(#p0d279f63eb)" d="M 550.516699 161.060592 
L 572.300117 165.941357 
L 572.304453 166.166919 
L 550.522929 161.285375 
z
" style="fill:#065d4c;fill-opacity:0.8;"/>
   </g>
   <g id="Poly3DCollection_21">
    <path clip-path="url(#p0d279f63eb)" d="M 676.532242 155.29074 
L 676.544582 154.718533 
L 698.868308 159.535162 
L 698.850887 160.10935 
z
" style="fill:#065d4c;fill-opacity:0.8;"/>
    <path clip-path="url(#p0d279f63eb)" d="M 664.281352 163.669661 
L 664.291044 163.094015 
L 676.544582 154.718533 
L 676.532242 155.29074 
z
" style="fill:#0cba97;fill-opacity:0.8;"/>
    <path clip-path="url(#p0d279f63eb)" d="M 664.281352 163.669661 
L 676.532242 155.29074 
L 698.850887 160.10935 
L 686.742711 168.578662 
z
" style="fill:#08745e;fill-opacity:0.8;"/>
    <path clip-path="url(#p0d279f63eb)" d="M 664.291044 163.094015 
L 686.757549 168.001018 
L 698.868308 159.535162 
L 676.544582 154.718533 
z
" style="fill:#0aa384;fill-opacity:0.8;"/>
    <path clip-path="url(#p0d279f63eb)" d="M 686.742711 168.578662 
L 698.850887 160.10935 
L 698.868308 159.535162 
L 686.757549 168.001018 
z
" style="fill:#065d4c;fill-opacity:0.8;"/>
    <path clip-path="url(#p0d279f63eb)" d="M 664.281352 163.669661 
L 686.742711 168.578662 
L 686.757549 168.001018 
L 664.291044 163.094015 
z
" style="fill:#0cba97;fill-opacity:0.8;"/>
   </g>
   <g id="Poly3DCollection_22">
    <path clip-path="url(#p0d279f63eb)" d="M 607.317212 162.36325 
L 607.315842 162.113344 
L 629.439468 167.007329 
L 629.438669 167.258103 
z
" style="fill:#065d4c;fill-opacity:0.8;"/>
    <path clip-path="url(#p0d279f63eb)" d="M 594.319587 170.875011 
L 594.31692 170.6236 
L 607.315842 162.113344 
L 607.317212 162.36325 
z
" style="fill:#0cba97;fill-opacity:0.8;"/>
    <path clip-path="url(#p0d279f63eb)" d="M 594.319587 170.875011 
L 607.317212 162.36325 
L 629.438669 167.258103 
L 616.578968 175.862419 
z
" style="fill:#08745e;fill-opacity:0.8;"/>
    <path clip-path="url(#p0d279f63eb)" d="M 594.31692 170.6236 
L 616.578497 175.610134 
L 629.439468 167.007329 
L 607.315842 162.113344 
z
" style="fill:#0aa384;fill-opacity:0.8;"/>
    <path clip-path="url(#p0d279f63eb)" d="M 616.578968 175.862419 
L 629.438669 167.258103 
L 629.439468 167.007329 
L 616.578497 175.610134 
z
" style="fill:#065d4c;fill-opacity:0.8;"/>
    <path clip-path="url(#p0d279f63eb)" d="M 594.319587 170.875011 
L 616.578968 175.862419 
L 616.578497 175.610134 
L 594.31692 170.6236 
z
" style="fill:#0cba97;fill-opacity:0.8;"/>
   </g>
   <g id="Poly3DCollection_23">
    <path clip-path="url(#p0d279f63eb)" d="M 721.409827 164.97984 
L 721.409827 164.97984 
L 744.212963 169.903052 
L 744.212963 169.903052 
z
" style="fill:#065d4c;fill-opacity:0.8;"/>
    <path clip-path="url(#p0d279f63eb)" d="M 709.448177 173.541015 
L 709.448177 173.541015 
L 721.409827 164.97984 
L 721.409827 164.97984 
z
" style="fill:#065d4c;fill-opacity:0.8;"/>
    <path clip-path="url(#p0d279f63eb)" d="M 709.448177 173.541015 
L 721.409827 164.97984 
L 744.212963 169.903052 
L 732.401752 178.557592 
z
" style="fill:#08745e;fill-opacity:0.8;"/>
    <path clip-path="url(#p0d279f63eb)" d="M 709.448177 173.541015 
L 732.401752 178.557592 
L 744.212963 169.903052 
L 721.409827 164.97984 
z
" style="fill:#0aa384;fill-opacity:0.8;"/>
    <path clip-path="url(#p0d279f63eb)" d="M 732.401752 178.557592 
L 744.212963 169.903052 
L 744.212963 169.903052 
L 732.401752 178.557592 
z
" style="fill:#065d4c;fill-opacity:0.8;"/>
    <path clip-path="url(#p0d279f63eb)" d="M 709.448177 173.541015 
L 732.401752 178.557592 
L 732.401752 178.557592 
L 709.448177 173.541015 
z
" style="fill:#065d4c;fill-opacity:0.8;"/>
   </g>
   <g id="Poly3DCollection_24">
    <path clip-path="url(#p0d279f63eb)" d="M 537.005643 169.547807 
L 537.009921 169.677006 
L 558.923989 174.650374 
L 558.920806 174.520726 
z
" style="fill:#0cba97;fill-opacity:0.8;"/>
    <path clip-path="url(#p0d279f63eb)" d="M 523.238969 178.195592 
L 523.243993 178.32557 
L 537.009921 169.677006 
L 537.005643 169.547807 
z
" style="fill:#065d4c;fill-opacity:0.8;"/>
    <path clip-path="url(#p0d279f63eb)" d="M 523.243993 178.32557 
L 545.290895 183.393731 
L 558.923989 174.650374 
L 537.009921 169.677006 
z
" style="fill:#0aa384;fill-opacity:0.8;"/>
    <path clip-path="url(#p0d279f63eb)" d="M 523.238969 178.195592 
L 537.005643 169.547807 
L 558.920806 174.520726 
L 545.286979 183.2633 
z
" style="fill:#08745e;fill-opacity:0.8;"/>
    <path clip-path="url(#p0d279f63eb)" d="M 545.286979 183.2633 
L 558.920806 174.520726 
L 558.923989 174.650374 
L 545.290895 183.393731 
z
" style="fill:#0cba97;fill-opacity:0.8;"/>
    <path clip-path="url(#p0d279f63eb)" d="M 523.238969 178.195592 
L 545.286979 183.2633 
L 545.290895 183.393731 
L 523.243993 178.32557 
z
" style="fill:#065d4c;fill-opacity:0.8;"/>
   </g>
   <g id="Poly3DCollection_25">
    <path clip-path="url(#p0d279f63eb)" d="M 651.800189 172.206075 
L 651.800189 172.206075 
L 674.405703 177.208036 
L 674.405703 177.208036 
z
" style="fill:#065d4c;fill-opacity:0.8;"/>
    <path clip-path="url(#p0d279f63eb)" d="M 639.0822 180.904465 
L 639.0822 180.904465 
L 651.800189 172.206075 
L 651.800189 172.206075 
z
" style="fill:#065d4c;fill-opacity:0.8;"/>
    <path clip-path="url(#p0d279f63eb)" d="M 639.0822 180.904465 
L 651.800189 172.206075 
L 674.405703 177.208036 
L 661.833315 186.00205 
z
" style="fill:#08745e;fill-opacity:0.8;"/>
    <path clip-path="url(#p0d279f63eb)" d="M 639.0822 180.904465 
L 661.833315 186.00205 
L 674.405703 177.208036 
L 651.800189 172.206075 
z
" style="fill:#0aa384;fill-opacity:0.8;"/>
    <path clip-path="url(#p0d279f63eb)" d="M 661.833315 186.00205 
L 674.405703 177.208036 
L 674.405703 177.208036 
L 661.833315 186.00205 
z
" style="fill:#065d4c;fill-opacity:0.8;"/>
    <path clip-path="url(#p0d279f63eb)" d="M 639.0822 180.904465 
L 661.833315 186.00205 
L 661.833315 186.00205 
L 639.0822 180.904465 
z
" style="fill:#065d4c;fill-opacity:0.8;"/>
   </g>
   <g id="Poly3DCollection_26">
    <path clip-path="url(#p0d279f63eb)" d="M 581.075698 179.548043 
L 581.075698 179.548043 
L 603.474275 184.630657 
L 603.474275 184.630657 
z
" style="fill:#065d4c;fill-opacity:0.8;"/>
    <path clip-path="url(#p0d279f63eb)" d="M 567.578479 188.386974 
L 567.578479 188.386974 
L 581.075698 179.548043 
L 581.075698 179.548043 
z
" style="fill:#065d4c;fill-opacity:0.8;"/>
    <path clip-path="url(#p0d279f63eb)" d="M 567.578479 188.386974 
L 590.117523 193.567546 
L 603.474275 184.630657 
L 581.075698 179.548043 
z
" style="fill:#0aa384;fill-opacity:0.8;"/>
    <path clip-path="url(#p0d279f63eb)" d="M 567.578479 188.386974 
L 581.075698 179.548043 
L 603.474275 184.630657 
L 590.117523 193.567546 
z
" style="fill:#08745e;fill-opacity:0.8;"/>
    <path clip-path="url(#p0d279f63eb)" d="M 590.117523 193.567546 
L 603.474275 184.630657 
L 603.474275 184.630657 
L 590.117523 193.567546 
z
" style="fill:#065d4c;fill-opacity:0.8;"/>
    <path clip-path="url(#p0d279f63eb)" d="M 567.578479 188.386974 
L 590.117523 193.567546 
L 590.117523 193.567546 
L 567.578479 188.386974 
z
" style="fill:#065d4c;fill-opacity:0.8;"/>
   </g>
   <g id="Poly3DCollection_27">
    <path clip-path="url(#p0d279f63eb)" d="M 697.259225 182.264874 
L 697.241752 182.847758 
L 720.341945 187.962413 
L 720.364859 187.377497 
z
" style="fill:#0cba97;fill-opacity:0.8;"/>
    <path clip-path="url(#p0d279f63eb)" d="M 684.836429 191.156098 
L 684.821674 191.742508 
L 697.241752 182.847758 
L 697.259225 182.264874 
z
" style="fill:#065d4c;fill-opacity:0.8;"/>
    <path clip-path="url(#p0d279f63eb)" d="M 684.821674 191.742508 
L 708.075484 196.95601 
L 720.341945 187.962413 
L 697.241752 182.847758 
z
" style="fill:#0aa384;fill-opacity:0.8;"/>
    <path clip-path="url(#p0d279f63eb)" d="M 684.836429 191.156098 
L 697.259225 182.264874 
L 720.364859 187.377497 
L 708.095754 196.367553 
z
" style="fill:#08745e;fill-opacity:0.8;"/>
    <path clip-path="url(#p0d279f63eb)" d="M 708.095754 196.367553 
L 720.364859 187.377497 
L 720.341945 187.962413 
L 708.075484 196.95601 
z
" style="fill:#0cba97;fill-opacity:0.8;"/>
    <path clip-path="url(#p0d279f63eb)" d="M 684.836429 191.156098 
L 708.095754 196.367553 
L 708.075484 196.95601 
L 684.821674 191.742508 
z
" style="fill:#065d4c;fill-opacity:0.8;"/>
   </g>
   <g id="Poly3DCollection_28">
    <path clip-path="url(#p0d279f63eb)" d="M 509.209354 187.008548 
L 509.209354 187.008548 
L 531.391305 192.173782 
L 531.391305 192.173782 
z
" style="fill:#065d4c;fill-opacity:0.8;"/>
    <path clip-path="url(#p0d279f63eb)" d="M 494.909192 195.991454 
L 494.909192 195.991454 
L 509.209354 187.008548 
L 509.209354 187.008548 
z
" style="fill:#065d4c;fill-opacity:0.8;"/>
    <path clip-path="url(#p0d279f63eb)" d="M 494.909192 195.991454 
L 509.209354 187.008548 
L 531.391305 192.173782 
L 517.226167 201.257056 
z
" style="fill:#08745e;fill-opacity:0.8;"/>
    <path clip-path="url(#p0d279f63eb)" d="M 494.909192 195.991454 
L 517.226167 201.257056 
L 531.391305 192.173782 
L 509.209354 187.008548 
z
" style="fill:#0aa384;fill-opacity:0.8;"/>
    <path clip-path="url(#p0d279f63eb)" d="M 517.226167 201.257056 
L 531.391305 192.173782 
L 531.391305 192.173782 
L 517.226167 201.257056 
z
" style="fill:#065d4c;fill-opacity:0.8;"/>
    <path clip-path="url(#p0d279f63eb)" d="M 494.909192 195.991454 
L 517.226167 201.257056 
L 517.226167 201.257056 
L 494.909192 195.991454 
z
" style="fill:#065d4c;fill-opacity:0.8;"/>
   </g>
   <g id="Poly3DCollection_29">
    <path clip-path="url(#p0d279f63eb)" d="M 626.12058 189.769485 
L 626.120096 190.024129 
L 649.015937 195.220997 
L 649.018745 194.965464 
z
" style="fill:#0cba97;fill-opacity:0.8;"/>
    <path clip-path="url(#p0d279f63eb)" d="M 612.90826 198.805969 
L 612.909116 199.062156 
L 626.120096 190.024129 
L 626.12058 189.769485 
z
" style="fill:#065d4c;fill-opacity:0.8;"/>
    <path clip-path="url(#p0d279f63eb)" d="M 612.909116 199.062156 
L 635.95343 204.360301 
L 649.015937 195.220997 
L 626.120096 190.024129 
z
" style="fill:#0aa384;fill-opacity:0.8;"/>
    <path clip-path="url(#p0d279f63eb)" d="M 612.90826 198.805969 
L 626.12058 189.769485 
L 649.018745 194.965464 
L 635.954929 204.103218 
z
" style="fill:#08745e;fill-opacity:0.8;"/>
    <path clip-path="url(#p0d279f63eb)" d="M 635.954929 204.103218 
L 649.018745 194.965464 
L 649.015937 195.220997 
L 635.95343 204.360301 
z
" style="fill:#0cba97;fill-opacity:0.8;"/>
    <path clip-path="url(#p0d279f63eb)" d="M 612.90826 198.805969 
L 635.954929 204.103218 
L 635.95343 204.360301 
L 612.909116 199.062156 
z
" style="fill:#065d4c;fill-opacity:0.8;"/>
   </g>
   <g id="Poly3DCollection_30">
    <path clip-path="url(#p0d279f63eb)" d="M 553.82059 197.396609 
L 553.81706 197.264917 
L 576.499012 202.545846 
L 576.501369 202.677999 
z
" style="fill:#065d4c;fill-opacity:0.8;"/>
    <path clip-path="url(#p0d279f63eb)" d="M 539.794407 206.581943 
L 539.790103 206.449451 
L 553.81706 197.264917 
L 553.82059 197.396609 
z
" style="fill:#0cba97;fill-opacity:0.8;"/>
    <path clip-path="url(#p0d279f63eb)" d="M 539.794407 206.581943 
L 553.82059 197.396609 
L 576.501369 202.677999 
L 562.618181 211.967122 
z
" style="fill:#08745e;fill-opacity:0.8;"/>
    <path clip-path="url(#p0d279f63eb)" d="M 539.790103 206.449451 
L 562.615064 211.834166 
L 576.499012 202.545846 
L 553.81706 197.264917 
z
" style="fill:#0aa384;fill-opacity:0.8;"/>
    <path clip-path="url(#p0d279f63eb)" d="M 562.618181 211.967122 
L 576.501369 202.677999 
L 576.499012 202.545846 
L 562.615064 211.834166 
z
" style="fill:#065d4c;fill-opacity:0.8;"/>
    <path clip-path="url(#p0d279f63eb)" d="M 539.794407 206.581943 
L 562.618181 211.967122 
L 562.615064 211.834166 
L 539.790103 206.449451 
z
" style="fill:#0cba97;fill-opacity:0.8;"/>
   </g>
   <g id="Poly3DCollection_31">
    <path clip-path="url(#p0d279f63eb)" d="M 672.172996 200.219552 
L 672.178386 199.952957 
L 695.595568 205.265203 
L 695.587652 205.532732 
z
" style="fill:#065d4c;fill-opacity:0.8;"/>
    <path clip-path="url(#p0d279f63eb)" d="M 659.261864 209.460289 
L 659.265925 209.192074 
L 672.178386 199.952957 
L 672.172996 200.219552 
z
" style="fill:#0cba97;fill-opacity:0.8;"/>
    <path clip-path="url(#p0d279f63eb)" d="M 659.261864 209.460289 
L 672.172996 200.219552 
L 695.587652 205.532732 
L 682.833501 214.878201 
z
" style="fill:#08745e;fill-opacity:0.8;"/>
    <path clip-path="url(#p0d279f63eb)" d="M 659.265925 209.192074 
L 682.840122 214.609046 
L 695.595568 205.265203 
L 672.178386 199.952957 
z
" style="fill:#0aa384;fill-opacity:0.8;"/>
    <path clip-path="url(#p0d279f63eb)" d="M 682.833501 214.878201 
L 695.587652 205.532732 
L 695.595568 205.265203 
L 682.840122 214.609046 
z
" style="fill:#065d4c;fill-opacity:0.8;"/>
    <path clip-path="url(#p0d279f63eb)" d="M 659.261864 209.460289 
L 682.833501 214.878201 
L 682.840122 214.609046 
L 659.265925 209.192074 
z
" style="fill:#0cba97;fill-opacity:0.8;"/>
   </g>
   <g id="Poly3DCollection_32">
    <path clip-path="url(#p0d279f63eb)" d="M 599.437896 208.018941 
L 599.435871 207.786809 
L 622.634645 213.187504 
L 622.634522 213.42045 
z
" style="fill:#065d4c;fill-opacity:0.8;"/>
    <path clip-path="url(#p0d279f63eb)" d="M 585.701854 217.413623 
L 585.698525 217.180079 
L 599.435871 207.786809 
L 599.437896 208.018941 
z
" style="fill:#0cba97;fill-opacity:0.8;"/>
    <path clip-path="url(#p0d279f63eb)" d="M 585.701854 217.413623 
L 599.437896 208.018941 
L 622.634522 213.42045 
L 609.04989 222.922499 
z
" style="fill:#08745e;fill-opacity:0.8;"/>
    <path clip-path="url(#p0d279f63eb)" d="M 585.698525 217.180079 
L 609.048736 222.688136 
L 622.634645 213.187504 
L 599.435871 207.786809 
z
" style="fill:#0aa384;fill-opacity:0.8;"/>
    <path clip-path="url(#p0d279f63eb)" d="M 609.04989 222.922499 
L 622.634522 213.42045 
L 622.634645 213.187504 
L 609.048736 222.688136 
z
" style="fill:#065d4c;fill-opacity:0.8;"/>
    <path clip-path="url(#p0d279f63eb)" d="M 585.701854 217.413623 
L 609.04989 222.922499 
L 609.048736 222.688136 
L 585.698525 217.180079 
z
" style="fill:#0cba97;fill-opacity:0.8;"/>
   </g>
   <g id="Poly3DCollection_33">
    <path clip-path="url(#p0d279f63eb)" d="M 646.095695 218.88356 
L 646.10576 217.869432 
L 669.845784 223.391643 
L 669.825967 224.409332 
z
" style="fill:#065d4c;fill-opacity:0.8;"/>
    <path clip-path="url(#p0d279f63eb)" d="M 632.666856 228.494829 
L 632.671513 227.474524 
L 646.10576 217.869432 
L 646.095695 218.88356 
z
" style="fill:#0cba97;fill-opacity:0.8;"/>
    <path clip-path="url(#p0d279f63eb)" d="M 632.666856 228.494829 
L 646.095695 218.88356 
L 669.825967 224.409332 
L 656.557426 234.131714 
z
" style="fill:#08745e;fill-opacity:0.8;"/>
    <path clip-path="url(#p0d279f63eb)" d="M 632.671513 227.474524 
L 656.571968 233.107822 
L 669.845784 223.391643 
L 646.10576 217.869432 
z
" style="fill:#0aa384;fill-opacity:0.8;"/>
    <path clip-path="url(#p0d279f63eb)" d="M 656.557426 234.131714 
L 669.825967 224.409332 
L 669.845784 223.391643 
L 656.571968 233.107822 
z
" style="fill:#065d4c;fill-opacity:0.8;"/>
    <path clip-path="url(#p0d279f63eb)" d="M 632.666856 228.494829 
L 656.557426 234.131714 
L 656.571968 233.107822 
L 632.671513 227.474524 
z
" style="fill:#0cba97;fill-opacity:0.8;"/>
   </g>
   <g id="Poly3DCollection_34">
    <path clip-path="url(#p0d279f63eb)" d="M 482.070105 197.335001 
L 660.297696 239.583222 
L 756.315645 168.636567 
L 586.585741 132.146773 
z
" style="fill-opacity:0.2;"/>
   </g>
  </g>
 </g>
 <defs>
  <clipPath id="pb6be1994f2">
   <rect height="277.2" width="380.454545" x="-30.6" y="-14.4"/>
  </clipPath>
  <clipPath id="p0d279f63eb">
   <rect height="277.2" width="380.454545" x="425.945455" y="-14.4"/>
  </clipPath>
 </defs>
</svg>
