<?xml version="1.0" encoding="utf-8" standalone="no"?>
<!DOCTYPE svg PUBLIC "-//W3C//DTD SVG 1.1//EN"
  "http://www.w3.org/Graphics/SVG/1.1/DTD/svg11.dtd">
<!-- Created with matplotlib (https://matplotlib.org/) -->
<svg height="302.4pt" version="1.1" viewBox="0 0 820.8 302.4" width="820.8pt" xmlns="http://www.w3.org/2000/svg" xmlns:xlink="http://www.w3.org/1999/xlink">
 <defs>
  <style type="text/css">
*{stroke-linecap:butt;stroke-linejoin:round;}
  </style>
 </defs>
 <g id="figure_1">
  <g id="patch_1">
   <path d="M 0 302.4 
L 820.8 302.4 
L 820.8 0 
L 0 0 
z
" style="fill:#ffffff;"/>
  </g>
  <g id="patch_2">
   <path d="M -30.6 262.8 
L 349.854545 262.8 
L 349.854545 -14.4 
L -30.6 -14.4 
z
" style="fill:#ffffff;"/>
  </g>
  <g id="pane3d_1">
   <g id="patch_3">
    <path d="M 19.835129 201.548569 
L 128.723211 133.58541 
L 126.910339 3.718968 
L 11.951034 64.782468 
" style="fill:#f2f2f2;opacity:0.5;stroke:#f2f2f2;stroke-linejoin:miter;"/>
   </g>
  </g>
  <g id="pane3d_2">
   <g id="patch_4">
    <path d="M 128.723211 133.58541 
L 305.111665 171.581202 
L 312.491547 37.79869 
L 126.910339 3.718968 
" style="fill:#e6e6e6;opacity:0.5;stroke:#e6e6e6;stroke-linejoin:miter;"/>
   </g>
  </g>
  <g id="pane3d_3">
   <g id="patch_5">
    <path d="M 19.835129 201.548569 
L 205.419617 245.80086 
L 305.111665 171.581202 
L 128.723211 133.58541 
" style="fill:#ececec;opacity:0.5;stroke:#ececec;stroke-linejoin:miter;"/>
   </g>
  </g>
  <g id="axis3d_1">
   <g id="line2d_1">
    <path d="M 19.835129 201.548569 
L 205.419617 245.80086 
" style="fill:none;stroke:#000000;stroke-linecap:square;stroke-width:0.8;"/>
   </g>
   <g id="Line3DCollection_1">
    <path d="M 42.295817 206.90428 
L 150.133942 138.19749 
L 149.393845 7.847789 
" style="fill:none;stroke:#b0b0b0;stroke-width:0.8;"/>
    <path d="M 87.512337 217.686079 
L 193.184014 147.470895 
L 194.636898 16.156123 
" style="fill:none;stroke:#b0b0b0;stroke-width:0.8;"/>
    <path d="M 133.765289 228.715013 
L 237.148096 156.941187 
L 240.890183 24.649974 
" style="fill:none;stroke:#b0b0b0;stroke-width:0.8;"/>
    <path d="M 181.090721 239.999678 
L 282.055608 166.614702 
L 288.187917 33.335625 
" style="fill:none;stroke:#b0b0b0;stroke-width:0.8;"/>
   </g>
   <g id="xtick_1">
    <g id="line2d_2">
     <path d="M 43.225084 206.312217 
L 40.433807 208.09062 
" style="fill:none;stroke:#000000;stroke-linecap:square;stroke-width:0.8;"/>
    </g>
    <g id="text_1">
     <!-- 00 -->
     <defs>
      <path d="M 42 31.84375 
C 42 37.96875 41.90625 48.421875 37.703125 56.453125 
C 34 63.484375 28.09375 66 22.90625 66 
C 18.09375 66 12 63.78125 8.203125 56.5625 
C 4.203125 49.015625 3.796875 39.671875 3.796875 31.84375 
C 3.796875 26.109375 3.90625 17.375 7 9.734375 
C 11.296875 -0.609375 19 -2 22.90625 -2 
C 27.5 -2 34.5 -0.109375 38.59375 9.4375 
C 41.59375 16.375 42 24.5 42 31.84375 
z
M 22.90625 -0.40625 
C 16.5 -0.40625 12.703125 5.125 11.296875 12.75 
C 10.203125 18.6875 10.203125 27.328125 10.203125 32.953125 
C 10.203125 40.6875 10.203125 47.109375 11.5 53.234375 
C 13.40625 61.78125 19 64.390625 22.90625 64.390625 
C 27 64.390625 32.296875 61.671875 34.203125 53.4375 
C 35.5 47.71875 35.59375 40.984375 35.59375 32.953125 
C 35.59375 26.421875 35.59375 18.375 34.40625 12.453125 
C 32.296875 1.5 26.40625 -0.40625 22.90625 -0.40625 
z
" id="CMR17-48"/>
     </defs>
     <g transform="translate(19.241292 243.348593)rotate(-45)scale(0.2 -0.2)">
      <use transform="scale(0.996264)" xlink:href="#CMR17-48"/>
      <use transform="translate(45.690477 0)scale(0.996264)" xlink:href="#CMR17-48"/>
     </g>
    </g>
   </g>
   <g id="xtick_2">
    <g id="line2d_3">
     <path d="M 88.423674 217.080527 
L 85.686217 218.899473 
" style="fill:none;stroke:#000000;stroke-linecap:square;stroke-width:0.8;"/>
    </g>
    <g id="text_2">
     <!-- 01 -->
     <defs>
      <path d="M 26.59375 63.796875 
C 26.59375 65.890625 26.5 66 25.09375 66 
C 21.203125 61.359375 15.296875 59.890625 9.703125 59.6875 
C 9.40625 59.6875 8.90625 59.6875 8.796875 59.5 
C 8.703125 59.296875 8.703125 59.09375 8.703125 57 
C 11.796875 57 17 57.59375 21 59.984375 
L 21 7.296875 
C 21 3.796875 20.796875 2.59375 12.203125 2.59375 
L 9.203125 2.59375 
L 9.203125 0 
C 14 0.09375 19 0.1875 23.796875 0.1875 
C 28.59375 0.1875 33.59375 0.09375 38.40625 0 
L 38.40625 2.59375 
L 35.40625 2.59375 
C 26.796875 2.59375 26.59375 3.6875 26.59375 7.296875 
z
" id="CMR17-49"/>
     </defs>
     <g transform="translate(64.453717 254.305345)rotate(-45)scale(0.2 -0.2)">
      <use transform="scale(0.996264)" xlink:href="#CMR17-48"/>
      <use transform="translate(45.690477 0)scale(0.996264)" xlink:href="#CMR17-49"/>
     </g>
    </g>
   </g>
   <g id="xtick_3">
    <g id="line2d_4">
     <path d="M 134.657625 228.095506 
L 131.977203 229.956397 
" style="fill:none;stroke:#000000;stroke-linecap:square;stroke-width:0.8;"/>
    </g>
    <g id="text_3">
     <!-- 10 -->
     <g transform="translate(110.70433 265.513691)rotate(-45)scale(0.2 -0.2)">
      <use transform="scale(0.996264)" xlink:href="#CMR17-49"/>
      <use transform="translate(45.690477 0)scale(0.996264)" xlink:href="#CMR17-48"/>
     </g>
    </g>
   </g>
   <g id="xtick_4">
    <g id="line2d_5">
     <path d="M 181.962926 239.365727 
L 179.342936 241.270032 
" style="fill:none;stroke:#000000;stroke-linecap:square;stroke-width:0.8;"/>
    </g>
    <g id="text_4">
     <!-- 11 -->
     <g transform="translate(158.029305 276.982396)rotate(-45)scale(0.2 -0.2)">
      <use transform="scale(0.996264)" xlink:href="#CMR17-49"/>
      <use transform="translate(45.690477 0)scale(0.996264)" xlink:href="#CMR17-49"/>
     </g>
    </g>
   </g>
  </g>
  <g id="axis3d_2">
   <g id="line2d_6">
    <path d="M 305.111665 171.581202 
L 205.419617 245.80086 
" style="fill:none;stroke:#000000;stroke-linecap:square;stroke-width:0.8;"/>
   </g>
   <g id="Line3DCollection_2">
    <path d="M 27.455231 56.547028 
L 34.471044 192.413474 
L 218.858418 235.795817 
" style="fill:none;stroke:#b0b0b0;stroke-width:0.8;"/>
    <path d="M 57.232024 40.730342 
L 62.623407 174.842005 
L 244.674037 216.576366 
" style="fill:none;stroke:#b0b0b0;stroke-width:0.8;"/>
    <path d="M 85.85589 25.526062 
L 89.739382 157.917404 
L 269.496985 198.095948 
" style="fill:none;stroke:#b0b0b0;stroke-width:0.8;"/>
    <path d="M 113.392516 10.899296 
L 115.875164 141.604597 
L 293.383438 180.312741 
" style="fill:none;stroke:#b0b0b0;stroke-width:0.8;"/>
   </g>
   <g id="xtick_5">
    <g id="line2d_7">
     <path d="M 217.315598 235.432825 
L 221.947489 236.522608 
" style="fill:none;stroke:#000000;stroke-linecap:square;stroke-width:0.8;"/>
    </g>
    <g id="text_5">
     <!-- 00 -->
     <g transform="translate(233.095662 248.844567)rotate(-337.5)scale(0.2 -0.2)">
      <use transform="scale(0.996264)" xlink:href="#CMR17-48"/>
      <use transform="translate(45.690477 0)scale(0.996264)" xlink:href="#CMR17-48"/>
     </g>
    </g>
   </g>
   <g id="xtick_6">
    <g id="line2d_8">
     <path d="M 243.15208 216.227463 
L 247.72127 217.274932 
" style="fill:none;stroke:#000000;stroke-linecap:square;stroke-width:0.8;"/>
    </g>
    <g id="text_6">
     <!-- 01 -->
     <g transform="translate(258.649213 229.400141)rotate(-337.5)scale(0.2 -0.2)">
      <use transform="scale(0.996264)" xlink:href="#CMR17-48"/>
      <use transform="translate(45.690477 0)scale(0.996264)" xlink:href="#CMR17-49"/>
     </g>
    </g>
   </g>
   <g id="xtick_7">
    <g id="line2d_9">
     <path d="M 267.995442 197.76033 
L 272.503283 198.767901 
" style="fill:none;stroke:#000000;stroke-linecap:square;stroke-width:0.8;"/>
    </g>
    <g id="text_7">
     <!-- 10 -->
     <g transform="translate(283.220625 210.703053)rotate(-337.5)scale(0.2 -0.2)">
      <use transform="scale(0.996264)" xlink:href="#CMR17-49"/>
      <use transform="translate(45.690477 0)scale(0.996264)" xlink:href="#CMR17-48"/>
     </g>
    </g>
   </g>
   <g id="xtick_8">
    <g id="line2d_10">
     <path d="M 291.901865 179.989663 
L 296.349691 180.959573 
" style="fill:none;stroke:#000000;stroke-linecap:square;stroke-width:0.8;"/>
    </g>
    <g id="text_8">
     <!-- 11 -->
     <g transform="translate(306.865451 192.711031)rotate(-337.5)scale(0.2 -0.2)">
      <use transform="scale(0.996264)" xlink:href="#CMR17-49"/>
      <use transform="translate(45.690477 0)scale(0.996264)" xlink:href="#CMR17-49"/>
     </g>
    </g>
   </g>
  </g>
  <g id="axis3d_3">
   <g id="line2d_11">
    <path d="M 305.111665 171.581202 
L 312.491547 37.79869 
" style="fill:none;stroke:#000000;stroke-linecap:square;stroke-width:0.8;"/>
   </g>
   <g id="Line3DCollection_3">
    <path d="M 305.3515 167.233476 
L 128.664171 129.356047 
L 19.579334 197.111278 
" style="fill:none;stroke:#b0b0b0;stroke-width:0.8;"/>
    <path d="M 306.94801 138.29194 
L 128.271373 101.217684 
L 17.875856 167.560884 
" style="fill:none;stroke:#b0b0b0;stroke-width:0.8;"/>
    <path d="M 308.581197 108.685513 
L 127.869935 72.460323 
L 16.13193 137.308839 
" style="fill:none;stroke:#b0b0b0;stroke-width:0.8;"/>
    <path d="M 310.252341 78.391015 
L 127.459567 43.063313 
L 14.346098 106.329852 
" style="fill:none;stroke:#b0b0b0;stroke-width:0.8;"/>
    <path d="M 311.96278 47.384178 
L 127.039969 13.005072 
L 12.516831 74.597402 
" style="fill:none;stroke:#b0b0b0;stroke-width:0.8;"/>
   </g>
   <g id="xtick_9">
    <g id="line2d_12">
     <path d="M 303.877254 166.917434 
L 308.303062 167.866219 
" style="fill:none;stroke:#000000;stroke-linecap:square;stroke-width:0.8;"/>
    </g>
    <g id="text_9">
     <!-- $0.0$ -->
     <defs>
      <path d="M 18.40625 4.796875 
C 18.40625 7.6875 16 9.6875 13.59375 9.6875 
C 10.703125 9.6875 8.703125 7.296875 8.703125 4.890625 
C 8.703125 2 11.09375 0 13.5 0 
C 16.40625 0 18.40625 2.390625 18.40625 4.796875 
z
" id="CMMI12-58"/>
     </defs>
     <g transform="translate(312.044349 179.132026)scale(0.2 -0.2)">
      <use transform="scale(0.996264)" xlink:href="#CMR17-48"/>
      <use transform="translate(45.690477 0)scale(0.996264)" xlink:href="#CMMI12-58"/>
      <use transform="translate(72.787654 0)scale(0.996264)" xlink:href="#CMR17-48"/>
     </g>
    </g>
   </g>
   <g id="xtick_10">
    <g id="line2d_13">
     <path d="M 305.456468 137.982455 
L 309.934234 138.911563 
" style="fill:none;stroke:#000000;stroke-linecap:square;stroke-width:0.8;"/>
    </g>
    <g id="text_10">
     <!-- $0.1$ -->
     <g transform="translate(313.847529 150.230745)scale(0.2 -0.2)">
      <use transform="scale(0.996264)" xlink:href="#CMR17-48"/>
      <use transform="translate(45.690477 0)scale(0.996264)" xlink:href="#CMMI12-58"/>
      <use transform="translate(72.787654 0)scale(0.996264)" xlink:href="#CMR17-49"/>
     </g>
    </g>
   </g>
   <g id="xtick_11">
    <g id="line2d_14">
     <path d="M 307.071949 108.38297 
L 311.602908 109.291242 
" style="fill:none;stroke:#000000;stroke-linecap:square;stroke-width:0.8;"/>
    </g>
    <g id="text_11">
     <!-- $0.2$ -->
     <defs>
      <path d="M 41.703125 15.46875 
L 39.90625 15.46875 
C 38.90625 8.390625 38.09375 7.1875 37.703125 6.59375 
C 37.203125 5.796875 30 5.796875 28.59375 5.796875 
L 9.40625 5.796875 
C 13 9.6875 20 16.765625 28.5 24.9375 
C 34.59375 30.71875 41.703125 37.5 41.703125 47.390625 
C 41.703125 59.1875 32.296875 66 21.796875 66 
C 10.796875 66 4.09375 56.296875 4.09375 47.296875 
C 4.09375 43.390625 7 42.890625 8.203125 42.890625 
C 9.203125 42.890625 12.203125 43.484375 12.203125 46.984375 
C 12.203125 50.09375 9.59375 51 8.203125 51 
C 7.59375 51 7 50.890625 6.59375 50.6875 
C 8.5 59.1875 14.296875 63.390625 20.40625 63.390625 
C 29.09375 63.390625 34.796875 56.5 34.796875 47.390625 
C 34.796875 38.703125 29.703125 31.21875 24 24.734375 
L 4.09375 2.296875 
L 4.09375 0 
L 39.296875 0 
z
" id="CMR17-50"/>
     </defs>
     <g transform="translate(315.692043 120.66694)scale(0.2 -0.2)">
      <use transform="scale(0.996264)" xlink:href="#CMR17-48"/>
      <use transform="translate(45.690477 0)scale(0.996264)" xlink:href="#CMMI12-58"/>
      <use transform="translate(72.787654 0)scale(0.996264)" xlink:href="#CMR17-50"/>
     </g>
    </g>
   </g>
   <g id="xtick_12">
    <g id="line2d_15">
     <path d="M 308.724962 78.095824 
L 313.31039 78.982033 
" style="fill:none;stroke:#000000;stroke-linecap:square;stroke-width:0.8;"/>
    </g>
    <g id="text_12">
     <!-- $0.3$ -->
     <defs>
      <path d="M 22.09375 34 
C 31 34 34.90625 26.140625 34.90625 17.09375 
C 34.90625 5.03125 28.5 0.390625 22.703125 0.390625 
C 17.40625 0.390625 8.796875 3.015625 6.09375 10.796875 
C 6.59375 10.59375 7.09375 10.59375 7.59375 10.59375 
C 10 10.59375 11.796875 12.1875 11.796875 14.796875 
C 11.796875 17.6875 9.59375 19 7.59375 19 
C 5.90625 19 3.296875 18.1875 3.296875 14.484375 
C 3.296875 5.234375 12.296875 -2 22.90625 -2 
C 34 -2 42.5 6.75 42.5 16.984375 
C 42.5 26.84375 34.5 34 25 35.09375 
C 32.59375 36.671875 39.90625 43.375 39.90625 52.390625 
C 39.90625 60.25 32 66 23 66 
C 13.90625 66 5.90625 60.34375 5.90625 52.296875 
C 5.90625 48.796875 8.5 48.1875 9.796875 48.1875 
C 11.90625 48.1875 13.703125 49.484375 13.703125 52.09375 
C 13.703125 54.6875 11.90625 56 9.796875 56 
C 9.40625 56 8.90625 56 8.5 55.796875 
C 11.40625 62.484375 19.296875 63.6875 22.796875 63.6875 
C 26.296875 63.6875 32.90625 61.96875 32.90625 52.296875 
C 32.90625 49.484375 32.5 44.546875 29.09375 40.21875 
C 26.09375 36.390625 22.703125 36.1875 19.40625 35.890625 
C 18.90625 35.890625 16.59375 35.6875 16.203125 35.6875 
C 15.5 35.59375 15.09375 35.5 15.09375 34.796875 
C 15.09375 34.09375 15.203125 34 17.203125 34 
z
" id="CMR17-51"/>
     </defs>
     <g transform="translate(317.579332 90.417568)scale(0.2 -0.2)">
      <use transform="scale(0.996264)" xlink:href="#CMR17-48"/>
      <use transform="translate(45.690477 0)scale(0.996264)" xlink:href="#CMMI12-58"/>
      <use transform="translate(72.787654 0)scale(0.996264)" xlink:href="#CMR17-51"/>
     </g>
    </g>
   </g>
   <g id="xtick_13">
    <g id="line2d_16">
     <path d="M 310.416829 47.09677 
L 315.058051 47.959622 
" style="fill:none;stroke:#000000;stroke-linecap:square;stroke-width:0.8;"/>
    </g>
    <g id="text_13">
     <!-- $0.4$ -->
     <defs>
      <path d="M 33.59375 64.796875 
C 33.59375 66.890625 33.5 67 31.703125 67 
L 2 19.59375 
L 2 17 
L 27.796875 17 
L 27.796875 7.1875 
C 27.796875 3.59375 27.59375 2.59375 20.59375 2.59375 
L 18.703125 2.59375 
L 18.703125 0 
C 21.90625 0.1875 27.296875 0.1875 30.703125 0.1875 
C 34.09375 0.1875 39.5 0.1875 42.703125 0 
L 42.703125 2.59375 
L 40.796875 2.59375 
C 33.796875 2.59375 33.59375 3.59375 33.59375 7.1875 
L 33.59375 17 
L 43.796875 17 
L 43.796875 19.59375 
L 33.59375 19.59375 
z
M 28.09375 58.171875 
L 28.09375 19.59375 
L 4 19.59375 
z
" id="CMR17-52"/>
     </defs>
     <g transform="translate(319.510898 59.4585)scale(0.2 -0.2)">
      <use transform="scale(0.996264)" xlink:href="#CMR17-48"/>
      <use transform="translate(45.690477 0)scale(0.996264)" xlink:href="#CMMI12-58"/>
      <use transform="translate(72.787654 0)scale(0.996264)" xlink:href="#CMR17-52"/>
     </g>
    </g>
   </g>
  </g>
  <g id="axes_1">
   <g id="Poly3DCollection_1">
    <path clip-path="url(#p82a9f88129)" d="M 133.030066 135.713705 
L 133.051747 137.476151 
L 154.438688 142.098609 
L 154.431589 140.330097 
z
" style="fill:#ba0c2f;fill-opacity:0.8;"/>
    <path clip-path="url(#p82a9f88129)" d="M 120.240439 143.740343 
L 120.271134 145.513314 
L 133.051747 137.476151 
L 133.030066 135.713705 
z
" style="fill:#5d0618;fill-opacity:0.8;"/>
    <path clip-path="url(#p82a9f88129)" d="M 120.271134 145.513314 
L 141.786381 150.220613 
L 154.438688 142.098609 
L 133.051747 137.476151 
z
" style="fill:#a30a29;fill-opacity:0.8;"/>
    <path clip-path="url(#p82a9f88129)" d="M 120.240439 143.740343 
L 133.030066 135.713705 
L 154.431589 140.330097 
L 141.770443 148.441524 
z
" style="fill:#74081d;fill-opacity:0.8;"/>
    <path clip-path="url(#p82a9f88129)" d="M 141.770443 148.441524 
L 154.431589 140.330097 
L 154.438688 142.098609 
L 141.786381 150.220613 
z
" style="fill:#ba0c2f;fill-opacity:0.8;"/>
    <path clip-path="url(#p82a9f88129)" d="M 120.240439 143.740343 
L 141.770443 148.441524 
L 141.786381 150.220613 
L 120.271134 145.513314 
z
" style="fill:#5d0618;fill-opacity:0.8;"/>
   </g>
   <g id="Poly3DCollection_2">
    <path clip-path="url(#p82a9f88129)" d="M 176.058747 144.99516 
L 176.069285 142.595697 
L 197.94623 147.3019 
L 197.915127 149.709666 
z
" style="fill:#5d0618;fill-opacity:0.8;"/>
    <path clip-path="url(#p82a9f88129)" d="M 163.529529 153.192726 
L 163.528362 150.778855 
L 176.069285 142.595697 
L 176.058747 144.99516 
z
" style="fill:#ba0c2f;fill-opacity:0.8;"/>
    <path clip-path="url(#p82a9f88129)" d="M 163.529529 153.192726 
L 176.058747 144.99516 
L 197.915127 149.709666 
L 185.521371 157.994752 
z
" style="fill:#74081d;fill-opacity:0.8;"/>
    <path clip-path="url(#p82a9f88129)" d="M 163.528362 150.778855 
L 185.541024 155.572505 
L 197.94623 147.3019 
L 176.069285 142.595697 
z
" style="fill:#a30a29;fill-opacity:0.8;"/>
    <path clip-path="url(#p82a9f88129)" d="M 185.521371 157.994752 
L 197.915127 149.709666 
L 197.94623 147.3019 
L 185.541024 155.572505 
z
" style="fill:#5d0618;fill-opacity:0.8;"/>
    <path clip-path="url(#p82a9f88129)" d="M 163.529529 153.192726 
L 185.521371 157.994752 
L 185.541024 155.572505 
L 163.528362 150.778855 
z
" style="fill:#ba0c2f;fill-opacity:0.8;"/>
   </g>
   <g id="Poly3DCollection_3">
    <path clip-path="url(#p82a9f88129)" d="M 107.215446 151.914694 
L 107.08127 145.937609 
L 128.790923 150.705163 
L 128.875051 156.703022 
z
" style="fill:#5d0618;fill-opacity:0.8;"/>
    <path clip-path="url(#p82a9f88129)" d="M 93.948528 160.240875 
L 93.781886 154.227742 
L 107.08127 145.937609 
L 107.215446 151.914694 
z
" style="fill:#ba0c2f;fill-opacity:0.8;"/>
    <path clip-path="url(#p82a9f88129)" d="M 93.948528 160.240875 
L 107.215446 151.914694 
L 128.875051 156.703022 
L 115.738851 165.118795 
z
" style="fill:#74081d;fill-opacity:0.8;"/>
    <path clip-path="url(#p82a9f88129)" d="M 93.781886 154.227742 
L 115.622859 159.084711 
L 128.790923 150.705163 
L 107.08127 145.937609 
z
" style="fill:#a30a29;fill-opacity:0.8;"/>
    <path clip-path="url(#p82a9f88129)" d="M 115.738851 165.118795 
L 128.875051 156.703022 
L 128.790923 150.705163 
L 115.622859 159.084711 
z
" style="fill:#5d0618;fill-opacity:0.8;"/>
    <path clip-path="url(#p82a9f88129)" d="M 93.948528 160.240875 
L 115.738851 165.118795 
L 115.622859 159.084711 
L 93.781886 154.227742 
z
" style="fill:#ba0c2f;fill-opacity:0.8;"/>
   </g>
   <g id="Poly3DCollection_4">
    <path clip-path="url(#p82a9f88129)" d="M 220.004393 154.474407 
L 220.221449 144.40966 
L 242.636713 149.190347 
L 242.330286 159.290189 
z
" style="fill:#5d0618;fill-opacity:0.8;"/>
    <path clip-path="url(#p82a9f88129)" d="M 207.749724 162.848421 
L 207.920203 152.722777 
L 220.221449 144.40966 
L 220.004393 154.474407 
z
" style="fill:#ba0c2f;fill-opacity:0.8;"/>
    <path clip-path="url(#p82a9f88129)" d="M 207.749724 162.848421 
L 220.004393 154.474407 
L 242.330286 159.290189 
L 230.218425 167.754571 
z
" style="fill:#74081d;fill-opacity:0.8;"/>
    <path clip-path="url(#p82a9f88129)" d="M 207.920203 152.722777 
L 230.479432 157.593532 
L 242.636713 149.190347 
L 220.221449 144.40966 
z
" style="fill:#a30a29;fill-opacity:0.8;"/>
    <path clip-path="url(#p82a9f88129)" d="M 230.218425 167.754571 
L 242.330286 159.290189 
L 242.636713 149.190347 
L 230.479432 157.593532 
z
" style="fill:#5d0618;fill-opacity:0.8;"/>
    <path clip-path="url(#p82a9f88129)" d="M 207.749724 162.848421 
L 230.218425 167.754571 
L 230.479432 157.593532 
L 207.920203 152.722777 
z
" style="fill:#ba0c2f;fill-opacity:0.8;"/>
   </g>
   <g id="Poly3DCollection_5">
    <path clip-path="url(#p82a9f88129)" d="M 150.76726 161.542772 
L 150.770164 162.072577 
L 172.894144 166.966421 
L 172.895839 166.434777 
z
" style="fill:#ba0c2f;fill-opacity:0.8;"/>
    <path clip-path="url(#p82a9f88129)" d="M 137.765377 170.049591 
L 137.771031 170.582587 
L 150.770164 162.072577 
L 150.76726 161.542772 
z
" style="fill:#5d0618;fill-opacity:0.8;"/>
    <path clip-path="url(#p82a9f88129)" d="M 137.771031 170.582587 
L 160.032966 175.568979 
L 172.894144 166.966421 
L 150.770164 162.072577 
z
" style="fill:#a30a29;fill-opacity:0.8;"/>
    <path clip-path="url(#p82a9f88129)" d="M 137.765377 170.049591 
L 150.76726 161.542772 
L 172.895839 166.434777 
L 160.031969 175.034128 
z
" style="fill:#74081d;fill-opacity:0.8;"/>
    <path clip-path="url(#p82a9f88129)" d="M 160.031969 175.034128 
L 172.895839 166.434777 
L 172.894144 166.966421 
L 160.032966 175.568979 
z
" style="fill:#ba0c2f;fill-opacity:0.8;"/>
    <path clip-path="url(#p82a9f88129)" d="M 137.765377 170.049591 
L 160.031969 175.034128 
L 160.032966 175.568979 
L 137.771031 170.582587 
z
" style="fill:#5d0618;fill-opacity:0.8;"/>
   </g>
   <g id="Poly3DCollection_6">
    <path clip-path="url(#p82a9f88129)" d="M 80.432883 168.723154 
L 80.002519 155.725862 
L 102.034796 160.650326 
L 102.355033 173.693205 
z
" style="fill:#5d0618;fill-opacity:0.8;"/>
    <path clip-path="url(#p82a9f88129)" d="M 66.66145 177.365963 
L 66.156049 164.289573 
L 80.002519 155.725862 
L 80.432883 168.723154 
z
" style="fill:#ba0c2f;fill-opacity:0.8;"/>
    <path clip-path="url(#p82a9f88129)" d="M 66.66145 177.365963 
L 80.432883 168.723154 
L 102.355033 173.693205 
L 88.716532 182.43078 
z
" style="fill:#74081d;fill-opacity:0.8;"/>
    <path clip-path="url(#p82a9f88129)" d="M 66.156049 164.289573 
L 88.322585 169.30842 
L 102.034796 160.650326 
L 80.002519 155.725862 
z
" style="fill:#a30a29;fill-opacity:0.8;"/>
    <path clip-path="url(#p82a9f88129)" d="M 88.716532 182.43078 
L 102.355033 173.693205 
L 102.034796 160.650326 
L 88.322585 169.30842 
z
" style="fill:#5d0618;fill-opacity:0.8;"/>
    <path clip-path="url(#p82a9f88129)" d="M 66.66145 177.365963 
L 88.716532 182.43078 
L 88.322585 169.30842 
L 66.156049 164.289573 
z
" style="fill:#ba0c2f;fill-opacity:0.8;"/>
   </g>
   <g id="Poly3DCollection_7">
    <path clip-path="url(#p82a9f88129)" d="M 252.931392 172.714058 
L 264.896629 164.157837 
L 287.707329 169.078194 
L 275.892631 177.727756 
z
" style="fill:#74081d;fill-opacity:0.8;"/>
    <path clip-path="url(#p82a9f88129)" d="M 264.896629 164.157837 
L 266.178819 131.483806 
L 289.290254 136.288336 
L 287.707329 169.078194 
z
" style="fill:#5d0618;fill-opacity:0.8;"/>
    <path clip-path="url(#p82a9f88129)" d="M 252.931392 172.714058 
L 254.071127 139.839038 
L 266.178819 131.483806 
L 264.896629 164.157837 
z
" style="fill:#ba0c2f;fill-opacity:0.8;"/>
    <path clip-path="url(#p82a9f88129)" d="M 275.892631 177.727756 
L 287.707329 169.078194 
L 289.290254 136.288336 
L 277.337154 144.735899 
z
" style="fill:#5d0618;fill-opacity:0.8;"/>
    <path clip-path="url(#p82a9f88129)" d="M 252.931392 172.714058 
L 275.892631 177.727756 
L 277.337154 144.735899 
L 254.071127 139.839038 
z
" style="fill:#ba0c2f;fill-opacity:0.8;"/>
    <path clip-path="url(#p82a9f88129)" d="M 254.071127 139.839038 
L 277.337154 144.735899 
L 289.290254 136.288336 
L 266.178819 131.483806 
z
" style="fill:#a30a29;fill-opacity:0.8;"/>
   </g>
   <g id="Poly3DCollection_8">
    <path clip-path="url(#p82a9f88129)" d="M 240.73871 181.432922 
L 241.046232 171.174303 
L 264.255416 176.247988 
L 263.852111 186.542643 
z
" style="fill:#5d0618;fill-opacity:0.8;"/>
    <path clip-path="url(#p82a9f88129)" d="M 228.312035 190.319111 
L 228.571733 179.997969 
L 241.046232 171.174303 
L 240.73871 181.432922 
z
" style="fill:#ba0c2f;fill-opacity:0.8;"/>
    <path clip-path="url(#p82a9f88129)" d="M 228.312035 190.319111 
L 240.73871 181.432922 
L 263.852111 186.542643 
L 251.579231 195.52764 
z
" style="fill:#74081d;fill-opacity:0.8;"/>
    <path clip-path="url(#p82a9f88129)" d="M 228.571733 179.997969 
L 251.936005 185.17017 
L 264.255416 176.247988 
L 241.046232 171.174303 
z
" style="fill:#a30a29;fill-opacity:0.8;"/>
    <path clip-path="url(#p82a9f88129)" d="M 251.579231 195.52764 
L 263.852111 186.542643 
L 264.255416 176.247988 
L 251.936005 185.17017 
z
" style="fill:#5d0618;fill-opacity:0.8;"/>
    <path clip-path="url(#p82a9f88129)" d="M 228.312035 190.319111 
L 251.579231 195.52764 
L 251.936005 185.17017 
L 228.571733 179.997969 
z
" style="fill:#ba0c2f;fill-opacity:0.8;"/>
   </g>
   <g id="Poly3DCollection_9">
    <path clip-path="url(#p82a9f88129)" d="M 169.576717 188.933279 
L 169.575689 189.473241 
L 192.476558 194.668185 
L 192.482513 194.126336 
z
" style="fill:#ba0c2f;fill-opacity:0.8;"/>
    <path clip-path="url(#p82a9f88129)" d="M 156.359996 197.964695 
L 156.36181 198.50793 
L 169.575689 189.473241 
L 169.576717 188.933279 
z
" style="fill:#5d0618;fill-opacity:0.8;"/>
    <path clip-path="url(#p82a9f88129)" d="M 156.36181 198.50793 
L 179.411218 203.804136 
L 192.476558 194.668185 
L 169.575689 189.473241 
z
" style="fill:#a30a29;fill-opacity:0.8;"/>
    <path clip-path="url(#p82a9f88129)" d="M 156.359996 197.964695 
L 169.576717 188.933279 
L 192.482513 194.126336 
L 179.414395 203.258999 
z
" style="fill:#74081d;fill-opacity:0.8;"/>
    <path clip-path="url(#p82a9f88129)" d="M 179.414395 203.258999 
L 192.482513 194.126336 
L 192.476558 194.668185 
L 179.411218 203.804136 
z
" style="fill:#ba0c2f;fill-opacity:0.8;"/>
    <path clip-path="url(#p82a9f88129)" d="M 156.359996 197.964695 
L 179.414395 203.258999 
L 179.411218 203.804136 
L 156.36181 198.50793 
z
" style="fill:#5d0618;fill-opacity:0.8;"/>
   </g>
   <g id="Poly3DCollection_10">
    <path clip-path="url(#p82a9f88129)" d="M 111.015261 187.551549 
L 124.517069 178.717641 
L 146.922947 183.79736 
L 133.561699 192.729203 
z
" style="fill:#74081d;fill-opacity:0.8;"/>
    <path clip-path="url(#p82a9f88129)" d="M 124.517069 178.717641 
L 123.792942 133.076804 
L 146.600106 137.992789 
L 146.922947 183.79736 
z
" style="fill:#5d0618;fill-opacity:0.8;"/>
    <path clip-path="url(#p82a9f88129)" d="M 111.015261 187.551549 
L 110.038817 141.626595 
L 123.792942 133.076804 
L 124.517069 178.717641 
z
" style="fill:#ba0c2f;fill-opacity:0.8;"/>
    <path clip-path="url(#p82a9f88129)" d="M 133.561699 192.729203 
L 146.922947 183.79736 
L 146.600106 137.992789 
L 132.991612 146.639093 
z
" style="fill:#5d0618;fill-opacity:0.8;"/>
    <path clip-path="url(#p82a9f88129)" d="M 111.015261 187.551549 
L 133.561699 192.729203 
L 132.991612 146.639093 
L 110.038817 141.626595 
z
" style="fill:#ba0c2f;fill-opacity:0.8;"/>
    <path clip-path="url(#p82a9f88129)" d="M 110.038817 141.626595 
L 132.991612 146.639093 
L 146.600106 137.992789 
L 123.792942 133.076804 
z
" style="fill:#a30a29;fill-opacity:0.8;"/>
   </g>
   <g id="Poly3DCollection_11">
    <path clip-path="url(#p82a9f88129)" d="M 215.644566 199.37749 
L 215.694959 196.88507 
L 239.141207 202.186557 
L 239.067201 204.687721 
z
" style="fill:#5d0618;fill-opacity:0.8;"/>
    <path clip-path="url(#p82a9f88129)" d="M 202.729237 208.613112 
L 202.767205 206.105521 
L 215.694959 196.88507 
L 215.644566 199.37749 
z
" style="fill:#ba0c2f;fill-opacity:0.8;"/>
    <path clip-path="url(#p82a9f88129)" d="M 202.729237 208.613112 
L 215.644566 199.37749 
L 239.067201 204.687721 
L 226.308959 214.028053 
z
" style="fill:#74081d;fill-opacity:0.8;"/>
    <path clip-path="url(#p82a9f88129)" d="M 202.767205 206.105521 
L 226.370862 211.51165 
L 239.141207 202.186557 
L 215.694959 196.88507 
z
" style="fill:#a30a29;fill-opacity:0.8;"/>
    <path clip-path="url(#p82a9f88129)" d="M 226.308959 214.028053 
L 239.067201 204.687721 
L 239.141207 202.186557 
L 226.370862 211.51165 
z
" style="fill:#5d0618;fill-opacity:0.8;"/>
    <path clip-path="url(#p82a9f88129)" d="M 202.729237 208.613112 
L 226.308959 214.028053 
L 226.370862 211.51165 
L 202.767205 206.105521 
z
" style="fill:#ba0c2f;fill-opacity:0.8;"/>
   </g>
   <g id="Poly3DCollection_12">
    <path clip-path="url(#p82a9f88129)" d="M 97.252609 196.556121 
L 96.897522 183.30706 
L 119.703783 188.538728 
L 119.940874 201.83457 
z
" style="fill:#5d0618;fill-opacity:0.8;"/>
    <path clip-path="url(#p82a9f88129)" d="M 83.22148 205.736352 
L 82.788394 192.40613 
L 96.897522 183.30706 
L 97.252609 196.556121 
z
" style="fill:#ba0c2f;fill-opacity:0.8;"/>
    <path clip-path="url(#p82a9f88129)" d="M 83.22148 205.736352 
L 97.252609 196.556121 
L 119.940874 201.83457 
L 106.052834 211.118568 
z
" style="fill:#74081d;fill-opacity:0.8;"/>
    <path clip-path="url(#p82a9f88129)" d="M 82.788394 192.40613 
L 105.739227 197.741196 
L 119.703783 188.538728 
L 96.897522 183.30706 
z
" style="fill:#a30a29;fill-opacity:0.8;"/>
    <path clip-path="url(#p82a9f88129)" d="M 106.052834 211.118568 
L 119.940874 201.83457 
L 119.703783 188.538728 
L 105.739227 197.741196 
z
" style="fill:#5d0618;fill-opacity:0.8;"/>
    <path clip-path="url(#p82a9f88129)" d="M 83.22148 205.736352 
L 106.052834 211.118568 
L 105.739227 197.741196 
L 82.788394 192.40613 
z
" style="fill:#ba0c2f;fill-opacity:0.8;"/>
   </g>
   <g id="Poly3DCollection_13">
    <path clip-path="url(#p82a9f88129)" d="M 182.542572 180.073288 
L 195.264637 171.379887 
L 217.877588 176.378972 
L 205.30122 185.167975 
z
" style="fill:#74081d;fill-opacity:0.8;"/>
    <path clip-path="url(#p82a9f88129)" d="M 195.264637 171.379887 
L 196.369888 79.166895 
L 219.813273 83.826597 
L 217.877588 176.378972 
z
" style="fill:#5d0618;fill-opacity:0.8;"/>
    <path clip-path="url(#p82a9f88129)" d="M 182.542572 180.073288 
L 183.193082 87.271293 
L 196.369888 79.166895 
L 195.264637 171.379887 
z
" style="fill:#ba0c2f;fill-opacity:0.8;"/>
    <path clip-path="url(#p82a9f88129)" d="M 205.30122 185.167975 
L 217.877588 176.378972 
L 219.813273 83.826597 
L 206.793146 92.023392 
z
" style="fill:#5d0618;fill-opacity:0.8;"/>
    <path clip-path="url(#p82a9f88129)" d="M 182.542572 180.073288 
L 205.30122 185.167975 
L 206.793146 92.023392 
L 183.193082 87.271293 
z
" style="fill:#ba0c2f;fill-opacity:0.8;"/>
    <path clip-path="url(#p82a9f88129)" d="M 183.193082 87.271293 
L 206.793146 92.023392 
L 219.813273 83.826597 
L 196.369888 79.166895 
z
" style="fill:#a30a29;fill-opacity:0.8;"/>
   </g>
   <g id="Poly3DCollection_14">
    <path clip-path="url(#p82a9f88129)" d="M 142.885058 207.172558 
L 142.830888 200.962954 
L 166.092804 206.339627 
L 166.089515 212.571099 
z
" style="fill:#5d0618;fill-opacity:0.8;"/>
    <path clip-path="url(#p82a9f88129)" d="M 129.144261 216.562092 
L 129.055205 210.31455 
L 142.830888 200.962954 
L 142.885058 207.172558 
z
" style="fill:#ba0c2f;fill-opacity:0.8;"/>
    <path clip-path="url(#p82a9f88129)" d="M 129.144261 216.562092 
L 142.885058 207.172558 
L 166.089515 212.571099 
L 152.500231 222.067979 
z
" style="fill:#74081d;fill-opacity:0.8;"/>
    <path clip-path="url(#p82a9f88129)" d="M 129.055205 210.31455 
L 152.469386 215.798403 
L 166.092804 206.339627 
L 142.830888 200.962954 
z
" style="fill:#a30a29;fill-opacity:0.8;"/>
    <path clip-path="url(#p82a9f88129)" d="M 152.500231 222.067979 
L 166.089515 212.571099 
L 166.092804 206.339627 
L 152.469386 215.798403 
z
" style="fill:#5d0618;fill-opacity:0.8;"/>
    <path clip-path="url(#p82a9f88129)" d="M 129.144261 216.562092 
L 152.500231 222.067979 
L 152.469386 215.798403 
L 129.055205 210.31455 
z
" style="fill:#ba0c2f;fill-opacity:0.8;"/>
   </g>
   <g id="Poly3DCollection_15">
    <path clip-path="url(#p82a9f88129)" d="M 189.5587 218.03123 
L 189.540183 219.896865 
L 213.260712 225.42619 
L 213.297168 223.554009 
z
" style="fill:#ba0c2f;fill-opacity:0.8;"/>
    <path clip-path="url(#p82a9f88129)" d="M 176.125315 227.637307 
L 176.116748 229.514298 
L 189.540183 219.896865 
L 189.5587 218.03123 
z
" style="fill:#5d0618;fill-opacity:0.8;"/>
    <path clip-path="url(#p82a9f88129)" d="M 176.116748 229.514298 
L 199.997442 235.154762 
L 213.260712 225.42619 
L 189.540183 219.896865 
z
" style="fill:#a30a29;fill-opacity:0.8;"/>
    <path clip-path="url(#p82a9f88129)" d="M 176.125315 227.637307 
L 189.5587 218.03123 
L 213.297168 223.554009 
L 200.024193 233.271178 
z
" style="fill:#74081d;fill-opacity:0.8;"/>
    <path clip-path="url(#p82a9f88129)" d="M 200.024193 233.271178 
L 213.297168 223.554009 
L 213.260712 225.42619 
L 199.997442 235.154762 
z
" style="fill:#ba0c2f;fill-opacity:0.8;"/>
    <path clip-path="url(#p82a9f88129)" d="M 176.125315 227.637307 
L 200.024193 233.271178 
L 199.997442 235.154762 
L 176.116748 229.514298 
z
" style="fill:#5d0618;fill-opacity:0.8;"/>
   </g>
   <g id="Poly3DCollection_16">
    <path clip-path="url(#p82a9f88129)" d="M 25.478181 196.494547 
L 203.765835 238.719792 
L 299.813871 167.812442 
L 130.029499 131.344251 
z
" style="fill-opacity:0.15;"/>
   </g>
   <g id="Poly3DCollection_17">
    <path clip-path="url(#p82a9f88129)" d="M 38.321613 195.151752 
L 52.626898 186.173903 
L 74.816005 191.336222 
L 60.64583 200.414416 
z
" style="fill:#74081d;fill-opacity:0.8;"/>
    <path clip-path="url(#p82a9f88129)" d="M 52.626898 186.173903 
L 46.933544 57.750519 
L 70.222556 62.427839 
L 74.816005 191.336222 
z
" style="fill:#5d0618;fill-opacity:0.8;"/>
    <path clip-path="url(#p82a9f88129)" d="M 38.321613 195.151752 
L 31.836896 65.886594 
L 46.933544 57.750519 
L 52.626898 186.173903 
z
" style="fill:#ba0c2f;fill-opacity:0.8;"/>
    <path clip-path="url(#p82a9f88129)" d="M 60.64583 200.414416 
L 74.816005 191.336222 
L 70.222556 62.427839 
L 55.274545 70.659531 
z
" style="fill:#5d0618;fill-opacity:0.8;"/>
    <path clip-path="url(#p82a9f88129)" d="M 38.321613 195.151752 
L 60.64583 200.414416 
L 55.274545 70.659531 
L 31.836896 65.886594 
z
" style="fill:#ba0c2f;fill-opacity:0.8;"/>
    <path clip-path="url(#p82a9f88129)" d="M 31.836896 65.886594 
L 55.274545 70.659531 
L 70.222556 62.427839 
L 46.933544 57.750519 
z
" style="fill:#a30a29;fill-opacity:0.8;"/>
   </g>
  </g>
  <g id="patch_6">
   <path d="M 425.945455 262.8 
L 806.4 262.8 
L 806.4 -14.4 
L 425.945455 -14.4 
z
" style="fill:#ffffff;"/>
  </g>
  <g id="pane3d_4">
   <g id="patch_7">
    <path d="M 476.380584 201.548569 
L 585.268665 133.58541 
L 583.455794 3.718968 
L 468.496488 64.782468 
" style="fill:#f2f2f2;opacity:0.5;stroke:#f2f2f2;stroke-linejoin:miter;"/>
   </g>
  </g>
  <g id="pane3d_5">
   <g id="patch_8">
    <path d="M 585.268665 133.58541 
L 761.65712 171.581202 
L 769.037001 37.79869 
L 583.455794 3.718968 
" style="fill:#e6e6e6;opacity:0.5;stroke:#e6e6e6;stroke-linejoin:miter;"/>
   </g>
  </g>
  <g id="pane3d_6">
   <g id="patch_9">
    <path d="M 476.380584 201.548569 
L 661.965072 245.80086 
L 761.65712 171.581202 
L 585.268665 133.58541 
" style="fill:#ececec;opacity:0.5;stroke:#ececec;stroke-linejoin:miter;"/>
   </g>
  </g>
  <g id="axis3d_4">
   <g id="line2d_17">
    <path d="M 476.380584 201.548569 
L 661.965072 245.80086 
" style="fill:none;stroke:#000000;stroke-linecap:square;stroke-width:0.8;"/>
   </g>
   <g id="Line3DCollection_4">
    <path d="M 498.841271 206.90428 
L 606.679397 138.19749 
L 605.9393 7.847789 
" style="fill:none;stroke:#b0b0b0;stroke-width:0.8;"/>
    <path d="M 544.057792 217.686079 
L 649.729469 147.470895 
L 651.182353 16.156123 
" style="fill:none;stroke:#b0b0b0;stroke-width:0.8;"/>
    <path d="M 590.310744 228.715013 
L 693.693551 156.941187 
L 697.435637 24.649974 
" style="fill:none;stroke:#b0b0b0;stroke-width:0.8;"/>
    <path d="M 637.636176 239.999678 
L 738.601063 166.614702 
L 744.733372 33.335625 
" style="fill:none;stroke:#b0b0b0;stroke-width:0.8;"/>
   </g>
   <g id="xtick_14">
    <g id="line2d_18">
     <path d="M 499.770538 206.312217 
L 496.979262 208.09062 
" style="fill:none;stroke:#000000;stroke-linecap:square;stroke-width:0.8;"/>
    </g>
    <g id="text_14">
     <!-- 00 -->
     <g transform="translate(475.786746 243.348593)rotate(-45)scale(0.2 -0.2)">
      <use transform="scale(0.996264)" xlink:href="#CMR17-48"/>
      <use transform="translate(45.690477 0)scale(0.996264)" xlink:href="#CMR17-48"/>
     </g>
    </g>
   </g>
   <g id="xtick_15">
    <g id="line2d_19">
     <path d="M 544.969128 217.080527 
L 542.231671 218.899473 
" style="fill:none;stroke:#000000;stroke-linecap:square;stroke-width:0.8;"/>
    </g>
    <g id="text_15">
     <!-- 01 -->
     <g transform="translate(520.999172 254.305345)rotate(-45)scale(0.2 -0.2)">
      <use transform="scale(0.996264)" xlink:href="#CMR17-48"/>
      <use transform="translate(45.690477 0)scale(0.996264)" xlink:href="#CMR17-49"/>
     </g>
    </g>
   </g>
   <g id="xtick_16">
    <g id="line2d_20">
     <path d="M 591.20308 228.095506 
L 588.522658 229.956397 
" style="fill:none;stroke:#000000;stroke-linecap:square;stroke-width:0.8;"/>
    </g>
    <g id="text_16">
     <!-- 10 -->
     <g transform="translate(567.249784 265.513691)rotate(-45)scale(0.2 -0.2)">
      <use transform="scale(0.996264)" xlink:href="#CMR17-49"/>
      <use transform="translate(45.690477 0)scale(0.996264)" xlink:href="#CMR17-48"/>
     </g>
    </g>
   </g>
   <g id="xtick_17">
    <g id="line2d_21">
     <path d="M 638.50838 239.365727 
L 635.888391 241.270032 
" style="fill:none;stroke:#000000;stroke-linecap:square;stroke-width:0.8;"/>
    </g>
    <g id="text_17">
     <!-- 11 -->
     <g transform="translate(614.574759 276.982396)rotate(-45)scale(0.2 -0.2)">
      <use transform="scale(0.996264)" xlink:href="#CMR17-49"/>
      <use transform="translate(45.690477 0)scale(0.996264)" xlink:href="#CMR17-49"/>
     </g>
    </g>
   </g>
  </g>
  <g id="axis3d_5">
   <g id="line2d_22">
    <path d="M 761.65712 171.581202 
L 661.965072 245.80086 
" style="fill:none;stroke:#000000;stroke-linecap:square;stroke-width:0.8;"/>
   </g>
   <g id="Line3DCollection_5">
    <path d="M 484.000685 56.547028 
L 491.016499 192.413474 
L 675.403872 235.795817 
" style="fill:none;stroke:#b0b0b0;stroke-width:0.8;"/>
    <path d="M 513.777478 40.730342 
L 519.168861 174.842005 
L 701.219492 216.576366 
" style="fill:none;stroke:#b0b0b0;stroke-width:0.8;"/>
    <path d="M 542.401344 25.526062 
L 546.284836 157.917404 
L 726.04244 198.095948 
" style="fill:none;stroke:#b0b0b0;stroke-width:0.8;"/>
    <path d="M 569.937971 10.899296 
L 572.420618 141.604597 
L 749.928893 180.312741 
" style="fill:none;stroke:#b0b0b0;stroke-width:0.8;"/>
   </g>
   <g id="xtick_18">
    <g id="line2d_23">
     <path d="M 673.861052 235.432825 
L 678.492943 236.522608 
" style="fill:none;stroke:#000000;stroke-linecap:square;stroke-width:0.8;"/>
    </g>
    <g id="text_18">
     <!-- 00 -->
     <g transform="translate(689.641116 248.844567)rotate(-337.5)scale(0.2 -0.2)">
      <use transform="scale(0.996264)" xlink:href="#CMR17-48"/>
      <use transform="translate(45.690477 0)scale(0.996264)" xlink:href="#CMR17-48"/>
     </g>
    </g>
   </g>
   <g id="xtick_19">
    <g id="line2d_24">
     <path d="M 699.697534 216.227463 
L 704.266725 217.274932 
" style="fill:none;stroke:#000000;stroke-linecap:square;stroke-width:0.8;"/>
    </g>
    <g id="text_19">
     <!-- 01 -->
     <g transform="translate(715.194668 229.400141)rotate(-337.5)scale(0.2 -0.2)">
      <use transform="scale(0.996264)" xlink:href="#CMR17-48"/>
      <use transform="translate(45.690477 0)scale(0.996264)" xlink:href="#CMR17-49"/>
     </g>
    </g>
   </g>
   <g id="xtick_20">
    <g id="line2d_25">
     <path d="M 724.540896 197.76033 
L 729.048738 198.767901 
" style="fill:none;stroke:#000000;stroke-linecap:square;stroke-width:0.8;"/>
    </g>
    <g id="text_20">
     <!-- 10 -->
     <g transform="translate(739.766079 210.703053)rotate(-337.5)scale(0.2 -0.2)">
      <use transform="scale(0.996264)" xlink:href="#CMR17-49"/>
      <use transform="translate(45.690477 0)scale(0.996264)" xlink:href="#CMR17-48"/>
     </g>
    </g>
   </g>
   <g id="xtick_21">
    <g id="line2d_26">
     <path d="M 748.44732 179.989663 
L 752.895146 180.959573 
" style="fill:none;stroke:#000000;stroke-linecap:square;stroke-width:0.8;"/>
    </g>
    <g id="text_21">
     <!-- 11 -->
     <g transform="translate(763.410906 192.711031)rotate(-337.5)scale(0.2 -0.2)">
      <use transform="scale(0.996264)" xlink:href="#CMR17-49"/>
      <use transform="translate(45.690477 0)scale(0.996264)" xlink:href="#CMR17-49"/>
     </g>
    </g>
   </g>
  </g>
  <g id="axis3d_6">
   <g id="line2d_27">
    <path d="M 761.65712 171.581202 
L 769.037001 37.79869 
" style="fill:none;stroke:#000000;stroke-linecap:square;stroke-width:0.8;"/>
   </g>
   <g id="Line3DCollection_6">
    <path d="M 762.354984 158.930319 
L 585.096896 121.2806 
L 475.636201 188.635693 
" style="fill:none;stroke:#b0b0b0;stroke-width:0.8;"/>
    <path d="M 763.85055 131.818694 
L 584.729023 94.927711 
L 474.040126 160.948446 
" style="fill:none;stroke:#b0b0b0;stroke-width:0.8;"/>
    <path d="M 765.378173 104.125936 
L 584.3536 68.033972 
L 472.40869 132.647785 
" style="fill:none;stroke:#b0b0b0;stroke-width:0.8;"/>
    <path d="M 766.938895 75.833159 
L 583.970391 40.582561 
L 470.740705 103.713095 
" style="fill:none;stroke:#b0b0b0;stroke-width:0.8;"/>
    <path d="M 768.533804 46.920646 
L 583.579154 12.55595 
L 469.034928 74.12283 
" style="fill:none;stroke:#b0b0b0;stroke-width:0.8;"/>
   </g>
   <g id="xtick_22">
    <g id="line2d_28">
     <path d="M 760.875777 158.616135 
L 765.316487 159.559344 
" style="fill:none;stroke:#000000;stroke-linecap:square;stroke-width:0.8;"/>
    </g>
    <g id="text_22">
     <!-- $0.0$ -->
     <g transform="translate(769.107134 170.840275)scale(0.2 -0.2)">
      <use transform="scale(0.996264)" xlink:href="#CMR17-48"/>
      <use transform="translate(45.690477 0)scale(0.996264)" xlink:href="#CMMI12-58"/>
      <use transform="translate(72.787654 0)scale(0.996264)" xlink:href="#CMR17-48"/>
     </g>
    </g>
   </g>
   <g id="xtick_23">
    <g id="line2d_29">
     <path d="M 762.355138 131.510707 
L 766.844531 132.43532 
" style="fill:none;stroke:#000000;stroke-linecap:square;stroke-width:0.8;"/>
    </g>
    <g id="text_23">
     <!-- $0.1$ -->
     <g transform="translate(770.796282 143.766693)scale(0.2 -0.2)">
      <use transform="scale(0.996264)" xlink:href="#CMR17-48"/>
      <use transform="translate(45.690477 0)scale(0.996264)" xlink:href="#CMMI12-58"/>
      <use transform="translate(72.787654 0)scale(0.996264)" xlink:href="#CMR17-49"/>
     </g>
    </g>
   </g>
   <g id="xtick_24">
    <g id="line2d_30">
     <path d="M 763.866197 103.824485 
L 768.405351 104.729483 
" style="fill:none;stroke:#000000;stroke-linecap:square;stroke-width:0.8;"/>
    </g>
    <g id="text_24">
     <!-- $0.2$ -->
     <g transform="translate(772.521557 116.114058)scale(0.2 -0.2)">
      <use transform="scale(0.996264)" xlink:href="#CMR17-48"/>
      <use transform="translate(45.690477 0)scale(0.996264)" xlink:href="#CMMI12-58"/>
      <use transform="translate(72.787654 0)scale(0.996264)" xlink:href="#CMR17-50"/>
     </g>
    </g>
   </g>
   <g id="xtick_25">
    <g id="line2d_31">
     <path d="M 765.409985 75.5386 
L 770.000014 76.422912 
" style="fill:none;stroke:#000000;stroke-linecap:square;stroke-width:0.8;"/>
    </g>
    <g id="text_25">
     <!-- $0.3$ -->
     <g transform="translate(774.284131 87.863591)scale(0.2 -0.2)">
      <use transform="scale(0.996264)" xlink:href="#CMR17-48"/>
      <use transform="translate(45.690477 0)scale(0.996264)" xlink:href="#CMMI12-58"/>
      <use transform="translate(72.787654 0)scale(0.996264)" xlink:href="#CMR17-51"/>
     </g>
    </g>
   </g>
   <g id="xtick_26">
    <g id="line2d_32">
     <path d="M 766.987576 46.633356 
L 771.629632 47.495853 
" style="fill:none;stroke:#000000;stroke-linecap:square;stroke-width:0.8;"/>
    </g>
    <g id="text_26">
     <!-- $0.4$ -->
     <g transform="translate(776.085228 58.995694)scale(0.2 -0.2)">
      <use transform="scale(0.996264)" xlink:href="#CMR17-48"/>
      <use transform="translate(45.690477 0)scale(0.996264)" xlink:href="#CMMI12-58"/>
      <use transform="translate(72.787654 0)scale(0.996264)" xlink:href="#CMR17-52"/>
     </g>
    </g>
   </g>
  </g>
  <g id="axes_2">
   <g id="Poly3DCollection_18">
    <path clip-path="url(#p2acbf26370)" d="M 589.4757 127.599326 
L 589.456014 125.999034 
L 610.937917 130.581765 
L 610.944362 132.187628 
z
" style="fill:#065d4c;fill-opacity:0.8;"/>
    <path clip-path="url(#p2acbf26370)" d="M 576.644567 135.577221 
L 576.616695 133.967261 
L 589.456014 125.999034 
L 589.4757 127.599326 
z
" style="fill:#0cba97;fill-opacity:0.8;"/>
    <path clip-path="url(#p2acbf26370)" d="M 576.644567 135.577221 
L 589.4757 127.599326 
L 610.944362 132.187628 
L 598.242518 140.250066 
z
" style="fill:#08745e;fill-opacity:0.8;"/>
    <path clip-path="url(#p2acbf26370)" d="M 576.616695 133.967261 
L 598.228045 138.634485 
L 610.937917 130.581765 
L 589.456014 125.999034 
z
" style="fill:#0aa384;fill-opacity:0.8;"/>
    <path clip-path="url(#p2acbf26370)" d="M 598.242518 140.250066 
L 610.944362 132.187628 
L 610.937917 130.581765 
L 598.228045 138.634485 
z
" style="fill:#065d4c;fill-opacity:0.8;"/>
    <path clip-path="url(#p2acbf26370)" d="M 576.644567 135.577221 
L 598.242518 140.250066 
L 598.228045 138.634485 
L 576.616695 133.967261 
z
" style="fill:#0cba97;fill-opacity:0.8;"/>
   </g>
   <g id="Poly3DCollection_19">
    <path clip-path="url(#p2acbf26370)" d="M 632.640086 136.824459 
L 632.651145 134.306433 
L 654.599134 138.983766 
L 654.566494 141.510591 
z
" style="fill:#065d4c;fill-opacity:0.8;"/>
    <path clip-path="url(#p2acbf26370)" d="M 620.071009 144.97279 
L 620.069784 142.439494 
L 632.651145 134.306433 
L 632.640086 136.824459 
z
" style="fill:#0cba97;fill-opacity:0.8;"/>
    <path clip-path="url(#p2acbf26370)" d="M 620.071009 144.97279 
L 632.640086 136.824459 
L 654.566494 141.510591 
L 642.133752 149.746196 
z
" style="fill:#08745e;fill-opacity:0.8;"/>
    <path clip-path="url(#p2acbf26370)" d="M 620.069784 142.439494 
L 642.154379 147.204023 
L 654.599134 138.983766 
L 632.651145 134.306433 
z
" style="fill:#0aa384;fill-opacity:0.8;"/>
    <path clip-path="url(#p2acbf26370)" d="M 642.133752 149.746196 
L 654.566494 141.510591 
L 654.599134 138.983766 
L 642.154379 147.204023 
z
" style="fill:#065d4c;fill-opacity:0.8;"/>
    <path clip-path="url(#p2acbf26370)" d="M 620.071009 144.97279 
L 642.133752 149.746196 
L 642.154379 147.204023 
L 620.069784 142.439494 
z
" style="fill:#0cba97;fill-opacity:0.8;"/>
   </g>
   <g id="Poly3DCollection_20">
    <path clip-path="url(#p2acbf26370)" d="M 563.576548 143.702403 
L 563.3504 133.62822 
L 585.163116 138.352519 
L 585.304917 148.462149 
z
" style="fill:#065d4c;fill-opacity:0.8;"/>
    <path clip-path="url(#p2acbf26370)" d="M 550.265021 151.978988 
L 549.98413 141.843295 
L 563.3504 133.62822 
L 563.576548 143.702403 
z
" style="fill:#0cba97;fill-opacity:0.8;"/>
    <path clip-path="url(#p2acbf26370)" d="M 550.265021 151.978988 
L 563.576548 143.702403 
L 585.304917 148.462149 
L 572.124935 156.828082 
z
" style="fill:#08745e;fill-opacity:0.8;"/>
    <path clip-path="url(#p2acbf26370)" d="M 549.98413 141.843295 
L 571.929411 146.656629 
L 585.163116 138.352519 
L 563.3504 133.62822 
z
" style="fill:#0aa384;fill-opacity:0.8;"/>
    <path clip-path="url(#p2acbf26370)" d="M 572.124935 156.828082 
L 585.304917 148.462149 
L 585.163116 138.352519 
L 571.929411 146.656629 
z
" style="fill:#065d4c;fill-opacity:0.8;"/>
    <path clip-path="url(#p2acbf26370)" d="M 550.265021 151.978988 
L 572.124935 156.828082 
L 571.929411 146.656629 
L 549.98413 141.843295 
z
" style="fill:#0cba97;fill-opacity:0.8;"/>
   </g>
   <g id="Poly3DCollection_21">
    <path clip-path="url(#p2acbf26370)" d="M 676.727283 146.246816 
L 676.824967 141.717306 
L 699.264141 146.488532 
L 699.126234 151.033941 
z
" style="fill:#065d4c;fill-opacity:0.8;"/>
    <path clip-path="url(#p2acbf26370)" d="M 664.434539 154.571104 
L 664.511264 150.014007 
L 676.824967 141.717306 
L 676.727283 146.246816 
z
" style="fill:#0cba97;fill-opacity:0.8;"/>
    <path clip-path="url(#p2acbf26370)" d="M 664.434539 154.571104 
L 676.727283 146.246816 
L 699.126234 151.033941 
L 686.977242 159.448352 
z
" style="fill:#08745e;fill-opacity:0.8;"/>
    <path clip-path="url(#p2acbf26370)" d="M 664.511264 150.014007 
L 687.094712 154.875219 
L 699.264141 146.488532 
L 676.824967 141.717306 
z
" style="fill:#0aa384;fill-opacity:0.8;"/>
    <path clip-path="url(#p2acbf26370)" d="M 686.977242 159.448352 
L 699.126234 151.033941 
L 699.264141 146.488532 
L 687.094712 154.875219 
z
" style="fill:#065d4c;fill-opacity:0.8;"/>
    <path clip-path="url(#p2acbf26370)" d="M 664.434539 154.571104 
L 686.977242 159.448352 
L 687.094712 154.875219 
L 664.511264 150.014007 
z
" style="fill:#0cba97;fill-opacity:0.8;"/>
   </g>
   <g id="Poly3DCollection_22">
    <path clip-path="url(#p2acbf26370)" d="M 607.267383 153.273175 
L 607.258556 151.663017 
L 629.472901 156.520504 
L 629.467749 158.136316 
z
" style="fill:#065d4c;fill-opacity:0.8;"/>
    <path clip-path="url(#p2acbf26370)" d="M 594.222581 161.729911 
L 594.205397 160.109943 
L 607.258556 151.663017 
L 607.267383 153.273175 
z
" style="fill:#0cba97;fill-opacity:0.8;"/>
    <path clip-path="url(#p2acbf26370)" d="M 594.222581 161.729911 
L 607.267383 153.273175 
L 629.467749 158.136316 
L 616.561859 166.68534 
z
" style="fill:#08745e;fill-opacity:0.8;"/>
    <path clip-path="url(#p2acbf26370)" d="M 594.205397 160.109943 
L 616.558828 165.059669 
L 629.472901 156.520504 
L 607.258556 151.663017 
z
" style="fill:#0aa384;fill-opacity:0.8;"/>
    <path clip-path="url(#p2acbf26370)" d="M 616.561859 166.68534 
L 629.467749 158.136316 
L 629.472901 156.520504 
L 616.558828 165.059669 
z
" style="fill:#065d4c;fill-opacity:0.8;"/>
    <path clip-path="url(#p2acbf26370)" d="M 594.222581 161.729911 
L 616.561859 166.68534 
L 616.558828 165.059669 
L 594.205397 160.109943 
z
" style="fill:#0cba97;fill-opacity:0.8;"/>
   </g>
   <g id="Poly3DCollection_23">
    <path clip-path="url(#p2acbf26370)" d="M 721.767204 155.87279 
L 721.767204 155.87279 
L 744.65414 160.764207 
L 744.65414 160.764207 
z
" style="fill:#065d4c;fill-opacity:0.8;"/>
    <path clip-path="url(#p2acbf26370)" d="M 709.76582 164.378796 
L 709.76582 164.378796 
L 721.767204 155.87279 
L 721.767204 155.87279 
z
" style="fill:#065d4c;fill-opacity:0.8;"/>
    <path clip-path="url(#p2acbf26370)" d="M 709.76582 164.378796 
L 721.767204 155.87279 
L 744.65414 160.764207 
L 732.804316 169.363312 
z
" style="fill:#08745e;fill-opacity:0.8;"/>
    <path clip-path="url(#p2acbf26370)" d="M 709.76582 164.378796 
L 732.804316 169.363312 
L 744.65414 160.764207 
L 721.767204 155.87279 
z
" style="fill:#0aa384;fill-opacity:0.8;"/>
    <path clip-path="url(#p2acbf26370)" d="M 732.804316 169.363312 
L 744.65414 160.764207 
L 744.65414 160.764207 
L 732.804316 169.363312 
z
" style="fill:#065d4c;fill-opacity:0.8;"/>
    <path clip-path="url(#p2acbf26370)" d="M 709.76582 164.378796 
L 732.804316 169.363312 
L 732.804316 169.363312 
L 709.76582 164.378796 
z
" style="fill:#065d4c;fill-opacity:0.8;"/>
   </g>
   <g id="Poly3DCollection_24">
    <path clip-path="url(#p2acbf26370)" d="M 536.703116 160.411249 
L 536.561209 156.125565 
L 558.590099 161.051441 
L 558.695695 165.35223 
z
" style="fill:#065d4c;fill-opacity:0.8;"/>
    <path clip-path="url(#p2acbf26370)" d="M 522.883701 169.003619 
L 522.717047 164.691726 
L 536.561209 156.125565 
L 536.703116 160.411249 
z
" style="fill:#0cba97;fill-opacity:0.8;"/>
    <path clip-path="url(#p2acbf26370)" d="M 522.883701 169.003619 
L 536.703116 160.411249 
L 558.695695 165.35223 
L 545.01006 174.039125 
z
" style="fill:#08745e;fill-opacity:0.8;"/>
    <path clip-path="url(#p2acbf26370)" d="M 522.717047 164.691726 
L 544.880155 169.711999 
L 558.590099 161.051441 
L 536.561209 156.125565 
z
" style="fill:#0aa384;fill-opacity:0.8;"/>
    <path clip-path="url(#p2acbf26370)" d="M 545.01006 174.039125 
L 558.695695 165.35223 
L 558.590099 161.051441 
L 544.880155 169.711999 
z
" style="fill:#065d4c;fill-opacity:0.8;"/>
    <path clip-path="url(#p2acbf26370)" d="M 522.883701 169.003619 
L 545.01006 174.039125 
L 544.880155 169.711999 
L 522.717047 164.691726 
z
" style="fill:#0cba97;fill-opacity:0.8;"/>
   </g>
   <g id="Poly3DCollection_25">
    <path clip-path="url(#p2acbf26370)" d="M 651.909903 163.052421 
L 651.909903 163.052421 
L 674.597816 168.022362 
L 674.597816 168.022362 
z
" style="fill:#065d4c;fill-opacity:0.8;"/>
    <path clip-path="url(#p2acbf26370)" d="M 639.146754 171.695254 
L 639.146754 171.695254 
L 651.909903 163.052421 
L 651.909903 163.052421 
z
" style="fill:#065d4c;fill-opacity:0.8;"/>
    <path clip-path="url(#p2acbf26370)" d="M 639.146754 171.695254 
L 651.909903 163.052421 
L 674.597816 168.022362 
L 661.981339 176.760555 
z
" style="fill:#08745e;fill-opacity:0.8;"/>
    <path clip-path="url(#p2acbf26370)" d="M 639.146754 171.695254 
L 661.981339 176.760555 
L 674.597816 168.022362 
L 651.909903 163.052421 
z
" style="fill:#0aa384;fill-opacity:0.8;"/>
    <path clip-path="url(#p2acbf26370)" d="M 661.981339 176.760555 
L 674.597816 168.022362 
L 674.597816 168.022362 
L 661.981339 176.760555 
z
" style="fill:#065d4c;fill-opacity:0.8;"/>
    <path clip-path="url(#p2acbf26370)" d="M 639.146754 171.695254 
L 661.981339 176.760555 
L 661.981339 176.760555 
L 639.146754 171.695254 
z
" style="fill:#065d4c;fill-opacity:0.8;"/>
   </g>
   <g id="Poly3DCollection_26">
    <path clip-path="url(#p2acbf26370)" d="M 580.929724 170.347457 
L 580.929724 170.347457 
L 603.4092 175.397827 
L 603.4092 175.397827 
z
" style="fill:#065d4c;fill-opacity:0.8;"/>
    <path clip-path="url(#p2acbf26370)" d="M 567.381669 179.130444 
L 567.381669 179.130444 
L 580.929724 170.347457 
L 580.929724 170.347457 
z
" style="fill:#065d4c;fill-opacity:0.8;"/>
    <path clip-path="url(#p2acbf26370)" d="M 567.381669 179.130444 
L 580.929724 170.347457 
L 603.4092 175.397827 
L 590.002627 184.27851 
z
" style="fill:#08745e;fill-opacity:0.8;"/>
    <path clip-path="url(#p2acbf26370)" d="M 567.381669 179.130444 
L 590.002627 184.27851 
L 603.4092 175.397827 
L 580.929724 170.347457 
z
" style="fill:#0aa384;fill-opacity:0.8;"/>
    <path clip-path="url(#p2acbf26370)" d="M 590.002627 184.27851 
L 603.4092 175.397827 
L 603.4092 175.397827 
L 590.002627 184.27851 
z
" style="fill:#065d4c;fill-opacity:0.8;"/>
    <path clip-path="url(#p2acbf26370)" d="M 567.381669 179.130444 
L 590.002627 184.27851 
L 590.002627 184.27851 
L 567.381669 179.130444 
z
" style="fill:#065d4c;fill-opacity:0.8;"/>
   </g>
   <g id="Poly3DCollection_27">
    <path clip-path="url(#p2acbf26370)" d="M 697.535548 173.047027 
L 697.397635 177.647668 
L 720.546376 182.744146 
L 720.727246 178.127325 
z
" style="fill:#0cba97;fill-opacity:0.8;"/>
    <path clip-path="url(#p2acbf26370)" d="M 685.069778 181.882167 
L 684.953311 186.510881 
L 697.397635 177.647668 
L 697.535548 173.047027 
z
" style="fill:#065d4c;fill-opacity:0.8;"/>
    <path clip-path="url(#p2acbf26370)" d="M 684.953311 186.510881 
L 708.256324 191.706061 
L 720.546376 182.744146 
L 697.397635 177.647668 
z
" style="fill:#0aa384;fill-opacity:0.8;"/>
    <path clip-path="url(#p2acbf26370)" d="M 685.069778 181.882167 
L 697.535548 173.047027 
L 720.727246 178.127325 
L 708.416327 187.061035 
z
" style="fill:#08745e;fill-opacity:0.8;"/>
    <path clip-path="url(#p2acbf26370)" d="M 708.416327 187.061035 
L 720.727246 178.127325 
L 720.546376 182.744146 
L 708.256324 191.706061 
z
" style="fill:#0cba97;fill-opacity:0.8;"/>
    <path clip-path="url(#p2acbf26370)" d="M 685.069778 181.882167 
L 708.416327 187.061035 
L 708.256324 191.706061 
L 684.953311 186.510881 
z
" style="fill:#065d4c;fill-opacity:0.8;"/>
   </g>
   <g id="Poly3DCollection_28">
    <path clip-path="url(#p2acbf26370)" d="M 508.799373 177.760703 
L 508.799373 177.760703 
L 531.060616 182.893471 
L 531.060616 182.893471 
z
" style="fill:#065d4c;fill-opacity:0.8;"/>
    <path clip-path="url(#p2acbf26370)" d="M 494.442439 186.687281 
L 494.442439 186.687281 
L 508.799373 177.760703 
L 508.799373 177.760703 
z
" style="fill:#065d4c;fill-opacity:0.8;"/>
    <path clip-path="url(#p2acbf26370)" d="M 494.442439 186.687281 
L 508.799373 177.760703 
L 531.060616 182.893471 
L 516.83966 191.920157 
z
" style="fill:#08745e;fill-opacity:0.8;"/>
    <path clip-path="url(#p2acbf26370)" d="M 494.442439 186.687281 
L 516.83966 191.920157 
L 531.060616 182.893471 
L 508.799373 177.760703 
z
" style="fill:#0aa384;fill-opacity:0.8;"/>
    <path clip-path="url(#p2acbf26370)" d="M 516.83966 191.920157 
L 531.060616 182.893471 
L 531.060616 182.893471 
L 516.83966 191.920157 
z
" style="fill:#065d4c;fill-opacity:0.8;"/>
    <path clip-path="url(#p2acbf26370)" d="M 494.442439 186.687281 
L 516.83966 191.920157 
L 516.83966 191.920157 
L 494.442439 186.687281 
z
" style="fill:#065d4c;fill-opacity:0.8;"/>
   </g>
   <g id="Poly3DCollection_29">
    <path clip-path="url(#p2acbf26370)" d="M 626.138211 180.504259 
L 626.135091 182.143528 
L 649.102854 187.312746 
L 649.120934 185.667692 
z
" style="fill:#0cba97;fill-opacity:0.8;"/>
    <path clip-path="url(#p2acbf26370)" d="M 612.877129 189.484277 
L 612.882637 191.133584 
L 626.135091 182.143528 
L 626.138211 180.504259 
z
" style="fill:#065d4c;fill-opacity:0.8;"/>
    <path clip-path="url(#p2acbf26370)" d="M 612.882637 191.133584 
L 635.99981 196.40386 
L 649.102854 187.312746 
L 626.135091 182.143528 
z
" style="fill:#0aa384;fill-opacity:0.8;"/>
    <path clip-path="url(#p2acbf26370)" d="M 612.877129 189.484277 
L 626.138211 180.504259 
L 649.120934 185.667692 
L 636.009459 194.748721 
z
" style="fill:#08745e;fill-opacity:0.8;"/>
    <path clip-path="url(#p2acbf26370)" d="M 636.009459 194.748721 
L 649.120934 185.667692 
L 649.102854 187.312746 
L 635.99981 196.40386 
z
" style="fill:#0cba97;fill-opacity:0.8;"/>
    <path clip-path="url(#p2acbf26370)" d="M 612.877129 189.484277 
L 636.009459 194.748721 
L 635.99981 196.40386 
L 612.882637 191.133584 
z
" style="fill:#065d4c;fill-opacity:0.8;"/>
   </g>
   <g id="Poly3DCollection_30">
    <path clip-path="url(#p2acbf26370)" d="M 553.570995 188.083682 
L 553.687688 192.437746 
L 576.412632 197.701737 
L 576.334716 193.332307 
z
" style="fill:#0cba97;fill-opacity:0.8;"/>
    <path clip-path="url(#p2acbf26370)" d="M 539.489992 197.21217 
L 539.632318 201.592895 
L 553.687688 192.437746 
L 553.570995 188.083682 
z
" style="fill:#065d4c;fill-opacity:0.8;"/>
    <path clip-path="url(#p2acbf26370)" d="M 539.632318 201.592895 
L 562.500811 206.960541 
L 576.412632 197.701737 
L 553.687688 192.437746 
z
" style="fill:#0aa384;fill-opacity:0.8;"/>
    <path clip-path="url(#p2acbf26370)" d="M 539.489992 197.21217 
L 553.570995 188.083682 
L 576.334716 193.332307 
L 562.39775 202.564329 
z
" style="fill:#08745e;fill-opacity:0.8;"/>
    <path clip-path="url(#p2acbf26370)" d="M 562.39775 202.564329 
L 576.334716 193.332307 
L 576.412632 197.701737 
L 562.500811 206.960541 
z
" style="fill:#0cba97;fill-opacity:0.8;"/>
    <path clip-path="url(#p2acbf26370)" d="M 539.489992 197.21217 
L 562.39775 202.564329 
L 562.500811 206.960541 
L 539.632318 201.592895 
z
" style="fill:#065d4c;fill-opacity:0.8;"/>
   </g>
   <g id="Poly3DCollection_31">
    <path clip-path="url(#p2acbf26370)" d="M 672.361642 190.889085 
L 672.308848 193.500273 
L 695.787167 198.789838 
L 695.864702 196.169419 
z
" style="fill:#0cba97;fill-opacity:0.8;"/>
    <path clip-path="url(#p2acbf26370)" d="M 659.404002 200.072839 
L 659.364223 202.700042 
L 672.308848 193.500273 
L 672.361642 190.889085 
z
" style="fill:#065d4c;fill-opacity:0.8;"/>
    <path clip-path="url(#p2acbf26370)" d="M 659.364223 202.700042 
L 683.000385 208.094158 
L 695.787167 198.789838 
L 672.308848 193.500273 
z
" style="fill:#0aa384;fill-opacity:0.8;"/>
    <path clip-path="url(#p2acbf26370)" d="M 659.404002 200.072839 
L 672.361642 190.889085 
L 695.864702 196.169419 
L 683.065241 205.457651 
z
" style="fill:#08745e;fill-opacity:0.8;"/>
    <path clip-path="url(#p2acbf26370)" d="M 683.065241 205.457651 
L 695.864702 196.169419 
L 695.787167 198.789838 
L 683.000385 208.094158 
z
" style="fill:#0cba97;fill-opacity:0.8;"/>
    <path clip-path="url(#p2acbf26370)" d="M 659.404002 200.072839 
L 683.065241 205.457651 
L 683.000385 208.094158 
L 659.364223 202.700042 
z
" style="fill:#065d4c;fill-opacity:0.8;"/>
   </g>
   <g id="Poly3DCollection_32">
    <path clip-path="url(#p2acbf26370)" d="M 599.356081 198.640336 
L 599.446674 209.025184 
L 622.633989 214.430216 
L 622.639488 204.008784 
z
" style="fill:#0cba97;fill-opacity:0.8;"/>
    <path clip-path="url(#p2acbf26370)" d="M 585.567349 207.977663 
L 585.716284 218.425978 
L 599.446674 209.025184 
L 599.356081 198.640336 
z
" style="fill:#065d4c;fill-opacity:0.8;"/>
    <path clip-path="url(#p2acbf26370)" d="M 585.716284 218.425978 
L 609.054888 223.938404 
L 622.633989 214.430216 
L 599.446674 209.025184 
z
" style="fill:#0aa384;fill-opacity:0.8;"/>
    <path clip-path="url(#p2acbf26370)" d="M 585.567349 207.977663 
L 599.356081 198.640336 
L 622.639488 204.008784 
L 609.003302 213.453228 
z
" style="fill:#08745e;fill-opacity:0.8;"/>
    <path clip-path="url(#p2acbf26370)" d="M 609.003302 213.453228 
L 622.639488 204.008784 
L 622.633989 214.430216 
L 609.054888 223.938404 
z
" style="fill:#0cba97;fill-opacity:0.8;"/>
    <path clip-path="url(#p2acbf26370)" d="M 585.567349 207.977663 
L 609.003302 213.453228 
L 609.054888 223.938404 
L 585.716284 218.425978 
z
" style="fill:#065d4c;fill-opacity:0.8;"/>
   </g>
   <g id="Poly3DCollection_33">
    <path clip-path="url(#p2acbf26370)" d="M 646.189437 209.438689 
L 646.172635 211.131588 
L 669.97745 216.630019 
L 670.010532 214.931111 
z
" style="fill:#0cba97;fill-opacity:0.8;"/>
    <path clip-path="url(#p2acbf26370)" d="M 632.710231 218.992104 
L 632.702456 220.695426 
L 646.172635 211.131588 
L 646.189437 209.438689 
z
" style="fill:#065d4c;fill-opacity:0.8;"/>
    <path clip-path="url(#p2acbf26370)" d="M 632.702456 220.695426 
L 656.668584 226.30477 
L 669.97745 216.630019 
L 646.172635 211.131588 
z
" style="fill:#0aa384;fill-opacity:0.8;"/>
    <path clip-path="url(#p2acbf26370)" d="M 632.710231 218.992104 
L 646.189437 209.438689 
L 670.010532 214.931111 
L 656.692861 224.595395 
z
" style="fill:#08745e;fill-opacity:0.8;"/>
    <path clip-path="url(#p2acbf26370)" d="M 656.692861 224.595395 
L 670.010532 214.931111 
L 669.97745 216.630019 
L 656.668584 226.30477 
z
" style="fill:#0cba97;fill-opacity:0.8;"/>
    <path clip-path="url(#p2acbf26370)" d="M 632.710231 218.992104 
L 656.692861 224.595395 
L 656.668584 226.30477 
L 632.702456 220.695426 
z
" style="fill:#065d4c;fill-opacity:0.8;"/>
   </g>
   <g id="Poly3DCollection_34">
    <path clip-path="url(#p2acbf26370)" d="M 481.555206 188.022457 
L 660.448341 230.014649 
L 756.799593 159.505883 
L 586.46624 123.256598 
z
" style="fill-opacity:0.2;"/>
   </g>
  </g>
 </g>
 <defs>
  <clipPath id="p82a9f88129">
   <rect height="277.2" width="380.454545" x="-30.6" y="-14.4"/>
  </clipPath>
  <clipPath id="p2acbf26370">
   <rect height="277.2" width="380.454545" x="425.945455" y="-14.4"/>
  </clipPath>
 </defs>
</svg>
