<?xml version="1.0" encoding="utf-8" standalone="no"?>
<!DOCTYPE svg PUBLIC "-//W3C//DTD SVG 1.1//EN"
  "http://www.w3.org/Graphics/SVG/1.1/DTD/svg11.dtd">
<!-- Created with matplotlib (https://matplotlib.org/) -->
<svg height="302.4pt" version="1.1" viewBox="0 0 820.8 302.4" width="820.8pt" xmlns="http://www.w3.org/2000/svg" xmlns:xlink="http://www.w3.org/1999/xlink">
 <defs>
  <style type="text/css">
*{stroke-linecap:butt;stroke-linejoin:round;}
  </style>
 </defs>
 <g id="figure_1">
  <g id="patch_1">
   <path d="M 0 302.4 
L 820.8 302.4 
L 820.8 0 
L 0 0 
z
" style="fill:#ffffff;"/>
  </g>
  <g id="patch_2">
   <path d="M -30.6 262.8 
L 349.854545 262.8 
L 349.854545 -14.4 
L -30.6 -14.4 
z
" style="fill:#ffffff;"/>
  </g>
  <g id="pane3d_1">
   <g id="patch_3">
    <path d="M 19.835129 201.548569 
L 128.723211 133.58541 
L 126.910339 3.718968 
L 11.951034 64.782468 
" style="fill:#f2f2f2;opacity:0.5;stroke:#f2f2f2;stroke-linejoin:miter;"/>
   </g>
  </g>
  <g id="pane3d_2">
   <g id="patch_4">
    <path d="M 128.723211 133.58541 
L 305.111665 171.581202 
L 312.491547 37.79869 
L 126.910339 3.718968 
" style="fill:#e6e6e6;opacity:0.5;stroke:#e6e6e6;stroke-linejoin:miter;"/>
   </g>
  </g>
  <g id="pane3d_3">
   <g id="patch_5">
    <path d="M 19.835129 201.548569 
L 205.419617 245.80086 
L 305.111665 171.581202 
L 128.723211 133.58541 
" style="fill:#ececec;opacity:0.5;stroke:#ececec;stroke-linejoin:miter;"/>
   </g>
  </g>
  <g id="axis3d_1">
   <g id="line2d_1">
    <path d="M 19.835129 201.548569 
L 205.419617 245.80086 
" style="fill:none;stroke:#000000;stroke-linecap:square;stroke-width:0.8;"/>
   </g>
   <g id="Line3DCollection_1">
    <path d="M 42.295817 206.90428 
L 150.133942 138.19749 
L 149.393845 7.847789 
" style="fill:none;stroke:#b0b0b0;stroke-width:0.8;"/>
    <path d="M 87.512337 217.686079 
L 193.184014 147.470895 
L 194.636898 16.156123 
" style="fill:none;stroke:#b0b0b0;stroke-width:0.8;"/>
    <path d="M 133.765289 228.715013 
L 237.148096 156.941187 
L 240.890183 24.649974 
" style="fill:none;stroke:#b0b0b0;stroke-width:0.8;"/>
    <path d="M 181.090721 239.999678 
L 282.055608 166.614702 
L 288.187917 33.335625 
" style="fill:none;stroke:#b0b0b0;stroke-width:0.8;"/>
   </g>
   <g id="xtick_1">
    <g id="line2d_2">
     <path d="M 43.225084 206.312217 
L 40.433807 208.09062 
" style="fill:none;stroke:#000000;stroke-linecap:square;stroke-width:0.8;"/>
    </g>
    <g id="text_1">
     <!-- 00 -->
     <defs>
      <path d="M 42 31.84375 
C 42 37.96875 41.90625 48.421875 37.703125 56.453125 
C 34 63.484375 28.09375 66 22.90625 66 
C 18.09375 66 12 63.78125 8.203125 56.5625 
C 4.203125 49.015625 3.796875 39.671875 3.796875 31.84375 
C 3.796875 26.109375 3.90625 17.375 7 9.734375 
C 11.296875 -0.609375 19 -2 22.90625 -2 
C 27.5 -2 34.5 -0.109375 38.59375 9.4375 
C 41.59375 16.375 42 24.5 42 31.84375 
z
M 22.90625 -0.40625 
C 16.5 -0.40625 12.703125 5.125 11.296875 12.75 
C 10.203125 18.6875 10.203125 27.328125 10.203125 32.953125 
C 10.203125 40.6875 10.203125 47.109375 11.5 53.234375 
C 13.40625 61.78125 19 64.390625 22.90625 64.390625 
C 27 64.390625 32.296875 61.671875 34.203125 53.4375 
C 35.5 47.71875 35.59375 40.984375 35.59375 32.953125 
C 35.59375 26.421875 35.59375 18.375 34.40625 12.453125 
C 32.296875 1.5 26.40625 -0.40625 22.90625 -0.40625 
z
" id="CMR17-48"/>
     </defs>
     <g transform="translate(19.241292 243.348593)rotate(-45)scale(0.2 -0.2)">
      <use transform="scale(0.996264)" xlink:href="#CMR17-48"/>
      <use transform="translate(45.690477 0)scale(0.996264)" xlink:href="#CMR17-48"/>
     </g>
    </g>
   </g>
   <g id="xtick_2">
    <g id="line2d_3">
     <path d="M 88.423674 217.080527 
L 85.686217 218.899473 
" style="fill:none;stroke:#000000;stroke-linecap:square;stroke-width:0.8;"/>
    </g>
    <g id="text_2">
     <!-- 01 -->
     <defs>
      <path d="M 26.59375 63.796875 
C 26.59375 65.890625 26.5 66 25.09375 66 
C 21.203125 61.359375 15.296875 59.890625 9.703125 59.6875 
C 9.40625 59.6875 8.90625 59.6875 8.796875 59.5 
C 8.703125 59.296875 8.703125 59.09375 8.703125 57 
C 11.796875 57 17 57.59375 21 59.984375 
L 21 7.296875 
C 21 3.796875 20.796875 2.59375 12.203125 2.59375 
L 9.203125 2.59375 
L 9.203125 0 
C 14 0.09375 19 0.1875 23.796875 0.1875 
C 28.59375 0.1875 33.59375 0.09375 38.40625 0 
L 38.40625 2.59375 
L 35.40625 2.59375 
C 26.796875 2.59375 26.59375 3.6875 26.59375 7.296875 
z
" id="CMR17-49"/>
     </defs>
     <g transform="translate(64.453717 254.305345)rotate(-45)scale(0.2 -0.2)">
      <use transform="scale(0.996264)" xlink:href="#CMR17-48"/>
      <use transform="translate(45.690477 0)scale(0.996264)" xlink:href="#CMR17-49"/>
     </g>
    </g>
   </g>
   <g id="xtick_3">
    <g id="line2d_4">
     <path d="M 134.657625 228.095506 
L 131.977203 229.956397 
" style="fill:none;stroke:#000000;stroke-linecap:square;stroke-width:0.8;"/>
    </g>
    <g id="text_3">
     <!-- 10 -->
     <g transform="translate(110.70433 265.513691)rotate(-45)scale(0.2 -0.2)">
      <use transform="scale(0.996264)" xlink:href="#CMR17-49"/>
      <use transform="translate(45.690477 0)scale(0.996264)" xlink:href="#CMR17-48"/>
     </g>
    </g>
   </g>
   <g id="xtick_4">
    <g id="line2d_5">
     <path d="M 181.962926 239.365727 
L 179.342936 241.270032 
" style="fill:none;stroke:#000000;stroke-linecap:square;stroke-width:0.8;"/>
    </g>
    <g id="text_4">
     <!-- 11 -->
     <g transform="translate(158.029305 276.982396)rotate(-45)scale(0.2 -0.2)">
      <use transform="scale(0.996264)" xlink:href="#CMR17-49"/>
      <use transform="translate(45.690477 0)scale(0.996264)" xlink:href="#CMR17-49"/>
     </g>
    </g>
   </g>
  </g>
  <g id="axis3d_2">
   <g id="line2d_6">
    <path d="M 305.111665 171.581202 
L 205.419617 245.80086 
" style="fill:none;stroke:#000000;stroke-linecap:square;stroke-width:0.8;"/>
   </g>
   <g id="Line3DCollection_2">
    <path d="M 27.455231 56.547028 
L 34.471044 192.413474 
L 218.858418 235.795817 
" style="fill:none;stroke:#b0b0b0;stroke-width:0.8;"/>
    <path d="M 57.232024 40.730342 
L 62.623407 174.842005 
L 244.674037 216.576366 
" style="fill:none;stroke:#b0b0b0;stroke-width:0.8;"/>
    <path d="M 85.85589 25.526062 
L 89.739382 157.917404 
L 269.496985 198.095948 
" style="fill:none;stroke:#b0b0b0;stroke-width:0.8;"/>
    <path d="M 113.392516 10.899296 
L 115.875164 141.604597 
L 293.383438 180.312741 
" style="fill:none;stroke:#b0b0b0;stroke-width:0.8;"/>
   </g>
   <g id="xtick_5">
    <g id="line2d_7">
     <path d="M 217.315598 235.432825 
L 221.947489 236.522608 
" style="fill:none;stroke:#000000;stroke-linecap:square;stroke-width:0.8;"/>
    </g>
    <g id="text_5">
     <!-- 00 -->
     <g transform="translate(233.095662 248.844567)rotate(-337.5)scale(0.2 -0.2)">
      <use transform="scale(0.996264)" xlink:href="#CMR17-48"/>
      <use transform="translate(45.690477 0)scale(0.996264)" xlink:href="#CMR17-48"/>
     </g>
    </g>
   </g>
   <g id="xtick_6">
    <g id="line2d_8">
     <path d="M 243.15208 216.227463 
L 247.72127 217.274932 
" style="fill:none;stroke:#000000;stroke-linecap:square;stroke-width:0.8;"/>
    </g>
    <g id="text_6">
     <!-- 01 -->
     <g transform="translate(258.649213 229.400141)rotate(-337.5)scale(0.2 -0.2)">
      <use transform="scale(0.996264)" xlink:href="#CMR17-48"/>
      <use transform="translate(45.690477 0)scale(0.996264)" xlink:href="#CMR17-49"/>
     </g>
    </g>
   </g>
   <g id="xtick_7">
    <g id="line2d_9">
     <path d="M 267.995442 197.76033 
L 272.503283 198.767901 
" style="fill:none;stroke:#000000;stroke-linecap:square;stroke-width:0.8;"/>
    </g>
    <g id="text_7">
     <!-- 10 -->
     <g transform="translate(283.220625 210.703053)rotate(-337.5)scale(0.2 -0.2)">
      <use transform="scale(0.996264)" xlink:href="#CMR17-49"/>
      <use transform="translate(45.690477 0)scale(0.996264)" xlink:href="#CMR17-48"/>
     </g>
    </g>
   </g>
   <g id="xtick_8">
    <g id="line2d_10">
     <path d="M 291.901865 179.989663 
L 296.349691 180.959573 
" style="fill:none;stroke:#000000;stroke-linecap:square;stroke-width:0.8;"/>
    </g>
    <g id="text_8">
     <!-- 11 -->
     <g transform="translate(306.865451 192.711031)rotate(-337.5)scale(0.2 -0.2)">
      <use transform="scale(0.996264)" xlink:href="#CMR17-49"/>
      <use transform="translate(45.690477 0)scale(0.996264)" xlink:href="#CMR17-49"/>
     </g>
    </g>
   </g>
  </g>
  <g id="axis3d_3">
   <g id="line2d_11">
    <path d="M 305.111665 171.581202 
L 312.491547 37.79869 
" style="fill:none;stroke:#000000;stroke-linecap:square;stroke-width:0.8;"/>
   </g>
   <g id="Line3DCollection_3">
    <path d="M 305.438068 165.664176 
L 128.642862 127.829617 
L 19.486999 195.509528 
" style="fill:none;stroke:#b0b0b0;stroke-width:0.8;"/>
    <path d="M 306.862083 139.849632 
L 128.292505 102.731471 
L 17.967573 169.151906 
" style="fill:none;stroke:#b0b0b0;stroke-width:0.8;"/>
    <path d="M 308.315223 113.507095 
L 127.935285 77.14174 
L 16.416029 142.237135 
" style="fill:none;stroke:#b0b0b0;stroke-width:0.8;"/>
    <path d="M 309.798392 86.6202 
L 127.570999 51.045837 
L 14.831338 114.747361 
" style="fill:none;stroke:#b0b0b0;stroke-width:0.8;"/>
    <path d="M 311.312531 59.171897 
L 127.199435 24.428594 
L 13.212426 86.663958 
" style="fill:none;stroke:#b0b0b0;stroke-width:0.8;"/>
   </g>
   <g id="xtick_9">
    <g id="line2d_12">
     <path d="M 303.962884 165.348483 
L 308.391508 166.296219 
" style="fill:none;stroke:#000000;stroke-linecap:square;stroke-width:0.8;"/>
    </g>
    <g id="text_9">
     <!-- $0.0$ -->
     <defs>
      <path d="M 18.40625 4.796875 
C 18.40625 7.6875 16 9.6875 13.59375 9.6875 
C 10.703125 9.6875 8.703125 7.296875 8.703125 4.890625 
C 8.703125 2 11.09375 0 13.5 0 
C 16.40625 0 18.40625 2.390625 18.40625 4.796875 
z
" id="CMMI12-58"/>
     </defs>
     <g transform="translate(312.142126 177.564872)scale(0.2 -0.2)">
      <use transform="scale(0.996264)" xlink:href="#CMR17-48"/>
      <use transform="translate(45.690477 0)scale(0.996264)" xlink:href="#CMMI12-58"/>
      <use transform="translate(72.787654 0)scale(0.996264)" xlink:href="#CMR17-48"/>
     </g>
    </g>
   </g>
   <g id="xtick_10">
    <g id="line2d_13">
     <path d="M 305.371472 139.539788 
L 309.846441 140.469972 
" style="fill:none;stroke:#000000;stroke-linecap:square;stroke-width:0.8;"/>
    </g>
    <g id="text_10">
     <!-- $0.1$ -->
     <g transform="translate(313.75048 151.786234)scale(0.2 -0.2)">
      <use transform="scale(0.996264)" xlink:href="#CMR17-48"/>
      <use transform="translate(45.690477 0)scale(0.996264)" xlink:href="#CMMI12-58"/>
      <use transform="translate(72.787654 0)scale(0.996264)" xlink:href="#CMR17-49"/>
     </g>
    </g>
   </g>
   <g id="xtick_11">
    <g id="line2d_14">
     <path d="M 306.808859 113.203406 
L 311.331153 114.115119 
" style="fill:none;stroke:#000000;stroke-linecap:square;stroke-width:0.8;"/>
    </g>
    <g id="text_11">
     <!-- $0.2$ -->
     <defs>
      <path d="M 41.703125 15.46875 
L 39.90625 15.46875 
C 38.90625 8.390625 38.09375 7.1875 37.703125 6.59375 
C 37.203125 5.796875 30 5.796875 28.59375 5.796875 
L 9.40625 5.796875 
C 13 9.6875 20 16.765625 28.5 24.9375 
C 34.59375 30.71875 41.703125 37.5 41.703125 47.390625 
C 41.703125 59.1875 32.296875 66 21.796875 66 
C 10.796875 66 4.09375 56.296875 4.09375 47.296875 
C 4.09375 43.390625 7 42.890625 8.203125 42.890625 
C 9.203125 42.890625 12.203125 43.484375 12.203125 46.984375 
C 12.203125 50.09375 9.59375 51 8.203125 51 
C 7.59375 51 7 50.890625 6.59375 50.6875 
C 8.5 59.1875 14.296875 63.390625 20.40625 63.390625 
C 29.09375 63.390625 34.796875 56.5 34.796875 47.390625 
C 34.796875 38.703125 29.703125 31.21875 24 24.734375 
L 4.09375 2.296875 
L 4.09375 0 
L 39.296875 0 
z
" id="CMR17-50"/>
     </defs>
     <g transform="translate(315.39166 125.481482)scale(0.2 -0.2)">
      <use transform="scale(0.996264)" xlink:href="#CMR17-48"/>
      <use transform="translate(45.690477 0)scale(0.996264)" xlink:href="#CMMI12-58"/>
      <use transform="translate(72.787654 0)scale(0.996264)" xlink:href="#CMR17-50"/>
     </g>
    </g>
   </g>
   <g id="xtick_12">
    <g id="line2d_15">
     <path d="M 308.27594 86.322987 
L 312.846567 87.215264 
" style="fill:none;stroke:#000000;stroke-linecap:square;stroke-width:0.8;"/>
    </g>
    <g id="text_12">
     <!-- $0.3$ -->
     <defs>
      <path d="M 22.09375 34 
C 31 34 34.90625 26.140625 34.90625 17.09375 
C 34.90625 5.03125 28.5 0.390625 22.703125 0.390625 
C 17.40625 0.390625 8.796875 3.015625 6.09375 10.796875 
C 6.59375 10.59375 7.09375 10.59375 7.59375 10.59375 
C 10 10.59375 11.796875 12.1875 11.796875 14.796875 
C 11.796875 17.6875 9.59375 19 7.59375 19 
C 5.90625 19 3.296875 18.1875 3.296875 14.484375 
C 3.296875 5.234375 12.296875 -2 22.90625 -2 
C 34 -2 42.5 6.75 42.5 16.984375 
C 42.5 26.84375 34.5 34 25 35.09375 
C 32.59375 36.671875 39.90625 43.375 39.90625 52.390625 
C 39.90625 60.25 32 66 23 66 
C 13.90625 66 5.90625 60.34375 5.90625 52.296875 
C 5.90625 48.796875 8.5 48.1875 9.796875 48.1875 
C 11.90625 48.1875 13.703125 49.484375 13.703125 52.09375 
C 13.703125 54.6875 11.90625 56 9.796875 56 
C 9.40625 56 8.90625 56 8.5 55.796875 
C 11.40625 62.484375 19.296875 63.6875 22.796875 63.6875 
C 26.296875 63.6875 32.90625 61.96875 32.90625 52.296875 
C 32.90625 49.484375 32.5 44.546875 29.09375 40.21875 
C 26.09375 36.390625 22.703125 36.1875 19.40625 35.890625 
C 18.90625 35.890625 16.59375 35.6875 16.203125 35.6875 
C 15.5 35.59375 15.09375 35.5 15.09375 34.796875 
C 15.09375 34.09375 15.203125 34 17.203125 34 
z
" id="CMR17-51"/>
     </defs>
     <g transform="translate(317.066679 98.634344)scale(0.2 -0.2)">
      <use transform="scale(0.996264)" xlink:href="#CMR17-48"/>
      <use transform="translate(45.690477 0)scale(0.996264)" xlink:href="#CMMI12-58"/>
      <use transform="translate(72.787654 0)scale(0.996264)" xlink:href="#CMR17-51"/>
     </g>
    </g>
   </g>
   <g id="xtick_13">
    <g id="line2d_16">
     <path d="M 309.773642 58.881499 
L 314.393647 59.753323 
" style="fill:none;stroke:#000000;stroke-linecap:square;stroke-width:0.8;"/>
    </g>
    <g id="text_13">
     <!-- $0.4$ -->
     <defs>
      <path d="M 33.59375 64.796875 
C 33.59375 66.890625 33.5 67 31.703125 67 
L 2 19.59375 
L 2 17 
L 27.796875 17 
L 27.796875 7.1875 
C 27.796875 3.59375 27.59375 2.59375 20.59375 2.59375 
L 18.703125 2.59375 
L 18.703125 0 
C 21.90625 0.1875 27.296875 0.1875 30.703125 0.1875 
C 34.09375 0.1875 39.5 0.1875 42.703125 0 
L 42.703125 2.59375 
L 40.796875 2.59375 
C 33.796875 2.59375 33.59375 3.59375 33.59375 7.1875 
L 33.59375 17 
L 43.796875 17 
L 43.796875 19.59375 
L 33.59375 19.59375 
z
M 28.09375 58.171875 
L 28.09375 19.59375 
L 4 19.59375 
z
" id="CMR17-52"/>
     </defs>
     <g transform="translate(318.776596 71.22787)scale(0.2 -0.2)">
      <use transform="scale(0.996264)" xlink:href="#CMR17-48"/>
      <use transform="translate(45.690477 0)scale(0.996264)" xlink:href="#CMMI12-58"/>
      <use transform="translate(72.787654 0)scale(0.996264)" xlink:href="#CMR17-52"/>
     </g>
    </g>
   </g>
  </g>
  <g id="axes_1">
   <g id="Poly3DCollection_1">
    <path clip-path="url(#p28fa4f920c)" d="M 133.011198 134.179944 
L 133.007961 133.916765 
L 154.424352 138.52696 
L 154.425412 138.791047 
z
" style="fill:#5d0618;fill-opacity:0.8;"/>
    <path clip-path="url(#p28fa4f920c)" d="M 120.213727 142.197404 
L 120.209143 141.932649 
L 133.007961 133.916765 
L 133.011198 134.179944 
z
" style="fill:#ba0c2f;fill-opacity:0.8;"/>
    <path clip-path="url(#p28fa4f920c)" d="M 120.213727 142.197404 
L 133.011198 134.179944 
L 154.425412 138.791047 
L 141.756574 146.893251 
z
" style="fill:#74081d;fill-opacity:0.8;"/>
    <path clip-path="url(#p28fa4f920c)" d="M 120.209143 141.932649 
L 141.754194 146.627579 
L 154.424352 138.52696 
L 133.007961 133.916765 
z
" style="fill:#a30a29;fill-opacity:0.8;"/>
    <path clip-path="url(#p28fa4f920c)" d="M 141.756574 146.893251 
L 154.425412 138.791047 
L 154.424352 138.52696 
L 141.754194 146.627579 
z
" style="fill:#5d0618;fill-opacity:0.8;"/>
    <path clip-path="url(#p28fa4f920c)" d="M 120.213727 142.197404 
L 141.756574 146.893251 
L 141.754194 146.627579 
L 120.209143 141.932649 
z
" style="fill:#ba0c2f;fill-opacity:0.8;"/>
   </g>
   <g id="Poly3DCollection_2">
    <path clip-path="url(#p28fa4f920c)" d="M 176.06553 143.450794 
L 176.072479 141.868431 
L 197.955657 146.572112 
L 197.935146 148.159959 
z
" style="fill:#5d0618;fill-opacity:0.8;"/>
    <path clip-path="url(#p28fa4f920c)" d="M 163.528778 151.639091 
L 163.528008 150.047213 
L 176.072479 141.868431 
L 176.06553 143.450794 
z
" style="fill:#ba0c2f;fill-opacity:0.8;"/>
    <path clip-path="url(#p28fa4f920c)" d="M 163.528778 151.639091 
L 176.06553 143.450794 
L 197.935146 148.159959 
L 185.53402 156.435729 
z
" style="fill:#74081d;fill-opacity:0.8;"/>
    <path clip-path="url(#p28fa4f920c)" d="M 163.528008 150.047213 
L 185.546981 154.83832 
L 197.955657 146.572112 
L 176.072479 141.868431 
z
" style="fill:#a30a29;fill-opacity:0.8;"/>
    <path clip-path="url(#p28fa4f920c)" d="M 185.53402 156.435729 
L 197.935146 148.159959 
L 197.955657 146.572112 
L 185.546981 154.83832 
z
" style="fill:#5d0618;fill-opacity:0.8;"/>
    <path clip-path="url(#p28fa4f920c)" d="M 163.528778 151.639091 
L 185.53402 156.435729 
L 185.546981 154.83832 
L 163.528008 150.047213 
z
" style="fill:#ba0c2f;fill-opacity:0.8;"/>
   </g>
   <g id="Poly3DCollection_3">
    <path clip-path="url(#p28fa4f920c)" d="M 107.180601 150.362499 
L 107.065452 145.232948 
L 128.781005 149.998042 
L 128.853204 155.145446 
z
" style="fill:#5d0618;fill-opacity:0.8;"/>
    <path clip-path="url(#p28fa4f920c)" d="M 93.905253 158.679343 
L 93.762239 153.518814 
L 107.065452 145.232948 
L 107.180601 150.362499 
z
" style="fill:#ba0c2f;fill-opacity:0.8;"/>
    <path clip-path="url(#p28fa4f920c)" d="M 93.905253 158.679343 
L 107.180601 150.362499 
L 128.853204 155.145446 
L 115.708729 163.551837 
z
" style="fill:#74081d;fill-opacity:0.8;"/>
    <path clip-path="url(#p28fa4f920c)" d="M 93.762239 153.518814 
L 115.609183 158.373302 
L 128.781005 149.998042 
L 107.065452 145.232948 
z
" style="fill:#a30a29;fill-opacity:0.8;"/>
    <path clip-path="url(#p28fa4f920c)" d="M 115.708729 163.551837 
L 128.853204 155.145446 
L 128.781005 149.998042 
L 115.609183 158.373302 
z
" style="fill:#5d0618;fill-opacity:0.8;"/>
    <path clip-path="url(#p28fa4f920c)" d="M 93.905253 158.679343 
L 115.708729 163.551837 
L 115.609183 158.373302 
L 93.762239 153.518814 
z
" style="fill:#ba0c2f;fill-opacity:0.8;"/>
   </g>
   <g id="Poly3DCollection_4">
    <path clip-path="url(#p28fa4f920c)" d="M 220.037929 152.919331 
L 220.162166 147.158561 
L 242.55302 151.948875 
L 242.37763 157.729718 
z
" style="fill:#5d0618;fill-opacity:0.8;"/>
    <path clip-path="url(#p28fa4f920c)" d="M 207.776063 161.283984 
L 207.87364 155.488383 
L 220.162166 147.158561 
L 220.037929 152.919331 
z
" style="fill:#ba0c2f;fill-opacity:0.8;"/>
    <path clip-path="url(#p28fa4f920c)" d="M 207.776063 161.283984 
L 220.037929 152.919331 
L 242.37763 157.729718 
L 230.25875 166.184694 
z
" style="fill:#74081d;fill-opacity:0.8;"/>
    <path clip-path="url(#p28fa4f920c)" d="M 207.87364 155.488383 
L 230.408142 160.368849 
L 242.55302 151.948875 
L 220.162166 147.158561 
z
" style="fill:#a30a29;fill-opacity:0.8;"/>
    <path clip-path="url(#p28fa4f920c)" d="M 230.25875 166.184694 
L 242.37763 157.729718 
L 242.55302 151.948875 
L 230.408142 160.368849 
z
" style="fill:#5d0618;fill-opacity:0.8;"/>
    <path clip-path="url(#p28fa4f920c)" d="M 207.776063 161.283984 
L 230.25875 166.184694 
L 230.408142 160.368849 
L 207.87364 155.488383 
z
" style="fill:#ba0c2f;fill-opacity:0.8;"/>
   </g>
   <g id="Poly3DCollection_5">
    <path clip-path="url(#p28fa4f920c)" d="M 150.758692 159.979789 
L 150.777105 163.33873 
L 172.890093 168.236965 
L 172.900839 164.86636 
z
" style="fill:#ba0c2f;fill-opacity:0.8;"/>
    <path clip-path="url(#p28fa4f920c)" d="M 137.748698 168.477181 
L 137.784542 171.856359 
L 150.777105 163.33873 
L 150.758692 159.979789 
z
" style="fill:#5d0618;fill-opacity:0.8;"/>
    <path clip-path="url(#p28fa4f920c)" d="M 137.784542 171.856359 
L 160.035349 176.847178 
L 172.890093 168.236965 
L 150.777105 163.33873 
z
" style="fill:#a30a29;fill-opacity:0.8;"/>
    <path clip-path="url(#p28fa4f920c)" d="M 137.748698 168.477181 
L 150.758692 159.979789 
L 172.900839 164.86636 
L 160.029027 173.456239 
z
" style="fill:#74081d;fill-opacity:0.8;"/>
    <path clip-path="url(#p28fa4f920c)" d="M 160.029027 173.456239 
L 172.900839 164.86636 
L 172.890093 168.236965 
L 160.035349 176.847178 
z
" style="fill:#ba0c2f;fill-opacity:0.8;"/>
    <path clip-path="url(#p28fa4f920c)" d="M 137.748698 168.477181 
L 160.029027 173.456239 
L 160.035349 176.847178 
L 137.784542 171.856359 
z
" style="fill:#5d0618;fill-opacity:0.8;"/>
   </g>
   <g id="Poly3DCollection_6">
    <path clip-path="url(#p28fa4f920c)" d="M 80.380866 167.152207 
L 80.351111 166.253588 
L 102.294188 171.215033 
L 102.316328 172.116787 
z
" style="fill:#5d0618;fill-opacity:0.8;"/>
    <path clip-path="url(#p28fa4f920c)" d="M 66.600366 175.785523 
L 66.565424 174.881465 
L 80.351111 166.253588 
L 80.380866 167.152207 
z
" style="fill:#ba0c2f;fill-opacity:0.8;"/>
    <path clip-path="url(#p28fa4f920c)" d="M 66.600366 175.785523 
L 80.380866 167.152207 
L 102.316328 172.116787 
L 88.668919 180.844823 
z
" style="fill:#74081d;fill-opacity:0.8;"/>
    <path clip-path="url(#p28fa4f920c)" d="M 66.565424 174.881465 
L 88.641684 179.937605 
L 102.294188 171.215033 
L 80.351111 166.253588 
z
" style="fill:#a30a29;fill-opacity:0.8;"/>
    <path clip-path="url(#p28fa4f920c)" d="M 88.668919 180.844823 
L 102.316328 172.116787 
L 102.294188 171.215033 
L 88.641684 179.937605 
z
" style="fill:#5d0618;fill-opacity:0.8;"/>
    <path clip-path="url(#p28fa4f920c)" d="M 66.600366 175.785523 
L 88.668919 180.844823 
L 88.641684 179.937605 
L 66.565424 174.881465 
z
" style="fill:#ba0c2f;fill-opacity:0.8;"/>
   </g>
   <g id="Poly3DCollection_7">
    <path clip-path="url(#p28fa4f920c)" d="M 252.986007 171.138715 
L 264.958078 162.591946 
L 287.783185 167.506855 
L 275.961847 176.14692 
z
" style="fill:#74081d;fill-opacity:0.8;"/>
    <path clip-path="url(#p28fa4f920c)" d="M 264.958078 162.591946 
L 266.834042 114.786755 
L 290.099243 119.530339 
L 287.783185 167.506855 
z
" style="fill:#5d0618;fill-opacity:0.8;"/>
    <path clip-path="url(#p28fa4f920c)" d="M 252.986007 171.138715 
L 254.65366 123.036216 
L 266.834042 114.786755 
L 264.958078 162.591946 
z
" style="fill:#ba0c2f;fill-opacity:0.8;"/>
    <path clip-path="url(#p28fa4f920c)" d="M 275.961847 176.14692 
L 287.783185 167.506855 
L 290.099243 119.530339 
L 278.075546 127.87156 
z
" style="fill:#5d0618;fill-opacity:0.8;"/>
    <path clip-path="url(#p28fa4f920c)" d="M 252.986007 171.138715 
L 275.961847 176.14692 
L 278.075546 127.87156 
L 254.65366 123.036216 
z
" style="fill:#ba0c2f;fill-opacity:0.8;"/>
    <path clip-path="url(#p28fa4f920c)" d="M 254.65366 123.036216 
L 278.075546 127.87156 
L 290.099243 119.530339 
L 266.834042 114.786755 
z
" style="fill:#a30a29;fill-opacity:0.8;"/>
   </g>
   <g id="Poly3DCollection_8">
    <path clip-path="url(#p28fa4f920c)" d="M 240.786219 179.848049 
L 240.962233 173.976394 
L 264.145254 179.059968 
L 263.914417 184.952233 
z
" style="fill:#5d0618;fill-opacity:0.8;"/>
    <path clip-path="url(#p28fa4f920c)" d="M 228.352155 188.724632 
L 228.500796 182.817218 
L 240.962233 173.976394 
L 240.786219 179.848049 
z
" style="fill:#ba0c2f;fill-opacity:0.8;"/>
    <path clip-path="url(#p28fa4f920c)" d="M 228.352155 188.724632 
L 240.786219 179.848049 
L 263.914417 184.952233 
L 251.634347 193.927579 
z
" style="fill:#74081d;fill-opacity:0.8;"/>
    <path clip-path="url(#p28fa4f920c)" d="M 228.500796 182.817218 
L 251.83855 187.999389 
L 264.145254 179.059968 
L 240.962233 173.976394 
z
" style="fill:#a30a29;fill-opacity:0.8;"/>
    <path clip-path="url(#p28fa4f920c)" d="M 251.634347 193.927579 
L 263.914417 184.952233 
L 264.145254 179.059968 
L 251.83855 187.999389 
z
" style="fill:#5d0618;fill-opacity:0.8;"/>
    <path clip-path="url(#p28fa4f920c)" d="M 228.352155 188.724632 
L 251.634347 193.927579 
L 251.83855 187.999389 
L 228.500796 182.817218 
z
" style="fill:#ba0c2f;fill-opacity:0.8;"/>
   </g>
   <g id="Poly3DCollection_9">
    <path clip-path="url(#p28fa4f920c)" d="M 169.579748 187.340291 
L 169.573234 190.763642 
L 192.462326 195.96309 
L 192.500083 192.527773 
z
" style="fill:#ba0c2f;fill-opacity:0.8;"/>
    <path clip-path="url(#p28fa4f920c)" d="M 156.354644 196.362035 
L 156.366146 199.806146 
L 169.573234 190.763642 
L 169.579748 187.340291 
z
" style="fill:#5d0618;fill-opacity:0.8;"/>
    <path clip-path="url(#p28fa4f920c)" d="M 156.366146 199.806146 
L 179.403624 205.106891 
L 192.462326 195.96309 
L 169.573234 190.763642 
z
" style="fill:#a30a29;fill-opacity:0.8;"/>
    <path clip-path="url(#p28fa4f920c)" d="M 156.354644 196.362035 
L 169.579748 187.340291 
L 192.500083 192.527773 
L 179.423771 201.65072 
z
" style="fill:#74081d;fill-opacity:0.8;"/>
    <path clip-path="url(#p28fa4f920c)" d="M 179.423771 201.65072 
L 192.500083 192.527773 
L 192.462326 195.96309 
L 179.403624 205.106891 
z
" style="fill:#ba0c2f;fill-opacity:0.8;"/>
    <path clip-path="url(#p28fa4f920c)" d="M 156.354644 196.362035 
L 179.423771 201.65072 
L 179.403624 205.106891 
L 156.366146 199.806146 
z
" style="fill:#5d0618;fill-opacity:0.8;"/>
   </g>
   <g id="Poly3DCollection_10">
    <path clip-path="url(#p28fa4f920c)" d="M 110.981423 185.96005 
L 124.49197 177.135725 
L 146.911759 182.209921 
L 133.541945 191.132136 
z
" style="fill:#74081d;fill-opacity:0.8;"/>
    <path clip-path="url(#p28fa4f920c)" d="M 124.49197 177.135725 
L 123.98391 145.1133 
L 146.685253 150.073346 
L 146.911759 182.209921 
z
" style="fill:#5d0618;fill-opacity:0.8;"/>
    <path clip-path="url(#p28fa4f920c)" d="M 110.981423 185.96005 
L 110.29636 153.739554 
L 123.98391 145.1133 
L 124.49197 177.135725 
z
" style="fill:#ba0c2f;fill-opacity:0.8;"/>
    <path clip-path="url(#p28fa4f920c)" d="M 133.541945 191.132136 
L 146.911759 182.209921 
L 146.685253 150.073346 
L 133.141987 158.796516 
z
" style="fill:#5d0618;fill-opacity:0.8;"/>
    <path clip-path="url(#p28fa4f920c)" d="M 110.981423 185.96005 
L 133.541945 191.132136 
L 133.141987 158.796516 
L 110.29636 153.739554 
z
" style="fill:#ba0c2f;fill-opacity:0.8;"/>
    <path clip-path="url(#p28fa4f920c)" d="M 110.29636 153.739554 
L 133.141987 158.796516 
L 146.685253 150.073346 
L 123.98391 145.1133 
z
" style="fill:#a30a29;fill-opacity:0.8;"/>
   </g>
   <g id="Poly3DCollection_11">
    <path clip-path="url(#p28fa4f920c)" d="M 182.553671 178.489895 
L 195.283501 169.806011 
L 217.910619 174.799611 
L 205.32667 183.579051 
z
" style="fill:#74081d;fill-opacity:0.8;"/>
    <path clip-path="url(#p28fa4f920c)" d="M 195.283501 169.806011 
L 195.99641 110.326842 
L 219.159094 115.105322 
L 217.910619 174.799611 
z
" style="fill:#5d0618;fill-opacity:0.8;"/>
    <path clip-path="url(#p28fa4f920c)" d="M 182.553671 178.489895 
L 182.973216 118.637414 
L 195.99641 110.326842 
L 195.283501 169.806011 
z
" style="fill:#ba0c2f;fill-opacity:0.8;"/>
    <path clip-path="url(#p28fa4f920c)" d="M 205.32667 183.579051 
L 217.910619 174.799611 
L 219.159094 115.105322 
L 206.288823 123.509508 
z
" style="fill:#5d0618;fill-opacity:0.8;"/>
    <path clip-path="url(#p28fa4f920c)" d="M 182.553671 178.489895 
L 205.32667 183.579051 
L 206.288823 123.509508 
L 182.973216 118.637414 
z
" style="fill:#ba0c2f;fill-opacity:0.8;"/>
    <path clip-path="url(#p28fa4f920c)" d="M 182.973216 118.637414 
L 206.288823 123.509508 
L 219.159094 115.105322 
L 195.99641 110.326842 
z
" style="fill:#a30a29;fill-opacity:0.8;"/>
   </g>
   <g id="Poly3DCollection_12">
    <path clip-path="url(#p28fa4f920c)" d="M 97.209697 194.954963 
L 97.185149 194.039035 
L 119.895832 199.308656 
L 119.912222 200.227799 
z
" style="fill:#5d0618;fill-opacity:0.8;"/>
    <path clip-path="url(#p28fa4f920c)" d="M 83.169144 204.125458 
L 83.139205 203.203952 
L 97.185149 194.039035 
L 97.209697 194.954963 
z
" style="fill:#ba0c2f;fill-opacity:0.8;"/>
    <path clip-path="url(#p28fa4f920c)" d="M 83.169144 204.125458 
L 97.209697 194.954963 
L 119.912222 200.227799 
L 106.014937 209.502018 
z
" style="fill:#74081d;fill-opacity:0.8;"/>
    <path clip-path="url(#p28fa4f920c)" d="M 83.139205 203.203952 
L 105.993258 208.577272 
L 119.895832 199.308656 
L 97.185149 194.039035 
z
" style="fill:#a30a29;fill-opacity:0.8;"/>
    <path clip-path="url(#p28fa4f920c)" d="M 106.014937 209.502018 
L 119.912222 200.227799 
L 119.895832 199.308656 
L 105.993258 208.577272 
z
" style="fill:#5d0618;fill-opacity:0.8;"/>
    <path clip-path="url(#p28fa4f920c)" d="M 83.169144 204.125458 
L 106.014937 209.502018 
L 105.993258 208.577272 
L 83.139205 203.203952 
z
" style="fill:#ba0c2f;fill-opacity:0.8;"/>
   </g>
   <g id="Poly3DCollection_13">
    <path clip-path="url(#p28fa4f920c)" d="M 215.677 197.773327 
L 215.710234 196.129573 
L 239.16364 201.428403 
L 239.114832 203.077933 
z
" style="fill:#5d0618;fill-opacity:0.8;"/>
    <path clip-path="url(#p28fa4f920c)" d="M 202.753674 206.99919 
L 202.778714 205.345415 
L 215.710234 196.129573 
L 215.677 197.773327 
z
" style="fill:#ba0c2f;fill-opacity:0.8;"/>
    <path clip-path="url(#p28fa4f920c)" d="M 202.753674 206.99919 
L 215.677 197.773327 
L 239.114832 203.077933 
L 226.3488 212.408463 
z
" style="fill:#74081d;fill-opacity:0.8;"/>
    <path clip-path="url(#p28fa4f920c)" d="M 202.778714 205.345415 
L 226.389626 210.748868 
L 239.16364 201.428403 
L 215.710234 196.129573 
z
" style="fill:#a30a29;fill-opacity:0.8;"/>
    <path clip-path="url(#p28fa4f920c)" d="M 226.3488 212.408463 
L 239.114832 203.077933 
L 239.16364 201.428403 
L 226.389626 210.748868 
z
" style="fill:#5d0618;fill-opacity:0.8;"/>
    <path clip-path="url(#p28fa4f920c)" d="M 202.753674 206.99919 
L 226.3488 212.408463 
L 226.389626 210.748868 
L 202.778714 205.345415 
z
" style="fill:#ba0c2f;fill-opacity:0.8;"/>
   </g>
   <g id="Poly3DCollection_14">
    <path clip-path="url(#p28fa4f920c)" d="M 142.870992 205.560151 
L 142.824501 200.230762 
L 166.093192 205.604845 
L 166.090369 210.953031 
z
" style="fill:#5d0618;fill-opacity:0.8;"/>
    <path clip-path="url(#p28fa4f920c)" d="M 129.121137 214.939863 
L 129.044704 209.577865 
L 142.824501 200.230762 
L 142.870992 205.560151 
z
" style="fill:#ba0c2f;fill-opacity:0.8;"/>
    <path clip-path="url(#p28fa4f920c)" d="M 129.121137 214.939863 
L 142.870992 205.560151 
L 166.090369 210.953031 
L 152.492222 220.440046 
z
" style="fill:#74081d;fill-opacity:0.8;"/>
    <path clip-path="url(#p28fa4f920c)" d="M 129.044704 209.577865 
L 152.465749 215.059108 
L 166.093192 205.604845 
L 142.824501 200.230762 
z
" style="fill:#a30a29;fill-opacity:0.8;"/>
    <path clip-path="url(#p28fa4f920c)" d="M 152.492222 220.440046 
L 166.090369 210.953031 
L 166.093192 205.604845 
L 152.465749 215.059108 
z
" style="fill:#5d0618;fill-opacity:0.8;"/>
    <path clip-path="url(#p28fa4f920c)" d="M 129.121137 214.939863 
L 152.492222 220.440046 
L 152.465749 215.059108 
L 129.044704 209.577865 
z
" style="fill:#ba0c2f;fill-opacity:0.8;"/>
   </g>
   <g id="Poly3DCollection_15">
    <path clip-path="url(#p28fa4f920c)" d="M 189.574816 216.407475 
L 189.577582 216.128836 
L 213.334343 221.644924 
L 213.328898 221.924543 
z
" style="fill:#5d0618;fill-opacity:0.8;"/>
    <path clip-path="url(#p28fa4f920c)" d="M 176.132772 226.003646 
L 176.134052 225.723305 
L 189.577582 216.128836 
L 189.574816 216.407475 
z
" style="fill:#ba0c2f;fill-opacity:0.8;"/>
    <path clip-path="url(#p28fa4f920c)" d="M 176.132772 226.003646 
L 189.574816 216.407475 
L 213.328898 221.924543 
L 200.047476 231.631765 
z
" style="fill:#74081d;fill-opacity:0.8;"/>
    <path clip-path="url(#p28fa4f920c)" d="M 176.134052 225.723305 
L 200.051471 231.350436 
L 213.334343 221.644924 
L 189.577582 216.128836 
z
" style="fill:#a30a29;fill-opacity:0.8;"/>
    <path clip-path="url(#p28fa4f920c)" d="M 200.047476 231.631765 
L 213.328898 221.924543 
L 213.334343 221.644924 
L 200.051471 231.350436 
z
" style="fill:#5d0618;fill-opacity:0.8;"/>
    <path clip-path="url(#p28fa4f920c)" d="M 176.132772 226.003646 
L 200.047476 231.631765 
L 200.051471 231.350436 
L 176.134052 225.723305 
z
" style="fill:#ba0c2f;fill-opacity:0.8;"/>
   </g>
   <g id="Poly3DCollection_16">
    <path clip-path="url(#p28fa4f920c)" d="M 25.389656 194.893454 
L 203.791733 237.074857 
L 299.897081 166.242501 
L 130.00895 129.815522 
z
" style="fill-opacity:0.15;"/>
   </g>
   <g id="Poly3DCollection_17">
    <path clip-path="url(#p28fa4f920c)" d="M 38.241365 193.552093 
L 52.556408 184.583892 
L 74.75915 189.74065 
L 60.57938 198.809152 
z
" style="fill:#74081d;fill-opacity:0.8;"/>
    <path clip-path="url(#p28fa4f920c)" d="M 52.556408 184.583892 
L 46.933544 57.750519 
L 70.222556 62.427839 
L 74.75915 189.74065 
z
" style="fill:#5d0618;fill-opacity:0.8;"/>
    <path clip-path="url(#p28fa4f920c)" d="M 38.241365 193.552093 
L 31.836896 65.886594 
L 46.933544 57.750519 
L 52.556408 184.583892 
z
" style="fill:#ba0c2f;fill-opacity:0.8;"/>
    <path clip-path="url(#p28fa4f920c)" d="M 60.57938 198.809152 
L 74.75915 189.74065 
L 70.222556 62.427839 
L 55.274545 70.659531 
z
" style="fill:#5d0618;fill-opacity:0.8;"/>
    <path clip-path="url(#p28fa4f920c)" d="M 38.241365 193.552093 
L 60.57938 198.809152 
L 55.274545 70.659531 
L 31.836896 65.886594 
z
" style="fill:#ba0c2f;fill-opacity:0.8;"/>
    <path clip-path="url(#p28fa4f920c)" d="M 31.836896 65.886594 
L 55.274545 70.659531 
L 70.222556 62.427839 
L 46.933544 57.750519 
z
" style="fill:#a30a29;fill-opacity:0.8;"/>
   </g>
  </g>
  <g id="patch_6">
   <path d="M 425.945455 262.8 
L 806.4 262.8 
L 806.4 -14.4 
L 425.945455 -14.4 
z
" style="fill:#ffffff;"/>
  </g>
  <g id="pane3d_4">
   <g id="patch_7">
    <path d="M 476.380584 201.548569 
L 585.268665 133.58541 
L 583.455794 3.718968 
L 468.496488 64.782468 
" style="fill:#f2f2f2;opacity:0.5;stroke:#f2f2f2;stroke-linejoin:miter;"/>
   </g>
  </g>
  <g id="pane3d_5">
   <g id="patch_8">
    <path d="M 585.268665 133.58541 
L 761.65712 171.581202 
L 769.037001 37.79869 
L 583.455794 3.718968 
" style="fill:#e6e6e6;opacity:0.5;stroke:#e6e6e6;stroke-linejoin:miter;"/>
   </g>
  </g>
  <g id="pane3d_6">
   <g id="patch_9">
    <path d="M 476.380584 201.548569 
L 661.965072 245.80086 
L 761.65712 171.581202 
L 585.268665 133.58541 
" style="fill:#ececec;opacity:0.5;stroke:#ececec;stroke-linejoin:miter;"/>
   </g>
  </g>
  <g id="axis3d_4">
   <g id="line2d_17">
    <path d="M 476.380584 201.548569 
L 661.965072 245.80086 
" style="fill:none;stroke:#000000;stroke-linecap:square;stroke-width:0.8;"/>
   </g>
   <g id="Line3DCollection_4">
    <path d="M 498.841271 206.90428 
L 606.679397 138.19749 
L 605.9393 7.847789 
" style="fill:none;stroke:#b0b0b0;stroke-width:0.8;"/>
    <path d="M 544.057792 217.686079 
L 649.729469 147.470895 
L 651.182353 16.156123 
" style="fill:none;stroke:#b0b0b0;stroke-width:0.8;"/>
    <path d="M 590.310744 228.715013 
L 693.693551 156.941187 
L 697.435637 24.649974 
" style="fill:none;stroke:#b0b0b0;stroke-width:0.8;"/>
    <path d="M 637.636176 239.999678 
L 738.601063 166.614702 
L 744.733372 33.335625 
" style="fill:none;stroke:#b0b0b0;stroke-width:0.8;"/>
   </g>
   <g id="xtick_14">
    <g id="line2d_18">
     <path d="M 499.770538 206.312217 
L 496.979262 208.09062 
" style="fill:none;stroke:#000000;stroke-linecap:square;stroke-width:0.8;"/>
    </g>
    <g id="text_14">
     <!-- 00 -->
     <g transform="translate(475.786746 243.348593)rotate(-45)scale(0.2 -0.2)">
      <use transform="scale(0.996264)" xlink:href="#CMR17-48"/>
      <use transform="translate(45.690477 0)scale(0.996264)" xlink:href="#CMR17-48"/>
     </g>
    </g>
   </g>
   <g id="xtick_15">
    <g id="line2d_19">
     <path d="M 544.969128 217.080527 
L 542.231671 218.899473 
" style="fill:none;stroke:#000000;stroke-linecap:square;stroke-width:0.8;"/>
    </g>
    <g id="text_15">
     <!-- 01 -->
     <g transform="translate(520.999172 254.305345)rotate(-45)scale(0.2 -0.2)">
      <use transform="scale(0.996264)" xlink:href="#CMR17-48"/>
      <use transform="translate(45.690477 0)scale(0.996264)" xlink:href="#CMR17-49"/>
     </g>
    </g>
   </g>
   <g id="xtick_16">
    <g id="line2d_20">
     <path d="M 591.20308 228.095506 
L 588.522658 229.956397 
" style="fill:none;stroke:#000000;stroke-linecap:square;stroke-width:0.8;"/>
    </g>
    <g id="text_16">
     <!-- 10 -->
     <g transform="translate(567.249784 265.513691)rotate(-45)scale(0.2 -0.2)">
      <use transform="scale(0.996264)" xlink:href="#CMR17-49"/>
      <use transform="translate(45.690477 0)scale(0.996264)" xlink:href="#CMR17-48"/>
     </g>
    </g>
   </g>
   <g id="xtick_17">
    <g id="line2d_21">
     <path d="M 638.50838 239.365727 
L 635.888391 241.270032 
" style="fill:none;stroke:#000000;stroke-linecap:square;stroke-width:0.8;"/>
    </g>
    <g id="text_17">
     <!-- 11 -->
     <g transform="translate(614.574759 276.982396)rotate(-45)scale(0.2 -0.2)">
      <use transform="scale(0.996264)" xlink:href="#CMR17-49"/>
      <use transform="translate(45.690477 0)scale(0.996264)" xlink:href="#CMR17-49"/>
     </g>
    </g>
   </g>
  </g>
  <g id="axis3d_5">
   <g id="line2d_22">
    <path d="M 761.65712 171.581202 
L 661.965072 245.80086 
" style="fill:none;stroke:#000000;stroke-linecap:square;stroke-width:0.8;"/>
   </g>
   <g id="Line3DCollection_5">
    <path d="M 484.000685 56.547028 
L 491.016499 192.413474 
L 675.403872 235.795817 
" style="fill:none;stroke:#b0b0b0;stroke-width:0.8;"/>
    <path d="M 513.777478 40.730342 
L 519.168861 174.842005 
L 701.219492 216.576366 
" style="fill:none;stroke:#b0b0b0;stroke-width:0.8;"/>
    <path d="M 542.401344 25.526062 
L 546.284836 157.917404 
L 726.04244 198.095948 
" style="fill:none;stroke:#b0b0b0;stroke-width:0.8;"/>
    <path d="M 569.937971 10.899296 
L 572.420618 141.604597 
L 749.928893 180.312741 
" style="fill:none;stroke:#b0b0b0;stroke-width:0.8;"/>
   </g>
   <g id="xtick_18">
    <g id="line2d_23">
     <path d="M 673.861052 235.432825 
L 678.492943 236.522608 
" style="fill:none;stroke:#000000;stroke-linecap:square;stroke-width:0.8;"/>
    </g>
    <g id="text_18">
     <!-- 00 -->
     <g transform="translate(689.641116 248.844567)rotate(-337.5)scale(0.2 -0.2)">
      <use transform="scale(0.996264)" xlink:href="#CMR17-48"/>
      <use transform="translate(45.690477 0)scale(0.996264)" xlink:href="#CMR17-48"/>
     </g>
    </g>
   </g>
   <g id="xtick_19">
    <g id="line2d_24">
     <path d="M 699.697534 216.227463 
L 704.266725 217.274932 
" style="fill:none;stroke:#000000;stroke-linecap:square;stroke-width:0.8;"/>
    </g>
    <g id="text_19">
     <!-- 01 -->
     <g transform="translate(715.194668 229.400141)rotate(-337.5)scale(0.2 -0.2)">
      <use transform="scale(0.996264)" xlink:href="#CMR17-48"/>
      <use transform="translate(45.690477 0)scale(0.996264)" xlink:href="#CMR17-49"/>
     </g>
    </g>
   </g>
   <g id="xtick_20">
    <g id="line2d_25">
     <path d="M 724.540896 197.76033 
L 729.048738 198.767901 
" style="fill:none;stroke:#000000;stroke-linecap:square;stroke-width:0.8;"/>
    </g>
    <g id="text_20">
     <!-- 10 -->
     <g transform="translate(739.766079 210.703053)rotate(-337.5)scale(0.2 -0.2)">
      <use transform="scale(0.996264)" xlink:href="#CMR17-49"/>
      <use transform="translate(45.690477 0)scale(0.996264)" xlink:href="#CMR17-48"/>
     </g>
    </g>
   </g>
   <g id="xtick_21">
    <g id="line2d_26">
     <path d="M 748.44732 179.989663 
L 752.895146 180.959573 
" style="fill:none;stroke:#000000;stroke-linecap:square;stroke-width:0.8;"/>
    </g>
    <g id="text_21">
     <!-- 11 -->
     <g transform="translate(763.410906 192.711031)rotate(-337.5)scale(0.2 -0.2)">
      <use transform="scale(0.996264)" xlink:href="#CMR17-49"/>
      <use transform="translate(45.690477 0)scale(0.996264)" xlink:href="#CMR17-49"/>
     </g>
    </g>
   </g>
  </g>
  <g id="axis3d_6">
   <g id="line2d_27">
    <path d="M 761.65712 171.581202 
L 769.037001 37.79869 
" style="fill:none;stroke:#000000;stroke-linecap:square;stroke-width:0.8;"/>
   </g>
   <g id="Line3DCollection_6">
    <path d="M 762.247661 160.875864 
L 585.123307 123.172594 
L 475.750693 190.621803 
" style="fill:none;stroke:#b0b0b0;stroke-width:0.8;"/>
    <path d="M 763.61919 136.012794 
L 584.785911 99.002914 
L 474.287108 165.232855 
" style="fill:none;stroke:#b0b0b0;stroke-width:0.8;"/>
    <path d="M 765.017675 110.661046 
L 584.442164 74.378338 
L 472.793792 139.328169 
" style="fill:none;stroke:#b0b0b0;stroke-width:0.8;"/>
    <path d="M 766.44392 84.806071 
L 584.091886 49.285901 
L 471.26983 112.891869 
" style="fill:none;stroke:#b0b0b0;stroke-width:0.8;"/>
    <path d="M 767.89876 58.432735 
L 583.734889 23.712141 
L 469.714269 85.90742 
" style="fill:none;stroke:#b0b0b0;stroke-width:0.8;"/>
   </g>
   <g id="xtick_22">
    <g id="line2d_28">
     <path d="M 760.769617 160.561243 
L 765.206835 161.505764 
" style="fill:none;stroke:#000000;stroke-linecap:square;stroke-width:0.8;"/>
    </g>
    <g id="text_22">
     <!-- $0.0$ -->
     <g transform="translate(768.985917 172.783137)scale(0.2 -0.2)">
      <use transform="scale(0.996264)" xlink:href="#CMR17-48"/>
      <use transform="translate(45.690477 0)scale(0.996264)" xlink:href="#CMMI12-58"/>
      <use transform="translate(72.787654 0)scale(0.996264)" xlink:href="#CMR17-48"/>
     </g>
    </g>
   </g>
   <g id="xtick_23">
    <g id="line2d_29">
     <path d="M 762.126285 135.703834 
L 766.608145 136.631364 
" style="fill:none;stroke:#000000;stroke-linecap:square;stroke-width:0.8;"/>
    </g>
    <g id="text_23">
     <!-- $0.1$ -->
     <g transform="translate(770.53498 147.954827)scale(0.2 -0.2)">
      <use transform="scale(0.996264)" xlink:href="#CMR17-48"/>
      <use transform="translate(45.690477 0)scale(0.996264)" xlink:href="#CMMI12-58"/>
      <use transform="translate(72.787654 0)scale(0.996264)" xlink:href="#CMR17-49"/>
     </g>
    </g>
   </g>
   <g id="xtick_24">
    <g id="line2d_30">
     <path d="M 763.509609 110.358033 
L 768.037017 111.267717 
" style="fill:none;stroke:#000000;stroke-linecap:square;stroke-width:0.8;"/>
    </g>
    <g id="text_24">
     <!-- $0.2$ -->
     <g transform="translate(772.114423 122.639584)scale(0.2 -0.2)">
      <use transform="scale(0.996264)" xlink:href="#CMR17-48"/>
      <use transform="translate(45.690477 0)scale(0.996264)" xlink:href="#CMMI12-58"/>
      <use transform="translate(72.787654 0)scale(0.996264)" xlink:href="#CMR17-50"/>
     </g>
    </g>
   </g>
   <g id="xtick_25">
    <g id="line2d_31">
     <path d="M 764.920381 84.509303 
L 769.494272 85.400246 
" style="fill:none;stroke:#000000;stroke-linecap:square;stroke-width:0.8;"/>
    </g>
    <g id="text_25">
     <!-- $0.3$ -->
     <g transform="translate(773.725149 96.822941)scale(0.2 -0.2)">
      <use transform="scale(0.996264)" xlink:href="#CMR17-48"/>
      <use transform="translate(45.690477 0)scale(0.996264)" xlink:href="#CMMI12-58"/>
      <use transform="translate(72.787654 0)scale(0.996264)" xlink:href="#CMR17-51"/>
     </g>
    </g>
   </g>
   <g id="xtick_26">
    <g id="line2d_32">
     <path d="M 766.359428 58.142524 
L 770.980764 59.013789 
" style="fill:none;stroke:#000000;stroke-linecap:square;stroke-width:0.8;"/>
    </g>
    <g id="text_26">
     <!-- $0.4$ -->
     <g transform="translate(775.368096 70.489852)scale(0.2 -0.2)">
      <use transform="scale(0.996264)" xlink:href="#CMR17-48"/>
      <use transform="translate(45.690477 0)scale(0.996264)" xlink:href="#CMMI12-58"/>
      <use transform="translate(72.787654 0)scale(0.996264)" xlink:href="#CMR17-52"/>
     </g>
    </g>
   </g>
  </g>
  <g id="axes_2">
   <g id="Poly3DCollection_18">
    <path clip-path="url(#p8f46f7ea9b)" d="M 589.499087 129.500474 
L 589.489883 128.752262 
L 610.949006 133.344572 
L 610.952019 134.095382 
z
" style="fill:#065d4c;fill-opacity:0.8;"/>
    <path clip-path="url(#p8f46f7ea9b)" d="M 576.67768 137.489831 
L 576.664648 136.737111 
L 589.489883 128.752262 
L 589.499087 129.500474 
z
" style="fill:#0cba97;fill-opacity:0.8;"/>
    <path clip-path="url(#p8f46f7ea9b)" d="M 576.67768 137.489831 
L 589.499087 129.500474 
L 610.952019 134.095382 
L 598.259711 142.16934 
z
" style="fill:#08745e;fill-opacity:0.8;"/>
    <path clip-path="url(#p8f46f7ea9b)" d="M 576.664648 136.737111 
L 598.252944 141.413999 
L 610.949006 133.344572 
L 589.489883 128.752262 
z
" style="fill:#0aa384;fill-opacity:0.8;"/>
    <path clip-path="url(#p8f46f7ea9b)" d="M 598.259711 142.16934 
L 610.952019 134.095382 
L 610.949006 133.344572 
L 598.252944 141.413999 
z
" style="fill:#065d4c;fill-opacity:0.8;"/>
    <path clip-path="url(#p8f46f7ea9b)" d="M 576.67768 137.489831 
L 598.259711 142.16934 
L 598.252944 141.413999 
L 576.664648 136.737111 
z
" style="fill:#0cba97;fill-opacity:0.8;"/>
   </g>
   <g id="Poly3DCollection_19">
    <path clip-path="url(#p8f46f7ea9b)" d="M 632.631679 138.738851 
L 632.646489 135.366654 
L 654.585391 140.047694 
L 654.541678 143.431656 
z
" style="fill:#065d4c;fill-opacity:0.8;"/>
    <path clip-path="url(#p8f46f7ea9b)" d="M 620.07194 146.898761 
L 620.0703 143.50615 
L 632.646489 135.366654 
L 632.631679 138.738851 
z
" style="fill:#0cba97;fill-opacity:0.8;"/>
    <path clip-path="url(#p8f46f7ea9b)" d="M 620.07194 146.898761 
L 632.631679 138.738851 
L 654.541678 143.431656 
L 642.118071 151.678898 
z
" style="fill:#08745e;fill-opacity:0.8;"/>
    <path clip-path="url(#p8f46f7ea9b)" d="M 620.0703 143.50615 
L 642.145694 148.274419 
L 654.585391 140.047694 
L 632.646489 135.366654 
z
" style="fill:#0aa384;fill-opacity:0.8;"/>
    <path clip-path="url(#p8f46f7ea9b)" d="M 642.118071 151.678898 
L 654.541678 143.431656 
L 654.585391 140.047694 
L 642.145694 148.274419 
z
" style="fill:#065d4c;fill-opacity:0.8;"/>
    <path clip-path="url(#p8f46f7ea9b)" d="M 620.07194 146.898761 
L 642.118071 151.678898 
L 642.145694 148.274419 
L 620.0703 143.50615 
z
" style="fill:#0cba97;fill-opacity:0.8;"/>
   </g>
   <g id="Poly3DCollection_20">
    <path clip-path="url(#p8f46f7ea9b)" d="M 563.619742 145.626576 
L 563.437401 137.50385 
L 585.217669 142.241836 
L 585.332 150.393044 
z
" style="fill:#065d4c;fill-opacity:0.8;"/>
    <path clip-path="url(#p8f46f7ea9b)" d="M 550.318669 153.914826 
L 550.092194 145.742677 
L 563.437401 137.50385 
L 563.619742 145.626576 
z
" style="fill:#0cba97;fill-opacity:0.8;"/>
    <path clip-path="url(#p8f46f7ea9b)" d="M 550.318669 153.914826 
L 563.619742 145.626576 
L 585.332 150.393044 
L 572.162277 158.7707 
z
" style="fill:#08745e;fill-opacity:0.8;"/>
    <path clip-path="url(#p8f46f7ea9b)" d="M 550.092194 145.742677 
L 572.004633 150.56982 
L 585.217669 142.241836 
L 563.437401 137.50385 
z
" style="fill:#0aa384;fill-opacity:0.8;"/>
    <path clip-path="url(#p8f46f7ea9b)" d="M 572.162277 158.7707 
L 585.332 150.393044 
L 585.217669 142.241836 
L 572.004633 150.56982 
z
" style="fill:#065d4c;fill-opacity:0.8;"/>
    <path clip-path="url(#p8f46f7ea9b)" d="M 550.318669 153.914826 
L 572.162277 158.7707 
L 572.004633 150.56982 
L 550.092194 145.742677 
z
" style="fill:#0cba97;fill-opacity:0.8;"/>
   </g>
   <g id="Poly3DCollection_21">
    <path clip-path="url(#p8f46f7ea9b)" d="M 676.685709 148.174588 
L 676.804441 142.669093 
L 699.235162 147.443667 
L 699.067541 152.968452 
z
" style="fill:#065d4c;fill-opacity:0.8;"/>
    <path clip-path="url(#p8f46f7ea9b)" d="M 664.401885 156.510571 
L 664.495141 150.971603 
L 676.804441 142.669093 
L 676.685709 148.174588 
z
" style="fill:#0cba97;fill-opacity:0.8;"/>
    <path clip-path="url(#p8f46f7ea9b)" d="M 664.401885 156.510571 
L 676.685709 148.174588 
L 699.067541 152.968452 
L 686.927248 161.394617 
z
" style="fill:#08745e;fill-opacity:0.8;"/>
    <path clip-path="url(#p8f46f7ea9b)" d="M 664.495141 150.971603 
L 687.070028 155.836192 
L 699.235162 147.443667 
L 676.804441 142.669093 
z
" style="fill:#0aa384;fill-opacity:0.8;"/>
    <path clip-path="url(#p8f46f7ea9b)" d="M 686.927248 161.394617 
L 699.067541 152.968452 
L 699.235162 147.443667 
L 687.070028 155.836192 
z
" style="fill:#065d4c;fill-opacity:0.8;"/>
    <path clip-path="url(#p8f46f7ea9b)" d="M 664.401885 156.510571 
L 686.927248 161.394617 
L 687.070028 155.836192 
L 664.495141 150.971603 
z
" style="fill:#0cba97;fill-opacity:0.8;"/>
   </g>
   <g id="Poly3DCollection_22">
    <path clip-path="url(#p8f46f7ea9b)" d="M 607.278004 155.210827 
L 607.278509 155.302954 
L 629.461256 160.173206 
L 629.46155 160.080756 
z
" style="fill:#0cba97;fill-opacity:0.8;"/>
    <path clip-path="url(#p8f46f7ea9b)" d="M 594.243259 163.679343 
L 594.244243 163.77203 
L 607.278509 155.302954 
L 607.278004 155.210827 
z
" style="fill:#065d4c;fill-opacity:0.8;"/>
    <path clip-path="url(#p8f46f7ea9b)" d="M 594.244243 163.77203 
L 616.565679 168.734631 
L 629.461256 160.173206 
L 607.278509 155.302954 
z
" style="fill:#0aa384;fill-opacity:0.8;"/>
    <path clip-path="url(#p8f46f7ea9b)" d="M 594.243259 163.679343 
L 607.278004 155.210827 
L 629.46155 160.080756 
L 616.565506 168.641619 
z
" style="fill:#08745e;fill-opacity:0.8;"/>
    <path clip-path="url(#p8f46f7ea9b)" d="M 616.565506 168.641619 
L 629.46155 160.080756 
L 629.461256 160.173206 
L 616.565679 168.734631 
z
" style="fill:#0cba97;fill-opacity:0.8;"/>
    <path clip-path="url(#p8f46f7ea9b)" d="M 594.243259 163.679343 
L 616.565506 168.641619 
L 616.565679 168.734631 
L 594.244243 163.77203 
z
" style="fill:#065d4c;fill-opacity:0.8;"/>
   </g>
   <g id="Poly3DCollection_23">
    <path clip-path="url(#p8f46f7ea9b)" d="M 721.691025 157.814076 
L 721.691025 157.814076 
L 744.560096 162.7123 
L 744.560096 162.7123 
z
" style="fill:#065d4c;fill-opacity:0.8;"/>
    <path clip-path="url(#p8f46f7ea9b)" d="M 709.698108 166.331893 
L 709.698108 166.331893 
L 721.691025 157.814076 
L 721.691025 157.814076 
z
" style="fill:#065d4c;fill-opacity:0.8;"/>
    <path clip-path="url(#p8f46f7ea9b)" d="M 709.698108 166.331893 
L 732.718501 171.323274 
L 744.560096 162.7123 
L 721.691025 157.814076 
z
" style="fill:#0aa384;fill-opacity:0.8;"/>
    <path clip-path="url(#p8f46f7ea9b)" d="M 709.698108 166.331893 
L 721.691025 157.814076 
L 744.560096 162.7123 
L 732.718501 171.323274 
z
" style="fill:#08745e;fill-opacity:0.8;"/>
    <path clip-path="url(#p8f46f7ea9b)" d="M 732.718501 171.323274 
L 744.560096 162.7123 
L 744.560096 162.7123 
L 732.718501 171.323274 
z
" style="fill:#065d4c;fill-opacity:0.8;"/>
    <path clip-path="url(#p8f46f7ea9b)" d="M 709.698108 166.331893 
L 732.718501 171.323274 
L 732.718501 171.323274 
L 709.698108 166.331893 
z
" style="fill:#065d4c;fill-opacity:0.8;"/>
   </g>
   <g id="Poly3DCollection_24">
    <path clip-path="url(#p8f46f7ea9b)" d="M 536.767604 162.358852 
L 536.801416 163.380004 
L 558.768842 168.331402 
L 558.743682 167.306671 
z
" style="fill:#0cba97;fill-opacity:0.8;"/>
    <path clip-path="url(#p8f46f7ea9b)" d="M 522.959434 170.963087 
L 522.999141 171.990449 
L 536.801416 163.380004 
L 536.767604 162.358852 
z
" style="fill:#065d4c;fill-opacity:0.8;"/>
    <path clip-path="url(#p8f46f7ea9b)" d="M 522.999141 171.990449 
L 545.100043 177.036458 
L 558.768842 168.331402 
L 536.801416 163.380004 
z
" style="fill:#0aa384;fill-opacity:0.8;"/>
    <path clip-path="url(#p8f46f7ea9b)" d="M 522.959434 170.963087 
L 536.767604 162.358852 
L 558.743682 167.306671 
L 545.069092 176.005488 
z
" style="fill:#08745e;fill-opacity:0.8;"/>
    <path clip-path="url(#p8f46f7ea9b)" d="M 545.069092 176.005488 
L 558.743682 167.306671 
L 558.768842 168.331402 
L 545.100043 177.036458 
z
" style="fill:#0cba97;fill-opacity:0.8;"/>
    <path clip-path="url(#p8f46f7ea9b)" d="M 522.959434 170.963087 
L 545.069092 176.005488 
L 545.100043 177.036458 
L 522.999141 171.990449 
z
" style="fill:#065d4c;fill-opacity:0.8;"/>
   </g>
   <g id="Poly3DCollection_25">
    <path clip-path="url(#p8f46f7ea9b)" d="M 651.886516 165.003684 
L 651.886516 165.003684 
L 674.556863 169.980481 
L 674.556863 169.980481 
z
" style="fill:#065d4c;fill-opacity:0.8;"/>
    <path clip-path="url(#p8f46f7ea9b)" d="M 639.132993 173.658413 
L 639.132993 173.658413 
L 651.886516 165.003684 
L 651.886516 165.003684 
z
" style="fill:#065d4c;fill-opacity:0.8;"/>
    <path clip-path="url(#p8f46f7ea9b)" d="M 639.132993 173.658413 
L 651.886516 165.003684 
L 674.556863 169.980481 
L 661.949783 178.730627 
z
" style="fill:#08745e;fill-opacity:0.8;"/>
    <path clip-path="url(#p8f46f7ea9b)" d="M 639.132993 173.658413 
L 661.949783 178.730627 
L 674.556863 169.980481 
L 651.886516 165.003684 
z
" style="fill:#0aa384;fill-opacity:0.8;"/>
    <path clip-path="url(#p8f46f7ea9b)" d="M 661.949783 178.730627 
L 674.556863 169.980481 
L 674.556863 169.980481 
L 661.949783 178.730627 
z
" style="fill:#065d4c;fill-opacity:0.8;"/>
    <path clip-path="url(#p8f46f7ea9b)" d="M 639.132993 173.658413 
L 661.949783 178.730627 
L 661.949783 178.730627 
L 639.132993 173.658413 
z
" style="fill:#065d4c;fill-opacity:0.8;"/>
   </g>
   <g id="Poly3DCollection_26">
    <path clip-path="url(#p8f46f7ea9b)" d="M 580.960842 172.308769 
L 580.960842 172.308769 
L 603.423073 177.366044 
L 603.423073 177.366044 
z
" style="fill:#065d4c;fill-opacity:0.8;"/>
    <path clip-path="url(#p8f46f7ea9b)" d="M 567.423624 181.103736 
L 567.423624 181.103736 
L 580.960842 172.308769 
L 580.960842 172.308769 
z
" style="fill:#065d4c;fill-opacity:0.8;"/>
    <path clip-path="url(#p8f46f7ea9b)" d="M 567.423624 181.103736 
L 580.960842 172.308769 
L 603.423073 177.366044 
L 590.027121 186.258763 
z
" style="fill:#08745e;fill-opacity:0.8;"/>
    <path clip-path="url(#p8f46f7ea9b)" d="M 567.423624 181.103736 
L 590.027121 186.258763 
L 603.423073 177.366044 
L 580.960842 172.308769 
z
" style="fill:#0aa384;fill-opacity:0.8;"/>
    <path clip-path="url(#p8f46f7ea9b)" d="M 590.027121 186.258763 
L 603.423073 177.366044 
L 603.423073 177.366044 
L 590.027121 186.258763 
z
" style="fill:#065d4c;fill-opacity:0.8;"/>
    <path clip-path="url(#p8f46f7ea9b)" d="M 567.423624 181.103736 
L 590.027121 186.258763 
L 590.027121 186.258763 
L 567.423624 181.103736 
z
" style="fill:#065d4c;fill-opacity:0.8;"/>
   </g>
   <g id="Poly3DCollection_27">
    <path clip-path="url(#p8f46f7ea9b)" d="M 697.476643 175.012035 
L 697.30915 180.599425 
L 720.430333 185.706235 
L 720.649993 180.099255 
z
" style="fill:#0cba97;fill-opacity:0.8;"/>
    <path clip-path="url(#p8f46f7ea9b)" d="M 685.020032 183.859185 
L 684.878589 189.480564 
L 697.30915 180.599425 
L 697.476643 175.012035 
z
" style="fill:#065d4c;fill-opacity:0.8;"/>
    <path clip-path="url(#p8f46f7ea9b)" d="M 684.878589 189.480564 
L 708.153672 194.686159 
L 720.430333 185.706235 
L 697.30915 180.599425 
z
" style="fill:#0aa384;fill-opacity:0.8;"/>
    <path clip-path="url(#p8f46f7ea9b)" d="M 685.020032 183.859185 
L 697.476643 175.012035 
L 720.649993 180.099255 
L 708.347986 189.045032 
z
" style="fill:#08745e;fill-opacity:0.8;"/>
    <path clip-path="url(#p8f46f7ea9b)" d="M 708.347986 189.045032 
L 720.649993 180.099255 
L 720.430333 185.706235 
L 708.153672 194.686159 
z
" style="fill:#0cba97;fill-opacity:0.8;"/>
    <path clip-path="url(#p8f46f7ea9b)" d="M 685.020032 183.859185 
L 708.347986 189.045032 
L 708.153672 194.686159 
L 684.878589 189.480564 
z
" style="fill:#065d4c;fill-opacity:0.8;"/>
   </g>
   <g id="Poly3DCollection_28">
    <path clip-path="url(#p8f46f7ea9b)" d="M 508.886771 179.732135 
L 508.886771 179.732135 
L 531.131112 184.871855 
L 531.131112 184.871855 
z
" style="fill:#065d4c;fill-opacity:0.8;"/>
    <path clip-path="url(#p8f46f7ea9b)" d="M 494.541943 188.670776 
L 494.541943 188.670776 
L 508.886771 179.732135 
L 508.886771 179.732135 
z
" style="fill:#065d4c;fill-opacity:0.8;"/>
    <path clip-path="url(#p8f46f7ea9b)" d="M 494.541943 188.670776 
L 508.886771 179.732135 
L 531.131112 184.871855 
L 516.922058 193.910661 
z
" style="fill:#08745e;fill-opacity:0.8;"/>
    <path clip-path="url(#p8f46f7ea9b)" d="M 494.541943 188.670776 
L 516.922058 193.910661 
L 531.131112 184.871855 
L 508.886771 179.732135 
z
" style="fill:#0aa384;fill-opacity:0.8;"/>
    <path clip-path="url(#p8f46f7ea9b)" d="M 516.922058 193.910661 
L 531.131112 184.871855 
L 531.131112 184.871855 
L 516.922058 193.910661 
z
" style="fill:#065d4c;fill-opacity:0.8;"/>
    <path clip-path="url(#p8f46f7ea9b)" d="M 494.541943 188.670776 
L 516.922058 193.910661 
L 516.922058 193.910661 
L 494.541943 188.670776 
z
" style="fill:#065d4c;fill-opacity:0.8;"/>
   </g>
   <g id="Poly3DCollection_29">
    <path clip-path="url(#p8f46f7ea9b)" d="M 626.134452 182.479413 
L 626.134631 182.385498 
L 649.100185 187.55557 
L 649.099149 187.649816 
z
" style="fill:#065d4c;fill-opacity:0.8;"/>
    <path clip-path="url(#p8f46f7ea9b)" d="M 612.883765 191.471524 
L 612.88345 191.377035 
L 626.134631 182.385498 
L 626.134452 182.479413 
z
" style="fill:#0cba97;fill-opacity:0.8;"/>
    <path clip-path="url(#p8f46f7ea9b)" d="M 612.883765 191.471524 
L 626.134452 182.479413 
L 649.099149 187.649816 
L 635.997834 196.742994 
z
" style="fill:#08745e;fill-opacity:0.8;"/>
    <path clip-path="url(#p8f46f7ea9b)" d="M 612.88345 191.377035 
L 635.998386 196.648171 
L 649.100185 187.55557 
L 626.134631 182.385498 
z
" style="fill:#0aa384;fill-opacity:0.8;"/>
    <path clip-path="url(#p8f46f7ea9b)" d="M 635.997834 196.742994 
L 649.099149 187.649816 
L 649.100185 187.55557 
L 635.998386 196.648171 
z
" style="fill:#065d4c;fill-opacity:0.8;"/>
    <path clip-path="url(#p8f46f7ea9b)" d="M 612.883765 191.471524 
L 635.997834 196.742994 
L 635.998386 196.648171 
L 612.88345 191.377035 
z
" style="fill:#0cba97;fill-opacity:0.8;"/>
   </g>
   <g id="Poly3DCollection_30">
    <path clip-path="url(#p8f46f7ea9b)" d="M 553.624205 190.069052 
L 553.596284 189.027277 
L 576.351602 194.279239 
L 576.370245 195.324694 
z
" style="fill:#065d4c;fill-opacity:0.8;"/>
    <path clip-path="url(#p8f46f7ea9b)" d="M 539.55489 199.209715 
L 539.520837 198.161555 
L 553.596284 189.027277 
L 553.624205 190.069052 
z
" style="fill:#0cba97;fill-opacity:0.8;"/>
    <path clip-path="url(#p8f46f7ea9b)" d="M 539.55489 199.209715 
L 553.624205 190.069052 
L 576.370245 195.324694 
L 562.444745 204.568946 
z
" style="fill:#08745e;fill-opacity:0.8;"/>
    <path clip-path="url(#p8f46f7ea9b)" d="M 539.520837 198.161555 
L 562.420086 203.517077 
L 576.351602 194.279239 
L 553.596284 189.027277 
z
" style="fill:#0aa384;fill-opacity:0.8;"/>
    <path clip-path="url(#p8f46f7ea9b)" d="M 562.444745 204.568946 
L 576.370245 195.324694 
L 576.351602 194.279239 
L 562.420086 203.517077 
z
" style="fill:#065d4c;fill-opacity:0.8;"/>
    <path clip-path="url(#p8f46f7ea9b)" d="M 539.55489 199.209715 
L 562.444745 204.568946 
L 562.420086 203.517077 
L 539.520837 198.161555 
z
" style="fill:#0cba97;fill-opacity:0.8;"/>
   </g>
   <g id="Poly3DCollection_31">
    <path clip-path="url(#p8f46f7ea9b)" d="M 672.321425 192.878211 
L 672.250777 196.372468 
L 695.701882 201.672152 
L 695.805638 198.165581 
z
" style="fill:#0cba97;fill-opacity:0.8;"/>
    <path clip-path="url(#p8f46f7ea9b)" d="M 659.373699 202.07417 
L 659.320468 205.589792 
L 672.250777 196.372468 
L 672.321425 192.878211 
z
" style="fill:#065d4c;fill-opacity:0.8;"/>
    <path clip-path="url(#p8f46f7ea9b)" d="M 659.320468 205.589792 
L 682.929047 210.994105 
L 695.701882 201.672152 
L 672.250777 196.372468 
z
" style="fill:#0aa384;fill-opacity:0.8;"/>
    <path clip-path="url(#p8f46f7ea9b)" d="M 659.373699 202.07417 
L 672.321425 192.878211 
L 695.805638 198.165581 
L 683.015835 207.466073 
z
" style="fill:#08745e;fill-opacity:0.8;"/>
    <path clip-path="url(#p8f46f7ea9b)" d="M 683.015835 207.466073 
L 695.805638 198.165581 
L 695.701882 201.672152 
L 682.929047 210.994105 
z
" style="fill:#0cba97;fill-opacity:0.8;"/>
    <path clip-path="url(#p8f46f7ea9b)" d="M 659.373699 202.07417 
L 683.015835 207.466073 
L 682.929047 210.994105 
L 659.320468 205.589792 
z
" style="fill:#065d4c;fill-opacity:0.8;"/>
   </g>
   <g id="Poly3DCollection_32">
    <path clip-path="url(#p8f46f7ea9b)" d="M 599.373524 200.639773 
L 599.446674 209.025184 
L 622.633989 214.430216 
L 622.63843 206.015302 
z
" style="fill:#0cba97;fill-opacity:0.8;"/>
    <path clip-path="url(#p8f46f7ea9b)" d="M 585.596025 209.989386 
L 585.716284 218.425978 
L 599.446674 209.025184 
L 599.373524 200.639773 
z
" style="fill:#065d4c;fill-opacity:0.8;"/>
    <path clip-path="url(#p8f46f7ea9b)" d="M 585.716284 218.425978 
L 609.054888 223.938404 
L 622.633989 214.430216 
L 599.446674 209.025184 
z
" style="fill:#0aa384;fill-opacity:0.8;"/>
    <path clip-path="url(#p8f46f7ea9b)" d="M 585.596025 209.989386 
L 599.373524 200.639773 
L 622.63843 206.015302 
L 609.013235 215.472087 
z
" style="fill:#08745e;fill-opacity:0.8;"/>
    <path clip-path="url(#p8f46f7ea9b)" d="M 609.013235 215.472087 
L 622.63843 206.015302 
L 622.633989 214.430216 
L 609.054888 223.938404 
z
" style="fill:#0cba97;fill-opacity:0.8;"/>
    <path clip-path="url(#p8f46f7ea9b)" d="M 585.596025 209.989386 
L 609.013235 215.472087 
L 609.054888 223.938404 
L 585.716284 218.425978 
z
" style="fill:#065d4c;fill-opacity:0.8;"/>
   </g>
   <g id="Poly3DCollection_33">
    <path clip-path="url(#p8f46f7ea9b)" d="M 646.169452 211.45232 
L 646.161591 212.244267 
L 669.955706 217.746639 
L 669.971182 216.951887 
z
" style="fill:#0cba97;fill-opacity:0.8;"/>
    <path clip-path="url(#p8f46f7ea9b)" d="M 632.700983 221.01813 
L 632.697346 221.814943 
L 646.161591 212.244267 
L 646.169452 211.45232 
z
" style="fill:#065d4c;fill-opacity:0.8;"/>
    <path clip-path="url(#p8f46f7ea9b)" d="M 632.697346 221.814943 
L 656.652628 227.428257 
L 669.955706 217.746639 
L 646.161591 212.244267 
z
" style="fill:#0aa384;fill-opacity:0.8;"/>
    <path clip-path="url(#p8f46f7ea9b)" d="M 632.700983 221.01813 
L 646.169452 211.45232 
L 669.971182 216.951887 
L 656.663985 226.628619 
z
" style="fill:#08745e;fill-opacity:0.8;"/>
    <path clip-path="url(#p8f46f7ea9b)" d="M 656.663985 226.628619 
L 669.971182 216.951887 
L 669.955706 217.746639 
L 656.652628 227.428257 
z
" style="fill:#0cba97;fill-opacity:0.8;"/>
    <path clip-path="url(#p8f46f7ea9b)" d="M 632.700983 221.01813 
L 656.663985 226.628619 
L 656.652628 227.428257 
L 632.697346 221.814943 
z
" style="fill:#065d4c;fill-opacity:0.8;"/>
   </g>
   <g id="Poly3DCollection_34">
    <path clip-path="url(#p8f46f7ea9b)" d="M 481.664975 190.007744 
L 660.416222 232.054784 
L 756.696432 161.452228 
L 586.49171 125.151461 
z
" style="fill-opacity:0.2;"/>
   </g>
  </g>
 </g>
 <defs>
  <clipPath id="p28fa4f920c">
   <rect height="277.2" width="380.454545" x="-30.6" y="-14.4"/>
  </clipPath>
  <clipPath id="p8f46f7ea9b">
   <rect height="277.2" width="380.454545" x="425.945455" y="-14.4"/>
  </clipPath>
 </defs>
</svg>
