<?xml version="1.0" encoding="utf-8" standalone="no"?>
<!DOCTYPE svg PUBLIC "-//W3C//DTD SVG 1.1//EN"
  "http://www.w3.org/Graphics/SVG/1.1/DTD/svg11.dtd">
<!-- Created with matplotlib (https://matplotlib.org/) -->
<svg height="302.4pt" version="1.1" viewBox="0 0 820.8 302.4" width="820.8pt" xmlns="http://www.w3.org/2000/svg" xmlns:xlink="http://www.w3.org/1999/xlink">
 <defs>
  <style type="text/css">
*{stroke-linecap:butt;stroke-linejoin:round;}
  </style>
 </defs>
 <g id="figure_1">
  <g id="patch_1">
   <path d="M 0 302.4 
L 820.8 302.4 
L 820.8 0 
L 0 0 
z
" style="fill:#ffffff;"/>
  </g>
  <g id="patch_2">
   <path d="M -30.6 262.8 
L 349.854545 262.8 
L 349.854545 -14.4 
L -30.6 -14.4 
z
" style="fill:#ffffff;"/>
  </g>
  <g id="pane3d_1">
   <g id="patch_3">
    <path d="M 19.835129 201.548569 
L 128.723211 133.58541 
L 126.910339 3.718968 
L 11.951034 64.782468 
" style="fill:#f2f2f2;opacity:0.5;stroke:#f2f2f2;stroke-linejoin:miter;"/>
   </g>
  </g>
  <g id="pane3d_2">
   <g id="patch_4">
    <path d="M 128.723211 133.58541 
L 305.111665 171.581202 
L 312.491547 37.79869 
L 126.910339 3.718968 
" style="fill:#e6e6e6;opacity:0.5;stroke:#e6e6e6;stroke-linejoin:miter;"/>
   </g>
  </g>
  <g id="pane3d_3">
   <g id="patch_5">
    <path d="M 19.835129 201.548569 
L 205.419617 245.80086 
L 305.111665 171.581202 
L 128.723211 133.58541 
" style="fill:#ececec;opacity:0.5;stroke:#ececec;stroke-linejoin:miter;"/>
   </g>
  </g>
  <g id="axis3d_1">
   <g id="line2d_1">
    <path d="M 19.835129 201.548569 
L 205.419617 245.80086 
" style="fill:none;stroke:#000000;stroke-linecap:square;stroke-width:0.8;"/>
   </g>
   <g id="Line3DCollection_1">
    <path d="M 42.295817 206.90428 
L 150.133942 138.19749 
L 149.393845 7.847789 
" style="fill:none;stroke:#b0b0b0;stroke-width:0.8;"/>
    <path d="M 87.512337 217.686079 
L 193.184014 147.470895 
L 194.636898 16.156123 
" style="fill:none;stroke:#b0b0b0;stroke-width:0.8;"/>
    <path d="M 133.765289 228.715013 
L 237.148096 156.941187 
L 240.890183 24.649974 
" style="fill:none;stroke:#b0b0b0;stroke-width:0.8;"/>
    <path d="M 181.090721 239.999678 
L 282.055608 166.614702 
L 288.187917 33.335625 
" style="fill:none;stroke:#b0b0b0;stroke-width:0.8;"/>
   </g>
   <g id="xtick_1">
    <g id="line2d_2">
     <path d="M 43.225084 206.312217 
L 40.433807 208.09062 
" style="fill:none;stroke:#000000;stroke-linecap:square;stroke-width:0.8;"/>
    </g>
    <g id="text_1">
     <!-- 00 -->
     <defs>
      <path d="M 42 31.84375 
C 42 37.96875 41.90625 48.421875 37.703125 56.453125 
C 34 63.484375 28.09375 66 22.90625 66 
C 18.09375 66 12 63.78125 8.203125 56.5625 
C 4.203125 49.015625 3.796875 39.671875 3.796875 31.84375 
C 3.796875 26.109375 3.90625 17.375 7 9.734375 
C 11.296875 -0.609375 19 -2 22.90625 -2 
C 27.5 -2 34.5 -0.109375 38.59375 9.4375 
C 41.59375 16.375 42 24.5 42 31.84375 
z
M 22.90625 -0.40625 
C 16.5 -0.40625 12.703125 5.125 11.296875 12.75 
C 10.203125 18.6875 10.203125 27.328125 10.203125 32.953125 
C 10.203125 40.6875 10.203125 47.109375 11.5 53.234375 
C 13.40625 61.78125 19 64.390625 22.90625 64.390625 
C 27 64.390625 32.296875 61.671875 34.203125 53.4375 
C 35.5 47.71875 35.59375 40.984375 35.59375 32.953125 
C 35.59375 26.421875 35.59375 18.375 34.40625 12.453125 
C 32.296875 1.5 26.40625 -0.40625 22.90625 -0.40625 
z
" id="CMR17-48"/>
     </defs>
     <g transform="translate(19.241292 243.348593)rotate(-45)scale(0.2 -0.2)">
      <use transform="scale(0.996264)" xlink:href="#CMR17-48"/>
      <use transform="translate(45.690477 0)scale(0.996264)" xlink:href="#CMR17-48"/>
     </g>
    </g>
   </g>
   <g id="xtick_2">
    <g id="line2d_3">
     <path d="M 88.423674 217.080527 
L 85.686217 218.899473 
" style="fill:none;stroke:#000000;stroke-linecap:square;stroke-width:0.8;"/>
    </g>
    <g id="text_2">
     <!-- 01 -->
     <defs>
      <path d="M 26.59375 63.796875 
C 26.59375 65.890625 26.5 66 25.09375 66 
C 21.203125 61.359375 15.296875 59.890625 9.703125 59.6875 
C 9.40625 59.6875 8.90625 59.6875 8.796875 59.5 
C 8.703125 59.296875 8.703125 59.09375 8.703125 57 
C 11.796875 57 17 57.59375 21 59.984375 
L 21 7.296875 
C 21 3.796875 20.796875 2.59375 12.203125 2.59375 
L 9.203125 2.59375 
L 9.203125 0 
C 14 0.09375 19 0.1875 23.796875 0.1875 
C 28.59375 0.1875 33.59375 0.09375 38.40625 0 
L 38.40625 2.59375 
L 35.40625 2.59375 
C 26.796875 2.59375 26.59375 3.6875 26.59375 7.296875 
z
" id="CMR17-49"/>
     </defs>
     <g transform="translate(64.453717 254.305345)rotate(-45)scale(0.2 -0.2)">
      <use transform="scale(0.996264)" xlink:href="#CMR17-48"/>
      <use transform="translate(45.690477 0)scale(0.996264)" xlink:href="#CMR17-49"/>
     </g>
    </g>
   </g>
   <g id="xtick_3">
    <g id="line2d_4">
     <path d="M 134.657625 228.095506 
L 131.977203 229.956397 
" style="fill:none;stroke:#000000;stroke-linecap:square;stroke-width:0.8;"/>
    </g>
    <g id="text_3">
     <!-- 10 -->
     <g transform="translate(110.70433 265.513691)rotate(-45)scale(0.2 -0.2)">
      <use transform="scale(0.996264)" xlink:href="#CMR17-49"/>
      <use transform="translate(45.690477 0)scale(0.996264)" xlink:href="#CMR17-48"/>
     </g>
    </g>
   </g>
   <g id="xtick_4">
    <g id="line2d_5">
     <path d="M 181.962926 239.365727 
L 179.342936 241.270032 
" style="fill:none;stroke:#000000;stroke-linecap:square;stroke-width:0.8;"/>
    </g>
    <g id="text_4">
     <!-- 11 -->
     <g transform="translate(158.029305 276.982396)rotate(-45)scale(0.2 -0.2)">
      <use transform="scale(0.996264)" xlink:href="#CMR17-49"/>
      <use transform="translate(45.690477 0)scale(0.996264)" xlink:href="#CMR17-49"/>
     </g>
    </g>
   </g>
  </g>
  <g id="axis3d_2">
   <g id="line2d_6">
    <path d="M 305.111665 171.581202 
L 205.419617 245.80086 
" style="fill:none;stroke:#000000;stroke-linecap:square;stroke-width:0.8;"/>
   </g>
   <g id="Line3DCollection_2">
    <path d="M 27.455231 56.547028 
L 34.471044 192.413474 
L 218.858418 235.795817 
" style="fill:none;stroke:#b0b0b0;stroke-width:0.8;"/>
    <path d="M 57.232024 40.730342 
L 62.623407 174.842005 
L 244.674037 216.576366 
" style="fill:none;stroke:#b0b0b0;stroke-width:0.8;"/>
    <path d="M 85.85589 25.526062 
L 89.739382 157.917404 
L 269.496985 198.095948 
" style="fill:none;stroke:#b0b0b0;stroke-width:0.8;"/>
    <path d="M 113.392516 10.899296 
L 115.875164 141.604597 
L 293.383438 180.312741 
" style="fill:none;stroke:#b0b0b0;stroke-width:0.8;"/>
   </g>
   <g id="xtick_5">
    <g id="line2d_7">
     <path d="M 217.315598 235.432825 
L 221.947489 236.522608 
" style="fill:none;stroke:#000000;stroke-linecap:square;stroke-width:0.8;"/>
    </g>
    <g id="text_5">
     <!-- 00 -->
     <g transform="translate(233.095662 248.844567)rotate(-337.5)scale(0.2 -0.2)">
      <use transform="scale(0.996264)" xlink:href="#CMR17-48"/>
      <use transform="translate(45.690477 0)scale(0.996264)" xlink:href="#CMR17-48"/>
     </g>
    </g>
   </g>
   <g id="xtick_6">
    <g id="line2d_8">
     <path d="M 243.15208 216.227463 
L 247.72127 217.274932 
" style="fill:none;stroke:#000000;stroke-linecap:square;stroke-width:0.8;"/>
    </g>
    <g id="text_6">
     <!-- 01 -->
     <g transform="translate(258.649213 229.400141)rotate(-337.5)scale(0.2 -0.2)">
      <use transform="scale(0.996264)" xlink:href="#CMR17-48"/>
      <use transform="translate(45.690477 0)scale(0.996264)" xlink:href="#CMR17-49"/>
     </g>
    </g>
   </g>
   <g id="xtick_7">
    <g id="line2d_9">
     <path d="M 267.995442 197.76033 
L 272.503283 198.767901 
" style="fill:none;stroke:#000000;stroke-linecap:square;stroke-width:0.8;"/>
    </g>
    <g id="text_7">
     <!-- 10 -->
     <g transform="translate(283.220625 210.703053)rotate(-337.5)scale(0.2 -0.2)">
      <use transform="scale(0.996264)" xlink:href="#CMR17-49"/>
      <use transform="translate(45.690477 0)scale(0.996264)" xlink:href="#CMR17-48"/>
     </g>
    </g>
   </g>
   <g id="xtick_8">
    <g id="line2d_10">
     <path d="M 291.901865 179.989663 
L 296.349691 180.959573 
" style="fill:none;stroke:#000000;stroke-linecap:square;stroke-width:0.8;"/>
    </g>
    <g id="text_8">
     <!-- 11 -->
     <g transform="translate(306.865451 192.711031)rotate(-337.5)scale(0.2 -0.2)">
      <use transform="scale(0.996264)" xlink:href="#CMR17-49"/>
      <use transform="translate(45.690477 0)scale(0.996264)" xlink:href="#CMR17-49"/>
     </g>
    </g>
   </g>
  </g>
  <g id="axis3d_3">
   <g id="line2d_11">
    <path d="M 305.111665 171.581202 
L 312.491547 37.79869 
" style="fill:none;stroke:#000000;stroke-linecap:square;stroke-width:0.8;"/>
   </g>
   <g id="Line3DCollection_3">
    <path d="M 306.858997 139.905564 
L 128.293264 102.785829 
L 17.970866 169.209034 
" style="fill:none;stroke:#b0b0b0;stroke-width:0.8;"/>
    <path d="M 308.549396 109.262008 
L 127.877748 73.020021 
L 16.1659 137.898126 
" style="fill:none;stroke:#b0b0b0;stroke-width:0.8;"/>
    <path d="M 310.280499 77.880564 
L 127.452656 42.568232 
L 14.315995 105.80766 
" style="fill:none;stroke:#b0b0b0;stroke-width:0.8;"/>
    <path d="M 312.053795 45.734252 
L 127.017653 11.406472 
L 12.419452 72.908155 
" style="fill:none;stroke:#b0b0b0;stroke-width:0.8;"/>
   </g>
   <g id="xtick_9">
    <g id="line2d_12">
     <path d="M 305.36842 139.595707 
L 309.843288 140.52593 
" style="fill:none;stroke:#000000;stroke-linecap:square;stroke-width:0.8;"/>
    </g>
    <g id="text_9">
     <!-- $0.1$ -->
     <defs>
      <path d="M 18.40625 4.796875 
C 18.40625 7.6875 16 9.6875 13.59375 9.6875 
C 10.703125 9.6875 8.703125 7.296875 8.703125 4.890625 
C 8.703125 2 11.09375 0 13.5 0 
C 16.40625 0 18.40625 2.390625 18.40625 4.796875 
z
" id="CMMI12-58"/>
     </defs>
     <g transform="translate(313.746995 151.842087)scale(0.2 -0.2)">
      <use transform="scale(0.996264)" xlink:href="#CMR17-48"/>
      <use transform="translate(45.690477 0)scale(0.996264)" xlink:href="#CMMI12-58"/>
      <use transform="translate(72.787654 0)scale(0.996264)" xlink:href="#CMR17-49"/>
     </g>
    </g>
   </g>
   <g id="xtick_10">
    <g id="line2d_13">
     <path d="M 307.040493 108.959329 
L 311.570415 109.868012 
" style="fill:none;stroke:#000000;stroke-linecap:square;stroke-width:0.8;"/>
    </g>
    <g id="text_10">
     <!-- $0.2$ -->
     <defs>
      <path d="M 41.703125 15.46875 
L 39.90625 15.46875 
C 38.90625 8.390625 38.09375 7.1875 37.703125 6.59375 
C 37.203125 5.796875 30 5.796875 28.59375 5.796875 
L 9.40625 5.796875 
C 13 9.6875 20 16.765625 28.5 24.9375 
C 34.59375 30.71875 41.703125 37.5 41.703125 47.390625 
C 41.703125 59.1875 32.296875 66 21.796875 66 
C 10.796875 66 4.09375 56.296875 4.09375 47.296875 
C 4.09375 43.390625 7 42.890625 8.203125 42.890625 
C 9.203125 42.890625 12.203125 43.484375 12.203125 46.984375 
C 12.203125 50.09375 9.59375 51 8.203125 51 
C 7.59375 51 7 50.890625 6.59375 50.6875 
C 8.5 59.1875 14.296875 63.390625 20.40625 63.390625 
C 29.09375 63.390625 34.796875 56.5 34.796875 47.390625 
C 34.796875 38.703125 29.703125 31.21875 24 24.734375 
L 4.09375 2.296875 
L 4.09375 0 
L 39.296875 0 
z
" id="CMR17-50"/>
     </defs>
     <g transform="translate(315.656128 121.242592)scale(0.2 -0.2)">
      <use transform="scale(0.996264)" xlink:href="#CMR17-48"/>
      <use transform="translate(45.690477 0)scale(0.996264)" xlink:href="#CMMI12-58"/>
      <use transform="translate(72.787654 0)scale(0.996264)" xlink:href="#CMR17-50"/>
     </g>
    </g>
   </g>
   <g id="xtick_11">
    <g id="line2d_14">
     <path d="M 308.752815 77.585498 
L 313.339161 78.471329 
" style="fill:none;stroke:#000000;stroke-linecap:square;stroke-width:0.8;"/>
    </g>
    <g id="text_11">
     <!-- $0.3$ -->
     <defs>
      <path d="M 22.09375 34 
C 31 34 34.90625 26.140625 34.90625 17.09375 
C 34.90625 5.03125 28.5 0.390625 22.703125 0.390625 
C 17.40625 0.390625 8.796875 3.015625 6.09375 10.796875 
C 6.59375 10.59375 7.09375 10.59375 7.59375 10.59375 
C 10 10.59375 11.796875 12.1875 11.796875 14.796875 
C 11.796875 17.6875 9.59375 19 7.59375 19 
C 5.90625 19 3.296875 18.1875 3.296875 14.484375 
C 3.296875 5.234375 12.296875 -2 22.90625 -2 
C 34 -2 42.5 6.75 42.5 16.984375 
C 42.5 26.84375 34.5 34 25 35.09375 
C 32.59375 36.671875 39.90625 43.375 39.90625 52.390625 
C 39.90625 60.25 32 66 23 66 
C 13.90625 66 5.90625 60.34375 5.90625 52.296875 
C 5.90625 48.796875 8.5 48.1875 9.796875 48.1875 
C 11.90625 48.1875 13.703125 49.484375 13.703125 52.09375 
C 13.703125 54.6875 11.90625 56 9.796875 56 
C 9.40625 56 8.90625 56 8.5 55.796875 
C 11.40625 62.484375 19.296875 63.6875 22.796875 63.6875 
C 26.296875 63.6875 32.90625 61.96875 32.90625 52.296875 
C 32.90625 49.484375 32.5 44.546875 29.09375 40.21875 
C 26.09375 36.390625 22.703125 36.1875 19.40625 35.890625 
C 18.90625 35.890625 16.59375 35.6875 16.203125 35.6875 
C 15.5 35.59375 15.09375 35.5 15.09375 34.796875 
C 15.09375 34.09375 15.203125 34 17.203125 34 
z
" id="CMR17-51"/>
     </defs>
     <g transform="translate(317.611131 89.90789)scale(0.2 -0.2)">
      <use transform="scale(0.996264)" xlink:href="#CMR17-48"/>
      <use transform="translate(45.690477 0)scale(0.996264)" xlink:href="#CMMI12-58"/>
      <use transform="translate(72.787654 0)scale(0.996264)" xlink:href="#CMR17-51"/>
     </g>
    </g>
   </g>
   <g id="xtick_12">
    <g id="line2d_15">
     <path d="M 310.506856 45.447265 
L 315.151047 46.308853 
" style="fill:none;stroke:#000000;stroke-linecap:square;stroke-width:0.8;"/>
    </g>
    <g id="text_12">
     <!-- $0.4$ -->
     <defs>
      <path d="M 33.59375 64.796875 
C 33.59375 66.890625 33.5 67 31.703125 67 
L 2 19.59375 
L 2 17 
L 27.796875 17 
L 27.796875 7.1875 
C 27.796875 3.59375 27.59375 2.59375 20.59375 2.59375 
L 18.703125 2.59375 
L 18.703125 0 
C 21.90625 0.1875 27.296875 0.1875 30.703125 0.1875 
C 34.09375 0.1875 39.5 0.1875 42.703125 0 
L 42.703125 2.59375 
L 40.796875 2.59375 
C 33.796875 2.59375 33.59375 3.59375 33.59375 7.1875 
L 33.59375 17 
L 43.796875 17 
L 43.796875 19.59375 
L 33.59375 19.59375 
z
M 28.09375 58.171875 
L 28.09375 19.59375 
L 4 19.59375 
z
" id="CMR17-52"/>
     </defs>
     <g transform="translate(319.613677 57.811161)scale(0.2 -0.2)">
      <use transform="scale(0.996264)" xlink:href="#CMR17-48"/>
      <use transform="translate(45.690477 0)scale(0.996264)" xlink:href="#CMMI12-58"/>
      <use transform="translate(72.787654 0)scale(0.996264)" xlink:href="#CMR17-52"/>
     </g>
    </g>
   </g>
  </g>
  <g id="axes_1">
   <g id="Poly3DCollection_1">
    <path clip-path="url(#p61b3aa91f5)" d="M 133.06137 138.258367 
L 133.020117 134.904962 
L 154.428332 139.518566 
L 154.441838 142.883513 
z
" style="fill:#5d0618;fill-opacity:0.8;"/>
    <path clip-path="url(#p61b3aa91f5)" d="M 120.284757 146.300195 
L 120.226354 142.926762 
L 133.020117 134.904962 
L 133.06137 138.258367 
z
" style="fill:#ba0c2f;fill-opacity:0.8;"/>
    <path clip-path="url(#p61b3aa91f5)" d="M 120.284757 146.300195 
L 133.06137 138.258367 
L 154.441838 142.883513 
L 141.793454 151.010205 
z
" style="fill:#74081d;fill-opacity:0.8;"/>
    <path clip-path="url(#p61b3aa91f5)" d="M 120.226354 142.926762 
L 141.76313 147.625132 
L 154.428332 139.518566 
L 133.020117 134.904962 
z
" style="fill:#a30a29;fill-opacity:0.8;"/>
    <path clip-path="url(#p61b3aa91f5)" d="M 141.793454 151.010205 
L 154.441838 142.883513 
L 154.428332 139.518566 
L 141.76313 147.625132 
z
" style="fill:#5d0618;fill-opacity:0.8;"/>
    <path clip-path="url(#p61b3aa91f5)" d="M 120.284757 146.300195 
L 141.793454 151.010205 
L 141.76313 147.625132 
L 120.226354 142.926762 
z
" style="fill:#ba0c2f;fill-opacity:0.8;"/>
   </g>
   <g id="Poly3DCollection_2">
    <path clip-path="url(#p61b3aa91f5)" d="M 176.047495 147.557373 
L 176.061391 144.393197 
L 197.92293 149.105623 
L 197.881916 152.28072 
z
" style="fill:#5d0618;fill-opacity:0.8;"/>
    <path clip-path="url(#p61b3aa91f5)" d="M 163.530775 155.77028 
L 163.529236 152.587153 
L 176.061391 144.393197 
L 176.047495 147.557373 
z
" style="fill:#ba0c2f;fill-opacity:0.8;"/>
    <path clip-path="url(#p61b3aa91f5)" d="M 163.530775 155.77028 
L 176.047495 147.557373 
L 197.881916 152.28072 
L 185.500385 160.581221 
z
" style="fill:#74081d;fill-opacity:0.8;"/>
    <path clip-path="url(#p61b3aa91f5)" d="M 163.529236 152.587153 
L 185.526301 157.38708 
L 197.92293 149.105623 
L 176.061391 144.393197 
z
" style="fill:#a30a29;fill-opacity:0.8;"/>
    <path clip-path="url(#p61b3aa91f5)" d="M 185.500385 160.581221 
L 197.881916 152.28072 
L 197.92293 149.105623 
L 185.526301 157.38708 
z
" style="fill:#5d0618;fill-opacity:0.8;"/>
    <path clip-path="url(#p61b3aa91f5)" d="M 163.530775 155.77028 
L 185.500385 160.581221 
L 185.526301 157.38708 
L 163.529236 152.587153 
z
" style="fill:#ba0c2f;fill-opacity:0.8;"/>
   </g>
   <g id="Poly3DCollection_3">
    <path clip-path="url(#p61b3aa91f5)" d="M 107.273254 154.489866 
L 107.175919 150.153937 
L 128.850269 154.93616 
L 128.911296 159.287098 
z
" style="fill:#5d0618;fill-opacity:0.8;"/>
    <path clip-path="url(#p61b3aa91f5)" d="M 94.020322 162.831497 
L 93.899439 158.469525 
L 107.175919 150.153937 
L 107.273254 154.489866 
z
" style="fill:#ba0c2f;fill-opacity:0.8;"/>
    <path clip-path="url(#p61b3aa91f5)" d="M 94.020322 162.831497 
L 107.273254 154.489866 
L 128.911296 159.287098 
L 115.788822 167.718397 
z
" style="fill:#74081d;fill-opacity:0.8;"/>
    <path clip-path="url(#p61b3aa91f5)" d="M 93.899439 158.469525 
L 115.704682 163.341289 
L 128.850269 154.93616 
L 107.175919 150.153937 
z
" style="fill:#a30a29;fill-opacity:0.8;"/>
    <path clip-path="url(#p61b3aa91f5)" d="M 115.788822 167.718397 
L 128.911296 159.287098 
L 128.850269 154.93616 
L 115.704682 163.341289 
z
" style="fill:#5d0618;fill-opacity:0.8;"/>
    <path clip-path="url(#p61b3aa91f5)" d="M 94.020322 162.831497 
L 115.788822 167.718397 
L 115.704682 163.341289 
L 93.899439 158.469525 
z
" style="fill:#ba0c2f;fill-opacity:0.8;"/>
   </g>
   <g id="Poly3DCollection_4">
    <path clip-path="url(#p61b3aa91f5)" d="M 219.948754 157.054345 
L 220.20927 144.974405 
L 242.619519 149.757072 
L 242.25174 161.879055 
z
" style="fill:#5d0618;fill-opacity:0.8;"/>
    <path clip-path="url(#p61b3aa91f5)" d="M 207.706026 165.44385 
L 207.910637 153.290958 
L 220.20927 144.974405 
L 219.948754 157.054345 
z
" style="fill:#ba0c2f;fill-opacity:0.8;"/>
    <path clip-path="url(#p61b3aa91f5)" d="M 207.706026 165.44385 
L 219.948754 157.054345 
L 242.25174 161.879055 
L 230.151524 170.359002 
z
" style="fill:#74081d;fill-opacity:0.8;"/>
    <path clip-path="url(#p61b3aa91f5)" d="M 207.910637 153.290958 
L 230.464786 158.16371 
L 242.619519 149.757072 
L 220.20927 144.974405 
z
" style="fill:#a30a29;fill-opacity:0.8;"/>
    <path clip-path="url(#p61b3aa91f5)" d="M 230.151524 170.359002 
L 242.25174 161.879055 
L 242.619519 149.757072 
L 230.464786 158.16371 
z
" style="fill:#5d0618;fill-opacity:0.8;"/>
    <path clip-path="url(#p61b3aa91f5)" d="M 207.706026 165.44385 
L 230.151524 170.359002 
L 230.464786 158.16371 
L 207.910637 153.290958 
z
" style="fill:#ba0c2f;fill-opacity:0.8;"/>
   </g>
   <g id="Poly3DCollection_5">
    <path clip-path="url(#p61b3aa91f5)" d="M 150.781474 164.135796 
L 150.777105 163.33873 
L 172.890093 168.236965 
L 172.887543 169.036792 
z
" style="fill:#5d0618;fill-opacity:0.8;"/>
    <path clip-path="url(#p61b3aa91f5)" d="M 137.793048 172.658215 
L 137.784542 171.856359 
L 150.777105 163.33873 
L 150.781474 164.135796 
z
" style="fill:#ba0c2f;fill-opacity:0.8;"/>
    <path clip-path="url(#p61b3aa91f5)" d="M 137.793048 172.658215 
L 150.781474 164.135796 
L 172.887543 169.036792 
L 160.036849 177.651817 
z
" style="fill:#74081d;fill-opacity:0.8;"/>
    <path clip-path="url(#p61b3aa91f5)" d="M 137.784542 171.856359 
L 160.035349 176.847178 
L 172.890093 168.236965 
L 150.777105 163.33873 
z
" style="fill:#a30a29;fill-opacity:0.8;"/>
    <path clip-path="url(#p61b3aa91f5)" d="M 160.036849 177.651817 
L 172.887543 169.036792 
L 172.890093 168.236965 
L 160.035349 176.847178 
z
" style="fill:#5d0618;fill-opacity:0.8;"/>
    <path clip-path="url(#p61b3aa91f5)" d="M 137.793048 172.658215 
L 160.036849 177.651817 
L 160.035349 176.847178 
L 137.784542 171.856359 
z
" style="fill:#ba0c2f;fill-opacity:0.8;"/>
   </g>
   <g id="Poly3DCollection_6">
    <path clip-path="url(#p61b3aa91f5)" d="M 80.519179 171.329356 
L 80.276164 163.990119 
L 102.238419 168.943653 
L 102.419245 176.308461 
z
" style="fill:#5d0618;fill-opacity:0.8;"/>
    <path clip-path="url(#p61b3aa91f5)" d="M 66.762786 179.987874 
L 66.477411 172.60427 
L 80.276164 163.990119 
L 80.519179 171.329356 
z
" style="fill:#ba0c2f;fill-opacity:0.8;"/>
    <path clip-path="url(#p61b3aa91f5)" d="M 66.762786 179.987874 
L 80.519179 171.329356 
L 102.419245 176.308461 
L 88.795518 185.061819 
z
" style="fill:#74081d;fill-opacity:0.8;"/>
    <path clip-path="url(#p61b3aa91f5)" d="M 66.477411 172.60427 
L 88.573081 177.652433 
L 102.238419 168.943653 
L 80.276164 163.990119 
z
" style="fill:#a30a29;fill-opacity:0.8;"/>
    <path clip-path="url(#p61b3aa91f5)" d="M 88.795518 185.061819 
L 102.419245 176.308461 
L 102.238419 168.943653 
L 88.573081 177.652433 
z
" style="fill:#5d0618;fill-opacity:0.8;"/>
    <path clip-path="url(#p61b3aa91f5)" d="M 66.762786 179.987874 
L 88.795518 185.061819 
L 88.573081 177.652433 
L 66.477411 172.60427 
z
" style="fill:#ba0c2f;fill-opacity:0.8;"/>
   </g>
   <g id="Poly3DCollection_7">
    <path clip-path="url(#p61b3aa91f5)" d="M 240.659893 184.062167 
L 241.028974 171.749989 
L 264.232783 176.825709 
L 263.748748 189.18105 
z
" style="fill:#5d0618;fill-opacity:0.8;"/>
    <path clip-path="url(#p61b3aa91f5)" d="M 228.245479 192.964252 
L 228.557159 180.577186 
L 241.028974 171.749989 
L 240.659893 184.062167 
z
" style="fill:#ba0c2f;fill-opacity:0.8;"/>
    <path clip-path="url(#p61b3aa91f5)" d="M 228.245479 192.964252 
L 240.659893 184.062167 
L 263.748748 189.18105 
L 251.487799 198.182015 
z
" style="fill:#74081d;fill-opacity:0.8;"/>
    <path clip-path="url(#p61b3aa91f5)" d="M 228.557159 180.577186 
L 251.915983 185.751438 
L 264.232783 176.825709 
L 241.028974 171.749989 
z
" style="fill:#a30a29;fill-opacity:0.8;"/>
    <path clip-path="url(#p61b3aa91f5)" d="M 251.487799 198.182015 
L 263.748748 189.18105 
L 264.232783 176.825709 
L 251.915983 185.751438 
z
" style="fill:#5d0618;fill-opacity:0.8;"/>
    <path clip-path="url(#p61b3aa91f5)" d="M 228.245479 192.964252 
L 251.487799 198.182015 
L 251.915983 185.751438 
L 228.557159 180.577186 
z
" style="fill:#ba0c2f;fill-opacity:0.8;"/>
   </g>
   <g id="Poly3DCollection_8">
    <path clip-path="url(#p61b3aa91f5)" d="M 252.840786 175.327535 
L 264.794685 166.755674 
L 287.581483 171.685045 
L 275.777804 180.350321 
z
" style="fill:#74081d;fill-opacity:0.8;"/>
    <path clip-path="url(#p61b3aa91f5)" d="M 264.794685 166.755674 
L 267.347186 101.710315 
L 290.73285 106.40534 
L 287.581483 171.685045 
z
" style="fill:#5d0618;fill-opacity:0.8;"/>
    <path clip-path="url(#p61b3aa91f5)" d="M 252.840786 175.327535 
L 255.109925 109.875495 
L 267.347186 101.710315 
L 264.794685 166.755674 
z
" style="fill:#ba0c2f;fill-opacity:0.8;"/>
    <path clip-path="url(#p61b3aa91f5)" d="M 275.777804 180.350321 
L 287.581483 171.685045 
L 290.73285 106.40534 
L 278.653925 114.661804 
z
" style="fill:#5d0618;fill-opacity:0.8;"/>
    <path clip-path="url(#p61b3aa91f5)" d="M 252.840786 175.327535 
L 275.777804 180.350321 
L 278.653925 114.661804 
L 255.109925 109.875495 
z
" style="fill:#ba0c2f;fill-opacity:0.8;"/>
    <path clip-path="url(#p61b3aa91f5)" d="M 255.109925 109.875495 
L 278.653925 114.661804 
L 290.73285 106.40534 
L 267.347186 101.710315 
z
" style="fill:#a30a29;fill-opacity:0.8;"/>
   </g>
   <g id="Poly3DCollection_9">
    <path clip-path="url(#p61b3aa91f5)" d="M 169.571688 191.575952 
L 169.573234 190.763642 
L 192.462326 195.96309 
L 192.453367 196.778233 
z
" style="fill:#5d0618;fill-opacity:0.8;"/>
    <path clip-path="url(#p61b3aa91f5)" d="M 156.368875 200.623369 
L 156.366146 199.806146 
L 169.573234 190.763642 
L 169.571688 191.575952 
z
" style="fill:#ba0c2f;fill-opacity:0.8;"/>
    <path clip-path="url(#p61b3aa91f5)" d="M 156.368875 200.623369 
L 169.571688 191.575952 
L 192.453367 196.778233 
L 179.398843 205.926968 
z
" style="fill:#74081d;fill-opacity:0.8;"/>
    <path clip-path="url(#p61b3aa91f5)" d="M 156.366146 199.806146 
L 179.403624 205.106891 
L 192.462326 195.96309 
L 169.573234 190.763642 
z
" style="fill:#a30a29;fill-opacity:0.8;"/>
    <path clip-path="url(#p61b3aa91f5)" d="M 179.398843 205.926968 
L 192.453367 196.778233 
L 192.462326 195.96309 
L 179.403624 205.106891 
z
" style="fill:#5d0618;fill-opacity:0.8;"/>
    <path clip-path="url(#p61b3aa91f5)" d="M 156.368875 200.623369 
L 179.398843 205.926968 
L 179.403624 205.106891 
L 156.366146 199.806146 
z
" style="fill:#ba0c2f;fill-opacity:0.8;"/>
   </g>
   <g id="Poly3DCollection_10">
    <path clip-path="url(#p61b3aa91f5)" d="M 111.071397 190.191758 
L 124.558706 181.341994 
L 146.941509 186.430852 
L 133.59447 195.378624 
z
" style="fill:#74081d;fill-opacity:0.8;"/>
    <path clip-path="url(#p61b3aa91f5)" d="M 124.558706 181.341994 
L 123.869953 137.930702 
L 146.634443 142.864531 
L 146.941509 186.430852 
z
" style="fill:#5d0618;fill-opacity:0.8;"/>
    <path clip-path="url(#p61b3aa91f5)" d="M 111.071397 190.191758 
L 110.142678 146.51146 
L 123.869953 137.930702 
L 124.558706 181.341994 
z
" style="fill:#ba0c2f;fill-opacity:0.8;"/>
    <path clip-path="url(#p61b3aa91f5)" d="M 133.59447 195.378624 
L 146.941509 186.430852 
L 146.634443 142.864531 
L 133.052255 151.541967 
z
" style="fill:#5d0618;fill-opacity:0.8;"/>
    <path clip-path="url(#p61b3aa91f5)" d="M 111.071397 190.191758 
L 133.59447 195.378624 
L 133.052255 151.541967 
L 110.142678 146.51146 
z
" style="fill:#ba0c2f;fill-opacity:0.8;"/>
    <path clip-path="url(#p61b3aa91f5)" d="M 110.142678 146.51146 
L 133.052255 151.541967 
L 146.634443 142.864531 
L 123.869953 137.930702 
z
" style="fill:#a30a29;fill-opacity:0.8;"/>
   </g>
   <g id="Poly3DCollection_11">
    <path clip-path="url(#p61b3aa91f5)" d="M 182.524159 182.700086 
L 195.233342 173.990936 
L 217.822789 178.999098 
L 205.258999 187.803923 
z
" style="fill:#74081d;fill-opacity:0.8;"/>
    <path clip-path="url(#p61b3aa91f5)" d="M 195.233342 173.990936 
L 196.059932 105.027073 
L 219.270353 109.785645 
L 217.822789 178.999098 
z
" style="fill:#5d0618;fill-opacity:0.8;"/>
    <path clip-path="url(#p61b3aa91f5)" d="M 182.524159 182.700086 
L 183.010608 113.303093 
L 196.059932 105.027073 
L 195.233342 173.990936 
z
" style="fill:#ba0c2f;fill-opacity:0.8;"/>
    <path clip-path="url(#p61b3aa91f5)" d="M 205.258999 187.803923 
L 217.822789 178.999098 
L 219.270353 109.785645 
L 206.374586 118.155082 
z
" style="fill:#5d0618;fill-opacity:0.8;"/>
    <path clip-path="url(#p61b3aa91f5)" d="M 182.524159 182.700086 
L 205.258999 187.803923 
L 206.374586 118.155082 
L 183.010608 113.303093 
z
" style="fill:#ba0c2f;fill-opacity:0.8;"/>
    <path clip-path="url(#p61b3aa91f5)" d="M 183.010608 113.303093 
L 206.374586 118.155082 
L 219.270353 109.785645 
L 196.059932 105.027073 
z
" style="fill:#a30a29;fill-opacity:0.8;"/>
   </g>
   <g id="Poly3DCollection_12">
    <path clip-path="url(#p61b3aa91f5)" d="M 97.323798 199.212313 
L 97.123315 191.73188 
L 119.854546 196.993385 
L 119.988405 204.500045 
z
" style="fill:#5d0618;fill-opacity:0.8;"/>
    <path clip-path="url(#p61b3aa91f5)" d="M 83.308301 208.40865 
L 83.06379 200.882716 
L 97.123315 191.73188 
L 97.323798 199.212313 
z
" style="fill:#ba0c2f;fill-opacity:0.8;"/>
    <path clip-path="url(#p61b3aa91f5)" d="M 83.308301 208.40865 
L 97.323798 199.212313 
L 119.988405 204.500045 
L 106.1157 213.80022 
z
" style="fill:#74081d;fill-opacity:0.8;"/>
    <path clip-path="url(#p61b3aa91f5)" d="M 83.06379 200.882716 
L 105.938649 206.247858 
L 119.854546 196.993385 
L 97.123315 191.73188 
z
" style="fill:#a30a29;fill-opacity:0.8;"/>
    <path clip-path="url(#p61b3aa91f5)" d="M 106.1157 213.80022 
L 119.988405 204.500045 
L 119.854546 196.993385 
L 105.938649 206.247858 
z
" style="fill:#5d0618;fill-opacity:0.8;"/>
    <path clip-path="url(#p61b3aa91f5)" d="M 83.308301 208.40865 
L 106.1157 213.80022 
L 105.938649 206.247858 
L 83.06379 200.882716 
z
" style="fill:#ba0c2f;fill-opacity:0.8;"/>
   </g>
   <g id="Poly3DCollection_13">
    <path clip-path="url(#p61b3aa91f5)" d="M 215.590763 202.038651 
L 215.657208 198.752234 
L 239.085766 204.060274 
L 238.988184 207.358189 
z
" style="fill:#5d0618;fill-opacity:0.8;"/>
    <path clip-path="url(#p61b3aa91f5)" d="M 202.688699 211.290418 
L 202.738762 207.984054 
L 215.657208 198.752234 
L 215.590763 202.038651 
z
" style="fill:#ba0c2f;fill-opacity:0.8;"/>
    <path clip-path="url(#p61b3aa91f5)" d="M 202.688699 211.290418 
L 215.590763 202.038651 
L 238.988184 207.358189 
L 226.242868 216.714736 
z
" style="fill:#74081d;fill-opacity:0.8;"/>
    <path clip-path="url(#p61b3aa91f5)" d="M 202.738762 207.984054 
L 226.324488 213.396788 
L 239.085766 204.060274 
L 215.657208 198.752234 
z
" style="fill:#a30a29;fill-opacity:0.8;"/>
    <path clip-path="url(#p61b3aa91f5)" d="M 226.242868 216.714736 
L 238.988184 207.358189 
L 239.085766 204.060274 
L 226.324488 213.396788 
z
" style="fill:#5d0618;fill-opacity:0.8;"/>
    <path clip-path="url(#p61b3aa91f5)" d="M 202.688699 211.290418 
L 226.242868 216.714736 
L 226.324488 213.396788 
L 202.738762 207.984054 
z
" style="fill:#ba0c2f;fill-opacity:0.8;"/>
   </g>
   <g id="Poly3DCollection_14">
    <path clip-path="url(#p61b3aa91f5)" d="M 142.908392 209.847359 
L 142.869102 205.343489 
L 166.090484 210.735607 
L 166.088099 215.255266 
z
" style="fill:#5d0618;fill-opacity:0.8;"/>
    <path clip-path="url(#p61b3aa91f5)" d="M 129.182621 219.25314 
L 129.11803 214.72188 
L 142.869102 205.343489 
L 142.908392 209.847359 
z
" style="fill:#ba0c2f;fill-opacity:0.8;"/>
    <path clip-path="url(#p61b3aa91f5)" d="M 129.182621 219.25314 
L 142.908392 209.847359 
L 166.088099 215.255266 
L 152.513517 224.768463 
z
" style="fill:#74081d;fill-opacity:0.8;"/>
    <path clip-path="url(#p61b3aa91f5)" d="M 129.11803 214.72188 
L 152.491146 220.221296 
L 166.090484 210.735607 
L 142.869102 205.343489 
z
" style="fill:#a30a29;fill-opacity:0.8;"/>
    <path clip-path="url(#p61b3aa91f5)" d="M 152.513517 224.768463 
L 166.088099 215.255266 
L 166.090484 210.735607 
L 152.491146 220.221296 
z
" style="fill:#5d0618;fill-opacity:0.8;"/>
    <path clip-path="url(#p61b3aa91f5)" d="M 129.182621 219.25314 
L 152.513517 224.768463 
L 152.491146 220.221296 
L 129.11803 214.72188 
z
" style="fill:#ba0c2f;fill-opacity:0.8;"/>
   </g>
   <g id="Poly3DCollection_15">
    <path clip-path="url(#p61b3aa91f5)" d="M 189.531966 220.724802 
L 189.567198 217.175056 
L 213.313899 222.694825 
L 213.244534 226.257028 
z
" style="fill:#5d0618;fill-opacity:0.8;"/>
    <path clip-path="url(#p61b3aa91f5)" d="M 176.112946 230.347266 
L 176.129247 226.775912 
L 189.567198 217.175056 
L 189.531966 220.724802 
z
" style="fill:#ba0c2f;fill-opacity:0.8;"/>
    <path clip-path="url(#p61b3aa91f5)" d="M 176.112946 230.347266 
L 189.531966 220.724802 
L 213.244534 226.257028 
L 199.985571 235.990651 
z
" style="fill:#74081d;fill-opacity:0.8;"/>
    <path clip-path="url(#p61b3aa91f5)" d="M 176.129247 226.775912 
L 200.03647 232.406752 
L 213.313899 222.694825 
L 189.567198 217.175056 
z
" style="fill:#a30a29;fill-opacity:0.8;"/>
    <path clip-path="url(#p61b3aa91f5)" d="M 199.985571 235.990651 
L 213.244534 226.257028 
L 213.313899 222.694825 
L 200.03647 232.406752 
z
" style="fill:#5d0618;fill-opacity:0.8;"/>
    <path clip-path="url(#p61b3aa91f5)" d="M 176.112946 230.347266 
L 199.985571 235.990651 
L 200.03647 232.406752 
L 176.129247 226.775912 
z
" style="fill:#ba0c2f;fill-opacity:0.8;"/>
   </g>
   <g id="Poly3DCollection_16">
    <path clip-path="url(#p61b3aa91f5)" d="M 38.454739 197.805462 
L 52.743836 188.811651 
L 74.910325 193.983171 
L 60.756066 203.077399 
z
" style="fill:#74081d;fill-opacity:0.8;"/>
    <path clip-path="url(#p61b3aa91f5)" d="M 52.743836 188.811651 
L 46.933544 57.750519 
L 70.222556 62.427839 
L 74.910325 193.983171 
z
" style="fill:#5d0618;fill-opacity:0.8;"/>
    <path clip-path="url(#p61b3aa91f5)" d="M 38.454739 197.805462 
L 31.836896 65.886594 
L 46.933544 57.750519 
L 52.743836 188.811651 
z
" style="fill:#ba0c2f;fill-opacity:0.8;"/>
    <path clip-path="url(#p61b3aa91f5)" d="M 60.756066 203.077399 
L 74.910325 193.983171 
L 70.222556 62.427839 
L 55.274545 70.659531 
z
" style="fill:#5d0618;fill-opacity:0.8;"/>
    <path clip-path="url(#p61b3aa91f5)" d="M 38.454739 197.805462 
L 60.756066 203.077399 
L 55.274545 70.659531 
L 31.836896 65.886594 
z
" style="fill:#ba0c2f;fill-opacity:0.8;"/>
    <path clip-path="url(#p61b3aa91f5)" d="M 31.836896 65.886594 
L 55.274545 70.659531 
L 70.222556 62.427839 
L 46.933544 57.750519 
z
" style="fill:#a30a29;fill-opacity:0.8;"/>
   </g>
  </g>
  <g id="patch_6">
   <path d="M 425.945455 262.8 
L 806.4 262.8 
L 806.4 -14.4 
L 425.945455 -14.4 
z
" style="fill:#ffffff;"/>
  </g>
  <g id="pane3d_4">
   <g id="patch_7">
    <path d="M 476.380584 201.548569 
L 585.268665 133.58541 
L 583.455794 3.718968 
L 468.496488 64.782468 
" style="fill:#f2f2f2;opacity:0.5;stroke:#f2f2f2;stroke-linejoin:miter;"/>
   </g>
  </g>
  <g id="pane3d_5">
   <g id="patch_8">
    <path d="M 585.268665 133.58541 
L 761.65712 171.581202 
L 769.037001 37.79869 
L 583.455794 3.718968 
" style="fill:#e6e6e6;opacity:0.5;stroke:#e6e6e6;stroke-linejoin:miter;"/>
   </g>
  </g>
  <g id="pane3d_6">
   <g id="patch_9">
    <path d="M 476.380584 201.548569 
L 661.965072 245.80086 
L 761.65712 171.581202 
L 585.268665 133.58541 
" style="fill:#ececec;opacity:0.5;stroke:#ececec;stroke-linejoin:miter;"/>
   </g>
  </g>
  <g id="axis3d_4">
   <g id="line2d_16">
    <path d="M 476.380584 201.548569 
L 661.965072 245.80086 
" style="fill:none;stroke:#000000;stroke-linecap:square;stroke-width:0.8;"/>
   </g>
   <g id="Line3DCollection_4">
    <path d="M 498.841271 206.90428 
L 606.679397 138.19749 
L 605.9393 7.847789 
" style="fill:none;stroke:#b0b0b0;stroke-width:0.8;"/>
    <path d="M 544.057792 217.686079 
L 649.729469 147.470895 
L 651.182353 16.156123 
" style="fill:none;stroke:#b0b0b0;stroke-width:0.8;"/>
    <path d="M 590.310744 228.715013 
L 693.693551 156.941187 
L 697.435637 24.649974 
" style="fill:none;stroke:#b0b0b0;stroke-width:0.8;"/>
    <path d="M 637.636176 239.999678 
L 738.601063 166.614702 
L 744.733372 33.335625 
" style="fill:none;stroke:#b0b0b0;stroke-width:0.8;"/>
   </g>
   <g id="xtick_13">
    <g id="line2d_17">
     <path d="M 499.770538 206.312217 
L 496.979262 208.09062 
" style="fill:none;stroke:#000000;stroke-linecap:square;stroke-width:0.8;"/>
    </g>
    <g id="text_13">
     <!-- 00 -->
     <g transform="translate(475.786746 243.348593)rotate(-45)scale(0.2 -0.2)">
      <use transform="scale(0.996264)" xlink:href="#CMR17-48"/>
      <use transform="translate(45.690477 0)scale(0.996264)" xlink:href="#CMR17-48"/>
     </g>
    </g>
   </g>
   <g id="xtick_14">
    <g id="line2d_18">
     <path d="M 544.969128 217.080527 
L 542.231671 218.899473 
" style="fill:none;stroke:#000000;stroke-linecap:square;stroke-width:0.8;"/>
    </g>
    <g id="text_14">
     <!-- 01 -->
     <g transform="translate(520.999172 254.305345)rotate(-45)scale(0.2 -0.2)">
      <use transform="scale(0.996264)" xlink:href="#CMR17-48"/>
      <use transform="translate(45.690477 0)scale(0.996264)" xlink:href="#CMR17-49"/>
     </g>
    </g>
   </g>
   <g id="xtick_15">
    <g id="line2d_19">
     <path d="M 591.20308 228.095506 
L 588.522658 229.956397 
" style="fill:none;stroke:#000000;stroke-linecap:square;stroke-width:0.8;"/>
    </g>
    <g id="text_15">
     <!-- 10 -->
     <g transform="translate(567.249784 265.513691)rotate(-45)scale(0.2 -0.2)">
      <use transform="scale(0.996264)" xlink:href="#CMR17-49"/>
      <use transform="translate(45.690477 0)scale(0.996264)" xlink:href="#CMR17-48"/>
     </g>
    </g>
   </g>
   <g id="xtick_16">
    <g id="line2d_20">
     <path d="M 638.50838 239.365727 
L 635.888391 241.270032 
" style="fill:none;stroke:#000000;stroke-linecap:square;stroke-width:0.8;"/>
    </g>
    <g id="text_16">
     <!-- 11 -->
     <g transform="translate(614.574759 276.982396)rotate(-45)scale(0.2 -0.2)">
      <use transform="scale(0.996264)" xlink:href="#CMR17-49"/>
      <use transform="translate(45.690477 0)scale(0.996264)" xlink:href="#CMR17-49"/>
     </g>
    </g>
   </g>
  </g>
  <g id="axis3d_5">
   <g id="line2d_21">
    <path d="M 761.65712 171.581202 
L 661.965072 245.80086 
" style="fill:none;stroke:#000000;stroke-linecap:square;stroke-width:0.8;"/>
   </g>
   <g id="Line3DCollection_5">
    <path d="M 484.000685 56.547028 
L 491.016499 192.413474 
L 675.403872 235.795817 
" style="fill:none;stroke:#b0b0b0;stroke-width:0.8;"/>
    <path d="M 513.777478 40.730342 
L 519.168861 174.842005 
L 701.219492 216.576366 
" style="fill:none;stroke:#b0b0b0;stroke-width:0.8;"/>
    <path d="M 542.401344 25.526062 
L 546.284836 157.917404 
L 726.04244 198.095948 
" style="fill:none;stroke:#b0b0b0;stroke-width:0.8;"/>
    <path d="M 569.937971 10.899296 
L 572.420618 141.604597 
L 749.928893 180.312741 
" style="fill:none;stroke:#b0b0b0;stroke-width:0.8;"/>
   </g>
   <g id="xtick_17">
    <g id="line2d_22">
     <path d="M 673.861052 235.432825 
L 678.492943 236.522608 
" style="fill:none;stroke:#000000;stroke-linecap:square;stroke-width:0.8;"/>
    </g>
    <g id="text_17">
     <!-- 00 -->
     <g transform="translate(689.641116 248.844567)rotate(-337.5)scale(0.2 -0.2)">
      <use transform="scale(0.996264)" xlink:href="#CMR17-48"/>
      <use transform="translate(45.690477 0)scale(0.996264)" xlink:href="#CMR17-48"/>
     </g>
    </g>
   </g>
   <g id="xtick_18">
    <g id="line2d_23">
     <path d="M 699.697534 216.227463 
L 704.266725 217.274932 
" style="fill:none;stroke:#000000;stroke-linecap:square;stroke-width:0.8;"/>
    </g>
    <g id="text_18">
     <!-- 01 -->
     <g transform="translate(715.194668 229.400141)rotate(-337.5)scale(0.2 -0.2)">
      <use transform="scale(0.996264)" xlink:href="#CMR17-48"/>
      <use transform="translate(45.690477 0)scale(0.996264)" xlink:href="#CMR17-49"/>
     </g>
    </g>
   </g>
   <g id="xtick_19">
    <g id="line2d_24">
     <path d="M 724.540896 197.76033 
L 729.048738 198.767901 
" style="fill:none;stroke:#000000;stroke-linecap:square;stroke-width:0.8;"/>
    </g>
    <g id="text_19">
     <!-- 10 -->
     <g transform="translate(739.766079 210.703053)rotate(-337.5)scale(0.2 -0.2)">
      <use transform="scale(0.996264)" xlink:href="#CMR17-49"/>
      <use transform="translate(45.690477 0)scale(0.996264)" xlink:href="#CMR17-48"/>
     </g>
    </g>
   </g>
   <g id="xtick_20">
    <g id="line2d_25">
     <path d="M 748.44732 179.989663 
L 752.895146 180.959573 
" style="fill:none;stroke:#000000;stroke-linecap:square;stroke-width:0.8;"/>
    </g>
    <g id="text_20">
     <!-- 11 -->
     <g transform="translate(763.410906 192.711031)rotate(-337.5)scale(0.2 -0.2)">
      <use transform="scale(0.996264)" xlink:href="#CMR17-49"/>
      <use transform="translate(45.690477 0)scale(0.996264)" xlink:href="#CMR17-49"/>
     </g>
    </g>
   </g>
  </g>
  <g id="axis3d_6">
   <g id="line2d_26">
    <path d="M 761.65712 171.581202 
L 769.037001 37.79869 
" style="fill:none;stroke:#000000;stroke-linecap:square;stroke-width:0.8;"/>
   </g>
   <g id="Line3DCollection_6">
    <path d="M 762.180182 162.099129 
L 585.139914 124.362249 
L 475.822677 191.870521 
" style="fill:none;stroke:#b0b0b0;stroke-width:0.8;"/>
    <path d="M 763.736051 133.894324 
L 584.757175 96.94443 
L 474.162359 163.068828 
" style="fill:none;stroke:#b0b0b0;stroke-width:0.8;"/>
    <path d="M 765.326674 105.059517 
L 584.36625 68.940221 
L 472.463708 133.602187 
" style="fill:none;stroke:#b0b0b0;stroke-width:0.8;"/>
    <path d="M 766.953227 75.573359 
L 583.966874 40.330604 
L 470.725383 103.447303 
" style="fill:none;stroke:#b0b0b0;stroke-width:0.8;"/>
    <path d="M 768.616942 45.413528 
L 583.55877 11.095734 
L 468.945977 72.579779 
" style="fill:none;stroke:#b0b0b0;stroke-width:0.8;"/>
   </g>
   <g id="xtick_21">
    <g id="line2d_27">
     <path d="M 760.702868 161.784233 
L 765.137891 162.729577 
" style="fill:none;stroke:#000000;stroke-linecap:square;stroke-width:0.8;"/>
    </g>
    <g id="text_21">
     <!-- $0.0$ -->
     <g transform="translate(768.909702 174.004718)scale(0.2 -0.2)">
      <use transform="scale(0.996264)" xlink:href="#CMR17-48"/>
      <use transform="translate(45.690477 0)scale(0.996264)" xlink:href="#CMMI12-58"/>
      <use transform="translate(72.787654 0)scale(0.996264)" xlink:href="#CMR17-48"/>
     </g>
    </g>
   </g>
   <g id="xtick_22">
    <g id="line2d_28">
     <path d="M 762.24188 133.585855 
L 766.727545 134.511913 
" style="fill:none;stroke:#000000;stroke-linecap:square;stroke-width:0.8;"/>
    </g>
    <g id="text_22">
     <!-- $0.1$ -->
     <g transform="translate(770.666966 145.839367)scale(0.2 -0.2)">
      <use transform="scale(0.996264)" xlink:href="#CMR17-48"/>
      <use transform="translate(45.690477 0)scale(0.996264)" xlink:href="#CMMI12-58"/>
      <use transform="translate(72.787654 0)scale(0.996264)" xlink:href="#CMR17-49"/>
     </g>
    </g>
   </g>
   <g id="xtick_23">
    <g id="line2d_29">
     <path d="M 763.815256 104.757841 
L 768.352732 105.663511 
" style="fill:none;stroke:#000000;stroke-linecap:square;stroke-width:0.8;"/>
    </g>
    <g id="text_23">
     <!-- $0.2$ -->
     <g transform="translate(772.463396 117.046265)scale(0.2 -0.2)">
      <use transform="scale(0.996264)" xlink:href="#CMR17-48"/>
      <use transform="translate(45.690477 0)scale(0.996264)" xlink:href="#CMMI12-58"/>
      <use transform="translate(72.787654 0)scale(0.996264)" xlink:href="#CMR17-50"/>
     </g>
    </g>
   </g>
   <g id="xtick_24">
    <g id="line2d_30">
     <path d="M 765.424161 75.278864 
L 770.014657 76.162983 
" style="fill:none;stroke:#000000;stroke-linecap:square;stroke-width:0.8;"/>
    </g>
    <g id="text_24">
     <!-- $0.3$ -->
     <g transform="translate(774.300316 87.604186)scale(0.2 -0.2)">
      <use transform="scale(0.996264)" xlink:href="#CMR17-48"/>
      <use transform="translate(45.690477 0)scale(0.996264)" xlink:href="#CMMI12-58"/>
      <use transform="translate(72.787654 0)scale(0.996264)" xlink:href="#CMR17-51"/>
     </g>
    </g>
   </g>
   <g id="xtick_25">
    <g id="line2d_31">
     <path d="M 767.069811 45.126623 
L 771.714579 45.987964 
" style="fill:none;stroke:#000000;stroke-linecap:square;stroke-width:0.8;"/>
    </g>
    <g id="text_25">
     <!-- $0.4$ -->
     <g transform="translate(776.179111 57.49094)scale(0.2 -0.2)">
      <use transform="scale(0.996264)" xlink:href="#CMR17-48"/>
      <use transform="translate(45.690477 0)scale(0.996264)" xlink:href="#CMMI12-58"/>
      <use transform="translate(72.787654 0)scale(0.996264)" xlink:href="#CMR17-52"/>
     </g>
    </g>
   </g>
  </g>
  <g id="axes_2">
   <g id="Poly3DCollection_17">
    <path clip-path="url(#p37536f3df0)" d="M 589.513793 130.695874 
L 589.489999 128.761671 
L 610.949044 133.354014 
L 610.956834 135.294928 
z
" style="fill:#065d4c;fill-opacity:0.8;"/>
    <path clip-path="url(#p37536f3df0)" d="M 576.6985 138.692426 
L 576.664812 136.746577 
L 589.489999 128.761671 
L 589.513793 130.695874 
z
" style="fill:#0cba97;fill-opacity:0.8;"/>
    <path clip-path="url(#p37536f3df0)" d="M 576.6985 138.692426 
L 589.513793 130.695874 
L 610.956834 135.294928 
L 598.270521 143.376117 
z
" style="fill:#08745e;fill-opacity:0.8;"/>
    <path clip-path="url(#p37536f3df0)" d="M 576.664812 136.746577 
L 598.253029 141.423498 
L 610.949044 133.354014 
L 589.489999 128.761671 
z
" style="fill:#0aa384;fill-opacity:0.8;"/>
    <path clip-path="url(#p37536f3df0)" d="M 598.270521 143.376117 
L 610.956834 135.294928 
L 610.949044 133.354014 
L 598.253029 141.423498 
z
" style="fill:#065d4c;fill-opacity:0.8;"/>
    <path clip-path="url(#p37536f3df0)" d="M 576.6985 138.692426 
L 598.270521 143.376117 
L 598.253029 141.423498 
L 576.664812 136.746577 
z
" style="fill:#0cba97;fill-opacity:0.8;"/>
   </g>
   <g id="Poly3DCollection_18">
    <path clip-path="url(#p37536f3df0)" d="M 632.626392 139.942564 
L 632.635485 137.872154 
L 654.552913 142.56194 
L 654.526075 144.639558 
z
" style="fill:#065d4c;fill-opacity:0.8;"/>
    <path clip-path="url(#p37536f3df0)" d="M 620.072526 148.109742 
L 620.071518 146.026825 
L 632.635485 137.872154 
L 632.626392 139.942564 
z
" style="fill:#0cba97;fill-opacity:0.8;"/>
    <path clip-path="url(#p37536f3df0)" d="M 620.072526 148.109742 
L 632.626392 139.942564 
L 654.526075 144.639558 
L 642.108211 152.894103 
z
" style="fill:#08745e;fill-opacity:0.8;"/>
    <path clip-path="url(#p37536f3df0)" d="M 620.071518 146.026825 
L 642.12517 150.803916 
L 654.552913 142.56194 
L 632.635485 137.872154 
z
" style="fill:#0aa384;fill-opacity:0.8;"/>
    <path clip-path="url(#p37536f3df0)" d="M 642.108211 152.894103 
L 654.526075 144.639558 
L 654.552913 142.56194 
L 642.12517 150.803916 
z
" style="fill:#065d4c;fill-opacity:0.8;"/>
    <path clip-path="url(#p37536f3df0)" d="M 620.072526 148.109742 
L 642.108211 152.894103 
L 642.12517 150.803916 
L 620.071518 146.026825 
z
" style="fill:#0cba97;fill-opacity:0.8;"/>
   </g>
   <g id="Poly3DCollection_19">
    <path clip-path="url(#p37536f3df0)" d="M 563.646902 146.836428 
L 563.492037 139.93772 
L 585.251927 144.684269 
L 585.349029 151.607115 
z
" style="fill:#065d4c;fill-opacity:0.8;"/>
    <path clip-path="url(#p37536f3df0)" d="M 550.3524 155.131999 
L 550.160056 148.191406 
L 563.492037 139.93772 
L 563.646902 146.836428 
z
" style="fill:#0cba97;fill-opacity:0.8;"/>
    <path clip-path="url(#p37536f3df0)" d="M 550.3524 155.131999 
L 563.646902 146.836428 
L 585.349029 151.607115 
L 572.185756 159.992128 
z
" style="fill:#08745e;fill-opacity:0.8;"/>
    <path clip-path="url(#p37536f3df0)" d="M 550.160056 148.191406 
L 572.051871 153.027188 
L 585.251927 144.684269 
L 563.492037 139.93772 
z
" style="fill:#0aa384;fill-opacity:0.8;"/>
    <path clip-path="url(#p37536f3df0)" d="M 572.185756 159.992128 
L 585.349029 151.607115 
L 585.251927 144.684269 
L 572.051871 153.027188 
z
" style="fill:#065d4c;fill-opacity:0.8;"/>
    <path clip-path="url(#p37536f3df0)" d="M 550.3524 155.131999 
L 572.185756 159.992128 
L 572.051871 153.027188 
L 550.160056 148.191406 
z
" style="fill:#0cba97;fill-opacity:0.8;"/>
   </g>
   <g id="Poly3DCollection_20">
    <path clip-path="url(#p37536f3df0)" d="M 676.659569 149.386698 
L 676.786279 143.511236 
L 699.209522 148.28877 
L 699.030637 154.184792 
z
" style="fill:#065d4c;fill-opacity:0.8;"/>
    <path clip-path="url(#p37536f3df0)" d="M 664.381354 157.730021 
L 664.480876 151.818881 
L 676.786279 143.511236 
L 676.659569 149.386698 
z
" style="fill:#0cba97;fill-opacity:0.8;"/>
    <path clip-path="url(#p37536f3df0)" d="M 664.381354 157.730021 
L 676.659569 149.386698 
L 699.030637 154.184792 
L 686.895814 162.618333 
z
" style="fill:#08745e;fill-opacity:0.8;"/>
    <path clip-path="url(#p37536f3df0)" d="M 664.480876 151.818881 
L 687.048187 156.686455 
L 699.209522 148.28877 
L 676.786279 143.511236 
z
" style="fill:#0aa384;fill-opacity:0.8;"/>
    <path clip-path="url(#p37536f3df0)" d="M 686.895814 162.618333 
L 699.030637 154.184792 
L 699.209522 148.28877 
L 687.048187 156.686455 
z
" style="fill:#065d4c;fill-opacity:0.8;"/>
    <path clip-path="url(#p37536f3df0)" d="M 664.381354 157.730021 
L 686.895814 162.618333 
L 687.048187 156.686455 
L 664.480876 151.818881 
z
" style="fill:#0cba97;fill-opacity:0.8;"/>
   </g>
   <g id="Poly3DCollection_21">
    <path clip-path="url(#p37536f3df0)" d="M 607.284683 156.429137 
L 607.289227 157.2581 
L 629.455001 162.135185 
L 629.457653 161.303327 
z
" style="fill:#0cba97;fill-opacity:0.8;"/>
    <path clip-path="url(#p37536f3df0)" d="M 594.256261 164.905046 
L 594.265107 165.739033 
L 607.289227 157.2581 
L 607.284683 156.429137 
z
" style="fill:#065d4c;fill-opacity:0.8;"/>
    <path clip-path="url(#p37536f3df0)" d="M 594.265107 165.739033 
L 616.569359 170.708525 
L 629.455001 162.135185 
L 607.289227 157.2581 
z
" style="fill:#0aa384;fill-opacity:0.8;"/>
    <path clip-path="url(#p37536f3df0)" d="M 594.256261 164.905046 
L 607.284683 156.429137 
L 629.457653 161.303327 
L 616.567799 169.871619 
z
" style="fill:#08745e;fill-opacity:0.8;"/>
    <path clip-path="url(#p37536f3df0)" d="M 616.567799 169.871619 
L 629.457653 161.303327 
L 629.455001 162.135185 
L 616.569359 170.708525 
z
" style="fill:#0cba97;fill-opacity:0.8;"/>
    <path clip-path="url(#p37536f3df0)" d="M 594.256261 164.905046 
L 616.567799 169.871619 
L 616.569359 170.708525 
L 594.265107 165.739033 
z
" style="fill:#065d4c;fill-opacity:0.8;"/>
   </g>
   <g id="Poly3DCollection_22">
    <path clip-path="url(#p37536f3df0)" d="M 721.643126 159.034667 
L 721.643126 159.034667 
L 744.500966 163.937163 
L 744.500966 163.937163 
z
" style="fill:#065d4c;fill-opacity:0.8;"/>
    <path clip-path="url(#p37536f3df0)" d="M 709.655535 167.559897 
L 709.655535 167.559897 
L 721.643126 159.034667 
L 721.643126 159.034667 
z
" style="fill:#065d4c;fill-opacity:0.8;"/>
    <path clip-path="url(#p37536f3df0)" d="M 709.655535 167.559897 
L 721.643126 159.034667 
L 744.500966 163.937163 
L 732.664545 172.555585 
z
" style="fill:#08745e;fill-opacity:0.8;"/>
    <path clip-path="url(#p37536f3df0)" d="M 709.655535 167.559897 
L 732.664545 172.555585 
L 744.500966 163.937163 
L 721.643126 159.034667 
z
" style="fill:#0aa384;fill-opacity:0.8;"/>
    <path clip-path="url(#p37536f3df0)" d="M 732.664545 172.555585 
L 744.500966 163.937163 
L 744.500966 163.937163 
L 732.664545 172.555585 
z
" style="fill:#065d4c;fill-opacity:0.8;"/>
    <path clip-path="url(#p37536f3df0)" d="M 709.655535 167.559897 
L 732.664545 172.555585 
L 732.664545 172.555585 
L 709.655535 167.559897 
z
" style="fill:#065d4c;fill-opacity:0.8;"/>
   </g>
   <g id="Poly3DCollection_23">
    <path clip-path="url(#p37536f3df0)" d="M 536.808151 163.583408 
L 536.650555 158.823898 
L 558.656584 163.759293 
L 558.773853 168.535518 
z
" style="fill:#065d4c;fill-opacity:0.8;"/>
    <path clip-path="url(#p37536f3df0)" d="M 523.007051 172.195088 
L 522.821975 167.406576 
L 536.650555 158.823898 
L 536.808151 163.583408 
z
" style="fill:#0cba97;fill-opacity:0.8;"/>
    <path clip-path="url(#p37536f3df0)" d="M 523.007051 172.195088 
L 536.808151 163.583408 
L 558.773853 168.535518 
L 545.106208 177.241816 
z
" style="fill:#08745e;fill-opacity:0.8;"/>
    <path clip-path="url(#p37536f3df0)" d="M 522.821975 167.406576 
L 544.961946 172.436449 
L 558.656584 163.759293 
L 536.650555 158.823898 
z
" style="fill:#0aa384;fill-opacity:0.8;"/>
    <path clip-path="url(#p37536f3df0)" d="M 545.106208 177.241816 
L 558.773853 168.535518 
L 558.656584 163.759293 
L 544.961946 172.436449 
z
" style="fill:#065d4c;fill-opacity:0.8;"/>
    <path clip-path="url(#p37536f3df0)" d="M 523.007051 172.195088 
L 545.106208 177.241816 
L 544.961946 172.436449 
L 522.821975 167.406576 
z
" style="fill:#0cba97;fill-opacity:0.8;"/>
   </g>
   <g id="Poly3DCollection_24">
    <path clip-path="url(#p37536f3df0)" d="M 651.871811 166.230537 
L 651.871811 166.230537 
L 674.531114 171.211636 
L 674.531114 171.211636 
z
" style="fill:#065d4c;fill-opacity:0.8;"/>
    <path clip-path="url(#p37536f3df0)" d="M 639.124341 174.89273 
L 639.124341 174.89273 
L 651.871811 166.230537 
L 651.871811 166.230537 
z
" style="fill:#065d4c;fill-opacity:0.8;"/>
    <path clip-path="url(#p37536f3df0)" d="M 639.124341 174.89273 
L 651.871811 166.230537 
L 674.531114 171.211636 
L 661.929944 179.969282 
z
" style="fill:#08745e;fill-opacity:0.8;"/>
    <path clip-path="url(#p37536f3df0)" d="M 639.124341 174.89273 
L 661.929944 179.969282 
L 674.531114 171.211636 
L 651.871811 166.230537 
z
" style="fill:#0aa384;fill-opacity:0.8;"/>
    <path clip-path="url(#p37536f3df0)" d="M 661.929944 179.969282 
L 674.531114 171.211636 
L 674.531114 171.211636 
L 661.929944 179.969282 
z
" style="fill:#065d4c;fill-opacity:0.8;"/>
    <path clip-path="url(#p37536f3df0)" d="M 639.124341 174.89273 
L 661.929944 179.969282 
L 661.929944 179.969282 
L 639.124341 174.89273 
z
" style="fill:#065d4c;fill-opacity:0.8;"/>
   </g>
   <g id="Poly3DCollection_25">
    <path clip-path="url(#p37536f3df0)" d="M 580.980407 173.541928 
L 580.980407 173.541928 
L 603.431795 178.603535 
L 603.431795 178.603535 
z
" style="fill:#065d4c;fill-opacity:0.8;"/>
    <path clip-path="url(#p37536f3df0)" d="M 567.450003 182.344411 
L 567.450003 182.344411 
L 580.980407 173.541928 
L 580.980407 173.541928 
z
" style="fill:#065d4c;fill-opacity:0.8;"/>
    <path clip-path="url(#p37536f3df0)" d="M 567.450003 182.344411 
L 580.980407 173.541928 
L 603.431795 178.603535 
L 590.042521 187.503806 
z
" style="fill:#08745e;fill-opacity:0.8;"/>
    <path clip-path="url(#p37536f3df0)" d="M 567.450003 182.344411 
L 590.042521 187.503806 
L 603.431795 178.603535 
L 580.980407 173.541928 
z
" style="fill:#0aa384;fill-opacity:0.8;"/>
    <path clip-path="url(#p37536f3df0)" d="M 590.042521 187.503806 
L 603.431795 178.603535 
L 603.431795 178.603535 
L 590.042521 187.503806 
z
" style="fill:#065d4c;fill-opacity:0.8;"/>
    <path clip-path="url(#p37536f3df0)" d="M 567.450003 182.344411 
L 590.042521 187.503806 
L 590.042521 187.503806 
L 567.450003 182.344411 
z
" style="fill:#065d4c;fill-opacity:0.8;"/>
   </g>
   <g id="Poly3DCollection_26">
    <path clip-path="url(#p37536f3df0)" d="M 697.439607 176.247513 
L 697.260916 182.208454 
L 720.367077 187.32088 
L 720.601422 181.339076 
z
" style="fill:#0cba97;fill-opacity:0.8;"/>
    <path clip-path="url(#p37536f3df0)" d="M 684.988756 185.102199 
L 684.837858 191.099337 
L 697.260916 182.208454 
L 697.439607 176.247513 
z
" style="fill:#065d4c;fill-opacity:0.8;"/>
    <path clip-path="url(#p37536f3df0)" d="M 684.837858 191.099337 
L 708.097716 196.310593 
L 720.367077 187.32088 
L 697.260916 182.208454 
z
" style="fill:#0aa384;fill-opacity:0.8;"/>
    <path clip-path="url(#p37536f3df0)" d="M 684.988756 185.102199 
L 697.439607 176.247513 
L 720.601422 181.339076 
L 708.305018 190.292425 
z
" style="fill:#08745e;fill-opacity:0.8;"/>
    <path clip-path="url(#p37536f3df0)" d="M 708.305018 190.292425 
L 720.601422 181.339076 
L 720.367077 187.32088 
L 708.097716 196.310593 
z
" style="fill:#0cba97;fill-opacity:0.8;"/>
    <path clip-path="url(#p37536f3df0)" d="M 684.988756 185.102199 
L 708.305018 190.292425 
L 708.097716 196.310593 
L 684.837858 191.099337 
z
" style="fill:#065d4c;fill-opacity:0.8;"/>
   </g>
   <g id="Poly3DCollection_27">
    <path clip-path="url(#p37536f3df0)" d="M 508.941722 180.971643 
L 508.941722 180.971643 
L 531.175436 186.115726 
L 531.175436 186.115726 
z
" style="fill:#065d4c;fill-opacity:0.8;"/>
    <path clip-path="url(#p37536f3df0)" d="M 494.604504 189.917853 
L 494.604504 189.917853 
L 508.941722 180.971643 
L 508.941722 180.971643 
z
" style="fill:#065d4c;fill-opacity:0.8;"/>
    <path clip-path="url(#p37536f3df0)" d="M 494.604504 189.917853 
L 508.941722 180.971643 
L 531.175436 186.115726 
L 516.973864 195.162136 
z
" style="fill:#08745e;fill-opacity:0.8;"/>
    <path clip-path="url(#p37536f3df0)" d="M 494.604504 189.917853 
L 516.973864 195.162136 
L 531.175436 186.115726 
L 508.941722 180.971643 
z
" style="fill:#0aa384;fill-opacity:0.8;"/>
    <path clip-path="url(#p37536f3df0)" d="M 516.973864 195.162136 
L 531.175436 186.115726 
L 531.175436 186.115726 
L 516.973864 195.162136 
z
" style="fill:#065d4c;fill-opacity:0.8;"/>
    <path clip-path="url(#p37536f3df0)" d="M 494.604504 189.917853 
L 516.973864 195.162136 
L 516.973864 195.162136 
L 494.604504 189.917853 
z
" style="fill:#065d4c;fill-opacity:0.8;"/>
   </g>
   <g id="Poly3DCollection_28">
    <path clip-path="url(#p37536f3df0)" d="M 626.132089 183.721257 
L 626.133698 182.875738 
L 649.094778 188.047537 
L 649.085452 188.896033 
z
" style="fill:#065d4c;fill-opacity:0.8;"/>
    <path clip-path="url(#p37536f3df0)" d="M 612.887938 192.720956 
L 612.885097 191.870272 
L 626.133698 182.875738 
L 626.132089 183.721257 
z
" style="fill:#0cba97;fill-opacity:0.8;"/>
    <path clip-path="url(#p37536f3df0)" d="M 612.887938 192.720956 
L 626.132089 183.721257 
L 649.085452 188.896033 
L 635.990525 197.996834 
z
" style="fill:#08745e;fill-opacity:0.8;"/>
    <path clip-path="url(#p37536f3df0)" d="M 612.885097 191.870272 
L 635.995501 197.143149 
L 649.094778 188.047537 
L 626.133698 182.875738 
z
" style="fill:#0aa384;fill-opacity:0.8;"/>
    <path clip-path="url(#p37536f3df0)" d="M 635.990525 197.996834 
L 649.085452 188.896033 
L 649.094778 188.047537 
L 635.995501 197.143149 
z
" style="fill:#065d4c;fill-opacity:0.8;"/>
    <path clip-path="url(#p37536f3df0)" d="M 612.887938 192.720956 
L 635.990525 197.996834 
L 635.995501 197.143149 
L 612.885097 191.870272 
z
" style="fill:#0cba97;fill-opacity:0.8;"/>
   </g>
   <g id="Poly3DCollection_29">
    <path clip-path="url(#p37536f3df0)" d="M 553.657659 191.317306 
L 553.787194 196.150552 
L 576.479072 201.42758 
L 576.392582 196.577351 
z
" style="fill:#0cba97;fill-opacity:0.8;"/>
    <path clip-path="url(#p37536f3df0)" d="M 539.595693 200.465608 
L 539.753678 205.328318 
L 553.787194 196.150552 
L 553.657659 191.317306 
z
" style="fill:#065d4c;fill-opacity:0.8;"/>
    <path clip-path="url(#p37536f3df0)" d="M 539.753678 205.328318 
L 562.588689 210.709103 
L 576.479072 201.42758 
L 553.787194 196.150552 
z
" style="fill:#0aa384;fill-opacity:0.8;"/>
    <path clip-path="url(#p37536f3df0)" d="M 539.595693 200.465608 
L 553.657659 191.317306 
L 576.392582 196.577351 
L 562.474291 205.829277 
z
" style="fill:#08745e;fill-opacity:0.8;"/>
    <path clip-path="url(#p37536f3df0)" d="M 562.474291 205.829277 
L 576.392582 196.577351 
L 576.479072 201.42758 
L 562.588689 210.709103 
z
" style="fill:#0cba97;fill-opacity:0.8;"/>
    <path clip-path="url(#p37536f3df0)" d="M 539.595693 200.465608 
L 562.474291 205.829277 
L 562.588689 210.709103 
L 539.753678 205.328318 
z
" style="fill:#065d4c;fill-opacity:0.8;"/>
   </g>
   <g id="Poly3DCollection_30">
    <path clip-path="url(#p37536f3df0)" d="M 672.29614 194.128822 
L 672.252722 196.276279 
L 695.704738 201.575625 
L 695.768503 199.420605 
z
" style="fill:#0cba97;fill-opacity:0.8;"/>
    <path clip-path="url(#p37536f3df0)" d="M 659.354647 203.332439 
L 659.321934 205.493016 
L 672.252722 196.276279 
L 672.29614 194.128822 
z
" style="fill:#065d4c;fill-opacity:0.8;"/>
    <path clip-path="url(#p37536f3df0)" d="M 659.321934 205.493016 
L 682.931436 210.896989 
L 695.704738 201.575625 
L 672.252722 196.276279 
z
" style="fill:#0aa384;fill-opacity:0.8;"/>
    <path clip-path="url(#p37536f3df0)" d="M 659.354647 203.332439 
L 672.29614 194.128822 
L 695.768503 199.420605 
L 682.984773 208.72879 
z
" style="fill:#08745e;fill-opacity:0.8;"/>
    <path clip-path="url(#p37536f3df0)" d="M 682.984773 208.72879 
L 695.768503 199.420605 
L 695.704738 201.575625 
L 682.931436 210.896989 
z
" style="fill:#0cba97;fill-opacity:0.8;"/>
    <path clip-path="url(#p37536f3df0)" d="M 659.354647 203.332439 
L 682.984773 208.72879 
L 682.931436 210.896989 
L 659.321934 205.493016 
z
" style="fill:#065d4c;fill-opacity:0.8;"/>
   </g>
   <g id="Poly3DCollection_31">
    <path clip-path="url(#p37536f3df0)" d="M 599.38449 201.896853 
L 599.446674 209.025184 
L 622.633989 214.430216 
L 622.637764 207.276826 
z
" style="fill:#0cba97;fill-opacity:0.8;"/>
    <path clip-path="url(#p37536f3df0)" d="M 585.614054 211.254174 
L 585.716284 218.425978 
L 599.446674 209.025184 
L 599.38449 201.896853 
z
" style="fill:#065d4c;fill-opacity:0.8;"/>
    <path clip-path="url(#p37536f3df0)" d="M 585.716284 218.425978 
L 609.054888 223.938404 
L 622.633989 214.430216 
L 599.446674 209.025184 
z
" style="fill:#0aa384;fill-opacity:0.8;"/>
    <path clip-path="url(#p37536f3df0)" d="M 585.614054 211.254174 
L 599.38449 201.896853 
L 622.637764 207.276826 
L 609.019479 216.741353 
z
" style="fill:#08745e;fill-opacity:0.8;"/>
    <path clip-path="url(#p37536f3df0)" d="M 609.019479 216.741353 
L 622.637764 207.276826 
L 622.633989 214.430216 
L 609.054888 223.938404 
z
" style="fill:#0cba97;fill-opacity:0.8;"/>
    <path clip-path="url(#p37536f3df0)" d="M 585.614054 211.254174 
L 609.019479 216.741353 
L 609.054888 223.938404 
L 585.716284 218.425978 
z
" style="fill:#065d4c;fill-opacity:0.8;"/>
   </g>
   <g id="Poly3DCollection_32">
    <path clip-path="url(#p37536f3df0)" d="M 646.156887 212.718306 
L 646.136588 214.763427 
L 669.906479 220.274701 
L 669.946443 218.222356 
z
" style="fill:#0cba97;fill-opacity:0.8;"/>
    <path clip-path="url(#p37536f3df0)" d="M 632.695169 222.291892 
L 632.685777 224.349546 
L 646.136588 214.763427 
L 646.156887 212.718306 
z
" style="fill:#065d4c;fill-opacity:0.8;"/>
    <path clip-path="url(#p37536f3df0)" d="M 632.685777 224.349546 
L 656.616505 229.971829 
L 669.906479 220.274701 
L 646.136588 214.763427 
z
" style="fill:#0aa384;fill-opacity:0.8;"/>
    <path clip-path="url(#p37536f3df0)" d="M 632.695169 222.291892 
L 646.156887 212.718306 
L 669.946443 218.222356 
L 656.645831 227.906896 
z
" style="fill:#08745e;fill-opacity:0.8;"/>
    <path clip-path="url(#p37536f3df0)" d="M 656.645831 227.906896 
L 669.946443 218.222356 
L 669.906479 220.274701 
L 656.616505 229.971829 
z
" style="fill:#0cba97;fill-opacity:0.8;"/>
    <path clip-path="url(#p37536f3df0)" d="M 632.695169 222.291892 
L 656.645831 227.906896 
L 656.616505 229.971829 
L 632.685777 224.349546 
z
" style="fill:#065d4c;fill-opacity:0.8;"/>
   </g>
   <g id="Poly3DCollection_33">
    <path clip-path="url(#p37536f3df0)" d="M 481.733989 191.255947 
L 660.396029 233.337397 
L 756.631569 162.675995 
L 586.507726 126.342918 
z
" style="fill-opacity:0.2;"/>
   </g>
  </g>
 </g>
 <defs>
  <clipPath id="p61b3aa91f5">
   <rect height="277.2" width="380.454545" x="-30.6" y="-14.4"/>
  </clipPath>
  <clipPath id="p37536f3df0">
   <rect height="277.2" width="380.454545" x="425.945455" y="-14.4"/>
  </clipPath>
 </defs>
</svg>
