<?xml version="1.0" encoding="utf-8" standalone="no"?>
<!DOCTYPE svg PUBLIC "-//W3C//DTD SVG 1.1//EN"
  "http://www.w3.org/Graphics/SVG/1.1/DTD/svg11.dtd">
<!-- Created with matplotlib (https://matplotlib.org/) -->
<svg height="302.4pt" version="1.1" viewBox="0 0 820.8 302.4" width="820.8pt" xmlns="http://www.w3.org/2000/svg" xmlns:xlink="http://www.w3.org/1999/xlink">
 <defs>
  <style type="text/css">
*{stroke-linecap:butt;stroke-linejoin:round;}
  </style>
 </defs>
 <g id="figure_1">
  <g id="patch_1">
   <path d="M 0 302.4 
L 820.8 302.4 
L 820.8 0 
L 0 0 
z
" style="fill:#ffffff;"/>
  </g>
  <g id="patch_2">
   <path d="M -30.6 262.8 
L 349.854545 262.8 
L 349.854545 -14.4 
L -30.6 -14.4 
z
" style="fill:#ffffff;"/>
  </g>
  <g id="pane3d_1">
   <g id="patch_3">
    <path d="M 19.835129 201.548569 
L 128.723211 133.58541 
L 126.910339 3.718968 
L 11.951034 64.782468 
" style="fill:#f2f2f2;opacity:0.5;stroke:#f2f2f2;stroke-linejoin:miter;"/>
   </g>
  </g>
  <g id="pane3d_2">
   <g id="patch_4">
    <path d="M 128.723211 133.58541 
L 305.111665 171.581202 
L 312.491547 37.79869 
L 126.910339 3.718968 
" style="fill:#e6e6e6;opacity:0.5;stroke:#e6e6e6;stroke-linejoin:miter;"/>
   </g>
  </g>
  <g id="pane3d_3">
   <g id="patch_5">
    <path d="M 19.835129 201.548569 
L 205.419617 245.80086 
L 305.111665 171.581202 
L 128.723211 133.58541 
" style="fill:#ececec;opacity:0.5;stroke:#ececec;stroke-linejoin:miter;"/>
   </g>
  </g>
  <g id="axis3d_1">
   <g id="line2d_1">
    <path d="M 19.835129 201.548569 
L 205.419617 245.80086 
" style="fill:none;stroke:#000000;stroke-linecap:square;stroke-width:0.8;"/>
   </g>
   <g id="Line3DCollection_1">
    <path d="M 57.25499 210.471268 
L 164.384175 141.267129 
L 164.364666 10.596997 
" style="fill:none;stroke:#b0b0b0;stroke-width:0.8;"/>
    <path d="M 165.194119 236.209161 
L 266.979744 163.367214 
L 272.30378 30.418697 
" style="fill:none;stroke:#b0b0b0;stroke-width:0.8;"/>
   </g>
   <g id="xtick_1">
    <g id="line2d_2">
     <path d="M 58.178395 209.87476 
L 55.404712 211.666525 
" style="fill:none;stroke:#000000;stroke-linecap:square;stroke-width:0.8;"/>
    </g>
    <g id="text_1">
     <!-- 0 -->
     <defs>
      <path d="M 42 31.84375 
C 42 37.96875 41.90625 48.421875 37.703125 56.453125 
C 34 63.484375 28.09375 66 22.90625 66 
C 18.09375 66 12 63.78125 8.203125 56.5625 
C 4.203125 49.015625 3.796875 39.671875 3.796875 31.84375 
C 3.796875 26.109375 3.90625 17.375 7 9.734375 
C 11.296875 -0.609375 19 -2 22.90625 -2 
C 27.5 -2 34.5 -0.109375 38.59375 9.4375 
C 41.59375 16.375 42 24.5 42 31.84375 
z
M 22.90625 -0.40625 
C 16.5 -0.40625 12.703125 5.125 11.296875 12.75 
C 10.203125 18.6875 10.203125 27.328125 10.203125 32.953125 
C 10.203125 40.6875 10.203125 47.109375 11.5 53.234375 
C 13.40625 61.78125 19 64.390625 22.90625 64.390625 
C 27 64.390625 32.296875 61.671875 34.203125 53.4375 
C 35.5 47.71875 35.59375 40.984375 35.59375 32.953125 
C 35.59375 26.421875 35.59375 18.375 34.40625 12.453125 
C 32.296875 1.5 26.40625 -0.40625 22.90625 -0.40625 
z
" id="CMR17-48"/>
     </defs>
     <g transform="translate(40.660521 240.511804)rotate(-45)scale(0.2 -0.2)">
      <use transform="scale(0.996264)" xlink:href="#CMR17-48"/>
     </g>
    </g>
   </g>
   <g id="xtick_2">
    <g id="line2d_3">
     <path d="M 166.073164 235.580081 
L 163.432641 237.469747 
" style="fill:none;stroke:#000000;stroke-linecap:square;stroke-width:0.8;"/>
    </g>
    <g id="text_2">
     <!-- 1 -->
     <defs>
      <path d="M 26.59375 63.796875 
C 26.59375 65.890625 26.5 66 25.09375 66 
C 21.203125 61.359375 15.296875 59.890625 9.703125 59.6875 
C 9.40625 59.6875 8.90625 59.6875 8.796875 59.5 
C 8.703125 59.296875 8.703125 59.09375 8.703125 57 
C 11.796875 57 17 57.59375 21 59.984375 
L 21 7.296875 
C 21 3.796875 20.796875 2.59375 12.203125 2.59375 
L 9.203125 2.59375 
L 9.203125 0 
C 14 0.09375 19 0.1875 23.796875 0.1875 
C 28.59375 0.1875 33.59375 0.09375 38.40625 0 
L 38.40625 2.59375 
L 35.40625 2.59375 
C 26.796875 2.59375 26.59375 3.6875 26.59375 7.296875 
z
" id="CMR17-49"/>
     </defs>
     <g transform="translate(148.594247 266.668398)rotate(-45)scale(0.2 -0.2)">
      <use transform="scale(0.996264)" xlink:href="#CMR17-49"/>
     </g>
    </g>
   </g>
  </g>
  <g id="axis3d_2">
   <g id="line2d_4">
    <path d="M 305.111665 171.581202 
L 205.419617 245.80086 
" style="fill:none;stroke:#000000;stroke-linecap:square;stroke-width:0.8;"/>
   </g>
   <g id="Line3DCollection_2">
    <path d="M 37.513203 51.204485 
L 43.973964 186.482168 
L 227.577572 229.3045 
" style="fill:none;stroke:#b0b0b0;stroke-width:0.8;"/>
    <path d="M 104.330597 15.712761 
L 107.268846 146.976282 
L 285.52205 186.16546 
" style="fill:none;stroke:#b0b0b0;stroke-width:0.8;"/>
   </g>
   <g id="xtick_3">
    <g id="line2d_5">
     <path d="M 226.041757 228.946298 
L 230.652597 230.021696 
" style="fill:none;stroke:#000000;stroke-linecap:square;stroke-width:0.8;"/>
    </g>
    <g id="text_3">
     <!-- 0 -->
     <g transform="translate(241.72625 244.025805)rotate(-337.5)scale(0.2 -0.2)">
      <use transform="scale(0.996264)" xlink:href="#CMR17-48"/>
     </g>
    </g>
   </g>
   <g id="xtick_4">
    <g id="line2d_6">
     <path d="M 284.033869 185.838281 
L 288.501553 186.820507 
" style="fill:none;stroke:#000000;stroke-linecap:square;stroke-width:0.8;"/>
    </g>
    <g id="text_4">
     <!-- 1 -->
     <g transform="translate(299.08354 200.381007)rotate(-337.5)scale(0.2 -0.2)">
      <use transform="scale(0.996264)" xlink:href="#CMR17-49"/>
     </g>
    </g>
   </g>
  </g>
  <g id="axis3d_3">
   <g id="line2d_7">
    <path d="M 305.111665 171.581202 
L 312.491547 37.79869 
" style="fill:none;stroke:#000000;stroke-linecap:square;stroke-width:0.8;"/>
   </g>
   <g id="Line3DCollection_3">
    <path d="M 305.918789 156.949662 
L 128.524555 119.354584 
L 18.974182 186.613637 
" style="fill:none;stroke:#b0b0b0;stroke-width:0.8;"/>
    <path d="M 307.299296 131.923821 
L 128.184994 95.02985 
L 17.500863 161.055842 
" style="fill:none;stroke:#b0b0b0;stroke-width:0.8;"/>
    <path d="M 308.707074 106.403618 
L 127.83901 70.245021 
L 15.997463 134.976227 
" style="fill:none;stroke:#b0b0b0;stroke-width:0.8;"/>
    <path d="M 310.142939 80.374261 
L 127.486419 44.986917 
L 14.463051 108.358647 
" style="fill:none;stroke:#b0b0b0;stroke-width:0.8;"/>
    <path d="M 311.607739 53.820356 
L 127.127031 19.241853 
L 12.896657 81.186281 
" style="fill:none;stroke:#b0b0b0;stroke-width:0.8;"/>
   </g>
   <g id="xtick_5">
    <g id="line2d_8">
     <path d="M 304.438398 156.635923 
L 308.882664 157.577794 
" style="fill:none;stroke:#000000;stroke-linecap:square;stroke-width:0.8;"/>
    </g>
    <g id="text_5">
     <!-- $0.4950$ -->
     <defs>
      <path d="M 18.40625 4.796875 
C 18.40625 7.6875 16 9.6875 13.59375 9.6875 
C 10.703125 9.6875 8.703125 7.296875 8.703125 4.890625 
C 8.703125 2 11.09375 0 13.5 0 
C 16.40625 0 18.40625 2.390625 18.40625 4.796875 
z
" id="CMMI12-58"/>
      <path d="M 33.59375 64.796875 
C 33.59375 66.890625 33.5 67 31.703125 67 
L 2 19.59375 
L 2 17 
L 27.796875 17 
L 27.796875 7.1875 
C 27.796875 3.59375 27.59375 2.59375 20.59375 2.59375 
L 18.703125 2.59375 
L 18.703125 0 
C 21.90625 0.1875 27.296875 0.1875 30.703125 0.1875 
C 34.09375 0.1875 39.5 0.1875 42.703125 0 
L 42.703125 2.59375 
L 40.796875 2.59375 
C 33.796875 2.59375 33.59375 3.59375 33.59375 7.1875 
L 33.59375 17 
L 43.796875 17 
L 43.796875 19.59375 
L 33.59375 19.59375 
z
M 28.09375 58.171875 
L 28.09375 19.59375 
L 4 19.59375 
z
" id="CMR17-52"/>
      <path d="M 35.203125 29.234375 
C 35.203125 7 26.09375 0.390625 18.59375 0.390625 
C 16.296875 0.390625 10.703125 0.671875 8.40625 4.390625 
C 11 4 12.90625 5.390625 12.90625 7.890625 
C 12.90625 10.59375 10.703125 11.5 9.296875 11.5 
C 8.40625 11.5 5.703125 11.09375 5.703125 7.6875 
C 5.703125 1.0625 11.59375 -2 18.796875 -2 
C 30.296875 -2 42 10.390625 42 32.65625 
C 42 60.265625 30.796875 66 23.203125 66 
C 13.296875 66 3.796875 57.25 3.796875 43.75 
C 3.796875 31.25 11.90625 22 22.09375 22 
C 30.5 22 34.203125 29.84375 35.203125 33.15625 
z
M 22.296875 23.59375 
C 19.59375 23.59375 15.796875 24.09375 12.703125 30.140625 
C 10.59375 34.078125 10.59375 38.703125 10.59375 43.640625 
C 10.59375 49.59375 10.59375 53.71875 13.40625 58.15625 
C 14.796875 60.265625 17.40625 63.6875 23.203125 63.6875 
C 35 63.6875 35 45.453125 35 41.421875 
C 35 34.265625 31.796875 23.59375 22.296875 23.59375 
z
" id="CMR17-57"/>
      <path d="M 11.40625 58.59375 
C 12.40625 58.1875 16.5 56.890625 20.703125 56.890625 
C 30 56.890625 35.09375 61.890625 38 64.6875 
C 38 65.484375 38 66 37.40625 66 
C 37.296875 66 37.09375 66 36.296875 65.59375 
C 32.796875 64.09375 28.703125 63 23.703125 63 
C 20.703125 63 16.203125 63.359375 11.296875 65.484375 
C 10.203125 66 10 66 9.90625 66 
C 9.40625 66 9.296875 65.890625 9.296875 63.90625 
L 9.296875 34.859375 
C 9.296875 33.015625 9.296875 32.5 10.296875 32.5 
C 10.796875 32.5 11 32.703125 11.5 33.421875 
C 14.703125 38.046875 19.09375 40 24.09375 40 
C 27.59375 40 35.09375 37.734375 35.09375 20.203125 
C 35.09375 16.984375 35.09375 11.1875 32.09375 6.59375 
C 29.59375 2.484375 25.703125 0.390625 21.40625 0.390625 
C 14.796875 0.390625 8.09375 4.984375 6.296875 12.6875 
C 6.703125 12.59375 7.5 12.390625 7.90625 12.390625 
C 9.203125 12.390625 11.703125 13.09375 11.703125 16.1875 
C 11.703125 18.890625 9.796875 20 7.90625 20 
C 5.59375 20 4.09375 18.59375 4.09375 15.796875 
C 4.09375 7.09375 11 -2 21.59375 -2 
C 31.90625 -2 41.703125 6.890625 41.703125 19.796875 
C 41.703125 32.09375 33.90625 41.59375 24.203125 41.59375 
C 19.09375 41.59375 14.796875 39.6875 11.40625 36 
z
" id="CMR17-53"/>
     </defs>
     <g transform="translate(298.977941 168.862355)scale(0.2 -0.2)">
      <use transform="scale(0.996264)" xlink:href="#CMR17-48"/>
      <use transform="translate(45.690477 0)scale(0.996264)" xlink:href="#CMMI12-58"/>
      <use transform="translate(72.787654 0)scale(0.996264)" xlink:href="#CMR17-52"/>
      <use transform="translate(118.478131 0)scale(0.996264)" xlink:href="#CMR17-57"/>
      <use transform="translate(164.168608 0)scale(0.996264)" xlink:href="#CMR17-53"/>
      <use transform="translate(209.859086 0)scale(0.996264)" xlink:href="#CMR17-48"/>
     </g>
    </g>
   </g>
   <g id="xtick_6">
    <g id="line2d_9">
     <path d="M 305.803947 131.615808 
L 310.293151 132.540495 
" style="fill:none;stroke:#000000;stroke-linecap:square;stroke-width:0.8;"/>
    </g>
    <g id="text_6">
     <!-- $0.4975$ -->
     <defs>
      <path d="M 45.09375 61.796875 
L 45.09375 64 
L 21.59375 64 
C 9.90625 64 9.703125 65.09375 9.296875 67 
L 7.5 67 
L 4.59375 48.5 
L 6.40625 48.5 
C 6.703125 50.40625 7.40625 55.5 8.59375 57.390625 
C 9.203125 58.1875 16.59375 58.1875 18.296875 58.1875 
L 40.296875 58.1875 
L 29.203125 41.71875 
C 21.796875 30.640625 16.703125 15.671875 16.703125 2.59375 
C 16.703125 1.390625 16.703125 -2 20.296875 -2 
C 23.90625 -2 23.90625 1.390625 23.90625 2.6875 
L 23.90625 7.28125 
C 23.90625 23.65625 26.703125 34.4375 31.296875 41.3125 
z
" id="CMR17-55"/>
     </defs>
     <g transform="translate(300.537135 143.871669)scale(0.2 -0.2)">
      <use transform="scale(0.996264)" xlink:href="#CMR17-48"/>
      <use transform="translate(45.690477 0)scale(0.996264)" xlink:href="#CMMI12-58"/>
      <use transform="translate(72.787654 0)scale(0.996264)" xlink:href="#CMR17-52"/>
      <use transform="translate(118.478131 0)scale(0.996264)" xlink:href="#CMR17-57"/>
      <use transform="translate(164.168608 0)scale(0.996264)" xlink:href="#CMR17-55"/>
      <use transform="translate(209.859086 0)scale(0.996264)" xlink:href="#CMR17-53"/>
     </g>
    </g>
   </g>
   <g id="xtick_7">
    <g id="line2d_10">
     <path d="M 307.196461 106.101621 
L 311.731521 107.008257 
" style="fill:none;stroke:#000000;stroke-linecap:square;stroke-width:0.8;"/>
    </g>
    <g id="text_7">
     <!-- $0.5000$ -->
     <g transform="translate(302.127061 118.388392)scale(0.2 -0.2)">
      <use transform="scale(0.996264)" xlink:href="#CMR17-48"/>
      <use transform="translate(45.690477 0)scale(0.996264)" xlink:href="#CMMI12-58"/>
      <use transform="translate(72.787654 0)scale(0.996264)" xlink:href="#CMR17-53"/>
      <use transform="translate(118.478131 0)scale(0.996264)" xlink:href="#CMR17-48"/>
      <use transform="translate(164.168608 0)scale(0.996264)" xlink:href="#CMR17-48"/>
      <use transform="translate(209.859086 0)scale(0.996264)" xlink:href="#CMR17-48"/>
     </g>
    </g>
   </g>
   <g id="xtick_8">
    <g id="line2d_11">
     <path d="M 308.616747 80.078581 
L 313.198608 80.966257 
" style="fill:none;stroke:#000000;stroke-linecap:square;stroke-width:0.8;"/>
    </g>
    <g id="text_8">
     <!-- $0.5025$ -->
     <defs>
      <path d="M 41.703125 15.46875 
L 39.90625 15.46875 
C 38.90625 8.390625 38.09375 7.1875 37.703125 6.59375 
C 37.203125 5.796875 30 5.796875 28.59375 5.796875 
L 9.40625 5.796875 
C 13 9.6875 20 16.765625 28.5 24.9375 
C 34.59375 30.71875 41.703125 37.5 41.703125 47.390625 
C 41.703125 59.1875 32.296875 66 21.796875 66 
C 10.796875 66 4.09375 56.296875 4.09375 47.296875 
C 4.09375 43.390625 7 42.890625 8.203125 42.890625 
C 9.203125 42.890625 12.203125 43.484375 12.203125 46.984375 
C 12.203125 50.09375 9.59375 51 8.203125 51 
C 7.59375 51 7 50.890625 6.59375 50.6875 
C 8.5 59.1875 14.296875 63.390625 20.40625 63.390625 
C 29.09375 63.390625 34.796875 56.5 34.796875 47.390625 
C 34.796875 38.703125 29.703125 31.21875 24 24.734375 
L 4.09375 2.296875 
L 4.09375 0 
L 39.296875 0 
z
" id="CMR17-50"/>
     </defs>
     <g transform="translate(303.748639 92.397812)scale(0.2 -0.2)">
      <use transform="scale(0.996264)" xlink:href="#CMR17-48"/>
      <use transform="translate(45.690477 0)scale(0.996264)" xlink:href="#CMMI12-58"/>
      <use transform="translate(72.787654 0)scale(0.996264)" xlink:href="#CMR17-53"/>
      <use transform="translate(118.478131 0)scale(0.996264)" xlink:href="#CMR17-48"/>
      <use transform="translate(164.168608 0)scale(0.996264)" xlink:href="#CMR17-50"/>
      <use transform="translate(209.859086 0)scale(0.996264)" xlink:href="#CMR17-53"/>
     </g>
    </g>
   </g>
   <g id="xtick_9">
    <g id="line2d_12">
     <path d="M 310.065645 53.531311 
L 314.695281 54.399076 
" style="fill:none;stroke:#000000;stroke-linecap:square;stroke-width:0.8;"/>
    </g>
    <g id="text_9">
     <!-- $0.5050$ -->
     <g transform="translate(305.402822 65.884631)scale(0.2 -0.2)">
      <use transform="scale(0.996264)" xlink:href="#CMR17-48"/>
      <use transform="translate(45.690477 0)scale(0.996264)" xlink:href="#CMMI12-58"/>
      <use transform="translate(72.787654 0)scale(0.996264)" xlink:href="#CMR17-53"/>
      <use transform="translate(118.478131 0)scale(0.996264)" xlink:href="#CMR17-48"/>
      <use transform="translate(164.168608 0)scale(0.996264)" xlink:href="#CMR17-53"/>
      <use transform="translate(209.859086 0)scale(0.996264)" xlink:href="#CMR17-48"/>
     </g>
    </g>
   </g>
  </g>
  <g id="axes_1">
   <g id="Poly3DCollection_1">
    <path clip-path="url(#pee29d91468)" d="M 143.257143 1826.401777 
L 153.593633 1807.317297 
L 171.248161 1818.30101 
L 160.999448 1837.550744 
z
" style="fill:#74081d;fill-opacity:0.8;"/>
    <path clip-path="url(#pee29d91468)" d="M 153.593633 1807.317297 
L 132.304617 76.742232 
L 183.747903 87.097274 
L 171.248161 1818.30101 
z
" style="fill:#5d0618;fill-opacity:0.8;"/>
    <path clip-path="url(#pee29d91468)" d="M 143.257143 1826.401777 
L 101.373189 94.844757 
L 132.304617 76.742232 
L 153.593633 1807.317297 
z
" style="fill:#ba0c2f;fill-opacity:0.8;"/>
    <path clip-path="url(#pee29d91468)" d="M 160.999448 1837.550744 
L 171.248161 1818.30101 
L 183.747903 87.097274 
L 153.566203 105.664269 
z
" style="fill:#5d0618;fill-opacity:0.8;"/>
    <path clip-path="url(#pee29d91468)" d="M 143.257143 1826.401777 
L 160.999448 1837.550744 
L 153.566203 105.664269 
L 101.373189 94.844757 
z
" style="fill:#ba0c2f;fill-opacity:0.8;"/>
    <path clip-path="url(#pee29d91468)" d="M 101.373189 94.844757 
L 153.566203 105.664269 
L 183.747903 87.097274 
L 132.304617 76.742232 
z
" style="fill:#a30a29;fill-opacity:0.8;"/>
   </g>
   <g id="Poly3DCollection_2">
    <path clip-path="url(#pee29d91468)" d="M 122.113319 1865.440067 
L 132.764888 1845.77385 
L 150.595617 1857.091829 
L 140.033121 1876.93093 
z
" style="fill:#74081d;fill-opacity:0.8;"/>
    <path clip-path="url(#pee29d91468)" d="M 132.764888 1845.77385 
L 71.347468 176.279247 
L 123.046871 188.123885 
L 150.595617 1857.091829 
z
" style="fill:#5d0618;fill-opacity:0.8;"/>
    <path clip-path="url(#pee29d91468)" d="M 122.113319 1865.440067 
L 38.413819 196.989763 
L 71.347468 176.279247 
L 132.764888 1845.77385 
z
" style="fill:#ba0c2f;fill-opacity:0.8;"/>
    <path clip-path="url(#pee29d91468)" d="M 140.033121 1876.93093 
L 150.595617 1857.091829 
L 123.046871 188.123885 
L 90.857951 209.376725 
z
" style="fill:#5d0618;fill-opacity:0.8;"/>
    <path clip-path="url(#pee29d91468)" d="M 122.113319 1865.440067 
L 140.033121 1876.93093 
L 90.857951 209.376725 
L 38.413819 196.989763 
z
" style="fill:#ba0c2f;fill-opacity:0.8;"/>
    <path clip-path="url(#pee29d91468)" d="M 38.413819 196.989763 
L 90.857951 209.376725 
L 123.046871 188.123885 
L 71.347468 176.279247 
z
" style="fill:#a30a29;fill-opacity:0.8;"/>
   </g>
   <g id="Poly3DCollection_3">
    <path clip-path="url(#pee29d91468)" d="M 178.896297 1848.796825 
L 189.055317 1829.379681 
L 207.017089 1840.554546 
L 196.949718 1860.141293 
z
" style="fill:#74081d;fill-opacity:0.8;"/>
    <path clip-path="url(#pee29d91468)" d="M 189.055317 1829.379681 
L 238.306089 31.980226 
L 293.828502 42.279747 
L 207.017089 1840.554546 
z
" style="fill:#5d0618;fill-opacity:0.8;"/>
    <path clip-path="url(#pee29d91468)" d="M 178.896297 1848.796825 
L 208.210289 49.99441 
L 238.306089 31.980226 
L 189.055317 1829.379681 
z
" style="fill:#ba0c2f;fill-opacity:0.8;"/>
    <path clip-path="url(#pee29d91468)" d="M 196.949718 1860.141293 
L 207.017089 1840.554546 
L 293.828502 42.279747 
L 264.629552 60.780601 
z
" style="fill:#5d0618;fill-opacity:0.8;"/>
    <path clip-path="url(#pee29d91468)" d="M 178.896297 1848.796825 
L 196.949718 1860.141293 
L 264.629552 60.780601 
L 208.210289 49.99441 
z
" style="fill:#ba0c2f;fill-opacity:0.8;"/>
    <path clip-path="url(#pee29d91468)" d="M 208.210289 49.99441 
L 264.629552 60.780601 
L 293.828502 42.279747 
L 238.306089 31.980226 
z
" style="fill:#a30a29;fill-opacity:0.8;"/>
   </g>
   <g id="Poly3DCollection_4">
    <path clip-path="url(#pee29d91468)" d="M 158.111404 1888.523418 
L 168.582842 1868.509143 
L 186.728631 1880.027105 
L 176.35028 1900.218884 
z
" style="fill:#74081d;fill-opacity:0.8;"/>
    <path clip-path="url(#pee29d91468)" d="M 168.582842 1868.509143 
L 176.379747 136.697426 
L 232.22566 148.630322 
L 186.728631 1880.027105 
z
" style="fill:#5d0618;fill-opacity:0.8;"/>
    <path clip-path="url(#pee29d91468)" d="M 158.111404 1888.523418 
L 144.181014 157.572717 
L 176.379747 136.697426 
L 168.582842 1868.509143 
z
" style="fill:#ba0c2f;fill-opacity:0.8;"/>
    <path clip-path="url(#pee29d91468)" d="M 176.35028 1900.218884 
L 186.728631 1880.027105 
L 232.22566 148.630322 
L 200.921608 170.081606 
z
" style="fill:#5d0618;fill-opacity:0.8;"/>
    <path clip-path="url(#pee29d91468)" d="M 158.111404 1888.523418 
L 176.35028 1900.218884 
L 200.921608 170.081606 
L 144.181014 157.572717 
z
" style="fill:#ba0c2f;fill-opacity:0.8;"/>
    <path clip-path="url(#pee29d91468)" d="M 144.181014 157.572717 
L 200.921608 170.081606 
L 232.22566 148.630322 
L 176.379747 136.697426 
z
" style="fill:#a30a29;fill-opacity:0.8;"/>
   </g>
  </g>
  <g id="patch_6">
   <path d="M 425.945455 262.8 
L 806.4 262.8 
L 806.4 -14.4 
L 425.945455 -14.4 
z
" style="fill:#ffffff;"/>
  </g>
  <g id="pane3d_4">
   <g id="patch_7">
    <path d="M 476.380584 201.548569 
L 585.268665 133.58541 
L 583.455794 3.718968 
L 468.496488 64.782468 
" style="fill:#f2f2f2;opacity:0.5;stroke:#f2f2f2;stroke-linejoin:miter;"/>
   </g>
  </g>
  <g id="pane3d_5">
   <g id="patch_8">
    <path d="M 585.268665 133.58541 
L 761.65712 171.581202 
L 769.037001 37.79869 
L 583.455794 3.718968 
" style="fill:#e6e6e6;opacity:0.5;stroke:#e6e6e6;stroke-linejoin:miter;"/>
   </g>
  </g>
  <g id="pane3d_6">
   <g id="patch_9">
    <path d="M 476.380584 201.548569 
L 661.965072 245.80086 
L 761.65712 171.581202 
L 585.268665 133.58541 
" style="fill:#ececec;opacity:0.5;stroke:#ececec;stroke-linejoin:miter;"/>
   </g>
  </g>
  <g id="axis3d_4">
   <g id="line2d_13">
    <path d="M 476.380584 201.548569 
L 661.965072 245.80086 
" style="fill:none;stroke:#000000;stroke-linecap:square;stroke-width:0.8;"/>
   </g>
   <g id="Line3DCollection_4">
    <path d="M 513.800444 210.471268 
L 620.92963 141.267129 
L 620.91012 10.596997 
" style="fill:none;stroke:#b0b0b0;stroke-width:0.8;"/>
    <path d="M 621.739574 236.209161 
L 723.525199 163.367214 
L 728.849235 30.418697 
" style="fill:none;stroke:#b0b0b0;stroke-width:0.8;"/>
   </g>
   <g id="xtick_10">
    <g id="line2d_14">
     <path d="M 514.72385 209.87476 
L 511.950167 211.666525 
" style="fill:none;stroke:#000000;stroke-linecap:square;stroke-width:0.8;"/>
    </g>
    <g id="text_10">
     <!-- 0 -->
     <g transform="translate(497.205976 240.511804)rotate(-45)scale(0.2 -0.2)">
      <use transform="scale(0.996264)" xlink:href="#CMR17-48"/>
     </g>
    </g>
   </g>
   <g id="xtick_11">
    <g id="line2d_15">
     <path d="M 622.618618 235.580081 
L 619.978095 237.469747 
" style="fill:none;stroke:#000000;stroke-linecap:square;stroke-width:0.8;"/>
    </g>
    <g id="text_11">
     <!-- 1 -->
     <g transform="translate(605.139701 266.668398)rotate(-45)scale(0.2 -0.2)">
      <use transform="scale(0.996264)" xlink:href="#CMR17-49"/>
     </g>
    </g>
   </g>
  </g>
  <g id="axis3d_5">
   <g id="line2d_16">
    <path d="M 761.65712 171.581202 
L 661.965072 245.80086 
" style="fill:none;stroke:#000000;stroke-linecap:square;stroke-width:0.8;"/>
   </g>
   <g id="Line3DCollection_5">
    <path d="M 494.058657 51.204485 
L 500.519418 186.482168 
L 684.123027 229.3045 
" style="fill:none;stroke:#b0b0b0;stroke-width:0.8;"/>
    <path d="M 560.876051 15.712761 
L 563.814301 146.976282 
L 742.067505 186.16546 
" style="fill:none;stroke:#b0b0b0;stroke-width:0.8;"/>
   </g>
   <g id="xtick_12">
    <g id="line2d_17">
     <path d="M 682.587211 228.946298 
L 687.198051 230.021696 
" style="fill:none;stroke:#000000;stroke-linecap:square;stroke-width:0.8;"/>
    </g>
    <g id="text_12">
     <!-- 0 -->
     <g transform="translate(698.271704 244.025805)rotate(-337.5)scale(0.2 -0.2)">
      <use transform="scale(0.996264)" xlink:href="#CMR17-48"/>
     </g>
    </g>
   </g>
   <g id="xtick_13">
    <g id="line2d_18">
     <path d="M 740.579324 185.838281 
L 745.047008 186.820507 
" style="fill:none;stroke:#000000;stroke-linecap:square;stroke-width:0.8;"/>
    </g>
    <g id="text_13">
     <!-- 1 -->
     <g transform="translate(755.628995 200.381007)rotate(-337.5)scale(0.2 -0.2)">
      <use transform="scale(0.996264)" xlink:href="#CMR17-49"/>
     </g>
    </g>
   </g>
  </g>
  <g id="axis3d_6">
   <g id="line2d_19">
    <path d="M 761.65712 171.581202 
L 769.037001 37.79869 
" style="fill:none;stroke:#000000;stroke-linecap:square;stroke-width:0.8;"/>
   </g>
   <g id="Line3DCollection_6">
    <path d="M 761.825021 168.537485 
L 585.227332 130.624493 
L 476.201512 198.442202 
" style="fill:none;stroke:#b0b0b0;stroke-width:0.8;"/>
    <path d="M 764.530821 119.486744 
L 584.5618 82.948578 
L 473.31377 148.348279 
" style="fill:none;stroke:#b0b0b0;stroke-width:0.8;"/>
    <path d="M 767.342877 68.509784 
L 583.871258 33.481086 
L 470.308762 96.220133 
" style="fill:none;stroke:#b0b0b0;stroke-width:0.8;"/>
   </g>
   <g id="xtick_14">
    <g id="line2d_20">
     <path d="M 760.351554 168.221153 
L 764.775022 169.170808 
" style="fill:none;stroke:#000000;stroke-linecap:square;stroke-width:0.8;"/>
    </g>
    <g id="text_14">
     <!-- $0.0$ -->
     <g transform="translate(768.508557 180.434254)scale(0.2 -0.2)">
      <use transform="scale(0.996264)" xlink:href="#CMR17-48"/>
      <use transform="translate(45.690477 0)scale(0.996264)" xlink:href="#CMMI12-58"/>
      <use transform="translate(72.787654 0)scale(0.996264)" xlink:href="#CMR17-48"/>
     </g>
    </g>
   </g>
   <g id="xtick_15">
    <g id="line2d_21">
     <path d="M 763.028034 119.181641 
L 767.539582 120.097597 
" style="fill:none;stroke:#000000;stroke-linecap:square;stroke-width:0.8;"/>
    </g>
    <g id="text_15">
     <!-- $0.2$ -->
     <g transform="translate(771.564579 131.452452)scale(0.2 -0.2)">
      <use transform="scale(0.996264)" xlink:href="#CMR17-48"/>
      <use transform="translate(45.690477 0)scale(0.996264)" xlink:href="#CMMI12-58"/>
      <use transform="translate(72.787654 0)scale(0.996264)" xlink:href="#CMR17-50"/>
     </g>
    </g>
   </g>
   <g id="xtick_16">
    <g id="line2d_22">
     <path d="M 765.809581 68.217044 
L 770.412784 69.095895 
" style="fill:none;stroke:#000000;stroke-linecap:square;stroke-width:0.8;"/>
    </g>
    <g id="text_16">
     <!-- $0.4$ -->
     <g transform="translate(774.740347 80.551386)scale(0.2 -0.2)">
      <use transform="scale(0.996264)" xlink:href="#CMR17-48"/>
      <use transform="translate(45.690477 0)scale(0.996264)" xlink:href="#CMMI12-58"/>
      <use transform="translate(72.787654 0)scale(0.996264)" xlink:href="#CMR17-52"/>
     </g>
    </g>
   </g>
  </g>
  <g id="axes_2">
   <g id="Poly3DCollection_5">
    <path clip-path="url(#p0e9d5d923f)" d="M 589.5912 136.988232 
L 589.597202 137.476151 
L 639.851186 148.337776 
L 639.854737 147.845928 
z
" style="fill:#0cba97;fill-opacity:0.8;"/>
    <path clip-path="url(#p0e9d5d923f)" d="M 559.397067 155.965405 
L 559.409034 156.460156 
L 589.597202 137.476151 
L 589.5912 136.988232 
z
" style="fill:#065d4c;fill-opacity:0.8;"/>
    <path clip-path="url(#p0e9d5d923f)" d="M 559.409034 156.460156 
L 610.378332 167.797324 
L 639.851186 148.337776 
L 589.597202 137.476151 
z
" style="fill:#0aa384;fill-opacity:0.8;"/>
    <path clip-path="url(#p0e9d5d923f)" d="M 559.397067 155.965405 
L 589.5912 136.988232 
L 639.854737 147.845928 
L 610.376192 167.298565 
z
" style="fill:#08745e;fill-opacity:0.8;"/>
    <path clip-path="url(#p0e9d5d923f)" d="M 610.376192 167.298565 
L 639.854737 147.845928 
L 639.851186 148.337776 
L 610.378332 167.797324 
z
" style="fill:#0cba97;fill-opacity:0.8;"/>
    <path clip-path="url(#p0e9d5d923f)" d="M 559.397067 155.965405 
L 610.376192 167.298565 
L 610.378332 167.797324 
L 559.409034 156.460156 
z
" style="fill:#065d4c;fill-opacity:0.8;"/>
   </g>
   <g id="Poly3DCollection_6">
    <path clip-path="url(#p0e9d5d923f)" d="M 691.37176 158.974397 
L 691.37176 158.974397 
L 744.189751 170.383894 
L 744.189751 170.383894 
z
" style="fill:#065d4c;fill-opacity:0.8;"/>
    <path clip-path="url(#p0e9d5d923f)" d="M 662.654711 178.920594 
L 662.654711 178.920594 
L 691.37176 158.974397 
L 691.37176 158.974397 
z
" style="fill:#065d4c;fill-opacity:0.8;"/>
    <path clip-path="url(#p0e9d5d923f)" d="M 662.654711 178.920594 
L 716.282947 190.842678 
L 744.189751 170.383894 
L 691.37176 158.974397 
z
" style="fill:#0aa384;fill-opacity:0.8;"/>
    <path clip-path="url(#p0e9d5d923f)" d="M 662.654711 178.920594 
L 691.37176 158.974397 
L 744.189751 170.383894 
L 716.282947 190.842678 
z
" style="fill:#08745e;fill-opacity:0.8;"/>
    <path clip-path="url(#p0e9d5d923f)" d="M 716.282947 190.842678 
L 744.189751 170.383894 
L 744.189751 170.383894 
L 716.282947 190.842678 
z
" style="fill:#065d4c;fill-opacity:0.8;"/>
    <path clip-path="url(#p0e9d5d923f)" d="M 662.654711 178.920594 
L 716.282947 190.842678 
L 716.282947 190.842678 
L 662.654711 178.920594 
z
" style="fill:#065d4c;fill-opacity:0.8;"/>
   </g>
   <g id="Poly3DCollection_7">
    <path clip-path="url(#p0e9d5d923f)" d="M 527.874465 175.777527 
L 527.874465 175.777527 
L 579.583977 187.618082 
L 579.583977 187.618082 
z
" style="fill:#065d4c;fill-opacity:0.8;"/>
    <path clip-path="url(#p0e9d5d923f)" d="M 494.933748 196.480942 
L 494.933748 196.480942 
L 527.874465 175.777527 
L 527.874465 175.777527 
z
" style="fill:#065d4c;fill-opacity:0.8;"/>
    <path clip-path="url(#p0e9d5d923f)" d="M 494.933748 196.480942 
L 527.874465 175.777527 
L 579.583977 187.618082 
L 547.388278 208.863744 
z
" style="fill:#08745e;fill-opacity:0.8;"/>
    <path clip-path="url(#p0e9d5d923f)" d="M 494.933748 196.480942 
L 547.388278 208.863744 
L 579.583977 187.618082 
L 527.874465 175.777527 
z
" style="fill:#0aa384;fill-opacity:0.8;"/>
    <path clip-path="url(#p0e9d5d923f)" d="M 547.388278 208.863744 
L 579.583977 187.618082 
L 579.583977 187.618082 
L 547.388278 208.863744 
z
" style="fill:#065d4c;fill-opacity:0.8;"/>
    <path clip-path="url(#p0e9d5d923f)" d="M 494.933748 196.480942 
L 547.388278 208.863744 
L 547.388278 208.863744 
L 494.933748 196.480942 
z
" style="fill:#065d4c;fill-opacity:0.8;"/>
   </g>
   <g id="Poly3DCollection_8">
    <path clip-path="url(#p0e9d5d923f)" d="M 632.64125 199.76725 
L 632.643547 199.257111 
L 687.113189 211.722942 
L 687.099674 212.237256 
z
" style="fill:#065d4c;fill-opacity:0.8;"/>
    <path clip-path="url(#p0e9d5d923f)" d="M 601.241562 221.576747 
L 601.237398 221.05935 
L 632.643547 199.257111 
L 632.64125 199.76725 
z
" style="fill:#0cba97;fill-opacity:0.8;"/>
    <path clip-path="url(#p0e9d5d923f)" d="M 601.241562 221.576747 
L 632.64125 199.76725 
L 687.099674 212.237256 
L 656.550302 234.633336 
z
" style="fill:#08745e;fill-opacity:0.8;"/>
    <path clip-path="url(#p0e9d5d923f)" d="M 601.237398 221.05935 
L 656.557711 234.11169 
L 687.113189 211.722942 
L 632.643547 199.257111 
z
" style="fill:#0aa384;fill-opacity:0.8;"/>
    <path clip-path="url(#p0e9d5d923f)" d="M 656.550302 234.633336 
L 687.099674 212.237256 
L 687.113189 211.722942 
L 656.557711 234.11169 
z
" style="fill:#065d4c;fill-opacity:0.8;"/>
    <path clip-path="url(#p0e9d5d923f)" d="M 601.241562 221.576747 
L 656.550302 234.633336 
L 656.557711 234.11169 
L 601.237398 221.05935 
z
" style="fill:#0cba97;fill-opacity:0.8;"/>
   </g>
   <g id="Poly3DCollection_9">
    <path clip-path="url(#p0e9d5d923f)" d="M 482.097194 197.824926 
L 660.289772 240.086529 
L 756.290182 169.116982 
L 586.592029 132.614603 
z
" style="fill-opacity:0.2;"/>
   </g>
  </g>
 </g>
 <defs>
  <clipPath id="pee29d91468">
   <rect height="277.2" width="380.454545" x="-30.6" y="-14.4"/>
  </clipPath>
  <clipPath id="p0e9d5d923f">
   <rect height="277.2" width="380.454545" x="425.945455" y="-14.4"/>
  </clipPath>
 </defs>
</svg>
