<?xml version="1.0" encoding="utf-8" standalone="no"?>
<!DOCTYPE svg PUBLIC "-//W3C//DTD SVG 1.1//EN"
  "http://www.w3.org/Graphics/SVG/1.1/DTD/svg11.dtd">
<!-- Created with matplotlib (https://matplotlib.org/) -->
<svg height="302.4pt" version="1.1" viewBox="0 0 820.8 302.4" width="820.8pt" xmlns="http://www.w3.org/2000/svg" xmlns:xlink="http://www.w3.org/1999/xlink">
 <defs>
  <style type="text/css">
*{stroke-linecap:butt;stroke-linejoin:round;}
  </style>
 </defs>
 <g id="figure_1">
  <g id="patch_1">
   <path d="M 0 302.4 
L 820.8 302.4 
L 820.8 0 
L 0 0 
z
" style="fill:#ffffff;"/>
  </g>
  <g id="patch_2">
   <path d="M -30.6 262.8 
L 349.854545 262.8 
L 349.854545 -14.4 
L -30.6 -14.4 
z
" style="fill:#ffffff;"/>
  </g>
  <g id="pane3d_1">
   <g id="patch_3">
    <path d="M 19.835129 201.548569 
L 128.723211 133.58541 
L 126.910339 3.718968 
L 11.951034 64.782468 
" style="fill:#f2f2f2;opacity:0.5;stroke:#f2f2f2;stroke-linejoin:miter;"/>
   </g>
  </g>
  <g id="pane3d_2">
   <g id="patch_4">
    <path d="M 128.723211 133.58541 
L 305.111665 171.581202 
L 312.491547 37.79869 
L 126.910339 3.718968 
" style="fill:#e6e6e6;opacity:0.5;stroke:#e6e6e6;stroke-linejoin:miter;"/>
   </g>
  </g>
  <g id="pane3d_3">
   <g id="patch_5">
    <path d="M 19.835129 201.548569 
L 205.419617 245.80086 
L 305.111665 171.581202 
L 128.723211 133.58541 
" style="fill:#ececec;opacity:0.5;stroke:#ececec;stroke-linejoin:miter;"/>
   </g>
  </g>
  <g id="axis3d_1">
   <g id="line2d_1">
    <path d="M 19.835129 201.548569 
L 205.419617 245.80086 
" style="fill:none;stroke:#000000;stroke-linecap:square;stroke-width:0.8;"/>
   </g>
   <g id="Line3DCollection_1">
    <path d="M 57.25499 210.471268 
L 164.384175 141.267129 
L 164.364666 10.596997 
" style="fill:none;stroke:#b0b0b0;stroke-width:0.8;"/>
    <path d="M 165.194119 236.209161 
L 266.979744 163.367214 
L 272.30378 30.418697 
" style="fill:none;stroke:#b0b0b0;stroke-width:0.8;"/>
   </g>
   <g id="xtick_1">
    <g id="line2d_2">
     <path d="M 58.178395 209.87476 
L 55.404712 211.666525 
" style="fill:none;stroke:#000000;stroke-linecap:square;stroke-width:0.8;"/>
    </g>
    <g id="text_1">
     <!-- 0 -->
     <defs>
      <path d="M 42 31.84375 
C 42 37.96875 41.90625 48.421875 37.703125 56.453125 
C 34 63.484375 28.09375 66 22.90625 66 
C 18.09375 66 12 63.78125 8.203125 56.5625 
C 4.203125 49.015625 3.796875 39.671875 3.796875 31.84375 
C 3.796875 26.109375 3.90625 17.375 7 9.734375 
C 11.296875 -0.609375 19 -2 22.90625 -2 
C 27.5 -2 34.5 -0.109375 38.59375 9.4375 
C 41.59375 16.375 42 24.5 42 31.84375 
z
M 22.90625 -0.40625 
C 16.5 -0.40625 12.703125 5.125 11.296875 12.75 
C 10.203125 18.6875 10.203125 27.328125 10.203125 32.953125 
C 10.203125 40.6875 10.203125 47.109375 11.5 53.234375 
C 13.40625 61.78125 19 64.390625 22.90625 64.390625 
C 27 64.390625 32.296875 61.671875 34.203125 53.4375 
C 35.5 47.71875 35.59375 40.984375 35.59375 32.953125 
C 35.59375 26.421875 35.59375 18.375 34.40625 12.453125 
C 32.296875 1.5 26.40625 -0.40625 22.90625 -0.40625 
z
" id="CMR17-48"/>
     </defs>
     <g transform="translate(40.660521 240.511804)rotate(-45)scale(0.2 -0.2)">
      <use transform="scale(0.996264)" xlink:href="#CMR17-48"/>
     </g>
    </g>
   </g>
   <g id="xtick_2">
    <g id="line2d_3">
     <path d="M 166.073164 235.580081 
L 163.432641 237.469747 
" style="fill:none;stroke:#000000;stroke-linecap:square;stroke-width:0.8;"/>
    </g>
    <g id="text_2">
     <!-- 1 -->
     <defs>
      <path d="M 26.59375 63.796875 
C 26.59375 65.890625 26.5 66 25.09375 66 
C 21.203125 61.359375 15.296875 59.890625 9.703125 59.6875 
C 9.40625 59.6875 8.90625 59.6875 8.796875 59.5 
C 8.703125 59.296875 8.703125 59.09375 8.703125 57 
C 11.796875 57 17 57.59375 21 59.984375 
L 21 7.296875 
C 21 3.796875 20.796875 2.59375 12.203125 2.59375 
L 9.203125 2.59375 
L 9.203125 0 
C 14 0.09375 19 0.1875 23.796875 0.1875 
C 28.59375 0.1875 33.59375 0.09375 38.40625 0 
L 38.40625 2.59375 
L 35.40625 2.59375 
C 26.796875 2.59375 26.59375 3.6875 26.59375 7.296875 
z
" id="CMR17-49"/>
     </defs>
     <g transform="translate(148.594247 266.668398)rotate(-45)scale(0.2 -0.2)">
      <use transform="scale(0.996264)" xlink:href="#CMR17-49"/>
     </g>
    </g>
   </g>
  </g>
  <g id="axis3d_2">
   <g id="line2d_4">
    <path d="M 305.111665 171.581202 
L 205.419617 245.80086 
" style="fill:none;stroke:#000000;stroke-linecap:square;stroke-width:0.8;"/>
   </g>
   <g id="Line3DCollection_2">
    <path d="M 37.513203 51.204485 
L 43.973964 186.482168 
L 227.577572 229.3045 
" style="fill:none;stroke:#b0b0b0;stroke-width:0.8;"/>
    <path d="M 104.330597 15.712761 
L 107.268846 146.976282 
L 285.52205 186.16546 
" style="fill:none;stroke:#b0b0b0;stroke-width:0.8;"/>
   </g>
   <g id="xtick_3">
    <g id="line2d_5">
     <path d="M 226.041757 228.946298 
L 230.652597 230.021696 
" style="fill:none;stroke:#000000;stroke-linecap:square;stroke-width:0.8;"/>
    </g>
    <g id="text_3">
     <!-- 0 -->
     <g transform="translate(241.72625 244.025805)rotate(-337.5)scale(0.2 -0.2)">
      <use transform="scale(0.996264)" xlink:href="#CMR17-48"/>
     </g>
    </g>
   </g>
   <g id="xtick_4">
    <g id="line2d_6">
     <path d="M 284.033869 185.838281 
L 288.501553 186.820507 
" style="fill:none;stroke:#000000;stroke-linecap:square;stroke-width:0.8;"/>
    </g>
    <g id="text_4">
     <!-- 1 -->
     <g transform="translate(299.08354 200.381007)rotate(-337.5)scale(0.2 -0.2)">
      <use transform="scale(0.996264)" xlink:href="#CMR17-49"/>
     </g>
    </g>
   </g>
  </g>
  <g id="axis3d_3">
   <g id="line2d_7">
    <path d="M 305.111665 171.581202 
L 312.491547 37.79869 
" style="fill:none;stroke:#000000;stroke-linecap:square;stroke-width:0.8;"/>
   </g>
   <g id="Line3DCollection_3">
    <path d="M 305.256942 168.94763 
L 128.687447 131.023463 
L 19.680189 198.860803 
" style="fill:none;stroke:#b0b0b0;stroke-width:0.8;"/>
    <path d="M 307.991984 119.366773 
L 128.014719 82.832063 
L 16.761248 148.225679 
" style="fill:none;stroke:#b0b0b0;stroke-width:0.8;"/>
    <path d="M 310.835633 67.817096 
L 127.316428 32.809475 
L 13.722447 95.511332 
" style="fill:none;stroke:#b0b0b0;stroke-width:0.8;"/>
   </g>
   <g id="xtick_5">
    <g id="line2d_8">
     <path d="M 303.783719 168.631206 
L 308.206451 169.581135 
" style="fill:none;stroke:#000000;stroke-linecap:square;stroke-width:0.8;"/>
    </g>
    <g id="text_5">
     <!-- $0.0$ -->
     <defs>
      <path d="M 18.40625 4.796875 
C 18.40625 7.6875 16 9.6875 13.59375 9.6875 
C 10.703125 9.6875 8.703125 7.296875 8.703125 4.890625 
C 8.703125 2 11.09375 0 13.5 0 
C 16.40625 0 18.40625 2.390625 18.40625 4.796875 
z
" id="CMMI12-58"/>
     </defs>
     <g transform="translate(311.937548 180.843839)scale(0.2 -0.2)">
      <use transform="scale(0.996264)" xlink:href="#CMR17-48"/>
      <use transform="translate(45.690477 0)scale(0.996264)" xlink:href="#CMMI12-58"/>
      <use transform="translate(72.787654 0)scale(0.996264)" xlink:href="#CMR17-48"/>
     </g>
    </g>
   </g>
   <g id="xtick_6">
    <g id="line2d_9">
     <path d="M 306.489125 119.061698 
L 311.000889 119.977569 
" style="fill:none;stroke:#000000;stroke-linecap:square;stroke-width:0.8;"/>
    </g>
    <g id="text_6">
     <!-- $0.2$ -->
     <defs>
      <path d="M 41.703125 15.46875 
L 39.90625 15.46875 
C 38.90625 8.390625 38.09375 7.1875 37.703125 6.59375 
C 37.203125 5.796875 30 5.796875 28.59375 5.796875 
L 9.40625 5.796875 
C 13 9.6875 20 16.765625 28.5 24.9375 
C 34.59375 30.71875 41.703125 37.5 41.703125 47.390625 
C 41.703125 59.1875 32.296875 66 21.796875 66 
C 10.796875 66 4.09375 56.296875 4.09375 47.296875 
C 4.09375 43.390625 7 42.890625 8.203125 42.890625 
C 9.203125 42.890625 12.203125 43.484375 12.203125 46.984375 
C 12.203125 50.09375 9.59375 51 8.203125 51 
C 7.59375 51 7 50.890625 6.59375 50.6875 
C 8.5 59.1875 14.296875 63.390625 20.40625 63.390625 
C 29.09375 63.390625 34.796875 56.5 34.796875 47.390625 
C 34.796875 38.703125 29.703125 31.21875 24 24.734375 
L 4.09375 2.296875 
L 4.09375 0 
L 39.296875 0 
z
" id="CMR17-50"/>
     </defs>
     <g transform="translate(315.026599 131.332654)scale(0.2 -0.2)">
      <use transform="scale(0.996264)" xlink:href="#CMR17-48"/>
      <use transform="translate(45.690477 0)scale(0.996264)" xlink:href="#CMMI12-58"/>
      <use transform="translate(72.787654 0)scale(0.996264)" xlink:href="#CMR17-50"/>
     </g>
    </g>
   </g>
   <g id="xtick_7">
    <g id="line2d_10">
     <path d="M 309.301922 67.52453 
L 313.906372 68.402862 
" style="fill:none;stroke:#000000;stroke-linecap:square;stroke-width:0.8;"/>
    </g>
    <g id="text_7">
     <!-- $0.4$ -->
     <defs>
      <path d="M 33.59375 64.796875 
C 33.59375 66.890625 33.5 67 31.703125 67 
L 2 19.59375 
L 2 17 
L 27.796875 17 
L 27.796875 7.1875 
C 27.796875 3.59375 27.59375 2.59375 20.59375 2.59375 
L 18.703125 2.59375 
L 18.703125 0 
C 21.90625 0.1875 27.296875 0.1875 30.703125 0.1875 
C 34.09375 0.1875 39.5 0.1875 42.703125 0 
L 42.703125 2.59375 
L 40.796875 2.59375 
C 33.796875 2.59375 33.59375 3.59375 33.59375 7.1875 
L 33.59375 17 
L 43.796875 17 
L 43.796875 19.59375 
L 33.59375 19.59375 
z
M 28.09375 58.171875 
L 28.09375 19.59375 
L 4 19.59375 
z
" id="CMR17-52"/>
     </defs>
     <g transform="translate(318.238044 79.859759)scale(0.2 -0.2)">
      <use transform="scale(0.996264)" xlink:href="#CMR17-48"/>
      <use transform="translate(45.690477 0)scale(0.996264)" xlink:href="#CMMI12-58"/>
      <use transform="translate(72.787654 0)scale(0.996264)" xlink:href="#CMR17-52"/>
     </g>
    </g>
   </g>
  </g>
  <g id="axes_1">
   <g id="Poly3DCollection_1">
    <path clip-path="url(#p07caf4c46b)" d="M 133.050677 137.389113 
L 133.051747 137.476151 
L 183.305731 148.337776 
L 183.306365 148.250037 
z
" style="fill:#ba0c2f;fill-opacity:0.8;"/>
    <path clip-path="url(#p07caf4c46b)" d="M 102.861445 156.3719 
L 102.863579 156.460156 
L 133.051747 137.476151 
L 133.050677 137.389113 
z
" style="fill:#5d0618;fill-opacity:0.8;"/>
    <path clip-path="url(#p07caf4c46b)" d="M 102.863579 156.460156 
L 153.832878 167.797324 
L 183.305731 148.337776 
L 133.051747 137.476151 
z
" style="fill:#a30a29;fill-opacity:0.8;"/>
    <path clip-path="url(#p07caf4c46b)" d="M 102.861445 156.3719 
L 133.050677 137.389113 
L 183.306365 148.250037 
L 153.832496 167.708353 
z
" style="fill:#74081d;fill-opacity:0.8;"/>
    <path clip-path="url(#p07caf4c46b)" d="M 153.832496 167.708353 
L 183.306365 148.250037 
L 183.305731 148.337776 
L 153.832878 167.797324 
z
" style="fill:#ba0c2f;fill-opacity:0.8;"/>
    <path clip-path="url(#p07caf4c46b)" d="M 102.861445 156.3719 
L 153.832496 167.708353 
L 153.832878 167.797324 
L 102.863579 156.460156 
z
" style="fill:#5d0618;fill-opacity:0.8;"/>
   </g>
   <g id="Poly3DCollection_2">
    <path clip-path="url(#p07caf4c46b)" d="M 176.09391 200.186218 
L 176.0935 200.277182 
L 230.54071 212.751359 
L 230.54312 212.659652 
z
" style="fill:#ba0c2f;fill-opacity:0.8;"/>
    <path clip-path="url(#p07caf4c46b)" d="M 144.699527 222.001673 
L 144.700269 222.09393 
L 176.0935 200.277182 
L 176.09391 200.186218 
z
" style="fill:#5d0618;fill-opacity:0.8;"/>
    <path clip-path="url(#p07caf4c46b)" d="M 144.700269 222.09393 
L 199.997442 235.154762 
L 230.54071 212.751359 
L 176.0935 200.277182 
z
" style="fill:#a30a29;fill-opacity:0.8;"/>
    <path clip-path="url(#p07caf4c46b)" d="M 144.699527 222.001673 
L 176.09391 200.186218 
L 230.54312 212.659652 
L 199.998763 235.061749 
z
" style="fill:#74081d;fill-opacity:0.8;"/>
    <path clip-path="url(#p07caf4c46b)" d="M 199.998763 235.061749 
L 230.54312 212.659652 
L 230.54071 212.751359 
L 199.997442 235.154762 
z
" style="fill:#ba0c2f;fill-opacity:0.8;"/>
    <path clip-path="url(#p07caf4c46b)" d="M 144.699527 222.001673 
L 199.998763 235.061749 
L 199.997442 235.154762 
L 144.700269 222.09393 
z
" style="fill:#5d0618;fill-opacity:0.8;"/>
   </g>
   <g id="Poly3DCollection_3">
    <path clip-path="url(#p07caf4c46b)" d="M 206.102524 179.333711 
L 234.815143 159.38177 
L 287.624471 170.79457 
L 259.721827 191.25916 
z
" style="fill:#74081d;fill-opacity:0.8;"/>
    <path clip-path="url(#p07caf4c46b)" d="M 234.815143 159.38177 
L 238.306089 31.980216 
L 293.828503 42.279736 
L 287.624471 170.79457 
z
" style="fill:#5d0618;fill-opacity:0.8;"/>
    <path clip-path="url(#p07caf4c46b)" d="M 206.102524 179.333711 
L 208.210289 49.994399 
L 238.306089 31.980216 
L 234.815143 159.38177 
z
" style="fill:#ba0c2f;fill-opacity:0.8;"/>
    <path clip-path="url(#p07caf4c46b)" d="M 259.721827 191.25916 
L 287.624471 170.79457 
L 293.828503 42.279736 
L 264.629552 60.78059 
z
" style="fill:#5d0618;fill-opacity:0.8;"/>
    <path clip-path="url(#p07caf4c46b)" d="M 206.102524 179.333711 
L 259.721827 191.25916 
L 264.629552 60.78059 
L 208.210289 49.994399 
z
" style="fill:#ba0c2f;fill-opacity:0.8;"/>
    <path clip-path="url(#p07caf4c46b)" d="M 208.210289 49.994399 
L 264.629552 60.78059 
L 293.828503 42.279736 
L 238.306089 31.980216 
z
" style="fill:#a30a29;fill-opacity:0.8;"/>
   </g>
   <g id="Poly3DCollection_4">
    <path clip-path="url(#p07caf4c46b)" d="M 25.574875 198.243355 
L 203.73755 240.51638 
L 299.72298 169.527293 
L 130.051946 133.014172 
z
" style="fill-opacity:0.15;"/>
   </g>
   <g id="Poly3DCollection_5">
    <path clip-path="url(#p07caf4c46b)" d="M 38.409266 196.898997 
L 71.344175 176.189747 
L 123.045382 188.033658 
L 90.855253 209.285218 
z
" style="fill:#74081d;fill-opacity:0.8;"/>
    <path clip-path="url(#p07caf4c46b)" d="M 71.344175 176.189747 
L 66.645625 48.470216 
L 120.918652 59.191338 
L 123.045382 188.033658 
z
" style="fill:#5d0618;fill-opacity:0.8;"/>
    <path clip-path="url(#p07caf4c46b)" d="M 38.409266 196.898997 
L 31.904055 67.225342 
L 66.645625 48.470216 
L 71.344175 176.189747 
z
" style="fill:#ba0c2f;fill-opacity:0.8;"/>
    <path clip-path="url(#p07caf4c46b)" d="M 90.855253 209.285218 
L 123.045382 188.033658 
L 120.918652 59.191338 
L 86.997388 78.463112 
z
" style="fill:#5d0618;fill-opacity:0.8;"/>
    <path clip-path="url(#p07caf4c46b)" d="M 38.409266 196.898997 
L 90.855253 209.285218 
L 86.997388 78.463112 
L 31.904055 67.225342 
z
" style="fill:#ba0c2f;fill-opacity:0.8;"/>
    <path clip-path="url(#p07caf4c46b)" d="M 31.904055 67.225342 
L 86.997388 78.463112 
L 120.918652 59.191338 
L 66.645625 48.470216 
z
" style="fill:#a30a29;fill-opacity:0.8;"/>
   </g>
  </g>
  <g id="patch_6">
   <path d="M 425.945455 262.8 
L 806.4 262.8 
L 806.4 -14.4 
L 425.945455 -14.4 
z
" style="fill:#ffffff;"/>
  </g>
  <g id="pane3d_4">
   <g id="patch_7">
    <path d="M 476.380584 201.548569 
L 585.268665 133.58541 
L 583.455794 3.718968 
L 468.496488 64.782468 
" style="fill:#f2f2f2;opacity:0.5;stroke:#f2f2f2;stroke-linejoin:miter;"/>
   </g>
  </g>
  <g id="pane3d_5">
   <g id="patch_8">
    <path d="M 585.268665 133.58541 
L 761.65712 171.581202 
L 769.037001 37.79869 
L 583.455794 3.718968 
" style="fill:#e6e6e6;opacity:0.5;stroke:#e6e6e6;stroke-linejoin:miter;"/>
   </g>
  </g>
  <g id="pane3d_6">
   <g id="patch_9">
    <path d="M 476.380584 201.548569 
L 661.965072 245.80086 
L 761.65712 171.581202 
L 585.268665 133.58541 
" style="fill:#ececec;opacity:0.5;stroke:#ececec;stroke-linejoin:miter;"/>
   </g>
  </g>
  <g id="axis3d_4">
   <g id="line2d_11">
    <path d="M 476.380584 201.548569 
L 661.965072 245.80086 
" style="fill:none;stroke:#000000;stroke-linecap:square;stroke-width:0.8;"/>
   </g>
   <g id="Line3DCollection_4">
    <path d="M 513.800444 210.471268 
L 620.92963 141.267129 
L 620.91012 10.596997 
" style="fill:none;stroke:#b0b0b0;stroke-width:0.8;"/>
    <path d="M 621.739574 236.209161 
L 723.525199 163.367214 
L 728.849235 30.418697 
" style="fill:none;stroke:#b0b0b0;stroke-width:0.8;"/>
   </g>
   <g id="xtick_8">
    <g id="line2d_12">
     <path d="M 514.72385 209.87476 
L 511.950167 211.666525 
" style="fill:none;stroke:#000000;stroke-linecap:square;stroke-width:0.8;"/>
    </g>
    <g id="text_8">
     <!-- 0 -->
     <g transform="translate(497.205976 240.511804)rotate(-45)scale(0.2 -0.2)">
      <use transform="scale(0.996264)" xlink:href="#CMR17-48"/>
     </g>
    </g>
   </g>
   <g id="xtick_9">
    <g id="line2d_13">
     <path d="M 622.618618 235.580081 
L 619.978095 237.469747 
" style="fill:none;stroke:#000000;stroke-linecap:square;stroke-width:0.8;"/>
    </g>
    <g id="text_9">
     <!-- 1 -->
     <g transform="translate(605.139701 266.668398)rotate(-45)scale(0.2 -0.2)">
      <use transform="scale(0.996264)" xlink:href="#CMR17-49"/>
     </g>
    </g>
   </g>
  </g>
  <g id="axis3d_5">
   <g id="line2d_14">
    <path d="M 761.65712 171.581202 
L 661.965072 245.80086 
" style="fill:none;stroke:#000000;stroke-linecap:square;stroke-width:0.8;"/>
   </g>
   <g id="Line3DCollection_5">
    <path d="M 494.058657 51.204485 
L 500.519418 186.482168 
L 684.123027 229.3045 
" style="fill:none;stroke:#b0b0b0;stroke-width:0.8;"/>
    <path d="M 560.876051 15.712761 
L 563.814301 146.976282 
L 742.067505 186.16546 
" style="fill:none;stroke:#b0b0b0;stroke-width:0.8;"/>
   </g>
   <g id="xtick_10">
    <g id="line2d_15">
     <path d="M 682.587211 228.946298 
L 687.198051 230.021696 
" style="fill:none;stroke:#000000;stroke-linecap:square;stroke-width:0.8;"/>
    </g>
    <g id="text_10">
     <!-- 0 -->
     <g transform="translate(698.271704 244.025805)rotate(-337.5)scale(0.2 -0.2)">
      <use transform="scale(0.996264)" xlink:href="#CMR17-48"/>
     </g>
    </g>
   </g>
   <g id="xtick_11">
    <g id="line2d_16">
     <path d="M 740.579324 185.838281 
L 745.047008 186.820507 
" style="fill:none;stroke:#000000;stroke-linecap:square;stroke-width:0.8;"/>
    </g>
    <g id="text_11">
     <!-- 1 -->
     <g transform="translate(755.628995 200.381007)rotate(-337.5)scale(0.2 -0.2)">
      <use transform="scale(0.996264)" xlink:href="#CMR17-49"/>
     </g>
    </g>
   </g>
  </g>
  <g id="axis3d_6">
   <g id="line2d_17">
    <path d="M 761.65712 171.581202 
L 769.037001 37.79869 
" style="fill:none;stroke:#000000;stroke-linecap:square;stroke-width:0.8;"/>
   </g>
   <g id="Line3DCollection_6">
    <path d="M 761.918279 166.846907 
L 585.204376 128.980031 
L 476.102044 196.716721 
" style="fill:none;stroke:#b0b0b0;stroke-width:0.8;"/>
    <path d="M 764.609913 118.05296 
L 584.542362 81.556127 
L 473.229305 146.883051 
" style="fill:none;stroke:#b0b0b0;stroke-width:0.8;"/>
    <path d="M 767.406612 67.354395 
L 583.855621 32.360861 
L 470.240608 95.03786 
" style="fill:none;stroke:#b0b0b0;stroke-width:0.8;"/>
   </g>
   <g id="xtick_12">
    <g id="line2d_18">
     <path d="M 760.443802 166.530951 
L 764.870303 167.479477 
" style="fill:none;stroke:#000000;stroke-linecap:square;stroke-width:0.8;"/>
    </g>
    <g id="text_12">
     <!-- $0.0$ -->
     <g transform="translate(768.613889 178.745985)scale(0.2 -0.2)">
      <use transform="scale(0.996264)" xlink:href="#CMR17-48"/>
      <use transform="translate(45.690477 0)scale(0.996264)" xlink:href="#CMMI12-58"/>
      <use transform="translate(72.787654 0)scale(0.996264)" xlink:href="#CMR17-48"/>
     </g>
    </g>
   </g>
   <g id="xtick_13">
    <g id="line2d_19">
     <path d="M 763.106268 117.748195 
L 767.620393 118.663136 
" style="fill:none;stroke:#000000;stroke-linecap:square;stroke-width:0.8;"/>
    </g>
    <g id="text_13">
     <!-- $0.2$ -->
     <g transform="translate(771.653905 130.020744)scale(0.2 -0.2)">
      <use transform="scale(0.996264)" xlink:href="#CMR17-48"/>
      <use transform="translate(45.690477 0)scale(0.996264)" xlink:href="#CMMI12-58"/>
      <use transform="translate(72.787654 0)scale(0.996264)" xlink:href="#CMR17-50"/>
     </g>
    </g>
   </g>
   <g id="xtick_14">
    <g id="line2d_20">
     <path d="M 765.872624 67.061944 
L 770.477906 67.93993 
" style="fill:none;stroke:#000000;stroke-linecap:square;stroke-width:0.8;"/>
    </g>
    <g id="text_14">
     <!-- $0.4$ -->
     <g transform="translate(774.812322 79.397767)scale(0.2 -0.2)">
      <use transform="scale(0.996264)" xlink:href="#CMR17-48"/>
      <use transform="translate(45.690477 0)scale(0.996264)" xlink:href="#CMMI12-58"/>
      <use transform="translate(72.787654 0)scale(0.996264)" xlink:href="#CMR17-52"/>
     </g>
    </g>
   </g>
  </g>
  <g id="axes_2">
   <g id="Poly3DCollection_6">
    <path clip-path="url(#pd1b1918d75)" d="M 589.570873 135.335884 
L 589.5445 133.19206 
L 639.882367 144.019115 
L 639.866763 146.18026 
z
" style="fill:#065d4c;fill-opacity:0.8;"/>
    <path clip-path="url(#pd1b1918d75)" d="M 559.356538 154.289887 
L 559.303953 152.115935 
L 589.5445 133.19206 
L 589.570873 135.335884 
z
" style="fill:#0cba97;fill-opacity:0.8;"/>
    <path clip-path="url(#pd1b1918d75)" d="M 559.356538 154.289887 
L 589.570873 135.335884 
L 639.866763 146.18026 
L 610.368942 165.609461 
z
" style="fill:#08745e;fill-opacity:0.8;"/>
    <path clip-path="url(#pd1b1918d75)" d="M 559.303953 152.115935 
L 610.359536 163.417838 
L 639.882367 144.019115 
L 589.5445 133.19206 
z
" style="fill:#0aa384;fill-opacity:0.8;"/>
    <path clip-path="url(#pd1b1918d75)" d="M 610.368942 165.609461 
L 639.866763 146.18026 
L 639.882367 144.019115 
L 610.359536 163.417838 
z
" style="fill:#065d4c;fill-opacity:0.8;"/>
    <path clip-path="url(#pd1b1918d75)" d="M 559.356538 154.289887 
L 610.368942 165.609461 
L 610.359536 163.417838 
L 559.303953 152.115935 
z
" style="fill:#0cba97;fill-opacity:0.8;"/>
   </g>
   <g id="Poly3DCollection_7">
    <path clip-path="url(#pd1b1918d75)" d="M 691.41777 157.295254 
L 691.41777 157.295254 
L 744.271469 168.691123 
L 744.271469 168.691123 
z
" style="fill:#065d4c;fill-opacity:0.8;"/>
    <path clip-path="url(#pd1b1918d75)" d="M 662.682462 177.21775 
L 662.682462 177.21775 
L 691.41777 157.295254 
L 691.41777 157.295254 
z
" style="fill:#065d4c;fill-opacity:0.8;"/>
    <path clip-path="url(#pd1b1918d75)" d="M 662.682462 177.21775 
L 691.41777 157.295254 
L 744.271469 168.691123 
L 716.347519 189.125944 
z
" style="fill:#08745e;fill-opacity:0.8;"/>
    <path clip-path="url(#pd1b1918d75)" d="M 662.682462 177.21775 
L 716.347519 189.125944 
L 744.271469 168.691123 
L 691.41777 157.295254 
z
" style="fill:#0aa384;fill-opacity:0.8;"/>
    <path clip-path="url(#pd1b1918d75)" d="M 716.347519 189.125944 
L 744.271469 168.691123 
L 744.271469 168.691123 
L 716.347519 189.125944 
z
" style="fill:#065d4c;fill-opacity:0.8;"/>
    <path clip-path="url(#pd1b1918d75)" d="M 662.682462 177.21775 
L 716.347519 189.125944 
L 716.347519 189.125944 
L 662.682462 177.21775 
z
" style="fill:#065d4c;fill-opacity:0.8;"/>
   </g>
   <g id="Poly3DCollection_8">
    <path clip-path="url(#pd1b1918d75)" d="M 527.811957 174.078379 
L 527.811957 174.078379 
L 579.555701 185.905084 
L 579.555701 185.905084 
z
" style="fill:#065d4c;fill-opacity:0.8;"/>
    <path clip-path="url(#pd1b1918d75)" d="M 494.8473 194.75771 
L 494.8473 194.75771 
L 527.811957 174.078379 
L 527.811957 174.078379 
z
" style="fill:#065d4c;fill-opacity:0.8;"/>
    <path clip-path="url(#pd1b1918d75)" d="M 494.8473 194.75771 
L 547.337045 207.126405 
L 579.555701 185.905084 
L 527.811957 174.078379 
z
" style="fill:#0aa384;fill-opacity:0.8;"/>
    <path clip-path="url(#pd1b1918d75)" d="M 494.8473 194.75771 
L 527.811957 174.078379 
L 579.555701 185.905084 
L 547.337045 207.126405 
z
" style="fill:#08745e;fill-opacity:0.8;"/>
    <path clip-path="url(#pd1b1918d75)" d="M 547.337045 207.126405 
L 579.555701 185.905084 
L 579.555701 185.905084 
L 547.337045 207.126405 
z
" style="fill:#065d4c;fill-opacity:0.8;"/>
    <path clip-path="url(#pd1b1918d75)" d="M 494.8473 194.75771 
L 547.337045 207.126405 
L 547.337045 207.126405 
L 494.8473 194.75771 
z
" style="fill:#065d4c;fill-opacity:0.8;"/>
   </g>
   <g id="Poly3DCollection_9">
    <path clip-path="url(#pd1b1918d75)" d="M 632.649026 198.040252 
L 632.638955 200.277182 
L 687.086164 212.751359 
L 687.145427 210.496112 
z
" style="fill:#0cba97;fill-opacity:0.8;"/>
    <path clip-path="url(#pd1b1918d75)" d="M 601.227465 219.825156 
L 601.245724 222.09393 
L 632.638955 200.277182 
L 632.649026 198.040252 
z
" style="fill:#065d4c;fill-opacity:0.8;"/>
    <path clip-path="url(#pd1b1918d75)" d="M 601.245724 222.09393 
L 656.542897 235.154762 
L 687.086164 212.751359 
L 632.638955 200.277182 
z
" style="fill:#0aa384;fill-opacity:0.8;"/>
    <path clip-path="url(#pd1b1918d75)" d="M 601.227465 219.825156 
L 632.649026 198.040252 
L 687.145427 210.496112 
L 656.575383 232.867351 
z
" style="fill:#08745e;fill-opacity:0.8;"/>
    <path clip-path="url(#pd1b1918d75)" d="M 656.575383 232.867351 
L 687.145427 210.496112 
L 687.086164 212.751359 
L 656.542897 235.154762 
z
" style="fill:#0cba97;fill-opacity:0.8;"/>
    <path clip-path="url(#pd1b1918d75)" d="M 601.227465 219.825156 
L 656.575383 232.867351 
L 656.542897 235.154762 
L 601.245724 222.09393 
z
" style="fill:#065d4c;fill-opacity:0.8;"/>
   </g>
   <g id="Poly3DCollection_10">
    <path clip-path="url(#pd1b1918d75)" d="M 482.001829 196.100152 
L 660.317669 238.314606 
L 756.379823 167.425715 
L 586.569891 130.967669 
z
" style="fill-opacity:0.2;"/>
   </g>
  </g>
 </g>
 <defs>
  <clipPath id="p07caf4c46b">
   <rect height="277.2" width="380.454545" x="-30.6" y="-14.4"/>
  </clipPath>
  <clipPath id="pd1b1918d75">
   <rect height="277.2" width="380.454545" x="425.945455" y="-14.4"/>
  </clipPath>
 </defs>
</svg>
