<?xml version="1.0" encoding="utf-8" standalone="no"?>
<!DOCTYPE svg PUBLIC "-//W3C//DTD SVG 1.1//EN"
  "http://www.w3.org/Graphics/SVG/1.1/DTD/svg11.dtd">
<!-- Created with matplotlib (https://matplotlib.org/) -->
<svg height="542.8356pt" version="1.1" viewBox="0 0 1410.58248 542.8356" width="1410.58248pt" xmlns="http://www.w3.org/2000/svg" xmlns:xlink="http://www.w3.org/1999/xlink">
 <defs>
  <style type="text/css">
*{stroke-linecap:butt;stroke-linejoin:round;}
  </style>
 </defs>
 <g id="figure_1">
  <g id="patch_1">
   <path d="M 0 542.8356 
L 1410.58248 542.8356 
L 1410.58248 0 
L 0 0 
z
" style="fill:#ffffff;"/>
  </g>
  <g id="axes_1">
   <g id="line2d_1">
    <path clip-path="url(#p274a7ed27d)" d="M 216.72008 44.2832 
L 1398.74708 44.2832 
" style="fill:none;stroke:#000000;stroke-linecap:square;stroke-width:2;"/>
   </g>
   <g id="line2d_2">
    <path clip-path="url(#p274a7ed27d)" d="M 216.72008 90.6372 
L 1398.74708 90.6372 
" style="fill:none;stroke:#000000;stroke-linecap:square;stroke-width:2;"/>
   </g>
   <g id="line2d_3">
    <path clip-path="url(#p274a7ed27d)" d="M 216.72008 136.9912 
L 1398.74708 136.9912 
" style="fill:none;stroke:#000000;stroke-linecap:square;stroke-width:2;"/>
   </g>
   <g id="line2d_4">
    <path clip-path="url(#p274a7ed27d)" d="M 216.72008 183.3452 
L 1398.74708 183.3452 
" style="fill:none;stroke:#000000;stroke-linecap:square;stroke-width:2;"/>
   </g>
   <g id="line2d_5">
    <path clip-path="url(#p274a7ed27d)" d="M 216.72008 229.6992 
L 1398.74708 229.6992 
" style="fill:none;stroke:#000000;stroke-linecap:square;stroke-width:2;"/>
   </g>
   <g id="line2d_6">
    <path clip-path="url(#p274a7ed27d)" d="M 216.72008 322.4072 
L 1398.74708 322.4072 
" style="fill:none;stroke:#000000;stroke-linecap:square;stroke-width:2;"/>
   </g>
   <g id="line2d_7">
    <path clip-path="url(#p274a7ed27d)" d="M 216.72008 368.7612 
L 1398.74708 368.7612 
" style="fill:none;stroke:#000000;stroke-linecap:square;stroke-width:2;"/>
   </g>
   <g id="line2d_8">
    <path clip-path="url(#p274a7ed27d)" d="M 216.72008 415.1152 
L 1398.74708 415.1152 
" style="fill:none;stroke:#000000;stroke-linecap:square;stroke-width:2;"/>
   </g>
   <g id="line2d_9">
    <path clip-path="url(#p274a7ed27d)" d="M 216.72008 461.4692 
L 1398.74708 461.4692 
" style="fill:none;stroke:#000000;stroke-linecap:square;stroke-width:2;"/>
   </g>
   <g id="line2d_10">
    <path clip-path="url(#p274a7ed27d)" d="M 216.72008 507.8232 
L 1398.74708 507.8232 
" style="fill:none;stroke:#000000;stroke-linecap:square;stroke-width:2;"/>
   </g>
   <g id="patch_2">
    <path clip-path="url(#p274a7ed27d)" d="M 601.69005 252.8762 
L 619.76811 252.8762 
L 619.76811 21.1062 
L 601.69005 21.1062 
z
" style="fill:#bdbdbd;opacity:0.6;"/>
   </g>
   <g id="patch_3">
    <path clip-path="url(#p274a7ed27d)" d="M 879.81405 252.8762 
L 897.89211 252.8762 
L 897.89211 21.1062 
L 879.81405 21.1062 
z
" style="fill:#bdbdbd;opacity:0.6;"/>
   </g>
   <g id="line2d_11">
    <path clip-path="url(#p274a7ed27d)" d="M 263.07408 229.6992 
L 263.07408 183.3452 
" style="fill:none;stroke:#6fa4ff;stroke-linecap:square;stroke-width:2;"/>
   </g>
   <g id="line2d_12">
    <path clip-path="url(#p274a7ed27d)" d="M 332.60508 136.9912 
L 332.60508 44.2832 
" style="fill:none;stroke:#6fa4ff;stroke-linecap:square;stroke-width:2;"/>
   </g>
   <g id="line2d_13">
    <path clip-path="url(#p274a7ed27d)" d="M 332.60508 229.6992 
L 332.60508 183.3452 
" style="fill:none;stroke:#6fa4ff;stroke-linecap:square;stroke-width:2;"/>
   </g>
   <g id="line2d_14">
    <path clip-path="url(#p274a7ed27d)" d="M 378.95908 136.9912 
L 378.95908 44.2832 
" style="fill:none;stroke:#6fa4ff;stroke-linecap:square;stroke-width:2;"/>
   </g>
   <g id="line2d_15">
    <path clip-path="url(#p274a7ed27d)" d="M 378.95908 229.6992 
L 378.95908 183.3452 
" style="fill:none;stroke:#6fa4ff;stroke-linecap:square;stroke-width:2;"/>
   </g>
   <g id="line2d_16">
    <path clip-path="url(#p274a7ed27d)" d="M 448.49008 136.9912 
L 448.49008 44.2832 
" style="fill:none;stroke:#6fa4ff;stroke-linecap:square;stroke-width:2;"/>
   </g>
   <g id="line2d_17">
    <path clip-path="url(#p274a7ed27d)" d="M 518.02108 229.6992 
L 518.02108 136.9912 
" style="fill:none;stroke:#6fa4ff;stroke-linecap:square;stroke-width:2;"/>
   </g>
   <g id="line2d_18">
    <path clip-path="url(#p274a7ed27d)" d="M 564.37508 136.9912 
L 564.37508 90.6372 
" style="fill:none;stroke:#6fa4ff;stroke-linecap:square;stroke-width:2;"/>
   </g>
   <g id="line2d_19">
    <path clip-path="url(#p274a7ed27d)" d="M 749.79108 90.6372 
L 749.79108 44.2832 
" style="fill:none;stroke:#6fa4ff;stroke-linecap:square;stroke-width:2;"/>
   </g>
   <g id="line2d_20">
    <path clip-path="url(#p274a7ed27d)" d="M 842.49908 90.6372 
L 842.49908 44.2832 
" style="fill:none;stroke:#6fa4ff;stroke-linecap:square;stroke-width:2;"/>
   </g>
   <g id="line2d_21">
    <path clip-path="url(#p274a7ed27d)" d="M 958.38408 183.3452 
L 958.38408 136.9912 
" style="fill:none;stroke:#6fa4ff;stroke-linecap:square;stroke-width:2;"/>
   </g>
   <g id="line2d_22">
    <path clip-path="url(#p274a7ed27d)" d="M 1051.09208 136.9912 
L 1051.09208 90.6372 
" style="fill:none;stroke:#6fa4ff;stroke-linecap:square;stroke-width:2;"/>
   </g>
   <g id="line2d_23">
    <path clip-path="url(#p274a7ed27d)" d="M 1120.62308 136.9912 
L 1120.62308 90.6372 
" style="fill:none;stroke:#6fa4ff;stroke-linecap:square;stroke-width:2;"/>
   </g>
   <g id="line2d_24">
    <path clip-path="url(#p274a7ed27d)" d="M 1166.97708 136.9912 
L 1166.97708 90.6372 
" style="fill:none;stroke:#6fa4ff;stroke-linecap:square;stroke-width:2;"/>
   </g>
   <g id="line2d_25">
    <path clip-path="url(#p274a7ed27d)" d="M 1213.33108 229.6992 
L 1213.33108 136.9912 
" style="fill:none;stroke:#6fa4ff;stroke-linecap:square;stroke-width:2;"/>
   </g>
   <g id="line2d_26">
    <path clip-path="url(#p274a7ed27d)" d="M 1352.39308 136.9912 
L 1352.39308 90.6372 
" style="fill:none;stroke:#6fa4ff;stroke-linecap:square;stroke-width:2;"/>
   </g>
   <g id="line2d_27">
    <path clip-path="url(#p274a7ed27d)" d="M 332.60508 461.4692 
L 332.60508 415.1152 
" style="fill:none;stroke:#6fa4ff;stroke-linecap:square;stroke-width:2;"/>
   </g>
   <g id="line2d_28">
    <path clip-path="url(#p274a7ed27d)" d="M 1295.8412 44.2832 
L 1295.8412 229.6992 
" style="fill:none;stroke:#000000;stroke-linecap:square;stroke-width:1.5;"/>
   </g>
   <g id="line2d_29">
    <path clip-path="url(#p274a7ed27d)" d="M 1305.112 44.2832 
L 1305.112 229.6992 
" style="fill:none;stroke:#000000;stroke-linecap:square;stroke-width:1.5;"/>
   </g>
   <g id="line2d_30">
    <path clip-path="url(#p274a7ed27d)" d="M 99.908 322.4072 
L 99.908 507.8232 
" style="fill:none;stroke:#000000;stroke-linecap:square;stroke-width:1.5;"/>
   </g>
   <g id="line2d_31">
    <path clip-path="url(#p274a7ed27d)" d="M 109.1788 322.4072 
L 109.1788 507.8232 
" style="fill:none;stroke:#000000;stroke-linecap:square;stroke-width:1.5;"/>
   </g>
   <g id="patch_4">
    <path clip-path="url(#p274a7ed27d)" d="M 248.00903 59.34825 
L 278.13913 59.34825 
L 278.13913 29.21815 
L 248.00903 29.21815 
z
" style="fill:#fa74a6;"/>
   </g>
   <g id="patch_5">
    <path clip-path="url(#p274a7ed27d)" d="M 263.07408 187.864715 
C 264.272669 187.864715 265.422329 187.38851 266.26986 186.54098 
C 267.11739 185.693449 267.593595 184.543789 267.593595 183.3452 
C 267.593595 182.146611 267.11739 180.996951 266.26986 180.14942 
C 265.422329 179.30189 264.272669 178.825685 263.07408 178.825685 
C 261.875491 178.825685 260.725831 179.30189 259.8783 180.14942 
C 259.03077 180.996951 258.554565 182.146611 258.554565 183.3452 
C 258.554565 184.543789 259.03077 185.693449 259.8783 186.54098 
C 260.725831 187.38851 261.875491 187.864715 263.07408 187.864715 
z
" style="fill:#6fa4ff;stroke:#6fa4ff;stroke-linejoin:miter;stroke-width:1.5;"/>
   </g>
   <g id="patch_6">
    <path clip-path="url(#p274a7ed27d)" d="M 263.07408 240.244735 
C 265.870789 240.244735 268.553328 239.133591 270.530899 237.156019 
C 272.508471 235.178448 273.619615 232.495909 273.619615 229.6992 
C 273.619615 226.902491 272.508471 224.219952 270.530899 222.242381 
C 268.553328 220.264809 265.870789 219.153665 263.07408 219.153665 
C 260.277371 219.153665 257.594832 220.264809 255.617261 222.242381 
C 253.639689 224.219952 252.528545 226.902491 252.528545 229.6992 
C 252.528545 232.495909 253.639689 235.178448 255.617261 237.156019 
C 257.594832 239.133591 260.277371 240.244735 263.07408 240.244735 
z
" style="fill:#6fa4ff;stroke:#6fa4ff;stroke-linejoin:miter;stroke-width:2;"/>
   </g>
   <g id="patch_7">
    <path clip-path="url(#p274a7ed27d)" d="M 332.60508 48.802715 
C 333.803669 48.802715 334.953329 48.32651 335.80086 47.47898 
C 336.64839 46.631449 337.124595 45.481789 337.124595 44.2832 
C 337.124595 43.084611 336.64839 41.934951 335.80086 41.08742 
C 334.953329 40.23989 333.803669 39.763685 332.60508 39.763685 
C 331.406491 39.763685 330.256831 40.23989 329.4093 41.08742 
C 328.56177 41.934951 328.085565 43.084611 328.085565 44.2832 
C 328.085565 45.481789 328.56177 46.631449 329.4093 47.47898 
C 330.256831 48.32651 331.406491 48.802715 332.60508 48.802715 
z
" style="fill:#6fa4ff;stroke:#6fa4ff;stroke-linejoin:miter;stroke-width:1.5;"/>
   </g>
   <g id="patch_8">
    <path clip-path="url(#p274a7ed27d)" d="M 332.60508 147.536735 
C 335.401789 147.536735 338.084328 146.425591 340.061899 144.448019 
C 342.039471 142.470448 343.150615 139.787909 343.150615 136.9912 
C 343.150615 134.194491 342.039471 131.511952 340.061899 129.534381 
C 338.084328 127.556809 335.401789 126.445665 332.60508 126.445665 
C 329.808371 126.445665 327.125832 127.556809 325.148261 129.534381 
C 323.170689 131.511952 322.059545 134.194491 322.059545 136.9912 
C 322.059545 139.787909 323.170689 142.470448 325.148261 144.448019 
C 327.125832 146.425591 329.808371 147.536735 332.60508 147.536735 
z
" style="fill:#6fa4ff;stroke:#6fa4ff;stroke-linejoin:miter;stroke-width:2;"/>
   </g>
   <g id="patch_9">
    <path clip-path="url(#p274a7ed27d)" d="M 332.60508 234.218715 
C 333.803669 234.218715 334.953329 233.74251 335.80086 232.89498 
C 336.64839 232.047449 337.124595 230.897789 337.124595 229.6992 
C 337.124595 228.500611 336.64839 227.350951 335.80086 226.50342 
C 334.953329 225.65589 333.803669 225.179685 332.60508 225.179685 
C 331.406491 225.179685 330.256831 225.65589 329.4093 226.50342 
C 328.56177 227.350951 328.085565 228.500611 328.085565 229.6992 
C 328.085565 230.897789 328.56177 232.047449 329.4093 232.89498 
C 330.256831 233.74251 331.406491 234.218715 332.60508 234.218715 
z
" style="fill:#6fa4ff;stroke:#6fa4ff;stroke-linejoin:miter;stroke-width:1.5;"/>
   </g>
   <g id="patch_10">
    <path clip-path="url(#p274a7ed27d)" d="M 332.60508 193.890735 
C 335.401789 193.890735 338.084328 192.779591 340.061899 190.802019 
C 342.039471 188.824448 343.150615 186.141909 343.150615 183.3452 
C 343.150615 180.548491 342.039471 177.865952 340.061899 175.888381 
C 338.084328 173.910809 335.401789 172.799665 332.60508 172.799665 
C 329.808371 172.799665 327.125832 173.910809 325.148261 175.888381 
C 323.170689 177.865952 322.059545 180.548491 322.059545 183.3452 
C 322.059545 186.141909 323.170689 188.824448 325.148261 190.802019 
C 327.125832 192.779591 329.808371 193.890735 332.60508 193.890735 
z
" style="fill:#6fa4ff;stroke:#6fa4ff;stroke-linejoin:miter;stroke-width:2;"/>
   </g>
   <g id="patch_11">
    <path clip-path="url(#p274a7ed27d)" d="M 378.95908 141.510715 
C 380.157669 141.510715 381.307329 141.03451 382.15486 140.18698 
C 383.00239 139.339449 383.478595 138.189789 383.478595 136.9912 
C 383.478595 135.792611 383.00239 134.642951 382.15486 133.79542 
C 381.307329 132.94789 380.157669 132.471685 378.95908 132.471685 
C 377.760491 132.471685 376.610831 132.94789 375.7633 133.79542 
C 374.91577 134.642951 374.439565 135.792611 374.439565 136.9912 
C 374.439565 138.189789 374.91577 139.339449 375.7633 140.18698 
C 376.610831 141.03451 377.760491 141.510715 378.95908 141.510715 
z
" style="fill:#6fa4ff;stroke:#6fa4ff;stroke-linejoin:miter;stroke-width:1.5;"/>
   </g>
   <g id="patch_12">
    <path clip-path="url(#p274a7ed27d)" d="M 378.95908 54.828735 
C 381.755789 54.828735 384.438328 53.717591 386.415899 51.740019 
C 388.393471 49.762448 389.504615 47.079909 389.504615 44.2832 
C 389.504615 41.486491 388.393471 38.803952 386.415899 36.826381 
C 384.438328 34.848809 381.755789 33.737665 378.95908 33.737665 
C 376.162371 33.737665 373.479832 34.848809 371.502261 36.826381 
C 369.524689 38.803952 368.413545 41.486491 368.413545 44.2832 
C 368.413545 47.079909 369.524689 49.762448 371.502261 51.740019 
C 373.479832 53.717591 376.162371 54.828735 378.95908 54.828735 
z
" style="fill:#6fa4ff;stroke:#6fa4ff;stroke-linejoin:miter;stroke-width:2;"/>
   </g>
   <g id="patch_13">
    <path clip-path="url(#p274a7ed27d)" d="M 378.95908 187.864715 
C 380.157669 187.864715 381.307329 187.38851 382.15486 186.54098 
C 383.00239 185.693449 383.478595 184.543789 383.478595 183.3452 
C 383.478595 182.146611 383.00239 180.996951 382.15486 180.14942 
C 381.307329 179.30189 380.157669 178.825685 378.95908 178.825685 
C 377.760491 178.825685 376.610831 179.30189 375.7633 180.14942 
C 374.91577 180.996951 374.439565 182.146611 374.439565 183.3452 
C 374.439565 184.543789 374.91577 185.693449 375.7633 186.54098 
C 376.610831 187.38851 377.760491 187.864715 378.95908 187.864715 
z
" style="fill:#6fa4ff;stroke:#6fa4ff;stroke-linejoin:miter;stroke-width:1.5;"/>
   </g>
   <g id="patch_14">
    <path clip-path="url(#p274a7ed27d)" d="M 378.95908 240.244735 
C 381.755789 240.244735 384.438328 239.133591 386.415899 237.156019 
C 388.393471 235.178448 389.504615 232.495909 389.504615 229.6992 
C 389.504615 226.902491 388.393471 224.219952 386.415899 222.242381 
C 384.438328 220.264809 381.755789 219.153665 378.95908 219.153665 
C 376.162371 219.153665 373.479832 220.264809 371.502261 222.242381 
C 369.524689 224.219952 368.413545 226.902491 368.413545 229.6992 
C 368.413545 232.495909 369.524689 235.178448 371.502261 237.156019 
C 373.479832 239.133591 376.162371 240.244735 378.95908 240.244735 
z
" style="fill:#6fa4ff;stroke:#6fa4ff;stroke-linejoin:miter;stroke-width:2;"/>
   </g>
   <g id="patch_15">
    <path clip-path="url(#p274a7ed27d)" d="M 448.49008 48.802715 
C 449.688669 48.802715 450.838329 48.32651 451.68586 47.47898 
C 452.53339 46.631449 453.009595 45.481789 453.009595 44.2832 
C 453.009595 43.084611 452.53339 41.934951 451.68586 41.08742 
C 450.838329 40.23989 449.688669 39.763685 448.49008 39.763685 
C 447.291491 39.763685 446.141831 40.23989 445.2943 41.08742 
C 444.44677 41.934951 443.970565 43.084611 443.970565 44.2832 
C 443.970565 45.481789 444.44677 46.631449 445.2943 47.47898 
C 446.141831 48.32651 447.291491 48.802715 448.49008 48.802715 
z
" style="fill:#6fa4ff;stroke:#6fa4ff;stroke-linejoin:miter;stroke-width:1.5;"/>
   </g>
   <g id="patch_16">
    <path clip-path="url(#p274a7ed27d)" d="M 448.49008 147.536735 
C 451.286789 147.536735 453.969328 146.425591 455.946899 144.448019 
C 457.924471 142.470448 459.035615 139.787909 459.035615 136.9912 
C 459.035615 134.194491 457.924471 131.511952 455.946899 129.534381 
C 453.969328 127.556809 451.286789 126.445665 448.49008 126.445665 
C 445.693371 126.445665 443.010832 127.556809 441.033261 129.534381 
C 439.055689 131.511952 437.944545 134.194491 437.944545 136.9912 
C 437.944545 139.787909 439.055689 142.470448 441.033261 144.448019 
C 443.010832 146.425591 445.693371 147.536735 448.49008 147.536735 
z
" style="fill:#6fa4ff;stroke:#6fa4ff;stroke-linejoin:miter;stroke-width:2;"/>
   </g>
   <g id="patch_17">
    <path clip-path="url(#p274a7ed27d)" d="M 433.42503 198.41025 
L 463.55513 198.41025 
L 463.55513 168.28015 
L 433.42503 168.28015 
z
" style="fill:#fa74a6;"/>
   </g>
   <g id="patch_18">
    <path clip-path="url(#p274a7ed27d)" d="M 518.02108 141.510715 
C 519.219669 141.510715 520.369329 141.03451 521.21686 140.18698 
C 522.06439 139.339449 522.540595 138.189789 522.540595 136.9912 
C 522.540595 135.792611 522.06439 134.642951 521.21686 133.79542 
C 520.369329 132.94789 519.219669 132.471685 518.02108 132.471685 
C 516.822491 132.471685 515.672831 132.94789 514.8253 133.79542 
C 513.97777 134.642951 513.501565 135.792611 513.501565 136.9912 
C 513.501565 138.189789 513.97777 139.339449 514.8253 140.18698 
C 515.672831 141.03451 516.822491 141.510715 518.02108 141.510715 
z
" style="fill:#6fa4ff;stroke:#6fa4ff;stroke-linejoin:miter;stroke-width:1.5;"/>
   </g>
   <g id="patch_19">
    <path clip-path="url(#p274a7ed27d)" d="M 518.02108 240.244735 
C 520.817789 240.244735 523.500328 239.133591 525.477899 237.156019 
C 527.455471 235.178448 528.566615 232.495909 528.566615 229.6992 
C 528.566615 226.902491 527.455471 224.219952 525.477899 222.242381 
C 523.500328 220.264809 520.817789 219.153665 518.02108 219.153665 
C 515.224371 219.153665 512.541832 220.264809 510.564261 222.242381 
C 508.586689 224.219952 507.475545 226.902491 507.475545 229.6992 
C 507.475545 232.495909 508.586689 235.178448 510.564261 237.156019 
C 512.541832 239.133591 515.224371 240.244735 518.02108 240.244735 
z
" style="fill:#6fa4ff;stroke:#6fa4ff;stroke-linejoin:miter;stroke-width:2;"/>
   </g>
   <g id="patch_20">
    <path clip-path="url(#p274a7ed27d)" d="M 564.37508 141.510715 
C 565.573669 141.510715 566.723329 141.03451 567.57086 140.18698 
C 568.41839 139.339449 568.894595 138.189789 568.894595 136.9912 
C 568.894595 135.792611 568.41839 134.642951 567.57086 133.79542 
C 566.723329 132.94789 565.573669 132.471685 564.37508 132.471685 
C 563.176491 132.471685 562.026831 132.94789 561.1793 133.79542 
C 560.33177 134.642951 559.855565 135.792611 559.855565 136.9912 
C 559.855565 138.189789 560.33177 139.339449 561.1793 140.18698 
C 562.026831 141.03451 563.176491 141.510715 564.37508 141.510715 
z
" style="fill:#6fa4ff;stroke:#6fa4ff;stroke-linejoin:miter;stroke-width:1.5;"/>
   </g>
   <g id="patch_21">
    <path clip-path="url(#p274a7ed27d)" d="M 564.37508 101.182735 
C 567.171789 101.182735 569.854328 100.071591 571.831899 98.094019 
C 573.809471 96.116448 574.920615 93.433909 574.920615 90.6372 
C 574.920615 87.840491 573.809471 85.157952 571.831899 83.180381 
C 569.854328 81.202809 567.171789 80.091665 564.37508 80.091665 
C 561.578371 80.091665 558.895832 81.202809 556.918261 83.180381 
C 554.940689 85.157952 553.829545 87.840491 553.829545 90.6372 
C 553.829545 93.433909 554.940689 96.116448 556.918261 98.094019 
C 558.895832 100.071591 561.578371 101.182735 564.37508 101.182735 
z
" style="fill:#6fa4ff;stroke:#6fa4ff;stroke-linejoin:miter;stroke-width:2;"/>
   </g>
   <g id="patch_22">
    <path clip-path="url(#p274a7ed27d)" d="M 665.19503 59.34825 
L 695.32513 59.34825 
L 695.32513 29.21815 
L 665.19503 29.21815 
z
" style="fill:#fa74a6;"/>
   </g>
   <g id="patch_23">
    <path clip-path="url(#p274a7ed27d)" d="M 749.79108 48.802715 
C 750.989669 48.802715 752.139329 48.32651 752.98686 47.47898 
C 753.83439 46.631449 754.310595 45.481789 754.310595 44.2832 
C 754.310595 43.084611 753.83439 41.934951 752.98686 41.08742 
C 752.139329 40.23989 750.989669 39.763685 749.79108 39.763685 
C 748.592491 39.763685 747.442831 40.23989 746.5953 41.08742 
C 745.74777 41.934951 745.271565 43.084611 745.271565 44.2832 
C 745.271565 45.481789 745.74777 46.631449 746.5953 47.47898 
C 747.442831 48.32651 748.592491 48.802715 749.79108 48.802715 
z
" style="fill:#6fa4ff;stroke:#6fa4ff;stroke-linejoin:miter;stroke-width:1.5;"/>
   </g>
   <g id="patch_24">
    <path clip-path="url(#p274a7ed27d)" d="M 749.79108 101.182735 
C 752.587789 101.182735 755.270328 100.071591 757.247899 98.094019 
C 759.225471 96.116448 760.336615 93.433909 760.336615 90.6372 
C 760.336615 87.840491 759.225471 85.157952 757.247899 83.180381 
C 755.270328 81.202809 752.587789 80.091665 749.79108 80.091665 
C 746.994371 80.091665 744.311832 81.202809 742.334261 83.180381 
C 740.356689 85.157952 739.245545 87.840491 739.245545 90.6372 
C 739.245545 93.433909 740.356689 96.116448 742.334261 98.094019 
C 744.311832 100.071591 746.994371 101.182735 749.79108 101.182735 
z
" style="fill:#6fa4ff;stroke:#6fa4ff;stroke-linejoin:miter;stroke-width:2;"/>
   </g>
   <g id="patch_25">
    <path clip-path="url(#p274a7ed27d)" d="M 781.08003 105.70225 
L 811.21013 105.70225 
L 811.21013 75.57215 
L 781.08003 75.57215 
z
" style="fill:#fa74a6;"/>
   </g>
   <g id="patch_26">
    <path clip-path="url(#p274a7ed27d)" d="M 842.49908 48.802715 
C 843.697669 48.802715 844.847329 48.32651 845.69486 47.47898 
C 846.54239 46.631449 847.018595 45.481789 847.018595 44.2832 
C 847.018595 43.084611 846.54239 41.934951 845.69486 41.08742 
C 844.847329 40.23989 843.697669 39.763685 842.49908 39.763685 
C 841.300491 39.763685 840.150831 40.23989 839.3033 41.08742 
C 838.45577 41.934951 837.979565 43.084611 837.979565 44.2832 
C 837.979565 45.481789 838.45577 46.631449 839.3033 47.47898 
C 840.150831 48.32651 841.300491 48.802715 842.49908 48.802715 
z
" style="fill:#6fa4ff;stroke:#6fa4ff;stroke-linejoin:miter;stroke-width:1.5;"/>
   </g>
   <g id="patch_27">
    <path clip-path="url(#p274a7ed27d)" d="M 842.49908 101.182735 
C 845.295789 101.182735 847.978328 100.071591 849.955899 98.094019 
C 851.933471 96.116448 853.044615 93.433909 853.044615 90.6372 
C 853.044615 87.840491 851.933471 85.157952 849.955899 83.180381 
C 847.978328 81.202809 845.295789 80.091665 842.49908 80.091665 
C 839.702371 80.091665 837.019832 81.202809 835.042261 83.180381 
C 833.064689 85.157952 831.953545 87.840491 831.953545 90.6372 
C 831.953545 93.433909 833.064689 96.116448 835.042261 98.094019 
C 837.019832 100.071591 839.702371 101.182735 842.49908 101.182735 
z
" style="fill:#6fa4ff;stroke:#6fa4ff;stroke-linejoin:miter;stroke-width:2;"/>
   </g>
   <g id="patch_28">
    <path clip-path="url(#p274a7ed27d)" d="M 943.31903 105.70225 
L 973.44913 105.70225 
L 973.44913 75.57215 
L 943.31903 75.57215 
z
" style="fill:#fa74a6;"/>
   </g>
   <g id="patch_29">
    <path clip-path="url(#p274a7ed27d)" d="M 958.38408 187.864715 
C 959.582669 187.864715 960.732329 187.38851 961.57986 186.54098 
C 962.42739 185.693449 962.903595 184.543789 962.903595 183.3452 
C 962.903595 182.146611 962.42739 180.996951 961.57986 180.14942 
C 960.732329 179.30189 959.582669 178.825685 958.38408 178.825685 
C 957.185491 178.825685 956.035831 179.30189 955.1883 180.14942 
C 954.34077 180.996951 953.864565 182.146611 953.864565 183.3452 
C 953.864565 184.543789 954.34077 185.693449 955.1883 186.54098 
C 956.035831 187.38851 957.185491 187.864715 958.38408 187.864715 
z
" style="fill:#6fa4ff;stroke:#6fa4ff;stroke-linejoin:miter;stroke-width:1.5;"/>
   </g>
   <g id="patch_30">
    <path clip-path="url(#p274a7ed27d)" d="M 958.38408 147.536735 
C 961.180789 147.536735 963.863328 146.425591 965.840899 144.448019 
C 967.818471 142.470448 968.929615 139.787909 968.929615 136.9912 
C 968.929615 134.194491 967.818471 131.511952 965.840899 129.534381 
C 963.863328 127.556809 961.180789 126.445665 958.38408 126.445665 
C 955.587371 126.445665 952.904832 127.556809 950.927261 129.534381 
C 948.949689 131.511952 947.838545 134.194491 947.838545 136.9912 
C 947.838545 139.787909 948.949689 142.470448 950.927261 144.448019 
C 952.904832 146.425591 955.587371 147.536735 958.38408 147.536735 
z
" style="fill:#6fa4ff;stroke:#6fa4ff;stroke-linejoin:miter;stroke-width:2;"/>
   </g>
   <g id="patch_31">
    <path clip-path="url(#p274a7ed27d)" d="M 943.31903 244.76425 
L 973.44913 244.76425 
L 973.44913 214.63415 
L 943.31903 214.63415 
z
" style="fill:#fa74a6;"/>
   </g>
   <g id="patch_32">
    <path clip-path="url(#p274a7ed27d)" d="M 1051.09208 95.156715 
C 1052.290669 95.156715 1053.440329 94.68051 1054.28786 93.83298 
C 1055.13539 92.985449 1055.611595 91.835789 1055.611595 90.6372 
C 1055.611595 89.438611 1055.13539 88.288951 1054.28786 87.44142 
C 1053.440329 86.59389 1052.290669 86.117685 1051.09208 86.117685 
C 1049.893491 86.117685 1048.743831 86.59389 1047.8963 87.44142 
C 1047.04877 88.288951 1046.572565 89.438611 1046.572565 90.6372 
C 1046.572565 91.835789 1047.04877 92.985449 1047.8963 93.83298 
C 1048.743831 94.68051 1049.893491 95.156715 1051.09208 95.156715 
z
" style="fill:#6fa4ff;stroke:#6fa4ff;stroke-linejoin:miter;stroke-width:1.5;"/>
   </g>
   <g id="patch_33">
    <path clip-path="url(#p274a7ed27d)" d="M 1051.09208 147.536735 
C 1053.888789 147.536735 1056.571328 146.425591 1058.548899 144.448019 
C 1060.526471 142.470448 1061.637615 139.787909 1061.637615 136.9912 
C 1061.637615 134.194491 1060.526471 131.511952 1058.548899 129.534381 
C 1056.571328 127.556809 1053.888789 126.445665 1051.09208 126.445665 
C 1048.295371 126.445665 1045.612832 127.556809 1043.635261 129.534381 
C 1041.657689 131.511952 1040.546545 134.194491 1040.546545 136.9912 
C 1040.546545 139.787909 1041.657689 142.470448 1043.635261 144.448019 
C 1045.612832 146.425591 1048.295371 147.536735 1051.09208 147.536735 
z
" style="fill:#6fa4ff;stroke:#6fa4ff;stroke-linejoin:miter;stroke-width:2;"/>
   </g>
   <g id="patch_34">
    <path clip-path="url(#p274a7ed27d)" d="M 1036.02703 198.41025 
L 1066.15713 198.41025 
L 1066.15713 168.28015 
L 1036.02703 168.28015 
z
" style="fill:#fa74a6;"/>
   </g>
   <g id="patch_35">
    <path clip-path="url(#p274a7ed27d)" d="M 1120.62308 141.510715 
C 1121.821669 141.510715 1122.971329 141.03451 1123.81886 140.18698 
C 1124.66639 139.339449 1125.142595 138.189789 1125.142595 136.9912 
C 1125.142595 135.792611 1124.66639 134.642951 1123.81886 133.79542 
C 1122.971329 132.94789 1121.821669 132.471685 1120.62308 132.471685 
C 1119.424491 132.471685 1118.274831 132.94789 1117.4273 133.79542 
C 1116.57977 134.642951 1116.103565 135.792611 1116.103565 136.9912 
C 1116.103565 138.189789 1116.57977 139.339449 1117.4273 140.18698 
C 1118.274831 141.03451 1119.424491 141.510715 1120.62308 141.510715 
z
" style="fill:#6fa4ff;stroke:#6fa4ff;stroke-linejoin:miter;stroke-width:1.5;"/>
   </g>
   <g id="patch_36">
    <path clip-path="url(#p274a7ed27d)" d="M 1120.62308 101.182735 
C 1123.419789 101.182735 1126.102328 100.071591 1128.079899 98.094019 
C 1130.057471 96.116448 1131.168615 93.433909 1131.168615 90.6372 
C 1131.168615 87.840491 1130.057471 85.157952 1128.079899 83.180381 
C 1126.102328 81.202809 1123.419789 80.091665 1120.62308 80.091665 
C 1117.826371 80.091665 1115.143832 81.202809 1113.166261 83.180381 
C 1111.188689 85.157952 1110.077545 87.840491 1110.077545 90.6372 
C 1110.077545 93.433909 1111.188689 96.116448 1113.166261 98.094019 
C 1115.143832 100.071591 1117.826371 101.182735 1120.62308 101.182735 
z
" style="fill:#6fa4ff;stroke:#6fa4ff;stroke-linejoin:miter;stroke-width:2;"/>
   </g>
   <g id="patch_37">
    <path clip-path="url(#p274a7ed27d)" d="M 1166.97708 95.156715 
C 1168.175669 95.156715 1169.325329 94.68051 1170.17286 93.83298 
C 1171.02039 92.985449 1171.496595 91.835789 1171.496595 90.6372 
C 1171.496595 89.438611 1171.02039 88.288951 1170.17286 87.44142 
C 1169.325329 86.59389 1168.175669 86.117685 1166.97708 86.117685 
C 1165.778491 86.117685 1164.628831 86.59389 1163.7813 87.44142 
C 1162.93377 88.288951 1162.457565 89.438611 1162.457565 90.6372 
C 1162.457565 91.835789 1162.93377 92.985449 1163.7813 93.83298 
C 1164.628831 94.68051 1165.778491 95.156715 1166.97708 95.156715 
z
" style="fill:#6fa4ff;stroke:#6fa4ff;stroke-linejoin:miter;stroke-width:1.5;"/>
   </g>
   <g id="patch_38">
    <path clip-path="url(#p274a7ed27d)" d="M 1166.97708 147.536735 
C 1169.773789 147.536735 1172.456328 146.425591 1174.433899 144.448019 
C 1176.411471 142.470448 1177.522615 139.787909 1177.522615 136.9912 
C 1177.522615 134.194491 1176.411471 131.511952 1174.433899 129.534381 
C 1172.456328 127.556809 1169.773789 126.445665 1166.97708 126.445665 
C 1164.180371 126.445665 1161.497832 127.556809 1159.520261 129.534381 
C 1157.542689 131.511952 1156.431545 134.194491 1156.431545 136.9912 
C 1156.431545 139.787909 1157.542689 142.470448 1159.520261 144.448019 
C 1161.497832 146.425591 1164.180371 147.536735 1166.97708 147.536735 
z
" style="fill:#6fa4ff;stroke:#6fa4ff;stroke-linejoin:miter;stroke-width:2;"/>
   </g>
   <g id="patch_39">
    <path clip-path="url(#p274a7ed27d)" d="M 1213.33108 234.218715 
C 1214.529669 234.218715 1215.679329 233.74251 1216.52686 232.89498 
C 1217.37439 232.047449 1217.850595 230.897789 1217.850595 229.6992 
C 1217.850595 228.500611 1217.37439 227.350951 1216.52686 226.50342 
C 1215.679329 225.65589 1214.529669 225.179685 1213.33108 225.179685 
C 1212.132491 225.179685 1210.982831 225.65589 1210.1353 226.50342 
C 1209.28777 227.350951 1208.811565 228.500611 1208.811565 229.6992 
C 1208.811565 230.897789 1209.28777 232.047449 1210.1353 232.89498 
C 1210.982831 233.74251 1212.132491 234.218715 1213.33108 234.218715 
z
" style="fill:#6fa4ff;stroke:#6fa4ff;stroke-linejoin:miter;stroke-width:1.5;"/>
   </g>
   <g id="patch_40">
    <path clip-path="url(#p274a7ed27d)" d="M 1213.33108 147.536735 
C 1216.127789 147.536735 1218.810328 146.425591 1220.787899 144.448019 
C 1222.765471 142.470448 1223.876615 139.787909 1223.876615 136.9912 
C 1223.876615 134.194491 1222.765471 131.511952 1220.787899 129.534381 
C 1218.810328 127.556809 1216.127789 126.445665 1213.33108 126.445665 
C 1210.534371 126.445665 1207.851832 127.556809 1205.874261 129.534381 
C 1203.896689 131.511952 1202.785545 134.194491 1202.785545 136.9912 
C 1202.785545 139.787909 1203.896689 142.470448 1205.874261 144.448019 
C 1207.851832 146.425591 1210.534371 147.536735 1213.33108 147.536735 
z
" style="fill:#6fa4ff;stroke:#6fa4ff;stroke-linejoin:miter;stroke-width:2;"/>
   </g>
   <g id="patch_41">
    <path clip-path="url(#p274a7ed27d)" d="M 1267.79703 152.05625 
L 1297.92713 152.05625 
L 1297.92713 121.92615 
L 1267.79703 121.92615 
z
" style="fill:#fa74a6;"/>
   </g>
   <g id="patch_42">
    <path clip-path="url(#p274a7ed27d)" d="M 1352.39308 95.156715 
C 1353.591669 95.156715 1354.741329 94.68051 1355.58886 93.83298 
C 1356.43639 92.985449 1356.912595 91.835789 1356.912595 90.6372 
C 1356.912595 89.438611 1356.43639 88.288951 1355.58886 87.44142 
C 1354.741329 86.59389 1353.591669 86.117685 1352.39308 86.117685 
C 1351.194491 86.117685 1350.044831 86.59389 1349.1973 87.44142 
C 1348.34977 88.288951 1347.873565 89.438611 1347.873565 90.6372 
C 1347.873565 91.835789 1348.34977 92.985449 1349.1973 93.83298 
C 1350.044831 94.68051 1351.194491 95.156715 1352.39308 95.156715 
z
" style="fill:#6fa4ff;stroke:#6fa4ff;stroke-linejoin:miter;stroke-width:1.5;"/>
   </g>
   <g id="patch_43">
    <path clip-path="url(#p274a7ed27d)" d="M 1352.39308 147.536735 
C 1355.189789 147.536735 1357.872328 146.425591 1359.849899 144.448019 
C 1361.827471 142.470448 1362.938615 139.787909 1362.938615 136.9912 
C 1362.938615 134.194491 1361.827471 131.511952 1359.849899 129.534381 
C 1357.872328 127.556809 1355.189789 126.445665 1352.39308 126.445665 
C 1349.596371 126.445665 1346.913832 127.556809 1344.936261 129.534381 
C 1342.958689 131.511952 1341.847545 134.194491 1341.847545 136.9912 
C 1341.847545 139.787909 1342.958689 142.470448 1344.936261 144.448019 
C 1346.913832 146.425591 1349.596371 147.536735 1352.39308 147.536735 
z
" style="fill:#6fa4ff;stroke:#6fa4ff;stroke-linejoin:miter;stroke-width:2;"/>
   </g>
   <g id="patch_44">
    <path clip-path="url(#p274a7ed27d)" d="M 248.00903 430.18025 
L 278.13913 430.18025 
L 278.13913 400.05015 
L 248.00903 400.05015 
z
" style="fill:#fa74a6;"/>
   </g>
   <g id="patch_45">
    <path clip-path="url(#p274a7ed27d)" d="M 332.60508 465.988715 
C 333.803669 465.988715 334.953329 465.51251 335.80086 464.66498 
C 336.64839 463.817449 337.124595 462.667789 337.124595 461.4692 
C 337.124595 460.270611 336.64839 459.120951 335.80086 458.27342 
C 334.953329 457.42589 333.803669 456.949685 332.60508 456.949685 
C 331.406491 456.949685 330.256831 457.42589 329.4093 458.27342 
C 328.56177 459.120951 328.085565 460.270611 328.085565 461.4692 
C 328.085565 462.667789 328.56177 463.817449 329.4093 464.66498 
C 330.256831 465.51251 331.406491 465.988715 332.60508 465.988715 
z
" style="fill:#6fa4ff;stroke:#6fa4ff;stroke-linejoin:miter;stroke-width:1.5;"/>
   </g>
   <g id="patch_46">
    <path clip-path="url(#p274a7ed27d)" d="M 332.60508 425.660735 
C 335.401789 425.660735 338.084328 424.549591 340.061899 422.572019 
C 342.039471 420.594448 343.150615 417.911909 343.150615 415.1152 
C 343.150615 412.318491 342.039471 409.635952 340.061899 407.658381 
C 338.084328 405.680809 335.401789 404.569665 332.60508 404.569665 
C 329.808371 404.569665 327.125832 405.680809 325.148261 407.658381 
C 323.170689 409.635952 322.059545 412.318491 322.059545 415.1152 
C 322.059545 417.911909 323.170689 420.594448 325.148261 422.572019 
C 327.125832 424.549591 329.808371 425.660735 332.60508 425.660735 
z
" style="fill:#6fa4ff;stroke:#6fa4ff;stroke-linejoin:miter;stroke-width:2;"/>
   </g>
   <g id="patch_47">
    <path clip-path="url(#p274a7ed27d)" d="M 387.07103 430.18025 
L 417.20113 430.18025 
L 417.20113 400.05015 
L 387.07103 400.05015 
z
" style="fill:#fa74a6;"/>
   </g>
   <g id="line2d_32">
    <path clip-path="url(#p274a7ed27d)" d="M 263.07408 235.72522 
L 263.07408 223.67318 
" style="fill:none;stroke:#ffffff;stroke-linecap:square;stroke-width:2;"/>
   </g>
   <g id="line2d_33">
    <path clip-path="url(#p274a7ed27d)" d="M 257.04806 229.6992 
L 269.1001 229.6992 
" style="fill:none;stroke:#ffffff;stroke-linecap:square;stroke-width:2;"/>
   </g>
   <g id="line2d_34">
    <path clip-path="url(#p274a7ed27d)" d="M 332.60508 143.01722 
L 332.60508 130.96518 
" style="fill:none;stroke:#ffffff;stroke-linecap:square;stroke-width:2;"/>
   </g>
   <g id="line2d_35">
    <path clip-path="url(#p274a7ed27d)" d="M 326.57906 136.9912 
L 338.6311 136.9912 
" style="fill:none;stroke:#ffffff;stroke-linecap:square;stroke-width:2;"/>
   </g>
   <g id="line2d_36">
    <path clip-path="url(#p274a7ed27d)" d="M 332.60508 189.37122 
L 332.60508 177.31918 
" style="fill:none;stroke:#ffffff;stroke-linecap:square;stroke-width:2;"/>
   </g>
   <g id="line2d_37">
    <path clip-path="url(#p274a7ed27d)" d="M 326.57906 183.3452 
L 338.6311 183.3452 
" style="fill:none;stroke:#ffffff;stroke-linecap:square;stroke-width:2;"/>
   </g>
   <g id="line2d_38">
    <path clip-path="url(#p274a7ed27d)" d="M 378.95908 50.30922 
L 378.95908 38.25718 
" style="fill:none;stroke:#ffffff;stroke-linecap:square;stroke-width:2;"/>
   </g>
   <g id="line2d_39">
    <path clip-path="url(#p274a7ed27d)" d="M 372.93306 44.2832 
L 384.9851 44.2832 
" style="fill:none;stroke:#ffffff;stroke-linecap:square;stroke-width:2;"/>
   </g>
   <g id="line2d_40">
    <path clip-path="url(#p274a7ed27d)" d="M 378.95908 235.72522 
L 378.95908 223.67318 
" style="fill:none;stroke:#ffffff;stroke-linecap:square;stroke-width:2;"/>
   </g>
   <g id="line2d_41">
    <path clip-path="url(#p274a7ed27d)" d="M 372.93306 229.6992 
L 384.9851 229.6992 
" style="fill:none;stroke:#ffffff;stroke-linecap:square;stroke-width:2;"/>
   </g>
   <g id="line2d_42">
    <path clip-path="url(#p274a7ed27d)" d="M 448.49008 143.01722 
L 448.49008 130.96518 
" style="fill:none;stroke:#ffffff;stroke-linecap:square;stroke-width:2;"/>
   </g>
   <g id="line2d_43">
    <path clip-path="url(#p274a7ed27d)" d="M 442.46406 136.9912 
L 454.5161 136.9912 
" style="fill:none;stroke:#ffffff;stroke-linecap:square;stroke-width:2;"/>
   </g>
   <g id="line2d_44">
    <path clip-path="url(#p274a7ed27d)" d="M 518.02108 235.72522 
L 518.02108 223.67318 
" style="fill:none;stroke:#ffffff;stroke-linecap:square;stroke-width:2;"/>
   </g>
   <g id="line2d_45">
    <path clip-path="url(#p274a7ed27d)" d="M 511.99506 229.6992 
L 524.0471 229.6992 
" style="fill:none;stroke:#ffffff;stroke-linecap:square;stroke-width:2;"/>
   </g>
   <g id="line2d_46">
    <path clip-path="url(#p274a7ed27d)" d="M 564.37508 96.66322 
L 564.37508 84.61118 
" style="fill:none;stroke:#ffffff;stroke-linecap:square;stroke-width:2;"/>
   </g>
   <g id="line2d_47">
    <path clip-path="url(#p274a7ed27d)" d="M 558.34906 90.6372 
L 570.4011 90.6372 
" style="fill:none;stroke:#ffffff;stroke-linecap:square;stroke-width:2;"/>
   </g>
   <g id="line2d_48">
    <path clip-path="url(#p274a7ed27d)" d="M 610.72908 160.1682 
L 610.72908 206.5222 
" style="fill:none;stroke:#000000;stroke-dasharray:3.7,1.6;stroke-dashoffset:0;"/>
   </g>
   <g id="line2d_49">
    <path clip-path="url(#p274a7ed27d)" d="M 610.72908 113.8142 
L 610.72908 160.1682 
" style="fill:none;stroke:#000000;stroke-dasharray:3.7,1.6;stroke-dashoffset:0;"/>
   </g>
   <g id="line2d_50">
    <path clip-path="url(#p274a7ed27d)" d="M 610.72908 206.5222 
L 610.72908 252.8762 
" style="fill:none;stroke:#000000;stroke-dasharray:3.7,1.6;stroke-dashoffset:0;"/>
   </g>
   <g id="line2d_51">
    <path clip-path="url(#p274a7ed27d)" d="M 610.72908 67.4602 
L 610.72908 113.8142 
" style="fill:none;stroke:#000000;stroke-dasharray:3.7,1.6;stroke-dashoffset:0;"/>
   </g>
   <g id="line2d_52">
    <path clip-path="url(#p274a7ed27d)" d="M 610.72908 21.1062 
L 610.72908 67.4602 
" style="fill:none;stroke:#000000;stroke-dasharray:3.7,1.6;stroke-dashoffset:0;"/>
   </g>
   <g id="line2d_53">
    <path clip-path="url(#p274a7ed27d)" d="M 749.79108 96.66322 
L 749.79108 84.61118 
" style="fill:none;stroke:#ffffff;stroke-linecap:square;stroke-width:2;"/>
   </g>
   <g id="line2d_54">
    <path clip-path="url(#p274a7ed27d)" d="M 743.76506 90.6372 
L 755.8171 90.6372 
" style="fill:none;stroke:#ffffff;stroke-linecap:square;stroke-width:2;"/>
   </g>
   <g id="line2d_55">
    <path clip-path="url(#p274a7ed27d)" d="M 842.49908 96.66322 
L 842.49908 84.61118 
" style="fill:none;stroke:#ffffff;stroke-linecap:square;stroke-width:2;"/>
   </g>
   <g id="line2d_56">
    <path clip-path="url(#p274a7ed27d)" d="M 836.47306 90.6372 
L 848.5251 90.6372 
" style="fill:none;stroke:#ffffff;stroke-linecap:square;stroke-width:2;"/>
   </g>
   <g id="line2d_57">
    <path clip-path="url(#p274a7ed27d)" d="M 888.85308 160.1682 
L 888.85308 206.5222 
" style="fill:none;stroke:#000000;stroke-dasharray:3.7,1.6;stroke-dashoffset:0;"/>
   </g>
   <g id="line2d_58">
    <path clip-path="url(#p274a7ed27d)" d="M 888.85308 113.8142 
L 888.85308 160.1682 
" style="fill:none;stroke:#000000;stroke-dasharray:3.7,1.6;stroke-dashoffset:0;"/>
   </g>
   <g id="line2d_59">
    <path clip-path="url(#p274a7ed27d)" d="M 888.85308 206.5222 
L 888.85308 252.8762 
" style="fill:none;stroke:#000000;stroke-dasharray:3.7,1.6;stroke-dashoffset:0;"/>
   </g>
   <g id="line2d_60">
    <path clip-path="url(#p274a7ed27d)" d="M 888.85308 67.4602 
L 888.85308 113.8142 
" style="fill:none;stroke:#000000;stroke-dasharray:3.7,1.6;stroke-dashoffset:0;"/>
   </g>
   <g id="line2d_61">
    <path clip-path="url(#p274a7ed27d)" d="M 888.85308 21.1062 
L 888.85308 67.4602 
" style="fill:none;stroke:#000000;stroke-dasharray:3.7,1.6;stroke-dashoffset:0;"/>
   </g>
   <g id="line2d_62">
    <path clip-path="url(#p274a7ed27d)" d="M 958.38408 143.01722 
L 958.38408 130.96518 
" style="fill:none;stroke:#ffffff;stroke-linecap:square;stroke-width:2;"/>
   </g>
   <g id="line2d_63">
    <path clip-path="url(#p274a7ed27d)" d="M 952.35806 136.9912 
L 964.4101 136.9912 
" style="fill:none;stroke:#ffffff;stroke-linecap:square;stroke-width:2;"/>
   </g>
   <g id="line2d_64">
    <path clip-path="url(#p274a7ed27d)" d="M 1051.09208 143.01722 
L 1051.09208 130.96518 
" style="fill:none;stroke:#ffffff;stroke-linecap:square;stroke-width:2;"/>
   </g>
   <g id="line2d_65">
    <path clip-path="url(#p274a7ed27d)" d="M 1045.06606 136.9912 
L 1057.1181 136.9912 
" style="fill:none;stroke:#ffffff;stroke-linecap:square;stroke-width:2;"/>
   </g>
   <g id="line2d_66">
    <path clip-path="url(#p274a7ed27d)" d="M 1120.62308 96.66322 
L 1120.62308 84.61118 
" style="fill:none;stroke:#ffffff;stroke-linecap:square;stroke-width:2;"/>
   </g>
   <g id="line2d_67">
    <path clip-path="url(#p274a7ed27d)" d="M 1114.59706 90.6372 
L 1126.6491 90.6372 
" style="fill:none;stroke:#ffffff;stroke-linecap:square;stroke-width:2;"/>
   </g>
   <g id="line2d_68">
    <path clip-path="url(#p274a7ed27d)" d="M 1166.97708 143.01722 
L 1166.97708 130.96518 
" style="fill:none;stroke:#ffffff;stroke-linecap:square;stroke-width:2;"/>
   </g>
   <g id="line2d_69">
    <path clip-path="url(#p274a7ed27d)" d="M 1160.95106 136.9912 
L 1173.0031 136.9912 
" style="fill:none;stroke:#ffffff;stroke-linecap:square;stroke-width:2;"/>
   </g>
   <g id="line2d_70">
    <path clip-path="url(#p274a7ed27d)" d="M 1213.33108 143.01722 
L 1213.33108 130.96518 
" style="fill:none;stroke:#ffffff;stroke-linecap:square;stroke-width:2;"/>
   </g>
   <g id="line2d_71">
    <path clip-path="url(#p274a7ed27d)" d="M 1207.30506 136.9912 
L 1219.3571 136.9912 
" style="fill:none;stroke:#ffffff;stroke-linecap:square;stroke-width:2;"/>
   </g>
   <g id="line2d_72">
    <path clip-path="url(#p274a7ed27d)" d="M 1352.39308 143.01722 
L 1352.39308 130.96518 
" style="fill:none;stroke:#ffffff;stroke-linecap:square;stroke-width:2;"/>
   </g>
   <g id="line2d_73">
    <path clip-path="url(#p274a7ed27d)" d="M 1346.36706 136.9912 
L 1358.4191 136.9912 
" style="fill:none;stroke:#ffffff;stroke-linecap:square;stroke-width:2;"/>
   </g>
   <g id="line2d_74">
    <path clip-path="url(#p274a7ed27d)" d="M 332.60508 421.14122 
L 332.60508 409.08918 
" style="fill:none;stroke:#ffffff;stroke-linecap:square;stroke-width:2;"/>
   </g>
   <g id="line2d_75">
    <path clip-path="url(#p274a7ed27d)" d="M 326.57906 415.1152 
L 338.6311 415.1152 
" style="fill:none;stroke:#ffffff;stroke-linecap:square;stroke-width:2;"/>
   </g>
   <g id="text_1">
    <g clip-path="url(#p274a7ed27d)">
     <!-- $U_2$ -->
     <defs>
      <path d="M 15.484375 72.90625 
L 25.390625 72.90625 
L 16.796875 28.609375 
Q 16.265625 25.640625 16.046875 23.703125 
Q 15.828125 21.78125 15.828125 20.3125 
Q 15.828125 13.578125 19.578125 10.078125 
Q 23.34375 6.59375 30.609375 6.59375 
Q 40.046875 6.59375 45.28125 11.765625 
Q 50.53125 16.9375 52.78125 28.609375 
L 61.375 72.90625 
L 71.296875 72.90625 
L 62.5 27.390625 
Q 59.625 12.640625 51.5625 5.609375 
Q 43.5 -1.421875 29.5 -1.421875 
Q 18.5625 -1.421875 12.1875 4.078125 
Q 5.8125 9.578125 5.8125 19 
Q 5.8125 20.703125 6.046875 22.828125 
Q 6.296875 24.953125 6.78125 27.390625 
z
" id="DejaVuSans-Oblique-85"/>
      <path d="M 19.1875 8.296875 
L 53.609375 8.296875 
L 53.609375 0 
L 7.328125 0 
L 7.328125 8.296875 
Q 12.9375 14.109375 22.625 23.890625 
Q 32.328125 33.6875 34.8125 36.53125 
Q 39.546875 41.84375 41.421875 45.53125 
Q 43.3125 49.21875 43.3125 52.78125 
Q 43.3125 58.59375 39.234375 62.25 
Q 35.15625 65.921875 28.609375 65.921875 
Q 23.96875 65.921875 18.8125 64.3125 
Q 13.671875 62.703125 7.8125 59.421875 
L 7.8125 69.390625 
Q 13.765625 71.78125 18.9375 73 
Q 24.125 74.21875 28.421875 74.21875 
Q 39.75 74.21875 46.484375 68.546875 
Q 53.21875 62.890625 53.21875 53.421875 
Q 53.21875 48.921875 51.53125 44.890625 
Q 49.859375 40.875 45.40625 35.40625 
Q 44.1875 33.984375 37.640625 27.21875 
Q 31.109375 20.453125 19.1875 8.296875 
z
" id="DejaVuSans-50"/>
     </defs>
     <g transform="translate(255.20908 43.350873)scale(0.13 -0.13)">
      <use transform="translate(0 0.09375)" xlink:href="#DejaVuSans-Oblique-85"/>
      <use transform="translate(73.193359 -16.3125)scale(0.7)" xlink:href="#DejaVuSans-50"/>
     </g>
    </g>
   </g>
   <g id="text_2">
    <g clip-path="url(#p274a7ed27d)">
     <!-- 0, $\pi$ -->
     <defs>
      <path d="M 31.78125 66.40625 
Q 24.171875 66.40625 20.328125 58.90625 
Q 16.5 51.421875 16.5 36.375 
Q 16.5 21.390625 20.328125 13.890625 
Q 24.171875 6.390625 31.78125 6.390625 
Q 39.453125 6.390625 43.28125 13.890625 
Q 47.125 21.390625 47.125 36.375 
Q 47.125 51.421875 43.28125 58.90625 
Q 39.453125 66.40625 31.78125 66.40625 
z
M 31.78125 74.21875 
Q 44.046875 74.21875 50.515625 64.515625 
Q 56.984375 54.828125 56.984375 36.375 
Q 56.984375 17.96875 50.515625 8.265625 
Q 44.046875 -1.421875 31.78125 -1.421875 
Q 19.53125 -1.421875 13.0625 8.265625 
Q 6.59375 17.96875 6.59375 36.375 
Q 6.59375 54.828125 13.0625 64.515625 
Q 19.53125 74.21875 31.78125 74.21875 
z
" id="DejaVuSans-48"/>
      <path d="M 11.71875 12.40625 
L 22.015625 12.40625 
L 22.015625 4 
L 14.015625 -11.625 
L 7.71875 -11.625 
L 11.71875 4 
z
" id="DejaVuSans-44"/>
      <path id="DejaVuSans-32"/>
      <path d="M 9.125 54.6875 
L 61.53125 54.6875 
L 59.765625 45.703125 
L 52.875 45.703125 
L 46.34375 12.109375 
Q 45.65625 8.59375 46.578125 7.03125 
Q 47.46875 5.515625 50.140625 5.515625 
Q 50.875 5.515625 51.953125 5.671875 
Q 53.078125 5.765625 53.421875 5.8125 
L 52.15625 -0.6875 
Q 50.34375 -1.3125 48.484375 -1.609375 
Q 46.578125 -1.90625 44.78125 -1.90625 
Q 38.921875 -1.90625 37.3125 1.265625 
Q 35.6875 4.5 37.359375 13.09375 
L 43.703125 45.703125 
L 23.53125 45.703125 
L 14.65625 0 
L 5.46875 0 
L 14.359375 45.703125 
L 7.375 45.703125 
z
" id="DejaVuSans-Oblique-960"/>
     </defs>
     <g transform="translate(255.55408 55.52973)scale(0.08 -0.08)">
      <use transform="translate(0 0.78125)" xlink:href="#DejaVuSans-48"/>
      <use transform="translate(63.623047 0.78125)" xlink:href="#DejaVuSans-44"/>
      <use transform="translate(95.410156 0.78125)" xlink:href="#DejaVuSans-32"/>
      <use transform="translate(127.197266 0.78125)" xlink:href="#DejaVuSans-Oblique-960"/>
     </g>
    </g>
   </g>
   <g id="text_3">
    <g clip-path="url(#p274a7ed27d)">
     <!-- $U_2$ -->
     <g transform="translate(440.62508 182.412873)scale(0.13 -0.13)">
      <use transform="translate(0 0.09375)" xlink:href="#DejaVuSans-Oblique-85"/>
      <use transform="translate(73.193359 -16.3125)scale(0.7)" xlink:href="#DejaVuSans-50"/>
     </g>
    </g>
   </g>
   <g id="text_4">
    <g clip-path="url(#p274a7ed27d)">
     <!-- 0, 0 -->
     <g transform="translate(440.85758 194.59173)scale(0.08 -0.08)">
      <use xlink:href="#DejaVuSans-48"/>
      <use x="63.623047" xlink:href="#DejaVuSans-44"/>
      <use x="95.410156" xlink:href="#DejaVuSans-32"/>
      <use x="127.197266" xlink:href="#DejaVuSans-48"/>
     </g>
    </g>
   </g>
   <g id="text_5">
    <g clip-path="url(#p274a7ed27d)">
     <!-- $U_2$ -->
     <g transform="translate(672.39508 43.350873)scale(0.13 -0.13)">
      <use transform="translate(0 0.09375)" xlink:href="#DejaVuSans-Oblique-85"/>
      <use transform="translate(73.193359 -16.3125)scale(0.7)" xlink:href="#DejaVuSans-50"/>
     </g>
    </g>
   </g>
   <g id="text_6">
    <g clip-path="url(#p274a7ed27d)">
     <!-- 0, $\pi$ -->
     <g transform="translate(672.74008 55.52973)scale(0.08 -0.08)">
      <use transform="translate(0 0.78125)" xlink:href="#DejaVuSans-48"/>
      <use transform="translate(63.623047 0.78125)" xlink:href="#DejaVuSans-44"/>
      <use transform="translate(95.410156 0.78125)" xlink:href="#DejaVuSans-32"/>
      <use transform="translate(127.197266 0.78125)" xlink:href="#DejaVuSans-Oblique-960"/>
     </g>
    </g>
   </g>
   <g id="text_7">
    <g clip-path="url(#p274a7ed27d)">
     <!-- $U_1$ -->
     <defs>
      <path d="M 12.40625 8.296875 
L 28.515625 8.296875 
L 28.515625 63.921875 
L 10.984375 60.40625 
L 10.984375 69.390625 
L 28.421875 72.90625 
L 38.28125 72.90625 
L 38.28125 8.296875 
L 54.390625 8.296875 
L 54.390625 0 
L 12.40625 0 
z
" id="DejaVuSans-49"/>
     </defs>
     <g transform="translate(788.28008 89.704873)scale(0.13 -0.13)">
      <use transform="translate(0 0.09375)" xlink:href="#DejaVuSans-Oblique-85"/>
      <use transform="translate(73.193359 -16.3125)scale(0.7)" xlink:href="#DejaVuSans-49"/>
     </g>
    </g>
   </g>
   <g id="text_8">
    <g clip-path="url(#p274a7ed27d)">
     <!-- $\pi$/3 -->
     <defs>
      <path d="M 25.390625 72.90625 
L 33.6875 72.90625 
L 8.296875 -9.28125 
L 0 -9.28125 
z
" id="DejaVuSans-47"/>
      <path d="M 40.578125 39.3125 
Q 47.65625 37.796875 51.625 33 
Q 55.609375 28.21875 55.609375 21.1875 
Q 55.609375 10.40625 48.1875 4.484375 
Q 40.765625 -1.421875 27.09375 -1.421875 
Q 22.515625 -1.421875 17.65625 -0.515625 
Q 12.796875 0.390625 7.625 2.203125 
L 7.625 11.71875 
Q 11.71875 9.328125 16.59375 8.109375 
Q 21.484375 6.890625 26.8125 6.890625 
Q 36.078125 6.890625 40.9375 10.546875 
Q 45.796875 14.203125 45.796875 21.1875 
Q 45.796875 27.640625 41.28125 31.265625 
Q 36.765625 34.90625 28.71875 34.90625 
L 20.21875 34.90625 
L 20.21875 43.015625 
L 29.109375 43.015625 
Q 36.375 43.015625 40.234375 45.921875 
Q 44.09375 48.828125 44.09375 54.296875 
Q 44.09375 59.90625 40.109375 62.90625 
Q 36.140625 65.921875 28.71875 65.921875 
Q 24.65625 65.921875 20.015625 65.03125 
Q 15.375 64.15625 9.8125 62.3125 
L 9.8125 71.09375 
Q 15.4375 72.65625 20.34375 73.4375 
Q 25.25 74.21875 29.59375 74.21875 
Q 40.828125 74.21875 47.359375 69.109375 
Q 53.90625 64.015625 53.90625 55.328125 
Q 53.90625 49.265625 50.4375 45.09375 
Q 46.96875 40.921875 40.578125 39.3125 
z
" id="DejaVuSans-51"/>
     </defs>
     <g transform="translate(789.82508 101.88373)scale(0.08 -0.08)">
      <use transform="translate(0 0.78125)" xlink:href="#DejaVuSans-Oblique-960"/>
      <use transform="translate(60.205078 0.78125)" xlink:href="#DejaVuSans-47"/>
      <use transform="translate(93.896484 0.78125)" xlink:href="#DejaVuSans-51"/>
     </g>
    </g>
   </g>
   <g id="text_9">
    <g clip-path="url(#p274a7ed27d)">
     <!-- $U_2$ -->
     <g transform="translate(950.51908 89.704873)scale(0.13 -0.13)">
      <use transform="translate(0 0.09375)" xlink:href="#DejaVuSans-Oblique-85"/>
      <use transform="translate(73.193359 -16.3125)scale(0.7)" xlink:href="#DejaVuSans-50"/>
     </g>
    </g>
   </g>
   <g id="text_10">
    <g clip-path="url(#p274a7ed27d)">
     <!-- 0, $\pi$ -->
     <g transform="translate(950.86408 101.88373)scale(0.08 -0.08)">
      <use transform="translate(0 0.78125)" xlink:href="#DejaVuSans-48"/>
      <use transform="translate(63.623047 0.78125)" xlink:href="#DejaVuSans-44"/>
      <use transform="translate(95.410156 0.78125)" xlink:href="#DejaVuSans-32"/>
      <use transform="translate(127.197266 0.78125)" xlink:href="#DejaVuSans-Oblique-960"/>
     </g>
    </g>
   </g>
   <g id="text_11">
    <g clip-path="url(#p274a7ed27d)">
     <!-- $U_2$ -->
     <g transform="translate(950.51908 228.766872)scale(0.13 -0.13)">
      <use transform="translate(0 0.09375)" xlink:href="#DejaVuSans-Oblique-85"/>
      <use transform="translate(73.193359 -16.3125)scale(0.7)" xlink:href="#DejaVuSans-50"/>
     </g>
    </g>
   </g>
   <g id="text_12">
    <g clip-path="url(#p274a7ed27d)">
     <!-- 0, $\pi$ -->
     <g transform="translate(950.86408 240.94573)scale(0.08 -0.08)">
      <use transform="translate(0 0.78125)" xlink:href="#DejaVuSans-48"/>
      <use transform="translate(63.623047 0.78125)" xlink:href="#DejaVuSans-44"/>
      <use transform="translate(95.410156 0.78125)" xlink:href="#DejaVuSans-32"/>
      <use transform="translate(127.197266 0.78125)" xlink:href="#DejaVuSans-Oblique-960"/>
     </g>
    </g>
   </g>
   <g id="text_13">
    <g clip-path="url(#p274a7ed27d)">
     <!-- $U_2$ -->
     <g transform="translate(1043.22708 182.412873)scale(0.13 -0.13)">
      <use transform="translate(0 0.09375)" xlink:href="#DejaVuSans-Oblique-85"/>
      <use transform="translate(73.193359 -16.3125)scale(0.7)" xlink:href="#DejaVuSans-50"/>
     </g>
    </g>
   </g>
   <g id="text_14">
    <g clip-path="url(#p274a7ed27d)">
     <!-- 0, $\pi$ -->
     <g transform="translate(1043.57208 194.59173)scale(0.08 -0.08)">
      <use transform="translate(0 0.78125)" xlink:href="#DejaVuSans-48"/>
      <use transform="translate(63.623047 0.78125)" xlink:href="#DejaVuSans-44"/>
      <use transform="translate(95.410156 0.78125)" xlink:href="#DejaVuSans-32"/>
      <use transform="translate(127.197266 0.78125)" xlink:href="#DejaVuSans-Oblique-960"/>
     </g>
    </g>
   </g>
   <g id="text_15">
    <g clip-path="url(#p274a7ed27d)">
     <!-- $U_2$ -->
     <g transform="translate(1274.99708 136.058873)scale(0.13 -0.13)">
      <use transform="translate(0 0.09375)" xlink:href="#DejaVuSans-Oblique-85"/>
      <use transform="translate(73.193359 -16.3125)scale(0.7)" xlink:href="#DejaVuSans-50"/>
     </g>
    </g>
   </g>
   <g id="text_16">
    <g clip-path="url(#p274a7ed27d)">
     <!-- 0, $\pi$ -->
     <g transform="translate(1275.34208 148.23773)scale(0.08 -0.08)">
      <use transform="translate(0 0.78125)" xlink:href="#DejaVuSans-48"/>
      <use transform="translate(63.623047 0.78125)" xlink:href="#DejaVuSans-44"/>
      <use transform="translate(95.410156 0.78125)" xlink:href="#DejaVuSans-32"/>
      <use transform="translate(127.197266 0.78125)" xlink:href="#DejaVuSans-Oblique-960"/>
     </g>
    </g>
   </g>
   <g id="text_17">
    <g clip-path="url(#p274a7ed27d)">
     <!-- $U_2$ -->
     <g transform="translate(255.20908 414.182872)scale(0.13 -0.13)">
      <use transform="translate(0 0.09375)" xlink:href="#DejaVuSans-Oblique-85"/>
      <use transform="translate(73.193359 -16.3125)scale(0.7)" xlink:href="#DejaVuSans-50"/>
     </g>
    </g>
   </g>
   <g id="text_18">
    <g clip-path="url(#p274a7ed27d)">
     <!-- 0, $\pi$ -->
     <g transform="translate(255.55408 426.36173)scale(0.08 -0.08)">
      <use transform="translate(0 0.78125)" xlink:href="#DejaVuSans-48"/>
      <use transform="translate(63.623047 0.78125)" xlink:href="#DejaVuSans-44"/>
      <use transform="translate(95.410156 0.78125)" xlink:href="#DejaVuSans-32"/>
      <use transform="translate(127.197266 0.78125)" xlink:href="#DejaVuSans-Oblique-960"/>
     </g>
    </g>
   </g>
   <g id="text_19">
    <g clip-path="url(#p274a7ed27d)">
     <!-- $U_2$ -->
     <g transform="translate(394.27108 414.182872)scale(0.13 -0.13)">
      <use transform="translate(0 0.09375)" xlink:href="#DejaVuSans-Oblique-85"/>
      <use transform="translate(73.193359 -16.3125)scale(0.7)" xlink:href="#DejaVuSans-50"/>
     </g>
    </g>
   </g>
   <g id="text_20">
    <g clip-path="url(#p274a7ed27d)">
     <!-- 0, $\pi$ -->
     <g transform="translate(394.61608 426.36173)scale(0.08 -0.08)">
      <use transform="translate(0 0.78125)" xlink:href="#DejaVuSans-48"/>
      <use transform="translate(63.623047 0.78125)" xlink:href="#DejaVuSans-44"/>
      <use transform="translate(95.410156 0.78125)" xlink:href="#DejaVuSans-32"/>
      <use transform="translate(127.197266 0.78125)" xlink:href="#DejaVuSans-Oblique-960"/>
     </g>
    </g>
   </g>
   <g id="text_21">
    <g clip-path="url(#p274a7ed27d)">
     <!-- ${q}_{1} \mapsto {0}$ -->
     <defs>
      <path d="M 41.703125 8.203125 
Q 38.09375 3.46875 33.171875 1.015625 
Q 28.265625 -1.421875 22.3125 -1.421875 
Q 14.015625 -1.421875 9.296875 4.171875 
Q 4.59375 9.765625 4.59375 19.578125 
Q 4.59375 27.484375 7.5 34.859375 
Q 10.40625 42.234375 15.828125 48.09375 
Q 19.34375 51.90625 23.90625 53.953125 
Q 28.46875 56 33.5 56 
Q 39.546875 56 43.453125 53.609375 
Q 47.359375 51.21875 49.125 46.390625 
L 50.6875 54.59375 
L 59.71875 54.59375 
L 45.125 -20.609375 
L 36.078125 -20.609375 
z
M 13.921875 20.90625 
Q 13.921875 13.671875 16.9375 9.890625 
Q 19.96875 6.109375 25.6875 6.109375 
Q 34.1875 6.109375 40.1875 14.234375 
Q 46.1875 22.359375 46.1875 33.984375 
Q 46.1875 41.015625 43.078125 44.75 
Q 39.984375 48.484375 34.1875 48.484375 
Q 29.9375 48.484375 26.3125 46.5 
Q 22.703125 44.53125 20.015625 40.71875 
Q 17.1875 36.71875 15.546875 31.34375 
Q 13.921875 25.984375 13.921875 20.90625 
z
" id="DejaVuSans-Oblique-113"/>
      <path d="M 65.234375 27.203125 
L 14.015625 27.203125 
L 14.015625 10.359375 
L 5.71875 10.359375 
L 5.71875 52.34375 
L 14.015625 52.34375 
L 14.015625 35.5 
L 65.234375 35.5 
L 53.859375 46.875 
L 59.71875 52.734375 
L 78.90625 33.546875 
L 78.90625 29.15625 
L 59.71875 9.96875 
L 53.859375 15.828125 
z
" id="DejaVuSans-8614"/>
     </defs>
     <g transform="translate(145.11808 48.734177)scale(0.1625 -0.1625)">
      <use transform="translate(0 0.78125)" xlink:href="#DejaVuSans-Oblique-113"/>
      <use transform="translate(63.476562 -15.625)scale(0.7)" xlink:href="#DejaVuSans-49"/>
      <use transform="translate(130.229492 0.78125)" xlink:href="#DejaVuSans-8614"/>
      <use transform="translate(233.500977 0.78125)" xlink:href="#DejaVuSans-48"/>
     </g>
    </g>
   </g>
   <g id="text_22">
    <g clip-path="url(#p274a7ed27d)">
     <!-- ${q}_{3} \mapsto {1}$ -->
     <g transform="translate(145.11808 95.088177)scale(0.1625 -0.1625)">
      <use transform="translate(0 0.09375)" xlink:href="#DejaVuSans-Oblique-113"/>
      <use transform="translate(63.476562 -16.3125)scale(0.7)" xlink:href="#DejaVuSans-51"/>
      <use transform="translate(130.229492 0.09375)" xlink:href="#DejaVuSans-8614"/>
      <use transform="translate(233.500977 0.09375)" xlink:href="#DejaVuSans-49"/>
     </g>
    </g>
   </g>
   <g id="text_23">
    <g clip-path="url(#p274a7ed27d)">
     <!-- ${a}_{0} \mapsto {2}$ -->
     <defs>
      <path d="M 53.71875 31.203125 
L 47.609375 0 
L 38.625 0 
L 40.28125 8.296875 
Q 36.328125 3.421875 31.265625 1 
Q 26.21875 -1.421875 20.015625 -1.421875 
Q 13.03125 -1.421875 8.5625 2.84375 
Q 4.109375 7.125 4.109375 13.8125 
Q 4.109375 23.390625 11.75 28.953125 
Q 19.390625 34.515625 32.8125 34.515625 
L 45.3125 34.515625 
L 45.796875 36.921875 
Q 45.90625 37.3125 45.953125 37.765625 
Q 46 38.234375 46 39.203125 
Q 46 43.5625 42.453125 45.96875 
Q 38.921875 48.390625 32.515625 48.390625 
Q 28.125 48.390625 23.5 47.265625 
Q 18.890625 46.140625 14.015625 43.890625 
L 15.578125 52.203125 
Q 20.65625 54.109375 25.515625 55.046875 
Q 30.375 56 34.90625 56 
Q 44.578125 56 49.625 51.796875 
Q 54.6875 47.609375 54.6875 39.59375 
Q 54.6875 37.984375 54.4375 35.8125 
Q 54.203125 33.640625 53.71875 31.203125 
z
M 44 27.484375 
L 35.015625 27.484375 
Q 23.96875 27.484375 18.671875 24.53125 
Q 13.375 21.578125 13.375 15.375 
Q 13.375 11.078125 16.078125 8.640625 
Q 18.796875 6.203125 23.578125 6.203125 
Q 30.90625 6.203125 36.375 11.453125 
Q 41.84375 16.703125 43.609375 25.484375 
z
" id="DejaVuSans-Oblique-97"/>
     </defs>
     <g transform="translate(145.60558 141.475184)scale(0.1625 -0.1625)">
      <use transform="translate(0 0.78125)" xlink:href="#DejaVuSans-Oblique-97"/>
      <use transform="translate(61.279297 -15.625)scale(0.7)" xlink:href="#DejaVuSans-48"/>
      <use transform="translate(128.032227 0.78125)" xlink:href="#DejaVuSans-8614"/>
      <use transform="translate(231.303711 0.78125)" xlink:href="#DejaVuSans-50"/>
     </g>
    </g>
   </g>
   <g id="text_24">
    <g clip-path="url(#p274a7ed27d)">
     <!-- ${q}_{2} \mapsto {3}$ -->
     <g transform="translate(145.11808 187.796177)scale(0.1625 -0.1625)">
      <use transform="translate(0 0.78125)" xlink:href="#DejaVuSans-Oblique-113"/>
      <use transform="translate(63.476562 -15.625)scale(0.7)" xlink:href="#DejaVuSans-50"/>
      <use transform="translate(130.229492 0.78125)" xlink:href="#DejaVuSans-8614"/>
      <use transform="translate(233.500977 0.78125)" xlink:href="#DejaVuSans-51"/>
     </g>
    </g>
   </g>
   <g id="text_25">
    <g clip-path="url(#p274a7ed27d)">
     <!-- ${q}_{0} \mapsto {4}$ -->
     <defs>
      <path d="M 37.796875 64.3125 
L 12.890625 25.390625 
L 37.796875 25.390625 
z
M 35.203125 72.90625 
L 47.609375 72.90625 
L 47.609375 25.390625 
L 58.015625 25.390625 
L 58.015625 17.1875 
L 47.609375 17.1875 
L 47.609375 0 
L 37.796875 0 
L 37.796875 17.1875 
L 4.890625 17.1875 
L 4.890625 26.703125 
z
" id="DejaVuSans-52"/>
     </defs>
     <g transform="translate(145.11808 234.150177)scale(0.1625 -0.1625)">
      <use transform="translate(0 0.09375)" xlink:href="#DejaVuSans-Oblique-113"/>
      <use transform="translate(63.476562 -16.3125)scale(0.7)" xlink:href="#DejaVuSans-48"/>
      <use transform="translate(130.229492 0.09375)" xlink:href="#DejaVuSans-8614"/>
      <use transform="translate(233.500977 0.09375)" xlink:href="#DejaVuSans-52"/>
     </g>
    </g>
   </g>
   <g id="text_26">
    <g clip-path="url(#p274a7ed27d)">
     <!-- ${q}_{1} \mapsto {0}$ -->
     <g transform="translate(145.11808 326.858177)scale(0.1625 -0.1625)">
      <use transform="translate(0 0.78125)" xlink:href="#DejaVuSans-Oblique-113"/>
      <use transform="translate(63.476562 -15.625)scale(0.7)" xlink:href="#DejaVuSans-49"/>
      <use transform="translate(130.229492 0.78125)" xlink:href="#DejaVuSans-8614"/>
      <use transform="translate(233.500977 0.78125)" xlink:href="#DejaVuSans-48"/>
     </g>
    </g>
   </g>
   <g id="text_27">
    <g clip-path="url(#p274a7ed27d)">
     <!-- ${q}_{3} \mapsto {1}$ -->
     <g transform="translate(145.11808 373.212177)scale(0.1625 -0.1625)">
      <use transform="translate(0 0.09375)" xlink:href="#DejaVuSans-Oblique-113"/>
      <use transform="translate(63.476562 -16.3125)scale(0.7)" xlink:href="#DejaVuSans-51"/>
      <use transform="translate(130.229492 0.09375)" xlink:href="#DejaVuSans-8614"/>
      <use transform="translate(233.500977 0.09375)" xlink:href="#DejaVuSans-49"/>
     </g>
    </g>
   </g>
   <g id="text_28">
    <g clip-path="url(#p274a7ed27d)">
     <!-- ${a}_{0} \mapsto {2}$ -->
     <g transform="translate(145.60558 419.599184)scale(0.1625 -0.1625)">
      <use transform="translate(0 0.78125)" xlink:href="#DejaVuSans-Oblique-97"/>
      <use transform="translate(61.279297 -15.625)scale(0.7)" xlink:href="#DejaVuSans-48"/>
      <use transform="translate(128.032227 0.78125)" xlink:href="#DejaVuSans-8614"/>
      <use transform="translate(231.303711 0.78125)" xlink:href="#DejaVuSans-50"/>
     </g>
    </g>
   </g>
   <g id="text_29">
    <g clip-path="url(#p274a7ed27d)">
     <!-- ${q}_{2} \mapsto {3}$ -->
     <g transform="translate(145.11808 465.920177)scale(0.1625 -0.1625)">
      <use transform="translate(0 0.78125)" xlink:href="#DejaVuSans-Oblique-113"/>
      <use transform="translate(63.476562 -15.625)scale(0.7)" xlink:href="#DejaVuSans-50"/>
      <use transform="translate(130.229492 0.78125)" xlink:href="#DejaVuSans-8614"/>
      <use transform="translate(233.500977 0.78125)" xlink:href="#DejaVuSans-51"/>
     </g>
    </g>
   </g>
   <g id="text_30">
    <g clip-path="url(#p274a7ed27d)">
     <!-- ${q}_{0} \mapsto {4}$ -->
     <g transform="translate(145.11808 512.274177)scale(0.1625 -0.1625)">
      <use transform="translate(0 0.09375)" xlink:href="#DejaVuSans-Oblique-113"/>
      <use transform="translate(63.476562 -16.3125)scale(0.7)" xlink:href="#DejaVuSans-48"/>
      <use transform="translate(130.229492 0.09375)" xlink:href="#DejaVuSans-8614"/>
      <use transform="translate(233.500977 0.09375)" xlink:href="#DejaVuSans-52"/>
     </g>
    </g>
   </g>
  </g>
 </g>
 <defs>
  <clipPath id="p274a7ed27d">
   <rect height="528.4356" width="1396.18248" x="7.2" y="7.2"/>
  </clipPath>
 </defs>
</svg>
