<?xml version="1.0" encoding="utf-8" standalone="no"?>
<!DOCTYPE svg PUBLIC "-//W3C//DTD SVG 1.1//EN"
  "http://www.w3.org/Graphics/SVG/1.1/DTD/svg11.dtd">
<!-- Created with matplotlib (https://matplotlib.org/) -->
<svg height="302.4pt" version="1.1" viewBox="0 0 820.8 302.4" width="820.8pt" xmlns="http://www.w3.org/2000/svg" xmlns:xlink="http://www.w3.org/1999/xlink">
 <defs>
  <style type="text/css">
*{stroke-linecap:butt;stroke-linejoin:round;}
  </style>
 </defs>
 <g id="figure_1">
  <g id="patch_1">
   <path d="M 0 302.4 
L 820.8 302.4 
L 820.8 0 
L 0 0 
z
" style="fill:#ffffff;"/>
  </g>
  <g id="patch_2">
   <path d="M -30.6 262.8 
L 349.854545 262.8 
L 349.854545 -14.4 
L -30.6 -14.4 
z
" style="fill:#ffffff;"/>
  </g>
  <g id="pane3d_1">
   <g id="patch_3">
    <path d="M 19.835129 201.548569 
L 128.723211 133.58541 
L 126.910339 3.718968 
L 11.951034 64.782468 
" style="fill:#f2f2f2;opacity:0.5;stroke:#f2f2f2;stroke-linejoin:miter;"/>
   </g>
  </g>
  <g id="pane3d_2">
   <g id="patch_4">
    <path d="M 128.723211 133.58541 
L 305.111665 171.581202 
L 312.491547 37.79869 
L 126.910339 3.718968 
" style="fill:#e6e6e6;opacity:0.5;stroke:#e6e6e6;stroke-linejoin:miter;"/>
   </g>
  </g>
  <g id="pane3d_3">
   <g id="patch_5">
    <path d="M 19.835129 201.548569 
L 205.419617 245.80086 
L 305.111665 171.581202 
L 128.723211 133.58541 
" style="fill:#ececec;opacity:0.5;stroke:#ececec;stroke-linejoin:miter;"/>
   </g>
  </g>
  <g id="axis3d_1">
   <g id="line2d_1">
    <path d="M 19.835129 201.548569 
L 205.419617 245.80086 
" style="fill:none;stroke:#000000;stroke-linecap:square;stroke-width:0.8;"/>
   </g>
   <g id="Line3DCollection_1">
    <path d="M 42.295817 206.90428 
L 150.133942 138.19749 
L 149.393845 7.847789 
" style="fill:none;stroke:#b0b0b0;stroke-width:0.8;"/>
    <path d="M 87.512337 217.686079 
L 193.184014 147.470895 
L 194.636898 16.156123 
" style="fill:none;stroke:#b0b0b0;stroke-width:0.8;"/>
    <path d="M 133.765289 228.715013 
L 237.148096 156.941187 
L 240.890183 24.649974 
" style="fill:none;stroke:#b0b0b0;stroke-width:0.8;"/>
    <path d="M 181.090721 239.999678 
L 282.055608 166.614702 
L 288.187917 33.335625 
" style="fill:none;stroke:#b0b0b0;stroke-width:0.8;"/>
   </g>
   <g id="xtick_1">
    <g id="line2d_2">
     <path d="M 43.225084 206.312217 
L 40.433807 208.09062 
" style="fill:none;stroke:#000000;stroke-linecap:square;stroke-width:0.8;"/>
    </g>
    <g id="text_1">
     <!-- 00 -->
     <defs>
      <path d="M 42 31.84375 
C 42 37.96875 41.90625 48.421875 37.703125 56.453125 
C 34 63.484375 28.09375 66 22.90625 66 
C 18.09375 66 12 63.78125 8.203125 56.5625 
C 4.203125 49.015625 3.796875 39.671875 3.796875 31.84375 
C 3.796875 26.109375 3.90625 17.375 7 9.734375 
C 11.296875 -0.609375 19 -2 22.90625 -2 
C 27.5 -2 34.5 -0.109375 38.59375 9.4375 
C 41.59375 16.375 42 24.5 42 31.84375 
z
M 22.90625 -0.40625 
C 16.5 -0.40625 12.703125 5.125 11.296875 12.75 
C 10.203125 18.6875 10.203125 27.328125 10.203125 32.953125 
C 10.203125 40.6875 10.203125 47.109375 11.5 53.234375 
C 13.40625 61.78125 19 64.390625 22.90625 64.390625 
C 27 64.390625 32.296875 61.671875 34.203125 53.4375 
C 35.5 47.71875 35.59375 40.984375 35.59375 32.953125 
C 35.59375 26.421875 35.59375 18.375 34.40625 12.453125 
C 32.296875 1.5 26.40625 -0.40625 22.90625 -0.40625 
z
" id="CMR17-48"/>
     </defs>
     <g transform="translate(23.330362 237.14703)rotate(-45)scale(0.14 -0.14)">
      <use transform="scale(0.996264)" xlink:href="#CMR17-48"/>
      <use transform="translate(45.690477 0)scale(0.996264)" xlink:href="#CMR17-48"/>
     </g>
    </g>
   </g>
   <g id="xtick_2">
    <g id="line2d_3">
     <path d="M 88.423674 217.080527 
L 85.686217 218.899473 
" style="fill:none;stroke:#000000;stroke-linecap:square;stroke-width:0.8;"/>
    </g>
    <g id="text_2">
     <!-- 01 -->
     <defs>
      <path d="M 26.59375 63.796875 
C 26.59375 65.890625 26.5 66 25.09375 66 
C 21.203125 61.359375 15.296875 59.890625 9.703125 59.6875 
C 9.40625 59.6875 8.90625 59.6875 8.796875 59.5 
C 8.703125 59.296875 8.703125 59.09375 8.703125 57 
C 11.796875 57 17 57.59375 21 59.984375 
L 21 7.296875 
C 21 3.796875 20.796875 2.59375 12.203125 2.59375 
L 9.203125 2.59375 
L 9.203125 0 
C 14 0.09375 19 0.1875 23.796875 0.1875 
C 28.59375 0.1875 33.59375 0.09375 38.40625 0 
L 38.40625 2.59375 
L 35.40625 2.59375 
C 26.796875 2.59375 26.59375 3.6875 26.59375 7.296875 
z
" id="CMR17-49"/>
     </defs>
     <g transform="translate(68.542787 248.103782)rotate(-45)scale(0.14 -0.14)">
      <use transform="scale(0.996264)" xlink:href="#CMR17-48"/>
      <use transform="translate(45.690477 0)scale(0.996264)" xlink:href="#CMR17-49"/>
     </g>
    </g>
   </g>
   <g id="xtick_3">
    <g id="line2d_4">
     <path d="M 134.657625 228.095506 
L 131.977203 229.956397 
" style="fill:none;stroke:#000000;stroke-linecap:square;stroke-width:0.8;"/>
    </g>
    <g id="text_3">
     <!-- 10 -->
     <g transform="translate(114.7934 259.312128)rotate(-45)scale(0.14 -0.14)">
      <use transform="scale(0.996264)" xlink:href="#CMR17-49"/>
      <use transform="translate(45.690477 0)scale(0.996264)" xlink:href="#CMR17-48"/>
     </g>
    </g>
   </g>
   <g id="xtick_4">
    <g id="line2d_5">
     <path d="M 181.962926 239.365727 
L 179.342936 241.270032 
" style="fill:none;stroke:#000000;stroke-linecap:square;stroke-width:0.8;"/>
    </g>
    <g id="text_4">
     <!-- 11 -->
     <g transform="translate(162.118375 270.780834)rotate(-45)scale(0.14 -0.14)">
      <use transform="scale(0.996264)" xlink:href="#CMR17-49"/>
      <use transform="translate(45.690477 0)scale(0.996264)" xlink:href="#CMR17-49"/>
     </g>
    </g>
   </g>
  </g>
  <g id="axis3d_2">
   <g id="line2d_6">
    <path d="M 305.111665 171.581202 
L 205.419617 245.80086 
" style="fill:none;stroke:#000000;stroke-linecap:square;stroke-width:0.8;"/>
   </g>
   <g id="Line3DCollection_2">
    <path d="M 27.455231 56.547028 
L 34.471044 192.413474 
L 218.858418 235.795817 
" style="fill:none;stroke:#b0b0b0;stroke-width:0.8;"/>
    <path d="M 57.232024 40.730342 
L 62.623407 174.842005 
L 244.674037 216.576366 
" style="fill:none;stroke:#b0b0b0;stroke-width:0.8;"/>
    <path d="M 85.85589 25.526062 
L 89.739382 157.917404 
L 269.496985 198.095948 
" style="fill:none;stroke:#b0b0b0;stroke-width:0.8;"/>
    <path d="M 113.392516 10.899296 
L 115.875164 141.604597 
L 293.383438 180.312741 
" style="fill:none;stroke:#b0b0b0;stroke-width:0.8;"/>
   </g>
   <g id="xtick_5">
    <g id="line2d_7">
     <path d="M 217.315598 235.432825 
L 221.947489 236.522608 
" style="fill:none;stroke:#000000;stroke-linecap:square;stroke-width:0.8;"/>
    </g>
    <g id="text_5">
     <!-- 00 -->
     <g transform="translate(232.650369 248.348363)rotate(-337.5)scale(0.14 -0.14)">
      <use transform="scale(0.996264)" xlink:href="#CMR17-48"/>
      <use transform="translate(45.690477 0)scale(0.996264)" xlink:href="#CMR17-48"/>
     </g>
    </g>
   </g>
   <g id="xtick_6">
    <g id="line2d_8">
     <path d="M 243.15208 216.227463 
L 247.72127 217.274932 
" style="fill:none;stroke:#000000;stroke-linecap:square;stroke-width:0.8;"/>
    </g>
    <g id="text_6">
     <!-- 01 -->
     <g transform="translate(258.203921 228.903937)rotate(-337.5)scale(0.14 -0.14)">
      <use transform="scale(0.996264)" xlink:href="#CMR17-48"/>
      <use transform="translate(45.690477 0)scale(0.996264)" xlink:href="#CMR17-49"/>
     </g>
    </g>
   </g>
   <g id="xtick_7">
    <g id="line2d_9">
     <path d="M 267.995442 197.76033 
L 272.503283 198.767901 
" style="fill:none;stroke:#000000;stroke-linecap:square;stroke-width:0.8;"/>
    </g>
    <g id="text_7">
     <!-- 10 -->
     <g transform="translate(282.775332 210.206849)rotate(-337.5)scale(0.14 -0.14)">
      <use transform="scale(0.996264)" xlink:href="#CMR17-49"/>
      <use transform="translate(45.690477 0)scale(0.996264)" xlink:href="#CMR17-48"/>
     </g>
    </g>
   </g>
   <g id="xtick_8">
    <g id="line2d_10">
     <path d="M 291.901865 179.989663 
L 296.349691 180.959573 
" style="fill:none;stroke:#000000;stroke-linecap:square;stroke-width:0.8;"/>
    </g>
    <g id="text_8">
     <!-- 11 -->
     <g transform="translate(306.420159 192.214827)rotate(-337.5)scale(0.14 -0.14)">
      <use transform="scale(0.996264)" xlink:href="#CMR17-49"/>
      <use transform="translate(45.690477 0)scale(0.996264)" xlink:href="#CMR17-49"/>
     </g>
    </g>
   </g>
  </g>
  <g id="axis3d_3">
   <g id="line2d_11">
    <path d="M 305.111665 171.581202 
L 312.491547 37.79869 
" style="fill:none;stroke:#000000;stroke-linecap:square;stroke-width:0.8;"/>
   </g>
   <g id="text_9">
    <!-- Re[$\rho$] -->
    <defs>
     <path d="M 39.203125 33.6875 
C 48.703125 35.59375 56.703125 42.015625 56.703125 50.046875 
C 56.703125 59.46875 46.09375 68 32.09375 68 
L 5.203125 68 
L 5.203125 65.390625 
C 12.09375 65.390625 13.203125 65.390625 13.203125 60.875 
L 13.203125 6.6875 
C 13.203125 2.1875 12.09375 2.1875 5.203125 2.1875 
L 5.203125 -0.40625 
C 8.09375 -0.203125 13.296875 -0.203125 16.40625 -0.203125 
C 19.5 -0.203125 24.703125 -0.203125 27.59375 -0.40625 
L 27.59375 2.1875 
C 20.703125 2.1875 19.59375 2.1875 19.59375 6.6875 
L 19.59375 33 
L 31.296875 33 
C 37 33 40.203125 30.6875 41.59375 29.390625 
C 45.59375 25.5 45.59375 22.796875 45.59375 16 
C 45.59375 9.296875 45.59375 5.890625 48.59375 2.5 
C 52.40625 -1.609375 57.5 -2 59.703125 -2 
C 67.09375 -2 68.203125 6.296875 68.203125 8 
C 68.203125 8.59375 68.203125 9.296875 67.296875 9.296875 
C 66.5 9.296875 66.40625 8.6875 66.40625 8.296875 
C 65.90625 1.796875 63 -0.40625 59.90625 -0.40625 
C 54.40625 -0.40625 53.796875 5.890625 53.203125 12 
C 52.90625 14.09375 52.703125 15.59375 52.5 17.796875 
C 51.90625 22.796875 51.09375 30.09375 39.203125 33.6875 
z
M 31 34.59375 
L 19.59375 34.59375 
L 19.59375 61.484375 
C 19.59375 64.890625 19.796875 65.390625 23.796875 65.390625 
L 31.09375 65.390625 
C 39.40625 65.390625 49.09375 62.484375 49.09375 50.046875 
C 49.09375 37.09375 38.5 34.59375 31 34.59375 
z
" id="CMR17-82"/>
     <path d="M 38.09375 23.484375 
C 38.5 23.890625 38.5 24.09375 38.5 25.09375 
C 38.5 35.171875 33.09375 44 21.703125 44 
C 11.09375 44 2.703125 33.984375 2.703125 21.78125 
C 2.703125 8.65625 12.203125 -1 22.796875 -1 
C 34 -1 38.40625 9.671875 38.40625 11.796875 
C 38.40625 12.5 37.796875 12.5 37.59375 12.5 
C 36.90625 12.5 36.796875 12.296875 36.40625 11.078125 
C 34.203125 4.21875 28.703125 0.796875 23.5 0.796875 
C 19.203125 0.796875 14.90625 3.21875 12.203125 7.65625 
C 9.09375 12.796875 9.09375 18.75 9.09375 23.484375 
z
M 9.203125 25 
C 9.90625 39.234375 17.59375 42.390625 21.59375 42.390625 
C 28.40625 42.390625 33 36.0625 33.09375 25 
z
" id="CMR17-101"/>
     <path d="M 23.5 -25 
L 23.5 -21.5 
L 14.09375 -21.5 
L 14.09375 71.484375 
L 23.5 71.484375 
L 23.5 75 
L 10.59375 75 
L 10.59375 -25 
z
" id="CMR17-91"/>
     <path d="M 3.09375 -16.953125 
C 3 -17.4375 2.796875 -18.03125 2.796875 -18.609375 
C 2.796875 -20.109375 4 -21.109375 5.5 -21.109375 
C 7 -21.109375 8.40625 -20.109375 9 -18.71875 
C 9.40625 -17.828125 12.203125 -6.09375 15.40625 6.078125 
C 17.40625 1.09375 21.09375 -1 25 -1 
C 36.296875 -1 49.09375 12.96875 49.09375 28.03125 
C 49.09375 38.703125 42.59375 44 35.703125 44 
C 26.90625 44 16.203125 34.90625 12.90625 21.640625 
z
M 24.90625 1 
C 18.09375 1 16.40625 8.875 16.40625 10.078125 
C 16.40625 10.671875 18.90625 20.140625 19.203125 21.640625 
C 24.296875 41.5 34.09375 41.984375 35.59375 41.984375 
C 40.09375 41.984375 42.59375 37.90625 42.59375 32.015625 
C 42.59375 26.9375 39.90625 17.046875 38.203125 12.859375 
C 35.203125 5.984375 30 1 24.90625 1 
z
" id="CMMI12-26"/>
     <path d="M 14.296875 75 
L 1.40625 75 
L 1.40625 71.484375 
L 10.796875 71.484375 
L 10.796875 -21.5 
L 1.40625 -21.5 
L 1.40625 -25 
L 14.296875 -25 
z
" id="CMR17-93"/>
    </defs>
    <g transform="translate(352.486567 117.931831)rotate(-86.842577)scale(0.14 -0.14)">
     <use transform="scale(0.996264)" xlink:href="#CMR17-82"/>
     <use transform="translate(67.791102 0)scale(0.996264)" xlink:href="#CMR17-101"/>
     <use transform="translate(108.276762 0)scale(0.996264)" xlink:href="#CMR17-91"/>
     <use transform="translate(133.147821 0)scale(0.996264)" xlink:href="#CMMI12-26"/>
     <use transform="translate(183.462194 0)scale(0.996264)" xlink:href="#CMR17-93"/>
    </g>
   </g>
   <g id="Line3DCollection_3">
    <path d="M 305.277249 168.579493 
L 128.682448 130.665356 
L 19.658529 198.485077 
" style="fill:none;stroke:#b0b0b0;stroke-width:0.8;"/>
    <path d="M 308.006773 119.098681 
L 128.011084 82.571696 
L 16.745455 147.95171 
" style="fill:none;stroke:#b0b0b0;stroke-width:0.8;"/>
    <path d="M 310.844445 67.657353 
L 127.314266 32.654594 
L 13.713024 95.347871 
" style="fill:none;stroke:#b0b0b0;stroke-width:0.8;"/>
   </g>
   <g id="xtick_9">
    <g id="line2d_12">
     <path d="M 303.803807 168.263152 
L 308.227199 169.212835 
" style="fill:none;stroke:#000000;stroke-linecap:square;stroke-width:0.8;"/>
    </g>
    <g id="text_10">
     <!-- $0.0$ -->
     <defs>
      <path d="M 18.40625 4.796875 
C 18.40625 7.6875 16 9.6875 13.59375 9.6875 
C 10.703125 9.6875 8.703125 7.296875 8.703125 4.890625 
C 8.703125 2 11.09375 0 13.5 0 
C 16.40625 0 18.40625 2.390625 18.40625 4.796875 
z
" id="CMMI12-58"/>
     </defs>
     <g transform="translate(315.083007 176.325084)scale(0.14 -0.14)">
      <use transform="scale(0.996264)" xlink:href="#CMR17-48"/>
      <use transform="translate(45.690477 0)scale(0.996264)" xlink:href="#CMMI12-58"/>
      <use transform="translate(72.787654 0)scale(0.996264)" xlink:href="#CMR17-48"/>
     </g>
    </g>
   </g>
   <g id="xtick_10">
    <g id="line2d_13">
     <path d="M 306.503754 118.793669 
L 311.015999 119.709351 
" style="fill:none;stroke:#000000;stroke-linecap:square;stroke-width:0.8;"/>
    </g>
    <g id="text_11">
     <!-- $0.2$ -->
     <defs>
      <path d="M 41.703125 15.46875 
L 39.90625 15.46875 
C 38.90625 8.390625 38.09375 7.1875 37.703125 6.59375 
C 37.203125 5.796875 30 5.796875 28.59375 5.796875 
L 9.40625 5.796875 
C 13 9.6875 20 16.765625 28.5 24.9375 
C 34.59375 30.71875 41.703125 37.5 41.703125 47.390625 
C 41.703125 59.1875 32.296875 66 21.796875 66 
C 10.796875 66 4.09375 56.296875 4.09375 47.296875 
C 4.09375 43.390625 7 42.890625 8.203125 42.890625 
C 9.203125 42.890625 12.203125 43.484375 12.203125 46.984375 
C 12.203125 50.09375 9.59375 51 8.203125 51 
C 7.59375 51 7 50.890625 6.59375 50.6875 
C 8.5 59.1875 14.296875 63.390625 20.40625 63.390625 
C 29.09375 63.390625 34.796875 56.5 34.796875 47.390625 
C 34.796875 38.703125 29.703125 31.21875 24 24.734375 
L 4.09375 2.296875 
L 4.09375 0 
L 39.296875 0 
z
" id="CMR17-50"/>
     </defs>
     <g transform="translate(318.165824 126.91383)scale(0.14 -0.14)">
      <use transform="scale(0.996264)" xlink:href="#CMR17-48"/>
      <use transform="translate(45.690477 0)scale(0.996264)" xlink:href="#CMMI12-58"/>
      <use transform="translate(72.787654 0)scale(0.996264)" xlink:href="#CMR17-50"/>
     </g>
    </g>
   </g>
   <g id="xtick_11">
    <g id="line2d_14">
     <path d="M 309.310639 67.364827 
L 313.915376 68.243039 
" style="fill:none;stroke:#000000;stroke-linecap:square;stroke-width:0.8;"/>
    </g>
    <g id="text_12">
     <!-- $0.4$ -->
     <defs>
      <path d="M 33.59375 64.796875 
C 33.59375 66.890625 33.5 67 31.703125 67 
L 2 19.59375 
L 2 17 
L 27.796875 17 
L 27.796875 7.1875 
C 27.796875 3.59375 27.59375 2.59375 20.59375 2.59375 
L 18.703125 2.59375 
L 18.703125 0 
C 21.90625 0.1875 27.296875 0.1875 30.703125 0.1875 
C 34.09375 0.1875 39.5 0.1875 42.703125 0 
L 42.703125 2.59375 
L 40.796875 2.59375 
C 33.796875 2.59375 33.59375 3.59375 33.59375 7.1875 
L 33.59375 17 
L 43.796875 17 
L 43.796875 19.59375 
L 33.59375 19.59375 
z
M 28.09375 58.171875 
L 28.09375 19.59375 
L 4 19.59375 
z
" id="CMR17-52"/>
     </defs>
     <g transform="translate(321.370517 75.549141)scale(0.14 -0.14)">
      <use transform="scale(0.996264)" xlink:href="#CMR17-48"/>
      <use transform="translate(45.690477 0)scale(0.996264)" xlink:href="#CMMI12-58"/>
      <use transform="translate(72.787654 0)scale(0.996264)" xlink:href="#CMR17-52"/>
     </g>
    </g>
   </g>
  </g>
  <g id="axes_1">
   <g id="Poly3DCollection_1">
    <path clip-path="url(#p2bd4b82aeb)" d="M 133.04625 137.029292 
L 133.040348 136.549469 
L 154.434956 141.168739 
L 154.436888 141.650213 
z
" style="fill:#5d0618;fill-opacity:0.8;"/>
    <path clip-path="url(#p2bd4b82aeb)" d="M 120.263352 145.063788 
L 120.254995 144.5811 
L 133.040348 136.549469 
L 133.04625 137.029292 
z
" style="fill:#ba0c2f;fill-opacity:0.8;"/>
    <path clip-path="url(#p2bd4b82aeb)" d="M 120.263352 145.063788 
L 133.04625 137.029292 
L 154.436888 141.650213 
L 141.78234 149.769537 
z
" style="fill:#74081d;fill-opacity:0.8;"/>
    <path clip-path="url(#p2bd4b82aeb)" d="M 120.254995 144.5811 
L 141.778001 149.285184 
L 154.434956 141.168739 
L 133.040348 136.549469 
z
" style="fill:#a30a29;fill-opacity:0.8;"/>
    <path clip-path="url(#p2bd4b82aeb)" d="M 141.78234 149.769537 
L 154.436888 141.650213 
L 154.434956 141.168739 
L 141.778001 149.285184 
z
" style="fill:#5d0618;fill-opacity:0.8;"/>
    <path clip-path="url(#p2bd4b82aeb)" d="M 120.263352 145.063788 
L 141.78234 149.769537 
L 141.778001 149.285184 
L 120.254995 144.5811 
z
" style="fill:#ba0c2f;fill-opacity:0.8;"/>
   </g>
   <g id="Poly3DCollection_2">
    <path clip-path="url(#p2bd4b82aeb)" d="M 176.05293 146.319827 
L 176.052924 146.32107 
L 197.897941 151.040155 
L 197.897957 151.038907 
z
" style="fill:#ba0c2f;fill-opacity:0.8;"/>
    <path clip-path="url(#p2bd4b82aeb)" d="M 163.530173 154.52533 
L 163.530174 154.526581 
L 176.052924 146.32107 
L 176.05293 146.319827 
z
" style="fill:#5d0618;fill-opacity:0.8;"/>
    <path clip-path="url(#p2bd4b82aeb)" d="M 163.530174 154.526581 
L 185.510511 159.333224 
L 197.897941 151.040155 
L 176.052924 146.32107 
z
" style="fill:#a30a29;fill-opacity:0.8;"/>
    <path clip-path="url(#p2bd4b82aeb)" d="M 163.530173 154.52533 
L 176.05293 146.319827 
L 197.897957 151.038907 
L 185.510521 159.331969 
z
" style="fill:#74081d;fill-opacity:0.8;"/>
    <path clip-path="url(#p2bd4b82aeb)" d="M 185.510521 159.331969 
L 197.897957 151.038907 
L 197.897941 151.040155 
L 185.510511 159.333224 
z
" style="fill:#ba0c2f;fill-opacity:0.8;"/>
    <path clip-path="url(#p2bd4b82aeb)" d="M 163.530173 154.52533 
L 185.510521 159.331969 
L 185.510511 159.333224 
L 163.530174 154.526581 
z
" style="fill:#5d0618;fill-opacity:0.8;"/>
   </g>
   <g id="Poly3DCollection_3">
    <path clip-path="url(#p2bd4b82aeb)" d="M 107.245333 153.246066 
L 107.23112 152.612961 
L 128.884879 157.403706 
L 128.89379 158.039001 
z
" style="fill:#5d0618;fill-opacity:0.8;"/>
    <path clip-path="url(#p2bd4b82aeb)" d="M 93.985646 161.58024 
L 93.967995 160.943336 
L 107.23112 152.612961 
L 107.245333 153.246066 
z
" style="fill:#ba0c2f;fill-opacity:0.8;"/>
    <path clip-path="url(#p2bd4b82aeb)" d="M 93.985646 161.58024 
L 107.245333 153.246066 
L 128.89379 158.039001 
L 115.764686 166.462807 
z
" style="fill:#74081d;fill-opacity:0.8;"/>
    <path clip-path="url(#p2bd4b82aeb)" d="M 93.967995 160.943336 
L 115.752401 165.823693 
L 128.884879 157.403706 
L 107.23112 152.612961 
z
" style="fill:#a30a29;fill-opacity:0.8;"/>
    <path clip-path="url(#p2bd4b82aeb)" d="M 115.764686 166.462807 
L 128.89379 158.039001 
L 128.884879 157.403706 
L 115.752401 165.823693 
z
" style="fill:#5d0618;fill-opacity:0.8;"/>
    <path clip-path="url(#p2bd4b82aeb)" d="M 93.985646 161.58024 
L 115.764686 166.462807 
L 115.752401 165.823693 
L 93.967995 160.943336 
z
" style="fill:#ba0c2f;fill-opacity:0.8;"/>
   </g>
   <g id="Poly3DCollection_4">
    <path clip-path="url(#p2bd4b82aeb)" d="M 219.975627 155.808244 
L 219.984078 155.416376 
L 242.301608 160.235421 
L 242.289677 160.628646 
z
" style="fill:#5d0618;fill-opacity:0.8;"/>
    <path clip-path="url(#p2bd4b82aeb)" d="M 207.727132 164.190273 
L 207.733769 163.796051 
L 219.984078 155.416376 
L 219.975627 155.808244 
z
" style="fill:#ba0c2f;fill-opacity:0.8;"/>
    <path clip-path="url(#p2bd4b82aeb)" d="M 207.727132 164.190273 
L 219.975627 155.808244 
L 242.289677 160.628646 
L 230.183837 169.101081 
z
" style="fill:#74081d;fill-opacity:0.8;"/>
    <path clip-path="url(#p2bd4b82aeb)" d="M 207.733769 163.796051 
L 230.193998 168.705491 
L 242.301608 160.235421 
L 219.984078 155.416376 
z
" style="fill:#a30a29;fill-opacity:0.8;"/>
    <path clip-path="url(#p2bd4b82aeb)" d="M 230.183837 169.101081 
L 242.289677 160.628646 
L 242.301608 160.235421 
L 230.193998 168.705491 
z
" style="fill:#5d0618;fill-opacity:0.8;"/>
    <path clip-path="url(#p2bd4b82aeb)" d="M 207.727132 164.190273 
L 230.183837 169.101081 
L 230.193998 168.705491 
L 207.733769 163.796051 
z
" style="fill:#ba0c2f;fill-opacity:0.8;"/>
   </g>
   <g id="Poly3DCollection_5">
    <path clip-path="url(#p2bd4b82aeb)" d="M 150.774609 162.88338 
L 150.774554 162.873383 
L 172.891582 167.770005 
L 172.89155 167.780037 
z
" style="fill:#5d0618;fill-opacity:0.8;"/>
    <path clip-path="url(#p2bd4b82aeb)" d="M 137.779683 171.398271 
L 137.779577 171.388214 
L 150.774554 162.873383 
L 150.774609 162.88338 
z
" style="fill:#ba0c2f;fill-opacity:0.8;"/>
    <path clip-path="url(#p2bd4b82aeb)" d="M 137.779683 171.398271 
L 150.774609 162.88338 
L 172.89155 167.780037 
L 160.034492 176.387498 
z
" style="fill:#74081d;fill-opacity:0.8;"/>
    <path clip-path="url(#p2bd4b82aeb)" d="M 137.779577 171.388214 
L 160.034473 176.377406 
L 172.891582 167.770005 
L 150.774554 162.873383 
z
" style="fill:#a30a29;fill-opacity:0.8;"/>
    <path clip-path="url(#p2bd4b82aeb)" d="M 160.034492 176.387498 
L 172.89155 167.780037 
L 172.891582 167.770005 
L 160.034473 176.377406 
z
" style="fill:#5d0618;fill-opacity:0.8;"/>
    <path clip-path="url(#p2bd4b82aeb)" d="M 137.779683 171.398271 
L 160.034492 176.387498 
L 160.034473 176.377406 
L 137.779577 171.388214 
z
" style="fill:#ba0c2f;fill-opacity:0.8;"/>
   </g>
   <g id="Poly3DCollection_6">
    <path clip-path="url(#p2bd4b82aeb)" d="M 80.477499 170.070581 
L 80.492653 170.528244 
L 102.399507 175.504569 
L 102.388231 175.045316 
z
" style="fill:#ba0c2f;fill-opacity:0.8;"/>
    <path clip-path="url(#p2bd4b82aeb)" d="M 66.713842 178.721518 
L 66.731637 179.181938 
L 80.492653 170.528244 
L 80.477499 170.070581 
z
" style="fill:#5d0618;fill-opacity:0.8;"/>
    <path clip-path="url(#p2bd4b82aeb)" d="M 66.731637 179.181938 
L 88.771239 184.25308 
L 102.399507 175.504569 
L 80.492653 170.528244 
z
" style="fill:#a30a29;fill-opacity:0.8;"/>
    <path clip-path="url(#p2bd4b82aeb)" d="M 66.713842 178.721518 
L 80.477499 170.070581 
L 102.388231 175.045316 
L 88.757368 183.791057 
z
" style="fill:#74081d;fill-opacity:0.8;"/>
    <path clip-path="url(#p2bd4b82aeb)" d="M 88.757368 183.791057 
L 102.388231 175.045316 
L 102.399507 175.504569 
L 88.771239 184.25308 
z
" style="fill:#ba0c2f;fill-opacity:0.8;"/>
    <path clip-path="url(#p2bd4b82aeb)" d="M 66.713842 178.721518 
L 88.757368 183.791057 
L 88.771239 184.25308 
L 66.731637 179.181938 
z
" style="fill:#5d0618;fill-opacity:0.8;"/>
   </g>
   <g id="Poly3DCollection_7">
    <path clip-path="url(#p2bd4b82aeb)" d="M 195.248457 172.729821 
L 195.250581 172.552646 
L 217.852975 177.555812 
L 217.849256 177.733603 
z
" style="fill:#5d0618;fill-opacity:0.8;"/>
    <path clip-path="url(#p2bd4b82aeb)" d="M 182.533052 181.431371 
L 182.534302 181.253127 
L 195.250581 172.552646 
L 195.248457 172.729821 
z
" style="fill:#ba0c2f;fill-opacity:0.8;"/>
    <path clip-path="url(#p2bd4b82aeb)" d="M 182.533052 181.431371 
L 195.248457 172.729821 
L 217.849256 177.733603 
L 205.279391 186.530793 
z
" style="fill:#74081d;fill-opacity:0.8;"/>
    <path clip-path="url(#p2bd4b82aeb)" d="M 182.534302 181.253127 
L 205.282256 186.351928 
L 217.852975 177.555812 
L 195.250581 172.552646 
z
" style="fill:#a30a29;fill-opacity:0.8;"/>
    <path clip-path="url(#p2bd4b82aeb)" d="M 205.279391 186.530793 
L 217.849256 177.733603 
L 217.852975 177.555812 
L 205.282256 186.351928 
z
" style="fill:#5d0618;fill-opacity:0.8;"/>
    <path clip-path="url(#p2bd4b82aeb)" d="M 182.533052 181.431371 
L 205.279391 186.530793 
L 205.282256 186.351928 
L 182.534302 181.253127 
z
" style="fill:#ba0c2f;fill-opacity:0.8;"/>
   </g>
   <g id="Poly3DCollection_8">
    <path clip-path="url(#p2bd4b82aeb)" d="M 124.538596 180.074459 
L 124.535831 179.900213 
L 146.931312 184.984054 
L 146.932544 185.158907 
z
" style="fill:#5d0618;fill-opacity:0.8;"/>
    <path clip-path="url(#p2bd4b82aeb)" d="M 111.044284 188.916571 
L 111.040557 188.741273 
L 124.535831 179.900213 
L 124.538596 180.074459 
z
" style="fill:#ba0c2f;fill-opacity:0.8;"/>
    <path clip-path="url(#p2bd4b82aeb)" d="M 111.044284 188.916571 
L 124.538596 180.074459 
L 146.932544 185.158907 
L 133.578642 194.098992 
z
" style="fill:#74081d;fill-opacity:0.8;"/>
    <path clip-path="url(#p2bd4b82aeb)" d="M 111.040557 188.741273 
L 133.576466 193.923081 
L 146.931312 184.984054 
L 124.535831 179.900213 
z
" style="fill:#a30a29;fill-opacity:0.8;"/>
    <path clip-path="url(#p2bd4b82aeb)" d="M 133.578642 194.098992 
L 146.932544 185.158907 
L 146.931312 184.984054 
L 133.576466 193.923081 
z
" style="fill:#5d0618;fill-opacity:0.8;"/>
    <path clip-path="url(#p2bd4b82aeb)" d="M 111.044284 188.916571 
L 133.578642 194.098992 
L 133.576466 193.923081 
L 111.040557 188.741273 
z
" style="fill:#ba0c2f;fill-opacity:0.8;"/>
   </g>
   <g id="Poly3DCollection_9">
    <path clip-path="url(#p2bd4b82aeb)" d="M 240.697961 182.792271 
L 240.709932 182.392911 
L 263.814371 187.505981 
L 263.798671 187.906733 
z
" style="fill:#5d0618;fill-opacity:0.8;"/>
    <path clip-path="url(#p2bd4b82aeb)" d="M 228.277624 191.686685 
L 228.287734 191.284911 
L 240.709932 182.392911 
L 240.697961 182.792271 
z
" style="fill:#ba0c2f;fill-opacity:0.8;"/>
    <path clip-path="url(#p2bd4b82aeb)" d="M 228.277624 191.686685 
L 240.697961 182.792271 
L 263.798671 187.906733 
L 251.531959 196.899993 
z
" style="fill:#74081d;fill-opacity:0.8;"/>
    <path clip-path="url(#p2bd4b82aeb)" d="M 228.287734 191.284911 
L 251.545847 196.496815 
L 263.814371 187.505981 
L 240.709932 182.392911 
z
" style="fill:#a30a29;fill-opacity:0.8;"/>
    <path clip-path="url(#p2bd4b82aeb)" d="M 251.531959 196.899993 
L 263.798671 187.906733 
L 263.814371 187.505981 
L 251.545847 196.496815 
z
" style="fill:#5d0618;fill-opacity:0.8;"/>
    <path clip-path="url(#p2bd4b82aeb)" d="M 228.277624 191.686685 
L 251.531959 196.899993 
L 251.545847 196.496815 
L 228.287734 191.284911 
z
" style="fill:#ba0c2f;fill-opacity:0.8;"/>
   </g>
   <g id="Poly3DCollection_10">
    <path clip-path="url(#p2bd4b82aeb)" d="M 169.574117 190.299576 
L 169.574136 190.289388 
L 192.467557 195.487182 
L 192.467444 195.497406 
z
" style="fill:#5d0618;fill-opacity:0.8;"/>
    <path clip-path="url(#p2bd4b82aeb)" d="M 156.364587 199.339272 
L 156.364553 199.329022 
L 169.574136 190.289388 
L 169.574117 190.299576 
z
" style="fill:#ba0c2f;fill-opacity:0.8;"/>
    <path clip-path="url(#p2bd4b82aeb)" d="M 156.364587 199.339272 
L 169.574117 190.299576 
L 192.467444 195.497406 
L 179.406355 204.638385 
z
" style="fill:#74081d;fill-opacity:0.8;"/>
    <path clip-path="url(#p2bd4b82aeb)" d="M 156.364553 199.329022 
L 179.406415 204.6281 
L 192.467557 195.487182 
L 169.574136 190.289388 
z
" style="fill:#a30a29;fill-opacity:0.8;"/>
    <path clip-path="url(#p2bd4b82aeb)" d="M 179.406355 204.638385 
L 192.467444 195.497406 
L 192.467557 195.487182 
L 179.406415 204.6281 
z
" style="fill:#5d0618;fill-opacity:0.8;"/>
    <path clip-path="url(#p2bd4b82aeb)" d="M 156.364587 199.339272 
L 179.406355 204.638385 
L 179.406415 204.6281 
L 156.364553 199.329022 
z
" style="fill:#ba0c2f;fill-opacity:0.8;"/>
   </g>
   <g id="Poly3DCollection_11">
    <path clip-path="url(#p2bd4b82aeb)" d="M 97.289415 197.929413 
L 97.301916 198.395852 
L 119.973795 203.680734 
L 119.965449 203.212666 
z
" style="fill:#ba0c2f;fill-opacity:0.8;"/>
    <path clip-path="url(#p2bd4b82aeb)" d="M 83.266368 207.117978 
L 83.281614 207.587244 
L 97.301916 198.395852 
L 97.289415 197.929413 
z
" style="fill:#5d0618;fill-opacity:0.8;"/>
    <path clip-path="url(#p2bd4b82aeb)" d="M 83.281614 207.587244 
L 106.096377 212.975942 
L 119.973795 203.680734 
L 97.301916 198.395852 
z
" style="fill:#a30a29;fill-opacity:0.8;"/>
    <path clip-path="url(#p2bd4b82aeb)" d="M 83.266368 207.117978 
L 97.289415 197.929413 
L 119.965449 203.212666 
L 106.085337 212.505035 
z
" style="fill:#74081d;fill-opacity:0.8;"/>
    <path clip-path="url(#p2bd4b82aeb)" d="M 106.085337 212.505035 
L 119.965449 203.212666 
L 119.973795 203.680734 
L 106.096377 212.975942 
z
" style="fill:#ba0c2f;fill-opacity:0.8;"/>
    <path clip-path="url(#p2bd4b82aeb)" d="M 83.266368 207.117978 
L 106.085337 212.505035 
L 106.096377 212.975942 
L 83.281614 207.587244 
z
" style="fill:#5d0618;fill-opacity:0.8;"/>
   </g>
   <g id="Poly3DCollection_12">
    <path clip-path="url(#p2bd4b82aeb)" d="M 215.616749 200.753354 
L 215.616723 200.754645 
L 239.026309 206.069696 
L 239.026348 206.0684 
z
" style="fill:#ba0c2f;fill-opacity:0.8;"/>
    <path clip-path="url(#p2bd4b82aeb)" d="M 202.708278 209.997329 
L 202.708259 209.998629 
L 215.616723 200.754645 
L 215.616749 200.753354 
z
" style="fill:#5d0618;fill-opacity:0.8;"/>
    <path clip-path="url(#p2bd4b82aeb)" d="M 202.708259 209.998629 
L 226.274757 215.418427 
L 239.026309 206.069696 
L 215.616723 200.754645 
z
" style="fill:#a30a29;fill-opacity:0.8;"/>
    <path clip-path="url(#p2bd4b82aeb)" d="M 202.708278 209.997329 
L 215.616749 200.753354 
L 239.026348 206.0684 
L 226.274789 215.417123 
z
" style="fill:#74081d;fill-opacity:0.8;"/>
    <path clip-path="url(#p2bd4b82aeb)" d="M 226.274789 215.417123 
L 239.026348 206.0684 
L 239.026309 206.069696 
L 226.274757 215.418427 
z
" style="fill:#ba0c2f;fill-opacity:0.8;"/>
    <path clip-path="url(#p2bd4b82aeb)" d="M 202.708278 209.997329 
L 226.274789 215.417123 
L 226.274757 215.418427 
L 202.708259 209.998629 
z
" style="fill:#5d0618;fill-opacity:0.8;"/>
   </g>
   <g id="Poly3DCollection_13">
    <path clip-path="url(#p2bd4b82aeb)" d="M 142.897122 208.555479 
L 142.891386 207.897872 
L 166.089131 213.298956 
L 166.088783 213.958867 
z
" style="fill:#5d0618;fill-opacity:0.8;"/>
    <path clip-path="url(#p2bd4b82aeb)" d="M 129.164094 217.953421 
L 129.154663 217.291817 
L 142.891386 207.897872 
L 142.897122 208.555479 
z
" style="fill:#ba0c2f;fill-opacity:0.8;"/>
    <path clip-path="url(#p2bd4b82aeb)" d="M 129.164094 217.953421 
L 142.897122 208.555479 
L 166.088783 213.958867 
L 152.5071 223.464191 
z
" style="fill:#74081d;fill-opacity:0.8;"/>
    <path clip-path="url(#p2bd4b82aeb)" d="M 129.154663 217.291817 
L 152.503834 222.800267 
L 166.089131 213.298956 
L 142.891386 207.897872 
z
" style="fill:#a30a29;fill-opacity:0.8;"/>
    <path clip-path="url(#p2bd4b82aeb)" d="M 152.5071 223.464191 
L 166.088783 213.958867 
L 166.089131 213.298956 
L 152.503834 222.800267 
z
" style="fill:#5d0618;fill-opacity:0.8;"/>
    <path clip-path="url(#p2bd4b82aeb)" d="M 129.164094 217.953421 
L 152.5071 223.464191 
L 152.503834 222.800267 
L 129.154663 217.291817 
z
" style="fill:#ba0c2f;fill-opacity:0.8;"/>
   </g>
   <g id="Poly3DCollection_14">
    <path clip-path="url(#p2bd4b82aeb)" d="M 252.884548 174.065248 
L 264.843924 165.500936 
L 287.642266 170.425957 
L 275.833265 179.083649 
z
" style="fill:#74081d;fill-opacity:0.8;"/>
    <path clip-path="url(#p2bd4b82aeb)" d="M 264.843924 165.500936 
L 269.853873 37.832394 
L 293.828503 42.279736 
L 287.642266 170.425957 
z
" style="fill:#5d0618;fill-opacity:0.8;"/>
    <path clip-path="url(#p2bd4b82aeb)" d="M 252.884548 174.065248 
L 257.339398 45.567601 
L 269.853873 37.832394 
L 264.843924 165.500936 
z
" style="fill:#ba0c2f;fill-opacity:0.8;"/>
    <path clip-path="url(#p2bd4b82aeb)" d="M 275.833265 179.083649 
L 287.642266 170.425957 
L 293.828503 42.279736 
L 281.480557 50.103563 
z
" style="fill:#5d0618;fill-opacity:0.8;"/>
    <path clip-path="url(#p2bd4b82aeb)" d="M 252.884548 174.065248 
L 275.833265 179.083649 
L 281.480557 50.103563 
L 257.339398 45.567601 
z
" style="fill:#ba0c2f;fill-opacity:0.8;"/>
    <path clip-path="url(#p2bd4b82aeb)" d="M 257.339398 45.567601 
L 281.480557 50.103563 
L 293.828503 42.279736 
L 269.853873 37.832394 
z
" style="fill:#a30a29;fill-opacity:0.8;"/>
   </g>
   <g id="Poly3DCollection_15">
    <path clip-path="url(#p2bd4b82aeb)" d="M 189.544878 219.423865 
L 189.549919 218.915956 
L 213.27988 224.441841 
L 213.269955 224.951532 
z
" style="fill:#5d0618;fill-opacity:0.8;"/>
    <path clip-path="url(#p2bd4b82aeb)" d="M 176.11892 229.038421 
L 176.121253 228.527422 
L 189.549919 218.915956 
L 189.544878 219.423865 
z
" style="fill:#ba0c2f;fill-opacity:0.8;"/>
    <path clip-path="url(#p2bd4b82aeb)" d="M 176.11892 229.038421 
L 189.544878 219.423865 
L 213.269955 224.951532 
L 200.004225 234.677216 
z
" style="fill:#74081d;fill-opacity:0.8;"/>
    <path clip-path="url(#p2bd4b82aeb)" d="M 176.121253 228.527422 
L 200.011507 234.164422 
L 213.27988 224.441841 
L 189.549919 218.915956 
z
" style="fill:#a30a29;fill-opacity:0.8;"/>
    <path clip-path="url(#p2bd4b82aeb)" d="M 200.004225 234.677216 
L 213.269955 224.951532 
L 213.27988 224.441841 
L 200.011507 234.164422 
z
" style="fill:#5d0618;fill-opacity:0.8;"/>
    <path clip-path="url(#p2bd4b82aeb)" d="M 176.11892 229.038421 
L 200.004225 234.677216 
L 200.011507 234.164422 
L 176.121253 228.527422 
z
" style="fill:#ba0c2f;fill-opacity:0.8;"/>
   </g>
   <g id="Poly3DCollection_16">
    <path clip-path="url(#p2bd4b82aeb)" d="M 25.554109 197.867783 
L 203.743624 240.130556 
L 299.7425 169.159007 
L 130.047125 132.655528 
z
" style="fill-opacity:0.15;"/>
   </g>
   <g id="Poly3DCollection_17">
    <path clip-path="url(#p2bd4b82aeb)" d="M 38.390442 196.52376 
L 52.687356 187.537652 
L 74.86477 192.704732 
L 60.702824 201.791223 
z
" style="fill:#74081d;fill-opacity:0.8;"/>
    <path clip-path="url(#p2bd4b82aeb)" d="M 52.687356 187.537652 
L 47.000616 59.263445 
L 70.276685 63.946901 
L 74.86477 192.704732 
z
" style="fill:#5d0618;fill-opacity:0.8;"/>
    <path clip-path="url(#p2bd4b82aeb)" d="M 38.390442 196.52376 
L 31.913328 67.410174 
L 47.000616 59.263445 
L 52.687356 187.537652 
z
" style="fill:#ba0c2f;fill-opacity:0.8;"/>
    <path clip-path="url(#p2bd4b82aeb)" d="M 60.702824 201.791223 
L 74.86477 192.704732 
L 70.276685 63.946901 
L 55.337872 72.189318 
z
" style="fill:#5d0618;fill-opacity:0.8;"/>
    <path clip-path="url(#p2bd4b82aeb)" d="M 38.390442 196.52376 
L 60.702824 201.791223 
L 55.337872 72.189318 
L 31.913328 67.410174 
z
" style="fill:#ba0c2f;fill-opacity:0.8;"/>
    <path clip-path="url(#p2bd4b82aeb)" d="M 31.913328 67.410174 
L 55.337872 72.189318 
L 70.276685 63.946901 
L 47.000616 59.263445 
z
" style="fill:#a30a29;fill-opacity:0.8;"/>
   </g>
  </g>
  <g id="patch_6">
   <path d="M 425.945455 262.8 
L 806.4 262.8 
L 806.4 -14.4 
L 425.945455 -14.4 
z
" style="fill:#ffffff;"/>
  </g>
  <g id="pane3d_4">
   <g id="patch_7">
    <path d="M 476.380584 201.548569 
L 585.268665 133.58541 
L 583.455794 3.718968 
L 468.496488 64.782468 
" style="fill:#f2f2f2;opacity:0.5;stroke:#f2f2f2;stroke-linejoin:miter;"/>
   </g>
  </g>
  <g id="pane3d_5">
   <g id="patch_8">
    <path d="M 585.268665 133.58541 
L 761.65712 171.581202 
L 769.037001 37.79869 
L 583.455794 3.718968 
" style="fill:#e6e6e6;opacity:0.5;stroke:#e6e6e6;stroke-linejoin:miter;"/>
   </g>
  </g>
  <g id="pane3d_6">
   <g id="patch_9">
    <path d="M 476.380584 201.548569 
L 661.965072 245.80086 
L 761.65712 171.581202 
L 585.268665 133.58541 
" style="fill:#ececec;opacity:0.5;stroke:#ececec;stroke-linejoin:miter;"/>
   </g>
  </g>
  <g id="axis3d_4">
   <g id="line2d_15">
    <path d="M 476.380584 201.548569 
L 661.965072 245.80086 
" style="fill:none;stroke:#000000;stroke-linecap:square;stroke-width:0.8;"/>
   </g>
   <g id="Line3DCollection_4">
    <path d="M 498.841271 206.90428 
L 606.679397 138.19749 
L 605.9393 7.847789 
" style="fill:none;stroke:#b0b0b0;stroke-width:0.8;"/>
    <path d="M 544.057792 217.686079 
L 649.729469 147.470895 
L 651.182353 16.156123 
" style="fill:none;stroke:#b0b0b0;stroke-width:0.8;"/>
    <path d="M 590.310744 228.715013 
L 693.693551 156.941187 
L 697.435637 24.649974 
" style="fill:none;stroke:#b0b0b0;stroke-width:0.8;"/>
    <path d="M 637.636176 239.999678 
L 738.601063 166.614702 
L 744.733372 33.335625 
" style="fill:none;stroke:#b0b0b0;stroke-width:0.8;"/>
   </g>
   <g id="xtick_12">
    <g id="line2d_16">
     <path d="M 499.770538 206.312217 
L 496.979262 208.09062 
" style="fill:none;stroke:#000000;stroke-linecap:square;stroke-width:0.8;"/>
    </g>
    <g id="text_13">
     <!-- 00 -->
     <g transform="translate(479.875817 237.14703)rotate(-45)scale(0.14 -0.14)">
      <use transform="scale(0.996264)" xlink:href="#CMR17-48"/>
      <use transform="translate(45.690477 0)scale(0.996264)" xlink:href="#CMR17-48"/>
     </g>
    </g>
   </g>
   <g id="xtick_13">
    <g id="line2d_17">
     <path d="M 544.969128 217.080527 
L 542.231671 218.899473 
" style="fill:none;stroke:#000000;stroke-linecap:square;stroke-width:0.8;"/>
    </g>
    <g id="text_14">
     <!-- 01 -->
     <g transform="translate(525.088242 248.103782)rotate(-45)scale(0.14 -0.14)">
      <use transform="scale(0.996264)" xlink:href="#CMR17-48"/>
      <use transform="translate(45.690477 0)scale(0.996264)" xlink:href="#CMR17-49"/>
     </g>
    </g>
   </g>
   <g id="xtick_14">
    <g id="line2d_18">
     <path d="M 591.20308 228.095506 
L 588.522658 229.956397 
" style="fill:none;stroke:#000000;stroke-linecap:square;stroke-width:0.8;"/>
    </g>
    <g id="text_15">
     <!-- 10 -->
     <g transform="translate(571.338855 259.312128)rotate(-45)scale(0.14 -0.14)">
      <use transform="scale(0.996264)" xlink:href="#CMR17-49"/>
      <use transform="translate(45.690477 0)scale(0.996264)" xlink:href="#CMR17-48"/>
     </g>
    </g>
   </g>
   <g id="xtick_15">
    <g id="line2d_19">
     <path d="M 638.50838 239.365727 
L 635.888391 241.270032 
" style="fill:none;stroke:#000000;stroke-linecap:square;stroke-width:0.8;"/>
    </g>
    <g id="text_16">
     <!-- 11 -->
     <g transform="translate(618.66383 270.780834)rotate(-45)scale(0.14 -0.14)">
      <use transform="scale(0.996264)" xlink:href="#CMR17-49"/>
      <use transform="translate(45.690477 0)scale(0.996264)" xlink:href="#CMR17-49"/>
     </g>
    </g>
   </g>
  </g>
  <g id="axis3d_5">
   <g id="line2d_20">
    <path d="M 761.65712 171.581202 
L 661.965072 245.80086 
" style="fill:none;stroke:#000000;stroke-linecap:square;stroke-width:0.8;"/>
   </g>
   <g id="Line3DCollection_5">
    <path d="M 484.000685 56.547028 
L 491.016499 192.413474 
L 675.403872 235.795817 
" style="fill:none;stroke:#b0b0b0;stroke-width:0.8;"/>
    <path d="M 513.777478 40.730342 
L 519.168861 174.842005 
L 701.219492 216.576366 
" style="fill:none;stroke:#b0b0b0;stroke-width:0.8;"/>
    <path d="M 542.401344 25.526062 
L 546.284836 157.917404 
L 726.04244 198.095948 
" style="fill:none;stroke:#b0b0b0;stroke-width:0.8;"/>
    <path d="M 569.937971 10.899296 
L 572.420618 141.604597 
L 749.928893 180.312741 
" style="fill:none;stroke:#b0b0b0;stroke-width:0.8;"/>
   </g>
   <g id="xtick_16">
    <g id="line2d_21">
     <path d="M 673.861052 235.432825 
L 678.492943 236.522608 
" style="fill:none;stroke:#000000;stroke-linecap:square;stroke-width:0.8;"/>
    </g>
    <g id="text_17">
     <!-- 00 -->
     <g transform="translate(689.195824 248.348363)rotate(-337.5)scale(0.14 -0.14)">
      <use transform="scale(0.996264)" xlink:href="#CMR17-48"/>
      <use transform="translate(45.690477 0)scale(0.996264)" xlink:href="#CMR17-48"/>
     </g>
    </g>
   </g>
   <g id="xtick_17">
    <g id="line2d_22">
     <path d="M 699.697534 216.227463 
L 704.266725 217.274932 
" style="fill:none;stroke:#000000;stroke-linecap:square;stroke-width:0.8;"/>
    </g>
    <g id="text_18">
     <!-- 01 -->
     <g transform="translate(714.749375 228.903937)rotate(-337.5)scale(0.14 -0.14)">
      <use transform="scale(0.996264)" xlink:href="#CMR17-48"/>
      <use transform="translate(45.690477 0)scale(0.996264)" xlink:href="#CMR17-49"/>
     </g>
    </g>
   </g>
   <g id="xtick_18">
    <g id="line2d_23">
     <path d="M 724.540896 197.76033 
L 729.048738 198.767901 
" style="fill:none;stroke:#000000;stroke-linecap:square;stroke-width:0.8;"/>
    </g>
    <g id="text_19">
     <!-- 10 -->
     <g transform="translate(739.320787 210.206849)rotate(-337.5)scale(0.14 -0.14)">
      <use transform="scale(0.996264)" xlink:href="#CMR17-49"/>
      <use transform="translate(45.690477 0)scale(0.996264)" xlink:href="#CMR17-48"/>
     </g>
    </g>
   </g>
   <g id="xtick_19">
    <g id="line2d_24">
     <path d="M 748.44732 179.989663 
L 752.895146 180.959573 
" style="fill:none;stroke:#000000;stroke-linecap:square;stroke-width:0.8;"/>
    </g>
    <g id="text_20">
     <!-- 11 -->
     <g transform="translate(762.965613 192.214827)rotate(-337.5)scale(0.14 -0.14)">
      <use transform="scale(0.996264)" xlink:href="#CMR17-49"/>
      <use transform="translate(45.690477 0)scale(0.996264)" xlink:href="#CMR17-49"/>
     </g>
    </g>
   </g>
  </g>
  <g id="axis3d_6">
   <g id="line2d_25">
    <path d="M 761.65712 171.581202 
L 769.037001 37.79869 
" style="fill:none;stroke:#000000;stroke-linecap:square;stroke-width:0.8;"/>
   </g>
   <g id="text_21">
    <!-- Im[$\rho$] -->
    <defs>
     <path d="M 19.703125 60.90625 
C 19.703125 65.390625 20.90625 65.390625 28.09375 65.390625 
L 28.09375 68 
C 24.90625 67.796875 19.796875 67.796875 16.40625 67.796875 
C 13 67.796875 7.90625 67.796875 4.703125 68 
L 4.703125 65.390625 
C 11.90625 65.390625 13.09375 65.390625 13.09375 60.90625 
L 13.09375 7.078125 
C 13.09375 2.59375 11.90625 2.59375 4.703125 2.59375 
L 4.703125 0 
C 7.90625 0.1875 13 0.1875 16.40625 0.1875 
C 19.796875 0.1875 24.90625 0.1875 28.09375 0 
L 28.09375 2.59375 
C 20.90625 2.59375 19.703125 2.59375 19.703125 7.078125 
z
" id="CMR17-73"/>
     <path d="M 67.59375 30.53125 
C 67.59375 35.5625 66.703125 44 54.796875 44 
C 48 44 43.296875 39.375 41.5 33.953125 
L 41.40625 33.953125 
C 40.203125 42.1875 34.296875 44 28.703125 44 
C 20.796875 44 16.703125 37.875 15.203125 33.84375 
L 15.09375 33.84375 
L 15.09375 44 
L 3.296875 42.890625 
L 3.296875 40.28125 
C 9.203125 40.28125 10.09375 39.6875 10.09375 34.859375 
L 10.09375 6.921875 
C 10.09375 3.09375 9.703125 2.59375 3.296875 2.59375 
L 3.296875 0 
C 5.703125 0.1875 10.09375 0.1875 12.703125 0.1875 
C 15.296875 0.1875 19.796875 0.1875 22.203125 0 
L 22.203125 2.59375 
C 15.796875 2.59375 15.40625 3 15.40625 6.921875 
L 15.40625 26.21875 
C 15.40625 35.453125 21 42.390625 28 42.390625 
C 35.40625 42.390625 36.203125 35.765625 36.203125 30.9375 
L 36.203125 6.921875 
C 36.203125 3.09375 35.796875 2.59375 29.40625 2.59375 
L 29.40625 0 
C 31.796875 0.1875 36.203125 0.1875 38.796875 0.1875 
C 41.40625 0.1875 45.90625 0.1875 48.296875 0 
L 48.296875 2.59375 
C 41.90625 2.59375 41.5 3 41.5 6.921875 
L 41.5 26.21875 
C 41.5 35.453125 47.09375 42.390625 54.09375 42.390625 
C 61.5 42.390625 62.296875 35.765625 62.296875 30.9375 
L 62.296875 6.921875 
C 62.296875 3.09375 61.90625 2.59375 55.5 2.59375 
L 55.5 0 
C 57.90625 0.1875 62.296875 0.1875 64.90625 0.1875 
C 67.5 0.1875 72 0.1875 74.40625 0 
L 74.40625 2.59375 
C 68 2.59375 67.59375 3 67.59375 6.921875 
z
" id="CMR17-109"/>
    </defs>
    <g transform="translate(809.026865 118.025317)rotate(-86.842577)scale(0.14 -0.14)">
     <use transform="scale(0.996264)" xlink:href="#CMR17-73"/>
     <use transform="translate(32.638409 0)scale(0.996264)" xlink:href="#CMR17-109"/>
     <use transform="translate(109.557999 0)scale(0.996264)" xlink:href="#CMR17-91"/>
     <use transform="translate(134.429058 0)scale(0.996264)" xlink:href="#CMMI12-26"/>
     <use transform="translate(184.74343 0)scale(0.996264)" xlink:href="#CMR17-93"/>
    </g>
   </g>
   <g id="Line3DCollection_6">
    <path d="M 761.858003 167.939581 
L 585.219213 130.042888 
L 476.166334 197.831963 
" style="fill:none;stroke:#b0b0b0;stroke-width:0.8;"/>
    <path d="M 764.574296 118.698616 
L 584.551115 82.183162 
L 473.267341 147.542874 
" style="fill:none;stroke:#b0b0b0;stroke-width:0.8;"/>
    <path d="M 767.397654 67.51678 
L 583.857818 32.518301 
L 470.250187 95.204025 
" style="fill:none;stroke:#b0b0b0;stroke-width:0.8;"/>
   </g>
   <g id="xtick_20">
    <g id="line2d_26">
     <path d="M 760.384179 167.623382 
L 764.80872 168.572638 
" style="fill:none;stroke:#000000;stroke-linecap:square;stroke-width:0.8;"/>
    </g>
    <g id="text_22">
     <!-- $0.0$ -->
     <g transform="translate(771.668332 175.686046)scale(0.14 -0.14)">
      <use transform="scale(0.996264)" xlink:href="#CMR17-48"/>
      <use transform="translate(45.690477 0)scale(0.996264)" xlink:href="#CMMI12-58"/>
      <use transform="translate(72.787654 0)scale(0.996264)" xlink:href="#CMR17-48"/>
     </g>
    </g>
   </g>
   <g id="xtick_21">
    <g id="line2d_27">
     <path d="M 763.071038 118.393699 
L 767.584002 119.309097 
" style="fill:none;stroke:#000000;stroke-linecap:square;stroke-width:0.8;"/>
    </g>
    <g id="text_23">
     <!-- $0.2$ -->
     <g transform="translate(774.736202 126.514344)scale(0.14 -0.14)">
      <use transform="scale(0.996264)" xlink:href="#CMR17-48"/>
      <use transform="translate(45.690477 0)scale(0.996264)" xlink:href="#CMMI12-58"/>
      <use transform="translate(72.787654 0)scale(0.996264)" xlink:href="#CMR17-50"/>
     </g>
    </g>
   </g>
   <g id="xtick_22">
    <g id="line2d_28">
     <path d="M 765.863763 67.224289 
L 770.468753 68.102396 
" style="fill:none;stroke:#000000;stroke-linecap:square;stroke-width:0.8;"/>
    </g>
    <g id="text_24">
     <!-- $0.4$ -->
     <g transform="translate(777.924728 75.408783)scale(0.14 -0.14)">
      <use transform="scale(0.996264)" xlink:href="#CMR17-48"/>
      <use transform="translate(45.690477 0)scale(0.996264)" xlink:href="#CMMI12-58"/>
      <use transform="translate(72.787654 0)scale(0.996264)" xlink:href="#CMR17-52"/>
     </g>
    </g>
   </g>
  </g>
  <g id="axes_2">
   <g id="Poly3DCollection_18">
    <path clip-path="url(#pae48835493)" d="M 589.584011 136.403841 
L 589.585102 136.492529 
L 610.980181 141.111603 
L 610.979824 141.022609 
z
" style="fill:#0cba97;fill-opacity:0.8;"/>
    <path clip-path="url(#pae48835493)" d="M 576.797913 144.434602 
L 576.799458 144.523821 
L 589.585102 136.492529 
L 589.584011 136.403841 
z
" style="fill:#065d4c;fill-opacity:0.8;"/>
    <path clip-path="url(#pae48835493)" d="M 576.799458 144.523821 
L 598.322941 149.227707 
L 610.980181 141.111603 
L 589.585102 136.492529 
z
" style="fill:#0aa384;fill-opacity:0.8;"/>
    <path clip-path="url(#pae48835493)" d="M 576.797913 144.434602 
L 589.584011 136.403841 
L 610.979824 141.022609 
L 598.322139 149.138181 
z
" style="fill:#08745e;fill-opacity:0.8;"/>
    <path clip-path="url(#pae48835493)" d="M 598.322139 149.138181 
L 610.979824 141.022609 
L 610.980181 141.111603 
L 598.322941 149.227707 
z
" style="fill:#0cba97;fill-opacity:0.8;"/>
    <path clip-path="url(#pae48835493)" d="M 576.797913 144.434602 
L 598.322139 149.138181 
L 598.322941 149.227707 
L 576.799458 144.523821 
z
" style="fill:#065d4c;fill-opacity:0.8;"/>
   </g>
   <g id="Poly3DCollection_19">
    <path clip-path="url(#pae48835493)" d="M 632.60115 145.69006 
L 632.605022 144.808347 
L 654.463003 149.522208 
L 654.451574 150.406967 
z
" style="fill:#065d4c;fill-opacity:0.8;"/>
    <path clip-path="url(#pae48835493)" d="M 620.075321 153.891792 
L 620.074892 153.004794 
L 632.605022 144.808347 
L 632.60115 145.69006 
z
" style="fill:#0cba97;fill-opacity:0.8;"/>
    <path clip-path="url(#pae48835493)" d="M 620.075321 153.891792 
L 632.60115 145.69006 
L 654.451574 150.406967 
L 642.061134 158.696239 
z
" style="fill:#08745e;fill-opacity:0.8;"/>
    <path clip-path="url(#pae48835493)" d="M 620.074892 153.004794 
L 642.068355 157.806168 
L 654.463003 149.522208 
L 632.605022 144.808347 
z
" style="fill:#0aa384;fill-opacity:0.8;"/>
    <path clip-path="url(#pae48835493)" d="M 642.061134 158.696239 
L 654.451574 150.406967 
L 654.463003 149.522208 
L 642.068355 157.806168 
z
" style="fill:#065d4c;fill-opacity:0.8;"/>
    <path clip-path="url(#pae48835493)" d="M 620.075321 153.891792 
L 642.061134 158.696239 
L 642.068355 157.806168 
L 620.074892 153.004794 
z
" style="fill:#0cba97;fill-opacity:0.8;"/>
   </g>
   <g id="Poly3DCollection_20">
    <path clip-path="url(#pae48835493)" d="M 563.776578 152.613114 
L 563.788645 153.150624 
L 585.437901 157.943229 
L 585.430336 157.403859 
z
" style="fill:#0cba97;fill-opacity:0.8;"/>
    <path clip-path="url(#pae48835493)" d="M 550.513454 160.943489 
L 550.528439 161.484226 
L 563.788645 153.150624 
L 563.776578 152.613114 
z
" style="fill:#065d4c;fill-opacity:0.8;"/>
    <path clip-path="url(#pae48835493)" d="M 550.528439 161.484226 
L 572.308289 166.366459 
L 585.437901 157.943229 
L 563.788645 153.150624 
z
" style="fill:#0aa384;fill-opacity:0.8;"/>
    <path clip-path="url(#pae48835493)" d="M 550.513454 160.943489 
L 563.776578 152.613114 
L 585.430336 157.403859 
L 572.297858 165.823848 
z
" style="fill:#08745e;fill-opacity:0.8;"/>
    <path clip-path="url(#pae48835493)" d="M 572.297858 165.823848 
L 585.430336 157.403859 
L 585.437901 157.943229 
L 572.308289 166.366459 
z
" style="fill:#0cba97;fill-opacity:0.8;"/>
    <path clip-path="url(#pae48835493)" d="M 550.513454 160.943489 
L 572.297858 165.823848 
L 572.308289 166.366459 
L 550.528439 161.484226 
z
" style="fill:#065d4c;fill-opacity:0.8;"/>
   </g>
   <g id="Poly3DCollection_21">
    <path clip-path="url(#pae48835493)" d="M 676.534757 155.17412 
L 676.511311 156.261297 
L 698.821339 161.083265 
L 698.854438 159.992327 
z
" style="fill:#0cba97;fill-opacity:0.8;"/>
    <path clip-path="url(#pae48835493)" d="M 664.283327 163.55234 
L 664.264913 164.646045 
L 676.511311 156.261297 
L 676.534757 155.17412 
z
" style="fill:#065d4c;fill-opacity:0.8;"/>
    <path clip-path="url(#pae48835493)" d="M 664.264913 164.646045 
L 686.717543 169.558433 
L 698.821339 161.083265 
L 676.511311 156.261297 
z
" style="fill:#0aa384;fill-opacity:0.8;"/>
    <path clip-path="url(#pae48835493)" d="M 664.283327 163.55234 
L 676.534757 155.17412 
L 698.854438 159.992327 
L 686.745735 168.460935 
z
" style="fill:#08745e;fill-opacity:0.8;"/>
    <path clip-path="url(#pae48835493)" d="M 686.745735 168.460935 
L 698.854438 159.992327 
L 698.821339 161.083265 
L 686.717543 169.558433 
z
" style="fill:#0cba97;fill-opacity:0.8;"/>
    <path clip-path="url(#pae48835493)" d="M 664.283327 163.55234 
L 686.745735 168.460935 
L 686.717543 169.558433 
L 664.264913 164.646045 
z
" style="fill:#065d4c;fill-opacity:0.8;"/>
   </g>
   <g id="Poly3DCollection_22">
    <path clip-path="url(#pae48835493)" d="M 607.316569 162.246038 
L 607.317422 162.401623 
L 629.438546 167.296609 
L 629.439044 167.140484 
z
" style="fill:#0cba97;fill-opacity:0.8;"/>
    <path clip-path="url(#pae48835493)" d="M 594.318336 170.757094 
L 594.319997 170.913615 
L 607.317422 162.401623 
L 607.316569 162.246038 
z
" style="fill:#065d4c;fill-opacity:0.8;"/>
    <path clip-path="url(#pae48835493)" d="M 594.319997 170.913615 
L 616.57904 175.901157 
L 629.438546 167.296609 
L 607.317422 162.401623 
z
" style="fill:#0aa384;fill-opacity:0.8;"/>
    <path clip-path="url(#pae48835493)" d="M 594.318336 170.757094 
L 607.316569 162.246038 
L 629.439044 167.140484 
L 616.578747 175.744092 
z
" style="fill:#08745e;fill-opacity:0.8;"/>
    <path clip-path="url(#pae48835493)" d="M 616.578747 175.744092 
L 629.439044 167.140484 
L 629.438546 167.296609 
L 616.57904 175.901157 
z
" style="fill:#0cba97;fill-opacity:0.8;"/>
    <path clip-path="url(#pae48835493)" d="M 594.318336 170.757094 
L 616.578747 175.744092 
L 616.57904 175.901157 
L 594.319997 170.913615 
z
" style="fill:#065d4c;fill-opacity:0.8;"/>
   </g>
   <g id="Poly3DCollection_23">
    <path clip-path="url(#pae48835493)" d="M 721.414435 164.862411 
L 721.414435 164.862411 
L 744.218652 169.785215 
L 744.218652 169.785215 
z
" style="fill:#065d4c;fill-opacity:0.8;"/>
    <path clip-path="url(#pae48835493)" d="M 709.452273 173.422878 
L 709.452273 173.422878 
L 721.414435 164.862411 
L 721.414435 164.862411 
z
" style="fill:#065d4c;fill-opacity:0.8;"/>
    <path clip-path="url(#pae48835493)" d="M 709.452273 173.422878 
L 721.414435 164.862411 
L 744.218652 169.785215 
L 732.406943 178.439044 
z
" style="fill:#08745e;fill-opacity:0.8;"/>
    <path clip-path="url(#pae48835493)" d="M 709.452273 173.422878 
L 732.406943 178.439044 
L 744.218652 169.785215 
L 721.414435 164.862411 
z
" style="fill:#0aa384;fill-opacity:0.8;"/>
    <path clip-path="url(#pae48835493)" d="M 732.406943 178.439044 
L 744.218652 169.785215 
L 744.218652 169.785215 
L 732.406943 178.439044 
z
" style="fill:#065d4c;fill-opacity:0.8;"/>
    <path clip-path="url(#pae48835493)" d="M 709.452273 173.422878 
L 732.406943 178.439044 
L 732.406943 178.439044 
L 709.452273 173.422878 
z
" style="fill:#065d4c;fill-opacity:0.8;"/>
   </g>
   <g id="Poly3DCollection_24">
    <path clip-path="url(#pae48835493)" d="M 537.001742 169.429999 
L 536.982568 168.850929 
L 558.903636 173.821424 
L 558.917903 174.402508 
z
" style="fill:#065d4c;fill-opacity:0.8;"/>
    <path clip-path="url(#pae48835493)" d="M 523.234389 178.077073 
L 523.211873 177.494509 
L 536.982568 168.850929 
L 537.001742 169.429999 
z
" style="fill:#0cba97;fill-opacity:0.8;"/>
    <path clip-path="url(#pae48835493)" d="M 523.234389 178.077073 
L 537.001742 169.429999 
L 558.917903 174.402508 
L 545.283409 183.144369 
z
" style="fill:#08745e;fill-opacity:0.8;"/>
    <path clip-path="url(#pae48835493)" d="M 523.211873 177.494509 
L 545.265859 182.559774 
L 558.903636 173.821424 
L 536.982568 168.850929 
z
" style="fill:#0aa384;fill-opacity:0.8;"/>
    <path clip-path="url(#pae48835493)" d="M 545.283409 183.144369 
L 558.917903 174.402508 
L 558.903636 173.821424 
L 545.265859 182.559774 
z
" style="fill:#065d4c;fill-opacity:0.8;"/>
    <path clip-path="url(#pae48835493)" d="M 523.234389 178.077073 
L 545.283409 183.144369 
L 545.265859 182.559774 
L 523.211873 177.494509 
z
" style="fill:#0cba97;fill-opacity:0.8;"/>
   </g>
   <g id="Poly3DCollection_25">
    <path clip-path="url(#pae48835493)" d="M 651.801604 172.088048 
L 651.801604 172.088048 
L 674.40818 177.089598 
L 674.40818 177.089598 
z
" style="fill:#065d4c;fill-opacity:0.8;"/>
    <path clip-path="url(#pae48835493)" d="M 639.083033 180.785725 
L 639.083033 180.785725 
L 651.801604 172.088048 
L 651.801604 172.088048 
z
" style="fill:#065d4c;fill-opacity:0.8;"/>
    <path clip-path="url(#pae48835493)" d="M 639.083033 180.785725 
L 661.835223 185.882897 
L 674.40818 177.089598 
L 651.801604 172.088048 
z
" style="fill:#0aa384;fill-opacity:0.8;"/>
    <path clip-path="url(#pae48835493)" d="M 639.083033 180.785725 
L 651.801604 172.088048 
L 674.40818 177.089598 
L 661.835223 185.882897 
z
" style="fill:#08745e;fill-opacity:0.8;"/>
    <path clip-path="url(#pae48835493)" d="M 661.835223 185.882897 
L 674.40818 177.089598 
L 674.40818 177.089598 
L 661.835223 185.882897 
z
" style="fill:#065d4c;fill-opacity:0.8;"/>
    <path clip-path="url(#pae48835493)" d="M 639.083033 180.785725 
L 661.835223 185.882897 
L 661.835223 185.882897 
L 639.083033 180.785725 
z
" style="fill:#065d4c;fill-opacity:0.8;"/>
   </g>
   <g id="Poly3DCollection_26">
    <path clip-path="url(#pae48835493)" d="M 581.073816 179.429414 
L 581.073816 179.429414 
L 603.473436 184.511615 
L 603.473436 184.511615 
z
" style="fill:#065d4c;fill-opacity:0.8;"/>
    <path clip-path="url(#pae48835493)" d="M 567.575941 188.267628 
L 567.575941 188.267628 
L 581.073816 179.429414 
L 581.073816 179.429414 
z
" style="fill:#065d4c;fill-opacity:0.8;"/>
    <path clip-path="url(#pae48835493)" d="M 567.575941 188.267628 
L 581.073816 179.429414 
L 603.473436 184.511615 
L 590.116042 193.447783 
z
" style="fill:#08745e;fill-opacity:0.8;"/>
    <path clip-path="url(#pae48835493)" d="M 567.575941 188.267628 
L 590.116042 193.447783 
L 603.473436 184.511615 
L 581.073816 179.429414 
z
" style="fill:#0aa384;fill-opacity:0.8;"/>
    <path clip-path="url(#pae48835493)" d="M 590.116042 193.447783 
L 603.473436 184.511615 
L 603.473436 184.511615 
L 590.116042 193.447783 
z
" style="fill:#065d4c;fill-opacity:0.8;"/>
    <path clip-path="url(#pae48835493)" d="M 567.575941 188.267628 
L 590.116042 193.447783 
L 590.116042 193.447783 
L 567.575941 188.267628 
z
" style="fill:#065d4c;fill-opacity:0.8;"/>
   </g>
   <g id="Poly3DCollection_27">
    <path clip-path="url(#pae48835493)" d="M 697.262788 182.146023 
L 697.29603 181.037098 
L 720.413127 186.145437 
L 720.369532 187.258232 
z
" style="fill:#065d4c;fill-opacity:0.8;"/>
    <path clip-path="url(#pae48835493)" d="M 684.839438 191.036529 
L 684.867509 189.92089 
L 697.29603 181.037098 
L 697.262788 182.146023 
z
" style="fill:#0cba97;fill-opacity:0.8;"/>
    <path clip-path="url(#pae48835493)" d="M 684.839438 191.036529 
L 697.262788 182.146023 
L 720.369532 187.258232 
L 708.099887 196.247566 
z
" style="fill:#08745e;fill-opacity:0.8;"/>
    <path clip-path="url(#pae48835493)" d="M 684.867509 189.92089 
L 708.138451 195.128026 
L 720.413127 186.145437 
L 697.29603 181.037098 
z
" style="fill:#0aa384;fill-opacity:0.8;"/>
    <path clip-path="url(#pae48835493)" d="M 708.099887 196.247566 
L 720.369532 187.258232 
L 720.413127 186.145437 
L 708.138451 195.128026 
z
" style="fill:#065d4c;fill-opacity:0.8;"/>
    <path clip-path="url(#pae48835493)" d="M 684.839438 191.036529 
L 708.099887 196.247566 
L 708.138451 195.128026 
L 684.867509 189.92089 
z
" style="fill:#0cba97;fill-opacity:0.8;"/>
   </g>
   <g id="Poly3DCollection_28">
    <path clip-path="url(#pae48835493)" d="M 509.204068 186.889314 
L 509.204068 186.889314 
L 531.387041 192.054131 
L 531.387041 192.054131 
z
" style="fill:#065d4c;fill-opacity:0.8;"/>
    <path clip-path="url(#pae48835493)" d="M 494.903175 195.871497 
L 494.903175 195.871497 
L 509.204068 186.889314 
L 509.204068 186.889314 
z
" style="fill:#065d4c;fill-opacity:0.8;"/>
    <path clip-path="url(#pae48835493)" d="M 494.903175 195.871497 
L 509.204068 186.889314 
L 531.387041 192.054131 
L 517.221184 201.136679 
z
" style="fill:#08745e;fill-opacity:0.8;"/>
    <path clip-path="url(#pae48835493)" d="M 494.903175 195.871497 
L 517.221184 201.136679 
L 531.387041 192.054131 
L 509.204068 186.889314 
z
" style="fill:#0aa384;fill-opacity:0.8;"/>
    <path clip-path="url(#pae48835493)" d="M 517.221184 201.136679 
L 531.387041 192.054131 
L 531.387041 192.054131 
L 517.221184 201.136679 
z
" style="fill:#065d4c;fill-opacity:0.8;"/>
    <path clip-path="url(#pae48835493)" d="M 494.903175 195.871497 
L 517.221184 201.136679 
L 517.221184 201.136679 
L 494.903175 195.871497 
z
" style="fill:#065d4c;fill-opacity:0.8;"/>
   </g>
   <g id="Poly3DCollection_29">
    <path clip-path="url(#pae48835493)" d="M 626.120807 189.650027 
L 626.121109 189.491442 
L 649.021812 194.68645 
L 649.020063 194.845589 
z
" style="fill:#065d4c;fill-opacity:0.8;"/>
    <path clip-path="url(#pae48835493)" d="M 612.907859 198.685788 
L 612.907326 198.526242 
L 626.121109 189.491442 
L 626.120807 189.650027 
z
" style="fill:#0cba97;fill-opacity:0.8;"/>
    <path clip-path="url(#pae48835493)" d="M 612.907859 198.685788 
L 626.120807 189.650027 
L 649.020063 194.845589 
L 635.955632 203.982616 
z
" style="fill:#08745e;fill-opacity:0.8;"/>
    <path clip-path="url(#pae48835493)" d="M 612.907326 198.526242 
L 635.956565 203.822512 
L 649.021812 194.68645 
L 626.121109 189.491442 
z
" style="fill:#0aa384;fill-opacity:0.8;"/>
    <path clip-path="url(#pae48835493)" d="M 635.955632 203.982616 
L 649.020063 194.845589 
L 649.021812 194.68645 
L 635.956565 203.822512 
z
" style="fill:#065d4c;fill-opacity:0.8;"/>
    <path clip-path="url(#pae48835493)" d="M 612.907859 198.685788 
L 635.955632 203.982616 
L 635.956565 203.822512 
L 612.907326 198.526242 
z
" style="fill:#0cba97;fill-opacity:0.8;"/>
   </g>
   <g id="Poly3DCollection_30">
    <path clip-path="url(#pae48835493)" d="M 553.817372 197.27654 
L 553.833182 197.866454 
L 576.509777 203.149486 
L 576.49922 202.55751 
z
" style="fill:#0cba97;fill-opacity:0.8;"/>
    <path clip-path="url(#pae48835493)" d="M 539.790482 206.461145 
L 539.809764 207.054637 
L 553.833182 197.866454 
L 553.817372 197.27654 
z
" style="fill:#065d4c;fill-opacity:0.8;"/>
    <path clip-path="url(#pae48835493)" d="M 539.809764 207.054637 
L 562.629301 212.441471 
L 576.509777 203.149486 
L 553.833182 197.866454 
z
" style="fill:#0aa384;fill-opacity:0.8;"/>
    <path clip-path="url(#pae48835493)" d="M 539.790482 206.461145 
L 553.817372 197.27654 
L 576.49922 202.55751 
L 562.615339 211.845901 
z
" style="fill:#08745e;fill-opacity:0.8;"/>
    <path clip-path="url(#pae48835493)" d="M 562.615339 211.845901 
L 576.49922 202.55751 
L 576.509777 203.149486 
L 562.629301 212.441471 
z
" style="fill:#0cba97;fill-opacity:0.8;"/>
    <path clip-path="url(#pae48835493)" d="M 539.790482 206.461145 
L 562.615339 211.845901 
L 562.629301 212.441471 
L 539.809764 207.054637 
z
" style="fill:#065d4c;fill-opacity:0.8;"/>
   </g>
   <g id="Poly3DCollection_31">
    <path clip-path="url(#pae48835493)" d="M 672.175428 200.099259 
L 672.156926 201.0144 
L 695.564051 206.330359 
L 695.591224 205.412017 
z
" style="fill:#0cba97;fill-opacity:0.8;"/>
    <path clip-path="url(#pae48835493)" d="M 659.263697 209.339264 
L 659.249756 210.259959 
L 672.156926 201.0144 
L 672.175428 200.099259 
z
" style="fill:#065d4c;fill-opacity:0.8;"/>
    <path clip-path="url(#pae48835493)" d="M 659.249756 210.259959 
L 682.81376 215.680672 
L 695.564051 206.330359 
L 672.156926 201.0144 
z
" style="fill:#0aa384;fill-opacity:0.8;"/>
    <path clip-path="url(#pae48835493)" d="M 659.263697 209.339264 
L 672.175428 200.099259 
L 695.591224 205.412017 
L 682.836488 214.756752 
z
" style="fill:#08745e;fill-opacity:0.8;"/>
    <path clip-path="url(#pae48835493)" d="M 682.836488 214.756752 
L 695.591224 205.412017 
L 695.564051 206.330359 
L 682.81376 215.680672 
z
" style="fill:#0cba97;fill-opacity:0.8;"/>
    <path clip-path="url(#pae48835493)" d="M 659.263697 209.339264 
L 682.836488 214.756752 
L 682.81376 215.680672 
L 659.249756 210.259959 
z
" style="fill:#065d4c;fill-opacity:0.8;"/>
   </g>
   <g id="Poly3DCollection_32">
    <path clip-path="url(#pae48835493)" d="M 599.436841 207.898031 
L 599.431969 207.339468 
L 622.634882 212.738594 
L 622.634586 213.299115 
z
" style="fill:#065d4c;fill-opacity:0.8;"/>
    <path clip-path="url(#pae48835493)" d="M 585.70012 217.291977 
L 585.692109 216.730017 
L 599.431969 207.339468 
L 599.436841 207.898031 
z
" style="fill:#0cba97;fill-opacity:0.8;"/>
    <path clip-path="url(#pae48835493)" d="M 585.70012 217.291977 
L 599.436841 207.898031 
L 622.634586 213.299115 
L 609.049289 222.800427 
z
" style="fill:#08745e;fill-opacity:0.8;"/>
    <path clip-path="url(#pae48835493)" d="M 585.692109 216.730017 
L 609.046515 222.236494 
L 622.634882 212.738594 
L 599.431969 207.339468 
z
" style="fill:#0aa384;fill-opacity:0.8;"/>
    <path clip-path="url(#pae48835493)" d="M 609.049289 222.800427 
L 622.634586 213.299115 
L 622.634882 212.738594 
L 609.046515 222.236494 
z
" style="fill:#065d4c;fill-opacity:0.8;"/>
    <path clip-path="url(#pae48835493)" d="M 585.70012 217.291977 
L 609.049289 222.800427 
L 609.046515 222.236494 
L 585.692109 216.730017 
z
" style="fill:#0cba97;fill-opacity:0.8;"/>
   </g>
   <g id="Poly3DCollection_33">
    <path clip-path="url(#pae48835493)" d="M 646.096903 218.7618 
L 646.097835 218.66791 
L 669.830181 224.192926 
L 669.828347 224.287145 
z
" style="fill:#065d4c;fill-opacity:0.8;"/>
    <path clip-path="url(#pae48835493)" d="M 632.667415 228.372328 
L 632.667846 228.277866 
L 646.097835 218.66791 
L 646.096903 218.7618 
z
" style="fill:#0cba97;fill-opacity:0.8;"/>
    <path clip-path="url(#pae48835493)" d="M 632.667415 228.372328 
L 646.096903 218.7618 
L 669.828347 224.287145 
L 656.559172 234.008783 
z
" style="fill:#08745e;fill-opacity:0.8;"/>
    <path clip-path="url(#pae48835493)" d="M 632.667846 228.277866 
L 656.560518 233.91399 
L 669.830181 224.192926 
L 646.097835 218.66791 
z
" style="fill:#0aa384;fill-opacity:0.8;"/>
    <path clip-path="url(#pae48835493)" d="M 656.559172 234.008783 
L 669.828347 224.287145 
L 669.830181 224.192926 
L 656.560518 233.91399 
z
" style="fill:#065d4c;fill-opacity:0.8;"/>
    <path clip-path="url(#pae48835493)" d="M 632.667415 228.372328 
L 656.559172 234.008783 
L 656.560518 233.91399 
L 632.667846 228.277866 
z
" style="fill:#0cba97;fill-opacity:0.8;"/>
   </g>
   <g id="Poly3DCollection_34">
    <path clip-path="url(#pae48835493)" d="M 482.063467 197.214937 
L 660.299638 239.459877 
L 756.321885 168.518834 
L 586.5842 132.032125 
z
" style="fill-opacity:0.2;"/>
   </g>
  </g>
 </g>
 <defs>
  <clipPath id="p2bd4b82aeb">
   <rect height="277.2" width="380.454545" x="-30.6" y="-14.4"/>
  </clipPath>
  <clipPath id="pae48835493">
   <rect height="277.2" width="380.454545" x="425.945455" y="-14.4"/>
  </clipPath>
 </defs>
</svg>
