<?xml version="1.0" encoding="utf-8" standalone="no"?>
<!DOCTYPE svg PUBLIC "-//W3C//DTD SVG 1.1//EN"
  "http://www.w3.org/Graphics/SVG/1.1/DTD/svg11.dtd">
<!-- Created with matplotlib (https://matplotlib.org/) -->
<svg height="302.4pt" version="1.1" viewBox="0 0 820.8 302.4" width="820.8pt" xmlns="http://www.w3.org/2000/svg" xmlns:xlink="http://www.w3.org/1999/xlink">
 <defs>
  <style type="text/css">
*{stroke-linecap:butt;stroke-linejoin:round;}
  </style>
 </defs>
 <g id="figure_1">
  <g id="patch_1">
   <path d="M 0 302.4 
L 820.8 302.4 
L 820.8 0 
L 0 0 
z
" style="fill:#ffffff;"/>
  </g>
  <g id="patch_2">
   <path d="M -30.6 262.8 
L 349.854545 262.8 
L 349.854545 -14.4 
L -30.6 -14.4 
z
" style="fill:#ffffff;"/>
  </g>
  <g id="pane3d_1">
   <g id="patch_3">
    <path d="M 19.835129 201.548569 
L 128.723211 133.58541 
L 126.910339 3.718968 
L 11.951034 64.782468 
" style="fill:#f2f2f2;opacity:0.5;stroke:#f2f2f2;stroke-linejoin:miter;"/>
   </g>
  </g>
  <g id="pane3d_2">
   <g id="patch_4">
    <path d="M 128.723211 133.58541 
L 305.111665 171.581202 
L 312.491547 37.79869 
L 126.910339 3.718968 
" style="fill:#e6e6e6;opacity:0.5;stroke:#e6e6e6;stroke-linejoin:miter;"/>
   </g>
  </g>
  <g id="pane3d_3">
   <g id="patch_5">
    <path d="M 19.835129 201.548569 
L 205.419617 245.80086 
L 305.111665 171.581202 
L 128.723211 133.58541 
" style="fill:#ececec;opacity:0.5;stroke:#ececec;stroke-linejoin:miter;"/>
   </g>
  </g>
  <g id="axis3d_1">
   <g id="line2d_1">
    <path d="M 19.835129 201.548569 
L 205.419617 245.80086 
" style="fill:none;stroke:#000000;stroke-linecap:square;stroke-width:0.8;"/>
   </g>
   <g id="Line3DCollection_1">
    <path d="M 42.295817 206.90428 
L 150.133942 138.19749 
L 149.393845 7.847789 
" style="fill:none;stroke:#b0b0b0;stroke-width:0.8;"/>
    <path d="M 87.512337 217.686079 
L 193.184014 147.470895 
L 194.636898 16.156123 
" style="fill:none;stroke:#b0b0b0;stroke-width:0.8;"/>
    <path d="M 133.765289 228.715013 
L 237.148096 156.941187 
L 240.890183 24.649974 
" style="fill:none;stroke:#b0b0b0;stroke-width:0.8;"/>
    <path d="M 181.090721 239.999678 
L 282.055608 166.614702 
L 288.187917 33.335625 
" style="fill:none;stroke:#b0b0b0;stroke-width:0.8;"/>
   </g>
   <g id="xtick_1">
    <g id="line2d_2">
     <path d="M 43.225084 206.312217 
L 40.433807 208.09062 
" style="fill:none;stroke:#000000;stroke-linecap:square;stroke-width:0.8;"/>
    </g>
    <g id="text_1">
     <!-- 00 -->
     <defs>
      <path d="M 42 31.84375 
C 42 37.96875 41.90625 48.421875 37.703125 56.453125 
C 34 63.484375 28.09375 66 22.90625 66 
C 18.09375 66 12 63.78125 8.203125 56.5625 
C 4.203125 49.015625 3.796875 39.671875 3.796875 31.84375 
C 3.796875 26.109375 3.90625 17.375 7 9.734375 
C 11.296875 -0.609375 19 -2 22.90625 -2 
C 27.5 -2 34.5 -0.109375 38.59375 9.4375 
C 41.59375 16.375 42 24.5 42 31.84375 
z
M 22.90625 -0.40625 
C 16.5 -0.40625 12.703125 5.125 11.296875 12.75 
C 10.203125 18.6875 10.203125 27.328125 10.203125 32.953125 
C 10.203125 40.6875 10.203125 47.109375 11.5 53.234375 
C 13.40625 61.78125 19 64.390625 22.90625 64.390625 
C 27 64.390625 32.296875 61.671875 34.203125 53.4375 
C 35.5 47.71875 35.59375 40.984375 35.59375 32.953125 
C 35.59375 26.421875 35.59375 18.375 34.40625 12.453125 
C 32.296875 1.5 26.40625 -0.40625 22.90625 -0.40625 
z
" id="CMR17-48"/>
     </defs>
     <g transform="translate(23.330362 237.14703)rotate(-45)scale(0.14 -0.14)">
      <use transform="scale(0.996264)" xlink:href="#CMR17-48"/>
      <use transform="translate(45.690477 0)scale(0.996264)" xlink:href="#CMR17-48"/>
     </g>
    </g>
   </g>
   <g id="xtick_2">
    <g id="line2d_3">
     <path d="M 88.423674 217.080527 
L 85.686217 218.899473 
" style="fill:none;stroke:#000000;stroke-linecap:square;stroke-width:0.8;"/>
    </g>
    <g id="text_2">
     <!-- 01 -->
     <defs>
      <path d="M 26.59375 63.796875 
C 26.59375 65.890625 26.5 66 25.09375 66 
C 21.203125 61.359375 15.296875 59.890625 9.703125 59.6875 
C 9.40625 59.6875 8.90625 59.6875 8.796875 59.5 
C 8.703125 59.296875 8.703125 59.09375 8.703125 57 
C 11.796875 57 17 57.59375 21 59.984375 
L 21 7.296875 
C 21 3.796875 20.796875 2.59375 12.203125 2.59375 
L 9.203125 2.59375 
L 9.203125 0 
C 14 0.09375 19 0.1875 23.796875 0.1875 
C 28.59375 0.1875 33.59375 0.09375 38.40625 0 
L 38.40625 2.59375 
L 35.40625 2.59375 
C 26.796875 2.59375 26.59375 3.6875 26.59375 7.296875 
z
" id="CMR17-49"/>
     </defs>
     <g transform="translate(68.542787 248.103782)rotate(-45)scale(0.14 -0.14)">
      <use transform="scale(0.996264)" xlink:href="#CMR17-48"/>
      <use transform="translate(45.690477 0)scale(0.996264)" xlink:href="#CMR17-49"/>
     </g>
    </g>
   </g>
   <g id="xtick_3">
    <g id="line2d_4">
     <path d="M 134.657625 228.095506 
L 131.977203 229.956397 
" style="fill:none;stroke:#000000;stroke-linecap:square;stroke-width:0.8;"/>
    </g>
    <g id="text_3">
     <!-- 10 -->
     <g transform="translate(114.7934 259.312128)rotate(-45)scale(0.14 -0.14)">
      <use transform="scale(0.996264)" xlink:href="#CMR17-49"/>
      <use transform="translate(45.690477 0)scale(0.996264)" xlink:href="#CMR17-48"/>
     </g>
    </g>
   </g>
   <g id="xtick_4">
    <g id="line2d_5">
     <path d="M 181.962926 239.365727 
L 179.342936 241.270032 
" style="fill:none;stroke:#000000;stroke-linecap:square;stroke-width:0.8;"/>
    </g>
    <g id="text_4">
     <!-- 11 -->
     <g transform="translate(162.118375 270.780834)rotate(-45)scale(0.14 -0.14)">
      <use transform="scale(0.996264)" xlink:href="#CMR17-49"/>
      <use transform="translate(45.690477 0)scale(0.996264)" xlink:href="#CMR17-49"/>
     </g>
    </g>
   </g>
  </g>
  <g id="axis3d_2">
   <g id="line2d_6">
    <path d="M 305.111665 171.581202 
L 205.419617 245.80086 
" style="fill:none;stroke:#000000;stroke-linecap:square;stroke-width:0.8;"/>
   </g>
   <g id="Line3DCollection_2">
    <path d="M 27.455231 56.547028 
L 34.471044 192.413474 
L 218.858418 235.795817 
" style="fill:none;stroke:#b0b0b0;stroke-width:0.8;"/>
    <path d="M 57.232024 40.730342 
L 62.623407 174.842005 
L 244.674037 216.576366 
" style="fill:none;stroke:#b0b0b0;stroke-width:0.8;"/>
    <path d="M 85.85589 25.526062 
L 89.739382 157.917404 
L 269.496985 198.095948 
" style="fill:none;stroke:#b0b0b0;stroke-width:0.8;"/>
    <path d="M 113.392516 10.899296 
L 115.875164 141.604597 
L 293.383438 180.312741 
" style="fill:none;stroke:#b0b0b0;stroke-width:0.8;"/>
   </g>
   <g id="xtick_5">
    <g id="line2d_7">
     <path d="M 217.315598 235.432825 
L 221.947489 236.522608 
" style="fill:none;stroke:#000000;stroke-linecap:square;stroke-width:0.8;"/>
    </g>
    <g id="text_5">
     <!-- 00 -->
     <g transform="translate(232.650369 248.348363)rotate(-337.5)scale(0.14 -0.14)">
      <use transform="scale(0.996264)" xlink:href="#CMR17-48"/>
      <use transform="translate(45.690477 0)scale(0.996264)" xlink:href="#CMR17-48"/>
     </g>
    </g>
   </g>
   <g id="xtick_6">
    <g id="line2d_8">
     <path d="M 243.15208 216.227463 
L 247.72127 217.274932 
" style="fill:none;stroke:#000000;stroke-linecap:square;stroke-width:0.8;"/>
    </g>
    <g id="text_6">
     <!-- 01 -->
     <g transform="translate(258.203921 228.903937)rotate(-337.5)scale(0.14 -0.14)">
      <use transform="scale(0.996264)" xlink:href="#CMR17-48"/>
      <use transform="translate(45.690477 0)scale(0.996264)" xlink:href="#CMR17-49"/>
     </g>
    </g>
   </g>
   <g id="xtick_7">
    <g id="line2d_9">
     <path d="M 267.995442 197.76033 
L 272.503283 198.767901 
" style="fill:none;stroke:#000000;stroke-linecap:square;stroke-width:0.8;"/>
    </g>
    <g id="text_7">
     <!-- 10 -->
     <g transform="translate(282.775332 210.206849)rotate(-337.5)scale(0.14 -0.14)">
      <use transform="scale(0.996264)" xlink:href="#CMR17-49"/>
      <use transform="translate(45.690477 0)scale(0.996264)" xlink:href="#CMR17-48"/>
     </g>
    </g>
   </g>
   <g id="xtick_8">
    <g id="line2d_10">
     <path d="M 291.901865 179.989663 
L 296.349691 180.959573 
" style="fill:none;stroke:#000000;stroke-linecap:square;stroke-width:0.8;"/>
    </g>
    <g id="text_8">
     <!-- 11 -->
     <g transform="translate(306.420159 192.214827)rotate(-337.5)scale(0.14 -0.14)">
      <use transform="scale(0.996264)" xlink:href="#CMR17-49"/>
      <use transform="translate(45.690477 0)scale(0.996264)" xlink:href="#CMR17-49"/>
     </g>
    </g>
   </g>
  </g>
  <g id="axis3d_3">
   <g id="line2d_11">
    <path d="M 305.111665 171.581202 
L 312.491547 37.79869 
" style="fill:none;stroke:#000000;stroke-linecap:square;stroke-width:0.8;"/>
   </g>
   <g id="text_9">
    <!-- Re[$\rho$] -->
    <defs>
     <path d="M 39.203125 33.6875 
C 48.703125 35.59375 56.703125 42.015625 56.703125 50.046875 
C 56.703125 59.46875 46.09375 68 32.09375 68 
L 5.203125 68 
L 5.203125 65.390625 
C 12.09375 65.390625 13.203125 65.390625 13.203125 60.875 
L 13.203125 6.6875 
C 13.203125 2.1875 12.09375 2.1875 5.203125 2.1875 
L 5.203125 -0.40625 
C 8.09375 -0.203125 13.296875 -0.203125 16.40625 -0.203125 
C 19.5 -0.203125 24.703125 -0.203125 27.59375 -0.40625 
L 27.59375 2.1875 
C 20.703125 2.1875 19.59375 2.1875 19.59375 6.6875 
L 19.59375 33 
L 31.296875 33 
C 37 33 40.203125 30.6875 41.59375 29.390625 
C 45.59375 25.5 45.59375 22.796875 45.59375 16 
C 45.59375 9.296875 45.59375 5.890625 48.59375 2.5 
C 52.40625 -1.609375 57.5 -2 59.703125 -2 
C 67.09375 -2 68.203125 6.296875 68.203125 8 
C 68.203125 8.59375 68.203125 9.296875 67.296875 9.296875 
C 66.5 9.296875 66.40625 8.6875 66.40625 8.296875 
C 65.90625 1.796875 63 -0.40625 59.90625 -0.40625 
C 54.40625 -0.40625 53.796875 5.890625 53.203125 12 
C 52.90625 14.09375 52.703125 15.59375 52.5 17.796875 
C 51.90625 22.796875 51.09375 30.09375 39.203125 33.6875 
z
M 31 34.59375 
L 19.59375 34.59375 
L 19.59375 61.484375 
C 19.59375 64.890625 19.796875 65.390625 23.796875 65.390625 
L 31.09375 65.390625 
C 39.40625 65.390625 49.09375 62.484375 49.09375 50.046875 
C 49.09375 37.09375 38.5 34.59375 31 34.59375 
z
" id="CMR17-82"/>
     <path d="M 38.09375 23.484375 
C 38.5 23.890625 38.5 24.09375 38.5 25.09375 
C 38.5 35.171875 33.09375 44 21.703125 44 
C 11.09375 44 2.703125 33.984375 2.703125 21.78125 
C 2.703125 8.65625 12.203125 -1 22.796875 -1 
C 34 -1 38.40625 9.671875 38.40625 11.796875 
C 38.40625 12.5 37.796875 12.5 37.59375 12.5 
C 36.90625 12.5 36.796875 12.296875 36.40625 11.078125 
C 34.203125 4.21875 28.703125 0.796875 23.5 0.796875 
C 19.203125 0.796875 14.90625 3.21875 12.203125 7.65625 
C 9.09375 12.796875 9.09375 18.75 9.09375 23.484375 
z
M 9.203125 25 
C 9.90625 39.234375 17.59375 42.390625 21.59375 42.390625 
C 28.40625 42.390625 33 36.0625 33.09375 25 
z
" id="CMR17-101"/>
     <path d="M 23.5 -25 
L 23.5 -21.5 
L 14.09375 -21.5 
L 14.09375 71.484375 
L 23.5 71.484375 
L 23.5 75 
L 10.59375 75 
L 10.59375 -25 
z
" id="CMR17-91"/>
     <path d="M 3.09375 -16.953125 
C 3 -17.4375 2.796875 -18.03125 2.796875 -18.609375 
C 2.796875 -20.109375 4 -21.109375 5.5 -21.109375 
C 7 -21.109375 8.40625 -20.109375 9 -18.71875 
C 9.40625 -17.828125 12.203125 -6.09375 15.40625 6.078125 
C 17.40625 1.09375 21.09375 -1 25 -1 
C 36.296875 -1 49.09375 12.96875 49.09375 28.03125 
C 49.09375 38.703125 42.59375 44 35.703125 44 
C 26.90625 44 16.203125 34.90625 12.90625 21.640625 
z
M 24.90625 1 
C 18.09375 1 16.40625 8.875 16.40625 10.078125 
C 16.40625 10.671875 18.90625 20.140625 19.203125 21.640625 
C 24.296875 41.5 34.09375 41.984375 35.59375 41.984375 
C 40.09375 41.984375 42.59375 37.90625 42.59375 32.015625 
C 42.59375 26.9375 39.90625 17.046875 38.203125 12.859375 
C 35.203125 5.984375 30 1 24.90625 1 
z
" id="CMMI12-26"/>
     <path d="M 14.296875 75 
L 1.40625 75 
L 1.40625 71.484375 
L 10.796875 71.484375 
L 10.796875 -21.5 
L 1.40625 -21.5 
L 1.40625 -25 
L 14.296875 -25 
z
" id="CMR17-93"/>
    </defs>
    <g transform="translate(352.486567 117.931831)rotate(-86.842577)scale(0.14 -0.14)">
     <use transform="scale(0.996264)" xlink:href="#CMR17-82"/>
     <use transform="translate(67.791102 0)scale(0.996264)" xlink:href="#CMR17-101"/>
     <use transform="translate(108.276762 0)scale(0.996264)" xlink:href="#CMR17-91"/>
     <use transform="translate(133.147821 0)scale(0.996264)" xlink:href="#CMMI12-26"/>
     <use transform="translate(183.462194 0)scale(0.996264)" xlink:href="#CMR17-93"/>
    </g>
   </g>
   <g id="Line3DCollection_3">
    <path d="M 305.274173 168.635261 
L 128.683205 130.719604 
L 19.66181 198.541994 
" style="fill:none;stroke:#b0b0b0;stroke-width:0.8;"/>
    <path d="M 308.019796 118.862604 
L 128.007884 82.342423 
L 16.731547 147.710457 
" style="fill:none;stroke:#b0b0b0;stroke-width:0.8;"/>
    <path d="M 310.874862 67.105961 
L 127.306804 32.119993 
L 13.680498 94.78364 
" style="fill:none;stroke:#b0b0b0;stroke-width:0.8;"/>
   </g>
   <g id="xtick_9">
    <g id="line2d_12">
     <path d="M 303.800764 168.318907 
L 308.224056 169.268627 
" style="fill:none;stroke:#000000;stroke-linecap:square;stroke-width:0.8;"/>
    </g>
    <g id="text_10">
     <!-- $0.0$ -->
     <defs>
      <path d="M 18.40625 4.796875 
C 18.40625 7.6875 16 9.6875 13.59375 9.6875 
C 10.703125 9.6875 8.703125 7.296875 8.703125 4.890625 
C 8.703125 2 11.09375 0 13.5 0 
C 16.40625 0 18.40625 2.390625 18.40625 4.796875 
z
" id="CMMI12-58"/>
     </defs>
     <g transform="translate(315.079532 176.380776)scale(0.14 -0.14)">
      <use transform="scale(0.996264)" xlink:href="#CMR17-48"/>
      <use transform="translate(45.690477 0)scale(0.996264)" xlink:href="#CMMI12-58"/>
      <use transform="translate(72.787654 0)scale(0.996264)" xlink:href="#CMR17-48"/>
     </g>
    </g>
   </g>
   <g id="xtick_10">
    <g id="line2d_13">
     <path d="M 306.516635 118.557648 
L 311.029305 119.473162 
" style="fill:none;stroke:#000000;stroke-linecap:square;stroke-width:0.8;"/>
    </g>
    <g id="text_11">
     <!-- $0.2$ -->
     <defs>
      <path d="M 41.703125 15.46875 
L 39.90625 15.46875 
C 38.90625 8.390625 38.09375 7.1875 37.703125 6.59375 
C 37.203125 5.796875 30 5.796875 28.59375 5.796875 
L 9.40625 5.796875 
C 13 9.6875 20 16.765625 28.5 24.9375 
C 34.59375 30.71875 41.703125 37.5 41.703125 47.390625 
C 41.703125 59.1875 32.296875 66 21.796875 66 
C 10.796875 66 4.09375 56.296875 4.09375 47.296875 
C 4.09375 43.390625 7 42.890625 8.203125 42.890625 
C 9.203125 42.890625 12.203125 43.484375 12.203125 46.984375 
C 12.203125 50.09375 9.59375 51 8.203125 51 
C 7.59375 51 7 50.890625 6.59375 50.6875 
C 8.5 59.1875 14.296875 63.390625 20.40625 63.390625 
C 29.09375 63.390625 34.796875 56.5 34.796875 47.390625 
C 34.796875 38.703125 29.703125 31.21875 24 24.734375 
L 4.09375 2.296875 
L 4.09375 0 
L 39.296875 0 
z
" id="CMR17-50"/>
     </defs>
     <g transform="translate(318.180531 126.678095)scale(0.14 -0.14)">
      <use transform="scale(0.996264)" xlink:href="#CMR17-48"/>
      <use transform="translate(45.690477 0)scale(0.996264)" xlink:href="#CMMI12-58"/>
      <use transform="translate(72.787654 0)scale(0.996264)" xlink:href="#CMR17-50"/>
     </g>
    </g>
   </g>
   <g id="xtick_11">
    <g id="line2d_14">
     <path d="M 309.340725 66.813572 
L 313.946454 67.691371 
" style="fill:none;stroke:#000000;stroke-linecap:square;stroke-width:0.8;"/>
    </g>
    <g id="text_12">
     <!-- $0.4$ -->
     <defs>
      <path d="M 33.59375 64.796875 
C 33.59375 66.890625 33.5 67 31.703125 67 
L 2 19.59375 
L 2 17 
L 27.796875 17 
L 27.796875 7.1875 
C 27.796875 3.59375 27.59375 2.59375 20.59375 2.59375 
L 18.703125 2.59375 
L 18.703125 0 
C 21.90625 0.1875 27.296875 0.1875 30.703125 0.1875 
C 34.09375 0.1875 39.5 0.1875 42.703125 0 
L 42.703125 2.59375 
L 40.796875 2.59375 
C 33.796875 2.59375 33.59375 3.59375 33.59375 7.1875 
L 33.59375 17 
L 43.796875 17 
L 43.796875 19.59375 
L 33.59375 19.59375 
z
M 28.09375 58.171875 
L 28.09375 19.59375 
L 4 19.59375 
z
" id="CMR17-52"/>
     </defs>
     <g transform="translate(321.404866 74.998594)scale(0.14 -0.14)">
      <use transform="scale(0.996264)" xlink:href="#CMR17-48"/>
      <use transform="translate(45.690477 0)scale(0.996264)" xlink:href="#CMMI12-58"/>
      <use transform="translate(72.787654 0)scale(0.996264)" xlink:href="#CMR17-52"/>
     </g>
    </g>
   </g>
  </g>
  <g id="axes_1">
   <g id="Poly3DCollection_1">
    <path clip-path="url(#p63f181d70f)" d="M 133.046921 137.083799 
L 133.032061 135.875849 
L 154.432242 140.4928 
L 154.437108 141.704907 
z
" style="fill:#5d0618;fill-opacity:0.8;"/>
    <path clip-path="url(#p63f181d70f)" d="M 120.264301 145.118621 
L 120.243263 143.903456 
L 133.032061 135.875849 
L 133.046921 137.083799 
z
" style="fill:#ba0c2f;fill-opacity:0.8;"/>
    <path clip-path="url(#p63f181d70f)" d="M 120.264301 145.118621 
L 133.046921 137.083799 
L 154.437108 141.704907 
L 141.782833 149.824559 
z
" style="fill:#74081d;fill-opacity:0.8;"/>
    <path clip-path="url(#p63f181d70f)" d="M 120.243263 143.903456 
L 141.77191 148.605201 
L 154.432242 140.4928 
L 133.032061 135.875849 
z
" style="fill:#a30a29;fill-opacity:0.8;"/>
    <path clip-path="url(#p63f181d70f)" d="M 141.782833 149.824559 
L 154.437108 141.704907 
L 154.432242 140.4928 
L 141.77191 148.605201 
z
" style="fill:#5d0618;fill-opacity:0.8;"/>
    <path clip-path="url(#p63f181d70f)" d="M 120.264301 145.118621 
L 141.782833 149.824559 
L 141.77191 148.605201 
L 120.243263 143.903456 
z
" style="fill:#ba0c2f;fill-opacity:0.8;"/>
   </g>
   <g id="Poly3DCollection_2">
    <path clip-path="url(#p63f181d70f)" d="M 176.052689 146.37471 
L 176.050954 146.769767 
L 197.892125 151.4904 
L 197.897245 151.09398 
z
" style="fill:#ba0c2f;fill-opacity:0.8;"/>
    <path clip-path="url(#p63f181d70f)" d="M 163.5302 154.580542 
L 163.530392 154.977964 
L 176.050954 146.769767 
L 176.052689 146.37471 
z
" style="fill:#5d0618;fill-opacity:0.8;"/>
    <path clip-path="url(#p63f181d70f)" d="M 163.530392 154.977964 
L 185.506836 159.786168 
L 197.892125 151.4904 
L 176.050954 146.769767 
z
" style="fill:#a30a29;fill-opacity:0.8;"/>
    <path clip-path="url(#p63f181d70f)" d="M 163.5302 154.580542 
L 176.052689 146.37471 
L 197.897245 151.09398 
L 185.510071 159.387372 
z
" style="fill:#74081d;fill-opacity:0.8;"/>
    <path clip-path="url(#p63f181d70f)" d="M 185.510071 159.387372 
L 197.897245 151.09398 
L 197.892125 151.4904 
L 185.506836 159.786168 
z
" style="fill:#ba0c2f;fill-opacity:0.8;"/>
    <path clip-path="url(#p63f181d70f)" d="M 163.5302 154.580542 
L 185.510071 159.387372 
L 185.506836 159.786168 
L 163.530392 154.977964 
z
" style="fill:#5d0618;fill-opacity:0.8;"/>
   </g>
   <g id="Poly3DCollection_3">
    <path clip-path="url(#p63f181d70f)" d="M 107.246571 153.301227 
L 107.249667 153.439131 
L 128.896507 158.232734 
L 128.894566 158.094352 
z
" style="fill:#ba0c2f;fill-opacity:0.8;"/>
    <path clip-path="url(#p63f181d70f)" d="M 93.987184 161.635732 
L 93.991028 161.774464 
L 107.249667 153.439131 
L 107.246571 153.301227 
z
" style="fill:#5d0618;fill-opacity:0.8;"/>
    <path clip-path="url(#p63f181d70f)" d="M 93.991028 161.774464 
L 115.768433 166.657703 
L 128.896507 158.232734 
L 107.249667 153.439131 
z
" style="fill:#a30a29;fill-opacity:0.8;"/>
    <path clip-path="url(#p63f181d70f)" d="M 93.987184 161.635732 
L 107.246571 153.301227 
L 128.894566 158.094352 
L 115.765757 166.518491 
z
" style="fill:#74081d;fill-opacity:0.8;"/>
    <path clip-path="url(#p63f181d70f)" d="M 115.765757 166.518491 
L 128.894566 158.094352 
L 128.896507 158.232734 
L 115.768433 166.657703 
z
" style="fill:#ba0c2f;fill-opacity:0.8;"/>
    <path clip-path="url(#p63f181d70f)" d="M 93.987184 161.635732 
L 115.765757 166.518491 
L 115.768433 166.657703 
L 93.991028 161.774464 
z
" style="fill:#5d0618;fill-opacity:0.8;"/>
   </g>
   <g id="Poly3DCollection_4">
    <path clip-path="url(#p63f181d70f)" d="M 219.974435 155.863507 
L 219.97939 155.633744 
L 242.29499 160.453541 
L 242.287995 160.6841 
z
" style="fill:#5d0618;fill-opacity:0.8;"/>
    <path clip-path="url(#p63f181d70f)" d="M 207.726196 164.245868 
L 207.730088 164.014725 
L 219.97939 155.633744 
L 219.974435 155.863507 
z
" style="fill:#ba0c2f;fill-opacity:0.8;"/>
    <path clip-path="url(#p63f181d70f)" d="M 207.726196 164.245868 
L 219.974435 155.863507 
L 242.287995 160.6841 
L 230.182404 169.156869 
z
" style="fill:#74081d;fill-opacity:0.8;"/>
    <path clip-path="url(#p63f181d70f)" d="M 207.730088 164.014725 
L 230.188362 168.924924 
L 242.29499 160.453541 
L 219.97939 155.633744 
z
" style="fill:#a30a29;fill-opacity:0.8;"/>
    <path clip-path="url(#p63f181d70f)" d="M 230.182404 169.156869 
L 242.287995 160.6841 
L 242.29499 160.453541 
L 230.188362 168.924924 
z
" style="fill:#5d0618;fill-opacity:0.8;"/>
    <path clip-path="url(#p63f181d70f)" d="M 207.726196 164.245868 
L 230.182404 169.156869 
L 230.188362 168.924924 
L 207.730088 164.014725 
z
" style="fill:#ba0c2f;fill-opacity:0.8;"/>
   </g>
   <g id="Poly3DCollection_5">
    <path clip-path="url(#p63f181d70f)" d="M 150.774913 162.938923 
L 150.772773 162.548559 
L 172.892621 167.444055 
L 172.891372 167.835773 
z
" style="fill:#5d0618;fill-opacity:0.8;"/>
    <path clip-path="url(#p63f181d70f)" d="M 137.780276 171.454148 
L 137.77611 171.061436 
L 150.772773 162.548559 
L 150.774913 162.938923 
z
" style="fill:#ba0c2f;fill-opacity:0.8;"/>
    <path clip-path="url(#p63f181d70f)" d="M 137.780276 171.454148 
L 150.774913 162.938923 
L 172.891372 167.835773 
L 160.034596 176.44357 
z
" style="fill:#74081d;fill-opacity:0.8;"/>
    <path clip-path="url(#p63f181d70f)" d="M 137.77611 171.061436 
L 160.033862 176.049492 
L 172.892621 167.444055 
L 150.772773 162.548559 
z
" style="fill:#a30a29;fill-opacity:0.8;"/>
    <path clip-path="url(#p63f181d70f)" d="M 160.034596 176.44357 
L 172.891372 167.835773 
L 172.892621 167.444055 
L 160.033862 176.049492 
z
" style="fill:#5d0618;fill-opacity:0.8;"/>
    <path clip-path="url(#p63f181d70f)" d="M 137.780276 171.454148 
L 160.034596 176.44357 
L 160.033862 176.049492 
L 137.77611 171.061436 
z
" style="fill:#ba0c2f;fill-opacity:0.8;"/>
   </g>
   <g id="Poly3DCollection_6">
    <path clip-path="url(#p63f181d70f)" d="M 80.479347 170.126406 
L 80.488486 170.402401 
L 102.396407 175.378289 
L 102.389607 175.101336 
z
" style="fill:#ba0c2f;fill-opacity:0.8;"/>
    <path clip-path="url(#p63f181d70f)" d="M 66.716013 178.77768 
L 66.726744 179.055337 
L 80.488486 170.402401 
L 80.479347 170.126406 
z
" style="fill:#5d0618;fill-opacity:0.8;"/>
    <path clip-path="url(#p63f181d70f)" d="M 66.726744 179.055337 
L 88.767425 184.126039 
L 102.396407 175.378289 
L 80.488486 170.402401 
z
" style="fill:#a30a29;fill-opacity:0.8;"/>
    <path clip-path="url(#p63f181d70f)" d="M 66.716013 178.77768 
L 80.479347 170.126406 
L 102.389607 175.101336 
L 88.75906 183.847415 
z
" style="fill:#74081d;fill-opacity:0.8;"/>
    <path clip-path="url(#p63f181d70f)" d="M 88.75906 183.847415 
L 102.389607 175.101336 
L 102.396407 175.378289 
L 88.767425 184.126039 
z
" style="fill:#ba0c2f;fill-opacity:0.8;"/>
    <path clip-path="url(#p63f181d70f)" d="M 66.716013 178.77768 
L 88.75906 183.847415 
L 88.767425 184.126039 
L 66.726744 179.055337 
z
" style="fill:#5d0618;fill-opacity:0.8;"/>
   </g>
   <g id="Poly3DCollection_7">
    <path clip-path="url(#p63f181d70f)" d="M 195.247787 172.785751 
L 195.252969 172.353383 
L 217.857157 177.355856 
L 217.848083 177.789727 
z
" style="fill:#5d0618;fill-opacity:0.8;"/>
    <path clip-path="url(#p63f181d70f)" d="M 182.532658 181.487638 
L 182.535707 181.052662 
L 195.252969 172.353383 
L 195.247787 172.785751 
z
" style="fill:#ba0c2f;fill-opacity:0.8;"/>
    <path clip-path="url(#p63f181d70f)" d="M 182.532658 181.487638 
L 195.247787 172.785751 
L 217.848083 177.789727 
L 205.278487 186.587255 
z
" style="fill:#74081d;fill-opacity:0.8;"/>
    <path clip-path="url(#p63f181d70f)" d="M 182.535707 181.052662 
L 205.285478 186.150764 
L 217.857157 177.355856 
L 195.252969 172.353383 
z
" style="fill:#a30a29;fill-opacity:0.8;"/>
    <path clip-path="url(#p63f181d70f)" d="M 205.278487 186.587255 
L 217.848083 177.789727 
L 217.857157 177.355856 
L 205.285478 186.150764 
z
" style="fill:#5d0618;fill-opacity:0.8;"/>
    <path clip-path="url(#p63f181d70f)" d="M 182.532658 181.487638 
L 205.278487 186.587255 
L 205.285478 186.150764 
L 182.535707 181.052662 
z
" style="fill:#ba0c2f;fill-opacity:0.8;"/>
   </g>
   <g id="Poly3DCollection_8">
    <path clip-path="url(#p63f181d70f)" d="M 124.539487 180.130673 
L 124.532358 179.681295 
L 146.929763 184.764373 
L 146.932942 185.215317 
z
" style="fill:#5d0618;fill-opacity:0.8;"/>
    <path clip-path="url(#p63f181d70f)" d="M 111.045487 188.973125 
L 111.035874 188.521031 
L 124.532358 179.681295 
L 124.539487 180.130673 
z
" style="fill:#ba0c2f;fill-opacity:0.8;"/>
    <path clip-path="url(#p63f181d70f)" d="M 111.045487 188.973125 
L 124.539487 180.130673 
L 146.932942 185.215317 
L 133.579344 194.155743 
z
" style="fill:#74081d;fill-opacity:0.8;"/>
    <path clip-path="url(#p63f181d70f)" d="M 111.035874 188.521031 
L 133.573733 193.702071 
L 146.929763 184.764373 
L 124.532358 179.681295 
z
" style="fill:#a30a29;fill-opacity:0.8;"/>
    <path clip-path="url(#p63f181d70f)" d="M 133.579344 194.155743 
L 146.932942 185.215317 
L 146.929763 184.764373 
L 133.573733 193.702071 
z
" style="fill:#5d0618;fill-opacity:0.8;"/>
    <path clip-path="url(#p63f181d70f)" d="M 111.045487 188.973125 
L 133.579344 194.155743 
L 133.573733 193.702071 
L 111.035874 188.521031 
z
" style="fill:#ba0c2f;fill-opacity:0.8;"/>
   </g>
   <g id="Poly3DCollection_9">
    <path clip-path="url(#p63f181d70f)" d="M 240.696272 182.84859 
L 240.703292 182.614435 
L 263.805663 187.728277 
L 263.796457 187.963248 
z
" style="fill:#5d0618;fill-opacity:0.8;"/>
    <path clip-path="url(#p63f181d70f)" d="M 228.276199 191.743345 
L 228.282126 191.507774 
L 240.703292 182.614435 
L 240.696272 182.84859 
z
" style="fill:#ba0c2f;fill-opacity:0.8;"/>
    <path clip-path="url(#p63f181d70f)" d="M 228.276199 191.743345 
L 240.696272 182.84859 
L 263.796457 187.963248 
L 251.530001 196.95685 
z
" style="fill:#74081d;fill-opacity:0.8;"/>
    <path clip-path="url(#p63f181d70f)" d="M 228.282126 191.507774 
L 251.538144 196.720457 
L 263.805663 187.728277 
L 240.703292 182.614435 
z
" style="fill:#a30a29;fill-opacity:0.8;"/>
    <path clip-path="url(#p63f181d70f)" d="M 251.530001 196.95685 
L 263.796457 187.963248 
L 263.805663 187.728277 
L 251.538144 196.720457 
z
" style="fill:#5d0618;fill-opacity:0.8;"/>
    <path clip-path="url(#p63f181d70f)" d="M 228.276199 191.743345 
L 251.530001 196.95685 
L 251.538144 196.720457 
L 228.282126 191.507774 
z
" style="fill:#ba0c2f;fill-opacity:0.8;"/>
   </g>
   <g id="Poly3DCollection_10">
    <path clip-path="url(#p63f181d70f)" d="M 169.574009 190.356183 
L 169.574766 189.958344 
L 192.471208 195.154982 
L 192.46682 195.55421 
z
" style="fill:#5d0618;fill-opacity:0.8;"/>
    <path clip-path="url(#p63f181d70f)" d="M 156.364777 199.396221 
L 156.36344 198.995972 
L 169.574766 189.958344 
L 169.574009 190.356183 
z
" style="fill:#ba0c2f;fill-opacity:0.8;"/>
    <path clip-path="url(#p63f181d70f)" d="M 156.364777 199.396221 
L 169.574009 190.356183 
L 192.46682 195.55421 
L 179.406021 204.695534 
z
" style="fill:#74081d;fill-opacity:0.8;"/>
    <path clip-path="url(#p63f181d70f)" d="M 156.36344 198.995972 
L 179.408363 204.293886 
L 192.471208 195.154982 
L 169.574766 189.958344 
z
" style="fill:#a30a29;fill-opacity:0.8;"/>
    <path clip-path="url(#p63f181d70f)" d="M 179.406021 204.695534 
L 192.46682 195.55421 
L 192.471208 195.154982 
L 179.408363 204.293886 
z
" style="fill:#5d0618;fill-opacity:0.8;"/>
    <path clip-path="url(#p63f181d70f)" d="M 156.364777 199.396221 
L 179.406021 204.695534 
L 179.408363 204.293886 
L 156.36344 198.995972 
z
" style="fill:#ba0c2f;fill-opacity:0.8;"/>
   </g>
   <g id="Poly3DCollection_11">
    <path clip-path="url(#p63f181d70f)" d="M 97.29094 197.98631 
L 97.298479 198.267596 
L 119.9715 203.55203 
L 119.966467 203.269761 
z
" style="fill:#ba0c2f;fill-opacity:0.8;"/>
    <path clip-path="url(#p63f181d70f)" d="M 83.268228 207.17522 
L 83.277422 207.458211 
L 97.298479 198.267596 
L 97.29094 197.98631 
z
" style="fill:#5d0618;fill-opacity:0.8;"/>
    <path clip-path="url(#p63f181d70f)" d="M 83.277422 207.458211 
L 106.093341 212.846458 
L 119.9715 203.55203 
L 97.298479 198.267596 
z
" style="fill:#a30a29;fill-opacity:0.8;"/>
    <path clip-path="url(#p63f181d70f)" d="M 83.268228 207.17522 
L 97.29094 197.98631 
L 119.966467 203.269761 
L 106.086684 212.562476 
z
" style="fill:#74081d;fill-opacity:0.8;"/>
    <path clip-path="url(#p63f181d70f)" d="M 106.086684 212.562476 
L 119.966467 203.269761 
L 119.9715 203.55203 
L 106.093341 212.846458 
z
" style="fill:#ba0c2f;fill-opacity:0.8;"/>
    <path clip-path="url(#p63f181d70f)" d="M 83.268228 207.17522 
L 106.086684 212.562476 
L 106.093341 212.846458 
L 83.277422 207.458211 
z
" style="fill:#5d0618;fill-opacity:0.8;"/>
   </g>
   <g id="Poly3DCollection_12">
    <path clip-path="url(#p63f181d70f)" d="M 215.615596 200.810356 
L 215.607301 201.220664 
L 239.012472 206.537345 
L 239.024655 206.125602 
z
" style="fill:#ba0c2f;fill-opacity:0.8;"/>
    <path clip-path="url(#p63f181d70f)" d="M 202.70741 210.054678 
L 202.70116 210.467474 
L 215.607301 201.220664 
L 215.615596 200.810356 
z
" style="fill:#5d0618;fill-opacity:0.8;"/>
    <path clip-path="url(#p63f181d70f)" d="M 202.70116 210.467474 
L 226.263183 215.888913 
L 239.012472 206.537345 
L 215.607301 201.220664 
z
" style="fill:#a30a29;fill-opacity:0.8;"/>
    <path clip-path="url(#p63f181d70f)" d="M 202.70741 210.054678 
L 215.615596 200.810356 
L 239.024655 206.125602 
L 226.273373 215.474672 
z
" style="fill:#74081d;fill-opacity:0.8;"/>
    <path clip-path="url(#p63f181d70f)" d="M 226.273373 215.474672 
L 239.024655 206.125602 
L 239.012472 206.537345 
L 226.263183 215.888913 
z
" style="fill:#ba0c2f;fill-opacity:0.8;"/>
    <path clip-path="url(#p63f181d70f)" d="M 202.70741 210.054678 
L 226.273373 215.474672 
L 226.263183 215.888913 
L 202.70116 210.467474 
z
" style="fill:#5d0618;fill-opacity:0.8;"/>
   </g>
   <g id="Poly3DCollection_13">
    <path clip-path="url(#p63f181d70f)" d="M 142.897622 208.612774 
L 142.898872 208.756013 
L 166.088677 214.160102 
L 166.088753 214.016362 
z
" style="fill:#ba0c2f;fill-opacity:0.8;"/>
    <path clip-path="url(#p63f181d70f)" d="M 129.164915 218.011064 
L 129.16697 218.155172 
L 142.898872 208.756013 
L 142.897622 208.612774 
z
" style="fill:#5d0618;fill-opacity:0.8;"/>
    <path clip-path="url(#p63f181d70f)" d="M 129.16697 218.155172 
L 152.508096 223.666649 
L 166.088677 214.160102 
L 142.898872 208.756013 
z
" style="fill:#a30a29;fill-opacity:0.8;"/>
    <path clip-path="url(#p63f181d70f)" d="M 129.164915 218.011064 
L 142.897622 208.612774 
L 166.088753 214.016362 
L 152.507385 223.522035 
z
" style="fill:#74081d;fill-opacity:0.8;"/>
    <path clip-path="url(#p63f181d70f)" d="M 152.507385 223.522035 
L 166.088753 214.016362 
L 166.088677 214.160102 
L 152.508096 223.666649 
z
" style="fill:#ba0c2f;fill-opacity:0.8;"/>
    <path clip-path="url(#p63f181d70f)" d="M 129.164915 218.011064 
L 152.507385 223.522035 
L 152.508096 223.666649 
L 129.16697 218.155172 
z
" style="fill:#5d0618;fill-opacity:0.8;"/>
   </g>
   <g id="Poly3DCollection_14">
    <path clip-path="url(#p63f181d70f)" d="M 252.882607 174.12123 
L 264.84174 165.556582 
L 287.63957 170.481796 
L 275.830805 179.139825 
z
" style="fill:#74081d;fill-opacity:0.8;"/>
    <path clip-path="url(#p63f181d70f)" d="M 264.84174 165.556582 
L 269.853873 37.832394 
L 293.828503 42.279736 
L 287.63957 170.481796 
z
" style="fill:#5d0618;fill-opacity:0.8;"/>
    <path clip-path="url(#p63f181d70f)" d="M 252.882607 174.12123 
L 257.339398 45.567601 
L 269.853873 37.832394 
L 264.84174 165.556582 
z
" style="fill:#ba0c2f;fill-opacity:0.8;"/>
    <path clip-path="url(#p63f181d70f)" d="M 275.830805 179.139825 
L 287.63957 170.481796 
L 293.828503 42.279736 
L 281.480557 50.103563 
z
" style="fill:#5d0618;fill-opacity:0.8;"/>
    <path clip-path="url(#p63f181d70f)" d="M 252.882607 174.12123 
L 275.830805 179.139825 
L 281.480557 50.103563 
L 257.339398 45.567601 
z
" style="fill:#ba0c2f;fill-opacity:0.8;"/>
    <path clip-path="url(#p63f181d70f)" d="M 257.339398 45.567601 
L 281.480557 50.103563 
L 293.828503 42.279736 
L 269.853873 37.832394 
z
" style="fill:#a30a29;fill-opacity:0.8;"/>
   </g>
   <g id="Poly3DCollection_15">
    <path clip-path="url(#p63f181d70f)" d="M 189.544305 219.481561 
L 189.556996 218.202877 
L 213.293814 223.726259 
L 213.268828 225.009431 
z
" style="fill:#5d0618;fill-opacity:0.8;"/>
    <path clip-path="url(#p63f181d70f)" d="M 176.118655 229.096469 
L 176.124527 227.81 
L 189.556996 218.202877 
L 189.544305 219.481561 
z
" style="fill:#ba0c2f;fill-opacity:0.8;"/>
    <path clip-path="url(#p63f181d70f)" d="M 176.118655 229.096469 
L 189.544305 219.481561 
L 213.268828 225.009431 
L 200.003397 234.735467 
z
" style="fill:#74081d;fill-opacity:0.8;"/>
    <path clip-path="url(#p63f181d70f)" d="M 176.124527 227.81 
L 200.021732 233.444479 
L 213.293814 223.726259 
L 189.556996 218.202877 
z
" style="fill:#a30a29;fill-opacity:0.8;"/>
    <path clip-path="url(#p63f181d70f)" d="M 200.003397 234.735467 
L 213.268828 225.009431 
L 213.293814 223.726259 
L 200.021732 233.444479 
z
" style="fill:#5d0618;fill-opacity:0.8;"/>
    <path clip-path="url(#p63f181d70f)" d="M 176.118655 229.096469 
L 200.003397 234.735467 
L 200.021732 233.444479 
L 176.124527 227.81 
z
" style="fill:#ba0c2f;fill-opacity:0.8;"/>
   </g>
   <g id="Poly3DCollection_16">
    <path clip-path="url(#p63f181d70f)" d="M 25.557255 197.924677 
L 203.742704 240.189004 
L 299.739543 169.214797 
L 130.047855 132.709857 
z
" style="fill-opacity:0.15;"/>
   </g>
   <g id="Poly3DCollection_17">
    <path clip-path="url(#p63f181d70f)" d="M 38.393293 196.580603 
L 52.689861 187.594153 
L 74.86679 192.76143 
L 60.705186 201.848264 
z
" style="fill:#74081d;fill-opacity:0.8;"/>
    <path clip-path="url(#p63f181d70f)" d="M 52.689861 187.594153 
L 46.962135 58.395453 
L 70.24563 63.07539 
L 74.86679 192.76143 
z
" style="fill:#5d0618;fill-opacity:0.8;"/>
    <path clip-path="url(#p63f181d70f)" d="M 38.393293 196.580603 
L 31.869477 66.536072 
L 46.962135 58.395453 
L 52.689861 187.594153 
z
" style="fill:#ba0c2f;fill-opacity:0.8;"/>
    <path clip-path="url(#p63f181d70f)" d="M 60.705186 201.848264 
L 74.86679 192.76143 
L 70.24563 63.07539 
L 55.301541 71.311657 
z
" style="fill:#5d0618;fill-opacity:0.8;"/>
    <path clip-path="url(#p63f181d70f)" d="M 38.393293 196.580603 
L 60.705186 201.848264 
L 55.301541 71.311657 
L 31.869477 66.536072 
z
" style="fill:#ba0c2f;fill-opacity:0.8;"/>
    <path clip-path="url(#p63f181d70f)" d="M 31.869477 66.536072 
L 55.301541 71.311657 
L 70.24563 63.07539 
L 46.962135 58.395453 
z
" style="fill:#a30a29;fill-opacity:0.8;"/>
   </g>
  </g>
  <g id="patch_6">
   <path d="M 425.945455 262.8 
L 806.4 262.8 
L 806.4 -14.4 
L 425.945455 -14.4 
z
" style="fill:#ffffff;"/>
  </g>
  <g id="pane3d_4">
   <g id="patch_7">
    <path d="M 476.380584 201.548569 
L 585.268665 133.58541 
L 583.455794 3.718968 
L 468.496488 64.782468 
" style="fill:#f2f2f2;opacity:0.5;stroke:#f2f2f2;stroke-linejoin:miter;"/>
   </g>
  </g>
  <g id="pane3d_5">
   <g id="patch_8">
    <path d="M 585.268665 133.58541 
L 761.65712 171.581202 
L 769.037001 37.79869 
L 583.455794 3.718968 
" style="fill:#e6e6e6;opacity:0.5;stroke:#e6e6e6;stroke-linejoin:miter;"/>
   </g>
  </g>
  <g id="pane3d_6">
   <g id="patch_9">
    <path d="M 476.380584 201.548569 
L 661.965072 245.80086 
L 761.65712 171.581202 
L 585.268665 133.58541 
" style="fill:#ececec;opacity:0.5;stroke:#ececec;stroke-linejoin:miter;"/>
   </g>
  </g>
  <g id="axis3d_4">
   <g id="line2d_15">
    <path d="M 476.380584 201.548569 
L 661.965072 245.80086 
" style="fill:none;stroke:#000000;stroke-linecap:square;stroke-width:0.8;"/>
   </g>
   <g id="Line3DCollection_4">
    <path d="M 498.841271 206.90428 
L 606.679397 138.19749 
L 605.9393 7.847789 
" style="fill:none;stroke:#b0b0b0;stroke-width:0.8;"/>
    <path d="M 544.057792 217.686079 
L 649.729469 147.470895 
L 651.182353 16.156123 
" style="fill:none;stroke:#b0b0b0;stroke-width:0.8;"/>
    <path d="M 590.310744 228.715013 
L 693.693551 156.941187 
L 697.435637 24.649974 
" style="fill:none;stroke:#b0b0b0;stroke-width:0.8;"/>
    <path d="M 637.636176 239.999678 
L 738.601063 166.614702 
L 744.733372 33.335625 
" style="fill:none;stroke:#b0b0b0;stroke-width:0.8;"/>
   </g>
   <g id="xtick_12">
    <g id="line2d_16">
     <path d="M 499.770538 206.312217 
L 496.979262 208.09062 
" style="fill:none;stroke:#000000;stroke-linecap:square;stroke-width:0.8;"/>
    </g>
    <g id="text_13">
     <!-- 00 -->
     <g transform="translate(479.875817 237.14703)rotate(-45)scale(0.14 -0.14)">
      <use transform="scale(0.996264)" xlink:href="#CMR17-48"/>
      <use transform="translate(45.690477 0)scale(0.996264)" xlink:href="#CMR17-48"/>
     </g>
    </g>
   </g>
   <g id="xtick_13">
    <g id="line2d_17">
     <path d="M 544.969128 217.080527 
L 542.231671 218.899473 
" style="fill:none;stroke:#000000;stroke-linecap:square;stroke-width:0.8;"/>
    </g>
    <g id="text_14">
     <!-- 01 -->
     <g transform="translate(525.088242 248.103782)rotate(-45)scale(0.14 -0.14)">
      <use transform="scale(0.996264)" xlink:href="#CMR17-48"/>
      <use transform="translate(45.690477 0)scale(0.996264)" xlink:href="#CMR17-49"/>
     </g>
    </g>
   </g>
   <g id="xtick_14">
    <g id="line2d_18">
     <path d="M 591.20308 228.095506 
L 588.522658 229.956397 
" style="fill:none;stroke:#000000;stroke-linecap:square;stroke-width:0.8;"/>
    </g>
    <g id="text_15">
     <!-- 10 -->
     <g transform="translate(571.338855 259.312128)rotate(-45)scale(0.14 -0.14)">
      <use transform="scale(0.996264)" xlink:href="#CMR17-49"/>
      <use transform="translate(45.690477 0)scale(0.996264)" xlink:href="#CMR17-48"/>
     </g>
    </g>
   </g>
   <g id="xtick_15">
    <g id="line2d_19">
     <path d="M 638.50838 239.365727 
L 635.888391 241.270032 
" style="fill:none;stroke:#000000;stroke-linecap:square;stroke-width:0.8;"/>
    </g>
    <g id="text_16">
     <!-- 11 -->
     <g transform="translate(618.66383 270.780834)rotate(-45)scale(0.14 -0.14)">
      <use transform="scale(0.996264)" xlink:href="#CMR17-49"/>
      <use transform="translate(45.690477 0)scale(0.996264)" xlink:href="#CMR17-49"/>
     </g>
    </g>
   </g>
  </g>
  <g id="axis3d_5">
   <g id="line2d_20">
    <path d="M 761.65712 171.581202 
L 661.965072 245.80086 
" style="fill:none;stroke:#000000;stroke-linecap:square;stroke-width:0.8;"/>
   </g>
   <g id="Line3DCollection_5">
    <path d="M 484.000685 56.547028 
L 491.016499 192.413474 
L 675.403872 235.795817 
" style="fill:none;stroke:#b0b0b0;stroke-width:0.8;"/>
    <path d="M 513.777478 40.730342 
L 519.168861 174.842005 
L 701.219492 216.576366 
" style="fill:none;stroke:#b0b0b0;stroke-width:0.8;"/>
    <path d="M 542.401344 25.526062 
L 546.284836 157.917404 
L 726.04244 198.095948 
" style="fill:none;stroke:#b0b0b0;stroke-width:0.8;"/>
    <path d="M 569.937971 10.899296 
L 572.420618 141.604597 
L 749.928893 180.312741 
" style="fill:none;stroke:#b0b0b0;stroke-width:0.8;"/>
   </g>
   <g id="xtick_16">
    <g id="line2d_21">
     <path d="M 673.861052 235.432825 
L 678.492943 236.522608 
" style="fill:none;stroke:#000000;stroke-linecap:square;stroke-width:0.8;"/>
    </g>
    <g id="text_17">
     <!-- 00 -->
     <g transform="translate(689.195824 248.348363)rotate(-337.5)scale(0.14 -0.14)">
      <use transform="scale(0.996264)" xlink:href="#CMR17-48"/>
      <use transform="translate(45.690477 0)scale(0.996264)" xlink:href="#CMR17-48"/>
     </g>
    </g>
   </g>
   <g id="xtick_17">
    <g id="line2d_22">
     <path d="M 699.697534 216.227463 
L 704.266725 217.274932 
" style="fill:none;stroke:#000000;stroke-linecap:square;stroke-width:0.8;"/>
    </g>
    <g id="text_18">
     <!-- 01 -->
     <g transform="translate(714.749375 228.903937)rotate(-337.5)scale(0.14 -0.14)">
      <use transform="scale(0.996264)" xlink:href="#CMR17-48"/>
      <use transform="translate(45.690477 0)scale(0.996264)" xlink:href="#CMR17-49"/>
     </g>
    </g>
   </g>
   <g id="xtick_18">
    <g id="line2d_23">
     <path d="M 724.540896 197.76033 
L 729.048738 198.767901 
" style="fill:none;stroke:#000000;stroke-linecap:square;stroke-width:0.8;"/>
    </g>
    <g id="text_19">
     <!-- 10 -->
     <g transform="translate(739.320787 210.206849)rotate(-337.5)scale(0.14 -0.14)">
      <use transform="scale(0.996264)" xlink:href="#CMR17-49"/>
      <use transform="translate(45.690477 0)scale(0.996264)" xlink:href="#CMR17-48"/>
     </g>
    </g>
   </g>
   <g id="xtick_19">
    <g id="line2d_24">
     <path d="M 748.44732 179.989663 
L 752.895146 180.959573 
" style="fill:none;stroke:#000000;stroke-linecap:square;stroke-width:0.8;"/>
    </g>
    <g id="text_20">
     <!-- 11 -->
     <g transform="translate(762.965613 192.214827)rotate(-337.5)scale(0.14 -0.14)">
      <use transform="scale(0.996264)" xlink:href="#CMR17-49"/>
      <use transform="translate(45.690477 0)scale(0.996264)" xlink:href="#CMR17-49"/>
     </g>
    </g>
   </g>
  </g>
  <g id="axis3d_6">
   <g id="line2d_25">
    <path d="M 761.65712 171.581202 
L 769.037001 37.79869 
" style="fill:none;stroke:#000000;stroke-linecap:square;stroke-width:0.8;"/>
   </g>
   <g id="text_21">
    <!-- Im[$\rho$] -->
    <defs>
     <path d="M 19.703125 60.90625 
C 19.703125 65.390625 20.90625 65.390625 28.09375 65.390625 
L 28.09375 68 
C 24.90625 67.796875 19.796875 67.796875 16.40625 67.796875 
C 13 67.796875 7.90625 67.796875 4.703125 68 
L 4.703125 65.390625 
C 11.90625 65.390625 13.09375 65.390625 13.09375 60.90625 
L 13.09375 7.078125 
C 13.09375 2.59375 11.90625 2.59375 4.703125 2.59375 
L 4.703125 0 
C 7.90625 0.1875 13 0.1875 16.40625 0.1875 
C 19.796875 0.1875 24.90625 0.1875 28.09375 0 
L 28.09375 2.59375 
C 20.90625 2.59375 19.703125 2.59375 19.703125 7.078125 
z
" id="CMR17-73"/>
     <path d="M 67.59375 30.53125 
C 67.59375 35.5625 66.703125 44 54.796875 44 
C 48 44 43.296875 39.375 41.5 33.953125 
L 41.40625 33.953125 
C 40.203125 42.1875 34.296875 44 28.703125 44 
C 20.796875 44 16.703125 37.875 15.203125 33.84375 
L 15.09375 33.84375 
L 15.09375 44 
L 3.296875 42.890625 
L 3.296875 40.28125 
C 9.203125 40.28125 10.09375 39.6875 10.09375 34.859375 
L 10.09375 6.921875 
C 10.09375 3.09375 9.703125 2.59375 3.296875 2.59375 
L 3.296875 0 
C 5.703125 0.1875 10.09375 0.1875 12.703125 0.1875 
C 15.296875 0.1875 19.796875 0.1875 22.203125 0 
L 22.203125 2.59375 
C 15.796875 2.59375 15.40625 3 15.40625 6.921875 
L 15.40625 26.21875 
C 15.40625 35.453125 21 42.390625 28 42.390625 
C 35.40625 42.390625 36.203125 35.765625 36.203125 30.9375 
L 36.203125 6.921875 
C 36.203125 3.09375 35.796875 2.59375 29.40625 2.59375 
L 29.40625 0 
C 31.796875 0.1875 36.203125 0.1875 38.796875 0.1875 
C 41.40625 0.1875 45.90625 0.1875 48.296875 0 
L 48.296875 2.59375 
C 41.90625 2.59375 41.5 3 41.5 6.921875 
L 41.5 26.21875 
C 41.5 35.453125 47.09375 42.390625 54.09375 42.390625 
C 61.5 42.390625 62.296875 35.765625 62.296875 30.9375 
L 62.296875 6.921875 
C 62.296875 3.09375 61.90625 2.59375 55.5 2.59375 
L 55.5 0 
C 57.90625 0.1875 62.296875 0.1875 64.90625 0.1875 
C 67.5 0.1875 72 0.1875 74.40625 0 
L 74.40625 2.59375 
C 68 2.59375 67.59375 3 67.59375 6.921875 
z
" id="CMR17-109"/>
    </defs>
    <g transform="translate(809.026865 118.025317)rotate(-86.842577)scale(0.14 -0.14)">
     <use transform="scale(0.996264)" xlink:href="#CMR17-73"/>
     <use transform="translate(32.638409 0)scale(0.996264)" xlink:href="#CMR17-109"/>
     <use transform="translate(109.557999 0)scale(0.996264)" xlink:href="#CMR17-91"/>
     <use transform="translate(134.429058 0)scale(0.996264)" xlink:href="#CMMI12-26"/>
     <use transform="translate(184.74343 0)scale(0.996264)" xlink:href="#CMR17-93"/>
    </g>
   </g>
   <g id="Line3DCollection_6">
    <path d="M 761.897003 167.232599 
L 585.209613 129.355194 
L 476.124737 197.110383 
" style="fill:none;stroke:#b0b0b0;stroke-width:0.8;"/>
    <path d="M 764.613458 117.9887 
L 584.541491 81.493722 
L 473.225519 146.817381 
" style="fill:none;stroke:#b0b0b0;stroke-width:0.8;"/>
    <path d="M 767.43696 66.804247 
L 583.848175 31.82747 
L 470.208155 94.474898 
" style="fill:none;stroke:#b0b0b0;stroke-width:0.8;"/>
   </g>
   <g id="xtick_20">
    <g id="line2d_26">
     <path d="M 760.422756 166.916557 
L 764.848566 167.865341 
" style="fill:none;stroke:#000000;stroke-linecap:square;stroke-width:0.8;"/>
    </g>
    <g id="text_22">
     <!-- $0.0$ -->
     <g transform="translate(771.712381 174.980029)scale(0.14 -0.14)">
      <use transform="scale(0.996264)" xlink:href="#CMR17-48"/>
      <use transform="translate(45.690477 0)scale(0.996264)" xlink:href="#CMMI12-58"/>
      <use transform="translate(72.787654 0)scale(0.996264)" xlink:href="#CMR17-48"/>
     </g>
    </g>
   </g>
   <g id="xtick_21">
    <g id="line2d_27">
     <path d="M 763.109775 117.683951 
L 767.624014 118.598847 
" style="fill:none;stroke:#000000;stroke-linecap:square;stroke-width:0.8;"/>
    </g>
    <g id="text_23">
     <!-- $0.2$ -->
     <g transform="translate(774.780431 125.805457)scale(0.14 -0.14)">
      <use transform="scale(0.996264)" xlink:href="#CMR17-48"/>
      <use transform="translate(45.690477 0)scale(0.996264)" xlink:href="#CMMI12-58"/>
      <use transform="translate(72.787654 0)scale(0.996264)" xlink:href="#CMR17-50"/>
     </g>
    </g>
   </g>
   <g id="xtick_22">
    <g id="line2d_28">
     <path d="M 765.902642 66.511933 
L 770.508914 67.389506 
" style="fill:none;stroke:#000000;stroke-linecap:square;stroke-width:0.8;"/>
    </g>
    <g id="text_24">
     <!-- $0.4$ -->
     <g transform="translate(777.969116 74.697342)scale(0.14 -0.14)">
      <use transform="scale(0.996264)" xlink:href="#CMR17-48"/>
      <use transform="translate(45.690477 0)scale(0.996264)" xlink:href="#CMMI12-58"/>
      <use transform="translate(72.787654 0)scale(0.996264)" xlink:href="#CMR17-52"/>
     </g>
    </g>
   </g>
  </g>
  <g id="axes_2">
   <g id="Poly3DCollection_18">
    <path clip-path="url(#pca12270834)" d="M 589.57551 135.712847 
L 589.59327 137.156513 
L 610.982855 141.777872 
L 610.977041 140.329236 
z
" style="fill:#0cba97;fill-opacity:0.8;"/>
    <path clip-path="url(#pca12270834)" d="M 576.785879 143.73948 
L 576.811022 145.191769 
L 589.59327 137.156513 
L 589.57551 135.712847 
z
" style="fill:#065d4c;fill-opacity:0.8;"/>
    <path clip-path="url(#pca12270834)" d="M 576.811022 145.191769 
L 598.328945 149.897959 
L 610.982855 141.777872 
L 589.59327 137.156513 
z
" style="fill:#0aa384;fill-opacity:0.8;"/>
    <path clip-path="url(#pca12270834)" d="M 576.785879 143.73948 
L 589.57551 135.712847 
L 610.977041 140.329236 
L 598.31589 148.440658 
z
" style="fill:#08745e;fill-opacity:0.8;"/>
    <path clip-path="url(#pca12270834)" d="M 598.31589 148.440658 
L 610.977041 140.329236 
L 610.982855 141.777872 
L 598.328945 149.897959 
z
" style="fill:#0cba97;fill-opacity:0.8;"/>
    <path clip-path="url(#pca12270834)" d="M 576.785879 143.73948 
L 598.31589 148.440658 
L 598.328945 149.897959 
L 576.811022 145.191769 
z
" style="fill:#065d4c;fill-opacity:0.8;"/>
   </g>
   <g id="Poly3DCollection_19">
    <path clip-path="url(#pca12270834)" d="M 632.604206 144.994296 
L 632.596408 146.769767 
L 654.437579 151.4904 
L 654.460593 149.708799 
z
" style="fill:#0cba97;fill-opacity:0.8;"/>
    <path clip-path="url(#pca12270834)" d="M 620.074983 153.191857 
L 620.075847 154.977964 
L 632.596408 146.769767 
L 632.604206 144.994296 
z
" style="fill:#065d4c;fill-opacity:0.8;"/>
    <path clip-path="url(#pca12270834)" d="M 620.075847 154.977964 
L 642.05229 159.786168 
L 654.437579 151.4904 
L 632.596408 146.769767 
z
" style="fill:#0aa384;fill-opacity:0.8;"/>
    <path clip-path="url(#pca12270834)" d="M 620.074983 153.191857 
L 632.604206 144.994296 
L 654.460593 149.708799 
L 642.066832 157.99388 
z
" style="fill:#08745e;fill-opacity:0.8;"/>
    <path clip-path="url(#pca12270834)" d="M 642.066832 157.99388 
L 654.460593 149.708799 
L 654.437579 151.4904 
L 642.05229 159.786168 
z
" style="fill:#0cba97;fill-opacity:0.8;"/>
    <path clip-path="url(#pca12270834)" d="M 620.074983 153.191857 
L 642.066832 157.99388 
L 642.05229 159.786168 
L 620.075847 154.977964 
z
" style="fill:#065d4c;fill-opacity:0.8;"/>
   </g>
   <g id="Poly3DCollection_20">
    <path clip-path="url(#pca12270834)" d="M 563.760881 151.913826 
L 563.739694 150.97001 
L 585.407209 155.755065 
L 585.420493 156.702151 
z
" style="fill:#065d4c;fill-opacity:0.8;"/>
    <path clip-path="url(#pca12270834)" d="M 550.493958 160.240002 
L 550.467645 159.290511 
L 563.739694 150.97001 
L 563.760881 151.913826 
z
" style="fill:#0cba97;fill-opacity:0.8;"/>
    <path clip-path="url(#pca12270834)" d="M 550.493958 160.240002 
L 563.760881 151.913826 
L 585.420493 156.702151 
L 572.284288 165.117919 
z
" style="fill:#08745e;fill-opacity:0.8;"/>
    <path clip-path="url(#pca12270834)" d="M 550.467645 159.290511 
L 572.265973 164.16513 
L 585.407209 155.755065 
L 563.739694 150.97001 
z
" style="fill:#0aa384;fill-opacity:0.8;"/>
    <path clip-path="url(#pca12270834)" d="M 572.284288 165.117919 
L 585.420493 156.702151 
L 585.407209 155.755065 
L 572.265973 164.16513 
z
" style="fill:#065d4c;fill-opacity:0.8;"/>
    <path clip-path="url(#pca12270834)" d="M 550.493958 160.240002 
L 572.284288 165.117919 
L 572.265973 164.16513 
L 550.467645 159.290511 
z
" style="fill:#0cba97;fill-opacity:0.8;"/>
   </g>
   <g id="Poly3DCollection_21">
    <path clip-path="url(#pca12270834)" d="M 676.549866 154.473537 
L 676.549502 154.490398 
L 698.875253 159.306236 
L 698.875767 159.289316 
z
" style="fill:#0cba97;fill-opacity:0.8;"/>
    <path clip-path="url(#pca12270834)" d="M 664.295193 162.847546 
L 664.294908 162.864509 
L 676.549502 154.490398 
L 676.549866 154.473537 
z
" style="fill:#065d4c;fill-opacity:0.8;"/>
    <path clip-path="url(#pca12270834)" d="M 664.294908 162.864509 
L 686.763464 167.770715 
L 698.875253 159.306236 
L 676.549502 154.490398 
z
" style="fill:#0aa384;fill-opacity:0.8;"/>
    <path clip-path="url(#pca12270834)" d="M 664.295193 162.847546 
L 676.549866 154.473537 
L 698.875767 159.289316 
L 686.763902 167.753693 
z
" style="fill:#08745e;fill-opacity:0.8;"/>
    <path clip-path="url(#pca12270834)" d="M 686.763902 167.753693 
L 698.875767 159.289316 
L 698.875253 159.306236 
L 686.763464 167.770715 
z
" style="fill:#0cba97;fill-opacity:0.8;"/>
    <path clip-path="url(#pca12270834)" d="M 664.295193 162.847546 
L 686.763902 167.753693 
L 686.763464 167.770715 
L 664.294908 162.864509 
z
" style="fill:#065d4c;fill-opacity:0.8;"/>
   </g>
   <g id="Poly3DCollection_22">
    <path clip-path="url(#pca12270834)" d="M 607.31271 161.541898 
L 607.31357 161.698897 
L 629.440794 166.591444 
L 629.441296 166.4339 
z
" style="fill:#0cba97;fill-opacity:0.8;"/>
    <path clip-path="url(#pca12270834)" d="M 594.310822 170.048712 
L 594.312498 170.206657 
L 607.31357 161.698897 
L 607.31271 161.541898 
z
" style="fill:#065d4c;fill-opacity:0.8;"/>
    <path clip-path="url(#pca12270834)" d="M 594.312498 170.206657 
L 616.577717 175.191741 
L 629.440794 166.591444 
L 607.31357 161.698897 
z
" style="fill:#0aa384;fill-opacity:0.8;"/>
    <path clip-path="url(#pca12270834)" d="M 594.310822 170.048712 
L 607.31271 161.541898 
L 629.441296 166.4339 
L 616.577422 175.033245 
z
" style="fill:#08745e;fill-opacity:0.8;"/>
    <path clip-path="url(#pca12270834)" d="M 616.577422 175.033245 
L 629.441296 166.4339 
L 629.440794 166.591444 
L 616.577717 175.191741 
z
" style="fill:#0cba97;fill-opacity:0.8;"/>
    <path clip-path="url(#pca12270834)" d="M 594.310822 170.048712 
L 616.577422 175.033245 
L 616.577717 175.191741 
L 594.312498 170.206657 
z
" style="fill:#065d4c;fill-opacity:0.8;"/>
   </g>
   <g id="Poly3DCollection_23">
    <path clip-path="url(#pca12270834)" d="M 721.442118 164.156962 
L 721.442118 164.156962 
L 744.252826 169.077316 
L 744.252826 169.077316 
z
" style="fill:#065d4c;fill-opacity:0.8;"/>
    <path clip-path="url(#pca12270834)" d="M 709.476877 172.713177 
L 709.476877 172.713177 
L 721.442118 164.156962 
L 721.442118 164.156962 
z
" style="fill:#065d4c;fill-opacity:0.8;"/>
    <path clip-path="url(#pca12270834)" d="M 709.476877 172.713177 
L 721.442118 164.156962 
L 744.252826 169.077316 
L 732.438124 177.726872 
z
" style="fill:#08745e;fill-opacity:0.8;"/>
    <path clip-path="url(#pca12270834)" d="M 709.476877 172.713177 
L 732.438124 177.726872 
L 744.252826 169.077316 
L 721.442118 164.156962 
z
" style="fill:#0aa384;fill-opacity:0.8;"/>
    <path clip-path="url(#pca12270834)" d="M 732.438124 177.726872 
L 744.252826 169.077316 
L 744.252826 169.077316 
L 732.438124 177.726872 
z
" style="fill:#065d4c;fill-opacity:0.8;"/>
    <path clip-path="url(#pca12270834)" d="M 709.476877 172.713177 
L 732.438124 177.726872 
L 732.438124 177.726872 
L 709.476877 172.713177 
z
" style="fill:#065d4c;fill-opacity:0.8;"/>
   </g>
   <g id="Poly3DCollection_24">
    <path clip-path="url(#pca12270834)" d="M 536.978308 168.722275 
L 536.969595 168.459116 
L 558.893983 173.428248 
L 558.900466 173.692323 
z
" style="fill:#065d4c;fill-opacity:0.8;"/>
    <path clip-path="url(#pca12270834)" d="M 523.20687 177.365079 
L 523.196638 177.10033 
L 536.969595 168.459116 
L 536.978308 168.722275 
z
" style="fill:#0cba97;fill-opacity:0.8;"/>
    <path clip-path="url(#pca12270834)" d="M 523.20687 177.365079 
L 536.978308 168.722275 
L 558.900466 173.692323 
L 545.261959 182.429893 
z
" style="fill:#08745e;fill-opacity:0.8;"/>
    <path clip-path="url(#pca12270834)" d="M 523.196638 177.10033 
L 545.253984 182.164221 
L 558.893983 173.428248 
L 536.969595 168.459116 
z
" style="fill:#0aa384;fill-opacity:0.8;"/>
    <path clip-path="url(#pca12270834)" d="M 545.261959 182.429893 
L 558.900466 173.692323 
L 558.893983 173.428248 
L 545.253984 182.164221 
z
" style="fill:#065d4c;fill-opacity:0.8;"/>
    <path clip-path="url(#pca12270834)" d="M 523.20687 177.365079 
L 545.261959 182.429893 
L 545.253984 182.164221 
L 523.196638 177.10033 
z
" style="fill:#0cba97;fill-opacity:0.8;"/>
   </g>
   <g id="Poly3DCollection_25">
    <path clip-path="url(#pca12270834)" d="M 651.810102 171.379007 
L 651.810102 171.379007 
L 674.423061 176.378089 
L 674.423061 176.378089 
z
" style="fill:#065d4c;fill-opacity:0.8;"/>
    <path clip-path="url(#pca12270834)" d="M 639.088033 180.072403 
L 639.088033 180.072403 
L 651.810102 171.379007 
L 651.810102 171.379007 
z
" style="fill:#065d4c;fill-opacity:0.8;"/>
    <path clip-path="url(#pca12270834)" d="M 639.088033 180.072403 
L 651.810102 171.379007 
L 674.423061 176.378089 
L 661.846689 185.167086 
z
" style="fill:#08745e;fill-opacity:0.8;"/>
    <path clip-path="url(#pca12270834)" d="M 639.088033 180.072403 
L 661.846689 185.167086 
L 674.423061 176.378089 
L 651.810102 171.379007 
z
" style="fill:#0aa384;fill-opacity:0.8;"/>
    <path clip-path="url(#pca12270834)" d="M 661.846689 185.167086 
L 674.423061 176.378089 
L 674.423061 176.378089 
L 661.846689 185.167086 
z
" style="fill:#065d4c;fill-opacity:0.8;"/>
    <path clip-path="url(#pca12270834)" d="M 639.088033 180.072403 
L 661.846689 185.167086 
L 661.846689 185.167086 
L 639.088033 180.072403 
z
" style="fill:#065d4c;fill-opacity:0.8;"/>
   </g>
   <g id="Poly3DCollection_26">
    <path clip-path="url(#pca12270834)" d="M 581.062509 178.716757 
L 581.062509 178.716757 
L 603.468396 183.796472 
L 603.468396 183.796472 
z
" style="fill:#065d4c;fill-opacity:0.8;"/>
    <path clip-path="url(#pca12270834)" d="M 567.560697 187.550659 
L 567.560697 187.550659 
L 581.062509 178.716757 
L 581.062509 178.716757 
z
" style="fill:#065d4c;fill-opacity:0.8;"/>
    <path clip-path="url(#pca12270834)" d="M 567.560697 187.550659 
L 590.107143 192.72831 
L 603.468396 183.796472 
L 581.062509 178.716757 
z
" style="fill:#0aa384;fill-opacity:0.8;"/>
    <path clip-path="url(#pca12270834)" d="M 567.560697 187.550659 
L 581.062509 178.716757 
L 603.468396 183.796472 
L 590.107143 192.72831 
z
" style="fill:#08745e;fill-opacity:0.8;"/>
    <path clip-path="url(#pca12270834)" d="M 590.107143 192.72831 
L 603.468396 183.796472 
L 603.468396 183.796472 
L 590.107143 192.72831 
z
" style="fill:#065d4c;fill-opacity:0.8;"/>
    <path clip-path="url(#pca12270834)" d="M 567.560697 187.550659 
L 590.107143 192.72831 
L 590.107143 192.72831 
L 567.560697 187.550659 
z
" style="fill:#065d4c;fill-opacity:0.8;"/>
   </g>
   <g id="Poly3DCollection_27">
    <path clip-path="url(#pca12270834)" d="M 697.284191 181.432035 
L 697.284706 181.414851 
L 720.398276 186.524509 
L 720.397601 186.541753 
z
" style="fill:#065d4c;fill-opacity:0.8;"/>
    <path clip-path="url(#pca12270834)" d="M 684.857512 190.31822 
L 684.857947 190.300931 
L 697.284706 181.414851 
L 697.284191 181.432035 
z
" style="fill:#0cba97;fill-opacity:0.8;"/>
    <path clip-path="url(#pca12270834)" d="M 684.857512 190.31822 
L 697.284191 181.432035 
L 720.397601 186.541753 
L 708.124717 195.526746 
z
" style="fill:#08745e;fill-opacity:0.8;"/>
    <path clip-path="url(#pca12270834)" d="M 684.857947 190.300931 
L 708.125314 195.509397 
L 720.398276 186.524509 
L 697.284706 181.414851 
z
" style="fill:#0aa384;fill-opacity:0.8;"/>
    <path clip-path="url(#pca12270834)" d="M 708.124717 195.526746 
L 720.397601 186.541753 
L 720.398276 186.524509 
L 708.125314 195.509397 
z
" style="fill:#065d4c;fill-opacity:0.8;"/>
    <path clip-path="url(#pca12270834)" d="M 684.857512 190.31822 
L 708.124717 195.526746 
L 708.125314 195.509397 
L 684.857947 190.300931 
z
" style="fill:#0cba97;fill-opacity:0.8;"/>
   </g>
   <g id="Poly3DCollection_28">
    <path clip-path="url(#pca12270834)" d="M 509.172313 186.173014 
L 509.172313 186.173014 
L 531.361428 191.33533 
L 531.361428 191.33533 
z
" style="fill:#065d4c;fill-opacity:0.8;"/>
    <path clip-path="url(#pca12270834)" d="M 494.867023 195.150857 
L 494.867023 195.150857 
L 509.172313 186.173014 
L 509.172313 186.173014 
z
" style="fill:#065d4c;fill-opacity:0.8;"/>
    <path clip-path="url(#pca12270834)" d="M 494.867023 195.150857 
L 509.172313 186.173014 
L 531.361428 191.33533 
L 517.191248 200.413518 
z
" style="fill:#08745e;fill-opacity:0.8;"/>
    <path clip-path="url(#pca12270834)" d="M 494.867023 195.150857 
L 517.191248 200.413518 
L 531.361428 191.33533 
L 509.172313 186.173014 
z
" style="fill:#0aa384;fill-opacity:0.8;"/>
    <path clip-path="url(#pca12270834)" d="M 517.191248 200.413518 
L 531.361428 191.33533 
L 531.361428 191.33533 
L 517.191248 200.413518 
z
" style="fill:#065d4c;fill-opacity:0.8;"/>
    <path clip-path="url(#pca12270834)" d="M 494.867023 195.150857 
L 517.191248 200.413518 
L 517.191248 200.413518 
L 494.867023 195.150857 
z
" style="fill:#065d4c;fill-opacity:0.8;"/>
   </g>
   <g id="Poly3DCollection_29">
    <path clip-path="url(#pca12270834)" d="M 626.122173 188.932388 
L 626.122478 188.772358 
L 649.029743 193.964852 
L 649.027978 194.125442 
z
" style="fill:#065d4c;fill-opacity:0.8;"/>
    <path clip-path="url(#pca12270834)" d="M 612.905448 197.963798 
L 612.90491 197.802797 
L 626.122478 188.772358 
L 626.122173 188.932388 
z
" style="fill:#0cba97;fill-opacity:0.8;"/>
    <path clip-path="url(#pca12270834)" d="M 612.905448 197.963798 
L 626.122173 188.932388 
L 649.027978 194.125442 
L 635.959855 203.258099 
z
" style="fill:#08745e;fill-opacity:0.8;"/>
    <path clip-path="url(#pca12270834)" d="M 612.90491 197.802797 
L 635.960797 203.096534 
L 649.029743 193.964852 
L 626.122478 188.772358 
z
" style="fill:#0aa384;fill-opacity:0.8;"/>
    <path clip-path="url(#pca12270834)" d="M 635.959855 203.258099 
L 649.027978 194.125442 
L 649.029743 193.964852 
L 635.960797 203.096534 
z
" style="fill:#065d4c;fill-opacity:0.8;"/>
    <path clip-path="url(#pca12270834)" d="M 612.905448 197.963798 
L 635.959855 203.258099 
L 635.960797 203.096534 
L 612.90491 197.802797 
z
" style="fill:#0cba97;fill-opacity:0.8;"/>
   </g>
   <g id="Poly3DCollection_30">
    <path clip-path="url(#pca12270834)" d="M 553.79804 196.555226 
L 553.805227 196.823386 
L 576.491112 202.10277 
L 576.486313 201.833671 
z
" style="fill:#0cba97;fill-opacity:0.8;"/>
    <path clip-path="url(#pca12270834)" d="M 539.766905 205.735451 
L 539.775671 206.005239 
L 553.805227 196.823386 
L 553.79804 196.555226 
z
" style="fill:#065d4c;fill-opacity:0.8;"/>
    <path clip-path="url(#pca12270834)" d="M 539.775671 206.005239 
L 562.604614 211.388398 
L 576.491112 202.10277 
L 553.805227 196.823386 
z
" style="fill:#0aa384;fill-opacity:0.8;"/>
    <path clip-path="url(#pca12270834)" d="M 539.766905 205.735451 
L 553.79804 196.555226 
L 576.486313 201.833671 
L 562.598267 211.117664 
z
" style="fill:#08745e;fill-opacity:0.8;"/>
    <path clip-path="url(#pca12270834)" d="M 562.598267 211.117664 
L 576.486313 201.833671 
L 576.491112 202.10277 
L 562.604614 211.388398 
z
" style="fill:#0cba97;fill-opacity:0.8;"/>
    <path clip-path="url(#pca12270834)" d="M 539.766905 205.735451 
L 562.598267 211.117664 
L 562.604614 211.388398 
L 539.775671 206.005239 
z
" style="fill:#065d4c;fill-opacity:0.8;"/>
   </g>
   <g id="Poly3DCollection_31">
    <path clip-path="url(#pca12270834)" d="M 672.190039 199.376593 
L 672.227378 197.529815 
L 695.667517 202.833566 
L 695.612682 204.686821 
z
" style="fill:#065d4c;fill-opacity:0.8;"/>
    <path clip-path="url(#pca12270834)" d="M 659.274705 208.612209 
L 659.302838 206.754194 
L 672.227378 197.529815 
L 672.190039 199.376593 
z
" style="fill:#0cba97;fill-opacity:0.8;"/>
    <path clip-path="url(#pca12270834)" d="M 659.274705 208.612209 
L 672.190039 199.376593 
L 695.612682 204.686821 
L 682.854436 214.027147 
z
" style="fill:#08745e;fill-opacity:0.8;"/>
    <path clip-path="url(#pca12270834)" d="M 659.302838 206.754194 
L 682.900303 212.162606 
L 695.667517 202.833566 
L 672.227378 197.529815 
z
" style="fill:#0aa384;fill-opacity:0.8;"/>
    <path clip-path="url(#pca12270834)" d="M 682.854436 214.027147 
L 695.612682 204.686821 
L 695.667517 202.833566 
L 682.900303 212.162606 
z
" style="fill:#065d4c;fill-opacity:0.8;"/>
    <path clip-path="url(#pca12270834)" d="M 659.274705 208.612209 
L 682.854436 214.027147 
L 682.900303 212.162606 
L 659.302838 206.754194 
z
" style="fill:#0cba97;fill-opacity:0.8;"/>
   </g>
   <g id="Poly3DCollection_32">
    <path clip-path="url(#pca12270834)" d="M 599.430505 207.171657 
L 599.439051 208.151304 
L 622.634452 213.553276 
L 622.63497 212.570195 
z
" style="fill:#0cba97;fill-opacity:0.8;"/>
    <path clip-path="url(#pca12270834)" d="M 585.689703 216.561185 
L 585.703752 217.54679 
L 599.439051 208.151304 
L 599.430505 207.171657 
z
" style="fill:#065d4c;fill-opacity:0.8;"/>
    <path clip-path="url(#pca12270834)" d="M 585.703752 217.54679 
L 609.050547 223.056134 
L 622.634452 213.553276 
L 599.439051 208.151304 
z
" style="fill:#0aa384;fill-opacity:0.8;"/>
    <path clip-path="url(#pca12270834)" d="M 585.689703 216.561185 
L 599.430505 207.171657 
L 622.63497 212.570195 
L 609.045681 222.067069 
z
" style="fill:#08745e;fill-opacity:0.8;"/>
    <path clip-path="url(#pca12270834)" d="M 609.045681 222.067069 
L 622.63497 212.570195 
L 622.634452 213.553276 
L 609.050547 223.056134 
z
" style="fill:#0cba97;fill-opacity:0.8;"/>
    <path clip-path="url(#pca12270834)" d="M 585.689703 216.561185 
L 609.045681 222.067069 
L 609.050547 223.056134 
L 585.703752 217.54679 
z
" style="fill:#065d4c;fill-opacity:0.8;"/>
   </g>
   <g id="Poly3DCollection_33">
    <path clip-path="url(#pca12270834)" d="M 646.104164 218.030322 
L 646.11935 216.500241 
L 669.87254 222.017636 
L 669.84264 223.553098 
z
" style="fill:#065d4c;fill-opacity:0.8;"/>
    <path clip-path="url(#pca12270834)" d="M 632.670774 227.636394 
L 632.677801 226.096979 
L 646.11935 216.500241 
L 646.104164 218.030322 
z
" style="fill:#0cba97;fill-opacity:0.8;"/>
    <path clip-path="url(#pca12270834)" d="M 632.670774 227.636394 
L 646.104164 218.030322 
L 669.84264 223.553098 
L 656.569661 233.270262 
z
" style="fill:#08745e;fill-opacity:0.8;"/>
    <path clip-path="url(#pca12270834)" d="M 632.677801 226.096979 
L 656.5916 231.725427 
L 669.87254 222.017636 
L 646.11935 216.500241 
z
" style="fill:#0aa384;fill-opacity:0.8;"/>
    <path clip-path="url(#pca12270834)" d="M 656.569661 233.270262 
L 669.84264 223.553098 
L 669.87254 222.017636 
L 656.5916 231.725427 
z
" style="fill:#065d4c;fill-opacity:0.8;"/>
    <path clip-path="url(#pca12270834)" d="M 632.670774 227.636394 
L 656.569661 233.270262 
L 656.5916 231.725427 
L 632.677801 226.096979 
z
" style="fill:#0cba97;fill-opacity:0.8;"/>
   </g>
   <g id="Poly3DCollection_34">
    <path clip-path="url(#pca12270834)" d="M 482.023586 196.493652 
L 660.311304 238.718873 
L 756.359372 167.811564 
L 586.574942 131.343396 
z
" style="fill-opacity:0.2;"/>
   </g>
  </g>
 </g>
 <defs>
  <clipPath id="p63f181d70f">
   <rect height="277.2" width="380.454545" x="-30.6" y="-14.4"/>
  </clipPath>
  <clipPath id="pca12270834">
   <rect height="277.2" width="380.454545" x="425.945455" y="-14.4"/>
  </clipPath>
 </defs>
</svg>
