<?xml version="1.0" encoding="utf-8" standalone="no"?>
<!DOCTYPE svg PUBLIC "-//W3C//DTD SVG 1.1//EN"
  "http://www.w3.org/Graphics/SVG/1.1/DTD/svg11.dtd">
<!-- Created with matplotlib (https://matplotlib.org/) -->
<svg height="302.4pt" version="1.1" viewBox="0 0 820.8 302.4" width="820.8pt" xmlns="http://www.w3.org/2000/svg" xmlns:xlink="http://www.w3.org/1999/xlink">
 <defs>
  <style type="text/css">
*{stroke-linecap:butt;stroke-linejoin:round;}
  </style>
 </defs>
 <g id="figure_1">
  <g id="patch_1">
   <path d="M 0 302.4 
L 820.8 302.4 
L 820.8 0 
L 0 0 
z
" style="fill:#ffffff;"/>
  </g>
  <g id="patch_2">
   <path d="M -30.6 262.8 
L 349.854545 262.8 
L 349.854545 -14.4 
L -30.6 -14.4 
z
" style="fill:#ffffff;"/>
  </g>
  <g id="pane3d_1">
   <g id="patch_3">
    <path d="M 19.835129 201.548569 
L 128.723211 133.58541 
L 126.910339 3.718968 
L 11.951034 64.782468 
" style="fill:#f2f2f2;opacity:0.5;stroke:#f2f2f2;stroke-linejoin:miter;"/>
   </g>
  </g>
  <g id="pane3d_2">
   <g id="patch_4">
    <path d="M 128.723211 133.58541 
L 305.111665 171.581202 
L 312.491547 37.79869 
L 126.910339 3.718968 
" style="fill:#e6e6e6;opacity:0.5;stroke:#e6e6e6;stroke-linejoin:miter;"/>
   </g>
  </g>
  <g id="pane3d_3">
   <g id="patch_5">
    <path d="M 19.835129 201.548569 
L 205.419617 245.80086 
L 305.111665 171.581202 
L 128.723211 133.58541 
" style="fill:#ececec;opacity:0.5;stroke:#ececec;stroke-linejoin:miter;"/>
   </g>
  </g>
  <g id="axis3d_1">
   <g id="line2d_1">
    <path d="M 19.835129 201.548569 
L 205.419617 245.80086 
" style="fill:none;stroke:#000000;stroke-linecap:square;stroke-width:0.8;"/>
   </g>
   <g id="Line3DCollection_1">
    <path d="M 42.295817 206.90428 
L 150.133942 138.19749 
L 149.393845 7.847789 
" style="fill:none;stroke:#b0b0b0;stroke-width:0.8;"/>
    <path d="M 87.512337 217.686079 
L 193.184014 147.470895 
L 194.636898 16.156123 
" style="fill:none;stroke:#b0b0b0;stroke-width:0.8;"/>
    <path d="M 133.765289 228.715013 
L 237.148096 156.941187 
L 240.890183 24.649974 
" style="fill:none;stroke:#b0b0b0;stroke-width:0.8;"/>
    <path d="M 181.090721 239.999678 
L 282.055608 166.614702 
L 288.187917 33.335625 
" style="fill:none;stroke:#b0b0b0;stroke-width:0.8;"/>
   </g>
   <g id="xtick_1">
    <g id="line2d_2">
     <path d="M 43.225084 206.312217 
L 40.433807 208.09062 
" style="fill:none;stroke:#000000;stroke-linecap:square;stroke-width:0.8;"/>
    </g>
    <g id="text_1">
     <!-- 00 -->
     <defs>
      <path d="M 42 31.84375 
C 42 37.96875 41.90625 48.421875 37.703125 56.453125 
C 34 63.484375 28.09375 66 22.90625 66 
C 18.09375 66 12 63.78125 8.203125 56.5625 
C 4.203125 49.015625 3.796875 39.671875 3.796875 31.84375 
C 3.796875 26.109375 3.90625 17.375 7 9.734375 
C 11.296875 -0.609375 19 -2 22.90625 -2 
C 27.5 -2 34.5 -0.109375 38.59375 9.4375 
C 41.59375 16.375 42 24.5 42 31.84375 
z
M 22.90625 -0.40625 
C 16.5 -0.40625 12.703125 5.125 11.296875 12.75 
C 10.203125 18.6875 10.203125 27.328125 10.203125 32.953125 
C 10.203125 40.6875 10.203125 47.109375 11.5 53.234375 
C 13.40625 61.78125 19 64.390625 22.90625 64.390625 
C 27 64.390625 32.296875 61.671875 34.203125 53.4375 
C 35.5 47.71875 35.59375 40.984375 35.59375 32.953125 
C 35.59375 26.421875 35.59375 18.375 34.40625 12.453125 
C 32.296875 1.5 26.40625 -0.40625 22.90625 -0.40625 
z
" id="CMR17-48"/>
     </defs>
     <g transform="translate(23.330362 237.14703)rotate(-45)scale(0.14 -0.14)">
      <use transform="scale(0.996264)" xlink:href="#CMR17-48"/>
      <use transform="translate(45.690477 0)scale(0.996264)" xlink:href="#CMR17-48"/>
     </g>
    </g>
   </g>
   <g id="xtick_2">
    <g id="line2d_3">
     <path d="M 88.423674 217.080527 
L 85.686217 218.899473 
" style="fill:none;stroke:#000000;stroke-linecap:square;stroke-width:0.8;"/>
    </g>
    <g id="text_2">
     <!-- 01 -->
     <defs>
      <path d="M 26.59375 63.796875 
C 26.59375 65.890625 26.5 66 25.09375 66 
C 21.203125 61.359375 15.296875 59.890625 9.703125 59.6875 
C 9.40625 59.6875 8.90625 59.6875 8.796875 59.5 
C 8.703125 59.296875 8.703125 59.09375 8.703125 57 
C 11.796875 57 17 57.59375 21 59.984375 
L 21 7.296875 
C 21 3.796875 20.796875 2.59375 12.203125 2.59375 
L 9.203125 2.59375 
L 9.203125 0 
C 14 0.09375 19 0.1875 23.796875 0.1875 
C 28.59375 0.1875 33.59375 0.09375 38.40625 0 
L 38.40625 2.59375 
L 35.40625 2.59375 
C 26.796875 2.59375 26.59375 3.6875 26.59375 7.296875 
z
" id="CMR17-49"/>
     </defs>
     <g transform="translate(68.542787 248.103782)rotate(-45)scale(0.14 -0.14)">
      <use transform="scale(0.996264)" xlink:href="#CMR17-48"/>
      <use transform="translate(45.690477 0)scale(0.996264)" xlink:href="#CMR17-49"/>
     </g>
    </g>
   </g>
   <g id="xtick_3">
    <g id="line2d_4">
     <path d="M 134.657625 228.095506 
L 131.977203 229.956397 
" style="fill:none;stroke:#000000;stroke-linecap:square;stroke-width:0.8;"/>
    </g>
    <g id="text_3">
     <!-- 10 -->
     <g transform="translate(114.7934 259.312128)rotate(-45)scale(0.14 -0.14)">
      <use transform="scale(0.996264)" xlink:href="#CMR17-49"/>
      <use transform="translate(45.690477 0)scale(0.996264)" xlink:href="#CMR17-48"/>
     </g>
    </g>
   </g>
   <g id="xtick_4">
    <g id="line2d_5">
     <path d="M 181.962926 239.365727 
L 179.342936 241.270032 
" style="fill:none;stroke:#000000;stroke-linecap:square;stroke-width:0.8;"/>
    </g>
    <g id="text_4">
     <!-- 11 -->
     <g transform="translate(162.118375 270.780834)rotate(-45)scale(0.14 -0.14)">
      <use transform="scale(0.996264)" xlink:href="#CMR17-49"/>
      <use transform="translate(45.690477 0)scale(0.996264)" xlink:href="#CMR17-49"/>
     </g>
    </g>
   </g>
  </g>
  <g id="axis3d_2">
   <g id="line2d_6">
    <path d="M 305.111665 171.581202 
L 205.419617 245.80086 
" style="fill:none;stroke:#000000;stroke-linecap:square;stroke-width:0.8;"/>
   </g>
   <g id="Line3DCollection_2">
    <path d="M 27.455231 56.547028 
L 34.471044 192.413474 
L 218.858418 235.795817 
" style="fill:none;stroke:#b0b0b0;stroke-width:0.8;"/>
    <path d="M 57.232024 40.730342 
L 62.623407 174.842005 
L 244.674037 216.576366 
" style="fill:none;stroke:#b0b0b0;stroke-width:0.8;"/>
    <path d="M 85.85589 25.526062 
L 89.739382 157.917404 
L 269.496985 198.095948 
" style="fill:none;stroke:#b0b0b0;stroke-width:0.8;"/>
    <path d="M 113.392516 10.899296 
L 115.875164 141.604597 
L 293.383438 180.312741 
" style="fill:none;stroke:#b0b0b0;stroke-width:0.8;"/>
   </g>
   <g id="xtick_5">
    <g id="line2d_7">
     <path d="M 217.315598 235.432825 
L 221.947489 236.522608 
" style="fill:none;stroke:#000000;stroke-linecap:square;stroke-width:0.8;"/>
    </g>
    <g id="text_5">
     <!-- 00 -->
     <g transform="translate(232.650369 248.348363)rotate(-337.5)scale(0.14 -0.14)">
      <use transform="scale(0.996264)" xlink:href="#CMR17-48"/>
      <use transform="translate(45.690477 0)scale(0.996264)" xlink:href="#CMR17-48"/>
     </g>
    </g>
   </g>
   <g id="xtick_6">
    <g id="line2d_8">
     <path d="M 243.15208 216.227463 
L 247.72127 217.274932 
" style="fill:none;stroke:#000000;stroke-linecap:square;stroke-width:0.8;"/>
    </g>
    <g id="text_6">
     <!-- 01 -->
     <g transform="translate(258.203921 228.903937)rotate(-337.5)scale(0.14 -0.14)">
      <use transform="scale(0.996264)" xlink:href="#CMR17-48"/>
      <use transform="translate(45.690477 0)scale(0.996264)" xlink:href="#CMR17-49"/>
     </g>
    </g>
   </g>
   <g id="xtick_7">
    <g id="line2d_9">
     <path d="M 267.995442 197.76033 
L 272.503283 198.767901 
" style="fill:none;stroke:#000000;stroke-linecap:square;stroke-width:0.8;"/>
    </g>
    <g id="text_7">
     <!-- 10 -->
     <g transform="translate(282.775332 210.206849)rotate(-337.5)scale(0.14 -0.14)">
      <use transform="scale(0.996264)" xlink:href="#CMR17-49"/>
      <use transform="translate(45.690477 0)scale(0.996264)" xlink:href="#CMR17-48"/>
     </g>
    </g>
   </g>
   <g id="xtick_8">
    <g id="line2d_10">
     <path d="M 291.901865 179.989663 
L 296.349691 180.959573 
" style="fill:none;stroke:#000000;stroke-linecap:square;stroke-width:0.8;"/>
    </g>
    <g id="text_8">
     <!-- 11 -->
     <g transform="translate(306.420159 192.214827)rotate(-337.5)scale(0.14 -0.14)">
      <use transform="scale(0.996264)" xlink:href="#CMR17-49"/>
      <use transform="translate(45.690477 0)scale(0.996264)" xlink:href="#CMR17-49"/>
     </g>
    </g>
   </g>
  </g>
  <g id="axis3d_3">
   <g id="line2d_11">
    <path d="M 305.111665 171.581202 
L 312.491547 37.79869 
" style="fill:none;stroke:#000000;stroke-linecap:square;stroke-width:0.8;"/>
   </g>
   <g id="text_9">
    <!-- Re[$\rho$] -->
    <defs>
     <path d="M 39.203125 33.6875 
C 48.703125 35.59375 56.703125 42.015625 56.703125 50.046875 
C 56.703125 59.46875 46.09375 68 32.09375 68 
L 5.203125 68 
L 5.203125 65.390625 
C 12.09375 65.390625 13.203125 65.390625 13.203125 60.875 
L 13.203125 6.6875 
C 13.203125 2.1875 12.09375 2.1875 5.203125 2.1875 
L 5.203125 -0.40625 
C 8.09375 -0.203125 13.296875 -0.203125 16.40625 -0.203125 
C 19.5 -0.203125 24.703125 -0.203125 27.59375 -0.40625 
L 27.59375 2.1875 
C 20.703125 2.1875 19.59375 2.1875 19.59375 6.6875 
L 19.59375 33 
L 31.296875 33 
C 37 33 40.203125 30.6875 41.59375 29.390625 
C 45.59375 25.5 45.59375 22.796875 45.59375 16 
C 45.59375 9.296875 45.59375 5.890625 48.59375 2.5 
C 52.40625 -1.609375 57.5 -2 59.703125 -2 
C 67.09375 -2 68.203125 6.296875 68.203125 8 
C 68.203125 8.59375 68.203125 9.296875 67.296875 9.296875 
C 66.5 9.296875 66.40625 8.6875 66.40625 8.296875 
C 65.90625 1.796875 63 -0.40625 59.90625 -0.40625 
C 54.40625 -0.40625 53.796875 5.890625 53.203125 12 
C 52.90625 14.09375 52.703125 15.59375 52.5 17.796875 
C 51.90625 22.796875 51.09375 30.09375 39.203125 33.6875 
z
M 31 34.59375 
L 19.59375 34.59375 
L 19.59375 61.484375 
C 19.59375 64.890625 19.796875 65.390625 23.796875 65.390625 
L 31.09375 65.390625 
C 39.40625 65.390625 49.09375 62.484375 49.09375 50.046875 
C 49.09375 37.09375 38.5 34.59375 31 34.59375 
z
" id="CMR17-82"/>
     <path d="M 38.09375 23.484375 
C 38.5 23.890625 38.5 24.09375 38.5 25.09375 
C 38.5 35.171875 33.09375 44 21.703125 44 
C 11.09375 44 2.703125 33.984375 2.703125 21.78125 
C 2.703125 8.65625 12.203125 -1 22.796875 -1 
C 34 -1 38.40625 9.671875 38.40625 11.796875 
C 38.40625 12.5 37.796875 12.5 37.59375 12.5 
C 36.90625 12.5 36.796875 12.296875 36.40625 11.078125 
C 34.203125 4.21875 28.703125 0.796875 23.5 0.796875 
C 19.203125 0.796875 14.90625 3.21875 12.203125 7.65625 
C 9.09375 12.796875 9.09375 18.75 9.09375 23.484375 
z
M 9.203125 25 
C 9.90625 39.234375 17.59375 42.390625 21.59375 42.390625 
C 28.40625 42.390625 33 36.0625 33.09375 25 
z
" id="CMR17-101"/>
     <path d="M 23.5 -25 
L 23.5 -21.5 
L 14.09375 -21.5 
L 14.09375 71.484375 
L 23.5 71.484375 
L 23.5 75 
L 10.59375 75 
L 10.59375 -25 
z
" id="CMR17-91"/>
     <path d="M 3.09375 -16.953125 
C 3 -17.4375 2.796875 -18.03125 2.796875 -18.609375 
C 2.796875 -20.109375 4 -21.109375 5.5 -21.109375 
C 7 -21.109375 8.40625 -20.109375 9 -18.71875 
C 9.40625 -17.828125 12.203125 -6.09375 15.40625 6.078125 
C 17.40625 1.09375 21.09375 -1 25 -1 
C 36.296875 -1 49.09375 12.96875 49.09375 28.03125 
C 49.09375 38.703125 42.59375 44 35.703125 44 
C 26.90625 44 16.203125 34.90625 12.90625 21.640625 
z
M 24.90625 1 
C 18.09375 1 16.40625 8.875 16.40625 10.078125 
C 16.40625 10.671875 18.90625 20.140625 19.203125 21.640625 
C 24.296875 41.5 34.09375 41.984375 35.59375 41.984375 
C 40.09375 41.984375 42.59375 37.90625 42.59375 32.015625 
C 42.59375 26.9375 39.90625 17.046875 38.203125 12.859375 
C 35.203125 5.984375 30 1 24.90625 1 
z
" id="CMMI12-26"/>
     <path d="M 14.296875 75 
L 1.40625 75 
L 1.40625 71.484375 
L 10.796875 71.484375 
L 10.796875 -21.5 
L 1.40625 -21.5 
L 1.40625 -25 
L 14.296875 -25 
z
" id="CMR17-93"/>
    </defs>
    <g transform="translate(352.486567 117.931831)rotate(-86.842577)scale(0.14 -0.14)">
     <use transform="scale(0.996264)" xlink:href="#CMR17-82"/>
     <use transform="translate(67.791102 0)scale(0.996264)" xlink:href="#CMR17-101"/>
     <use transform="translate(108.276762 0)scale(0.996264)" xlink:href="#CMR17-91"/>
     <use transform="translate(133.147821 0)scale(0.996264)" xlink:href="#CMMI12-26"/>
     <use transform="translate(183.462194 0)scale(0.996264)" xlink:href="#CMR17-93"/>
    </g>
   </g>
   <g id="Line3DCollection_3">
    <path d="M 305.312172 167.94642 
L 128.673852 130.04954 
L 19.621282 197.838943 
" style="fill:none;stroke:#b0b0b0;stroke-width:0.8;"/>
    <path d="M 306.82578 140.507719 
L 128.301433 103.371033 
L 18.00632 169.824054 
" style="fill:none;stroke:#b0b0b0;stroke-width:0.8;"/>
    <path d="M 308.372346 112.471572 
L 127.921249 76.136257 
L 16.355016 141.178744 
" style="fill:none;stroke:#b0b0b0;stroke-width:0.8;"/>
    <path d="M 309.952957 83.818251 
L 127.533054 48.327633 
L 14.66613 111.88149 
" style="fill:none;stroke:#b0b0b0;stroke-width:0.8;"/>
    <path d="M 311.56875 54.527151 
L 127.136593 19.92683 
L 12.938364 81.909778 
" style="fill:none;stroke:#b0b0b0;stroke-width:0.8;"/>
   </g>
   <g id="xtick_9">
    <g id="line2d_12">
     <path d="M 303.838351 167.630219 
L 308.26288 168.57948 
" style="fill:none;stroke:#000000;stroke-linecap:square;stroke-width:0.8;"/>
    </g>
    <g id="text_10">
     <!-- $0.0$ -->
     <defs>
      <path d="M 18.40625 4.796875 
C 18.40625 7.6875 16 9.6875 13.59375 9.6875 
C 10.703125 9.6875 8.703125 7.296875 8.703125 4.890625 
C 8.703125 2 11.09375 0 13.5 0 
C 16.40625 0 18.40625 2.390625 18.40625 4.796875 
z
" id="CMMI12-58"/>
     </defs>
     <g transform="translate(315.122451 175.692875)scale(0.14 -0.14)">
      <use transform="scale(0.996264)" xlink:href="#CMR17-48"/>
      <use transform="translate(45.690477 0)scale(0.996264)" xlink:href="#CMMI12-58"/>
      <use transform="translate(72.787654 0)scale(0.996264)" xlink:href="#CMR17-48"/>
     </g>
    </g>
   </g>
   <g id="xtick_10">
    <g id="line2d_13">
     <path d="M 305.335563 140.197723 
L 309.80935 141.128362 
" style="fill:none;stroke:#000000;stroke-linecap:square;stroke-width:0.8;"/>
    </g>
    <g id="text_11">
     <!-- $0.1$ -->
     <g transform="translate(316.832002 148.292271)scale(0.14 -0.14)">
      <use transform="scale(0.996264)" xlink:href="#CMR17-48"/>
      <use transform="translate(45.690477 0)scale(0.996264)" xlink:href="#CMMI12-58"/>
      <use transform="translate(72.787654 0)scale(0.996264)" xlink:href="#CMR17-49"/>
     </g>
    </g>
   </g>
   <g id="xtick_11">
    <g id="line2d_14">
     <path d="M 306.865363 112.168128 
L 311.389517 113.079104 
" style="fill:none;stroke:#000000;stroke-linecap:square;stroke-width:0.8;"/>
    </g>
    <g id="text_12">
     <!-- $0.2$ -->
     <defs>
      <path d="M 41.703125 15.46875 
L 39.90625 15.46875 
C 38.90625 8.390625 38.09375 7.1875 37.703125 6.59375 
C 37.203125 5.796875 30 5.796875 28.59375 5.796875 
L 9.40625 5.796875 
C 13 9.6875 20 16.765625 28.5 24.9375 
C 34.59375 30.71875 41.703125 37.5 41.703125 47.390625 
C 41.703125 59.1875 32.296875 66 21.796875 66 
C 10.796875 66 4.09375 56.296875 4.09375 47.296875 
C 4.09375 43.390625 7 42.890625 8.203125 42.890625 
C 9.203125 42.890625 12.203125 43.484375 12.203125 46.984375 
C 12.203125 50.09375 9.59375 51 8.203125 51 
C 7.59375 51 7 50.890625 6.59375 50.6875 
C 8.5 59.1875 14.296875 63.390625 20.40625 63.390625 
C 29.09375 63.390625 34.796875 56.5 34.796875 47.390625 
C 34.796875 38.703125 29.703125 31.21875 24 24.734375 
L 4.09375 2.296875 
L 4.09375 0 
L 39.296875 0 
z
" id="CMR17-50"/>
     </defs>
     <g transform="translate(318.578695 120.296347)scale(0.14 -0.14)">
      <use transform="scale(0.996264)" xlink:href="#CMR17-48"/>
      <use transform="translate(45.690477 0)scale(0.996264)" xlink:href="#CMMI12-58"/>
      <use transform="translate(72.787654 0)scale(0.996264)" xlink:href="#CMR17-50"/>
     </g>
    </g>
   </g>
   <g id="xtick_12">
    <g id="line2d_15">
     <path d="M 308.428827 83.521725 
L 313.004494 84.411941 
" style="fill:none;stroke:#000000;stroke-linecap:square;stroke-width:0.8;"/>
    </g>
    <g id="text_13">
     <!-- $0.3$ -->
     <defs>
      <path d="M 22.09375 34 
C 31 34 34.90625 26.140625 34.90625 17.09375 
C 34.90625 5.03125 28.5 0.390625 22.703125 0.390625 
C 17.40625 0.390625 8.796875 3.015625 6.09375 10.796875 
C 6.59375 10.59375 7.09375 10.59375 7.59375 10.59375 
C 10 10.59375 11.796875 12.1875 11.796875 14.796875 
C 11.796875 17.6875 9.59375 19 7.59375 19 
C 5.90625 19 3.296875 18.1875 3.296875 14.484375 
C 3.296875 5.234375 12.296875 -2 22.90625 -2 
C 34 -2 42.5 6.75 42.5 16.984375 
C 42.5 26.84375 34.5 34 25 35.09375 
C 32.59375 36.671875 39.90625 43.375 39.90625 52.390625 
C 39.90625 60.25 32 66 23 66 
C 13.90625 66 5.90625 60.34375 5.90625 52.296875 
C 5.90625 48.796875 8.5 48.1875 9.796875 48.1875 
C 11.90625 48.1875 13.703125 49.484375 13.703125 52.09375 
C 13.703125 54.6875 11.90625 56 9.796875 56 
C 9.40625 56 8.90625 56 8.5 55.796875 
C 11.40625 62.484375 19.296875 63.6875 22.796875 63.6875 
C 26.296875 63.6875 32.90625 61.96875 32.90625 52.296875 
C 32.90625 49.484375 32.5 44.546875 29.09375 40.21875 
C 26.09375 36.390625 22.703125 36.1875 19.40625 35.890625 
C 18.90625 35.890625 16.59375 35.6875 16.203125 35.6875 
C 15.5 35.59375 15.09375 35.5 15.09375 34.796875 
C 15.09375 34.09375 15.203125 34 17.203125 34 
z
" id="CMR17-51"/>
     </defs>
     <g transform="translate(320.363754 91.685487)scale(0.14 -0.14)">
      <use transform="scale(0.996264)" xlink:href="#CMR17-48"/>
      <use transform="translate(45.690477 0)scale(0.996264)" xlink:href="#CMMI12-58"/>
      <use transform="translate(72.787654 0)scale(0.996264)" xlink:href="#CMR17-51"/>
     </g>
    </g>
   </g>
   <g id="xtick_13">
    <g id="line2d_16">
     <path d="M 310.027079 54.237926 
L 314.655443 55.106229 
" style="fill:none;stroke:#000000;stroke-linecap:square;stroke-width:0.8;"/>
    </g>
    <g id="text_14">
     <!-- $0.4$ -->
     <defs>
      <path d="M 33.59375 64.796875 
C 33.59375 66.890625 33.5 67 31.703125 67 
L 2 19.59375 
L 2 17 
L 27.796875 17 
L 27.796875 7.1875 
C 27.796875 3.59375 27.59375 2.59375 20.59375 2.59375 
L 18.703125 2.59375 
L 18.703125 0 
C 21.90625 0.1875 27.296875 0.1875 30.703125 0.1875 
C 34.09375 0.1875 39.5 0.1875 42.703125 0 
L 42.703125 2.59375 
L 40.796875 2.59375 
C 33.796875 2.59375 33.59375 3.59375 33.59375 7.1875 
L 33.59375 17 
L 43.796875 17 
L 43.796875 19.59375 
L 33.59375 19.59375 
z
M 28.09375 58.171875 
L 28.09375 19.59375 
L 4 19.59375 
z
" id="CMR17-52"/>
     </defs>
     <g transform="translate(322.188459 62.439206)scale(0.14 -0.14)">
      <use transform="scale(0.996264)" xlink:href="#CMR17-48"/>
      <use transform="translate(45.690477 0)scale(0.996264)" xlink:href="#CMMI12-58"/>
      <use transform="translate(72.787654 0)scale(0.996264)" xlink:href="#CMR17-52"/>
     </g>
    </g>
   </g>
  </g>
  <g id="axes_1">
   <g id="Poly3DCollection_1">
    <path clip-path="url(#p2644cd5d9b)" d="M 133.038638 136.410524 
L 133.049029 137.255181 
L 154.437798 141.876879 
L 154.434396 141.029316 
z
" style="fill:#ba0c2f;fill-opacity:0.8;"/>
    <path clip-path="url(#p2644cd5d9b)" d="M 120.252575 144.441326 
L 120.267286 145.291025 
L 133.049029 137.255181 
L 133.038638 136.410524 
z
" style="fill:#5d0618;fill-opacity:0.8;"/>
    <path clip-path="url(#p2644cd5d9b)" d="M 120.267286 145.291025 
L 141.784383 149.997558 
L 154.437798 141.876879 
L 133.049029 137.255181 
z
" style="fill:#a30a29;fill-opacity:0.8;"/>
    <path clip-path="url(#p2644cd5d9b)" d="M 120.252575 144.441326 
L 133.038638 136.410524 
L 154.434396 141.029316 
L 141.776745 149.144928 
z
" style="fill:#74081d;fill-opacity:0.8;"/>
    <path clip-path="url(#p2644cd5d9b)" d="M 141.776745 149.144928 
L 154.434396 141.029316 
L 154.437798 141.876879 
L 141.784383 149.997558 
z
" style="fill:#ba0c2f;fill-opacity:0.8;"/>
    <path clip-path="url(#p2644cd5d9b)" d="M 120.252575 144.441326 
L 141.776745 149.144928 
L 141.784383 149.997558 
L 120.267286 145.291025 
z
" style="fill:#5d0618;fill-opacity:0.8;"/>
   </g>
   <g id="Poly3DCollection_2">
    <path clip-path="url(#p2644cd5d9b)" d="M 176.055666 145.69679 
L 176.067782 142.937986 
L 197.941793 147.645375 
L 197.906033 150.41372 
z
" style="fill:#5d0618;fill-opacity:0.8;"/>
    <path clip-path="url(#p2644cd5d9b)" d="M 163.52987 153.898562 
L 163.528528 151.123202 
L 176.067782 142.937986 
L 176.055666 145.69679 
z
" style="fill:#ba0c2f;fill-opacity:0.8;"/>
    <path clip-path="url(#p2644cd5d9b)" d="M 163.52987 153.898562 
L 176.055666 145.69679 
L 197.906033 150.41372 
L 185.515624 158.703032 
z
" style="fill:#74081d;fill-opacity:0.8;"/>
    <path clip-path="url(#p2644cd5d9b)" d="M 163.528528 151.123202 
L 185.538221 155.918049 
L 197.941793 147.645375 
L 176.067782 142.937986 
z
" style="fill:#a30a29;fill-opacity:0.8;"/>
    <path clip-path="url(#p2644cd5d9b)" d="M 185.515624 158.703032 
L 197.906033 150.41372 
L 197.941793 147.645375 
L 185.538221 155.918049 
z
" style="fill:#5d0618;fill-opacity:0.8;"/>
    <path clip-path="url(#p2644cd5d9b)" d="M 163.52987 153.898562 
L 185.515624 158.703032 
L 185.538221 155.918049 
L 163.528528 151.123202 
z
" style="fill:#ba0c2f;fill-opacity:0.8;"/>
   </g>
   <g id="Poly3DCollection_3">
    <path clip-path="url(#p2644cd5d9b)" d="M 219.989157 155.180897 
L 220.040768 152.787704 
L 242.381638 157.597634 
L 242.308777 159.999126 
z
" style="fill:#5d0618;fill-opacity:0.8;"/>
    <path clip-path="url(#p2644cd5d9b)" d="M 207.737758 163.559157 
L 207.778293 161.151564 
L 220.040768 152.787704 
L 219.989157 155.180897 
z
" style="fill:#ba0c2f;fill-opacity:0.8;"/>
    <path clip-path="url(#p2644cd5d9b)" d="M 207.737758 163.559157 
L 219.989157 155.180897 
L 242.308777 159.999126 
L 230.200104 168.467776 
z
" style="fill:#74081d;fill-opacity:0.8;"/>
    <path clip-path="url(#p2644cd5d9b)" d="M 207.778293 161.151564 
L 230.262164 166.051813 
L 242.381638 157.597634 
L 220.040768 152.787704 
z
" style="fill:#a30a29;fill-opacity:0.8;"/>
    <path clip-path="url(#p2644cd5d9b)" d="M 230.200104 168.467776 
L 242.308777 159.999126 
L 242.381638 157.597634 
L 230.262164 166.051813 
z
" style="fill:#5d0618;fill-opacity:0.8;"/>
    <path clip-path="url(#p2644cd5d9b)" d="M 207.737758 163.559157 
L 230.200104 168.467776 
L 230.262164 166.051813 
L 207.778293 161.151564 
z
" style="fill:#ba0c2f;fill-opacity:0.8;"/>
   </g>
   <g id="Poly3DCollection_4">
    <path clip-path="url(#p2644cd5d9b)" d="M 107.231276 152.619878 
L 106.954509 140.290805 
L 128.711443 145.038595 
L 128.884976 157.410646 
z
" style="fill:#5d0618;fill-opacity:0.8;"/>
    <path clip-path="url(#p2644cd5d9b)" d="M 93.968188 160.950294 
L 93.624446 148.546644 
L 106.954509 140.290805 
L 107.231276 152.619878 
z
" style="fill:#ba0c2f;fill-opacity:0.8;"/>
    <path clip-path="url(#p2644cd5d9b)" d="M 93.968188 160.950294 
L 107.231276 152.619878 
L 128.884976 157.410646 
L 115.752535 165.830676 
z
" style="fill:#74081d;fill-opacity:0.8;"/>
    <path clip-path="url(#p2644cd5d9b)" d="M 93.624446 148.546644 
L 115.513269 153.383677 
L 128.711443 145.038595 
L 106.954509 140.290805 
z
" style="fill:#a30a29;fill-opacity:0.8;"/>
    <path clip-path="url(#p2644cd5d9b)" d="M 115.752535 165.830676 
L 128.884976 157.410646 
L 128.711443 145.038595 
L 115.513269 153.383677 
z
" style="fill:#5d0618;fill-opacity:0.8;"/>
    <path clip-path="url(#p2644cd5d9b)" d="M 93.968188 160.950294 
L 115.752535 165.830676 
L 115.513269 153.383677 
L 93.624446 148.546644 
z
" style="fill:#ba0c2f;fill-opacity:0.8;"/>
   </g>
   <g id="Poly3DCollection_5">
    <path clip-path="url(#p2644cd5d9b)" d="M 150.771152 162.252849 
L 150.777105 163.33873 
L 172.890093 168.236965 
L 172.893567 167.147319 
z
" style="fill:#ba0c2f;fill-opacity:0.8;"/>
    <path clip-path="url(#p2644cd5d9b)" d="M 137.772955 170.763946 
L 137.784542 171.856359 
L 150.777105 163.33873 
L 150.771152 162.252849 
z
" style="fill:#5d0618;fill-opacity:0.8;"/>
    <path clip-path="url(#p2644cd5d9b)" d="M 137.784542 171.856359 
L 160.035349 176.847178 
L 172.890093 168.236965 
L 150.777105 163.33873 
z
" style="fill:#a30a29;fill-opacity:0.8;"/>
    <path clip-path="url(#p2644cd5d9b)" d="M 137.772955 170.763946 
L 150.771152 162.252849 
L 172.893567 167.147319 
L 160.033305 175.750968 
z
" style="fill:#74081d;fill-opacity:0.8;"/>
    <path clip-path="url(#p2644cd5d9b)" d="M 160.033305 175.750968 
L 172.893567 167.147319 
L 172.890093 168.236965 
L 160.035349 176.847178 
z
" style="fill:#ba0c2f;fill-opacity:0.8;"/>
    <path clip-path="url(#p2644cd5d9b)" d="M 137.772955 170.763946 
L 160.033305 175.750968 
L 160.035349 176.847178 
L 137.784542 171.856359 
z
" style="fill:#5d0618;fill-opacity:0.8;"/>
   </g>
   <g id="Poly3DCollection_6">
    <path clip-path="url(#p2644cd5d9b)" d="M 80.456515 169.436844 
L 80.180548 161.102447 
L 102.167271 166.045856 
L 102.372617 174.409378 
z
" style="fill:#5d0618;fill-opacity:0.8;"/>
    <path clip-path="url(#p2644cd5d9b)" d="M 66.6892 178.08396 
L 66.365124 169.699031 
L 80.180548 161.102447 
L 80.456515 169.436844 
z
" style="fill:#ba0c2f;fill-opacity:0.8;"/>
    <path clip-path="url(#p2644cd5d9b)" d="M 66.6892 178.08396 
L 80.456515 169.436844 
L 102.372617 174.409378 
L 88.738162 183.15128 
z
" style="fill:#74081d;fill-opacity:0.8;"/>
    <path clip-path="url(#p2644cd5d9b)" d="M 66.365124 169.699031 
L 88.485556 174.736985 
L 102.167271 166.045856 
L 80.180548 161.102447 
z
" style="fill:#a30a29;fill-opacity:0.8;"/>
    <path clip-path="url(#p2644cd5d9b)" d="M 88.738162 183.15128 
L 102.372617 174.409378 
L 102.167271 166.045856 
L 88.485556 174.736985 
z
" style="fill:#5d0618;fill-opacity:0.8;"/>
    <path clip-path="url(#p2644cd5d9b)" d="M 66.6892 178.08396 
L 88.738162 183.15128 
L 88.485556 174.736985 
L 66.365124 169.699031 
z
" style="fill:#ba0c2f;fill-opacity:0.8;"/>
   </g>
   <g id="Poly3DCollection_7">
    <path clip-path="url(#p2644cd5d9b)" d="M 240.717126 182.152929 
L 240.790241 179.713897 
L 263.919691 184.817612 
L 263.823806 187.265162 
z
" style="fill:#5d0618;fill-opacity:0.8;"/>
    <path clip-path="url(#p2644cd5d9b)" d="M 228.293809 191.043477 
L 228.355551 188.589666 
L 240.790241 179.713897 
L 240.717126 182.152929 
z
" style="fill:#ba0c2f;fill-opacity:0.8;"/>
    <path clip-path="url(#p2644cd5d9b)" d="M 228.293809 191.043477 
L 240.717126 182.152929 
L 263.823806 187.265162 
L 251.554193 196.254538 
z
" style="fill:#74081d;fill-opacity:0.8;"/>
    <path clip-path="url(#p2644cd5d9b)" d="M 228.355551 188.589666 
L 251.639013 193.792141 
L 263.919691 184.817612 
L 240.790241 179.713897 
z
" style="fill:#a30a29;fill-opacity:0.8;"/>
    <path clip-path="url(#p2644cd5d9b)" d="M 251.554193 196.254538 
L 263.823806 187.265162 
L 263.919691 184.817612 
L 251.639013 193.792141 
z
" style="fill:#5d0618;fill-opacity:0.8;"/>
    <path clip-path="url(#p2644cd5d9b)" d="M 228.293809 191.043477 
L 251.554193 196.254538 
L 251.639013 193.792141 
L 228.355551 188.589666 
z
" style="fill:#ba0c2f;fill-opacity:0.8;"/>
   </g>
   <g id="Poly3DCollection_8">
    <path clip-path="url(#p2644cd5d9b)" d="M 111.030634 188.274563 
L 124.528471 179.436308 
L 146.92803 184.518532 
L 133.570674 193.454742 
z
" style="fill:#74081d;fill-opacity:0.8;"/>
    <path clip-path="url(#p2644cd5d9b)" d="M 124.528471 179.436308 
L 124.132775 154.496065 
L 146.751624 159.490019 
L 146.92803 184.518532 
z
" style="fill:#5d0618;fill-opacity:0.8;"/>
    <path clip-path="url(#p2644cd5d9b)" d="M 111.030634 188.274563 
L 110.497105 163.181161 
L 124.132775 154.496065 
L 124.528471 179.436308 
z
" style="fill:#ba0c2f;fill-opacity:0.8;"/>
    <path clip-path="url(#p2644cd5d9b)" d="M 133.570674 193.454742 
L 146.92803 184.518532 
L 146.751624 159.490019 
L 133.259193 168.272332 
z
" style="fill:#5d0618;fill-opacity:0.8;"/>
    <path clip-path="url(#p2644cd5d9b)" d="M 111.030634 188.274563 
L 133.570674 193.454742 
L 133.259193 168.272332 
L 110.497105 163.181161 
z
" style="fill:#ba0c2f;fill-opacity:0.8;"/>
    <path clip-path="url(#p2644cd5d9b)" d="M 110.497105 163.181161 
L 133.259193 168.272332 
L 146.751624 159.490019 
L 124.132775 154.496065 
z
" style="fill:#a30a29;fill-opacity:0.8;"/>
   </g>
   <g id="Poly3DCollection_9">
    <path clip-path="url(#p2644cd5d9b)" d="M 182.53753 180.792625 
L 195.256067 172.094906 
L 217.862581 177.09648 
L 205.289658 185.889821 
z
" style="fill:#74081d;fill-opacity:0.8;"/>
    <path clip-path="url(#p2644cd5d9b)" d="M 195.256067 172.094906 
L 195.82829 124.353381 
L 218.864647 129.183963 
L 217.862581 177.09648 
z
" style="fill:#5d0618;fill-opacity:0.8;"/>
    <path clip-path="url(#p2644cd5d9b)" d="M 182.53753 180.792625 
L 182.874261 132.754382 
L 195.82829 124.353381 
L 195.256067 172.094906 
z
" style="fill:#ba0c2f;fill-opacity:0.8;"/>
    <path clip-path="url(#p2644cd5d9b)" d="M 205.289658 185.889821 
L 217.862581 177.09648 
L 218.864647 129.183963 
L 206.061864 137.679081 
z
" style="fill:#5d0618;fill-opacity:0.8;"/>
    <path clip-path="url(#p2644cd5d9b)" d="M 182.53753 180.792625 
L 205.289658 185.889821 
L 206.061864 137.679081 
L 182.874261 132.754382 
z
" style="fill:#ba0c2f;fill-opacity:0.8;"/>
    <path clip-path="url(#p2644cd5d9b)" d="M 182.874261 132.754382 
L 206.061864 137.679081 
L 218.864647 129.183963 
L 195.82829 124.353381 
z
" style="fill:#a30a29;fill-opacity:0.8;"/>
   </g>
   <g id="Poly3DCollection_10">
    <path clip-path="url(#p2644cd5d9b)" d="M 169.57534 189.656969 
L 169.573234 190.763642 
L 192.462326 195.96309 
L 192.474532 194.852554 
z
" style="fill:#ba0c2f;fill-opacity:0.8;"/>
    <path clip-path="url(#p2644cd5d9b)" d="M 156.362428 198.692771 
L 156.366146 199.806146 
L 169.573234 190.763642 
L 169.57534 189.656969 
z
" style="fill:#5d0618;fill-opacity:0.8;"/>
    <path clip-path="url(#p2644cd5d9b)" d="M 156.366146 199.806146 
L 179.403624 205.106891 
L 192.462326 195.96309 
L 169.573234 190.763642 
z
" style="fill:#a30a29;fill-opacity:0.8;"/>
    <path clip-path="url(#p2644cd5d9b)" d="M 156.362428 198.692771 
L 169.57534 189.656969 
L 192.474532 194.852554 
L 179.410136 203.989624 
z
" style="fill:#74081d;fill-opacity:0.8;"/>
    <path clip-path="url(#p2644cd5d9b)" d="M 179.410136 203.989624 
L 192.474532 194.852554 
L 192.462326 195.96309 
L 179.403624 205.106891 
z
" style="fill:#ba0c2f;fill-opacity:0.8;"/>
    <path clip-path="url(#p2644cd5d9b)" d="M 156.362428 198.692771 
L 179.410136 203.989624 
L 179.403624 205.106891 
L 156.366146 199.806146 
z
" style="fill:#5d0618;fill-opacity:0.8;"/>
   </g>
   <g id="Poly3DCollection_11">
    <path clip-path="url(#p2644cd5d9b)" d="M 252.90658 173.429742 
L 264.868713 164.869234 
L 287.672867 169.792062 
L 275.861186 178.445932 
z
" style="fill:#74081d;fill-opacity:0.8;"/>
    <path clip-path="url(#p2644cd5d9b)" d="M 264.868713 164.869234 
L 268.059214 83.565702 
L 291.612089 88.19214 
L 287.672867 169.792062 
z
" style="fill:#5d0618;fill-opacity:0.8;"/>
    <path clip-path="url(#p2644cd5d9b)" d="M 252.90658 173.429742 
L 255.743103 91.611831 
L 268.059214 83.565702 
L 264.868713 164.869234 
z
" style="fill:#ba0c2f;fill-opacity:0.8;"/>
    <path clip-path="url(#p2644cd5d9b)" d="M 275.861186 178.445932 
L 287.672867 169.792062 
L 291.612089 88.19214 
L 279.456619 96.328856 
z
" style="fill:#5d0618;fill-opacity:0.8;"/>
    <path clip-path="url(#p2644cd5d9b)" d="M 252.90658 173.429742 
L 275.861186 178.445932 
L 279.456619 96.328856 
L 255.743103 91.611831 
z
" style="fill:#ba0c2f;fill-opacity:0.8;"/>
    <path clip-path="url(#p2644cd5d9b)" d="M 255.743103 91.611831 
L 279.456619 96.328856 
L 291.612089 88.19214 
L 268.059214 83.565702 
z
" style="fill:#a30a29;fill-opacity:0.8;"/>
   </g>
   <g id="Poly3DCollection_12">
    <path clip-path="url(#p2644cd5d9b)" d="M 97.272104 197.283517 
L 97.044425 188.788293 
L 119.801871 194.03941 
L 119.953891 202.564511 
z
" style="fill:#5d0618;fill-opacity:0.8;"/>
    <path clip-path="url(#p2644cd5d9b)" d="M 83.245256 206.468164 
L 82.96757 197.921106 
L 97.044425 188.788293 
L 97.272104 197.283517 
z
" style="fill:#ba0c2f;fill-opacity:0.8;"/>
    <path clip-path="url(#p2644cd5d9b)" d="M 83.245256 206.468164 
L 97.272104 197.283517 
L 119.953891 202.564511 
L 106.07005 211.852945 
z
" style="fill:#74081d;fill-opacity:0.8;"/>
    <path clip-path="url(#p2644cd5d9b)" d="M 82.96757 197.921106 
L 105.868974 203.275777 
L 119.801871 194.03941 
L 97.044425 188.788293 
z
" style="fill:#a30a29;fill-opacity:0.8;"/>
    <path clip-path="url(#p2644cd5d9b)" d="M 106.07005 211.852945 
L 119.953891 202.564511 
L 119.801871 194.03941 
L 105.868974 203.275777 
z
" style="fill:#5d0618;fill-opacity:0.8;"/>
    <path clip-path="url(#p2644cd5d9b)" d="M 83.245256 206.468164 
L 106.07005 211.852945 
L 105.868974 203.275777 
L 82.96757 197.921106 
z
" style="fill:#ba0c2f;fill-opacity:0.8;"/>
   </g>
   <g id="Poly3DCollection_13">
    <path clip-path="url(#p2644cd5d9b)" d="M 215.629832 200.106249 
L 215.68777 197.240637 
L 239.130649 202.543373 
L 239.045562 205.419031 
z
" style="fill:#5d0618;fill-opacity:0.8;"/>
    <path clip-path="url(#p2644cd5d9b)" d="M 202.718136 209.346297 
L 202.761788 206.463255 
L 215.68777 197.240637 
L 215.629832 200.106249 
z
" style="fill:#ba0c2f;fill-opacity:0.8;"/>
    <path clip-path="url(#p2644cd5d9b)" d="M 202.718136 209.346297 
L 215.629832 200.106249 
L 239.045562 205.419031 
L 226.29086 214.763809 
z
" style="fill:#74081d;fill-opacity:0.8;"/>
    <path clip-path="url(#p2644cd5d9b)" d="M 202.761788 206.463255 
L 226.36203 211.870643 
L 239.130649 202.543373 
L 215.68777 197.240637 
z
" style="fill:#a30a29;fill-opacity:0.8;"/>
    <path clip-path="url(#p2644cd5d9b)" d="M 226.29086 214.763809 
L 239.045562 205.419031 
L 239.130649 202.543373 
L 226.36203 211.870643 
z
" style="fill:#5d0618;fill-opacity:0.8;"/>
    <path clip-path="url(#p2644cd5d9b)" d="M 202.718136 209.346297 
L 226.29086 214.763809 
L 226.36203 211.870643 
L 202.761788 206.463255 
z
" style="fill:#ba0c2f;fill-opacity:0.8;"/>
   </g>
   <g id="Poly3DCollection_14">
    <path clip-path="url(#p2644cd5d9b)" d="M 142.891448 207.905056 
L 142.779697 195.09484 
L 166.095912 200.450686 
L 166.089127 213.306166 
z
" style="fill:#5d0618;fill-opacity:0.8;"/>
    <path clip-path="url(#p2644cd5d9b)" d="M 129.154766 217.299046 
L 128.971043 204.410304 
L 142.779697 195.09484 
L 142.891448 207.905056 
z
" style="fill:#ba0c2f;fill-opacity:0.8;"/>
    <path clip-path="url(#p2644cd5d9b)" d="M 129.154766 217.299046 
L 142.891448 207.905056 
L 166.089127 213.306166 
L 152.503869 222.80752 
z
" style="fill:#74081d;fill-opacity:0.8;"/>
    <path clip-path="url(#p2644cd5d9b)" d="M 128.971043 204.410304 
L 152.440235 209.873169 
L 166.095912 200.450686 
L 142.779697 195.09484 
z
" style="fill:#a30a29;fill-opacity:0.8;"/>
    <path clip-path="url(#p2644cd5d9b)" d="M 152.503869 222.80752 
L 166.089127 213.306166 
L 166.095912 200.450686 
L 152.440235 209.873169 
z
" style="fill:#5d0618;fill-opacity:0.8;"/>
    <path clip-path="url(#p2644cd5d9b)" d="M 129.154766 217.299046 
L 152.503869 222.80752 
L 152.440235 209.873169 
L 128.971043 204.410304 
z
" style="fill:#ba0c2f;fill-opacity:0.8;"/>
   </g>
   <g id="Poly3DCollection_15">
    <path clip-path="url(#p2644cd5d9b)" d="M 189.551379 218.768875 
L 189.542505 219.66297 
L 213.265283 225.191476 
L 213.282754 224.294245 
z
" style="fill:#ba0c2f;fill-opacity:0.8;"/>
    <path clip-path="url(#p2644cd5d9b)" d="M 176.121928 228.379446 
L 176.117822 229.278981 
L 189.542505 219.66297 
L 189.551379 218.768875 
z
" style="fill:#5d0618;fill-opacity:0.8;"/>
    <path clip-path="url(#p2644cd5d9b)" d="M 176.117822 229.278981 
L 200.000796 234.91862 
L 213.265283 225.191476 
L 189.542505 219.66297 
z
" style="fill:#a30a29;fill-opacity:0.8;"/>
    <path clip-path="url(#p2644cd5d9b)" d="M 176.121928 228.379446 
L 189.551379 218.768875 
L 213.282754 224.294245 
L 200.013616 234.015926 
z
" style="fill:#74081d;fill-opacity:0.8;"/>
    <path clip-path="url(#p2644cd5d9b)" d="M 200.013616 234.015926 
L 213.282754 224.294245 
L 213.265283 225.191476 
L 200.000796 234.91862 
z
" style="fill:#ba0c2f;fill-opacity:0.8;"/>
    <path clip-path="url(#p2644cd5d9b)" d="M 176.121928 228.379446 
L 200.013616 234.015926 
L 200.000796 234.91862 
L 176.117822 229.278981 
z
" style="fill:#5d0618;fill-opacity:0.8;"/>
   </g>
   <g id="Poly3DCollection_16">
    <path clip-path="url(#p2644cd5d9b)" d="M 25.518398 197.221913 
L 203.754071 239.467045 
L 299.776068 168.525676 
L 130.038835 132.038787 
z
" style="fill-opacity:0.15;"/>
   </g>
   <g id="Poly3DCollection_17">
    <path clip-path="url(#p2644cd5d9b)" d="M 38.35807 195.878468 
L 52.658921 186.896242 
L 74.841835 192.061084 
L 60.676019 201.143674 
z
" style="fill:#74081d;fill-opacity:0.8;"/>
    <path clip-path="url(#p2644cd5d9b)" d="M 52.658921 186.896242 
L 46.933544 57.750519 
L 70.222556 62.427839 
L 74.841835 192.061084 
z
" style="fill:#5d0618;fill-opacity:0.8;"/>
    <path clip-path="url(#p2644cd5d9b)" d="M 38.35807 195.878468 
L 31.836896 65.886594 
L 46.933544 57.750519 
L 52.658921 186.896242 
z
" style="fill:#ba0c2f;fill-opacity:0.8;"/>
    <path clip-path="url(#p2644cd5d9b)" d="M 60.676019 201.143674 
L 74.841835 192.061084 
L 70.222556 62.427839 
L 55.274545 70.659531 
z
" style="fill:#5d0618;fill-opacity:0.8;"/>
    <path clip-path="url(#p2644cd5d9b)" d="M 38.35807 195.878468 
L 60.676019 201.143674 
L 55.274545 70.659531 
L 31.836896 65.886594 
z
" style="fill:#ba0c2f;fill-opacity:0.8;"/>
    <path clip-path="url(#p2644cd5d9b)" d="M 31.836896 65.886594 
L 55.274545 70.659531 
L 70.222556 62.427839 
L 46.933544 57.750519 
z
" style="fill:#a30a29;fill-opacity:0.8;"/>
   </g>
  </g>
  <g id="patch_6">
   <path d="M 425.945455 262.8 
L 806.4 262.8 
L 806.4 -14.4 
L 425.945455 -14.4 
z
" style="fill:#ffffff;"/>
  </g>
  <g id="pane3d_4">
   <g id="patch_7">
    <path d="M 476.380584 201.548569 
L 585.268665 133.58541 
L 583.455794 3.718968 
L 468.496488 64.782468 
" style="fill:#f2f2f2;opacity:0.5;stroke:#f2f2f2;stroke-linejoin:miter;"/>
   </g>
  </g>
  <g id="pane3d_5">
   <g id="patch_8">
    <path d="M 585.268665 133.58541 
L 761.65712 171.581202 
L 769.037001 37.79869 
L 583.455794 3.718968 
" style="fill:#e6e6e6;opacity:0.5;stroke:#e6e6e6;stroke-linejoin:miter;"/>
   </g>
  </g>
  <g id="pane3d_6">
   <g id="patch_9">
    <path d="M 476.380584 201.548569 
L 661.965072 245.80086 
L 761.65712 171.581202 
L 585.268665 133.58541 
" style="fill:#ececec;opacity:0.5;stroke:#ececec;stroke-linejoin:miter;"/>
   </g>
  </g>
  <g id="axis3d_4">
   <g id="line2d_17">
    <path d="M 476.380584 201.548569 
L 661.965072 245.80086 
" style="fill:none;stroke:#000000;stroke-linecap:square;stroke-width:0.8;"/>
   </g>
   <g id="Line3DCollection_4">
    <path d="M 498.841271 206.90428 
L 606.679397 138.19749 
L 605.9393 7.847789 
" style="fill:none;stroke:#b0b0b0;stroke-width:0.8;"/>
    <path d="M 544.057792 217.686079 
L 649.729469 147.470895 
L 651.182353 16.156123 
" style="fill:none;stroke:#b0b0b0;stroke-width:0.8;"/>
    <path d="M 590.310744 228.715013 
L 693.693551 156.941187 
L 697.435637 24.649974 
" style="fill:none;stroke:#b0b0b0;stroke-width:0.8;"/>
    <path d="M 637.636176 239.999678 
L 738.601063 166.614702 
L 744.733372 33.335625 
" style="fill:none;stroke:#b0b0b0;stroke-width:0.8;"/>
   </g>
   <g id="xtick_14">
    <g id="line2d_18">
     <path d="M 499.770538 206.312217 
L 496.979262 208.09062 
" style="fill:none;stroke:#000000;stroke-linecap:square;stroke-width:0.8;"/>
    </g>
    <g id="text_15">
     <!-- 00 -->
     <g transform="translate(479.875817 237.14703)rotate(-45)scale(0.14 -0.14)">
      <use transform="scale(0.996264)" xlink:href="#CMR17-48"/>
      <use transform="translate(45.690477 0)scale(0.996264)" xlink:href="#CMR17-48"/>
     </g>
    </g>
   </g>
   <g id="xtick_15">
    <g id="line2d_19">
     <path d="M 544.969128 217.080527 
L 542.231671 218.899473 
" style="fill:none;stroke:#000000;stroke-linecap:square;stroke-width:0.8;"/>
    </g>
    <g id="text_16">
     <!-- 01 -->
     <g transform="translate(525.088242 248.103782)rotate(-45)scale(0.14 -0.14)">
      <use transform="scale(0.996264)" xlink:href="#CMR17-48"/>
      <use transform="translate(45.690477 0)scale(0.996264)" xlink:href="#CMR17-49"/>
     </g>
    </g>
   </g>
   <g id="xtick_16">
    <g id="line2d_20">
     <path d="M 591.20308 228.095506 
L 588.522658 229.956397 
" style="fill:none;stroke:#000000;stroke-linecap:square;stroke-width:0.8;"/>
    </g>
    <g id="text_17">
     <!-- 10 -->
     <g transform="translate(571.338855 259.312128)rotate(-45)scale(0.14 -0.14)">
      <use transform="scale(0.996264)" xlink:href="#CMR17-49"/>
      <use transform="translate(45.690477 0)scale(0.996264)" xlink:href="#CMR17-48"/>
     </g>
    </g>
   </g>
   <g id="xtick_17">
    <g id="line2d_21">
     <path d="M 638.50838 239.365727 
L 635.888391 241.270032 
" style="fill:none;stroke:#000000;stroke-linecap:square;stroke-width:0.8;"/>
    </g>
    <g id="text_18">
     <!-- 11 -->
     <g transform="translate(618.66383 270.780834)rotate(-45)scale(0.14 -0.14)">
      <use transform="scale(0.996264)" xlink:href="#CMR17-49"/>
      <use transform="translate(45.690477 0)scale(0.996264)" xlink:href="#CMR17-49"/>
     </g>
    </g>
   </g>
  </g>
  <g id="axis3d_5">
   <g id="line2d_22">
    <path d="M 761.65712 171.581202 
L 661.965072 245.80086 
" style="fill:none;stroke:#000000;stroke-linecap:square;stroke-width:0.8;"/>
   </g>
   <g id="Line3DCollection_5">
    <path d="M 484.000685 56.547028 
L 491.016499 192.413474 
L 675.403872 235.795817 
" style="fill:none;stroke:#b0b0b0;stroke-width:0.8;"/>
    <path d="M 513.777478 40.730342 
L 519.168861 174.842005 
L 701.219492 216.576366 
" style="fill:none;stroke:#b0b0b0;stroke-width:0.8;"/>
    <path d="M 542.401344 25.526062 
L 546.284836 157.917404 
L 726.04244 198.095948 
" style="fill:none;stroke:#b0b0b0;stroke-width:0.8;"/>
    <path d="M 569.937971 10.899296 
L 572.420618 141.604597 
L 749.928893 180.312741 
" style="fill:none;stroke:#b0b0b0;stroke-width:0.8;"/>
   </g>
   <g id="xtick_18">
    <g id="line2d_23">
     <path d="M 673.861052 235.432825 
L 678.492943 236.522608 
" style="fill:none;stroke:#000000;stroke-linecap:square;stroke-width:0.8;"/>
    </g>
    <g id="text_19">
     <!-- 00 -->
     <g transform="translate(689.195824 248.348363)rotate(-337.5)scale(0.14 -0.14)">
      <use transform="scale(0.996264)" xlink:href="#CMR17-48"/>
      <use transform="translate(45.690477 0)scale(0.996264)" xlink:href="#CMR17-48"/>
     </g>
    </g>
   </g>
   <g id="xtick_19">
    <g id="line2d_24">
     <path d="M 699.697534 216.227463 
L 704.266725 217.274932 
" style="fill:none;stroke:#000000;stroke-linecap:square;stroke-width:0.8;"/>
    </g>
    <g id="text_20">
     <!-- 01 -->
     <g transform="translate(714.749375 228.903937)rotate(-337.5)scale(0.14 -0.14)">
      <use transform="scale(0.996264)" xlink:href="#CMR17-48"/>
      <use transform="translate(45.690477 0)scale(0.996264)" xlink:href="#CMR17-49"/>
     </g>
    </g>
   </g>
   <g id="xtick_20">
    <g id="line2d_25">
     <path d="M 724.540896 197.76033 
L 729.048738 198.767901 
" style="fill:none;stroke:#000000;stroke-linecap:square;stroke-width:0.8;"/>
    </g>
    <g id="text_21">
     <!-- 10 -->
     <g transform="translate(739.320787 210.206849)rotate(-337.5)scale(0.14 -0.14)">
      <use transform="scale(0.996264)" xlink:href="#CMR17-49"/>
      <use transform="translate(45.690477 0)scale(0.996264)" xlink:href="#CMR17-48"/>
     </g>
    </g>
   </g>
   <g id="xtick_21">
    <g id="line2d_26">
     <path d="M 748.44732 179.989663 
L 752.895146 180.959573 
" style="fill:none;stroke:#000000;stroke-linecap:square;stroke-width:0.8;"/>
    </g>
    <g id="text_22">
     <!-- 11 -->
     <g transform="translate(762.965613 192.214827)rotate(-337.5)scale(0.14 -0.14)">
      <use transform="scale(0.996264)" xlink:href="#CMR17-49"/>
      <use transform="translate(45.690477 0)scale(0.996264)" xlink:href="#CMR17-49"/>
     </g>
    </g>
   </g>
  </g>
  <g id="axis3d_6">
   <g id="line2d_27">
    <path d="M 761.65712 171.581202 
L 769.037001 37.79869 
" style="fill:none;stroke:#000000;stroke-linecap:square;stroke-width:0.8;"/>
   </g>
   <g id="text_23">
    <!-- Im[$\rho$] -->
    <defs>
     <path d="M 19.703125 60.90625 
C 19.703125 65.390625 20.90625 65.390625 28.09375 65.390625 
L 28.09375 68 
C 24.90625 67.796875 19.796875 67.796875 16.40625 67.796875 
C 13 67.796875 7.90625 67.796875 4.703125 68 
L 4.703125 65.390625 
C 11.90625 65.390625 13.09375 65.390625 13.09375 60.90625 
L 13.09375 7.078125 
C 13.09375 2.59375 11.90625 2.59375 4.703125 2.59375 
L 4.703125 0 
C 7.90625 0.1875 13 0.1875 16.40625 0.1875 
C 19.796875 0.1875 24.90625 0.1875 28.09375 0 
L 28.09375 2.59375 
C 20.90625 2.59375 19.703125 2.59375 19.703125 7.078125 
z
" id="CMR17-73"/>
     <path d="M 67.59375 30.53125 
C 67.59375 35.5625 66.703125 44 54.796875 44 
C 48 44 43.296875 39.375 41.5 33.953125 
L 41.40625 33.953125 
C 40.203125 42.1875 34.296875 44 28.703125 44 
C 20.796875 44 16.703125 37.875 15.203125 33.84375 
L 15.09375 33.84375 
L 15.09375 44 
L 3.296875 42.890625 
L 3.296875 40.28125 
C 9.203125 40.28125 10.09375 39.6875 10.09375 34.859375 
L 10.09375 6.921875 
C 10.09375 3.09375 9.703125 2.59375 3.296875 2.59375 
L 3.296875 0 
C 5.703125 0.1875 10.09375 0.1875 12.703125 0.1875 
C 15.296875 0.1875 19.796875 0.1875 22.203125 0 
L 22.203125 2.59375 
C 15.796875 2.59375 15.40625 3 15.40625 6.921875 
L 15.40625 26.21875 
C 15.40625 35.453125 21 42.390625 28 42.390625 
C 35.40625 42.390625 36.203125 35.765625 36.203125 30.9375 
L 36.203125 6.921875 
C 36.203125 3.09375 35.796875 2.59375 29.40625 2.59375 
L 29.40625 0 
C 31.796875 0.1875 36.203125 0.1875 38.796875 0.1875 
C 41.40625 0.1875 45.90625 0.1875 48.296875 0 
L 48.296875 2.59375 
C 41.90625 2.59375 41.5 3 41.5 6.921875 
L 41.5 26.21875 
C 41.5 35.453125 47.09375 42.390625 54.09375 42.390625 
C 61.5 42.390625 62.296875 35.765625 62.296875 30.9375 
L 62.296875 6.921875 
C 62.296875 3.09375 61.90625 2.59375 55.5 2.59375 
L 55.5 0 
C 57.90625 0.1875 62.296875 0.1875 64.90625 0.1875 
C 67.5 0.1875 72 0.1875 74.40625 0 
L 74.40625 2.59375 
C 68 2.59375 67.59375 3 67.59375 6.921875 
z
" id="CMR17-109"/>
    </defs>
    <g transform="translate(809.026865 118.025317)rotate(-86.842577)scale(0.14 -0.14)">
     <use transform="scale(0.996264)" xlink:href="#CMR17-73"/>
     <use transform="translate(32.638409 0)scale(0.996264)" xlink:href="#CMR17-109"/>
     <use transform="translate(109.557999 0)scale(0.996264)" xlink:href="#CMR17-91"/>
     <use transform="translate(134.429058 0)scale(0.996264)" xlink:href="#CMMI12-26"/>
     <use transform="translate(184.74343 0)scale(0.996264)" xlink:href="#CMR17-93"/>
    </g>
   </g>
   <g id="Line3DCollection_6">
    <path d="M 762.357984 158.875938 
L 585.096158 121.227717 
L 475.633 188.580176 
" style="fill:none;stroke:#b0b0b0;stroke-width:0.8;"/>
    <path d="M 763.767696 133.320671 
L 584.749394 96.387045 
L 474.128577 162.482818 
" style="fill:none;stroke:#b0b0b0;stroke-width:0.8;"/>
    <path d="M 765.205872 107.249406 
L 584.395927 71.066106 
L 472.592758 135.840829 
" style="fill:none;stroke:#b0b0b0;stroke-width:0.8;"/>
    <path d="M 766.673384 80.646354 
L 584.035558 45.250837 
L 471.02455 108.636981 
" style="fill:none;stroke:#b0b0b0;stroke-width:0.8;"/>
    <path d="M 768.171137 53.495077 
L 583.668085 18.926619 
L 469.422917 80.853311 
" style="fill:none;stroke:#b0b0b0;stroke-width:0.8;"/>
   </g>
   <g id="xtick_22">
    <g id="line2d_28">
     <path d="M 760.878744 158.561765 
L 765.319552 159.504938 
" style="fill:none;stroke:#000000;stroke-linecap:square;stroke-width:0.8;"/>
    </g>
    <g id="text_24">
     <!-- $0.0$ -->
     <g transform="translate(772.233045 166.634848)scale(0.14 -0.14)">
      <use transform="scale(0.996264)" xlink:href="#CMR17-48"/>
      <use transform="translate(45.690477 0)scale(0.996264)" xlink:href="#CMMI12-58"/>
      <use transform="translate(72.787654 0)scale(0.996264)" xlink:href="#CMR17-48"/>
     </g>
    </g>
   </g>
   <g id="xtick_23">
    <g id="line2d_29">
     <path d="M 762.273182 133.012335 
L 766.759877 133.937994 
" style="fill:none;stroke:#000000;stroke-linecap:square;stroke-width:0.8;"/>
    </g>
    <g id="text_25">
     <!-- $0.1$ -->
     <g transform="translate(773.825228 141.11541)scale(0.14 -0.14)">
      <use transform="scale(0.996264)" xlink:href="#CMR17-48"/>
      <use transform="translate(45.690477 0)scale(0.996264)" xlink:href="#CMMI12-58"/>
      <use transform="translate(72.787654 0)scale(0.996264)" xlink:href="#CMR17-49"/>
     </g>
    </g>
   </g>
   <g id="xtick_24">
    <g id="line2d_30">
     <path d="M 763.695765 106.947206 
L 768.229305 107.854449 
" style="fill:none;stroke:#000000;stroke-linecap:square;stroke-width:0.8;"/>
    </g>
    <g id="text_26">
     <!-- $0.2$ -->
     <g transform="translate(775.449489 115.081818)scale(0.14 -0.14)">
      <use transform="scale(0.996264)" xlink:href="#CMR17-48"/>
      <use transform="translate(45.690477 0)scale(0.996264)" xlink:href="#CMMI12-58"/>
      <use transform="translate(72.787654 0)scale(0.996264)" xlink:href="#CMR17-50"/>
     </g>
    </g>
   </g>
   <g id="xtick_25">
    <g id="line2d_31">
     <path d="M 765.147355 80.350607 
L 769.728726 81.238484 
" style="fill:none;stroke:#000000;stroke-linecap:square;stroke-width:0.8;"/>
    </g>
    <g id="text_27">
     <!-- $0.3$ -->
     <g transform="translate(777.106808 88.518374)scale(0.14 -0.14)">
      <use transform="scale(0.996264)" xlink:href="#CMR17-48"/>
      <use transform="translate(45.690477 0)scale(0.996264)" xlink:href="#CMMI12-58"/>
      <use transform="translate(72.787654 0)scale(0.996264)" xlink:href="#CMR17-51"/>
     </g>
    </g>
   </g>
   <g id="xtick_26">
    <g id="line2d_32">
     <path d="M 766.628848 53.206114 
L 771.25907 54.073631 
" style="fill:none;stroke:#000000;stroke-linecap:square;stroke-width:0.8;"/>
    </g>
    <g id="text_28">
     <!-- $0.4$ -->
     <g transform="translate(778.798205 61.408737)scale(0.14 -0.14)">
      <use transform="scale(0.996264)" xlink:href="#CMR17-48"/>
      <use transform="translate(45.690477 0)scale(0.996264)" xlink:href="#CMMI12-58"/>
      <use transform="translate(72.787654 0)scale(0.996264)" xlink:href="#CMR17-52"/>
     </g>
    </g>
   </g>
  </g>
  <g id="axes_2">
   <g id="Poly3DCollection_18">
    <path clip-path="url(#p82a42d5cdf)" d="M 589.475046 127.546187 
L 589.454492 125.875334 
L 610.937418 130.457634 
L 610.944148 132.134304 
z
" style="fill:#065d4c;fill-opacity:0.8;"/>
    <path clip-path="url(#p82a42d5cdf)" d="M 576.643642 135.523761 
L 576.61454 133.842813 
L 589.454492 125.875334 
L 589.475046 127.546187 
z
" style="fill:#0cba97;fill-opacity:0.8;"/>
    <path clip-path="url(#p82a42d5cdf)" d="M 576.643642 135.523761 
L 589.475046 127.546187 
L 610.944148 132.134304 
L 598.242037 140.19642 
z
" style="fill:#08745e;fill-opacity:0.8;"/>
    <path clip-path="url(#p82a42d5cdf)" d="M 576.61454 133.842813 
L 598.226926 138.509602 
L 610.937418 130.457634 
L 589.454492 125.875334 
z
" style="fill:#0aa384;fill-opacity:0.8;"/>
    <path clip-path="url(#p82a42d5cdf)" d="M 598.242037 140.19642 
L 610.944148 132.134304 
L 610.937418 130.457634 
L 598.226926 138.509602 
z
" style="fill:#065d4c;fill-opacity:0.8;"/>
    <path clip-path="url(#p82a42d5cdf)" d="M 576.643642 135.523761 
L 598.242037 140.19642 
L 598.226926 138.509602 
L 576.61454 133.842813 
z
" style="fill:#0cba97;fill-opacity:0.8;"/>
   </g>
   <g id="Poly3DCollection_19">
    <path clip-path="url(#p82a42d5cdf)" d="M 632.640321 136.770949 
L 632.669809 130.05663 
L 654.654224 134.719051 
L 654.567187 141.456895 
z
" style="fill:#065d4c;fill-opacity:0.8;"/>
    <path clip-path="url(#p82a42d5cdf)" d="M 620.070983 144.918956 
L 620.067717 138.163815 
L 632.669809 130.05663 
L 632.640321 136.770949 
z
" style="fill:#0cba97;fill-opacity:0.8;"/>
    <path clip-path="url(#p82a42d5cdf)" d="M 620.070983 144.918956 
L 632.640321 136.770949 
L 654.567187 141.456895 
L 642.13419 149.692174 
z
" style="fill:#08745e;fill-opacity:0.8;"/>
    <path clip-path="url(#p82a42d5cdf)" d="M 620.067717 138.163815 
L 642.189193 142.913299 
L 654.654224 134.719051 
L 632.669809 130.05663 
z
" style="fill:#0aa384;fill-opacity:0.8;"/>
    <path clip-path="url(#p82a42d5cdf)" d="M 642.13419 149.692174 
L 654.567187 141.456895 
L 654.654224 134.719051 
L 642.189193 142.913299 
z
" style="fill:#065d4c;fill-opacity:0.8;"/>
    <path clip-path="url(#p82a42d5cdf)" d="M 620.070983 144.918956 
L 642.13419 149.692174 
L 642.189193 142.913299 
L 620.067717 138.163815 
z
" style="fill:#0cba97;fill-opacity:0.8;"/>
   </g>
   <g id="Poly3DCollection_20">
    <path clip-path="url(#p82a42d5cdf)" d="M 563.575341 143.648619 
L 563.586915 144.164217 
L 585.311417 148.925578 
L 585.30416 148.408177 
z
" style="fill:#0cba97;fill-opacity:0.8;"/>
    <path clip-path="url(#p82a42d5cdf)" d="M 550.263521 151.924879 
L 550.277897 152.443604 
L 563.586915 144.164217 
L 563.575341 143.648619 
z
" style="fill:#065d4c;fill-opacity:0.8;"/>
    <path clip-path="url(#p82a42d5cdf)" d="M 550.277897 152.443604 
L 572.133897 157.294327 
L 585.311417 148.925578 
L 563.586915 144.164217 
z
" style="fill:#0aa384;fill-opacity:0.8;"/>
    <path clip-path="url(#p82a42d5cdf)" d="M 550.263521 151.924879 
L 563.575341 143.648619 
L 585.30416 148.408177 
L 572.123891 156.773783 
z
" style="fill:#08745e;fill-opacity:0.8;"/>
    <path clip-path="url(#p82a42d5cdf)" d="M 572.123891 156.773783 
L 585.30416 148.408177 
L 585.311417 148.925578 
L 572.133897 157.294327 
z
" style="fill:#0cba97;fill-opacity:0.8;"/>
    <path clip-path="url(#p82a42d5cdf)" d="M 550.263521 151.924879 
L 572.123891 156.773783 
L 572.133897 157.294327 
L 550.277897 152.443604 
z
" style="fill:#065d4c;fill-opacity:0.8;"/>
   </g>
   <g id="Poly3DCollection_21">
    <path clip-path="url(#p82a42d5cdf)" d="M 676.728445 146.192932 
L 676.66649 149.065746 
L 699.040409 153.862721 
L 699.127874 150.979868 
z
" style="fill:#0cba97;fill-opacity:0.8;"/>
    <path clip-path="url(#p82a42d5cdf)" d="M 664.435451 154.516892 
L 664.38679 157.407127 
L 676.66649 149.065746 
L 676.728445 146.192932 
z
" style="fill:#065d4c;fill-opacity:0.8;"/>
    <path clip-path="url(#p82a42d5cdf)" d="M 664.38679 157.407127 
L 686.904137 162.29431 
L 699.040409 153.862721 
L 676.66649 149.065746 
z
" style="fill:#0aa384;fill-opacity:0.8;"/>
    <path clip-path="url(#p82a42d5cdf)" d="M 664.435451 154.516892 
L 676.728445 146.192932 
L 699.127874 150.979868 
L 686.978639 159.39395 
z
" style="fill:#08745e;fill-opacity:0.8;"/>
    <path clip-path="url(#p82a42d5cdf)" d="M 686.978639 159.39395 
L 699.127874 150.979868 
L 699.040409 153.862721 
L 686.904137 162.29431 
z
" style="fill:#0cba97;fill-opacity:0.8;"/>
    <path clip-path="url(#p82a42d5cdf)" d="M 664.435451 154.516892 
L 686.978639 159.39395 
L 686.904137 162.29431 
L 664.38679 157.407127 
z
" style="fill:#065d4c;fill-opacity:0.8;"/>
   </g>
   <g id="Poly3DCollection_22">
    <path clip-path="url(#p82a42d5cdf)" d="M 607.267086 153.219015 
L 607.263993 152.654842 
L 629.469728 157.515812 
L 629.467923 158.081965 
z
" style="fill:#065d4c;fill-opacity:0.8;"/>
    <path clip-path="url(#p82a42d5cdf)" d="M 594.222003 161.675421 
L 594.215982 161.107813 
L 607.263993 152.654842 
L 607.267086 153.219015 
z
" style="fill:#0cba97;fill-opacity:0.8;"/>
    <path clip-path="url(#p82a42d5cdf)" d="M 594.222003 161.675421 
L 607.267086 153.219015 
L 629.467923 158.081965 
L 616.561757 166.630658 
z
" style="fill:#08745e;fill-opacity:0.8;"/>
    <path clip-path="url(#p82a42d5cdf)" d="M 594.215982 161.107813 
L 616.560695 166.061053 
L 629.469728 157.515812 
L 607.263993 152.654842 
z
" style="fill:#0aa384;fill-opacity:0.8;"/>
    <path clip-path="url(#p82a42d5cdf)" d="M 616.561757 166.630658 
L 629.467923 158.081965 
L 629.469728 157.515812 
L 616.560695 166.061053 
z
" style="fill:#065d4c;fill-opacity:0.8;"/>
    <path clip-path="url(#p82a42d5cdf)" d="M 594.222003 161.675421 
L 616.561757 166.630658 
L 616.560695 166.061053 
L 594.215982 161.107813 
z
" style="fill:#0cba97;fill-opacity:0.8;"/>
   </g>
   <g id="Poly3DCollection_23">
    <path clip-path="url(#p82a42d5cdf)" d="M 721.769334 155.818528 
L 721.769334 155.818528 
L 744.656768 160.709754 
L 744.656768 160.709754 
z
" style="fill:#065d4c;fill-opacity:0.8;"/>
    <path clip-path="url(#p82a42d5cdf)" d="M 709.767712 164.324204 
L 709.767712 164.324204 
L 721.769334 155.818528 
L 721.769334 155.818528 
z
" style="fill:#065d4c;fill-opacity:0.8;"/>
    <path clip-path="url(#p82a42d5cdf)" d="M 709.767712 164.324204 
L 721.769334 155.818528 
L 744.656768 160.709754 
L 732.806715 169.308527 
z
" style="fill:#08745e;fill-opacity:0.8;"/>
    <path clip-path="url(#p82a42d5cdf)" d="M 709.767712 164.324204 
L 732.806715 169.308527 
L 744.656768 160.709754 
L 721.769334 155.818528 
z
" style="fill:#0aa384;fill-opacity:0.8;"/>
    <path clip-path="url(#p82a42d5cdf)" d="M 732.806715 169.308527 
L 744.656768 160.709754 
L 744.656768 160.709754 
L 732.806715 169.308527 
z
" style="fill:#065d4c;fill-opacity:0.8;"/>
    <path clip-path="url(#p82a42d5cdf)" d="M 709.767712 164.324204 
L 732.806715 169.308527 
L 732.806715 169.308527 
L 709.767712 164.324204 
z
" style="fill:#065d4c;fill-opacity:0.8;"/>
   </g>
   <g id="Poly3DCollection_24">
    <path clip-path="url(#p82a42d5cdf)" d="M 651.910557 162.99788 
L 651.910557 162.99788 
L 674.598961 167.967628 
L 674.598961 167.967628 
z
" style="fill:#065d4c;fill-opacity:0.8;"/>
    <path clip-path="url(#p82a42d5cdf)" d="M 639.147138 171.640379 
L 639.147138 171.640379 
L 651.910557 162.99788 
L 651.910557 162.99788 
z
" style="fill:#065d4c;fill-opacity:0.8;"/>
    <path clip-path="url(#p82a42d5cdf)" d="M 639.147138 171.640379 
L 651.910557 162.99788 
L 674.598961 167.967628 
L 661.982221 176.705487 
z
" style="fill:#08745e;fill-opacity:0.8;"/>
    <path clip-path="url(#p82a42d5cdf)" d="M 639.147138 171.640379 
L 661.982221 176.705487 
L 674.598961 167.967628 
L 651.910557 162.99788 
z
" style="fill:#0aa384;fill-opacity:0.8;"/>
    <path clip-path="url(#p82a42d5cdf)" d="M 661.982221 176.705487 
L 674.598961 167.967628 
L 674.598961 167.967628 
L 661.982221 176.705487 
z
" style="fill:#065d4c;fill-opacity:0.8;"/>
    <path clip-path="url(#p82a42d5cdf)" d="M 639.147138 171.640379 
L 661.982221 176.705487 
L 661.982221 176.705487 
L 639.147138 171.640379 
z
" style="fill:#065d4c;fill-opacity:0.8;"/>
   </g>
   <g id="Poly3DCollection_25">
    <path clip-path="url(#p82a42d5cdf)" d="M 536.701313 160.35681 
L 536.361816 150.103754 
L 558.441724 155.008274 
L 558.694354 165.2976 
z
" style="fill:#065d4c;fill-opacity:0.8;"/>
    <path clip-path="url(#p82a42d5cdf)" d="M 522.881584 168.948848 
L 522.482872 158.632858 
L 536.361816 150.103754 
L 536.701313 160.35681 
z
" style="fill:#0cba97;fill-opacity:0.8;"/>
    <path clip-path="url(#p82a42d5cdf)" d="M 522.881584 168.948848 
L 536.701313 160.35681 
L 558.694354 165.2976 
L 545.00841 173.984161 
z
" style="fill:#08745e;fill-opacity:0.8;"/>
    <path clip-path="url(#p82a42d5cdf)" d="M 522.482872 158.632858 
L 544.697615 163.63159 
L 558.441724 155.008274 
L 536.361816 150.103754 
z
" style="fill:#0aa384;fill-opacity:0.8;"/>
    <path clip-path="url(#p82a42d5cdf)" d="M 545.00841 173.984161 
L 558.694354 165.2976 
L 558.441724 155.008274 
L 544.697615 163.63159 
z
" style="fill:#065d4c;fill-opacity:0.8;"/>
    <path clip-path="url(#p82a42d5cdf)" d="M 522.881584 168.948848 
L 545.00841 173.984161 
L 544.697615 163.63159 
L 522.482872 158.632858 
z
" style="fill:#0cba97;fill-opacity:0.8;"/>
   </g>
   <g id="Poly3DCollection_26">
    <path clip-path="url(#p82a42d5cdf)" d="M 580.928854 170.292634 
L 580.928854 170.292634 
L 603.408812 175.342811 
L 603.408812 175.342811 
z
" style="fill:#065d4c;fill-opacity:0.8;"/>
    <path clip-path="url(#p82a42d5cdf)" d="M 567.380496 179.075286 
L 567.380496 179.075286 
L 580.928854 170.292634 
L 580.928854 170.292634 
z
" style="fill:#065d4c;fill-opacity:0.8;"/>
    <path clip-path="url(#p82a42d5cdf)" d="M 567.380496 179.075286 
L 590.001943 184.223157 
L 603.408812 175.342811 
L 580.928854 170.292634 
z
" style="fill:#0aa384;fill-opacity:0.8;"/>
    <path clip-path="url(#p82a42d5cdf)" d="M 567.380496 179.075286 
L 580.928854 170.292634 
L 603.408812 175.342811 
L 590.001943 184.223157 
z
" style="fill:#08745e;fill-opacity:0.8;"/>
    <path clip-path="url(#p82a42d5cdf)" d="M 590.001943 184.223157 
L 603.408812 175.342811 
L 603.408812 175.342811 
L 590.001943 184.223157 
z
" style="fill:#065d4c;fill-opacity:0.8;"/>
    <path clip-path="url(#p82a42d5cdf)" d="M 567.380496 179.075286 
L 590.001943 184.223157 
L 590.001943 184.223157 
L 567.380496 179.075286 
z
" style="fill:#065d4c;fill-opacity:0.8;"/>
   </g>
   <g id="Poly3DCollection_27">
    <path clip-path="url(#p82a42d5cdf)" d="M 697.537194 172.992101 
L 697.625177 170.057065 
L 720.844795 175.126798 
L 720.729405 178.072205 
z
" style="fill:#065d4c;fill-opacity:0.8;"/>
    <path clip-path="url(#p82a42d5cdf)" d="M 685.071168 181.826905 
L 685.145471 178.873874 
L 697.625177 170.057065 
L 697.537194 172.992101 
z
" style="fill:#0cba97;fill-opacity:0.8;"/>
    <path clip-path="url(#p82a42d5cdf)" d="M 685.071168 181.826905 
L 697.537194 172.992101 
L 720.729405 178.072205 
L 708.418237 187.005577 
z
" style="fill:#08745e;fill-opacity:0.8;"/>
    <path clip-path="url(#p82a42d5cdf)" d="M 685.145471 178.873874 
L 708.520318 184.04209 
L 720.844795 175.126798 
L 697.625177 170.057065 
z
" style="fill:#0aa384;fill-opacity:0.8;"/>
    <path clip-path="url(#p82a42d5cdf)" d="M 708.418237 187.005577 
L 720.729405 178.072205 
L 720.844795 175.126798 
L 708.520318 184.04209 
z
" style="fill:#065d4c;fill-opacity:0.8;"/>
    <path clip-path="url(#p82a42d5cdf)" d="M 685.071168 181.826905 
L 708.418237 187.005577 
L 708.520318 184.04209 
L 685.145471 178.873874 
z
" style="fill:#0cba97;fill-opacity:0.8;"/>
   </g>
   <g id="Poly3DCollection_28">
    <path clip-path="url(#p82a42d5cdf)" d="M 508.79693 177.705597 
L 508.79693 177.705597 
L 531.058645 182.83817 
L 531.058645 182.83817 
z
" style="fill:#065d4c;fill-opacity:0.8;"/>
    <path clip-path="url(#p82a42d5cdf)" d="M 494.439658 186.631837 
L 494.439658 186.631837 
L 508.79693 177.705597 
L 508.79693 177.705597 
z
" style="fill:#065d4c;fill-opacity:0.8;"/>
    <path clip-path="url(#p82a42d5cdf)" d="M 494.439658 186.631837 
L 508.79693 177.705597 
L 531.058645 182.83817 
L 516.837357 191.864517 
z
" style="fill:#08745e;fill-opacity:0.8;"/>
    <path clip-path="url(#p82a42d5cdf)" d="M 494.439658 186.631837 
L 516.837357 191.864517 
L 531.058645 182.83817 
L 508.79693 177.705597 
z
" style="fill:#0aa384;fill-opacity:0.8;"/>
    <path clip-path="url(#p82a42d5cdf)" d="M 516.837357 191.864517 
L 531.058645 182.83817 
L 531.058645 182.83817 
L 516.837357 191.864517 
z
" style="fill:#065d4c;fill-opacity:0.8;"/>
    <path clip-path="url(#p82a42d5cdf)" d="M 494.439658 186.631837 
L 516.837357 191.864517 
L 516.837357 191.864517 
L 494.439658 186.631837 
z
" style="fill:#065d4c;fill-opacity:0.8;"/>
   </g>
   <g id="Poly3DCollection_29">
    <path clip-path="url(#p82a42d5cdf)" d="M 626.138316 180.449049 
L 626.137222 181.023898 
L 649.115203 186.189166 
L 649.121543 185.612287 
z
" style="fill:#0cba97;fill-opacity:0.8;"/>
    <path clip-path="url(#p82a42d5cdf)" d="M 612.876943 189.428729 
L 612.878875 190.0071 
L 626.137222 181.023898 
L 626.138316 180.449049 
z
" style="fill:#065d4c;fill-opacity:0.8;"/>
    <path clip-path="url(#p82a42d5cdf)" d="M 612.878875 190.0071 
L 636.0064 195.273394 
L 649.115203 186.189166 
L 626.137222 181.023898 
z
" style="fill:#0aa384;fill-opacity:0.8;"/>
    <path clip-path="url(#p82a42d5cdf)" d="M 612.876943 189.428729 
L 626.138316 180.449049 
L 649.121543 185.612287 
L 636.009784 194.692976 
z
" style="fill:#08745e;fill-opacity:0.8;"/>
    <path clip-path="url(#p82a42d5cdf)" d="M 636.009784 194.692976 
L 649.121543 185.612287 
L 649.115203 186.189166 
L 636.0064 195.273394 
z
" style="fill:#0cba97;fill-opacity:0.8;"/>
    <path clip-path="url(#p82a42d5cdf)" d="M 612.876943 189.428729 
L 636.009784 194.692976 
L 636.0064 195.273394 
L 612.878875 190.0071 
z
" style="fill:#065d4c;fill-opacity:0.8;"/>
   </g>
   <g id="Poly3DCollection_30">
    <path clip-path="url(#p82a42d5cdf)" d="M 553.569508 188.028186 
L 553.84737 198.395852 
L 576.51925 203.680734 
L 576.333723 193.276614 
z
" style="fill:#0cba97;fill-opacity:0.8;"/>
    <path clip-path="url(#p82a42d5cdf)" d="M 539.488178 197.156334 
L 539.827068 207.587244 
L 553.84737 198.395852 
L 553.569508 188.028186 
z
" style="fill:#065d4c;fill-opacity:0.8;"/>
    <path clip-path="url(#p82a42d5cdf)" d="M 539.827068 207.587244 
L 562.641831 212.975942 
L 576.51925 203.680734 
L 553.84737 198.395852 
z
" style="fill:#0aa384;fill-opacity:0.8;"/>
    <path clip-path="url(#p82a42d5cdf)" d="M 539.488178 197.156334 
L 553.569508 188.028186 
L 576.333723 193.276614 
L 562.396437 202.508294 
z
" style="fill:#08745e;fill-opacity:0.8;"/>
    <path clip-path="url(#p82a42d5cdf)" d="M 562.396437 202.508294 
L 576.333723 193.276614 
L 576.51925 203.680734 
L 562.641831 212.975942 
z
" style="fill:#0cba97;fill-opacity:0.8;"/>
    <path clip-path="url(#p82a42d5cdf)" d="M 539.488178 197.156334 
L 562.396437 202.508294 
L 562.641831 212.975942 
L 539.827068 207.587244 
z
" style="fill:#065d4c;fill-opacity:0.8;"/>
   </g>
   <g id="Poly3DCollection_31">
    <path clip-path="url(#p82a42d5cdf)" d="M 672.362766 190.833484 
L 672.222461 197.773009 
L 695.660296 203.077614 
L 695.866353 196.113621 
z
" style="fill:#0cba97;fill-opacity:0.8;"/>
    <path clip-path="url(#p82a42d5cdf)" d="M 659.404849 200.016896 
L 659.299133 206.998869 
L 672.222461 197.773009 
L 672.362766 190.833484 
z
" style="fill:#065d4c;fill-opacity:0.8;"/>
    <path clip-path="url(#p82a42d5cdf)" d="M 659.299133 206.998869 
L 682.894263 212.408141 
L 695.660296 203.077614 
L 672.222461 197.773009 
z
" style="fill:#0aa384;fill-opacity:0.8;"/>
    <path clip-path="url(#p82a42d5cdf)" d="M 659.404849 200.016896 
L 672.362766 190.833484 
L 695.866353 196.113621 
L 683.066622 205.40151 
z
" style="fill:#08745e;fill-opacity:0.8;"/>
    <path clip-path="url(#p82a42d5cdf)" d="M 683.066622 205.40151 
L 695.866353 196.113621 
L 695.660296 203.077614 
L 682.894263 212.408141 
z
" style="fill:#0cba97;fill-opacity:0.8;"/>
    <path clip-path="url(#p82a42d5cdf)" d="M 659.404849 200.016896 
L 683.066622 205.40151 
L 682.894263 212.408141 
L 659.299133 206.998869 
z
" style="fill:#065d4c;fill-opacity:0.8;"/>
   </g>
   <g id="Poly3DCollection_32">
    <path clip-path="url(#p82a42d5cdf)" d="M 599.355594 198.584446 
L 599.350918 198.048433 
L 622.639802 203.414782 
L 622.639518 203.952696 
z
" style="fill:#065d4c;fill-opacity:0.8;"/>
    <path clip-path="url(#p82a42d5cdf)" d="M 585.566547 207.921429 
L 585.55886 207.382118 
L 599.350918 198.048433 
L 599.355594 198.584446 
z
" style="fill:#0cba97;fill-opacity:0.8;"/>
    <path clip-path="url(#p82a42d5cdf)" d="M 585.566547 207.921429 
L 599.355594 198.584446 
L 622.639518 203.952696 
L 609.003025 213.396795 
z
" style="fill:#08745e;fill-opacity:0.8;"/>
    <path clip-path="url(#p82a42d5cdf)" d="M 585.55886 207.382118 
L 609.000362 212.855567 
L 622.639802 203.414782 
L 599.350918 198.048433 
z
" style="fill:#0aa384;fill-opacity:0.8;"/>
    <path clip-path="url(#p82a42d5cdf)" d="M 609.003025 213.396795 
L 622.639518 203.952696 
L 622.639802 203.414782 
L 609.000362 212.855567 
z
" style="fill:#065d4c;fill-opacity:0.8;"/>
    <path clip-path="url(#p82a42d5cdf)" d="M 585.566547 207.921429 
L 609.003025 213.396795 
L 609.000362 212.855567 
L 585.55886 207.382118 
z
" style="fill:#0cba97;fill-opacity:0.8;"/>
   </g>
   <g id="Poly3DCollection_33">
    <path clip-path="url(#p82a42d5cdf)" d="M 646.189996 209.382401 
L 646.172454 211.149852 
L 669.977093 216.648347 
L 670.011632 214.874624 
z
" style="fill:#0cba97;fill-opacity:0.8;"/>
    <path clip-path="url(#p82a42d5cdf)" d="M 632.710489 218.93547 
L 632.702372 220.713802 
L 646.172454 211.149852 
L 646.189996 209.382401 
z
" style="fill:#065d4c;fill-opacity:0.8;"/>
    <path clip-path="url(#p82a42d5cdf)" d="M 632.702372 220.713802 
L 656.668322 226.323211 
L 669.977093 216.648347 
L 646.172454 211.149852 
z
" style="fill:#0aa384;fill-opacity:0.8;"/>
    <path clip-path="url(#p82a42d5cdf)" d="M 632.710489 218.93547 
L 646.189996 209.382401 
L 670.011632 214.874624 
L 656.693668 224.538559 
z
" style="fill:#08745e;fill-opacity:0.8;"/>
    <path clip-path="url(#p82a42d5cdf)" d="M 656.693668 224.538559 
L 670.011632 214.874624 
L 669.977093 216.648347 
L 656.668322 226.323211 
z
" style="fill:#0cba97;fill-opacity:0.8;"/>
    <path clip-path="url(#p82a42d5cdf)" d="M 632.710489 218.93547 
L 656.693668 224.538559 
L 656.668322 226.323211 
L 632.702372 220.713802 
z
" style="fill:#065d4c;fill-opacity:0.8;"/>
   </g>
   <g id="Poly3DCollection_34">
    <path clip-path="url(#p82a42d5cdf)" d="M 481.552138 187.966963 
L 660.449239 229.95762 
L 756.802477 159.451479 
L 586.465528 123.203635 
z
" style="fill-opacity:0.2;"/>
   </g>
  </g>
 </g>
 <defs>
  <clipPath id="p2644cd5d9b">
   <rect height="277.2" width="380.454545" x="-30.6" y="-14.4"/>
  </clipPath>
  <clipPath id="p82a42d5cdf">
   <rect height="277.2" width="380.454545" x="425.945455" y="-14.4"/>
  </clipPath>
 </defs>
</svg>
