<?xml version="1.0" encoding="utf-8" standalone="no"?>
<!DOCTYPE svg PUBLIC "-//W3C//DTD SVG 1.1//EN"
  "http://www.w3.org/Graphics/SVG/1.1/DTD/svg11.dtd">
<!-- Created with matplotlib (https://matplotlib.org/) -->
<svg height="302.4pt" version="1.1" viewBox="0 0 820.8 302.4" width="820.8pt" xmlns="http://www.w3.org/2000/svg" xmlns:xlink="http://www.w3.org/1999/xlink">
 <defs>
  <style type="text/css">
*{stroke-linecap:butt;stroke-linejoin:round;}
  </style>
 </defs>
 <g id="figure_1">
  <g id="patch_1">
   <path d="M 0 302.4 
L 820.8 302.4 
L 820.8 0 
L 0 0 
z
" style="fill:#ffffff;"/>
  </g>
  <g id="patch_2">
   <path d="M -30.6 262.8 
L 349.854545 262.8 
L 349.854545 -14.4 
L -30.6 -14.4 
z
" style="fill:#ffffff;"/>
  </g>
  <g id="pane3d_1">
   <g id="patch_3">
    <path d="M 19.835129 201.548569 
L 128.723211 133.58541 
L 126.910339 3.718968 
L 11.951034 64.782468 
" style="fill:#f2f2f2;opacity:0.5;stroke:#f2f2f2;stroke-linejoin:miter;"/>
   </g>
  </g>
  <g id="pane3d_2">
   <g id="patch_4">
    <path d="M 128.723211 133.58541 
L 305.111665 171.581202 
L 312.491547 37.79869 
L 126.910339 3.718968 
" style="fill:#e6e6e6;opacity:0.5;stroke:#e6e6e6;stroke-linejoin:miter;"/>
   </g>
  </g>
  <g id="pane3d_3">
   <g id="patch_5">
    <path d="M 19.835129 201.548569 
L 205.419617 245.80086 
L 305.111665 171.581202 
L 128.723211 133.58541 
" style="fill:#ececec;opacity:0.5;stroke:#ececec;stroke-linejoin:miter;"/>
   </g>
  </g>
  <g id="axis3d_1">
   <g id="line2d_1">
    <path d="M 19.835129 201.548569 
L 205.419617 245.80086 
" style="fill:none;stroke:#000000;stroke-linecap:square;stroke-width:0.8;"/>
   </g>
   <g id="Line3DCollection_1">
    <path d="M 42.295817 206.90428 
L 150.133942 138.19749 
L 149.393845 7.847789 
" style="fill:none;stroke:#b0b0b0;stroke-width:0.8;"/>
    <path d="M 87.512337 217.686079 
L 193.184014 147.470895 
L 194.636898 16.156123 
" style="fill:none;stroke:#b0b0b0;stroke-width:0.8;"/>
    <path d="M 133.765289 228.715013 
L 237.148096 156.941187 
L 240.890183 24.649974 
" style="fill:none;stroke:#b0b0b0;stroke-width:0.8;"/>
    <path d="M 181.090721 239.999678 
L 282.055608 166.614702 
L 288.187917 33.335625 
" style="fill:none;stroke:#b0b0b0;stroke-width:0.8;"/>
   </g>
   <g id="xtick_1">
    <g id="line2d_2">
     <path d="M 43.225084 206.312217 
L 40.433807 208.09062 
" style="fill:none;stroke:#000000;stroke-linecap:square;stroke-width:0.8;"/>
    </g>
    <g id="text_1">
     <!-- 00 -->
     <defs>
      <path d="M 42 31.84375 
C 42 37.96875 41.90625 48.421875 37.703125 56.453125 
C 34 63.484375 28.09375 66 22.90625 66 
C 18.09375 66 12 63.78125 8.203125 56.5625 
C 4.203125 49.015625 3.796875 39.671875 3.796875 31.84375 
C 3.796875 26.109375 3.90625 17.375 7 9.734375 
C 11.296875 -0.609375 19 -2 22.90625 -2 
C 27.5 -2 34.5 -0.109375 38.59375 9.4375 
C 41.59375 16.375 42 24.5 42 31.84375 
z
M 22.90625 -0.40625 
C 16.5 -0.40625 12.703125 5.125 11.296875 12.75 
C 10.203125 18.6875 10.203125 27.328125 10.203125 32.953125 
C 10.203125 40.6875 10.203125 47.109375 11.5 53.234375 
C 13.40625 61.78125 19 64.390625 22.90625 64.390625 
C 27 64.390625 32.296875 61.671875 34.203125 53.4375 
C 35.5 47.71875 35.59375 40.984375 35.59375 32.953125 
C 35.59375 26.421875 35.59375 18.375 34.40625 12.453125 
C 32.296875 1.5 26.40625 -0.40625 22.90625 -0.40625 
z
" id="CMR17-48"/>
     </defs>
     <g transform="translate(23.330362 237.14703)rotate(-45)scale(0.14 -0.14)">
      <use transform="scale(0.996264)" xlink:href="#CMR17-48"/>
      <use transform="translate(45.690477 0)scale(0.996264)" xlink:href="#CMR17-48"/>
     </g>
    </g>
   </g>
   <g id="xtick_2">
    <g id="line2d_3">
     <path d="M 88.423674 217.080527 
L 85.686217 218.899473 
" style="fill:none;stroke:#000000;stroke-linecap:square;stroke-width:0.8;"/>
    </g>
    <g id="text_2">
     <!-- 01 -->
     <defs>
      <path d="M 26.59375 63.796875 
C 26.59375 65.890625 26.5 66 25.09375 66 
C 21.203125 61.359375 15.296875 59.890625 9.703125 59.6875 
C 9.40625 59.6875 8.90625 59.6875 8.796875 59.5 
C 8.703125 59.296875 8.703125 59.09375 8.703125 57 
C 11.796875 57 17 57.59375 21 59.984375 
L 21 7.296875 
C 21 3.796875 20.796875 2.59375 12.203125 2.59375 
L 9.203125 2.59375 
L 9.203125 0 
C 14 0.09375 19 0.1875 23.796875 0.1875 
C 28.59375 0.1875 33.59375 0.09375 38.40625 0 
L 38.40625 2.59375 
L 35.40625 2.59375 
C 26.796875 2.59375 26.59375 3.6875 26.59375 7.296875 
z
" id="CMR17-49"/>
     </defs>
     <g transform="translate(68.542787 248.103782)rotate(-45)scale(0.14 -0.14)">
      <use transform="scale(0.996264)" xlink:href="#CMR17-48"/>
      <use transform="translate(45.690477 0)scale(0.996264)" xlink:href="#CMR17-49"/>
     </g>
    </g>
   </g>
   <g id="xtick_3">
    <g id="line2d_4">
     <path d="M 134.657625 228.095506 
L 131.977203 229.956397 
" style="fill:none;stroke:#000000;stroke-linecap:square;stroke-width:0.8;"/>
    </g>
    <g id="text_3">
     <!-- 10 -->
     <g transform="translate(114.7934 259.312128)rotate(-45)scale(0.14 -0.14)">
      <use transform="scale(0.996264)" xlink:href="#CMR17-49"/>
      <use transform="translate(45.690477 0)scale(0.996264)" xlink:href="#CMR17-48"/>
     </g>
    </g>
   </g>
   <g id="xtick_4">
    <g id="line2d_5">
     <path d="M 181.962926 239.365727 
L 179.342936 241.270032 
" style="fill:none;stroke:#000000;stroke-linecap:square;stroke-width:0.8;"/>
    </g>
    <g id="text_4">
     <!-- 11 -->
     <g transform="translate(162.118375 270.780834)rotate(-45)scale(0.14 -0.14)">
      <use transform="scale(0.996264)" xlink:href="#CMR17-49"/>
      <use transform="translate(45.690477 0)scale(0.996264)" xlink:href="#CMR17-49"/>
     </g>
    </g>
   </g>
  </g>
  <g id="axis3d_2">
   <g id="line2d_6">
    <path d="M 305.111665 171.581202 
L 205.419617 245.80086 
" style="fill:none;stroke:#000000;stroke-linecap:square;stroke-width:0.8;"/>
   </g>
   <g id="Line3DCollection_2">
    <path d="M 27.455231 56.547028 
L 34.471044 192.413474 
L 218.858418 235.795817 
" style="fill:none;stroke:#b0b0b0;stroke-width:0.8;"/>
    <path d="M 57.232024 40.730342 
L 62.623407 174.842005 
L 244.674037 216.576366 
" style="fill:none;stroke:#b0b0b0;stroke-width:0.8;"/>
    <path d="M 85.85589 25.526062 
L 89.739382 157.917404 
L 269.496985 198.095948 
" style="fill:none;stroke:#b0b0b0;stroke-width:0.8;"/>
    <path d="M 113.392516 10.899296 
L 115.875164 141.604597 
L 293.383438 180.312741 
" style="fill:none;stroke:#b0b0b0;stroke-width:0.8;"/>
   </g>
   <g id="xtick_5">
    <g id="line2d_7">
     <path d="M 217.315598 235.432825 
L 221.947489 236.522608 
" style="fill:none;stroke:#000000;stroke-linecap:square;stroke-width:0.8;"/>
    </g>
    <g id="text_5">
     <!-- 00 -->
     <g transform="translate(232.650369 248.348363)rotate(-337.5)scale(0.14 -0.14)">
      <use transform="scale(0.996264)" xlink:href="#CMR17-48"/>
      <use transform="translate(45.690477 0)scale(0.996264)" xlink:href="#CMR17-48"/>
     </g>
    </g>
   </g>
   <g id="xtick_6">
    <g id="line2d_8">
     <path d="M 243.15208 216.227463 
L 247.72127 217.274932 
" style="fill:none;stroke:#000000;stroke-linecap:square;stroke-width:0.8;"/>
    </g>
    <g id="text_6">
     <!-- 01 -->
     <g transform="translate(258.203921 228.903937)rotate(-337.5)scale(0.14 -0.14)">
      <use transform="scale(0.996264)" xlink:href="#CMR17-48"/>
      <use transform="translate(45.690477 0)scale(0.996264)" xlink:href="#CMR17-49"/>
     </g>
    </g>
   </g>
   <g id="xtick_7">
    <g id="line2d_9">
     <path d="M 267.995442 197.76033 
L 272.503283 198.767901 
" style="fill:none;stroke:#000000;stroke-linecap:square;stroke-width:0.8;"/>
    </g>
    <g id="text_7">
     <!-- 10 -->
     <g transform="translate(282.775332 210.206849)rotate(-337.5)scale(0.14 -0.14)">
      <use transform="scale(0.996264)" xlink:href="#CMR17-49"/>
      <use transform="translate(45.690477 0)scale(0.996264)" xlink:href="#CMR17-48"/>
     </g>
    </g>
   </g>
   <g id="xtick_8">
    <g id="line2d_10">
     <path d="M 291.901865 179.989663 
L 296.349691 180.959573 
" style="fill:none;stroke:#000000;stroke-linecap:square;stroke-width:0.8;"/>
    </g>
    <g id="text_8">
     <!-- 11 -->
     <g transform="translate(306.420159 192.214827)rotate(-337.5)scale(0.14 -0.14)">
      <use transform="scale(0.996264)" xlink:href="#CMR17-49"/>
      <use transform="translate(45.690477 0)scale(0.996264)" xlink:href="#CMR17-49"/>
     </g>
    </g>
   </g>
  </g>
  <g id="axis3d_3">
   <g id="line2d_11">
    <path d="M 305.111665 171.581202 
L 312.491547 37.79869 
" style="fill:none;stroke:#000000;stroke-linecap:square;stroke-width:0.8;"/>
   </g>
   <g id="text_9">
    <!-- Re[$\rho$] -->
    <defs>
     <path d="M 39.203125 33.6875 
C 48.703125 35.59375 56.703125 42.015625 56.703125 50.046875 
C 56.703125 59.46875 46.09375 68 32.09375 68 
L 5.203125 68 
L 5.203125 65.390625 
C 12.09375 65.390625 13.203125 65.390625 13.203125 60.875 
L 13.203125 6.6875 
C 13.203125 2.1875 12.09375 2.1875 5.203125 2.1875 
L 5.203125 -0.40625 
C 8.09375 -0.203125 13.296875 -0.203125 16.40625 -0.203125 
C 19.5 -0.203125 24.703125 -0.203125 27.59375 -0.40625 
L 27.59375 2.1875 
C 20.703125 2.1875 19.59375 2.1875 19.59375 6.6875 
L 19.59375 33 
L 31.296875 33 
C 37 33 40.203125 30.6875 41.59375 29.390625 
C 45.59375 25.5 45.59375 22.796875 45.59375 16 
C 45.59375 9.296875 45.59375 5.890625 48.59375 2.5 
C 52.40625 -1.609375 57.5 -2 59.703125 -2 
C 67.09375 -2 68.203125 6.296875 68.203125 8 
C 68.203125 8.59375 68.203125 9.296875 67.296875 9.296875 
C 66.5 9.296875 66.40625 8.6875 66.40625 8.296875 
C 65.90625 1.796875 63 -0.40625 59.90625 -0.40625 
C 54.40625 -0.40625 53.796875 5.890625 53.203125 12 
C 52.90625 14.09375 52.703125 15.59375 52.5 17.796875 
C 51.90625 22.796875 51.09375 30.09375 39.203125 33.6875 
z
M 31 34.59375 
L 19.59375 34.59375 
L 19.59375 61.484375 
C 19.59375 64.890625 19.796875 65.390625 23.796875 65.390625 
L 31.09375 65.390625 
C 39.40625 65.390625 49.09375 62.484375 49.09375 50.046875 
C 49.09375 37.09375 38.5 34.59375 31 34.59375 
z
" id="CMR17-82"/>
     <path d="M 38.09375 23.484375 
C 38.5 23.890625 38.5 24.09375 38.5 25.09375 
C 38.5 35.171875 33.09375 44 21.703125 44 
C 11.09375 44 2.703125 33.984375 2.703125 21.78125 
C 2.703125 8.65625 12.203125 -1 22.796875 -1 
C 34 -1 38.40625 9.671875 38.40625 11.796875 
C 38.40625 12.5 37.796875 12.5 37.59375 12.5 
C 36.90625 12.5 36.796875 12.296875 36.40625 11.078125 
C 34.203125 4.21875 28.703125 0.796875 23.5 0.796875 
C 19.203125 0.796875 14.90625 3.21875 12.203125 7.65625 
C 9.09375 12.796875 9.09375 18.75 9.09375 23.484375 
z
M 9.203125 25 
C 9.90625 39.234375 17.59375 42.390625 21.59375 42.390625 
C 28.40625 42.390625 33 36.0625 33.09375 25 
z
" id="CMR17-101"/>
     <path d="M 23.5 -25 
L 23.5 -21.5 
L 14.09375 -21.5 
L 14.09375 71.484375 
L 23.5 71.484375 
L 23.5 75 
L 10.59375 75 
L 10.59375 -25 
z
" id="CMR17-91"/>
     <path d="M 3.09375 -16.953125 
C 3 -17.4375 2.796875 -18.03125 2.796875 -18.609375 
C 2.796875 -20.109375 4 -21.109375 5.5 -21.109375 
C 7 -21.109375 8.40625 -20.109375 9 -18.71875 
C 9.40625 -17.828125 12.203125 -6.09375 15.40625 6.078125 
C 17.40625 1.09375 21.09375 -1 25 -1 
C 36.296875 -1 49.09375 12.96875 49.09375 28.03125 
C 49.09375 38.703125 42.59375 44 35.703125 44 
C 26.90625 44 16.203125 34.90625 12.90625 21.640625 
z
M 24.90625 1 
C 18.09375 1 16.40625 8.875 16.40625 10.078125 
C 16.40625 10.671875 18.90625 20.140625 19.203125 21.640625 
C 24.296875 41.5 34.09375 41.984375 35.59375 41.984375 
C 40.09375 41.984375 42.59375 37.90625 42.59375 32.015625 
C 42.59375 26.9375 39.90625 17.046875 38.203125 12.859375 
C 35.203125 5.984375 30 1 24.90625 1 
z
" id="CMMI12-26"/>
     <path d="M 14.296875 75 
L 1.40625 75 
L 1.40625 71.484375 
L 10.796875 71.484375 
L 10.796875 -21.5 
L 1.40625 -21.5 
L 1.40625 -25 
L 14.296875 -25 
z
" id="CMR17-93"/>
    </defs>
    <g transform="translate(352.486567 117.931831)rotate(-86.842577)scale(0.14 -0.14)">
     <use transform="scale(0.996264)" xlink:href="#CMR17-82"/>
     <use transform="translate(67.791102 0)scale(0.996264)" xlink:href="#CMR17-101"/>
     <use transform="translate(108.276762 0)scale(0.996264)" xlink:href="#CMR17-91"/>
     <use transform="translate(133.147821 0)scale(0.996264)" xlink:href="#CMMI12-26"/>
     <use transform="translate(183.462194 0)scale(0.996264)" xlink:href="#CMR17-93"/>
    </g>
   </g>
   <g id="Line3DCollection_3">
    <path d="M 305.465744 165.162456 
L 128.63605 127.341619 
L 19.457478 194.997419 
" style="fill:none;stroke:#b0b0b0;stroke-width:0.8;"/>
    <path d="M 307.088826 135.739224 
L 128.236745 98.737083 
L 17.725544 164.953409 
" style="fill:none;stroke:#b0b0b0;stroke-width:0.8;"/>
    <path d="M 308.749793 105.629218 
L 127.828516 69.493257 
L 15.951827 134.184583 
" style="fill:none;stroke:#b0b0b0;stroke-width:0.8;"/>
    <path d="M 310.449986 74.808107 
L 127.41106 39.588467 
L 14.134796 102.664392 
" style="fill:none;stroke:#b0b0b0;stroke-width:0.8;"/>
    <path d="M 312.190813 43.2504 
L 126.984061 9.000049 
L 12.272846 70.364972 
" style="fill:none;stroke:#b0b0b0;stroke-width:0.8;"/>
   </g>
   <g id="xtick_9">
    <g id="line2d_12">
     <path d="M 303.990261 164.846875 
L 308.419785 165.794274 
" style="fill:none;stroke:#000000;stroke-linecap:square;stroke-width:0.8;"/>
    </g>
    <g id="text_10">
     <!-- $0.0$ -->
     <defs>
      <path d="M 18.40625 4.796875 
C 18.40625 7.6875 16 9.6875 13.59375 9.6875 
C 10.703125 9.6875 8.703125 7.296875 8.703125 4.890625 
C 8.703125 2 11.09375 0 13.5 0 
C 16.40625 0 18.40625 2.390625 18.40625 4.796875 
z
" id="CMMI12-58"/>
     </defs>
     <g transform="translate(315.295908 172.912719)scale(0.14 -0.14)">
      <use transform="scale(0.996264)" xlink:href="#CMR17-48"/>
      <use transform="translate(45.690477 0)scale(0.996264)" xlink:href="#CMMI12-58"/>
      <use transform="translate(72.787654 0)scale(0.996264)" xlink:href="#CMR17-48"/>
     </g>
    </g>
   </g>
   <g id="xtick_10">
    <g id="line2d_13">
     <path d="M 305.595758 135.430328 
L 310.078109 136.357667 
" style="fill:none;stroke:#000000;stroke-linecap:square;stroke-width:0.8;"/>
    </g>
    <g id="text_11">
     <!-- $0.1$ -->
     <g transform="translate(317.129092 143.530526)scale(0.14 -0.14)">
      <use transform="scale(0.996264)" xlink:href="#CMR17-48"/>
      <use transform="translate(45.690477 0)scale(0.996264)" xlink:href="#CMMI12-58"/>
      <use transform="translate(72.787654 0)scale(0.996264)" xlink:href="#CMR17-49"/>
     </g>
    </g>
   </g>
   <g id="xtick_11">
    <g id="line2d_14">
     <path d="M 307.238716 105.327406 
L 311.775168 106.233485 
" style="fill:none;stroke:#000000;stroke-linecap:square;stroke-width:0.8;"/>
    </g>
    <g id="text_12">
     <!-- $0.2$ -->
     <defs>
      <path d="M 41.703125 15.46875 
L 39.90625 15.46875 
C 38.90625 8.390625 38.09375 7.1875 37.703125 6.59375 
C 37.203125 5.796875 30 5.796875 28.59375 5.796875 
L 9.40625 5.796875 
C 13 9.6875 20 16.765625 28.5 24.9375 
C 34.59375 30.71875 41.703125 37.5 41.703125 47.390625 
C 41.703125 59.1875 32.296875 66 21.796875 66 
C 10.796875 66 4.09375 56.296875 4.09375 47.296875 
C 4.09375 43.390625 7 42.890625 8.203125 42.890625 
C 9.203125 42.890625 12.203125 43.484375 12.203125 46.984375 
C 12.203125 50.09375 9.59375 51 8.203125 51 
C 7.59375 51 7 50.890625 6.59375 50.6875 
C 8.5 59.1875 14.296875 63.390625 20.40625 63.390625 
C 29.09375 63.390625 34.796875 56.5 34.796875 47.390625 
C 34.796875 38.703125 29.703125 31.21875 24 24.734375 
L 4.09375 2.296875 
L 4.09375 0 
L 39.296875 0 
z
" id="CMR17-50"/>
     </defs>
     <g transform="translate(319.004971 113.464008)scale(0.14 -0.14)">
      <use transform="scale(0.996264)" xlink:href="#CMR17-48"/>
      <use transform="translate(45.690477 0)scale(0.996264)" xlink:href="#CMMI12-58"/>
      <use transform="translate(72.787654 0)scale(0.996264)" xlink:href="#CMR17-50"/>
     </g>
    </g>
   </g>
   <g id="xtick_12">
    <g id="line2d_15">
     <path d="M 308.920462 74.513802 
L 313.512334 75.397352 
" style="fill:none;stroke:#000000;stroke-linecap:square;stroke-width:0.8;"/>
    </g>
    <g id="text_13">
     <!-- $0.3$ -->
     <defs>
      <path d="M 22.09375 34 
C 31 34 34.90625 26.140625 34.90625 17.09375 
C 34.90625 5.03125 28.5 0.390625 22.703125 0.390625 
C 17.40625 0.390625 8.796875 3.015625 6.09375 10.796875 
C 6.59375 10.59375 7.09375 10.59375 7.59375 10.59375 
C 10 10.59375 11.796875 12.1875 11.796875 14.796875 
C 11.796875 17.6875 9.59375 19 7.59375 19 
C 5.90625 19 3.296875 18.1875 3.296875 14.484375 
C 3.296875 5.234375 12.296875 -2 22.90625 -2 
C 34 -2 42.5 6.75 42.5 16.984375 
C 42.5 26.84375 34.5 34 25 35.09375 
C 32.59375 36.671875 39.90625 43.375 39.90625 52.390625 
C 39.90625 60.25 32 66 23 66 
C 13.90625 66 5.90625 60.34375 5.90625 52.296875 
C 5.90625 48.796875 8.5 48.1875 9.796875 48.1875 
C 11.90625 48.1875 13.703125 49.484375 13.703125 52.09375 
C 13.703125 54.6875 11.90625 56 9.796875 56 
C 9.40625 56 8.90625 56 8.5 55.796875 
C 11.40625 62.484375 19.296875 63.6875 22.796875 63.6875 
C 26.296875 63.6875 32.90625 61.96875 32.90625 52.296875 
C 32.90625 49.484375 32.5 44.546875 29.09375 40.21875 
C 26.09375 36.390625 22.703125 36.1875 19.40625 35.890625 
C 18.90625 35.890625 16.59375 35.6875 16.203125 35.6875 
C 15.5 35.59375 15.09375 35.5 15.09375 34.796875 
C 15.09375 34.09375 15.203125 34 17.203125 34 
z
" id="CMR17-51"/>
     </defs>
     <g transform="translate(320.925055 82.688977)scale(0.14 -0.14)">
      <use transform="scale(0.996264)" xlink:href="#CMR17-48"/>
      <use transform="translate(45.690477 0)scale(0.996264)" xlink:href="#CMMI12-58"/>
      <use transform="translate(72.787654 0)scale(0.996264)" xlink:href="#CMR17-51"/>
     </g>
    </g>
   </g>
   <g id="xtick_13">
    <g id="line2d_16">
     <path d="M 310.642385 42.964049 
L 315.291048 43.823728 
" style="fill:none;stroke:#000000;stroke-linecap:square;stroke-width:0.8;"/>
    </g>
    <g id="text_14">
     <!-- $0.4$ -->
     <defs>
      <path d="M 33.59375 64.796875 
C 33.59375 66.890625 33.5 67 31.703125 67 
L 2 19.59375 
L 2 17 
L 27.796875 17 
L 27.796875 7.1875 
C 27.796875 3.59375 27.59375 2.59375 20.59375 2.59375 
L 18.703125 2.59375 
L 18.703125 0 
C 21.90625 0.1875 27.296875 0.1875 30.703125 0.1875 
C 34.09375 0.1875 39.5 0.1875 42.703125 0 
L 42.703125 2.59375 
L 40.796875 2.59375 
C 33.796875 2.59375 33.59375 3.59375 33.59375 7.1875 
L 33.59375 17 
L 43.796875 17 
L 43.796875 19.59375 
L 33.59375 19.59375 
z
M 28.09375 58.171875 
L 28.09375 19.59375 
L 4 19.59375 
z
" id="CMR17-52"/>
     </defs>
     <g transform="translate(322.890926 51.180091)scale(0.14 -0.14)">
      <use transform="scale(0.996264)" xlink:href="#CMR17-48"/>
      <use transform="translate(45.690477 0)scale(0.996264)" xlink:href="#CMMI12-58"/>
      <use transform="translate(72.787654 0)scale(0.996264)" xlink:href="#CMR17-52"/>
     </g>
    </g>
   </g>
  </g>
  <g id="axes_1">
   <g id="Poly3DCollection_1">
    <path clip-path="url(#p946d46cc8f)" d="M 133.005166 133.689599 
L 133.006699 133.814228 
L 154.423939 138.424069 
L 154.423437 138.29901 
z
" style="fill:#ba0c2f;fill-opacity:0.8;"/>
    <path clip-path="url(#p946d46cc8f)" d="M 120.205186 141.704122 
L 120.207357 141.829498 
L 133.006699 133.814228 
L 133.005166 133.689599 
z
" style="fill:#5d0618;fill-opacity:0.8;"/>
    <path clip-path="url(#p946d46cc8f)" d="M 120.207357 141.829498 
L 141.753267 146.524071 
L 154.423939 138.424069 
L 133.006699 133.814228 
z
" style="fill:#a30a29;fill-opacity:0.8;"/>
    <path clip-path="url(#p946d46cc8f)" d="M 120.205186 141.704122 
L 133.005166 133.689599 
L 154.423437 138.29901 
L 141.75214 146.398261 
z
" style="fill:#74081d;fill-opacity:0.8;"/>
    <path clip-path="url(#p946d46cc8f)" d="M 141.75214 146.398261 
L 154.423437 138.29901 
L 154.423939 138.424069 
L 141.753267 146.524071 
z
" style="fill:#ba0c2f;fill-opacity:0.8;"/>
    <path clip-path="url(#p946d46cc8f)" d="M 120.205186 141.704122 
L 141.75214 146.398261 
L 141.753267 146.524071 
L 120.207357 141.829498 
z
" style="fill:#5d0618;fill-opacity:0.8;"/>
   </g>
   <g id="Poly3DCollection_2">
    <path clip-path="url(#p946d46cc8f)" d="M 176.067698 142.957055 
L 176.056976 145.398584 
L 197.909898 150.114484 
L 197.941546 147.66451 
z
" style="fill:#ba0c2f;fill-opacity:0.8;"/>
    <path clip-path="url(#p946d46cc8f)" d="M 163.528537 151.142386 
L 163.529725 153.598569 
L 176.056976 145.398584 
L 176.067698 142.957055 
z
" style="fill:#5d0618;fill-opacity:0.8;"/>
    <path clip-path="url(#p946d46cc8f)" d="M 163.529725 153.598569 
L 185.518066 158.402 
L 197.909898 150.114484 
L 176.056976 145.398584 
z
" style="fill:#a30a29;fill-opacity:0.8;"/>
    <path clip-path="url(#p946d46cc8f)" d="M 163.528537 151.142386 
L 176.067698 142.957055 
L 197.941546 147.66451 
L 185.538064 155.937299 
z
" style="fill:#74081d;fill-opacity:0.8;"/>
    <path clip-path="url(#p946d46cc8f)" d="M 185.538064 155.937299 
L 197.941546 147.66451 
L 197.909898 150.114484 
L 185.518066 158.402 
z
" style="fill:#ba0c2f;fill-opacity:0.8;"/>
    <path clip-path="url(#p946d46cc8f)" d="M 163.528537 151.142386 
L 185.538064 155.937299 
L 185.518066 158.402 
L 163.529725 153.598569 
z
" style="fill:#5d0618;fill-opacity:0.8;"/>
   </g>
   <g id="Poly3DCollection_3">
    <path clip-path="url(#p946d46cc8f)" d="M 107.169461 149.866254 
L 107.255484 153.698282 
L 128.900155 158.49278 
L 128.846219 154.647479 
z
" style="fill:#ba0c2f;fill-opacity:0.8;"/>
    <path clip-path="url(#p946d46cc8f)" d="M 93.891418 158.180109 
L 93.998253 162.035168 
L 107.255484 153.698282 
L 107.169461 149.866254 
z
" style="fill:#5d0618;fill-opacity:0.8;"/>
    <path clip-path="url(#p946d46cc8f)" d="M 93.998253 162.035168 
L 115.773462 166.919311 
L 128.900155 158.49278 
L 107.255484 153.698282 
z
" style="fill:#a30a29;fill-opacity:0.8;"/>
    <path clip-path="url(#p946d46cc8f)" d="M 93.891418 158.180109 
L 107.169461 149.866254 
L 128.846219 154.647479 
L 115.699099 163.050867 
z
" style="fill:#74081d;fill-opacity:0.8;"/>
    <path clip-path="url(#p946d46cc8f)" d="M 115.699099 163.050867 
L 128.846219 154.647479 
L 128.900155 158.49278 
L 115.773462 166.919311 
z
" style="fill:#ba0c2f;fill-opacity:0.8;"/>
    <path clip-path="url(#p946d46cc8f)" d="M 93.891418 158.180109 
L 115.699099 163.050867 
L 115.773462 166.919311 
L 93.998253 162.035168 
z
" style="fill:#5d0618;fill-opacity:0.8;"/>
   </g>
   <g id="Poly3DCollection_4">
    <path clip-path="url(#p946d46cc8f)" d="M 220.048651 152.422164 
L 220.189733 145.880316 
L 242.591938 150.666158 
L 242.392767 157.230825 
z
" style="fill:#5d0618;fill-opacity:0.8;"/>
    <path clip-path="url(#p946d46cc8f)" d="M 207.784484 160.783821 
L 207.895292 154.202378 
L 220.189733 145.880316 
L 220.048651 152.422164 
z
" style="fill:#ba0c2f;fill-opacity:0.8;"/>
    <path clip-path="url(#p946d46cc8f)" d="M 207.784484 160.783821 
L 220.048651 152.422164 
L 242.392767 157.230825 
L 230.271643 165.682789 
z
" style="fill:#74081d;fill-opacity:0.8;"/>
    <path clip-path="url(#p946d46cc8f)" d="M 207.895292 154.202378 
L 230.441292 159.078332 
L 242.591938 150.666158 
L 220.189733 145.880316 
z
" style="fill:#a30a29;fill-opacity:0.8;"/>
    <path clip-path="url(#p946d46cc8f)" d="M 230.271643 165.682789 
L 242.392767 157.230825 
L 242.591938 150.666158 
L 230.441292 159.078332 
z
" style="fill:#5d0618;fill-opacity:0.8;"/>
    <path clip-path="url(#p946d46cc8f)" d="M 207.784484 160.783821 
L 230.271643 165.682789 
L 230.441292 159.078332 
L 207.895292 154.202378 
z
" style="fill:#ba0c2f;fill-opacity:0.8;"/>
   </g>
   <g id="Poly3DCollection_5">
    <path clip-path="url(#p946d46cc8f)" d="M 150.755953 159.480091 
L 150.768617 161.790447 
L 172.895047 166.683312 
L 172.902438 164.364923 
z
" style="fill:#ba0c2f;fill-opacity:0.8;"/>
    <path clip-path="url(#p946d46cc8f)" d="M 137.743365 167.974465 
L 137.76802 170.298759 
L 150.768617 161.790447 
L 150.755953 159.480091 
z
" style="fill:#5d0618;fill-opacity:0.8;"/>
    <path clip-path="url(#p946d46cc8f)" d="M 137.76802 170.298759 
L 160.032435 175.284162 
L 172.895047 166.683312 
L 150.768617 161.790447 
z
" style="fill:#a30a29;fill-opacity:0.8;"/>
    <path clip-path="url(#p946d46cc8f)" d="M 137.743365 167.974465 
L 150.755953 159.480091 
L 172.902438 164.364923 
L 160.028087 172.951769 
z
" style="fill:#74081d;fill-opacity:0.8;"/>
    <path clip-path="url(#p946d46cc8f)" d="M 160.028087 172.951769 
L 172.902438 164.364923 
L 172.895047 166.683312 
L 160.032435 175.284162 
z
" style="fill:#ba0c2f;fill-opacity:0.8;"/>
    <path clip-path="url(#p946d46cc8f)" d="M 137.743365 167.974465 
L 160.028087 172.951769 
L 160.032435 175.284162 
L 137.76802 170.298759 
z
" style="fill:#5d0618;fill-opacity:0.8;"/>
   </g>
   <g id="Poly3DCollection_6">
    <path clip-path="url(#p946d46cc8f)" d="M 80.364236 166.64996 
L 80.121563 159.321069 
L 102.12338 164.258215 
L 102.303954 171.612788 
z
" style="fill:#5d0618;fill-opacity:0.8;"/>
    <path clip-path="url(#p946d46cc8f)" d="M 66.580837 175.280236 
L 66.295854 167.906785 
L 80.121563 159.321069 
L 80.364236 166.64996 
z
" style="fill:#ba0c2f;fill-opacity:0.8;"/>
    <path clip-path="url(#p946d46cc8f)" d="M 66.580837 175.280236 
L 80.364236 166.64996 
L 102.303954 171.612788 
L 88.653697 180.337771 
z
" style="fill:#74081d;fill-opacity:0.8;"/>
    <path clip-path="url(#p946d46cc8f)" d="M 66.295854 167.906785 
L 88.431561 172.938423 
L 102.12338 164.258215 
L 80.121563 159.321069 
z
" style="fill:#a30a29;fill-opacity:0.8;"/>
    <path clip-path="url(#p946d46cc8f)" d="M 88.653697 180.337771 
L 102.303954 171.612788 
L 102.12338 164.258215 
L 88.431561 172.938423 
z
" style="fill:#5d0618;fill-opacity:0.8;"/>
    <path clip-path="url(#p946d46cc8f)" d="M 66.580837 175.280236 
L 88.653697 180.337771 
L 88.431561 172.938423 
L 66.295854 167.906785 
z
" style="fill:#ba0c2f;fill-opacity:0.8;"/>
   </g>
   <g id="Poly3DCollection_7">
    <path clip-path="url(#p946d46cc8f)" d="M 253.003468 170.63506 
L 264.977723 162.091317 
L 287.807437 167.004483 
L 275.983976 175.641507 
z
" style="fill:#74081d;fill-opacity:0.8;"/>
    <path clip-path="url(#p946d46cc8f)" d="M 264.977723 162.091317 
L 266.740732 117.16456 
L 289.984032 121.916896 
L 287.807437 167.004483 
z
" style="fill:#5d0618;fill-opacity:0.8;"/>
    <path clip-path="url(#p946d46cc8f)" d="M 253.003468 170.63506 
L 254.570698 125.42921 
L 266.740732 117.16456 
L 264.977723 162.091317 
z
" style="fill:#ba0c2f;fill-opacity:0.8;"/>
    <path clip-path="url(#p946d46cc8f)" d="M 275.983976 175.641507 
L 287.807437 167.004483 
L 289.984032 121.916896 
L 277.970384 130.273389 
z
" style="fill:#5d0618;fill-opacity:0.8;"/>
    <path clip-path="url(#p946d46cc8f)" d="M 253.003468 170.63506 
L 275.983976 175.641507 
L 277.970384 130.273389 
L 254.570698 125.42921 
z
" style="fill:#ba0c2f;fill-opacity:0.8;"/>
    <path clip-path="url(#p946d46cc8f)" d="M 254.570698 125.42921 
L 277.970384 130.273389 
L 289.984032 121.916896 
L 266.740732 117.16456 
z
" style="fill:#a30a29;fill-opacity:0.8;"/>
   </g>
   <g id="Poly3DCollection_8">
    <path clip-path="url(#p946d46cc8f)" d="M 240.801409 179.341344 
L 241.001292 172.673438 
L 264.196479 177.752418 
L 263.934338 184.443755 
z
" style="fill:#5d0618;fill-opacity:0.8;"/>
    <path clip-path="url(#p946d46cc8f)" d="M 228.364982 188.214851 
L 228.533781 181.506292 
L 241.001292 172.673438 
L 240.801409 179.341344 
z
" style="fill:#ba0c2f;fill-opacity:0.8;"/>
    <path clip-path="url(#p946d46cc8f)" d="M 228.364982 188.214851 
L 240.801409 179.341344 
L 263.934338 184.443755 
L 251.651969 193.416012 
z
" style="fill:#74081d;fill-opacity:0.8;"/>
    <path clip-path="url(#p946d46cc8f)" d="M 228.533781 181.506292 
L 251.883866 186.683831 
L 264.196479 177.752418 
L 241.001292 172.673438 
z
" style="fill:#a30a29;fill-opacity:0.8;"/>
    <path clip-path="url(#p946d46cc8f)" d="M 251.651969 193.416012 
L 263.934338 184.443755 
L 264.196479 177.752418 
L 251.883866 186.683831 
z
" style="fill:#5d0618;fill-opacity:0.8;"/>
    <path clip-path="url(#p946d46cc8f)" d="M 228.364982 188.214851 
L 251.651969 193.416012 
L 251.883866 186.683831 
L 228.533781 181.506292 
z
" style="fill:#ba0c2f;fill-opacity:0.8;"/>
   </g>
   <g id="Poly3DCollection_9">
    <path clip-path="url(#p946d46cc8f)" d="M 169.580717 186.830987 
L 169.576236 189.185704 
L 192.479729 194.379643 
L 192.5057 192.016685 
z
" style="fill:#ba0c2f;fill-opacity:0.8;"/>
    <path clip-path="url(#p946d46cc8f)" d="M 156.352932 195.849635 
L 156.360844 198.21865 
L 169.576236 189.185704 
L 169.580717 186.830987 
z
" style="fill:#5d0618;fill-opacity:0.8;"/>
    <path clip-path="url(#p946d46cc8f)" d="M 156.360844 198.21865 
L 179.41291 203.513843 
L 192.479729 194.379643 
L 169.576236 189.185704 
z
" style="fill:#a30a29;fill-opacity:0.8;"/>
    <path clip-path="url(#p946d46cc8f)" d="M 156.352932 195.849635 
L 169.580717 186.830987 
L 192.5057 192.016685 
L 179.426768 201.136522 
z
" style="fill:#74081d;fill-opacity:0.8;"/>
    <path clip-path="url(#p946d46cc8f)" d="M 179.426768 201.136522 
L 192.5057 192.016685 
L 192.479729 194.379643 
L 179.41291 203.513843 
z
" style="fill:#ba0c2f;fill-opacity:0.8;"/>
    <path clip-path="url(#p946d46cc8f)" d="M 156.352932 195.849635 
L 179.426768 201.136522 
L 179.41291 203.513843 
L 156.360844 198.21865 
z
" style="fill:#5d0618;fill-opacity:0.8;"/>
   </g>
   <g id="Poly3DCollection_10">
    <path clip-path="url(#p946d46cc8f)" d="M 110.970605 185.451224 
L 124.483946 176.629966 
L 146.908182 181.702394 
L 133.53563 190.621527 
z
" style="fill:#74081d;fill-opacity:0.8;"/>
    <path clip-path="url(#p946d46cc8f)" d="M 124.483946 176.629966 
L 123.752911 130.553695 
L 146.582257 135.460364 
L 146.908182 181.702394 
z
" style="fill:#5d0618;fill-opacity:0.8;"/>
    <path clip-path="url(#p946d46cc8f)" d="M 110.970605 185.451224 
L 109.984828 139.087319 
L 123.752911 130.553695 
L 124.483946 176.629966 
z
" style="fill:#ba0c2f;fill-opacity:0.8;"/>
    <path clip-path="url(#p946d46cc8f)" d="M 133.53563 190.621527 
L 146.908182 181.702394 
L 146.582257 135.460364 
L 132.960087 144.090413 
z
" style="fill:#5d0618;fill-opacity:0.8;"/>
    <path clip-path="url(#p946d46cc8f)" d="M 110.970605 185.451224 
L 133.53563 190.621527 
L 132.960087 144.090413 
L 109.984828 139.087319 
z
" style="fill:#ba0c2f;fill-opacity:0.8;"/>
    <path clip-path="url(#p946d46cc8f)" d="M 109.984828 139.087319 
L 132.960087 144.090413 
L 146.582257 135.460364 
L 123.752911 130.553695 
z
" style="fill:#a30a29;fill-opacity:0.8;"/>
   </g>
   <g id="Poly3DCollection_11">
    <path clip-path="url(#p946d46cc8f)" d="M 97.195977 194.443044 
L 96.995755 186.972321 
L 119.769374 192.217009 
L 119.903062 199.714084 
z
" style="fill:#5d0618;fill-opacity:0.8;"/>
    <path clip-path="url(#p946d46cc8f)" d="M 83.152411 203.610422 
L 82.908208 196.09398 
L 96.995755 186.972321 
L 97.195977 194.443044 
z
" style="fill:#ba0c2f;fill-opacity:0.8;"/>
    <path clip-path="url(#p946d46cc8f)" d="M 83.152411 203.610422 
L 97.195977 194.443044 
L 119.903062 199.714084 
L 106.00282 208.985172 
z
" style="fill:#74081d;fill-opacity:0.8;"/>
    <path clip-path="url(#p946d46cc8f)" d="M 82.908208 196.09398 
L 105.825989 201.442171 
L 119.769374 192.217009 
L 96.995755 186.972321 
z
" style="fill:#a30a29;fill-opacity:0.8;"/>
    <path clip-path="url(#p946d46cc8f)" d="M 106.00282 208.985172 
L 119.903062 199.714084 
L 119.769374 192.217009 
L 105.825989 201.442171 
z
" style="fill:#5d0618;fill-opacity:0.8;"/>
    <path clip-path="url(#p946d46cc8f)" d="M 83.152411 203.610422 
L 106.00282 208.985172 
L 105.825989 201.442171 
L 82.908208 196.09398 
z
" style="fill:#ba0c2f;fill-opacity:0.8;"/>
   </g>
   <g id="Poly3DCollection_12">
    <path clip-path="url(#p946d46cc8f)" d="M 215.687369 197.260446 
L 215.636095 199.796515 
L 239.054759 205.108214 
L 239.130061 202.563251 
z
" style="fill:#ba0c2f;fill-opacity:0.8;"/>
    <path clip-path="url(#p946d46cc8f)" d="M 202.761487 206.483185 
L 202.722854 209.034683 
L 215.636095 199.796515 
L 215.687369 197.260446 
z
" style="fill:#5d0618;fill-opacity:0.8;"/>
    <path clip-path="url(#p946d46cc8f)" d="M 202.722854 209.034683 
L 226.298552 214.451103 
L 239.054759 205.108214 
L 215.636095 199.796515 
z
" style="fill:#a30a29;fill-opacity:0.8;"/>
    <path clip-path="url(#p946d46cc8f)" d="M 202.761487 206.483185 
L 215.687369 197.260446 
L 239.130061 202.563251 
L 226.361538 211.890643 
z
" style="fill:#74081d;fill-opacity:0.8;"/>
    <path clip-path="url(#p946d46cc8f)" d="M 226.361538 211.890643 
L 239.130061 202.563251 
L 239.054759 205.108214 
L 226.298552 214.451103 
z
" style="fill:#ba0c2f;fill-opacity:0.8;"/>
    <path clip-path="url(#p946d46cc8f)" d="M 202.761487 206.483185 
L 226.361538 211.890643 
L 226.298552 214.451103 
L 202.722854 209.034683 
z
" style="fill:#5d0618;fill-opacity:0.8;"/>
   </g>
   <g id="Poly3DCollection_13">
    <path clip-path="url(#p946d46cc8f)" d="M 182.55722 177.983663 
L 195.289533 169.302826 
L 217.92118 174.29467 
L 205.334807 183.071049 
z
" style="fill:#74081d;fill-opacity:0.8;"/>
    <path clip-path="url(#p946d46cc8f)" d="M 195.289533 169.302826 
L 196.320794 83.262861 
L 219.727276 87.938415 
L 217.92118 174.29467 
z
" style="fill:#5d0618;fill-opacity:0.8;"/>
    <path clip-path="url(#p946d46cc8f)" d="M 182.55722 177.983663 
L 183.164178 91.394777 
L 196.320794 83.262861 
L 195.289533 169.302826 
z
" style="fill:#ba0c2f;fill-opacity:0.8;"/>
    <path clip-path="url(#p946d46cc8f)" d="M 205.334807 183.071049 
L 217.92118 174.29467 
L 219.727276 87.938415 
L 206.726842 96.162896 
z
" style="fill:#5d0618;fill-opacity:0.8;"/>
    <path clip-path="url(#p946d46cc8f)" d="M 182.55722 177.983663 
L 205.334807 183.071049 
L 206.726842 96.162896 
L 183.164178 91.394777 
z
" style="fill:#ba0c2f;fill-opacity:0.8;"/>
    <path clip-path="url(#p946d46cc8f)" d="M 183.164178 91.394777 
L 206.726842 96.162896 
L 219.727276 87.938415 
L 196.320794 83.262861 
z
" style="fill:#a30a29;fill-opacity:0.8;"/>
   </g>
   <g id="Poly3DCollection_14">
    <path clip-path="url(#p946d46cc8f)" d="M 142.866495 205.044631 
L 142.90122 209.025184 
L 166.088534 214.430216 
L 166.090642 210.435698 
z
" style="fill:#ba0c2f;fill-opacity:0.8;"/>
    <path clip-path="url(#p946d46cc8f)" d="M 129.113744 214.421198 
L 129.17083 218.425978 
L 142.90122 209.025184 
L 142.866495 205.044631 
z
" style="fill:#5d0618;fill-opacity:0.8;"/>
    <path clip-path="url(#p946d46cc8f)" d="M 129.17083 218.425978 
L 152.509433 223.938404 
L 166.088534 214.430216 
L 142.90122 209.025184 
z
" style="fill:#a30a29;fill-opacity:0.8;"/>
    <path clip-path="url(#p946d46cc8f)" d="M 129.113744 214.421198 
L 142.866495 205.044631 
L 166.090642 210.435698 
L 152.489661 219.919555 
z
" style="fill:#74081d;fill-opacity:0.8;"/>
    <path clip-path="url(#p946d46cc8f)" d="M 152.489661 219.919555 
L 166.090642 210.435698 
L 166.088534 214.430216 
L 152.509433 223.938404 
z
" style="fill:#ba0c2f;fill-opacity:0.8;"/>
    <path clip-path="url(#p946d46cc8f)" d="M 129.113744 214.421198 
L 152.489661 219.919555 
L 152.509433 223.938404 
L 129.17083 218.425978 
z
" style="fill:#5d0618;fill-opacity:0.8;"/>
   </g>
   <g id="Poly3DCollection_15">
    <path clip-path="url(#p946d46cc8f)" d="M 189.579969 215.888321 
L 189.578659 216.020274 
L 213.336464 221.53598 
L 213.339043 221.403562 
z
" style="fill:#ba0c2f;fill-opacity:0.8;"/>
    <path clip-path="url(#p946d46cc8f)" d="M 176.135156 225.481321 
L 176.13455 225.61408 
L 189.578659 216.020274 
L 189.579969 215.888321 
z
" style="fill:#5d0618;fill-opacity:0.8;"/>
    <path clip-path="url(#p946d46cc8f)" d="M 176.13455 225.61408 
L 200.053028 231.240826 
L 213.336464 221.53598 
L 189.578659 216.020274 
z
" style="fill:#a30a29;fill-opacity:0.8;"/>
    <path clip-path="url(#p946d46cc8f)" d="M 176.135156 225.481321 
L 189.579969 215.888321 
L 213.339043 221.403562 
L 200.05492 231.107598 
z
" style="fill:#74081d;fill-opacity:0.8;"/>
    <path clip-path="url(#p946d46cc8f)" d="M 200.05492 231.107598 
L 213.339043 221.403562 
L 213.336464 221.53598 
L 200.053028 231.240826 
z
" style="fill:#ba0c2f;fill-opacity:0.8;"/>
    <path clip-path="url(#p946d46cc8f)" d="M 176.135156 225.481321 
L 200.05492 231.107598 
L 200.053028 231.240826 
L 176.13455 225.61408 
z
" style="fill:#5d0618;fill-opacity:0.8;"/>
   </g>
   <g id="Poly3DCollection_16">
    <path clip-path="url(#p946d46cc8f)" d="M 25.361352 194.381556 
L 203.800013 236.548922 
L 299.923685 165.740576 
L 130.00238 129.326788 
z
" style="fill-opacity:0.15;"/>
   </g>
   <g id="Poly3DCollection_17">
    <path clip-path="url(#p946d46cc8f)" d="M 38.215708 193.040653 
L 52.533872 184.075541 
L 74.740972 189.230519 
L 60.558134 198.295918 
z
" style="fill:#74081d;fill-opacity:0.8;"/>
    <path clip-path="url(#p946d46cc8f)" d="M 52.533872 184.075541 
L 46.933544 57.750519 
L 70.222556 62.427839 
L 74.740972 189.230519 
z
" style="fill:#5d0618;fill-opacity:0.8;"/>
    <path clip-path="url(#p946d46cc8f)" d="M 38.215708 193.040653 
L 31.836896 65.886594 
L 46.933544 57.750519 
L 52.533872 184.075541 
z
" style="fill:#ba0c2f;fill-opacity:0.8;"/>
    <path clip-path="url(#p946d46cc8f)" d="M 60.558134 198.295918 
L 74.740972 189.230519 
L 70.222556 62.427839 
L 55.274545 70.659531 
z
" style="fill:#5d0618;fill-opacity:0.8;"/>
    <path clip-path="url(#p946d46cc8f)" d="M 38.215708 193.040653 
L 60.558134 198.295918 
L 55.274545 70.659531 
L 31.836896 65.886594 
z
" style="fill:#ba0c2f;fill-opacity:0.8;"/>
    <path clip-path="url(#p946d46cc8f)" d="M 31.836896 65.886594 
L 55.274545 70.659531 
L 70.222556 62.427839 
L 46.933544 57.750519 
z
" style="fill:#a30a29;fill-opacity:0.8;"/>
   </g>
  </g>
  <g id="patch_6">
   <path d="M 425.945455 262.8 
L 806.4 262.8 
L 806.4 -14.4 
L 425.945455 -14.4 
z
" style="fill:#ffffff;"/>
  </g>
  <g id="pane3d_4">
   <g id="patch_7">
    <path d="M 476.380584 201.548569 
L 585.268665 133.58541 
L 583.455794 3.718968 
L 468.496488 64.782468 
" style="fill:#f2f2f2;opacity:0.5;stroke:#f2f2f2;stroke-linejoin:miter;"/>
   </g>
  </g>
  <g id="pane3d_5">
   <g id="patch_8">
    <path d="M 585.268665 133.58541 
L 761.65712 171.581202 
L 769.037001 37.79869 
L 583.455794 3.718968 
" style="fill:#e6e6e6;opacity:0.5;stroke:#e6e6e6;stroke-linejoin:miter;"/>
   </g>
  </g>
  <g id="pane3d_6">
   <g id="patch_9">
    <path d="M 476.380584 201.548569 
L 661.965072 245.80086 
L 761.65712 171.581202 
L 585.268665 133.58541 
" style="fill:#ececec;opacity:0.5;stroke:#ececec;stroke-linejoin:miter;"/>
   </g>
  </g>
  <g id="axis3d_4">
   <g id="line2d_17">
    <path d="M 476.380584 201.548569 
L 661.965072 245.80086 
" style="fill:none;stroke:#000000;stroke-linecap:square;stroke-width:0.8;"/>
   </g>
   <g id="Line3DCollection_4">
    <path d="M 498.841271 206.90428 
L 606.679397 138.19749 
L 605.9393 7.847789 
" style="fill:none;stroke:#b0b0b0;stroke-width:0.8;"/>
    <path d="M 544.057792 217.686079 
L 649.729469 147.470895 
L 651.182353 16.156123 
" style="fill:none;stroke:#b0b0b0;stroke-width:0.8;"/>
    <path d="M 590.310744 228.715013 
L 693.693551 156.941187 
L 697.435637 24.649974 
" style="fill:none;stroke:#b0b0b0;stroke-width:0.8;"/>
    <path d="M 637.636176 239.999678 
L 738.601063 166.614702 
L 744.733372 33.335625 
" style="fill:none;stroke:#b0b0b0;stroke-width:0.8;"/>
   </g>
   <g id="xtick_14">
    <g id="line2d_18">
     <path d="M 499.770538 206.312217 
L 496.979262 208.09062 
" style="fill:none;stroke:#000000;stroke-linecap:square;stroke-width:0.8;"/>
    </g>
    <g id="text_15">
     <!-- 00 -->
     <g transform="translate(479.875817 237.14703)rotate(-45)scale(0.14 -0.14)">
      <use transform="scale(0.996264)" xlink:href="#CMR17-48"/>
      <use transform="translate(45.690477 0)scale(0.996264)" xlink:href="#CMR17-48"/>
     </g>
    </g>
   </g>
   <g id="xtick_15">
    <g id="line2d_19">
     <path d="M 544.969128 217.080527 
L 542.231671 218.899473 
" style="fill:none;stroke:#000000;stroke-linecap:square;stroke-width:0.8;"/>
    </g>
    <g id="text_16">
     <!-- 01 -->
     <g transform="translate(525.088242 248.103782)rotate(-45)scale(0.14 -0.14)">
      <use transform="scale(0.996264)" xlink:href="#CMR17-48"/>
      <use transform="translate(45.690477 0)scale(0.996264)" xlink:href="#CMR17-49"/>
     </g>
    </g>
   </g>
   <g id="xtick_16">
    <g id="line2d_20">
     <path d="M 591.20308 228.095506 
L 588.522658 229.956397 
" style="fill:none;stroke:#000000;stroke-linecap:square;stroke-width:0.8;"/>
    </g>
    <g id="text_17">
     <!-- 10 -->
     <g transform="translate(571.338855 259.312128)rotate(-45)scale(0.14 -0.14)">
      <use transform="scale(0.996264)" xlink:href="#CMR17-49"/>
      <use transform="translate(45.690477 0)scale(0.996264)" xlink:href="#CMR17-48"/>
     </g>
    </g>
   </g>
   <g id="xtick_17">
    <g id="line2d_21">
     <path d="M 638.50838 239.365727 
L 635.888391 241.270032 
" style="fill:none;stroke:#000000;stroke-linecap:square;stroke-width:0.8;"/>
    </g>
    <g id="text_18">
     <!-- 11 -->
     <g transform="translate(618.66383 270.780834)rotate(-45)scale(0.14 -0.14)">
      <use transform="scale(0.996264)" xlink:href="#CMR17-49"/>
      <use transform="translate(45.690477 0)scale(0.996264)" xlink:href="#CMR17-49"/>
     </g>
    </g>
   </g>
  </g>
  <g id="axis3d_5">
   <g id="line2d_22">
    <path d="M 761.65712 171.581202 
L 661.965072 245.80086 
" style="fill:none;stroke:#000000;stroke-linecap:square;stroke-width:0.8;"/>
   </g>
   <g id="Line3DCollection_5">
    <path d="M 484.000685 56.547028 
L 491.016499 192.413474 
L 675.403872 235.795817 
" style="fill:none;stroke:#b0b0b0;stroke-width:0.8;"/>
    <path d="M 513.777478 40.730342 
L 519.168861 174.842005 
L 701.219492 216.576366 
" style="fill:none;stroke:#b0b0b0;stroke-width:0.8;"/>
    <path d="M 542.401344 25.526062 
L 546.284836 157.917404 
L 726.04244 198.095948 
" style="fill:none;stroke:#b0b0b0;stroke-width:0.8;"/>
    <path d="M 569.937971 10.899296 
L 572.420618 141.604597 
L 749.928893 180.312741 
" style="fill:none;stroke:#b0b0b0;stroke-width:0.8;"/>
   </g>
   <g id="xtick_18">
    <g id="line2d_23">
     <path d="M 673.861052 235.432825 
L 678.492943 236.522608 
" style="fill:none;stroke:#000000;stroke-linecap:square;stroke-width:0.8;"/>
    </g>
    <g id="text_19">
     <!-- 00 -->
     <g transform="translate(689.195824 248.348363)rotate(-337.5)scale(0.14 -0.14)">
      <use transform="scale(0.996264)" xlink:href="#CMR17-48"/>
      <use transform="translate(45.690477 0)scale(0.996264)" xlink:href="#CMR17-48"/>
     </g>
    </g>
   </g>
   <g id="xtick_19">
    <g id="line2d_24">
     <path d="M 699.697534 216.227463 
L 704.266725 217.274932 
" style="fill:none;stroke:#000000;stroke-linecap:square;stroke-width:0.8;"/>
    </g>
    <g id="text_20">
     <!-- 01 -->
     <g transform="translate(714.749375 228.903937)rotate(-337.5)scale(0.14 -0.14)">
      <use transform="scale(0.996264)" xlink:href="#CMR17-48"/>
      <use transform="translate(45.690477 0)scale(0.996264)" xlink:href="#CMR17-49"/>
     </g>
    </g>
   </g>
   <g id="xtick_20">
    <g id="line2d_25">
     <path d="M 724.540896 197.76033 
L 729.048738 198.767901 
" style="fill:none;stroke:#000000;stroke-linecap:square;stroke-width:0.8;"/>
    </g>
    <g id="text_21">
     <!-- 10 -->
     <g transform="translate(739.320787 210.206849)rotate(-337.5)scale(0.14 -0.14)">
      <use transform="scale(0.996264)" xlink:href="#CMR17-49"/>
      <use transform="translate(45.690477 0)scale(0.996264)" xlink:href="#CMR17-48"/>
     </g>
    </g>
   </g>
   <g id="xtick_21">
    <g id="line2d_26">
     <path d="M 748.44732 179.989663 
L 752.895146 180.959573 
" style="fill:none;stroke:#000000;stroke-linecap:square;stroke-width:0.8;"/>
    </g>
    <g id="text_22">
     <!-- 11 -->
     <g transform="translate(762.965613 192.214827)rotate(-337.5)scale(0.14 -0.14)">
      <use transform="scale(0.996264)" xlink:href="#CMR17-49"/>
      <use transform="translate(45.690477 0)scale(0.996264)" xlink:href="#CMR17-49"/>
     </g>
    </g>
   </g>
  </g>
  <g id="axis3d_6">
   <g id="line2d_27">
    <path d="M 761.65712 171.581202 
L 769.037001 37.79869 
" style="fill:none;stroke:#000000;stroke-linecap:square;stroke-width:0.8;"/>
   </g>
   <g id="text_23">
    <!-- Im[$\rho$] -->
    <defs>
     <path d="M 19.703125 60.90625 
C 19.703125 65.390625 20.90625 65.390625 28.09375 65.390625 
L 28.09375 68 
C 24.90625 67.796875 19.796875 67.796875 16.40625 67.796875 
C 13 67.796875 7.90625 67.796875 4.703125 68 
L 4.703125 65.390625 
C 11.90625 65.390625 13.09375 65.390625 13.09375 60.90625 
L 13.09375 7.078125 
C 13.09375 2.59375 11.90625 2.59375 4.703125 2.59375 
L 4.703125 0 
C 7.90625 0.1875 13 0.1875 16.40625 0.1875 
C 19.796875 0.1875 24.90625 0.1875 28.09375 0 
L 28.09375 2.59375 
C 20.90625 2.59375 19.703125 2.59375 19.703125 7.078125 
z
" id="CMR17-73"/>
     <path d="M 67.59375 30.53125 
C 67.59375 35.5625 66.703125 44 54.796875 44 
C 48 44 43.296875 39.375 41.5 33.953125 
L 41.40625 33.953125 
C 40.203125 42.1875 34.296875 44 28.703125 44 
C 20.796875 44 16.703125 37.875 15.203125 33.84375 
L 15.09375 33.84375 
L 15.09375 44 
L 3.296875 42.890625 
L 3.296875 40.28125 
C 9.203125 40.28125 10.09375 39.6875 10.09375 34.859375 
L 10.09375 6.921875 
C 10.09375 3.09375 9.703125 2.59375 3.296875 2.59375 
L 3.296875 0 
C 5.703125 0.1875 10.09375 0.1875 12.703125 0.1875 
C 15.296875 0.1875 19.796875 0.1875 22.203125 0 
L 22.203125 2.59375 
C 15.796875 2.59375 15.40625 3 15.40625 6.921875 
L 15.40625 26.21875 
C 15.40625 35.453125 21 42.390625 28 42.390625 
C 35.40625 42.390625 36.203125 35.765625 36.203125 30.9375 
L 36.203125 6.921875 
C 36.203125 3.09375 35.796875 2.59375 29.40625 2.59375 
L 29.40625 0 
C 31.796875 0.1875 36.203125 0.1875 38.796875 0.1875 
C 41.40625 0.1875 45.90625 0.1875 48.296875 0 
L 48.296875 2.59375 
C 41.90625 2.59375 41.5 3 41.5 6.921875 
L 41.5 26.21875 
C 41.5 35.453125 47.09375 42.390625 54.09375 42.390625 
C 61.5 42.390625 62.296875 35.765625 62.296875 30.9375 
L 62.296875 6.921875 
C 62.296875 3.09375 61.90625 2.59375 55.5 2.59375 
L 55.5 0 
C 57.90625 0.1875 62.296875 0.1875 64.90625 0.1875 
C 67.5 0.1875 72 0.1875 74.40625 0 
L 74.40625 2.59375 
C 68 2.59375 67.59375 3 67.59375 6.921875 
z
" id="CMR17-109"/>
    </defs>
    <g transform="translate(809.026865 118.025317)rotate(-86.842577)scale(0.14 -0.14)">
     <use transform="scale(0.996264)" xlink:href="#CMR17-73"/>
     <use transform="translate(32.638409 0)scale(0.996264)" xlink:href="#CMR17-109"/>
     <use transform="translate(109.557999 0)scale(0.996264)" xlink:href="#CMR17-91"/>
     <use transform="translate(134.429058 0)scale(0.996264)" xlink:href="#CMMI12-26"/>
     <use transform="translate(184.74343 0)scale(0.996264)" xlink:href="#CMR17-93"/>
    </g>
   </g>
   <g id="Line3DCollection_6">
    <path d="M 762.464356 156.947627 
L 585.069982 119.352606 
L 475.519516 186.61156 
" style="fill:none;stroke:#b0b0b0;stroke-width:0.8;"/>
    <path d="M 763.984112 129.397477 
L 584.696185 92.575385 
L 473.897534 158.474883 
" style="fill:none;stroke:#b0b0b0;stroke-width:0.8;"/>
    <path d="M 765.536951 101.247608 
L 584.314598 65.240083 
L 472.239056 129.705115 
" style="fill:none;stroke:#b0b0b0;stroke-width:0.8;"/>
    <path d="M 767.123965 72.478223 
L 583.924974 37.329071 
L 470.542836 100.280645 
" style="fill:none;stroke:#b0b0b0;stroke-width:0.8;"/>
    <path d="M 768.746293 43.068643 
L 583.527057 8.823965 
L 468.807572 70.178867 
" style="fill:none;stroke:#b0b0b0;stroke-width:0.8;"/>
   </g>
   <g id="xtick_22">
    <g id="line2d_28">
     <path d="M 760.983964 156.633889 
L 765.428234 157.575759 
" style="fill:none;stroke:#000000;stroke-linecap:square;stroke-width:0.8;"/>
    </g>
    <g id="text_24">
     <!-- $0.0$ -->
     <g transform="translate(772.353188 164.709203)scale(0.14 -0.14)">
      <use transform="scale(0.996264)" xlink:href="#CMR17-48"/>
      <use transform="translate(45.690477 0)scale(0.996264)" xlink:href="#CMMI12-58"/>
      <use transform="translate(72.787654 0)scale(0.996264)" xlink:href="#CMR17-48"/>
     </g>
    </g>
   </g>
   <g id="xtick_23">
    <g id="line2d_29">
     <path d="M 762.487252 129.090052 
L 766.980995 130.012975 
" style="fill:none;stroke:#000000;stroke-linecap:square;stroke-width:0.8;"/>
    </g>
    <g id="text_25">
     <!-- $0.1$ -->
     <g transform="translate(774.06965 137.197812)scale(0.14 -0.14)">
      <use transform="scale(0.996264)" xlink:href="#CMR17-48"/>
      <use transform="translate(45.690477 0)scale(0.996264)" xlink:href="#CMMI12-58"/>
      <use transform="translate(72.787654 0)scale(0.996264)" xlink:href="#CMR17-49"/>
     </g>
    </g>
   </g>
   <g id="xtick_24">
    <g id="line2d_30">
     <path d="M 764.023253 100.946847 
L 768.567581 101.849771 
" style="fill:none;stroke:#000000;stroke-linecap:square;stroke-width:0.8;"/>
    </g>
    <g id="text_26">
     <!-- $0.2$ -->
     <g transform="translate(775.823396 109.088853)scale(0.14 -0.14)">
      <use transform="scale(0.996264)" xlink:href="#CMR17-48"/>
      <use transform="translate(45.690477 0)scale(0.996264)" xlink:href="#CMMI12-58"/>
      <use transform="translate(72.787654 0)scale(0.996264)" xlink:href="#CMR17-50"/>
     </g>
    </g>
   </g>
   <g id="xtick_25">
    <g id="line2d_31">
     <path d="M 765.593045 72.184496 
L 770.189109 73.066311 
" style="fill:none;stroke:#000000;stroke-linecap:square;stroke-width:0.8;"/>
    </g>
    <g id="text_27">
     <!-- $0.3$ -->
     <g transform="translate(777.615652 80.362641)scale(0.14 -0.14)">
      <use transform="scale(0.996264)" xlink:href="#CMR17-48"/>
      <use transform="translate(45.690477 0)scale(0.996264)" xlink:href="#CMMI12-58"/>
      <use transform="translate(72.787654 0)scale(0.996264)" xlink:href="#CMR17-51"/>
     </g>
    </g>
   </g>
   <g id="xtick_26">
    <g id="line2d_32">
     <path d="M 767.197757 42.782338 
L 771.846747 43.641877 
" style="fill:none;stroke:#000000;stroke-linecap:square;stroke-width:0.8;"/>
    </g>
    <g id="text_28">
     <!-- $0.4$ -->
     <g transform="translate(779.447703 50.99862)scale(0.14 -0.14)">
      <use transform="scale(0.996264)" xlink:href="#CMR17-48"/>
      <use transform="translate(45.690477 0)scale(0.996264)" xlink:href="#CMMI12-58"/>
      <use transform="translate(72.787654 0)scale(0.996264)" xlink:href="#CMR17-52"/>
     </g>
    </g>
   </g>
  </g>
  <g id="axes_2">
   <g id="Poly3DCollection_18">
    <path clip-path="url(#p263a33a200)" d="M 589.451867 125.661982 
L 589.444429 125.057323 
L 610.934124 129.636771 
L 610.936559 130.243538 
z
" style="fill:#065d4c;fill-opacity:0.8;"/>
    <path clip-path="url(#p263a33a200)" d="M 576.610824 133.62817 
L 576.600292 133.019852 
L 589.444429 125.057323 
L 589.451867 125.661982 
z
" style="fill:#0cba97;fill-opacity:0.8;"/>
    <path clip-path="url(#p263a33a200)" d="M 576.610824 133.62817 
L 589.451867 125.661982 
L 610.936559 130.243538 
L 598.224997 138.294209 
z
" style="fill:#08745e;fill-opacity:0.8;"/>
    <path clip-path="url(#p263a33a200)" d="M 576.600292 133.019852 
L 598.219528 137.683763 
L 610.934124 129.636771 
L 589.444429 125.057323 
z
" style="fill:#0aa384;fill-opacity:0.8;"/>
    <path clip-path="url(#p263a33a200)" d="M 598.224997 138.294209 
L 610.936559 130.243538 
L 610.934124 129.636771 
L 598.219528 137.683763 
z
" style="fill:#065d4c;fill-opacity:0.8;"/>
    <path clip-path="url(#p263a33a200)" d="M 576.610824 133.62817 
L 598.224997 138.294209 
L 598.219528 137.683763 
L 576.600292 133.019852 
z
" style="fill:#0cba97;fill-opacity:0.8;"/>
   </g>
   <g id="Poly3DCollection_19">
    <path clip-path="url(#p263a33a200)" d="M 632.648654 134.873588 
L 632.651388 134.251026 
L 654.599852 138.928164 
L 654.591782 139.552905 
z
" style="fill:#065d4c;fill-opacity:0.8;"/>
    <path clip-path="url(#p263a33a200)" d="M 620.07006 143.010092 
L 620.069757 142.38375 
L 632.651388 134.251026 
L 632.648654 134.873588 
z
" style="fill:#0cba97;fill-opacity:0.8;"/>
    <path clip-path="url(#p263a33a200)" d="M 620.07006 143.010092 
L 632.648654 134.873588 
L 654.591782 139.552905 
L 642.149733 147.776623 
z
" style="fill:#08745e;fill-opacity:0.8;"/>
    <path clip-path="url(#p263a33a200)" d="M 620.069757 142.38375 
L 642.154833 147.148083 
L 654.599852 138.928164 
L 632.651388 134.251026 
z
" style="fill:#0aa384;fill-opacity:0.8;"/>
    <path clip-path="url(#p263a33a200)" d="M 642.149733 147.776623 
L 654.591782 139.552905 
L 654.599852 138.928164 
L 642.154833 147.148083 
z
" style="fill:#065d4c;fill-opacity:0.8;"/>
    <path clip-path="url(#p263a33a200)" d="M 620.07006 143.010092 
L 642.149733 147.776623 
L 642.154833 147.148083 
L 620.069757 142.38375 
z
" style="fill:#0cba97;fill-opacity:0.8;"/>
   </g>
   <g id="Poly3DCollection_20">
    <path clip-path="url(#p263a33a200)" d="M 563.53253 141.741542 
L 563.468205 138.876045 
L 585.236984 143.618862 
L 585.277317 146.494421 
z
" style="fill:#065d4c;fill-opacity:0.8;"/>
    <path clip-path="url(#p263a33a200)" d="M 550.210349 150.006213 
L 550.130454 147.123254 
L 563.468205 138.876045 
L 563.53253 141.741542 
z
" style="fill:#0cba97;fill-opacity:0.8;"/>
    <path clip-path="url(#p263a33a200)" d="M 550.210349 150.006213 
L 563.53253 141.741542 
L 585.277317 146.494421 
L 572.086879 154.848381 
z
" style="fill:#08745e;fill-opacity:0.8;"/>
    <path clip-path="url(#p263a33a200)" d="M 550.130454 147.123254 
L 572.031266 151.955271 
L 585.236984 143.618862 
L 563.468205 138.876045 
z
" style="fill:#0aa384;fill-opacity:0.8;"/>
    <path clip-path="url(#p263a33a200)" d="M 572.086879 154.848381 
L 585.277317 146.494421 
L 585.236984 143.618862 
L 572.031266 151.955271 
z
" style="fill:#065d4c;fill-opacity:0.8;"/>
    <path clip-path="url(#p263a33a200)" d="M 550.210349 150.006213 
L 572.086879 154.848381 
L 572.031266 151.955271 
L 550.130454 147.123254 
z
" style="fill:#0cba97;fill-opacity:0.8;"/>
   </g>
   <g id="Poly3DCollection_21">
    <path clip-path="url(#p263a33a200)" d="M 676.769651 144.282279 
L 676.986716 134.217112 
L 699.4925 138.961824 
L 699.186046 149.062519 
z
" style="fill:#065d4c;fill-opacity:0.8;"/>
    <path clip-path="url(#p263a33a200)" d="M 664.467816 152.594621 
L 664.638315 142.467803 
L 676.986716 134.217112 
L 676.769651 144.282279 
z
" style="fill:#0cba97;fill-opacity:0.8;"/>
    <path clip-path="url(#p263a33a200)" d="M 664.467816 152.594621 
L 676.769651 144.282279 
L 699.186046 149.062519 
L 687.02819 157.464924 
z
" style="fill:#08745e;fill-opacity:0.8;"/>
    <path clip-path="url(#p263a33a200)" d="M 664.638315 142.467803 
L 687.28924 147.302265 
L 699.4925 138.961824 
L 676.986716 134.217112 
z
" style="fill:#0aa384;fill-opacity:0.8;"/>
    <path clip-path="url(#p263a33a200)" d="M 687.02819 157.464924 
L 699.186046 149.062519 
L 699.4925 138.961824 
L 687.28924 147.302265 
z
" style="fill:#065d4c;fill-opacity:0.8;"/>
    <path clip-path="url(#p263a33a200)" d="M 664.467816 152.594621 
L 687.02819 157.464924 
L 687.28924 147.302265 
L 664.638315 142.467803 
z
" style="fill:#0cba97;fill-opacity:0.8;"/>
   </g>
   <g id="Poly3DCollection_22">
    <path clip-path="url(#p263a33a200)" d="M 607.256558 151.298547 
L 607.254772 150.972731 
L 629.475109 155.82779 
L 629.474067 156.154752 
z
" style="fill:#065d4c;fill-opacity:0.8;"/>
    <path clip-path="url(#p263a33a200)" d="M 594.201507 159.743249 
L 594.19803 159.415445 
L 607.254772 150.972731 
L 607.256558 151.298547 
z
" style="fill:#0cba97;fill-opacity:0.8;"/>
    <path clip-path="url(#p263a33a200)" d="M 594.201507 159.743249 
L 607.256558 151.298547 
L 629.474067 156.154752 
L 616.558142 164.691684 
z
" style="fill:#08745e;fill-opacity:0.8;"/>
    <path clip-path="url(#p263a33a200)" d="M 594.19803 159.415445 
L 616.557529 164.362723 
L 629.475109 155.82779 
L 607.254772 150.972731 
z
" style="fill:#0aa384;fill-opacity:0.8;"/>
    <path clip-path="url(#p263a33a200)" d="M 616.558142 164.691684 
L 629.474067 156.154752 
L 629.475109 155.82779 
L 616.557529 164.362723 
z
" style="fill:#065d4c;fill-opacity:0.8;"/>
    <path clip-path="url(#p263a33a200)" d="M 594.201507 159.743249 
L 616.558142 164.691684 
L 616.557529 164.362723 
L 594.19803 159.415445 
z
" style="fill:#0cba97;fill-opacity:0.8;"/>
   </g>
   <g id="Poly3DCollection_23">
    <path clip-path="url(#p263a33a200)" d="M 721.844838 153.89445 
L 721.844838 153.89445 
L 744.749979 158.778913 
L 744.749979 158.778913 
z
" style="fill:#065d4c;fill-opacity:0.8;"/>
    <path clip-path="url(#p263a33a200)" d="M 709.834824 162.38839 
L 709.834824 162.38839 
L 721.844838 153.89445 
L 721.844838 153.89445 
z
" style="fill:#065d4c;fill-opacity:0.8;"/>
    <path clip-path="url(#p263a33a200)" d="M 709.834824 162.38839 
L 721.844838 153.89445 
L 744.749979 158.778913 
L 732.891772 167.365893 
z
" style="fill:#08745e;fill-opacity:0.8;"/>
    <path clip-path="url(#p263a33a200)" d="M 709.834824 162.38839 
L 732.891772 167.365893 
L 744.749979 158.778913 
L 721.844838 153.89445 
z
" style="fill:#0aa384;fill-opacity:0.8;"/>
    <path clip-path="url(#p263a33a200)" d="M 732.891772 167.365893 
L 744.749979 158.778913 
L 744.749979 158.778913 
L 732.891772 167.365893 
z
" style="fill:#065d4c;fill-opacity:0.8;"/>
    <path clip-path="url(#p263a33a200)" d="M 709.834824 162.38839 
L 732.891772 167.365893 
L 732.891772 167.365893 
L 709.834824 162.38839 
z
" style="fill:#065d4c;fill-opacity:0.8;"/>
   </g>
   <g id="Poly3DCollection_24">
    <path clip-path="url(#p263a33a200)" d="M 651.933738 161.063888 
L 651.933738 161.063888 
L 674.639552 166.026825 
L 674.639552 166.026825 
z
" style="fill:#065d4c;fill-opacity:0.8;"/>
    <path clip-path="url(#p263a33a200)" d="M 639.160778 169.694568 
L 639.160778 169.694568 
L 651.933738 161.063888 
L 651.933738 161.063888 
z
" style="fill:#065d4c;fill-opacity:0.8;"/>
    <path clip-path="url(#p263a33a200)" d="M 639.160778 169.694568 
L 651.933738 161.063888 
L 674.639552 166.026825 
L 662.013497 174.752807 
z
" style="fill:#08745e;fill-opacity:0.8;"/>
    <path clip-path="url(#p263a33a200)" d="M 639.160778 169.694568 
L 662.013497 174.752807 
L 674.639552 166.026825 
L 651.933738 161.063888 
z
" style="fill:#0aa384;fill-opacity:0.8;"/>
    <path clip-path="url(#p263a33a200)" d="M 662.013497 174.752807 
L 674.639552 166.026825 
L 674.639552 166.026825 
L 662.013497 174.752807 
z
" style="fill:#065d4c;fill-opacity:0.8;"/>
    <path clip-path="url(#p263a33a200)" d="M 639.160778 169.694568 
L 662.013497 174.752807 
L 662.013497 174.752807 
L 639.160778 169.694568 
z
" style="fill:#065d4c;fill-opacity:0.8;"/>
   </g>
   <g id="Poly3DCollection_25">
    <path clip-path="url(#p263a33a200)" d="M 536.637395 158.426456 
L 536.232855 146.209036 
L 558.345757 151.099661 
L 558.646792 163.360451 
z
" style="fill:#065d4c;fill-opacity:0.8;"/>
    <path clip-path="url(#p263a33a200)" d="M 522.80652 167.006705 
L 522.33141 154.714027 
L 536.232855 146.209036 
L 536.637395 158.426456 
z
" style="fill:#0cba97;fill-opacity:0.8;"/>
    <path clip-path="url(#p263a33a200)" d="M 522.80652 167.006705 
L 536.637395 158.426456 
L 558.646792 163.360451 
L 544.949899 172.035166 
z
" style="fill:#08745e;fill-opacity:0.8;"/>
    <path clip-path="url(#p263a33a200)" d="M 522.33141 154.714027 
L 544.579547 159.698742 
L 558.345757 151.099661 
L 536.232855 146.209036 
z
" style="fill:#0aa384;fill-opacity:0.8;"/>
    <path clip-path="url(#p263a33a200)" d="M 544.949899 172.035166 
L 558.646792 163.360451 
L 558.345757 151.099661 
L 544.579547 159.698742 
z
" style="fill:#065d4c;fill-opacity:0.8;"/>
    <path clip-path="url(#p263a33a200)" d="M 522.80652 167.006705 
L 544.949899 172.035166 
L 544.579547 159.698742 
L 522.33141 154.714027 
z
" style="fill:#0cba97;fill-opacity:0.8;"/>
   </g>
   <g id="Poly3DCollection_26">
    <path clip-path="url(#p263a33a200)" d="M 580.898011 168.348658 
L 580.898011 168.348658 
L 603.395062 173.391975 
L 603.395062 173.391975 
z
" style="fill:#065d4c;fill-opacity:0.8;"/>
    <path clip-path="url(#p263a33a200)" d="M 567.33891 177.119407 
L 567.33891 177.119407 
L 580.898011 168.348658 
L 580.898011 168.348658 
z
" style="fill:#065d4c;fill-opacity:0.8;"/>
    <path clip-path="url(#p263a33a200)" d="M 567.33891 177.119407 
L 580.898011 168.348658 
L 603.395062 173.391975 
L 589.977665 182.260361 
z
" style="fill:#08745e;fill-opacity:0.8;"/>
    <path clip-path="url(#p263a33a200)" d="M 567.33891 177.119407 
L 589.977665 182.260361 
L 603.395062 173.391975 
L 580.898011 168.348658 
z
" style="fill:#0aa384;fill-opacity:0.8;"/>
    <path clip-path="url(#p263a33a200)" d="M 589.977665 182.260361 
L 603.395062 173.391975 
L 603.395062 173.391975 
L 589.977665 182.260361 
z
" style="fill:#065d4c;fill-opacity:0.8;"/>
    <path clip-path="url(#p263a33a200)" d="M 567.33891 177.119407 
L 589.977665 182.260361 
L 589.977665 182.260361 
L 567.33891 177.119407 
z
" style="fill:#065d4c;fill-opacity:0.8;"/>
   </g>
   <g id="Poly3DCollection_27">
    <path clip-path="url(#p263a33a200)" d="M 697.595579 171.044453 
L 697.290432 181.223852 
L 720.405785 186.332843 
L 720.805976 176.117679 
z
" style="fill:#0cba97;fill-opacity:0.8;"/>
    <path clip-path="url(#p263a33a200)" d="M 685.120475 179.867323 
L 684.862782 190.108775 
L 697.290432 181.223852 
L 697.595579 171.044453 
z
" style="fill:#065d4c;fill-opacity:0.8;"/>
    <path clip-path="url(#p263a33a200)" d="M 684.862782 190.108775 
L 708.131957 195.316569 
L 720.405785 186.332843 
L 697.290432 181.223852 
z
" style="fill:#0aa384;fill-opacity:0.8;"/>
    <path clip-path="url(#p263a33a200)" d="M 685.120475 179.867323 
L 697.595579 171.044453 
L 720.805976 176.117679 
L 708.485976 185.039061 
z
" style="fill:#08745e;fill-opacity:0.8;"/>
    <path clip-path="url(#p263a33a200)" d="M 708.485976 185.039061 
L 720.805976 176.117679 
L 720.405785 186.332843 
L 708.131957 195.316569 
z
" style="fill:#0cba97;fill-opacity:0.8;"/>
    <path clip-path="url(#p263a33a200)" d="M 685.120475 179.867323 
L 708.485976 185.039061 
L 708.131957 195.316569 
L 684.862782 190.108775 
z
" style="fill:#065d4c;fill-opacity:0.8;"/>
   </g>
   <g id="Poly3DCollection_28">
    <path clip-path="url(#p263a33a200)" d="M 508.710302 175.751565 
L 508.710302 175.751565 
L 530.98877 180.87723 
L 530.98877 180.87723 
z
" style="fill:#065d4c;fill-opacity:0.8;"/>
    <path clip-path="url(#p263a33a200)" d="M 494.34103 184.665819 
L 494.34103 184.665819 
L 508.710302 175.751565 
L 508.710302 175.751565 
z
" style="fill:#065d4c;fill-opacity:0.8;"/>
    <path clip-path="url(#p263a33a200)" d="M 494.34103 184.665819 
L 516.755684 189.891535 
L 530.98877 180.87723 
L 508.710302 175.751565 
z
" style="fill:#0aa384;fill-opacity:0.8;"/>
    <path clip-path="url(#p263a33a200)" d="M 494.34103 184.665819 
L 508.710302 175.751565 
L 530.98877 180.87723 
L 516.755684 189.891535 
z
" style="fill:#08745e;fill-opacity:0.8;"/>
    <path clip-path="url(#p263a33a200)" d="M 516.755684 189.891535 
L 530.98877 180.87723 
L 530.98877 180.87723 
L 516.755684 189.891535 
z
" style="fill:#065d4c;fill-opacity:0.8;"/>
    <path clip-path="url(#p263a33a200)" d="M 494.34103 184.665819 
L 516.755684 189.891535 
L 516.755684 189.891535 
L 494.34103 184.665819 
z
" style="fill:#065d4c;fill-opacity:0.8;"/>
   </g>
   <g id="Poly3DCollection_29">
    <path clip-path="url(#p263a33a200)" d="M 626.142041 178.49132 
L 626.141409 178.82338 
L 649.139473 183.980867 
L 649.143136 183.647631 
z
" style="fill:#0cba97;fill-opacity:0.8;"/>
    <path clip-path="url(#p263a33a200)" d="M 612.870365 187.458982 
L 612.871481 187.793082 
L 626.141409 178.82338 
L 626.142041 178.49132 
z
" style="fill:#065d4c;fill-opacity:0.8;"/>
    <path clip-path="url(#p263a33a200)" d="M 612.871481 187.793082 
L 636.019352 193.051533 
L 649.139473 183.980867 
L 626.141409 178.82338 
z
" style="fill:#0aa384;fill-opacity:0.8;"/>
    <path clip-path="url(#p263a33a200)" d="M 612.870365 187.458982 
L 626.142041 178.49132 
L 649.143136 183.647631 
L 636.021307 192.716247 
z
" style="fill:#08745e;fill-opacity:0.8;"/>
    <path clip-path="url(#p263a33a200)" d="M 636.021307 192.716247 
L 649.143136 183.647631 
L 649.139473 183.980867 
L 636.019352 193.051533 
z
" style="fill:#0cba97;fill-opacity:0.8;"/>
    <path clip-path="url(#p263a33a200)" d="M 612.870365 187.458982 
L 636.021307 192.716247 
L 636.019352 193.051533 
L 612.871481 187.793082 
z
" style="fill:#065d4c;fill-opacity:0.8;"/>
   </g>
   <g id="Poly3DCollection_30">
    <path clip-path="url(#p263a33a200)" d="M 553.516767 186.060305 
L 553.84737 198.395852 
L 576.51925 203.680734 
L 576.298508 191.30176 
z
" style="fill:#0cba97;fill-opacity:0.8;"/>
    <path clip-path="url(#p263a33a200)" d="M 539.42385 195.176354 
L 539.827068 207.587244 
L 553.84737 198.395852 
L 553.516767 186.060305 
z
" style="fill:#065d4c;fill-opacity:0.8;"/>
    <path clip-path="url(#p263a33a200)" d="M 539.827068 207.587244 
L 562.641831 212.975942 
L 576.51925 203.680734 
L 553.84737 198.395852 
z
" style="fill:#0aa384;fill-opacity:0.8;"/>
    <path clip-path="url(#p263a33a200)" d="M 539.42385 195.176354 
L 553.516767 186.060305 
L 576.298508 191.30176 
L 562.349855 200.521285 
z
" style="fill:#08745e;fill-opacity:0.8;"/>
    <path clip-path="url(#p263a33a200)" d="M 562.349855 200.521285 
L 576.298508 191.30176 
L 576.51925 203.680734 
L 562.641831 212.975942 
z
" style="fill:#0cba97;fill-opacity:0.8;"/>
    <path clip-path="url(#p263a33a200)" d="M 539.42385 195.176354 
L 562.349855 200.521285 
L 562.641831 212.975942 
L 539.827068 207.587244 
z
" style="fill:#065d4c;fill-opacity:0.8;"/>
   </g>
   <g id="Poly3DCollection_31">
    <path clip-path="url(#p263a33a200)" d="M 672.402628 188.86187 
L 672.389554 189.508503 
L 695.905697 194.783945 
L 695.924898 194.135017 
z
" style="fill:#0cba97;fill-opacity:0.8;"/>
    <path clip-path="url(#p263a33a200)" d="M 659.434885 198.033153 
L 659.425034 198.683768 
L 672.389554 189.508503 
L 672.402628 188.86187 
z
" style="fill:#065d4c;fill-opacity:0.8;"/>
    <path clip-path="url(#p263a33a200)" d="M 659.425034 198.683768 
L 683.099533 204.063649 
L 695.905697 194.783945 
L 672.389554 189.508503 
z
" style="fill:#0aa384;fill-opacity:0.8;"/>
    <path clip-path="url(#p263a33a200)" d="M 659.434885 198.033153 
L 672.402628 188.86187 
L 695.924898 194.135017 
L 683.115595 203.410721 
z
" style="fill:#08745e;fill-opacity:0.8;"/>
    <path clip-path="url(#p263a33a200)" d="M 683.115595 203.410721 
L 695.924898 194.135017 
L 695.905697 194.783945 
L 683.099533 204.063649 
z
" style="fill:#0cba97;fill-opacity:0.8;"/>
    <path clip-path="url(#p263a33a200)" d="M 659.434885 198.033153 
L 683.115595 203.410721 
L 683.099533 204.063649 
L 659.425034 198.683768 
z
" style="fill:#065d4c;fill-opacity:0.8;"/>
   </g>
   <g id="Poly3DCollection_32">
    <path clip-path="url(#p263a33a200)" d="M 599.338305 196.602586 
L 599.364224 199.573764 
L 622.638994 204.94552 
L 622.640568 201.963798 
z
" style="fill:#0cba97;fill-opacity:0.8;"/>
    <path clip-path="url(#p263a33a200)" d="M 585.538123 205.927359 
L 585.580736 208.916831 
L 599.364224 199.573764 
L 599.338305 196.602586 
z
" style="fill:#065d4c;fill-opacity:0.8;"/>
    <path clip-path="url(#p263a33a200)" d="M 585.580736 208.916831 
L 609.007939 214.39573 
L 622.638994 204.94552 
L 599.364224 199.573764 
z
" style="fill:#0aa384;fill-opacity:0.8;"/>
    <path clip-path="url(#p263a33a200)" d="M 585.538123 205.927359 
L 599.338305 196.602586 
L 622.640568 201.963798 
L 608.993179 211.395632 
z
" style="fill:#08745e;fill-opacity:0.8;"/>
    <path clip-path="url(#p263a33a200)" d="M 608.993179 211.395632 
L 622.640568 201.963798 
L 622.638994 204.94552 
L 609.007939 214.39573 
z
" style="fill:#0cba97;fill-opacity:0.8;"/>
    <path clip-path="url(#p263a33a200)" d="M 585.538123 205.927359 
L 608.993179 211.395632 
L 609.007939 214.39573 
L 585.580736 208.916831 
z
" style="fill:#065d4c;fill-opacity:0.8;"/>
   </g>
   <g id="Poly3DCollection_33">
    <path clip-path="url(#p263a33a200)" d="M 646.209807 207.386434 
L 646.203452 208.02669 
L 670.038125 213.514091 
L 670.050636 212.871556 
z
" style="fill:#0cba97;fill-opacity:0.8;"/>
    <path clip-path="url(#p263a33a200)" d="M 632.719656 216.927184 
L 632.716715 217.571395 
L 646.203452 208.02669 
L 646.209807 207.386434 
z
" style="fill:#065d4c;fill-opacity:0.8;"/>
    <path clip-path="url(#p263a33a200)" d="M 632.716715 217.571395 
L 656.713109 223.169627 
L 670.038125 213.514091 
L 646.203452 208.02669 
z
" style="fill:#0aa384;fill-opacity:0.8;"/>
    <path clip-path="url(#p263a33a200)" d="M 632.719656 216.927184 
L 646.209807 207.386434 
L 670.050636 212.871556 
L 656.722291 222.523119 
z
" style="fill:#08745e;fill-opacity:0.8;"/>
    <path clip-path="url(#p263a33a200)" d="M 656.722291 222.523119 
L 670.050636 212.871556 
L 670.038125 213.514091 
L 656.713109 223.169627 
z
" style="fill:#0cba97;fill-opacity:0.8;"/>
    <path clip-path="url(#p263a33a200)" d="M 632.719656 216.927184 
L 656.722291 222.523119 
L 656.713109 223.169627 
L 632.716715 217.571395 
z
" style="fill:#065d4c;fill-opacity:0.8;"/>
   </g>
   <g id="Poly3DCollection_34">
    <path clip-path="url(#p263a33a200)" d="M 481.443337 185.999164 
L 660.481078 227.93531 
L 756.904724 157.522374 
L 586.440284 121.325673 
z
" style="fill-opacity:0.2;"/>
   </g>
  </g>
 </g>
 <defs>
  <clipPath id="p946d46cc8f">
   <rect height="277.2" width="380.454545" x="-30.6" y="-14.4"/>
  </clipPath>
  <clipPath id="p263a33a200">
   <rect height="277.2" width="380.454545" x="425.945455" y="-14.4"/>
  </clipPath>
 </defs>
</svg>
