<?xml version="1.0" encoding="utf-8" standalone="no"?>
<!DOCTYPE svg PUBLIC "-//W3C//DTD SVG 1.1//EN"
  "http://www.w3.org/Graphics/SVG/1.1/DTD/svg11.dtd">
<!-- Created with matplotlib (https://matplotlib.org/) -->
<svg height="302.4pt" version="1.1" viewBox="0 0 820.8 302.4" width="820.8pt" xmlns="http://www.w3.org/2000/svg" xmlns:xlink="http://www.w3.org/1999/xlink">
 <defs>
  <style type="text/css">
*{stroke-linecap:butt;stroke-linejoin:round;}
  </style>
 </defs>
 <g id="figure_1">
  <g id="patch_1">
   <path d="M 0 302.4 
L 820.8 302.4 
L 820.8 0 
L 0 0 
z
" style="fill:#ffffff;"/>
  </g>
  <g id="patch_2">
   <path d="M -30.6 262.8 
L 349.854545 262.8 
L 349.854545 -14.4 
L -30.6 -14.4 
z
" style="fill:#ffffff;"/>
  </g>
  <g id="pane3d_1">
   <g id="patch_3">
    <path d="M 19.835129 201.548569 
L 128.723211 133.58541 
L 126.910339 3.718968 
L 11.951034 64.782468 
" style="fill:#f2f2f2;opacity:0.5;stroke:#f2f2f2;stroke-linejoin:miter;"/>
   </g>
  </g>
  <g id="pane3d_2">
   <g id="patch_4">
    <path d="M 128.723211 133.58541 
L 305.111665 171.581202 
L 312.491547 37.79869 
L 126.910339 3.718968 
" style="fill:#e6e6e6;opacity:0.5;stroke:#e6e6e6;stroke-linejoin:miter;"/>
   </g>
  </g>
  <g id="pane3d_3">
   <g id="patch_5">
    <path d="M 19.835129 201.548569 
L 205.419617 245.80086 
L 305.111665 171.581202 
L 128.723211 133.58541 
" style="fill:#ececec;opacity:0.5;stroke:#ececec;stroke-linejoin:miter;"/>
   </g>
  </g>
  <g id="axis3d_1">
   <g id="line2d_1">
    <path d="M 19.835129 201.548569 
L 205.419617 245.80086 
" style="fill:none;stroke:#000000;stroke-linecap:square;stroke-width:0.8;"/>
   </g>
   <g id="Line3DCollection_1">
    <path d="M 42.295817 206.90428 
L 150.133942 138.19749 
L 149.393845 7.847789 
" style="fill:none;stroke:#b0b0b0;stroke-width:0.8;"/>
    <path d="M 87.512337 217.686079 
L 193.184014 147.470895 
L 194.636898 16.156123 
" style="fill:none;stroke:#b0b0b0;stroke-width:0.8;"/>
    <path d="M 133.765289 228.715013 
L 237.148096 156.941187 
L 240.890183 24.649974 
" style="fill:none;stroke:#b0b0b0;stroke-width:0.8;"/>
    <path d="M 181.090721 239.999678 
L 282.055608 166.614702 
L 288.187917 33.335625 
" style="fill:none;stroke:#b0b0b0;stroke-width:0.8;"/>
   </g>
   <g id="xtick_1">
    <g id="line2d_2">
     <path d="M 43.225084 206.312217 
L 40.433807 208.09062 
" style="fill:none;stroke:#000000;stroke-linecap:square;stroke-width:0.8;"/>
    </g>
    <g id="text_1">
     <!-- 00 -->
     <defs>
      <path d="M 42 31.84375 
C 42 37.96875 41.90625 48.421875 37.703125 56.453125 
C 34 63.484375 28.09375 66 22.90625 66 
C 18.09375 66 12 63.78125 8.203125 56.5625 
C 4.203125 49.015625 3.796875 39.671875 3.796875 31.84375 
C 3.796875 26.109375 3.90625 17.375 7 9.734375 
C 11.296875 -0.609375 19 -2 22.90625 -2 
C 27.5 -2 34.5 -0.109375 38.59375 9.4375 
C 41.59375 16.375 42 24.5 42 31.84375 
z
M 22.90625 -0.40625 
C 16.5 -0.40625 12.703125 5.125 11.296875 12.75 
C 10.203125 18.6875 10.203125 27.328125 10.203125 32.953125 
C 10.203125 40.6875 10.203125 47.109375 11.5 53.234375 
C 13.40625 61.78125 19 64.390625 22.90625 64.390625 
C 27 64.390625 32.296875 61.671875 34.203125 53.4375 
C 35.5 47.71875 35.59375 40.984375 35.59375 32.953125 
C 35.59375 26.421875 35.59375 18.375 34.40625 12.453125 
C 32.296875 1.5 26.40625 -0.40625 22.90625 -0.40625 
z
" id="CMR17-48"/>
     </defs>
     <g transform="translate(23.330362 237.14703)rotate(-45)scale(0.14 -0.14)">
      <use transform="scale(0.996264)" xlink:href="#CMR17-48"/>
      <use transform="translate(45.690477 0)scale(0.996264)" xlink:href="#CMR17-48"/>
     </g>
    </g>
   </g>
   <g id="xtick_2">
    <g id="line2d_3">
     <path d="M 88.423674 217.080527 
L 85.686217 218.899473 
" style="fill:none;stroke:#000000;stroke-linecap:square;stroke-width:0.8;"/>
    </g>
    <g id="text_2">
     <!-- 01 -->
     <defs>
      <path d="M 26.59375 63.796875 
C 26.59375 65.890625 26.5 66 25.09375 66 
C 21.203125 61.359375 15.296875 59.890625 9.703125 59.6875 
C 9.40625 59.6875 8.90625 59.6875 8.796875 59.5 
C 8.703125 59.296875 8.703125 59.09375 8.703125 57 
C 11.796875 57 17 57.59375 21 59.984375 
L 21 7.296875 
C 21 3.796875 20.796875 2.59375 12.203125 2.59375 
L 9.203125 2.59375 
L 9.203125 0 
C 14 0.09375 19 0.1875 23.796875 0.1875 
C 28.59375 0.1875 33.59375 0.09375 38.40625 0 
L 38.40625 2.59375 
L 35.40625 2.59375 
C 26.796875 2.59375 26.59375 3.6875 26.59375 7.296875 
z
" id="CMR17-49"/>
     </defs>
     <g transform="translate(68.542787 248.103782)rotate(-45)scale(0.14 -0.14)">
      <use transform="scale(0.996264)" xlink:href="#CMR17-48"/>
      <use transform="translate(45.690477 0)scale(0.996264)" xlink:href="#CMR17-49"/>
     </g>
    </g>
   </g>
   <g id="xtick_3">
    <g id="line2d_4">
     <path d="M 134.657625 228.095506 
L 131.977203 229.956397 
" style="fill:none;stroke:#000000;stroke-linecap:square;stroke-width:0.8;"/>
    </g>
    <g id="text_3">
     <!-- 10 -->
     <g transform="translate(114.7934 259.312128)rotate(-45)scale(0.14 -0.14)">
      <use transform="scale(0.996264)" xlink:href="#CMR17-49"/>
      <use transform="translate(45.690477 0)scale(0.996264)" xlink:href="#CMR17-48"/>
     </g>
    </g>
   </g>
   <g id="xtick_4">
    <g id="line2d_5">
     <path d="M 181.962926 239.365727 
L 179.342936 241.270032 
" style="fill:none;stroke:#000000;stroke-linecap:square;stroke-width:0.8;"/>
    </g>
    <g id="text_4">
     <!-- 11 -->
     <g transform="translate(162.118375 270.780834)rotate(-45)scale(0.14 -0.14)">
      <use transform="scale(0.996264)" xlink:href="#CMR17-49"/>
      <use transform="translate(45.690477 0)scale(0.996264)" xlink:href="#CMR17-49"/>
     </g>
    </g>
   </g>
  </g>
  <g id="axis3d_2">
   <g id="line2d_6">
    <path d="M 305.111665 171.581202 
L 205.419617 245.80086 
" style="fill:none;stroke:#000000;stroke-linecap:square;stroke-width:0.8;"/>
   </g>
   <g id="Line3DCollection_2">
    <path d="M 27.455231 56.547028 
L 34.471044 192.413474 
L 218.858418 235.795817 
" style="fill:none;stroke:#b0b0b0;stroke-width:0.8;"/>
    <path d="M 57.232024 40.730342 
L 62.623407 174.842005 
L 244.674037 216.576366 
" style="fill:none;stroke:#b0b0b0;stroke-width:0.8;"/>
    <path d="M 85.85589 25.526062 
L 89.739382 157.917404 
L 269.496985 198.095948 
" style="fill:none;stroke:#b0b0b0;stroke-width:0.8;"/>
    <path d="M 113.392516 10.899296 
L 115.875164 141.604597 
L 293.383438 180.312741 
" style="fill:none;stroke:#b0b0b0;stroke-width:0.8;"/>
   </g>
   <g id="xtick_5">
    <g id="line2d_7">
     <path d="M 217.315598 235.432825 
L 221.947489 236.522608 
" style="fill:none;stroke:#000000;stroke-linecap:square;stroke-width:0.8;"/>
    </g>
    <g id="text_5">
     <!-- 00 -->
     <g transform="translate(232.650369 248.348363)rotate(-337.5)scale(0.14 -0.14)">
      <use transform="scale(0.996264)" xlink:href="#CMR17-48"/>
      <use transform="translate(45.690477 0)scale(0.996264)" xlink:href="#CMR17-48"/>
     </g>
    </g>
   </g>
   <g id="xtick_6">
    <g id="line2d_8">
     <path d="M 243.15208 216.227463 
L 247.72127 217.274932 
" style="fill:none;stroke:#000000;stroke-linecap:square;stroke-width:0.8;"/>
    </g>
    <g id="text_6">
     <!-- 01 -->
     <g transform="translate(258.203921 228.903937)rotate(-337.5)scale(0.14 -0.14)">
      <use transform="scale(0.996264)" xlink:href="#CMR17-48"/>
      <use transform="translate(45.690477 0)scale(0.996264)" xlink:href="#CMR17-49"/>
     </g>
    </g>
   </g>
   <g id="xtick_7">
    <g id="line2d_9">
     <path d="M 267.995442 197.76033 
L 272.503283 198.767901 
" style="fill:none;stroke:#000000;stroke-linecap:square;stroke-width:0.8;"/>
    </g>
    <g id="text_7">
     <!-- 10 -->
     <g transform="translate(282.775332 210.206849)rotate(-337.5)scale(0.14 -0.14)">
      <use transform="scale(0.996264)" xlink:href="#CMR17-49"/>
      <use transform="translate(45.690477 0)scale(0.996264)" xlink:href="#CMR17-48"/>
     </g>
    </g>
   </g>
   <g id="xtick_8">
    <g id="line2d_10">
     <path d="M 291.901865 179.989663 
L 296.349691 180.959573 
" style="fill:none;stroke:#000000;stroke-linecap:square;stroke-width:0.8;"/>
    </g>
    <g id="text_8">
     <!-- 11 -->
     <g transform="translate(306.420159 192.214827)rotate(-337.5)scale(0.14 -0.14)">
      <use transform="scale(0.996264)" xlink:href="#CMR17-49"/>
      <use transform="translate(45.690477 0)scale(0.996264)" xlink:href="#CMR17-49"/>
     </g>
    </g>
   </g>
  </g>
  <g id="axis3d_3">
   <g id="line2d_11">
    <path d="M 305.111665 171.581202 
L 312.491547 37.79869 
" style="fill:none;stroke:#000000;stroke-linecap:square;stroke-width:0.8;"/>
   </g>
   <g id="text_9">
    <!-- Re[$\rho$] -->
    <defs>
     <path d="M 39.203125 33.6875 
C 48.703125 35.59375 56.703125 42.015625 56.703125 50.046875 
C 56.703125 59.46875 46.09375 68 32.09375 68 
L 5.203125 68 
L 5.203125 65.390625 
C 12.09375 65.390625 13.203125 65.390625 13.203125 60.875 
L 13.203125 6.6875 
C 13.203125 2.1875 12.09375 2.1875 5.203125 2.1875 
L 5.203125 -0.40625 
C 8.09375 -0.203125 13.296875 -0.203125 16.40625 -0.203125 
C 19.5 -0.203125 24.703125 -0.203125 27.59375 -0.40625 
L 27.59375 2.1875 
C 20.703125 2.1875 19.59375 2.1875 19.59375 6.6875 
L 19.59375 33 
L 31.296875 33 
C 37 33 40.203125 30.6875 41.59375 29.390625 
C 45.59375 25.5 45.59375 22.796875 45.59375 16 
C 45.59375 9.296875 45.59375 5.890625 48.59375 2.5 
C 52.40625 -1.609375 57.5 -2 59.703125 -2 
C 67.09375 -2 68.203125 6.296875 68.203125 8 
C 68.203125 8.59375 68.203125 9.296875 67.296875 9.296875 
C 66.5 9.296875 66.40625 8.6875 66.40625 8.296875 
C 65.90625 1.796875 63 -0.40625 59.90625 -0.40625 
C 54.40625 -0.40625 53.796875 5.890625 53.203125 12 
C 52.90625 14.09375 52.703125 15.59375 52.5 17.796875 
C 51.90625 22.796875 51.09375 30.09375 39.203125 33.6875 
z
M 31 34.59375 
L 19.59375 34.59375 
L 19.59375 61.484375 
C 19.59375 64.890625 19.796875 65.390625 23.796875 65.390625 
L 31.09375 65.390625 
C 39.40625 65.390625 49.09375 62.484375 49.09375 50.046875 
C 49.09375 37.09375 38.5 34.59375 31 34.59375 
z
" id="CMR17-82"/>
     <path d="M 38.09375 23.484375 
C 38.5 23.890625 38.5 24.09375 38.5 25.09375 
C 38.5 35.171875 33.09375 44 21.703125 44 
C 11.09375 44 2.703125 33.984375 2.703125 21.78125 
C 2.703125 8.65625 12.203125 -1 22.796875 -1 
C 34 -1 38.40625 9.671875 38.40625 11.796875 
C 38.40625 12.5 37.796875 12.5 37.59375 12.5 
C 36.90625 12.5 36.796875 12.296875 36.40625 11.078125 
C 34.203125 4.21875 28.703125 0.796875 23.5 0.796875 
C 19.203125 0.796875 14.90625 3.21875 12.203125 7.65625 
C 9.09375 12.796875 9.09375 18.75 9.09375 23.484375 
z
M 9.203125 25 
C 9.90625 39.234375 17.59375 42.390625 21.59375 42.390625 
C 28.40625 42.390625 33 36.0625 33.09375 25 
z
" id="CMR17-101"/>
     <path d="M 23.5 -25 
L 23.5 -21.5 
L 14.09375 -21.5 
L 14.09375 71.484375 
L 23.5 71.484375 
L 23.5 75 
L 10.59375 75 
L 10.59375 -25 
z
" id="CMR17-91"/>
     <path d="M 3.09375 -16.953125 
C 3 -17.4375 2.796875 -18.03125 2.796875 -18.609375 
C 2.796875 -20.109375 4 -21.109375 5.5 -21.109375 
C 7 -21.109375 8.40625 -20.109375 9 -18.71875 
C 9.40625 -17.828125 12.203125 -6.09375 15.40625 6.078125 
C 17.40625 1.09375 21.09375 -1 25 -1 
C 36.296875 -1 49.09375 12.96875 49.09375 28.03125 
C 49.09375 38.703125 42.59375 44 35.703125 44 
C 26.90625 44 16.203125 34.90625 12.90625 21.640625 
z
M 24.90625 1 
C 18.09375 1 16.40625 8.875 16.40625 10.078125 
C 16.40625 10.671875 18.90625 20.140625 19.203125 21.640625 
C 24.296875 41.5 34.09375 41.984375 35.59375 41.984375 
C 40.09375 41.984375 42.59375 37.90625 42.59375 32.015625 
C 42.59375 26.9375 39.90625 17.046875 38.203125 12.859375 
C 35.203125 5.984375 30 1 24.90625 1 
z
" id="CMMI12-26"/>
     <path d="M 14.296875 75 
L 1.40625 75 
L 1.40625 71.484375 
L 10.796875 71.484375 
L 10.796875 -21.5 
L 1.40625 -21.5 
L 1.40625 -25 
L 14.296875 -25 
z
" id="CMR17-93"/>
    </defs>
    <g transform="translate(352.486567 117.931831)rotate(-86.842577)scale(0.14 -0.14)">
     <use transform="scale(0.996264)" xlink:href="#CMR17-82"/>
     <use transform="translate(67.791102 0)scale(0.996264)" xlink:href="#CMR17-101"/>
     <use transform="translate(108.276762 0)scale(0.996264)" xlink:href="#CMR17-91"/>
     <use transform="translate(133.147821 0)scale(0.996264)" xlink:href="#CMMI12-26"/>
     <use transform="translate(183.462194 0)scale(0.996264)" xlink:href="#CMR17-93"/>
    </g>
   </g>
   <g id="Line3DCollection_3">
    <path d="M 305.316816 167.862227 
L 128.672708 129.967644 
L 19.616328 197.753012 
" style="fill:none;stroke:#b0b0b0;stroke-width:0.8;"/>
    <path d="M 307.022324 136.944766 
L 128.253098 99.908542 
L 17.796531 166.184833 
" style="fill:none;stroke:#b0b0b0;stroke-width:0.8;"/>
    <path d="M 308.769733 105.267741 
L 127.823617 69.142353 
L 15.930525 133.815053 
" style="fill:none;stroke:#b0b0b0;stroke-width:0.8;"/>
    <path d="M 310.560605 72.802813 
L 127.383914 37.64383 
L 14.016526 100.612747 
" style="fill:none;stroke:#b0b0b0;stroke-width:0.8;"/>
   </g>
   <g id="xtick_9">
    <g id="line2d_12">
     <path d="M 303.842945 167.546045 
L 308.267625 168.495249 
" style="fill:none;stroke:#000000;stroke-linecap:square;stroke-width:0.8;"/>
    </g>
    <g id="text_10">
     <!-- $0.0$ -->
     <defs>
      <path d="M 18.40625 4.796875 
C 18.40625 7.6875 16 9.6875 13.59375 9.6875 
C 10.703125 9.6875 8.703125 7.296875 8.703125 4.890625 
C 8.703125 2 11.09375 0 13.5 0 
C 16.40625 0 18.40625 2.390625 18.40625 4.796875 
z
" id="CMMI12-58"/>
     </defs>
     <g transform="translate(315.127697 175.608797)scale(0.14 -0.14)">
      <use transform="scale(0.996264)" xlink:href="#CMR17-48"/>
      <use transform="translate(45.690477 0)scale(0.996264)" xlink:href="#CMMI12-58"/>
      <use transform="translate(72.787654 0)scale(0.996264)" xlink:href="#CMR17-48"/>
     </g>
    </g>
   </g>
   <g id="xtick_10">
    <g id="line2d_13">
     <path d="M 305.529977 136.635591 
L 310.010163 137.563767 
" style="fill:none;stroke:#000000;stroke-linecap:square;stroke-width:0.8;"/>
    </g>
    <g id="text_11">
     <!-- $0.1$ -->
     <g transform="translate(317.053983 144.734358)scale(0.14 -0.14)">
      <use transform="scale(0.996264)" xlink:href="#CMR17-48"/>
      <use transform="translate(45.690477 0)scale(0.996264)" xlink:href="#CMMI12-58"/>
      <use transform="translate(72.787654 0)scale(0.996264)" xlink:href="#CMR17-49"/>
     </g>
    </g>
   </g>
   <g id="xtick_11">
    <g id="line2d_14">
     <path d="M 307.25844 104.966016 
L 311.795541 105.871835 
" style="fill:none;stroke:#000000;stroke-linecap:square;stroke-width:0.8;"/>
    </g>
    <g id="text_12">
     <!-- $0.2$ -->
     <defs>
      <path d="M 41.703125 15.46875 
L 39.90625 15.46875 
C 38.90625 8.390625 38.09375 7.1875 37.703125 6.59375 
C 37.203125 5.796875 30 5.796875 28.59375 5.796875 
L 9.40625 5.796875 
C 13 9.6875 20 16.765625 28.5 24.9375 
C 34.59375 30.71875 41.703125 37.5 41.703125 47.390625 
C 41.703125 59.1875 32.296875 66 21.796875 66 
C 10.796875 66 4.09375 56.296875 4.09375 47.296875 
C 4.09375 43.390625 7 42.890625 8.203125 42.890625 
C 9.203125 42.890625 12.203125 43.484375 12.203125 46.984375 
C 12.203125 50.09375 9.59375 51 8.203125 51 
C 7.59375 51 7 50.890625 6.59375 50.6875 
C 8.5 59.1875 14.296875 63.390625 20.40625 63.390625 
C 29.09375 63.390625 34.796875 56.5 34.796875 47.390625 
C 34.796875 38.703125 29.703125 31.21875 24 24.734375 
L 4.09375 2.296875 
L 4.09375 0 
L 39.296875 0 
z
" id="CMR17-50"/>
     </defs>
     <g transform="translate(319.027491 113.103063)scale(0.14 -0.14)">
      <use transform="scale(0.996264)" xlink:href="#CMR17-48"/>
      <use transform="translate(45.690477 0)scale(0.996264)" xlink:href="#CMMI12-58"/>
      <use transform="translate(72.787654 0)scale(0.996264)" xlink:href="#CMR17-50"/>
     </g>
    </g>
   </g>
   <g id="xtick_12">
    <g id="line2d_15">
     <path d="M 309.02988 72.509005 
L 313.62536 73.391063 
" style="fill:none;stroke:#000000;stroke-linecap:square;stroke-width:0.8;"/>
    </g>
    <g id="text_13">
     <!-- $0.3$ -->
     <defs>
      <path d="M 22.09375 34 
C 31 34 34.90625 26.140625 34.90625 17.09375 
C 34.90625 5.03125 28.5 0.390625 22.703125 0.390625 
C 17.40625 0.390625 8.796875 3.015625 6.09375 10.796875 
C 6.59375 10.59375 7.09375 10.59375 7.59375 10.59375 
C 10 10.59375 11.796875 12.1875 11.796875 14.796875 
C 11.796875 17.6875 9.59375 19 7.59375 19 
C 5.90625 19 3.296875 18.1875 3.296875 14.484375 
C 3.296875 5.234375 12.296875 -2 22.90625 -2 
C 34 -2 42.5 6.75 42.5 16.984375 
C 42.5 26.84375 34.5 34 25 35.09375 
C 32.59375 36.671875 39.90625 43.375 39.90625 52.390625 
C 39.90625 60.25 32 66 23 66 
C 13.90625 66 5.90625 60.34375 5.90625 52.296875 
C 5.90625 48.796875 8.5 48.1875 9.796875 48.1875 
C 11.90625 48.1875 13.703125 49.484375 13.703125 52.09375 
C 13.703125 54.6875 11.90625 56 9.796875 56 
C 9.40625 56 8.90625 56 8.5 55.796875 
C 11.40625 62.484375 19.296875 63.6875 22.796875 63.6875 
C 26.296875 63.6875 32.90625 61.96875 32.90625 52.296875 
C 32.90625 49.484375 32.5 44.546875 29.09375 40.21875 
C 26.09375 36.390625 22.703125 36.1875 19.40625 35.890625 
C 18.90625 35.890625 16.59375 35.6875 16.203125 35.6875 
C 15.5 35.59375 15.09375 35.5 15.09375 34.796875 
C 15.09375 34.09375 15.203125 34 17.203125 34 
z
" id="CMR17-51"/>
     </defs>
     <g transform="translate(321.049977 80.686736)scale(0.14 -0.14)">
      <use transform="scale(0.996264)" xlink:href="#CMR17-48"/>
      <use transform="translate(45.690477 0)scale(0.996264)" xlink:href="#CMMI12-58"/>
      <use transform="translate(72.787654 0)scale(0.996264)" xlink:href="#CMR17-51"/>
     </g>
    </g>
   </g>
  </g>
  <g id="axes_1">
   <g id="Poly3DCollection_1">
    <path clip-path="url(#p3b58c5b16b)" d="M 133.037626 136.328235 
L 133.051747 137.476151 
L 154.438688 142.098609 
L 154.434065 140.946743 
z
" style="fill:#ba0c2f;fill-opacity:0.8;"/>
    <path clip-path="url(#p3b58c5b16b)" d="M 120.251142 144.358545 
L 120.271134 145.513314 
L 133.051747 137.476151 
L 133.037626 136.328235 
z
" style="fill:#5d0618;fill-opacity:0.8;"/>
    <path clip-path="url(#p3b58c5b16b)" d="M 120.271134 145.513314 
L 141.786381 150.220613 
L 154.438688 142.098609 
L 133.051747 137.476151 
z
" style="fill:#a30a29;fill-opacity:0.8;"/>
    <path clip-path="url(#p3b58c5b16b)" d="M 120.251142 144.358545 
L 133.037626 136.328235 
L 154.434065 140.946743 
L 141.776001 149.061861 
z
" style="fill:#74081d;fill-opacity:0.8;"/>
    <path clip-path="url(#p3b58c5b16b)" d="M 141.776001 149.061861 
L 154.434065 140.946743 
L 154.438688 142.098609 
L 141.786381 150.220613 
z
" style="fill:#ba0c2f;fill-opacity:0.8;"/>
    <path clip-path="url(#p3b58c5b16b)" d="M 120.251142 144.358545 
L 141.776001 149.061861 
L 141.786381 150.220613 
L 120.271134 145.513314 
z
" style="fill:#5d0618;fill-opacity:0.8;"/>
   </g>
   <g id="Poly3DCollection_2">
    <path clip-path="url(#p3b58c5b16b)" d="M 176.05603 145.613933 
L 176.080546 140.031661 
L 197.979466 144.728964 
L 197.907107 150.330577 
z
" style="fill:#5d0618;fill-opacity:0.8;"/>
    <path clip-path="url(#p3b58c5b16b)" d="M 163.52983 153.815208 
L 163.527114 148.199376 
L 176.080546 140.031661 
L 176.05603 145.613933 
z
" style="fill:#ba0c2f;fill-opacity:0.8;"/>
    <path clip-path="url(#p3b58c5b16b)" d="M 163.52983 153.815208 
L 176.05603 145.613933 
L 197.907107 150.330577 
L 185.516303 158.61939 
z
" style="fill:#74081d;fill-opacity:0.8;"/>
    <path clip-path="url(#p3b58c5b16b)" d="M 163.527114 148.199376 
L 185.562026 152.98405 
L 197.979466 144.728964 
L 176.080546 140.031661 
z
" style="fill:#a30a29;fill-opacity:0.8;"/>
    <path clip-path="url(#p3b58c5b16b)" d="M 185.516303 158.61939 
L 197.907107 150.330577 
L 197.979466 144.728964 
L 185.562026 152.98405 
z
" style="fill:#5d0618;fill-opacity:0.8;"/>
    <path clip-path="url(#p3b58c5b16b)" d="M 163.52983 153.815208 
L 185.516303 158.61939 
L 185.562026 152.98405 
L 163.527114 148.199376 
z
" style="fill:#ba0c2f;fill-opacity:0.8;"/>
   </g>
   <g id="Poly3DCollection_3">
    <path clip-path="url(#p3b58c5b16b)" d="M 107.229406 152.536601 
L 107.075581 145.684173 
L 128.787356 150.450842 
L 128.883804 157.327082 
z
" style="fill:#5d0618;fill-opacity:0.8;"/>
    <path clip-path="url(#p3b58c5b16b)" d="M 93.965866 160.866517 
L 93.77482 153.972772 
L 107.075581 145.684173 
L 107.229406 152.536601 
z
" style="fill:#ba0c2f;fill-opacity:0.8;"/>
    <path clip-path="url(#p3b58c5b16b)" d="M 93.965866 160.866517 
L 107.229406 152.536601 
L 128.883804 157.327082 
L 115.750919 165.746608 
z
" style="fill:#74081d;fill-opacity:0.8;"/>
    <path clip-path="url(#p3b58c5b16b)" d="M 93.77482 153.972772 
L 115.61794 158.828849 
L 128.787356 150.450842 
L 107.075581 145.684173 
z
" style="fill:#a30a29;fill-opacity:0.8;"/>
    <path clip-path="url(#p3b58c5b16b)" d="M 115.750919 165.746608 
L 128.883804 157.327082 
L 128.787356 150.450842 
L 115.61794 158.828849 
z
" style="fill:#5d0618;fill-opacity:0.8;"/>
    <path clip-path="url(#p3b58c5b16b)" d="M 93.965866 160.866517 
L 115.750919 165.746608 
L 115.61794 158.828849 
L 93.77482 153.972772 
z
" style="fill:#ba0c2f;fill-opacity:0.8;"/>
   </g>
   <g id="Poly3DCollection_4">
    <path clip-path="url(#p3b58c5b16b)" d="M 219.990956 155.097466 
L 220.132256 148.545457 
L 242.510795 153.340617 
L 242.311317 159.915407 
z
" style="fill:#5d0618;fill-opacity:0.8;"/>
    <path clip-path="url(#p3b58c5b16b)" d="M 207.739171 163.475225 
L 207.850149 156.883687 
L 220.132256 148.545457 
L 219.990956 155.097466 
z
" style="fill:#ba0c2f;fill-opacity:0.8;"/>
    <path clip-path="url(#p3b58c5b16b)" d="M 207.739171 163.475225 
L 219.990956 155.097466 
L 242.311317 159.915407 
L 230.202268 168.383552 
z
" style="fill:#74081d;fill-opacity:0.8;"/>
    <path clip-path="url(#p3b58c5b16b)" d="M 207.850149 156.883687 
L 230.372176 161.76904 
L 242.510795 153.340617 
L 220.132256 148.545457 
z
" style="fill:#a30a29;fill-opacity:0.8;"/>
    <path clip-path="url(#p3b58c5b16b)" d="M 230.202268 168.383552 
L 242.311317 159.915407 
L 242.510795 153.340617 
L 230.372176 161.76904 
z
" style="fill:#5d0618;fill-opacity:0.8;"/>
    <path clip-path="url(#p3b58c5b16b)" d="M 207.739171 163.475225 
L 230.202268 168.383552 
L 230.372176 161.76904 
L 207.850149 156.883687 
z
" style="fill:#ba0c2f;fill-opacity:0.8;"/>
   </g>
   <g id="Poly3DCollection_5">
    <path clip-path="url(#p3b58c5b16b)" d="M 150.770693 162.168995 
L 150.747733 157.980553 
L 172.907235 162.860159 
L 172.893835 167.063174 
z
" style="fill:#5d0618;fill-opacity:0.8;"/>
    <path clip-path="url(#p3b58c5b16b)" d="M 137.77206 170.679586 
L 137.727363 166.46586 
L 150.747733 157.980553 
L 150.770693 162.168995 
z
" style="fill:#ba0c2f;fill-opacity:0.8;"/>
    <path clip-path="url(#p3b58c5b16b)" d="M 137.77206 170.679586 
L 150.770693 162.168995 
L 172.893835 167.063174 
L 160.033147 175.666315 
z
" style="fill:#74081d;fill-opacity:0.8;"/>
    <path clip-path="url(#p3b58c5b16b)" d="M 137.727363 166.46586 
L 160.025264 171.437895 
L 172.907235 162.860159 
L 150.747733 157.980553 
z
" style="fill:#a30a29;fill-opacity:0.8;"/>
    <path clip-path="url(#p3b58c5b16b)" d="M 160.033147 175.666315 
L 172.893835 167.063174 
L 172.907235 162.860159 
L 160.025264 171.437895 
z
" style="fill:#5d0618;fill-opacity:0.8;"/>
    <path clip-path="url(#p3b58c5b16b)" d="M 137.77206 170.679586 
L 160.033147 175.666315 
L 160.025264 171.437895 
L 137.727363 166.46586 
z
" style="fill:#ba0c2f;fill-opacity:0.8;"/>
   </g>
   <g id="Poly3DCollection_6">
    <path clip-path="url(#p3b58c5b16b)" d="M 80.453724 169.352563 
L 80.254228 163.327633 
L 102.222097 168.278847 
L 102.370541 174.324804 
z
" style="fill:#5d0618;fill-opacity:0.8;"/>
    <path clip-path="url(#p3b58c5b16b)" d="M 66.685923 177.999171 
L 66.451651 171.937759 
L 80.254228 163.327633 
L 80.453724 169.352563 
z
" style="fill:#ba0c2f;fill-opacity:0.8;"/>
    <path clip-path="url(#p3b58c5b16b)" d="M 66.685923 177.999171 
L 80.453724 169.352563 
L 102.370541 174.324804 
L 88.735607 183.066195 
z
" style="fill:#74081d;fill-opacity:0.8;"/>
    <path clip-path="url(#p3b58c5b16b)" d="M 66.451651 171.937759 
L 88.553001 176.983584 
L 102.222097 168.278847 
L 80.254228 163.327633 
z
" style="fill:#a30a29;fill-opacity:0.8;"/>
    <path clip-path="url(#p3b58c5b16b)" d="M 88.735607 183.066195 
L 102.370541 174.324804 
L 102.222097 168.278847 
L 88.553001 176.983584 
z
" style="fill:#5d0618;fill-opacity:0.8;"/>
    <path clip-path="url(#p3b58c5b16b)" d="M 66.685923 177.999171 
L 88.735607 183.066195 
L 88.553001 176.983584 
L 66.451651 171.937759 
z
" style="fill:#ba0c2f;fill-opacity:0.8;"/>
   </g>
   <g id="Poly3DCollection_7">
    <path clip-path="url(#p3b58c5b16b)" d="M 252.90951 173.345226 
L 264.872009 164.785224 
L 287.676936 169.707761 
L 275.8649 178.361122 
z
" style="fill:#74081d;fill-opacity:0.8;"/>
    <path clip-path="url(#p3b58c5b16b)" d="M 264.872009 164.785224 
L 266.864315 114.015311 
L 290.136622 118.75605 
L 287.676936 169.707761 
z
" style="fill:#5d0618;fill-opacity:0.8;"/>
    <path clip-path="url(#p3b58c5b16b)" d="M 252.90951 173.345226 
L 254.680576 122.259835 
L 266.864315 114.015311 
L 264.872009 164.785224 
z
" style="fill:#ba0c2f;fill-opacity:0.8;"/>
    <path clip-path="url(#p3b58c5b16b)" d="M 275.8649 178.361122 
L 287.676936 169.707761 
L 290.136622 118.75605 
L 278.109665 127.092306 
z
" style="fill:#5d0618;fill-opacity:0.8;"/>
    <path clip-path="url(#p3b58c5b16b)" d="M 252.90951 173.345226 
L 275.8649 178.361122 
L 278.109665 127.092306 
L 254.680576 122.259835 
z
" style="fill:#ba0c2f;fill-opacity:0.8;"/>
    <path clip-path="url(#p3b58c5b16b)" d="M 254.680576 122.259835 
L 278.109665 127.092306 
L 290.136622 118.75605 
L 266.864315 114.015311 
z
" style="fill:#a30a29;fill-opacity:0.8;"/>
   </g>
   <g id="Poly3DCollection_8">
    <path clip-path="url(#p3b58c5b16b)" d="M 240.719675 182.067903 
L 240.919856 175.390058 
L 264.089677 180.478608 
L 263.827148 187.179839 
z
" style="fill:#5d0618;fill-opacity:0.8;"/>
    <path clip-path="url(#p3b58c5b16b)" d="M 228.295961 190.957936 
L 228.465008 184.239515 
L 240.919856 175.390058 
L 240.719675 182.067903 
z
" style="fill:#ba0c2f;fill-opacity:0.8;"/>
    <path clip-path="url(#p3b58c5b16b)" d="M 228.295961 190.957936 
L 240.719675 182.067903 
L 263.827148 187.179839 
L 251.55715 196.168698 
z
" style="fill:#74081d;fill-opacity:0.8;"/>
    <path clip-path="url(#p3b58c5b16b)" d="M 228.465008 184.239515 
L 251.789385 189.426703 
L 264.089677 180.478608 
L 240.919856 175.390058 
z
" style="fill:#a30a29;fill-opacity:0.8;"/>
    <path clip-path="url(#p3b58c5b16b)" d="M 251.55715 196.168698 
L 263.827148 187.179839 
L 264.089677 180.478608 
L 251.789385 189.426703 
z
" style="fill:#5d0618;fill-opacity:0.8;"/>
    <path clip-path="url(#p3b58c5b16b)" d="M 228.295961 190.957936 
L 251.55715 196.168698 
L 251.789385 189.426703 
L 228.465008 184.239515 
z
" style="fill:#ba0c2f;fill-opacity:0.8;"/>
   </g>
   <g id="Poly3DCollection_9">
    <path clip-path="url(#p3b58c5b16b)" d="M 169.575502 189.571507 
L 169.583626 185.302589 
L 192.522557 190.482924 
L 192.475474 194.766795 
z
" style="fill:#5d0618;fill-opacity:0.8;"/>
    <path clip-path="url(#p3b58c5b16b)" d="M 156.362141 198.606792 
L 156.347797 194.311933 
L 169.583626 185.302589 
L 169.575502 189.571507 
z
" style="fill:#ba0c2f;fill-opacity:0.8;"/>
    <path clip-path="url(#p3b58c5b16b)" d="M 156.362141 198.606792 
L 169.575502 189.571507 
L 192.475474 194.766795 
L 179.410639 203.903344 
z
" style="fill:#74081d;fill-opacity:0.8;"/>
    <path clip-path="url(#p3b58c5b16b)" d="M 156.347797 194.311933 
L 179.435763 199.593414 
L 192.522557 190.482924 
L 169.583626 185.302589 
z
" style="fill:#a30a29;fill-opacity:0.8;"/>
    <path clip-path="url(#p3b58c5b16b)" d="M 179.410639 203.903344 
L 192.475474 194.766795 
L 192.522557 190.482924 
L 179.435763 199.593414 
z
" style="fill:#5d0618;fill-opacity:0.8;"/>
    <path clip-path="url(#p3b58c5b16b)" d="M 156.362141 198.606792 
L 179.410639 203.903344 
L 179.435763 199.593414 
L 156.347797 194.311933 
z
" style="fill:#ba0c2f;fill-opacity:0.8;"/>
   </g>
   <g id="Poly3DCollection_10">
    <path clip-path="url(#p3b58c5b16b)" d="M 182.538125 180.707677 
L 195.257079 172.010468 
L 217.864354 177.011749 
L 205.291023 185.804577 
z
" style="fill:#74081d;fill-opacity:0.8;"/>
    <path clip-path="url(#p3b58c5b16b)" d="M 195.257079 172.010468 
L 196.037747 106.877979 
L 219.231496 111.643517 
L 217.864354 177.011749 
z
" style="fill:#5d0618;fill-opacity:0.8;"/>
    <path clip-path="url(#p3b58c5b16b)" d="M 182.538125 180.707677 
L 182.997549 115.16609 
L 196.037747 106.877979 
L 195.257079 172.010468 
z
" style="fill:#ba0c2f;fill-opacity:0.8;"/>
    <path clip-path="url(#p3b58c5b16b)" d="M 205.291023 185.804577 
L 217.864354 177.011749 
L 219.231496 111.643517 
L 206.344634 120.025115 
z
" style="fill:#5d0618;fill-opacity:0.8;"/>
    <path clip-path="url(#p3b58c5b16b)" d="M 182.538125 180.707677 
L 205.291023 185.804577 
L 206.344634 120.025115 
L 182.997549 115.16609 
z
" style="fill:#ba0c2f;fill-opacity:0.8;"/>
    <path clip-path="url(#p3b58c5b16b)" d="M 182.997549 115.16609 
L 206.344634 120.025115 
L 219.231496 111.643517 
L 196.037747 106.877979 
z
" style="fill:#a30a29;fill-opacity:0.8;"/>
   </g>
   <g id="Poly3DCollection_11">
    <path clip-path="url(#p3b58c5b16b)" d="M 97.269802 197.197618 
L 97.105217 191.056584 
L 119.842462 196.31571 
L 119.952354 202.478312 
z
" style="fill:#5d0618;fill-opacity:0.8;"/>
    <path clip-path="url(#p3b58c5b16b)" d="M 83.242448 206.381744 
L 83.041716 200.203292 
L 97.105217 191.056584 
L 97.269802 197.197618 
z
" style="fill:#ba0c2f;fill-opacity:0.8;"/>
    <path clip-path="url(#p3b58c5b16b)" d="M 83.242448 206.381744 
L 97.269802 197.197618 
L 119.952354 202.478312 
L 106.068017 211.766222 
z
" style="fill:#74081d;fill-opacity:0.8;"/>
    <path clip-path="url(#p3b58c5b16b)" d="M 83.041716 200.203292 
L 105.922665 205.566035 
L 119.842462 196.31571 
L 97.105217 191.056584 
z
" style="fill:#a30a29;fill-opacity:0.8;"/>
    <path clip-path="url(#p3b58c5b16b)" d="M 106.068017 211.766222 
L 119.952354 202.478312 
L 119.842462 196.31571 
L 105.922665 205.566035 
z
" style="fill:#5d0618;fill-opacity:0.8;"/>
    <path clip-path="url(#p3b58c5b16b)" d="M 83.242448 206.381744 
L 106.068017 211.766222 
L 105.922665 205.566035 
L 83.041716 200.203292 
z
" style="fill:#ba0c2f;fill-opacity:0.8;"/>
   </g>
   <g id="Poly3DCollection_12">
    <path clip-path="url(#p3b58c5b16b)" d="M 215.631572 200.020189 
L 215.748814 194.221388 
L 239.2203 199.513497 
L 239.048117 205.332671 
z
" style="fill:#5d0618;fill-opacity:0.8;"/>
    <path clip-path="url(#p3b58c5b16b)" d="M 202.719447 209.259715 
L 202.807783 203.425571 
L 215.748814 194.221388 
L 215.631572 200.020189 
z
" style="fill:#ba0c2f;fill-opacity:0.8;"/>
    <path clip-path="url(#p3b58c5b16b)" d="M 202.719447 209.259715 
L 215.631572 200.020189 
L 239.048117 205.332671 
L 226.292997 214.676924 
z
" style="fill:#74081d;fill-opacity:0.8;"/>
    <path clip-path="url(#p3b58c5b16b)" d="M 202.807783 203.425571 
L 226.437019 208.822251 
L 239.2203 199.513497 
L 215.748814 194.221388 
z
" style="fill:#a30a29;fill-opacity:0.8;"/>
    <path clip-path="url(#p3b58c5b16b)" d="M 226.292997 214.676924 
L 239.048117 205.332671 
L 239.2203 199.513497 
L 226.437019 208.822251 
z
" style="fill:#5d0618;fill-opacity:0.8;"/>
    <path clip-path="url(#p3b58c5b16b)" d="M 202.719447 209.259715 
L 226.292997 214.676924 
L 226.437019 208.822251 
L 202.807783 203.425571 
z
" style="fill:#ba0c2f;fill-opacity:0.8;"/>
   </g>
   <g id="Poly3DCollection_13">
    <path clip-path="url(#p3b58c5b16b)" d="M 111.028819 188.189181 
L 124.527124 179.351439 
L 146.92743 184.433368 
L 133.569614 193.369063 
z
" style="fill:#74081d;fill-opacity:0.8;"/>
    <path clip-path="url(#p3b58c5b16b)" d="M 124.527124 179.351439 
L 123.357606 105.638077 
L 146.405987 110.451262 
L 146.92743 184.433368 
z
" style="fill:#5d0618;fill-opacity:0.8;"/>
    <path clip-path="url(#p3b58c5b16b)" d="M 111.028819 188.189181 
L 109.451629 114.009449 
L 123.357606 105.638077 
L 124.527124 179.351439 
z
" style="fill:#ba0c2f;fill-opacity:0.8;"/>
    <path clip-path="url(#p3b58c5b16b)" d="M 133.569614 193.369063 
L 146.92743 184.433368 
L 146.405987 110.451262 
L 132.648732 118.918152 
z
" style="fill:#5d0618;fill-opacity:0.8;"/>
    <path clip-path="url(#p3b58c5b16b)" d="M 111.028819 188.189181 
L 133.569614 193.369063 
L 132.648732 118.918152 
L 109.451629 114.009449 
z
" style="fill:#ba0c2f;fill-opacity:0.8;"/>
    <path clip-path="url(#p3b58c5b16b)" d="M 109.451629 114.009449 
L 132.648732 118.918152 
L 146.405987 110.451262 
L 123.357606 105.638077 
z
" style="fill:#a30a29;fill-opacity:0.8;"/>
   </g>
   <g id="Poly3DCollection_14">
    <path clip-path="url(#p3b58c5b16b)" d="M 142.890694 207.818555 
L 142.828591 200.69962 
L 166.092943 206.075361 
L 166.089173 213.219362 
z
" style="fill:#5d0618;fill-opacity:0.8;"/>
    <path clip-path="url(#p3b58c5b16b)" d="M 129.153525 217.212019 
L 129.051429 210.0496 
L 142.828591 200.69962 
L 142.890694 207.818555 
z
" style="fill:#ba0c2f;fill-opacity:0.8;"/>
    <path clip-path="url(#p3b58c5b16b)" d="M 129.153525 217.212019 
L 142.890694 207.818555 
L 166.089173 213.219362 
L 152.50344 222.720188 
z
" style="fill:#74081d;fill-opacity:0.8;"/>
    <path clip-path="url(#p3b58c5b16b)" d="M 129.051429 210.0496 
L 152.468078 215.532515 
L 166.092943 206.075361 
L 142.828591 200.69962 
z
" style="fill:#a30a29;fill-opacity:0.8;"/>
    <path clip-path="url(#p3b58c5b16b)" d="M 152.50344 222.720188 
L 166.089173 213.219362 
L 166.092943 206.075361 
L 152.468078 215.532515 
z
" style="fill:#5d0618;fill-opacity:0.8;"/>
    <path clip-path="url(#p3b58c5b16b)" d="M 129.153525 217.212019 
L 152.50344 222.720188 
L 152.468078 215.532515 
L 129.051429 210.0496 
z
" style="fill:#ba0c2f;fill-opacity:0.8;"/>
   </g>
   <g id="Poly3DCollection_15">
    <path clip-path="url(#p3b58c5b16b)" d="M 189.552243 218.681767 
L 189.540183 219.896865 
L 213.260712 225.42619 
L 213.284456 224.20683 
z
" style="fill:#ba0c2f;fill-opacity:0.8;"/>
    <path clip-path="url(#p3b58c5b16b)" d="M 176.122328 228.291807 
L 176.116748 229.514298 
L 189.540183 219.896865 
L 189.552243 218.681767 
z
" style="fill:#5d0618;fill-opacity:0.8;"/>
    <path clip-path="url(#p3b58c5b16b)" d="M 176.116748 229.514298 
L 199.997442 235.154762 
L 213.260712 225.42619 
L 189.540183 219.896865 
z
" style="fill:#a30a29;fill-opacity:0.8;"/>
    <path clip-path="url(#p3b58c5b16b)" d="M 176.122328 228.291807 
L 189.552243 218.681767 
L 213.284456 224.20683 
L 200.014865 233.927979 
z
" style="fill:#74081d;fill-opacity:0.8;"/>
    <path clip-path="url(#p3b58c5b16b)" d="M 200.014865 233.927979 
L 213.284456 224.20683 
L 213.260712 225.42619 
L 199.997442 235.154762 
z
" style="fill:#ba0c2f;fill-opacity:0.8;"/>
    <path clip-path="url(#p3b58c5b16b)" d="M 176.122328 228.291807 
L 200.014865 233.927979 
L 199.997442 235.154762 
L 176.116748 229.514298 
z
" style="fill:#5d0618;fill-opacity:0.8;"/>
   </g>
   <g id="Poly3DCollection_16">
    <path clip-path="url(#p3b58c5b16b)" d="M 25.513649 197.136018 
L 203.75546 239.378802 
L 299.780532 168.441449 
L 130.037732 131.956767 
z
" style="fill-opacity:0.15;"/>
   </g>
   <g id="Poly3DCollection_17">
    <path clip-path="url(#p3b58c5b16b)" d="M 38.353765 195.792649 
L 52.655139 186.81094 
L 74.838784 191.975484 
L 60.672454 201.057556 
z
" style="fill:#74081d;fill-opacity:0.8;"/>
    <path clip-path="url(#p3b58c5b16b)" d="M 52.655139 186.81094 
L 46.933544 57.750519 
L 70.222556 62.427839 
L 74.838784 191.975484 
z
" style="fill:#5d0618;fill-opacity:0.8;"/>
    <path clip-path="url(#p3b58c5b16b)" d="M 38.353765 195.792649 
L 31.836896 65.886594 
L 46.933544 57.750519 
L 52.655139 186.81094 
z
" style="fill:#ba0c2f;fill-opacity:0.8;"/>
    <path clip-path="url(#p3b58c5b16b)" d="M 60.672454 201.057556 
L 74.838784 191.975484 
L 70.222556 62.427839 
L 55.274545 70.659531 
z
" style="fill:#5d0618;fill-opacity:0.8;"/>
    <path clip-path="url(#p3b58c5b16b)" d="M 38.353765 195.792649 
L 60.672454 201.057556 
L 55.274545 70.659531 
L 31.836896 65.886594 
z
" style="fill:#ba0c2f;fill-opacity:0.8;"/>
    <path clip-path="url(#p3b58c5b16b)" d="M 31.836896 65.886594 
L 55.274545 70.659531 
L 70.222556 62.427839 
L 46.933544 57.750519 
z
" style="fill:#a30a29;fill-opacity:0.8;"/>
   </g>
  </g>
  <g id="patch_6">
   <path d="M 425.945455 262.8 
L 806.4 262.8 
L 806.4 -14.4 
L 425.945455 -14.4 
z
" style="fill:#ffffff;"/>
  </g>
  <g id="pane3d_4">
   <g id="patch_7">
    <path d="M 476.380584 201.548569 
L 585.268665 133.58541 
L 583.455794 3.718968 
L 468.496488 64.782468 
" style="fill:#f2f2f2;opacity:0.5;stroke:#f2f2f2;stroke-linejoin:miter;"/>
   </g>
  </g>
  <g id="pane3d_5">
   <g id="patch_8">
    <path d="M 585.268665 133.58541 
L 761.65712 171.581202 
L 769.037001 37.79869 
L 583.455794 3.718968 
" style="fill:#e6e6e6;opacity:0.5;stroke:#e6e6e6;stroke-linejoin:miter;"/>
   </g>
  </g>
  <g id="pane3d_6">
   <g id="patch_9">
    <path d="M 476.380584 201.548569 
L 661.965072 245.80086 
L 761.65712 171.581202 
L 585.268665 133.58541 
" style="fill:#ececec;opacity:0.5;stroke:#ececec;stroke-linejoin:miter;"/>
   </g>
  </g>
  <g id="axis3d_4">
   <g id="line2d_16">
    <path d="M 476.380584 201.548569 
L 661.965072 245.80086 
" style="fill:none;stroke:#000000;stroke-linecap:square;stroke-width:0.8;"/>
   </g>
   <g id="Line3DCollection_4">
    <path d="M 498.841271 206.90428 
L 606.679397 138.19749 
L 605.9393 7.847789 
" style="fill:none;stroke:#b0b0b0;stroke-width:0.8;"/>
    <path d="M 544.057792 217.686079 
L 649.729469 147.470895 
L 651.182353 16.156123 
" style="fill:none;stroke:#b0b0b0;stroke-width:0.8;"/>
    <path d="M 590.310744 228.715013 
L 693.693551 156.941187 
L 697.435637 24.649974 
" style="fill:none;stroke:#b0b0b0;stroke-width:0.8;"/>
    <path d="M 637.636176 239.999678 
L 738.601063 166.614702 
L 744.733372 33.335625 
" style="fill:none;stroke:#b0b0b0;stroke-width:0.8;"/>
   </g>
   <g id="xtick_13">
    <g id="line2d_17">
     <path d="M 499.770538 206.312217 
L 496.979262 208.09062 
" style="fill:none;stroke:#000000;stroke-linecap:square;stroke-width:0.8;"/>
    </g>
    <g id="text_14">
     <!-- 00 -->
     <g transform="translate(479.875817 237.14703)rotate(-45)scale(0.14 -0.14)">
      <use transform="scale(0.996264)" xlink:href="#CMR17-48"/>
      <use transform="translate(45.690477 0)scale(0.996264)" xlink:href="#CMR17-48"/>
     </g>
    </g>
   </g>
   <g id="xtick_14">
    <g id="line2d_18">
     <path d="M 544.969128 217.080527 
L 542.231671 218.899473 
" style="fill:none;stroke:#000000;stroke-linecap:square;stroke-width:0.8;"/>
    </g>
    <g id="text_15">
     <!-- 01 -->
     <g transform="translate(525.088242 248.103782)rotate(-45)scale(0.14 -0.14)">
      <use transform="scale(0.996264)" xlink:href="#CMR17-48"/>
      <use transform="translate(45.690477 0)scale(0.996264)" xlink:href="#CMR17-49"/>
     </g>
    </g>
   </g>
   <g id="xtick_15">
    <g id="line2d_19">
     <path d="M 591.20308 228.095506 
L 588.522658 229.956397 
" style="fill:none;stroke:#000000;stroke-linecap:square;stroke-width:0.8;"/>
    </g>
    <g id="text_16">
     <!-- 10 -->
     <g transform="translate(571.338855 259.312128)rotate(-45)scale(0.14 -0.14)">
      <use transform="scale(0.996264)" xlink:href="#CMR17-49"/>
      <use transform="translate(45.690477 0)scale(0.996264)" xlink:href="#CMR17-48"/>
     </g>
    </g>
   </g>
   <g id="xtick_16">
    <g id="line2d_20">
     <path d="M 638.50838 239.365727 
L 635.888391 241.270032 
" style="fill:none;stroke:#000000;stroke-linecap:square;stroke-width:0.8;"/>
    </g>
    <g id="text_17">
     <!-- 11 -->
     <g transform="translate(618.66383 270.780834)rotate(-45)scale(0.14 -0.14)">
      <use transform="scale(0.996264)" xlink:href="#CMR17-49"/>
      <use transform="translate(45.690477 0)scale(0.996264)" xlink:href="#CMR17-49"/>
     </g>
    </g>
   </g>
  </g>
  <g id="axis3d_5">
   <g id="line2d_21">
    <path d="M 761.65712 171.581202 
L 661.965072 245.80086 
" style="fill:none;stroke:#000000;stroke-linecap:square;stroke-width:0.8;"/>
   </g>
   <g id="Line3DCollection_5">
    <path d="M 484.000685 56.547028 
L 491.016499 192.413474 
L 675.403872 235.795817 
" style="fill:none;stroke:#b0b0b0;stroke-width:0.8;"/>
    <path d="M 513.777478 40.730342 
L 519.168861 174.842005 
L 701.219492 216.576366 
" style="fill:none;stroke:#b0b0b0;stroke-width:0.8;"/>
    <path d="M 542.401344 25.526062 
L 546.284836 157.917404 
L 726.04244 198.095948 
" style="fill:none;stroke:#b0b0b0;stroke-width:0.8;"/>
    <path d="M 569.937971 10.899296 
L 572.420618 141.604597 
L 749.928893 180.312741 
" style="fill:none;stroke:#b0b0b0;stroke-width:0.8;"/>
   </g>
   <g id="xtick_17">
    <g id="line2d_22">
     <path d="M 673.861052 235.432825 
L 678.492943 236.522608 
" style="fill:none;stroke:#000000;stroke-linecap:square;stroke-width:0.8;"/>
    </g>
    <g id="text_18">
     <!-- 00 -->
     <g transform="translate(689.195824 248.348363)rotate(-337.5)scale(0.14 -0.14)">
      <use transform="scale(0.996264)" xlink:href="#CMR17-48"/>
      <use transform="translate(45.690477 0)scale(0.996264)" xlink:href="#CMR17-48"/>
     </g>
    </g>
   </g>
   <g id="xtick_18">
    <g id="line2d_23">
     <path d="M 699.697534 216.227463 
L 704.266725 217.274932 
" style="fill:none;stroke:#000000;stroke-linecap:square;stroke-width:0.8;"/>
    </g>
    <g id="text_19">
     <!-- 01 -->
     <g transform="translate(714.749375 228.903937)rotate(-337.5)scale(0.14 -0.14)">
      <use transform="scale(0.996264)" xlink:href="#CMR17-48"/>
      <use transform="translate(45.690477 0)scale(0.996264)" xlink:href="#CMR17-49"/>
     </g>
    </g>
   </g>
   <g id="xtick_19">
    <g id="line2d_24">
     <path d="M 724.540896 197.76033 
L 729.048738 198.767901 
" style="fill:none;stroke:#000000;stroke-linecap:square;stroke-width:0.8;"/>
    </g>
    <g id="text_20">
     <!-- 10 -->
     <g transform="translate(739.320787 210.206849)rotate(-337.5)scale(0.14 -0.14)">
      <use transform="scale(0.996264)" xlink:href="#CMR17-49"/>
      <use transform="translate(45.690477 0)scale(0.996264)" xlink:href="#CMR17-48"/>
     </g>
    </g>
   </g>
   <g id="xtick_20">
    <g id="line2d_25">
     <path d="M 748.44732 179.989663 
L 752.895146 180.959573 
" style="fill:none;stroke:#000000;stroke-linecap:square;stroke-width:0.8;"/>
    </g>
    <g id="text_21">
     <!-- 11 -->
     <g transform="translate(762.965613 192.214827)rotate(-337.5)scale(0.14 -0.14)">
      <use transform="scale(0.996264)" xlink:href="#CMR17-49"/>
      <use transform="translate(45.690477 0)scale(0.996264)" xlink:href="#CMR17-49"/>
     </g>
    </g>
   </g>
  </g>
  <g id="axis3d_6">
   <g id="line2d_26">
    <path d="M 761.65712 171.581202 
L 769.037001 37.79869 
" style="fill:none;stroke:#000000;stroke-linecap:square;stroke-width:0.8;"/>
   </g>
   <g id="text_22">
    <!-- Im[$\rho$] -->
    <defs>
     <path d="M 19.703125 60.90625 
C 19.703125 65.390625 20.90625 65.390625 28.09375 65.390625 
L 28.09375 68 
C 24.90625 67.796875 19.796875 67.796875 16.40625 67.796875 
C 13 67.796875 7.90625 67.796875 4.703125 68 
L 4.703125 65.390625 
C 11.90625 65.390625 13.09375 65.390625 13.09375 60.90625 
L 13.09375 7.078125 
C 13.09375 2.59375 11.90625 2.59375 4.703125 2.59375 
L 4.703125 0 
C 7.90625 0.1875 13 0.1875 16.40625 0.1875 
C 19.796875 0.1875 24.90625 0.1875 28.09375 0 
L 28.09375 2.59375 
C 20.90625 2.59375 19.703125 2.59375 19.703125 7.078125 
z
" id="CMR17-73"/>
     <path d="M 67.59375 30.53125 
C 67.59375 35.5625 66.703125 44 54.796875 44 
C 48 44 43.296875 39.375 41.5 33.953125 
L 41.40625 33.953125 
C 40.203125 42.1875 34.296875 44 28.703125 44 
C 20.796875 44 16.703125 37.875 15.203125 33.84375 
L 15.09375 33.84375 
L 15.09375 44 
L 3.296875 42.890625 
L 3.296875 40.28125 
C 9.203125 40.28125 10.09375 39.6875 10.09375 34.859375 
L 10.09375 6.921875 
C 10.09375 3.09375 9.703125 2.59375 3.296875 2.59375 
L 3.296875 0 
C 5.703125 0.1875 10.09375 0.1875 12.703125 0.1875 
C 15.296875 0.1875 19.796875 0.1875 22.203125 0 
L 22.203125 2.59375 
C 15.796875 2.59375 15.40625 3 15.40625 6.921875 
L 15.40625 26.21875 
C 15.40625 35.453125 21 42.390625 28 42.390625 
C 35.40625 42.390625 36.203125 35.765625 36.203125 30.9375 
L 36.203125 6.921875 
C 36.203125 3.09375 35.796875 2.59375 29.40625 2.59375 
L 29.40625 0 
C 31.796875 0.1875 36.203125 0.1875 38.796875 0.1875 
C 41.40625 0.1875 45.90625 0.1875 48.296875 0 
L 48.296875 2.59375 
C 41.90625 2.59375 41.5 3 41.5 6.921875 
L 41.5 26.21875 
C 41.5 35.453125 47.09375 42.390625 54.09375 42.390625 
C 61.5 42.390625 62.296875 35.765625 62.296875 30.9375 
L 62.296875 6.921875 
C 62.296875 3.09375 61.90625 2.59375 55.5 2.59375 
L 55.5 0 
C 57.90625 0.1875 62.296875 0.1875 64.90625 0.1875 
C 67.5 0.1875 72 0.1875 74.40625 0 
L 74.40625 2.59375 
C 68 2.59375 67.59375 3 67.59375 6.921875 
z
" id="CMR17-109"/>
    </defs>
    <g transform="translate(809.026865 118.025317)rotate(-86.842577)scale(0.14 -0.14)">
     <use transform="scale(0.996264)" xlink:href="#CMR17-73"/>
     <use transform="translate(32.638409 0)scale(0.996264)" xlink:href="#CMR17-109"/>
     <use transform="translate(109.557999 0)scale(0.996264)" xlink:href="#CMR17-91"/>
     <use transform="translate(134.429058 0)scale(0.996264)" xlink:href="#CMMI12-26"/>
     <use transform="translate(184.74343 0)scale(0.996264)" xlink:href="#CMR17-93"/>
    </g>
   </g>
   <g id="Line3DCollection_6">
    <path d="M 762.336855 159.258952 
L 585.101357 121.600179 
L 475.655541 188.971185 
" style="fill:none;stroke:#b0b0b0;stroke-width:0.8;"/>
    <path d="M 763.931117 130.358166 
L 584.709214 93.508717 
L 473.954113 159.45636 
" style="fill:none;stroke:#b0b0b0;stroke-width:0.8;"/>
    <path d="M 765.561838 100.796461 
L 584.308485 64.802195 
L 472.212466 129.243864 
" style="fill:none;stroke:#b0b0b0;stroke-width:0.8;"/>
    <path d="M 767.230282 70.550905 
L 583.898886 35.460191 
L 470.429158 98.308662 
" style="fill:none;stroke:#b0b0b0;stroke-width:0.8;"/>
   </g>
   <g id="xtick_21">
    <g id="line2d_27">
     <path d="M 760.857845 158.944694 
L 765.297965 159.888125 
" style="fill:none;stroke:#000000;stroke-linecap:square;stroke-width:0.8;"/>
    </g>
    <g id="text_23">
     <!-- $0.0$ -->
     <g transform="translate(772.209181 167.017334)scale(0.14 -0.14)">
      <use transform="scale(0.996264)" xlink:href="#CMR17-48"/>
      <use transform="translate(45.690477 0)scale(0.996264)" xlink:href="#CMMI12-58"/>
      <use transform="translate(72.787654 0)scale(0.996264)" xlink:href="#CMR17-48"/>
     </g>
    </g>
   </g>
   <g id="xtick_22">
    <g id="line2d_28">
     <path d="M 762.434832 130.050517 
L 766.926849 130.974112 
" style="fill:none;stroke:#000000;stroke-linecap:square;stroke-width:0.8;"/>
    </g>
    <g id="text_24">
     <!-- $0.1$ -->
     <g transform="translate(774.009798 138.157128)scale(0.14 -0.14)">
      <use transform="scale(0.996264)" xlink:href="#CMR17-48"/>
      <use transform="translate(45.690477 0)scale(0.996264)" xlink:href="#CMMI12-58"/>
      <use transform="translate(72.787654 0)scale(0.996264)" xlink:href="#CMR17-49"/>
     </g>
    </g>
   </g>
   <g id="xtick_23">
    <g id="line2d_29">
     <path d="M 764.047869 100.495809 
L 768.593009 101.398407 
" style="fill:none;stroke:#000000;stroke-linecap:square;stroke-width:0.8;"/>
    </g>
    <g id="text_25">
     <!-- $0.2$ -->
     <g transform="translate(775.851502 108.638372)scale(0.14 -0.14)">
      <use transform="scale(0.996264)" xlink:href="#CMR17-48"/>
      <use transform="translate(45.690477 0)scale(0.996264)" xlink:href="#CMMI12-58"/>
      <use transform="translate(72.787654 0)scale(0.996264)" xlink:href="#CMR17-50"/>
     </g>
    </g>
   </g>
   <g id="xtick_24">
    <g id="line2d_30">
     <path d="M 765.698208 70.257657 
L 770.297739 71.138034 
" style="fill:none;stroke:#000000;stroke-linecap:square;stroke-width:0.8;"/>
    </g>
    <g id="text_26">
     <!-- $0.3$ -->
     <g transform="translate(777.735716 78.438265)scale(0.14 -0.14)">
      <use transform="scale(0.996264)" xlink:href="#CMR17-48"/>
      <use transform="translate(45.690477 0)scale(0.996264)" xlink:href="#CMMI12-58"/>
      <use transform="translate(72.787654 0)scale(0.996264)" xlink:href="#CMR17-51"/>
     </g>
    </g>
   </g>
  </g>
  <g id="axes_2">
   <g id="Poly3DCollection_18">
    <path clip-path="url(#p0c10b60f88)" d="M 589.479651 127.920453 
L 589.477132 127.715689 
L 610.944831 132.304396 
L 610.945656 132.509872 
z
" style="fill:#065d4c;fill-opacity:0.8;"/>
    <path clip-path="url(#p0c10b60f88)" d="M 576.650161 135.900286 
L 576.646594 135.694286 
L 589.477132 127.715689 
L 589.479651 127.920453 
z
" style="fill:#0cba97;fill-opacity:0.8;"/>
    <path clip-path="url(#p0c10b60f88)" d="M 576.650161 135.900286 
L 589.479651 127.920453 
L 610.945656 132.509872 
L 598.245422 140.574257 
z
" style="fill:#08745e;fill-opacity:0.8;"/>
    <path clip-path="url(#p0c10b60f88)" d="M 576.646594 135.694286 
L 598.24357 140.36754 
L 610.944831 132.304396 
L 589.477132 127.715689 
z
" style="fill:#0aa384;fill-opacity:0.8;"/>
    <path clip-path="url(#p0c10b60f88)" d="M 598.245422 140.574257 
L 610.945656 132.509872 
L 610.944831 132.304396 
L 598.24357 140.36754 
z
" style="fill:#065d4c;fill-opacity:0.8;"/>
    <path clip-path="url(#p0c10b60f88)" d="M 576.650161 135.900286 
L 598.245422 140.574257 
L 598.24357 140.36754 
L 576.646594 135.694286 
z
" style="fill:#0cba97;fill-opacity:0.8;"/>
   </g>
   <g id="Poly3DCollection_19">
    <path clip-path="url(#p0c10b60f88)" d="M 632.638666 137.147825 
L 632.654924 133.446058 
L 654.610287 138.120377 
L 654.562302 141.835085 
z
" style="fill:#065d4c;fill-opacity:0.8;"/>
    <path clip-path="url(#p0c10b60f88)" d="M 620.071166 145.298114 
L 620.069365 141.57389 
L 632.654924 133.446058 
L 632.638666 137.147825 
z
" style="fill:#0cba97;fill-opacity:0.8;"/>
    <path clip-path="url(#p0c10b60f88)" d="M 620.071166 145.298114 
L 632.638666 137.147825 
L 654.562302 141.835085 
L 642.131103 150.072658 
z
" style="fill:#08745e;fill-opacity:0.8;"/>
    <path clip-path="url(#p0c10b60f88)" d="M 620.069365 141.57389 
L 642.161427 146.335379 
L 654.610287 138.120377 
L 632.654924 133.446058 
z
" style="fill:#0aa384;fill-opacity:0.8;"/>
    <path clip-path="url(#p0c10b60f88)" d="M 642.131103 150.072658 
L 654.562302 141.835085 
L 654.610287 138.120377 
L 642.161427 146.335379 
z
" style="fill:#065d4c;fill-opacity:0.8;"/>
    <path clip-path="url(#p0c10b60f88)" d="M 620.071166 145.298114 
L 642.131103 150.072658 
L 642.161427 146.335379 
L 620.069365 141.57389 
z
" style="fill:#0cba97;fill-opacity:0.8;"/>
   </g>
   <g id="Poly3DCollection_20">
    <path clip-path="url(#p0c10b60f88)" d="M 563.583844 144.027423 
L 563.442481 137.730148 
L 585.220854 142.468931 
L 585.309492 148.788305 
z
" style="fill:#065d4c;fill-opacity:0.8;"/>
    <path clip-path="url(#p0c10b60f88)" d="M 550.274083 152.30598 
L 550.098504 145.970358 
L 563.442481 137.730148 
L 563.583844 144.027423 
z
" style="fill:#0cba97;fill-opacity:0.8;"/>
    <path clip-path="url(#p0c10b60f88)" d="M 550.274083 152.30598 
L 563.583844 144.027423 
L 585.309492 148.788305 
L 572.131242 157.156221 
z
" style="fill:#08745e;fill-opacity:0.8;"/>
    <path clip-path="url(#p0c10b60f88)" d="M 550.098504 145.970358 
L 572.009025 150.798305 
L 585.220854 142.468931 
L 563.442481 137.730148 
z
" style="fill:#0aa384;fill-opacity:0.8;"/>
    <path clip-path="url(#p0c10b60f88)" d="M 572.131242 157.156221 
L 585.309492 148.788305 
L 585.220854 142.468931 
L 572.009025 150.798305 
z
" style="fill:#065d4c;fill-opacity:0.8;"/>
    <path clip-path="url(#p0c10b60f88)" d="M 550.274083 152.30598 
L 572.131242 157.156221 
L 572.009025 150.798305 
L 550.098504 145.970358 
z
" style="fill:#0cba97;fill-opacity:0.8;"/>
   </g>
   <g id="Poly3DCollection_21">
    <path clip-path="url(#p0c10b60f88)" d="M 676.720261 146.572444 
L 676.778885 143.854071 
L 699.199084 148.632808 
L 699.11632 151.360708 
z
" style="fill:#065d4c;fill-opacity:0.8;"/>
    <path clip-path="url(#p0c10b60f88)" d="M 664.429023 154.89871 
L 664.475069 152.163804 
L 676.778885 143.854071 
L 676.720261 146.572444 
z
" style="fill:#0cba97;fill-opacity:0.8;"/>
    <path clip-path="url(#p0c10b60f88)" d="M 664.429023 154.89871 
L 676.720261 146.572444 
L 699.11632 151.360708 
L 686.968797 159.777107 
z
" style="fill:#08745e;fill-opacity:0.8;"/>
    <path clip-path="url(#p0c10b60f88)" d="M 664.475069 152.163804 
L 687.039296 157.032592 
L 699.199084 148.632808 
L 676.778885 143.854071 
z
" style="fill:#0aa384;fill-opacity:0.8;"/>
    <path clip-path="url(#p0c10b60f88)" d="M 686.968797 159.777107 
L 699.11632 151.360708 
L 699.199084 148.632808 
L 687.039296 157.032592 
z
" style="fill:#065d4c;fill-opacity:0.8;"/>
    <path clip-path="url(#p0c10b60f88)" d="M 664.429023 154.89871 
L 686.968797 159.777107 
L 687.039296 157.032592 
L 664.475069 152.163804 
z
" style="fill:#0cba97;fill-opacity:0.8;"/>
   </g>
   <g id="Poly3DCollection_22">
    <path clip-path="url(#p0c10b60f88)" d="M 607.269177 153.600474 
L 607.269809 153.715777 
L 629.466333 158.580469 
L 629.466702 158.464762 
z
" style="fill:#0cba97;fill-opacity:0.8;"/>
    <path clip-path="url(#p0c10b60f88)" d="M 594.226074 162.059202 
L 594.227304 162.175206 
L 607.269809 153.715777 
L 607.269177 153.600474 
z
" style="fill:#065d4c;fill-opacity:0.8;"/>
    <path clip-path="url(#p0c10b60f88)" d="M 594.227304 162.175206 
L 616.562692 167.1322 
L 629.466333 158.580469 
L 607.269809 153.715777 
z
" style="fill:#0aa384;fill-opacity:0.8;"/>
    <path clip-path="url(#p0c10b60f88)" d="M 594.226074 162.059202 
L 607.269177 153.600474 
L 629.466702 158.464762 
L 616.562475 167.015789 
z
" style="fill:#08745e;fill-opacity:0.8;"/>
    <path clip-path="url(#p0c10b60f88)" d="M 616.562475 167.015789 
L 629.466702 158.464762 
L 629.466333 158.580469 
L 616.562692 167.1322 
z
" style="fill:#0cba97;fill-opacity:0.8;"/>
    <path clip-path="url(#p0c10b60f88)" d="M 594.226074 162.059202 
L 616.562475 167.015789 
L 616.562692 167.1322 
L 594.227304 162.175206 
z
" style="fill:#065d4c;fill-opacity:0.8;"/>
   </g>
   <g id="Poly3DCollection_23">
    <path clip-path="url(#p0c10b60f88)" d="M 721.754336 156.200703 
L 721.754336 156.200703 
L 744.638254 161.093271 
L 744.638254 161.093271 
z
" style="fill:#065d4c;fill-opacity:0.8;"/>
    <path clip-path="url(#p0c10b60f88)" d="M 709.754382 164.708707 
L 709.754382 164.708707 
L 721.754336 156.200703 
L 721.754336 156.200703 
z
" style="fill:#065d4c;fill-opacity:0.8;"/>
    <path clip-path="url(#p0c10b60f88)" d="M 709.754382 164.708707 
L 721.754336 156.200703 
L 744.638254 161.093271 
L 732.789821 169.694383 
z
" style="fill:#08745e;fill-opacity:0.8;"/>
    <path clip-path="url(#p0c10b60f88)" d="M 709.754382 164.708707 
L 732.789821 169.694383 
L 744.638254 161.093271 
L 721.754336 156.200703 
z
" style="fill:#0aa384;fill-opacity:0.8;"/>
    <path clip-path="url(#p0c10b60f88)" d="M 732.789821 169.694383 
L 744.638254 161.093271 
L 744.638254 161.093271 
L 732.789821 169.694383 
z
" style="fill:#065d4c;fill-opacity:0.8;"/>
    <path clip-path="url(#p0c10b60f88)" d="M 709.754382 164.708707 
L 732.789821 169.694383 
L 732.789821 169.694383 
L 709.754382 164.708707 
z
" style="fill:#065d4c;fill-opacity:0.8;"/>
   </g>
   <g id="Poly3DCollection_24">
    <path clip-path="url(#p0c10b60f88)" d="M 651.905953 163.382021 
L 651.905953 163.382021 
L 674.590899 168.353121 
L 674.590899 168.353121 
z
" style="fill:#065d4c;fill-opacity:0.8;"/>
    <path clip-path="url(#p0c10b60f88)" d="M 639.144429 172.026865 
L 639.144429 172.026865 
L 651.905953 163.382021 
L 651.905953 163.382021 
z
" style="fill:#065d4c;fill-opacity:0.8;"/>
    <path clip-path="url(#p0c10b60f88)" d="M 639.144429 172.026865 
L 651.905953 163.382021 
L 674.590899 168.353121 
L 661.976009 177.093335 
z
" style="fill:#08745e;fill-opacity:0.8;"/>
    <path clip-path="url(#p0c10b60f88)" d="M 639.144429 172.026865 
L 661.976009 177.093335 
L 674.590899 168.353121 
L 651.905953 163.382021 
z
" style="fill:#0aa384;fill-opacity:0.8;"/>
    <path clip-path="url(#p0c10b60f88)" d="M 661.976009 177.093335 
L 674.590899 168.353121 
L 674.590899 168.353121 
L 661.976009 177.093335 
z
" style="fill:#065d4c;fill-opacity:0.8;"/>
    <path clip-path="url(#p0c10b60f88)" d="M 639.144429 172.026865 
L 661.976009 177.093335 
L 661.976009 177.093335 
L 639.144429 172.026865 
z
" style="fill:#065d4c;fill-opacity:0.8;"/>
   </g>
   <g id="Poly3DCollection_25">
    <path clip-path="url(#p0c10b60f88)" d="M 536.714009 160.740231 
L 536.387408 150.876644 
L 558.460768 155.783914 
L 558.703801 165.682368 
z
" style="fill:#065d4c;fill-opacity:0.8;"/>
    <path clip-path="url(#p0c10b60f88)" d="M 522.896494 169.334607 
L 522.512929 159.410519 
L 536.387408 150.876644 
L 536.714009 160.740231 
z
" style="fill:#0cba97;fill-opacity:0.8;"/>
    <path clip-path="url(#p0c10b60f88)" d="M 522.896494 169.334607 
L 536.714009 160.740231 
L 558.703801 165.682368 
L 545.020031 174.371278 
z
" style="fill:#08745e;fill-opacity:0.8;"/>
    <path clip-path="url(#p0c10b60f88)" d="M 522.512929 159.410519 
L 544.721044 164.412025 
L 558.460768 155.783914 
L 536.387408 150.876644 
z
" style="fill:#0aa384;fill-opacity:0.8;"/>
    <path clip-path="url(#p0c10b60f88)" d="M 545.020031 174.371278 
L 558.703801 165.682368 
L 558.460768 155.783914 
L 544.721044 164.412025 
z
" style="fill:#065d4c;fill-opacity:0.8;"/>
    <path clip-path="url(#p0c10b60f88)" d="M 522.896494 169.334607 
L 545.020031 174.371278 
L 544.721044 164.412025 
L 522.512929 159.410519 
z
" style="fill:#0cba97;fill-opacity:0.8;"/>
   </g>
   <g id="Poly3DCollection_26">
    <path clip-path="url(#p0c10b60f88)" d="M 580.93498 170.678756 
L 580.93498 170.678756 
L 603.411543 175.730294 
L 603.411543 175.730294 
z
" style="fill:#065d4c;fill-opacity:0.8;"/>
    <path clip-path="url(#p0c10b60f88)" d="M 567.388756 179.463769 
L 567.388756 179.463769 
L 580.93498 170.678756 
L 580.93498 170.678756 
z
" style="fill:#065d4c;fill-opacity:0.8;"/>
    <path clip-path="url(#p0c10b60f88)" d="M 567.388756 179.463769 
L 580.93498 170.678756 
L 603.411543 175.730294 
L 590.006765 184.613012 
z
" style="fill:#08745e;fill-opacity:0.8;"/>
    <path clip-path="url(#p0c10b60f88)" d="M 567.388756 179.463769 
L 590.006765 184.613012 
L 603.411543 175.730294 
L 580.93498 170.678756 
z
" style="fill:#0aa384;fill-opacity:0.8;"/>
    <path clip-path="url(#p0c10b60f88)" d="M 590.006765 184.613012 
L 603.411543 175.730294 
L 603.411543 175.730294 
L 590.006765 184.613012 
z
" style="fill:#065d4c;fill-opacity:0.8;"/>
    <path clip-path="url(#p0c10b60f88)" d="M 567.388756 179.463769 
L 590.006765 184.613012 
L 590.006765 184.613012 
L 567.388756 179.463769 
z
" style="fill:#065d4c;fill-opacity:0.8;"/>
   </g>
   <g id="Poly3DCollection_27">
    <path clip-path="url(#p0c10b60f88)" d="M 697.525597 173.378951 
L 697.442712 176.143934 
L 720.605494 181.235134 
L 720.714196 178.46042 
z
" style="fill:#0cba97;fill-opacity:0.8;"/>
    <path clip-path="url(#p0c10b60f88)" d="M 685.061375 182.216122 
L 684.991378 184.99799 
L 697.442712 176.143934 
L 697.525597 173.378951 
z
" style="fill:#065d4c;fill-opacity:0.8;"/>
    <path clip-path="url(#p0c10b60f88)" d="M 684.991378 184.99799 
L 708.308621 190.187848 
L 720.605494 181.235134 
L 697.442712 176.143934 
z
" style="fill:#0aa384;fill-opacity:0.8;"/>
    <path clip-path="url(#p0c10b60f88)" d="M 685.061375 182.216122 
L 697.525597 173.378951 
L 720.714196 178.46042 
L 708.404783 187.39617 
z
" style="fill:#08745e;fill-opacity:0.8;"/>
    <path clip-path="url(#p0c10b60f88)" d="M 708.404783 187.39617 
L 720.714196 178.46042 
L 720.605494 181.235134 
L 708.308621 190.187848 
z
" style="fill:#0cba97;fill-opacity:0.8;"/>
    <path clip-path="url(#p0c10b60f88)" d="M 685.061375 182.216122 
L 708.404783 187.39617 
L 708.308621 190.187848 
L 684.991378 184.99799 
z
" style="fill:#065d4c;fill-opacity:0.8;"/>
   </g>
   <g id="Poly3DCollection_28">
    <path clip-path="url(#p0c10b60f88)" d="M 508.814136 178.093713 
L 508.814136 178.093713 
L 531.072524 183.227657 
L 531.072524 183.227657 
z
" style="fill:#065d4c;fill-opacity:0.8;"/>
    <path clip-path="url(#p0c10b60f88)" d="M 494.459247 187.022331 
L 494.459247 187.022331 
L 508.814136 178.093713 
L 508.814136 178.093713 
z
" style="fill:#065d4c;fill-opacity:0.8;"/>
    <path clip-path="url(#p0c10b60f88)" d="M 494.459247 187.022331 
L 508.814136 178.093713 
L 531.072524 183.227657 
L 516.853579 192.256392 
z
" style="fill:#08745e;fill-opacity:0.8;"/>
    <path clip-path="url(#p0c10b60f88)" d="M 494.459247 187.022331 
L 516.853579 192.256392 
L 531.072524 183.227657 
L 508.814136 178.093713 
z
" style="fill:#0aa384;fill-opacity:0.8;"/>
    <path clip-path="url(#p0c10b60f88)" d="M 516.853579 192.256392 
L 531.072524 183.227657 
L 531.072524 183.227657 
L 516.853579 192.256392 
z
" style="fill:#065d4c;fill-opacity:0.8;"/>
    <path clip-path="url(#p0c10b60f88)" d="M 494.459247 187.022331 
L 516.853579 192.256392 
L 516.853579 192.256392 
L 494.459247 187.022331 
z
" style="fill:#065d4c;fill-opacity:0.8;"/>
   </g>
   <g id="Poly3DCollection_29">
    <path clip-path="url(#p0c10b60f88)" d="M 626.137576 180.837899 
L 626.1378 180.720352 
L 649.118551 185.884548 
L 649.117254 186.00251 
z
" style="fill:#065d4c;fill-opacity:0.8;"/>
    <path clip-path="url(#p0c10b60f88)" d="M 612.87825 189.819962 
L 612.877855 189.701695 
L 626.1378 180.720352 
L 626.137576 180.837899 
z
" style="fill:#0cba97;fill-opacity:0.8;"/>
    <path clip-path="url(#p0c10b60f88)" d="M 612.87825 189.819962 
L 626.137576 180.837899 
L 649.117254 186.00251 
L 636.007495 195.085594 
z
" style="fill:#08745e;fill-opacity:0.8;"/>
    <path clip-path="url(#p0c10b60f88)" d="M 612.877855 189.701695 
L 636.008187 194.966908 
L 649.118551 185.884548 
L 626.1378 180.720352 
z
" style="fill:#0aa384;fill-opacity:0.8;"/>
    <path clip-path="url(#p0c10b60f88)" d="M 636.007495 195.085594 
L 649.117254 186.00251 
L 649.118551 185.884548 
L 636.008187 194.966908 
z
" style="fill:#065d4c;fill-opacity:0.8;"/>
    <path clip-path="url(#p0c10b60f88)" d="M 612.87825 189.819962 
L 636.007495 195.085594 
L 636.008187 194.966908 
L 612.877855 189.701695 
z
" style="fill:#0cba97;fill-opacity:0.8;"/>
   </g>
   <g id="Poly3DCollection_30">
    <path clip-path="url(#p0c10b60f88)" d="M 553.579983 188.419049 
L 553.84737 198.395852 
L 576.51925 203.680734 
L 576.340718 193.66886 
z
" style="fill:#0cba97;fill-opacity:0.8;"/>
    <path clip-path="url(#p0c10b60f88)" d="M 539.500955 197.549596 
L 539.827068 207.587244 
L 553.84737 198.395852 
L 553.579983 188.419049 
z
" style="fill:#065d4c;fill-opacity:0.8;"/>
    <path clip-path="url(#p0c10b60f88)" d="M 539.827068 207.587244 
L 562.641831 212.975942 
L 576.51925 203.680734 
L 553.84737 198.395852 
z
" style="fill:#0aa384;fill-opacity:0.8;"/>
    <path clip-path="url(#p0c10b60f88)" d="M 539.500955 197.549596 
L 553.579983 188.419049 
L 576.340718 193.66886 
L 562.405689 202.902951 
z
" style="fill:#08745e;fill-opacity:0.8;"/>
    <path clip-path="url(#p0c10b60f88)" d="M 562.405689 202.902951 
L 576.340718 193.66886 
L 576.51925 203.680734 
L 562.641831 212.975942 
z
" style="fill:#0cba97;fill-opacity:0.8;"/>
    <path clip-path="url(#p0c10b60f88)" d="M 539.500955 197.549596 
L 562.405689 202.902951 
L 562.641831 212.975942 
L 539.827068 207.587244 
z
" style="fill:#065d4c;fill-opacity:0.8;"/>
   </g>
   <g id="Poly3DCollection_31">
    <path clip-path="url(#p0c10b60f88)" d="M 672.354848 191.225087 
L 672.27731 195.060131 
L 695.74085 200.355197 
L 695.854725 196.506611 
z
" style="fill:#0cba97;fill-opacity:0.8;"/>
    <path clip-path="url(#p0c10b60f88)" d="M 659.398883 200.410905 
L 659.34046 204.269443 
L 672.27731 195.060131 
L 672.354848 191.225087 
z
" style="fill:#065d4c;fill-opacity:0.8;"/>
    <path clip-path="url(#p0c10b60f88)" d="M 659.34046 204.269443 
L 682.961642 209.669102 
L 695.74085 200.355197 
L 672.27731 195.060131 
z
" style="fill:#0aa384;fill-opacity:0.8;"/>
    <path clip-path="url(#p0c10b60f88)" d="M 659.398883 200.410905 
L 672.354848 191.225087 
L 695.854725 196.506611 
L 683.056896 205.796917 
z
" style="fill:#08745e;fill-opacity:0.8;"/>
    <path clip-path="url(#p0c10b60f88)" d="M 683.056896 205.796917 
L 695.854725 196.506611 
L 695.74085 200.355197 
L 682.961642 209.669102 
z
" style="fill:#0cba97;fill-opacity:0.8;"/>
    <path clip-path="url(#p0c10b60f88)" d="M 659.398883 200.410905 
L 683.056896 205.796917 
L 682.961642 209.669102 
L 659.34046 204.269443 
z
" style="fill:#065d4c;fill-opacity:0.8;"/>
   </g>
   <g id="Poly3DCollection_32">
    <path clip-path="url(#p0c10b60f88)" d="M 599.359028 198.978082 
L 599.415826 205.489 
L 622.635861 210.88163 
L 622.63931 204.347727 
z
" style="fill:#0cba97;fill-opacity:0.8;"/>
    <path clip-path="url(#p0c10b60f88)" d="M 585.572193 208.317486 
L 585.665571 214.868278 
L 599.415826 205.489 
L 599.359028 198.978082 
z
" style="fill:#065d4c;fill-opacity:0.8;"/>
    <path clip-path="url(#p0c10b60f88)" d="M 585.665571 214.868278 
L 609.037323 220.36821 
L 622.635861 210.88163 
L 599.415826 205.489 
z
" style="fill:#0aa384;fill-opacity:0.8;"/>
    <path clip-path="url(#p0c10b60f88)" d="M 585.572193 208.317486 
L 599.359028 198.978082 
L 622.63931 204.347727 
L 609.00498 213.794259 
z
" style="fill:#08745e;fill-opacity:0.8;"/>
    <path clip-path="url(#p0c10b60f88)" d="M 609.00498 213.794259 
L 622.63931 204.347727 
L 622.635861 210.88163 
L 609.037323 220.36821 
z
" style="fill:#0cba97;fill-opacity:0.8;"/>
    <path clip-path="url(#p0c10b60f88)" d="M 585.572193 208.317486 
L 609.00498 213.794259 
L 609.037323 220.36821 
L 585.665571 214.868278 
z
" style="fill:#065d4c;fill-opacity:0.8;"/>
   </g>
   <g id="Poly3DCollection_33">
    <path clip-path="url(#p0c10b60f88)" d="M 646.186061 209.778835 
L 646.183909 209.995688 
L 669.999647 215.490089 
L 670.003885 215.272466 
z
" style="fill:#0cba97;fill-opacity:0.8;"/>
    <path clip-path="url(#p0c10b60f88)" d="M 632.708669 219.334346 
L 632.707673 219.552535 
L 646.183909 209.995688 
L 646.186061 209.778835 
z
" style="fill:#065d4c;fill-opacity:0.8;"/>
    <path clip-path="url(#p0c10b60f88)" d="M 632.707673 219.552535 
L 656.684873 225.157819 
L 669.999647 215.490089 
L 646.183909 209.995688 
z
" style="fill:#0aa384;fill-opacity:0.8;"/>
    <path clip-path="url(#p0c10b60f88)" d="M 632.708669 219.334346 
L 646.186061 209.778835 
L 670.003885 215.272466 
L 656.687983 224.938854 
z
" style="fill:#08745e;fill-opacity:0.8;"/>
    <path clip-path="url(#p0c10b60f88)" d="M 656.687983 224.938854 
L 670.003885 215.272466 
L 669.999647 215.490089 
L 656.684873 225.157819 
z
" style="fill:#0cba97;fill-opacity:0.8;"/>
    <path clip-path="url(#p0c10b60f88)" d="M 632.708669 219.334346 
L 656.687983 224.938854 
L 656.684873 225.157819 
L 632.707673 219.552535 
z
" style="fill:#065d4c;fill-opacity:0.8;"/>
   </g>
   <g id="Poly3DCollection_34">
    <path clip-path="url(#p0c10b60f88)" d="M 481.573748 188.35781 
L 660.442915 230.359277 
L 756.782167 159.834652 
L 586.470542 123.576662 
z
" style="fill-opacity:0.2;"/>
   </g>
  </g>
 </g>
 <defs>
  <clipPath id="p3b58c5b16b">
   <rect height="277.2" width="380.454545" x="-30.6" y="-14.4"/>
  </clipPath>
  <clipPath id="p0c10b60f88">
   <rect height="277.2" width="380.454545" x="425.945455" y="-14.4"/>
  </clipPath>
 </defs>
</svg>
