<?xml version="1.0" encoding="utf-8" standalone="no"?>
<!DOCTYPE svg PUBLIC "-//W3C//DTD SVG 1.1//EN"
  "http://www.w3.org/Graphics/SVG/1.1/DTD/svg11.dtd">
<!-- Created with matplotlib (https://matplotlib.org/) -->
<svg height="302.4pt" version="1.1" viewBox="0 0 820.8 302.4" width="820.8pt" xmlns="http://www.w3.org/2000/svg" xmlns:xlink="http://www.w3.org/1999/xlink">
 <defs>
  <style type="text/css">
*{stroke-linecap:butt;stroke-linejoin:round;}
  </style>
 </defs>
 <g id="figure_1">
  <g id="patch_1">
   <path d="M 0 302.4 
L 820.8 302.4 
L 820.8 0 
L 0 0 
z
" style="fill:#ffffff;"/>
  </g>
  <g id="patch_2">
   <path d="M -30.6 262.8 
L 349.854545 262.8 
L 349.854545 -14.4 
L -30.6 -14.4 
z
" style="fill:#ffffff;"/>
  </g>
  <g id="pane3d_1">
   <g id="patch_3">
    <path d="M 19.835129 201.548569 
L 128.723211 133.58541 
L 126.910339 3.718968 
L 11.951034 64.782468 
" style="fill:#f2f2f2;opacity:0.5;stroke:#f2f2f2;stroke-linejoin:miter;"/>
   </g>
  </g>
  <g id="pane3d_2">
   <g id="patch_4">
    <path d="M 128.723211 133.58541 
L 305.111665 171.581202 
L 312.491547 37.79869 
L 126.910339 3.718968 
" style="fill:#e6e6e6;opacity:0.5;stroke:#e6e6e6;stroke-linejoin:miter;"/>
   </g>
  </g>
  <g id="pane3d_3">
   <g id="patch_5">
    <path d="M 19.835129 201.548569 
L 205.419617 245.80086 
L 305.111665 171.581202 
L 128.723211 133.58541 
" style="fill:#ececec;opacity:0.5;stroke:#ececec;stroke-linejoin:miter;"/>
   </g>
  </g>
  <g id="axis3d_1">
   <g id="line2d_1">
    <path d="M 19.835129 201.548569 
L 205.419617 245.80086 
" style="fill:none;stroke:#000000;stroke-linecap:square;stroke-width:0.8;"/>
   </g>
   <g id="Line3DCollection_1">
    <path d="M 42.295817 206.90428 
L 150.133942 138.19749 
L 149.393845 7.847789 
" style="fill:none;stroke:#b0b0b0;stroke-width:0.8;"/>
    <path d="M 87.512337 217.686079 
L 193.184014 147.470895 
L 194.636898 16.156123 
" style="fill:none;stroke:#b0b0b0;stroke-width:0.8;"/>
    <path d="M 133.765289 228.715013 
L 237.148096 156.941187 
L 240.890183 24.649974 
" style="fill:none;stroke:#b0b0b0;stroke-width:0.8;"/>
    <path d="M 181.090721 239.999678 
L 282.055608 166.614702 
L 288.187917 33.335625 
" style="fill:none;stroke:#b0b0b0;stroke-width:0.8;"/>
   </g>
   <g id="xtick_1">
    <g id="line2d_2">
     <path d="M 43.225084 206.312217 
L 40.433807 208.09062 
" style="fill:none;stroke:#000000;stroke-linecap:square;stroke-width:0.8;"/>
    </g>
    <g id="text_1">
     <!-- 00 -->
     <defs>
      <path d="M 42 31.84375 
C 42 37.96875 41.90625 48.421875 37.703125 56.453125 
C 34 63.484375 28.09375 66 22.90625 66 
C 18.09375 66 12 63.78125 8.203125 56.5625 
C 4.203125 49.015625 3.796875 39.671875 3.796875 31.84375 
C 3.796875 26.109375 3.90625 17.375 7 9.734375 
C 11.296875 -0.609375 19 -2 22.90625 -2 
C 27.5 -2 34.5 -0.109375 38.59375 9.4375 
C 41.59375 16.375 42 24.5 42 31.84375 
z
M 22.90625 -0.40625 
C 16.5 -0.40625 12.703125 5.125 11.296875 12.75 
C 10.203125 18.6875 10.203125 27.328125 10.203125 32.953125 
C 10.203125 40.6875 10.203125 47.109375 11.5 53.234375 
C 13.40625 61.78125 19 64.390625 22.90625 64.390625 
C 27 64.390625 32.296875 61.671875 34.203125 53.4375 
C 35.5 47.71875 35.59375 40.984375 35.59375 32.953125 
C 35.59375 26.421875 35.59375 18.375 34.40625 12.453125 
C 32.296875 1.5 26.40625 -0.40625 22.90625 -0.40625 
z
" id="CMR17-48"/>
     </defs>
     <g transform="translate(23.330362 237.14703)rotate(-45)scale(0.14 -0.14)">
      <use transform="scale(0.996264)" xlink:href="#CMR17-48"/>
      <use transform="translate(45.690477 0)scale(0.996264)" xlink:href="#CMR17-48"/>
     </g>
    </g>
   </g>
   <g id="xtick_2">
    <g id="line2d_3">
     <path d="M 88.423674 217.080527 
L 85.686217 218.899473 
" style="fill:none;stroke:#000000;stroke-linecap:square;stroke-width:0.8;"/>
    </g>
    <g id="text_2">
     <!-- 01 -->
     <defs>
      <path d="M 26.59375 63.796875 
C 26.59375 65.890625 26.5 66 25.09375 66 
C 21.203125 61.359375 15.296875 59.890625 9.703125 59.6875 
C 9.40625 59.6875 8.90625 59.6875 8.796875 59.5 
C 8.703125 59.296875 8.703125 59.09375 8.703125 57 
C 11.796875 57 17 57.59375 21 59.984375 
L 21 7.296875 
C 21 3.796875 20.796875 2.59375 12.203125 2.59375 
L 9.203125 2.59375 
L 9.203125 0 
C 14 0.09375 19 0.1875 23.796875 0.1875 
C 28.59375 0.1875 33.59375 0.09375 38.40625 0 
L 38.40625 2.59375 
L 35.40625 2.59375 
C 26.796875 2.59375 26.59375 3.6875 26.59375 7.296875 
z
" id="CMR17-49"/>
     </defs>
     <g transform="translate(68.542787 248.103782)rotate(-45)scale(0.14 -0.14)">
      <use transform="scale(0.996264)" xlink:href="#CMR17-48"/>
      <use transform="translate(45.690477 0)scale(0.996264)" xlink:href="#CMR17-49"/>
     </g>
    </g>
   </g>
   <g id="xtick_3">
    <g id="line2d_4">
     <path d="M 134.657625 228.095506 
L 131.977203 229.956397 
" style="fill:none;stroke:#000000;stroke-linecap:square;stroke-width:0.8;"/>
    </g>
    <g id="text_3">
     <!-- 10 -->
     <g transform="translate(114.7934 259.312128)rotate(-45)scale(0.14 -0.14)">
      <use transform="scale(0.996264)" xlink:href="#CMR17-49"/>
      <use transform="translate(45.690477 0)scale(0.996264)" xlink:href="#CMR17-48"/>
     </g>
    </g>
   </g>
   <g id="xtick_4">
    <g id="line2d_5">
     <path d="M 181.962926 239.365727 
L 179.342936 241.270032 
" style="fill:none;stroke:#000000;stroke-linecap:square;stroke-width:0.8;"/>
    </g>
    <g id="text_4">
     <!-- 11 -->
     <g transform="translate(162.118375 270.780834)rotate(-45)scale(0.14 -0.14)">
      <use transform="scale(0.996264)" xlink:href="#CMR17-49"/>
      <use transform="translate(45.690477 0)scale(0.996264)" xlink:href="#CMR17-49"/>
     </g>
    </g>
   </g>
  </g>
  <g id="axis3d_2">
   <g id="line2d_6">
    <path d="M 305.111665 171.581202 
L 205.419617 245.80086 
" style="fill:none;stroke:#000000;stroke-linecap:square;stroke-width:0.8;"/>
   </g>
   <g id="Line3DCollection_2">
    <path d="M 27.455231 56.547028 
L 34.471044 192.413474 
L 218.858418 235.795817 
" style="fill:none;stroke:#b0b0b0;stroke-width:0.8;"/>
    <path d="M 57.232024 40.730342 
L 62.623407 174.842005 
L 244.674037 216.576366 
" style="fill:none;stroke:#b0b0b0;stroke-width:0.8;"/>
    <path d="M 85.85589 25.526062 
L 89.739382 157.917404 
L 269.496985 198.095948 
" style="fill:none;stroke:#b0b0b0;stroke-width:0.8;"/>
    <path d="M 113.392516 10.899296 
L 115.875164 141.604597 
L 293.383438 180.312741 
" style="fill:none;stroke:#b0b0b0;stroke-width:0.8;"/>
   </g>
   <g id="xtick_5">
    <g id="line2d_7">
     <path d="M 217.315598 235.432825 
L 221.947489 236.522608 
" style="fill:none;stroke:#000000;stroke-linecap:square;stroke-width:0.8;"/>
    </g>
    <g id="text_5">
     <!-- 00 -->
     <g transform="translate(232.650369 248.348363)rotate(-337.5)scale(0.14 -0.14)">
      <use transform="scale(0.996264)" xlink:href="#CMR17-48"/>
      <use transform="translate(45.690477 0)scale(0.996264)" xlink:href="#CMR17-48"/>
     </g>
    </g>
   </g>
   <g id="xtick_6">
    <g id="line2d_8">
     <path d="M 243.15208 216.227463 
L 247.72127 217.274932 
" style="fill:none;stroke:#000000;stroke-linecap:square;stroke-width:0.8;"/>
    </g>
    <g id="text_6">
     <!-- 01 -->
     <g transform="translate(258.203921 228.903937)rotate(-337.5)scale(0.14 -0.14)">
      <use transform="scale(0.996264)" xlink:href="#CMR17-48"/>
      <use transform="translate(45.690477 0)scale(0.996264)" xlink:href="#CMR17-49"/>
     </g>
    </g>
   </g>
   <g id="xtick_7">
    <g id="line2d_9">
     <path d="M 267.995442 197.76033 
L 272.503283 198.767901 
" style="fill:none;stroke:#000000;stroke-linecap:square;stroke-width:0.8;"/>
    </g>
    <g id="text_7">
     <!-- 10 -->
     <g transform="translate(282.775332 210.206849)rotate(-337.5)scale(0.14 -0.14)">
      <use transform="scale(0.996264)" xlink:href="#CMR17-49"/>
      <use transform="translate(45.690477 0)scale(0.996264)" xlink:href="#CMR17-48"/>
     </g>
    </g>
   </g>
   <g id="xtick_8">
    <g id="line2d_10">
     <path d="M 291.901865 179.989663 
L 296.349691 180.959573 
" style="fill:none;stroke:#000000;stroke-linecap:square;stroke-width:0.8;"/>
    </g>
    <g id="text_8">
     <!-- 11 -->
     <g transform="translate(306.420159 192.214827)rotate(-337.5)scale(0.14 -0.14)">
      <use transform="scale(0.996264)" xlink:href="#CMR17-49"/>
      <use transform="translate(45.690477 0)scale(0.996264)" xlink:href="#CMR17-49"/>
     </g>
    </g>
   </g>
  </g>
  <g id="axis3d_3">
   <g id="line2d_11">
    <path d="M 305.111665 171.581202 
L 312.491547 37.79869 
" style="fill:none;stroke:#000000;stroke-linecap:square;stroke-width:0.8;"/>
   </g>
   <g id="text_9">
    <!-- Re[$\rho$] -->
    <defs>
     <path d="M 39.203125 33.6875 
C 48.703125 35.59375 56.703125 42.015625 56.703125 50.046875 
C 56.703125 59.46875 46.09375 68 32.09375 68 
L 5.203125 68 
L 5.203125 65.390625 
C 12.09375 65.390625 13.203125 65.390625 13.203125 60.875 
L 13.203125 6.6875 
C 13.203125 2.1875 12.09375 2.1875 5.203125 2.1875 
L 5.203125 -0.40625 
C 8.09375 -0.203125 13.296875 -0.203125 16.40625 -0.203125 
C 19.5 -0.203125 24.703125 -0.203125 27.59375 -0.40625 
L 27.59375 2.1875 
C 20.703125 2.1875 19.59375 2.1875 19.59375 6.6875 
L 19.59375 33 
L 31.296875 33 
C 37 33 40.203125 30.6875 41.59375 29.390625 
C 45.59375 25.5 45.59375 22.796875 45.59375 16 
C 45.59375 9.296875 45.59375 5.890625 48.59375 2.5 
C 52.40625 -1.609375 57.5 -2 59.703125 -2 
C 67.09375 -2 68.203125 6.296875 68.203125 8 
C 68.203125 8.59375 68.203125 9.296875 67.296875 9.296875 
C 66.5 9.296875 66.40625 8.6875 66.40625 8.296875 
C 65.90625 1.796875 63 -0.40625 59.90625 -0.40625 
C 54.40625 -0.40625 53.796875 5.890625 53.203125 12 
C 52.90625 14.09375 52.703125 15.59375 52.5 17.796875 
C 51.90625 22.796875 51.09375 30.09375 39.203125 33.6875 
z
M 31 34.59375 
L 19.59375 34.59375 
L 19.59375 61.484375 
C 19.59375 64.890625 19.796875 65.390625 23.796875 65.390625 
L 31.09375 65.390625 
C 39.40625 65.390625 49.09375 62.484375 49.09375 50.046875 
C 49.09375 37.09375 38.5 34.59375 31 34.59375 
z
" id="CMR17-82"/>
     <path d="M 38.09375 23.484375 
C 38.5 23.890625 38.5 24.09375 38.5 25.09375 
C 38.5 35.171875 33.09375 44 21.703125 44 
C 11.09375 44 2.703125 33.984375 2.703125 21.78125 
C 2.703125 8.65625 12.203125 -1 22.796875 -1 
C 34 -1 38.40625 9.671875 38.40625 11.796875 
C 38.40625 12.5 37.796875 12.5 37.59375 12.5 
C 36.90625 12.5 36.796875 12.296875 36.40625 11.078125 
C 34.203125 4.21875 28.703125 0.796875 23.5 0.796875 
C 19.203125 0.796875 14.90625 3.21875 12.203125 7.65625 
C 9.09375 12.796875 9.09375 18.75 9.09375 23.484375 
z
M 9.203125 25 
C 9.90625 39.234375 17.59375 42.390625 21.59375 42.390625 
C 28.40625 42.390625 33 36.0625 33.09375 25 
z
" id="CMR17-101"/>
     <path d="M 23.5 -25 
L 23.5 -21.5 
L 14.09375 -21.5 
L 14.09375 71.484375 
L 23.5 71.484375 
L 23.5 75 
L 10.59375 75 
L 10.59375 -25 
z
" id="CMR17-91"/>
     <path d="M 3.09375 -16.953125 
C 3 -17.4375 2.796875 -18.03125 2.796875 -18.609375 
C 2.796875 -20.109375 4 -21.109375 5.5 -21.109375 
C 7 -21.109375 8.40625 -20.109375 9 -18.71875 
C 9.40625 -17.828125 12.203125 -6.09375 15.40625 6.078125 
C 17.40625 1.09375 21.09375 -1 25 -1 
C 36.296875 -1 49.09375 12.96875 49.09375 28.03125 
C 49.09375 38.703125 42.59375 44 35.703125 44 
C 26.90625 44 16.203125 34.90625 12.90625 21.640625 
z
M 24.90625 1 
C 18.09375 1 16.40625 8.875 16.40625 10.078125 
C 16.40625 10.671875 18.90625 20.140625 19.203125 21.640625 
C 24.296875 41.5 34.09375 41.984375 35.59375 41.984375 
C 40.09375 41.984375 42.59375 37.90625 42.59375 32.015625 
C 42.59375 26.9375 39.90625 17.046875 38.203125 12.859375 
C 35.203125 5.984375 30 1 24.90625 1 
z
" id="CMMI12-26"/>
     <path d="M 14.296875 75 
L 1.40625 75 
L 1.40625 71.484375 
L 10.796875 71.484375 
L 10.796875 -21.5 
L 1.40625 -21.5 
L 1.40625 -25 
L 14.296875 -25 
z
" id="CMR17-93"/>
    </defs>
    <g transform="translate(352.486567 117.931831)rotate(-86.842577)scale(0.14 -0.14)">
     <use transform="scale(0.996264)" xlink:href="#CMR17-82"/>
     <use transform="translate(67.791102 0)scale(0.996264)" xlink:href="#CMR17-101"/>
     <use transform="translate(108.276762 0)scale(0.996264)" xlink:href="#CMR17-91"/>
     <use transform="translate(133.147821 0)scale(0.996264)" xlink:href="#CMMI12-26"/>
     <use transform="translate(183.462194 0)scale(0.996264)" xlink:href="#CMR17-93"/>
    </g>
   </g>
   <g id="Line3DCollection_3">
    <path d="M 305.454514 165.366029 
L 128.638814 127.539623 
L 19.469456 195.205208 
" style="fill:none;stroke:#b0b0b0;stroke-width:0.8;"/>
    <path d="M 307.136145 134.881419 
L 128.22511 97.903557 
L 17.675031 164.077164 
" style="fill:none;stroke:#b0b0b0;stroke-width:0.8;"/>
    <path d="M 308.858464 103.659222 
L 127.801821 67.580932 
L 15.835731 132.170653 
" style="fill:none;stroke:#b0b0b0;stroke-width:0.8;"/>
    <path d="M 310.622965 71.672342 
L 127.368611 36.547611 
L 13.949849 99.4561 
" style="fill:none;stroke:#b0b0b0;stroke-width:0.8;"/>
   </g>
   <g id="xtick_9">
    <g id="line2d_12">
     <path d="M 303.979152 165.050403 
L 308.408312 165.997938 
" style="fill:none;stroke:#000000;stroke-linecap:square;stroke-width:0.8;"/>
    </g>
    <g id="text_10">
     <!-- $0.0$ -->
     <defs>
      <path d="M 18.40625 4.796875 
C 18.40625 7.6875 16 9.6875 13.59375 9.6875 
C 10.703125 9.6875 8.703125 7.296875 8.703125 4.890625 
C 8.703125 2 11.09375 0 13.5 0 
C 16.40625 0 18.40625 2.390625 18.40625 4.796875 
z
" id="CMMI12-58"/>
     </defs>
     <g transform="translate(315.283224 173.116013)scale(0.14 -0.14)">
      <use transform="scale(0.996264)" xlink:href="#CMR17-48"/>
      <use transform="translate(45.690477 0)scale(0.996264)" xlink:href="#CMMI12-58"/>
      <use transform="translate(72.787654 0)scale(0.996264)" xlink:href="#CMR17-48"/>
     </g>
    </g>
   </g>
   <g id="xtick_10">
    <g id="line2d_13">
     <path d="M 305.642564 134.572721 
L 310.126456 135.499465 
" style="fill:none;stroke:#000000;stroke-linecap:square;stroke-width:0.8;"/>
    </g>
    <g id="text_11">
     <!-- $0.1$ -->
     <g transform="translate(317.182535 142.673938)scale(0.14 -0.14)">
      <use transform="scale(0.996264)" xlink:href="#CMR17-48"/>
      <use transform="translate(45.690477 0)scale(0.996264)" xlink:href="#CMMI12-58"/>
      <use transform="translate(72.787654 0)scale(0.996264)" xlink:href="#CMR17-49"/>
     </g>
    </g>
   </g>
   <g id="xtick_11">
    <g id="line2d_14">
     <path d="M 307.346209 103.357882 
L 311.886202 104.262545 
" style="fill:none;stroke:#000000;stroke-linecap:square;stroke-width:0.8;"/>
    </g>
    <g id="text_12">
     <!-- $0.2$ -->
     <defs>
      <path d="M 41.703125 15.46875 
L 39.90625 15.46875 
C 38.90625 8.390625 38.09375 7.1875 37.703125 6.59375 
C 37.203125 5.796875 30 5.796875 28.59375 5.796875 
L 9.40625 5.796875 
C 13 9.6875 20 16.765625 28.5 24.9375 
C 34.59375 30.71875 41.703125 37.5 41.703125 47.390625 
C 41.703125 59.1875 32.296875 66 21.796875 66 
C 10.796875 66 4.09375 56.296875 4.09375 47.296875 
C 4.09375 43.390625 7 42.890625 8.203125 42.890625 
C 9.203125 42.890625 12.203125 43.484375 12.203125 46.984375 
C 12.203125 50.09375 9.59375 51 8.203125 51 
C 7.59375 51 7 50.890625 6.59375 50.6875 
C 8.5 59.1875 14.296875 63.390625 20.40625 63.390625 
C 29.09375 63.390625 34.796875 56.5 34.796875 47.390625 
C 34.796875 38.703125 29.703125 31.21875 24 24.734375 
L 4.09375 2.296875 
L 4.09375 0 
L 39.296875 0 
z
" id="CMR17-50"/>
     </defs>
     <g transform="translate(319.1277 111.49691)scale(0.14 -0.14)">
      <use transform="scale(0.996264)" xlink:href="#CMR17-48"/>
      <use transform="translate(45.690477 0)scale(0.996264)" xlink:href="#CMMI12-58"/>
      <use transform="translate(72.787654 0)scale(0.996264)" xlink:href="#CMR17-50"/>
     </g>
    </g>
   </g>
   <g id="xtick_12">
    <g id="line2d_15">
     <path d="M 309.091563 71.378815 
L 313.689077 72.26003 
" style="fill:none;stroke:#000000;stroke-linecap:square;stroke-width:0.8;"/>
    </g>
    <g id="text_13">
     <!-- $0.3$ -->
     <defs>
      <path d="M 22.09375 34 
C 31 34 34.90625 26.140625 34.90625 17.09375 
C 34.90625 5.03125 28.5 0.390625 22.703125 0.390625 
C 17.40625 0.390625 8.796875 3.015625 6.09375 10.796875 
C 6.59375 10.59375 7.09375 10.59375 7.59375 10.59375 
C 10 10.59375 11.796875 12.1875 11.796875 14.796875 
C 11.796875 17.6875 9.59375 19 7.59375 19 
C 5.90625 19 3.296875 18.1875 3.296875 14.484375 
C 3.296875 5.234375 12.296875 -2 22.90625 -2 
C 34 -2 42.5 6.75 42.5 16.984375 
C 42.5 26.84375 34.5 34 25 35.09375 
C 32.59375 36.671875 39.90625 43.375 39.90625 52.390625 
C 39.90625 60.25 32 66 23 66 
C 13.90625 66 5.90625 60.34375 5.90625 52.296875 
C 5.90625 48.796875 8.5 48.1875 9.796875 48.1875 
C 11.90625 48.1875 13.703125 49.484375 13.703125 52.09375 
C 13.703125 54.6875 11.90625 56 9.796875 56 
C 9.40625 56 8.90625 56 8.5 55.796875 
C 11.40625 62.484375 19.296875 63.6875 22.796875 63.6875 
C 26.296875 63.6875 32.90625 61.96875 32.90625 52.296875 
C 32.90625 49.484375 32.5 44.546875 29.09375 40.21875 
C 26.09375 36.390625 22.703125 36.1875 19.40625 35.890625 
C 18.90625 35.890625 16.59375 35.6875 16.203125 35.6875 
C 15.5 35.59375 15.09375 35.5 15.09375 34.796875 
C 15.09375 34.09375 15.203125 34 17.203125 34 
z
" id="CMR17-51"/>
     </defs>
     <g transform="translate(321.120401 79.557989)scale(0.14 -0.14)">
      <use transform="scale(0.996264)" xlink:href="#CMR17-48"/>
      <use transform="translate(45.690477 0)scale(0.996264)" xlink:href="#CMMI12-58"/>
      <use transform="translate(72.787654 0)scale(0.996264)" xlink:href="#CMR17-51"/>
     </g>
    </g>
   </g>
  </g>
  <g id="axes_1">
   <g id="Poly3DCollection_1">
    <path clip-path="url(#p772cc0c167)" d="M 133.007614 133.888556 
L 133.051747 137.476151 
L 154.438688 142.098609 
L 154.424239 138.498653 
z
" style="fill:#ba0c2f;fill-opacity:0.8;"/>
    <path clip-path="url(#p772cc0c167)" d="M 120.208652 141.904271 
L 120.271134 145.513314 
L 133.051747 137.476151 
L 133.007614 133.888556 
z
" style="fill:#5d0618;fill-opacity:0.8;"/>
    <path clip-path="url(#p772cc0c167)" d="M 120.271134 145.513314 
L 141.786381 150.220613 
L 154.438688 142.098609 
L 133.051747 137.476151 
z
" style="fill:#a30a29;fill-opacity:0.8;"/>
    <path clip-path="url(#p772cc0c167)" d="M 120.208652 141.904271 
L 133.007614 133.888556 
L 154.424239 138.498653 
L 141.753939 146.599102 
z
" style="fill:#74081d;fill-opacity:0.8;"/>
    <path clip-path="url(#p772cc0c167)" d="M 141.753939 146.599102 
L 154.424239 138.498653 
L 154.438688 142.098609 
L 141.786381 150.220613 
z
" style="fill:#ba0c2f;fill-opacity:0.8;"/>
    <path clip-path="url(#p772cc0c167)" d="M 120.208652 141.904271 
L 141.753939 146.599102 
L 141.786381 150.220613 
L 120.271134 145.513314 
z
" style="fill:#5d0618;fill-opacity:0.8;"/>
   </g>
   <g id="Poly3DCollection_2">
    <path clip-path="url(#p772cc0c167)" d="M 176.066819 143.157389 
L 176.088045 138.324286 
L 198.001598 143.015648 
L 197.938949 147.865538 
z
" style="fill:#5d0618;fill-opacity:0.8;"/>
    <path clip-path="url(#p772cc0c167)" d="M 163.528635 151.343924 
L 163.526284 146.481691 
L 176.088045 138.324286 
L 176.066819 143.157389 
z
" style="fill:#ba0c2f;fill-opacity:0.8;"/>
    <path clip-path="url(#p772cc0c167)" d="M 163.528635 151.343924 
L 176.066819 143.157389 
L 197.938949 147.865538 
L 185.536423 156.139537 
z
" style="fill:#74081d;fill-opacity:0.8;"/>
    <path clip-path="url(#p772cc0c167)" d="M 163.526284 146.481691 
L 185.576012 151.260372 
L 198.001598 143.015648 
L 176.088045 138.324286 
z
" style="fill:#a30a29;fill-opacity:0.8;"/>
    <path clip-path="url(#p772cc0c167)" d="M 185.536423 156.139537 
L 197.938949 147.865538 
L 198.001598 143.015648 
L 185.576012 151.260372 
z
" style="fill:#5d0618;fill-opacity:0.8;"/>
    <path clip-path="url(#p772cc0c167)" d="M 163.528635 151.343924 
L 185.536423 156.139537 
L 185.576012 151.260372 
L 163.526284 146.481691 
z
" style="fill:#ba0c2f;fill-opacity:0.8;"/>
   </g>
   <g id="Poly3DCollection_3">
    <path clip-path="url(#p772cc0c167)" d="M 107.173981 150.067605 
L 107.111009 147.26237 
L 128.80957 152.034541 
L 128.849053 154.849529 
z
" style="fill:#5d0618;fill-opacity:0.8;"/>
    <path clip-path="url(#p772cc0c167)" d="M 93.897032 158.382673 
L 93.818821 155.560515 
L 107.111009 147.26237 
L 107.173981 150.067605 
z
" style="fill:#ba0c2f;fill-opacity:0.8;"/>
    <path clip-path="url(#p772cc0c167)" d="M 93.897032 158.382673 
L 107.173981 150.067605 
L 128.849053 154.849529 
L 115.703007 163.254135 
z
" style="fill:#74081d;fill-opacity:0.8;"/>
    <path clip-path="url(#p772cc0c167)" d="M 93.818821 155.560515 
L 115.648568 160.42214 
L 128.80957 152.034541 
L 107.111009 147.26237 
z
" style="fill:#a30a29;fill-opacity:0.8;"/>
    <path clip-path="url(#p772cc0c167)" d="M 115.703007 163.254135 
L 128.849053 154.849529 
L 128.80957 152.034541 
L 115.648568 160.42214 
z
" style="fill:#5d0618;fill-opacity:0.8;"/>
    <path clip-path="url(#p772cc0c167)" d="M 93.897032 158.382673 
L 115.703007 163.254135 
L 115.648568 160.42214 
L 93.818821 155.560515 
z
" style="fill:#ba0c2f;fill-opacity:0.8;"/>
   </g>
   <g id="Poly3DCollection_4">
    <path clip-path="url(#p772cc0c167)" d="M 220.044301 152.623889 
L 220.171414 146.729766 
L 242.566075 151.51858 
L 242.386625 157.433251 
z
" style="fill:#5d0618;fill-opacity:0.8;"/>
    <path clip-path="url(#p772cc0c167)" d="M 207.781068 160.986762 
L 207.880904 155.056986 
L 220.171414 146.729766 
L 220.044301 152.623889 
z
" style="fill:#ba0c2f;fill-opacity:0.8;"/>
    <path clip-path="url(#p772cc0c167)" d="M 207.781068 160.986762 
L 220.044301 152.623889 
L 242.386625 157.433251 
L 230.266412 165.886437 
z
" style="fill:#74081d;fill-opacity:0.8;"/>
    <path clip-path="url(#p772cc0c167)" d="M 207.880904 155.056986 
L 230.419263 159.935939 
L 242.566075 151.51858 
L 220.171414 146.729766 
z
" style="fill:#a30a29;fill-opacity:0.8;"/>
    <path clip-path="url(#p772cc0c167)" d="M 230.266412 165.886437 
L 242.386625 157.433251 
L 242.566075 151.51858 
L 230.419263 159.935939 
z
" style="fill:#5d0618;fill-opacity:0.8;"/>
    <path clip-path="url(#p772cc0c167)" d="M 207.781068 160.986762 
L 230.266412 165.886437 
L 230.419263 159.935939 
L 207.880904 155.056986 
z
" style="fill:#ba0c2f;fill-opacity:0.8;"/>
   </g>
   <g id="Poly3DCollection_5">
    <path clip-path="url(#p772cc0c167)" d="M 150.757064 159.682843 
L 150.738846 156.359408 
L 172.912421 161.233355 
L 172.901789 164.568381 
z
" style="fill:#5d0618;fill-opacity:0.8;"/>
    <path clip-path="url(#p772cc0c167)" d="M 137.745529 168.178442 
L 137.710062 164.834895 
L 150.738846 156.359408 
L 150.757064 159.682843 
z
" style="fill:#ba0c2f;fill-opacity:0.8;"/>
    <path clip-path="url(#p772cc0c167)" d="M 137.745529 168.178442 
L 150.757064 159.682843 
L 172.901789 164.568381 
L 160.028468 173.156458 
z
" style="fill:#74081d;fill-opacity:0.8;"/>
    <path clip-path="url(#p772cc0c167)" d="M 137.710062 164.834895 
L 160.022213 169.801222 
L 172.912421 161.233355 
L 150.738846 156.359408 
z
" style="fill:#a30a29;fill-opacity:0.8;"/>
    <path clip-path="url(#p772cc0c167)" d="M 160.028468 173.156458 
L 172.901789 164.568381 
L 172.912421 161.233355 
L 160.022213 169.801222 
z
" style="fill:#5d0618;fill-opacity:0.8;"/>
    <path clip-path="url(#p772cc0c167)" d="M 137.745529 168.178442 
L 160.028468 173.156458 
L 160.022213 169.801222 
L 137.710062 164.834895 
z
" style="fill:#ba0c2f;fill-opacity:0.8;"/>
   </g>
   <g id="Poly3DCollection_6">
    <path clip-path="url(#p772cc0c167)" d="M 80.370984 166.853747 
L 80.328291 165.564387 
L 102.277207 170.523426 
L 102.308975 171.817285 
z
" style="fill:#5d0618;fill-opacity:0.8;"/>
    <path clip-path="url(#p772cc0c167)" d="M 66.588761 175.485257 
L 66.538625 174.188089 
L 80.328291 165.564387 
L 80.370984 166.853747 
z
" style="fill:#ba0c2f;fill-opacity:0.8;"/>
    <path clip-path="url(#p772cc0c167)" d="M 66.588761 175.485257 
L 80.370984 166.853747 
L 102.308975 171.817285 
L 88.659874 180.543508 
z
" style="fill:#74081d;fill-opacity:0.8;"/>
    <path clip-path="url(#p772cc0c167)" d="M 66.538625 174.188089 
L 88.620795 179.241802 
L 102.277207 170.523426 
L 80.328291 165.564387 
z
" style="fill:#a30a29;fill-opacity:0.8;"/>
    <path clip-path="url(#p772cc0c167)" d="M 88.659874 180.543508 
L 102.308975 171.817285 
L 102.277207 170.523426 
L 88.620795 179.241802 
z
" style="fill:#5d0618;fill-opacity:0.8;"/>
    <path clip-path="url(#p772cc0c167)" d="M 66.588761 175.485257 
L 88.659874 180.543508 
L 88.620795 179.241802 
L 66.538625 174.188089 
z
" style="fill:#ba0c2f;fill-opacity:0.8;"/>
   </g>
   <g id="Poly3DCollection_7">
    <path clip-path="url(#p772cc0c167)" d="M 240.795246 179.54694 
L 240.975336 173.539314 
L 264.162437 178.621348 
L 263.926255 184.65007 
z
" style="fill:#5d0618;fill-opacity:0.8;"/>
    <path clip-path="url(#p772cc0c167)" d="M 228.359777 188.421695 
L 228.51186 182.377466 
L 240.975336 173.539314 
L 240.795246 179.54694 
z
" style="fill:#ba0c2f;fill-opacity:0.8;"/>
    <path clip-path="url(#p772cc0c167)" d="M 228.359777 188.421695 
L 240.795246 179.54694 
L 263.926255 184.65007 
L 251.644819 193.623581 
z
" style="fill:#74081d;fill-opacity:0.8;"/>
    <path clip-path="url(#p772cc0c167)" d="M 228.51186 182.377466 
L 251.853751 187.558084 
L 264.162437 178.621348 
L 240.975336 173.539314 
z
" style="fill:#a30a29;fill-opacity:0.8;"/>
    <path clip-path="url(#p772cc0c167)" d="M 251.644819 193.623581 
L 263.926255 184.65007 
L 264.162437 178.621348 
L 251.853751 187.558084 
z
" style="fill:#5d0618;fill-opacity:0.8;"/>
    <path clip-path="url(#p772cc0c167)" d="M 228.359777 188.421695 
L 251.644819 193.623581 
L 251.853751 187.558084 
L 228.51186 182.377466 
z
" style="fill:#ba0c2f;fill-opacity:0.8;"/>
   </g>
   <g id="Poly3DCollection_8">
    <path clip-path="url(#p772cc0c167)" d="M 252.996383 170.839418 
L 264.969752 162.294447 
L 287.797596 167.20832 
L 275.974997 175.846579 
z
" style="fill:#74081d;fill-opacity:0.8;"/>
    <path clip-path="url(#p772cc0c167)" d="M 264.969752 162.294447 
L 267.199211 105.481159 
L 290.550134 110.190262 
L 287.797596 167.20832 
z
" style="fill:#5d0618;fill-opacity:0.8;"/>
    <path clip-path="url(#p772cc0c167)" d="M 252.996383 170.839418 
L 254.978348 113.670774 
L 267.199211 105.481159 
L 264.969752 162.294447 
z
" style="fill:#ba0c2f;fill-opacity:0.8;"/>
    <path clip-path="url(#p772cc0c167)" d="M 275.974997 175.846579 
L 287.797596 167.20832 
L 290.550134 110.190262 
L 278.487129 118.4713 
z
" style="fill:#5d0618;fill-opacity:0.8;"/>
    <path clip-path="url(#p772cc0c167)" d="M 252.996383 170.839418 
L 275.974997 175.846579 
L 278.487129 118.4713 
L 254.978348 113.670774 
z
" style="fill:#ba0c2f;fill-opacity:0.8;"/>
    <path clip-path="url(#p772cc0c167)" d="M 254.978348 113.670774 
L 278.487129 118.4713 
L 290.550134 110.190262 
L 267.199211 105.481159 
z
" style="fill:#a30a29;fill-opacity:0.8;"/>
   </g>
   <g id="Poly3DCollection_9">
    <path clip-path="url(#p772cc0c167)" d="M 169.580324 187.037638 
L 169.58677 183.650182 
L 192.540782 188.824708 
L 192.503421 192.22406 
z
" style="fill:#5d0618;fill-opacity:0.8;"/>
    <path clip-path="url(#p772cc0c167)" d="M 156.353627 196.057542 
L 156.342245 192.649447 
L 169.58677 183.650182 
L 169.580324 187.037638 
z
" style="fill:#ba0c2f;fill-opacity:0.8;"/>
    <path clip-path="url(#p772cc0c167)" d="M 156.353627 196.057542 
L 169.580324 187.037638 
L 192.503421 192.22406 
L 179.425552 201.345159 
z
" style="fill:#74081d;fill-opacity:0.8;"/>
    <path clip-path="url(#p772cc0c167)" d="M 156.342245 192.649447 
L 179.445488 197.925073 
L 192.540782 188.824708 
L 169.58677 183.650182 
z
" style="fill:#a30a29;fill-opacity:0.8;"/>
    <path clip-path="url(#p772cc0c167)" d="M 179.425552 201.345159 
L 192.503421 192.22406 
L 192.540782 188.824708 
L 179.445488 197.925073 
z
" style="fill:#5d0618;fill-opacity:0.8;"/>
    <path clip-path="url(#p772cc0c167)" d="M 156.353627 196.057542 
L 179.425552 201.345159 
L 179.445488 197.925073 
L 156.342245 192.649447 
z
" style="fill:#ba0c2f;fill-opacity:0.8;"/>
   </g>
   <g id="Poly3DCollection_10">
    <path clip-path="url(#p772cc0c167)" d="M 110.974994 185.65768 
L 124.487202 176.835178 
L 146.909633 181.908323 
L 133.538192 190.828707 
z
" style="fill:#74081d;fill-opacity:0.8;"/>
    <path clip-path="url(#p772cc0c167)" d="M 124.487202 176.835178 
L 123.770396 131.655762 
L 146.590053 136.566503 
L 146.909633 181.908323 
z
" style="fill:#5d0618;fill-opacity:0.8;"/>
    <path clip-path="url(#p772cc0c167)" d="M 110.974994 185.65768 
L 110.00841 140.196453 
L 123.770396 131.655762 
L 124.487202 176.835178 
z
" style="fill:#ba0c2f;fill-opacity:0.8;"/>
    <path clip-path="url(#p772cc0c167)" d="M 133.538192 190.828707 
L 146.909633 181.908323 
L 146.590053 136.566503 
L 132.973857 145.203658 
z
" style="fill:#5d0618;fill-opacity:0.8;"/>
    <path clip-path="url(#p772cc0c167)" d="M 110.974994 185.65768 
L 133.538192 190.828707 
L 132.973857 145.203658 
L 110.00841 140.196453 
z
" style="fill:#ba0c2f;fill-opacity:0.8;"/>
    <path clip-path="url(#p772cc0c167)" d="M 110.00841 140.196453 
L 132.973857 145.203658 
L 146.590053 136.566503 
L 123.770396 131.655762 
z
" style="fill:#a30a29;fill-opacity:0.8;"/>
   </g>
   <g id="Poly3DCollection_11">
    <path clip-path="url(#p772cc0c167)" d="M 97.201544 194.650755 
L 97.166322 193.336545 
L 119.883261 198.603698 
L 119.906779 199.922525 
z
" style="fill:#5d0618;fill-opacity:0.8;"/>
    <path clip-path="url(#p772cc0c167)" d="M 83.1592 203.819399 
L 83.116242 202.497179 
L 97.166322 193.336545 
L 97.201544 194.650755 
z
" style="fill:#ba0c2f;fill-opacity:0.8;"/>
    <path clip-path="url(#p772cc0c167)" d="M 83.1592 203.819399 
L 97.201544 194.650755 
L 119.906779 199.922525 
L 106.007737 209.194883 
z
" style="fill:#74081d;fill-opacity:0.8;"/>
    <path clip-path="url(#p772cc0c167)" d="M 83.116242 202.497179 
L 105.976631 207.868012 
L 119.883261 198.603698 
L 97.166322 193.336545 
z
" style="fill:#a30a29;fill-opacity:0.8;"/>
    <path clip-path="url(#p772cc0c167)" d="M 106.007737 209.194883 
L 119.906779 199.922525 
L 119.883261 198.603698 
L 105.976631 207.868012 
z
" style="fill:#5d0618;fill-opacity:0.8;"/>
    <path clip-path="url(#p772cc0c167)" d="M 83.1592 203.819399 
L 106.007737 209.194883 
L 105.976631 207.868012 
L 83.116242 202.497179 
z
" style="fill:#ba0c2f;fill-opacity:0.8;"/>
   </g>
   <g id="Poly3DCollection_12">
    <path clip-path="url(#p772cc0c167)" d="M 215.683162 197.468548 
L 215.784679 192.447478 
L 239.272973 197.733325 
L 239.123882 202.772084 
z
" style="fill:#5d0618;fill-opacity:0.8;"/>
    <path clip-path="url(#p772cc0c167)" d="M 202.758317 206.692555 
L 202.834806 201.640796 
L 215.784679 192.447478 
L 215.683162 197.468548 
z
" style="fill:#ba0c2f;fill-opacity:0.8;"/>
    <path clip-path="url(#p772cc0c167)" d="M 202.758317 206.692555 
L 215.683162 197.468548 
L 239.123882 202.772084 
L 226.35637 212.10075 
z
" style="fill:#74081d;fill-opacity:0.8;"/>
    <path clip-path="url(#p772cc0c167)" d="M 202.834806 201.640796 
L 226.481079 207.031165 
L 239.272973 197.733325 
L 215.784679 192.447478 
z
" style="fill:#a30a29;fill-opacity:0.8;"/>
    <path clip-path="url(#p772cc0c167)" d="M 226.35637 212.10075 
L 239.123882 202.772084 
L 239.272973 197.733325 
L 226.481079 207.031165 
z
" style="fill:#5d0618;fill-opacity:0.8;"/>
    <path clip-path="url(#p772cc0c167)" d="M 202.758317 206.692555 
L 226.35637 212.10075 
L 226.481079 207.031165 
L 202.834806 201.640796 
z
" style="fill:#ba0c2f;fill-opacity:0.8;"/>
   </g>
   <g id="Poly3DCollection_13">
    <path clip-path="url(#p772cc0c167)" d="M 182.55578 178.189067 
L 195.287085 169.506994 
L 217.916895 174.49955 
L 205.331506 183.277172 
z
" style="fill:#74081d;fill-opacity:0.8;"/>
    <path clip-path="url(#p772cc0c167)" d="M 195.287085 169.506994 
L 196.313094 83.905311 
L 219.713788 88.583344 
L 217.916895 174.49955 
z
" style="fill:#5d0618;fill-opacity:0.8;"/>
    <path clip-path="url(#p772cc0c167)" d="M 182.55578 178.189067 
L 183.159644 92.041531 
L 196.313094 83.905311 
L 195.287085 169.506994 
z
" style="fill:#ba0c2f;fill-opacity:0.8;"/>
    <path clip-path="url(#p772cc0c167)" d="M 205.331506 183.277172 
L 217.916895 174.49955 
L 219.713788 88.583344 
L 206.716443 96.812156 
z
" style="fill:#5d0618;fill-opacity:0.8;"/>
    <path clip-path="url(#p772cc0c167)" d="M 182.55578 178.189067 
L 205.331506 183.277172 
L 206.716443 96.812156 
L 183.159644 92.041531 
z
" style="fill:#ba0c2f;fill-opacity:0.8;"/>
    <path clip-path="url(#p772cc0c167)" d="M 183.159644 92.041531 
L 206.716443 96.812156 
L 219.713788 88.583344 
L 196.313094 83.905311 
z
" style="fill:#a30a29;fill-opacity:0.8;"/>
   </g>
   <g id="Poly3DCollection_14">
    <path clip-path="url(#p772cc0c167)" d="M 142.86832 205.253804 
L 142.842896 202.339404 
L 166.092075 207.72094 
L 166.090532 210.645607 
z
" style="fill:#5d0618;fill-opacity:0.8;"/>
    <path clip-path="url(#p772cc0c167)" d="M 129.116744 214.631648 
L 129.074946 211.699436 
L 142.842896 202.339404 
L 142.86832 205.253804 
z
" style="fill:#ba0c2f;fill-opacity:0.8;"/>
    <path clip-path="url(#p772cc0c167)" d="M 129.116744 214.631648 
L 142.86832 205.253804 
L 166.090532 210.645607 
L 152.4907 220.130746 
z
" style="fill:#74081d;fill-opacity:0.8;"/>
    <path clip-path="url(#p772cc0c167)" d="M 129.074946 211.699436 
L 152.476223 217.188189 
L 166.092075 207.72094 
L 142.842896 202.339404 
z
" style="fill:#a30a29;fill-opacity:0.8;"/>
    <path clip-path="url(#p772cc0c167)" d="M 152.4907 220.130746 
L 166.090532 210.645607 
L 166.092075 207.72094 
L 152.476223 217.188189 
z
" style="fill:#5d0618;fill-opacity:0.8;"/>
    <path clip-path="url(#p772cc0c167)" d="M 129.116744 214.631648 
L 152.4907 220.130746 
L 152.476223 217.188189 
L 129.074946 211.699436 
z
" style="fill:#ba0c2f;fill-opacity:0.8;"/>
   </g>
   <g id="Poly3DCollection_15">
    <path clip-path="url(#p772cc0c167)" d="M 189.577878 216.098969 
L 189.540183 219.896865 
L 213.260712 225.42619 
L 213.334926 221.614951 
z
" style="fill:#ba0c2f;fill-opacity:0.8;"/>
    <path clip-path="url(#p772cc0c167)" d="M 176.134189 225.693256 
L 176.116748 229.514298 
L 189.540183 219.896865 
L 189.577878 216.098969 
z
" style="fill:#5d0618;fill-opacity:0.8;"/>
    <path clip-path="url(#p772cc0c167)" d="M 176.116748 229.514298 
L 199.997442 235.154762 
L 213.260712 225.42619 
L 189.540183 219.896865 
z
" style="fill:#a30a29;fill-opacity:0.8;"/>
    <path clip-path="url(#p772cc0c167)" d="M 176.134189 225.693256 
L 189.577878 216.098969 
L 213.334926 221.614951 
L 200.0519 231.320281 
z
" style="fill:#74081d;fill-opacity:0.8;"/>
    <path clip-path="url(#p772cc0c167)" d="M 200.0519 231.320281 
L 213.334926 221.614951 
L 213.260712 225.42619 
L 199.997442 235.154762 
z
" style="fill:#ba0c2f;fill-opacity:0.8;"/>
    <path clip-path="url(#p772cc0c167)" d="M 176.134189 225.693256 
L 200.0519 231.320281 
L 199.997442 235.154762 
L 176.116748 229.514298 
z
" style="fill:#5d0618;fill-opacity:0.8;"/>
   </g>
   <g id="Poly3DCollection_16">
    <path clip-path="url(#p772cc0c167)" d="M 25.372836 194.589259 
L 203.796653 236.762322 
L 299.91289 165.944232 
L 130.005046 129.525091 
z
" style="fill-opacity:0.15;"/>
   </g>
   <g id="Poly3DCollection_17">
    <path clip-path="url(#p772cc0c167)" d="M 38.226118 193.248171 
L 52.543016 184.281805 
L 74.748347 189.437505 
L 60.566754 198.504163 
z
" style="fill:#74081d;fill-opacity:0.8;"/>
    <path clip-path="url(#p772cc0c167)" d="M 52.543016 184.281805 
L 46.933544 57.750519 
L 70.222556 62.427839 
L 74.748347 189.437505 
z
" style="fill:#5d0618;fill-opacity:0.8;"/>
    <path clip-path="url(#p772cc0c167)" d="M 38.226118 193.248171 
L 31.836896 65.886594 
L 46.933544 57.750519 
L 52.543016 184.281805 
z
" style="fill:#ba0c2f;fill-opacity:0.8;"/>
    <path clip-path="url(#p772cc0c167)" d="M 60.566754 198.504163 
L 74.748347 189.437505 
L 70.222556 62.427839 
L 55.274545 70.659531 
z
" style="fill:#5d0618;fill-opacity:0.8;"/>
    <path clip-path="url(#p772cc0c167)" d="M 38.226118 193.248171 
L 60.566754 198.504163 
L 55.274545 70.659531 
L 31.836896 65.886594 
z
" style="fill:#ba0c2f;fill-opacity:0.8;"/>
    <path clip-path="url(#p772cc0c167)" d="M 31.836896 65.886594 
L 55.274545 70.659531 
L 70.222556 62.427839 
L 46.933544 57.750519 
z
" style="fill:#a30a29;fill-opacity:0.8;"/>
   </g>
  </g>
  <g id="patch_6">
   <path d="M 425.945455 262.8 
L 806.4 262.8 
L 806.4 -14.4 
L 425.945455 -14.4 
z
" style="fill:#ffffff;"/>
  </g>
  <g id="pane3d_4">
   <g id="patch_7">
    <path d="M 476.380584 201.548569 
L 585.268665 133.58541 
L 583.455794 3.718968 
L 468.496488 64.782468 
" style="fill:#f2f2f2;opacity:0.5;stroke:#f2f2f2;stroke-linejoin:miter;"/>
   </g>
  </g>
  <g id="pane3d_5">
   <g id="patch_8">
    <path d="M 585.268665 133.58541 
L 761.65712 171.581202 
L 769.037001 37.79869 
L 583.455794 3.718968 
" style="fill:#e6e6e6;opacity:0.5;stroke:#e6e6e6;stroke-linejoin:miter;"/>
   </g>
  </g>
  <g id="pane3d_6">
   <g id="patch_9">
    <path d="M 476.380584 201.548569 
L 661.965072 245.80086 
L 761.65712 171.581202 
L 585.268665 133.58541 
" style="fill:#ececec;opacity:0.5;stroke:#ececec;stroke-linejoin:miter;"/>
   </g>
  </g>
  <g id="axis3d_4">
   <g id="line2d_16">
    <path d="M 476.380584 201.548569 
L 661.965072 245.80086 
" style="fill:none;stroke:#000000;stroke-linecap:square;stroke-width:0.8;"/>
   </g>
   <g id="Line3DCollection_4">
    <path d="M 498.841271 206.90428 
L 606.679397 138.19749 
L 605.9393 7.847789 
" style="fill:none;stroke:#b0b0b0;stroke-width:0.8;"/>
    <path d="M 544.057792 217.686079 
L 649.729469 147.470895 
L 651.182353 16.156123 
" style="fill:none;stroke:#b0b0b0;stroke-width:0.8;"/>
    <path d="M 590.310744 228.715013 
L 693.693551 156.941187 
L 697.435637 24.649974 
" style="fill:none;stroke:#b0b0b0;stroke-width:0.8;"/>
    <path d="M 637.636176 239.999678 
L 738.601063 166.614702 
L 744.733372 33.335625 
" style="fill:none;stroke:#b0b0b0;stroke-width:0.8;"/>
   </g>
   <g id="xtick_13">
    <g id="line2d_17">
     <path d="M 499.770538 206.312217 
L 496.979262 208.09062 
" style="fill:none;stroke:#000000;stroke-linecap:square;stroke-width:0.8;"/>
    </g>
    <g id="text_14">
     <!-- 00 -->
     <g transform="translate(479.875817 237.14703)rotate(-45)scale(0.14 -0.14)">
      <use transform="scale(0.996264)" xlink:href="#CMR17-48"/>
      <use transform="translate(45.690477 0)scale(0.996264)" xlink:href="#CMR17-48"/>
     </g>
    </g>
   </g>
   <g id="xtick_14">
    <g id="line2d_18">
     <path d="M 544.969128 217.080527 
L 542.231671 218.899473 
" style="fill:none;stroke:#000000;stroke-linecap:square;stroke-width:0.8;"/>
    </g>
    <g id="text_15">
     <!-- 01 -->
     <g transform="translate(525.088242 248.103782)rotate(-45)scale(0.14 -0.14)">
      <use transform="scale(0.996264)" xlink:href="#CMR17-48"/>
      <use transform="translate(45.690477 0)scale(0.996264)" xlink:href="#CMR17-49"/>
     </g>
    </g>
   </g>
   <g id="xtick_15">
    <g id="line2d_19">
     <path d="M 591.20308 228.095506 
L 588.522658 229.956397 
" style="fill:none;stroke:#000000;stroke-linecap:square;stroke-width:0.8;"/>
    </g>
    <g id="text_16">
     <!-- 10 -->
     <g transform="translate(571.338855 259.312128)rotate(-45)scale(0.14 -0.14)">
      <use transform="scale(0.996264)" xlink:href="#CMR17-49"/>
      <use transform="translate(45.690477 0)scale(0.996264)" xlink:href="#CMR17-48"/>
     </g>
    </g>
   </g>
   <g id="xtick_16">
    <g id="line2d_20">
     <path d="M 638.50838 239.365727 
L 635.888391 241.270032 
" style="fill:none;stroke:#000000;stroke-linecap:square;stroke-width:0.8;"/>
    </g>
    <g id="text_17">
     <!-- 11 -->
     <g transform="translate(618.66383 270.780834)rotate(-45)scale(0.14 -0.14)">
      <use transform="scale(0.996264)" xlink:href="#CMR17-49"/>
      <use transform="translate(45.690477 0)scale(0.996264)" xlink:href="#CMR17-49"/>
     </g>
    </g>
   </g>
  </g>
  <g id="axis3d_5">
   <g id="line2d_21">
    <path d="M 761.65712 171.581202 
L 661.965072 245.80086 
" style="fill:none;stroke:#000000;stroke-linecap:square;stroke-width:0.8;"/>
   </g>
   <g id="Line3DCollection_5">
    <path d="M 484.000685 56.547028 
L 491.016499 192.413474 
L 675.403872 235.795817 
" style="fill:none;stroke:#b0b0b0;stroke-width:0.8;"/>
    <path d="M 513.777478 40.730342 
L 519.168861 174.842005 
L 701.219492 216.576366 
" style="fill:none;stroke:#b0b0b0;stroke-width:0.8;"/>
    <path d="M 542.401344 25.526062 
L 546.284836 157.917404 
L 726.04244 198.095948 
" style="fill:none;stroke:#b0b0b0;stroke-width:0.8;"/>
    <path d="M 569.937971 10.899296 
L 572.420618 141.604597 
L 749.928893 180.312741 
" style="fill:none;stroke:#b0b0b0;stroke-width:0.8;"/>
   </g>
   <g id="xtick_17">
    <g id="line2d_22">
     <path d="M 673.861052 235.432825 
L 678.492943 236.522608 
" style="fill:none;stroke:#000000;stroke-linecap:square;stroke-width:0.8;"/>
    </g>
    <g id="text_18">
     <!-- 00 -->
     <g transform="translate(689.195824 248.348363)rotate(-337.5)scale(0.14 -0.14)">
      <use transform="scale(0.996264)" xlink:href="#CMR17-48"/>
      <use transform="translate(45.690477 0)scale(0.996264)" xlink:href="#CMR17-48"/>
     </g>
    </g>
   </g>
   <g id="xtick_18">
    <g id="line2d_23">
     <path d="M 699.697534 216.227463 
L 704.266725 217.274932 
" style="fill:none;stroke:#000000;stroke-linecap:square;stroke-width:0.8;"/>
    </g>
    <g id="text_19">
     <!-- 01 -->
     <g transform="translate(714.749375 228.903937)rotate(-337.5)scale(0.14 -0.14)">
      <use transform="scale(0.996264)" xlink:href="#CMR17-48"/>
      <use transform="translate(45.690477 0)scale(0.996264)" xlink:href="#CMR17-49"/>
     </g>
    </g>
   </g>
   <g id="xtick_19">
    <g id="line2d_24">
     <path d="M 724.540896 197.76033 
L 729.048738 198.767901 
" style="fill:none;stroke:#000000;stroke-linecap:square;stroke-width:0.8;"/>
    </g>
    <g id="text_20">
     <!-- 10 -->
     <g transform="translate(739.320787 210.206849)rotate(-337.5)scale(0.14 -0.14)">
      <use transform="scale(0.996264)" xlink:href="#CMR17-49"/>
      <use transform="translate(45.690477 0)scale(0.996264)" xlink:href="#CMR17-48"/>
     </g>
    </g>
   </g>
   <g id="xtick_20">
    <g id="line2d_25">
     <path d="M 748.44732 179.989663 
L 752.895146 180.959573 
" style="fill:none;stroke:#000000;stroke-linecap:square;stroke-width:0.8;"/>
    </g>
    <g id="text_21">
     <!-- 11 -->
     <g transform="translate(762.965613 192.214827)rotate(-337.5)scale(0.14 -0.14)">
      <use transform="scale(0.996264)" xlink:href="#CMR17-49"/>
      <use transform="translate(45.690477 0)scale(0.996264)" xlink:href="#CMR17-49"/>
     </g>
    </g>
   </g>
  </g>
  <g id="axis3d_6">
   <g id="line2d_26">
    <path d="M 761.65712 171.581202 
L 769.037001 37.79869 
" style="fill:none;stroke:#000000;stroke-linecap:square;stroke-width:0.8;"/>
   </g>
   <g id="text_22">
    <!-- Im[$\rho$] -->
    <defs>
     <path d="M 19.703125 60.90625 
C 19.703125 65.390625 20.90625 65.390625 28.09375 65.390625 
L 28.09375 68 
C 24.90625 67.796875 19.796875 67.796875 16.40625 67.796875 
C 13 67.796875 7.90625 67.796875 4.703125 68 
L 4.703125 65.390625 
C 11.90625 65.390625 13.09375 65.390625 13.09375 60.90625 
L 13.09375 7.078125 
C 13.09375 2.59375 11.90625 2.59375 4.703125 2.59375 
L 4.703125 0 
C 7.90625 0.1875 13 0.1875 16.40625 0.1875 
C 19.796875 0.1875 24.90625 0.1875 28.09375 0 
L 28.09375 2.59375 
C 20.90625 2.59375 19.703125 2.59375 19.703125 7.078125 
z
" id="CMR17-73"/>
     <path d="M 67.59375 30.53125 
C 67.59375 35.5625 66.703125 44 54.796875 44 
C 48 44 43.296875 39.375 41.5 33.953125 
L 41.40625 33.953125 
C 40.203125 42.1875 34.296875 44 28.703125 44 
C 20.796875 44 16.703125 37.875 15.203125 33.84375 
L 15.09375 33.84375 
L 15.09375 44 
L 3.296875 42.890625 
L 3.296875 40.28125 
C 9.203125 40.28125 10.09375 39.6875 10.09375 34.859375 
L 10.09375 6.921875 
C 10.09375 3.09375 9.703125 2.59375 3.296875 2.59375 
L 3.296875 0 
C 5.703125 0.1875 10.09375 0.1875 12.703125 0.1875 
C 15.296875 0.1875 19.796875 0.1875 22.203125 0 
L 22.203125 2.59375 
C 15.796875 2.59375 15.40625 3 15.40625 6.921875 
L 15.40625 26.21875 
C 15.40625 35.453125 21 42.390625 28 42.390625 
C 35.40625 42.390625 36.203125 35.765625 36.203125 30.9375 
L 36.203125 6.921875 
C 36.203125 3.09375 35.796875 2.59375 29.40625 2.59375 
L 29.40625 0 
C 31.796875 0.1875 36.203125 0.1875 38.796875 0.1875 
C 41.40625 0.1875 45.90625 0.1875 48.296875 0 
L 48.296875 2.59375 
C 41.90625 2.59375 41.5 3 41.5 6.921875 
L 41.5 26.21875 
C 41.5 35.453125 47.09375 42.390625 54.09375 42.390625 
C 61.5 42.390625 62.296875 35.765625 62.296875 30.9375 
L 62.296875 6.921875 
C 62.296875 3.09375 61.90625 2.59375 55.5 2.59375 
L 55.5 0 
C 57.90625 0.1875 62.296875 0.1875 64.90625 0.1875 
C 67.5 0.1875 72 0.1875 74.40625 0 
L 74.40625 2.59375 
C 68 2.59375 67.59375 3 67.59375 6.921875 
z
" id="CMR17-109"/>
    </defs>
    <g transform="translate(809.026865 118.025317)rotate(-86.842577)scale(0.14 -0.14)">
     <use transform="scale(0.996264)" xlink:href="#CMR17-73"/>
     <use transform="translate(32.638409 0)scale(0.996264)" xlink:href="#CMR17-109"/>
     <use transform="translate(109.557999 0)scale(0.996264)" xlink:href="#CMR17-91"/>
     <use transform="translate(134.429058 0)scale(0.996264)" xlink:href="#CMMI12-26"/>
     <use transform="translate(184.74343 0)scale(0.996264)" xlink:href="#CMR17-93"/>
    </g>
   </g>
   <g id="Line3DCollection_6">
    <path d="M 762.303027 159.872193 
L 585.109682 122.196534 
L 475.691629 189.597218 
" style="fill:none;stroke:#b0b0b0;stroke-width:0.8;"/>
    <path d="M 763.913219 130.682634 
L 584.713615 93.823952 
L 473.973221 159.787844 
" style="fill:none;stroke:#b0b0b0;stroke-width:0.8;"/>
    <path d="M 765.560614 100.818642 
L 584.308786 64.823724 
L 472.213773 129.266541 
" style="fill:none;stroke:#b0b0b0;stroke-width:0.8;"/>
    <path d="M 767.246518 70.25657 
L 583.894902 35.174791 
L 470.411797 98.007498 
" style="fill:none;stroke:#b0b0b0;stroke-width:0.8;"/>
   </g>
   <g id="xtick_21">
    <g id="line2d_27">
     <path d="M 760.824383 159.557797 
L 765.263403 160.501642 
" style="fill:none;stroke:#000000;stroke-linecap:square;stroke-width:0.8;"/>
    </g>
    <g id="text_23">
     <!-- $0.0$ -->
     <g transform="translate(772.170973 167.629729)scale(0.14 -0.14)">
      <use transform="scale(0.996264)" xlink:href="#CMR17-48"/>
      <use transform="translate(45.690477 0)scale(0.996264)" xlink:href="#CMMI12-58"/>
      <use transform="translate(72.787654 0)scale(0.996264)" xlink:href="#CMR17-48"/>
     </g>
    </g>
   </g>
   <g id="xtick_22">
    <g id="line2d_28">
     <path d="M 762.417127 130.37491 
L 766.908561 131.298731 
" style="fill:none;stroke:#000000;stroke-linecap:square;stroke-width:0.8;"/>
    </g>
    <g id="text_24">
     <!-- $0.1$ -->
     <g transform="translate(773.989583 138.481133)scale(0.14 -0.14)">
      <use transform="scale(0.996264)" xlink:href="#CMR17-48"/>
      <use transform="translate(45.690477 0)scale(0.996264)" xlink:href="#CMMI12-58"/>
      <use transform="translate(72.787654 0)scale(0.996264)" xlink:href="#CMR17-49"/>
     </g>
    </g>
   </g>
   <g id="xtick_23">
    <g id="line2d_29">
     <path d="M 764.046659 100.517985 
L 768.591758 101.420599 
" style="fill:none;stroke:#000000;stroke-linecap:square;stroke-width:0.8;"/>
    </g>
    <g id="text_25">
     <!-- $0.2$ -->
     <g transform="translate(775.85012 108.66052)scale(0.14 -0.14)">
      <use transform="scale(0.996264)" xlink:href="#CMR17-48"/>
      <use transform="translate(45.690477 0)scale(0.996264)" xlink:href="#CMMI12-58"/>
      <use transform="translate(72.787654 0)scale(0.996264)" xlink:href="#CMR17-50"/>
     </g>
    </g>
   </g>
   <g id="xtick_24">
    <g id="line2d_30">
     <path d="M 765.714268 69.963396 
L 770.314329 70.843553 
" style="fill:none;stroke:#000000;stroke-linecap:square;stroke-width:0.8;"/>
    </g>
    <g id="text_26">
     <!-- $0.3$ -->
     <g transform="translate(777.754052 78.14438)scale(0.14 -0.14)">
      <use transform="scale(0.996264)" xlink:href="#CMR17-48"/>
      <use transform="translate(45.690477 0)scale(0.996264)" xlink:href="#CMMI12-58"/>
      <use transform="translate(72.787654 0)scale(0.996264)" xlink:href="#CMR17-51"/>
     </g>
    </g>
   </g>
  </g>
  <g id="axes_2">
   <g id="Poly3DCollection_18">
    <path clip-path="url(#pfd262291a6)" d="M 589.487022 128.519694 
L 589.494254 129.107579 
L 610.950437 133.701123 
L 610.948069 133.111196 
z
" style="fill:#0cba97;fill-opacity:0.8;"/>
    <path clip-path="url(#pfd262291a6)" d="M 576.660598 136.503141 
L 576.670837 137.094569 
L 589.494254 129.107579 
L 589.487022 128.519694 
z
" style="fill:#065d4c;fill-opacity:0.8;"/>
    <path clip-path="url(#pfd262291a6)" d="M 576.670837 137.094569 
L 598.256158 141.772702 
L 610.950437 133.701123 
L 589.494254 129.107579 
z
" style="fill:#0aa384;fill-opacity:0.8;"/>
    <path clip-path="url(#pfd262291a6)" d="M 576.660598 136.503141 
L 589.487022 128.519694 
L 610.948069 133.111196 
L 598.250841 141.179214 
z
" style="fill:#08745e;fill-opacity:0.8;"/>
    <path clip-path="url(#pfd262291a6)" d="M 598.250841 141.179214 
L 610.948069 133.111196 
L 610.950437 133.701123 
L 598.256158 141.772702 
z
" style="fill:#0cba97;fill-opacity:0.8;"/>
    <path clip-path="url(#pfd262291a6)" d="M 576.660598 136.503141 
L 598.250841 141.179214 
L 598.256158 141.772702 
L 576.670837 137.094569 
z
" style="fill:#065d4c;fill-opacity:0.8;"/>
   </g>
   <g id="Poly3DCollection_19">
    <path clip-path="url(#pfd262291a6)" d="M 632.636016 137.751243 
L 632.652015 134.108361 
L 654.601702 138.785 
L 654.55448 142.440607 
z
" style="fill:#065d4c;fill-opacity:0.8;"/>
    <path clip-path="url(#pfd262291a6)" d="M 620.07146 145.905183 
L 620.069688 142.240219 
L 632.652015 134.108361 
L 632.636016 137.751243 
z
" style="fill:#0cba97;fill-opacity:0.8;"/>
    <path clip-path="url(#pfd262291a6)" d="M 620.07146 145.905183 
L 632.636016 137.751243 
L 654.55448 142.440607 
L 642.12616 150.681849 
z
" style="fill:#08745e;fill-opacity:0.8;"/>
    <path clip-path="url(#pfd262291a6)" d="M 620.069688 142.240219 
L 642.156001 147.004048 
L 654.601702 138.785 
L 632.652015 134.108361 
z
" style="fill:#0aa384;fill-opacity:0.8;"/>
    <path clip-path="url(#pfd262291a6)" d="M 642.12616 150.681849 
L 654.55448 142.440607 
L 654.601702 138.785 
L 642.156001 147.004048 
z
" style="fill:#065d4c;fill-opacity:0.8;"/>
    <path clip-path="url(#pfd262291a6)" d="M 620.07146 145.905183 
L 642.12616 150.681849 
L 642.156001 147.004048 
L 620.069688 142.240219 
z
" style="fill:#0cba97;fill-opacity:0.8;"/>
   </g>
   <g id="Poly3DCollection_20">
    <path clip-path="url(#pfd262291a6)" d="M 563.597459 144.633925 
L 563.392535 135.505201 
L 585.189537 140.236137 
L 585.318028 149.396927 
z
" style="fill:#065d4c;fill-opacity:0.8;"/>
    <path clip-path="url(#pfd262291a6)" d="M 550.290993 152.916161 
L 550.036466 143.731793 
L 563.392535 135.505201 
L 563.597459 144.633925 
z
" style="fill:#0cba97;fill-opacity:0.8;"/>
    <path clip-path="url(#pfd262291a6)" d="M 550.290993 152.916161 
L 563.597459 144.633925 
L 585.318028 149.396927 
L 572.143013 157.768539 
z
" style="fill:#08745e;fill-opacity:0.8;"/>
    <path clip-path="url(#pfd262291a6)" d="M 550.036466 143.731793 
L 571.965842 148.551823 
L 585.189537 140.236137 
L 563.392535 135.505201 
z
" style="fill:#0aa384;fill-opacity:0.8;"/>
    <path clip-path="url(#pfd262291a6)" d="M 572.143013 157.768539 
L 585.318028 149.396927 
L 585.189537 140.236137 
L 571.965842 148.551823 
z
" style="fill:#065d4c;fill-opacity:0.8;"/>
    <path clip-path="url(#pfd262291a6)" d="M 550.290993 152.916161 
L 572.143013 157.768539 
L 571.965842 148.551823 
L 550.036466 143.731793 
z
" style="fill:#0cba97;fill-opacity:0.8;"/>
   </g>
   <g id="Poly3DCollection_21">
    <path clip-path="url(#pfd262291a6)" d="M 676.707157 147.180081 
L 676.869928 139.632499 
L 699.327616 144.396379 
L 699.097819 151.97047 
z
" style="fill:#065d4c;fill-opacity:0.8;"/>
    <path clip-path="url(#pfd262291a6)" d="M 664.41873 155.510034 
L 664.546579 147.916452 
L 676.869928 139.632499 
L 676.707157 147.180081 
z
" style="fill:#0cba97;fill-opacity:0.8;"/>
    <path clip-path="url(#pfd262291a6)" d="M 664.41873 155.510034 
L 676.707157 147.180081 
L 699.097819 151.97047 
L 686.953039 160.390575 
z
" style="fill:#08745e;fill-opacity:0.8;"/>
    <path clip-path="url(#pfd262291a6)" d="M 664.546579 147.916452 
L 687.148783 152.770253 
L 699.327616 144.396379 
L 676.869928 139.632499 
z
" style="fill:#0aa384;fill-opacity:0.8;"/>
    <path clip-path="url(#pfd262291a6)" d="M 686.953039 160.390575 
L 699.097819 151.97047 
L 699.327616 144.396379 
L 687.148783 152.770253 
z
" style="fill:#065d4c;fill-opacity:0.8;"/>
    <path clip-path="url(#pfd262291a6)" d="M 664.41873 155.510034 
L 686.953039 160.390575 
L 687.148783 152.770253 
L 664.546579 147.916452 
z
" style="fill:#0cba97;fill-opacity:0.8;"/>
   </g>
   <g id="Poly3DCollection_22">
    <path clip-path="url(#pfd262291a6)" d="M 607.272525 154.211226 
L 607.284267 156.353257 
L 629.457896 161.227182 
L 629.464748 159.077655 
z
" style="fill:#0cba97;fill-opacity:0.8;"/>
    <path clip-path="url(#pfd262291a6)" d="M 594.232592 162.673668 
L 594.255451 164.828706 
L 607.284267 156.353257 
L 607.272525 154.211226 
z
" style="fill:#065d4c;fill-opacity:0.8;"/>
    <path clip-path="url(#pfd262291a6)" d="M 594.255451 164.828706 
L 616.567656 169.795012 
L 629.457896 161.227182 
L 607.284267 156.353257 
z
" style="fill:#0aa384;fill-opacity:0.8;"/>
    <path clip-path="url(#pfd262291a6)" d="M 594.232592 162.673668 
L 607.272525 154.211226 
L 629.464748 159.077655 
L 616.563624 167.632414 
z
" style="fill:#08745e;fill-opacity:0.8;"/>
    <path clip-path="url(#pfd262291a6)" d="M 616.563624 167.632414 
L 629.464748 159.077655 
L 629.457896 161.227182 
L 616.567656 169.795012 
z
" style="fill:#0cba97;fill-opacity:0.8;"/>
    <path clip-path="url(#pfd262291a6)" d="M 594.232592 162.673668 
L 616.563624 167.632414 
L 616.567656 169.795012 
L 594.255451 164.828706 
z
" style="fill:#065d4c;fill-opacity:0.8;"/>
   </g>
   <g id="Poly3DCollection_23">
    <path clip-path="url(#pfd262291a6)" d="M 721.730324 156.812601 
L 721.730324 156.812601 
L 744.608611 161.707316 
L 744.608611 161.707316 
z
" style="fill:#065d4c;fill-opacity:0.8;"/>
    <path clip-path="url(#pfd262291a6)" d="M 709.733039 165.324329 
L 709.733039 165.324329 
L 721.730324 156.812601 
L 721.730324 156.812601 
z
" style="fill:#065d4c;fill-opacity:0.8;"/>
    <path clip-path="url(#pfd262291a6)" d="M 709.733039 165.324329 
L 721.730324 156.812601 
L 744.608611 161.707316 
L 732.762771 170.31217 
z
" style="fill:#08745e;fill-opacity:0.8;"/>
    <path clip-path="url(#pfd262291a6)" d="M 709.733039 165.324329 
L 732.762771 170.31217 
L 744.608611 161.707316 
L 721.730324 156.812601 
z
" style="fill:#0aa384;fill-opacity:0.8;"/>
    <path clip-path="url(#pfd262291a6)" d="M 732.762771 170.31217 
L 744.608611 161.707316 
L 744.608611 161.707316 
L 732.762771 170.31217 
z
" style="fill:#065d4c;fill-opacity:0.8;"/>
    <path clip-path="url(#pfd262291a6)" d="M 709.733039 165.324329 
L 732.762771 170.31217 
L 732.762771 170.31217 
L 709.733039 165.324329 
z
" style="fill:#065d4c;fill-opacity:0.8;"/>
   </g>
   <g id="Poly3DCollection_24">
    <path clip-path="url(#pfd262291a6)" d="M 536.734336 161.35412 
L 536.584475 156.828228 
L 558.607412 161.756586 
L 558.718926 166.298414 
z
" style="fill:#065d4c;fill-opacity:0.8;"/>
    <path clip-path="url(#pfd262291a6)" d="M 522.920365 169.952238 
L 522.744371 165.398696 
L 536.584475 156.828228 
L 536.734336 161.35412 
z
" style="fill:#0cba97;fill-opacity:0.8;"/>
    <path clip-path="url(#pfd262291a6)" d="M 522.920365 169.952238 
L 536.734336 161.35412 
L 558.718926 166.298414 
L 545.038639 174.991084 
z
" style="fill:#08745e;fill-opacity:0.8;"/>
    <path clip-path="url(#pfd262291a6)" d="M 522.744371 165.398696 
L 544.901454 170.421471 
L 558.607412 161.756586 
L 536.584475 156.828228 
z
" style="fill:#0aa384;fill-opacity:0.8;"/>
    <path clip-path="url(#pfd262291a6)" d="M 545.038639 174.991084 
L 558.718926 166.298414 
L 558.607412 161.756586 
L 544.901454 170.421471 
z
" style="fill:#065d4c;fill-opacity:0.8;"/>
    <path clip-path="url(#pfd262291a6)" d="M 522.920365 169.952238 
L 545.038639 174.991084 
L 544.901454 170.421471 
L 522.744371 165.398696 
z
" style="fill:#0cba97;fill-opacity:0.8;"/>
   </g>
   <g id="Poly3DCollection_25">
    <path clip-path="url(#pfd262291a6)" d="M 651.898581 163.997066 
L 651.898581 163.997066 
L 674.57799 168.970327 
L 674.57799 168.970327 
z
" style="fill:#065d4c;fill-opacity:0.8;"/>
    <path clip-path="url(#pfd262291a6)" d="M 639.140092 172.645661 
L 639.140092 172.645661 
L 651.898581 163.997066 
L 651.898581 163.997066 
z
" style="fill:#065d4c;fill-opacity:0.8;"/>
    <path clip-path="url(#pfd262291a6)" d="M 639.140092 172.645661 
L 661.966062 177.714311 
L 674.57799 168.970327 
L 651.898581 163.997066 
z
" style="fill:#0aa384;fill-opacity:0.8;"/>
    <path clip-path="url(#pfd262291a6)" d="M 639.140092 172.645661 
L 651.898581 163.997066 
L 674.57799 168.970327 
L 661.966062 177.714311 
z
" style="fill:#08745e;fill-opacity:0.8;"/>
    <path clip-path="url(#pfd262291a6)" d="M 661.966062 177.714311 
L 674.57799 168.970327 
L 674.57799 168.970327 
L 661.966062 177.714311 
z
" style="fill:#065d4c;fill-opacity:0.8;"/>
    <path clip-path="url(#pfd262291a6)" d="M 639.140092 172.645661 
L 661.966062 177.714311 
L 661.966062 177.714311 
L 639.140092 172.645661 
z
" style="fill:#065d4c;fill-opacity:0.8;"/>
   </g>
   <g id="Poly3DCollection_26">
    <path clip-path="url(#pfd262291a6)" d="M 580.944789 171.296969 
L 580.944789 171.296969 
L 603.415916 176.350684 
L 603.415916 176.350684 
z
" style="fill:#065d4c;fill-opacity:0.8;"/>
    <path clip-path="url(#pfd262291a6)" d="M 567.40198 180.085759 
L 567.40198 180.085759 
L 580.944789 171.296969 
L 580.944789 171.296969 
z
" style="fill:#065d4c;fill-opacity:0.8;"/>
    <path clip-path="url(#pfd262291a6)" d="M 567.40198 180.085759 
L 580.944789 171.296969 
L 603.415916 176.350684 
L 590.014485 185.237198 
z
" style="fill:#08745e;fill-opacity:0.8;"/>
    <path clip-path="url(#pfd262291a6)" d="M 567.40198 180.085759 
L 590.014485 185.237198 
L 603.415916 176.350684 
L 580.944789 171.296969 
z
" style="fill:#0aa384;fill-opacity:0.8;"/>
    <path clip-path="url(#pfd262291a6)" d="M 590.014485 185.237198 
L 603.415916 176.350684 
L 603.415916 176.350684 
L 590.014485 185.237198 
z
" style="fill:#065d4c;fill-opacity:0.8;"/>
    <path clip-path="url(#pfd262291a6)" d="M 567.40198 180.085759 
L 590.014485 185.237198 
L 590.014485 185.237198 
L 567.40198 180.085759 
z
" style="fill:#065d4c;fill-opacity:0.8;"/>
   </g>
   <g id="Poly3DCollection_27">
    <path clip-path="url(#pfd262291a6)" d="M 697.50703 173.998329 
L 697.277774 181.646083 
L 720.389186 186.756548 
L 720.689846 179.081981 
z
" style="fill:#0cba97;fill-opacity:0.8;"/>
    <path clip-path="url(#pfd262291a6)" d="M 685.045695 182.839288 
L 684.852093 190.533563 
L 697.277774 181.646083 
L 697.50703 173.998329 
z
" style="fill:#065d4c;fill-opacity:0.8;"/>
    <path clip-path="url(#pfd262291a6)" d="M 684.852093 190.533563 
L 708.117273 195.742842 
L 720.389186 186.756548 
L 697.277774 181.646083 
z
" style="fill:#0aa384;fill-opacity:0.8;"/>
    <path clip-path="url(#pfd262291a6)" d="M 685.045695 182.839288 
L 697.50703 173.998329 
L 720.689846 179.081981 
L 708.383242 188.021536 
z
" style="fill:#08745e;fill-opacity:0.8;"/>
    <path clip-path="url(#pfd262291a6)" d="M 708.383242 188.021536 
L 720.689846 179.081981 
L 720.389186 186.756548 
L 708.117273 195.742842 
z
" style="fill:#0cba97;fill-opacity:0.8;"/>
    <path clip-path="url(#pfd262291a6)" d="M 685.045695 182.839288 
L 708.383242 188.021536 
L 708.117273 195.742842 
L 684.852093 190.533563 
z
" style="fill:#065d4c;fill-opacity:0.8;"/>
   </g>
   <g id="Poly3DCollection_28">
    <path clip-path="url(#pfd262291a6)" d="M 508.841684 178.715117 
L 508.841684 178.715117 
L 531.094745 183.851253 
L 531.094745 183.851253 
z
" style="fill:#065d4c;fill-opacity:0.8;"/>
    <path clip-path="url(#pfd262291a6)" d="M 494.490611 187.647539 
L 494.490611 187.647539 
L 508.841684 178.715117 
L 508.841684 178.715117 
z
" style="fill:#065d4c;fill-opacity:0.8;"/>
    <path clip-path="url(#pfd262291a6)" d="M 494.490611 187.647539 
L 508.841684 178.715117 
L 531.094745 183.851253 
L 516.879551 192.883811 
z
" style="fill:#08745e;fill-opacity:0.8;"/>
    <path clip-path="url(#pfd262291a6)" d="M 494.490611 187.647539 
L 516.879551 192.883811 
L 531.094745 183.851253 
L 508.841684 178.715117 
z
" style="fill:#0aa384;fill-opacity:0.8;"/>
    <path clip-path="url(#pfd262291a6)" d="M 516.879551 192.883811 
L 531.094745 183.851253 
L 531.094745 183.851253 
L 516.879551 192.883811 
z
" style="fill:#065d4c;fill-opacity:0.8;"/>
    <path clip-path="url(#pfd262291a6)" d="M 494.490611 187.647539 
L 516.879551 192.883811 
L 516.879551 192.883811 
L 494.490611 187.647539 
z
" style="fill:#065d4c;fill-opacity:0.8;"/>
   </g>
   <g id="Poly3DCollection_29">
    <path clip-path="url(#pfd262291a6)" d="M 626.136391 181.460477 
L 626.140553 179.273272 
L 649.134511 184.432352 
L 649.110387 186.627286 
z
" style="fill:#065d4c;fill-opacity:0.8;"/>
    <path clip-path="url(#pfd262291a6)" d="M 612.880342 190.446353 
L 612.872992 188.245738 
L 626.140553 179.273272 
L 626.136391 181.460477 
z
" style="fill:#0cba97;fill-opacity:0.8;"/>
    <path clip-path="url(#pfd262291a6)" d="M 612.880342 190.446353 
L 626.136391 181.460477 
L 649.110387 186.627286 
L 636.003831 195.7142 
z
" style="fill:#08745e;fill-opacity:0.8;"/>
    <path clip-path="url(#pfd262291a6)" d="M 612.872992 188.245738 
L 636.016704 193.505794 
L 649.134511 184.432352 
L 626.140553 179.273272 
z
" style="fill:#0aa384;fill-opacity:0.8;"/>
    <path clip-path="url(#pfd262291a6)" d="M 636.003831 195.7142 
L 649.110387 186.627286 
L 649.134511 184.432352 
L 636.016704 193.505794 
z
" style="fill:#065d4c;fill-opacity:0.8;"/>
    <path clip-path="url(#pfd262291a6)" d="M 612.880342 190.446353 
L 636.003831 195.7142 
L 636.016704 193.505794 
L 612.872992 188.245738 
z
" style="fill:#0cba97;fill-opacity:0.8;"/>
   </g>
   <g id="Poly3DCollection_30">
    <path clip-path="url(#pfd262291a6)" d="M 553.596755 189.044848 
L 553.719962 193.641969 
L 576.434181 198.910195 
L 576.351917 194.296872 
z
" style="fill:#0cba97;fill-opacity:0.8;"/>
    <path clip-path="url(#pfd262291a6)" d="M 539.521411 198.179235 
L 539.67168 202.804465 
L 553.719962 193.641969 
L 553.596755 189.044848 
z
" style="fill:#065d4c;fill-opacity:0.8;"/>
    <path clip-path="url(#pfd262291a6)" d="M 539.67168 202.804465 
L 562.529314 208.17638 
L 576.434181 198.910195 
L 553.719962 193.641969 
z
" style="fill:#0aa384;fill-opacity:0.8;"/>
    <path clip-path="url(#pfd262291a6)" d="M 539.521411 198.179235 
L 553.596755 189.044848 
L 576.351917 194.296872 
L 562.420502 203.53482 
z
" style="fill:#08745e;fill-opacity:0.8;"/>
    <path clip-path="url(#pfd262291a6)" d="M 562.420502 203.53482 
L 576.351917 194.296872 
L 576.434181 198.910195 
L 562.529314 208.17638 
z
" style="fill:#0cba97;fill-opacity:0.8;"/>
    <path clip-path="url(#pfd262291a6)" d="M 539.521411 198.179235 
L 562.420502 203.53482 
L 562.529314 208.17638 
L 539.67168 202.804465 
z
" style="fill:#065d4c;fill-opacity:0.8;"/>
   </g>
   <g id="Poly3DCollection_31">
    <path clip-path="url(#pfd262291a6)" d="M 672.342172 191.852071 
L 672.265866 195.626176 
L 695.724042 200.923234 
L 695.836107 197.135814 
z
" style="fill:#0cba97;fill-opacity:0.8;"/>
    <path clip-path="url(#pfd262291a6)" d="M 659.389331 201.041738 
L 659.331837 204.838945 
L 672.265866 195.626176 
L 672.342172 191.852071 
z
" style="fill:#065d4c;fill-opacity:0.8;"/>
    <path clip-path="url(#pfd262291a6)" d="M 659.331837 204.838945 
L 682.947583 210.240612 
L 695.724042 200.923234 
L 672.265866 195.626176 
z
" style="fill:#0aa384;fill-opacity:0.8;"/>
    <path clip-path="url(#pfd262291a6)" d="M 659.389331 201.041738 
L 672.342172 191.852071 
L 695.836107 197.135814 
L 683.041322 206.429985 
z
" style="fill:#08745e;fill-opacity:0.8;"/>
    <path clip-path="url(#pfd262291a6)" d="M 683.041322 206.429985 
L 695.836107 197.135814 
L 695.724042 200.923234 
L 682.947583 210.240612 
z
" style="fill:#0cba97;fill-opacity:0.8;"/>
    <path clip-path="url(#pfd262291a6)" d="M 659.389331 201.041738 
L 683.041322 206.429985 
L 682.947583 210.240612 
L 659.331837 204.838945 
z
" style="fill:#065d4c;fill-opacity:0.8;"/>
   </g>
   <g id="Poly3DCollection_32">
    <path clip-path="url(#pfd262291a6)" d="M 599.364526 199.608317 
L 599.446674 209.025184 
L 622.633989 214.430216 
L 622.638976 204.980196 
z
" style="fill:#0cba97;fill-opacity:0.8;"/>
    <path clip-path="url(#pfd262291a6)" d="M 585.581232 208.951596 
L 585.716284 218.425978 
L 599.446674 209.025184 
L 599.364526 199.608317 
z
" style="fill:#065d4c;fill-opacity:0.8;"/>
    <path clip-path="url(#pfd262291a6)" d="M 585.716284 218.425978 
L 609.054888 223.938404 
L 622.633989 214.430216 
L 599.446674 209.025184 
z
" style="fill:#0aa384;fill-opacity:0.8;"/>
    <path clip-path="url(#pfd262291a6)" d="M 585.581232 208.951596 
L 599.364526 199.608317 
L 622.638976 204.980196 
L 609.008111 214.430618 
z
" style="fill:#08745e;fill-opacity:0.8;"/>
    <path clip-path="url(#pfd262291a6)" d="M 609.008111 214.430618 
L 622.638976 204.980196 
L 622.633989 214.430216 
L 609.054888 223.938404 
z
" style="fill:#0cba97;fill-opacity:0.8;"/>
    <path clip-path="url(#pfd262291a6)" d="M 585.581232 208.951596 
L 609.008111 214.430618 
L 609.054888 223.938404 
L 585.716284 218.425978 
z
" style="fill:#065d4c;fill-opacity:0.8;"/>
   </g>
   <g id="Poly3DCollection_33">
    <path clip-path="url(#pfd262291a6)" d="M 646.179762 210.413546 
L 646.185945 209.790581 
L 670.003655 215.284253 
L 669.991481 215.90943 
z
" style="fill:#065d4c;fill-opacity:0.8;"/>
    <path clip-path="url(#pfd262291a6)" d="M 632.705754 219.972967 
L 632.708615 219.346165 
L 646.185945 209.790581 
L 646.179762 210.413546 
z
" style="fill:#0cba97;fill-opacity:0.8;"/>
    <path clip-path="url(#pfd262291a6)" d="M 632.705754 219.972967 
L 646.179762 210.413546 
L 669.991481 215.90943 
L 656.678881 225.579744 
z
" style="fill:#08745e;fill-opacity:0.8;"/>
    <path clip-path="url(#pfd262291a6)" d="M 632.708615 219.346165 
L 656.687814 224.950715 
L 670.003655 215.284253 
L 646.185945 209.790581 
z
" style="fill:#0aa384;fill-opacity:0.8;"/>
    <path clip-path="url(#pfd262291a6)" d="M 656.678881 225.579744 
L 669.991481 215.90943 
L 670.003655 215.284253 
L 656.687814 224.950715 
z
" style="fill:#065d4c;fill-opacity:0.8;"/>
    <path clip-path="url(#pfd262291a6)" d="M 632.705754 219.972967 
L 656.678881 225.579744 
L 656.687814 224.950715 
L 632.708615 219.346165 
z
" style="fill:#0cba97;fill-opacity:0.8;"/>
   </g>
   <g id="Poly3DCollection_34">
    <path clip-path="url(#pfd262291a6)" d="M 481.608348 188.983583 
L 660.432791 231.002346 
L 756.749651 160.448145 
L 586.47857 124.173922 
z
" style="fill-opacity:0.2;"/>
   </g>
  </g>
 </g>
 <defs>
  <clipPath id="p772cc0c167">
   <rect height="277.2" width="380.454545" x="-30.6" y="-14.4"/>
  </clipPath>
  <clipPath id="pfd262291a6">
   <rect height="277.2" width="380.454545" x="425.945455" y="-14.4"/>
  </clipPath>
 </defs>
</svg>
